<svg xmlns="http://www.w3.org/2000/svg" stroke-width="0.3" stroke-dasharray="none" fill="black" stroke="black" font-family="Arial, sans-serif" font-size="10pt" font-weight="normal" font-style="normal" width="600" height="160" viewBox="0 0 666.6666666666666 177.77777777777777" style="width: 600px; height: 160px; border: none;"><g class="vf-stave" id="vf-auto24391" stroke-width="1" fill="#999999" stroke="#999999" font-family="Arial"><path fill="none" d="M10 70L610 70"/><path fill="none" d="M10 80L610 80"/><path fill="none" d="M10 90L610 90"/><path fill="none" d="M10 100L610 100"/><path fill="none" d="M10 110L610 110"/></g><g class="vf-stavebarline" id="vf-auto24392" font-family="Arial"><rect x="10" y="69.5" width="1" height="41" stroke="none"/></g><g class="vf-stavebarline" id="vf-auto24393" font-family="Arial"><rect x="610" y="69.5" width="1" height="41" stroke="none"/></g><g class="vf-clef" id="vf-auto24394" font-family="Arial"><path stroke="none" d="M23.693 121.402C23.87 121.402,24.048 121.377,24.276 121.301C24.707 121.148,25.062 120.92,25.366 120.591C28.382 117.423,29.623 113.596,29.75 109.313C29.75 108.983,29.776 108.451,29.776 108.451C29.776 108.451,30.282 108.147,30.511 108.071C31.727 107.488,32.893 106.829,33.932 105.993C36.72 103.762,38.316 100.747,39.051 97.376C39.204 96.844,39.229 96.286,39.229 95.779C39.229 93.473,37.962 91.8,35.047 91.268C34.312 91.116,33.577 91.04,32.842 91.04C31.017 91.04,29.269 91.521,27.621 92.484C27.419 92.611,27.19 92.763,27.19 92.763L26.253 89.215C26.202 89.038,26.202 88.708,26.202 88.708C26.202 88.708,29.928 82.093,30.434 78.697C30.612 77.709,30.688 76.72,30.688 75.757C30.688 74.972,30.663 74.237,30.536 73.527C30.181 70.891,29.193 68.408,28.534 65.848C28.356 65.088,28.103 64.175,27.216 64.175C26.557 64.175,26.101 64.809,25.695 65.341C23.82 67.926,22.907 70.891,22.73 74.059C22.705 74.566,22.705 75.098,22.705 75.605C22.705 78.545,23.186 81.51,23.566 84.425C23.566 84.653,23.642 84.881,23.693 85.059C22.046 87.39,20.221 89.57,18.65 91.978C17.56 93.701,16.343 95.424,15.583 97.35C15.177 98.288,15 99.403,15 100.493C15 102.749,15.76 105.055,17.078 106.322C17.839 107.057,19.055 107.868,20.246 108.299C21.944 108.907,23.617 109.313,25.391 109.313C25.923 109.313,26.455 109.287,27.013 109.211L27.444 109.135C27.444 109.135,27.469 109.465,27.444 109.642C27.038 111.847,26.506 114.001,25.188 115.826C24.479 116.764,23.82 117.828,22.451 117.93C22.046 117.98,21.868 118.234,21.868 118.563C21.868 118.69,21.894 118.817,21.944 118.944C22.147 119.501,22.4 120.084,22.654 120.642C22.882 121.148,23.237 121.402,23.693 121.402M25.138 82.828C24.859 81.08,24.681 79.356,24.681 77.633C24.681 74.465,25.34 71.373,27.19 68.408C27.621 69.751,27.849 71.119,27.849 72.488C27.849 73.198,27.773 73.933,27.672 74.642C27.19 77.506,26.532 80.269,25.138 82.828M21.387 104.421C20.88 104.396,20.449 104.219,19.967 104.067C19.004 103.737,18.219 103.382,17.965 102.749C17.839 102.47,17.813 102.14,17.813 101.811C17.813 101.406,17.889 100.975,17.965 100.518C17.991 100.316,18.219 99.682,18.295 99.581C19.714 97.046,21.412 94.765,23.211 92.459L24.732 90.457L25.011 91.268C25.29 92.18,25.543 93.625,25.543 93.625C25.543 93.625,24.529 94.943,23.87 95.602C22.046 97.376,21.159 99.606,21.159 102.064C21.159 102.673,21.235 103.306,21.361 103.965C21.387 104.092,21.387 104.219,21.387 104.421M29.269 103.306C28.99 100.924,28.432 99.023,27.925 96.742C27.875 96.463,27.875 96.286,28.001 96.134C28.939 95.957,29.852 95.881,30.815 95.881C31.727 95.881,32.589 95.957,33.501 96.134C34.591 96.362,35.681 96.539,36.542 97.426C36.593 97.503,36.669 97.579,36.745 97.604C35.301 100.518,33.146 102.723,30.08 104.067L29.421 104.32M25.391 105.055C24.124 105.055,22.882 104.726,22.882 104.726C22.882 104.726,22.781 104.219,22.781 103.484C22.781 103.002,22.806 102.419,22.958 101.836C23.313 100.088,24.555 98.846,25.873 97.68C25.974 97.579,26.101 97.503,26.177 97.503C26.303 97.503,26.354 97.655,26.379 97.908C26.709 100.062,27.266 102.166,27.419 104.32C27.444 104.548,27.419 104.878,27.419 104.878C27.419 104.878,26.455 105.131,25.391 105.055"/></g><g class="vf-timesignature" id="vf-auto24395" font-family="Arial"><path stroke="none" d="M69.113 87.234C69.455 87.332,69.749 87.038,69.921 86.744C70.386 86.157,70.435 85.447,70.557 84.737C70.949 81.383,70.875 78.005,70.998 74.651L70.998 74.308C72.246 74.064,73.397 73.623,74.572 73.109C76.285 72.301,76.579 71.86,76.555 70C76.555 69.119,76.359 68.727,75.918 68.703C75.698 68.703,75.38 68.8,74.988 69.021L74.743 69.119C73.544 69.657,72.32 70.073,71.047 70.318C71.047 68.776,70.973 67.209,70.9 65.667C70.826 64.37,70.802 63.023,70.679 61.726C70.655 61.432,70.679 60.869,70.239 60.869C69.798 60.869,69.504 61.163,69.455 61.677C69.431 62.313,69.235 62.95,69.284 63.586C69.309 65.912,69.382 68.237,69.382 70.539C68.966 70.563,68.55 70.563,68.158 70.539C66.004 70.392,63.898 70.024,61.695 70.073C60.936 70.073,60.153 70.098,59.37 70.22C60.153 68.727,60.79 67.356,61.597 66.01C63.458 62.95,65.465 59.914,66.787 56.487C67.105 55.679,67.35 54.871,67.35 54.039C67.35 53.794,67.301 53.549,67.277 53.28C67.228 53.084,67.228 52.693,66.958 52.693C66.665 52.668,66.322 52.766,66.151 53.035C66.028 53.256,65.906 53.427,65.832 53.647C65.343 55.239,64.462 56.609,63.629 58.005C62.626 59.743,61.45 61.408,60.422 63.121C58.978 65.569,57.778 68.091,56.016 70.318C55.453 71.028,54.939 71.763,54.939 72.644C54.939 72.962,55.012 73.28,55.135 73.599C55.282 73.917,55.453 74.235,55.453 74.553C55.502 75.067,55.6 75.263,55.894 75.288C56.016 75.288,56.236 75.214,56.481 75.067C58.048 74.406,59.614 74.064,61.279 74.064C63.458 74.064,65.661 74.406,67.84 74.553C68.085 74.578,68.329 74.578,68.574 74.627C68.819 74.627,69.064 74.627,69.309 74.553C69.235 76.561,69.211 78.568,69.064 80.575C68.99 82.118,68.819 83.684,68.819 85.3C68.819 85.692,68.819 86.034,68.868 86.402C68.868 86.72,68.819 87.136,69.113 87.234"/><path stroke="none" d="M69.113 127.234C69.455 127.332,69.749 127.038,69.921 126.744C70.386 126.157,70.435 125.447,70.557 124.737C70.949 121.383,70.875 118.005,70.998 114.651L70.998 114.308C72.246 114.064,73.397 113.623,74.572 113.109C76.285 112.301,76.579 111.86,76.555 110C76.555 109.119,76.359 108.727,75.918 108.703C75.698 108.703,75.38 108.8,74.988 109.021L74.743 109.119C73.544 109.657,72.32 110.073,71.047 110.318C71.047 108.776,70.973 107.209,70.9 105.667C70.826 104.37,70.802 103.023,70.679 101.726C70.655 101.432,70.679 100.869,70.239 100.869C69.798 100.869,69.504 101.163,69.455 101.677C69.431 102.313,69.235 102.95,69.284 103.586C69.309 105.912,69.382 108.237,69.382 110.539C68.966 110.563,68.55 110.563,68.158 110.539C66.004 110.392,63.898 110.024,61.695 110.073C60.936 110.073,60.153 110.098,59.37 110.22C60.153 108.727,60.79 107.356,61.597 106.01C63.458 102.95,65.465 99.914,66.787 96.487C67.105 95.679,67.35 94.871,67.35 94.039C67.35 93.794,67.301 93.549,67.277 93.28C67.228 93.084,67.228 92.693,66.958 92.693C66.665 92.668,66.322 92.766,66.151 93.035C66.028 93.256,65.906 93.427,65.832 93.647C65.343 95.239,64.462 96.609,63.629 98.005C62.626 99.743,61.45 101.408,60.422 103.121C58.978 105.569,57.778 108.091,56.016 110.318C55.453 111.028,54.939 111.763,54.939 112.644C54.939 112.962,55.012 113.28,55.135 113.599C55.282 113.917,55.453 114.235,55.453 114.553C55.502 115.067,55.6 115.263,55.894 115.288C56.016 115.288,56.236 115.214,56.481 115.067C58.048 114.406,59.614 114.064,61.279 114.064C63.458 114.064,65.661 114.406,67.84 114.553C68.085 114.578,68.329 114.578,68.574 114.627C68.819 114.627,69.064 114.627,69.309 114.553C69.235 116.561,69.211 118.568,69.064 120.575C68.99 122.118,68.819 123.684,68.819 125.3C68.819 125.692,68.819 126.034,68.868 126.402C68.868 126.72,68.819 127.136,69.113 127.234"/></g><g class="vf-stavenote" id="vf-auto24399" font-family="Arial"><g class="vf-notehead" id="vf-auto24402" pointer-events="bounding-box"><path stroke="none" d="M92.451 70.502C93.181 70.474,93.546 70.025,93.799 69.547C94.529 68.199,95.091 66.795,95.596 65.335C97.197 61.011,97.927 56.406,99.359 51.997C99.443 51.744,99.527 51.464,99.527 51.183L99.527 50.986C99.499 50.425,99.359 50.06,98.881 50.06C98.769 50.06,98.685 50.06,98.573 50.088C97.59 50.256,96.691 50.649,96.045 51.267C95.035 52.25,93.911 52.952,92.732 53.682C92.563 53.766,92.423 53.85,92.255 53.85C92.086 53.85,91.918 53.766,91.777 53.598C91.609 53.457,91.525 53.261,91.525 53.092C91.525 52.924,91.553 52.812,91.637 52.643C91.805 52.362,91.974 51.997,91.974 51.632C91.974 50.93,92.17 50.06,91.412 49.695C91.047 49.526,90.71 49.442,90.486 49.442C89.952 49.442,89.615 49.807,89.194 50.565C88.408 51.913,88.183 53.401,87.93 54.918C87.874 55.226,87.846 55.507,87.846 55.788C87.846 57.641,88.829 59.326,90.907 59.326C91.412 59.326,92.002 59.242,92.648 58.989C93.827 58.54,94.81 57.894,95.961 57.164C95.035 61.741,93.265 65.981,92.451 70.502"/></g></g><g class="vf-stavenote" id="vf-auto24403" font-family="Arial"><g class="vf-notehead" id="vf-auto24406" pointer-events="bounding-box"><path stroke="none" d="M137.036 75.502C137.766 75.474,138.131 75.025,138.383 74.547C139.113 73.199,139.675 71.795,140.18 70.335C141.781 66.011,142.511 61.406,143.943 56.997C144.027 56.744,144.112 56.464,144.112 56.183L144.112 55.986C144.084 55.425,143.943 55.06,143.466 55.06C143.354 55.06,143.269 55.06,143.157 55.088C142.174 55.256,141.276 55.649,140.63 56.267C139.619 57.25,138.496 57.952,137.316 58.682C137.148 58.766,137.007 58.85,136.839 58.85C136.67 58.85,136.502 58.766,136.362 58.598C136.193 58.457,136.109 58.261,136.109 58.092C136.109 57.924,136.137 57.812,136.221 57.643C136.39 57.362,136.558 56.997,136.558 56.632C136.558 55.93,136.755 55.06,135.997 54.695C135.632 54.526,135.295 54.442,135.07 54.442C134.536 54.442,134.199 54.807,133.778 55.565C132.992 56.913,132.767 58.401,132.515 59.918C132.458 60.226,132.43 60.507,132.43 60.788C132.43 62.641,133.413 64.326,135.491 64.326C135.997 64.326,136.586 64.242,137.232 63.989C138.411 63.54,139.394 62.894,140.546 62.164C139.619 66.741,137.85 70.981,137.036 75.502"/></g></g><g class="vf-stavenote" id="vf-auto24407" font-family="Arial"><g class="vf-notehead" id="vf-auto24411" pointer-events="bounding-box"><path stroke="none" d="M180.16 96.543C180.44 96.599,180.693 96.627,180.974 96.627C184.849 96.627,190.634 91.348,190.521 87.08C190.409 86.041,190.437 84.609,188.331 83.766C187.741 83.485,187.095 83.373,186.393 83.373C182.069 83.373,177.38 88.343,177.043 91.657C177.043 91.909,177.015 92.134,177.015 92.387C177.015 94.409,177.913 96.037,180.16 96.543"/></g></g><g class="vf-stavenote" id="vf-auto24413" font-family="Arial"><g class="vf-notehead" id="vf-auto24416" pointer-events="bounding-box"><path stroke="none" d="M226.204 70.502C226.934 70.474,227.299 70.025,227.552 69.547C228.282 68.199,228.844 66.795,229.349 65.335C230.95 61.011,231.68 56.406,233.112 51.997C233.196 51.744,233.28 51.464,233.28 51.183L233.28 50.986C233.252 50.425,233.112 50.06,232.635 50.06C232.522 50.06,232.438 50.06,232.326 50.088C231.343 50.256,230.444 50.649,229.798 51.267C228.788 52.25,227.664 52.952,226.485 53.682C226.317 53.766,226.176 53.85,226.008 53.85C225.839 53.85,225.671 53.766,225.53 53.598C225.362 53.457,225.278 53.261,225.278 53.092C225.278 52.924,225.306 52.812,225.39 52.643C225.558 52.362,225.727 51.997,225.727 51.632C225.727 50.93,225.923 50.06,225.165 49.695C224.8 49.526,224.463 49.442,224.239 49.442C223.705 49.442,223.368 49.807,222.947 50.565C222.161 51.913,221.936 53.401,221.683 54.918C221.627 55.226,221.599 55.507,221.599 55.788C221.599 57.641,222.582 59.326,224.66 59.326C225.165 59.326,225.755 59.242,226.401 58.989C227.58 58.54,228.563 57.894,229.714 57.164C228.788 61.741,227.019 65.981,226.204 70.502"/></g></g><g class="vf-stavenote" id="vf-auto24417" font-family="Arial"><g class="vf-notehead" id="vf-auto24421" pointer-events="bounding-box"><path stroke="none" d="M269.328 71.543C269.609 71.599,269.862 71.627,270.143 71.627C274.018 71.627,279.802 66.348,279.69 62.08C279.578 61.041,279.606 59.609,277.5 58.766C276.91 58.485,276.264 58.373,275.562 58.373C271.238 58.373,266.548 63.343,266.211 66.657C266.211 66.909,266.183 67.134,266.183 67.387C266.183 69.409,267.082 71.037,269.328 71.543"/></g></g><g class="vf-stavenote" id="vf-auto24423" font-family="Arial"><path stroke-width="1.4" fill="none" stroke="#444" d="M307.768 60L327.276 60"/><g class="vf-notehead" id="vf-auto24427" pointer-events="bounding-box"><path stroke="none" d="M313.913 61.543C314.194 61.599,314.446 61.627,314.727 61.627C318.602 61.627,324.387 56.348,324.274 52.08C324.162 51.041,324.19 49.609,322.084 48.766C321.494 48.485,320.848 48.373,320.146 48.373C315.822 48.373,311.133 53.343,310.796 56.657C310.796 56.909,310.768 57.134,310.768 57.387C310.768 59.409,311.666 61.037,313.913 61.543"/></g></g><g class="vf-stavenote" id="vf-auto24429" font-family="Arial"><path stroke-width="1.4" fill="none" stroke="#444" d="M352.352 60L371.86 60"/><g class="vf-notehead" id="vf-auto24433" pointer-events="bounding-box"><path stroke="none" d="M358.497 66.543C358.778 66.599,359.031 66.627,359.311 66.627C363.186 66.627,368.971 61.348,368.859 57.08C368.746 56.041,368.774 54.609,366.668 53.766C366.079 53.485,365.433 53.373,364.731 53.373C360.406 53.373,355.717 58.343,355.38 61.657C355.38 61.909,355.352 62.134,355.352 62.387C355.352 64.409,356.251 66.037,358.497 66.543"/></g></g><g class="vf-stavenote" id="vf-auto24435" font-family="Arial"><g class="vf-notehead" id="vf-auto24438" pointer-events="bounding-box"><path stroke="none" d="M404.542 75.502C405.272 75.474,405.637 75.025,405.889 74.547C406.619 73.199,407.181 71.795,407.687 70.335C409.287 66.011,410.017 61.406,411.449 56.997C411.533 56.744,411.618 56.464,411.618 56.183L411.618 55.986C411.59 55.425,411.449 55.06,410.972 55.06C410.86 55.06,410.775 55.06,410.663 55.088C409.68 55.256,408.782 55.649,408.136 56.267C407.125 57.25,406.002 57.952,404.822 58.682C404.654 58.766,404.513 58.85,404.345 58.85C404.177 58.85,404.008 58.766,403.868 58.598C403.699 58.457,403.615 58.261,403.615 58.092C403.615 57.924,403.643 57.812,403.727 57.643C403.896 57.362,404.064 56.997,404.064 56.632C404.064 55.93,404.261 55.06,403.503 54.695C403.138 54.526,402.801 54.442,402.576 54.442C402.042 54.442,401.705 54.807,401.284 55.565C400.498 56.913,400.273 58.401,400.021 59.918C399.965 60.226,399.936 60.507,399.936 60.788C399.936 62.641,400.919 64.326,402.997 64.326C403.503 64.326,404.092 64.242,404.738 63.989C405.917 63.54,406.9 62.894,408.052 62.164C407.125 66.741,405.356 70.981,404.542 75.502"/></g></g><g class="vf-stavenote" id="vf-auto24439" font-family="Arial"><g class="vf-notehead" id="vf-auto24443" pointer-events="bounding-box"><path stroke="none" d="M447.666 96.543C447.947 96.599,448.199 96.627,448.48 96.627C452.355 96.627,458.14 91.348,458.027 87.08C457.915 86.041,457.943 84.609,455.837 83.766C455.247 83.485,454.601 83.373,453.899 83.373C449.575 83.373,444.886 88.343,444.549 91.657C444.549 91.909,444.521 92.134,444.521 92.387C444.521 94.409,445.419 96.037,447.666 96.543"/></g></g><g class="vf-stavenote" id="vf-auto24445" font-family="Arial"><path stroke-width="1.4" fill="none" stroke="#444" d="M486.105 60L505.613 60"/><g class="vf-notehead" id="vf-auto24449" pointer-events="bounding-box"><path stroke="none" d="M492.25 66.543C492.531 66.599,492.784 66.627,493.064 66.627C496.939 66.627,502.724 61.348,502.612 57.08C502.499 56.041,502.527 54.609,500.421 53.766C499.832 53.485,499.186 53.373,498.484 53.373C494.159 53.373,489.47 58.343,489.133 61.657C489.133 61.909,489.105 62.134,489.105 62.387C489.105 64.409,490.004 66.037,492.25 66.543"/></g></g><g class="vf-stavenote" id="vf-auto24451" font-family="Arial"><g class="vf-notehead" id="vf-auto24454" pointer-events="bounding-box"><path stroke="none" d="M538.295 75.502C539.025 75.474,539.39 75.025,539.642 74.547C540.372 73.199,540.934 71.795,541.44 70.335C543.04 66.011,543.77 61.406,545.202 56.997C545.286 56.744,545.371 56.464,545.371 56.183L545.371 55.986C545.343 55.425,545.202 55.06,544.725 55.06C544.613 55.06,544.528 55.06,544.416 55.088C543.433 55.256,542.535 55.649,541.889 56.267C540.878 57.25,539.755 57.952,538.575 58.682C538.407 58.766,538.266 58.85,538.098 58.85C537.93 58.85,537.761 58.766,537.621 58.598C537.452 58.457,537.368 58.261,537.368 58.092C537.368 57.924,537.396 57.812,537.48 57.643C537.649 57.362,537.817 56.997,537.817 56.632C537.817 55.93,538.014 55.06,537.256 54.695C536.891 54.526,536.554 54.442,536.329 54.442C535.795 54.442,535.458 54.807,535.037 55.565C534.251 56.913,534.026 58.401,533.774 59.918C533.718 60.226,533.689 60.507,533.689 60.788C533.689 62.641,534.672 64.326,536.75 64.326C537.256 64.326,537.845 64.242,538.491 63.989C539.67 63.54,540.653 62.894,541.805 62.164C540.878 66.741,539.109 70.981,538.295 75.502"/></g></g><g class="vf-stavenote" id="vf-auto24455" font-family="Arial"><g class="vf-notehead" id="vf-auto24473" pointer-events="bounding-box"><path stroke="none" d="M582.879 75.502C583.609 75.474,583.974 75.025,584.227 74.547C584.957 73.199,585.518 71.795,586.024 70.335C587.624 66.011,588.354 61.406,589.787 56.997C589.871 56.744,589.955 56.464,589.955 56.183L589.955 55.986C589.927 55.425,589.787 55.06,589.309 55.06C589.197 55.06,589.113 55.06,589 55.088C588.018 55.256,587.119 55.649,586.473 56.267C585.462 57.25,584.339 57.952,583.16 58.682C582.991 58.766,582.851 58.85,582.682 58.85C582.514 58.85,582.345 58.766,582.205 58.598C582.036 58.457,581.952 58.261,581.952 58.092C581.952 57.924,581.98 57.812,582.065 57.643C582.233 57.362,582.402 56.997,582.402 56.632C582.402 55.93,582.598 55.06,581.84 54.695C581.475 54.526,581.138 54.442,580.913 54.442C580.38 54.442,580.043 54.807,579.622 55.565C578.835 56.913,578.611 58.401,578.358 59.918C578.302 60.226,578.274 60.507,578.274 60.788C578.274 62.641,579.257 64.326,581.334 64.326C581.84 64.326,582.43 64.242,583.075 63.989C584.255 63.54,585.238 62.894,586.389 62.164C585.462 66.741,583.693 70.981,582.879 75.502"/></g></g><path stroke="none" d="M133.212 142.887C133.972 143.14,134.701 143.267,135.398 143.267C136.839 143.267,138.186 142.729,139.374 141.699C140.831 140.4,141.338 138.689,141.338 136.884C141.338 136.472,141.306 136.044,141.259 135.632C141.132 134.349,140.403 133.351,139.12 132.829C138.772 132.718,138.439 132.623,138.075 132.528C139.389 130.959,140.514 129.344,141.67 127.712C141.971 127.3,142.114 126.857,142.114 126.366C142.114 126.192,142.082 125.986,142.035 125.78C141.971 125.51,141.86 125.4,141.67 125.4C141.607 125.4,141.544 125.415,141.449 125.431C140.942 125.574,140.435 125.59,139.944 125.59C138.692 125.59,137.409 125.558,136.158 125.558L135.271 125.558C133.877 125.558,132.483 125.558,131.121 125.685C130.662 125.732,130.424 125.922,130.361 126.397C130.266 126.857,130.297 127.332,130.25 127.807C130.218 128.108,130.297 128.251,130.614 128.251L130.677 128.251C131.485 128.172,132.293 128.124,133.117 128.124L139.326 128.124C138.075 129.819,136.839 131.292,135.398 132.623C134.542 133.415,133.687 134.143,133.687 135.363C133.687 135.569,133.719 135.791,133.782 136.044L133.782 136.092C133.766 136.266,133.766 136.472,133.972 136.567C134.131 136.63,134.289 136.551,134.4 136.424C134.986 135.838,135.762 135.664,136.522 135.474C136.792 135.41,137.061 135.363,137.314 135.363C137.98 135.363,138.613 135.585,139.168 136.044C139.532 136.313,140.007 136.662,140.007 137.169C140.007 137.248,139.991 137.327,139.96 137.406C139.548 138.737,138.803 139.782,137.473 140.289C136.823 140.543,136.158 140.653,135.509 140.653C134.368 140.653,133.259 140.289,132.182 139.719C131.723 139.45,131.343 139.244,131.184 138.689C131.153 138.578,131.137 138.277,130.915 138.277C130.868 138.277,130.836 138.277,130.788 138.309C130.551 138.373,130.361 138.547,130.361 138.895C130.313 139.656,130.503 140.305,130.662 141.034C130.741 141.43,131.026 141.746,131.39 141.968C131.976 142.317,132.547 142.665,133.212 142.887"/><path stroke="none" d="M266.965 137.887C267.725 138.14,268.454 138.267,269.151 138.267C270.592 138.267,271.939 137.729,273.127 136.699C274.584 135.4,275.091 133.689,275.091 131.884C275.091 131.472,275.059 131.044,275.012 130.632C274.885 129.349,274.156 128.351,272.873 127.829C272.525 127.718,272.192 127.623,271.828 127.528C273.142 125.959,274.267 124.344,275.423 122.712C275.724 122.3,275.867 121.857,275.867 121.366C275.867 121.192,275.835 120.986,275.788 120.78C275.724 120.51,275.613 120.4,275.423 120.4C275.36 120.4,275.297 120.415,275.202 120.431C274.695 120.574,274.188 120.59,273.697 120.59C272.445 120.59,271.162 120.558,269.911 120.558L269.024 120.558C267.63 120.558,266.236 120.558,264.874 120.685C264.415 120.732,264.177 120.922,264.114 121.397C264.019 121.857,264.05 122.332,264.003 122.807C263.971 123.108,264.05 123.251,264.367 123.251L264.43 123.251C265.238 123.172,266.046 123.124,266.87 123.124L273.079 123.124C271.828 124.819,270.592 126.292,269.151 127.623C268.295 128.415,267.44 129.143,267.44 130.363C267.44 130.569,267.472 130.791,267.535 131.044L267.535 131.092C267.519 131.266,267.519 131.472,267.725 131.567C267.884 131.63,268.042 131.551,268.153 131.424C268.739 130.838,269.515 130.664,270.275 130.474C270.545 130.41,270.814 130.363,271.067 130.363C271.733 130.363,272.366 130.585,272.921 131.044C273.285 131.313,273.76 131.662,273.76 132.169C273.76 132.248,273.744 132.327,273.713 132.406C273.301 133.737,272.556 134.782,271.226 135.289C270.576 135.543,269.911 135.653,269.262 135.653C268.121 135.653,267.012 135.289,265.935 134.719C265.476 134.45,265.096 134.244,264.937 133.689C264.906 133.578,264.89 133.277,264.668 133.277C264.621 133.277,264.589 133.277,264.541 133.309C264.304 133.373,264.114 133.547,264.114 133.895C264.066 134.656,264.256 135.305,264.415 136.034C264.494 136.43,264.779 136.746,265.143 136.968C265.729 137.317,266.3 137.665,266.965 137.887"/><path stroke="none" d="M398.173 142.887C398.933 143.14,399.662 143.267,400.358 143.267C401.8 143.267,403.146 142.729,404.334 141.699C405.792 140.4,406.298 138.689,406.298 136.884C406.298 136.472,406.267 136.044,406.219 135.632C406.093 134.349,405.364 133.351,404.081 132.829C403.732 132.718,403.4 132.623,403.035 132.528C404.35 130.959,405.475 129.344,406.631 127.712C406.932 127.3,407.075 126.857,407.075 126.366C407.075 126.192,407.043 125.986,406.995 125.78C406.932 125.51,406.821 125.4,406.631 125.4C406.568 125.4,406.504 125.415,406.409 125.431C405.902 125.574,405.396 125.59,404.905 125.59C403.653 125.59,402.37 125.558,401.119 125.558L400.232 125.558C398.838 125.558,397.444 125.558,396.082 125.685C395.622 125.732,395.385 125.922,395.321 126.397C395.226 126.857,395.258 127.332,395.21 127.807C395.179 128.108,395.258 128.251,395.575 128.251L395.638 128.251C396.446 128.172,397.254 128.124,398.078 128.124L404.287 128.124C403.035 129.819,401.8 131.292,400.358 132.623C399.503 133.415,398.648 134.143,398.648 135.363C398.648 135.569,398.679 135.791,398.743 136.044L398.743 136.092C398.727 136.266,398.727 136.472,398.933 136.567C399.091 136.63,399.25 136.551,399.361 136.424C399.947 135.838,400.723 135.664,401.483 135.474C401.752 135.41,402.022 135.363,402.275 135.363C402.94 135.363,403.574 135.585,404.128 136.044C404.493 136.313,404.968 136.662,404.968 137.169C404.968 137.248,404.952 137.327,404.92 137.406C404.509 138.737,403.764 139.782,402.434 140.289C401.784 140.543,401.119 140.653,400.469 140.653C399.329 140.653,398.22 140.289,397.143 139.719C396.684 139.45,396.303 139.244,396.145 138.689C396.113 138.578,396.098 138.277,395.876 138.277C395.828 138.277,395.797 138.277,395.749 138.309C395.511 138.373,395.321 138.547,395.321 138.895C395.274 139.656,395.464 140.305,395.622 141.034C395.702 141.43,395.987 141.746,396.351 141.968C396.937 142.317,397.507 142.665,398.173 142.887"/><path stroke="none" d="M534.471 137.887C535.231 138.14,535.96 138.267,536.657 138.267C538.098 138.267,539.445 137.729,540.633 136.699C542.09 135.4,542.597 133.689,542.597 131.884C542.597 131.472,542.565 131.044,542.518 130.632C542.391 129.349,541.662 128.351,540.379 127.829C540.031 127.718,539.698 127.623,539.334 127.528C540.648 125.959,541.773 124.344,542.929 122.712C543.23 122.3,543.373 121.857,543.373 121.366C543.373 121.192,543.341 120.986,543.294 120.78C543.23 120.51,543.12 120.4,542.929 120.4C542.866 120.4,542.803 120.415,542.708 120.431C542.201 120.574,541.694 120.59,541.203 120.59C539.952 120.59,538.668 120.558,537.417 120.558L536.53 120.558C535.136 120.558,533.742 120.558,532.38 120.685C531.921 120.732,531.683 120.922,531.62 121.397C531.525 121.857,531.556 122.332,531.509 122.807C531.477 123.108,531.556 123.251,531.873 123.251L531.936 123.251C532.744 123.172,533.552 123.124,534.376 123.124L540.585 123.124C539.334 124.819,538.098 126.292,536.657 127.623C535.801 128.415,534.946 129.143,534.946 130.363C534.946 130.569,534.978 130.791,535.041 131.044L535.041 131.092C535.025 131.266,535.025 131.472,535.231 131.567C535.39 131.63,535.548 131.551,535.659 131.424C536.245 130.838,537.021 130.664,537.781 130.474C538.051 130.41,538.32 130.363,538.573 130.363C539.239 130.363,539.872 130.585,540.427 131.044C540.791 131.313,541.266 131.662,541.266 132.169C541.266 132.248,541.25 132.327,541.219 132.406C540.807 133.737,540.062 134.782,538.732 135.289C538.082 135.543,537.417 135.653,536.768 135.653C535.627 135.653,534.518 135.289,533.441 134.719C532.982 134.45,532.602 134.244,532.443 133.689C532.412 133.578,532.396 133.277,532.174 133.277C532.127 133.277,532.095 133.277,532.047 133.309C531.81 133.373,531.62 133.547,531.62 133.895C531.572 134.656,531.762 135.305,531.921 136.034C532 136.43,532.285 136.746,532.649 136.968C533.235 137.317,533.806 137.665,534.471 137.887"/><g class="vf-stem" id="vf-auto24408" pointer-events="bounding-box" font-family="Arial"><path stroke-width="1.5" fill="none" d="M177.765 92L177.765 124.25"/></g><g class="vf-beam" id="vf-auto24459" font-family="Arial"><path stroke="none" d="M92.937 103.793L92.937 98.793L178.015 119.813L178.015 124.813Z"/></g><g class="vf-stem" id="vf-auto24418" pointer-events="bounding-box" font-family="Arial"><path stroke-width="1.5" fill="none" d="M266.933 67L266.933 99.25"/></g><g class="vf-stem" id="vf-auto24424" pointer-events="bounding-box" font-family="Arial"><path stroke-width="1.5" fill="none" d="M311.518 57L311.518 98.135"/></g><g class="vf-beam" id="vf-auto24460" font-family="Arial"><path stroke="none" d="M226.69 101.006L226.69 96.006L311.768 93.904L311.768 98.904Z"/></g><g class="vf-stem" id="vf-auto24430" pointer-events="bounding-box" font-family="Arial"><path stroke-width="1.5" fill="none" d="M356.102 62L356.102 101.958"/></g><g class="vf-stem" id="vf-auto24440" pointer-events="bounding-box" font-family="Arial"><path stroke-width="1.5" fill="none" d="M445.271 92L445.271 124.25"/></g><g class="vf-beam" id="vf-auto24461" font-family="Arial"><path stroke="none" d="M355.352 102.52L355.352 97.52L445.521 119.813L445.521 124.813Z"/></g><g class="vf-stem" id="vf-auto24446" pointer-events="bounding-box" font-family="Arial"><path stroke-width="1.5" fill="none" d="M489.855 62L489.855 98.008"/></g><g class="vf-beam" id="vf-auto24462" font-family="Arial"><path stroke="none" d="M489.105 98.739L489.105 93.739L584.364 96.096L584.364 101.096Z"/></g></svg>