<svg xmlns="http://www.w3.org/2000/svg" stroke-width="0.3" stroke-dasharray="none" fill="black" stroke="black" font-family="Arial, sans-serif" font-size="10pt" font-weight="normal" font-style="normal" width="500" height="200" viewBox="0 0 500 200" style="width: 500px; height: 200px; border: none;"><g class="vf-stave" id="vf-auto11076" stroke-width="1" fill="#999999" stroke="#999999"><path fill="none" d="M0 80L490 80"/><path fill="none" d="M0 90L490 90"/><path fill="none" d="M0 100L490 100"/><path fill="none" d="M0 110L490 110"/><path fill="none" d="M0 120L490 120"/></g><g class="vf-stavebarline" id="vf-auto11077"><rect y="79.5" width="1" height="41" stroke="none"/></g><g class="vf-stavebarline" id="vf-auto11078"><rect x="490" y="79.5" width="1" height="41" stroke="none"/></g><g class="vf-stavenote" id="vf-auto11079"><g class="vf-notehead" id="vf-auto11083" pointer-events="bounding-box"><path stroke="none" d="M24.776 114.889C24.86 114.889,24.944 114.889,25.085 114.889C25.45 114.889,25.983 114.918,26.18 114.946C28.51 115.283,29.662 116.827,29.662 118.624C29.662 120.534,28.37 122.724,25.787 124.128C24.523 124.802,23.231 125.111,22.052 125.111C19.89 125.111,18.121 124.044,17.756 122.162C17.7 121.881,17.672 121.629,17.672 121.376C17.672 118.343,20.929 115.283,24.776 114.889"/><g class="vf-annotation" id="vf-auto11085"><text stroke="none" font-family="Times New Roman, serif" font-size="14pt" font-weight="bold" font-style="italic" x="19" y="52.003">1</text></g></g></g><g class="vf-stavenote" id="vf-auto11086"><g class="vf-notehead" id="vf-auto11090" pointer-events="bounding-box"><path stroke="none" d="M54.161 119.889C54.246 119.889,54.33 119.889,54.47 119.889C54.835 119.889,55.369 119.918,55.565 119.946C57.896 120.283,59.047 121.827,59.047 123.624C59.047 125.534,57.756 127.724,55.172 129.128C53.909 129.802,52.617 130.111,51.438 130.111C49.275 130.111,47.506 129.044,47.141 127.162C47.085 126.881,47.057 126.629,47.057 126.376C47.057 123.343,50.314 120.283,54.161 119.889"/><g class="vf-annotation" id="vf-auto11092"><text stroke="none" font-family="Times New Roman, serif" font-size="14pt" font-weight="bold" font-style="italic" x="48.385" y="43.473">1</text></g></g></g><g class="vf-stavenote" id="vf-auto11093"><g class="vf-notehead" id="vf-auto11097" pointer-events="bounding-box"><path stroke="none" d="M89.93 114.889C90.014 114.889,90.098 114.889,90.238 114.889C90.604 114.889,91.137 114.918,91.334 114.946C93.664 115.283,94.816 116.827,94.816 118.624C94.816 120.534,93.524 122.724,90.94 124.128C89.677 124.802,88.385 125.111,87.206 125.111C85.044 125.111,83.275 124.044,82.91 122.162C82.853 121.881,82.825 121.629,82.825 121.376C82.825 118.343,86.083 115.283,89.93 114.889"/><g class="vf-annotation" id="vf-auto11099"><text stroke="none" font-family="Times New Roman, serif" font-size="14pt" font-weight="bold" font-style="italic" x="84.154" y="55.261">1</text></g></g></g><g class="vf-stavenote" id="vf-auto11100"><path stroke-width="1.4" fill="none" stroke="#444" d="M124.603 130L142.593 130"/><g class="vf-notehead" id="vf-auto11105" pointer-events="bounding-box"><path stroke="none" d="M134.707 124.889C134.791 124.889,134.876 124.889,135.016 124.889C135.381 124.889,135.914 124.918,136.111 124.946C138.442 125.283,139.593 126.827,139.593 128.624C139.593 130.534,138.301 132.724,135.718 134.128C134.454 134.802,133.163 135.111,131.983 135.111C129.821 135.111,128.052 134.044,127.687 132.162C127.631 131.881,127.603 131.629,127.603 131.376C127.603 128.343,130.86 125.283,134.707 124.889"/><g class="vf-annotation" id="vf-auto11108"><text stroke="none" font-family="Times New Roman, serif" font-size="14pt" font-weight="bold" font-style="italic" x="128.931" y="57.5">1</text></g></g><g class="vf-notehead" id="vf-auto11106" pointer-events="bounding-box"><path stroke="none" d="M134.707 104.889C134.791 104.889,134.876 104.889,135.016 104.889C135.381 104.889,135.914 104.918,136.111 104.946C138.442 105.283,139.593 106.827,139.593 108.624C139.593 110.534,138.301 112.724,135.718 114.128C134.454 114.802,133.163 115.111,131.983 115.111C129.821 115.111,128.052 114.044,127.687 112.162C127.631 111.881,127.603 111.629,127.603 111.376C127.603 108.343,130.86 105.283,134.707 104.889"/></g></g><g class="vf-stavenote" id="vf-auto11109"><path stroke-width="1.4" fill="none" stroke="#444" d="M156.571 130L174.561 130"/><g class="vf-notehead" id="vf-auto11113" pointer-events="bounding-box"><path stroke="none" d="M166.675 124.889C166.759 124.889,166.844 124.889,166.984 124.889C167.349 124.889,167.883 124.918,168.079 124.946C170.41 125.283,171.561 126.827,171.561 128.624C171.561 130.534,170.269 132.724,167.686 134.128C166.423 134.802,165.131 135.111,163.951 135.111C161.789 135.111,160.02 134.044,159.655 132.162C159.599 131.881,159.571 131.629,159.571 131.376C159.571 128.343,162.828 125.283,166.675 124.889"/><g class="vf-annotation" id="vf-auto11115"><text stroke="none" font-family="Times New Roman, serif" font-size="14pt" font-weight="bold" font-style="italic" x="160.899" y="51.598">1</text></g></g></g><g class="vf-stavenote" id="vf-auto11116"><path stroke-width="1.4" fill="none" stroke="#444" d="M188.539 130L206.529 130"/><g class="vf-notehead" id="vf-auto11120" pointer-events="bounding-box"><path stroke="none" d="M198.643 124.889C198.728 124.889,198.812 124.889,198.952 124.889C199.317 124.889,199.851 124.918,200.047 124.946C202.378 125.283,203.529 126.827,203.529 128.624C203.529 130.534,202.238 132.724,199.654 134.128C198.391 134.802,197.099 135.111,195.92 135.111C193.758 135.111,191.988 134.044,191.623 132.162C191.567 131.881,191.539 131.629,191.539 131.376C191.539 128.343,194.796 125.283,198.643 124.889"/><g class="vf-annotation" id="vf-auto11122"><text stroke="none" font-family="Times New Roman, serif" font-size="14pt" font-weight="bold" font-style="italic" x="192.868" y="53.197">1</text></g></g></g><g class="vf-stavenote" id="vf-auto11123"><path stroke-width="1.4" fill="none" stroke="#444" d="M220.507 130L238.498 130"/><g class="vf-notehead" id="vf-auto11127" pointer-events="bounding-box"><path stroke="none" d="M230.612 124.889C230.696 124.889,230.78 124.889,230.92 124.889C231.286 124.889,231.819 124.918,232.016 124.946C234.346 125.283,235.498 126.827,235.498 128.624C235.498 130.534,234.206 132.724,231.622 134.128C230.359 134.802,229.067 135.111,227.888 135.111C225.726 135.111,223.957 134.044,223.592 132.162C223.535 131.881,223.507 131.629,223.507 131.376C223.507 128.343,226.765 125.283,230.612 124.889"/><g class="vf-annotation" id="vf-auto11129"><text stroke="none" font-family="Times New Roman, serif" font-size="14pt" font-weight="bold" font-style="italic" x="224.836" y="54.795">1</text></g></g></g><g class="vf-stavenote" id="vf-auto11130"><g class="vf-notehead" id="vf-auto11134" pointer-events="bounding-box"><path stroke="none" d="M262.58 79.889C262.664 79.889,262.748 79.889,262.889 79.889C263.254 79.889,263.787 79.918,263.984 79.946C266.314 80.283,267.466 81.827,267.466 83.624C267.466 85.534,266.174 87.724,263.591 89.128C262.327 89.802,261.035 90.111,259.856 90.111C257.694 90.111,255.925 89.044,255.56 87.162C255.504 86.881,255.476 86.629,255.476 86.376C255.476 83.343,258.733 80.283,262.58 79.889"/><g class="vf-annotation" id="vf-auto11136"><text stroke="none" font-family="Times New Roman, serif" font-size="14pt" font-weight="bold" font-style="italic" x="256.804" y="155.789">3</text></g></g></g><g class="vf-stavenote" id="vf-auto11137"><g class="vf-notehead" id="vf-auto11141" pointer-events="bounding-box"><path stroke="none" d="M291.965 84.889C292.049 84.889,292.134 84.889,292.274 84.889C292.639 84.889,293.173 84.918,293.369 84.946C295.7 85.283,296.851 86.827,296.851 88.624C296.851 90.534,295.559 92.724,292.976 94.128C291.713 94.802,290.421 95.111,289.241 95.111C287.079 95.111,285.31 94.044,284.945 92.162C284.889 91.881,284.861 91.629,284.861 91.376C284.861 88.343,288.118 85.283,291.965 84.889"/><g class="vf-annotation" id="vf-auto11143"><text stroke="none" font-family="Times New Roman, serif" font-size="14pt" font-weight="bold" font-style="italic" x="286.189" y="155.054">3</text></g></g></g><g class="vf-stavenote" id="vf-auto11144"><g class="vf-notehead" id="vf-auto11148" pointer-events="bounding-box"><path stroke="none" d="M327.734 79.889C327.818 79.889,327.902 79.889,328.042 79.889C328.407 79.889,328.941 79.918,329.138 79.946C331.468 80.283,332.619 81.827,332.619 83.624C332.619 85.534,331.328 87.724,328.744 89.128C327.481 89.802,326.189 90.111,325.01 90.111C322.848 90.111,321.079 89.044,320.714 87.162C320.657 86.881,320.629 86.629,320.629 86.376C320.629 83.343,323.887 80.283,327.734 79.889"/><g class="vf-annotation" id="vf-auto11150"><text stroke="none" font-family="Times New Roman, serif" font-size="14pt" font-weight="bold" font-style="italic" x="321.958" y="154.16">3</text></g></g></g><g class="vf-stavenote" id="vf-auto11151"><g class="vf-notehead" id="vf-auto11157" pointer-events="bounding-box"><path stroke="none" d="M372.511 89.889C372.595 89.889,372.68 89.889,372.82 89.889C373.185 89.889,373.718 89.918,373.915 89.946C376.246 90.283,377.397 91.827,377.397 93.624C377.397 95.534,376.105 97.724,373.522 99.128C372.258 99.802,370.967 100.111,369.787 100.111C367.625 100.111,365.856 99.044,365.491 97.162C365.435 96.881,365.407 96.629,365.407 96.376C365.407 93.343,368.664 90.283,372.511 89.889"/><g class="vf-annotation" id="vf-auto11159"><text stroke="none" font-family="Times New Roman, serif" font-size="14pt" font-weight="bold" font-style="italic" x="366.735" y="153.041">3</text></g></g><g class="vf-notehead" id="vf-auto11156" pointer-events="bounding-box"><path stroke="none" d="M372.511 69.889C372.595 69.889,372.68 69.889,372.82 69.889C373.185 69.889,373.718 69.918,373.915 69.946C376.246 70.283,377.397 71.827,377.397 73.624C377.397 75.534,376.105 77.724,373.522 79.128C372.258 79.802,370.967 80.111,369.787 80.111C367.625 80.111,365.856 79.044,365.491 77.162C365.435 76.881,365.407 76.629,365.407 76.376C365.407 73.343,368.664 70.283,372.511 69.889"/></g></g><g class="vf-stavenote" id="vf-auto11160"><g class="vf-notehead" id="vf-auto11164" pointer-events="bounding-box"><path stroke="none" d="M404.479 89.889C404.563 89.889,404.648 89.889,404.788 89.889C405.153 89.889,405.687 89.918,405.883 89.946C408.214 90.283,409.365 91.827,409.365 93.624C409.365 95.534,408.073 97.724,405.49 99.128C404.226 99.802,402.935 100.111,401.755 100.111C399.593 100.111,397.824 99.044,397.459 97.162C397.403 96.881,397.375 96.629,397.375 96.376C397.375 93.343,400.632 90.283,404.479 89.889"/><g class="vf-annotation" id="vf-auto11166"><text stroke="none" font-family="Times New Roman, serif" font-size="14pt" font-weight="bold" font-style="italic" x="398.703" y="152.242">3</text></g></g></g><g class="vf-stavenote" id="vf-auto11167"><g class="vf-notehead" id="vf-auto11171" pointer-events="bounding-box"><path stroke="none" d="M436.447 89.889C436.532 89.889,436.616 89.889,436.756 89.889C437.121 89.889,437.655 89.918,437.851 89.946C440.182 90.283,441.333 91.827,441.333 93.624C441.333 95.534,440.042 97.724,437.458 99.128C436.195 99.802,434.903 100.111,433.724 100.111C431.561 100.111,429.792 99.044,429.427 97.162C429.371 96.881,429.343 96.629,429.343 96.376C429.343 93.343,432.6 90.283,436.447 89.889"/><g class="vf-annotation" id="vf-auto11173"><text stroke="none" font-family="Times New Roman, serif" font-size="14pt" font-weight="bold" font-style="italic" x="430.672" y="151.442">3</text></g></g></g><g class="vf-stavenote" id="vf-auto11174"><g class="vf-notehead" id="vf-auto11178" pointer-events="bounding-box"><path stroke="none" d="M468.416 89.889C468.5 89.889,468.584 89.889,468.724 89.889C469.089 89.889,469.623 89.918,469.82 89.946C472.15 90.283,473.301 91.827,473.301 93.624C473.301 95.534,472.01 97.724,469.426 99.128C468.163 99.802,466.871 100.111,465.692 100.111C463.53 100.111,461.761 99.044,461.396 97.162C461.339 96.881,461.311 96.629,461.311 96.376C461.311 93.343,464.569 90.283,468.416 89.889"/><g class="vf-annotation" id="vf-auto11180"><text stroke="none" font-family="Times New Roman, serif" font-size="14pt" font-weight="bold" font-style="italic" x="462.64" y="150.643">3</text></g></g></g><g class="vf-stem" id="vf-auto11080" pointer-events="bounding-box"><path stroke-width="1.5" fill="none" d="M28.912 118.5L28.912 62.753"/></g><g class="vf-stem" id="vf-auto11087" pointer-events="bounding-box"><path stroke-width="1.5" fill="none" d="M58.297 123.5L58.297 64.223"/></g><g class="vf-stem" id="vf-auto11094" pointer-events="bounding-box"><path stroke-width="1.5" fill="none" d="M94.066 118.5L94.066 66.011"/></g><g class="vf-stem" id="vf-auto11101" pointer-events="bounding-box"><path stroke-width="1.5" fill="none" d="M138.843 128.5L138.843 68.25"/></g><g class="vf-stem" id="vf-auto11110" pointer-events="bounding-box"><path stroke-width="1.5" fill="none" d="M170.811 128.5L170.811 69.848"/></g><g class="vf-stem" id="vf-auto11117" pointer-events="bounding-box"><path stroke-width="1.5" fill="none" d="M202.779 128.5L202.779 71.447"/></g><g class="vf-stem" id="vf-auto11124" pointer-events="bounding-box"><path stroke-width="1.5" fill="none" d="M234.748 128.5L234.748 73.045"/></g><g class="vf-beam" id="vf-auto11181"><path stroke="none" d="M28.162 61.966L28.162 66.966L234.998 77.258L234.998 72.258Z"/><path stroke="none" d="M28.162 69.466L28.162 74.466L58.547 75.935L58.547 70.935Z"/><path stroke="none" d="M138.093 74.963L138.093 79.963L234.998 84.758L234.998 79.758Z"/><path stroke="none" d="M28.162 76.966L28.162 81.966L39.162 82.466L39.162 77.466Z"/><path stroke="none" d="M138.093 82.463L138.093 87.463L234.998 92.258L234.998 87.258Z"/><path stroke="none" d="M28.162 84.466L28.162 89.466L39.162 89.966L39.162 84.966Z"/><path stroke="none" d="M28.162 91.966L28.162 96.966L39.162 97.466L39.162 92.466Z"/></g><g class="vf-stem" id="vf-auto11131" pointer-events="bounding-box"><path stroke-width="1.5" fill="none" d="M256.226 86.5L256.226 141.896"/></g><g class="vf-stem" id="vf-auto11138" pointer-events="bounding-box"><path stroke-width="1.5" fill="none" d="M285.611 91.5L285.611 141.161"/></g><g class="vf-stem" id="vf-auto11145" pointer-events="bounding-box"><path stroke-width="1.5" fill="none" d="M321.379 86.5L321.379 140.267"/></g><g class="vf-stem" id="vf-auto11152" pointer-events="bounding-box"><path stroke-width="1.5" fill="none" d="M366.157 76.5L366.157 139.148"/></g><g class="vf-stem" id="vf-auto11161" pointer-events="bounding-box"><path stroke-width="1.5" fill="none" d="M398.125 96.5L398.125 138.348"/></g><g class="vf-stem" id="vf-auto11168" pointer-events="bounding-box"><path stroke-width="1.5" fill="none" d="M430.093 96.5L430.093 137.549"/></g><g class="vf-stem" id="vf-auto11175" pointer-events="bounding-box"><path stroke-width="1.5" fill="none" d="M462.061 96.5L462.061 136.75"/></g><g class="vf-beam" id="vf-auto11182"><path stroke="none" d="M255.476 142.665L255.476 137.665L462.311 132.519L462.311 137.519Z"/><path stroke="none" d="M255.476 135.165L255.476 130.165L285.861 129.43L285.861 134.43Z"/><path stroke="none" d="M365.407 132.416L365.407 127.416L462.311 125.019L462.311 130.019Z"/><path stroke="none" d="M255.476 127.665L255.476 122.665L266.476 122.415L266.476 127.415Z"/><path stroke="none" d="M365.407 124.916L365.407 119.916L462.311 117.519L462.311 122.519Z"/><path stroke="none" d="M255.476 120.165L255.476 115.165L266.476 114.915L266.476 119.915Z"/><path stroke="none" d="M255.476 112.665L255.476 107.665L266.476 107.415L266.476 112.415Z"/></g></svg>