<svg xmlns="http://www.w3.org/2000/svg" stroke-width="0.3" stroke-dasharray="none" fill="black" stroke="black" font-family="Arial, sans-serif" font-size="10pt" font-weight="normal" font-style="normal" width="450" height="200" viewBox="0 0 450 200" style="width: 450px; height: 200px; border: none;"><g class="vf-stave" id="vf-auto9286" stroke-width="1" fill="#999999" stroke="#999999"><path fill="none" d="M0 40L440 40"/><path fill="none" d="M0 50L440 50"/><path fill="none" d="M0 60L440 60"/><path fill="none" d="M0 70L440 70"/><path fill="none" d="M0 80L440 80"/></g><g class="vf-stavebarline" id="vf-auto9287"><rect y="39.5" width="1" height="41" stroke="none"/></g><g class="vf-stavebarline" id="vf-auto9288"><rect x="440" y="39.5" width="1" height="41" stroke="none"/></g><g class="vf-timesignature" id="vf-auto9289"><path stroke="none" d="M12.56 41.798C12.733 41.77,12.963 41.77,13.194 41.77C13.712 41.77,14.317 41.798,14.691 41.914C16.102 42.259,17.6 43.267,18.032 44.131C18.176 44.448,18.234 44.765,18.234 45.082C18.234 46.262,17.226 47.328,16.016 47.328C15.786 47.328,15.555 47.299,15.296 47.213C14.346 46.896,13.856 46.032,13.856 45.197C13.856 44.362,14.317 43.526,15.267 43.21C15.354 43.181,15.44 43.152,15.44 43.152C15.44 43.152,15.44 43.152,15.44 43.152C15.44 43.094,14.922 42.893,14.605 42.835C14.23 42.72,13.856 42.662,13.482 42.662C12.531 42.662,11.667 43.037,11.149 43.699C10.659 44.362,10.285 45.571,10.026 47.27C9.939 47.875,9.824 49.142,9.824 49.43C9.824 49.459,9.824 49.459,9.824 49.459C9.824 49.459,9.824 49.459,9.824 49.459C9.824 49.459,9.939 49.43,10.083 49.373C10.976 49.027,11.811 48.854,12.618 48.854C13.395 48.854,14.202 49.027,15.066 49.373C16.65 49.949,17.83 50.899,18.406 51.994C18.694 52.512,18.81 53.117,18.81 53.722C18.81 54.47,18.608 55.248,18.176 55.882C17.082 57.523,14.576 58.733,12.589 58.733C12.272 58.733,11.955 58.704,11.667 58.646C8.73 57.955,6.166 55.363,5.446 52.339C5.302 51.677,5.216 50.899,5.216 50.093C5.216 49.546,5.245 48.998,5.331 48.509C5.936 45.024,8.931 42.23,12.56 41.798M13.05 49.776C12.906 49.747,12.762 49.747,12.618 49.747C12.099 49.747,11.61 49.92,11.35 50.179C10.861 50.726,10.573 52.109,10.573 53.578C10.573 54.038,10.602 54.528,10.659 54.989C11.005 57.235,11.408 57.84,12.618 57.84L12.646 57.84C13.741 57.84,14.115 57.322,14.461 55.478C14.605 54.758,14.662 54.182,14.662 53.606C14.662 53.088,14.605 52.598,14.518 52.022C14.259 50.496,13.885 49.92,13.05 49.776M12.013 60L12.07 60L11.984 60M12.013 41.05L12.07 41.05L11.984 41.05"/><path stroke="none" d="M11.653 61.77C11.826 61.77,11.97 61.741,12.056 61.741C12.056 61.741,12.056 61.741,12.085 61.741C12.114 61.77,12.258 61.77,12.43 61.77C13.582 61.798,14.821 62.173,15.8 62.778C17.355 63.699,18.162 65.139,18.162 66.579C18.162 67.587,17.758 68.595,16.923 69.459L16.779 69.632L16.923 69.718C18.306 70.698,19.026 72.08,19.026 73.462C19.026 74.384,18.709 75.306,18.075 76.141C16.779 77.811,14.446 78.762,11.998 78.762C10.904 78.762,9.781 78.56,8.744 78.157C6.296 77.178,5 75.334,5 73.462C5 72.138,5.662 70.784,7.045 69.776L7.246 69.632L7.074 69.43C6.296 68.624,5.893 67.587,5.893 66.55C5.893 66.061,5.979 65.6,6.152 65.139C6.901 63.21,9.118 61.856,11.653 61.77M12.632 63.008C12.459 62.979,12.258 62.95,12.027 62.95C11.739 62.95,11.422 62.979,11.163 63.066C10.213 63.267,9.55 63.901,9.55 64.477C9.55 64.592,9.579 64.678,9.637 64.794C10.126 65.859,12.315 67.53,14.59 68.566L14.706 68.624L14.792 68.48C15.138 67.875,15.31 67.213,15.31 66.579C15.31 64.938,14.274 63.382,12.632 63.008M9.003 70.813C8.888 70.755,8.773 70.698,8.744 70.698C8.744 70.698,8.744 70.698,8.744 70.698C8.715 70.698,8.37 71.043,8.226 71.245C7.707 71.936,7.448 72.685,7.448 73.462C7.448 74.96,8.398 76.458,10.069 77.178C10.702 77.437,11.336 77.552,11.97 77.552C13.093 77.552,14.101 77.149,14.619 76.458C14.85 76.17,14.965 75.882,14.965 75.565C14.965 75.19,14.792 74.816,14.475 74.326C13.582 73.002,11.941 71.907,9.493 71.014C9.378 70.957,9.147 70.87,9.003 70.813M12.027 80L12.056 80L11.97 80M12.027 61.05L12.056 61.05L11.97 61.05"/></g><g class="vf-stavenote" id="vf-auto9293"><g class="vf-stem" id="vf-auto9294" pointer-events="bounding-box"><path stroke-width="1.5" fill="none" d="M31.776 61.5L31.776 95"/></g><g class="vf-notehead" id="vf-auto9296" pointer-events="bounding-box"><path stroke="none" d="M38.13 54.889C38.214 54.889,38.298 54.889,38.439 54.889C38.804 54.889,39.337 54.918,39.534 54.946C41.864 55.283,43.016 56.827,43.016 58.624C43.016 60.534,41.724 62.724,39.141 64.128C37.877 64.802,36.585 65.111,35.406 65.111C33.244 65.111,31.475 64.044,31.11 62.162C31.054 61.881,31.026 61.629,31.026 61.376C31.026 58.343,34.283 55.283,38.13 54.889"/></g></g><g class="vf-stavenote" id="vf-auto9297"><g class="vf-stem" id="vf-auto9298" pointer-events="bounding-box"><path stroke-width="1.5" fill="none" d="M146.266 61.5L146.266 95"/></g><g class="vf-notehead" id="vf-auto9300" pointer-events="bounding-box"><path stroke="none" d="M152.62 54.889C152.705 54.889,152.789 54.889,152.929 54.889C153.294 54.889,153.828 54.918,154.024 54.946C156.355 55.283,157.506 56.827,157.506 58.624C157.506 60.534,156.215 62.724,153.631 64.128C152.368 64.802,151.076 65.111,149.897 65.111C147.735 65.111,145.965 64.044,145.6 62.162C145.544 61.881,145.516 61.629,145.516 61.376C145.516 58.343,148.773 55.283,152.62 54.889"/></g></g><g class="vf-stavenote" id="vf-auto9301"><g class="vf-notehead" id="vf-auto9314" pointer-events="bounding-box"><path stroke="none" d="M267.111 54.889C267.195 54.889,267.279 54.889,267.42 54.889C267.785 54.889,268.318 54.918,268.515 54.946C270.846 55.283,271.997 56.827,271.997 58.624C271.997 60.534,270.705 62.724,268.122 64.128C266.858 64.802,265.567 65.111,264.387 65.111C262.225 65.111,260.456 64.044,260.091 62.162C260.035 61.881,260.007 61.629,260.007 61.376C260.007 58.343,263.264 55.283,267.111 54.889"/></g></g><g class="vf-stavenote" id="vf-auto9307"><g class="vf-notehead" id="vf-auto9316" pointer-events="bounding-box"><path stroke="none" d="M345.113 54.889C345.197 54.889,345.281 54.889,345.421 54.889C345.786 54.889,346.32 54.918,346.517 54.946C348.847 55.283,349.998 56.827,349.998 58.624C349.998 60.534,348.707 62.724,346.123 64.128C344.86 64.802,343.568 65.111,342.389 65.111C340.227 65.111,338.458 64.044,338.093 62.162C338.036 61.881,338.008 61.629,338.008 61.376C338.008 58.343,341.266 55.283,345.113 54.889"/></g></g><g class="vf-stem" id="vf-auto9302" pointer-events="bounding-box"><path stroke-width="1.5" fill="none" d="M260.757 61.5L260.757 94.25"/></g><g class="vf-stem" id="vf-auto9308" pointer-events="bounding-box"><path stroke-width="1.5" fill="none" d="M338.758 61.5L338.758 94.25"/></g><g class="vf-beam" id="vf-auto9318"><path stroke="none" d="M260.007 95L260.007 90L339.008 90L339.008 95Z"/></g></svg>