<svg xmlns="http://www.w3.org/2000/svg" stroke-width="0.3" stroke-dasharray="none" fill="black" stroke="black" font-family="Arial, sans-serif" font-size="10pt" font-weight="normal" font-style="normal" width="700" height="150" viewBox="0 0 700 150" style="width: 700px; height: 150px; border: none;"><g class="vf-stave" id="vf-auto21177" stroke-width="1" fill="#999999" stroke="#999999"><path fill="none" d="M0 40L690 40"/><path fill="none" d="M0 50L690 50"/><path fill="none" d="M0 60L690 60"/><path fill="none" d="M0 70L690 70"/><path fill="none" d="M0 80L690 80"/></g><g class="vf-stavebarline" id="vf-auto21178"><rect y="39.5" width="1" height="41" stroke="none"/></g><g class="vf-stavebarline" id="vf-auto21179"><rect x="690" y="39.5" width="1" height="41" stroke="none"/></g><g class="vf-keysignature" id="vf-auto21180"><path stroke="none" d="M14.33 35.349C14.603 35.239,14.822 34.911,14.822 34.692L14.822 31.874C14.822 31.683,14.685 31.573,14.521 31.573C14.467 31.573,14.412 31.573,14.33 31.6C14.33 31.6,13.536 31.929,13.345 31.956C13.071 31.956,12.798 31.765,12.798 31.464L12.798 26.648C12.798 26.402,12.551 26.211,12.25 26.211C11.867 26.211,11.621 26.402,11.621 26.648L11.621 31.765C11.566 32.148,11.457 32.668,11.101 32.914C10.636 33.187,9.296 33.735,8.612 33.899C8.283 33.899,8.146 33.434,8.146 33.105L8.146 28.372C8.146 28.153,7.873 27.934,7.599 27.934C7.216 27.934,6.97 28.153,6.97 28.372L6.97 33.707C6.97 34.254,6.724 34.637,6.505 34.747C6.259 34.884,5.465 35.185,5.465 35.185C5.192 35.267,5 35.595,5 35.814L5 38.632C5 38.851,5.109 38.988,5.356 38.988L5.438 38.933C5.465 38.933,6.067 38.687,6.368 38.55L6.423 38.495C6.724 38.495,6.97 38.906,6.97 39.207L6.97 43.119C6.97 43.557,6.778 43.912,6.532 44.022C6.313 44.104,5.465 44.46,5.465 44.46C5.192 44.542,5 44.843,5 45.089L5 47.88C5 48.126,5.109 48.235,5.356 48.235L5.438 48.208C5.465 48.208,6.012 47.962,6.368 47.852C6.423 47.798,6.45 47.798,6.505 47.798C6.778 47.798,6.97 48.235,6.97 48.427L6.97 53.27C6.97 53.516,7.216 53.707,7.49 53.707C7.873 53.707,8.146 53.516,8.146 53.27L8.146 47.798C8.146 47.278,8.338 47.004,8.557 46.922L10.937 45.937C10.937 45.937,10.992 45.937,10.992 45.937L11.074 45.91C11.43 45.91,11.621 46.375,11.621 46.621L11.621 51.546C11.621 51.792,11.867 51.984,12.141 51.984C12.551 51.984,12.798 51.792,12.798 51.546L12.798 45.937C12.798 45.636,12.962 45.171,13.235 45.034C13.509 44.925,14.33 44.596,14.33 44.596C14.603 44.487,14.822 44.186,14.822 43.94L14.822 41.149C14.822 40.958,14.685 40.821,14.521 40.821C14.467 40.821,14.412 40.821,14.33 40.876L13.317 41.259C13.071 41.259,12.798 41.012,12.798 40.547L12.798 36.881C12.798 36.607,12.989 35.869,13.317 35.732M11.621 41.778C11.375 42.572,9.542 43.338,8.612 43.338C8.393 43.338,8.201 43.283,8.146 43.146C8.064 42.982,8.037 42.134,8.037 41.176C8.037 39.973,8.064 38.577,8.146 38.276C8.228 37.592,10.034 36.772,11.019 36.772C11.293 36.772,11.539 36.854,11.621 37.018C11.703 37.209,11.785 38.194,11.785 39.261C11.785 40.328,11.703 41.423,11.621 41.778"/><path stroke="none" d="M25.152 50.349C25.426 50.239,25.644 49.911,25.644 49.692L25.644 46.874C25.644 46.683,25.508 46.573,25.344 46.573C25.289 46.573,25.234 46.573,25.152 46.6C25.152 46.6,24.359 46.929,24.167 46.956C23.893 46.956,23.62 46.765,23.62 46.464L23.62 41.648C23.62 41.402,23.374 41.211,23.073 41.211C22.69 41.211,22.443 41.402,22.443 41.648L22.443 46.765C22.389 47.148,22.279 47.668,21.924 47.914C21.458 48.187,20.118 48.735,19.434 48.899C19.105 48.899,18.969 48.434,18.969 48.105L18.969 43.372C18.969 43.153,18.695 42.934,18.421 42.934C18.038 42.934,17.792 43.153,17.792 43.372L17.792 48.707C17.792 49.254,17.546 49.637,17.327 49.747C17.081 49.884,16.287 50.185,16.287 50.185C16.014 50.267,15.822 50.595,15.822 50.814L15.822 53.632C15.822 53.851,15.932 53.988,16.178 53.988L16.26 53.933C16.287 53.933,16.889 53.687,17.19 53.55L17.245 53.495C17.546 53.495,17.792 53.906,17.792 54.207L17.792 58.119C17.792 58.557,17.601 58.912,17.354 59.022C17.136 59.104,16.287 59.46,16.287 59.46C16.014 59.542,15.822 59.843,15.822 60.089L15.822 62.88C15.822 63.126,15.932 63.235,16.178 63.235L16.26 63.208C16.287 63.208,16.835 62.962,17.19 62.852C17.245 62.798,17.272 62.798,17.327 62.798C17.601 62.798,17.792 63.235,17.792 63.427L17.792 68.27C17.792 68.516,18.038 68.707,18.312 68.707C18.695 68.707,18.969 68.516,18.969 68.27L18.969 62.798C18.969 62.278,19.16 62.004,19.379 61.922L21.759 60.937C21.759 60.937,21.814 60.937,21.814 60.937L21.896 60.91C22.252 60.91,22.443 61.375,22.443 61.621L22.443 66.546C22.443 66.792,22.69 66.984,22.963 66.984C23.374 66.984,23.62 66.792,23.62 66.546L23.62 60.937C23.62 60.636,23.784 60.171,24.058 60.034C24.331 59.925,25.152 59.596,25.152 59.596C25.426 59.487,25.644 59.186,25.644 58.94L25.644 56.149C25.644 55.958,25.508 55.821,25.344 55.821C25.289 55.821,25.234 55.821,25.152 55.876L24.14 56.259C23.893 56.259,23.62 56.012,23.62 55.547L23.62 51.881C23.62 51.607,23.811 50.869,24.14 50.732M22.443 56.778C22.197 57.572,20.364 58.338,19.434 58.338C19.215 58.338,19.023 58.283,18.969 58.146C18.887 57.982,18.859 57.134,18.859 56.176C18.859 54.973,18.887 53.577,18.969 53.276C19.051 52.592,20.856 51.772,21.841 51.772C22.115 51.772,22.361 51.854,22.443 52.018C22.525 52.209,22.608 53.194,22.608 54.261C22.608 55.328,22.525 56.423,22.443 56.778"/><path stroke="none" d="M35.974 30.349C36.248 30.239,36.467 29.911,36.467 29.692L36.467 26.874C36.467 26.683,36.33 26.573,36.166 26.573C36.111 26.573,36.056 26.573,35.974 26.6C35.974 26.6,35.181 26.929,34.989 26.956C34.716 26.956,34.442 26.765,34.442 26.464L34.442 21.648C34.442 21.402,34.196 21.211,33.895 21.211C33.512 21.211,33.266 21.402,33.266 21.648L33.266 26.765C33.211 27.148,33.101 27.668,32.746 27.914C32.281 28.187,30.94 28.735,30.256 28.899C29.928 28.899,29.791 28.434,29.791 28.105L29.791 23.372C29.791 23.153,29.517 22.934,29.244 22.934C28.861 22.934,28.614 23.153,28.614 23.372L28.614 28.707C28.614 29.254,28.368 29.637,28.149 29.747C27.903 29.884,27.11 30.185,27.11 30.185C26.836 30.267,26.644 30.595,26.644 30.814L26.644 33.632C26.644 33.851,26.754 33.988,27 33.988L27.082 33.933C27.11 33.933,27.712 33.687,28.012 33.55L28.067 33.495C28.368 33.495,28.614 33.906,28.614 34.207L28.614 38.119C28.614 38.557,28.423 38.912,28.177 39.022C27.958 39.104,27.11 39.46,27.11 39.46C26.836 39.542,26.644 39.843,26.644 40.089L26.644 42.88C26.644 43.126,26.754 43.235,27 43.235L27.082 43.208C27.11 43.208,27.657 42.962,28.012 42.852C28.067 42.798,28.095 42.798,28.149 42.798C28.423 42.798,28.614 43.235,28.614 43.427L28.614 48.27C28.614 48.516,28.861 48.707,29.134 48.707C29.517 48.707,29.791 48.516,29.791 48.27L29.791 42.798C29.791 42.278,29.982 42.004,30.201 41.922L32.582 40.937C32.582 40.937,32.636 40.937,32.636 40.937L32.718 40.91C33.074 40.91,33.266 41.375,33.266 41.621L33.266 46.546C33.266 46.792,33.512 46.984,33.785 46.984C34.196 46.984,34.442 46.792,34.442 46.546L34.442 40.937C34.442 40.636,34.606 40.171,34.88 40.034C35.153 39.925,35.974 39.596,35.974 39.596C36.248 39.487,36.467 39.186,36.467 38.94L36.467 36.149C36.467 35.958,36.33 35.821,36.166 35.821C36.111 35.821,36.056 35.821,35.974 35.876L34.962 36.259C34.716 36.259,34.442 36.012,34.442 35.547L34.442 31.881C34.442 31.607,34.634 30.869,34.962 30.732M33.266 36.778C33.019 37.572,31.186 38.338,30.256 38.338C30.037 38.338,29.846 38.283,29.791 38.146C29.709 37.982,29.681 37.134,29.681 36.176C29.681 34.973,29.709 33.577,29.791 33.276C29.873 32.592,31.679 31.772,32.664 31.772C32.937 31.772,33.184 31.854,33.266 32.018C33.348 32.209,33.43 33.194,33.43 34.261C33.43 35.328,33.348 36.423,33.266 36.778"/><path stroke="none" d="M46.796 45.349C47.07 45.239,47.289 44.911,47.289 44.692L47.289 41.874C47.289 41.683,47.152 41.573,46.988 41.573C46.933 41.573,46.879 41.573,46.796 41.6C46.796 41.6,46.003 41.929,45.812 41.956C45.538 41.956,45.264 41.765,45.264 41.464L45.264 36.648C45.264 36.402,45.018 36.211,44.717 36.211C44.334 36.211,44.088 36.402,44.088 36.648L44.088 41.765C44.033 42.148,43.924 42.668,43.568 42.914C43.103 43.187,41.762 43.735,41.078 43.899C40.75 43.899,40.613 43.434,40.613 43.105L40.613 38.372C40.613 38.153,40.34 37.934,40.066 37.934C39.683 37.934,39.437 38.153,39.437 38.372L39.437 43.707C39.437 44.254,39.19 44.637,38.972 44.747C38.725 44.884,37.932 45.185,37.932 45.185C37.658 45.267,37.467 45.595,37.467 45.814L37.467 48.632C37.467 48.851,37.576 48.988,37.822 48.988L37.904 48.933C37.932 48.933,38.534 48.687,38.835 48.55L38.889 48.495C39.19 48.495,39.437 48.906,39.437 49.207L39.437 53.119C39.437 53.557,39.245 53.912,38.999 54.022C38.78 54.104,37.932 54.46,37.932 54.46C37.658 54.542,37.467 54.843,37.467 55.089L37.467 57.88C37.467 58.126,37.576 58.235,37.822 58.235L37.904 58.208C37.932 58.208,38.479 57.962,38.835 57.852C38.889 57.798,38.917 57.798,38.972 57.798C39.245 57.798,39.437 58.235,39.437 58.427L39.437 63.27C39.437 63.516,39.683 63.707,39.956 63.707C40.34 63.707,40.613 63.516,40.613 63.27L40.613 57.798C40.613 57.278,40.805 57.004,41.024 56.922L43.404 55.937C43.404 55.937,43.459 55.937,43.459 55.937L43.541 55.91C43.896 55.91,44.088 56.375,44.088 56.621L44.088 61.546C44.088 61.792,44.334 61.984,44.608 61.984C45.018 61.984,45.264 61.792,45.264 61.546L45.264 55.937C45.264 55.636,45.428 55.171,45.702 55.034C45.976 54.925,46.796 54.596,46.796 54.596C47.07 54.487,47.289 54.186,47.289 53.94L47.289 51.149C47.289 50.958,47.152 50.821,46.988 50.821C46.933 50.821,46.879 50.821,46.796 50.876L45.784 51.259C45.538 51.259,45.264 51.012,45.264 50.547L45.264 46.881C45.264 46.607,45.456 45.869,45.784 45.732M44.088 51.778C43.842 52.572,42.008 53.338,41.078 53.338C40.859 53.338,40.668 53.283,40.613 53.146C40.531 52.982,40.504 52.134,40.504 51.176C40.504 49.973,40.531 48.577,40.613 48.276C40.695 47.592,42.501 46.772,43.486 46.772C43.76 46.772,44.006 46.854,44.088 47.018C44.17 47.209,44.252 48.194,44.252 49.261C44.252 50.328,44.17 51.423,44.088 51.778"/><path stroke="none" d="M57.619 60.349C57.892 60.239,58.111 59.911,58.111 59.692L58.111 56.874C58.111 56.683,57.974 56.573,57.81 56.573C57.756 56.573,57.701 56.573,57.619 56.6C57.619 56.6,56.825 56.929,56.634 56.956C56.36 56.956,56.087 56.765,56.087 56.464L56.087 51.648C56.087 51.402,55.84 51.211,55.539 51.211C55.156 51.211,54.91 51.402,54.91 51.648L54.91 56.765C54.855 57.148,54.746 57.668,54.39 57.914C53.925 58.187,52.584 58.735,51.9 58.899C51.572 58.899,51.435 58.434,51.435 58.105L51.435 53.372C51.435 53.153,51.162 52.934,50.888 52.934C50.505 52.934,50.259 53.153,50.259 53.372L50.259 58.707C50.259 59.254,50.013 59.637,49.794 59.747C49.548 59.884,48.754 60.185,48.754 60.185C48.48 60.267,48.289 60.595,48.289 60.814L48.289 63.632C48.289 63.851,48.398 63.988,48.645 63.988L48.727 63.933C48.754 63.933,49.356 63.687,49.657 63.55L49.712 63.495C50.013 63.495,50.259 63.906,50.259 64.207L50.259 68.119C50.259 68.557,50.067 68.912,49.821 69.022C49.602 69.104,48.754 69.46,48.754 69.46C48.48 69.542,48.289 69.843,48.289 70.089L48.289 72.88C48.289 73.126,48.398 73.235,48.645 73.235L48.727 73.208C48.754 73.208,49.301 72.962,49.657 72.852C49.712 72.798,49.739 72.798,49.794 72.798C50.067 72.798,50.259 73.235,50.259 73.427L50.259 78.27C50.259 78.516,50.505 78.707,50.779 78.707C51.162 78.707,51.435 78.516,51.435 78.27L51.435 72.798C51.435 72.278,51.627 72.004,51.846 71.922L54.226 70.937C54.226 70.937,54.281 70.937,54.281 70.937L54.363 70.91C54.719 70.91,54.91 71.375,54.91 71.621L54.91 76.546C54.91 76.792,55.156 76.984,55.43 76.984C55.84 76.984,56.087 76.792,56.087 76.546L56.087 70.937C56.087 70.636,56.251 70.171,56.524 70.034C56.798 69.925,57.619 69.596,57.619 69.596C57.892 69.487,58.111 69.186,58.111 68.94L58.111 66.149C58.111 65.958,57.974 65.821,57.81 65.821C57.756 65.821,57.701 65.821,57.619 65.876L56.606 66.259C56.36 66.259,56.087 66.012,56.087 65.547L56.087 61.881C56.087 61.607,56.278 60.869,56.606 60.732M54.91 66.778C54.664 67.572,52.831 68.338,51.9 68.338C51.682 68.338,51.49 68.283,51.435 68.146C51.353 67.982,51.326 67.134,51.326 66.176C51.326 64.973,51.353 63.577,51.435 63.276C51.517 62.592,53.323 61.772,54.308 61.772C54.582 61.772,54.828 61.854,54.91 62.018C54.992 62.209,55.074 63.194,55.074 64.261C55.074 65.328,54.992 66.423,54.91 66.778"/><path stroke="none" d="M68.441 40.349C68.715 40.239,68.933 39.911,68.933 39.692L68.933 36.874C68.933 36.683,68.797 36.573,68.632 36.573C68.578 36.573,68.523 36.573,68.441 36.6C68.441 36.6,67.648 36.929,67.456 36.956C67.182 36.956,66.909 36.765,66.909 36.464L66.909 31.648C66.909 31.402,66.663 31.211,66.362 31.211C65.979 31.211,65.732 31.402,65.732 31.648L65.732 36.765C65.678 37.148,65.568 37.668,65.212 37.914C64.747 38.187,63.407 38.735,62.723 38.899C62.394 38.899,62.258 38.434,62.258 38.105L62.258 33.372C62.258 33.153,61.984 32.934,61.71 32.934C61.327 32.934,61.081 33.153,61.081 33.372L61.081 38.707C61.081 39.254,60.835 39.637,60.616 39.747C60.37 39.884,59.576 40.185,59.576 40.185C59.303 40.267,59.111 40.595,59.111 40.814L59.111 43.632C59.111 43.851,59.221 43.988,59.467 43.988L59.549 43.933C59.576 43.933,60.178 43.687,60.479 43.55L60.534 43.495C60.835 43.495,61.081 43.906,61.081 44.207L61.081 48.119C61.081 48.557,60.89 48.912,60.643 49.022C60.424 49.104,59.576 49.46,59.576 49.46C59.303 49.542,59.111 49.843,59.111 50.089L59.111 52.88C59.111 53.126,59.221 53.235,59.467 53.235L59.549 53.208C59.576 53.208,60.124 52.962,60.479 52.852C60.534 52.798,60.561 52.798,60.616 52.798C60.89 52.798,61.081 53.235,61.081 53.427L61.081 58.27C61.081 58.516,61.327 58.707,61.601 58.707C61.984 58.707,62.258 58.516,62.258 58.27L62.258 52.798C62.258 52.278,62.449 52.004,62.668 51.922L65.048 50.937C65.048 50.937,65.103 50.937,65.103 50.937L65.185 50.91C65.541 50.91,65.732 51.375,65.732 51.621L65.732 56.546C65.732 56.792,65.979 56.984,66.252 56.984C66.663 56.984,66.909 56.792,66.909 56.546L66.909 50.937C66.909 50.636,67.073 50.171,67.347 50.034C67.62 49.925,68.441 49.596,68.441 49.596C68.715 49.487,68.933 49.186,68.933 48.94L68.933 46.149C68.933 45.958,68.797 45.821,68.632 45.821C68.578 45.821,68.523 45.821,68.441 45.876L67.429 46.259C67.182 46.259,66.909 46.012,66.909 45.547L66.909 41.881C66.909 41.607,67.1 40.869,67.429 40.732M65.732 46.778C65.486 47.572,63.653 48.338,62.723 48.338C62.504 48.338,62.312 48.283,62.258 48.146C62.176 47.982,62.148 47.134,62.148 46.176C62.148 44.973,62.176 43.577,62.258 43.276C62.34 42.592,64.145 41.772,65.13 41.772C65.404 41.772,65.65 41.854,65.732 42.018C65.814 42.209,65.896 43.194,65.896 44.261C65.896 45.328,65.814 46.423,65.732 46.778"/><path stroke="none" d="M79.263 55.349C79.537 55.239,79.756 54.911,79.756 54.692L79.756 51.874C79.756 51.683,79.619 51.573,79.455 51.573C79.4 51.573,79.345 51.573,79.263 51.6C79.263 51.6,78.47 51.929,78.278 51.956C78.005 51.956,77.731 51.765,77.731 51.464L77.731 46.648C77.731 46.402,77.485 46.211,77.184 46.211C76.801 46.211,76.555 46.402,76.555 46.648L76.555 51.765C76.5 52.148,76.39 52.668,76.035 52.914C75.57 53.187,74.229 53.735,73.545 53.899C73.217 53.899,73.08 53.434,73.08 53.105L73.08 48.372C73.08 48.153,72.806 47.934,72.533 47.934C72.15 47.934,71.903 48.153,71.903 48.372L71.903 53.707C71.903 54.254,71.657 54.637,71.438 54.747C71.192 54.884,70.399 55.185,70.399 55.185C70.125 55.267,69.933 55.595,69.933 55.814L69.933 58.632C69.933 58.851,70.043 58.988,70.289 58.988L70.371 58.933C70.399 58.933,71 58.687,71.301 58.55L71.356 58.495C71.657 58.495,71.903 58.906,71.903 59.207L71.903 63.119C71.903 63.557,71.712 63.912,71.466 64.022C71.247 64.104,70.399 64.46,70.399 64.46C70.125 64.542,69.933 64.843,69.933 65.089L69.933 67.88C69.933 68.126,70.043 68.235,70.289 68.235L70.371 68.208C70.399 68.208,70.946 67.962,71.301 67.852C71.356 67.798,71.384 67.798,71.438 67.798C71.712 67.798,71.903 68.235,71.903 68.427L71.903 73.27C71.903 73.516,72.15 73.707,72.423 73.707C72.806 73.707,73.08 73.516,73.08 73.27L73.08 67.798C73.08 67.278,73.271 67.004,73.49 66.922L75.871 65.937C75.871 65.937,75.925 65.937,75.925 65.937L76.007 65.91C76.363 65.91,76.555 66.375,76.555 66.621L76.555 71.546C76.555 71.792,76.801 71.984,77.074 71.984C77.485 71.984,77.731 71.792,77.731 71.546L77.731 65.937C77.731 65.636,77.895 65.171,78.169 65.034C78.442 64.925,79.263 64.596,79.263 64.596C79.537 64.487,79.756 64.186,79.756 63.94L79.756 61.149C79.756 60.958,79.619 60.821,79.455 60.821C79.4 60.821,79.345 60.821,79.263 60.876L78.251 61.259C78.005 61.259,77.731 61.012,77.731 60.547L77.731 56.881C77.731 56.607,77.923 55.869,78.251 55.732M76.555 61.778C76.308 62.572,74.475 63.338,73.545 63.338C73.326 63.338,73.135 63.283,73.08 63.146C72.998 62.982,72.97 62.134,72.97 61.176C72.97 59.973,72.998 58.577,73.08 58.276C73.162 57.592,74.968 56.772,75.953 56.772C76.226 56.772,76.472 56.854,76.555 57.018C76.637 57.209,76.719 58.194,76.719 59.261C76.719 60.328,76.637 61.423,76.555 61.778"/></g><g class="vf-stavenote" id="vf-auto21181"><path stroke-width="1.4" fill="none" stroke="#444" d="M102.377 90L120.311 90"/><g class="vf-stem" id="vf-auto21182" pointer-events="bounding-box"><path stroke-width="1.5" fill="none" d="M106.127 92L106.127 125"/></g><g class="vf-notehead" id="vf-auto21184" pointer-events="bounding-box"><path stroke="none" d="M109.308 95.054C112.902 95.054,117.311 91.741,117.311 88.315C117.311 86.237,115.682 84.946,113.38 84.946C108.943 84.946,105.377 88.231,105.377 91.685C105.377 93.791,107.118 95.054,109.308 95.054"/><path stroke="none" d="M101.31 82.859C101.228 82.859,101.2 82.914,101.146 82.914C101.146 82.914,98.628 83.817,97.616 83.817C97.37 83.817,97.206 83.762,97.206 83.625L97.206 77.031C97.206 76.758,96.987 76.566,96.741 76.566L96.221 76.566C95.947 76.566,95.756 76.758,95.756 77.031L95.756 97.332C95.756 97.551,95.865 97.688,96.111 97.688L96.193 97.633C96.221 97.633,96.303 97.633,96.358 97.606C96.905 97.36,99.094 96.43,100.243 96.43C100.653 96.43,100.927 96.539,100.927 96.867L100.927 102.722C100.927 102.996,101.118 103.188,101.392 103.188L101.912 103.188C102.131 103.188,102.377 102.996,102.377 102.722L102.377 82.941C102.377 82.75,102.213 82.64,102.048 82.64C102.021 82.64,101.939 82.64,101.912 82.668M97.206 88.468C97.206 87.921,99.613 86.881,100.571 86.881C100.79 86.881,100.927 86.936,100.927 87.072L100.927 91.149C100.927 91.86,98.683 92.763,97.698 92.763C97.397 92.763,97.206 92.681,97.206 92.517"/></g></g><g class="vf-stavenote" id="vf-auto21185"><g class="vf-stem" id="vf-auto21186" pointer-events="bounding-box"><path stroke-width="1.5" fill="none" d="M138.729 57L138.729 90"/></g><g class="vf-notehead" id="vf-auto21188" pointer-events="bounding-box"><path stroke="none" d="M141.91 60.054C145.504 60.054,149.913 56.741,149.913 53.315C149.913 51.237,148.284 49.946,145.982 49.946C141.545 49.946,137.979 53.231,137.979 56.685C137.979 58.791,139.72 60.054,141.91 60.054"/><path stroke="none" d="M133.912 47.859C133.83 47.859,133.802 47.914,133.748 47.914C133.748 47.914,131.231 48.817,130.218 48.817C129.972 48.817,129.808 48.762,129.808 48.625L129.808 42.031C129.808 41.758,129.589 41.566,129.343 41.566L128.823 41.566C128.549 41.566,128.358 41.758,128.358 42.031L128.358 62.332C128.358 62.551,128.467 62.688,128.714 62.688L128.796 62.633C128.823 62.633,128.905 62.633,128.96 62.606C129.507 62.36,131.696 61.43,132.845 61.43C133.255 61.43,133.529 61.539,133.529 61.867L133.529 67.722C133.529 67.996,133.72 68.188,133.994 68.188L134.514 68.188C134.733 68.188,134.979 67.996,134.979 67.722L134.979 47.941C134.979 47.75,134.815 47.64,134.651 47.64C134.623 47.64,134.541 47.64,134.514 47.668M129.808 53.468C129.808 52.921,132.216 51.881,133.173 51.881C133.392 51.881,133.529 51.936,133.529 52.072L133.529 56.149C133.529 56.86,131.285 57.763,130.3 57.763C129.999 57.763,129.808 57.681,129.808 57.517"/></g></g><g class="vf-stavenote" id="vf-auto21189"><path stroke-width="1.4" fill="none" stroke="#444" d="M167.581 90L185.515 90"/><g class="vf-stem" id="vf-auto21190" pointer-events="bounding-box"><path stroke-width="1.5" fill="none" d="M171.331 92L171.331 125"/></g><g class="vf-notehead" id="vf-auto21192" pointer-events="bounding-box"><path stroke="none" d="M174.512 95.054C178.107 95.054,182.515 91.741,182.515 88.315C182.515 86.237,180.886 84.946,178.584 84.946C174.147 84.946,170.581 88.231,170.581 91.685C170.581 93.791,172.322 95.054,174.512 95.054"/><path stroke="none" d="M167.089 85.349C167.362 85.239,167.581 84.911,167.581 84.692L167.581 81.874C167.581 81.683,167.444 81.573,167.28 81.573C167.225 81.573,167.171 81.573,167.089 81.6C167.089 81.6,166.295 81.929,166.104 81.956C165.83 81.956,165.556 81.765,165.556 81.464L165.556 76.648C165.556 76.402,165.31 76.211,165.009 76.211C164.626 76.211,164.38 76.402,164.38 76.648L164.38 81.765C164.325 82.148,164.216 82.668,163.86 82.914C163.395 83.187,162.054 83.735,161.37 83.899C161.042 83.899,160.905 83.434,160.905 83.105L160.905 78.372C160.905 78.153,160.632 77.934,160.358 77.934C159.975 77.934,159.729 78.153,159.729 78.372L159.729 83.707C159.729 84.254,159.483 84.637,159.264 84.747C159.017 84.884,158.224 85.185,158.224 85.185C157.95 85.267,157.759 85.595,157.759 85.814L157.759 88.632C157.759 88.851,157.868 88.988,158.115 88.988L158.197 88.933C158.224 88.933,158.826 88.687,159.127 88.55L159.182 88.495C159.483 88.495,159.729 88.906,159.729 89.207L159.729 93.119C159.729 93.557,159.537 93.912,159.291 94.022C159.072 94.104,158.224 94.46,158.224 94.46C157.95 94.542,157.759 94.843,157.759 95.089L157.759 97.88C157.759 98.126,157.868 98.235,158.115 98.235L158.197 98.208C158.224 98.208,158.771 97.962,159.127 97.852C159.182 97.798,159.209 97.798,159.264 97.798C159.537 97.798,159.729 98.235,159.729 98.427L159.729 103.27C159.729 103.516,159.975 103.707,160.249 103.707C160.632 103.707,160.905 103.516,160.905 103.27L160.905 97.798C160.905 97.278,161.097 97.004,161.316 96.922L163.696 95.937C163.696 95.937,163.751 95.937,163.751 95.937L163.833 95.91C164.188 95.91,164.38 96.375,164.38 96.621L164.38 101.546C164.38 101.792,164.626 101.984,164.9 101.984C165.31 101.984,165.556 101.792,165.556 101.546L165.556 95.937C165.556 95.636,165.721 95.171,165.994 95.034C166.268 94.925,167.089 94.596,167.089 94.596C167.362 94.487,167.581 94.186,167.581 93.94L167.581 91.149C167.581 90.958,167.444 90.821,167.28 90.821C167.225 90.821,167.171 90.821,167.089 90.876L166.076 91.259C165.83 91.259,165.556 91.012,165.556 90.547L165.556 86.881C165.556 86.607,165.748 85.869,166.076 85.732M164.38 91.778C164.134 92.572,162.301 93.338,161.37 93.338C161.151 93.338,160.96 93.283,160.905 93.146C160.823 92.982,160.796 92.134,160.796 91.176C160.796 89.973,160.823 88.577,160.905 88.276C160.987 87.592,162.793 86.772,163.778 86.772C164.052 86.772,164.298 86.854,164.38 87.018C164.462 87.209,164.544 88.194,164.544 89.261C164.544 90.328,164.462 91.423,164.38 91.778"/></g></g><g class="vf-stavenote" id="vf-auto21193"><g class="vf-stem" id="vf-auto21194" pointer-events="bounding-box"><path stroke-width="1.5" fill="none" d="M203.933 57L203.933 90"/></g><g class="vf-notehead" id="vf-auto21196" pointer-events="bounding-box"><path stroke="none" d="M207.114 60.054C210.709 60.054,215.117 56.741,215.117 53.315C215.117 51.237,213.489 49.946,211.186 49.946C206.749 49.946,203.183 53.231,203.183 56.685C203.183 58.791,204.924 60.054,207.114 60.054"/><path stroke="none" d="M199.691 50.349C199.964 50.239,200.183 49.911,200.183 49.692L200.183 46.874C200.183 46.683,200.046 46.573,199.882 46.573C199.828 46.573,199.773 46.573,199.691 46.6C199.691 46.6,198.897 46.929,198.706 46.956C198.432 46.956,198.159 46.765,198.159 46.464L198.159 41.648C198.159 41.402,197.912 41.211,197.611 41.211C197.228 41.211,196.982 41.402,196.982 41.648L196.982 46.765C196.927 47.148,196.818 47.668,196.462 47.914C195.997 48.187,194.657 48.735,193.973 48.899C193.644 48.899,193.507 48.434,193.507 48.105L193.507 43.372C193.507 43.153,193.234 42.934,192.96 42.934C192.577 42.934,192.331 43.153,192.331 43.372L192.331 48.707C192.331 49.254,192.085 49.637,191.866 49.747C191.62 49.884,190.826 50.185,190.826 50.185C190.553 50.267,190.361 50.595,190.361 50.814L190.361 53.632C190.361 53.851,190.47 53.988,190.717 53.988L190.799 53.933C190.826 53.933,191.428 53.687,191.729 53.55L191.784 53.495C192.085 53.495,192.331 53.906,192.331 54.207L192.331 58.119C192.331 58.557,192.139 58.912,191.893 59.022C191.674 59.104,190.826 59.46,190.826 59.46C190.553 59.542,190.361 59.843,190.361 60.089L190.361 62.88C190.361 63.126,190.47 63.235,190.717 63.235L190.799 63.208C190.826 63.208,191.373 62.962,191.729 62.852C191.784 62.798,191.811 62.798,191.866 62.798C192.139 62.798,192.331 63.235,192.331 63.427L192.331 68.27C192.331 68.516,192.577 68.707,192.851 68.707C193.234 68.707,193.507 68.516,193.507 68.27L193.507 62.798C193.507 62.278,193.699 62.004,193.918 61.922L196.298 60.937C196.298 60.937,196.353 60.937,196.353 60.937L196.435 60.91C196.791 60.91,196.982 61.375,196.982 61.621L196.982 66.546C196.982 66.792,197.228 66.984,197.502 66.984C197.912 66.984,198.159 66.792,198.159 66.546L198.159 60.937C198.159 60.636,198.323 60.171,198.596 60.034C198.87 59.925,199.691 59.596,199.691 59.596C199.964 59.487,200.183 59.186,200.183 58.94L200.183 56.149C200.183 55.958,200.046 55.821,199.882 55.821C199.828 55.821,199.773 55.821,199.691 55.876L198.678 56.259C198.432 56.259,198.159 56.012,198.159 55.547L198.159 51.881C198.159 51.607,198.35 50.869,198.678 50.732M196.982 56.778C196.736 57.572,194.903 58.338,193.973 58.338C193.754 58.338,193.562 58.283,193.507 58.146C193.425 57.982,193.398 57.134,193.398 56.176C193.398 54.973,193.425 53.577,193.507 53.276C193.589 52.592,195.395 51.772,196.38 51.772C196.654 51.772,196.9 51.854,196.982 52.018C197.064 52.209,197.146 53.194,197.146 54.261C197.146 55.328,197.064 56.423,196.982 56.778"/></g></g><g class="vf-stavenote" id="vf-auto21197"><path stroke-width="1.4" fill="none" stroke="#444" d="M232.785 90L250.719 90"/><g class="vf-stem" id="vf-auto21198" pointer-events="bounding-box"><path stroke-width="1.5" fill="none" d="M236.535 92L236.535 125"/></g><g class="vf-notehead" id="vf-auto21200" pointer-events="bounding-box"><path stroke="none" d="M239.717 95.054C243.311 95.054,247.719 91.741,247.719 88.315C247.719 86.237,246.091 84.946,243.788 84.946C239.352 84.946,235.785 88.231,235.785 91.685C235.785 93.791,237.526 95.054,239.717 95.054"/></g></g><g class="vf-stavenote" id="vf-auto21201"><g class="vf-stem" id="vf-auto21202" pointer-events="bounding-box"><path stroke-width="1.5" fill="none" d="M269.138 57L269.138 90"/></g><g class="vf-notehead" id="vf-auto21204" pointer-events="bounding-box"><path stroke="none" d="M272.319 60.054C275.913 60.054,280.322 56.741,280.322 53.315C280.322 51.237,278.693 49.946,276.39 49.946C271.954 49.946,268.388 53.231,268.388 56.685C268.388 58.791,270.128 60.054,272.319 60.054"/></g></g><g class="vf-stavenote" id="vf-auto21205"><path stroke-width="1.4" fill="none" stroke="#444" d="M297.99 90L315.924 90"/><g class="vf-stem" id="vf-auto21206" pointer-events="bounding-box"><path stroke-width="1.5" fill="none" d="M301.74 92L301.74 125"/></g><g class="vf-notehead" id="vf-auto21208" pointer-events="bounding-box"><path stroke="none" d="M304.921 95.054C308.515 95.054,312.924 91.741,312.924 88.315C312.924 86.237,311.295 84.946,308.992 84.946C304.556 84.946,300.99 88.231,300.99 91.685C300.99 93.791,302.731 95.054,304.921 95.054"/><path stroke="none" d="M296.923 82.859C296.841 82.859,296.813 82.914,296.758 82.914C296.758 82.914,294.241 83.817,293.229 83.817C292.983 83.817,292.819 83.762,292.819 83.625L292.819 77.031C292.819 76.758,292.6 76.566,292.354 76.566L291.834 76.566C291.56 76.566,291.369 76.758,291.369 77.031L291.369 97.332C291.369 97.551,291.478 97.688,291.724 97.688L291.806 97.633C291.834 97.633,291.916 97.633,291.97 97.606C292.518 97.36,294.706 96.43,295.856 96.43C296.266 96.43,296.54 96.539,296.54 96.867L296.54 102.722C296.54 102.996,296.731 103.188,297.005 103.188L297.525 103.188C297.743 103.188,297.99 102.996,297.99 102.722L297.99 82.941C297.99 82.75,297.826 82.64,297.661 82.64C297.634 82.64,297.552 82.64,297.525 82.668M292.819 88.468C292.819 87.921,295.226 86.881,296.184 86.881C296.403 86.881,296.54 86.936,296.54 87.072L296.54 91.149C296.54 91.86,294.296 92.763,293.311 92.763C293.01 92.763,292.819 92.681,292.819 92.517"/></g></g><g class="vf-stavenote" id="vf-auto21209"><g class="vf-stem" id="vf-auto21210" pointer-events="bounding-box"><path stroke-width="1.5" fill="none" d="M334.342 57L334.342 90"/></g><g class="vf-notehead" id="vf-auto21212" pointer-events="bounding-box"><path stroke="none" d="M337.523 60.054C341.117 60.054,345.526 56.741,345.526 53.315C345.526 51.237,343.897 49.946,341.595 49.946C337.158 49.946,333.592 53.231,333.592 56.685C333.592 58.791,335.333 60.054,337.523 60.054"/><path stroke="none" d="M329.525 47.859C329.443 47.859,329.415 47.914,329.361 47.914C329.361 47.914,326.843 48.817,325.831 48.817C325.585 48.817,325.421 48.762,325.421 48.625L325.421 42.031C325.421 41.758,325.202 41.566,324.956 41.566L324.436 41.566C324.162 41.566,323.971 41.758,323.971 42.031L323.971 62.332C323.971 62.551,324.08 62.688,324.326 62.688L324.408 62.633C324.436 62.633,324.518 62.633,324.573 62.606C325.12 62.36,327.309 61.43,328.458 61.43C328.868 61.43,329.142 61.539,329.142 61.867L329.142 67.722C329.142 67.996,329.333 68.188,329.607 68.188L330.127 68.188C330.346 68.188,330.592 67.996,330.592 67.722L330.592 47.941C330.592 47.75,330.428 47.64,330.263 47.64C330.236 47.64,330.154 47.64,330.127 47.668M325.421 53.468C325.421 52.921,327.828 51.881,328.786 51.881C329.005 51.881,329.142 51.936,329.142 52.072L329.142 56.149C329.142 56.86,326.898 57.763,325.913 57.763C325.612 57.763,325.421 57.681,325.421 57.517"/></g></g><g class="vf-stavenote" id="vf-auto21213"><path stroke-width="1.4" fill="none" stroke="#444" d="M363.194 90L381.128 90"/><g class="vf-stem" id="vf-auto21214" pointer-events="bounding-box"><path stroke-width="1.5" fill="none" d="M366.944 92L366.944 125"/></g><g class="vf-notehead" id="vf-auto21216" pointer-events="bounding-box"><path stroke="none" d="M370.125 95.054C373.719 95.054,378.128 91.741,378.128 88.315C378.128 86.237,376.499 84.946,374.197 84.946C369.76 84.946,366.194 88.231,366.194 91.685C366.194 93.791,367.935 95.054,370.125 95.054"/></g></g><g class="vf-stavenote" id="vf-auto21217"><g class="vf-stem" id="vf-auto21218" pointer-events="bounding-box"><path stroke-width="1.5" fill="none" d="M399.546 57L399.546 90"/></g><g class="vf-notehead" id="vf-auto21220" pointer-events="bounding-box"><path stroke="none" d="M402.727 60.054C406.322 60.054,410.73 56.741,410.73 53.315C410.73 51.237,409.101 49.946,406.799 49.946C402.362 49.946,398.796 53.231,398.796 56.685C398.796 58.791,400.537 60.054,402.727 60.054"/></g></g><g class="vf-stavenote" id="vf-auto21221"><path stroke-width="1.4" fill="none" stroke="#444" d="M428.398 90L446.332 90"/><g class="vf-stem" id="vf-auto21222" pointer-events="bounding-box"><path stroke-width="1.5" fill="none" d="M432.148 92L432.148 125"/></g><g class="vf-notehead" id="vf-auto21224" pointer-events="bounding-box"><path stroke="none" d="M435.329 95.054C438.924 95.054,443.332 91.741,443.332 88.315C443.332 86.237,441.704 84.946,439.401 84.946C434.964 84.946,431.398 88.231,431.398 91.685C431.398 93.791,433.139 95.054,435.329 95.054"/><path stroke="none" d="M419.971 96.703C420.108 96.867,420.218 96.895,420.327 96.895C420.464 96.895,420.573 96.813,420.573 96.813C421.75 96.156,422.707 95.089,423.692 94.405C427.194 91.97,428.398 89.562,428.398 87.756C428.398 85.513,426.675 84.09,424.869 83.981C424.185 83.981,423.255 84.282,422.707 84.637C422.461 84.829,422.023 85.185,421.832 85.185C421.75 85.185,421.722 85.185,421.64 85.157C421.367 85.048,421.203 84.747,421.203 84.473C421.23 83.625,421.476 74.159,421.476 73.365C421.476 72.927,421.12 72.708,420.737 72.708C420.163 72.708,419.534 73.092,419.506 73.803C419.506 73.803,419.67 96.293,419.971 96.703M421.367 93.201C421.367 93.201,421.23 90.821,421.23 89.261C421.23 88.632,421.285 88.14,421.312 88.003C421.586 87.209,423.172 86.06,424.075 86.06C425.224 86.06,425.69 87.373,425.69 88.358C425.69 90.465,423.884 92.599,422.188 93.666C422.023 93.748,421.914 93.776,421.804 93.776C421.449 93.776,421.367 93.393,421.367 93.201"/></g></g><g class="vf-stavenote" id="vf-auto21225"><g class="vf-stem" id="vf-auto21226" pointer-events="bounding-box"><path stroke-width="1.5" fill="none" d="M464.75 57L464.75 90"/></g><g class="vf-notehead" id="vf-auto21228" pointer-events="bounding-box"><path stroke="none" d="M467.932 60.054C471.526 60.054,475.934 56.741,475.934 53.315C475.934 51.237,474.306 49.946,472.003 49.946C467.567 49.946,464 53.231,464 56.685C464 58.791,465.741 60.054,467.932 60.054"/><path stroke="none" d="M452.574 61.703C452.71 61.867,452.82 61.895,452.929 61.895C453.066 61.895,453.175 61.813,453.175 61.813C454.352 61.156,455.31 60.089,456.294 59.405C459.797 56.97,461 54.562,461 52.756C461 50.513,459.277 49.09,457.471 48.981C456.787 48.981,455.857 49.282,455.31 49.637C455.063 49.829,454.626 50.185,454.434 50.185C454.352 50.185,454.325 50.185,454.242 50.157C453.969 50.048,453.805 49.747,453.805 49.473C453.832 48.625,454.078 39.159,454.078 38.365C454.078 37.927,453.723 37.708,453.34 37.708C452.765 37.708,452.136 38.092,452.108 38.803C452.108 38.803,452.273 61.293,452.574 61.703M453.969 58.201C453.969 58.201,453.832 55.821,453.832 54.261C453.832 53.632,453.887 53.14,453.914 53.003C454.188 52.209,455.775 51.06,456.678 51.06C457.827 51.06,458.292 52.373,458.292 53.358C458.292 55.465,456.486 57.599,454.79 58.666C454.626 58.748,454.516 58.776,454.407 58.776C454.051 58.776,453.969 58.393,453.969 58.201"/></g></g><g class="vf-stavenote" id="vf-auto21229"><path stroke-width="1.4" fill="none" stroke="#444" d="M493.603 90L511.537 90"/><g class="vf-stem" id="vf-auto21230" pointer-events="bounding-box"><path stroke-width="1.5" fill="none" d="M497.353 92L497.353 125"/></g><g class="vf-notehead" id="vf-auto21232" pointer-events="bounding-box"><path stroke="none" d="M500.534 95.054C504.128 95.054,508.537 91.741,508.537 88.315C508.537 86.237,506.908 84.946,504.605 84.946C500.169 84.946,496.603 88.231,496.603 91.685C496.603 93.791,498.343 95.054,500.534 95.054"/></g></g><g class="vf-stavenote" id="vf-auto21233"><g class="vf-stem" id="vf-auto21234" pointer-events="bounding-box"><path stroke-width="1.5" fill="none" d="M529.955 57L529.955 90"/></g><g class="vf-notehead" id="vf-auto21236" pointer-events="bounding-box"><path stroke="none" d="M533.136 60.054C536.73 60.054,541.139 56.741,541.139 53.315C541.139 51.237,539.51 49.946,537.207 49.946C532.771 49.946,529.205 53.231,529.205 56.685C529.205 58.791,530.946 60.054,533.136 60.054"/></g></g><g class="vf-stavenote" id="vf-auto21237"><path stroke-width="1.4" fill="none" stroke="#444" d="M558.807 90L576.741 90"/><g class="vf-stem" id="vf-auto21238" pointer-events="bounding-box"><path stroke-width="1.5" fill="none" d="M562.557 92L562.557 125"/></g><g class="vf-notehead" id="vf-auto21240" pointer-events="bounding-box"><path stroke="none" d="M565.738 95.054C569.332 95.054,573.741 91.741,573.741 88.315C573.741 86.237,572.112 84.946,569.81 84.946C565.373 84.946,561.807 88.231,561.807 91.685C561.807 93.791,563.548 95.054,565.738 95.054"/><path stroke="none" d="M557.74 82.859C557.658 82.859,557.63 82.914,557.576 82.914C557.576 82.914,555.059 83.817,554.046 83.817C553.8 83.817,553.636 83.762,553.636 83.625L553.636 77.031C553.636 76.758,553.417 76.566,553.171 76.566L552.651 76.566C552.377 76.566,552.186 76.758,552.186 77.031L552.186 97.332C552.186 97.551,552.295 97.688,552.541 97.688L552.623 97.633C552.651 97.633,552.733 97.633,552.788 97.606C553.335 97.36,555.524 96.43,556.673 96.43C557.083 96.43,557.357 96.539,557.357 96.867L557.357 102.722C557.357 102.996,557.548 103.188,557.822 103.188L558.342 103.188C558.561 103.188,558.807 102.996,558.807 102.722L558.807 82.941C558.807 82.75,558.643 82.64,558.479 82.64C558.451 82.64,558.369 82.64,558.342 82.668M553.636 88.468C553.636 87.921,556.043 86.881,557.001 86.881C557.22 86.881,557.357 86.936,557.357 87.072L557.357 91.149C557.357 91.86,555.113 92.763,554.128 92.763C553.827 92.763,553.636 92.681,553.636 92.517"/></g></g><g class="vf-stavenote" id="vf-auto21241"><g class="vf-stem" id="vf-auto21242" pointer-events="bounding-box"><path stroke-width="1.5" fill="none" d="M595.159 57L595.159 90"/></g><g class="vf-notehead" id="vf-auto21244" pointer-events="bounding-box"><path stroke="none" d="M598.34 60.054C601.934 60.054,606.343 56.741,606.343 53.315C606.343 51.237,604.714 49.946,602.412 49.946C597.975 49.946,594.409 53.231,594.409 56.685C594.409 58.791,596.15 60.054,598.34 60.054"/><path stroke="none" d="M590.342 47.859C590.26 47.859,590.232 47.914,590.178 47.914C590.178 47.914,587.661 48.817,586.648 48.817C586.402 48.817,586.238 48.762,586.238 48.625L586.238 42.031C586.238 41.758,586.019 41.566,585.773 41.566L585.253 41.566C584.979 41.566,584.788 41.758,584.788 42.031L584.788 62.332C584.788 62.551,584.897 62.688,585.144 62.688L585.226 62.633C585.253 62.633,585.335 62.633,585.39 62.606C585.937 62.36,588.126 61.43,589.275 61.43C589.685 61.43,589.959 61.539,589.959 61.867L589.959 67.722C589.959 67.996,590.15 68.188,590.424 68.188L590.944 68.188C591.163 68.188,591.409 67.996,591.409 67.722L591.409 47.941C591.409 47.75,591.245 47.64,591.081 47.64C591.053 47.64,590.971 47.64,590.944 47.668M586.238 53.468C586.238 52.921,588.646 51.881,589.603 51.881C589.822 51.881,589.959 51.936,589.959 52.072L589.959 56.149C589.959 56.86,587.715 57.763,586.73 57.763C586.429 57.763,586.238 57.681,586.238 57.517"/></g></g><g class="vf-stavenote" id="vf-auto21245"><path stroke-width="1.4" fill="none" stroke="#444" d="M624.011 90L641.945 90"/><g class="vf-stem" id="vf-auto21246" pointer-events="bounding-box"><path stroke-width="1.5" fill="none" d="M627.761 92L627.761 125"/></g><g class="vf-notehead" id="vf-auto21248" pointer-events="bounding-box"><path stroke="none" d="M630.942 95.054C634.537 95.054,638.945 91.741,638.945 88.315C638.945 86.237,637.316 84.946,635.014 84.946C630.577 84.946,627.011 88.231,627.011 91.685C627.011 93.791,628.752 95.054,630.942 95.054"/></g></g><g class="vf-stavenote" id="vf-auto21249"><g class="vf-stem" id="vf-auto21250" pointer-events="bounding-box"><path stroke-width="1.5" fill="none" d="M660.363 57L660.363 90"/></g><g class="vf-notehead" id="vf-auto21252" pointer-events="bounding-box"><path stroke="none" d="M663.544 60.054C667.139 60.054,671.547 56.741,671.547 53.315C671.547 51.237,669.919 49.946,667.616 49.946C663.179 49.946,659.613 53.231,659.613 56.685C659.613 58.791,661.354 60.054,663.544 60.054"/></g></g></svg>