<svg xmlns="http://www.w3.org/2000/svg" stroke-width="0.3" stroke-dasharray="none" fill="black" stroke="black" font-family="Arial, sans-serif" font-size="10pt" font-weight="normal" font-style="normal" width="450" height="140" viewBox="0 0 450 140" style="width: 450px; height: 140px; border: none;"><g class="vf-stave" id="vf-auto35361" stroke-width="1" fill="#999999" stroke="#999999"><path fill="none" d="M10 50L450 50"/><path fill="none" d="M10 60L450 60"/><path fill="none" d="M10 70L450 70"/><path fill="none" d="M10 80L450 80"/><path fill="none" d="M10 90L450 90"/></g><g class="vf-stavebarline" id="vf-auto35362"><rect x="10" y="49.5" width="1" height="41" stroke="none"/></g><g class="vf-stavebarline" id="vf-auto35363"><rect x="450" y="49.5" width="1" height="41" stroke="none"/></g><g class="vf-stavenote" id="vf-auto35364"><path stroke-width="1.4" fill="none" stroke="#444" d="M24 100L43.141 100"/><path stroke-width="1.4" fill="none" stroke="#444" d="M24 110L43.141 110"/><path stroke-width="1.4" fill="none" stroke="#444" d="M24 120L43.141 120"/><g class="vf-stem" id="vf-auto35365" pointer-events="bounding-box"><path stroke-width="1.5" fill="none" d="M39.391 118L39.391 70"/></g><g class="vf-notehead" id="vf-auto35367" pointer-events="bounding-box"><path stroke="none" d="M27 121.685C27 123.426,28.264 125.391,31.521 125.391C35.733 125.391,40.141 121.938,40.141 118.371C40.141 115.985,38.12 114.665,35.621 114.665C31.689 114.665,27 117.978,27 121.685"/></g></g><g class="vf-stavenote" id="vf-auto35368"><path stroke-width="1.4" fill="none" stroke="#444" d="M96.669 40L115.81 40"/><g class="vf-stem" id="vf-auto35369" pointer-events="bounding-box"><path stroke-width="1.5" fill="none" d="M100.419 42L100.419 75"/></g><g class="vf-notehead" id="vf-auto35371" pointer-events="bounding-box"><path stroke="none" d="M99.669 41.685C99.669 43.426,100.933 45.391,104.19 45.391C108.402 45.391,112.81 41.938,112.81 38.371C112.81 35.985,110.789 34.665,108.289 34.665C104.358 34.665,99.669 37.978,99.669 41.685"/></g></g><g class="vf-stavenote" id="vf-auto35372"><g class="vf-stem" id="vf-auto35373" pointer-events="bounding-box"><path stroke-width="1.5" fill="none" d="M184.729 73L184.729 40"/></g><g class="vf-notehead" id="vf-auto35375" pointer-events="bounding-box"><path stroke="none" d="M172.338 76.685C172.338 78.426,173.601 80.391,176.859 80.391C181.071 80.391,185.479 76.938,185.479 73.371C185.479 70.985,183.457 69.665,180.958 69.665C177.027 69.665,172.338 72.978,172.338 76.685"/></g></g><g class="vf-stavenote" id="vf-auto35376"><path stroke-width="1.4" fill="none" stroke="#444" d="M242.007 100L261.148 100"/><path stroke-width="1.4" fill="none" stroke="#444" d="M242.007 110L261.148 110"/><path stroke-width="1.4" fill="none" stroke="#444" d="M242.007 120L261.148 120"/><g class="vf-stem" id="vf-auto35377" pointer-events="bounding-box"><path stroke-width="1.5" fill="none" d="M257.398 118L257.398 70"/></g><g class="vf-notehead" id="vf-auto35379" pointer-events="bounding-box"><path stroke="none" d="M245.007 121.685C245.007 123.426,246.27 125.391,249.528 125.391C253.74 125.391,258.148 121.938,258.148 118.371C258.148 115.985,256.126 114.665,253.627 114.665C249.696 114.665,245.007 117.978,245.007 121.685"/></g></g><g class="vf-stavenote" id="vf-auto35380"><g class="vf-stem" id="vf-auto35381" pointer-events="bounding-box"><path stroke-width="1.5" fill="none" d="M318.426 77L318.426 110"/></g><g class="vf-notehead" id="vf-auto35383" pointer-events="bounding-box"><path stroke="none" d="M317.676 76.685C317.676 78.426,318.939 80.391,322.197 80.391C326.409 80.391,330.817 76.938,330.817 73.371C330.817 70.985,328.795 69.665,326.296 69.665C322.365 69.665,317.676 72.978,317.676 76.685"/></g></g><g class="vf-stavenote" id="vf-auto35384"><path stroke-width="1.4" fill="none" stroke="#444" d="M387.345 100L406.486 100"/><g class="vf-stem" id="vf-auto35385" pointer-events="bounding-box"><path stroke-width="1.5" fill="none" d="M391.095 102L391.095 135"/></g><g class="vf-notehead" id="vf-auto35387" pointer-events="bounding-box"><path stroke="none" d="M390.345 101.685C390.345 103.426,391.608 105.391,394.865 105.391C399.077 105.391,403.486 101.938,403.486 98.371C403.486 95.985,401.464 94.665,398.965 94.665C395.034 94.665,390.345 97.978,390.345 101.685"/></g></g><rect x="22" y="20" width="38.779" height="1" stroke="none"/><rect x="79.031" y="20" width="38.779" height="1" stroke="none"/><rect x="22" y="20" width="1" height="10" stroke="none"/><rect x="117.81" y="20" width="1" height="10" stroke="none"/><path stroke="none" d="M73.572 20.22C73.398 20.727,72.939 22.375,71.83 22.375C70.341 22.375,70.024 21.456,68.788 21.456C68.614 21.456,68.424 21.472,68.202 21.519C68.202 21.519,68.773 20.664,71.18 19.904C73.604 19.143,74.222 17.971,74.222 16.593C74.222 15.643,73.778 13.742,70.341 13.742C66.903 13.742,66.254 15.817,66.254 16.862C66.254 17.813,67.03 18.557,67.965 18.557C68.899 18.557,69.66 17.813,69.66 16.862C69.66 16.229,69.2 15.532,68.614 15.294C68.535 15.278,68.44 15.152,68.44 15.041C68.44 14.914,68.567 14.756,68.979 14.629C69.089 14.581,69.406 14.518,69.755 14.518C70.071 14.518,70.436 14.581,70.705 14.771C71.133 15.041,71.291 15.453,71.291 16.482C71.291 19.143,68.123 19.713,66.808 21.709C66.808 21.709,66.127 22.66,66.127 23.737C66.127 24.814,66.666 24.877,66.935 24.877C67.299 24.877,67.695 24.576,67.695 24.165C67.695 24.085,67.68 23.99,67.632 23.879C67.49 23.547,67.442 23.309,67.442 23.119C67.442 23.056,67.442 22.977,67.474 22.913C67.49 22.771,67.68 22.549,68.218 22.549C68.883 22.549,69.137 23.325,69.549 23.911C69.961 24.513,70.594 24.877,71.323 24.877C72.051 24.877,73.034 24.355,73.445 23.515C73.857 22.66,74.38 20.949,74.38 20.331C74.38 20.046,74.19 19.904,73.984 19.904C73.826 19.904,73.667 19.999,73.572 20.22"/><rect x="167.338" y="30" width="38.779" height="1" stroke="none"/><rect x="224.369" y="30" width="38.779" height="1" stroke="none"/><rect x="167.338" y="30" width="1" height="10" stroke="none"/><rect x="263.148" y="30" width="1" height="10" stroke="none"/><path stroke="none" d="M218.91 30.22C218.736 30.727,218.276 32.375,217.168 32.375C215.679 32.375,215.362 31.456,214.126 31.456C213.952 31.456,213.762 31.472,213.54 31.519C213.54 31.519,214.11 30.664,216.518 29.904C218.942 29.143,219.559 27.971,219.559 26.593C219.559 25.643,219.116 23.742,215.679 23.742C212.241 23.742,211.592 25.817,211.592 26.862C211.592 27.813,212.368 28.557,213.303 28.557C214.237 28.557,214.997 27.813,214.997 26.862C214.997 26.229,214.538 25.532,213.952 25.294C213.873 25.278,213.778 25.152,213.778 25.041C213.778 24.914,213.905 24.756,214.316 24.629C214.427 24.581,214.744 24.518,215.093 24.518C215.409 24.518,215.774 24.581,216.043 24.771C216.471 25.041,216.629 25.453,216.629 26.482C216.629 29.143,213.461 29.713,212.146 31.709C212.146 31.709,211.465 32.66,211.465 33.737C211.465 34.814,212.004 34.877,212.273 34.877C212.637 34.877,213.033 34.576,213.033 34.165C213.033 34.085,213.017 33.99,212.97 33.879C212.827 33.547,212.78 33.309,212.78 33.119C212.78 33.056,212.78 32.977,212.812 32.913C212.827 32.771,213.017 32.549,213.556 32.549C214.221 32.549,214.475 33.325,214.887 33.911C215.298 34.513,215.932 34.877,216.661 34.877C217.389 34.877,218.371 34.355,218.783 33.515C219.195 32.66,219.718 30.949,219.718 30.331C219.718 30.046,219.528 29.904,219.322 29.904C219.163 29.904,219.005 29.999,218.91 30.22"/><rect x="312.676" y="35" width="38.779" height="1" stroke="none"/><rect x="369.707" y="35" width="38.779" height="1" stroke="none"/><rect x="312.676" y="35" width="1" height="10" stroke="none"/><rect x="408.486" y="35" width="1" height="10" stroke="none"/><path stroke="none" d="M364.248 35.22C364.074 35.727,363.614 37.375,362.505 37.375C361.016 37.375,360.7 36.456,359.464 36.456C359.29 36.456,359.1 36.472,358.878 36.519C358.878 36.519,359.448 35.664,361.856 34.904C364.279 34.143,364.897 32.971,364.897 31.593C364.897 30.643,364.454 28.742,361.016 28.742C357.579 28.742,356.93 30.817,356.93 31.862C356.93 32.813,357.706 33.557,358.64 33.557C359.575 33.557,360.335 32.813,360.335 31.862C360.335 31.229,359.876 30.532,359.29 30.294C359.211 30.278,359.116 30.152,359.116 30.041C359.116 29.914,359.242 29.756,359.654 29.629C359.765 29.581,360.082 29.518,360.43 29.518C360.747 29.518,361.111 29.581,361.381 29.771C361.808 30.041,361.967 30.453,361.967 31.482C361.967 34.143,358.799 34.713,357.484 36.709C357.484 36.709,356.803 37.66,356.803 38.737C356.803 39.814,357.342 39.877,357.611 39.877C357.975 39.877,358.371 39.576,358.371 39.165C358.371 39.085,358.355 38.99,358.308 38.879C358.165 38.547,358.118 38.309,358.118 38.119C358.118 38.056,358.118 37.977,358.149 37.913C358.165 37.771,358.355 37.549,358.894 37.549C359.559 37.549,359.813 38.325,360.224 38.911C360.636 39.513,361.27 39.877,361.998 39.877C362.727 39.877,363.709 39.355,364.121 38.515C364.533 37.66,365.056 35.949,365.056 35.331C365.056 35.046,364.866 34.904,364.66 34.904C364.501 34.904,364.343 34.999,364.248 35.22"/></svg>