<svg xmlns="http://www.w3.org/2000/svg" stroke-width="0.3" stroke-dasharray="none" fill="black" stroke="black" font-family="Arial, sans-serif" font-size="10pt" font-weight="normal" font-style="normal" width="350" height="200" viewBox="0 0 350 200" style="width: 350px; height: 200px; border: none;"><g class="vf-stave" id="vf-auto13877" stroke-width="1" fill="#999999" stroke="#999999"><path fill="none" d="M0 90L340 90"/><path fill="none" d="M0 100L340 100"/><path fill="none" d="M0 110L340 110"/><path fill="none" d="M0 120L340 120"/><path fill="none" d="M0 130L340 130"/></g><g class="vf-stavebarline" id="vf-auto13878"><rect y="89.5" width="1" height="41" stroke="none"/></g><g class="vf-stavebarline" id="vf-auto13879"><rect x="340" y="89.5" width="1" height="41" stroke="none"/></g><g class="vf-stavenote" id="vf-auto13880"><g class="vf-notehead" id="vf-auto13886" pointer-events="bounding-box"><path stroke="none" d="M20.931 110.054C24.525 110.054,28.934 106.741,28.934 103.315C28.934 101.237,27.305 99.946,25.003 99.946C20.566 99.946,17 103.231,17 106.685C17 108.791,18.741 110.054,20.931 110.054"/></g></g><g class="vf-stavenote" id="vf-auto13888"><g class="vf-notehead" id="vf-auto13894" pointer-events="bounding-box"><path stroke="none" d="M62.362 130.054C65.957 130.054,70.365 126.741,70.365 123.315C70.365 121.237,68.737 119.946,66.434 119.946C61.997 119.946,58.431 123.231,58.431 126.685C58.431 128.791,60.172 130.054,62.362 130.054"/></g></g><g class="vf-stavenote" id="vf-auto13896"><g class="vf-notehead" id="vf-auto13902" pointer-events="bounding-box"><path stroke="none" d="M103.794 140.054C107.388 140.054,111.796 136.741,111.796 133.315C111.796 131.237,110.168 129.946,107.865 129.946C103.428 129.946,99.862 133.231,99.862 136.685C99.862 138.791,101.603 140.054,103.794 140.054"/></g></g><g class="vf-stavenote" id="vf-auto13904"><g class="vf-notehead" id="vf-auto13910" pointer-events="bounding-box"><path stroke="none" d="M145.225 90.054C148.819 90.054,153.227 86.741,153.227 83.315C153.227 81.237,151.599 79.946,149.296 79.946C144.86 79.946,141.293 83.231,141.293 86.685C141.293 88.791,143.034 90.054,145.225 90.054"/></g></g><g class="vf-stavenote" id="vf-auto13913"><g class="vf-notehead" id="vf-auto13919" pointer-events="bounding-box"><path stroke="none" d="M186.656 105.054C190.25 105.054,194.659 101.741,194.659 98.315C194.659 96.237,193.03 94.946,190.727 94.946C186.291 94.946,182.725 98.231,182.725 101.685C182.725 103.791,184.466 105.054,186.656 105.054"/></g></g><g class="vf-stavenote" id="vf-auto13921"><path stroke-width="1.4" fill="none" stroke="#444" d="M221.156 80L239.09 80"/><path stroke-width="1.4" fill="none" stroke="#444" d="M221.156 70L239.09 70"/><g class="vf-notehead" id="vf-auto13927" pointer-events="bounding-box"><path stroke="none" d="M228.087 70.054C231.681 70.054,236.09 66.741,236.09 63.315C236.09 61.237,234.461 59.946,232.159 59.946C227.722 59.946,224.156 63.231,224.156 66.685C224.156 68.791,225.897 70.054,228.087 70.054"/></g></g><g class="vf-stavenote" id="vf-auto13929"><path stroke-width="1.4" fill="none" stroke="#444" d="M262.587 80L280.521 80"/><path stroke-width="1.4" fill="none" stroke="#444" d="M262.587 70L280.521 70"/><g class="vf-notehead" id="vf-auto13935" pointer-events="bounding-box"><path stroke="none" d="M269.518 70.054C273.112 70.054,277.521 66.741,277.521 63.315C277.521 61.237,275.892 59.946,273.59 59.946C269.153 59.946,265.587 63.231,265.587 66.685C265.587 68.791,267.328 70.054,269.518 70.054"/></g></g><g class="vf-stavenote" id="vf-auto13937"><g class="vf-notehead" id="vf-auto13943" pointer-events="bounding-box"><path stroke="none" d="M310.949 90.054C314.544 90.054,318.952 86.741,318.952 83.315C318.952 81.237,317.323 79.946,315.021 79.946C310.584 79.946,307.018 83.231,307.018 86.685C307.018 88.791,308.759 90.054,310.949 90.054"/></g></g><g class="vf-stem" id="vf-auto13881" pointer-events="bounding-box"><path stroke-width="1.5" fill="none" d="M28.184 103L28.184 69.394"/></g><g class="vf-stem" id="vf-auto13889" pointer-events="bounding-box"><path stroke-width="1.5" fill="none" d="M69.615 123L69.615 63.179"/></g><g class="vf-stem" id="vf-auto13897" pointer-events="bounding-box"><path stroke-width="1.5" fill="none" d="M111.046 133L111.046 56.965"/></g><g class="vf-stem" id="vf-auto13905" pointer-events="bounding-box"><path stroke-width="1.5" fill="none" d="M152.477 83L152.477 50.75"/></g><g class="vf-beam" id="vf-auto13912"><path stroke="none" d="M27.434 68.757L27.434 73.757L152.727 55.113L152.727 50.113Z"/></g><g class="vf-stem" id="vf-auto13914" pointer-events="bounding-box"><path stroke-width="1.5" fill="none" d="M183.475 102L183.475 134.787"/></g><g class="vf-stem" id="vf-auto13922" pointer-events="bounding-box"><path stroke-width="1.5" fill="none" d="M224.906 67L224.906 129.608"/></g><g class="vf-stem" id="vf-auto13930" pointer-events="bounding-box"><path stroke-width="1.5" fill="none" d="M266.337 67L266.337 124.429"/></g><g class="vf-stem" id="vf-auto13938" pointer-events="bounding-box"><path stroke-width="1.5" fill="none" d="M307.768 87L307.768 119.25"/></g><g class="vf-beam" id="vf-auto13945"><path stroke="none" d="M182.725 135.63L182.725 130.63L308.018 115.094L308.018 120.094Z"/></g><path stroke-width="1" fill="none" d="M18.934 135C52.024 155,118.204 165,151.293 115C118.204 167,52.024 157,18.934 135"/><path stroke="none" d="M18.934 135C52.024 155,118.204 165,151.293 115C118.204 167,52.024 157,18.934 135Z"/><path stroke-width="1" fill="none" d="M194.659 90C222.748 40,278.928 25,307.018 75C278.928 23,222.748 38,194.659 90"/><path stroke="none" d="M194.659 90C222.748 40,278.928 25,307.018 75C278.928 23,222.748 38,194.659 90Z"/></svg>