<svg xmlns="http://www.w3.org/2000/svg" stroke-width="0.3" stroke-dasharray="none" fill="black" stroke="black" font-family="Arial, sans-serif" font-size="10pt" font-weight="normal" font-style="normal" width="350" height="140" viewBox="0 0 350 140" style="width: 350px; height: 140px; border: none;"><g class="vf-stave" id="vf-auto3908" stroke-width="1" fill="#999999" stroke="#999999"><path fill="none" d="M0 60L340 60"/><path fill="none" d="M0 70L340 70"/><path fill="none" d="M0 80L340 80"/><path fill="none" d="M0 90L340 90"/><path fill="none" d="M0 100L340 100"/></g><g class="vf-stavebarline" id="vf-auto3909"><rect y="59.5" width="1" height="41" stroke="none"/></g><g class="vf-stavebarline" id="vf-auto3910"><rect x="340" y="59.5" width="1" height="41" stroke="none"/></g><g class="vf-stavenote" id="vf-auto3911"><g class="vf-notehead" id="vf-auto3917" pointer-events="bounding-box"><path stroke="none" d="M20.931 65.054C24.525 65.054,28.934 61.741,28.934 58.315C28.934 56.237,27.305 54.946,25.003 54.946C20.566 54.946,17 58.231,17 61.685C17 63.791,18.741 65.054,20.931 65.054"/></g></g><g class="vf-stavenote" id="vf-auto3919"><g class="vf-notehead" id="vf-auto3925" pointer-events="bounding-box"><path stroke="none" d="M56.167 75.054C59.761 75.054,64.169 71.741,64.169 68.315C64.169 66.237,62.541 64.946,60.238 64.946C55.802 64.946,52.235 68.231,52.235 71.685C52.235 73.791,53.976 75.054,56.167 75.054"/></g></g><g class="vf-stavenote" id="vf-auto3927"><g class="vf-notehead" id="vf-auto3933" pointer-events="bounding-box"><path stroke="none" d="M77.771 80.054C81.365 80.054,85.774 76.741,85.774 73.315C85.774 71.237,84.145 69.946,81.842 69.946C77.406 69.946,73.84 73.231,73.84 76.685C73.84 78.791,75.58 80.054,77.771 80.054"/></g></g><g class="vf-stavenote" id="vf-auto3935"><g class="vf-notehead" id="vf-auto3941" pointer-events="bounding-box"><path stroke="none" d="M99.375 80.054C102.969 80.054,107.378 76.741,107.378 73.315C107.378 71.237,105.749 69.946,103.446 69.946C99.01 69.946,95.444 73.231,95.444 76.685C95.444 78.791,97.185 80.054,99.375 80.054"/></g></g><g class="vf-stavenote" id="vf-auto3943"><g class="vf-notehead" id="vf-auto3949" pointer-events="bounding-box"><path stroke="none" d="M120.979 75.054C124.573 75.054,128.982 71.741,128.982 68.315C128.982 66.237,127.353 64.946,125.051 64.946C120.614 64.946,117.048 68.231,117.048 71.685C117.048 73.791,118.789 75.054,120.979 75.054"/></g></g><g class="vf-stavenote" id="vf-auto3951"><g class="vf-notehead" id="vf-auto3957" pointer-events="bounding-box"><path stroke="none" d="M142.583 70.054C146.177 70.054,150.586 66.741,150.586 63.315C150.586 61.237,148.957 59.946,146.655 59.946C142.218 59.946,138.652 63.231,138.652 66.685C138.652 68.791,140.393 70.054,142.583 70.054"/></g></g><g class="vf-stavenote" id="vf-auto3959"><g class="vf-notehead" id="vf-auto3965" pointer-events="bounding-box"><path stroke="none" d="M177.818 65.054C181.413 65.054,185.821 61.741,185.821 58.315C185.821 56.237,184.193 54.946,181.89 54.946C177.453 54.946,173.887 58.231,173.887 61.685C173.887 63.791,175.628 65.054,177.818 65.054"/></g></g><g class="vf-stavenote" id="vf-auto3967"><g class="vf-notehead" id="vf-auto3973" pointer-events="bounding-box"><path stroke="none" d="M213.054 75.054C216.648 75.054,221.057 71.741,221.057 68.315C221.057 66.237,219.428 64.946,217.125 64.946C212.689 64.946,209.123 68.231,209.123 71.685C209.123 73.791,210.864 75.054,213.054 75.054"/></g></g><g class="vf-stavenote" id="vf-auto3975"><g class="vf-notehead" id="vf-auto3981" pointer-events="bounding-box"><path stroke="none" d="M234.658 80.054C238.252 80.054,242.661 76.741,242.661 73.315C242.661 71.237,241.032 69.946,238.73 69.946C234.293 69.946,230.727 73.231,230.727 76.685C230.727 78.791,232.468 80.054,234.658 80.054"/></g></g><g class="vf-stavenote" id="vf-auto3983"><g class="vf-notehead" id="vf-auto3989" pointer-events="bounding-box"><path stroke="none" d="M256.262 80.054C259.856 80.054,264.265 76.741,264.265 73.315C264.265 71.237,262.636 69.946,260.334 69.946C255.897 69.946,252.331 73.231,252.331 76.685C252.331 78.791,254.072 80.054,256.262 80.054"/></g></g><g class="vf-stavenote" id="vf-auto3991"><g class="vf-notehead" id="vf-auto3997" pointer-events="bounding-box"><path stroke="none" d="M277.866 75.054C281.46 75.054,285.869 71.741,285.869 68.315C285.869 66.237,284.24 64.946,281.938 64.946C277.501 64.946,273.935 68.231,273.935 71.685C273.935 73.791,275.676 75.054,277.866 75.054"/></g></g><g class="vf-stavenote" id="vf-auto3999"><g class="vf-notehead" id="vf-auto4005" pointer-events="bounding-box"><path stroke="none" d="M299.47 70.054C303.065 70.054,307.473 66.741,307.473 63.315C307.473 61.237,305.844 59.946,303.542 59.946C299.105 59.946,295.539 63.231,295.539 66.685C295.539 68.791,297.28 70.054,299.47 70.054"/></g></g><g class="vf-stavenote" id="vf-auto4008"><g class="vf-notehead" id="vf-auto4014" pointer-events="bounding-box"><path stroke="none" d="M20.931 100.054C24.525 100.054,28.934 96.741,28.934 93.315C28.934 91.237,27.305 89.946,25.003 89.946C20.566 89.946,17 93.231,17 96.685C17 98.791,18.741 100.054,20.931 100.054"/></g></g><g class="vf-stavenote" id="vf-auto4016"><g class="vf-notehead" id="vf-auto4022" pointer-events="bounding-box"><path stroke="none" d="M42.535 105.054C46.13 105.054,50.538 101.741,50.538 98.315C50.538 96.237,48.909 94.946,46.607 94.946C42.17 94.946,38.604 98.231,38.604 101.685C38.604 103.791,40.345 105.054,42.535 105.054"/></g></g><g class="vf-stavenote" id="vf-auto4024"><g class="vf-notehead" id="vf-auto4030" pointer-events="bounding-box"><path stroke="none" d="M77.771 110.054C81.365 110.054,85.774 106.741,85.774 103.315C85.774 101.237,84.145 99.946,81.842 99.946C77.406 99.946,73.84 103.231,73.84 106.685C73.84 108.791,75.58 110.054,77.771 110.054"/></g></g><g class="vf-stavenote" id="vf-auto4032"><path stroke-width="1.4" fill="none" stroke="#444" d="M92.444 110L110.378 110"/><g class="vf-notehead" id="vf-auto4038" pointer-events="bounding-box"><path stroke="none" d="M99.375 115.054C102.969 115.054,107.378 111.741,107.378 108.315C107.378 106.237,105.749 104.946,103.446 104.946C99.01 104.946,95.444 108.231,95.444 111.685C95.444 113.791,97.185 115.054,99.375 115.054"/></g></g><g class="vf-stavenote" id="vf-auto4040"><g class="vf-notehead" id="vf-auto4046" pointer-events="bounding-box"><path stroke="none" d="M120.979 110.054C124.573 110.054,128.982 106.741,128.982 103.315C128.982 101.237,127.353 99.946,125.051 99.946C120.614 99.946,117.048 103.231,117.048 106.685C117.048 108.791,118.789 110.054,120.979 110.054"/></g></g><g class="vf-stavenote" id="vf-auto4048"><g class="vf-notehead" id="vf-auto4054" pointer-events="bounding-box"><path stroke="none" d="M156.214 100.054C159.809 100.054,164.217 96.741,164.217 93.315C164.217 91.237,162.588 89.946,160.286 89.946C155.849 89.946,152.283 93.231,152.283 96.685C152.283 98.791,154.024 100.054,156.214 100.054"/></g></g><g class="vf-stavenote" id="vf-auto4056"><g class="vf-notehead" id="vf-auto4062" pointer-events="bounding-box"><path stroke="none" d="M177.818 100.054C181.413 100.054,185.821 96.741,185.821 93.315C185.821 91.237,184.193 89.946,181.89 89.946C177.453 89.946,173.887 93.231,173.887 96.685C173.887 98.791,175.628 100.054,177.818 100.054"/></g></g><g class="vf-stavenote" id="vf-auto4064"><g class="vf-notehead" id="vf-auto4070" pointer-events="bounding-box"><path stroke="none" d="M199.423 105.054C203.017 105.054,207.425 101.741,207.425 98.315C207.425 96.237,205.797 94.946,203.494 94.946C199.058 94.946,195.491 98.231,195.491 101.685C195.491 103.791,197.232 105.054,199.423 105.054"/></g></g><g class="vf-stavenote" id="vf-auto4072"><g class="vf-notehead" id="vf-auto4078" pointer-events="bounding-box"><path stroke="none" d="M234.658 110.054C238.252 110.054,242.661 106.741,242.661 103.315C242.661 101.237,241.032 99.946,238.73 99.946C234.293 99.946,230.727 103.231,230.727 106.685C230.727 108.791,232.468 110.054,234.658 110.054"/></g></g><g class="vf-stavenote" id="vf-auto4080"><path stroke-width="1.4" fill="none" stroke="#444" d="M249.331 110L267.265 110"/><g class="vf-notehead" id="vf-auto4086" pointer-events="bounding-box"><path stroke="none" d="M256.262 115.054C259.856 115.054,264.265 111.741,264.265 108.315C264.265 106.237,262.636 104.946,260.334 104.946C255.897 104.946,252.331 108.231,252.331 111.685C252.331 113.791,254.072 115.054,256.262 115.054"/></g></g><g class="vf-stavenote" id="vf-auto4088"><g class="vf-notehead" id="vf-auto4094" pointer-events="bounding-box"><path stroke="none" d="M277.866 110.054C281.46 110.054,285.869 106.741,285.869 103.315C285.869 101.237,284.24 99.946,281.938 99.946C277.501 99.946,273.935 103.231,273.935 106.685C273.935 108.791,275.676 110.054,277.866 110.054"/></g></g><g class="vf-stavenote" id="vf-auto4096"><g class="vf-notehead" id="vf-auto4102" pointer-events="bounding-box"><path stroke="none" d="M313.102 100.054C316.696 100.054,321.104 96.741,321.104 93.315C321.104 91.237,319.476 89.946,317.173 89.946C312.737 89.946,309.17 93.231,309.17 96.685C309.17 98.791,310.911 100.054,313.102 100.054"/></g></g><g class="vf-stem" id="vf-auto3912" pointer-events="bounding-box"><path stroke-width="1.5" fill="none" d="M28.184 58L28.184 25.75"/></g><g class="vf-stem" id="vf-auto3920" pointer-events="bounding-box"><path stroke-width="1.5" fill="none" d="M63.419 68L63.419 31.916"/></g><g class="vf-stem" id="vf-auto3928" pointer-events="bounding-box"><path stroke-width="1.5" fill="none" d="M85.024 73L85.024 35.697"/></g><g class="vf-stem" id="vf-auto3936" pointer-events="bounding-box"><path stroke-width="1.5" fill="none" d="M106.628 73L106.628 39.478"/></g><g class="vf-beam" id="vf-auto4105"><path stroke="none" d="M27.434 24.869L27.434 29.869L106.878 43.596L106.878 38.596Z"/><path stroke="none" d="M62.669 38.535L62.669 43.535L106.878 51.096L106.878 46.096Z"/></g><g class="vf-stem" id="vf-auto3944" pointer-events="bounding-box"><path stroke-width="1.5" fill="none" d="M128.232 68L128.232 25.75"/></g><g class="vf-stem" id="vf-auto3952" pointer-events="bounding-box"><path stroke-width="1.5" fill="none" d="M149.836 63L149.836 25.75"/></g><g class="vf-stem" id="vf-auto3960" pointer-events="bounding-box"><path stroke-width="1.5" fill="none" d="M185.071 58L185.071 25.75"/></g><g class="vf-stem" id="vf-auto3968" pointer-events="bounding-box"><path stroke-width="1.5" fill="none" d="M220.307 68L220.307 25.75"/></g><g class="vf-beam" id="vf-auto4106"><path stroke="none" d="M127.482 25L127.482 30L220.557 30L220.557 25Z"/><path stroke="none" d="M127.482 32.5L127.482 37.5L138.482 37.5L138.482 32.5Z"/><path stroke="none" d="M219.557 32.5L219.557 37.5L210.557 37.5L210.557 32.5Z"/></g><g class="vf-stem" id="vf-auto3976" pointer-events="bounding-box"><path stroke-width="1.5" fill="none" d="M241.911 73L241.911 40.472"/></g><g class="vf-stem" id="vf-auto3984" pointer-events="bounding-box"><path stroke-width="1.5" fill="none" d="M263.515 73L263.515 37.231"/></g><g class="vf-stem" id="vf-auto3992" pointer-events="bounding-box"><path stroke-width="1.5" fill="none" d="M285.119 68L285.119 33.991"/></g><g class="vf-stem" id="vf-auto4000" pointer-events="bounding-box"><path stroke-width="1.5" fill="none" d="M306.723 63L306.723 30.75"/></g><g class="vf-beam" id="vf-auto4107"><path stroke="none" d="M241.161 39.834L241.161 44.834L306.973 35.113L306.973 30.113Z"/><path stroke="none" d="M241.161 47.334L241.161 52.334L285.369 45.853L285.369 40.853Z"/></g><g class="vf-stem" id="vf-auto4009" pointer-events="bounding-box"><path stroke-width="1.5" fill="none" d="M17.75 97L17.75 130.522"/></g><g class="vf-stem" id="vf-auto4017" pointer-events="bounding-box"><path stroke-width="1.5" fill="none" d="M39.354 102L39.354 134.303"/></g><g class="vf-stem" id="vf-auto4025" pointer-events="bounding-box"><path stroke-width="1.5" fill="none" d="M74.59 107L74.59 140.469"/></g><g class="vf-stem" id="vf-auto4033" pointer-events="bounding-box"><path stroke-width="1.5" fill="none" d="M96.194 112L96.194 144.25"/></g><g class="vf-beam" id="vf-auto4108"><path stroke="none" d="M17 131.141L17 126.141L96.444 139.869L96.444 144.869Z"/><path stroke="none" d="M17 123.641L17 118.641L28 120.391L28 125.391Z"/><path stroke="none" d="M73.84 133.588L73.84 128.588L96.444 132.369L96.444 137.369Z"/></g><g class="vf-stem" id="vf-auto4041" pointer-events="bounding-box"><path stroke-width="1.5" fill="none" d="M117.798 107L117.798 139.25"/></g><g class="vf-stem" id="vf-auto4049" pointer-events="bounding-box"><path stroke-width="1.5" fill="none" d="M153.033 97L153.033 137.488"/></g><g class="vf-stem" id="vf-auto4057" pointer-events="bounding-box"><path stroke-width="1.5" fill="none" d="M174.637 97L174.637 136.408"/></g><g class="vf-stem" id="vf-auto4065" pointer-events="bounding-box"><path stroke-width="1.5" fill="none" d="M196.241 102L196.241 135.328"/></g><g class="vf-beam" id="vf-auto4109"><path stroke="none" d="M117.048 140.038L117.048 135.038L196.491 131.115L196.491 136.115Z"/><path stroke="none" d="M152.283 130.776L152.283 125.776L174.887 124.696L174.887 129.696Z"/></g><g class="vf-stem" id="vf-auto4073" pointer-events="bounding-box"><path stroke-width="1.5" fill="none" d="M231.477 107L231.477 145.87"/></g><g class="vf-stem" id="vf-auto4081" pointer-events="bounding-box"><path stroke-width="1.5" fill="none" d="M253.081 112L253.081 144.25"/></g><g class="vf-stem" id="vf-auto4089" pointer-events="bounding-box"><path stroke-width="1.5" fill="none" d="M274.685 107L274.685 142.63"/></g><g class="vf-stem" id="vf-auto4097" pointer-events="bounding-box"><path stroke-width="1.5" fill="none" d="M309.92 97L309.92 139.987"/></g><g class="vf-beam" id="vf-auto4110"><path stroke="none" d="M230.727 146.677L230.727 141.677L310.17 135.793L310.17 140.793Z"/><path stroke="none" d="M230.727 139.177L230.727 134.177L253.331 132.556L253.331 137.556Z"/><path stroke="none" d="M309.17 133.293L309.17 128.293L300.17 129.043L300.17 134.043Z"/></g></svg>