<svg xmlns="http://www.w3.org/2000/svg" stroke-width="0.3" stroke-dasharray="none" fill="black" stroke="black" font-family="Arial, sans-serif" font-size="10pt" font-weight="normal" font-style="normal" width="600" height="280" viewBox="0 0 600 280" style="width: 600px; height: 280px; border: none;"><g class="vf-stave" id="vf-auto35127" stroke-width="1" fill="#999999" stroke="#999999"><path fill="none" d="M10 50L660 50"/><path fill="none" d="M10 60L660 60"/><path fill="none" d="M10 70L660 70"/><path fill="none" d="M10 80L660 80"/><path fill="none" d="M10 90L660 90"/></g><g class="vf-stavebarline" id="vf-auto35128"><rect x="10" y="49.5" width="1" height="41" stroke="none"/></g><g class="vf-stavebarline" id="vf-auto35129"><rect x="660" y="49.5" width="1" height="41" stroke="none"/></g><g class="vf-clef" id="vf-auto35130"><path stroke="none" d="M24.262 75.766C28.64 75.121,31.497 72.541,33.524 68.831C34.837 66.366,35.137 63.716,35.183 60.721C35.183 60.237,35.114 59.477,34.999 58.74C34.469 54.5,31.658 52.335,27.902 52.335C27.649 52.335,27.349 52.335,27.073 52.358C23.594 52.657,20.507 53.924,18.018 56.413C16.935 57.519,15.852 58.601,15.392 60.168C15.276 60.652,15.207 61.136,15.207 61.551C15.207 63.048,15.991 64.246,17.58 64.984C17.696 65.007,17.765 65.076,17.857 65.099C18.341 65.375,18.825 65.513,19.285 65.513C19.954 65.513,20.576 65.237,21.175 64.753C22.488 63.67,23.087 62.357,23.087 60.859C23.087 60.329,23.018 59.8,22.903 59.27C22.857 59.062,22.834 58.878,22.834 58.671C22.834 57.772,23.364 57.15,24.423 57.081C24.677 57.035,24.93 57.035,25.161 57.035C26.75 57.035,28.202 57.519,29.377 58.671C30.852 60.122,31.681 62.011,32.142 64.108C32.211 64.338,32.211 64.615,32.211 64.799C32.211 65.583,31.957 66.228,31.52 66.942C30.852 68.025,30.068 68.946,29.008 69.753C26.935 71.32,24.562 71.965,22.073 71.965L19.908 71.965C18.548 71.965,17.212 71.919,15.899 71.504C15.392 71.343,15 71.734,15 72.218C15 72.31,15 72.402,15.023 72.495C15.138 72.863,15.23 73.232,15.392 73.577C15.806 74.43,16.152 75.259,17.327 75.49C18.779 75.789,20.184 75.951,21.636 75.951C22.488 75.951,23.364 75.881,24.262 75.766M38.455 57.38C38.985 57.403,39.607 57.288,39.883 56.781C40.321 56.044,40.736 55.353,40.736 54.454C40.736 54.224,40.713 53.97,40.644 53.694C40.39 52.657,39.607 53.141,39.077 52.864C38.685 52.657,38.593 53.187,38.432 53.464C37.787 54.431,37.948 55.583,37.671 56.643C37.556 57.012,37.717 57.403,38.224 57.403M37.395 65.974C38.593 65.928,39.653 64.338,39.653 62.91C39.653 61.919,39.077 62.08,38.616 61.919C38.132 61.712,37.994 62.127,37.787 62.426C37.188 63.279,37.188 64.315,36.865 65.237C36.727 65.606,36.865 65.974,37.326 65.974"/></g><g class="vf-stavenote" id="vf-auto35131"><g class="vf-notehead" id="vf-auto35136" pointer-events="bounding-box"><path stroke="none" d="M78.718 84.014C79.364 83.929,79.364 83.087,79.477 82.469L79.477 80.448C79.477 78.201,79.505 75.899,79.505 73.596C79.505 72.304,79.505 70.985,79.42 69.693C79.392 68.654,79.42 67.559,78.943 66.576C78.859 66.351,78.831 65.986,78.55 65.986L78.466 65.986C78.101 66.071,77.736 66.295,77.736 66.801C77.736 67.194,77.708 67.643,77.736 68.036C77.848 68.963,77.904 69.918,77.904 70.872C77.904 71.799,77.848 72.726,77.848 73.652C77.848 74.101,77.904 74.551,77.904 75C77.932 75.337,77.932 75.674,77.932 76.011L77.932 76.46C77.932 77.415,77.904 78.398,77.904 79.38C77.904 80.504,77.988 81.627,78.269 82.722C78.382 83.171,78.185 84.07,78.718 84.014M101.519 83.817C101.884 83.845,102.081 83.424,102.193 83.087C102.474 82.16,102.615 81.234,102.558 80.251C102.39 77.415,102.334 74.607,102.334 71.771C102.334 70.479,102.334 69.131,102.362 67.84C102.362 67.475,102.25 67.166,102.109 66.829C102.081 66.548,101.969 66.464,101.744 66.464C101.66 66.464,101.548 66.464,101.435 66.548C100.902 66.801,100.817 67.194,100.817 67.559C100.817 67.727,100.817 67.84,100.874 67.952C100.817 68.682,100.817 69.468,100.817 70.226L100.817 75.562C100.958 77.415,100.902 80.223,101.182 82.975C101.239 83.284,101.182 83.733,101.519 83.817M98.992 83.171C100.087 82.16,99.975 80.953,100.003 79.802C100.059 78.678,100.059 77.555,100.059 76.376C100.059 73.989,99.947 71.602,99.807 69.187C99.807 68.907,99.722 68.57,99.61 68.261C99.526 68.092,99.526 67.755,99.245 67.755C99.217 67.755,99.161 67.812,99.133 67.812C98.852 67.896,98.515 67.924,98.487 68.373C98.431 68.935,98.29 69.468,98.318 70.03C98.431 71.49,98.487 72.95,98.431 74.438L98.431 78.005C98.431 78.875,98.487 79.774,98.515 80.672C98.515 81.458,98.599 82.329,98.992 83.171M81.33 82.329C81.526 82.413,81.695 82.188,81.779 82.048C82.116 81.627,82.144 81.178,82.172 80.7C82.257 80.082,82.257 79.437,82.257 78.847C82.257 77.274,82.144 75.73,82.144 74.158C82.144 73.736,82.144 73.315,82.172 72.866L82.172 72.164C82.172 71.041,82.172 69.861,82.116 68.682C82.116 68.401,82.06 67.896,81.583 67.896L81.498 67.896C81.105 67.952,80.796 68.205,80.796 68.766C80.768 69.974,80.656 71.237,80.656 72.445C80.656 73.821,80.796 75.253,80.768 76.629C80.768 77.05,80.768 77.499,80.74 77.948C80.74 78.145,80.74 78.37,80.684 78.566C80.684 79.689,80.937 80.728,81.049 81.88C81.049 82.076,81.133 82.273,81.33 82.329M91.439 81.795C94.443 81.992,96.97 79.661,97.195 77.218L97.195 76.544C97.195 76.011,97.139 75.477,97.111 75C96.942 72.641,95.173 70.395,92.899 69.749C92 69.496,91.214 69.384,90.344 69.384C87.929 69.384,85.654 70.423,83.632 72.08C83.239 72.417,82.959 72.866,82.959 73.428C82.959 74.747,83.127 76.039,83.548 77.303C84.054 78.707,84.7 80.082,86.16 80.728C87.732 81.43,89.389 81.739,91.439 81.795M91.495 77.471C91.13 77.471,90.765 77.471,90.344 77.415C88.94 77.387,87.311 77.19,85.795 76.572C85.458 76.46,84.98 76.348,84.98 75.927C84.98 75.562,85.373 75.365,85.654 75.197C87.283 74.354,88.94 73.793,90.596 73.793C91.691 73.793,92.815 74.017,94.022 74.607C94.752 74.972,95.117 75.253,95.089 75.562C95.089 75.842,94.836 76.179,94.359 76.629C93.517 77.303,92.562 77.471,91.495 77.471"/></g><g class="vf-notehead" id="vf-auto35137" pointer-events="bounding-box"><path stroke="none" d="M78.718 74.014C79.364 73.929,79.364 73.087,79.477 72.469L79.477 70.448C79.477 68.201,79.505 65.899,79.505 63.596C79.505 62.304,79.505 60.985,79.42 59.693C79.392 58.654,79.42 57.559,78.943 56.576C78.859 56.351,78.831 55.986,78.55 55.986L78.466 55.986C78.101 56.071,77.736 56.295,77.736 56.801C77.736 57.194,77.708 57.643,77.736 58.036C77.848 58.963,77.904 59.918,77.904 60.872C77.904 61.799,77.848 62.726,77.848 63.652C77.848 64.101,77.904 64.551,77.904 65C77.932 65.337,77.932 65.674,77.932 66.011L77.932 66.46C77.932 67.415,77.904 68.398,77.904 69.38C77.904 70.504,77.988 71.627,78.269 72.722C78.382 73.171,78.185 74.07,78.718 74.014M101.519 73.817C101.884 73.845,102.081 73.424,102.193 73.087C102.474 72.16,102.615 71.234,102.558 70.251C102.39 67.415,102.334 64.607,102.334 61.771C102.334 60.479,102.334 59.131,102.362 57.84C102.362 57.475,102.25 57.166,102.109 56.829C102.081 56.548,101.969 56.464,101.744 56.464C101.66 56.464,101.548 56.464,101.435 56.548C100.902 56.801,100.817 57.194,100.817 57.559C100.817 57.727,100.817 57.84,100.874 57.952C100.817 58.682,100.817 59.468,100.817 60.226L100.817 65.562C100.958 67.415,100.902 70.223,101.182 72.975C101.239 73.284,101.182 73.733,101.519 73.817M98.992 73.171C100.087 72.16,99.975 70.953,100.003 69.802C100.059 68.678,100.059 67.555,100.059 66.376C100.059 63.989,99.947 61.602,99.807 59.187C99.807 58.907,99.722 58.57,99.61 58.261C99.526 58.092,99.526 57.755,99.245 57.755C99.217 57.755,99.161 57.812,99.133 57.812C98.852 57.896,98.515 57.924,98.487 58.373C98.431 58.935,98.29 59.468,98.318 60.03C98.431 61.49,98.487 62.95,98.431 64.438L98.431 68.005C98.431 68.875,98.487 69.774,98.515 70.672C98.515 71.458,98.599 72.329,98.992 73.171M81.33 72.329C81.526 72.413,81.695 72.188,81.779 72.048C82.116 71.627,82.144 71.178,82.172 70.7C82.257 70.082,82.257 69.437,82.257 68.847C82.257 67.274,82.144 65.73,82.144 64.158C82.144 63.736,82.144 63.315,82.172 62.866L82.172 62.164C82.172 61.041,82.172 59.861,82.116 58.682C82.116 58.401,82.06 57.896,81.583 57.896L81.498 57.896C81.105 57.952,80.796 58.205,80.796 58.766C80.768 59.974,80.656 61.237,80.656 62.445C80.656 63.821,80.796 65.253,80.768 66.629C80.768 67.05,80.768 67.499,80.74 67.948C80.74 68.145,80.74 68.37,80.684 68.566C80.684 69.689,80.937 70.728,81.049 71.88C81.049 72.076,81.133 72.273,81.33 72.329M91.439 71.795C94.443 71.992,96.97 69.661,97.195 67.218L97.195 66.544C97.195 66.011,97.139 65.477,97.111 65C96.942 62.641,95.173 60.395,92.899 59.749C92 59.496,91.214 59.384,90.344 59.384C87.929 59.384,85.654 60.423,83.632 62.08C83.239 62.417,82.959 62.866,82.959 63.428C82.959 64.747,83.127 66.039,83.548 67.303C84.054 68.707,84.7 70.082,86.16 70.728C87.732 71.43,89.389 71.739,91.439 71.795M91.495 67.471C91.13 67.471,90.765 67.471,90.344 67.415C88.94 67.387,87.311 67.19,85.795 66.572C85.458 66.46,84.98 66.348,84.98 65.927C84.98 65.562,85.373 65.365,85.654 65.197C87.283 64.354,88.94 63.793,90.596 63.793C91.691 63.793,92.815 64.017,94.022 64.607C94.752 64.972,95.117 65.253,95.089 65.562C95.089 65.842,94.836 66.179,94.359 66.629C93.517 67.303,92.562 67.471,91.495 67.471"/></g><g class="vf-notehead" id="vf-auto35138" pointer-events="bounding-box"><path stroke="none" d="M78.718 59.014C79.364 58.929,79.364 58.087,79.477 57.469L79.477 55.448C79.477 53.201,79.505 50.899,79.505 48.596C79.505 47.304,79.505 45.985,79.42 44.693C79.392 43.654,79.42 42.559,78.943 41.576C78.859 41.351,78.831 40.986,78.55 40.986L78.466 40.986C78.101 41.071,77.736 41.295,77.736 41.801C77.736 42.194,77.708 42.643,77.736 43.036C77.848 43.963,77.904 44.918,77.904 45.872C77.904 46.799,77.848 47.726,77.848 48.652C77.848 49.101,77.904 49.551,77.904 50C77.932 50.337,77.932 50.674,77.932 51.011L77.932 51.46C77.932 52.415,77.904 53.398,77.904 54.38C77.904 55.504,77.988 56.627,78.269 57.722C78.382 58.171,78.185 59.07,78.718 59.014M101.519 58.817C101.884 58.845,102.081 58.424,102.193 58.087C102.474 57.16,102.615 56.234,102.558 55.251C102.39 52.415,102.334 49.607,102.334 46.771C102.334 45.479,102.334 44.131,102.362 42.84C102.362 42.475,102.25 42.166,102.109 41.829C102.081 41.548,101.969 41.464,101.744 41.464C101.66 41.464,101.548 41.464,101.435 41.548C100.902 41.801,100.817 42.194,100.817 42.559C100.817 42.727,100.817 42.84,100.874 42.952C100.817 43.682,100.817 44.468,100.817 45.226L100.817 50.562C100.958 52.415,100.902 55.223,101.182 57.975C101.239 58.284,101.182 58.733,101.519 58.817M98.992 58.171C100.087 57.16,99.975 55.953,100.003 54.802C100.059 53.678,100.059 52.555,100.059 51.376C100.059 48.989,99.947 46.602,99.807 44.187C99.807 43.907,99.722 43.57,99.61 43.261C99.526 43.092,99.526 42.755,99.245 42.755C99.217 42.755,99.161 42.812,99.133 42.812C98.852 42.896,98.515 42.924,98.487 43.373C98.431 43.935,98.29 44.468,98.318 45.03C98.431 46.49,98.487 47.95,98.431 49.438L98.431 53.005C98.431 53.875,98.487 54.774,98.515 55.672C98.515 56.458,98.599 57.329,98.992 58.171M81.33 57.329C81.526 57.413,81.695 57.188,81.779 57.048C82.116 56.627,82.144 56.178,82.172 55.7C82.257 55.082,82.257 54.437,82.257 53.847C82.257 52.274,82.144 50.73,82.144 49.158C82.144 48.736,82.144 48.315,82.172 47.866L82.172 47.164C82.172 46.041,82.172 44.861,82.116 43.682C82.116 43.401,82.06 42.896,81.583 42.896L81.498 42.896C81.105 42.952,80.796 43.205,80.796 43.766C80.768 44.974,80.656 46.237,80.656 47.445C80.656 48.821,80.796 50.253,80.768 51.629C80.768 52.05,80.768 52.499,80.74 52.948C80.74 53.145,80.74 53.37,80.684 53.566C80.684 54.689,80.937 55.728,81.049 56.88C81.049 57.076,81.133 57.273,81.33 57.329M91.439 56.795C94.443 56.992,96.97 54.661,97.195 52.218L97.195 51.544C97.195 51.011,97.139 50.477,97.111 50C96.942 47.641,95.173 45.395,92.899 44.749C92 44.496,91.214 44.384,90.344 44.384C87.929 44.384,85.654 45.423,83.632 47.08C83.239 47.417,82.959 47.866,82.959 48.428C82.959 49.747,83.127 51.039,83.548 52.303C84.054 53.707,84.7 55.082,86.16 55.728C87.732 56.43,89.389 56.739,91.439 56.795M91.495 52.471C91.13 52.471,90.765 52.471,90.344 52.415C88.94 52.387,87.311 52.19,85.795 51.572C85.458 51.46,84.98 51.348,84.98 50.927C84.98 50.562,85.373 50.365,85.654 50.197C87.283 49.354,88.94 48.793,90.596 48.793C91.691 48.793,92.815 49.017,94.022 49.607C94.752 49.972,95.117 50.253,95.089 50.562C95.089 50.842,94.836 51.179,94.359 51.629C93.517 52.303,92.562 52.471,91.495 52.471"/></g></g><g class="vf-stavenote" id="vf-auto35139"><path stroke-width="1.4" fill="none" stroke="#444" d="M99.736 100L121.106 100"/><path stroke-width="1.4" fill="none" stroke="#444" d="M99.736 110L121.106 110"/><g class="vf-notehead" id="vf-auto35144" pointer-events="bounding-box"><path stroke="none" d="M118.095 108.877C117.983 114.24,113.041 117.273,108.998 117.525C107.79 117.61,106.751 116.964,105.6 116.543L104.477 116.065C103.353 115.532,102.736 114.661,102.736 113.566C102.736 113.229,102.764 112.92,102.904 112.555C103.662 110.253,104.673 108.006,106.161 106.041C107.509 104.272,109.728 103.317,111.918 103.317C113.883 103.317,115.849 104.047,117.169 105.563C118.011 106.49,118.152 107.641,118.095 108.877M109.7 113.005C111.019 112.864,112.311 112.471,113.518 111.769C114.024 111.488,114.389 111.123,114.698 110.646C114.866 110.393,114.95 110.168,114.95 109.916C114.95 109.607,114.754 109.326,114.333 109.101C113.294 108.624,112.367 107.95,111.188 107.95C110.907 107.95,110.654 107.978,110.373 108.062C108.548 108.512,107.144 109.438,106.133 110.983C106.021 111.179,105.853 111.404,105.853 111.629C105.853 111.825,105.965 111.994,106.246 112.106C107.341 112.499,108.408 113.005,109.7 113.005"/></g><g class="vf-notehead" id="vf-auto35145" pointer-events="bounding-box"><path stroke="none" d="M118.095 98.877C117.983 104.24,113.041 107.273,108.998 107.525C107.79 107.61,106.751 106.964,105.6 106.543L104.477 106.065C103.353 105.532,102.736 104.661,102.736 103.566C102.736 103.229,102.764 102.92,102.904 102.555C103.662 100.253,104.673 98.006,106.161 96.041C107.509 94.272,109.728 93.317,111.918 93.317C113.883 93.317,115.849 94.047,117.169 95.563C118.011 96.49,118.152 97.641,118.095 98.877M109.7 103.005C111.019 102.864,112.311 102.471,113.518 101.769C114.024 101.488,114.389 101.123,114.698 100.646C114.866 100.393,114.95 100.168,114.95 99.916C114.95 99.607,114.754 99.326,114.333 99.101C113.294 98.624,112.367 97.95,111.188 97.95C110.907 97.95,110.654 97.978,110.373 98.062C108.548 98.512,107.144 99.438,106.133 100.983C106.021 101.179,105.853 101.404,105.853 101.629C105.853 101.825,105.965 101.994,106.246 102.106C107.341 102.499,108.408 103.005,109.7 103.005"/></g><g class="vf-notehead" id="vf-auto35146" pointer-events="bounding-box"><path stroke="none" d="M118.095 83.877C117.983 89.24,113.041 92.273,108.998 92.525C107.79 92.61,106.751 91.964,105.6 91.543L104.477 91.065C103.353 90.532,102.736 89.661,102.736 88.566C102.736 88.229,102.764 87.92,102.904 87.555C103.662 85.253,104.673 83.006,106.161 81.041C107.509 79.272,109.728 78.317,111.918 78.317C113.883 78.317,115.849 79.047,117.169 80.563C118.011 81.49,118.152 82.641,118.095 83.877M109.7 88.005C111.019 87.864,112.311 87.471,113.518 86.769C114.024 86.488,114.389 86.123,114.698 85.646C114.866 85.393,114.95 85.168,114.95 84.916C114.95 84.607,114.754 84.326,114.333 84.101C113.294 83.624,112.367 82.95,111.188 82.95C110.907 82.95,110.654 82.978,110.373 83.062C108.548 83.512,107.144 84.438,106.133 85.983C106.021 86.179,105.853 86.404,105.853 86.629C105.853 86.825,105.965 86.994,106.246 87.106C107.341 87.499,108.408 88.005,109.7 88.005"/></g></g><g class="vf-stavenote" id="vf-auto35147"><g class="vf-stem" id="vf-auto35148" pointer-events="bounding-box"><path stroke-width="1.5" fill="none" d="M140.492 72.45L140.492 15"/></g><g class="vf-notehead" id="vf-auto35152" pointer-events="bounding-box"><path stroke="none" d="M141.214 73.428C141.158 78.229,137.03 82.048,132.425 82.048C131.751 82.048,131.049 81.964,130.375 81.795C128.943 81.43,128.297 80.391,127.988 78.959C127.82 78.229,127.736 77.555,127.736 76.909C127.736 72.332,131.302 69.384,135.71 68.008C135.851 67.952,136.075 67.924,136.272 67.924C138.238 67.924,141.242 70.226,141.242 72.81C141.242 73.006,141.242 73.231,141.214 73.428M133.717 77.864C135.43 77.274,137.311 76.348,138.94 74.832C138.968 74.803,139.024 74.635,139.024 74.523C139.024 74.382,138.968 74.27,138.94 74.242C138.21 73.512,137.648 72.529,136.469 72.36C136.3 72.332,136.16 72.332,135.935 72.332C134.194 72.332,132.818 73.456,131.386 74.242C130.488 74.747,129.477 75.814,129.673 76.741C129.87 77.752,131.33 77.555,132.257 77.752C132.622 77.836,132.959 77.836,133.717 77.864"/></g><g class="vf-notehead" id="vf-auto35153" pointer-events="bounding-box"><path stroke="none" d="M141.214 63.428C141.158 68.229,137.03 72.048,132.425 72.048C131.751 72.048,131.049 71.964,130.375 71.795C128.943 71.43,128.297 70.391,127.988 68.959C127.82 68.229,127.736 67.555,127.736 66.909C127.736 62.332,131.302 59.384,135.71 58.008C135.851 57.952,136.075 57.924,136.272 57.924C138.238 57.924,141.242 60.226,141.242 62.81C141.242 63.006,141.242 63.231,141.214 63.428M133.717 67.864C135.43 67.274,137.311 66.348,138.94 64.832C138.968 64.803,139.024 64.635,139.024 64.523C139.024 64.382,138.968 64.27,138.94 64.242C138.21 63.512,137.648 62.529,136.469 62.36C136.3 62.332,136.16 62.332,135.935 62.332C134.194 62.332,132.818 63.456,131.386 64.242C130.488 64.747,129.477 65.814,129.673 66.741C129.87 67.752,131.33 67.555,132.257 67.752C132.622 67.836,132.959 67.836,133.717 67.864"/></g><g class="vf-notehead" id="vf-auto35154" pointer-events="bounding-box"><path stroke="none" d="M141.214 48.428C141.158 53.229,137.03 57.048,132.425 57.048C131.751 57.048,131.049 56.964,130.375 56.795C128.943 56.43,128.297 55.391,127.988 53.959C127.82 53.229,127.736 52.555,127.736 51.909C127.736 47.332,131.302 44.384,135.71 43.008C135.851 42.952,136.075 42.924,136.272 42.924C138.238 42.924,141.242 45.226,141.242 47.81C141.242 48.006,141.242 48.231,141.214 48.428M133.717 52.864C135.43 52.274,137.311 51.348,138.94 49.832C138.968 49.803,139.024 49.635,139.024 49.523C139.024 49.382,138.968 49.27,138.94 49.242C138.21 48.512,137.648 47.529,136.469 47.36C136.3 47.332,136.16 47.332,135.935 47.332C134.194 47.332,132.818 48.456,131.386 49.242C130.488 49.747,129.477 50.814,129.673 51.741C129.87 52.752,131.33 52.555,132.257 52.752C132.622 52.836,132.959 52.836,133.717 52.864"/></g></g><g class="vf-stavenote" id="vf-auto35155"><path stroke-width="1.4" fill="none" stroke="#444" d="M149.736 100L169.244 100"/><path stroke-width="1.4" fill="none" stroke="#444" d="M149.736 110L169.244 110"/><g class="vf-stem" id="vf-auto35156" pointer-events="bounding-box"><path stroke-width="1.5" fill="none" d="M165.494 108L165.494 50"/></g><g class="vf-notehead" id="vf-auto35160" pointer-events="bounding-box"><path stroke="none" d="M155.881 116.543C156.161 116.599,156.414 116.627,156.695 116.627C160.57 116.627,166.354 111.348,166.242 107.08C166.13 106.041,166.158 104.609,164.052 103.766C163.462 103.485,162.816 103.373,162.114 103.373C157.79 103.373,153.101 108.343,152.764 111.657C152.764 111.909,152.736 112.134,152.736 112.387C152.736 114.409,153.634 116.037,155.881 116.543"/></g><g class="vf-notehead" id="vf-auto35161" pointer-events="bounding-box"><path stroke="none" d="M155.881 106.543C156.161 106.599,156.414 106.627,156.695 106.627C160.57 106.627,166.354 101.348,166.242 97.08C166.13 96.041,166.158 94.609,164.052 93.766C163.462 93.485,162.816 93.373,162.114 93.373C157.79 93.373,153.101 98.343,152.764 101.657C152.764 101.909,152.736 102.134,152.736 102.387C152.736 104.409,153.634 106.037,155.881 106.543"/></g><g class="vf-notehead" id="vf-auto35162" pointer-events="bounding-box"><path stroke="none" d="M155.881 91.543C156.161 91.599,156.414 91.627,156.695 91.627C160.57 91.627,166.354 86.348,166.242 82.08C166.13 81.041,166.158 79.609,164.052 78.766C163.462 78.485,162.816 78.373,162.114 78.373C157.79 78.373,153.101 83.343,152.764 86.657C152.764 86.909,152.736 87.134,152.736 87.387C152.736 89.409,153.634 91.037,155.881 91.543"/></g></g><g class="vf-stavenote" id="vf-auto35163"><g class="vf-stem" id="vf-auto35164" pointer-events="bounding-box"><path stroke-width="1.5" fill="none" d="M190.494 73L190.494 18"/></g><g class="vf-notehead" id="vf-auto35169" pointer-events="bounding-box"><path stroke="none" d="M180.881 81.543C181.161 81.599,181.414 81.627,181.695 81.627C185.57 81.627,191.354 76.348,191.242 72.08C191.13 71.041,191.158 69.609,189.052 68.766C188.462 68.485,187.816 68.373,187.114 68.373C182.79 68.373,178.101 73.343,177.764 76.657C177.764 76.909,177.736 77.134,177.736 77.387C177.736 79.409,178.634 81.037,180.881 81.543"/></g><g class="vf-notehead" id="vf-auto35170" pointer-events="bounding-box"><path stroke="none" d="M180.881 71.543C181.161 71.599,181.414 71.627,181.695 71.627C185.57 71.627,191.354 66.348,191.242 62.08C191.13 61.041,191.158 59.609,189.052 58.766C188.462 58.485,187.816 58.373,187.114 58.373C182.79 58.373,178.101 63.343,177.764 66.657C177.764 66.909,177.736 67.134,177.736 67.387C177.736 69.409,178.634 71.037,180.881 71.543"/></g><g class="vf-notehead" id="vf-auto35171" pointer-events="bounding-box"><path stroke="none" d="M180.881 56.543C181.161 56.599,181.414 56.627,181.695 56.627C185.57 56.627,191.354 51.348,191.242 47.08C191.13 46.041,191.158 44.609,189.052 43.766C188.462 43.485,187.816 43.373,187.114 43.373C182.79 43.373,178.101 48.343,177.764 51.657C177.764 51.909,177.736 52.134,177.736 52.387C177.736 54.409,178.634 56.037,180.881 56.543"/></g><path stroke="none" d="M197.185 45.882C198.196 44.73,199.179 43.523,199.6 42.063C200.105 40.49,200.302 38.918,200.302 37.345C200.302 36.278,200.218 35.239,200.049 34.2C199.572 30.747,198.477 27.602,196.286 24.85C195.332 23.642,194.405 22.379,193.422 21.171C192.299 19.711,191.597 18.391,191.569 16.51C191.569 16.145,191.485 15.555,191.485 15.106C191.485 14.376,191.204 13.674,190.923 13L190.727 13C189.912 13.365,189.744 14.011,189.744 14.769L189.744 17.044C189.744 20.16,190.558 22.996,192.439 25.496C193.226 26.422,193.956 27.433,194.714 28.36C196.651 30.662,198.112 33.246,198.392 36.334C198.449 36.896,198.645 37.458,198.645 37.991C198.645 38.272,198.589 38.553,198.477 38.806C198.084 39.676,197.662 40.631,196.932 41.22C196.286 41.754,196.146 42.344,196.146 42.989C196.146 43.326,196.174 43.691,196.202 44.056C196.258 44.59,196.455 45.095,196.483 45.629C196.539 45.966,196.651 46.106,196.792 46.106C196.904 46.106,197.016 46.022,197.185 45.882"/></g><g class="vf-stavenote" id="vf-auto35173"><path stroke-width="1.4" fill="none" stroke="#444" d="M199.736 100L219.244 100"/><path stroke-width="1.4" fill="none" stroke="#444" d="M199.736 110L219.244 110"/><g class="vf-stem" id="vf-auto35174" pointer-events="bounding-box"><path stroke-width="1.5" fill="none" d="M215.494 108L215.494 53"/></g><g class="vf-notehead" id="vf-auto35179" pointer-events="bounding-box"><path stroke="none" d="M205.881 116.543C206.161 116.599,206.414 116.627,206.695 116.627C210.57 116.627,216.354 111.348,216.242 107.08C216.13 106.041,216.158 104.609,214.052 103.766C213.462 103.485,212.816 103.373,212.114 103.373C207.79 103.373,203.101 108.343,202.764 111.657C202.764 111.909,202.736 112.134,202.736 112.387C202.736 114.409,203.634 116.037,205.881 116.543"/></g><g class="vf-notehead" id="vf-auto35180" pointer-events="bounding-box"><path stroke="none" d="M205.881 106.543C206.161 106.599,206.414 106.627,206.695 106.627C210.57 106.627,216.354 101.348,216.242 97.08C216.13 96.041,216.158 94.609,214.052 93.766C213.462 93.485,212.816 93.373,212.114 93.373C207.79 93.373,203.101 98.343,202.764 101.657C202.764 101.909,202.736 102.134,202.736 102.387C202.736 104.409,203.634 106.037,205.881 106.543"/></g><g class="vf-notehead" id="vf-auto35181" pointer-events="bounding-box"><path stroke="none" d="M205.881 91.543C206.161 91.599,206.414 91.627,206.695 91.627C210.57 91.627,216.354 86.348,216.242 82.08C216.13 81.041,216.158 79.609,214.052 78.766C213.462 78.485,212.816 78.373,212.114 78.373C207.79 78.373,203.101 83.343,202.764 86.657C202.764 86.909,202.736 87.134,202.736 87.387C202.736 89.409,203.634 91.037,205.881 91.543"/></g><path stroke="none" d="M226.397 81.106C226.622 81.191,226.79 80.966,226.959 80.797C227.155 80.545,227.267 80.264,227.408 79.955C227.773 78.944,227.857 77.877,227.801 76.642C227.773 76.192,227.773 75.631,227.689 75.013C227.857 73.721,227.998 72.43,227.969 71.054C227.998 70.211,227.857 69.228,227.801 68.246C227.632 66.28,227.127 64.427,226.397 62.602C225.133 59.457,222.718 57.182,220.36 54.88C219.237 53.784,218.057 52.717,217.439 51.201C217.102 50.387,217.131 49.488,216.85 48.674C216.766 48.449,216.766 48,216.4 48C216.372 48,216.316 48.028,216.232 48.028C215.867 48.168,215.502 48.281,215.502 48.899C215.502 49.207,215.558 49.544,215.558 49.909C215.305 49.938,215.109 50.022,215.025 50.218C214.912 50.499,214.772 50.78,214.772 51.061C214.744 51.65,214.744 52.156,214.744 52.774C214.744 55.076,215.081 57.351,215.727 59.513C216.878 63.641,219.124 67.122,221.988 70.267C224.572 73.16,226.257 76.473,226.228 80.517C226.228 80.713,226.116 80.994,226.397 81.106M226.341 70.913C225.751 69.594,224.965 68.302,224.038 67.122C222.213 64.736,220.051 62.63,218.815 59.794C218.254 58.502,217.608 57.266,217.159 55.89C217.692 56.761,218.338 57.631,219.124 58.39C220.641 59.934,222.297 61.422,223.673 63.135C225.498 65.438,226.537 68.021,226.341 70.913"/></g><g class="vf-stavenote" id="vf-auto35183"><g class="vf-stem" id="vf-auto35184" pointer-events="bounding-box"><path stroke-width="1.5" fill="none" d="M240.494 73L240.494 9"/></g><g class="vf-notehead" id="vf-auto35189" pointer-events="bounding-box"><path stroke="none" d="M230.881 81.543C231.161 81.599,231.414 81.627,231.695 81.627C235.57 81.627,241.354 76.348,241.242 72.08C241.13 71.041,241.158 69.609,239.052 68.766C238.462 68.485,237.816 68.373,237.114 68.373C232.79 68.373,228.101 73.343,227.764 76.657C227.764 76.909,227.736 77.134,227.736 77.387C227.736 79.409,228.634 81.037,230.881 81.543"/></g><g class="vf-notehead" id="vf-auto35190" pointer-events="bounding-box"><path stroke="none" d="M230.881 71.543C231.161 71.599,231.414 71.627,231.695 71.627C235.57 71.627,241.354 66.348,241.242 62.08C241.13 61.041,241.158 59.609,239.052 58.766C238.462 58.485,237.816 58.373,237.114 58.373C232.79 58.373,228.101 63.343,227.764 66.657C227.764 66.909,227.736 67.134,227.736 67.387C227.736 69.409,228.634 71.037,230.881 71.543"/></g><g class="vf-notehead" id="vf-auto35191" pointer-events="bounding-box"><path stroke="none" d="M230.881 56.543C231.161 56.599,231.414 56.627,231.695 56.627C235.57 56.627,241.354 51.348,241.242 47.08C241.13 46.041,241.158 44.609,239.052 43.766C238.462 43.485,237.816 43.373,237.114 43.373C232.79 43.373,228.101 48.343,227.764 51.657C227.764 51.909,227.736 52.134,227.736 52.387C227.736 54.409,228.634 56.037,230.881 56.543"/></g><path stroke="none" d="M248.814 47.342C249.207 47.454,249.403 46.977,249.6 46.64C249.684 46.528,249.74 46.359,249.824 46.247C250.33 44.506,250.611 42.765,250.583 41.052C250.583 39.03,250.19 37.008,249.319 34.987C249.122 34.594,249.01 34.144,249.01 33.667C249.01 33.414,249.01 33.133,249.094 32.881C249.291 32.038,249.403 31.224,249.403 30.438C249.403 30.073,249.375 29.651,249.319 29.258C249.235 28.528,248.954 27.77,248.954 27.04C248.954 26.787,248.954 26.591,249.038 26.338C249.375 25.299,249.516 24.288,249.488 23.39C249.516 18.953,247.831 14.572,243.984 12.242C242.496 11.343,241.148 10.136,241.232 8.058C241.232 7.861,241.092 7.609,241.007 7.468C240.867 7.3,240.867 6.935,240.67 6.963L240.586 6.963C240.362 7.047,239.996 7.131,239.912 7.552C239.828 8.226,239.716 8.928,239.744 9.63C239.856 11.175,239.744 12.635,239.744 14.207C239.744 14.685,239.772 15.218,239.744 15.752C239.744 17.409,239.912 19.065,239.856 20.75C239.856 22.463,239.94 24.148,239.94 25.804C239.94 27.686,240.362 29.427,241.597 30.915C242.383 31.842,243.31 32.572,244.18 33.33C246.651 35.492,248.027 38.244,248.673 41.389C248.757 41.67,248.757 41.979,248.757 42.316C248.757 43.326,248.505 44.337,248.505 45.348C248.505 45.713,248.561 46.106,248.645 46.471C248.729 46.752,248.477 47.258,248.814 47.342M247.747 23.558C246.736 21.115,244.602 19.88,243.141 18.054C242.664 17.437,242.327 16.791,242.299 15.948C244.826 17.044,247.831 20.554,247.831 22.94C247.831 23.193,247.803 23.39,247.747 23.558M247.466 31.449C246.09 29.539,244.321 28.36,242.861 26.815C241.934 25.804,241.597 24.737,241.569 23.558C241.569 23.109,241.653 22.575,241.737 22.07C244.349 24.737,247.185 27.152,247.466 31.449"/></g><g class="vf-stavenote" id="vf-auto35193"><path stroke-width="1.4" fill="none" stroke="#444" d="M249.736 100L269.242 100"/><path stroke-width="1.4" fill="none" stroke="#444" d="M249.736 110L269.242 110"/><g class="vf-stem" id="vf-auto35194" pointer-events="bounding-box"><path stroke-width="1.5" fill="none" d="M253.486 87.65L253.486 145"/></g><g class="vf-notehead" id="vf-auto35200" pointer-events="bounding-box"><path stroke="none" d="M266.214 108.428C266.158 113.229,262.03 117.048,257.425 117.048C256.751 117.048,256.049 116.964,255.375 116.795C253.943 116.43,253.297 115.391,252.988 113.959C252.82 113.229,252.736 112.555,252.736 111.909C252.736 107.332,256.302 104.384,260.71 103.008C260.851 102.952,261.075 102.924,261.272 102.924C263.238 102.924,266.242 105.226,266.242 107.81C266.242 108.006,266.242 108.231,266.214 108.428M258.717 112.864C260.43 112.274,262.311 111.348,263.94 109.832C263.968 109.803,264.024 109.635,264.024 109.523C264.024 109.382,263.968 109.27,263.94 109.242C263.21 108.512,262.648 107.529,261.469 107.36C261.3 107.332,261.16 107.332,260.935 107.332C259.194 107.332,257.818 108.456,256.386 109.242C255.488 109.747,254.477 110.814,254.673 111.741C254.87 112.752,256.33 112.555,257.257 112.752C257.622 112.836,257.959 112.836,258.717 112.864"/></g><g class="vf-notehead" id="vf-auto35199" pointer-events="bounding-box"><path stroke="none" d="M266.214 98.428C266.158 103.229,262.03 107.048,257.425 107.048C256.751 107.048,256.049 106.964,255.375 106.795C253.943 106.43,253.297 105.391,252.988 103.959C252.82 103.229,252.736 102.555,252.736 101.909C252.736 97.332,256.302 94.384,260.71 93.008C260.851 92.952,261.075 92.924,261.272 92.924C263.238 92.924,266.242 95.226,266.242 97.81C266.242 98.006,266.242 98.231,266.214 98.428M258.717 102.864C260.43 102.274,262.311 101.348,263.94 99.832C263.968 99.803,264.024 99.635,264.024 99.523C264.024 99.382,263.968 99.27,263.94 99.242C263.21 98.512,262.648 97.529,261.469 97.36C261.3 97.332,261.16 97.332,260.935 97.332C259.194 97.332,257.818 98.456,256.386 99.242C255.488 99.747,254.477 100.814,254.673 101.741C254.87 102.752,256.33 102.555,257.257 102.752C257.622 102.836,257.959 102.836,258.717 102.864"/></g><g class="vf-notehead" id="vf-auto35198" pointer-events="bounding-box"><path stroke="none" d="M266.214 83.428C266.158 88.229,262.03 92.048,257.425 92.048C256.751 92.048,256.049 91.964,255.375 91.795C253.943 91.43,253.297 90.391,252.988 88.959C252.82 88.229,252.736 87.555,252.736 86.909C252.736 82.332,256.302 79.384,260.71 78.008C260.851 77.952,261.075 77.924,261.272 77.924C263.238 77.924,266.242 80.226,266.242 82.81C266.242 83.006,266.242 83.231,266.214 83.428M258.717 87.864C260.43 87.274,262.311 86.348,263.94 84.832C263.968 84.803,264.024 84.635,264.024 84.523C264.024 84.382,263.968 84.27,263.94 84.242C263.21 83.512,262.648 82.529,261.469 82.36C261.3 82.332,261.16 82.332,260.935 82.332C259.194 82.332,257.818 83.456,256.386 84.242C255.488 84.747,254.477 85.814,254.673 86.741C254.87 87.752,256.33 87.555,257.257 87.752C257.622 87.836,257.959 87.836,258.717 87.864"/></g></g><g class="vf-stavenote" id="vf-auto35201"><path stroke-width="1.4" fill="none" stroke="#444" d="M274.736 100L294.244 100"/><path stroke-width="1.4" fill="none" stroke="#444" d="M274.736 110L294.244 110"/><g class="vf-stem" id="vf-auto35202" pointer-events="bounding-box"><path stroke-width="1.5" fill="none" d="M278.486 87L278.486 145"/></g><g class="vf-notehead" id="vf-auto35208" pointer-events="bounding-box"><path stroke="none" d="M280.881 116.543C281.161 116.599,281.414 116.627,281.695 116.627C285.57 116.627,291.354 111.348,291.242 107.08C291.13 106.041,291.158 104.609,289.052 103.766C288.462 103.485,287.816 103.373,287.114 103.373C282.79 103.373,278.101 108.343,277.764 111.657C277.764 111.909,277.736 112.134,277.736 112.387C277.736 114.409,278.634 116.037,280.881 116.543"/></g><g class="vf-notehead" id="vf-auto35207" pointer-events="bounding-box"><path stroke="none" d="M280.881 106.543C281.161 106.599,281.414 106.627,281.695 106.627C285.57 106.627,291.354 101.348,291.242 97.08C291.13 96.041,291.158 94.609,289.052 93.766C288.462 93.485,287.816 93.373,287.114 93.373C282.79 93.373,278.101 98.343,277.764 101.657C277.764 101.909,277.736 102.134,277.736 102.387C277.736 104.409,278.634 106.037,280.881 106.543"/></g><g class="vf-notehead" id="vf-auto35206" pointer-events="bounding-box"><path stroke="none" d="M280.881 91.543C281.161 91.599,281.414 91.627,281.695 91.627C285.57 91.627,291.354 86.348,291.242 82.08C291.13 81.041,291.158 79.609,289.052 78.766C288.462 78.485,287.816 78.373,287.114 78.373C282.79 78.373,278.101 83.343,277.764 86.657C277.764 86.909,277.736 87.134,277.736 87.387C277.736 89.409,278.634 91.037,280.881 91.543"/></g></g><g class="vf-stavenote" id="vf-auto35209"><path stroke-width="1.4" fill="none" stroke="#444" d="M299.736 100L319.244 100"/><path stroke-width="1.4" fill="none" stroke="#444" d="M299.736 110L319.244 110"/><g class="vf-stem" id="vf-auto35210" pointer-events="bounding-box"><path stroke-width="1.5" fill="none" d="M303.486 87L303.486 142"/></g><g class="vf-notehead" id="vf-auto35217" pointer-events="bounding-box"><path stroke="none" d="M305.881 116.543C306.161 116.599,306.414 116.627,306.695 116.627C310.57 116.627,316.354 111.348,316.242 107.08C316.13 106.041,316.158 104.609,314.052 103.766C313.462 103.485,312.816 103.373,312.114 103.373C307.79 103.373,303.101 108.343,302.764 111.657C302.764 111.909,302.736 112.134,302.736 112.387C302.736 114.409,303.634 116.037,305.881 116.543"/></g><g class="vf-notehead" id="vf-auto35216" pointer-events="bounding-box"><path stroke="none" d="M305.881 106.543C306.161 106.599,306.414 106.627,306.695 106.627C310.57 106.627,316.354 101.348,316.242 97.08C316.13 96.041,316.158 94.609,314.052 93.766C313.462 93.485,312.816 93.373,312.114 93.373C307.79 93.373,303.101 98.343,302.764 101.657C302.764 101.909,302.736 102.134,302.736 102.387C302.736 104.409,303.634 106.037,305.881 106.543"/></g><g class="vf-notehead" id="vf-auto35215" pointer-events="bounding-box"><path stroke="none" d="M305.881 91.543C306.161 91.599,306.414 91.627,306.695 91.627C310.57 91.627,316.354 86.348,316.242 82.08C316.13 81.041,316.158 79.609,314.052 78.766C313.462 78.485,312.816 78.373,312.114 78.373C307.79 78.373,303.101 83.343,302.764 86.657C302.764 86.909,302.736 87.134,302.736 87.387C302.736 89.409,303.634 91.037,305.881 91.543"/></g><path stroke="none" d="M310.177 114.118C310.008 113.978,309.896 113.894,309.784 113.894C309.643 113.894,309.531 114.034,309.475 114.371C309.447 114.905,309.25 115.41,309.194 115.944C309.166 116.309,309.138 116.674,309.138 117.011C309.138 117.656,309.278 118.246,309.924 118.78C310.654 119.369,311.075 120.324,311.469 121.194C311.581 121.447,311.637 121.728,311.637 122.009C311.637 122.542,311.44 123.104,311.384 123.666C311.104 126.754,309.643 129.338,307.706 131.64C306.948 132.567,306.218 133.578,305.431 134.504C303.55 137.004,302.736 139.84,302.736 142.956L302.736 145.231C302.736 145.989,302.904 146.635,303.718 147L303.915 147C304.196 146.326,304.477 145.624,304.477 144.894C304.477 144.445,304.392 144.08,304.392 143.715C304.42 141.861,305.291 140.289,306.414 138.829C307.397 137.621,308.324 136.358,309.278 135.15C311.469 132.398,312.564 129.253,313.041 125.8C313.21 124.761,313.294 123.722,313.294 122.655C313.294 121.082,313.097 119.51,312.592 117.937C312.171 116.477,311.188 115.27,310.177 114.118"/></g><g class="vf-stavenote" id="vf-auto35219"><path stroke-width="1.4" fill="none" stroke="#444" d="M324.736 100L344.244 100"/><path stroke-width="1.4" fill="none" stroke="#444" d="M324.736 110L344.244 110"/><g class="vf-stem" id="vf-auto35220" pointer-events="bounding-box"><path stroke-width="1.5" fill="none" d="M328.486 87L328.486 142"/></g><g class="vf-notehead" id="vf-auto35227" pointer-events="bounding-box"><path stroke="none" d="M330.881 116.543C331.161 116.599,331.414 116.627,331.695 116.627C335.57 116.627,341.354 111.348,341.242 107.08C341.13 106.041,341.158 104.609,339.052 103.766C338.462 103.485,337.816 103.373,337.114 103.373C332.79 103.373,328.101 108.343,327.764 111.657C327.764 111.909,327.736 112.134,327.736 112.387C327.736 114.409,328.634 116.037,330.881 116.543"/></g><g class="vf-notehead" id="vf-auto35226" pointer-events="bounding-box"><path stroke="none" d="M330.881 106.543C331.161 106.599,331.414 106.627,331.695 106.627C335.57 106.627,341.354 101.348,341.242 97.08C341.13 96.041,341.158 94.609,339.052 93.766C338.462 93.485,337.816 93.373,337.114 93.373C332.79 93.373,328.101 98.343,327.764 101.657C327.764 101.909,327.736 102.134,327.736 102.387C327.736 104.409,328.634 106.037,330.881 106.543"/></g><g class="vf-notehead" id="vf-auto35225" pointer-events="bounding-box"><path stroke="none" d="M330.881 91.543C331.161 91.599,331.414 91.627,331.695 91.627C335.57 91.627,341.354 86.348,341.242 82.08C341.13 81.041,341.158 79.609,339.052 78.766C338.462 78.485,337.816 78.373,337.114 78.373C332.79 78.373,328.101 83.343,327.764 86.657C327.764 86.909,327.736 87.134,327.736 87.387C327.736 89.409,328.634 91.037,330.881 91.543"/></g><path stroke="none" d="M329.392 147C329.757 147,329.757 146.551,329.842 146.326C330.122 145.512,330.094 144.613,330.431 143.799C331.049 142.283,332.228 141.216,333.352 140.12C335.71 137.818,338.125 135.543,339.389 132.398C340.119 130.573,340.624 128.72,340.793 126.754C340.849 125.772,340.989 124.789,340.961 123.946C340.989 122.57,340.849 121.279,340.681 119.987C340.765 119.369,340.765 118.808,340.793 118.358C340.849 117.123,340.765 116.056,340.4 115.045C340.259 114.736,340.147 114.455,339.95 114.203C339.838 114.09,339.67 113.894,339.473 113.894L339.389 113.894C339.22 113.978,339.192 114.034,339.192 114.174C339.192 114.287,339.22 114.399,339.22 114.483C339.248 118.527,337.564 121.84,334.98 124.733C332.116 127.878,329.87 131.359,328.718 135.487C328.073 137.649,327.736 139.924,327.736 142.226L327.736 144.529C327.736 145.006,327.904 146.354,328.55 146.803C328.662 146.888,329.364 147,329.392 147M330.151 139.11C330.6 137.734,331.246 136.498,331.807 135.206C333.043 132.37,335.205 130.264,337.03 127.878C337.957 126.698,338.743 125.406,339.333 124.087C339.333 124.311,339.389 124.564,339.389 124.789C339.389 127.4,338.322 129.787,336.665 131.865C335.289 133.578,333.632 135.066,332.116 136.61C331.33 137.369,330.684 138.239,330.151 139.11"/></g><g class="vf-stavenote" id="vf-auto35229"><path stroke-width="1.4" fill="none" stroke="#444" d="M349.736 100L369.244 100"/><path stroke-width="1.4" fill="none" stroke="#444" d="M349.736 110L369.244 110"/><g class="vf-stem" id="vf-auto35230" pointer-events="bounding-box"><path stroke-width="1.5" fill="none" d="M353.486 87L353.486 151"/></g><g class="vf-notehead" id="vf-auto35237" pointer-events="bounding-box"><path stroke="none" d="M355.881 116.543C356.161 116.599,356.414 116.627,356.695 116.627C360.57 116.627,366.354 111.348,366.242 107.08C366.13 106.041,366.158 104.609,364.052 103.766C363.462 103.485,362.816 103.373,362.114 103.373C357.79 103.373,353.101 108.343,352.764 111.657C352.764 111.909,352.736 112.134,352.736 112.387C352.736 114.409,353.634 116.037,355.881 116.543"/></g><g class="vf-notehead" id="vf-auto35236" pointer-events="bounding-box"><path stroke="none" d="M355.881 106.543C356.161 106.599,356.414 106.627,356.695 106.627C360.57 106.627,366.354 101.348,366.242 97.08C366.13 96.041,366.158 94.609,364.052 93.766C363.462 93.485,362.816 93.373,362.114 93.373C357.79 93.373,353.101 98.343,352.764 101.657C352.764 101.909,352.736 102.134,352.736 102.387C352.736 104.409,353.634 106.037,355.881 106.543"/></g><g class="vf-notehead" id="vf-auto35235" pointer-events="bounding-box"><path stroke="none" d="M355.881 91.543C356.161 91.599,356.414 91.627,356.695 91.627C360.57 91.627,366.354 86.348,366.242 82.08C366.13 81.041,366.158 79.609,364.052 78.766C363.462 78.485,362.816 78.373,362.114 78.373C357.79 78.373,353.101 83.343,352.764 86.657C352.764 86.909,352.736 87.134,352.736 87.387C352.736 89.409,353.634 91.037,355.881 91.543"/></g><path stroke="none" d="M361.806 113.472C361.469 113.557,361.721 114.034,361.637 114.315C361.553 114.68,361.497 115.101,361.497 115.466C361.497 116.477,361.749 117.488,361.749 118.499C361.749 118.808,361.749 119.145,361.665 119.425C361.019 122.57,359.643 125.322,357.172 127.456C356.302 128.243,355.375 128.973,354.589 129.899C353.353 131.388,352.932 133.128,352.932 134.982C352.932 136.638,352.848 138.351,352.848 140.036C352.904 141.749,352.455 143.153,352.708 144.81C352.736 145.343,352.736 146.101,352.736 146.607L352.736 151.156C352.736 151.886,352.82 152.588,352.904 153.262C352.988 153.683,353.353 153.739,353.578 153.823L353.662 153.823C353.859 153.88,353.859 153.515,353.999 153.346C354.084 153.178,354.224 152.953,354.224 152.728C354.14 150.678,355.488 149.471,356.976 148.572C360.823 146.242,362.508 141.861,362.479 137.425C362.508 136.526,362.367 135.515,362.03 134.476C361.946 134.224,361.946 134.027,361.946 133.774C361.946 133.044,362.227 132.286,362.311 131.556C362.367 131.163,362.395 130.742,362.395 130.377C362.395 129.562,362.283 128.776,362.086 127.906C362.002 127.681,362.002 127.4,362.002 127.147C362.002 126.67,362.114 126.221,362.311 125.8C363.181 123.778,363.575 121.756,363.575 119.734C363.603 118.05,363.322 116.309,362.816 114.568C362.732 114.455,362.676 114.287,362.592 114.174C362.395 113.838,362.199 113.36,361.806 113.472M360.458 129.366C360.177 133.662,357.341 136.077,354.729 138.744C354.645 138.239,354.561 137.706,354.561 137.256C354.589 136.077,354.926 134.982,355.853 133.971C357.313 132.455,359.082 131.275,360.458 129.366M360.738 137.256C360.795 137.425,360.823 137.621,360.823 137.874C360.823 140.261,357.818 143.771,355.291 144.866C355.319 143.995,355.656 143.35,356.133 142.76C357.594 140.935,359.728 139.671,360.738 137.256"/></g><g class="vf-stavenote" id="vf-auto35239"><g class="vf-notehead" id="vf-auto35242" pointer-events="bounding-box"><path stroke="none" d="M378.943 70C379.084 70,379.196 70,379.364 69.972C380.01 69.832,380.6 69.523,381.218 69.438C382.594 69.242,382.678 68.371,382.678 67.304C382.622 66.125,382.594 64.974,382.594 63.822C382.594 63.036,382.678 62.25,382.678 61.464C382.678 60.706,382.313 60.284,381.667 60.088C381.246 60.004,380.853 59.919,380.403 59.919C379.786 59.919,379.196 60.06,378.634 60.284C378.297 60.453,377.736 60.537,377.736 61.155C377.736 61.829,377.764 62.475,377.764 63.177L377.764 65.114L377.848 65.114L377.848 68.652C377.848 69.551,378.213 70,378.943 70"/></g></g><g class="vf-stavenote" id="vf-auto35243"><g class="vf-notehead" id="vf-auto35246" pointer-events="bounding-box"><path stroke="none" d="M412.732 64.858L412.732 64.802L420.763 64.802C421.83 64.802,422.869 64.072,422.925 63.229C422.925 62.92,422.953 62.583,422.953 62.303C422.953 61.685,422.925 61.123,422.701 60.562C422.504 60,422.223 59.719,421.605 59.523C421.381 59.438,421.184 59.438,420.96 59.438C420.538 59.438,420.173 59.523,419.724 59.523C414.894 59.523,410.093 59.523,405.319 59.466C404.673 59.438,404.112 59.663,403.55 59.803C403.073 59.888,402.988 60.168,402.988 60.477C402.988 60.73,403.016 60.983,403.016 61.207C403.016 61.629,402.82 62.022,402.764 62.359C402.736 64.128,402.932 64.858,404.87 64.858"/></g></g><g class="vf-stavenote" id="vf-auto35247"><g class="vf-notehead" id="vf-auto35250" pointer-events="bounding-box"><path stroke="none" d="M430.488 70L443.348 70C444.359 70,445.398 70,446.409 69.972C447.953 69.916,448.599 69.186,448.683 67.697C448.768 66.799,448.515 65.956,448.403 65.114C448.206 63.963,447.616 63.485,446.549 63.485C445.595 63.485,444.668 63.57,443.741 63.57C441.72 63.57,439.698 63.457,437.732 63.457L429.786 63.457C428.269 63.457,427.736 63.822,427.736 64.974C427.736 65.198,427.736 65.395,427.764 65.676C427.848 66.209,427.904 66.771,427.904 67.332C427.82 69.242,428.55 70,430.488 70"/></g></g><g class="vf-stavenote" id="vf-auto35251"><g class="vf-notehead" id="vf-auto35254" pointer-events="bounding-box"><path stroke="none" d="M456.541 85.019C456.843 84.843,456.793 84.49,456.868 84.188C456.868 84.036,456.793 83.91,456.768 83.759C456.465 82.474,456.138 81.239,455.86 79.979C455.81 79.828,455.81 79.677,455.81 79.576C455.81 78.341,456.717 76.854,457.75 76.426C458.002 76.275,458.204 76.376,458.481 76.451C459.64 76.829,460.245 77.812,460.9 78.719C461.077 78.971,461.329 79.299,461.631 79.299C461.707 79.299,461.732 79.299,461.808 79.248C462.135 79.097,462.286 78.77,462.286 78.467L462.236 78.19C462.11 77.358,461.959 76.502,461.404 75.846C460.321 74.536,459.741 72.948,459.01 71.462C458.91 71.235,458.834 71.058,458.834 70.907C458.834 70.655,458.985 70.428,459.237 70.176C459.892 69.496,460.573 68.866,461.001 68.034C461.404 67.379,461.656 66.699,461.656 66.018C461.656 65.54,461.556 65.061,461.228 64.557C460.144 62.742,459.01 60.953,458.103 59.038C457.498 57.728,456.717 56.493,455.634 55.51C455.382 55.258,455.054 54.93,454.701 54.93C454.55 54.93,454.399 54.981,454.222 55.082C453.87 55.308,453.718 55.586,453.718 55.838C453.718 56.14,453.87 56.417,454.071 56.72C455.205 58.181,455.886 59.87,456.969 61.331C457.297 61.734,457.448 62.012,457.448 62.264C457.448 62.591,457.171 62.843,456.591 63.221C455.81 63.65,455.029 64.078,454.298 64.632C453.945 64.884,453.744 65.162,453.744 65.464C453.744 65.64,453.819 65.817,453.895 66.018C454.248 66.85,454.726 67.606,455.23 68.362C456.037 69.496,456.768 70.731,457.347 71.991C457.095 72.218,456.868 72.142,456.667 72.167C454.197 72.495,452.559 74.36,452.736 76.577C452.988 79.223,453.97 81.693,455.155 84.036C455.306 84.339,455.482 84.616,455.86 84.742C456.062 84.818,456.213 85.07,456.39 85.07C456.44 85.07,456.516 85.07,456.541 85.019"/></g></g><g class="vf-stavenote" id="vf-auto35255"><g class="vf-notehead" id="vf-auto35258" pointer-events="bounding-box"><path stroke="none" d="M482.341 80.502C483.071 80.474,483.436 80.025,483.689 79.547C484.419 78.199,484.98 76.795,485.486 75.335C487.086 71.011,487.816 66.406,489.248 61.997C489.333 61.744,489.417 61.464,489.417 61.183L489.417 60.986C489.389 60.425,489.248 60.06,488.771 60.06C488.659 60.06,488.575 60.06,488.462 60.088C487.479 60.256,486.581 60.649,485.935 61.267C484.924 62.25,483.801 62.952,482.622 63.682C482.453 63.766,482.313 63.85,482.144 63.85C481.976 63.85,481.807 63.766,481.667 63.598C481.498 63.457,481.414 63.261,481.414 63.092C481.414 62.924,481.442 62.812,481.526 62.643C481.695 62.362,481.863 61.997,481.863 61.632C481.863 60.93,482.06 60.06,481.302 59.695C480.937 59.526,480.6 59.442,480.375 59.442C479.842 59.442,479.505 59.807,479.084 60.565C478.297 61.913,478.073 63.401,477.82 64.918C477.764 65.226,477.736 65.507,477.736 65.788C477.736 67.641,478.718 69.326,480.796 69.326C481.302 69.326,481.892 69.242,482.537 68.989C483.717 68.54,484.7 67.894,485.851 67.164C484.924 71.741,483.155 75.981,482.341 80.502"/></g></g><g class="vf-stavenote" id="vf-auto35259"><g class="vf-notehead" id="vf-auto35262" pointer-events="bounding-box"><path stroke="none" d="M508.604 83.226C508.969 83.394,509.363 83.141,509.643 82.861C510.57 81.934,511.16 80.783,511.356 79.491C511.497 78.452,511.637 77.357,511.834 76.346C512.564 72.64,513.575 69.017,514.754 65.479C515.231 63.963,516.214 62.727,516.214 61.071C516.214 60.706,516.13 60.425,515.849 60.256C515.681 60.172,515.484 60.144,515.231 60.144C514.866 60.144,514.501 60.256,514.192 60.537C514.108 60.565,514.052 60.621,514.024 60.649C512.395 61.744,510.991 63.12,508.998 63.963C509.166 63.457,509.334 63.092,509.363 62.727C509.419 62.559,509.419 62.39,509.419 62.25C509.419 61.52,509.082 60.621,508.689 60.509C508.52 60.453,508.324 60.425,508.155 60.425C507.116 60.425,505.656 61.099,505.151 61.885C504.589 62.84,504.392 63.907,504.392 64.946C504.392 67.866,505.319 69.242,507.116 69.242C507.762 69.242,508.464 69.017,509.363 68.708C510.345 68.343,511.104 67.697,512.227 67.164C511.497 68.624,511.216 70,510.851 71.376C510.486 72.78,509.334 73.005,508.239 73.426C507.987 73.566,507.678 73.566,507.678 73.201L507.678 73.117C507.706 72.471,507.341 72.022,507.144 71.488C506.695 70.197,505.572 70.449,504.673 70.253C503.943 70.084,503.55 70.758,503.213 71.348C502.848 72.05,502.736 72.78,502.736 73.566C502.736 74.128,502.764 74.689,502.904 75.223C503.213 77.357,503.775 78.256,505.038 78.256C505.6 78.256,506.33 78.115,507.228 77.75C507.818 77.525,508.436 77.273,508.885 76.795C508.998 76.627,509.166 76.458,509.363 76.458C509.447 76.458,509.475 76.458,509.559 76.515C509.7 76.908,509.447 77.329,509.334 77.722C508.913 79.379,508.408 81.092,508.408 82.804C508.408 82.973,508.436 83.141,508.604 83.226"/></g></g><g class="vf-stavenote" id="vf-auto35263"><g class="vf-notehead" id="vf-auto35266" pointer-events="bounding-box"><path stroke="none" d="M532.706 90.105C533.183 90.218,533.604 89.768,533.829 89.375C534.054 89.094,534.194 88.757,534.278 88.392C534.84 85.921,535.458 83.478,535.935 80.951C536.497 77.722,537.171 74.521,537.873 71.348C538.771 67.136,539.585 62.924,540.428 58.768C540.849 56.606,541.27 54.472,541.691 52.338C541.72 52.169,541.776 52.001,541.776 51.832C541.776 51.327,541.551 50.793,541.214 50.597C541.074 50.512,540.905 50.456,540.765 50.456C540.316 50.456,539.838 50.765,539.473 51.074L537.873 52.422C537.648 52.647,537.367 52.815,537.086 52.843C536.862 52.843,536.637 52.703,536.384 52.338C535.935 51.72,535.177 51.439,534.447 51.271C534.138 51.243,533.801 51.186,533.464 51.186C531.695 51.186,530.403 52.366,530.151 54.303C530.151 54.5,530.122 54.724,530.122 54.921C530.122 56.1,530.403 57.224,530.74 58.319C530.937 59.077,531.498 59.554,532.257 59.554C532.397 59.554,532.509 59.554,532.622 59.526C533.127 59.498,533.604 59.414,534.082 59.245C535.738 58.712,537.002 57.532,538.603 56.578C538.378 57.532,537.957 58.347,537.957 59.161C537.957 60.93,536.721 61.632,535.486 62.39C535.373 62.475,535.261 62.531,535.177 62.531C535.065 62.531,534.924 62.446,534.812 62.25C534.166 61.267,532.959 60.649,531.751 60.649C531.386 60.649,531.049 60.734,530.74 60.818C529.477 61.183,529.027 61.829,528.943 63.177C528.943 64.103,529.196 64.974,529.364 65.928C529.645 67.417,530.516 68.231,531.948 68.231C533.717 68.231,535.008 67.248,536.581 66.293C536.075 68.231,535.626 69.888,535.205 71.629C535.008 72.555,534.194 72.696,533.548 72.836C532.959 73.005,533.324 72.106,532.959 71.853C532.818 71.769,532.874 71.544,532.79 71.404C532.228 70.646,531.526 70.084,530.572 70.084C529.392 70.084,528.297 70.899,527.988 71.853C527.82 72.359,527.736 72.836,527.736 73.313C527.736 74.044,527.904 74.774,528.016 75.504C528.297 77.188,529.196 78.059,530.656 78.059C530.937 78.059,531.246 78.059,531.583 77.919C531.976 77.89,532.537 77.554,532.902 77.554C533.071 77.554,533.155 77.61,533.239 77.722C533.267 77.806,533.324 77.919,533.324 78.059C533.324 78.536,533.043 79.126,532.902 79.631C532.902 79.716,532.874 79.744,532.818 79.772C532.172 82.046,531.414 84.265,531.498 86.708C531.498 87.522,531.948 88.196,532.116 89.01C532.172 89.459,532.228 90.021,532.706 90.105"/></g></g><g class="vf-stavenote" id="vf-auto35267"><g class="vf-stem" id="vf-auto35268" pointer-events="bounding-box"><path stroke-width="1.5" fill="none" d="M565.492 67.45L565.492 35"/></g><g class="vf-notehead" id="vf-auto35270" pointer-events="bounding-box"><path stroke="none" d="M555.207 76.318C555.684 76.262,556.133 76.15,556.498 75.728C557.144 75.054,557.79 74.409,558.408 73.678L560.43 71.404C561.974 72.836,563.575 74.156,565.147 75.532C565.344 75.7,565.596 75.897,565.877 75.897L566.018 75.897C566.242 75.813,566.242 75.588,566.242 75.391L566.242 75.223C566.242 74.802,566.158 74.437,565.877 74.156C565.344 73.51,564.866 72.836,564.22 72.274C563.322 71.544,562.479 70.814,561.637 70.028C562.901 68.624,564.108 67.164,565.147 65.591C565.428 65.226,565.849 64.749,565.849 64.328C565.849 64.187,565.793 64.019,565.652 63.907C565.484 63.738,565.287 63.654,565.119 63.654C564.67 63.654,564.277 64.272,563.94 64.609C562.676 65.985,561.525 67.36,560.345 68.821C559.25 67.726,558.239 66.63,557.257 65.479C556.976 65.114,556.695 64.693,556.246 64.581C556.021 64.496,555.74 64.216,555.488 64.216C555.375 64.216,555.291 64.272,555.179 64.412C554.954 64.665,554.842 64.918,554.842 65.142C554.842 65.339,554.954 65.591,555.179 65.872C556.302 67.248,557.481 68.54,558.717 69.803C558.885 69.972,558.998 70.084,559.166 70.197C557.678 71.853,556.105 73.426,554.842 75.307C554.729 75.532,554.561 75.7,554.561 75.953C554.561 75.981,554.561 76.065,554.589 76.093C554.673 76.346,554.954 76.234,555.207 76.318"/></g></g></svg>