<svg xmlns="http://www.w3.org/2000/svg" stroke-width="0.3" stroke-dasharray="none" fill="black" stroke="black" font-family="Arial, sans-serif" font-size="10pt" font-weight="normal" font-style="normal" width="700" height="200" viewBox="0 0 700 200" style="width: 700px; height: 200px; border: none;"><g class="vf-stave" id="vf-auto10554" stroke-width="1" fill="#999999" stroke="#999999"><path fill="none" d="M10 50L592.37 50"/><path fill="none" d="M10 60L592.37 60"/><path fill="none" d="M10 70L592.37 70"/><path fill="none" d="M10 80L592.37 80"/><path fill="none" d="M10 90L592.37 90"/></g><g class="vf-stavebarline" id="vf-auto10555"/><g class="vf-stavebarline" id="vf-auto10556"><rect x="592.37" y="49.5" width="1" height="41" stroke="none"/></g><g class="vf-clef" id="vf-auto10557"><path stroke="none" d="M23.813 50.15C24.101 50.122,24.36 50.122,24.648 50.122C27.557 50.122,30.552 51.014,32.51 52.483C35.045 54.384,36.341 56.976,36.341 60.058C36.341 60.49,36.312 60.922,36.254 61.382C35.304 69.619,28.536 77.165,19.349 80.218C17.995 80.678,15.835 81.226,15.432 81.226C15.173 81.226,15 81.053,15 80.794C15 80.506,15.058 80.448,15.662 80.218C24.562 76.906,30.581 69.878,31.272 61.958C31.301 61.382,31.33 60.806,31.33 60.259C31.33 56.4,30.062 53.434,27.701 51.936C26.693 51.302,25.541 51.014,24.36 51.014C21.71 51.014,18.946 52.512,17.707 54.989C17.621 55.162,17.419 55.622,17.419 55.651C17.419 55.651,17.419 55.651,17.419 55.651C17.419 55.651,17.506 55.622,17.592 55.565C18.197 55.162,18.888 54.989,19.579 54.989C21.278 54.989,22.92 56.141,23.323 57.984C23.41 58.272,23.438 58.56,23.438 58.848C23.438 60.979,21.71 62.736,19.522 62.736C19.349 62.736,19.147 62.707,18.974 62.678C16.757 62.39,15.23 60.403,15.23 57.84L15.23 57.84C15.23 53.837,19.003 50.438,23.813 50.15M39.048 53.923C39.077 53.923,39.134 53.894,39.192 53.894C39.394 53.894,39.653 53.923,39.739 53.981C40.43 54.211,40.776 54.787,40.776 55.392C40.776 55.968,40.43 56.573,39.739 56.803C39.624 56.832,39.451 56.861,39.307 56.861C39.134 56.861,38.962 56.832,38.846 56.803C38.155 56.573,37.838 55.968,37.838 55.392C37.838 54.73,38.242 54.067,39.048 53.923M39.048 63.139C39.077 63.139,39.134 63.139,39.192 63.139C39.394 63.139,39.653 63.168,39.739 63.197C40.43 63.427,40.776 64.032,40.776 64.608C40.776 65.213,40.43 65.818,39.739 66.019C39.624 66.077,39.451 66.077,39.307 66.077C39.134 66.077,38.962 66.077,38.846 66.019C38.155 65.789,37.838 65.213,37.838 64.608C37.838 63.974,38.242 63.312,39.048 63.139"/></g><g class="vf-stavenote" id="vf-auto10453"><g class="vf-stem" id="vf-auto10454" pointer-events="bounding-box"><path stroke-width="1.5" fill="none" d="M78.881 73.5L78.881 40"/></g><g class="vf-notehead" id="vf-auto10456" pointer-events="bounding-box"><path stroke="none" d="M74.745 69.889C74.829 69.889,74.913 69.889,75.054 69.889C75.419 69.889,75.952 69.918,76.149 69.946C78.48 70.283,79.631 71.827,79.631 73.624C79.631 75.534,78.339 77.724,75.756 79.128C74.492 79.802,73.2 80.111,72.021 80.111C69.859 80.111,68.09 79.044,67.725 77.162C67.669 76.881,67.641 76.629,67.641 76.376C67.641 73.343,70.898 70.283,74.745 69.889"/><path stroke="none" d="M61.74 60.691C61.795 60.663,61.877 60.636,61.959 60.636C62.178 60.636,62.397 60.773,62.479 60.992C62.507 61.101,62.507 61.128,62.507 64.603C62.507 67.859,62.507 68.078,62.561 68.078C62.561 68.078,62.561 68.078,62.561 68.078C62.862 67.996,63.984 67.75,64.066 67.75C64.312 67.75,64.504 67.886,64.586 68.078C64.613 68.16,64.641 68.789,64.641 69.419C64.641 70.048,64.613 70.677,64.586 70.759C64.504 71.033,64.449 71.033,63.355 71.306L62.507 71.525L62.507 74.425C62.507 77.134,62.507 77.353,62.534 77.353C62.561 77.353,62.561 77.353,62.561 77.353C62.862 77.244,63.984 76.997,64.066 76.997C64.23 76.997,64.34 77.052,64.476 77.161C64.613 77.326,64.613 77.271,64.613 78.311C64.613 78.42,64.613 78.557,64.613 78.694C64.613 78.83,64.613 78.94,64.613 79.049C64.613 80.116,64.613 80.062,64.476 80.198C64.34 80.335,64.34 80.335,63.355 80.581L62.507 80.773L62.507 84.33C62.507 87.832,62.507 87.859,62.479 87.941C62.397 88.188,62.178 88.297,61.959 88.297C61.823 88.297,61.658 88.242,61.549 88.133C61.412 87.996,61.385 88.242,61.385 86.053C61.385 85.616,61.385 85.096,61.385 84.467C61.385 82.579,61.385 81.047,61.385 81.047C61.385 81.047,60.838 81.183,60.181 81.348C59.497 81.512,58.95 81.648,58.95 81.648C58.95 81.648,58.95 83.29,58.95 85.287C58.95 88.872,58.95 88.899,58.895 89.008C58.813 89.227,58.594 89.364,58.375 89.364C58.238 89.364,58.074 89.309,57.965 89.2C57.828 89.036,57.828 89.282,57.828 87.066C57.828 86.628,57.828 86.081,57.828 85.424C57.828 82.168,57.828 81.949,57.801 81.949C57.801 81.949,57.801 81.949,57.773 81.949C57.445 82.032,56.433 82.25,56.351 82.25C56.104 82.25,55.885 82.114,55.803 81.922C55.776 81.84,55.776 81.211,55.776 80.581C55.776 79.952,55.776 79.323,55.803 79.241C55.913 78.995,55.968 78.967,57.007 78.694L57.828 78.502L57.828 75.575C57.828 72.866,57.828 72.674,57.801 72.674C57.801 72.674,57.801 72.674,57.773 72.674C57.445 72.756,56.433 73.003,56.351 73.003C56.104 73.003,55.885 72.866,55.803 72.647C55.776 72.592,55.776 71.936,55.776 71.306C55.776 70.677,55.776 70.048,55.803 69.966C55.913 69.72,55.968 69.692,57.007 69.446L57.828 69.254L57.828 65.698C57.828 62.168,57.828 62.141,57.855 62.059C57.937 61.812,58.156 61.703,58.375 61.703C58.512 61.703,58.676 61.758,58.786 61.867C58.922 62.004,58.95 61.758,58.95 63.947C58.95 64.384,58.95 64.904,58.95 65.561C58.95 67.421,58.95 68.953,58.95 68.953C58.95 68.953,59.497 68.817,60.154 68.68C60.838 68.516,61.385 68.379,61.385 68.379C61.385 68.379,61.385 66.737,61.385 64.74C61.385 61.128,61.385 61.101,61.44 60.992C61.467 60.882,61.604 60.745,61.74 60.691M61.385 74.699C61.385 72.401,61.385 71.799,61.385 71.799L61.385 71.799C61.357 71.799,61.166 71.826,60.947 71.908C60.728 71.963,60.181 72.072,59.743 72.182L58.95 72.401L58.95 75.301C58.95 76.915,58.95 78.228,58.95 78.228C58.95 78.228,59.497 78.092,60.154 77.928C60.838 77.763,61.385 77.627,61.385 77.627C61.385 77.627,61.385 76.313,61.385 74.699"/></g></g><g class="vf-stavenote" id="vf-auto10459"><g class="vf-stem" id="vf-auto10460" pointer-events="bounding-box"><path stroke-width="1.5" fill="none" d="M109.16 73.5L109.16 40"/></g><g class="vf-notehead" id="vf-auto10462" pointer-events="bounding-box"><path stroke="none" d="M105.024 69.889C105.108 69.889,105.192 69.889,105.333 69.889C105.698 69.889,106.231 69.918,106.428 69.946C108.758 70.283,109.91 71.827,109.91 73.624C109.91 75.534,108.618 77.724,106.035 79.128C104.771 79.802,103.479 80.111,102.3 80.111C100.138 80.111,98.369 79.044,98.004 77.162C97.948 76.881,97.919 76.629,97.919 76.376C97.919 73.343,101.177 70.283,105.024 69.889"/><path stroke="none" d="M84.878 71.662L84.878 69.993L86.575 69.993L88.244 69.993L88.244 71.252L88.244 72.538L89.064 73.358L89.885 74.179L90.733 73.358L91.554 72.538L91.554 71.252L91.554 69.993L93.223 69.993L94.919 69.993L94.919 71.662L94.919 73.358L93.634 73.358L92.348 73.358L91.527 74.179L90.706 75L91.527 75.821L92.348 76.642L93.634 76.642L94.919 76.642L94.919 78.338L94.919 80.007L93.223 80.007L91.554 80.007L91.554 78.748L91.554 77.462L90.733 76.642L89.885 75.821L89.064 76.642L88.244 77.462L88.244 78.748L88.244 80.007L86.575 80.007L84.878 80.007L84.878 78.338L84.878 76.642L86.164 76.642L87.423 76.642L88.244 75.821L89.092 75L88.244 74.179L87.423 73.358L86.164 73.358L84.878 73.358"/></g></g><g class="vf-stavenote" id="vf-auto10465"><g class="vf-stem" id="vf-auto10466" pointer-events="bounding-box"><path stroke-width="1.5" fill="none" d="M139.438 73.5L139.438 40"/></g><g class="vf-notehead" id="vf-auto10468" pointer-events="bounding-box"><path stroke="none" d="M135.302 69.889C135.387 69.889,135.471 69.889,135.611 69.889C135.976 69.889,136.51 69.918,136.706 69.946C139.037 70.283,140.188 71.827,140.188 73.624C140.188 75.534,138.897 77.724,136.313 79.128C135.05 79.802,133.758 80.111,132.579 80.111C130.417 80.111,128.647 79.044,128.282 77.162C128.226 76.881,128.198 76.629,128.198 76.376C128.198 73.343,131.455 70.283,135.302 69.889"/><path stroke="none" d="M118.112 58.119C118.167 58.092,118.249 58.092,118.331 58.092C118.55 58.092,118.769 58.228,118.851 58.447C118.905 58.529,118.905 58.529,118.905 64.767L118.905 71.005L118.96 70.951C119.972 70.103,121.039 69.637,122.107 69.637C122.517 69.637,122.927 69.72,123.31 69.856C124.514 70.294,125.198 71.388,125.198 72.729C125.198 73.44,124.979 74.207,124.569 74.973C123.994 76.04,123.228 76.888,121.067 78.803C119.918 79.843,119.644 80.089,118.987 80.718C118.604 81.074,118.55 81.101,118.331 81.101C118.085 81.101,117.893 80.964,117.811 80.773L117.756 80.664L117.756 69.61L117.756 58.529L117.811 58.447C117.838 58.31,117.975 58.174,118.112 58.119M121.395 71.471C121.286 71.443,121.067 71.416,120.93 71.416C120.875 71.416,120.848 71.416,120.821 71.443C120.109 71.525,119.48 71.963,119.015 72.647L118.905 72.839L118.905 75.985L118.905 79.159L118.987 79.049C120.985 76.86,122.271 74.371,122.271 72.729C122.271 72.565,122.271 72.401,122.243 72.264C122.161 71.881,121.833 71.553,121.395 71.471"/></g></g><g class="vf-stavenote" id="vf-auto10471"><g class="vf-stem" id="vf-auto10472" pointer-events="bounding-box"><path stroke-width="1.5" fill="none" d="M171.191 73.5L171.191 40"/></g><g class="vf-notehead" id="vf-auto10474" pointer-events="bounding-box"><path stroke="none" d="M167.055 69.889C167.139 69.889,167.223 69.889,167.364 69.889C167.729 69.889,168.262 69.918,168.459 69.946C170.789 70.283,171.941 71.827,171.941 73.624C171.941 75.534,170.649 77.724,168.066 79.128C166.802 79.802,165.51 80.111,164.331 80.111C162.169 80.111,160.4 79.044,160.035 77.162C159.979 76.881,159.95 76.629,159.95 76.376C159.95 73.343,163.208 70.283,167.055 69.889"/><path stroke="none" d="M143.544 58.119C143.599 58.092,143.681 58.092,143.763 58.092C143.982 58.092,144.201 58.228,144.283 58.447C144.337 58.529,144.337 58.529,144.337 64.767L144.337 71.005L144.392 70.951C145.405 70.103,146.554 69.637,147.593 69.637C148.277 69.637,148.907 69.829,149.426 70.212L149.509 70.267L149.509 64.384L149.536 58.475L149.563 58.392C149.673 58.201,149.864 58.092,150.083 58.092C150.302 58.092,150.521 58.201,150.603 58.447C150.63 58.529,150.63 58.529,150.63 64.767L150.63 71.005L150.712 70.951C151.725 70.103,152.792 69.637,153.831 69.637C154.269 69.637,154.68 69.72,155.063 69.856C156.266 70.294,156.95 71.388,156.95 72.729C156.95 73.44,156.732 74.207,156.321 74.973C155.747 76.04,154.953 76.888,152.819 78.803C151.67 79.843,151.396 80.089,150.74 80.718C150.357 81.074,150.302 81.101,150.083 81.101C149.919 81.101,149.782 81.047,149.673 80.937C149.536 80.8,149.509 80.964,149.509 79.213C149.509 78.94,149.509 78.612,149.509 78.201L149.509 75.766L149.372 75.93C148.742 76.724,148.141 77.353,146.499 78.803C145.35 79.843,145.076 80.089,144.42 80.718C144.037 81.074,143.982 81.101,143.763 81.101C143.517 81.101,143.325 80.964,143.243 80.773L143.188 80.664L143.188 69.61L143.188 58.529L143.243 58.447C143.27 58.31,143.407 58.174,143.544 58.119M146.827 71.471C146.718 71.443,146.499 71.416,146.362 71.416C146.307 71.416,146.28 71.416,146.253 71.443C145.541 71.525,144.912 71.963,144.447 72.647L144.337 72.839L144.337 75.985L144.337 79.159L144.42 79.049C146.417 76.86,147.703 74.371,147.703 72.729C147.703 72.565,147.703 72.401,147.675 72.264C147.593 71.881,147.265 71.553,146.827 71.471M153.12 71.471C153.038 71.443,152.819 71.416,152.682 71.416C152.628 71.416,152.6 71.416,152.573 71.443C151.861 71.525,151.232 71.963,150.767 72.647L150.63 72.839L150.63 75.985L150.63 79.159L150.74 79.049C152.737 76.86,154.023 74.371,154.023 72.729C154.023 72.565,154.023 72.401,153.968 72.264C153.913 71.881,153.585 71.553,153.12 71.471"/></g></g><g class="vf-stavenote" id="vf-auto10477"><g class="vf-stem" id="vf-auto10478" pointer-events="bounding-box"><path stroke-width="1.5" fill="none" d="M201.469 73.5L201.469 40"/></g><g class="vf-notehead" id="vf-auto10480" pointer-events="bounding-box"><path stroke="none" d="M197.333 69.889C197.418 69.889,197.502 69.889,197.642 69.889C198.007 69.889,198.541 69.918,198.737 69.946C201.068 70.283,202.219 71.827,202.219 73.624C202.219 75.534,200.928 77.724,198.344 79.128C197.081 79.802,195.789 80.111,194.61 80.111C192.448 80.111,190.679 79.044,190.313 77.162C190.257 76.881,190.229 76.629,190.229 76.376C190.229 73.343,193.487 70.283,197.333 69.889"/><path stroke="none" d="M181.019 62.688C181.101 62.661,181.183 62.661,181.237 62.661C181.484 62.661,181.703 62.77,181.785 62.989C181.812 63.098,181.812 63.126,181.812 66.3C181.812 68.57,181.812 69.501,181.839 69.501C181.839 69.501,182.906 69.227,184.192 68.926C186.08 68.461,186.518 68.324,186.709 68.324C186.791 68.324,186.819 68.352,186.874 68.379C187.01 68.406,187.147 68.543,187.175 68.68L187.229 68.762L187.229 77.845L187.229 86.902L187.175 87.011C187.092 87.23,186.874 87.339,186.655 87.339C186.518 87.339,186.354 87.312,186.244 87.203C186.107 87.038,186.08 87.285,186.08 85.068C186.08 84.685,186.08 84.22,186.08 83.646C186.08 81.293,186.08 80.363,186.08 80.363C186.053 80.363,184.986 80.636,183.7 80.937C181.839 81.402,181.374 81.512,181.183 81.512C181.128 81.512,181.073 81.512,181.046 81.484C180.909 81.457,180.772 81.32,180.718 81.183L180.69 81.074L180.69 72.1L180.69 63.098L180.718 62.989C180.772 62.88,180.909 62.743,181.019 62.688M186.08 74.398C186.08 73.851,186.08 73.44,186.08 73.085C186.08 71.963,186.08 71.881,186.053 71.881L186.053 71.881C186.053 71.881,185.095 72.127,183.919 72.401L181.812 72.921L181.812 75.465C181.812 75.903,181.812 76.286,181.812 76.587C181.812 77.681,181.812 77.982,181.839 77.982C181.839 77.982,182.797 77.736,183.973 77.462L186.08 76.943"/></g></g><g class="vf-stavenote" id="vf-auto10483"><g class="vf-stem" id="vf-auto10484" pointer-events="bounding-box"><path stroke-width="1.5" fill="none" d="M231.748 73.5L231.748 40"/></g><g class="vf-notehead" id="vf-auto10486" pointer-events="bounding-box"><path stroke="none" d="M227.612 69.889C227.697 69.889,227.781 69.889,227.921 69.889C228.286 69.889,228.82 69.918,229.016 69.946C231.347 70.283,232.498 71.827,232.498 73.624C232.498 75.534,231.207 77.724,228.623 79.128C227.36 79.802,226.068 80.111,224.889 80.111C222.726 80.111,220.957 79.044,220.592 77.162C220.536 76.881,220.508 76.629,220.508 76.376C220.508 73.343,223.765 70.283,227.612 69.889"/></g></g><g class="vf-stavenote" id="vf-auto10487"><g class="vf-stem" id="vf-auto10488" pointer-events="bounding-box"><path stroke-width="1.5" fill="none" d="M269.632 73.5L269.632 40"/></g><g class="vf-notehead" id="vf-auto10490" pointer-events="bounding-box"><path stroke="none" d="M265.496 69.889C265.58 69.889,265.664 69.889,265.805 69.889C266.17 69.889,266.703 69.918,266.9 69.946C269.231 70.283,270.382 71.827,270.382 73.624C270.382 75.534,269.09 77.724,266.507 79.128C265.243 79.802,263.951 80.111,262.772 80.111C260.61 80.111,258.841 79.044,258.476 77.162C258.42 76.881,258.392 76.629,258.392 76.376C258.392 73.343,261.649 70.283,265.496 69.889"/><path stroke="none" d="M241.958 57.736C242.013 57.708,242.067 57.708,242.149 57.708C242.396 57.708,242.615 57.818,242.697 58.037C242.724 58.146,242.724 58.146,242.724 61.457C242.724 63.317,242.724 64.795,242.724 64.795C242.724 64.795,243.9 64.33,245.323 63.782L247.922 62.743L247.922 60.472C247.922 58.201,247.922 58.146,247.977 58.037C248.059 57.818,248.278 57.708,248.497 57.708C248.634 57.708,248.798 57.736,248.907 57.845C249.044 58.037,249.044 57.818,249.044 60.198L249.044 62.332L250.795 61.621C252.245 61.074,252.601 60.937,252.765 60.937C252.847 60.937,252.902 60.937,252.929 60.964C253.175 61.046,253.285 61.265,253.285 61.484C253.285 61.676,253.23 61.867,253.039 61.977C253.011 62.031,252.108 62.36,251.014 62.797L249.044 63.591L249.044 67.257L249.044 70.951L249.126 70.869C250.139 69.993,251.26 69.555,252.3 69.555C252.71 69.555,253.121 69.61,253.531 69.774C254.708 70.185,255.392 71.334,255.392 72.702C255.392 73.413,255.2 74.207,254.79 75C254.188 76.094,253.422 76.97,251.26 78.885L249.154 80.882C248.743 81.265,248.716 81.265,248.497 81.265C248.305 81.265,248.196 81.211,248.087 81.101C247.922 80.937,247.922 81.101,247.922 79.323C247.922 79.049,247.922 78.721,247.922 78.283L247.922 75.793L247.786 75.93C247.156 76.778,246.527 77.408,244.913 78.885L242.806 80.882C242.423 81.265,242.341 81.265,242.149 81.265C241.931 81.265,241.739 81.129,241.657 80.937L241.63 80.882L241.602 73.687L241.602 66.518L239.906 67.148C238.538 67.722,238.21 67.832,238.018 67.832C237.991 67.832,237.936 67.832,237.881 67.804C237.635 67.722,237.498 67.503,237.498 67.257C237.498 67.066,237.608 66.874,237.772 66.765C237.799 66.737,238.647 66.382,239.687 66.026L241.602 65.26L241.602 61.676L241.63 58.119L241.657 58.009C241.712 57.873,241.848 57.763,241.958 57.736M247.922 67.12C247.922 65.397,247.922 64.029,247.922 64.029C247.895 64.029,246.746 64.494,245.296 65.014L242.724 66.053L242.724 68.488L242.724 70.951L242.751 70.869C243.791 69.993,244.967 69.555,246.007 69.555C246.664 69.555,247.293 69.747,247.813 70.075L247.895 70.157C247.895 70.157,247.895 70.157,247.895 70.157C247.922 70.157,247.922 69.555,247.922 67.12M245.186 71.416C245.077 71.361,244.913 71.361,244.803 71.361C244.721 71.361,244.667 71.361,244.612 71.361C243.9 71.471,243.271 71.908,242.833 72.62L242.724 72.811L242.724 76.012L242.724 79.268L242.806 79.159C244.803 76.97,246.117 74.453,246.117 72.784L246.117 72.729C246.117 71.908,245.843 71.553,245.186 71.416M251.507 71.416C251.397 71.361,251.26 71.361,251.151 71.361C251.096 71.361,251.014 71.361,250.987 71.361C250.275 71.471,249.646 71.908,249.208 72.62L249.044 72.811L249.044 76.012L249.044 79.268L249.154 79.159C251.151 76.97,252.437 74.453,252.437 72.784L252.437 72.729C252.437 71.908,252.218 71.553,251.507 71.416"/></g></g><g class="vf-stavenote" id="vf-auto10493"><g class="vf-stem" id="vf-auto10494" pointer-events="bounding-box"><path stroke-width="1.5" fill="none" d="M299.911 73.5L299.911 40"/></g><g class="vf-notehead" id="vf-auto10496" pointer-events="bounding-box"><path stroke="none" d="M295.775 69.889C295.859 69.889,295.943 69.889,296.084 69.889C296.449 69.889,296.982 69.918,297.179 69.946C299.509 70.283,300.661 71.827,300.661 73.624C300.661 75.534,299.369 77.724,296.786 79.128C295.522 79.802,294.23 80.111,293.051 80.111C290.889 80.111,289.12 79.044,288.755 77.162C288.698 76.881,288.67 76.629,288.67 76.376C288.67 73.343,291.928 70.283,295.775 69.889"/><path stroke="none" d="M278.584 58.119C278.639 58.092,278.721 58.092,278.803 58.092C279.022 58.092,279.241 58.228,279.323 58.447C279.378 58.529,279.378 58.557,279.378 60.198C279.378 61.539,279.378 61.867,279.378 61.867C279.378 61.867,279.378 61.867,279.378 61.867C280.062 61.621,282.907 60.691,283.016 60.691C283.372 60.691,283.591 60.964,283.591 61.265C283.591 61.429,283.509 61.621,283.317 61.73C283.29 61.758,282.387 62.059,281.32 62.414L279.378 63.071L279.378 64.576C279.378 64.849,279.378 65.096,279.378 65.26C279.378 65.889,279.378 66.081,279.378 66.081C279.378 66.081,279.378 66.081,279.378 66.081C280.062 65.834,282.907 64.904,283.016 64.904C283.372 64.904,283.591 65.178,283.591 65.479C283.591 65.643,283.509 65.834,283.317 65.944C283.29 65.971,282.387 66.272,281.32 66.628L279.378 67.284L279.378 69.145L279.378 71.005L279.432 70.951C280.445 70.103,281.512 69.637,282.579 69.637C282.989 69.637,283.4 69.72,283.783 69.856C284.986 70.294,285.67 71.388,285.67 72.729C285.67 73.44,285.452 74.207,285.041 74.973C284.467 76.04,283.7 76.888,281.539 78.803C280.39 79.843,280.116 80.089,279.46 80.718C279.077 81.074,279.022 81.101,278.803 81.101C278.557 81.101,278.365 80.964,278.283 80.746C278.228 80.664,278.228 80.664,278.228 74.179C278.228 70.595,278.228 67.695,278.228 67.695C278.228 67.695,277.462 67.941,276.532 68.242C275.192 68.707,274.836 68.817,274.672 68.817C274.617 68.817,274.59 68.817,274.508 68.789C274.289 68.707,274.179 68.488,274.179 68.242C274.179 68.051,274.261 67.859,274.453 67.777C274.48 67.75,276.45 67.066,278.037 66.546L278.228 66.464L278.228 64.959C278.228 64.138,278.228 63.481,278.228 63.481C278.228 63.481,277.462 63.728,276.532 64.056C275.192 64.494,274.836 64.631,274.672 64.631C274.617 64.631,274.59 64.603,274.508 64.576C274.289 64.494,274.179 64.275,274.179 64.056C274.179 63.837,274.261 63.646,274.453 63.564C274.48 63.536,276.45 62.88,278.037 62.332L278.228 62.25L278.228 60.39C278.228 58.557,278.228 58.529,278.283 58.447C278.311 58.31,278.447 58.174,278.584 58.119M281.867 71.471C281.758 71.443,281.539 71.416,281.402 71.416C281.348 71.416,281.32 71.416,281.293 71.443C280.581 71.525,279.952 71.963,279.487 72.647L279.378 72.839L279.378 75.985L279.378 79.159L279.46 79.049C281.457 76.86,282.743 74.371,282.743 72.729C282.743 72.565,282.743 72.401,282.716 72.264C282.633 71.881,282.305 71.553,281.867 71.471"/></g></g><g class="vf-stavenote" id="vf-auto10499"><g class="vf-stem" id="vf-auto10500" pointer-events="bounding-box"><path stroke-width="1.5" fill="none" d="M330.189 73.5L330.189 40"/></g><g class="vf-notehead" id="vf-auto10502" pointer-events="bounding-box"><path stroke="none" d="M326.053 69.889C326.138 69.889,326.222 69.889,326.362 69.889C326.727 69.889,327.261 69.918,327.457 69.946C329.788 70.283,330.939 71.827,330.939 73.624C330.939 75.534,329.648 77.724,327.064 79.128C325.801 79.802,324.509 80.111,323.33 80.111C321.168 80.111,319.398 79.044,319.033 77.162C318.977 76.881,318.949 76.629,318.949 76.376C318.949 73.343,322.206 70.283,326.053 69.889"/><path stroke="none" d="M308.863 58.119C308.918 58.092,309 58.092,309.082 58.092C309.301 58.092,309.52 58.228,309.602 58.447C309.656 58.529,309.656 58.557,309.656 61.539C309.656 63.18,309.656 64.521,309.656 64.521C309.656 64.521,310.45 64.138,311.38 63.673L313.104 62.797L313.268 62.797C313.268 62.797,313.268 62.797,313.295 62.797C313.624 62.797,313.87 63.044,313.87 63.345C313.87 63.427,313.842 63.481,313.815 63.564C313.733 63.782,313.815 63.728,311.626 64.822L309.656 65.807L309.656 68.406L309.656 71.005L309.711 70.951C310.723 70.103,311.79 69.637,312.858 69.637C313.268 69.637,313.678 69.72,314.061 69.856C315.265 70.294,315.949 71.388,315.949 72.729C315.949 73.44,315.73 74.207,315.32 74.973C314.745 76.04,313.979 76.888,311.818 78.803C310.669 79.843,310.395 80.089,309.738 80.718C309.355 81.074,309.301 81.101,309.082 81.101C308.836 81.101,308.644 80.964,308.562 80.773C308.507 80.664,308.507 80.664,308.507 73.523C308.507 69.61,308.507 66.382,308.507 66.382C308.507 66.382,307.714 66.765,306.784 67.257L305.06 68.105L304.896 68.133C304.896 68.133,304.896 68.133,304.868 68.133C304.54 68.133,304.294 67.859,304.294 67.558C304.294 67.503,304.321 67.421,304.349 67.339C304.431 67.148,304.349 67.175,306.537 66.081L308.507 65.096L308.507 61.812C308.507 58.557,308.507 58.529,308.562 58.447C308.589 58.31,308.726 58.174,308.863 58.119M312.146 71.471C312.037 71.443,311.818 71.416,311.681 71.416C311.626 71.416,311.599 71.416,311.572 71.443C310.86 71.525,310.231 71.963,309.766 72.647L309.656 72.839L309.656 75.985L309.656 79.159L309.738 79.049C311.736 76.86,313.022 74.371,313.022 72.729C313.022 72.565,313.022 72.401,312.994 72.264C312.912 71.881,312.584 71.553,312.146 71.471"/></g></g><g class="vf-stavenote" id="vf-auto10505"><g class="vf-stem" id="vf-auto10506" pointer-events="bounding-box"><path stroke-width="1.5" fill="none" d="M364.705 73.5L364.705 40"/></g><g class="vf-notehead" id="vf-auto10508" pointer-events="bounding-box"><path stroke="none" d="M360.569 69.889C360.653 69.889,360.738 69.889,360.878 69.889C361.243 69.889,361.776 69.918,361.973 69.946C364.304 70.283,365.455 71.827,365.455 73.624C365.455 75.534,364.163 77.724,361.58 79.128C360.316 79.802,359.025 80.111,357.845 80.111C355.683 80.111,353.914 79.044,353.549 77.162C353.493 76.881,353.465 76.629,353.465 76.376C353.465 73.343,356.722 70.283,360.569 69.889"/><path stroke="none" d="M340.588 58.119C340.643 58.092,340.725 58.092,340.779 58.092C341.026 58.092,341.244 58.228,341.327 58.447L341.354 58.529L341.354 69.61L341.354 80.664L341.327 80.746C341.244 80.964,341.026 81.101,340.807 81.101C340.588 81.101,340.533 81.074,340.15 80.718C339.493 80.116,339.083 79.706,338.153 78.885C335.937 76.915,335.143 76.04,334.541 74.945C334.131 74.207,333.939 73.44,333.939 72.729C333.939 71.416,334.596 70.294,335.8 69.856C336.21 69.72,336.621 69.637,337.031 69.637C338.071 69.637,339.165 70.103,340.177 70.951L340.232 71.005L340.232 64.767C340.232 58.529,340.232 58.529,340.26 58.447C340.314 58.31,340.451 58.174,340.588 58.119M338.536 71.471C338.426 71.443,338.18 71.416,338.016 71.416C337.989 71.416,337.934 71.416,337.934 71.443C337.305 71.553,336.976 71.799,336.894 72.264C336.867 72.401,336.84 72.565,336.84 72.729C336.84 74.371,338.125 76.86,340.15 79.049L340.232 79.159L340.232 75.985L340.232 72.839L340.095 72.647C339.685 72.018,339.138 71.635,338.536 71.471M343.379 58.119C343.461 58.092,343.515 58.092,343.597 58.092C343.816 58.092,344.063 58.228,344.145 58.447C344.172 58.529,344.172 58.529,344.172 64.767L344.172 71.005L344.227 70.951C345.239 70.103,346.333 69.637,347.373 69.637C347.784 69.637,348.194 69.72,348.604 69.856C349.808 70.294,350.465 71.388,350.465 72.729C350.465 73.44,350.273 74.207,349.836 74.973C349.261 76.04,348.495 76.888,346.361 78.803C345.184 79.843,344.911 80.089,344.254 80.718C343.871 81.074,343.816 81.101,343.597 81.101C343.351 81.101,343.16 80.964,343.078 80.746L343.05 80.664L343.05 69.61L343.05 58.529L343.078 58.447C343.132 58.31,343.269 58.174,343.379 58.119M346.662 71.471C346.552 71.443,346.333 71.416,346.197 71.416C346.142 71.416,346.115 71.416,346.087 71.443C345.376 71.525,344.747 71.963,344.309 72.647L344.172 72.839L344.172 75.985L344.172 79.159L344.254 79.049C346.279 76.86,347.565 74.371,347.565 72.729C347.565 72.565,347.537 72.401,347.51 72.264C347.428 71.881,347.1 71.553,346.662 71.471"/></g></g><g class="vf-stavenote" id="vf-auto10511"><g class="vf-stem" id="vf-auto10512" pointer-events="bounding-box"><path stroke-width="1.5" fill="none" d="M394.984 73.5L394.984 40"/></g><g class="vf-notehead" id="vf-auto10514" pointer-events="bounding-box"><path stroke="none" d="M390.848 69.889C390.932 69.889,391.016 69.889,391.157 69.889C391.522 69.889,392.055 69.918,392.252 69.946C394.582 70.283,395.734 71.827,395.734 73.624C395.734 75.534,394.442 77.724,391.859 79.128C390.595 79.802,389.303 80.111,388.124 80.111C385.962 80.111,384.193 79.044,383.828 77.162C383.772 76.881,383.744 76.629,383.744 76.376C383.744 73.343,387.001 70.283,390.848 69.889"/><path stroke="none" d="M379.977 58.119C380.032 58.092,380.114 58.092,380.169 58.092C380.415 58.092,380.634 58.228,380.716 58.447L380.744 58.529L380.744 69.61L380.744 80.664L380.716 80.746C380.634 80.964,380.415 81.101,380.196 81.101C379.977 81.101,379.923 81.074,379.54 80.718C378.883 80.116,378.473 79.706,377.542 78.885C375.326 76.915,374.533 76.04,373.931 74.945C373.521 74.207,373.329 73.44,373.329 72.729C373.329 71.416,373.986 70.294,375.189 69.856C375.6 69.72,376.01 69.637,376.421 69.637C377.46 69.637,378.555 70.103,379.567 70.951L379.622 71.005L379.622 64.767C379.622 58.529,379.622 58.529,379.649 58.447C379.704 58.31,379.841 58.174,379.977 58.119M377.925 71.471C377.816 71.443,377.57 71.416,377.406 71.416C377.378 71.416,377.324 71.416,377.324 71.443C376.694 71.553,376.366 71.799,376.284 72.264C376.257 72.401,376.229 72.565,376.229 72.729C376.229 74.371,377.515 76.86,379.54 79.049L379.622 79.159L379.622 75.985L379.622 72.839L379.485 72.647C379.075 72.018,378.527 71.635,377.925 71.471"/></g></g><g class="vf-stavenote" id="vf-auto10517"><g class="vf-stem" id="vf-auto10518" pointer-events="bounding-box"><path stroke-width="1.5" fill="none" d="M425.263 73.5L425.263 40"/></g><g class="vf-notehead" id="vf-auto10520" pointer-events="bounding-box"><path stroke="none" d="M421.127 69.889C421.211 69.889,421.295 69.889,421.435 69.889C421.801 69.889,422.334 69.918,422.531 69.946C424.861 70.283,426.013 71.827,426.013 73.624C426.013 75.534,424.721 77.724,422.137 79.128C420.874 79.802,419.582 80.111,418.403 80.111C416.241 80.111,414.472 79.044,414.107 77.162C414.05 76.881,414.022 76.629,414.022 76.376C414.022 73.343,417.28 70.283,421.127 69.889"/><path stroke="none" d="M407.274 60.362C407.329 60.308,407.383 60.308,407.493 60.308C407.739 60.308,407.931 60.417,408.013 60.663L408.04 60.745L408.095 63.536L408.095 66.354L408.779 66.163C409.189 66.081,409.49 66.026,409.682 66.026C409.955 66.026,410.01 66.135,410.119 66.354C410.174 66.382,410.174 67.066,410.174 67.722C410.174 68.406,410.174 69.063,410.119 69.118C410.01 69.364,409.955 69.391,409.189 69.583C408.232 69.802,408.095 69.856,408.095 69.884C408.095 69.884,408.095 70.239,408.095 70.732C408.095 70.869,408.095 71.06,408.095 71.279L408.095 72.702L408.368 72.62L409.49 72.319C410.092 72.209,410.366 72.127,410.503 72.127C410.639 72.127,410.721 72.155,410.803 72.237C410.995 72.401,411.022 72.428,411.022 73.331C411.022 73.495,411.022 73.687,411.022 73.906L411.022 75.137L410.995 75.219C410.94 75.328,410.803 75.492,410.694 75.52C410.639 75.52,409.955 75.711,408.423 76.094C408.232 76.122,408.095 76.176,408.095 76.176C408.095 76.176,408.095 76.614,408.095 77.271C408.095 77.38,408.095 77.49,408.095 77.599L408.095 78.967L408.779 78.83C409.244 78.721,409.49 78.639,409.682 78.639C409.846 78.639,409.955 78.721,410.01 78.83C410.174 78.967,410.174 78.885,410.174 79.952L410.174 80.39L410.174 80.746C410.174 81.813,410.174 81.758,410.01 81.895C409.901 82.059,409.955 82.059,408.669 82.36C408.423 82.442,408.15 82.469,408.122 82.497L408.095 82.497L408.04 85.342L408.04 88.215L408.013 88.324C407.931 88.543,407.712 88.653,407.493 88.653C407.274 88.653,407.083 88.543,406.973 88.324L406.918 88.215L406.918 85.506L406.918 82.798L406.891 82.798L406.262 82.962L405.113 83.235C404.812 83.345,404.511 83.372,404.511 83.427C404.483 83.427,404.483 83.564,404.483 86.354L404.483 89.309L404.429 89.391C404.319 89.61,404.1 89.72,403.909 89.72C403.69 89.72,403.471 89.61,403.362 89.391L403.307 89.309L403.307 86.491C403.307 83.919,403.307 83.673,403.279 83.673C403.279 83.673,403.279 83.673,403.279 83.673C402.979 83.81,401.939 84.029,401.829 84.029C401.611 84.029,401.419 83.919,401.31 83.673C401.255 83.618,401.255 83.618,401.255 82.305L401.255 80.992L401.337 80.91C401.446 80.636,401.446 80.636,402.979 80.253L403.307 80.198L403.307 78.776C403.307 77.49,403.307 77.38,403.279 77.38C403.279 77.38,403.279 77.38,403.279 77.38C403.279 77.38,403.088 77.408,402.869 77.49L401.802 77.763C401.337 77.873,401.091 77.9,400.927 77.9C400.817 77.9,400.735 77.873,400.626 77.791C400.461 77.654,400.434 77.599,400.434 76.696C400.434 76.532,400.461 76.341,400.461 76.122L400.461 74.891L400.489 74.836C400.516 74.699,400.626 74.59,400.735 74.562C400.79 74.508,401.501 74.343,402.951 73.988L403.307 73.878L403.307 72.456C403.307 71.17,403.307 71.06,403.279 71.06C403.279 71.06,403.279 71.06,403.279 71.06C402.979 71.142,401.939 71.416,401.829 71.416C401.611 71.416,401.419 71.252,401.31 71.06C401.255 70.978,401.255 70.951,401.255 69.665L401.255 68.379L401.337 68.297C401.446 68.023,401.446 68.023,402.979 67.64L403.307 67.531L403.307 64.685L403.307 61.84L403.362 61.73C403.471 61.539,403.69 61.375,403.909 61.375C403.991 61.375,404.073 61.429,404.128 61.457C404.237 61.484,404.347 61.621,404.429 61.73L404.483 61.84L404.483 64.521L404.483 67.257L404.62 67.23C404.702 67.202,405.14 67.066,405.66 66.956L406.754 66.71L406.918 66.655L406.918 63.7L406.918 60.745L406.973 60.663C407.028 60.554,407.11 60.417,407.274 60.362M406.918 71.553C406.918 70.787,406.918 70.157,406.891 70.157L406.891 70.157C406.891 70.157,406.617 70.239,406.289 70.294L405.113 70.595C404.757 70.677,404.483 70.759,404.483 70.759C404.483 70.759,404.483 71.115,404.483 71.607C404.483 71.799,404.483 71.963,404.483 72.209L404.483 73.577L404.647 73.523L406.699 73.03L406.918 72.975L406.918 71.553M406.918 77.873C406.918 76.778,406.918 76.477,406.891 76.477L406.891 76.477C406.891 76.477,406.864 76.477,406.782 76.505C406.672 76.505,406.043 76.696,405.167 76.888L404.538 77.079L404.483 77.079L404.483 78.475L404.483 79.897L404.62 79.843C404.702 79.843,405.14 79.733,405.66 79.569L406.754 79.323L406.918 79.268L406.918 77.873"/></g></g><g class="vf-stavenote" id="vf-auto10523"><g class="vf-stem" id="vf-auto10524" pointer-events="bounding-box"><path stroke-width="1.5" fill="none" d="M455.674 73.5L455.674 40"/></g><g class="vf-notehead" id="vf-auto10526" pointer-events="bounding-box"><path stroke="none" d="M451.538 69.889C451.622 69.889,451.707 69.889,451.847 69.889C452.212 69.889,452.746 69.918,452.942 69.946C455.273 70.283,456.424 71.827,456.424 73.624C456.424 75.534,455.132 77.724,452.549 79.128C451.285 79.802,449.994 80.111,448.814 80.111C446.652 80.111,444.883 79.044,444.518 77.162C444.462 76.881,444.434 76.629,444.434 76.376C444.434 73.343,447.691 70.283,451.538 69.889"/><path stroke="none" d="M438.616 60.527C438.671 60.527,438.725 60.499,438.78 60.499C438.972 60.499,439.163 60.636,439.273 60.828L439.327 60.91L439.327 64.466L439.327 67.996L439.355 67.996C439.382 67.996,439.738 67.914,440.148 67.859C440.531 67.777,440.777 67.75,440.914 67.75C441.106 67.75,441.16 67.777,441.297 67.914C441.407 68.023,441.434 68.023,441.434 68.789C441.434 68.981,441.434 69.172,441.434 69.446L441.434 70.704L441.379 70.787C441.325 70.896,441.215 71.005,441.133 71.06C441.078 71.088,439.437 71.388,439.355 71.416C439.327 71.416,439.327 72.729,439.327 74.371L439.327 77.326L439.355 77.326C439.382 77.326,439.738 77.244,440.148 77.189C440.531 77.107,440.777 77.079,440.914 77.079C441.106 77.079,441.16 77.134,441.297 77.244C441.407 77.38,441.434 77.353,441.434 78.119C441.434 78.311,441.434 78.502,441.434 78.776L441.434 80.034L441.379 80.116C441.325 80.226,441.215 80.335,441.133 80.39C441.078 80.417,439.437 80.746,439.355 80.746C439.327 80.746,439.327 82.305,439.327 84.248L439.327 87.75L439.273 87.859C439.19 88.051,438.999 88.188,438.753 88.188C438.534 88.188,438.342 88.051,438.26 87.859L438.205 87.75L438.205 84.33C438.205 81.156,438.205 80.937,438.178 80.937C438.178 80.937,438.178 80.937,438.178 80.937C438.151 80.964,437.604 81.047,436.947 81.183L435.743 81.402L435.743 84.877C435.743 85.561,435.743 86.081,435.743 86.519C435.743 88.762,435.743 88.516,435.579 88.653C435.469 88.762,435.333 88.817,435.196 88.817C434.977 88.817,434.758 88.707,434.676 88.516L434.649 88.434L434.621 85.014L434.621 81.594L433.39 81.84C432.733 81.949,432.186 82.059,432.186 82.059C432.159 82.059,432.159 83.646,432.159 85.561L432.159 89.09L432.132 89.172C431.995 89.391,431.803 89.501,431.612 89.501C431.42 89.501,431.201 89.391,431.092 89.172L431.065 89.09L431.065 85.67C431.037 83.81,431.037 82.25,431.037 82.25C431.037 82.25,430.709 82.305,430.353 82.387C429.943 82.469,429.697 82.497,429.532 82.497C429.341 82.497,429.286 82.442,429.177 82.36C429.013 82.196,429.013 82.25,429.013 81.183C429.013 81.074,429.013 80.964,429.013 80.828C429.013 80.691,429.013 80.554,429.013 80.445C429.013 79.405,429.013 79.46,429.177 79.296C429.286 79.186,429.341 79.159,430.244 78.995L431.037 78.858L431.037 75.903C431.037 74.261,431.037 72.921,431.037 72.921C431.037 72.921,430.709 72.975,430.353 73.057C429.943 73.14,429.697 73.167,429.532 73.167C429.341 73.167,429.286 73.112,429.177 73.003C429.013 72.866,429.013 72.921,429.013 71.854C429.013 71.744,429.013 71.635,429.013 71.498C429.013 71.361,429.013 71.224,429.013 71.115C429.013 70.075,429.013 70.13,429.177 69.966C429.286 69.829,429.341 69.829,430.244 69.665L431.037 69.528L431.037 65.889L431.037 62.25L431.092 62.141C431.201 61.922,431.393 61.84,431.612 61.84C431.803 61.84,431.995 61.922,432.104 62.141L432.159 62.223L432.159 65.752L432.186 69.309L433.39 69.09C434.074 68.953,434.621 68.871,434.621 68.871C434.621 68.871,434.621 67.23,434.621 65.232C434.621 61.648,434.621 61.621,434.649 61.512C434.758 61.293,434.977 61.183,435.196 61.183C435.333 61.183,435.469 61.238,435.579 61.347C435.743 61.484,435.743 61.238,435.743 63.481C435.743 63.919,435.743 64.466,435.743 65.123C435.743 67.421,435.743 68.652,435.77 68.652C435.77 68.652,436.318 68.543,436.974 68.434C437.631 68.297,438.178 68.215,438.178 68.215C438.205 68.215,438.205 66.573,438.205 64.548L438.205 60.91L438.26 60.828C438.342 60.691,438.452 60.581,438.616 60.527M438.205 74.59C438.205 72.209,438.205 71.607,438.178 71.607L438.178 71.607C438.178 71.607,437.631 71.717,436.947 71.826L435.743 72.072L435.743 75.027C435.743 76.943,435.743 77.982,435.77 77.982C435.77 77.982,436.318 77.873,436.974 77.763C437.631 77.654,438.178 77.544,438.178 77.544C438.205 77.544,438.205 76.231,438.205 74.59M434.621 78.201C434.621 78.174,434.621 77.462,434.621 76.45C434.621 76.067,434.621 75.657,434.621 75.219L434.621 72.264L433.39 72.483C432.733 72.62,432.186 72.729,432.186 72.729C432.186 72.729,432.186 73.44,432.186 74.453C432.186 74.836,432.186 75.246,432.186 75.684L432.186 78.639L433.39 78.42C434.074 78.283,434.621 78.201,434.621 78.201"/></g></g><g class="vf-stavenote" id="vf-auto10529"><g class="vf-stem" id="vf-auto10530" pointer-events="bounding-box"><path stroke-width="1.5" fill="none" d="M485.953 73.5L485.953 40"/></g><g class="vf-notehead" id="vf-auto10532" pointer-events="bounding-box"><path stroke="none" d="M481.817 69.889C481.901 69.889,481.985 69.889,482.126 69.889C482.491 69.889,483.024 69.918,483.221 69.946C485.552 70.283,486.703 71.827,486.703 73.624C486.703 75.534,485.411 77.724,482.828 79.128C481.564 79.802,480.273 80.111,479.093 80.111C476.931 80.111,475.162 79.044,474.797 77.162C474.741 76.881,474.713 76.629,474.713 76.376C474.713 73.343,477.97 70.283,481.817 69.889"/><path stroke="none" d="M468.019 61.211C468.101 61.183,468.156 61.183,468.238 61.183C468.457 61.183,468.676 61.32,468.758 61.512C468.813 61.621,468.813 61.648,468.813 64.22L468.813 66.792L469.524 66.573C470.153 66.354,470.235 66.327,470.317 66.327C470.345 66.327,470.345 66.327,470.372 66.327C470.591 66.354,470.755 66.464,470.865 66.655L470.892 66.737L470.892 67.996C470.919 68.242,470.919 68.461,470.919 68.625C470.919 69.364,470.892 69.364,470.81 69.501C470.7 69.61,470.646 69.637,469.688 69.966L468.813 70.239L468.813 71.662C468.813 72.784,468.813 73.085,468.813 73.085C468.813 73.085,468.813 73.085,468.813 73.085C468.84 73.085,469.332 72.921,469.962 72.702L471.056 72.346L471.193 72.346C471.412 72.373,471.576 72.483,471.658 72.674L471.713 72.756L471.713 74.015C471.713 74.261,471.713 74.48,471.713 74.672C471.713 75.383,471.685 75.383,471.603 75.492C471.521 75.629,471.494 75.657,470.099 76.094L468.813 76.532L468.813 77.873C468.813 78.01,468.813 78.146,468.813 78.256C468.813 78.885,468.813 79.213,468.813 79.213C468.84 79.213,469.141 79.104,469.497 78.967C469.852 78.83,470.208 78.721,470.263 78.721C470.29 78.721,470.317 78.721,470.345 78.721C470.564 78.721,470.783 78.858,470.865 79.049C470.892 79.131,470.919 79.897,470.919 80.581C470.919 81.129,470.892 81.648,470.892 81.731C470.81 81.977,470.755 81.977,469.715 82.36L468.813 82.688L468.813 85.561C468.785 88.434,468.785 88.434,468.758 88.516C468.676 88.707,468.457 88.817,468.238 88.817C468.101 88.817,467.937 88.762,467.828 88.653C467.691 88.516,467.691 88.68,467.691 86.902C467.691 86.573,467.691 86.19,467.691 85.725C467.691 84.275,467.691 83.099,467.663 83.099C467.663 83.099,467.363 83.181,467.007 83.317C466.569 83.482,466.295 83.564,466.131 83.564C465.995 83.564,465.912 83.509,465.803 83.4C465.666 83.235,465.639 83.29,465.639 82.25C465.639 82.141,465.639 82.004,465.639 81.867C465.639 81.758,465.639 81.648,465.639 81.566C465.639 80.472,465.639 80.499,465.803 80.363C465.912 80.253,465.885 80.253,466.843 79.925L467.691 79.624L467.691 78.256C467.691 77.189,467.663 76.915,467.663 76.915C467.663 76.915,467.663 76.915,467.663 76.915C467.636 76.915,467.144 77.079,466.542 77.298L465.42 77.654L465.283 77.654C465.064 77.627,464.873 77.49,464.791 77.298C464.763 77.216,464.763 76.669,464.763 76.094C464.763 75.41,464.791 74.699,464.818 74.617C464.9 74.371,464.873 74.398,466.405 73.878L467.663 73.468L467.691 72.045C467.691 71.908,467.691 71.772,467.691 71.662C467.691 71.06,467.663 70.622,467.663 70.622C467.663 70.622,467.363 70.732,467.007 70.841C466.542 71.005,466.295 71.06,466.131 71.06C465.995 71.06,465.912 71.005,465.803 70.923C465.666 70.759,465.639 70.814,465.639 69.747C465.639 69.637,465.639 69.528,465.639 69.391C465.639 69.118,465.639 68.871,465.639 68.68C465.639 67.722,465.721 67.832,466.815 67.476L467.691 67.175L467.691 64.384C467.691 61.648,467.691 61.621,467.718 61.512C467.773 61.402,467.91 61.265,468.019 61.211"/></g></g><g class="vf-stavenote" id="vf-auto10535"><g class="vf-stem" id="vf-auto10536" pointer-events="bounding-box"><path stroke-width="1.5" fill="none" d="M516.232 73.5L516.232 40"/></g><g class="vf-notehead" id="vf-auto10538" pointer-events="bounding-box"><path stroke="none" d="M512.096 69.889C512.18 69.889,512.264 69.889,512.405 69.889C512.77 69.889,513.303 69.918,513.5 69.946C515.83 70.283,516.982 71.827,516.982 73.624C516.982 75.534,515.69 77.724,513.107 79.128C511.843 79.802,510.551 80.111,509.372 80.111C507.21 80.111,505.441 79.044,505.076 77.162C505.02 76.881,504.992 76.629,504.992 76.376C504.992 73.343,508.249 70.283,512.096 69.889"/><path stroke="none" d="M499.091 61.211C499.146 61.183,499.228 61.183,499.31 61.183C499.529 61.183,499.748 61.32,499.83 61.512C499.885 61.621,499.885 61.648,499.885 64.986L499.885 68.352L500.596 68.105C501.198 67.914,501.28 67.886,501.39 67.886C501.417 67.886,501.417 67.886,501.444 67.886C501.663 67.886,501.827 67.996,501.937 68.187L501.964 68.269L501.964 69.528C501.964 69.802,501.964 70.02,501.964 70.185C501.964 70.923,501.964 70.896,501.882 71.033C501.773 71.17,501.718 71.197,500.76 71.498L499.885 71.799L499.885 74.726C499.885 76.642,499.885 77.654,499.885 77.654C499.885 77.654,500.213 77.572,500.569 77.435C500.924 77.298,501.28 77.189,501.335 77.189C501.362 77.161,501.39 77.161,501.417 77.161C501.636 77.161,501.855 77.298,501.937 77.517C501.964 77.599,501.992 78.338,501.992 79.022C501.992 79.596,501.964 80.116,501.964 80.171C501.855 80.417,501.827 80.445,500.788 80.8L499.885 81.129L499.885 84.795L499.857 88.434L499.83 88.516C499.721 88.707,499.529 88.817,499.31 88.817C499.173 88.817,499.009 88.762,498.9 88.653C498.763 88.516,498.736 88.762,498.736 86.573C498.736 86.136,498.763 85.616,498.763 84.959C498.763 83.071,498.736 81.539,498.736 81.539C498.736 81.539,498.435 81.648,498.079 81.785C497.614 81.949,497.368 82.032,497.204 82.032C497.067 82.032,496.985 81.977,496.875 81.867C496.711 81.703,496.711 81.758,496.711 80.691C496.711 80.581,496.711 80.472,496.711 80.335C496.711 80.226,496.711 80.116,496.711 80.007C496.711 78.912,496.711 78.967,496.875 78.83C496.985 78.694,496.957 78.721,497.915 78.365L498.763 78.092L498.763 75.137C498.763 73.495,498.736 72.182,498.736 72.182C498.736 72.182,498.435 72.264,498.052 72.401C497.614 72.538,497.368 72.62,497.204 72.62C497.067 72.62,496.985 72.565,496.875 72.456C496.711 72.291,496.711 72.346,496.711 71.306C496.711 71.197,496.711 71.06,496.711 70.923C496.711 70.65,496.711 70.431,496.711 70.239C496.711 69.282,496.793 69.364,497.888 69.008L498.763 68.707L498.763 65.178C498.763 61.648,498.763 61.621,498.79 61.512C498.845 61.402,498.955 61.265,499.091 61.211"/></g></g><g class="vf-stavenote" id="vf-auto10541"><g class="vf-stem" id="vf-auto10542" pointer-events="bounding-box"><path stroke-width="1.5" fill="none" d="M550.802 73.5L550.802 40"/></g><g class="vf-notehead" id="vf-auto10544" pointer-events="bounding-box"><path stroke="none" d="M546.666 69.889C546.75 69.889,546.835 69.889,546.975 69.889C547.34 69.889,547.874 69.918,548.07 69.946C550.401 70.283,551.552 71.827,551.552 73.624C551.552 75.534,550.26 77.724,547.677 79.128C546.413 79.802,545.122 80.111,543.942 80.111C541.78 80.111,540.011 79.044,539.646 77.162C539.59 76.881,539.562 76.629,539.562 76.376C539.562 73.343,542.819 70.283,546.666 69.889"/><path stroke="none" d="M536.562 74.726C536.562 74.562,536.179 74.398,536.097 74.371L530.433 72.018L530.433 62.278C530.433 62.168,530.351 62.086,530.214 62.086L529.202 62.086C529.093 62.086,529.01 62.168,529.01 62.278L529.01 71.388L524.989 69.692L524.989 63.372C524.989 63.263,524.906 63.18,524.797 63.18L523.757 63.18C523.648 63.18,523.566 63.263,523.566 63.372L523.566 69.09L520.064 67.64C519.982 67.64,519.982 67.722,519.982 67.75L519.982 68.899C519.982 69.09,519.982 69.118,520.064 69.172L523.566 70.622L523.566 79.104L520.064 80.554C519.982 80.581,519.982 80.636,519.982 80.8L519.982 81.977C519.982 82.059,520.009 82.086,520.064 82.086L523.566 80.581L523.566 87.339C523.566 87.449,523.648 87.531,523.757 87.531L524.797 87.531C524.906 87.531,524.989 87.449,524.989 87.339L524.989 80.007L529.01 78.283L529.01 86.218C529.01 86.354,529.093 86.436,529.202 86.436L530.214 86.436C530.351 86.436,530.433 86.354,530.433 86.218L530.433 77.681L536.097 75.246C536.179 75.246,536.562 75,536.562 74.726M524.989 78.502L524.989 71.224L529.01 72.921L529.01 76.806M530.433 76.231L530.433 73.495L533.689 74.836"/></g></g><g class="vf-stavenote" id="vf-auto10547"><g class="vf-stem" id="vf-auto10548" pointer-events="bounding-box"><path stroke-width="1.5" fill="none" d="M581.081 73.5L581.081 40"/></g><g class="vf-notehead" id="vf-auto10550" pointer-events="bounding-box"><path stroke="none" d="M576.945 69.889C577.029 69.889,577.113 69.889,577.254 69.889C577.619 69.889,578.152 69.918,578.349 69.946C580.68 70.283,581.831 71.827,581.831 73.624C581.831 75.534,580.539 77.724,577.956 79.128C576.692 79.802,575.4 80.111,574.221 80.111C572.059 80.111,570.29 79.044,569.925 77.162C569.869 76.881,569.841 76.629,569.841 76.376C569.841 73.343,573.098 70.283,576.945 69.889"/><path stroke="none" d="M566.841 75.109C566.841 74.973,566.458 74.754,566.376 74.726L555.131 68.817C555.048 68.817,555.021 68.844,555.021 68.899L555.021 93.386C555.021 93.523,555.103 93.605,555.213 93.605L556.252 93.605C556.362 93.605,556.444 93.523,556.444 93.386L556.444 80.28L566.376 75.602C566.458 75.547,566.841 75.356,566.841 75.109M556.444 78.748L556.444 71.06L563.968 75.192"/></g></g></svg>