<svg xmlns="http://www.w3.org/2000/svg" stroke-width="0.3" stroke-dasharray="none" fill="black" stroke="black" font-family="Arial, sans-serif" font-size="10pt" font-weight="normal" font-style="normal" width="422" height="250" viewBox="0 0 527.5 312.5" style="width: 422px; height: 250px; border: none;"><g class="vf-stave" id="vf-auto1837" stroke-width="1" fill="#999999" stroke="#999999"><path fill="none" d="M10 50L236.851 50"/><path fill="none" d="M10 60L236.851 60"/><path fill="none" d="M10 70L236.851 70"/><path fill="none" d="M10 80L236.851 80"/><path fill="none" d="M10 90L236.851 90"/></g><g class="vf-stavebarline" id="vf-auto1838"/><g class="vf-stavebarline" id="vf-auto1839"><rect x="236.851" y="49.5" width="1" height="41" stroke="none"/></g><g class="vf-clef" id="vf-auto1840"><path stroke="none" d="M35.503 81.76C35.503 84.345,34.464 87.032,31.854 88.071C31.093 83.712,30.105 77.908,29.852 76.286C33.146 76.286,35.503 78.516,35.503 81.76M30.333 88.527C29.598 88.654,28.914 88.73,28.204 88.73C22.983 88.73,18.548 85.08,18.548 79.581C18.548 75.12,21.691 71.141,24.884 68.379C25.518 67.821,26.101 67.314,26.633 66.757C26.962 68.734,27.216 70.457,27.469 71.952C24.149 72.941,21.894 76.438,21.894 79.86C21.894 82.419,23.896 85.917,26.836 85.917C27.114 85.917,27.444 85.79,27.444 85.461C27.444 85.131,27.089 84.954,26.633 84.65C25.214 83.762,24.428 82.825,24.428 81.025C24.428 78.82,26.05 77.021,28.204 76.514M27.114 50.993C27.444 49.548,29.117 45.721,31.017 45.721C31.575 45.721,32.437 47.495,32.437 50.004C32.437 53.806,29.623 56.67,27.114 59.128C26.886 57.684,26.709 56.264,26.709 54.718C26.709 53.375,26.836 52.133,27.114 50.993M19.461 99.729C19.461 102.137,21.311 105.305,26.253 105.305C27.951 105.305,29.446 104.874,30.764 104.063C32.741 102.669,33.248 100.261,33.248 97.98C33.248 96.536,33.02 94.914,32.665 92.836C32.563 92.101,32.335 91.011,32.107 89.566C35.681 88.4,38.367 84.675,38.367 80.924C38.367 75.424,34.464 71.699,29.117 71.699C28.762 69.494,28.382 67.34,28.078 65.312C31.93 61.257,34.591 56.695,34.591 50.891C34.591 47.571,33.577 44.859,32.994 43.567C32.107 41.691,31.068 40.424,30.409 40.424C30.156 40.424,29.015 40.855,27.799 42.274C25.467 45.062,24.808 49.726,24.808 52.792C24.808 54.769,25.011 56.543,25.619 60.623C25.594 60.674,23.693 62.6,22.907 63.234C19.587 66.326,15 70.736,15 78.035C15 84.878,20.956 90.225,27.748 90.225C28.787 90.225,29.776 90.124,30.612 89.972C31.322 93.469,31.727 96.029,31.727 97.98C31.727 101.757,29.776 103.784,26.101 103.784C25.214 103.784,24.453 103.582,24.377 103.582C24.352 103.556,24.276 103.505,24.276 103.48C24.276 103.404,24.352 103.379,24.453 103.328C26.177 103.075,27.875 101.63,27.875 99.273C27.875 97.322,26.379 95.243,23.642 95.243C21.083 95.243,19.461 97.322,19.461 99.729"/></g><g class="vf-timesignature" id="vf-auto1841"><path stroke="none" d="M64.358 59.437C67.174 58.335,67.345 56.499,67.345 55.887C67.345 55.814,67.345 55.74,67.345 55.692C67.345 55.373,67.247 51.408,61.176 51.408C55.105 51.408,55.301 55.692,55.301 55.692L55.325 55.692L55.301 55.765C55.301 57.038,56.304 58.017,57.577 58.017C58.85 58.017,59.83 57.038,59.83 55.765C59.83 54.737,59.071 53.758,58.067 53.537C58.116 53.513,58.14 53.488,58.189 53.439C58.679 53.097,59.34 52.925,60.025 52.925C61.494 52.925,63.085 53.807,63.085 55.692C63.085 57.919,61.421 58.237,61.005 58.311C60.588 58.384,58.606 58.531,58.189 58.531C57.749 58.531,57.724 59.021,57.724 59.021L57.724 59.706C57.724 59.706,57.798 60.098,58.189 60.147C58.777 60.171,59.585 60.171,60.711 60.343C62.278 60.563,63.085 61.616,63.085 64.088C63.085 66.463,61.494 67.075,60.025 67.075C59.022 67.075,58.116 66.805,57.724 66.512C58.875 66.463,59.83 65.435,59.83 64.26C59.83 62.987,58.85 61.983,57.577 61.983C56.304 61.983,55.301 62.987,55.301 64.26C55.301 64.26,55.301 64.333,55.301 64.406C55.301 64.872,55.399 66.144,56.672 67.295C58.042 68.568,59.756 68.592,60.539 68.592C63.918 68.592,67.59 67.442,67.59 63.599C67.59 61.028,65.827 59.927,64.285 59.437"/><path stroke="none" d="M60.711 84.48L60.711 87.075L57.774 87.075C57.529 87.075,57.284 87.295,57.284 87.589L57.284 88.25C57.284 88.519,57.529 88.739,57.774 88.739L68.447 88.739C68.741 88.739,68.936 88.519,68.936 88.25L68.936 87.589C68.936 87.295,68.741 87.075,68.447 87.075L65.289 87.075L65.289 84.48L68.447 84.48C68.741 84.48,68.936 84.235,68.936 83.941L68.936 83.28C68.936 83.036,68.741 82.791,68.447 82.791L65.289 82.791L65.289 77.185C65.289 76.964,65.167 76.793,65.044 76.72L64.603 76.499C64.53 76.475,64.506 76.475,64.432 76.475C64.408 76.475,64.408 76.475,64.359 76.475C64.261 76.475,64.114 76.499,64.04 76.573L60.834 79.51C60.736 79.608,60.711 79.755,60.711 79.902L60.711 82.791L56.599 82.791C56.599 82.791,60.564 78.556,64.726 72.974C64.848 72.803,64.897 72.632,64.897 72.485C64.897 72.313,64.824 72.166,64.799 72.142L64.016 71.359C63.918 71.285,63.796 71.212,63.649 71.212C63.453 71.212,58.679 71.212,58.41 71.212C58.165 71.212,57.994 71.432,57.945 71.652C57.945 71.652,57.774 74.247,56.868 77.111C55.938 79.976,54.885 81.738,53.955 83.036C53.955 83.036,53.857 83.207,53.857 83.427C53.857 83.501,53.857 83.55,53.906 83.623C54.004 83.868,54.248 84.26,54.248 84.26C54.248 84.26,54.322 84.48,54.64 84.48"/></g><g class="vf-stavenote" id="vf-auto1845"><g class="vf-notehead" id="vf-auto1885" pointer-events="bounding-box"><path stroke="none" d="M80.447 81.685C80.447 83.426,81.71 85.391,84.968 85.391C89.18 85.391,93.588 81.938,93.588 78.371C93.588 75.985,91.567 74.665,89.067 74.665C85.136 74.665,80.447 77.978,80.447 81.685"/></g></g><g class="vf-stavenote" id="vf-auto1851"><path stroke-width="1.4" fill="none" stroke="#444" d="M92.823 40L111.965 40"/><path stroke-width="1.4" fill="none" stroke="#444" d="M92.823 30L111.965 30"/><path stroke-width="1.4" fill="none" stroke="#444" d="M92.823 20L111.965 20"/><g class="vf-notehead" id="vf-auto1887" pointer-events="bounding-box"><path stroke="none" d="M95.823 16.685C95.823 18.426,97.087 20.391,100.344 20.391C104.556 20.391,108.965 16.938,108.965 13.371C108.965 10.985,106.943 9.665,104.444 9.665C100.513 9.665,95.823 12.978,95.823 16.685"/></g></g><g class="vf-stavenote" id="vf-auto1857"><g class="vf-notehead" id="vf-auto1889" pointer-events="bounding-box"><path stroke="none" d="M111.2 76.685C111.2 78.426,112.464 80.391,115.721 80.391C119.933 80.391,124.342 76.938,124.342 73.371C124.342 70.985,122.32 69.665,119.821 69.665C115.889 69.665,111.2 72.978,111.2 76.685"/></g></g><g class="vf-stavenote" id="vf-auto1863"><path stroke-width="1.4" fill="none" stroke="#444" d="M123.577 40L142.718 40"/><path stroke-width="1.4" fill="none" stroke="#444" d="M123.577 30L142.718 30"/><path stroke-width="1.4" fill="none" stroke="#444" d="M123.577 20L142.718 20"/><path stroke-width="1.4" fill="none" stroke="#444" d="M123.577 10L142.718 10"/><g class="vf-notehead" id="vf-auto1891" pointer-events="bounding-box"><path stroke="none" d="M126.577 11.685C126.577 13.426,127.84 15.391,131.098 15.391C135.31 15.391,139.718 11.938,139.718 8.371C139.718 5.985,137.696 4.665,135.197 4.665C131.266 4.665,126.577 7.978,126.577 11.685"/></g></g><g class="vf-stavenote" id="vf-auto1869"><g class="vf-notehead" id="vf-auto1872" pointer-events="bounding-box"><path stroke="none" d="M150.295 76.023C150.269 75.998,150.194 75.922,150.093 75.771L145.91 70.605C145.885 70.58,145.834 70.479,145.834 70.403C145.834 70.302,145.885 70.151,145.91 70.076L149.614 64.481C149.639 64.406,149.69 64.305,149.69 64.229L149.69 63.902C149.69 63.801,149.639 63.675,149.564 63.624L143.692 55.661C143.692 55.661,143.541 55.46,143.339 55.46C143.213 55.46,143.163 55.485,143.037 55.56C142.886 55.661,142.861 55.812,142.861 55.913C142.861 56.14,142.961 56.316,142.961 56.316L145.733 60.096C145.809 60.197,145.834 60.348,145.834 60.525C145.834 60.676,145.809 60.852,145.733 60.953L142.054 66.548C142.029 66.623,141.979 66.774,141.979 66.85L141.979 67.178C141.979 67.278,142.029 67.379,142.105 67.455L146.162 72.495C146.011 72.47,145.683 72.394,145.255 72.394C144.65 72.394,143.843 72.545,143.188 73.125C142.382 73.856,141.953 74.864,141.953 75.771C141.953 76.275,142.054 76.779,142.357 77.182C143.113 78.341,145.834 81.794,145.834 81.794C145.834 81.794,146.011 82.02,146.263 82.02C146.338 82.02,146.414 82.02,146.489 81.945C146.666 81.794,146.741 81.642,146.741 81.491C146.741 81.365,146.666 81.239,146.641 81.189C146.515 80.987,145.355 78.896,145.355 78.896C145.355 78.896,145.103 78.392,145.103 77.736C145.103 77.258,145.255 76.678,145.733 76.199C146.162 75.771,146.666 75.62,147.145 75.62C147.623 75.62,148.001 75.771,148.304 75.947L149.715 76.854C149.715 76.854,149.866 76.93,150.017 76.93C150.143 76.93,150.269 76.905,150.37 76.754C150.446 76.602,150.471 76.527,150.471 76.426C150.471 76.325,150.446 76.25,150.37 76.124"/></g></g><g class="vf-stavenote" id="vf-auto1873"><path stroke-width="1.4" fill="none" stroke="#444" d="M187.579 40L206.72 40"/><path stroke-width="1.4" fill="none" stroke="#444" d="M187.579 30L206.72 30"/><path stroke-width="1.4" fill="none" stroke="#444" d="M187.579 20L206.72 20"/><path stroke-width="1.4" fill="none" stroke="#444" d="M187.579 10L206.72 10"/><g class="vf-notehead" id="vf-auto1893" pointer-events="bounding-box"><path stroke="none" d="M190.579 11.685C190.579 13.426,191.842 15.391,195.099 15.391C199.311 15.391,203.72 11.938,203.72 8.371C203.72 5.985,201.698 4.665,199.199 4.665C195.268 4.665,190.579 7.978,190.579 11.685"/></g></g><g class="vf-stavenote" id="vf-auto1879"><g class="vf-notehead" id="vf-auto1895" pointer-events="bounding-box"><path stroke="none" d="M213.148 81.685C213.148 83.426,214.412 85.391,217.669 85.391C221.881 85.391,226.29 81.938,226.29 78.371C226.29 75.985,224.268 74.665,221.769 74.665C217.838 74.665,213.148 77.978,213.148 81.685"/></g></g><g class="vf-stem" id="vf-auto1846" pointer-events="bounding-box"><path stroke-width="1.5" fill="none" d="M92.838 78L92.838 33.062"/></g><g class="vf-stem" id="vf-auto1852" pointer-events="bounding-box"><path stroke-width="1.5" fill="none" d="M96.573 17L96.573 44.995"/></g><g class="vf-stem" id="vf-auto1858" pointer-events="bounding-box"><path stroke-width="1.5" fill="none" d="M123.592 73L123.592 40.75"/></g><g class="vf-stem" id="vf-auto1864" pointer-events="bounding-box"><path stroke-width="1.5" fill="none" d="M127.327 12L127.327 52.684"/></g><g class="vf-beam" id="vf-auto1897"><path stroke="none" d="M92.088 32.124L92.088 37.124L127.577 45.746L127.577 40.746Z"/><path stroke="none" d="M92.088 39.624L92.088 44.624L127.577 53.246L127.577 48.246Z"/></g><g class="vf-stem" id="vf-auto1874" pointer-events="bounding-box"><path stroke-width="1.5" fill="none" d="M191.329 12L191.329 69.25"/></g><g class="vf-stem" id="vf-auto1880" pointer-events="bounding-box"><path stroke-width="1.5" fill="none" d="M225.54 78L225.54 57.197"/></g><g class="vf-beam" id="vf-auto1898"><path stroke="none" d="M190.579 70.188L190.579 65.188L225.79 56.635L225.79 61.635Z"/></g></svg>