<svg xmlns="http://www.w3.org/2000/svg" stroke-width="0.3" stroke-dasharray="none" fill="black" stroke="black" font-family="Arial, sans-serif" font-size="10pt" font-weight="normal" font-style="normal" width="700" height="155" viewBox="0 0 777.7777777777777 172.22222222222223" style="width: 700px; height: 155px; border: none;"><g class="vf-stave" id="vf-auto34325" stroke-width="1" fill="#999999" stroke="#999999"><path fill="none" d="M10 50L685 50"/><path fill="none" d="M10 60L685 60"/><path fill="none" d="M10 70L685 70"/><path fill="none" d="M10 80L685 80"/><path fill="none" d="M10 90L685 90"/></g><g class="vf-stavebarline" id="vf-auto34326"><rect x="10" y="49.5" width="1" height="41" stroke="none"/></g><g class="vf-stavebarline" id="vf-auto34327"><rect x="685" y="49.5" width="1" height="41" stroke="none"/></g><g class="vf-stavenote" id="vf-auto34328"><path stroke-width="1.4" fill="none" stroke="#444" d="M69 100L123.945 100"/><path stroke-width="1.4" fill="none" stroke="#444" d="M69 110L123.945 110"/><g class="vf-notehead" id="vf-auto34335" pointer-events="bounding-box"><path stroke="none" d="M72.983 124.014C73.629 123.929,73.629 123.087,73.741 122.469L73.741 120.448C73.741 118.201,73.769 115.899,73.769 113.596C73.769 112.304,73.769 110.985,73.685 109.693C73.657 108.654,73.685 107.559,73.207 106.576C73.123 106.351,73.095 105.986,72.814 105.986L72.73 105.986C72.365 106.071,72 106.295,72 106.801C72 107.194,71.972 107.643,72 108.036C72.112 108.963,72.168 109.918,72.168 110.872C72.168 111.799,72.112 112.726,72.112 113.652C72.112 114.101,72.168 114.551,72.168 115C72.197 115.337,72.197 115.674,72.197 116.011L72.197 116.46C72.197 117.415,72.168 118.398,72.168 119.38C72.168 120.504,72.253 121.627,72.534 122.722C72.646 123.171,72.449 124.07,72.983 124.014M95.784 123.817C96.149 123.845,96.345 123.424,96.458 123.087C96.738 122.16,96.879 121.234,96.823 120.251C96.654 117.415,96.598 114.607,96.598 111.771C96.598 110.479,96.598 109.131,96.626 107.84C96.626 107.475,96.514 107.166,96.373 106.829C96.345 106.548,96.233 106.464,96.008 106.464C95.924 106.464,95.812 106.464,95.7 106.548C95.166 106.801,95.082 107.194,95.082 107.559C95.082 107.727,95.082 107.84,95.138 107.952C95.082 108.682,95.082 109.468,95.082 110.226L95.082 115.562C95.222 117.415,95.166 120.223,95.447 122.975C95.503 123.284,95.447 123.733,95.784 123.817M93.257 123.171C94.352 122.16,94.239 120.953,94.267 119.802C94.324 118.678,94.324 117.555,94.324 116.376C94.324 113.989,94.211 111.602,94.071 109.187C94.071 108.907,93.987 108.57,93.874 108.261C93.79 108.092,93.79 107.755,93.509 107.755C93.481 107.755,93.425 107.812,93.397 107.812C93.116 107.896,92.779 107.924,92.751 108.373C92.695 108.935,92.555 109.468,92.583 110.03C92.695 111.49,92.751 112.95,92.695 114.438L92.695 118.005C92.695 118.875,92.751 119.774,92.779 120.672C92.779 121.458,92.863 122.329,93.257 123.171M75.594 122.329C75.791 122.413,75.959 122.188,76.044 122.048C76.38 121.627,76.409 121.178,76.437 120.7C76.521 120.082,76.521 119.437,76.521 118.847C76.521 117.274,76.409 115.73,76.409 114.158C76.409 113.736,76.409 113.315,76.437 112.866L76.437 112.164C76.437 111.041,76.437 109.861,76.38 108.682C76.38 108.401,76.324 107.896,75.847 107.896L75.763 107.896C75.37 107.952,75.061 108.205,75.061 108.766C75.033 109.974,74.92 111.237,74.92 112.445C74.92 113.821,75.061 115.253,75.033 116.629C75.033 117.05,75.033 117.499,75.005 117.948C75.005 118.145,75.005 118.37,74.948 118.566C74.948 119.689,75.201 120.728,75.313 121.88C75.313 122.076,75.398 122.273,75.594 122.329M85.703 121.795C88.708 121.992,91.235 119.661,91.459 117.218L91.459 116.544C91.459 116.011,91.403 115.477,91.375 115C91.207 112.641,89.438 110.395,87.163 109.749C86.265 109.496,85.478 109.384,84.608 109.384C82.193 109.384,79.919 110.423,77.897 112.08C77.504 112.417,77.223 112.866,77.223 113.428C77.223 114.747,77.391 116.039,77.813 117.303C78.318 118.707,78.964 120.082,80.424 120.728C81.996 121.43,83.653 121.739,85.703 121.795M85.759 117.471C85.394 117.471,85.029 117.471,84.608 117.415C83.204 117.387,81.575 117.19,80.059 116.572C79.722 116.46,79.245 116.348,79.245 115.927C79.245 115.562,79.638 115.365,79.919 115.197C81.547 114.354,83.204 113.793,84.861 113.793C85.956 113.793,87.079 114.017,88.286 114.607C89.016 114.972,89.382 115.253,89.353 115.562C89.353 115.842,89.101 116.179,88.623 116.629C87.781 117.303,86.826 117.471,85.759 117.471"/></g><g class="vf-notehead" id="vf-auto34336" pointer-events="bounding-box"><path stroke="none" d="M97.08 119.014C97.726 118.929,97.726 118.087,97.838 117.469L97.838 115.448C97.838 113.201,97.866 110.899,97.866 108.596C97.866 107.304,97.866 105.985,97.782 104.693C97.754 103.654,97.782 102.559,97.305 101.576C97.221 101.351,97.193 100.986,96.912 100.986L96.827 100.986C96.462 101.071,96.097 101.295,96.097 101.801C96.097 102.194,96.069 102.643,96.097 103.036C96.21 103.963,96.266 104.918,96.266 105.872C96.266 106.799,96.21 107.726,96.21 108.652C96.21 109.101,96.266 109.551,96.266 110C96.294 110.337,96.294 110.674,96.294 111.011L96.294 111.46C96.294 112.415,96.266 113.398,96.266 114.38C96.266 115.504,96.35 116.627,96.631 117.722C96.743 118.171,96.547 119.07,97.08 119.014M119.881 118.817C120.246 118.845,120.443 118.424,120.555 118.087C120.836 117.16,120.976 116.234,120.92 115.251C120.752 112.415,120.695 109.607,120.695 106.771C120.695 105.479,120.695 104.131,120.724 102.84C120.724 102.475,120.611 102.166,120.471 101.829C120.443 101.548,120.33 101.464,120.106 101.464C120.022 101.464,119.909 101.464,119.797 101.548C119.263 101.801,119.179 102.194,119.179 102.559C119.179 102.727,119.179 102.84,119.235 102.952C119.179 103.682,119.179 104.468,119.179 105.226L119.179 110.562C119.32 112.415,119.263 115.223,119.544 117.975C119.6 118.284,119.544 118.733,119.881 118.817M117.354 118.171C118.449 117.16,118.337 115.953,118.365 114.802C118.421 113.678,118.421 112.555,118.421 111.376C118.421 108.989,118.309 106.602,118.168 104.187C118.168 103.907,118.084 103.57,117.972 103.261C117.887 103.092,117.887 102.755,117.607 102.755C117.579 102.755,117.522 102.812,117.494 102.812C117.214 102.896,116.877 102.924,116.849 103.373C116.792 103.935,116.652 104.468,116.68 105.03C116.792 106.49,116.849 107.95,116.792 109.438L116.792 113.005C116.792 113.875,116.849 114.774,116.877 115.672C116.877 116.458,116.961 117.329,117.354 118.171M99.692 117.329C99.888 117.413,100.057 117.188,100.141 117.048C100.478 116.627,100.506 116.178,100.534 115.7C100.618 115.082,100.618 114.437,100.618 113.847C100.618 112.274,100.506 110.73,100.506 109.158C100.506 108.736,100.506 108.315,100.534 107.866L100.534 107.164C100.534 106.041,100.534 104.861,100.478 103.682C100.478 103.401,100.422 102.896,99.944 102.896L99.86 102.896C99.467 102.952,99.158 103.205,99.158 103.766C99.13 104.974,99.018 106.237,99.018 107.445C99.018 108.821,99.158 110.253,99.13 111.629C99.13 112.05,99.13 112.499,99.102 112.948C99.102 113.145,99.102 113.37,99.046 113.566C99.046 114.689,99.299 115.728,99.411 116.88C99.411 117.076,99.495 117.273,99.692 117.329M109.8 116.795C112.805 116.992,115.332 114.661,115.557 112.218L115.557 111.544C115.557 111.011,115.501 110.477,115.473 110C115.304 107.641,113.535 105.395,111.261 104.749C110.362 104.496,109.576 104.384,108.705 104.384C106.29 104.384,104.016 105.423,101.994 107.08C101.601 107.417,101.32 107.866,101.32 108.428C101.32 109.747,101.489 111.039,101.91 112.303C102.415 113.707,103.061 115.082,104.521 115.728C106.094 116.43,107.751 116.739,109.8 116.795M109.857 112.471C109.492 112.471,109.127 112.471,108.705 112.415C107.301 112.387,105.673 112.19,104.156 111.572C103.819 111.46,103.342 111.348,103.342 110.927C103.342 110.562,103.735 110.365,104.016 110.197C105.645 109.354,107.301 108.793,108.958 108.793C110.053 108.793,111.176 109.017,112.384 109.607C113.114 109.972,113.479 110.253,113.451 110.562C113.451 110.842,113.198 111.179,112.721 111.629C111.878 112.303,110.924 112.471,109.857 112.471"/></g><g class="vf-notehead" id="vf-auto34337" pointer-events="bounding-box"><path stroke="none" d="M72.983 109.014C73.629 108.929,73.629 108.087,73.741 107.469L73.741 105.448C73.741 103.201,73.769 100.899,73.769 98.596C73.769 97.304,73.769 95.985,73.685 94.693C73.657 93.654,73.685 92.559,73.207 91.576C73.123 91.351,73.095 90.986,72.814 90.986L72.73 90.986C72.365 91.071,72 91.295,72 91.801C72 92.194,71.972 92.643,72 93.036C72.112 93.963,72.168 94.918,72.168 95.872C72.168 96.799,72.112 97.726,72.112 98.652C72.112 99.101,72.168 99.551,72.168 100C72.197 100.337,72.197 100.674,72.197 101.011L72.197 101.46C72.197 102.415,72.168 103.398,72.168 104.38C72.168 105.504,72.253 106.627,72.534 107.722C72.646 108.171,72.449 109.07,72.983 109.014M95.784 108.817C96.149 108.845,96.345 108.424,96.458 108.087C96.738 107.16,96.879 106.234,96.823 105.251C96.654 102.415,96.598 99.607,96.598 96.771C96.598 95.479,96.598 94.131,96.626 92.84C96.626 92.475,96.514 92.166,96.373 91.829C96.345 91.548,96.233 91.464,96.008 91.464C95.924 91.464,95.812 91.464,95.7 91.548C95.166 91.801,95.082 92.194,95.082 92.559C95.082 92.727,95.082 92.84,95.138 92.952C95.082 93.682,95.082 94.468,95.082 95.226L95.082 100.562C95.222 102.415,95.166 105.223,95.447 107.975C95.503 108.284,95.447 108.733,95.784 108.817M93.257 108.171C94.352 107.16,94.239 105.953,94.267 104.802C94.324 103.678,94.324 102.555,94.324 101.376C94.324 98.989,94.211 96.602,94.071 94.187C94.071 93.907,93.987 93.57,93.874 93.261C93.79 93.092,93.79 92.755,93.509 92.755C93.481 92.755,93.425 92.812,93.397 92.812C93.116 92.896,92.779 92.924,92.751 93.373C92.695 93.935,92.555 94.468,92.583 95.03C92.695 96.49,92.751 97.95,92.695 99.438L92.695 103.005C92.695 103.875,92.751 104.774,92.779 105.672C92.779 106.458,92.863 107.329,93.257 108.171M75.594 107.329C75.791 107.413,75.959 107.188,76.044 107.048C76.38 106.627,76.409 106.178,76.437 105.7C76.521 105.082,76.521 104.437,76.521 103.847C76.521 102.274,76.409 100.73,76.409 99.158C76.409 98.736,76.409 98.315,76.437 97.866L76.437 97.164C76.437 96.041,76.437 94.861,76.38 93.682C76.38 93.401,76.324 92.896,75.847 92.896L75.763 92.896C75.37 92.952,75.061 93.205,75.061 93.766C75.033 94.974,74.92 96.237,74.92 97.445C74.92 98.821,75.061 100.253,75.033 101.629C75.033 102.05,75.033 102.499,75.005 102.948C75.005 103.145,75.005 103.37,74.948 103.566C74.948 104.689,75.201 105.728,75.313 106.88C75.313 107.076,75.398 107.273,75.594 107.329M85.703 106.795C88.708 106.992,91.235 104.661,91.459 102.218L91.459 101.544C91.459 101.011,91.403 100.477,91.375 100C91.207 97.641,89.438 95.395,87.163 94.749C86.265 94.496,85.478 94.384,84.608 94.384C82.193 94.384,79.919 95.423,77.897 97.08C77.504 97.417,77.223 97.866,77.223 98.428C77.223 99.747,77.391 101.039,77.813 102.303C78.318 103.707,78.964 105.082,80.424 105.728C81.996 106.43,83.653 106.739,85.703 106.795M85.759 102.471C85.394 102.471,85.029 102.471,84.608 102.415C83.204 102.387,81.575 102.19,80.059 101.572C79.722 101.46,79.245 101.348,79.245 100.927C79.245 100.562,79.638 100.365,79.919 100.197C81.547 99.354,83.204 98.793,84.861 98.793C85.956 98.793,87.079 99.017,88.286 99.607C89.016 99.972,89.382 100.253,89.353 100.562C89.353 100.842,89.101 101.179,88.623 101.629C87.781 102.303,86.826 102.471,85.759 102.471"/></g><g class="vf-notehead" id="vf-auto34338" pointer-events="bounding-box"><path stroke="none" d="M97.08 104.014C97.726 103.929,97.726 103.087,97.838 102.469L97.838 100.448C97.838 98.201,97.866 95.899,97.866 93.596C97.866 92.304,97.866 90.985,97.782 89.693C97.754 88.654,97.782 87.559,97.305 86.576C97.221 86.351,97.193 85.986,96.912 85.986L96.827 85.986C96.462 86.071,96.097 86.295,96.097 86.801C96.097 87.194,96.069 87.643,96.097 88.036C96.21 88.963,96.266 89.918,96.266 90.872C96.266 91.799,96.21 92.726,96.21 93.652C96.21 94.101,96.266 94.551,96.266 95C96.294 95.337,96.294 95.674,96.294 96.011L96.294 96.46C96.294 97.415,96.266 98.398,96.266 99.38C96.266 100.504,96.35 101.627,96.631 102.722C96.743 103.171,96.547 104.07,97.08 104.014M119.881 103.817C120.246 103.845,120.443 103.424,120.555 103.087C120.836 102.16,120.976 101.234,120.92 100.251C120.752 97.415,120.695 94.607,120.695 91.771C120.695 90.479,120.695 89.131,120.724 87.84C120.724 87.475,120.611 87.166,120.471 86.829C120.443 86.548,120.33 86.464,120.106 86.464C120.022 86.464,119.909 86.464,119.797 86.548C119.263 86.801,119.179 87.194,119.179 87.559C119.179 87.727,119.179 87.84,119.235 87.952C119.179 88.682,119.179 89.468,119.179 90.226L119.179 95.562C119.32 97.415,119.263 100.223,119.544 102.975C119.6 103.284,119.544 103.733,119.881 103.817M117.354 103.171C118.449 102.16,118.337 100.953,118.365 99.802C118.421 98.678,118.421 97.555,118.421 96.376C118.421 93.989,118.309 91.602,118.168 89.187C118.168 88.907,118.084 88.57,117.972 88.261C117.887 88.092,117.887 87.755,117.607 87.755C117.579 87.755,117.522 87.812,117.494 87.812C117.214 87.896,116.877 87.924,116.849 88.373C116.792 88.935,116.652 89.468,116.68 90.03C116.792 91.49,116.849 92.95,116.792 94.438L116.792 98.005C116.792 98.875,116.849 99.774,116.877 100.672C116.877 101.458,116.961 102.329,117.354 103.171M99.692 102.329C99.888 102.413,100.057 102.188,100.141 102.048C100.478 101.627,100.506 101.178,100.534 100.7C100.618 100.082,100.618 99.437,100.618 98.847C100.618 97.274,100.506 95.73,100.506 94.158C100.506 93.736,100.506 93.315,100.534 92.866L100.534 92.164C100.534 91.041,100.534 89.861,100.478 88.682C100.478 88.401,100.422 87.896,99.944 87.896L99.86 87.896C99.467 87.952,99.158 88.205,99.158 88.766C99.13 89.974,99.018 91.237,99.018 92.445C99.018 93.821,99.158 95.253,99.13 96.629C99.13 97.05,99.13 97.499,99.102 97.948C99.102 98.145,99.102 98.37,99.046 98.566C99.046 99.689,99.299 100.728,99.411 101.88C99.411 102.076,99.495 102.273,99.692 102.329M109.8 101.795C112.805 101.992,115.332 99.661,115.557 97.218L115.557 96.544C115.557 96.011,115.501 95.477,115.473 95C115.304 92.641,113.535 90.395,111.261 89.749C110.362 89.496,109.576 89.384,108.705 89.384C106.29 89.384,104.016 90.423,101.994 92.08C101.601 92.417,101.32 92.866,101.32 93.428C101.32 94.747,101.489 96.039,101.91 97.303C102.415 98.707,103.061 100.082,104.521 100.728C106.094 101.43,107.751 101.739,109.8 101.795M109.857 97.471C109.492 97.471,109.127 97.471,108.705 97.415C107.301 97.387,105.673 97.19,104.156 96.572C103.819 96.46,103.342 96.348,103.342 95.927C103.342 95.562,103.735 95.365,104.016 95.197C105.645 94.354,107.301 93.793,108.958 93.793C110.053 93.793,111.176 94.017,112.384 94.607C113.114 94.972,113.479 95.253,113.451 95.562C113.451 95.842,113.198 96.179,112.721 96.629C111.878 97.303,110.924 97.471,109.857 97.471"/></g><g class="vf-notehead" id="vf-auto34339" pointer-events="bounding-box"><path stroke="none" d="M72.983 99.014C73.629 98.929,73.629 98.087,73.741 97.469L73.741 95.448C73.741 93.201,73.769 90.899,73.769 88.596C73.769 87.304,73.769 85.985,73.685 84.693C73.657 83.654,73.685 82.559,73.207 81.576C73.123 81.351,73.095 80.986,72.814 80.986L72.73 80.986C72.365 81.071,72 81.295,72 81.801C72 82.194,71.972 82.643,72 83.036C72.112 83.963,72.168 84.918,72.168 85.872C72.168 86.799,72.112 87.726,72.112 88.652C72.112 89.101,72.168 89.551,72.168 90C72.197 90.337,72.197 90.674,72.197 91.011L72.197 91.46C72.197 92.415,72.168 93.398,72.168 94.38C72.168 95.504,72.253 96.627,72.534 97.722C72.646 98.171,72.449 99.07,72.983 99.014M95.784 98.817C96.149 98.845,96.345 98.424,96.458 98.087C96.738 97.16,96.879 96.234,96.823 95.251C96.654 92.415,96.598 89.607,96.598 86.771C96.598 85.479,96.598 84.131,96.626 82.84C96.626 82.475,96.514 82.166,96.373 81.829C96.345 81.548,96.233 81.464,96.008 81.464C95.924 81.464,95.812 81.464,95.7 81.548C95.166 81.801,95.082 82.194,95.082 82.559C95.082 82.727,95.082 82.84,95.138 82.952C95.082 83.682,95.082 84.468,95.082 85.226L95.082 90.562C95.222 92.415,95.166 95.223,95.447 97.975C95.503 98.284,95.447 98.733,95.784 98.817M93.257 98.171C94.352 97.16,94.239 95.953,94.267 94.802C94.324 93.678,94.324 92.555,94.324 91.376C94.324 88.989,94.211 86.602,94.071 84.187C94.071 83.907,93.987 83.57,93.874 83.261C93.79 83.092,93.79 82.755,93.509 82.755C93.481 82.755,93.425 82.812,93.397 82.812C93.116 82.896,92.779 82.924,92.751 83.373C92.695 83.935,92.555 84.468,92.583 85.03C92.695 86.49,92.751 87.95,92.695 89.438L92.695 93.005C92.695 93.875,92.751 94.774,92.779 95.672C92.779 96.458,92.863 97.329,93.257 98.171M75.594 97.329C75.791 97.413,75.959 97.188,76.044 97.048C76.38 96.627,76.409 96.178,76.437 95.7C76.521 95.082,76.521 94.437,76.521 93.847C76.521 92.274,76.409 90.73,76.409 89.158C76.409 88.736,76.409 88.315,76.437 87.866L76.437 87.164C76.437 86.041,76.437 84.861,76.38 83.682C76.38 83.401,76.324 82.896,75.847 82.896L75.763 82.896C75.37 82.952,75.061 83.205,75.061 83.766C75.033 84.974,74.92 86.237,74.92 87.445C74.92 88.821,75.061 90.253,75.033 91.629C75.033 92.05,75.033 92.499,75.005 92.948C75.005 93.145,75.005 93.37,74.948 93.566C74.948 94.689,75.201 95.728,75.313 96.88C75.313 97.076,75.398 97.273,75.594 97.329M85.703 96.795C88.708 96.992,91.235 94.661,91.459 92.218L91.459 91.544C91.459 91.011,91.403 90.477,91.375 90C91.207 87.641,89.438 85.395,87.163 84.749C86.265 84.496,85.478 84.384,84.608 84.384C82.193 84.384,79.919 85.423,77.897 87.08C77.504 87.417,77.223 87.866,77.223 88.428C77.223 89.747,77.391 91.039,77.813 92.303C78.318 93.707,78.964 95.082,80.424 95.728C81.996 96.43,83.653 96.739,85.703 96.795M85.759 92.471C85.394 92.471,85.029 92.471,84.608 92.415C83.204 92.387,81.575 92.19,80.059 91.572C79.722 91.46,79.245 91.348,79.245 90.927C79.245 90.562,79.638 90.365,79.919 90.197C81.547 89.354,83.204 88.793,84.861 88.793C85.956 88.793,87.079 89.017,88.286 89.607C89.016 89.972,89.382 90.253,89.353 90.562C89.353 90.842,89.101 91.179,88.623 91.629C87.781 92.303,86.826 92.471,85.759 92.471"/></g></g><g class="vf-stavenote" id="vf-auto34340"><path stroke-width="1.4" fill="none" stroke="#444" d="M114 100L149.991 100"/><path stroke-width="1.4" fill="none" stroke="#444" d="M114 110L149.991 110"/><g class="vf-notehead" id="vf-auto34347" pointer-events="bounding-box"><path stroke="none" d="M132.36 113.877C132.247 119.24,127.305 122.273,123.262 122.525C122.054 122.61,121.015 121.964,119.864 121.543L118.741 121.065C117.618 120.532,117 119.661,117 118.566C117 118.229,117.028 117.92,117.168 117.555C117.927 115.253,118.938 113.006,120.426 111.041C121.774 109.272,123.992 108.317,126.182 108.317C128.148 108.317,130.113 109.047,131.433 110.563C132.276 111.49,132.416 112.641,132.36 113.877M123.964 118.005C125.284 117.864,126.575 117.471,127.783 116.769C128.288 116.488,128.653 116.123,128.962 115.646C129.131 115.393,129.215 115.168,129.215 114.916C129.215 114.607,129.018 114.326,128.597 114.101C127.558 113.624,126.631 112.95,125.452 112.95C125.171 112.95,124.919 112.978,124.638 113.062C122.813 113.512,121.409 114.438,120.398 115.983C120.285 116.179,120.117 116.404,120.117 116.629C120.117 116.825,120.229 116.994,120.51 117.106C121.605 117.499,122.672 118.005,123.964 118.005"/></g><g class="vf-notehead" id="vf-auto34348" pointer-events="bounding-box"><path stroke="none" d="M146.98 108.877C146.868 114.24,141.926 117.273,137.882 117.525C136.675 117.61,135.636 116.964,134.485 116.543L133.362 116.065C132.238 115.532,131.621 114.661,131.621 113.566C131.621 113.229,131.649 112.92,131.789 112.555C132.547 110.253,133.558 108.006,135.046 106.041C136.394 104.272,138.613 103.317,140.803 103.317C142.768 103.317,144.734 104.047,146.054 105.563C146.896 106.49,147.037 107.641,146.98 108.877M138.584 113.005C139.904 112.864,141.196 112.471,142.403 111.769C142.909 111.488,143.274 111.123,143.583 110.646C143.751 110.393,143.835 110.168,143.835 109.916C143.835 109.607,143.639 109.326,143.218 109.101C142.179 108.624,141.252 107.95,140.073 107.95C139.792 107.95,139.539 107.978,139.258 108.062C137.433 108.512,136.029 109.438,135.018 110.983C134.906 111.179,134.738 111.404,134.738 111.629C134.738 111.825,134.85 111.994,135.131 112.106C136.226 112.499,137.293 113.005,138.584 113.005"/></g><g class="vf-notehead" id="vf-auto34349" pointer-events="bounding-box"><path stroke="none" d="M132.36 98.877C132.247 104.24,127.305 107.273,123.262 107.525C122.054 107.61,121.015 106.964,119.864 106.543L118.741 106.065C117.618 105.532,117 104.661,117 103.566C117 103.229,117.028 102.92,117.168 102.555C117.927 100.253,118.938 98.006,120.426 96.041C121.774 94.272,123.992 93.317,126.182 93.317C128.148 93.317,130.113 94.047,131.433 95.563C132.276 96.49,132.416 97.641,132.36 98.877M123.964 103.005C125.284 102.864,126.575 102.471,127.783 101.769C128.288 101.488,128.653 101.123,128.962 100.646C129.131 100.393,129.215 100.168,129.215 99.916C129.215 99.607,129.018 99.326,128.597 99.101C127.558 98.624,126.631 97.95,125.452 97.95C125.171 97.95,124.919 97.978,124.638 98.062C122.813 98.512,121.409 99.438,120.398 100.983C120.285 101.179,120.117 101.404,120.117 101.629C120.117 101.825,120.229 101.994,120.51 102.106C121.605 102.499,122.672 103.005,123.964 103.005"/></g><g class="vf-notehead" id="vf-auto34350" pointer-events="bounding-box"><path stroke="none" d="M146.98 93.877C146.868 99.24,141.926 102.273,137.882 102.525C136.675 102.61,135.636 101.964,134.485 101.543L133.362 101.065C132.238 100.532,131.621 99.661,131.621 98.566C131.621 98.229,131.649 97.92,131.789 97.555C132.547 95.253,133.558 93.006,135.046 91.041C136.394 89.272,138.613 88.317,140.803 88.317C142.768 88.317,144.734 89.047,146.054 90.563C146.896 91.49,147.037 92.641,146.98 93.877M138.584 98.005C139.904 97.864,141.196 97.471,142.403 96.769C142.909 96.488,143.274 96.123,143.583 95.646C143.751 95.393,143.835 95.168,143.835 94.916C143.835 94.607,143.639 94.326,143.218 94.101C142.179 93.624,141.252 92.95,140.073 92.95C139.792 92.95,139.539 92.978,139.258 93.062C137.433 93.512,136.029 94.438,135.018 95.983C134.906 96.179,134.738 96.404,134.738 96.629C134.738 96.825,134.85 96.994,135.131 97.106C136.226 97.499,137.293 98.005,138.584 98.005"/></g><g class="vf-notehead" id="vf-auto34351" pointer-events="bounding-box"><path stroke="none" d="M132.36 88.877C132.247 94.24,127.305 97.273,123.262 97.525C122.054 97.61,121.015 96.964,119.864 96.543L118.741 96.065C117.618 95.532,117 94.661,117 93.566C117 93.229,117.028 92.92,117.168 92.555C117.927 90.253,118.938 88.006,120.426 86.041C121.774 84.272,123.992 83.317,126.182 83.317C128.148 83.317,130.113 84.047,131.433 85.563C132.276 86.49,132.416 87.641,132.36 88.877M123.964 93.005C125.284 92.864,126.575 92.471,127.783 91.769C128.288 91.488,128.653 91.123,128.962 90.646C129.131 90.393,129.215 90.168,129.215 89.916C129.215 89.607,129.018 89.326,128.597 89.101C127.558 88.624,126.631 87.95,125.452 87.95C125.171 87.95,124.919 87.978,124.638 88.062C122.813 88.512,121.409 89.438,120.398 90.983C120.285 91.179,120.117 91.404,120.117 91.629C120.117 91.825,120.229 91.994,120.51 92.106C121.605 92.499,122.672 93.005,123.964 93.005"/></g></g><g class="vf-stavenote" id="vf-auto34352"><g class="vf-stem" id="vf-auto34353" pointer-events="bounding-box"><path stroke-width="1.5" fill="none" d="M174.756 92.45L174.756 50"/></g><g class="vf-notehead" id="vf-auto34357" pointer-events="bounding-box"><path stroke="none" d="M175.478 93.428C175.422 98.229,171.294 102.048,166.689 102.048C166.015 102.048,165.313 101.964,164.64 101.795C163.207 101.43,162.562 100.391,162.253 98.959C162.084 98.229,162 97.555,162 96.909C162 92.332,165.566 89.384,169.975 88.008C170.115 87.952,170.34 87.924,170.536 87.924C172.502 87.924,175.506 90.226,175.506 92.81C175.506 93.006,175.506 93.231,175.478 93.428M167.981 97.864C169.694 97.274,171.575 96.348,173.204 94.832C173.232 94.803,173.288 94.635,173.288 94.523C173.288 94.382,173.232 94.27,173.204 94.242C172.474 93.512,171.912 92.529,170.733 92.36C170.564 92.332,170.424 92.332,170.199 92.332C168.458 92.332,167.082 93.456,165.65 94.242C164.752 94.747,163.741 95.814,163.938 96.741C164.134 97.752,165.594 97.555,166.521 97.752C166.886 97.836,167.223 97.836,167.981 97.864"/></g><g class="vf-notehead" id="vf-auto34358" pointer-events="bounding-box"><path stroke="none" d="M188.235 88.428C188.179 93.229,184.051 97.048,179.446 97.048C178.772 97.048,178.07 96.964,177.396 96.795C175.964 96.43,175.318 95.391,175.009 93.959C174.841 93.229,174.756 92.555,174.756 91.909C174.756 87.332,178.323 84.384,182.731 83.008C182.872 82.952,183.096 82.924,183.293 82.924C185.258 82.924,188.263 85.226,188.263 87.81C188.263 88.006,188.263 88.231,188.235 88.428M180.738 92.864C182.45 92.274,184.332 91.348,185.96 89.832C185.988 89.803,186.045 89.635,186.045 89.523C186.045 89.382,185.988 89.27,185.96 89.242C185.23 88.512,184.669 87.529,183.489 87.36C183.321 87.332,183.18 87.332,182.956 87.332C181.215 87.332,179.839 88.456,178.407 89.242C177.508 89.747,176.497 90.814,176.694 91.741C176.891 92.752,178.351 92.555,179.277 92.752C179.642 92.836,179.979 92.836,180.738 92.864"/></g><g class="vf-notehead" id="vf-auto34359" pointer-events="bounding-box"><path stroke="none" d="M175.478 83.428C175.422 88.229,171.294 92.048,166.689 92.048C166.015 92.048,165.313 91.964,164.64 91.795C163.207 91.43,162.562 90.391,162.253 88.959C162.084 88.229,162 87.555,162 86.909C162 82.332,165.566 79.384,169.975 78.008C170.115 77.952,170.34 77.924,170.536 77.924C172.502 77.924,175.506 80.226,175.506 82.81C175.506 83.006,175.506 83.231,175.478 83.428M167.981 87.864C169.694 87.274,171.575 86.348,173.204 84.832C173.232 84.803,173.288 84.635,173.288 84.523C173.288 84.382,173.232 84.27,173.204 84.242C172.474 83.512,171.912 82.529,170.733 82.36C170.564 82.332,170.424 82.332,170.199 82.332C168.458 82.332,167.082 83.456,165.65 84.242C164.752 84.747,163.741 85.814,163.938 86.741C164.134 87.752,165.594 87.555,166.521 87.752C166.886 87.836,167.223 87.836,167.981 87.864"/></g></g><g class="vf-stavenote" id="vf-auto34360"><g class="vf-stem" id="vf-auto34361" pointer-events="bounding-box"><path stroke-width="1.5" fill="none" d="M219.758 83L219.758 35"/></g><g class="vf-notehead" id="vf-auto34366" pointer-events="bounding-box"><path stroke="none" d="M210.145 91.543C210.426 91.599,210.678 91.627,210.959 91.627C214.834 91.627,220.619 86.348,220.506 82.08C220.394 81.041,220.422 79.609,218.316 78.766C217.727 78.485,217.081 78.373,216.379 78.373C212.054 78.373,207.365 83.343,207.028 86.657C207.028 86.909,207 87.134,207 87.387C207 89.409,207.899 91.037,210.145 91.543"/></g><g class="vf-notehead" id="vf-auto34367" pointer-events="bounding-box"><path stroke="none" d="M222.903 86.543C223.184 86.599,223.437 86.627,223.717 86.627C227.592 86.627,233.377 81.348,233.265 77.08C233.152 76.041,233.18 74.609,231.074 73.766C230.485 73.485,229.839 73.373,229.137 73.373C224.812 73.373,220.123 78.343,219.786 81.657C219.786 81.909,219.758 82.134,219.758 82.387C219.758 84.409,220.657 86.037,222.903 86.543"/></g><g class="vf-notehead" id="vf-auto34368" pointer-events="bounding-box"><path stroke="none" d="M210.145 81.543C210.426 81.599,210.678 81.627,210.959 81.627C214.834 81.627,220.619 76.348,220.506 72.08C220.394 71.041,220.422 69.609,218.316 68.766C217.727 68.485,217.081 68.373,216.379 68.373C212.054 68.373,207.365 73.343,207.028 76.657C207.028 76.909,207 77.134,207 77.387C207 79.409,207.899 81.037,210.145 81.543"/></g><g class="vf-notehead" id="vf-auto34369" pointer-events="bounding-box"><path stroke="none" d="M222.903 76.543C223.184 76.599,223.437 76.627,223.717 76.627C227.592 76.627,233.377 71.348,233.265 67.08C233.152 66.041,233.18 64.609,231.074 63.766C230.485 63.485,229.839 63.373,229.137 63.373C224.812 63.373,220.123 68.343,219.786 71.657C219.786 71.909,219.758 72.134,219.758 72.387C219.758 74.409,220.657 76.037,222.903 76.543"/></g></g><g class="vf-stavenote" id="vf-auto34370"><path stroke-width="1.4" fill="none" stroke="#444" d="M261.758 40L281.266 40"/><path stroke-width="1.4" fill="none" stroke="#444" d="M249 100L281.266 100"/><path stroke-width="1.4" fill="none" stroke="#444" d="M249 110L268.508 110"/><path stroke-width="1.4" fill="none" stroke="#444" d="M249 120L268.508 120"/><g class="vf-stem" id="vf-auto34371" pointer-events="bounding-box"><path stroke-width="1.5" fill="none" d="M264.758 123L264.758 8"/></g><g class="vf-notehead" id="vf-auto34380" pointer-events="bounding-box"><path stroke="none" d="M255.145 131.543C255.426 131.599,255.678 131.627,255.959 131.627C259.834 131.627,265.619 126.348,265.506 122.08C265.394 121.041,265.422 119.609,263.316 118.766C262.727 118.485,262.081 118.373,261.379 118.373C257.054 118.373,252.365 123.343,252.028 126.657C252.028 126.909,252 127.134,252 127.387C252 129.409,252.899 131.037,255.145 131.543"/></g><g class="vf-notehead" id="vf-auto34381" pointer-events="bounding-box"><path stroke="none" d="M255.145 111.543C255.426 111.599,255.678 111.627,255.959 111.627C259.834 111.627,265.619 106.348,265.506 102.08C265.394 101.041,265.422 99.609,263.316 98.766C262.727 98.485,262.081 98.373,261.379 98.373C257.054 98.373,252.365 103.343,252.028 106.657C252.028 106.909,252 107.134,252 107.387C252 109.409,252.899 111.037,255.145 111.543"/></g><g class="vf-notehead" id="vf-auto34382" pointer-events="bounding-box"><path stroke="none" d="M267.903 106.543C268.184 106.599,268.437 106.627,268.717 106.627C272.592 106.627,278.377 101.348,278.265 97.08C278.152 96.041,278.18 94.609,276.074 93.766C275.485 93.485,274.839 93.373,274.137 93.373C269.812 93.373,265.123 98.343,264.786 101.657C264.786 101.909,264.758 102.134,264.758 102.387C264.758 104.409,265.657 106.037,267.903 106.543"/></g><g class="vf-notehead" id="vf-auto34383" pointer-events="bounding-box"><path stroke="none" d="M255.145 96.543C255.426 96.599,255.678 96.627,255.959 96.627C259.834 96.627,265.619 91.348,265.506 87.08C265.394 86.041,265.422 84.609,263.316 83.766C262.727 83.485,262.081 83.373,261.379 83.373C257.054 83.373,252.365 88.343,252.028 91.657C252.028 91.909,252 92.134,252 92.387C252 94.409,252.899 96.037,255.145 96.543"/></g><g class="vf-notehead" id="vf-auto34384" pointer-events="bounding-box"><path stroke="none" d="M267.903 91.543C268.184 91.599,268.437 91.627,268.717 91.627C272.592 91.627,278.377 86.348,278.265 82.08C278.152 81.041,278.18 79.609,276.074 78.766C275.485 78.485,274.839 78.373,274.137 78.373C269.812 78.373,265.123 83.343,264.786 86.657C264.786 86.909,264.758 87.134,264.758 87.387C264.758 89.409,265.657 91.037,267.903 91.543"/></g><g class="vf-notehead" id="vf-auto34385" pointer-events="bounding-box"><path stroke="none" d="M255.145 51.543C255.426 51.599,255.678 51.627,255.959 51.627C259.834 51.627,265.619 46.348,265.506 42.08C265.394 41.041,265.422 39.609,263.316 38.766C262.727 38.485,262.081 38.373,261.379 38.373C257.054 38.373,252.365 43.343,252.028 46.657C252.028 46.909,252 47.134,252 47.387C252 49.409,252.899 51.037,255.145 51.543"/></g><g class="vf-notehead" id="vf-auto34386" pointer-events="bounding-box"><path stroke="none" d="M267.903 46.543C268.184 46.599,268.437 46.627,268.717 46.627C272.592 46.627,278.377 41.348,278.265 37.08C278.152 36.041,278.18 34.609,276.074 33.766C275.485 33.485,274.839 33.373,274.137 33.373C269.812 33.373,265.123 38.343,264.786 41.657C264.786 41.909,264.758 42.134,264.758 42.387C264.758 44.409,265.657 46.037,267.903 46.543"/></g><path stroke="none" d="M271.449 35.882C272.46 34.73,273.443 33.523,273.864 32.063C274.37 30.49,274.566 28.918,274.566 27.345C274.566 26.278,274.482 25.239,274.313 24.2C273.836 20.747,272.741 17.602,270.551 14.85C269.596 13.642,268.669 12.379,267.687 11.171C266.563 9.711,265.861 8.391,265.833 6.51C265.833 6.145,265.749 5.555,265.749 5.106C265.749 4.376,265.468 3.674,265.187 3L264.991 3C264.177 3.365,264.008 4.011,264.008 4.769L264.008 7.044C264.008 10.16,264.822 12.996,266.704 15.496C267.49 16.422,268.22 17.433,268.978 18.36C270.916 20.662,272.376 23.246,272.657 26.334C272.713 26.896,272.909 27.458,272.909 27.991C272.909 28.272,272.853 28.553,272.741 28.806C272.348 29.676,271.927 30.631,271.197 31.22C270.551 31.754,270.41 32.344,270.41 32.989C270.41 33.326,270.438 33.691,270.466 34.056C270.523 34.59,270.719 35.095,270.747 35.629C270.803 35.966,270.916 36.106,271.056 36.106C271.168 36.106,271.281 36.022,271.449 35.882"/></g><g class="vf-stavenote" id="vf-auto34388"><path stroke-width="1.4" fill="none" stroke="#444" d="M294 100L313.508 100"/><path stroke-width="1.4" fill="none" stroke="#444" d="M294 110L313.508 110"/><g class="vf-stem" id="vf-auto34389" pointer-events="bounding-box"><path stroke-width="1.5" fill="none" d="M309.758 108L309.758 38"/></g><g class="vf-notehead" id="vf-auto34397" pointer-events="bounding-box"><path stroke="none" d="M300.145 116.543C300.426 116.599,300.678 116.627,300.959 116.627C304.834 116.627,310.619 111.348,310.506 107.08C310.394 106.041,310.422 104.609,308.316 103.766C307.727 103.485,307.081 103.373,306.379 103.373C302.054 103.373,297.365 108.343,297.028 111.657C297.028 111.909,297 112.134,297 112.387C297 114.409,297.899 116.037,300.145 116.543"/></g><g class="vf-notehead" id="vf-auto34398" pointer-events="bounding-box"><path stroke="none" d="M300.145 106.543C300.426 106.599,300.678 106.627,300.959 106.627C304.834 106.627,310.619 101.348,310.506 97.08C310.394 96.041,310.422 94.609,308.316 93.766C307.727 93.485,307.081 93.373,306.379 93.373C302.054 93.373,297.365 98.343,297.028 101.657C297.028 101.909,297 102.134,297 102.387C297 104.409,297.899 106.037,300.145 106.543"/></g><g class="vf-notehead" id="vf-auto34399" pointer-events="bounding-box"><path stroke="none" d="M300.145 96.543C300.426 96.599,300.678 96.627,300.959 96.627C304.834 96.627,310.619 91.348,310.506 87.08C310.394 86.041,310.422 84.609,308.316 83.766C307.727 83.485,307.081 83.373,306.379 83.373C302.054 83.373,297.365 88.343,297.028 91.657C297.028 91.909,297 92.134,297 92.387C297 94.409,297.899 96.037,300.145 96.543"/></g><g class="vf-notehead" id="vf-auto34400" pointer-events="bounding-box"><path stroke="none" d="M300.145 86.543C300.426 86.599,300.678 86.627,300.959 86.627C304.834 86.627,310.619 81.348,310.506 77.08C310.394 76.041,310.422 74.609,308.316 73.766C307.727 73.485,307.081 73.373,306.379 73.373C302.054 73.373,297.365 78.343,297.028 81.657C297.028 81.909,297 82.134,297 82.387C297 84.409,297.899 86.037,300.145 86.543"/></g><g class="vf-notehead" id="vf-auto34401" pointer-events="bounding-box"><path stroke="none" d="M312.903 81.543C313.184 81.599,313.437 81.627,313.717 81.627C317.592 81.627,323.377 76.348,323.265 72.08C323.152 71.041,323.18 69.609,321.074 68.766C320.485 68.485,319.839 68.373,319.137 68.373C314.812 68.373,310.123 73.343,309.786 76.657C309.786 76.909,309.758 77.134,309.758 77.387C309.758 79.409,310.657 81.037,312.903 81.543"/></g><g class="vf-notehead" id="vf-auto34402" pointer-events="bounding-box"><path stroke="none" d="M300.145 76.543C300.426 76.599,300.678 76.627,300.959 76.627C304.834 76.627,310.619 71.348,310.506 67.08C310.394 66.041,310.422 64.609,308.316 63.766C307.727 63.485,307.081 63.373,306.379 63.373C302.054 63.373,297.365 68.343,297.028 71.657C297.028 71.909,297 72.134,297 72.387C297 74.409,297.899 76.037,300.145 76.543"/></g><path stroke="none" d="M320.661 66.106C320.886 66.191,321.054 65.966,321.223 65.797C321.419 65.545,321.532 65.264,321.672 64.955C322.037 63.944,322.121 62.877,322.065 61.642C322.037 61.192,322.037 60.631,321.953 60.013C322.121 58.721,322.262 57.43,322.234 56.054C322.262 55.211,322.121 54.228,322.065 53.246C321.897 51.28,321.391 49.427,320.661 47.602C319.398 44.457,316.983 42.182,314.624 39.88C313.501 38.784,312.322 37.717,311.704 36.201C311.367 35.387,311.395 34.488,311.114 33.674C311.03 33.449,311.03 33,310.665 33C310.637 33,310.581 33.028,310.496 33.028C310.131 33.168,309.766 33.281,309.766 33.899C309.766 34.207,309.822 34.544,309.822 34.909C309.57 34.938,309.373 35.022,309.289 35.218C309.177 35.499,309.036 35.78,309.036 36.061C309.008 36.65,309.008 37.156,309.008 37.774C309.008 40.076,309.345 42.351,309.991 44.513C311.142 48.641,313.389 52.122,316.253 55.267C318.836 58.16,320.521 61.473,320.493 65.517C320.493 65.713,320.38 65.994,320.661 66.106M320.605 55.913C320.015 54.594,319.229 53.302,318.303 52.122C316.477 49.736,314.315 47.63,313.08 44.794C312.518 43.502,311.872 42.266,311.423 40.89C311.956 41.761,312.602 42.631,313.389 43.39C314.905 44.934,316.562 46.422,317.938 48.135C319.763 50.438,320.802 53.021,320.605 55.913"/></g><g class="vf-stavenote" id="vf-auto34404"><path stroke-width="1.4" fill="none" stroke="#444" d="M339 100L358.508 100"/><g class="vf-stem" id="vf-auto34405" pointer-events="bounding-box"><path stroke-width="1.5" fill="none" d="M354.758 98L354.758 34"/></g><g class="vf-notehead" id="vf-auto34410" pointer-events="bounding-box"><path stroke="none" d="M345.145 106.543C345.426 106.599,345.678 106.627,345.959 106.627C349.834 106.627,355.619 101.348,355.506 97.08C355.394 96.041,355.422 94.609,353.316 93.766C352.727 93.485,352.081 93.373,351.379 93.373C347.054 93.373,342.365 98.343,342.028 101.657C342.028 101.909,342 102.134,342 102.387C342 104.409,342.899 106.037,345.145 106.543"/></g><g class="vf-notehead" id="vf-auto34411" pointer-events="bounding-box"><path stroke="none" d="M345.145 96.543C345.426 96.599,345.678 96.627,345.959 96.627C349.834 96.627,355.619 91.348,355.506 87.08C355.394 86.041,355.422 84.609,353.316 83.766C352.727 83.485,352.081 83.373,351.379 83.373C347.054 83.373,342.365 88.343,342.028 91.657C342.028 91.909,342 92.134,342 92.387C342 94.409,342.899 96.037,345.145 96.543"/></g><g class="vf-notehead" id="vf-auto34412" pointer-events="bounding-box"><path stroke="none" d="M345.145 81.543C345.426 81.599,345.678 81.627,345.959 81.627C349.834 81.627,355.619 76.348,355.506 72.08C355.394 71.041,355.422 69.609,353.316 68.766C352.727 68.485,352.081 68.373,351.379 68.373C347.054 68.373,342.365 73.343,342.028 76.657C342.028 76.909,342 77.134,342 77.387C342 79.409,342.899 81.037,345.145 81.543"/></g><path stroke="none" d="M363.078 72.342C363.471 72.454,363.668 71.977,363.864 71.64C363.948 71.528,364.005 71.359,364.089 71.247C364.594 69.506,364.875 67.765,364.847 66.052C364.847 64.03,364.454 62.008,363.583 59.987C363.387 59.594,363.274 59.144,363.274 58.667C363.274 58.414,363.274 58.133,363.359 57.881C363.555 57.038,363.668 56.224,363.668 55.438C363.668 55.073,363.64 54.651,363.583 54.258C363.499 53.528,363.218 52.77,363.218 52.04C363.218 51.787,363.218 51.591,363.303 51.338C363.64 50.299,363.78 49.288,363.752 48.39C363.78 43.953,362.095 39.572,358.248 37.242C356.76 36.343,355.412 35.136,355.496 33.058C355.496 32.861,355.356 32.609,355.272 32.468C355.131 32.3,355.131 31.935,354.935 31.963L354.85 31.963C354.626 32.047,354.261 32.131,354.177 32.552C354.092 33.226,353.98 33.928,354.008 34.63C354.12 36.175,354.008 37.635,354.008 39.207C354.008 39.685,354.036 40.218,354.008 40.752C354.008 42.409,354.177 44.065,354.12 45.75C354.12 47.463,354.205 49.148,354.205 50.804C354.205 52.686,354.626 54.427,355.861 55.915C356.648 56.842,357.574 57.572,358.445 58.33C360.916 60.492,362.292 63.244,362.938 66.389C363.022 66.67,363.022 66.979,363.022 67.316C363.022 68.326,362.769 69.337,362.769 70.348C362.769 70.713,362.825 71.106,362.909 71.471C362.994 71.752,362.741 72.258,363.078 72.342M362.011 48.558C361 46.115,358.866 44.88,357.406 43.054C356.928 42.437,356.591 41.791,356.563 40.948C359.091 42.044,362.095 45.554,362.095 47.94C362.095 48.193,362.067 48.39,362.011 48.558M361.73 56.449C360.354 54.539,358.585 53.36,357.125 51.815C356.198 50.804,355.861 49.737,355.833 48.558C355.833 48.109,355.918 47.575,356.002 47.07C358.613 49.737,361.449 52.152,361.73 56.449"/></g><g class="vf-stavenote" id="vf-auto34414"><path stroke-width="1.4" fill="none" stroke="#444" d="M384 100L403.508 100"/><g class="vf-stem" id="vf-auto34415" pointer-events="bounding-box"><path stroke-width="1.5" fill="none" d="M399.758 98L399.758 30"/></g><g class="vf-notehead" id="vf-auto34421" pointer-events="bounding-box"><path stroke="none" d="M390.145 106.543C390.426 106.599,390.678 106.627,390.959 106.627C394.834 106.627,400.619 101.348,400.506 97.08C400.394 96.041,400.422 94.609,398.316 93.766C397.727 93.485,397.081 93.373,396.379 93.373C392.054 93.373,387.365 98.343,387.028 101.657C387.028 101.909,387 102.134,387 102.387C387 104.409,387.899 106.037,390.145 106.543"/></g><g class="vf-notehead" id="vf-auto34422" pointer-events="bounding-box"><path stroke="none" d="M390.145 96.543C390.426 96.599,390.678 96.627,390.959 96.627C394.834 96.627,400.619 91.348,400.506 87.08C400.394 86.041,400.422 84.609,398.316 83.766C397.727 83.485,397.081 83.373,396.379 83.373C392.054 83.373,387.365 88.343,387.028 91.657C387.028 91.909,387 92.134,387 92.387C387 94.409,387.899 96.037,390.145 96.543"/></g><g class="vf-notehead" id="vf-auto34423" pointer-events="bounding-box"><path stroke="none" d="M390.145 81.543C390.426 81.599,390.678 81.627,390.959 81.627C394.834 81.627,400.619 76.348,400.506 72.08C400.394 71.041,400.422 69.609,398.316 68.766C397.727 68.485,397.081 68.373,396.379 68.373C392.054 68.373,387.365 73.343,387.028 76.657C387.028 76.909,387 77.134,387 77.387C387 79.409,387.899 81.037,390.145 81.543"/></g><g class="vf-notehead" id="vf-auto34424" pointer-events="bounding-box"><path stroke="none" d="M402.903 81.543C403.184 81.599,403.437 81.627,403.717 81.627C407.592 81.627,413.377 76.348,413.265 72.08C413.152 71.041,413.18 69.609,411.074 68.766C410.485 68.485,409.839 68.373,409.137 68.373C404.812 68.373,400.123 73.343,399.786 76.657C399.786 76.909,399.758 77.134,399.758 77.387C399.758 79.409,400.657 81.037,402.903 81.543"/></g><path stroke="none" d="M408.836 71.275C409.229 71.387,409.51 70.994,409.678 70.629C410.212 69.422,410.409 68.074,410.409 66.698C410.409 64.536,409.791 62.458,409.089 60.408C408.92 60.043,408.78 59.678,408.78 59.228C408.78 59.144,408.836 59.032,408.836 58.892C409.005 57.768,409.201 56.645,409.201 55.438C409.201 55.073,409.201 54.651,409.117 54.286C409.089 54.09,409.089 53.921,409.089 53.725C409.089 53.051,409.285 52.405,409.482 51.759C409.847 50.468,410.044 49.092,410.044 47.716C410.044 46.986,409.959 46.256,409.875 45.554C409.735 44.15,408.78 42.858,408.78 41.566C408.78 41.37,408.78 41.117,408.864 40.92C408.864 40.555,408.92 40.19,408.92 39.825C408.92 38.73,408.78 37.832,408.583 36.961C408.078 34.967,406.814 33.395,405.354 31.963C404.091 30.755,402.574 29.913,401.423 28.565C401.03 28.088,400.749 27.61,400.749 26.908C400.749 26.122,400.552 25.252,400.187 24.494C400.047 24.297,400.019 23.96,399.766 23.96C399.738 23.96,399.738 23.96,399.682 24.016C399.401 24.044,399.036 24.185,398.98 24.522C398.896 24.887,398.84 25.224,398.84 25.532L398.84 25.785C398.98 26.684,398.98 27.554,398.98 28.425L398.98 30.531C398.98 31.542,399.008 32.581,399.177 33.62C399.345 34.715,399.373 35.894,399.373 37.017L399.373 38.983C399.373 39.46,399.401 39.909,399.401 40.387C399.542 42.212,399.935 43.981,399.822 45.75C399.682 47.379,399.57 49.007,399.57 50.58C399.57 51.394,399.626 52.18,399.682 52.995C399.85 54.988,400.665 56.645,402.209 57.881C403.024 58.555,403.81 59.2,404.54 59.902C407.46 62.823,408.583 66.389,408.668 70.376C408.668 70.545,408.64 70.741,408.64 70.91C408.64 71.022,408.668 71.191,408.836 71.275M407.067 40.471C404.231 38.477,401.226 36.652,400.749 32.581C402.406 33.956,403.894 35.248,405.438 36.54C406.197 37.186,406.702 38.084,407.123 38.927C407.264 39.179,407.292 39.376,407.292 39.572C407.292 39.853,407.207 40.134,407.067 40.471M407.376 49.513C405.691 47.856,403.95 46.284,402.322 44.599C401.311 43.532,401.198 42.128,401.142 40.471C402.855 42.296,404.708 43.672,406.534 45.076C407.544 45.834,408.274 46.845,408.274 48.109C408.274 48.474,408.19 48.867,408.078 49.288C407.938 49.597,407.853 49.737,407.741 49.737C407.629 49.737,407.488 49.653,407.376 49.513M407.432 57.403C405.832 55.297,403.726 54.146,402.293 52.265C401.648 51.478,401.311 50.58,401.311 49.457C401.311 49.148,401.311 48.867,401.367 48.642C402.799 50.664,404.793 51.815,406.281 53.528C407.067 54.371,407.46 55.382,407.46 56.729C407.46 56.926,407.46 57.179,407.432 57.403"/></g><g class="vf-stavenote" id="vf-auto34426"><path stroke-width="1.4" fill="none" stroke="#444" d="M429 100L448.506 100"/><path stroke-width="1.4" fill="none" stroke="#444" d="M429 110L448.506 110"/><g class="vf-stem" id="vf-auto34427" pointer-events="bounding-box"><path stroke-width="1.5" fill="none" d="M432.75 92.65L432.75 150"/></g><g class="vf-notehead" id="vf-auto34435" pointer-events="bounding-box"><path stroke="none" d="M445.478 113.428C445.422 118.229,441.294 122.048,436.689 122.048C436.015 122.048,435.313 121.964,434.64 121.795C433.207 121.43,432.562 120.391,432.253 118.959C432.084 118.229,432 117.555,432 116.909C432 112.332,435.566 109.384,439.975 108.008C440.115 107.952,440.34 107.924,440.536 107.924C442.502 107.924,445.506 110.226,445.506 112.81C445.506 113.006,445.506 113.231,445.478 113.428M437.981 117.864C439.694 117.274,441.575 116.348,443.204 114.832C443.232 114.803,443.288 114.635,443.288 114.523C443.288 114.382,443.232 114.27,443.204 114.242C442.474 113.512,441.912 112.529,440.733 112.36C440.564 112.332,440.424 112.332,440.199 112.332C438.458 112.332,437.082 113.456,435.65 114.242C434.752 114.747,433.741 115.814,433.938 116.741C434.134 117.752,435.594 117.555,436.521 117.752C436.886 117.836,437.223 117.836,437.981 117.864"/></g><g class="vf-notehead" id="vf-auto34434" pointer-events="bounding-box"><path stroke="none" d="M445.478 98.428C445.422 103.229,441.294 107.048,436.689 107.048C436.015 107.048,435.313 106.964,434.64 106.795C433.207 106.43,432.562 105.391,432.253 103.959C432.084 103.229,432 102.555,432 101.909C432 97.332,435.566 94.384,439.975 93.008C440.115 92.952,440.34 92.924,440.536 92.924C442.502 92.924,445.506 95.226,445.506 97.81C445.506 98.006,445.506 98.231,445.478 98.428M437.981 102.864C439.694 102.274,441.575 101.348,443.204 99.832C443.232 99.803,443.288 99.635,443.288 99.523C443.288 99.382,443.232 99.27,443.204 99.242C442.474 98.512,441.912 97.529,440.733 97.36C440.564 97.332,440.424 97.332,440.199 97.332C438.458 97.332,437.082 98.456,435.65 99.242C434.752 99.747,433.741 100.814,433.938 101.741C434.134 102.752,435.594 102.555,436.521 102.752C436.886 102.836,437.223 102.836,437.981 102.864"/></g><g class="vf-notehead" id="vf-auto34433" pointer-events="bounding-box"><path stroke="none" d="M432.722 93.428C432.666 98.229,428.538 102.048,423.933 102.048C423.259 102.048,422.557 101.964,421.883 101.795C420.451 101.43,419.805 100.391,419.496 98.959C419.328 98.229,419.244 97.555,419.244 96.909C419.244 92.332,422.81 89.384,427.218 88.008C427.359 87.952,427.583 87.924,427.78 87.924C429.745 87.924,432.75 90.226,432.75 92.81C432.75 93.006,432.75 93.231,432.722 93.428M425.225 97.864C426.937 97.274,428.819 96.348,430.447 94.832C430.476 94.803,430.532 94.635,430.532 94.523C430.532 94.382,430.476 94.27,430.447 94.242C429.717 93.512,429.156 92.529,427.976 92.36C427.808 92.332,427.668 92.332,427.443 92.332C425.702 92.332,424.326 93.456,422.894 94.242C421.995 94.747,420.984 95.814,421.181 96.741C421.378 97.752,422.838 97.555,423.764 97.752C424.129 97.836,424.466 97.836,425.225 97.864"/></g><g class="vf-notehead" id="vf-auto34432" pointer-events="bounding-box"><path stroke="none" d="M445.478 88.428C445.422 93.229,441.294 97.048,436.689 97.048C436.015 97.048,435.313 96.964,434.64 96.795C433.207 96.43,432.562 95.391,432.253 93.959C432.084 93.229,432 92.555,432 91.909C432 87.332,435.566 84.384,439.975 83.008C440.115 82.952,440.34 82.924,440.536 82.924C442.502 82.924,445.506 85.226,445.506 87.81C445.506 88.006,445.506 88.231,445.478 88.428M437.981 92.864C439.694 92.274,441.575 91.348,443.204 89.832C443.232 89.803,443.288 89.635,443.288 89.523C443.288 89.382,443.232 89.27,443.204 89.242C442.474 88.512,441.912 87.529,440.733 87.36C440.564 87.332,440.424 87.332,440.199 87.332C438.458 87.332,437.082 88.456,435.65 89.242C434.752 89.747,433.741 90.814,433.938 91.741C434.134 92.752,435.594 92.555,436.521 92.752C436.886 92.836,437.223 92.836,437.981 92.864"/></g></g><g class="vf-stavenote" id="vf-auto34436"><g class="vf-stem" id="vf-auto34437" pointer-events="bounding-box"><path stroke-width="1.5" fill="none" d="M477.75 87L477.75 130"/></g><g class="vf-notehead" id="vf-auto34443" pointer-events="bounding-box"><path stroke="none" d="M480.145 101.543C480.426 101.599,480.678 101.627,480.959 101.627C484.834 101.627,490.619 96.348,490.506 92.08C490.394 91.041,490.422 89.609,488.316 88.766C487.727 88.485,487.081 88.373,486.379 88.373C482.054 88.373,477.365 93.343,477.028 96.657C477.028 96.909,477 97.134,477 97.387C477 99.409,477.899 101.037,480.145 101.543"/></g><g class="vf-notehead" id="vf-auto34442" pointer-events="bounding-box"><path stroke="none" d="M467.387 96.543C467.668 96.599,467.92 96.627,468.201 96.627C472.076 96.627,477.861 91.348,477.748 87.08C477.636 86.041,477.664 84.609,475.558 83.766C474.968 83.485,474.323 83.373,473.621 83.373C469.296 83.373,464.607 88.343,464.27 91.657C464.27 91.909,464.242 92.134,464.242 92.387C464.242 94.409,465.14 96.037,467.387 96.543"/></g><g class="vf-notehead" id="vf-auto34441" pointer-events="bounding-box"><path stroke="none" d="M480.145 91.543C480.426 91.599,480.678 91.627,480.959 91.627C484.834 91.627,490.619 86.348,490.506 82.08C490.394 81.041,490.422 79.609,488.316 78.766C487.727 78.485,487.081 78.373,486.379 78.373C482.054 78.373,477.365 83.343,477.028 86.657C477.028 86.909,477 87.134,477 87.387C477 89.409,477.899 91.037,480.145 91.543"/></g></g><g class="vf-stavenote" id="vf-auto34444"><g class="vf-stem" id="vf-auto34445" pointer-events="bounding-box"><path stroke-width="1.5" fill="none" d="M522.75 72L522.75 117"/></g><g class="vf-notehead" id="vf-auto34454" pointer-events="bounding-box"><path stroke="none" d="M512.387 91.543C512.668 91.599,512.92 91.627,513.201 91.627C517.076 91.627,522.861 86.348,522.748 82.08C522.636 81.041,522.664 79.609,520.558 78.766C519.968 78.485,519.323 78.373,518.621 78.373C514.296 78.373,509.607 83.343,509.27 86.657C509.27 86.909,509.242 87.134,509.242 87.387C509.242 89.409,510.14 91.037,512.387 91.543"/></g><g class="vf-notehead" id="vf-auto34453" pointer-events="bounding-box"><path stroke="none" d="M525.145 86.543C525.426 86.599,525.678 86.627,525.959 86.627C529.834 86.627,535.619 81.348,535.506 77.08C535.394 76.041,535.422 74.609,533.316 73.766C532.727 73.485,532.081 73.373,531.379 73.373C527.054 73.373,522.365 78.343,522.028 81.657C522.028 81.909,522 82.134,522 82.387C522 84.409,522.899 86.037,525.145 86.543"/></g><g class="vf-notehead" id="vf-auto34452" pointer-events="bounding-box"><path stroke="none" d="M512.387 81.543C512.668 81.599,512.92 81.627,513.201 81.627C517.076 81.627,522.861 76.348,522.748 72.08C522.636 71.041,522.664 69.609,520.558 68.766C519.968 68.485,519.323 68.373,518.621 68.373C514.296 68.373,509.607 73.343,509.27 76.657C509.27 76.909,509.242 77.134,509.242 77.387C509.242 79.409,510.14 81.037,512.387 81.543"/></g><g class="vf-notehead" id="vf-auto34451" pointer-events="bounding-box"><path stroke="none" d="M525.145 76.543C525.426 76.599,525.678 76.627,525.959 76.627C529.834 76.627,535.619 71.348,535.506 67.08C535.394 66.041,535.422 64.609,533.316 63.766C532.727 63.485,532.081 63.373,531.379 63.373C527.054 63.373,522.365 68.343,522.028 71.657C522.028 71.909,522 72.134,522 72.387C522 74.409,522.899 76.037,525.145 76.543"/></g><path stroke="none" d="M529.441 89.118C529.273 88.978,529.16 88.894,529.048 88.894C528.908 88.894,528.795 89.034,528.739 89.371C528.711 89.905,528.515 90.41,528.458 90.944C528.43 91.309,528.402 91.674,528.402 92.011C528.402 92.656,528.543 93.246,529.188 93.78C529.919 94.369,530.34 95.324,530.733 96.194C530.845 96.447,530.901 96.728,530.901 97.009C530.901 97.542,530.705 98.104,530.649 98.666C530.368 101.754,528.908 104.338,526.97 106.64C526.212 107.567,525.482 108.578,524.696 109.504C522.814 112.004,522 114.84,522 117.956L522 120.231C522 120.989,522.168 121.635,522.983 122L523.179 122C523.46 121.326,523.741 120.624,523.741 119.894C523.741 119.445,523.657 119.08,523.657 118.715C523.685 116.861,524.555 115.289,525.678 113.829C526.661 112.621,527.588 111.358,528.543 110.15C530.733 107.398,531.828 104.253,532.305 100.8C532.474 99.761,532.558 98.722,532.558 97.655C532.558 96.082,532.362 94.51,531.856 92.937C531.435 91.477,530.452 90.27,529.441 89.118"/></g><g class="vf-stavenote" id="vf-auto34456"><path stroke-width="1.4" fill="none" stroke="#444" d="M551.242 100L570.75 100"/><g class="vf-stem" id="vf-auto34457" pointer-events="bounding-box"><path stroke-width="1.5" fill="none" d="M567.75 77L567.75 132"/></g><g class="vf-notehead" id="vf-auto34470" pointer-events="bounding-box"><path stroke="none" d="M557.387 106.543C557.668 106.599,557.92 106.627,558.201 106.627C562.076 106.627,567.861 101.348,567.748 97.08C567.636 96.041,567.664 94.609,565.558 93.766C564.968 93.485,564.323 93.373,563.621 93.373C559.296 93.373,554.607 98.343,554.27 101.657C554.27 101.909,554.242 102.134,554.242 102.387C554.242 104.409,555.14 106.037,557.387 106.543"/></g><g class="vf-notehead" id="vf-auto34469" pointer-events="bounding-box"><path stroke="none" d="M570.145 101.543C570.426 101.599,570.678 101.627,570.959 101.627C574.834 101.627,580.619 96.348,580.506 92.08C580.394 91.041,580.422 89.609,578.316 88.766C577.727 88.485,577.081 88.373,576.379 88.373C572.054 88.373,567.365 93.343,567.028 96.657C567.028 96.909,567 97.134,567 97.387C567 99.409,567.899 101.037,570.145 101.543"/></g><g class="vf-notehead" id="vf-auto34468" pointer-events="bounding-box"><path stroke="none" d="M557.387 96.543C557.668 96.599,557.92 96.627,558.201 96.627C562.076 96.627,567.861 91.348,567.748 87.08C567.636 86.041,567.664 84.609,565.558 83.766C564.968 83.485,564.323 83.373,563.621 83.373C559.296 83.373,554.607 88.343,554.27 91.657C554.27 91.909,554.242 92.134,554.242 92.387C554.242 94.409,555.14 96.037,557.387 96.543"/></g><g class="vf-notehead" id="vf-auto34467" pointer-events="bounding-box"><path stroke="none" d="M570.145 91.543C570.426 91.599,570.678 91.627,570.959 91.627C574.834 91.627,580.619 86.348,580.506 82.08C580.394 81.041,580.422 79.609,578.316 78.766C577.727 78.485,577.081 78.373,576.379 78.373C572.054 78.373,567.365 83.343,567.028 86.657C567.028 86.909,567 87.134,567 87.387C567 89.409,567.899 91.037,570.145 91.543"/></g><g class="vf-notehead" id="vf-auto34466" pointer-events="bounding-box"><path stroke="none" d="M557.387 86.543C557.668 86.599,557.92 86.627,558.201 86.627C562.076 86.627,567.861 81.348,567.748 77.08C567.636 76.041,567.664 74.609,565.558 73.766C564.968 73.485,564.323 73.373,563.621 73.373C559.296 73.373,554.607 78.343,554.27 81.657C554.27 81.909,554.242 82.134,554.242 82.387C554.242 84.409,555.14 86.037,557.387 86.543"/></g><g class="vf-notehead" id="vf-auto34465" pointer-events="bounding-box"><path stroke="none" d="M570.145 81.543C570.426 81.599,570.678 81.627,570.959 81.627C574.834 81.627,580.619 76.348,580.506 72.08C580.394 71.041,580.422 69.609,578.316 68.766C577.727 68.485,577.081 68.373,576.379 68.373C572.054 68.373,567.365 73.343,567.028 76.657C567.028 76.909,567 77.134,567 77.387C567 79.409,567.899 81.037,570.145 81.543"/></g><path stroke="none" d="M568.657 137C569.022 137,569.022 136.551,569.106 136.326C569.387 135.512,569.359 134.613,569.696 133.799C570.313 132.283,571.493 131.216,572.616 130.12C574.975 127.818,577.39 125.543,578.653 122.398C579.383 120.573,579.889 118.72,580.057 116.754C580.113 115.772,580.254 114.789,580.226 113.946C580.254 112.57,580.113 111.279,579.945 109.987C580.029 109.369,580.029 108.808,580.057 108.358C580.113 107.123,580.029 106.056,579.664 105.045C579.524 104.736,579.411 104.455,579.215 104.203C579.102 104.09,578.934 103.894,578.737 103.894L578.653 103.894C578.485 103.978,578.457 104.034,578.457 104.174C578.457 104.287,578.485 104.399,578.485 104.483C578.513 108.527,576.828 111.84,574.245 114.733C571.38 117.878,569.134 121.359,567.983 125.487C567.337 127.649,567 129.924,567 132.226L567 134.529C567 135.006,567.168 136.354,567.814 136.803C567.927 136.888,568.629 137,568.657 137M569.415 129.11C569.864 127.734,570.51 126.498,571.072 125.206C572.307 122.37,574.469 120.264,576.294 117.878C577.221 116.698,578.007 115.406,578.597 114.087C578.597 114.311,578.653 114.564,578.653 114.789C578.653 117.4,577.586 119.787,575.929 121.865C574.554 123.578,572.897 125.066,571.38 126.61C570.594 127.369,569.948 128.239,569.415 129.11"/></g><g class="vf-stavenote" id="vf-auto34472"><path stroke-width="1.4" fill="none" stroke="#444" d="M596.242 40L628.508 40"/><path stroke-width="1.4" fill="none" stroke="#444" d="M609 30L628.508 30"/><path stroke-width="1.4" fill="none" stroke="#444" d="M609 20L628.508 20"/><path stroke-width="1.4" fill="none" stroke="#444" d="M596.242 100L628.508 100"/><g class="vf-stem" id="vf-auto34473" pointer-events="bounding-box"><path stroke-width="1.5" fill="none" d="M612.75 22L612.75 146"/></g><g class="vf-notehead" id="vf-auto34488" pointer-events="bounding-box"><path stroke="none" d="M602.387 111.543C602.668 111.599,602.92 111.627,603.201 111.627C607.076 111.627,612.861 106.348,612.748 102.08C612.636 101.041,612.664 99.609,610.558 98.766C609.968 98.485,609.323 98.373,608.621 98.373C604.296 98.373,599.607 103.343,599.27 106.657C599.27 106.909,599.242 107.134,599.242 107.387C599.242 109.409,600.14 111.037,602.387 111.543"/></g><g class="vf-notehead" id="vf-auto34487" pointer-events="bounding-box"><path stroke="none" d="M615.145 106.543C615.426 106.599,615.678 106.627,615.959 106.627C619.834 106.627,625.619 101.348,625.506 97.08C625.394 96.041,625.422 94.609,623.316 93.766C622.727 93.485,622.081 93.373,621.379 93.373C617.054 93.373,612.365 98.343,612.028 101.657C612.028 101.909,612 102.134,612 102.387C612 104.409,612.899 106.037,615.145 106.543"/></g><g class="vf-notehead" id="vf-auto34486" pointer-events="bounding-box"><path stroke="none" d="M615.145 96.543C615.426 96.599,615.678 96.627,615.959 96.627C619.834 96.627,625.619 91.348,625.506 87.08C625.394 86.041,625.422 84.609,623.316 83.766C622.727 83.485,622.081 83.373,621.379 83.373C617.054 83.373,612.365 88.343,612.028 91.657C612.028 91.909,612 92.134,612 92.387C612 94.409,612.899 96.037,615.145 96.543"/></g><g class="vf-notehead" id="vf-auto34485" pointer-events="bounding-box"><path stroke="none" d="M615.145 81.543C615.426 81.599,615.678 81.627,615.959 81.627C619.834 81.627,625.619 76.348,625.506 72.08C625.394 71.041,625.422 69.609,623.316 68.766C622.727 68.485,622.081 68.373,621.379 68.373C617.054 68.373,612.365 73.343,612.028 76.657C612.028 76.909,612 77.134,612 77.387C612 79.409,612.899 81.037,615.145 81.543"/></g><g class="vf-notehead" id="vf-auto34484" pointer-events="bounding-box"><path stroke="none" d="M602.387 41.543C602.668 41.599,602.92 41.627,603.201 41.627C607.076 41.627,612.861 36.348,612.748 32.08C612.636 31.041,612.664 29.609,610.558 28.766C609.968 28.485,609.323 28.373,608.621 28.373C604.296 28.373,599.607 33.343,599.27 36.657C599.27 36.909,599.242 37.134,599.242 37.387C599.242 39.409,600.14 41.037,602.387 41.543"/></g><g class="vf-notehead" id="vf-auto34483" pointer-events="bounding-box"><path stroke="none" d="M615.145 36.543C615.426 36.599,615.678 36.627,615.959 36.627C619.834 36.627,625.619 31.348,625.506 27.08C625.394 26.041,625.422 24.609,623.316 23.766C622.727 23.485,622.081 23.373,621.379 23.373C617.054 23.373,612.365 28.343,612.028 31.657C612.028 31.909,612 32.134,612 32.387C612 34.409,612.899 36.037,615.145 36.543"/></g><g class="vf-notehead" id="vf-auto34482" pointer-events="bounding-box"><path stroke="none" d="M615.145 26.543C615.426 26.599,615.678 26.627,615.959 26.627C619.834 26.627,625.619 21.348,625.506 17.08C625.394 16.041,625.422 14.609,623.316 13.766C622.727 13.485,622.081 13.373,621.379 13.373C617.054 13.373,612.365 18.343,612.028 21.657C612.028 21.909,612 22.134,612 22.387C612 24.409,612.899 26.037,615.145 26.543"/></g><path stroke="none" d="M621.07 108.472C620.733 108.557,620.986 109.034,620.901 109.315C620.817 109.68,620.761 110.101,620.761 110.466C620.761 111.477,621.014 112.488,621.014 113.499C621.014 113.808,621.014 114.145,620.929 114.425C620.284 117.57,618.908 120.322,616.437 122.456C615.566 123.243,614.64 123.973,613.853 124.899C612.618 126.388,612.197 128.128,612.197 129.982C612.197 131.638,612.112 133.351,612.112 135.036C612.168 136.749,611.719 138.153,611.972 139.81C612 140.343,612 141.101,612 141.607L612 146.156C612 146.886,612.084 147.588,612.168 148.262C612.253 148.683,612.618 148.739,612.842 148.823L612.927 148.823C613.123 148.88,613.123 148.515,613.264 148.346C613.348 148.178,613.488 147.953,613.488 147.728C613.404 145.678,614.752 144.471,616.24 143.572C620.087 141.242,621.772 136.861,621.744 132.425C621.772 131.526,621.631 130.515,621.294 129.476C621.21 129.224,621.21 129.027,621.21 128.774C621.21 128.044,621.491 127.286,621.575 126.556C621.631 126.163,621.66 125.742,621.66 125.377C621.66 124.562,621.547 123.776,621.351 122.906C621.266 122.681,621.266 122.4,621.266 122.147C621.266 121.67,621.379 121.221,621.575 120.8C622.446 118.778,622.839 116.756,622.839 114.734C622.867 113.05,622.586 111.309,622.081 109.568C621.996 109.455,621.94 109.287,621.856 109.174C621.66 108.838,621.463 108.36,621.07 108.472M619.722 124.366C619.441 128.662,616.605 131.077,613.994 133.744C613.909 133.239,613.825 132.706,613.825 132.256C613.853 131.077,614.19 129.982,615.117 128.971C616.577 127.455,618.346 126.275,619.722 124.366M620.003 132.256C620.059 132.425,620.087 132.621,620.087 132.874C620.087 135.261,617.082 138.771,614.555 139.866C614.583 138.995,614.92 138.35,615.398 137.76C616.858 135.935,618.992 134.671,620.003 132.256"/></g><g class="vf-stavenote" id="vf-auto34490"><path stroke-width="1.4" fill="none" stroke="#444" d="M641.242 40L673.508 40"/><path stroke-width="1.4" fill="none" stroke="#444" d="M641.242 30L673.508 30"/><path stroke-width="1.4" fill="none" stroke="#444" d="M641.242 20L673.508 20"/><path stroke-width="1.4" fill="none" stroke="#444" d="M641.242 100L673.508 100"/><g class="vf-stem" id="vf-auto34491" pointer-events="bounding-box"><path stroke-width="1.5" fill="none" d="M657.75 22L657.75 150"/></g><g class="vf-notehead" id="vf-auto34508" pointer-events="bounding-box"><path stroke="none" d="M647.387 111.543C647.668 111.599,647.92 111.627,648.201 111.627C652.076 111.627,657.861 106.348,657.748 102.08C657.636 101.041,657.664 99.609,655.558 98.766C654.968 98.485,654.323 98.373,653.621 98.373C649.296 98.373,644.607 103.343,644.27 106.657C644.27 106.909,644.242 107.134,644.242 107.387C644.242 109.409,645.14 111.037,647.387 111.543"/></g><g class="vf-notehead" id="vf-auto34507" pointer-events="bounding-box"><path stroke="none" d="M660.145 106.543C660.426 106.599,660.678 106.627,660.959 106.627C664.834 106.627,670.619 101.348,670.506 97.08C670.394 96.041,670.422 94.609,668.316 93.766C667.727 93.485,667.081 93.373,666.379 93.373C662.054 93.373,657.365 98.343,657.028 101.657C657.028 101.909,657 102.134,657 102.387C657 104.409,657.899 106.037,660.145 106.543"/></g><g class="vf-notehead" id="vf-auto34506" pointer-events="bounding-box"><path stroke="none" d="M660.145 96.543C660.426 96.599,660.678 96.627,660.959 96.627C664.834 96.627,670.619 91.348,670.506 87.08C670.394 86.041,670.422 84.609,668.316 83.766C667.727 83.485,667.081 83.373,666.379 83.373C662.054 83.373,657.365 88.343,657.028 91.657C657.028 91.909,657 92.134,657 92.387C657 94.409,657.899 96.037,660.145 96.543"/></g><g class="vf-notehead" id="vf-auto34505" pointer-events="bounding-box"><path stroke="none" d="M660.145 81.543C660.426 81.599,660.678 81.627,660.959 81.627C664.834 81.627,670.619 76.348,670.506 72.08C670.394 71.041,670.422 69.609,668.316 68.766C667.727 68.485,667.081 68.373,666.379 68.373C662.054 68.373,657.365 73.343,657.028 76.657C657.028 76.909,657 77.134,657 77.387C657 79.409,657.899 81.037,660.145 81.543"/></g><g class="vf-notehead" id="vf-auto34504" pointer-events="bounding-box"><path stroke="none" d="M647.387 41.543C647.668 41.599,647.92 41.627,648.201 41.627C652.076 41.627,657.861 36.348,657.748 32.08C657.636 31.041,657.664 29.609,655.558 28.766C654.968 28.485,654.323 28.373,653.621 28.373C649.296 28.373,644.607 33.343,644.27 36.657C644.27 36.909,644.242 37.134,644.242 37.387C644.242 39.409,645.14 41.037,647.387 41.543"/></g><g class="vf-notehead" id="vf-auto34503" pointer-events="bounding-box"><path stroke="none" d="M660.145 36.543C660.426 36.599,660.678 36.627,660.959 36.627C664.834 36.627,670.619 31.348,670.506 27.08C670.394 26.041,670.422 24.609,668.316 23.766C667.727 23.485,667.081 23.373,666.379 23.373C662.054 23.373,657.365 28.343,657.028 31.657C657.028 31.909,657 32.134,657 32.387C657 34.409,657.899 36.037,660.145 36.543"/></g><g class="vf-notehead" id="vf-auto34502" pointer-events="bounding-box"><path stroke="none" d="M647.387 26.543C647.668 26.599,647.92 26.627,648.201 26.627C652.076 26.627,657.861 21.348,657.748 17.08C657.636 16.041,657.664 14.609,655.558 13.766C654.968 13.485,654.323 13.373,653.621 13.373C649.296 13.373,644.607 18.343,644.27 21.657C644.27 21.909,644.242 22.134,644.242 22.387C644.242 24.409,645.14 26.037,647.387 26.543"/></g><g class="vf-notehead" id="vf-auto34501" pointer-events="bounding-box"><path stroke="none" d="M660.145 26.543C660.426 26.599,660.678 26.627,660.959 26.627C664.834 26.627,670.619 21.348,670.506 17.08C670.394 16.041,670.422 14.609,668.316 13.766C667.727 13.485,667.081 13.373,666.379 13.373C662.054 13.373,657.365 18.343,657.028 21.657C657.028 21.909,657 22.134,657 22.387C657 24.409,657.899 26.037,660.145 26.543"/></g><path stroke="none" d="M666.772 109.848C666.631 109.933,666.575 110.101,666.575 110.213C666.575 110.382,666.631 110.578,666.631 110.747C666.547 114.734,665.424 118.3,662.504 121.221C661.774 121.951,660.959 122.597,660.145 123.243C658.629 124.478,657.814 126.163,657.646 128.128C657.562 128.943,657.534 129.757,657.534 130.543C657.534 132.144,657.646 133.744,657.758 135.373C657.899 137.142,657.477 138.939,657.365 140.736C657.365 141.242,657.337 141.663,657.337 142.168L657.337 144.106C657.337 145.229,657.281 146.409,657.112 147.504C656.972 148.543,656.916 149.61,656.916 150.621L656.916 152.727C656.916 153.569,656.916 154.468,656.803 155.338L656.803 155.591C656.803 155.9,656.832 156.237,656.916 156.602C657 156.967,657.365 157.079,657.646 157.135C657.674 157.163,657.674 157.163,657.73 157.163C657.983 157.163,658.011 156.826,658.123 156.63C658.488 155.872,658.685 155.029,658.685 154.215C658.685 153.513,658.994 153.035,659.387 152.558C660.51 151.21,662.054 150.368,663.318 149.16C664.75 147.728,666.014 146.156,666.547 144.19C666.744 143.292,666.856 142.393,666.856 141.326C666.856 140.961,666.828 140.596,666.828 140.231C666.744 140.006,666.744 139.782,666.744 139.585C666.744 138.293,667.67 136.974,667.839 135.57C667.923 134.896,668.007 134.166,668.007 133.436C668.007 132.06,667.783 130.684,667.446 129.392C667.221 128.746,667.025 128.1,667.025 127.398C667.025 127.202,667.025 127.033,667.081 126.837C667.137 126.472,667.137 126.079,667.137 125.714C667.137 124.478,666.94 123.355,666.772 122.232C666.772 122.119,666.744 121.979,666.744 121.895C666.744 121.445,666.856 121.108,667.025 120.743C667.755 118.666,668.372 116.616,668.372 114.425C668.372 113.05,668.148 111.702,667.642 110.494C667.474 110.129,667.193 109.736,666.772 109.848M665.368 123.72C665.424 123.973,665.424 124.197,665.424 124.422C665.424 125.742,665.003 126.753,664.245 127.595C662.728 129.308,660.763 130.487,659.303 132.509C659.274 132.256,659.274 131.975,659.274 131.695C659.274 130.543,659.583 129.673,660.229 128.859C661.689 127.005,663.795 125.826,665.368 123.72M665.34 131.61C665.452 131.498,665.564 131.414,665.705 131.414C665.817 131.414,665.901 131.526,666.014 131.863C666.126 132.256,666.21 132.649,666.21 133.014C666.21 134.278,665.48 135.289,664.469 136.047C662.672 137.479,660.791 138.855,659.106 140.652C659.134 138.995,659.274 137.591,660.285 136.552C661.886 134.84,663.627 133.267,665.34 131.61M665.003 140.652C665.171 140.989,665.256 141.27,665.256 141.551C665.256 141.747,665.199 141.972,665.087 142.197C664.638 143.039,664.16 143.938,663.402 144.583C661.858 145.875,660.37 147.167,658.685 148.543C659.19 144.471,662.167 142.646,665.003 140.652"/></g></svg>