<svg xmlns="http://www.w3.org/2000/svg" stroke-width="0.3" stroke-dasharray="none" fill="black" stroke="black" font-family="Arial, sans-serif" font-size="10pt" font-weight="normal" font-style="normal" width="550" height="200" viewBox="0 0 550 200" style="width: 550px; height: 200px; border: none;"><g class="vf-stave" id="vf-auto35910" stroke-width="1" fill="#999999" stroke="#999999"><path fill="none" d="M0 40L540 40"/><path fill="none" d="M0 50L540 50"/><path fill="none" d="M0 60L540 60"/><path fill="none" d="M0 70L540 70"/><path fill="none" d="M0 80L540 80"/></g><g class="vf-stavebarline" id="vf-auto35911"><rect y="39.5" width="1" height="41" stroke="none"/></g><g class="vf-stavebarline" id="vf-auto35912"><rect x="540" y="39.5" width="1" height="41" stroke="none"/></g><g class="vf-clef" id="vf-auto35913"><path stroke="none" d="M19.112 27.837C19.112 27.837,19.141 27.837,19.17 27.837C19.544 27.837,20.034 28.211,20.667 28.96C22.942 31.696,24.44 36.045,24.44 39.731C24.44 39.99,24.44 40.278,24.411 40.538C24.152 44.829,22.28 48.515,18.68 51.942C18.363 52.259,17.902 52.691,17.701 52.864L17.355 53.238L18.075 56.608C18.478 58.48,18.795 60.006,18.795 60.006C18.795 60.006,18.795 60.006,18.795 60.006C18.824 60.006,18.939 59.978,19.026 59.978C19.198 59.949,19.659 59.949,20.12 59.949C20.466 59.949,20.84 59.949,20.984 59.949C25.592 60.525,28.962 64.125,29.278 68.79C29.307 68.992,29.307 69.194,29.307 69.395C29.307 73.254,26.802 76.941,23.029 78.554C22.885 78.611,22.798 78.669,22.798 78.669C22.798 78.669,23 79.677,23.259 80.886C23.518 82.125,23.778 83.306,23.806 83.536C23.979 84.458,24.066 85.322,24.066 86.157C24.066 88.317,23.49 90.131,22.395 91.542C20.754 93.587,18.392 94.624,16.03 94.624C13.726 94.624,11.422 93.674,9.752 91.773C9.061 90.966,8.686 90.016,8.686 89.037C8.686 88.202,8.974 87.338,9.55 86.56C10.386 85.437,11.624 84.89,12.862 84.89C14.014 84.89,15.166 85.379,15.973 86.358C16.549 87.107,16.808 87.942,16.808 88.778C16.808 90.678,15.397 92.493,13.237 92.579L12.978 92.579L13.064 92.637C13.928 93.069,14.936 93.299,15.973 93.299C17.24 93.299,18.565 92.954,19.602 92.291C21.704 90.966,22.741 88.922,22.741 86.157C22.741 85.264,22.626 84.285,22.424 83.248C22.338 82.758,21.531 79.101,21.531 79.101C21.531 79.101,21.531 79.101,21.531 79.101C21.502 79.101,21.358 79.13,21.186 79.158C20.667 79.302,20.12 79.389,19.515 79.446C19.314 79.475,18.91 79.475,18.478 79.475C17.931 79.475,17.384 79.475,17.154 79.446C10.126 78.669,5 72.995,5 65.968C5 62.858,5.893 60.15,7.765 57.558C9.752 54.794,11.768 52.403,14.245 49.898L15.109 49.034L14.734 47.306C14.533 46.326,14.331 45.318,14.245 45.03C13.899 43.389,13.726 42.582,13.669 42.266C13.525 41.373,13.467 40.48,13.467 39.587C13.467 35.469,15.022 31.552,17.902 28.758C18.565 28.125,18.91 27.866,19.112 27.837M21.013 33.482C20.84 33.453,20.696 33.424,20.523 33.424C19.688 33.424,18.68 33.942,17.73 34.893C16.088 36.534,15.195 39.011,15.195 41.718C15.195 42.41,15.253 43.101,15.368 43.821C15.426 44.138,16.203 47.968,16.232 47.968C16.232 47.968,16.232 47.968,16.232 47.968C16.261 47.968,17.182 47.018,17.442 46.73C20.638 43.187,22.453 39.357,22.453 36.362C22.453 35.872,22.395 35.411,22.309 34.95C22.107 34.086,21.733 33.654,21.013 33.482M16.318 54.707C16.29 54.534,16.261 54.39,16.261 54.39C16.146 54.39,13.87 57.04,12.834 58.336C10.702 61.043,9.925 62.31,9.32 64.038C8.888 65.363,8.658 66.688,8.658 67.984C8.658 70.317,9.349 72.534,10.674 74.406C12.517 76.998,15.426 78.496,18.421 78.496C18.91 78.496,19.4 78.467,19.89 78.381C20.408 78.294,21.301 78.064,21.301 78.006C21.301 77.978,20.955 76.394,20.552 74.435C20.12 72.506,19.486 69.51,19.112 67.811C18.766 66.112,18.45 64.701,18.45 64.701C18.45 64.701,18.45 64.701,18.45 64.701C18.334 64.701,17.701 64.96,17.355 65.133C15.598 66.112,14.677 67.84,14.677 69.568C14.677 71.094,15.397 72.592,16.866 73.485C17.154 73.658,17.298 73.859,17.298 74.09C17.298 74.205,17.24 74.349,17.125 74.464C17.038 74.579,16.923 74.666,16.75 74.666C16.549 74.666,16.29 74.55,15.858 74.32C13.237 72.966,11.912 70.403,11.912 67.782C11.912 65.334,13.093 62.858,15.454 61.302C16.059 60.899,17.269 60.323,17.499 60.323C17.499 60.323,17.528 60.294,17.528 60.294C17.528 60.266,17.528 60.266,17.528 60.266C17.499 60.208,16.434 55.197,16.318 54.707M20.725 64.499C20.581 64.499,20.293 64.47,20.12 64.47L19.746 64.47L19.774 64.528C19.774 64.557,20.293 67.034,20.955 70.029C21.589 73.024,22.136 75.616,22.165 75.789C22.222 75.962,22.309 76.422,22.395 76.797L22.539 77.488L22.626 77.43C24.21 76.538,25.362 75.27,25.995 73.715C26.37 72.851,26.542 71.987,26.542 71.123C26.542 67.869,24.152 64.902,20.725 64.499"/></g><g class="vf-stavenote" id="vf-auto35914"><g class="vf-stem" id="vf-auto35915" pointer-events="bounding-box"><path stroke-width="1.5" fill="none" d="M52.547 38.5L52.547 5"/></g><g class="vf-notehead" id="vf-auto35917" pointer-events="bounding-box"><path stroke="none" d="M48.411 34.889C48.496 34.889,48.58 34.889,48.72 34.889C49.085 34.889,49.619 34.918,49.815 34.946C52.146 35.283,53.297 36.827,53.297 38.624C53.297 40.534,52.006 42.724,49.422 44.128C48.159 44.802,46.867 45.111,45.688 45.111C43.526 45.111,41.756 44.044,41.391 42.162C41.335 41.881,41.307 41.629,41.307 41.376C41.307 38.343,44.564 35.283,48.411 34.889"/></g></g><g class="vf-stavenote" id="vf-auto35918"><path stroke-width="1.4" fill="none" stroke="#444" d="M173.958 30L191.948 30"/><g class="vf-stem" id="vf-auto35919" pointer-events="bounding-box"><path stroke-width="1.5" fill="none" d="M188.198 23.5L188.198 -10"/></g><g class="vf-notehead" id="vf-auto35921" pointer-events="bounding-box"><path stroke="none" d="M184.062 19.889C184.146 19.889,184.23 19.889,184.371 19.889C184.736 19.889,185.269 19.918,185.466 19.946C187.797 20.283,188.948 21.827,188.948 23.624C188.948 25.534,187.656 27.724,185.073 29.128C183.809 29.802,182.518 30.111,181.338 30.111C179.176 30.111,177.407 29.044,177.042 27.162C176.986 26.881,176.958 26.629,176.958 26.376C176.958 23.343,180.215 20.283,184.062 19.889"/><path stroke="none" d="M171.058 10.691C171.112 10.663,171.194 10.636,171.276 10.636C171.495 10.636,171.714 10.773,171.796 10.992C171.824 11.101,171.824 11.128,171.824 14.603C171.824 17.859,171.824 18.078,171.878 18.078C171.878 18.078,171.878 18.078,171.878 18.078C172.179 17.996,173.301 17.75,173.383 17.75C173.629 17.75,173.821 17.886,173.903 18.078C173.93 18.16,173.958 18.789,173.958 19.419C173.958 20.048,173.93 20.677,173.903 20.759C173.821 21.033,173.766 21.033,172.672 21.306L171.824 21.525L171.824 24.425C171.824 27.134,171.824 27.353,171.851 27.353C171.878 27.353,171.878 27.353,171.878 27.353C172.179 27.244,173.301 26.997,173.383 26.997C173.547 26.997,173.657 27.052,173.794 27.161C173.93 27.326,173.93 27.271,173.93 28.311C173.93 28.42,173.93 28.557,173.93 28.694C173.93 28.83,173.93 28.94,173.93 29.049C173.93 30.116,173.93 30.062,173.794 30.198C173.657 30.335,173.657 30.335,172.672 30.581L171.824 30.773L171.824 34.33C171.824 37.832,171.824 37.859,171.796 37.941C171.714 38.188,171.495 38.297,171.276 38.297C171.14 38.297,170.976 38.242,170.866 38.133C170.729 37.996,170.702 38.242,170.702 36.053C170.702 35.616,170.702 35.096,170.702 34.467C170.702 32.579,170.702 31.047,170.702 31.047C170.702 31.047,170.155 31.183,169.498 31.348C168.814 31.512,168.267 31.648,168.267 31.648C168.267 31.648,168.267 33.29,168.267 35.287C168.267 38.872,168.267 38.899,168.212 39.008C168.13 39.227,167.911 39.364,167.692 39.364C167.556 39.364,167.391 39.309,167.282 39.2C167.145 39.036,167.145 39.282,167.145 37.066C167.145 36.628,167.145 36.081,167.145 35.424C167.145 32.168,167.145 31.949,167.118 31.949C167.118 31.949,167.118 31.949,167.09 31.949C166.762 32.032,165.75 32.25,165.668 32.25C165.421 32.25,165.203 32.114,165.12 31.922C165.093 31.84,165.093 31.211,165.093 30.581C165.093 29.952,165.093 29.323,165.12 29.241C165.23 28.995,165.285 28.967,166.324 28.694L167.145 28.502L167.145 25.575C167.145 22.866,167.145 22.674,167.118 22.674C167.118 22.674,167.118 22.674,167.09 22.674C166.762 22.756,165.75 23.003,165.668 23.003C165.421 23.003,165.203 22.866,165.12 22.647C165.093 22.592,165.093 21.936,165.093 21.306C165.093 20.677,165.093 20.048,165.12 19.966C165.23 19.72,165.285 19.692,166.324 19.446L167.145 19.254L167.145 15.698C167.145 12.168,167.145 12.141,167.172 12.059C167.255 11.812,167.473 11.703,167.692 11.703C167.829 11.703,167.993 11.758,168.103 11.867C168.24 12.004,168.267 11.758,168.267 13.947C168.267 14.384,168.267 14.904,168.267 15.561C168.267 17.421,168.267 18.953,168.267 18.953C168.267 18.953,168.814 18.817,169.471 18.68C170.155 18.516,170.702 18.379,170.702 18.379C170.702 18.379,170.702 16.737,170.702 14.74C170.702 11.128,170.702 11.101,170.757 10.992C170.784 10.882,170.921 10.745,171.058 10.691M170.702 24.699C170.702 22.401,170.702 21.799,170.702 21.799L170.702 21.799C170.675 21.799,170.483 21.826,170.264 21.908C170.045 21.963,169.498 22.072,169.06 22.182L168.267 22.401L168.267 25.301C168.267 26.915,168.267 28.228,168.267 28.228C168.267 28.228,168.814 28.092,169.471 27.928C170.155 27.763,170.702 27.627,170.702 27.627C170.702 27.627,170.702 26.313,170.702 24.699"/><path stroke="none" d="M115.044 42.12C115.275 42.097,115.482 42.097,115.712 42.097C118.039 42.097,120.436 42.812,122.002 43.987C124.03 45.507,125.067 47.581,125.067 50.046C125.067 50.392,125.044 50.737,124.997 51.106C124.237 57.695,118.823 63.732,111.473 66.174C110.39 66.543,108.662 66.98,108.34 66.98C108.132 66.98,107.994 66.842,107.994 66.635C107.994 66.404,108.04 66.358,108.524 66.174C115.643 63.524,120.459 57.903,121.012 51.567C121.035 51.106,121.058 50.645,121.058 50.207C121.058 47.12,120.044 44.747,118.155 43.549C117.348 43.042,116.427 42.812,115.482 42.812C113.362 42.812,111.15 44.01,110.16 45.991C110.091 46.129,109.929 46.498,109.929 46.521C109.929 46.521,109.929 46.521,109.929 46.521C109.929 46.521,109.998 46.498,110.068 46.452C110.551 46.129,111.104 45.991,111.657 45.991C113.017 45.991,114.33 46.913,114.652 48.387C114.722 48.618,114.745 48.848,114.745 49.078C114.745 50.783,113.362 52.189,111.611 52.189C111.473 52.189,111.312 52.166,111.173 52.143C109.399 51.912,108.178 50.323,108.178 48.272L108.178 48.272C108.178 45.069,111.196 42.351,115.044 42.12M127.232 45.139C127.255 45.139,127.301 45.116,127.348 45.116C127.509 45.116,127.716 45.139,127.785 45.185C128.338 45.369,128.615 45.83,128.615 46.314C128.615 46.774,128.338 47.258,127.785 47.443C127.693 47.466,127.555 47.489,127.44 47.489C127.301 47.489,127.163 47.466,127.071 47.443C126.518 47.258,126.265 46.774,126.265 46.314C126.265 45.784,126.587 45.254,127.232 45.139M127.232 52.511C127.255 52.511,127.301 52.511,127.348 52.511C127.509 52.511,127.716 52.534,127.785 52.557C128.338 52.742,128.615 53.226,128.615 53.686C128.615 54.17,128.338 54.654,127.785 54.815C127.693 54.861,127.555 54.861,127.44 54.861C127.301 54.861,127.163 54.861,127.071 54.815C126.518 54.631,126.265 54.17,126.265 53.686C126.265 53.18,126.587 52.65,127.232 52.511"/><g class="vf-stavebarline" id="vf-auto35978"><rect x="133.615" y="39.5" width="1" height="41" stroke="none"/><rect x="128.615" y="39.5" width="3" height="41" stroke="none"/><path stroke="none" d="M140.615 55.5 A2 2 0 0 0 136.615 55.5 A2 2 0 0 0 140.615 55.5"/><path stroke="none" d="M140.615 65.5 A2 2 0 0 0 136.615 65.5 A2 2 0 0 0 140.615 65.5"/><rect y="39.5" width="1" height="41" stroke="none"/></g><path stroke="none" d="M152.303 41.798C152.591 41.77,152.85 41.741,153.138 41.741C156.335 41.741,159.1 43.584,159.1 45.859C159.1 47.27,157.458 48.739,155.096 49.459L154.808 49.546L154.924 49.574C157.055 50.266,158.639 51.677,159.1 53.261C159.186 53.606,159.244 53.923,159.244 54.24C159.244 56.256,157.458 58.07,154.722 58.589C154.204 58.704,153.685 58.762,153.167 58.762C151.266 58.762,149.423 58.042,148.127 56.774C147.666 56.314,147.464 55.795,147.464 55.248C147.464 54.096,148.386 52.944,149.682 52.944C149.826 52.944,149.941 52.973,150.085 53.002C151.237 53.203,151.842 54.182,151.842 55.133C151.842 55.91,151.41 56.717,150.517 57.062C150.46 57.062,150.46 57.091,150.46 57.091C150.46 57.12,150.517 57.12,150.719 57.178C151.151 57.293,151.525 57.322,151.9 57.322C152.821 57.322,153.57 57.034,154.175 56.429C154.78 55.824,155.068 55.075,155.068 54.182C155.068 53.894,155.039 53.606,154.981 53.29C154.607 51.418,153.282 50.064,151.698 49.978C151.266 49.949,151.122 49.834,151.122 49.517C151.122 49.2,151.266 49.085,151.727 49.056C153.167 48.97,154.434 47.933,154.837 46.55C154.895 46.32,154.924 46.09,154.924 45.859C154.924 44.678,154.06 43.642,152.735 43.325C152.562 43.267,152.303 43.267,151.986 43.267C151.583 43.267,151.151 43.296,150.805 43.354L150.69 43.382L150.776 43.411C151.496 43.786,151.842 44.506,151.842 45.226C151.842 46.09,151.352 46.982,150.402 47.299C150.172 47.357,149.941 47.414,149.711 47.414C148.472 47.414,147.464 46.349,147.464 45.139C147.464 44.822,147.522 44.506,147.695 44.189C148.242 43.037,150.258 42,152.303 41.798M153.34 60L153.397 60L153.311 60M153.34 41.05L153.397 41.05L153.311 41.05"/><path stroke="none" d="M151.597 62.086C151.655 62.058,153.296 62.058,154.852 62.058C156.176 62.058,157.472 62.058,157.501 62.086C157.674 62.144,157.789 62.317,157.789 62.49C157.789 62.691,157.76 62.72,157.213 63.325C156.724 63.843,155.197 65.571,153.642 67.328C153.181 67.846,152.749 68.336,152.634 68.451C152.519 68.566,151.828 69.344,151.079 70.179C150.359 71.014,149.437 72.051,149.063 72.454C148.688 72.886,148.372 73.232,148.372 73.261C148.372 73.261,148.372 73.261,148.372 73.261C148.372 73.29,148.602 73.29,150.964 73.29L153.556 73.29L153.584 71.418C153.584 69.603,153.584 69.574,153.613 69.517C153.642 69.488,154.218 68.826,154.909 68.048C155.6 67.27,156.407 66.349,156.724 66.032C157.501 65.139,157.472 65.168,157.703 65.168C157.904 65.168,158.048 65.254,158.106 65.398C158.135 65.485,158.135 65.629,158.135 69.373L158.135 73.29L158.826 73.29C159.488 73.29,159.546 73.29,159.632 73.318C159.863 73.405,160.007 73.635,160.007 73.866C160.007 74.038,159.949 74.182,159.834 74.298C159.661 74.47,159.632 74.47,158.855 74.47L158.164 74.47L158.164 74.643C158.164 74.73,158.164 74.989,158.164 75.219C158.192 76.4,158.567 76.976,159.719 77.552C159.949 77.667,160.093 77.84,160.093 78.013C160.093 78.128,160.036 78.243,159.949 78.33C159.834 78.445,160.122 78.445,157.386 78.445C156.954 78.445,156.436 78.445,155.86 78.445C155.284 78.445,154.765 78.445,154.333 78.445C151.597 78.445,151.885 78.445,151.77 78.33C151.684 78.243,151.626 78.128,151.626 78.013C151.626 77.84,151.77 77.667,152 77.552C153.152 76.976,153.527 76.4,153.556 75.219C153.556 74.989,153.556 74.73,153.556 74.643L153.556 74.47L150.272 74.47C149.783 74.47,149.38 74.47,149.034 74.47C146.672 74.47,146.874 74.47,146.759 74.355C146.672 74.269,146.615 74.154,146.615 74.038C146.615 73.923,146.701 73.75,146.845 73.578C149.581 70.496,151.223 66.637,151.338 62.893C151.338 62.288,151.367 62.202,151.597 62.086M153.354 80L153.383 80L153.296 80M153.354 61.05L153.383 61.05L153.296 61.05"/></g></g><g class="vf-stavenote" id="vf-auto35922"><path stroke-width="1.4" fill="none" stroke="#444" d="M309.608 30L327.598 30"/><g class="vf-stem" id="vf-auto35923" pointer-events="bounding-box"><path stroke-width="1.5" fill="none" d="M323.848 23.5L323.848 -10"/></g><g class="vf-notehead" id="vf-auto35925" pointer-events="bounding-box"><path stroke="none" d="M319.713 19.889C319.797 19.889,319.881 19.889,320.021 19.889C320.386 19.889,320.92 19.918,321.117 19.946C323.447 20.283,324.598 21.827,324.598 23.624C324.598 25.534,323.307 27.724,320.723 29.128C319.46 29.802,318.168 30.111,316.989 30.111C314.827 30.111,313.058 29.044,312.693 27.162C312.636 26.881,312.608 26.629,312.608 26.376C312.608 23.343,315.866 20.283,319.713 19.889"/><path stroke="none" d="M302.522 8.119C302.577 8.092,302.659 8.092,302.741 8.092C302.96 8.092,303.179 8.228,303.261 8.447C303.316 8.529,303.316 8.529,303.316 14.767L303.316 21.005L303.37 20.951C304.383 20.103,305.45 19.637,306.517 19.637C306.927 19.637,307.337 19.72,307.72 19.856C308.924 20.294,309.608 21.388,309.608 22.729C309.608 23.44,309.389 24.207,308.979 24.973C308.404 26.04,307.638 26.888,305.477 28.803C304.328 29.843,304.054 30.089,303.398 30.718C303.015 31.074,302.96 31.101,302.741 31.101C302.495 31.101,302.303 30.964,302.221 30.773L302.166 30.664L302.166 19.61L302.166 8.529L302.221 8.447C302.248 8.31,302.385 8.174,302.522 8.119M305.805 21.471C305.696 21.443,305.477 21.416,305.34 21.416C305.285 21.416,305.258 21.416,305.231 21.443C304.519 21.525,303.89 21.963,303.425 22.647L303.316 22.839L303.316 25.985L303.316 29.159L303.398 29.049C305.395 26.86,306.681 24.371,306.681 22.729C306.681 22.565,306.681 22.401,306.653 22.264C306.571 21.881,306.243 21.553,305.805 21.471"/></g></g><g class="vf-stavenote" id="vf-auto35926"><g class="vf-stem" id="vf-auto35927" pointer-events="bounding-box"><path stroke-width="1.5" fill="none" d="M459.499 43.5L459.499 10"/></g><g class="vf-notehead" id="vf-auto35929" pointer-events="bounding-box"><path stroke="none" d="M455.363 39.889C455.447 39.889,455.532 39.889,455.672 39.889C456.037 39.889,456.571 39.918,456.767 39.946C459.098 40.283,460.249 41.827,460.249 43.624C460.249 45.534,458.957 47.724,456.374 49.128C455.11 49.802,453.819 50.111,452.639 50.111C450.477 50.111,448.708 49.044,448.343 47.162C448.287 46.881,448.259 46.629,448.259 46.376C448.259 43.343,451.516 40.283,455.363 39.889"/><path stroke="none" d="M411.349 80L411.349 64.172L413.239 64.172L415.128 64.172L415.128 80L415.128 95.828L413.239 95.828L411.349 95.828M416.556 80L416.556 64.172L417.017 64.172L417.501 64.172L417.501 71.729L417.501 79.309L417.662 79.171C418.238 78.687,418.953 77.742,419.436 76.844C420.059 75.761,420.519 74.563,420.842 73.18C420.98 72.696,421.026 72.604,421.28 72.604C421.51 72.604,421.625 72.742,421.648 73.088C421.81 75.53,423.468 77.396,425.358 77.396C425.496 77.396,425.634 77.373,425.749 77.373C427.408 77.143,427.938 76.083,428.053 72.858C428.053 72.282,428.076 71.729,428.076 71.245C428.076 67.95,427.662 66.337,426.671 65.646C426.164 65.3,425.45 65.116,424.667 65.116C423.952 65.116,423.215 65.254,422.547 65.577C422.386 65.646,422.247 65.715,422.247 65.715C422.247 65.715,422.247 65.715,422.27 65.715C423.146 65.761,423.86 66.545,423.86 67.489C423.86 67.512,423.86 67.535,423.86 67.535C423.814 68.641,422.916 69.309,421.994 69.309C421.418 69.309,420.819 69.033,420.404 68.434C420.174 68.088,420.082 67.72,420.082 67.351C420.082 66.821,420.289 66.314,420.75 65.9C421.833 64.886,423.261 64.402,424.69 64.402C426.924 64.402,429.228 65.6,430.496 67.766C431.095 68.826,431.394 70.024,431.394 71.199C431.394 74.102,429.666 76.959,426.924 77.857C426.395 78.019,425.865 78.111,425.381 78.111C424.574 78.111,423.814 77.857,423.123 77.373C423.031 77.304,422.962 77.258,422.939 77.258C422.939 77.258,422.939 77.258,422.939 77.258C422.939 77.258,422.57 77.88,422.109 78.641L421.28 80L422.109 81.359C422.57 82.12,422.939 82.742,422.939 82.742C422.939 82.742,422.939 82.742,422.939 82.742C422.962 82.742,423.031 82.696,423.123 82.627C423.814 82.143,424.574 81.889,425.381 81.889C425.588 81.889,425.796 81.912,426.003 81.935C428.906 82.373,431.118 84.977,431.371 88.271C431.371 88.456,431.394 88.64,431.394 88.824C431.394 92.349,428.745 95.299,425.173 95.598C425.012 95.598,424.851 95.598,424.667 95.598C423.146 95.598,421.717 95.045,420.658 94.031C420.266 93.64,420.082 93.133,420.082 92.649C420.082 91.658,420.865 90.691,421.994 90.691C422.04 90.691,422.063 90.691,422.109 90.691C423.146 90.76,423.86 91.612,423.86 92.534C423.86 92.856,423.768 93.225,423.561 93.548C423.284 93.939,422.731 94.262,422.27 94.285C422.247 94.285,422.247 94.285,422.247 94.285C422.247 94.308,422.363 94.354,422.547 94.423C423.215 94.746,423.952 94.884,424.667 94.884C425.45 94.884,426.164 94.7,426.671 94.354C427.662 93.663,428.076 92.05,428.076 88.755C428.076 88.271,428.053 87.718,428.053 87.142C427.938 83.917,427.408 82.857,425.749 82.627C425.634 82.627,425.496 82.604,425.358 82.604C423.468 82.604,421.81 84.47,421.648 86.912C421.625 87.258,421.51 87.396,421.28 87.396C421.026 87.396,420.98 87.304,420.842 86.82C420.519 85.437,420.059 84.239,419.436 83.156C418.953 82.258,418.215 81.313,417.662 80.829L417.501 80.691L417.501 88.271L417.501 95.828L417.017 95.828L416.556 95.828"/></g></g><g class="vf-stavenote" id="vf-auto35930"><path stroke-width="1.4" fill="none" stroke="#444" d="M38.307 90L56.297 90"/><g class="vf-stem" id="vf-auto35931" pointer-events="bounding-box"><path stroke-width="1.5" fill="none" d="M42.057 91.5L42.057 125"/></g><g class="vf-notehead" id="vf-auto35933" pointer-events="bounding-box"><path stroke="none" d="M48.411 84.889C48.496 84.889,48.58 84.889,48.72 84.889C49.085 84.889,49.619 84.918,49.815 84.946C52.146 85.283,53.297 86.827,53.297 88.624C53.297 90.534,52.006 92.724,49.422 94.128C48.159 94.802,46.867 95.111,45.688 95.111C43.526 95.111,41.756 94.044,41.391 92.162C41.335 91.881,41.307 91.629,41.307 91.376C41.307 88.343,44.564 85.283,48.411 84.889"/></g></g><g class="vf-stavenote" id="vf-auto35934"><g class="vf-stem" id="vf-auto35935" pointer-events="bounding-box"><path stroke-width="1.5" fill="none" d="M177.708 66.5L177.708 100"/></g><g class="vf-notehead" id="vf-auto35937" pointer-events="bounding-box"><path stroke="none" d="M184.062 59.889C184.146 59.889,184.23 59.889,184.371 59.889C184.736 59.889,185.269 59.918,185.466 59.946C187.797 60.283,188.948 61.827,188.948 63.624C188.948 65.534,187.656 67.724,185.073 69.128C183.809 69.802,182.518 70.111,181.338 70.111C179.176 70.111,177.407 69.044,177.042 67.162C176.986 66.881,176.958 66.629,176.958 66.376C176.958 63.343,180.215 60.283,184.062 59.889"/></g></g><g class="vf-stavenote" id="vf-auto35938"><g class="vf-stem" id="vf-auto35939" pointer-events="bounding-box"><path stroke-width="1.5" fill="none" d="M313.358 56.5L313.358 90"/></g><g class="vf-notehead" id="vf-auto35941" pointer-events="bounding-box"><path stroke="none" d="M319.713 49.889C319.797 49.889,319.881 49.889,320.021 49.889C320.386 49.889,320.92 49.918,321.117 49.946C323.447 50.283,324.598 51.827,324.598 53.624C324.598 55.534,323.307 57.724,320.723 59.128C319.46 59.802,318.168 60.111,316.989 60.111C314.827 60.111,313.058 59.044,312.693 57.162C312.636 56.881,312.608 56.629,312.608 56.376C312.608 53.343,315.866 50.283,319.713 49.889"/><path stroke="none" d="M247.096 60L247.096 44.172L248.985 44.172L250.875 44.172L250.875 60L250.875 75.828L248.985 75.828L247.096 75.828M252.303 60L252.303 44.172L252.764 44.172L253.248 44.172L253.248 51.729L253.248 59.309L253.409 59.171C253.985 58.687,254.699 57.742,255.183 56.844C255.805 55.761,256.266 54.563,256.588 53.18C256.727 52.696,256.773 52.604,257.026 52.604C257.257 52.604,257.372 52.742,257.395 53.088C257.556 55.53,259.215 57.396,261.104 57.396C261.243 57.396,261.381 57.373,261.496 57.373C263.155 57.143,263.685 56.083,263.8 52.858C263.8 52.282,263.823 51.729,263.823 51.245C263.823 47.95,263.408 46.337,262.418 45.646C261.911 45.3,261.196 45.116,260.413 45.116C259.699 45.116,258.962 45.254,258.293 45.577C258.132 45.646,257.994 45.715,257.994 45.715C257.994 45.715,257.994 45.715,258.017 45.715C258.892 45.761,259.607 46.545,259.607 47.489C259.607 47.512,259.607 47.535,259.607 47.535C259.561 48.641,258.662 49.309,257.74 49.309C257.164 49.309,256.565 49.033,256.151 48.434C255.92 48.088,255.828 47.72,255.828 47.351C255.828 46.821,256.036 46.314,256.496 45.9C257.579 44.886,259.008 44.402,260.436 44.402C262.671 44.402,264.975 45.6,266.242 47.766C266.841 48.826,267.141 50.024,267.141 51.199C267.141 54.102,265.413 56.959,262.671 57.857C262.141 58.019,261.611 58.111,261.127 58.111C260.321 58.111,259.561 57.857,258.869 57.373C258.777 57.304,258.708 57.258,258.685 57.258C258.685 57.258,258.685 57.258,258.685 57.258C258.685 57.258,258.316 57.88,257.856 58.641L257.026 60L257.856 61.359C258.316 62.12,258.685 62.742,258.685 62.742C258.685 62.742,258.685 62.742,258.685 62.742C258.708 62.742,258.777 62.696,258.869 62.627C259.561 62.143,260.321 61.889,261.127 61.889C261.335 61.889,261.542 61.912,261.749 61.935C264.652 62.373,266.864 64.977,267.118 68.271C267.118 68.456,267.141 68.64,267.141 68.824C267.141 72.349,264.491 75.299,260.92 75.598C260.759 75.598,260.597 75.598,260.413 75.598C258.892 75.598,257.464 75.045,256.404 74.031C256.012 73.64,255.828 73.133,255.828 72.649C255.828 71.658,256.612 70.691,257.74 70.691C257.787 70.691,257.81 70.691,257.856 70.691C258.892 70.76,259.607 71.612,259.607 72.534C259.607 72.856,259.515 73.225,259.307 73.548C259.031 73.939,258.478 74.262,258.017 74.285C257.994 74.285,257.994 74.285,257.994 74.285C257.994 74.308,258.109 74.354,258.293 74.423C258.962 74.746,259.699 74.884,260.413 74.884C261.196 74.884,261.911 74.7,262.418 74.354C263.408 73.663,263.823 72.05,263.823 68.755C263.823 68.271,263.8 67.718,263.8 67.142C263.685 63.917,263.155 62.857,261.496 62.627C261.381 62.627,261.243 62.604,261.104 62.604C259.215 62.604,257.556 64.47,257.395 66.912C257.372 67.258,257.257 67.396,257.026 67.396C256.773 67.396,256.727 67.304,256.588 66.82C256.266 65.437,255.805 64.239,255.183 63.156C254.699 62.258,253.962 61.313,253.409 60.829L253.248 60.691L253.248 68.271L253.248 75.828L252.764 75.828L252.303 75.828"/><path stroke="none" d="M274.973 41.798C275.146 41.77,275.318 41.77,275.491 41.77C276.384 41.77,277.363 42.029,278.342 42.576C280.733 43.872,282.346 46.061,282.806 48.624C282.922 49.114,282.95 49.747,282.95 50.381C282.95 50.957,282.922 51.533,282.835 52.022C282.317 55.018,280.013 57.552,276.902 58.445C276.211 58.646,275.52 58.762,274.886 58.762C273.85 58.762,272.899 58.502,272.006 58.042C270.912 57.437,270.25 56.774,270.048 56.112C269.962 55.882,269.933 55.651,269.933 55.421C269.933 54.211,270.97 53.174,272.179 53.174C272.41 53.174,272.64 53.203,272.87 53.29C273.85 53.606,274.31 54.47,274.31 55.306C274.31 56.141,273.85 56.976,272.899 57.293C272.813 57.322,272.755 57.35,272.726 57.379C272.726 57.379,272.726 57.379,272.726 57.379C272.726 57.408,273.274 57.61,273.562 57.696C273.965 57.782,274.339 57.84,274.685 57.84C275.606 57.84,276.384 57.523,276.902 56.918C277.478 56.285,277.853 55.19,278.112 53.405C278.227 52.771,278.371 51.389,278.371 51.101C278.371 51.072,278.371 51.043,278.342 51.043C278.342 51.043,278.342 51.043,278.342 51.043C278.342 51.043,278.227 51.072,278.083 51.13C277.19 51.475,276.384 51.648,275.578 51.648C275.088 51.648,274.57 51.59,274.022 51.446C272.266 50.986,270.739 50.006,269.99 48.883C269.558 48.25,269.357 47.53,269.357 46.781C269.357 45.917,269.674 44.995,270.278 44.246C271.258 43.037,273.187 42.029,274.973 41.798M276.096 42.72C275.952 42.691,275.779 42.662,275.606 42.662C275.232 42.662,274.858 42.749,274.627 42.893C274.109 43.238,273.763 44.275,273.562 46.032C273.533 46.291,273.533 46.608,273.533 46.896C273.533 48.307,273.85 49.805,274.31 50.323C274.598 50.611,275.088 50.755,275.578 50.755C276.067 50.755,276.557 50.611,276.816 50.323C277.306 49.776,277.622 48.394,277.622 46.954C277.622 46.464,277.594 45.974,277.507 45.514C277.219 43.584,276.902 42.95,276.096 42.72M276.154 60L276.211 60L276.125 60M276.154 41.05L276.211 41.05L276.125 41.05"/><path stroke="none" d="M275.794 61.77C275.966 61.77,276.11 61.741,276.197 61.741C276.197 61.741,276.197 61.741,276.226 61.741C276.254 61.77,276.398 61.77,276.571 61.77C277.723 61.798,278.962 62.173,279.941 62.778C281.496 63.699,282.302 65.139,282.302 66.579C282.302 67.587,281.899 68.595,281.064 69.459L280.92 69.632L281.064 69.718C282.446 70.698,283.166 72.08,283.166 73.462C283.166 74.384,282.85 75.306,282.216 76.141C280.92 77.811,278.587 78.762,276.139 78.762C275.045 78.762,273.922 78.56,272.885 78.157C270.437 77.178,269.141 75.334,269.141 73.462C269.141 72.138,269.803 70.784,271.186 69.776L271.387 69.632L271.214 69.43C270.437 68.624,270.034 67.587,270.034 66.55C270.034 66.061,270.12 65.6,270.293 65.139C271.042 63.21,273.259 61.856,275.794 61.77M276.773 63.008C276.6 62.979,276.398 62.95,276.168 62.95C275.88 62.95,275.563 62.979,275.304 63.066C274.354 63.267,273.691 63.901,273.691 64.477C273.691 64.592,273.72 64.678,273.778 64.794C274.267 65.859,276.456 67.53,278.731 68.566L278.846 68.624L278.933 68.48C279.278 67.875,279.451 67.213,279.451 66.579C279.451 64.938,278.414 63.382,276.773 63.008M273.144 70.813C273.029 70.755,272.914 70.698,272.885 70.698C272.885 70.698,272.885 70.698,272.885 70.698C272.856 70.698,272.51 71.043,272.366 71.245C271.848 71.936,271.589 72.685,271.589 73.462C271.589 74.96,272.539 76.458,274.21 77.178C274.843 77.437,275.477 77.552,276.11 77.552C277.234 77.552,278.242 77.149,278.76 76.458C278.99 76.17,279.106 75.882,279.106 75.565C279.106 75.19,278.933 74.816,278.616 74.326C277.723 73.002,276.082 71.907,273.634 71.014C273.518 70.957,273.288 70.87,273.144 70.813M276.168 80L276.197 80L276.11 80M276.168 61.05L276.197 61.05L276.11 61.05"/><g class="vf-stavebarline" id="vf-auto35979"><rect x="282.166" y="39.5" width="1" height="41" stroke="none"/><rect x="285.166" y="39.5" width="1" height="41" stroke="none"/></g></g></g><g class="vf-stavenote" id="vf-auto35942"><g class="vf-stem" id="vf-auto35943" pointer-events="bounding-box"><path stroke-width="1.5" fill="none" d="M449.009 66.5L449.009 100"/></g><g class="vf-notehead" id="vf-auto35945" pointer-events="bounding-box"><path stroke="none" d="M455.363 59.889C455.447 59.889,455.532 59.889,455.672 59.889C456.037 59.889,456.571 59.918,456.767 59.946C459.098 60.283,460.249 61.827,460.249 63.624C460.249 65.534,458.957 67.724,456.374 69.128C455.11 69.802,453.819 70.111,452.639 70.111C450.477 70.111,448.708 69.044,448.343 67.162C448.287 66.881,448.259 66.629,448.259 66.376C448.259 63.343,451.516 60.283,455.363 59.889"/><path stroke="none" d="M442.359 50.691C442.413 50.663,442.496 50.636,442.578 50.636C442.796 50.636,443.015 50.773,443.097 50.992C443.125 51.101,443.125 51.128,443.125 54.603C443.125 57.859,443.125 58.078,443.18 58.078C443.18 58.078,443.18 58.078,443.18 58.078C443.48 57.996,444.602 57.75,444.684 57.75C444.931 57.75,445.122 57.886,445.204 58.078C445.232 58.16,445.259 58.789,445.259 59.419C445.259 60.048,445.232 60.677,445.204 60.759C445.122 61.033,445.067 61.033,443.973 61.306L443.125 61.525L443.125 64.425C443.125 67.134,443.125 67.353,443.152 67.353C443.18 67.353,443.18 67.353,443.18 67.353C443.48 67.244,444.602 66.997,444.684 66.997C444.848 66.997,444.958 67.052,445.095 67.161C445.232 67.326,445.232 67.271,445.232 68.311C445.232 68.42,445.232 68.557,445.232 68.694C445.232 68.83,445.232 68.94,445.232 69.049C445.232 70.116,445.232 70.062,445.095 70.198C444.958 70.335,444.958 70.335,443.973 70.581L443.125 70.773L443.125 74.33C443.125 77.832,443.125 77.859,443.097 77.941C443.015 78.188,442.796 78.297,442.578 78.297C442.441 78.297,442.277 78.242,442.167 78.133C442.03 77.996,442.003 78.242,442.003 76.053C442.003 75.616,442.003 75.096,442.003 74.467C442.003 72.579,442.003 71.047,442.003 71.047C442.003 71.047,441.456 71.183,440.799 71.348C440.115 71.512,439.568 71.648,439.568 71.648C439.568 71.648,439.568 73.29,439.568 75.287C439.568 78.872,439.568 78.899,439.513 79.008C439.431 79.227,439.212 79.364,438.993 79.364C438.857 79.364,438.692 79.309,438.583 79.2C438.446 79.036,438.446 79.282,438.446 77.066C438.446 76.628,438.446 76.081,438.446 75.424C438.446 72.168,438.446 71.949,438.419 71.949C438.419 71.949,438.419 71.949,438.392 71.949C438.063 72.032,437.051 72.25,436.969 72.25C436.723 72.25,436.504 72.114,436.422 71.922C436.394 71.84,436.394 71.211,436.394 70.581C436.394 69.952,436.394 69.323,436.422 69.241C436.531 68.995,436.586 68.967,437.625 68.694L438.446 68.502L438.446 65.575C438.446 62.866,438.446 62.674,438.419 62.674C438.419 62.674,438.419 62.674,438.392 62.674C438.063 62.756,437.051 63.003,436.969 63.003C436.723 63.003,436.504 62.866,436.422 62.647C436.394 62.592,436.394 61.936,436.394 61.306C436.394 60.677,436.394 60.048,436.422 59.966C436.531 59.72,436.586 59.692,437.625 59.446L438.446 59.254L438.446 55.698C438.446 52.168,438.446 52.141,438.474 52.059C438.556 51.812,438.775 51.703,438.993 51.703C439.13 51.703,439.294 51.758,439.404 51.867C439.541 52.004,439.568 51.758,439.568 53.947C439.568 54.384,439.568 54.904,439.568 55.561C439.568 57.421,439.568 58.953,439.568 58.953C439.568 58.953,440.115 58.817,440.772 58.68C441.456 58.516,442.003 58.379,442.003 58.379C442.003 58.379,442.003 56.737,442.003 54.74C442.003 51.128,442.003 51.101,442.058 50.992C442.085 50.882,442.222 50.745,442.359 50.691M442.003 64.699C442.003 62.401,442.003 61.799,442.003 61.799L442.003 61.799C441.976 61.799,441.784 61.826,441.565 61.908C441.346 61.963,440.799 62.072,440.361 62.182L439.568 62.401L439.568 65.301C439.568 66.915,439.568 68.228,439.568 68.228C439.568 68.228,440.115 68.092,440.772 67.928C441.456 67.763,442.003 67.627,442.003 67.627C442.003 67.627,442.003 66.313,442.003 64.699"/></g></g><text stroke="none" font-size="8pt" x="41.307" y="150">14px</text><path stroke-width="3" fill="none" stroke="red" d="M41.307 157L41.307 157"/><path stroke-width="3" fill="none" stroke="#999" d="M41.307 157L41.307 157"/><path stroke-width="3" fill="none" stroke="green" d="M41.307 157L55.297 157"/><path stroke-width="3" fill="none" stroke="#999" d="M55.297 157L55.297 157"/><path stroke-width="3" fill="none" stroke="red" d="M55.297 157L55.297 157"/><path stroke-width="3" fill="none" stroke="#DD0" d="M55.297 157L107.994 157"/><path stroke-width="3" fill="none" stroke="#BBB" d="M41.307 157L41.307 157"/><path stroke-width="3" fill="blue" stroke="none" d="M44.307 157 A3 3 0 0 0 38.307 157 A3 3 0 0 0 44.307 157Z"/><text stroke-width="3" fill="red" stroke="none" font-size="8pt" x="41.307" y="140">+29</text><text stroke="none" font-size="8pt" x="107.994" y="150">81px</text><path stroke-width="3" fill="none" stroke="red" d="M107.994 157L176.958 157"/><path stroke-width="3" fill="none" stroke="#999" d="M176.958 157L176.958 157"/><path stroke-width="3" fill="none" stroke="green" d="M176.958 157L188.948 157"/><path stroke-width="3" fill="none" stroke="#999" d="M188.948 157L188.948 157"/><path stroke-width="3" fill="none" stroke="red" d="M188.948 157L188.948 157"/><path stroke-width="3" fill="none" stroke="#DD0" d="M188.948 157L247.096 157"/><path stroke-width="3" fill="none" stroke="#BBB" d="M107.994 157L107.994 157"/><path stroke-width="3" fill="blue" stroke="none" d="M179.958 157 A3 3 0 0 0 173.958 157 A3 3 0 0 0 179.958 157Z"/><text stroke-width="3" fill="red" stroke="none" font-size="8pt" x="176.958" y="140">+29</text><text stroke="none" font-size="8pt" x="247.096" y="150">78px</text><path stroke-width="3" fill="none" stroke="red" d="M247.096 157L312.608 157"/><path stroke-width="3" fill="none" stroke="#999" d="M312.608 157L312.608 157"/><path stroke-width="3" fill="none" stroke="green" d="M312.608 157L324.598 157"/><path stroke-width="3" fill="none" stroke="#999" d="M324.598 157L324.598 157"/><path stroke-width="3" fill="none" stroke="red" d="M324.598 157L324.598 157"/><path stroke-width="3" fill="none" stroke="#DD0" d="M324.598 157L411.349 157"/><path stroke-width="3" fill="none" stroke="#BBB" d="M247.096 157L247.096 157"/><path stroke-width="3" fill="blue" stroke="none" d="M315.608 157 A3 3 0 0 0 309.608 157 A3 3 0 0 0 315.608 157Z"/><text stroke-width="3" fill="red" stroke="none" font-size="8pt" x="312.608" y="140">+29</text><text stroke="none" font-size="8pt" x="411.349" y="150">49px</text><path stroke-width="3" fill="none" stroke="red" d="M411.349 157L448.259 157"/><path stroke-width="3" fill="none" stroke="#999" d="M448.259 157L448.259 157"/><path stroke-width="3" fill="none" stroke="green" d="M448.259 157L460.249 157"/><path stroke-width="3" fill="none" stroke="#999" d="M460.249 157L460.249 157"/><path stroke-width="3" fill="none" stroke="red" d="M460.249 157L460.249 157"/><path stroke-width="3" fill="none" stroke="#DD0" d="M460.249 157L530 157"/><path stroke-width="3" fill="none" stroke="#BBB" d="M411.349 157L411.349 157"/><path stroke-width="3" fill="blue" stroke="none" d="M451.259 157 A3 3 0 0 0 445.259 157 A3 3 0 0 0 451.259 157Z"/><text stroke-width="3" fill="red" stroke="none" font-size="8pt" x="448.259" y="140">-25</text></svg>