<svg xmlns="http://www.w3.org/2000/svg" stroke-width="0.3" stroke-dasharray="none" fill="black" stroke="black" font-family="Arial, sans-serif" font-size="10pt" font-weight="normal" font-style="normal" width="450" height="140" viewBox="0 0 450 140" style="width: 450px; height: 140px; border: none;"><g class="vf-stave" id="vf-auto12520" stroke-width="1" fill="#999999" stroke="#999999"><path fill="none" d="M0 40L440 40"/><path fill="none" d="M0 50L440 50"/><path fill="none" d="M0 60L440 60"/><path fill="none" d="M0 70L440 70"/><path fill="none" d="M0 80L440 80"/></g><g class="vf-stavebarline" id="vf-auto12521"><rect y="39.5" width="1" height="41" stroke="none"/></g><g class="vf-stavebarline" id="vf-auto12522"><rect x="440" y="39.5" width="1" height="41" stroke="none"/></g><g class="vf-stavenote" id="vf-auto12523"><g class="vf-stem" id="vf-auto12524" pointer-events="bounding-box"><path stroke-width="1.5" fill="none" d="M28.184 83L28.184 50"/></g><g class="vf-notehead" id="vf-auto12526" pointer-events="bounding-box"><path stroke="none" d="M20.931 90.054C24.525 90.054,28.934 86.741,28.934 83.315C28.934 81.237,27.305 79.946,25.003 79.946C20.566 79.946,17 83.231,17 86.685C17 88.791,18.741 90.054,20.931 90.054"/></g></g><g class="vf-stavenote" id="vf-auto12527"><g class="vf-stem" id="vf-auto12528" pointer-events="bounding-box"><path stroke-width="1.5" fill="none" d="M101.002 68L101.002 35"/></g><g class="vf-notehead" id="vf-auto12530" pointer-events="bounding-box"><path stroke="none" d="M93.749 75.054C97.343 75.054,101.752 71.741,101.752 68.315C101.752 66.237,100.123 64.946,97.82 64.946C93.384 64.946,89.818 68.231,89.818 71.685C89.818 73.791,91.559 75.054,93.749 75.054"/></g></g><g class="vf-stavenote" id="vf-auto12531"><g class="vf-stem" id="vf-auto12532" pointer-events="bounding-box"><path stroke-width="1.5" fill="none" d="M163.385 57L163.385 90"/></g><g class="vf-notehead" id="vf-auto12534" pointer-events="bounding-box"><path stroke="none" d="M166.566 60.054C170.161 60.054,174.569 56.741,174.569 53.315C174.569 51.237,172.941 49.946,170.638 49.946C166.201 49.946,162.635 53.231,162.635 56.685C162.635 58.791,164.376 60.054,166.566 60.054"/></g></g><g class="vf-stavenote" id="vf-auto12538"><g class="vf-notehead" id="vf-auto12565" pointer-events="bounding-box"><path stroke="none" d="M239.384 40.054C242.978 40.054,247.387 36.741,247.387 33.315C247.387 31.237,245.758 29.946,243.456 29.946C239.019 29.946,235.453 33.231,235.453 36.685C235.453 38.791,237.194 40.054,239.384 40.054"/></g></g><g class="vf-stavenote" id="vf-auto12544"><path stroke-width="1.4" fill="none" stroke="#444" d="M285.34 30L303.274 30"/><g class="vf-notehead" id="vf-auto12567" pointer-events="bounding-box"><path stroke="none" d="M292.271 35.054C295.865 35.054,300.274 31.741,300.274 28.315C300.274 26.237,298.645 24.946,296.342 24.946C291.906 24.946,288.34 28.231,288.34 31.685C288.34 33.791,290.081 35.054,292.271 35.054"/></g></g><g class="vf-stavenote" id="vf-auto12550"><path stroke-width="1.4" fill="none" stroke="#444" d="M338.226 30L356.16 30"/><g class="vf-notehead" id="vf-auto12569" pointer-events="bounding-box"><path stroke="none" d="M345.158 35.054C348.752 35.054,353.16 31.741,353.16 28.315C353.16 26.237,351.532 24.946,349.229 24.946C344.793 24.946,341.226 28.231,341.226 31.685C341.226 33.791,342.967 35.054,345.158 35.054"/></g></g><g class="vf-stavenote" id="vf-auto12556"><g class="vf-notehead" id="vf-auto12572" pointer-events="bounding-box"><path stroke="none" d="M398.044 60.054C401.639 60.054,406.047 56.741,406.047 53.315C406.047 51.237,404.419 49.946,402.116 49.946C397.679 49.946,394.113 53.231,394.113 56.685C394.113 58.791,395.854 60.054,398.044 60.054"/></g><g class="vf-notehead" id="vf-auto12571" pointer-events="bounding-box"><path stroke="none" d="M398.044 50.054C401.639 50.054,406.047 46.741,406.047 43.315C406.047 41.237,404.419 39.946,402.116 39.946C397.679 39.946,394.113 43.231,394.113 46.685C394.113 48.791,395.854 50.054,398.044 50.054"/></g></g><rect x="12" y="25" width="74.444" height="1" stroke="none"/><rect x="105.125" y="25" width="74.444" height="1" stroke="none"/><rect x="12" y="25" width="1" height="10" stroke="none"/><rect x="179.569" y="25" width="1" height="10" stroke="none"/><path stroke="none" d="M96.307 18.678C96.276 18.678,96.26 18.678,96.212 18.678L96.054 18.647C96.022 18.647,95.991 18.647,95.959 18.647C93.995 18.647,92.031 19.961,92.031 21.165C92.031 21.91,92.474 22.924,93.884 23.003L93.995 23.003C95.008 23.003,95.499 22.274,95.499 21.53L95.499 21.34C95.436 20.5,94.866 20.453,94.755 20.405C94.644 20.357,94.296 20.405,94.296 20.088L94.296 19.993C94.343 19.613,95.056 19.423,95.246 19.423C97.194 19.423,97.369 20.643,97.369 21.181L97.369 21.34C97.369 23.034,96.022 23.7,94.597 23.763C94.359 23.779,94.042 23.906,94.042 24.143C94.042 24.428,94.438 24.428,94.612 24.428C97.242 24.428,97.448 26.202,97.448 26.503C97.448 28.911,96.212 29.196,95.705 29.196C95.626 29.196,95.531 29.165,95.499 29.165C95.325 29.149,94.882 29.149,94.866 28.8L94.866 28.689C94.866 28.182,95.373 27.85,95.389 27.185C95.389 26.234,94.723 25.537,93.741 25.537C93.662 25.537,93.583 25.537,93.504 25.569C93.108 25.632,92.68 25.854,92.395 26.155C92.015 26.503,91.904 27.042,91.904 27.549C91.951 29.323,93.567 30.02,95.8 30.052L96.006 30.052C98.271 30.052,100.584 28.895,100.584 26.884L100.584 26.725C100.552 26.06,100.378 25.632,99.951 25.125C99.808 24.951,99.634 24.793,99.412 24.65L98.921 24.381L98.176 24.175C98.066 24.143,97.986 24.143,97.939 24.064C97.923 24.017,97.923 23.985,97.923 23.953C97.923 23.858,97.939 23.763,98.018 23.747C98.271 23.668,98.509 23.652,98.715 23.541C99.634 23.098,100.109 22.512,100.109 21.466C100.109 19.36,97.258 18.742,96.307 18.678"/><g class="vf-stem" id="vf-auto12539" pointer-events="bounding-box"><path stroke-width="1.5" fill="none" d="M236.203 37L236.203 69.417"/></g><g class="vf-stem" id="vf-auto12545" pointer-events="bounding-box"><path stroke-width="1.5" fill="none" d="M289.09 32L289.09 76.028"/></g><g class="vf-stem" id="vf-auto12551" pointer-events="bounding-box"><path stroke-width="1.5" fill="none" d="M341.976 32L341.976 82.639"/></g><g class="vf-stem" id="vf-auto12557" pointer-events="bounding-box"><path stroke-width="1.5" fill="none" d="M394.863 47L394.863 89.25"/></g><g class="vf-beam" id="vf-auto12574"><path stroke="none" d="M235.453 70.074L235.453 65.074L395.113 84.906L395.113 89.906Z"/><path stroke="none" d="M235.453 62.574L235.453 57.574L395.113 77.406L395.113 82.406Z"/></g></svg>