<svg xmlns="http://www.w3.org/2000/svg" stroke-width="0.3" stroke-dasharray="none" fill="black" stroke="black" font-family="Arial, sans-serif" font-size="10pt" font-weight="normal" font-style="normal" width="300" height="200" viewBox="0 0 300 200" style="width: 300px; height: 200px; border: none;"><g class="vf-stave" id="vf-auto24620" stroke-width="1" fill="#999999" stroke="#999999"><path fill="none" d="M50 50L300 50"/><path fill="none" d="M50 60L300 60"/><path fill="none" d="M50 70L300 70"/><path fill="none" d="M50 80L300 80"/><path fill="none" d="M50 90L300 90"/></g><g class="vf-stavebarline" id="vf-auto24621"/><g class="vf-stavebarline" id="vf-auto24622"><rect x="300" y="49.5" width="1" height="41" stroke="none"/></g><g class="vf-glyphNote" id="vf-auto24604"><path stroke="none" d="M88.859 59.056C88.974 58.883,89.061 58.768,89.061 58.624C89.061 58.509,88.974 58.422,88.802 58.422L84.424 58.422C84.165 58.422,83.963 58.682,83.675 59.056L67.115 79.792C67.029 79.878,67 79.994,67 80.08C67 80.253,67.115 80.368,67.346 80.368L71.435 80.368C71.81 80.368,72.098 80.022,72.299 79.792"/><g class="vf-chordsymbol" id="vf-auto24611"><text stroke="none" font-family="Roboto Slab, Times, serif" font-size="12pt" x="67" y="40">F7</text><path stroke="none" d="M89.652 35.802C89.652 35.738,89.634 35.674,89.606 35.647C88.657 34.306,88.064 32.59,88.064 29.68C88.064 26.779,88.63 25.036,89.615 23.731C89.652 23.667,89.652 23.521,89.652 23.521L89.652 23.248C89.652 23.184,89.652 23.138,89.634 23.138C89.615 23.138,89.588 23.156,89.588 23.156C87.991 24.735,87.234 27.016,87.234 29.68C87.234 32.326,87.946 34.625,89.588 36.231C89.606 36.24,89.615 36.24,89.634 36.24C89.643 36.24,89.652 36.185,89.652 36.158"/><path stroke="none" d="M91.36 24.881C91.377 24.873,91.403 24.864,91.429 24.864C91.497 24.864,91.565 24.907,91.591 24.975C91.6 25.01,91.6 25.018,91.6 26.105C91.6 27.122,91.6 27.191,91.617 27.191C91.617 27.191,91.617 27.191,91.617 27.191C91.711 27.165,92.061 27.088,92.087 27.088C92.164 27.088,92.224 27.131,92.25 27.191C92.258 27.216,92.267 27.413,92.267 27.61C92.267 27.807,92.258 28.003,92.25 28.029C92.224 28.115,92.207 28.115,91.865 28.2L91.6 28.269L91.6 29.175C91.6 30.022,91.6 30.09,91.608 30.09C91.617 30.09,91.617 30.09,91.617 30.09C91.711 30.056,92.061 29.979,92.087 29.979C92.138 29.979,92.173 29.996,92.215 30.031C92.258 30.082,92.258 30.065,92.258 30.39C92.258 30.424,92.258 30.467,92.258 30.51C92.258 30.552,92.258 30.587,92.258 30.621C92.258 30.954,92.258 30.937,92.215 30.98C92.173 31.023,92.173 31.023,91.865 31.1L91.6 31.16L91.6 32.272C91.6 33.367,91.6 33.375,91.591 33.401C91.565 33.478,91.497 33.512,91.429 33.512C91.386 33.512,91.334 33.495,91.3 33.461C91.257 33.418,91.249 33.495,91.249 32.811C91.249 32.674,91.249 32.511,91.249 32.314C91.249 31.724,91.249 31.245,91.249 31.245C91.249 31.245,91.078 31.288,90.873 31.339C90.659 31.391,90.488 31.433,90.488 31.433C90.488 31.433,90.488 31.947,90.488 32.571C90.488 33.692,90.488 33.7,90.471 33.734C90.445 33.803,90.376 33.846,90.308 33.846C90.265 33.846,90.214 33.828,90.18 33.794C90.137 33.743,90.137 33.82,90.137 33.127C90.137 32.99,90.137 32.819,90.137 32.614C90.137 31.596,90.137 31.527,90.128 31.527C90.128 31.527,90.128 31.527,90.12 31.527C90.017 31.553,89.701 31.622,89.675 31.622C89.598 31.622,89.53 31.579,89.504 31.519C89.495 31.493,89.495 31.297,89.495 31.1C89.495 30.903,89.495 30.706,89.504 30.681C89.538 30.604,89.555 30.595,89.88 30.51L90.137 30.45L90.137 29.535C90.137 28.688,90.137 28.628,90.128 28.628C90.128 28.628,90.128 28.628,90.12 28.628C90.017 28.653,89.701 28.73,89.675 28.73C89.598 28.73,89.53 28.688,89.504 28.619C89.495 28.602,89.495 28.397,89.495 28.2C89.495 28.003,89.495 27.807,89.504 27.781C89.538 27.704,89.555 27.695,89.88 27.618L90.137 27.559L90.137 26.447C90.137 25.343,90.137 25.335,90.145 25.309C90.171 25.232,90.24 25.198,90.308 25.198C90.351 25.198,90.402 25.215,90.436 25.249C90.479 25.292,90.488 25.215,90.488 25.899C90.488 26.036,90.488 26.199,90.488 26.404C90.488 26.986,90.488 27.465,90.488 27.465C90.488 27.465,90.659 27.422,90.864 27.379C91.078 27.328,91.249 27.285,91.249 27.285C91.249 27.285,91.249 26.772,91.249 26.147C91.249 25.018,91.249 25.01,91.266 24.975C91.275 24.941,91.317 24.898,91.36 24.881M91.249 29.261C91.249 28.542,91.249 28.354,91.249 28.354L91.249 28.354C91.24 28.354,91.18 28.363,91.112 28.388C91.044 28.405,90.873 28.44,90.736 28.474L90.488 28.542L90.488 29.449C90.488 29.954,90.488 30.364,90.488 30.364C90.488 30.364,90.659 30.321,90.864 30.27C91.078 30.219,91.249 30.176,91.249 30.176C91.249 30.176,91.249 29.765,91.249 29.261"/><text stroke="none" font-family="Roboto Slab, Times, serif" font-size="7.92pt" x="93.614" y="33.6">11</text><path stroke="none" d="M103.815 24.972C103.837 24.961,103.869 24.961,103.902 24.961C103.988 24.961,104.075 25.015,104.107 25.102C104.129 25.135,104.129 25.135,104.129 27.605L104.129 30.075L104.151 30.053C104.552 29.718,104.974 29.533,105.397 29.533C105.559 29.533,105.722 29.566,105.873 29.62C106.35 29.793,106.621 30.227,106.621 30.758C106.621 31.039,106.534 31.343,106.372 31.646C106.144 32.069,105.841 32.405,104.985 33.163C104.53 33.575,104.422 33.672,104.162 33.921C104.01 34.062,103.988 34.073,103.902 34.073C103.804 34.073,103.728 34.019,103.696 33.943L103.674 33.9L103.674 29.523L103.674 25.135L103.696 25.102C103.707 25.048,103.761 24.994,103.815 24.972M105.115 30.259C105.072 30.248,104.985 30.238,104.931 30.238C104.909 30.238,104.898 30.238,104.887 30.248C104.606 30.281,104.357 30.454,104.172 30.725L104.129 30.801L104.129 32.047L104.129 33.304L104.162 33.26C104.953 32.394,105.462 31.408,105.462 30.758C105.462 30.693,105.462 30.628,105.451 30.574C105.418 30.422,105.288 30.292,105.115 30.259"/><text stroke="none" font-family="Roboto Slab, Times, serif" font-size="7.92pt" x="106.626" y="33.6">9</text><path stroke="none" d="M113.79 36.158C113.79 36.185,113.808 36.24,113.818 36.24C113.836 36.24,113.845 36.24,113.854 36.231C115.496 34.625,116.208 32.326,116.208 29.68C116.208 27.016,115.46 24.735,113.854 23.156C113.854 23.156,113.836 23.138,113.818 23.138C113.79 23.138,113.79 23.184,113.79 23.248L113.79 23.521C113.79 23.521,113.79 23.667,113.836 23.731C114.821 25.036,115.378 26.779,115.378 29.68C115.378 32.59,114.794 34.306,113.845 35.647C113.818 35.674,113.79 35.738,113.79 35.802"/></g></g><g class="vf-glyphNote" id="vf-auto24606"><path stroke="none" d="M150.403 59.056C150.518 58.883,150.604 58.768,150.604 58.624C150.604 58.509,150.518 58.422,150.345 58.422L145.968 58.422C145.708 58.422,145.507 58.682,145.219 59.056L128.659 79.792C128.572 79.878,128.544 79.994,128.544 80.08C128.544 80.253,128.659 80.368,128.889 80.368L132.979 80.368C133.353 80.368,133.641 80.022,133.843 79.792"/></g><g class="vf-glyphNote" id="vf-auto24608"><path stroke="none" d="M211.946 59.056C212.061 58.883,212.148 58.768,212.148 58.624C212.148 58.509,212.061 58.422,211.889 58.422L207.511 58.422C207.252 58.422,207.05 58.682,206.762 59.056L190.202 79.792C190.116 79.878,190.087 79.994,190.087 80.08C190.087 80.253,190.202 80.368,190.433 80.368L194.522 80.368C194.897 80.368,195.185 80.022,195.386 79.792"/><g class="vf-chordsymbol" id="vf-auto24616"><text stroke="none" font-family="Roboto Slab, Times, serif" font-size="12pt" x="190.087" y="40">F7</text><path stroke="none" d="M211.754 24.881C211.771 24.873,211.797 24.864,211.823 24.864C211.891 24.864,211.96 24.907,211.985 24.975C211.994 25.01,211.994 25.018,211.994 26.105C211.994 27.122,211.994 27.191,212.011 27.191C212.011 27.191,212.011 27.191,212.011 27.191C212.105 27.165,212.456 27.088,212.481 27.088C212.558 27.088,212.618 27.131,212.644 27.191C212.652 27.216,212.661 27.413,212.661 27.61C212.661 27.807,212.652 28.003,212.644 28.029C212.618 28.115,212.601 28.115,212.259 28.2L211.994 28.269L211.994 29.175C211.994 30.022,211.994 30.09,212.002 30.09C212.011 30.09,212.011 30.09,212.011 30.09C212.105 30.056,212.456 29.979,212.481 29.979C212.533 29.979,212.567 29.996,212.61 30.031C212.652 30.082,212.652 30.065,212.652 30.39C212.652 30.424,212.652 30.467,212.652 30.51C212.652 30.552,212.652 30.587,212.652 30.621C212.652 30.954,212.652 30.937,212.61 30.98C212.567 31.023,212.567 31.023,212.259 31.1L211.994 31.16L211.994 32.272C211.994 33.367,211.994 33.375,211.985 33.401C211.96 33.478,211.891 33.512,211.823 33.512C211.78 33.512,211.729 33.495,211.694 33.461C211.652 33.418,211.643 33.495,211.643 32.811C211.643 32.674,211.643 32.511,211.643 32.314C211.643 31.724,211.643 31.245,211.643 31.245C211.643 31.245,211.472 31.288,211.267 31.339C211.053 31.391,210.882 31.433,210.882 31.433C210.882 31.433,210.882 31.947,210.882 32.571C210.882 33.692,210.882 33.7,210.865 33.734C210.839 33.803,210.771 33.846,210.702 33.846C210.659 33.846,210.608 33.828,210.574 33.794C210.531 33.743,210.531 33.82,210.531 33.127C210.531 32.99,210.531 32.819,210.531 32.614C210.531 31.596,210.531 31.527,210.523 31.527C210.523 31.527,210.523 31.527,210.514 31.527C210.411 31.553,210.095 31.622,210.069 31.622C209.992 31.622,209.924 31.579,209.898 31.519C209.89 31.493,209.89 31.297,209.89 31.1C209.89 30.903,209.89 30.706,209.898 30.681C209.932 30.604,209.949 30.595,210.275 30.51L210.531 30.45L210.531 29.535C210.531 28.688,210.531 28.628,210.523 28.628C210.523 28.628,210.523 28.628,210.514 28.628C210.411 28.653,210.095 28.73,210.069 28.73C209.992 28.73,209.924 28.688,209.898 28.619C209.89 28.602,209.89 28.397,209.89 28.2C209.89 28.003,209.89 27.807,209.898 27.781C209.932 27.704,209.949 27.695,210.275 27.618L210.531 27.559L210.531 26.447C210.531 25.343,210.531 25.335,210.54 25.309C210.565 25.232,210.634 25.198,210.702 25.198C210.745 25.198,210.796 25.215,210.83 25.249C210.873 25.292,210.882 25.215,210.882 25.899C210.882 26.036,210.882 26.199,210.882 26.404C210.882 26.986,210.882 27.465,210.882 27.465C210.882 27.465,211.053 27.422,211.258 27.379C211.472 27.328,211.643 27.285,211.643 27.285C211.643 27.285,211.643 26.772,211.643 26.147C211.643 25.018,211.643 25.01,211.66 24.975C211.669 24.941,211.712 24.898,211.754 24.881M211.643 29.261C211.643 28.542,211.643 28.354,211.643 28.354L211.643 28.354C211.635 28.354,211.575 28.363,211.506 28.388C211.438 28.405,211.267 28.44,211.13 28.474L210.882 28.542L210.882 29.449C210.882 29.954,210.882 30.364,210.882 30.364C210.882 30.364,211.053 30.321,211.258 30.27C211.472 30.219,211.643 30.176,211.643 30.176C211.643 30.176,211.643 29.765,211.643 29.261"/><text stroke="none" font-family="Roboto Slab, Times, serif" font-size="7.92pt" x="214.008" y="33.6">11</text><path stroke="none" d="M210.753 36.172C210.775 36.161,210.807 36.161,210.84 36.161C210.927 36.161,211.013 36.215,211.046 36.302C211.068 36.335,211.068 36.335,211.068 38.805L211.068 41.275L211.089 41.253C211.49 40.918,211.913 40.733,212.335 40.733C212.498 40.733,212.66 40.766,212.812 40.82C213.289 40.993,213.559 41.427,213.559 41.958C213.559 42.239,213.473 42.543,213.31 42.846C213.083 43.269,212.779 43.605,211.923 44.363C211.468 44.775,211.36 44.872,211.1 45.121C210.948 45.262,210.927 45.273,210.84 45.273C210.742 45.273,210.667 45.219,210.634 45.143L210.612 45.1L210.612 40.723L210.612 36.335L210.634 36.302C210.645 36.248,210.699 36.194,210.753 36.172M212.053 41.459C212.01 41.448,211.923 41.438,211.869 41.438C211.848 41.438,211.837 41.438,211.826 41.448C211.544 41.481,211.295 41.654,211.111 41.925L211.068 42.001L211.068 43.247L211.068 44.504L211.1 44.46C211.891 43.594,212.4 42.608,212.4 41.958C212.4 41.893,212.4 41.828,212.389 41.774C212.357 41.622,212.227 41.492,212.053 41.459"/><text stroke="none" font-family="Roboto Slab, Times, serif" font-size="7.92pt" x="214.092" y="44.8">9</text></g></g><g class="vf-glyphNote" id="vf-auto24610"><path stroke="none" d="M273.49 59.056C273.605 58.883,273.691 58.768,273.691 58.624C273.691 58.509,273.605 58.422,273.432 58.422L269.055 58.422C268.795 58.422,268.594 58.682,268.306 59.056L251.746 79.792C251.659 79.878,251.631 79.994,251.631 80.08C251.631 80.253,251.746 80.368,251.976 80.368L256.066 80.368C256.44 80.368,256.728 80.022,256.93 79.792"/></g><path stroke="none" d="M60.408 38.413C60.552 38.298,60.696 38.24,60.782 38.24C60.869 38.24,60.926 38.269,60.984 38.384C61.042 38.442,61.042 38.47,61.042 38.528C61.042 38.643,60.955 38.758,60.667 39.104C58.997 41.005,57.154 42.704,55.426 43.914C55.282 44.029,55.109 44.144,55.08 44.173C54.187 44.835,52.718 45.67,51.595 46.189C49.55 47.11,47.39 47.629,45.576 47.629C45.173 47.629,45.115 47.6,45.058 47.485C45.029 47.427,45 46.534,45 45.67C45 44.778,45.029 43.885,45.058 43.827C45.144 43.712,45.144 43.712,45.778 43.683C50.674 43.568,55.714 41.754,60.408 38.413"/><path stroke="none" d="M45.144 93.429C45.173 93.4,45.346 93.371,45.576 93.371C45.864 93.371,46.267 93.4,46.699 93.458C49.176 93.717,51.739 94.667,54.245 96.28C54.562 96.482,55.339 97,55.512 97.115C55.541 97.144,55.685 97.259,55.829 97.374C57.442 98.584,59.112 100.168,60.638 101.896C60.926 102.242,61.042 102.357,61.042 102.472C61.042 102.53,61.013 102.558,60.984 102.616C60.926 102.731,60.869 102.76,60.782 102.76C60.667 102.76,60.552 102.702,60.379 102.587C55.714 99.246,50.645 97.432,45.778 97.317C45.144 97.288,45.115 97.288,45.029 97.173C45 97.086,45 97.086,45 95.33C45 95.07,45 94.84,45 94.667C45 93.4,45 93.486,45.144 93.429"/><rect x="45" y="44" width="3" height="53" stroke="none"/></svg>