<svg xmlns="http://www.w3.org/2000/svg" stroke-width="0.3" stroke-dasharray="none" fill="black" stroke="black" font-family="Arial, sans-serif" font-size="10pt" font-weight="normal" font-style="normal" width="700" height="130" viewBox="0 0 700 130" style="width: 700px; height: 130px; border: none;"><g class="vf-stave" id="vf-auto18618" stroke-width="1" fill="#999999" stroke="#999999"><path fill="none" d="M10 50L660 50"/><path fill="none" d="M10 60L660 60"/><path fill="none" d="M10 70L660 70"/><path fill="none" d="M10 80L660 80"/><path fill="none" d="M10 90L660 90"/></g><g class="vf-stavebarline" id="vf-auto18619"><rect x="10" y="49.5" width="1" height="41" stroke="none"/></g><g class="vf-stavebarline" id="vf-auto18620"><rect x="660" y="49.5" width="1" height="41" stroke="none"/></g><g class="vf-stavenote" id="vf-auto18622"><g class="vf-stem" id="vf-auto18623" pointer-events="bounding-box"><path stroke-width="1.5" fill="none" d="M271.15 83L271.15 53"/></g><g class="vf-notehead" id="vf-auto18626" pointer-events="bounding-box"><path stroke="none" d="M261.536 91.543C261.817 91.599,262.07 91.627,262.351 91.627C266.226 91.627,272.01 86.348,271.898 82.08C271.786 81.041,271.814 79.609,269.708 78.766C269.118 78.485,268.472 78.373,267.77 78.373C263.446 78.373,258.757 83.343,258.42 86.657C258.42 86.909,258.391 87.134,258.391 87.387C258.391 89.409,259.29 91.037,261.536 91.543"/><g class="vf-stavenote" id="vf-auto18628"><g class="vf-stem" id="vf-auto18629" pointer-events="bounding-box"><path stroke-width="1.5" fill="none" d="M37.165 93L37.165 54.9"/></g><g class="vf-notehead" id="vf-auto18636" pointer-events="bounding-box"><path stroke="none" d="M31.076 99.318C31.261 99.355,31.428 99.374,31.613 99.374C34.171 99.374,37.988 95.89,37.914 93.073C37.84 92.387,37.859 91.442,36.469 90.886C36.08 90.7,35.653 90.626,35.19 90.626C32.336 90.626,29.241 93.907,29.019 96.093C29.019 96.26,29 96.408,29 96.575C29 97.91,29.593 98.985,31.076 99.318"/></g><g class="vf-notehead" id="vf-auto18637" pointer-events="bounding-box"><path stroke="none" d="M31.076 79.318C31.261 79.355,31.428 79.374,31.613 79.374C34.171 79.374,37.988 75.89,37.914 73.073C37.84 72.387,37.859 71.442,36.469 70.886C36.08 70.7,35.653 70.626,35.19 70.626C32.336 70.626,29.241 73.907,29.019 76.093C29.019 76.26,29 76.408,29 76.575C29 77.91,29.593 78.985,31.076 79.318"/></g><path stroke="none" d="M41.327 71.602C41.994 70.842,42.642 70.045,42.92 69.081C43.254 68.044,43.384 67.006,43.384 65.968C43.384 65.264,43.328 64.578,43.217 63.892C42.902 61.613,42.179 59.537,40.733 57.721C40.103 56.924,39.492 56.09,38.843 55.293C38.102 54.329,37.639 53.458,37.62 52.217C37.62 51.976,37.564 51.586,37.564 51.29C37.564 50.808,37.379 50.345,37.194 49.9L37.064 49.9C36.527 50.141,36.415 50.567,36.415 51.068L36.415 52.569C36.415 54.626,36.953 56.498,38.194 58.147C38.713 58.759,39.195 59.426,39.696 60.037C40.974 61.557,41.938 63.262,42.123 65.301C42.161 65.671,42.29 66.042,42.29 66.394C42.29 66.58,42.253 66.765,42.179 66.932C41.92 67.506,41.642 68.136,41.16 68.525C40.733 68.878,40.641 69.267,40.641 69.693C40.641 69.915,40.659 70.156,40.678 70.397C40.715 70.749,40.845 71.083,40.863 71.435C40.9 71.658,40.974 71.75,41.067 71.75C41.141 71.75,41.215 71.695,41.327 71.602"/></g><path stroke-width="1" fill="none" d="M30 66.75L43 57.75Z"/><g class="vf-stavenote" id="vf-auto18638"><g class="vf-stem" id="vf-auto18639" pointer-events="bounding-box"><path stroke-width="1.5" fill="none" d="M58.996 93L58.996 54.9"/></g><g class="vf-notehead" id="vf-auto18646" pointer-events="bounding-box"><path stroke="none" d="M52.906 99.318C53.092 99.355,53.258 99.374,53.444 99.374C56.001 99.374,59.819 95.89,59.745 93.073C59.671 92.387,59.689 91.442,58.299 90.886C57.91 90.7,57.484 90.626,57.021 90.626C54.167 90.626,51.072 93.907,50.849 96.093C50.849 96.26,50.831 96.408,50.831 96.575C50.831 97.91,51.424 98.985,52.906 99.318"/></g><g class="vf-notehead" id="vf-auto18647" pointer-events="bounding-box"><path stroke="none" d="M52.906 79.318C53.092 79.355,53.258 79.374,53.444 79.374C56.001 79.374,59.819 75.89,59.745 73.073C59.671 72.387,59.689 71.442,58.299 70.886C57.91 70.7,57.484 70.626,57.021 70.626C54.167 70.626,51.072 73.907,50.849 76.093C50.849 76.26,50.831 76.408,50.831 76.575C50.831 77.91,51.424 78.985,52.906 79.318"/></g><path stroke="none" d="M65.937 71.75C66.085 71.806,66.197 71.658,66.308 71.546C66.438 71.38,66.512 71.194,66.604 70.99C66.845 70.323,66.901 69.619,66.864 68.803C66.845 68.507,66.845 68.136,66.79 67.729C66.901 66.876,66.994 66.024,66.975 65.115C66.994 64.559,66.901 63.911,66.864 63.262C66.753 61.965,66.419 60.742,65.937 59.537C65.103 57.461,63.509 55.96,61.953 54.441C61.211 53.718,60.433 53.014,60.025 52.013C59.803 51.475,59.821 50.882,59.636 50.345C59.58 50.197,59.58 49.9,59.339 49.9C59.321 49.9,59.284 49.919,59.228 49.919C58.987 50.011,58.746 50.085,58.746 50.493C58.746 50.697,58.783 50.919,58.783 51.16C58.617 51.179,58.487 51.234,58.431 51.364C58.357 51.549,58.265 51.735,58.265 51.92C58.246 52.309,58.246 52.643,58.246 53.051C58.246 54.57,58.468 56.071,58.895 57.498C59.655 60.223,61.137 62.521,63.027 64.597C64.733 66.505,65.844 68.692,65.826 71.361C65.826 71.491,65.752 71.676,65.937 71.75M65.9 65.023C65.511 64.152,64.992 63.299,64.38 62.521C63.176 60.946,61.749 59.556,60.933 57.684C60.563 56.831,60.136 56.016,59.84 55.108C60.192 55.682,60.618 56.257,61.137 56.757C62.138 57.776,63.231 58.759,64.139 59.889C65.344 61.409,66.03 63.114,65.9 65.023"/></g><path stroke-width="1" fill="none" d="M51.831 66.75L64.831 57.75Z"/><g class="vf-stavenote" id="vf-auto18648"><g class="vf-stem" id="vf-auto18649" pointer-events="bounding-box"><path stroke-width="1.5" fill="none" d="M80.827 93L80.827 48.96"/></g><g class="vf-notehead" id="vf-auto18656" pointer-events="bounding-box"><path stroke="none" d="M74.737 99.318C74.922 99.355,75.089 99.374,75.274 99.374C77.832 99.374,81.65 95.89,81.576 93.073C81.502 92.387,81.52 91.442,80.13 90.886C79.741 90.7,79.315 90.626,78.851 90.626C75.997 90.626,72.902 93.907,72.68 96.093C72.68 96.26,72.661 96.408,72.661 96.575C72.661 97.91,73.254 98.985,74.737 99.318"/></g><g class="vf-notehead" id="vf-auto18657" pointer-events="bounding-box"><path stroke="none" d="M74.737 79.318C74.922 79.355,75.089 79.374,75.274 79.374C77.832 79.374,81.65 75.89,81.576 73.073C81.502 72.387,81.52 71.442,80.13 70.886C79.741 70.7,79.315 70.626,78.851 70.626C75.997 70.626,72.902 73.907,72.68 76.093C72.68 76.26,72.661 76.408,72.661 76.575C72.661 77.91,73.254 78.985,74.737 79.318"/></g><path stroke="none" d="M86.063 72.566C86.322 72.64,86.452 72.325,86.582 72.102C86.637 72.028,86.674 71.917,86.73 71.843C87.064 70.694,87.249 69.545,87.23 68.414C87.23 67.08,86.971 65.746,86.396 64.411C86.267 64.152,86.193 63.855,86.193 63.54C86.193 63.373,86.193 63.188,86.248 63.021C86.378 62.465,86.452 61.928,86.452 61.409C86.452 61.168,86.433 60.89,86.396 60.63C86.341 60.149,86.155 59.648,86.155 59.166C86.155 59,86.155 58.87,86.211 58.703C86.433 58.017,86.526 57.35,86.508 56.757C86.526 53.829,85.414 50.938,82.875 49.4C81.893 48.807,81.003 48.01,81.059 46.638C81.059 46.508,80.966 46.342,80.911 46.249C80.818 46.138,80.818 45.897,80.688 45.915L80.633 45.915C80.484 45.971,80.243 46.027,80.188 46.305C80.132 46.749,80.058 47.213,80.077 47.676C80.151 48.695,80.077 49.659,80.077 50.697C80.077 51.012,80.095 51.364,80.077 51.716C80.077 52.81,80.188 53.903,80.151 55.015C80.151 56.146,80.206 57.258,80.206 58.351C80.206 59.593,80.484 60.742,81.3 61.724C81.819 62.336,82.43 62.817,83.005 63.318C84.636 64.745,85.544 66.561,85.97 68.637C86.026 68.822,86.026 69.026,86.026 69.248C86.026 69.915,85.859 70.583,85.859 71.25C85.859 71.491,85.896 71.75,85.952 71.991C86.007 72.176,85.84 72.51,86.063 72.566M85.359 56.868C84.691 55.256,83.283 54.441,82.319 53.236C82.004 52.828,81.782 52.402,81.763 51.846C83.431 52.569,85.414 54.885,85.414 56.461C85.414 56.627,85.396 56.757,85.359 56.868M85.173 62.076C84.265 60.816,83.098 60.037,82.134 59.018C81.522 58.351,81.3 57.647,81.281 56.868C81.281 56.572,81.337 56.22,81.393 55.886C83.116 57.647,84.988 59.241,85.173 62.076"/></g><path stroke-width="1" fill="none" d="M73.661 66.75L86.661 57.75Z"/><g class="vf-stavenote" id="vf-auto18658"><g class="vf-stem" id="vf-auto18659" pointer-events="bounding-box"><path stroke-width="1.5" fill="none" d="M102.657 93L102.657 46.32"/></g><g class="vf-notehead" id="vf-auto18666" pointer-events="bounding-box"><path stroke="none" d="M96.568 99.318C96.753 99.355,96.92 99.374,97.105 99.374C99.663 99.374,103.48 95.89,103.406 93.073C103.332 92.387,103.351 91.442,101.961 90.886C101.572 90.7,101.145 90.626,100.682 90.626C97.828 90.626,94.733 93.907,94.511 96.093C94.511 96.26,94.492 96.408,94.492 96.575C94.492 97.91,95.085 98.985,96.568 99.318"/></g><g class="vf-notehead" id="vf-auto18667" pointer-events="bounding-box"><path stroke="none" d="M96.568 79.318C96.753 79.355,96.92 79.374,97.105 79.374C99.663 79.374,103.48 75.89,103.406 73.073C103.332 72.387,103.351 71.442,101.961 70.886C101.572 70.7,101.145 70.626,100.682 70.626C97.828 70.626,94.733 73.907,94.511 76.093C94.511 76.26,94.492 76.408,94.492 76.575C94.492 77.91,95.085 78.985,96.568 79.318"/></g><path stroke="none" d="M108.394 71.861C108.653 71.935,108.839 71.676,108.95 71.435C109.302 70.638,109.432 69.749,109.432 68.841C109.432 67.413,109.024 66.042,108.561 64.689C108.449 64.448,108.357 64.207,108.357 63.911C108.357 63.855,108.394 63.781,108.394 63.688C108.505 62.947,108.635 62.206,108.635 61.409C108.635 61.168,108.635 60.89,108.579 60.649C108.561 60.519,108.561 60.408,108.561 60.278C108.561 59.834,108.69 59.407,108.82 58.981C109.061 58.129,109.191 57.22,109.191 56.312C109.191 55.83,109.135 55.349,109.08 54.885C108.987 53.959,108.357 53.106,108.357 52.254C108.357 52.124,108.357 51.957,108.412 51.827C108.412 51.586,108.449 51.346,108.449 51.105C108.449 50.382,108.357 49.789,108.227 49.214C107.893 47.898,107.06 46.861,106.096 45.915C105.262 45.119,104.261 44.563,103.501 43.673C103.242 43.358,103.056 43.043,103.056 42.58C103.056 42.061,102.927 41.486,102.686 40.986C102.593 40.856,102.575 40.634,102.408 40.634C102.389 40.634,102.389 40.634,102.352 40.671C102.167 40.689,101.926 40.782,101.889 41.004C101.833 41.245,101.796 41.468,101.796 41.671L101.796 41.838C101.889 42.431,101.889 43.006,101.889 43.58L101.889 44.97C101.889 45.637,101.907 46.323,102.019 47.009C102.13 47.732,102.148 48.51,102.148 49.251L102.148 50.549C102.148 50.864,102.167 51.16,102.167 51.475C102.26 52.68,102.519 53.847,102.445 55.015C102.352 56.09,102.278 57.165,102.278 58.203C102.278 58.74,102.315 59.259,102.352 59.797C102.463 61.112,103.001 62.206,104.02 63.021C104.558 63.466,105.076 63.892,105.558 64.356C107.486 66.283,108.227 68.637,108.283 71.268C108.283 71.38,108.264 71.509,108.264 71.62C108.264 71.695,108.283 71.806,108.394 71.861M107.226 51.531C105.354 50.215,103.371 49.01,103.056 46.323C104.15 47.231,105.132 48.084,106.151 48.936C106.652 49.363,106.985 49.956,107.263 50.512C107.356 50.678,107.375 50.808,107.375 50.938C107.375 51.123,107.319 51.308,107.226 51.531M107.43 57.498C106.318 56.405,105.169 55.367,104.094 54.255C103.427 53.551,103.353 52.624,103.316 51.531C104.446 52.736,105.67 53.644,106.874 54.57C107.541 55.071,108.023 55.738,108.023 56.572C108.023 56.813,107.968 57.072,107.893 57.35C107.801 57.554,107.745 57.647,107.671 57.647C107.597 57.647,107.504 57.591,107.43 57.498M107.467 62.706C106.411 61.316,105.021 60.556,104.076 59.315C103.649 58.796,103.427 58.203,103.427 57.461C103.427 57.258,103.427 57.072,103.464 56.924C104.409 58.258,105.725 59.018,106.707 60.149C107.226 60.705,107.486 61.372,107.486 62.261C107.486 62.391,107.486 62.558,107.467 62.706"/></g><path stroke-width="1" fill="none" d="M95.492 66.75L108.492 57.75Z"/><g class="vf-stavenote" id="vf-auto18668"><g class="vf-stem" id="vf-auto18669" pointer-events="bounding-box"><path stroke-width="1.5" fill="none" d="M124.488 93L124.488 40.38"/></g><g class="vf-notehead" id="vf-auto18676" pointer-events="bounding-box"><path stroke="none" d="M118.398 99.318C118.584 99.355,118.751 99.374,118.936 99.374C121.493 99.374,125.311 95.89,125.237 93.073C125.163 92.387,125.181 91.442,123.791 90.886C123.402 90.7,122.976 90.626,122.513 90.626C119.659 90.626,116.564 93.907,116.341 96.093C116.341 96.26,116.323 96.408,116.323 96.575C116.323 97.91,116.916 98.985,118.398 99.318"/></g><g class="vf-notehead" id="vf-auto18677" pointer-events="bounding-box"><path stroke="none" d="M118.398 79.318C118.584 79.355,118.751 79.374,118.936 79.374C121.493 79.374,125.311 75.89,125.237 73.073C125.163 72.387,125.181 71.442,123.791 70.886C123.402 70.7,122.976 70.626,122.513 70.626C119.659 70.626,116.564 73.907,116.341 76.093C116.341 76.26,116.323 76.408,116.323 76.575C116.323 77.91,116.916 78.985,118.398 79.318"/></g><path stroke="none" d="M129.261 71.361C129.52 71.361,129.669 71.009,129.817 70.768C129.854 70.712,129.854 70.638,129.854 70.583C130.095 69.841,130.169 69.119,130.169 68.359C130.169 67.376,130.002 66.394,129.817 65.412C129.743 65.023,129.669 64.689,129.669 64.319C129.669 64.041,129.724 63.781,129.854 63.485C130.002 63.132,129.984 62.651,130.039 62.224C130.039 62.132,130.058 61.983,130.058 61.854C130.058 61.186,129.909 60.501,129.909 59.797C129.909 59.407,129.928 59.018,130.095 58.629C130.336 57.98,130.428 57.35,130.428 56.683C130.428 55.664,130.187 54.644,129.872 53.644C129.854 53.551,129.817 53.477,129.817 53.366C129.817 53.31,129.817 53.254,129.872 53.217C130.28 52.439,130.465 51.679,130.465 50.919C130.465 50.122,130.243 49.288,129.984 48.436C129.909 48.195,129.798 47.973,129.798 47.787C129.798 47.602,129.872 47.454,130.113 47.231C130.28 47.12,130.354 46.879,130.391 46.675C130.41 46.323,130.428 46.008,130.428 45.675C130.428 43.654,129.761 41.838,128.242 40.319C127.686 39.781,127.055 39.355,126.462 38.854C125.795 38.298,125.128 37.761,125.128 36.779C125.128 36.501,124.998 36.315,124.887 36.112C124.813 35.963,124.813 35.759,124.665 35.759C124.646 35.759,124.628 35.778,124.591 35.778C124.405 35.871,124.146 35.871,124.053 36.149C123.998 36.445,123.738 36.723,123.738 36.983C123.738 37.631,123.794 38.206,123.757 38.873C123.738 39.67,123.738 40.43,123.738 41.208C123.738 41.449,123.738 41.709,123.757 41.949C123.849 42.82,124.146 43.654,124.146 44.544C124.146 45.489,124.183 46.49,124.183 47.528C124.183 47.898,124.164 48.306,124.146 48.677C124.109 49.214,124.09 49.715,124.09 50.252C124.09 50.938,124.109 51.661,124.109 52.346C124.109 53.236,124.09 54.144,123.979 55.015C123.923 55.534,123.905 56.016,123.905 56.553C123.905 57.35,123.96 58.147,123.96 58.925C123.96 59.648,124.276 60.167,124.776 60.686C125.721 61.613,126.703 62.521,127.389 63.651C128.649 65.671,128.853 67.988,129.076 70.286C129.076 70.416,129.057 70.564,129.076 70.694C129.094 70.824,129.057 70.99,129.057 71.12C129.057 71.268,129.076 71.361,129.261 71.361M129.372 47.12C127.982 45.156,125.814 43.71,125.128 41.097C128.056 43.284,129.391 44.581,129.372 47.12M128.76 51.253C128.056 50.159,127.055 49.418,126.092 48.566C125.517 48.084,125.239 47.546,125.239 46.805C125.239 46.638,125.258 46.49,125.295 46.305C126.481 48.01,128.223 49.177,128.76 51.253M128.909 57.239C128.056 56.016,127.074 55.071,126.184 54.033C125.665 53.458,125.239 52.791,125.239 51.976C125.239 51.846,125.239 51.716,125.258 51.586C126.833 52.217,128.723 55.108,128.909 57.239M128.353 61.186C127.389 59.537,125.369 58.629,125.017 56.516C126.166 58.073,127.982 59.129,128.353 61.186"/></g><path stroke-width="1" fill="none" d="M117.323 66.75L130.323 57.75Z"/><g class="vf-stavenote" id="vf-auto18678"><g class="vf-notehead" id="vf-auto18686" pointer-events="bounding-box"><path stroke="none" d="M140.229 99.318C140.414 99.355,140.581 99.374,140.767 99.374C143.324 99.374,147.142 95.89,147.068 93.073C146.994 92.387,147.012 91.442,145.622 90.886C145.233 90.7,144.807 90.626,144.343 90.626C141.489 90.626,138.394 93.907,138.172 96.093C138.172 96.26,138.153 96.408,138.153 96.575C138.153 97.91,138.746 98.985,140.229 99.318"/></g><g class="vf-notehead" id="vf-auto18687" pointer-events="bounding-box"><path stroke="none" d="M140.229 79.318C140.414 79.355,140.581 79.374,140.767 79.374C143.324 79.374,147.142 75.89,147.068 73.073C146.994 72.387,147.012 71.442,145.622 70.886C145.233 70.7,144.807 70.626,144.343 70.626C141.489 70.626,138.394 73.907,138.172 76.093C138.172 76.26,138.153 76.408,138.153 76.575C138.153 77.91,138.746 78.985,140.229 79.318"/></g></g><path stroke-width="1" fill="none" d="M142.076 64.143L157.854 48.364Z"/><g class="vf-stavenote" id="vf-auto18688"><g class="vf-notehead" id="vf-auto18696" pointer-events="bounding-box"><path stroke="none" d="M153.144 99.318C153.33 99.355,153.497 99.374,153.682 99.374C156.239 99.374,160.057 95.89,159.983 93.073C159.909 92.387,159.927 91.442,158.537 90.886C158.148 90.7,157.722 90.626,157.259 90.626C154.405 90.626,151.31 93.907,151.087 96.093C151.087 96.26,151.069 96.408,151.069 96.575C151.069 97.91,151.662 98.985,153.144 99.318"/></g><g class="vf-notehead" id="vf-auto18697" pointer-events="bounding-box"><path stroke="none" d="M153.144 79.318C153.33 79.355,153.497 79.374,153.682 79.374C156.239 79.374,160.057 75.89,159.983 73.073C159.909 72.387,159.927 71.442,158.537 70.886C158.148 70.7,157.722 70.626,157.259 70.626C154.405 70.626,151.31 73.907,151.087 76.093C151.087 76.26,151.069 76.408,151.069 76.575C151.069 77.91,151.662 78.985,153.144 79.318"/></g></g><path stroke-width="1" fill="none" d="M154.991 64.143L170.77 48.364Z"/><g class="vf-stavenote" id="vf-auto18698"><g class="vf-notehead" id="vf-auto18706" pointer-events="bounding-box"><path stroke="none" d="M166.06 99.318C166.245 99.355,166.412 99.374,166.597 99.374C169.155 99.374,172.972 95.89,172.898 93.073C172.824 92.387,172.843 91.442,171.453 90.886C171.064 90.7,170.637 90.626,170.174 90.626C167.32 90.626,164.225 93.907,164.003 96.093C164.003 96.26,163.984 96.408,163.984 96.575C163.984 97.91,164.577 98.985,166.06 99.318"/></g><g class="vf-notehead" id="vf-auto18707" pointer-events="bounding-box"><path stroke="none" d="M166.06 79.318C166.245 79.355,166.412 79.374,166.597 79.374C169.155 79.374,172.972 75.89,172.898 73.073C172.824 72.387,172.843 71.442,171.453 70.886C171.064 70.7,170.637 70.626,170.174 70.626C167.32 70.626,164.225 73.907,164.003 76.093C164.003 76.26,163.984 76.408,163.984 76.575C163.984 77.91,164.577 78.985,166.06 79.318"/></g></g><path stroke-width="1" fill="none" d="M176.392 64.143L160.614 48.364Z"/><g class="vf-stavenote" id="vf-auto18708"><g class="vf-notehead" id="vf-auto18716" pointer-events="bounding-box"><path stroke="none" d="M178.975 94.318C179.16 94.355,179.327 94.374,179.513 94.374C182.07 94.374,185.888 90.89,185.814 88.073C185.74 87.387,185.758 86.442,184.368 85.886C183.979 85.7,183.553 85.626,183.089 85.626C180.235 85.626,177.14 88.907,176.918 91.093C176.918 91.26,176.899 91.408,176.899 91.575C176.899 92.91,177.492 93.985,178.975 94.318"/></g><g class="vf-notehead" id="vf-auto18717" pointer-events="bounding-box"><path stroke="none" d="M178.975 79.318C179.16 79.355,179.327 79.374,179.513 79.374C182.07 79.374,185.888 75.89,185.814 73.073C185.74 72.387,185.758 71.442,184.368 70.886C183.979 70.7,183.553 70.626,183.089 70.626C180.235 70.626,177.14 73.907,176.918 76.093C176.918 76.26,176.899 76.408,176.899 76.575C176.899 77.91,177.492 78.985,178.975 79.318"/></g></g><path stroke-width="1" fill="none" d="M181.372 46.087L195.903 27.476Z"/><g class="vf-stavenote" id="vf-auto18718"><g class="vf-notehead" id="vf-auto18726" pointer-events="bounding-box"><path stroke="none" d="M191.89 94.318C192.076 94.355,192.243 94.374,192.428 94.374C194.985 94.374,198.803 90.89,198.729 88.073C198.655 87.387,198.673 86.442,197.283 85.886C196.894 85.7,196.468 85.626,196.005 85.626C193.151 85.626,190.056 88.907,189.833 91.093C189.833 91.26,189.815 91.408,189.815 91.575C189.815 92.91,190.408 93.985,191.89 94.318"/></g><g class="vf-notehead" id="vf-auto18727" pointer-events="bounding-box"><path stroke="none" d="M191.89 79.318C192.076 79.355,192.243 79.374,192.428 79.374C194.985 79.374,198.803 75.89,198.729 73.073C198.655 72.387,198.673 71.442,197.283 70.886C196.894 70.7,196.468 70.626,196.005 70.626C193.151 70.626,190.056 73.907,189.833 76.093C189.833 76.26,189.815 76.408,189.815 76.575C189.815 77.91,190.408 78.985,191.89 79.318"/></g></g><path stroke-width="1" fill="none" d="M194.288 42.858L208.818 24.248Z"/><g class="vf-stavenote" id="vf-auto18728"><g class="vf-notehead" id="vf-auto18736" pointer-events="bounding-box"><path stroke="none" d="M204.806 74.318C204.991 74.355,205.158 74.374,205.343 74.374C207.901 74.374,211.719 70.89,211.644 68.073C211.57 67.387,211.589 66.442,210.199 65.886C209.81 65.7,209.383 65.626,208.92 65.626C206.066 65.626,202.971 68.907,202.749 71.093C202.749 71.26,202.73 71.408,202.73 71.575C202.73 72.91,203.323 73.985,204.806 74.318"/></g><g class="vf-notehead" id="vf-auto18737" pointer-events="bounding-box"><path stroke="none" d="M204.806 54.318C204.991 54.355,205.158 54.374,205.343 54.374C207.901 54.374,211.719 50.89,211.644 48.073C211.57 47.387,211.589 46.442,210.199 45.886C209.81 45.7,209.383 45.626,208.92 45.626C206.066 45.626,202.971 48.907,202.749 51.093C202.749 51.26,202.73 51.408,202.73 51.575C202.73 52.91,203.323 53.985,204.806 54.318"/></g></g><path stroke-width="1" fill="none" d="M215.625 38.592L199.193 25.763Z"/><g class="vf-stavenote" id="vf-auto18738"><g class="vf-notehead" id="vf-auto18746" pointer-events="bounding-box"><path stroke="none" d="M217.721 74.318C217.906 74.355,218.073 74.374,218.259 74.374C220.816 74.374,224.634 70.89,224.56 68.073C224.486 67.387,224.504 66.442,223.114 65.886C222.725 65.7,222.299 65.626,221.835 65.626C218.981 65.626,215.886 68.907,215.664 71.093C215.664 71.26,215.645 71.408,215.645 71.575C215.645 72.91,216.238 73.985,217.721 74.318"/></g><g class="vf-notehead" id="vf-auto18747" pointer-events="bounding-box"><path stroke="none" d="M217.721 54.318C217.906 54.355,218.073 54.374,218.259 54.374C220.816 54.374,224.634 50.89,224.56 48.073C224.486 47.387,224.504 46.442,223.114 45.886C222.725 45.7,222.299 45.626,221.835 45.626C218.981 45.626,215.886 48.907,215.664 51.093C215.664 51.26,215.645 51.408,215.645 51.575C215.645 52.91,216.238 53.985,217.721 54.318"/></g></g><path stroke-width="1" fill="none" d="M219.082 35.364L235.513 22.534Z"/><g class="vf-stavenote" id="vf-auto18748"><g class="vf-notehead" id="vf-auto18756" pointer-events="bounding-box"><path stroke="none" d="M230.636 74.318C230.822 74.355,230.989 74.374,231.174 74.374C233.731 74.374,237.549 70.89,237.475 68.073C237.401 67.387,237.419 66.442,236.03 65.886C235.64 65.7,235.214 65.626,234.751 65.626C231.897 65.626,228.802 68.907,228.579 71.093C228.579 71.26,228.561 71.408,228.561 71.575C228.561 72.91,229.154 73.985,230.636 74.318"/></g><g class="vf-notehead" id="vf-auto18757" pointer-events="bounding-box"><path stroke="none" d="M230.636 54.318C230.822 54.355,230.989 54.374,231.174 54.374C233.731 54.374,237.549 50.89,237.475 48.073C237.401 47.387,237.419 46.442,236.03 45.886C235.64 45.7,235.214 45.626,234.751 45.626C231.897 45.626,228.802 48.907,228.579 51.093C228.579 51.26,228.561 51.408,228.561 51.575C228.561 52.91,229.154 53.985,230.636 54.318"/></g></g><path stroke-width="1" fill="none" d="M231.997 38.592L248.428 25.763Z"/><g class="vf-stavenote" id="vf-auto18758"><g class="vf-notehead" id="vf-auto18766" pointer-events="bounding-box"><path stroke="none" d="M243.552 94.318C243.737 94.355,243.904 94.374,244.089 94.374C246.647 94.374,250.465 90.89,250.39 88.073C250.316 87.387,250.335 86.442,248.945 85.886C248.556 85.7,248.129 85.626,247.666 85.626C244.812 85.626,241.717 88.907,241.495 91.093C241.495 91.26,241.476 91.408,241.476 91.575C241.476 92.91,242.069 93.985,243.552 94.318"/></g><g class="vf-notehead" id="vf-auto18767" pointer-events="bounding-box"><path stroke="none" d="M243.552 79.318C243.737 79.355,243.904 79.374,244.089 79.374C246.647 79.374,250.465 75.89,250.39 73.073C250.316 72.387,250.335 71.442,248.945 70.886C248.556 70.7,248.129 70.626,247.666 70.626C244.812 70.626,241.717 73.907,241.495 76.093C241.495 76.26,241.476 76.408,241.476 76.575C241.476 77.91,242.069 78.985,243.552 79.318"/></g></g><path stroke-width="1" fill="none" d="M253.334 42.858L238.803 24.248Z"/><g class="vf-stem" id="vf-auto18679" pointer-events="bounding-box"><path stroke-width="1.5" fill="none" d="M146.319 93L146.319 52.65"/></g><g class="vf-stem" id="vf-auto18689" pointer-events="bounding-box"><path stroke-width="1.5" fill="none" d="M159.234 93L159.234 52.65"/></g><g class="vf-stem" id="vf-auto18699" pointer-events="bounding-box"><path stroke-width="1.5" fill="none" d="M172.149 93L172.149 52.65"/></g><g class="vf-beam" id="vf-auto18770"><path stroke="none" d="M145.569 51.9L145.569 54.9L172.399 54.9L172.399 51.9Z"/></g><g class="vf-stem" id="vf-auto18709" pointer-events="bounding-box"><path stroke-width="1.5" fill="none" d="M185.065 88L185.065 34.108"/></g><g class="vf-stem" id="vf-auto18719" pointer-events="bounding-box"><path stroke-width="1.5" fill="none" d="M197.98 88L197.98 30.879"/></g><g class="vf-stem" id="vf-auto18729" pointer-events="bounding-box"><path stroke-width="1.5" fill="none" d="M210.895 68L210.895 27.65"/></g><g class="vf-beam" id="vf-auto18771"><path stroke="none" d="M184.315 33.545L184.315 36.545L211.145 30.088L211.145 27.088Z"/></g><g class="vf-stem" id="vf-auto18739" pointer-events="bounding-box"><path stroke-width="1.5" fill="none" d="M223.811 68L223.811 24.421"/></g><g class="vf-stem" id="vf-auto18749" pointer-events="bounding-box"><path stroke-width="1.5" fill="none" d="M236.726 68L236.726 27.65"/></g><g class="vf-stem" id="vf-auto18759" pointer-events="bounding-box"><path stroke-width="1.5" fill="none" d="M249.641 88L249.641 30.879"/></g><g class="vf-beam" id="vf-auto18772"><path stroke="none" d="M223.061 23.484L223.061 26.484L249.891 32.941L249.891 29.941Z"/></g></g><path stroke="none" d="M282.053 81.106C282.277 81.191,282.446 80.966,282.614 80.797C282.811 80.545,282.923 80.264,283.064 79.955C283.429 78.944,283.513 77.877,283.457 76.642C283.429 76.192,283.429 75.631,283.344 75.013C283.513 73.721,283.653 72.43,283.625 71.054C283.653 70.211,283.513 69.228,283.457 68.246C283.288 66.28,282.783 64.427,282.053 62.602C280.789 59.457,278.374 57.182,276.016 54.88C274.892 53.784,273.713 52.717,273.095 51.201C272.758 50.387,272.786 49.488,272.506 48.674C272.421 48.449,272.421 48,272.056 48C272.028 48,271.972 48.028,271.888 48.028C271.523 48.168,271.158 48.281,271.158 48.899C271.158 49.207,271.214 49.544,271.214 49.909C270.961 49.938,270.765 50.022,270.68 50.218C270.568 50.499,270.428 50.78,270.428 51.061C270.4 51.65,270.4 52.156,270.4 52.774C270.4 55.076,270.737 57.351,271.382 59.513C272.534 63.641,274.78 67.122,277.644 70.267C280.228 73.16,281.912 76.473,281.884 80.517C281.884 80.713,281.772 80.994,282.053 81.106M281.997 70.913C281.407 69.594,280.621 68.302,279.694 67.122C277.869 64.736,275.707 62.63,274.471 59.794C273.91 58.502,273.264 57.266,272.814 55.89C273.348 56.761,273.994 57.631,274.78 58.39C276.296 59.934,277.953 61.422,279.329 63.135C281.154 65.438,282.193 68.021,281.997 70.913"/></g><g class="vf-stavenote" id="vf-auto18773"><g class="vf-stem" id="vf-auto18774" pointer-events="bounding-box"><path stroke-width="1.5" fill="none" d="M580.034 87L580.034 117"/></g><g class="vf-notehead" id="vf-auto18777" pointer-events="bounding-box"><path stroke="none" d="M582.429 91.543C582.71 91.599,582.963 91.627,583.243 91.627C587.118 91.627,592.903 86.348,592.791 82.08C592.678 81.041,592.706 79.609,590.6 78.766C590.011 78.485,589.365 78.373,588.663 78.373C584.339 78.373,579.649 83.343,579.312 86.657C579.312 86.909,579.284 87.134,579.284 87.387C579.284 89.409,580.183 91.037,582.429 91.543"/><g class="vf-stavenote" id="vf-auto18779"><g class="vf-stem" id="vf-auto18780" pointer-events="bounding-box"><path stroke-width="1.5" fill="none" d="M395.219 77L395.219 115.1"/></g><g class="vf-notehead" id="vf-auto18788" pointer-events="bounding-box"><path stroke="none" d="M396.545 99.318C396.73 99.355,396.897 99.374,397.083 99.374C399.64 99.374,403.458 95.89,403.384 93.073C403.31 92.387,403.328 91.442,401.938 90.886C401.549 90.7,401.123 90.626,400.659 90.626C397.805 90.626,394.71 93.907,394.488 96.093C394.488 96.26,394.469 96.408,394.469 96.575C394.469 97.91,395.062 98.985,396.545 99.318"/></g><g class="vf-notehead" id="vf-auto18787" pointer-events="bounding-box"><path stroke="none" d="M396.545 79.318C396.73 79.355,396.897 79.374,397.083 79.374C399.64 79.374,403.458 75.89,403.384 73.073C403.31 72.387,403.328 71.442,401.938 70.886C401.549 70.7,401.123 70.626,400.659 70.626C397.805 70.626,394.71 73.907,394.488 76.093C394.488 76.26,394.469 76.408,394.469 76.575C394.469 77.91,395.062 78.985,396.545 79.318"/></g><path stroke="none" d="M399.381 98.398C399.269 98.305,399.195 98.25,399.121 98.25C399.028 98.25,398.954 98.342,398.917 98.565C398.899 98.917,398.769 99.251,398.732 99.603C398.713 99.844,398.695 100.085,398.695 100.307C398.695 100.733,398.788 101.122,399.214 101.475C399.696 101.864,399.974 102.494,400.233 103.068C400.307 103.235,400.344 103.42,400.344 103.606C400.344 103.958,400.215 104.329,400.178 104.699C399.992 106.738,399.028 108.443,397.75 109.963C397.249 110.574,396.767 111.241,396.249 111.853C395.007 113.502,394.469 115.374,394.469 117.431L394.469 118.932C394.469 119.433,394.581 119.859,395.118 120.1L395.248 120.1C395.433 119.655,395.618 119.192,395.618 118.71C395.618 118.414,395.563 118.173,395.563 117.932C395.581 116.708,396.156 115.671,396.897 114.707C397.546 113.91,398.157 113.076,398.788 112.279C400.233 110.463,400.956 108.387,401.271 106.108C401.382 105.422,401.438 104.736,401.438 104.032C401.438 102.994,401.308 101.956,400.974 100.919C400.696 99.955,400.048 99.158,399.381 98.398"/></g><path stroke-width="1" fill="none" d="M390.469 104.25L403.469 113.25Z"/><g class="vf-stavenote" id="vf-auto18789"><g class="vf-stem" id="vf-auto18790" pointer-events="bounding-box"><path stroke-width="1.5" fill="none" d="M408.135 77L408.135 115.1"/></g><g class="vf-notehead" id="vf-auto18798" pointer-events="bounding-box"><path stroke="none" d="M409.46 99.318C409.646 99.355,409.813 99.374,409.998 99.374C412.555 99.374,416.373 95.89,416.299 93.073C416.225 92.387,416.243 91.442,414.853 90.886C414.464 90.7,414.038 90.626,413.575 90.626C410.721 90.626,407.626 93.907,407.403 96.093C407.403 96.26,407.385 96.408,407.385 96.575C407.385 97.91,407.978 98.985,409.46 99.318"/></g><g class="vf-notehead" id="vf-auto18797" pointer-events="bounding-box"><path stroke="none" d="M409.46 79.318C409.646 79.355,409.813 79.374,409.998 79.374C412.555 79.374,416.373 75.89,416.299 73.073C416.225 72.387,416.243 71.442,414.853 70.886C414.464 70.7,414.038 70.626,413.575 70.626C410.721 70.626,407.626 73.907,407.403 76.093C407.403 76.26,407.385 76.408,407.385 76.575C407.385 77.91,407.978 78.985,409.46 79.318"/></g><path stroke="none" d="M408.478 120.1C408.719 120.1,408.719 119.803,408.775 119.655C408.96 119.118,408.942 118.525,409.164 117.987C409.572 116.986,410.35 116.282,411.091 115.559C412.648 114.04,414.242 112.539,415.076 110.463C415.558 109.258,415.891 108.035,416.002 106.738C416.04 106.089,416.132 105.441,416.114 104.885C416.132 103.976,416.04 103.124,415.928 102.271C415.984 101.864,415.984 101.493,416.002 101.197C416.04 100.381,415.984 99.677,415.743 99.01C415.65 98.806,415.576 98.62,415.447 98.454C415.372 98.38,415.261 98.25,415.131 98.25L415.076 98.25C414.965 98.305,414.946 98.342,414.946 98.435C414.946 98.509,414.965 98.583,414.965 98.639C414.983 101.308,413.871 103.495,412.166 105.403C410.276 107.479,408.793 109.777,408.033 112.502C407.607 113.929,407.385 115.43,407.385 116.949L407.385 118.469C407.385 118.784,407.496 119.674,407.922 119.97C407.996 120.026,408.46 120.1,408.478 120.1M408.979 114.892C409.275 113.984,409.701 113.169,410.072 112.316C410.887 110.444,412.314 109.054,413.519 107.479C414.131 106.701,414.65 105.848,415.039 104.977C415.039 105.125,415.076 105.292,415.076 105.441C415.076 107.164,414.372 108.739,413.278 110.111C412.37 111.241,411.277 112.224,410.276 113.243C409.757 113.743,409.331 114.318,408.979 114.892"/></g><path stroke-width="1" fill="none" d="M403.385 104.25L416.385 113.25Z"/><g class="vf-stavenote" id="vf-auto18799"><g class="vf-stem" id="vf-auto18800" pointer-events="bounding-box"><path stroke-width="1.5" fill="none" d="M421.05 77L421.05 121.04"/></g><g class="vf-notehead" id="vf-auto18808" pointer-events="bounding-box"><path stroke="none" d="M422.376 99.318C422.561 99.355,422.728 99.374,422.913 99.374C425.471 99.374,429.288 95.89,429.214 93.073C429.14 92.387,429.159 91.442,427.769 90.886C427.38 90.7,426.953 90.626,426.49 90.626C423.636 90.626,420.541 93.907,420.319 96.093C420.319 96.26,420.3 96.408,420.3 96.575C420.3 97.91,420.893 98.985,422.376 99.318"/></g><g class="vf-notehead" id="vf-auto18807" pointer-events="bounding-box"><path stroke="none" d="M422.376 79.318C422.561 79.355,422.728 79.374,422.913 79.374C425.471 79.374,429.288 75.89,429.214 73.073C429.14 72.387,429.159 71.442,427.769 70.886C427.38 70.7,426.953 70.626,426.49 70.626C423.636 70.626,420.541 73.907,420.319 76.093C420.319 76.26,420.3 76.408,420.3 76.575C420.3 77.91,420.893 78.985,422.376 79.318"/></g><path stroke="none" d="M426.286 97.972C426.064 98.027,426.231 98.342,426.175 98.528C426.119 98.769,426.082 99.047,426.082 99.288C426.082 99.955,426.249 100.622,426.249 101.289C426.249 101.493,426.249 101.715,426.194 101.901C425.767 103.976,424.859 105.793,423.228 107.201C422.654 107.72,422.042 108.202,421.523 108.814C420.708 109.796,420.43 110.945,420.43 112.168C420.43 113.261,420.374 114.392,420.374 115.504C420.411 116.634,420.115 117.561,420.282 118.654C420.3 119.007,420.3 119.507,420.3 119.841L420.3 122.843C420.3 123.325,420.356 123.788,420.411 124.233C420.467 124.511,420.708 124.548,420.856 124.603L420.912 124.603C421.041 124.641,421.041 124.4,421.134 124.288C421.19 124.177,421.282 124.029,421.282 123.881C421.227 122.528,422.116 121.731,423.099 121.138C425.638 119.6,426.75 116.708,426.731 113.78C426.75 113.187,426.657 112.52,426.434 111.834C426.379 111.668,426.379 111.538,426.379 111.371C426.379 110.889,426.564 110.389,426.62 109.907C426.657 109.648,426.675 109.37,426.675 109.129C426.675 108.591,426.601 108.072,426.472 107.498C426.416 107.349,426.416 107.164,426.416 106.997C426.416 106.682,426.49 106.386,426.62 106.108C427.194 104.773,427.454 103.439,427.454 102.105C427.472 100.993,427.287 99.844,426.953 98.695C426.898 98.62,426.861 98.509,426.805 98.435C426.675 98.213,426.546 97.898,426.286 97.972M425.397 108.461C425.211 111.297,423.339 112.891,421.616 114.651C421.56 114.318,421.505 113.966,421.505 113.669C421.523 112.891,421.746 112.168,422.357 111.501C423.321 110.5,424.489 109.722,425.397 108.461M425.582 113.669C425.619 113.78,425.638 113.91,425.638 114.077C425.638 115.652,423.655 117.969,421.987 118.692C422.005 118.117,422.227 117.691,422.543 117.302C423.506 116.097,424.915 115.263,425.582 113.669"/></g><path stroke-width="1" fill="none" d="M416.3 104.25L429.3 113.25Z"/><g class="vf-stavenote" id="vf-auto18809"><g class="vf-stem" id="vf-auto18810" pointer-events="bounding-box"><path stroke-width="1.5" fill="none" d="M433.965 77L433.965 123.68"/></g><g class="vf-notehead" id="vf-auto18818" pointer-events="bounding-box"><path stroke="none" d="M435.291 99.318C435.476 99.355,435.643 99.374,435.829 99.374C438.386 99.374,442.204 95.89,442.13 93.073C442.056 92.387,442.074 91.442,440.684 90.886C440.295 90.7,439.869 90.626,439.405 90.626C436.551 90.626,433.456 93.907,433.234 96.093C433.234 96.26,433.215 96.408,433.215 96.575C433.215 97.91,433.808 98.985,435.291 99.318"/></g><g class="vf-notehead" id="vf-auto18817" pointer-events="bounding-box"><path stroke="none" d="M435.291 79.318C435.476 79.355,435.643 79.374,435.829 79.374C438.386 79.374,442.204 75.89,442.13 73.073C442.056 72.387,442.074 71.442,440.684 70.886C440.295 70.7,439.869 70.626,439.405 70.626C436.551 70.626,433.456 73.907,433.234 76.093C433.234 76.26,433.215 76.408,433.215 76.575C433.215 77.91,433.808 78.985,435.291 79.318"/></g><path stroke="none" d="M439.665 98.88C439.572 98.936,439.535 99.047,439.535 99.121C439.535 99.232,439.572 99.362,439.572 99.473C439.517 102.105,438.775 104.458,436.848 106.386C436.366 106.868,435.829 107.294,435.291 107.72C434.29 108.536,433.753 109.648,433.642 110.945C433.586 111.482,433.568 112.02,433.568 112.539C433.568 113.595,433.642 114.651,433.716 115.726C433.808 116.894,433.53 118.08,433.456 119.266C433.456 119.6,433.438 119.878,433.438 120.211L433.438 121.49C433.438 122.231,433.401 123.01,433.29 123.732C433.197 124.418,433.16 125.122,433.16 125.79L433.16 127.18C433.16 127.736,433.16 128.329,433.086 128.903L433.086 129.07C433.086 129.274,433.104 129.496,433.16 129.737C433.215 129.978,433.456 130.052,433.642 130.089C433.66 130.108,433.66 130.108,433.697 130.108C433.864 130.108,433.883 129.885,433.957 129.756C434.198 129.255,434.327 128.699,434.327 128.162C434.327 127.698,434.531 127.383,434.791 127.068C435.532 126.179,436.551 125.623,437.385 124.826C438.33 123.881,439.164 122.843,439.517 121.546C439.646 120.953,439.72 120.359,439.72 119.655C439.72 119.414,439.702 119.173,439.702 118.932C439.646 118.784,439.646 118.636,439.646 118.506C439.646 117.654,440.258 116.783,440.369 115.856C440.425 115.411,440.48 114.929,440.48 114.447C440.48 113.539,440.332 112.631,440.11 111.779C439.961 111.353,439.832 110.926,439.832 110.463C439.832 110.333,439.832 110.222,439.869 110.092C439.906 109.851,439.906 109.592,439.906 109.351C439.906 108.536,439.776 107.794,439.665 107.053C439.665 106.979,439.646 106.886,439.646 106.831C439.646 106.534,439.72 106.312,439.832 106.071C440.313 104.699,440.721 103.346,440.721 101.901C440.721 100.993,440.573 100.103,440.239 99.306C440.128 99.065,439.943 98.806,439.665 98.88M438.738 108.035C438.775 108.202,438.775 108.35,438.775 108.498C438.775 109.37,438.497 110.037,437.997 110.593C436.996 111.723,435.699 112.502,434.735 113.836C434.717 113.669,434.717 113.484,434.717 113.298C434.717 112.539,434.92 111.964,435.347 111.427C436.31 110.203,437.7 109.425,438.738 108.035M438.72 113.243C438.794 113.169,438.868 113.113,438.961 113.113C439.035 113.113,439.09 113.187,439.164 113.41C439.239 113.669,439.294 113.929,439.294 114.17C439.294 115.003,438.812 115.671,438.145 116.171C436.959 117.116,435.717 118.024,434.605 119.21C434.624 118.117,434.717 117.19,435.384 116.505C436.44 115.374,437.589 114.336,438.72 113.243M438.497 119.21C438.608 119.433,438.664 119.618,438.664 119.803C438.664 119.933,438.627 120.081,438.553 120.23C438.256 120.786,437.941 121.379,437.441 121.805C436.422 122.658,435.439 123.51,434.327 124.418C434.661 121.731,436.625 120.526,438.497 119.21"/></g><path stroke-width="1" fill="none" d="M429.215 104.25L442.215 113.25Z"/><g class="vf-stavenote" id="vf-auto18819"><g class="vf-stem" id="vf-auto18820" pointer-events="bounding-box"><path stroke-width="1.5" fill="none" d="M446.881 77L446.881 129.62"/></g><g class="vf-notehead" id="vf-auto18828" pointer-events="bounding-box"><path stroke="none" d="M448.206 99.318C448.392 99.355,448.559 99.374,448.744 99.374C451.301 99.374,455.119 95.89,455.045 93.073C454.971 92.387,454.989 91.442,453.599 90.886C453.21 90.7,452.784 90.626,452.321 90.626C449.467 90.626,446.372 93.907,446.149 96.093C446.149 96.26,446.131 96.408,446.131 96.575C446.131 97.91,446.724 98.985,448.206 99.318"/></g><g class="vf-notehead" id="vf-auto18827" pointer-events="bounding-box"><path stroke="none" d="M448.206 79.318C448.392 79.355,448.559 79.374,448.744 79.374C451.301 79.374,455.119 75.89,455.045 73.073C454.971 72.387,454.989 71.442,453.599 70.886C453.21 70.7,452.784 70.626,452.321 70.626C449.467 70.626,446.372 73.907,446.149 76.093C446.149 76.26,446.131 76.408,446.131 76.575C446.131 77.91,446.724 78.985,448.206 79.318"/></g><path stroke="none" d="M451.654 99.973C451.468 99.973,451.45 100.066,451.45 100.214C451.45 100.344,451.487 100.511,451.468 100.641C451.45 100.77,451.468 100.919,451.468 101.048C451.246 103.346,451.042 105.663,449.782 107.683C449.096 108.814,448.114 109.722,447.169 110.648C446.668 111.167,446.353 111.686,446.353 112.409C446.353 113.187,446.298 113.984,446.298 114.781C446.298 115.319,446.316 115.8,446.372 116.319C446.483 117.19,446.501 118.098,446.501 118.988C446.501 119.674,446.483 120.397,446.483 121.082C446.483 121.62,446.501 122.12,446.538 122.658C446.557 123.028,446.576 123.436,446.576 123.807C446.576 124.844,446.538 125.845,446.538 126.79C446.538 127.68,446.242 128.514,446.149 129.385C446.131 129.626,446.131 129.885,446.131 130.126C446.131 130.905,446.075 131.664,446.131 132.461C446.131 132.61,446.075 134.759,446.131 135.093C446.205 135.39,446.798 135.464,446.983 135.556C447.02 135.556,447.039 135.575,447.057 135.575C447.206 135.575,447.206 135.371,447.28 135.223C447.391 135.019,447.521 134.834,447.521 134.556C447.521 133.573,448.188 133.036,448.855 132.48C449.448 131.98,450.078 131.553,450.634 131.016C452.154 129.496,452.821 127.68,452.821 125.66C452.821 125.326,452.803 125.011,452.784 124.659C452.747 124.455,452.673 124.214,452.506 124.103C452.265 123.881,452.191 123.732,452.191 123.547C452.191 123.362,452.302 123.139,452.376 122.898C452.636 122.046,452.858 121.212,452.858 120.415C452.858 119.655,452.673 118.895,452.265 118.117C452.21 118.08,452.21 118.024,452.21 117.969C452.21 117.858,452.247 117.783,452.265 117.691C452.58 116.69,452.821 115.671,452.821 114.651C452.821 113.984,452.728 113.354,452.488 112.705C452.321 112.316,452.302 111.927,452.302 111.538C452.302 110.834,452.45 110.148,452.45 109.481C452.45 109.351,452.432 109.203,452.432 109.11C452.376 108.684,452.395 108.202,452.247 107.85C452.117 107.553,452.061 107.294,452.061 107.016C452.061 106.645,452.135 106.312,452.21 105.922C452.395 104.94,452.562 103.958,452.562 102.976C452.562 102.216,452.488 101.493,452.247 100.752C452.247 100.696,452.247 100.622,452.21 100.566C452.061 100.326,451.913 99.973,451.654 99.973M450.745 110.148C450.375 112.205,448.559 113.261,447.41 114.818C447.762 112.705,449.782 111.797,450.745 110.148M451.301 114.095C451.116 116.227,449.226 119.118,447.65 119.748C447.632 119.618,447.632 119.488,447.632 119.359C447.632 118.543,448.058 117.876,448.577 117.302C449.467 116.264,450.449 115.319,451.301 114.095M451.153 120.081C450.616 122.157,448.874 123.325,447.688 125.03C447.65 124.844,447.632 124.696,447.632 124.529C447.632 123.788,447.91 123.251,448.484 122.769C449.448 121.916,450.449 121.175,451.153 120.081M451.765 124.214C451.783 126.753,450.449 128.051,447.521 130.237C448.206 127.624,450.375 126.179,451.765 124.214"/></g><path stroke-width="1" fill="none" d="M442.131 104.25L455.131 113.25Z"/><g class="vf-stavenote" id="vf-auto18829"><g class="vf-notehead" id="vf-auto18838" pointer-events="bounding-box"><path stroke="none" d="M461.122 99.318C461.307 99.355,461.474 99.374,461.659 99.374C464.217 99.374,468.035 95.89,467.96 93.073C467.886 92.387,467.905 91.442,466.515 90.886C466.126 90.7,465.699 90.626,465.236 90.626C462.382 90.626,459.287 93.907,459.065 96.093C459.065 96.26,459.046 96.408,459.046 96.575C459.046 97.91,459.639 98.985,461.122 99.318"/></g><g class="vf-notehead" id="vf-auto18837" pointer-events="bounding-box"><path stroke="none" d="M461.122 79.318C461.307 79.355,461.474 79.374,461.659 79.374C464.217 79.374,468.035 75.89,467.96 73.073C467.886 72.387,467.905 71.442,466.515 70.886C466.126 70.7,465.699 70.626,465.236 70.626C462.382 70.626,459.287 73.907,459.065 76.093C459.065 76.26,459.046 76.408,459.046 76.575C459.046 77.91,459.639 78.985,461.122 79.318"/></g></g><path stroke-width="1" fill="none" d="M455.553 105.857L471.332 121.636Z"/><g class="vf-stavenote" id="vf-auto18839"><g class="vf-notehead" id="vf-auto18848" pointer-events="bounding-box"><path stroke="none" d="M474.037 99.318C474.222 99.355,474.389 99.374,474.575 99.374C477.132 99.374,480.95 95.89,480.876 93.073C480.802 92.387,480.82 91.442,479.43 90.886C479.041 90.7,478.615 90.626,478.151 90.626C475.297 90.626,472.202 93.907,471.98 96.093C471.98 96.26,471.961 96.408,471.961 96.575C471.961 97.91,472.554 98.985,474.037 99.318"/></g><g class="vf-notehead" id="vf-auto18847" pointer-events="bounding-box"><path stroke="none" d="M474.037 79.318C474.222 79.355,474.389 79.374,474.575 79.374C477.132 79.374,480.95 75.89,480.876 73.073C480.802 72.387,480.82 71.442,479.43 70.886C479.041 70.7,478.615 70.626,478.151 70.626C475.297 70.626,472.202 73.907,471.98 76.093C471.98 76.26,471.961 76.408,471.961 76.575C471.961 77.91,472.554 78.985,474.037 79.318"/></g></g><path stroke-width="1" fill="none" d="M468.469 105.857L484.247 121.636Z"/><g class="vf-stavenote" id="vf-auto18849"><g class="vf-notehead" id="vf-auto18858" pointer-events="bounding-box"><path stroke="none" d="M486.952 99.318C487.138 99.355,487.305 99.374,487.49 99.374C490.047 99.374,493.865 95.89,493.791 93.073C493.717 92.387,493.735 91.442,492.346 90.886C491.956 90.7,491.53 90.626,491.067 90.626C488.213 90.626,485.118 93.907,484.895 96.093C484.895 96.26,484.877 96.408,484.877 96.575C484.877 97.91,485.47 98.985,486.952 99.318"/></g><g class="vf-notehead" id="vf-auto18857" pointer-events="bounding-box"><path stroke="none" d="M486.952 79.318C487.138 79.355,487.305 79.374,487.49 79.374C490.047 79.374,493.865 75.89,493.791 73.073C493.717 72.387,493.735 71.442,492.346 70.886C491.956 70.7,491.53 70.626,491.067 70.626C488.213 70.626,485.118 73.907,484.895 76.093C484.895 76.26,484.877 76.408,484.877 76.575C484.877 77.91,485.47 78.985,486.952 79.318"/></g></g><path stroke-width="1" fill="none" d="M489.869 105.857L474.091 121.636Z"/><g class="vf-stavenote" id="vf-auto18859"><g class="vf-notehead" id="vf-auto18868" pointer-events="bounding-box"><path stroke="none" d="M499.868 94.318C500.053 94.355,500.22 94.374,500.405 94.374C502.963 94.374,506.781 90.89,506.706 88.073C506.632 87.387,506.651 86.442,505.261 85.886C504.872 85.7,504.445 85.626,503.982 85.626C501.128 85.626,498.033 88.907,497.811 91.093C497.811 91.26,497.792 91.408,497.792 91.575C497.792 92.91,498.385 93.985,499.868 94.318"/></g><g class="vf-notehead" id="vf-auto18867" pointer-events="bounding-box"><path stroke="none" d="M499.868 79.318C500.053 79.355,500.22 79.374,500.405 79.374C502.963 79.374,506.781 75.89,506.706 73.073C506.632 72.387,506.651 71.442,505.261 70.886C504.872 70.7,504.445 70.626,503.982 70.626C501.128 70.626,498.033 73.907,497.811 76.093C497.811 76.26,497.792 76.408,497.792 76.575C497.792 77.91,498.385 78.985,499.868 79.318"/></g></g><path stroke-width="1" fill="none" d="M493.813 104.636L510.244 117.466Z"/><g class="vf-stavenote" id="vf-auto18869"><g class="vf-notehead" id="vf-auto18878" pointer-events="bounding-box"><path stroke="none" d="M512.783 94.318C512.968 94.355,513.135 94.374,513.321 94.374C515.878 94.374,519.696 90.89,519.622 88.073C519.548 87.387,519.566 86.442,518.176 85.886C517.787 85.7,517.361 85.626,516.897 85.626C514.043 85.626,510.948 88.907,510.726 91.093C510.726 91.26,510.707 91.408,510.707 91.575C510.707 92.91,511.301 93.985,512.783 94.318"/></g><g class="vf-notehead" id="vf-auto18877" pointer-events="bounding-box"><path stroke="none" d="M512.783 79.318C512.968 79.355,513.135 79.374,513.321 79.374C515.878 79.374,519.696 75.89,519.622 73.073C519.548 72.387,519.566 71.442,518.176 70.886C517.787 70.7,517.361 70.626,516.897 70.626C514.043 70.626,510.948 73.907,510.726 76.093C510.726 76.26,510.707 76.408,510.707 76.575C510.707 77.91,511.301 78.985,512.783 79.318"/></g></g><path stroke-width="1" fill="none" d="M506.728 101.408L523.16 114.237Z"/><g class="vf-stavenote" id="vf-auto18879"><g class="vf-notehead" id="vf-auto18888" pointer-events="bounding-box"><path stroke="none" d="M525.698 74.318C525.884 74.355,526.051 74.374,526.236 74.374C528.793 74.374,532.611 70.89,532.537 68.073C532.463 67.387,532.481 66.442,531.092 65.886C530.702 65.7,530.276 65.626,529.813 65.626C526.959 65.626,523.864 68.907,523.641 71.093C523.641 71.26,523.623 71.408,523.623 71.575C523.623 72.91,524.216 73.985,525.698 74.318"/></g><g class="vf-notehead" id="vf-auto18887" pointer-events="bounding-box"><path stroke="none" d="M525.698 54.318C525.884 54.355,526.051 54.374,526.236 54.374C528.793 54.374,532.611 50.89,532.537 48.073C532.463 47.387,532.481 46.442,531.092 45.886C530.702 45.7,530.276 45.626,529.813 45.626C526.959 45.626,523.864 48.907,523.641 51.093C523.641 51.26,523.623 51.408,523.623 51.575C523.623 52.91,524.216 53.985,525.698 54.318"/></g></g><path stroke-width="1" fill="none" d="M528.065 97.142L513.535 115.752Z"/><g class="vf-stavenote" id="vf-auto18889"><g class="vf-notehead" id="vf-auto18898" pointer-events="bounding-box"><path stroke="none" d="M538.614 74.318C538.799 74.355,538.966 74.374,539.151 74.374C541.709 74.374,545.527 70.89,545.452 68.073C545.378 67.387,545.397 66.442,544.007 65.886C543.618 65.7,543.191 65.626,542.728 65.626C539.874 65.626,536.779 68.907,536.557 71.093C536.557 71.26,536.538 71.408,536.538 71.575C536.538 72.91,537.131 73.985,538.614 74.318"/></g><g class="vf-notehead" id="vf-auto18897" pointer-events="bounding-box"><path stroke="none" d="M538.614 54.318C538.799 54.355,538.966 54.374,539.151 54.374C541.709 54.374,545.527 50.89,545.452 48.073C545.378 47.387,545.397 46.442,544.007 45.886C543.618 45.7,543.191 45.626,542.728 45.626C539.874 45.626,536.779 48.907,536.557 51.093C536.557 51.26,536.538 51.408,536.538 51.575C536.538 52.91,537.131 53.985,538.614 54.318"/></g></g><path stroke-width="1" fill="none" d="M533.596 93.913L548.126 112.524Z"/><g class="vf-stavenote" id="vf-auto18899"><g class="vf-notehead" id="vf-auto18908" pointer-events="bounding-box"><path stroke="none" d="M551.529 74.318C551.714 74.355,551.881 74.374,552.067 74.374C554.624 74.374,558.442 70.89,558.368 68.073C558.294 67.387,558.312 66.442,556.922 65.886C556.533 65.7,556.107 65.626,555.643 65.626C552.789 65.626,549.694 68.907,549.472 71.093C549.472 71.26,549.453 71.408,549.453 71.575C549.453 72.91,550.047 73.985,551.529 74.318"/></g><g class="vf-notehead" id="vf-auto18907" pointer-events="bounding-box"><path stroke="none" d="M551.529 54.318C551.714 54.355,551.881 54.374,552.067 54.374C554.624 54.374,558.442 50.89,558.368 48.073C558.294 47.387,558.312 46.442,556.922 45.886C556.533 45.7,556.107 45.626,555.643 45.626C552.789 45.626,549.694 48.907,549.472 51.093C549.472 51.26,549.453 51.408,549.453 51.575C549.453 52.91,550.047 53.985,551.529 54.318"/></g></g><path stroke-width="1" fill="none" d="M546.511 97.142L561.042 115.752Z"/><g class="vf-stavenote" id="vf-auto18909"><g class="vf-notehead" id="vf-auto18918" pointer-events="bounding-box"><path stroke="none" d="M564.445 94.318C564.63 94.355,564.797 94.374,564.982 94.374C567.539 94.374,571.357 90.89,571.283 88.073C571.209 87.387,571.228 86.442,569.838 85.886C569.448 85.7,569.022 85.626,568.559 85.626C565.705 85.626,562.61 88.907,562.387 91.093C562.387 91.26,562.369 91.408,562.369 91.575C562.369 92.91,562.962 93.985,564.445 94.318"/></g><g class="vf-notehead" id="vf-auto18917" pointer-events="bounding-box"><path stroke="none" d="M564.445 79.318C564.63 79.355,564.797 79.374,564.982 79.374C567.539 79.374,571.357 75.89,571.283 73.073C571.209 72.387,571.228 71.442,569.838 70.886C569.448 70.7,569.022 70.626,568.559 70.626C565.705 70.626,562.61 73.907,562.387 76.093C562.387 76.26,562.369 76.408,562.369 76.575C562.369 77.91,562.962 78.985,564.445 79.318"/></g></g><path stroke-width="1" fill="none" d="M567.848 101.408L551.417 114.237Z"/><g class="vf-stem" id="vf-auto18830" pointer-events="bounding-box"><path stroke-width="1.5" fill="none" d="M459.796 77L459.796 117.35"/></g><g class="vf-stem" id="vf-auto18840" pointer-events="bounding-box"><path stroke-width="1.5" fill="none" d="M472.711 77L472.711 117.35"/></g><g class="vf-stem" id="vf-auto18850" pointer-events="bounding-box"><path stroke-width="1.5" fill="none" d="M485.627 77L485.627 117.35"/></g><g class="vf-beam" id="vf-auto18921"><path stroke="none" d="M459.046 118.1L459.046 115.1L485.877 115.1L485.877 118.1Z"/></g><g class="vf-stem" id="vf-auto18860" pointer-events="bounding-box"><path stroke-width="1.5" fill="none" d="M498.542 77L498.542 115.579"/></g><g class="vf-stem" id="vf-auto18870" pointer-events="bounding-box"><path stroke-width="1.5" fill="none" d="M511.457 77L511.457 112.35"/></g><g class="vf-stem" id="vf-auto18880" pointer-events="bounding-box"><path stroke-width="1.5" fill="none" d="M524.373 52L524.373 109.121"/></g><g class="vf-beam" id="vf-auto18922"><path stroke="none" d="M497.792 116.516L497.792 113.516L524.623 107.059L524.623 110.059Z"/></g><g class="vf-stem" id="vf-auto18890" pointer-events="bounding-box"><path stroke-width="1.5" fill="none" d="M537.288 52L537.288 105.892"/></g><g class="vf-stem" id="vf-auto18900" pointer-events="bounding-box"><path stroke-width="1.5" fill="none" d="M550.203 52L550.203 109.121"/></g><g class="vf-stem" id="vf-auto18910" pointer-events="bounding-box"><path stroke-width="1.5" fill="none" d="M563.119 77L563.119 112.35"/></g><g class="vf-beam" id="vf-auto18923"><path stroke="none" d="M536.538 106.455L536.538 103.455L563.369 109.913L563.369 112.913Z"/></g></g><path stroke="none" d="M580.941 122C581.306 122,581.306 121.551,581.39 121.326C581.671 120.512,581.643 119.613,581.98 118.799C582.598 117.283,583.777 116.216,584.9 115.12C587.259 112.818,589.674 110.543,590.937 107.398C591.667 105.573,592.173 103.72,592.341 101.754C592.398 100.772,592.538 99.789,592.51 98.946C592.538 97.57,592.398 96.279,592.229 94.987C592.313 94.369,592.313 93.808,592.341 93.358C592.398 92.123,592.313 91.056,591.948 90.045C591.808 89.736,591.696 89.455,591.499 89.203C591.387 89.09,591.218 88.894,591.022 88.894L590.937 88.894C590.769 88.978,590.741 89.034,590.741 89.174C590.741 89.287,590.769 89.399,590.769 89.483C590.797 93.527,589.112 96.84,586.529 99.733C583.665 102.878,581.418 106.359,580.267 110.487C579.621 112.649,579.284 114.924,579.284 117.226L579.284 119.529C579.284 120.006,579.453 121.354,580.098 121.803C580.211 121.888,580.913 122,580.941 122M581.699 114.11C582.148 112.734,582.794 111.498,583.356 110.206C584.591 107.37,586.753 105.264,588.579 102.878C589.505 101.698,590.292 100.406,590.881 99.087C590.881 99.311,590.937 99.564,590.937 99.789C590.937 102.4,589.87 104.787,588.214 106.865C586.838 108.578,585.181 110.066,583.665 111.61C582.878 112.369,582.233 113.239,581.699 114.11"/></g></svg>