<svg xmlns="http://www.w3.org/2000/svg" stroke-width="0.3" stroke-dasharray="none" fill="black" stroke="black" font-family="Arial, sans-serif" font-size="10pt" font-weight="normal" font-style="normal" width="600" height="160" viewBox="0 0 666.6666666666666 177.77777777777777" style="width: 600px; height: 160px; border: none;"><g class="vf-stave" id="vf-auto23426" stroke-width="1" fill="#999999" stroke="#999999" font-family="Arial"><path fill="none" d="M10 70L610 70"/><path fill="none" d="M10 80L610 80"/><path fill="none" d="M10 90L610 90"/><path fill="none" d="M10 100L610 100"/><path fill="none" d="M10 110L610 110"/></g><g class="vf-stavebarline" id="vf-auto23427" font-family="Arial"><rect x="10" y="69.5" width="1" height="41" stroke="none"/></g><g class="vf-stavebarline" id="vf-auto23428" font-family="Arial"><rect x="610" y="69.5" width="1" height="41" stroke="none"/></g><g class="vf-clef" id="vf-auto23429" font-family="Arial"><path stroke="none" d="M28.711 85.844C28.66 85.413,28.711 85.388,28.939 85.16C32.893 81.485,35.883 76.847,35.883 71.246C35.883 68.078,34.996 64.935,33.501 62.756C32.944 61.945,32.006 60.931,31.6 60.931C31.093 60.931,29.953 61.869,29.243 62.68C26.532 65.67,25.644 70.232,25.644 74.034C25.644 76.138,25.923 78.52,26.177 80.015C26.253 80.446,26.278 80.522,25.847 80.902C20.576 85.236,15 90.457,15 97.832C15 104.168,19.334 110.2,28.28 110.2C29.117 110.2,30.08 110.124,30.815 109.972C31.195 109.896,31.271 109.87,31.347 110.301C31.778 112.76,32.335 115.928,32.335 117.651C32.335 123.049,28.686 123.708,26.532 123.708C24.555 123.708,23.617 123.125,23.617 122.644C23.617 122.39,23.946 122.289,24.783 122.01C25.923 121.681,27.216 120.718,27.216 118.589C27.216 116.587,25.949 114.863,23.718 114.863C21.285 114.863,19.815 116.815,19.815 119.07C19.815 121.427,21.235 125.026,26.76 125.026C29.193 125.026,33.932 123.911,33.932 117.727C33.932 115.623,33.273 112.177,32.893 109.896C32.817 109.465,32.842 109.516,33.349 109.287C37.049 107.818,39.482 104.726,39.482 100.594C39.482 95.931,36.061 91.8,30.688 91.8C29.75 91.8,29.75 91.8,29.623 91.141M32.158 66.583C33.349 66.583,34.337 67.571,34.337 69.573C34.337 73.628,30.865 76.923,28.001 79.432C27.748 79.66,27.596 79.61,27.52 79.128C27.368 78.19,27.292 76.949,27.292 75.783C27.292 70.08,29.928 66.583,32.158 66.583M28.179 91.445C28.28 92.13,28.28 92.104,27.621 92.307C24.428 93.397,22.324 96.286,22.324 99.403C22.324 102.673,24.048 105.004,26.532 105.866C26.836 105.967,27.266 106.069,27.52 106.069C27.799 106.069,27.951 105.891,27.951 105.663C27.951 105.41,27.672 105.308,27.419 105.207C25.873 104.548,24.783 102.977,24.783 101.304C24.783 99.201,26.202 97.655,28.432 97.021C29.015 96.869,29.091 96.92,29.167 97.325L30.992 108.198C31.068 108.603,31.017 108.603,30.485 108.705C29.902 108.806,29.167 108.882,28.432 108.882C22.046 108.882,17.915 105.334,17.915 100.265C17.915 98.111,18.295 95.222,21.311 91.8C23.516 89.367,25.188 87.999,26.886 86.63C27.266 86.326,27.343 86.377,27.419 86.757M30.688 97.249C30.612 96.793,30.663 96.692,31.093 96.742C34.059 96.996,36.492 99.479,36.492 102.673C36.492 104.979,35.098 106.829,33.07 107.868C32.639 108.071,32.563 108.071,32.487 107.64"/></g><g class="vf-timesignature" id="vf-auto23430" font-family="Arial"><path stroke="none" d="M67.236 82.619L67.236 75.055C67.236 74.786,67.212 74.468,66.82 74.468C66.502 74.468,66.331 74.541,66.11 74.786L62.757 78.825C62.634 79.021,62.438 79.217,62.438 79.657L62.438 82.619L57.689 82.619C60.504 80.22,66.159 72.215,66.257 71.775L66.282 71.677C66.282 71.359,66.037 71.163,65.768 71.163C65.449 71.163,64.005 71.212,63.369 71.212C62.732 71.212,61.141 71.163,60.872 71.163C60.553 71.163,60.064 71.261,60.064 71.824C60.064 76.181,56.588 81.102,55.535 82.57L55.339 82.864C55.339 82.864,55.339 82.889,55.339 82.889L55.29 82.938C55.217 83.109,55.192 83.231,55.192 83.354C55.192 83.696,55.462 83.941,55.902 83.941L62.438 83.941L62.438 86.169C62.438 87.124,61.679 87.393,61.043 87.393C60.48 87.393,60.235 87.711,60.235 88.078C60.235 88.421,60.358 88.813,60.896 88.813L68.411 88.813C68.754 88.813,69.121 88.568,69.121 88.078C69.121 87.589,68.681 87.368,68.338 87.368C67.995 87.368,67.236 87.148,67.236 86.022L67.236 83.941L69.807 83.941C70.174 83.941,70.345 83.696,70.345 83.28C70.345 82.864,70.198 82.619,69.807 82.619"/><path stroke="none" d="M67.236 102.619L67.236 95.055C67.236 94.786,67.212 94.468,66.82 94.468C66.502 94.468,66.331 94.541,66.11 94.786L62.757 98.825C62.634 99.021,62.438 99.217,62.438 99.657L62.438 102.619L57.689 102.619C60.504 100.22,66.159 92.215,66.257 91.775L66.282 91.677C66.282 91.359,66.037 91.163,65.768 91.163C65.449 91.163,64.005 91.212,63.369 91.212C62.732 91.212,61.141 91.163,60.872 91.163C60.553 91.163,60.064 91.261,60.064 91.824C60.064 96.181,56.588 101.102,55.535 102.57L55.339 102.864C55.339 102.864,55.339 102.889,55.339 102.889L55.29 102.938C55.217 103.109,55.192 103.231,55.192 103.354C55.192 103.696,55.462 103.941,55.902 103.941L62.438 103.941L62.438 106.169C62.438 107.124,61.679 107.393,61.043 107.393C60.48 107.393,60.235 107.711,60.235 108.078C60.235 108.421,60.358 108.813,60.896 108.813L68.411 108.813C68.754 108.813,69.121 108.568,69.121 108.078C69.121 107.589,68.681 107.368,68.338 107.368C67.995 107.368,67.236 107.148,67.236 106.022L67.236 103.941L69.807 103.941C70.174 103.941,70.345 103.696,70.345 103.28C70.345 102.864,70.198 102.619,69.807 102.619"/></g><g class="vf-stavenote" id="vf-auto23434" font-family="Arial"><path stroke-width="1.4" fill="none" stroke="#444" d="M78.635 60L96.569 60"/><g class="vf-notehead" id="vf-auto23438" pointer-events="bounding-box"><path stroke="none" d="M85.567 65.054C89.161 65.054,93.569 61.741,93.569 58.315C93.569 56.237,91.941 54.946,89.638 54.946C85.202 54.946,81.635 58.231,81.635 61.685C81.635 63.791,83.376 65.054,85.567 65.054"/></g></g><g class="vf-stavenote" id="vf-auto23440" font-family="Arial"><g class="vf-notehead" id="vf-auto23510" pointer-events="bounding-box"><path stroke="none" d="M131.259 50.676C131.259 49.187,130.051 47.952,128.535 47.952C127.047 47.952,125.839 49.187,125.839 50.676C125.839 51.518,126.317 52.248,126.935 52.726C127.58 53.175,128.339 53.428,129.125 53.428C129.686 53.428,130.248 53.315,130.697 53.147C131.259 52.978,131.624 52.81,132.157 52.529C132.242 52.501,132.298 52.501,132.354 52.501C132.523 52.501,132.551 52.641,132.551 52.866C132.551 52.978,132.551 53.147,132.523 53.315C132.382 53.905,129.49 61.964,128.76 64.631C128.76 65.109,129.686 65.137,129.911 65.137C130.36 65.137,130.922 65.081,131.343 64.744C131.455 64.66,135.415 50.479,135.415 50.479C135.583 49.749,135.78 49.103,135.836 48.907C135.836 48.485,135.415 48.289,135.331 48.261C135.274 48.261,135.134 48.261,134.909 48.401C134.6 48.654,132.579 51.069,131.259 51.069"/></g></g><g class="vf-stavenote" id="vf-auto23444" font-family="Arial"><path stroke-width="1.4" fill="none" stroke="#444" d="M167.044 60L184.978 60"/><g class="vf-notehead" id="vf-auto23448" pointer-events="bounding-box"><path stroke="none" d="M173.975 60.054C177.569 60.054,181.978 56.741,181.978 53.315C181.978 51.237,180.349 49.946,178.046 49.946C173.61 49.946,170.044 53.231,170.044 56.685C170.044 58.791,171.784 60.054,173.975 60.054"/></g></g><g class="vf-stavenote" id="vf-auto23450" font-family="Arial"><g class="vf-notehead" id="vf-auto23454" pointer-events="bounding-box"><path stroke="none" d="M218.179 90.054C221.773 90.054,226.182 86.741,226.182 83.315C226.182 81.237,224.553 79.946,222.25 79.946C217.814 79.946,214.248 83.231,214.248 86.685C214.248 88.791,215.989 90.054,218.179 90.054"/></g></g><g class="vf-stavenote" id="vf-auto23456" font-family="Arial"><path stroke-width="1.4" fill="none" stroke="#444" d="M255.452 60L273.386 60"/><g class="vf-notehead" id="vf-auto23464" pointer-events="bounding-box"><path stroke="none" d="M262.383 95.054C265.977 95.054,270.386 91.741,270.386 88.315C270.386 86.237,268.757 84.946,266.454 84.946C262.018 84.946,258.452 88.231,258.452 91.685C258.452 93.791,260.193 95.054,262.383 95.054"/></g><g class="vf-notehead" id="vf-auto23463" pointer-events="bounding-box"><path stroke="none" d="M262.383 85.054C265.977 85.054,270.386 81.741,270.386 78.315C270.386 76.237,268.757 74.946,266.454 74.946C262.018 74.946,258.452 78.231,258.452 81.685C258.452 83.791,260.193 85.054,262.383 85.054"/></g><g class="vf-notehead" id="vf-auto23462" pointer-events="bounding-box"><path stroke="none" d="M262.383 65.054C265.977 65.054,270.386 61.741,270.386 58.315C270.386 56.237,268.757 54.946,266.454 54.946C262.018 54.946,258.452 58.231,258.452 61.685C258.452 63.791,260.193 65.054,262.383 65.054"/></g></g><g class="vf-stavenote" id="vf-auto23466" font-family="Arial"><g class="vf-notehead" id="vf-auto23511" pointer-events="bounding-box"><path stroke="none" d="M308.075 85.676C308.075 84.187,306.868 82.952,305.351 82.952C303.863 82.952,302.656 84.187,302.656 85.676C302.656 86.518,303.133 87.248,303.751 87.726C304.397 88.175,305.155 88.428,305.941 88.428C306.503 88.428,307.064 88.315,307.513 88.147C308.075 87.978,308.44 87.81,308.974 87.529C309.058 87.501,309.114 87.501,309.17 87.501C309.339 87.501,309.367 87.641,309.367 87.866C309.367 87.978,309.367 88.147,309.339 88.315C309.198 88.905,306.306 96.964,305.576 99.631C305.576 100.109,306.503 100.137,306.727 100.137C307.177 100.137,307.738 100.081,308.159 99.744C308.272 99.66,312.231 85.479,312.231 85.479C312.399 84.749,312.596 84.103,312.652 83.907C312.652 83.485,312.231 83.289,312.147 83.261C312.091 83.261,311.95 83.261,311.725 83.401C311.417 83.654,309.395 86.069,308.075 86.069"/></g></g><g class="vf-stavenote" id="vf-auto23470" font-family="Arial"><g class="vf-notehead" id="vf-auto23512" pointer-events="bounding-box"><path stroke="none" d="M352.279 85.676C352.279 84.187,351.072 82.952,349.555 82.952C348.067 82.952,346.86 84.187,346.86 85.676C346.86 86.518,347.337 87.248,347.955 87.726C348.601 88.175,349.359 88.428,350.145 88.428C350.707 88.428,351.268 88.315,351.718 88.147C352.279 87.978,352.644 87.81,353.178 87.529C353.262 87.501,353.318 87.501,353.374 87.501C353.543 87.501,353.571 87.641,353.571 87.866C353.571 87.978,353.571 88.147,353.543 88.315C353.402 88.905,350.51 96.964,349.78 99.631C349.78 100.109,350.707 100.137,350.931 100.137C351.381 100.137,351.942 100.081,352.363 99.744C352.476 99.66,356.435 85.479,356.435 85.479C356.603 84.749,356.8 84.103,356.856 83.907C356.856 83.485,356.435 83.289,356.351 83.261C356.295 83.261,356.154 83.261,355.93 83.401C355.621 83.654,353.599 86.069,352.279 86.069"/></g></g><g class="vf-stavenote" id="vf-auto23474" font-family="Arial"><g class="vf-notehead" id="vf-auto23478" pointer-events="bounding-box"><path stroke="none" d="M394.995 115.054C398.589 115.054,402.998 111.741,402.998 108.315C402.998 106.237,401.369 104.946,399.067 104.946C394.63 104.946,391.064 108.231,391.064 111.685C391.064 113.791,392.805 115.054,394.995 115.054"/></g></g><g class="vf-stavenote" id="vf-auto23480" font-family="Arial"><path stroke-width="1.4" fill="none" stroke="#444" d="M432.268 60L450.202 60"/><g class="vf-notehead" id="vf-auto23488" pointer-events="bounding-box"><path stroke="none" d="M439.199 95.054C442.793 95.054,447.202 91.741,447.202 88.315C447.202 86.237,445.573 84.946,443.271 84.946C438.834 84.946,435.268 88.231,435.268 91.685C435.268 93.791,437.009 95.054,439.199 95.054"/></g><g class="vf-notehead" id="vf-auto23487" pointer-events="bounding-box"><path stroke="none" d="M439.199 85.054C442.793 85.054,447.202 81.741,447.202 78.315C447.202 76.237,445.573 74.946,443.271 74.946C438.834 74.946,435.268 78.231,435.268 81.685C435.268 83.791,437.009 85.054,439.199 85.054"/></g><g class="vf-notehead" id="vf-auto23486" pointer-events="bounding-box"><path stroke="none" d="M439.199 65.054C442.793 65.054,447.202 61.741,447.202 58.315C447.202 56.237,445.573 54.946,443.271 54.946C438.834 54.946,435.268 58.231,435.268 61.685C435.268 63.791,437.009 65.054,439.199 65.054"/></g></g><g class="vf-stavenote" id="vf-auto23490" font-family="Arial"><g class="vf-notehead" id="vf-auto23494" pointer-events="bounding-box"><path stroke="none" d="M483.403 95.054C486.997 95.054,491.406 91.741,491.406 88.315C491.406 86.237,489.777 84.946,487.475 84.946C483.038 84.946,479.472 88.231,479.472 91.685C479.472 93.791,481.213 95.054,483.403 95.054"/></g></g><g class="vf-stavenote" id="vf-auto23496" font-family="Arial"><g class="vf-notehead" id="vf-auto23513" pointer-events="bounding-box"><path stroke="none" d="M529.095 95.676C529.095 94.187,527.888 92.952,526.372 92.952C524.883 92.952,523.676 94.187,523.676 95.676C523.676 96.518,524.153 97.248,524.771 97.726C525.417 98.175,526.175 98.428,526.961 98.428C527.523 98.428,528.084 98.315,528.534 98.147C529.095 97.978,529.46 97.81,529.994 97.529C530.078 97.501,530.134 97.501,530.19 97.501C530.359 97.501,530.387 97.641,530.387 97.866C530.387 97.978,530.387 98.147,530.359 98.315C530.218 98.905,527.326 106.964,526.596 109.631C526.596 110.109,527.523 110.137,527.747 110.137C528.197 110.137,528.758 110.081,529.18 109.744C529.292 109.66,533.251 95.479,533.251 95.479C533.42 94.749,533.616 94.103,533.672 93.907C533.672 93.485,533.251 93.289,533.167 93.261C533.111 93.261,532.97 93.261,532.746 93.401C532.437 93.654,530.415 96.069,529.095 96.069"/></g></g><g class="vf-stavenote" id="vf-auto23500" font-family="Arial"><g class="vf-notehead" id="vf-auto23504" pointer-events="bounding-box"><path stroke="none" d="M571.811 115.054C575.405 115.054,579.814 111.741,579.814 108.315C579.814 106.237,578.185 104.946,575.883 104.946C571.446 104.946,567.88 108.231,567.88 111.685C567.88 113.791,569.621 115.054,571.811 115.054"/></g></g><g class="vf-stem" id="vf-auto23435" pointer-events="bounding-box" font-family="Arial"><path stroke-width="1.5" fill="none" d="M82.385 62L82.385 96.043"/></g><g class="vf-stem" id="vf-auto23445" pointer-events="bounding-box" font-family="Arial"><path stroke-width="1.5" fill="none" d="M170.794 57L170.794 111.514"/></g><g class="vf-stem" id="vf-auto23451" pointer-events="bounding-box" font-family="Arial"><path stroke-width="1.5" fill="none" d="M214.998 87L214.998 119.25"/></g><g class="vf-beam" id="vf-auto23506" font-family="Arial"><path stroke="none" d="M81.635 96.662L81.635 91.662L215.248 114.869L215.248 119.869Z"/></g><g class="vf-stem" id="vf-auto23457" pointer-events="bounding-box" font-family="Arial"><path stroke-width="1.5" fill="none" d="M259.202 62L259.202 124.358"/></g><g class="vf-stem" id="vf-auto23475" pointer-events="bounding-box" font-family="Arial"><path stroke-width="1.5" fill="none" d="M391.814 112L391.814 144.25"/></g><g class="vf-beam" id="vf-auto23507" font-family="Arial"><path stroke="none" d="M258.452 124.996L258.452 119.996L392.064 139.888L392.064 144.888Z"/></g><g class="vf-stem" id="vf-auto23481" pointer-events="bounding-box" font-family="Arial"><path stroke-width="1.5" fill="none" d="M436.018 62L436.018 124.358"/></g><g class="vf-stem" id="vf-auto23491" pointer-events="bounding-box" font-family="Arial"><path stroke-width="1.5" fill="none" d="M480.222 92L480.222 130.989"/></g><g class="vf-stem" id="vf-auto23501" pointer-events="bounding-box" font-family="Arial"><path stroke-width="1.5" fill="none" d="M568.63 112L568.63 144.25"/></g><g class="vf-beam" id="vf-auto23508" font-family="Arial"><path stroke="none" d="M435.268 124.996L435.268 119.996L568.88 139.888L568.88 144.888Z"/></g></svg>