<svg xmlns="http://www.w3.org/2000/svg" stroke-width="0.3" stroke-dasharray="none" fill="black" stroke="black" font-family="Arial, sans-serif" font-size="10pt" font-weight="normal" font-style="normal" width="450" height="140" viewBox="0 0 450 140" style="width: 450px; height: 140px; border: none;"><g class="vf-stave" id="vf-auto14967" stroke-width="1" fill="#999999" stroke="#999999"><path fill="none" d="M0 40L440 40"/><path fill="none" d="M0 50L440 50"/><path fill="none" d="M0 60L440 60"/><path fill="none" d="M0 70L440 70"/><path fill="none" d="M0 80L440 80"/></g><g class="vf-stavebarline" id="vf-auto14968"><rect y="39.5" width="1" height="41" stroke="none"/></g><g class="vf-stavebarline" id="vf-auto14969"><rect x="440" y="39.5" width="1" height="41" stroke="none"/></g><g class="vf-stavenote" id="vf-auto14970"><g class="vf-notehead" id="vf-auto15078" pointer-events="bounding-box"><path stroke="none" d="M20.145 46.543C20.426 46.599,20.678 46.627,20.959 46.627C24.834 46.627,30.619 41.348,30.506 37.08C30.394 36.041,30.422 34.609,28.316 33.766C27.727 33.485,27.081 33.373,26.379 33.373C22.054 33.373,17.365 38.343,17.028 41.657C17.028 41.909,17 42.134,17 42.387C17 44.409,17.899 46.037,20.145 46.543"/></g></g><g class="vf-stavenote" id="vf-auto14976"><g class="vf-notehead" id="vf-auto15080" pointer-events="bounding-box"><path stroke="none" d="M42.91 46.543C43.191 46.599,43.444 46.627,43.724 46.627C47.6 46.627,53.384 41.348,53.272 37.08C53.159 36.041,53.187 34.609,51.081 33.766C50.492 33.485,49.846 33.373,49.144 33.373C44.82 33.373,40.13 38.343,39.793 41.657C39.793 41.909,39.765 42.134,39.765 42.387C39.765 44.409,40.664 46.037,42.91 46.543"/></g></g><g class="vf-stavenote" id="vf-auto14982"><g class="vf-notehead" id="vf-auto15082" pointer-events="bounding-box"><path stroke="none" d="M65.675 46.543C65.956 46.599,66.209 46.627,66.49 46.627C70.365 46.627,76.149 41.348,76.037 37.08C75.925 36.041,75.953 34.609,73.847 33.766C73.257 33.485,72.611 33.373,71.909 33.373C67.585 33.373,62.895 38.343,62.558 41.657C62.558 41.909,62.53 42.134,62.53 42.387C62.53 44.409,63.429 46.037,65.675 46.543"/></g></g><g class="vf-stavenote" id="vf-auto14988"><g class="vf-notehead" id="vf-auto15084" pointer-events="bounding-box"><path stroke="none" d="M88.441 46.543C88.721 46.599,88.974 46.627,89.255 46.627C93.13 46.627,98.914 41.348,98.802 37.08C98.69 36.041,98.718 34.609,96.612 33.766C96.022 33.485,95.376 33.373,94.674 33.373C90.35 33.373,85.661 38.343,85.324 41.657C85.324 41.909,85.296 42.134,85.296 42.387C85.296 44.409,86.194 46.037,88.441 46.543"/></g></g><g class="vf-stavenote" id="vf-auto14994"><g class="vf-notehead" id="vf-auto15086" pointer-events="bounding-box"><path stroke="none" d="M111.206 46.543C111.486 46.599,111.739 46.627,112.02 46.627C115.895 46.627,121.68 41.348,121.567 37.08C121.455 36.041,121.483 34.609,119.377 33.766C118.787 33.485,118.141 33.373,117.439 33.373C113.115 33.373,108.426 38.343,108.089 41.657C108.089 41.909,108.061 42.134,108.061 42.387C108.061 44.409,108.959 46.037,111.206 46.543"/><path stroke="none" d="M128.569 35 A2 2 0 0 0 124.569 35 A2 2 0 0 0 128.569 35"/></g></g><g class="vf-stavenote" id="vf-auto15001"><g class="vf-notehead" id="vf-auto15088" pointer-events="bounding-box"><path stroke="none" d="M137.495 46.543C137.775 46.599,138.028 46.627,138.309 46.627C142.184 46.627,147.968 41.348,147.856 37.08C147.744 36.041,147.772 34.609,145.666 33.766C145.076 33.485,144.43 33.373,143.728 33.373C139.404 33.373,134.715 38.343,134.378 41.657C134.378 41.909,134.35 42.134,134.35 42.387C134.35 44.409,135.248 46.037,137.495 46.543"/></g></g><g class="vf-stavenote" id="vf-auto15007"><g class="vf-notehead" id="vf-auto15090" pointer-events="bounding-box"><path stroke="none" d="M160.26 46.543C160.54 46.599,160.793 46.627,161.074 46.627C164.949 46.627,170.734 41.348,170.621 37.08C170.509 36.041,170.537 34.609,168.431 33.766C167.841 33.485,167.195 33.373,166.493 33.373C162.169 33.373,157.48 38.343,157.143 41.657C157.143 41.909,157.115 42.134,157.115 42.387C157.115 44.409,158.013 46.037,160.26 46.543"/></g></g><g class="vf-stavenote" id="vf-auto15013"><g class="vf-notehead" id="vf-auto15092" pointer-events="bounding-box"><path stroke="none" d="M184.723 46.543C185.004 46.599,185.257 46.627,185.538 46.627C189.413 46.627,195.197 41.348,195.085 37.08C194.973 36.041,195.001 34.609,192.895 33.766C192.305 33.485,191.659 33.373,190.957 33.373C186.633 33.373,181.943 38.343,181.606 41.657C181.606 41.909,181.578 42.134,181.578 42.387C181.578 44.409,182.477 46.037,184.723 46.543"/></g></g><g class="vf-stavenote" id="vf-auto15019"><g class="vf-notehead" id="vf-auto15094" pointer-events="bounding-box"><path stroke="none" d="M212.974 46.543C213.254 46.599,213.507 46.627,213.788 46.627C217.663 46.627,223.447 41.348,223.335 37.08C223.223 36.041,223.251 34.609,221.145 33.766C220.555 33.485,219.909 33.373,219.207 33.373C214.883 33.373,210.194 38.343,209.857 41.657C209.857 41.909,209.829 42.134,209.829 42.387C209.829 44.409,210.727 46.037,212.974 46.543"/></g></g><g class="vf-stavenote" id="vf-auto15025"><g class="vf-notehead" id="vf-auto15096" pointer-events="bounding-box"><path stroke="none" d="M237.437 46.543C237.718 46.599,237.971 46.627,238.251 46.627C242.127 46.627,247.911 41.348,247.799 37.08C247.686 36.041,247.714 34.609,245.608 33.766C245.019 33.485,244.373 33.373,243.671 33.373C239.347 33.373,234.657 38.343,234.32 41.657C234.32 41.909,234.292 42.134,234.292 42.387C234.292 44.409,235.191 46.037,237.437 46.543"/></g></g><g class="vf-stavenote" id="vf-auto15031"><g class="vf-notehead" id="vf-auto15098" pointer-events="bounding-box"><path stroke="none" d="M260.202 46.543C260.483 46.599,260.736 46.627,261.017 46.627C264.892 46.627,270.676 41.348,270.564 37.08C270.452 36.041,270.48 34.609,268.374 33.766C267.784 33.485,267.138 33.373,266.436 33.373C262.112 33.373,257.422 38.343,257.085 41.657C257.085 41.909,257.057 42.134,257.057 42.387C257.057 44.409,257.956 46.037,260.202 46.543"/><path stroke="none" d="M277.565 35 A2 2 0 0 0 273.565 35 A2 2 0 0 0 277.565 35"/></g></g><g class="vf-stavenote" id="vf-auto15038"><g class="vf-notehead" id="vf-auto15100" pointer-events="bounding-box"><path stroke="none" d="M286.491 46.543C286.772 46.599,287.025 46.627,287.305 46.627C291.181 46.627,296.965 41.348,296.853 37.08C296.74 36.041,296.768 34.609,294.662 33.766C294.073 33.485,293.427 33.373,292.725 33.373C288.401 33.373,283.711 38.343,283.374 41.657C283.374 41.909,283.346 42.134,283.346 42.387C283.346 44.409,284.245 46.037,286.491 46.543"/><path stroke="none" d="M303.854 35 A2 2 0 0 0 299.854 35 A2 2 0 0 0 303.854 35"/></g></g><g class="vf-stavenote" id="vf-auto15045"><g class="vf-notehead" id="vf-auto15102" pointer-events="bounding-box"><path stroke="none" d="M312.78 46.543C313.061 46.599,313.313 46.627,313.594 46.627C317.469 46.627,323.254 41.348,323.141 37.08C323.029 36.041,323.057 34.609,320.951 33.766C320.362 33.485,319.716 33.373,319.014 33.373C314.689 33.373,310 38.343,309.663 41.657C309.663 41.909,309.635 42.134,309.635 42.387C309.635 44.409,310.534 46.037,312.78 46.543"/></g></g><g class="vf-stavenote" id="vf-auto15051"><g class="vf-notehead" id="vf-auto15104" pointer-events="bounding-box"><path stroke="none" d="M335.545 46.543C335.826 46.599,336.079 46.627,336.359 46.627C340.235 46.627,346.019 41.348,345.907 37.08C345.794 36.041,345.822 34.609,343.716 33.766C343.127 33.485,342.481 33.373,341.779 33.373C337.455 33.373,332.765 38.343,332.428 41.657C332.428 41.909,332.4 42.134,332.4 42.387C332.4 44.409,333.299 46.037,335.545 46.543"/><path stroke="none" d="M352.908 35 A2 2 0 0 0 348.908 35 A2 2 0 0 0 352.908 35"/></g></g><g class="vf-stavenote" id="vf-auto15058"><g class="vf-notehead" id="vf-auto15106" pointer-events="bounding-box"><path stroke="none" d="M361.834 46.543C362.115 46.599,362.367 46.627,362.648 46.627C366.523 46.627,372.308 41.348,372.195 37.08C372.083 36.041,372.111 34.609,370.005 33.766C369.416 33.485,368.77 33.373,368.068 33.373C363.743 33.373,359.054 38.343,358.717 41.657C358.717 41.909,358.689 42.134,358.689 42.387C358.689 44.409,359.588 46.037,361.834 46.543"/></g></g><g class="vf-stavenote" id="vf-auto15064"><g class="vf-notehead" id="vf-auto15108" pointer-events="bounding-box"><path stroke="none" d="M384.599 46.543C384.88 46.599,385.133 46.627,385.413 46.627C389.289 46.627,395.073 41.348,394.961 37.08C394.848 36.041,394.876 34.609,392.77 33.766C392.181 33.485,391.535 33.373,390.833 33.373C386.509 33.373,381.819 38.343,381.482 41.657C381.482 41.909,381.454 42.134,381.454 42.387C381.454 44.409,382.353 46.037,384.599 46.543"/></g></g><g class="vf-stavenote" id="vf-auto15070"><g class="vf-notehead" id="vf-auto15110" pointer-events="bounding-box"><path stroke="none" d="M407.364 46.543C407.645 46.599,407.898 46.627,408.179 46.627C412.054 46.627,417.838 41.348,417.726 37.08C417.614 36.041,417.642 34.609,415.536 33.766C414.946 33.485,414.3 33.373,413.598 33.373C409.274 33.373,404.584 38.343,404.247 41.657C404.247 41.909,404.219 42.134,404.219 42.387C404.219 44.409,405.118 46.037,407.364 46.543"/><path stroke="none" d="M424.727 35 A2 2 0 0 0 420.727 35 A2 2 0 0 0 424.727 35"/></g></g><g class="vf-stem" id="vf-auto14971" pointer-events="bounding-box"><path stroke-width="1.5" fill="none" d="M17.75 42L17.75 81.75"/></g><g class="vf-stem" id="vf-auto14977" pointer-events="bounding-box"><path stroke-width="1.5" fill="none" d="M40.515 42L40.515 81.75"/></g><g class="vf-stem" id="vf-auto14983" pointer-events="bounding-box"><path stroke-width="1.5" fill="none" d="M63.28 42L63.28 81.75"/></g><g class="vf-stem" id="vf-auto14989" pointer-events="bounding-box"><path stroke-width="1.5" fill="none" d="M86.046 42L86.046 81.75"/></g><g class="vf-stem" id="vf-auto14995" pointer-events="bounding-box"><path stroke-width="1.5" fill="none" d="M108.811 42L108.811 81.75"/></g><g class="vf-stem" id="vf-auto15002" pointer-events="bounding-box"><path stroke-width="1.5" fill="none" d="M135.1 42L135.1 81.75"/></g><g class="vf-beam" id="vf-auto15112"><path stroke="none" d="M17 82.5L17 77.5L135.35 77.5L135.35 82.5Z"/><path stroke="none" d="M17 75L17 70L86.296 70L86.296 75Z"/><path stroke="none" d="M108.061 75L108.061 70L135.35 70L135.35 75Z"/><path stroke="none" d="M17 67.5L17 62.5L86.296 62.5L86.296 67.5Z"/><path stroke="none" d="M134.35 67.5L134.35 62.5L125.35 62.5L125.35 67.5Z"/></g><g class="vf-stem" id="vf-auto15008" pointer-events="bounding-box"><path stroke-width="1.5" fill="none" d="M157.865 42L157.865 74.25"/></g><g class="vf-stem" id="vf-auto15014" pointer-events="bounding-box"><path stroke-width="1.5" fill="none" d="M182.328 42L182.328 74.25"/></g><g class="vf-stem" id="vf-auto15020" pointer-events="bounding-box"><path stroke-width="1.5" fill="none" d="M210.579 42L210.579 74.25"/></g><g class="vf-beam" id="vf-auto15113"><path stroke="none" d="M157.115 75L157.115 70L210.829 70L210.829 75Z"/><path stroke="none" d="M157.115 67.5L157.115 62.5L168.115 62.5L168.115 67.5Z"/><path stroke="none" d="M209.829 67.5L209.829 62.5L200.829 62.5L200.829 67.5Z"/></g><g class="vf-stem" id="vf-auto15026" pointer-events="bounding-box"><path stroke-width="1.5" fill="none" d="M235.042 42L235.042 81.75"/></g><g class="vf-stem" id="vf-auto15032" pointer-events="bounding-box"><path stroke-width="1.5" fill="none" d="M257.807 42L257.807 81.75"/></g><g class="vf-stem" id="vf-auto15039" pointer-events="bounding-box"><path stroke-width="1.5" fill="none" d="M284.096 42L284.096 81.75"/></g><g class="vf-stem" id="vf-auto15046" pointer-events="bounding-box"><path stroke-width="1.5" fill="none" d="M310.385 42L310.385 81.75"/></g><g class="vf-beam" id="vf-auto15114"><path stroke="none" d="M234.292 82.5L234.292 77.5L310.635 77.5L310.635 82.5Z"/><path stroke="none" d="M234.292 75L234.292 70L258.057 70L258.057 75Z"/><path stroke="none" d="M283.346 75L283.346 70L310.635 70L310.635 75Z"/><path stroke="none" d="M234.292 67.5L234.292 62.5L245.292 62.5L245.292 67.5Z"/><path stroke="none" d="M309.635 67.5L309.635 62.5L300.635 62.5L300.635 67.5Z"/></g><g class="vf-stem" id="vf-auto15052" pointer-events="bounding-box"><path stroke-width="1.5" fill="none" d="M333.15 42L333.15 81.75"/></g><g class="vf-stem" id="vf-auto15059" pointer-events="bounding-box"><path stroke-width="1.5" fill="none" d="M359.439 42L359.439 81.75"/></g><g class="vf-stem" id="vf-auto15065" pointer-events="bounding-box"><path stroke-width="1.5" fill="none" d="M382.204 42L382.204 81.75"/></g><g class="vf-stem" id="vf-auto15071" pointer-events="bounding-box"><path stroke-width="1.5" fill="none" d="M404.969 42L404.969 81.75"/></g><g class="vf-beam" id="vf-auto15115"><path stroke="none" d="M332.4 82.5L332.4 77.5L405.219 77.5L405.219 82.5Z"/><path stroke="none" d="M332.4 75L332.4 70L359.689 70L359.689 75Z"/><path stroke="none" d="M381.454 75L381.454 70L405.219 70L405.219 75Z"/><path stroke="none" d="M358.689 67.5L358.689 62.5L349.689 62.5L349.689 67.5Z"/><path stroke="none" d="M381.454 67.5L381.454 62.5L392.454 62.5L392.454 67.5Z"/></g></svg>