<svg xmlns="http://www.w3.org/2000/svg" stroke-width="0.3" stroke-dasharray="none" fill="black" stroke="black" font-family="Arial, sans-serif" font-size="10pt" font-weight="normal" font-style="normal" width="500" height="200" viewBox="0 0 500 200" style="width: 500px; height: 200px; border: none;"><g class="vf-stave" id="vf-auto9637" stroke-width="1" fill="#999999" stroke="#999999"><path fill="none" d="M0 40L490 40"/><path fill="none" d="M0 50L490 50"/><path fill="none" d="M0 60L490 60"/><path fill="none" d="M0 70L490 70"/><path fill="none" d="M0 80L490 80"/></g><g class="vf-stavebarline" id="vf-auto9638"><rect y="39.5" width="1" height="41" stroke="none"/></g><g class="vf-stavebarline" id="vf-auto9639"><rect x="490" y="39.5" width="1" height="41" stroke="none"/></g><g class="vf-clef" id="vf-auto9640"><path stroke="none" d="M13.693 91.402C13.87 91.402,14.048 91.377,14.276 91.301C14.707 91.148,15.062 90.92,15.366 90.591C18.382 87.423,19.623 83.596,19.75 79.313C19.75 78.983,19.776 78.451,19.776 78.451C19.776 78.451,20.282 78.147,20.511 78.071C21.727 77.488,22.893 76.829,23.932 75.993C26.72 73.762,28.316 70.747,29.051 67.376C29.204 66.844,29.229 66.286,29.229 65.779C29.229 63.473,27.962 61.8,25.047 61.268C24.312 61.116,23.577 61.04,22.842 61.04C21.017 61.04,19.269 61.521,17.621 62.484C17.419 62.611,17.19 62.763,17.19 62.763L16.253 59.215C16.202 59.038,16.202 58.708,16.202 58.708C16.202 58.708,19.928 52.093,20.434 48.697C20.612 47.709,20.688 46.72,20.688 45.757C20.688 44.972,20.663 44.237,20.536 43.527C20.181 40.891,19.193 38.408,18.534 35.848C18.356 35.088,18.103 34.175,17.216 34.175C16.557 34.175,16.101 34.809,15.695 35.341C13.82 37.926,12.907 40.891,12.73 44.059C12.705 44.566,12.705 45.098,12.705 45.605C12.705 48.545,13.186 51.51,13.566 54.425C13.566 54.653,13.642 54.881,13.693 55.059C12.046 57.39,10.221 59.57,8.65 61.978C7.56 63.701,6.343 65.424,5.583 67.35C5.177 68.288,5 69.403,5 70.493C5 72.749,5.76 75.055,7.078 76.322C7.839 77.057,9.055 77.868,10.246 78.299C11.944 78.907,13.617 79.313,15.391 79.313C15.923 79.313,16.455 79.287,17.013 79.211L17.444 79.135C17.444 79.135,17.469 79.465,17.444 79.642C17.038 81.847,16.506 84.001,15.188 85.826C14.479 86.764,13.82 87.828,12.451 87.93C12.046 87.98,11.868 88.234,11.868 88.563C11.868 88.69,11.894 88.817,11.944 88.944C12.147 89.501,12.4 90.084,12.654 90.642C12.882 91.148,13.237 91.402,13.693 91.402M15.138 52.828C14.859 51.08,14.681 49.356,14.681 47.633C14.681 44.465,15.34 41.373,17.19 38.408C17.621 39.751,17.849 41.119,17.849 42.488C17.849 43.198,17.773 43.933,17.672 44.642C17.19 47.506,16.532 50.269,15.138 52.828M11.387 74.421C10.88 74.396,10.449 74.219,9.967 74.067C9.004 73.737,8.219 73.382,7.965 72.749C7.839 72.47,7.813 72.14,7.813 71.811C7.813 71.406,7.889 70.975,7.965 70.518C7.991 70.316,8.219 69.682,8.295 69.581C9.714 67.046,11.412 64.765,13.211 62.459L14.732 60.457L15.011 61.268C15.29 62.18,15.543 63.625,15.543 63.625C15.543 63.625,14.529 64.943,13.87 65.602C12.046 67.376,11.159 69.606,11.159 72.064C11.159 72.673,11.235 73.306,11.361 73.965C11.387 74.092,11.387 74.219,11.387 74.421M19.269 73.306C18.99 70.924,18.432 69.023,17.925 66.742C17.875 66.463,17.875 66.286,18.001 66.134C18.939 65.957,19.852 65.881,20.815 65.881C21.727 65.881,22.589 65.957,23.501 66.134C24.591 66.362,25.681 66.539,26.542 67.426C26.593 67.503,26.669 67.579,26.745 67.604C25.301 70.518,23.146 72.723,20.08 74.067L19.421 74.32M15.391 75.055C14.124 75.055,12.882 74.726,12.882 74.726C12.882 74.726,12.781 74.219,12.781 73.484C12.781 73.002,12.806 72.419,12.958 71.836C13.313 70.088,14.555 68.846,15.873 67.68C15.974 67.579,16.101 67.503,16.177 67.503C16.303 67.503,16.354 67.655,16.379 67.908C16.709 70.062,17.266 72.166,17.419 74.32C17.444 74.548,17.419 74.878,17.419 74.878C17.419 74.878,16.455 75.131,15.391 75.055"/></g></svg>