<svg xmlns="http://www.w3.org/2000/svg" stroke-width="0.3" stroke-dasharray="none" fill="black" stroke="black" font-family="Arial, sans-serif" font-size="10pt" font-weight="normal" font-style="normal" width="770" height="140" viewBox="0 0 770 140" style="width: 770px; height: 140px; border: none;"><g class="vf-stave" id="vf-auto14438" stroke-width="1" fill="#999999" stroke="#999999"><path fill="none" d="M0 40L760 40"/><path fill="none" d="M0 50L760 50"/><path fill="none" d="M0 60L760 60"/><path fill="none" d="M0 70L760 70"/><path fill="none" d="M0 80L760 80"/></g><g class="vf-stavebarline" id="vf-auto14439"><rect y="39.5" width="1" height="41" stroke="none"/></g><g class="vf-stavebarline" id="vf-auto14440"><rect x="760" y="39.5" width="1" height="41" stroke="none"/></g><g class="vf-clef" id="vf-auto14441"><path stroke="none" d="M18.711 55.844C18.66 55.413,18.711 55.388,18.939 55.16C22.893 51.485,25.883 46.847,25.883 41.246C25.883 38.078,24.996 34.935,23.501 32.756C22.944 31.945,22.006 30.931,21.6 30.931C21.093 30.931,19.953 31.869,19.243 32.68C16.532 35.67,15.644 40.232,15.644 44.034C15.644 46.138,15.923 48.52,16.177 50.015C16.253 50.446,16.278 50.522,15.847 50.902C10.576 55.236,5 60.457,5 67.832C5 74.168,9.334 80.2,18.28 80.2C19.117 80.2,20.08 80.124,20.815 79.972C21.195 79.896,21.271 79.87,21.347 80.301C21.778 82.76,22.335 85.928,22.335 87.651C22.335 93.049,18.686 93.708,16.532 93.708C14.555 93.708,13.617 93.125,13.617 92.644C13.617 92.39,13.946 92.289,14.783 92.01C15.923 91.681,17.216 90.718,17.216 88.589C17.216 86.587,15.949 84.863,13.718 84.863C11.285 84.863,9.815 86.815,9.815 89.07C9.815 91.427,11.235 95.026,16.76 95.026C19.193 95.026,23.932 93.911,23.932 87.727C23.932 85.623,23.273 82.177,22.893 79.896C22.817 79.465,22.842 79.516,23.349 79.287C27.049 77.818,29.482 74.726,29.482 70.594C29.482 65.931,26.061 61.8,20.688 61.8C19.75 61.8,19.75 61.8,19.623 61.141M22.158 36.583C23.349 36.583,24.337 37.571,24.337 39.573C24.337 43.628,20.865 46.923,18.001 49.432C17.748 49.66,17.596 49.61,17.52 49.128C17.368 48.19,17.292 46.949,17.292 45.783C17.292 40.08,19.928 36.583,22.158 36.583M18.179 61.445C18.28 62.13,18.28 62.104,17.621 62.307C14.428 63.397,12.324 66.286,12.324 69.403C12.324 72.673,14.048 75.004,16.532 75.866C16.836 75.967,17.266 76.069,17.52 76.069C17.799 76.069,17.951 75.891,17.951 75.663C17.951 75.41,17.672 75.308,17.419 75.207C15.873 74.548,14.783 72.977,14.783 71.304C14.783 69.201,16.202 67.655,18.432 67.021C19.015 66.869,19.091 66.92,19.167 67.325L20.992 78.198C21.068 78.603,21.017 78.603,20.485 78.705C19.902 78.806,19.167 78.882,18.432 78.882C12.046 78.882,7.915 75.334,7.915 70.265C7.915 68.111,8.295 65.222,11.311 61.8C13.516 59.367,15.188 57.999,16.886 56.63C17.266 56.326,17.343 56.377,17.419 56.757M20.688 67.249C20.612 66.793,20.663 66.692,21.093 66.742C24.059 66.996,26.492 69.479,26.492 72.673C26.492 74.979,25.098 76.829,23.07 77.868C22.639 78.071,22.563 78.071,22.487 77.64"/></g><g class="vf-stavenote" id="vf-auto14442"><g class="vf-stem" id="vf-auto14443" pointer-events="bounding-box"><path stroke-width="1.5" fill="none" d="M54.166 52L54.166 90"/></g><g class="vf-notehead" id="vf-auto14447" pointer-events="bounding-box"><path stroke="none" d="M46.164 60.054C49.758 60.054,54.166 56.741,54.166 53.315C54.166 51.237,52.538 49.946,50.235 49.946C45.798 49.946,42.232 53.231,42.232 56.685C42.232 58.791,43.973 60.054,46.164 60.054"/><path stroke="none" d="M72.35 55 A2 2 0 0 0 68.35 55 A2 2 0 0 0 72.35 55"/></g><g class="vf-notehead" id="vf-auto14446" pointer-events="bounding-box"><path stroke="none" d="M57.348 55.054C60.942 55.054,65.35 51.741,65.35 48.315C65.35 46.237,63.722 44.946,61.419 44.946C56.982 44.946,53.416 48.231,53.416 51.685C53.416 53.791,55.157 55.054,57.348 55.054"/><path stroke="none" d="M72.35 45 A2 2 0 0 0 68.35 45 A2 2 0 0 0 72.35 45"/></g></g><g class="vf-stavenote" id="vf-auto14448"><path stroke-width="1.4" fill="none" stroke="#444" d="M141.971 90L159.905 90"/><g class="vf-stem" id="vf-auto14449" pointer-events="bounding-box"><path stroke-width="1.5" fill="none" d="M156.155 88L156.155 55"/></g><g class="vf-notehead" id="vf-auto14451" pointer-events="bounding-box"><path stroke="none" d="M148.903 95.054C152.497 95.054,156.905 91.741,156.905 88.315C156.905 86.237,155.277 84.946,152.974 84.946C148.538 84.946,144.971 88.231,144.971 91.685C144.971 93.791,146.712 95.054,148.903 95.054"/><path stroke="none" d="M141.479 85.349C141.752 85.239,141.971 84.911,141.971 84.692L141.971 81.874C141.971 81.683,141.835 81.573,141.67 81.573C141.616 81.573,141.561 81.573,141.479 81.6C141.479 81.6,140.685 81.929,140.494 81.956C140.22 81.956,139.947 81.765,139.947 81.464L139.947 76.648C139.947 76.402,139.7 76.211,139.4 76.211C139.016 76.211,138.77 76.402,138.77 76.648L138.77 81.765C138.716 82.148,138.606 82.668,138.25 82.914C137.785 83.187,136.445 83.735,135.761 83.899C135.432 83.899,135.296 83.434,135.296 83.105L135.296 78.372C135.296 78.153,135.022 77.934,134.748 77.934C134.365 77.934,134.119 78.153,134.119 78.372L134.119 83.707C134.119 84.254,133.873 84.637,133.654 84.747C133.408 84.884,132.614 85.185,132.614 85.185C132.341 85.267,132.149 85.595,132.149 85.814L132.149 88.632C132.149 88.851,132.259 88.988,132.505 88.988L132.587 88.933C132.614 88.933,133.216 88.687,133.517 88.55L133.572 88.495C133.873 88.495,134.119 88.906,134.119 89.207L134.119 93.119C134.119 93.557,133.928 93.912,133.681 94.022C133.462 94.104,132.614 94.46,132.614 94.46C132.341 94.542,132.149 94.843,132.149 95.089L132.149 97.88C132.149 98.126,132.259 98.235,132.505 98.235L132.587 98.208C132.614 98.208,133.161 97.962,133.517 97.852C133.572 97.798,133.599 97.798,133.654 97.798C133.928 97.798,134.119 98.235,134.119 98.427L134.119 103.27C134.119 103.516,134.365 103.707,134.639 103.707C135.022 103.707,135.296 103.516,135.296 103.27L135.296 97.798C135.296 97.278,135.487 97.004,135.706 96.922L138.086 95.937C138.086 95.937,138.141 95.937,138.141 95.937L138.223 95.91C138.579 95.91,138.77 96.375,138.77 96.621L138.77 101.546C138.77 101.792,139.016 101.984,139.29 101.984C139.7 101.984,139.947 101.792,139.947 101.546L139.947 95.937C139.947 95.636,140.111 95.171,140.384 95.034C140.658 94.925,141.479 94.596,141.479 94.596C141.752 94.487,141.971 94.186,141.971 93.94L141.971 91.149C141.971 90.958,141.835 90.821,141.67 90.821C141.616 90.821,141.561 90.821,141.479 90.876L140.467 91.259C140.22 91.259,139.947 91.012,139.947 90.547L139.947 86.881C139.947 86.607,140.138 85.869,140.467 85.732M138.77 91.778C138.524 92.572,136.691 93.338,135.761 93.338C135.542 93.338,135.35 93.283,135.296 93.146C135.213 92.982,135.186 92.134,135.186 91.176C135.186 89.973,135.213 88.577,135.296 88.276C135.378 87.592,137.183 86.772,138.168 86.772C138.442 86.772,138.688 86.854,138.77 87.018C138.852 87.209,138.934 88.194,138.934 89.261C138.934 90.328,138.852 91.423,138.77 91.778"/></g></g><g class="vf-stavenote" id="vf-auto14454"><path stroke-width="1.4" fill="none" stroke="#444" d="M233.526 90L251.46 90"/><g class="vf-stem" id="vf-auto14455" pointer-events="bounding-box"><path stroke-width="1.5" fill="none" d="M247.71 88L247.71 35"/></g><g class="vf-notehead" id="vf-auto14459" pointer-events="bounding-box"><path stroke="none" d="M240.458 95.054C244.052 95.054,248.46 91.741,248.46 88.315C248.46 86.237,246.832 84.946,244.529 84.946C240.093 84.946,236.526 88.231,236.526 91.685C236.526 93.791,238.267 95.054,240.458 95.054"/></g><g class="vf-notehead" id="vf-auto14460" pointer-events="bounding-box"><path stroke="none" d="M240.458 85.054C244.052 85.054,248.46 81.741,248.46 78.315C248.46 76.237,246.832 74.946,244.529 74.946C240.093 74.946,236.526 78.231,236.526 81.685C236.526 83.791,238.267 85.054,240.458 85.054"/></g><g class="vf-notehead" id="vf-auto14461" pointer-events="bounding-box"><path stroke="none" d="M240.458 75.054C244.052 75.054,248.46 71.741,248.46 68.315C248.46 66.237,246.832 64.946,244.529 64.946C240.093 64.946,236.526 68.231,236.526 71.685C236.526 73.791,238.267 75.054,240.458 75.054"/></g></g><g class="vf-stavenote" id="vf-auto14462"><g class="vf-stem" id="vf-auto14463" pointer-events="bounding-box"><path stroke-width="1.5" fill="none" d="M339.265 73L339.265 20"/></g><g class="vf-notehead" id="vf-auto14467" pointer-events="bounding-box"><path stroke="none" d="M332.013 80.054C335.607 80.054,340.015 76.741,340.015 73.315C340.015 71.237,338.387 69.946,336.084 69.946C331.648 69.946,328.081 73.231,328.081 76.685C328.081 78.791,329.822 80.054,332.013 80.054"/></g><g class="vf-notehead" id="vf-auto14468" pointer-events="bounding-box"><path stroke="none" d="M332.013 70.054C335.607 70.054,340.015 66.741,340.015 63.315C340.015 61.237,338.387 59.946,336.084 59.946C331.648 59.946,328.081 63.231,328.081 66.685C328.081 68.791,329.822 70.054,332.013 70.054"/></g><g class="vf-notehead" id="vf-auto14469" pointer-events="bounding-box"><path stroke="none" d="M332.013 60.054C335.607 60.054,340.015 56.741,340.015 53.315C340.015 51.237,338.387 49.946,336.084 49.946C331.648 49.946,328.081 53.231,328.081 56.685C328.081 58.791,329.822 60.054,332.013 60.054"/><path stroke="none" d="M324.589 50.349C324.863 50.239,325.081 49.911,325.081 49.692L325.081 46.874C325.081 46.683,324.945 46.573,324.78 46.573C324.726 46.573,324.671 46.573,324.589 46.6C324.589 46.6,323.795 46.929,323.604 46.956C323.33 46.956,323.057 46.765,323.057 46.464L323.057 41.648C323.057 41.402,322.811 41.211,322.51 41.211C322.127 41.211,321.88 41.402,321.88 41.648L321.88 46.765C321.826 47.148,321.716 47.668,321.36 47.914C320.895 48.187,319.555 48.735,318.871 48.899C318.542 48.899,318.406 48.434,318.406 48.105L318.406 43.372C318.406 43.153,318.132 42.934,317.858 42.934C317.475 42.934,317.229 43.153,317.229 43.372L317.229 48.707C317.229 49.254,316.983 49.637,316.764 49.747C316.518 49.884,315.724 50.185,315.724 50.185C315.451 50.267,315.259 50.595,315.259 50.814L315.259 53.632C315.259 53.851,315.369 53.988,315.615 53.988L315.697 53.933C315.724 53.933,316.326 53.687,316.627 53.55L316.682 53.495C316.983 53.495,317.229 53.906,317.229 54.207L317.229 58.119C317.229 58.557,317.038 58.912,316.791 59.022C316.572 59.104,315.724 59.46,315.724 59.46C315.451 59.542,315.259 59.843,315.259 60.089L315.259 62.88C315.259 63.126,315.369 63.235,315.615 63.235L315.697 63.208C315.724 63.208,316.271 62.962,316.627 62.852C316.682 62.798,316.709 62.798,316.764 62.798C317.038 62.798,317.229 63.235,317.229 63.427L317.229 68.27C317.229 68.516,317.475 68.707,317.749 68.707C318.132 68.707,318.406 68.516,318.406 68.27L318.406 62.798C318.406 62.278,318.597 62.004,318.816 61.922L321.196 60.937C321.196 60.937,321.251 60.937,321.251 60.937L321.333 60.91C321.689 60.91,321.88 61.375,321.88 61.621L321.88 66.546C321.88 66.792,322.127 66.984,322.4 66.984C322.811 66.984,323.057 66.792,323.057 66.546L323.057 60.937C323.057 60.636,323.221 60.171,323.495 60.034C323.768 59.925,324.589 59.596,324.589 59.596C324.863 59.487,325.081 59.186,325.081 58.94L325.081 56.149C325.081 55.958,324.945 55.821,324.78 55.821C324.726 55.821,324.671 55.821,324.589 55.876L323.577 56.259C323.33 56.259,323.057 56.012,323.057 55.547L323.057 51.881C323.057 51.607,323.248 50.869,323.577 50.732M321.88 56.778C321.634 57.572,319.801 58.338,318.871 58.338C318.652 58.338,318.46 58.283,318.406 58.146C318.323 57.982,318.296 57.134,318.296 56.176C318.296 54.973,318.323 53.577,318.406 53.276C318.488 52.592,320.293 51.772,321.278 51.772C321.552 51.772,321.798 51.854,321.88 52.018C321.962 52.209,322.044 53.194,322.044 54.261C322.044 55.328,321.962 56.423,321.88 56.778"/></g></g><g class="vf-stavenote" id="vf-auto14472"><path stroke-width="1.4" fill="none" stroke="#444" d="M416.636 90L434.57 90"/><g class="vf-stem" id="vf-auto14473" pointer-events="bounding-box"><path stroke-width="1.5" fill="none" d="M430.82 88L430.82 55"/></g><g class="vf-notehead" id="vf-auto14475" pointer-events="bounding-box"><path stroke="none" d="M423.568 95.054C427.162 95.054,431.57 91.741,431.57 88.315C431.57 86.237,429.942 84.946,427.639 84.946C423.203 84.946,419.636 88.231,419.636 91.685C419.636 93.791,421.377 95.054,423.568 95.054"/><path stroke="none" d="M416.144 85.349C416.418 85.239,416.636 84.911,416.636 84.692L416.636 81.874C416.636 81.683,416.5 81.573,416.335 81.573C416.281 81.573,416.226 81.573,416.144 81.6C416.144 81.6,415.351 81.929,415.159 81.956C414.885 81.956,414.612 81.765,414.612 81.464L414.612 76.648C414.612 76.402,414.366 76.211,414.065 76.211C413.682 76.211,413.435 76.402,413.435 76.648L413.435 81.765C413.381 82.148,413.271 82.668,412.915 82.914C412.45 83.187,411.11 83.735,410.426 83.899C410.097 83.899,409.961 83.434,409.961 83.105L409.961 78.372C409.961 78.153,409.687 77.934,409.413 77.934C409.03 77.934,408.784 78.153,408.784 78.372L408.784 83.707C408.784 84.254,408.538 84.637,408.319 84.747C408.073 84.884,407.279 85.185,407.279 85.185C407.006 85.267,406.814 85.595,406.814 85.814L406.814 88.632C406.814 88.851,406.924 88.988,407.17 88.988L407.252 88.933C407.279 88.933,407.881 88.687,408.182 88.55L408.237 88.495C408.538 88.495,408.784 88.906,408.784 89.207L408.784 93.119C408.784 93.557,408.593 93.912,408.346 94.022C408.127 94.104,407.279 94.46,407.279 94.46C407.006 94.542,406.814 94.843,406.814 95.089L406.814 97.88C406.814 98.126,406.924 98.235,407.17 98.235L407.252 98.208C407.279 98.208,407.827 97.962,408.182 97.852C408.237 97.798,408.264 97.798,408.319 97.798C408.593 97.798,408.784 98.235,408.784 98.427L408.784 103.27C408.784 103.516,409.03 103.707,409.304 103.707C409.687 103.707,409.961 103.516,409.961 103.27L409.961 97.798C409.961 97.278,410.152 97.004,410.371 96.922L412.751 95.937C412.751 95.937,412.806 95.937,412.806 95.937L412.888 95.91C413.244 95.91,413.435 96.375,413.435 96.621L413.435 101.546C413.435 101.792,413.682 101.984,413.955 101.984C414.366 101.984,414.612 101.792,414.612 101.546L414.612 95.937C414.612 95.636,414.776 95.171,415.05 95.034C415.323 94.925,416.144 94.596,416.144 94.596C416.418 94.487,416.636 94.186,416.636 93.94L416.636 91.149C416.636 90.958,416.5 90.821,416.335 90.821C416.281 90.821,416.226 90.821,416.144 90.876L415.132 91.259C414.885 91.259,414.612 91.012,414.612 90.547L414.612 86.881C414.612 86.607,414.803 85.869,415.132 85.732M413.435 91.778C413.189 92.572,411.356 93.338,410.426 93.338C410.207 93.338,410.015 93.283,409.961 93.146C409.879 92.982,409.851 92.134,409.851 91.176C409.851 89.973,409.879 88.577,409.961 88.276C410.043 87.592,411.848 86.772,412.833 86.772C413.107 86.772,413.353 86.854,413.435 87.018C413.517 87.209,413.599 88.194,413.599 89.261C413.599 90.328,413.517 91.423,413.435 91.778"/></g></g><g class="vf-stavenote" id="vf-auto14478"><g class="vf-stem" id="vf-auto14479" pointer-events="bounding-box"><path stroke-width="1.5" fill="none" d="M511.941 52L511.941 90"/></g><g class="vf-notehead" id="vf-auto14483" pointer-events="bounding-box"><path stroke="none" d="M503.939 60.054C507.533 60.054,511.941 56.741,511.941 53.315C511.941 51.237,510.313 49.946,508.01 49.946C503.574 49.946,500.007 53.231,500.007 56.685C500.007 58.791,501.748 60.054,503.939 60.054"/></g><g class="vf-notehead" id="vf-auto14482" pointer-events="bounding-box"><path stroke="none" d="M515.123 55.054C518.717 55.054,523.125 51.741,523.125 48.315C523.125 46.237,521.497 44.946,519.194 44.946C514.758 44.946,511.191 48.231,511.191 51.685C511.191 53.791,512.932 55.054,515.123 55.054"/></g></g><g class="vf-stavenote" id="vf-auto14484"><path stroke-width="1.4" fill="none" stroke="#444" d="M599.747 90L617.681 90"/><g class="vf-stem" id="vf-auto14485" pointer-events="bounding-box"><path stroke-width="1.5" fill="none" d="M613.931 88L613.931 35"/></g><g class="vf-notehead" id="vf-auto14489" pointer-events="bounding-box"><path stroke="none" d="M606.678 95.054C610.272 95.054,614.681 91.741,614.681 88.315C614.681 86.237,613.052 84.946,610.749 84.946C606.313 84.946,602.747 88.231,602.747 91.685C602.747 93.791,604.487 95.054,606.678 95.054"/></g><g class="vf-notehead" id="vf-auto14490" pointer-events="bounding-box"><path stroke="none" d="M617.862 90.054C621.456 90.054,625.865 86.741,625.865 83.315C625.865 81.237,624.236 79.946,621.933 79.946C617.497 79.946,613.931 83.231,613.931 86.685C613.931 88.791,615.671 90.054,617.862 90.054"/></g><g class="vf-notehead" id="vf-auto14491" pointer-events="bounding-box"><path stroke="none" d="M606.678 75.054C610.272 75.054,614.681 71.741,614.681 68.315C614.681 66.237,613.052 64.946,610.749 64.946C606.313 64.946,602.747 68.231,602.747 71.685C602.747 73.791,604.487 75.054,606.678 75.054"/></g></g><g class="vf-stavenote" id="vf-auto14492"><g class="vf-stem" id="vf-auto14493" pointer-events="bounding-box"><path stroke-width="1.5" fill="none" d="M705.486 73L705.486 20"/></g><g class="vf-notehead" id="vf-auto14497" pointer-events="bounding-box"><path stroke="none" d="M698.233 80.054C701.827 80.054,706.236 76.741,706.236 73.315C706.236 71.237,704.607 69.946,702.304 69.946C697.868 69.946,694.302 73.231,694.302 76.685C694.302 78.791,696.043 80.054,698.233 80.054"/></g><g class="vf-notehead" id="vf-auto14498" pointer-events="bounding-box"><path stroke="none" d="M698.233 70.054C701.827 70.054,706.236 66.741,706.236 63.315C706.236 61.237,704.607 59.946,702.304 59.946C697.868 59.946,694.302 63.231,694.302 66.685C694.302 68.791,696.043 70.054,698.233 70.054"/></g><g class="vf-notehead" id="vf-auto14499" pointer-events="bounding-box"><path stroke="none" d="M698.233 60.054C701.827 60.054,706.236 56.741,706.236 53.315C706.236 51.237,704.607 49.946,702.304 49.946C697.868 49.946,694.302 53.231,694.302 56.685C694.302 58.791,696.043 60.054,698.233 60.054"/><path stroke="none" d="M690.809 50.349C691.083 50.239,691.302 49.911,691.302 49.692L691.302 46.874C691.302 46.683,691.165 46.573,691.001 46.573C690.946 46.573,690.891 46.573,690.809 46.6C690.809 46.6,690.016 46.929,689.824 46.956C689.551 46.956,689.277 46.765,689.277 46.464L689.277 41.648C689.277 41.402,689.031 41.211,688.73 41.211C688.347 41.211,688.1 41.402,688.1 41.648L688.1 46.765C688.046 47.148,687.936 47.668,687.581 47.914C687.115 48.187,685.775 48.735,685.091 48.899C684.763 48.899,684.626 48.434,684.626 48.105L684.626 43.372C684.626 43.153,684.352 42.934,684.079 42.934C683.695 42.934,683.449 43.153,683.449 43.372L683.449 48.707C683.449 49.254,683.203 49.637,682.984 49.747C682.738 49.884,681.944 50.185,681.944 50.185C681.671 50.267,681.479 50.595,681.479 50.814L681.479 53.632C681.479 53.851,681.589 53.988,681.835 53.988L681.917 53.933C681.944 53.933,682.546 53.687,682.847 53.55L682.902 53.495C683.203 53.495,683.449 53.906,683.449 54.207L683.449 58.119C683.449 58.557,683.258 58.912,683.011 59.022C682.793 59.104,681.944 59.46,681.944 59.46C681.671 59.542,681.479 59.843,681.479 60.089L681.479 62.88C681.479 63.126,681.589 63.235,681.835 63.235L681.917 63.208C681.944 63.208,682.492 62.962,682.847 62.852C682.902 62.798,682.929 62.798,682.984 62.798C683.258 62.798,683.449 63.235,683.449 63.427L683.449 68.27C683.449 68.516,683.695 68.707,683.969 68.707C684.352 68.707,684.626 68.516,684.626 68.27L684.626 62.798C684.626 62.278,684.817 62.004,685.036 61.922L687.416 60.937C687.416 60.937,687.471 60.937,687.471 60.937L687.553 60.91C687.909 60.91,688.1 61.375,688.1 61.621L688.1 66.546C688.1 66.792,688.347 66.984,688.62 66.984C689.031 66.984,689.277 66.792,689.277 66.546L689.277 60.937C689.277 60.636,689.441 60.171,689.715 60.034C689.988 59.925,690.809 59.596,690.809 59.596C691.083 59.487,691.302 59.186,691.302 58.94L691.302 56.149C691.302 55.958,691.165 55.821,691.001 55.821C690.946 55.821,690.891 55.821,690.809 55.876L689.797 56.259C689.551 56.259,689.277 56.012,689.277 55.547L689.277 51.881C689.277 51.607,689.468 50.869,689.797 50.732M688.1 56.778C687.854 57.572,686.021 58.338,685.091 58.338C684.872 58.338,684.68 58.283,684.626 58.146C684.544 57.982,684.516 57.134,684.516 56.176C684.516 54.973,684.544 53.577,684.626 53.276C684.708 52.592,686.514 51.772,687.499 51.772C687.772 51.772,688.018 51.854,688.1 52.018C688.183 52.209,688.265 53.194,688.265 54.261C688.265 55.328,688.183 56.423,688.1 56.778"/></g></g><path stroke-width="1" fill="none" stroke-linecap="round" d="M77.35 56L121 88"/><path stroke-width="1" stroke="none" stroke-linecap="round" d="M118.493 80.771L124.149 90L113.624 87.473L118.493 80.771Z"/><text stroke="none" stroke-linecap="round" x="77.35" y="100">Left</text><path stroke-width="2" fill="none" stroke-linecap="round" d="M261.011 75.759L301 68"/><path stroke-width="2" stroke="none" stroke-linecap="round" d="M285.575 59.987L307.259 67L289.642 81.457L285.575 59.987Z"/><path stroke-width="2" stroke="none" stroke-linecap="round" d="M276.144 84.013L254.46 77L272.078 62.543L276.144 84.013Z"/><text stroke="none" stroke-linecap="round" x="276.134" y="100">Right</text><path stroke-width="5" fill="none" stroke-linecap="round" d="M437.57 87L483 62"/><path stroke-width="5" stroke="none" stroke-linecap="round" d="M459.007 60.786L491.257 57L471.13 82.482L459.007 60.786Z"/><text stroke="none" stroke-linecap="round" x="444.318" y="100">Center</text><path stroke-width="1" stroke-dasharray="5,4" fill="none" stroke-linecap="round" d="M639.918 81.552L673.479 77"/><path stroke-width="1" stroke-dasharray="5,4" stroke="none" stroke-linecap="round" d="M647.081 84.761L636.615 82L645.967 76.551L647.081 84.761Z"/><path stroke-width="1" fill="none" stroke="red" stroke-linecap="round" d="M623.956 66.38L670 58"/><path stroke-width="1" fill="red" stroke="none" stroke-linecap="round" d="M662.883 54.791L673.479 57L664.425 62.931L662.883 54.791Z"/><path stroke-width="1" fill="red" stroke="none" stroke-linecap="round" d="M631.277 69.209L620.681 67L629.735 61.069L631.277 69.209Z"/><text fill="red" stroke="none" stroke-linecap="round" x="636.33" y="30">Top</text></svg>