<svg xmlns="http://www.w3.org/2000/svg" stroke-width="0.3" stroke-dasharray="none" fill="black" stroke="black" font-family="Arial, sans-serif" font-size="10pt" font-weight="normal" font-style="normal" width="600" height="350" viewBox="0 0 600 350" style="width: 600px; height: 350px; border: none;"><g class="vf-stave" id="vf-auto8099" stroke-width="1" fill="#999999" stroke="#999999"><path fill="none" d="M10 50L336.362 50"/><path fill="none" d="M10 60L336.362 60"/><path fill="none" d="M10 70L336.362 70"/><path fill="none" d="M10 80L336.362 80"/><path fill="none" d="M10 90L336.362 90"/></g><g class="vf-stavebarline" id="vf-auto8100"/><g class="vf-stavebarline" id="vf-auto8101"><rect x="336.362" y="49.5" width="1" height="41" stroke="none"/></g><g class="vf-clef" id="vf-auto8102"><path stroke="none" d="M29.112 37.837C29.112 37.837,29.141 37.837,29.17 37.837C29.544 37.837,30.034 38.211,30.667 38.96C32.942 41.696,34.44 46.045,34.44 49.731C34.44 49.99,34.44 50.278,34.411 50.538C34.152 54.829,32.28 58.515,28.68 61.942C28.363 62.259,27.902 62.691,27.701 62.864L27.355 63.238L28.075 66.608C28.478 68.48,28.795 70.006,28.795 70.006C28.795 70.006,28.795 70.006,28.795 70.006C28.824 70.006,28.939 69.978,29.026 69.978C29.198 69.949,29.659 69.949,30.12 69.949C30.466 69.949,30.84 69.949,30.984 69.949C35.592 70.525,38.962 74.125,39.278 78.79C39.307 78.992,39.307 79.194,39.307 79.395C39.307 83.254,36.802 86.941,33.029 88.554C32.885 88.611,32.798 88.669,32.798 88.669C32.798 88.669,33 89.677,33.259 90.886C33.518 92.125,33.778 93.306,33.806 93.536C33.979 94.458,34.066 95.322,34.066 96.157C34.066 98.317,33.49 100.131,32.395 101.542C30.754 103.587,28.392 104.624,26.03 104.624C23.726 104.624,21.422 103.674,19.752 101.773C19.061 100.966,18.686 100.016,18.686 99.037C18.686 98.202,18.974 97.338,19.55 96.56C20.386 95.437,21.624 94.89,22.862 94.89C24.014 94.89,25.166 95.379,25.973 96.358C26.549 97.107,26.808 97.942,26.808 98.778C26.808 100.678,25.397 102.493,23.237 102.579L22.978 102.579L23.064 102.637C23.928 103.069,24.936 103.299,25.973 103.299C27.24 103.299,28.565 102.954,29.602 102.291C31.704 100.966,32.741 98.922,32.741 96.157C32.741 95.264,32.626 94.285,32.424 93.248C32.338 92.758,31.531 89.101,31.531 89.101C31.531 89.101,31.531 89.101,31.531 89.101C31.502 89.101,31.358 89.13,31.186 89.158C30.667 89.302,30.12 89.389,29.515 89.446C29.314 89.475,28.91 89.475,28.478 89.475C27.931 89.475,27.384 89.475,27.154 89.446C20.126 88.669,15 82.995,15 75.968C15 72.858,15.893 70.15,17.765 67.558C19.752 64.794,21.768 62.403,24.245 59.898L25.109 59.034L24.734 57.306C24.533 56.326,24.331 55.318,24.245 55.03C23.899 53.389,23.726 52.582,23.669 52.266C23.525 51.373,23.467 50.48,23.467 49.587C23.467 45.469,25.022 41.552,27.902 38.758C28.565 38.125,28.91 37.866,29.112 37.837M31.013 43.482C30.84 43.453,30.696 43.424,30.523 43.424C29.688 43.424,28.68 43.942,27.73 44.893C26.088 46.534,25.195 49.011,25.195 51.718C25.195 52.41,25.253 53.101,25.368 53.821C25.426 54.138,26.203 57.968,26.232 57.968C26.232 57.968,26.232 57.968,26.232 57.968C26.261 57.968,27.182 57.018,27.442 56.73C30.638 53.187,32.453 49.357,32.453 46.362C32.453 45.872,32.395 45.411,32.309 44.95C32.107 44.086,31.733 43.654,31.013 43.482M26.318 64.707C26.29 64.534,26.261 64.39,26.261 64.39C26.146 64.39,23.87 67.04,22.834 68.336C20.702 71.043,19.925 72.31,19.32 74.038C18.888 75.363,18.658 76.688,18.658 77.984C18.658 80.317,19.349 82.534,20.674 84.406C22.517 86.998,25.426 88.496,28.421 88.496C28.91 88.496,29.4 88.467,29.89 88.381C30.408 88.294,31.301 88.064,31.301 88.006C31.301 87.978,30.955 86.394,30.552 84.435C30.12 82.506,29.486 79.51,29.112 77.811C28.766 76.112,28.45 74.701,28.45 74.701C28.45 74.701,28.45 74.701,28.45 74.701C28.334 74.701,27.701 74.96,27.355 75.133C25.598 76.112,24.677 77.84,24.677 79.568C24.677 81.094,25.397 82.592,26.866 83.485C27.154 83.658,27.298 83.859,27.298 84.09C27.298 84.205,27.24 84.349,27.125 84.464C27.038 84.579,26.923 84.666,26.75 84.666C26.549 84.666,26.29 84.55,25.858 84.32C23.237 82.966,21.912 80.403,21.912 77.782C21.912 75.334,23.093 72.858,25.454 71.302C26.059 70.899,27.269 70.323,27.499 70.323C27.499 70.323,27.528 70.294,27.528 70.294C27.528 70.266,27.528 70.266,27.528 70.266C27.499 70.208,26.434 65.197,26.318 64.707M30.725 74.499C30.581 74.499,30.293 74.47,30.12 74.47L29.746 74.47L29.774 74.528C29.774 74.557,30.293 77.034,30.955 80.029C31.589 83.024,32.136 85.616,32.165 85.789C32.222 85.962,32.309 86.422,32.395 86.797L32.539 87.488L32.626 87.43C34.21 86.538,35.362 85.27,35.995 83.715C36.37 82.851,36.542 81.987,36.542 81.123C36.542 77.869,34.152 74.902,30.725 74.499"/></g><g class="vf-stave" id="vf-auto8140" stroke-width="1" fill="#999999" stroke="#999999"><path fill="none" d="M10 170L336.362 170"/><path fill="none" d="M10 180L336.362 180"/><path fill="none" d="M10 190L336.362 190"/><path fill="none" d="M10 200L336.362 200"/><path fill="none" d="M10 210L336.362 210"/></g><g class="vf-stavebarline" id="vf-auto8141"/><g class="vf-stavebarline" id="vf-auto8142"><rect x="336.362" y="169.5" width="1" height="41" stroke="none"/></g><g class="vf-clef" id="vf-auto8143"><path stroke="none" d="M23.813 170.15C24.101 170.122,24.36 170.122,24.648 170.122C27.557 170.122,30.552 171.014,32.51 172.483C35.045 174.384,36.341 176.976,36.341 180.058C36.341 180.49,36.312 180.922,36.254 181.382C35.304 189.619,28.536 197.165,19.349 200.218C17.995 200.678,15.835 201.226,15.432 201.226C15.173 201.226,15 201.053,15 200.794C15 200.506,15.058 200.448,15.662 200.218C24.562 196.906,30.581 189.878,31.272 181.958C31.301 181.382,31.33 180.806,31.33 180.259C31.33 176.4,30.062 173.434,27.701 171.936C26.693 171.302,25.541 171.014,24.36 171.014C21.71 171.014,18.946 172.512,17.707 174.989C17.621 175.162,17.419 175.622,17.419 175.651C17.419 175.651,17.419 175.651,17.419 175.651C17.419 175.651,17.506 175.622,17.592 175.565C18.197 175.162,18.888 174.989,19.579 174.989C21.278 174.989,22.92 176.141,23.323 177.984C23.41 178.272,23.438 178.56,23.438 178.848C23.438 180.979,21.71 182.736,19.522 182.736C19.349 182.736,19.147 182.707,18.974 182.678C16.757 182.39,15.23 180.403,15.23 177.84L15.23 177.84C15.23 173.837,19.003 170.438,23.813 170.15M39.048 173.923C39.077 173.923,39.134 173.894,39.192 173.894C39.394 173.894,39.653 173.923,39.739 173.981C40.43 174.211,40.776 174.787,40.776 175.392C40.776 175.968,40.43 176.573,39.739 176.803C39.624 176.832,39.451 176.861,39.307 176.861C39.134 176.861,38.962 176.832,38.846 176.803C38.155 176.573,37.838 175.968,37.838 175.392C37.838 174.73,38.242 174.067,39.048 173.923M39.048 183.139C39.077 183.139,39.134 183.139,39.192 183.139C39.394 183.139,39.653 183.168,39.739 183.197C40.43 183.427,40.776 184.032,40.776 184.608C40.776 185.213,40.43 185.818,39.739 186.019C39.624 186.077,39.451 186.077,39.307 186.077C39.134 186.077,38.962 186.077,38.846 186.019C38.155 185.789,37.838 185.213,37.838 184.608C37.838 183.974,38.242 183.312,39.048 183.139"/></g><g class="vf-stavenote" id="vf-auto8046"><g class="vf-stem" id="vf-auto8047" pointer-events="bounding-box"><path stroke-width="1.5" fill="none" d="M120.361 81.5L120.361 130"/></g><g class="vf-notehead" id="vf-auto8056" pointer-events="bounding-box"><path stroke="none" d="M115.475 89.889C115.559 89.889,115.644 89.889,115.784 89.889C116.149 89.889,116.683 89.918,116.879 89.946C119.21 90.283,120.361 91.827,120.361 93.624C120.361 95.534,119.069 97.724,116.486 99.128C115.222 99.802,113.931 100.111,112.751 100.111C110.589 100.111,108.82 99.044,108.455 97.162C108.399 96.881,108.371 96.629,108.371 96.376C108.371 93.343,111.628 90.283,115.475 89.889"/><path stroke="none" d="M108.03 102.048C106.654 100.981,106.176 100.391,105.727 99.072C105.306 97.92,105.109 96.629,105.109 94.916C105.109 91.715,105.558 90.03,108.03 87.952L107.861 87.671C105.193 89.496,103.621 91.574,103.621 94.972C103.621 98.117,105.25 100.672,107.833 102.329"/><path stroke="none" d="M133.394 102.329C135.977 100.7,137.55 98.061,137.55 94.972C137.55 91.602,135.977 89.412,133.31 87.671L133.141 87.952C135.64 89.974,136.09 91.715,136.09 94.916C136.09 96.629,135.893 97.92,135.5 99.072C134.994 100.391,134.517 100.981,133.141 102.048"/></g><g class="vf-notehead" id="vf-auto8055" pointer-events="bounding-box"><path stroke="none" d="M126.715 84.889C126.8 84.889,126.884 84.889,127.024 84.889C127.389 84.889,127.923 84.918,128.119 84.946C130.45 85.283,131.601 86.827,131.601 88.624C131.601 90.534,130.31 92.724,127.726 94.128C126.463 94.802,125.171 95.111,123.992 95.111C121.829 95.111,120.06 94.044,119.695 92.162C119.639 91.881,119.611 91.629,119.611 91.376C119.611 88.343,122.868 85.283,126.715 84.889"/><path stroke="none" d="M108.03 97.048C106.654 95.981,106.176 95.391,105.727 94.072C105.306 92.92,105.109 91.629,105.109 89.916C105.109 86.715,105.558 85.03,108.03 82.952L107.861 82.671C105.193 84.496,103.621 86.574,103.621 89.972C103.621 93.117,105.25 95.672,107.833 97.329"/><path stroke="none" d="M133.394 97.329C135.977 95.7,137.55 93.061,137.55 89.972C137.55 86.602,135.977 84.412,133.31 82.671L133.141 82.952C135.64 84.974,136.09 86.715,136.09 89.916C136.09 91.629,135.893 92.92,135.5 94.072C134.994 95.391,134.517 95.981,133.141 97.048"/></g><g class="vf-notehead" id="vf-auto8054" pointer-events="bounding-box"><path stroke="none" d="M126.715 74.889C126.8 74.889,126.884 74.889,127.024 74.889C127.389 74.889,127.923 74.918,128.119 74.946C130.45 75.283,131.601 76.827,131.601 78.624C131.601 80.534,130.31 82.724,127.726 84.128C126.463 84.802,125.171 85.111,123.992 85.111C121.829 85.111,120.06 84.044,119.695 82.162C119.639 81.881,119.611 81.629,119.611 81.376C119.611 78.343,122.868 75.283,126.715 74.889"/><path stroke="none" d="M120.02 87.048C118.644 85.981,118.166 85.391,117.717 84.072C117.296 82.92,117.099 81.629,117.099 79.916C117.099 76.715,117.549 75.03,120.02 72.952L119.851 72.671C117.184 74.496,115.611 76.574,115.611 79.972C115.611 83.117,117.24 85.672,119.823 87.329"/><path stroke="none" d="M133.394 87.329C135.977 85.7,137.55 83.061,137.55 79.972C137.55 76.602,135.977 74.412,133.31 72.671L133.141 72.952C135.64 74.974,136.09 76.715,136.09 79.916C136.09 81.629,135.893 82.92,135.5 84.072C134.994 85.391,134.517 85.981,133.141 87.048"/></g></g><g class="vf-stavenote" id="vf-auto8057"><path stroke-width="1.4" fill="none" stroke="#444" d="M174.582 100L192.572 100"/><g class="vf-stem" id="vf-auto8058" pointer-events="bounding-box"><path stroke-width="1.5" fill="none" d="M178.332 101.5L178.332 135"/></g><g class="vf-notehead" id="vf-auto8061" pointer-events="bounding-box"><path stroke="none" d="M184.686 94.889C184.77 94.889,184.854 94.889,184.995 94.889C185.36 94.889,185.893 94.918,186.09 94.946C188.42 95.283,189.572 96.827,189.572 98.624C189.572 100.534,188.28 102.724,185.697 104.128C184.433 104.802,183.141 105.111,181.962 105.111C179.8 105.111,178.031 104.044,177.666 102.162C177.61 101.881,177.582 101.629,177.582 101.376C177.582 98.343,180.839 95.283,184.686 94.889"/></g></g><g class="vf-stavenote" id="vf-auto8062"><g class="vf-notehead" id="vf-auto8066" pointer-events="bounding-box"><path stroke="none" d="M236.07 86.157C236.127 86.128,236.183 86.128,236.239 86.128C236.379 86.128,236.52 86.213,236.716 86.381C236.8 86.465,237.081 86.69,237.306 86.887C237.502 87.083,237.783 87.308,237.868 87.392C238.513 87.954,238.794 88.206,239.524 88.824C242.725 91.632,242.95 91.801,242.95 91.969C242.95 91.969,242.95 91.997,242.95 92.025C242.95 92.053,242.95 92.081,242.95 92.11C242.95 92.222,242.922 92.222,242.613 92.671C241.827 93.85,241.209 95.226,240.928 96.518C240.732 97.36,240.619 98.175,240.619 98.989C240.619 101.207,241.378 103.229,242.81 104.689C243.147 104.998,243.175 105.054,243.175 105.223C243.175 105.504,243.006 105.644,242.753 105.644C242.641 105.644,242.529 105.616,242.416 105.588C242.164 105.532,241.883 105.476,241.63 105.476C240.591 105.476,239.524 105.981,238.822 106.852C238.261 107.582,237.98 108.452,237.98 109.323C237.98 110.558,238.541 111.878,239.637 112.945C239.833 113.141,239.945 113.31,239.945 113.478C239.945 113.563,239.889 113.647,239.805 113.759C239.721 113.815,239.637 113.872,239.524 113.872C239.328 113.872,239.019 113.647,238.345 113.085C236.014 111.092,234.751 108.986,234.751 107.132L234.751 107.132L234.751 106.655L234.807 106.43C235.256 104.802,236.829 103.847,238.906 103.847C239.412 103.847,239.945 103.903,240.479 104.015L240.76 104.072L240.704 104.015C240.647 103.959,239.187 102.668,238.036 101.629C235.368 99.27,235.256 99.186,235.256 99.017C235.256 98.989,235.256 98.989,235.256 98.961L235.256 98.933C235.256 98.764,235.256 98.764,235.509 98.456C237.053 96.378,237.839 93.935,237.839 91.744C237.839 89.919,237.278 88.234,236.155 87.083C235.846 86.802,235.818 86.746,235.818 86.578C235.818 86.381,235.902 86.241,236.07 86.157"/></g></g><g class="vf-stavenote" id="vf-auto8067"><path stroke-width="1.4" fill="none" stroke="#444" d="M302.91 100L320.9 100"/><g class="vf-stem" id="vf-auto8068" pointer-events="bounding-box"><path stroke-width="1.5" fill="none" d="M306.66 101.5L306.66 135"/></g><g class="vf-notehead" id="vf-auto8071" pointer-events="bounding-box"><path stroke="none" d="M313.014 94.889C313.098 94.889,313.183 94.889,313.323 94.889C313.688 94.889,314.222 94.918,314.418 94.946C316.749 95.283,317.9 96.827,317.9 98.624C317.9 100.534,316.608 102.724,314.025 104.128C312.761 104.802,311.47 105.111,310.29 105.111C308.128 105.111,306.359 104.044,305.994 102.162C305.938 101.881,305.91 101.629,305.91 101.376C305.91 98.343,309.167 95.283,313.014 94.889"/><path stroke="none" d="M306.318 107.048C304.942 105.981,304.465 105.391,304.016 104.072C303.595 102.92,303.398 101.629,303.398 99.916C303.398 96.715,303.847 95.03,306.318 92.952L306.15 92.671C303.482 94.496,301.91 96.574,301.91 99.972C301.91 103.117,303.538 105.672,306.122 107.329"/><path stroke="none" d="M319.693 107.329C322.276 105.7,323.848 103.061,323.848 99.972C323.848 96.602,322.276 94.412,319.608 92.671L319.44 92.952C321.939 94.974,322.388 96.715,322.388 99.916C322.388 101.629,322.192 102.92,321.799 104.072C321.293 105.391,320.816 105.981,319.44 107.048"/></g></g><g class="vf-stavenote" id="vf-auto8080"><g class="vf-stem" id="vf-auto8081" pointer-events="bounding-box"><path stroke-width="1.5" fill="none" d="M94.381 66.5L94.381 100"/></g><g class="vf-notehead" id="vf-auto8084" pointer-events="bounding-box"><path stroke="none" d="M100.735 59.889C100.819 59.889,100.904 59.889,101.044 59.889C101.409 59.889,101.942 59.918,102.139 59.946C104.47 60.283,105.621 61.827,105.621 63.624C105.621 65.534,104.329 67.724,101.746 69.128C100.482 69.802,99.191 70.111,98.011 70.111C95.849 70.111,94.08 69.044,93.715 67.162C93.659 66.881,93.631 66.629,93.631 66.376C93.631 63.343,96.888 60.283,100.735 59.889M103.88 61.35C103.74 61.293,103.599 61.293,103.431 61.293C101.718 61.293,98.208 63.371,96.242 65.674C95.4 66.657,94.951 67.527,94.951 68.061C94.951 68.313,95.035 68.482,95.203 68.566C95.372 68.678,95.596 68.707,95.821 68.707C97.646 68.707,101.437 66.376,103.318 63.961C103.992 63.119,104.329 62.417,104.329 61.967C104.329 61.658,104.161 61.434,103.88 61.35"/><path stroke="none" d="M80.731 50.691C80.785 50.663,80.867 50.636,80.95 50.636C81.168 50.636,81.387 50.773,81.469 50.992C81.497 51.101,81.497 51.128,81.497 54.603C81.497 57.859,81.497 58.078,81.551 58.078C81.551 58.078,81.551 58.078,81.551 58.078C81.852 57.996,82.974 57.75,83.056 57.75C83.302 57.75,83.494 57.886,83.576 58.078C83.603 58.16,83.631 58.789,83.631 59.419C83.631 60.048,83.603 60.677,83.576 60.759C83.494 61.033,83.439 61.033,82.345 61.306L81.497 61.525L81.497 64.425C81.497 67.134,81.497 67.353,81.524 67.353C81.551 67.353,81.551 67.353,81.551 67.353C81.852 67.244,82.974 66.997,83.056 66.997C83.22 66.997,83.33 67.052,83.467 67.161C83.603 67.326,83.603 67.271,83.603 68.311C83.603 68.42,83.603 68.557,83.603 68.694C83.603 68.83,83.603 68.94,83.603 69.049C83.603 70.116,83.603 70.062,83.467 70.198C83.33 70.335,83.33 70.335,82.345 70.581L81.497 70.773L81.497 74.33C81.497 77.832,81.497 77.859,81.469 77.941C81.387 78.188,81.168 78.297,80.95 78.297C80.813 78.297,80.649 78.242,80.539 78.133C80.402 77.996,80.375 78.242,80.375 76.053C80.375 75.616,80.375 75.096,80.375 74.467C80.375 72.579,80.375 71.047,80.375 71.047C80.375 71.047,79.828 71.183,79.171 71.348C78.487 71.512,77.94 71.648,77.94 71.648C77.94 71.648,77.94 73.29,77.94 75.287C77.94 78.872,77.94 78.899,77.885 79.008C77.803 79.227,77.584 79.364,77.365 79.364C77.229 79.364,77.064 79.309,76.955 79.2C76.818 79.036,76.818 79.282,76.818 77.066C76.818 76.628,76.818 76.081,76.818 75.424C76.818 72.168,76.818 71.949,76.791 71.949C76.791 71.949,76.791 71.949,76.763 71.949C76.435 72.032,75.423 72.25,75.341 72.25C75.094 72.25,74.876 72.114,74.794 71.922C74.766 71.84,74.766 71.211,74.766 70.581C74.766 69.952,74.766 69.323,74.794 69.241C74.903 68.995,74.958 68.967,75.997 68.694L76.818 68.502L76.818 65.575C76.818 62.866,76.818 62.674,76.791 62.674C76.791 62.674,76.791 62.674,76.763 62.674C76.435 62.756,75.423 63.003,75.341 63.003C75.094 63.003,74.876 62.866,74.794 62.647C74.766 62.592,74.766 61.936,74.766 61.306C74.766 60.677,74.766 60.048,74.794 59.966C74.903 59.72,74.958 59.692,75.997 59.446L76.818 59.254L76.818 55.698C76.818 52.168,76.818 52.141,76.846 52.059C76.928 51.812,77.146 51.703,77.365 51.703C77.502 51.703,77.666 51.758,77.776 51.867C77.913 52.004,77.94 51.758,77.94 53.947C77.94 54.384,77.94 54.904,77.94 55.561C77.94 57.421,77.94 58.953,77.94 58.953C77.94 58.953,78.487 58.817,79.144 58.68C79.828 58.516,80.375 58.379,80.375 58.379C80.375 58.379,80.375 56.737,80.375 54.74C80.375 51.128,80.375 51.101,80.43 50.992C80.457 50.882,80.594 50.745,80.731 50.691M80.375 64.699C80.375 62.401,80.375 61.799,80.375 61.799L80.375 61.799C80.348 61.799,80.156 61.826,79.937 61.908C79.718 61.963,79.171 62.072,78.733 62.182L77.94 62.401L77.94 65.301C77.94 66.915,77.94 68.228,77.94 68.228C77.94 68.228,78.487 68.092,79.144 67.928C79.828 67.763,80.375 67.627,80.375 67.627C80.375 67.627,80.375 66.313,80.375 64.699"/><path stroke="none" d="M119.621 65 A2 2 0 0 0 115.621 65 A2 2 0 0 0 119.621 65"/><path stroke="none" d="M94.039 72.048C92.663 70.981,92.186 70.391,91.737 69.072C91.316 67.92,91.119 66.629,91.119 64.916C91.119 61.715,91.568 60.03,94.039 57.952L93.871 57.671C91.203 59.496,89.631 61.574,89.631 64.972C89.631 68.117,91.259 70.672,93.843 72.329"/><path stroke="none" d="M107.414 72.329C109.997 70.7,111.569 68.061,111.569 64.972C111.569 61.602,109.997 59.412,107.329 57.671L107.161 57.952C109.66 59.974,110.109 61.715,110.109 64.916C110.109 66.629,109.913 67.92,109.52 69.072C109.014 70.391,108.537 70.981,107.161 72.048"/></g></g><g class="vf-stavenote" id="vf-auto8088"><g class="vf-stem" id="vf-auto8089" pointer-events="bounding-box"><path stroke-width="1.5" fill="none" d="M292.67 66.5L292.67 100"/></g><g class="vf-notehead" id="vf-auto8092" pointer-events="bounding-box"><path stroke="none" d="M299.024 59.889C299.108 59.889,299.192 59.889,299.333 59.889C299.698 59.889,300.231 59.918,300.428 59.946C302.759 60.283,303.91 61.827,303.91 63.624C303.91 65.534,302.618 67.724,300.035 69.128C298.771 69.802,297.48 70.111,296.3 70.111C294.138 70.111,292.369 69.044,292.004 67.162C291.948 66.881,291.92 66.629,291.92 66.376C291.92 63.343,295.177 60.283,299.024 59.889"/><path stroke="none" d="M292.328 72.048C290.952 70.981,290.475 70.391,290.026 69.072C289.604 67.92,289.408 66.629,289.408 64.916C289.408 61.715,289.857 60.03,292.328 57.952L292.16 57.671C289.492 59.496,287.92 61.574,287.92 64.972C287.92 68.117,289.548 70.672,292.132 72.329"/><path stroke="none" d="M305.702 72.329C308.286 70.7,309.858 68.061,309.858 64.972C309.858 61.602,308.286 59.412,305.618 57.671L305.45 57.952C307.949 59.974,308.398 61.715,308.398 64.916C308.398 66.629,308.202 67.92,307.808 69.072C307.303 70.391,306.826 70.981,305.45 72.048"/></g></g><g class="vf-stavenote" id="vf-auto8103"><path stroke-width="1.4" fill="none" stroke="#444" d="M90.631 220L108.621 220"/><path stroke-width="1.4" fill="none" stroke="#444" d="M90.631 230L108.621 230"/><path stroke-width="1.4" fill="none" stroke="#444" d="M90.631 240L108.621 240"/><path stroke-width="1.4" fill="none" stroke="#444" d="M90.631 250L108.621 250"/><g class="vf-stem" id="vf-auto8104" pointer-events="bounding-box"><path stroke-width="1.5" fill="none" d="M94.381 256.5L94.381 290"/></g><g class="vf-notehead" id="vf-auto8107" pointer-events="bounding-box"><path stroke="none" d="M100.735 249.889C100.819 249.889,100.904 249.889,101.044 249.889C101.409 249.889,101.942 249.918,102.139 249.946C104.47 250.283,105.621 251.827,105.621 253.624C105.621 255.534,104.329 257.724,101.746 259.128C100.482 259.802,99.191 260.111,98.011 260.111C95.849 260.111,94.08 259.044,93.715 257.162C93.659 256.881,93.631 256.629,93.631 256.376C93.631 253.343,96.888 250.283,100.735 249.889"/><path stroke="none" d="M80.731 240.691C80.785 240.663,80.867 240.636,80.95 240.636C81.168 240.636,81.387 240.773,81.469 240.992C81.497 241.101,81.497 241.128,81.497 244.603C81.497 247.859,81.497 248.078,81.551 248.078C81.551 248.078,81.551 248.078,81.551 248.078C81.852 247.996,82.974 247.75,83.056 247.75C83.302 247.75,83.494 247.886,83.576 248.078C83.603 248.16,83.631 248.789,83.631 249.419C83.631 250.048,83.603 250.677,83.576 250.759C83.494 251.033,83.439 251.033,82.345 251.306L81.497 251.525L81.497 254.425C81.497 257.134,81.497 257.353,81.524 257.353C81.551 257.353,81.551 257.353,81.551 257.353C81.852 257.244,82.974 256.997,83.056 256.997C83.22 256.997,83.33 257.052,83.467 257.161C83.603 257.326,83.603 257.271,83.603 258.311C83.603 258.42,83.603 258.557,83.603 258.694C83.603 258.83,83.603 258.94,83.603 259.049C83.603 260.116,83.603 260.062,83.467 260.198C83.33 260.335,83.33 260.335,82.345 260.581L81.497 260.773L81.497 264.33C81.497 267.832,81.497 267.859,81.469 267.941C81.387 268.188,81.168 268.297,80.95 268.297C80.813 268.297,80.649 268.242,80.539 268.133C80.402 267.996,80.375 268.242,80.375 266.053C80.375 265.616,80.375 265.096,80.375 264.467C80.375 262.579,80.375 261.047,80.375 261.047C80.375 261.047,79.828 261.183,79.171 261.348C78.487 261.512,77.94 261.648,77.94 261.648C77.94 261.648,77.94 263.29,77.94 265.287C77.94 268.872,77.94 268.899,77.885 269.008C77.803 269.227,77.584 269.364,77.365 269.364C77.229 269.364,77.064 269.309,76.955 269.2C76.818 269.036,76.818 269.282,76.818 267.066C76.818 266.628,76.818 266.081,76.818 265.424C76.818 262.168,76.818 261.949,76.791 261.949C76.791 261.949,76.791 261.949,76.763 261.949C76.435 262.032,75.423 262.25,75.341 262.25C75.094 262.25,74.876 262.114,74.794 261.922C74.766 261.84,74.766 261.211,74.766 260.581C74.766 259.952,74.766 259.323,74.794 259.241C74.903 258.995,74.958 258.967,75.997 258.694L76.818 258.502L76.818 255.575C76.818 252.866,76.818 252.674,76.791 252.674C76.791 252.674,76.791 252.674,76.763 252.674C76.435 252.756,75.423 253.003,75.341 253.003C75.094 253.003,74.876 252.866,74.794 252.647C74.766 252.592,74.766 251.936,74.766 251.306C74.766 250.677,74.766 250.048,74.794 249.966C74.903 249.72,74.958 249.692,75.997 249.446L76.818 249.254L76.818 245.698C76.818 242.168,76.818 242.141,76.846 242.059C76.928 241.812,77.146 241.703,77.365 241.703C77.502 241.703,77.666 241.758,77.776 241.867C77.913 242.004,77.94 241.758,77.94 243.947C77.94 244.384,77.94 244.904,77.94 245.561C77.94 247.421,77.94 248.953,77.94 248.953C77.94 248.953,78.487 248.817,79.144 248.68C79.828 248.516,80.375 248.379,80.375 248.379C80.375 248.379,80.375 246.737,80.375 244.74C80.375 241.128,80.375 241.101,80.43 240.992C80.457 240.882,80.594 240.745,80.731 240.691M80.375 254.699C80.375 252.401,80.375 251.799,80.375 251.799L80.375 251.799C80.348 251.799,80.156 251.826,79.937 251.908C79.718 251.963,79.171 252.072,78.733 252.182L77.94 252.401L77.94 255.301C77.94 256.915,77.94 258.228,77.94 258.228C77.94 258.228,78.487 258.092,79.144 257.928C79.828 257.763,80.375 257.627,80.375 257.627C80.375 257.627,80.375 256.313,80.375 254.699"/><path stroke="none" d="M94.039 262.048C92.663 260.981,92.186 260.391,91.737 259.072C91.316 257.92,91.119 256.629,91.119 254.916C91.119 251.715,91.568 250.03,94.039 247.952L93.871 247.671C91.203 249.496,89.631 251.574,89.631 254.972C89.631 258.117,91.259 260.672,93.843 262.329"/><path stroke="none" d="M107.414 262.329C109.997 260.7,111.569 258.061,111.569 254.972C111.569 251.602,109.997 249.412,107.329 247.671L107.161 247.952C109.66 249.974,110.109 251.715,110.109 254.916C110.109 256.629,109.913 257.92,109.52 259.072C109.014 260.391,108.537 260.981,107.161 262.048"/></g></g><g class="vf-stavenote" id="vf-auto8110"><path stroke-width="1.4" fill="none" stroke="#444" d="M174.582 220L192.572 220"/><path stroke-width="1.4" fill="none" stroke="#444" d="M174.582 230L192.572 230"/><path stroke-width="1.4" fill="none" stroke="#444" d="M174.582 240L192.572 240"/><path stroke-width="1.4" fill="none" stroke="#444" d="M174.582 250L192.572 250"/><g class="vf-stem" id="vf-auto8111" pointer-events="bounding-box"><path stroke-width="1.5" fill="none" d="M178.332 256.5L178.332 290"/></g><g class="vf-notehead" id="vf-auto8114" pointer-events="bounding-box"><path stroke="none" d="M184.686 249.889C184.77 249.889,184.854 249.889,184.995 249.889C185.36 249.889,185.893 249.918,186.09 249.946C188.42 250.283,189.572 251.827,189.572 253.624C189.572 255.534,188.28 257.724,185.697 259.128C184.433 259.802,183.141 260.111,181.962 260.111C179.8 260.111,178.031 259.044,177.666 257.162C177.61 256.881,177.582 256.629,177.582 256.376C177.582 253.343,180.839 250.283,184.686 249.889"/><path stroke="none" d="M161.371 242.688C161.453 242.661,161.535 242.661,161.59 242.661C161.836 242.661,162.055 242.77,162.137 242.989C162.164 243.098,162.164 243.126,162.164 246.3C162.164 248.57,162.164 249.501,162.192 249.501C162.192 249.501,163.259 249.227,164.545 248.926C166.432 248.461,166.87 248.324,167.062 248.324C167.144 248.324,167.171 248.352,167.226 248.379C167.363 248.406,167.5 248.543,167.527 248.68L167.582 248.762L167.582 257.845L167.582 266.902L167.527 267.011C167.445 267.23,167.226 267.339,167.007 267.339C166.87 267.339,166.706 267.312,166.597 267.203C166.46 267.038,166.432 267.285,166.432 265.068C166.432 264.685,166.432 264.22,166.432 263.646C166.432 261.293,166.432 260.363,166.432 260.363C166.405 260.363,165.338 260.636,164.052 260.937C162.192 261.402,161.727 261.512,161.535 261.512C161.48 261.512,161.426 261.512,161.398 261.484C161.261 261.457,161.125 261.32,161.07 261.183L161.043 261.074L161.043 252.1L161.043 243.098L161.07 242.989C161.125 242.88,161.261 242.743,161.371 242.688M166.432 254.398C166.432 253.851,166.432 253.44,166.432 253.085C166.432 251.963,166.432 251.881,166.405 251.881L166.405 251.881C166.405 251.881,165.448 252.127,164.271 252.401L162.164 252.921L162.164 255.465C162.164 255.903,162.164 256.286,162.164 256.587C162.164 257.681,162.164 257.982,162.192 257.982C162.192 257.982,163.149 257.736,164.326 257.462L166.432 256.943"/><path stroke="none" d="M177.99 262.048C176.614 260.981,176.137 260.391,175.688 259.072C175.266 257.92,175.07 256.629,175.07 254.916C175.07 251.715,175.519 250.03,177.99 247.952L177.822 247.671C175.154 249.496,173.582 251.574,173.582 254.972C173.582 258.117,175.21 260.672,177.794 262.329"/><path stroke="none" d="M191.364 262.329C193.948 260.7,195.52 258.061,195.52 254.972C195.52 251.602,193.948 249.412,191.28 247.671L191.112 247.952C193.611 249.974,194.06 251.715,194.06 254.916C194.06 256.629,193.863 257.92,193.47 259.072C192.965 260.391,192.488 260.981,191.112 262.048"/></g></g><g class="vf-stavenote" id="vf-auto8117"><path stroke-width="1.4" fill="none" stroke="#444" d="M231.751 220L249.741 220"/><g class="vf-stem" id="vf-auto8118" pointer-events="bounding-box"><path stroke-width="1.5" fill="none" d="M235.501 226.5L235.501 260"/></g><g class="vf-notehead" id="vf-auto8121" pointer-events="bounding-box"><path stroke="none" d="M241.855 219.889C241.939 219.889,242.023 219.889,242.164 219.889C242.529 219.889,243.062 219.918,243.259 219.946C245.59 220.283,246.741 221.827,246.741 223.624C246.741 225.534,245.449 227.724,242.866 229.128C241.602 229.802,240.31 230.111,239.131 230.111C236.969 230.111,235.2 229.044,234.835 227.162C234.779 226.881,234.751 226.629,234.751 226.376C234.751 223.343,238.008 220.283,241.855 219.889"/><path stroke="none" d="M217.664 208.119C217.719 208.092,217.801 208.092,217.883 208.092C218.102 208.092,218.321 208.228,218.403 208.447C218.458 208.529,218.458 208.529,218.458 214.767L218.458 221.005L218.513 220.951C219.525 220.103,220.592 219.637,221.659 219.637C222.069 219.637,222.48 219.72,222.863 219.856C224.067 220.294,224.751 221.388,224.751 222.729C224.751 223.44,224.532 224.207,224.121 224.973C223.547 226.04,222.781 226.888,220.619 228.803C219.47 229.843,219.197 230.089,218.54 230.718C218.157 231.074,218.102 231.101,217.883 231.101C217.637 231.101,217.446 230.964,217.363 230.773L217.309 230.664L217.309 219.61L217.309 208.529L217.363 208.447C217.391 208.31,217.528 208.174,217.664 208.119M220.948 221.471C220.838 221.443,220.619 221.416,220.482 221.416C220.428 221.416,220.4 221.416,220.373 221.443C219.662 221.525,219.032 221.963,218.567 222.647L218.458 222.839L218.458 225.985L218.458 229.159L218.54 229.049C220.537 226.86,221.823 224.371,221.823 222.729C221.823 222.565,221.823 222.401,221.796 222.264C221.714 221.881,221.385 221.553,220.948 221.471"/><path stroke="none" d="M235.159 232.048C233.783 230.981,233.306 230.391,232.857 229.072C232.435 227.92,232.239 226.629,232.239 224.916C232.239 221.715,232.688 220.03,235.159 217.952L234.991 217.671C232.323 219.496,230.751 221.574,230.751 224.972C230.751 228.117,232.379 230.672,234.963 232.329"/><path stroke="none" d="M248.533 232.329C251.117 230.7,252.689 228.061,252.689 224.972C252.689 221.602,251.117 219.412,248.449 217.671L248.281 217.952C250.78 219.974,251.229 221.715,251.229 224.916C251.229 226.629,251.032 227.92,250.639 229.072C250.134 230.391,249.657 230.981,248.281 232.048"/></g></g><g class="vf-stavenote" id="vf-auto8124"><path stroke-width="1.4" fill="none" stroke="#444" d="M288.92 220L306.91 220"/><path stroke-width="1.4" fill="none" stroke="#444" d="M288.92 230L306.91 230"/><path stroke-width="1.4" fill="none" stroke="#444" d="M288.92 240L306.91 240"/><path stroke-width="1.4" fill="none" stroke="#444" d="M288.92 250L306.91 250"/><g class="vf-stem" id="vf-auto8125" pointer-events="bounding-box"><path stroke-width="1.5" fill="none" d="M292.67 251.5L292.67 285"/></g><g class="vf-notehead" id="vf-auto8128" pointer-events="bounding-box"><path stroke="none" d="M299.024 244.889C299.108 244.889,299.192 244.889,299.333 244.889C299.698 244.889,300.231 244.918,300.428 244.946C302.759 245.283,303.91 246.827,303.91 248.624C303.91 250.534,302.618 252.724,300.035 254.128C298.771 254.802,297.48 255.111,296.3 255.111C294.138 255.111,292.369 254.044,292.004 252.162C291.948 251.881,291.92 251.629,291.92 251.376C291.92 248.343,295.177 245.283,299.024 244.889"/><path stroke="none" d="M271.879 246.662L271.879 244.993L273.575 244.993L275.244 244.993L275.244 246.252L275.244 247.538L276.065 248.358L276.885 249.179L277.734 248.358L278.554 247.538L278.554 246.252L278.554 244.993L280.223 244.993L281.92 244.993L281.92 246.662L281.92 248.358L280.634 248.358L279.348 248.358L278.527 249.179L277.706 250L278.527 250.821L279.348 251.642L280.634 251.642L281.92 251.642L281.92 253.338L281.92 255.007L280.223 255.007L278.554 255.007L278.554 253.748L278.554 252.462L277.734 251.642L276.885 250.821L276.065 251.642L275.244 252.462L275.244 253.748L275.244 255.007L273.575 255.007L271.879 255.007L271.879 253.338L271.879 251.642L273.164 251.642L274.423 251.642L275.244 250.821L276.092 250L275.244 249.179L274.423 248.358L273.164 248.358L271.879 248.358"/><path stroke="none" d="M292.328 257.048C290.952 255.981,290.475 255.391,290.026 254.072C289.604 252.92,289.408 251.629,289.408 249.916C289.408 246.715,289.857 245.03,292.328 242.952L292.16 242.671C289.492 244.496,287.92 246.574,287.92 249.972C287.92 253.117,289.548 255.672,292.132 257.329"/><path stroke="none" d="M305.702 257.329C308.286 255.7,309.858 253.061,309.858 249.972C309.858 246.602,308.286 244.412,305.618 242.671L305.45 242.952C307.949 244.974,308.398 246.715,308.398 249.916C308.398 251.629,308.202 252.92,307.808 254.072C307.303 255.391,306.826 255.981,305.45 257.048"/></g></g><path stroke="none" d="M20.408 38.413C20.552 38.298,20.696 38.24,20.782 38.24C20.869 38.24,20.926 38.269,20.984 38.384C21.042 38.442,21.042 38.47,21.042 38.528C21.042 38.643,20.955 38.758,20.667 39.104C18.997 41.005,17.154 42.704,15.426 43.914C15.282 44.029,15.109 44.144,15.08 44.173C14.187 44.835,12.718 45.67,11.595 46.189C9.55 47.11,7.39 47.629,5.576 47.629C5.173 47.629,5.115 47.6,5.058 47.485C5.029 47.427,5 46.534,5 45.67C5 44.778,5.029 43.885,5.058 43.827C5.144 43.712,5.144 43.712,5.778 43.683C10.674 43.568,15.714 41.754,20.408 38.413"/><path stroke="none" d="M5.144 213.429C5.173 213.4,5.346 213.371,5.576 213.371C5.864 213.371,6.267 213.4,6.699 213.458C9.176 213.717,11.739 214.667,14.245 216.28C14.562 216.482,15.339 217,15.512 217.115C15.541 217.144,15.685 217.259,15.829 217.374C17.442 218.584,19.112 220.168,20.638 221.896C20.926 222.242,21.042 222.357,21.042 222.472C21.042 222.53,21.013 222.558,20.984 222.616C20.926 222.731,20.869 222.76,20.782 222.76C20.667 222.76,20.552 222.702,20.379 222.587C15.714 219.246,10.645 217.432,5.778 217.317C5.144 217.288,5.115 217.288,5.029 217.173C5 217.086,5 217.086,5 215.33C5 215.07,5 214.84,5 214.667C5 213.4,5 213.486,5.144 213.429"/><rect x="5" y="44" width="3" height="173" stroke="none"/></svg>