<svg xmlns="http://www.w3.org/2000/svg" stroke-width="0.3" stroke-dasharray="none" fill="black" stroke="black" font-family="Arial, sans-serif" font-size="10pt" font-weight="normal" font-style="normal" width="420" height="580" viewBox="0 0 420 580" style="width: 420px; height: 580px; border: none;"><g class="vf-stave" id="vf-auto13091" stroke-width="1" fill="#999999" stroke="#999999"><path fill="none" d="M0 50L410 50"/><path fill="none" d="M0 60L410 60"/><path fill="none" d="M0 70L410 70"/><path fill="none" d="M0 80L410 80"/><path fill="none" d="M0 90L410 90"/></g><g class="vf-stavebarline" id="vf-auto13092"><rect y="49.5" width="1" height="41" stroke="none"/></g><g class="vf-stavebarline" id="vf-auto13093"><rect x="410" y="49.5" width="1" height="41" stroke="none"/></g><g class="vf-clef" id="vf-auto13094"><path stroke="none" d="M25.503 81.76C25.503 84.345,24.464 87.032,21.854 88.071C21.093 83.712,20.105 77.908,19.852 76.286C23.146 76.286,25.503 78.516,25.503 81.76M20.333 88.527C19.598 88.654,18.914 88.73,18.204 88.73C12.983 88.73,8.548 85.08,8.548 79.581C8.548 75.12,11.691 71.141,14.884 68.379C15.518 67.821,16.101 67.314,16.633 66.757C16.962 68.734,17.216 70.457,17.469 71.952C14.149 72.941,11.894 76.438,11.894 79.86C11.894 82.419,13.896 85.917,16.836 85.917C17.114 85.917,17.444 85.79,17.444 85.461C17.444 85.131,17.089 84.954,16.633 84.65C15.214 83.762,14.428 82.825,14.428 81.025C14.428 78.82,16.05 77.021,18.204 76.514M17.114 50.993C17.444 49.548,19.117 45.721,21.017 45.721C21.575 45.721,22.437 47.495,22.437 50.004C22.437 53.806,19.623 56.67,17.114 59.128C16.886 57.684,16.709 56.264,16.709 54.718C16.709 53.375,16.836 52.133,17.114 50.993M9.461 99.729C9.461 102.137,11.311 105.305,16.253 105.305C17.951 105.305,19.446 104.874,20.764 104.063C22.741 102.669,23.248 100.261,23.248 97.98C23.248 96.536,23.02 94.914,22.665 92.836C22.563 92.101,22.335 91.011,22.107 89.566C25.681 88.4,28.367 84.675,28.367 80.924C28.367 75.424,24.464 71.699,19.117 71.699C18.762 69.494,18.382 67.34,18.078 65.312C21.93 61.257,24.591 56.695,24.591 50.891C24.591 47.571,23.577 44.859,22.994 43.567C22.107 41.691,21.068 40.424,20.409 40.424C20.156 40.424,19.015 40.855,17.799 42.274C15.467 45.062,14.808 49.726,14.808 52.792C14.808 54.769,15.011 56.543,15.619 60.623C15.594 60.674,13.693 62.6,12.907 63.234C9.587 66.326,5 70.736,5 78.035C5 84.878,10.956 90.225,17.748 90.225C18.787 90.225,19.776 90.124,20.612 89.972C21.322 93.469,21.727 96.029,21.727 97.98C21.727 101.757,19.776 103.784,16.101 103.784C15.214 103.784,14.453 103.582,14.377 103.582C14.352 103.556,14.276 103.505,14.276 103.48C14.276 103.404,14.352 103.379,14.453 103.328C16.177 103.075,17.875 101.63,17.875 99.273C17.875 97.322,16.379 95.243,13.642 95.243C11.083 95.243,9.461 97.322,9.461 99.729"/></g><g class="vf-stave" id="vf-auto13135" stroke-width="1" fill="#999999" stroke="#999999"><path fill="none" d="M0 162L410 162"/><path fill="none" d="M0 175L410 175"/><path fill="none" d="M0 188L410 188"/><path fill="none" d="M0 201L410 201"/><path fill="none" d="M0 214L410 214"/><path fill="none" d="M0 227L410 227"/></g><g class="vf-stavebarline" id="vf-auto13136"><rect y="161.5" width="1" height="66" stroke="none"/></g><g class="vf-stavebarline" id="vf-auto13137"><rect x="410" y="161.5" width="1" height="66" stroke="none"/></g><g class="vf-clef" id="vf-auto13138"><path stroke="none" d="M6.198 170.755L6.198 173.428L10.737 173.428L10.737 185.846L13.916 185.846L13.916 173.428L18.432 173.428L18.432 170.755M5 203.172L8.341 203.172L9.424 200.016L15.045 200.016L16.082 203.172L19.561 203.172L14.124 187.805L10.484 187.805M12.258 191.33L14.216 197.366L10.276 197.366M18.041 206.421C17.234 205.361,15.944 204.785,14.055 204.762L6.636 204.762L6.636 220.153L13.571 220.153C13.594 220.153,13.594 220.153,13.617 220.153C14.331 220.153,15.022 220.084,15.714 219.945C16.382 219.83,16.981 219.531,17.465 219.162C17.902 218.816,18.248 218.425,18.548 217.964C19.008 217.227,19.239 216.397,19.239 215.499C19.239 214.6,19.031 213.886,18.64 213.241C18.248 212.619,17.649 212.181,16.843 211.881C17.372 211.628,17.764 211.352,18.041 211.029C18.501 210.453,18.732 209.693,18.732 208.771C18.732 207.849,18.501 207.089,18.041 206.421M13.018 207.435C13.755 207.435,14.4 207.504,14.861 207.665C15.414 207.919,15.691 208.379,15.691 209.094C15.691 209.762,15.483 210.2,15.045 210.453C14.631 210.729,14.101 210.822,13.433 210.822L9.677 210.822L9.677 207.435M13.456 213.379C14.124 213.379,14.654 213.471,15.022 213.656C15.691 213.955,15.99 214.485,15.99 215.268C15.99 216.236,15.644 216.858,14.976 217.204C14.631 217.365,14.101 217.457,13.433 217.457L9.677 217.457L9.677 213.379"/></g><g class="vf-stave" id="vf-auto13152" stroke-width="1" fill="#999999" stroke="#999999"><path fill="none" d="M0 300L410 300"/><path fill="none" d="M0 310L410 310"/><path fill="none" d="M0 320L410 320"/><path fill="none" d="M0 330L410 330"/><path fill="none" d="M0 340L410 340"/></g><g class="vf-stavebarline" id="vf-auto13153"><rect y="299.5" width="1" height="41" stroke="none"/></g><g class="vf-stavebarline" id="vf-auto13154"><rect x="410" y="299.5" width="1" height="41" stroke="none"/></g><g class="vf-clef" id="vf-auto13155"><path stroke="none" d="M25.503 331.76C25.503 334.345,24.464 337.032,21.854 338.071C21.093 333.712,20.105 327.908,19.852 326.286C23.146 326.286,25.503 328.516,25.503 331.76M20.333 338.527C19.598 338.654,18.914 338.73,18.204 338.73C12.983 338.73,8.548 335.08,8.548 329.581C8.548 325.12,11.691 321.141,14.884 318.379C15.518 317.821,16.101 317.314,16.633 316.757C16.962 318.734,17.216 320.457,17.469 321.952C14.149 322.941,11.894 326.438,11.894 329.86C11.894 332.419,13.896 335.917,16.836 335.917C17.114 335.917,17.444 335.79,17.444 335.461C17.444 335.131,17.089 334.954,16.633 334.65C15.214 333.762,14.428 332.825,14.428 331.025C14.428 328.82,16.05 327.021,18.204 326.514M17.114 300.993C17.444 299.548,19.117 295.721,21.017 295.721C21.575 295.721,22.437 297.495,22.437 300.004C22.437 303.806,19.623 306.67,17.114 309.128C16.886 307.684,16.709 306.264,16.709 304.718C16.709 303.375,16.836 302.133,17.114 300.993M9.461 349.729C9.461 352.137,11.311 355.305,16.253 355.305C17.951 355.305,19.446 354.874,20.764 354.063C22.741 352.669,23.248 350.261,23.248 347.98C23.248 346.536,23.02 344.914,22.665 342.836C22.563 342.101,22.335 341.011,22.107 339.566C25.681 338.4,28.367 334.675,28.367 330.924C28.367 325.424,24.464 321.699,19.117 321.699C18.762 319.494,18.382 317.34,18.078 315.312C21.93 311.257,24.591 306.695,24.591 300.891C24.591 297.571,23.577 294.859,22.994 293.567C22.107 291.691,21.068 290.424,20.409 290.424C20.156 290.424,19.015 290.855,17.799 292.274C15.467 295.062,14.808 299.726,14.808 302.792C14.808 304.769,15.011 306.543,15.619 310.623C15.594 310.674,13.693 312.6,12.907 313.234C9.587 316.326,5 320.736,5 328.035C5 334.878,10.956 340.225,17.748 340.225C18.787 340.225,19.776 340.124,20.612 339.972C21.322 343.469,21.727 346.029,21.727 347.98C21.727 351.757,19.776 353.784,16.101 353.784C15.214 353.784,14.453 353.582,14.377 353.582C14.352 353.556,14.276 353.505,14.276 353.48C14.276 353.404,14.352 353.379,14.453 353.328C16.177 353.075,17.875 351.63,17.875 349.273C17.875 347.322,16.379 345.243,13.642 345.243C11.083 345.243,9.461 347.322,9.461 349.729"/></g><g class="vf-stave" id="vf-auto13196" stroke-width="1" fill="#999999" stroke="#999999"><path fill="none" d="M0 412L410 412"/><path fill="none" d="M0 425L410 425"/><path fill="none" d="M0 438L410 438"/><path fill="none" d="M0 451L410 451"/><path fill="none" d="M0 464L410 464"/><path fill="none" d="M0 477L410 477"/></g><g class="vf-stavebarline" id="vf-auto13197"><rect y="411.5" width="1" height="66" stroke="none"/></g><g class="vf-stavebarline" id="vf-auto13198"><rect x="410" y="411.5" width="1" height="66" stroke="none"/></g><g class="vf-clef" id="vf-auto13199"><path stroke="none" d="M6.198 420.755L6.198 423.428L10.737 423.428L10.737 435.846L13.916 435.846L13.916 423.428L18.432 423.428L18.432 420.755M5 453.172L8.341 453.172L9.424 450.016L15.045 450.016L16.082 453.172L19.561 453.172L14.124 437.805L10.484 437.805M12.258 441.33L14.216 447.366L10.276 447.366M18.041 456.421C17.234 455.361,15.944 454.785,14.055 454.762L6.636 454.762L6.636 470.153L13.571 470.153C13.594 470.153,13.594 470.153,13.617 470.153C14.331 470.153,15.022 470.084,15.714 469.945C16.382 469.83,16.981 469.531,17.465 469.162C17.902 468.816,18.248 468.425,18.548 467.964C19.008 467.227,19.239 466.397,19.239 465.499C19.239 464.6,19.031 463.886,18.64 463.241C18.248 462.619,17.649 462.181,16.843 461.881C17.372 461.628,17.764 461.352,18.041 461.029C18.501 460.453,18.732 459.693,18.732 458.771C18.732 457.849,18.501 457.089,18.041 456.421M13.018 457.435C13.755 457.435,14.4 457.504,14.861 457.665C15.414 457.919,15.691 458.379,15.691 459.094C15.691 459.762,15.483 460.2,15.045 460.453C14.631 460.729,14.101 460.822,13.433 460.822L9.677 460.822L9.677 457.435M13.456 463.379C14.124 463.379,14.654 463.471,15.022 463.656C15.691 463.955,15.99 464.485,15.99 465.268C15.99 466.236,15.644 466.858,14.976 467.204C14.631 467.365,14.101 467.457,13.433 467.457L9.677 467.457L9.677 463.379"/></g><g class="vf-stavenote" id="vf-auto13095"><g class="vf-stem" id="vf-auto13096" pointer-events="bounding-box"><path stroke-width="1.5" fill="none" d="M68.362 92.45L68.362 60"/></g><g class="vf-notehead" id="vf-auto13099" pointer-events="bounding-box"><path stroke="none" d="M64.591 89.665C60.66 89.665,55.971 92.95,55.971 96.685C55.971 98.426,57.234 100.391,60.491 100.391C64.703 100.391,69.112 96.938,69.112 93.371C69.112 90.985,67.09 89.665,64.591 89.665M63.496 96.769C63.384 96.853,60.407 98.482,59.003 98.482C57.655 98.482,57.375 97.387,57.375 97.022C57.375 95.337,61.418 93.343,61.587 93.259C61.755 93.175,64.619 91.574,66.079 91.574C67.062 91.574,67.708 92.136,67.708 93.006C67.708 94.747,63.608 96.685,63.496 96.769"/><path stroke="none" d="M52.56 90.869C52.779 90.814,52.971 90.54,52.971 90.321L52.971 87.996C52.971 87.668,52.752 87.449,52.423 87.449C52.396 87.449,52.396 87.449,52.341 87.449L51.055 87.722L51.055 81.84L49.934 81.84L49.934 87.941L46.431 88.652L46.431 83.098L45.337 83.098L45.337 88.899L43.805 89.2C43.559 89.254,43.367 89.528,43.367 89.747L43.367 89.829L43.367 92.127L43.367 92.045C43.367 92.373,43.613 92.592,43.914 92.592C43.969 92.592,43.996 92.592,44.024 92.592L45.337 92.319L45.337 98.83L43.805 99.131C43.559 99.186,43.367 99.46,43.367 99.679L43.367 101.977C43.367 102.278,43.613 102.524,43.914 102.524C43.969 102.524,43.996 102.524,44.024 102.524L45.337 102.25L45.337 108.133L46.431 108.133L46.431 102.004L49.934 101.293L49.934 106.847L51.055 106.847L51.055 101.074L52.56 100.8C52.779 100.746,52.971 100.472,52.971 100.253L52.971 97.928C52.971 97.599,52.752 97.353,52.423 97.353C52.396 97.353,52.396 97.353,52.341 97.353L51.055 97.627L51.055 91.142M46.431 92.072L49.934 91.388L49.934 97.873L46.431 98.612"/></g></g><g class="vf-stavenote" id="vf-auto13102"><path stroke-width="1.4" fill="none" stroke="#444" d="M94.81 100L113.951 100"/><g class="vf-stem" id="vf-auto13103" pointer-events="bounding-box"><path stroke-width="1.5" fill="none" d="M110.201 98L110.201 63"/></g><g class="vf-notehead" id="vf-auto13110" pointer-events="bounding-box"><path stroke="none" d="M97.81 101.685C97.81 103.426,99.073 105.391,102.331 105.391C106.543 105.391,110.951 101.938,110.951 98.371C110.951 95.985,108.93 94.665,106.43 94.665C102.499 94.665,97.81 97.978,97.81 101.685"/></g><g class="vf-notehead" id="vf-auto13111" pointer-events="bounding-box"><path stroke="none" d="M110.201 96.685C110.201 98.426,111.465 100.391,114.722 100.391C118.934 100.391,123.343 96.938,123.343 93.371C123.343 90.985,121.321 89.665,118.822 89.665C114.891 89.665,110.201 92.978,110.201 96.685"/></g><path stroke="none" d="M109.451 67.182C109.451 67.294,109.479 67.491,109.788 67.631C111.501 68.193,114.983 70.383,117.623 74.848C118.353 76.112,119.532 77.853,119.532 81.222C119.532 84.114,118.746 87.119,117.707 90.011C117.623 90.264,117.538 90.46,117.566 90.629C117.566 90.797,117.623 90.91,117.791 90.994C117.875 91.022,117.931 91.022,117.988 91.022C118.268 91.022,118.465 90.882,118.633 90.601C120.543 87.231,121.189 82.935,121.133 80.408C121.133 80.211,121.133 80.071,121.133 79.902C120.936 74.708,117.931 70.861,117.931 70.861C118.072 70.861,114.225 65.89,113.13 64.178C111.642 61.875,110.94 59.572,110.855 59.404C110.827 59.292,110.462 57.832,110.462 57.832C110.434 57.663,110.209 57.523,109.985 57.523C109.704 57.523,109.451 57.747,109.451 58.028"/></g><g class="vf-stavenote" id="vf-auto13113"><g class="vf-stem" id="vf-auto13114" pointer-events="bounding-box"><path stroke-width="1.5" fill="none" d="M188.666 93L188.666 63"/></g><g class="vf-notehead" id="vf-auto13119" pointer-events="bounding-box"><path stroke="none" d="M176.275 96.685C176.275 98.426,177.539 100.391,180.796 100.391C185.008 100.391,189.416 96.938,189.416 93.371C189.416 90.985,187.395 89.665,184.896 89.665C180.964 89.665,176.275 92.978,176.275 96.685"/></g><path stroke="none" d="M187.916 67.182C187.916 67.294,187.945 67.491,188.253 67.631C189.966 68.193,193.448 70.383,196.088 74.848C196.818 76.112,197.997 77.853,197.997 81.222C197.997 84.114,197.211 87.119,196.172 90.011C196.088 90.264,196.004 90.46,196.032 90.629C196.032 90.797,196.088 90.91,196.256 90.994C196.34 91.022,196.397 91.022,196.453 91.022C196.734 91.022,196.93 90.882,197.099 90.601C199.008 87.231,199.654 82.935,199.598 80.408C199.598 80.211,199.598 80.071,199.598 79.902C199.401 74.708,196.397 70.861,196.397 70.861C196.537 70.861,192.69 65.89,191.595 64.178C190.107 61.875,189.405 59.572,189.32 59.404C189.292 59.292,188.927 57.832,188.927 57.832C188.899 57.663,188.675 57.523,188.45 57.523C188.169 57.523,187.916 57.747,187.916 58.028"/></g><g class="vf-stavenote" id="vf-auto13121"><path stroke-width="1.4" fill="none" stroke="#444" d="M219.161 100L238.303 100"/><g class="vf-stem" id="vf-auto13122" pointer-events="bounding-box"><path stroke-width="1.5" fill="none" d="M234.553 98L234.553 40"/></g><g class="vf-notehead" id="vf-auto13129" pointer-events="bounding-box"><path stroke="none" d="M222.161 101.685C222.161 103.426,223.425 105.391,226.682 105.391C230.894 105.391,235.303 101.938,235.303 98.371C235.303 95.985,233.281 94.665,230.782 94.665C226.851 94.665,222.161 97.978,222.161 101.685"/><path stroke="none" d="M218.751 95.869C218.97 95.814,219.161 95.54,219.161 95.321L219.161 92.996C219.161 92.668,218.942 92.449,218.614 92.449C218.587 92.449,218.587 92.449,218.532 92.449L217.246 92.722L217.246 86.84L216.124 86.84L216.124 92.941L212.622 93.652L212.622 88.098L211.528 88.098L211.528 93.899L209.996 94.2C209.749 94.254,209.558 94.528,209.558 94.747L209.558 94.829L209.558 97.127L209.558 97.045C209.558 97.373,209.804 97.592,210.105 97.592C210.16 97.592,210.187 97.592,210.215 97.592L211.528 97.319L211.528 103.83L209.996 104.131C209.749 104.186,209.558 104.46,209.558 104.679L209.558 106.977C209.558 107.278,209.804 107.524,210.105 107.524C210.16 107.524,210.187 107.524,210.215 107.524L211.528 107.25L211.528 113.133L212.622 113.133L212.622 107.004L216.124 106.293L216.124 111.847L217.246 111.847L217.246 106.074L218.751 105.8C218.97 105.746,219.161 105.472,219.161 105.253L219.161 102.928C219.161 102.599,218.942 102.353,218.614 102.353C218.587 102.353,218.587 102.353,218.532 102.353L217.246 102.627L217.246 96.142M212.622 97.072L216.124 96.388L216.124 102.873L212.622 103.612"/></g><g class="vf-notehead" id="vf-auto13130" pointer-events="bounding-box"><path stroke="none" d="M222.161 91.685C222.161 93.426,223.425 95.391,226.682 95.391C230.894 95.391,235.303 91.938,235.303 88.371C235.303 85.985,233.281 84.665,230.782 84.665C226.851 84.665,222.161 87.978,222.161 91.685"/></g><g class="vf-notehead" id="vf-auto13131" pointer-events="bounding-box"><path stroke="none" d="M222.161 76.685C222.161 78.426,223.425 80.391,226.682 80.391C230.894 80.391,235.303 76.938,235.303 73.371C235.303 70.985,233.281 69.665,230.782 69.665C226.851 69.665,222.161 72.978,222.161 76.685"/></g></g><g class="vf-tabnote" id="vf-auto13139" pointer-events="bounding-box"><rect x="53.971" y="185" width="11.422" height="6" fill="#FFF" stroke="none"/><text stroke="none" x="55.971" y="193">6</text><path stroke-width="1.5" fill="none" stroke="#777777" d="M68.392 188.5Q81.741 188.5,81.741 152"/><text stroke="none" x="70.999" y="148">Full</text><path stroke="none" d="M81.741 152L77.741 156L85.741 156Z"/></g><g class="vf-tabnote" id="vf-auto13142" pointer-events="bounding-box"><rect x="95.81" y="172" width="11.422" height="6" fill="#FFF" stroke="none"/><text stroke="none" x="97.81" y="180">3</text><rect x="95.81" y="185" width="11.422" height="6" fill="#FFF" stroke="none"/><text stroke="none" x="97.81" y="193">5</text><path stroke-width="1.5" fill="none" stroke="#777777" d="M110.232 188.5Q134.323 188.5,134.323 152"/><text stroke="none" x="113.573" y="148">Unison</text><path stroke="none" d="M134.323 152L130.323 156L138.323 156Z"/></g><g class="vf-tabnote" id="vf-auto13146" pointer-events="bounding-box"><rect x="174.275" y="185" width="11.422" height="6" fill="#FFF" stroke="none"/><text stroke="none" x="176.275" y="193">7</text></g><g class="vf-tabnote" id="vf-auto13149" pointer-events="bounding-box"><rect x="220.161" y="185" width="11.422" height="6" fill="#FFF" stroke="none"/><text stroke="none" x="222.161" y="193">6</text><rect x="220.161" y="198" width="11.422" height="6" fill="#FFF" stroke="none"/><text stroke="none" x="222.161" y="206">7</text><rect x="220.161" y="172" width="11.422" height="6" fill="#FFF" stroke="none"/><text stroke="none" x="222.161" y="180">5</text></g><g class="vf-stavenote" id="vf-auto13156"><g class="vf-stem" id="vf-auto13157" pointer-events="bounding-box"><path stroke-width="1.5" fill="none" d="M68.362 342.45L68.362 310"/></g><g class="vf-notehead" id="vf-auto13160" pointer-events="bounding-box"><path stroke="none" d="M64.591 339.665C60.66 339.665,55.971 342.95,55.971 346.685C55.971 348.426,57.234 350.391,60.491 350.391C64.703 350.391,69.112 346.938,69.112 343.371C69.112 340.985,67.09 339.665,64.591 339.665M63.496 346.769C63.384 346.853,60.407 348.482,59.003 348.482C57.655 348.482,57.375 347.387,57.375 347.022C57.375 345.337,61.418 343.343,61.587 343.259C61.755 343.175,64.619 341.574,66.079 341.574C67.062 341.574,67.708 342.136,67.708 343.006C67.708 344.747,63.608 346.685,63.496 346.769"/><path stroke="none" d="M52.56 340.869C52.779 340.814,52.971 340.54,52.971 340.321L52.971 337.996C52.971 337.668,52.752 337.449,52.423 337.449C52.396 337.449,52.396 337.449,52.341 337.449L51.055 337.722L51.055 331.84L49.934 331.84L49.934 337.941L46.431 338.652L46.431 333.098L45.337 333.098L45.337 338.899L43.805 339.2C43.559 339.254,43.367 339.528,43.367 339.747L43.367 339.829L43.367 342.127L43.367 342.045C43.367 342.373,43.613 342.592,43.914 342.592C43.969 342.592,43.996 342.592,44.024 342.592L45.337 342.319L45.337 348.83L43.805 349.131C43.559 349.186,43.367 349.46,43.367 349.679L43.367 351.977C43.367 352.278,43.613 352.524,43.914 352.524C43.969 352.524,43.996 352.524,44.024 352.524L45.337 352.25L45.337 358.133L46.431 358.133L46.431 352.004L49.934 351.293L49.934 356.847L51.055 356.847L51.055 351.074L52.56 350.8C52.779 350.746,52.971 350.472,52.971 350.253L52.971 347.928C52.971 347.599,52.752 347.353,52.423 347.353C52.396 347.353,52.396 347.353,52.341 347.353L51.055 347.627L51.055 341.142M46.431 342.072L49.934 341.388L49.934 347.873L46.431 348.612"/></g></g><g class="vf-stavenote" id="vf-auto13163"><path stroke-width="1.4" fill="none" stroke="#444" d="M181.39 350L200.532 350"/><g class="vf-stem" id="vf-auto13164" pointer-events="bounding-box"><path stroke-width="1.5" fill="none" d="M196.782 348L196.782 313"/></g><g class="vf-notehead" id="vf-auto13171" pointer-events="bounding-box"><path stroke="none" d="M184.39 351.685C184.39 353.426,185.654 355.391,188.911 355.391C193.123 355.391,197.532 351.938,197.532 348.371C197.532 345.985,195.51 344.665,193.011 344.665C189.08 344.665,184.39 347.978,184.39 351.685"/></g><g class="vf-notehead" id="vf-auto13172" pointer-events="bounding-box"><path stroke="none" d="M196.782 346.685C196.782 348.426,198.045 350.391,201.303 350.391C205.515 350.391,209.923 346.938,209.923 343.371C209.923 340.985,207.901 339.665,205.402 339.665C201.471 339.665,196.782 342.978,196.782 346.685"/></g><path stroke="none" d="M196.032 317.182C196.032 317.294,196.06 317.491,196.369 317.631C198.081 318.193,201.563 320.383,204.203 324.848C204.933 326.112,206.112 327.853,206.112 331.222C206.112 334.114,205.326 337.119,204.287 340.011C204.203 340.264,204.119 340.46,204.147 340.629C204.147 340.797,204.203 340.91,204.371 340.994C204.456 341.022,204.512 341.022,204.568 341.022C204.849 341.022,205.045 340.882,205.214 340.601C207.123 337.231,207.769 332.935,207.713 330.408C207.713 330.211,207.713 330.071,207.713 329.902C207.516 324.708,204.512 320.861,204.512 320.861C204.652 320.861,200.805 315.89,199.71 314.178C198.222 311.875,197.52 309.572,197.436 309.404C197.408 309.292,197.043 307.832,197.043 307.832C197.014 307.663,196.79 307.523,196.565 307.523C196.284 307.523,196.032 307.747,196.032 308.028"/></g><g class="vf-stavenote" id="vf-auto13174"><g class="vf-stem" id="vf-auto13175" pointer-events="bounding-box"><path stroke-width="1.5" fill="none" d="M252.386 343L252.386 313"/></g><g class="vf-notehead" id="vf-auto13180" pointer-events="bounding-box"><path stroke="none" d="M239.994 346.685C239.994 348.426,241.258 350.391,244.515 350.391C248.727 350.391,253.136 346.938,253.136 343.371C253.136 340.985,251.114 339.665,248.615 339.665C244.684 339.665,239.994 342.978,239.994 346.685"/></g><path stroke="none" d="M251.636 317.182C251.636 317.294,251.664 317.491,251.973 317.631C253.686 318.193,257.168 320.383,259.807 324.848C260.537 326.112,261.717 327.853,261.717 331.222C261.717 334.114,260.93 337.119,259.891 340.011C259.807 340.264,259.723 340.46,259.751 340.629C259.751 340.797,259.807 340.91,259.976 340.994C260.06 341.022,260.116 341.022,260.172 341.022C260.453 341.022,260.649 340.882,260.818 340.601C262.727 337.231,263.373 332.935,263.317 330.408C263.317 330.211,263.317 330.071,263.317 329.902C263.121 324.708,260.116 320.861,260.116 320.861C260.256 320.861,256.409 315.89,255.314 314.178C253.826 311.875,253.124 309.572,253.04 309.404C253.012 309.292,252.647 307.832,252.647 307.832C252.619 307.663,252.394 307.523,252.169 307.523C251.889 307.523,251.636 307.747,251.636 308.028"/></g><g class="vf-stavenote" id="vf-auto13182"><path stroke-width="1.4" fill="none" stroke="#444" d="M291.149 350L310.29 350"/><g class="vf-stem" id="vf-auto13183" pointer-events="bounding-box"><path stroke-width="1.5" fill="none" d="M306.54 348L306.54 290"/></g><g class="vf-notehead" id="vf-auto13190" pointer-events="bounding-box"><path stroke="none" d="M294.149 351.685C294.149 353.426,295.412 355.391,298.669 355.391C302.881 355.391,307.29 351.938,307.29 348.371C307.29 345.985,305.268 344.665,302.769 344.665C298.838 344.665,294.149 347.978,294.149 351.685"/><path stroke="none" d="M290.738 345.869C290.957 345.814,291.149 345.54,291.149 345.321L291.149 342.996C291.149 342.668,290.93 342.449,290.601 342.449C290.574 342.449,290.574 342.449,290.519 342.449L289.233 342.722L289.233 336.84L288.112 336.84L288.112 342.941L284.609 343.652L284.609 338.098L283.515 338.098L283.515 343.899L281.983 344.2C281.737 344.254,281.545 344.528,281.545 344.747L281.545 344.829L281.545 347.127L281.545 347.045C281.545 347.373,281.791 347.592,282.092 347.592C282.147 347.592,282.174 347.592,282.202 347.592L283.515 347.319L283.515 353.83L281.983 354.131C281.737 354.186,281.545 354.46,281.545 354.679L281.545 356.977C281.545 357.278,281.791 357.524,282.092 357.524C282.147 357.524,282.174 357.524,282.202 357.524L283.515 357.25L283.515 363.133L284.609 363.133L284.609 357.004L288.112 356.293L288.112 361.847L289.233 361.847L289.233 356.074L290.738 355.8C290.957 355.746,291.149 355.472,291.149 355.253L291.149 352.928C291.149 352.599,290.93 352.353,290.601 352.353C290.574 352.353,290.574 352.353,290.519 352.353L289.233 352.627L289.233 346.142M284.609 347.072L288.112 346.388L288.112 352.873L284.609 353.612"/></g><g class="vf-notehead" id="vf-auto13191" pointer-events="bounding-box"><path stroke="none" d="M294.149 341.685C294.149 343.426,295.412 345.391,298.669 345.391C302.881 345.391,307.29 341.938,307.29 338.371C307.29 335.985,305.268 334.665,302.769 334.665C298.838 334.665,294.149 337.978,294.149 341.685"/></g><g class="vf-notehead" id="vf-auto13192" pointer-events="bounding-box"><path stroke="none" d="M294.149 326.685C294.149 328.426,295.412 330.391,298.669 330.391C302.881 330.391,307.29 326.938,307.29 323.371C307.29 320.985,305.268 319.665,302.769 319.665C298.838 319.665,294.149 322.978,294.149 326.685"/></g></g><g class="vf-tabnote" id="vf-auto13200" pointer-events="bounding-box"><rect x="53.971" y="435" width="11.422" height="6" fill="#FFF" stroke="none"/><text stroke="none" x="55.971" y="443">6</text><path stroke-width="1.5" fill="none" stroke="#777777" d="M68.392 438.5Q81.741 438.5,81.741 402"/><text stroke="none" x="70.999" y="398">Full</text><path stroke="none" d="M81.741 402L77.741 406L85.741 406Z"/></g><g class="vf-tabnote" id="vf-auto13203" pointer-events="bounding-box"><rect x="182.39" y="422" width="11.422" height="6" fill="#FFF" stroke="none"/><text stroke="none" x="184.39" y="430">3</text><rect x="182.39" y="435" width="11.422" height="6" fill="#FFF" stroke="none"/><text stroke="none" x="184.39" y="443">5</text><path stroke-width="1.5" fill="none" stroke="#777777" d="M196.812 438.5Q220.903 438.5,220.903 402"/><text stroke="none" x="200.153" y="398">Unison</text><path stroke="none" d="M220.903 402L216.903 406L224.903 406Z"/></g><g class="vf-tabnote" id="vf-auto13207" pointer-events="bounding-box"><rect x="237.994" y="435" width="11.422" height="6" fill="#FFF" stroke="none"/><text stroke="none" x="239.994" y="443">7</text></g><g class="vf-tabnote" id="vf-auto13210" pointer-events="bounding-box"><rect x="292.149" y="435" width="11.422" height="6" fill="#FFF" stroke="none"/><text stroke="none" x="294.149" y="443">6</text><rect x="292.149" y="448" width="11.422" height="6" fill="#FFF" stroke="none"/><text stroke="none" x="294.149" y="456">7</text><rect x="292.149" y="422" width="11.422" height="6" fill="#FFF" stroke="none"/><text stroke="none" x="294.149" y="430">5</text></g></svg>