<svg xmlns="http://www.w3.org/2000/svg" stroke-width="0.3" stroke-dasharray="none" fill="black" stroke="black" font-family="Arial, sans-serif" font-size="10pt" font-weight="normal" font-style="normal" width="550" height="200" viewBox="0 0 550 200" style="width: 550px; height: 200px; border: none;"><g class="vf-stave" id="vf-auto35490" stroke-width="1" fill="#999999" stroke="#999999"><path fill="none" d="M0 40L540 40"/><path fill="none" d="M0 50L540 50"/><path fill="none" d="M0 60L540 60"/><path fill="none" d="M0 70L540 70"/><path fill="none" d="M0 80L540 80"/></g><g class="vf-stavebarline" id="vf-auto35491"><rect y="39.5" width="1" height="41" stroke="none"/></g><g class="vf-stavebarline" id="vf-auto35492"><rect x="540" y="39.5" width="1" height="41" stroke="none"/></g><g class="vf-clef" id="vf-auto35493"><path stroke="none" d="M18.711 55.844C18.66 55.413,18.711 55.388,18.939 55.16C22.893 51.485,25.883 46.847,25.883 41.246C25.883 38.078,24.996 34.935,23.501 32.756C22.944 31.945,22.006 30.931,21.6 30.931C21.093 30.931,19.953 31.869,19.243 32.68C16.532 35.67,15.644 40.232,15.644 44.034C15.644 46.138,15.923 48.52,16.177 50.015C16.253 50.446,16.278 50.522,15.847 50.902C10.576 55.236,5 60.457,5 67.832C5 74.168,9.334 80.2,18.28 80.2C19.117 80.2,20.08 80.124,20.815 79.972C21.195 79.896,21.271 79.87,21.347 80.301C21.778 82.76,22.335 85.928,22.335 87.651C22.335 93.049,18.686 93.708,16.532 93.708C14.555 93.708,13.617 93.125,13.617 92.644C13.617 92.39,13.946 92.289,14.783 92.01C15.923 91.681,17.216 90.718,17.216 88.589C17.216 86.587,15.949 84.863,13.718 84.863C11.285 84.863,9.815 86.815,9.815 89.07C9.815 91.427,11.235 95.026,16.76 95.026C19.193 95.026,23.932 93.911,23.932 87.727C23.932 85.623,23.273 82.177,22.893 79.896C22.817 79.465,22.842 79.516,23.349 79.287C27.049 77.818,29.482 74.726,29.482 70.594C29.482 65.931,26.061 61.8,20.688 61.8C19.75 61.8,19.75 61.8,19.623 61.141M22.158 36.583C23.349 36.583,24.337 37.571,24.337 39.573C24.337 43.628,20.865 46.923,18.001 49.432C17.748 49.66,17.596 49.61,17.52 49.128C17.368 48.19,17.292 46.949,17.292 45.783C17.292 40.08,19.928 36.583,22.158 36.583M18.179 61.445C18.28 62.13,18.28 62.104,17.621 62.307C14.428 63.397,12.324 66.286,12.324 69.403C12.324 72.673,14.048 75.004,16.532 75.866C16.836 75.967,17.266 76.069,17.52 76.069C17.799 76.069,17.951 75.891,17.951 75.663C17.951 75.41,17.672 75.308,17.419 75.207C15.873 74.548,14.783 72.977,14.783 71.304C14.783 69.201,16.202 67.655,18.432 67.021C19.015 66.869,19.091 66.92,19.167 67.325L20.992 78.198C21.068 78.603,21.017 78.603,20.485 78.705C19.902 78.806,19.167 78.882,18.432 78.882C12.046 78.882,7.915 75.334,7.915 70.265C7.915 68.111,8.295 65.222,11.311 61.8C13.516 59.367,15.188 57.999,16.886 56.63C17.266 56.326,17.343 56.377,17.419 56.757M20.688 67.249C20.612 66.793,20.663 66.692,21.093 66.742C24.059 66.996,26.492 69.479,26.492 72.673C26.492 74.979,25.098 76.829,23.07 77.868C22.639 78.071,22.563 78.071,22.487 77.64"/></g><g class="vf-stavenote" id="vf-auto35494"><g class="vf-stem" id="vf-auto35495" pointer-events="bounding-box"><path stroke-width="1.5" fill="none" d="M52.666 38L52.666 5"/></g><g class="vf-notehead" id="vf-auto35497" pointer-events="bounding-box"><path stroke="none" d="M45.414 45.054C49.008 45.054,53.416 41.741,53.416 38.315C53.416 36.237,51.788 34.946,49.485 34.946C45.048 34.946,41.482 38.231,41.482 41.685C41.482 43.791,43.223 45.054,45.414 45.054"/></g></g><g class="vf-stavenote" id="vf-auto35498"><path stroke-width="1.4" fill="none" stroke="#444" d="M174.03 30L191.964 30"/><g class="vf-stem" id="vf-auto35499" pointer-events="bounding-box"><path stroke-width="1.5" fill="none" d="M188.214 23L188.214 -10"/></g><g class="vf-notehead" id="vf-auto35501" pointer-events="bounding-box"><path stroke="none" d="M180.961 30.054C184.555 30.054,188.964 26.741,188.964 23.315C188.964 21.237,187.335 19.946,185.033 19.946C180.596 19.946,177.03 23.231,177.03 26.685C177.03 28.791,178.771 30.054,180.961 30.054"/><path stroke="none" d="M173.538 20.349C173.811 20.239,174.03 19.911,174.03 19.692L174.03 16.874C174.03 16.683,173.893 16.573,173.729 16.573C173.674 16.573,173.62 16.573,173.538 16.6C173.538 16.6,172.744 16.929,172.553 16.956C172.279 16.956,172.005 16.765,172.005 16.464L172.005 11.648C172.005 11.402,171.759 11.211,171.458 11.211C171.075 11.211,170.829 11.402,170.829 11.648L170.829 16.765C170.774 17.148,170.665 17.668,170.309 17.914C169.844 18.187,168.503 18.735,167.819 18.899C167.491 18.899,167.354 18.434,167.354 18.105L167.354 13.372C167.354 13.153,167.081 12.934,166.807 12.934C166.424 12.934,166.178 13.153,166.178 13.372L166.178 18.707C166.178 19.254,165.931 19.637,165.713 19.747C165.466 19.884,164.673 20.185,164.673 20.185C164.399 20.267,164.208 20.595,164.208 20.814L164.208 23.632C164.208 23.851,164.317 23.988,164.563 23.988L164.646 23.933C164.673 23.933,165.275 23.687,165.576 23.55L165.631 23.495C165.931 23.495,166.178 23.906,166.178 24.207L166.178 28.119C166.178 28.557,165.986 28.912,165.74 29.022C165.521 29.104,164.673 29.46,164.673 29.46C164.399 29.542,164.208 29.843,164.208 30.089L164.208 32.88C164.208 33.126,164.317 33.235,164.563 33.235L164.646 33.208C164.673 33.208,165.22 32.962,165.576 32.852C165.631 32.798,165.658 32.798,165.713 32.798C165.986 32.798,166.178 33.235,166.178 33.427L166.178 38.27C166.178 38.516,166.424 38.707,166.698 38.707C167.081 38.707,167.354 38.516,167.354 38.27L167.354 32.798C167.354 32.278,167.546 32.004,167.765 31.922L170.145 30.937C170.145 30.937,170.2 30.937,170.2 30.937L170.282 30.91C170.637 30.91,170.829 31.375,170.829 31.621L170.829 36.546C170.829 36.792,171.075 36.984,171.349 36.984C171.759 36.984,172.005 36.792,172.005 36.546L172.005 30.937C172.005 30.636,172.17 30.171,172.443 30.034C172.717 29.925,173.538 29.596,173.538 29.596C173.811 29.487,174.03 29.186,174.03 28.94L174.03 26.149C174.03 25.958,173.893 25.821,173.729 25.821C173.674 25.821,173.62 25.821,173.538 25.876L172.525 26.259C172.279 26.259,172.005 26.012,172.005 25.547L172.005 21.881C172.005 21.607,172.197 20.869,172.525 20.732M170.829 26.778C170.583 27.572,168.75 28.338,167.819 28.338C167.6 28.338,167.409 28.283,167.354 28.146C167.272 27.982,167.245 27.134,167.245 26.176C167.245 24.973,167.272 23.577,167.354 23.276C167.436 22.592,169.242 21.772,170.227 21.772C170.501 21.772,170.747 21.854,170.829 22.018C170.911 22.209,170.993 23.194,170.993 24.261C170.993 25.328,170.911 26.423,170.829 26.778"/><path stroke="none" d="M114.28 42.943C109.581 42.943,107.484 46.368,107.484 48.952C107.484 51.104,108.608 52.958,110.798 52.958C112.501 52.958,113.662 51.778,113.662 50.112C113.662 48.39,112.389 47.304,111.079 47.304C110.349 47.304,110.068 47.492,109.731 47.492C109.375 47.492,109.282 47.286,109.282 47.005C109.282 45.938,110.91 43.953,113.662 43.953C116.507 43.953,117.762 46.761,117.762 50.992C117.762 58.518,114.036 62.73,107.747 66.305C107.503 66.436,107.353 66.586,107.353 66.792C107.353 66.96,107.466 67.11,107.709 67.11C107.84 67.11,107.99 67.073,108.158 66.979C114.785 63.74,121.805 58.948,121.805 50.749C121.805 46.069,118.941 42.943,114.28 42.943M124.445 45.152C123.602 45.152,122.966 45.788,122.966 46.63C122.966 47.473,123.602 48.109,124.445 48.109C125.268 48.109,125.924 47.473,125.924 46.63C125.924 45.788,125.268 45.152,124.445 45.152M124.463 51.909C123.64 51.909,123.003 52.527,123.003 53.37C123.003 54.212,123.64 54.83,124.463 54.83C125.306 54.83,125.924 54.212,125.924 53.37C125.924 52.527,125.306 51.909,124.463 51.909"/><g class="vf-stavebarline" id="vf-auto35558"><rect x="131.055" y="39.5" width="1" height="41" stroke="none"/><rect x="126.055" y="39.5" width="3" height="41" stroke="none"/><path stroke="none" d="M138.055 55.5 A2 2 0 0 0 134.055 55.5 A2 2 0 0 0 138.055 55.5"/><path stroke="none" d="M138.055 65.5 A2 2 0 0 0 134.055 65.5 A2 2 0 0 0 138.055 65.5"/><rect y="39.5" width="1" height="41" stroke="none"/></g><path stroke="none" d="M152.439 41.261C152.39 41.261,152.366 41.261,152.292 41.261L152.047 41.212C151.998 41.212,151.949 41.212,151.901 41.212C148.865 41.212,145.829 43.244,145.829 45.104C145.829 46.255,146.515 47.821,148.694 47.944L148.865 47.944C150.432 47.944,151.191 46.818,151.191 45.667L151.191 45.373C151.093 44.076,150.211 44.002,150.04 43.929C149.869 43.856,149.33 43.929,149.33 43.439L149.33 43.292C149.404 42.705,150.505 42.411,150.799 42.411C153.81 42.411,154.079 44.296,154.079 45.128L154.079 45.373C154.079 47.993,151.998 49.021,149.795 49.119C149.428 49.143,148.938 49.339,148.938 49.706C148.938 50.147,149.55 50.147,149.82 50.147C153.883 50.147,154.202 52.889,154.202 53.354C154.202 57.075,152.292 57.515,151.509 57.515C151.386 57.515,151.24 57.466,151.191 57.466C150.921 57.442,150.236 57.442,150.211 56.903L150.211 56.732C150.211 55.949,150.995 55.435,151.019 54.406C151.019 52.938,149.991 51.86,148.473 51.86C148.351 51.86,148.229 51.86,148.106 51.909C147.494 52.007,146.833 52.35,146.393 52.815C145.805 53.354,145.634 54.186,145.634 54.969C145.707 57.711,148.204 58.788,151.656 58.837L151.974 58.837C155.475 58.837,159.049 57.05,159.049 53.941L159.049 53.696C159 52.668,158.73 52.007,158.069 51.224C157.849 50.955,157.58 50.71,157.237 50.49L156.478 50.073L155.328 49.755C155.156 49.706,155.034 49.706,154.961 49.584C154.936 49.51,154.936 49.461,154.936 49.412C154.936 49.266,154.961 49.119,155.083 49.094C155.475 48.972,155.842 48.947,156.16 48.776C157.58 48.091,158.314 47.185,158.314 45.569C158.314 42.313,153.908 41.359,152.439 41.261"/><path stroke="none" d="M156.809 72.619L156.809 65.055C156.809 64.786,156.784 64.468,156.393 64.468C156.074 64.468,155.903 64.541,155.683 64.786L152.329 68.825C152.207 69.021,152.011 69.217,152.011 69.657L152.011 72.619L147.262 72.619C150.077 70.22,155.732 62.215,155.83 61.775L155.854 61.677C155.854 61.359,155.609 61.163,155.34 61.163C155.022 61.163,153.577 61.212,152.941 61.212C152.304 61.212,150.713 61.163,150.444 61.163C150.126 61.163,149.636 61.261,149.636 61.824C149.636 66.181,146.16 71.102,145.107 72.57L144.911 72.864C144.911 72.864,144.911 72.889,144.911 72.889L144.863 72.938C144.789 73.109,144.765 73.231,144.765 73.354C144.765 73.696,145.034 73.941,145.475 73.941L152.011 73.941L152.011 76.169C152.011 77.124,151.252 77.393,150.615 77.393C150.052 77.393,149.807 77.711,149.807 78.078C149.807 78.421,149.93 78.813,150.468 78.813L157.984 78.813C158.327 78.813,158.694 78.568,158.694 78.078C158.694 77.589,158.253 77.368,157.91 77.368C157.568 77.368,156.809 77.148,156.809 76.022L156.809 73.941L159.379 73.941C159.746 73.941,159.918 73.696,159.918 73.28C159.918 72.864,159.771 72.619,159.379 72.619"/></g></g><g class="vf-stavenote" id="vf-auto35502"><path stroke-width="1.4" fill="none" stroke="#444" d="M309.578 30L327.512 30"/><g class="vf-stem" id="vf-auto35503" pointer-events="bounding-box"><path stroke-width="1.5" fill="none" d="M323.762 23L323.762 -10"/></g><g class="vf-notehead" id="vf-auto35505" pointer-events="bounding-box"><path stroke="none" d="M316.509 30.054C320.103 30.054,324.512 26.741,324.512 23.315C324.512 21.237,322.883 19.946,320.581 19.946C316.144 19.946,312.578 23.231,312.578 26.685C312.578 28.791,314.319 30.054,316.509 30.054"/><path stroke="none" d="M301.151 31.703C301.288 31.867,301.397 31.895,301.507 31.895C301.643 31.895,301.753 31.813,301.753 31.813C302.929 31.156,303.887 30.089,304.872 29.405C308.374 26.97,309.578 24.562,309.578 22.756C309.578 20.513,307.854 19.09,306.048 18.981C305.364 18.981,304.434 19.282,303.887 19.637C303.641 19.829,303.203 20.185,303.011 20.185C302.929 20.185,302.902 20.185,302.82 20.157C302.546 20.048,302.382 19.747,302.382 19.473C302.409 18.625,302.656 9.159,302.656 8.365C302.656 7.927,302.3 7.708,301.917 7.708C301.342 7.708,300.713 8.092,300.686 8.803C300.686 8.803,300.85 31.293,301.151 31.703M302.546 28.201C302.546 28.201,302.409 25.821,302.409 24.261C302.409 23.632,302.464 23.14,302.492 23.003C302.765 22.209,304.352 21.06,305.255 21.06C306.404 21.06,306.869 22.373,306.869 23.358C306.869 25.465,305.063 27.599,303.367 28.666C303.203 28.748,303.093 28.776,302.984 28.776C302.628 28.776,302.546 28.393,302.546 28.201"/></g></g><g class="vf-stavenote" id="vf-auto35506"><g class="vf-stem" id="vf-auto35507" pointer-events="bounding-box"><path stroke-width="1.5" fill="none" d="M459.31 43L459.31 10"/></g><g class="vf-notehead" id="vf-auto35509" pointer-events="bounding-box"><path stroke="none" d="M452.057 50.054C455.651 50.054,460.06 46.741,460.06 43.315C460.06 41.237,458.431 39.946,456.128 39.946C451.692 39.946,448.126 43.231,448.126 46.685C448.126 48.791,449.866 50.054,452.057 50.054"/><path stroke="none" d="M417.649 67.008C417.649 66.634,417.461 66.447,417.087 66.447L417.068 66.447C416.675 66.447,416.488 66.634,416.488 67.008L416.488 92.992C416.488 93.366,416.675 93.553,417.068 93.553L417.087 93.553C417.461 93.553,417.649 93.366,417.649 92.992L417.649 81.179C417.649 80.973,417.78 80.992,417.892 81.03C418.603 81.217,419.726 81.909,420.288 84.961C420.382 85.391,420.531 85.635,420.812 85.635C421.112 85.635,421.243 85.373,421.374 84.905C421.73 83.725,422.347 82.396,424.257 82.396C426.016 82.396,426.503 84.118,426.503 87.656C426.503 91.195,425.867 92.786,423.639 92.786C423.265 92.786,421.336 92.617,421.336 92.056C421.336 91.906,421.786 91.756,422.066 91.644C422.609 91.457,423.152 90.914,423.152 89.884C423.152 88.705,422.366 88.031,421.318 88.031C420.157 88.031,419.24 88.817,419.24 90.24C419.24 91.943,420.719 93.647,423.938 93.647C428.356 93.647,430.303 90.539,430.303 87.731C430.303 84.025,428.244 81.423,424.669 81.423C423.882 81.423,423.358 81.572,423.021 81.666C422.74 81.76,422.478 81.797,422.235 81.647C421.861 81.404,421.262 80.543,421.262 80C421.262 79.457,421.861 78.596,422.235 78.353C422.478 78.203,422.74 78.24,423.021 78.334C423.358 78.428,423.882 78.577,424.669 78.577C428.244 78.577,430.303 75.975,430.303 72.269C430.303 69.461,428.356 66.353,423.938 66.353C420.719 66.353,419.24 68.057,419.24 69.76C419.24 71.183,420.157 71.969,421.318 71.969C422.366 71.969,423.152 71.295,423.152 70.116C423.152 69.086,422.609 68.543,422.066 68.356C421.786 68.244,421.336 68.094,421.336 67.944C421.336 67.383,423.265 67.214,423.639 67.214C425.867 67.214,426.503 68.805,426.503 72.344C426.503 75.882,426.016 77.604,424.257 77.604C422.347 77.604,421.73 76.275,421.374 75.095C421.243 74.627,421.112 74.365,420.812 74.365C420.531 74.365,420.382 74.609,420.288 75.039C419.726 78.091,418.603 78.783,417.892 78.97C417.78 79.008,417.649 79.027,417.649 78.821M412.014 66.447C411.639 66.447,411.452 66.634,411.452 67.008L411.452 92.992C411.452 93.366,411.639 93.553,412.014 93.553L414.335 93.553C414.71 93.553,414.897 93.366,414.897 92.992L414.897 67.008C414.897 66.634,414.71 66.447,414.335 66.447"/></g></g><g class="vf-stavenote" id="vf-auto35510"><path stroke-width="1.4" fill="none" stroke="#444" d="M38.482 90L56.416 90"/><g class="vf-stem" id="vf-auto35511" pointer-events="bounding-box"><path stroke-width="1.5" fill="none" d="M42.232 92L42.232 125"/></g><g class="vf-notehead" id="vf-auto35513" pointer-events="bounding-box"><path stroke="none" d="M45.414 95.054C49.008 95.054,53.416 91.741,53.416 88.315C53.416 86.237,51.788 84.946,49.485 84.946C45.048 84.946,41.482 88.231,41.482 91.685C41.482 93.791,43.223 95.054,45.414 95.054"/></g></g><g class="vf-stavenote" id="vf-auto35514"><g class="vf-stem" id="vf-auto35515" pointer-events="bounding-box"><path stroke-width="1.5" fill="none" d="M177.78 67L177.78 100"/></g><g class="vf-notehead" id="vf-auto35517" pointer-events="bounding-box"><path stroke="none" d="M180.961 70.054C184.555 70.054,188.964 66.741,188.964 63.315C188.964 61.237,187.335 59.946,185.033 59.946C180.596 59.946,177.03 63.231,177.03 66.685C177.03 68.791,178.771 70.054,180.961 70.054"/></g></g><g class="vf-stavenote" id="vf-auto35518"><g class="vf-stem" id="vf-auto35519" pointer-events="bounding-box"><path stroke-width="1.5" fill="none" d="M313.328 57L313.328 90"/></g><g class="vf-notehead" id="vf-auto35521" pointer-events="bounding-box"><path stroke="none" d="M316.509 60.054C320.103 60.054,324.512 56.741,324.512 53.315C324.512 51.237,322.883 49.946,320.581 49.946C316.144 49.946,312.578 53.231,312.578 56.685C312.578 58.791,314.319 60.054,316.509 60.054"/><path stroke="none" d="M253.077 47.008C253.077 46.634,252.89 46.447,252.516 46.447L252.497 46.447C252.104 46.447,251.917 46.634,251.917 47.008L251.917 72.992C251.917 73.366,252.104 73.553,252.497 73.553L252.516 73.553C252.89 73.553,253.077 73.366,253.077 72.992L253.077 61.179C253.077 60.973,253.209 60.992,253.321 61.03C254.032 61.217,255.155 61.909,255.717 64.961C255.811 65.391,255.96 65.635,256.241 65.635C256.541 65.635,256.672 65.373,256.803 64.905C257.158 63.725,257.776 62.396,259.686 62.396C261.445 62.396,261.932 64.118,261.932 67.656C261.932 71.195,261.296 72.786,259.068 72.786C258.693 72.786,256.765 72.617,256.765 72.056C256.765 71.906,257.215 71.756,257.495 71.644C258.038 71.457,258.581 70.914,258.581 69.884C258.581 68.705,257.795 68.031,256.747 68.031C255.586 68.031,254.669 68.817,254.669 70.24C254.669 71.943,256.148 73.647,259.367 73.647C263.785 73.647,265.732 70.539,265.732 67.731C265.732 64.025,263.673 61.423,260.097 61.423C259.311 61.423,258.787 61.572,258.45 61.666C258.169 61.76,257.907 61.797,257.664 61.647C257.289 61.404,256.69 60.543,256.69 60C256.69 59.457,257.289 58.596,257.664 58.353C257.907 58.203,258.169 58.24,258.45 58.334C258.787 58.428,259.311 58.577,260.097 58.577C263.673 58.577,265.732 55.975,265.732 52.269C265.732 49.461,263.785 46.353,259.367 46.353C256.148 46.353,254.669 48.057,254.669 49.76C254.669 51.183,255.586 51.969,256.747 51.969C257.795 51.969,258.581 51.295,258.581 50.116C258.581 49.086,258.038 48.543,257.495 48.356C257.215 48.244,256.765 48.094,256.765 47.944C256.765 47.383,258.693 47.214,259.068 47.214C261.296 47.214,261.932 48.805,261.932 52.344C261.932 55.882,261.445 57.604,259.686 57.604C257.776 57.604,257.158 56.275,256.803 55.095C256.672 54.627,256.541 54.365,256.241 54.365C255.96 54.365,255.811 54.609,255.717 55.039C255.155 58.091,254.032 58.783,253.321 58.97C253.209 59.008,253.077 59.027,253.077 58.821M247.443 46.447C247.068 46.447,246.881 46.634,246.881 47.008L246.881 72.992C246.881 73.366,247.068 73.553,247.443 73.553L249.764 73.553C250.138 73.553,250.326 73.366,250.326 72.992L250.326 47.008C250.326 46.634,250.138 46.447,249.764 46.447"/><path stroke="none" d="M272.322 52.864C270.829 52.864,269.507 54.015,269.507 55.532C269.507 55.679,269.507 55.777,269.531 55.924C269.874 58.176,272.64 58.788,274.525 58.788C277.218 58.739,279.715 57.442,280.988 55.043C281.771 53.55,282.359 51.689,282.359 50.024L282.359 49.902C282.335 48.262,282.041 46.45,281.282 45.031C279.813 42.411,278.099 41.163,275.137 41.163C273.546 41.163,271.784 41.408,270.511 42.411C269.287 43.415,268.479 45.006,268.479 46.573C268.479 49.339,271.074 51.689,273.791 51.689C274.917 51.689,276.092 51.273,276.998 50.465C277.071 50.392,277.145 50.392,277.218 50.392C277.439 50.392,277.536 50.661,277.536 51.224C277.439 57.76,275.358 57.932,274.599 57.932C273.913 57.932,273.448 57.76,273.448 57.393C273.448 56.903,274.109 56.487,274.33 56.071C274.501 55.753,274.574 55.386,274.574 55.043C274.574 54.504,274.403 53.99,274.036 53.599C273.791 53.133,272.763 52.864,272.322 52.864M275.235 50C274.109 50,273.155 48.237,273.155 46.059C273.155 43.856,274.109 42.093,275.235 42.093C276.361 42.093,277.292 43.856,277.292 46.059C277.292 48.237,276.361 50,275.235 50"/><path stroke="none" d="M279.507 68.727C280.78 67.919,281.612 66.769,281.612 65.006C281.612 61.408,276.447 60.869,275.492 60.869C271.404 60.869,268.613 62.729,268.613 65.692C268.613 68.14,269.984 69.437,271.673 70.392C269.837 71.273,268.442 72.424,268.442 74.651C268.442 77.711,271.6 79.131,275.101 79.131C278.626 79.131,282.396 77.613,282.396 72.864C282.396 70.734,281.172 69.584,279.507 68.727M277.671 67.919C274.856 66.94,271.845 66.328,271.845 64.125C271.845 62.632,273.877 61.897,275.419 61.897C276.545 61.897,279.532 62.46,279.532 64.933C279.532 66.328,278.846 67.258,277.671 67.919M274.954 77.956C272.604 77.956,270.449 76.756,270.449 74.48C270.449 73.06,271.673 71.763,273.24 71.175C275.811 72.301,278.405 73.036,278.405 75.361C278.405 76.756,277.328 77.956,274.954 77.956"/><g class="vf-stavebarline" id="vf-auto35559"><rect x="280.686" y="39.5" width="1" height="41" stroke="none"/><rect x="283.686" y="39.5" width="1" height="41" stroke="none"/></g></g></g><g class="vf-stavenote" id="vf-auto35522"><g class="vf-stem" id="vf-auto35523" pointer-events="bounding-box"><path stroke-width="1.5" fill="none" d="M448.876 67L448.876 100"/></g><g class="vf-notehead" id="vf-auto35525" pointer-events="bounding-box"><path stroke="none" d="M452.057 70.054C455.651 70.054,460.06 66.741,460.06 63.315C460.06 61.237,458.431 59.946,456.128 59.946C451.692 59.946,448.126 63.231,448.126 66.685C448.126 68.791,449.866 70.054,452.057 70.054"/><path stroke="none" d="M444.633 60.349C444.907 60.239,445.126 59.911,445.126 59.692L445.126 56.874C445.126 56.683,444.989 56.573,444.825 56.573C444.77 56.573,444.715 56.573,444.633 56.6C444.633 56.6,443.84 56.929,443.648 56.956C443.374 56.956,443.101 56.765,443.101 56.464L443.101 51.648C443.101 51.402,442.855 51.211,442.554 51.211C442.171 51.211,441.924 51.402,441.924 51.648L441.924 56.765C441.87 57.148,441.76 57.668,441.405 57.914C440.939 58.187,439.599 58.735,438.915 58.899C438.586 58.899,438.45 58.434,438.45 58.105L438.45 53.372C438.45 53.153,438.176 52.934,437.902 52.934C437.519 52.934,437.273 53.153,437.273 53.372L437.273 58.707C437.273 59.254,437.027 59.637,436.808 59.747C436.562 59.884,435.768 60.185,435.768 60.185C435.495 60.267,435.303 60.595,435.303 60.814L435.303 63.632C435.303 63.851,435.413 63.988,435.659 63.988L435.741 63.933C435.768 63.933,436.37 63.687,436.671 63.55L436.726 63.495C437.027 63.495,437.273 63.906,437.273 64.207L437.273 68.119C437.273 68.557,437.082 68.912,436.835 69.022C436.617 69.104,435.768 69.46,435.768 69.46C435.495 69.542,435.303 69.843,435.303 70.089L435.303 72.88C435.303 73.126,435.413 73.235,435.659 73.235L435.741 73.208C435.768 73.208,436.316 72.962,436.671 72.852C436.726 72.798,436.753 72.798,436.808 72.798C437.082 72.798,437.273 73.235,437.273 73.427L437.273 78.27C437.273 78.516,437.519 78.707,437.793 78.707C438.176 78.707,438.45 78.516,438.45 78.27L438.45 72.798C438.45 72.278,438.641 72.004,438.86 71.922L441.24 70.937C441.24 70.937,441.295 70.937,441.295 70.937L441.377 70.91C441.733 70.91,441.924 71.375,441.924 71.621L441.924 76.546C441.924 76.792,442.171 76.984,442.444 76.984C442.855 76.984,443.101 76.792,443.101 76.546L443.101 70.937C443.101 70.636,443.265 70.171,443.539 70.034C443.812 69.925,444.633 69.596,444.633 69.596C444.907 69.487,445.126 69.186,445.126 68.94L445.126 66.149C445.126 65.958,444.989 65.821,444.825 65.821C444.77 65.821,444.715 65.821,444.633 65.876L443.621 66.259C443.374 66.259,443.101 66.012,443.101 65.547L443.101 61.881C443.101 61.607,443.292 60.869,443.621 60.732M441.924 66.778C441.678 67.572,439.845 68.338,438.915 68.338C438.696 68.338,438.504 68.283,438.45 68.146C438.368 67.982,438.34 67.134,438.34 66.176C438.34 64.973,438.368 63.577,438.45 63.276C438.532 62.592,440.338 61.772,441.322 61.772C441.596 61.772,441.842 61.854,441.924 62.018C442.006 62.209,442.089 63.194,442.089 64.261C442.089 65.328,442.006 66.423,441.924 66.778"/></g></g><text stroke="none" font-size="8pt" x="41.482" y="150">14px</text><path stroke-width="3" fill="none" stroke="red" d="M41.482 157L41.482 157"/><path stroke-width="3" fill="none" stroke="#999" d="M41.482 157L41.482 157"/><path stroke-width="3" fill="none" stroke="green" d="M41.482 157L55.416 157"/><path stroke-width="3" fill="none" stroke="#999" d="M55.416 157L55.416 157"/><path stroke-width="3" fill="none" stroke="red" d="M55.416 157L55.416 157"/><path stroke-width="3" fill="none" stroke="#DD0" d="M55.416 157L107.484 157"/><path stroke-width="3" fill="none" stroke="#BBB" d="M41.482 157L41.482 157"/><path stroke-width="3" fill="blue" stroke="none" d="M44.482 157 A3 3 0 0 0 38.482 157 A3 3 0 0 0 44.482 157Z"/><text stroke-width="3" fill="red" stroke="none" font-size="8pt" x="41.482" y="140">+29</text><text stroke="none" font-size="8pt" x="107.484" y="150">81px</text><path stroke-width="3" fill="none" stroke="red" d="M107.484 157L177.03 157"/><path stroke-width="3" fill="none" stroke="#999" d="M177.03 157L177.03 157"/><path stroke-width="3" fill="none" stroke="green" d="M177.03 157L188.964 157"/><path stroke-width="3" fill="none" stroke="#999" d="M188.964 157L188.964 157"/><path stroke-width="3" fill="none" stroke="red" d="M188.964 157L188.964 157"/><path stroke-width="3" fill="none" stroke="#DD0" d="M188.964 157L246.881 157"/><path stroke-width="3" fill="none" stroke="#BBB" d="M107.484 157L107.484 157"/><path stroke-width="3" fill="blue" stroke="none" d="M180.03 157 A3 3 0 0 0 174.03 157 A3 3 0 0 0 180.03 157Z"/><text stroke-width="3" fill="red" stroke="none" font-size="8pt" x="177.03" y="140">+29</text><text stroke="none" font-size="8pt" x="246.881" y="150">78px</text><path stroke-width="3" fill="none" stroke="red" d="M246.881 157L312.578 157"/><path stroke-width="3" fill="none" stroke="#999" d="M312.578 157L312.578 157"/><path stroke-width="3" fill="none" stroke="green" d="M312.578 157L324.512 157"/><path stroke-width="3" fill="none" stroke="#999" d="M324.512 157L324.512 157"/><path stroke-width="3" fill="none" stroke="red" d="M324.512 157L324.512 157"/><path stroke-width="3" fill="none" stroke="#DD0" d="M324.512 157L411.452 157"/><path stroke-width="3" fill="none" stroke="#BBB" d="M246.881 157L246.881 157"/><path stroke-width="3" fill="blue" stroke="none" d="M315.578 157 A3 3 0 0 0 309.578 157 A3 3 0 0 0 315.578 157Z"/><text stroke-width="3" fill="red" stroke="none" font-size="8pt" x="312.578" y="140">+29</text><text stroke="none" font-size="8pt" x="411.452" y="150">49px</text><path stroke-width="3" fill="none" stroke="red" d="M411.452 157L448.126 157"/><path stroke-width="3" fill="none" stroke="#999" d="M448.126 157L448.126 157"/><path stroke-width="3" fill="none" stroke="green" d="M448.126 157L460.06 157"/><path stroke-width="3" fill="none" stroke="#999" d="M460.06 157L460.06 157"/><path stroke-width="3" fill="none" stroke="red" d="M460.06 157L460.06 157"/><path stroke-width="3" fill="none" stroke="#DD0" d="M460.06 157L530 157"/><path stroke-width="3" fill="none" stroke="#BBB" d="M411.452 157L411.452 157"/><path stroke-width="3" fill="blue" stroke="none" d="M451.126 157 A3 3 0 0 0 445.126 157 A3 3 0 0 0 451.126 157Z"/><text stroke-width="3" fill="red" stroke="none" font-size="8pt" x="448.126" y="140">-25</text></svg>