<svg xmlns="http://www.w3.org/2000/svg" stroke-width="0.3" stroke-dasharray="none" fill="black" stroke="black" font-family="Arial, sans-serif" font-size="10pt" font-weight="normal" font-style="normal" width="600" height="230" viewBox="0 0 600 230" style="width: 600px; height: 230px; border: none;"><g class="vf-stave" id="vf-auto28908" stroke-width="1" fill="#999999" stroke="#999999"><path fill="none" d="M0 80L285.794 80"/><path fill="none" d="M0 90L285.794 90"/><path fill="none" d="M0 100L285.794 100"/><path fill="none" d="M0 110L285.794 110"/><path fill="none" d="M0 120L285.794 120"/></g><g class="vf-stavebarline" id="vf-auto28909"><rect y="79.5" width="1" height="41" stroke="none"/></g><g class="vf-stavebarline" id="vf-auto28910"><rect x="285.794" y="79.5" width="1" height="41" stroke="none"/></g><path stroke="none" d="M20.696 50C20.917 50,21.064 50,21.26 49.976C23.659 49.657,25.47 48.262,26.596 46.132C26.792 45.74,26.914 45.349,26.914 44.933C26.914 44.223,26.523 43.513,25.788 42.974C25.029 42.46,24.197 42.289,23.389 42.044C22.288 41.677,21.431 41.04,21.113 39.89C21.088 39.767,21.064 39.645,21.064 39.572C21.064 39.425,21.088 39.327,21.308 39.278C21.48 39.204,21.651 39.204,21.872 39.204C22.826 39.204,24.222 39.669,24.589 40.379C24.76 40.796,24.956 40.942,25.176 40.942C25.397 40.942,25.641 40.722,25.886 40.551C26.449 40.159,26.988 39.718,27.331 39.106C27.404 39.008,27.428 38.886,27.428 38.788C27.428 38.69,27.404 38.617,27.331 38.519C26.67 37.319,25.152 36.634,23.708 36.634C22.679 36.634,21.651 37.001,20.941 37.687C20.231 38.445,19.644 39.253,19.105 40.086C18.836 40.526,18.738 41.016,18.738 41.505C18.738 42.362,19.081 43.17,19.742 43.733C20.452 44.321,21.308 44.468,22.116 44.737C22.826 44.957,23.512 45.177,23.952 45.887C24.124 46.157,24.344 46.475,24.344 46.793C24.344 46.891,24.295 47.013,24.295 47.062C24.197 47.332,23.977 47.356,23.805 47.381C23.634 47.381,23.512 47.356,23.414 47.356L23.34 47.356C21.896 47.381,20.819 46.94,19.791 46.157C19.546 46.01,19.35 45.838,19.35 45.569L19.35 45.496C19.35 45.349,19.497 45.202,19.497 45.055C19.497 45.006,19.472 44.933,19.35 44.884C19.007 44.737,18.763 45.006,18.542 45.251C18.028 45.887,17.636 46.622,17.171 47.332C17.073 47.528,17 47.699,17 47.895C17 48.091,17.098 48.335,17.318 48.531C18.297 49.437,19.472 50,20.696 50"/><path stroke="none" d="M24.528 54.064C27.171 53.745,30.672 50.734,31.235 48.14C31.7 45.985,31.945 43.807,32.043 41.579C32.532 41.603,33.022 41.652,33.561 41.726C34.76 41.848,35.641 41.163,36.4 40.33C36.621 40.086,36.719 39.914,36.719 39.743C36.719 39.498,36.474 39.327,35.984 39.18C35.837 39.131,35.715 39.131,35.568 39.131C34.393 39.008,33.242 38.886,32.043 38.862L32.043 38.396C31.994 37.882,31.945 37.319,31.945 36.781C31.945 36.365,31.969 35.9,32.116 35.483C32.263 34.994,32.508 34.724,32.777 34.724C32.998 34.724,33.193 34.847,33.487 35.018C34.026 35.41,34.393 35.875,34.54 36.487C34.638 36.928,34.907 36.952,35.225 36.952C35.96 36.952,37.869 35.728,37.967 35.043C38.065 34.137,37.355 33.574,36.768 32.962C36.67 32.864,36.474 32.791,36.351 32.717C35.739 32.374,35.152 32.228,34.54 32.228C33.659 32.228,32.851 32.595,32.067 33.256C30.305 34.773,28.469 36.291,28.469 38.862L27.245 38.862C26.976 38.862,26.682 38.886,26.437 39.033C25.654 39.572,25.14 40.281,24.503 40.893C24.356 41.016,24.332 41.163,24.332 41.261C24.332 41.359,24.43 41.481,24.674 41.505C24.944 41.53,25.213 41.53,25.458 41.53C25.947 41.579,26.461 41.579,27 41.579L28.542 41.579C28.542 42.876,28.444 44.149,28.297 45.447C28.126 46.964,28.028 48.531,27.563 50C27.245 51.028,26.853 51.469,26.143 51.469C25.898 51.469,25.58 51.42,25.213 51.273C25.066 51.2,24.919 51.175,24.772 51.175C24.65 51.175,24.503 51.2,24.332 51.297C23.499 51.763,22.887 52.424,22.128 53.036C22.031 53.133,21.933 53.231,21.933 53.354C21.933 53.452,22.031 53.55,22.251 53.623C22.985 53.917,23.769 54.113,24.528 54.064"/><path stroke="none" d="M37.898 50C38.217 50,38.584 49.755,38.853 49.608C38.927 49.608,39 49.535,39.073 49.51C40.2 48.825,41.35 48.531,42.525 48.531C43.651 48.531,44.826 48.874,45.952 49.461C46.466 49.755,47.005 49.902,47.519 49.902C48.621 49.902,49.649 49.266,50.285 48.164C50.359 48.017,50.432 47.895,50.457 47.772C50.457 47.674,50.383 47.576,50.163 47.454C48.841 46.793,47.519 45.912,46.026 45.765C45.634 45.74,45.242 45.692,44.851 45.692C44.312 45.692,43.749 45.74,43.113 45.74C44.777 44.223,46.295 42.803,47.984 41.677C48.841 41.114,49.575 40.404,50.236 39.645C50.432 39.449,50.628 39.18,50.677 38.886C50.677 38.837,50.628 38.764,50.604 38.69C50.481 38.519,50.31 38.445,50.114 38.445C49.918 38.445,49.747 38.519,49.575 38.543C48.939 38.715,48.302 38.862,47.715 39.033C46.515 39.4,45.316 39.669,44.141 39.669C43.333 39.669,42.525 39.523,41.668 39.18C41.546 39.131,41.424 39.106,41.301 39.106C41.081 39.106,40.86 39.18,40.689 39.4C40.371 39.743,39.955 40.061,39.661 40.453C39.392 40.869,38.584 41.261,38.78 41.603C39.073 42.166,39.881 42.313,40.542 42.387L40.909 42.387C41.326 42.46,41.791 42.485,42.231 42.485C43.113 42.485,43.969 42.387,44.875 42.313L43.725 43.366C41.864 45.202,39.465 46.45,38.094 48.776C37.874 49.119,37.311 49.51,37.556 49.829C37.654 49.927,37.776 50,37.898 50"/><path stroke="none" d="M53.563 53.182C53.661 53.182,53.808 53.133,53.979 53.06C54.983 52.791,56.06 51.297,56.133 50.22C56.231 48.482,56.452 46.818,56.55 45.104C56.599 44.81,56.623 44.492,56.623 44.174C57.504 42.876,58.998 42.142,60.54 42.142C60.956 42.142,61.421 42.215,61.886 42.313C62.033 42.362,62.131 42.411,62.229 42.411C62.302 42.411,62.351 42.411,62.4 42.387C63.037 42.24,64.359 40.477,64.359 39.841C64.383 39.498,64.138 39.498,63.918 39.4C63.477 39.204,63.012 39.106,62.547 39.106C61.837 39.106,61.176 39.278,60.466 39.498C59.169 39.89,57.945 40.379,57.088 41.53C56.99 41.726,56.868 41.848,56.745 42.044C56.77 41.114,56.696 40.232,56.623 39.278C56.599 38.837,56.28 38.543,55.962 38.543C55.815 38.543,55.644 38.617,55.472 38.788C54.126 39.988,52.608 41.016,51.458 42.411C51.091 42.925,50.601 43.366,50.356 44.125C51.776 43.733,52.682 42.729,53.783 41.922C53.906 42.166,53.906 42.362,53.906 42.558L53.906 42.852C53.661 46.059,53.49 49.266,53.245 52.472C53.22 52.938,53.294 53.182,53.563 53.182"/><path stroke="none" d="M62.528 54.064C65.171 53.745,68.672 50.734,69.235 48.14C69.7 45.985,69.945 43.807,70.043 41.579C70.532 41.603,71.022 41.652,71.561 41.726C72.76 41.848,73.641 41.163,74.4 40.33C74.621 40.086,74.719 39.914,74.719 39.743C74.719 39.498,74.474 39.327,73.984 39.18C73.837 39.131,73.715 39.131,73.568 39.131C72.393 39.008,71.242 38.886,70.043 38.862L70.043 38.396C69.994 37.882,69.945 37.319,69.945 36.781C69.945 36.365,69.969 35.9,70.116 35.483C70.263 34.994,70.508 34.724,70.777 34.724C70.998 34.724,71.193 34.847,71.487 35.018C72.026 35.41,72.393 35.875,72.54 36.487C72.638 36.928,72.907 36.952,73.225 36.952C73.96 36.952,75.869 35.728,75.967 35.043C76.065 34.137,75.355 33.574,74.768 32.962C74.67 32.864,74.474 32.791,74.351 32.717C73.739 32.374,73.152 32.228,72.54 32.228C71.659 32.228,70.851 32.595,70.067 33.256C68.305 34.773,66.469 36.291,66.469 38.862L65.245 38.862C64.976 38.862,64.682 38.886,64.437 39.033C63.654 39.572,63.14 40.281,62.503 40.893C62.356 41.016,62.332 41.163,62.332 41.261C62.332 41.359,62.43 41.481,62.674 41.505C62.944 41.53,63.213 41.53,63.458 41.53C63.947 41.579,64.461 41.579,65 41.579L66.542 41.579C66.542 42.876,66.444 44.149,66.297 45.447C66.126 46.964,66.028 48.531,65.563 50C65.245 51.028,64.853 51.469,64.143 51.469C63.898 51.469,63.58 51.42,63.213 51.273C63.066 51.2,62.919 51.175,62.772 51.175C62.65 51.175,62.503 51.2,62.332 51.297C61.499 51.763,60.887 52.424,60.128 53.036C60.031 53.133,59.933 53.231,59.933 53.354C59.933 53.452,60.031 53.55,60.251 53.623C60.985 53.917,61.769 54.113,62.528 54.064"/><path stroke="none" d="M75.898 50C76.217 50,76.584 49.755,76.853 49.608C76.927 49.608,77 49.535,77.073 49.51C78.2 48.825,79.35 48.531,80.525 48.531C81.651 48.531,82.826 48.874,83.952 49.461C84.466 49.755,85.005 49.902,85.519 49.902C86.621 49.902,87.649 49.266,88.285 48.164C88.359 48.017,88.432 47.895,88.457 47.772C88.457 47.674,88.383 47.576,88.163 47.454C86.841 46.793,85.519 45.912,84.026 45.765C83.634 45.74,83.242 45.692,82.851 45.692C82.312 45.692,81.749 45.74,81.113 45.74C82.777 44.223,84.295 42.803,85.984 41.677C86.841 41.114,87.575 40.404,88.236 39.645C88.432 39.449,88.628 39.18,88.677 38.886C88.677 38.837,88.628 38.764,88.604 38.69C88.481 38.519,88.31 38.445,88.114 38.445C87.918 38.445,87.747 38.519,87.575 38.543C86.939 38.715,86.302 38.862,85.715 39.033C84.515 39.4,83.316 39.669,82.141 39.669C81.333 39.669,80.525 39.523,79.668 39.18C79.546 39.131,79.424 39.106,79.301 39.106C79.081 39.106,78.86 39.18,78.689 39.4C78.371 39.743,77.955 40.061,77.661 40.453C77.392 40.869,76.584 41.261,76.78 41.603C77.073 42.166,77.881 42.313,78.542 42.387L78.909 42.387C79.326 42.46,79.791 42.485,80.231 42.485C81.113 42.485,81.969 42.387,82.875 42.313L81.725 43.366C79.864 45.202,77.465 46.45,76.094 48.776C75.874 49.119,75.311 49.51,75.556 49.829C75.654 49.927,75.776 50,75.898 50"/><path stroke="none" d="M92.053 51.738C93.105 51.738,94.501 50.636,94.917 49.535C95.627 47.576,95.896 45.496,96.63 43.537C96.949 42.729,97.34 41.995,97.903 41.114C97.977 41.505,98.026 41.848,98.026 42.166C98.026 42.534,97.977 42.852,97.952 43.17L97.096 50.294C97.071 50.71,96.998 51.053,97.732 51.053C98.858 51.053,100.523 49.927,100.67 48.898C100.939 46.964,101.673 45.177,102.31 43.366C102.628 42.411,102.995 41.481,103.803 40.526L103.803 41.53C103.754 43.292,103.558 45.055,103.338 46.818C103.264 47.209,103.264 47.601,103.264 48.017C103.264 48.654,103.338 49.29,103.485 49.927C103.754 51.175,104.293 51.763,105.198 51.763C105.517 51.763,105.884 51.689,106.3 51.542C107.891 51.053,109.213 50.073,110.315 48.776C110.462 48.629,110.706 48.458,110.706 48.237C110.706 48.14,110.633 48.017,110.535 47.919C110.388 47.772,110.217 47.699,110.045 47.699C109.85 47.699,109.678 47.772,109.482 47.919L107.965 49.021C107.769 49.119,107.646 49.192,107.524 49.192C107.353 49.192,107.206 49.045,107.108 48.727C106.936 47.993,106.79 47.258,106.79 46.475C106.692 43.978,107.157 41.53,107.108 39.033C107.108 38.127,106.618 37.589,105.835 37.589C105.664 37.589,105.492 37.638,105.272 37.662C104.391 37.833,103.754 38.47,103.118 39.082C102.53 39.645,101.967 40.232,101.282 40.869C101.233 40.061,101.233 39.425,101.11 38.788C100.988 38.005,100.449 37.589,99.837 37.589C99.495 37.589,99.152 37.736,98.834 37.98C97.267 39.131,96.067 40.649,94.917 42.485L94.917 41.75C94.917 40.526,95.26 39.278,95.26 38.054C95.26 37.736,95.235 37.442,94.819 37.246C94.623 37.172,94.501 37.124,94.354 37.124C94.109 37.124,93.889 37.27,93.668 37.442C92.616 38.323,91.563 39.253,90.608 40.232C90.51 40.33,90.364 40.477,90.364 40.624L90.364 40.722C90.412 40.893,90.51 40.942,90.657 40.942C90.706 40.942,90.78 40.893,90.853 40.893C91.098 40.844,91.294 40.796,91.465 40.796C91.783 40.796,91.881 40.942,91.881 41.212C91.881 41.432,91.857 41.652,91.734 41.922L91.734 42.093C91.563 45.031,91.416 47.919,91.22 50.857C91.147 51.591,91.465 51.738,92.053 51.738"/><path stroke="none" d="M106.629 54.994C106.727 54.994,106.874 54.969,106.972 54.945C107.143 54.945,107.364 54.823,107.535 54.749C108.857 54.162,110.228 53.696,111.599 53.378C112.749 53.109,113.459 52.326,114.096 51.42C114.242 51.224,114.414 50.955,114.414 50.71C114.414 50.588,114.389 50.49,114.316 50.416C114.169 50.245,113.924 50.171,113.679 50.171C113.508 50.171,113.312 50.22,113.141 50.294C112.504 50.563,111.843 50.734,111.06 50.979C111.745 49.535,112.186 48.066,112.48 46.573C113.067 46.475,113.63 46.255,114.144 45.912C117.376 43.586,119.75 40.649,119.481 37.319C119.555 34.676,118.282 33.182,116.739 33.182C116.421 33.182,116.078 33.256,115.711 33.403C114.83 33.745,113.875 34.48,112.994 35.312C113.043 34.455,113.116 33.598,113.141 32.766C113.19 32.619,113.263 32.472,113.263 32.35C113.263 32.203,113.19 32.13,113.043 32.056C112.823 31.983,112.627 31.836,112.406 31.836C112.308 31.836,112.162 31.885,112.015 32.032C110.644 33.256,108.881 34.21,108.024 35.924C107.976 36.071,107.829 36.218,107.829 36.365C107.829 36.389,107.829 36.438,107.853 36.463C107.927 36.609,108.073 36.609,108.171 36.609L108.416 36.609C109.053 36.609,109.444 36.12,110.007 35.924L110.007 38.935C110.007 42.24,109.983 45.594,109.371 48.874C109.2 49.829,109.126 50.881,108.416 51.616C107.682 52.424,107.094 53.305,106.482 54.235C106.384 54.382,106.262 54.504,106.262 54.7C106.262 54.725,106.311 54.798,106.335 54.872C106.409 54.969,106.531 54.994,106.629 54.994M112.798 43.684C112.823 43.611,112.823 43.537,112.823 43.488C112.896 41.505,112.872 39.498,112.896 37.515C113.141 37.246,113.435 36.952,113.704 36.707C114.096 36.438,114.512 36.291,114.879 36.291C115.589 36.291,116.152 36.781,116.323 37.687C116.397 38.054,116.421 38.396,116.421 38.715C116.421 39.89,116.152 40.967,115.858 42.093C115.711 42.656,115.222 43.121,114.561 43.341C113.998 43.513,113.386 43.611,112.798 43.684"/><path stroke="none" d="M122.629 54.994C122.727 54.994,122.874 54.969,122.972 54.945C123.143 54.945,123.364 54.823,123.535 54.749C124.857 54.162,126.228 53.696,127.599 53.378C128.749 53.109,129.459 52.326,130.096 51.42C130.242 51.224,130.414 50.955,130.414 50.71C130.414 50.588,130.389 50.49,130.316 50.416C130.169 50.245,129.924 50.171,129.679 50.171C129.508 50.171,129.312 50.22,129.141 50.294C128.504 50.563,127.843 50.734,127.06 50.979C127.745 49.535,128.186 48.066,128.48 46.573C129.067 46.475,129.63 46.255,130.144 45.912C133.376 43.586,135.75 40.649,135.481 37.319C135.555 34.676,134.282 33.182,132.739 33.182C132.421 33.182,132.078 33.256,131.711 33.403C130.83 33.745,129.875 34.48,128.994 35.312C129.043 34.455,129.116 33.598,129.141 32.766C129.19 32.619,129.263 32.472,129.263 32.35C129.263 32.203,129.19 32.13,129.043 32.056C128.823 31.983,128.627 31.836,128.406 31.836C128.308 31.836,128.162 31.885,128.015 32.032C126.644 33.256,124.881 34.21,124.024 35.924C123.976 36.071,123.829 36.218,123.829 36.365C123.829 36.389,123.829 36.438,123.853 36.463C123.927 36.609,124.073 36.609,124.171 36.609L124.416 36.609C125.053 36.609,125.444 36.12,126.007 35.924L126.007 38.935C126.007 42.24,125.983 45.594,125.371 48.874C125.2 49.829,125.126 50.881,124.416 51.616C123.682 52.424,123.094 53.305,122.482 54.235C122.384 54.382,122.262 54.504,122.262 54.7C122.262 54.725,122.311 54.798,122.335 54.872C122.409 54.969,122.531 54.994,122.629 54.994M128.798 43.684C128.823 43.611,128.823 43.537,128.823 43.488C128.896 41.505,128.872 39.498,128.896 37.515C129.141 37.246,129.435 36.952,129.704 36.707C130.096 36.438,130.512 36.291,130.879 36.291C131.589 36.291,132.152 36.781,132.323 37.687C132.397 38.054,132.421 38.396,132.421 38.715C132.421 39.89,132.152 40.967,131.858 42.093C131.711 42.656,131.222 43.121,130.561 43.341C129.998 43.513,129.386 43.611,128.798 43.684"/><path stroke="none" d="M136.629 54.994C136.727 54.994,136.874 54.969,136.972 54.945C137.143 54.945,137.364 54.823,137.535 54.749C138.857 54.162,140.228 53.696,141.599 53.378C142.749 53.109,143.459 52.326,144.096 51.42C144.242 51.224,144.414 50.955,144.414 50.71C144.414 50.588,144.389 50.49,144.316 50.416C144.169 50.245,143.924 50.171,143.679 50.171C143.508 50.171,143.312 50.22,143.141 50.294C142.504 50.563,141.843 50.734,141.06 50.979C141.745 49.535,142.186 48.066,142.48 46.573C143.067 46.475,143.63 46.255,144.144 45.912C147.376 43.586,149.75 40.649,149.481 37.319C149.555 34.676,148.282 33.182,146.739 33.182C146.421 33.182,146.078 33.256,145.711 33.403C144.83 33.745,143.875 34.48,142.994 35.312C143.043 34.455,143.116 33.598,143.141 32.766C143.19 32.619,143.263 32.472,143.263 32.35C143.263 32.203,143.19 32.13,143.043 32.056C142.823 31.983,142.627 31.836,142.406 31.836C142.308 31.836,142.162 31.885,142.015 32.032C140.644 33.256,138.881 34.21,138.024 35.924C137.976 36.071,137.829 36.218,137.829 36.365C137.829 36.389,137.829 36.438,137.853 36.463C137.927 36.609,138.073 36.609,138.171 36.609L138.416 36.609C139.053 36.609,139.444 36.12,140.007 35.924L140.007 38.935C140.007 42.24,139.983 45.594,139.371 48.874C139.2 49.829,139.126 50.881,138.416 51.616C137.682 52.424,137.094 53.305,136.482 54.235C136.384 54.382,136.262 54.504,136.262 54.7C136.262 54.725,136.311 54.798,136.335 54.872C136.409 54.969,136.531 54.994,136.629 54.994M142.798 43.684C142.823 43.611,142.823 43.537,142.823 43.488C142.896 41.505,142.872 39.498,142.896 37.515C143.141 37.246,143.435 36.952,143.704 36.707C144.096 36.438,144.512 36.291,144.879 36.291C145.589 36.291,146.152 36.781,146.323 37.687C146.397 38.054,146.421 38.396,146.421 38.715C146.421 39.89,146.152 40.967,145.858 42.093C145.711 42.656,145.222 43.121,144.561 43.341C143.998 43.513,143.386 43.611,142.798 43.684"/><path stroke="none" d="M150.629 54.994C150.727 54.994,150.874 54.969,150.972 54.945C151.143 54.945,151.364 54.823,151.535 54.749C152.857 54.162,154.228 53.696,155.599 53.378C156.749 53.109,157.459 52.326,158.096 51.42C158.242 51.224,158.414 50.955,158.414 50.71C158.414 50.588,158.389 50.49,158.316 50.416C158.169 50.245,157.924 50.171,157.679 50.171C157.508 50.171,157.312 50.22,157.141 50.294C156.504 50.563,155.843 50.734,155.06 50.979C155.745 49.535,156.186 48.066,156.48 46.573C157.067 46.475,157.63 46.255,158.144 45.912C161.376 43.586,163.75 40.649,163.481 37.319C163.555 34.676,162.282 33.182,160.739 33.182C160.421 33.182,160.078 33.256,159.711 33.403C158.83 33.745,157.875 34.48,156.994 35.312C157.043 34.455,157.116 33.598,157.141 32.766C157.19 32.619,157.263 32.472,157.263 32.35C157.263 32.203,157.19 32.13,157.043 32.056C156.823 31.983,156.627 31.836,156.406 31.836C156.308 31.836,156.162 31.885,156.015 32.032C154.644 33.256,152.881 34.21,152.024 35.924C151.976 36.071,151.829 36.218,151.829 36.365C151.829 36.389,151.829 36.438,151.853 36.463C151.927 36.609,152.073 36.609,152.171 36.609L152.416 36.609C153.053 36.609,153.444 36.12,154.007 35.924L154.007 38.935C154.007 42.24,153.983 45.594,153.371 48.874C153.2 49.829,153.126 50.881,152.416 51.616C151.682 52.424,151.094 53.305,150.482 54.235C150.384 54.382,150.262 54.504,150.262 54.7C150.262 54.725,150.311 54.798,150.335 54.872C150.409 54.969,150.531 54.994,150.629 54.994M156.798 43.684C156.823 43.611,156.823 43.537,156.823 43.488C156.896 41.505,156.872 39.498,156.896 37.515C157.141 37.246,157.435 36.952,157.704 36.707C158.096 36.438,158.512 36.291,158.879 36.291C159.589 36.291,160.152 36.781,160.323 37.687C160.397 38.054,160.421 38.396,160.421 38.715C160.421 39.89,160.152 40.967,159.858 42.093C159.711 42.656,159.222 43.121,158.561 43.341C157.998 43.513,157.386 43.611,156.798 43.684"/><path stroke="none" d="M165.528 54.064C168.171 53.745,171.672 50.734,172.235 48.14C172.7 45.985,172.945 43.807,173.043 41.579C173.532 41.603,174.022 41.652,174.561 41.726C175.76 41.848,176.641 41.163,177.4 40.33C177.621 40.086,177.719 39.914,177.719 39.743C177.719 39.498,177.474 39.327,176.984 39.18C176.837 39.131,176.715 39.131,176.568 39.131C175.393 39.008,174.242 38.886,173.043 38.862L173.043 38.396C172.994 37.882,172.945 37.319,172.945 36.781C172.945 36.365,172.969 35.9,173.116 35.483C173.263 34.994,173.508 34.724,173.777 34.724C173.998 34.724,174.193 34.847,174.487 35.018C175.026 35.41,175.393 35.875,175.54 36.487C175.638 36.928,175.907 36.952,176.225 36.952C176.96 36.952,178.869 35.728,178.967 35.043C179.065 34.137,178.355 33.574,177.768 32.962C177.67 32.864,177.474 32.791,177.351 32.717C176.739 32.374,176.152 32.228,175.54 32.228C174.659 32.228,173.851 32.595,173.067 33.256C171.305 34.773,169.469 36.291,169.469 38.862L168.245 38.862C167.976 38.862,167.682 38.886,167.437 39.033C166.654 39.572,166.14 40.281,165.503 40.893C165.356 41.016,165.332 41.163,165.332 41.261C165.332 41.359,165.43 41.481,165.674 41.505C165.944 41.53,166.213 41.53,166.458 41.53C166.947 41.579,167.461 41.579,168 41.579L169.542 41.579C169.542 42.876,169.444 44.149,169.297 45.447C169.126 46.964,169.028 48.531,168.563 50C168.245 51.028,167.853 51.469,167.143 51.469C166.898 51.469,166.58 51.42,166.213 51.273C166.066 51.2,165.919 51.175,165.772 51.175C165.65 51.175,165.503 51.2,165.332 51.297C164.499 51.763,163.887 52.424,163.128 53.036C163.031 53.133,162.933 53.231,162.933 53.354C162.933 53.452,163.031 53.55,163.251 53.623C163.985 53.917,164.769 54.113,165.528 54.064"/><path stroke="none" d="M177.528 54.064C180.171 53.745,183.672 50.734,184.235 48.14C184.7 45.985,184.945 43.807,185.043 41.579C185.532 41.603,186.022 41.652,186.561 41.726C187.76 41.848,188.641 41.163,189.4 40.33C189.621 40.086,189.719 39.914,189.719 39.743C189.719 39.498,189.474 39.327,188.984 39.18C188.837 39.131,188.715 39.131,188.568 39.131C187.393 39.008,186.242 38.886,185.043 38.862L185.043 38.396C184.994 37.882,184.945 37.319,184.945 36.781C184.945 36.365,184.969 35.9,185.116 35.483C185.263 34.994,185.508 34.724,185.777 34.724C185.998 34.724,186.193 34.847,186.487 35.018C187.026 35.41,187.393 35.875,187.54 36.487C187.638 36.928,187.907 36.952,188.225 36.952C188.96 36.952,190.869 35.728,190.967 35.043C191.065 34.137,190.355 33.574,189.768 32.962C189.67 32.864,189.474 32.791,189.351 32.717C188.739 32.374,188.152 32.228,187.54 32.228C186.659 32.228,185.851 32.595,185.067 33.256C183.305 34.773,181.469 36.291,181.469 38.862L180.245 38.862C179.976 38.862,179.682 38.886,179.437 39.033C178.654 39.572,178.14 40.281,177.503 40.893C177.356 41.016,177.332 41.163,177.332 41.261C177.332 41.359,177.43 41.481,177.674 41.505C177.944 41.53,178.213 41.53,178.458 41.53C178.947 41.579,179.461 41.579,180 41.579L181.542 41.579C181.542 42.876,181.444 44.149,181.297 45.447C181.126 46.964,181.028 48.531,180.563 50C180.245 51.028,179.853 51.469,179.143 51.469C178.898 51.469,178.58 51.42,178.213 51.273C178.066 51.2,177.919 51.175,177.772 51.175C177.65 51.175,177.503 51.2,177.332 51.297C176.499 51.763,175.887 52.424,175.128 53.036C175.031 53.133,174.933 53.231,174.933 53.354C174.933 53.452,175.031 53.55,175.251 53.623C175.985 53.917,176.769 54.113,177.528 54.064"/><path stroke="none" d="M189.528 54.064C192.171 53.745,195.672 50.734,196.235 48.14C196.7 45.985,196.945 43.807,197.043 41.579C197.532 41.603,198.022 41.652,198.561 41.726C199.76 41.848,200.641 41.163,201.4 40.33C201.621 40.086,201.719 39.914,201.719 39.743C201.719 39.498,201.474 39.327,200.984 39.18C200.837 39.131,200.715 39.131,200.568 39.131C199.393 39.008,198.242 38.886,197.043 38.862L197.043 38.396C196.994 37.882,196.945 37.319,196.945 36.781C196.945 36.365,196.969 35.9,197.116 35.483C197.263 34.994,197.508 34.724,197.777 34.724C197.998 34.724,198.193 34.847,198.487 35.018C199.026 35.41,199.393 35.875,199.54 36.487C199.638 36.928,199.907 36.952,200.225 36.952C200.96 36.952,202.869 35.728,202.967 35.043C203.065 34.137,202.355 33.574,201.768 32.962C201.67 32.864,201.474 32.791,201.351 32.717C200.739 32.374,200.152 32.228,199.54 32.228C198.659 32.228,197.851 32.595,197.067 33.256C195.305 34.773,193.469 36.291,193.469 38.862L192.245 38.862C191.976 38.862,191.682 38.886,191.437 39.033C190.654 39.572,190.14 40.281,189.503 40.893C189.356 41.016,189.332 41.163,189.332 41.261C189.332 41.359,189.43 41.481,189.674 41.505C189.944 41.53,190.213 41.53,190.458 41.53C190.947 41.579,191.461 41.579,192 41.579L193.542 41.579C193.542 42.876,193.444 44.149,193.297 45.447C193.126 46.964,193.028 48.531,192.563 50C192.245 51.028,191.853 51.469,191.143 51.469C190.898 51.469,190.58 51.42,190.213 51.273C190.066 51.2,189.919 51.175,189.772 51.175C189.65 51.175,189.503 51.2,189.332 51.297C188.499 51.763,187.887 52.424,187.128 53.036C187.031 53.133,186.933 53.231,186.933 53.354C186.933 53.452,187.031 53.55,187.251 53.623C187.985 53.917,188.769 54.113,189.528 54.064"/><path stroke="none" d="M207.053 51.738C208.105 51.738,209.501 50.636,209.917 49.535C210.627 47.576,210.896 45.496,211.63 43.537C211.949 42.729,212.34 41.995,212.903 41.114C212.977 41.505,213.026 41.848,213.026 42.166C213.026 42.534,212.977 42.852,212.952 43.17L212.096 50.294C212.071 50.71,211.998 51.053,212.732 51.053C213.858 51.053,215.523 49.927,215.67 48.898C215.939 46.964,216.673 45.177,217.31 43.366C217.628 42.411,217.995 41.481,218.803 40.526L218.803 41.53C218.754 43.292,218.558 45.055,218.338 46.818C218.264 47.209,218.264 47.601,218.264 48.017C218.264 48.654,218.338 49.29,218.485 49.927C218.754 51.175,219.293 51.763,220.198 51.763C220.517 51.763,220.884 51.689,221.3 51.542C222.891 51.053,224.213 50.073,225.315 48.776C225.462 48.629,225.706 48.458,225.706 48.237C225.706 48.14,225.633 48.017,225.535 47.919C225.388 47.772,225.217 47.699,225.045 47.699C224.85 47.699,224.678 47.772,224.482 47.919L222.965 49.021C222.769 49.119,222.646 49.192,222.524 49.192C222.353 49.192,222.206 49.045,222.108 48.727C221.936 47.993,221.79 47.258,221.79 46.475C221.692 43.978,222.157 41.53,222.108 39.033C222.108 38.127,221.618 37.589,220.835 37.589C220.664 37.589,220.492 37.638,220.272 37.662C219.391 37.833,218.754 38.47,218.118 39.082C217.53 39.645,216.967 40.232,216.282 40.869C216.233 40.061,216.233 39.425,216.11 38.788C215.988 38.005,215.449 37.589,214.837 37.589C214.495 37.589,214.152 37.736,213.834 37.98C212.267 39.131,211.067 40.649,209.917 42.485L209.917 41.75C209.917 40.526,210.26 39.278,210.26 38.054C210.26 37.736,210.235 37.442,209.819 37.246C209.623 37.172,209.501 37.124,209.354 37.124C209.109 37.124,208.889 37.27,208.668 37.442C207.616 38.323,206.563 39.253,205.608 40.232C205.51 40.33,205.364 40.477,205.364 40.624L205.364 40.722C205.412 40.893,205.51 40.942,205.657 40.942C205.706 40.942,205.78 40.893,205.853 40.893C206.098 40.844,206.294 40.796,206.465 40.796C206.783 40.796,206.881 40.942,206.881 41.212C206.881 41.432,206.857 41.652,206.734 41.922L206.734 42.093C206.563 45.031,206.416 47.919,206.22 50.857C206.147 51.591,206.465 51.738,207.053 51.738"/><path stroke="none" d="M220.528 54.064C223.171 53.745,226.672 50.734,227.235 48.14C227.7 45.985,227.945 43.807,228.043 41.579C228.532 41.603,229.022 41.652,229.561 41.726C230.76 41.848,231.641 41.163,232.4 40.33C232.621 40.086,232.719 39.914,232.719 39.743C232.719 39.498,232.474 39.327,231.984 39.18C231.837 39.131,231.715 39.131,231.568 39.131C230.393 39.008,229.242 38.886,228.043 38.862L228.043 38.396C227.994 37.882,227.945 37.319,227.945 36.781C227.945 36.365,227.969 35.9,228.116 35.483C228.263 34.994,228.508 34.724,228.777 34.724C228.998 34.724,229.193 34.847,229.487 35.018C230.026 35.41,230.393 35.875,230.54 36.487C230.638 36.928,230.907 36.952,231.225 36.952C231.96 36.952,233.869 35.728,233.967 35.043C234.065 34.137,233.355 33.574,232.768 32.962C232.67 32.864,232.474 32.791,232.351 32.717C231.739 32.374,231.152 32.228,230.54 32.228C229.659 32.228,228.851 32.595,228.067 33.256C226.305 34.773,224.469 36.291,224.469 38.862L223.245 38.862C222.976 38.862,222.682 38.886,222.437 39.033C221.654 39.572,221.14 40.281,220.503 40.893C220.356 41.016,220.332 41.163,220.332 41.261C220.332 41.359,220.43 41.481,220.674 41.505C220.944 41.53,221.213 41.53,221.458 41.53C221.947 41.579,222.461 41.579,223 41.579L224.542 41.579C224.542 42.876,224.444 44.149,224.297 45.447C224.126 46.964,224.028 48.531,223.563 50C223.245 51.028,222.853 51.469,222.143 51.469C221.898 51.469,221.58 51.42,221.213 51.273C221.066 51.2,220.919 51.175,220.772 51.175C220.65 51.175,220.503 51.2,220.332 51.297C219.499 51.763,218.887 52.424,218.128 53.036C218.031 53.133,217.933 53.231,217.933 53.354C217.933 53.452,218.031 53.55,218.251 53.623C218.985 53.917,219.769 54.113,220.528 54.064"/><path stroke="none" d="M240.696 50C240.917 50,241.064 50,241.26 49.976C243.659 49.657,245.47 48.262,246.596 46.132C246.792 45.74,246.914 45.349,246.914 44.933C246.914 44.223,246.523 43.513,245.788 42.974C245.029 42.46,244.197 42.289,243.389 42.044C242.288 41.677,241.431 41.04,241.113 39.89C241.088 39.767,241.064 39.645,241.064 39.572C241.064 39.425,241.088 39.327,241.308 39.278C241.48 39.204,241.651 39.204,241.872 39.204C242.826 39.204,244.222 39.669,244.589 40.379C244.76 40.796,244.956 40.942,245.176 40.942C245.397 40.942,245.641 40.722,245.886 40.551C246.449 40.159,246.988 39.718,247.331 39.106C247.404 39.008,247.428 38.886,247.428 38.788C247.428 38.69,247.404 38.617,247.331 38.519C246.67 37.319,245.152 36.634,243.708 36.634C242.679 36.634,241.651 37.001,240.941 37.687C240.231 38.445,239.644 39.253,239.105 40.086C238.836 40.526,238.738 41.016,238.738 41.505C238.738 42.362,239.081 43.17,239.742 43.733C240.452 44.321,241.308 44.468,242.116 44.737C242.826 44.957,243.512 45.177,243.952 45.887C244.124 46.157,244.344 46.475,244.344 46.793C244.344 46.891,244.295 47.013,244.295 47.062C244.197 47.332,243.977 47.356,243.805 47.381C243.634 47.381,243.512 47.356,243.414 47.356L243.34 47.356C241.896 47.381,240.819 46.94,239.791 46.157C239.546 46.01,239.35 45.838,239.35 45.569L239.35 45.496C239.35 45.349,239.497 45.202,239.497 45.055C239.497 45.006,239.472 44.933,239.35 44.884C239.007 44.737,238.763 45.006,238.542 45.251C238.028 45.887,237.636 46.622,237.171 47.332C237.073 47.528,237 47.699,237 47.895C237 48.091,237.098 48.335,237.318 48.531C238.297 49.437,239.472 50,240.696 50"/><path stroke="none" d="M244.528 54.064C247.171 53.745,250.672 50.734,251.235 48.14C251.7 45.985,251.945 43.807,252.043 41.579C252.532 41.603,253.022 41.652,253.561 41.726C254.76 41.848,255.641 41.163,256.4 40.33C256.621 40.086,256.719 39.914,256.719 39.743C256.719 39.498,256.474 39.327,255.984 39.18C255.837 39.131,255.715 39.131,255.568 39.131C254.393 39.008,253.242 38.886,252.043 38.862L252.043 38.396C251.994 37.882,251.945 37.319,251.945 36.781C251.945 36.365,251.969 35.9,252.116 35.483C252.263 34.994,252.508 34.724,252.777 34.724C252.998 34.724,253.193 34.847,253.487 35.018C254.026 35.41,254.393 35.875,254.54 36.487C254.638 36.928,254.907 36.952,255.225 36.952C255.96 36.952,257.869 35.728,257.967 35.043C258.065 34.137,257.355 33.574,256.768 32.962C256.67 32.864,256.474 32.791,256.351 32.717C255.739 32.374,255.152 32.228,254.54 32.228C253.659 32.228,252.851 32.595,252.067 33.256C250.305 34.773,248.469 36.291,248.469 38.862L247.245 38.862C246.976 38.862,246.682 38.886,246.437 39.033C245.654 39.572,245.14 40.281,244.503 40.893C244.356 41.016,244.332 41.163,244.332 41.261C244.332 41.359,244.43 41.481,244.674 41.505C244.944 41.53,245.213 41.53,245.458 41.53C245.947 41.579,246.461 41.579,247 41.579L248.542 41.579C248.542 42.876,248.444 44.149,248.297 45.447C248.126 46.964,248.028 48.531,247.563 50C247.245 51.028,246.853 51.469,246.143 51.469C245.898 51.469,245.58 51.42,245.213 51.273C245.066 51.2,244.919 51.175,244.772 51.175C244.65 51.175,244.503 51.2,244.332 51.297C243.499 51.763,242.887 52.424,242.128 53.036C242.031 53.133,241.933 53.231,241.933 53.354C241.933 53.452,242.031 53.55,242.251 53.623C242.985 53.917,243.769 54.113,244.528 54.064"/><path stroke="none" d="M256.528 54.064C259.171 53.745,262.672 50.734,263.235 48.14C263.7 45.985,263.945 43.807,264.043 41.579C264.532 41.603,265.022 41.652,265.561 41.726C266.76 41.848,267.641 41.163,268.4 40.33C268.621 40.086,268.719 39.914,268.719 39.743C268.719 39.498,268.474 39.327,267.984 39.18C267.837 39.131,267.715 39.131,267.568 39.131C266.393 39.008,265.242 38.886,264.043 38.862L264.043 38.396C263.994 37.882,263.945 37.319,263.945 36.781C263.945 36.365,263.969 35.9,264.116 35.483C264.263 34.994,264.508 34.724,264.777 34.724C264.998 34.724,265.193 34.847,265.487 35.018C266.026 35.41,266.393 35.875,266.54 36.487C266.638 36.928,266.907 36.952,267.225 36.952C267.96 36.952,269.869 35.728,269.967 35.043C270.065 34.137,269.355 33.574,268.768 32.962C268.67 32.864,268.474 32.791,268.351 32.717C267.739 32.374,267.152 32.228,266.54 32.228C265.659 32.228,264.851 32.595,264.067 33.256C262.305 34.773,260.469 36.291,260.469 38.862L259.245 38.862C258.976 38.862,258.682 38.886,258.437 39.033C257.654 39.572,257.14 40.281,256.503 40.893C256.356 41.016,256.332 41.163,256.332 41.261C256.332 41.359,256.43 41.481,256.674 41.505C256.944 41.53,257.213 41.53,257.458 41.53C257.947 41.579,258.461 41.579,259 41.579L260.542 41.579C260.542 42.876,260.444 44.149,260.297 45.447C260.126 46.964,260.028 48.531,259.563 50C259.245 51.028,258.853 51.469,258.143 51.469C257.898 51.469,257.58 51.42,257.213 51.273C257.066 51.2,256.919 51.175,256.772 51.175C256.65 51.175,256.503 51.2,256.332 51.297C255.499 51.763,254.887 52.424,254.128 53.036C254.031 53.133,253.933 53.231,253.933 53.354C253.933 53.452,254.031 53.55,254.251 53.623C254.985 53.917,255.769 54.113,256.528 54.064"/></svg>