<svg xmlns="http://www.w3.org/2000/svg" stroke-width="0.3" stroke-dasharray="none" fill="black" stroke="black" font-family="Arial, sans-serif" font-size="10pt" font-weight="normal" font-style="normal" width="450" height="140" viewBox="0 0 450 140" style="width: 450px; height: 140px; border: none;"><g class="vf-stave" id="vf-auto4788" stroke-width="1" fill="#999999" stroke="#999999"><path fill="none" d="M0 40L440 40"/><path fill="none" d="M0 50L440 50"/><path fill="none" d="M0 60L440 60"/><path fill="none" d="M0 70L440 70"/><path fill="none" d="M0 80L440 80"/></g><g class="vf-stavebarline" id="vf-auto4789"><rect y="39.5" width="1" height="41" stroke="none"/></g><g class="vf-stavebarline" id="vf-auto4790"><rect x="440" y="39.5" width="1" height="41" stroke="none"/></g><g class="vf-stavenote" id="vf-auto4791"><g class="vf-notehead" id="vf-auto4884" pointer-events="bounding-box"><path stroke="none" d="M20.931 60.054C24.525 60.054,28.934 56.741,28.934 53.315C28.934 51.237,27.305 49.946,25.003 49.946C20.566 49.946,17 53.231,17 56.685C17 58.791,18.741 60.054,20.931 60.054"/></g></g><g class="vf-stavenote" id="vf-auto4797"><g class="vf-notehead" id="vf-auto4886" pointer-events="bounding-box"><path stroke="none" d="M47.119 40.054C50.713 40.054,55.122 36.741,55.122 33.315C55.122 31.237,53.493 29.946,51.191 29.946C46.754 29.946,43.188 33.231,43.188 36.685C43.188 38.791,44.929 40.054,47.119 40.054"/></g></g><g class="vf-stavenote" id="vf-auto4803"><g class="vf-notehead" id="vf-auto4888" pointer-events="bounding-box"><path stroke="none" d="M73.307 60.054C76.901 60.054,81.31 56.741,81.31 53.315C81.31 51.237,79.681 49.946,77.379 49.946C72.942 49.946,69.376 53.231,69.376 56.685C69.376 58.791,71.117 60.054,73.307 60.054"/></g></g><g class="vf-stavenote" id="vf-auto4809"><g class="vf-notehead" id="vf-auto4890" pointer-events="bounding-box"><path stroke="none" d="M103.988 50.507C103.988 48.963,102.752 47.755,101.236 47.755C99.72 47.755,98.484 48.963,98.484 50.507C98.484 52.164,100.169 53.259,101.713 53.259C102.809 53.259,103.932 52.894,104.858 52.36C104.999 52.332,105.055 52.304,105.139 52.304C105.28 52.304,105.336 52.36,105.336 52.585C105.336 53.231,103.286 59.24,103.005 59.858C102.668 60.616,101.601 61.093,101.011 61.093C101.068 60.953,101.068 60.813,101.068 60.7C101.068 59.156,99.804 57.948,98.316 57.948C96.771 57.948,95.564 59.156,95.564 60.7C95.564 62.357,97.249 63.452,98.793 63.452C99.86 63.452,100.899 63.087,101.826 62.61C101.91 62.61,101.994 62.694,101.994 62.834L101.966 62.89C101.966 62.919,101.966 62.919,101.966 62.919L98.119 74.375C98.119 74.375,98.119 74.403,98.119 74.403L98.063 74.459C98.063 74.824,98.428 75.218,99.327 75.218C100.506 75.218,100.703 74.74,100.871 74.291L105.56 58.875C106.599 55.449,107.358 52.726,107.358 52.726C107.358 52.726,108.368 49.187,108.453 48.654C108.453 48.57,108.509 48.542,108.509 48.485C108.509 48.261,108.172 48.092,108.088 48.036C107.891 48.036,107.779 48.12,107.666 48.205C107.358 48.457,105.336 50.872,103.988 50.928"/></g></g><g class="vf-stavenote" id="vf-auto4813"><g class="vf-notehead" id="vf-auto4891" pointer-events="bounding-box"><path stroke="none" d="M130.176 50.507C130.176 48.963,128.94 47.755,127.424 47.755C125.908 47.755,124.672 48.963,124.672 50.507C124.672 52.164,126.357 53.259,127.901 53.259C128.997 53.259,130.12 52.894,131.046 52.36C131.187 52.332,131.243 52.304,131.327 52.304C131.468 52.304,131.524 52.36,131.524 52.585C131.524 53.231,129.474 59.24,129.193 59.858C128.856 60.616,127.789 61.093,127.199 61.093C127.256 60.953,127.256 60.813,127.256 60.7C127.256 59.156,125.992 57.948,124.504 57.948C122.959 57.948,121.752 59.156,121.752 60.7C121.752 62.357,123.437 63.452,124.981 63.452C126.048 63.452,127.087 63.087,128.014 62.61C128.098 62.61,128.182 62.694,128.182 62.834L128.154 62.89C128.154 62.919,128.154 62.919,128.154 62.919L124.307 74.375C124.307 74.375,124.307 74.403,124.307 74.403L124.251 74.459C124.251 74.824,124.616 75.218,125.515 75.218C126.694 75.218,126.891 74.74,127.059 74.291L131.748 58.875C132.787 55.449,133.546 52.726,133.546 52.726C133.546 52.726,134.556 49.187,134.641 48.654C134.641 48.57,134.697 48.542,134.697 48.485C134.697 48.261,134.36 48.092,134.276 48.036C134.079 48.036,133.967 48.12,133.854 48.205C133.546 48.457,131.524 50.872,130.176 50.928"/></g></g><g class="vf-stavenote" id="vf-auto4817"><path stroke-width="1.4" fill="none" stroke="#444" d="M144.94 90L162.874 90"/><g class="vf-notehead" id="vf-auto4892" pointer-events="bounding-box"><path stroke="none" d="M151.871 95.054C155.465 95.054,159.874 91.741,159.874 88.315C159.874 86.237,158.245 84.946,155.943 84.946C151.506 84.946,147.94 88.231,147.94 91.685C147.94 93.791,149.681 95.054,151.871 95.054"/></g><g class="vf-notehead" id="vf-auto4893" pointer-events="bounding-box"><path stroke="none" d="M151.871 85.054C155.465 85.054,159.874 81.741,159.874 78.315C159.874 76.237,158.245 74.946,155.943 74.946C151.506 74.946,147.94 78.231,147.94 81.685C147.94 83.791,149.681 85.054,151.871 85.054"/></g><g class="vf-notehead" id="vf-auto4894" pointer-events="bounding-box"><path stroke="none" d="M151.871 75.054C155.465 75.054,159.874 71.741,159.874 68.315C159.874 66.237,158.245 64.946,155.943 64.946C151.506 64.946,147.94 68.231,147.94 71.685C147.94 73.791,149.681 75.054,151.871 75.054"/></g></g><g class="vf-stavenote" id="vf-auto4827"><g class="vf-notehead" id="vf-auto4896" pointer-events="bounding-box"><path stroke="none" d="M178.059 90.054C181.653 90.054,186.062 86.741,186.062 83.315C186.062 81.237,184.433 79.946,182.131 79.946C177.694 79.946,174.128 83.231,174.128 86.685C174.128 88.791,175.869 90.054,178.059 90.054"/></g></g><g class="vf-stavenote" id="vf-auto4833"><path stroke-width="1.4" fill="none" stroke="#444" d="M197.316 30L215.25 30"/><g class="vf-notehead" id="vf-auto4898" pointer-events="bounding-box"><path stroke="none" d="M204.247 35.054C207.841 35.054,212.25 31.741,212.25 28.315C212.25 26.237,210.621 24.946,208.319 24.946C203.882 24.946,200.316 28.231,200.316 31.685C200.316 33.791,202.057 35.054,204.247 35.054"/></g></g><g class="vf-stavenote" id="vf-auto4839"><path stroke-width="1.4" fill="none" stroke="#444" d="M223.504 90L241.438 90"/><g class="vf-notehead" id="vf-auto4900" pointer-events="bounding-box"><path stroke="none" d="M230.435 95.054C234.029 95.054,238.438 91.741,238.438 88.315C238.438 86.237,236.809 84.946,234.507 84.946C230.07 84.946,226.504 88.231,226.504 91.685C226.504 93.791,228.245 95.054,230.435 95.054"/></g></g><g class="vf-stavenote" id="vf-auto4845"><g class="vf-notehead" id="vf-auto4902" pointer-events="bounding-box"><path stroke="none" d="M256.623 75.054C260.217 75.054,264.626 71.741,264.626 68.315C264.626 66.237,262.997 64.946,260.695 64.946C256.258 64.946,252.692 68.231,252.692 71.685C252.692 73.791,254.433 75.054,256.623 75.054"/></g></g><g class="vf-stavenote" id="vf-auto4851"><g class="vf-notehead" id="vf-auto4904" pointer-events="bounding-box"><path stroke="none" d="M282.811 60.054C286.405 60.054,290.814 56.741,290.814 53.315C290.814 51.237,289.185 49.946,286.883 49.946C282.446 49.946,278.88 53.231,278.88 56.685C278.88 58.791,280.621 60.054,282.811 60.054"/></g></g><g class="vf-stavenote" id="vf-auto4857"><g class="vf-notehead" id="vf-auto4918" pointer-events="bounding-box"><path stroke="none" d="M313.492 65.507C313.492 63.963,312.256 62.755,310.74 62.755C309.224 62.755,307.988 63.963,307.988 65.507C307.988 67.164,309.673 68.259,311.217 68.259C312.312 68.259,313.436 67.894,314.362 67.36C314.503 67.332,314.559 67.304,314.643 67.304C314.783 67.304,314.84 67.36,314.84 67.585C314.84 68.231,312.79 74.24,312.509 74.858C312.172 75.616,311.105 76.093,310.515 76.093C310.571 75.953,310.571 75.813,310.571 75.7C310.571 74.156,309.308 72.948,307.82 72.948C306.275 72.948,305.068 74.156,305.068 75.7C305.068 77.357,306.753 78.452,308.297 78.452C309.364 78.452,310.403 78.087,311.33 77.61C311.414 77.61,311.498 77.694,311.498 77.834L311.47 77.89C311.47 77.919,311.47 77.919,311.47 77.919L307.623 89.375C307.623 89.375,307.623 89.403,307.623 89.403L307.567 89.459C307.567 89.824,307.932 90.218,308.83 90.218C310.01 90.218,310.206 89.74,310.375 89.291L315.064 73.875C316.103 70.449,316.861 67.726,316.861 67.726C316.861 67.726,317.872 64.187,317.956 63.654C317.956 63.57,318.013 63.542,318.013 63.485C318.013 63.261,317.676 63.092,317.591 63.036C317.395 63.036,317.283 63.12,317.17 63.205C316.861 63.457,314.84 65.872,313.492 65.928"/></g></g><g class="vf-stavenote" id="vf-auto4861"><path stroke-width="1.4" fill="none" stroke="#444" d="M328.256 90L346.19 90"/><g class="vf-notehead" id="vf-auto4907" pointer-events="bounding-box"><path stroke="none" d="M335.187 95.054C338.781 95.054,343.19 91.741,343.19 88.315C343.19 86.237,341.561 84.946,339.259 84.946C334.822 84.946,331.256 88.231,331.256 91.685C331.256 93.791,332.997 95.054,335.187 95.054"/></g><g class="vf-notehead" id="vf-auto4908" pointer-events="bounding-box"><path stroke="none" d="M335.187 85.054C338.781 85.054,343.19 81.741,343.19 78.315C343.19 76.237,341.561 74.946,339.259 74.946C334.822 74.946,331.256 78.231,331.256 81.685C331.256 83.791,332.997 85.054,335.187 85.054"/></g></g><g class="vf-stavenote" id="vf-auto4869"><g class="vf-notehead" id="vf-auto4919" pointer-events="bounding-box"><path stroke="none" d="M365.868 70.507C365.868 68.963,364.632 67.755,363.116 67.755C361.6 67.755,360.364 68.963,360.364 70.507C360.364 72.164,362.049 73.259,363.593 73.259C364.688 73.259,365.812 72.894,366.738 72.36C366.879 72.332,366.935 72.304,367.019 72.304C367.159 72.304,367.216 72.36,367.216 72.585C367.216 73.231,365.166 79.24,364.885 79.858C364.548 80.616,363.481 81.093,362.891 81.093C362.947 80.953,362.947 80.813,362.947 80.7C362.947 79.156,361.684 77.948,360.196 77.948C358.651 77.948,357.444 79.156,357.444 80.7C357.444 82.357,359.128 83.452,360.673 83.452C361.74 83.452,362.779 83.087,363.706 82.61C363.79 82.61,363.874 82.694,363.874 82.834L363.846 82.89C363.846 82.919,363.846 82.919,363.846 82.919L359.999 94.375C359.999 94.375,359.999 94.403,359.999 94.403L359.943 94.459C359.943 94.824,360.308 95.218,361.206 95.218C362.386 95.218,362.582 94.74,362.751 94.291L367.44 78.875C368.479 75.449,369.237 72.726,369.237 72.726C369.237 72.726,370.248 69.187,370.332 68.654C370.332 68.57,370.389 68.542,370.389 68.485C370.389 68.261,370.052 68.092,369.967 68.036C369.771 68.036,369.658 68.12,369.546 68.205C369.237 68.457,367.216 70.872,365.868 70.928"/></g></g><g class="vf-stavenote" id="vf-auto4873"><g class="vf-notehead" id="vf-auto4920" pointer-events="bounding-box"><path stroke="none" d="M392.056 70.507C392.056 68.963,390.82 67.755,389.304 67.755C387.788 67.755,386.552 68.963,386.552 70.507C386.552 72.164,388.237 73.259,389.781 73.259C390.876 73.259,392 72.894,392.926 72.36C393.067 72.332,393.123 72.304,393.207 72.304C393.347 72.304,393.404 72.36,393.404 72.585C393.404 73.231,391.354 79.24,391.073 79.858C390.736 80.616,389.669 81.093,389.079 81.093C389.135 80.953,389.135 80.813,389.135 80.7C389.135 79.156,387.872 77.948,386.384 77.948C384.839 77.948,383.632 79.156,383.632 80.7C383.632 82.357,385.316 83.452,386.861 83.452C387.928 83.452,388.967 83.087,389.894 82.61C389.978 82.61,390.062 82.694,390.062 82.834L390.034 82.89C390.034 82.919,390.034 82.919,390.034 82.919L386.187 94.375C386.187 94.375,386.187 94.403,386.187 94.403L386.131 94.459C386.131 94.824,386.496 95.218,387.394 95.218C388.574 95.218,388.77 94.74,388.939 94.291L393.628 78.875C394.667 75.449,395.425 72.726,395.425 72.726C395.425 72.726,396.436 69.187,396.52 68.654C396.52 68.57,396.577 68.542,396.577 68.485C396.577 68.261,396.24 68.092,396.155 68.036C395.959 68.036,395.846 68.12,395.734 68.205C395.425 68.457,393.404 70.872,392.056 70.928"/></g></g><g class="vf-stavenote" id="vf-auto4877"><g class="vf-notehead" id="vf-auto4912" pointer-events="bounding-box"><path stroke="none" d="M413.751 70.054C417.345 70.054,421.754 66.741,421.754 63.315C421.754 61.237,420.125 59.946,417.822 59.946C413.386 59.946,409.82 63.231,409.82 66.685C409.82 68.791,411.561 70.054,413.751 70.054"/></g></g><g class="vf-stem" id="vf-auto4792" pointer-events="bounding-box"><path stroke-width="1.5" fill="none" d="M17.75 57L17.75 89.25"/></g><g class="vf-stem" id="vf-auto4798" pointer-events="bounding-box"><path stroke-width="1.5" fill="none" d="M43.938 37L43.938 89.25"/></g><g class="vf-stem" id="vf-auto4804" pointer-events="bounding-box"><path stroke-width="1.5" fill="none" d="M70.126 57L70.126 89.25"/></g><g class="vf-beam" id="vf-auto4914"><path stroke="none" d="M17 90L17 85L102.286 85L102.286 90Z"/><path stroke="none" d="M17 82.5L17 77.5L102.286 77.5L102.286 82.5Z"/></g><g class="vf-stem" id="vf-auto4818" pointer-events="bounding-box"><path stroke-width="1.5" fill="none" d="M159.124 88L159.124 8.844"/></g><g class="vf-stem" id="vf-auto4828" pointer-events="bounding-box"><path stroke-width="1.5" fill="none" d="M185.312 83L185.312 2.297"/></g><g class="vf-stem" id="vf-auto4834" pointer-events="bounding-box"><path stroke-width="1.5" fill="none" d="M211.5 28L211.5 -4.25"/></g><g class="vf-beam" id="vf-auto4915"><path stroke="none" d="M127.474 16.006L127.474 21.006L211.75 0.188L211.75 -4.812Z"/><path stroke="none" d="M127.474 23.506L127.474 28.506L211.75 7.688L211.75 2.688Z"/></g><g class="vf-stem" id="vf-auto4840" pointer-events="bounding-box"><path stroke-width="1.5" fill="none" d="M237.688 88L237.688 31.225"/></g><g class="vf-stem" id="vf-auto4846" pointer-events="bounding-box"><path stroke-width="1.5" fill="none" d="M263.876 68L263.876 25.988"/></g><g class="vf-stem" id="vf-auto4852" pointer-events="bounding-box"><path stroke-width="1.5" fill="none" d="M290.064 53L290.064 20.75"/></g><g class="vf-beam" id="vf-auto4916"><path stroke="none" d="M236.938 30.625L236.938 35.625L311.79 20.855L311.79 15.855Z"/><path stroke="none" d="M236.938 38.125L236.938 43.125L311.79 28.355L311.79 23.355Z"/></g><g class="vf-stem" id="vf-auto4862" pointer-events="bounding-box"><path stroke-width="1.5" fill="none" d="M342.44 88L342.44 27.898"/></g><g class="vf-stem" id="vf-auto4878" pointer-events="bounding-box"><path stroke-width="1.5" fill="none" d="M421.004 63L421.004 20.041"/></g><g class="vf-beam" id="vf-auto4917"><path stroke="none" d="M341.69 27.223L341.69 32.223L421.254 24.366L421.254 19.366Z"/><path stroke="none" d="M341.69 34.723L341.69 39.723L421.254 31.866L421.254 26.866Z"/></g></svg>