<svg xmlns="http://www.w3.org/2000/svg" stroke-width="0.3" stroke-dasharray="none" fill="black" stroke="black" font-family="Arial, sans-serif" font-size="10pt" font-weight="normal" font-style="normal" width="600" height="350" viewBox="0 0 600 350" style="width: 600px; height: 350px; border: none;"><g class="vf-stave" id="vf-auto4930" stroke-width="1" fill="#999999" stroke="#999999"><path fill="none" d="M10 50L224.456 50"/><path fill="none" d="M10 60L224.456 60"/><path fill="none" d="M10 70L224.456 70"/><path fill="none" d="M10 80L224.456 80"/><path fill="none" d="M10 90L224.456 90"/></g><g class="vf-stavebarline" id="vf-auto4931"/><g class="vf-stavebarline" id="vf-auto4932"><rect x="224.456" y="49.5" width="1" height="41" stroke="none"/></g><g class="vf-clef" id="vf-auto4933"><path stroke="none" d="M23.693 101.402C23.87 101.402,24.048 101.377,24.276 101.301C24.707 101.148,25.062 100.92,25.366 100.591C28.382 97.423,29.623 93.596,29.75 89.313C29.75 88.983,29.776 88.451,29.776 88.451C29.776 88.451,30.282 88.147,30.511 88.071C31.727 87.488,32.893 86.829,33.932 85.993C36.72 83.762,38.316 80.747,39.051 77.376C39.204 76.844,39.229 76.286,39.229 75.779C39.229 73.473,37.962 71.8,35.047 71.268C34.312 71.116,33.577 71.04,32.842 71.04C31.017 71.04,29.269 71.521,27.621 72.484C27.419 72.611,27.19 72.763,27.19 72.763L26.253 69.215C26.202 69.038,26.202 68.708,26.202 68.708C26.202 68.708,29.928 62.093,30.434 58.697C30.612 57.709,30.688 56.72,30.688 55.757C30.688 54.972,30.663 54.237,30.536 53.527C30.181 50.891,29.193 48.408,28.534 45.848C28.356 45.088,28.103 44.175,27.216 44.175C26.557 44.175,26.101 44.809,25.695 45.341C23.82 47.926,22.907 50.891,22.73 54.059C22.705 54.566,22.705 55.098,22.705 55.605C22.705 58.545,23.186 61.51,23.566 64.425C23.566 64.653,23.642 64.881,23.693 65.059C22.046 67.39,20.221 69.57,18.65 71.978C17.56 73.701,16.343 75.424,15.583 77.35C15.177 78.288,15 79.403,15 80.493C15 82.749,15.76 85.055,17.078 86.322C17.839 87.057,19.055 87.868,20.246 88.299C21.944 88.907,23.617 89.313,25.391 89.313C25.923 89.313,26.455 89.287,27.013 89.211L27.444 89.135C27.444 89.135,27.469 89.465,27.444 89.642C27.038 91.847,26.506 94.001,25.188 95.826C24.479 96.764,23.82 97.828,22.451 97.93C22.046 97.98,21.868 98.234,21.868 98.563C21.868 98.69,21.894 98.817,21.944 98.944C22.147 99.501,22.4 100.084,22.654 100.642C22.882 101.148,23.237 101.402,23.693 101.402M25.138 62.828C24.859 61.08,24.681 59.356,24.681 57.633C24.681 54.465,25.34 51.373,27.19 48.408C27.621 49.751,27.849 51.119,27.849 52.488C27.849 53.198,27.773 53.933,27.672 54.642C27.19 57.506,26.532 60.269,25.138 62.828M21.387 84.421C20.88 84.396,20.449 84.219,19.967 84.067C19.004 83.737,18.219 83.382,17.965 82.749C17.839 82.47,17.813 82.14,17.813 81.811C17.813 81.406,17.889 80.975,17.965 80.518C17.991 80.316,18.219 79.682,18.295 79.581C19.714 77.046,21.412 74.765,23.211 72.459L24.732 70.457L25.011 71.268C25.29 72.18,25.543 73.625,25.543 73.625C25.543 73.625,24.529 74.943,23.87 75.602C22.046 77.376,21.159 79.606,21.159 82.064C21.159 82.673,21.235 83.306,21.361 83.965C21.387 84.092,21.387 84.219,21.387 84.421M29.269 83.306C28.99 80.924,28.432 79.023,27.925 76.742C27.875 76.463,27.875 76.286,28.001 76.134C28.939 75.957,29.852 75.881,30.815 75.881C31.727 75.881,32.589 75.957,33.501 76.134C34.591 76.362,35.681 76.539,36.542 77.426C36.593 77.503,36.669 77.579,36.745 77.604C35.301 80.518,33.146 82.723,30.08 84.067L29.421 84.32M25.391 85.055C24.124 85.055,22.882 84.726,22.882 84.726C22.882 84.726,22.781 84.219,22.781 83.484C22.781 83.002,22.806 82.419,22.958 81.836C23.313 80.088,24.555 78.846,25.873 77.68C25.974 77.579,26.101 77.503,26.177 77.503C26.303 77.503,26.354 77.655,26.379 77.908C26.709 80.062,27.266 82.166,27.419 84.32C27.444 84.548,27.419 84.878,27.419 84.878C27.419 84.878,26.455 85.131,25.391 85.055"/></g><g class="vf-stave" id="vf-auto4959" stroke-width="1" fill="#999999" stroke="#999999"><path fill="none" d="M10 170L224.456 170"/><path fill="none" d="M10 180L224.456 180"/><path fill="none" d="M10 190L224.456 190"/><path fill="none" d="M10 200L224.456 200"/><path fill="none" d="M10 210L224.456 210"/></g><g class="vf-stavebarline" id="vf-auto4960"/><g class="vf-stavebarline" id="vf-auto4961"><rect x="224.456" y="169.5" width="1" height="41" stroke="none"/></g><g class="vf-clef" id="vf-auto4962"><path stroke="none" d="M24.262 195.766C28.64 195.121,31.497 192.541,33.524 188.831C34.837 186.366,35.137 183.716,35.183 180.721C35.183 180.237,35.114 179.477,34.999 178.74C34.469 174.5,31.658 172.335,27.902 172.335C27.649 172.335,27.349 172.335,27.073 172.358C23.594 172.657,20.507 173.924,18.018 176.413C16.935 177.519,15.852 178.601,15.392 180.168C15.276 180.652,15.207 181.136,15.207 181.551C15.207 183.048,15.991 184.246,17.58 184.984C17.696 185.007,17.765 185.076,17.857 185.099C18.341 185.375,18.825 185.513,19.285 185.513C19.954 185.513,20.576 185.237,21.175 184.753C22.488 183.67,23.087 182.357,23.087 180.859C23.087 180.329,23.018 179.8,22.903 179.27C22.857 179.062,22.834 178.878,22.834 178.671C22.834 177.772,23.364 177.15,24.423 177.081C24.677 177.035,24.93 177.035,25.161 177.035C26.75 177.035,28.202 177.519,29.377 178.671C30.852 180.122,31.681 182.011,32.142 184.108C32.211 184.338,32.211 184.615,32.211 184.799C32.211 185.583,31.957 186.228,31.52 186.942C30.852 188.025,30.068 188.946,29.008 189.753C26.935 191.32,24.562 191.965,22.073 191.965L19.908 191.965C18.548 191.965,17.212 191.919,15.899 191.504C15.392 191.343,15 191.734,15 192.218C15 192.31,15 192.402,15.023 192.495C15.138 192.863,15.23 193.232,15.392 193.577C15.806 194.43,16.152 195.259,17.327 195.49C18.779 195.789,20.184 195.951,21.636 195.951C22.488 195.951,23.364 195.881,24.262 195.766M38.455 177.38C38.985 177.403,39.607 177.288,39.883 176.781C40.321 176.044,40.736 175.353,40.736 174.454C40.736 174.224,40.713 173.97,40.644 173.694C40.39 172.657,39.607 173.141,39.077 172.864C38.685 172.657,38.593 173.187,38.432 173.464C37.787 174.431,37.948 175.583,37.671 176.643C37.556 177.012,37.717 177.403,38.224 177.403M37.395 185.974C38.593 185.928,39.653 184.338,39.653 182.91C39.653 181.919,39.077 182.08,38.616 181.919C38.132 181.712,37.994 182.127,37.787 182.426C37.188 183.279,37.188 184.315,36.865 185.237C36.727 185.606,36.865 185.974,37.326 185.974"/></g><g class="vf-stavenote" id="vf-auto4889"><g class="vf-stem" id="vf-auto4890" pointer-events="bounding-box"><path stroke-width="1.5" fill="none" d="M89.246 82L89.246 130"/></g><g class="vf-notehead" id="vf-auto4899" pointer-events="bounding-box"><path stroke="none" d="M78.882 101.543C79.163 101.599,79.416 101.627,79.697 101.627C83.572 101.627,89.356 96.348,89.244 92.08C89.132 91.041,89.16 89.609,87.054 88.766C86.464 88.485,85.818 88.373,85.116 88.373C80.792 88.373,76.103 93.343,75.766 96.657C75.766 96.909,75.738 97.134,75.738 97.387C75.738 99.409,76.636 101.037,78.882 101.543"/></g><g class="vf-notehead" id="vf-auto4898" pointer-events="bounding-box"><path stroke="none" d="M91.641 96.543C91.921 96.599,92.174 96.627,92.455 96.627C96.33 96.627,102.114 91.348,102.002 87.08C101.89 86.041,101.918 84.609,99.812 83.766C99.222 83.485,98.576 83.373,97.874 83.373C93.55 83.373,88.861 88.343,88.524 91.657C88.524 91.909,88.496 92.134,88.496 92.387C88.496 94.409,89.394 96.037,91.641 96.543"/></g><g class="vf-notehead" id="vf-auto4897" pointer-events="bounding-box"><path stroke="none" d="M91.641 86.543C91.921 86.599,92.174 86.627,92.455 86.627C96.33 86.627,102.114 81.348,102.002 77.08C101.89 76.041,101.918 74.609,99.812 73.766C99.222 73.485,98.576 73.373,97.874 73.373C93.55 73.373,88.861 78.343,88.524 81.657C88.524 81.909,88.496 82.134,88.496 82.387C88.496 84.409,89.394 86.037,91.641 86.543"/></g></g><g class="vf-stavenote" id="vf-auto4900"><path stroke-width="1.4" fill="none" stroke="#444" d="M122.463 100L141.971 100"/><g class="vf-stem" id="vf-auto4901" pointer-events="bounding-box"><path stroke-width="1.5" fill="none" d="M126.213 102L126.213 135"/></g><g class="vf-notehead" id="vf-auto4904" pointer-events="bounding-box"><path stroke="none" d="M128.608 106.543C128.889 106.599,129.142 106.627,129.422 106.627C133.297 106.627,139.082 101.348,138.97 97.08C138.857 96.041,138.885 94.609,136.779 93.766C136.19 93.485,135.544 93.373,134.842 93.373C130.518 93.373,125.828 98.343,125.491 101.657C125.491 101.909,125.463 102.134,125.463 102.387C125.463 104.409,126.362 106.037,128.608 106.543"/></g></g><g class="vf-stavenote" id="vf-auto4905"><g class="vf-notehead" id="vf-auto4909" pointer-events="bounding-box"><path stroke="none" d="M166.236 115.019C166.538 114.843,166.488 114.49,166.564 114.188C166.564 114.036,166.488 113.91,166.463 113.759C166.16 112.474,165.833 111.239,165.556 109.979C165.505 109.828,165.505 109.677,165.505 109.576C165.505 108.341,166.412 106.854,167.446 106.426C167.698 106.275,167.899 106.376,168.176 106.451C169.336 106.829,169.94 107.812,170.596 108.719C170.772 108.971,171.024 109.299,171.326 109.299C171.402 109.299,171.427 109.299,171.503 109.248C171.83 109.097,171.982 108.77,171.982 108.467L171.931 108.19C171.805 107.358,171.654 106.502,171.1 105.846C170.016 104.536,169.436 102.948,168.706 101.462C168.605 101.235,168.529 101.058,168.529 100.907C168.529 100.655,168.68 100.428,168.932 100.176C169.588 99.496,170.268 98.866,170.696 98.034C171.1 97.379,171.352 96.699,171.352 96.018C171.352 95.54,171.251 95.061,170.923 94.557C169.84 92.742,168.706 90.953,167.798 89.038C167.194 87.728,166.412 86.493,165.329 85.51C165.077 85.258,164.749 84.93,164.396 84.93C164.245 84.93,164.094 84.981,163.918 85.082C163.565 85.308,163.414 85.586,163.414 85.838C163.414 86.14,163.565 86.417,163.766 86.72C164.9 88.181,165.581 89.87,166.664 91.331C166.992 91.734,167.143 92.012,167.143 92.264C167.143 92.591,166.866 92.843,166.286 93.221C165.505 93.65,164.724 94.078,163.993 94.632C163.64 94.884,163.439 95.162,163.439 95.464C163.439 95.64,163.514 95.817,163.59 96.018C163.943 96.85,164.422 97.606,164.926 98.362C165.732 99.496,166.463 100.731,167.042 101.991C166.79 102.218,166.564 102.142,166.362 102.167C163.892 102.495,162.254 104.36,162.431 106.577C162.683 109.223,163.666 111.693,164.85 114.036C165.001 114.339,165.178 114.616,165.556 114.742C165.757 114.818,165.908 115.07,166.085 115.07C166.135 115.07,166.211 115.07,166.236 115.019"/></g></g><g class="vf-stavenote" id="vf-auto4910"><path stroke-width="1.4" fill="none" stroke="#444" d="M196.398 100L215.906 100"/><g class="vf-stem" id="vf-auto4911" pointer-events="bounding-box"><path stroke-width="1.5" fill="none" d="M200.148 102L200.148 135"/></g><g class="vf-notehead" id="vf-auto4914" pointer-events="bounding-box"><path stroke="none" d="M202.543 106.543C202.824 106.599,203.077 106.627,203.358 106.627C207.233 106.627,213.017 101.348,212.905 97.08C212.792 96.041,212.821 94.609,210.715 93.766C210.125 93.485,209.479 93.373,208.777 93.373C204.453 93.373,199.763 98.343,199.426 101.657C199.426 101.909,199.398 102.134,199.398 102.387C199.398 104.409,200.297 106.037,202.543 106.543"/></g></g><g class="vf-stavenote" id="vf-auto4916"><g class="vf-stem" id="vf-auto4917" pointer-events="bounding-box"><path stroke-width="1.5" fill="none" d="M101.252 62.45L101.252 30"/></g><g class="vf-notehead" id="vf-auto4920" pointer-events="bounding-box"><path stroke="none" d="M101.974 63.428C101.918 68.229,97.79 72.048,93.185 72.048C92.511 72.048,91.809 71.964,91.135 71.795C89.703 71.43,89.057 70.391,88.748 68.959C88.58 68.229,88.496 67.555,88.496 66.909C88.496 62.332,92.062 59.384,96.47 58.008C96.611 57.952,96.835 57.924,97.032 57.924C98.998 57.924,102.002 60.226,102.002 62.81C102.002 63.006,102.002 63.231,101.974 63.428M94.477 67.864C96.19 67.274,98.071 66.348,99.7 64.832C99.728 64.803,99.784 64.635,99.784 64.523C99.784 64.382,99.728 64.27,99.7 64.242C98.969 63.512,98.408 62.529,97.228 62.36C97.06 62.332,96.92 62.332,96.695 62.332C94.954 62.332,93.578 63.456,92.146 64.242C91.247 64.747,90.237 65.814,90.433 66.741C90.63 67.752,92.09 67.555,93.016 67.752C93.382 67.836,93.718 67.836,94.477 67.864"/><path stroke="none" d="M75.646 80.13C75.947 80.103,76.029 79.665,76.111 79.391C76.275 78.872,76.303 78.352,76.303 77.887C76.303 77.449,76.275 77.066,76.275 76.628C76.275 76.354,76.275 75.999,76.303 75.725C76.385 74.932,76.467 74.138,76.494 73.345L78.245 72.989C78.327 74.658,78.628 76.272,79.175 77.832C79.23 78.051,79.367 78.27,79.613 78.27C79.859 78.324,79.942 78.051,80.051 77.832C80.325 77.421,80.352 76.902,80.352 76.436C80.407 76.081,80.407 75.752,80.407 75.452C80.407 74.494,80.325 73.509,80.297 72.551L82.568 72.086C84.73 71.648,85.003 71.348,85.167 69.268C85.167 68.748,85.222 68.393,85.167 67.982C85.14 67.49,84.921 67.134,84.511 67.134L84.429 67.134C84.264 67.134,84.155 67.134,83.991 67.161C83.088 67.408,82.103 67.599,81.145 67.763L80.489 67.873C80.516 67.326,80.516 66.724,80.571 66.149C80.598 64.891,80.626 63.632,80.626 62.373C81.747 62.072,82.814 61.772,83.881 61.416C84.456 61.224,84.976 60.896,85.14 60.267C85.277 59.555,85.496 58.899,85.496 58.187C85.496 57.777,85.441 57.367,85.277 56.956C85.14 56.573,85.003 56.382,84.784 56.382L84.702 56.382C84.565 56.382,84.429 56.382,84.264 56.464C83.033 56.956,81.829 57.367,80.571 57.722L80.434 55.588C80.352 53.892,80.297 52.168,79.942 50.472C79.859 50.253,79.887 49.897,79.641 49.897L79.613 49.897L79.504 49.897C79.175 49.979,78.792 50.116,78.738 50.554L78.738 51.293C78.738 53.618,78.82 55.889,78.874 58.187L76.768 58.652C76.768 57.476,76.74 56.3,76.658 55.123C76.631 54.521,76.631 53.974,76.303 53.372C75.427 53.81,75.564 54.548,75.564 55.178C75.482 56.464,75.427 57.668,75.4 58.899C74.305 59.118,73.184 59.282,72.089 59.473C70.475 59.747,70.229 59.993,70.229 61.772C70.119 62.209,70.448 62.702,70.393 63.194C70.311 63.933,70.502 64.179,71.022 64.207C71.132 64.207,71.268 64.179,71.433 64.124C72.718 63.933,73.977 63.741,75.236 63.495L75.126 67.052C75.071 67.709,75.017 68.338,74.935 68.967C73.457 69.268,72.007 69.542,70.557 69.897C69.736 70.089,69.244 70.39,69.244 71.348C69.244 72.278,69.599 73.153,69.654 74.056C69.654 74.494,69.764 74.685,70.092 74.74C70.147 74.74,70.283 74.685,70.448 74.658C71.843 74.33,73.266 74.056,74.688 73.755C74.661 74.248,74.661 74.768,74.661 75.315C74.661 76.71,74.798 78.051,75.29 79.391C75.372 79.665,75.29 80.13,75.646 80.13M76.686 68.612C76.74 67.763,76.74 66.888,76.768 66.012C76.822 65.082,76.822 64.179,76.822 63.222C77.479 63.112,78.108 63.003,78.738 62.839C78.546 64.644,78.464 66.45,78.355 68.283"/><path stroke="none" d="M109.002 65 A2 2 0 0 0 105.002 65 A2 2 0 0 0 109.002 65"/></g></g><g class="vf-stavenote" id="vf-auto4924"><g class="vf-stem" id="vf-auto4925" pointer-events="bounding-box"><path stroke-width="1.5" fill="none" d="M212.156 63L212.156 30"/></g><g class="vf-notehead" id="vf-auto4928" pointer-events="bounding-box"><path stroke="none" d="M202.543 71.543C202.824 71.599,203.077 71.627,203.358 71.627C207.233 71.627,213.017 66.348,212.905 62.08C212.792 61.041,212.821 59.609,210.715 58.766C210.125 58.485,209.479 58.373,208.777 58.373C204.453 58.373,199.763 63.343,199.426 66.657C199.426 66.909,199.398 67.134,199.398 67.387C199.398 69.409,200.297 71.037,202.543 71.543"/></g></g><g class="vf-stavenote" id="vf-auto4934"><g class="vf-stem" id="vf-auto4935" pointer-events="bounding-box"><path stroke-width="1.5" fill="none" d="M101.254 193L101.254 160"/></g><g class="vf-notehead" id="vf-auto4937" pointer-events="bounding-box"><path stroke="none" d="M91.641 201.543C91.921 201.599,92.174 201.627,92.455 201.627C96.33 201.627,102.114 196.348,102.002 192.08C101.89 191.041,101.918 189.609,99.812 188.766C99.222 188.485,98.576 188.373,97.874 188.373C93.55 188.373,88.861 193.343,88.524 196.657C88.524 196.909,88.496 197.134,88.496 197.387C88.496 199.409,89.394 201.037,91.641 201.543"/><path stroke="none" d="M75.646 210.13C75.947 210.103,76.029 209.665,76.111 209.391C76.275 208.872,76.303 208.352,76.303 207.887C76.303 207.449,76.275 207.066,76.275 206.628C76.275 206.354,76.275 205.999,76.303 205.725C76.385 204.932,76.467 204.138,76.494 203.345L78.245 202.989C78.327 204.658,78.628 206.272,79.175 207.832C79.23 208.051,79.367 208.27,79.613 208.27C79.859 208.324,79.942 208.051,80.051 207.832C80.325 207.421,80.352 206.902,80.352 206.436C80.407 206.081,80.407 205.752,80.407 205.452C80.407 204.494,80.325 203.509,80.297 202.551L82.568 202.086C84.73 201.648,85.003 201.348,85.167 199.268C85.167 198.748,85.222 198.393,85.167 197.982C85.14 197.49,84.921 197.134,84.511 197.134L84.429 197.134C84.264 197.134,84.155 197.134,83.991 197.161C83.088 197.408,82.103 197.599,81.145 197.763L80.489 197.873C80.516 197.326,80.516 196.724,80.571 196.149C80.598 194.891,80.626 193.632,80.626 192.373C81.747 192.072,82.814 191.772,83.881 191.416C84.456 191.224,84.976 190.896,85.14 190.267C85.277 189.555,85.496 188.899,85.496 188.187C85.496 187.777,85.441 187.367,85.277 186.956C85.14 186.573,85.003 186.382,84.784 186.382L84.702 186.382C84.565 186.382,84.429 186.382,84.264 186.464C83.033 186.956,81.829 187.367,80.571 187.722L80.434 185.588C80.352 183.892,80.297 182.168,79.942 180.472C79.859 180.253,79.887 179.897,79.641 179.897L79.613 179.897L79.504 179.897C79.175 179.979,78.792 180.116,78.738 180.554L78.738 181.293C78.738 183.618,78.82 185.889,78.874 188.187L76.768 188.652C76.768 187.476,76.74 186.3,76.658 185.123C76.631 184.521,76.631 183.974,76.303 183.372C75.427 183.81,75.564 184.548,75.564 185.178C75.482 186.464,75.427 187.668,75.4 188.899C74.305 189.118,73.184 189.282,72.089 189.473C70.475 189.747,70.229 189.993,70.229 191.772C70.119 192.209,70.448 192.702,70.393 193.194C70.311 193.933,70.502 194.179,71.022 194.207C71.132 194.207,71.268 194.179,71.433 194.124C72.718 193.933,73.977 193.741,75.236 193.495L75.126 197.052C75.071 197.709,75.017 198.338,74.935 198.967C73.457 199.268,72.007 199.542,70.557 199.897C69.736 200.089,69.244 200.39,69.244 201.348C69.244 202.278,69.599 203.153,69.654 204.056C69.654 204.494,69.764 204.685,70.092 204.74C70.147 204.74,70.283 204.685,70.448 204.658C71.843 204.33,73.266 204.056,74.688 203.755C74.661 204.248,74.661 204.768,74.661 205.315C74.661 206.71,74.798 208.051,75.29 209.391C75.372 209.665,75.29 210.13,75.646 210.13M76.686 198.612C76.74 197.763,76.74 196.888,76.768 196.012C76.822 195.082,76.822 194.179,76.822 193.222C77.479 193.112,78.108 193.003,78.738 192.839C78.546 194.644,78.464 196.45,78.355 198.283"/></g></g><g class="vf-stavenote" id="vf-auto4940"><g class="vf-stem" id="vf-auto4941" pointer-events="bounding-box"><path stroke-width="1.5" fill="none" d="M138.221 193L138.221 160"/></g><g class="vf-notehead" id="vf-auto4943" pointer-events="bounding-box"><path stroke="none" d="M128.608 201.543C128.889 201.599,129.142 201.627,129.422 201.627C133.297 201.627,139.082 196.348,138.97 192.08C138.857 191.041,138.885 189.609,136.779 188.766C136.19 188.485,135.544 188.373,134.842 188.373C130.518 188.373,125.828 193.343,125.491 196.657C125.491 196.909,125.463 197.134,125.463 197.387C125.463 199.409,126.362 201.037,128.608 201.543"/><path stroke="none" d="M121.02 212.976C121.458 212.976,121.567 212.401,121.731 212.073C121.759 211.826,121.841 211.635,121.841 211.389C121.923 208.68,121.95 205.944,122.032 203.208C122.032 201.922,121.95 200.664,121.95 199.405C122.032 196.778,122.169 194.124,122.251 191.498C122.251 191.498,122.306 190.896,122.361 190.404L122.361 190.267L122.388 189.802L122.388 189.555L122.443 188.844C122.443 188.735,122.525 188.269,122.361 187.914C122.169 187.503,122.306 186.655,121.485 186.847C119.625 187.367,117.709 187.558,115.767 187.722C115.904 185.479,116.013 183.18,116.013 180.937C116.013 180.198,116.013 179.487,115.986 178.721C115.986 178.064,115.849 177.435,115.575 176.806C114.289 177.189,114.508 178.365,114.508 179.159C114.563 183.153,114.235 187.093,114.125 191.06C114.07 192.428,114.043 193.824,114.043 195.192C114.043 196.368,114.07 197.517,114.125 198.666C114.125 199.46,114.235 200.253,114.235 200.992C114.235 201.648,114.508 201.867,115.001 201.867C115.11 201.867,115.22 201.867,115.384 201.813L120.144 201.101L120.336 201.074L120.336 204.822C120.336 206.218,120.144 207.695,120.144 209.118C120.144 210.048,120.226 211.006,120.5 211.936C120.61 212.346,120.5 212.976,121.02 212.976M115.63 196.724C115.575 195.383,115.493 194.097,115.548 192.784L115.575 192.291C115.822 192.291,116.095 192.319,116.369 192.291C117.709 192.155,119.05 192.072,120.391 192.045L120.61 192.018L120.5 193.194C120.473 194.207,120.391 195.274,120.391 196.313C118.804 196.724,117.19 196.997,115.63 197.216"/></g></g><g class="vf-stavenote" id="vf-auto4946"><g class="vf-stem" id="vf-auto4947" pointer-events="bounding-box"><path stroke-width="1.5" fill="none" d="M163.181 167L163.181 200"/></g><g class="vf-notehead" id="vf-auto4949" pointer-events="bounding-box"><path stroke="none" d="M165.576 171.543C165.856 171.599,166.109 171.627,166.39 171.627C170.265 171.627,176.05 166.348,175.937 162.08C175.825 161.041,175.853 159.609,173.747 158.766C173.157 158.485,172.511 158.373,171.809 158.373C167.485 158.373,162.796 163.343,162.459 166.657C162.459 166.909,162.431 167.134,162.431 167.387C162.431 169.409,163.329 171.037,165.576 171.543"/><path stroke="none" d="M152.044 173.208C152.153 173.208,152.317 173.126,152.509 172.907C153.028 172.497,153.603 172.059,154.178 171.648C157.625 169.186,159.485 165.821,159.485 161.525C159.485 160.978,159.485 160.458,159.403 159.911C159.212 157.996,158.117 156.874,156.448 156.874C156.093 156.874,155.71 156.956,155.272 157.093C154.725 157.23,154.178 157.503,153.603 157.75L153.576 157.777L153.576 156.765C153.576 155.26,153.658 153.782,153.74 152.278C153.74 151.402,153.822 150.581,153.822 149.706C153.822 148.885,153.74 148.009,153.548 147.189C153.466 146.915,153.466 146.395,153.056 146.395L153.028 146.395C152.591 146.45,152.262 146.806,152.262 147.353C152.235 148.447,152.126 149.596,152.153 150.691L152.153 151.922C152.153 154.248,152.044 156.573,151.961 158.899C151.852 162.237,151.277 165.52,151.277 168.858C151.277 170.171,151.36 171.539,151.715 172.852C151.797 173.071,151.879 173.208,152.044 173.208M153.111 167.873C153.193 166.86,153.22 165.793,153.329 164.672C153.412 163.824,153.466 162.948,153.466 162.072L153.603 162.018C154.369 161.689,155.108 161.306,155.929 161.306C156.202 161.306,156.531 161.388,156.832 161.498C157.488 161.717,157.789 162.045,157.762 162.483C157.762 162.702,157.707 162.948,157.543 163.276C156.531 165.274,154.862 166.614,153.111 167.873"/></g></g><g class="vf-stavenote" id="vf-auto4952"><g class="vf-stem" id="vf-auto4953" pointer-events="bounding-box"><path stroke-width="1.5" fill="none" d="M200.148 192L200.148 225"/></g><g class="vf-notehead" id="vf-auto4955" pointer-events="bounding-box"><path stroke="none" d="M202.543 196.543C202.824 196.599,203.077 196.627,203.358 196.627C207.233 196.627,213.017 191.348,212.905 187.08C212.792 186.041,212.821 184.609,210.715 183.766C210.125 183.485,209.479 183.373,208.777 183.373C204.453 183.373,199.763 188.343,199.426 191.657C199.426 191.909,199.398 192.134,199.398 192.387C199.398 194.409,200.297 196.037,202.543 196.543"/><path stroke="none" d="M187.397 196.265C187.588 196.265,187.78 196.156,188.026 195.91C188.874 195.089,189.668 194.213,190.571 193.42C190.899 193.146,191.173 192.873,191.446 192.599C192.513 193.42,193.58 194.296,194.593 195.171C194.839 195.363,195.03 195.472,195.222 195.472C195.495 195.472,195.742 195.253,195.933 194.897C196.316 194.213,196.207 193.42,196.371 192.791C196.316 191.888,196.043 191.259,195.413 190.739L193.991 189.617C194.675 188.851,195.331 188.14,196.097 187.51C196.316 187.373,196.398 187.072,196.398 186.525C196.289 185.951,195.961 185.185,195.55 184.528C195.222 183.981,194.948 183.735,194.675 183.735C194.401 183.735,194.073 183.899,193.69 184.254C193.307 184.555,192.896 184.884,192.595 185.239C191.993 185.869,191.446 186.498,190.899 187.155C189.832 186.388,188.71 185.595,187.616 184.884C187.452 184.747,187.342 184.72,187.233 184.72C187.151 184.72,187.069 184.72,186.959 184.802C186.795 184.911,186.549 184.884,186.412 185.103C186.275 185.404,186.193 185.787,186.193 186.252C186.193 187.483,186.631 189.124,187.315 189.562C187.534 189.726,187.78 189.891,188.026 190.082C187.178 190.876,186.33 191.696,185.482 192.572C185.263 192.791,185.099 193.119,185.099 193.393C185.099 193.666,185.181 193.94,185.427 194.213C185.81 194.815,186.412 195.28,186.795 195.882C186.986 196.156,187.178 196.265,187.397 196.265"/></g></g><path stroke="none" d="M5.634 44C6.584 43.971,7.563 44,8.514 44L9.522 44C17.24 44,22.914 40.054,25.534 33.171C25.851 32.307,26.082 31.443,26.082 30.55C26.082 30.118,26.024 29.658,25.909 29.197C25.822 28.794,25.707 28.65,25.477 28.65C25.362 28.65,25.16 28.736,24.958 28.851C24.67 29.024,24.526 29.37,24.411 29.658C24.066 30.55,23.778 31.472,23.288 32.307C21.128 35.907,18.19 38.442,13.928 39.277C12.43 39.565,10.933 39.651,9.435 39.651C8.37 39.651,7.246 39.565,6.123 39.565C5.49 39.565,5.115 39.824,5.029 40.544C5 40.89,5 41.235,5 41.581C5 42.186,5.029 42.848,5 43.424C5 43.885,5.202 44,5.634 44"/><path stroke="none" d="M25.045 233.301C25.534 233.301,25.39 232.811,25.477 232.523C25.534 232.35,25.563 232.178,25.563 232.005C25.563 231.89,25.534 231.774,25.534 231.63C25.333 229.816,24.814 228.059,24.037 226.418C22.366 222.846,19.774 220.139,16.29 218.21C14.533 217.202,12.661 217,10.933 217C10.472 217,10.011 217.029,9.608 217.029C8.082 217.029,6.901 217.086,5.749 217.029C5.346 217.029,5 217.115,5 217.547L5 217.662C5.029 217.922,5.086 218.21,5.086 218.44C5.086 218.786,5.029 219.102,5.029 219.477C5.029 219.765,5.029 220.11,5.115 220.398C5.288 221.176,5.662 221.435,6.296 221.349C7.563 221.147,8.888 221.176,10.184 221.118C16.29 220.888,20.062 223.797,22.885 229.067C23.461 230.133,23.864 231.314,24.066 232.523C24.21 233.042,24.584 233.301,25.045 233.301"/><rect x="5" y="44" width="3" height="173" stroke="none"/></svg>