<svg xmlns="http://www.w3.org/2000/svg" stroke-width="0.3" stroke-dasharray="none" fill="black" stroke="black" font-family="Arial, sans-serif" font-size="10pt" font-weight="normal" font-style="normal" width="725" height="200" viewBox="0 0 725 200" style="width: 725px; height: 200px; border: none;"><g class="vf-stave" id="vf-auto22352" stroke-width="1" fill="#999999" stroke="#999999"><path fill="none" d="M10 90L160 90"/><path fill="none" d="M10 100L160 100"/><path fill="none" d="M10 110L160 110"/><path fill="none" d="M10 120L160 120"/><path fill="none" d="M10 130L160 130"/></g><g class="vf-stavebarline" id="vf-auto22353"><rect x="10" y="89.5" width="1" height="41" stroke="none"/></g><g class="vf-stavebarline" id="vf-auto22354"><rect x="160" y="89.5" width="1" height="41" stroke="none"/></g><g class="vf-clef" id="vf-auto22355"><path stroke="none" d="M35.503 121.76C35.503 124.345,34.464 127.032,31.854 128.071C31.093 123.712,30.105 117.908,29.852 116.286C33.146 116.286,35.503 118.516,35.503 121.76M30.333 128.527C29.598 128.654,28.914 128.73,28.204 128.73C22.983 128.73,18.548 125.08,18.548 119.581C18.548 115.12,21.691 111.141,24.884 108.379C25.518 107.821,26.101 107.314,26.633 106.757C26.962 108.734,27.216 110.457,27.469 111.952C24.149 112.941,21.894 116.438,21.894 119.86C21.894 122.419,23.896 125.917,26.836 125.917C27.114 125.917,27.444 125.79,27.444 125.461C27.444 125.131,27.089 124.954,26.633 124.65C25.214 123.762,24.428 122.825,24.428 121.025C24.428 118.82,26.05 117.021,28.204 116.514M27.114 90.993C27.444 89.548,29.117 85.721,31.017 85.721C31.575 85.721,32.437 87.495,32.437 90.004C32.437 93.806,29.623 96.67,27.114 99.128C26.886 97.684,26.709 96.264,26.709 94.718C26.709 93.375,26.836 92.133,27.114 90.993M19.461 139.729C19.461 142.137,21.311 145.305,26.253 145.305C27.951 145.305,29.446 144.874,30.764 144.063C32.741 142.669,33.248 140.261,33.248 137.98C33.248 136.536,33.02 134.914,32.665 132.836C32.563 132.101,32.335 131.011,32.107 129.566C35.681 128.4,38.367 124.675,38.367 120.924C38.367 115.424,34.464 111.699,29.117 111.699C28.762 109.494,28.382 107.34,28.078 105.312C31.93 101.257,34.591 96.695,34.591 90.891C34.591 87.571,33.577 84.859,32.994 83.567C32.107 81.691,31.068 80.424,30.409 80.424C30.156 80.424,29.015 80.855,27.799 82.274C25.467 85.062,24.808 89.726,24.808 92.792C24.808 94.769,25.011 96.543,25.619 100.623C25.594 100.674,23.693 102.6,22.907 103.234C19.587 106.326,15 110.736,15 118.035C15 124.878,20.956 130.225,27.748 130.225C28.787 130.225,29.776 130.124,30.612 129.972C31.322 133.469,31.727 136.029,31.727 137.98C31.727 141.757,29.776 143.784,26.101 143.784C25.214 143.784,24.453 143.582,24.377 143.582C24.352 143.556,24.276 143.505,24.276 143.48C24.276 143.404,24.352 143.379,24.453 143.328C26.177 143.075,27.875 141.63,27.875 139.273C27.875 137.322,26.379 135.243,23.642 135.243C21.083 135.243,19.461 137.322,19.461 139.729"/></g><text stroke="none" font-family="Times New Roman, serif" font-size="12pt" font-weight="bold" x="75.875" y="70">D.S. al Fine</text><text stroke="none" font-size="8pt" x="7.031" y="83">1</text><g class="vf-stavenote" id="vf-auto22357"><g class="vf-stem" id="vf-auto22358" pointer-events="bounding-box"><path stroke-width="1.5" fill="none" d="M62.759 113L62.759 80"/></g><g class="vf-notehead" id="vf-auto22360" pointer-events="bounding-box"><path stroke="none" d="M50.367 116.685C50.367 118.426,51.631 120.391,54.888 120.391C59.1 120.391,63.509 116.938,63.509 113.371C63.509 110.985,61.487 109.665,58.988 109.665C55.057 109.665,50.367 112.978,50.367 116.685"/></g></g><g class="vf-stavenote" id="vf-auto22361"><g class="vf-stem" id="vf-auto22362" pointer-events="bounding-box"><path stroke-width="1.5" fill="none" d="M87.912 123L87.912 90"/></g><g class="vf-notehead" id="vf-auto22364" pointer-events="bounding-box"><path stroke="none" d="M75.521 126.685C75.521 128.426,76.784 130.391,80.042 130.391C84.254 130.391,88.662 126.938,88.662 123.371C88.662 120.985,86.64 119.665,84.141 119.665C80.21 119.665,75.521 122.978,75.521 126.685"/></g></g><g class="vf-stavenote" id="vf-auto22365"><g class="vf-stem" id="vf-auto22366" pointer-events="bounding-box"><path stroke-width="1.5" fill="none" d="M113.066 123L113.066 90"/></g><g class="vf-notehead" id="vf-auto22368" pointer-events="bounding-box"><path stroke="none" d="M100.674 126.685C100.674 128.426,101.938 130.391,105.195 130.391C109.407 130.391,113.816 126.938,113.816 123.371C113.816 120.985,111.794 119.665,109.295 119.665C105.364 119.665,100.674 122.978,100.674 126.685"/></g></g><g class="vf-stavenote" id="vf-auto22369"><g class="vf-stem" id="vf-auto22370" pointer-events="bounding-box"><path stroke-width="1.5" fill="none" d="M138.219 113L138.219 80"/></g><g class="vf-notehead" id="vf-auto22372" pointer-events="bounding-box"><path stroke="none" d="M125.828 116.685C125.828 118.426,127.091 120.391,130.349 120.391C134.561 120.391,138.969 116.938,138.969 113.371C138.969 110.985,136.948 109.665,134.448 109.665C130.517 109.665,125.828 112.978,125.828 116.685"/></g></g><g class="vf-stave" id="vf-auto22374" stroke-width="1" fill="#999999" stroke="#999999"><path fill="none" d="M160 90L310 90"/><path fill="none" d="M160 100L310 100"/><path fill="none" d="M160 110L310 110"/><path fill="none" d="M160 120L310 120"/><path fill="none" d="M160 130L310 130"/></g><g class="vf-stavebarline" id="vf-auto22375"><rect x="160" y="89.5" width="1" height="41" stroke="none"/></g><g class="vf-stavebarline" id="vf-auto22376"><rect x="310" y="89.5" width="1" height="41" stroke="none"/></g><path stroke="none" d="M306.306 66.275C306.19 62.963,303.901 60.314,301.064 60.098L301.064 58.053C301.064 57.88,300.949 57.765,300.776 57.765L300.546 57.765C300.387 57.765,300.272 57.88,300.272 58.053L300.272 60.098C297.478 60.371,295.275 63.021,295.16 66.275L293.288 66.275C293.13 66.275,293 66.405,293 66.578L293 66.779C293 66.952,293.13 67.067,293.288 67.067L295.16 67.067C295.39 70.221,297.565 72.755,300.272 73L300.272 75.059C300.272 75.218,300.387 75.347,300.546 75.347L300.776 75.347C300.949 75.347,301.064 75.218,301.064 75.059L301.064 73C303.843 72.813,306.061 70.264,306.291 67.067L308.178 67.067C308.35 67.067,308.451 66.952,308.451 66.779L308.451 66.578C308.451 66.405,308.35 66.275,308.178 66.275M301.064 66.275L301.064 60.731C303.31 60.947,304.131 63.338,304.131 66.275M300.272 66.275L297.334 66.275C297.334 63.381,298.141 61.034,300.272 60.746M300.272 67.067L300.272 72.352C298.27 72.064,297.334 69.846,297.334 67.067M301.064 67.067L304.117 67.067C304.117 69.904,303.166 72.136,301.064 72.352"/><text stroke="none" font-family="Times New Roman, serif" font-size="12pt" font-weight="bold" x="270.797" y="70">To</text><text stroke="none" font-size="8pt" x="157.031" y="83">2</text><g class="vf-stavenote" id="vf-auto22378"><g class="vf-stem" id="vf-auto22379" pointer-events="bounding-box"><path stroke-width="1.5" fill="none" d="M189.391 113L189.391 80"/></g><g class="vf-notehead" id="vf-auto22381" pointer-events="bounding-box"><path stroke="none" d="M177 116.685C177 118.426,178.264 120.391,181.521 120.391C185.733 120.391,190.141 116.938,190.141 113.371C190.141 110.985,188.12 109.665,185.621 109.665C181.689 109.665,177 112.978,177 116.685"/></g></g><g class="vf-stavenote" id="vf-auto22382"><g class="vf-stem" id="vf-auto22383" pointer-events="bounding-box"><path stroke-width="1.5" fill="none" d="M221.847 123L221.847 90"/></g><g class="vf-notehead" id="vf-auto22385" pointer-events="bounding-box"><path stroke="none" d="M209.456 126.685C209.456 128.426,210.719 130.391,213.977 130.391C218.189 130.391,222.597 126.938,222.597 123.371C222.597 120.985,220.575 119.665,218.076 119.665C214.145 119.665,209.456 122.978,209.456 126.685"/></g></g><g class="vf-stavenote" id="vf-auto22386"><g class="vf-stem" id="vf-auto22387" pointer-events="bounding-box"><path stroke-width="1.5" fill="none" d="M254.303 123L254.303 90"/></g><g class="vf-notehead" id="vf-auto22389" pointer-events="bounding-box"><path stroke="none" d="M241.912 126.685C241.912 128.426,243.175 130.391,246.432 130.391C250.644 130.391,255.053 126.938,255.053 123.371C255.053 120.985,253.031 119.665,250.532 119.665C246.601 119.665,241.912 122.978,241.912 126.685"/></g></g><g class="vf-stavenote" id="vf-auto22390"><g class="vf-stem" id="vf-auto22391" pointer-events="bounding-box"><path stroke-width="1.5" fill="none" d="M286.759 113L286.759 80"/></g><g class="vf-notehead" id="vf-auto22393" pointer-events="bounding-box"><path stroke="none" d="M274.367 116.685C274.367 118.426,275.631 120.391,278.888 120.391C283.1 120.391,287.509 116.938,287.509 113.371C287.509 110.985,285.487 109.665,282.988 109.665C279.057 109.665,274.367 112.978,274.367 116.685"/></g></g><g class="vf-stave" id="vf-auto22395" stroke-width="1" fill="#999999" stroke="#999999"><path fill="none" d="M310 90L460 90"/><path fill="none" d="M310 100L460 100"/><path fill="none" d="M310 110L460 110"/><path fill="none" d="M310 120L460 120"/><path fill="none" d="M310 130L460 130"/></g><g class="vf-stavebarline" id="vf-auto22396"><rect x="310" y="89.5" width="1" height="41" stroke="none"/></g><g class="vf-stavebarline" id="vf-auto22397"><rect x="460" y="89.5" width="1" height="41" stroke="none"/></g><path stroke="none" d="M456.306 66.275C456.19 62.963,453.901 60.314,451.064 60.098L451.064 58.053C451.064 57.88,450.949 57.765,450.776 57.765L450.546 57.765C450.387 57.765,450.272 57.88,450.272 58.053L450.272 60.098C447.478 60.371,445.275 63.021,445.16 66.275L443.288 66.275C443.13 66.275,443 66.405,443 66.578L443 66.779C443 66.952,443.13 67.067,443.288 67.067L445.16 67.067C445.39 70.221,447.565 72.755,450.272 73L450.272 75.059C450.272 75.218,450.387 75.347,450.546 75.347L450.776 75.347C450.949 75.347,451.064 75.218,451.064 75.059L451.064 73C453.843 72.813,456.061 70.264,456.291 67.067L458.178 67.067C458.35 67.067,458.451 66.952,458.451 66.779L458.451 66.578C458.451 66.405,458.35 66.275,458.178 66.275M451.064 66.275L451.064 60.731C453.31 60.947,454.131 63.338,454.131 66.275M450.272 66.275L447.334 66.275C447.334 63.381,448.141 61.034,450.272 60.746M450.272 67.067L450.272 72.352C448.27 72.064,447.334 69.846,447.334 67.067M451.064 67.067L454.117 67.067C454.117 69.904,453.166 72.136,451.064 72.352"/><text stroke="none" font-family="Times New Roman, serif" font-size="12pt" font-weight="bold" x="393.094" y="70">D.S. al</text><text stroke="none" font-size="8pt" x="307.031" y="83">3</text><g class="vf-stavenote" id="vf-auto22399"><g class="vf-stem" id="vf-auto22400" pointer-events="bounding-box"><path stroke-width="1.5" fill="none" d="M339.391 113L339.391 80"/></g><g class="vf-notehead" id="vf-auto22402" pointer-events="bounding-box"><path stroke="none" d="M327 116.685C327 118.426,328.264 120.391,331.521 120.391C335.733 120.391,340.141 116.938,340.141 113.371C340.141 110.985,338.12 109.665,335.621 109.665C331.689 109.665,327 112.978,327 116.685"/></g></g><g class="vf-stavenote" id="vf-auto22403"><g class="vf-stem" id="vf-auto22404" pointer-events="bounding-box"><path stroke-width="1.5" fill="none" d="M371.847 123L371.847 90"/></g><g class="vf-notehead" id="vf-auto22406" pointer-events="bounding-box"><path stroke="none" d="M359.456 126.685C359.456 128.426,360.719 130.391,363.977 130.391C368.189 130.391,372.597 126.938,372.597 123.371C372.597 120.985,370.575 119.665,368.076 119.665C364.145 119.665,359.456 122.978,359.456 126.685"/></g></g><g class="vf-stavenote" id="vf-auto22407"><g class="vf-stem" id="vf-auto22408" pointer-events="bounding-box"><path stroke-width="1.5" fill="none" d="M404.303 123L404.303 90"/></g><g class="vf-notehead" id="vf-auto22410" pointer-events="bounding-box"><path stroke="none" d="M391.912 126.685C391.912 128.426,393.175 130.391,396.432 130.391C400.644 130.391,405.053 126.938,405.053 123.371C405.053 120.985,403.031 119.665,400.532 119.665C396.601 119.665,391.912 122.978,391.912 126.685"/></g></g><g class="vf-stavenote" id="vf-auto22411"><g class="vf-stem" id="vf-auto22412" pointer-events="bounding-box"><path stroke-width="1.5" fill="none" d="M436.759 113L436.759 80"/></g><g class="vf-notehead" id="vf-auto22414" pointer-events="bounding-box"><path stroke="none" d="M424.367 116.685C424.367 118.426,425.631 120.391,428.888 120.391C433.1 120.391,437.509 116.938,437.509 113.371C437.509 110.985,435.487 109.665,432.988 109.665C429.057 109.665,424.367 112.978,424.367 116.685"/></g></g><g class="vf-stave" id="vf-auto22416" stroke-width="1" fill="#999999" stroke="#999999"><path fill="none" d="M460 90L610 90"/><path fill="none" d="M460 100L610 100"/><path fill="none" d="M460 110L610 110"/><path fill="none" d="M460 120L610 120"/><path fill="none" d="M460 130L610 130"/></g><g class="vf-stavebarline" id="vf-auto22417"><rect x="460" y="89.5" width="1" height="41" stroke="none"/></g><g class="vf-stavebarline" id="vf-auto22418"><rect x="610" y="89.5" width="1" height="41" stroke="none"/></g><path stroke="none" d="M524.759 66.275C524.644 62.963,522.354 60.314,519.517 60.098L519.517 58.053C519.517 57.88,519.402 57.765,519.229 57.765L518.999 57.765C518.84 57.765,518.725 57.88,518.725 58.053L518.725 60.098C515.932 60.371,513.728 63.021,513.613 66.275L511.741 66.275C511.583 66.275,511.453 66.405,511.453 66.578L511.453 66.779C511.453 66.952,511.583 67.067,511.741 67.067L513.613 67.067C513.844 70.221,516.018 72.755,518.725 73L518.725 75.059C518.725 75.218,518.84 75.347,518.999 75.347L519.229 75.347C519.402 75.347,519.517 75.218,519.517 75.059L519.517 73C522.296 72.813,524.514 70.264,524.744 67.067L526.631 67.067C526.804 67.067,526.904 66.952,526.904 66.779L526.904 66.578C526.904 66.405,526.804 66.275,526.631 66.275M519.517 66.275L519.517 60.731C521.764 60.947,522.584 63.338,522.584 66.275M518.725 66.275L515.788 66.275C515.788 63.381,516.594 61.034,518.725 60.746M518.725 67.067L518.725 72.352C516.724 72.064,515.788 69.846,515.788 67.067M519.517 67.067L522.57 67.067C522.57 69.904,521.62 72.136,519.517 72.352"/><text stroke="none" font-family="Times New Roman, serif" font-size="12pt" font-weight="bold" x="470" y="70">Coda</text><text stroke="none" font-size="8pt" x="457.031" y="83">4</text><g class="vf-stavenote" id="vf-auto22420"><g class="vf-stem" id="vf-auto22421" pointer-events="bounding-box"><path stroke-width="1.5" fill="none" d="M489.391 113L489.391 80"/></g><g class="vf-notehead" id="vf-auto22423" pointer-events="bounding-box"><path stroke="none" d="M477 116.685C477 118.426,478.264 120.391,481.521 120.391C485.733 120.391,490.141 116.938,490.141 113.371C490.141 110.985,488.12 109.665,485.621 109.665C481.689 109.665,477 112.978,477 116.685"/></g></g><g class="vf-stavenote" id="vf-auto22424"><g class="vf-stem" id="vf-auto22425" pointer-events="bounding-box"><path stroke-width="1.5" fill="none" d="M521.847 123L521.847 90"/></g><g class="vf-notehead" id="vf-auto22427" pointer-events="bounding-box"><path stroke="none" d="M509.456 126.685C509.456 128.426,510.719 130.391,513.977 130.391C518.189 130.391,522.597 126.938,522.597 123.371C522.597 120.985,520.575 119.665,518.076 119.665C514.145 119.665,509.456 122.978,509.456 126.685"/></g></g><g class="vf-stavenote" id="vf-auto22428"><g class="vf-stem" id="vf-auto22429" pointer-events="bounding-box"><path stroke-width="1.5" fill="none" d="M554.303 123L554.303 90"/></g><g class="vf-notehead" id="vf-auto22431" pointer-events="bounding-box"><path stroke="none" d="M541.912 126.685C541.912 128.426,543.175 130.391,546.432 130.391C550.644 130.391,555.053 126.938,555.053 123.371C555.053 120.985,553.031 119.665,550.532 119.665C546.601 119.665,541.912 122.978,541.912 126.685"/></g></g><g class="vf-stavenote" id="vf-auto22432"><g class="vf-stem" id="vf-auto22433" pointer-events="bounding-box"><path stroke-width="1.5" fill="none" d="M586.759 113L586.759 80"/></g><g class="vf-notehead" id="vf-auto22435" pointer-events="bounding-box"><path stroke="none" d="M574.367 116.685C574.367 118.426,575.631 120.391,578.888 120.391C583.1 120.391,587.509 116.938,587.509 113.371C587.509 110.985,585.487 109.665,582.988 109.665C579.057 109.665,574.367 112.978,574.367 116.685"/></g></g></svg>