<svg xmlns="http://www.w3.org/2000/svg" stroke-width="0.3" stroke-dasharray="none" fill="black" stroke="black" font-family="Arial, sans-serif" font-size="10pt" font-weight="normal" font-style="normal" width="750" height="280" viewBox="0 0 750 280" style="width: 750px; height: 280px; border: none;"><g class="vf-stave" id="vf-auto1584" stroke-width="1" fill="#999999" stroke="#999999"><path fill="none" d="M10 80L410.623 80"/><path fill="none" d="M10 90L410.623 90"/><path fill="none" d="M10 100L410.623 100"/><path fill="none" d="M10 110L410.623 110"/><path fill="none" d="M10 120L410.623 120"/></g><g class="vf-stavebarline" id="vf-auto1585"><rect x="10" y="79.5" width="1" height="41" stroke="none"/></g><g class="vf-stavebarline" id="vf-auto1586"><rect x="410.623" y="79.5" width="1" height="41" stroke="none"/></g><g class="vf-stavenote" id="vf-auto1476"><g class="vf-notehead" id="vf-auto1557" pointer-events="bounding-box"><path stroke="none" d="M47.445 91.543C47.725 91.599,47.978 91.627,48.259 91.627C52.134 91.627,57.918 86.348,57.806 82.08C57.694 81.041,57.722 79.609,55.616 78.766C55.026 78.485,54.38 78.373,53.678 78.373C49.354 78.373,44.665 83.343,44.328 86.657C44.328 86.909,44.3 87.134,44.3 87.387C44.3 89.409,45.198 91.037,47.445 91.543"/><path stroke="none" d="M32.298 91.265C32.49 91.265,32.681 91.156,32.928 90.91C33.776 90.089,34.569 89.213,35.472 88.42C35.8 88.146,36.074 87.873,36.348 87.599C37.415 88.42,38.482 89.296,39.494 90.171C39.74 90.363,39.932 90.472,40.123 90.472C40.397 90.472,40.643 90.253,40.835 89.897C41.218 89.213,41.108 88.42,41.272 87.791C41.218 86.888,40.944 86.259,40.315 85.739L38.892 84.617C39.576 83.851,40.233 83.14,40.999 82.51C41.218 82.373,41.3 82.072,41.3 81.525C41.19 80.951,40.862 80.185,40.452 79.528C40.123 78.981,39.85 78.735,39.576 78.735C39.302 78.735,38.974 78.899,38.591 79.254C38.208 79.555,37.798 79.884,37.497 80.239C36.895 80.869,36.348 81.498,35.8 82.155C34.733 81.388,33.612 80.595,32.517 79.884C32.353 79.747,32.244 79.72,32.134 79.72C32.052 79.72,31.97 79.72,31.86 79.802C31.696 79.911,31.45 79.884,31.313 80.103C31.176 80.404,31.094 80.787,31.094 81.252C31.094 82.483,31.532 84.124,32.216 84.562C32.435 84.726,32.681 84.891,32.928 85.082C32.079 85.876,31.231 86.696,30.383 87.572C30.164 87.791,30 88.119,30 88.393C30 88.666,30.082 88.94,30.328 89.213C30.711 89.815,31.313 90.28,31.696 90.882C31.888 91.156,32.079 91.265,32.298 91.265"/><path stroke="none" d="M64.808 85 A2 2 0 0 0 60.808 85 A2 2 0 0 0 64.808 85"/></g></g><g class="vf-stavenote" id="vf-auto1484"><g class="vf-notehead" id="vf-auto1559" pointer-events="bounding-box"><path stroke="none" d="M89.309 106.543C89.589 106.599,89.842 106.627,90.123 106.627C93.998 106.627,99.782 101.348,99.67 97.08C99.558 96.041,99.586 94.609,97.48 93.766C96.89 93.485,96.244 93.373,95.542 93.373C91.218 93.373,86.529 98.343,86.192 101.657C86.192 101.909,86.164 102.134,86.164 102.387C86.164 104.409,87.062 106.037,89.309 106.543"/><path stroke="none" d="M75.776 108.208C75.886 108.208,76.05 108.126,76.241 107.907C76.761 107.497,77.336 107.059,77.91 106.648C81.358 104.186,83.218 100.821,83.218 96.525C83.218 95.978,83.218 95.458,83.136 94.911C82.945 92.996,81.85 91.874,80.181 91.874C79.826 91.874,79.443 91.956,79.005 92.093C78.458 92.23,77.91 92.503,77.336 92.75L77.309 92.777L77.309 91.765C77.309 90.26,77.391 88.782,77.473 87.278C77.473 86.402,77.555 85.581,77.555 84.706C77.555 83.885,77.473 83.009,77.281 82.189C77.199 81.915,77.199 81.395,76.789 81.395L76.761 81.395C76.324 81.45,75.995 81.806,75.995 82.353C75.968 83.447,75.858 84.596,75.886 85.691L75.886 86.922C75.886 89.248,75.776 91.573,75.694 93.899C75.585 97.237,75.01 100.52,75.01 103.858C75.01 105.171,75.092 106.539,75.448 107.852C75.53 108.071,75.612 108.208,75.776 108.208M76.843 102.873C76.925 101.86,76.953 100.793,77.062 99.672C77.144 98.824,77.199 97.948,77.199 97.072L77.336 97.018C78.102 96.689,78.841 96.306,79.661 96.306C79.935 96.306,80.263 96.388,80.564 96.498C81.221 96.717,81.522 97.045,81.495 97.483C81.495 97.702,81.44 97.948,81.276 98.276C80.263 100.274,78.594 101.614,76.843 102.873"/></g></g><g class="vf-stavenote" id="vf-auto1492"><path stroke-width="1.4" fill="none" stroke="#444" d="M106.705 130L126.213 130"/><path stroke-width="1.4" fill="none" stroke="#444" d="M106.705 140L126.213 140"/><path stroke-width="1.4" fill="none" stroke="#444" d="M106.705 150L126.213 150"/><g class="vf-notehead" id="vf-auto1561" pointer-events="bounding-box"><path stroke="none" d="M112.85 156.543C113.131 156.599,113.384 156.627,113.665 156.627C117.54 156.627,123.324 151.348,123.212 147.08C123.1 146.041,123.128 144.609,121.022 143.766C120.432 143.485,119.786 143.373,119.084 143.373C114.76 143.373,110.07 148.343,109.733 151.657C109.733 151.909,109.705 152.134,109.705 152.387C109.705 154.409,110.604 156.037,112.85 156.543"/></g></g><g class="vf-stavenote" id="vf-auto1498"><path stroke-width="1.4" fill="none" stroke="#444" d="M138.099 130L157.607 130"/><path stroke-width="1.4" fill="none" stroke="#444" d="M138.099 140L157.607 140"/><g class="vf-notehead" id="vf-auto1563" pointer-events="bounding-box"><path stroke="none" d="M144.244 146.543C144.525 146.599,144.777 146.627,145.058 146.627C148.933 146.627,154.718 141.348,154.605 137.08C154.493 136.041,154.521 134.609,152.415 133.766C151.825 133.485,151.18 133.373,150.478 133.373C146.153 133.373,141.464 138.343,141.127 141.657C141.127 141.909,141.099 142.134,141.099 142.387C141.099 144.409,141.997 146.037,144.244 146.543"/></g></g><g class="vf-stavenote" id="vf-auto1504"><g class="vf-notehead" id="vf-auto1565" pointer-events="bounding-box"><path stroke="none" d="M197.042 126.543C197.323 126.599,197.576 126.627,197.856 126.627C201.732 126.627,207.516 121.348,207.404 117.08C207.291 116.041,207.319 114.609,205.213 113.766C204.624 113.485,203.978 113.373,203.276 113.373C198.952 113.373,194.262 118.343,193.925 121.657C193.925 121.909,193.897 122.134,193.897 122.387C193.897 124.409,194.796 126.037,197.042 126.543"/><path stroke="none" d="M160.783 128.673C161.112 128.673,161.331 128.482,161.577 128.235C162.562 127.332,163.273 126.183,163.985 125.089C164.696 123.967,165.407 122.791,166.064 121.642C166.037 122.326,165.982 122.955,165.982 123.584C165.982 124.405,166.037 125.198,166.146 126.019C166.173 126.375,166.146 126.566,166.693 126.731C167.377 126.895,167.569 126.512,167.842 126.238C169.703 124.46,170.989 122.326,172.329 120.192C173.287 118.687,173.752 117.045,173.752 115.267C173.752 113.735,173.424 112.23,171.946 111.6C171.536 111.464,171.153 111.382,170.797 111.382C170.058 111.382,169.347 111.655,168.663 112.148C168.472 112.284,168.362 112.503,168.116 112.503L168.089 112.503L168.089 104.514C168.089 103.994,168.143 103.502,167.952 103.009C167.842 102.818,167.952 102.435,167.651 102.435L167.596 102.435C167.322 102.462,166.885 102.599,166.83 102.982C166.693 103.42,166.611 103.858,166.529 104.268C166.392 105.691,166.338 107.113,166.338 108.564C166.338 110.15,166.392 111.737,166.392 113.352L166.392 114.884C165.626 113.844,164.887 113.488,164.094 113.488C163.437 113.488,162.671 113.817,161.933 114.172C161.933 113.981,161.905 113.844,161.905 113.735C161.933 112.941,161.96 112.148,161.96 111.382C161.96 109.439,161.85 107.469,161.823 105.554C161.823 105.034,161.741 104.514,161.55 104.076C161.413 103.858,161.467 103.502,161.139 103.502L161.057 103.502C160.701 103.584,160.318 103.639,160.236 104.131C160.154 104.514,160.127 104.897,160.127 105.308C160.127 105.499,160.127 105.745,160.154 105.937C160.264 107.086,160.318 108.18,160.318 109.33C160.318 112.284,160.045 115.239,159.99 118.194C159.963 120.328,159.607 122.49,159.607 124.596C159.607 125.636,159.689 126.621,159.935 127.633C160.045 128.044,159.99 128.427,160.428 128.591C160.565 128.673,160.674 128.673,160.783 128.673M167.842 121.97C167.87 121.231,167.87 120.52,167.87 119.808L167.87 117.647C167.924 116.689,168.39 116.033,169.21 115.677C169.484 115.54,169.812 115.458,170.086 115.458C170.606 115.458,171.071 115.704,171.509 116.088C171.673 116.224,171.782 116.388,171.782 116.525C171.782 116.662,171.755 116.772,171.673 116.881C170.469 118.659,169.292 120.383,167.842 121.97M161.659 124.022C161.659 122.353,161.659 120.793,161.604 119.179C161.604 118.304,162.124 117.921,162.835 117.756C163 117.702,163.109 117.702,163.218 117.702C163.875 117.702,164.368 118.112,164.805 118.577C164.86 118.659,164.887 118.769,164.887 118.906C164.887 118.988,164.887 119.042,164.86 119.097C163.902 120.821,163.027 122.599,161.659 124.022"/></g><g class="vf-notehead" id="vf-auto1566" pointer-events="bounding-box"><path stroke="none" d="M197.042 116.543C197.323 116.599,197.576 116.627,197.856 116.627C201.732 116.627,207.516 111.348,207.404 107.08C207.291 106.041,207.319 104.609,205.213 103.766C204.624 103.485,203.978 103.373,203.276 103.373C198.952 103.373,194.262 108.343,193.925 111.657C193.925 111.909,193.897 112.134,193.897 112.387C193.897 114.409,194.796 116.037,197.042 116.543"/><path stroke="none" d="M177.929 118.673C178.257 118.673,178.476 118.482,178.722 118.235C179.707 117.332,180.418 116.183,181.13 115.089C181.841 113.967,182.552 112.791,183.209 111.642C183.182 112.326,183.127 112.955,183.127 113.584C183.127 114.405,183.182 115.198,183.291 116.019C183.318 116.375,183.291 116.566,183.838 116.731C184.522 116.895,184.714 116.512,184.987 116.238C186.848 114.46,188.134 112.326,189.474 110.192C190.432 108.687,190.897 107.045,190.897 105.267C190.897 103.735,190.569 102.23,189.091 101.6C188.681 101.464,188.298 101.382,187.942 101.382C187.204 101.382,186.492 101.655,185.808 102.148C185.617 102.284,185.507 102.503,185.261 102.503L185.234 102.503L185.234 94.514C185.234 93.994,185.288 93.502,185.097 93.009C184.987 92.818,185.097 92.435,184.796 92.435L184.741 92.435C184.468 92.462,184.03 92.599,183.975 92.982C183.838 93.42,183.756 93.858,183.674 94.268C183.537 95.691,183.483 97.113,183.483 98.564C183.483 100.15,183.537 101.737,183.537 103.352L183.537 104.884C182.771 103.844,182.033 103.488,181.239 103.488C180.582 103.488,179.816 103.817,179.078 104.172C179.078 103.981,179.05 103.844,179.05 103.735C179.078 102.941,179.105 102.148,179.105 101.382C179.105 99.439,178.996 97.469,178.968 95.554C178.968 95.034,178.886 94.514,178.695 94.076C178.558 93.858,178.613 93.502,178.284 93.502L178.202 93.502C177.846 93.584,177.463 93.639,177.381 94.131C177.299 94.514,177.272 94.897,177.272 95.308C177.272 95.499,177.272 95.745,177.299 95.937C177.409 97.086,177.463 98.18,177.463 99.33C177.463 102.284,177.19 105.239,177.135 108.194C177.108 110.328,176.752 112.49,176.752 114.596C176.752 115.636,176.834 116.621,177.08 117.633C177.19 118.044,177.135 118.427,177.573 118.591C177.71 118.673,177.819 118.673,177.929 118.673M184.987 111.97C185.015 111.231,185.015 110.52,185.015 109.808L185.015 107.647C185.07 106.689,185.535 106.033,186.355 105.677C186.629 105.54,186.957 105.458,187.231 105.458C187.751 105.458,188.216 105.704,188.654 106.088C188.818 106.224,188.927 106.388,188.927 106.525C188.927 106.662,188.9 106.772,188.818 106.881C187.614 108.659,186.438 110.383,184.987 111.97M178.804 114.022C178.804 112.353,178.804 110.793,178.749 109.179C178.749 108.304,179.269 107.921,179.981 107.756C180.145 107.702,180.254 107.702,180.364 107.702C181.02 107.702,181.513 108.112,181.95 108.577C182.005 108.659,182.033 108.769,182.033 108.906C182.033 108.988,182.033 109.042,182.005 109.097C181.048 110.821,180.172 112.599,178.804 114.022"/></g></g><g class="vf-stavenote" id="vf-auto1516"><g class="vf-notehead" id="vf-auto1568" pointer-events="bounding-box"><path stroke="none" d="M220.584 131.543C220.865 131.599,221.117 131.627,221.398 131.627C225.273 131.627,231.058 126.348,230.945 122.08C230.833 121.041,230.861 119.609,228.755 118.766C228.166 118.485,227.52 118.373,226.818 118.373C222.493 118.373,217.804 123.343,217.467 126.657C217.467 126.909,217.439 127.134,217.439 127.387C217.439 129.409,218.338 131.037,220.584 131.543"/></g></g><g class="vf-stavenote" id="vf-auto1522"><g class="vf-notehead" id="vf-auto1570" pointer-events="bounding-box"><path stroke="none" d="M277.596 126.543C277.877 126.599,278.129 126.627,278.41 126.627C282.285 126.627,288.07 121.348,287.957 117.08C287.845 116.041,287.873 114.609,285.767 113.766C285.177 113.485,284.532 113.373,283.83 113.373C279.505 113.373,274.816 118.343,274.479 121.657C274.479 121.909,274.451 122.134,274.451 122.387C274.451 124.409,275.349 126.037,277.596 126.543"/><path stroke="none" d="M242.349 135.13C242.65 135.103,242.732 134.665,242.814 134.391C242.979 133.872,243.006 133.352,243.006 132.887C243.006 132.449,242.979 132.066,242.979 131.628C242.979 131.354,242.979 130.999,243.006 130.725C243.088 129.932,243.17 129.138,243.198 128.345L244.949 127.989C245.031 129.658,245.332 131.272,245.879 132.832C245.934 133.051,246.07 133.27,246.317 133.27C246.563 133.324,246.645 133.051,246.754 132.832C247.028 132.421,247.055 131.902,247.055 131.436C247.11 131.081,247.11 130.752,247.11 130.452C247.11 129.494,247.028 128.509,247.001 127.551L249.271 127.086C251.433 126.648,251.706 126.348,251.871 124.268C251.871 123.748,251.925 123.393,251.871 122.982C251.843 122.49,251.624 122.134,251.214 122.134L251.132 122.134C250.968 122.134,250.858 122.134,250.694 122.161C249.791 122.408,248.806 122.599,247.849 122.763L247.192 122.873C247.219 122.326,247.219 121.724,247.274 121.149C247.302 119.891,247.329 118.632,247.329 117.373C248.451 117.072,249.518 116.772,250.585 116.416C251.159 116.224,251.679 115.896,251.843 115.267C251.98 114.555,252.199 113.899,252.199 113.187C252.199 112.777,252.144 112.367,251.98 111.956C251.843 111.573,251.706 111.382,251.488 111.382L251.406 111.382C251.269 111.382,251.132 111.382,250.968 111.464C249.737 111.956,248.533 112.367,247.274 112.722L247.137 110.588C247.055 108.892,247.001 107.168,246.645 105.472C246.563 105.253,246.59 104.897,246.344 104.897L246.317 104.897L246.207 104.897C245.879 104.979,245.496 105.116,245.441 105.554L245.441 106.293C245.441 108.618,245.523 110.889,245.578 113.187L243.471 113.652C243.471 112.476,243.444 111.3,243.362 110.123C243.334 109.521,243.334 108.974,243.006 108.372C242.13 108.81,242.267 109.548,242.267 110.178C242.185 111.464,242.13 112.668,242.103 113.899C241.009 114.118,239.887 114.282,238.793 114.473C237.178 114.747,236.932 114.993,236.932 116.772C236.823 117.209,237.151 117.702,237.096 118.194C237.014 118.933,237.206 119.179,237.726 119.207C237.835 119.207,237.972 119.179,238.136 119.124C239.422 118.933,240.68 118.741,241.939 118.495L241.83 122.052C241.775 122.709,241.72 123.338,241.638 123.967C240.161 124.268,238.71 124.542,237.26 124.897C236.44 125.089,235.947 125.39,235.947 126.348C235.947 127.278,236.303 128.153,236.358 129.056C236.358 129.494,236.467 129.685,236.795 129.74C236.85 129.74,236.987 129.685,237.151 129.658C238.546 129.33,239.969 129.056,241.392 128.755C241.364 129.248,241.364 129.768,241.364 130.315C241.364 131.71,241.501 133.051,241.994 134.391C242.076 134.665,241.994 135.13,242.349 135.13M243.389 123.612C243.444 122.763,243.444 121.888,243.471 121.012C243.526 120.082,243.526 119.179,243.526 118.222C244.182 118.112,244.812 118.003,245.441 117.839C245.25 119.644,245.167 121.45,245.058 123.283"/></g><g class="vf-notehead" id="vf-auto1571" pointer-events="bounding-box"><path stroke="none" d="M277.596 116.543C277.877 116.599,278.129 116.627,278.41 116.627C282.285 116.627,288.07 111.348,287.957 107.08C287.845 106.041,287.873 104.609,285.767 103.766C285.177 103.485,284.532 103.373,283.83 103.373C279.505 103.373,274.816 108.343,274.479 111.657C274.479 111.909,274.451 112.134,274.451 112.387C274.451 114.409,275.349 116.037,277.596 116.543"/><path stroke="none" d="M261.601 125.13C261.902 125.103,261.984 124.665,262.066 124.391C262.23 123.872,262.258 123.352,262.258 122.887C262.258 122.449,262.23 122.066,262.23 121.628C262.23 121.354,262.23 120.999,262.258 120.725C262.34 119.932,262.422 119.138,262.449 118.345L264.2 117.989C264.282 119.658,264.583 121.272,265.131 122.832C265.185 123.051,265.322 123.27,265.568 123.27C265.815 123.324,265.897 123.051,266.006 122.832C266.28 122.421,266.307 121.902,266.307 121.436C266.362 121.081,266.362 120.752,266.362 120.452C266.362 119.494,266.28 118.509,266.252 117.551L268.523 117.086C270.685 116.648,270.958 116.348,271.122 114.268C271.122 113.748,271.177 113.393,271.122 112.982C271.095 112.49,270.876 112.134,270.466 112.134L270.384 112.134C270.22 112.134,270.11 112.134,269.946 112.161C269.043 112.408,268.058 112.599,267.101 112.763L266.444 112.873C266.471 112.326,266.471 111.724,266.526 111.149C266.553 109.891,266.581 108.632,266.581 107.373C267.702 107.072,268.77 106.772,269.837 106.416C270.411 106.224,270.931 105.896,271.095 105.267C271.232 104.555,271.451 103.899,271.451 103.187C271.451 102.777,271.396 102.367,271.232 101.956C271.095 101.573,270.958 101.382,270.739 101.382L270.657 101.382C270.521 101.382,270.384 101.382,270.22 101.464C268.988 101.956,267.785 102.367,266.526 102.722L266.389 100.588C266.307 98.892,266.252 97.168,265.897 95.472C265.815 95.253,265.842 94.897,265.596 94.897L265.568 94.897L265.459 94.897C265.131 94.979,264.748 95.116,264.693 95.554L264.693 96.293C264.693 98.618,264.775 100.889,264.83 103.187L262.723 103.652C262.723 102.476,262.696 101.3,262.614 100.123C262.586 99.521,262.586 98.974,262.258 98.372C261.382 98.81,261.519 99.548,261.519 100.178C261.437 101.464,261.382 102.668,261.355 103.899C260.261 104.118,259.139 104.282,258.044 104.473C256.43 104.747,256.184 104.993,256.184 106.772C256.074 107.209,256.403 107.702,256.348 108.194C256.266 108.933,256.458 109.179,256.977 109.207C257.087 109.207,257.224 109.179,257.388 109.124C258.674 108.933,259.932 108.741,261.191 108.495L261.081 112.052C261.027 112.709,260.972 113.338,260.89 113.967C259.412 114.268,257.962 114.542,256.512 114.897C255.691 115.089,255.199 115.39,255.199 116.348C255.199 117.278,255.555 118.153,255.609 119.056C255.609 119.494,255.719 119.685,256.047 119.74C256.102 119.74,256.239 119.685,256.403 119.658C257.798 119.33,259.221 119.056,260.644 118.755C260.616 119.248,260.616 119.768,260.616 120.315C260.616 121.71,260.753 123.051,261.246 124.391C261.328 124.665,261.246 125.13,261.601 125.13M262.641 113.612C262.696 112.763,262.696 111.888,262.723 111.012C262.778 110.082,262.778 109.179,262.778 108.222C263.434 108.112,264.064 108.003,264.693 107.839C264.501 109.644,264.419 111.45,264.31 113.283"/></g></g><g class="vf-stavenote" id="vf-auto1534"><g class="vf-notehead" id="vf-auto1573" pointer-events="bounding-box"><path stroke="none" d="M301.138 116.543C301.418 116.599,301.671 116.627,301.952 116.627C305.827 116.627,311.611 111.348,311.499 107.08C311.387 106.041,311.415 104.609,309.309 103.766C308.719 103.485,308.073 103.373,307.371 103.373C303.047 103.373,298.358 108.343,298.021 111.657C298.021 111.909,297.993 112.134,297.993 112.387C297.993 114.409,298.891 116.037,301.138 116.543"/></g></g><g class="vf-stavenote" id="vf-auto1540"><g class="vf-notehead" id="vf-auto1575" pointer-events="bounding-box"><path stroke="none" d="M321.524 111.543C321.805 111.599,322.057 111.627,322.338 111.627C326.213 111.627,331.998 106.348,331.885 102.08C331.773 101.041,331.801 99.609,329.695 98.766C329.106 98.485,328.46 98.373,327.758 98.373C323.433 98.373,318.744 103.343,318.407 106.657C318.407 106.909,318.379 107.134,318.379 107.387C318.379 109.409,319.278 111.037,321.524 111.543"/></g></g><g class="vf-stavenote" id="vf-auto1546"><g class="vf-notehead" id="vf-auto1577" pointer-events="bounding-box"><path stroke="none" d="M341.91 116.543C342.191 116.599,342.444 116.627,342.725 116.627C346.6 116.627,352.384 111.348,352.272 107.08C352.159 106.041,352.188 104.609,350.082 103.766C349.492 103.485,348.846 103.373,348.144 103.373C343.82 103.373,339.13 108.343,338.793 111.657C338.793 111.909,338.765 112.134,338.765 112.387C338.765 114.409,339.664 116.037,341.91 116.543"/></g></g><g class="vf-stavenote" id="vf-auto1552"><g class="vf-stem" id="vf-auto1553" pointer-events="bounding-box"><path stroke-width="1.5" fill="none" d="M375.065 123L375.065 90"/></g><g class="vf-notehead" id="vf-auto1579" pointer-events="bounding-box"><path stroke="none" d="M365.452 131.543C365.733 131.599,365.986 131.627,366.266 131.627C370.141 131.627,375.926 126.348,375.814 122.08C375.701 121.041,375.729 119.609,373.623 118.766C373.034 118.485,372.388 118.373,371.686 118.373C367.362 118.373,362.672 123.343,362.335 126.657C362.335 126.909,362.307 127.134,362.307 127.387C362.307 129.409,363.206 131.037,365.452 131.543"/></g></g><g class="vf-stem" id="vf-auto1477" pointer-events="bounding-box"><path stroke-width="1.5" fill="none" d="M45.05 87L45.05 126.924"/></g><g class="vf-stem" id="vf-auto1485" pointer-events="bounding-box"><path stroke-width="1.5" fill="none" d="M86.914 102L86.914 134.25"/></g><g class="vf-beam" id="vf-auto1580"><path stroke="none" d="M44.3 127.543L44.3 122.543L87.164 129.869L87.164 134.869Z"/><path stroke="none" d="M86.164 127.369L86.164 122.369L77.164 120.619L77.164 125.619Z"/></g><g class="vf-stem" id="vf-auto1493" pointer-events="bounding-box"><path stroke-width="1.5" fill="none" d="M122.463 148L122.463 96.798"/></g><g class="vf-stem" id="vf-auto1499" pointer-events="bounding-box"><path stroke-width="1.5" fill="none" d="M153.857 138L153.857 88.95"/></g><g class="vf-stem" id="vf-auto1505" pointer-events="bounding-box"><path stroke-width="1.5" fill="none" d="M206.655 118L206.655 75.75"/></g><g class="vf-beam" id="vf-auto1581"><path stroke="none" d="M121.713 96.235L121.713 101.235L206.905 80.188L206.905 75.188Z"/><path stroke="none" d="M153.107 95.887L153.107 100.887L206.905 87.688L206.905 82.688Z"/></g><g class="vf-stem" id="vf-auto1517" pointer-events="bounding-box"><path stroke-width="1.5" fill="none" d="M230.197 123L230.197 88.388"/></g><g class="vf-stem" id="vf-auto1523" pointer-events="bounding-box"><path stroke-width="1.5" fill="none" d="M287.209 118L287.209 74.135"/></g><g class="vf-stem" id="vf-auto1535" pointer-events="bounding-box"><path stroke-width="1.5" fill="none" d="M310.751 108L310.751 68.25"/></g><g class="vf-stem" id="vf-auto1541" pointer-events="bounding-box"><path stroke-width="1.5" fill="none" d="M331.137 103L331.137 63.153"/></g><g class="vf-stem" id="vf-auto1547" pointer-events="bounding-box"><path stroke-width="1.5" fill="none" d="M351.523 108L351.523 58.057"/></g><g class="vf-beam" id="vf-auto1582"><path stroke="none" d="M229.447 87.826L229.447 92.826L351.773 62.494L351.773 57.494Z"/><path stroke="none" d="M229.447 95.326L229.447 100.326L351.773 69.994L351.773 64.994Z"/><path stroke="none" d="M310.001 82.688L310.001 87.688L331.387 82.591L331.387 77.591Z"/></g><text stroke="none" font-size="8pt" x="27" y="30">37px</text><path stroke-width="3" fill="none" stroke="red" d="M27 37L44.3 37"/><path stroke-width="3" fill="none" stroke="#999" d="M44.3 37L44.3 37"/><path stroke-width="3" fill="none" stroke="green" d="M44.3 37L57.808 37"/><path stroke-width="3" fill="none" stroke="#999" d="M57.808 37L57.808 37"/><path stroke-width="3" fill="none" stroke="red" d="M57.808 37L63.808 37"/><path stroke-width="3" fill="none" stroke="#DD0" d="M63.808 37L71.956 37"/><path stroke-width="3" fill="none" stroke="#BBB" d="M27 37L27 37"/><path stroke-width="3" fill="blue" stroke="none" d="M47.3 37 A3 3 0 0 0 41.3 37 A3 3 0 0 0 47.3 37Z"/><text stroke-width="3" fill="red" stroke="none" font-size="8pt" x="44.3" y="20">+0</text><text stroke="none" font-size="8pt" x="71.956" y="30">28px</text><path stroke-width="3" fill="none" stroke="red" d="M71.956 37L86.164 37"/><path stroke-width="3" fill="none" stroke="#999" d="M86.164 37L86.164 37"/><path stroke-width="3" fill="none" stroke="green" d="M86.164 37L99.672 37"/><path stroke-width="3" fill="none" stroke="#999" d="M99.672 37L99.672 37"/><path stroke-width="3" fill="none" stroke="red" d="M99.672 37L99.672 37"/><path stroke-width="3" fill="none" stroke="#DD0" d="M99.672 37L109.705 37"/><path stroke-width="3" fill="none" stroke="#BBB" d="M71.956 37L71.956 37"/><path stroke-width="3" fill="blue" stroke="none" d="M89.164 37 A3 3 0 0 0 83.164 37 A3 3 0 0 0 89.164 37Z"/><text stroke-width="3" fill="red" stroke="none" font-size="8pt" x="86.164" y="20">-5</text><text stroke="none" font-size="8pt" x="109.705" y="30">16px</text><path stroke-width="3" fill="none" stroke="red" d="M109.705 37L109.705 37"/><path stroke-width="3" fill="none" stroke="#999" d="M109.705 37L109.705 37"/><path stroke-width="3" fill="none" stroke="green" d="M109.705 37L125.213 37"/><path stroke-width="3" fill="none" stroke="#999" d="M125.213 37L125.213 37"/><path stroke-width="3" fill="none" stroke="red" d="M125.213 37L125.213 37"/><path stroke-width="3" fill="none" stroke="#DD0" d="M125.213 37L141.099 37"/><path stroke-width="3" fill="none" stroke="#BBB" d="M109.705 37L109.705 37"/><path stroke-width="3" fill="blue" stroke="none" d="M112.705 37 A3 3 0 0 0 106.705 37 A3 3 0 0 0 112.705 37Z"/><text stroke-width="3" fill="red" stroke="none" font-size="8pt" x="109.705" y="20">+0</text><text stroke="none" font-size="8pt" x="141.099" y="30">16px</text><path stroke-width="3" fill="none" stroke="red" d="M141.099 37L141.099 37"/><path stroke-width="3" fill="none" stroke="#999" d="M141.099 37L141.099 37"/><path stroke-width="3" fill="none" stroke="green" d="M141.099 37L156.607 37"/><path stroke-width="3" fill="none" stroke="#999" d="M156.607 37L156.607 37"/><path stroke-width="3" fill="none" stroke="red" d="M156.607 37L156.607 37"/><path stroke-width="3" fill="none" stroke="#DD0" d="M156.607 37L156.607 37"/><path stroke-width="3" fill="none" stroke="#BBB" d="M141.099 37L141.099 37"/><path stroke-width="3" fill="blue" stroke="none" d="M144.099 37 A3 3 0 0 0 138.099 37 A3 3 0 0 0 144.099 37Z"/><text stroke-width="3" fill="red" stroke="none" font-size="8pt" x="141.099" y="20">+24</text><text stroke="none" font-size="8pt" x="156.607" y="30">51px</text><path stroke-width="3" fill="none" stroke="red" d="M156.607 37L193.897 37"/><path stroke-width="3" fill="none" stroke="#999" d="M193.897 37L193.897 37"/><path stroke-width="3" fill="none" stroke="green" d="M193.897 37L207.405 37"/><path stroke-width="3" fill="none" stroke="#999" d="M207.405 37L207.405 37"/><path stroke-width="3" fill="none" stroke="red" d="M207.405 37L207.405 37"/><path stroke-width="3" fill="none" stroke="#DD0" d="M207.405 37L217.439 37"/><path stroke-width="3" fill="none" stroke="#BBB" d="M156.607 37L156.607 37"/><path stroke-width="3" fill="blue" stroke="none" d="M196.897 37 A3 3 0 0 0 190.897 37 A3 3 0 0 0 196.897 37Z"/><text stroke-width="3" fill="red" stroke="none" font-size="8pt" x="193.897" y="20">-5</text><text stroke="none" font-size="8pt" x="217.439" y="30">16px</text><path stroke-width="3" fill="none" stroke="red" d="M217.439 37L217.439 37"/><path stroke-width="3" fill="none" stroke="#999" d="M217.439 37L217.439 37"/><path stroke-width="3" fill="none" stroke="green" d="M217.439 37L232.947 37"/><path stroke-width="3" fill="none" stroke="#999" d="M232.947 37L232.947 37"/><path stroke-width="3" fill="none" stroke="red" d="M232.947 37L232.947 37"/><path stroke-width="3" fill="none" stroke="#DD0" d="M232.947 37L232.947 37"/><path stroke-width="3" fill="none" stroke="#BBB" d="M217.439 37L217.439 37"/><path stroke-width="3" fill="blue" stroke="none" d="M220.439 37 A3 3 0 0 0 214.439 37 A3 3 0 0 0 220.439 37Z"/><text stroke-width="3" fill="red" stroke="none" font-size="8pt" x="217.439" y="20">+28</text><text stroke="none" font-size="8pt" x="232.947" y="30">55px</text><path stroke-width="3" fill="none" stroke="red" d="M232.947 37L274.451 37"/><path stroke-width="3" fill="none" stroke="#999" d="M274.451 37L274.451 37"/><path stroke-width="3" fill="none" stroke="green" d="M274.451 37L287.959 37"/><path stroke-width="3" fill="none" stroke="#999" d="M287.959 37L287.959 37"/><path stroke-width="3" fill="none" stroke="red" d="M287.959 37L287.959 37"/><path stroke-width="3" fill="none" stroke="#DD0" d="M287.959 37L297.993 37"/><path stroke-width="3" fill="none" stroke="#BBB" d="M232.947 37L232.947 37"/><path stroke-width="3" fill="blue" stroke="none" d="M277.451 37 A3 3 0 0 0 271.451 37 A3 3 0 0 0 277.451 37Z"/><text stroke-width="3" fill="red" stroke="none" font-size="8pt" x="274.451" y="20">-5</text><text stroke="none" font-size="8pt" x="297.993" y="30">16px</text><path stroke-width="3" fill="none" stroke="red" d="M297.993 37L297.993 37"/><path stroke-width="3" fill="none" stroke="#999" d="M297.993 37L297.993 37"/><path stroke-width="3" fill="none" stroke="green" d="M297.993 37L313.501 37"/><path stroke-width="3" fill="none" stroke="#999" d="M313.501 37L313.501 37"/><path stroke-width="3" fill="none" stroke="red" d="M313.501 37L313.501 37"/><path stroke-width="3" fill="none" stroke="#DD0" d="M313.501 37L318.379 37"/><path stroke-width="3" fill="none" stroke="#BBB" d="M297.993 37L297.993 37"/><path stroke-width="3" fill="blue" stroke="none" d="M300.993 37 A3 3 0 0 0 294.993 37 A3 3 0 0 0 300.993 37Z"/><text stroke-width="3" fill="red" stroke="none" font-size="8pt" x="297.993" y="20">+0</text><text stroke="none" font-size="8pt" x="318.379" y="30">16px</text><path stroke-width="3" fill="none" stroke="red" d="M318.379 37L318.379 37"/><path stroke-width="3" fill="none" stroke="#999" d="M318.379 37L318.379 37"/><path stroke-width="3" fill="none" stroke="green" d="M318.379 37L333.887 37"/><path stroke-width="3" fill="none" stroke="#999" d="M333.887 37L333.887 37"/><path stroke-width="3" fill="none" stroke="red" d="M333.887 37L333.887 37"/><path stroke-width="3" fill="none" stroke="#DD0" d="M333.887 37L338.765 37"/><path stroke-width="3" fill="none" stroke="#BBB" d="M318.379 37L318.379 37"/><path stroke-width="3" fill="blue" stroke="none" d="M321.379 37 A3 3 0 0 0 315.379 37 A3 3 0 0 0 321.379 37Z"/><text stroke-width="3" fill="red" stroke="none" font-size="8pt" x="318.379" y="20">+0</text><text stroke="none" font-size="8pt" x="338.765" y="30">16px</text><path stroke-width="3" fill="none" stroke="red" d="M338.765 37L338.765 37"/><path stroke-width="3" fill="none" stroke="#999" d="M338.765 37L338.765 37"/><path stroke-width="3" fill="none" stroke="green" d="M338.765 37L354.273 37"/><path stroke-width="3" fill="none" stroke="#999" d="M354.273 37L354.273 37"/><path stroke-width="3" fill="none" stroke="red" d="M354.273 37L354.273 37"/><path stroke-width="3" fill="none" stroke="#DD0" d="M354.273 37L362.307 37"/><path stroke-width="3" fill="none" stroke="#BBB" d="M338.765 37L338.765 37"/><path stroke-width="3" fill="blue" stroke="none" d="M341.765 37 A3 3 0 0 0 335.765 37 A3 3 0 0 0 341.765 37Z"/><text stroke-width="3" fill="red" stroke="none" font-size="8pt" x="338.765" y="20">-5</text><text stroke="none" font-size="8pt" x="362.307" y="30">16px</text><path stroke-width="3" fill="none" stroke="red" d="M362.307 37L362.307 37"/><path stroke-width="3" fill="none" stroke="#999" d="M362.307 37L362.307 37"/><path stroke-width="3" fill="none" stroke="green" d="M362.307 37L377.815 37"/><path stroke-width="3" fill="none" stroke="#999" d="M377.815 37L377.815 37"/><path stroke-width="3" fill="none" stroke="red" d="M377.815 37L377.815 37"/><path stroke-width="3" fill="none" stroke="#DD0" d="M377.815 37L407.623 37"/><path stroke-width="3" fill="none" stroke="#BBB" d="M362.307 37L362.307 37"/><path stroke-width="3" fill="blue" stroke="none" d="M365.307 37 A3 3 0 0 0 359.307 37 A3 3 0 0 0 365.307 37Z"/><text stroke-width="3" fill="red" stroke="none" font-size="8pt" x="362.307" y="20">+0</text><path stroke-width="10" fill="none" stroke="green" d="M300 146L310 146"/><text stroke-width="10" stroke="none" font-size="8pt" x="315" y="150">Note + Flag</text><path stroke-width="10" fill="none" stroke="red" d="M300 158L310 158"/><text stroke-width="10" stroke="none" font-size="8pt" x="315" y="162">Modifiers</text><path stroke-width="10" fill="none" stroke="#999" d="M300 170L310 170"/><text stroke-width="10" stroke="none" font-size="8pt" x="315" y="174">Displaced Head</text><path stroke-width="10" fill="none" stroke="#DDD" d="M300 182L310 182"/><text stroke-width="10" stroke="none" font-size="8pt" x="315" y="186">Formatter Shift</text></svg>