<svg xmlns="http://www.w3.org/2000/svg" stroke-width="0.3" stroke-dasharray="none" fill="black" stroke="black" font-family="Arial, sans-serif" font-size="10pt" font-weight="normal" font-style="normal" width="400" height="195" viewBox="0 0 400 195" style="width: 400px; height: 195px; border: none;"><g class="vf-stave" id="vf-auto6103" stroke-width="1" fill="#999999" stroke="#999999"><path fill="none" d="M50 70L200 70"/><path fill="none" d="M50 80L200 80"/><path fill="none" d="M50 90L200 90"/><path fill="none" d="M50 100L200 100"/><path fill="none" d="M50 110L200 110"/></g><g class="vf-stavebarline" id="vf-auto6104"><rect x="50" y="69.5" width="1" height="41" stroke="none"/></g><g class="vf-stavebarline" id="vf-auto6105"/><g class="vf-stavenote" id="vf-auto6074"><path stroke-width="1.4" fill="none" stroke="#444" d="M69.935 120L87.869 120"/><g class="vf-stem" id="vf-auto6075" pointer-events="bounding-box"><path stroke-width="1.5" fill="none" d="M84.119 118L84.119 85"/></g><g class="vf-notehead" id="vf-auto6077" pointer-events="bounding-box"><path stroke="none" d="M76.866 125.054C80.46 125.054,84.869 121.741,84.869 118.315C84.869 116.237,83.24 114.946,80.937 114.946C76.501 114.946,72.935 118.231,72.935 121.685C72.935 123.791,74.676 125.054,76.866 125.054"/><path stroke="none" d="M69.134 65C69.216 65,69.244 64.918,69.408 64.836C70.666 63.769,78.272 56.026,78.902 56.026C79.531 56.026,87.301 63.933,88.423 64.918C88.505 64.973,88.696 65,88.696 65L90.666 65C90.666 65,90.803 64.973,90.803 64.891C90.803 64.836,90.748 64.754,90.721 64.726C89.025 63.112,79.969 51.566,78.902 51.566C77.862 51.566,68.888 62.948,67.082 64.726C67.027 64.754,67 64.836,67 64.891C67 64.973,67.109 65,67.109 65M81.036 62.428C81.036 61.306,80.051 60.321,78.847 60.321C77.67 60.321,76.685 61.306,76.685 62.428C76.685 63.659,77.67 64.644,78.847 64.644C80.051 64.644,81.036 63.659,81.036 62.428"/></g></g><g class="vf-stavenote" id="vf-auto6078"><g class="vf-stem" id="vf-auto6079" pointer-events="bounding-box"><path stroke-width="1.5" fill="none" d="M115.43 93L115.43 60"/></g><g class="vf-notehead" id="vf-auto6081" pointer-events="bounding-box"><path stroke="none" d="M108.177 100.054C111.772 100.054,116.18 96.741,116.18 93.315C116.18 91.237,114.551 89.946,112.249 89.946C107.812 89.946,104.246 93.231,104.246 96.685C104.246 98.791,105.987 100.054,108.177 100.054"/><path stroke="none" d="M100.446 55C100.528 55,100.555 54.918,100.719 54.836C101.978 53.769,109.584 46.026,110.213 46.026C110.842 46.026,118.613 53.933,119.734 54.918C119.816 54.973,120.008 55,120.008 55L121.978 55C121.978 55,122.115 54.973,122.115 54.891C122.115 54.836,122.06 54.754,122.033 54.726C120.336 53.112,111.28 41.566,110.213 41.566C109.173 41.566,100.199 52.948,98.394 54.726C98.339 54.754,98.312 54.836,98.312 54.891C98.312 54.973,98.421 55,98.421 55M112.347 52.428C112.347 51.306,111.362 50.321,110.158 50.321C108.982 50.321,107.997 51.306,107.997 52.428C107.997 53.659,108.982 54.644,110.158 54.644C111.362 54.644,112.347 53.659,112.347 52.428"/></g></g><g class="vf-stavenote" id="vf-auto6082"><path stroke-width="1.4" fill="none" stroke="#444" d="M132.558 120L150.492 120"/><g class="vf-stem" id="vf-auto6083" pointer-events="bounding-box"><path stroke-width="1.5" fill="none" d="M136.308 122L136.308 155"/></g><g class="vf-notehead" id="vf-auto6085" pointer-events="bounding-box"><path stroke="none" d="M139.489 125.054C143.083 125.054,147.492 121.741,147.492 118.315C147.492 116.237,145.863 114.946,143.56 114.946C139.124 114.946,135.558 118.231,135.558 121.685C135.558 123.791,137.299 125.054,139.489 125.054"/><path stroke="none" d="M129.732 160C129.732 160,129.623 160.027,129.623 160.109C129.623 160.164,129.65 160.246,129.705 160.274C131.511 162.052,140.485 173.434,141.525 173.434C142.592 173.434,151.648 161.888,153.344 160.274C153.371 160.246,153.426 160.164,153.426 160.109C153.426 160.027,153.289 160,153.289 160L151.319 160C151.319 160,151.128 160.027,151.046 160.082C149.924 161.067,142.154 168.974,141.525 168.974C140.895 168.974,133.289 161.231,132.031 160.164C131.867 160.082,131.839 160,131.757 160M143.659 162.572C143.659 161.341,142.674 160.356,141.47 160.356C140.293 160.356,139.308 161.341,139.308 162.572C139.308 163.694,140.293 164.679,141.47 164.679C142.674 164.679,143.659 163.694,143.659 162.572"/></g></g><g class="vf-stavenote" id="vf-auto6086"><g class="vf-stem" id="vf-auto6087" pointer-events="bounding-box"><path stroke-width="1.5" fill="none" d="M167.619 97L167.619 130"/></g><g class="vf-notehead" id="vf-auto6089" pointer-events="bounding-box"><path stroke="none" d="M170.8 100.054C174.395 100.054,178.803 96.741,178.803 93.315C178.803 91.237,177.174 89.946,174.872 89.946C170.435 89.946,166.869 93.231,166.869 96.685C166.869 98.791,168.61 100.054,170.8 100.054"/><path stroke="none" d="M161.044 135C161.044 135,160.935 135.027,160.935 135.109C160.935 135.164,160.962 135.246,161.017 135.274C162.822 137.052,171.796 148.434,172.836 148.434C173.903 148.434,182.959 136.888,184.656 135.274C184.683 135.246,184.738 135.164,184.738 135.109C184.738 135.027,184.601 135,184.601 135L182.631 135C182.631 135,182.439 135.027,182.357 135.082C181.236 136.067,173.465 143.974,172.836 143.974C172.207 143.974,164.601 136.231,163.342 135.164C163.178 135.082,163.151 135,163.069 135M174.97 137.572C174.97 136.341,173.985 135.356,172.781 135.356C171.605 135.356,170.62 136.341,170.62 137.572C170.62 138.694,171.605 139.679,172.781 139.679C173.985 139.679,174.97 138.694,174.97 137.572"/></g></g><g class="vf-stave" id="vf-auto6135" stroke-width="1" fill="#999999" stroke="#999999"><path fill="none" d="M200 70L350 70"/><path fill="none" d="M200 80L350 80"/><path fill="none" d="M200 90L350 90"/><path fill="none" d="M200 100L350 100"/><path fill="none" d="M200 110L350 110"/></g><g class="vf-stavebarline" id="vf-auto6136"><rect x="200" y="69.5" width="1" height="41" stroke="none"/></g><g class="vf-stavebarline" id="vf-auto6137"><rect x="347" y="69.5" width="1" height="41" stroke="none"/><rect x="350" y="69.5" width="1" height="41" stroke="none"/></g><g class="vf-stavenote" id="vf-auto6106"><g class="vf-stem" id="vf-auto6107" pointer-events="bounding-box"><path stroke-width="1.5" fill="none" d="M234.119 83L234.119 50"/></g><g class="vf-notehead" id="vf-auto6109" pointer-events="bounding-box"><path stroke="none" d="M226.866 90.054C230.46 90.054,234.869 86.741,234.869 83.315C234.869 81.237,233.24 79.946,230.937 79.946C226.501 79.946,222.935 83.231,222.935 86.685C222.935 88.791,224.676 90.054,226.866 90.054"/><path stroke="none" d="M219.134 45C219.216 45,219.244 44.918,219.408 44.836C220.666 43.769,228.272 36.026,228.902 36.026C229.531 36.026,237.301 43.933,238.423 44.918C238.505 44.973,238.696 45,238.696 45L240.666 45C240.666 45,240.803 44.973,240.803 44.891C240.803 44.836,240.748 44.754,240.721 44.726C239.025 43.112,229.969 31.566,228.902 31.566C227.862 31.566,218.888 42.948,217.082 44.726C217.027 44.754,217 44.836,217 44.891C217 44.973,217.109 45,217.109 45M231.036 42.428C231.036 41.306,230.051 40.321,228.847 40.321C227.67 40.321,226.685 41.306,226.685 42.428C226.685 43.659,227.67 44.644,228.847 44.644C230.051 44.644,231.036 43.659,231.036 42.428"/></g></g><g class="vf-stavenote" id="vf-auto6110"><path stroke-width="1.4" fill="none" stroke="#444" d="M251.246 60L269.18 60"/><g class="vf-stem" id="vf-auto6111" pointer-events="bounding-box"><path stroke-width="1.5" fill="none" d="M265.43 58L265.43 25"/></g><g class="vf-notehead" id="vf-auto6113" pointer-events="bounding-box"><path stroke="none" d="M258.177 65.054C261.772 65.054,266.18 61.741,266.18 58.315C266.18 56.237,264.551 54.946,262.249 54.946C257.812 54.946,254.246 58.231,254.246 61.685C254.246 63.791,255.987 65.054,258.177 65.054"/><path stroke="none" d="M250.446 20C250.528 20,250.555 19.918,250.719 19.836C251.978 18.769,259.584 11.026,260.213 11.026C260.842 11.026,268.613 18.933,269.734 19.918C269.816 19.973,270.008 20,270.008 20L271.978 20C271.978 20,272.115 19.973,272.115 19.891C272.115 19.836,272.06 19.754,272.033 19.726C270.336 18.112,261.28 6.566,260.213 6.566C259.173 6.566,250.199 17.948,248.394 19.726C248.339 19.754,248.312 19.836,248.312 19.891C248.312 19.973,248.421 20,248.421 20M262.347 17.428C262.347 16.306,261.362 15.321,260.158 15.321C258.982 15.321,257.997 16.306,257.997 17.428C257.997 18.659,258.982 19.644,260.158 19.644C261.362 19.644,262.347 18.659,262.347 17.428"/></g></g><g class="vf-stavenote" id="vf-auto6114"><g class="vf-stem" id="vf-auto6115" pointer-events="bounding-box"><path stroke-width="1.5" fill="none" d="M286.308 87L286.308 120"/></g><g class="vf-notehead" id="vf-auto6117" pointer-events="bounding-box"><path stroke="none" d="M289.489 90.054C293.083 90.054,297.492 86.741,297.492 83.315C297.492 81.237,295.863 79.946,293.56 79.946C289.124 79.946,285.558 83.231,285.558 86.685C285.558 88.791,287.299 90.054,289.489 90.054"/><path stroke="none" d="M279.732 125C279.732 125,279.623 125.027,279.623 125.109C279.623 125.164,279.65 125.246,279.705 125.274C281.511 127.052,290.485 138.434,291.525 138.434C292.592 138.434,301.648 126.888,303.344 125.274C303.371 125.246,303.426 125.164,303.426 125.109C303.426 125.027,303.289 125,303.289 125L301.319 125C301.319 125,301.128 125.027,301.046 125.082C299.924 126.067,292.154 133.974,291.525 133.974C290.895 133.974,283.289 126.231,282.031 125.164C281.867 125.082,281.839 125,281.757 125M293.659 127.572C293.659 126.341,292.674 125.356,291.47 125.356C290.293 125.356,289.308 126.341,289.308 127.572C289.308 128.694,290.293 129.679,291.47 129.679C292.674 129.679,293.659 128.694,293.659 127.572"/></g></g><g class="vf-stavenote" id="vf-auto6118"><path stroke-width="1.4" fill="none" stroke="#444" d="M313.869 60L331.803 60"/><g class="vf-stem" id="vf-auto6119" pointer-events="bounding-box"><path stroke-width="1.5" fill="none" d="M317.619 62L317.619 95"/></g><g class="vf-notehead" id="vf-auto6121" pointer-events="bounding-box"><path stroke="none" d="M320.8 65.054C324.395 65.054,328.803 61.741,328.803 58.315C328.803 56.237,327.174 54.946,324.872 54.946C320.435 54.946,316.869 58.231,316.869 61.685C316.869 63.791,318.61 65.054,320.8 65.054"/><path stroke="none" d="M311.044 115C311.044 115,310.935 115.027,310.935 115.109C310.935 115.164,310.962 115.246,311.017 115.274C312.822 117.052,321.796 128.434,322.836 128.434C323.903 128.434,332.959 116.888,334.656 115.274C334.683 115.246,334.738 115.164,334.738 115.109C334.738 115.027,334.601 115,334.601 115L332.631 115C332.631 115,332.439 115.027,332.357 115.082C331.236 116.067,323.465 123.974,322.836 123.974C322.207 123.974,314.601 116.231,313.342 115.164C313.178 115.082,313.151 115,313.069 115M324.97 117.572C324.97 116.341,323.985 115.356,322.781 115.356C321.605 115.356,320.62 116.341,320.62 117.572C320.62 118.694,321.605 119.679,322.781 119.679C323.985 119.679,324.97 118.694,324.97 117.572"/></g></g></svg>