<svg xmlns="http://www.w3.org/2000/svg" stroke-width="0.3" stroke-dasharray="none" fill="black" stroke="black" font-family="Arial, sans-serif" font-size="10pt" font-weight="normal" font-style="normal" width="725" height="200" viewBox="0 0 725 200" style="width: 725px; height: 200px; border: none;"><g class="vf-stave" id="vf-auto22267" stroke-width="1" fill="#999999" stroke="#999999"><path fill="none" d="M10 90L160 90"/><path fill="none" d="M10 100L160 100"/><path fill="none" d="M10 110L160 110"/><path fill="none" d="M10 120L160 120"/><path fill="none" d="M10 130L160 130"/></g><g class="vf-stavebarline" id="vf-auto22268"><rect x="10" y="89.5" width="1" height="41" stroke="none"/></g><g class="vf-stavebarline" id="vf-auto22269"><rect x="160" y="89.5" width="1" height="41" stroke="none"/></g><g class="vf-clef" id="vf-auto22270"><path stroke="none" d="M23.693 141.402C23.87 141.402,24.048 141.377,24.276 141.301C24.707 141.148,25.062 140.92,25.366 140.591C28.382 137.423,29.623 133.596,29.75 129.313C29.75 128.983,29.776 128.451,29.776 128.451C29.776 128.451,30.282 128.147,30.511 128.071C31.727 127.488,32.893 126.829,33.932 125.993C36.72 123.762,38.316 120.747,39.051 117.376C39.204 116.844,39.229 116.286,39.229 115.779C39.229 113.473,37.962 111.8,35.047 111.268C34.312 111.116,33.577 111.04,32.842 111.04C31.017 111.04,29.269 111.521,27.621 112.484C27.419 112.611,27.19 112.763,27.19 112.763L26.253 109.215C26.202 109.038,26.202 108.708,26.202 108.708C26.202 108.708,29.928 102.093,30.434 98.697C30.612 97.709,30.688 96.72,30.688 95.757C30.688 94.972,30.663 94.237,30.536 93.527C30.181 90.891,29.193 88.408,28.534 85.848C28.356 85.088,28.103 84.175,27.216 84.175C26.557 84.175,26.101 84.809,25.695 85.341C23.82 87.926,22.907 90.891,22.73 94.059C22.705 94.566,22.705 95.098,22.705 95.605C22.705 98.545,23.186 101.51,23.566 104.425C23.566 104.653,23.642 104.881,23.693 105.059C22.046 107.39,20.221 109.57,18.65 111.978C17.56 113.701,16.343 115.424,15.583 117.35C15.177 118.288,15 119.403,15 120.493C15 122.749,15.76 125.055,17.078 126.322C17.839 127.057,19.055 127.868,20.246 128.299C21.944 128.907,23.617 129.313,25.391 129.313C25.923 129.313,26.455 129.287,27.013 129.211L27.444 129.135C27.444 129.135,27.469 129.465,27.444 129.642C27.038 131.847,26.506 134.001,25.188 135.826C24.479 136.764,23.82 137.828,22.451 137.93C22.046 137.98,21.868 138.234,21.868 138.563C21.868 138.69,21.894 138.817,21.944 138.944C22.147 139.501,22.4 140.084,22.654 140.642C22.882 141.148,23.237 141.402,23.693 141.402M25.138 102.828C24.859 101.08,24.681 99.356,24.681 97.633C24.681 94.465,25.34 91.373,27.19 88.408C27.621 89.751,27.849 91.119,27.849 92.488C27.849 93.198,27.773 93.933,27.672 94.642C27.19 97.506,26.532 100.269,25.138 102.828M21.387 124.421C20.88 124.396,20.449 124.219,19.967 124.067C19.004 123.737,18.219 123.382,17.965 122.749C17.839 122.47,17.813 122.14,17.813 121.811C17.813 121.406,17.889 120.975,17.965 120.518C17.991 120.316,18.219 119.682,18.295 119.581C19.714 117.046,21.412 114.765,23.211 112.459L24.732 110.457L25.011 111.268C25.29 112.18,25.543 113.625,25.543 113.625C25.543 113.625,24.529 114.943,23.87 115.602C22.046 117.376,21.159 119.606,21.159 122.064C21.159 122.673,21.235 123.306,21.361 123.965C21.387 124.092,21.387 124.219,21.387 124.421M29.269 123.306C28.99 120.924,28.432 119.023,27.925 116.742C27.875 116.463,27.875 116.286,28.001 116.134C28.939 115.957,29.852 115.881,30.815 115.881C31.727 115.881,32.589 115.957,33.501 116.134C34.591 116.362,35.681 116.539,36.542 117.426C36.593 117.503,36.669 117.579,36.745 117.604C35.301 120.518,33.146 122.723,30.08 124.067L29.421 124.32M25.391 125.055C24.124 125.055,22.882 124.726,22.882 124.726C22.882 124.726,22.781 124.219,22.781 123.484C22.781 123.002,22.806 122.419,22.958 121.836C23.313 120.088,24.555 118.846,25.873 117.68C25.974 117.579,26.101 117.503,26.177 117.503C26.303 117.503,26.354 117.655,26.379 117.908C26.709 120.062,27.266 122.166,27.419 124.32C27.444 124.548,27.419 124.878,27.419 124.878C27.419 124.878,26.455 125.131,25.391 125.055"/></g><text stroke="none" font-family="Times New Roman, serif" font-size="12pt" font-weight="bold" x="75.875" y="70">D.S. al Fine</text><text stroke="none" font-size="8pt" x="7.031" y="83">1</text><g class="vf-stavenote" id="vf-auto22272"><g class="vf-stem" id="vf-auto22273" pointer-events="bounding-box"><path stroke-width="1.5" fill="none" d="M63.987 113L63.987 80"/></g><g class="vf-notehead" id="vf-auto22275" pointer-events="bounding-box"><path stroke="none" d="M54.374 121.543C54.655 121.599,54.907 121.627,55.188 121.627C59.063 121.627,64.848 116.348,64.735 112.08C64.623 111.041,64.651 109.609,62.545 108.766C61.955 108.485,61.31 108.373,60.608 108.373C56.283 108.373,51.594 113.343,51.257 116.657C51.257 116.909,51.229 117.134,51.229 117.387C51.229 119.409,52.127 121.037,54.374 121.543"/></g></g><g class="vf-stavenote" id="vf-auto22276"><g class="vf-stem" id="vf-auto22277" pointer-events="bounding-box"><path stroke-width="1.5" fill="none" d="M88.757 123L88.757 90"/></g><g class="vf-notehead" id="vf-auto22279" pointer-events="bounding-box"><path stroke="none" d="M79.144 131.543C79.424 131.599,79.677 131.627,79.958 131.627C83.833 131.627,89.617 126.348,89.505 122.08C89.393 121.041,89.421 119.609,87.315 118.766C86.725 118.485,86.079 118.373,85.377 118.373C81.053 118.373,76.364 123.343,76.027 126.657C76.027 126.909,75.999 127.134,75.999 127.387C75.999 129.409,76.897 131.037,79.144 131.543"/></g></g><g class="vf-stavenote" id="vf-auto22280"><g class="vf-stem" id="vf-auto22281" pointer-events="bounding-box"><path stroke-width="1.5" fill="none" d="M113.526 123L113.526 90"/></g><g class="vf-notehead" id="vf-auto22283" pointer-events="bounding-box"><path stroke="none" d="M103.913 131.543C104.194 131.599,104.447 131.627,104.728 131.627C108.603 131.627,114.387 126.348,114.275 122.08C114.162 121.041,114.191 119.609,112.085 118.766C111.495 118.485,110.849 118.373,110.147 118.373C105.823 118.373,101.133 123.343,100.796 126.657C100.796 126.909,100.768 127.134,100.768 127.387C100.768 129.409,101.667 131.037,103.913 131.543"/></g></g><g class="vf-stavenote" id="vf-auto22284"><g class="vf-stem" id="vf-auto22285" pointer-events="bounding-box"><path stroke-width="1.5" fill="none" d="M138.296 113L138.296 80"/></g><g class="vf-notehead" id="vf-auto22287" pointer-events="bounding-box"><path stroke="none" d="M128.683 121.543C128.964 121.599,129.216 121.627,129.497 121.627C133.372 121.627,139.157 116.348,139.044 112.08C138.932 111.041,138.96 109.609,136.854 108.766C136.265 108.485,135.619 108.373,134.917 108.373C130.592 108.373,125.903 113.343,125.566 116.657C125.566 116.909,125.538 117.134,125.538 117.387C125.538 119.409,126.437 121.037,128.683 121.543"/></g></g><g class="vf-stave" id="vf-auto22289" stroke-width="1" fill="#999999" stroke="#999999"><path fill="none" d="M160 90L310 90"/><path fill="none" d="M160 100L310 100"/><path fill="none" d="M160 110L310 110"/><path fill="none" d="M160 120L310 120"/><path fill="none" d="M160 130L310 130"/></g><g class="vf-stavebarline" id="vf-auto22290"><rect x="160" y="89.5" width="1" height="41" stroke="none"/></g><g class="vf-stavebarline" id="vf-auto22291"><rect x="310" y="89.5" width="1" height="41" stroke="none"/></g><path stroke="none" d="M307.803 77.061C308.048 77.061,308.163 76.758,308.221 76.528C308.264 76.341,308.264 76.125,308.264 75.923C308.264 74.901,308.278 73.893,308.307 72.87C310.165 72.683,311.763 71.834,313.016 70.206C314.125 68.709,314.773 67.024,315.046 65.181C315.046 65.123,315.061 65.051,315.061 64.994C316.846 64.979,318.632 64.95,320.418 64.95C320.648 64.95,320.95 64.806,321.08 64.619C321.368 64.23,321.613 63.813,321.613 63.294C321.613 63.194,321.598 63.064,321.57 62.949C321.411 62.949,321.238 62.92,321.08 62.92L320.95 62.92L315.248 62.978C315.248 62.589,315.19 62.214,315.104 61.826C314.269 58.658,312.094 57.059,308.883 56.973C308.782 56.944,308.653 56.944,308.552 56.944C308.552 55.95,308.552 54.957,308.566 53.963C308.595 53.258,308.566 52.581,308.538 51.875C308.538 51.746,308.552 51.501,308.278 51.501L308.264 51.501C308.034 51.544,307.846 51.616,307.803 51.875C307.76 52.178,307.688 52.494,307.688 52.797C307.688 54.208,307.659 55.605,307.645 57.016L306.853 57.074C304.635 57.347,302.662 58.096,301.194 59.838C300.344 60.846,299.797 61.97,299.494 63.165L295.318 63.237C295.131 63.237,294.901 63.208,294.699 63.208C294.454 63.208,294.238 63.237,294.138 63.352C293.691 63.842,293.418 64.475,293 65.166L293.533 65.166L299.178 65.094C299.163 65.238,299.163 65.397,299.163 65.541C299.163 66.736,299.595 67.816,300.027 68.896C300.574 70.235,301.539 71.214,302.806 71.834C303.987 72.424,305.298 72.726,306.622 72.87C306.91 72.899,307.227 72.914,307.515 72.914C307.515 73.605,307.472 74.282,307.472 74.973C307.472 75.491,307.472 76.01,307.573 76.499C307.616 76.715,307.558 77.061,307.803 77.061M308.466 63.064C308.509 61.883,308.509 60.731,308.538 59.536C309.79 59.579,311 59.91,312.094 60.688C312.944 61.278,313.534 62.07,313.822 63.006C312.973 63.006,312.123 63.021,311.274 63.021C310.338 63.021,309.402 63.05,308.466 63.064M301.309 63.15C301.899 62.013,302.763 61.077,304.03 60.414C305.053 59.867,306.147 59.709,307.242 59.579C307.371 59.579,307.501 59.565,307.616 59.565C307.616 60.098,307.602 60.616,307.602 61.163C307.573 61.61,307.573 62.301,307.558 63.093M308.365 70.35C308.408 68.579,308.379 66.822,308.422 65.037C310.194 65.037,311.95 65.022,313.722 64.994C313.722 65.022,313.693 65.022,313.693 65.022C313.347 66.117,312.973 67.211,312.31 68.147C311.518 69.242,310.438 69.947,309.114 70.235C308.869 70.278,308.61 70.322,308.365 70.35M307.515 70.408C305.758 70.394,304.088 69.947,302.504 69.198C301.208 68.608,300.546 67.614,300.546 66.218C300.546 65.973,300.574 65.728,300.603 65.454L300.675 65.094C301.914 65.08,303.166 65.08,304.405 65.051C305.456 65.037,306.493 65.051,307.53 65.037C307.53 66.837,307.515 68.853,307.515 70.408"/><text stroke="none" font-family="Times New Roman, serif" font-size="12pt" font-weight="bold" x="270.797" y="70">To</text><text stroke="none" font-size="8pt" x="157.031" y="83">2</text><g class="vf-stavenote" id="vf-auto22293"><g class="vf-stem" id="vf-auto22294" pointer-events="bounding-box"><path stroke-width="1.5" fill="none" d="M189.758 113L189.758 80"/></g><g class="vf-notehead" id="vf-auto22296" pointer-events="bounding-box"><path stroke="none" d="M180.145 121.543C180.426 121.599,180.678 121.627,180.959 121.627C184.834 121.627,190.619 116.348,190.506 112.08C190.394 111.041,190.422 109.609,188.316 108.766C187.727 108.485,187.081 108.373,186.379 108.373C182.054 108.373,177.365 113.343,177.028 116.657C177.028 116.909,177 117.134,177 117.387C177 119.409,177.899 121.037,180.145 121.543"/></g></g><g class="vf-stavenote" id="vf-auto22297"><g class="vf-stem" id="vf-auto22298" pointer-events="bounding-box"><path stroke-width="1.5" fill="none" d="M222.099 123L222.099 90"/></g><g class="vf-notehead" id="vf-auto22300" pointer-events="bounding-box"><path stroke="none" d="M212.486 131.543C212.767 131.599,213.02 131.627,213.301 131.627C217.176 131.627,222.96 126.348,222.848 122.08C222.735 121.041,222.763 119.609,220.657 118.766C220.068 118.485,219.422 118.373,218.72 118.373C214.396 118.373,209.706 123.343,209.369 126.657C209.369 126.909,209.341 127.134,209.341 127.387C209.341 129.409,210.24 131.037,212.486 131.543"/></g></g><g class="vf-stavenote" id="vf-auto22301"><g class="vf-stem" id="vf-auto22302" pointer-events="bounding-box"><path stroke-width="1.5" fill="none" d="M254.441 123L254.441 90"/></g><g class="vf-notehead" id="vf-auto22304" pointer-events="bounding-box"><path stroke="none" d="M244.827 131.543C245.108 131.599,245.361 131.627,245.642 131.627C249.517 131.627,255.301 126.348,255.189 122.08C255.077 121.041,255.105 119.609,252.999 118.766C252.409 118.485,251.763 118.373,251.061 118.373C246.737 118.373,242.047 123.343,241.711 126.657C241.711 126.909,241.682 127.134,241.682 127.387C241.682 129.409,242.581 131.037,244.827 131.543"/></g></g><g class="vf-stavenote" id="vf-auto22305"><g class="vf-stem" id="vf-auto22306" pointer-events="bounding-box"><path stroke-width="1.5" fill="none" d="M286.782 113L286.782 80"/></g><g class="vf-notehead" id="vf-auto22308" pointer-events="bounding-box"><path stroke="none" d="M277.169 121.543C277.449 121.599,277.702 121.627,277.983 121.627C281.858 121.627,287.642 116.348,287.53 112.08C287.418 111.041,287.446 109.609,285.34 108.766C284.75 108.485,284.104 108.373,283.402 108.373C279.078 108.373,274.389 113.343,274.052 116.657C274.052 116.909,274.024 117.134,274.024 117.387C274.024 119.409,274.922 121.037,277.169 121.543"/></g></g><g class="vf-stave" id="vf-auto22310" stroke-width="1" fill="#999999" stroke="#999999"><path fill="none" d="M310 90L460 90"/><path fill="none" d="M310 100L460 100"/><path fill="none" d="M310 110L460 110"/><path fill="none" d="M310 120L460 120"/><path fill="none" d="M310 130L460 130"/></g><g class="vf-stavebarline" id="vf-auto22311"><rect x="310" y="89.5" width="1" height="41" stroke="none"/></g><g class="vf-stavebarline" id="vf-auto22312"><rect x="460" y="89.5" width="1" height="41" stroke="none"/></g><path stroke="none" d="M457.803 77.061C458.048 77.061,458.163 76.758,458.221 76.528C458.264 76.341,458.264 76.125,458.264 75.923C458.264 74.901,458.278 73.893,458.307 72.87C460.165 72.683,461.763 71.834,463.016 70.206C464.125 68.709,464.773 67.024,465.046 65.181C465.046 65.123,465.061 65.051,465.061 64.994C466.846 64.979,468.632 64.95,470.418 64.95C470.648 64.95,470.95 64.806,471.08 64.619C471.368 64.23,471.613 63.813,471.613 63.294C471.613 63.194,471.598 63.064,471.57 62.949C471.411 62.949,471.238 62.92,471.08 62.92L470.95 62.92L465.248 62.978C465.248 62.589,465.19 62.214,465.104 61.826C464.269 58.658,462.094 57.059,458.883 56.973C458.782 56.944,458.653 56.944,458.552 56.944C458.552 55.95,458.552 54.957,458.566 53.963C458.595 53.258,458.566 52.581,458.538 51.875C458.538 51.746,458.552 51.501,458.278 51.501L458.264 51.501C458.034 51.544,457.846 51.616,457.803 51.875C457.76 52.178,457.688 52.494,457.688 52.797C457.688 54.208,457.659 55.605,457.645 57.016L456.853 57.074C454.635 57.347,452.662 58.096,451.194 59.838C450.344 60.846,449.797 61.97,449.494 63.165L445.318 63.237C445.131 63.237,444.901 63.208,444.699 63.208C444.454 63.208,444.238 63.237,444.138 63.352C443.691 63.842,443.418 64.475,443 65.166L443.533 65.166L449.178 65.094C449.163 65.238,449.163 65.397,449.163 65.541C449.163 66.736,449.595 67.816,450.027 68.896C450.574 70.235,451.539 71.214,452.806 71.834C453.987 72.424,455.298 72.726,456.622 72.87C456.91 72.899,457.227 72.914,457.515 72.914C457.515 73.605,457.472 74.282,457.472 74.973C457.472 75.491,457.472 76.01,457.573 76.499C457.616 76.715,457.558 77.061,457.803 77.061M458.466 63.064C458.509 61.883,458.509 60.731,458.538 59.536C459.79 59.579,461 59.91,462.094 60.688C462.944 61.278,463.534 62.07,463.822 63.006C462.973 63.006,462.123 63.021,461.274 63.021C460.338 63.021,459.402 63.05,458.466 63.064M451.309 63.15C451.899 62.013,452.763 61.077,454.03 60.414C455.053 59.867,456.147 59.709,457.242 59.579C457.371 59.579,457.501 59.565,457.616 59.565C457.616 60.098,457.602 60.616,457.602 61.163C457.573 61.61,457.573 62.301,457.558 63.093M458.365 70.35C458.408 68.579,458.379 66.822,458.422 65.037C460.194 65.037,461.95 65.022,463.722 64.994C463.722 65.022,463.693 65.022,463.693 65.022C463.347 66.117,462.973 67.211,462.31 68.147C461.518 69.242,460.438 69.947,459.114 70.235C458.869 70.278,458.61 70.322,458.365 70.35M457.515 70.408C455.758 70.394,454.088 69.947,452.504 69.198C451.208 68.608,450.546 67.614,450.546 66.218C450.546 65.973,450.574 65.728,450.603 65.454L450.675 65.094C451.914 65.08,453.166 65.08,454.405 65.051C455.456 65.037,456.493 65.051,457.53 65.037C457.53 66.837,457.515 68.853,457.515 70.408"/><text stroke="none" font-family="Times New Roman, serif" font-size="12pt" font-weight="bold" x="393.094" y="70">D.S. al</text><text stroke="none" font-size="8pt" x="307.031" y="83">3</text><g class="vf-stavenote" id="vf-auto22314"><g class="vf-stem" id="vf-auto22315" pointer-events="bounding-box"><path stroke-width="1.5" fill="none" d="M339.758 113L339.758 80"/></g><g class="vf-notehead" id="vf-auto22317" pointer-events="bounding-box"><path stroke="none" d="M330.145 121.543C330.426 121.599,330.678 121.627,330.959 121.627C334.834 121.627,340.619 116.348,340.506 112.08C340.394 111.041,340.422 109.609,338.316 108.766C337.727 108.485,337.081 108.373,336.379 108.373C332.054 108.373,327.365 113.343,327.028 116.657C327.028 116.909,327 117.134,327 117.387C327 119.409,327.899 121.037,330.145 121.543"/></g></g><g class="vf-stavenote" id="vf-auto22318"><g class="vf-stem" id="vf-auto22319" pointer-events="bounding-box"><path stroke-width="1.5" fill="none" d="M372.099 123L372.099 90"/></g><g class="vf-notehead" id="vf-auto22321" pointer-events="bounding-box"><path stroke="none" d="M362.486 131.543C362.767 131.599,363.02 131.627,363.301 131.627C367.176 131.627,372.96 126.348,372.848 122.08C372.735 121.041,372.763 119.609,370.657 118.766C370.068 118.485,369.422 118.373,368.72 118.373C364.396 118.373,359.706 123.343,359.369 126.657C359.369 126.909,359.341 127.134,359.341 127.387C359.341 129.409,360.24 131.037,362.486 131.543"/></g></g><g class="vf-stavenote" id="vf-auto22322"><g class="vf-stem" id="vf-auto22323" pointer-events="bounding-box"><path stroke-width="1.5" fill="none" d="M404.441 123L404.441 90"/></g><g class="vf-notehead" id="vf-auto22325" pointer-events="bounding-box"><path stroke="none" d="M394.827 131.543C395.108 131.599,395.361 131.627,395.642 131.627C399.517 131.627,405.301 126.348,405.189 122.08C405.077 121.041,405.105 119.609,402.999 118.766C402.409 118.485,401.763 118.373,401.061 118.373C396.737 118.373,392.047 123.343,391.711 126.657C391.711 126.909,391.682 127.134,391.682 127.387C391.682 129.409,392.581 131.037,394.827 131.543"/></g></g><g class="vf-stavenote" id="vf-auto22326"><g class="vf-stem" id="vf-auto22327" pointer-events="bounding-box"><path stroke-width="1.5" fill="none" d="M436.782 113L436.782 80"/></g><g class="vf-notehead" id="vf-auto22329" pointer-events="bounding-box"><path stroke="none" d="M427.169 121.543C427.449 121.599,427.702 121.627,427.983 121.627C431.858 121.627,437.642 116.348,437.53 112.08C437.418 111.041,437.446 109.609,435.34 108.766C434.75 108.485,434.104 108.373,433.402 108.373C429.078 108.373,424.389 113.343,424.052 116.657C424.052 116.909,424.024 117.134,424.024 117.387C424.024 119.409,424.922 121.037,427.169 121.543"/></g></g><g class="vf-stave" id="vf-auto22331" stroke-width="1" fill="#999999" stroke="#999999"><path fill="none" d="M460 90L610 90"/><path fill="none" d="M460 100L610 100"/><path fill="none" d="M460 110L610 110"/><path fill="none" d="M460 120L610 120"/><path fill="none" d="M460 130L610 130"/></g><g class="vf-stavebarline" id="vf-auto22332"><rect x="460" y="89.5" width="1" height="41" stroke="none"/></g><g class="vf-stavebarline" id="vf-auto22333"><rect x="610" y="89.5" width="1" height="41" stroke="none"/></g><path stroke="none" d="M526.256 77.061C526.501 77.061,526.616 76.758,526.674 76.528C526.717 76.341,526.717 76.125,526.717 75.923C526.717 74.901,526.732 73.893,526.76 72.87C528.618 72.683,530.216 71.834,531.469 70.206C532.578 68.709,533.226 67.024,533.5 65.181C533.5 65.123,533.514 65.051,533.514 64.994C535.3 64.979,537.085 64.95,538.871 64.95C539.101 64.95,539.404 64.806,539.533 64.619C539.821 64.23,540.066 63.813,540.066 63.294C540.066 63.194,540.052 63.064,540.023 62.949C539.864 62.949,539.692 62.92,539.533 62.92L539.404 62.92L533.701 62.978C533.701 62.589,533.644 62.214,533.557 61.826C532.722 58.658,530.548 57.059,527.336 56.973C527.236 56.944,527.106 56.944,527.005 56.944C527.005 55.95,527.005 54.957,527.02 53.963C527.048 53.258,527.02 52.581,526.991 51.875C526.991 51.746,527.005 51.501,526.732 51.501L526.717 51.501C526.487 51.544,526.3 51.616,526.256 51.875C526.213 52.178,526.141 52.494,526.141 52.797C526.141 54.208,526.112 55.605,526.098 57.016L525.306 57.074C523.088 57.347,521.116 58.096,519.647 59.838C518.797 60.846,518.25 61.97,517.948 63.165L513.772 63.237C513.584 63.237,513.354 63.208,513.152 63.208C512.908 63.208,512.692 63.237,512.591 63.352C512.144 63.842,511.871 64.475,511.453 65.166L511.986 65.166L517.631 65.094C517.616 65.238,517.616 65.397,517.616 65.541C517.616 66.736,518.048 67.816,518.48 68.896C519.028 70.235,519.992 71.214,521.26 71.834C522.44 72.424,523.751 72.726,525.076 72.87C525.364 72.899,525.68 72.914,525.968 72.914C525.968 73.605,525.925 74.282,525.925 74.973C525.925 75.491,525.925 76.01,526.026 76.499C526.069 76.715,526.012 77.061,526.256 77.061M526.919 63.064C526.962 61.883,526.962 60.731,526.991 59.536C528.244 59.579,529.453 59.91,530.548 60.688C531.397 61.278,531.988 62.07,532.276 63.006C531.426 63.006,530.576 63.021,529.727 63.021C528.791 63.021,527.855 63.05,526.919 63.064M519.762 63.15C520.352 62.013,521.216 61.077,522.484 60.414C523.506 59.867,524.6 59.709,525.695 59.579C525.824 59.579,525.954 59.565,526.069 59.565C526.069 60.098,526.055 60.616,526.055 61.163C526.026 61.61,526.026 62.301,526.012 63.093M526.818 70.35C526.861 68.579,526.832 66.822,526.876 65.037C528.647 65.037,530.404 65.022,532.175 64.994C532.175 65.022,532.146 65.022,532.146 65.022C531.8 66.117,531.426 67.211,530.764 68.147C529.972 69.242,528.892 69.947,527.567 70.235C527.322 70.278,527.063 70.322,526.818 70.35M525.968 70.408C524.212 70.394,522.541 69.947,520.957 69.198C519.661 68.608,518.999 67.614,518.999 66.218C518.999 65.973,519.028 65.728,519.056 65.454L519.128 65.094C520.367 65.08,521.62 65.08,522.858 65.051C523.909 65.037,524.946 65.051,525.983 65.037C525.983 66.837,525.968 68.853,525.968 70.408"/><text stroke="none" font-family="Times New Roman, serif" font-size="12pt" font-weight="bold" x="470" y="70">Coda</text><text stroke="none" font-size="8pt" x="457.031" y="83">4</text><g class="vf-stavenote" id="vf-auto22335"><g class="vf-stem" id="vf-auto22336" pointer-events="bounding-box"><path stroke-width="1.5" fill="none" d="M489.758 113L489.758 80"/></g><g class="vf-notehead" id="vf-auto22338" pointer-events="bounding-box"><path stroke="none" d="M480.145 121.543C480.426 121.599,480.678 121.627,480.959 121.627C484.834 121.627,490.619 116.348,490.506 112.08C490.394 111.041,490.422 109.609,488.316 108.766C487.727 108.485,487.081 108.373,486.379 108.373C482.054 108.373,477.365 113.343,477.028 116.657C477.028 116.909,477 117.134,477 117.387C477 119.409,477.899 121.037,480.145 121.543"/></g></g><g class="vf-stavenote" id="vf-auto22339"><g class="vf-stem" id="vf-auto22340" pointer-events="bounding-box"><path stroke-width="1.5" fill="none" d="M522.099 123L522.099 90"/></g><g class="vf-notehead" id="vf-auto22342" pointer-events="bounding-box"><path stroke="none" d="M512.486 131.543C512.767 131.599,513.02 131.627,513.301 131.627C517.176 131.627,522.96 126.348,522.848 122.08C522.735 121.041,522.763 119.609,520.657 118.766C520.068 118.485,519.422 118.373,518.72 118.373C514.396 118.373,509.706 123.343,509.369 126.657C509.369 126.909,509.341 127.134,509.341 127.387C509.341 129.409,510.24 131.037,512.486 131.543"/></g></g><g class="vf-stavenote" id="vf-auto22343"><g class="vf-stem" id="vf-auto22344" pointer-events="bounding-box"><path stroke-width="1.5" fill="none" d="M554.441 123L554.441 90"/></g><g class="vf-notehead" id="vf-auto22346" pointer-events="bounding-box"><path stroke="none" d="M544.827 131.543C545.108 131.599,545.361 131.627,545.642 131.627C549.517 131.627,555.301 126.348,555.189 122.08C555.077 121.041,555.105 119.609,552.999 118.766C552.409 118.485,551.763 118.373,551.061 118.373C546.737 118.373,542.047 123.343,541.711 126.657C541.711 126.909,541.682 127.134,541.682 127.387C541.682 129.409,542.581 131.037,544.827 131.543"/></g></g><g class="vf-stavenote" id="vf-auto22347"><g class="vf-stem" id="vf-auto22348" pointer-events="bounding-box"><path stroke-width="1.5" fill="none" d="M586.782 113L586.782 80"/></g><g class="vf-notehead" id="vf-auto22350" pointer-events="bounding-box"><path stroke="none" d="M577.169 121.543C577.449 121.599,577.702 121.627,577.983 121.627C581.858 121.627,587.642 116.348,587.53 112.08C587.418 111.041,587.446 109.609,585.34 108.766C584.75 108.485,584.104 108.373,583.402 108.373C579.078 108.373,574.389 113.343,574.052 116.657C574.052 116.909,574.024 117.134,574.024 117.387C574.024 119.409,574.922 121.037,577.169 121.543"/></g></g></svg>