<svg xmlns="http://www.w3.org/2000/svg" stroke-width="0.3" stroke-dasharray="none" fill="black" stroke="black" font-family="Arial, sans-serif" font-size="10pt" font-weight="normal" font-style="normal" width="675" height="195" viewBox="0 0 675 195" style="width: 675px; height: 195px; border: none;"><g class="vf-stave" id="vf-auto3543" stroke-width="1" fill="#999999" stroke="#999999"><path fill="none" d="M10 70L135 70"/><path fill="none" d="M10 80L135 80"/><path fill="none" d="M10 90L135 90"/><path fill="none" d="M10 100L135 100"/><path fill="none" d="M10 110L135 110"/></g><g class="vf-stavebarline" id="vf-auto3544"><rect x="10" y="69.5" width="1" height="41" stroke="none"/></g><g class="vf-stavebarline" id="vf-auto3545"/><g class="vf-stavenote" id="vf-auto3514"><path stroke-width="1.4" fill="none" stroke="#444" d="M25.618 120L45.126 120"/><path stroke-width="1.4" fill="none" stroke="#444" d="M25.618 130L45.126 130"/><g class="vf-stem" id="vf-auto3515" pointer-events="bounding-box"><path stroke-width="1.5" fill="none" d="M41.376 128L41.376 90"/></g><g class="vf-notehead" id="vf-auto3517" pointer-events="bounding-box"><path stroke="none" d="M31.763 136.543C32.044 136.599,32.297 136.627,32.577 136.627C36.452 136.627,42.237 131.348,42.125 127.08C42.012 126.041,42.04 124.609,39.934 123.766C39.345 123.485,38.699 123.373,37.997 123.373C33.673 123.373,28.983 128.343,28.646 131.657C28.646 131.909,28.618 132.134,28.618 132.387C28.618 134.409,29.517 136.037,31.763 136.543"/><path stroke="none" d="M27.711 152.832L27.739 152.832C28.259 152.832,28.696 152.695,29.134 152.531C31.596 151.655,33.922 150.397,36.494 149.768C38.19 149.33,39.558 148.263,41.255 147.798C42.24 147.551,43.115 146.813,43.635 145.746C43.717 145.581,43.744 145.472,43.744 145.363C43.744 145.171,43.635 145.007,43.361 144.897C42.294 144.296,41.172 143.776,40.051 143.338C37.233 142.326,34.524 141.231,31.815 140.109C31.596 140.027,31.405 140,31.268 140C30.967 140,30.748 140.109,30.42 140.356C29.627 141.012,29.134 141.943,28.45 142.709C28.313 142.928,28.231 143.064,28.231 143.201C28.231 143.42,28.423 143.612,28.86 143.748C31.542 144.679,34.168 145.718,36.85 146.703C35.263 147.278,33.813 148.208,32.253 148.618C30.283 149.22,28.45 150.014,27.356 151.847C27.246 152.093,27 152.257,27 152.476L27 152.613C27.082 152.804,27.274 152.832,27.438 152.832"/></g></g><g class="vf-stavenote" id="vf-auto3518"><g class="vf-stem" id="vf-auto3519" pointer-events="bounding-box"><path stroke-width="1.5" fill="none" d="M67.081 93L67.081 60"/></g><g class="vf-notehead" id="vf-auto3521" pointer-events="bounding-box"><path stroke="none" d="M57.468 101.543C57.749 101.599,58.001 101.627,58.282 101.627C62.157 101.627,67.942 96.348,67.829 92.08C67.717 91.041,67.745 89.609,65.639 88.766C65.05 88.485,64.404 88.373,63.702 88.373C59.377 88.373,54.688 93.343,54.351 96.657C54.351 96.909,54.323 97.134,54.323 97.387C54.323 99.409,55.222 101.037,57.468 101.543"/><path stroke="none" d="M53.416 111.416L53.444 111.416C53.963 111.416,54.401 111.279,54.839 111.115C57.301 110.239,59.627 108.981,62.199 108.352C63.895 107.914,65.263 106.847,66.959 106.382C67.944 106.135,68.82 105.397,69.34 104.33C69.422 104.166,69.449 104.056,69.449 103.947C69.449 103.755,69.34 103.591,69.066 103.482C67.999 102.88,66.877 102.36,65.756 101.922C62.938 100.91,60.229 99.815,57.52 98.694C57.301 98.611,57.11 98.584,56.973 98.584C56.672 98.584,56.453 98.694,56.125 98.94C55.331 99.596,54.839 100.527,54.155 101.293C54.018 101.512,53.936 101.648,53.936 101.785C53.936 102.004,54.128 102.196,54.565 102.332C57.247 103.263,59.873 104.302,62.555 105.287C60.968 105.862,59.518 106.792,57.958 107.202C55.988 107.804,54.155 108.598,53.061 110.431C52.951 110.677,52.705 110.841,52.705 111.06L52.705 111.197C52.787 111.389,52.979 111.416,53.143 111.416"/></g></g><g class="vf-stavenote" id="vf-auto3522"><path stroke-width="1.4" fill="none" stroke="#444" d="M77.028 120L96.536 120"/><g class="vf-stem" id="vf-auto3523" pointer-events="bounding-box"><path stroke-width="1.5" fill="none" d="M92.786 118L92.786 85"/></g><g class="vf-notehead" id="vf-auto3525" pointer-events="bounding-box"><path stroke="none" d="M83.173 126.543C83.454 126.599,83.706 126.627,83.987 126.627C87.862 126.627,93.647 121.348,93.534 117.08C93.422 116.041,93.45 114.609,91.344 113.766C90.754 113.485,90.109 113.373,89.407 113.373C85.082 113.373,80.393 118.343,80.056 121.657C80.056 121.909,80.028 122.134,80.028 122.387C80.028 124.409,80.926 126.037,83.173 126.543"/><path stroke="none" d="M79.149 81.389C79.668 81.416,80.106 81.252,80.544 81.088C83.006 80.185,85.332 78.926,87.904 78.352C89.6 77.914,90.968 76.847,92.664 76.382C93.649 76.108,94.525 75.397,95.045 74.33C95.127 74.166,95.154 74.001,95.154 73.919C95.154 73.728,95.045 73.564,94.771 73.427C93.704 72.88,92.582 72.36,91.461 71.922C88.642 70.91,85.934 69.788,83.225 68.694C83.006 68.611,82.815 68.584,82.678 68.584C82.377 68.584,82.158 68.694,81.83 68.94C81.036 69.596,80.544 70.499,79.86 71.293C79.723 71.484,79.641 71.648,79.641 71.758C79.641 72.004,79.833 72.196,80.27 72.305C82.952 73.263,85.578 74.275,88.259 75.26C86.673 75.862,85.222 76.737,83.663 77.202C81.693 77.804,79.86 78.543,78.765 80.431C78.656 80.622,78.41 80.814,78.41 81.06L78.41 81.17C78.492 81.389,78.683 81.416,78.848 81.416L79.121 81.416C79.149 81.416,79.149 81.416,79.149 81.389"/></g></g><g class="vf-stavenote" id="vf-auto3526"><g class="vf-stem" id="vf-auto3527" pointer-events="bounding-box"><path stroke-width="1.5" fill="none" d="M118.491 93L118.491 60"/></g><g class="vf-notehead" id="vf-auto3529" pointer-events="bounding-box"><path stroke="none" d="M108.878 101.543C109.159 101.599,109.411 101.627,109.692 101.627C113.567 101.627,119.352 96.348,119.239 92.08C119.127 91.041,119.155 89.609,117.049 88.766C116.459 88.485,115.814 88.373,115.112 88.373C110.787 88.373,106.098 93.343,105.761 96.657C105.761 96.909,105.733 97.134,105.733 97.387C105.733 99.409,106.631 101.037,108.878 101.543"/><path stroke="none" d="M104.853 54.973C105.373 55,105.811 54.836,106.249 54.672C108.711 53.769,111.037 52.51,113.609 51.936C115.305 51.498,116.673 50.431,118.369 49.966C119.354 49.692,120.23 48.981,120.75 47.914C120.832 47.75,120.859 47.585,120.859 47.503C120.859 47.312,120.75 47.148,120.476 47.011C119.409 46.464,118.287 45.944,117.165 45.506C114.347 44.494,111.639 43.372,108.93 42.278C108.711 42.196,108.52 42.168,108.383 42.168C108.082 42.168,107.863 42.278,107.535 42.524C106.741 43.18,106.249 44.083,105.565 44.877C105.428 45.068,105.346 45.232,105.346 45.342C105.346 45.588,105.537 45.78,105.975 45.889C108.656 46.847,111.283 47.859,113.964 48.844C112.377 49.446,110.927 50.321,109.368 50.787C107.398 51.388,105.565 52.127,104.47 54.015C104.361 54.207,104.115 54.398,104.115 54.644L104.115 54.754C104.197 54.973,104.388 55,104.552 55L104.826 55C104.853 55,104.853 55,104.853 54.973"/></g></g><g class="vf-stave" id="vf-auto3575" stroke-width="1" fill="#999999" stroke="#999999"><path fill="none" d="M135 70L260 70"/><path fill="none" d="M135 80L260 80"/><path fill="none" d="M135 90L260 90"/><path fill="none" d="M135 100L260 100"/><path fill="none" d="M135 110L260 110"/></g><g class="vf-stavebarline" id="vf-auto3576"><rect x="135" y="69.5" width="1" height="41" stroke="none"/></g><g class="vf-stavebarline" id="vf-auto3577"><rect x="257" y="69.5" width="1" height="41" stroke="none"/><rect x="260" y="69.5" width="1" height="41" stroke="none"/></g><g class="vf-stavenote" id="vf-auto3546"><g class="vf-stem" id="vf-auto3547" pointer-events="bounding-box"><path stroke-width="1.5" fill="none" d="M154.368 87L154.368 120"/></g><g class="vf-notehead" id="vf-auto3549" pointer-events="bounding-box"><path stroke="none" d="M156.763 91.543C157.044 91.599,157.297 91.627,157.577 91.627C161.452 91.627,167.237 86.348,167.125 82.08C167.012 81.041,167.04 79.609,164.934 78.766C164.345 78.485,163.699 78.373,162.997 78.373C158.673 78.373,153.983 83.343,153.646 86.657C153.646 86.909,153.618 87.134,153.618 87.387C153.618 89.409,154.517 91.037,156.763 91.543"/><path stroke="none" d="M152.739 81.389C153.259 81.416,153.696 81.252,154.134 81.088C156.596 80.185,158.922 78.926,161.494 78.352C163.19 77.914,164.558 76.847,166.255 76.382C167.24 76.108,168.115 75.397,168.635 74.33C168.717 74.166,168.744 74.001,168.744 73.919C168.744 73.728,168.635 73.564,168.361 73.427C167.294 72.88,166.172 72.36,165.051 71.922C162.233 70.91,159.524 69.788,156.815 68.694C156.596 68.611,156.405 68.584,156.268 68.584C155.967 68.584,155.748 68.694,155.42 68.94C154.627 69.596,154.134 70.499,153.45 71.293C153.313 71.484,153.231 71.648,153.231 71.758C153.231 72.004,153.423 72.196,153.86 72.305C156.542 73.263,159.168 74.275,161.85 75.26C160.263 75.862,158.813 76.737,157.253 77.202C155.283 77.804,153.45 78.543,152.356 80.431C152.246 80.622,152 80.814,152 81.06L152 81.17C152.082 81.389,152.274 81.416,152.438 81.416L152.711 81.416C152.739 81.416,152.739 81.416,152.739 81.389"/></g></g><g class="vf-stavenote" id="vf-auto3550"><path stroke-width="1.4" fill="none" stroke="#444" d="M176.323 60L195.831 60"/><g class="vf-stem" id="vf-auto3551" pointer-events="bounding-box"><path stroke-width="1.5" fill="none" d="M180.073 62L180.073 95"/></g><g class="vf-notehead" id="vf-auto3553" pointer-events="bounding-box"><path stroke="none" d="M182.468 66.543C182.749 66.599,183.001 66.627,183.282 66.627C187.157 66.627,192.942 61.348,192.829 57.08C192.717 56.041,192.745 54.609,190.639 53.766C190.05 53.485,189.404 53.373,188.702 53.373C184.377 53.373,179.688 58.343,179.351 61.657C179.351 61.909,179.323 62.134,179.323 62.387C179.323 64.409,180.222 66.037,182.468 66.543"/><path stroke="none" d="M178.444 49.973C178.963 50,179.401 49.836,179.839 49.672C182.301 48.769,184.627 47.51,187.199 46.936C188.895 46.498,190.263 45.431,191.959 44.966C192.944 44.692,193.82 43.981,194.34 42.914C194.422 42.75,194.449 42.585,194.449 42.503C194.449 42.312,194.34 42.148,194.066 42.011C192.999 41.464,191.877 40.944,190.756 40.506C187.938 39.494,185.229 38.372,182.52 37.278C182.301 37.196,182.11 37.168,181.973 37.168C181.672 37.168,181.453 37.278,181.125 37.524C180.331 38.18,179.839 39.083,179.155 39.877C179.018 40.068,178.936 40.232,178.936 40.342C178.936 40.588,179.128 40.78,179.565 40.889C182.247 41.847,184.873 42.859,187.555 43.844C185.968 44.446,184.518 45.321,182.958 45.787C180.988 46.388,179.155 47.127,178.061 49.015C177.951 49.207,177.705 49.398,177.705 49.644L177.705 49.754C177.787 49.973,177.979 50,178.143 50L178.416 50C178.444 50,178.444 50,178.444 49.973"/></g></g><g class="vf-stavenote" id="vf-auto3554"><g class="vf-stem" id="vf-auto3555" pointer-events="bounding-box"><path stroke-width="1.5" fill="none" d="M205.778 87L205.778 120"/></g><g class="vf-notehead" id="vf-auto3557" pointer-events="bounding-box"><path stroke="none" d="M208.173 91.543C208.454 91.599,208.706 91.627,208.987 91.627C212.862 91.627,218.647 86.348,218.534 82.08C218.422 81.041,218.45 79.609,216.344 78.766C215.754 78.485,215.109 78.373,214.407 78.373C210.082 78.373,205.393 83.343,205.056 86.657C205.056 86.909,205.028 87.134,205.028 87.387C205.028 89.409,205.926 91.037,208.173 91.543"/><path stroke="none" d="M204.121 137.832L204.149 137.832C204.668 137.832,205.106 137.695,205.544 137.531C208.006 136.655,210.332 135.397,212.904 134.768C214.6 134.33,215.968 133.263,217.664 132.798C218.649 132.551,219.525 131.813,220.045 130.746C220.127 130.581,220.154 130.472,220.154 130.363C220.154 130.171,220.045 130.007,219.771 129.897C218.704 129.296,217.582 128.776,216.461 128.338C213.642 127.326,210.934 126.231,208.225 125.109C208.006 125.027,207.815 125,207.678 125C207.377 125,207.158 125.109,206.83 125.356C206.036 126.012,205.544 126.943,204.86 127.709C204.723 127.928,204.641 128.064,204.641 128.201C204.641 128.42,204.833 128.612,205.27 128.748C207.952 129.679,210.578 130.718,213.259 131.703C211.673 132.278,210.222 133.208,208.663 133.618C206.693 134.22,204.86 135.014,203.765 136.847C203.656 137.093,203.41 137.257,203.41 137.476L203.41 137.613C203.492 137.804,203.683 137.832,203.848 137.832"/></g></g><g class="vf-stavenote" id="vf-auto3558"><path stroke-width="1.4" fill="none" stroke="#444" d="M227.733 60L247.241 60"/><g class="vf-stem" id="vf-auto3559" pointer-events="bounding-box"><path stroke-width="1.5" fill="none" d="M231.483 62L231.483 95"/></g><g class="vf-notehead" id="vf-auto3561" pointer-events="bounding-box"><path stroke="none" d="M233.878 66.543C234.159 66.599,234.411 66.627,234.692 66.627C238.567 66.627,244.352 61.348,244.239 57.08C244.127 56.041,244.155 54.609,242.049 53.766C241.459 53.485,240.814 53.373,240.112 53.373C235.787 53.373,231.098 58.343,230.761 61.657C230.761 61.909,230.733 62.134,230.733 62.387C230.733 64.409,231.631 66.037,233.878 66.543"/><path stroke="none" d="M229.826 111.416L229.853 111.416C230.373 111.416,230.811 111.279,231.249 111.115C233.711 110.239,236.037 108.981,238.609 108.352C240.305 107.914,241.673 106.847,243.369 106.382C244.354 106.135,245.23 105.397,245.75 104.33C245.832 104.166,245.859 104.056,245.859 103.947C245.859 103.755,245.75 103.591,245.476 103.482C244.409 102.88,243.287 102.36,242.165 101.922C239.347 100.91,236.639 99.815,233.93 98.694C233.711 98.611,233.52 98.584,233.383 98.584C233.082 98.584,232.863 98.694,232.535 98.94C231.741 99.596,231.249 100.527,230.565 101.293C230.428 101.512,230.346 101.648,230.346 101.785C230.346 102.004,230.537 102.196,230.975 102.332C233.656 103.263,236.283 104.302,238.964 105.287C237.377 105.862,235.927 106.792,234.368 107.202C232.398 107.804,230.565 108.598,229.47 110.431C229.361 110.677,229.115 110.841,229.115 111.06L229.115 111.197C229.197 111.389,229.388 111.416,229.552 111.416"/></g></g><g class="vf-stave" id="vf-auto3607" stroke-width="1" fill="#999999" stroke="#999999"><path fill="none" d="M260 70L385 70"/><path fill="none" d="M260 80L385 80"/><path fill="none" d="M260 90L385 90"/><path fill="none" d="M260 100L385 100"/><path fill="none" d="M260 110L385 110"/></g><g class="vf-stavebarline" id="vf-auto3608"><rect x="260" y="69.5" width="1" height="41" stroke="none"/></g><g class="vf-stavebarline" id="vf-auto3609"/><g class="vf-stavenote" id="vf-auto3578"><path stroke-width="1.4" fill="none" stroke="#444" d="M276.522 120L296.03 120"/><g class="vf-stem" id="vf-auto3579" pointer-events="bounding-box"><path stroke-width="1.5" fill="none" d="M292.28 118L292.28 85"/></g><g class="vf-notehead" id="vf-auto3581" pointer-events="bounding-box"><path stroke="none" d="M282.667 126.543C282.948 126.599,283.201 126.627,283.481 126.627C287.357 126.627,293.141 121.348,293.029 117.08C292.916 116.041,292.944 114.609,290.838 113.766C290.249 113.485,289.603 113.373,288.901 113.373C284.577 113.373,279.887 118.343,279.55 121.657C279.55 121.909,279.522 122.134,279.522 122.387C279.522 124.409,280.421 126.037,282.667 126.543"/><path stroke="none" d="M280.754 132.435C281.274 132.435,281.903 132.408,282.396 132.408C284.338 132.408,286.253 132.271,288.196 132.271C288.825 132.271,289.564 132.271,290.193 132.326C290.905 132.353,291.616 132.435,292.218 132.435C293.093 132.435,293.996 132.353,294.817 132.161C295.118 132.107,295.556 132.161,295.556 131.696C295.611 131.204,295.392 130.985,294.899 130.821C293.586 130.438,292.327 130.438,290.987 130.383C288.661 130.301,286.336 130.219,283.983 130.219C283.08 130.219,282.286 130.274,281.383 130.274L277.991 130.274C277.662 130.301,277.197 130.109,277.033 130.492C276.924 130.903,277.252 131.259,277.526 131.56C277.717 131.751,277.991 131.888,278.237 131.997C279.085 132.353,279.961 132.435,280.754 132.435"/></g></g><g class="vf-stavenote" id="vf-auto3582"><g class="vf-stem" id="vf-auto3583" pointer-events="bounding-box"><path stroke-width="1.5" fill="none" d="M317.42 83L317.42 50"/></g><g class="vf-notehead" id="vf-auto3585" pointer-events="bounding-box"><path stroke="none" d="M307.807 91.543C308.088 91.599,308.341 91.627,308.621 91.627C312.496 91.627,318.281 86.348,318.169 82.08C318.056 81.041,318.084 79.609,315.978 78.766C315.389 78.485,314.743 78.373,314.041 78.373C309.716 78.373,305.027 83.343,304.69 86.657C304.69 86.909,304.662 87.134,304.662 87.387C304.662 89.409,305.561 91.037,307.807 91.543"/><path stroke="none" d="M305.894 96.327C306.414 96.327,307.043 96.3,307.536 96.3C309.478 96.3,311.393 96.163,313.336 96.163C313.965 96.163,314.704 96.163,315.333 96.218C316.044 96.245,316.756 96.327,317.358 96.327C318.233 96.327,319.136 96.245,319.957 96.053C320.258 95.999,320.696 96.053,320.696 95.588C320.75 95.096,320.532 94.877,320.039 94.713C318.726 94.33,317.467 94.33,316.127 94.275C313.801 94.193,311.475 94.111,309.122 94.111C308.22 94.111,307.426 94.166,306.523 94.166L303.131 94.166C302.802 94.193,302.337 94.001,302.173 94.384C302.064 94.795,302.392 95.15,302.665 95.451C302.857 95.643,303.131 95.78,303.377 95.889C304.225 96.245,305.1 96.327,305.894 96.327"/></g></g><g class="vf-stavenote" id="vf-auto3586"><path stroke-width="1.4" fill="none" stroke="#444" d="M326.802 120L346.31 120"/><g class="vf-stem" id="vf-auto3587" pointer-events="bounding-box"><path stroke-width="1.5" fill="none" d="M342.56 118L342.56 85"/></g><g class="vf-notehead" id="vf-auto3589" pointer-events="bounding-box"><path stroke="none" d="M332.947 126.543C333.228 126.599,333.48 126.627,333.761 126.627C337.636 126.627,343.421 121.348,343.308 117.08C343.196 116.041,343.224 114.609,341.118 113.766C340.528 113.485,339.883 113.373,339.181 113.373C334.856 113.373,330.167 118.343,329.83 121.657C329.83 121.909,329.802 122.134,329.802 122.387C329.802 124.409,330.7 126.037,332.947 126.543"/><path stroke="none" d="M331.034 76.108C331.554 76.108,332.183 76.081,332.675 76.081C334.618 76.081,336.533 75.944,338.476 75.944C339.105 75.944,339.844 75.944,340.473 75.999C341.184 76.026,341.896 76.108,342.498 76.108C343.373 76.108,344.276 76.026,345.097 75.834C345.398 75.78,345.836 75.834,345.836 75.369C345.89 74.877,345.671 74.658,345.179 74.494C343.866 74.111,342.607 74.111,341.266 74.056C338.941 73.974,336.615 73.892,334.262 73.892C333.359 73.892,332.566 73.947,331.663 73.947L328.27 73.947C327.942 73.974,327.477 73.782,327.313 74.166C327.203 74.576,327.532 74.932,327.805 75.233C327.997 75.451,328.27 75.561,328.517 75.67C329.365 76.026,330.24 76.108,331.034 76.108"/></g></g><g class="vf-stavenote" id="vf-auto3590"><g class="vf-stem" id="vf-auto3591" pointer-events="bounding-box"><path stroke-width="1.5" fill="none" d="M367.7 93L367.7 60"/></g><g class="vf-notehead" id="vf-auto3593" pointer-events="bounding-box"><path stroke="none" d="M358.087 101.543C358.367 101.599,358.62 101.627,358.901 101.627C362.776 101.627,368.561 96.348,368.448 92.08C368.336 91.041,368.364 89.609,366.258 88.766C365.668 88.485,365.022 88.373,364.32 88.373C359.996 88.373,355.307 93.343,354.97 96.657C354.97 96.909,354.942 97.134,354.942 97.387C354.942 99.409,355.84 101.037,358.087 101.543"/><path stroke="none" d="M356.174 55C356.693 55,357.323 54.973,357.815 54.973C359.758 54.973,361.673 54.836,363.616 54.836C364.245 54.836,364.984 54.836,365.613 54.891C366.324 54.918,367.036 55,367.637 55C368.513 55,369.416 54.918,370.237 54.726C370.538 54.672,370.975 54.726,370.975 54.261C371.03 53.769,370.811 53.55,370.319 53.386C369.005 53.003,367.747 53.003,366.406 52.948C364.081 52.866,361.755 52.784,359.402 52.784C358.499 52.784,357.706 52.839,356.803 52.839L353.41 52.839C353.082 52.866,352.617 52.674,352.453 53.057C352.343 53.468,352.672 53.824,352.945 54.124C353.137 54.343,353.41 54.453,353.656 54.562C354.505 54.918,355.38 55,356.174 55"/></g></g><g class="vf-stave" id="vf-auto3639" stroke-width="1" fill="#999999" stroke="#999999"><path fill="none" d="M385 70L510 70"/><path fill="none" d="M385 80L510 80"/><path fill="none" d="M385 90L510 90"/><path fill="none" d="M385 100L510 100"/><path fill="none" d="M385 110L510 110"/></g><g class="vf-stavebarline" id="vf-auto3640"><rect x="385" y="69.5" width="1" height="41" stroke="none"/></g><g class="vf-stavebarline" id="vf-auto3641"><rect x="505" y="69.5" width="1" height="41" stroke="none"/><rect x="508" y="69.5" width="3" height="41" stroke="none"/></g><g class="vf-stavenote" id="vf-auto3610"><g class="vf-stem" id="vf-auto3611" pointer-events="bounding-box"><path stroke-width="1.5" fill="none" d="M405.272 97L405.272 130"/></g><g class="vf-notehead" id="vf-auto3613" pointer-events="bounding-box"><path stroke="none" d="M407.667 101.543C407.948 101.599,408.201 101.627,408.481 101.627C412.357 101.627,418.141 96.348,418.029 92.08C417.916 91.041,417.944 89.609,415.838 88.766C415.249 88.485,414.603 88.373,413.901 88.373C409.577 88.373,404.887 93.343,404.55 96.657C404.55 96.909,404.522 97.134,404.522 97.387C404.522 99.409,405.421 101.037,407.667 101.543"/><path stroke="none" d="M405.754 86.108C406.274 86.108,406.903 86.081,407.396 86.081C409.338 86.081,411.253 85.944,413.196 85.944C413.825 85.944,414.564 85.944,415.193 85.999C415.905 86.026,416.616 86.108,417.218 86.108C418.093 86.108,418.996 86.026,419.817 85.834C420.118 85.78,420.556 85.834,420.556 85.369C420.611 84.877,420.392 84.658,419.899 84.494C418.586 84.111,417.327 84.111,415.987 84.056C413.661 83.974,411.336 83.892,408.983 83.892C408.08 83.892,407.286 83.947,406.383 83.947L402.991 83.947C402.662 83.974,402.197 83.782,402.033 84.166C401.924 84.576,402.252 84.932,402.526 85.233C402.717 85.451,402.991 85.561,403.237 85.67C404.085 86.026,404.961 86.108,405.754 86.108"/></g></g><g class="vf-stavenote" id="vf-auto3614"><path stroke-width="1.4" fill="none" stroke="#444" d="M426.662 60L446.17 60"/><g class="vf-stem" id="vf-auto3615" pointer-events="bounding-box"><path stroke-width="1.5" fill="none" d="M430.412 62L430.412 95"/></g><g class="vf-notehead" id="vf-auto3617" pointer-events="bounding-box"><path stroke="none" d="M432.807 66.543C433.088 66.599,433.341 66.627,433.621 66.627C437.496 66.627,443.281 61.348,443.169 57.08C443.056 56.041,443.084 54.609,440.978 53.766C440.389 53.485,439.743 53.373,439.041 53.373C434.716 53.373,430.027 58.343,429.69 61.657C429.69 61.909,429.662 62.134,429.662 62.387C429.662 64.409,430.561 66.037,432.807 66.543"/><path stroke="none" d="M430.894 50C431.414 50,432.043 49.973,432.536 49.973C434.478 49.973,436.393 49.836,438.336 49.836C438.965 49.836,439.704 49.836,440.333 49.891C441.044 49.918,441.756 50,442.358 50C443.233 50,444.136 49.918,444.957 49.726C445.258 49.672,445.696 49.726,445.696 49.261C445.75 48.769,445.532 48.55,445.039 48.386C443.726 48.003,442.467 48.003,441.127 47.948C438.801 47.866,436.475 47.784,434.122 47.784C433.22 47.784,432.426 47.839,431.523 47.839L428.131 47.839C427.802 47.866,427.337 47.674,427.173 48.057C427.064 48.468,427.392 48.824,427.665 49.124C427.857 49.343,428.131 49.453,428.377 49.562C429.225 49.918,430.1 50,430.894 50"/></g></g><g class="vf-stavenote" id="vf-auto3618"><g class="vf-stem" id="vf-auto3619" pointer-events="bounding-box"><path stroke-width="1.5" fill="none" d="M455.552 87L455.552 120"/></g><g class="vf-notehead" id="vf-auto3621" pointer-events="bounding-box"><path stroke="none" d="M457.947 91.543C458.228 91.599,458.48 91.627,458.761 91.627C462.636 91.627,468.421 86.348,468.308 82.08C468.196 81.041,468.224 79.609,466.118 78.766C465.528 78.485,464.883 78.373,464.181 78.373C459.856 78.373,455.167 83.343,454.83 86.657C454.83 86.909,454.802 87.134,454.802 87.387C454.802 89.409,455.7 91.037,457.947 91.543"/><path stroke="none" d="M456.034 127.435C456.554 127.435,457.183 127.408,457.675 127.408C459.618 127.408,461.533 127.271,463.476 127.271C464.105 127.271,464.844 127.271,465.473 127.326C466.184 127.353,466.896 127.435,467.498 127.435C468.373 127.435,469.276 127.353,470.097 127.161C470.398 127.107,470.836 127.161,470.836 126.696C470.89 126.204,470.671 125.985,470.179 125.821C468.866 125.438,467.607 125.438,466.266 125.383C463.941 125.301,461.615 125.219,459.262 125.219C458.359 125.219,457.566 125.274,456.663 125.274L453.27 125.274C452.942 125.301,452.477 125.109,452.313 125.492C452.203 125.903,452.532 126.259,452.805 126.56C452.997 126.751,453.27 126.888,453.517 126.997C454.365 127.353,455.24 127.435,456.034 127.435"/></g></g><g class="vf-stavenote" id="vf-auto3622"><path stroke-width="1.4" fill="none" stroke="#444" d="M476.942 60L496.45 60"/><g class="vf-stem" id="vf-auto3623" pointer-events="bounding-box"><path stroke-width="1.5" fill="none" d="M480.692 62L480.692 95"/></g><g class="vf-notehead" id="vf-auto3625" pointer-events="bounding-box"><path stroke="none" d="M483.087 66.543C483.367 66.599,483.62 66.627,483.901 66.627C487.776 66.627,493.561 61.348,493.448 57.08C493.336 56.041,493.364 54.609,491.258 53.766C490.668 53.485,490.022 53.373,489.32 53.373C484.996 53.373,480.307 58.343,479.97 61.657C479.97 61.909,479.942 62.134,479.942 62.387C479.942 64.409,480.84 66.037,483.087 66.543"/><path stroke="none" d="M481.174 106.327C481.693 106.327,482.323 106.3,482.815 106.3C484.758 106.3,486.673 106.163,488.616 106.163C489.245 106.163,489.984 106.163,490.613 106.218C491.324 106.245,492.036 106.327,492.637 106.327C493.513 106.327,494.416 106.245,495.237 106.053C495.538 105.999,495.975 106.053,495.975 105.588C496.03 105.096,495.811 104.877,495.319 104.713C494.005 104.33,492.747 104.33,491.406 104.275C489.081 104.193,486.755 104.111,484.402 104.111C483.499 104.111,482.706 104.166,481.803 104.166L478.41 104.166C478.082 104.193,477.617 104.001,477.453 104.384C477.343 104.795,477.672 105.15,477.945 105.451C478.137 105.643,478.41 105.78,478.656 105.889C479.505 106.245,480.38 106.327,481.174 106.327"/></g></g></svg>