<svg xmlns="http://www.w3.org/2000/svg" stroke-width="0.3" stroke-dasharray="none" fill="black" stroke="black" font-family="Arial, sans-serif" font-size="10pt" font-weight="normal" font-style="normal" width="600" height="160" viewBox="0 0 666.6666666666666 177.77777777777777" style="width: 600px; height: 160px; border: none;"><g class="vf-stave" id="vf-auto25274" stroke-width="1" fill="#999999" stroke="#999999" font-family="Arial"><path fill="none" d="M10 70L610 70"/><path fill="none" d="M10 80L610 80"/><path fill="none" d="M10 90L610 90"/><path fill="none" d="M10 100L610 100"/><path fill="none" d="M10 110L610 110"/></g><g class="vf-stavebarline" id="vf-auto25275" font-family="Arial"><rect x="10" y="69.5" width="1" height="41" stroke="none"/></g><g class="vf-stavebarline" id="vf-auto25276" font-family="Arial"><rect x="610" y="69.5" width="1" height="41" stroke="none"/></g><g class="vf-clef" id="vf-auto25277" font-family="Arial"><path stroke="none" d="M23.693 121.402C23.87 121.402,24.048 121.377,24.276 121.301C24.707 121.148,25.062 120.92,25.366 120.591C28.382 117.423,29.623 113.596,29.75 109.313C29.75 108.983,29.776 108.451,29.776 108.451C29.776 108.451,30.282 108.147,30.511 108.071C31.727 107.488,32.893 106.829,33.932 105.993C36.72 103.762,38.316 100.747,39.051 97.376C39.204 96.844,39.229 96.286,39.229 95.779C39.229 93.473,37.962 91.8,35.047 91.268C34.312 91.116,33.577 91.04,32.842 91.04C31.017 91.04,29.269 91.521,27.621 92.484C27.419 92.611,27.19 92.763,27.19 92.763L26.253 89.215C26.202 89.038,26.202 88.708,26.202 88.708C26.202 88.708,29.928 82.093,30.434 78.697C30.612 77.709,30.688 76.72,30.688 75.757C30.688 74.972,30.663 74.237,30.536 73.527C30.181 70.891,29.193 68.408,28.534 65.848C28.356 65.088,28.103 64.175,27.216 64.175C26.557 64.175,26.101 64.809,25.695 65.341C23.82 67.926,22.907 70.891,22.73 74.059C22.705 74.566,22.705 75.098,22.705 75.605C22.705 78.545,23.186 81.51,23.566 84.425C23.566 84.653,23.642 84.881,23.693 85.059C22.046 87.39,20.221 89.57,18.65 91.978C17.56 93.701,16.343 95.424,15.583 97.35C15.177 98.288,15 99.403,15 100.493C15 102.749,15.76 105.055,17.078 106.322C17.839 107.057,19.055 107.868,20.246 108.299C21.944 108.907,23.617 109.313,25.391 109.313C25.923 109.313,26.455 109.287,27.013 109.211L27.444 109.135C27.444 109.135,27.469 109.465,27.444 109.642C27.038 111.847,26.506 114.001,25.188 115.826C24.479 116.764,23.82 117.828,22.451 117.93C22.046 117.98,21.868 118.234,21.868 118.563C21.868 118.69,21.894 118.817,21.944 118.944C22.147 119.501,22.4 120.084,22.654 120.642C22.882 121.148,23.237 121.402,23.693 121.402M25.138 82.828C24.859 81.08,24.681 79.356,24.681 77.633C24.681 74.465,25.34 71.373,27.19 68.408C27.621 69.751,27.849 71.119,27.849 72.488C27.849 73.198,27.773 73.933,27.672 74.642C27.19 77.506,26.532 80.269,25.138 82.828M21.387 104.421C20.88 104.396,20.449 104.219,19.967 104.067C19.004 103.737,18.219 103.382,17.965 102.749C17.839 102.47,17.813 102.14,17.813 101.811C17.813 101.406,17.889 100.975,17.965 100.518C17.991 100.316,18.219 99.682,18.295 99.581C19.714 97.046,21.412 94.765,23.211 92.459L24.732 90.457L25.011 91.268C25.29 92.18,25.543 93.625,25.543 93.625C25.543 93.625,24.529 94.943,23.87 95.602C22.046 97.376,21.159 99.606,21.159 102.064C21.159 102.673,21.235 103.306,21.361 103.965C21.387 104.092,21.387 104.219,21.387 104.421M29.269 103.306C28.99 100.924,28.432 99.023,27.925 96.742C27.875 96.463,27.875 96.286,28.001 96.134C28.939 95.957,29.852 95.881,30.815 95.881C31.727 95.881,32.589 95.957,33.501 96.134C34.591 96.362,35.681 96.539,36.542 97.426C36.593 97.503,36.669 97.579,36.745 97.604C35.301 100.518,33.146 102.723,30.08 104.067L29.421 104.32M25.391 105.055C24.124 105.055,22.882 104.726,22.882 104.726C22.882 104.726,22.781 104.219,22.781 103.484C22.781 103.002,22.806 102.419,22.958 101.836C23.313 100.088,24.555 98.846,25.873 97.68C25.974 97.579,26.101 97.503,26.177 97.503C26.303 97.503,26.354 97.655,26.379 97.908C26.709 100.062,27.266 102.166,27.419 104.32C27.444 104.548,27.419 104.878,27.419 104.878C27.419 104.878,26.455 105.131,25.391 105.055"/></g><g class="vf-timesignature" id="vf-auto25278" font-family="Arial"><path stroke="none" d="M69.113 87.234C69.455 87.332,69.749 87.038,69.921 86.744C70.386 86.157,70.435 85.447,70.557 84.737C70.949 81.383,70.875 78.005,70.998 74.651L70.998 74.308C72.246 74.064,73.397 73.623,74.572 73.109C76.285 72.301,76.579 71.86,76.555 70C76.555 69.119,76.359 68.727,75.918 68.703C75.698 68.703,75.38 68.8,74.988 69.021L74.743 69.119C73.544 69.657,72.32 70.073,71.047 70.318C71.047 68.776,70.973 67.209,70.9 65.667C70.826 64.37,70.802 63.023,70.679 61.726C70.655 61.432,70.679 60.869,70.239 60.869C69.798 60.869,69.504 61.163,69.455 61.677C69.431 62.313,69.235 62.95,69.284 63.586C69.309 65.912,69.382 68.237,69.382 70.539C68.966 70.563,68.55 70.563,68.158 70.539C66.004 70.392,63.898 70.024,61.695 70.073C60.936 70.073,60.153 70.098,59.37 70.22C60.153 68.727,60.79 67.356,61.597 66.01C63.458 62.95,65.465 59.914,66.787 56.487C67.105 55.679,67.35 54.871,67.35 54.039C67.35 53.794,67.301 53.549,67.277 53.28C67.228 53.084,67.228 52.693,66.958 52.693C66.665 52.668,66.322 52.766,66.151 53.035C66.028 53.256,65.906 53.427,65.832 53.647C65.343 55.239,64.462 56.609,63.629 58.005C62.626 59.743,61.45 61.408,60.422 63.121C58.978 65.569,57.778 68.091,56.016 70.318C55.453 71.028,54.939 71.763,54.939 72.644C54.939 72.962,55.012 73.28,55.135 73.599C55.282 73.917,55.453 74.235,55.453 74.553C55.502 75.067,55.6 75.263,55.894 75.288C56.016 75.288,56.236 75.214,56.481 75.067C58.048 74.406,59.614 74.064,61.279 74.064C63.458 74.064,65.661 74.406,67.84 74.553C68.085 74.578,68.329 74.578,68.574 74.627C68.819 74.627,69.064 74.627,69.309 74.553C69.235 76.561,69.211 78.568,69.064 80.575C68.99 82.118,68.819 83.684,68.819 85.3C68.819 85.692,68.819 86.034,68.868 86.402C68.868 86.72,68.819 87.136,69.113 87.234"/><path stroke="none" d="M69.113 127.234C69.455 127.332,69.749 127.038,69.921 126.744C70.386 126.157,70.435 125.447,70.557 124.737C70.949 121.383,70.875 118.005,70.998 114.651L70.998 114.308C72.246 114.064,73.397 113.623,74.572 113.109C76.285 112.301,76.579 111.86,76.555 110C76.555 109.119,76.359 108.727,75.918 108.703C75.698 108.703,75.38 108.8,74.988 109.021L74.743 109.119C73.544 109.657,72.32 110.073,71.047 110.318C71.047 108.776,70.973 107.209,70.9 105.667C70.826 104.37,70.802 103.023,70.679 101.726C70.655 101.432,70.679 100.869,70.239 100.869C69.798 100.869,69.504 101.163,69.455 101.677C69.431 102.313,69.235 102.95,69.284 103.586C69.309 105.912,69.382 108.237,69.382 110.539C68.966 110.563,68.55 110.563,68.158 110.539C66.004 110.392,63.898 110.024,61.695 110.073C60.936 110.073,60.153 110.098,59.37 110.22C60.153 108.727,60.79 107.356,61.597 106.01C63.458 102.95,65.465 99.914,66.787 96.487C67.105 95.679,67.35 94.871,67.35 94.039C67.35 93.794,67.301 93.549,67.277 93.28C67.228 93.084,67.228 92.693,66.958 92.693C66.665 92.668,66.322 92.766,66.151 93.035C66.028 93.256,65.906 93.427,65.832 93.647C65.343 95.239,64.462 96.609,63.629 98.005C62.626 99.743,61.45 101.408,60.422 103.121C58.978 105.569,57.778 108.091,56.016 110.318C55.453 111.028,54.939 111.763,54.939 112.644C54.939 112.962,55.012 113.28,55.135 113.599C55.282 113.917,55.453 114.235,55.453 114.553C55.502 115.067,55.6 115.263,55.894 115.288C56.016 115.288,56.236 115.214,56.481 115.067C58.048 114.406,59.614 114.064,61.279 114.064C63.458 114.064,65.661 114.406,67.84 114.553C68.085 114.578,68.329 114.578,68.574 114.627C68.819 114.627,69.064 114.627,69.309 114.553C69.235 116.561,69.211 118.568,69.064 120.575C68.99 122.118,68.819 123.684,68.819 125.3C68.819 125.692,68.819 126.034,68.868 126.402C68.868 126.72,68.819 127.136,69.113 127.234"/></g><g class="vf-stavenote" id="vf-auto25282" font-family="Arial"><g class="vf-notehead" id="vf-auto25360" pointer-events="bounding-box"><path stroke="none" d="M91.651 120.019C91.954 119.843,91.903 119.49,91.979 119.188C91.979 119.036,91.903 118.91,91.878 118.759C91.576 117.474,91.248 116.239,90.971 114.979C90.92 114.828,90.92 114.677,90.92 114.576C90.92 113.341,91.828 111.854,92.861 111.426C93.113 111.275,93.314 111.376,93.592 111.451C94.751 111.829,95.356 112.812,96.011 113.719C96.187 113.971,96.439 114.299,96.742 114.299C96.817 114.299,96.842 114.299,96.918 114.248C97.246 114.097,97.397 113.77,97.397 113.467L97.346 113.19C97.22 112.358,97.069 111.502,96.515 110.846C95.431 109.536,94.852 107.948,94.121 106.462C94.02 106.235,93.944 106.058,93.944 105.907C93.944 105.655,94.096 105.428,94.348 105.176C95.003 104.496,95.683 103.866,96.112 103.034C96.515 102.379,96.767 101.699,96.767 101.018C96.767 100.54,96.666 100.061,96.338 99.557C95.255 97.742,94.121 95.953,93.214 94.038C92.609 92.728,91.828 91.493,90.744 90.51C90.492 90.258,90.164 89.93,89.812 89.93C89.66 89.93,89.509 89.981,89.333 90.082C88.98 90.308,88.829 90.586,88.829 90.838C88.829 91.14,88.98 91.417,89.182 91.72C90.316 93.181,90.996 94.87,92.08 96.331C92.407 96.734,92.558 97.012,92.558 97.264C92.558 97.591,92.281 97.843,91.702 98.221C90.92 98.65,90.139 99.078,89.408 99.632C89.056 99.884,88.854 100.162,88.854 100.464C88.854 100.64,88.93 100.817,89.005 101.018C89.358 101.85,89.837 102.606,90.341 103.362C91.147 104.496,91.878 105.731,92.458 106.991C92.206 107.218,91.979 107.142,91.777 107.167C89.308 107.495,87.67 109.36,87.846 111.577C88.098 114.223,89.081 116.693,90.265 119.036C90.416 119.339,90.593 119.616,90.971 119.742C91.172 119.818,91.324 120.07,91.5 120.07C91.55 120.07,91.626 120.07,91.651 120.019"/></g></g><g class="vf-stavenote" id="vf-auto25286" font-family="Arial"><g class="vf-notehead" id="vf-auto25361" pointer-events="bounding-box"><path stroke="none" d="M126.188 120.019C126.491 119.843,126.44 119.49,126.516 119.188C126.516 119.036,126.44 118.91,126.415 118.759C126.113 117.474,125.785 116.239,125.508 114.979C125.458 114.828,125.458 114.677,125.458 114.576C125.458 113.341,126.365 111.854,127.398 111.426C127.65 111.275,127.852 111.376,128.129 111.451C129.288 111.829,129.893 112.812,130.548 113.719C130.724 113.971,130.976 114.299,131.279 114.299C131.354 114.299,131.38 114.299,131.455 114.248C131.783 114.097,131.934 113.77,131.934 113.467L131.884 113.19C131.758 112.358,131.606 111.502,131.052 110.846C129.968 109.536,129.389 107.948,128.658 106.462C128.557 106.235,128.482 106.058,128.482 105.907C128.482 105.655,128.633 105.428,128.885 105.176C129.54 104.496,130.22 103.866,130.649 103.034C131.052 102.379,131.304 101.699,131.304 101.018C131.304 100.54,131.203 100.061,130.876 99.557C129.792 97.742,128.658 95.953,127.751 94.038C127.146 92.728,126.365 91.493,125.281 90.51C125.029 90.258,124.702 89.93,124.349 89.93C124.198 89.93,124.046 89.981,123.87 90.082C123.517 90.308,123.366 90.586,123.366 90.838C123.366 91.14,123.517 91.417,123.719 91.72C124.853 93.181,125.533 94.87,126.617 96.331C126.944 96.734,127.096 97.012,127.096 97.264C127.096 97.591,126.818 97.843,126.239 98.221C125.458 98.65,124.676 99.078,123.946 99.632C123.593 99.884,123.391 100.162,123.391 100.464C123.391 100.64,123.467 100.817,123.542 101.018C123.895 101.85,124.374 102.606,124.878 103.362C125.684 104.496,126.415 105.731,126.995 106.991C126.743 107.218,126.516 107.142,126.314 107.167C123.845 107.495,122.207 109.36,122.383 111.577C122.635 114.223,123.618 116.693,124.802 119.036C124.954 119.339,125.13 119.616,125.508 119.742C125.71 119.818,125.861 120.07,126.037 120.07C126.088 120.07,126.163 120.07,126.188 120.019"/></g></g><g class="vf-stavenote" id="vf-auto25290" font-family="Arial"><g class="vf-stem" id="vf-auto25291" pointer-events="bounding-box"><path stroke-width="1.5" fill="none" d="M157.67 107L157.67 140"/></g><g class="vf-notehead" id="vf-auto25293" pointer-events="bounding-box"><path stroke="none" d="M160.065 111.543C160.346 111.599,160.599 111.627,160.88 111.627C164.755 111.627,170.539 106.348,170.427 102.08C170.315 101.041,170.343 99.609,168.237 98.766C167.647 98.485,167.001 98.373,166.299 98.373C161.975 98.373,157.286 103.343,156.949 106.657C156.949 106.909,156.92 107.134,156.92 107.387C156.92 109.409,157.819 111.037,160.065 111.543"/></g></g><g class="vf-stavenote" id="vf-auto25294" font-family="Arial"><g class="vf-stem" id="vf-auto25295" pointer-events="bounding-box"><path stroke-width="1.5" fill="none" d="M192.208 77L192.208 107"/></g><g class="vf-notehead" id="vf-auto25298" pointer-events="bounding-box"><path stroke="none" d="M194.603 81.543C194.883 81.599,195.136 81.627,195.417 81.627C199.292 81.627,205.076 76.348,204.964 72.08C204.852 71.041,204.88 69.609,202.774 68.766C202.184 68.485,201.538 68.373,200.836 68.373C196.512 68.373,191.823 73.343,191.486 76.657C191.486 76.909,191.458 77.134,191.458 77.387C191.458 79.409,192.356 81.037,194.603 81.543"/></g><path stroke="none" d="M198.899 79.118C198.73 78.978,198.618 78.894,198.506 78.894C198.365 78.894,198.253 79.034,198.197 79.371C198.169 79.905,197.972 80.41,197.916 80.944C197.888 81.309,197.86 81.674,197.86 82.011C197.86 82.656,198 83.246,198.646 83.78C199.376 84.369,199.797 85.324,200.191 86.194C200.303 86.447,200.359 86.728,200.359 87.009C200.359 87.542,200.162 88.104,200.106 88.666C199.826 91.754,198.365 94.338,196.428 96.64C195.67 97.567,194.94 98.578,194.153 99.504C192.272 102.004,191.458 104.84,191.458 107.956L191.458 110.231C191.458 110.989,191.626 111.635,192.44 112L192.637 112C192.918 111.326,193.199 110.624,193.199 109.894C193.199 109.445,193.114 109.08,193.114 108.715C193.142 106.861,194.013 105.289,195.136 103.829C196.119 102.621,197.046 101.358,198 100.15C200.191 97.398,201.286 94.253,201.763 90.8C201.932 89.761,202.016 88.722,202.016 87.655C202.016 86.082,201.819 84.51,201.314 82.937C200.893 81.477,199.91 80.27,198.899 79.118"/></g><g class="vf-stavenote" id="vf-auto25300" font-family="Arial"><g class="vf-notehead" id="vf-auto25362" pointer-events="bounding-box"><path stroke="none" d="M227.44 75.502C228.171 75.474,228.536 75.025,228.788 74.547C229.518 73.199,230.08 71.795,230.585 70.335C232.186 66.011,232.916 61.406,234.348 56.997C234.432 56.744,234.517 56.464,234.517 56.183L234.517 55.986C234.489 55.425,234.348 55.06,233.871 55.06C233.758 55.06,233.674 55.06,233.562 55.088C232.579 55.256,231.681 55.649,231.035 56.267C230.024 57.25,228.901 57.952,227.721 58.682C227.553 58.766,227.412 58.85,227.244 58.85C227.075 58.85,226.907 58.766,226.767 58.598C226.598 58.457,226.514 58.261,226.514 58.092C226.514 57.924,226.542 57.812,226.626 57.643C226.795 57.362,226.963 56.997,226.963 56.632C226.963 55.93,227.16 55.06,226.401 54.695C226.036 54.526,225.699 54.442,225.475 54.442C224.941 54.442,224.604 54.807,224.183 55.565C223.397 56.913,223.172 58.401,222.92 59.918C222.863 60.226,222.835 60.507,222.835 60.788C222.835 62.641,223.818 64.326,225.896 64.326C226.401 64.326,226.991 64.242,227.637 63.989C228.816 63.54,229.799 62.894,230.95 62.164C230.024 66.741,228.255 70.981,227.44 75.502"/></g></g><g class="vf-stavenote" id="vf-auto25304" font-family="Arial"><path stroke-width="1.4" fill="none" stroke="#444" d="M251.213 60L270.721 60"/><g class="vf-notehead" id="vf-auto25308" pointer-events="bounding-box"><path stroke="none" d="M257.358 66.543C257.639 66.599,257.891 66.627,258.172 66.627C262.047 66.627,267.832 61.348,267.719 57.08C267.607 56.041,267.635 54.609,265.529 53.766C264.94 53.485,264.294 53.373,263.592 53.373C259.267 53.373,254.578 58.343,254.241 61.657C254.241 61.909,254.213 62.134,254.213 62.387C254.213 64.409,255.112 66.037,257.358 66.543"/></g></g><g class="vf-stavenote" id="vf-auto25310" font-family="Arial"><g class="vf-notehead" id="vf-auto25363" pointer-events="bounding-box"><path stroke="none" d="M290.196 85.502C290.926 85.474,291.291 85.025,291.544 84.547C292.274 83.199,292.835 81.795,293.341 80.335C294.941 76.011,295.671 71.406,297.103 66.997C297.188 66.744,297.272 66.464,297.272 66.183L297.272 65.986C297.244 65.425,297.103 65.06,296.626 65.06C296.514 65.06,296.43 65.06,296.317 65.088C295.334 65.256,294.436 65.649,293.79 66.267C292.779 67.25,291.656 67.952,290.477 68.682C290.308 68.766,290.168 68.85,289.999 68.85C289.831 68.85,289.662 68.766,289.522 68.598C289.353 68.457,289.269 68.261,289.269 68.092C289.269 67.924,289.297 67.812,289.381 67.643C289.55 67.362,289.718 66.997,289.718 66.632C289.718 65.93,289.915 65.06,289.157 64.695C288.792 64.526,288.455 64.442,288.23 64.442C287.697 64.442,287.36 64.807,286.938 65.565C286.152 66.913,285.928 68.401,285.675 69.918C285.619 70.226,285.591 70.507,285.591 70.788C285.591 72.641,286.573 74.326,288.651 74.326C289.157 74.326,289.746 74.242,290.392 73.989C291.572 73.54,292.554 72.894,293.706 72.164C292.779 76.741,291.01 80.981,290.196 85.502"/></g></g><g class="vf-stavenote" id="vf-auto25314" font-family="Arial"><g class="vf-notehead" id="vf-auto25318" pointer-events="bounding-box"><path stroke="none" d="M320.113 96.543C320.394 96.599,320.647 96.627,320.928 96.627C324.803 96.627,330.587 91.348,330.475 87.08C330.362 86.041,330.391 84.609,328.285 83.766C327.695 83.485,327.049 83.373,326.347 83.373C322.023 83.373,317.333 88.343,316.996 91.657C316.996 91.909,316.968 92.134,316.968 92.387C316.968 94.409,317.867 96.037,320.113 96.543"/></g></g><g class="vf-stavenote" id="vf-auto25320" font-family="Arial"><g class="vf-notehead" id="vf-auto25324" pointer-events="bounding-box"><path stroke="none" d="M351.491 81.543C351.772 81.599,352.024 81.627,352.305 81.627C356.18 81.627,361.965 76.348,361.852 72.08C361.74 71.041,361.768 69.609,359.662 68.766C359.073 68.485,358.427 68.373,357.725 68.373C353.4 68.373,348.711 73.343,348.374 76.657C348.374 76.909,348.346 77.134,348.346 77.387C348.346 79.409,349.245 81.037,351.491 81.543"/></g></g><g class="vf-stavenote" id="vf-auto25326" font-family="Arial"><path stroke-width="1.4" fill="none" stroke="#444" d="M376.724 60L396.232 60"/><g class="vf-stem" id="vf-auto25327" pointer-events="bounding-box"><path stroke-width="1.5" fill="none" d="M392.482 58L392.482 25"/></g><g class="vf-notehead" id="vf-auto25329" pointer-events="bounding-box"><path stroke="none" d="M382.869 66.543C383.149 66.599,383.402 66.627,383.683 66.627C387.558 66.627,393.342 61.348,393.23 57.08C393.118 56.041,393.146 54.609,391.04 53.766C390.45 53.485,389.804 53.373,389.102 53.373C384.778 53.373,380.089 58.343,379.752 61.657C379.752 61.909,379.724 62.134,379.724 62.387C379.724 64.409,380.622 66.037,382.869 66.543"/></g></g><g class="vf-stavenote" id="vf-auto25330" font-family="Arial"><g class="vf-notehead" id="vf-auto25356" pointer-events="bounding-box"><path stroke="none" d="M415.926 70.019C416.229 69.843,416.178 69.49,416.254 69.188C416.254 69.036,416.178 68.91,416.153 68.759C415.851 67.474,415.523 66.239,415.246 64.979C415.195 64.828,415.195 64.677,415.195 64.576C415.195 63.341,416.103 61.854,417.136 61.426C417.388 61.275,417.589 61.376,417.867 61.451C419.026 61.829,419.631 62.812,420.286 63.719C420.462 63.971,420.714 64.299,421.017 64.299C421.092 64.299,421.117 64.299,421.193 64.248C421.521 64.097,421.672 63.77,421.672 63.467L421.621 63.19C421.495 62.358,421.344 61.502,420.79 60.846C419.706 59.536,419.127 57.948,418.396 56.462C418.295 56.235,418.219 56.058,418.219 55.907C418.219 55.655,418.371 55.428,418.623 55.176C419.278 54.496,419.958 53.866,420.387 53.034C420.79 52.379,421.042 51.699,421.042 51.018C421.042 50.54,420.941 50.061,420.613 49.557C419.53 47.742,418.396 45.953,417.489 44.038C416.884 42.728,416.103 41.493,415.019 40.51C414.767 40.258,414.439 39.93,414.087 39.93C413.935 39.93,413.784 39.981,413.608 40.082C413.255 40.308,413.104 40.586,413.104 40.838C413.104 41.14,413.255 41.417,413.457 41.72C414.591 43.181,415.271 44.87,416.355 46.331C416.682 46.734,416.833 47.012,416.833 47.264C416.833 47.591,416.556 47.843,415.977 48.221C415.195 48.65,414.414 49.078,413.683 49.632C413.331 49.884,413.129 50.162,413.129 50.464C413.129 50.64,413.205 50.817,413.28 51.018C413.633 51.85,414.112 52.606,414.616 53.362C415.422 54.496,416.153 55.731,416.733 56.991C416.481 57.218,416.254 57.142,416.052 57.167C413.583 57.495,411.945 59.36,412.121 61.577C412.373 64.223,413.356 66.693,414.54 69.036C414.691 69.339,414.868 69.616,415.246 69.742C415.447 69.818,415.599 70.07,415.775 70.07C415.825 70.07,415.901 70.07,415.926 70.019"/></g></g><g class="vf-stavenote" id="vf-auto25334" font-family="Arial"><path stroke-width="1.4" fill="none" stroke="#444" d="M441.518 60L461.026 60"/><g class="vf-stem" id="vf-auto25335" pointer-events="bounding-box"><path stroke-width="1.5" fill="none" d="M457.276 53L457.276 20"/></g><g class="vf-notehead" id="vf-auto25337" pointer-events="bounding-box"><path stroke="none" d="M447.663 61.543C447.944 61.599,448.197 61.627,448.478 61.627C452.353 61.627,458.137 56.348,458.025 52.08C457.912 51.041,457.941 49.609,455.835 48.766C455.245 48.485,454.599 48.373,453.897 48.373C449.573 48.373,444.883 53.343,444.546 56.657C444.546 56.909,444.518 57.134,444.518 57.387C444.518 59.409,445.417 61.037,447.663 61.543"/></g></g><g class="vf-stavenote" id="vf-auto25338" font-family="Arial"><g class="vf-stem" id="vf-auto25339" pointer-events="bounding-box"><path stroke-width="1.5" fill="none" d="M477.666 82L477.666 115"/></g><g class="vf-notehead" id="vf-auto25341" pointer-events="bounding-box"><path stroke="none" d="M480.061 86.543C480.341 86.599,480.594 86.627,480.875 86.627C484.75 86.627,490.534 81.348,490.422 77.08C490.31 76.041,490.338 74.609,488.232 73.766C487.642 73.485,486.996 73.373,486.294 73.373C481.97 73.373,477.281 78.343,476.944 81.657C476.944 81.909,476.916 82.134,476.916 82.387C476.916 84.409,477.814 86.037,480.061 86.543"/></g></g><g class="vf-stavenote" id="vf-auto25342" font-family="Arial"><g class="vf-stem" id="vf-auto25343" pointer-events="bounding-box"><path stroke-width="1.5" fill="none" d="M512.203 67L512.203 100"/></g><g class="vf-notehead" id="vf-auto25345" pointer-events="bounding-box"><path stroke="none" d="M514.598 71.543C514.879 71.599,515.131 71.627,515.412 71.627C519.287 71.627,525.072 66.348,524.959 62.08C524.847 61.041,524.875 59.609,522.769 58.766C522.179 58.485,521.534 58.373,520.832 58.373C516.507 58.373,511.818 63.343,511.481 66.657C511.481 66.909,511.453 67.134,511.453 67.387C511.453 69.409,512.351 71.037,514.598 71.543"/></g></g><g class="vf-stavenote" id="vf-auto25346" font-family="Arial"><g class="vf-notehead" id="vf-auto25364" pointer-events="bounding-box"><path stroke="none" d="M549.795 80.019C550.098 79.843,550.047 79.49,550.123 79.188C550.123 79.036,550.047 78.91,550.022 78.759C549.72 77.474,549.392 76.239,549.115 74.979C549.064 74.828,549.064 74.677,549.064 74.576C549.064 73.341,549.972 71.854,551.005 71.426C551.257 71.275,551.458 71.376,551.736 71.451C552.895 71.829,553.5 72.812,554.155 73.719C554.331 73.971,554.583 74.299,554.886 74.299C554.961 74.299,554.986 74.299,555.062 74.248C555.39 74.097,555.541 73.77,555.541 73.467L555.49 73.19C555.364 72.358,555.213 71.502,554.659 70.846C553.575 69.536,552.996 67.948,552.265 66.462C552.164 66.235,552.088 66.058,552.088 65.907C552.088 65.655,552.24 65.428,552.492 65.176C553.147 64.496,553.827 63.866,554.256 63.034C554.659 62.379,554.911 61.699,554.911 61.018C554.911 60.54,554.81 60.061,554.482 59.557C553.399 57.742,552.265 55.953,551.358 54.038C550.753 52.728,549.972 51.493,548.888 50.51C548.636 50.258,548.308 49.93,547.956 49.93C547.804 49.93,547.653 49.981,547.477 50.082C547.124 50.308,546.973 50.586,546.973 50.838C546.973 51.14,547.124 51.417,547.326 51.72C548.46 53.181,549.14 54.87,550.224 56.331C550.551 56.734,550.702 57.012,550.702 57.264C550.702 57.591,550.425 57.843,549.846 58.221C549.064 58.65,548.283 59.078,547.552 59.632C547.2 59.884,546.998 60.162,546.998 60.464C546.998 60.64,547.074 60.817,547.149 61.018C547.502 61.85,547.981 62.606,548.485 63.362C549.291 64.496,550.022 65.731,550.602 66.991C550.35 67.218,550.123 67.142,549.921 67.167C547.452 67.495,545.814 69.36,545.99 71.577C546.242 74.223,547.225 76.693,548.409 79.036C548.56 79.339,548.737 79.616,549.115 79.742C549.316 79.818,549.468 80.07,549.644 80.07C549.694 80.07,549.77 80.07,549.795 80.019"/></g></g><g class="vf-stavenote" id="vf-auto25350" font-family="Arial"><g class="vf-notehead" id="vf-auto25365" pointer-events="bounding-box"><path stroke="none" d="M584.332 80.019C584.635 79.843,584.584 79.49,584.66 79.188C584.66 79.036,584.584 78.91,584.559 78.759C584.257 77.474,583.929 76.239,583.652 74.979C583.602 74.828,583.602 74.677,583.602 74.576C583.602 73.341,584.509 71.854,585.542 71.426C585.794 71.275,585.996 71.376,586.273 71.451C587.432 71.829,588.037 72.812,588.692 73.719C588.868 73.971,589.12 74.299,589.423 74.299C589.498 74.299,589.524 74.299,589.599 74.248C589.927 74.097,590.078 73.77,590.078 73.467L590.028 73.19C589.902 72.358,589.75 71.502,589.196 70.846C588.112 69.536,587.533 67.948,586.802 66.462C586.701 66.235,586.626 66.058,586.626 65.907C586.626 65.655,586.777 65.428,587.029 65.176C587.684 64.496,588.364 63.866,588.793 63.034C589.196 62.379,589.448 61.699,589.448 61.018C589.448 60.54,589.347 60.061,589.02 59.557C587.936 57.742,586.802 55.953,585.895 54.038C585.29 52.728,584.509 51.493,583.425 50.51C583.173 50.258,582.846 49.93,582.493 49.93C582.342 49.93,582.19 49.981,582.014 50.082C581.661 50.308,581.51 50.586,581.51 50.838C581.51 51.14,581.661 51.417,581.863 51.72C582.997 53.181,583.677 54.87,584.761 56.331C585.088 56.734,585.24 57.012,585.24 57.264C585.24 57.591,584.962 57.843,584.383 58.221C583.602 58.65,582.82 59.078,582.09 59.632C581.737 59.884,581.535 60.162,581.535 60.464C581.535 60.64,581.611 60.817,581.686 61.018C582.039 61.85,582.518 62.606,583.022 63.362C583.828 64.496,584.559 65.731,585.139 66.991C584.887 67.218,584.66 67.142,584.458 67.167C581.989 67.495,580.351 69.36,580.527 71.577C580.779 74.223,581.762 76.693,582.946 79.036C583.098 79.339,583.274 79.616,583.652 79.742C583.854 79.818,584.005 80.07,584.181 80.07C584.232 80.07,584.307 80.07,584.332 80.019"/></g></g><rect x="374.724" y="10" width="33.216" height="1" stroke="none"/><rect x="429.81" y="10" width="33.216" height="1" stroke="none"/><rect x="374.724" y="10" width="1" height="10" stroke="none"/><rect x="463.026" y="10" width="1" height="10" stroke="none"/><path stroke="none" d="M416.361 17.887C417.121 18.14,417.85 18.267,418.547 18.267C419.988 18.267,421.335 17.729,422.523 16.699C423.98 15.4,424.487 13.689,424.487 11.884C424.487 11.472,424.455 11.044,424.408 10.632C424.281 9.349,423.552 8.351,422.269 7.829C421.921 7.718,421.588 7.623,421.224 7.528C422.539 5.959,423.663 4.344,424.82 2.712C425.121 2.3,425.263 1.857,425.263 1.366C425.263 1.192,425.232 0.986,425.184 0.78C425.121 0.51,425.01 0.4,424.82 0.4C424.756 0.4,424.693 0.415,424.598 0.431C424.091 0.574,423.584 0.59,423.093 0.59C421.842 0.59,420.559 0.558,419.307 0.558L418.42 0.558C417.026 0.558,415.632 0.558,414.27 0.685C413.811 0.732,413.573 0.922,413.51 1.397C413.415 1.857,413.447 2.332,413.399 2.807C413.367 3.108,413.447 3.251,413.763 3.251L413.827 3.251C414.635 3.172,415.442 3.124,416.266 3.124L422.475 3.124C421.224 4.819,419.988 6.292,418.547 7.623C417.692 8.415,416.836 9.143,416.836 10.363C416.836 10.569,416.868 10.791,416.931 11.044L416.931 11.092C416.916 11.266,416.916 11.472,417.121 11.567C417.28 11.63,417.438 11.551,417.549 11.424C418.135 10.838,418.911 10.664,419.672 10.474C419.941 10.41,420.21 10.363,420.464 10.363C421.129 10.363,421.763 10.585,422.317 11.044C422.681 11.313,423.156 11.662,423.156 12.169C423.156 12.248,423.141 12.327,423.109 12.406C422.697 13.737,421.953 14.782,420.622 15.289C419.973 15.543,419.307 15.653,418.658 15.653C417.517 15.653,416.409 15.289,415.332 14.719C414.872 14.45,414.492 14.244,414.334 13.689C414.302 13.578,414.286 13.277,414.064 13.277C414.017 13.277,413.985 13.277,413.938 13.309C413.7 13.373,413.51 13.547,413.51 13.895C413.462 14.656,413.652 15.305,413.811 16.034C413.89 16.43,414.175 16.746,414.54 16.968C415.126 17.317,415.696 17.665,416.361 17.887"/><g class="vf-stem" id="vf-auto25305" pointer-events="bounding-box" font-family="Arial"><path stroke-width="1.5" fill="none" d="M254.963 62L254.963 119.543"/></g><g class="vf-stem" id="vf-auto25315" pointer-events="bounding-box" font-family="Arial"><path stroke-width="1.5" fill="none" d="M317.718 92L317.718 124.25"/></g><g class="vf-stem" id="vf-auto25321" pointer-events="bounding-box" font-family="Arial"><path stroke-width="1.5" fill="none" d="M349.096 77L349.096 126.603"/></g><g class="vf-beam" id="vf-auto25354" font-family="Arial"><path stroke="none" d="M254.213 120.237L254.213 115.237L349.346 122.297L349.346 127.297Z"/></g></svg>