<svg xmlns="http://www.w3.org/2000/svg" stroke-width="0.3" stroke-dasharray="none" fill="black" stroke="black" font-family="Arial, sans-serif" font-size="10pt" font-weight="normal" font-style="normal" width="600" height="350" viewBox="0 0 600 350" style="width: 600px; height: 350px; border: none;"><g class="vf-stave" id="vf-auto6343" stroke-width="1" fill="#999999" stroke="#999999"><path fill="none" d="M10 50L221.558 50"/><path fill="none" d="M10 60L221.558 60"/><path fill="none" d="M10 70L221.558 70"/><path fill="none" d="M10 80L221.558 80"/><path fill="none" d="M10 90L221.558 90"/></g><g class="vf-stavebarline" id="vf-auto6344"/><g class="vf-stavebarline" id="vf-auto6345"><rect x="221.558" y="49.5" width="1" height="41" stroke="none"/></g><g class="vf-clef" id="vf-auto6346"><path stroke="none" d="M28.711 65.844C28.66 65.413,28.711 65.388,28.939 65.16C32.893 61.485,35.883 56.847,35.883 51.246C35.883 48.078,34.996 44.935,33.501 42.756C32.944 41.945,32.006 40.931,31.6 40.931C31.093 40.931,29.953 41.869,29.243 42.68C26.532 45.67,25.644 50.232,25.644 54.034C25.644 56.138,25.923 58.52,26.177 60.015C26.253 60.446,26.278 60.522,25.847 60.902C20.576 65.236,15 70.457,15 77.832C15 84.168,19.334 90.2,28.28 90.2C29.117 90.2,30.08 90.124,30.815 89.972C31.195 89.896,31.271 89.87,31.347 90.301C31.778 92.76,32.335 95.928,32.335 97.651C32.335 103.049,28.686 103.708,26.532 103.708C24.555 103.708,23.617 103.125,23.617 102.644C23.617 102.39,23.946 102.289,24.783 102.01C25.923 101.681,27.216 100.718,27.216 98.589C27.216 96.587,25.949 94.863,23.718 94.863C21.285 94.863,19.815 96.815,19.815 99.07C19.815 101.427,21.235 105.026,26.76 105.026C29.193 105.026,33.932 103.911,33.932 97.727C33.932 95.623,33.273 92.177,32.893 89.896C32.817 89.465,32.842 89.516,33.349 89.287C37.049 87.818,39.482 84.726,39.482 80.594C39.482 75.931,36.061 71.8,30.688 71.8C29.75 71.8,29.75 71.8,29.623 71.141M32.158 46.583C33.349 46.583,34.337 47.571,34.337 49.573C34.337 53.628,30.865 56.923,28.001 59.432C27.748 59.66,27.596 59.61,27.52 59.128C27.368 58.19,27.292 56.949,27.292 55.783C27.292 50.08,29.928 46.583,32.158 46.583M28.179 71.445C28.28 72.13,28.28 72.104,27.621 72.307C24.428 73.397,22.324 76.286,22.324 79.403C22.324 82.673,24.048 85.004,26.532 85.866C26.836 85.967,27.266 86.069,27.52 86.069C27.799 86.069,27.951 85.891,27.951 85.663C27.951 85.41,27.672 85.308,27.419 85.207C25.873 84.548,24.783 82.977,24.783 81.304C24.783 79.201,26.202 77.655,28.432 77.021C29.015 76.869,29.091 76.92,29.167 77.325L30.992 88.198C31.068 88.603,31.017 88.603,30.485 88.705C29.902 88.806,29.167 88.882,28.432 88.882C22.046 88.882,17.915 85.334,17.915 80.265C17.915 78.111,18.295 75.222,21.311 71.8C23.516 69.367,25.188 67.999,26.886 66.63C27.266 66.326,27.343 66.377,27.419 66.757M30.688 77.249C30.612 76.793,30.663 76.692,31.093 76.742C34.059 76.996,36.492 79.479,36.492 82.673C36.492 84.979,35.098 86.829,33.07 87.868C32.639 88.071,32.563 88.071,32.487 87.64"/></g><g class="vf-stave" id="vf-auto6372" stroke-width="1" fill="#999999" stroke="#999999"><path fill="none" d="M10 170L221.558 170"/><path fill="none" d="M10 180L221.558 180"/><path fill="none" d="M10 190L221.558 190"/><path fill="none" d="M10 200L221.558 200"/><path fill="none" d="M10 210L221.558 210"/></g><g class="vf-stavebarline" id="vf-auto6373"/><g class="vf-stavebarline" id="vf-auto6374"><rect x="221.558" y="169.5" width="1" height="41" stroke="none"/></g><g class="vf-clef" id="vf-auto6375"><path stroke="none" d="M23.364 170.814C17.58 170.814,15 175.03,15 178.21C15 180.859,16.382 183.14,19.078 183.14C21.175 183.14,22.603 181.689,22.603 179.638C22.603 177.519,21.036 176.182,19.424 176.182C18.525 176.182,18.18 176.413,17.765 176.413C17.327 176.413,17.212 176.159,17.212 175.814C17.212 174.5,19.216 172.058,22.603 172.058C26.105 172.058,27.649 175.514,27.649 180.721C27.649 189.983,23.064 195.167,15.323 199.568C15.023 199.729,14.839 199.913,14.839 200.167C14.839 200.374,14.977 200.559,15.276 200.559C15.438 200.559,15.622 200.512,15.829 200.397C23.986 196.411,32.626 190.513,32.626 180.422C32.626 174.662,29.1 170.814,23.364 170.814M35.874 173.533C34.837 173.533,34.054 174.316,34.054 175.353C34.054 176.39,34.837 177.173,35.874 177.173C36.888 177.173,37.694 176.39,37.694 175.353C37.694 174.316,36.888 173.533,35.874 173.533M35.897 181.85C34.884 181.85,34.1 182.61,34.1 183.647C34.1 184.684,34.884 185.444,35.897 185.444C36.934 185.444,37.694 184.684,37.694 183.647C37.694 182.61,36.934 181.85,35.897 181.85"/></g><g class="vf-stavenote" id="vf-auto6302"><g class="vf-stem" id="vf-auto6303" pointer-events="bounding-box"><path stroke-width="1.5" fill="none" d="M83.055 80L83.055 130"/></g><g class="vf-notehead" id="vf-auto6312" pointer-events="bounding-box"><path stroke-width="1.5" stroke="none" d="M68.055 105L68.055 96L83.055 85L83.055 95L68.055 105Z"/></g><g class="vf-notehead" id="vf-auto6311" pointer-events="bounding-box"><path stroke-width="1.5" stroke="none" d="M82.305 100L82.305 91L97.305 80L97.305 90L82.305 100Z"/></g><g class="vf-notehead" id="vf-auto6310" pointer-events="bounding-box"><path stroke-width="1.5" stroke="none" d="M82.305 90L82.305 81L97.305 70L97.305 80L82.305 90Z"/></g></g><g class="vf-stavenote" id="vf-auto6313"><path stroke-width="1.4" fill="none" stroke="#444" d="M116.884 100L137.884 100"/><g class="vf-stem" id="vf-auto6314" pointer-events="bounding-box"><path stroke-width="1.5" fill="none" d="M120.634 100L120.634 135"/></g><g class="vf-notehead" id="vf-auto6317" pointer-events="bounding-box"><path stroke-width="1.5" stroke="none" d="M119.884 110L119.884 101L134.884 90L134.884 100L119.884 110Z"/></g></g><g class="vf-stavenote" id="vf-auto6318"><g class="vf-notehead" id="vf-auto6322" pointer-events="bounding-box"><path stroke="none" d="M160.285 101.386C160.865 102.117,161.394 102.797,161.848 103.553C161.923 103.704,162.074 103.982,162.074 104.057C162.074 104.108,162.074 104.183,162.024 104.208C161.974 104.36,161.822 104.385,161.646 104.385C161.495 104.385,161.192 104.309,161.066 104.284C161.016 104.284,160.94 104.284,160.915 104.284L160.613 104.183C158.723 104.183,157.488 105.872,157.488 107.661C157.488 109.475,159.05 111.239,161.696 113.28C161.999 113.507,162.352 113.608,162.654 113.608C162.906 113.608,163.158 113.532,163.208 113.381C163.234 113.28,163.259 113.205,163.259 113.129C163.259 112.802,162.982 112.524,162.679 112.272C162.226 112.272,161.822 111.29,161.747 110.962C161.646 110.66,161.596 110.332,161.596 110.004C161.596 108.518,162.352 107.358,163.889 107.358C164.947 107.358,166.132 107.762,166.762 107.988L166.787 108.014C166.938 108.064,167.014 108.064,167.089 108.064C167.19 108.064,167.266 108.014,167.266 107.913C167.266 107.484,166.308 106.275,165.93 105.846C164.544 104.183,163.41 102.822,163.41 100.806C163.41 100.756,163.41 100.731,163.41 100.68L163.46 100.428C163.46 100.403,163.46 100.353,163.46 100.328C163.586 98.211,164.897 96.472,165.854 94.985C165.955 94.809,165.98 94.632,165.98 94.456C165.98 94.078,165.854 93.75,165.854 93.75C165.854 93.75,160.487 87.375,159.857 86.745C159.68 86.568,159.428 86.468,159.202 86.468C158.849 86.468,158.471 86.72,158.471 87.224C158.471 87.4,158.521 87.602,158.622 87.803C158.773 88.206,160.84 90.046,160.84 92.667C160.84 94.002,160.285 95.565,158.672 97.278C158.294 97.631,158.143 98.034,158.143 98.337C158.143 98.841,158.521 99.194,158.521 99.194"/></g></g><g class="vf-stavenote" id="vf-auto6323"><path stroke-width="1.4" fill="none" stroke="#444" d="M192.042 100L213.042 100"/><g class="vf-stem" id="vf-auto6324" pointer-events="bounding-box"><path stroke-width="1.5" fill="none" d="M195.792 100L195.792 135"/></g><g class="vf-notehead" id="vf-auto6327" pointer-events="bounding-box"><path stroke-width="1.5" stroke="none" d="M195.042 110L195.042 101L210.042 90L210.042 100L195.042 110Z"/></g></g><g class="vf-stavenote" id="vf-auto6329"><g class="vf-stem" id="vf-auto6330" pointer-events="bounding-box"><path stroke-width="1.5" fill="none" d="M96.555 65L96.555 30"/></g><g class="vf-notehead" id="vf-auto6333" pointer-events="bounding-box"><path stroke-width="1.5" fill="none" d="M81.555 75L81.555 66L96.555 55L96.555 65L81.555 75Z"/><path stroke="none" d="M78.812 60.349C79.086 60.239,79.305 59.911,79.305 59.692L79.305 56.874C79.305 56.683,79.168 56.573,79.004 56.573C78.949 56.573,78.894 56.573,78.812 56.6C78.812 56.6,78.019 56.929,77.827 56.956C77.554 56.956,77.28 56.765,77.28 56.464L77.28 51.648C77.28 51.402,77.034 51.211,76.733 51.211C76.35 51.211,76.103 51.402,76.103 51.648L76.103 56.765C76.049 57.148,75.939 57.668,75.584 57.914C75.118 58.187,73.778 58.735,73.094 58.899C72.766 58.899,72.629 58.434,72.629 58.105L72.629 53.372C72.629 53.153,72.355 52.934,72.082 52.934C71.698 52.934,71.452 53.153,71.452 53.372L71.452 58.707C71.452 59.254,71.206 59.637,70.987 59.747C70.741 59.884,69.947 60.185,69.947 60.185C69.674 60.267,69.482 60.595,69.482 60.814L69.482 63.632C69.482 63.851,69.592 63.988,69.838 63.988L69.92 63.933C69.947 63.933,70.549 63.687,70.85 63.55L70.905 63.495C71.206 63.495,71.452 63.906,71.452 64.207L71.452 68.119C71.452 68.557,71.261 68.912,71.014 69.022C70.796 69.104,69.947 69.46,69.947 69.46C69.674 69.542,69.482 69.843,69.482 70.089L69.482 72.88C69.482 73.126,69.592 73.235,69.838 73.235L69.92 73.208C69.947 73.208,70.495 72.962,70.85 72.852C70.905 72.798,70.932 72.798,70.987 72.798C71.261 72.798,71.452 73.235,71.452 73.427L71.452 78.27C71.452 78.516,71.698 78.707,71.972 78.707C72.355 78.707,72.629 78.516,72.629 78.27L72.629 72.798C72.629 72.278,72.82 72.004,73.039 71.922L75.419 70.937C75.419 70.937,75.474 70.937,75.474 70.937L75.556 70.91C75.912 70.91,76.103 71.375,76.103 71.621L76.103 76.546C76.103 76.792,76.35 76.984,76.623 76.984C77.034 76.984,77.28 76.792,77.28 76.546L77.28 70.937C77.28 70.636,77.444 70.171,77.718 70.034C77.991 69.925,78.812 69.596,78.812 69.596C79.086 69.487,79.305 69.186,79.305 68.94L79.305 66.149C79.305 65.958,79.168 65.821,79.004 65.821C78.949 65.821,78.894 65.821,78.812 65.876L77.8 66.259C77.554 66.259,77.28 66.012,77.28 65.547L77.28 61.881C77.28 61.607,77.471 60.869,77.8 60.732M76.103 66.778C75.857 67.572,74.024 68.338,73.094 68.338C72.875 68.338,72.683 68.283,72.629 68.146C72.547 67.982,72.519 67.134,72.519 66.176C72.519 64.973,72.547 63.577,72.629 63.276C72.711 62.592,74.517 61.772,75.502 61.772C75.775 61.772,76.021 61.854,76.103 62.018C76.186 62.209,76.268 63.194,76.268 64.261C76.268 65.328,76.186 66.423,76.103 66.778"/><path stroke="none" d="M104.305 65 A2 2 0 0 0 100.305 65 A2 2 0 0 0 104.305 65"/></g></g><g class="vf-stavenote" id="vf-auto6337"><g class="vf-stem" id="vf-auto6338" pointer-events="bounding-box"><path stroke-width="1.5" fill="none" d="M209.292 65L209.292 30"/></g><g class="vf-notehead" id="vf-auto6341" pointer-events="bounding-box"><path stroke-width="1.5" stroke="none" d="M195.042 75L195.042 66L210.042 55L210.042 65L195.042 75Z"/></g></g><g class="vf-stavenote" id="vf-auto6347"><g class="vf-stem" id="vf-auto6348" pointer-events="bounding-box"><path stroke-width="1.5" fill="none" d="M96.555 195L96.555 160"/></g><g class="vf-notehead" id="vf-auto6350" pointer-events="bounding-box"><path stroke-width="1.5" stroke="none" d="M82.305 205L82.305 196L97.305 185L97.305 195L82.305 205Z"/><path stroke="none" d="M78.812 190.349C79.086 190.239,79.305 189.911,79.305 189.692L79.305 186.874C79.305 186.683,79.168 186.573,79.004 186.573C78.949 186.573,78.894 186.573,78.812 186.6C78.812 186.6,78.019 186.929,77.827 186.956C77.554 186.956,77.28 186.765,77.28 186.464L77.28 181.648C77.28 181.402,77.034 181.211,76.733 181.211C76.35 181.211,76.103 181.402,76.103 181.648L76.103 186.765C76.049 187.148,75.939 187.668,75.584 187.914C75.118 188.187,73.778 188.735,73.094 188.899C72.766 188.899,72.629 188.434,72.629 188.105L72.629 183.372C72.629 183.153,72.355 182.934,72.082 182.934C71.698 182.934,71.452 183.153,71.452 183.372L71.452 188.707C71.452 189.254,71.206 189.637,70.987 189.747C70.741 189.884,69.947 190.185,69.947 190.185C69.674 190.267,69.482 190.595,69.482 190.814L69.482 193.632C69.482 193.851,69.592 193.988,69.838 193.988L69.92 193.933C69.947 193.933,70.549 193.687,70.85 193.55L70.905 193.495C71.206 193.495,71.452 193.906,71.452 194.207L71.452 198.119C71.452 198.557,71.261 198.912,71.014 199.022C70.796 199.104,69.947 199.46,69.947 199.46C69.674 199.542,69.482 199.843,69.482 200.089L69.482 202.88C69.482 203.126,69.592 203.235,69.838 203.235L69.92 203.208C69.947 203.208,70.495 202.962,70.85 202.852C70.905 202.798,70.932 202.798,70.987 202.798C71.261 202.798,71.452 203.235,71.452 203.427L71.452 208.27C71.452 208.516,71.698 208.707,71.972 208.707C72.355 208.707,72.629 208.516,72.629 208.27L72.629 202.798C72.629 202.278,72.82 202.004,73.039 201.922L75.419 200.937C75.419 200.937,75.474 200.937,75.474 200.937L75.556 200.91C75.912 200.91,76.103 201.375,76.103 201.621L76.103 206.546C76.103 206.792,76.35 206.984,76.623 206.984C77.034 206.984,77.28 206.792,77.28 206.546L77.28 200.937C77.28 200.636,77.444 200.171,77.718 200.034C77.991 199.925,78.812 199.596,78.812 199.596C79.086 199.487,79.305 199.186,79.305 198.94L79.305 196.149C79.305 195.958,79.168 195.821,79.004 195.821C78.949 195.821,78.894 195.821,78.812 195.876L77.8 196.259C77.554 196.259,77.28 196.012,77.28 195.547L77.28 191.881C77.28 191.607,77.471 190.869,77.8 190.732M76.103 196.778C75.857 197.572,74.024 198.338,73.094 198.338C72.875 198.338,72.683 198.283,72.629 198.146C72.547 197.982,72.519 197.134,72.519 196.176C72.519 194.973,72.547 193.577,72.629 193.276C72.711 192.592,74.517 191.772,75.502 191.772C75.775 191.772,76.021 191.854,76.103 192.018C76.186 192.209,76.268 193.194,76.268 194.261C76.268 195.328,76.186 196.423,76.103 196.778"/></g></g><g class="vf-stavenote" id="vf-auto6353"><g class="vf-stem" id="vf-auto6354" pointer-events="bounding-box"><path stroke-width="1.5" fill="none" d="M134.134 195L134.134 160"/></g><g class="vf-notehead" id="vf-auto6356" pointer-events="bounding-box"><path stroke-width="1.5" stroke="none" d="M119.884 205L119.884 196L134.884 185L134.884 195L119.884 205Z"/><path stroke="none" d="M115.817 187.859C115.735 187.859,115.707 187.914,115.652 187.914C115.652 187.914,113.135 188.817,112.123 188.817C111.877 188.817,111.713 188.762,111.713 188.625L111.713 182.031C111.713 181.758,111.494 181.566,111.248 181.566L110.728 181.566C110.454 181.566,110.263 181.758,110.263 182.031L110.263 202.332C110.263 202.551,110.372 202.688,110.618 202.688L110.7 202.633C110.728 202.633,110.81 202.633,110.864 202.606C111.412 202.36,113.6 201.43,114.75 201.43C115.16 201.43,115.434 201.539,115.434 201.867L115.434 207.722C115.434 207.996,115.625 208.188,115.899 208.188L116.419 208.188C116.637 208.188,116.884 207.996,116.884 207.722L116.884 187.941C116.884 187.75,116.72 187.64,116.555 187.64C116.528 187.64,116.446 187.64,116.419 187.668M111.713 193.468C111.713 192.921,114.12 191.881,115.078 191.881C115.297 191.881,115.434 191.936,115.434 192.072L115.434 196.149C115.434 196.86,113.19 197.763,112.205 197.763C111.904 197.763,111.713 197.681,111.713 197.517"/></g></g><g class="vf-stavenote" id="vf-auto6359"><g class="vf-stem" id="vf-auto6360" pointer-events="bounding-box"><path stroke-width="1.5" fill="none" d="M158.213 165L158.213 200"/></g><g class="vf-notehead" id="vf-auto6362" pointer-events="bounding-box"><path stroke-width="1.5" stroke="none" d="M157.463 175L157.463 166L172.463 155L172.463 165L157.463 175Z"/><path stroke="none" d="M146.036 171.703C146.173 171.867,146.282 171.895,146.392 171.895C146.528 171.895,146.638 171.813,146.638 171.813C147.814 171.156,148.772 170.089,149.757 169.405C153.259 166.97,154.463 164.562,154.463 162.756C154.463 160.513,152.739 159.09,150.933 158.981C150.249 158.981,149.319 159.282,148.772 159.637C148.526 159.829,148.088 160.185,147.896 160.185C147.814 160.185,147.787 160.185,147.705 160.157C147.431 160.048,147.267 159.747,147.267 159.473C147.295 158.625,147.541 149.159,147.541 148.365C147.541 147.927,147.185 147.708,146.802 147.708C146.227 147.708,145.598 148.092,145.571 148.803C145.571 148.803,145.735 171.293,146.036 171.703M147.431 168.201C147.431 168.201,147.295 165.821,147.295 164.261C147.295 163.632,147.349 163.14,147.377 163.003C147.65 162.209,149.237 161.06,150.14 161.06C151.289 161.06,151.754 162.373,151.754 163.358C151.754 165.465,149.948 167.599,148.252 168.666C148.088 168.748,147.979 168.776,147.869 168.776C147.513 168.776,147.431 168.393,147.431 168.201"/></g></g><g class="vf-stavenote" id="vf-auto6365"><g class="vf-stem" id="vf-auto6366" pointer-events="bounding-box"><path stroke-width="1.5" fill="none" d="M195.792 190L195.792 225"/></g><g class="vf-notehead" id="vf-auto6368" pointer-events="bounding-box"><path stroke-width="1.5" stroke="none" d="M195.042 200L195.042 191L210.042 180L210.042 190L195.042 200Z"/><path stroke="none" d="M189.798 191.259C189.361 191.012,187.938 190.246,187.938 189.973C187.938 189.398,189.224 188.824,189.798 188.632C189.826 188.632,189.853 188.632,189.908 188.632L190.154 188.659C190.619 188.659,191.358 188.577,191.768 188.276C191.96 188.057,192.042 187.483,192.042 186.854C192.042 185.239,191.905 184.993,190.291 184.993C189.58 184.993,188.868 185.075,188.677 185.267C188.54 185.404,188.485 186.088,188.485 186.799C188.294 187.237,187.664 188.659,187.199 188.659C186.625 188.659,185.995 187.373,185.859 186.799C185.859 186.142,185.722 185.431,185.53 185.267C185.366 185.075,184.737 184.993,184.108 184.993C183.451 184.993,182.74 185.075,182.493 185.267C182.384 185.349,182.302 186.033,182.302 186.717C182.302 187.428,182.384 188.14,182.493 188.276C182.767 188.495,183.478 188.659,184.162 188.659C184.299 188.659,184.436 188.632,184.545 188.632C184.983 188.851,186.406 189.644,186.406 189.918C186.406 190.438,185.147 191.067,184.6 191.259L184.19 191.259C183.478 191.259,182.74 191.341,182.493 191.532C182.384 191.642,182.302 192.326,182.302 193.037C182.302 193.748,182.384 194.46,182.493 194.542C182.767 194.761,183.396 194.925,184.08 194.925C184.655 194.925,185.284 194.815,185.53 194.542C185.777 194.323,185.859 193.666,185.859 193.037C185.859 192.982,185.886 192.928,185.913 192.873C186.16 192.326,186.625 191.231,187.145 191.231C187.664 191.231,188.321 192.49,188.485 193.037C188.485 193.748,188.54 194.405,188.677 194.542C188.95 194.761,189.58 194.925,190.264 194.925C191.768 194.925,192.042 194.542,192.042 193.119C192.042 192.435,191.905 191.724,191.768 191.532C191.55 191.341,190.838 191.259,190.182 191.259"/></g></g><path stroke="none" d="M5 44L10.184 44C16.808 42.762,22.741 39.68,24.411 32.768C24.44 32.595,24.44 32.48,24.44 32.336C24.44 32.019,24.325 31.846,24.123 31.76C23.749 31.76,23.288 32.048,23.086 32.336C22.654 32.797,17.442 38.269,9.522 38.845L5.346 38.845C5.086 38.845,5 38.902,5 39.162"/><path stroke="none" d="M5 221.838C5 222.098,5.086 222.155,5.346 222.155L9.522 222.155C17.442 222.731,22.654 228.203,23.086 228.664C23.288 228.952,23.749 229.24,24.123 229.24C24.325 229.154,24.44 228.981,24.44 228.664C24.44 228.52,24.44 228.405,24.411 228.232C22.741 221.32,16.808 218.238,10.184 217L5 217"/><rect x="5" y="44" width="3" height="173" stroke="none"/></svg>