<svg xmlns="http://www.w3.org/2000/svg" stroke-width="0.3" stroke-dasharray="none" fill="black" stroke="black" font-family="Arial, sans-serif" font-size="10pt" font-weight="normal" font-style="normal" width="725" height="200" viewBox="0 0 725 200" style="width: 725px; height: 200px; border: none;"><g class="vf-stave" id="vf-auto21417" stroke-width="1" fill="#999999" stroke="#999999"><path fill="none" d="M10 90L160 90"/><path fill="none" d="M10 100L160 100"/><path fill="none" d="M10 110L160 110"/><path fill="none" d="M10 120L160 120"/><path fill="none" d="M10 130L160 130"/></g><g class="vf-stavebarline" id="vf-auto21418"><rect x="10" y="89.5" width="1" height="41" stroke="none"/></g><g class="vf-stavebarline" id="vf-auto21419"><rect x="160" y="89.5" width="1" height="41" stroke="none"/></g><g class="vf-clef" id="vf-auto21420"><path stroke="none" d="M23.693 141.402C23.87 141.402,24.048 141.377,24.276 141.301C24.707 141.148,25.062 140.92,25.366 140.591C28.382 137.423,29.623 133.596,29.75 129.313C29.75 128.983,29.776 128.451,29.776 128.451C29.776 128.451,30.282 128.147,30.511 128.071C31.727 127.488,32.893 126.829,33.932 125.993C36.72 123.762,38.316 120.747,39.051 117.376C39.204 116.844,39.229 116.286,39.229 115.779C39.229 113.473,37.962 111.8,35.047 111.268C34.312 111.116,33.577 111.04,32.842 111.04C31.017 111.04,29.269 111.521,27.621 112.484C27.419 112.611,27.19 112.763,27.19 112.763L26.253 109.215C26.202 109.038,26.202 108.708,26.202 108.708C26.202 108.708,29.928 102.093,30.434 98.697C30.612 97.709,30.688 96.72,30.688 95.757C30.688 94.972,30.663 94.237,30.536 93.527C30.181 90.891,29.193 88.408,28.534 85.848C28.356 85.088,28.103 84.175,27.216 84.175C26.557 84.175,26.101 84.809,25.695 85.341C23.82 87.926,22.907 90.891,22.73 94.059C22.705 94.566,22.705 95.098,22.705 95.605C22.705 98.545,23.186 101.51,23.566 104.425C23.566 104.653,23.642 104.881,23.693 105.059C22.046 107.39,20.221 109.57,18.65 111.978C17.56 113.701,16.343 115.424,15.583 117.35C15.177 118.288,15 119.403,15 120.493C15 122.749,15.76 125.055,17.078 126.322C17.839 127.057,19.055 127.868,20.246 128.299C21.944 128.907,23.617 129.313,25.391 129.313C25.923 129.313,26.455 129.287,27.013 129.211L27.444 129.135C27.444 129.135,27.469 129.465,27.444 129.642C27.038 131.847,26.506 134.001,25.188 135.826C24.479 136.764,23.82 137.828,22.451 137.93C22.046 137.98,21.868 138.234,21.868 138.563C21.868 138.69,21.894 138.817,21.944 138.944C22.147 139.501,22.4 140.084,22.654 140.642C22.882 141.148,23.237 141.402,23.693 141.402M25.138 102.828C24.859 101.08,24.681 99.356,24.681 97.633C24.681 94.465,25.34 91.373,27.19 88.408C27.621 89.751,27.849 91.119,27.849 92.488C27.849 93.198,27.773 93.933,27.672 94.642C27.19 97.506,26.532 100.269,25.138 102.828M21.387 124.421C20.88 124.396,20.449 124.219,19.967 124.067C19.004 123.737,18.219 123.382,17.965 122.749C17.839 122.47,17.813 122.14,17.813 121.811C17.813 121.406,17.889 120.975,17.965 120.518C17.991 120.316,18.219 119.682,18.295 119.581C19.714 117.046,21.412 114.765,23.211 112.459L24.732 110.457L25.011 111.268C25.29 112.18,25.543 113.625,25.543 113.625C25.543 113.625,24.529 114.943,23.87 115.602C22.046 117.376,21.159 119.606,21.159 122.064C21.159 122.673,21.235 123.306,21.361 123.965C21.387 124.092,21.387 124.219,21.387 124.421M29.269 123.306C28.99 120.924,28.432 119.023,27.925 116.742C27.875 116.463,27.875 116.286,28.001 116.134C28.939 115.957,29.852 115.881,30.815 115.881C31.727 115.881,32.589 115.957,33.501 116.134C34.591 116.362,35.681 116.539,36.542 117.426C36.593 117.503,36.669 117.579,36.745 117.604C35.301 120.518,33.146 122.723,30.08 124.067L29.421 124.32M25.391 125.055C24.124 125.055,22.882 124.726,22.882 124.726C22.882 124.726,22.781 124.219,22.781 123.484C22.781 123.002,22.806 122.419,22.958 121.836C23.313 120.088,24.555 118.846,25.873 117.68C25.974 117.579,26.101 117.503,26.177 117.503C26.303 117.503,26.354 117.655,26.379 117.908C26.709 120.062,27.266 122.166,27.419 124.32C27.444 124.548,27.419 124.878,27.419 124.878C27.419 124.878,26.455 125.131,25.391 125.055"/></g><text stroke="none" font-family="Times New Roman, serif" font-size="12pt" font-weight="bold" x="75.875" y="60">D.S. al Fine</text><text stroke="none" font-size="8pt" x="7.031" y="83">1</text><g class="vf-stavenote" id="vf-auto21422"><g class="vf-stem" id="vf-auto21423" pointer-events="bounding-box"><path stroke-width="1.5" fill="none" d="M63.987 113L63.987 80"/></g><g class="vf-notehead" id="vf-auto21425" pointer-events="bounding-box"><path stroke="none" d="M54.374 121.543C54.655 121.599,54.907 121.627,55.188 121.627C59.063 121.627,64.848 116.348,64.735 112.08C64.623 111.041,64.651 109.609,62.545 108.766C61.955 108.485,61.31 108.373,60.608 108.373C56.283 108.373,51.594 113.343,51.257 116.657C51.257 116.909,51.229 117.134,51.229 117.387C51.229 119.409,52.127 121.037,54.374 121.543"/></g></g><g class="vf-stavenote" id="vf-auto21426"><g class="vf-stem" id="vf-auto21427" pointer-events="bounding-box"><path stroke-width="1.5" fill="none" d="M88.757 123L88.757 90"/></g><g class="vf-notehead" id="vf-auto21429" pointer-events="bounding-box"><path stroke="none" d="M79.144 131.543C79.424 131.599,79.677 131.627,79.958 131.627C83.833 131.627,89.617 126.348,89.505 122.08C89.393 121.041,89.421 119.609,87.315 118.766C86.725 118.485,86.079 118.373,85.377 118.373C81.053 118.373,76.364 123.343,76.027 126.657C76.027 126.909,75.999 127.134,75.999 127.387C75.999 129.409,76.897 131.037,79.144 131.543"/></g></g><g class="vf-stavenote" id="vf-auto21430"><g class="vf-stem" id="vf-auto21431" pointer-events="bounding-box"><path stroke-width="1.5" fill="none" d="M113.526 123L113.526 90"/></g><g class="vf-notehead" id="vf-auto21433" pointer-events="bounding-box"><path stroke="none" d="M103.913 131.543C104.194 131.599,104.447 131.627,104.728 131.627C108.603 131.627,114.387 126.348,114.275 122.08C114.162 121.041,114.191 119.609,112.085 118.766C111.495 118.485,110.849 118.373,110.147 118.373C105.823 118.373,101.133 123.343,100.796 126.657C100.796 126.909,100.768 127.134,100.768 127.387C100.768 129.409,101.667 131.037,103.913 131.543"/></g></g><g class="vf-stavenote" id="vf-auto21434"><g class="vf-stem" id="vf-auto21435" pointer-events="bounding-box"><path stroke-width="1.5" fill="none" d="M138.296 113L138.296 80"/></g><g class="vf-notehead" id="vf-auto21437" pointer-events="bounding-box"><path stroke="none" d="M128.683 121.543C128.964 121.599,129.216 121.627,129.497 121.627C133.372 121.627,139.157 116.348,139.044 112.08C138.932 111.041,138.96 109.609,136.854 108.766C136.265 108.485,135.619 108.373,134.917 108.373C130.592 108.373,125.903 113.343,125.566 116.657C125.566 116.909,125.538 117.134,125.538 117.387C125.538 119.409,126.437 121.037,128.683 121.543"/></g></g><g class="vf-stave" id="vf-auto21439" stroke-width="1" fill="#999999" stroke="#999999"><path fill="none" d="M160 90L310 90"/><path fill="none" d="M160 100L310 100"/><path fill="none" d="M160 110L310 110"/><path fill="none" d="M160 120L310 120"/><path fill="none" d="M160 130L310 130"/></g><g class="vf-stavebarline" id="vf-auto21440"><rect x="160" y="89.5" width="1" height="41" stroke="none"/></g><g class="vf-stavebarline" id="vf-auto21441"><rect x="310" y="89.5" width="1" height="41" stroke="none"/></g><path stroke="none" d="M307.803 67.061C308.048 67.061,308.163 66.758,308.221 66.528C308.264 66.341,308.264 66.125,308.264 65.923C308.264 64.901,308.278 63.893,308.307 62.87C310.165 62.683,311.763 61.834,313.016 60.206C314.125 58.709,314.773 57.024,315.046 55.181C315.046 55.123,315.061 55.051,315.061 54.994C316.846 54.979,318.632 54.95,320.418 54.95C320.648 54.95,320.95 54.806,321.08 54.619C321.368 54.23,321.613 53.813,321.613 53.294C321.613 53.194,321.598 53.064,321.57 52.949C321.411 52.949,321.238 52.92,321.08 52.92L320.95 52.92L315.248 52.978C315.248 52.589,315.19 52.214,315.104 51.826C314.269 48.658,312.094 47.059,308.883 46.973C308.782 46.944,308.653 46.944,308.552 46.944C308.552 45.95,308.552 44.957,308.566 43.963C308.595 43.258,308.566 42.581,308.538 41.875C308.538 41.746,308.552 41.501,308.278 41.501L308.264 41.501C308.034 41.544,307.846 41.616,307.803 41.875C307.76 42.178,307.688 42.494,307.688 42.797C307.688 44.208,307.659 45.605,307.645 47.016L306.853 47.074C304.635 47.347,302.662 48.096,301.194 49.838C300.344 50.846,299.797 51.97,299.494 53.165L295.318 53.237C295.131 53.237,294.901 53.208,294.699 53.208C294.454 53.208,294.238 53.237,294.138 53.352C293.691 53.842,293.418 54.475,293 55.166L293.533 55.166L299.178 55.094C299.163 55.238,299.163 55.397,299.163 55.541C299.163 56.736,299.595 57.816,300.027 58.896C300.574 60.235,301.539 61.214,302.806 61.834C303.987 62.424,305.298 62.726,306.622 62.87C306.91 62.899,307.227 62.914,307.515 62.914C307.515 63.605,307.472 64.282,307.472 64.973C307.472 65.491,307.472 66.01,307.573 66.499C307.616 66.715,307.558 67.061,307.803 67.061M308.466 53.064C308.509 51.883,308.509 50.731,308.538 49.536C309.79 49.579,311 49.91,312.094 50.688C312.944 51.278,313.534 52.07,313.822 53.006C312.973 53.006,312.123 53.021,311.274 53.021C310.338 53.021,309.402 53.05,308.466 53.064M301.309 53.15C301.899 52.013,302.763 51.077,304.03 50.414C305.053 49.867,306.147 49.709,307.242 49.579C307.371 49.579,307.501 49.565,307.616 49.565C307.616 50.098,307.602 50.616,307.602 51.163C307.573 51.61,307.573 52.301,307.558 53.093M308.365 60.35C308.408 58.579,308.379 56.822,308.422 55.037C310.194 55.037,311.95 55.022,313.722 54.994C313.722 55.022,313.693 55.022,313.693 55.022C313.347 56.117,312.973 57.211,312.31 58.147C311.518 59.242,310.438 59.947,309.114 60.235C308.869 60.278,308.61 60.322,308.365 60.35M307.515 60.408C305.758 60.394,304.088 59.947,302.504 59.198C301.208 58.608,300.546 57.614,300.546 56.218C300.546 55.973,300.574 55.728,300.603 55.454L300.675 55.094C301.914 55.08,303.166 55.08,304.405 55.051C305.456 55.037,306.493 55.051,307.53 55.037C307.53 56.837,307.515 58.853,307.515 60.408"/><text stroke="none" font-family="Times New Roman, serif" font-size="12pt" font-weight="bold" x="270.797" y="60">To</text><text stroke="none" font-size="8pt" x="157.031" y="83">2</text><g class="vf-stavenote" id="vf-auto21443"><g class="vf-stem" id="vf-auto21444" pointer-events="bounding-box"><path stroke-width="1.5" fill="none" d="M189.758 113L189.758 80"/></g><g class="vf-notehead" id="vf-auto21446" pointer-events="bounding-box"><path stroke="none" d="M180.145 121.543C180.426 121.599,180.678 121.627,180.959 121.627C184.834 121.627,190.619 116.348,190.506 112.08C190.394 111.041,190.422 109.609,188.316 108.766C187.727 108.485,187.081 108.373,186.379 108.373C182.054 108.373,177.365 113.343,177.028 116.657C177.028 116.909,177 117.134,177 117.387C177 119.409,177.899 121.037,180.145 121.543"/></g></g><g class="vf-stavenote" id="vf-auto21447"><g class="vf-stem" id="vf-auto21448" pointer-events="bounding-box"><path stroke-width="1.5" fill="none" d="M222.099 123L222.099 90"/></g><g class="vf-notehead" id="vf-auto21450" pointer-events="bounding-box"><path stroke="none" d="M212.486 131.543C212.767 131.599,213.02 131.627,213.301 131.627C217.176 131.627,222.96 126.348,222.848 122.08C222.735 121.041,222.763 119.609,220.657 118.766C220.068 118.485,219.422 118.373,218.72 118.373C214.396 118.373,209.706 123.343,209.369 126.657C209.369 126.909,209.341 127.134,209.341 127.387C209.341 129.409,210.24 131.037,212.486 131.543"/></g></g><g class="vf-stavenote" id="vf-auto21451"><g class="vf-stem" id="vf-auto21452" pointer-events="bounding-box"><path stroke-width="1.5" fill="none" d="M254.441 123L254.441 90"/></g><g class="vf-notehead" id="vf-auto21454" pointer-events="bounding-box"><path stroke="none" d="M244.827 131.543C245.108 131.599,245.361 131.627,245.642 131.627C249.517 131.627,255.301 126.348,255.189 122.08C255.077 121.041,255.105 119.609,252.999 118.766C252.409 118.485,251.763 118.373,251.061 118.373C246.737 118.373,242.047 123.343,241.711 126.657C241.711 126.909,241.682 127.134,241.682 127.387C241.682 129.409,242.581 131.037,244.827 131.543"/></g></g><g class="vf-stavenote" id="vf-auto21455"><g class="vf-stem" id="vf-auto21456" pointer-events="bounding-box"><path stroke-width="1.5" fill="none" d="M286.782 113L286.782 80"/></g><g class="vf-notehead" id="vf-auto21458" pointer-events="bounding-box"><path stroke="none" d="M277.169 121.543C277.449 121.599,277.702 121.627,277.983 121.627C281.858 121.627,287.642 116.348,287.53 112.08C287.418 111.041,287.446 109.609,285.34 108.766C284.75 108.485,284.104 108.373,283.402 108.373C279.078 108.373,274.389 113.343,274.052 116.657C274.052 116.909,274.024 117.134,274.024 117.387C274.024 119.409,274.922 121.037,277.169 121.543"/></g></g><g class="vf-stave" id="vf-auto21460" stroke-width="1" fill="#999999" stroke="#999999"><path fill="none" d="M310 90L460 90"/><path fill="none" d="M310 100L460 100"/><path fill="none" d="M310 110L460 110"/><path fill="none" d="M310 120L460 120"/><path fill="none" d="M310 130L460 130"/></g><g class="vf-stavebarline" id="vf-auto21461"><rect x="310" y="89.5" width="1" height="41" stroke="none"/></g><g class="vf-stavebarline" id="vf-auto21462"><rect x="460" y="89.5" width="1" height="41" stroke="none"/></g><path stroke="none" d="M457.803 67.061C458.048 67.061,458.163 66.758,458.221 66.528C458.264 66.341,458.264 66.125,458.264 65.923C458.264 64.901,458.278 63.893,458.307 62.87C460.165 62.683,461.763 61.834,463.016 60.206C464.125 58.709,464.773 57.024,465.046 55.181C465.046 55.123,465.061 55.051,465.061 54.994C466.846 54.979,468.632 54.95,470.418 54.95C470.648 54.95,470.95 54.806,471.08 54.619C471.368 54.23,471.613 53.813,471.613 53.294C471.613 53.194,471.598 53.064,471.57 52.949C471.411 52.949,471.238 52.92,471.08 52.92L470.95 52.92L465.248 52.978C465.248 52.589,465.19 52.214,465.104 51.826C464.269 48.658,462.094 47.059,458.883 46.973C458.782 46.944,458.653 46.944,458.552 46.944C458.552 45.95,458.552 44.957,458.566 43.963C458.595 43.258,458.566 42.581,458.538 41.875C458.538 41.746,458.552 41.501,458.278 41.501L458.264 41.501C458.034 41.544,457.846 41.616,457.803 41.875C457.76 42.178,457.688 42.494,457.688 42.797C457.688 44.208,457.659 45.605,457.645 47.016L456.853 47.074C454.635 47.347,452.662 48.096,451.194 49.838C450.344 50.846,449.797 51.97,449.494 53.165L445.318 53.237C445.131 53.237,444.901 53.208,444.699 53.208C444.454 53.208,444.238 53.237,444.138 53.352C443.691 53.842,443.418 54.475,443 55.166L443.533 55.166L449.178 55.094C449.163 55.238,449.163 55.397,449.163 55.541C449.163 56.736,449.595 57.816,450.027 58.896C450.574 60.235,451.539 61.214,452.806 61.834C453.987 62.424,455.298 62.726,456.622 62.87C456.91 62.899,457.227 62.914,457.515 62.914C457.515 63.605,457.472 64.282,457.472 64.973C457.472 65.491,457.472 66.01,457.573 66.499C457.616 66.715,457.558 67.061,457.803 67.061M458.466 53.064C458.509 51.883,458.509 50.731,458.538 49.536C459.79 49.579,461 49.91,462.094 50.688C462.944 51.278,463.534 52.07,463.822 53.006C462.973 53.006,462.123 53.021,461.274 53.021C460.338 53.021,459.402 53.05,458.466 53.064M451.309 53.15C451.899 52.013,452.763 51.077,454.03 50.414C455.053 49.867,456.147 49.709,457.242 49.579C457.371 49.579,457.501 49.565,457.616 49.565C457.616 50.098,457.602 50.616,457.602 51.163C457.573 51.61,457.573 52.301,457.558 53.093M458.365 60.35C458.408 58.579,458.379 56.822,458.422 55.037C460.194 55.037,461.95 55.022,463.722 54.994C463.722 55.022,463.693 55.022,463.693 55.022C463.347 56.117,462.973 57.211,462.31 58.147C461.518 59.242,460.438 59.947,459.114 60.235C458.869 60.278,458.61 60.322,458.365 60.35M457.515 60.408C455.758 60.394,454.088 59.947,452.504 59.198C451.208 58.608,450.546 57.614,450.546 56.218C450.546 55.973,450.574 55.728,450.603 55.454L450.675 55.094C451.914 55.08,453.166 55.08,454.405 55.051C455.456 55.037,456.493 55.051,457.53 55.037C457.53 56.837,457.515 58.853,457.515 60.408"/><text stroke="none" font-family="Times New Roman, serif" font-size="12pt" font-weight="bold" x="393.094" y="60">D.S. al</text><text stroke="none" font-size="8pt" x="307.031" y="83">3</text><g class="vf-stavenote" id="vf-auto21464"><g class="vf-stem" id="vf-auto21465" pointer-events="bounding-box"><path stroke-width="1.5" fill="none" d="M339.758 113L339.758 80"/></g><g class="vf-notehead" id="vf-auto21467" pointer-events="bounding-box"><path stroke="none" d="M330.145 121.543C330.426 121.599,330.678 121.627,330.959 121.627C334.834 121.627,340.619 116.348,340.506 112.08C340.394 111.041,340.422 109.609,338.316 108.766C337.727 108.485,337.081 108.373,336.379 108.373C332.054 108.373,327.365 113.343,327.028 116.657C327.028 116.909,327 117.134,327 117.387C327 119.409,327.899 121.037,330.145 121.543"/></g></g><g class="vf-stavenote" id="vf-auto21468"><g class="vf-stem" id="vf-auto21469" pointer-events="bounding-box"><path stroke-width="1.5" fill="none" d="M372.099 123L372.099 90"/></g><g class="vf-notehead" id="vf-auto21471" pointer-events="bounding-box"><path stroke="none" d="M362.486 131.543C362.767 131.599,363.02 131.627,363.301 131.627C367.176 131.627,372.96 126.348,372.848 122.08C372.735 121.041,372.763 119.609,370.657 118.766C370.068 118.485,369.422 118.373,368.72 118.373C364.396 118.373,359.706 123.343,359.369 126.657C359.369 126.909,359.341 127.134,359.341 127.387C359.341 129.409,360.24 131.037,362.486 131.543"/></g></g><g class="vf-stavenote" id="vf-auto21472"><g class="vf-stem" id="vf-auto21473" pointer-events="bounding-box"><path stroke-width="1.5" fill="none" d="M404.441 123L404.441 90"/></g><g class="vf-notehead" id="vf-auto21475" pointer-events="bounding-box"><path stroke="none" d="M394.827 131.543C395.108 131.599,395.361 131.627,395.642 131.627C399.517 131.627,405.301 126.348,405.189 122.08C405.077 121.041,405.105 119.609,402.999 118.766C402.409 118.485,401.763 118.373,401.061 118.373C396.737 118.373,392.047 123.343,391.711 126.657C391.711 126.909,391.682 127.134,391.682 127.387C391.682 129.409,392.581 131.037,394.827 131.543"/></g></g><g class="vf-stavenote" id="vf-auto21476"><g class="vf-stem" id="vf-auto21477" pointer-events="bounding-box"><path stroke-width="1.5" fill="none" d="M436.782 113L436.782 80"/></g><g class="vf-notehead" id="vf-auto21479" pointer-events="bounding-box"><path stroke="none" d="M427.169 121.543C427.449 121.599,427.702 121.627,427.983 121.627C431.858 121.627,437.642 116.348,437.53 112.08C437.418 111.041,437.446 109.609,435.34 108.766C434.75 108.485,434.104 108.373,433.402 108.373C429.078 108.373,424.389 113.343,424.052 116.657C424.052 116.909,424.024 117.134,424.024 117.387C424.024 119.409,424.922 121.037,427.169 121.543"/></g></g><g class="vf-stave" id="vf-auto21481" stroke-width="1" fill="#999999" stroke="#999999"><path fill="none" d="M460 90L610 90"/><path fill="none" d="M460 100L610 100"/><path fill="none" d="M460 110L610 110"/><path fill="none" d="M460 120L610 120"/><path fill="none" d="M460 130L610 130"/></g><g class="vf-stavebarline" id="vf-auto21482"><rect x="460" y="89.5" width="1" height="41" stroke="none"/></g><g class="vf-stavebarline" id="vf-auto21483"><rect x="610" y="89.5" width="1" height="41" stroke="none"/></g><path stroke="none" d="M526.256 67.061C526.501 67.061,526.616 66.758,526.674 66.528C526.717 66.341,526.717 66.125,526.717 65.923C526.717 64.901,526.732 63.893,526.76 62.87C528.618 62.683,530.216 61.834,531.469 60.206C532.578 58.709,533.226 57.024,533.5 55.181C533.5 55.123,533.514 55.051,533.514 54.994C535.3 54.979,537.085 54.95,538.871 54.95C539.101 54.95,539.404 54.806,539.533 54.619C539.821 54.23,540.066 53.813,540.066 53.294C540.066 53.194,540.052 53.064,540.023 52.949C539.864 52.949,539.692 52.92,539.533 52.92L539.404 52.92L533.701 52.978C533.701 52.589,533.644 52.214,533.557 51.826C532.722 48.658,530.548 47.059,527.336 46.973C527.236 46.944,527.106 46.944,527.005 46.944C527.005 45.95,527.005 44.957,527.02 43.963C527.048 43.258,527.02 42.581,526.991 41.875C526.991 41.746,527.005 41.501,526.732 41.501L526.717 41.501C526.487 41.544,526.3 41.616,526.256 41.875C526.213 42.178,526.141 42.494,526.141 42.797C526.141 44.208,526.112 45.605,526.098 47.016L525.306 47.074C523.088 47.347,521.116 48.096,519.647 49.838C518.797 50.846,518.25 51.97,517.948 53.165L513.772 53.237C513.584 53.237,513.354 53.208,513.152 53.208C512.908 53.208,512.692 53.237,512.591 53.352C512.144 53.842,511.871 54.475,511.453 55.166L511.986 55.166L517.631 55.094C517.616 55.238,517.616 55.397,517.616 55.541C517.616 56.736,518.048 57.816,518.48 58.896C519.028 60.235,519.992 61.214,521.26 61.834C522.44 62.424,523.751 62.726,525.076 62.87C525.364 62.899,525.68 62.914,525.968 62.914C525.968 63.605,525.925 64.282,525.925 64.973C525.925 65.491,525.925 66.01,526.026 66.499C526.069 66.715,526.012 67.061,526.256 67.061M526.919 53.064C526.962 51.883,526.962 50.731,526.991 49.536C528.244 49.579,529.453 49.91,530.548 50.688C531.397 51.278,531.988 52.07,532.276 53.006C531.426 53.006,530.576 53.021,529.727 53.021C528.791 53.021,527.855 53.05,526.919 53.064M519.762 53.15C520.352 52.013,521.216 51.077,522.484 50.414C523.506 49.867,524.6 49.709,525.695 49.579C525.824 49.579,525.954 49.565,526.069 49.565C526.069 50.098,526.055 50.616,526.055 51.163C526.026 51.61,526.026 52.301,526.012 53.093M526.818 60.35C526.861 58.579,526.832 56.822,526.876 55.037C528.647 55.037,530.404 55.022,532.175 54.994C532.175 55.022,532.146 55.022,532.146 55.022C531.8 56.117,531.426 57.211,530.764 58.147C529.972 59.242,528.892 59.947,527.567 60.235C527.322 60.278,527.063 60.322,526.818 60.35M525.968 60.408C524.212 60.394,522.541 59.947,520.957 59.198C519.661 58.608,518.999 57.614,518.999 56.218C518.999 55.973,519.028 55.728,519.056 55.454L519.128 55.094C520.367 55.08,521.62 55.08,522.858 55.051C523.909 55.037,524.946 55.051,525.983 55.037C525.983 56.837,525.968 58.853,525.968 60.408"/><text stroke="none" font-family="Times New Roman, serif" font-size="12pt" font-weight="bold" x="470" y="60">Coda</text><text stroke="none" font-size="8pt" x="457.031" y="83">4</text><g class="vf-stavenote" id="vf-auto21485"><g class="vf-stem" id="vf-auto21486" pointer-events="bounding-box"><path stroke-width="1.5" fill="none" d="M489.758 113L489.758 80"/></g><g class="vf-notehead" id="vf-auto21488" pointer-events="bounding-box"><path stroke="none" d="M480.145 121.543C480.426 121.599,480.678 121.627,480.959 121.627C484.834 121.627,490.619 116.348,490.506 112.08C490.394 111.041,490.422 109.609,488.316 108.766C487.727 108.485,487.081 108.373,486.379 108.373C482.054 108.373,477.365 113.343,477.028 116.657C477.028 116.909,477 117.134,477 117.387C477 119.409,477.899 121.037,480.145 121.543"/></g></g><g class="vf-stavenote" id="vf-auto21489"><g class="vf-stem" id="vf-auto21490" pointer-events="bounding-box"><path stroke-width="1.5" fill="none" d="M522.099 123L522.099 90"/></g><g class="vf-notehead" id="vf-auto21492" pointer-events="bounding-box"><path stroke="none" d="M512.486 131.543C512.767 131.599,513.02 131.627,513.301 131.627C517.176 131.627,522.96 126.348,522.848 122.08C522.735 121.041,522.763 119.609,520.657 118.766C520.068 118.485,519.422 118.373,518.72 118.373C514.396 118.373,509.706 123.343,509.369 126.657C509.369 126.909,509.341 127.134,509.341 127.387C509.341 129.409,510.24 131.037,512.486 131.543"/></g></g><g class="vf-stavenote" id="vf-auto21493"><g class="vf-stem" id="vf-auto21494" pointer-events="bounding-box"><path stroke-width="1.5" fill="none" d="M554.441 123L554.441 90"/></g><g class="vf-notehead" id="vf-auto21496" pointer-events="bounding-box"><path stroke="none" d="M544.827 131.543C545.108 131.599,545.361 131.627,545.642 131.627C549.517 131.627,555.301 126.348,555.189 122.08C555.077 121.041,555.105 119.609,552.999 118.766C552.409 118.485,551.763 118.373,551.061 118.373C546.737 118.373,542.047 123.343,541.711 126.657C541.711 126.909,541.682 127.134,541.682 127.387C541.682 129.409,542.581 131.037,544.827 131.543"/></g></g><g class="vf-stavenote" id="vf-auto21497"><g class="vf-stem" id="vf-auto21498" pointer-events="bounding-box"><path stroke-width="1.5" fill="none" d="M586.782 113L586.782 80"/></g><g class="vf-notehead" id="vf-auto21500" pointer-events="bounding-box"><path stroke="none" d="M577.169 121.543C577.449 121.599,577.702 121.627,577.983 121.627C581.858 121.627,587.642 116.348,587.53 112.08C587.418 111.041,587.446 109.609,585.34 108.766C584.75 108.485,584.104 108.373,583.402 108.373C579.078 108.373,574.389 113.343,574.052 116.657C574.052 116.909,574.024 117.134,574.024 117.387C574.024 119.409,574.922 121.037,577.169 121.543"/></g></g></svg>