<svg xmlns="http://www.w3.org/2000/svg" stroke-width="0.3" stroke-dasharray="none" fill="black" stroke="black" font-family="Arial, sans-serif" font-size="10pt" font-weight="normal" font-style="normal" width="400" height="160" viewBox="0 0 400 160" style="width: 400px; height: 160px; border: none;"><g class="vf-stave" id="vf-auto41106" stroke-width="1" fill="#999999" stroke="#999999"><path fill="none" d="M10 50L360 50"/><path fill="none" d="M10 60L360 60"/><path fill="none" d="M10 70L360 70"/><path fill="none" d="M10 80L360 80"/><path fill="none" d="M10 90L360 90"/></g><g class="vf-stavebarline" id="vf-auto41107"><rect x="10" y="49.5" width="1" height="41" stroke="none"/></g><g class="vf-stavebarline" id="vf-auto41108"><rect x="360" y="49.5" width="1" height="41" stroke="none"/></g><g class="vf-clef" id="vf-auto41109"><path stroke="none" d="M29.112 37.837C29.112 37.837,29.141 37.837,29.17 37.837C29.544 37.837,30.034 38.211,30.667 38.96C32.942 41.696,34.44 46.045,34.44 49.731C34.44 49.99,34.44 50.278,34.411 50.538C34.152 54.829,32.28 58.515,28.68 61.942C28.363 62.259,27.902 62.691,27.701 62.864L27.355 63.238L28.075 66.608C28.478 68.48,28.795 70.006,28.795 70.006C28.795 70.006,28.795 70.006,28.795 70.006C28.824 70.006,28.939 69.978,29.026 69.978C29.198 69.949,29.659 69.949,30.12 69.949C30.466 69.949,30.84 69.949,30.984 69.949C35.592 70.525,38.962 74.125,39.278 78.79C39.307 78.992,39.307 79.194,39.307 79.395C39.307 83.254,36.802 86.941,33.029 88.554C32.885 88.611,32.798 88.669,32.798 88.669C32.798 88.669,33 89.677,33.259 90.886C33.518 92.125,33.778 93.306,33.806 93.536C33.979 94.458,34.066 95.322,34.066 96.157C34.066 98.317,33.49 100.131,32.395 101.542C30.754 103.587,28.392 104.624,26.03 104.624C23.726 104.624,21.422 103.674,19.752 101.773C19.061 100.966,18.686 100.016,18.686 99.037C18.686 98.202,18.974 97.338,19.55 96.56C20.386 95.437,21.624 94.89,22.862 94.89C24.014 94.89,25.166 95.379,25.973 96.358C26.549 97.107,26.808 97.942,26.808 98.778C26.808 100.678,25.397 102.493,23.237 102.579L22.978 102.579L23.064 102.637C23.928 103.069,24.936 103.299,25.973 103.299C27.24 103.299,28.565 102.954,29.602 102.291C31.704 100.966,32.741 98.922,32.741 96.157C32.741 95.264,32.626 94.285,32.424 93.248C32.338 92.758,31.531 89.101,31.531 89.101C31.531 89.101,31.531 89.101,31.531 89.101C31.502 89.101,31.358 89.13,31.186 89.158C30.667 89.302,30.12 89.389,29.515 89.446C29.314 89.475,28.91 89.475,28.478 89.475C27.931 89.475,27.384 89.475,27.154 89.446C20.126 88.669,15 82.995,15 75.968C15 72.858,15.893 70.15,17.765 67.558C19.752 64.794,21.768 62.403,24.245 59.898L25.109 59.034L24.734 57.306C24.533 56.326,24.331 55.318,24.245 55.03C23.899 53.389,23.726 52.582,23.669 52.266C23.525 51.373,23.467 50.48,23.467 49.587C23.467 45.469,25.022 41.552,27.902 38.758C28.565 38.125,28.91 37.866,29.112 37.837M31.013 43.482C30.84 43.453,30.696 43.424,30.523 43.424C29.688 43.424,28.68 43.942,27.73 44.893C26.088 46.534,25.195 49.011,25.195 51.718C25.195 52.41,25.253 53.101,25.368 53.821C25.426 54.138,26.203 57.968,26.232 57.968C26.232 57.968,26.232 57.968,26.232 57.968C26.261 57.968,27.182 57.018,27.442 56.73C30.638 53.187,32.453 49.357,32.453 46.362C32.453 45.872,32.395 45.411,32.309 44.95C32.107 44.086,31.733 43.654,31.013 43.482M26.318 64.707C26.29 64.534,26.261 64.39,26.261 64.39C26.146 64.39,23.87 67.04,22.834 68.336C20.702 71.043,19.925 72.31,19.32 74.038C18.888 75.363,18.658 76.688,18.658 77.984C18.658 80.317,19.349 82.534,20.674 84.406C22.517 86.998,25.426 88.496,28.421 88.496C28.91 88.496,29.4 88.467,29.89 88.381C30.408 88.294,31.301 88.064,31.301 88.006C31.301 87.978,30.955 86.394,30.552 84.435C30.12 82.506,29.486 79.51,29.112 77.811C28.766 76.112,28.45 74.701,28.45 74.701C28.45 74.701,28.45 74.701,28.45 74.701C28.334 74.701,27.701 74.96,27.355 75.133C25.598 76.112,24.677 77.84,24.677 79.568C24.677 81.094,25.397 82.592,26.866 83.485C27.154 83.658,27.298 83.859,27.298 84.09C27.298 84.205,27.24 84.349,27.125 84.464C27.038 84.579,26.923 84.666,26.75 84.666C26.549 84.666,26.29 84.55,25.858 84.32C23.237 82.966,21.912 80.403,21.912 77.782C21.912 75.334,23.093 72.858,25.454 71.302C26.059 70.899,27.269 70.323,27.499 70.323C27.499 70.323,27.528 70.294,27.528 70.294C27.528 70.266,27.528 70.266,27.528 70.266C27.499 70.208,26.434 65.197,26.318 64.707M30.725 74.499C30.581 74.499,30.293 74.47,30.12 74.47L29.746 74.47L29.774 74.528C29.774 74.557,30.293 77.034,30.955 80.029C31.589 83.024,32.136 85.616,32.165 85.789C32.222 85.962,32.309 86.422,32.395 86.797L32.539 87.488L32.626 87.43C34.21 86.538,35.362 85.27,35.995 83.715C36.37 82.851,36.542 81.987,36.542 81.123C36.542 77.869,34.152 74.902,30.725 74.499"/></g><g class="vf-timesignature" id="vf-auto41110"><path stroke="none" d="M59.29 52.086C59.347 52.058,60.989 52.058,62.544 52.058C63.869 52.058,65.165 52.058,65.194 52.086C65.366 52.144,65.482 52.317,65.482 52.49C65.482 52.691,65.453 52.72,64.906 53.325C64.416 53.843,62.89 55.571,61.334 57.328C60.874 57.846,60.442 58.336,60.326 58.451C60.211 58.566,59.52 59.344,58.771 60.179C58.051 61.014,57.13 62.051,56.755 62.454C56.381 62.886,56.064 63.232,56.064 63.261C56.064 63.261,56.064 63.261,56.064 63.261C56.064 63.29,56.294 63.29,58.656 63.29L61.248 63.29L61.277 61.418C61.277 59.603,61.277 59.574,61.306 59.517C61.334 59.488,61.91 58.826,62.602 58.048C63.293 57.27,64.099 56.349,64.416 56.032C65.194 55.139,65.165 55.168,65.395 55.168C65.597 55.168,65.741 55.254,65.798 55.398C65.827 55.485,65.827 55.629,65.827 59.373L65.827 63.29L66.518 63.29C67.181 63.29,67.238 63.29,67.325 63.318C67.555 63.405,67.699 63.635,67.699 63.866C67.699 64.038,67.642 64.182,67.526 64.298C67.354 64.47,67.325 64.47,66.547 64.47L65.856 64.47L65.856 64.643C65.856 64.73,65.856 64.989,65.856 65.219C65.885 66.4,66.259 66.976,67.411 67.552C67.642 67.667,67.786 67.84,67.786 68.013C67.786 68.128,67.728 68.243,67.642 68.33C67.526 68.445,67.814 68.445,65.078 68.445C64.646 68.445,64.128 68.445,63.552 68.445C62.976 68.445,62.458 68.445,62.026 68.445C59.29 68.445,59.578 68.445,59.462 68.33C59.376 68.243,59.318 68.128,59.318 68.013C59.318 67.84,59.462 67.667,59.693 67.552C60.845 66.976,61.219 66.4,61.248 65.219C61.248 64.989,61.248 64.73,61.248 64.643L61.248 64.47L57.965 64.47C57.475 64.47,57.072 64.47,56.726 64.47C54.365 64.47,54.566 64.47,54.451 64.355C54.365 64.269,54.307 64.154,54.307 64.038C54.307 63.923,54.394 63.75,54.538 63.578C57.274 60.496,58.915 56.637,59.03 52.893C59.03 52.288,59.059 52.202,59.29 52.086M61.046 70L61.075 70L60.989 70M61.046 51.05L61.075 51.05L60.989 51.05"/><path stroke="none" d="M59.29 72.086C59.347 72.058,60.989 72.058,62.544 72.058C63.869 72.058,65.165 72.058,65.194 72.086C65.366 72.144,65.482 72.317,65.482 72.49C65.482 72.691,65.453 72.72,64.906 73.325C64.416 73.843,62.89 75.571,61.334 77.328C60.874 77.846,60.442 78.336,60.326 78.451C60.211 78.566,59.52 79.344,58.771 80.179C58.051 81.014,57.13 82.051,56.755 82.454C56.381 82.886,56.064 83.232,56.064 83.261C56.064 83.261,56.064 83.261,56.064 83.261C56.064 83.29,56.294 83.29,58.656 83.29L61.248 83.29L61.277 81.418C61.277 79.603,61.277 79.574,61.306 79.517C61.334 79.488,61.91 78.826,62.602 78.048C63.293 77.27,64.099 76.349,64.416 76.032C65.194 75.139,65.165 75.168,65.395 75.168C65.597 75.168,65.741 75.254,65.798 75.398C65.827 75.485,65.827 75.629,65.827 79.373L65.827 83.29L66.518 83.29C67.181 83.29,67.238 83.29,67.325 83.318C67.555 83.405,67.699 83.635,67.699 83.866C67.699 84.038,67.642 84.182,67.526 84.298C67.354 84.47,67.325 84.47,66.547 84.47L65.856 84.47L65.856 84.643C65.856 84.73,65.856 84.989,65.856 85.219C65.885 86.4,66.259 86.976,67.411 87.552C67.642 87.667,67.786 87.84,67.786 88.013C67.786 88.128,67.728 88.243,67.642 88.33C67.526 88.445,67.814 88.445,65.078 88.445C64.646 88.445,64.128 88.445,63.552 88.445C62.976 88.445,62.458 88.445,62.026 88.445C59.29 88.445,59.578 88.445,59.462 88.33C59.376 88.243,59.318 88.128,59.318 88.013C59.318 87.84,59.462 87.667,59.693 87.552C60.845 86.976,61.219 86.4,61.248 85.219C61.248 84.989,61.248 84.73,61.248 84.643L61.248 84.47L57.965 84.47C57.475 84.47,57.072 84.47,56.726 84.47C54.365 84.47,54.566 84.47,54.451 84.355C54.365 84.269,54.307 84.154,54.307 84.038C54.307 83.923,54.394 83.75,54.538 83.578C57.274 80.496,58.915 76.637,59.03 72.893C59.03 72.288,59.059 72.202,59.29 72.086M61.046 90L61.075 90L60.989 90M61.046 71.05L61.075 71.05L60.989 71.05"/></g><g class="vf-stavenote" id="vf-auto41114"><path stroke-width="1.4" fill="none" stroke="#444" d="M178.465 100L196.456 100"/><g class="vf-stem" id="vf-auto41115" pointer-events="bounding-box"><path stroke-width="1.5" fill="none" d="M192.706 98.5L192.706 45"/></g><g class="vf-notehead" id="vf-auto41119" pointer-events="bounding-box"><path stroke="none" d="M188.57 94.889C188.654 94.889,188.738 94.889,188.879 94.889C189.244 94.889,189.777 94.918,189.974 94.946C192.304 95.283,193.456 96.827,193.456 98.624C193.456 100.534,192.164 102.724,189.581 104.128C188.317 104.802,187.025 105.111,185.846 105.111C183.684 105.111,181.915 104.044,181.55 102.162C181.493 101.881,181.465 101.629,181.465 101.376C181.465 98.343,184.723 95.283,188.57 94.889"/><g class="vf-annotation" id="vf-auto41122"><text stroke="none" x="173.753" y="35">Test</text></g><rect x="143.601" y="75" width="1" height="25" stroke="none"/><path stroke="none" d="M140.558 93.974C140.613 93.947,140.695 93.919,140.777 93.919C140.941 93.919,141.106 93.974,141.297 94.111C141.379 94.165,141.598 94.275,141.762 94.33C142.638 94.767,143.568 94.959,144.526 94.959C145.647 94.959,146.769 94.685,147.754 94.111C147.946 94.001,148.137 93.947,148.301 93.947C148.684 93.947,149.013 94.22,149.013 94.685C149.013 94.904,148.985 94.959,148.712 95.397C147.316 97.531,146.085 100.595,145.401 103.605C145.264 104.234,145.237 104.289,145.182 104.371C145.045 104.644,144.772 104.781,144.526 104.781C144.279 104.781,144.033 104.644,143.869 104.371C143.814 104.316,143.787 104.234,143.705 103.796C143.021 100.677,141.79 97.585,140.339 95.397C140.066 94.959,140.039 94.904,140.039 94.685C140.039 94.357,140.257 94.056,140.558 93.974"/><text stroke="none" font-size="9pt" font-weight="bold" x="172.465" y="105">3</text><path stroke="none" d="M200.456 95 A2 2 0 0 0 196.456 95 A2 2 0 0 0 200.456 95"/></g><g class="vf-notehead" id="vf-auto41120" pointer-events="bounding-box"><path stroke="none" d="M188.57 84.889C188.654 84.889,188.738 84.889,188.879 84.889C189.244 84.889,189.777 84.918,189.974 84.946C192.304 85.283,193.456 86.827,193.456 88.624C193.456 90.534,192.164 92.724,189.581 94.128C188.317 94.802,187.025 95.111,185.846 95.111C183.684 95.111,181.915 94.044,181.55 92.162C181.493 91.881,181.465 91.629,181.465 91.376C181.465 88.343,184.723 85.283,188.57 84.889"/><path stroke="none" d="M167.565 75.691C167.62 75.663,167.702 75.636,167.784 75.636C168.003 75.636,168.222 75.773,168.304 75.992C168.331 76.101,168.331 76.128,168.331 79.603C168.331 82.859,168.331 83.078,168.386 83.078C168.386 83.078,168.386 83.078,168.386 83.078C168.687 82.996,169.809 82.75,169.891 82.75C170.137 82.75,170.329 82.886,170.411 83.078C170.438 83.16,170.465 83.789,170.465 84.419C170.465 85.048,170.438 85.677,170.411 85.759C170.329 86.033,170.274 86.033,169.179 86.306L168.331 86.525L168.331 89.425C168.331 92.134,168.331 92.353,168.359 92.353C168.386 92.353,168.386 92.353,168.386 92.353C168.687 92.244,169.809 91.997,169.891 91.997C170.055 91.997,170.164 92.052,170.301 92.161C170.438 92.326,170.438 92.271,170.438 93.311C170.438 93.42,170.438 93.557,170.438 93.694C170.438 93.83,170.438 93.94,170.438 94.049C170.438 95.116,170.438 95.062,170.301 95.198C170.164 95.335,170.164 95.335,169.179 95.581L168.331 95.773L168.331 99.33C168.331 102.832,168.331 102.859,168.304 102.941C168.222 103.188,168.003 103.297,167.784 103.297C167.647 103.297,167.483 103.242,167.374 103.133C167.237 102.996,167.21 103.242,167.21 101.053C167.21 100.616,167.21 100.096,167.21 99.467C167.21 97.579,167.21 96.047,167.21 96.047C167.21 96.047,166.662 96.183,166.006 96.348C165.322 96.512,164.775 96.648,164.775 96.648C164.775 96.648,164.775 98.29,164.775 100.287C164.775 103.872,164.775 103.899,164.72 104.008C164.638 104.227,164.419 104.364,164.2 104.364C164.063 104.364,163.899 104.309,163.79 104.2C163.653 104.036,163.653 104.282,163.653 102.066C163.653 101.628,163.653 101.081,163.653 100.424C163.653 97.168,163.653 96.949,163.625 96.949C163.625 96.949,163.625 96.949,163.598 96.949C163.27 97.032,162.257 97.25,162.175 97.25C161.929 97.25,161.71 97.114,161.628 96.922C161.601 96.84,161.601 96.211,161.601 95.581C161.601 94.952,161.601 94.323,161.628 94.241C161.738 93.995,161.792 93.967,162.832 93.694L163.653 93.502L163.653 90.575C163.653 87.866,163.653 87.674,163.625 87.674C163.625 87.674,163.625 87.674,163.598 87.674C163.27 87.756,162.257 88.003,162.175 88.003C161.929 88.003,161.71 87.866,161.628 87.647C161.601 87.592,161.601 86.936,161.601 86.306C161.601 85.677,161.601 85.048,161.628 84.966C161.738 84.72,161.792 84.692,162.832 84.446L163.653 84.254L163.653 80.698C163.653 77.168,163.653 77.141,163.68 77.059C163.762 76.812,163.981 76.703,164.2 76.703C164.337 76.703,164.501 76.758,164.61 76.867C164.747 77.004,164.775 76.758,164.775 78.947C164.775 79.384,164.775 79.904,164.775 80.561C164.775 82.421,164.775 83.953,164.775 83.953C164.775 83.953,165.322 83.817,165.978 83.68C166.662 83.516,167.21 83.379,167.21 83.379C167.21 83.379,167.21 81.737,167.21 79.74C167.21 76.128,167.21 76.101,167.264 75.992C167.292 75.882,167.428 75.745,167.565 75.691M167.21 89.699C167.21 87.401,167.21 86.799,167.21 86.799L167.21 86.799C167.182 86.799,166.991 86.826,166.772 86.908C166.553 86.963,166.006 87.072,165.568 87.182L164.775 87.401L164.775 90.301C164.775 91.915,164.775 93.228,164.775 93.228C164.775 93.228,165.322 93.092,165.978 92.928C166.662 92.763,167.21 92.627,167.21 92.627C167.21 92.627,167.21 91.313,167.21 89.699"/><text stroke="none" font-size="9pt" font-weight="bold" x="202.456" y="95">1</text><path stroke="none" d="M200.456 85 A2 2 0 0 0 196.456 85 A2 2 0 0 0 200.456 85"/></g><g class="vf-notehead" id="vf-auto41121" pointer-events="bounding-box"><path stroke="none" d="M188.57 74.889C188.654 74.889,188.738 74.889,188.879 74.889C189.244 74.889,189.777 74.918,189.974 74.946C192.304 75.283,193.456 76.827,193.456 78.624C193.456 80.534,192.164 82.724,189.581 84.128C188.317 84.802,187.025 85.111,185.846 85.111C183.684 85.111,181.915 84.044,181.55 82.162C181.493 81.881,181.465 81.629,181.465 81.376C181.465 78.343,184.723 75.283,188.57 74.889"/><text stroke="none" font-size="9pt" font-weight="bold" x="172.465" y="85">2</text><path stroke-width="1.5" fill="none" d="M195.46 116 A8 8 0 0 0 179.46 116 A8 8 0 0 0 195.46 116"/><text stroke-width="1.5" stroke="none" font-weight="bold" x="183.75" y="120.5">4</text><path stroke="none" d="M200.456 75 A2 2 0 0 0 196.456 75 A2 2 0 0 0 200.456 75"/></g></g></svg>