<svg xmlns="http://www.w3.org/2000/svg" stroke-width="0.3" stroke-dasharray="none" fill="black" stroke="black" font-family="Arial, sans-serif" font-size="10pt" font-weight="normal" font-style="normal" width="600" height="140" viewBox="0 0 600 140" style="width: 600px; height: 140px; border: none;"><g class="vf-stave" id="vf-auto14796" stroke-width="1" fill="#999999" stroke="#999999" font-family="Arial"><path fill="none" d="M10 62L560 62"/><path fill="none" d="M10 75L560 75"/><path fill="none" d="M10 88L560 88"/><path fill="none" d="M10 101L560 101"/><path fill="none" d="M10 114L560 114"/><path fill="none" d="M10 127L560 127"/></g><g class="vf-stavebarline" id="vf-auto14797" font-family="Arial"><rect x="10" y="61.5" width="1" height="66" stroke="none"/></g><g class="vf-stavebarline" id="vf-auto14798" font-family="Arial"><rect x="560" y="61.5" width="1" height="66" stroke="none"/></g><g class="vf-tabnote" id="vf-auto14799" pointer-events="bounding-box" font-family="Arial"><rect x="50" y="124" width="11.422" height="6" fill="#FFF" stroke="none"/><text stroke="none" font-family="Arial, sans-serif" x="52" y="132">6</text></g><g class="vf-tabnote" id="vf-auto14801" pointer-events="bounding-box" font-family="Arial"><rect x="78.703" y="85" width="11.422" height="6" fill="#FFF" stroke="none"/><text stroke="none" font-family="Arial, sans-serif" x="80.703" y="93">6</text><rect x="75" y="98" width="18.828" height="6" fill="#FFF" stroke="none"/><text stroke="none" font-family="Arial, sans-serif" x="77" y="106">25</text></g><g class="vf-tabnote" id="vf-auto14803" pointer-events="bounding-box" font-family="Arial"><rect x="101.616" y="72" width="15.597" height="6" fill="#FFF" stroke="none"/><path stroke="none" d="M105.974 81.43C106.171 81.43,106.367 81.318,106.62 81.065C107.491 80.223,108.305 79.324,109.232 78.51C109.569 78.229,109.849 77.948,110.13 77.668C111.225 78.51,112.32 79.409,113.359 80.307C113.612 80.504,113.809 80.616,114.005 80.616C114.286 80.616,114.539 80.391,114.735 80.026C115.128 79.324,115.016 78.51,115.185 77.864C115.128 76.938,114.848 76.292,114.202 75.758L112.742 74.607C113.444 73.821,114.117 73.091,114.904 72.445C115.128 72.304,115.213 71.995,115.213 71.434C115.1 70.844,114.763 70.058,114.342 69.384C114.005 68.822,113.724 68.57,113.444 68.57C113.163 68.57,112.826 68.738,112.433 69.103C112.04 69.412,111.618 69.749,111.309 70.114C110.692 70.76,110.13 71.406,109.569 72.08C108.473 71.293,107.322 70.479,106.199 69.749C106.03 69.609,105.918 69.581,105.806 69.581C105.722 69.581,105.637 69.581,105.525 69.665C105.357 69.777,105.104 69.749,104.963 69.974C104.823 70.283,104.739 70.676,104.739 71.153C104.739 72.417,105.188 74.101,105.89 74.551C106.115 74.719,106.367 74.888,106.62 75.084C105.75 75.899,104.879 76.741,104.009 77.64C103.784 77.864,103.616 78.201,103.616 78.482C103.616 78.763,103.7 79.044,103.953 79.324C104.346 79.942,104.963 80.419,105.357 81.037C105.553 81.318,105.75 81.43,105.974 81.43"/><rect x="100" y="111" width="18.828" height="6" fill="#FFF" stroke="none"/><text stroke="none" font-family="Arial, sans-serif" x="102" y="119">15</text></g><g class="vf-tabnote" id="vf-auto14806" pointer-events="bounding-box" font-family="Arial"><rect x="125" y="72" width="15.597" height="6" fill="#FFF" stroke="none"/><path stroke="none" d="M129.359 81.43C129.555 81.43,129.752 81.318,130.005 81.065C130.875 80.223,131.689 79.324,132.616 78.51C132.953 78.229,133.234 77.948,133.515 77.668C134.61 78.51,135.705 79.409,136.744 80.307C136.996 80.504,137.193 80.616,137.39 80.616C137.67 80.616,137.923 80.391,138.12 80.026C138.513 79.324,138.4 78.51,138.569 77.864C138.513 76.938,138.232 76.292,137.586 75.758L136.126 74.607C136.828 73.821,137.502 73.091,138.288 72.445C138.513 72.304,138.597 71.995,138.597 71.434C138.485 70.844,138.148 70.058,137.727 69.384C137.39 68.822,137.109 68.57,136.828 68.57C136.547 68.57,136.21 68.738,135.817 69.103C135.424 69.412,135.003 69.749,134.694 70.114C134.076 70.76,133.515 71.406,132.953 72.08C131.858 71.293,130.707 70.479,129.583 69.749C129.415 69.609,129.303 69.581,129.19 69.581C129.106 69.581,129.022 69.581,128.909 69.665C128.741 69.777,128.488 69.749,128.348 69.974C128.207 70.283,128.123 70.676,128.123 71.153C128.123 72.417,128.572 74.101,129.274 74.551C129.499 74.719,129.752 74.888,130.005 75.084C129.134 75.899,128.264 76.741,127.393 77.64C127.168 77.864,127 78.201,127 78.482C127 78.763,127.084 79.044,127.337 79.324C127.73 79.942,128.348 80.419,128.741 81.037C128.938 81.318,129.134 81.43,129.359 81.43"/><rect x="127.088" y="111" width="11.422" height="6" fill="#FFF" stroke="none"/><text stroke="none" font-family="Arial, sans-serif" x="129.088" y="119">5</text></g><g class="vf-tabnote" id="vf-auto14809" pointer-events="bounding-box" font-family="Arial"><rect x="150" y="72" width="18.828" height="6" fill="#FFF" stroke="none"/><text stroke="none" font-family="Arial, sans-serif" x="152" y="80">10</text><rect x="150" y="111" width="18.828" height="6" fill="#FFF" stroke="none"/><text stroke="none" font-family="Arial, sans-serif" x="152" y="119">12</text></g><g class="vf-tabnote" id="vf-auto14811" pointer-events="bounding-box" font-family="Arial"><rect x="175" y="124" width="11.422" height="6" fill="#FFF" stroke="none"/><text stroke="none" font-family="Arial, sans-serif" x="177" y="132">0</text><rect x="175" y="111" width="11.422" height="6" fill="#FFF" stroke="none"/><text stroke="none" font-family="Arial, sans-serif" x="177" y="119">5</text><rect x="175" y="98" width="11.422" height="6" fill="#FFF" stroke="none"/><text stroke="none" font-family="Arial, sans-serif" x="177" y="106">5</text><rect x="175" y="85" width="11.422" height="6" fill="#FFF" stroke="none"/><text stroke="none" font-family="Arial, sans-serif" x="177" y="93">4</text><rect x="175" y="72" width="11.422" height="6" fill="#FFF" stroke="none"/><text stroke="none" font-family="Arial, sans-serif" x="177" y="80">3</text><rect x="175" y="59" width="11.422" height="6" fill="#FFF" stroke="none"/><text stroke="none" font-family="Arial, sans-serif" x="177" y="67">0</text></g><g class="vf-tabnote" id="vf-auto14813" pointer-events="bounding-box" font-family="Arial"><rect x="200" y="59" width="11.422" height="6" fill="#FFF" stroke="none"/><text stroke="none" font-family="Arial, sans-serif" x="202" y="67">6</text><rect x="200" y="98" width="11.422" height="6" fill="#FFF" stroke="none"/><text stroke="none" font-family="Arial, sans-serif" x="202" y="106">5</text></g></svg>