<svg xmlns="http://www.w3.org/2000/svg" stroke-width="0.3" stroke-dasharray="none" fill="black" stroke="black" font-family="Arial, sans-serif" font-size="10pt" font-weight="normal" font-style="normal" width="600" height="230" viewBox="0 0 600 230" style="width: 600px; height: 230px; border: none;"><g class="vf-stave" id="vf-auto28682" stroke-width="1" fill="#999999" stroke="#999999"><path fill="none" d="M0 80L590 80"/><path fill="none" d="M0 90L590 90"/><path fill="none" d="M0 100L590 100"/><path fill="none" d="M0 110L590 110"/><path fill="none" d="M0 120L590 120"/></g><g class="vf-stavebarline" id="vf-auto28683"><rect y="79.5" width="1" height="41" stroke="none"/></g><g class="vf-stavebarline" id="vf-auto28684"><rect x="590" y="79.5" width="1" height="41" stroke="none"/></g><path stroke="none" d="M22.482 39.2C22.597 39.2,22.683 39.2,22.799 39.2C24.066 39.2,25.218 40.179,25.419 41.504L25.448 41.648L25.621 41.446C26.312 40.64,27.32 39.891,28.127 39.661C28.328 39.574,28.559 39.546,28.789 39.546C29.365 39.546,29.97 39.776,30.517 40.208C31.41 40.928,31.871 41.994,31.871 43.261C31.871 46.861,30.027 49.971,27.349 50.806C26.975 50.922,26.571 50.979,26.197 50.979C25.707 50.979,25.275 50.893,25.045 50.662C24.987 50.634,24.872 50.518,24.757 50.461C24.239 50.029,23.864 49.482,23.663 48.848C23.605 48.704,23.576 48.618,23.576 48.589C23.576 48.589,23.576 48.56,23.576 48.56C23.547 48.56,23.375 49.165,22.511 51.987C21.647 54.896,21.474 55.472,21.474 55.587C21.474 55.645,21.474 55.645,21.503 55.645C21.618 55.76,22.021 55.904,22.395 55.99C22.511 56.019,22.655 56.048,22.712 56.077C22.943 56.134,23.029 56.307,23.029 56.509C23.029 56.653,22.971 56.826,22.799 56.912C22.741 56.941,21.042 56.941,19.343 56.941C17.643 56.941,15.973 56.941,15.915 56.912C15.743 56.826,15.656 56.653,15.656 56.509C15.656 56.394,15.685 56.278,15.771 56.192C15.858 56.106,15.887 56.077,16.261 56.019C17.384 55.76,17.787 55.587,17.931 55.184C18.075 54.81,21.848 42.253,21.848 42.138C21.877 42.051,21.906 41.907,21.935 41.792C21.963 41.648,21.963 41.533,21.963 41.418C21.963 41.101,21.819 40.899,21.56 40.899C21.531 40.899,21.474 40.899,21.416 40.928C20.523 41.158,19.573 42.195,19.055 43.52C18.911 43.894,18.882 43.952,18.68 43.952C18.479 43.952,18.392 43.866,18.392 43.693C18.392 43.578,18.421 43.434,18.479 43.29C19.055 41.821,19.976 40.611,21.186 39.834C21.33 39.747,21.474 39.632,21.531 39.574C21.704 39.43,22.136 39.258,22.482 39.2M27.954 41.389C27.867 41.36,27.781 41.331,27.666 41.331C27.176 41.331,26.37 41.734,25.765 42.282C25.448 42.627,25.391 42.685,25.333 42.858C25.304 42.944,25.247 43.088,25.218 43.146C25.16 43.232,24.959 43.894,24.555 45.219L23.951 47.178L23.979 47.379C23.979 47.811,24.152 48.272,24.354 48.618C24.584 48.934,24.959 49.222,25.16 49.222C25.189 49.222,25.218 49.222,25.218 49.194C25.247 49.194,25.391 49.136,25.506 49.078C27.147 48.33,28.53 46.112,28.76 43.779C28.789 43.52,28.818 43.261,28.818 43.059C28.818 42.166,28.559 41.706,27.954 41.389"/><path stroke-width="1" fill="none" d="M240.999 38.5L95.925 51L240.999 63.5"/><path stroke="none" d="M271.314 33.843C271.343 33.843,271.4 33.843,271.458 33.843C271.66 33.843,272.005 33.843,272.092 33.872C272.149 33.872,272.322 33.901,272.437 33.901C273.733 33.987,274.972 34.88,275.231 35.859C275.26 36.032,275.288 36.176,275.288 36.32C275.288 37.386,274.338 38.278,273.301 38.278C273.042 38.278,272.783 38.221,272.552 38.106C271.861 37.818,271.516 37.155,271.516 36.493C271.516 36.003,271.717 35.485,272.178 35.168C272.207 35.139,272.207 35.139,272.207 35.11C272.207 35.11,272.207 35.11,272.207 35.11C272.178 35.11,271.775 35.312,271.573 35.456C270.191 36.406,268.952 38.221,268.204 40.438C268.146 40.611,268.088 40.755,268.088 40.755C268.088 40.755,268.578 40.755,269.154 40.755C269.24 40.755,269.298 40.755,269.384 40.755C270.392 40.755,270.364 40.784,270.565 40.928C270.738 41.072,270.824 41.274,270.824 41.504C270.824 41.734,270.738 41.936,270.565 42.08C270.364 42.224,270.421 42.253,269.269 42.253C269.183 42.253,269.068 42.253,268.952 42.253L267.685 42.253L267.656 42.454C266.821 46.746,265.007 51.094,262.876 53.946C261.407 55.904,259.391 57.085,257.519 57.085C257.49 57.085,257.432 57.085,257.404 57.085C255.906 57.056,254.783 55.875,254.783 54.464C254.783 54.234,254.812 54.032,254.869 53.802C255.1 52.88,255.906 52.419,256.712 52.419C257.519 52.419,258.354 52.88,258.613 53.83C258.642 53.974,258.671 54.147,258.671 54.291C258.671 54.896,258.354 55.472,257.807 55.818C257.749 55.846,257.72 55.846,257.72 55.875C257.72 55.875,257.72 55.875,257.72 55.875C257.749 55.875,257.807 55.846,257.893 55.818C258.815 55.558,259.736 54.694,260.312 53.514C260.514 53.11,260.658 52.765,260.917 51.987C261.551 50.086,262.098 48.042,263.192 43.347C263.336 42.771,263.452 42.282,263.452 42.282C263.452 42.282,263.452 42.282,263.452 42.282C263.452 42.253,263.336 42.253,262.242 42.253C260.946 42.253,260.917 42.253,260.802 42.166C260.543 41.994,260.399 41.763,260.399 41.504C260.399 41.274,260.543 41.014,260.802 40.842C260.917 40.784,260.917 40.784,262.415 40.755L263.855 40.755L263.97 40.438C265.295 36.723,268.232 34.074,271.314 33.843"/><path stroke-width="1" fill="none" d="M441.462 93.5L336.923 101L441.462 108.5"/><path stroke-width="1" fill="none" d="M458.462 148.5L590 151L458.462 153.5"/></svg>