<svg xmlns="http://www.w3.org/2000/svg" stroke-width="0.3" stroke-dasharray="none" fill="black" stroke="black" font-family="Arial, sans-serif" font-size="10pt" font-weight="normal" font-style="normal" width="700" height="180" viewBox="0 0 700 180" style="width: 700px; height: 180px; border: none;"><g class="vf-stave" id="vf-auto33526" stroke-width="1" fill="#999999" stroke="#999999"><path fill="none" d="M10 50L660 50"/><path fill="none" d="M10 60L660 60"/><path fill="none" d="M10 70L660 70"/><path fill="none" d="M10 80L660 80"/><path fill="none" d="M10 90L660 90"/></g><g class="vf-stavebarline" id="vf-auto33527"><rect x="10" y="49.5" width="1" height="41" stroke="none"/></g><g class="vf-stavebarline" id="vf-auto33528"><rect x="660" y="49.5" width="1" height="41" stroke="none"/></g><g class="vf-stavenote" id="vf-auto33529"><g class="vf-notehead" id="vf-auto33532" pointer-events="bounding-box"><path stroke-width="1.5" fill="none" d="M27.75 80L27.75 71L42.75 60L42.75 70L27.75 80Z"/><path stroke-width="1.5" fill="none" d="M24.75 60L24.75 81"/><path stroke-width="1.5" fill="none" d="M26.75 60L26.75 81"/><path stroke-width="1.5" fill="none" d="M43.75 60L43.75 81"/><path stroke-width="1.5" fill="none" d="M45.75 60L45.75 81"/></g></g><g class="vf-stavenote" id="vf-auto33533"><g class="vf-notehead" id="vf-auto33536" pointer-events="bounding-box"><path stroke-width="1.5" fill="none" d="M63.309 80L63.309 71L78.309 60L78.309 70L63.309 80Z"/></g></g><g class="vf-stavenote" id="vf-auto33537"><g class="vf-stem" id="vf-auto33538" pointer-events="bounding-box"><path stroke-width="1.5" fill="none" d="M90.417 70L90.417 105"/></g><g class="vf-notehead" id="vf-auto33540" pointer-events="bounding-box"><path stroke-width="1.5" fill="none" d="M90.417 80L90.417 71L105.417 60L105.417 70L90.417 80Z"/></g></g><g class="vf-stavenote" id="vf-auto33541"><g class="vf-stem" id="vf-auto33542" pointer-events="bounding-box"><path stroke-width="1.5" fill="none" d="M116.007 70L116.007 105"/></g><g class="vf-notehead" id="vf-auto33544" pointer-events="bounding-box"><path stroke-width="1.5" stroke="none" d="M115.257 80L115.257 71L130.257 60L130.257 70L115.257 80Z"/></g></g><g class="vf-stavenote" id="vf-auto33545"><g class="vf-stem" id="vf-auto33546" pointer-events="bounding-box"><path stroke-width="1.5" fill="none" d="M141.598 70L141.598 102"/></g><g class="vf-notehead" id="vf-auto33549" pointer-events="bounding-box"><path stroke-width="1.5" stroke="none" d="M140.848 80L140.848 71L155.848 60L155.848 70L140.848 80Z"/></g><path stroke="none" d="M148.289 74.118C148.12 73.978,148.008 73.894,147.896 73.894C147.755 73.894,147.643 74.034,147.587 74.371C147.559 74.905,147.362 75.41,147.306 75.944C147.278 76.309,147.25 76.674,147.25 77.011C147.25 77.656,147.39 78.246,148.036 78.78C148.766 79.369,149.187 80.324,149.58 81.194C149.693 81.447,149.749 81.728,149.749 82.009C149.749 82.542,149.552 83.104,149.496 83.666C149.215 86.754,147.755 89.338,145.818 91.64C145.06 92.567,144.329 93.578,143.543 94.504C141.662 97.004,140.848 99.84,140.848 102.956L140.848 105.231C140.848 105.989,141.016 106.635,141.83 107L142.027 107C142.308 106.326,142.588 105.624,142.588 104.894C142.588 104.445,142.504 104.08,142.504 103.715C142.532 101.861,143.403 100.289,144.526 98.829C145.509 97.621,146.435 96.358,147.39 95.15C149.58 92.398,150.676 89.253,151.153 85.8C151.321 84.761,151.406 83.722,151.406 82.655C151.406 81.082,151.209 79.51,150.704 77.937C150.282 76.477,149.3 75.27,148.289 74.118"/></g><g class="vf-stavenote" id="vf-auto33551"><g class="vf-stem" id="vf-auto33552" pointer-events="bounding-box"><path stroke-width="1.5" fill="none" d="M167.188 70L167.188 102"/></g><g class="vf-notehead" id="vf-auto33555" pointer-events="bounding-box"><path stroke-width="1.5" stroke="none" d="M166.438 80L166.438 71L181.438 60L181.438 70L166.438 80Z"/></g><path stroke="none" d="M168.095 107C168.46 107,168.46 106.551,168.544 106.326C168.825 105.512,168.797 104.613,169.133 103.799C169.751 102.283,170.931 101.216,172.054 100.12C174.413 97.818,176.827 95.543,178.091 92.398C178.821 90.573,179.327 88.72,179.495 86.754C179.551 85.772,179.692 84.789,179.663 83.946C179.692 82.57,179.551 81.279,179.383 79.987C179.467 79.369,179.467 78.808,179.495 78.358C179.551 77.123,179.467 76.056,179.102 75.045C178.961 74.736,178.849 74.455,178.653 74.203C178.54 74.09,178.372 73.894,178.175 73.894L178.091 73.894C177.923 73.978,177.894 74.034,177.894 74.174C177.894 74.287,177.923 74.399,177.923 74.483C177.951 78.527,176.266 81.84,173.682 84.733C170.818 87.878,168.572 91.359,167.421 95.487C166.775 97.649,166.438 99.924,166.438 102.226L166.438 104.529C166.438 105.006,166.606 106.354,167.252 106.803C167.364 106.888,168.066 107,168.095 107M168.853 99.11C169.302 97.734,169.948 96.498,170.509 95.206C171.745 92.37,173.907 90.264,175.732 87.878C176.659 86.698,177.445 85.406,178.035 84.087C178.035 84.311,178.091 84.564,178.091 84.789C178.091 87.4,177.024 89.787,175.367 91.865C173.991 93.578,172.335 95.066,170.818 96.61C170.032 97.369,169.386 98.239,168.853 99.11"/></g><g class="vf-stavenote" id="vf-auto33557"><g class="vf-stem" id="vf-auto33558" pointer-events="bounding-box"><path stroke-width="1.5" fill="none" d="M192.778 70L192.778 111"/></g><g class="vf-notehead" id="vf-auto33561" pointer-events="bounding-box"><path stroke-width="1.5" stroke="none" d="M192.028 80L192.028 71L207.028 60L207.028 70L192.028 80Z"/></g><path stroke="none" d="M201.098 73.472C200.761 73.557,201.014 74.034,200.929 74.315C200.845 74.68,200.789 75.101,200.789 75.466C200.789 76.477,201.042 77.488,201.042 78.499C201.042 78.808,201.042 79.145,200.958 79.425C200.312 82.57,198.936 85.322,196.465 87.456C195.594 88.243,194.668 88.973,193.881 89.899C192.646 91.388,192.225 93.128,192.225 94.982C192.225 96.638,192.14 98.351,192.14 100.036C192.197 101.749,191.747 103.153,192 104.81C192.028 105.343,192.028 106.101,192.028 106.607L192.028 111.156C192.028 111.886,192.112 112.588,192.197 113.262C192.281 113.683,192.646 113.739,192.87 113.823L192.955 113.823C193.151 113.88,193.151 113.515,193.292 113.346C193.376 113.178,193.516 112.953,193.516 112.728C193.432 110.678,194.78 109.471,196.268 108.572C200.115 106.242,201.8 101.861,201.772 97.425C201.8 96.526,201.66 95.515,201.323 94.476C201.238 94.224,201.238 94.027,201.238 93.774C201.238 93.044,201.519 92.286,201.603 91.556C201.66 91.163,201.688 90.742,201.688 90.377C201.688 89.562,201.575 88.776,201.379 87.906C201.294 87.681,201.294 87.4,201.294 87.147C201.294 86.67,201.407 86.221,201.603 85.8C202.474 83.778,202.867 81.756,202.867 79.734C202.895 78.05,202.614 76.309,202.109 74.568C202.025 74.455,201.968 74.287,201.884 74.174C201.688 73.838,201.491 73.36,201.098 73.472M199.75 89.366C199.469 93.662,196.633 96.077,194.022 98.744C193.938 98.239,193.853 97.706,193.853 97.256C193.881 96.077,194.218 94.982,195.145 93.971C196.605 92.455,198.374 91.275,199.75 89.366M200.031 97.256C200.087 97.425,200.115 97.621,200.115 97.874C200.115 100.261,197.111 103.771,194.583 104.866C194.611 103.995,194.948 103.35,195.426 102.76C196.886 100.935,199.02 99.671,200.031 97.256"/></g><g class="vf-stavenote" id="vf-auto33563"><g class="vf-stem" id="vf-auto33564" pointer-events="bounding-box"><path stroke-width="1.5" fill="none" d="M218.368 70L218.368 115"/></g><g class="vf-notehead" id="vf-auto33567" pointer-events="bounding-box"><path stroke-width="1.5" stroke="none" d="M217.618 80L217.618 71L232.618 60L232.618 70L217.618 80Z"/></g><path stroke="none" d="M227.39 74.848C227.25 74.933,227.194 75.101,227.194 75.213C227.194 75.382,227.25 75.578,227.25 75.747C227.166 79.734,226.042 83.3,223.122 86.221C222.392 86.951,221.578 87.597,220.763 88.243C219.247 89.478,218.433 91.163,218.264 93.128C218.18 93.943,218.152 94.757,218.152 95.543C218.152 97.144,218.264 98.744,218.377 100.373C218.517 102.142,218.096 103.939,217.983 105.736C217.983 106.242,217.955 106.663,217.955 107.168L217.955 109.106C217.955 110.229,217.899 111.409,217.731 112.504C217.59 113.543,217.534 114.61,217.534 115.621L217.534 117.727C217.534 118.569,217.534 119.468,217.422 120.338L217.422 120.591C217.422 120.9,217.45 121.237,217.534 121.602C217.618 121.967,217.983 122.079,218.264 122.135C218.292 122.163,218.292 122.163,218.348 122.163C218.601 122.163,218.629 121.826,218.742 121.63C219.107 120.872,219.303 120.029,219.303 119.215C219.303 118.513,219.612 118.035,220.005 117.558C221.128 116.21,222.673 115.368,223.936 114.16C225.368 112.728,226.632 111.156,227.166 109.19C227.362 108.292,227.474 107.393,227.474 106.326C227.474 105.961,227.446 105.596,227.446 105.231C227.362 105.006,227.362 104.782,227.362 104.585C227.362 103.293,228.289 101.974,228.457 100.57C228.541 99.896,228.626 99.166,228.626 98.436C228.626 97.06,228.401 95.684,228.064 94.392C227.839 93.746,227.643 93.1,227.643 92.398C227.643 92.202,227.643 92.033,227.699 91.837C227.755 91.472,227.755 91.079,227.755 90.714C227.755 89.478,227.559 88.355,227.39 87.232C227.39 87.119,227.362 86.979,227.362 86.895C227.362 86.445,227.474 86.108,227.643 85.743C228.373 83.666,228.991 81.616,228.991 79.425C228.991 78.05,228.766 76.702,228.261 75.494C228.092 75.129,227.811 74.736,227.39 74.848M225.986 88.72C226.042 88.973,226.042 89.197,226.042 89.422C226.042 90.742,225.621 91.753,224.863 92.595C223.347 94.308,221.381 95.487,219.921 97.509C219.893 97.256,219.893 96.975,219.893 96.695C219.893 95.543,220.202 94.673,220.848 93.859C222.308 92.005,224.414 90.826,225.986 88.72M225.958 96.61C226.07 96.498,226.183 96.414,226.323 96.414C226.435 96.414,226.52 96.526,226.632 96.863C226.744 97.256,226.829 97.649,226.829 98.014C226.829 99.278,226.099 100.289,225.088 101.047C223.291 102.479,221.409 103.855,219.724 105.652C219.752 103.995,219.893 102.591,220.904 101.552C222.504 99.84,224.245 98.267,225.958 96.61M225.621 105.652C225.79 105.989,225.874 106.27,225.874 106.551C225.874 106.747,225.818 106.972,225.705 107.197C225.256 108.039,224.779 108.938,224.021 109.583C222.476 110.875,220.988 112.167,219.303 113.543C219.809 109.471,222.785 107.646,225.621 105.652"/></g><g class="vf-stavenote" id="vf-auto33569"><g class="vf-stem" id="vf-auto33570" pointer-events="bounding-box"><path stroke-width="1.5" fill="none" d="M243.959 70L243.959 124"/></g><g class="vf-notehead" id="vf-auto33573" pointer-events="bounding-box"><path stroke-width="1.5" stroke="none" d="M243.209 80L243.209 71L258.209 60L258.209 70L243.209 80Z"/></g><path stroke="none" d="M251.576 76.505C251.296 76.505,251.268 76.646,251.268 76.87C251.268 77.067,251.324 77.319,251.296 77.516C251.268 77.713,251.296 77.937,251.296 78.134C250.959 81.616,250.65 85.126,248.74 88.186C247.701 89.899,246.213 91.275,244.781 92.679C244.023 93.465,243.546 94.252,243.546 95.347C243.546 96.526,243.461 97.734,243.461 98.941C243.461 99.755,243.489 100.485,243.574 101.272C243.742 102.591,243.77 103.967,243.77 105.315C243.77 106.354,243.742 107.449,243.742 108.488C243.742 109.303,243.77 110.061,243.826 110.875C243.854 111.437,243.883 112.054,243.883 112.616C243.883 114.188,243.826 115.705,243.826 117.137C243.826 118.485,243.377 119.748,243.237 121.068C243.209 121.433,243.209 121.826,243.209 122.191C243.209 123.371,243.124 124.522,243.209 125.729C243.209 125.954,243.124 129.211,243.209 129.717C243.321 130.166,244.219 130.278,244.5 130.419C244.556 130.419,244.585 130.447,244.613 130.447C244.837 130.447,244.837 130.138,244.95 129.913C245.118 129.604,245.315 129.324,245.315 128.902C245.315 127.414,246.325 126.6,247.336 125.757C248.235 124.999,249.19 124.353,250.032 123.539C252.335 121.237,253.345 118.485,253.345 115.424C253.345 114.919,253.317 114.441,253.289 113.908C253.233 113.599,253.121 113.234,252.868 113.065C252.503 112.728,252.391 112.504,252.391 112.223C252.391 111.942,252.559 111.605,252.672 111.24C253.065 109.948,253.402 108.685,253.402 107.477C253.402 106.326,253.121 105.175,252.503 103.995C252.419 103.939,252.419 103.855,252.419 103.771C252.419 103.602,252.475 103.49,252.503 103.35C252.98 101.833,253.345 100.289,253.345 98.744C253.345 97.734,253.205 96.779,252.84 95.796C252.587 95.206,252.559 94.617,252.559 94.027C252.559 92.96,252.784 91.921,252.784 90.91C252.784 90.714,252.756 90.489,252.756 90.349C252.672 89.703,252.7 88.973,252.475 88.439C252.278 87.99,252.194 87.597,252.194 87.176C252.194 86.614,252.307 86.108,252.419 85.519C252.7 84.031,252.952 82.542,252.952 81.054C252.952 79.903,252.84 78.808,252.475 77.684C252.475 77.6,252.475 77.488,252.419 77.404C252.194 77.039,251.97 76.505,251.576 76.505M250.201 91.921C249.639 95.038,246.887 96.638,245.146 98.997C245.68 95.796,248.74 94.42,250.201 91.921M251.043 97.902C250.762 101.131,247.898 105.512,245.511 106.466C245.483 106.27,245.483 106.073,245.483 105.877C245.483 104.641,246.129 103.63,246.915 102.76C248.263 101.187,249.751 99.755,251.043 97.902M250.818 106.972C250.004 110.117,247.364 111.886,245.567 114.469C245.511 114.188,245.483 113.964,245.483 113.711C245.483 112.588,245.904 111.774,246.775 111.044C248.235 109.752,249.751 108.629,250.818 106.972M251.745 113.234C251.773 117.081,249.751 119.046,245.315 122.36C246.354 118.4,249.639 116.21,251.745 113.234"/></g><g class="vf-stavenote" id="vf-auto33575"><g class="vf-notehead" id="vf-auto33578" pointer-events="bounding-box"><path stroke-width="1.5" fill="none" d="M268.049 80L268.049 71L283.049 60L283.049 70L268.049 80Z"/><path stroke-width="1.5" fill="none" d="M265.049 60L265.049 81"/><path stroke-width="1.5" fill="none" d="M267.049 60L267.049 81"/><path stroke-width="1.5" fill="none" d="M284.049 60L284.049 81"/><path stroke-width="1.5" fill="none" d="M286.049 60L286.049 81"/></g></g><g class="vf-stavenote" id="vf-auto33579"><g class="vf-notehead" id="vf-auto33582" pointer-events="bounding-box"><path stroke-width="1.5" fill="none" d="M303.608 80L303.608 71L318.608 60L318.608 70L303.608 80Z"/></g></g><g class="vf-stavenote" id="vf-auto33583"><g class="vf-stem" id="vf-auto33584" pointer-events="bounding-box"><path stroke-width="1.5" fill="none" d="M345.716 70L345.716 35"/></g><g class="vf-notehead" id="vf-auto33586" pointer-events="bounding-box"><path stroke-width="1.5" fill="none" d="M330.716 80L330.716 71L345.716 60L345.716 70L330.716 80Z"/></g></g><g class="vf-stavenote" id="vf-auto33587"><g class="vf-stem" id="vf-auto33588" pointer-events="bounding-box"><path stroke-width="1.5" fill="none" d="M371.306 70L371.306 35"/></g><g class="vf-notehead" id="vf-auto33590" pointer-events="bounding-box"><path stroke-width="1.5" stroke="none" d="M357.056 80L357.056 71L372.056 60L372.056 70L357.056 80Z"/></g></g><g class="vf-stavenote" id="vf-auto33591"><g class="vf-stem" id="vf-auto33592" pointer-events="bounding-box"><path stroke-width="1.5" fill="none" d="M396.896 70L396.896 38"/></g><g class="vf-notehead" id="vf-auto33595" pointer-events="bounding-box"><path stroke-width="1.5" stroke="none" d="M382.646 80L382.646 71L397.646 60L397.646 70L382.646 80Z"/></g><path stroke="none" d="M403.588 65.882C404.598 64.73,405.581 63.523,406.002 62.063C406.508 60.49,406.704 58.918,406.704 57.345C406.704 56.278,406.62 55.239,406.452 54.2C405.974 50.747,404.879 47.602,402.689 44.85C401.734 43.642,400.808 42.379,399.825 41.171C398.702 39.711,398 38.391,397.972 36.51C397.972 36.145,397.887 35.555,397.887 35.106C397.887 34.376,397.607 33.674,397.326 33L397.129 33C396.315 33.365,396.146 34.011,396.146 34.769L396.146 37.044C396.146 40.16,396.961 42.996,398.842 45.496C399.628 46.422,400.358 47.433,401.117 48.36C403.054 50.662,404.514 53.246,404.795 56.334C404.851 56.896,405.048 57.458,405.048 57.991C405.048 58.272,404.992 58.553,404.879 58.806C404.486 59.676,404.065 60.631,403.335 61.22C402.689 61.754,402.549 62.344,402.549 62.989C402.549 63.326,402.577 63.691,402.605 64.056C402.661 64.59,402.858 65.095,402.886 65.629C402.942 65.966,403.054 66.106,403.194 66.106C403.307 66.106,403.419 66.022,403.588 65.882"/></g><g class="vf-stavenote" id="vf-auto33597"><g class="vf-stem" id="vf-auto33598" pointer-events="bounding-box"><path stroke-width="1.5" fill="none" d="M428.896 70L428.896 38"/></g><g class="vf-notehead" id="vf-auto33601" pointer-events="bounding-box"><path stroke-width="1.5" stroke="none" d="M414.646 80L414.646 71L429.646 60L429.646 70L414.646 80Z"/></g><path stroke="none" d="M439.8 66.106C440.024 66.191,440.193 65.966,440.361 65.797C440.558 65.545,440.67 65.264,440.81 64.955C441.176 63.944,441.26 62.877,441.204 61.642C441.176 61.192,441.176 60.631,441.091 60.013C441.26 58.721,441.4 57.43,441.372 56.054C441.4 55.211,441.26 54.228,441.204 53.246C441.035 51.28,440.53 49.427,439.8 47.602C438.536 44.457,436.121 42.182,433.762 39.88C432.639 38.784,431.46 37.717,430.842 36.201C430.505 35.387,430.533 34.488,430.252 33.674C430.168 33.449,430.168 33,429.803 33C429.775 33,429.719 33.028,429.635 33.028C429.27 33.168,428.905 33.281,428.905 33.899C428.905 34.207,428.961 34.544,428.961 34.909C428.708 34.938,428.511 35.022,428.427 35.218C428.315 35.499,428.174 35.78,428.174 36.061C428.146 36.65,428.146 37.156,428.146 37.774C428.146 40.076,428.483 42.351,429.129 44.513C430.28 48.641,432.527 52.122,435.391 55.267C437.974 58.16,439.659 61.473,439.631 65.517C439.631 65.713,439.519 65.994,439.8 66.106M439.743 55.913C439.154 54.594,438.368 53.302,437.441 52.122C435.616 49.736,433.454 47.63,432.218 44.794C431.656 43.502,431.011 42.266,430.561 40.89C431.095 41.761,431.741 42.631,432.527 43.39C434.043 44.934,435.7 46.422,437.076 48.135C438.901 50.438,439.94 53.021,439.743 55.913"/></g><g class="vf-stavenote" id="vf-auto33603"><g class="vf-stem" id="vf-auto33604" pointer-events="bounding-box"><path stroke-width="1.5" fill="none" d="M460.896 70L460.896 29"/></g><g class="vf-notehead" id="vf-auto33607" pointer-events="bounding-box"><path stroke-width="1.5" stroke="none" d="M446.646 80L446.646 71L461.646 60L461.646 70L446.646 80Z"/></g><path stroke="none" d="M469.216 67.342C469.609 67.454,469.806 66.977,470.002 66.64C470.087 66.528,470.143 66.359,470.227 66.247C470.733 64.506,471.013 62.765,470.985 61.052C470.985 59.03,470.592 57.008,469.722 54.987C469.525 54.594,469.413 54.144,469.413 53.667C469.413 53.414,469.413 53.133,469.497 52.881C469.694 52.038,469.806 51.224,469.806 50.438C469.806 50.073,469.778 49.651,469.722 49.258C469.637 48.528,469.357 47.77,469.357 47.04C469.357 46.787,469.357 46.591,469.441 46.338C469.778 45.299,469.918 44.288,469.89 43.39C469.918 38.953,468.233 34.572,464.386 32.242C462.898 31.343,461.55 30.136,461.635 28.058C461.635 27.861,461.494 27.609,461.41 27.468C461.27 27.3,461.27 26.935,461.073 26.963L460.989 26.963C460.764 27.047,460.399 27.131,460.315 27.552C460.231 28.226,460.118 28.928,460.146 29.63C460.259 31.175,460.146 32.635,460.146 34.207C460.146 34.685,460.174 35.218,460.146 35.752C460.146 37.409,460.315 39.065,460.259 40.75C460.259 42.463,460.343 44.148,460.343 45.804C460.343 47.686,460.764 49.427,462 50.915C462.786 51.842,463.713 52.572,464.583 53.33C467.054 55.492,468.43 58.244,469.076 61.389C469.16 61.67,469.16 61.979,469.16 62.316C469.16 63.326,468.907 64.337,468.907 65.348C468.907 65.713,468.964 66.106,469.048 66.471C469.132 66.752,468.879 67.258,469.216 67.342M468.149 43.558C467.138 41.115,465.004 39.88,463.544 38.054C463.067 37.437,462.73 36.791,462.702 35.948C465.229 37.044,468.233 40.554,468.233 42.94C468.233 43.193,468.205 43.39,468.149 43.558M467.868 51.449C466.492 49.539,464.723 48.36,463.263 46.815C462.337 45.804,462 44.737,461.972 43.558C461.972 43.109,462.056 42.575,462.14 42.07C464.752 44.737,467.588 47.152,467.868 51.449"/></g><g class="vf-stavenote" id="vf-auto33609"><g class="vf-notehead" id="vf-auto33613" pointer-events="bounding-box"><path stroke-width="1.5" stroke="none" d="M478.646 80L478.646 71L493.646 60L493.646 70L478.646 80Z"/></g></g><g class="vf-stavenote" id="vf-auto33615"><g class="vf-notehead" id="vf-auto33619" pointer-events="bounding-box"><path stroke-width="1.5" stroke="none" d="M504.237 80L504.237 71L519.237 60L519.237 70L504.237 80Z"/></g></g><g class="vf-stavenote" id="vf-auto33621"><g class="vf-notehead" id="vf-auto33625" pointer-events="bounding-box"><path stroke-width="1.5" stroke="none" d="M529.827 80L529.827 71L544.827 60L544.827 70L529.827 80Z"/></g></g><g class="vf-stavenote" id="vf-auto33627"><g class="vf-notehead" id="vf-auto33631" pointer-events="bounding-box"><path stroke-width="1.5" stroke="none" d="M555.417 80L555.417 71L570.417 60L570.417 70L555.417 80Z"/></g></g><g class="vf-stavenote" id="vf-auto33633"><g class="vf-stem" id="vf-auto33634" pointer-events="bounding-box"><path stroke-width="1.5" fill="none" d="M595.257 70L595.257 38"/></g><g class="vf-notehead" id="vf-auto33637" pointer-events="bounding-box"><path stroke-width="1.5" stroke="none" d="M581.007 80L581.007 71L596.007 60L596.007 70L581.007 80Z"/></g><path stroke="none" d="M601.949 65.882C602.96 64.73,603.942 63.523,604.364 62.063C604.869 60.49,605.066 58.918,605.066 57.345C605.066 56.278,604.981 55.239,604.813 54.2C604.335 50.747,603.24 47.602,601.05 44.85C600.095 43.642,599.169 42.379,598.186 41.171C597.063 39.711,596.361 38.391,596.333 36.51C596.333 36.145,596.248 35.555,596.248 35.106C596.248 34.376,595.968 33.674,595.687 33L595.49 33C594.676 33.365,594.507 34.011,594.507 34.769L594.507 37.044C594.507 40.16,595.322 42.996,597.203 45.496C597.989 46.422,598.719 47.433,599.478 48.36C601.415 50.662,602.875 53.246,603.156 56.334C603.212 56.896,603.409 57.458,603.409 57.991C603.409 58.272,603.353 58.553,603.24 58.806C602.847 59.676,602.426 60.631,601.696 61.22C601.05 61.754,600.91 62.344,600.91 62.989C600.91 63.326,600.938 63.691,600.966 64.056C601.022 64.59,601.219 65.095,601.247 65.629C601.303 65.966,601.415 66.106,601.556 66.106C601.668 66.106,601.78 66.022,601.949 65.882"/></g><g class="vf-stavenote" id="vf-auto33639"><g class="vf-stem" id="vf-auto33640" pointer-events="bounding-box"><path stroke-width="1.5" fill="none" d="M627.257 70L627.257 38"/></g><g class="vf-notehead" id="vf-auto33643" pointer-events="bounding-box"><path stroke-width="1.5" stroke="none" d="M613.007 80L613.007 71L628.007 60L628.007 70L613.007 80Z"/></g><path stroke="none" d="M633.949 65.882C634.96 64.73,635.942 63.523,636.364 62.063C636.869 60.49,637.066 58.918,637.066 57.345C637.066 56.278,636.981 55.239,636.813 54.2C636.335 50.747,635.24 47.602,633.05 44.85C632.095 43.642,631.169 42.379,630.186 41.171C629.063 39.711,628.361 38.391,628.333 36.51C628.333 36.145,628.248 35.555,628.248 35.106C628.248 34.376,627.968 33.674,627.687 33L627.49 33C626.676 33.365,626.507 34.011,626.507 34.769L626.507 37.044C626.507 40.16,627.322 42.996,629.203 45.496C629.989 46.422,630.719 47.433,631.478 48.36C633.415 50.662,634.875 53.246,635.156 56.334C635.212 56.896,635.409 57.458,635.409 57.991C635.409 58.272,635.353 58.553,635.24 58.806C634.847 59.676,634.426 60.631,633.696 61.22C633.05 61.754,632.91 62.344,632.91 62.989C632.91 63.326,632.938 63.691,632.966 64.056C633.022 64.59,633.219 65.095,633.247 65.629C633.303 65.966,633.415 66.106,633.556 66.106C633.668 66.106,633.78 66.022,633.949 65.882"/></g><g class="vf-stem" id="vf-auto33610" pointer-events="bounding-box"><path stroke-width="1.5" fill="none" d="M492.896 70L492.896 17.089"/></g><g class="vf-stem" id="vf-auto33616" pointer-events="bounding-box"><path stroke-width="1.5" fill="none" d="M518.487 70L518.487 13.25"/></g><g class="vf-beam" id="vf-auto33645"><path stroke="none" d="M492.146 16.451L492.146 21.451L518.737 17.612L518.737 12.612Z"/><path stroke="none" d="M492.146 23.951L492.146 28.951L518.737 25.112L518.737 20.112Z"/><path stroke="none" d="M492.146 31.451L492.146 36.451L518.737 32.612L518.737 27.612Z"/><path stroke="none" d="M492.146 38.951L492.146 43.951L518.737 40.113L518.737 35.113Z"/><path stroke="none" d="M517.737 42.613L517.737 47.613L508.737 49.113L508.737 44.113Z"/></g><g class="vf-stem" id="vf-auto33622" pointer-events="bounding-box"><path stroke-width="1.5" fill="none" d="M530.577 70L530.577 104.25"/></g><g class="vf-stem" id="vf-auto33628" pointer-events="bounding-box"><path stroke-width="1.5" fill="none" d="M556.167 70L556.167 104.25"/></g><g class="vf-beam" id="vf-auto33646"><path stroke="none" d="M529.827 105L529.827 100L556.417 100L556.417 105Z"/></g></svg>