<svg xmlns="http://www.w3.org/2000/svg" stroke-width="0.3" stroke-dasharray="none" fill="black" stroke="black" font-family="Arial, sans-serif" font-size="10pt" font-weight="normal" font-style="normal" width="400" height="195" viewBox="0 0 400 195" style="width: 400px; height: 195px; border: none;"><g class="vf-stave" id="vf-auto6743" stroke-width="1" fill="#999999" stroke="#999999"><path fill="none" d="M50 70L200 70"/><path fill="none" d="M50 80L200 80"/><path fill="none" d="M50 90L200 90"/><path fill="none" d="M50 100L200 100"/><path fill="none" d="M50 110L200 110"/></g><g class="vf-stavebarline" id="vf-auto6744"><rect x="50" y="69.5" width="1" height="41" stroke="none"/></g><g class="vf-stavebarline" id="vf-auto6745"/><g class="vf-stavenote" id="vf-auto6714"><path stroke-width="1.4" fill="none" stroke="#444" d="M72.123 120L90.057 120"/><g class="vf-stem" id="vf-auto6715" pointer-events="bounding-box"><path stroke-width="1.5" fill="none" d="M86.307 118L86.307 85"/></g><g class="vf-notehead" id="vf-auto6717" pointer-events="bounding-box"><path stroke="none" d="M79.055 125.054C82.649 125.054,87.057 121.741,87.057 118.315C87.057 116.237,85.429 114.946,83.126 114.946C78.69 114.946,75.123 118.231,75.123 121.685C75.123 123.791,76.864 125.054,79.055 125.054"/><path stroke="none" d="M69.079 48.912C67.958 48.912,67 49.432,67 50.061L67 64.398C67 64.726,67.465 64.973,68.012 64.973C68.614 64.973,69.052 64.726,69.052 64.398L69.052 53.208C69.052 52.715,75.044 52.469,81.063 52.469C87.082 52.469,93.129 52.715,93.129 53.208L93.129 64.398C93.129 64.726,93.567 64.973,94.114 64.973C94.688 64.973,95.181 64.726,95.181 64.398L95.181 50.061C95.181 49.432,94.223 48.912,93.074 48.912M72.882 54.357C71.679 54.357,70.776 54.877,70.776 55.506L70.776 64.398C70.776 64.726,71.213 64.973,71.761 64.973C72.363 64.973,72.828 64.726,72.828 64.398L72.828 59.063C72.828 58.57,76.932 58.297,81.063 58.297C85.194 58.297,89.326 58.57,89.326 59.063L89.326 64.398C89.326 64.726,89.818 64.973,90.365 64.973C90.967 64.973,91.378 64.726,91.378 64.398L91.378 55.506C91.378 54.877,90.475 54.357,89.298 54.357M83.58 62.702C83.58 61.443,82.568 60.431,81.255 60.431C79.996 60.431,79.011 61.443,79.011 62.702C79.011 63.933,79.996 65,81.255 65C82.568 65,83.58 63.933,83.58 62.702"/></g></g><g class="vf-stavenote" id="vf-auto6718"><g class="vf-stem" id="vf-auto6719" pointer-events="bounding-box"><path stroke-width="1.5" fill="none" d="M116.401 93L116.401 60"/></g><g class="vf-notehead" id="vf-auto6721" pointer-events="bounding-box"><path stroke="none" d="M109.148 100.054C112.742 100.054,117.151 96.741,117.151 93.315C117.151 91.237,115.522 89.946,113.219 89.946C108.783 89.946,105.217 93.231,105.217 96.685C105.217 98.791,106.958 100.054,109.148 100.054"/><path stroke="none" d="M99.173 38.912C98.051 38.912,97.093 39.432,97.093 40.061L97.093 54.398C97.093 54.726,97.558 54.973,98.106 54.973C98.707 54.973,99.145 54.726,99.145 54.398L99.145 43.208C99.145 42.715,105.137 42.469,111.156 42.469C117.175 42.469,123.222 42.715,123.222 43.208L123.222 54.398C123.222 54.726,123.66 54.973,124.207 54.973C124.782 54.973,125.274 54.726,125.274 54.398L125.274 40.061C125.274 39.432,124.316 38.912,123.167 38.912M102.976 44.357C101.772 44.357,100.869 44.877,100.869 45.506L100.869 54.398C100.869 54.726,101.307 54.973,101.854 54.973C102.456 54.973,102.921 54.726,102.921 54.398L102.921 49.063C102.921 48.57,107.025 48.297,111.156 48.297C115.288 48.297,119.419 48.57,119.419 49.063L119.419 54.398C119.419 54.726,119.911 54.973,120.459 54.973C121.061 54.973,121.471 54.726,121.471 54.398L121.471 45.506C121.471 44.877,120.568 44.357,119.392 44.357M113.673 52.702C113.673 51.443,112.661 50.431,111.348 50.431C110.089 50.431,109.104 51.443,109.104 52.702C109.104 53.933,110.089 55,111.348 55C112.661 55,113.673 53.933,113.673 52.702"/></g></g><g class="vf-stavenote" id="vf-auto6722"><path stroke-width="1.4" fill="none" stroke="#444" d="M132.31 120L150.244 120"/><g class="vf-stem" id="vf-auto6723" pointer-events="bounding-box"><path stroke-width="1.5" fill="none" d="M136.06 122L136.06 155"/></g><g class="vf-notehead" id="vf-auto6725" pointer-events="bounding-box"><path stroke="none" d="M139.241 125.054C142.835 125.054,147.244 121.741,147.244 118.315C147.244 116.237,145.615 114.946,143.313 114.946C138.876 114.946,135.31 118.231,135.31 121.685C135.31 123.791,137.051 125.054,139.241 125.054"/><path stroke="none" d="M143.767 162.298C143.767 161.067,142.754 160,141.441 160C140.182 160,139.197 161.067,139.197 162.298C139.197 163.557,140.182 164.569,141.441 164.569C142.754 164.569,143.767 163.557,143.767 162.298M149.485 170.643C150.661 170.643,151.564 170.123,151.564 169.494L151.564 160.602C151.564 160.274,151.154 160.027,150.552 160.027C150.005 160.027,149.512 160.274,149.512 160.602L149.512 165.937C149.512 166.43,145.381 166.703,141.249 166.703C137.118 166.703,133.014 166.43,133.014 165.937L133.014 160.602C133.014 160.274,132.549 160.027,131.947 160.027C131.4 160.027,130.962 160.274,130.962 160.602L130.962 169.494C130.962 170.123,131.865 170.643,133.069 170.643M153.26 176.088C154.41 176.088,155.367 175.568,155.367 174.939L155.367 160.602C155.367 160.274,154.875 160.027,154.3 160.027C153.753 160.027,153.315 160.274,153.315 160.602L153.315 171.792C153.315 172.285,147.269 172.531,141.249 172.531C135.23 172.531,129.238 172.285,129.238 171.792L129.238 160.602C129.238 160.274,128.801 160.027,128.199 160.027C127.652 160.027,127.186 160.274,127.186 160.602L127.186 174.939C127.186 175.568,128.144 176.088,129.266 176.088"/></g></g><g class="vf-stavenote" id="vf-auto6726"><g class="vf-stem" id="vf-auto6727" pointer-events="bounding-box"><path stroke-width="1.5" fill="none" d="M166.153 97L166.153 130"/></g><g class="vf-notehead" id="vf-auto6729" pointer-events="bounding-box"><path stroke="none" d="M169.334 100.054C172.928 100.054,177.337 96.741,177.337 93.315C177.337 91.237,175.708 89.946,173.406 89.946C168.969 89.946,165.403 93.231,165.403 96.685C165.403 98.791,167.144 100.054,169.334 100.054"/><path stroke="none" d="M173.86 137.298C173.86 136.067,172.847 135,171.534 135C170.276 135,169.291 136.067,169.291 137.298C169.291 138.557,170.276 139.569,171.534 139.569C172.847 139.569,173.86 138.557,173.86 137.298M179.578 145.643C180.754 145.643,181.657 145.123,181.657 144.494L181.657 135.602C181.657 135.274,181.247 135.027,180.645 135.027C180.098 135.027,179.605 135.274,179.605 135.602L179.605 140.937C179.605 141.43,175.474 141.703,171.343 141.703C167.211 141.703,163.107 141.43,163.107 140.937L163.107 135.602C163.107 135.274,162.642 135.027,162.04 135.027C161.493 135.027,161.055 135.274,161.055 135.602L161.055 144.494C161.055 145.123,161.958 145.643,163.162 145.643M183.354 151.088C184.503 151.088,185.46 150.568,185.46 149.939L185.46 135.602C185.46 135.274,184.968 135.027,184.393 135.027C183.846 135.027,183.408 135.274,183.408 135.602L183.408 146.792C183.408 147.285,177.362 147.531,171.343 147.531C165.323 147.531,159.332 147.285,159.332 146.792L159.332 135.602C159.332 135.274,158.894 135.027,158.292 135.027C157.745 135.027,157.28 135.274,157.28 135.602L157.28 149.939C157.28 150.568,158.237 151.088,159.359 151.088"/></g></g><g class="vf-stave" id="vf-auto6775" stroke-width="1" fill="#999999" stroke="#999999"><path fill="none" d="M200 70L350 70"/><path fill="none" d="M200 80L350 80"/><path fill="none" d="M200 90L350 90"/><path fill="none" d="M200 100L350 100"/><path fill="none" d="M200 110L350 110"/></g><g class="vf-stavebarline" id="vf-auto6776"><rect x="200" y="69.5" width="1" height="41" stroke="none"/></g><g class="vf-stavebarline" id="vf-auto6777"><rect x="347" y="69.5" width="1" height="41" stroke="none"/><rect x="350" y="69.5" width="1" height="41" stroke="none"/></g><g class="vf-stavenote" id="vf-auto6746"><g class="vf-stem" id="vf-auto6747" pointer-events="bounding-box"><path stroke-width="1.5" fill="none" d="M236.307 83L236.307 50"/></g><g class="vf-notehead" id="vf-auto6749" pointer-events="bounding-box"><path stroke="none" d="M229.055 90.054C232.649 90.054,237.057 86.741,237.057 83.315C237.057 81.237,235.429 79.946,233.126 79.946C228.69 79.946,225.123 83.231,225.123 86.685C225.123 88.791,226.864 90.054,229.055 90.054"/><path stroke="none" d="M219.079 28.912C217.958 28.912,217 29.432,217 30.061L217 44.398C217 44.726,217.465 44.973,218.012 44.973C218.614 44.973,219.052 44.726,219.052 44.398L219.052 33.208C219.052 32.715,225.044 32.469,231.063 32.469C237.082 32.469,243.129 32.715,243.129 33.208L243.129 44.398C243.129 44.726,243.567 44.973,244.114 44.973C244.688 44.973,245.181 44.726,245.181 44.398L245.181 30.061C245.181 29.432,244.223 28.912,243.074 28.912M222.882 34.357C221.679 34.357,220.776 34.877,220.776 35.506L220.776 44.398C220.776 44.726,221.213 44.973,221.761 44.973C222.363 44.973,222.828 44.726,222.828 44.398L222.828 39.063C222.828 38.57,226.932 38.297,231.063 38.297C235.194 38.297,239.326 38.57,239.326 39.063L239.326 44.398C239.326 44.726,239.818 44.973,240.365 44.973C240.967 44.973,241.378 44.726,241.378 44.398L241.378 35.506C241.378 34.877,240.475 34.357,239.298 34.357M233.58 42.702C233.58 41.443,232.568 40.431,231.255 40.431C229.996 40.431,229.011 41.443,229.011 42.702C229.011 43.933,229.996 45,231.255 45C232.568 45,233.58 43.933,233.58 42.702"/></g></g><g class="vf-stavenote" id="vf-auto6750"><path stroke-width="1.4" fill="none" stroke="#444" d="M252.217 60L270.151 60"/><g class="vf-stem" id="vf-auto6751" pointer-events="bounding-box"><path stroke-width="1.5" fill="none" d="M266.401 58L266.401 25"/></g><g class="vf-notehead" id="vf-auto6753" pointer-events="bounding-box"><path stroke="none" d="M259.148 65.054C262.742 65.054,267.151 61.741,267.151 58.315C267.151 56.237,265.522 54.946,263.219 54.946C258.783 54.946,255.217 58.231,255.217 61.685C255.217 63.791,256.958 65.054,259.148 65.054"/><path stroke="none" d="M249.173 3.912C248.051 3.912,247.093 4.432,247.093 5.061L247.093 19.398C247.093 19.726,247.558 19.973,248.106 19.973C248.707 19.973,249.145 19.726,249.145 19.398L249.145 8.208C249.145 7.715,255.137 7.469,261.156 7.469C267.175 7.469,273.222 7.715,273.222 8.208L273.222 19.398C273.222 19.726,273.66 19.973,274.207 19.973C274.782 19.973,275.274 19.726,275.274 19.398L275.274 5.061C275.274 4.432,274.316 3.912,273.167 3.912M252.976 9.357C251.772 9.357,250.869 9.877,250.869 10.506L250.869 19.398C250.869 19.726,251.307 19.973,251.854 19.973C252.456 19.973,252.921 19.726,252.921 19.398L252.921 14.063C252.921 13.57,257.025 13.297,261.156 13.297C265.288 13.297,269.419 13.57,269.419 14.063L269.419 19.398C269.419 19.726,269.911 19.973,270.459 19.973C271.061 19.973,271.471 19.726,271.471 19.398L271.471 10.506C271.471 9.877,270.568 9.357,269.392 9.357M263.673 17.702C263.673 16.443,262.661 15.431,261.348 15.431C260.089 15.431,259.104 16.443,259.104 17.702C259.104 18.933,260.089 20,261.348 20C262.661 20,263.673 18.933,263.673 17.702"/></g></g><g class="vf-stavenote" id="vf-auto6754"><g class="vf-stem" id="vf-auto6755" pointer-events="bounding-box"><path stroke-width="1.5" fill="none" d="M286.06 87L286.06 120"/></g><g class="vf-notehead" id="vf-auto6757" pointer-events="bounding-box"><path stroke="none" d="M289.241 90.054C292.835 90.054,297.244 86.741,297.244 83.315C297.244 81.237,295.615 79.946,293.313 79.946C288.876 79.946,285.31 83.231,285.31 86.685C285.31 88.791,287.051 90.054,289.241 90.054"/><path stroke="none" d="M293.767 127.298C293.767 126.067,292.754 125,291.441 125C290.182 125,289.197 126.067,289.197 127.298C289.197 128.557,290.182 129.569,291.441 129.569C292.754 129.569,293.767 128.557,293.767 127.298M299.485 135.643C300.661 135.643,301.564 135.123,301.564 134.494L301.564 125.602C301.564 125.274,301.154 125.027,300.552 125.027C300.005 125.027,299.512 125.274,299.512 125.602L299.512 130.937C299.512 131.43,295.381 131.703,291.249 131.703C287.118 131.703,283.014 131.43,283.014 130.937L283.014 125.602C283.014 125.274,282.549 125.027,281.947 125.027C281.4 125.027,280.962 125.274,280.962 125.602L280.962 134.494C280.962 135.123,281.865 135.643,283.069 135.643M303.26 141.088C304.41 141.088,305.367 140.568,305.367 139.939L305.367 125.602C305.367 125.274,304.875 125.027,304.3 125.027C303.753 125.027,303.315 125.274,303.315 125.602L303.315 136.792C303.315 137.285,297.269 137.531,291.249 137.531C285.23 137.531,279.238 137.285,279.238 136.792L279.238 125.602C279.238 125.274,278.801 125.027,278.199 125.027C277.652 125.027,277.186 125.274,277.186 125.602L277.186 139.939C277.186 140.568,278.144 141.088,279.266 141.088"/></g></g><g class="vf-stavenote" id="vf-auto6758"><path stroke-width="1.4" fill="none" stroke="#444" d="M312.403 60L330.337 60"/><g class="vf-stem" id="vf-auto6759" pointer-events="bounding-box"><path stroke-width="1.5" fill="none" d="M316.153 62L316.153 95"/></g><g class="vf-notehead" id="vf-auto6761" pointer-events="bounding-box"><path stroke="none" d="M319.334 65.054C322.928 65.054,327.337 61.741,327.337 58.315C327.337 56.237,325.708 54.946,323.406 54.946C318.969 54.946,315.403 58.231,315.403 61.685C315.403 63.791,317.144 65.054,319.334 65.054"/><path stroke="none" d="M323.86 117.298C323.86 116.067,322.847 115,321.534 115C320.276 115,319.291 116.067,319.291 117.298C319.291 118.557,320.276 119.569,321.534 119.569C322.847 119.569,323.86 118.557,323.86 117.298M329.578 125.643C330.754 125.643,331.657 125.123,331.657 124.494L331.657 115.602C331.657 115.274,331.247 115.027,330.645 115.027C330.098 115.027,329.605 115.274,329.605 115.602L329.605 120.937C329.605 121.43,325.474 121.703,321.343 121.703C317.211 121.703,313.107 121.43,313.107 120.937L313.107 115.602C313.107 115.274,312.642 115.027,312.04 115.027C311.493 115.027,311.055 115.274,311.055 115.602L311.055 124.494C311.055 125.123,311.958 125.643,313.162 125.643M333.354 131.088C334.503 131.088,335.46 130.568,335.46 129.939L335.46 115.602C335.46 115.274,334.968 115.027,334.393 115.027C333.846 115.027,333.408 115.274,333.408 115.602L333.408 126.792C333.408 127.285,327.362 127.531,321.343 127.531C315.323 127.531,309.332 127.285,309.332 126.792L309.332 115.602C309.332 115.274,308.894 115.027,308.292 115.027C307.745 115.027,307.28 115.274,307.28 115.602L307.28 129.939C307.28 130.568,308.237 131.088,309.359 131.088"/></g></g></svg>