<svg xmlns="http://www.w3.org/2000/svg" stroke-width="0.3" stroke-dasharray="none" fill="black" stroke="black" font-family="Arial, sans-serif" font-size="10pt" font-weight="normal" font-style="normal" width="600" height="200" viewBox="0 0 600 200" style="width: 600px; height: 200px; border: none;"><g class="vf-stave" id="vf-auto29991" stroke-width="1" fill="#999999" stroke="#999999"><path fill="none" d="M0 40L250 40"/><path fill="none" d="M0 50L250 50"/><path fill="none" d="M0 60L250 60"/><path fill="none" d="M0 70L250 70"/><path fill="none" d="M0 80L250 80"/></g><g class="vf-stavebarline" id="vf-auto29992"><rect y="39.5" width="1" height="41" stroke="none"/></g><g class="vf-stavebarline" id="vf-auto29993"><rect x="247" y="39.5" width="1" height="41" stroke="none"/><rect x="250" y="39.5" width="1" height="41" stroke="none"/></g><g class="vf-stave" id="vf-auto30049" stroke-width="1" fill="#999999" stroke="#999999"><path fill="none" d="M250 40L550 40"/><path fill="none" d="M250 50L550 50"/><path fill="none" d="M250 60L550 60"/><path fill="none" d="M250 70L550 70"/><path fill="none" d="M250 80L550 80"/></g><g class="vf-stavebarline" id="vf-auto30050"><rect x="250" y="39.5" width="1" height="41" stroke="none"/></g><g class="vf-stavebarline" id="vf-auto30051"><rect x="547" y="39.5" width="1" height="41" stroke="none"/><rect x="550" y="39.5" width="1" height="41" stroke="none"/></g><g class="vf-stavenote" id="vf-auto29994"><path stroke-width="1.4" fill="none" stroke="#444" d="M24 90L43.508 90"/><path stroke-width="1.4" fill="none" stroke="#444" d="M24 100L43.508 100"/><g class="vf-stem" id="vf-auto29995" pointer-events="bounding-box"><path stroke-width="1.5" fill="none" d="M39.758 98L39.758 30"/></g><g class="vf-notehead" id="vf-auto30002" pointer-events="bounding-box"><path stroke="none" d="M30.145 106.543C30.426 106.599,30.678 106.627,30.959 106.627C34.834 106.627,40.619 101.348,40.506 97.08C40.394 96.041,40.422 94.609,38.316 93.766C37.727 93.485,37.081 93.373,36.379 93.373C32.054 93.373,27.365 98.343,27.028 101.657C27.028 101.909,27 102.134,27 102.387C27 104.409,27.899 106.037,30.145 106.543"/><rect x="20" y="65" width="1" height="40" stroke="none"/><path stroke="none" d="M20.829 59.439C20.911 59.412,20.965 59.412,21.047 59.412C21.266 59.412,21.513 59.494,21.649 59.658C21.786 59.822,21.786 59.822,21.95 60.561C22.634 63.57,23.866 66.635,25.261 68.769C25.534 69.207,25.562 69.261,25.562 69.48C25.562 69.945,25.234 70.219,24.823 70.219C24.686 70.219,24.495 70.192,24.331 70.082C23.318 69.48,22.197 69.179,21.075 69.179C20.09 69.179,19.105 69.425,18.175 69.891C18.065 69.945,17.901 70.027,17.819 70.082C17.655 70.192,17.463 70.219,17.326 70.219C16.916 70.219,16.588 69.945,16.588 69.48C16.588 69.261,16.615 69.207,16.889 68.769C18.284 66.635,19.488 63.625,20.199 60.588C20.391 59.795,20.363 59.822,20.5 59.658C20.555 59.576,20.719 59.466,20.829 59.439"/></g><g class="vf-notehead" id="vf-auto30003" pointer-events="bounding-box"><path stroke="none" d="M30.145 86.543C30.426 86.599,30.678 86.627,30.959 86.627C34.834 86.627,40.619 81.348,40.506 77.08C40.394 76.041,40.422 74.609,38.316 73.766C37.727 73.485,37.081 73.373,36.379 73.373C32.054 73.373,27.365 78.343,27.028 81.657C27.028 81.909,27 82.134,27 82.387C27 84.409,27.899 86.037,30.145 86.543"/></g><g class="vf-notehead" id="vf-auto30004" pointer-events="bounding-box"><path stroke="none" d="M30.145 71.543C30.426 71.599,30.678 71.627,30.959 71.627C34.834 71.627,40.619 66.348,40.506 62.08C40.394 61.041,40.422 59.609,38.316 58.766C37.727 58.485,37.081 58.373,36.379 58.373C32.054 58.373,27.365 63.343,27.028 66.657C27.028 66.909,27 67.134,27 67.387C27 69.409,27.899 71.037,30.145 71.543"/></g></g><g class="vf-stavenote" id="vf-auto30005"><path stroke-width="1.4" fill="none" stroke="#444" d="M108.264 90L127.772 90"/><g class="vf-stem" id="vf-auto30006" pointer-events="bounding-box"><path stroke-width="1.5" fill="none" d="M124.022 88L124.022 35"/></g><g class="vf-notehead" id="vf-auto30013" pointer-events="bounding-box"><path stroke="none" d="M114.409 96.543C114.689 96.599,114.942 96.627,115.223 96.627C119.098 96.627,124.882 91.348,124.77 87.08C124.658 86.041,124.686 84.609,122.58 83.766C121.99 83.485,121.344 83.373,120.642 83.373C116.318 83.373,111.629 88.343,111.292 91.657C111.292 91.909,111.264 92.134,111.264 92.387C111.264 94.409,112.162 96.037,114.409 96.543"/><rect x="43.508" y="65" width="1" height="25" stroke="none"/><path stroke="none" d="M40.466 83.974C40.52 83.947,40.602 83.919,40.685 83.919C40.849 83.919,41.013 83.974,41.204 84.111C41.286 84.165,41.505 84.275,41.67 84.33C42.545 84.767,43.475 84.959,44.433 84.959C45.555 84.959,46.676 84.685,47.661 84.111C47.853 84.001,48.044 83.947,48.209 83.947C48.592 83.947,48.92 84.22,48.92 84.685C48.92 84.904,48.893 84.959,48.619 85.397C47.224 87.531,45.992 90.595,45.308 93.605C45.172 94.234,45.144 94.289,45.09 94.371C44.953 94.644,44.679 94.781,44.433 94.781C44.187 94.781,43.94 94.644,43.776 94.371C43.722 94.316,43.694 94.234,43.612 93.796C42.928 90.677,41.697 87.585,40.247 85.397C39.973 84.959,39.946 84.904,39.946 84.685C39.946 84.357,40.165 84.056,40.466 83.974"/><path stroke="none" d="M79.162 105.13C79.463 105.103,79.545 104.665,79.627 104.391C79.791 103.872,79.819 103.352,79.819 102.887C79.819 102.449,79.791 102.066,79.791 101.628C79.791 101.354,79.791 100.999,79.819 100.725C79.901 99.932,79.983 99.138,80.01 98.345L81.761 97.989C81.843 99.658,82.144 101.272,82.692 102.832C82.746 103.051,82.883 103.27,83.129 103.27C83.376 103.324,83.458 103.051,83.567 102.832C83.841 102.421,83.868 101.902,83.868 101.436C83.923 101.081,83.923 100.752,83.923 100.452C83.923 99.494,83.841 98.509,83.813 97.551L86.084 97.086C88.246 96.648,88.519 96.348,88.683 94.268C88.683 93.748,88.738 93.393,88.683 92.982C88.656 92.49,88.437 92.134,88.027 92.134L87.945 92.134C87.781 92.134,87.671 92.134,87.507 92.161C86.604 92.408,85.619 92.599,84.662 92.763L84.005 92.873C84.032 92.326,84.032 91.724,84.087 91.149C84.114 89.891,84.142 88.632,84.142 87.373C85.263 87.072,86.33 86.772,87.398 86.416C87.972 86.224,88.492 85.896,88.656 85.267C88.793 84.555,89.012 83.899,89.012 83.187C89.012 82.777,88.957 82.367,88.793 81.956C88.656 81.573,88.519 81.382,88.3 81.382L88.218 81.382C88.082 81.382,87.945 81.382,87.781 81.464C86.549 81.956,85.346 82.367,84.087 82.722L83.95 80.588C83.868 78.892,83.813 77.168,83.458 75.472C83.376 75.253,83.403 74.897,83.157 74.897L83.129 74.897L83.02 74.897C82.692 74.979,82.309 75.116,82.254 75.554L82.254 76.293C82.254 78.618,82.336 80.889,82.391 83.187L80.284 83.652C80.284 82.476,80.257 81.3,80.174 80.123C80.147 79.521,80.147 78.974,79.819 78.372C78.943 78.81,79.08 79.548,79.08 80.178C78.998 81.464,78.943 82.668,78.916 83.899C77.822 84.118,76.7 84.282,75.605 84.473C73.991 84.747,73.745 84.993,73.745 86.772C73.635 87.209,73.964 87.702,73.909 88.194C73.827 88.933,74.018 89.179,74.538 89.207C74.648 89.207,74.785 89.179,74.949 89.124C76.235 88.933,77.493 88.741,78.752 88.495L78.642 92.052C78.588 92.709,78.533 93.338,78.451 93.967C76.973 94.268,75.523 94.542,74.073 94.897C73.252 95.089,72.76 95.39,72.76 96.348C72.76 97.278,73.116 98.153,73.17 99.056C73.17 99.494,73.28 99.685,73.608 99.74C73.663 99.74,73.8 99.685,73.964 99.658C75.359 99.33,76.782 99.056,78.205 98.755C78.177 99.248,78.177 99.768,78.177 100.315C78.177 101.71,78.314 103.051,78.806 104.391C78.889 104.665,78.806 105.13,79.162 105.13M80.202 93.612C80.257 92.763,80.257 91.888,80.284 91.012C80.339 90.082,80.339 89.179,80.339 88.222C80.995 88.112,81.625 88.003,82.254 87.839C82.062 89.644,81.98 91.45,81.871 93.283"/></g><g class="vf-notehead" id="vf-auto30014" pointer-events="bounding-box"><path stroke="none" d="M114.409 86.543C114.689 86.599,114.942 86.627,115.223 86.627C119.098 86.627,124.882 81.348,124.77 77.08C124.658 76.041,124.686 74.609,122.58 73.766C121.99 73.485,121.344 73.373,120.642 73.373C116.318 73.373,111.629 78.343,111.292 81.657C111.292 81.909,111.264 82.134,111.264 82.387C111.264 84.409,112.162 86.037,114.409 86.543"/><path stroke="none" d="M59.91 95.13C60.211 95.103,60.293 94.665,60.375 94.391C60.54 93.872,60.567 93.352,60.567 92.887C60.567 92.449,60.54 92.066,60.54 91.628C60.54 91.354,60.54 90.999,60.567 90.725C60.649 89.932,60.731 89.138,60.758 88.345L62.51 87.989C62.592 89.658,62.893 91.272,63.44 92.832C63.494 93.051,63.631 93.27,63.878 93.27C64.124 93.324,64.206 93.051,64.315 92.832C64.589 92.421,64.616 91.902,64.616 91.436C64.671 91.081,64.671 90.752,64.671 90.452C64.671 89.494,64.589 88.509,64.562 87.551L66.832 87.086C68.994 86.648,69.267 86.348,69.432 84.268C69.432 83.748,69.486 83.393,69.432 82.982C69.404 82.49,69.185 82.134,68.775 82.134L68.693 82.134C68.529 82.134,68.419 82.134,68.255 82.161C67.352 82.408,66.367 82.599,65.41 82.763L64.753 82.873C64.78 82.326,64.78 81.724,64.835 81.149C64.862 79.891,64.89 78.632,64.89 77.373C66.012 77.072,67.079 76.772,68.146 76.416C68.72 76.224,69.24 75.896,69.404 75.267C69.541 74.555,69.76 73.899,69.76 73.187C69.76 72.777,69.705 72.367,69.541 71.956C69.404 71.573,69.267 71.382,69.049 71.382L68.966 71.382C68.83 71.382,68.693 71.382,68.529 71.464C67.298 71.956,66.094 72.367,64.835 72.722L64.698 70.588C64.616 68.892,64.562 67.168,64.206 65.472C64.124 65.253,64.151 64.897,63.905 64.897L63.878 64.897L63.768 64.897C63.44 64.979,63.057 65.116,63.002 65.554L63.002 66.293C63.002 68.618,63.084 70.889,63.139 73.187L61.032 73.652C61.032 72.476,61.005 71.3,60.923 70.123C60.895 69.521,60.895 68.974,60.567 68.372C59.691 68.81,59.828 69.548,59.828 70.178C59.746 71.464,59.691 72.668,59.664 73.899C58.57 74.118,57.448 74.282,56.354 74.473C54.739 74.747,54.493 74.993,54.493 76.772C54.384 77.209,54.712 77.702,54.657 78.194C54.575 78.933,54.767 79.179,55.286 79.207C55.396 79.207,55.533 79.179,55.697 79.124C56.983 78.933,58.241 78.741,59.5 78.495L59.39 82.052C59.336 82.709,59.281 83.338,59.199 83.967C57.722 84.268,56.271 84.542,54.821 84.897C54.001 85.089,53.508 85.39,53.508 86.348C53.508 87.278,53.864 88.153,53.918 89.056C53.918 89.494,54.028 89.685,54.356 89.74C54.411 89.74,54.548 89.685,54.712 89.658C56.107 89.33,57.53 89.056,58.953 88.755C58.925 89.248,58.925 89.768,58.925 90.315C58.925 91.71,59.062 93.051,59.555 94.391C59.637 94.665,59.555 95.13,59.91 95.13M60.95 83.612C61.005 82.763,61.005 81.888,61.032 81.012C61.087 80.082,61.087 79.179,61.087 78.222C61.743 78.112,62.373 78.003,63.002 77.839C62.81 79.644,62.728 81.45,62.619 83.283"/></g><g class="vf-notehead" id="vf-auto30015" pointer-events="bounding-box"><path stroke="none" d="M114.409 76.543C114.689 76.599,114.942 76.627,115.223 76.627C119.098 76.627,124.882 71.348,124.77 67.08C124.658 66.041,124.686 64.609,122.58 63.766C121.99 63.485,121.344 63.373,120.642 63.373C116.318 63.373,111.629 68.343,111.292 71.657C111.292 71.909,111.264 72.134,111.264 72.387C111.264 74.409,112.162 76.037,114.409 76.543"/><path stroke="none" d="M98.414 85.13C98.715 85.103,98.797 84.665,98.879 84.391C99.043 83.872,99.071 83.352,99.071 82.887C99.071 82.449,99.043 82.066,99.043 81.628C99.043 81.354,99.043 80.999,99.071 80.725C99.153 79.932,99.235 79.138,99.262 78.345L101.013 77.989C101.095 79.658,101.396 81.272,101.943 82.832C101.998 83.051,102.135 83.27,102.381 83.27C102.627 83.324,102.71 83.051,102.819 82.832C103.093 82.421,103.12 81.902,103.12 81.436C103.175 81.081,103.175 80.752,103.175 80.452C103.175 79.494,103.093 78.509,103.065 77.551L105.336 77.086C107.498 76.648,107.771 76.348,107.935 74.268C107.935 73.748,107.99 73.393,107.935 72.982C107.908 72.49,107.689 72.134,107.279 72.134L107.197 72.134C107.032 72.134,106.923 72.134,106.759 72.161C105.856 72.408,104.871 72.599,103.913 72.763L103.257 72.873C103.284 72.326,103.284 71.724,103.339 71.149C103.366 69.891,103.394 68.632,103.394 67.373C104.515 67.072,105.582 66.772,106.649 66.416C107.224 66.224,107.744 65.896,107.908 65.267C108.045 64.555,108.264 63.899,108.264 63.187C108.264 62.777,108.209 62.367,108.045 61.956C107.908 61.573,107.771 61.382,107.552 61.382L107.47 61.382C107.333 61.382,107.197 61.382,107.032 61.464C105.801 61.956,104.597 62.367,103.339 62.722L103.202 60.588C103.12 58.892,103.065 57.168,102.71 55.472C102.627 55.253,102.655 54.897,102.409 54.897L102.381 54.897L102.272 54.897C101.943 54.979,101.56 55.116,101.506 55.554L101.506 56.293C101.506 58.618,101.588 60.889,101.642 63.187L99.536 63.652C99.536 62.476,99.508 61.3,99.426 60.123C99.399 59.521,99.399 58.974,99.071 58.372C98.195 58.81,98.332 59.548,98.332 60.178C98.25 61.464,98.195 62.668,98.168 63.899C97.073 64.118,95.952 64.282,94.857 64.473C93.243 64.747,92.997 64.993,92.997 66.772C92.887 67.209,93.216 67.702,93.161 68.194C93.079 68.933,93.27 69.179,93.79 69.207C93.9 69.207,94.036 69.179,94.201 69.124C95.486 68.933,96.745 68.741,98.004 68.495L97.894 72.052C97.839 72.709,97.785 73.338,97.703 73.967C96.225 74.268,94.775 74.542,93.325 74.897C92.504 75.089,92.012 75.39,92.012 76.348C92.012 77.278,92.367 78.153,92.422 79.056C92.422 79.494,92.532 79.685,92.86 79.74C92.915 79.74,93.051 79.685,93.216 79.658C94.611 79.33,96.034 79.056,97.456 78.755C97.429 79.248,97.429 79.768,97.429 80.315C97.429 81.71,97.566 83.051,98.058 84.391C98.14 84.665,98.058 85.13,98.414 85.13M99.454 73.612C99.508 72.763,99.508 71.888,99.536 71.012C99.59 70.082,99.59 69.179,99.59 68.222C100.247 68.112,100.876 68.003,101.506 67.839C101.314 69.644,101.232 71.45,101.123 73.283"/></g></g><g class="vf-stavenote" id="vf-auto30016"><path stroke-width="1.4" fill="none" stroke="#444" d="M160.757 90L180.265 90"/><g class="vf-stem" id="vf-auto30017" pointer-events="bounding-box"><path stroke-width="1.5" fill="none" d="M176.515 88L176.515 35"/></g><g class="vf-notehead" id="vf-auto30024" pointer-events="bounding-box"><path stroke="none" d="M166.902 96.543C167.183 96.599,167.436 96.627,167.716 96.627C171.591 96.627,177.376 91.348,177.264 87.08C177.151 86.041,177.179 84.609,175.073 83.766C174.484 83.485,173.838 83.373,173.136 83.373C168.812 83.373,164.122 88.343,163.785 91.657C163.785 91.909,163.757 92.134,163.757 92.387C163.757 94.409,164.656 96.037,166.902 96.543"/><rect x="156.757" y="70" width="1" height="25" stroke="none"/><path stroke="none" d="M157.586 64.439C157.668 64.412,157.723 64.412,157.805 64.412C158.023 64.412,158.27 64.494,158.407 64.658C158.543 64.822,158.543 64.822,158.707 65.561C159.391 68.57,160.623 71.635,162.018 73.769C162.292 74.207,162.319 74.261,162.319 74.48C162.319 74.945,161.991 75.219,161.58 75.219C161.443 75.219,161.252 75.192,161.088 75.082C160.075 74.48,158.954 74.179,157.832 74.179C156.847 74.179,155.862 74.425,154.932 74.891C154.822 74.945,154.658 75.027,154.576 75.082C154.412 75.192,154.22 75.219,154.084 75.219C153.673 75.219,153.345 74.945,153.345 74.48C153.345 74.261,153.372 74.207,153.646 73.769C155.041 71.635,156.245 68.625,156.956 65.588C157.148 64.795,157.121 64.822,157.257 64.658C157.312 64.576,157.476 64.466,157.586 64.439"/></g><g class="vf-notehead" id="vf-auto30025" pointer-events="bounding-box"><path stroke="none" d="M166.902 86.543C167.183 86.599,167.436 86.627,167.716 86.627C171.591 86.627,177.376 81.348,177.264 77.08C177.151 76.041,177.179 74.609,175.073 73.766C174.484 73.485,173.838 73.373,173.136 73.373C168.812 73.373,164.122 78.343,163.785 81.657C163.785 81.909,163.757 82.134,163.757 82.387C163.757 84.409,164.656 86.037,166.902 86.543"/></g><g class="vf-notehead" id="vf-auto30026" pointer-events="bounding-box"><path stroke="none" d="M166.902 76.543C167.183 76.599,167.436 76.627,167.716 76.627C171.591 76.627,177.376 71.348,177.264 67.08C177.151 66.041,177.179 64.609,175.073 63.766C174.484 63.485,173.838 63.373,173.136 63.373C168.812 63.373,164.122 68.343,163.785 71.657C163.785 71.909,163.757 72.134,163.757 72.387C163.757 74.409,164.656 76.037,166.902 76.543"/></g></g><g class="vf-stavenote" id="vf-auto30027"><path stroke-width="1.4" fill="none" stroke="#444" d="M213.251 90L232.759 90"/><g class="vf-stem" id="vf-auto30028" pointer-events="bounding-box"><path stroke-width="1.5" fill="none" d="M229.009 88L229.009 35"/></g><g class="vf-notehead" id="vf-auto30035" pointer-events="bounding-box"><path stroke="none" d="M219.396 96.543C219.676 96.599,219.929 96.627,220.21 96.627C224.085 96.627,229.87 91.348,229.757 87.08C229.645 86.041,229.673 84.609,227.567 83.766C226.977 83.485,226.331 83.373,225.629 83.373C221.305 83.373,216.616 88.343,216.279 91.657C216.279 91.909,216.251 92.134,216.251 92.387C216.251 94.409,217.149 96.037,219.396 96.543"/><rect x="209.251" y="65" width="1" height="25" stroke="none"/><path stroke="none" d="M206.208 83.974C206.263 83.947,206.345 83.919,206.427 83.919C206.591 83.919,206.756 83.974,206.947 84.111C207.029 84.165,207.248 84.275,207.412 84.33C208.288 84.767,209.218 84.959,210.176 84.959C211.297 84.959,212.419 84.685,213.404 84.111C213.596 84.001,213.787 83.947,213.951 83.947C214.334 83.947,214.663 84.22,214.663 84.685C214.663 84.904,214.635 84.959,214.362 85.397C212.966 87.531,211.735 90.595,211.051 93.605C210.914 94.234,210.887 94.289,210.832 94.371C210.695 94.644,210.422 94.781,210.176 94.781C209.929 94.781,209.683 94.644,209.519 94.371C209.464 94.316,209.437 94.234,209.355 93.796C208.671 90.677,207.44 87.585,205.989 85.397C205.716 84.959,205.688 84.904,205.688 84.685C205.688 84.357,205.907 84.056,206.208 83.974"/></g><g class="vf-notehead" id="vf-auto30036" pointer-events="bounding-box"><path stroke="none" d="M219.396 86.543C219.676 86.599,219.929 86.627,220.21 86.627C224.085 86.627,229.87 81.348,229.757 77.08C229.645 76.041,229.673 74.609,227.567 73.766C226.977 73.485,226.331 73.373,225.629 73.373C221.305 73.373,216.616 78.343,216.279 81.657C216.279 81.909,216.251 82.134,216.251 82.387C216.251 84.409,217.149 86.037,219.396 86.543"/></g><g class="vf-notehead" id="vf-auto30037" pointer-events="bounding-box"><path stroke="none" d="M219.396 76.543C219.676 76.599,219.929 76.627,220.21 76.627C224.085 76.627,229.87 71.348,229.757 67.08C229.645 66.041,229.673 64.609,227.567 63.766C226.977 63.485,226.331 63.373,225.629 63.373C221.305 63.373,216.616 68.343,216.279 71.657C216.279 71.909,216.251 72.134,216.251 72.387C216.251 74.409,217.149 76.037,219.396 76.543"/></g></g><g class="vf-stavenote" id="vf-auto30052"><path stroke-width="1.4" fill="none" stroke="#444" d="M274 90L293.508 90"/><g class="vf-stem" id="vf-auto30053" pointer-events="bounding-box"><path stroke-width="1.5" fill="none" d="M289.758 88L289.758 35"/></g><g class="vf-notehead" id="vf-auto30060" pointer-events="bounding-box"><path stroke="none" d="M280.145 96.543C280.426 96.599,280.678 96.627,280.959 96.627C284.834 96.627,290.619 91.348,290.506 87.08C290.394 86.041,290.422 84.609,288.316 83.766C287.727 83.485,287.081 83.373,286.379 83.373C282.054 83.373,277.365 88.343,277.028 91.657C277.028 91.909,277 92.134,277 92.387C277 94.409,277.899 96.037,280.145 96.543"/><path stroke="none" d="M269.776 74.849C269.83 74.849,269.858 74.795,269.885 74.795C270.077 74.795,270.268 74.986,270.87 75.643C271.937 76.874,272.238 77.394,272.238 78.133C272.238 78.215,272.238 78.242,272.238 78.324C272.211 79.2,271.8 79.966,270.815 80.978C270.159 81.662,269.612 82.456,269.365 83.003C269.338 83.085,269.311 83.194,269.311 83.304C269.311 83.687,269.529 84.152,269.967 84.644C270.131 84.836,270.186 84.973,270.186 85.055C270.186 85.137,270.159 85.164,270.077 85.246C270.049 85.301,269.967 85.301,269.94 85.301C269.83 85.301,269.721 85.219,269.529 85.027C268.435 83.988,267.86 83.14,267.669 82.62C267.614 82.401,267.587 82.127,267.587 81.908C267.587 81.06,268.025 80.157,269.01 79.118C269.666 78.434,270.241 77.64,270.46 77.148C270.542 77.038,270.542 76.929,270.542 76.819C270.542 76.436,270.296 75.971,269.858 75.479C269.666 75.26,269.639 75.205,269.639 75.15C269.639 75.096,269.639 75.096,269.639 75.068C269.639 74.959,269.721 74.877,269.776 74.849"/><path stroke="none" d="M269.776 84.849C269.83 84.849,269.858 84.795,269.885 84.795C270.077 84.795,270.268 84.986,270.87 85.643C271.937 86.874,272.238 87.394,272.238 88.133C272.238 88.215,272.238 88.242,272.238 88.324C272.211 89.2,271.8 89.966,270.815 90.978C270.159 91.662,269.612 92.456,269.365 93.003C269.338 93.085,269.311 93.194,269.311 93.304C269.311 93.687,269.529 94.152,269.967 94.644C270.131 94.836,270.186 94.973,270.186 95.055C270.186 95.137,270.159 95.164,270.077 95.246C270.049 95.301,269.967 95.301,269.94 95.301C269.83 95.301,269.721 95.219,269.529 95.027C268.435 93.988,267.86 93.14,267.669 92.62C267.614 92.401,267.587 92.127,267.587 91.908C267.587 91.06,268.025 90.157,269.01 89.118C269.666 88.434,270.241 87.64,270.46 87.148C270.542 87.038,270.542 86.929,270.542 86.819C270.542 86.436,270.296 85.971,269.858 85.479C269.666 85.26,269.639 85.205,269.639 85.15C269.639 85.096,269.639 85.096,269.639 85.068C269.639 84.959,269.721 84.877,269.776 84.849"/><path stroke="none" d="M270.679 65.439C270.761 65.412,270.815 65.412,270.897 65.412C271.116 65.412,271.363 65.494,271.499 65.658C271.636 65.822,271.636 65.822,271.8 66.561C272.484 69.57,273.716 72.635,275.111 74.769C275.384 75.207,275.412 75.261,275.412 75.48C275.412 75.945,275.084 76.219,274.673 76.219C274.536 76.219,274.345 76.192,274.181 76.082C273.168 75.48,272.047 75.179,270.925 75.179C269.94 75.179,268.955 75.425,268.025 75.891C267.915 75.945,267.751 76.027,267.669 76.082C267.505 76.192,267.313 76.219,267.176 76.219C266.766 76.219,266.438 75.945,266.438 75.48C266.438 75.261,266.465 75.207,266.739 74.769C268.134 72.635,269.338 69.625,270.049 66.588C270.241 65.795,270.213 65.822,270.35 65.658C270.405 65.576,270.569 65.466,270.679 65.439"/></g><g class="vf-notehead" id="vf-auto30061" pointer-events="bounding-box"><path stroke="none" d="M292.903 91.543C293.184 91.599,293.437 91.627,293.717 91.627C297.592 91.627,303.377 86.348,303.265 82.08C303.152 81.041,303.18 79.609,301.074 78.766C300.485 78.485,299.839 78.373,299.137 78.373C294.812 78.373,290.123 83.343,289.786 86.657C289.786 86.909,289.758 87.134,289.758 87.387C289.758 89.409,290.657 91.037,292.903 91.543"/></g><g class="vf-notehead" id="vf-auto30062" pointer-events="bounding-box"><path stroke="none" d="M280.145 76.543C280.426 76.599,280.678 76.627,280.959 76.627C284.834 76.627,290.619 71.348,290.506 67.08C290.394 66.041,290.422 64.609,288.316 63.766C287.727 63.485,287.081 63.373,286.379 63.373C282.054 63.373,277.365 68.343,277.028 71.657C277.028 71.909,277 72.134,277 72.387C277 74.409,277.899 76.037,280.145 76.543"/></g></g><g class="vf-stavenote" id="vf-auto30063"><path stroke-width="1.4" fill="none" stroke="#444" d="M347.503 90L367.011 90"/><g class="vf-stem" id="vf-auto30064" pointer-events="bounding-box"><path stroke-width="1.5" fill="none" d="M363.261 88L363.261 35"/></g><g class="vf-notehead" id="vf-auto30071" pointer-events="bounding-box"><path stroke="none" d="M353.648 96.543C353.929 96.599,354.181 96.627,354.462 96.627C358.337 96.627,364.122 91.348,364.009 87.08C363.897 86.041,363.925 84.609,361.819 83.766C361.23 83.485,360.584 83.373,359.882 83.373C355.557 83.373,350.868 88.343,350.531 91.657C350.531 91.909,350.503 92.134,350.503 92.387C350.503 94.409,351.402 96.037,353.648 96.543"/><path stroke="none" d="M343.279 64.849C343.333 64.849,343.361 64.795,343.388 64.795C343.58 64.795,343.771 64.986,344.373 65.643C345.44 66.874,345.741 67.394,345.741 68.133C345.741 68.215,345.741 68.242,345.741 68.324C345.714 69.2,345.303 69.966,344.318 70.978C343.662 71.662,343.115 72.456,342.868 73.003C342.841 73.085,342.814 73.194,342.814 73.304C342.814 73.687,343.032 74.152,343.47 74.644C343.634 74.836,343.689 74.973,343.689 75.055C343.689 75.137,343.662 75.164,343.58 75.246C343.552 75.301,343.47 75.301,343.443 75.301C343.333 75.301,343.224 75.219,343.032 75.027C341.938 73.988,341.363 73.14,341.172 72.62C341.117 72.401,341.09 72.127,341.09 71.908C341.09 71.06,341.528 70.157,342.513 69.118C343.169 68.434,343.744 67.64,343.963 67.148C344.045 67.038,344.045 66.929,344.045 66.819C344.045 66.436,343.799 65.971,343.361 65.479C343.169 65.26,343.142 65.205,343.142 65.15C343.142 65.096,343.142 65.096,343.142 65.068C343.142 64.959,343.224 64.877,343.279 64.849"/><path stroke="none" d="M343.279 74.849C343.333 74.849,343.361 74.795,343.388 74.795C343.58 74.795,343.771 74.986,344.373 75.643C345.44 76.874,345.741 77.394,345.741 78.133C345.741 78.215,345.741 78.242,345.741 78.324C345.714 79.2,345.303 79.966,344.318 80.978C343.662 81.662,343.115 82.456,342.868 83.003C342.841 83.085,342.814 83.194,342.814 83.304C342.814 83.687,343.032 84.152,343.47 84.644C343.634 84.836,343.689 84.973,343.689 85.055C343.689 85.137,343.662 85.164,343.58 85.246C343.552 85.301,343.47 85.301,343.443 85.301C343.333 85.301,343.224 85.219,343.032 85.027C341.938 83.988,341.363 83.14,341.172 82.62C341.117 82.401,341.09 82.127,341.09 81.908C341.09 81.06,341.528 80.157,342.513 79.118C343.169 78.434,343.744 77.64,343.963 77.148C344.045 77.038,344.045 76.929,344.045 76.819C344.045 76.436,343.799 75.971,343.361 75.479C343.169 75.26,343.142 75.205,343.142 75.15C343.142 75.096,343.142 75.096,343.142 75.068C343.142 74.959,343.224 74.877,343.279 74.849"/><path stroke="none" d="M339.461 84.974C339.515 84.947,339.597 84.919,339.679 84.919C339.844 84.919,340.008 84.974,340.199 85.111C340.281 85.165,340.5 85.275,340.664 85.33C341.54 85.767,342.47 85.959,343.428 85.959C344.55 85.959,345.671 85.685,346.656 85.111C346.848 85.001,347.039 84.947,347.203 84.947C347.587 84.947,347.915 85.22,347.915 85.685C347.915 85.904,347.887 85.959,347.614 86.397C346.219 88.531,344.987 91.595,344.303 94.605C344.167 95.234,344.139 95.289,344.084 95.371C343.948 95.644,343.674 95.781,343.428 95.781C343.182 95.781,342.935 95.644,342.771 95.371C342.716 95.316,342.689 95.234,342.607 94.796C341.923 91.677,340.692 88.585,339.242 86.397C338.968 85.959,338.941 85.904,338.941 85.685C338.941 85.357,339.16 85.056,339.461 84.974"/></g><g class="vf-notehead" id="vf-auto30072" pointer-events="bounding-box"><path stroke="none" d="M366.406 91.543C366.687 91.599,366.94 91.627,367.22 91.627C371.095 91.627,376.88 86.348,376.768 82.08C376.655 81.041,376.683 79.609,374.577 78.766C373.988 78.485,373.342 78.373,372.64 78.373C368.316 78.373,363.626 83.343,363.289 86.657C363.289 86.909,363.261 87.134,363.261 87.387C363.261 89.409,364.16 91.037,366.406 91.543"/></g><g class="vf-notehead" id="vf-auto30073" pointer-events="bounding-box"><path stroke="none" d="M353.648 76.543C353.929 76.599,354.181 76.627,354.462 76.627C358.337 76.627,364.122 71.348,364.009 67.08C363.897 66.041,363.925 64.609,361.819 63.766C361.23 63.485,360.584 63.373,359.882 63.373C355.557 63.373,350.868 68.343,350.531 71.657C350.531 71.909,350.503 72.134,350.503 72.387C350.503 74.409,351.402 76.037,353.648 76.543"/></g></g><g class="vf-stavenote" id="vf-auto30074"><path stroke-width="1.4" fill="none" stroke="#444" d="M421.006 90L440.514 90"/><g class="vf-stem" id="vf-auto30075" pointer-events="bounding-box"><path stroke-width="1.5" fill="none" d="M436.764 88L436.764 35"/></g><g class="vf-notehead" id="vf-auto30082" pointer-events="bounding-box"><path stroke="none" d="M427.151 96.543C427.432 96.599,427.685 96.627,427.965 96.627C431.84 96.627,437.625 91.348,437.513 87.08C437.4 86.041,437.428 84.609,435.322 83.766C434.733 83.485,434.087 83.373,433.385 83.373C429.06 83.373,424.371 88.343,424.034 91.657C424.034 91.909,424.006 92.134,424.006 92.387C424.006 94.409,424.905 96.037,427.151 96.543"/><path stroke="none" d="M416.782 74.849C416.836 74.849,416.864 74.795,416.891 74.795C417.083 74.795,417.274 74.986,417.876 75.643C418.943 76.874,419.244 77.394,419.244 78.133C419.244 78.215,419.244 78.242,419.244 78.324C419.217 79.2,418.806 79.966,417.821 80.978C417.165 81.662,416.618 82.456,416.371 83.003C416.344 83.085,416.317 83.194,416.317 83.304C416.317 83.687,416.535 84.152,416.973 84.644C417.137 84.836,417.192 84.973,417.192 85.055C417.192 85.137,417.165 85.164,417.083 85.246C417.055 85.301,416.973 85.301,416.946 85.301C416.836 85.301,416.727 85.219,416.535 85.027C415.441 83.988,414.867 83.14,414.675 82.62C414.62 82.401,414.593 82.127,414.593 81.908C414.593 81.06,415.031 80.157,416.016 79.118C416.672 78.434,417.247 77.64,417.466 77.148C417.548 77.038,417.548 76.929,417.548 76.819C417.548 76.436,417.302 75.971,416.864 75.479C416.672 75.26,416.645 75.205,416.645 75.15C416.645 75.096,416.645 75.096,416.645 75.068C416.645 74.959,416.727 74.877,416.782 74.849"/><path stroke="none" d="M416.782 84.849C416.836 84.849,416.864 84.795,416.891 84.795C417.083 84.795,417.274 84.986,417.876 85.643C418.943 86.874,419.244 87.394,419.244 88.133C419.244 88.215,419.244 88.242,419.244 88.324C419.217 89.2,418.806 89.966,417.821 90.978C417.165 91.662,416.618 92.456,416.371 93.003C416.344 93.085,416.317 93.194,416.317 93.304C416.317 93.687,416.535 94.152,416.973 94.644C417.137 94.836,417.192 94.973,417.192 95.055C417.192 95.137,417.165 95.164,417.083 95.246C417.055 95.301,416.973 95.301,416.946 95.301C416.836 95.301,416.727 95.219,416.535 95.027C415.441 93.988,414.867 93.14,414.675 92.62C414.62 92.401,414.593 92.127,414.593 91.908C414.593 91.06,415.031 90.157,416.016 89.118C416.672 88.434,417.247 87.64,417.466 87.148C417.548 87.038,417.548 86.929,417.548 86.819C417.548 86.436,417.302 85.971,416.864 85.479C416.672 85.26,416.645 85.205,416.645 85.15C416.645 85.096,416.645 85.096,416.645 85.068C416.645 84.959,416.727 84.877,416.782 84.849"/><path stroke="none" d="M417.685 65.439C417.767 65.412,417.821 65.412,417.903 65.412C418.122 65.412,418.369 65.494,418.505 65.658C418.642 65.822,418.642 65.822,418.806 66.561C419.49 69.57,420.722 72.635,422.117 74.769C422.391 75.207,422.418 75.261,422.418 75.48C422.418 75.945,422.09 76.219,421.679 76.219C421.542 76.219,421.351 76.192,421.187 76.082C420.174 75.48,419.053 75.179,417.931 75.179C416.946 75.179,415.961 75.425,415.031 75.891C414.921 75.945,414.757 76.027,414.675 76.082C414.511 76.192,414.319 76.219,414.183 76.219C413.772 76.219,413.444 75.945,413.444 75.48C413.444 75.261,413.471 75.207,413.745 74.769C415.14 72.635,416.344 69.625,417.055 66.588C417.247 65.795,417.219 65.822,417.356 65.658C417.411 65.576,417.575 65.466,417.685 65.439"/><text stroke="none" font-family="Times New Roman, serif" font-weight="bold" font-style="italic" x="412.006" y="107">R</text></g><g class="vf-notehead" id="vf-auto30083" pointer-events="bounding-box"><path stroke="none" d="M439.909 91.543C440.19 91.599,440.443 91.627,440.723 91.627C444.598 91.627,450.383 86.348,450.271 82.08C450.158 81.041,450.186 79.609,448.08 78.766C447.491 78.485,446.845 78.373,446.143 78.373C441.819 78.373,437.129 83.343,436.792 86.657C436.792 86.909,436.764 87.134,436.764 87.387C436.764 89.409,437.663 91.037,439.909 91.543"/></g><g class="vf-notehead" id="vf-auto30084" pointer-events="bounding-box"><path stroke="none" d="M427.151 76.543C427.432 76.599,427.685 76.627,427.965 76.627C431.84 76.627,437.625 71.348,437.513 67.08C437.4 66.041,437.428 64.609,435.322 63.766C434.733 63.485,434.087 63.373,433.385 63.373C429.06 63.373,424.371 68.343,424.034 71.657C424.034 71.909,424.006 72.134,424.006 72.387C424.006 74.409,424.905 76.037,427.151 76.543"/></g></g><g class="vf-stavenote" id="vf-auto30085"><path stroke-width="1.4" fill="none" stroke="#444" d="M495.312 90L514.821 90"/><g class="vf-stem" id="vf-auto30086" pointer-events="bounding-box"><path stroke-width="1.5" fill="none" d="M511.071 88L511.071 30"/></g><g class="vf-notehead" id="vf-auto30093" pointer-events="bounding-box"><path stroke="none" d="M501.457 96.543C501.738 96.599,501.991 96.627,502.272 96.627C506.147 96.627,511.931 91.348,511.819 87.08C511.707 86.041,511.735 84.609,509.629 83.766C509.039 83.485,508.393 83.373,507.691 83.373C503.367 83.373,498.677 88.343,498.341 91.657C498.341 91.909,498.312 92.134,498.312 92.387C498.312 94.409,499.211 96.037,501.457 96.543"/><path stroke="none" d="M453.798 59.849C453.853 59.849,453.88 59.795,453.907 59.795C454.099 59.795,454.29 59.986,454.892 60.643C455.959 61.874,456.26 62.394,456.26 63.133C456.26 63.215,456.26 63.242,456.26 63.324C456.233 64.2,455.823 64.966,454.838 65.978C454.181 66.662,453.634 67.456,453.387 68.003C453.36 68.085,453.333 68.194,453.333 68.304C453.333 68.687,453.552 69.152,453.989 69.644C454.154 69.836,454.208 69.973,454.208 70.055C454.208 70.137,454.181 70.164,454.099 70.246C454.071 70.301,453.989 70.301,453.962 70.301C453.853 70.301,453.743 70.219,453.552 70.027C452.457 68.988,451.883 68.14,451.691 67.62C451.636 67.401,451.609 67.127,451.609 66.908C451.609 66.06,452.047 65.157,453.032 64.118C453.688 63.434,454.263 62.64,454.482 62.148C454.564 62.038,454.564 61.929,454.564 61.819C454.564 61.436,454.318 60.971,453.88 60.479C453.688 60.26,453.661 60.205,453.661 60.15C453.661 60.096,453.661 60.096,453.661 60.068C453.661 59.959,453.743 59.877,453.798 59.849"/><path stroke="none" d="M453.798 69.849C453.853 69.849,453.88 69.795,453.907 69.795C454.099 69.795,454.29 69.986,454.892 70.643C455.959 71.874,456.26 72.394,456.26 73.133C456.26 73.215,456.26 73.242,456.26 73.324C456.233 74.2,455.823 74.966,454.838 75.978C454.181 76.662,453.634 77.456,453.387 78.003C453.36 78.085,453.333 78.194,453.333 78.304C453.333 78.687,453.552 79.152,453.989 79.644C454.154 79.836,454.208 79.973,454.208 80.055C454.208 80.137,454.181 80.164,454.099 80.246C454.071 80.301,453.989 80.301,453.962 80.301C453.853 80.301,453.743 80.219,453.552 80.027C452.457 78.988,451.883 78.14,451.691 77.62C451.636 77.401,451.609 77.127,451.609 76.908C451.609 76.06,452.047 75.157,453.032 74.118C453.688 73.434,454.263 72.64,454.482 72.148C454.564 72.038,454.564 71.929,454.564 71.819C454.564 71.436,454.318 70.971,453.88 70.479C453.688 70.26,453.661 70.205,453.661 70.15C453.661 70.096,453.661 70.096,453.661 70.068C453.661 69.959,453.743 69.877,453.798 69.849"/><path stroke="none" d="M453.798 79.849C453.853 79.849,453.88 79.795,453.907 79.795C454.099 79.795,454.29 79.986,454.892 80.643C455.959 81.874,456.26 82.394,456.26 83.133C456.26 83.215,456.26 83.242,456.26 83.324C456.233 84.2,455.823 84.966,454.838 85.978C454.181 86.662,453.634 87.456,453.387 88.003C453.36 88.085,453.333 88.194,453.333 88.304C453.333 88.687,453.552 89.152,453.989 89.644C454.154 89.836,454.208 89.973,454.208 90.055C454.208 90.137,454.181 90.164,454.099 90.246C454.071 90.301,453.989 90.301,453.962 90.301C453.853 90.301,453.743 90.219,453.552 90.027C452.457 88.988,451.883 88.14,451.691 87.62C451.636 87.401,451.609 87.127,451.609 86.908C451.609 86.06,452.047 85.157,453.032 84.118C453.688 83.434,454.263 82.64,454.482 82.148C454.564 82.038,454.564 81.929,454.564 81.819C454.564 81.436,454.318 80.971,453.88 80.479C453.688 80.26,453.661 80.205,453.661 80.15C453.661 80.096,453.661 80.096,453.661 80.068C453.661 79.959,453.743 79.877,453.798 79.849"/><path stroke="none" d="M449.98 89.974C450.035 89.947,450.117 89.919,450.199 89.919C450.363 89.919,450.527 89.974,450.719 90.111C450.801 90.165,451.019 90.275,451.184 90.33C452.059 90.767,452.989 90.959,453.947 90.959C455.069 90.959,456.191 90.685,457.175 90.111C457.367 90.001,457.559 89.947,457.723 89.947C458.106 89.947,458.434 90.22,458.434 90.685C458.434 90.904,458.407 90.959,458.133 91.397C456.738 93.531,455.507 96.595,454.823 99.605C454.686 100.234,454.658 100.289,454.604 100.371C454.467 100.644,454.193 100.781,453.947 100.781C453.701 100.781,453.455 100.644,453.29 100.371C453.236 100.316,453.208 100.234,453.126 99.796C452.442 96.677,451.211 93.585,449.761 91.397C449.487 90.959,449.46 90.904,449.46 90.685C449.46 90.357,449.679 90.056,449.98 89.974"/><text stroke="none" font-family="Times New Roman, serif" font-weight="bold" font-style="italic" x="449.022" y="57.5">R</text><path stroke="none" d="M482.344 98.673C482.672 98.673,482.891 98.482,483.137 98.235C484.122 97.332,484.834 96.183,485.545 95.089C486.256 93.967,486.968 92.791,487.624 91.642C487.597 92.326,487.542 92.955,487.542 93.584C487.542 94.405,487.597 95.198,487.706 96.019C487.734 96.375,487.706 96.566,488.254 96.731C488.938 96.895,489.129 96.512,489.403 96.238C491.263 94.46,492.549 92.326,493.89 90.192C494.847 88.687,495.312 87.045,495.312 85.267C495.312 83.735,494.984 82.23,493.507 81.6C493.096 81.464,492.713 81.382,492.358 81.382C491.619 81.382,490.907 81.655,490.223 82.148C490.032 82.284,489.923 82.503,489.676 82.503L489.649 82.503L489.649 74.514C489.649 73.994,489.704 73.502,489.512 73.009C489.403 72.818,489.512 72.435,489.211 72.435L489.156 72.435C488.883 72.462,488.445 72.599,488.39 72.982C488.254 73.42,488.171 73.858,488.089 74.268C487.953 75.691,487.898 77.113,487.898 78.564C487.898 80.15,487.953 81.737,487.953 83.352L487.953 84.884C487.187 83.844,486.448 83.488,485.654 83.488C484.998 83.488,484.232 83.817,483.493 84.172C483.493 83.981,483.466 83.844,483.466 83.735C483.493 82.941,483.52 82.148,483.52 81.382C483.52 79.439,483.411 77.469,483.383 75.554C483.383 75.034,483.301 74.514,483.11 74.076C482.973 73.858,483.028 73.502,482.699 73.502L482.617 73.502C482.262 73.584,481.879 73.639,481.797 74.131C481.715 74.514,481.687 74.897,481.687 75.308C481.687 75.499,481.687 75.745,481.715 75.937C481.824 77.086,481.879 78.18,481.879 79.33C481.879 82.284,481.605 85.239,481.55 88.194C481.523 90.328,481.167 92.49,481.167 94.596C481.167 95.636,481.249 96.621,481.496 97.633C481.605 98.044,481.55 98.427,481.988 98.591C482.125 98.673,482.234 98.673,482.344 98.673M489.403 91.97C489.43 91.231,489.43 90.52,489.43 89.808L489.43 87.647C489.485 86.689,489.95 86.033,490.771 85.677C491.044 85.54,491.373 85.458,491.646 85.458C492.166 85.458,492.631 85.704,493.069 86.088C493.233 86.224,493.343 86.388,493.343 86.525C493.343 86.662,493.315 86.772,493.233 86.881C492.029 88.659,490.853 90.383,489.403 91.97M483.219 94.022C483.219 92.353,483.219 90.793,483.165 89.179C483.165 88.304,483.684 87.921,484.396 87.756C484.56 87.702,484.669 87.702,484.779 87.702C485.435 87.702,485.928 88.112,486.366 88.577C486.42 88.659,486.448 88.769,486.448 88.906C486.448 88.988,486.448 89.042,486.42 89.097C485.463 90.821,484.587 92.599,483.219 94.022"/></g><g class="vf-notehead" id="vf-auto30094" pointer-events="bounding-box"><path stroke="none" d="M514.215 91.543C514.496 91.599,514.749 91.627,515.03 91.627C518.905 91.627,524.689 86.348,524.577 82.08C524.465 81.041,524.493 79.609,522.387 78.766C521.797 78.485,521.151 78.373,520.449 78.373C516.125 78.373,511.436 83.343,511.099 86.657C511.099 86.909,511.071 87.134,511.071 87.387C511.071 89.409,511.969 91.037,514.215 91.543"/><path stroke="none" d="M465.199 93.673C465.527 93.673,465.746 93.482,465.992 93.235C466.977 92.332,467.688 91.183,468.4 90.089C469.111 88.967,469.823 87.791,470.479 86.642C470.452 87.326,470.397 87.955,470.397 88.584C470.397 89.405,470.452 90.198,470.561 91.019C470.589 91.375,470.561 91.566,471.108 91.731C471.792 91.895,471.984 91.512,472.258 91.238C474.118 89.46,475.404 87.326,476.745 85.192C477.702 83.687,478.167 82.045,478.167 80.267C478.167 78.735,477.839 77.23,476.362 76.6C475.951 76.464,475.568 76.382,475.212 76.382C474.474 76.382,473.762 76.655,473.078 77.148C472.887 77.284,472.777 77.503,472.531 77.503L472.504 77.503L472.504 69.514C472.504 68.994,472.559 68.502,472.367 68.009C472.258 67.818,472.367 67.435,472.066 67.435L472.011 67.435C471.738 67.462,471.3 67.599,471.245 67.982C471.108 68.42,471.026 68.858,470.944 69.268C470.807 70.691,470.753 72.113,470.753 73.564C470.753 75.15,470.807 76.737,470.807 78.352L470.807 79.884C470.041 78.844,469.303 78.488,468.509 78.488C467.853 78.488,467.087 78.817,466.348 79.172C466.348 78.981,466.32 78.844,466.32 78.735C466.348 77.941,466.375 77.148,466.375 76.382C466.375 74.439,466.266 72.469,466.238 70.554C466.238 70.034,466.156 69.514,465.965 69.076C465.828 68.858,465.883 68.502,465.554 68.502L465.472 68.502C465.117 68.584,464.734 68.639,464.651 69.131C464.569 69.514,464.542 69.897,464.542 70.308C464.542 70.499,464.542 70.745,464.569 70.937C464.679 72.086,464.734 73.18,464.734 74.33C464.734 77.284,464.46 80.239,464.405 83.194C464.378 85.328,464.022 87.49,464.022 89.596C464.022 90.636,464.104 91.621,464.351 92.633C464.46 93.044,464.405 93.427,464.843 93.591C464.98 93.673,465.089 93.673,465.199 93.673M472.258 86.97C472.285 86.231,472.285 85.52,472.285 84.808L472.285 82.647C472.34 81.689,472.805 81.033,473.626 80.677C473.899 80.54,474.227 80.458,474.501 80.458C475.021 80.458,475.486 80.704,475.924 81.088C476.088 81.224,476.197 81.388,476.197 81.525C476.197 81.662,476.17 81.772,476.088 81.881C474.884 83.659,473.708 85.383,472.258 86.97M466.074 89.022C466.074 87.353,466.074 85.793,466.019 84.179C466.019 83.304,466.539 82.921,467.251 82.756C467.415 82.702,467.524 82.702,467.634 82.702C468.29 82.702,468.783 83.112,469.221 83.577C469.275 83.659,469.303 83.769,469.303 83.906C469.303 83.988,469.303 84.042,469.275 84.097C468.318 85.821,467.442 87.599,466.074 89.022"/></g><g class="vf-notehead" id="vf-auto30095" pointer-events="bounding-box"><path stroke="none" d="M501.457 71.543C501.738 71.599,501.991 71.627,502.272 71.627C506.147 71.627,511.931 66.348,511.819 62.08C511.707 61.041,511.735 59.609,509.629 58.766C509.039 58.485,508.393 58.373,507.691 58.373C503.367 58.373,498.677 63.343,498.341 66.657C498.341 66.909,498.312 67.134,498.312 67.387C498.312 69.409,499.211 71.037,501.457 71.543"/><path stroke="none" d="M482.344 73.673C482.672 73.673,482.891 73.482,483.137 73.235C484.122 72.332,484.834 71.183,485.545 70.089C486.256 68.967,486.968 67.791,487.624 66.642C487.597 67.326,487.542 67.955,487.542 68.584C487.542 69.405,487.597 70.198,487.706 71.019C487.734 71.375,487.706 71.566,488.254 71.731C488.938 71.895,489.129 71.512,489.403 71.238C491.263 69.46,492.549 67.326,493.89 65.192C494.847 63.687,495.312 62.045,495.312 60.267C495.312 58.735,494.984 57.23,493.507 56.6C493.096 56.464,492.713 56.382,492.358 56.382C491.619 56.382,490.907 56.655,490.223 57.148C490.032 57.284,489.923 57.503,489.676 57.503L489.649 57.503L489.649 49.514C489.649 48.994,489.704 48.502,489.512 48.009C489.403 47.818,489.512 47.435,489.211 47.435L489.156 47.435C488.883 47.462,488.445 47.599,488.39 47.982C488.254 48.42,488.171 48.858,488.089 49.268C487.953 50.691,487.898 52.113,487.898 53.564C487.898 55.15,487.953 56.737,487.953 58.352L487.953 59.884C487.187 58.844,486.448 58.488,485.654 58.488C484.998 58.488,484.232 58.817,483.493 59.172C483.493 58.981,483.466 58.844,483.466 58.735C483.493 57.941,483.52 57.148,483.52 56.382C483.52 54.439,483.411 52.469,483.383 50.554C483.383 50.034,483.301 49.514,483.11 49.076C482.973 48.858,483.028 48.502,482.699 48.502L482.617 48.502C482.262 48.584,481.879 48.639,481.797 49.131C481.715 49.514,481.687 49.897,481.687 50.308C481.687 50.499,481.687 50.745,481.715 50.937C481.824 52.086,481.879 53.18,481.879 54.33C481.879 57.284,481.605 60.239,481.55 63.194C481.523 65.328,481.167 67.49,481.167 69.596C481.167 70.636,481.249 71.621,481.496 72.633C481.605 73.044,481.55 73.427,481.988 73.591C482.125 73.673,482.234 73.673,482.344 73.673M489.403 66.97C489.43 66.231,489.43 65.52,489.43 64.808L489.43 62.647C489.485 61.689,489.95 61.033,490.771 60.677C491.044 60.54,491.373 60.458,491.646 60.458C492.166 60.458,492.631 60.704,493.069 61.088C493.233 61.224,493.343 61.388,493.343 61.525C493.343 61.662,493.315 61.772,493.233 61.881C492.029 63.659,490.853 65.383,489.403 66.97M483.219 69.022C483.219 67.353,483.219 65.793,483.165 64.179C483.165 63.304,483.684 62.921,484.396 62.756C484.56 62.702,484.669 62.702,484.779 62.702C485.435 62.702,485.928 63.112,486.366 63.577C486.42 63.659,486.448 63.769,486.448 63.906C486.448 63.988,486.448 64.042,486.42 64.097C485.463 65.821,484.587 67.599,483.219 69.022"/></g></g></svg>