<svg xmlns="http://www.w3.org/2000/svg" stroke-width="0.3" stroke-dasharray="none" fill="black" stroke="black" font-family="Arial, sans-serif" font-size="10pt" font-weight="normal" font-style="normal" width="600" height="200" viewBox="0 0 600 200" style="width: 600px; height: 200px; border: none;"><g class="vf-stave" id="vf-auto9999" stroke-width="1" fill="#999999" stroke="#999999"><path fill="none" d="M0 72L590 72"/><path fill="none" d="M0 85L590 85"/><path fill="none" d="M0 98L590 98"/><path fill="none" d="M0 111L590 111"/><path fill="none" d="M0 124L590 124"/><path fill="none" d="M0 137L590 137"/></g><g class="vf-stavebarline" id="vf-auto10000"><rect y="71.5" width="1" height="66" stroke="none"/></g><g class="vf-stavebarline" id="vf-auto10001"><rect x="590" y="71.5" width="1" height="66" stroke="none"/></g><g class="vf-tabnote" id="vf-auto10002" pointer-events="bounding-box"><rect x="18.703" y="95" width="11.422" height="6" fill="#FFF" stroke="none"/><text stroke="none" x="20.703" y="103">6</text><rect x="15" y="108" width="18.828" height="6" fill="#FFF" stroke="none"/><text stroke="none" x="17" y="116">25</text><g class="vf-stem" id="vf-auto10003" pointer-events="bounding-box"><path stroke-width="1.5" fill="none" d="M24.414 63.5L24.414 30.5"/></g></g><g class="vf-tabnote" id="vf-auto10004" pointer-events="bounding-box"><rect x="87.323" y="82" width="18.828" height="6" fill="#FFF" stroke="none"/><text stroke="none" x="89.323" y="90">10</text><rect x="87.323" y="121" width="18.828" height="6" fill="#FFF" stroke="none"/><text stroke="none" x="89.323" y="129">12</text></g><g class="vf-tabnote" id="vf-auto10007" pointer-events="bounding-box"><rect x="141.435" y="69" width="11.422" height="6" fill="#FFF" stroke="none"/><text stroke="none" x="143.435" y="77">6</text><rect x="141.435" y="108" width="11.422" height="6" fill="#FFF" stroke="none"/><text stroke="none" x="143.435" y="116">5</text></g><g class="vf-tabnote" id="vf-auto10010" pointer-events="bounding-box"><rect x="195.547" y="69" width="11.422" height="6" fill="#FFF" stroke="none"/><text stroke="none" x="197.547" y="77">6</text><rect x="195.547" y="108" width="11.422" height="6" fill="#FFF" stroke="none"/><text stroke="none" x="197.547" y="116">5</text></g><g class="vf-tabnote" id="vf-auto10013" pointer-events="bounding-box"><rect x="242.353" y="69" width="11.422" height="6" fill="#FFF" stroke="none"/><text stroke="none" x="244.353" y="77">6</text><rect x="242.353" y="108" width="11.422" height="6" fill="#FFF" stroke="none"/><text stroke="none" x="244.353" y="116">5</text></g><g class="vf-tabnote" id="vf-auto10016" pointer-events="bounding-box"><rect x="285.884" y="69" width="11.422" height="6" fill="#FFF" stroke="none"/><text stroke="none" x="287.884" y="77">6</text><rect x="285.884" y="108" width="11.422" height="6" fill="#FFF" stroke="none"/><text stroke="none" x="287.884" y="116">5</text></g><g class="vf-tabnote" id="vf-auto10019" pointer-events="bounding-box"><rect x="327.866" y="69" width="11.422" height="6" fill="#FFF" stroke="none"/><text stroke="none" x="329.866" y="77">6</text><rect x="327.866" y="108" width="11.422" height="6" fill="#FFF" stroke="none"/><text stroke="none" x="329.866" y="116">5</text></g><g class="vf-tabnote" id="vf-auto10022" pointer-events="bounding-box"><rect x="369.093" y="95" width="11.422" height="6" fill="#FFF" stroke="none"/><text stroke="none" x="371.093" y="103">6</text><g class="vf-stem" id="vf-auto10023" pointer-events="bounding-box"><path stroke-width="1.5" fill="none" d="M374.804 63.5L374.804 30.5"/></g><path stroke="none" d="M374.054 39.682C374.054 39.794,374.082 39.991,374.391 40.131C376.104 40.693,379.585 42.883,382.225 47.348C382.955 48.612,384.134 50.353,384.134 53.722C384.134 56.614,383.348 59.619,382.309 62.511C382.225 62.764,382.141 62.96,382.169 63.129C382.169 63.297,382.225 63.41,382.393 63.494C382.478 63.522,382.534 63.522,382.59 63.522C382.871 63.522,383.067 63.382,383.236 63.101C385.145 59.731,385.791 55.435,385.735 52.908C385.735 52.711,385.735 52.571,385.735 52.402C385.538 47.208,382.534 43.361,382.534 43.361C382.674 43.361,378.827 38.39,377.732 36.678C376.244 34.375,375.542 32.072,375.458 31.904C375.43 31.792,375.065 30.332,375.065 30.332C375.037 30.163,374.812 30.023,374.587 30.023C374.306 30.023,374.054 30.247,374.054 30.528"/></g><g class="vf-tabnote" id="vf-auto10025" pointer-events="bounding-box"><rect x="423.205" y="95" width="11.422" height="6" fill="#FFF" stroke="none"/><text stroke="none" x="425.205" y="103">6</text></g><g class="vf-tabnote" id="vf-auto10028" pointer-events="bounding-box"><rect x="472.329" y="95" width="11.422" height="6" fill="#FFF" stroke="none"/><text stroke="none" x="474.329" y="103">6</text></g><g class="vf-tabnote" id="vf-auto10031" pointer-events="bounding-box"><rect x="521.454" y="95" width="11.422" height="6" fill="#FFF" stroke="none"/><text stroke="none" x="523.454" y="103">6</text></g><g class="vf-stem" id="vf-auto10005" pointer-events="bounding-box"><path stroke-width="1.5" fill="none" d="M96.737 63.5L96.737 31.25"/></g><g class="vf-stem" id="vf-auto10008" pointer-events="bounding-box"><path stroke-width="1.5" fill="none" d="M147.146 63.5L147.146 31.25"/></g><g class="vf-stem" id="vf-auto10011" pointer-events="bounding-box"><path stroke-width="1.5" fill="none" d="M201.258 63.5L201.258 31.25"/></g><g class="vf-stem" id="vf-auto10014" pointer-events="bounding-box"><path stroke-width="1.5" fill="none" d="M248.064 63.5L248.064 31.25"/></g><g class="vf-stem" id="vf-auto10017" pointer-events="bounding-box"><path stroke-width="1.5" fill="none" d="M291.595 63.5L291.595 31.25"/></g><g class="vf-stem" id="vf-auto10020" pointer-events="bounding-box"><path stroke-width="1.5" fill="none" d="M333.577 63.5L333.577 31.25"/></g><g class="vf-beam" id="vf-auto10034"><path stroke="none" d="M95.987 30.5L95.987 35.5L333.827 35.5L333.827 30.5Z"/><path stroke="none" d="M200.508 38L200.508 43L333.827 43L333.827 38Z"/><path stroke="none" d="M247.314 45.5L247.314 50.5L333.827 50.5L333.827 45.5Z"/><path stroke="none" d="M290.845 53L290.845 58L333.827 58L333.827 53Z"/><path stroke="none" d="M332.827 60.5L332.827 65.5L323.827 65.5L323.827 60.5Z"/></g><g class="vf-stem" id="vf-auto10026" pointer-events="bounding-box"><path stroke-width="1.5" fill="none" d="M428.916 63.5L428.916 31.25"/></g><g class="vf-stem" id="vf-auto10029" pointer-events="bounding-box"><path stroke-width="1.5" fill="none" d="M478.04 63.5L478.04 31.25"/></g><g class="vf-stem" id="vf-auto10032" pointer-events="bounding-box"><path stroke-width="1.5" fill="none" d="M527.165 63.5L527.165 31.25"/></g><g class="vf-beam" id="vf-auto10035"><path stroke="none" d="M428.166 30.5L428.166 35.5L527.415 35.5L527.415 30.5Z"/></g><path stroke="none" d="M472.627 19.469C474.449 18.756,474.559 17.568,474.559 17.172C474.559 17.125,474.559 17.077,474.559 17.045C474.559 16.84,474.496 14.273,470.568 14.273C466.639 14.273,466.766 17.045,466.766 17.045L466.782 17.045L466.766 17.093C466.766 17.917,467.416 18.55,468.239 18.55C469.063 18.55,469.697 17.917,469.697 17.093C469.697 16.428,469.206 15.794,468.556 15.652C468.588 15.636,468.604 15.62,468.635 15.588C468.952 15.366,469.38 15.256,469.823 15.256C470.774 15.256,471.803 15.826,471.803 17.045C471.803 18.487,470.726 18.693,470.457 18.74C470.188 18.788,468.905 18.883,468.635 18.883C468.35 18.883,468.334 19.2,468.334 19.2L468.334 19.643C468.334 19.643,468.382 19.897,468.635 19.928C469.015 19.944,469.538 19.944,470.267 20.055C471.281 20.198,471.803 20.879,471.803 22.479C471.803 24.015,470.774 24.411,469.823 24.411C469.174 24.411,468.588 24.237,468.334 24.047C469.079 24.015,469.697 23.35,469.697 22.589C469.697 21.766,469.063 21.116,468.239 21.116C467.416 21.116,466.766 21.766,466.766 22.589C466.766 22.589,466.766 22.637,466.766 22.685C466.766 22.985,466.83 23.809,467.653 24.554C468.54 25.377,469.649 25.393,470.156 25.393C472.342 25.393,474.718 24.649,474.718 22.162C474.718 20.499,473.577 19.786,472.579 19.469"/><path stroke="none" d="M479.21 18.74 A1.32 1.32 0 0 0 476.57 18.74 A1.32 1.32 0 0 0 479.21 18.74Z"/><path stroke="none" d="M479.21 23.14 A1.32 1.32 0 0 0 476.57 23.14 A1.32 1.32 0 0 0 479.21 23.14Z"/><path stroke="none" d="M489.203 20.72C489.029 21.227,488.57 22.875,487.461 22.875C485.972 22.875,485.655 21.956,484.419 21.956C484.245 21.956,484.055 21.972,483.833 22.019C483.833 22.019,484.404 21.164,486.811 20.404C489.235 19.643,489.853 18.471,489.853 17.093C489.853 16.143,489.409 14.242,485.972 14.242C482.534 14.242,481.885 16.317,481.885 17.362C481.885 18.313,482.661 19.057,483.596 19.057C484.53 19.057,485.291 18.313,485.291 17.362C485.291 16.729,484.831 16.032,484.245 15.794C484.166 15.778,484.071 15.652,484.071 15.541C484.071 15.414,484.198 15.256,484.61 15.129C484.72 15.081,485.037 15.018,485.386 15.018C485.702 15.018,486.067 15.081,486.336 15.271C486.764 15.541,486.922 15.953,486.922 16.982C486.922 19.643,483.754 20.213,482.439 22.209C482.439 22.209,481.758 23.16,481.758 24.237C481.758 25.314,482.297 25.377,482.566 25.377C482.93 25.377,483.326 25.076,483.326 24.665C483.326 24.585,483.311 24.49,483.263 24.379C483.121 24.047,483.073 23.809,483.073 23.619C483.073 23.556,483.073 23.477,483.105 23.413C483.121 23.271,483.311 23.049,483.849 23.049C484.514 23.049,484.768 23.825,485.18 24.411C485.592 25.013,486.225 25.377,486.954 25.377C487.682 25.377,488.665 24.855,489.076 24.015C489.488 23.16,490.011 21.449,490.011 20.831C490.011 20.546,489.821 20.404,489.615 20.404C489.457 20.404,489.298 20.499,489.203 20.72"/></svg>