<svg xmlns="http://www.w3.org/2000/svg" stroke-width="0.3" stroke-dasharray="none" fill="black" stroke="black" font-family="Arial, sans-serif" font-size="10pt" font-weight="normal" font-style="normal" width="440" height="140" viewBox="0 0 440 140" style="width: 440px; height: 140px; border: none;"><g class="vf-stave" id="vf-auto19117" stroke-width="1" fill="#999999" stroke="#999999" font-family="Arial"><path fill="none" d="M10 62L450 62"/><path fill="none" d="M10 75L450 75"/><path fill="none" d="M10 88L450 88"/><path fill="none" d="M10 101L450 101"/><path fill="none" d="M10 114L450 114"/><path fill="none" d="M10 127L450 127"/></g><g class="vf-stavebarline" id="vf-auto19118" font-family="Arial"><rect x="10" y="61.5" width="1" height="66" stroke="none"/></g><g class="vf-stavebarline" id="vf-auto19119" font-family="Arial"><rect x="450" y="61.5" width="1" height="66" stroke="none"/></g><g class="vf-clef" id="vf-auto19120" font-family="Arial"><path stroke="none" d="M16.198 70.755L16.198 73.428L20.737 73.428L20.737 85.846L23.916 85.846L23.916 73.428L28.432 73.428L28.432 70.755M15 103.172L18.341 103.172L19.424 100.016L25.045 100.016L26.082 103.172L29.561 103.172L24.124 87.805L20.484 87.805M22.258 91.33L24.216 97.366L20.276 97.366M28.041 106.421C27.234 105.361,25.944 104.785,24.055 104.762L16.636 104.762L16.636 120.153L23.571 120.153C23.594 120.153,23.594 120.153,23.617 120.153C24.331 120.153,25.022 120.084,25.714 119.945C26.382 119.83,26.981 119.531,27.465 119.162C27.902 118.816,28.248 118.425,28.548 117.964C29.008 117.227,29.239 116.397,29.239 115.499C29.239 114.6,29.031 113.886,28.64 113.241C28.248 112.619,27.649 112.181,26.843 111.881C27.372 111.628,27.764 111.352,28.041 111.029C28.501 110.453,28.732 109.693,28.732 108.771C28.732 107.849,28.501 107.089,28.041 106.421M23.018 107.435C23.755 107.435,24.4 107.504,24.861 107.665C25.414 107.919,25.691 108.379,25.691 109.094C25.691 109.762,25.483 110.2,25.045 110.453C24.631 110.729,24.101 110.822,23.433 110.822L19.677 110.822L19.677 107.435M23.456 113.379C24.124 113.379,24.654 113.471,25.022 113.656C25.691 113.955,25.99 114.485,25.99 115.268C25.99 116.236,25.644 116.858,24.976 117.204C24.631 117.365,24.101 117.457,23.433 117.457L19.677 117.457L19.677 113.379"/></g><g class="vf-tabnote" id="vf-auto19121" pointer-events="bounding-box" font-family="Arial"><rect x="39.561" y="98" width="11.422" height="6" fill="#FFF" stroke="none"/><text stroke="none" font-family="Arial, sans-serif" x="41.561" y="106">4</text></g><g class="vf-tabnote" id="vf-auto19124" pointer-events="bounding-box" font-family="Arial"><rect x="79.155" y="98" width="11.422" height="6" fill="#FFF" stroke="none"/><text stroke="none" font-family="Arial, sans-serif" x="81.155" y="106">4</text></g><g class="vf-tabnote" id="vf-auto19127" pointer-events="bounding-box" font-family="Arial"><rect x="118.749" y="98" width="11.422" height="6" fill="#FFF" stroke="none"/><text stroke="none" font-family="Arial, sans-serif" x="120.749" y="106">4</text><rect x="118.749" y="111" width="11.422" height="6" fill="#FFF" stroke="none"/><text stroke="none" font-family="Arial, sans-serif" x="120.749" y="119">4</text></g><g class="vf-tabnote" id="vf-auto19130" pointer-events="bounding-box" font-family="Arial"><rect x="158.343" y="98" width="11.422" height="6" fill="#FFF" stroke="none"/><text stroke="none" font-family="Arial, sans-serif" x="160.343" y="106">6</text><rect x="158.343" y="111" width="11.422" height="6" fill="#FFF" stroke="none"/><text stroke="none" font-family="Arial, sans-serif" x="160.343" y="119">6</text></g><g class="vf-tabnote" id="vf-auto19133" pointer-events="bounding-box" font-family="Arial"><rect x="197.936" y="72" width="18.828" height="6" fill="#FFF" stroke="none"/><text stroke="none" font-family="Arial, sans-serif" x="199.936" y="80">14</text></g><g class="vf-tabnote" id="vf-auto19136" pointer-events="bounding-box" font-family="Arial"><rect x="237.53" y="72" width="18.828" height="6" fill="#FFF" stroke="none"/><text stroke="none" font-family="Arial, sans-serif" x="239.53" y="80">16</text></g><g class="vf-tabnote" id="vf-auto19139" pointer-events="bounding-box" font-family="Arial"><rect x="277.124" y="72" width="18.828" height="6" fill="#FFF" stroke="none"/><text stroke="none" font-family="Arial, sans-serif" x="279.124" y="80">14</text><rect x="277.124" y="85" width="18.828" height="6" fill="#FFF" stroke="none"/><text stroke="none" font-family="Arial, sans-serif" x="279.124" y="93">14</text></g><g class="vf-tabnote" id="vf-auto19142" pointer-events="bounding-box" font-family="Arial"><rect x="316.718" y="72" width="18.828" height="6" fill="#FFF" stroke="none"/><text stroke="none" font-family="Arial, sans-serif" x="318.718" y="80">16</text><rect x="316.718" y="85" width="18.828" height="6" fill="#FFF" stroke="none"/><text stroke="none" font-family="Arial, sans-serif" x="318.718" y="93">16</text></g><g class="vf-stavetie" id="vf-auto19146" font-family="Arial"><path stroke="none" d="M50.983 98Q65.069 89,79.155 98Q65.069 87,50.983 98Z"/></g><text stroke="none" x="60.616" y="48">P</text><g class="vf-stavetie" id="vf-auto19147" font-family="Arial"><path stroke="none" d="M130.171 98Q144.257 89,158.343 98Q144.257 87,130.171 98Z"/><path stroke="none" d="M130.171 111Q144.257 102,158.343 111Q144.257 100,130.171 111Z"/></g><text stroke="none" x="139.803" y="48">P</text><g class="vf-stavetie" id="vf-auto19148" font-family="Arial"><path stroke="none" d="M216.764 72Q227.147 63,237.53 72Q227.147 61,216.764 72Z"/></g><text stroke="none" x="222.694" y="48">P</text><g class="vf-stavetie" id="vf-auto19149" font-family="Arial"><path stroke="none" d="M295.952 72Q306.335 63,316.718 72Q306.335 61,295.952 72Z"/><path stroke="none" d="M295.952 85Q306.335 76,316.718 85Q306.335 74,295.952 85Z"/></g><text stroke="none" x="301.882" y="48">P</text></svg>