<svg xmlns="http://www.w3.org/2000/svg" stroke-width="0.3" stroke-dasharray="none" fill="black" stroke="black" font-family="Arial, sans-serif" font-size="10pt" font-weight="normal" font-style="normal" width="750" height="300" viewBox="0 0 750 300" style="width: 750px; height: 300px; border: none;"><g class="vf-stave" id="vf-auto1483" stroke-width="1" fill="#999999" stroke="#999999"><path fill="none" d="M10 90L760 90"/><path fill="none" d="M10 100L760 100"/><path fill="none" d="M10 110L760 110"/><path fill="none" d="M10 120L760 120"/><path fill="none" d="M10 130L760 130"/></g><g class="vf-stavebarline" id="vf-auto1484"><rect x="10" y="89.5" width="1" height="41" stroke="none"/></g><g class="vf-stavebarline" id="vf-auto1485"><rect x="760" y="89.5" width="1" height="41" stroke="none"/></g><g class="vf-clef" id="vf-auto1486"><path stroke="none" d="M23.693 141.402C23.87 141.402,24.048 141.377,24.276 141.301C24.707 141.148,25.062 140.92,25.366 140.591C28.382 137.423,29.623 133.596,29.75 129.313C29.75 128.983,29.776 128.451,29.776 128.451C29.776 128.451,30.282 128.147,30.511 128.071C31.727 127.488,32.893 126.829,33.932 125.993C36.72 123.762,38.316 120.747,39.051 117.376C39.204 116.844,39.229 116.286,39.229 115.779C39.229 113.473,37.962 111.8,35.047 111.268C34.312 111.116,33.577 111.04,32.842 111.04C31.017 111.04,29.269 111.521,27.621 112.484C27.419 112.611,27.19 112.763,27.19 112.763L26.253 109.215C26.202 109.038,26.202 108.708,26.202 108.708C26.202 108.708,29.928 102.093,30.434 98.697C30.612 97.709,30.688 96.72,30.688 95.757C30.688 94.972,30.663 94.237,30.536 93.527C30.181 90.891,29.193 88.408,28.534 85.848C28.356 85.088,28.103 84.175,27.216 84.175C26.557 84.175,26.101 84.809,25.695 85.341C23.82 87.926,22.907 90.891,22.73 94.059C22.705 94.566,22.705 95.098,22.705 95.605C22.705 98.545,23.186 101.51,23.566 104.425C23.566 104.653,23.642 104.881,23.693 105.059C22.046 107.39,20.221 109.57,18.65 111.978C17.56 113.701,16.343 115.424,15.583 117.35C15.177 118.288,15 119.403,15 120.493C15 122.749,15.76 125.055,17.078 126.322C17.839 127.057,19.055 127.868,20.246 128.299C21.944 128.907,23.617 129.313,25.391 129.313C25.923 129.313,26.455 129.287,27.013 129.211L27.444 129.135C27.444 129.135,27.469 129.465,27.444 129.642C27.038 131.847,26.506 134.001,25.188 135.826C24.479 136.764,23.82 137.828,22.451 137.93C22.046 137.98,21.868 138.234,21.868 138.563C21.868 138.69,21.894 138.817,21.944 138.944C22.147 139.501,22.4 140.084,22.654 140.642C22.882 141.148,23.237 141.402,23.693 141.402M25.138 102.828C24.859 101.08,24.681 99.356,24.681 97.633C24.681 94.465,25.34 91.373,27.19 88.408C27.621 89.751,27.849 91.119,27.849 92.488C27.849 93.198,27.773 93.933,27.672 94.642C27.19 97.506,26.532 100.269,25.138 102.828M21.387 124.421C20.88 124.396,20.449 124.219,19.967 124.067C19.004 123.737,18.219 123.382,17.965 122.749C17.839 122.47,17.813 122.14,17.813 121.811C17.813 121.406,17.889 120.975,17.965 120.518C17.991 120.316,18.219 119.682,18.295 119.581C19.714 117.046,21.412 114.765,23.211 112.459L24.732 110.457L25.011 111.268C25.29 112.18,25.543 113.625,25.543 113.625C25.543 113.625,24.529 114.943,23.87 115.602C22.046 117.376,21.159 119.606,21.159 122.064C21.159 122.673,21.235 123.306,21.361 123.965C21.387 124.092,21.387 124.219,21.387 124.421M29.269 123.306C28.99 120.924,28.432 119.023,27.925 116.742C27.875 116.463,27.875 116.286,28.001 116.134C28.939 115.957,29.852 115.881,30.815 115.881C31.727 115.881,32.589 115.957,33.501 116.134C34.591 116.362,35.681 116.539,36.542 117.426C36.593 117.503,36.669 117.579,36.745 117.604C35.301 120.518,33.146 122.723,30.08 124.067L29.421 124.32M25.391 125.055C24.124 125.055,22.882 124.726,22.882 124.726C22.882 124.726,22.781 124.219,22.781 123.484C22.781 123.002,22.806 122.419,22.958 121.836C23.313 120.088,24.555 118.846,25.873 117.68C25.974 117.579,26.101 117.503,26.177 117.503C26.303 117.503,26.354 117.655,26.379 117.908C26.709 120.062,27.266 122.166,27.419 124.32C27.444 124.548,27.419 124.878,27.419 124.878C27.419 124.878,26.455 125.131,25.391 125.055"/></g><g class="vf-stavenote" id="vf-auto1487"><g class="vf-stem" id="vf-auto1488" pointer-events="bounding-box"><path stroke-width="1.5" fill="none" d="M67.454 123L67.454 90"/></g><g class="vf-notehead" id="vf-auto1490" pointer-events="bounding-box"><path stroke="none" d="M57.841 131.543C58.122 131.599,58.375 131.627,58.656 131.627C62.531 131.627,68.315 126.348,68.203 122.08C68.09 121.041,68.119 119.609,66.013 118.766C65.423 118.485,64.777 118.373,64.075 118.373C59.751 118.373,55.061 123.343,54.724 126.657C54.724 126.909,54.696 127.134,54.696 127.387C54.696 129.409,55.595 131.037,57.841 131.543"/><path stroke="none" d="M60.653 151.852C62.24 151.496,63.608 150.785,64.922 149.882C67.794 147.912,69.327 144.985,70.749 141.948C71.406 140.607,71.762 139.212,71.652 137.707C71.597 137.269,71.597 136.64,71.132 136.64C70.695 136.64,70.229 136.886,70.065 137.433C70.038 137.652,69.929 137.816,69.792 138.008C68.971 140.033,67.959 141.92,66.618 143.617C65.359 145.231,63.773 146.408,61.83 147.037C61.283 147.228,60.736 147.31,60.216 147.31C58.738 147.31,57.398 146.599,56.166 145.587C54.279 144.055,53.129 142.194,53.129 139.923C53.129 139.403,53.184 138.884,53.294 138.336C53.376 137.789,53.54 137.187,53.54 136.613C53.54 136.448,53.54 136.257,53.485 136.093C53.403 135.737,53.485 135.135,53.102 135.053C52.582 135.026,52.145 135.354,51.953 135.901C51.898 136.093,51.844 136.257,51.789 136.448C51.488 137.953,51.16 139.431,51.242 141.127C51.269 144.547,51.98 147.83,55.099 150.156C56.495 151.168,57.89 151.962,59.559 151.962C59.915 151.962,60.27 151.934,60.653 151.852M62.596 140.224C62.979 140.279,63.143 140.06,63.143 139.321C63.143 137.379,61.611 135.764,59.669 135.764C59.094 135.764,58.684 135.983,58.656 136.284C58.601 136.531,58.601 136.722,58.601 136.914C58.601 138.528,59.504 139.677,61.201 140.033"/><path stroke="none" d="M59.918 169.487C59.946 169.487,59.946 169.487,60 169.46C60.821 169.323,61.614 169.323,62.435 169.241C62.873 169.213,63.147 168.885,63.147 168.557C63.229 167.9,63.338 167.244,63.338 166.532C63.338 166.341,63.338 166.149,63.311 165.93C63.229 165.301,62.982 165,62.517 165C62.408 165,62.271 165,62.162 165.027C61.614 165.109,61.013 165.192,60.465 165.301C60.11 165.383,59.727 165.547,59.672 165.985C59.59 166.997,59.562 168.037,59.562 169.049C59.562 169.241,59.59 169.487,59.918 169.487"/><path stroke="none" d="M55.928 172.435C56.448 172.435,57.077 172.408,57.57 172.408C59.512 172.408,61.428 172.271,63.37 172.271C63.999 172.271,64.738 172.271,65.367 172.326C66.079 172.353,66.79 172.435,67.392 172.435C68.268 172.435,69.17 172.353,69.991 172.161C70.292 172.107,70.73 172.161,70.73 171.696C70.785 171.204,70.566 170.985,70.073 170.821C68.76 170.438,67.501 170.438,66.161 170.383C63.835 170.301,61.51 170.219,59.157 170.219C58.254 170.219,57.46 170.274,56.557 170.274L53.165 170.274C52.836 170.301,52.371 170.109,52.207 170.492C52.098 170.903,52.426 171.259,52.7 171.56C52.891 171.751,53.165 171.888,53.411 171.997C54.259 172.353,55.135 172.435,55.928 172.435"/></g></g><g class="vf-stavenote" id="vf-auto1500"><g class="vf-stem" id="vf-auto1501" pointer-events="bounding-box"><path stroke-width="1.5" fill="none" d="M114.825 122L114.825 155"/></g><g class="vf-notehead" id="vf-auto1503" pointer-events="bounding-box"><path stroke="none" d="M117.22 126.543C117.501 126.599,117.754 126.627,118.034 126.627C121.909 126.627,127.694 121.348,127.582 117.08C127.469 116.041,127.497 114.609,125.391 113.766C124.802 113.485,124.156 113.373,123.454 113.373C119.13 113.373,114.44 118.343,114.103 121.657C114.103 121.909,114.075 122.134,114.075 122.387C114.075 124.409,114.974 126.037,117.22 126.543"/><path stroke="none" d="M120.032 176.852C121.619 176.496,122.987 175.785,124.301 174.882C127.173 172.912,128.705 169.985,130.128 166.948C130.785 165.607,131.141 164.212,131.031 162.707C130.976 162.269,130.976 161.64,130.511 161.64C130.073 161.64,129.608 161.886,129.444 162.433C129.417 162.652,129.307 162.816,129.171 163.008C128.35 165.033,127.337 166.92,125.997 168.617C124.738 170.231,123.151 171.408,121.209 172.037C120.662 172.228,120.114 172.31,119.595 172.31C118.117 172.31,116.777 171.599,115.545 170.587C113.657 169.055,112.508 167.194,112.508 164.923C112.508 164.403,112.563 163.884,112.673 163.336C112.755 162.789,112.919 162.187,112.919 161.613C112.919 161.448,112.919 161.257,112.864 161.093C112.782 160.737,112.864 160.135,112.481 160.053C111.961 160.026,111.523 160.354,111.332 160.901C111.277 161.093,111.222 161.257,111.168 161.448C110.867 162.953,110.538 164.431,110.621 166.127C110.648 169.547,111.359 172.83,114.478 175.156C115.874 176.168,117.269 176.962,118.938 176.962C119.294 176.962,119.649 176.934,120.032 176.852M121.975 165.224C122.358 165.279,122.522 165.06,122.522 164.321C122.522 162.379,120.99 160.764,119.047 160.764C118.473 160.764,118.062 160.983,118.035 161.284C117.98 161.531,117.98 161.722,117.98 161.914C117.98 163.528,118.883 164.677,120.58 165.033"/><path stroke="none" d="M119.297 184.487C119.324 184.487,119.324 184.487,119.379 184.46C120.2 184.323,120.993 184.323,121.814 184.241C122.252 184.213,122.526 183.885,122.526 183.557C122.608 182.9,122.717 182.244,122.717 181.532C122.717 181.341,122.717 181.149,122.69 180.93C122.608 180.301,122.361 180,121.896 180C121.787 180,121.65 180,121.541 180.027C120.993 180.109,120.391 180.192,119.844 180.301C119.489 180.383,119.106 180.547,119.051 180.985C118.969 181.997,118.941 183.037,118.941 184.049C118.941 184.241,118.969 184.487,119.297 184.487"/><path stroke="none" d="M115.307 187.435C115.827 187.435,116.456 187.408,116.949 187.408C118.891 187.408,120.806 187.271,122.749 187.271C123.378 187.271,124.117 187.271,124.746 187.326C125.458 187.353,126.169 187.435,126.771 187.435C127.646 187.435,128.549 187.353,129.37 187.161C129.671 187.107,130.109 187.161,130.109 186.696C130.163 186.204,129.945 185.985,129.452 185.821C128.139 185.438,126.88 185.438,125.54 185.383C123.214 185.301,120.888 185.219,118.535 185.219C117.633 185.219,116.839 185.274,115.936 185.274L112.544 185.274C112.215 185.301,111.75 185.109,111.586 185.492C111.477 185.903,111.805 186.259,112.079 186.56C112.27 186.751,112.544 186.888,112.79 186.997C113.638 187.353,114.514 187.435,115.307 187.435"/></g></g><g class="vf-stavenote" id="vf-auto1513"><g class="vf-stem" id="vf-auto1514" pointer-events="bounding-box"><path stroke-width="1.5" fill="none" d="M186.212 103L186.212 70"/></g><g class="vf-notehead" id="vf-auto1516" pointer-events="bounding-box"><path stroke="none" d="M176.599 111.543C176.88 111.599,177.133 111.627,177.413 111.627C181.288 111.627,187.073 106.348,186.961 102.08C186.848 101.041,186.876 99.609,184.77 98.766C184.181 98.485,183.535 98.373,182.833 98.373C178.508 98.373,173.819 103.343,173.482 106.657C173.482 106.909,173.454 107.134,173.454 107.387C173.454 109.409,174.353 111.037,176.599 111.543"/><path stroke="none" d="M179.411 151.852C180.998 151.496,182.366 150.785,183.679 149.882C186.552 147.912,188.084 144.985,189.507 141.948C190.164 140.607,190.519 139.212,190.41 137.707C190.355 137.269,190.355 136.64,189.89 136.64C189.452 136.64,188.987 136.886,188.823 137.433C188.796 137.652,188.686 137.816,188.549 138.008C187.729 140.033,186.716 141.92,185.376 143.617C184.117 145.231,182.53 146.408,180.588 147.037C180.041 147.228,179.493 147.31,178.973 147.31C177.496 147.31,176.155 146.599,174.924 145.587C173.036 144.055,171.887 142.194,171.887 139.923C171.887 139.403,171.942 138.884,172.051 138.336C172.133 137.789,172.298 137.187,172.298 136.613C172.298 136.448,172.298 136.257,172.243 136.093C172.161 135.737,172.243 135.135,171.86 135.053C171.34 135.026,170.902 135.354,170.711 135.901C170.656 136.093,170.601 136.257,170.547 136.448C170.246 137.953,169.917 139.431,169.999 141.127C170.027 144.547,170.738 147.83,173.857 150.156C175.253 151.168,176.648 151.962,178.317 151.962C178.673 151.962,179.028 151.934,179.411 151.852M181.354 140.224C181.737 140.279,181.901 140.06,181.901 139.321C181.901 137.379,180.369 135.764,178.426 135.764C177.852 135.764,177.441 135.983,177.414 136.284C177.359 136.531,177.359 136.722,177.359 136.914C177.359 138.528,178.262 139.677,179.958 140.033"/><path stroke="none" d="M178.676 169.487C178.703 169.487,178.703 169.487,178.758 169.46C179.579 169.323,180.372 169.323,181.193 169.241C181.631 169.213,181.904 168.885,181.904 168.557C181.986 167.9,182.096 167.244,182.096 166.532C182.096 166.341,182.096 166.149,182.069 165.93C181.986 165.301,181.74 165,181.275 165C181.166 165,181.029 165,180.919 165.027C180.372 165.109,179.77 165.192,179.223 165.301C178.867 165.383,178.484 165.547,178.43 165.985C178.348 166.997,178.32 168.037,178.32 169.049C178.32 169.241,178.348 169.487,178.676 169.487"/><path stroke="none" d="M174.686 172.435C175.206 172.435,175.835 172.408,176.327 172.408C178.27 172.408,180.185 172.271,182.128 172.271C182.757 172.271,183.496 172.271,184.125 172.326C184.836 172.353,185.548 172.435,186.15 172.435C187.025 172.435,187.928 172.353,188.749 172.161C189.05 172.107,189.488 172.161,189.488 171.696C189.542 171.204,189.323 170.985,188.831 170.821C187.518 170.438,186.259 170.438,184.919 170.383C182.593 170.301,180.267 170.219,177.914 170.219C177.011 170.219,176.218 170.274,175.315 170.274L171.923 170.274C171.594 170.301,171.129 170.109,170.965 170.492C170.855 170.903,171.184 171.259,171.457 171.56C171.649 171.751,171.923 171.888,172.169 171.997C173.017 172.353,173.892 172.435,174.686 172.435"/></g></g><g class="vf-stavenote" id="vf-auto1526"><g class="vf-stem" id="vf-auto1527" pointer-events="bounding-box"><path stroke-width="1.5" fill="none" d="M245.591 123L245.591 90"/></g><g class="vf-notehead" id="vf-auto1529" pointer-events="bounding-box"><path stroke="none" d="M235.978 131.543C236.259 131.599,236.511 131.627,236.792 131.627C240.667 131.627,246.452 126.348,246.339 122.08C246.227 121.041,246.255 119.609,244.149 118.766C243.559 118.485,242.914 118.373,242.212 118.373C237.887 118.373,233.198 123.343,232.861 126.657C232.861 126.909,232.833 127.134,232.833 127.387C232.833 129.409,233.731 131.037,235.978 131.543"/><path stroke="none" d="M238.055 139.487C238.082 139.487,238.082 139.487,238.137 139.46C238.958 139.323,239.751 139.323,240.572 139.241C241.01 139.213,241.283 138.885,241.283 138.557C241.365 137.9,241.475 137.244,241.475 136.532C241.475 136.341,241.475 136.149,241.447 135.93C241.365 135.301,241.119 135,240.654 135C240.545 135,240.408 135,240.298 135.027C239.751 135.109,239.149 135.192,238.602 135.301C238.246 135.383,237.863 135.547,237.809 135.985C237.726 136.997,237.699 138.037,237.699 139.049C237.699 139.241,237.726 139.487,238.055 139.487"/><path stroke="none" d="M234.065 147.435C234.585 147.435,235.214 147.408,235.706 147.408C237.649 147.408,239.564 147.271,241.507 147.271C242.136 147.271,242.875 147.271,243.504 147.326C244.215 147.353,244.927 147.435,245.529 147.435C246.404 147.435,247.307 147.353,248.128 147.161C248.429 147.107,248.867 147.161,248.867 146.696C248.921 146.204,248.702 145.985,248.21 145.821C246.897 145.438,245.638 145.438,244.297 145.383C241.972 145.301,239.646 145.219,237.293 145.219C236.39 145.219,235.597 145.274,234.694 145.274L231.301 145.274C230.973 145.301,230.508 145.109,230.344 145.492C230.234 145.903,230.563 146.259,230.836 146.56C231.028 146.751,231.301 146.888,231.548 146.997C232.396 147.353,233.271 147.435,234.065 147.435"/><path stroke="none" d="M238.79 166.852C240.377 166.496,241.745 165.785,243.058 164.882C245.931 162.912,247.463 159.985,248.886 156.948C249.543 155.607,249.898 154.212,249.789 152.707C249.734 152.269,249.734 151.64,249.269 151.64C248.831 151.64,248.366 151.886,248.202 152.433C248.175 152.652,248.065 152.816,247.928 153.008C247.108 155.033,246.095 156.92,244.755 158.617C243.496 160.231,241.909 161.408,239.967 162.037C239.419 162.228,238.872 162.31,238.352 162.31C236.875 162.31,235.534 161.599,234.303 160.587C232.415 159.055,231.266 157.194,231.266 154.923C231.266 154.403,231.321 153.884,231.43 153.336C231.512 152.789,231.676 152.187,231.676 151.613C231.676 151.448,231.676 151.257,231.622 151.093C231.54 150.737,231.622 150.135,231.239 150.053C230.719 150.026,230.281 150.354,230.09 150.901C230.035 151.093,229.98 151.257,229.925 151.448C229.624 152.953,229.296 154.431,229.378 156.127C229.406 159.547,230.117 162.83,233.236 165.156C234.631 166.168,236.027 166.962,237.696 166.962C238.051 166.962,238.407 166.934,238.79 166.852M240.733 155.224C241.116 155.279,241.28 155.06,241.28 154.321C241.28 152.379,239.748 150.764,237.805 150.764C237.231 150.764,236.82 150.983,236.793 151.284C236.738 151.531,236.738 151.722,236.738 151.914C236.738 153.528,237.641 154.677,239.337 155.033"/></g></g><g class="vf-stavenote" id="vf-auto1539"><g class="vf-stem" id="vf-auto1540" pointer-events="bounding-box"><path stroke-width="1.5" fill="none" d="M292.962 122L292.962 155"/></g><g class="vf-notehead" id="vf-auto1542" pointer-events="bounding-box"><path stroke="none" d="M295.357 126.543C295.638 126.599,295.89 126.627,296.171 126.627C300.046 126.627,305.831 121.348,305.718 117.08C305.606 116.041,305.634 114.609,303.528 113.766C302.938 113.485,302.292 113.373,301.59 113.373C297.266 113.373,292.577 118.343,292.24 121.657C292.24 121.909,292.212 122.134,292.212 122.387C292.212 124.409,293.11 126.037,295.357 126.543"/><path stroke="none" d="M297.434 164.487C297.461 164.487,297.461 164.487,297.516 164.46C298.337 164.323,299.13 164.323,299.951 164.241C300.389 164.213,300.662 163.885,300.662 163.557C300.744 162.9,300.854 162.244,300.854 161.532C300.854 161.341,300.854 161.149,300.826 160.93C300.744 160.301,300.498 160,300.033 160C299.923 160,299.787 160,299.677 160.027C299.13 160.109,298.528 160.192,297.981 160.301C297.625 160.383,297.242 160.547,297.187 160.985C297.105 161.997,297.078 163.037,297.078 164.049C297.078 164.241,297.105 164.487,297.434 164.487"/><path stroke="none" d="M293.444 172.435C293.963 172.435,294.593 172.408,295.085 172.408C297.028 172.408,298.943 172.271,300.886 172.271C301.515 172.271,302.254 172.271,302.883 172.326C303.594 172.353,304.306 172.435,304.907 172.435C305.783 172.435,306.686 172.353,307.507 172.161C307.808 172.107,308.245 172.161,308.245 171.696C308.3 171.204,308.081 170.985,307.589 170.821C306.275 170.438,305.017 170.438,303.676 170.383C301.351 170.301,299.025 170.219,296.672 170.219C295.769 170.219,294.976 170.274,294.073 170.274L290.68 170.274C290.352 170.301,289.887 170.109,289.723 170.492C289.613 170.903,289.942 171.259,290.215 171.56C290.407 171.751,290.68 171.888,290.926 171.997C291.775 172.353,292.65 172.435,293.444 172.435"/><path stroke="none" d="M298.169 191.852C299.756 191.496,301.124 190.785,302.437 189.882C305.31 187.912,306.842 184.985,308.265 181.948C308.921 180.607,309.277 179.212,309.168 177.707C309.113 177.269,309.113 176.64,308.648 176.64C308.21 176.64,307.745 176.886,307.581 177.433C307.553 177.652,307.444 177.816,307.307 178.008C306.486 180.033,305.474 181.92,304.133 183.617C302.875 185.231,301.288 186.408,299.345 187.037C298.798 187.228,298.251 187.31,297.731 187.31C296.254 187.31,294.913 186.599,293.682 185.587C291.794 184.055,290.645 182.194,290.645 179.923C290.645 179.403,290.7 178.884,290.809 178.336C290.891 177.789,291.055 177.187,291.055 176.613C291.055 176.448,291.055 176.257,291.001 176.093C290.919 175.737,291.001 175.135,290.618 175.053C290.098 175.026,289.66 175.354,289.468 175.901C289.414 176.093,289.359 176.257,289.304 176.448C289.003 177.953,288.675 179.431,288.757 181.127C288.784 184.547,289.496 187.83,292.615 190.156C294.01 191.168,295.406 191.962,297.075 191.962C297.43 191.962,297.786 191.934,298.169 191.852M300.112 180.224C300.495 180.279,300.659 180.06,300.659 179.321C300.659 177.379,299.127 175.764,297.184 175.764C296.609 175.764,296.199 175.983,296.172 176.284C296.117 176.531,296.117 176.722,296.117 176.914C296.117 178.528,297.02 179.677,298.716 180.033"/></g></g><g class="vf-stavenote" id="vf-auto1552"><g class="vf-stem" id="vf-auto1553" pointer-events="bounding-box"><path stroke-width="1.5" fill="none" d="M364.349 103L364.349 70"/></g><g class="vf-notehead" id="vf-auto1555" pointer-events="bounding-box"><path stroke="none" d="M354.736 111.543C355.016 111.599,355.269 111.627,355.55 111.627C359.425 111.627,365.209 106.348,365.097 102.08C364.985 101.041,365.013 99.609,362.907 98.766C362.317 98.485,361.671 98.373,360.969 98.373C356.645 98.373,351.956 103.343,351.619 106.657C351.619 106.909,351.591 107.134,351.591 107.387C351.591 109.409,352.489 111.037,354.736 111.543"/><path stroke="none" d="M356.813 117.244C356.84 117.244,356.84 117.244,356.895 117.216C357.715 117.079,358.509 117.079,359.33 116.997C359.767 116.97,360.041 116.642,360.041 116.313C360.123 115.657,360.233 115,360.233 114.289C360.233 114.097,360.233 113.906,360.205 113.687C360.123 113.057,359.877 112.756,359.412 112.756C359.302 112.756,359.165 112.756,359.056 112.784C358.509 112.866,357.907 112.948,357.36 113.057C357.004 113.14,356.621 113.304,356.566 113.741C356.484 114.754,356.457 115.793,356.457 116.806C356.457 116.997,356.484 117.244,356.813 117.244"/><path stroke="none" d="M352.822 126.327C353.342 126.327,353.972 126.3,354.464 126.3C356.407 126.3,358.322 126.163,360.264 126.163C360.894 126.163,361.632 126.163,362.262 126.218C362.973 126.245,363.684 126.327,364.286 126.327C365.162 126.327,366.065 126.245,366.886 126.053C367.186 125.999,367.624 126.053,367.624 125.588C367.679 125.096,367.46 124.877,366.968 124.713C365.654 124.33,364.396 124.33,363.055 124.275C360.73 124.193,358.404 124.111,356.051 124.111C355.148 124.111,354.355 124.166,353.452 124.166L350.059 124.166C349.731 124.193,349.266 124.001,349.102 124.384C348.992 124.795,349.32 125.15,349.594 125.451C349.786 125.643,350.059 125.78,350.305 125.889C351.154 126.245,352.029 126.327,352.822 126.327"/><path stroke="none" d="M357.548 151.852C359.135 151.496,360.503 150.785,361.816 149.882C364.689 147.912,366.221 144.985,367.644 141.948C368.3 140.607,368.656 139.212,368.547 137.707C368.492 137.269,368.492 136.64,368.027 136.64C367.589 136.64,367.124 136.886,366.96 137.433C366.932 137.652,366.823 137.816,366.686 138.008C365.865 140.033,364.853 141.92,363.512 143.617C362.254 145.231,360.667 146.408,358.724 147.037C358.177 147.228,357.63 147.31,357.11 147.31C355.633 147.31,354.292 146.599,353.061 145.587C351.173 144.055,350.024 142.194,350.024 139.923C350.024 139.403,350.079 138.884,350.188 138.336C350.27 137.789,350.434 137.187,350.434 136.613C350.434 136.448,350.434 136.257,350.38 136.093C350.297 135.737,350.38 135.135,349.996 135.053C349.477 135.026,349.039 135.354,348.847 135.901C348.793 136.093,348.738 136.257,348.683 136.448C348.382 137.953,348.054 139.431,348.136 141.127C348.163 144.547,348.875 147.83,351.994 150.156C353.389 151.168,354.784 151.962,356.453 151.962C356.809 151.962,357.165 151.934,357.548 151.852M359.49 140.224C359.873 140.279,360.038 140.06,360.038 139.321C360.038 137.379,358.505 135.764,356.563 135.764C355.988 135.764,355.578 135.983,355.551 136.284C355.496 136.531,355.496 136.722,355.496 136.914C355.496 138.528,356.399 139.677,358.095 140.033"/></g></g><g class="vf-stavenote" id="vf-auto1565"><path stroke-width="1.4" fill="none" stroke="#444" d="M407.969 80L427.478 80"/><g class="vf-stem" id="vf-auto1566" pointer-events="bounding-box"><path stroke-width="1.5" fill="none" d="M411.719 82L411.719 115"/></g><g class="vf-notehead" id="vf-auto1568" pointer-events="bounding-box"><path stroke="none" d="M414.114 86.543C414.395 86.599,414.648 86.627,414.929 86.627C418.804 86.627,424.588 81.348,424.476 77.08C424.364 76.041,424.392 74.609,422.286 73.766C421.696 73.485,421.05 73.373,420.348 73.373C416.024 73.373,411.335 78.343,410.998 81.657C410.998 81.909,410.969 82.134,410.969 82.387C410.969 84.409,411.868 86.037,414.114 86.543"/><path stroke="none" d="M409.491 69.802C410.23 69.064,410.366 68.079,410.558 67.121C410.941 65.124,411.461 63.181,412.884 61.567C413.868 60.418,414.963 59.351,416.194 58.503C416.96 57.928,417.726 57.654,418.629 57.545C419.231 57.545,419.641 57.873,420.271 58.284C422.925 60.199,424.73 62.525,424.922 65.89C424.922 66.136,424.703 66.492,424.703 66.765L424.703 67.668C424.73 68.024,424.539 68.571,424.895 68.708C425.36 68.899,425.688 68.434,425.907 68.079C426.071 67.832,426.153 67.559,426.235 67.285C426.481 66.464,426.536 65.616,426.673 64.768C426.782 64.002,426.81 63.291,427.029 62.47C427.029 59.515,425.88 56.916,423.745 54.563C422.323 52.976,420.791 52.319,419.258 52.182C418.383 52.182,417.316 52.456,416.386 52.784C414.853 53.304,413.896 54.59,412.829 55.685C410.749 57.873,409.135 60.308,408.533 63.263C408.424 64.002,408.342 64.713,408.533 65.315C408.533 66.683,408.533 68.188,408.697 69.556C408.752 69.912,408.862 70.076,409.217 69.966C409.381 69.966,409.327 69.966,409.491 69.802M417.672 69.064C418 69.091,418.191 69.091,418.547 68.982C419.012 68.982,418.821 68.899,418.821 68.024C418.875 67.914,418.875 67.75,419.067 67.504C419.067 67.039,418.656 66.738,418.164 66.464C417.398 66.054,416.632 65.808,415.784 65.862C415.319 65.862,414.662 65.78,414.58 66.656C414.498 67.86,414.771 68.544,415.565 68.763C416.276 68.982,416.96 68.982,417.672 69.064"/><path stroke="none" d="M416.191 45C416.219 45,416.219 45,416.273 44.973C417.094 44.836,417.888 44.836,418.708 44.754C419.146 44.726,419.42 44.398,419.42 44.07C419.502 43.413,419.611 42.756,419.611 42.045C419.611 41.854,419.611 41.662,419.584 41.443C419.502 40.814,419.256 40.513,418.791 40.513C418.681 40.513,418.544 40.513,418.435 40.54C417.888 40.622,417.286 40.704,416.739 40.814C416.383 40.896,416 41.06,415.945 41.498C415.863 42.51,415.836 43.55,415.836 44.562C415.836 44.754,415.863 45,416.191 45"/><path stroke="none" d="M412.201 35C412.721 35,413.35 34.973,413.843 34.973C415.786 34.973,417.701 34.836,419.643 34.836C420.273 34.836,421.011 34.836,421.641 34.891C422.352 34.918,423.063 35,423.665 35C424.541 35,425.444 34.918,426.264 34.726C426.565 34.672,427.003 34.726,427.003 34.261C427.058 33.769,426.839 33.55,426.346 33.386C425.033 33.003,423.775 33.003,422.434 32.948C420.108 32.866,417.783 32.784,415.43 32.784C414.527 32.784,413.734 32.839,412.831 32.839L409.438 32.839C409.11 32.866,408.645 32.674,408.48 33.057C408.371 33.468,408.699 33.824,408.973 34.124C409.164 34.343,409.438 34.453,409.684 34.562C410.532 34.918,411.408 35,412.201 35"/></g></g><g class="vf-stavenote" id="vf-auto1578"><g class="vf-stem" id="vf-auto1579" pointer-events="bounding-box"><path stroke-width="1.5" fill="none" d="M483.106 88L483.106 55"/></g><g class="vf-notehead" id="vf-auto1581" pointer-events="bounding-box"><path stroke="none" d="M473.493 96.543C473.774 96.599,474.027 96.627,474.308 96.627C478.183 96.627,483.967 91.348,483.855 87.08C483.743 86.041,483.771 84.609,481.665 83.766C481.075 83.485,480.429 83.373,479.727 83.373C475.403 83.373,470.713 88.343,470.376 91.657C470.376 91.909,470.348 92.134,470.348 92.387C470.348 94.409,471.247 96.037,473.493 96.543"/><path stroke="none" d="M468.87 49.802C469.608 49.064,469.745 48.079,469.937 47.121C470.32 45.124,470.84 43.181,472.262 41.567C473.247 40.418,474.342 39.351,475.573 38.503C476.339 37.928,477.105 37.654,478.008 37.545C478.61 37.545,479.02 37.873,479.65 38.284C482.304 40.199,484.109 42.525,484.301 45.89C484.301 46.136,484.082 46.492,484.082 46.765L484.082 47.668C484.109 48.024,483.918 48.571,484.273 48.708C484.739 48.899,485.067 48.434,485.286 48.079C485.45 47.832,485.532 47.559,485.614 47.285C485.86 46.464,485.915 45.616,486.052 44.768C486.161 44.002,486.189 43.291,486.408 42.47C486.408 39.515,485.258 36.916,483.124 34.563C481.702 32.976,480.169 32.319,478.637 32.182C477.762 32.182,476.695 32.456,475.764 32.784C474.232 33.304,473.275 34.59,472.208 35.685C470.128 37.873,468.514 40.308,467.912 43.263C467.803 44.002,467.721 44.713,467.912 45.315C467.912 46.683,467.912 48.188,468.076 49.556C468.131 49.912,468.24 50.076,468.596 49.966C468.76 49.966,468.706 49.966,468.87 49.802M477.05 49.064C477.379 49.091,477.57 49.091,477.926 48.982C478.391 48.982,478.2 48.899,478.2 48.024C478.254 47.914,478.254 47.75,478.446 47.504C478.446 47.039,478.035 46.738,477.543 46.464C476.777 46.054,476.011 45.808,475.163 45.862C474.697 45.862,474.041 45.78,473.959 46.656C473.877 47.86,474.15 48.544,474.944 48.763C475.655 48.982,476.339 48.982,477.05 49.064"/><path stroke="none" d="M475.57 25C475.598 25,475.598 25,475.652 24.973C476.473 24.836,477.267 24.836,478.087 24.754C478.525 24.726,478.799 24.398,478.799 24.07C478.881 23.413,478.99 22.756,478.99 22.045C478.99 21.854,478.99 21.662,478.963 21.443C478.881 20.814,478.635 20.513,478.169 20.513C478.06 20.513,477.923 20.513,477.814 20.54C477.267 20.622,476.665 20.704,476.117 20.814C475.762 20.896,475.379 21.06,475.324 21.498C475.242 22.51,475.215 23.55,475.215 24.562C475.215 24.754,475.242 25,475.57 25"/><path stroke="none" d="M471.58 15C472.1 15,472.729 14.973,473.222 14.973C475.164 14.973,477.08 14.836,479.022 14.836C479.651 14.836,480.39 14.836,481.019 14.891C481.731 14.918,482.442 15,483.044 15C483.92 15,484.822 14.918,485.643 14.726C485.944 14.672,486.382 14.726,486.382 14.261C486.437 13.769,486.218 13.55,485.725 13.386C484.412 13.003,483.153 13.003,481.813 12.948C479.487 12.866,477.162 12.784,474.809 12.784C473.906 12.784,473.112 12.839,472.209 12.839L468.817 12.839C468.489 12.866,468.023 12.674,467.859 13.057C467.75 13.468,468.078 13.824,468.352 14.124C468.543 14.343,468.817 14.453,469.063 14.562C469.911 14.918,470.787 15,471.58 15"/></g></g><g class="vf-stavenote" id="vf-auto1591"><g class="vf-stem" id="vf-auto1592" pointer-events="bounding-box"><path stroke-width="1.5" fill="none" d="M530.477 112L530.477 145"/></g><g class="vf-notehead" id="vf-auto1594" pointer-events="bounding-box"><path stroke="none" d="M532.872 116.543C533.153 116.599,533.406 116.627,533.687 116.627C537.562 116.627,543.346 111.348,543.234 107.08C543.121 106.041,543.149 104.609,541.043 103.766C540.454 103.485,539.808 103.373,539.106 103.373C534.782 103.373,530.092 108.343,529.755 111.657C529.755 111.909,529.727 112.134,529.727 112.387C529.727 114.409,530.626 116.037,532.872 116.543"/><path stroke="none" d="M528.249 84.802C528.987 84.064,529.124 83.079,529.316 82.121C529.699 80.124,530.219 78.181,531.641 76.567C532.626 75.418,533.721 74.351,534.952 73.503C535.718 72.928,536.484 72.654,537.387 72.545C537.989 72.545,538.399 72.873,539.028 73.284C541.682 75.199,543.488 77.525,543.68 80.89C543.68 81.136,543.461 81.492,543.461 81.765L543.461 82.668C543.488 83.024,543.297 83.571,543.652 83.708C544.117 83.899,544.446 83.434,544.665 83.079C544.829 82.832,544.911 82.559,544.993 82.285C545.239 81.464,545.294 80.616,545.431 79.768C545.54 79.002,545.568 78.291,545.786 77.47C545.786 74.515,544.637 71.916,542.503 69.563C541.08 67.976,539.548 67.319,538.016 67.182C537.141 67.182,536.074 67.456,535.143 67.784C533.611 68.304,532.654 69.59,531.587 70.685C529.507 72.873,527.893 75.308,527.291 78.263C527.182 79.002,527.1 79.713,527.291 80.315C527.291 81.683,527.291 83.188,527.455 84.556C527.51 84.912,527.619 85.076,527.975 84.966C528.139 84.966,528.084 84.966,528.249 84.802M536.429 84.064C536.758 84.091,536.949 84.091,537.305 83.982C537.77 83.982,537.578 83.899,537.578 83.024C537.633 82.914,537.633 82.75,537.825 82.504C537.825 82.039,537.414 81.738,536.922 81.464C536.156 81.054,535.39 80.808,534.541 80.862C534.076 80.862,533.42 80.78,533.338 81.656C533.256 82.86,533.529 83.544,534.323 83.763C535.034 83.982,535.718 83.982,536.429 84.064"/><path stroke="none" d="M534.949 60C534.976 60,534.976 60,535.031 59.973C535.852 59.836,536.645 59.836,537.466 59.754C537.904 59.726,538.178 59.398,538.178 59.07C538.26 58.413,538.369 57.756,538.369 57.045C538.369 56.854,538.369 56.662,538.342 56.443C538.26 55.814,538.013 55.513,537.548 55.513C537.439 55.513,537.302 55.513,537.193 55.54C536.645 55.622,536.044 55.704,535.496 55.814C535.141 55.896,534.758 56.06,534.703 56.498C534.621 57.51,534.593 58.55,534.593 59.562C534.593 59.754,534.621 60,534.949 60"/><path stroke="none" d="M530.959 50C531.479 50,532.108 49.973,532.601 49.973C534.543 49.973,536.458 49.836,538.401 49.836C539.03 49.836,539.769 49.836,540.398 49.891C541.11 49.918,541.821 50,542.423 50C543.298 50,544.201 49.918,545.022 49.726C545.323 49.672,545.761 49.726,545.761 49.261C545.816 48.769,545.597 48.55,545.104 48.386C543.791 48.003,542.532 48.003,541.192 47.948C538.866 47.866,536.541 47.784,534.188 47.784C533.285 47.784,532.491 47.839,531.588 47.839L528.196 47.839C527.867 47.866,527.402 47.674,527.238 48.057C527.129 48.468,527.457 48.824,527.731 49.124C527.922 49.343,528.196 49.453,528.442 49.562C529.29 49.918,530.166 50,530.959 50"/></g></g><g class="vf-stavenote" id="vf-auto1604"><path stroke-width="1.4" fill="none" stroke="#444" d="M586.106 80L605.614 80"/><g class="vf-stem" id="vf-auto1605" pointer-events="bounding-box"><path stroke-width="1.5" fill="none" d="M589.856 82L589.856 115"/></g><g class="vf-notehead" id="vf-auto1607" pointer-events="bounding-box"><path stroke="none" d="M592.251 86.543C592.532 86.599,592.785 86.627,593.065 86.627C596.94 86.627,602.725 81.348,602.613 77.08C602.5 76.041,602.528 74.609,600.422 73.766C599.833 73.485,599.187 73.373,598.485 73.373C594.16 73.373,589.471 78.343,589.134 81.657C589.134 81.909,589.106 82.134,589.106 82.387C589.106 84.409,590.005 86.037,592.251 86.543"/><path stroke="none" d="M594.328 70C594.355 70,594.355 70,594.41 69.973C595.231 69.836,596.024 69.836,596.845 69.754C597.283 69.726,597.556 69.398,597.556 69.07C597.639 68.413,597.748 67.756,597.748 67.045C597.748 66.854,597.748 66.662,597.721 66.443C597.639 65.814,597.392 65.513,596.927 65.513C596.818 65.513,596.681 65.513,596.571 65.54C596.024 65.622,595.422 65.704,594.875 65.814C594.519 65.896,594.136 66.06,594.082 66.498C594 67.51,593.972 68.55,593.972 69.562C593.972 69.754,594 70,594.328 70"/><path stroke="none" d="M590.338 60C590.858 60,591.487 59.973,591.98 59.973C593.922 59.973,595.837 59.836,597.78 59.836C598.409 59.836,599.148 59.836,599.777 59.891C600.489 59.918,601.2 60,601.802 60C602.677 60,603.58 59.918,604.401 59.726C604.702 59.672,605.14 59.726,605.14 59.261C605.194 58.769,604.976 58.55,604.483 58.386C603.17 58.003,601.911 58.003,600.571 57.948C598.245 57.866,595.919 57.784,593.566 57.784C592.664 57.784,591.87 57.839,590.967 57.839L587.575 57.839C587.246 57.866,586.781 57.674,586.617 58.057C586.508 58.468,586.836 58.824,587.109 59.124C587.301 59.343,587.575 59.453,587.821 59.562C588.669 59.918,589.545 60,590.338 60"/><path stroke="none" d="M587.627 49.802C588.366 49.064,588.503 48.079,588.695 47.121C589.078 45.124,589.597 43.181,591.02 41.567C592.005 40.418,593.099 39.351,594.331 38.503C595.097 37.928,595.863 37.654,596.766 37.545C597.368 37.545,597.778 37.873,598.407 38.284C601.061 40.199,602.867 42.525,603.059 45.89C603.059 46.136,602.84 46.492,602.84 46.765L602.84 47.668C602.867 48.024,602.675 48.571,603.031 48.708C603.496 48.899,603.825 48.434,604.043 48.079C604.208 47.832,604.29 47.559,604.372 47.285C604.618 46.464,604.673 45.616,604.81 44.768C604.919 44.002,604.946 43.291,605.165 42.47C605.165 39.515,604.016 36.916,601.882 34.563C600.459 32.976,598.927 32.319,597.395 32.182C596.519 32.182,595.452 32.456,594.522 32.784C592.99 33.304,592.032 34.59,590.965 35.685C588.886 37.873,587.272 40.308,586.67 43.263C586.56 44.002,586.478 44.713,586.67 45.315C586.67 46.683,586.67 48.188,586.834 49.556C586.889 49.912,586.998 50.076,587.354 49.966C587.518 49.966,587.463 49.966,587.627 49.802M595.808 49.064C596.136 49.091,596.328 49.091,596.684 48.982C597.149 48.982,596.957 48.899,596.957 48.024C597.012 47.914,597.012 47.75,597.203 47.504C597.203 47.039,596.793 46.738,596.301 46.464C595.535 46.054,594.768 45.808,593.92 45.862C593.455 45.862,592.799 45.78,592.716 46.656C592.634 47.86,592.908 48.544,593.701 48.763C594.413 48.982,595.097 48.982,595.808 49.064"/></g></g><g class="vf-stavenote" id="vf-auto1617"><g class="vf-stem" id="vf-auto1618" pointer-events="bounding-box"><path stroke-width="1.5" fill="none" d="M661.243 88L661.243 55"/></g><g class="vf-notehead" id="vf-auto1620" pointer-events="bounding-box"><path stroke="none" d="M651.63 96.543C651.911 96.599,652.163 96.627,652.444 96.627C656.319 96.627,662.104 91.348,661.991 87.08C661.879 86.041,661.907 84.609,659.801 83.766C659.212 83.485,658.566 83.373,657.864 83.373C653.539 83.373,648.85 88.343,648.513 91.657C648.513 91.909,648.485 92.134,648.485 92.387C648.485 94.409,649.384 96.037,651.63 96.543"/><path stroke="none" d="M653.707 50C653.734 50,653.734 50,653.789 49.973C654.61 49.836,655.403 49.836,656.224 49.754C656.662 49.726,656.935 49.398,656.935 49.07C657.017 48.413,657.127 47.756,657.127 47.045C657.127 46.854,657.127 46.662,657.099 46.443C657.017 45.814,656.771 45.513,656.306 45.513C656.197 45.513,656.06 45.513,655.95 45.54C655.403 45.622,654.801 45.704,654.254 45.814C653.898 45.896,653.515 46.06,653.461 46.498C653.379 47.51,653.351 48.55,653.351 49.562C653.351 49.754,653.379 50,653.707 50"/><path stroke="none" d="M649.717 40C650.237 40,650.866 39.973,651.358 39.973C653.301 39.973,655.216 39.836,657.159 39.836C657.788 39.836,658.527 39.836,659.156 39.891C659.867 39.918,660.579 40,661.181 40C662.056 40,662.959 39.918,663.78 39.726C664.081 39.672,664.519 39.726,664.519 39.261C664.573 38.769,664.354 38.55,663.862 38.386C662.549 38.003,661.29 38.003,659.949 37.948C657.624 37.866,655.298 37.784,652.945 37.784C652.042 37.784,651.249 37.839,650.346 37.839L646.953 37.839C646.625 37.866,646.16 37.674,645.996 38.057C645.886 38.468,646.215 38.824,646.488 39.124C646.68 39.343,646.953 39.453,647.2 39.562C648.048 39.918,648.923 40,649.717 40"/><path stroke="none" d="M647.006 29.802C647.745 29.064,647.882 28.079,648.073 27.121C648.456 25.124,648.976 23.181,650.399 21.567C651.384 20.418,652.478 19.351,653.71 18.503C654.476 17.928,655.242 17.654,656.145 17.545C656.747 17.545,657.157 17.873,657.786 18.284C660.44 20.199,662.246 22.525,662.437 25.89C662.437 26.136,662.219 26.492,662.219 26.765L662.219 27.668C662.246 28.024,662.054 28.571,662.41 28.708C662.875 28.899,663.203 28.434,663.422 28.079C663.587 27.832,663.669 27.559,663.751 27.285C663.997 26.464,664.052 25.616,664.188 24.768C664.298 24.002,664.325 23.291,664.544 22.47C664.544 19.515,663.395 16.916,661.261 14.563C659.838 12.976,658.306 12.319,656.774 12.182C655.898 12.182,654.831 12.456,653.901 12.784C652.369 13.304,651.411 14.59,650.344 15.685C648.265 17.873,646.651 20.308,646.049 23.263C645.939 24.002,645.857 24.713,646.049 25.315C646.049 26.683,646.049 28.188,646.213 29.556C646.268 29.912,646.377 30.076,646.733 29.966C646.897 29.966,646.842 29.966,647.006 29.802M655.187 29.064C655.515 29.091,655.707 29.091,656.063 28.982C656.528 28.982,656.336 28.899,656.336 28.024C656.391 27.914,656.391 27.75,656.582 27.504C656.582 27.039,656.172 26.738,655.679 26.464C654.913 26.054,654.147 25.808,653.299 25.862C652.834 25.862,652.177 25.78,652.095 26.656C652.013 27.86,652.287 28.544,653.08 28.763C653.792 28.982,654.476 28.982,655.187 29.064"/></g></g><g class="vf-stavenote" id="vf-auto1630"><g class="vf-stem" id="vf-auto1631" pointer-events="bounding-box"><path stroke-width="1.5" fill="none" d="M708.614 112L708.614 145"/></g><g class="vf-notehead" id="vf-auto1633" pointer-events="bounding-box"><path stroke="none" d="M711.009 116.543C711.29 116.599,711.542 116.627,711.823 116.627C715.698 116.627,721.483 111.348,721.37 107.08C721.258 106.041,721.286 104.609,719.18 103.766C718.59 103.485,717.945 103.373,717.243 103.373C712.918 103.373,708.229 108.343,707.892 111.657C707.892 111.909,707.864 112.134,707.864 112.387C707.864 114.409,708.762 116.037,711.009 116.543"/><path stroke="none" d="M713.086 97.244C713.113 97.244,713.113 97.244,713.168 97.216C713.989 97.079,714.782 97.079,715.603 96.997C716.041 96.97,716.314 96.642,716.314 96.313C716.396 95.657,716.506 95,716.506 94.289C716.506 94.097,716.506 93.906,716.478 93.687C716.396 93.057,716.15 92.756,715.685 92.756C715.575 92.756,715.439 92.756,715.329 92.784C714.782 92.866,714.18 92.948,713.633 93.057C713.277 93.14,712.894 93.304,712.839 93.741C712.757 94.754,712.73 95.793,712.73 96.806C712.73 96.997,712.757 97.244,713.086 97.244"/><path stroke="none" d="M709.096 85C709.616 85,710.245 84.973,710.737 84.973C712.68 84.973,714.595 84.836,716.538 84.836C717.167 84.836,717.906 84.836,718.535 84.891C719.246 84.918,719.958 85,720.56 85C721.435 85,722.338 84.918,723.159 84.726C723.46 84.672,723.897 84.726,723.897 84.261C723.952 83.769,723.733 83.55,723.241 83.386C721.928 83.003,720.669 83.003,719.328 82.948C717.003 82.866,714.677 82.784,712.324 82.784C711.421 82.784,710.628 82.839,709.725 82.839L706.332 82.839C706.004 82.866,705.539 82.674,705.375 83.057C705.265 83.468,705.594 83.824,705.867 84.124C706.059 84.343,706.332 84.453,706.579 84.562C707.427 84.918,708.302 85,709.096 85"/><path stroke="none" d="M706.385 79.802C707.124 79.064,707.261 78.079,707.452 77.121C707.835 75.124,708.355 73.181,709.778 71.567C710.763 70.418,711.857 69.351,713.088 68.503C713.855 67.928,714.621 67.654,715.523 67.545C716.125 67.545,716.536 67.873,717.165 68.284C719.819 70.199,721.625 72.525,721.816 75.89C721.816 76.136,721.597 76.492,721.597 76.765L721.597 77.668C721.625 78.024,721.433 78.571,721.789 78.708C722.254 78.899,722.582 78.434,722.801 78.079C722.965 77.832,723.047 77.559,723.13 77.285C723.376 76.464,723.431 75.616,723.567 74.768C723.677 74.002,723.704 73.291,723.923 72.47C723.923 69.515,722.774 66.916,720.64 64.563C719.217 62.976,717.685 62.319,716.153 62.182C715.277 62.182,714.21 62.456,713.28 62.784C711.748 63.304,710.79 64.59,709.723 65.685C707.644 67.873,706.03 70.308,705.428 73.263C705.318 74.002,705.236 74.713,705.428 75.315C705.428 76.683,705.428 78.188,705.592 79.556C705.647 79.912,705.756 80.076,706.112 79.966C706.276 79.966,706.221 79.966,706.385 79.802M714.566 79.064C714.894 79.091,715.086 79.091,715.441 78.982C715.907 78.982,715.715 78.899,715.715 78.024C715.77 77.914,715.77 77.75,715.961 77.504C715.961 77.039,715.551 76.738,715.058 76.464C714.292 76.054,713.526 75.808,712.678 75.862C712.213 75.862,711.556 75.78,711.474 76.656C711.392 77.86,711.666 78.544,712.459 78.763C713.171 78.982,713.855 78.982,714.566 79.064"/></g></g></svg>