<svg xmlns="http://www.w3.org/2000/svg" stroke-width="0.3" stroke-dasharray="none" fill="black" stroke="black" font-family="Arial, sans-serif" font-size="10pt" font-weight="normal" font-style="normal" width="300" height="140" viewBox="0 0 300 140" style="width: 300px; height: 140px; border: none;"><g class="vf-stave" id="vf-auto18273" stroke-width="1" fill="#999999" stroke="#999999"><path fill="none" d="M0 40L290 40"/><path fill="none" d="M0 50L290 50"/><path fill="none" d="M0 60L290 60"/><path fill="none" d="M0 70L290 70"/><path fill="none" d="M0 80L290 80"/></g><g class="vf-stavebarline" id="vf-auto18274"><rect y="39.5" width="1" height="41" stroke="none"/></g><g class="vf-stavebarline" id="vf-auto18275"><rect x="290" y="39.5" width="1" height="41" stroke="none"/></g><g class="vf-clef" id="vf-auto18303"><path stroke="none" d="M25.503 71.76C25.503 74.345,24.464 77.032,21.854 78.071C21.093 73.712,20.105 67.908,19.852 66.286C23.146 66.286,25.503 68.516,25.503 71.76M20.333 78.527C19.598 78.654,18.914 78.73,18.204 78.73C12.983 78.73,8.548 75.08,8.548 69.581C8.548 65.12,11.691 61.141,14.884 58.379C15.518 57.821,16.101 57.314,16.633 56.757C16.962 58.734,17.216 60.457,17.469 61.952C14.149 62.941,11.894 66.438,11.894 69.86C11.894 72.419,13.896 75.917,16.836 75.917C17.114 75.917,17.444 75.79,17.444 75.461C17.444 75.131,17.089 74.954,16.633 74.65C15.214 73.762,14.428 72.825,14.428 71.025C14.428 68.82,16.05 67.021,18.204 66.514M17.114 40.993C17.444 39.548,19.117 35.721,21.017 35.721C21.575 35.721,22.437 37.495,22.437 40.004C22.437 43.806,19.623 46.67,17.114 49.128C16.886 47.684,16.709 46.264,16.709 44.718C16.709 43.375,16.836 42.133,17.114 40.993M9.461 89.729C9.461 92.137,11.311 95.305,16.253 95.305C17.951 95.305,19.446 94.874,20.764 94.063C22.741 92.669,23.248 90.261,23.248 87.98C23.248 86.536,23.02 84.914,22.665 82.836C22.563 82.101,22.335 81.011,22.107 79.566C25.681 78.4,28.367 74.675,28.367 70.924C28.367 65.424,24.464 61.699,19.117 61.699C18.762 59.494,18.382 57.34,18.078 55.312C21.93 51.257,24.591 46.695,24.591 40.891C24.591 37.571,23.577 34.859,22.994 33.567C22.107 31.691,21.068 30.424,20.409 30.424C20.156 30.424,19.015 30.855,17.799 32.274C15.467 35.062,14.808 39.726,14.808 42.792C14.808 44.769,15.011 46.543,15.619 50.623C15.594 50.674,13.693 52.6,12.907 53.234C9.587 56.326,5 60.736,5 68.035C5 74.878,10.956 80.225,17.748 80.225C18.787 80.225,19.776 80.124,20.612 79.972C21.322 83.469,21.727 86.029,21.727 87.98C21.727 91.757,19.776 93.784,16.101 93.784C15.214 93.784,14.453 93.582,14.377 93.582C14.352 93.556,14.276 93.505,14.276 93.48C14.276 93.404,14.352 93.379,14.453 93.328C16.177 93.075,17.875 91.63,17.875 89.273C17.875 87.322,16.379 85.243,13.642 85.243C11.083 85.243,9.461 87.322,9.461 89.729"/></g><g class="vf-stavenote" id="vf-auto18276"><path stroke-width="1.4" fill="none" stroke="#444" d="M63.96 90L83.101 90"/><g class="vf-stem" id="vf-auto18277" pointer-events="bounding-box"><path stroke-width="1.5" fill="none" d="M67.71 67.65L67.71 125"/></g><g class="vf-notehead" id="vf-auto18286" pointer-events="bounding-box"><path stroke="none" d="M75.58 84.665C71.649 84.665,66.96 87.95,66.96 91.685C66.96 93.426,68.223 95.391,71.481 95.391C75.693 95.391,80.101 91.938,80.101 88.371C80.101 85.985,78.079 84.665,75.58 84.665M74.485 91.769C74.373 91.853,71.396 93.482,69.992 93.482C68.644 93.482,68.364 92.387,68.364 92.022C68.364 90.337,72.407 88.343,72.576 88.259C72.744 88.175,75.608 86.574,77.068 86.574C78.051 86.574,78.697 87.136,78.697 88.006C78.697 89.747,74.597 91.685,74.485 91.769"/><path stroke="none" d="M51.274 86.881C51.055 85.349,50.098 83.899,48.1 83.899C46.131 83.899,44.981 85.103,44.79 85.349L44.954 72.708C44.954 72.38,44.708 72.161,44.379 72.161L43.914 72.161C43.613 72.161,43.367 72.38,43.367 72.708L43.559 96.375C43.559 96.703,43.805 96.922,44.106 96.922C44.188 96.922,44.352 96.895,44.434 96.867C44.598 96.785,47.143 95.527,49.277 93.119C50.782 91.423,51.356 89.48,51.356 87.866C51.356 87.51,51.329 87.209,51.274 86.881M48.566 88.413C48.566 89.015,48.401 90.821,47.416 92.326C46.76 93.338,45.419 94.405,44.68 95.007L44.79 87.319C44.872 86.963,45.447 85.814,47.033 85.814C48.456 85.814,48.566 87.155,48.566 88.003C48.566 88.194,48.566 88.304,48.566 88.413"/></g><g class="vf-notehead" id="vf-auto18285" pointer-events="bounding-box"><path stroke="none" d="M75.58 74.665C71.649 74.665,66.96 77.95,66.96 81.685C66.96 83.426,68.223 85.391,71.481 85.391C75.693 85.391,80.101 81.938,80.101 78.371C80.101 75.985,78.079 74.665,75.58 74.665M74.485 81.769C74.373 81.853,71.396 83.482,69.992 83.482C68.644 83.482,68.364 82.387,68.364 82.022C68.364 80.337,72.407 78.343,72.576 78.259C72.744 78.175,75.608 76.574,77.068 76.574C78.051 76.574,78.697 77.136,78.697 78.006C78.697 79.747,74.597 81.685,74.485 81.769"/><path stroke="none" d="M63.549 75.869C63.768 75.814,63.96 75.54,63.96 75.321L63.96 72.996C63.96 72.668,63.741 72.449,63.412 72.449C63.385 72.449,63.385 72.449,63.33 72.449L62.044 72.722L62.044 66.84L60.923 66.84L60.923 72.941L57.421 73.652L57.421 68.098L56.326 68.098L56.326 73.899L54.794 74.2C54.548 74.254,54.356 74.528,54.356 74.747L54.356 74.829L54.356 77.127L54.356 77.045C54.356 77.373,54.603 77.592,54.903 77.592C54.958 77.592,54.986 77.592,55.013 77.592L56.326 77.319L56.326 83.83L54.794 84.131C54.548 84.186,54.356 84.46,54.356 84.679L54.356 86.977C54.356 87.278,54.603 87.524,54.903 87.524C54.958 87.524,54.986 87.524,55.013 87.524L56.326 87.25L56.326 93.133L57.421 93.133L57.421 87.004L60.923 86.293L60.923 91.847L62.044 91.847L62.044 86.074L63.549 85.8C63.768 85.746,63.96 85.472,63.96 85.253L63.96 82.928C63.96 82.599,63.741 82.353,63.412 82.353C63.385 82.353,63.385 82.353,63.33 82.353L62.044 82.627L62.044 76.142M57.421 77.072L60.923 76.388L60.923 82.873L57.421 83.612"/></g><g class="vf-notehead" id="vf-auto18284" pointer-events="bounding-box"><path stroke="none" d="M75.58 59.665C71.649 59.665,66.96 62.95,66.96 66.685C66.96 68.426,68.223 70.391,71.481 70.391C75.693 70.391,80.101 66.938,80.101 63.371C80.101 60.985,78.079 59.665,75.58 59.665M74.485 66.769C74.373 66.853,71.396 68.482,69.992 68.482C68.644 68.482,68.364 67.387,68.364 67.022C68.364 65.337,72.407 63.343,72.576 63.259C72.744 63.175,75.608 61.574,77.068 61.574C78.051 61.574,78.697 62.136,78.697 63.006C78.697 64.747,74.597 66.685,74.485 66.769"/></g></g><g class="vf-stavenote" id="vf-auto18291"><g class="vf-stem" id="vf-auto18292" pointer-events="bounding-box"><path stroke-width="1.5" fill="none" d="M166.659 77.65L166.659 120"/></g><g class="vf-notehead" id="vf-auto18301" pointer-events="bounding-box"><path stroke="none" d="M174.53 79.665C170.598 79.665,165.909 82.95,165.909 86.685C165.909 88.426,167.173 90.391,170.43 90.391C174.642 90.391,179.051 86.938,179.051 83.371C179.051 80.985,177.029 79.665,174.53 79.665M173.435 86.769C173.322 86.853,170.346 88.482,168.942 88.482C167.594 88.482,167.313 87.387,167.313 87.022C167.313 85.337,171.357 83.343,171.525 83.259C171.694 83.175,174.558 81.574,176.018 81.574C177.001 81.574,177.647 82.136,177.647 83.006C177.647 84.747,173.547 86.685,173.435 86.769"/></g><g class="vf-notehead" id="vf-auto18300" pointer-events="bounding-box"><path stroke="none" d="M162.138 74.665C158.207 74.665,153.518 77.95,153.518 81.685C153.518 83.426,154.781 85.391,158.039 85.391C162.251 85.391,166.659 81.938,166.659 78.371C166.659 75.985,164.637 74.665,162.138 74.665M161.043 81.769C160.931 81.853,157.954 83.482,156.55 83.482C155.202 83.482,154.922 82.387,154.922 82.022C154.922 80.337,158.965 78.343,159.134 78.259C159.302 78.175,162.166 76.574,163.626 76.574C164.609 76.574,165.255 77.136,165.255 78.006C165.255 79.747,161.155 81.685,161.043 81.769"/></g><g class="vf-notehead" id="vf-auto18299" pointer-events="bounding-box"><path stroke="none" d="M174.53 69.665C170.598 69.665,165.909 72.95,165.909 76.685C165.909 78.426,167.173 80.391,170.43 80.391C174.642 80.391,179.051 76.938,179.051 73.371C179.051 70.985,177.029 69.665,174.53 69.665M173.435 76.769C173.322 76.853,170.346 78.482,168.942 78.482C167.594 78.482,167.313 77.387,167.313 77.022C167.313 75.337,171.357 73.343,171.525 73.259C171.694 73.175,174.558 71.574,176.018 71.574C177.001 71.574,177.647 72.136,177.647 73.006C177.647 74.747,173.547 76.685,173.435 76.769"/></g></g><g class="vf-stavetie" id="vf-auto18304"><path stroke="none" d="M28.367 58Q47.663 50,66.96 58Q47.663 46,28.367 58Z"/></g><text stroke="none" x="42.843" y="29">H</text></svg>