<svg xmlns="http://www.w3.org/2000/svg" stroke-width="0.3" stroke-dasharray="none" fill="black" stroke="black" font-family="Arial, sans-serif" font-size="10pt" font-weight="normal" font-style="normal" width="700" height="150" viewBox="0 0 777.7777777777777 166.66666666666666" style="width: 700px; height: 150px; border: none;"><g class="vf-stave" id="vf-auto22587" stroke-width="1" fill="#999999" stroke="#999999" font-family="Arial"><path fill="none" d="M10 70L710 70"/><path fill="none" d="M10 80L710 80"/><path fill="none" d="M10 90L710 90"/><path fill="none" d="M10 100L710 100"/><path fill="none" d="M10 110L710 110"/></g><g class="vf-stavebarline" id="vf-auto22588" font-family="Arial"><rect x="10" y="69.5" width="1" height="41" stroke="none"/></g><g class="vf-stavebarline" id="vf-auto22589" font-family="Arial"><rect x="710" y="69.5" width="1" height="41" stroke="none"/></g><g class="vf-clef" id="vf-auto22590" font-family="Arial"><path stroke="none" d="M23.693 121.402C23.87 121.402,24.048 121.377,24.276 121.301C24.707 121.148,25.062 120.92,25.366 120.591C28.382 117.423,29.623 113.596,29.75 109.313C29.75 108.983,29.776 108.451,29.776 108.451C29.776 108.451,30.282 108.147,30.511 108.071C31.727 107.488,32.893 106.829,33.932 105.993C36.72 103.762,38.316 100.747,39.051 97.376C39.204 96.844,39.229 96.286,39.229 95.779C39.229 93.473,37.962 91.8,35.047 91.268C34.312 91.116,33.577 91.04,32.842 91.04C31.017 91.04,29.269 91.521,27.621 92.484C27.419 92.611,27.19 92.763,27.19 92.763L26.253 89.215C26.202 89.038,26.202 88.708,26.202 88.708C26.202 88.708,29.928 82.093,30.434 78.697C30.612 77.709,30.688 76.72,30.688 75.757C30.688 74.972,30.663 74.237,30.536 73.527C30.181 70.891,29.193 68.408,28.534 65.848C28.356 65.088,28.103 64.175,27.216 64.175C26.557 64.175,26.101 64.809,25.695 65.341C23.82 67.926,22.907 70.891,22.73 74.059C22.705 74.566,22.705 75.098,22.705 75.605C22.705 78.545,23.186 81.51,23.566 84.425C23.566 84.653,23.642 84.881,23.693 85.059C22.046 87.39,20.221 89.57,18.65 91.978C17.56 93.701,16.343 95.424,15.583 97.35C15.177 98.288,15 99.403,15 100.493C15 102.749,15.76 105.055,17.078 106.322C17.839 107.057,19.055 107.868,20.246 108.299C21.944 108.907,23.617 109.313,25.391 109.313C25.923 109.313,26.455 109.287,27.013 109.211L27.444 109.135C27.444 109.135,27.469 109.465,27.444 109.642C27.038 111.847,26.506 114.001,25.188 115.826C24.479 116.764,23.82 117.828,22.451 117.93C22.046 117.98,21.868 118.234,21.868 118.563C21.868 118.69,21.894 118.817,21.944 118.944C22.147 119.501,22.4 120.084,22.654 120.642C22.882 121.148,23.237 121.402,23.693 121.402M25.138 82.828C24.859 81.08,24.681 79.356,24.681 77.633C24.681 74.465,25.34 71.373,27.19 68.408C27.621 69.751,27.849 71.119,27.849 72.488C27.849 73.198,27.773 73.933,27.672 74.642C27.19 77.506,26.532 80.269,25.138 82.828M21.387 104.421C20.88 104.396,20.449 104.219,19.967 104.067C19.004 103.737,18.219 103.382,17.965 102.749C17.839 102.47,17.813 102.14,17.813 101.811C17.813 101.406,17.889 100.975,17.965 100.518C17.991 100.316,18.219 99.682,18.295 99.581C19.714 97.046,21.412 94.765,23.211 92.459L24.732 90.457L25.011 91.268C25.29 92.18,25.543 93.625,25.543 93.625C25.543 93.625,24.529 94.943,23.87 95.602C22.046 97.376,21.159 99.606,21.159 102.064C21.159 102.673,21.235 103.306,21.361 103.965C21.387 104.092,21.387 104.219,21.387 104.421M29.269 103.306C28.99 100.924,28.432 99.023,27.925 96.742C27.875 96.463,27.875 96.286,28.001 96.134C28.939 95.957,29.852 95.881,30.815 95.881C31.727 95.881,32.589 95.957,33.501 96.134C34.591 96.362,35.681 96.539,36.542 97.426C36.593 97.503,36.669 97.579,36.745 97.604C35.301 100.518,33.146 102.723,30.08 104.067L29.421 104.32M25.391 105.055C24.124 105.055,22.882 104.726,22.882 104.726C22.882 104.726,22.781 104.219,22.781 103.484C22.781 103.002,22.806 102.419,22.958 101.836C23.313 100.088,24.555 98.846,25.873 97.68C25.974 97.579,26.101 97.503,26.177 97.503C26.303 97.503,26.354 97.655,26.379 97.908C26.709 100.062,27.266 102.166,27.419 104.32C27.444 104.548,27.419 104.878,27.419 104.878C27.419 104.878,26.455 105.131,25.391 105.055"/></g><g class="vf-timesignature" id="vf-auto22591" font-family="Arial"><path stroke="none" d="M69.113 87.234C69.455 87.332,69.749 87.038,69.921 86.744C70.386 86.157,70.435 85.447,70.557 84.737C70.949 81.383,70.875 78.005,70.998 74.651L70.998 74.308C72.246 74.064,73.397 73.623,74.572 73.109C76.285 72.301,76.579 71.86,76.555 70C76.555 69.119,76.359 68.727,75.918 68.703C75.698 68.703,75.38 68.8,74.988 69.021L74.743 69.119C73.544 69.657,72.32 70.073,71.047 70.318C71.047 68.776,70.973 67.209,70.9 65.667C70.826 64.37,70.802 63.023,70.679 61.726C70.655 61.432,70.679 60.869,70.239 60.869C69.798 60.869,69.504 61.163,69.455 61.677C69.431 62.313,69.235 62.95,69.284 63.586C69.309 65.912,69.382 68.237,69.382 70.539C68.966 70.563,68.55 70.563,68.158 70.539C66.004 70.392,63.898 70.024,61.695 70.073C60.936 70.073,60.153 70.098,59.37 70.22C60.153 68.727,60.79 67.356,61.597 66.01C63.458 62.95,65.465 59.914,66.787 56.487C67.105 55.679,67.35 54.871,67.35 54.039C67.35 53.794,67.301 53.549,67.277 53.28C67.228 53.084,67.228 52.693,66.958 52.693C66.665 52.668,66.322 52.766,66.151 53.035C66.028 53.256,65.906 53.427,65.832 53.647C65.343 55.239,64.462 56.609,63.629 58.005C62.626 59.743,61.45 61.408,60.422 63.121C58.978 65.569,57.778 68.091,56.016 70.318C55.453 71.028,54.939 71.763,54.939 72.644C54.939 72.962,55.012 73.28,55.135 73.599C55.282 73.917,55.453 74.235,55.453 74.553C55.502 75.067,55.6 75.263,55.894 75.288C56.016 75.288,56.236 75.214,56.481 75.067C58.048 74.406,59.614 74.064,61.279 74.064C63.458 74.064,65.661 74.406,67.84 74.553C68.085 74.578,68.329 74.578,68.574 74.627C68.819 74.627,69.064 74.627,69.309 74.553C69.235 76.561,69.211 78.568,69.064 80.575C68.99 82.118,68.819 83.684,68.819 85.3C68.819 85.692,68.819 86.034,68.868 86.402C68.868 86.72,68.819 87.136,69.113 87.234"/><path stroke="none" d="M69.113 127.234C69.455 127.332,69.749 127.038,69.921 126.744C70.386 126.157,70.435 125.447,70.557 124.737C70.949 121.383,70.875 118.005,70.998 114.651L70.998 114.308C72.246 114.064,73.397 113.623,74.572 113.109C76.285 112.301,76.579 111.86,76.555 110C76.555 109.119,76.359 108.727,75.918 108.703C75.698 108.703,75.38 108.8,74.988 109.021L74.743 109.119C73.544 109.657,72.32 110.073,71.047 110.318C71.047 108.776,70.973 107.209,70.9 105.667C70.826 104.37,70.802 103.023,70.679 101.726C70.655 101.432,70.679 100.869,70.239 100.869C69.798 100.869,69.504 101.163,69.455 101.677C69.431 102.313,69.235 102.95,69.284 103.586C69.309 105.912,69.382 108.237,69.382 110.539C68.966 110.563,68.55 110.563,68.158 110.539C66.004 110.392,63.898 110.024,61.695 110.073C60.936 110.073,60.153 110.098,59.37 110.22C60.153 108.727,60.79 107.356,61.597 106.01C63.458 102.95,65.465 99.914,66.787 96.487C67.105 95.679,67.35 94.871,67.35 94.039C67.35 93.794,67.301 93.549,67.277 93.28C67.228 93.084,67.228 92.693,66.958 92.693C66.665 92.668,66.322 92.766,66.151 93.035C66.028 93.256,65.906 93.427,65.832 93.647C65.343 95.239,64.462 96.609,63.629 98.005C62.626 99.743,61.45 101.408,60.422 103.121C58.978 105.569,57.778 108.091,56.016 110.318C55.453 111.028,54.939 111.763,54.939 112.644C54.939 112.962,55.012 113.28,55.135 113.599C55.282 113.917,55.453 114.235,55.453 114.553C55.502 115.067,55.6 115.263,55.894 115.288C56.016 115.288,56.236 115.214,56.481 115.067C58.048 114.406,59.614 114.064,61.279 114.064C63.458 114.064,65.661 114.406,67.84 114.553C68.085 114.578,68.329 114.578,68.574 114.627C68.819 114.627,69.064 114.627,69.309 114.553C69.235 116.561,69.211 118.568,69.064 120.575C68.99 122.118,68.819 123.684,68.819 125.3C68.819 125.692,68.819 126.034,68.868 126.402C68.868 126.72,68.819 127.136,69.113 127.234"/></g><g class="vf-stavenote" id="vf-auto22595" font-family="Arial"><g class="vf-notehead" id="vf-auto22598" pointer-events="bounding-box"><path stroke="none" d="M90.542 66.346C91.244 66.346,91.89 66.318,92.535 66.262C93.659 66.234,94.922 66.234,96.27 66.234L100.314 66.234C102.448 66.234,104.554 66.234,106.379 66.093C107.586 66.065,108.794 65.616,108.794 63.678C108.794 63.033,108.822 62.387,108.738 61.741C108.709 61.488,108.709 61.292,108.709 61.095C108.709 60.449,108.962 60.477,110.001 60.393C110.9 60.365,111.742 60.449,112.641 60.449C113.399 60.449,114.157 60.393,114.943 60.253C115.14 60.197,115.533 60.281,115.533 59.916L115.533 59.832C115.477 59.523,115.421 59.101,114.887 59.017C114.157 58.905,113.483 58.821,112.753 58.821C104.834 58.821,96.86 59.073,88.941 59.242L85.712 59.242C83.971 59.242,82.23 59.27,80.517 59.438C80.293 59.438,80.012 59.354,79.927 59.607C79.787 59.888,80.096 60.028,80.236 60.197C80.742 60.646,81.388 60.674,81.977 60.758C82.511 60.842,82.988 60.842,83.55 60.842C84.533 60.842,85.543 60.758,86.498 60.814C87.228 60.814,87.678 60.758,88.015 60.899C87.93 61.207,87.874 61.629,87.874 62.022C87.874 62.948,88.043 63.931,87.958 64.689C87.93 65.813,88.239 66.093,89.334 66.262C89.755 66.346,90.149 66.346,90.542 66.346"/></g></g><g class="vf-stavenote" id="vf-auto22599" font-family="Arial"><g class="vf-notehead" id="vf-auto22602" pointer-events="bounding-box"><path stroke="none" d="M223.532 50.814C224.346 50.814,225.161 50.758,225.919 50.646C226.34 50.674,226.733 50.674,227.154 50.674C227.941 50.674,228.727 50.646,229.457 50.477C229.85 50.393,230.468 50.477,230.496 50.028C230.58 49.635,230.047 49.438,229.653 49.27C229.457 49.186,229.288 49.158,229.092 49.101C228.446 49.017,227.8 48.961,227.154 48.961C226.902 48.961,226.621 48.961,226.368 48.989C226.059 49.017,225.806 49.017,225.61 49.017C225.048 49.017,224.88 48.905,224.88 48.512C224.88 48.315,224.908 47.95,224.992 47.501L225.133 46.715C225.189 45.142,224.402 44.216,222.858 44.216C222.381 44.216,221.931 44.216,221.482 44.272C220.443 44.3,219.348 44.3,218.253 44.3C216.765 44.3,215.22 44.328,213.676 44.581C213.283 44.665,212.918 44.749,212.833 45.226C212.749 45.76,212.637 46.322,212.637 46.855C212.637 47.164,212.665 47.501,212.777 47.81C212.862 48.006,212.918 48.231,212.918 48.343C212.918 48.624,212.721 48.736,212.272 48.736L212.103 48.736C210.756 48.736,209.464 48.708,208.172 49.073C207.948 49.101,207.526 49.073,207.526 49.382L207.526 49.466C207.611 49.832,207.667 50.281,208.144 50.365C208.453 50.449,208.79 50.477,209.099 50.477C211.345 50.477,213.479 50.365,215.698 50.365C218.365 50.365,221.033 50.814,223.532 50.814"/></g></g><g class="vf-stavenote" id="vf-auto22603" font-family="Arial"><g class="vf-notehead" id="vf-auto22606" pointer-events="bounding-box"><path stroke="none" d="M311.561 90L324.422 90C325.433 90,326.472 90,327.483 89.972C329.027 89.916,329.673 89.186,329.757 87.697C329.841 86.799,329.589 85.956,329.476 85.114C329.28 83.963,328.69 83.485,327.623 83.485C326.668 83.485,325.742 83.57,324.815 83.57C322.793 83.57,320.772 83.457,318.806 83.457L310.859 83.457C309.343 83.457,308.81 83.822,308.81 84.974C308.81 85.198,308.81 85.395,308.838 85.676C308.922 86.209,308.978 86.771,308.978 87.332C308.894 89.242,309.624 90,311.561 90"/></g></g><g class="vf-stavenote" id="vf-auto22607" font-family="Arial"><g class="vf-notehead" id="vf-auto22610" pointer-events="bounding-box"><path stroke="none" d="M407.931 136.346C408.633 136.346,409.278 136.318,409.924 136.262C411.047 136.234,412.311 136.234,413.659 136.234L417.702 136.234C419.837 136.234,421.943 136.234,423.768 136.093C424.975 136.065,426.183 135.616,426.183 133.678C426.183 133.033,426.211 132.387,426.126 131.741C426.098 131.488,426.098 131.292,426.098 131.095C426.098 130.449,426.351 130.477,427.39 130.393C428.289 130.365,429.131 130.449,430.03 130.449C430.788 130.449,431.546 130.393,432.332 130.253C432.529 130.197,432.922 130.281,432.922 129.916L432.922 129.832C432.866 129.523,432.809 129.101,432.276 129.017C431.546 128.905,430.872 128.821,430.142 128.821C422.223 128.821,414.249 129.073,406.33 129.242L403.101 129.242C401.36 129.242,399.619 129.27,397.906 129.438C397.681 129.438,397.401 129.354,397.316 129.607C397.176 129.888,397.485 130.028,397.625 130.197C398.131 130.646,398.777 130.674,399.366 130.758C399.9 130.842,400.377 130.842,400.939 130.842C401.921 130.842,402.932 130.758,403.887 130.814C404.617 130.814,405.066 130.758,405.403 130.899C405.319 131.207,405.263 131.629,405.263 132.022C405.263 132.948,405.431 133.931,405.347 134.689C405.319 135.813,405.628 136.093,406.723 136.262C407.144 136.346,407.537 136.346,407.931 136.346"/></g></g><g class="vf-stavenote" id="vf-auto22611" font-family="Arial"><g class="vf-notehead" id="vf-auto22614" pointer-events="bounding-box"><path stroke="none" d="M540.921 140.814C541.735 140.814,542.549 140.758,543.308 140.646C543.729 140.674,544.122 140.674,544.543 140.674C545.329 140.674,546.116 140.646,546.846 140.477C547.239 140.393,547.857 140.477,547.885 140.028C547.969 139.635,547.435 139.438,547.042 139.27C546.846 139.186,546.677 139.158,546.481 139.101C545.835 139.017,545.189 138.961,544.543 138.961C544.29 138.961,544.01 138.961,543.757 138.989C543.448 139.017,543.195 139.017,542.999 139.017C542.437 139.017,542.269 138.905,542.269 138.512C542.269 138.315,542.297 137.95,542.381 137.501L542.521 136.715C542.578 135.142,541.791 134.216,540.247 134.216C539.77 134.216,539.32 134.216,538.871 134.272C537.832 134.3,536.737 134.3,535.642 134.3C534.154 134.3,532.609 134.328,531.065 134.581C530.672 134.665,530.307 134.749,530.222 135.226C530.138 135.76,530.026 136.322,530.026 136.855C530.026 137.164,530.054 137.501,530.166 137.81C530.25 138.006,530.307 138.231,530.307 138.343C530.307 138.624,530.11 138.736,529.661 138.736L529.492 138.736C528.144 138.736,526.853 138.708,525.561 139.073C525.336 139.101,524.915 139.073,524.915 139.382L524.915 139.466C524.999 139.832,525.056 140.281,525.533 140.365C525.842 140.449,526.179 140.477,526.488 140.477C528.734 140.477,530.868 140.365,533.087 140.365C535.754 140.365,538.422 140.814,540.921 140.814"/></g></g><g class="vf-stavenote" id="vf-auto22615" font-family="Arial"><g class="vf-notehead" id="vf-auto22618" pointer-events="bounding-box"><path stroke="none" d="M636.195 94.858L636.195 94.802L644.226 94.802C645.293 94.802,646.332 94.072,646.388 93.229C646.388 92.92,646.416 92.583,646.416 92.303C646.416 91.685,646.388 91.123,646.163 90.562C645.967 90,645.686 89.719,645.068 89.523C644.844 89.438,644.647 89.438,644.422 89.438C644.001 89.438,643.636 89.523,643.187 89.523C638.357 89.523,633.555 89.523,628.782 89.466C628.136 89.438,627.574 89.663,627.013 89.803C626.535 89.888,626.451 90.168,626.451 90.477C626.451 90.73,626.479 90.983,626.479 91.207C626.479 91.629,626.283 92.022,626.227 92.359C626.198 94.128,626.395 94.858,628.333 94.858"/></g></g></svg>