<svg xmlns="http://www.w3.org/2000/svg" stroke-width="0.3" stroke-dasharray="none" fill="black" stroke="black" font-family="Arial, sans-serif" font-size="10pt" font-weight="normal" font-style="normal" width="600" height="200" viewBox="0 0 600 200" style="width: 600px; height: 200px; border: none;"><g class="vf-stave" id="vf-auto4436" stroke-width="1" fill="#999999" stroke="#999999"><path fill="none" d="M10 62L560 62"/><path fill="none" d="M10 75L560 75"/><path fill="none" d="M10 88L560 88"/><path fill="none" d="M10 101L560 101"/><path fill="none" d="M10 114L560 114"/><path fill="none" d="M10 127L560 127"/></g><g class="vf-stavebarline" id="vf-auto4437"><rect x="10" y="61.5" width="1" height="66" stroke="none"/></g><g class="vf-stavebarline" id="vf-auto4438"><rect x="560" y="61.5" width="1" height="66" stroke="none"/></g><g class="vf-tabnote" id="vf-auto4439" pointer-events="bounding-box"><rect x="43.29" y="85" width="11.422" height="6" fill="#FFF" stroke="none"/><text stroke="none" x="45.29" y="93">6</text><rect x="39.587" y="98" width="18.828" height="6" fill="#FFF" stroke="none"/><text stroke="none" x="41.587" y="106">25</text><g class="vf-stem" id="vf-auto4440" pointer-events="bounding-box"><path stroke-width="1.5" fill="none" d="M49.001 53.5L49.001 20.5"/></g><path stroke="none" d="M57.883 52.455C57.883 52.455,58.922 48.608,58.922 45.435C58.922 40.381,56.816 35.635,54.289 31.592C52.211 28.39,50.526 24.909,49.88 21.034C49.74 20.388,49.431 20.135,49.009 20.135C48.588 20.135,48.251 20.247,48.251 20.753L48.251 30.412C50.919 30.89,54.766 36.393,56.226 39.819C56.816 41.195,57.181 43.498,57.181 45.884C57.181 47.71,56.9 49.619,56.226 51.444C56.142 51.669,56.086 51.865,56.086 52.034C56.086 52.68,56.507 53.045,56.731 53.213C56.984 53.382,57.686 53.129,57.883 52.455"/><g class="vf-annotation" id="vf-auto4479"><text stroke="none" x="49.001" y="10.5">Text</text></g></g><g class="vf-tabnote" id="vf-auto4442" pointer-events="bounding-box"><rect x="82.625" y="72" width="18.833" height="6" fill="#FFF" stroke="none"/><text stroke="none" x="84.625" y="80">10</text><rect x="82.625" y="111" width="18.833" height="6" fill="#FFF" stroke="none"/><text stroke="none" x="84.625" y="119">12</text><g class="vf-stem" id="vf-auto4443" pointer-events="bounding-box"><path stroke-width="1.5" fill="none" d="M92.042 53.5L92.042 20.5"/></g><path stroke="none" d="M100.923 52.455C100.923 52.455,101.962 48.608,101.962 45.435C101.962 40.381,99.856 35.635,97.329 31.592C95.251 28.39,93.566 24.909,92.92 21.034C92.78 20.388,92.471 20.135,92.05 20.135C91.629 20.135,91.292 20.247,91.292 20.753L91.292 30.412C93.959 30.89,97.806 36.393,99.266 39.819C99.856 41.195,100.221 43.498,100.221 45.884C100.221 47.71,99.94 49.619,99.266 51.444C99.182 51.669,99.126 51.865,99.126 52.034C99.126 52.68,99.547 53.045,99.772 53.213C100.024 53.382,100.726 53.129,100.923 52.455"/><g class="vf-annotation" id="vf-auto4480"><text stroke="none" x="78.334" y="83.588">Text</text></g></g><g class="vf-tabnote" id="vf-auto4445" pointer-events="bounding-box"><rect x="125.663" y="59" width="11.422" height="6" fill="#FFF" stroke="none"/><text stroke="none" x="127.663" y="67">6</text><rect x="125.663" y="85" width="11.422" height="6" fill="#FFF" stroke="none"/><text stroke="none" x="127.663" y="93">5</text><g class="vf-stem" id="vf-auto4446" pointer-events="bounding-box"><path stroke-width="1.5" fill="none" d="M131.374 53.5L131.374 20.5"/></g><path stroke="none" d="M140.255 52.455C140.255 52.455,141.294 48.608,141.294 45.435C141.294 40.381,139.188 35.635,136.661 31.592C134.583 28.39,132.898 24.909,132.252 21.034C132.112 20.388,131.803 20.135,131.382 20.135C130.961 20.135,130.624 20.247,130.624 20.753L130.624 30.412C133.291 30.89,137.138 36.393,138.598 39.819C139.188 41.195,139.553 43.498,139.553 45.884C139.553 47.71,139.272 49.619,138.598 51.444C138.514 51.669,138.458 51.865,138.458 52.034C138.458 52.68,138.879 53.045,139.104 53.213C139.356 53.382,140.058 53.129,140.255 52.455"/><g class="vf-annotation" id="vf-auto4481"><text stroke="none" x="103.958" y="140.676">Text</text></g></g><g class="vf-tabnote" id="vf-auto4448" pointer-events="bounding-box"><rect x="168.7" y="59" width="11.422" height="6" fill="#FFF" stroke="none"/><text stroke="none" x="170.7" y="67">6</text><rect x="168.7" y="85" width="11.422" height="6" fill="#FFF" stroke="none"/><text stroke="none" x="170.7" y="93">5</text><g class="vf-stem" id="vf-auto4449" pointer-events="bounding-box"><path stroke-width="1.5" fill="none" d="M174.411 53.5L174.411 20.5"/></g><path stroke="none" d="M183.293 52.455C183.293 52.455,184.332 48.608,184.332 45.435C184.332 40.381,182.226 35.635,179.698 31.592C177.621 28.39,175.936 24.909,175.29 21.034C175.149 20.388,174.841 20.135,174.419 20.135C173.998 20.135,173.661 20.247,173.661 20.753L173.661 30.412C176.329 30.89,180.176 36.393,181.636 39.819C182.226 41.195,182.591 43.498,182.591 45.884C182.591 47.71,182.31 49.619,181.636 51.444C181.552 51.669,181.496 51.865,181.496 52.034C181.496 52.68,181.917 53.045,182.141 53.213C182.394 53.382,183.096 53.129,183.293 52.455"/><g class="vf-annotation" id="vf-auto4482"><text stroke="none" x="160.704" y="44.338">Text</text></g></g><g class="vf-tabnote" id="vf-auto4451" pointer-events="bounding-box"><rect x="215.441" y="85" width="11.422" height="6" fill="#FFF" stroke="none"/><text stroke="none" x="217.441" y="93">6</text><rect x="211.738" y="98" width="18.828" height="6" fill="#FFF" stroke="none"/><text stroke="none" x="213.738" y="106">25</text><g class="vf-stem" id="vf-auto4452" pointer-events="bounding-box"><path stroke-width="1.5" fill="none" d="M221.152 135.5L221.152 168.5"/></g><path stroke="none" d="M230.118 137.78C230.679 139.465,230.96 141.487,230.96 143.312C230.96 145.699,229.949 149.097,229.331 150.473C227.843 153.87,225.821 157.128,220.402 158.953L220.402 168.472C220.402 168.865,220.739 169.062,221.048 169.062C221.413 169.062,221.946 168.837,222.031 168.163C222.705 164.344,225.709 160.806,227.759 157.633C230.314 153.618,232.785 148.816,232.785 143.762C232.785 140.588,231.971 137.724,231.634 136.433C231.522 135.983,231.269 135.815,230.988 135.815C230.399 135.815,229.697 136.601,230.118 137.78"/><g class="vf-annotation" id="vf-auto4483"><text stroke="none" x="193.737" y="53">Text</text></g></g><g class="vf-tabnote" id="vf-auto4455" pointer-events="bounding-box"><rect x="254.776" y="72" width="18.833" height="6" fill="#FFF" stroke="none"/><text stroke="none" x="256.776" y="80">10</text><rect x="254.776" y="111" width="18.833" height="6" fill="#FFF" stroke="none"/><text stroke="none" x="256.776" y="119">12</text><g class="vf-stem" id="vf-auto4456" pointer-events="bounding-box"><path stroke-width="1.5" fill="none" d="M264.192 135.5L264.192 168.5"/></g><path stroke="none" d="M273.158 137.78C273.72 139.465,274 141.487,274 143.312C274 145.699,272.99 149.097,272.372 150.473C270.884 153.87,268.862 157.128,263.442 158.953L263.442 168.472C263.442 168.865,263.779 169.062,264.088 169.062C264.453 169.062,264.987 168.837,265.071 168.163C265.745 164.344,268.749 160.806,270.799 157.633C273.355 153.618,275.826 148.816,275.826 143.762C275.826 140.588,275.011 137.724,274.674 136.433C274.562 135.983,274.309 135.815,274.028 135.815C273.439 135.815,272.737 136.601,273.158 137.78"/><g class="vf-annotation" id="vf-auto4484"><text stroke="none" x="236.777" y="100.338">Text</text></g></g><g class="vf-tabnote" id="vf-auto4459" pointer-events="bounding-box"><rect x="297.813" y="59" width="11.422" height="6" fill="#FFF" stroke="none"/><text stroke="none" x="299.813" y="67">6</text><rect x="297.813" y="85" width="11.422" height="6" fill="#FFF" stroke="none"/><text stroke="none" x="299.813" y="93">5</text><g class="vf-stem" id="vf-auto4460" pointer-events="bounding-box"><path stroke-width="1.5" fill="none" d="M303.524 135.5L303.524 168.5"/></g><path stroke="none" d="M312.49 137.78C313.052 139.465,313.332 141.487,313.332 143.312C313.332 145.699,312.321 149.097,311.704 150.473C310.215 153.87,308.194 157.128,302.774 158.953L302.774 168.472C302.774 168.865,303.111 169.062,303.42 169.062C303.785 169.062,304.319 168.837,304.403 168.163C305.077 164.344,308.081 160.806,310.131 157.633C312.687 153.618,315.158 148.816,315.158 143.762C315.158 140.588,314.343 137.724,314.006 136.433C313.894 135.983,313.641 135.815,313.36 135.815C312.771 135.815,312.069 136.601,312.49 137.78"/><g class="vf-annotation" id="vf-auto4485"><text stroke="none" x="276.109" y="181.176">Text</text></g></g><g class="vf-tabnote" id="vf-auto4463" pointer-events="bounding-box"><rect x="340.851" y="59" width="11.422" height="6" fill="#FFF" stroke="none"/><text stroke="none" x="342.851" y="67">6</text><rect x="340.851" y="85" width="11.422" height="6" fill="#FFF" stroke="none"/><text stroke="none" x="342.851" y="93">5</text><g class="vf-stem" id="vf-auto4464" pointer-events="bounding-box"><path stroke-width="1.5" fill="none" d="M346.562 135.5L346.562 168.5"/></g><path stroke="none" d="M355.528 137.78C356.089 139.465,356.37 141.487,356.37 143.312C356.37 145.699,355.359 149.097,354.741 150.473C353.253 153.87,351.231 157.128,345.812 158.953L345.812 168.472C345.812 168.865,346.149 169.062,346.458 169.062C346.823 169.062,347.356 168.837,347.441 168.163C348.115 164.344,351.119 160.806,353.169 157.633C355.724 153.618,358.195 148.816,358.195 143.762C358.195 140.588,357.381 137.724,357.044 136.433C356.932 135.983,356.679 135.815,356.398 135.815C355.808 135.815,355.106 136.601,355.528 137.78"/><g class="vf-annotation" id="vf-auto4486"><text stroke="none" x="319.147" y="157.338">Text</text></g></g><g class="vf-tabnote" id="vf-auto4467" pointer-events="bounding-box"><rect x="387.592" y="85" width="11.422" height="6" fill="#FFF" stroke="none"/><text stroke="none" x="389.592" y="93">6</text><rect x="383.889" y="98" width="18.828" height="6" fill="#FFF" stroke="none"/><text stroke="none" x="385.889" y="106">25</text><g class="vf-annotation" id="vf-auto4487"><text stroke="none" x="379.595" y="53">Text</text></g></g><g class="vf-tabnote" id="vf-auto4470" pointer-events="bounding-box"><rect x="426.926" y="72" width="18.833" height="6" fill="#FFF" stroke="none"/><text stroke="none" x="428.926" y="80">10</text><rect x="426.926" y="111" width="18.833" height="6" fill="#FFF" stroke="none"/><text stroke="none" x="428.926" y="119">12</text><g class="vf-annotation" id="vf-auto4488"><text stroke="none" x="422.635" y="100.338">Text</text></g></g><g class="vf-tabnote" id="vf-auto4473" pointer-events="bounding-box"><rect x="469.964" y="59" width="11.422" height="6" fill="#FFF" stroke="none"/><text stroke="none" x="471.964" y="67">6</text><rect x="469.964" y="85" width="11.422" height="6" fill="#FFF" stroke="none"/><text stroke="none" x="471.964" y="93">5</text><g class="vf-annotation" id="vf-auto4489"><text stroke="none" x="461.967" y="140.676">Text</text></g></g><g class="vf-tabnote" id="vf-auto4476" pointer-events="bounding-box"><rect x="513.002" y="59" width="11.422" height="6" fill="#FFF" stroke="none"/><text stroke="none" x="515.002" y="67">6</text><rect x="513.002" y="85" width="11.422" height="6" fill="#FFF" stroke="none"/><text stroke="none" x="515.002" y="93">5</text><g class="vf-annotation" id="vf-auto4490"><text stroke="none" x="505.005" y="44.338">Text</text></g></g></svg>