<svg xmlns="http://www.w3.org/2000/svg" stroke-width="0.3" stroke-dasharray="none" fill="black" stroke="black" font-family="Arial, sans-serif" font-size="10pt" font-weight="normal" font-style="normal" width="675" height="195" viewBox="0 0 675 195" style="width: 675px; height: 195px; border: none;"><g class="vf-stave" id="vf-auto4951" stroke-width="1" fill="#999999" stroke="#999999"><path fill="none" d="M10 70L135 70"/><path fill="none" d="M10 80L135 80"/><path fill="none" d="M10 90L135 90"/><path fill="none" d="M10 100L135 100"/><path fill="none" d="M10 110L135 110"/></g><g class="vf-stavebarline" id="vf-auto4952"><rect x="10" y="69.5" width="1" height="41" stroke="none"/></g><g class="vf-stavebarline" id="vf-auto4953"/><g class="vf-stavenote" id="vf-auto4922"><path stroke-width="1.4" fill="none" stroke="#444" d="M24 120L43.141 120"/><path stroke-width="1.4" fill="none" stroke="#444" d="M24 130L43.141 130"/><g class="vf-stem" id="vf-auto4923" pointer-events="bounding-box"><path stroke-width="1.5" fill="none" d="M39.391 128L39.391 90"/></g><g class="vf-notehead" id="vf-auto4925" pointer-events="bounding-box"><path stroke="none" d="M27 131.685C27 133.426,28.264 135.391,31.521 135.391C35.733 135.391,40.141 131.938,40.141 128.371C40.141 125.985,38.12 124.665,35.621 124.665C31.689 124.665,27 127.978,27 131.685"/><path stroke="none" d="M34.104 150.561C36.786 150.287,38.865 148.044,38.865 145.28C38.865 142.353,36.512 140,33.557 140C30.63 140,28.277 142.353,28.277 145.28C28.277 148.044,30.356 150.287,33.037 150.561L33.037 154.774C33.037 155.075,33.283 155.322,33.584 155.322C33.858 155.322,34.104 155.075,34.104 154.774M33.584 141.094C35.883 141.094,37.77 142.955,37.77 145.28C37.77 147.415,36.184 149.166,34.104 149.439L34.104 145.28C34.104 145.007,33.858 144.733,33.584 144.733C33.283 144.733,33.037 145.007,33.037 145.28L33.037 149.439C30.958 149.166,29.371 147.415,29.371 145.28C29.371 142.955,31.259 141.094,33.584 141.094"/></g></g><g class="vf-stavenote" id="vf-auto4926"><g class="vf-stem" id="vf-auto4927" pointer-events="bounding-box"><path stroke-width="1.5" fill="none" d="M65.597 93L65.597 60"/></g><g class="vf-notehead" id="vf-auto4929" pointer-events="bounding-box"><path stroke="none" d="M53.206 96.685C53.206 98.426,54.469 100.391,57.727 100.391C61.939 100.391,66.347 96.938,66.347 93.371C66.347 90.985,64.325 89.665,61.826 89.665C57.895 89.665,53.206 92.978,53.206 96.685"/><path stroke="none" d="M60.31 125.561C62.991 125.287,65.071 123.044,65.071 120.28C65.071 117.353,62.718 115,59.763 115C56.835 115,54.482 117.353,54.482 120.28C54.482 123.044,56.562 125.287,59.243 125.561L59.243 129.774C59.243 130.075,59.489 130.322,59.79 130.322C60.064 130.322,60.31 130.075,60.31 129.774M59.79 116.094C62.088 116.094,63.976 117.955,63.976 120.28C63.976 122.415,62.389 124.166,60.31 124.439L60.31 120.28C60.31 120.007,60.064 119.733,59.79 119.733C59.489 119.733,59.243 120.007,59.243 120.28L59.243 124.439C57.164 124.166,55.577 122.415,55.577 120.28C55.577 117.955,57.465 116.094,59.79 116.094"/></g></g><g class="vf-stavenote" id="vf-auto4930"><path stroke-width="1.4" fill="none" stroke="#444" d="M76.412 120L95.553 120"/><g class="vf-stem" id="vf-auto4931" pointer-events="bounding-box"><path stroke-width="1.5" fill="none" d="M91.803 118L91.803 85"/></g><g class="vf-notehead" id="vf-auto4933" pointer-events="bounding-box"><path stroke="none" d="M79.412 121.685C79.412 123.426,80.675 125.391,83.932 125.391C88.144 125.391,92.553 121.938,92.553 118.371C92.553 115.985,90.531 114.665,88.032 114.665C84.101 114.665,79.412 117.978,79.412 121.685"/><path stroke="none" d="M86.516 50.226C86.516 49.897,86.27 49.678,85.996 49.678C85.695 49.678,85.449 49.897,85.449 50.226L85.449 54.439C82.768 54.713,80.688 56.956,80.688 59.72C80.688 62.647,83.041 65,85.996 65C88.924 65,91.276 62.647,91.276 59.72C91.276 56.956,89.197 54.713,86.516 54.439M85.996 63.906C83.67 63.906,81.783 62.018,81.783 59.72C81.783 57.585,83.369 55.807,85.449 55.533L85.449 59.72C85.449 59.993,85.695 60.267,85.996 60.267C86.27 60.267,86.516 59.993,86.516 59.72L86.516 55.533C88.595 55.807,90.182 57.585,90.182 59.72C90.182 62.018,88.294 63.906,85.996 63.906"/></g></g><g class="vf-stavenote" id="vf-auto4934"><g class="vf-stem" id="vf-auto4935" pointer-events="bounding-box"><path stroke-width="1.5" fill="none" d="M118.009 93L118.009 60"/></g><g class="vf-notehead" id="vf-auto4937" pointer-events="bounding-box"><path stroke="none" d="M105.617 96.685C105.617 98.426,106.881 100.391,110.138 100.391C114.35 100.391,118.759 96.938,118.759 93.371C118.759 90.985,116.737 89.665,114.238 89.665C110.307 89.665,105.617 92.978,105.617 96.685"/><path stroke="none" d="M112.722 40.226C112.722 39.897,112.475 39.678,112.202 39.678C111.901 39.678,111.655 39.897,111.655 40.226L111.655 44.439C108.973 44.713,106.894 46.956,106.894 49.72C106.894 52.647,109.247 55,112.202 55C115.129 55,117.482 52.647,117.482 49.72C117.482 46.956,115.403 44.713,112.722 44.439M112.202 53.906C109.876 53.906,107.988 52.018,107.988 49.72C107.988 47.585,109.575 45.807,111.655 45.533L111.655 49.72C111.655 49.993,111.901 50.267,112.202 50.267C112.475 50.267,112.722 49.993,112.722 49.72L112.722 45.533C114.801 45.807,116.388 47.585,116.388 49.72C116.388 52.018,114.5 53.906,112.202 53.906"/></g></g><g class="vf-stave" id="vf-auto4983" stroke-width="1" fill="#999999" stroke="#999999"><path fill="none" d="M135 70L260 70"/><path fill="none" d="M135 80L260 80"/><path fill="none" d="M135 90L260 90"/><path fill="none" d="M135 100L260 100"/><path fill="none" d="M135 110L260 110"/></g><g class="vf-stavebarline" id="vf-auto4984"><rect x="135" y="69.5" width="1" height="41" stroke="none"/></g><g class="vf-stavebarline" id="vf-auto4985"><rect x="257" y="69.5" width="1" height="41" stroke="none"/><rect x="260" y="69.5" width="1" height="41" stroke="none"/></g><g class="vf-stavenote" id="vf-auto4954"><g class="vf-stem" id="vf-auto4955" pointer-events="bounding-box"><path stroke-width="1.5" fill="none" d="M152.75 87L152.75 120"/></g><g class="vf-notehead" id="vf-auto4957" pointer-events="bounding-box"><path stroke="none" d="M152 86.685C152 88.426,153.264 90.391,156.521 90.391C160.733 90.391,165.141 86.938,165.141 83.371C165.141 80.985,163.12 79.665,160.621 79.665C156.689 79.665,152 82.978,152 86.685"/><path stroke="none" d="M159.104 50.226C159.104 49.897,158.858 49.678,158.584 49.678C158.283 49.678,158.037 49.897,158.037 50.226L158.037 54.439C155.356 54.713,153.277 56.956,153.277 59.72C153.277 62.647,155.63 65,158.584 65C161.512 65,163.865 62.647,163.865 59.72C163.865 56.956,161.786 54.713,159.104 54.439M158.584 63.906C156.259 63.906,154.371 62.018,154.371 59.72C154.371 57.585,155.958 55.807,158.037 55.533L158.037 59.72C158.037 59.993,158.283 60.267,158.584 60.267C158.858 60.267,159.104 59.993,159.104 59.72L159.104 55.533C161.184 55.807,162.77 57.585,162.77 59.72C162.77 62.018,160.883 63.906,158.584 63.906"/></g></g><g class="vf-stavenote" id="vf-auto4958"><path stroke-width="1.4" fill="none" stroke="#444" d="M175.206 60L194.347 60"/><g class="vf-stem" id="vf-auto4959" pointer-events="bounding-box"><path stroke-width="1.5" fill="none" d="M178.956 62L178.956 95"/></g><g class="vf-notehead" id="vf-auto4961" pointer-events="bounding-box"><path stroke="none" d="M178.206 61.685C178.206 63.426,179.469 65.391,182.727 65.391C186.939 65.391,191.347 61.938,191.347 58.371C191.347 55.985,189.325 54.665,186.826 54.665C182.895 54.665,178.206 57.978,178.206 61.685"/><path stroke="none" d="M185.31 35.226C185.31 34.897,185.064 34.678,184.79 34.678C184.489 34.678,184.243 34.897,184.243 35.226L184.243 39.439C181.562 39.713,179.482 41.956,179.482 44.72C179.482 47.647,181.835 50,184.79 50C187.718 50,190.071 47.647,190.071 44.72C190.071 41.956,187.991 39.713,185.31 39.439M184.79 48.906C182.465 48.906,180.577 47.018,180.577 44.72C180.577 42.585,182.164 40.807,184.243 40.533L184.243 44.72C184.243 44.993,184.489 45.267,184.79 45.267C185.064 45.267,185.31 44.993,185.31 44.72L185.31 40.533C187.389 40.807,188.976 42.585,188.976 44.72C188.976 47.018,187.088 48.906,184.79 48.906"/></g></g><g class="vf-stavenote" id="vf-auto4962"><g class="vf-stem" id="vf-auto4963" pointer-events="bounding-box"><path stroke-width="1.5" fill="none" d="M205.162 87L205.162 120"/></g><g class="vf-notehead" id="vf-auto4965" pointer-events="bounding-box"><path stroke="none" d="M204.412 86.685C204.412 88.426,205.675 90.391,208.932 90.391C213.144 90.391,217.553 86.938,217.553 83.371C217.553 80.985,215.531 79.665,213.032 79.665C209.101 79.665,204.412 82.978,204.412 86.685"/><path stroke="none" d="M211.516 135.561C214.197 135.287,216.276 133.044,216.276 130.28C216.276 127.353,213.924 125,210.969 125C208.041 125,205.688 127.353,205.688 130.28C205.688 133.044,207.768 135.287,210.449 135.561L210.449 139.774C210.449 140.075,210.695 140.322,210.996 140.322C211.27 140.322,211.516 140.075,211.516 139.774M210.996 126.094C213.294 126.094,215.182 127.955,215.182 130.28C215.182 132.415,213.595 134.166,211.516 134.439L211.516 130.28C211.516 130.007,211.27 129.733,210.996 129.733C210.695 129.733,210.449 130.007,210.449 130.28L210.449 134.439C208.369 134.166,206.783 132.415,206.783 130.28C206.783 127.955,208.67 126.094,210.996 126.094"/></g></g><g class="vf-stavenote" id="vf-auto4966"><path stroke-width="1.4" fill="none" stroke="#444" d="M227.617 60L246.759 60"/><g class="vf-stem" id="vf-auto4967" pointer-events="bounding-box"><path stroke-width="1.5" fill="none" d="M231.367 62L231.367 95"/></g><g class="vf-notehead" id="vf-auto4969" pointer-events="bounding-box"><path stroke="none" d="M230.617 61.685C230.617 63.426,231.881 65.391,235.138 65.391C239.35 65.391,243.759 61.938,243.759 58.371C243.759 55.985,241.737 54.665,239.238 54.665C235.307 54.665,230.617 57.978,230.617 61.685"/><path stroke="none" d="M237.722 125.561C240.403 125.287,242.482 123.044,242.482 120.28C242.482 117.353,240.129 115,237.174 115C234.247 115,231.894 117.353,231.894 120.28C231.894 123.044,233.973 125.287,236.655 125.561L236.655 129.774C236.655 130.075,236.901 130.322,237.202 130.322C237.475 130.322,237.722 130.075,237.722 129.774M237.202 116.094C239.5 116.094,241.388 117.955,241.388 120.28C241.388 122.415,239.801 124.166,237.722 124.439L237.722 120.28C237.722 120.007,237.475 119.733,237.202 119.733C236.901 119.733,236.655 120.007,236.655 120.28L236.655 124.439C234.575 124.166,232.988 122.415,232.988 120.28C232.988 117.955,234.876 116.094,237.202 116.094"/></g></g><g class="vf-stave" id="vf-auto5015" stroke-width="1" fill="#999999" stroke="#999999"><path fill="none" d="M260 70L385 70"/><path fill="none" d="M260 80L385 80"/><path fill="none" d="M260 90L385 90"/><path fill="none" d="M260 100L385 100"/><path fill="none" d="M260 110L385 110"/></g><g class="vf-stavebarline" id="vf-auto5016"><rect x="260" y="69.5" width="1" height="41" stroke="none"/></g><g class="vf-stavebarline" id="vf-auto5017"/><g class="vf-stavenote" id="vf-auto4986"><path stroke-width="1.4" fill="none" stroke="#444" d="M274 120L293.141 120"/><g class="vf-stem" id="vf-auto4987" pointer-events="bounding-box"><path stroke-width="1.5" fill="none" d="M289.391 118L289.391 85"/></g><g class="vf-notehead" id="vf-auto4989" pointer-events="bounding-box"><path stroke="none" d="M277 121.685C277 123.426,278.264 125.391,281.521 125.391C285.733 125.391,290.141 121.938,290.141 118.371C290.141 115.985,288.12 114.665,285.621 114.665C281.689 114.665,277 117.978,277 121.685"/><path stroke="none" d="M284.104 140.561C286.786 140.287,288.865 138.044,288.865 135.28C288.865 132.353,286.512 130,283.557 130C280.63 130,278.277 132.353,278.277 135.28C278.277 138.044,280.356 140.287,283.037 140.561L283.037 144.774C283.037 145.075,283.283 145.322,283.584 145.322C283.858 145.322,284.104 145.075,284.104 144.774M283.584 131.094C285.883 131.094,287.77 132.955,287.77 135.28C287.77 137.415,286.184 139.166,284.104 139.439L284.104 135.28C284.104 135.007,283.858 134.733,283.584 134.733C283.283 134.733,283.037 135.007,283.037 135.28L283.037 139.439C280.958 139.166,279.371 137.415,279.371 135.28C279.371 132.955,281.259 131.094,283.584 131.094"/></g></g><g class="vf-stavenote" id="vf-auto4990"><g class="vf-stem" id="vf-auto4991" pointer-events="bounding-box"><path stroke-width="1.5" fill="none" d="M315.597 83L315.597 50"/></g><g class="vf-notehead" id="vf-auto4993" pointer-events="bounding-box"><path stroke="none" d="M303.206 86.685C303.206 88.426,304.469 90.391,307.727 90.391C311.939 90.391,316.347 86.938,316.347 83.371C316.347 80.985,314.325 79.665,311.826 79.665C307.895 79.665,303.206 82.978,303.206 86.685"/><path stroke="none" d="M310.31 125.561C312.991 125.287,315.071 123.044,315.071 120.28C315.071 117.353,312.718 115,309.763 115C306.835 115,304.482 117.353,304.482 120.28C304.482 123.044,306.562 125.287,309.243 125.561L309.243 129.774C309.243 130.075,309.489 130.322,309.79 130.322C310.064 130.322,310.31 130.075,310.31 129.774M309.79 116.094C312.088 116.094,313.976 117.955,313.976 120.28C313.976 122.415,312.389 124.166,310.31 124.439L310.31 120.28C310.31 120.007,310.064 119.733,309.79 119.733C309.489 119.733,309.243 120.007,309.243 120.28L309.243 124.439C307.164 124.166,305.577 122.415,305.577 120.28C305.577 117.955,307.465 116.094,309.79 116.094"/></g></g><g class="vf-stavenote" id="vf-auto4994"><path stroke-width="1.4" fill="none" stroke="#444" d="M326.412 120L345.553 120"/><g class="vf-stem" id="vf-auto4995" pointer-events="bounding-box"><path stroke-width="1.5" fill="none" d="M341.803 118L341.803 85"/></g><g class="vf-notehead" id="vf-auto4997" pointer-events="bounding-box"><path stroke="none" d="M329.412 121.685C329.412 123.426,330.675 125.391,333.932 125.391C338.144 125.391,342.553 121.938,342.553 118.371C342.553 115.985,340.531 114.665,338.032 114.665C334.101 114.665,329.412 117.978,329.412 121.685"/><path stroke="none" d="M336.516 50.226C336.516 49.897,336.27 49.678,335.996 49.678C335.695 49.678,335.449 49.897,335.449 50.226L335.449 54.439C332.768 54.713,330.688 56.956,330.688 59.72C330.688 62.647,333.041 65,335.996 65C338.924 65,341.276 62.647,341.276 59.72C341.276 56.956,339.197 54.713,336.516 54.439M335.996 63.906C333.67 63.906,331.783 62.018,331.783 59.72C331.783 57.585,333.369 55.807,335.449 55.533L335.449 59.72C335.449 59.993,335.695 60.267,335.996 60.267C336.27 60.267,336.516 59.993,336.516 59.72L336.516 55.533C338.595 55.807,340.182 57.585,340.182 59.72C340.182 62.018,338.294 63.906,335.996 63.906"/></g></g><g class="vf-stavenote" id="vf-auto4998"><g class="vf-stem" id="vf-auto4999" pointer-events="bounding-box"><path stroke-width="1.5" fill="none" d="M368.009 93L368.009 60"/></g><g class="vf-notehead" id="vf-auto5001" pointer-events="bounding-box"><path stroke="none" d="M355.617 96.685C355.617 98.426,356.881 100.391,360.138 100.391C364.35 100.391,368.759 96.938,368.759 93.371C368.759 90.985,366.737 89.665,364.238 89.665C360.307 89.665,355.617 92.978,355.617 96.685"/><path stroke="none" d="M362.722 40.226C362.722 39.897,362.475 39.678,362.202 39.678C361.901 39.678,361.655 39.897,361.655 40.226L361.655 44.439C358.973 44.713,356.894 46.956,356.894 49.72C356.894 52.647,359.247 55,362.202 55C365.129 55,367.482 52.647,367.482 49.72C367.482 46.956,365.403 44.713,362.722 44.439M362.202 53.906C359.876 53.906,357.988 52.018,357.988 49.72C357.988 47.585,359.575 45.807,361.655 45.533L361.655 49.72C361.655 49.993,361.901 50.267,362.202 50.267C362.475 50.267,362.722 49.993,362.722 49.72L362.722 45.533C364.801 45.807,366.388 47.585,366.388 49.72C366.388 52.018,364.5 53.906,362.202 53.906"/></g></g><g class="vf-stave" id="vf-auto5047" stroke-width="1" fill="#999999" stroke="#999999"><path fill="none" d="M385 70L510 70"/><path fill="none" d="M385 80L510 80"/><path fill="none" d="M385 90L510 90"/><path fill="none" d="M385 100L510 100"/><path fill="none" d="M385 110L510 110"/></g><g class="vf-stavebarline" id="vf-auto5048"><rect x="385" y="69.5" width="1" height="41" stroke="none"/></g><g class="vf-stavebarline" id="vf-auto5049"><rect x="505" y="69.5" width="1" height="41" stroke="none"/><rect x="508" y="69.5" width="3" height="41" stroke="none"/></g><g class="vf-stavenote" id="vf-auto5018"><g class="vf-stem" id="vf-auto5019" pointer-events="bounding-box"><path stroke-width="1.5" fill="none" d="M402.75 97L402.75 130"/></g><g class="vf-notehead" id="vf-auto5021" pointer-events="bounding-box"><path stroke="none" d="M402 96.685C402 98.426,403.264 100.391,406.521 100.391C410.733 100.391,415.141 96.938,415.141 93.371C415.141 90.985,413.12 89.665,410.621 89.665C406.689 89.665,402 92.978,402 96.685"/><path stroke="none" d="M409.104 50.226C409.104 49.897,408.858 49.678,408.584 49.678C408.283 49.678,408.037 49.897,408.037 50.226L408.037 54.439C405.356 54.713,403.277 56.956,403.277 59.72C403.277 62.647,405.63 65,408.584 65C411.512 65,413.865 62.647,413.865 59.72C413.865 56.956,411.786 54.713,409.104 54.439M408.584 63.906C406.259 63.906,404.371 62.018,404.371 59.72C404.371 57.585,405.958 55.807,408.037 55.533L408.037 59.72C408.037 59.993,408.283 60.267,408.584 60.267C408.858 60.267,409.104 59.993,409.104 59.72L409.104 55.533C411.184 55.807,412.77 57.585,412.77 59.72C412.77 62.018,410.883 63.906,408.584 63.906"/></g></g><g class="vf-stavenote" id="vf-auto5022"><path stroke-width="1.4" fill="none" stroke="#444" d="M425.206 60L444.347 60"/><g class="vf-stem" id="vf-auto5023" pointer-events="bounding-box"><path stroke-width="1.5" fill="none" d="M428.956 62L428.956 95"/></g><g class="vf-notehead" id="vf-auto5025" pointer-events="bounding-box"><path stroke="none" d="M428.206 61.685C428.206 63.426,429.469 65.391,432.727 65.391C436.939 65.391,441.347 61.938,441.347 58.371C441.347 55.985,439.325 54.665,436.826 54.665C432.895 54.665,428.206 57.978,428.206 61.685"/><path stroke="none" d="M435.31 35.226C435.31 34.897,435.064 34.678,434.79 34.678C434.489 34.678,434.243 34.897,434.243 35.226L434.243 39.439C431.562 39.713,429.482 41.956,429.482 44.72C429.482 47.647,431.835 50,434.79 50C437.718 50,440.071 47.647,440.071 44.72C440.071 41.956,437.991 39.713,435.31 39.439M434.79 48.906C432.465 48.906,430.577 47.018,430.577 44.72C430.577 42.585,432.164 40.807,434.243 40.533L434.243 44.72C434.243 44.993,434.489 45.267,434.79 45.267C435.064 45.267,435.31 44.993,435.31 44.72L435.31 40.533C437.389 40.807,438.976 42.585,438.976 44.72C438.976 47.018,437.088 48.906,434.79 48.906"/></g></g><g class="vf-stavenote" id="vf-auto5026"><g class="vf-stem" id="vf-auto5027" pointer-events="bounding-box"><path stroke-width="1.5" fill="none" d="M455.162 87L455.162 120"/></g><g class="vf-notehead" id="vf-auto5029" pointer-events="bounding-box"><path stroke="none" d="M454.412 86.685C454.412 88.426,455.675 90.391,458.932 90.391C463.144 90.391,467.553 86.938,467.553 83.371C467.553 80.985,465.531 79.665,463.032 79.665C459.101 79.665,454.412 82.978,454.412 86.685"/><path stroke="none" d="M461.516 135.561C464.197 135.287,466.276 133.044,466.276 130.28C466.276 127.353,463.924 125,460.969 125C458.041 125,455.688 127.353,455.688 130.28C455.688 133.044,457.768 135.287,460.449 135.561L460.449 139.774C460.449 140.075,460.695 140.322,460.996 140.322C461.27 140.322,461.516 140.075,461.516 139.774M460.996 126.094C463.294 126.094,465.182 127.955,465.182 130.28C465.182 132.415,463.595 134.166,461.516 134.439L461.516 130.28C461.516 130.007,461.27 129.733,460.996 129.733C460.695 129.733,460.449 130.007,460.449 130.28L460.449 134.439C458.369 134.166,456.783 132.415,456.783 130.28C456.783 127.955,458.67 126.094,460.996 126.094"/></g></g><g class="vf-stavenote" id="vf-auto5030"><path stroke-width="1.4" fill="none" stroke="#444" d="M477.617 60L496.759 60"/><g class="vf-stem" id="vf-auto5031" pointer-events="bounding-box"><path stroke-width="1.5" fill="none" d="M481.367 62L481.367 95"/></g><g class="vf-notehead" id="vf-auto5033" pointer-events="bounding-box"><path stroke="none" d="M480.617 61.685C480.617 63.426,481.881 65.391,485.138 65.391C489.35 65.391,493.759 61.938,493.759 58.371C493.759 55.985,491.737 54.665,489.238 54.665C485.307 54.665,480.617 57.978,480.617 61.685"/><path stroke="none" d="M487.722 125.561C490.403 125.287,492.482 123.044,492.482 120.28C492.482 117.353,490.129 115,487.174 115C484.247 115,481.894 117.353,481.894 120.28C481.894 123.044,483.973 125.287,486.655 125.561L486.655 129.774C486.655 130.075,486.901 130.322,487.202 130.322C487.475 130.322,487.722 130.075,487.722 129.774M487.202 116.094C489.5 116.094,491.388 117.955,491.388 120.28C491.388 122.415,489.801 124.166,487.722 124.439L487.722 120.28C487.722 120.007,487.475 119.733,487.202 119.733C486.901 119.733,486.655 120.007,486.655 120.28L486.655 124.439C484.575 124.166,482.988 122.415,482.988 120.28C482.988 117.955,484.876 116.094,487.202 116.094"/></g></g></svg>