<svg xmlns="http://www.w3.org/2000/svg" stroke-width="0.3" stroke-dasharray="none" fill="black" stroke="black" font-family="Arial, sans-serif" font-size="10pt" font-weight="normal" font-style="normal" width="520" height="280" viewBox="0 0 520 280" style="width: 520px; height: 280px; border: none;"><text stroke="none" font-size="8pt" x="56.737" y="170">68px</text><path stroke-width="3" fill="none" stroke="red" d="M56.737 177L96.134 177"/><path stroke-width="3" fill="none" stroke="#999" d="M96.134 177L96.134 177"/><path stroke-width="3" fill="none" stroke="green" d="M96.134 177L109.64 177"/><path stroke-width="3" fill="none" stroke="#999" d="M109.64 177L109.64 177"/><path stroke-width="3" fill="none" stroke="red" d="M109.64 177L125.148 177"/><path stroke-width="3" fill="none" stroke="#DD0" d="M125.148 177L275.084 177"/><path stroke-width="3" fill="none" stroke="#BBB" d="M41.229 177L56.737 177"/><path stroke-width="3" fill="blue" stroke="none" d="M99.134 177 A3 3 0 0 0 93.134 177 A3 3 0 0 0 99.134 177Z"/><text stroke-width="3" fill="red" stroke="none" font-size="8pt" x="96.134" y="160">-28</text><text stroke="none" font-size="8pt" x="275.084" y="170">29px</text><path stroke-width="3" fill="none" stroke="red" d="M275.084 177L275.084 177"/><path stroke-width="3" fill="none" stroke="#999" d="M275.084 177L288.592 177"/><path stroke-width="3" fill="none" stroke="green" d="M288.592 177L304.1 177"/><path stroke-width="3" fill="none" stroke="#999" d="M304.1 177L304.1 177"/><path stroke-width="3" fill="none" stroke="red" d="M304.1 177L304.1 177"/><path stroke-width="3" fill="none" stroke="#DD0" d="M304.1 177L369.751 177"/><path stroke-width="3" fill="none" stroke="#BBB" d="M275.084 177L275.084 177"/><path stroke-width="3" fill="blue" stroke="none" d="M291.592 177 A3 3 0 0 0 285.592 177 A3 3 0 0 0 291.592 177Z"/><text stroke-width="3" fill="red" stroke="none" font-size="8pt" x="288.592" y="160">+0</text><text stroke="none" font-size="8pt" x="369.751" y="170">16px</text><path stroke-width="3" fill="none" stroke="red" d="M369.751 177L369.751 177"/><path stroke-width="3" fill="none" stroke="#999" d="M369.751 177L369.751 177"/><path stroke-width="3" fill="none" stroke="green" d="M369.751 177L385.259 177"/><path stroke-width="3" fill="none" stroke="#999" d="M385.259 177L385.259 177"/><path stroke-width="3" fill="none" stroke="red" d="M385.259 177L385.259 177"/><path stroke-width="3" fill="none" stroke="#DD0" d="M385.259 177L414.359 177"/><path stroke-width="3" fill="none" stroke="#BBB" d="M369.751 177L369.751 177"/><path stroke-width="3" fill="blue" stroke="none" d="M372.751 177 A3 3 0 0 0 366.751 177 A3 3 0 0 0 372.751 177Z"/><text stroke-width="3" fill="red" stroke="none" font-size="8pt" x="369.751" y="160">+0</text><text stroke="none" font-size="8pt" x="414.359" y="170">50px</text><path stroke-width="3" fill="none" stroke="red" d="M414.359 177L450.91 177"/><path stroke-width="3" fill="none" stroke="#999" d="M450.91 177L450.91 177"/><path stroke-width="3" fill="none" stroke="green" d="M450.91 177L464.418 177"/><path stroke-width="3" fill="none" stroke="#999" d="M464.418 177L464.418 177"/><path stroke-width="3" fill="none" stroke="red" d="M464.418 177L464.418 177"/><path stroke-width="3" fill="none" stroke="#DD0" d="M464.418 177L505.586 177"/><path stroke-width="3" fill="none" stroke="#BBB" d="M414.359 177L414.359 177"/><path stroke-width="3" fill="blue" stroke="none" d="M453.91 177 A3 3 0 0 0 447.91 177 A3 3 0 0 0 453.91 177Z"/><text stroke-width="3" fill="red" stroke="none" font-size="8pt" x="450.91" y="160">-17</text><text stroke="none" font-size="8pt" x="41.229" y="10">68px</text><path stroke-width="3" fill="none" stroke="red" d="M41.229 17L80.626 17"/><path stroke-width="3" fill="none" stroke="#999" d="M80.626 17L80.626 17"/><path stroke-width="3" fill="none" stroke="green" d="M80.626 17L94.134 17"/><path stroke-width="3" fill="none" stroke="#999" d="M94.134 17L94.134 17"/><path stroke-width="3" fill="none" stroke="red" d="M94.134 17L109.642 17"/><path stroke-width="3" fill="none" stroke="#DD0" d="M109.642 17L203.169 17"/><path stroke-width="3" fill="none" stroke="#BBB" d="M41.229 17L41.229 17"/><path stroke-width="3" fill="blue" stroke="none" d="M83.626 17 A3 3 0 0 0 77.626 17 A3 3 0 0 0 83.626 17Z"/><text stroke-width="3" fill="red" stroke="none" font-size="8pt" x="80.626">+51</text><text stroke="none" font-size="8pt" x="203.169" y="10">29px</text><path stroke-width="3" fill="none" stroke="red" d="M203.169 17L203.169 17"/><path stroke-width="3" fill="none" stroke="#999" d="M203.169 17L203.169 17"/><path stroke-width="3" fill="none" stroke="green" d="M203.169 17L218.676 17"/><path stroke-width="3" fill="none" stroke="#999" d="M218.676 17L232.182 17"/><path stroke-width="3" fill="none" stroke="red" d="M232.182 17L232.182 17"/><path stroke-width="3" fill="none" stroke="#DD0" d="M232.182 17L414.359 17"/><path stroke-width="3" fill="none" stroke="#BBB" d="M203.169 17L203.169 17"/><path stroke-width="3" fill="blue" stroke="none" d="M206.169 17 A3 3 0 0 0 200.169 17 A3 3 0 0 0 206.169 17Z"/><text stroke-width="3" fill="red" stroke="none" font-size="8pt" x="203.169">+28</text><text stroke="none" font-size="8pt" x="414.359" y="10">50px</text><path stroke-width="3" fill="none" stroke="red" d="M414.359 17L450.91 17"/><path stroke-width="3" fill="none" stroke="#999" d="M450.91 17L450.91 17"/><path stroke-width="3" fill="none" stroke="green" d="M450.91 17L464.418 17"/><path stroke-width="3" fill="none" stroke="#999" d="M464.418 17L464.418 17"/><path stroke-width="3" fill="none" stroke="red" d="M464.418 17L464.418 17"/><path stroke-width="3" fill="none" stroke="#DD0" d="M464.418 17L505.586 17"/><path stroke-width="3" fill="none" stroke="#BBB" d="M414.359 17L414.359 17"/><path stroke-width="3" fill="blue" stroke="none" d="M453.91 17 A3 3 0 0 0 447.91 17 A3 3 0 0 0 453.91 17Z"/><text stroke-width="3" fill="red" stroke="none" font-size="8pt" x="450.91">-17</text><g class="vf-stave" id="vf-auto12393" stroke-width="1" fill="#999999" stroke="#999999"><path fill="none" d="M0 70L510 70"/><path fill="none" d="M0 80L510 80"/><path fill="none" d="M0 90L510 90"/><path fill="none" d="M0 100L510 100"/><path fill="none" d="M0 110L510 110"/></g><g class="vf-stavebarline" id="vf-auto12394"><rect y="69.5" width="1" height="41" stroke="none"/></g><g class="vf-stavebarline" id="vf-auto12395"><rect x="510" y="69.5" width="1" height="41" stroke="none"/></g><g class="vf-clef" id="vf-auto12396"><path stroke="none" d="M13.693 121.402C13.87 121.402,14.048 121.377,14.276 121.301C14.707 121.148,15.062 120.92,15.366 120.591C18.382 117.423,19.623 113.596,19.75 109.313C19.75 108.983,19.776 108.451,19.776 108.451C19.776 108.451,20.282 108.147,20.511 108.071C21.727 107.488,22.893 106.829,23.932 105.993C26.72 103.762,28.316 100.747,29.051 97.376C29.204 96.844,29.229 96.286,29.229 95.779C29.229 93.473,27.962 91.8,25.047 91.268C24.312 91.116,23.577 91.04,22.842 91.04C21.017 91.04,19.269 91.521,17.621 92.484C17.419 92.611,17.19 92.763,17.19 92.763L16.253 89.215C16.202 89.038,16.202 88.708,16.202 88.708C16.202 88.708,19.928 82.093,20.434 78.697C20.612 77.709,20.688 76.72,20.688 75.757C20.688 74.972,20.663 74.237,20.536 73.527C20.181 70.891,19.193 68.408,18.534 65.848C18.356 65.088,18.103 64.175,17.216 64.175C16.557 64.175,16.101 64.809,15.695 65.341C13.82 67.926,12.907 70.891,12.73 74.059C12.705 74.566,12.705 75.098,12.705 75.605C12.705 78.545,13.186 81.51,13.566 84.425C13.566 84.653,13.642 84.881,13.693 85.059C12.046 87.39,10.221 89.57,8.65 91.978C7.56 93.701,6.343 95.424,5.583 97.35C5.177 98.288,5 99.403,5 100.493C5 102.749,5.76 105.055,7.078 106.322C7.839 107.057,9.055 107.868,10.246 108.299C11.944 108.907,13.617 109.313,15.391 109.313C15.923 109.313,16.455 109.287,17.013 109.211L17.444 109.135C17.444 109.135,17.469 109.465,17.444 109.642C17.038 111.847,16.506 114.001,15.188 115.826C14.479 116.764,13.82 117.828,12.451 117.93C12.046 117.98,11.868 118.234,11.868 118.563C11.868 118.69,11.894 118.817,11.944 118.944C12.147 119.501,12.4 120.084,12.654 120.642C12.882 121.148,13.237 121.402,13.693 121.402M15.138 82.828C14.859 81.08,14.681 79.356,14.681 77.633C14.681 74.465,15.34 71.373,17.19 68.408C17.621 69.751,17.849 71.119,17.849 72.488C17.849 73.198,17.773 73.933,17.672 74.642C17.19 77.506,16.532 80.269,15.138 82.828M11.387 104.421C10.88 104.396,10.449 104.219,9.967 104.067C9.004 103.737,8.219 103.382,7.965 102.749C7.839 102.47,7.813 102.14,7.813 101.811C7.813 101.406,7.889 100.975,7.965 100.518C7.991 100.316,8.219 99.682,8.295 99.581C9.714 97.046,11.412 94.765,13.211 92.459L14.732 90.457L15.011 91.268C15.29 92.18,15.543 93.625,15.543 93.625C15.543 93.625,14.529 94.943,13.87 95.602C12.046 97.376,11.159 99.606,11.159 102.064C11.159 102.673,11.235 103.306,11.361 103.965C11.387 104.092,11.387 104.219,11.387 104.421M19.269 103.306C18.99 100.924,18.432 99.023,17.925 96.742C17.875 96.463,17.875 96.286,18.001 96.134C18.939 95.957,19.852 95.881,20.815 95.881C21.727 95.881,22.589 95.957,23.501 96.134C24.591 96.362,25.681 96.539,26.542 97.426C26.593 97.503,26.669 97.579,26.745 97.604C25.301 100.518,23.146 102.723,20.08 104.067L19.421 104.32M15.391 105.055C14.124 105.055,12.882 104.726,12.882 104.726C12.882 104.726,12.781 104.219,12.781 103.484C12.781 103.002,12.806 102.419,12.958 101.836C13.313 100.088,14.555 98.846,15.873 97.68C15.974 97.579,16.101 97.503,16.177 97.503C16.303 97.503,16.354 97.655,16.379 97.908C16.709 100.062,17.266 102.166,17.419 104.32C17.444 104.548,17.419 104.878,17.419 104.878C17.419 104.878,16.455 105.131,15.391 105.055"/></g><g class="vf-stavenote" id="vf-auto12397"><path stroke-width="1.4" fill="none" stroke="#444" d="M93.134 120L112.64 120"/><g class="vf-stem" id="vf-auto12398" pointer-events="bounding-box"><path stroke-width="1.5" fill="none" d="M96.884 97.65L96.884 155"/></g><g class="vf-notehead" id="vf-auto12407" pointer-events="bounding-box"><path stroke="none" d="M109.612 118.428C109.556 123.229,105.428 127.048,100.823 127.048C100.149 127.048,99.447 126.964,98.773 126.795C97.341 126.43,96.696 125.391,96.387 123.959C96.218 123.229,96.134 122.555,96.134 121.909C96.134 117.332,99.7 114.384,104.109 113.008C104.249 112.952,104.474 112.924,104.67 112.924C106.636 112.924,109.64 115.226,109.64 117.81C109.64 118.006,109.64 118.231,109.612 118.428M102.115 122.864C103.828 122.274,105.709 121.348,107.338 119.832C107.366 119.803,107.422 119.635,107.422 119.523C107.422 119.382,107.366 119.27,107.338 119.242C106.608 118.512,106.046 117.529,104.867 117.36C104.698 117.332,104.558 117.332,104.333 117.332C102.592 117.332,101.216 118.456,99.784 119.242C98.886 119.747,97.875 120.814,98.071 121.741C98.268 122.752,99.728 122.555,100.655 122.752C101.02 122.836,101.357 122.836,102.115 122.864"/><path stroke="none" d="M45.405 128.673C45.734 128.673,45.953 128.482,46.199 128.235C47.184 127.332,47.895 126.183,48.606 125.089C49.318 123.967,50.029 122.791,50.686 121.642C50.658 122.326,50.604 122.955,50.604 123.584C50.604 124.405,50.658 125.198,50.768 126.019C50.795 126.375,50.768 126.566,51.315 126.731C51.999 126.895,52.191 126.512,52.464 126.238C54.325 124.46,55.611 122.326,56.951 120.192C57.909 118.687,58.374 117.045,58.374 115.267C58.374 113.735,58.046 112.23,56.568 111.6C56.158 111.464,55.775 111.382,55.419 111.382C54.68 111.382,53.969 111.655,53.285 112.148C53.094 112.284,52.984 112.503,52.738 112.503L52.71 112.503L52.71 104.514C52.71 103.994,52.765 103.502,52.574 103.009C52.464 102.818,52.574 102.435,52.273 102.435L52.218 102.435C51.944 102.462,51.507 102.599,51.452 102.982C51.315 103.42,51.233 103.858,51.151 104.268C51.014 105.691,50.959 107.113,50.959 108.564C50.959 110.15,51.014 111.737,51.014 113.352L51.014 114.884C50.248 113.844,49.509 113.488,48.716 113.488C48.059 113.488,47.293 113.817,46.554 114.172C46.554 113.981,46.527 113.844,46.527 113.735C46.554 112.941,46.582 112.148,46.582 111.382C46.582 109.439,46.472 107.469,46.445 105.554C46.445 105.034,46.363 104.514,46.171 104.076C46.035 103.858,46.089 103.502,45.761 103.502L45.679 103.502C45.323 103.584,44.94 103.639,44.858 104.131C44.776 104.514,44.749 104.897,44.749 105.308C44.749 105.499,44.749 105.745,44.776 105.937C44.886 107.086,44.94 108.18,44.94 109.33C44.94 112.284,44.667 115.239,44.612 118.194C44.585 120.328,44.229 122.49,44.229 124.596C44.229 125.636,44.311 126.621,44.557 127.633C44.667 128.044,44.612 128.427,45.05 128.591C45.186 128.673,45.296 128.673,45.405 128.673M52.464 121.97C52.492 121.231,52.492 120.52,52.492 119.808L52.492 117.647C52.546 116.689,53.011 116.033,53.832 115.677C54.106 115.54,54.434 115.458,54.708 115.458C55.228 115.458,55.693 115.704,56.13 116.088C56.295 116.224,56.404 116.388,56.404 116.525C56.404 116.662,56.377 116.772,56.295 116.881C55.091 118.659,53.914 120.383,52.464 121.97M46.281 124.022C46.281 122.353,46.281 120.793,46.226 119.179C46.226 118.304,46.746 117.921,47.457 117.756C47.622 117.702,47.731 117.702,47.84 117.702C48.497 117.702,48.99 118.112,49.427 118.577C49.482 118.659,49.509 118.769,49.509 118.906C49.509 118.988,49.509 119.042,49.482 119.097C48.524 120.821,47.649 122.599,46.281 124.022"/></g><g class="vf-notehead" id="vf-auto12406" pointer-events="bounding-box"><path stroke="none" d="M109.612 108.428C109.556 113.229,105.428 117.048,100.823 117.048C100.149 117.048,99.447 116.964,98.773 116.795C97.341 116.43,96.696 115.391,96.387 113.959C96.218 113.229,96.134 112.555,96.134 111.909C96.134 107.332,99.7 104.384,104.109 103.008C104.249 102.952,104.474 102.924,104.67 102.924C106.636 102.924,109.64 105.226,109.64 107.81C109.64 108.006,109.64 108.231,109.612 108.428M102.115 112.864C103.828 112.274,105.709 111.348,107.338 109.832C107.366 109.803,107.422 109.635,107.422 109.523C107.422 109.382,107.366 109.27,107.338 109.242C106.608 108.512,106.046 107.529,104.867 107.36C104.698 107.332,104.558 107.332,104.333 107.332C102.592 107.332,101.216 108.456,99.784 109.242C98.886 109.747,97.875 110.814,98.071 111.741C98.268 112.752,99.728 112.555,100.655 112.752C101.02 112.836,101.357 112.836,102.115 112.864"/><path stroke="none" d="M76.183 127.976C76.62 127.976,76.73 127.401,76.894 127.073C76.921 126.826,77.003 126.635,77.003 126.389C77.085 123.68,77.113 120.944,77.195 118.208C77.195 116.922,77.113 115.664,77.113 114.405C77.195 111.778,77.332 109.124,77.414 106.498C77.414 106.498,77.469 105.896,77.523 105.404L77.523 105.267L77.551 104.802L77.551 104.555L77.605 103.844C77.605 103.735,77.687 103.269,77.523 102.914C77.332 102.503,77.469 101.655,76.648 101.847C74.787 102.367,72.872 102.558,70.929 102.722C71.066 100.479,71.176 98.18,71.176 95.937C71.176 95.198,71.176 94.487,71.148 93.721C71.148 93.064,71.012 92.435,70.738 91.806C69.452 92.189,69.671 93.365,69.671 94.159C69.726 98.153,69.397 102.093,69.288 106.06C69.233 107.428,69.206 108.824,69.206 110.192C69.206 111.368,69.233 112.517,69.288 113.666C69.288 114.46,69.397 115.253,69.397 115.992C69.397 116.648,69.671 116.867,70.163 116.867C70.273 116.867,70.382 116.867,70.546 116.813L75.307 116.101L75.499 116.074L75.499 119.822C75.499 121.218,75.307 122.695,75.307 124.118C75.307 125.048,75.389 126.006,75.663 126.936C75.772 127.346,75.663 127.976,76.183 127.976M70.793 111.724C70.738 110.383,70.656 109.097,70.711 107.784L70.738 107.291C70.984 107.291,71.258 107.319,71.531 107.291C72.872 107.155,74.213 107.072,75.553 107.045L75.772 107.018L75.663 108.194C75.635 109.207,75.553 110.274,75.553 111.313C73.966 111.724,72.352 111.997,70.793 112.216"/></g><g class="vf-notehead" id="vf-auto12405" pointer-events="bounding-box"><path stroke="none" d="M109.612 93.428C109.556 98.229,105.428 102.048,100.823 102.048C100.149 102.048,99.447 101.964,98.773 101.795C97.341 101.43,96.696 100.391,96.387 98.959C96.218 98.229,96.134 97.555,96.134 96.909C96.134 92.332,99.7 89.384,104.109 88.008C104.249 87.952,104.474 87.924,104.67 87.924C106.636 87.924,109.64 90.226,109.64 92.81C109.64 93.006,109.64 93.231,109.612 93.428M102.115 97.864C103.828 97.274,105.709 96.348,107.338 94.832C107.366 94.803,107.422 94.635,107.422 94.523C107.422 94.382,107.366 94.27,107.338 94.242C106.608 93.512,106.046 92.529,104.867 92.36C104.698 92.332,104.558 92.332,104.333 92.332C102.592 92.332,101.216 93.456,99.784 94.242C98.886 94.747,97.875 95.814,98.071 96.741C98.268 97.752,99.728 97.555,100.655 97.752C101.02 97.836,101.357 97.836,102.115 97.864"/></g></g><g class="vf-stavenote" id="vf-auto12412"><g class="vf-stem" id="vf-auto12413" pointer-events="bounding-box"><path stroke-width="1.5" fill="none" d="M289.342 107L289.342 147"/></g><g class="vf-notehead" id="vf-auto12424" pointer-events="bounding-box"><path stroke="none" d="M291.737 121.543C292.018 121.599,292.271 121.627,292.552 121.627C296.427 121.627,302.211 116.348,302.099 112.08C301.986 111.041,302.015 109.609,299.909 108.766C299.319 108.485,298.673 108.373,297.971 108.373C293.647 108.373,288.957 113.343,288.62 116.657C288.62 116.909,288.592 117.134,288.592 117.387C288.592 119.409,289.491 121.037,291.737 121.543"/></g><g class="vf-notehead" id="vf-auto12423" pointer-events="bounding-box"><path stroke="none" d="M278.979 116.543C279.26 116.599,279.513 116.627,279.794 116.627C283.669 116.627,289.453 111.348,289.341 107.08C289.228 106.041,289.256 104.609,287.15 103.766C286.561 103.485,285.915 103.373,285.213 103.373C280.889 103.373,276.199 108.343,275.862 111.657C275.862 111.909,275.834 112.134,275.834 112.387C275.834 114.409,276.733 116.037,278.979 116.543"/></g><g class="vf-notehead" id="vf-auto12422" pointer-events="bounding-box"><path stroke="none" d="M291.737 111.543C292.018 111.599,292.271 111.627,292.552 111.627C296.427 111.627,302.211 106.348,302.099 102.08C301.986 101.041,302.015 99.609,299.909 98.766C299.319 98.485,298.673 98.373,297.971 98.373C293.647 98.373,288.957 103.343,288.62 106.657C288.62 106.909,288.592 107.134,288.592 107.387C288.592 109.409,289.491 111.037,291.737 111.543"/></g><path stroke="none" d="M296.034 119.118C295.865 118.978,295.753 118.894,295.64 118.894C295.5 118.894,295.388 119.034,295.332 119.371C295.303 119.905,295.107 120.41,295.051 120.944C295.023 121.309,294.995 121.674,294.995 122.011C294.995 122.656,295.135 123.246,295.781 123.78C296.511 124.369,296.932 125.324,297.325 126.194C297.438 126.447,297.494 126.728,297.494 127.009C297.494 127.542,297.297 128.104,297.241 128.666C296.96 131.754,295.5 134.338,293.562 136.64C292.804 137.567,292.074 138.578,291.288 139.504C289.407 142.004,288.592 144.84,288.592 147.956L288.592 150.231C288.592 150.989,288.761 151.635,289.575 152L289.772 152C290.052 151.326,290.333 150.624,290.333 149.894C290.333 149.445,290.249 149.08,290.249 148.715C290.277 146.861,291.148 145.289,292.271 143.829C293.254 142.621,294.18 141.358,295.135 140.15C297.325 137.398,298.42 134.253,298.898 130.8C299.066 129.761,299.15 128.722,299.15 127.655C299.15 126.082,298.954 124.51,298.448 122.937C298.027 121.477,297.044 120.27,296.034 119.118"/></g><g class="vf-stavenote" id="vf-auto12426"><g class="vf-stem" id="vf-auto12427" pointer-events="bounding-box"><path stroke-width="1.5" fill="none" d="M370.501 97L370.501 147"/></g><g class="vf-notehead" id="vf-auto12438" pointer-events="bounding-box"><path stroke="none" d="M372.896 121.543C373.177 121.599,373.43 121.627,373.711 121.627C377.586 121.627,383.37 116.348,383.258 112.08C383.146 111.041,383.174 109.609,381.068 108.766C380.478 108.485,379.832 108.373,379.13 108.373C374.806 108.373,370.116 113.343,369.779 116.657C369.779 116.909,369.751 117.134,369.751 117.387C369.751 119.409,370.65 121.037,372.896 121.543"/></g><g class="vf-notehead" id="vf-auto12437" pointer-events="bounding-box"><path stroke="none" d="M372.896 111.543C373.177 111.599,373.43 111.627,373.711 111.627C377.586 111.627,383.37 106.348,383.258 102.08C383.146 101.041,383.174 99.609,381.068 98.766C380.478 98.485,379.832 98.373,379.13 98.373C374.806 98.373,370.116 103.343,369.779 106.657C369.779 106.909,369.751 107.134,369.751 107.387C369.751 109.409,370.65 111.037,372.896 111.543"/></g><g class="vf-notehead" id="vf-auto12436" pointer-events="bounding-box"><path stroke="none" d="M372.896 101.543C373.177 101.599,373.43 101.627,373.711 101.627C377.586 101.627,383.37 96.348,383.258 92.08C383.146 91.041,383.174 89.609,381.068 88.766C380.478 88.485,379.832 88.373,379.13 88.373C374.806 88.373,370.116 93.343,369.779 96.657C369.779 96.909,369.751 97.134,369.751 97.387C369.751 99.409,370.65 101.037,372.896 101.543"/></g><path stroke="none" d="M377.193 119.118C377.024 118.978,376.912 118.894,376.799 118.894C376.659 118.894,376.547 119.034,376.491 119.371C376.462 119.905,376.266 120.41,376.21 120.944C376.182 121.309,376.154 121.674,376.154 122.011C376.154 122.656,376.294 123.246,376.94 123.78C377.67 124.369,378.091 125.324,378.484 126.194C378.597 126.447,378.653 126.728,378.653 127.009C378.653 127.542,378.456 128.104,378.4 128.666C378.119 131.754,376.659 134.338,374.722 136.64C373.963 137.567,373.233 138.578,372.447 139.504C370.566 142.004,369.751 144.84,369.751 147.956L369.751 150.231C369.751 150.989,369.92 151.635,370.734 152L370.931 152C371.212 151.326,371.492 150.624,371.492 149.894C371.492 149.445,371.408 149.08,371.408 148.715C371.436 146.861,372.307 145.289,373.43 143.829C374.413 142.621,375.339 141.358,376.294 140.15C378.484 137.398,379.579 134.253,380.057 130.8C380.225 129.761,380.309 128.722,380.309 127.655C380.309 126.082,380.113 124.51,379.607 122.937C379.186 121.477,378.203 120.27,377.193 119.118"/></g><g class="vf-stavenote" id="vf-auto12440"><path stroke-width="1.4" fill="none" stroke="#444" d="M447.91 120L467.418 120"/><g class="vf-stem" id="vf-auto12441" pointer-events="bounding-box"><path stroke-width="1.5" fill="none" d="M451.66 97L451.66 155"/></g><g class="vf-notehead" id="vf-auto12450" pointer-events="bounding-box"><path stroke="none" d="M454.055 126.543C454.336 126.599,454.589 126.627,454.87 126.627C458.745 126.627,464.529 121.348,464.417 117.08C464.305 116.041,464.333 114.609,462.227 113.766C461.637 113.485,460.991 113.373,460.289 113.373C455.965 113.373,451.275 118.343,450.938 121.657C450.938 121.909,450.91 122.134,450.91 122.387C450.91 124.409,451.809 126.037,454.055 126.543"/><path stroke="none" d="M427.215 137.976C427.653 137.976,427.763 137.401,427.927 137.073C427.954 136.826,428.036 136.635,428.036 136.389C428.118 133.68,428.146 130.944,428.228 128.208C428.228 126.922,428.146 125.664,428.146 124.405C428.228 121.778,428.364 119.124,428.447 116.498C428.447 116.498,428.501 115.896,428.556 115.404L428.556 115.267L428.583 114.802L428.583 114.555L428.638 113.844C428.638 113.735,428.72 113.269,428.556 112.914C428.364 112.503,428.501 111.655,427.68 111.847C425.82 112.367,423.905 112.558,421.962 112.722C422.099 110.479,422.208 108.18,422.208 105.937C422.208 105.198,422.208 104.487,422.181 103.721C422.181 103.064,422.044 102.435,421.771 101.806C420.485 102.189,420.704 103.365,420.704 104.159C420.758 108.153,420.43 112.093,420.321 116.06C420.266 117.428,420.239 118.824,420.239 120.192C420.239 121.368,420.266 122.517,420.321 123.666C420.321 124.46,420.43 125.253,420.43 125.992C420.43 126.648,420.704 126.867,421.196 126.867C421.306 126.867,421.415 126.867,421.579 126.813L426.34 126.101L426.531 126.074L426.531 129.822C426.531 131.218,426.34 132.695,426.34 134.118C426.34 135.048,426.422 136.006,426.695 136.936C426.805 137.346,426.695 137.976,427.215 137.976M421.825 121.724C421.771 120.383,421.689 119.097,421.743 117.784L421.771 117.291C422.017 117.291,422.291 117.319,422.564 117.291C423.905 117.155,425.245 117.072,426.586 117.045L426.805 117.018L426.695 118.194C426.668 119.207,426.586 120.274,426.586 121.313C424.999 121.724,423.385 121.997,421.825 122.216"/></g><g class="vf-notehead" id="vf-auto12449" pointer-events="bounding-box"><path stroke="none" d="M454.055 111.543C454.336 111.599,454.589 111.627,454.87 111.627C458.745 111.627,464.529 106.348,464.417 102.08C464.305 101.041,464.333 99.609,462.227 98.766C461.637 98.485,460.991 98.373,460.289 98.373C455.965 98.373,451.275 103.343,450.938 106.657C450.938 106.909,450.91 107.134,450.91 107.387C450.91 109.409,451.809 111.037,454.055 111.543"/><path stroke="none" d="M438.061 120.13C438.362 120.103,438.444 119.665,438.526 119.391C438.69 118.872,438.717 118.352,438.717 117.887C438.717 117.449,438.69 117.066,438.69 116.628C438.69 116.354,438.69 115.999,438.717 115.725C438.8 114.932,438.882 114.138,438.909 113.345L440.66 112.989C440.742 114.658,441.043 116.272,441.59 117.832C441.645 118.051,441.782 118.27,442.028 118.27C442.274 118.324,442.356 118.051,442.466 117.832C442.739 117.421,442.767 116.902,442.767 116.436C442.821 116.081,442.821 115.752,442.821 115.452C442.821 114.494,442.739 113.509,442.712 112.551L444.983 112.086C447.144 111.648,447.418 111.348,447.582 109.268C447.582 108.748,447.637 108.393,447.582 107.982C447.555 107.49,447.336 107.134,446.925 107.134L446.843 107.134C446.679 107.134,446.57 107.134,446.406 107.161C445.503 107.408,444.518 107.599,443.56 107.763L442.904 107.873C442.931 107.326,442.931 106.724,442.986 106.149C443.013 104.891,443.04 103.632,443.04 102.373C444.162 102.072,445.229 101.772,446.296 101.416C446.871 101.224,447.391 100.896,447.555 100.267C447.692 99.555,447.91 98.899,447.91 98.187C447.91 97.777,447.856 97.367,447.692 96.956C447.555 96.573,447.418 96.382,447.199 96.382L447.117 96.382C446.98 96.382,446.843 96.382,446.679 96.464C445.448 96.956,444.244 97.367,442.986 97.722L442.849 95.588C442.767 93.892,442.712 92.168,442.356 90.472C442.274 90.253,442.302 89.897,442.055 89.897L442.028 89.897L441.919 89.897C441.59 89.979,441.207 90.116,441.152 90.554L441.152 91.293C441.152 93.618,441.235 95.889,441.289 98.187L439.183 98.652C439.183 97.476,439.155 96.3,439.073 95.123C439.046 94.521,439.046 93.974,438.717 93.372C437.842 93.81,437.979 94.548,437.979 95.178C437.897 96.464,437.842 97.668,437.815 98.899C436.72 99.118,435.598 99.282,434.504 99.473C432.89 99.747,432.644 99.993,432.644 101.772C432.534 102.209,432.862 102.702,432.808 103.194C432.726 103.933,432.917 104.179,433.437 104.207C433.546 104.207,433.683 104.179,433.847 104.124C435.133 103.933,436.392 103.741,437.65 103.495L437.541 107.052C437.486 107.709,437.432 108.338,437.349 108.967C435.872 109.268,434.422 109.542,432.972 109.897C432.151 110.089,431.659 110.39,431.659 111.348C431.659 112.278,432.014 113.153,432.069 114.056C432.069 114.494,432.178 114.685,432.507 114.74C432.561 114.74,432.698 114.685,432.862 114.658C434.258 114.33,435.68 114.056,437.103 113.755C437.076 114.248,437.076 114.768,437.076 115.315C437.076 116.71,437.213 118.051,437.705 119.391C437.787 119.665,437.705 120.13,438.061 120.13M439.1 108.612C439.155 107.763,439.155 106.888,439.183 106.012C439.237 105.082,439.237 104.179,439.237 103.222C439.894 103.112,440.523 103.003,441.152 102.839C440.961 104.644,440.879 106.45,440.769 108.283"/></g><g class="vf-notehead" id="vf-auto12448" pointer-events="bounding-box"><path stroke="none" d="M454.055 101.543C454.336 101.599,454.589 101.627,454.87 101.627C458.745 101.627,464.529 96.348,464.417 92.08C464.305 91.041,464.333 89.609,462.227 88.766C461.637 88.485,460.991 88.373,460.289 88.373C455.965 88.373,451.275 93.343,450.938 96.657C450.938 96.909,450.91 97.134,450.91 97.387C450.91 99.409,451.809 101.037,454.055 101.543"/></g></g><g class="vf-stavenote" id="vf-auto12456"><path stroke-width="1.4" fill="none" stroke="#444" d="M77.626 60L97.134 60"/><g class="vf-stem" id="vf-auto12457" pointer-events="bounding-box"><path stroke-width="1.5" fill="none" d="M93.384 88L93.384 25"/></g><g class="vf-notehead" id="vf-auto12464" pointer-events="bounding-box"><path stroke="none" d="M83.771 96.543C84.052 96.599,84.304 96.627,84.585 96.627C88.46 96.627,94.245 91.348,94.132 87.08C94.02 86.041,94.048 84.609,91.942 83.766C91.352 83.485,90.707 83.373,90.005 83.373C85.68 83.373,80.991 88.343,80.654 91.657C80.654 91.909,80.626 92.134,80.626 92.387C80.626 94.409,81.524 96.037,83.771 96.543"/><path stroke="none" d="M50.987 98.208C51.096 98.208,51.26 98.126,51.452 97.907C51.972 97.497,52.546 97.059,53.121 96.648C56.568 94.186,58.429 90.821,58.429 86.525C58.429 85.978,58.429 85.458,58.347 84.911C58.155 82.996,57.061 81.874,55.392 81.874C55.036 81.874,54.653 81.956,54.215 82.093C53.668 82.23,53.121 82.503,52.546 82.75L52.519 82.777L52.519 81.765C52.519 80.26,52.601 78.782,52.683 77.278C52.683 76.402,52.765 75.581,52.765 74.706C52.765 73.885,52.683 73.009,52.492 72.189C52.41 71.915,52.41 71.395,51.999 71.395L51.972 71.395C51.534 71.45,51.206 71.806,51.206 72.353C51.178 73.447,51.069 74.596,51.096 75.691L51.096 76.922C51.096 79.248,50.987 81.573,50.905 83.899C50.795 87.237,50.221 90.52,50.221 93.858C50.221 95.171,50.303 96.539,50.658 97.852C50.741 98.071,50.823 98.208,50.987 98.208M52.054 92.873C52.136 91.86,52.163 90.793,52.273 89.672C52.355 88.824,52.41 87.948,52.41 87.072L52.546 87.018C53.312 86.689,54.051 86.306,54.872 86.306C55.146 86.306,55.474 86.388,55.775 86.498C56.431 86.717,56.732 87.045,56.705 87.483C56.705 87.702,56.65 87.948,56.486 88.276C55.474 90.274,53.805 91.614,52.054 92.873"/></g><g class="vf-notehead" id="vf-auto12465" pointer-events="bounding-box"><path stroke="none" d="M83.771 81.543C84.052 81.599,84.304 81.627,84.585 81.627C88.46 81.627,94.245 76.348,94.132 72.08C94.02 71.041,94.048 69.609,91.942 68.766C91.352 68.485,90.707 68.373,90.005 68.373C85.68 68.373,80.991 73.343,80.654 76.657C80.654 76.909,80.626 77.134,80.626 77.387C80.626 79.409,81.524 81.037,83.771 81.543"/><path stroke="none" d="M67.776 90.13C68.077 90.103,68.159 89.665,68.241 89.391C68.406 88.872,68.433 88.352,68.433 87.887C68.433 87.449,68.406 87.066,68.406 86.628C68.406 86.354,68.406 85.999,68.433 85.725C68.515 84.932,68.597 84.138,68.624 83.345L70.375 82.989C70.458 84.658,70.758 86.272,71.306 87.832C71.36 88.051,71.497 88.27,71.743 88.27C71.99 88.324,72.072 88.051,72.181 87.832C72.455 87.421,72.482 86.902,72.482 86.436C72.537 86.081,72.537 85.752,72.537 85.452C72.537 84.494,72.455 83.509,72.427 82.551L74.698 82.086C76.86 81.648,77.133 81.348,77.298 79.268C77.298 78.748,77.352 78.393,77.298 77.982C77.27 77.49,77.051 77.134,76.641 77.134L76.559 77.134C76.395 77.134,76.285 77.134,76.121 77.161C75.218 77.408,74.233 77.599,73.276 77.763L72.619 77.873C72.646 77.326,72.646 76.724,72.701 76.149C72.728 74.891,72.756 73.632,72.756 72.373C73.878 72.072,74.945 71.772,76.012 71.416C76.586 71.224,77.106 70.896,77.27 70.267C77.407 69.555,77.626 68.899,77.626 68.187C77.626 67.777,77.571 67.367,77.407 66.956C77.27 66.573,77.133 66.382,76.914 66.382L76.832 66.382C76.696 66.382,76.559 66.382,76.395 66.464C75.163 66.956,73.96 67.367,72.701 67.722L72.564 65.588C72.482 63.892,72.427 62.168,72.072 60.472C71.99 60.253,72.017 59.897,71.771 59.897L71.743 59.897L71.634 59.897C71.306 59.979,70.923 60.116,70.868 60.554L70.868 61.293C70.868 63.618,70.95 65.889,71.005 68.187L68.898 68.652C68.898 67.476,68.871 66.3,68.789 65.123C68.761 64.521,68.761 63.974,68.433 63.372C67.557 63.81,67.694 64.548,67.694 65.178C67.612 66.464,67.557 67.668,67.53 68.899C66.436 69.118,65.314 69.282,64.219 69.473C62.605 69.747,62.359 69.993,62.359 71.772C62.25 72.209,62.578 72.702,62.523 73.194C62.441 73.933,62.633 74.179,63.152 74.207C63.262 74.207,63.399 74.179,63.563 74.124C64.849 73.933,66.107 73.741,67.366 73.495L67.256 77.052C67.202 77.709,67.147 78.338,67.065 78.967C65.587 79.268,64.137 79.542,62.687 79.897C61.866 80.089,61.374 80.39,61.374 81.348C61.374 82.278,61.73 83.153,61.784 84.056C61.784 84.494,61.894 84.685,62.222 84.74C62.277 84.74,62.414 84.685,62.578 84.658C63.973 84.33,65.396 84.056,66.819 83.755C66.791 84.248,66.791 84.768,66.791 85.315C66.791 86.71,66.928 88.051,67.421 89.391C67.503 89.665,67.421 90.13,67.776 90.13M68.816 78.612C68.871 77.763,68.871 76.888,68.898 76.012C68.953 75.082,68.953 74.179,68.953 73.222C69.609 73.112,70.239 73.003,70.868 72.839C70.676 74.644,70.594 76.45,70.485 78.283"/></g><g class="vf-notehead" id="vf-auto12466" pointer-events="bounding-box"><path stroke="none" d="M83.771 66.543C84.052 66.599,84.304 66.627,84.585 66.627C88.46 66.627,94.245 61.348,94.132 57.08C94.02 56.041,94.048 54.609,91.942 53.766C91.352 53.485,90.707 53.373,90.005 53.373C85.68 53.373,80.991 58.343,80.654 61.657C80.654 61.909,80.626 62.134,80.626 62.387C80.626 64.409,81.524 66.037,83.771 66.543"/></g></g><g class="vf-stavenote" id="vf-auto12471"><g class="vf-stem" id="vf-auto12472" pointer-events="bounding-box"><path stroke-width="1.5" fill="none" d="M215.926 77.45L215.926 35"/></g><g class="vf-notehead" id="vf-auto12479" pointer-events="bounding-box"><path stroke="none" d="M216.648 78.428C216.592 83.229,212.464 87.048,207.859 87.048C207.185 87.048,206.483 86.964,205.809 86.795C204.377 86.43,203.731 85.391,203.422 83.959C203.254 83.229,203.169 82.555,203.169 81.909C203.169 77.332,206.736 74.384,211.144 73.008C211.285 72.952,211.509 72.924,211.706 72.924C213.671 72.924,216.676 75.226,216.676 77.81C216.676 78.006,216.676 78.231,216.648 78.428M209.15 82.864C210.863 82.274,212.745 81.348,214.373 79.832C214.401 79.803,214.458 79.635,214.458 79.523C214.458 79.382,214.401 79.27,214.373 79.242C213.643 78.512,213.082 77.529,211.902 77.36C211.734 77.332,211.593 77.332,211.369 77.332C209.628 77.332,208.252 78.456,206.82 79.242C205.921 79.747,204.91 80.814,205.107 81.741C205.303 82.752,206.764 82.555,207.69 82.752C208.055 82.836,208.392 82.836,209.15 82.864"/></g><g class="vf-notehead" id="vf-auto12480" pointer-events="bounding-box"><path stroke="none" d="M229.404 73.428C229.348 78.229,225.22 82.048,220.615 82.048C219.941 82.048,219.239 81.964,218.565 81.795C217.133 81.43,216.487 80.391,216.179 78.959C216.01 78.229,215.926 77.555,215.926 76.909C215.926 72.332,219.492 69.384,223.901 68.008C224.041 67.952,224.266 67.924,224.462 67.924C226.428 67.924,229.432 70.226,229.432 72.81C229.432 73.006,229.432 73.231,229.404 73.428M221.907 77.864C223.62 77.274,225.501 76.348,227.13 74.832C227.158 74.803,227.214 74.635,227.214 74.523C227.214 74.382,227.158 74.27,227.13 74.242C226.4 73.512,225.838 72.529,224.659 72.36C224.49 72.332,224.35 72.332,224.125 72.332C222.384 72.332,221.008 73.456,219.576 74.242C218.678 74.747,217.667 75.814,217.863 76.741C218.06 77.752,219.52 77.555,220.447 77.752C220.812 77.836,221.149 77.836,221.907 77.864"/></g><g class="vf-notehead" id="vf-auto12481" pointer-events="bounding-box"><path stroke="none" d="M216.648 68.428C216.592 73.229,212.464 77.048,207.859 77.048C207.185 77.048,206.483 76.964,205.809 76.795C204.377 76.43,203.731 75.391,203.422 73.959C203.254 73.229,203.169 72.555,203.169 71.909C203.169 67.332,206.736 64.384,211.144 63.008C211.285 62.952,211.509 62.924,211.706 62.924C213.671 62.924,216.676 65.226,216.676 67.81C216.676 68.006,216.676 68.231,216.648 68.428M209.15 72.864C210.863 72.274,212.745 71.348,214.373 69.832C214.401 69.803,214.458 69.635,214.458 69.523C214.458 69.382,214.401 69.27,214.373 69.242C213.643 68.512,213.082 67.529,211.902 67.36C211.734 67.332,211.593 67.332,211.369 67.332C209.628 67.332,208.252 68.456,206.82 69.242C205.921 69.747,204.91 70.814,205.107 71.741C205.303 72.752,206.764 72.555,207.69 72.752C208.055 72.836,208.392 72.836,209.15 72.864"/></g></g><g class="vf-stavenote" id="vf-auto12482"><path stroke-width="1.4" fill="none" stroke="#444" d="M447.91 60L467.418 60"/><g class="vf-stem" id="vf-auto12483" pointer-events="bounding-box"><path stroke-width="1.5" fill="none" d="M463.668 83L463.668 25"/></g><g class="vf-notehead" id="vf-auto12490" pointer-events="bounding-box"><path stroke="none" d="M454.055 91.543C454.336 91.599,454.589 91.627,454.87 91.627C458.745 91.627,464.529 86.348,464.417 82.08C464.305 81.041,464.333 79.609,462.227 78.766C461.637 78.485,460.991 78.373,460.289 78.373C455.965 78.373,451.275 83.343,450.938 86.657C450.938 86.909,450.91 87.134,450.91 87.387C450.91 89.409,451.809 91.037,454.055 91.543"/><path stroke="none" d="M419.657 91.265C419.849 91.265,420.04 91.156,420.286 90.91C421.135 90.089,421.928 89.213,422.831 88.42C423.159 88.146,423.433 87.873,423.706 87.599C424.773 88.42,425.84 89.296,426.853 90.171C427.099 90.363,427.291 90.472,427.482 90.472C427.756 90.472,428.002 90.253,428.193 89.897C428.576 89.213,428.467 88.42,428.631 87.791C428.576 86.888,428.303 86.259,427.674 85.739L426.251 84.617C426.935 83.851,427.592 83.14,428.358 82.51C428.576 82.373,428.659 82.072,428.659 81.525C428.549 80.951,428.221 80.185,427.81 79.528C427.482 78.981,427.208 78.735,426.935 78.735C426.661 78.735,426.333 78.899,425.95 79.254C425.567 79.555,425.156 79.884,424.856 80.239C424.254 80.869,423.706 81.498,423.159 82.155C422.092 81.388,420.97 80.595,419.876 79.884C419.712 79.747,419.602 79.72,419.493 79.72C419.411 79.72,419.329 79.72,419.219 79.802C419.055 79.911,418.809 79.884,418.672 80.103C418.535 80.404,418.453 80.787,418.453 81.252C418.453 82.483,418.891 84.124,419.575 84.562C419.794 84.726,420.04 84.891,420.286 85.082C419.438 85.876,418.59 86.696,417.742 87.572C417.523 87.791,417.359 88.119,417.359 88.393C417.359 88.666,417.441 88.94,417.687 89.213C418.07 89.815,418.672 90.28,419.055 90.882C419.247 91.156,419.438 91.265,419.657 91.265"/></g><g class="vf-notehead" id="vf-auto12491" pointer-events="bounding-box"><path stroke="none" d="M454.055 76.543C454.336 76.599,454.589 76.627,454.87 76.627C458.745 76.627,464.529 71.348,464.417 67.08C464.305 66.041,464.333 64.609,462.227 63.766C461.637 63.485,460.991 63.373,460.289 63.373C455.965 63.373,451.275 68.343,450.938 71.657C450.938 71.909,450.91 72.134,450.91 72.387C450.91 74.409,451.809 76.037,454.055 76.543"/><path stroke="none" d="M440.523 78.208C440.633 78.208,440.797 78.126,440.988 77.907C441.508 77.497,442.083 77.059,442.657 76.648C446.105 74.186,447.965 70.821,447.965 66.525C447.965 65.978,447.965 65.458,447.883 64.911C447.692 62.996,446.597 61.874,444.928 61.874C444.572 61.874,444.189 61.956,443.752 62.093C443.204 62.23,442.657 62.503,442.083 62.75L442.055 62.777L442.055 61.765C442.055 60.26,442.137 58.782,442.22 57.278C442.22 56.402,442.302 55.581,442.302 54.706C442.302 53.885,442.22 53.009,442.028 52.189C441.946 51.915,441.946 51.395,441.536 51.395L441.508 51.395C441.07 51.45,440.742 51.806,440.742 52.353C440.715 53.447,440.605 54.596,440.633 55.691L440.633 56.922C440.633 59.248,440.523 61.573,440.441 63.899C440.332 67.237,439.757 70.52,439.757 73.858C439.757 75.171,439.839 76.539,440.195 77.852C440.277 78.071,440.359 78.208,440.523 78.208M441.59 72.873C441.672 71.86,441.7 70.793,441.809 69.672C441.891 68.824,441.946 67.948,441.946 67.072L442.083 67.018C442.849 66.689,443.588 66.306,444.408 66.306C444.682 66.306,445.01 66.388,445.311 66.498C445.968 66.717,446.269 67.045,446.241 67.483C446.241 67.702,446.187 67.948,446.023 68.276C445.01 70.274,443.341 71.614,441.59 72.873"/></g><g class="vf-notehead" id="vf-auto12492" pointer-events="bounding-box"><path stroke="none" d="M454.055 66.543C454.336 66.599,454.589 66.627,454.87 66.627C458.745 66.627,464.529 61.348,464.417 57.08C464.305 56.041,464.333 54.609,462.227 53.766C461.637 53.485,460.991 53.373,460.289 53.373C455.965 53.373,451.275 58.343,450.938 61.657C450.938 61.909,450.91 62.134,450.91 62.387C450.91 64.409,451.809 66.037,454.055 66.543"/></g></g></svg>