<svg xmlns="http://www.w3.org/2000/svg" stroke-width="0.3" stroke-dasharray="none" fill="black" stroke="black" font-family="Arial, sans-serif" font-size="10pt" font-weight="normal" font-style="normal" width="700" height="150" viewBox="0 0 700 150" style="width: 700px; height: 150px; border: none;"><g class="vf-stave" id="vf-auto21385" stroke-width="1" fill="#999999" stroke="#999999"><path fill="none" d="M0 40L690 40"/><path fill="none" d="M0 50L690 50"/><path fill="none" d="M0 60L690 60"/><path fill="none" d="M0 70L690 70"/><path fill="none" d="M0 80L690 80"/></g><g class="vf-stavebarline" id="vf-auto21386"><rect y="39.5" width="1" height="41" stroke="none"/></g><g class="vf-stavebarline" id="vf-auto21387"><rect x="690" y="39.5" width="1" height="41" stroke="none"/></g><g class="vf-keysignature" id="vf-auto21388"><path stroke="none" d="M10.527 55.13C10.828 55.103,10.91 54.665,10.992 54.391C11.156 53.872,11.183 53.352,11.183 52.887C11.183 52.449,11.156 52.066,11.156 51.628C11.156 51.354,11.156 50.999,11.183 50.725C11.265 49.932,11.348 49.138,11.375 48.345L13.126 47.989C13.208 49.658,13.509 51.272,14.056 52.832C14.111 53.051,14.248 53.27,14.494 53.27C14.74 53.324,14.822 53.051,14.932 52.832C15.205 52.421,15.233 51.902,15.233 51.436C15.287 51.081,15.287 50.752,15.287 50.452C15.287 49.494,15.205 48.509,15.178 47.551L17.449 47.086C19.61 46.648,19.884 46.348,20.048 44.268C20.048 43.748,20.103 43.393,20.048 42.982C20.021 42.49,19.802 42.134,19.391 42.134L19.309 42.134C19.145 42.134,19.036 42.134,18.872 42.161C17.969 42.408,16.984 42.599,16.026 42.763L15.369 42.873C15.397 42.326,15.397 41.724,15.452 41.149C15.479 39.891,15.506 38.632,15.506 37.373C16.628 37.072,17.695 36.772,18.762 36.416C19.337 36.224,19.856 35.896,20.021 35.267C20.157 34.555,20.376 33.899,20.376 33.187C20.376 32.777,20.322 32.367,20.157 31.956C20.021 31.573,19.884 31.382,19.665 31.382L19.583 31.382C19.446 31.382,19.309 31.382,19.145 31.464C17.914 31.956,16.71 32.367,15.452 32.722L15.315 30.588C15.233 28.892,15.178 27.168,14.822 25.472C14.74 25.253,14.768 24.897,14.521 24.897L14.494 24.897L14.384 24.897C14.056 24.979,13.673 25.116,13.618 25.554L13.618 26.293C13.618 28.618,13.7 30.889,13.755 33.187L11.648 33.652C11.648 32.476,11.621 31.3,11.539 30.123C11.512 29.521,11.512 28.974,11.183 28.372C10.308 28.81,10.445 29.548,10.445 30.178C10.363 31.464,10.308 32.668,10.28 33.899C9.186 34.118,8.064 34.282,6.97 34.473C5.356 34.747,5.109 34.993,5.109 36.772C5 37.209,5.328 37.702,5.274 38.194C5.192 38.933,5.383 39.179,5.903 39.207C6.012 39.207,6.149 39.179,6.313 39.124C7.599 38.933,8.858 38.741,10.116 38.495L10.007 42.052C9.952 42.709,9.897 43.338,9.815 43.967C8.338 44.268,6.888 44.542,5.438 44.897C4.617 45.089,4.124 45.39,4.124 46.348C4.124 47.278,4.48 48.153,4.535 49.056C4.535 49.494,4.644 49.685,4.973 49.74C5.027 49.74,5.164 49.685,5.328 49.658C6.724 49.33,8.146 49.056,9.569 48.755C9.542 49.248,9.542 49.768,9.542 50.315C9.542 51.71,9.679 53.051,10.171 54.391C10.253 54.665,10.171 55.13,10.527 55.13M11.566 43.612C11.621 42.763,11.621 41.888,11.648 41.012C11.703 40.082,11.703 39.179,11.703 38.222C12.36 38.112,12.989 38.003,13.618 37.839C13.427 39.644,13.345 41.45,13.235 43.283"/><path stroke="none" d="M27.779 70.13C28.08 70.103,28.162 69.665,28.244 69.391C28.408 68.872,28.435 68.352,28.435 67.887C28.435 67.449,28.408 67.066,28.408 66.628C28.408 66.354,28.408 65.999,28.435 65.725C28.517 64.932,28.599 64.138,28.627 63.345L30.378 62.989C30.46 64.658,30.761 66.272,31.308 67.832C31.363 68.051,31.5 68.27,31.746 68.27C31.992 68.324,32.074 68.051,32.184 67.832C32.457 67.421,32.484 66.902,32.484 66.436C32.539 66.081,32.539 65.752,32.539 65.452C32.539 64.494,32.457 63.509,32.43 62.551L34.701 62.086C36.862 61.648,37.136 61.348,37.3 59.268C37.3 58.748,37.355 58.393,37.3 57.982C37.272 57.49,37.054 57.134,36.643 57.134L36.561 57.134C36.397 57.134,36.288 57.134,36.123 57.161C35.22 57.408,34.236 57.599,33.278 57.763L32.621 57.873C32.649 57.326,32.649 56.724,32.703 56.149C32.731 54.891,32.758 53.632,32.758 52.373C33.88 52.072,34.947 51.772,36.014 51.416C36.588 51.224,37.108 50.896,37.272 50.267C37.409 49.555,37.628 48.899,37.628 48.187C37.628 47.777,37.573 47.367,37.409 46.956C37.272 46.573,37.136 46.382,36.917 46.382L36.835 46.382C36.698 46.382,36.561 46.382,36.397 46.464C35.166 46.956,33.962 47.367,32.703 47.722L32.567 45.588C32.484 43.892,32.43 42.168,32.074 40.472C31.992 40.253,32.019 39.897,31.773 39.897L31.746 39.897L31.636 39.897C31.308 39.979,30.925 40.116,30.87 40.554L30.87 41.293C30.87 43.618,30.952 45.889,31.007 48.187L28.9 48.652C28.9 47.476,28.873 46.3,28.791 45.123C28.764 44.521,28.764 43.974,28.435 43.372C27.56 43.81,27.696 44.548,27.696 45.178C27.614 46.464,27.56 47.668,27.532 48.899C26.438 49.118,25.316 49.282,24.222 49.473C22.608 49.747,22.361 49.993,22.361 51.772C22.252 52.209,22.58 52.702,22.525 53.194C22.443 53.933,22.635 54.179,23.155 54.207C23.264 54.207,23.401 54.179,23.565 54.124C24.851 53.933,26.11 53.741,27.368 53.495L27.259 57.052C27.204 57.709,27.149 58.338,27.067 58.967C25.59 59.268,24.14 59.542,22.69 59.897C21.869 60.089,21.376 60.39,21.376 61.348C21.376 62.278,21.732 63.153,21.787 64.056C21.787 64.494,21.896 64.685,22.224 64.74C22.279 64.74,22.416 64.685,22.58 64.658C23.976 64.33,25.398 64.056,26.821 63.755C26.794 64.248,26.794 64.768,26.794 65.315C26.794 66.71,26.93 68.051,27.423 69.391C27.505 69.665,27.423 70.13,27.779 70.13M28.818 58.612C28.873 57.763,28.873 56.888,28.9 56.012C28.955 55.082,28.955 54.179,28.955 53.222C29.612 53.112,30.241 53.003,30.87 52.839C30.679 54.644,30.597 56.45,30.487 58.283"/><path stroke="none" d="M45.03 50.13C45.331 50.103,45.413 49.665,45.496 49.391C45.66 48.872,45.687 48.352,45.687 47.887C45.687 47.449,45.66 47.066,45.66 46.628C45.66 46.354,45.66 45.999,45.687 45.725C45.769 44.932,45.851 44.138,45.879 43.345L47.63 42.989C47.712 44.658,48.013 46.272,48.56 47.832C48.615 48.051,48.751 48.27,48.998 48.27C49.244 48.324,49.326 48.051,49.435 47.832C49.709 47.421,49.736 46.902,49.736 46.436C49.791 46.081,49.791 45.752,49.791 45.452C49.791 44.494,49.709 43.509,49.682 42.551L51.952 42.086C54.114 41.648,54.388 41.348,54.552 39.268C54.552 38.748,54.606 38.393,54.552 37.982C54.524 37.49,54.305 37.134,53.895 37.134L53.813 37.134C53.649 37.134,53.539 37.134,53.375 37.161C52.472 37.408,51.487 37.599,50.53 37.763L49.873 37.873C49.9 37.326,49.9 36.724,49.955 36.149C49.983 34.891,50.01 33.632,50.01 32.373C51.132 32.072,52.199 31.772,53.266 31.416C53.84 31.224,54.36 30.896,54.524 30.267C54.661 29.555,54.88 28.899,54.88 28.187C54.88 27.777,54.825 27.367,54.661 26.956C54.524 26.573,54.388 26.382,54.169 26.382L54.087 26.382C53.95 26.382,53.813 26.382,53.649 26.464C52.418 26.956,51.214 27.367,49.955 27.722L49.818 25.588C49.736 23.892,49.682 22.168,49.326 20.472C49.244 20.253,49.271 19.897,49.025 19.897L48.998 19.897L48.888 19.897C48.56 19.979,48.177 20.116,48.122 20.554L48.122 21.293C48.122 23.618,48.204 25.889,48.259 28.187L46.152 28.652C46.152 27.476,46.125 26.3,46.043 25.123C46.015 24.521,46.015 23.974,45.687 23.372C44.812 23.81,44.948 24.548,44.948 25.178C44.866 26.464,44.812 27.668,44.784 28.899C43.69 29.118,42.568 29.282,41.474 29.473C39.859 29.747,39.613 29.993,39.613 31.772C39.504 32.209,39.832 32.702,39.777 33.194C39.695 33.933,39.887 34.179,40.407 34.207C40.516 34.207,40.653 34.179,40.817 34.124C42.103 33.933,43.361 33.741,44.62 33.495L44.511 37.052C44.456 37.709,44.401 38.338,44.319 38.967C42.842 39.268,41.392 39.542,39.941 39.897C39.121 40.089,38.628 40.39,38.628 41.348C38.628 42.278,38.984 43.153,39.039 44.056C39.039 44.494,39.148 44.685,39.476 44.74C39.531 44.74,39.668 44.685,39.832 44.658C41.227 44.33,42.65 44.056,44.073 43.755C44.045 44.248,44.045 44.768,44.045 45.315C44.045 46.71,44.182 48.051,44.675 49.391C44.757 49.665,44.675 50.13,45.03 50.13M46.07 38.612C46.125 37.763,46.125 36.888,46.152 36.012C46.207 35.082,46.207 34.179,46.207 33.222C46.864 33.112,47.493 33.003,48.122 32.839C47.931 34.644,47.848 36.45,47.739 38.283"/><path stroke="none" d="M62.282 65.13C62.583 65.103,62.665 64.665,62.747 64.391C62.912 63.872,62.939 63.352,62.939 62.887C62.939 62.449,62.912 62.066,62.912 61.628C62.912 61.354,62.912 60.999,62.939 60.725C63.021 59.932,63.103 59.138,63.13 58.345L64.881 57.989C64.964 59.658,65.264 61.272,65.812 62.832C65.866 63.051,66.003 63.27,66.249 63.27C66.496 63.324,66.578 63.051,66.687 62.832C66.961 62.421,66.988 61.902,66.988 61.436C67.043 61.081,67.043 60.752,67.043 60.452C67.043 59.494,66.961 58.509,66.933 57.551L69.204 57.086C71.366 56.648,71.639 56.348,71.804 54.268C71.804 53.748,71.858 53.393,71.804 52.982C71.776 52.49,71.557 52.134,71.147 52.134L71.065 52.134C70.901 52.134,70.791 52.134,70.627 52.161C69.724 52.408,68.739 52.599,67.782 52.763L67.125 52.873C67.152 52.326,67.152 51.724,67.207 51.149C67.234 49.891,67.262 48.632,67.262 47.373C68.384 47.072,69.451 46.772,70.518 46.416C71.092 46.224,71.612 45.896,71.776 45.267C71.913 44.555,72.132 43.899,72.132 43.187C72.132 42.777,72.077 42.367,71.913 41.956C71.776 41.573,71.639 41.382,71.42 41.382L71.338 41.382C71.202 41.382,71.065 41.382,70.901 41.464C69.669 41.956,68.466 42.367,67.207 42.722L67.07 40.588C66.988 38.892,66.933 37.168,66.578 35.472C66.496 35.253,66.523 34.897,66.277 34.897L66.249 34.897L66.14 34.897C65.812 34.979,65.429 35.116,65.374 35.554L65.374 36.293C65.374 38.618,65.456 40.889,65.511 43.187L63.404 43.652C63.404 42.476,63.377 41.3,63.295 40.123C63.267 39.521,63.267 38.974,62.939 38.372C62.063 38.81,62.2 39.548,62.2 40.178C62.118 41.464,62.063 42.668,62.036 43.899C60.942 44.118,59.82 44.282,58.725 44.473C57.111 44.747,56.865 44.993,56.865 46.772C56.756 47.209,57.084 47.702,57.029 48.194C56.947 48.933,57.139 49.179,57.658 49.207C57.768 49.207,57.905 49.179,58.069 49.124C59.355 48.933,60.613 48.741,61.872 48.495L61.762 52.052C61.708 52.709,61.653 53.338,61.571 53.967C60.093 54.268,58.643 54.542,57.193 54.897C56.372 55.089,55.88 55.39,55.88 56.348C55.88 57.278,56.236 58.153,56.29 59.056C56.29 59.494,56.4 59.685,56.728 59.74C56.783 59.74,56.92 59.685,57.084 59.658C58.479 59.33,59.902 59.056,61.325 58.755C61.297 59.248,61.297 59.768,61.297 60.315C61.297 61.71,61.434 63.051,61.927 64.391C62.009 64.665,61.927 65.13,62.282 65.13M63.322 53.612C63.377 52.763,63.377 51.888,63.404 51.012C63.459 50.082,63.459 49.179,63.459 48.222C64.115 48.112,64.745 48.003,65.374 47.839C65.182 49.644,65.1 51.45,64.991 53.283"/><path stroke="none" d="M79.534 80.13C79.835 80.103,79.917 79.665,79.999 79.391C80.163 78.872,80.191 78.352,80.191 77.887C80.191 77.449,80.163 77.066,80.163 76.628C80.163 76.354,80.163 75.999,80.191 75.725C80.273 74.932,80.355 74.138,80.382 73.345L82.133 72.989C82.215 74.658,82.516 76.272,83.064 77.832C83.118 78.051,83.255 78.27,83.501 78.27C83.748 78.324,83.83 78.051,83.939 77.832C84.213 77.421,84.24 76.902,84.24 76.436C84.295 76.081,84.295 75.752,84.295 75.452C84.295 74.494,84.213 73.509,84.185 72.551L86.456 72.086C88.618 71.648,88.891 71.348,89.055 69.268C89.055 68.748,89.11 68.393,89.055 67.982C89.028 67.49,88.809 67.134,88.399 67.134L88.317 67.134C88.152 67.134,88.043 67.134,87.879 67.161C86.976 67.408,85.991 67.599,85.033 67.763L84.377 67.873C84.404 67.326,84.404 66.724,84.459 66.149C84.486 64.891,84.514 63.632,84.514 62.373C85.635 62.072,86.702 61.772,87.769 61.416C88.344 61.224,88.864 60.896,89.028 60.267C89.165 59.555,89.384 58.899,89.384 58.187C89.384 57.777,89.329 57.367,89.165 56.956C89.028 56.573,88.891 56.382,88.672 56.382L88.59 56.382C88.453 56.382,88.317 56.382,88.152 56.464C86.921 56.956,85.717 57.367,84.459 57.722L84.322 55.588C84.24 53.892,84.185 52.168,83.83 50.472C83.748 50.253,83.775 49.897,83.529 49.897L83.501 49.897L83.392 49.897C83.064 49.979,82.68 50.116,82.626 50.554L82.626 51.293C82.626 53.618,82.708 55.889,82.763 58.187L80.656 58.652C80.656 57.476,80.628 56.3,80.546 55.123C80.519 54.521,80.519 53.974,80.191 53.372C79.315 53.81,79.452 54.548,79.452 55.178C79.37 56.464,79.315 57.668,79.288 58.899C78.193 59.118,77.072 59.282,75.977 59.473C74.363 59.747,74.117 59.993,74.117 61.772C74.007 62.209,74.336 62.702,74.281 63.194C74.199 63.933,74.39 64.179,74.91 64.207C75.02 64.207,75.156 64.179,75.321 64.124C76.607 63.933,77.865 63.741,79.124 63.495L79.014 67.052C78.96 67.709,78.905 68.338,78.823 68.967C77.345 69.268,75.895 69.542,74.445 69.897C73.624 70.089,73.132 70.39,73.132 71.348C73.132 72.278,73.488 73.153,73.542 74.056C73.542 74.494,73.652 74.685,73.98 74.74C74.035 74.74,74.172 74.685,74.336 74.658C75.731 74.33,77.154 74.056,78.576 73.755C78.549 74.248,78.549 74.768,78.549 75.315C78.549 76.71,78.686 78.051,79.178 79.391C79.26 79.665,79.178 80.13,79.534 80.13M80.574 68.612C80.628 67.763,80.628 66.888,80.656 66.012C80.711 65.082,80.711 64.179,80.711 63.222C81.367 63.112,81.996 63.003,82.626 62.839C82.434 64.644,82.352 66.45,82.243 68.283"/><path stroke="none" d="M96.786 60.13C97.087 60.103,97.169 59.665,97.251 59.391C97.415 58.872,97.443 58.352,97.443 57.887C97.443 57.449,97.415 57.066,97.415 56.628C97.415 56.354,97.415 55.999,97.443 55.725C97.525 54.932,97.607 54.138,97.634 53.345L99.385 52.989C99.467 54.658,99.768 56.272,100.315 57.832C100.37 58.051,100.507 58.27,100.753 58.27C100.999 58.324,101.081 58.051,101.191 57.832C101.464 57.421,101.492 56.902,101.492 56.436C101.547 56.081,101.547 55.752,101.547 55.452C101.547 54.494,101.464 53.509,101.437 52.551L103.708 52.086C105.869 51.648,106.143 51.348,106.307 49.268C106.307 48.748,106.362 48.393,106.307 47.982C106.28 47.49,106.061 47.134,105.651 47.134L105.568 47.134C105.404 47.134,105.295 47.134,105.131 47.161C104.228 47.408,103.243 47.599,102.285 47.763L101.629 47.873C101.656 47.326,101.656 46.724,101.711 46.149C101.738 44.891,101.765 43.632,101.765 42.373C102.887 42.072,103.954 41.772,105.021 41.416C105.596 41.224,106.116 40.896,106.28 40.267C106.417 39.555,106.636 38.899,106.636 38.187C106.636 37.777,106.581 37.367,106.417 36.956C106.28 36.573,106.143 36.382,105.924 36.382L105.842 36.382C105.705 36.382,105.568 36.382,105.404 36.464C104.173 36.956,102.969 37.367,101.711 37.722L101.574 35.588C101.492 33.892,101.437 32.168,101.081 30.472C100.999 30.253,101.027 29.897,100.78 29.897L100.753 29.897L100.644 29.897C100.315 29.979,99.932 30.116,99.878 30.554L99.878 31.293C99.878 33.618,99.96 35.889,100.014 38.187L97.908 38.652C97.908 37.476,97.88 36.3,97.798 35.123C97.771 34.521,97.771 33.974,97.443 33.372C96.567 33.81,96.704 34.548,96.704 35.178C96.622 36.464,96.567 37.668,96.54 38.899C95.445 39.118,94.324 39.282,93.229 39.473C91.615 39.747,91.369 39.993,91.369 41.772C91.259 42.209,91.588 42.702,91.533 43.194C91.451 43.933,91.642 44.179,92.162 44.207C92.272 44.207,92.408 44.179,92.572 44.124C93.858 43.933,95.117 43.741,96.376 43.495L96.266 47.052C96.211 47.709,96.157 48.338,96.075 48.967C94.597 49.268,93.147 49.542,91.697 49.897C90.876 50.089,90.384 50.39,90.384 51.348C90.384 52.278,90.739 53.153,90.794 54.056C90.794 54.494,90.904 54.685,91.232 54.74C91.287 54.74,91.423 54.685,91.588 54.658C92.983 54.33,94.406 54.056,95.828 53.755C95.801 54.248,95.801 54.768,95.801 55.315C95.801 56.71,95.938 58.051,96.43 59.391C96.512 59.665,96.43 60.13,96.786 60.13M97.826 48.612C97.88 47.763,97.88 46.888,97.908 46.012C97.962 45.082,97.962 44.179,97.962 43.222C98.619 43.112,99.248 43.003,99.878 42.839C99.686 44.644,99.604 46.45,99.495 48.283"/><path stroke="none" d="M114.038 75.13C114.339 75.103,114.421 74.665,114.503 74.391C114.667 73.872,114.694 73.352,114.694 72.887C114.694 72.449,114.667 72.066,114.667 71.628C114.667 71.354,114.667 70.999,114.694 70.725C114.776 69.932,114.859 69.138,114.886 68.345L116.637 67.989C116.719 69.658,117.02 71.272,117.567 72.832C117.622 73.051,117.759 73.27,118.005 73.27C118.251 73.324,118.333 73.051,118.443 72.832C118.716 72.421,118.744 71.902,118.744 71.436C118.798 71.081,118.798 70.752,118.798 70.452C118.798 69.494,118.716 68.509,118.689 67.551L120.96 67.086C123.121 66.648,123.395 66.348,123.559 64.268C123.559 63.748,123.614 63.393,123.559 62.982C123.532 62.49,123.313 62.134,122.902 62.134L122.82 62.134C122.656 62.134,122.547 62.134,122.383 62.161C121.48 62.408,120.495 62.599,119.537 62.763L118.88 62.873C118.908 62.326,118.908 61.724,118.963 61.149C118.99 59.891,119.017 58.632,119.017 57.373C120.139 57.072,121.206 56.772,122.273 56.416C122.848 56.224,123.368 55.896,123.532 55.267C123.668 54.555,123.887 53.899,123.887 53.187C123.887 52.777,123.833 52.367,123.668 51.956C123.532 51.573,123.395 51.382,123.176 51.382L123.094 51.382C122.957 51.382,122.82 51.382,122.656 51.464C121.425 51.956,120.221 52.367,118.963 52.722L118.826 50.588C118.744 48.892,118.689 47.168,118.333 45.472C118.251 45.253,118.279 44.897,118.032 44.897L118.005 44.897L117.896 44.897C117.567 44.979,117.184 45.116,117.129 45.554L117.129 46.293C117.129 48.618,117.212 50.889,117.266 53.187L115.16 53.652C115.16 52.476,115.132 51.3,115.05 50.123C115.023 49.521,115.023 48.974,114.694 48.372C113.819 48.81,113.956 49.548,113.956 50.178C113.874 51.464,113.819 52.668,113.792 53.899C112.697 54.118,111.575 54.282,110.481 54.473C108.867 54.747,108.62 54.993,108.62 56.772C108.511 57.209,108.839 57.702,108.785 58.194C108.703 58.933,108.894 59.179,109.414 59.207C109.523 59.207,109.66 59.179,109.824 59.124C111.11 58.933,112.369 58.741,113.627 58.495L113.518 62.052C113.463 62.709,113.408 63.338,113.326 63.967C111.849 64.268,110.399 64.542,108.949 64.897C108.128 65.089,107.636 65.39,107.636 66.348C107.636 67.278,107.991 68.153,108.046 69.056C108.046 69.494,108.155 69.685,108.484 69.74C108.538 69.74,108.675 69.685,108.839 69.658C110.235 69.33,111.657 69.056,113.08 68.755C113.053 69.248,113.053 69.768,113.053 70.315C113.053 71.71,113.19 73.051,113.682 74.391C113.764 74.665,113.682 75.13,114.038 75.13M115.077 63.612C115.132 62.763,115.132 61.888,115.16 61.012C115.214 60.082,115.214 59.179,115.214 58.222C115.871 58.112,116.5 58.003,117.129 57.839C116.938 59.644,116.856 61.45,116.746 63.283"/></g><g class="vf-stavenote" id="vf-auto21389"><path stroke-width="1.4" fill="none" stroke="#444" d="M149.183 90L168.691 90"/><g class="vf-stem" id="vf-auto21390" pointer-events="bounding-box"><path stroke-width="1.5" fill="none" d="M152.933 92L152.933 125"/></g><g class="vf-notehead" id="vf-auto21392" pointer-events="bounding-box"><path stroke="none" d="M155.328 96.543C155.609 96.599,155.861 96.627,156.142 96.627C160.017 96.627,165.802 91.348,165.689 87.08C165.577 86.041,165.605 84.609,163.499 83.766C162.909 83.485,162.264 83.373,161.562 83.373C157.237 83.373,152.548 88.343,152.211 91.657C152.211 91.909,152.183 92.134,152.183 92.387C152.183 94.409,153.081 96.037,155.328 96.543"/><path stroke="none" d="M147.74 107.976C148.177 107.976,148.287 107.401,148.451 107.073C148.478 106.826,148.56 106.635,148.56 106.389C148.643 103.68,148.67 100.944,148.752 98.208C148.752 96.922,148.67 95.664,148.67 94.405C148.752 91.778,148.889 89.124,148.971 86.498C148.971 86.498,149.026 85.896,149.08 85.404L149.08 85.267L149.108 84.802L149.108 84.555L149.162 83.844C149.162 83.735,149.244 83.269,149.08 82.914C148.889 82.503,149.026 81.655,148.205 81.847C146.344 82.367,144.429 82.558,142.487 82.722C142.623 80.479,142.733 78.18,142.733 75.937C142.733 75.198,142.733 74.487,142.705 73.721C142.705 73.064,142.569 72.435,142.295 71.806C141.009 72.189,141.228 73.365,141.228 74.159C141.283 78.153,140.954 82.093,140.845 86.06C140.79 87.428,140.763 88.824,140.763 90.192C140.763 91.368,140.79 92.517,140.845 93.666C140.845 94.46,140.954 95.253,140.954 95.992C140.954 96.648,141.228 96.867,141.72 96.867C141.83 96.867,141.939 96.867,142.104 96.813L146.864 96.101L147.056 96.074L147.056 99.822C147.056 101.218,146.864 102.695,146.864 104.118C146.864 105.048,146.946 106.006,147.22 106.936C147.329 107.346,147.22 107.976,147.74 107.976M142.35 91.724C142.295 90.383,142.213 89.097,142.268 87.784L142.295 87.291C142.541 87.291,142.815 87.319,143.088 87.291C144.429 87.155,145.77 87.072,147.11 87.045L147.329 87.018L147.22 88.194C147.192 89.207,147.11 90.274,147.11 91.313C145.524 91.724,143.909 91.997,142.35 92.216"/></g></g><g class="vf-stavenote" id="vf-auto21393"><g class="vf-stem" id="vf-auto21394" pointer-events="bounding-box"><path stroke-width="1.5" fill="none" d="M181.395 57L181.395 90"/></g><g class="vf-notehead" id="vf-auto21396" pointer-events="bounding-box"><path stroke="none" d="M183.789 61.543C184.07 61.599,184.323 61.627,184.604 61.627C188.479 61.627,194.263 56.348,194.151 52.08C194.039 51.041,194.067 49.609,191.961 48.766C191.371 48.485,190.725 48.373,190.023 48.373C185.699 48.373,181.01 53.343,180.673 56.657C180.673 56.909,180.645 57.134,180.645 57.387C180.645 59.409,181.543 61.037,183.789 61.543"/><path stroke="none" d="M176.201 72.976C176.639 72.976,176.748 72.401,176.913 72.073C176.94 71.826,177.022 71.635,177.022 71.389C177.104 68.68,177.132 65.944,177.214 63.208C177.214 61.922,177.132 60.664,177.132 59.405C177.214 56.778,177.35 54.124,177.432 51.498C177.432 51.498,177.487 50.896,177.542 50.404L177.542 50.267L177.569 49.802L177.569 49.555L177.624 48.844C177.624 48.735,177.706 48.269,177.542 47.914C177.35 47.503,177.487 46.655,176.666 46.847C174.806 47.367,172.891 47.558,170.948 47.722C171.085 45.479,171.194 43.18,171.194 40.937C171.194 40.198,171.194 39.487,171.167 38.721C171.167 38.064,171.03 37.435,170.757 36.806C169.471 37.189,169.69 38.365,169.69 39.159C169.744 43.153,169.416 47.093,169.307 51.06C169.252 52.428,169.224 53.824,169.224 55.192C169.224 56.368,169.252 57.517,169.307 58.666C169.307 59.46,169.416 60.253,169.416 60.992C169.416 61.648,169.69 61.867,170.182 61.867C170.292 61.867,170.401 61.867,170.565 61.813L175.326 61.101L175.517 61.074L175.517 64.822C175.517 66.218,175.326 67.695,175.326 69.118C175.326 70.048,175.408 71.006,175.681 71.936C175.791 72.346,175.681 72.976,176.201 72.976M170.811 56.724C170.757 55.383,170.675 54.097,170.729 52.784L170.757 52.291C171.003 52.291,171.276 52.319,171.55 52.291C172.891 52.155,174.231 52.072,175.572 52.045L175.791 52.018L175.681 53.194C175.654 54.207,175.572 55.274,175.572 56.313C173.985 56.724,172.371 56.997,170.811 57.216"/></g></g><g class="vf-stavenote" id="vf-auto21397"><path stroke-width="1.4" fill="none" stroke="#444" d="M213.404 90L232.913 90"/><g class="vf-stem" id="vf-auto21398" pointer-events="bounding-box"><path stroke-width="1.5" fill="none" d="M217.154 92L217.154 125"/></g><g class="vf-notehead" id="vf-auto21400" pointer-events="bounding-box"><path stroke="none" d="M219.549 96.543C219.83 96.599,220.083 96.627,220.364 96.627C224.239 96.627,230.023 91.348,229.911 87.08C229.799 86.041,229.827 84.609,227.721 83.766C227.131 83.485,226.485 83.373,225.783 83.373C221.459 83.373,216.77 88.343,216.433 91.657C216.433 91.909,216.404 92.134,216.404 92.387C216.404 94.409,217.303 96.037,219.549 96.543"/><path stroke="none" d="M203.555 105.13C203.856 105.103,203.938 104.665,204.02 104.391C204.184 103.872,204.212 103.352,204.212 102.887C204.212 102.449,204.184 102.066,204.184 101.628C204.184 101.354,204.184 100.999,204.212 100.725C204.294 99.932,204.376 99.138,204.403 98.345L206.154 97.989C206.236 99.658,206.537 101.272,207.084 102.832C207.139 103.051,207.276 103.27,207.522 103.27C207.768 103.324,207.85 103.051,207.96 102.832C208.233 102.421,208.261 101.902,208.261 101.436C208.316 101.081,208.316 100.752,208.316 100.452C208.316 99.494,208.233 98.509,208.206 97.551L210.477 97.086C212.638 96.648,212.912 96.348,213.076 94.268C213.076 93.748,213.131 93.393,213.076 92.982C213.049 92.49,212.83 92.134,212.42 92.134L212.337 92.134C212.173 92.134,212.064 92.134,211.9 92.161C210.997 92.408,210.012 92.599,209.054 92.763L208.398 92.873C208.425 92.326,208.425 91.724,208.48 91.149C208.507 89.891,208.534 88.632,208.534 87.373C209.656 87.072,210.723 86.772,211.79 86.416C212.365 86.224,212.885 85.896,213.049 85.267C213.186 84.555,213.404 83.899,213.404 83.187C213.404 82.777,213.35 82.367,213.186 81.956C213.049 81.573,212.912 81.382,212.693 81.382L212.611 81.382C212.474 81.382,212.337 81.382,212.173 81.464C210.942 81.956,209.738 82.367,208.48 82.722L208.343 80.588C208.261 78.892,208.206 77.168,207.85 75.472C207.768 75.253,207.796 74.897,207.549 74.897L207.522 74.897L207.413 74.897C207.084 74.979,206.701 75.116,206.647 75.554L206.647 76.293C206.647 78.618,206.729 80.889,206.783 83.187L204.677 83.652C204.677 82.476,204.649 81.3,204.567 80.123C204.54 79.521,204.54 78.974,204.212 78.372C203.336 78.81,203.473 79.548,203.473 80.178C203.391 81.464,203.336 82.668,203.309 83.899C202.214 84.118,201.092 84.282,199.998 84.473C198.384 84.747,198.138 84.993,198.138 86.772C198.028 87.209,198.356 87.702,198.302 88.194C198.22 88.933,198.411 89.179,198.931 89.207C199.04 89.207,199.177 89.179,199.341 89.124C200.627 88.933,201.886 88.741,203.144 88.495L203.035 92.052C202.98 92.709,202.926 93.338,202.844 93.967C201.366 94.268,199.916 94.542,198.466 94.897C197.645 95.089,197.153 95.39,197.153 96.348C197.153 97.278,197.508 98.153,197.563 99.056C197.563 99.494,197.672 99.685,198.001 99.74C198.056 99.74,198.192 99.685,198.356 99.658C199.752 99.33,201.175 99.056,202.597 98.755C202.57 99.248,202.57 99.768,202.57 100.315C202.57 101.71,202.707 103.051,203.199 104.391C203.281 104.665,203.199 105.13,203.555 105.13M204.595 93.612C204.649 92.763,204.649 91.888,204.677 91.012C204.731 90.082,204.731 89.179,204.731 88.222C205.388 88.112,206.017 88.003,206.647 87.839C206.455 89.644,206.373 91.45,206.264 93.283"/></g></g><g class="vf-stavenote" id="vf-auto21401"><g class="vf-stem" id="vf-auto21402" pointer-events="bounding-box"><path stroke-width="1.5" fill="none" d="M252.914 57L252.914 90"/></g><g class="vf-notehead" id="vf-auto21404" pointer-events="bounding-box"><path stroke="none" d="M255.309 61.543C255.59 61.599,255.843 61.627,256.124 61.627C259.999 61.627,265.783 56.348,265.671 52.08C265.559 51.041,265.587 49.609,263.481 48.766C262.891 48.485,262.245 48.373,261.543 48.373C257.219 48.373,252.529 53.343,252.192 56.657C252.192 56.909,252.164 57.134,252.164 57.387C252.164 59.409,253.063 61.037,255.309 61.543"/><path stroke="none" d="M239.315 70.13C239.616 70.103,239.698 69.665,239.78 69.391C239.944 68.872,239.971 68.352,239.971 67.887C239.971 67.449,239.944 67.066,239.944 66.628C239.944 66.354,239.944 65.999,239.971 65.725C240.054 64.932,240.136 64.138,240.163 63.345L241.914 62.989C241.996 64.658,242.297 66.272,242.844 67.832C242.899 68.051,243.036 68.27,243.282 68.27C243.528 68.324,243.61 68.051,243.72 67.832C243.993 67.421,244.021 66.902,244.021 66.436C244.075 66.081,244.075 65.752,244.075 65.452C244.075 64.494,243.993 63.509,243.966 62.551L246.237 62.086C248.398 61.648,248.672 61.348,248.836 59.268C248.836 58.748,248.891 58.393,248.836 57.982C248.809 57.49,248.59 57.134,248.179 57.134L248.097 57.134C247.933 57.134,247.824 57.134,247.66 57.161C246.757 57.408,245.772 57.599,244.814 57.763L244.158 57.873C244.185 57.326,244.185 56.724,244.24 56.149C244.267 54.891,244.294 53.632,244.294 52.373C245.416 52.072,246.483 51.772,247.55 51.416C248.125 51.224,248.645 50.896,248.809 50.267C248.946 49.555,249.164 48.899,249.164 48.187C249.164 47.777,249.11 47.367,248.946 46.956C248.809 46.573,248.672 46.382,248.453 46.382L248.371 46.382C248.234 46.382,248.097 46.382,247.933 46.464C246.702 46.956,245.498 47.367,244.24 47.722L244.103 45.588C244.021 43.892,243.966 42.168,243.61 40.472C243.528 40.253,243.556 39.897,243.309 39.897L243.282 39.897L243.173 39.897C242.844 39.979,242.461 40.116,242.406 40.554L242.406 41.293C242.406 43.618,242.489 45.889,242.543 48.187L240.437 48.652C240.437 47.476,240.409 46.3,240.327 45.123C240.3 44.521,240.3 43.974,239.971 43.372C239.096 43.81,239.233 44.548,239.233 45.178C239.151 46.464,239.096 47.668,239.069 48.899C237.974 49.118,236.852 49.282,235.758 49.473C234.144 49.747,233.898 49.993,233.898 51.772C233.788 52.209,234.116 52.702,234.062 53.194C233.98 53.933,234.171 54.179,234.691 54.207C234.8 54.207,234.937 54.179,235.101 54.124C236.387 53.933,237.646 53.741,238.904 53.495L238.795 57.052C238.74 57.709,238.686 58.338,238.603 58.967C237.126 59.268,235.676 59.542,234.226 59.897C233.405 60.089,232.913 60.39,232.913 61.348C232.913 62.278,233.268 63.153,233.323 64.056C233.323 64.494,233.432 64.685,233.761 64.74C233.815 64.74,233.952 64.685,234.116 64.658C235.512 64.33,236.934 64.056,238.357 63.755C238.33 64.248,238.33 64.768,238.33 65.315C238.33 66.71,238.467 68.051,238.959 69.391C239.041 69.665,238.959 70.13,239.315 70.13M240.354 58.612C240.409 57.763,240.409 56.888,240.437 56.012C240.491 55.082,240.491 54.179,240.491 53.222C241.148 53.112,241.777 53.003,242.406 52.839C242.215 54.644,242.133 56.45,242.023 58.283"/></g></g><g class="vf-stavenote" id="vf-auto21405"><path stroke-width="1.4" fill="none" stroke="#444" d="M277.626 90L297.134 90"/><g class="vf-stem" id="vf-auto21406" pointer-events="bounding-box"><path stroke-width="1.5" fill="none" d="M281.376 92L281.376 125"/></g><g class="vf-notehead" id="vf-auto21408" pointer-events="bounding-box"><path stroke="none" d="M283.771 96.543C284.052 96.599,284.304 96.627,284.585 96.627C288.46 96.627,294.245 91.348,294.132 87.08C294.02 86.041,294.048 84.609,291.942 83.766C291.353 83.485,290.707 83.373,290.005 83.373C285.68 83.373,280.991 88.343,280.654 91.657C280.654 91.909,280.626 92.134,280.626 92.387C280.626 94.409,281.525 96.037,283.771 96.543"/></g></g><g class="vf-stavenote" id="vf-auto21409"><g class="vf-stem" id="vf-auto21410" pointer-events="bounding-box"><path stroke-width="1.5" fill="none" d="M309.838 57L309.838 90"/></g><g class="vf-notehead" id="vf-auto21412" pointer-events="bounding-box"><path stroke="none" d="M312.233 61.543C312.513 61.599,312.766 61.627,313.047 61.627C316.922 61.627,322.706 56.348,322.594 52.08C322.482 51.041,322.51 49.609,320.404 48.766C319.814 48.485,319.168 48.373,318.466 48.373C314.142 48.373,309.453 53.343,309.116 56.657C309.116 56.909,309.088 57.134,309.088 57.387C309.088 59.409,309.986 61.037,312.233 61.543"/></g></g><g class="vf-stavenote" id="vf-auto21413"><path stroke-width="1.4" fill="none" stroke="#444" d="M336.016 90L355.524 90"/><g class="vf-stem" id="vf-auto21414" pointer-events="bounding-box"><path stroke-width="1.5" fill="none" d="M339.766 92L339.766 125"/></g><g class="vf-notehead" id="vf-auto21416" pointer-events="bounding-box"><path stroke="none" d="M342.161 96.543C342.442 96.599,342.694 96.627,342.975 96.627C346.85 96.627,352.635 91.348,352.522 87.08C352.41 86.041,352.438 84.609,350.332 83.766C349.742 83.485,349.096 83.373,348.394 83.373C344.07 83.373,339.381 88.343,339.044 91.657C339.044 91.909,339.016 92.134,339.016 92.387C339.016 94.409,339.914 96.037,342.161 96.543"/><path stroke="none" d="M334.573 107.976C335.01 107.976,335.12 107.401,335.284 107.073C335.311 106.826,335.393 106.635,335.393 106.389C335.475 103.68,335.503 100.944,335.585 98.208C335.585 96.922,335.503 95.664,335.503 94.405C335.585 91.778,335.722 89.124,335.804 86.498C335.804 86.498,335.858 85.896,335.913 85.404L335.913 85.267L335.941 84.802L335.941 84.555L335.995 83.844C335.995 83.735,336.077 83.269,335.913 82.914C335.722 82.503,335.858 81.655,335.038 81.847C333.177 82.367,331.262 82.558,329.319 82.722C329.456 80.479,329.566 78.18,329.566 75.937C329.566 75.198,329.566 74.487,329.538 73.721C329.538 73.064,329.401 72.435,329.128 71.806C327.842 72.189,328.061 73.365,328.061 74.159C328.116 78.153,327.787 82.093,327.678 86.06C327.623 87.428,327.596 88.824,327.596 90.192C327.596 91.368,327.623 92.517,327.678 93.666C327.678 94.46,327.787 95.253,327.787 95.992C327.787 96.648,328.061 96.867,328.553 96.867C328.663 96.867,328.772 96.867,328.936 96.813L333.697 96.101L333.889 96.074L333.889 99.822C333.889 101.218,333.697 102.695,333.697 104.118C333.697 105.048,333.779 106.006,334.053 106.936C334.162 107.346,334.053 107.976,334.573 107.976M329.183 91.724C329.128 90.383,329.046 89.097,329.101 87.784L329.128 87.291C329.374 87.291,329.648 87.319,329.921 87.291C331.262 87.155,332.603 87.072,333.943 87.045L334.162 87.018L334.053 88.194C334.025 89.207,333.943 90.274,333.943 91.313C332.356 91.724,330.742 91.997,329.183 92.216"/></g></g><g class="vf-stavenote" id="vf-auto21417"><g class="vf-stem" id="vf-auto21418" pointer-events="bounding-box"><path stroke-width="1.5" fill="none" d="M368.227 57L368.227 90"/></g><g class="vf-notehead" id="vf-auto21420" pointer-events="bounding-box"><path stroke="none" d="M370.622 61.543C370.903 61.599,371.156 61.627,371.437 61.627C375.312 61.627,381.096 56.348,380.984 52.08C380.872 51.041,380.9 49.609,378.794 48.766C378.204 48.485,377.558 48.373,376.856 48.373C372.532 48.373,367.842 53.343,367.505 56.657C367.505 56.909,367.477 57.134,367.477 57.387C367.477 59.409,368.376 61.037,370.622 61.543"/><path stroke="none" d="M363.034 72.976C363.472 72.976,363.581 72.401,363.745 72.073C363.773 71.826,363.855 71.635,363.855 71.389C363.937 68.68,363.964 65.944,364.046 63.208C364.046 61.922,363.964 60.664,363.964 59.405C364.046 56.778,364.183 54.124,364.265 51.498C364.265 51.498,364.32 50.896,364.375 50.404L364.375 50.267L364.402 49.802L364.402 49.555L364.457 48.844C364.457 48.735,364.539 48.269,364.375 47.914C364.183 47.503,364.32 46.655,363.499 46.847C361.639 47.367,359.724 47.558,357.781 47.722C357.918 45.479,358.027 43.18,358.027 40.937C358.027 40.198,358.027 39.487,358 38.721C358 38.064,357.863 37.435,357.589 36.806C356.304 37.189,356.522 38.365,356.522 39.159C356.577 43.153,356.249 47.093,356.139 51.06C356.085 52.428,356.057 53.824,356.057 55.192C356.057 56.368,356.085 57.517,356.139 58.666C356.139 59.46,356.249 60.253,356.249 60.992C356.249 61.648,356.522 61.867,357.015 61.867C357.124 61.867,357.234 61.867,357.398 61.813L362.159 61.101L362.35 61.074L362.35 64.822C362.35 66.218,362.159 67.695,362.159 69.118C362.159 70.048,362.241 71.006,362.514 71.936C362.624 72.346,362.514 72.976,363.034 72.976M357.644 56.724C357.589 55.383,357.507 54.097,357.562 52.784L357.589 52.291C357.836 52.291,358.109 52.319,358.383 52.291C359.724 52.155,361.064 52.072,362.405 52.045L362.624 52.018L362.514 53.194C362.487 54.207,362.405 55.274,362.405 56.313C360.818 56.724,359.204 56.997,357.644 57.216"/></g></g><g class="vf-stavenote" id="vf-auto21421"><path stroke-width="1.4" fill="none" stroke="#444" d="M392.939 90L412.447 90"/><g class="vf-stem" id="vf-auto21422" pointer-events="bounding-box"><path stroke-width="1.5" fill="none" d="M396.689 92L396.689 125"/></g><g class="vf-notehead" id="vf-auto21424" pointer-events="bounding-box"><path stroke="none" d="M399.084 96.543C399.365 96.599,399.617 96.627,399.898 96.627C403.773 96.627,409.558 91.348,409.445 87.08C409.333 86.041,409.361 84.609,407.255 83.766C406.666 83.485,406.02 83.373,405.318 83.373C400.993 83.373,396.304 88.343,395.967 91.657C395.967 91.909,395.939 92.134,395.939 92.387C395.939 94.409,396.838 96.037,399.084 96.543"/></g></g><g class="vf-stavenote" id="vf-auto21425"><g class="vf-stem" id="vf-auto21426" pointer-events="bounding-box"><path stroke-width="1.5" fill="none" d="M425.151 57L425.151 90"/></g><g class="vf-notehead" id="vf-auto21428" pointer-events="bounding-box"><path stroke="none" d="M427.546 61.543C427.826 61.599,428.079 61.627,428.36 61.627C432.235 61.627,438.019 56.348,437.907 52.08C437.795 51.041,437.823 49.609,435.717 48.766C435.127 48.485,434.481 48.373,433.779 48.373C429.455 48.373,424.766 53.343,424.429 56.657C424.429 56.909,424.401 57.134,424.401 57.387C424.401 59.409,425.299 61.037,427.546 61.543"/></g></g><g class="vf-stavenote" id="vf-auto21429"><path stroke-width="1.4" fill="none" stroke="#444" d="M451.117 90L470.625 90"/><g class="vf-stem" id="vf-auto21430" pointer-events="bounding-box"><path stroke-width="1.5" fill="none" d="M454.867 92L454.867 125"/></g><g class="vf-notehead" id="vf-auto21432" pointer-events="bounding-box"><path stroke="none" d="M457.262 96.543C457.542 96.599,457.795 96.627,458.076 96.627C461.951 96.627,467.735 91.348,467.623 87.08C467.511 86.041,467.539 84.609,465.433 83.766C464.843 83.485,464.197 83.373,463.495 83.373C459.171 83.373,454.482 88.343,454.145 91.657C454.145 91.909,454.117 92.134,454.117 92.387C454.117 94.409,455.015 96.037,457.262 96.543"/><path stroke="none" d="M443.729 98.208C443.839 98.208,444.003 98.126,444.195 97.907C444.714 97.497,445.289 97.059,445.864 96.648C449.311 94.186,451.171 90.821,451.171 86.525C451.171 85.978,451.171 85.458,451.089 84.911C450.898 82.996,449.803 81.874,448.134 81.874C447.779 81.874,447.396 81.956,446.958 82.093C446.411 82.23,445.864 82.503,445.289 82.75L445.262 82.777L445.262 81.765C445.262 80.26,445.344 78.782,445.426 77.278C445.426 76.402,445.508 75.581,445.508 74.706C445.508 73.885,445.426 73.009,445.234 72.189C445.152 71.915,445.152 71.395,444.742 71.395L444.714 71.395C444.277 71.45,443.948 71.806,443.948 72.353C443.921 73.447,443.812 74.596,443.839 75.691L443.839 76.922C443.839 79.248,443.729 81.573,443.647 83.899C443.538 87.237,442.963 90.52,442.963 93.858C442.963 95.171,443.045 96.539,443.401 97.852C443.483 98.071,443.565 98.208,443.729 98.208M444.797 92.873C444.879 91.86,444.906 90.793,445.015 89.672C445.097 88.824,445.152 87.948,445.152 87.072L445.289 87.018C446.055 86.689,446.794 86.306,447.615 86.306C447.888 86.306,448.217 86.388,448.517 86.498C449.174 86.717,449.475 87.045,449.448 87.483C449.448 87.702,449.393 87.948,449.229 88.276C448.217 90.274,446.548 91.614,444.797 92.873"/></g></g><g class="vf-stavenote" id="vf-auto21433"><g class="vf-stem" id="vf-auto21434" pointer-events="bounding-box"><path stroke-width="1.5" fill="none" d="M483.328 57L483.328 90"/></g><g class="vf-notehead" id="vf-auto21436" pointer-events="bounding-box"><path stroke="none" d="M485.723 61.543C486.004 61.599,486.257 61.627,486.538 61.627C490.413 61.627,496.197 56.348,496.085 52.08C495.972 51.041,496.001 49.609,493.895 48.766C493.305 48.485,492.659 48.373,491.957 48.373C487.633 48.373,482.943 53.343,482.606 56.657C482.606 56.909,482.578 57.134,482.578 57.387C482.578 59.409,483.477 61.037,485.723 61.543"/><path stroke="none" d="M472.191 63.208C472.301 63.208,472.465 63.126,472.656 62.907C473.176 62.497,473.751 62.059,474.325 61.648C477.773 59.186,479.633 55.821,479.633 51.525C479.633 50.978,479.633 50.458,479.551 49.911C479.359 47.996,478.265 46.874,476.596 46.874C476.24 46.874,475.857 46.956,475.42 47.093C474.872 47.23,474.325 47.503,473.751 47.75L473.723 47.777L473.723 46.765C473.723 45.26,473.805 43.782,473.887 42.278C473.887 41.402,473.969 40.581,473.969 39.706C473.969 38.885,473.887 38.009,473.696 37.189C473.614 36.915,473.614 36.395,473.203 36.395L473.176 36.395C472.738 36.45,472.41 36.806,472.41 37.353C472.383 38.447,472.273 39.596,472.301 40.691L472.301 41.922C472.301 44.248,472.191 46.573,472.109 48.899C472 52.237,471.425 55.52,471.425 58.858C471.425 60.171,471.507 61.539,471.863 62.852C471.945 63.071,472.027 63.208,472.191 63.208M473.258 57.873C473.34 56.86,473.368 55.793,473.477 54.672C473.559 53.824,473.614 52.948,473.614 52.072L473.751 52.018C474.517 51.689,475.255 51.306,476.076 51.306C476.35 51.306,476.678 51.388,476.979 51.498C477.636 51.717,477.937 52.045,477.909 52.483C477.909 52.702,477.855 52.948,477.69 53.276C476.678 55.274,475.009 56.614,473.258 57.873"/></g></g><g class="vf-stavenote" id="vf-auto21437"><path stroke-width="1.4" fill="none" stroke="#444" d="M508.04 90L527.548 90"/><g class="vf-stem" id="vf-auto21438" pointer-events="bounding-box"><path stroke-width="1.5" fill="none" d="M511.79 92L511.79 125"/></g><g class="vf-notehead" id="vf-auto21440" pointer-events="bounding-box"><path stroke="none" d="M514.185 96.543C514.466 96.599,514.718 96.627,514.999 96.627C518.874 96.627,524.659 91.348,524.546 87.08C524.434 86.041,524.462 84.609,522.356 83.766C521.766 83.485,521.121 83.373,520.419 83.373C516.094 83.373,511.405 88.343,511.068 91.657C511.068 91.909,511.04 92.134,511.04 92.387C511.04 94.409,511.938 96.037,514.185 96.543"/></g></g><g class="vf-stavenote" id="vf-auto21441"><g class="vf-stem" id="vf-auto21442" pointer-events="bounding-box"><path stroke-width="1.5" fill="none" d="M540.251 57L540.251 90"/></g><g class="vf-notehead" id="vf-auto21444" pointer-events="bounding-box"><path stroke="none" d="M542.646 61.543C542.927 61.599,543.18 61.627,543.461 61.627C547.336 61.627,553.12 56.348,553.008 52.08C552.896 51.041,552.924 49.609,550.818 48.766C550.228 48.485,549.582 48.373,548.88 48.373C544.556 48.373,539.867 53.343,539.53 56.657C539.53 56.909,539.501 57.134,539.501 57.387C539.501 59.409,540.4 61.037,542.646 61.543"/></g></g><g class="vf-stavenote" id="vf-auto21445"><path stroke-width="1.4" fill="none" stroke="#444" d="M566.43 90L585.938 90"/><g class="vf-stem" id="vf-auto21446" pointer-events="bounding-box"><path stroke-width="1.5" fill="none" d="M570.18 92L570.18 125"/></g><g class="vf-notehead" id="vf-auto21448" pointer-events="bounding-box"><path stroke="none" d="M572.575 96.543C572.855 96.599,573.108 96.627,573.389 96.627C577.264 96.627,583.048 91.348,582.936 87.08C582.824 86.041,582.852 84.609,580.746 83.766C580.156 83.485,579.51 83.373,578.808 83.373C574.484 83.373,569.795 88.343,569.458 91.657C569.458 91.909,569.43 92.134,569.43 92.387C569.43 94.409,570.328 96.037,572.575 96.543"/><path stroke="none" d="M564.986 107.976C565.424 107.976,565.534 107.401,565.698 107.073C565.725 106.826,565.807 106.635,565.807 106.389C565.889 103.68,565.917 100.944,565.999 98.208C565.999 96.922,565.917 95.664,565.917 94.405C565.999 91.778,566.136 89.124,566.218 86.498C566.218 86.498,566.272 85.896,566.327 85.404L566.327 85.267L566.354 84.802L566.354 84.555L566.409 83.844C566.409 83.735,566.491 83.269,566.327 82.914C566.136 82.503,566.272 81.655,565.452 81.847C563.591 82.367,561.676 82.558,559.733 82.722C559.87 80.479,559.98 78.18,559.98 75.937C559.98 75.198,559.98 74.487,559.952 73.721C559.952 73.064,559.815 72.435,559.542 71.806C558.256 72.189,558.475 73.365,558.475 74.159C558.529 78.153,558.201 82.093,558.092 86.06C558.037 87.428,558.01 88.824,558.01 90.192C558.01 91.368,558.037 92.517,558.092 93.666C558.092 94.46,558.201 95.253,558.201 95.992C558.201 96.648,558.475 96.867,558.967 96.867C559.077 96.867,559.186 96.867,559.35 96.813L564.111 96.101L564.302 96.074L564.302 99.822C564.302 101.218,564.111 102.695,564.111 104.118C564.111 105.048,564.193 106.006,564.467 106.936C564.576 107.346,564.467 107.976,564.986 107.976M559.596 91.724C559.542 90.383,559.46 89.097,559.514 87.784L559.542 87.291C559.788 87.291,560.062 87.319,560.335 87.291C561.676 87.155,563.016 87.072,564.357 87.045L564.576 87.018L564.467 88.194C564.439 89.207,564.357 90.274,564.357 91.313C562.77 91.724,561.156 91.997,559.596 92.216"/></g></g><g class="vf-stavenote" id="vf-auto21449"><g class="vf-stem" id="vf-auto21450" pointer-events="bounding-box"><path stroke-width="1.5" fill="none" d="M598.641 57L598.641 90"/></g><g class="vf-notehead" id="vf-auto21452" pointer-events="bounding-box"><path stroke="none" d="M601.036 61.543C601.317 61.599,601.57 61.627,601.851 61.627C605.726 61.627,611.51 56.348,611.398 52.08C611.285 51.041,611.313 49.609,609.207 48.766C608.618 48.485,607.972 48.373,607.27 48.373C602.946 48.373,598.256 53.343,597.919 56.657C597.919 56.909,597.891 57.134,597.891 57.387C597.891 59.409,598.79 61.037,601.036 61.543"/><path stroke="none" d="M593.448 72.976C593.886 72.976,593.995 72.401,594.159 72.073C594.187 71.826,594.269 71.635,594.269 71.389C594.351 68.68,594.378 65.944,594.46 63.208C594.46 61.922,594.378 60.664,594.378 59.405C594.46 56.778,594.597 54.124,594.679 51.498C594.679 51.498,594.734 50.896,594.789 50.404L594.789 50.267L594.816 49.802L594.816 49.555L594.871 48.844C594.871 48.735,594.953 48.269,594.789 47.914C594.597 47.503,594.734 46.655,593.913 46.847C592.053 47.367,590.137 47.558,588.195 47.722C588.332 45.479,588.441 43.18,588.441 40.937C588.441 40.198,588.441 39.487,588.414 38.721C588.414 38.064,588.277 37.435,588.003 36.806C586.717 37.189,586.936 38.365,586.936 39.159C586.991 43.153,586.663 47.093,586.553 51.06C586.499 52.428,586.471 53.824,586.471 55.192C586.471 56.368,586.499 57.517,586.553 58.666C586.553 59.46,586.663 60.253,586.663 60.992C586.663 61.648,586.936 61.867,587.429 61.867C587.538 61.867,587.648 61.867,587.812 61.813L592.572 61.101L592.764 61.074L592.764 64.822C592.764 66.218,592.572 67.695,592.572 69.118C592.572 70.048,592.655 71.006,592.928 71.936C593.038 72.346,592.928 72.976,593.448 72.976M588.058 56.724C588.003 55.383,587.921 54.097,587.976 52.784L588.003 52.291C588.25 52.291,588.523 52.319,588.797 52.291C590.137 52.155,591.478 52.072,592.819 52.045L593.038 52.018L592.928 53.194C592.901 54.207,592.819 55.274,592.819 56.313C591.232 56.724,589.618 56.997,588.058 57.216"/></g></g><g class="vf-stavenote" id="vf-auto21453"><path stroke-width="1.4" fill="none" stroke="#444" d="M623.353 90L642.861 90"/><g class="vf-stem" id="vf-auto21454" pointer-events="bounding-box"><path stroke-width="1.5" fill="none" d="M627.103 92L627.103 125"/></g><g class="vf-notehead" id="vf-auto21456" pointer-events="bounding-box"><path stroke="none" d="M629.498 96.543C629.779 96.599,630.031 96.627,630.312 96.627C634.187 96.627,639.972 91.348,639.859 87.08C639.747 86.041,639.775 84.609,637.669 83.766C637.079 83.485,636.434 83.373,635.732 83.373C631.407 83.373,626.718 88.343,626.381 91.657C626.381 91.909,626.353 92.134,626.353 92.387C626.353 94.409,627.251 96.037,629.498 96.543"/></g></g><g class="vf-stavenote" id="vf-auto21457"><g class="vf-stem" id="vf-auto21458" pointer-events="bounding-box"><path stroke-width="1.5" fill="none" d="M655.564 57L655.564 90"/></g><g class="vf-notehead" id="vf-auto21460" pointer-events="bounding-box"><path stroke="none" d="M657.959 61.543C658.24 61.599,658.493 61.627,658.774 61.627C662.649 61.627,668.433 56.348,668.321 52.08C668.209 51.041,668.237 49.609,666.131 48.766C665.541 48.485,664.895 48.373,664.193 48.373C659.869 48.373,655.18 53.343,654.843 56.657C654.843 56.909,654.814 57.134,654.814 57.387C654.814 59.409,655.713 61.037,657.959 61.543"/></g></g></svg>