<svg xmlns="http://www.w3.org/2000/svg" stroke-width="0.3" stroke-dasharray="none" fill="black" stroke="black" font-family="Arial, sans-serif" font-size="10pt" font-weight="normal" font-style="normal" width="800" height="150" viewBox="0 0 800 150" style="width: 800px; height: 150px; border: none;"><g class="vf-stave" id="vf-auto16632" stroke-width="1" fill="#999999" stroke="#999999"><path fill="none" d="M10 70L310 70"/><path fill="none" d="M10 80L310 80"/><path fill="none" d="M10 90L310 90"/><path fill="none" d="M10 100L310 100"/><path fill="none" d="M10 110L310 110"/></g><g class="vf-stavebarline" id="vf-auto16633"><rect x="10" y="69.5" width="1" height="41" stroke="none"/></g><g class="vf-stavebarline" id="vf-auto16634"><rect x="310" y="69.5" width="1" height="41" stroke="none"/></g><g class="vf-clef" id="vf-auto16635"><path stroke="none" d="M23.693 121.402C23.87 121.402,24.048 121.377,24.276 121.301C24.707 121.148,25.062 120.92,25.366 120.591C28.382 117.423,29.623 113.596,29.75 109.313C29.75 108.983,29.776 108.451,29.776 108.451C29.776 108.451,30.282 108.147,30.511 108.071C31.727 107.488,32.893 106.829,33.932 105.993C36.72 103.762,38.316 100.747,39.051 97.376C39.204 96.844,39.229 96.286,39.229 95.779C39.229 93.473,37.962 91.8,35.047 91.268C34.312 91.116,33.577 91.04,32.842 91.04C31.017 91.04,29.269 91.521,27.621 92.484C27.419 92.611,27.19 92.763,27.19 92.763L26.253 89.215C26.202 89.038,26.202 88.708,26.202 88.708C26.202 88.708,29.928 82.093,30.434 78.697C30.612 77.709,30.688 76.72,30.688 75.757C30.688 74.972,30.663 74.237,30.536 73.527C30.181 70.891,29.193 68.408,28.534 65.848C28.356 65.088,28.103 64.175,27.216 64.175C26.557 64.175,26.101 64.809,25.695 65.341C23.82 67.926,22.907 70.891,22.73 74.059C22.705 74.566,22.705 75.098,22.705 75.605C22.705 78.545,23.186 81.51,23.566 84.425C23.566 84.653,23.642 84.881,23.693 85.059C22.046 87.39,20.221 89.57,18.65 91.978C17.56 93.701,16.343 95.424,15.583 97.35C15.177 98.288,15 99.403,15 100.493C15 102.749,15.76 105.055,17.078 106.322C17.839 107.057,19.055 107.868,20.246 108.299C21.944 108.907,23.617 109.313,25.391 109.313C25.923 109.313,26.455 109.287,27.013 109.211L27.444 109.135C27.444 109.135,27.469 109.465,27.444 109.642C27.038 111.847,26.506 114.001,25.188 115.826C24.479 116.764,23.82 117.828,22.451 117.93C22.046 117.98,21.868 118.234,21.868 118.563C21.868 118.69,21.894 118.817,21.944 118.944C22.147 119.501,22.4 120.084,22.654 120.642C22.882 121.148,23.237 121.402,23.693 121.402M25.138 82.828C24.859 81.08,24.681 79.356,24.681 77.633C24.681 74.465,25.34 71.373,27.19 68.408C27.621 69.751,27.849 71.119,27.849 72.488C27.849 73.198,27.773 73.933,27.672 74.642C27.19 77.506,26.532 80.269,25.138 82.828M21.387 104.421C20.88 104.396,20.449 104.219,19.967 104.067C19.004 103.737,18.219 103.382,17.965 102.749C17.839 102.47,17.813 102.14,17.813 101.811C17.813 101.406,17.889 100.975,17.965 100.518C17.991 100.316,18.219 99.682,18.295 99.581C19.714 97.046,21.412 94.765,23.211 92.459L24.732 90.457L25.011 91.268C25.29 92.18,25.543 93.625,25.543 93.625C25.543 93.625,24.529 94.943,23.87 95.602C22.046 97.376,21.159 99.606,21.159 102.064C21.159 102.673,21.235 103.306,21.361 103.965C21.387 104.092,21.387 104.219,21.387 104.421M29.269 103.306C28.99 100.924,28.432 99.023,27.925 96.742C27.875 96.463,27.875 96.286,28.001 96.134C28.939 95.957,29.852 95.881,30.815 95.881C31.727 95.881,32.589 95.957,33.501 96.134C34.591 96.362,35.681 96.539,36.542 97.426C36.593 97.503,36.669 97.579,36.745 97.604C35.301 100.518,33.146 102.723,30.08 104.067L29.421 104.32M25.391 105.055C24.124 105.055,22.882 104.726,22.882 104.726C22.882 104.726,22.781 104.219,22.781 103.484C22.781 103.002,22.806 102.419,22.958 101.836C23.313 100.088,24.555 98.846,25.873 97.68C25.974 97.579,26.101 97.503,26.177 97.503C26.303 97.503,26.354 97.655,26.379 97.908C26.709 100.062,27.266 102.166,27.419 104.32C27.444 104.548,27.419 104.878,27.419 104.878C27.419 104.878,26.455 105.131,25.391 105.055"/></g><g class="vf-timesignature" id="vf-auto16636"><path stroke="none" d="M88.321 87.234C88.663 87.332,88.957 87.038,89.129 86.744C89.594 86.157,89.643 85.447,89.765 84.737C90.157 81.383,90.083 78.005,90.206 74.651L90.206 74.308C91.454 74.064,92.605 73.623,93.78 73.109C95.493 72.301,95.787 71.86,95.763 70C95.763 69.119,95.567 68.727,95.126 68.703C94.906 68.703,94.588 68.8,94.196 69.021L93.951 69.119C92.752 69.657,91.528 70.073,90.255 70.318C90.255 68.776,90.181 67.209,90.108 65.667C90.034 64.37,90.01 63.023,89.887 61.726C89.863 61.432,89.887 60.869,89.447 60.869C89.006 60.869,88.712 61.163,88.663 61.677C88.639 62.313,88.443 62.95,88.492 63.586C88.517 65.912,88.59 68.237,88.59 70.539C88.174 70.563,87.758 70.563,87.366 70.539C85.212 70.392,83.106 70.024,80.903 70.073C80.144 70.073,79.361 70.098,78.578 70.22C79.361 68.727,79.998 67.356,80.805 66.01C82.666 62.95,84.673 59.914,85.995 56.487C86.313 55.679,86.558 54.871,86.558 54.039C86.558 53.794,86.509 53.549,86.485 53.28C86.436 53.084,86.436 52.693,86.166 52.693C85.873 52.668,85.53 52.766,85.359 53.035C85.236 53.256,85.114 53.427,85.04 53.647C84.551 55.239,83.67 56.609,82.837 58.005C81.834 59.743,80.658 61.408,79.63 63.121C78.186 65.569,76.986 68.091,75.224 70.318C74.661 71.028,74.147 71.763,74.147 72.644C74.147 72.962,74.22 73.28,74.343 73.599C74.49 73.917,74.661 74.235,74.661 74.553C74.71 75.067,74.808 75.263,75.102 75.288C75.224 75.288,75.444 75.214,75.689 75.067C77.256 74.406,78.822 74.064,80.487 74.064C82.666 74.064,84.869 74.406,87.048 74.553C87.293 74.578,87.537 74.578,87.782 74.627C88.027 74.627,88.272 74.627,88.517 74.553C88.443 76.561,88.419 78.568,88.272 80.575C88.198 82.118,88.027 83.684,88.027 85.3C88.027 85.692,88.027 86.034,88.076 86.402C88.076 86.72,88.027 87.136,88.321 87.234"/><path stroke="none" d="M88.321 127.234C88.663 127.332,88.957 127.038,89.129 126.744C89.594 126.157,89.643 125.447,89.765 124.737C90.157 121.383,90.083 118.005,90.206 114.651L90.206 114.308C91.454 114.064,92.605 113.623,93.78 113.109C95.493 112.301,95.787 111.86,95.763 110C95.763 109.119,95.567 108.727,95.126 108.703C94.906 108.703,94.588 108.8,94.196 109.021L93.951 109.119C92.752 109.657,91.528 110.073,90.255 110.318C90.255 108.776,90.181 107.209,90.108 105.667C90.034 104.37,90.01 103.023,89.887 101.726C89.863 101.432,89.887 100.869,89.447 100.869C89.006 100.869,88.712 101.163,88.663 101.677C88.639 102.313,88.443 102.95,88.492 103.586C88.517 105.912,88.59 108.237,88.59 110.539C88.174 110.563,87.758 110.563,87.366 110.539C85.212 110.392,83.106 110.024,80.903 110.073C80.144 110.073,79.361 110.098,78.578 110.22C79.361 108.727,79.998 107.356,80.805 106.01C82.666 102.95,84.673 99.914,85.995 96.487C86.313 95.679,86.558 94.871,86.558 94.039C86.558 93.794,86.509 93.549,86.485 93.28C86.436 93.084,86.436 92.693,86.166 92.693C85.873 92.668,85.53 92.766,85.359 93.035C85.236 93.256,85.114 93.427,85.04 93.647C84.551 95.239,83.67 96.609,82.837 98.005C81.834 99.743,80.658 101.408,79.63 103.121C78.186 105.569,76.986 108.091,75.224 110.318C74.661 111.028,74.147 111.763,74.147 112.644C74.147 112.962,74.22 113.28,74.343 113.599C74.49 113.917,74.661 114.235,74.661 114.553C74.71 115.067,74.808 115.263,75.102 115.288C75.224 115.288,75.444 115.214,75.689 115.067C77.256 114.406,78.822 114.064,80.487 114.064C82.666 114.064,84.869 114.406,87.048 114.553C87.293 114.578,87.537 114.578,87.782 114.627C88.027 114.627,88.272 114.627,88.517 114.553C88.443 116.561,88.419 118.568,88.272 120.575C88.198 122.118,88.027 123.684,88.027 125.3C88.027 125.692,88.027 126.034,88.076 126.402C88.076 126.72,88.027 127.136,88.321 127.234"/></g><g class="vf-keysignature" id="vf-auto16640"><path stroke="none" d="M50.022 98.208C50.132 98.208,50.296 98.126,50.487 97.907C51.007 97.497,51.582 97.059,52.156 96.648C55.604 94.186,57.464 90.821,57.464 86.525C57.464 85.978,57.464 85.458,57.382 84.911C57.191 82.996,56.096 81.874,54.427 81.874C54.072 81.874,53.689 81.956,53.251 82.093C52.704 82.23,52.156 82.503,51.582 82.75L51.554 82.777L51.554 81.765C51.554 80.26,51.637 78.782,51.719 77.278C51.719 76.402,51.801 75.581,51.801 74.706C51.801 73.885,51.719 73.009,51.527 72.189C51.445 71.915,51.445 71.395,51.035 71.395L51.007 71.395C50.57 71.45,50.241 71.806,50.241 72.353C50.214 73.447,50.104 74.596,50.132 75.691L50.132 76.922C50.132 79.248,50.022 81.573,49.94 83.899C49.831 87.237,49.256 90.52,49.256 93.858C49.256 95.171,49.338 96.539,49.694 97.852C49.776 98.071,49.858 98.208,50.022 98.208M51.089 92.873C51.171 91.86,51.199 90.793,51.308 89.672C51.39 88.824,51.445 87.948,51.445 87.072L51.582 87.018C52.348 86.689,53.087 86.306,53.907 86.306C54.181 86.306,54.509 86.388,54.81 86.498C55.467 86.717,55.768 87.045,55.741 87.483C55.741 87.702,55.686 87.948,55.522 88.276C54.509 90.274,52.84 91.614,51.089 92.873"/></g><g class="vf-stavenote" id="vf-auto16642"><g class="vf-notehead" id="vf-auto16646" pointer-events="bounding-box"><path stroke-width="1.5" stroke="none" d="M111.781 100L111.781 91L126.781 80L126.781 90L111.781 100Z"/><g class="vf-annotation" id="vf-auto16654"><text stroke="none" font-family="Times" font-size="12pt" x="109.054" y="60">C7</text></g></g></g><g class="vf-stavenote" id="vf-auto16648"><g class="vf-notehead" id="vf-auto16652" pointer-events="bounding-box"><path stroke-width="1.5" stroke="none" d="M135.233 100L135.233 91L150.233 80L150.233 90L135.233 100Z"/></g></g><g class="vf-stavenote" id="vf-auto16655"><g class="vf-notehead" id="vf-auto16658" pointer-events="bounding-box"><path stroke="none" d="M163.291 100.502C164.021 100.474,164.386 100.025,164.639 99.547C165.369 98.199,165.931 96.795,166.436 95.335C168.037 91.011,168.767 86.406,170.199 81.997C170.283 81.744,170.367 81.464,170.367 81.183L170.367 80.986C170.339 80.425,170.199 80.06,169.722 80.06C169.609 80.06,169.525 80.06,169.413 80.088C168.43 80.256,167.531 80.649,166.885 81.267C165.875 82.25,164.751 82.952,163.572 83.682C163.404 83.766,163.263 83.85,163.095 83.85C162.926 83.85,162.758 83.766,162.617 83.598C162.449 83.457,162.365 83.261,162.365 83.092C162.365 82.924,162.393 82.812,162.477 82.643C162.645 82.362,162.814 81.997,162.814 81.632C162.814 80.93,163.01 80.06,162.252 79.695C161.887 79.526,161.55 79.442,161.326 79.442C160.792 79.442,160.455 79.807,160.034 80.565C159.248 81.913,159.023 83.401,158.77 84.918C158.714 85.226,158.686 85.507,158.686 85.788C158.686 87.641,159.669 89.326,161.747 89.326C162.252 89.326,162.842 89.242,163.488 88.989C164.667 88.54,165.65 87.894,166.801 87.164C165.875 91.741,164.106 95.981,163.291 100.502"/></g></g><g class="vf-stavenote" id="vf-auto16659"><g class="vf-stem" id="vf-auto16660" pointer-events="bounding-box"><path stroke-width="1.5" fill="none" d="M182.889 90L182.889 122"/></g><g class="vf-notehead" id="vf-auto16663" pointer-events="bounding-box"><path stroke-width="1.5" stroke="none" d="M182.139 100L182.139 91L197.139 80L197.139 90L182.139 100Z"/></g><path stroke="none" d="M189.58 94.118C189.412 93.978,189.299 93.894,189.187 93.894C189.046 93.894,188.934 94.034,188.878 94.371C188.85 94.905,188.653 95.41,188.597 95.944C188.569 96.309,188.541 96.674,188.541 97.011C188.541 97.656,188.681 98.246,189.327 98.78C190.057 99.369,190.479 100.324,190.872 101.194C190.984 101.447,191.04 101.728,191.04 102.009C191.04 102.542,190.844 103.104,190.787 103.666C190.507 106.754,189.046 109.338,187.109 111.64C186.351 112.567,185.621 113.578,184.834 114.504C182.953 117.004,182.139 119.84,182.139 122.956L182.139 125.231C182.139 125.989,182.307 126.635,183.122 127L183.318 127C183.599 126.326,183.88 125.624,183.88 124.894C183.88 124.445,183.796 124.08,183.796 123.715C183.824 121.861,184.694 120.289,185.817 118.829C186.8 117.621,187.727 116.358,188.681 115.15C190.872 112.398,191.967 109.253,192.444 105.8C192.613 104.761,192.697 103.722,192.697 102.655C192.697 101.082,192.5 99.51,191.995 97.937C191.574 96.477,190.591 95.27,189.58 94.118"/></g><g class="vf-stavenote" id="vf-auto16665"><g class="vf-notehead" id="vf-auto16668" pointer-events="bounding-box"><path stroke="none" d="M210.197 100.502C210.927 100.474,211.292 100.025,211.544 99.547C212.275 98.199,212.836 96.795,213.342 95.335C214.942 91.011,215.672 86.406,217.104 81.997C217.189 81.744,217.273 81.464,217.273 81.183L217.273 80.986C217.245 80.425,217.104 80.06,216.627 80.06C216.515 80.06,216.43 80.06,216.318 80.088C215.335 80.256,214.437 80.649,213.791 81.267C212.78 82.25,211.657 82.952,210.477 83.682C210.309 83.766,210.169 83.85,210 83.85C209.832 83.85,209.663 83.766,209.523 83.598C209.354 83.457,209.27 83.261,209.27 83.092C209.27 82.924,209.298 82.812,209.382 82.643C209.551 82.362,209.719 81.997,209.719 81.632C209.719 80.93,209.916 80.06,209.158 79.695C208.793 79.526,208.456 79.442,208.231 79.442C207.698 79.442,207.361 79.807,206.939 80.565C206.153 81.913,205.928 83.401,205.676 84.918C205.62 85.226,205.592 85.507,205.592 85.788C205.592 87.641,206.574 89.326,208.652 89.326C209.158 89.326,209.747 89.242,210.393 88.989C211.573 88.54,212.555 87.894,213.707 87.164C212.78 91.741,211.011 95.981,210.197 100.502"/></g></g><g class="vf-stavenote" id="vf-auto16669"><g class="vf-stem" id="vf-auto16670" pointer-events="bounding-box"><path stroke-width="1.5" fill="none" d="M229.794 90L229.794 122"/></g><g class="vf-notehead" id="vf-auto16673" pointer-events="bounding-box"><path stroke-width="1.5" stroke="none" d="M229.044 100L229.044 91L244.044 80L244.044 90L229.044 100Z"/></g><path stroke="none" d="M236.485 94.118C236.317 93.978,236.205 93.894,236.092 93.894C235.952 93.894,235.84 94.034,235.783 94.371C235.755 94.905,235.559 95.41,235.503 95.944C235.475 96.309,235.446 96.674,235.446 97.011C235.446 97.656,235.587 98.246,236.233 98.78C236.963 99.369,237.384 100.324,237.777 101.194C237.889 101.447,237.946 101.728,237.946 102.009C237.946 102.542,237.749 103.104,237.693 103.666C237.412 106.754,235.952 109.338,234.014 111.64C233.256 112.567,232.526 113.578,231.74 114.504C229.859 117.004,229.044 119.84,229.044 122.956L229.044 125.231C229.044 125.989,229.213 126.635,230.027 127L230.224 127C230.504 126.326,230.785 125.624,230.785 124.894C230.785 124.445,230.701 124.08,230.701 123.715C230.729 121.861,231.6 120.289,232.723 118.829C233.706 117.621,234.632 116.358,235.587 115.15C237.777 112.398,238.872 109.253,239.35 105.8C239.518 104.761,239.602 103.722,239.602 102.655C239.602 101.082,239.406 99.51,238.9 97.937C238.479 96.477,237.496 95.27,236.485 94.118"/></g><g class="vf-stavenote" id="vf-auto16675"><g class="vf-notehead" id="vf-auto16678" pointer-events="bounding-box"><path stroke="none" d="M257.102 100.502C257.832 100.474,258.197 100.025,258.45 99.547C259.18 98.199,259.742 96.795,260.247 95.335C261.848 91.011,262.578 86.406,264.01 81.997C264.094 81.744,264.178 81.464,264.178 81.183L264.178 80.986C264.15 80.425,264.01 80.06,263.532 80.06C263.42 80.06,263.336 80.06,263.224 80.088C262.241 80.256,261.342 80.649,260.696 81.267C259.685 82.25,258.562 82.952,257.383 83.682C257.214 83.766,257.074 83.85,256.906 83.85C256.737 83.85,256.569 83.766,256.428 83.598C256.26 83.457,256.175 83.261,256.175 83.092C256.175 82.924,256.204 82.812,256.288 82.643C256.456 82.362,256.625 81.997,256.625 81.632C256.625 80.93,256.821 80.06,256.063 79.695C255.698 79.526,255.361 79.442,255.136 79.442C254.603 79.442,254.266 79.807,253.845 80.565C253.059 81.913,252.834 83.401,252.581 84.918C252.525 85.226,252.497 85.507,252.497 85.788C252.497 87.641,253.48 89.326,255.558 89.326C256.063 89.326,256.653 89.242,257.299 88.989C258.478 88.54,259.461 87.894,260.612 87.164C259.685 91.741,257.916 95.981,257.102 100.502"/></g></g><g class="vf-stavenote" id="vf-auto16679"><g class="vf-stem" id="vf-auto16680" pointer-events="bounding-box"><path stroke-width="1.5" fill="none" d="M276.7 90L276.7 122"/></g><g class="vf-notehead" id="vf-auto16683" pointer-events="bounding-box"><path stroke-width="1.5" stroke="none" d="M275.95 100L275.95 91L290.95 80L290.95 90L275.95 100Z"/></g><path stroke="none" d="M283.391 94.118C283.222 93.978,283.11 93.894,282.998 93.894C282.857 93.894,282.745 94.034,282.689 94.371C282.661 94.905,282.464 95.41,282.408 95.944C282.38 96.309,282.352 96.674,282.352 97.011C282.352 97.656,282.492 98.246,283.138 98.78C283.868 99.369,284.289 100.324,284.683 101.194C284.795 101.447,284.851 101.728,284.851 102.009C284.851 102.542,284.654 103.104,284.598 103.666C284.318 106.754,282.857 109.338,280.92 111.64C280.162 112.567,279.432 113.578,278.645 114.504C276.764 117.004,275.95 119.84,275.95 122.956L275.95 125.231C275.95 125.989,276.118 126.635,276.932 127L277.129 127C277.41 126.326,277.691 125.624,277.691 124.894C277.691 124.445,277.606 124.08,277.606 123.715C277.634 121.861,278.505 120.289,279.628 118.829C280.611 117.621,281.538 116.358,282.492 115.15C284.683 112.398,285.778 109.253,286.255 105.8C286.424 104.761,286.508 103.722,286.508 102.655C286.508 101.082,286.311 99.51,285.806 97.937C285.385 96.477,284.402 95.27,283.391 94.118"/></g><g class="vf-stem" id="vf-auto16643" pointer-events="bounding-box"><path stroke-width="1.5" fill="none" d="M112.531 90L112.531 124.25"/></g><g class="vf-stem" id="vf-auto16649" pointer-events="bounding-box"><path stroke-width="1.5" fill="none" d="M135.983 90L135.983 124.25"/></g><g class="vf-beam" id="vf-auto16685"><path stroke="none" d="M111.781 125L111.781 120L136.233 120L136.233 125Z"/></g><g class="vf-stave" id="vf-auto16687" stroke-width="1" fill="#999999" stroke="#999999"><path fill="none" d="M310 70L530 70"/><path fill="none" d="M310 80L530 80"/><path fill="none" d="M310 90L530 90"/><path fill="none" d="M310 100L530 100"/><path fill="none" d="M310 110L530 110"/></g><g class="vf-stavebarline" id="vf-auto16688"><rect x="310" y="69.5" width="1" height="41" stroke="none"/></g><g class="vf-stavebarline" id="vf-auto16689"><rect x="530" y="69.5" width="1" height="41" stroke="none"/></g><g class="vf-stavenote" id="vf-auto16690"><g class="vf-notehead" id="vf-auto16693" pointer-events="bounding-box"><path stroke-width="1.5" fill="none" d="M327.75 100L327.75 91L342.75 80L342.75 90L327.75 100Z"/><g class="vf-annotation" id="vf-auto16694"><text stroke="none" font-family="Times" font-size="12pt" x="329.613" y="60">F</text></g></g></g></svg>