<svg xmlns="http://www.w3.org/2000/svg" stroke-width="0.3" stroke-dasharray="none" fill="black" stroke="black" font-family="Arial, sans-serif" font-size="10pt" font-weight="normal" font-style="normal" width="700" height="130" viewBox="0 0 700 130" style="width: 700px; height: 130px; border: none;"><g class="vf-stave" id="vf-auto17124" stroke-width="1" fill="#999999" stroke="#999999"><path fill="none" d="M10 50L660 50"/><path fill="none" d="M10 60L660 60"/><path fill="none" d="M10 70L660 70"/><path fill="none" d="M10 80L660 80"/><path fill="none" d="M10 90L660 90"/></g><g class="vf-stavebarline" id="vf-auto17125"><rect x="10" y="49.5" width="1" height="41" stroke="none"/></g><g class="vf-stavebarline" id="vf-auto17126"><rect x="660" y="49.5" width="1" height="41" stroke="none"/></g><g class="vf-stavenote" id="vf-auto17128"><path stroke-width="1.4" fill="none" stroke="#444" d="M159.153 100L178.661 100"/><g class="vf-notehead" id="vf-auto17132" pointer-events="bounding-box"><path stroke="none" d="M165.298 106.543C165.579 106.599,165.832 106.627,166.113 106.627C169.988 106.627,175.772 101.348,175.66 97.08C175.548 96.041,175.576 94.609,173.47 93.766C172.88 93.485,172.234 93.373,171.532 93.373C167.208 93.373,162.518 98.343,162.181 101.657C162.181 101.909,162.153 102.134,162.153 102.387C162.153 104.409,163.052 106.037,165.298 106.543"/><g class="vf-stavenote" id="vf-auto17193"><path stroke-width="1.4" fill="none" stroke="#444" d="M27 100L44.508 100"/><g class="vf-notehead" id="vf-auto17199" pointer-events="bounding-box"><path stroke="none" d="M31.076 104.318C31.261 104.355,31.428 104.374,31.613 104.374C34.171 104.374,37.988 100.89,37.914 98.073C37.84 97.387,37.859 96.442,36.469 95.886C36.08 95.7,35.653 95.626,35.19 95.626C32.336 95.626,29.241 98.907,29.019 101.093C29.019 101.26,29 101.408,29 101.575C29 102.91,29.593 103.985,31.076 104.318"/></g></g><g class="vf-stavenote" id="vf-auto17200"><path stroke-width="1.4" fill="none" stroke="#444" d="M39.915 100L57.423 100"/><g class="vf-notehead" id="vf-auto17206" pointer-events="bounding-box"><path stroke="none" d="M43.991 104.318C44.176 104.355,44.343 104.374,44.528 104.374C47.086 104.374,50.904 100.89,50.83 98.073C50.755 97.387,50.774 96.442,49.384 95.886C48.995 95.7,48.569 95.626,48.105 95.626C45.251 95.626,42.156 98.907,41.934 101.093C41.934 101.26,41.915 101.408,41.915 101.575C41.915 102.91,42.508 103.985,43.991 104.318"/></g></g><g class="vf-stavenote" id="vf-auto17207"><path stroke-width="1.4" fill="none" stroke="#444" d="M52.831 100L70.339 100"/><g class="vf-notehead" id="vf-auto17213" pointer-events="bounding-box"><path stroke="none" d="M56.906 104.318C57.092 104.355,57.258 104.374,57.444 104.374C60.001 104.374,63.819 100.89,63.745 98.073C63.671 97.387,63.689 96.442,62.299 95.886C61.91 95.7,61.484 95.626,61.021 95.626C58.167 95.626,55.072 98.907,54.849 101.093C54.849 101.26,54.831 101.408,54.831 101.575C54.831 102.91,55.424 103.985,56.906 104.318"/></g></g><g class="vf-stavenote" id="vf-auto17214"><path stroke-width="1.4" fill="none" stroke="#444" d="M65.746 100L83.254 100"/><g class="vf-notehead" id="vf-auto17220" pointer-events="bounding-box"><path stroke="none" d="M69.822 104.318C70.007 104.355,70.174 104.374,70.359 104.374C72.917 104.374,76.734 100.89,76.66 98.073C76.586 97.387,76.605 96.442,75.215 95.886C74.826 95.7,74.399 95.626,73.936 95.626C71.082 95.626,67.987 98.907,67.765 101.093C67.765 101.26,67.746 101.408,67.746 101.575C67.746 102.91,68.339 103.985,69.822 104.318"/></g></g><g class="vf-stavenote" id="vf-auto17221"><path stroke-width="1.4" fill="none" stroke="#444" d="M78.661 100L96.169 100"/><g class="vf-notehead" id="vf-auto17227" pointer-events="bounding-box"><path stroke="none" d="M82.737 104.318C82.922 104.355,83.089 104.374,83.274 104.374C85.832 104.374,89.65 100.89,89.576 98.073C89.502 97.387,89.52 96.442,88.13 95.886C87.741 95.7,87.315 95.626,86.851 95.626C83.997 95.626,80.902 98.907,80.68 101.093C80.68 101.26,80.661 101.408,80.661 101.575C80.661 102.91,81.254 103.985,82.737 104.318"/></g></g><g class="vf-stavenote" id="vf-auto17228"><path stroke-width="1.4" fill="none" stroke="#444" d="M91.577 100L109.085 100"/><g class="vf-notehead" id="vf-auto17234" pointer-events="bounding-box"><path stroke="none" d="M95.652 104.318C95.838 104.355,96.004 104.374,96.19 104.374C98.747 104.374,102.565 100.89,102.491 98.073C102.417 97.387,102.435 96.442,101.045 95.886C100.656 95.7,100.23 95.626,99.767 95.626C96.913 95.626,93.818 98.907,93.595 101.093C93.595 101.26,93.577 101.408,93.577 101.575C93.577 102.91,94.17 103.985,95.652 104.318"/></g></g><g class="vf-stavenote" id="vf-auto17235"><path stroke-width="1.4" fill="none" stroke="#444" d="M104.492 100L122 100"/><g class="vf-notehead" id="vf-auto17241" pointer-events="bounding-box"><path stroke="none" d="M108.568 104.318C108.753 104.355,108.92 104.374,109.105 104.374C111.663 104.374,115.48 100.89,115.406 98.073C115.332 97.387,115.351 96.442,113.961 95.886C113.572 95.7,113.145 95.626,112.682 95.626C109.828 95.626,106.733 98.907,106.511 101.093C106.511 101.26,106.492 101.408,106.492 101.575C106.492 102.91,107.085 103.985,108.568 104.318"/></g></g><g class="vf-stavenote" id="vf-auto17242"><path stroke-width="1.4" fill="none" stroke="#444" d="M117.407 100L134.915 100"/><g class="vf-notehead" id="vf-auto17248" pointer-events="bounding-box"><path stroke="none" d="M121.483 104.318C121.668 104.355,121.835 104.374,122.021 104.374C124.578 104.374,128.396 100.89,128.322 98.073C128.248 97.387,128.266 96.442,126.876 95.886C126.487 95.7,126.061 95.626,125.597 95.626C122.743 95.626,119.648 98.907,119.426 101.093C119.426 101.26,119.407 101.408,119.407 101.575C119.407 102.91,120 103.985,121.483 104.318"/></g></g><g class="vf-stavenote" id="vf-auto17249"><path stroke-width="1.4" fill="none" stroke="#444" d="M130.323 100L147.831 100"/><g class="vf-notehead" id="vf-auto17255" pointer-events="bounding-box"><path stroke="none" d="M134.398 104.318C134.584 104.355,134.751 104.374,134.936 104.374C137.493 104.374,141.311 100.89,141.237 98.073C141.163 97.387,141.181 96.442,139.791 95.886C139.402 95.7,138.976 95.626,138.513 95.626C135.659 95.626,132.564 98.907,132.341 101.093C132.341 101.26,132.323 101.408,132.323 101.575C132.323 102.91,132.916 103.985,134.398 104.318"/></g></g><g class="vf-stavenote" id="vf-auto17256"><path stroke-width="1.4" fill="none" stroke="#444" d="M143.238 100L160.746 100"/><g class="vf-notehead" id="vf-auto17262" pointer-events="bounding-box"><path stroke="none" d="M147.314 104.318C147.499 104.355,147.666 104.374,147.851 104.374C150.409 104.374,154.226 100.89,154.152 98.073C154.078 97.387,154.097 96.442,152.707 95.886C152.318 95.7,151.891 95.626,151.428 95.626C148.574 95.626,145.479 98.907,145.257 101.093C145.257 101.26,145.238 101.408,145.238 101.575C145.238 102.91,145.831 103.985,147.314 104.318"/></g></g><g class="vf-stem" id="vf-auto17194" pointer-events="bounding-box"><path stroke-width="1.5" fill="none" d="M37.165 98L37.165 77.65"/></g><g class="vf-stem" id="vf-auto17201" pointer-events="bounding-box"><path stroke-width="1.5" fill="none" d="M50.081 98L50.081 77.65"/></g><g class="vf-beam" id="vf-auto17265"><path stroke="none" d="M36.415 76.9L36.415 79.9L50.331 79.9L50.331 76.9Z"/></g><g class="vf-stem" id="vf-auto17208" pointer-events="bounding-box"><path stroke-width="1.5" fill="none" d="M62.996 98L62.996 77.65"/></g><g class="vf-stem" id="vf-auto17215" pointer-events="bounding-box"><path stroke-width="1.5" fill="none" d="M75.911 98L75.911 77.65"/></g><g class="vf-beam" id="vf-auto17266"><path stroke="none" d="M62.246 76.9L62.246 79.9L76.161 79.9L76.161 76.9Z"/><path stroke="none" d="M62.246 81.4L62.246 84.4L76.161 84.4L76.161 81.4Z"/></g><g class="vf-stem" id="vf-auto17222" pointer-events="bounding-box"><path stroke-width="1.5" fill="none" d="M88.827 98L88.827 72.7"/></g><g class="vf-stem" id="vf-auto17229" pointer-events="bounding-box"><path stroke-width="1.5" fill="none" d="M101.742 98L101.742 72.7"/></g><g class="vf-beam" id="vf-auto17267"><path stroke="none" d="M88.077 71.95L88.077 74.95L101.992 74.95L101.992 71.95Z"/><path stroke="none" d="M88.077 76.45L88.077 79.45L101.992 79.45L101.992 76.45Z"/><path stroke="none" d="M88.077 80.95L88.077 83.95L101.992 83.95L101.992 80.95Z"/></g><g class="vf-stem" id="vf-auto17236" pointer-events="bounding-box"><path stroke-width="1.5" fill="none" d="M114.657 98L114.657 67.75"/></g><g class="vf-stem" id="vf-auto17243" pointer-events="bounding-box"><path stroke-width="1.5" fill="none" d="M127.573 98L127.573 67.75"/></g><g class="vf-beam" id="vf-auto17268"><path stroke="none" d="M113.907 67L113.907 70L127.823 70L127.823 67Z"/><path stroke="none" d="M113.907 71.5L113.907 74.5L127.823 74.5L127.823 71.5Z"/><path stroke="none" d="M113.907 76L113.907 79L127.823 79L127.823 76Z"/><path stroke="none" d="M113.907 80.5L113.907 83.5L127.823 83.5L127.823 80.5Z"/></g><g class="vf-stem" id="vf-auto17250" pointer-events="bounding-box"><path stroke-width="1.5" fill="none" d="M140.488 98L140.488 62.8"/></g><g class="vf-stem" id="vf-auto17257" pointer-events="bounding-box"><path stroke-width="1.5" fill="none" d="M153.403 98L153.403 62.8"/></g><g class="vf-beam" id="vf-auto17269"><path stroke="none" d="M139.738 62.05L139.738 65.05L153.653 65.05L153.653 62.05Z"/><path stroke="none" d="M139.738 66.55L139.738 69.55L153.653 69.55L153.653 66.55Z"/><path stroke="none" d="M139.738 71.05L139.738 74.05L153.653 74.05L153.653 71.05Z"/><path stroke="none" d="M139.738 75.55L139.738 78.55L153.653 78.55L153.653 75.55Z"/><path stroke="none" d="M139.738 80.05L139.738 83.05L153.653 83.05L153.653 80.05Z"/></g></g></g><g class="vf-stavenote" id="vf-auto17134"><path stroke-width="1.4" fill="none" stroke="#444" d="M179.161 100L198.669 100"/><g class="vf-notehead" id="vf-auto17138" pointer-events="bounding-box"><path stroke="none" d="M185.306 106.543C185.586 106.599,185.839 106.627,186.12 106.627C189.995 106.627,195.779 101.348,195.667 97.08C195.555 96.041,195.583 94.609,193.477 93.766C192.887 93.485,192.241 93.373,191.539 93.373C187.215 93.373,182.526 98.343,182.189 101.657C182.189 101.909,182.161 102.134,182.161 102.387C182.161 104.409,183.059 106.037,185.306 106.543"/></g></g><g class="vf-stavenote" id="vf-auto17141"><path stroke-width="1.4" fill="none" stroke="#444" d="M199.168 100L218.676 100"/><g class="vf-notehead" id="vf-auto17145" pointer-events="bounding-box"><path stroke="none" d="M205.313 106.543C205.594 106.599,205.846 106.627,206.127 106.627C210.002 106.627,215.787 101.348,215.674 97.08C215.562 96.041,215.59 94.609,213.484 93.766C212.894 93.485,212.249 93.373,211.547 93.373C207.222 93.373,202.533 98.343,202.196 101.657C202.196 101.909,202.168 102.134,202.168 102.387C202.168 104.409,203.066 106.037,205.313 106.543"/></g></g><g class="vf-stavenote" id="vf-auto17147"><path stroke-width="1.4" fill="none" stroke="#444" d="M216.413 100L235.921 100"/><g class="vf-notehead" id="vf-auto17151" pointer-events="bounding-box"><path stroke="none" d="M222.558 106.543C222.839 106.599,223.092 106.627,223.372 106.627C227.247 106.627,233.032 101.348,232.92 97.08C232.807 96.041,232.835 94.609,230.729 93.766C230.14 93.485,229.494 93.373,228.792 93.373C224.468 93.373,219.778 98.343,219.441 101.657C219.441 101.909,219.413 102.134,219.413 102.387C219.413 104.409,220.312 106.037,222.558 106.543"/></g></g><g class="vf-stavenote" id="vf-auto17154"><path stroke-width="1.4" fill="none" stroke="#444" d="M233.658 100L253.167 100"/><g class="vf-notehead" id="vf-auto17158" pointer-events="bounding-box"><path stroke="none" d="M239.803 106.543C240.084 106.599,240.337 106.627,240.618 106.627C244.493 106.627,250.277 101.348,250.165 97.08C250.053 96.041,250.081 94.609,247.975 93.766C247.385 93.485,246.739 93.373,246.037 93.373C241.713 93.373,237.023 98.343,236.686 101.657C236.686 101.909,236.658 102.134,236.658 102.387C236.658 104.409,237.557 106.037,239.803 106.543"/></g></g><g class="vf-stavenote" id="vf-auto17160"><path stroke-width="1.4" fill="none" stroke="#444" d="M250.425 100L269.933 100"/><g class="vf-notehead" id="vf-auto17164" pointer-events="bounding-box"><path stroke="none" d="M256.57 106.543C256.851 106.599,257.104 106.627,257.384 106.627C261.259 106.627,267.044 101.348,266.932 97.08C266.819 96.041,266.847 94.609,264.741 93.766C264.152 93.485,263.506 93.373,262.804 93.373C258.48 93.373,253.79 98.343,253.453 101.657C253.453 101.909,253.425 102.134,253.425 102.387C253.425 104.409,254.324 106.037,256.57 106.543"/></g></g><g class="vf-stavenote" id="vf-auto17167"><path stroke-width="1.4" fill="none" stroke="#444" d="M267.192 100L286.7 100"/><g class="vf-notehead" id="vf-auto17171" pointer-events="bounding-box"><path stroke="none" d="M273.337 106.543C273.618 106.599,273.87 106.627,274.151 106.627C278.026 106.627,283.811 101.348,283.698 97.08C283.586 96.041,283.614 94.609,281.508 93.766C280.918 93.485,280.273 93.373,279.571 93.373C275.246 93.373,270.557 98.343,270.22 101.657C270.22 101.909,270.192 102.134,270.192 102.387C270.192 104.409,271.09 106.037,273.337 106.543"/></g></g><g class="vf-stavenote" id="vf-auto17173"><path stroke-width="1.4" fill="none" stroke="#444" d="M283.959 100L303.467 100"/><g class="vf-notehead" id="vf-auto17177" pointer-events="bounding-box"><path stroke="none" d="M290.104 106.543C290.384 106.599,290.637 106.627,290.918 106.627C294.793 106.627,300.577 101.348,300.465 97.08C300.353 96.041,300.381 94.609,298.275 93.766C297.685 93.485,297.039 93.373,296.337 93.373C292.013 93.373,287.324 98.343,286.987 101.657C286.987 101.909,286.959 102.134,286.959 102.387C286.959 104.409,287.857 106.037,290.104 106.543"/></g></g><g class="vf-stavenote" id="vf-auto17180"><path stroke-width="1.4" fill="none" stroke="#444" d="M300.725 100L320.233 100"/><g class="vf-notehead" id="vf-auto17184" pointer-events="bounding-box"><path stroke="none" d="M306.87 106.543C307.151 106.599,307.404 106.627,307.685 106.627C311.56 106.627,317.344 101.348,317.232 97.08C317.119 96.041,317.148 94.609,315.042 93.766C314.452 93.485,313.806 93.373,313.104 93.373C308.78 93.373,304.09 98.343,303.753 101.657C303.753 101.909,303.725 102.134,303.725 102.387C303.725 104.409,304.624 106.037,306.87 106.543"/></g></g><g class="vf-stavenote" id="vf-auto17186"><path stroke-width="1.4" fill="none" stroke="#444" d="M317.492 100L337 100"/><g class="vf-notehead" id="vf-auto17190" pointer-events="bounding-box"><path stroke="none" d="M323.637 106.543C323.918 106.599,324.17 106.627,324.451 106.627C328.326 106.627,334.111 101.348,333.998 97.08C333.886 96.041,333.914 94.609,331.808 93.766C331.219 93.485,330.573 93.373,329.871 93.373C325.546 93.373,320.857 98.343,320.52 101.657C320.52 101.909,320.492 102.134,320.492 102.387C320.492 104.409,321.391 106.037,323.637 106.543"/></g></g><g class="vf-stavenote" id="vf-auto17270"><path stroke-width="1.4" fill="none" stroke="#444" d="M468.154 40L487.662 40"/><path stroke-width="1.4" fill="none" stroke="#444" d="M468.154 30L487.662 30"/><g class="vf-notehead" id="vf-auto17274" pointer-events="bounding-box"><path stroke="none" d="M474.298 36.543C474.579 36.599,474.832 36.627,475.113 36.627C478.988 36.627,484.772 31.348,484.66 27.08C484.548 26.041,484.576 24.609,482.47 23.766C481.88 23.485,481.234 23.373,480.532 23.373C476.208 23.373,471.519 28.343,471.182 31.657C471.182 31.909,471.154 32.134,471.154 32.387C471.154 34.409,472.052 36.037,474.298 36.543"/><g class="vf-stavenote" id="vf-auto17335"><path stroke-width="1.4" fill="none" stroke="#444" d="M336 40L353.508 40"/><path stroke-width="1.4" fill="none" stroke="#444" d="M336 30L353.508 30"/><g class="vf-notehead" id="vf-auto17341" pointer-events="bounding-box"><path stroke="none" d="M340.076 34.318C340.261 34.355,340.428 34.374,340.613 34.374C343.171 34.374,346.989 30.89,346.914 28.073C346.84 27.387,346.859 26.442,345.469 25.886C345.08 25.7,344.653 25.626,344.19 25.626C341.336 25.626,338.241 28.907,338.019 31.093C338.019 31.26,338 31.408,338 31.575C338 32.91,338.593 33.985,340.076 34.318"/></g></g><g class="vf-stavenote" id="vf-auto17342"><path stroke-width="1.4" fill="none" stroke="#444" d="M348.915 40L366.424 40"/><path stroke-width="1.4" fill="none" stroke="#444" d="M348.915 30L366.424 30"/><g class="vf-notehead" id="vf-auto17348" pointer-events="bounding-box"><path stroke="none" d="M352.991 34.318C353.176 34.355,353.343 34.374,353.529 34.374C356.086 34.374,359.904 30.89,359.83 28.073C359.756 27.387,359.774 26.442,358.384 25.886C357.995 25.7,357.569 25.626,357.105 25.626C354.251 25.626,351.156 28.907,350.934 31.093C350.934 31.26,350.915 31.408,350.915 31.575C350.915 32.91,351.508 33.985,352.991 34.318"/></g></g><g class="vf-stavenote" id="vf-auto17349"><path stroke-width="1.4" fill="none" stroke="#444" d="M361.831 40L379.339 40"/><path stroke-width="1.4" fill="none" stroke="#444" d="M361.831 30L379.339 30"/><g class="vf-notehead" id="vf-auto17355" pointer-events="bounding-box"><path stroke="none" d="M365.906 34.318C366.092 34.355,366.259 34.374,366.444 34.374C369.001 34.374,372.819 30.89,372.745 28.073C372.671 27.387,372.689 26.442,371.3 25.886C370.91 25.7,370.484 25.626,370.021 25.626C367.167 25.626,364.072 28.907,363.849 31.093C363.849 31.26,363.831 31.408,363.831 31.575C363.831 32.91,364.424 33.985,365.906 34.318"/></g></g><g class="vf-stavenote" id="vf-auto17356"><path stroke-width="1.4" fill="none" stroke="#444" d="M374.746 40L392.254 40"/><path stroke-width="1.4" fill="none" stroke="#444" d="M374.746 30L392.254 30"/><g class="vf-notehead" id="vf-auto17362" pointer-events="bounding-box"><path stroke="none" d="M378.822 34.318C379.007 34.355,379.174 34.374,379.359 34.374C381.917 34.374,385.735 30.89,385.66 28.073C385.586 27.387,385.605 26.442,384.215 25.886C383.826 25.7,383.399 25.626,382.936 25.626C380.082 25.626,376.987 28.907,376.765 31.093C376.765 31.26,376.746 31.408,376.746 31.575C376.746 32.91,377.339 33.985,378.822 34.318"/></g></g><g class="vf-stavenote" id="vf-auto17363"><path stroke-width="1.4" fill="none" stroke="#444" d="M387.661 40L405.17 40"/><path stroke-width="1.4" fill="none" stroke="#444" d="M387.661 30L405.17 30"/><g class="vf-notehead" id="vf-auto17369" pointer-events="bounding-box"><path stroke="none" d="M391.737 34.318C391.922 34.355,392.089 34.374,392.275 34.374C394.832 34.374,398.65 30.89,398.576 28.073C398.502 27.387,398.52 26.442,397.13 25.886C396.741 25.7,396.315 25.626,395.851 25.626C392.997 25.626,389.902 28.907,389.68 31.093C389.68 31.26,389.661 31.408,389.661 31.575C389.661 32.91,390.255 33.985,391.737 34.318"/></g></g><g class="vf-stavenote" id="vf-auto17370"><path stroke-width="1.4" fill="none" stroke="#444" d="M400.577 40L418.085 40"/><path stroke-width="1.4" fill="none" stroke="#444" d="M400.577 30L418.085 30"/><g class="vf-notehead" id="vf-auto17376" pointer-events="bounding-box"><path stroke="none" d="M404.652 34.318C404.838 34.355,405.005 34.374,405.19 34.374C407.747 34.374,411.565 30.89,411.491 28.073C411.417 27.387,411.435 26.442,410.046 25.886C409.656 25.7,409.23 25.626,408.767 25.626C405.913 25.626,402.818 28.907,402.595 31.093C402.595 31.26,402.577 31.408,402.577 31.575C402.577 32.91,403.17 33.985,404.652 34.318"/></g></g><g class="vf-stavenote" id="vf-auto17377"><path stroke-width="1.4" fill="none" stroke="#444" d="M413.492 40L431 40"/><path stroke-width="1.4" fill="none" stroke="#444" d="M413.492 30L431 30"/><g class="vf-notehead" id="vf-auto17383" pointer-events="bounding-box"><path stroke="none" d="M417.568 34.318C417.753 34.355,417.92 34.374,418.105 34.374C420.663 34.374,424.481 30.89,424.406 28.073C424.332 27.387,424.351 26.442,422.961 25.886C422.572 25.7,422.145 25.626,421.682 25.626C418.828 25.626,415.733 28.907,415.511 31.093C415.511 31.26,415.492 31.408,415.492 31.575C415.492 32.91,416.085 33.985,417.568 34.318"/></g></g><g class="vf-stavenote" id="vf-auto17384"><path stroke-width="1.4" fill="none" stroke="#444" d="M426.407 40L443.916 40"/><path stroke-width="1.4" fill="none" stroke="#444" d="M426.407 30L443.916 30"/><g class="vf-notehead" id="vf-auto17390" pointer-events="bounding-box"><path stroke="none" d="M430.483 34.318C430.668 34.355,430.835 34.374,431.021 34.374C433.578 34.374,437.396 30.89,437.322 28.073C437.248 27.387,437.266 26.442,435.876 25.886C435.487 25.7,435.061 25.626,434.597 25.626C431.743 25.626,428.648 28.907,428.426 31.093C428.426 31.26,428.407 31.408,428.407 31.575C428.407 32.91,429.001 33.985,430.483 34.318"/></g></g><g class="vf-stavenote" id="vf-auto17391"><path stroke-width="1.4" fill="none" stroke="#444" d="M439.323 40L456.831 40"/><path stroke-width="1.4" fill="none" stroke="#444" d="M439.323 30L456.831 30"/><g class="vf-notehead" id="vf-auto17397" pointer-events="bounding-box"><path stroke="none" d="M443.399 34.318C443.584 34.355,443.751 34.374,443.936 34.374C446.493 34.374,450.311 30.89,450.237 28.073C450.163 27.387,450.182 26.442,448.792 25.886C448.402 25.7,447.976 25.626,447.513 25.626C444.659 25.626,441.564 28.907,441.341 31.093C441.341 31.26,441.323 31.408,441.323 31.575C441.323 32.91,441.916 33.985,443.399 34.318"/></g></g><g class="vf-stavenote" id="vf-auto17398"><path stroke-width="1.4" fill="none" stroke="#444" d="M452.238 40L469.746 40"/><path stroke-width="1.4" fill="none" stroke="#444" d="M452.238 30L469.746 30"/><g class="vf-notehead" id="vf-auto17404" pointer-events="bounding-box"><path stroke="none" d="M456.314 34.318C456.499 34.355,456.666 34.374,456.851 34.374C459.409 34.374,463.227 30.89,463.152 28.073C463.078 27.387,463.097 26.442,461.707 25.886C461.318 25.7,460.891 25.626,460.428 25.626C457.574 25.626,454.479 28.907,454.257 31.093C454.257 31.26,454.238 31.408,454.238 31.575C454.238 32.91,454.831 33.985,456.314 34.318"/></g></g><g class="vf-stem" id="vf-auto17336" pointer-events="bounding-box"><path stroke-width="1.5" fill="none" d="M338.75 32L338.75 55.65"/></g><g class="vf-stem" id="vf-auto17343" pointer-events="bounding-box"><path stroke-width="1.5" fill="none" d="M351.665 32L351.665 55.65"/></g><g class="vf-beam" id="vf-auto17407"><path stroke="none" d="M338 56.4L338 53.4L351.915 53.4L351.915 56.4Z"/></g><g class="vf-stem" id="vf-auto17350" pointer-events="bounding-box"><path stroke-width="1.5" fill="none" d="M364.581 32L364.581 55.65"/></g><g class="vf-stem" id="vf-auto17357" pointer-events="bounding-box"><path stroke-width="1.5" fill="none" d="M377.496 32L377.496 55.65"/></g><g class="vf-beam" id="vf-auto17408"><path stroke="none" d="M363.831 56.4L363.831 53.4L377.746 53.4L377.746 56.4Z"/><path stroke="none" d="M363.831 51.9L363.831 48.9L377.746 48.9L377.746 51.9Z"/></g><g class="vf-stem" id="vf-auto17364" pointer-events="bounding-box"><path stroke-width="1.5" fill="none" d="M390.411 32L390.411 60.6"/></g><g class="vf-stem" id="vf-auto17371" pointer-events="bounding-box"><path stroke-width="1.5" fill="none" d="M403.327 32L403.327 60.6"/></g><g class="vf-beam" id="vf-auto17409"><path stroke="none" d="M389.661 61.35L389.661 58.35L403.577 58.35L403.577 61.35Z"/><path stroke="none" d="M389.661 56.85L389.661 53.85L403.577 53.85L403.577 56.85Z"/><path stroke="none" d="M389.661 52.35L389.661 49.35L403.577 49.35L403.577 52.35Z"/></g><g class="vf-stem" id="vf-auto17378" pointer-events="bounding-box"><path stroke-width="1.5" fill="none" d="M416.242 32L416.242 65.55"/></g><g class="vf-stem" id="vf-auto17385" pointer-events="bounding-box"><path stroke-width="1.5" fill="none" d="M429.157 32L429.157 65.55"/></g><g class="vf-beam" id="vf-auto17410"><path stroke="none" d="M415.492 66.3L415.492 63.3L429.407 63.3L429.407 66.3Z"/><path stroke="none" d="M415.492 61.8L415.492 58.8L429.407 58.8L429.407 61.8Z"/><path stroke="none" d="M415.492 57.3L415.492 54.3L429.407 54.3L429.407 57.3Z"/><path stroke="none" d="M415.492 52.8L415.492 49.8L429.407 49.8L429.407 52.8Z"/></g><g class="vf-stem" id="vf-auto17392" pointer-events="bounding-box"><path stroke-width="1.5" fill="none" d="M442.073 32L442.073 70.5"/></g><g class="vf-stem" id="vf-auto17399" pointer-events="bounding-box"><path stroke-width="1.5" fill="none" d="M454.988 32L454.988 70.5"/></g><g class="vf-beam" id="vf-auto17411"><path stroke="none" d="M441.323 71.25L441.323 68.25L455.238 68.25L455.238 71.25Z"/><path stroke="none" d="M441.323 66.75L441.323 63.75L455.238 63.75L455.238 66.75Z"/><path stroke="none" d="M441.323 62.25L441.323 59.25L455.238 59.25L455.238 62.25Z"/><path stroke="none" d="M441.323 57.75L441.323 54.75L455.238 54.75L455.238 57.75Z"/><path stroke="none" d="M441.323 53.25L441.323 50.25L455.238 50.25L455.238 53.25Z"/></g></g></g><g class="vf-stavenote" id="vf-auto17276"><path stroke-width="1.4" fill="none" stroke="#444" d="M488.161 40L507.669 40"/><path stroke-width="1.4" fill="none" stroke="#444" d="M488.161 30L507.669 30"/><g class="vf-notehead" id="vf-auto17280" pointer-events="bounding-box"><path stroke="none" d="M494.306 36.543C494.586 36.599,494.839 36.627,495.12 36.627C498.995 36.627,504.78 31.348,504.667 27.08C504.555 26.041,504.583 24.609,502.477 23.766C501.887 23.485,501.241 23.373,500.539 23.373C496.215 23.373,491.526 28.343,491.189 31.657C491.189 31.909,491.161 32.134,491.161 32.387C491.161 34.409,492.059 36.037,494.306 36.543"/></g></g><g class="vf-stavenote" id="vf-auto17283"><path stroke-width="1.4" fill="none" stroke="#444" d="M508.168 40L527.676 40"/><path stroke-width="1.4" fill="none" stroke="#444" d="M508.168 30L527.676 30"/><g class="vf-notehead" id="vf-auto17287" pointer-events="bounding-box"><path stroke="none" d="M514.313 36.543C514.594 36.599,514.846 36.627,515.127 36.627C519.002 36.627,524.787 31.348,524.674 27.08C524.562 26.041,524.59 24.609,522.484 23.766C521.895 23.485,521.249 23.373,520.547 23.373C516.222 23.373,511.533 28.343,511.196 31.657C511.196 31.909,511.168 32.134,511.168 32.387C511.168 34.409,512.067 36.037,514.313 36.543"/></g></g><g class="vf-stavenote" id="vf-auto17289"><path stroke-width="1.4" fill="none" stroke="#444" d="M525.413 40L544.921 40"/><path stroke-width="1.4" fill="none" stroke="#444" d="M525.413 30L544.921 30"/><g class="vf-notehead" id="vf-auto17293" pointer-events="bounding-box"><path stroke="none" d="M531.558 36.543C531.839 36.599,532.092 36.627,532.373 36.627C536.248 36.627,542.032 31.348,541.92 27.08C541.807 26.041,541.835 24.609,539.729 23.766C539.14 23.485,538.494 23.373,537.792 23.373C533.468 23.373,528.778 28.343,528.441 31.657C528.441 31.909,528.413 32.134,528.413 32.387C528.413 34.409,529.312 36.037,531.558 36.543"/></g></g><g class="vf-stavenote" id="vf-auto17296"><path stroke-width="1.4" fill="none" stroke="#444" d="M542.659 40L562.167 40"/><path stroke-width="1.4" fill="none" stroke="#444" d="M542.659 30L562.167 30"/><g class="vf-notehead" id="vf-auto17300" pointer-events="bounding-box"><path stroke="none" d="M548.803 36.543C549.084 36.599,549.337 36.627,549.618 36.627C553.493 36.627,559.277 31.348,559.165 27.08C559.053 26.041,559.081 24.609,556.975 23.766C556.385 23.485,555.739 23.373,555.037 23.373C550.713 23.373,546.024 28.343,545.687 31.657C545.687 31.909,545.659 32.134,545.659 32.387C545.659 34.409,546.557 36.037,548.803 36.543"/></g></g><g class="vf-stavenote" id="vf-auto17302"><path stroke-width="1.4" fill="none" stroke="#444" d="M559.425 40L578.933 40"/><path stroke-width="1.4" fill="none" stroke="#444" d="M559.425 30L578.933 30"/><g class="vf-notehead" id="vf-auto17306" pointer-events="bounding-box"><path stroke="none" d="M565.57 36.543C565.851 36.599,566.104 36.627,566.385 36.627C570.26 36.627,576.044 31.348,575.932 27.08C575.819 26.041,575.847 24.609,573.741 23.766C573.152 23.485,572.506 23.373,571.804 23.373C567.48 23.373,562.79 28.343,562.453 31.657C562.453 31.909,562.425 32.134,562.425 32.387C562.425 34.409,563.324 36.037,565.57 36.543"/></g></g><g class="vf-stavenote" id="vf-auto17309"><path stroke-width="1.4" fill="none" stroke="#444" d="M576.192 40L595.7 40"/><path stroke-width="1.4" fill="none" stroke="#444" d="M576.192 30L595.7 30"/><g class="vf-notehead" id="vf-auto17313" pointer-events="bounding-box"><path stroke="none" d="M582.337 36.543C582.618 36.599,582.87 36.627,583.151 36.627C587.026 36.627,592.811 31.348,592.698 27.08C592.586 26.041,592.614 24.609,590.508 23.766C589.919 23.485,589.273 23.373,588.571 23.373C584.246 23.373,579.557 28.343,579.22 31.657C579.22 31.909,579.192 32.134,579.192 32.387C579.192 34.409,580.091 36.037,582.337 36.543"/></g></g><g class="vf-stavenote" id="vf-auto17315"><path stroke-width="1.4" fill="none" stroke="#444" d="M592.959 40L612.467 40"/><path stroke-width="1.4" fill="none" stroke="#444" d="M592.959 30L612.467 30"/><g class="vf-notehead" id="vf-auto17319" pointer-events="bounding-box"><path stroke="none" d="M599.104 36.543C599.384 36.599,599.637 36.627,599.918 36.627C603.793 36.627,609.577 31.348,609.465 27.08C609.353 26.041,609.381 24.609,607.275 23.766C606.685 23.485,606.039 23.373,605.337 23.373C601.013 23.373,596.324 28.343,595.987 31.657C595.987 31.909,595.959 32.134,595.959 32.387C595.959 34.409,596.857 36.037,599.104 36.543"/></g></g><g class="vf-stavenote" id="vf-auto17322"><path stroke-width="1.4" fill="none" stroke="#444" d="M609.725 40L629.233 40"/><path stroke-width="1.4" fill="none" stroke="#444" d="M609.725 30L629.233 30"/><g class="vf-notehead" id="vf-auto17326" pointer-events="bounding-box"><path stroke="none" d="M615.87 36.543C616.151 36.599,616.404 36.627,616.685 36.627C620.56 36.627,626.344 31.348,626.232 27.08C626.12 26.041,626.148 24.609,624.042 23.766C623.452 23.485,622.806 23.373,622.104 23.373C617.78 23.373,613.09 28.343,612.753 31.657C612.753 31.909,612.725 32.134,612.725 32.387C612.725 34.409,613.624 36.037,615.87 36.543"/></g></g><g class="vf-stavenote" id="vf-auto17328"><path stroke-width="1.4" fill="none" stroke="#444" d="M626.492 40L646 40"/><path stroke-width="1.4" fill="none" stroke="#444" d="M626.492 30L646 30"/><g class="vf-notehead" id="vf-auto17332" pointer-events="bounding-box"><path stroke="none" d="M632.637 36.543C632.918 36.599,633.171 36.627,633.451 36.627C637.326 36.627,643.111 31.348,642.999 27.08C642.886 26.041,642.914 24.609,640.808 23.766C640.219 23.485,639.573 23.373,638.871 23.373C634.547 23.373,629.857 28.343,629.52 31.657C629.52 31.909,629.492 32.134,629.492 32.387C629.492 34.409,630.391 36.037,632.637 36.543"/></g></g><g class="vf-stem" id="vf-auto17129" pointer-events="bounding-box"><path stroke-width="1.5" fill="none" d="M174.911 98L174.911 65.75"/></g><g class="vf-stem" id="vf-auto17135" pointer-events="bounding-box"><path stroke-width="1.5" fill="none" d="M194.919 98L194.919 65.75"/></g><g class="vf-beam" id="vf-auto17140"><path stroke="none" d="M174.161 65L174.161 70L195.169 70L195.169 65Z"/></g><g class="vf-stem" id="vf-auto17142" pointer-events="bounding-box"><path stroke-width="1.5" fill="none" d="M214.926 98L214.926 65.75"/></g><g class="vf-stem" id="vf-auto17148" pointer-events="bounding-box"><path stroke-width="1.5" fill="none" d="M232.171 98L232.171 65.75"/></g><g class="vf-beam" id="vf-auto17153"><path stroke="none" d="M214.176 65L214.176 70L232.421 70L232.421 65Z"/><path stroke="none" d="M214.176 72.5L214.176 77.5L232.421 77.5L232.421 72.5Z"/></g><g class="vf-stem" id="vf-auto17155" pointer-events="bounding-box"><path stroke-width="1.5" fill="none" d="M249.417 98L249.417 58.25"/></g><g class="vf-stem" id="vf-auto17161" pointer-events="bounding-box"><path stroke-width="1.5" fill="none" d="M266.183 98L266.183 58.25"/></g><g class="vf-beam" id="vf-auto17166"><path stroke="none" d="M248.667 57.5L248.667 62.5L266.433 62.5L266.433 57.5Z"/><path stroke="none" d="M248.667 65L248.667 70L266.433 70L266.433 65Z"/><path stroke="none" d="M248.667 72.5L248.667 77.5L266.433 77.5L266.433 72.5Z"/></g><g class="vf-stem" id="vf-auto17168" pointer-events="bounding-box"><path stroke-width="1.5" fill="none" d="M282.95 98L282.95 50.75"/></g><g class="vf-stem" id="vf-auto17174" pointer-events="bounding-box"><path stroke-width="1.5" fill="none" d="M299.717 98L299.717 50.75"/></g><g class="vf-beam" id="vf-auto17179"><path stroke="none" d="M282.2 50L282.2 55L299.967 55L299.967 50Z"/><path stroke="none" d="M282.2 57.5L282.2 62.5L299.967 62.5L299.967 57.5Z"/><path stroke="none" d="M282.2 65L282.2 70L299.967 70L299.967 65Z"/><path stroke="none" d="M282.2 72.5L282.2 77.5L299.967 77.5L299.967 72.5Z"/></g><g class="vf-stem" id="vf-auto17181" pointer-events="bounding-box"><path stroke-width="1.5" fill="none" d="M316.483 98L316.483 43.25"/></g><g class="vf-stem" id="vf-auto17187" pointer-events="bounding-box"><path stroke-width="1.5" fill="none" d="M333.25 98L333.25 43.25"/></g><g class="vf-beam" id="vf-auto17192"><path stroke="none" d="M315.733 42.5L315.733 47.5L333.5 47.5L333.5 42.5Z"/><path stroke="none" d="M315.733 50L315.733 55L333.5 55L333.5 50Z"/><path stroke="none" d="M315.733 57.5L315.733 62.5L333.5 62.5L333.5 57.5Z"/><path stroke="none" d="M315.733 65L315.733 70L333.5 70L333.5 65Z"/><path stroke="none" d="M315.733 72.5L315.733 77.5L333.5 77.5L333.5 72.5Z"/></g><g class="vf-stem" id="vf-auto17271" pointer-events="bounding-box"><path stroke-width="1.5" fill="none" d="M471.904 32L471.904 69.25"/></g><g class="vf-stem" id="vf-auto17277" pointer-events="bounding-box"><path stroke-width="1.5" fill="none" d="M491.911 32L491.911 69.25"/></g><g class="vf-beam" id="vf-auto17282"><path stroke="none" d="M471.154 70L471.154 65L492.161 65L492.161 70Z"/></g><g class="vf-stem" id="vf-auto17284" pointer-events="bounding-box"><path stroke-width="1.5" fill="none" d="M511.918 32L511.918 69.25"/></g><g class="vf-stem" id="vf-auto17290" pointer-events="bounding-box"><path stroke-width="1.5" fill="none" d="M529.163 32L529.163 69.25"/></g><g class="vf-beam" id="vf-auto17295"><path stroke="none" d="M511.168 70L511.168 65L529.413 65L529.413 70Z"/><path stroke="none" d="M511.168 62.5L511.168 57.5L529.413 57.5L529.413 62.5Z"/></g><g class="vf-stem" id="vf-auto17297" pointer-events="bounding-box"><path stroke-width="1.5" fill="none" d="M546.409 32L546.409 76.75"/></g><g class="vf-stem" id="vf-auto17303" pointer-events="bounding-box"><path stroke-width="1.5" fill="none" d="M563.175 32L563.175 76.75"/></g><g class="vf-beam" id="vf-auto17308"><path stroke="none" d="M545.659 77.5L545.659 72.5L563.425 72.5L563.425 77.5Z"/><path stroke="none" d="M545.659 70L545.659 65L563.425 65L563.425 70Z"/><path stroke="none" d="M545.659 62.5L545.659 57.5L563.425 57.5L563.425 62.5Z"/></g><g class="vf-stem" id="vf-auto17310" pointer-events="bounding-box"><path stroke-width="1.5" fill="none" d="M579.942 32L579.942 84.25"/></g><g class="vf-stem" id="vf-auto17316" pointer-events="bounding-box"><path stroke-width="1.5" fill="none" d="M596.709 32L596.709 84.25"/></g><g class="vf-beam" id="vf-auto17321"><path stroke="none" d="M579.192 85L579.192 80L596.959 80L596.959 85Z"/><path stroke="none" d="M579.192 77.5L579.192 72.5L596.959 72.5L596.959 77.5Z"/><path stroke="none" d="M579.192 70L579.192 65L596.959 65L596.959 70Z"/><path stroke="none" d="M579.192 62.5L579.192 57.5L596.959 57.5L596.959 62.5Z"/></g><g class="vf-stem" id="vf-auto17323" pointer-events="bounding-box"><path stroke-width="1.5" fill="none" d="M613.475 32L613.475 91.75"/></g><g class="vf-stem" id="vf-auto17329" pointer-events="bounding-box"><path stroke-width="1.5" fill="none" d="M630.242 32L630.242 91.75"/></g><g class="vf-beam" id="vf-auto17334"><path stroke="none" d="M612.725 92.5L612.725 87.5L630.492 87.5L630.492 92.5Z"/><path stroke="none" d="M612.725 85L612.725 80L630.492 80L630.492 85Z"/><path stroke="none" d="M612.725 77.5L612.725 72.5L630.492 72.5L630.492 77.5Z"/><path stroke="none" d="M612.725 70L612.725 65L630.492 65L630.492 70Z"/><path stroke="none" d="M612.725 62.5L612.725 57.5L630.492 57.5L630.492 62.5Z"/></g></svg>