<svg xmlns="http://www.w3.org/2000/svg" stroke-width="0.3" stroke-dasharray="none" fill="black" stroke="black" font-family="Arial, sans-serif" font-size="10pt" font-weight="normal" font-style="normal" width="600" height="230" viewBox="0 0 600 230" style="width: 600px; height: 230px; border: none;"><g class="vf-stave" id="vf-auto28671" stroke-width="1" fill="#999999" stroke="#999999"><path fill="none" d="M0 80L590 80"/><path fill="none" d="M0 90L590 90"/><path fill="none" d="M0 100L590 100"/><path fill="none" d="M0 110L590 110"/><path fill="none" d="M0 120L590 120"/></g><g class="vf-stavebarline" id="vf-auto28672"><rect y="79.5" width="1" height="41" stroke="none"/></g><g class="vf-stavebarline" id="vf-auto28673"><rect x="590" y="79.5" width="1" height="41" stroke="none"/></g><path stroke="none" d="M26.823 40.33C25.721 40.33,24.938 40.698,24.301 41.261C23.812 41.677,23.714 41.971,23.567 41.971C23.395 41.971,23.493 41.726,23.175 41.114C22.93 40.698,22.416 40.379,21.486 40.379C19.405 40.379,18.279 41.848,17.177 43.856C17.006 44.174,16.933 44.37,16.933 44.541C16.933 44.786,17.129 44.933,17.324 44.933C17.569 44.933,17.716 44.712,17.887 44.394C18.916 42.632,19.625 41.726,20.262 41.726C20.531 41.726,20.654 41.897,20.654 42.142C20.654 42.411,20.531 42.778,20.433 43.023L16.1 53.77C15.978 54.064,15.929 54.113,15.562 54.113L14.485 54.113C14.166 54.113,14.02 54.26,14.02 54.578C14.02 54.872,14.166 54.994,14.436 54.994L21.241 54.994C21.559 54.994,21.706 54.872,21.706 54.553C21.706 54.26,21.559 54.113,21.266 54.113L19.87 54.113C19.65 54.113,19.552 54.113,19.552 54.015C19.552 53.99,19.577 53.868,19.625 53.77L21.217 49.829C21.266 49.657,21.339 49.412,21.535 49.412C21.706 49.412,21.804 49.755,22.367 50.024C22.857 50.294,23.322 50.343,23.909 50.343C27.312 50.343,30.054 46.818,30.054 43.488C30.054 41.432,28.781 40.33,26.823 40.33M25.868 41.652C26.455 41.652,26.676 42.166,26.676 42.95C26.676 44.688,24.791 49.143,23.102 49.143C22.514 49.143,22.22 48.776,22.22 48.017C22.22 47.283,22.514 46.573,22.906 45.594L23.616 43.856C24.105 42.656,25.011 41.652,25.868 41.652"/><path stroke-width="1" fill="none" d="M240.999 38.5L95.925 51L240.999 63.5"/><path stroke="none" d="M258.715 40.698C258.323 40.698,258.152 40.869,258.152 41.261C258.152 41.603,258.323 41.775,258.69 41.775L260.722 41.775C260.942 41.775,261.016 41.775,261.016 41.922C261.016 41.995,260.967 42.093,260.942 42.289L258.715 50C257.736 53.452,257.099 54.578,255.679 54.578C255.214 54.578,255.043 54.431,255.043 54.26C255.043 53.99,255.361 54.162,255.9 53.819C256.316 53.525,256.609 53.06,256.609 52.497C256.609 51.591,255.973 51.053,255.018 51.053C253.966 51.053,253.182 51.909,253.182 52.987C253.182 54.553,254.333 55.361,255.826 55.361C258.494 55.361,260.159 53.55,262.093 49.584C263.121 47.43,263.904 45.251,264.737 42.24L264.786 42.215C264.786 42.093,265.055 41.775,265.226 41.775L267.528 41.775C267.919 41.775,268.091 41.603,268.091 41.212C268.091 40.869,267.919 40.698,267.552 40.698L265.447 40.698C265.202 40.698,265.104 40.698,265.104 40.526C265.104 40.404,265.128 40.306,265.177 40.086C265.863 37.026,266.646 35.165,268.409 35.165C268.703 35.165,268.972 35.239,268.972 35.434C268.972 35.655,268.8 35.606,268.409 35.802C267.944 35.997,267.674 36.487,267.674 37.124C267.674 38.127,268.384 38.617,269.266 38.617C270.171 38.617,270.979 38.005,270.979 36.707C270.979 35.41,270.171 34.357,267.944 34.357C264.541 34.357,262.632 36.781,261.456 40.159C261.285 40.698,261.261 40.698,260.771 40.698"/><path stroke-width="1" fill="none" d="M441.462 93.5L336.923 101L441.462 108.5"/><path stroke-width="1" fill="none" d="M458.462 148.5L590 151L458.462 153.5"/></svg>