<svg xmlns="http://www.w3.org/2000/svg" stroke-width="0.3" stroke-dasharray="none" fill="black" stroke="black" font-family="Arial, sans-serif" font-size="10pt" font-weight="normal" font-style="normal" width="600" height="300" viewBox="0 0 600 300" style="width: 600px; height: 300px; border: none;"><g class="vf-stave" id="vf-auto10752" stroke-width="1" fill="#999999" stroke="#999999"><path fill="none" d="M0 52L590 52"/><path fill="none" d="M0 65L590 65"/><path fill="none" d="M0 78L590 78"/><path fill="none" d="M0 91L590 91"/><path fill="none" d="M0 104L590 104"/><path fill="none" d="M0 117L590 117"/></g><g class="vf-stavebarline" id="vf-auto10753"><rect y="51.5" width="1" height="66" stroke="none"/></g><g class="vf-stavebarline" id="vf-auto10754"><rect x="590" y="51.5" width="1" height="66" stroke="none"/></g><g class="vf-tabnote" id="vf-auto10755" pointer-events="bounding-box"><rect x="15" y="49" width="11.422" height="6" fill="#FFF" stroke="none"/><text stroke="none" x="17" y="57">6</text><rect x="15" y="88" width="11.422" height="6" fill="#FFF" stroke="none"/><text stroke="none" x="17" y="96">5</text></g><g class="vf-tabnote" id="vf-auto10758" pointer-events="bounding-box"><rect x="70.826" y="49" width="11.422" height="6" fill="#FFF" stroke="none"/><text stroke="none" x="72.826" y="57">6</text><rect x="70.826" y="88" width="11.422" height="6" fill="#FFF" stroke="none"/><text stroke="none" x="72.826" y="96">5</text></g><g class="vf-tabnote" id="vf-auto10761" pointer-events="bounding-box"><rect x="126.652" y="49" width="11.422" height="6" fill="#FFF" stroke="none"/><text stroke="none" x="128.652" y="57">6</text><rect x="126.652" y="88" width="11.422" height="6" fill="#FFF" stroke="none"/><text stroke="none" x="128.652" y="96">5</text></g><g class="vf-tabnote" id="vf-auto10764" pointer-events="bounding-box"><rect x="172.73" y="49" width="11.422" height="6" fill="#FFF" stroke="none"/><text stroke="none" x="174.73" y="57">6</text><rect x="172.73" y="88" width="11.422" height="6" fill="#FFF" stroke="none"/><text stroke="none" x="174.73" y="96">5</text></g><g class="vf-tabnote" id="vf-auto10767" pointer-events="bounding-box"><rect x="218.809" y="49" width="11.422" height="6" fill="#FFF" stroke="none"/><text stroke="none" x="220.809" y="57">6</text></g><g class="vf-tabnote" id="vf-auto10770" pointer-events="bounding-box"><rect x="260.673" y="49" width="11.422" height="6" fill="#FFF" stroke="none"/><text stroke="none" x="262.673" y="57">6</text></g><g class="vf-tabnote" id="vf-auto10773" pointer-events="bounding-box"><rect x="302.536" y="49" width="11.422" height="6" fill="#FFF" stroke="none"/><text stroke="none" x="304.536" y="57">6</text></g><g class="vf-tabnote" id="vf-auto10776" pointer-events="bounding-box"><rect x="344.399" y="114" width="11.422" height="6" fill="#FFF" stroke="none"/><text stroke="none" x="346.399" y="122">6</text></g><g class="vf-tabnote" id="vf-auto10779" pointer-events="bounding-box"><rect x="386.263" y="114" width="11.422" height="6" fill="#FFF" stroke="none"/><text stroke="none" x="388.263" y="122">6</text></g><g class="vf-tabnote" id="vf-auto10782" pointer-events="bounding-box"><rect x="432.342" y="114" width="11.422" height="6" fill="#FFF" stroke="none"/><text stroke="none" x="434.342" y="122">6</text></g><g class="vf-tabnote" id="vf-auto10785" pointer-events="bounding-box"><rect x="478.42" y="114" width="11.422" height="6" fill="#FFF" stroke="none"/><text stroke="none" x="480.42" y="122">6</text></g><g class="vf-tabnote" id="vf-auto10788" pointer-events="bounding-box"><rect x="524.499" y="114" width="11.422" height="6" fill="#FFF" stroke="none"/><text stroke="none" x="526.499" y="122">6</text></g><g class="vf-stem" id="vf-auto10756" pointer-events="bounding-box"><path stroke-width="1.5" fill="none" d="M20.711 125.5L20.711 157.75"/></g><g class="vf-stem" id="vf-auto10759" pointer-events="bounding-box"><path stroke-width="1.5" fill="none" d="M76.537 125.5L76.537 157.75"/></g><g class="vf-stem" id="vf-auto10762" pointer-events="bounding-box"><path stroke-width="1.5" fill="none" d="M132.362 125.5L132.362 157.75"/></g><g class="vf-stem" id="vf-auto10765" pointer-events="bounding-box"><path stroke-width="1.5" fill="none" d="M178.441 125.5L178.441 157.75"/></g><g class="vf-stem" id="vf-auto10768" pointer-events="bounding-box"><path stroke-width="1.5" fill="none" d="M224.52 125.5L224.52 157.75"/></g><g class="vf-stem" id="vf-auto10771" pointer-events="bounding-box"><path stroke-width="1.5" fill="none" d="M266.384 125.5L266.384 157.75"/></g><g class="vf-stem" id="vf-auto10774" pointer-events="bounding-box"><path stroke-width="1.5" fill="none" d="M308.247 125.5L308.247 157.75"/></g><g class="vf-stem" id="vf-auto10777" pointer-events="bounding-box"><path stroke-width="1.5" fill="none" d="M350.11 125.5L350.11 157.75"/></g><g class="vf-beam" id="vf-auto10791"><path stroke="none" d="M19.961 158.5L19.961 153.5L350.36 153.5L350.36 158.5Z"/><path stroke="none" d="M131.612 151L131.612 146L350.36 146L350.36 151Z"/><path stroke="none" d="M223.77 143.5L223.77 138.5L350.36 138.5L350.36 143.5Z"/></g><g class="vf-stem" id="vf-auto10780" pointer-events="bounding-box"><path stroke-width="1.5" fill="none" d="M391.974 43.5L391.974 11.25"/></g><g class="vf-stem" id="vf-auto10783" pointer-events="bounding-box"><path stroke-width="1.5" fill="none" d="M438.053 43.5L438.053 11.25"/></g><g class="vf-stem" id="vf-auto10786" pointer-events="bounding-box"><path stroke-width="1.5" fill="none" d="M484.131 43.5L484.131 11.25"/></g><g class="vf-stem" id="vf-auto10789" pointer-events="bounding-box"><path stroke-width="1.5" fill="none" d="M530.21 43.5L530.21 11.25"/></g><g class="vf-beam" id="vf-auto10800"><path stroke="none" d="M391.224 10.5L391.224 15.5L530.46 15.5L530.46 10.5Z"/><path stroke="none" d="M391.224 18L391.224 23L530.46 23L530.46 18Z"/></g></svg>