<svg xmlns="http://www.w3.org/2000/svg" stroke-width="0.3" stroke-dasharray="none" fill="black" stroke="black" font-family="Arial, sans-serif" font-size="10pt" font-weight="normal" font-style="normal" width="400" height="160" viewBox="0 0 400 160" style="width: 400px; height: 160px; border: none;"><g class="vf-stave" id="vf-auto41014" stroke-width="1" fill="#999999" stroke="#999999"><path fill="none" d="M10 50L360 50"/><path fill="none" d="M10 60L360 60"/><path fill="none" d="M10 70L360 70"/><path fill="none" d="M10 80L360 80"/><path fill="none" d="M10 90L360 90"/></g><g class="vf-stavebarline" id="vf-auto41015"><rect x="10" y="49.5" width="1" height="41" stroke="none"/></g><g class="vf-stavebarline" id="vf-auto41016"><rect x="360" y="49.5" width="1" height="41" stroke="none"/></g><g class="vf-clef" id="vf-auto41017"><path stroke="none" d="M35.503 81.76C35.503 84.345,34.464 87.032,31.854 88.071C31.093 83.712,30.105 77.908,29.852 76.286C33.146 76.286,35.503 78.516,35.503 81.76M30.333 88.527C29.598 88.654,28.914 88.73,28.204 88.73C22.983 88.73,18.548 85.08,18.548 79.581C18.548 75.12,21.691 71.141,24.884 68.379C25.518 67.821,26.101 67.314,26.633 66.757C26.962 68.734,27.216 70.457,27.469 71.952C24.149 72.941,21.894 76.438,21.894 79.86C21.894 82.419,23.896 85.917,26.836 85.917C27.114 85.917,27.444 85.79,27.444 85.461C27.444 85.131,27.089 84.954,26.633 84.65C25.214 83.762,24.428 82.825,24.428 81.025C24.428 78.82,26.05 77.021,28.204 76.514M27.114 50.993C27.444 49.548,29.117 45.721,31.017 45.721C31.575 45.721,32.437 47.495,32.437 50.004C32.437 53.806,29.623 56.67,27.114 59.128C26.886 57.684,26.709 56.264,26.709 54.718C26.709 53.375,26.836 52.133,27.114 50.993M19.461 99.729C19.461 102.137,21.311 105.305,26.253 105.305C27.951 105.305,29.446 104.874,30.764 104.063C32.741 102.669,33.248 100.261,33.248 97.98C33.248 96.536,33.02 94.914,32.665 92.836C32.563 92.101,32.335 91.011,32.107 89.566C35.681 88.4,38.367 84.675,38.367 80.924C38.367 75.424,34.464 71.699,29.117 71.699C28.762 69.494,28.382 67.34,28.078 65.312C31.93 61.257,34.591 56.695,34.591 50.891C34.591 47.571,33.577 44.859,32.994 43.567C32.107 41.691,31.068 40.424,30.409 40.424C30.156 40.424,29.015 40.855,27.799 42.274C25.467 45.062,24.808 49.726,24.808 52.792C24.808 54.769,25.011 56.543,25.619 60.623C25.594 60.674,23.693 62.6,22.907 63.234C19.587 66.326,15 70.736,15 78.035C15 84.878,20.956 90.225,27.748 90.225C28.787 90.225,29.776 90.124,30.612 89.972C31.322 93.469,31.727 96.029,31.727 97.98C31.727 101.757,29.776 103.784,26.101 103.784C25.214 103.784,24.453 103.582,24.377 103.582C24.352 103.556,24.276 103.505,24.276 103.48C24.276 103.404,24.352 103.379,24.453 103.328C26.177 103.075,27.875 101.63,27.875 99.273C27.875 97.322,26.379 95.243,23.642 95.243C21.083 95.243,19.461 97.322,19.461 99.729"/></g><g class="vf-timesignature" id="vf-auto41018"><path stroke="none" d="M63.477 59.437C66.292 58.335,66.464 56.499,66.464 55.887C66.464 55.814,66.464 55.74,66.464 55.692C66.464 55.373,66.366 51.408,60.295 51.408C54.224 51.408,54.419 55.692,54.419 55.692L54.444 55.692L54.419 55.765C54.419 57.038,55.423 58.017,56.696 58.017C57.969 58.017,58.948 57.038,58.948 55.765C58.948 54.737,58.189 53.758,57.186 53.537C57.235 53.513,57.259 53.488,57.308 53.439C57.798 53.097,58.459 52.925,59.144 52.925C60.613 52.925,62.204 53.807,62.204 55.692C62.204 57.919,60.539 58.237,60.123 58.311C59.707 58.384,57.724 58.531,57.308 58.531C56.867 58.531,56.843 59.021,56.843 59.021L56.843 59.706C56.843 59.706,56.916 60.098,57.308 60.147C57.896 60.171,58.703 60.171,59.83 60.343C61.396 60.563,62.204 61.616,62.204 64.088C62.204 66.463,60.613 67.075,59.144 67.075C58.14 67.075,57.235 66.805,56.843 66.512C57.994 66.463,58.948 65.435,58.948 64.26C58.948 62.987,57.969 61.983,56.696 61.983C55.423 61.983,54.419 62.987,54.419 64.26C54.419 64.26,54.419 64.333,54.419 64.406C54.419 64.872,54.517 66.144,55.79 67.295C57.161 68.568,58.875 68.592,59.658 68.592C63.036 68.592,66.708 67.442,66.708 63.599C66.708 61.028,64.946 59.927,63.404 59.437"/><path stroke="none" d="M64.799 79.364C65.95 78.482,66.758 77.356,66.758 75.936C66.758 73.415,63.967 71.334,60.564 71.334C57.137 71.334,54.346 73.415,54.346 75.936C54.346 77.356,54.714 78.629,56.354 79.682C54.787 80.588,53.906 81.909,53.906 83.599C53.906 86.463,56.892 88.739,60.564 88.739C64.236 88.739,67.223 86.463,67.223 83.599C67.223 81.909,66.611 80.318,64.799 79.364M60.564 86.756C58.312 86.756,56.354 85.532,56.354 83.55C56.354 81.2,58.19 80.636,58.19 80.636C60.589 81.444,64.016 82.644,64.016 84.578C64.016 85.532,62.767 86.756,60.564 86.756M62.816 78.409C60.417 77.65,57.774 76.475,57.774 74.884C57.774 73.513,59.047 72.95,60.564 72.95C62.743 72.95,64.236 73.978,64.236 75.594C64.236 77.283,63.453 78.091,62.816 78.409"/></g><g class="vf-stavenote" id="vf-auto41022"><g class="vf-notehead" id="vf-auto41049" pointer-events="bounding-box"><path stroke="none" d="M207.333 89.803C207.024 89.803,206.771 90.028,206.771 90.365L206.771 94.717C206.771 95.054,207.024 95.307,207.333 95.307L219.351 95.307C219.66 95.307,219.913 95.054,219.913 94.717L219.913 90.365C219.913 90.028,219.66 89.803,219.351 89.803"/></g></g><g class="vf-stavenote" id="vf-auto41026"><g class="vf-notehead" id="vf-auto41030" pointer-events="bounding-box"><path stroke="none" d="M78.684 71.685C78.684 73.426,79.948 75.391,83.205 75.391C87.417 75.391,91.826 71.938,91.826 68.371C91.826 65.985,89.804 64.665,87.305 64.665C83.374 64.665,78.684 67.978,78.684 71.685"/></g></g><g class="vf-stavenote" id="vf-auto41032"><g class="vf-notehead" id="vf-auto41036" pointer-events="bounding-box"><path stroke="none" d="M164.076 71.685C164.076 73.426,165.339 75.391,168.597 75.391C172.809 75.391,177.217 71.938,177.217 68.371C177.217 65.985,175.195 64.665,172.696 64.665C168.765 64.665,164.076 67.978,164.076 71.685"/><path stroke="none" d="M160.665 65.869C160.884 65.814,161.076 65.54,161.076 65.321L161.076 62.996C161.076 62.668,160.857 62.449,160.529 62.449C160.501 62.449,160.501 62.449,160.446 62.449L159.161 62.722L159.161 56.84L158.039 56.84L158.039 62.941L154.537 63.652L154.537 58.098L153.442 58.098L153.442 63.899L151.91 64.2C151.664 64.254,151.472 64.528,151.472 64.747L151.472 64.829L151.472 67.127L151.472 67.045C151.472 67.373,151.719 67.592,152.02 67.592C152.074 67.592,152.102 67.592,152.129 67.592L153.442 67.319L153.442 73.83L151.91 74.131C151.664 74.186,151.472 74.46,151.472 74.679L151.472 76.977C151.472 77.278,151.719 77.524,152.02 77.524C152.074 77.524,152.102 77.524,152.129 77.524L153.442 77.25L153.442 83.133L154.537 83.133L154.537 77.004L158.039 76.293L158.039 81.847L159.161 81.847L159.161 76.074L160.665 75.8C160.884 75.746,161.076 75.472,161.076 75.253L161.076 72.928C161.076 72.599,160.857 72.353,160.529 72.353C160.501 72.353,160.501 72.353,160.446 72.353L159.161 72.627L159.161 66.142M154.537 67.072L158.039 66.388L158.039 72.873L154.537 73.612"/></g></g><g class="vf-stavenote" id="vf-auto41038"><g class="vf-notehead" id="vf-auto41042" pointer-events="bounding-box"><path stroke="none" d="M249.467 71.685C249.467 73.426,250.731 75.391,253.988 75.391C258.2 75.391,262.609 71.938,262.609 68.371C262.609 65.985,260.587 64.665,258.088 64.665C254.156 64.665,249.467 67.978,249.467 71.685"/></g></g><g class="vf-stem" id="vf-auto41027" pointer-events="bounding-box"><path stroke-width="1.5" fill="none" d="M91.076 68L91.076 35.75"/></g><g class="vf-stem" id="vf-auto41033" pointer-events="bounding-box"><path stroke-width="1.5" fill="none" d="M176.467 68L176.467 35.75"/></g><g class="vf-stem" id="vf-auto41039" pointer-events="bounding-box"><path stroke-width="1.5" fill="none" d="M261.859 68L261.859 35.75"/></g><g class="vf-beam" id="vf-auto41046"><path stroke="none" d="M90.326 35L90.326 40L262.109 40L262.109 35Z"/></g></svg>