<svg xmlns="http://www.w3.org/2000/svg" stroke-width="0.3" stroke-dasharray="none" fill="black" stroke="black" font-family="Arial, sans-serif" font-size="10pt" font-weight="normal" font-style="normal" width="700" height="240" viewBox="0 0 700 240" style="width: 700px; height: 240px; border: none;"><text stroke="none" font-size="8pt" x="37" y="140">42px</text><path stroke-width="3" fill="none" stroke="red" d="M37 147L63.592 147"/><path stroke-width="3" fill="none" stroke="#999" d="M63.592 147L63.592 147"/><path stroke-width="3" fill="none" stroke="green" d="M63.592 147L78.671 147"/><path stroke-width="3" fill="none" stroke="#999" d="M78.671 147L78.671 147"/><path stroke-width="3" fill="none" stroke="red" d="M78.671 147L78.671 147"/><path stroke-width="3" fill="none" stroke="#DD0" d="M78.671 147L78.671 147"/><path stroke-width="3" fill="none" stroke="#BBB" d="M37 147L37 147"/><path stroke-width="3" fill="blue" stroke="none" d="M66.592 147 A3 3 0 0 0 60.592 147 A3 3 0 0 0 66.592 147Z"/><text stroke="none" font-size="8pt" x="125.671" y="140">81px</text><path stroke-width="3" fill="none" stroke="red" d="M125.671 147L180.836 147"/><path stroke-width="3" fill="none" stroke="#999" d="M180.836 147L180.836 147"/><path stroke-width="3" fill="none" stroke="green" d="M180.836 147L193.977 147"/><path stroke-width="3" fill="none" stroke="#999" d="M193.977 147L207.119 147"/><path stroke-width="3" fill="none" stroke="red" d="M207.119 147L207.119 147"/><path stroke-width="3" fill="none" stroke="#DD0" d="M207.119 147L207.119 147"/><path stroke-width="3" fill="none" stroke="#BBB" d="M125.671 147L125.671 147"/><path stroke-width="3" fill="blue" stroke="none" d="M183.836 147 A3 3 0 0 0 177.836 147 A3 3 0 0 0 183.836 147Z"/><text stroke="none" font-size="8pt" x="267.26" y="140">97px</text><path stroke-width="3" fill="none" stroke="red" d="M267.26 147L337.901 147"/><path stroke-width="3" fill="none" stroke="#999" d="M337.901 147L337.901 147"/><path stroke-width="3" fill="none" stroke="green" d="M337.901 147L364.184 147"/><path stroke-width="3" fill="none" stroke="#999" d="M364.184 147L364.184 147"/><path stroke-width="3" fill="none" stroke="red" d="M364.184 147L364.184 147"/><path stroke-width="3" fill="none" stroke="#DD0" d="M364.184 147L364.184 147"/><path stroke-width="3" fill="none" stroke="#BBB" d="M267.26 147L267.26 147"/><path stroke-width="3" fill="blue" stroke="none" d="M340.901 147 A3 3 0 0 0 334.901 147 A3 3 0 0 0 340.901 147Z"/><text stroke="none" font-size="8pt" x="411.184" y="140">71px</text><path stroke-width="3" fill="none" stroke="red" d="M411.184 147L467.338 147"/><path stroke-width="3" fill="none" stroke="#999" d="M467.338 147L467.338 147"/><path stroke-width="3" fill="none" stroke="green" d="M467.338 147L482.417 147"/><path stroke-width="3" fill="none" stroke="#999" d="M482.417 147L482.417 147"/><path stroke-width="3" fill="none" stroke="red" d="M482.417 147L482.417 147"/><path stroke-width="3" fill="none" stroke="#DD0" d="M482.417 147L482.417 147"/><path stroke-width="3" fill="none" stroke="#BBB" d="M411.184 147L411.184 147"/><path stroke-width="3" fill="blue" stroke="none" d="M470.338 147 A3 3 0 0 0 464.338 147 A3 3 0 0 0 470.338 147Z"/><g class="vf-stave" id="vf-auto2158" stroke-width="1" fill="#999999" stroke="#999999"><path fill="none" d="M10 50L560 50"/><path fill="none" d="M10 60L560 60"/><path fill="none" d="M10 70L560 70"/><path fill="none" d="M10 80L560 80"/><path fill="none" d="M10 90L560 90"/></g><g class="vf-stavebarline" id="vf-auto2159"><rect x="10" y="49.5" width="1" height="41" stroke="none"/></g><g class="vf-stavebarline" id="vf-auto2160"><rect x="560" y="49.5" width="1" height="41" stroke="none"/></g><g class="vf-stavenote" id="vf-auto2161"><path stroke-width="1.4" fill="none" stroke="#444" d="M60.592 100L81.671 100"/><g class="vf-notehead" id="vf-auto2166" pointer-events="bounding-box"><path stroke="none" d="M71.146 94.496C65.586 94.496,63.592 97.332,63.592 99.972C63.592 102.583,65.586 105.419,71.146 105.419C76.734 105.419,78.671 102.583,78.671 99.972C78.671 97.332,76.734 94.496,71.146 94.496M73.224 103.875C72.718 104.044,72.073 104.128,71.483 104.128C70.332 104.128,69.574 103.791,69.04 102.78C68.535 101.769,67.804 99.186,67.748 98.091C67.664 96.995,68.085 96.35,69.04 96.041C69.545 95.872,70.191 95.788,70.781 95.788C71.932 95.788,72.662 96.041,73.224 97.136C73.786 98.231,74.516 100.814,74.516 101.825C74.516 102.864,74.179 103.594,73.224 103.875"/><path stroke="none" d="M47.907 96.881C47.688 95.349,46.731 93.899,44.733 93.899C42.763 93.899,41.614 95.103,41.423 95.349L41.587 82.708C41.587 82.38,41.341 82.161,41.012 82.161L40.547 82.161C40.246 82.161,40 82.38,40 82.708L40.192 106.375C40.192 106.703,40.438 106.922,40.739 106.922C40.821 106.922,40.985 106.895,41.067 106.867C41.231 106.785,43.776 105.527,45.91 103.119C47.415 101.423,47.989 99.48,47.989 97.866C47.989 97.51,47.962 97.209,47.907 96.881M45.198 98.413C45.198 99.015,45.034 100.821,44.049 102.326C43.393 103.338,42.052 104.405,41.313 105.007L41.423 97.319C41.505 96.963,42.079 95.814,43.666 95.814C45.089 95.814,45.198 97.155,45.198 98.003C45.198 98.194,45.198 98.304,45.198 98.413"/></g><g class="vf-notehead" id="vf-auto2167" pointer-events="bounding-box"><path stroke="none" d="M71.146 84.496C65.586 84.496,63.592 87.332,63.592 89.972C63.592 92.583,65.586 95.419,71.146 95.419C76.734 95.419,78.671 92.583,78.671 89.972C78.671 87.332,76.734 84.496,71.146 84.496M73.224 93.875C72.718 94.044,72.073 94.128,71.483 94.128C70.332 94.128,69.574 93.791,69.04 92.78C68.535 91.769,67.804 89.186,67.748 88.091C67.664 86.995,68.085 86.35,69.04 86.041C69.545 85.872,70.191 85.788,70.781 85.788C71.932 85.788,72.662 86.041,73.224 87.136C73.786 88.231,74.516 90.814,74.516 91.825C74.516 92.864,74.179 93.594,73.224 93.875"/><path stroke="none" d="M60.182 85.869C60.401 85.814,60.592 85.54,60.592 85.321L60.592 82.996C60.592 82.668,60.374 82.449,60.045 82.449C60.018 82.449,60.018 82.449,59.963 82.449L58.677 82.722L58.677 76.84L57.556 76.84L57.556 82.941L54.053 83.652L54.053 78.098L52.959 78.098L52.959 83.899L51.427 84.2C51.181 84.254,50.989 84.528,50.989 84.747L50.989 84.829L50.989 87.127L50.989 87.045C50.989 87.373,51.235 87.592,51.536 87.592C51.591 87.592,51.618 87.592,51.646 87.592L52.959 87.319L52.959 93.83L51.427 94.131C51.181 94.186,50.989 94.46,50.989 94.679L50.989 96.977C50.989 97.278,51.235 97.524,51.536 97.524C51.591 97.524,51.618 97.524,51.646 97.524L52.959 97.25L52.959 103.133L54.053 103.133L54.053 97.004L57.556 96.293L57.556 101.847L58.677 101.847L58.677 96.074L60.182 95.8C60.401 95.746,60.592 95.472,60.592 95.253L60.592 92.928C60.592 92.599,60.374 92.353,60.045 92.353C60.018 92.353,60.018 92.353,59.963 92.353L58.677 92.627L58.677 86.142M54.053 87.072L57.556 86.388L57.556 92.873L54.053 93.612"/></g><g class="vf-notehead" id="vf-auto2168" pointer-events="bounding-box"><path stroke="none" d="M71.146 69.496C65.586 69.496,63.592 72.332,63.592 74.972C63.592 77.583,65.586 80.419,71.146 80.419C76.734 80.419,78.671 77.583,78.671 74.972C78.671 72.332,76.734 69.496,71.146 69.496M73.224 78.875C72.718 79.044,72.073 79.128,71.483 79.128C70.332 79.128,69.574 78.791,69.04 77.78C68.535 76.769,67.804 74.186,67.748 73.091C67.664 71.995,68.085 71.35,69.04 71.041C69.545 70.872,70.191 70.788,70.781 70.788C71.932 70.788,72.662 71.041,73.224 72.136C73.786 73.231,74.516 75.814,74.516 76.825C74.516 77.864,74.179 78.594,73.224 78.875"/></g></g><g class="vf-stavenote" id="vf-auto2173"><g class="vf-stem" id="vf-auto2174" pointer-events="bounding-box"><path stroke-width="1.5" fill="none" d="M193.227 92.45L193.227 10"/></g><g class="vf-notehead" id="vf-auto2183" pointer-events="bounding-box"><path stroke="none" d="M201.848 84.665C197.917 84.665,193.227 87.95,193.227 91.685C193.227 93.426,194.491 95.391,197.748 95.391C201.96 95.391,206.369 91.938,206.369 88.371C206.369 85.985,204.347 84.665,201.848 84.665M200.753 91.769C200.64 91.853,197.664 93.482,196.26 93.482C194.912 93.482,194.631 92.387,194.631 92.022C194.631 90.337,198.675 88.343,198.843 88.259C199.012 88.175,201.876 86.574,203.336 86.574C204.319 86.574,204.965 87.136,204.965 88.006C204.965 89.747,200.865 91.685,200.753 91.769"/><path stroke="none" d="M160.034 82.777C159.952 82.722,159.843 82.668,159.733 82.668C159.678 82.668,159.596 82.722,159.569 82.722L154.59 84.09L154.59 77.196L153.495 77.196L153.495 96.703C153.495 97.004,153.741 97.223,154.042 97.223C154.097 97.223,154.152 97.223,154.206 97.223L159.159 95.828L159.159 102.722L160.226 102.722C160.226 96.183,160.226 89.973,160.226 83.215C160.226 83.078,160.144 82.859,160.034 82.777M154.59 93.83L154.59 87.373L159.159 86.06L159.159 92.572"/></g><g class="vf-notehead" id="vf-auto2184" pointer-events="bounding-box"><path stroke="none" d="M189.456 79.665C185.525 79.665,180.836 82.95,180.836 86.685C180.836 88.426,182.1 90.391,185.357 90.391C189.569 90.391,193.977 86.938,193.977 83.371C193.977 80.985,191.956 79.665,189.456 79.665M188.361 86.769C188.249 86.853,185.273 88.482,183.869 88.482C182.521 88.482,182.24 87.387,182.24 87.022C182.24 85.337,186.283 83.343,186.452 83.259C186.62 83.175,189.485 81.574,190.945 81.574C191.928 81.574,192.573 82.136,192.573 83.006C192.573 84.747,188.474 86.685,188.361 86.769"/><path stroke="none" d="M177.754 81.854C177.535 80.321,176.577 78.899,174.58 78.899C172.61 78.899,171.461 80.075,171.27 80.321L171.434 67.708C171.434 67.38,171.187 67.161,170.859 67.161L170.394 67.161C170.093 67.161,169.847 67.38,169.847 67.708L169.956 79.555C169.464 79.172,168.807 78.899,167.959 78.899C165.989 78.899,164.84 80.103,164.648 80.349L164.813 67.708C164.813 67.38,164.566 67.161,164.238 67.161L163.773 67.161C163.472 67.161,163.226 67.38,163.226 67.708L163.417 91.375C163.417 91.703,163.663 91.922,163.964 91.922C164.046 91.922,164.211 91.867,164.293 91.813C164.457 91.731,167.001 90.527,169.135 88.119C169.409 87.791,169.765 87.244,170.011 86.888L170.038 91.375C170.038 91.703,170.285 91.922,170.586 91.922C170.668 91.922,170.832 91.867,170.914 91.813C171.078 91.731,173.622 90.472,175.757 88.064C177.261 86.368,177.836 84.453,177.836 82.839C177.836 82.483,177.809 82.155,177.754 81.854M168.424 83.413C168.424 84.015,168.26 85.821,167.275 87.326C166.618 88.338,165.278 89.405,164.539 90.007L164.648 82.319C164.73 81.963,165.305 80.814,166.892 80.814C168.315 80.814,168.424 82.155,168.424 83.003C168.424 83.194,168.424 83.304,168.424 83.413M175.045 83.413C175.045 84.015,174.881 85.821,173.896 87.326C173.239 88.338,171.899 89.405,171.133 90.007L171.27 82.319C171.352 81.963,171.926 80.814,173.513 80.814C174.936 80.814,175.045 82.155,175.045 83.003C175.045 83.194,175.045 83.304,175.045 83.413"/></g><g class="vf-notehead" id="vf-auto2185" pointer-events="bounding-box"><path stroke="none" d="M189.456 69.665C185.525 69.665,180.836 72.95,180.836 76.685C180.836 78.426,182.1 80.391,185.357 80.391C189.569 80.391,193.977 76.938,193.977 73.371C193.977 70.985,191.956 69.665,189.456 69.665M188.361 76.769C188.249 76.853,185.273 78.482,183.869 78.482C182.521 78.482,182.24 77.387,182.24 77.022C182.24 75.337,186.283 73.343,186.452 73.259C186.62 73.175,189.485 71.574,190.945 71.574C191.928 71.574,192.573 72.136,192.573 73.006C192.573 74.747,188.474 76.685,188.361 76.769"/><path stroke="none" d="M136.578 71.881C136.36 70.349,135.402 68.899,133.405 68.899C131.435 68.899,130.286 70.103,130.094 70.349L130.258 57.708C130.258 57.38,130.012 57.161,129.684 57.161L129.219 57.161C128.918 57.161,128.671 57.38,128.671 57.708L128.863 81.375C128.863 81.703,129.109 81.922,129.41 81.922C129.492 81.922,129.656 81.895,129.738 81.867C129.903 81.785,132.447 80.527,134.581 78.119C136.086 76.423,136.661 74.48,136.661 72.866C136.661 72.51,136.633 72.209,136.578 71.881M133.87 73.413C133.87 74.015,133.706 75.821,132.721 77.326C132.064 78.338,130.723 79.405,129.985 80.007L130.094 72.319C130.176 71.963,130.751 70.814,132.338 70.814C133.76 70.814,133.87 72.155,133.87 73.003C133.87 73.194,133.87 73.304,133.87 73.413"/></g><g class="vf-notehead" id="vf-auto2186" pointer-events="bounding-box"><path stroke="none" d="M189.456 59.665C185.525 59.665,180.836 62.95,180.836 66.685C180.836 68.426,182.1 70.391,185.357 70.391C189.569 70.391,193.977 66.938,193.977 63.371C193.977 60.985,191.956 59.665,189.456 59.665M188.361 66.769C188.249 66.853,185.273 68.482,183.869 68.482C182.521 68.482,182.24 67.387,182.24 67.022C182.24 65.337,186.283 63.343,186.452 63.259C186.62 63.175,189.485 61.574,190.945 61.574C191.928 61.574,192.573 62.136,192.573 63.006C192.573 64.747,188.474 66.685,188.361 66.769"/><path stroke="none" d="M150.085 60.869C150.304 60.814,150.495 60.54,150.495 60.321L150.495 57.996C150.495 57.668,150.276 57.449,149.948 57.449C149.921 57.449,149.921 57.449,149.866 57.449L148.58 57.722L148.58 51.84L147.458 51.84L147.458 57.941L143.956 58.652L143.956 53.098L142.862 53.098L142.862 58.899L141.33 59.2C141.083 59.254,140.892 59.528,140.892 59.747L140.892 59.829L140.892 62.127L140.892 62.045C140.892 62.373,141.138 62.592,141.439 62.592C141.494 62.592,141.521 62.592,141.548 62.592L142.862 62.319L142.862 68.83L141.33 69.131C141.083 69.186,140.892 69.46,140.892 69.679L140.892 71.977C140.892 72.278,141.138 72.524,141.439 72.524C141.494 72.524,141.521 72.524,141.548 72.524L142.862 72.25L142.862 78.133L143.956 78.133L143.956 72.004L147.458 71.293L147.458 76.847L148.58 76.847L148.58 71.074L150.085 70.8C150.304 70.746,150.495 70.472,150.495 70.253L150.495 67.928C150.495 67.599,150.276 67.353,149.948 67.353C149.921 67.353,149.921 67.353,149.866 67.353L148.58 67.627L148.58 61.142M143.956 62.072L147.458 61.388L147.458 67.873L143.956 68.612"/></g><g class="vf-notehead" id="vf-auto2187" pointer-events="bounding-box"><path stroke="none" d="M189.456 49.665C185.525 49.665,180.836 52.95,180.836 56.685C180.836 58.426,182.1 60.391,185.357 60.391C189.569 60.391,193.977 56.938,193.977 53.371C193.977 50.985,191.956 49.665,189.456 49.665M188.361 56.769C188.249 56.853,185.273 58.482,183.869 58.482C182.521 58.482,182.24 57.387,182.24 57.022C182.24 55.337,186.283 53.343,186.452 53.259C186.62 53.175,189.485 51.574,190.945 51.574C191.928 51.574,192.573 52.136,192.573 53.006C192.573 54.747,188.474 56.685,188.361 56.769"/><path stroke="none" d="M160.034 47.777C159.952 47.722,159.843 47.668,159.733 47.668C159.678 47.668,159.596 47.722,159.569 47.722L154.59 49.09L154.59 42.196L153.495 42.196L153.495 61.703C153.495 62.004,153.741 62.223,154.042 62.223C154.097 62.223,154.152 62.223,154.206 62.223L159.159 60.828L159.159 67.722L160.226 67.722C160.226 61.183,160.226 54.973,160.226 48.215C160.226 48.078,160.144 47.859,160.034 47.777M154.59 58.83L154.59 52.373L159.159 51.06L159.159 57.572"/></g><g class="vf-notehead" id="vf-auto2188" pointer-events="bounding-box"><path stroke="none" d="M189.456 39.665C185.525 39.665,180.836 42.95,180.836 46.685C180.836 48.426,182.1 50.391,185.357 50.391C189.569 50.391,193.977 46.938,193.977 43.371C193.977 40.985,191.956 39.665,189.456 39.665M188.361 46.769C188.249 46.853,185.273 48.482,183.869 48.482C182.521 48.482,182.24 47.387,182.24 47.022C182.24 45.337,186.283 43.343,186.452 43.259C186.62 43.175,189.485 41.574,190.945 41.574C191.928 41.574,192.573 42.136,192.573 43.006C192.573 44.747,188.474 46.685,188.361 46.769"/><path stroke="none" d="M177.754 41.854C177.535 40.321,176.577 38.899,174.58 38.899C172.61 38.899,171.461 40.075,171.27 40.321L171.434 27.708C171.434 27.38,171.187 27.161,170.859 27.161L170.394 27.161C170.093 27.161,169.847 27.38,169.847 27.708L169.956 39.555C169.464 39.172,168.807 38.899,167.959 38.899C165.989 38.899,164.84 40.103,164.648 40.349L164.813 27.708C164.813 27.38,164.566 27.161,164.238 27.161L163.773 27.161C163.472 27.161,163.226 27.38,163.226 27.708L163.417 51.375C163.417 51.703,163.663 51.922,163.964 51.922C164.046 51.922,164.211 51.867,164.293 51.813C164.457 51.731,167.001 50.527,169.135 48.119C169.409 47.791,169.765 47.244,170.011 46.888L170.038 51.375C170.038 51.703,170.285 51.922,170.586 51.922C170.668 51.922,170.832 51.867,170.914 51.813C171.078 51.731,173.622 50.472,175.757 48.064C177.261 46.368,177.836 44.453,177.836 42.839C177.836 42.483,177.809 42.155,177.754 41.854M168.424 43.413C168.424 44.015,168.26 45.821,167.275 47.326C166.618 48.338,165.278 49.405,164.539 50.007L164.648 42.319C164.73 41.963,165.305 40.814,166.892 40.814C168.315 40.814,168.424 42.155,168.424 43.003C168.424 43.194,168.424 43.304,168.424 43.413M175.045 43.413C175.045 44.015,174.881 45.821,173.896 47.326C173.239 48.338,171.899 49.405,171.133 50.007L171.27 42.319C171.352 41.963,171.926 40.814,173.513 40.814C174.936 40.814,175.045 42.155,175.045 43.003C175.045 43.194,175.045 43.304,175.045 43.413"/></g><g class="vf-notehead" id="vf-auto2182" pointer-events="bounding-box"><path stroke="none" d="M189.456 89.665C185.525 89.665,180.836 92.95,180.836 96.685C180.836 98.426,182.1 100.391,185.357 100.391C189.569 100.391,193.977 96.938,193.977 93.371C193.977 90.985,191.956 89.665,189.456 89.665M188.361 96.769C188.249 96.853,185.273 98.482,183.869 98.482C182.521 98.482,182.24 97.387,182.24 97.022C182.24 95.337,186.283 93.343,186.452 93.259C186.62 93.175,189.485 91.574,190.945 91.574C191.928 91.574,192.573 92.136,192.573 93.006C192.573 94.747,188.474 96.685,188.361 96.769"/><path stroke="none" d="M149.51 93.003L149.948 93.003C150.249 93.003,150.495 92.756,150.495 92.428L150.495 90.103C150.495 89.802,150.249 89.555,149.948 89.555L147.622 89.555C147.294 89.555,147.075 89.802,147.075 90.103L147.075 90.595L147.075 92.209L145.133 94.179L145.023 94.179L143.053 92.209L143.053 90.103C143.053 89.802,142.862 89.555,142.533 89.555L140.208 89.555C139.907 89.555,139.661 89.802,139.661 90.103L139.661 92.428C139.661 92.756,139.907 93.003,140.208 93.003L140.618 93.003L140.646 93.003L142.287 93.003L144.23 94.918L144.23 95.027L142.287 96.997L140.646 96.997L140.618 96.997L140.208 96.997C139.907 96.997,139.661 97.216,139.661 97.517L139.661 99.843C139.661 100.171,139.907 100.39,140.208 100.39L142.533 100.39C142.862 100.39,143.053 100.171,143.053 99.843L143.053 97.763L145.023 95.876L145.133 95.876L147.075 97.763L147.075 99.405L147.075 99.46L147.075 99.843C147.075 100.171,147.294 100.39,147.622 100.39L149.948 100.39C150.249 100.39,150.495 100.171,150.495 99.843L150.495 97.517C150.495 97.216,150.249 96.997,149.948 96.997L149.538 96.997L149.51 96.997L147.869 96.997L145.899 95.027L145.899 94.973L147.869 93.003"/></g></g><g class="vf-stavenote" id="vf-auto2203"><g class="vf-stem" id="vf-auto2204" pointer-events="bounding-box"><path stroke-width="1.5" fill="none" d="M350.292 83L350.292 13"/></g><g class="vf-notehead" id="vf-auto2219" pointer-events="bounding-box"><path stroke="none" d="M337.901 46.685C337.901 48.426,339.164 50.391,342.422 50.391C346.634 50.391,351.042 46.938,351.042 43.371C351.042 40.985,349.021 39.665,346.521 39.665C342.59 39.665,337.901 42.978,337.901 46.685"/><path stroke="none" d="M334.49 40.869C334.709 40.814,334.901 40.54,334.901 40.321L334.901 37.996C334.901 37.668,334.682 37.449,334.354 37.449C334.326 37.449,334.326 37.449,334.272 37.449L332.986 37.722L332.986 31.84L331.864 31.84L331.864 37.941L328.362 38.652L328.362 33.098L327.267 33.098L327.267 38.899L325.735 39.2C325.489 39.254,325.298 39.528,325.298 39.747L325.298 39.829L325.298 42.127L325.298 42.045C325.298 42.373,325.544 42.592,325.845 42.592C325.899 42.592,325.927 42.592,325.954 42.592L327.267 42.319L327.267 48.83L325.735 49.131C325.489 49.186,325.298 49.46,325.298 49.679L325.298 51.977C325.298 52.278,325.544 52.524,325.845 52.524C325.899 52.524,325.927 52.524,325.954 52.524L327.267 52.25L327.267 58.133L328.362 58.133L328.362 52.004L331.864 51.293L331.864 56.847L332.986 56.847L332.986 51.074L334.49 50.8C334.709 50.746,334.901 50.472,334.901 50.253L334.901 47.928C334.901 47.599,334.682 47.353,334.354 47.353C334.326 47.353,334.326 47.353,334.272 47.353L332.986 47.627L332.986 41.142M328.362 42.072L331.864 41.388L331.864 47.873L328.362 48.612"/></g><g class="vf-notehead" id="vf-auto2213" pointer-events="bounding-box"><path stroke="none" d="M337.901 86.685C337.901 88.426,339.164 90.391,342.422 90.391C346.634 90.391,351.042 86.938,351.042 83.371C351.042 80.985,349.021 79.665,346.521 79.665C342.59 79.665,337.901 82.978,337.901 86.685"/><path stroke="none" d="M322.106 77.777C322.024 77.722,321.914 77.668,321.805 77.668C321.75 77.668,321.668 77.722,321.641 77.722L316.661 79.09L316.661 72.196L315.567 72.196L315.567 91.703C315.567 92.004,315.813 92.223,316.114 92.223C316.169 92.223,316.224 92.223,316.278 92.223L321.23 90.828L321.23 97.722L322.298 97.722C322.298 91.183,322.298 84.973,322.298 78.215C322.298 78.078,322.215 77.859,322.106 77.777M316.661 88.83L316.661 82.373L321.23 81.06L321.23 87.572"/></g><g class="vf-notehead" id="vf-auto2214" pointer-events="bounding-box"><path stroke="none" d="M350.292 81.685C350.292 83.426,351.556 85.391,354.813 85.391C359.025 85.391,363.434 81.938,363.434 78.371C363.434 75.985,361.412 74.665,358.913 74.665C354.982 74.665,350.292 77.978,350.292 81.685"/><path stroke="none" d="M334.49 75.869C334.709 75.814,334.901 75.54,334.901 75.321L334.901 72.996C334.901 72.668,334.682 72.449,334.354 72.449C334.326 72.449,334.326 72.449,334.272 72.449L332.986 72.722L332.986 66.84L331.864 66.84L331.864 72.941L328.362 73.652L328.362 68.098L327.267 68.098L327.267 73.899L325.735 74.2C325.489 74.254,325.298 74.528,325.298 74.747L325.298 74.829L325.298 77.127L325.298 77.045C325.298 77.373,325.544 77.592,325.845 77.592C325.899 77.592,325.927 77.592,325.954 77.592L327.267 77.319L327.267 83.83L325.735 84.131C325.489 84.186,325.298 84.46,325.298 84.679L325.298 86.977C325.298 87.278,325.544 87.524,325.845 87.524C325.899 87.524,325.927 87.524,325.954 87.524L327.267 87.25L327.267 93.133L328.362 93.133L328.362 87.004L331.864 86.293L331.864 91.847L332.986 91.847L332.986 86.074L334.49 85.8C334.709 85.746,334.901 85.472,334.901 85.253L334.901 82.928C334.901 82.599,334.682 82.353,334.354 82.353C334.326 82.353,334.326 82.353,334.272 82.353L332.986 82.627L332.986 76.142M328.362 77.072L331.864 76.388L331.864 82.873L328.362 83.612"/></g><g class="vf-notehead" id="vf-auto2215" pointer-events="bounding-box"><path stroke="none" d="M337.901 76.685C337.901 78.426,339.164 80.391,342.422 80.391C346.634 80.391,351.042 76.938,351.042 73.371C351.042 70.985,349.021 69.665,346.521 69.665C342.59 69.665,337.901 72.978,337.901 76.685"/><path stroke="none" d="M279.453 70.869C279.672 70.814,279.864 70.54,279.864 70.321L279.864 67.996C279.864 67.668,279.645 67.449,279.316 67.449C279.289 67.449,279.289 67.449,279.234 67.449L277.948 67.722L277.948 61.84L276.827 61.84L276.827 67.941L273.325 68.652L273.325 63.098L272.23 63.098L272.23 68.899L270.698 69.2C270.452 69.254,270.26 69.528,270.26 69.747L270.26 69.829L270.26 72.127L270.26 72.045C270.26 72.373,270.506 72.592,270.807 72.592C270.862 72.592,270.89 72.592,270.917 72.592L272.23 72.319L272.23 78.83L270.698 79.131C270.452 79.186,270.26 79.46,270.26 79.679L270.26 81.977C270.26 82.278,270.506 82.524,270.807 82.524C270.862 82.524,270.89 82.524,270.917 82.524L272.23 82.25L272.23 88.133L273.325 88.133L273.325 82.004L276.827 81.293L276.827 86.847L277.948 86.847L277.948 81.074L279.453 80.8C279.672 80.746,279.864 80.472,279.864 80.253L279.864 77.928C279.864 77.599,279.645 77.353,279.316 77.353C279.289 77.353,279.289 77.353,279.234 77.353L277.948 77.627L277.948 71.142M273.325 72.072L276.827 71.388L276.827 77.873L273.325 78.612"/></g><g class="vf-notehead" id="vf-auto2216" pointer-events="bounding-box"><path stroke="none" d="M350.292 71.685C350.292 73.426,351.556 75.391,354.813 75.391C359.025 75.391,363.434 71.938,363.434 68.371C363.434 65.985,361.412 64.665,358.913 64.665C354.982 64.665,350.292 67.978,350.292 71.685"/><path stroke="none" d="M290.771 66.881C290.552 65.349,289.594 63.899,287.597 63.899C285.627 63.899,284.478 65.103,284.286 65.349L284.45 52.708C284.45 52.38,284.204 52.161,283.876 52.161L283.411 52.161C283.11 52.161,282.864 52.38,282.864 52.708L283.055 76.375C283.055 76.703,283.301 76.922,283.602 76.922C283.684 76.922,283.849 76.895,283.931 76.867C284.095 76.785,286.639 75.527,288.773 73.119C290.278 71.423,290.853 69.48,290.853 67.866C290.853 67.51,290.825 67.209,290.771 66.881M288.062 68.413C288.062 69.015,287.898 70.821,286.913 72.326C286.256 73.338,284.916 74.405,284.177 75.007L284.286 67.319C284.368 66.963,284.943 65.814,286.53 65.814C287.953 65.814,288.062 67.155,288.062 68.003C288.062 68.194,288.062 68.304,288.062 68.413"/></g><g class="vf-notehead" id="vf-auto2217" pointer-events="bounding-box"><path stroke="none" d="M337.901 66.685C337.901 68.426,339.164 70.391,342.422 70.391C346.634 70.391,351.042 66.938,351.042 63.371C351.042 60.985,349.021 59.665,346.521 59.665C342.59 59.665,337.901 62.978,337.901 66.685"/><path stroke="none" d="M308.381 61.854C308.162 60.321,307.204 58.899,305.207 58.899C303.237 58.899,302.088 60.075,301.897 60.321L302.061 47.708C302.061 47.38,301.814 47.161,301.486 47.161L301.021 47.161C300.72 47.161,300.474 47.38,300.474 47.708L300.583 59.555C300.091 59.172,299.434 58.899,298.586 58.899C296.616 58.899,295.467 60.103,295.275 60.349L295.44 47.708C295.44 47.38,295.193 47.161,294.865 47.161L294.4 47.161C294.099 47.161,293.853 47.38,293.853 47.708L294.044 71.375C294.044 71.703,294.29 71.922,294.591 71.922C294.674 71.922,294.838 71.867,294.92 71.813C295.084 71.731,297.628 70.527,299.762 68.119C300.036 67.791,300.392 67.244,300.638 66.888L300.665 71.375C300.665 71.703,300.912 71.922,301.213 71.922C301.295 71.922,301.459 71.867,301.541 71.813C301.705 71.731,304.25 70.472,306.384 68.064C307.888 66.368,308.463 64.453,308.463 62.839C308.463 62.483,308.436 62.155,308.381 61.854M299.051 63.413C299.051 64.015,298.887 65.821,297.902 67.326C297.245 68.338,295.905 69.405,295.166 70.007L295.275 62.319C295.358 61.963,295.932 60.814,297.519 60.814C298.942 60.814,299.051 62.155,299.051 63.003C299.051 63.194,299.051 63.304,299.051 63.413M305.672 63.413C305.672 64.015,305.508 65.821,304.523 67.326C303.866 68.338,302.526 69.405,301.76 70.007L301.897 62.319C301.979 61.963,302.553 60.814,304.14 60.814C305.563 60.814,305.672 62.155,305.672 63.003C305.672 63.194,305.672 63.304,305.672 63.413"/></g><g class="vf-notehead" id="vf-auto2218" pointer-events="bounding-box"><path stroke="none" d="M337.901 56.685C337.901 58.426,339.164 60.391,342.422 60.391C346.634 60.391,351.042 56.938,351.042 53.371C351.042 50.985,349.021 49.665,346.521 49.665C342.59 49.665,337.901 52.978,337.901 56.685"/><path stroke="none" d="M321.313 53.003L321.75 53.003C322.051 53.003,322.298 52.756,322.298 52.428L322.298 50.103C322.298 49.802,322.051 49.555,321.75 49.555L319.425 49.555C319.096 49.555,318.878 49.802,318.878 50.103L318.878 50.595L318.878 52.209L316.935 54.179L316.826 54.179L314.856 52.209L314.856 50.103C314.856 49.802,314.664 49.555,314.336 49.555L312.01 49.555C311.709 49.555,311.463 49.802,311.463 50.103L311.463 52.428C311.463 52.756,311.709 53.003,312.01 53.003L312.421 53.003L312.448 53.003L314.09 53.003L316.032 54.918L316.032 55.027L314.09 56.997L312.448 56.997L312.421 56.997L312.01 56.997C311.709 56.997,311.463 57.216,311.463 57.517L311.463 59.843C311.463 60.171,311.709 60.39,312.01 60.39L314.336 60.39C314.664 60.39,314.856 60.171,314.856 59.843L314.856 57.763L316.826 55.876L316.935 55.876L318.878 57.763L318.878 59.405L318.878 59.46L318.878 59.843C318.878 60.171,319.096 60.39,319.425 60.39L321.75 60.39C322.051 60.39,322.298 60.171,322.298 59.843L322.298 57.517C322.298 57.216,322.051 56.997,321.75 56.997L321.34 56.997L321.313 56.997L319.671 56.997L317.701 55.027L317.701 54.973L319.671 53.003"/></g><path stroke="none" d="M357.994 27.122C356.899 25.718,355.692 24.427,353.698 22.433C352.126 20.861,351.396 19.485,351.115 18.446C351.087 18.221,351.031 17.94,351.002 17.631C353.052 17.631,355.692 20.411,357.152 22.321C358.724 24.371,359.09 25.999,359.09 27.544C359.09 27.937,359.033 28.33,359.005 28.751C358.668 28.105,358.303 27.572,357.994 27.122M349.542 23.416C349.542 23.528,349.879 23.697,350.16 23.809C351.199 24.174,354.344 26.196,356.787 29.79C358.163 31.868,358.472 33.3,358.472 34.676C358.472 34.929,358.472 35.125,358.444 35.378C358.444 36.333,358.163 38.411,357.545 40.011C357.517 40.236,357.377 40.46,357.377 40.685C357.377 40.826,357.461 40.994,357.657 41.106C357.742 41.162,357.798 41.162,357.882 41.162C358.163 41.162,358.303 40.826,358.472 40.601C359.202 39.45,360.269 37.287,360.269 35.013C360.269 33.834,360.185 32.879,360.044 32.008C360.465 30.52,360.83 29.032,360.83 27.038C360.83 24.932,360.269 23.051,358.893 21.226C356.984 18.727,354.934 16.621,353.389 14.402C351.845 12.156,350.722 8,350.722 8C350.637 7.719,350.581 7.523,350.16 7.523C349.655 7.523,349.542 7.719,349.542 8"/></g><g class="vf-stavenote" id="vf-auto2235"><path stroke-width="1.4" fill="none" stroke="#444" d="M464.338 100L485.417 100"/><path stroke-width="1.4" fill="none" stroke="#444" d="M464.338 110L485.417 110"/><g class="vf-notehead" id="vf-auto2243" pointer-events="bounding-box"><path stroke="none" d="M474.891 104.496C469.332 104.496,467.338 107.332,467.338 109.972C467.338 112.583,469.332 115.419,474.891 115.419C480.479 115.419,482.417 112.583,482.417 109.972C482.417 107.332,480.479 104.496,474.891 104.496M476.969 113.875C476.464 114.044,475.818 114.128,475.228 114.128C474.077 114.128,473.319 113.791,472.785 112.78C472.28 111.769,471.55 109.186,471.494 108.091C471.409 106.995,471.831 106.35,472.785 106.041C473.291 105.872,473.937 105.788,474.526 105.788C475.678 105.788,476.408 106.041,476.969 107.136C477.531 108.231,478.261 110.814,478.261 111.825C478.261 112.864,477.924 113.594,476.969 113.875"/><path stroke="none" d="M445.497 105.869C445.716 105.814,445.907 105.54,445.907 105.321L445.907 102.996C445.907 102.668,445.688 102.449,445.36 102.449C445.333 102.449,445.333 102.449,445.278 102.449L443.992 102.722L443.992 96.84L442.87 96.84L442.87 102.941L439.368 103.652L439.368 98.098L438.274 98.098L438.274 103.899L436.742 104.2C436.495 104.254,436.304 104.528,436.304 104.747L436.304 104.829L436.304 107.127L436.304 107.045C436.304 107.373,436.55 107.592,436.851 107.592C436.906 107.592,436.933 107.592,436.96 107.592L438.274 107.319L438.274 113.83L436.742 114.131C436.495 114.186,436.304 114.46,436.304 114.679L436.304 116.977C436.304 117.278,436.55 117.524,436.851 117.524C436.906 117.524,436.933 117.524,436.96 117.524L438.274 117.25L438.274 123.133L439.368 123.133L439.368 117.004L442.87 116.293L442.87 121.847L443.992 121.847L443.992 116.074L445.497 115.8C445.716 115.746,445.907 115.472,445.907 115.253L445.907 112.928C445.907 112.599,445.688 112.353,445.36 112.353C445.333 112.353,445.333 112.353,445.278 112.353L443.992 112.627L443.992 106.142M439.368 107.072L442.87 106.388L442.87 112.873L439.368 113.612"/></g><g class="vf-notehead" id="vf-auto2244" pointer-events="bounding-box"><path stroke="none" d="M474.891 94.496C469.332 94.496,467.338 97.332,467.338 99.972C467.338 102.583,469.332 105.419,474.891 105.419C480.479 105.419,482.417 102.583,482.417 99.972C482.417 97.332,480.479 94.496,474.891 94.496M476.969 103.875C476.464 104.044,475.818 104.128,475.228 104.128C474.077 104.128,473.319 103.791,472.785 102.78C472.28 101.769,471.55 99.186,471.494 98.091C471.409 96.995,471.831 96.35,472.785 96.041C473.291 95.872,473.937 95.788,474.526 95.788C475.678 95.788,476.408 96.041,476.969 97.136C477.531 98.231,478.261 100.814,478.261 101.825C478.261 102.864,477.924 103.594,476.969 103.875"/><path stroke="none" d="M431.328 93.851C431.268 93.871,431.247 93.871,431.207 93.912C431.147 93.932,431.126 93.992,431.126 94.053C431.126 94.073,431.126 94.113,431.147 94.174C431.147 94.194,432.497 96.774,432.497 100.202C432.497 101.915,432.134 103.871,431.147 105.806C431.126 105.826,431.126 105.867,431.126 105.887C431.126 105.947,431.147 106.008,431.207 106.048C431.268 106.068,431.308 106.088,431.368 106.068C431.409 106.068,431.449 106.048,431.469 106.008C431.57 105.887,433.304 103.508,433.304 100C433.304 96.492,431.57 94.053,431.469 93.932C431.449 93.871,431.389 93.851,431.328 93.851"/><path stroke="none" d="M429.401 98.528L429.723 98.528C429.945 98.528,430.126 98.347,430.126 98.105L430.126 96.391C430.126 96.17,429.945 95.988,429.723 95.988L428.01 95.988C427.768 95.988,427.606 96.17,427.606 96.391L427.606 96.754L427.606 97.944L426.175 99.395L426.094 99.395L424.643 97.944L424.643 96.391C424.643 96.17,424.502 95.988,424.26 95.988L422.546 95.988C422.325 95.988,422.143 96.17,422.143 96.391L422.143 98.105C422.143 98.347,422.325 98.528,422.546 98.528L422.849 98.528L422.869 98.528L424.078 98.528L425.51 99.94L425.51 100.02L424.078 101.472L422.869 101.472L422.849 101.472L422.546 101.472C422.325 101.472,422.143 101.633,422.143 101.855L422.143 103.568C422.143 103.81,422.325 103.972,422.546 103.972L424.26 103.972C424.502 103.972,424.643 103.81,424.643 103.568L424.643 102.036L426.094 100.645L426.175 100.645L427.606 102.036L427.606 103.246L427.606 103.286L427.606 103.568C427.606 103.81,427.768 103.972,428.01 103.972L429.723 103.972C429.945 103.972,430.126 103.81,430.126 103.568L430.126 101.855C430.126 101.633,429.945 101.472,429.723 101.472L429.421 101.472L429.401 101.472L428.191 101.472L426.74 100.02L426.74 99.98L428.191 98.528"/><path stroke="none" d="M419.942 106.149C420.002 106.129,420.022 106.129,420.062 106.088C420.123 106.068,420.143 106.008,420.143 105.947C420.143 105.927,420.143 105.887,420.123 105.826C420.123 105.806,418.772 103.226,418.772 99.798C418.772 98.085,419.135 96.129,420.123 94.194C420.143 94.174,420.143 94.133,420.143 94.113C420.143 94.053,420.123 93.992,420.062 93.952C420.002 93.932,419.962 93.912,419.901 93.932C419.861 93.932,419.821 93.952,419.8 93.992C419.7 94.113,417.966 96.492,417.966 100C417.966 103.508,419.7 105.947,419.8 106.068C419.821 106.129,419.881 106.149,419.942 106.149"/></g><g class="vf-notehead" id="vf-auto2245" pointer-events="bounding-box"><path stroke="none" d="M474.891 84.496C469.332 84.496,467.338 87.332,467.338 89.972C467.338 92.583,469.332 95.419,474.891 95.419C480.479 95.419,482.417 92.583,482.417 89.972C482.417 87.332,480.479 84.496,474.891 84.496M476.969 93.875C476.464 94.044,475.818 94.128,475.228 94.128C474.077 94.128,473.319 93.791,472.785 92.78C472.28 91.769,471.55 89.186,471.494 88.091C471.409 86.995,471.831 86.35,472.785 86.041C473.291 85.872,473.937 85.788,474.526 85.788C475.678 85.788,476.408 86.041,476.969 87.136C477.531 88.231,478.261 90.814,478.261 91.825C478.261 92.864,477.924 93.594,476.969 93.875"/><path stroke="none" d="M462.362 83.851C462.302 83.871,462.282 83.871,462.241 83.912C462.181 83.932,462.161 83.992,462.161 84.053C462.161 84.073,462.161 84.113,462.181 84.174C462.181 84.194,463.531 86.774,463.531 90.202C463.531 91.915,463.169 93.871,462.181 95.806C462.161 95.826,462.161 95.867,462.161 95.887C462.161 95.947,462.181 96.008,462.241 96.048C462.302 96.068,462.342 96.088,462.402 96.068C462.443 96.068,462.483 96.048,462.503 96.008C462.604 95.887,464.338 93.508,464.338 90C464.338 86.492,462.604 84.053,462.503 83.932C462.483 83.871,462.423 83.851,462.362 83.851"/><path stroke="none" d="M460.858 86.956C461.019 86.916,461.161 86.714,461.161 86.553L461.161 84.839C461.161 84.597,460.999 84.436,460.757 84.436C460.737 84.436,460.737 84.436,460.697 84.436L459.749 84.637L459.749 80.303L458.923 80.303L458.923 84.799L456.342 85.323L456.342 81.23L455.536 81.23L455.536 85.504L454.407 85.726C454.226 85.766,454.084 85.968,454.084 86.129L454.084 86.19L454.084 87.883L454.084 87.823C454.084 88.065,454.266 88.226,454.488 88.226C454.528 88.226,454.548 88.226,454.568 88.226L455.536 88.024L455.536 92.822L454.407 93.044C454.226 93.084,454.084 93.286,454.084 93.447L454.084 95.141C454.084 95.363,454.266 95.544,454.488 95.544C454.528 95.544,454.548 95.544,454.568 95.544L455.536 95.342L455.536 99.677L456.342 99.677L456.342 95.161L458.923 94.637L458.923 98.729L459.749 98.729L459.749 94.476L460.858 94.274C461.019 94.234,461.161 94.032,461.161 93.871L461.161 92.157C461.161 91.915,460.999 91.734,460.757 91.734C460.737 91.734,460.737 91.734,460.697 91.734L459.749 91.935L459.749 87.157M456.342 87.843L458.923 87.339L458.923 92.117L456.342 92.661"/><path stroke="none" d="M451.883 96.149C451.943 96.129,451.963 96.129,452.004 96.088C452.064 96.068,452.084 96.008,452.084 95.947C452.084 95.927,452.084 95.887,452.064 95.826C452.064 95.806,450.714 93.226,450.714 89.798C450.714 88.085,451.076 86.129,452.064 84.194C452.084 84.174,452.084 84.133,452.084 84.113C452.084 84.053,452.064 83.992,452.004 83.952C451.943 83.932,451.903 83.912,451.842 83.932C451.802 83.932,451.762 83.952,451.742 83.992C451.641 84.113,449.907 86.492,449.907 90C449.907 93.508,451.641 95.947,451.742 96.068C451.762 96.129,451.822 96.149,451.883 96.149"/></g><g class="vf-notehead" id="vf-auto2246" pointer-events="bounding-box"><path stroke="none" d="M474.891 64.496C469.332 64.496,467.338 67.332,467.338 69.972C467.338 72.583,469.332 75.419,474.891 75.419C480.479 75.419,482.417 72.583,482.417 69.972C482.417 67.332,480.479 64.496,474.891 64.496M476.969 73.875C476.464 74.044,475.818 74.128,475.228 74.128C474.077 74.128,473.319 73.791,472.785 72.78C472.28 71.769,471.55 69.186,471.494 68.091C471.409 66.995,471.831 66.35,472.785 66.041C473.291 65.872,473.937 65.788,474.526 65.788C475.678 65.788,476.408 66.041,476.969 67.136C477.531 68.231,478.261 70.814,478.261 71.825C478.261 72.864,477.924 73.594,476.969 73.875"/><path stroke="none" d="M445.825 66.881C445.606 65.349,444.649 63.899,442.651 63.899C440.681 63.899,439.532 65.103,439.341 65.349L439.505 52.708C439.505 52.38,439.259 52.161,438.93 52.161L438.465 52.161C438.164 52.161,437.918 52.38,437.918 52.708L438.11 76.375C438.11 76.703,438.356 76.922,438.657 76.922C438.739 76.922,438.903 76.895,438.985 76.867C439.149 76.785,441.694 75.527,443.828 73.119C445.333 71.423,445.907 69.48,445.907 67.866C445.907 67.51,445.88 67.209,445.825 66.881M443.116 68.413C443.116 69.015,442.952 70.821,441.967 72.326C441.311 73.338,439.97 74.405,439.231 75.007L439.341 67.319C439.423 66.963,439.997 65.814,441.584 65.814C443.007 65.814,443.116 67.155,443.116 68.003C443.116 68.194,443.116 68.304,443.116 68.413"/></g><g class="vf-notehead" id="vf-auto2247" pointer-events="bounding-box"><path stroke="none" d="M474.891 54.496C469.332 54.496,467.338 57.332,467.338 59.972C467.338 62.583,469.332 65.419,474.891 65.419C480.479 65.419,482.417 62.583,482.417 59.972C482.417 57.332,480.479 54.496,474.891 54.496M476.969 63.875C476.464 64.044,475.818 64.128,475.228 64.128C474.077 64.128,473.319 63.791,472.785 62.78C472.28 61.769,471.55 59.186,471.494 58.091C471.409 56.995,471.831 56.35,472.785 56.041C473.291 55.872,473.937 55.788,474.526 55.788C475.678 55.788,476.408 56.041,476.969 57.136C477.531 58.231,478.261 60.814,478.261 61.825C478.261 62.864,477.924 63.594,476.969 63.875"/><path stroke="none" d="M431.328 53.851C431.268 53.871,431.247 53.871,431.207 53.912C431.147 53.932,431.126 53.992,431.126 54.053C431.126 54.073,431.126 54.113,431.147 54.174C431.147 54.194,432.497 56.774,432.497 60.202C432.497 61.915,432.134 63.871,431.147 65.806C431.126 65.826,431.126 65.867,431.126 65.887C431.126 65.947,431.147 66.008,431.207 66.048C431.268 66.068,431.308 66.088,431.368 66.068C431.409 66.068,431.449 66.048,431.469 66.008C431.57 65.887,433.304 63.508,433.304 60C433.304 56.492,431.57 54.053,431.469 53.932C431.449 53.871,431.389 53.851,431.328 53.851"/><path stroke="none" d="M431.066 57.682C430.905 56.553,430.199 55.504,428.727 55.504C427.276 55.504,426.429 56.371,426.288 56.553L426.409 47.259C426.409 47.017,426.228 46.856,425.986 46.856L425.643 46.856C425.421 46.856,425.24 47.017,425.24 47.259L425.32 55.988C424.958 55.706,424.474 55.504,423.849 55.504C422.397 55.504,421.55 56.391,421.409 56.573L421.53 47.259C421.53 47.017,421.349 46.856,421.107 46.856L420.764 46.856C420.542 46.856,420.361 47.017,420.361 47.259L420.502 64.697C420.502 64.939,420.684 65.1,420.905 65.1C420.966 65.1,421.087 65.06,421.147 65.02C421.268 64.959,423.143 64.072,424.716 62.298C424.917 62.056,425.179 61.653,425.361 61.391L425.381 64.697C425.381 64.939,425.562 65.1,425.784 65.1C425.845 65.1,425.966 65.06,426.026 65.02C426.147 64.959,428.022 64.032,429.594 62.258C430.703 61.008,431.126 59.597,431.126 58.407C431.126 58.145,431.106 57.903,431.066 57.682M424.191 58.831C424.191 59.274,424.07 60.605,423.345 61.714C422.861 62.46,421.873 63.246,421.329 63.689L421.409 58.024C421.47 57.762,421.893 56.916,423.062 56.916C424.111 56.916,424.191 57.903,424.191 58.528C424.191 58.669,424.191 58.75,424.191 58.831M429.07 58.831C429.07 59.274,428.949 60.605,428.223 61.714C427.74 62.46,426.752 63.246,426.187 63.689L426.288 58.024C426.349 57.762,426.772 56.916,427.941 56.916C428.99 56.916,429.07 57.903,429.07 58.528C429.07 58.669,429.07 58.75,429.07 58.831"/><path stroke="none" d="M418.159 66.149C418.22 66.129,418.24 66.129,418.28 66.088C418.341 66.068,418.361 66.008,418.361 65.947C418.361 65.927,418.361 65.887,418.341 65.826C418.341 65.806,416.99 63.226,416.99 59.798C416.99 58.085,417.353 56.129,418.341 54.194C418.361 54.174,418.361 54.133,418.361 54.113C418.361 54.053,418.341 53.992,418.28 53.952C418.22 53.932,418.18 53.912,418.119 53.932C418.079 53.932,418.038 53.952,418.018 53.992C417.918 54.113,416.184 56.492,416.184 60C416.184 63.508,417.918 65.947,418.018 66.068C418.038 66.129,418.099 66.149,418.159 66.149"/></g><g class="vf-notehead" id="vf-auto2248" pointer-events="bounding-box"><path stroke="none" d="M474.891 39.496C469.332 39.496,467.338 42.332,467.338 44.972C467.338 47.583,469.332 50.419,474.891 50.419C480.479 50.419,482.417 47.583,482.417 44.972C482.417 42.332,480.479 39.496,474.891 39.496M476.969 48.875C476.464 49.044,475.818 49.128,475.228 49.128C474.077 49.128,473.319 48.791,472.785 47.78C472.28 46.769,471.55 44.186,471.494 43.091C471.409 41.995,471.831 41.35,472.785 41.041C473.291 40.872,473.937 40.788,474.526 40.788C475.678 40.788,476.408 41.041,476.969 42.136C477.531 43.231,478.261 45.814,478.261 46.825C478.261 47.864,477.924 48.594,476.969 48.875"/><path stroke="none" d="M462.362 38.851C462.302 38.871,462.282 38.871,462.241 38.912C462.181 38.932,462.161 38.992,462.161 39.053C462.161 39.073,462.161 39.113,462.181 39.174C462.181 39.194,463.531 41.774,463.531 45.202C463.531 46.915,463.169 48.871,462.181 50.806C462.161 50.826,462.161 50.867,462.161 50.887C462.161 50.947,462.181 51.008,462.241 51.048C462.302 51.068,462.342 51.088,462.402 51.068C462.443 51.068,462.483 51.048,462.503 51.008C462.604 50.887,464.338 48.508,464.338 45C464.338 41.492,462.604 39.053,462.503 38.932C462.483 38.871,462.423 38.851,462.362 38.851"/><path stroke="none" d="M462.1 42.702C461.939 41.573,461.233 40.504,459.762 40.504C458.31 40.504,457.463 41.391,457.322 41.573L457.443 32.259C457.443 32.017,457.262 31.856,457.02 31.856L456.677 31.856C456.455 31.856,456.274 32.017,456.274 32.259L456.415 49.697C456.415 49.939,456.596 50.1,456.818 50.1C456.879 50.1,457 50.08,457.06 50.06C457.181 50,459.056 49.072,460.628 47.298C461.737 46.048,462.161 44.617,462.161 43.428C462.161 43.165,462.14 42.944,462.1 42.702M460.104 43.831C460.104 44.274,459.983 45.605,459.258 46.714C458.774 47.46,457.786 48.246,457.242 48.689L457.322 43.024C457.383 42.762,457.806 41.916,458.975 41.916C460.024 41.916,460.104 42.903,460.104 43.528C460.104 43.669,460.104 43.75,460.104 43.831"/><path stroke="none" d="M454.072 51.149C454.133 51.129,454.153 51.129,454.193 51.088C454.254 51.068,454.274 51.008,454.274 50.947C454.274 50.927,454.274 50.887,454.254 50.826C454.254 50.806,452.903 48.226,452.903 44.798C452.903 43.085,453.266 41.129,454.254 39.194C454.274 39.174,454.274 39.133,454.274 39.113C454.274 39.053,454.254 38.992,454.193 38.952C454.133 38.932,454.092 38.912,454.032 38.932C453.992 38.932,453.951 38.952,453.931 38.992C453.83 39.113,452.097 41.492,452.097 45C452.097 48.508,453.83 50.947,453.931 51.068C453.951 51.129,454.012 51.149,454.072 51.149"/></g></g><path stroke-width="10" fill="none" stroke="green" d="M480 136L490 136"/><text stroke-width="10" stroke="none" font-size="8pt" x="495" y="140">Note + Flag</text><path stroke-width="10" fill="none" stroke="red" d="M480 148L490 148"/><text stroke-width="10" stroke="none" font-size="8pt" x="495" y="152">Modifiers</text><path stroke-width="10" fill="none" stroke="#999" d="M480 160L490 160"/><text stroke-width="10" stroke="none" font-size="8pt" x="495" y="164">Displaced Head</text><path stroke-width="10" fill="none" stroke="#DDD" d="M480 172L490 172"/><text stroke-width="10" stroke="none" font-size="8pt" x="495" y="176">Formatter Shift</text></svg>