<svg xmlns="http://www.w3.org/2000/svg" stroke-width="0.3" stroke-dasharray="none" fill="black" stroke="black" font-family="Arial, sans-serif" font-size="10pt" font-weight="normal" font-style="normal" width="750" height="195" viewBox="0 0 750 195" style="width: 750px; height: 195px; border: none;"><g class="vf-stave" id="vf-auto11996" stroke-width="1" fill="#999999" stroke="#999999"><path fill="none" d="M10 70L710 70"/><path fill="none" d="M10 80L710 80"/><path fill="none" d="M10 90L710 90"/><path fill="none" d="M10 100L710 100"/><path fill="none" d="M10 110L710 110"/></g><g class="vf-stavebarline" id="vf-auto11997"><rect x="10" y="69.5" width="1" height="41" stroke="none"/></g><g class="vf-stavebarline" id="vf-auto11998"><rect x="710" y="69.5" width="1" height="41" stroke="none"/></g><g class="vf-stavenote" id="vf-auto11999"><g class="vf-stem" id="vf-auto12000" pointer-events="bounding-box"><path stroke-width="1.5" fill="none" d="M39.758 103L39.758 70"/></g><g class="vf-notehead" id="vf-auto12002" pointer-events="bounding-box"><path stroke="none" d="M30.145 111.543C30.426 111.599,30.678 111.627,30.959 111.627C34.834 111.627,40.619 106.348,40.506 102.08C40.394 101.041,40.422 99.609,38.316 98.766C37.727 98.485,37.081 98.373,36.379 98.373C32.054 98.373,27.365 103.343,27.028 106.657C27.028 106.909,27 107.134,27 107.387C27 109.409,27.899 111.037,30.145 111.543"/><g class="vf-ornament" id="vf-auto12051"><path stroke="none" d="M20.65 60C21.088 60,21.498 59.891,21.99 59.617C22.456 59.289,22.893 58.933,23.249 58.468C23.96 57.565,24.672 56.662,25.383 55.704C25.492 55.54,25.602 55.404,25.766 55.404C25.848 55.404,25.93 55.458,26.012 55.704C26.477 57.072,27.462 58.03,28.447 59.015C29.022 59.644,29.706 59.973,30.335 59.973C30.992 59.973,31.621 59.644,32.223 59.042C34.111 57.127,35.999 55.157,37.832 53.187C38.406 52.558,39.118 51.929,39.473 51.135C39.501 50.971,39.72 50.862,39.72 50.698C39.72 50.67,39.72 50.616,39.638 50.533C39.501 50.479,39.364 50.424,39.2 50.424C39.09 50.424,39.008 50.424,38.926 50.506C38.488 50.807,38.051 51.135,37.668 51.518L33.728 55.704C33.591 55.814,33.482 56.088,33.372 56.088C33.29 56.088,33.208 56.06,33.126 55.896C32.579 54.911,31.621 54.282,30.992 53.379C30.499 52.668,29.788 52.23,29.022 51.847C28.612 51.655,28.201 51.518,27.818 51.518C27.38 51.518,26.915 51.683,26.423 52.12C25.438 52.996,24.699 54.118,23.878 55.103C23.687 55.349,23.55 55.513,23.413 55.513C23.249 55.513,23.112 55.404,22.921 55.103C22.209 53.981,21.361 52.941,20.458 51.929C19.747 51.135,18.817 50.588,17.886 50.588C17.175 50.588,16.464 50.862,15.725 51.518C14.685 52.503,13.782 53.625,12.797 54.637C11.539 55.951,10.91 57.565,10.28 59.343C10.882 59.261,11.156 58.988,11.429 58.687C12.579 57.674,13.399 56.388,14.548 55.404C15.041 54.966,15.369 54.747,15.643 54.747C15.916 54.747,16.163 55.048,16.518 55.677C17.175 56.881,17.996 57.948,18.817 59.015C19.336 59.672,19.966 60,20.65 60"/></g></g></g><g class="vf-stavenote" id="vf-auto12003"><g class="vf-stem" id="vf-auto12004" pointer-events="bounding-box"><path stroke-width="1.5" fill="none" d="M92.664 103L92.664 70"/></g><g class="vf-notehead" id="vf-auto12006" pointer-events="bounding-box"><path stroke="none" d="M83.051 111.543C83.332 111.599,83.585 111.627,83.865 111.627C87.74 111.627,93.525 106.348,93.413 102.08C93.3 101.041,93.328 99.609,91.222 98.766C90.633 98.485,89.987 98.373,89.285 98.373C84.961 98.373,80.271 103.343,79.934 106.657C79.934 106.909,79.906 107.134,79.906 107.387C79.906 109.409,80.805 111.037,83.051 111.543"/><g class="vf-ornament" id="vf-auto12053"><path stroke="none" d="M78.152 60C78.508 59.617,78.535 59.261,78.563 58.933C78.645 58.632,78.645 58.358,78.645 58.03C78.645 57.428,78.563 56.799,78.563 56.224L78.563 50.506C78.809 50.315,79.001 50.178,79.219 50.178C79.438 50.178,79.685 50.342,79.958 50.752C80.779 51.874,81.6 53.023,82.557 54.063C82.995 54.528,83.378 54.802,83.789 54.802C84.144 54.802,84.473 54.61,84.883 54.118C86.415 52.367,88.111 50.78,89.835 49.193C90.601 48.454,91.094 47.551,91.504 46.594C91.586 46.457,91.696 46.183,91.696 45.964C91.696 45.855,91.668 45.745,91.531 45.663C91.313 45.499,90.875 45.663,90.601 45.882C90.519 45.964,90.464 46.046,90.382 46.101C88.741 47.305,87.318 48.782,85.95 50.26C85.758 50.506,85.54 50.67,85.403 50.67C85.239 50.67,85.047 50.533,84.828 50.315C83.816 49.275,82.995 48.18,82.202 47.004C81.737 46.211,81.326 45.855,80.834 45.855C80.478 45.855,80.068 46.019,79.52 46.375C79.165 46.594,78.864 46.84,78.535 47.113L78.535 44.405C78.508 43.064,78.426 41.641,77.578 40.41C77.25 40.739,77.031 41.012,77.031 41.477C77.085 43.994,76.921 46.566,76.839 49.083C76.593 49.412,76.374 49.713,76.128 49.986C75.471 50.807,75.033 51.245,74.623 51.245C74.213 51.245,73.802 50.807,73.146 49.959C73.091 49.904,73.063 49.795,73.009 49.713C72.078 48.7,71.367 47.524,70.3 46.594C69.944 46.32,69.643 46.183,69.288 46.183C68.959 46.183,68.686 46.32,68.412 46.566C66.169 48.509,64.117 50.533,64.117 53.735C64.117 53.981,64.117 54.2,64.144 54.473C64.445 54.446,64.554 54.282,64.719 54.118C65.622 53.105,66.552 52.093,67.509 51.053C67.728 50.78,67.947 50.616,68.139 50.616C68.385 50.616,68.604 50.807,68.795 51.163C69.479 52.449,70.464 53.543,71.394 54.61C72.078 55.349,72.708 55.704,73.337 55.704C73.994 55.704,74.678 55.239,75.334 54.336C75.827 53.735,76.265 53.105,76.73 52.503C76.73 53.488,76.73 54.473,76.757 55.458C76.839 57.045,77.441 58.495,78.152 60"/></g></g></g><g class="vf-stavenote" id="vf-auto12007"><g class="vf-stem" id="vf-auto12008" pointer-events="bounding-box"><path stroke-width="1.5" fill="none" d="M145.57 103L145.57 70"/></g><g class="vf-notehead" id="vf-auto12010" pointer-events="bounding-box"><path stroke="none" d="M135.957 111.543C136.238 111.599,136.491 111.627,136.772 111.627C140.647 111.627,146.431 106.348,146.319 102.08C146.206 101.041,146.235 99.609,144.129 98.766C143.539 98.485,142.893 98.373,142.191 98.373C137.867 98.373,133.177 103.343,132.84 106.657C132.84 106.909,132.812 107.134,132.812 107.387C132.812 109.409,133.711 111.037,135.957 111.543"/><g class="vf-ornament" id="vf-auto12055"><path stroke="none" d="M138.61 60C141.105 60,143.371 58.49,144.027 55.666C144.224 54.648,144.388 53.663,144.388 52.678C144.388 51.398,144.191 50.118,143.765 48.837C143.009 46.605,141.171 45.258,139.07 45.258C138.741 45.258,138.479 45.291,138.117 45.357C136.935 45.521,136.476 46.145,136.574 47.393L137.001 50.15C137.034 50.446,137.1 50.643,137.297 50.643C137.362 50.643,137.461 50.577,137.625 50.544C137.986 50.347,138.38 50.315,138.741 50.315C139.365 50.315,139.989 50.512,140.58 50.676C141.532 50.971,142.615 52.383,142.615 53.138C142.615 53.959,141.335 54.747,140.12 54.878C139.726 54.944,139.398 54.944,139.037 54.944C138.085 54.944,137.198 54.813,136.246 54.484C134.736 53.893,133.488 53.007,132.175 52.055C129.942 50.446,128.104 48.377,125.805 46.867C124.623 46.145,123.474 45.817,122.489 45.817C120.454 45.817,118.845 47.13,117.893 49.231C117.433 50.315,117.236 51.398,117.236 52.481C117.236 54.222,117.696 55.994,118.221 57.669C118.648 59.048,120.388 59.902,121.964 59.902C122.26 59.902,122.489 59.869,122.752 59.803C124.886 59.343,125.379 58.72,125.379 55.994C125.379 55.929,125.379 55.568,125.313 55.174C125.214 54.616,125.083 54.189,124.656 54.189C124.459 54.189,124.295 54.287,124 54.419C123.343 54.813,122.686 54.944,121.964 54.944C121.242 54.944,120.552 54.747,119.83 54.419C119.272 54.123,118.976 53.795,118.976 53.368C118.976 53.138,119.042 52.875,119.206 52.514C119.896 51.431,121.176 50.774,122.522 50.774C122.752 50.774,123.015 50.774,123.245 50.84C125.214 51.168,126.561 52.481,127.907 53.762C130.435 55.929,132.831 58.26,136.016 59.475C136.87 59.803,137.756 60,138.61 60"/></g></g></g><g class="vf-stavenote" id="vf-auto12011"><g class="vf-stem" id="vf-auto12012" pointer-events="bounding-box"><path stroke-width="1.5" fill="none" d="M198.477 103L198.477 70"/></g><g class="vf-notehead" id="vf-auto12014" pointer-events="bounding-box"><path stroke="none" d="M188.863 111.543C189.144 111.599,189.397 111.627,189.678 111.627C193.553 111.627,199.337 106.348,199.225 102.08C199.113 101.041,199.141 99.609,197.035 98.766C196.445 98.485,195.799 98.373,195.097 98.373C190.773 98.373,186.084 103.343,185.747 106.657C185.747 106.909,185.718 107.134,185.718 107.387C185.718 109.409,186.617 111.037,188.863 111.543"/><g class="vf-ornament" id="vf-auto12057"><path stroke="none" d="M184.621 60C185.081 58.851,185.114 57.899,185.114 56.947C185.081 55.436,185.081 53.893,185.081 52.317C186.263 53.171,187.543 53.992,188.922 54.517C189.776 54.845,190.662 55.01,191.516 55.01C194.011 55.01,196.277 53.499,196.933 50.676C197.13 49.691,197.295 48.673,197.295 47.688C197.295 46.408,197.098 45.127,196.671 43.879C195.916 41.647,194.077 40.268,191.976 40.268C191.647 40.268,191.385 40.334,191.024 40.366C189.842 40.563,189.382 41.187,189.48 42.402L189.907 45.193C189.94 45.488,190.006 45.652,190.203 45.652C190.268 45.652,190.367 45.62,190.531 45.554C190.892 45.39,191.286 45.324,191.647 45.324C192.271 45.324,192.895 45.521,193.486 45.718C194.438 45.981,195.522 47.425,195.522 48.18C195.522 48.968,194.241 49.789,193.026 49.921C192.632 49.953,192.304 49.953,191.943 49.953C190.991 49.953,190.104 49.822,189.152 49.494C187.642 48.968,186.394 48.016,185.081 47.097C185.081 47.097,185.081 47.031,185.048 47.031L185.048 43.912C185.048 42.304,184.983 40.563,184.983 38.955C184.983 38.003,184.95 37.05,184.359 36.262C184.293 36.098,184.293 35.836,184.096 35.836L183.998 35.836C183.768 35.868,183.538 36.164,183.374 36.394C183.275 36.591,183.341 36.821,183.341 37.05L183.177 45.554C181.732 44.306,180.32 42.96,178.712 41.877C177.53 41.187,176.381 40.826,175.396 40.826C173.36 40.826,171.718 42.172,170.799 44.241C170.339 45.324,170.142 46.408,170.142 47.491C170.142 49.264,170.602 51.004,171.127 52.711C171.554 54.09,173.294 54.944,174.87 54.944C175.166 54.944,175.396 54.878,175.658 54.845C177.792 54.353,178.285 53.762,178.285 51.004C178.285 50.971,178.285 50.577,178.219 50.216C178.121 49.625,177.989 49.198,177.562 49.198C177.365 49.198,177.201 49.297,176.906 49.461C176.249 49.822,175.593 49.953,174.87 49.953C174.148 49.953,173.458 49.789,172.736 49.461C172.178 49.165,171.883 48.837,171.883 48.41C171.883 48.18,171.948 47.885,172.112 47.557C172.736 46.473,174.082 45.817,175.428 45.817C175.658 45.817,175.921 45.817,176.151 45.849C178.121 46.243,179.401 47.557,180.813 48.771C181.568 49.461,182.356 50.118,183.111 50.709C183.045 51.398,183.045 52.055,183.045 52.646C182.947 55.174,183.341 57.538,184.621 60"/></g></g></g><g class="vf-stavenote" id="vf-auto12015"><g class="vf-stem" id="vf-auto12016" pointer-events="bounding-box"><path stroke-width="1.5" fill="none" d="M251.383 103L251.383 70"/></g><g class="vf-notehead" id="vf-auto12018" pointer-events="bounding-box"><path stroke="none" d="M241.77 111.543C242.05 111.599,242.303 111.627,242.584 111.627C246.459 111.627,252.243 106.348,252.131 102.08C252.019 101.041,252.047 99.609,249.941 98.766C249.351 98.485,248.705 98.373,248.003 98.373C243.679 98.373,238.99 103.343,238.653 106.657C238.653 106.909,238.625 107.134,238.625 107.387C238.625 109.409,239.523 111.037,241.77 111.543"/><g class="vf-ornament" id="vf-auto12059"><path stroke="none" d="M234.6 42.544C233.424 42.736,232.247 42.736,231.016 42.818L231.016 41.833C231.016 41.45,231.016 41.04,230.934 40.328C230.852 39.672,231.098 38.057,230.222 38.057C229.921 38.057,229.566 38.331,229.566 38.851C229.511 39.699,229.402 40.547,229.374 41.395L229.374 42.982L227.24 43.201C226.447 43.283,226.009 43.693,225.927 44.542C225.9 44.788,225.845 45.609,225.845 46.238C225.845 46.676,225.9 47.031,225.9 47.031L225.9 46.922C225.982 47.36,226.447 47.469,227.268 47.469C227.869 47.469,228.608 47.442,229.484 47.387C229.593 50.315,229.839 53.187,229.949 56.088C230.004 57.045,230.113 58.03,230.469 58.933C230.715 59.562,231.098 60,231.536 60C231.645 60,231.755 59.945,231.891 59.891C232.192 59.726,232.74 60.027,233.177 59.754C234.709 58.769,235.284 57.483,235.202 55.595C235.202 55.267,235.229 55.267,235.202 54.966C235.147 54.61,235.038 54.172,234.655 54.036C234.326 53.981,234.025 54.254,233.779 54.473L233.04 55.239C232.958 55.321,232.329 55.704,232.083 55.704C231.536 55.704,231.645 55.075,231.618 54.637C231.372 52.202,231.262 49.767,231.125 47.305L233.259 47.196C233.369 47.223,233.451 47.223,233.588 46.922C233.67 46.676,233.889 46.648,234.162 46.648L234.354 46.648C234.709 46.648,235.12 46.594,235.284 46.238C235.585 45.527,235.831 44.76,235.831 43.967C235.831 42.927,235.558 42.38,234.6 42.544M246.584 43.201C246.31 43.092,245.872 43.693,245.27 43.967C244.176 44.487,243.082 45.034,241.905 45.609C241.85 45.226,241.85 44.952,241.768 44.706C241.604 44.268,241.604 43.639,241.139 43.529C240.619 43.365,240.264 43.858,239.963 44.241C239.005 45.39,238.184 46.648,237.199 47.715C236.543 48.427,236.324 49.165,236.269 49.631C236.214 49.959,236.378 50.588,236.406 50.944C236.46 51.217,236.543 51.491,236.543 51.765C236.57 52.12,236.57 52.64,237.008 52.64C237.281 52.64,237.445 52.312,237.61 52.12C238.376 51.135,239.169 50.178,240.072 49.083C240.072 49.275,240.127 49.439,240.127 49.603C240.127 49.822,240.072 49.986,240.045 50.068C239.853 50.451,239.716 50.807,239.716 51.217C239.716 51.655,240.154 55.951,240.318 56.498C240.4 56.881,240.318 57.483,240.838 57.483C241.221 57.483,241.467 56.99,241.604 56.58C241.686 56.306,241.686 55.978,241.686 55.704L241.686 51.026C241.686 50.588,241.741 50.068,242.233 49.795C243.109 49.33,244.012 48.782,244.997 48.564C247.295 48.098,247.514 47.387,247.514 45.116C247.514 43.994,247.295 43.529,246.584 43.201"/></g></g></g><g class="vf-stavenote" id="vf-auto12019"><g class="vf-stem" id="vf-auto12020" pointer-events="bounding-box"><path stroke-width="1.5" fill="none" d="M304.289 103L304.289 70"/></g><g class="vf-notehead" id="vf-auto12022" pointer-events="bounding-box"><path stroke="none" d="M294.676 111.543C294.957 111.599,295.209 111.627,295.49 111.627C299.365 111.627,305.15 106.348,305.037 102.08C304.925 101.041,304.953 99.609,302.847 98.766C302.257 98.485,301.612 98.373,300.91 98.373C296.585 98.373,291.896 103.343,291.559 106.657C291.559 106.909,291.531 107.134,291.531 107.387C291.531 109.409,292.429 111.037,294.676 111.543"/><g class="vf-ornament" id="vf-auto12061"><path stroke="none" d="M283.416 59.781C282.513 58.632,281.336 58.304,280.105 58.194C279.284 58.112,278.491 58.085,277.78 57.647C274.551 55.677,272.499 52.832,271.678 49.248C271.569 48.728,271.487 48.235,271.487 47.715C271.487 46.128,272.144 44.76,273.457 43.529C274.387 42.681,275.427 42.325,276.521 42.325C277.315 42.325,278.135 42.517,279.011 42.818C280.16 43.228,281.145 43.858,282.157 44.432C283.607 45.28,284.237 45.855,285.03 45.855C285.659 45.855,286.425 45.472,287.766 44.569C289.134 43.611,290.475 42.626,291.651 41.45C292.007 41.094,292.363 40.93,292.691 40.93C293.074 40.93,293.43 41.258,293.703 41.833C294.032 42.462,294.25 43.174,294.497 43.858C294.716 44.377,294.852 45.061,295.646 45.061C296.138 45.061,296.467 44.596,296.768 44.213C297.014 43.94,297.205 43.611,297.369 43.256C297.752 42.517,298.081 41.724,298.464 40.985C298.737 40.547,298.737 39.836,299.421 39.836C300.078 39.781,300.352 40.438,300.68 40.848C301.419 41.888,301.774 43.174,302.458 44.241C302.759 44.76,303.033 45.007,303.443 45.007C303.662 45.007,303.908 44.925,304.209 44.76C304.729 44.514,305.167 44.131,305.55 43.721C306.891 42.408,308.149 40.985,309.545 39.672C310.721 38.522,310.967 37.182,310.967 35.65C310.913 35.267,310.831 35.102,310.639 35.102C310.53 35.102,310.42 35.184,310.201 35.294C309.189 36.005,308.204 36.799,307.301 37.702C306.426 38.577,305.687 39.589,304.62 40.356C304.346 40.492,304.155 40.574,303.936 40.574C303.717 40.574,303.471 40.438,303.279 40.027C302.677 38.851,302.212 37.592,301.419 36.525C300.926 35.814,300.434 35.431,299.941 35.431C299.449 35.431,298.956 35.814,298.464 36.607C297.752 37.784,297.041 39.042,296.302 40.219C296.138 40.492,296.029 40.629,295.865 40.629C295.7 40.629,295.591 40.465,295.427 40.137C295.044 39.206,294.716 38.249,294.223 37.401C293.895 36.826,293.539 36.635,293.074 36.635C292.828 36.635,292.609 36.689,292.363 36.771C292.007 36.881,291.706 37.072,291.405 37.346C290.092 38.577,288.532 39.453,287.055 40.465C286.343 40.93,285.577 41.204,284.839 41.204C284.291 41.204,283.689 41.067,283.115 40.739C281.856 40.082,280.461 39.507,279.12 39.015C277.944 38.577,276.713 38.249,275.509 38.249C274.633 38.249,273.812 38.413,272.992 38.769C269.873 40.109,268.094 42.708,268.094 45.828C268.094 46.484,268.176 47.168,268.34 47.88C269.626 53.707,273.101 57.729,278.956 59.425C279.914 59.699,280.899 60,281.911 60C282.431 60,282.896 59.918,283.416 59.781"/></g></g></g><g class="vf-stavenote" id="vf-auto12023"><g class="vf-stem" id="vf-auto12024" pointer-events="bounding-box"><path stroke-width="1.5" fill="none" d="M357.195 103L357.195 70"/></g><g class="vf-notehead" id="vf-auto12026" pointer-events="bounding-box"><path stroke="none" d="M347.582 111.543C347.863 111.599,348.115 111.627,348.396 111.627C352.271 111.627,358.056 106.348,357.943 102.08C357.831 101.041,357.859 99.609,355.753 98.766C355.164 98.485,354.518 98.373,353.816 98.373C349.491 98.373,344.802 103.343,344.465 106.657C344.465 106.909,344.437 107.134,344.437 107.387C344.437 109.409,345.336 111.037,347.582 111.543"/><g class="vf-ornament" id="vf-auto12063"><path stroke="none" d="M327.745 60C330.07 60,331.657 58.632,333.189 57.209C334.721 55.787,335.734 53.926,336.992 52.367C337.156 52.175,337.321 52.038,337.43 52.038C337.567 52.038,337.622 52.175,337.786 52.394L341.096 57.674C341.425 58.222,341.698 58.495,342.054 58.495C342.273 58.495,342.601 58.304,342.984 57.948C343.258 57.674,343.586 57.456,343.778 57.127C344.489 55.869,345.501 54.802,346.267 53.57C346.459 53.242,346.65 53.078,346.815 53.078C346.979 53.078,347.116 53.269,347.334 53.625L350.07 58.495C350.399 59.07,350.754 59.343,351.137 59.343C351.411 59.343,351.739 59.207,352.095 58.988C352.478 58.741,352.752 58.386,353.025 58.085C354.092 56.689,354.858 55.13,355.652 53.625C355.761 53.434,355.789 53.078,356.062 53.078C356.336 53.078,356.473 53.434,356.555 53.625C357.184 55.157,358.032 56.498,359.154 57.729C359.728 58.44,360.221 58.741,360.686 58.741C361.124 58.741,361.589 58.495,362.136 57.948C363.805 56.306,364.927 54.254,366.24 52.312C366.623 51.737,366.897 51.108,366.979 50.342C366.486 50.15,366.158 50.506,365.83 50.78C364.708 51.765,364.106 53.187,363.203 54.336C362.93 54.692,362.683 54.884,362.464 54.884C362.218 54.884,362.027 54.72,361.753 54.419C360.631 53.16,359.619 51.765,358.99 50.205C358.661 49.412,358.114 49.056,357.622 49.056C357.047 49.056,356.5 49.412,356.117 50.068C355.324 51.409,354.694 52.832,353.901 54.172C353.627 54.61,353.545 55.349,352.916 55.349C352.259 55.349,352.204 54.61,351.931 54.145C351.001 52.64,350.152 51.108,349.222 49.603C348.949 49.138,348.593 48.892,348.265 48.892C347.909 48.892,347.553 49.138,347.17 49.576C346.979 49.795,346.815 50.068,346.623 50.315C345.72 51.409,345.036 52.722,344.133 53.871C343.887 54.09,343.75 54.254,343.586 54.254C343.422 54.254,343.258 54.09,343.066 53.789C342.163 52.312,341.206 50.862,340.276 49.439C339.646 48.509,339.181 48.016,338.661 48.016C338.196 48.016,337.704 48.509,337.074 49.412C337.047 49.494,337.047 49.521,336.992 49.576C335.734 51.382,334.448 53.16,332.779 54.61C331.602 55.622,330.426 56.142,329.167 56.142C328.21 56.142,327.225 55.869,326.212 55.267C323.476 53.707,321.835 51.3,320.494 48.618C320.221 48.071,320.139 47.113,319.482 47.168C318.606 47.168,318.606 48.18,318.415 48.81C318.251 49.357,317.895 49.877,317.895 50.424C317.895 50.616,317.922 50.78,318.004 50.971C319.236 53.516,320.385 56.033,322.656 57.839C324.188 59.07,325.802 60,327.745 60"/></g></g></g><g class="vf-stavenote" id="vf-auto12027"><g class="vf-stem" id="vf-auto12028" pointer-events="bounding-box"><path stroke-width="1.5" fill="none" d="M410.101 103L410.101 70"/></g><g class="vf-notehead" id="vf-auto12030" pointer-events="bounding-box"><path stroke="none" d="M400.488 111.543C400.769 111.599,401.022 111.627,401.302 111.627C405.177 111.627,410.962 106.348,410.85 102.08C410.737 101.041,410.765 99.609,408.659 98.766C408.07 98.485,407.424 98.373,406.722 98.373C402.398 98.373,397.708 103.343,397.371 106.657C397.371 106.909,397.343 107.134,397.343 107.387C397.343 109.409,398.242 111.037,400.488 111.543"/><g class="vf-ornament" id="vf-auto12065"><path stroke="none" d="M397.231 59.644C397.806 59.289,398.271 58.824,398.681 58.304C400.213 56.279,401.226 54.008,402.429 51.792C402.511 51.6,402.539 51.327,402.785 51.327C403.059 51.327,403.141 51.6,403.195 51.847C403.879 53.269,404.345 54.747,405.056 56.142C405.767 57.51,406.479 58.03,407.272 58.03C407.847 58.03,408.531 57.702,409.269 57.319C410.61 56.525,411.568 55.294,412.47 54.036C414.085 51.792,415.097 49.439,415.097 46.867C415.097 46.019,414.988 45.144,414.741 44.241C413.921 41.012,411.13 38.687,408.093 38.687C407.819 38.687,407.546 38.714,407.272 38.769C406.205 38.905,405.384 39.316,405.111 40.492C405.029 41.012,404.892 41.477,404.673 41.915C404.536 42.189,404.481 42.38,404.481 42.544C404.481 42.736,404.591 42.818,404.892 42.818C405.029 42.818,405.138 42.791,405.302 42.791C405.74 42.708,406.123 42.654,406.506 42.654C407.628 42.654,408.695 42.927,409.625 43.639C411.759 45.226,412.498 47.36,412.498 49.74C412.498 50.068,412.498 50.342,412.47 50.67C412.388 51.929,411.841 52.968,410.856 53.817C410.336 54.254,409.871 54.446,409.461 54.446C408.968 54.446,408.476 54.09,408.093 53.324C407.655 52.503,407.299 51.655,406.916 50.78C406.479 49.822,406.232 48.755,405.576 47.907C405.247 47.414,404.81 47.223,404.399 47.223C403.989 47.223,403.551 47.414,403.25 47.907C402.648 48.7,402.156 49.521,401.718 50.342C400.76 52.148,399.83 53.953,398.845 55.732C398.763 55.896,398.626 56.142,398.517 56.142C398.243 56.224,398.161 55.896,398.134 55.704C397.888 55.103,397.723 54.528,397.532 53.926C396.903 51.984,396.547 49.986,395.562 48.263C395.261 47.715,394.823 47.414,394.413 47.414C394.03 47.414,393.647 47.661,393.291 48.18C392.881 48.728,392.525 49.33,392.169 49.959C391.321 51.491,390.528 53.105,389.625 54.637C389.351 55.103,389.214 55.869,388.722 55.869C388.147 55.869,388.147 55.02,387.956 54.528C387.682 53.762,387.409 52.968,387.08 52.23C386.506 50.78,385.986 49.248,384.81 48.044C384.262 47.496,383.715 47.278,383.141 47.278C382.511 47.278,381.882 47.633,381.472 48.345C379.638 51.3,377.805 54.172,376.218 57.237C376.054 57.592,375.589 58.112,375.589 58.413C375.589 58.577,375.617 58.659,375.781 58.741C376.301 59.015,376.848 58.14,377.203 57.62C378.626 55.732,379.502 53.57,380.788 51.655C381.116 51.217,381.253 50.971,381.499 50.971C381.69 50.971,381.937 51.163,382.292 51.573C383.195 52.421,383.578 53.57,384.098 54.665C384.645 56.005,385.056 57.428,385.63 58.769C385.904 59.398,386.178 59.726,386.588 59.726C386.862 59.726,387.162 59.562,387.573 59.316C388.558 58.741,389.132 57.702,389.762 56.799C390.966 55.103,391.786 53.297,392.771 51.436C393.318 51.929,393.401 52.558,393.565 53.105C394.112 54.993,394.632 56.908,395.206 58.851C395.453 59.644,395.754 60,396.246 60C396.52 60,396.821 59.863,397.231 59.644"/></g></g></g><g class="vf-stavenote" id="vf-auto12031"><g class="vf-stem" id="vf-auto12032" pointer-events="bounding-box"><path stroke-width="1.5" fill="none" d="M463.007 103L463.007 70"/></g><g class="vf-notehead" id="vf-auto12034" pointer-events="bounding-box"><path stroke="none" d="M453.394 111.543C453.675 111.599,453.928 111.627,454.209 111.627C458.084 111.627,463.868 106.348,463.756 102.08C463.643 101.041,463.672 99.609,461.566 98.766C460.976 98.485,460.33 98.373,459.628 98.373C455.304 98.373,450.614 103.343,450.277 106.657C450.277 106.909,450.249 107.134,450.249 107.387C450.249 109.409,451.148 111.037,453.394 111.543"/><g class="vf-ornament" id="vf-auto12067"><path stroke="none" d="M453.119 59.973C453.311 59.973,453.53 60,453.749 60C456.293 60,458.345 58.687,460.206 57.072C463.27 54.391,464.665 50.807,464.665 46.812C464.665 43.146,463.899 39.617,461.492 36.717C460.944 36.033,460.37 35.677,459.85 35.677C459.166 35.677,458.591 36.169,458.099 37.154C457.087 39.234,456.074 41.368,454.843 43.365C454.597 43.721,454.46 44.323,454.05 44.323C453.612 44.268,453.53 43.639,453.338 43.256C452.189 40.957,451.423 38.495,449.891 36.388C449.316 35.65,448.769 35.267,448.222 35.267C447.62 35.267,447.073 35.677,446.635 36.607C445.705 38.522,444.802 40.465,443.844 42.435C443.735 42.626,443.735 42.927,443.379 42.927C442.558 40.957,442.203 38.851,441.081 37.072C440.588 36.252,439.987 35.814,439.357 35.814C438.755 35.814,438.126 36.197,437.634 36.99C436.484 38.714,435.335 40.492,433.776 41.833C432.298 43.092,432.271 44.76,431.833 46.594C432.709 46.128,433.201 45.691,433.694 45.144C434.898 43.721,436.019 42.107,437.141 40.602C437.552 40.109,437.825 39.836,438.126 39.836C438.4 39.836,438.701 40.109,439.056 40.684C439.166 40.848,439.193 41.04,439.33 41.204C440.151 42.927,440.725 44.76,441.3 46.566C441.437 46.949,441.519 47.551,442.121 47.551C442.558 47.551,442.859 47.223,443.106 46.867C443.571 46.293,443.899 45.581,444.2 44.897C444.993 43.228,445.814 41.532,446.635 39.863C446.799 39.562,446.936 39.425,447.045 39.425C447.21 39.425,447.346 39.562,447.511 39.754C448.112 40.383,448.55 41.094,448.906 41.888C449.809 43.858,450.575 45.855,451.56 47.797C451.861 48.345,452.134 48.564,452.49 48.564C452.764 48.564,453.037 48.481,453.338 48.263C454.241 47.633,454.816 46.758,455.281 45.828C456.102 44.159,457.004 42.517,457.88 40.821C458.181 40.191,458.345 39.918,458.591 39.918C458.783 39.918,459.029 40.137,459.44 40.656C459.658 40.903,459.85 41.122,460.014 41.395C461.136 43.42,461.902 45.609,462.203 47.934C462.285 48.536,462.367 49.138,462.367 49.685C462.367 51.655,461.656 53.297,459.44 54.473C457.989 55.267,456.485 55.787,455.035 55.787C453.968 55.787,452.9 55.54,451.806 54.966C451.368 54.72,451.067 54.61,450.876 54.61C450.548 54.61,450.383 54.884,450.192 55.595L449.946 56.361C449.836 56.854,449.809 57.237,449.809 57.592C449.809 58.851,450.52 59.453,452.189 59.836"/></g></g></g><g class="vf-stavenote" id="vf-auto12035"><g class="vf-stem" id="vf-auto12036" pointer-events="bounding-box"><path stroke-width="1.5" fill="none" d="M515.914 103L515.914 70"/></g><g class="vf-notehead" id="vf-auto12038" pointer-events="bounding-box"><path stroke="none" d="M506.3 111.543C506.581 111.599,506.834 111.627,507.115 111.627C510.99 111.627,516.774 106.348,516.662 102.08C516.55 101.041,516.578 99.609,514.472 98.766C513.882 98.485,513.236 98.373,512.534 98.373C508.21 98.373,503.52 103.343,503.184 106.657C503.184 106.909,503.155 107.134,503.155 107.387C503.155 109.409,504.054 111.037,506.3 111.543"/><g class="vf-ornament" id="vf-auto12069"><path stroke="none" d="M494.89 59.918C495.273 59.891,495.382 59.726,495.382 59.48C495.382 59.371,495.382 59.261,495.3 59.097C495.027 58.358,494.48 57.811,493.96 57.182C493.495 56.58,492.947 56.252,492.127 56.334C491.88 56.388,491.689 56.388,491.443 56.388C490.512 56.388,489.61 56.115,488.734 55.677C485.506 54.063,482.633 52.011,480.252 49.33C479.951 48.974,479.787 48.618,479.787 48.235C479.787 48.071,479.787 47.962,479.815 47.797C480.307 44.952,481.839 42.544,482.934 39.945C483.289 39.124,483.891 38.741,484.548 38.741C484.986 38.741,485.506 38.933,486.025 39.316C487.64 40.574,488.843 42.271,490.294 43.721C491.333 44.76,491.99 45.308,492.592 45.308C493.303 45.308,493.932 44.678,494.917 43.42C495.547 42.626,496.094 41.806,496.696 40.985C496.887 40.656,497.079 40.465,497.27 40.465C497.489 40.465,497.626 40.574,497.872 40.848C498.857 42.161,499.924 43.392,500.909 44.651C501.703 45.663,502.058 46.183,502.523 46.183C502.961 46.183,503.454 45.773,504.439 45.061C504.794 44.843,505.068 44.487,505.396 44.131C505.752 43.721,506.135 43.256,506.491 42.818C506.491 43.228,506.545 43.611,506.545 44.022C506.545 44.569,506.491 45.116,506.463 45.691C506.217 47.989,506.272 50.287,506.217 52.558L506.19 52.941C506.19 53.105,506.217 53.269,506.409 53.297C506.71 53.352,506.928 53.023,507.038 52.804C507.257 52.449,507.394 52.038,507.476 51.655C507.804 50.479,507.886 49.248,507.886 48.016C507.886 45.554,508.078 43.092,508.078 40.711C508.269 40.465,508.461 40.191,508.679 39.918C509.09 39.234,509.418 38.933,509.774 38.933C510.075 38.933,510.403 39.206,510.923 39.754C511.032 39.836,511.06 39.945,511.197 40.027C512.318 41.258,513.166 42.736,514.179 44.049C514.617 44.596,514.972 44.843,515.41 44.843C515.684 44.843,515.985 44.706,516.422 44.487C517.134 44.022,517.736 43.42,518.283 42.736C519.432 41.34,520.608 39.945,521.867 38.604C523.098 37.319,524.193 35.896,524.494 34.008C523.317 34.09,522.606 34.829,521.976 35.568C520.608 37.182,519.268 38.796,517.872 40.383C517.571 40.766,517.407 40.93,517.216 40.93C517.024 40.93,516.833 40.711,516.504 40.301C515.328 38.796,514.288 37.154,512.92 35.841C512.318 35.294,511.744 35.02,511.197 35.02C510.485 35.02,509.801 35.458,509.227 36.334C508.816 36.908,508.433 37.51,507.995 38.057C507.968 37.62,507.913 37.236,507.831 36.799C507.886 36.498,507.886 36.169,507.886 35.896C507.886 34.993,507.749 34.172,507.694 33.324C507.558 31.327,507.339 29.302,507.12 27.332C507.12 27.059,507.12 26.703,506.764 26.703C506.463 26.703,506.217 26.949,506.135 27.305C505.834 28.481,505.588 29.712,505.67 30.916C505.861 33.762,506.19 36.635,506.299 39.48C506.299 39.672,506.354 39.918,506.354 40.109C505.916 40.629,505.424 41.122,504.958 41.559C504.658 41.833,504.411 41.997,504.22 41.997C503.946 41.997,503.7 41.751,503.426 41.423C502.441 40.137,501.538 38.878,500.499 37.702C499.733 36.799,499.158 36.361,498.611 36.361C498.036 36.361,497.489 36.908,496.723 37.975C495.984 39.042,495.355 40.191,494.37 41.012C494.206 41.176,494.042 41.258,493.932 41.258C493.768 41.258,493.659 41.176,493.467 40.985C492.045 39.398,490.594 37.893,489.172 36.361C488.488 35.65,487.831 35.02,486.764 34.856C486.49 34.829,486.244 34.829,486.025 34.829C484.356 34.829,483.016 35.513,482.031 36.963C481.101 38.386,480.143 39.781,479.322 41.258C478.419 42.873,477.817 44.678,477.817 46.484C477.817 49.302,479.158 51.929,482.195 53.707C482.66 53.981,483.07 54.419,483.536 54.72C486.162 56.498,488.679 58.577,491.771 59.562C492.51 59.808,493.248 60,494.042 60C494.315 60,494.589 59.973,494.89 59.918"/></g></g></g><g class="vf-stavenote" id="vf-auto12039"><g class="vf-stem" id="vf-auto12040" pointer-events="bounding-box"><path stroke-width="1.5" fill="none" d="M568.82 103L568.82 70"/></g><g class="vf-notehead" id="vf-auto12042" pointer-events="bounding-box"><path stroke="none" d="M559.207 111.543C559.487 111.599,559.74 111.627,560.021 111.627C563.896 111.627,569.68 106.348,569.568 102.08C569.456 101.041,569.484 99.609,567.378 98.766C566.788 98.485,566.142 98.373,565.44 98.373C561.116 98.373,556.427 103.343,556.09 106.657C556.09 106.909,556.062 107.134,556.062 107.387C556.062 109.409,556.96 111.037,559.207 111.543"/><g class="vf-ornament" id="vf-auto12071"><path stroke="none" d="M564.91 60C565.293 59.07,565.348 58.276,565.293 57.565C565.129 54.938,564.992 52.284,564.855 49.685L564.746 47.442C565.183 46.922,565.566 46.375,565.977 45.855C566.36 45.39,566.634 45.116,566.825 45.116C567.099 45.116,567.318 45.417,567.618 46.074C568.248 47.332,568.986 48.536,569.753 49.713C570.3 50.588,570.765 50.999,571.257 50.999C571.668 50.999,572.16 50.67,572.817 50.041C573.09 49.795,573.364 49.521,573.61 49.22C574.486 47.907,575.58 46.758,576.565 45.581C577.194 44.76,577.824 43.94,578.097 42.9C578.152 42.791,578.207 42.599,578.207 42.462C578.207 42.408,578.207 42.325,578.152 42.271C577.906 42.161,577.632 42.243,577.441 42.408C577.222 42.517,577.112 42.681,576.921 42.818C575.69 43.967,574.705 45.362,573.638 46.703C573.419 46.977,573.255 47.113,573.09 47.113C572.899 47.113,572.735 46.977,572.516 46.648C571.394 45.144,570.628 43.42,569.506 41.888C569.123 41.34,568.686 41.067,568.302 41.067C567.892 41.067,567.454 41.34,567.071 41.833C566.278 42.873,565.457 43.885,564.636 44.952C564.499 42.079,564.363 39.234,564.226 36.416C564.198 35.513,564.034 34.583,563.514 33.816C563.405 33.68,563.378 33.488,563.241 33.488L563.159 33.488C563.022 33.543,562.803 33.734,562.776 33.899C562.748 34.008,562.748 34.117,562.748 34.254L562.748 34.637C562.858 36.799,562.94 38.96,563.049 41.149C563.131 42.791,563.159 44.487,563.214 46.128C563.077 46.074,562.967 45.91,562.803 45.718C561.873 44.295,560.833 42.9,559.848 41.532C559.438 40.93,559.027 40.656,558.59 40.656C558.207 40.656,557.769 40.985,557.386 41.614C556.428 43.146,555.361 44.651,554.65 46.457C554.185 45.992,553.993 45.554,553.802 45.144C553.036 43.666,552.324 42.161,551.202 40.93C550.792 40.492,550.436 40.301,550.081 40.301C549.725 40.301,549.369 40.547,549.014 41.012L546.907 44.323C545.512 46.457,543.46 47.551,541.271 47.551C540.231 47.551,539.219 47.36,538.179 46.895C535.033 45.417,533.118 42.9,531.914 39.726C531.804 39.316,531.613 39.179,531.421 39.179C531.284 39.179,531.148 39.288,531.066 39.453C530.546 40.465,529.916 41.532,529.916 42.681C529.916 42.955,529.944 43.228,530.026 43.502C530.792 46.074,532.434 47.962,534.513 49.603C536.072 50.834,537.906 51.382,539.739 51.382C542.119 51.382,544.417 50.397,545.922 48.591C546.77 47.524,547.454 46.293,548.193 45.144C548.521 44.678,548.713 44.432,548.877 44.432C549.068 44.432,549.26 44.678,549.616 45.116C550.491 46.293,551.12 47.633,551.832 48.947C552.133 49.521,552.297 50.479,553.008 50.479C553.911 50.506,554.376 49.603,554.814 48.864C554.978 48.618,555.06 48.345,555.17 48.098C555.772 46.922,556.401 45.773,557.14 44.678C557.523 44.925,557.742 45.28,557.96 45.636C558.754 46.812,559.657 47.989,560.532 49.138C561.052 49.795,561.435 50.123,561.818 50.123C562.229 50.123,562.612 49.849,563.159 49.302C563.214 49.248,563.241 49.165,563.323 49.138C563.378 51.135,563.432 53.105,563.514 55.13C563.597 56.772,564.144 58.276,564.91 60"/></g></g></g><g class="vf-stavenote" id="vf-auto12043"><g class="vf-stem" id="vf-auto12044" pointer-events="bounding-box"><path stroke-width="1.5" fill="none" d="M621.726 103L621.726 70"/></g><g class="vf-notehead" id="vf-auto12046" pointer-events="bounding-box"><path stroke="none" d="M612.113 111.543C612.394 111.599,612.646 111.627,612.927 111.627C616.802 111.627,622.587 106.348,622.474 102.08C622.362 101.041,622.39 99.609,620.284 98.766C619.694 98.485,619.048 98.373,618.346 98.373C614.022 98.373,609.333 103.343,608.996 106.657C608.996 106.909,608.968 107.134,608.968 107.387C608.968 109.409,609.866 111.037,612.113 111.543"/><g class="vf-ornament" id="vf-auto12073"><path stroke="none" d="M591.086 59.289C591.36 59.042,591.552 58.741,591.798 58.413C592.837 57.045,593.248 55.458,593.768 53.899C594.014 53.187,594.096 52.859,594.288 52.859C594.479 52.859,594.725 53.078,595.19 53.434C596.531 54.446,597.325 55.951,598.501 57.127C598.884 57.51,599.212 57.702,599.513 57.702C599.869 57.702,600.143 57.428,600.498 56.936C601.21 55.869,601.538 54.637,601.839 53.434C602.167 52.202,602.468 51.6,602.988 51.6C603.371 51.6,603.891 51.956,604.657 52.722C606.134 54.2,607.612 55.677,608.898 57.319C609.5 58.057,610.074 59.097,611.114 58.933C612.236 58.769,612.537 57.51,612.892 56.58C613.275 55.677,613.549 54.692,613.932 53.762C614.206 53.133,614.452 52.832,614.808 52.832C615.054 52.832,615.355 53.023,615.765 53.461C616.86 54.692,618.009 55.896,619.021 57.155C619.377 57.565,619.65 57.756,620.006 57.756C620.252 57.756,620.526 57.647,620.799 57.428C622.961 55.896,625.013 54.282,626.901 52.394C627.721 51.573,627.968 50.588,627.968 49.548C627.968 49.138,627.94 48.646,627.858 48.208C627.421 48.18,627.174 48.427,626.901 48.646L621.784 52.777C621.237 53.215,620.964 53.461,620.69 53.461C620.444 53.461,620.197 53.187,619.732 52.585C618.802 51.382,617.927 50.123,616.668 49.165C616.23 48.81,615.765 48.618,615.355 48.618C614.725 48.618,614.151 49.056,613.713 49.795C612.92 51.135,612.537 52.64,612.017 54.09C611.853 54.528,611.689 54.72,611.497 54.72C611.333 54.72,611.141 54.61,610.868 54.282C610.266 53.625,609.773 52.941,609.226 52.284C607.831 50.752,606.49 49.138,604.766 47.934C604.165 47.551,603.672 47.36,603.234 47.36C602.441 47.36,601.839 47.934,601.483 49.083C601.128 50.26,600.827 51.409,600.389 52.585C600.197 53.133,600.033 53.434,599.869 53.434C599.732 53.434,599.513 53.187,599.158 52.777C598.118 51.464,597.051 50.041,595.628 49.056C595.218 48.782,594.835 48.646,594.506 48.646C593.959 48.646,593.521 49.083,593.248 49.904C592.755 51.491,592.318 53.105,591.552 54.61C591.251 55.239,590.703 55.869,589.883 55.869C589.171 55.869,588.843 55.239,588.487 54.692C588.323 54.446,588.268 54.118,588.186 53.817C587.584 51.409,587.338 48.919,587.283 46.457C587.229 45.335,587.201 44.241,587.201 43.146C587.201 41.45,587.283 39.754,587.42 38.057C587.475 37.674,587.393 37.072,587.065 37.018C586.49 36.963,586.353 37.592,586.326 38.057C586.162 40.027,585.943 41.997,585.97 43.967C586.052 47.551,586.134 51.135,586.681 54.692C586.928 56.224,587.065 57.756,588.022 59.015C588.487 59.644,589.034 60,589.636 60C590.101 60,590.621 59.754,591.086 59.289"/></g></g></g><g class="vf-stavenote" id="vf-auto12047"><g class="vf-stem" id="vf-auto12048" pointer-events="bounding-box"><path stroke-width="1.5" fill="none" d="M674.632 103L674.632 70"/></g><g class="vf-notehead" id="vf-auto12050" pointer-events="bounding-box"><path stroke="none" d="M665.019 111.543C665.3 111.599,665.552 111.627,665.833 111.627C669.708 111.627,675.493 106.348,675.38 102.08C675.268 101.041,675.296 99.609,673.19 98.766C672.6 98.485,671.955 98.373,671.253 98.373C666.928 98.373,662.239 103.343,661.902 106.657C661.902 106.909,661.874 107.134,661.874 107.387C661.874 109.409,662.772 111.037,665.019 111.543"/><g class="vf-ornament" id="vf-auto12075"><path stroke="none" d="M640.523 60C641.344 59.672,641.836 59.371,642.247 59.015C643.095 58.194,643.943 57.428,644.818 56.607C645.01 56.416,645.174 56.306,645.366 56.306C645.53 56.306,645.694 56.416,645.885 56.662C646.46 57.428,647.226 58.14,647.855 58.906C648.403 59.562,648.84 59.836,649.36 59.836C649.716 59.836,650.099 59.726,650.619 59.453C651.029 59.207,651.439 58.906,651.795 58.55C652.616 57.702,653.437 56.881,654.23 56.033C654.422 55.787,654.641 55.677,654.832 55.677C654.969 55.677,655.188 55.787,655.379 56.033C656.282 56.936,657.158 57.866,658.061 58.769C658.526 59.261,659.046 59.535,659.62 59.535C659.894 59.535,660.195 59.453,660.468 59.371C661.207 59.124,661.864 58.741,662.52 58.222C663.423 57.401,664.353 56.607,665.256 55.787C665.42 55.622,665.585 55.54,665.694 55.54C665.803 55.54,665.968 55.622,666.132 55.814C666.925 56.689,667.773 57.483,668.539 58.358C669.333 59.207,670.072 59.644,670.947 59.644C671.576 59.644,672.206 59.398,672.917 58.933C674.668 57.702,676.228 56.224,677.705 54.692C678.499 53.899,678.909 52.859,679.183 51.765C679.292 51.382,679.183 51.163,678.936 51.163C678.827 51.163,678.69 51.217,678.581 51.245C678.143 51.409,677.678 51.6,677.295 51.956C676.228 52.941,675.243 54.09,674.011 54.911C673.683 55.103,673.41 55.267,673.191 55.267C672.917 55.267,672.671 55.103,672.397 54.72C671.85 53.926,671.221 53.215,670.509 52.585C669.552 51.737,668.731 51.3,667.91 51.3C667.035 51.3,666.159 51.765,665.229 52.668C664.353 53.461,663.533 54.254,662.575 54.911C662.301 55.103,662.11 55.239,661.918 55.239C661.672 55.239,661.453 55.075,661.207 54.72C660.468 53.652,659.483 52.722,658.362 52.038C657.869 51.737,657.349 51.573,656.829 51.573C656.2 51.573,655.626 51.847,655.024 52.394L651.877 55.404C651.686 55.595,651.467 55.704,651.275 55.704C651.111 55.704,650.92 55.595,650.728 55.321C650.181 54.61,649.552 53.926,648.868 53.297C648.32 52.722,647.801 52.394,647.308 52.449C646.788 52.449,646.268 52.722,645.694 53.297C644.791 54.282,643.806 55.239,642.739 56.06C641.426 57.018,641.234 58.468,640.523 60"/></g></g></g></svg>