<svg xmlns="http://www.w3.org/2000/svg" stroke-width="0.3" stroke-dasharray="none" fill="black" stroke="black" font-family="Arial, sans-serif" font-size="10pt" font-weight="normal" font-style="normal" width="450" height="140" viewBox="0 0 450 140" style="width: 450px; height: 140px; border: none;"><g class="vf-stave" id="vf-auto1416" stroke-width="1" fill="#999999" stroke="#999999"><path fill="none" d="M0 40L440 40"/><path fill="none" d="M0 50L440 50"/><path fill="none" d="M0 60L440 60"/><path fill="none" d="M0 70L440 70"/><path fill="none" d="M0 80L440 80"/></g><g class="vf-stavebarline" id="vf-auto1417"><rect y="39.5" width="1" height="41" stroke="none"/></g><g class="vf-stavebarline" id="vf-auto1418"><rect x="440" y="39.5" width="1" height="41" stroke="none"/></g><g class="vf-stavenote" id="vf-auto1419"><g class="vf-notehead" id="vf-auto1492" pointer-events="bounding-box"><path stroke="none" d="M17 41.685C17 43.426,18.264 45.391,21.521 45.391C25.733 45.391,30.141 41.938,30.141 38.371C30.141 35.985,28.12 34.665,25.621 34.665C21.689 34.665,17 37.978,17 41.685"/></g></g><g class="vf-stavenote" id="vf-auto1425"><g class="vf-notehead" id="vf-auto1494" pointer-events="bounding-box"><path stroke="none" d="M55.531 46.685C55.531 48.426,56.795 50.391,60.052 50.391C64.264 50.391,68.673 46.938,68.673 43.371C68.673 40.985,66.651 39.665,64.152 39.665C60.221 39.665,55.531 42.978,55.531 46.685"/></g></g><g class="vf-stavenote" id="vf-auto1431"><g class="vf-notehead" id="vf-auto1496" pointer-events="bounding-box"><path stroke="none" d="M94.063 51.685C94.063 53.426,95.327 55.391,98.584 55.391C102.796 55.391,107.204 51.938,107.204 48.371C107.204 45.985,105.183 44.665,102.684 44.665C98.752 44.665,94.063 47.978,94.063 51.685"/></g></g><g class="vf-stavenote" id="vf-auto1437"><g class="vf-notehead" id="vf-auto1498" pointer-events="bounding-box"><path stroke="none" d="M132.594 56.685C132.594 58.426,133.858 60.391,137.115 60.391C141.327 60.391,145.736 56.938,145.736 53.371C145.736 50.985,143.714 49.665,141.215 49.665C137.284 49.665,132.594 52.978,132.594 56.685"/></g></g><g class="vf-stavenote" id="vf-auto1443"><g class="vf-notehead" id="vf-auto1500" pointer-events="bounding-box"><path stroke="none" d="M165.961 56.685C165.961 58.426,167.225 60.391,170.482 60.391C174.694 60.391,179.103 56.938,179.103 53.371C179.103 50.985,177.081 49.665,174.582 49.665C170.651 49.665,165.961 52.978,165.961 56.685"/></g></g><g class="vf-stavenote" id="vf-auto1449"><g class="vf-notehead" id="vf-auto1502" pointer-events="bounding-box"><path stroke="none" d="M199.328 51.685C199.328 53.426,200.592 55.391,203.849 55.391C208.061 55.391,212.47 51.938,212.47 48.371C212.47 45.985,210.448 44.665,207.949 44.665C204.018 44.665,199.328 47.978,199.328 51.685"/></g></g><g class="vf-stavenote" id="vf-auto1455"><g class="vf-notehead" id="vf-auto1504" pointer-events="bounding-box"><path stroke="none" d="M237.86 46.685C237.86 48.426,239.123 50.391,242.381 50.391C246.593 50.391,251.001 46.938,251.001 43.371C251.001 40.985,248.979 39.665,246.48 39.665C242.549 39.665,237.86 42.978,237.86 46.685"/></g></g><g class="vf-stavenote" id="vf-auto1461"><g class="vf-notehead" id="vf-auto1506" pointer-events="bounding-box"><path stroke="none" d="M276.391 41.685C276.391 43.426,277.655 45.391,280.912 45.391C285.124 45.391,289.533 41.938,289.533 38.371C289.533 35.985,287.511 34.665,285.012 34.665C281.081 34.665,276.391 37.978,276.391 41.685"/></g></g><g class="vf-stavenote" id="vf-auto1467"><g class="vf-notehead" id="vf-auto1508" pointer-events="bounding-box"><path stroke="none" d="M314.923 41.685C314.923 43.426,316.186 45.391,319.444 45.391C323.656 45.391,328.064 41.938,328.064 38.371C328.064 35.985,326.042 34.665,323.543 34.665C319.612 34.665,314.923 37.978,314.923 41.685"/></g></g><g class="vf-stavenote" id="vf-auto1473"><g class="vf-notehead" id="vf-auto1510" pointer-events="bounding-box"><path stroke="none" d="M345.973 41.685C345.973 43.426,347.237 45.391,350.494 45.391C354.706 45.391,359.114 41.938,359.114 38.371C359.114 35.985,357.093 34.665,354.594 34.665C350.662 34.665,345.973 37.978,345.973 41.685"/></g></g><g class="vf-stavenote" id="vf-auto1479"><g class="vf-notehead" id="vf-auto1512" pointer-events="bounding-box"><path stroke="none" d="M377.023 41.685C377.023 43.426,378.287 45.391,381.544 45.391C385.756 45.391,390.165 41.938,390.165 38.371C390.165 35.985,388.143 34.665,385.644 34.665C381.713 34.665,377.023 37.978,377.023 41.685"/></g></g><g class="vf-stavenote" id="vf-auto1485"><g class="vf-notehead" id="vf-auto1514" pointer-events="bounding-box"><path stroke="none" d="M408.074 41.685C408.074 43.426,409.337 45.391,412.595 45.391C416.807 45.391,421.215 41.938,421.215 38.371C421.215 35.985,419.193 34.665,416.694 34.665C412.763 34.665,408.074 37.978,408.074 41.685"/></g></g><g class="vf-stem" id="vf-auto1420" pointer-events="bounding-box"><path stroke-width="1.5" fill="none" d="M17.75 42L17.75 76.36"/></g><g class="vf-stem" id="vf-auto1426" pointer-events="bounding-box"><path stroke-width="1.5" fill="none" d="M56.281 47L56.281 79.25"/></g><g class="vf-beam" id="vf-auto1516"><path stroke="none" d="M17 77.054L17 72.054L56.531 74.944L56.531 79.944Z"/></g><g class="vf-stem" id="vf-auto1432" pointer-events="bounding-box"><path stroke-width="1.5" fill="none" d="M94.813 52L94.813 88.287"/></g><g class="vf-stem" id="vf-auto1438" pointer-events="bounding-box"><path stroke-width="1.5" fill="none" d="M133.344 57L133.344 89.25"/></g><g class="vf-stem" id="vf-auto1444" pointer-events="bounding-box"><path stroke-width="1.5" fill="none" d="M166.711 57L166.711 90.084"/></g><g class="vf-beam" id="vf-auto1517"><path stroke="none" d="M94.063 89.018L94.063 84.018L166.961 85.815L166.961 90.815Z"/><path stroke="none" d="M132.594 82.481L132.594 77.481L166.961 78.315L166.961 83.315Z"/></g><g class="vf-stem" id="vf-auto1450" pointer-events="bounding-box"><path stroke-width="1.5" fill="none" d="M200.078 52L200.078 84.25"/></g><g class="vf-stem" id="vf-auto1456" pointer-events="bounding-box"><path stroke-width="1.5" fill="none" d="M238.61 47L238.61 81.36"/></g><g class="vf-beam" id="vf-auto1518"><path stroke="none" d="M199.328 85.056L199.328 80.056L238.86 77.166L238.86 82.166Z"/></g><g class="vf-stem" id="vf-auto1462" pointer-events="bounding-box"><path stroke-width="1.5" fill="none" d="M277.141 42L277.141 81.75"/></g><g class="vf-stem" id="vf-auto1468" pointer-events="bounding-box"><path stroke-width="1.5" fill="none" d="M315.673 42L315.673 81.75"/></g><g class="vf-stem" id="vf-auto1474" pointer-events="bounding-box"><path stroke-width="1.5" fill="none" d="M346.723 42L346.723 81.75"/></g><g class="vf-stem" id="vf-auto1480" pointer-events="bounding-box"><path stroke-width="1.5" fill="none" d="M377.773 42L377.773 81.75"/></g><g class="vf-stem" id="vf-auto1486" pointer-events="bounding-box"><path stroke-width="1.5" fill="none" d="M408.824 42L408.824 81.75"/></g><g class="vf-beam" id="vf-auto1519"><path stroke="none" d="M276.391 82.5L276.391 77.5L409.074 77.5L409.074 82.5Z"/><path stroke="none" d="M314.923 75L314.923 70L409.074 70L409.074 75Z"/><path stroke="none" d="M314.923 67.5L314.923 62.5L409.074 62.5L409.074 67.5Z"/></g></svg>