<svg xmlns="http://www.w3.org/2000/svg" stroke-width="0.3" stroke-dasharray="none" fill="black" stroke="black" font-family="Arial, sans-serif" font-size="10pt" font-weight="normal" font-style="normal" width="450" height="140" viewBox="0 0 450 140" style="width: 450px; height: 140px; border: none;"><g class="vf-stave" id="vf-auto2253" stroke-width="1" fill="#999999" stroke="#999999"><path fill="none" d="M0 40L440 40"/><path fill="none" d="M0 50L440 50"/><path fill="none" d="M0 60L440 60"/><path fill="none" d="M0 70L440 70"/><path fill="none" d="M0 80L440 80"/></g><g class="vf-stavebarline" id="vf-auto2254"><rect y="39.5" width="1" height="41" stroke="none"/></g><g class="vf-stavebarline" id="vf-auto2255"><rect x="440" y="39.5" width="1" height="41" stroke="none"/></g><g class="vf-stavenote" id="vf-auto2256"><g class="vf-notehead" id="vf-auto2329" pointer-events="bounding-box"><path stroke="none" d="M20.145 71.543C20.426 71.599,20.678 71.627,20.959 71.627C24.834 71.627,30.619 66.348,30.506 62.08C30.394 61.041,30.422 59.609,28.316 58.766C27.727 58.485,27.081 58.373,26.379 58.373C22.054 58.373,17.365 63.343,17.028 66.657C17.028 66.909,17 67.134,17 67.387C17 69.409,17.899 71.037,20.145 71.543"/></g></g><g class="vf-stavenote" id="vf-auto2262"><g class="vf-notehead" id="vf-auto2331" pointer-events="bounding-box"><path stroke="none" d="M55.613 66.543C55.894 66.599,56.146 66.627,56.427 66.627C60.302 66.627,66.087 61.348,65.974 57.08C65.862 56.041,65.89 54.609,63.784 53.766C63.195 53.485,62.549 53.373,61.847 53.373C57.522 53.373,52.833 58.343,52.496 61.657C52.496 61.909,52.468 62.134,52.468 62.387C52.468 64.409,53.367 66.037,55.613 66.543"/></g></g><g class="vf-stavenote" id="vf-auto2268"><g class="vf-notehead" id="vf-auto2333" pointer-events="bounding-box"><path stroke="none" d="M91.081 76.543C91.362 76.599,91.615 76.627,91.895 76.627C95.77 76.627,101.555 71.348,101.443 67.08C101.33 66.041,101.358 64.609,99.252 63.766C98.663 63.485,98.017 63.373,97.315 63.373C92.99 63.373,88.301 68.343,87.964 71.657C87.964 71.909,87.936 72.134,87.936 72.387C87.936 74.409,88.835 76.037,91.081 76.543"/></g></g><g class="vf-stavenote" id="vf-auto2274"><g class="vf-notehead" id="vf-auto2335" pointer-events="bounding-box"><path stroke="none" d="M126.549 61.543C126.83 61.599,127.083 61.627,127.363 61.627C131.238 61.627,137.023 56.348,136.911 52.08C136.798 51.041,136.826 49.609,134.72 48.766C134.131 48.485,133.485 48.373,132.783 48.373C128.458 48.373,123.769 53.343,123.432 56.657C123.432 56.909,123.404 57.134,123.404 57.387C123.404 59.409,124.303 61.037,126.549 61.543"/></g></g><g class="vf-stavenote" id="vf-auto2280"><g class="vf-notehead" id="vf-auto2337" pointer-events="bounding-box"><path stroke="none" d="M162.017 81.543C162.298 81.599,162.551 81.627,162.831 81.627C166.706 81.627,172.491 76.348,172.379 72.08C172.266 71.041,172.294 69.609,170.188 68.766C169.599 68.485,168.953 68.373,168.251 68.373C163.926 68.373,159.237 73.343,158.9 76.657C158.9 76.909,158.872 77.134,158.872 77.387C158.872 79.409,159.771 81.037,162.017 81.543"/></g></g><g class="vf-stavenote" id="vf-auto2286"><g class="vf-notehead" id="vf-auto2339" pointer-events="bounding-box"><path stroke="none" d="M197.485 56.543C197.766 56.599,198.019 56.627,198.299 56.627C202.174 56.627,207.959 51.348,207.847 47.08C207.734 46.041,207.762 44.609,205.656 43.766C205.067 43.485,204.421 43.373,203.719 43.373C199.394 43.373,194.705 48.343,194.368 51.657C194.368 51.909,194.34 52.134,194.34 52.387C194.34 54.409,195.239 56.037,197.485 56.543"/></g></g><g class="vf-stavenote" id="vf-auto2292"><g class="vf-notehead" id="vf-auto2341" pointer-events="bounding-box"><path stroke="none" d="M232.953 86.543C233.234 86.599,233.487 86.627,233.767 86.627C237.642 86.627,243.427 81.348,243.315 77.08C243.202 76.041,243.23 74.609,241.124 73.766C240.535 73.485,239.889 73.373,239.187 73.373C234.863 73.373,230.173 78.343,229.836 81.657C229.836 81.909,229.808 82.134,229.808 82.387C229.808 84.409,230.707 86.037,232.953 86.543"/></g></g><g class="vf-stavenote" id="vf-auto2298"><g class="vf-notehead" id="vf-auto2343" pointer-events="bounding-box"><path stroke="none" d="M268.421 51.543C268.702 51.599,268.955 51.627,269.235 51.627C273.11 51.627,278.895 46.348,278.783 42.08C278.67 41.041,278.698 39.609,276.592 38.766C276.003 38.485,275.357 38.373,274.655 38.373C270.331 38.373,265.641 43.343,265.304 46.657C265.304 46.909,265.276 47.134,265.276 47.387C265.276 49.409,266.175 51.037,268.421 51.543"/></g></g><g class="vf-stavenote" id="vf-auto2304"><g class="vf-notehead" id="vf-auto2345" pointer-events="bounding-box"><path stroke="none" d="M303.889 66.543C304.17 66.599,304.423 66.627,304.703 66.627C308.578 66.627,314.363 61.348,314.251 57.08C314.138 56.041,314.166 54.609,312.06 53.766C311.471 53.485,310.825 53.373,310.123 53.373C305.799 53.373,301.109 58.343,300.772 61.657C300.772 61.909,300.744 62.134,300.744 62.387C300.744 64.409,301.643 66.037,303.889 66.543"/></g></g><g class="vf-stavenote" id="vf-auto2310"><g class="vf-notehead" id="vf-auto2347" pointer-events="bounding-box"><path stroke="none" d="M339.357 66.543C339.638 66.599,339.891 66.627,340.171 66.627C344.046 66.627,349.831 61.348,349.719 57.08C349.606 56.041,349.634 54.609,347.528 53.766C346.939 53.485,346.293 53.373,345.591 53.373C341.267 53.373,336.577 58.343,336.24 61.657C336.24 61.909,336.212 62.134,336.212 62.387C336.212 64.409,337.111 66.037,339.357 66.543"/></g></g><g class="vf-stavenote" id="vf-auto2316"><g class="vf-notehead" id="vf-auto2349" pointer-events="bounding-box"><path stroke="none" d="M374.825 76.543C375.106 76.599,375.359 76.627,375.639 76.627C379.515 76.627,385.299 71.348,385.187 67.08C385.074 66.041,385.102 64.609,382.996 63.766C382.407 63.485,381.761 63.373,381.059 63.373C376.735 63.373,372.045 68.343,371.708 71.657C371.708 71.909,371.68 72.134,371.68 72.387C371.68 74.409,372.579 76.037,374.825 76.543"/></g></g><g class="vf-stavenote" id="vf-auto2322"><g class="vf-notehead" id="vf-auto2351" pointer-events="bounding-box"><path stroke="none" d="M410.293 56.543C410.574 56.599,410.827 56.627,411.107 56.627C414.983 56.627,420.767 51.348,420.655 47.08C420.542 46.041,420.57 44.609,418.464 43.766C417.875 43.485,417.229 43.373,416.527 43.373C412.203 43.373,407.513 48.343,407.176 51.657C407.176 51.909,407.148 52.134,407.148 52.387C407.148 54.409,408.047 56.037,410.293 56.543"/></g></g><g class="vf-stem" id="vf-auto2257" pointer-events="bounding-box"><path stroke-width="1.5" fill="none" d="M29.758 63L29.758 28.41"/></g><g class="vf-stem" id="vf-auto2263" pointer-events="bounding-box"><path stroke-width="1.5" fill="none" d="M65.226 58L65.226 25.75"/></g><g class="vf-beam" id="vf-auto2353"><path stroke="none" d="M29.008 27.716L29.008 32.716L65.476 30.056L65.476 25.056Z"/></g><g class="vf-stem" id="vf-auto2269" pointer-events="bounding-box"><path stroke-width="1.5" fill="none" d="M100.694 68L100.694 28.73"/></g><g class="vf-stem" id="vf-auto2275" pointer-events="bounding-box"><path stroke-width="1.5" fill="none" d="M136.162 53L136.162 20.75"/></g><g class="vf-beam" id="vf-auto2354"><path stroke="none" d="M99.944 28.149L99.944 33.149L136.412 25.169L136.412 20.169Z"/></g><g class="vf-stem" id="vf-auto2281" pointer-events="bounding-box"><path stroke-width="1.5" fill="none" d="M171.63 73L171.63 24.617"/></g><g class="vf-stem" id="vf-auto2287" pointer-events="bounding-box"><path stroke-width="1.5" fill="none" d="M207.098 48L207.098 15.75"/></g><g class="vf-beam" id="vf-auto2355"><path stroke="none" d="M170.88 24.055L170.88 29.055L207.348 20.188L207.348 15.188Z"/></g><g class="vf-stem" id="vf-auto2293" pointer-events="bounding-box"><path stroke-width="1.5" fill="none" d="M242.566 78L242.566 19.617"/></g><g class="vf-stem" id="vf-auto2299" pointer-events="bounding-box"><path stroke-width="1.5" fill="none" d="M278.034 43L278.034 10.75"/></g><g class="vf-beam" id="vf-auto2356"><path stroke="none" d="M241.816 19.055L241.816 24.055L278.284 15.188L278.284 10.188Z"/></g><g class="vf-stem" id="vf-auto2305" pointer-events="bounding-box"><path stroke-width="1.5" fill="none" d="M301.494 62L301.494 94.25"/></g><g class="vf-stem" id="vf-auto2311" pointer-events="bounding-box"><path stroke-width="1.5" fill="none" d="M336.962 62L336.962 94.25"/></g><g class="vf-beam" id="vf-auto2357"><path stroke="none" d="M300.744 95L300.744 90L337.212 90L337.212 95Z"/></g><g class="vf-stem" id="vf-auto2317" pointer-events="bounding-box"><path stroke-width="1.5" fill="none" d="M372.43 72L372.43 104.25"/></g><g class="vf-stem" id="vf-auto2323" pointer-events="bounding-box"><path stroke-width="1.5" fill="none" d="M407.898 52L407.898 95.383"/></g><g class="vf-beam" id="vf-auto2358"><path stroke="none" d="M371.68 105.188L371.68 100.188L408.148 91.32L408.148 96.32Z"/></g></svg>