<svg xmlns="http://www.w3.org/2000/svg" stroke-width="0.3" stroke-dasharray="none" fill="black" stroke="black" font-family="Arial, sans-serif" font-size="10pt" font-weight="normal" font-style="normal" width="422" height="250" viewBox="0 0 527.5 312.5" style="width: 422px; height: 250px; border: none;"><g class="vf-stave" id="vf-auto2089" stroke-width="1" fill="#999999" stroke="#999999"><path fill="none" d="M10 50L300.555 50"/><path fill="none" d="M10 60L300.555 60"/><path fill="none" d="M10 70L300.555 70"/><path fill="none" d="M10 80L300.555 80"/><path fill="none" d="M10 90L300.555 90"/></g><g class="vf-stavebarline" id="vf-auto2090"/><g class="vf-stavebarline" id="vf-auto2091"><rect x="300.555" y="49.5" width="1" height="41" stroke="none"/></g><g class="vf-clef" id="vf-auto2092"><path stroke="none" d="M29.112 37.837C29.112 37.837,29.141 37.837,29.17 37.837C29.544 37.837,30.034 38.211,30.667 38.96C32.942 41.696,34.44 46.045,34.44 49.731C34.44 49.99,34.44 50.278,34.411 50.538C34.152 54.829,32.28 58.515,28.68 61.942C28.363 62.259,27.902 62.691,27.701 62.864L27.355 63.238L28.075 66.608C28.478 68.48,28.795 70.006,28.795 70.006C28.795 70.006,28.795 70.006,28.795 70.006C28.824 70.006,28.939 69.978,29.026 69.978C29.198 69.949,29.659 69.949,30.12 69.949C30.466 69.949,30.84 69.949,30.984 69.949C35.592 70.525,38.962 74.125,39.278 78.79C39.307 78.992,39.307 79.194,39.307 79.395C39.307 83.254,36.802 86.941,33.029 88.554C32.885 88.611,32.798 88.669,32.798 88.669C32.798 88.669,33 89.677,33.259 90.886C33.518 92.125,33.778 93.306,33.806 93.536C33.979 94.458,34.066 95.322,34.066 96.157C34.066 98.317,33.49 100.131,32.395 101.542C30.754 103.587,28.392 104.624,26.03 104.624C23.726 104.624,21.422 103.674,19.752 101.773C19.061 100.966,18.686 100.016,18.686 99.037C18.686 98.202,18.974 97.338,19.55 96.56C20.386 95.437,21.624 94.89,22.862 94.89C24.014 94.89,25.166 95.379,25.973 96.358C26.549 97.107,26.808 97.942,26.808 98.778C26.808 100.678,25.397 102.493,23.237 102.579L22.978 102.579L23.064 102.637C23.928 103.069,24.936 103.299,25.973 103.299C27.24 103.299,28.565 102.954,29.602 102.291C31.704 100.966,32.741 98.922,32.741 96.157C32.741 95.264,32.626 94.285,32.424 93.248C32.338 92.758,31.531 89.101,31.531 89.101C31.531 89.101,31.531 89.101,31.531 89.101C31.502 89.101,31.358 89.13,31.186 89.158C30.667 89.302,30.12 89.389,29.515 89.446C29.314 89.475,28.91 89.475,28.478 89.475C27.931 89.475,27.384 89.475,27.154 89.446C20.126 88.669,15 82.995,15 75.968C15 72.858,15.893 70.15,17.765 67.558C19.752 64.794,21.768 62.403,24.245 59.898L25.109 59.034L24.734 57.306C24.533 56.326,24.331 55.318,24.245 55.03C23.899 53.389,23.726 52.582,23.669 52.266C23.525 51.373,23.467 50.48,23.467 49.587C23.467 45.469,25.022 41.552,27.902 38.758C28.565 38.125,28.91 37.866,29.112 37.837M31.013 43.482C30.84 43.453,30.696 43.424,30.523 43.424C29.688 43.424,28.68 43.942,27.73 44.893C26.088 46.534,25.195 49.011,25.195 51.718C25.195 52.41,25.253 53.101,25.368 53.821C25.426 54.138,26.203 57.968,26.232 57.968C26.232 57.968,26.232 57.968,26.232 57.968C26.261 57.968,27.182 57.018,27.442 56.73C30.638 53.187,32.453 49.357,32.453 46.362C32.453 45.872,32.395 45.411,32.309 44.95C32.107 44.086,31.733 43.654,31.013 43.482M26.318 64.707C26.29 64.534,26.261 64.39,26.261 64.39C26.146 64.39,23.87 67.04,22.834 68.336C20.702 71.043,19.925 72.31,19.32 74.038C18.888 75.363,18.658 76.688,18.658 77.984C18.658 80.317,19.349 82.534,20.674 84.406C22.517 86.998,25.426 88.496,28.421 88.496C28.91 88.496,29.4 88.467,29.89 88.381C30.408 88.294,31.301 88.064,31.301 88.006C31.301 87.978,30.955 86.394,30.552 84.435C30.12 82.506,29.486 79.51,29.112 77.811C28.766 76.112,28.45 74.701,28.45 74.701C28.45 74.701,28.45 74.701,28.45 74.701C28.334 74.701,27.701 74.96,27.355 75.133C25.598 76.112,24.677 77.84,24.677 79.568C24.677 81.094,25.397 82.592,26.866 83.485C27.154 83.658,27.298 83.859,27.298 84.09C27.298 84.205,27.24 84.349,27.125 84.464C27.038 84.579,26.923 84.666,26.75 84.666C26.549 84.666,26.29 84.55,25.858 84.32C23.237 82.966,21.912 80.403,21.912 77.782C21.912 75.334,23.093 72.858,25.454 71.302C26.059 70.899,27.269 70.323,27.499 70.323C27.499 70.323,27.528 70.294,27.528 70.294C27.528 70.266,27.528 70.266,27.528 70.266C27.499 70.208,26.434 65.197,26.318 64.707M30.725 74.499C30.581 74.499,30.293 74.47,30.12 74.47L29.746 74.47L29.774 74.528C29.774 74.557,30.293 77.034,30.955 80.029C31.589 83.024,32.136 85.616,32.165 85.789C32.222 85.962,32.309 86.422,32.395 86.797L32.539 87.488L32.626 87.43C34.21 86.538,35.362 85.27,35.995 83.715C36.37 82.851,36.542 81.987,36.542 81.123C36.542 77.869,34.152 74.902,30.725 74.499"/></g><g class="vf-timesignature" id="vf-auto2093"><path stroke="none" d="M61.608 51.77C61.81 51.77,62.011 51.741,62.213 51.741C62.99 51.741,63.883 51.856,64.517 52.058C66.936 52.749,68.347 54.362,68.347 56.262C68.347 56.896,68.203 57.53,67.886 58.192C67.022 59.978,65.381 61.245,62.933 62.08C60.6 62.829,59.102 63.779,58.008 65.162L57.893 65.277L58.037 65.162C59.218 64.211,60.658 63.722,62.069 63.722C62.99 63.722,63.883 63.923,64.661 64.355C65.294 64.701,65.669 64.845,66.158 64.931C66.302 64.96,66.475 64.96,66.619 64.96C67.339 64.96,68.002 64.701,68.232 64.298C68.318 64.096,68.491 64.01,68.664 64.01C68.866 64.01,69.096 64.182,69.096 64.47C69.096 64.73,68.75 65.594,68.434 66.141C67.512 67.725,66.043 68.733,64.574 68.733L64.546 68.733C63.941 68.704,63.768 68.675,63.307 68.387C62.069 67.581,60.773 67.178,59.534 67.178C59.16 67.178,58.814 67.206,58.469 67.293C57.778 67.437,57.058 67.84,56.798 68.214C56.683 68.358,56.51 68.445,56.366 68.445C56.194 68.445,56.021 68.358,55.963 68.157C55.934 68.128,55.934 68.042,55.934 67.926C55.934 67.581,55.992 67.005,56.107 66.602C56.683 64.211,58.382 62.282,60.802 61.216C62.587 60.438,63.797 58.883,64.142 56.954C64.171 56.723,64.2 56.493,64.2 56.291C64.2 55.456,63.883 54.707,63.307 54.16C62.674 53.555,61.896 53.238,60.917 53.238C60.744 53.238,60.542 53.267,60.341 53.296C60.11 53.296,60.053 53.325,60.053 53.325C60.053 53.354,60.082 53.354,60.11 53.382C60.802 53.814,61.118 54.477,61.118 55.168C61.118 56.032,60.6 56.896,59.65 57.213C59.419 57.299,59.189 57.328,58.958 57.328C57.749 57.328,56.741 56.291,56.741 55.082C56.741 54.88,56.77 54.678,56.827 54.448C57.202 53.152,59.246 52,61.608 51.77M62.501 70L62.558 70L62.472 70M62.501 51.05L62.558 51.05L62.472 51.05"/><path stroke="none" d="M60.758 72.086C60.816 72.058,62.458 72.058,64.013 72.058C65.338 72.058,66.634 72.058,66.662 72.086C66.835 72.144,66.95 72.317,66.95 72.49C66.95 72.691,66.922 72.72,66.374 73.325C65.885 73.843,64.358 75.571,62.803 77.328C62.342 77.846,61.91 78.336,61.795 78.451C61.68 78.566,60.989 79.344,60.24 80.179C59.52 81.014,58.598 82.051,58.224 82.454C57.85 82.886,57.533 83.232,57.533 83.261C57.533 83.261,57.533 83.261,57.533 83.261C57.533 83.29,57.763 83.29,60.125 83.29L62.717 83.29L62.746 81.418C62.746 79.603,62.746 79.574,62.774 79.517C62.803 79.488,63.379 78.826,64.07 78.048C64.762 77.27,65.568 76.349,65.885 76.032C66.662 75.139,66.634 75.168,66.864 75.168C67.066 75.168,67.21 75.254,67.267 75.398C67.296 75.485,67.296 75.629,67.296 79.373L67.296 83.29L67.987 83.29C68.65 83.29,68.707 83.29,68.794 83.318C69.024 83.405,69.168 83.635,69.168 83.866C69.168 84.038,69.11 84.182,68.995 84.298C68.822 84.47,68.794 84.47,68.016 84.47L67.325 84.47L67.325 84.643C67.325 84.73,67.325 84.989,67.325 85.219C67.354 86.4,67.728 86.976,68.88 87.552C69.11 87.667,69.254 87.84,69.254 88.013C69.254 88.128,69.197 88.243,69.11 88.33C68.995 88.445,69.283 88.445,66.547 88.445C66.115 88.445,65.597 88.445,65.021 88.445C64.445 88.445,63.926 88.445,63.494 88.445C60.758 88.445,61.046 88.445,60.931 88.33C60.845 88.243,60.787 88.128,60.787 88.013C60.787 87.84,60.931 87.667,61.162 87.552C62.314 86.976,62.688 86.4,62.717 85.219C62.717 84.989,62.717 84.73,62.717 84.643L62.717 84.47L59.434 84.47C58.944 84.47,58.541 84.47,58.195 84.47C55.834 84.47,56.035 84.47,55.92 84.355C55.834 84.269,55.776 84.154,55.776 84.038C55.776 83.923,55.862 83.75,56.006 83.578C58.742 80.496,60.384 76.637,60.499 72.893C60.499 72.288,60.528 72.202,60.758 72.086M62.515 90L62.544 90L62.458 90M62.515 71.05L62.544 71.05L62.458 71.05"/></g><g class="vf-stave" id="vf-auto2097" stroke-width="1" fill="#999999" stroke="#999999"><path fill="none" d="M10 170L300.555 170"/><path fill="none" d="M10 180L300.555 180"/><path fill="none" d="M10 190L300.555 190"/><path fill="none" d="M10 200L300.555 200"/><path fill="none" d="M10 210L300.555 210"/></g><g class="vf-stavebarline" id="vf-auto2098"/><g class="vf-stavebarline" id="vf-auto2099"><rect x="300.555" y="169.5" width="1" height="41" stroke="none"/></g><g class="vf-clef" id="vf-auto2100"><path stroke="none" d="M23.813 170.15C24.101 170.122,24.36 170.122,24.648 170.122C27.557 170.122,30.552 171.014,32.51 172.483C35.045 174.384,36.341 176.976,36.341 180.058C36.341 180.49,36.312 180.922,36.254 181.382C35.304 189.619,28.536 197.165,19.349 200.218C17.995 200.678,15.835 201.226,15.432 201.226C15.173 201.226,15 201.053,15 200.794C15 200.506,15.058 200.448,15.662 200.218C24.562 196.906,30.581 189.878,31.272 181.958C31.301 181.382,31.33 180.806,31.33 180.259C31.33 176.4,30.062 173.434,27.701 171.936C26.693 171.302,25.541 171.014,24.36 171.014C21.71 171.014,18.946 172.512,17.707 174.989C17.621 175.162,17.419 175.622,17.419 175.651C17.419 175.651,17.419 175.651,17.419 175.651C17.419 175.651,17.506 175.622,17.592 175.565C18.197 175.162,18.888 174.989,19.579 174.989C21.278 174.989,22.92 176.141,23.323 177.984C23.41 178.272,23.438 178.56,23.438 178.848C23.438 180.979,21.71 182.736,19.522 182.736C19.349 182.736,19.147 182.707,18.974 182.678C16.757 182.39,15.23 180.403,15.23 177.84L15.23 177.84C15.23 173.837,19.003 170.438,23.813 170.15M39.048 173.923C39.077 173.923,39.134 173.894,39.192 173.894C39.394 173.894,39.653 173.923,39.739 173.981C40.43 174.211,40.776 174.787,40.776 175.392C40.776 175.968,40.43 176.573,39.739 176.803C39.624 176.832,39.451 176.861,39.307 176.861C39.134 176.861,38.962 176.832,38.846 176.803C38.155 176.573,37.838 175.968,37.838 175.392C37.838 174.73,38.242 174.067,39.048 173.923M39.048 183.139C39.077 183.139,39.134 183.139,39.192 183.139C39.394 183.139,39.653 183.168,39.739 183.197C40.43 183.427,40.776 184.032,40.776 184.608C40.776 185.213,40.43 185.818,39.739 186.019C39.624 186.077,39.451 186.077,39.307 186.077C39.134 186.077,38.962 186.077,38.846 186.019C38.155 185.789,37.838 185.213,37.838 184.608C37.838 183.974,38.242 183.312,39.048 183.139"/></g><g class="vf-timesignature" id="vf-auto2101"><path stroke="none" d="M61.608 171.77C61.81 171.77,62.011 171.741,62.213 171.741C62.99 171.741,63.883 171.856,64.517 172.058C66.936 172.749,68.347 174.362,68.347 176.262C68.347 176.896,68.203 177.53,67.886 178.192C67.022 179.978,65.381 181.245,62.933 182.08C60.6 182.829,59.102 183.779,58.008 185.162L57.893 185.277L58.037 185.162C59.218 184.211,60.658 183.722,62.069 183.722C62.99 183.722,63.883 183.923,64.661 184.355C65.294 184.701,65.669 184.845,66.158 184.931C66.302 184.96,66.475 184.96,66.619 184.96C67.339 184.96,68.002 184.701,68.232 184.298C68.318 184.096,68.491 184.01,68.664 184.01C68.866 184.01,69.096 184.182,69.096 184.47C69.096 184.73,68.75 185.594,68.434 186.141C67.512 187.725,66.043 188.733,64.574 188.733L64.546 188.733C63.941 188.704,63.768 188.675,63.307 188.387C62.069 187.581,60.773 187.178,59.534 187.178C59.16 187.178,58.814 187.206,58.469 187.293C57.778 187.437,57.058 187.84,56.798 188.214C56.683 188.358,56.51 188.445,56.366 188.445C56.194 188.445,56.021 188.358,55.963 188.157C55.934 188.128,55.934 188.042,55.934 187.926C55.934 187.581,55.992 187.005,56.107 186.602C56.683 184.211,58.382 182.282,60.802 181.216C62.587 180.438,63.797 178.883,64.142 176.954C64.171 176.723,64.2 176.493,64.2 176.291C64.2 175.456,63.883 174.707,63.307 174.16C62.674 173.555,61.896 173.238,60.917 173.238C60.744 173.238,60.542 173.267,60.341 173.296C60.11 173.296,60.053 173.325,60.053 173.325C60.053 173.354,60.082 173.354,60.11 173.382C60.802 173.814,61.118 174.477,61.118 175.168C61.118 176.032,60.6 176.896,59.65 177.213C59.419 177.299,59.189 177.328,58.958 177.328C57.749 177.328,56.741 176.291,56.741 175.082C56.741 174.88,56.77 174.678,56.827 174.448C57.202 173.152,59.246 172,61.608 171.77M62.501 190L62.558 190L62.472 190M62.501 171.05L62.558 171.05L62.472 171.05"/><path stroke="none" d="M60.758 192.086C60.816 192.058,62.458 192.058,64.013 192.058C65.338 192.058,66.634 192.058,66.662 192.086C66.835 192.144,66.95 192.317,66.95 192.49C66.95 192.691,66.922 192.72,66.374 193.325C65.885 193.843,64.358 195.571,62.803 197.328C62.342 197.846,61.91 198.336,61.795 198.451C61.68 198.566,60.989 199.344,60.24 200.179C59.52 201.014,58.598 202.051,58.224 202.454C57.85 202.886,57.533 203.232,57.533 203.261C57.533 203.261,57.533 203.261,57.533 203.261C57.533 203.29,57.763 203.29,60.125 203.29L62.717 203.29L62.746 201.418C62.746 199.603,62.746 199.574,62.774 199.517C62.803 199.488,63.379 198.826,64.07 198.048C64.762 197.27,65.568 196.349,65.885 196.032C66.662 195.139,66.634 195.168,66.864 195.168C67.066 195.168,67.21 195.254,67.267 195.398C67.296 195.485,67.296 195.629,67.296 199.373L67.296 203.29L67.987 203.29C68.65 203.29,68.707 203.29,68.794 203.318C69.024 203.405,69.168 203.635,69.168 203.866C69.168 204.038,69.11 204.182,68.995 204.298C68.822 204.47,68.794 204.47,68.016 204.47L67.325 204.47L67.325 204.643C67.325 204.73,67.325 204.989,67.325 205.219C67.354 206.4,67.728 206.976,68.88 207.552C69.11 207.667,69.254 207.84,69.254 208.013C69.254 208.128,69.197 208.243,69.11 208.33C68.995 208.445,69.283 208.445,66.547 208.445C66.115 208.445,65.597 208.445,65.021 208.445C64.445 208.445,63.926 208.445,63.494 208.445C60.758 208.445,61.046 208.445,60.931 208.33C60.845 208.243,60.787 208.128,60.787 208.013C60.787 207.84,60.931 207.667,61.162 207.552C62.314 206.976,62.688 206.4,62.717 205.219C62.717 204.989,62.717 204.73,62.717 204.643L62.717 204.47L59.434 204.47C58.944 204.47,58.541 204.47,58.195 204.47C55.834 204.47,56.035 204.47,55.92 204.355C55.834 204.269,55.776 204.154,55.776 204.038C55.776 203.923,55.862 203.75,56.006 203.578C58.742 200.496,60.384 196.637,60.499 192.893C60.499 192.288,60.528 192.202,60.758 192.086M62.515 210L62.544 210L62.458 210M62.515 191.05L62.544 191.05L62.458 191.05"/></g><g class="vf-stavenote" id="vf-auto2105"><g class="vf-stem" id="vf-auto2106" pointer-events="bounding-box"><path stroke-width="1.5" fill="none" d="M96.869 56.5L96.869 90"/></g><g class="vf-notehead" id="vf-auto2108" pointer-events="bounding-box"><path stroke="none" d="M103.223 49.889C103.308 49.889,103.392 49.889,103.532 49.889C103.897 49.889,104.431 49.918,104.627 49.946C106.958 50.283,108.109 51.827,108.109 53.624C108.109 55.534,106.818 57.724,104.234 59.128C102.971 59.802,101.679 60.111,100.5 60.111C98.337 60.111,96.568 59.044,96.203 57.162C96.147 56.881,96.119 56.629,96.119 56.376C96.119 53.343,99.376 50.283,103.223 49.889"/><path stroke="none" d="M90.219 40.691C90.274 40.663,90.356 40.636,90.438 40.636C90.657 40.636,90.876 40.773,90.958 40.992C90.985 41.101,90.985 41.128,90.985 44.603C90.985 47.859,90.985 48.078,91.04 48.078C91.04 48.078,91.04 48.078,91.04 48.078C91.341 47.996,92.462 47.75,92.544 47.75C92.791 47.75,92.982 47.886,93.064 48.078C93.092 48.16,93.119 48.789,93.119 49.419C93.119 50.048,93.092 50.677,93.064 50.759C92.982 51.033,92.928 51.033,91.833 51.306L90.985 51.525L90.985 54.425C90.985 57.134,90.985 57.353,91.012 57.353C91.04 57.353,91.04 57.353,91.04 57.353C91.341 57.244,92.462 56.997,92.544 56.997C92.709 56.997,92.818 57.052,92.955 57.161C93.092 57.326,93.092 57.271,93.092 58.311C93.092 58.42,93.092 58.557,93.092 58.694C93.092 58.83,93.092 58.94,93.092 59.049C93.092 60.116,93.092 60.062,92.955 60.198C92.818 60.335,92.818 60.335,91.833 60.581L90.985 60.773L90.985 64.33C90.985 67.832,90.985 67.859,90.958 67.941C90.876 68.188,90.657 68.297,90.438 68.297C90.301 68.297,90.137 68.242,90.027 68.133C89.891 67.996,89.863 68.242,89.863 66.053C89.863 65.616,89.863 65.096,89.863 64.467C89.863 62.579,89.863 61.047,89.863 61.047C89.863 61.047,89.316 61.183,88.659 61.348C87.975 61.512,87.428 61.648,87.428 61.648C87.428 61.648,87.428 63.29,87.428 65.287C87.428 68.872,87.428 68.899,87.373 69.008C87.291 69.227,87.072 69.364,86.854 69.364C86.717 69.364,86.553 69.309,86.443 69.2C86.306 69.036,86.306 69.282,86.306 67.066C86.306 66.628,86.306 66.081,86.306 65.424C86.306 62.168,86.306 61.949,86.279 61.949C86.279 61.949,86.279 61.949,86.252 61.949C85.923 62.032,84.911 62.25,84.829 62.25C84.583 62.25,84.364 62.114,84.282 61.922C84.254 61.84,84.254 61.211,84.254 60.581C84.254 59.952,84.254 59.323,84.282 59.241C84.391 58.995,84.446 58.967,85.486 58.694L86.306 58.502L86.306 55.575C86.306 52.866,86.306 52.674,86.279 52.674C86.279 52.674,86.279 52.674,86.252 52.674C85.923 52.756,84.911 53.003,84.829 53.003C84.583 53.003,84.364 52.866,84.282 52.647C84.254 52.592,84.254 51.936,84.254 51.306C84.254 50.677,84.254 50.048,84.282 49.966C84.391 49.72,84.446 49.692,85.486 49.446L86.306 49.254L86.306 45.698C86.306 42.168,86.306 42.141,86.334 42.059C86.416 41.812,86.635 41.703,86.854 41.703C86.99 41.703,87.155 41.758,87.264 41.867C87.401 42.004,87.428 41.758,87.428 43.947C87.428 44.384,87.428 44.904,87.428 45.561C87.428 47.421,87.428 48.953,87.428 48.953C87.428 48.953,87.975 48.817,88.632 48.68C89.316 48.516,89.863 48.379,89.863 48.379C89.863 48.379,89.863 46.737,89.863 44.74C89.863 41.128,89.863 41.101,89.918 40.992C89.945 40.882,90.082 40.745,90.219 40.691M89.863 54.699C89.863 52.401,89.863 51.799,89.863 51.799L89.863 51.799C89.836 51.799,89.644 51.826,89.425 51.908C89.207 51.963,88.659 52.072,88.222 52.182L87.428 52.401L87.428 55.301C87.428 56.915,87.428 58.228,87.428 58.228C87.428 58.228,87.975 58.092,88.632 57.928C89.316 57.763,89.863 57.627,89.863 57.627C89.863 57.627,89.863 56.313,89.863 54.699"/></g></g><g class="vf-stavenote" id="vf-auto2111"><g class="vf-notehead" id="vf-auto2114" pointer-events="bounding-box"><path stroke="none" d="M203.987 61.688C204.099 61.66,204.184 61.66,204.296 61.66C204.886 61.66,205.588 61.913,206.065 62.278C206.795 62.84,207.16 63.682,207.16 64.524C207.16 65.198,206.936 65.872,206.458 66.378L206.346 66.518L206.486 66.462C208.031 66.041,209.379 64.777,210.024 63.148C210.052 63.036,210.137 62.896,210.137 62.868C210.277 62.727,210.446 62.643,210.614 62.643C210.923 62.643,211.204 62.868,211.204 63.205C211.204 63.345,204.296 86.399,204.212 86.567C204.128 86.764,203.931 86.848,203.706 86.848C203.482 86.848,203.257 86.736,203.173 86.483C203.145 86.455,203.117 86.427,203.117 86.371C203.117 86.146,203.369 85.388,204.689 81.007C205.532 78.143,206.234 75.841,206.234 75.813C206.234 75.813,206.234 75.813,206.234 75.813C206.205 75.813,206.121 75.897,205.981 75.981C204.97 76.767,203.706 77.16,202.527 77.16C201.46 77.16,200.421 76.823,199.607 76.178C198.933 75.616,198.596 74.802,198.596 73.959C198.596 73.229,198.849 72.499,199.41 71.938C199.972 71.32,200.73 71.039,201.488 71.039C202.527 71.039,203.566 71.601,204.071 72.64C204.268 73.033,204.352 73.454,204.352 73.875C204.352 74.577,204.099 75.251,203.65 75.756L203.538 75.869L203.678 75.841C205.223 75.419,206.571 74.128,207.188 72.555C207.244 72.387,209.042 66.49,209.042 66.462C209.042 66.462,209.042 66.462,209.042 66.462C209.013 66.462,208.929 66.518,208.789 66.63C207.778 67.389,206.542 67.782,205.335 67.782C204.268 67.782,203.229 67.473,202.415 66.799C201.741 66.265,201.404 65.451,201.404 64.609C201.404 63.879,201.657 63.148,202.218 62.559C202.667 62.081,203.229 61.801,203.987 61.688"/></g></g><g class="vf-stavenote" id="vf-auto2115"><g class="vf-notehead" id="vf-auto2134" pointer-events="bounding-box"><path stroke="none" d="M230.03 64.889C230.114 64.889,230.198 64.889,230.339 64.889C230.704 64.889,231.237 64.918,231.434 64.946C233.764 65.283,234.916 66.827,234.916 68.624C234.916 70.534,233.624 72.724,231.041 74.128C229.777 74.802,228.485 75.111,227.306 75.111C225.144 75.111,223.375 74.044,223.01 72.162C222.954 71.881,222.926 71.629,222.926 71.376C222.926 68.343,226.183 65.283,230.03 64.889"/></g></g><g class="vf-stavenote" id="vf-auto2121"><g class="vf-notehead" id="vf-auto2136" pointer-events="bounding-box"><path stroke="none" d="M254.36 54.889C254.444 54.889,254.528 54.889,254.668 54.889C255.034 54.889,255.567 54.918,255.764 54.946C258.094 55.283,259.246 56.827,259.246 58.624C259.246 60.534,257.954 62.724,255.37 64.128C254.107 64.802,252.815 65.111,251.636 65.111C249.474 65.111,247.705 64.044,247.34 62.162C247.283 61.881,247.255 61.629,247.255 61.376C247.255 58.343,250.513 55.283,254.36 54.889"/><path stroke="none" d="M266.246 55 A2 2 0 0 0 262.246 55 A2 2 0 0 0 266.246 55"/></g></g><g class="vf-stavenote" id="vf-auto2128"><g class="vf-notehead" id="vf-auto2138" pointer-events="bounding-box"><path stroke="none" d="M286.804 59.889C286.888 59.889,286.972 59.889,287.113 59.889C287.478 59.889,288.011 59.918,288.208 59.946C290.538 60.283,291.69 61.827,291.69 63.624C291.69 65.534,290.398 67.724,287.815 69.128C286.551 69.802,285.259 70.111,284.08 70.111C281.918 70.111,280.149 69.044,279.784 67.162C279.728 66.881,279.7 66.629,279.7 66.376C279.7 63.343,282.957 60.283,286.804 59.889"/></g></g><g class="vf-stavenote" id="vf-auto2142"><g class="vf-notehead" id="vf-auto2172" pointer-events="bounding-box"><path stroke="none" d="M103.223 189.889C103.308 189.889,103.392 189.889,103.532 189.889C103.897 189.889,104.431 189.918,104.627 189.946C106.958 190.283,108.109 191.827,108.109 193.624C108.109 195.534,106.818 197.724,104.234 199.128C102.971 199.802,101.679 200.111,100.5 200.111C98.337 200.111,96.568 199.044,96.203 197.162C96.147 196.881,96.119 196.629,96.119 196.376C96.119 193.343,99.376 190.283,103.223 189.889"/></g></g><g class="vf-stavenote" id="vf-auto2148"><g class="vf-notehead" id="vf-auto2174" pointer-events="bounding-box"><path stroke="none" d="M127.764 159.889C127.848 159.889,127.932 159.889,128.073 159.889C128.438 159.889,128.971 159.918,129.168 159.946C131.499 160.283,132.65 161.827,132.65 163.624C132.65 165.534,131.358 167.724,128.775 169.128C127.511 169.802,126.22 170.111,125.04 170.111C122.878 170.111,121.109 169.044,120.744 167.162C120.688 166.881,120.66 166.629,120.66 166.376C120.66 163.343,123.917 160.283,127.764 159.889"/></g></g><g class="vf-stavenote" id="vf-auto2154"><path stroke-width="1.4" fill="none" stroke="#444" d="M142.2 160L160.191 160"/><g class="vf-notehead" id="vf-auto2176" pointer-events="bounding-box"><path stroke="none" d="M152.305 154.889C152.389 154.889,152.473 154.889,152.613 154.889C152.979 154.889,153.512 154.918,153.709 154.946C156.039 155.283,157.191 156.827,157.191 158.624C157.191 160.534,155.899 162.724,153.315 164.128C152.052 164.802,150.76 165.111,149.581 165.111C147.419 165.111,145.65 164.044,145.285 162.162C145.228 161.881,145.2 161.629,145.2 161.376C145.2 158.343,148.458 155.283,152.305 154.889"/></g></g><g class="vf-stavenote" id="vf-auto2160"><g class="vf-notehead" id="vf-auto2178" pointer-events="bounding-box"><path stroke="none" d="M181.159 84.889C181.244 84.889,181.328 84.889,181.468 84.889C181.833 84.889,182.367 84.918,182.563 84.946C184.894 85.283,186.045 86.827,186.045 88.624C186.045 90.534,184.754 92.724,182.17 94.128C180.907 94.802,179.615 95.111,178.436 95.111C176.273 95.111,174.504 94.044,174.139 92.162C174.083 91.881,174.055 91.629,174.055 91.376C174.055 88.343,177.312 85.283,181.159 84.889"/><path stroke="none" d="M168.155 75.691C168.21 75.663,168.292 75.636,168.374 75.636C168.593 75.636,168.812 75.773,168.894 75.992C168.921 76.101,168.921 76.128,168.921 79.603C168.921 82.859,168.921 83.078,168.976 83.078C168.976 83.078,168.976 83.078,168.976 83.078C169.277 82.996,170.399 82.75,170.481 82.75C170.727 82.75,170.918 82.886,171 83.078C171.028 83.16,171.055 83.789,171.055 84.419C171.055 85.048,171.028 85.677,171 85.759C170.918 86.033,170.864 86.033,169.769 86.306L168.921 86.525L168.921 89.425C168.921 92.134,168.921 92.353,168.948 92.353C168.976 92.353,168.976 92.353,168.976 92.353C169.277 92.244,170.399 91.997,170.481 91.997C170.645 91.997,170.754 92.052,170.891 92.161C171.028 92.326,171.028 92.271,171.028 93.311C171.028 93.42,171.028 93.557,171.028 93.694C171.028 93.83,171.028 93.94,171.028 94.049C171.028 95.116,171.028 95.062,170.891 95.198C170.754 95.335,170.754 95.335,169.769 95.581L168.921 95.773L168.921 99.33C168.921 102.832,168.921 102.859,168.894 102.941C168.812 103.188,168.593 103.297,168.374 103.297C168.237 103.297,168.073 103.242,167.963 103.133C167.827 102.996,167.799 103.242,167.799 101.053C167.799 100.616,167.799 100.096,167.799 99.467C167.799 97.579,167.799 96.047,167.799 96.047C167.799 96.047,167.252 96.183,166.595 96.348C165.911 96.512,165.364 96.648,165.364 96.648C165.364 96.648,165.364 98.29,165.364 100.287C165.364 103.872,165.364 103.899,165.31 104.008C165.227 104.227,165.009 104.364,164.79 104.364C164.653 104.364,164.489 104.309,164.379 104.2C164.243 104.036,164.243 104.282,164.243 102.066C164.243 101.628,164.243 101.081,164.243 100.424C164.243 97.168,164.243 96.949,164.215 96.949C164.215 96.949,164.215 96.949,164.188 96.949C163.859 97.032,162.847 97.25,162.765 97.25C162.519 97.25,162.3 97.114,162.218 96.922C162.191 96.84,162.191 96.211,162.191 95.581C162.191 94.952,162.191 94.323,162.218 94.241C162.327 93.995,162.382 93.967,163.422 93.694L164.243 93.502L164.243 90.575C164.243 87.866,164.243 87.674,164.215 87.674C164.215 87.674,164.215 87.674,164.188 87.674C163.859 87.756,162.847 88.003,162.765 88.003C162.519 88.003,162.3 87.866,162.218 87.647C162.191 87.592,162.191 86.936,162.191 86.306C162.191 85.677,162.191 85.048,162.218 84.966C162.327 84.72,162.382 84.692,163.422 84.446L164.243 84.254L164.243 80.698C164.243 77.168,164.243 77.141,164.27 77.059C164.352 76.812,164.571 76.703,164.79 76.703C164.927 76.703,165.091 76.758,165.2 76.867C165.337 77.004,165.364 76.758,165.364 78.947C165.364 79.384,165.364 79.904,165.364 80.561C165.364 82.421,165.364 83.953,165.364 83.953C165.364 83.953,165.911 83.817,166.568 83.68C167.252 83.516,167.799 83.379,167.799 83.379C167.799 83.379,167.799 81.737,167.799 79.74C167.799 76.128,167.799 76.101,167.854 75.992C167.881 75.882,168.018 75.745,168.155 75.691M167.799 89.699C167.799 87.401,167.799 86.799,167.799 86.799L167.799 86.799C167.772 86.799,167.58 86.826,167.362 86.908C167.143 86.963,166.595 87.072,166.158 87.182L165.364 87.401L165.364 90.301C165.364 91.915,165.364 93.228,165.364 93.228C165.364 93.228,165.911 93.092,166.568 92.928C167.252 92.763,167.799 92.627,167.799 92.627C167.799 92.627,167.799 91.313,167.799 89.699"/></g></g><g class="vf-stavenote" id="vf-auto2168"><path stroke-width="1.4" fill="none" stroke="#444" d="M195.596 160L213.586 160"/><g class="vf-stem" id="vf-auto2169" pointer-events="bounding-box"><path stroke-width="1.5" fill="none" d="M199.346 161.5L199.346 195"/></g><g class="vf-notehead" id="vf-auto2171" pointer-events="bounding-box"><path stroke="none" d="M205.7 154.889C205.784 154.889,205.869 154.889,206.009 154.889C206.374 154.889,206.907 154.918,207.104 154.946C209.435 155.283,210.586 156.827,210.586 158.624C210.586 160.534,209.294 162.724,206.711 164.128C205.447 164.802,204.156 165.111,202.976 165.111C200.814 165.111,199.045 164.044,198.68 162.162C198.624 161.881,198.596 161.629,198.596 161.376C198.596 158.343,201.853 155.283,205.7 154.889"/></g></g><g class="vf-stem" id="vf-auto2116" pointer-events="bounding-box"><path stroke-width="1.5" fill="none" d="M234.166 68.5L234.166 28.183"/></g><g class="vf-stem" id="vf-auto2122" pointer-events="bounding-box"><path stroke-width="1.5" fill="none" d="M258.496 58.5L258.496 25.75"/></g><g class="vf-stem" id="vf-auto2129" pointer-events="bounding-box"><path stroke-width="1.5" fill="none" d="M290.94 63.5L290.94 22.506"/></g><g class="vf-beam" id="vf-auto2140"><path stroke="none" d="M233.416 27.508L233.416 32.508L291.19 26.831L291.19 21.831Z"/><path stroke="none" d="M233.416 35.008L233.416 40.008L291.19 34.331L291.19 29.331Z"/><path stroke="none" d="M290.19 36.831L290.19 41.831L281.19 42.831L281.19 37.831Z"/></g><g class="vf-stem" id="vf-auto2143" pointer-events="bounding-box"><path stroke-width="1.5" fill="none" d="M107.359 193.5L107.359 136.885"/></g><g class="vf-stem" id="vf-auto2149" pointer-events="bounding-box"><path stroke-width="1.5" fill="none" d="M131.9 163.5L131.9 130.75"/></g><g class="vf-stem" id="vf-auto2155" pointer-events="bounding-box"><path stroke-width="1.5" fill="none" d="M156.441 158.5L156.441 124.615"/></g><g class="vf-stem" id="vf-auto2161" pointer-events="bounding-box"><path stroke-width="1.5" fill="none" d="M174.805 91.5L174.805 131.391"/></g><g class="vf-beam" id="vf-auto2180"><path stroke="none" d="M106.609 136.323L106.609 141.323L175.055 124.461L175.055 119.461Z"/><path stroke="none" d="M106.609 143.823L106.609 148.823L175.055 131.961L175.055 126.961Z"/></g></svg>