<svg xmlns="http://www.w3.org/2000/svg" stroke-width="0.3" stroke-dasharray="none" fill="black" stroke="black" font-family="Arial, sans-serif" font-size="10pt" font-weight="normal" font-style="normal" width="450" height="140" viewBox="0 0 450 140" style="width: 450px; height: 140px; border: none;"><g class="vf-stave" id="vf-auto13513" stroke-width="1" fill="#999999" stroke="#999999"><path fill="none" d="M0 40L440 40"/><path fill="none" d="M0 50L440 50"/><path fill="none" d="M0 60L440 60"/><path fill="none" d="M0 70L440 70"/><path fill="none" d="M0 80L440 80"/></g><g class="vf-stavebarline" id="vf-auto13514"><rect y="39.5" width="1" height="41" stroke="none"/></g><g class="vf-stavebarline" id="vf-auto13515"><rect x="440" y="39.5" width="1" height="41" stroke="none"/></g><g class="vf-stavenote" id="vf-auto13516"><path stroke-width="1.4" fill="none" stroke="#444" d="M14 90L33.508 90"/><g class="vf-stem" id="vf-auto13517" pointer-events="bounding-box"><path stroke-width="1.5" fill="none" d="M29.758 88L29.758 58"/></g><g class="vf-notehead" id="vf-auto13552" pointer-events="bounding-box"><path stroke="none" d="M20.145 96.543C20.426 96.599,20.678 96.627,20.959 96.627C24.834 96.627,30.619 91.348,30.506 87.08C30.394 86.041,30.422 84.609,28.316 83.766C27.727 83.485,27.081 83.373,26.379 83.373C22.054 83.373,17.365 88.343,17.028 91.657C17.028 91.909,17 92.134,17 92.387C17 94.409,17.899 96.037,20.145 96.543"/></g><path stroke="none" d="M36.449 85.882C37.46 84.73,38.443 83.523,38.864 82.063C39.37 80.49,39.566 78.918,39.566 77.345C39.566 76.278,39.482 75.239,39.313 74.2C38.836 70.747,37.741 67.602,35.551 64.85C34.596 63.642,33.669 62.379,32.687 61.171C31.563 59.711,30.861 58.391,30.833 56.51C30.833 56.145,30.749 55.555,30.749 55.106C30.749 54.376,30.468 53.674,30.187 53L29.991 53C29.177 53.365,29.008 54.011,29.008 54.769L29.008 57.044C29.008 60.16,29.822 62.996,31.704 65.496C32.49 66.422,33.22 67.433,33.978 68.36C35.916 70.662,37.376 73.246,37.657 76.334C37.713 76.896,37.909 77.458,37.909 77.991C37.909 78.272,37.853 78.553,37.741 78.806C37.348 79.676,36.927 80.631,36.197 81.22C35.551 81.754,35.41 82.344,35.41 82.989C35.41 83.326,35.438 83.691,35.466 84.056C35.523 84.59,35.719 85.095,35.747 85.629C35.803 85.966,35.916 86.106,36.056 86.106C36.168 86.106,36.281 86.022,36.449 85.882"/></g><g class="vf-stavenote" id="vf-auto13522"><g class="vf-stem" id="vf-auto13523" pointer-events="bounding-box"><path stroke-width="1.5" fill="none" d="M93.196 68L93.196 35"/></g><g class="vf-notehead" id="vf-auto13525" pointer-events="bounding-box"><path stroke="none" d="M83.583 76.543C83.864 76.599,84.116 76.627,84.397 76.627C88.272 76.627,94.057 71.348,93.944 67.08C93.832 66.041,93.86 64.609,91.754 63.766C91.164 63.485,90.519 63.373,89.817 63.373C85.492 63.373,80.803 68.343,80.466 71.657C80.466 71.909,80.438 72.134,80.438 72.387C80.438 74.409,81.336 76.037,83.583 76.543"/><path stroke="none" d="M100.946 65 A2 2 0 0 0 96.946 65 A2 2 0 0 0 100.946 65"/></g></g><g class="vf-stavenote" id="vf-auto13527"><g class="vf-notehead" id="vf-auto13554" pointer-events="bounding-box"><path stroke="none" d="M196.393 61.543C196.674 61.599,196.927 61.627,197.208 61.627C201.083 61.627,206.867 56.348,206.755 52.08C206.642 51.041,206.671 49.609,204.565 48.766C203.975 48.485,203.329 48.373,202.627 48.373C198.303 48.373,193.613 53.343,193.276 56.657C193.276 56.909,193.248 57.134,193.248 57.387C193.248 59.409,194.147 61.037,196.393 61.543"/></g></g><g class="vf-stavenote" id="vf-auto13533"><g class="vf-notehead" id="vf-auto13556" pointer-events="bounding-box"><path stroke="none" d="M259.831 41.543C260.112 41.599,260.365 41.627,260.645 41.627C264.521 41.627,270.305 36.348,270.193 32.08C270.08 31.041,270.108 29.609,268.002 28.766C267.413 28.485,266.767 28.373,266.065 28.373C261.741 28.373,257.051 33.343,256.714 36.657C256.714 36.909,256.686 37.134,256.686 37.387C256.686 39.409,257.585 41.037,259.831 41.543"/></g></g><g class="vf-stavenote" id="vf-auto13539"><path stroke-width="1.4" fill="none" stroke="#444" d="M317.124 30L336.632 30"/><g class="vf-notehead" id="vf-auto13558" pointer-events="bounding-box"><path stroke="none" d="M323.269 36.543C323.55 36.599,323.803 36.627,324.083 36.627C327.958 36.627,333.743 31.348,333.631 27.08C333.518 26.041,333.546 24.609,331.44 23.766C330.851 23.485,330.205 23.373,329.503 23.373C325.179 23.373,320.489 28.343,320.152 31.657C320.152 31.909,320.124 32.134,320.124 32.387C320.124 34.409,321.023 36.037,323.269 36.543"/></g></g><g class="vf-stavenote" id="vf-auto13545"><path stroke-width="1.4" fill="none" stroke="#444" d="M380.562 30L400.07 30"/><g class="vf-notehead" id="vf-auto13560" pointer-events="bounding-box"><path stroke="none" d="M386.707 36.543C386.988 36.599,387.241 36.627,387.521 36.627C391.396 36.627,397.181 31.348,397.069 27.08C396.956 26.041,396.984 24.609,394.878 23.766C394.289 23.485,393.643 23.373,392.941 23.373C388.616 23.373,383.927 28.343,383.59 31.657C383.59 31.909,383.562 32.134,383.562 32.387C383.562 34.409,384.461 36.037,386.707 36.543"/></g></g><g class="vf-stem" id="vf-auto13528" pointer-events="bounding-box"><path stroke-width="1.5" fill="none" d="M193.998 57L193.998 89.25"/></g><g class="vf-stem" id="vf-auto13534" pointer-events="bounding-box"><path stroke-width="1.5" fill="none" d="M257.436 37L257.436 78.148"/></g><g class="vf-beam" id="vf-auto13562"><path stroke="none" d="M193.248 90.131L193.248 85.131L257.686 74.03L257.686 79.03Z"/></g><g class="vf-stem" id="vf-auto13540" pointer-events="bounding-box"><path stroke-width="1.5" fill="none" d="M320.874 32L320.874 64.25"/></g><g class="vf-stem" id="vf-auto13546" pointer-events="bounding-box"><path stroke-width="1.5" fill="none" d="M384.312 32L384.312 64.25"/></g><g class="vf-beam" id="vf-auto13563"><path stroke="none" d="M320.124 65L320.124 60L384.562 60L384.562 65Z"/></g></svg>