<svg xmlns="http://www.w3.org/2000/svg" stroke-width="0.3" stroke-dasharray="none" fill="black" stroke="black" font-family="Arial, sans-serif" font-size="10pt" font-weight="normal" font-style="normal" width="450" height="140" viewBox="0 0 450 140" style="width: 450px; height: 140px; border: none;"><g class="vf-stave" id="vf-auto33213" stroke-width="1" fill="#999999" stroke="#999999"><path fill="none" d="M10 50L360 50"/><path fill="none" d="M10 60L360 60"/><path fill="none" d="M10 70L360 70"/><path fill="none" d="M10 80L360 80"/><path fill="none" d="M10 90L360 90"/></g><g class="vf-stavebarline" id="vf-auto33214"><rect x="10" y="49.5" width="1" height="41" stroke="none"/></g><g class="vf-stavebarline" id="vf-auto33215"><rect x="360" y="49.5" width="1" height="41" stroke="none"/></g><g class="vf-timesignature" id="vf-auto33216"><path stroke="none" d="M27.754 62.619L27.754 55.055C27.754 54.786,27.73 54.468,27.338 54.468C27.02 54.468,26.848 54.541,26.628 54.786L23.274 58.825C23.152 59.021,22.956 59.217,22.956 59.657L22.956 62.619L18.207 62.619C21.022 60.22,26.677 52.215,26.775 51.775L26.799 51.677C26.799 51.359,26.555 51.163,26.285 51.163C25.967 51.163,24.523 51.212,23.886 51.212C23.25 51.212,21.659 51.163,21.389 51.163C21.071 51.163,20.581 51.261,20.581 51.824C20.581 56.181,17.105 61.102,16.053 62.57L15.857 62.864C15.857 62.864,15.857 62.889,15.857 62.889L15.808 62.938C15.734 63.109,15.71 63.231,15.71 63.354C15.71 63.696,15.979 63.941,16.42 63.941L22.956 63.941L22.956 66.169C22.956 67.124,22.197 67.393,21.561 67.393C20.998 67.393,20.753 67.711,20.753 68.078C20.753 68.421,20.875 68.813,21.414 68.813L28.929 68.813C29.272 68.813,29.639 68.568,29.639 68.078C29.639 67.589,29.198 67.368,28.856 67.368C28.513 67.368,27.754 67.148,27.754 66.022L27.754 63.941L30.324 63.941C30.692 63.941,30.863 63.696,30.863 63.28C30.863 62.864,30.716 62.619,30.324 62.619"/><path stroke="none" d="M27.754 82.619L27.754 75.055C27.754 74.786,27.73 74.468,27.338 74.468C27.02 74.468,26.848 74.541,26.628 74.786L23.274 78.825C23.152 79.021,22.956 79.217,22.956 79.657L22.956 82.619L18.207 82.619C21.022 80.22,26.677 72.215,26.775 71.775L26.799 71.677C26.799 71.359,26.555 71.163,26.285 71.163C25.967 71.163,24.523 71.212,23.886 71.212C23.25 71.212,21.659 71.163,21.389 71.163C21.071 71.163,20.581 71.261,20.581 71.824C20.581 76.181,17.105 81.102,16.053 82.57L15.857 82.864C15.857 82.864,15.857 82.889,15.857 82.889L15.808 82.938C15.734 83.109,15.71 83.231,15.71 83.354C15.71 83.696,15.979 83.941,16.42 83.941L22.956 83.941L22.956 86.169C22.956 87.124,22.197 87.393,21.561 87.393C20.998 87.393,20.753 87.711,20.753 88.078C20.753 88.421,20.875 88.813,21.414 88.813L28.929 88.813C29.272 88.813,29.639 88.568,29.639 88.078C29.639 87.589,29.198 87.368,28.856 87.368C28.513 87.368,27.754 87.148,27.754 86.022L27.754 83.941L30.324 83.941C30.692 83.941,30.863 83.696,30.863 83.28C30.863 82.864,30.716 82.619,30.324 82.619"/></g><g class="vf-stavenote" id="vf-auto33220"><g class="vf-stem" id="vf-auto33221" pointer-events="bounding-box"><path stroke-width="1.5" fill="none" d="M53.337 83L53.337 50"/></g><g class="vf-notehead" id="vf-auto33223" pointer-events="bounding-box"><path stroke="none" d="M46.084 90.054C49.679 90.054,54.087 86.741,54.087 83.315C54.087 81.237,52.458 79.946,50.156 79.946C45.719 79.946,42.153 83.231,42.153 86.685C42.153 88.791,43.894 90.054,46.084 90.054"/></g></g><g class="vf-stavenote" id="vf-auto33224"><g class="vf-stem" id="vf-auto33225" pointer-events="bounding-box"><path stroke-width="1.5" fill="none" d="M107.478 73L107.478 40"/></g><g class="vf-notehead" id="vf-auto33227" pointer-events="bounding-box"><path stroke="none" d="M100.225 80.054C103.82 80.054,108.228 76.741,108.228 73.315C108.228 71.237,106.6 69.946,104.297 69.946C99.86 69.946,96.294 73.231,96.294 76.685C96.294 78.791,98.035 80.054,100.225 80.054"/></g></g><g class="vf-stavenote" id="vf-auto33228"><g class="vf-stem" id="vf-auto33229" pointer-events="bounding-box"><path stroke-width="1.5" fill="none" d="M161.619 68L161.619 35"/></g><g class="vf-notehead" id="vf-auto33231" pointer-events="bounding-box"><path stroke="none" d="M154.367 75.054C157.961 75.054,162.369 71.741,162.369 68.315C162.369 66.237,160.741 64.946,158.438 64.946C154.002 64.946,150.435 68.231,150.435 71.685C150.435 73.791,152.176 75.054,154.367 75.054"/></g></g><g class="vf-stavenote" id="vf-auto33232"><g class="vf-notehead" id="vf-auto33236" pointer-events="bounding-box"><path stroke="none" d="M208.508 85.054C212.102 85.054,216.511 81.741,216.511 78.315C216.511 76.237,214.882 74.946,212.579 74.946C208.143 74.946,204.577 78.231,204.577 81.685C204.577 83.791,206.318 85.054,208.508 85.054"/></g></g><g class="vf-stavenote" id="vf-auto33238"><g class="vf-notehead" id="vf-auto33242" pointer-events="bounding-box"><path stroke="none" d="M262.649 95.054C266.243 95.054,270.652 91.741,270.652 88.315C270.652 86.237,269.023 84.946,266.721 84.946C262.284 84.946,258.718 88.231,258.718 91.685C258.718 93.791,260.459 95.054,262.649 95.054"/></g></g><g class="vf-stavenote" id="vf-auto33244"><g class="vf-notehead" id="vf-auto33248" pointer-events="bounding-box"><path stroke="none" d="M316.79 85.054C320.384 85.054,324.793 81.741,324.793 78.315C324.793 76.237,323.164 74.946,320.862 74.946C316.425 74.946,312.859 78.231,312.859 81.685C312.859 83.791,314.6 85.054,316.79 85.054"/></g></g><g class="vf-stem" id="vf-auto33233" pointer-events="bounding-box"><path stroke-width="1.5" fill="none" d="M215.761 78L215.761 45.75"/></g><g class="vf-stem" id="vf-auto33239" pointer-events="bounding-box"><path stroke-width="1.5" fill="none" d="M269.902 88L269.902 45.75"/></g><g class="vf-stem" id="vf-auto33245" pointer-events="bounding-box"><path stroke-width="1.5" fill="none" d="M324.043 78L324.043 45.75"/></g><g class="vf-beam" id="vf-auto33250"><path stroke="none" d="M215.011 45L215.011 50L324.293 50L324.293 45Z"/></g><rect x="37.153" y="25" width="47.623" height="1" stroke="none"/><rect x="119.747" y="25" width="47.623" height="1" stroke="none"/><rect x="37.153" y="25" width="1" height="10" stroke="none"/><rect x="167.369" y="25" width="1" height="10" stroke="none"/><path stroke="none" d="M94.639 18.678C94.607 18.678,94.591 18.678,94.544 18.678L94.385 18.647C94.354 18.647,94.322 18.647,94.29 18.647C92.326 18.647,90.362 19.961,90.362 21.165C90.362 21.91,90.805 22.924,92.215 23.003L92.326 23.003C93.34 23.003,93.831 22.274,93.831 21.53L93.831 21.34C93.768 20.5,93.197 20.453,93.086 20.405C92.976 20.357,92.627 20.405,92.627 20.088L92.627 19.993C92.675 19.613,93.387 19.423,93.577 19.423C95.526 19.423,95.7 20.643,95.7 21.181L95.7 21.34C95.7 23.034,94.354 23.7,92.928 23.763C92.69 23.779,92.374 23.906,92.374 24.143C92.374 24.428,92.77 24.428,92.944 24.428C95.573 24.428,95.779 26.202,95.779 26.503C95.779 28.911,94.544 29.196,94.037 29.196C93.958 29.196,93.863 29.165,93.831 29.165C93.657 29.149,93.213 29.149,93.197 28.8L93.197 28.689C93.197 28.182,93.704 27.85,93.72 27.185C93.72 26.234,93.055 25.537,92.073 25.537C91.993 25.537,91.914 25.537,91.835 25.569C91.439 25.632,91.011 25.854,90.726 26.155C90.346 26.503,90.235 27.042,90.235 27.549C90.283 29.323,91.898 30.02,94.132 30.052L94.338 30.052C96.603 30.052,98.916 28.895,98.916 26.884L98.916 26.725C98.884 26.06,98.71 25.632,98.282 25.125C98.139 24.951,97.965 24.793,97.743 24.65L97.252 24.381L96.508 24.175C96.397 24.143,96.318 24.143,96.27 24.064C96.254 24.017,96.254 23.985,96.254 23.953C96.254 23.858,96.27 23.763,96.349 23.747C96.603 23.668,96.84 23.652,97.046 23.541C97.965 23.098,98.44 22.512,98.44 21.466C98.44 19.36,95.589 18.742,94.639 18.678"/><path stroke="none" d="M103.296 23.24 A1.32 1.32 0 0 0 100.656 23.24 A1.32 1.32 0 0 0 103.296 23.24Z"/><path stroke="none" d="M103.296 27.64 A1.32 1.32 0 0 0 100.656 27.64 A1.32 1.32 0 0 0 103.296 27.64Z"/><path stroke="none" d="M115.095 26.408C115.095 26.139,114.984 26.092,114.826 26.092C114.636 26.092,114.572 26.187,114.525 26.345L114.509 26.361C114.272 26.931,114.097 27.375,113.622 27.375C113.495 27.375,113.384 27.343,113.226 27.295C112.925 27.185,112.767 27.169,112.545 27.042C112.086 26.868,111.008 26.503,110.074 26.503C109.789 26.503,109.488 26.551,109.234 26.63C109.741 25.822,111.674 25.125,112.181 24.999C113.78 24.555,115.206 23.906,115.206 22.005C115.206 19.581,112.846 18.536,110.723 18.536C109.124 18.536,107.714 18.678,106.589 19.977C106.209 20.453,105.956 21.023,105.956 21.641C105.956 21.957,106.019 22.274,106.161 22.623C106.494 23.335,107.207 23.874,108.031 23.874C109.424 23.874,109.63 22.433,109.63 21.862C109.63 20.5,108.046 20.437,108.046 19.977C108.094 19.661,108.506 19.106,109.852 19.106C111.88 19.106,111.911 20.643,111.911 21.292C111.911 23.383,110.201 24.951,108.553 25.949C107.302 26.757,106.415 27.866,106.019 29.355L106.003 29.418C106.003 29.719,106.256 30.194,106.589 30.194C107.096 30.194,107.365 28.8,108.712 28.8C109.63 28.8,109.963 30.036,111.991 30.036C112.973 30.036,114.731 29.941,115.095 26.408"/><path stroke="none" d="M262.002 28.678C261.97 28.678,261.954 28.678,261.907 28.678L261.749 28.647C261.717 28.647,261.685 28.647,261.653 28.647C259.689 28.647,257.725 29.961,257.725 31.165C257.725 31.91,258.169 32.924,259.578 33.003L259.689 33.003C260.703 33.003,261.194 32.274,261.194 31.53L261.194 31.34C261.131 30.5,260.561 30.453,260.45 30.405C260.339 30.357,259.99 30.405,259.99 30.088L259.99 29.993C260.038 29.613,260.751 29.423,260.941 29.423C262.889 29.423,263.063 30.643,263.063 31.181L263.063 31.34C263.063 33.034,261.717 33.7,260.291 33.763C260.054 33.779,259.737 33.906,259.737 34.143C259.737 34.428,260.133 34.428,260.307 34.428C262.937 34.428,263.142 36.202,263.142 36.503C263.142 38.911,261.907 39.196,261.4 39.196C261.321 39.196,261.226 39.165,261.194 39.165C261.02 39.149,260.576 39.149,260.561 38.8L260.561 38.689C260.561 38.182,261.067 37.85,261.083 37.185C261.083 36.234,260.418 35.537,259.436 35.537C259.357 35.537,259.277 35.537,259.198 35.569C258.802 35.632,258.375 35.854,258.089 36.155C257.709 36.503,257.598 37.042,257.598 37.549C257.646 39.323,259.262 40.02,261.495 40.052L261.701 40.052C263.966 40.052,266.279 38.895,266.279 36.884L266.279 36.725C266.247 36.06,266.073 35.632,265.645 35.125C265.503 34.951,265.328 34.793,265.107 34.65L264.616 34.381L263.871 34.175C263.76 34.143,263.681 34.143,263.633 34.064C263.618 34.017,263.618 33.985,263.618 33.953C263.618 33.858,263.633 33.763,263.713 33.747C263.966 33.668,264.204 33.652,264.41 33.541C265.328 33.098,265.804 32.512,265.804 31.466C265.804 29.36,262.952 28.742,262.002 28.678"/><path stroke="none" d="M270.659 33.24 A1.32 1.32 0 0 0 268.019 33.24 A1.32 1.32 0 0 0 270.659 33.24Z"/><path stroke="none" d="M270.659 37.64 A1.32 1.32 0 0 0 268.019 37.64 A1.32 1.32 0 0 0 270.659 37.64Z"/><path stroke="none" d="M281.112 36.028L281.112 31.134C281.112 30.959,281.096 30.753,280.843 30.753C280.637 30.753,280.526 30.801,280.383 30.959L278.213 33.573C278.134 33.7,278.007 33.826,278.007 34.112L278.007 36.028L274.934 36.028C276.756 34.476,280.415 29.296,280.478 29.011L280.494 28.948C280.494 28.742,280.336 28.615,280.162 28.615C279.956 28.615,279.021 28.647,278.609 28.647C278.197 28.647,277.168 28.615,276.994 28.615C276.788 28.615,276.471 28.678,276.471 29.043C276.471 31.862,274.222 35.046,273.541 35.997L273.414 36.187C273.414 36.187,273.414 36.202,273.414 36.202L273.382 36.234C273.335 36.345,273.319 36.424,273.319 36.503C273.319 36.725,273.493 36.884,273.778 36.884L278.007 36.884L278.007 38.325C278.007 38.943,277.516 39.117,277.105 39.117C276.74 39.117,276.582 39.323,276.582 39.561C276.582 39.782,276.661 40.036,277.009 40.036L281.872 40.036C282.094 40.036,282.332 39.877,282.332 39.561C282.332 39.244,282.047 39.101,281.825 39.101C281.603 39.101,281.112 38.959,281.112 38.23L281.112 36.884L282.775 36.884C283.013 36.884,283.124 36.725,283.124 36.456C283.124 36.187,283.029 36.028,282.775 36.028"/></svg>