<svg xmlns="http://www.w3.org/2000/svg" stroke-width="0.3" stroke-dasharray="none" fill="black" stroke="black" font-family="Arial, sans-serif" font-size="10pt" font-weight="normal" font-style="normal" width="700" height="180" viewBox="0 0 700 180" style="width: 700px; height: 180px; border: none;"><g class="vf-stave" id="vf-auto26721" stroke-width="1" fill="#999999" stroke="#999999"><path fill="none" d="M10 70L760 70"/><path fill="none" d="M10 80L760 80"/><path fill="none" d="M10 90L760 90"/><path fill="none" d="M10 100L760 100"/><path fill="none" d="M10 110L760 110"/></g><g class="vf-stavebarline" id="vf-auto26722"><rect x="10" y="69.5" width="1" height="41" stroke="none"/></g><g class="vf-stavebarline" id="vf-auto26723"><rect x="760" y="69.5" width="1" height="41" stroke="none"/></g><g class="vf-clef" id="vf-auto26724"><path stroke="none" d="M29.112 57.837C29.112 57.837,29.141 57.837,29.17 57.837C29.544 57.837,30.034 58.211,30.667 58.96C32.942 61.696,34.44 66.045,34.44 69.731C34.44 69.99,34.44 70.278,34.411 70.538C34.152 74.829,32.28 78.515,28.68 81.942C28.363 82.259,27.902 82.691,27.701 82.864L27.355 83.238L28.075 86.608C28.478 88.48,28.795 90.006,28.795 90.006C28.795 90.006,28.795 90.006,28.795 90.006C28.824 90.006,28.939 89.978,29.026 89.978C29.198 89.949,29.659 89.949,30.12 89.949C30.466 89.949,30.84 89.949,30.984 89.949C35.592 90.525,38.962 94.125,39.278 98.79C39.307 98.992,39.307 99.194,39.307 99.395C39.307 103.254,36.802 106.941,33.029 108.554C32.885 108.611,32.798 108.669,32.798 108.669C32.798 108.669,33 109.677,33.259 110.886C33.518 112.125,33.778 113.306,33.806 113.536C33.979 114.458,34.066 115.322,34.066 116.157C34.066 118.317,33.49 120.131,32.395 121.542C30.754 123.587,28.392 124.624,26.03 124.624C23.726 124.624,21.422 123.674,19.752 121.773C19.061 120.966,18.686 120.016,18.686 119.037C18.686 118.202,18.974 117.338,19.55 116.56C20.386 115.437,21.624 114.89,22.862 114.89C24.014 114.89,25.166 115.379,25.973 116.358C26.549 117.107,26.808 117.942,26.808 118.778C26.808 120.678,25.397 122.493,23.237 122.579L22.978 122.579L23.064 122.637C23.928 123.069,24.936 123.299,25.973 123.299C27.24 123.299,28.565 122.954,29.602 122.291C31.704 120.966,32.741 118.922,32.741 116.157C32.741 115.264,32.626 114.285,32.424 113.248C32.338 112.758,31.531 109.101,31.531 109.101C31.531 109.101,31.531 109.101,31.531 109.101C31.502 109.101,31.358 109.13,31.186 109.158C30.667 109.302,30.12 109.389,29.515 109.446C29.314 109.475,28.91 109.475,28.478 109.475C27.931 109.475,27.384 109.475,27.154 109.446C20.126 108.669,15 102.995,15 95.968C15 92.858,15.893 90.15,17.765 87.558C19.752 84.794,21.768 82.403,24.245 79.898L25.109 79.034L24.734 77.306C24.533 76.326,24.331 75.318,24.245 75.03C23.899 73.389,23.726 72.582,23.669 72.266C23.525 71.373,23.467 70.48,23.467 69.587C23.467 65.469,25.022 61.552,27.902 58.758C28.565 58.125,28.91 57.866,29.112 57.837M31.013 63.482C30.84 63.453,30.696 63.424,30.523 63.424C29.688 63.424,28.68 63.942,27.73 64.893C26.088 66.534,25.195 69.011,25.195 71.718C25.195 72.41,25.253 73.101,25.368 73.821C25.426 74.138,26.203 77.968,26.232 77.968C26.232 77.968,26.232 77.968,26.232 77.968C26.261 77.968,27.182 77.018,27.442 76.73C30.638 73.187,32.453 69.357,32.453 66.362C32.453 65.872,32.395 65.411,32.309 64.95C32.107 64.086,31.733 63.654,31.013 63.482M26.318 84.707C26.29 84.534,26.261 84.39,26.261 84.39C26.146 84.39,23.87 87.04,22.834 88.336C20.702 91.043,19.925 92.31,19.32 94.038C18.888 95.363,18.658 96.688,18.658 97.984C18.658 100.317,19.349 102.534,20.674 104.406C22.517 106.998,25.426 108.496,28.421 108.496C28.91 108.496,29.4 108.467,29.89 108.381C30.408 108.294,31.301 108.064,31.301 108.006C31.301 107.978,30.955 106.394,30.552 104.435C30.12 102.506,29.486 99.51,29.112 97.811C28.766 96.112,28.45 94.701,28.45 94.701C28.45 94.701,28.45 94.701,28.45 94.701C28.334 94.701,27.701 94.96,27.355 95.133C25.598 96.112,24.677 97.84,24.677 99.568C24.677 101.094,25.397 102.592,26.866 103.485C27.154 103.658,27.298 103.859,27.298 104.09C27.298 104.205,27.24 104.349,27.125 104.464C27.038 104.579,26.923 104.666,26.75 104.666C26.549 104.666,26.29 104.55,25.858 104.32C23.237 102.966,21.912 100.403,21.912 97.782C21.912 95.334,23.093 92.858,25.454 91.302C26.059 90.899,27.269 90.323,27.499 90.323C27.499 90.323,27.528 90.294,27.528 90.294C27.528 90.266,27.528 90.266,27.528 90.266C27.499 90.208,26.434 85.197,26.318 84.707M30.725 94.499C30.581 94.499,30.293 94.47,30.12 94.47L29.746 94.47L29.774 94.528C29.774 94.557,30.293 97.034,30.955 100.029C31.589 103.024,32.136 105.616,32.165 105.789C32.222 105.962,32.309 106.422,32.395 106.797L32.539 107.488L32.626 107.43C34.21 106.538,35.362 105.27,35.995 103.715C36.37 102.851,36.542 101.987,36.542 101.123C36.542 97.869,34.152 94.902,30.725 94.499"/></g><g class="vf-stavenote" id="vf-auto26725"><path stroke-width="1.4" fill="none" stroke="#444" d="M73.307 60L104.523 60"/><g class="vf-notehead" id="vf-auto26730" pointer-events="bounding-box"><path stroke="none" d="M76.813 78.401C76.841 78.373,76.953 78.373,77.037 78.373C77.122 78.373,77.206 78.373,77.262 78.401C77.402 78.457,77.543 78.542,77.627 78.682C77.739 78.85,77.739 78.485,77.739 82.529C77.739 83.231,77.739 84.045,77.739 85C77.739 85.955,77.739 86.769,77.739 87.471C77.739 91.543,77.739 91.15,77.627 91.318C77.487 91.515,77.262 91.627,77.037 91.627C76.728 91.627,76.448 91.458,76.335 91.121C76.307 91.065,76.307 87.948,76.307 84.888C76.307 81.911,76.307 78.935,76.335 78.879C76.391 78.654,76.588 78.457,76.813 78.401M79.396 78.401C79.452 78.373,79.536 78.373,79.621 78.373C79.705 78.373,79.789 78.373,79.845 78.401C80.07 78.457,80.238 78.654,80.323 78.879C80.351 78.935,80.351 79.356,80.351 81.63C80.351 83.736,80.351 84.186,80.379 84.186C80.379 84.186,80.379 84.186,80.379 84.186C80.94 82.052,83.72 80.367,87.315 79.974C87.848 79.918,88.382 79.889,88.915 79.889C93.099 79.889,96.778 81.658,97.451 84.186C97.451 84.186,97.451 84.186,97.451 84.186C97.48 84.186,97.48 83.736,97.48 81.63C97.48 78.794,97.48 78.879,97.564 78.738C97.732 78.485,97.957 78.373,98.21 78.373C98.434 78.373,98.659 78.485,98.799 78.682C98.912 78.85,98.912 78.485,98.912 82.529C98.912 83.231,98.912 84.045,98.912 85C98.912 85.955,98.912 86.769,98.912 87.471C98.912 91.543,98.912 91.15,98.799 91.318C98.659 91.515,98.434 91.627,98.21 91.627C97.985 91.627,97.732 91.515,97.592 91.318C97.48 91.121,97.48 91.318,97.48 88.398C97.48 86.264,97.48 85.814,97.451 85.814C97.451 85.814,97.451 85.814,97.451 85.814C96.89 87.948,94.11 89.633,90.516 90.026C89.982 90.082,89.449 90.111,88.915 90.111C84.731 90.111,81.053 88.342,80.379 85.814C80.379 85.814,80.379 85.814,80.379 85.814C80.351 85.814,80.351 86.264,80.351 88.398C80.351 91.318,80.351 91.121,80.238 91.318C80.07 91.515,79.845 91.627,79.621 91.627C79.34 91.627,79.031 91.458,78.919 91.121C78.919 91.065,78.891 87.948,78.891 84.888C78.891 81.911,78.919 78.935,78.919 78.879C79.003 78.654,79.199 78.457,79.396 78.401M88.41 80.563C88.241 80.535,88.073 80.535,87.904 80.535C86.191 80.535,85.068 81.939,85.068 83.849C85.068 84.41,85.152 85.028,85.405 85.674C86.248 88.061,88.241 89.465,89.954 89.465C91.049 89.465,92.004 88.903,92.509 87.668C92.678 87.19,92.762 86.685,92.762 86.179C92.762 83.68,90.796 80.928,88.41 80.563M100.568 78.401C100.624 78.373,100.709 78.373,100.793 78.373C100.877 78.373,100.961 78.373,101.018 78.401C101.158 78.457,101.298 78.542,101.411 78.682C101.495 78.85,101.523 78.485,101.523 82.529C101.523 83.231,101.523 84.045,101.523 85C101.523 85.955,101.523 86.769,101.523 87.471C101.523 91.543,101.495 91.15,101.411 91.318C101.242 91.515,101.018 91.627,100.793 91.627C100.512 91.627,100.203 91.458,100.091 91.121C100.091 91.065,100.063 87.948,100.063 84.888C100.063 81.911,100.091 78.935,100.091 78.879C100.175 78.654,100.372 78.457,100.568 78.401"/></g><g class="vf-notehead" id="vf-auto26731" pointer-events="bounding-box"><path stroke="none" d="M76.813 68.401C76.841 68.373,76.953 68.373,77.037 68.373C77.122 68.373,77.206 68.373,77.262 68.401C77.402 68.457,77.543 68.542,77.627 68.682C77.739 68.85,77.739 68.485,77.739 72.529C77.739 73.231,77.739 74.045,77.739 75C77.739 75.955,77.739 76.769,77.739 77.471C77.739 81.543,77.739 81.15,77.627 81.318C77.487 81.515,77.262 81.627,77.037 81.627C76.728 81.627,76.448 81.458,76.335 81.121C76.307 81.065,76.307 77.948,76.307 74.888C76.307 71.911,76.307 68.935,76.335 68.879C76.391 68.654,76.588 68.457,76.813 68.401M79.396 68.401C79.452 68.373,79.536 68.373,79.621 68.373C79.705 68.373,79.789 68.373,79.845 68.401C80.07 68.457,80.238 68.654,80.323 68.879C80.351 68.935,80.351 69.356,80.351 71.63C80.351 73.736,80.351 74.186,80.379 74.186C80.379 74.186,80.379 74.186,80.379 74.186C80.94 72.052,83.72 70.367,87.315 69.974C87.848 69.918,88.382 69.889,88.915 69.889C93.099 69.889,96.778 71.658,97.451 74.186C97.451 74.186,97.451 74.186,97.451 74.186C97.48 74.186,97.48 73.736,97.48 71.63C97.48 68.794,97.48 68.879,97.564 68.738C97.732 68.485,97.957 68.373,98.21 68.373C98.434 68.373,98.659 68.485,98.799 68.682C98.912 68.85,98.912 68.485,98.912 72.529C98.912 73.231,98.912 74.045,98.912 75C98.912 75.955,98.912 76.769,98.912 77.471C98.912 81.543,98.912 81.15,98.799 81.318C98.659 81.515,98.434 81.627,98.21 81.627C97.985 81.627,97.732 81.515,97.592 81.318C97.48 81.121,97.48 81.318,97.48 78.398C97.48 76.264,97.48 75.814,97.451 75.814C97.451 75.814,97.451 75.814,97.451 75.814C96.89 77.948,94.11 79.633,90.516 80.026C89.982 80.082,89.449 80.111,88.915 80.111C84.731 80.111,81.053 78.342,80.379 75.814C80.379 75.814,80.379 75.814,80.379 75.814C80.351 75.814,80.351 76.264,80.351 78.398C80.351 81.318,80.351 81.121,80.238 81.318C80.07 81.515,79.845 81.627,79.621 81.627C79.34 81.627,79.031 81.458,78.919 81.121C78.919 81.065,78.891 77.948,78.891 74.888C78.891 71.911,78.919 68.935,78.919 68.879C79.003 68.654,79.199 68.457,79.396 68.401M88.41 70.563C88.241 70.535,88.073 70.535,87.904 70.535C86.191 70.535,85.068 71.939,85.068 73.849C85.068 74.41,85.152 75.028,85.405 75.674C86.248 78.061,88.241 79.465,89.954 79.465C91.049 79.465,92.004 78.903,92.509 77.668C92.678 77.19,92.762 76.685,92.762 76.179C92.762 73.68,90.796 70.928,88.41 70.563M100.568 68.401C100.624 68.373,100.709 68.373,100.793 68.373C100.877 68.373,100.961 68.373,101.018 68.401C101.158 68.457,101.298 68.542,101.411 68.682C101.495 68.85,101.523 68.485,101.523 72.529C101.523 73.231,101.523 74.045,101.523 75C101.523 75.955,101.523 76.769,101.523 77.471C101.523 81.543,101.495 81.15,101.411 81.318C101.242 81.515,101.018 81.627,100.793 81.627C100.512 81.627,100.203 81.458,100.091 81.121C100.091 81.065,100.063 77.948,100.063 74.888C100.063 71.911,100.091 68.935,100.091 68.879C100.175 68.654,100.372 68.457,100.568 68.401"/></g><g class="vf-notehead" id="vf-auto26732" pointer-events="bounding-box"><path stroke="none" d="M76.813 53.401C76.841 53.373,76.953 53.373,77.037 53.373C77.122 53.373,77.206 53.373,77.262 53.401C77.402 53.457,77.543 53.542,77.627 53.682C77.739 53.85,77.739 53.485,77.739 57.529C77.739 58.231,77.739 59.045,77.739 60C77.739 60.955,77.739 61.769,77.739 62.471C77.739 66.543,77.739 66.15,77.627 66.318C77.487 66.515,77.262 66.627,77.037 66.627C76.728 66.627,76.448 66.458,76.335 66.121C76.307 66.065,76.307 62.948,76.307 59.888C76.307 56.911,76.307 53.935,76.335 53.879C76.391 53.654,76.588 53.457,76.813 53.401M79.396 53.401C79.452 53.373,79.536 53.373,79.621 53.373C79.705 53.373,79.789 53.373,79.845 53.401C80.07 53.457,80.238 53.654,80.323 53.879C80.351 53.935,80.351 54.356,80.351 56.63C80.351 58.736,80.351 59.186,80.379 59.186C80.379 59.186,80.379 59.186,80.379 59.186C80.94 57.052,83.72 55.367,87.315 54.974C87.848 54.918,88.382 54.889,88.915 54.889C93.099 54.889,96.778 56.658,97.451 59.186C97.451 59.186,97.451 59.186,97.451 59.186C97.48 59.186,97.48 58.736,97.48 56.63C97.48 53.794,97.48 53.879,97.564 53.738C97.732 53.485,97.957 53.373,98.21 53.373C98.434 53.373,98.659 53.485,98.799 53.682C98.912 53.85,98.912 53.485,98.912 57.529C98.912 58.231,98.912 59.045,98.912 60C98.912 60.955,98.912 61.769,98.912 62.471C98.912 66.543,98.912 66.15,98.799 66.318C98.659 66.515,98.434 66.627,98.21 66.627C97.985 66.627,97.732 66.515,97.592 66.318C97.48 66.121,97.48 66.318,97.48 63.398C97.48 61.264,97.48 60.814,97.451 60.814C97.451 60.814,97.451 60.814,97.451 60.814C96.89 62.948,94.11 64.633,90.516 65.026C89.982 65.082,89.449 65.111,88.915 65.111C84.731 65.111,81.053 63.342,80.379 60.814C80.379 60.814,80.379 60.814,80.379 60.814C80.351 60.814,80.351 61.264,80.351 63.398C80.351 66.318,80.351 66.121,80.238 66.318C80.07 66.515,79.845 66.627,79.621 66.627C79.34 66.627,79.031 66.458,78.919 66.121C78.919 66.065,78.891 62.948,78.891 59.888C78.891 56.911,78.919 53.935,78.919 53.879C79.003 53.654,79.199 53.457,79.396 53.401M88.41 55.563C88.241 55.535,88.073 55.535,87.904 55.535C86.191 55.535,85.068 56.939,85.068 58.849C85.068 59.41,85.152 60.028,85.405 60.674C86.248 63.061,88.241 64.465,89.954 64.465C91.049 64.465,92.004 63.903,92.509 62.668C92.678 62.19,92.762 61.685,92.762 61.179C92.762 58.68,90.796 55.928,88.41 55.563M100.568 53.401C100.624 53.373,100.709 53.373,100.793 53.373C100.877 53.373,100.961 53.373,101.018 53.401C101.158 53.457,101.298 53.542,101.411 53.682C101.495 53.85,101.523 53.485,101.523 57.529C101.523 58.231,101.523 59.045,101.523 60C101.523 60.955,101.523 61.769,101.523 62.471C101.523 66.543,101.495 66.15,101.411 66.318C101.242 66.515,101.018 66.627,100.793 66.627C100.512 66.627,100.203 66.458,100.091 66.121C100.091 66.065,100.063 62.948,100.063 59.888C100.063 56.911,100.091 53.935,100.091 53.879C100.175 53.654,100.372 53.457,100.568 53.401"/></g></g><g class="vf-stavenote" id="vf-auto26733"><path stroke-width="1.4" fill="none" stroke="#444" d="M98.307 120L121.576 120"/><g class="vf-notehead" id="vf-auto26738" pointer-events="bounding-box"><path stroke="none" d="M108.973 114.918C109.31 114.889,109.619 114.889,109.928 114.889C114.027 114.889,117.65 116.602,118.436 118.989C118.548 119.326,118.576 119.691,118.576 120C118.576 122.808,114.842 125.111,109.928 125.111C105.098 125.111,101.307 122.864,101.307 120C101.307 117.36,104.593 115.198,108.973 114.918M109.422 115.563C109.254 115.535,109.085 115.535,108.917 115.535C107.232 115.535,106.081 116.939,106.081 118.849C106.081 119.41,106.193 120.028,106.418 120.674C107.288 123.089,109.282 124.465,110.967 124.465C112.062 124.465,113.045 123.903,113.522 122.668C113.719 122.19,113.803 121.685,113.803 121.179C113.803 118.68,111.837 115.928,109.422 115.563"/></g><g class="vf-notehead" id="vf-auto26739" pointer-events="bounding-box"><path stroke="none" d="M108.973 104.918C109.31 104.889,109.619 104.889,109.928 104.889C114.027 104.889,117.65 106.602,118.436 108.989C118.548 109.326,118.576 109.691,118.576 110C118.576 112.808,114.842 115.111,109.928 115.111C105.098 115.111,101.307 112.864,101.307 110C101.307 107.36,104.593 105.198,108.973 104.918M109.422 105.563C109.254 105.535,109.085 105.535,108.917 105.535C107.232 105.535,106.081 106.939,106.081 108.849C106.081 109.41,106.193 110.028,106.418 110.674C107.288 113.089,109.282 114.465,110.967 114.465C112.062 114.465,113.045 113.903,113.522 112.668C113.719 112.19,113.803 111.685,113.803 111.179C113.803 108.68,111.837 105.928,109.422 105.563"/></g><g class="vf-notehead" id="vf-auto26740" pointer-events="bounding-box"><path stroke="none" d="M108.973 89.918C109.31 89.889,109.619 89.889,109.928 89.889C114.027 89.889,117.65 91.602,118.436 93.989C118.548 94.326,118.576 94.691,118.576 95C118.576 97.808,114.842 100.111,109.928 100.111C105.098 100.111,101.307 97.864,101.307 95C101.307 92.36,104.593 90.198,108.973 89.918M109.422 90.563C109.254 90.535,109.085 90.535,108.917 90.535C107.232 90.535,106.081 91.939,106.081 93.849C106.081 94.41,106.193 95.028,106.418 95.674C107.288 98.089,109.282 99.465,110.967 99.465C112.062 99.465,113.045 98.903,113.522 97.668C113.719 97.19,113.803 96.685,113.803 96.179C113.803 93.68,111.837 90.928,109.422 90.563"/></g></g><g class="vf-stavenote" id="vf-auto26741"><path stroke-width="1.4" fill="none" stroke="#444" d="M123.307 60L141.297 60"/><g class="vf-stem" id="vf-auto26742" pointer-events="bounding-box"><path stroke-width="1.5" fill="none" d="M137.547 83.5L137.547 25"/></g><g class="vf-notehead" id="vf-auto26746" pointer-events="bounding-box"><path stroke="none" d="M133.411 79.889C133.496 79.889,133.58 79.889,133.72 79.889C134.085 79.889,134.619 79.918,134.815 79.946C137.146 80.283,138.297 81.827,138.297 83.624C138.297 85.534,137.006 87.724,134.422 89.128C133.159 89.802,131.867 90.111,130.688 90.111C128.526 90.111,126.756 89.044,126.391 87.162C126.335 86.881,126.307 86.629,126.307 86.376C126.307 83.343,129.564 80.283,133.411 79.889M136.556 81.35C136.416 81.293,136.276 81.293,136.107 81.293C134.394 81.293,130.884 83.371,128.919 85.674C128.076 86.657,127.627 87.527,127.627 88.061C127.627 88.313,127.711 88.482,127.88 88.566C128.048 88.678,128.273 88.707,128.497 88.707C130.323 88.707,134.113 86.376,135.995 83.961C136.669 83.119,137.006 82.417,137.006 81.967C137.006 81.658,136.837 81.434,136.556 81.35"/></g><g class="vf-notehead" id="vf-auto26747" pointer-events="bounding-box"><path stroke="none" d="M133.411 69.889C133.496 69.889,133.58 69.889,133.72 69.889C134.085 69.889,134.619 69.918,134.815 69.946C137.146 70.283,138.297 71.827,138.297 73.624C138.297 75.534,137.006 77.724,134.422 79.128C133.159 79.802,131.867 80.111,130.688 80.111C128.526 80.111,126.756 79.044,126.391 77.162C126.335 76.881,126.307 76.629,126.307 76.376C126.307 73.343,129.564 70.283,133.411 69.889M136.556 71.35C136.416 71.293,136.276 71.293,136.107 71.293C134.394 71.293,130.884 73.371,128.919 75.674C128.076 76.657,127.627 77.527,127.627 78.061C127.627 78.313,127.711 78.482,127.88 78.566C128.048 78.678,128.273 78.707,128.497 78.707C130.323 78.707,134.113 76.376,135.995 73.961C136.669 73.119,137.006 72.417,137.006 71.967C137.006 71.658,136.837 71.434,136.556 71.35"/></g><g class="vf-notehead" id="vf-auto26748" pointer-events="bounding-box"><path stroke="none" d="M133.411 54.889C133.496 54.889,133.58 54.889,133.72 54.889C134.085 54.889,134.619 54.918,134.815 54.946C137.146 55.283,138.297 56.827,138.297 58.624C138.297 60.534,137.006 62.724,134.422 64.128C133.159 64.802,131.867 65.111,130.688 65.111C128.526 65.111,126.756 64.044,126.391 62.162C126.335 61.881,126.307 61.629,126.307 61.376C126.307 58.343,129.564 55.283,133.411 54.889M136.556 56.35C136.416 56.293,136.276 56.293,136.107 56.293C134.394 56.293,130.884 58.371,128.919 60.674C128.076 61.657,127.627 62.527,127.627 63.061C127.627 63.313,127.711 63.482,127.88 63.566C128.048 63.678,128.273 63.707,128.497 63.707C130.323 63.707,134.113 61.376,135.995 58.961C136.669 58.119,137.006 57.417,137.006 56.967C137.006 56.658,136.837 56.434,136.556 56.35"/></g></g><g class="vf-stavenote" id="vf-auto26749"><path stroke-width="1.4" fill="none" stroke="#444" d="M148.307 120L166.297 120"/><g class="vf-stem" id="vf-auto26750" pointer-events="bounding-box"><path stroke-width="1.5" fill="none" d="M162.547 118.5L162.547 60"/></g><g class="vf-notehead" id="vf-auto26754" pointer-events="bounding-box"><path stroke="none" d="M158.411 114.889C158.496 114.889,158.58 114.889,158.72 114.889C159.085 114.889,159.619 114.918,159.815 114.946C162.146 115.283,163.297 116.827,163.297 118.624C163.297 120.534,162.006 122.724,159.422 124.128C158.159 124.802,156.867 125.111,155.688 125.111C153.526 125.111,151.756 124.044,151.391 122.162C151.335 121.881,151.307 121.629,151.307 121.376C151.307 118.343,154.564 115.283,158.411 114.889"/></g><g class="vf-notehead" id="vf-auto26755" pointer-events="bounding-box"><path stroke="none" d="M158.411 104.889C158.496 104.889,158.58 104.889,158.72 104.889C159.085 104.889,159.619 104.918,159.815 104.946C162.146 105.283,163.297 106.827,163.297 108.624C163.297 110.534,162.006 112.724,159.422 114.128C158.159 114.802,156.867 115.111,155.688 115.111C153.526 115.111,151.756 114.044,151.391 112.162C151.335 111.881,151.307 111.629,151.307 111.376C151.307 108.343,154.564 105.283,158.411 104.889"/></g><g class="vf-notehead" id="vf-auto26756" pointer-events="bounding-box"><path stroke="none" d="M158.411 89.889C158.496 89.889,158.58 89.889,158.72 89.889C159.085 89.889,159.619 89.918,159.815 89.946C162.146 90.283,163.297 91.827,163.297 93.624C163.297 95.534,162.006 97.724,159.422 99.128C158.159 99.802,156.867 100.111,155.688 100.111C153.526 100.111,151.756 99.044,151.391 97.162C151.335 96.881,151.307 96.629,151.307 96.376C151.307 93.343,154.564 90.283,158.411 89.889"/></g></g><g class="vf-stavenote" id="vf-auto26757"><path stroke-width="1.4" fill="none" stroke="#444" d="M173.307 60L191.297 60"/><g class="vf-stem" id="vf-auto26758" pointer-events="bounding-box"><path stroke-width="1.5" fill="none" d="M187.547 83.5L187.547 28"/></g><g class="vf-notehead" id="vf-auto26763" pointer-events="bounding-box"><path stroke="none" d="M183.411 79.889C183.496 79.889,183.58 79.889,183.72 79.889C184.085 79.889,184.619 79.918,184.815 79.946C187.146 80.283,188.297 81.827,188.297 83.624C188.297 85.534,187.006 87.724,184.422 89.128C183.159 89.802,181.867 90.111,180.688 90.111C178.526 90.111,176.756 89.044,176.391 87.162C176.335 86.881,176.307 86.629,176.307 86.376C176.307 83.343,179.564 80.283,183.411 79.889"/></g><g class="vf-notehead" id="vf-auto26764" pointer-events="bounding-box"><path stroke="none" d="M183.411 69.889C183.496 69.889,183.58 69.889,183.72 69.889C184.085 69.889,184.619 69.918,184.815 69.946C187.146 70.283,188.297 71.827,188.297 73.624C188.297 75.534,187.006 77.724,184.422 79.128C183.159 79.802,181.867 80.111,180.688 80.111C178.526 80.111,176.756 79.044,176.391 77.162C176.335 76.881,176.307 76.629,176.307 76.376C176.307 73.343,179.564 70.283,183.411 69.889"/></g><g class="vf-notehead" id="vf-auto26765" pointer-events="bounding-box"><path stroke="none" d="M183.411 54.889C183.496 54.889,183.58 54.889,183.72 54.889C184.085 54.889,184.619 54.918,184.815 54.946C187.146 55.283,188.297 56.827,188.297 58.624C188.297 60.534,187.006 62.724,184.422 64.128C183.159 64.802,181.867 65.111,180.688 65.111C178.526 65.111,176.756 64.044,176.391 62.162C176.335 61.881,176.307 61.629,176.307 61.376C176.307 58.343,179.564 55.283,183.411 54.889"/></g><path stroke="none" d="M186.822 27.409L186.822 23.14L186.906 23.14C187.243 23.14,187.383 23.309,187.495 23.758C188.31 26.819,189.854 29.346,192.297 31.592C194.993 34.092,196.341 37.545,196.341 41.084C196.341 44.172,195.33 47.373,193.252 50.125C192.522 51.108,192.297 51.305,192.016 51.305C191.651 51.305,191.427 51.052,191.427 50.771C191.427 50.603,191.511 50.406,191.651 50.238C193.842 47.682,194.965 44.594,194.965 41.673C194.965 39.09,194.094 36.647,192.353 34.766C191.258 33.614,189.377 32.547,186.85 31.677C186.822 31.677,186.822 30.806,186.822 27.409"/></g><g class="vf-stavenote" id="vf-auto26767"><path stroke-width="1.4" fill="none" stroke="#444" d="M198.307 120L216.297 120"/><g class="vf-stem" id="vf-auto26768" pointer-events="bounding-box"><path stroke-width="1.5" fill="none" d="M212.547 118.5L212.547 63"/></g><g class="vf-notehead" id="vf-auto26773" pointer-events="bounding-box"><path stroke="none" d="M208.411 114.889C208.496 114.889,208.58 114.889,208.72 114.889C209.085 114.889,209.619 114.918,209.815 114.946C212.146 115.283,213.297 116.827,213.297 118.624C213.297 120.534,212.006 122.724,209.422 124.128C208.159 124.802,206.867 125.111,205.688 125.111C203.526 125.111,201.756 124.044,201.391 122.162C201.335 121.881,201.307 121.629,201.307 121.376C201.307 118.343,204.564 115.283,208.411 114.889"/></g><g class="vf-notehead" id="vf-auto26774" pointer-events="bounding-box"><path stroke="none" d="M208.411 104.889C208.496 104.889,208.58 104.889,208.72 104.889C209.085 104.889,209.619 104.918,209.815 104.946C212.146 105.283,213.297 106.827,213.297 108.624C213.297 110.534,212.006 112.724,209.422 114.128C208.159 114.802,206.867 115.111,205.688 115.111C203.526 115.111,201.756 114.044,201.391 112.162C201.335 111.881,201.307 111.629,201.307 111.376C201.307 108.343,204.564 105.283,208.411 104.889"/></g><g class="vf-notehead" id="vf-auto26775" pointer-events="bounding-box"><path stroke="none" d="M208.411 89.889C208.496 89.889,208.58 89.889,208.72 89.889C209.085 89.889,209.619 89.918,209.815 89.946C212.146 90.283,213.297 91.827,213.297 93.624C213.297 95.534,212.006 97.724,209.422 99.128C208.159 99.802,206.867 100.111,205.688 100.111C203.526 100.111,201.756 99.044,201.391 97.162C201.335 96.881,201.307 96.629,201.307 96.376C201.307 93.343,204.564 90.283,208.411 89.889"/></g><path stroke="none" d="M211.822 61.987L211.822 58.14L211.906 58.14C212.158 58.14,212.355 58.281,212.467 58.59C213.282 60.527,215.191 62.97,217.971 65.61C220.161 67.744,221.341 70.608,221.341 73.612C221.341 74.904,221.144 76.224,220.695 77.516L220.582 77.824L220.695 78.133C221.144 79.341,221.341 80.604,221.341 81.896C221.341 84.479,220.47 87.119,218.842 89.281C218.224 90.067,218.083 90.18,217.803 90.18C217.438 90.18,217.213 89.927,217.213 89.618C217.213 89.478,217.269 89.309,217.381 89.197C219.122 87.203,220.021 84.788,220.021 82.345C220.021 81.924,219.993 81.475,219.937 81.054C219.88 80.717,219.852 80.408,219.796 80.267C219.796 80.239,219.74 80.071,219.712 79.902C219.207 77.993,218.027 76.28,216.483 75.185C215.612 74.595,213.815 74.146,212.215 74.146C212.046 74.146,211.906 74.146,211.878 74.146L211.822 74.118L211.822 70.271L211.822 66.424L211.906 66.424C212.158 66.424,212.355 66.564,212.467 66.873C213.282 68.811,215.219 71.31,217.943 73.893C218.673 74.567,219.319 75.382,219.74 76.084C219.768 76.112,219.768 76.14,219.796 76.14C219.796 76.14,219.824 76.084,219.852 75.943C219.965 75.325,220.021 74.708,220.021 74.062C220.021 73.472,219.965 72.882,219.852 72.293C219.852 72.18,219.824 72.04,219.796 72.012C219.796 71.956,219.74 71.787,219.712 71.619C219.207 69.709,218.027 67.996,216.483 66.901C215.612 66.312,213.815 65.862,212.215 65.862C212.046 65.862,211.906 65.862,211.878 65.862L211.822 65.834"/></g><g class="vf-stavenote" id="vf-auto26777"><path stroke-width="1.4" fill="none" stroke="#444" d="M223.307 60L241.297 60"/><g class="vf-stem" id="vf-auto26778" pointer-events="bounding-box"><path stroke-width="1.5" fill="none" d="M237.547 83.5L237.547 19"/></g><g class="vf-notehead" id="vf-auto26783" pointer-events="bounding-box"><path stroke="none" d="M233.411 79.889C233.496 79.889,233.58 79.889,233.72 79.889C234.085 79.889,234.619 79.918,234.815 79.946C237.146 80.283,238.297 81.827,238.297 83.624C238.297 85.534,237.006 87.724,234.422 89.128C233.159 89.802,231.867 90.111,230.688 90.111C228.526 90.111,226.756 89.044,226.391 87.162C226.335 86.881,226.307 86.629,226.307 86.376C226.307 83.343,229.564 80.283,233.411 79.889"/></g><g class="vf-notehead" id="vf-auto26784" pointer-events="bounding-box"><path stroke="none" d="M233.411 69.889C233.496 69.889,233.58 69.889,233.72 69.889C234.085 69.889,234.619 69.918,234.815 69.946C237.146 70.283,238.297 71.827,238.297 73.624C238.297 75.534,237.006 77.724,234.422 79.128C233.159 79.802,231.867 80.111,230.688 80.111C228.526 80.111,226.756 79.044,226.391 77.162C226.335 76.881,226.307 76.629,226.307 76.376C226.307 73.343,229.564 70.283,233.411 69.889"/></g><g class="vf-notehead" id="vf-auto26785" pointer-events="bounding-box"><path stroke="none" d="M233.411 54.889C233.496 54.889,233.58 54.889,233.72 54.889C234.085 54.889,234.619 54.918,234.815 54.946C237.146 55.283,238.297 56.827,238.297 58.624C238.297 60.534,237.006 62.724,234.422 64.128C233.159 64.802,231.867 65.111,230.688 65.111C228.526 65.111,226.756 64.044,226.391 62.162C226.335 61.881,226.307 61.629,226.307 61.376C226.307 58.343,229.564 55.283,233.411 54.889"/></g><path stroke="none" d="M236.822 17.959L236.822 14.14L236.906 14.14C237.158 14.14,237.327 14.253,237.495 14.618C238.282 16.19,240.023 18.352,241.988 20.234C242.269 20.515,242.634 20.852,242.774 20.992C244.487 22.677,245.667 25.035,246.116 27.703C246.256 28.461,246.313 29.247,246.313 30.062C246.313 31.353,246.144 32.701,245.835 33.965L245.751 34.33L245.779 34.47C245.891 34.892,246.032 35.481,246.116 35.987C246.256 36.745,246.313 37.531,246.313 38.345C246.313 39.637,246.144 40.957,245.835 42.248L245.751 42.614L245.779 42.754C245.891 43.175,246.032 43.765,246.116 44.27C246.256 45.028,246.313 45.815,246.313 46.629C246.313 48.847,245.807 51.178,244.88 53.34C244.459 54.211,243.701 55.615,243.505 55.839C243.364 55.952,243.224 56.008,243.083 56.008C242.803 56.008,242.522 55.755,242.522 55.418C242.522 55.25,242.522 55.193,242.69 54.913C244.178 52.554,244.965 49.886,244.965 47.331C244.965 46.91,244.937 46.489,244.88 46.095C244.572 42.838,242.915 40.086,240.584 38.851C239.938 38.514,239.04 38.373,237.636 38.345L236.822 38.345L236.822 34.526L236.822 30.708L236.906 30.708C237.158 30.708,237.327 30.82,237.495 31.185C238.282 32.757,240.023 34.948,241.988 36.801C243.505 38.233,244.038 38.907,244.74 40.171L244.88 40.451L244.909 40.199C244.937 39.834,244.965 39.44,244.965 39.075C244.965 35.313,243.28 31.971,240.584 30.567C239.938 30.23,239.04 30.09,237.636 30.062L236.822 30.062L236.822 26.243L236.822 22.424L236.906 22.424C237.158 22.424,237.327 22.536,237.495 22.901C238.282 24.474,240.023 26.664,241.988 28.517C243.505 29.949,244.038 30.623,244.74 31.915L244.88 32.168L244.909 31.915C244.937 31.55,244.965 31.157,244.965 30.792C244.965 27.029,243.28 23.688,240.584 22.284C239.938 21.947,239.04 21.806,237.636 21.778L236.822 21.778"/></g><g class="vf-stavenote" id="vf-auto26787"><path stroke-width="1.4" fill="none" stroke="#444" d="M248.307 60L266.297 60"/><g class="vf-stem" id="vf-auto26788" pointer-events="bounding-box"><path stroke-width="1.5" fill="none" d="M262.547 83.5L262.547 15"/></g><g class="vf-notehead" id="vf-auto26793" pointer-events="bounding-box"><path stroke="none" d="M258.411 79.889C258.496 79.889,258.58 79.889,258.72 79.889C259.085 79.889,259.619 79.918,259.815 79.946C262.146 80.283,263.297 81.827,263.297 83.624C263.297 85.534,262.006 87.724,259.422 89.128C258.159 89.802,256.867 90.111,255.688 90.111C253.526 90.111,251.756 89.044,251.391 87.162C251.335 86.881,251.307 86.629,251.307 86.376C251.307 83.343,254.564 80.283,258.411 79.889"/></g><g class="vf-notehead" id="vf-auto26794" pointer-events="bounding-box"><path stroke="none" d="M258.411 69.889C258.496 69.889,258.58 69.889,258.72 69.889C259.085 69.889,259.619 69.918,259.815 69.946C262.146 70.283,263.297 71.827,263.297 73.624C263.297 75.534,262.006 77.724,259.422 79.128C258.159 79.802,256.867 80.111,255.688 80.111C253.526 80.111,251.756 79.044,251.391 77.162C251.335 76.881,251.307 76.629,251.307 76.376C251.307 73.343,254.564 70.283,258.411 69.889"/></g><g class="vf-notehead" id="vf-auto26795" pointer-events="bounding-box"><path stroke="none" d="M258.411 54.889C258.496 54.889,258.58 54.889,258.72 54.889C259.085 54.889,259.619 54.918,259.815 54.946C262.146 55.283,263.297 56.827,263.297 58.624C263.297 60.534,262.006 62.724,259.422 64.128C258.159 64.802,256.867 65.111,255.688 65.111C253.526 65.111,251.756 64.044,251.391 62.162C251.335 61.881,251.307 61.629,251.307 61.376C251.307 58.343,254.564 55.283,258.411 54.889"/></g><path stroke="none" d="M261.822 13.959L261.822 10.14L261.906 10.14C262.215 10.14,262.355 10.281,262.524 10.73C263.113 12.611,264.377 14.324,266.37 16.037C268.533 17.89,269.796 19.716,270.723 22.496C271.116 23.675,271.313 24.939,271.313 26.202C271.313 27.55,271.088 28.898,270.639 30.19L270.582 30.358L270.695 30.751C271.116 31.93,271.313 33.222,271.313 34.486C271.313 35.834,271.088 37.181,270.639 38.445L270.582 38.642L270.695 39.035C271.116 40.214,271.313 41.506,271.313 42.769C271.313 44.117,271.088 45.465,270.639 46.729L270.582 46.897L270.695 47.318C271.116 48.526,271.313 49.761,271.313 51.025C271.313 52.822,270.891 54.647,270.077 56.36C269.88 56.781,269.74 56.894,269.459 56.894C269.122 56.894,268.87 56.641,268.87 56.304C268.87 56.164,268.87 56.135,269.094 55.714C269.768 54.254,270.077 52.654,270.077 51.081C270.077 48.273,269.01 45.549,267.044 43.949C265.809 42.938,264.658 42.46,263.366 42.46C263.001 42.46,262.608 42.517,262.215 42.573C262.102 42.601,261.934 42.629,261.906 42.629L261.822 42.629L261.822 38.81L261.822 34.991L261.906 34.991C262.215 34.991,262.355 35.132,262.524 35.581C263.113 37.462,264.377 39.175,266.37 40.888C267.831 42.124,268.982 43.499,269.712 44.932C269.796 45.1,269.824 45.156,269.824 45.156C269.852 45.156,269.852 45.128,269.852 45.1C269.852 45.072,269.88 44.932,269.909 44.791C270.021 44.145,270.105 43.471,270.105 42.797C270.105 39.961,268.982 37.238,267.044 35.665C265.809 34.654,264.658 34.177,263.366 34.177C263.001 34.177,262.608 34.233,262.215 34.289C262.102 34.317,261.934 34.345,261.906 34.345L261.822 34.345L261.822 30.526L261.822 26.708L261.906 26.708C262.215 26.708,262.355 26.848,262.524 27.297C263.113 29.179,264.377 30.892,266.37 32.604C267.831 33.84,268.982 35.216,269.712 36.648C269.796 36.816,269.824 36.873,269.824 36.873C269.852 36.873,269.852 36.844,269.852 36.816C269.852 36.788,269.88 36.648,269.909 36.508C270.021 35.862,270.105 35.188,270.105 34.542C270.105 31.678,268.982 28.954,267.044 27.382C265.809 26.371,264.658 25.921,263.366 25.921C263.001 25.921,262.608 25.949,262.215 26.006C262.102 26.034,261.934 26.062,261.906 26.062L261.822 26.062L261.822 22.243L261.822 18.424L261.906 18.424C262.215 18.424,262.355 18.564,262.524 19.014C263.113 20.895,264.377 22.608,266.37 24.321C267.831 25.556,268.982 26.96,269.712 28.364C269.796 28.533,269.824 28.589,269.824 28.589C269.852 28.589,269.852 28.561,269.852 28.533C269.852 28.505,269.88 28.364,269.909 28.224C270.021 27.578,270.105 26.904,270.105 26.258C270.105 23.394,268.982 20.67,267.044 19.098C265.809 18.087,264.658 17.638,263.366 17.638C263.001 17.638,262.608 17.666,262.215 17.722C262.102 17.75,261.934 17.778,261.906 17.778L261.822 17.778"/></g><g class="vf-stavenote" id="vf-auto26797"><path stroke-width="1.4" fill="none" stroke="#444" d="M273.307 60L291.297 60"/><g class="vf-stem" id="vf-auto26798" pointer-events="bounding-box"><path stroke-width="1.5" fill="none" d="M287.547 83.5L287.547 6"/></g><g class="vf-notehead" id="vf-auto26803" pointer-events="bounding-box"><path stroke="none" d="M283.411 79.889C283.496 79.889,283.58 79.889,283.72 79.889C284.085 79.889,284.619 79.918,284.815 79.946C287.146 80.283,288.297 81.827,288.297 83.624C288.297 85.534,287.006 87.724,284.422 89.128C283.159 89.802,281.867 90.111,280.688 90.111C278.526 90.111,276.756 89.044,276.391 87.162C276.335 86.881,276.307 86.629,276.307 86.376C276.307 83.343,279.564 80.283,283.411 79.889"/></g><g class="vf-notehead" id="vf-auto26804" pointer-events="bounding-box"><path stroke="none" d="M283.411 69.889C283.496 69.889,283.58 69.889,283.72 69.889C284.085 69.889,284.619 69.918,284.815 69.946C287.146 70.283,288.297 71.827,288.297 73.624C288.297 75.534,287.006 77.724,284.422 79.128C283.159 79.802,281.867 80.111,280.688 80.111C278.526 80.111,276.756 79.044,276.391 77.162C276.335 76.881,276.307 76.629,276.307 76.376C276.307 73.343,279.564 70.283,283.411 69.889"/></g><g class="vf-notehead" id="vf-auto26805" pointer-events="bounding-box"><path stroke="none" d="M283.411 54.889C283.496 54.889,283.58 54.889,283.72 54.889C284.085 54.889,284.619 54.918,284.815 54.946C287.146 55.283,288.297 56.827,288.297 58.624C288.297 60.534,287.006 62.724,284.422 64.128C283.159 64.802,281.867 65.111,280.688 65.111C278.526 65.111,276.756 64.044,276.391 62.162C276.335 61.881,276.307 61.629,276.307 61.376C276.307 58.343,279.564 55.283,283.411 54.889"/></g><path stroke="none" d="M286.822 4.65L286.822 1.14L286.906 1.14C287.187 1.14,287.299 1.253,287.524 1.702C288.254 3.162,289.658 4.959,291.427 6.784C292.522 7.88,293.055 8.554,293.729 9.536C295.386 12.035,296.256 14.843,296.256 17.567C296.256 18.803,296.06 20.038,295.695 21.218C295.611 21.442,295.582 21.498,295.582 21.583C295.582 21.667,295.611 21.723,295.667 21.92C296.06 23.183,296.256 24.531,296.256 25.823C296.256 27.086,296.06 28.35,295.695 29.501C295.611 29.726,295.582 29.782,295.582 29.866C295.582 29.95,295.611 30.007,295.667 30.203C296.06 31.467,296.256 32.815,296.256 34.106C296.256 35.37,296.06 36.634,295.695 37.785C295.611 38.009,295.582 38.066,295.582 38.15C295.582 38.234,295.611 38.29,295.667 38.487C296.06 39.75,296.256 41.098,296.256 42.39C296.256 43.654,296.06 44.917,295.695 46.068C295.611 46.265,295.582 46.349,295.582 46.433C295.582 46.518,295.611 46.574,295.667 46.742C296.06 48.062,296.256 49.382,296.256 50.645C296.256 52.892,295.667 55.026,294.544 56.711C294.094 57.413,293.954 57.525,293.673 57.525C293.308 57.525,293.083 57.3,293.083 56.992C293.083 56.851,293.14 56.655,293.28 56.486C294.459 54.914,295.021 53.004,295.021 51.039C295.021 48.315,293.926 45.479,291.764 43.317C290.697 42.193,288.899 41.435,287.046 41.295C286.962 41.267,286.878 41.267,286.85 41.267L286.822 41.267L286.822 37.757L286.822 34.275L286.906 34.275C287.187 34.275,287.299 34.387,287.524 34.836C288.254 36.268,289.658 38.094,291.427 39.919C292.971 41.491,293.87 42.699,294.684 44.327L294.852 44.636L294.88 44.496C294.965 43.906,295.021 43.317,295.021 42.755C295.021 39.975,293.87 37.167,291.764 35.033C290.697 33.91,288.899 33.152,287.046 33.011C286.962 32.983,286.878 32.983,286.85 32.983L286.822 32.983L286.822 29.473L286.822 25.991L286.906 25.991C287.187 25.991,287.299 26.104,287.524 26.553C288.254 27.985,289.658 29.81,291.427 31.635C292.971 33.208,293.87 34.415,294.684 36.044L294.852 36.353L294.88 36.212C294.965 35.623,295.021 35.033,295.021 34.471C295.021 31.691,293.87 28.883,291.764 26.749C290.697 25.626,288.899 24.868,287.046 24.728C286.962 24.728,286.878 24.7,286.85 24.7L286.822 24.7L286.822 21.19L286.822 17.708L286.906 17.708C287.187 17.708,287.299 17.82,287.524 18.269C288.254 19.701,289.658 21.526,291.427 23.352C292.971 24.924,293.87 26.132,294.684 27.76L294.852 28.069L294.88 27.929C294.965 27.339,295.021 26.749,295.021 26.188C295.021 23.408,293.87 20.6,291.764 18.466C290.697 17.343,288.899 16.584,287.046 16.444C286.962 16.444,286.878 16.416,286.85 16.416L286.822 16.416L286.822 12.906L286.822 9.424L286.906 9.424C287.187 9.424,287.299 9.536,287.524 9.986C288.254 11.446,289.658 13.243,291.427 15.068C292.971 16.641,293.87 17.848,294.684 19.477L294.852 19.786L294.88 19.645C294.965 19.055,295.021 18.494,295.021 17.904C295.021 15.124,293.87 12.316,291.764 10.182C290.697 9.059,288.899 8.301,287.046 8.16C286.962 8.16,286.878 8.132,286.85 8.132L286.822 8.132"/></g><g class="vf-stavenote" id="vf-auto26807"><path stroke-width="1.4" fill="none" stroke="#444" d="M298.307 120L329.523 120"/><g class="vf-notehead" id="vf-auto26814" pointer-events="bounding-box"><path stroke="none" d="M301.813 113.401C301.841 113.373,301.953 113.373,302.037 113.373C302.122 113.373,302.206 113.373,302.262 113.401C302.402 113.457,302.543 113.542,302.627 113.682C302.739 113.85,302.739 113.485,302.739 117.529C302.739 118.231,302.739 119.045,302.739 120C302.739 120.955,302.739 121.769,302.739 122.471C302.739 126.543,302.739 126.15,302.627 126.318C302.487 126.515,302.262 126.627,302.037 126.627C301.728 126.627,301.448 126.458,301.335 126.121C301.307 126.065,301.307 122.948,301.307 119.888C301.307 116.911,301.307 113.935,301.335 113.879C301.391 113.654,301.588 113.457,301.813 113.401M304.396 113.401C304.452 113.373,304.536 113.373,304.621 113.373C304.705 113.373,304.789 113.373,304.845 113.401C305.07 113.457,305.238 113.654,305.323 113.879C305.351 113.935,305.351 114.356,305.351 116.63C305.351 118.736,305.351 119.186,305.379 119.186C305.379 119.186,305.379 119.186,305.379 119.186C305.94 117.052,308.72 115.367,312.315 114.974C312.848 114.918,313.382 114.889,313.915 114.889C318.099 114.889,321.778 116.658,322.451 119.186C322.451 119.186,322.451 119.186,322.451 119.186C322.48 119.186,322.48 118.736,322.48 116.63C322.48 113.794,322.48 113.879,322.564 113.738C322.732 113.485,322.957 113.373,323.21 113.373C323.434 113.373,323.659 113.485,323.799 113.682C323.912 113.85,323.912 113.485,323.912 117.529C323.912 118.231,323.912 119.045,323.912 120C323.912 120.955,323.912 121.769,323.912 122.471C323.912 126.543,323.912 126.15,323.799 126.318C323.659 126.515,323.434 126.627,323.21 126.627C322.985 126.627,322.732 126.515,322.592 126.318C322.48 126.121,322.48 126.318,322.48 123.398C322.48 121.264,322.48 120.814,322.451 120.814C322.451 120.814,322.451 120.814,322.451 120.814C321.89 122.948,319.11 124.633,315.516 125.026C314.982 125.082,314.449 125.111,313.915 125.111C309.731 125.111,306.053 123.342,305.379 120.814C305.379 120.814,305.379 120.814,305.379 120.814C305.351 120.814,305.351 121.264,305.351 123.398C305.351 126.318,305.351 126.121,305.238 126.318C305.07 126.515,304.845 126.627,304.621 126.627C304.34 126.627,304.031 126.458,303.919 126.121C303.919 126.065,303.891 122.948,303.891 119.888C303.891 116.911,303.919 113.935,303.919 113.879C304.003 113.654,304.199 113.457,304.396 113.401M313.41 115.563C313.241 115.535,313.073 115.535,312.904 115.535C311.191 115.535,310.068 116.939,310.068 118.849C310.068 119.41,310.152 120.028,310.405 120.674C311.248 123.061,313.241 124.465,314.954 124.465C316.049 124.465,317.004 123.903,317.509 122.668C317.678 122.19,317.762 121.685,317.762 121.179C317.762 118.68,315.796 115.928,313.41 115.563M325.568 113.401C325.624 113.373,325.709 113.373,325.793 113.373C325.877 113.373,325.961 113.373,326.018 113.401C326.158 113.457,326.298 113.542,326.411 113.682C326.495 113.85,326.523 113.485,326.523 117.529C326.523 118.231,326.523 119.045,326.523 120C326.523 120.955,326.523 121.769,326.523 122.471C326.523 126.543,326.495 126.15,326.411 126.318C326.242 126.515,326.018 126.627,325.793 126.627C325.512 126.627,325.203 126.458,325.091 126.121C325.091 126.065,325.063 122.948,325.063 119.888C325.063 116.911,325.091 113.935,325.091 113.879C325.175 113.654,325.372 113.457,325.568 113.401"/></g><g class="vf-notehead" id="vf-auto26813" pointer-events="bounding-box"><path stroke="none" d="M301.813 103.401C301.841 103.373,301.953 103.373,302.037 103.373C302.122 103.373,302.206 103.373,302.262 103.401C302.402 103.457,302.543 103.542,302.627 103.682C302.739 103.85,302.739 103.485,302.739 107.529C302.739 108.231,302.739 109.045,302.739 110C302.739 110.955,302.739 111.769,302.739 112.471C302.739 116.543,302.739 116.15,302.627 116.318C302.487 116.515,302.262 116.627,302.037 116.627C301.728 116.627,301.448 116.458,301.335 116.121C301.307 116.065,301.307 112.948,301.307 109.888C301.307 106.911,301.307 103.935,301.335 103.879C301.391 103.654,301.588 103.457,301.813 103.401M304.396 103.401C304.452 103.373,304.536 103.373,304.621 103.373C304.705 103.373,304.789 103.373,304.845 103.401C305.07 103.457,305.238 103.654,305.323 103.879C305.351 103.935,305.351 104.356,305.351 106.63C305.351 108.736,305.351 109.186,305.379 109.186C305.379 109.186,305.379 109.186,305.379 109.186C305.94 107.052,308.72 105.367,312.315 104.974C312.848 104.918,313.382 104.889,313.915 104.889C318.099 104.889,321.778 106.658,322.451 109.186C322.451 109.186,322.451 109.186,322.451 109.186C322.48 109.186,322.48 108.736,322.48 106.63C322.48 103.794,322.48 103.879,322.564 103.738C322.732 103.485,322.957 103.373,323.21 103.373C323.434 103.373,323.659 103.485,323.799 103.682C323.912 103.85,323.912 103.485,323.912 107.529C323.912 108.231,323.912 109.045,323.912 110C323.912 110.955,323.912 111.769,323.912 112.471C323.912 116.543,323.912 116.15,323.799 116.318C323.659 116.515,323.434 116.627,323.21 116.627C322.985 116.627,322.732 116.515,322.592 116.318C322.48 116.121,322.48 116.318,322.48 113.398C322.48 111.264,322.48 110.814,322.451 110.814C322.451 110.814,322.451 110.814,322.451 110.814C321.89 112.948,319.11 114.633,315.516 115.026C314.982 115.082,314.449 115.111,313.915 115.111C309.731 115.111,306.053 113.342,305.379 110.814C305.379 110.814,305.379 110.814,305.379 110.814C305.351 110.814,305.351 111.264,305.351 113.398C305.351 116.318,305.351 116.121,305.238 116.318C305.07 116.515,304.845 116.627,304.621 116.627C304.34 116.627,304.031 116.458,303.919 116.121C303.919 116.065,303.891 112.948,303.891 109.888C303.891 106.911,303.919 103.935,303.919 103.879C304.003 103.654,304.199 103.457,304.396 103.401M313.41 105.563C313.241 105.535,313.073 105.535,312.904 105.535C311.191 105.535,310.068 106.939,310.068 108.849C310.068 109.41,310.152 110.028,310.405 110.674C311.248 113.061,313.241 114.465,314.954 114.465C316.049 114.465,317.004 113.903,317.509 112.668C317.678 112.19,317.762 111.685,317.762 111.179C317.762 108.68,315.796 105.928,313.41 105.563M325.568 103.401C325.624 103.373,325.709 103.373,325.793 103.373C325.877 103.373,325.961 103.373,326.018 103.401C326.158 103.457,326.298 103.542,326.411 103.682C326.495 103.85,326.523 103.485,326.523 107.529C326.523 108.231,326.523 109.045,326.523 110C326.523 110.955,326.523 111.769,326.523 112.471C326.523 116.543,326.495 116.15,326.411 116.318C326.242 116.515,326.018 116.627,325.793 116.627C325.512 116.627,325.203 116.458,325.091 116.121C325.091 116.065,325.063 112.948,325.063 109.888C325.063 106.911,325.091 103.935,325.091 103.879C325.175 103.654,325.372 103.457,325.568 103.401"/></g><g class="vf-notehead" id="vf-auto26812" pointer-events="bounding-box"><path stroke="none" d="M301.813 88.401C301.841 88.373,301.953 88.373,302.037 88.373C302.122 88.373,302.206 88.373,302.262 88.401C302.402 88.457,302.543 88.542,302.627 88.682C302.739 88.85,302.739 88.485,302.739 92.529C302.739 93.231,302.739 94.045,302.739 95C302.739 95.955,302.739 96.769,302.739 97.471C302.739 101.543,302.739 101.15,302.627 101.318C302.487 101.515,302.262 101.627,302.037 101.627C301.728 101.627,301.448 101.458,301.335 101.121C301.307 101.065,301.307 97.948,301.307 94.888C301.307 91.911,301.307 88.935,301.335 88.879C301.391 88.654,301.588 88.457,301.813 88.401M304.396 88.401C304.452 88.373,304.536 88.373,304.621 88.373C304.705 88.373,304.789 88.373,304.845 88.401C305.07 88.457,305.238 88.654,305.323 88.879C305.351 88.935,305.351 89.356,305.351 91.63C305.351 93.736,305.351 94.186,305.379 94.186C305.379 94.186,305.379 94.186,305.379 94.186C305.94 92.052,308.72 90.367,312.315 89.974C312.848 89.918,313.382 89.889,313.915 89.889C318.099 89.889,321.778 91.658,322.451 94.186C322.451 94.186,322.451 94.186,322.451 94.186C322.48 94.186,322.48 93.736,322.48 91.63C322.48 88.794,322.48 88.879,322.564 88.738C322.732 88.485,322.957 88.373,323.21 88.373C323.434 88.373,323.659 88.485,323.799 88.682C323.912 88.85,323.912 88.485,323.912 92.529C323.912 93.231,323.912 94.045,323.912 95C323.912 95.955,323.912 96.769,323.912 97.471C323.912 101.543,323.912 101.15,323.799 101.318C323.659 101.515,323.434 101.627,323.21 101.627C322.985 101.627,322.732 101.515,322.592 101.318C322.48 101.121,322.48 101.318,322.48 98.398C322.48 96.264,322.48 95.814,322.451 95.814C322.451 95.814,322.451 95.814,322.451 95.814C321.89 97.948,319.11 99.633,315.516 100.026C314.982 100.082,314.449 100.111,313.915 100.111C309.731 100.111,306.053 98.342,305.379 95.814C305.379 95.814,305.379 95.814,305.379 95.814C305.351 95.814,305.351 96.264,305.351 98.398C305.351 101.318,305.351 101.121,305.238 101.318C305.07 101.515,304.845 101.627,304.621 101.627C304.34 101.627,304.031 101.458,303.919 101.121C303.919 101.065,303.891 97.948,303.891 94.888C303.891 91.911,303.919 88.935,303.919 88.879C304.003 88.654,304.199 88.457,304.396 88.401M313.41 90.563C313.241 90.535,313.073 90.535,312.904 90.535C311.191 90.535,310.068 91.939,310.068 93.849C310.068 94.41,310.152 95.028,310.405 95.674C311.248 98.061,313.241 99.465,314.954 99.465C316.049 99.465,317.004 98.903,317.509 97.668C317.678 97.19,317.762 96.685,317.762 96.179C317.762 93.68,315.796 90.928,313.41 90.563M325.568 88.401C325.624 88.373,325.709 88.373,325.793 88.373C325.877 88.373,325.961 88.373,326.018 88.401C326.158 88.457,326.298 88.542,326.411 88.682C326.495 88.85,326.523 88.485,326.523 92.529C326.523 93.231,326.523 94.045,326.523 95C326.523 95.955,326.523 96.769,326.523 97.471C326.523 101.543,326.495 101.15,326.411 101.318C326.242 101.515,326.018 101.627,325.793 101.627C325.512 101.627,325.203 101.458,325.091 101.121C325.091 101.065,325.063 97.948,325.063 94.888C325.063 91.911,325.091 88.935,325.091 88.879C325.175 88.654,325.372 88.457,325.568 88.401"/></g></g><g class="vf-stavenote" id="vf-auto26815"><path stroke-width="1.4" fill="none" stroke="#444" d="M323.307 120L346.576 120"/><g class="vf-notehead" id="vf-auto26822" pointer-events="bounding-box"><path stroke="none" d="M333.973 114.918C334.31 114.889,334.619 114.889,334.928 114.889C339.027 114.889,342.65 116.602,343.436 118.989C343.548 119.326,343.576 119.691,343.576 120C343.576 122.808,339.842 125.111,334.928 125.111C330.098 125.111,326.307 122.864,326.307 120C326.307 117.36,329.593 115.198,333.973 114.918M334.422 115.563C334.254 115.535,334.085 115.535,333.917 115.535C332.232 115.535,331.081 116.939,331.081 118.849C331.081 119.41,331.193 120.028,331.418 120.674C332.288 123.089,334.282 124.465,335.967 124.465C337.062 124.465,338.045 123.903,338.522 122.668C338.719 122.19,338.803 121.685,338.803 121.179C338.803 118.68,336.837 115.928,334.422 115.563"/></g><g class="vf-notehead" id="vf-auto26821" pointer-events="bounding-box"><path stroke="none" d="M333.973 104.918C334.31 104.889,334.619 104.889,334.928 104.889C339.027 104.889,342.65 106.602,343.436 108.989C343.548 109.326,343.576 109.691,343.576 110C343.576 112.808,339.842 115.111,334.928 115.111C330.098 115.111,326.307 112.864,326.307 110C326.307 107.36,329.593 105.198,333.973 104.918M334.422 105.563C334.254 105.535,334.085 105.535,333.917 105.535C332.232 105.535,331.081 106.939,331.081 108.849C331.081 109.41,331.193 110.028,331.418 110.674C332.288 113.089,334.282 114.465,335.967 114.465C337.062 114.465,338.045 113.903,338.522 112.668C338.719 112.19,338.803 111.685,338.803 111.179C338.803 108.68,336.837 105.928,334.422 105.563"/></g><g class="vf-notehead" id="vf-auto26820" pointer-events="bounding-box"><path stroke="none" d="M333.973 89.918C334.31 89.889,334.619 89.889,334.928 89.889C339.027 89.889,342.65 91.602,343.436 93.989C343.548 94.326,343.576 94.691,343.576 95C343.576 97.808,339.842 100.111,334.928 100.111C330.098 100.111,326.307 97.864,326.307 95C326.307 92.36,329.593 90.198,333.973 89.918M334.422 90.563C334.254 90.535,334.085 90.535,333.917 90.535C332.232 90.535,331.081 91.939,331.081 93.849C331.081 94.41,331.193 95.028,331.418 95.674C332.288 98.089,334.282 99.465,335.967 99.465C337.062 99.465,338.045 98.903,338.522 97.668C338.719 97.19,338.803 96.685,338.803 96.179C338.803 93.68,336.837 90.928,334.422 90.563"/></g></g><g class="vf-stavenote" id="vf-auto26823"><path stroke-width="1.4" fill="none" stroke="#444" d="M348.307 120L366.297 120"/><g class="vf-stem" id="vf-auto26824" pointer-events="bounding-box"><path stroke-width="1.5" fill="none" d="M352.057 96.5L352.057 155"/></g><g class="vf-notehead" id="vf-auto26830" pointer-events="bounding-box"><path stroke="none" d="M358.411 114.889C358.496 114.889,358.58 114.889,358.72 114.889C359.085 114.889,359.619 114.918,359.815 114.946C362.146 115.283,363.297 116.827,363.297 118.624C363.297 120.534,362.006 122.724,359.422 124.128C358.159 124.802,356.867 125.111,355.688 125.111C353.526 125.111,351.756 124.044,351.391 122.162C351.335 121.881,351.307 121.629,351.307 121.376C351.307 118.343,354.564 115.283,358.411 114.889M361.556 116.35C361.416 116.293,361.276 116.293,361.107 116.293C359.394 116.293,355.884 118.371,353.919 120.674C353.076 121.657,352.627 122.527,352.627 123.061C352.627 123.313,352.711 123.482,352.88 123.566C353.048 123.678,353.273 123.707,353.497 123.707C355.323 123.707,359.113 121.376,360.995 118.961C361.669 118.119,362.006 117.417,362.006 116.967C362.006 116.658,361.837 116.434,361.556 116.35"/></g><g class="vf-notehead" id="vf-auto26829" pointer-events="bounding-box"><path stroke="none" d="M358.411 104.889C358.496 104.889,358.58 104.889,358.72 104.889C359.085 104.889,359.619 104.918,359.815 104.946C362.146 105.283,363.297 106.827,363.297 108.624C363.297 110.534,362.006 112.724,359.422 114.128C358.159 114.802,356.867 115.111,355.688 115.111C353.526 115.111,351.756 114.044,351.391 112.162C351.335 111.881,351.307 111.629,351.307 111.376C351.307 108.343,354.564 105.283,358.411 104.889M361.556 106.35C361.416 106.293,361.276 106.293,361.107 106.293C359.394 106.293,355.884 108.371,353.919 110.674C353.076 111.657,352.627 112.527,352.627 113.061C352.627 113.313,352.711 113.482,352.88 113.566C353.048 113.678,353.273 113.707,353.497 113.707C355.323 113.707,359.113 111.376,360.995 108.961C361.669 108.119,362.006 107.417,362.006 106.967C362.006 106.658,361.837 106.434,361.556 106.35"/></g><g class="vf-notehead" id="vf-auto26828" pointer-events="bounding-box"><path stroke="none" d="M358.411 89.889C358.496 89.889,358.58 89.889,358.72 89.889C359.085 89.889,359.619 89.918,359.815 89.946C362.146 90.283,363.297 91.827,363.297 93.624C363.297 95.534,362.006 97.724,359.422 99.128C358.159 99.802,356.867 100.111,355.688 100.111C353.526 100.111,351.756 99.044,351.391 97.162C351.335 96.881,351.307 96.629,351.307 96.376C351.307 93.343,354.564 90.283,358.411 89.889M361.556 91.35C361.416 91.293,361.276 91.293,361.107 91.293C359.394 91.293,355.884 93.371,353.919 95.674C353.076 96.657,352.627 97.527,352.627 98.061C352.627 98.313,352.711 98.482,352.88 98.566C353.048 98.678,353.273 98.707,353.497 98.707C355.323 98.707,359.113 96.376,360.995 93.961C361.669 93.119,362.006 92.417,362.006 91.967C362.006 91.658,361.837 91.434,361.556 91.35"/></g></g><g class="vf-stavenote" id="vf-auto26831"><path stroke-width="1.4" fill="none" stroke="#444" d="M373.307 120L391.297 120"/><g class="vf-stem" id="vf-auto26832" pointer-events="bounding-box"><path stroke-width="1.5" fill="none" d="M377.057 96.5L377.057 155"/></g><g class="vf-notehead" id="vf-auto26838" pointer-events="bounding-box"><path stroke="none" d="M383.411 114.889C383.496 114.889,383.58 114.889,383.72 114.889C384.085 114.889,384.619 114.918,384.815 114.946C387.146 115.283,388.297 116.827,388.297 118.624C388.297 120.534,387.006 122.724,384.422 124.128C383.159 124.802,381.867 125.111,380.688 125.111C378.526 125.111,376.756 124.044,376.391 122.162C376.335 121.881,376.307 121.629,376.307 121.376C376.307 118.343,379.564 115.283,383.411 114.889"/></g><g class="vf-notehead" id="vf-auto26837" pointer-events="bounding-box"><path stroke="none" d="M383.411 104.889C383.496 104.889,383.58 104.889,383.72 104.889C384.085 104.889,384.619 104.918,384.815 104.946C387.146 105.283,388.297 106.827,388.297 108.624C388.297 110.534,387.006 112.724,384.422 114.128C383.159 114.802,381.867 115.111,380.688 115.111C378.526 115.111,376.756 114.044,376.391 112.162C376.335 111.881,376.307 111.629,376.307 111.376C376.307 108.343,379.564 105.283,383.411 104.889"/></g><g class="vf-notehead" id="vf-auto26836" pointer-events="bounding-box"><path stroke="none" d="M383.411 89.889C383.496 89.889,383.58 89.889,383.72 89.889C384.085 89.889,384.619 89.918,384.815 89.946C387.146 90.283,388.297 91.827,388.297 93.624C388.297 95.534,387.006 97.724,384.422 99.128C383.159 99.802,381.867 100.111,380.688 100.111C378.526 100.111,376.756 99.044,376.391 97.162C376.335 96.881,376.307 96.629,376.307 96.376C376.307 93.343,379.564 90.283,383.411 89.889"/></g></g><g class="vf-stavenote" id="vf-auto26839"><path stroke-width="1.4" fill="none" stroke="#444" d="M398.307 120L416.297 120"/><g class="vf-stem" id="vf-auto26840" pointer-events="bounding-box"><path stroke-width="1.5" fill="none" d="M402.057 96.5L402.057 152"/></g><g class="vf-notehead" id="vf-auto26847" pointer-events="bounding-box"><path stroke="none" d="M408.411 114.889C408.496 114.889,408.58 114.889,408.72 114.889C409.085 114.889,409.619 114.918,409.815 114.946C412.146 115.283,413.297 116.827,413.297 118.624C413.297 120.534,412.006 122.724,409.422 124.128C408.159 124.802,406.867 125.111,405.688 125.111C403.526 125.111,401.756 124.044,401.391 122.162C401.335 121.881,401.307 121.629,401.307 121.376C401.307 118.343,404.564 115.283,408.411 114.889"/></g><g class="vf-notehead" id="vf-auto26846" pointer-events="bounding-box"><path stroke="none" d="M408.411 104.889C408.496 104.889,408.58 104.889,408.72 104.889C409.085 104.889,409.619 104.918,409.815 104.946C412.146 105.283,413.297 106.827,413.297 108.624C413.297 110.534,412.006 112.724,409.422 114.128C408.159 114.802,406.867 115.111,405.688 115.111C403.526 115.111,401.756 114.044,401.391 112.162C401.335 111.881,401.307 111.629,401.307 111.376C401.307 108.343,404.564 105.283,408.411 104.889"/></g><g class="vf-notehead" id="vf-auto26845" pointer-events="bounding-box"><path stroke="none" d="M408.411 89.889C408.496 89.889,408.58 89.889,408.72 89.889C409.085 89.889,409.619 89.918,409.815 89.946C412.146 90.283,413.297 91.827,413.297 93.624C413.297 95.534,412.006 97.724,409.422 99.128C408.159 99.802,406.867 100.111,405.688 100.111C403.526 100.111,401.756 99.044,401.391 97.162C401.335 96.881,401.307 96.629,401.307 96.376C401.307 93.343,404.564 90.283,408.411 89.889"/></g><path stroke="none" d="M408.299 128.723C408.384 128.695,408.468 128.695,408.552 128.695C408.777 128.695,408.945 128.864,409.226 129.257C411.192 132.262,412.203 135.631,412.203 138.86C412.203 140.938,411.781 142.932,410.939 144.757C410.321 146.105,409.423 147.369,408.44 148.267C406.278 150.233,404.789 151.889,403.498 153.715C402.824 154.641,402.178 155.736,401.897 156.438C401.785 156.691,401.588 156.86,401.392 156.86L401.308 156.86L401.308 152.591L401.308 148.351L401.448 148.351C402.234 148.351,403.722 148.071,404.677 147.762C408.271 146.554,410.714 142.567,410.714 137.962C410.714 135.21,409.844 132.346,408.215 129.875C407.991 129.51,407.934 129.454,407.934 129.285C407.934 129.032,408.075 128.808,408.299 128.723"/></g><g class="vf-stavenote" id="vf-auto26849"><path stroke-width="1.4" fill="none" stroke="#444" d="M423.307 120L441.297 120"/><g class="vf-stem" id="vf-auto26850" pointer-events="bounding-box"><path stroke-width="1.5" fill="none" d="M427.057 96.5L427.057 152"/></g><g class="vf-notehead" id="vf-auto26857" pointer-events="bounding-box"><path stroke="none" d="M433.411 114.889C433.496 114.889,433.58 114.889,433.72 114.889C434.085 114.889,434.619 114.918,434.815 114.946C437.146 115.283,438.297 116.827,438.297 118.624C438.297 120.534,437.006 122.724,434.422 124.128C433.159 124.802,431.867 125.111,430.688 125.111C428.526 125.111,426.756 124.044,426.391 122.162C426.335 121.881,426.307 121.629,426.307 121.376C426.307 118.343,429.564 115.283,433.411 114.889"/></g><g class="vf-notehead" id="vf-auto26856" pointer-events="bounding-box"><path stroke="none" d="M433.411 104.889C433.496 104.889,433.58 104.889,433.72 104.889C434.085 104.889,434.619 104.918,434.815 104.946C437.146 105.283,438.297 106.827,438.297 108.624C438.297 110.534,437.006 112.724,434.422 114.128C433.159 114.802,431.867 115.111,430.688 115.111C428.526 115.111,426.756 114.044,426.391 112.162C426.335 111.881,426.307 111.629,426.307 111.376C426.307 108.343,429.564 105.283,433.411 104.889"/></g><g class="vf-notehead" id="vf-auto26855" pointer-events="bounding-box"><path stroke="none" d="M433.411 89.889C433.496 89.889,433.58 89.889,433.72 89.889C434.085 89.889,434.619 89.918,434.815 89.946C437.146 90.283,438.297 91.827,438.297 93.624C438.297 95.534,437.006 97.724,434.422 99.128C433.159 99.802,431.867 100.111,430.688 100.111C428.526 100.111,426.756 99.044,426.391 97.162C426.335 96.881,426.307 96.629,426.307 96.376C426.307 93.343,429.564 90.283,433.411 89.889"/></g><path stroke="none" d="M435.321 128.723C435.405 128.695,435.49 128.695,435.546 128.695C435.799 128.695,435.995 128.836,436.136 129.173C436.725 130.408,437.034 131.784,437.034 133.216C437.034 134.396,436.809 135.631,436.388 136.782L436.304 137.063L436.388 137.344C436.809 138.439,437.034 139.59,437.034 140.77C437.034 143.381,436.023 146.021,434.114 148.127C433.721 148.576,433.243 149.025,432.626 149.559C430.211 151.609,427.992 154.276,426.869 156.523C426.757 156.719,426.56 156.86,426.392 156.86L426.308 156.86L426.308 153.153L426.308 149.418L426.588 149.39C429.284 148.969,431.165 148.295,432.513 147.256C434.647 145.571,435.827 143.157,435.827 140.629C435.827 140.012,435.77 139.366,435.63 138.748L435.574 138.551L435.434 138.804C434.732 139.984,433.889 140.91,432.626 141.977C430.211 144.055,427.992 146.695,426.869 148.941C426.757 149.138,426.56 149.306,426.392 149.306L426.308 149.306L426.308 145.571L426.308 141.865L426.588 141.837C428.975 141.472,430.772 140.854,432.036 140.04C434.451 138.411,435.827 135.715,435.827 133.02C435.827 131.925,435.602 130.858,435.153 129.819C434.956 129.425,434.956 129.425,434.956 129.285C434.956 129.032,435.097 128.808,435.321 128.723"/></g><g class="vf-stavenote" id="vf-auto26859"><path stroke-width="1.4" fill="none" stroke="#444" d="M448.307 120L466.297 120"/><g class="vf-stem" id="vf-auto26860" pointer-events="bounding-box"><path stroke-width="1.5" fill="none" d="M452.057 96.5L452.057 161"/></g><g class="vf-notehead" id="vf-auto26867" pointer-events="bounding-box"><path stroke="none" d="M458.411 114.889C458.496 114.889,458.58 114.889,458.72 114.889C459.085 114.889,459.619 114.918,459.815 114.946C462.146 115.283,463.297 116.827,463.297 118.624C463.297 120.534,462.006 122.724,459.422 124.128C458.159 124.802,456.867 125.111,455.688 125.111C453.526 125.111,451.756 124.044,451.391 122.162C451.335 121.881,451.307 121.629,451.307 121.376C451.307 118.343,454.564 115.283,458.411 114.889"/></g><g class="vf-notehead" id="vf-auto26866" pointer-events="bounding-box"><path stroke="none" d="M458.411 104.889C458.496 104.889,458.58 104.889,458.72 104.889C459.085 104.889,459.619 104.918,459.815 104.946C462.146 105.283,463.297 106.827,463.297 108.624C463.297 110.534,462.006 112.724,459.422 114.128C458.159 114.802,456.867 115.111,455.688 115.111C453.526 115.111,451.756 114.044,451.391 112.162C451.335 111.881,451.307 111.629,451.307 111.376C451.307 108.343,454.564 105.283,458.411 104.889"/></g><g class="vf-notehead" id="vf-auto26865" pointer-events="bounding-box"><path stroke="none" d="M458.411 89.889C458.496 89.889,458.58 89.889,458.72 89.889C459.085 89.889,459.619 89.918,459.815 89.946C462.146 90.283,463.297 91.827,463.297 93.624C463.297 95.534,462.006 97.724,459.422 99.128C458.159 99.802,456.867 100.111,455.688 100.111C453.526 100.111,451.756 99.044,451.391 97.162C451.335 96.881,451.307 96.629,451.307 96.376C451.307 93.343,454.564 90.283,458.411 89.889"/></g><path stroke="none" d="M459.591 128.232C459.647 128.204,459.732 128.204,459.816 128.204C459.9 128.204,459.984 128.204,460.04 128.232C460.462 128.373,461.388 130.282,461.781 131.827C462.006 132.781,462.146 133.764,462.146 134.775C462.146 135.982,461.95 137.218,461.613 138.341L461.529 138.566L461.613 138.819C461.669 138.959,461.725 139.212,461.781 139.38C462.006 140.335,462.146 141.346,462.146 142.329C462.146 143.564,461.95 144.772,461.613 145.895L461.529 146.119L461.613 146.372C461.669 146.512,461.725 146.765,461.781 146.934C462.034 147.916,462.146 148.899,462.146 149.882C462.146 153.252,460.714 156.537,458.131 158.812C457.85 159.064,457.85 159.064,457.204 159.598C454.818 161.507,452.852 163.641,451.897 165.438C451.757 165.719,451.588 165.86,451.392 165.86L451.308 165.86L451.308 162.209L451.308 158.559L451.476 158.559C453.666 158.222,455.716 157.52,457.176 156.537C459.479 154.993,460.855 152.269,460.855 149.377C460.855 148.984,460.827 148.59,460.77 148.169L460.742 147.945L460.686 148.029C459.956 149.32,459.142 150.359,458.131 151.258C457.85 151.483,457.85 151.511,457.204 152.044C454.818 153.926,452.852 156.088,451.897 157.857C451.757 158.166,451.588 158.306,451.392 158.306L451.308 158.306L451.308 154.656L451.308 151.005L451.476 150.977C453.666 150.668,455.716 149.938,457.176 148.984C459.479 147.439,460.855 144.715,460.855 141.823C460.855 141.43,460.827 141.009,460.77 140.616L460.742 140.391L460.686 140.475C459.956 141.767,459.142 142.806,458.131 143.704C457.85 143.929,457.85 143.929,457.204 144.463C454.818 146.372,452.852 148.534,451.897 150.303C451.757 150.584,451.588 150.724,451.392 150.724L451.308 150.724L451.308 147.074L451.308 143.452L451.476 143.424C453.919 143.059,456.25 142.188,457.682 141.037C459.76 139.38,460.855 136.881,460.855 134.27C460.855 132.585,460.405 130.872,459.451 129.299C459.254 128.991,459.254 128.934,459.254 128.766C459.254 128.513,459.395 128.317,459.591 128.232"/></g><g class="vf-stavenote" id="vf-auto26869"><path stroke-width="1.4" fill="none" stroke="#444" d="M473.307 120L491.297 120"/><g class="vf-stem" id="vf-auto26870" pointer-events="bounding-box"><path stroke-width="1.5" fill="none" d="M477.057 96.5L477.057 165"/></g><g class="vf-notehead" id="vf-auto26877" pointer-events="bounding-box"><path stroke="none" d="M483.411 114.889C483.496 114.889,483.58 114.889,483.72 114.889C484.085 114.889,484.619 114.918,484.815 114.946C487.146 115.283,488.297 116.827,488.297 118.624C488.297 120.534,487.006 122.724,484.422 124.128C483.159 124.802,481.867 125.111,480.688 125.111C478.526 125.111,476.756 124.044,476.391 122.162C476.335 121.881,476.307 121.629,476.307 121.376C476.307 118.343,479.564 115.283,483.411 114.889"/></g><g class="vf-notehead" id="vf-auto26876" pointer-events="bounding-box"><path stroke="none" d="M483.411 104.889C483.496 104.889,483.58 104.889,483.72 104.889C484.085 104.889,484.619 104.918,484.815 104.946C487.146 105.283,488.297 106.827,488.297 108.624C488.297 110.534,487.006 112.724,484.422 114.128C483.159 114.802,481.867 115.111,480.688 115.111C478.526 115.111,476.756 114.044,476.391 112.162C476.335 111.881,476.307 111.629,476.307 111.376C476.307 108.343,479.564 105.283,483.411 104.889"/></g><g class="vf-notehead" id="vf-auto26875" pointer-events="bounding-box"><path stroke="none" d="M483.411 89.889C483.496 89.889,483.58 89.889,483.72 89.889C484.085 89.889,484.619 89.918,484.815 89.946C487.146 90.283,488.297 91.827,488.297 93.624C488.297 95.534,487.006 97.724,484.422 99.128C483.159 99.802,481.867 100.111,480.688 100.111C478.526 100.111,476.756 99.044,476.391 97.162C476.335 96.881,476.307 96.629,476.307 96.376C476.307 93.343,479.564 90.283,483.411 89.889"/></g><path stroke="none" d="M484.086 127.487C484.17 127.459,484.226 127.431,484.31 127.431C484.451 127.431,484.591 127.487,484.732 127.599C485.405 128.133,485.967 128.835,486.388 129.593C486.922 130.632,487.203 131.783,487.203 132.962C487.203 134.17,486.894 135.377,486.332 136.529L486.164 136.809L486.22 136.866C486.248 136.922,486.304 137.034,486.388 137.174C486.922 138.213,487.203 139.337,487.203 140.516C487.203 141.723,486.894 142.959,486.332 144.11L486.164 144.391L486.22 144.447C486.248 144.475,486.304 144.588,486.388 144.728C486.922 145.767,487.203 146.918,487.203 148.07C487.203 149.277,486.894 150.512,486.332 151.664L486.164 151.945L486.22 152.001C486.781 152.843,487.174 154.331,487.174 155.595C487.174 155.623,487.174 155.623,487.174 155.623C487.174 158.375,485.827 160.818,483.384 162.503C480.323 164.609,477.683 167.417,476.869 169.466C476.785 169.691,476.616 169.832,476.42 169.86L476.308 169.86L476.308 166.293L476.308 162.727L476.56 162.699C478.245 162.615,479.93 162.306,481.025 161.857C483.917 160.706,485.827 157.982,485.827 155.258C485.827 154.64,485.714 154.022,485.518 153.433C485.434 153.208,485.405 153.152,485.377 153.152C485.349 153.152,485.321 153.18,485.265 153.236C484.788 153.854,484.17 154.388,483.384 154.921C480.295 157.055,477.683 159.863,476.869 161.885C476.785 162.138,476.616 162.278,476.42 162.278L476.308 162.306L476.308 158.712L476.308 155.146L476.56 155.146C478.245 155.061,479.93 154.724,481.025 154.303C483.917 153.152,485.827 150.428,485.827 147.704C485.827 147.087,485.714 146.469,485.518 145.879C485.434 145.655,485.405 145.57,485.377 145.57C485.349 145.57,485.321 145.627,485.265 145.683C484.788 146.3,484.17 146.834,483.384 147.368C480.295 149.502,477.683 152.282,476.869 154.331C476.785 154.556,476.616 154.696,476.42 154.724L476.308 154.724L476.308 151.158L476.308 147.592L476.56 147.564C478.245 147.48,479.93 147.171,481.025 146.75C483.917 145.598,485.827 142.847,485.827 140.151C485.827 139.533,485.714 138.915,485.518 138.326C485.434 138.101,485.405 138.017,485.377 138.017C485.349 138.017,485.321 138.045,485.265 138.129C484.788 138.719,484.17 139.28,483.384 139.814C480.295 141.92,477.683 144.728,476.869 146.778C476.785 147.002,476.616 147.143,476.42 147.171L476.308 147.171L476.308 143.605L476.308 140.039L476.56 140.011C478.245 139.926,479.93 139.617,481.025 139.168C483.861 138.045,485.799 135.377,485.799 132.597L485.799 132.597C485.799 130.997,485.153 129.481,484.058 128.582C483.805 128.357,483.749 128.245,483.749 128.02C483.749 127.768,483.889 127.543,484.086 127.487"/></g><g class="vf-stavenote" id="vf-auto26879"><path stroke-width="1.4" fill="none" stroke="#444" d="M498.307 120L516.297 120"/><g class="vf-stem" id="vf-auto26880" pointer-events="bounding-box"><path stroke-width="1.5" fill="none" d="M502.057 96.5L502.057 174"/></g><g class="vf-notehead" id="vf-auto26887" pointer-events="bounding-box"><path stroke="none" d="M508.411 114.889C508.496 114.889,508.58 114.889,508.72 114.889C509.085 114.889,509.619 114.918,509.815 114.946C512.146 115.283,513.297 116.827,513.297 118.624C513.297 120.534,512.006 122.724,509.422 124.128C508.159 124.802,506.867 125.111,505.688 125.111C503.526 125.111,501.756 124.044,501.391 122.162C501.335 121.881,501.307 121.629,501.307 121.376C501.307 118.343,504.564 115.283,508.411 114.889"/></g><g class="vf-notehead" id="vf-auto26886" pointer-events="bounding-box"><path stroke="none" d="M508.411 104.889C508.496 104.889,508.58 104.889,508.72 104.889C509.085 104.889,509.619 104.918,509.815 104.946C512.146 105.283,513.297 106.827,513.297 108.624C513.297 110.534,512.006 112.724,509.422 114.128C508.159 114.802,506.867 115.111,505.688 115.111C503.526 115.111,501.756 114.044,501.391 112.162C501.335 111.881,501.307 111.629,501.307 111.376C501.307 108.343,504.564 105.283,508.411 104.889"/></g><g class="vf-notehead" id="vf-auto26885" pointer-events="bounding-box"><path stroke="none" d="M508.411 89.889C508.496 89.889,508.58 89.889,508.72 89.889C509.085 89.889,509.619 89.918,509.815 89.946C512.146 90.283,513.297 91.827,513.297 93.624C513.297 95.534,512.006 97.724,509.422 99.128C508.159 99.802,506.867 100.111,505.688 100.111C503.526 100.111,501.756 99.044,501.391 97.162C501.335 96.881,501.307 96.629,501.307 96.376C501.307 93.343,504.564 90.283,508.411 89.889"/></g><path stroke="none" d="M509.591 126.968C509.675 126.94,509.76 126.912,509.816 126.912C510.04 126.912,510.237 127.08,510.49 127.417C511.613 129.018,512.174 130.899,512.174 132.78C512.174 133.96,511.95 135.139,511.501 136.29L511.388 136.571L511.501 136.88C511.95 137.975,512.174 139.154,512.174 140.334C512.174 141.541,511.95 142.721,511.501 143.844L511.388 144.125L511.501 144.434C511.95 145.557,512.174 146.736,512.174 147.915C512.174 149.095,511.95 150.274,511.501 151.397L511.388 151.678L511.501 151.987C511.95 153.11,512.174 154.29,512.174 155.469C512.174 156.648,511.95 157.856,511.501 158.979L511.388 159.26L511.501 159.569C511.95 160.692,512.174 161.871,512.174 163.022C512.174 165.774,510.967 168.442,508.749 170.323C505.463 173.075,502.852 176.164,501.897 178.41C501.785 178.691,501.588 178.86,501.392 178.86L501.308 178.86L501.336 175.35L501.336 171.84L501.532 171.812C502.571 171.587,503.975 171.081,505.154 170.548C506.334 169.986,506.895 169.677,507.513 169.2C509.647 167.6,510.855 165.157,510.855 162.657C510.855 162.068,510.799 161.506,510.658 160.945C510.63 160.776,510.63 160.72,510.602 160.72C510.574 160.72,510.546 160.748,510.518 160.832C510.04 161.506,509.423 162.18,508.749 162.742C505.463 165.494,502.852 168.61,501.897 170.857C501.785 171.138,501.588 171.306,501.392 171.306L501.308 171.306L501.336 167.796L501.336 164.286L501.532 164.23C502.571 164.033,503.975 163.528,505.154 162.994C506.334 162.433,506.895 162.124,507.513 161.647C509.647 160.046,510.855 157.603,510.855 155.076C510.855 154.514,510.799 153.953,510.658 153.391C510.63 153.223,510.63 153.166,510.602 153.166C510.574 153.166,510.546 153.194,510.518 153.251C510.04 153.953,509.423 154.598,508.749 155.188C505.463 157.94,502.852 161.057,501.897 163.303C501.785 163.584,501.588 163.724,501.392 163.724L501.308 163.724L501.336 160.214L501.336 156.733L501.532 156.676C502.571 156.452,503.975 155.974,505.154 155.413C506.334 154.879,506.895 154.57,507.513 154.093C509.647 152.492,510.855 150.05,510.855 147.522C510.855 146.961,510.799 146.371,510.658 145.809C510.63 145.669,510.63 145.585,510.602 145.585C510.574 145.585,510.546 145.641,510.518 145.697C510.012 146.427,509.451 147.045,508.636 147.719C505.463 150.386,502.824 153.531,501.897 155.722C501.785 156.002,501.588 156.171,501.392 156.171L501.308 156.171L501.336 152.661L501.336 149.151L501.532 149.123C502.571 148.898,503.975 148.421,505.154 147.859C506.334 147.326,506.895 146.989,507.513 146.54C509.647 144.911,510.855 142.468,510.855 139.969C510.855 139.407,510.799 138.818,510.658 138.256C510.63 138.087,510.63 138.031,510.602 138.031C510.574 138.031,510.546 138.059,510.518 138.144C510.012 138.874,509.451 139.463,508.636 140.165C505.463 142.833,502.824 145.95,501.897 148.168C501.785 148.449,501.588 148.617,501.392 148.617L501.308 148.617L501.336 145.107L501.336 141.597L501.532 141.569C502.571 141.345,503.975 140.839,505.154 140.306C506.334 139.744,506.895 139.435,507.513 138.958C509.703 137.329,510.855 134.858,510.855 132.387C510.855 130.843,510.405 129.298,509.423 127.979C509.31 127.81,509.254 127.614,509.254 127.473C509.254 127.249,509.366 127.052,509.591 126.968"/></g><g class="vf-stavenote" id="vf-auto26889"><g class="vf-notehead" id="vf-auto26892" pointer-events="bounding-box"><path stroke="none" d="M526.307 85.254L526.307 80.481L531.699 80.481L537.118 80.481L537.118 85.254L537.118 90L531.699 90L526.307 90"/></g></g><g class="vf-stavenote" id="vf-auto26893"><g class="vf-notehead" id="vf-auto26896" pointer-events="bounding-box"><path stroke="none" d="M551.307 82.387L551.307 80L557.569 80L563.831 80L563.831 82.387L563.831 84.746L557.569 84.746L551.307 84.746"/></g></g><g class="vf-stavenote" id="vf-auto26897"><g class="vf-notehead" id="vf-auto26900" pointer-events="bounding-box"><path stroke="none" d="M576.307 87.613L576.307 85.254L582.569 85.254L588.831 85.254L588.831 87.613L588.831 90L582.569 90L576.307 90"/></g></g><g class="vf-stavenote" id="vf-auto26901"><g class="vf-notehead" id="vf-auto26904" pointer-events="bounding-box"><path stroke="none" d="M602.627 76.157C602.683 76.128,602.739 76.128,602.795 76.128C602.936 76.128,603.076 76.213,603.273 76.381C603.357 76.465,603.638 76.69,603.862 76.887C604.059 77.083,604.34 77.308,604.424 77.392C605.07 77.954,605.351 78.206,606.081 78.824C609.282 81.632,609.507 81.801,609.507 81.969C609.507 81.969,609.507 81.997,609.507 82.025C609.507 82.053,609.507 82.081,609.507 82.11C609.507 82.222,609.478 82.222,609.17 82.671C608.383 83.85,607.766 85.226,607.485 86.518C607.288 87.36,607.176 88.175,607.176 88.989C607.176 91.207,607.934 93.229,609.366 94.689C609.703 94.998,609.731 95.054,609.731 95.223C609.731 95.504,609.563 95.644,609.31 95.644C609.198 95.644,609.085 95.616,608.973 95.588C608.72 95.532,608.44 95.476,608.187 95.476C607.148 95.476,606.081 95.981,605.379 96.852C604.817 97.582,604.536 98.452,604.536 99.323C604.536 100.558,605.098 101.878,606.193 102.945C606.39 103.141,606.502 103.31,606.502 103.478C606.502 103.563,606.446 103.647,606.362 103.759C606.277 103.815,606.193 103.872,606.081 103.872C605.884 103.872,605.575 103.647,604.901 103.085C602.571 101.092,601.307 98.986,601.307 97.132L601.307 97.132L601.307 96.655L601.363 96.43C601.813 94.802,603.385 93.847,605.463 93.847C605.968 93.847,606.502 93.903,607.036 94.015L607.316 94.072L607.26 94.015C607.204 93.959,605.744 92.668,604.593 91.629C601.925 89.27,601.813 89.186,601.813 89.017C601.813 88.989,601.813 88.989,601.813 88.961L601.813 88.933C601.813 88.764,601.813 88.764,602.065 88.456C603.61 86.378,604.396 83.935,604.396 81.744C604.396 79.919,603.834 78.234,602.711 77.083C602.402 76.802,602.374 76.746,602.374 76.578C602.374 76.381,602.458 76.241,602.627 76.157"/></g></g><g class="vf-stavenote" id="vf-auto26905"><g class="vf-notehead" id="vf-auto26908" pointer-events="bounding-box"><path stroke="none" d="M628.891 81.688C629.003 81.66,629.087 81.66,629.199 81.66C629.789 81.66,630.491 81.913,630.968 82.278C631.699 82.84,632.064 83.682,632.064 84.524C632.064 85.198,631.839 85.872,631.362 86.378L631.249 86.518L631.39 86.462C632.934 86.041,634.282 84.777,634.928 83.148C634.956 83.036,635.04 82.896,635.04 82.868C635.18 82.727,635.349 82.643,635.517 82.643C635.826 82.643,636.107 82.868,636.107 83.205C636.107 83.345,632.007 97.048,631.923 97.188C631.839 97.385,631.642 97.469,631.418 97.469C631.193 97.469,630.968 97.357,630.884 97.132C630.856 97.076,630.828 97.048,630.828 96.992C630.828 96.767,631.081 96.037,632.401 91.629C633.243 88.793,633.945 86.462,633.945 86.462C633.945 86.462,633.945 86.462,633.945 86.462C633.917 86.462,633.833 86.518,633.692 86.63C632.681 87.389,631.418 87.782,630.238 87.782C629.171 87.782,628.132 87.473,627.318 86.799C626.644 86.265,626.307 85.451,626.307 84.609C626.307 83.879,626.56 83.148,627.122 82.559C627.571 82.081,628.132 81.801,628.891 81.688"/></g></g><g class="vf-stavenote" id="vf-auto26909"><g class="vf-notehead" id="vf-auto26912" pointer-events="bounding-box"><path stroke="none" d="M656.699 81.688C656.811 81.66,656.895 81.66,657.007 81.66C657.597 81.66,658.299 81.913,658.776 82.278C659.507 82.84,659.872 83.682,659.872 84.524C659.872 85.198,659.647 85.872,659.17 86.378L659.057 86.518L659.198 86.462C660.742 86.041,662.09 84.777,662.736 83.148C662.764 83.036,662.848 82.896,662.848 82.868C662.988 82.727,663.157 82.643,663.325 82.643C663.634 82.643,663.915 82.868,663.915 83.205C663.915 83.345,657.007 106.399,656.923 106.567C656.839 106.764,656.642 106.848,656.418 106.848C656.193 106.848,655.968 106.736,655.884 106.483C655.856 106.455,655.828 106.427,655.828 106.371C655.828 106.146,656.081 105.388,657.401 101.007C658.243 98.143,658.945 95.841,658.945 95.813C658.945 95.813,658.945 95.813,658.945 95.813C658.917 95.813,658.833 95.897,658.692 95.981C657.681 96.767,656.418 97.16,655.238 97.16C654.171 97.16,653.132 96.823,652.318 96.178C651.644 95.616,651.307 94.802,651.307 93.959C651.307 93.229,651.56 92.499,652.122 91.938C652.683 91.32,653.441 91.039,654.199 91.039C655.238 91.039,656.277 91.601,656.783 92.64C656.979 93.033,657.064 93.454,657.064 93.875C657.064 94.577,656.811 95.251,656.362 95.756L656.249 95.869L656.39 95.841C657.934 95.419,659.282 94.128,659.9 92.555C659.956 92.387,661.753 86.49,661.753 86.462C661.753 86.462,661.753 86.462,661.753 86.462C661.725 86.462,661.641 86.518,661.5 86.63C660.489 87.389,659.254 87.782,658.046 87.782C656.979 87.782,655.94 87.473,655.126 86.799C654.452 86.265,654.115 85.451,654.115 84.609C654.115 83.879,654.368 83.148,654.93 82.559C655.379 82.081,655.94 81.801,656.699 81.688"/></g></g><g class="vf-stavenote" id="vf-auto26913"><g class="vf-notehead" id="vf-auto26916" pointer-events="bounding-box"><path stroke="none" d="M684.507 72.338C684.619 72.31,684.703 72.31,684.815 72.31C685.405 72.31,686.107 72.534,686.584 72.927C687.315 73.489,687.68 74.331,687.68 75.174C687.68 75.848,687.455 76.494,686.978 77.027L686.865 77.167L687.034 77.111C688.55 76.69,689.898 75.426,690.544 73.798C690.572 73.657,690.656 73.545,690.656 73.517C690.796 73.349,690.965 73.292,691.133 73.292C691.442 73.292,691.723 73.489,691.723 73.854C691.723 73.966,682.007 106.399,681.923 106.567C681.839 106.764,681.642 106.848,681.418 106.848C681.193 106.848,680.968 106.736,680.884 106.483C680.856 106.455,680.828 106.427,680.828 106.371C680.828 106.146,681.081 105.388,682.401 101.007C683.243 98.143,683.945 95.841,683.945 95.813C683.945 95.813,683.945 95.813,683.945 95.813C683.917 95.813,683.833 95.897,683.692 95.981C682.681 96.767,681.418 97.16,680.238 97.16C679.171 97.16,678.132 96.823,677.318 96.178C676.644 95.616,676.307 94.802,676.307 93.959C676.307 93.229,676.56 92.499,677.122 91.938C677.683 91.32,678.441 91.039,679.199 91.039C680.238 91.039,681.277 91.601,681.783 92.64C681.979 93.033,682.064 93.454,682.064 93.875C682.064 94.577,681.811 95.251,681.362 95.756L681.249 95.869L681.39 95.841C682.934 95.419,684.282 94.128,684.9 92.555C684.956 92.387,686.753 86.49,686.753 86.462C686.753 86.462,686.753 86.462,686.753 86.462C686.725 86.462,686.641 86.518,686.5 86.63C685.489 87.389,684.254 87.782,683.046 87.782C681.979 87.782,680.94 87.473,680.126 86.799C679.452 86.265,679.115 85.451,679.115 84.609C679.115 83.879,679.368 83.148,679.93 82.559C680.491 81.969,681.249 81.688,682.007 81.688C683.046 81.688,684.085 82.222,684.591 83.261C684.787 83.654,684.872 84.075,684.872 84.524C684.872 85.198,684.619 85.872,684.17 86.378L684.057 86.518L684.198 86.462C685.742 86.069,687.09 84.777,687.708 83.177C687.764 83.036,689.561 77.139,689.561 77.111C689.561 77.111,689.561 77.111,689.561 77.111C689.533 77.111,689.449 77.167,689.308 77.252C688.297 78.038,687.062 78.431,685.854 78.431C684.787 78.431,683.748 78.094,682.934 77.448C682.26 76.887,681.923 76.072,681.923 75.258C681.923 74.528,682.204 73.77,682.738 73.208C683.215 72.703,683.748 72.45,684.507 72.338"/></g></g><g class="vf-stavenote" id="vf-auto26917"><g class="vf-notehead" id="vf-auto26920" pointer-events="bounding-box"><path stroke="none" d="M712.315 72.338C712.427 72.31,712.511 72.31,712.623 72.31C713.213 72.31,713.915 72.534,714.392 72.927C715.123 73.489,715.488 74.331,715.488 75.174C715.488 75.848,715.263 76.494,714.786 77.027L714.673 77.167L714.842 77.111C716.358 76.69,717.706 75.426,718.352 73.798C718.38 73.657,718.464 73.545,718.492 73.517C718.604 73.349,718.773 73.292,718.941 73.292C719.25 73.292,719.531 73.489,719.531 73.854C719.531 73.966,707.007 115.749,706.923 115.918C706.839 116.114,706.642 116.199,706.418 116.199C706.193 116.199,705.968 116.086,705.884 115.862C705.856 115.806,705.828 115.777,705.828 115.721C705.828 115.497,706.081 114.738,707.401 110.358C708.243 107.522,708.945 105.191,708.945 105.191C708.945 105.191,708.945 105.191,708.945 105.191C708.917 105.191,708.833 105.247,708.692 105.36C707.681 106.118,706.418 106.511,705.238 106.511C704.171 106.511,703.132 106.202,702.318 105.528C701.644 104.995,701.307 104.152,701.307 103.338C701.307 102.608,701.56 101.85,702.122 101.288C702.683 100.698,703.441 100.39,704.199 100.39C705.238 100.39,706.277 100.951,706.783 101.99C706.979 102.383,707.064 102.804,707.064 103.226C707.064 103.928,706.811 104.602,706.362 105.107L706.249 105.247L706.39 105.191C707.934 104.77,709.282 103.506,709.9 101.906C709.956 101.766,711.753 95.869,711.753 95.813C711.753 95.813,711.753 95.813,711.753 95.813C711.725 95.813,711.641 95.897,711.5 95.981C710.489 96.767,709.254 97.16,708.046 97.16C706.979 97.16,705.94 96.823,705.126 96.178C704.452 95.616,704.115 94.802,704.115 93.959C704.115 93.229,704.368 92.499,704.93 91.938C705.491 91.32,706.249 91.039,707.007 91.039C708.046 91.039,709.085 91.601,709.591 92.64C709.787 93.033,709.872 93.454,709.872 93.875C709.872 94.577,709.619 95.251,709.17 95.756L709.057 95.869L709.198 95.841C710.742 95.419,712.09 94.128,712.708 92.555C712.764 92.387,714.561 86.49,714.561 86.462C714.561 86.462,714.561 86.462,714.561 86.462C714.533 86.462,714.449 86.518,714.308 86.63C713.297 87.389,712.062 87.782,710.854 87.782C709.787 87.782,708.748 87.473,707.934 86.799C707.26 86.265,706.923 85.451,706.923 84.609C706.923 83.879,707.204 83.148,707.738 82.559C708.299 81.969,709.057 81.688,709.815 81.688C710.854 81.688,711.893 82.222,712.399 83.261C712.595 83.654,712.68 84.075,712.68 84.524C712.68 85.198,712.427 85.872,711.978 86.378L711.865 86.518L712.034 86.462C713.55 86.069,714.898 84.777,715.516 83.177C715.572 83.036,717.369 77.139,717.369 77.111C717.369 77.111,717.369 77.111,717.369 77.111C717.341 77.111,717.257 77.167,717.116 77.252C716.105 78.038,714.87 78.431,713.662 78.431C712.595 78.431,711.556 78.094,710.742 77.448C710.068 76.887,709.731 76.072,709.731 75.258C709.731 74.528,710.012 73.77,710.546 73.208C711.023 72.703,711.556 72.45,712.315 72.338"/></g></g><g class="vf-stavenote" id="vf-auto26921"><g class="vf-notehead" id="vf-auto26924" pointer-events="bounding-box"><path stroke="none" d="M740.123 62.959C740.235 62.959,740.319 62.931,740.431 62.931C741.021 62.931,741.723 63.184,742.2 63.549C742.931 64.11,743.296 64.953,743.296 65.823C743.296 66.469,743.071 67.143,742.594 67.648L742.481 67.789L742.65 67.733C744.166 67.339,745.514 66.048,746.16 64.419C746.188 64.307,746.272 64.194,746.3 64.138C746.412 63.998,746.581 63.914,746.749 63.914C747.058 63.914,747.339 64.138,747.339 64.503C747.339 64.616,732.007 115.749,731.923 115.918C731.839 116.114,731.642 116.199,731.418 116.199C731.193 116.199,730.968 116.086,730.884 115.862C730.856 115.806,730.828 115.777,730.828 115.721C730.828 115.497,731.081 114.738,732.401 110.358C733.243 107.522,733.945 105.191,733.945 105.191C733.945 105.191,733.945 105.191,733.945 105.191C733.917 105.191,733.833 105.247,733.692 105.36C732.681 106.118,731.418 106.511,730.238 106.511C729.171 106.511,728.132 106.202,727.318 105.528C726.644 104.995,726.307 104.152,726.307 103.338C726.307 102.608,726.56 101.85,727.122 101.288C727.683 100.698,728.441 100.39,729.199 100.39C730.238 100.39,731.277 100.951,731.783 101.99C731.979 102.383,732.064 102.804,732.064 103.226C732.064 103.928,731.811 104.602,731.362 105.107L731.249 105.247L731.39 105.191C732.934 104.77,734.282 103.506,734.9 101.906C734.956 101.766,736.753 95.869,736.753 95.813C736.753 95.813,736.753 95.813,736.753 95.813C736.725 95.813,736.641 95.897,736.5 95.981C735.489 96.767,734.254 97.16,733.046 97.16C731.979 97.16,730.94 96.823,730.126 96.178C729.452 95.616,729.115 94.802,729.115 93.959C729.115 93.229,729.368 92.499,729.93 91.938C730.491 91.32,731.249 91.039,732.007 91.039C733.046 91.039,734.085 91.601,734.591 92.64C734.787 93.033,734.872 93.454,734.872 93.875C734.872 94.577,734.619 95.251,734.17 95.756L734.057 95.869L734.198 95.841C735.742 95.419,737.09 94.128,737.708 92.555C737.764 92.387,739.561 86.49,739.561 86.462C739.561 86.462,739.561 86.462,739.561 86.462C739.533 86.462,739.449 86.518,739.308 86.63C738.297 87.389,737.062 87.782,735.854 87.782C734.787 87.782,733.748 87.473,732.934 86.799C732.26 86.265,731.923 85.451,731.923 84.609C731.923 83.879,732.204 83.148,732.738 82.559C733.299 81.969,734.057 81.688,734.815 81.688C735.854 81.688,736.893 82.222,737.399 83.261C737.595 83.654,737.68 84.075,737.68 84.524C737.68 85.198,737.427 85.872,736.978 86.378L736.865 86.518L737.034 86.462C738.55 86.069,739.898 84.777,740.516 83.177C740.572 83.036,742.369 77.139,742.369 77.111C742.369 77.111,742.369 77.111,742.369 77.111C742.341 77.111,742.257 77.167,742.116 77.252C741.105 78.038,739.87 78.431,738.662 78.431C737.595 78.431,736.556 78.094,735.742 77.448C735.068 76.887,734.731 76.072,734.731 75.258C734.731 74.528,735.012 73.77,735.546 73.208C736.107 72.59,736.865 72.31,737.623 72.31C738.662 72.31,739.701 72.871,740.207 73.91C740.403 74.303,740.488 74.724,740.488 75.146C740.488 75.848,740.235 76.522,739.786 77.027L739.673 77.167L739.842 77.111C741.358 76.69,742.706 75.426,743.324 73.826C743.38 73.686,745.177 67.789,745.177 67.733C745.177 67.733,745.177 67.733,745.177 67.733C745.177 67.733,745.065 67.817,744.952 67.901C743.913 68.687,742.678 69.08,741.47 69.08C740.403 69.08,739.364 68.743,738.55 68.098C737.876 67.536,737.539 66.722,737.539 65.879C737.539 65.149,737.82 64.419,738.354 63.858C738.831 63.352,739.364 63.071,740.123 62.959"/></g></g><g class="vf-stavenote" id="vf-auto26925"><g class="vf-stem" id="vf-auto26926" pointer-events="bounding-box"><path stroke-width="1.5" fill="none" d="M762.547 88.5L762.547 55"/></g><g class="vf-notehead" id="vf-auto26928" pointer-events="bounding-box"><path stroke="none" d="M752.543 84.974C752.599 84.974,752.655 84.974,752.739 84.974C752.88 84.974,753.02 84.974,753.104 85.002C753.245 85.086,753.217 85.058,755.463 86.995C756.642 88.006,757.597 88.821,757.597 88.821C757.597 88.821,758.552 88.006,759.731 86.995C762.258 84.805,762.034 84.974,762.371 84.974C762.371 84.974,762.399 84.974,762.399 84.974C762.932 84.974,763.297 85.367,763.297 85.816C763.297 86.041,763.213 86.237,763.045 86.434C762.988 86.49,762.034 87.304,760.939 88.259C759.844 89.214,758.945 90,758.945 90C758.945 90,759.844 90.786,760.939 91.741C762.034 92.696,762.988 93.51,763.045 93.566C763.213 93.763,763.297 93.959,763.297 94.184C763.297 94.633,762.932 95.026,762.399 95.026C762.399 95.026,762.371 95.026,762.371 95.026C762.034 95.026,762.258 95.195,759.731 93.005C758.552 91.994,757.597 91.179,757.597 91.179C757.597 91.179,756.642 91.994,755.463 93.005C752.936 95.195,753.16 95.026,752.824 95.026C752.824 95.026,752.795 95.026,752.767 95.026C752.262 95.026,751.897 94.633,751.897 94.184C751.897 93.959,751.981 93.763,752.15 93.566C752.206 93.51,753.16 92.696,754.256 91.741C755.351 90.786,756.249 90,756.249 90C756.249 90,755.351 89.214,754.256 88.259C753.16 87.304,752.206 86.49,752.15 86.434C751.981 86.265,751.897 86.041,751.897 85.816C751.897 85.451,752.122 85.086,752.543 84.974"/></g></g></svg>