<svg xmlns="http://www.w3.org/2000/svg" stroke-width="0.3" stroke-dasharray="none" fill="black" stroke="black" font-family="Arial, sans-serif" font-size="10pt" font-weight="normal" font-style="normal" width="770" height="140" viewBox="0 0 770 140" style="width: 770px; height: 140px; border: none;"><g class="vf-stave" id="vf-auto14582" stroke-width="1" fill="#999999" stroke="#999999"><path fill="none" d="M0 40L760 40"/><path fill="none" d="M0 50L760 50"/><path fill="none" d="M0 60L760 60"/><path fill="none" d="M0 70L760 70"/><path fill="none" d="M0 80L760 80"/></g><g class="vf-stavebarline" id="vf-auto14583"><rect y="39.5" width="1" height="41" stroke="none"/></g><g class="vf-stavebarline" id="vf-auto14584"><rect x="760" y="39.5" width="1" height="41" stroke="none"/></g><g class="vf-clef" id="vf-auto14585"><path stroke="none" d="M13.693 91.402C13.87 91.402,14.048 91.377,14.276 91.301C14.707 91.148,15.062 90.92,15.366 90.591C18.382 87.423,19.623 83.596,19.75 79.313C19.75 78.983,19.776 78.451,19.776 78.451C19.776 78.451,20.282 78.147,20.511 78.071C21.727 77.488,22.893 76.829,23.932 75.993C26.72 73.762,28.316 70.747,29.051 67.376C29.204 66.844,29.229 66.286,29.229 65.779C29.229 63.473,27.962 61.8,25.047 61.268C24.312 61.116,23.577 61.04,22.842 61.04C21.017 61.04,19.269 61.521,17.621 62.484C17.419 62.611,17.19 62.763,17.19 62.763L16.253 59.215C16.202 59.038,16.202 58.708,16.202 58.708C16.202 58.708,19.928 52.093,20.434 48.697C20.612 47.709,20.688 46.72,20.688 45.757C20.688 44.972,20.663 44.237,20.536 43.527C20.181 40.891,19.193 38.408,18.534 35.848C18.356 35.088,18.103 34.175,17.216 34.175C16.557 34.175,16.101 34.809,15.695 35.341C13.82 37.926,12.907 40.891,12.73 44.059C12.705 44.566,12.705 45.098,12.705 45.605C12.705 48.545,13.186 51.51,13.566 54.425C13.566 54.653,13.642 54.881,13.693 55.059C12.046 57.39,10.221 59.57,8.65 61.978C7.56 63.701,6.343 65.424,5.583 67.35C5.177 68.288,5 69.403,5 70.493C5 72.749,5.76 75.055,7.078 76.322C7.839 77.057,9.055 77.868,10.246 78.299C11.944 78.907,13.617 79.313,15.391 79.313C15.923 79.313,16.455 79.287,17.013 79.211L17.444 79.135C17.444 79.135,17.469 79.465,17.444 79.642C17.038 81.847,16.506 84.001,15.188 85.826C14.479 86.764,13.82 87.828,12.451 87.93C12.046 87.98,11.868 88.234,11.868 88.563C11.868 88.69,11.894 88.817,11.944 88.944C12.147 89.501,12.4 90.084,12.654 90.642C12.882 91.148,13.237 91.402,13.693 91.402M15.138 52.828C14.859 51.08,14.681 49.356,14.681 47.633C14.681 44.465,15.34 41.373,17.19 38.408C17.621 39.751,17.849 41.119,17.849 42.488C17.849 43.198,17.773 43.933,17.672 44.642C17.19 47.506,16.532 50.269,15.138 52.828M11.387 74.421C10.88 74.396,10.449 74.219,9.967 74.067C9.004 73.737,8.219 73.382,7.965 72.749C7.839 72.47,7.813 72.14,7.813 71.811C7.813 71.406,7.889 70.975,7.965 70.518C7.991 70.316,8.219 69.682,8.295 69.581C9.714 67.046,11.412 64.765,13.211 62.459L14.732 60.457L15.011 61.268C15.29 62.18,15.543 63.625,15.543 63.625C15.543 63.625,14.529 64.943,13.87 65.602C12.046 67.376,11.159 69.606,11.159 72.064C11.159 72.673,11.235 73.306,11.361 73.965C11.387 74.092,11.387 74.219,11.387 74.421M19.269 73.306C18.99 70.924,18.432 69.023,17.925 66.742C17.875 66.463,17.875 66.286,18.001 66.134C18.939 65.957,19.852 65.881,20.815 65.881C21.727 65.881,22.589 65.957,23.501 66.134C24.591 66.362,25.681 66.539,26.542 67.426C26.593 67.503,26.669 67.579,26.745 67.604C25.301 70.518,23.146 72.723,20.08 74.067L19.421 74.32M15.391 75.055C14.124 75.055,12.882 74.726,12.882 74.726C12.882 74.726,12.781 74.219,12.781 73.484C12.781 73.002,12.806 72.419,12.958 71.836C13.313 70.088,14.555 68.846,15.873 67.68C15.974 67.579,16.101 67.503,16.177 67.503C16.303 67.503,16.354 67.655,16.379 67.908C16.709 70.062,17.266 72.166,17.419 74.32C17.444 74.548,17.419 74.878,17.419 74.878C17.419 74.878,16.455 75.131,15.391 75.055"/></g><g class="vf-stavenote" id="vf-auto14586"><g class="vf-stem" id="vf-auto14587" pointer-events="bounding-box"><path stroke-width="1.5" fill="none" d="M55.487 52L55.487 90"/></g><g class="vf-notehead" id="vf-auto14591" pointer-events="bounding-box"><path stroke="none" d="M45.124 61.543C45.405 61.599,45.657 61.627,45.938 61.627C49.813 61.627,55.598 56.348,55.485 52.08C55.373 51.041,55.401 49.609,53.295 48.766C52.705 48.485,52.06 48.373,51.358 48.373C47.033 48.373,42.344 53.343,42.007 56.657C42.007 56.909,41.979 57.134,41.979 57.387C41.979 59.409,42.877 61.037,45.124 61.543"/><path stroke="none" d="M75.245 55 A2 2 0 0 0 71.245 55 A2 2 0 0 0 75.245 55"/></g><g class="vf-notehead" id="vf-auto14590" pointer-events="bounding-box"><path stroke="none" d="M57.882 56.543C58.163 56.599,58.415 56.627,58.696 56.627C62.571 56.627,68.356 51.348,68.243 47.08C68.131 46.041,68.159 44.609,66.053 43.766C65.464 43.485,64.818 43.373,64.116 43.373C59.791 43.373,55.102 48.343,54.765 51.657C54.765 51.909,54.737 52.134,54.737 52.387C54.737 54.409,55.636 56.037,57.882 56.543"/><path stroke="none" d="M75.245 45 A2 2 0 0 0 71.245 45 A2 2 0 0 0 75.245 45"/></g></g><g class="vf-stavenote" id="vf-auto14592"><path stroke-width="1.4" fill="none" stroke="#444" d="M142.908 90L162.416 90"/><g class="vf-stem" id="vf-auto14593" pointer-events="bounding-box"><path stroke-width="1.5" fill="none" d="M158.666 88L158.666 55"/></g><g class="vf-notehead" id="vf-auto14595" pointer-events="bounding-box"><path stroke="none" d="M149.052 96.543C149.333 96.599,149.586 96.627,149.867 96.627C153.742 96.627,159.526 91.348,159.414 87.08C159.302 86.041,159.33 84.609,157.224 83.766C156.634 83.485,155.988 83.373,155.286 83.373C150.962 83.373,146.273 88.343,145.936 91.657C145.936 91.909,145.908 92.134,145.908 92.387C145.908 94.409,146.806 96.037,149.052 96.543"/><path stroke="none" d="M133.058 105.13C133.359 105.103,133.441 104.665,133.523 104.391C133.687 103.872,133.715 103.352,133.715 102.887C133.715 102.449,133.687 102.066,133.687 101.628C133.687 101.354,133.687 100.999,133.715 100.725C133.797 99.932,133.879 99.138,133.906 98.345L135.657 97.989C135.739 99.658,136.04 101.272,136.587 102.832C136.642 103.051,136.779 103.27,137.025 103.27C137.271 103.324,137.353 103.051,137.463 102.832C137.736 102.421,137.764 101.902,137.764 101.436C137.819 101.081,137.819 100.752,137.819 100.452C137.819 99.494,137.736 98.509,137.709 97.551L139.98 97.086C142.141 96.648,142.415 96.348,142.579 94.268C142.579 93.748,142.634 93.393,142.579 92.982C142.552 92.49,142.333 92.134,141.923 92.134L141.84 92.134C141.676 92.134,141.567 92.134,141.403 92.161C140.5 92.408,139.515 92.599,138.557 92.763L137.901 92.873C137.928 92.326,137.928 91.724,137.983 91.149C138.01 89.891,138.037 88.632,138.037 87.373C139.159 87.072,140.226 86.772,141.293 86.416C141.868 86.224,142.388 85.896,142.552 85.267C142.689 84.555,142.908 83.899,142.908 83.187C142.908 82.777,142.853 82.367,142.689 81.956C142.552 81.573,142.415 81.382,142.196 81.382L142.114 81.382C141.977 81.382,141.84 81.382,141.676 81.464C140.445 81.956,139.241 82.367,137.983 82.722L137.846 80.588C137.764 78.892,137.709 77.168,137.353 75.472C137.271 75.253,137.299 74.897,137.052 74.897L137.025 74.897L136.916 74.897C136.587 74.979,136.204 75.116,136.15 75.554L136.15 76.293C136.15 78.618,136.232 80.889,136.286 83.187L134.18 83.652C134.18 82.476,134.152 81.3,134.07 80.123C134.043 79.521,134.043 78.974,133.715 78.372C132.839 78.81,132.976 79.548,132.976 80.178C132.894 81.464,132.839 82.668,132.812 83.899C131.717 84.118,130.596 84.282,129.501 84.473C127.887 84.747,127.641 84.993,127.641 86.772C127.531 87.209,127.86 87.702,127.805 88.194C127.723 88.933,127.914 89.179,128.434 89.207C128.544 89.207,128.68 89.179,128.844 89.124C130.13 88.933,131.389 88.741,132.648 88.495L132.538 92.052C132.483 92.709,132.429 93.338,132.347 93.967C130.869 94.268,129.419 94.542,127.969 94.897C127.148 95.089,126.656 95.39,126.656 96.348C126.656 97.278,127.011 98.153,127.066 99.056C127.066 99.494,127.176 99.685,127.504 99.74C127.559 99.74,127.695 99.685,127.86 99.658C129.255 99.33,130.678 99.056,132.1 98.755C132.073 99.248,132.073 99.768,132.073 100.315C132.073 101.71,132.21 103.051,132.702 104.391C132.784 104.665,132.702 105.13,133.058 105.13M134.098 93.612C134.152 92.763,134.152 91.888,134.18 91.012C134.234 90.082,134.234 89.179,134.234 88.222C134.891 88.112,135.52 88.003,136.15 87.839C135.958 89.644,135.876 91.45,135.767 93.283"/></g></g><g class="vf-stavenote" id="vf-auto14598"><path stroke-width="1.4" fill="none" stroke="#444" d="M234.078 90L253.586 90"/><g class="vf-stem" id="vf-auto14599" pointer-events="bounding-box"><path stroke-width="1.5" fill="none" d="M249.836 88L249.836 35"/></g><g class="vf-notehead" id="vf-auto14603" pointer-events="bounding-box"><path stroke="none" d="M240.223 96.543C240.504 96.599,240.757 96.627,241.037 96.627C244.912 96.627,250.697 91.348,250.585 87.08C250.472 86.041,250.5 84.609,248.394 83.766C247.805 83.485,247.159 83.373,246.457 83.373C242.133 83.373,237.443 88.343,237.106 91.657C237.106 91.909,237.078 92.134,237.078 92.387C237.078 94.409,237.977 96.037,240.223 96.543"/></g><g class="vf-notehead" id="vf-auto14604" pointer-events="bounding-box"><path stroke="none" d="M240.223 86.543C240.504 86.599,240.757 86.627,241.037 86.627C244.912 86.627,250.697 81.348,250.585 77.08C250.472 76.041,250.5 74.609,248.394 73.766C247.805 73.485,247.159 73.373,246.457 73.373C242.133 73.373,237.443 78.343,237.106 81.657C237.106 81.909,237.078 82.134,237.078 82.387C237.078 84.409,237.977 86.037,240.223 86.543"/></g><g class="vf-notehead" id="vf-auto14605" pointer-events="bounding-box"><path stroke="none" d="M240.223 76.543C240.504 76.599,240.757 76.627,241.037 76.627C244.912 76.627,250.697 71.348,250.585 67.08C250.472 66.041,250.5 64.609,248.394 63.766C247.805 63.485,247.159 63.373,246.457 63.373C242.133 63.373,237.443 68.343,237.106 71.657C237.106 71.909,237.078 72.134,237.078 72.387C237.078 74.409,237.977 76.037,240.223 76.543"/></g></g><g class="vf-stavenote" id="vf-auto14606"><g class="vf-stem" id="vf-auto14607" pointer-events="bounding-box"><path stroke-width="1.5" fill="none" d="M341.007 73L341.007 20"/></g><g class="vf-notehead" id="vf-auto14611" pointer-events="bounding-box"><path stroke="none" d="M331.394 81.543C331.674 81.599,331.927 81.627,332.208 81.627C336.083 81.627,341.867 76.348,341.755 72.08C341.643 71.041,341.671 69.609,339.565 68.766C338.975 68.485,338.329 68.373,337.627 68.373C333.303 68.373,328.614 73.343,328.277 76.657C328.277 76.909,328.249 77.134,328.249 77.387C328.249 79.409,329.147 81.037,331.394 81.543"/></g><g class="vf-notehead" id="vf-auto14612" pointer-events="bounding-box"><path stroke="none" d="M331.394 71.543C331.674 71.599,331.927 71.627,332.208 71.627C336.083 71.627,341.867 66.348,341.755 62.08C341.643 61.041,341.671 59.609,339.565 58.766C338.975 58.485,338.329 58.373,337.627 58.373C333.303 58.373,328.614 63.343,328.277 66.657C328.277 66.909,328.249 67.134,328.249 67.387C328.249 69.409,329.147 71.037,331.394 71.543"/></g><g class="vf-notehead" id="vf-auto14613" pointer-events="bounding-box"><path stroke="none" d="M331.394 61.543C331.674 61.599,331.927 61.627,332.208 61.627C336.083 61.627,341.867 56.348,341.755 52.08C341.643 51.041,341.671 49.609,339.565 48.766C338.975 48.485,338.329 48.373,337.627 48.373C333.303 48.373,328.614 53.343,328.277 56.657C328.277 56.909,328.249 57.134,328.249 57.387C328.249 59.409,329.147 61.037,331.394 61.543"/><path stroke="none" d="M315.399 70.13C315.7 70.103,315.782 69.665,315.864 69.391C316.028 68.872,316.056 68.352,316.056 67.887C316.056 67.449,316.028 67.066,316.028 66.628C316.028 66.354,316.028 65.999,316.056 65.725C316.138 64.932,316.22 64.138,316.247 63.345L317.998 62.989C318.08 64.658,318.381 66.272,318.929 67.832C318.983 68.051,319.12 68.27,319.366 68.27C319.613 68.324,319.695 68.051,319.804 67.832C320.078 67.421,320.105 66.902,320.105 66.436C320.16 66.081,320.16 65.752,320.16 65.452C320.16 64.494,320.078 63.509,320.05 62.551L322.321 62.086C324.483 61.648,324.756 61.348,324.92 59.268C324.92 58.748,324.975 58.393,324.92 57.982C324.893 57.49,324.674 57.134,324.264 57.134L324.182 57.134C324.017 57.134,323.908 57.134,323.744 57.161C322.841 57.408,321.856 57.599,320.898 57.763L320.242 57.873C320.269 57.326,320.269 56.724,320.324 56.149C320.351 54.891,320.379 53.632,320.379 52.373C321.5 52.072,322.567 51.772,323.634 51.416C324.209 51.224,324.729 50.896,324.893 50.267C325.03 49.555,325.249 48.899,325.249 48.187C325.249 47.777,325.194 47.367,325.03 46.956C324.893 46.573,324.756 46.382,324.537 46.382L324.455 46.382C324.318 46.382,324.182 46.382,324.017 46.464C322.786 46.956,321.582 47.367,320.324 47.722L320.187 45.588C320.105 43.892,320.05 42.168,319.695 40.472C319.613 40.253,319.64 39.897,319.394 39.897L319.366 39.897L319.257 39.897C318.929 39.979,318.545 40.116,318.491 40.554L318.491 41.293C318.491 43.618,318.573 45.889,318.628 48.187L316.521 48.652C316.521 47.476,316.493 46.3,316.411 45.123C316.384 44.521,316.384 43.974,316.056 43.372C315.18 43.81,315.317 44.548,315.317 45.178C315.235 46.464,315.18 47.668,315.153 48.899C314.058 49.118,312.937 49.282,311.842 49.473C310.228 49.747,309.982 49.993,309.982 51.772C309.872 52.209,310.201 52.702,310.146 53.194C310.064 53.933,310.255 54.179,310.775 54.207C310.885 54.207,311.021 54.179,311.186 54.124C312.472 53.933,313.73 53.741,314.989 53.495L314.879 57.052C314.825 57.709,314.77 58.338,314.688 58.967C313.21 59.268,311.76 59.542,310.31 59.897C309.489 60.089,308.997 60.39,308.997 61.348C308.997 62.278,309.353 63.153,309.407 64.056C309.407 64.494,309.517 64.685,309.845 64.74C309.9 64.74,310.037 64.685,310.201 64.658C311.596 64.33,313.019 64.056,314.441 63.755C314.414 64.248,314.414 64.768,314.414 65.315C314.414 66.71,314.551 68.051,315.043 69.391C315.125 69.665,315.043 70.13,315.399 70.13M316.439 58.612C316.493 57.763,316.493 56.888,316.521 56.012C316.576 55.082,316.576 54.179,316.576 53.222C317.232 53.112,317.861 53.003,318.491 52.839C318.299 54.644,318.217 56.45,318.108 58.283"/></g></g><g class="vf-stavenote" id="vf-auto14616"><path stroke-width="1.4" fill="none" stroke="#444" d="M416.419 90L435.927 90"/><g class="vf-stem" id="vf-auto14617" pointer-events="bounding-box"><path stroke-width="1.5" fill="none" d="M432.177 88L432.177 55"/></g><g class="vf-notehead" id="vf-auto14619" pointer-events="bounding-box"><path stroke="none" d="M422.564 96.543C422.845 96.599,423.098 96.627,423.379 96.627C427.254 96.627,433.038 91.348,432.926 87.08C432.813 86.041,432.842 84.609,430.736 83.766C430.146 83.485,429.5 83.373,428.798 83.373C424.474 83.373,419.784 88.343,419.447 91.657C419.447 91.909,419.419 92.134,419.419 92.387C419.419 94.409,420.318 96.037,422.564 96.543"/><path stroke="none" d="M406.57 105.13C406.871 105.103,406.953 104.665,407.035 104.391C407.199 103.872,407.226 103.352,407.226 102.887C407.226 102.449,407.199 102.066,407.199 101.628C407.199 101.354,407.199 100.999,407.226 100.725C407.308 99.932,407.39 99.138,407.418 98.345L409.169 97.989C409.251 99.658,409.552 101.272,410.099 102.832C410.154 103.051,410.291 103.27,410.537 103.27C410.783 103.324,410.865 103.051,410.975 102.832C411.248 102.421,411.276 101.902,411.276 101.436C411.33 101.081,411.33 100.752,411.33 100.452C411.33 99.494,411.248 98.509,411.221 97.551L413.492 97.086C415.653 96.648,415.927 96.348,416.091 94.268C416.091 93.748,416.146 93.393,416.091 92.982C416.064 92.49,415.845 92.134,415.434 92.134L415.352 92.134C415.188 92.134,415.079 92.134,414.914 92.161C414.012 92.408,413.027 92.599,412.069 92.763L411.412 92.873C411.44 92.326,411.44 91.724,411.494 91.149C411.522 89.891,411.549 88.632,411.549 87.373C412.671 87.072,413.738 86.772,414.805 86.416C415.38 86.224,415.899 85.896,416.064 85.267C416.2 84.555,416.419 83.899,416.419 83.187C416.419 82.777,416.365 82.367,416.2 81.956C416.064 81.573,415.927 81.382,415.708 81.382L415.626 81.382C415.489 81.382,415.352 81.382,415.188 81.464C413.957 81.956,412.753 82.367,411.494 82.722L411.358 80.588C411.276 78.892,411.221 77.168,410.865 75.472C410.783 75.253,410.81 74.897,410.564 74.897L410.537 74.897L410.427 74.897C410.099 74.979,409.716 75.116,409.661 75.554L409.661 76.293C409.661 78.618,409.743 80.889,409.798 83.187L407.691 83.652C407.691 82.476,407.664 81.3,407.582 80.123C407.555 79.521,407.555 78.974,407.226 78.372C406.351 78.81,406.488 79.548,406.488 80.178C406.406 81.464,406.351 82.668,406.323 83.899C405.229 84.118,404.107 84.282,403.013 84.473C401.399 84.747,401.152 84.993,401.152 86.772C401.043 87.209,401.371 87.702,401.317 88.194C401.234 88.933,401.426 89.179,401.946 89.207C402.055 89.207,402.192 89.179,402.356 89.124C403.642 88.933,404.901 88.741,406.159 88.495L406.05 92.052C405.995 92.709,405.94 93.338,405.858 93.967C404.381 94.268,402.931 94.542,401.481 94.897C400.66 95.089,400.167 95.39,400.167 96.348C400.167 97.278,400.523 98.153,400.578 99.056C400.578 99.494,400.687 99.685,401.016 99.74C401.07 99.74,401.207 99.685,401.371 99.658C402.767 99.33,404.189 99.056,405.612 98.755C405.585 99.248,405.585 99.768,405.585 100.315C405.585 101.71,405.722 103.051,406.214 104.391C406.296 104.665,406.214 105.13,406.57 105.13M407.609 93.612C407.664 92.763,407.664 91.888,407.691 91.012C407.746 90.082,407.746 89.179,407.746 88.222C408.403 88.112,409.032 88.003,409.661 87.839C409.47 89.644,409.388 91.45,409.278 93.283"/></g></g><g class="vf-stavenote" id="vf-auto14622"><g class="vf-stem" id="vf-auto14623" pointer-events="bounding-box"><path stroke-width="1.5" fill="none" d="M511.34 52L511.34 90"/></g><g class="vf-notehead" id="vf-auto14627" pointer-events="bounding-box"><path stroke="none" d="M500.977 61.543C501.258 61.599,501.51 61.627,501.791 61.627C505.666 61.627,511.451 56.348,511.338 52.08C511.226 51.041,511.254 49.609,509.148 48.766C508.558 48.485,507.912 48.373,507.21 48.373C502.886 48.373,498.197 53.343,497.86 56.657C497.86 56.909,497.832 57.134,497.832 57.387C497.832 59.409,498.73 61.037,500.977 61.543"/></g><g class="vf-notehead" id="vf-auto14626" pointer-events="bounding-box"><path stroke="none" d="M513.735 56.543C514.016 56.599,514.268 56.627,514.549 56.627C518.424 56.627,524.209 51.348,524.096 47.08C523.984 46.041,524.012 44.609,521.906 43.766C521.316 43.485,520.671 43.373,519.969 43.373C515.644 43.373,510.955 48.343,510.618 51.657C510.618 51.909,510.59 52.134,510.59 52.387C510.59 54.409,511.488 56.037,513.735 56.543"/></g></g><g class="vf-stavenote" id="vf-auto14628"><path stroke-width="1.4" fill="none" stroke="#444" d="M598.76 90L618.269 90"/><g class="vf-stem" id="vf-auto14629" pointer-events="bounding-box"><path stroke-width="1.5" fill="none" d="M614.519 88L614.519 35"/></g><g class="vf-notehead" id="vf-auto14633" pointer-events="bounding-box"><path stroke="none" d="M604.905 96.543C605.186 96.599,605.439 96.627,605.72 96.627C609.595 96.627,615.379 91.348,615.267 87.08C615.155 86.041,615.183 84.609,613.077 83.766C612.487 83.485,611.841 83.373,611.139 83.373C606.815 83.373,602.125 88.343,601.789 91.657C601.789 91.909,601.76 92.134,601.76 92.387C601.76 94.409,602.659 96.037,604.905 96.543"/></g><g class="vf-notehead" id="vf-auto14634" pointer-events="bounding-box"><path stroke="none" d="M617.663 91.543C617.944 91.599,618.197 91.627,618.478 91.627C622.353 91.627,628.137 86.348,628.025 82.08C627.913 81.041,627.941 79.609,625.835 78.766C625.245 78.485,624.599 78.373,623.897 78.373C619.573 78.373,614.884 83.343,614.547 86.657C614.547 86.909,614.519 87.134,614.519 87.387C614.519 89.409,615.417 91.037,617.663 91.543"/></g><g class="vf-notehead" id="vf-auto14635" pointer-events="bounding-box"><path stroke="none" d="M604.905 76.543C605.186 76.599,605.439 76.627,605.72 76.627C609.595 76.627,615.379 71.348,615.267 67.08C615.155 66.041,615.183 64.609,613.077 63.766C612.487 63.485,611.841 63.373,611.139 63.373C606.815 63.373,602.125 68.343,601.789 71.657C601.789 71.909,601.76 72.134,601.76 72.387C601.76 74.409,602.659 76.037,604.905 76.543"/></g></g><g class="vf-stavenote" id="vf-auto14636"><g class="vf-stem" id="vf-auto14637" pointer-events="bounding-box"><path stroke-width="1.5" fill="none" d="M705.689 73L705.689 20"/></g><g class="vf-notehead" id="vf-auto14641" pointer-events="bounding-box"><path stroke="none" d="M696.076 81.543C696.357 81.599,696.609 81.627,696.89 81.627C700.765 81.627,706.55 76.348,706.437 72.08C706.325 71.041,706.353 69.609,704.247 68.766C703.658 68.485,703.012 68.373,702.31 68.373C697.985 68.373,693.296 73.343,692.959 76.657C692.959 76.909,692.931 77.134,692.931 77.387C692.931 79.409,693.83 81.037,696.076 81.543"/></g><g class="vf-notehead" id="vf-auto14642" pointer-events="bounding-box"><path stroke="none" d="M696.076 71.543C696.357 71.599,696.609 71.627,696.89 71.627C700.765 71.627,706.55 66.348,706.437 62.08C706.325 61.041,706.353 59.609,704.247 58.766C703.658 58.485,703.012 58.373,702.31 58.373C697.985 58.373,693.296 63.343,692.959 66.657C692.959 66.909,692.931 67.134,692.931 67.387C692.931 69.409,693.83 71.037,696.076 71.543"/></g><g class="vf-notehead" id="vf-auto14643" pointer-events="bounding-box"><path stroke="none" d="M696.076 61.543C696.357 61.599,696.609 61.627,696.89 61.627C700.765 61.627,706.55 56.348,706.437 52.08C706.325 51.041,706.353 49.609,704.247 48.766C703.658 48.485,703.012 48.373,702.31 48.373C697.985 48.373,693.296 53.343,692.959 56.657C692.959 56.909,692.931 57.134,692.931 57.387C692.931 59.409,693.83 61.037,696.076 61.543"/><path stroke="none" d="M680.081 70.13C680.382 70.103,680.464 69.665,680.547 69.391C680.711 68.872,680.738 68.352,680.738 67.887C680.738 67.449,680.711 67.066,680.711 66.628C680.711 66.354,680.711 65.999,680.738 65.725C680.82 64.932,680.902 64.138,680.93 63.345L682.681 62.989C682.763 64.658,683.064 66.272,683.611 67.832C683.666 68.051,683.802 68.27,684.049 68.27C684.295 68.324,684.377 68.051,684.486 67.832C684.76 67.421,684.787 66.902,684.787 66.436C684.842 66.081,684.842 65.752,684.842 65.452C684.842 64.494,684.76 63.509,684.733 62.551L687.003 62.086C689.165 61.648,689.439 61.348,689.603 59.268C689.603 58.748,689.657 58.393,689.603 57.982C689.575 57.49,689.356 57.134,688.946 57.134L688.864 57.134C688.7 57.134,688.59 57.134,688.426 57.161C687.523 57.408,686.538 57.599,685.581 57.763L684.924 57.873C684.951 57.326,684.951 56.724,685.006 56.149C685.034 54.891,685.061 53.632,685.061 52.373C686.183 52.072,687.25 51.772,688.317 51.416C688.891 51.224,689.411 50.896,689.575 50.267C689.712 49.555,689.931 48.899,689.931 48.187C689.931 47.777,689.876 47.367,689.712 46.956C689.575 46.573,689.439 46.382,689.22 46.382L689.138 46.382C689.001 46.382,688.864 46.382,688.7 46.464C687.469 46.956,686.265 47.367,685.006 47.722L684.869 45.588C684.787 43.892,684.733 42.168,684.377 40.472C684.295 40.253,684.322 39.897,684.076 39.897L684.049 39.897L683.939 39.897C683.611 39.979,683.228 40.116,683.173 40.554L683.173 41.293C683.173 43.618,683.255 45.889,683.31 48.187L681.203 48.652C681.203 47.476,681.176 46.3,681.094 45.123C681.066 44.521,681.066 43.974,680.738 43.372C679.863 43.81,679.999 44.548,679.999 45.178C679.917 46.464,679.863 47.668,679.835 48.899C678.741 49.118,677.619 49.282,676.525 49.473C674.91 49.747,674.664 49.993,674.664 51.772C674.555 52.209,674.883 52.702,674.828 53.194C674.746 53.933,674.938 54.179,675.458 54.207C675.567 54.207,675.704 54.179,675.868 54.124C677.154 53.933,678.412 53.741,679.671 53.495L679.562 57.052C679.507 57.709,679.452 58.338,679.37 58.967C677.893 59.268,676.443 59.542,674.992 59.897C674.172 60.089,673.679 60.39,673.679 61.348C673.679 62.278,674.035 63.153,674.09 64.056C674.09 64.494,674.199 64.685,674.527 64.74C674.582 64.74,674.719 64.685,674.883 64.658C676.278 64.33,677.701 64.056,679.124 63.755C679.096 64.248,679.096 64.768,679.096 65.315C679.096 66.71,679.233 68.051,679.726 69.391C679.808 69.665,679.726 70.13,680.081 70.13M681.121 58.612C681.176 57.763,681.176 56.888,681.203 56.012C681.258 55.082,681.258 54.179,681.258 53.222C681.915 53.112,682.544 53.003,683.173 52.839C682.982 54.644,682.899 56.45,682.79 58.283"/></g></g><path stroke-width="1" fill="none" stroke-linecap="round" d="M80.245 56L116 88"/><path stroke-width="1" stroke="none" stroke-linecap="round" d="M113.913 80.27L118.656 90L108.422 86.474L113.913 80.27Z"/><text stroke="none" stroke-linecap="round" x="80.245" y="100">Left</text><path stroke-width="2" fill="none" stroke-linecap="round" d="M263.09 75.536L294 68"/><path stroke-width="2" stroke="none" stroke-linecap="round" d="M279.085 60.734L300.997 67L283.886 82.053L279.085 60.734Z"/><path stroke-width="2" stroke="none" stroke-linecap="round" d="M278.498 83.266L256.586 77L273.698 61.947L278.498 83.266Z"/><text stroke="none" stroke-linecap="round" x="269.872" y="100">Right</text><path stroke-width="5" fill="none" stroke-linecap="round" d="M438.927 87L480 62"/><path stroke-width="5" stroke="none" stroke-linecap="round" d="M456.957 61.736L489.082 57L469.715 83.064L456.957 61.736Z"/><text stroke="none" stroke-linecap="round" x="443.909" y="100">Center</text><path stroke-width="1" stroke-dasharray="5,4" fill="none" stroke-linecap="round" d="M642.054 81.391L665.679 77"/><path stroke-width="1" stroke-dasharray="5,4" stroke="none" stroke-linecap="round" d="M649.365 84.245L638.777 82L647.851 76.1L649.365 84.245Z"/><path stroke-width="1" fill="none" stroke="red" stroke-linecap="round" d="M624.52 66.268L662 58"/><path stroke-width="1" fill="red" stroke="none" stroke-linecap="round" d="M655.014 55.156L665.679 57L656.833 63.238L655.014 55.156Z"/><path stroke-width="1" fill="red" stroke="none" stroke-linecap="round" d="M631.934 68.844L621.269 67L630.114 60.762L631.934 68.844Z"/><text fill="red" stroke="none" stroke-linecap="round" x="632.724" y="30">Top</text></svg>