<svg xmlns="http://www.w3.org/2000/svg" stroke-width="0.3" stroke-dasharray="none" fill="black" stroke="black" font-family="Arial, sans-serif" font-size="10pt" font-weight="normal" font-style="normal" width="450" height="250" viewBox="0 0 250 138.88888888888889" style="width: 450px; height: 250px; border: none;"><g class="vf-stave" id="vf-auto14159" stroke-width="1" fill="#999999" stroke="#999999" font-family="Arial"><path fill="none" d="M10 40L260 40"/><path fill="none" d="M10 50L260 50"/><path fill="none" d="M10 60L260 60"/><path fill="none" d="M10 70L260 70"/><path fill="none" d="M10 80L260 80"/></g><g class="vf-stavebarline" id="vf-auto14160" font-family="Arial"><rect x="10" y="39.5" width="1" height="41" stroke="none"/></g><g class="vf-stavebarline" id="vf-auto14161" font-family="Arial"><rect x="260" y="39.5" width="1" height="41" stroke="none"/></g><g class="vf-clef" id="vf-auto14162" font-family="Arial"><path stroke="none" d="M23.693 91.402C23.87 91.402,24.048 91.377,24.276 91.301C24.707 91.148,25.062 90.92,25.366 90.591C28.382 87.423,29.623 83.596,29.75 79.313C29.75 78.983,29.776 78.451,29.776 78.451C29.776 78.451,30.282 78.147,30.511 78.071C31.727 77.488,32.893 76.829,33.932 75.993C36.72 73.762,38.316 70.747,39.051 67.376C39.204 66.844,39.229 66.286,39.229 65.779C39.229 63.473,37.962 61.8,35.047 61.268C34.312 61.116,33.577 61.04,32.842 61.04C31.017 61.04,29.269 61.521,27.621 62.484C27.419 62.611,27.19 62.763,27.19 62.763L26.253 59.215C26.202 59.038,26.202 58.708,26.202 58.708C26.202 58.708,29.928 52.093,30.434 48.697C30.612 47.709,30.688 46.72,30.688 45.757C30.688 44.972,30.663 44.237,30.536 43.527C30.181 40.891,29.193 38.408,28.534 35.848C28.356 35.088,28.103 34.175,27.216 34.175C26.557 34.175,26.101 34.809,25.695 35.341C23.82 37.926,22.907 40.891,22.73 44.059C22.705 44.566,22.705 45.098,22.705 45.605C22.705 48.545,23.186 51.51,23.566 54.425C23.566 54.653,23.642 54.881,23.693 55.059C22.046 57.39,20.221 59.57,18.65 61.978C17.56 63.701,16.343 65.424,15.583 67.35C15.177 68.288,15 69.403,15 70.493C15 72.749,15.76 75.055,17.078 76.322C17.839 77.057,19.055 77.868,20.246 78.299C21.944 78.907,23.617 79.313,25.391 79.313C25.923 79.313,26.455 79.287,27.013 79.211L27.444 79.135C27.444 79.135,27.469 79.465,27.444 79.642C27.038 81.847,26.506 84.001,25.188 85.826C24.479 86.764,23.82 87.828,22.451 87.93C22.046 87.98,21.868 88.234,21.868 88.563C21.868 88.69,21.894 88.817,21.944 88.944C22.147 89.501,22.4 90.084,22.654 90.642C22.882 91.148,23.237 91.402,23.693 91.402M25.138 52.828C24.859 51.08,24.681 49.356,24.681 47.633C24.681 44.465,25.34 41.373,27.19 38.408C27.621 39.751,27.849 41.119,27.849 42.488C27.849 43.198,27.773 43.933,27.672 44.642C27.19 47.506,26.532 50.269,25.138 52.828M21.387 74.421C20.88 74.396,20.449 74.219,19.967 74.067C19.004 73.737,18.219 73.382,17.965 72.749C17.839 72.47,17.813 72.14,17.813 71.811C17.813 71.406,17.889 70.975,17.965 70.518C17.991 70.316,18.219 69.682,18.295 69.581C19.714 67.046,21.412 64.765,23.211 62.459L24.732 60.457L25.011 61.268C25.29 62.18,25.543 63.625,25.543 63.625C25.543 63.625,24.529 64.943,23.87 65.602C22.046 67.376,21.159 69.606,21.159 72.064C21.159 72.673,21.235 73.306,21.361 73.965C21.387 74.092,21.387 74.219,21.387 74.421M29.269 73.306C28.99 70.924,28.432 69.023,27.925 66.742C27.875 66.463,27.875 66.286,28.001 66.134C28.939 65.957,29.852 65.881,30.815 65.881C31.727 65.881,32.589 65.957,33.501 66.134C34.591 66.362,35.681 66.539,36.542 67.426C36.593 67.503,36.669 67.579,36.745 67.604C35.301 70.518,33.146 72.723,30.08 74.067L29.421 74.32M25.391 75.055C24.124 75.055,22.882 74.726,22.882 74.726C22.882 74.726,22.781 74.219,22.781 73.484C22.781 73.002,22.806 72.419,22.958 71.836C23.313 70.088,24.555 68.846,25.873 67.68C25.974 67.579,26.101 67.503,26.177 67.503C26.303 67.503,26.354 67.655,26.379 67.908C26.709 70.062,27.266 72.166,27.419 74.32C27.444 74.548,27.419 74.878,27.419 74.878C27.419 74.878,26.455 75.131,25.391 75.055"/></g><path stroke="none" d="M54.374 66.543C54.655 66.599,54.907 66.627,55.188 66.627C59.063 66.627,64.848 61.348,64.735 57.08C64.623 56.041,64.651 54.609,62.545 53.766C61.955 53.485,61.31 53.373,60.608 53.373C56.283 53.373,51.594 58.343,51.257 61.657C51.257 61.909,51.229 62.134,51.229 62.387C51.229 64.409,52.127 66.037,54.374 66.543"/><path stroke="none" d="M136.355 63.428C136.298 68.229,132.171 72.048,127.566 72.048C126.892 72.048,126.19 71.964,125.516 71.795C124.084 71.43,123.438 70.391,123.129 68.959C122.96 68.229,122.876 67.555,122.876 66.909C122.876 62.332,126.442 59.384,130.851 58.008C130.991 57.952,131.216 57.924,131.413 57.924C133.378 57.924,136.383 60.226,136.383 62.81C136.383 63.006,136.383 63.231,136.355 63.428M128.857 67.864C130.57 67.274,132.452 66.348,134.08 64.832C134.108 64.803,134.164 64.635,134.164 64.523C134.164 64.382,134.108 64.27,134.08 64.242C133.35 63.512,132.788 62.529,131.609 62.36C131.441 62.332,131.3 62.332,131.076 62.332C129.335 62.332,127.959 63.456,126.527 64.242C125.628 64.747,124.617 65.814,124.814 66.741C125.01 67.752,126.47 67.555,127.397 67.752C127.762 67.836,128.099 67.836,128.857 67.864"/><path stroke="none" d="M237.79 88.877C237.677 94.24,232.735 97.273,228.692 97.525C227.484 97.61,226.445 96.964,225.294 96.543L224.171 96.065C223.048 95.532,222.43 94.661,222.43 93.566C222.43 93.229,222.458 92.92,222.598 92.555C223.357 90.253,224.368 88.006,225.856 86.041C227.204 84.272,229.422 83.317,231.612 83.317C233.578 83.317,235.543 84.047,236.863 85.563C237.706 86.49,237.846 87.641,237.79 88.877M229.394 93.005C230.714 92.864,232.005 92.471,233.213 91.769C233.718 91.488,234.083 91.123,234.392 90.646C234.561 90.393,234.645 90.168,234.645 89.916C234.645 89.607,234.448 89.326,234.027 89.101C232.988 88.624,232.061 87.95,230.882 87.95C230.601 87.95,230.349 87.978,230.068 88.062C228.243 88.512,226.839 89.438,225.828 90.983C225.715 91.179,225.547 91.404,225.547 91.629C225.547 91.825,225.659 91.994,225.94 92.106C227.035 92.499,228.102 93.005,229.394 93.005"/><rect x="51.229" y="55" width="13.508" height="10" fill="none" stroke-width="1"/><rect x="122.876" y="60" width="13.506" height="10" fill="none" stroke-width="1"/><rect x="222.43" y="85" width="15.371" height="10" fill="none" stroke-width="1"/><path stroke-width="1" fill="none" d="M237.79 88.877C237.677 94.24,232.735 97.273,228.692 97.525C227.484 97.61,226.445 96.964,225.294 96.543L224.171 96.065C223.048 95.532,222.43 94.661,222.43 93.566C222.43 93.229,222.458 92.92,222.598 92.555C223.357 90.253,224.368 88.006,225.856 86.041C227.204 84.272,229.422 83.317,231.612 83.317C233.578 83.317,235.543 84.047,236.863 85.563C237.706 86.49,237.846 87.641,237.79 88.877M229.394 93.005C230.714 92.864,232.005 92.471,233.213 91.769C233.718 91.488,234.083 91.123,234.392 90.646C234.561 90.393,234.645 90.168,234.645 89.916C234.645 89.607,234.448 89.326,234.027 89.101C232.988 88.624,232.061 87.95,230.882 87.95C230.601 87.95,230.349 87.978,230.068 88.062C228.243 88.512,226.839 89.438,225.828 90.983C225.715 91.179,225.547 91.404,225.547 91.629C225.547 91.825,225.659 91.994,225.94 92.106C227.035 92.499,228.102 93.005,229.394 93.005"/></svg>