<svg xmlns="http://www.w3.org/2000/svg" stroke-width="0.3" stroke-dasharray="none" fill="black" stroke="black" font-family="Arial, sans-serif" font-size="10pt" font-weight="normal" font-style="normal" width="550" height="500" viewBox="0 0 687.5 625" style="width: 550px; height: 500px; border: none;"><g class="vf-stave" id="vf-auto16230" stroke-width="1" fill="#999999" stroke="#999999"><path fill="none" d="M100 90L473.132 90"/><path fill="none" d="M100 100L473.132 100"/><path fill="none" d="M100 110L473.132 110"/><path fill="none" d="M100 120L473.132 120"/><path fill="none" d="M100 130L473.132 130"/></g><g class="vf-stavebarline" id="vf-auto16231"/><g class="vf-stavebarline" id="vf-auto16232"><rect x="473.132" y="89.5" width="1" height="41" stroke="none"/></g><g class="vf-clef" id="vf-auto16233"><path stroke="none" d="M125.503 121.76C125.503 124.345,124.464 127.032,121.854 128.071C121.093 123.712,120.105 117.908,119.852 116.286C123.146 116.286,125.503 118.516,125.503 121.76M120.333 128.527C119.598 128.654,118.914 128.73,118.204 128.73C112.983 128.73,108.548 125.08,108.548 119.581C108.548 115.12,111.691 111.141,114.884 108.379C115.518 107.821,116.101 107.314,116.633 106.757C116.962 108.734,117.216 110.457,117.469 111.952C114.149 112.941,111.894 116.438,111.894 119.86C111.894 122.419,113.896 125.917,116.836 125.917C117.114 125.917,117.444 125.79,117.444 125.461C117.444 125.131,117.089 124.954,116.633 124.65C115.214 123.762,114.428 122.825,114.428 121.025C114.428 118.82,116.05 117.021,118.204 116.514M117.114 90.993C117.444 89.548,119.117 85.721,121.017 85.721C121.575 85.721,122.437 87.495,122.437 90.004C122.437 93.806,119.623 96.67,117.114 99.128C116.886 97.684,116.709 96.264,116.709 94.718C116.709 93.375,116.836 92.133,117.114 90.993M109.461 139.729C109.461 142.137,111.311 145.305,116.253 145.305C117.951 145.305,119.446 144.874,120.764 144.063C122.741 142.669,123.248 140.261,123.248 137.98C123.248 136.536,123.02 134.914,122.665 132.836C122.563 132.101,122.335 131.011,122.107 129.566C125.681 128.4,128.367 124.675,128.367 120.924C128.367 115.424,124.464 111.699,119.117 111.699C118.762 109.494,118.382 107.34,118.078 105.312C121.93 101.257,124.591 96.695,124.591 90.891C124.591 87.571,123.577 84.859,122.994 83.567C122.107 81.691,121.068 80.424,120.409 80.424C120.156 80.424,119.015 80.855,117.799 82.274C115.467 85.062,114.808 89.726,114.808 92.792C114.808 94.769,115.011 96.543,115.619 100.623C115.594 100.674,113.693 102.6,112.907 103.234C109.587 106.326,105 110.736,105 118.035C105 124.878,110.956 130.225,117.748 130.225C118.787 130.225,119.776 130.124,120.612 129.972C121.322 133.469,121.727 136.029,121.727 137.98C121.727 141.757,119.776 143.784,116.101 143.784C115.214 143.784,114.453 143.582,114.377 143.582C114.352 143.556,114.276 143.505,114.276 143.48C114.276 143.404,114.352 143.379,114.453 143.328C116.177 143.075,117.875 141.63,117.875 139.273C117.875 137.322,116.379 135.243,113.642 135.243C111.083 135.243,109.461 137.322,109.461 139.729"/></g><g class="vf-timesignature" id="vf-auto16234"><path stroke="none" d="M145.754 92.313C145.754 92.313,145.925 94.002,145.925 95.838C145.925 95.985,145.925 96.157,145.925 96.304C145.901 98.262,145.754 100.588,145.754 100.588C145.754 100.588,145.754 100.636,145.754 100.71C145.754 100.857,145.778 101.126,145.999 101.175C146.317 101.224,147.051 101.42,147.223 101.444C147.296 101.444,147.345 101.444,147.419 101.444C147.541 101.444,147.688 101.42,147.761 101.2C147.933 100.734,148.324 98.898,150.552 98.898C153.049 98.898,153.514 101.053,153.514 102.742C153.514 104.504,152.951 107.05,150.625 107.148C150.503 107.148,150.43 107.148,150.332 107.148C149.524 107.148,149.059 107.05,148.863 106.903C148.741 106.879,148.667 106.756,148.667 106.708C148.667 106.585,148.716 106.512,148.814 106.463C149.132 106.242,150.234 105.851,150.234 104.113C150.234 102.399,149.034 101.738,147.663 101.738C146.268 101.738,145.338 102.987,145.338 104.186C145.338 105.386,145.681 106.732,147.517 107.785C148.398 108.274,149.671 108.592,150.968 108.592C152.755 108.592,154.714 108.029,155.962 106.732C157.113 105.581,157.553 104.088,157.553 102.668C157.553 100.783,156.721 98.947,155.399 98.066C154.518 97.454,153.025 96.964,151.433 96.964C150.258 96.964,149.034 97.258,148.006 97.944C147.982 97.993,147.908 97.993,147.859 97.993C147.737 97.993,147.614 97.895,147.614 97.748L147.614 95.52C147.614 95.3,147.786 95.128,148.006 95.128L148.031 95.128C148.569 95.177,149.744 95.3,150.968 95.3C152.021 95.3,153.122 95.202,153.906 94.884C155.546 94.223,156.109 92.925,156.403 92.166C156.427 92.068,156.476 91.922,156.476 91.824C156.476 91.53,156.28 91.334,155.84 91.334C155.693 91.334,155.546 91.359,155.35 91.408C153.612 91.824,152.266 91.971,150.968 91.971C149.695 91.971,148.471 91.824,146.953 91.603C146.953 91.603,146.782 91.579,146.537 91.579C146.17 91.579,145.754 91.677,145.754 92.166C145.754 92.24,145.754 92.289,145.754 92.313"/><path stroke="none" d="M150.711 124.48L150.711 127.075L147.774 127.075C147.529 127.075,147.284 127.295,147.284 127.589L147.284 128.25C147.284 128.519,147.529 128.739,147.774 128.739L158.447 128.739C158.741 128.739,158.936 128.519,158.936 128.25L158.936 127.589C158.936 127.295,158.741 127.075,158.447 127.075L155.289 127.075L155.289 124.48L158.447 124.48C158.741 124.48,158.936 124.235,158.936 123.941L158.936 123.28C158.936 123.036,158.741 122.791,158.447 122.791L155.289 122.791L155.289 117.185C155.289 116.964,155.167 116.793,155.044 116.72L154.603 116.499C154.53 116.475,154.506 116.475,154.432 116.475C154.408 116.475,154.408 116.475,154.359 116.475C154.261 116.475,154.114 116.499,154.04 116.573L150.834 119.51C150.736 119.608,150.711 119.755,150.711 119.902L150.711 122.791L146.599 122.791C146.599 122.791,150.564 118.556,154.726 112.974C154.848 112.803,154.897 112.632,154.897 112.485C154.897 112.313,154.824 112.166,154.799 112.142L154.016 111.359C153.918 111.285,153.796 111.212,153.649 111.212C153.453 111.212,148.679 111.212,148.41 111.212C148.165 111.212,147.994 111.432,147.945 111.652C147.945 111.652,147.774 114.247,146.868 117.111C145.938 119.976,144.885 121.738,143.955 123.036C143.955 123.036,143.857 123.207,143.857 123.427C143.857 123.501,143.857 123.55,143.906 123.623C144.004 123.868,144.248 124.26,144.248 124.26C144.248 124.26,144.322 124.48,144.64 124.48"/></g><g class="vf-stavenote" id="vf-auto16169"><g class="vf-stem" id="vf-auto16170" pointer-events="bounding-box"><path stroke-width="1.5" fill="none" d="M186.8 107.65L186.8 140"/></g><g class="vf-notehead" id="vf-auto16172" pointer-events="bounding-box"><path stroke="none" d="M194.671 99.665C190.74 99.665,186.05 102.95,186.05 106.685C186.05 108.426,187.314 110.391,190.571 110.391C194.783 110.391,199.192 106.938,199.192 103.371C199.192 100.985,197.17 99.665,194.671 99.665M193.576 106.769C193.463 106.853,190.487 108.482,189.083 108.482C187.735 108.482,187.454 107.387,187.454 107.022C187.454 105.337,191.498 103.343,191.666 103.259C191.835 103.175,194.699 101.574,196.159 101.574C197.142 101.574,197.788 102.136,197.788 103.006C197.788 104.747,193.688 106.685,193.576 106.769"/><path stroke="none" d="M182.64 100.869C182.859 100.814,183.05 100.54,183.05 100.321L183.05 97.996C183.05 97.668,182.831 97.449,182.503 97.449C182.476 97.449,182.476 97.449,182.421 97.449L181.135 97.722L181.135 91.84L180.013 91.84L180.013 97.941L176.511 98.652L176.511 93.098L175.417 93.098L175.417 98.899L173.885 99.2C173.638 99.254,173.447 99.528,173.447 99.747L173.447 99.829L173.447 102.127L173.447 102.045C173.447 102.373,173.693 102.592,173.994 102.592C174.049 102.592,174.076 102.592,174.103 102.592L175.417 102.319L175.417 108.83L173.885 109.131C173.638 109.186,173.447 109.46,173.447 109.679L173.447 111.977C173.447 112.278,173.693 112.524,173.994 112.524C174.049 112.524,174.076 112.524,174.103 112.524L175.417 112.25L175.417 118.133L176.511 118.133L176.511 112.004L180.013 111.293L180.013 116.847L181.135 116.847L181.135 111.074L182.64 110.8C182.859 110.746,183.05 110.472,183.05 110.253L183.05 107.928C183.05 107.599,182.831 107.353,182.503 107.353C182.476 107.353,182.476 107.353,182.421 107.353L181.135 107.627L181.135 101.142M176.511 102.072L180.013 101.388L180.013 107.873L176.511 108.612"/></g></g><g class="vf-stavenote" id="vf-auto16175"><g class="vf-stem" id="vf-auto16176" pointer-events="bounding-box"><path stroke-width="1.5" fill="none" d="M231.081 113L231.081 80"/></g><g class="vf-notehead" id="vf-auto16178" pointer-events="bounding-box"><path stroke="none" d="M218.69 116.685C218.69 118.426,219.953 120.391,223.211 120.391C227.423 120.391,231.831 116.938,231.831 113.371C231.831 110.985,229.81 109.665,227.31 109.665C223.379 109.665,218.69 112.978,218.69 116.685"/></g></g><g class="vf-stavenote" id="vf-auto16179"><g class="vf-notehead" id="vf-auto16183" pointer-events="bounding-box"><path stroke="none" d="M254.442 116.685C254.442 118.426,255.705 120.391,258.962 120.391C263.174 120.391,267.583 116.938,267.583 113.371C267.583 110.985,265.561 109.665,263.062 109.665C259.131 109.665,254.442 112.978,254.442 116.685"/><path stroke="none" d="M251.359 111.854C251.141 110.321,250.183 108.899,248.186 108.899C246.216 108.899,245.067 110.075,244.875 110.321L245.039 97.708C245.039 97.38,244.793 97.161,244.465 97.161L244 97.161C243.699 97.161,243.452 97.38,243.452 97.708L243.562 109.555C243.069 109.172,242.413 108.899,241.565 108.899C239.595 108.899,238.446 110.103,238.254 110.349L238.418 97.708C238.418 97.38,238.172 97.161,237.844 97.161L237.379 97.161C237.078 97.161,236.831 97.38,236.831 97.708L237.023 121.375C237.023 121.703,237.269 121.922,237.57 121.922C237.652 121.922,237.816 121.867,237.898 121.813C238.063 121.731,240.607 120.527,242.741 118.119C243.015 117.791,243.37 117.244,243.617 116.888L243.644 121.375C243.644 121.703,243.89 121.922,244.191 121.922C244.273 121.922,244.437 121.867,244.519 121.813C244.684 121.731,247.228 120.472,249.362 118.064C250.867 116.368,251.442 114.453,251.442 112.839C251.442 112.483,251.414 112.155,251.359 111.854M242.03 113.413C242.03 114.015,241.866 115.821,240.881 117.326C240.224 118.338,238.883 119.405,238.145 120.007L238.254 112.319C238.336 111.963,238.911 110.814,240.498 110.814C241.92 110.814,242.03 112.155,242.03 113.003C242.03 113.194,242.03 113.304,242.03 113.413M248.651 113.413C248.651 114.015,248.487 115.821,247.502 117.326C246.845 118.338,245.504 119.405,244.738 120.007L244.875 112.319C244.957 111.963,245.532 110.814,247.119 110.814C248.541 110.814,248.651 112.155,248.651 113.003C248.651 113.194,248.651 113.304,248.651 113.413"/></g></g><g class="vf-stavenote" id="vf-auto16187"><g class="vf-notehead" id="vf-auto16191" pointer-events="bounding-box"><path stroke="none" d="M287.081 116.685C287.081 118.426,288.345 120.391,291.602 120.391C295.814 120.391,300.223 116.938,300.223 113.371C300.223 110.985,298.201 109.665,295.702 109.665C291.771 109.665,287.081 112.978,287.081 116.685"/></g></g><g class="vf-stavenote" id="vf-auto16194"><g class="vf-notehead" id="vf-auto16198" pointer-events="bounding-box"><path stroke="none" d="M319.721 116.685C319.721 118.426,320.985 120.391,324.242 120.391C328.454 120.391,332.862 116.938,332.862 113.371C332.862 110.985,330.841 109.665,328.342 109.665C324.41 109.665,319.721 112.978,319.721 116.685"/></g></g><g class="vf-stavenote" id="vf-auto16200"><g class="vf-notehead" id="vf-auto16204" pointer-events="bounding-box"><path stroke="none" d="M352.361 116.685C352.361 118.426,353.624 120.391,356.882 120.391C361.094 120.391,365.502 116.938,365.502 113.371C365.502 110.985,363.48 109.665,360.981 109.665C357.05 109.665,352.361 112.978,352.361 116.685"/><path stroke="none" d="M348.95 110.869C349.169 110.814,349.361 110.54,349.361 110.321L349.361 107.996C349.361 107.668,349.142 107.449,348.813 107.449C348.786 107.449,348.786 107.449,348.731 107.449L347.445 107.722L347.445 101.84L346.324 101.84L346.324 107.941L342.822 108.652L342.822 103.098L341.727 103.098L341.727 108.899L340.195 109.2C339.949 109.254,339.757 109.528,339.757 109.747L339.757 109.829L339.757 112.127L339.757 112.045C339.757 112.373,340.004 112.592,340.304 112.592C340.359 112.592,340.387 112.592,340.414 112.592L341.727 112.319L341.727 118.83L340.195 119.131C339.949 119.186,339.757 119.46,339.757 119.679L339.757 121.977C339.757 122.278,340.004 122.524,340.304 122.524C340.359 122.524,340.387 122.524,340.414 122.524L341.727 122.25L341.727 128.133L342.822 128.133L342.822 122.004L346.324 121.293L346.324 126.847L347.445 126.847L347.445 121.074L348.95 120.8C349.169 120.746,349.361 120.472,349.361 120.253L349.361 117.928C349.361 117.599,349.142 117.353,348.813 117.353C348.786 117.353,348.786 117.353,348.731 117.353L347.445 117.627L347.445 111.142M342.822 112.072L346.324 111.388L346.324 117.873L342.822 118.612"/></g></g><g class="vf-stavenote" id="vf-auto16208"><g class="vf-notehead" id="vf-auto16212" pointer-events="bounding-box"><path stroke="none" d="M385 116.685C385 118.426,386.264 120.391,389.521 120.391C393.733 120.391,398.142 116.938,398.142 113.371C398.142 110.985,396.12 109.665,393.621 109.665C389.69 109.665,385 112.978,385 116.685"/></g></g><g class="vf-stavenote" id="vf-auto16214"><g class="vf-notehead" id="vf-auto16218" pointer-events="bounding-box"><path stroke="none" d="M417.64 116.685C417.64 118.426,418.904 120.391,422.161 120.391C426.373 120.391,430.781 116.938,430.781 113.371C430.781 110.985,428.76 109.665,426.261 109.665C422.329 109.665,417.64 112.978,417.64 116.685"/><path stroke="none" d="M414.558 111.881C414.339 110.349,413.381 108.899,411.384 108.899C409.414 108.899,408.265 110.103,408.074 110.349L408.238 97.708C408.238 97.38,407.992 97.161,407.663 97.161L407.198 97.161C406.897 97.161,406.651 97.38,406.651 97.708L406.842 121.375C406.842 121.703,407.089 121.922,407.39 121.922C407.472 121.922,407.636 121.895,407.718 121.867C407.882 121.785,410.427 120.527,412.561 118.119C414.065 116.423,414.64 114.48,414.64 112.866C414.64 112.51,414.613 112.209,414.558 111.881M411.849 113.413C411.849 114.015,411.685 115.821,410.7 117.326C410.044 118.338,408.703 119.405,407.964 120.007L408.074 112.319C408.156 111.963,408.73 110.814,410.317 110.814C411.74 110.814,411.849 112.155,411.849 113.003C411.849 113.194,411.849 113.304,411.849 113.413"/></g></g><g class="vf-stavenote" id="vf-auto16222"><g class="vf-notehead" id="vf-auto16226" pointer-events="bounding-box"><path stroke="none" d="M450.28 116.685C450.28 118.426,451.543 120.391,454.801 120.391C459.013 120.391,463.421 116.938,463.421 113.371C463.421 110.985,461.399 109.665,458.9 109.665C454.969 109.665,450.28 112.978,450.28 116.685"/></g></g><g class="vf-stem" id="vf-auto16180" pointer-events="bounding-box"><path stroke-width="1.5" fill="none" d="M266.833 113L266.833 80.75"/></g><g class="vf-stem" id="vf-auto16188" pointer-events="bounding-box"><path stroke-width="1.5" fill="none" d="M299.473 113L299.473 80.75"/></g><g class="vf-beam" id="vf-auto16193"><path stroke="none" d="M266.083 80L266.083 85L299.723 85L299.723 80Z"/></g><g class="vf-stem" id="vf-auto16195" pointer-events="bounding-box"><path stroke-width="1.5" fill="none" d="M332.112 113L332.112 80.594"/></g><g class="vf-stem" id="vf-auto16201" pointer-events="bounding-box"><path stroke-width="1.5" fill="none" d="M364.752 113L364.752 78.146"/></g><g class="vf-stem" id="vf-auto16209" pointer-events="bounding-box"><path stroke-width="1.5" fill="none" d="M397.392 113L397.392 75.698"/></g><g class="vf-stem" id="vf-auto16215" pointer-events="bounding-box"><path stroke-width="1.5" fill="none" d="M430.031 113L430.031 73.25"/></g><g class="vf-stem" id="vf-auto16223" pointer-events="bounding-box"><path stroke-width="1.5" fill="none" d="M462.671 113L462.671 70.802"/></g><g class="vf-beam" id="vf-auto16228"><path stroke="none" d="M331.362 79.9L331.362 84.9L462.921 75.108L462.921 70.108Z"/><path stroke="none" d="M331.362 87.4L331.362 92.4L462.921 82.608L462.921 77.608Z"/><path stroke="none" d="M429.281 87.556L429.281 92.556L462.921 90.108L462.921 85.108Z"/></g><text stroke="none" x="562.5" y="100">softmax: 1</text><g class="vf-stave" id="vf-auto16300" stroke-width="1" fill="#999999" stroke="#999999"><path fill="none" d="M100 190L473.132 190"/><path fill="none" d="M100 200L473.132 200"/><path fill="none" d="M100 210L473.132 210"/><path fill="none" d="M100 220L473.132 220"/><path fill="none" d="M100 230L473.132 230"/></g><g class="vf-stavebarline" id="vf-auto16301"/><g class="vf-stavebarline" id="vf-auto16302"><rect x="473.132" y="189.5" width="1" height="41" stroke="none"/></g><g class="vf-clef" id="vf-auto16303"><path stroke="none" d="M125.503 221.76C125.503 224.345,124.464 227.032,121.854 228.071C121.093 223.712,120.105 217.908,119.852 216.286C123.146 216.286,125.503 218.516,125.503 221.76M120.333 228.527C119.598 228.654,118.914 228.73,118.204 228.73C112.983 228.73,108.548 225.08,108.548 219.581C108.548 215.12,111.691 211.141,114.884 208.379C115.518 207.821,116.101 207.314,116.633 206.757C116.962 208.734,117.216 210.457,117.469 211.952C114.149 212.941,111.894 216.438,111.894 219.86C111.894 222.419,113.896 225.917,116.836 225.917C117.114 225.917,117.444 225.79,117.444 225.461C117.444 225.131,117.089 224.954,116.633 224.65C115.214 223.762,114.428 222.825,114.428 221.025C114.428 218.82,116.05 217.021,118.204 216.514M117.114 190.993C117.444 189.548,119.117 185.721,121.017 185.721C121.575 185.721,122.437 187.495,122.437 190.004C122.437 193.806,119.623 196.67,117.114 199.128C116.886 197.684,116.709 196.264,116.709 194.718C116.709 193.375,116.836 192.133,117.114 190.993M109.461 239.729C109.461 242.137,111.311 245.305,116.253 245.305C117.951 245.305,119.446 244.874,120.764 244.063C122.741 242.669,123.248 240.261,123.248 237.98C123.248 236.536,123.02 234.914,122.665 232.836C122.563 232.101,122.335 231.011,122.107 229.566C125.681 228.4,128.367 224.675,128.367 220.924C128.367 215.424,124.464 211.699,119.117 211.699C118.762 209.494,118.382 207.34,118.078 205.312C121.93 201.257,124.591 196.695,124.591 190.891C124.591 187.571,123.577 184.859,122.994 183.567C122.107 181.691,121.068 180.424,120.409 180.424C120.156 180.424,119.015 180.855,117.799 182.274C115.467 185.062,114.808 189.726,114.808 192.792C114.808 194.769,115.011 196.543,115.619 200.623C115.594 200.674,113.693 202.6,112.907 203.234C109.587 206.326,105 210.736,105 218.035C105 224.878,110.956 230.225,117.748 230.225C118.787 230.225,119.776 230.124,120.612 229.972C121.322 233.469,121.727 236.029,121.727 237.98C121.727 241.757,119.776 243.784,116.101 243.784C115.214 243.784,114.453 243.582,114.377 243.582C114.352 243.556,114.276 243.505,114.276 243.48C114.276 243.404,114.352 243.379,114.453 243.328C116.177 243.075,117.875 241.63,117.875 239.273C117.875 237.322,116.379 235.243,113.642 235.243C111.083 235.243,109.461 237.322,109.461 239.729"/></g><g class="vf-timesignature" id="vf-auto16304"><path stroke="none" d="M145.754 192.313C145.754 192.313,145.925 194.002,145.925 195.838C145.925 195.985,145.925 196.157,145.925 196.304C145.901 198.262,145.754 200.588,145.754 200.588C145.754 200.588,145.754 200.636,145.754 200.71C145.754 200.857,145.778 201.126,145.999 201.175C146.317 201.224,147.051 201.42,147.223 201.444C147.296 201.444,147.345 201.444,147.419 201.444C147.541 201.444,147.688 201.42,147.761 201.2C147.933 200.734,148.324 198.898,150.552 198.898C153.049 198.898,153.514 201.053,153.514 202.742C153.514 204.504,152.951 207.05,150.625 207.148C150.503 207.148,150.43 207.148,150.332 207.148C149.524 207.148,149.059 207.05,148.863 206.903C148.741 206.879,148.667 206.756,148.667 206.708C148.667 206.585,148.716 206.512,148.814 206.463C149.132 206.242,150.234 205.851,150.234 204.113C150.234 202.399,149.034 201.738,147.663 201.738C146.268 201.738,145.338 202.987,145.338 204.186C145.338 205.386,145.681 206.732,147.517 207.785C148.398 208.274,149.671 208.592,150.968 208.592C152.755 208.592,154.714 208.029,155.962 206.732C157.113 205.581,157.553 204.088,157.553 202.668C157.553 200.783,156.721 198.947,155.399 198.066C154.518 197.454,153.025 196.964,151.433 196.964C150.258 196.964,149.034 197.258,148.006 197.944C147.982 197.993,147.908 197.993,147.859 197.993C147.737 197.993,147.614 197.895,147.614 197.748L147.614 195.52C147.614 195.3,147.786 195.128,148.006 195.128L148.031 195.128C148.569 195.177,149.744 195.3,150.968 195.3C152.021 195.3,153.122 195.202,153.906 194.884C155.546 194.223,156.109 192.925,156.403 192.166C156.427 192.068,156.476 191.922,156.476 191.824C156.476 191.53,156.28 191.334,155.84 191.334C155.693 191.334,155.546 191.359,155.35 191.408C153.612 191.824,152.266 191.971,150.968 191.971C149.695 191.971,148.471 191.824,146.953 191.603C146.953 191.603,146.782 191.579,146.537 191.579C146.17 191.579,145.754 191.677,145.754 192.166C145.754 192.24,145.754 192.289,145.754 192.313"/><path stroke="none" d="M150.711 224.48L150.711 227.075L147.774 227.075C147.529 227.075,147.284 227.295,147.284 227.589L147.284 228.25C147.284 228.519,147.529 228.739,147.774 228.739L158.447 228.739C158.741 228.739,158.936 228.519,158.936 228.25L158.936 227.589C158.936 227.295,158.741 227.075,158.447 227.075L155.289 227.075L155.289 224.48L158.447 224.48C158.741 224.48,158.936 224.235,158.936 223.941L158.936 223.28C158.936 223.036,158.741 222.791,158.447 222.791L155.289 222.791L155.289 217.185C155.289 216.964,155.167 216.793,155.044 216.72L154.603 216.499C154.53 216.475,154.506 216.475,154.432 216.475C154.408 216.475,154.408 216.475,154.359 216.475C154.261 216.475,154.114 216.499,154.04 216.573L150.834 219.51C150.736 219.608,150.711 219.755,150.711 219.902L150.711 222.791L146.599 222.791C146.599 222.791,150.564 218.556,154.726 212.974C154.848 212.803,154.897 212.632,154.897 212.485C154.897 212.313,154.824 212.166,154.799 212.142L154.016 211.359C153.918 211.285,153.796 211.212,153.649 211.212C153.453 211.212,148.679 211.212,148.41 211.212C148.165 211.212,147.994 211.432,147.945 211.652C147.945 211.652,147.774 214.247,146.868 217.111C145.938 219.976,144.885 221.738,143.955 223.036C143.955 223.036,143.857 223.207,143.857 223.427C143.857 223.501,143.857 223.55,143.906 223.623C144.004 223.868,144.248 224.26,144.248 224.26C144.248 224.26,144.322 224.48,144.64 224.48"/></g><g class="vf-stavenote" id="vf-auto16239"><g class="vf-stem" id="vf-auto16240" pointer-events="bounding-box"><path stroke-width="1.5" fill="none" d="M186.8 207.65L186.8 240"/></g><g class="vf-notehead" id="vf-auto16242" pointer-events="bounding-box"><path stroke="none" d="M194.671 199.665C190.74 199.665,186.05 202.95,186.05 206.685C186.05 208.426,187.314 210.391,190.571 210.391C194.783 210.391,199.192 206.938,199.192 203.371C199.192 200.985,197.17 199.665,194.671 199.665M193.576 206.769C193.463 206.853,190.487 208.482,189.083 208.482C187.735 208.482,187.454 207.387,187.454 207.022C187.454 205.337,191.498 203.343,191.666 203.259C191.835 203.175,194.699 201.574,196.159 201.574C197.142 201.574,197.788 202.136,197.788 203.006C197.788 204.747,193.688 206.685,193.576 206.769"/><path stroke="none" d="M182.64 200.869C182.859 200.814,183.05 200.54,183.05 200.321L183.05 197.996C183.05 197.668,182.831 197.449,182.503 197.449C182.476 197.449,182.476 197.449,182.421 197.449L181.135 197.722L181.135 191.84L180.013 191.84L180.013 197.941L176.511 198.652L176.511 193.098L175.417 193.098L175.417 198.899L173.885 199.2C173.638 199.254,173.447 199.528,173.447 199.747L173.447 199.829L173.447 202.127L173.447 202.045C173.447 202.373,173.693 202.592,173.994 202.592C174.049 202.592,174.076 202.592,174.103 202.592L175.417 202.319L175.417 208.83L173.885 209.131C173.638 209.186,173.447 209.46,173.447 209.679L173.447 211.977C173.447 212.278,173.693 212.524,173.994 212.524C174.049 212.524,174.076 212.524,174.103 212.524L175.417 212.25L175.417 218.133L176.511 218.133L176.511 212.004L180.013 211.293L180.013 216.847L181.135 216.847L181.135 211.074L182.64 210.8C182.859 210.746,183.05 210.472,183.05 210.253L183.05 207.928C183.05 207.599,182.831 207.353,182.503 207.353C182.476 207.353,182.476 207.353,182.421 207.353L181.135 207.627L181.135 201.142M176.511 202.072L180.013 201.388L180.013 207.873L176.511 208.612"/></g></g><g class="vf-stavenote" id="vf-auto16245"><g class="vf-stem" id="vf-auto16246" pointer-events="bounding-box"><path stroke-width="1.5" fill="none" d="M237.992 213L237.992 180"/></g><g class="vf-notehead" id="vf-auto16248" pointer-events="bounding-box"><path stroke="none" d="M225.601 216.685C225.601 218.426,226.864 220.391,230.122 220.391C234.334 220.391,238.742 216.938,238.742 213.371C238.742 210.985,236.72 209.665,234.221 209.665C230.29 209.665,225.601 212.978,225.601 216.685"/></g></g><g class="vf-stavenote" id="vf-auto16249"><g class="vf-notehead" id="vf-auto16253" pointer-events="bounding-box"><path stroke="none" d="M261.352 216.685C261.352 218.426,262.616 220.391,265.873 220.391C270.085 220.391,274.494 216.938,274.494 213.371C274.494 210.985,272.472 209.665,269.973 209.665C266.042 209.665,261.352 212.978,261.352 216.685"/><path stroke="none" d="M258.27 211.854C258.052 210.321,257.094 208.899,255.097 208.899C253.127 208.899,251.978 210.075,251.786 210.321L251.95 197.708C251.95 197.38,251.704 197.161,251.376 197.161L250.911 197.161C250.61 197.161,250.363 197.38,250.363 197.708L250.473 209.555C249.98 209.172,249.324 208.899,248.476 208.899C246.506 208.899,245.356 210.103,245.165 210.349L245.329 197.708C245.329 197.38,245.083 197.161,244.755 197.161L244.289 197.161C243.988 197.161,243.742 197.38,243.742 197.708L243.934 221.375C243.934 221.703,244.18 221.922,244.481 221.922C244.563 221.922,244.727 221.867,244.809 221.813C244.973 221.731,247.518 220.527,249.652 218.119C249.926 217.791,250.281 217.244,250.528 216.888L250.555 221.375C250.555 221.703,250.801 221.922,251.102 221.922C251.184 221.922,251.348 221.867,251.43 221.813C251.595 221.731,254.139 220.472,256.273 218.064C257.778 216.368,258.352 214.453,258.352 212.839C258.352 212.483,258.325 212.155,258.27 211.854M248.941 213.413C248.941 214.015,248.776 215.821,247.792 217.326C247.135 218.338,245.794 219.405,245.056 220.007L245.165 212.319C245.247 211.963,245.822 210.814,247.408 210.814C248.831 210.814,248.941 212.155,248.941 213.003C248.941 213.194,248.941 213.304,248.941 213.413M255.562 213.413C255.562 214.015,255.398 215.821,254.413 217.326C253.756 218.338,252.415 219.405,251.649 220.007L251.786 212.319C251.868 211.963,252.443 210.814,254.03 210.814C255.452 210.814,255.562 212.155,255.562 213.003C255.562 213.194,255.562 213.304,255.562 213.413"/></g></g><g class="vf-stavenote" id="vf-auto16257"><g class="vf-notehead" id="vf-auto16261" pointer-events="bounding-box"><path stroke="none" d="M293.478 216.685C293.478 218.426,294.741 220.391,297.998 220.391C302.21 220.391,306.619 216.938,306.619 213.371C306.619 210.985,304.597 209.665,302.098 209.665C298.167 209.665,293.478 212.978,293.478 216.685"/></g></g><g class="vf-stavenote" id="vf-auto16264"><g class="vf-notehead" id="vf-auto16268" pointer-events="bounding-box"><path stroke="none" d="M325.603 216.685C325.603 218.426,326.866 220.391,330.123 220.391C334.335 220.391,338.744 216.938,338.744 213.371C338.744 210.985,336.722 209.665,334.223 209.665C330.292 209.665,325.603 212.978,325.603 216.685"/></g></g><g class="vf-stavenote" id="vf-auto16270"><g class="vf-notehead" id="vf-auto16274" pointer-events="bounding-box"><path stroke="none" d="M356.633 216.685C356.633 218.426,357.897 220.391,361.154 220.391C365.366 220.391,369.775 216.938,369.775 213.371C369.775 210.985,367.753 209.665,365.254 209.665C361.323 209.665,356.633 212.978,356.633 216.685"/><path stroke="none" d="M353.223 210.869C353.442 210.814,353.633 210.54,353.633 210.321L353.633 207.996C353.633 207.668,353.414 207.449,353.086 207.449C353.059 207.449,353.059 207.449,353.004 207.449L351.718 207.722L351.718 201.84L350.596 201.84L350.596 207.941L347.094 208.652L347.094 203.098L346 203.098L346 208.899L344.468 209.2C344.221 209.254,344.03 209.528,344.03 209.747L344.03 209.829L344.03 212.127L344.03 212.045C344.03 212.373,344.276 212.592,344.577 212.592C344.632 212.592,344.659 212.592,344.687 212.592L346 212.319L346 218.83L344.468 219.131C344.221 219.186,344.03 219.46,344.03 219.679L344.03 221.977C344.03 222.278,344.276 222.524,344.577 222.524C344.632 222.524,344.659 222.524,344.687 222.524L346 222.25L346 228.133L347.094 228.133L347.094 222.004L350.596 221.293L350.596 226.847L351.718 226.847L351.718 221.074L353.223 220.8C353.442 220.746,353.633 220.472,353.633 220.253L353.633 217.928C353.633 217.599,353.414 217.353,353.086 217.353C353.059 217.353,353.059 217.353,353.004 217.353L351.718 217.627L351.718 211.142M347.094 212.072L350.596 211.388L350.596 217.873L347.094 218.612"/></g></g><g class="vf-stavenote" id="vf-auto16278"><g class="vf-notehead" id="vf-auto16282" pointer-events="bounding-box"><path stroke="none" d="M387.664 216.685C387.664 218.426,388.928 220.391,392.185 220.391C396.397 220.391,400.805 216.938,400.805 213.371C400.805 210.985,398.784 209.665,396.285 209.665C392.353 209.665,387.664 212.978,387.664 216.685"/></g></g><g class="vf-stavenote" id="vf-auto16284"><g class="vf-notehead" id="vf-auto16288" pointer-events="bounding-box"><path stroke="none" d="M418.695 216.685C418.695 218.426,419.958 220.391,423.216 220.391C427.428 220.391,431.836 216.938,431.836 213.371C431.836 210.985,429.814 209.665,427.315 209.665C423.384 209.665,418.695 212.978,418.695 216.685"/><path stroke="none" d="M415.613 211.881C415.394 210.349,414.436 208.899,412.439 208.899C410.469 208.899,409.32 210.103,409.128 210.349L409.293 197.708C409.293 197.38,409.046 197.161,408.718 197.161L408.253 197.161C407.952 197.161,407.706 197.38,407.706 197.708L407.897 221.375C407.897 221.703,408.143 221.922,408.444 221.922C408.526 221.922,408.691 221.895,408.773 221.867C408.937 221.785,411.481 220.527,413.615 218.119C415.12 216.423,415.695 214.48,415.695 212.866C415.695 212.51,415.667 212.209,415.613 211.881M412.904 213.413C412.904 214.015,412.74 215.821,411.755 217.326C411.098 218.338,409.758 219.405,409.019 220.007L409.128 212.319C409.21 211.963,409.785 210.814,411.372 210.814C412.795 210.814,412.904 212.155,412.904 213.003C412.904 213.194,412.904 213.304,412.904 213.413"/></g></g><g class="vf-stavenote" id="vf-auto16292"><g class="vf-notehead" id="vf-auto16296" pointer-events="bounding-box"><path stroke="none" d="M449.192 216.685C449.192 218.426,450.456 220.391,453.713 220.391C457.925 220.391,462.334 216.938,462.334 213.371C462.334 210.985,460.312 209.665,457.813 209.665C453.882 209.665,449.192 212.978,449.192 216.685"/></g></g><g class="vf-stem" id="vf-auto16250" pointer-events="bounding-box"><path stroke-width="1.5" fill="none" d="M273.744 213L273.744 180.75"/></g><g class="vf-stem" id="vf-auto16258" pointer-events="bounding-box"><path stroke-width="1.5" fill="none" d="M305.869 213L305.869 180.75"/></g><g class="vf-beam" id="vf-auto16263"><path stroke="none" d="M272.994 180L272.994 185L306.119 185L306.119 180Z"/></g><g class="vf-stem" id="vf-auto16265" pointer-events="bounding-box"><path stroke-width="1.5" fill="none" d="M337.994 213L337.994 180.232"/></g><g class="vf-stem" id="vf-auto16271" pointer-events="bounding-box"><path stroke-width="1.5" fill="none" d="M369.025 213L369.025 177.905"/></g><g class="vf-stem" id="vf-auto16279" pointer-events="bounding-box"><path stroke-width="1.5" fill="none" d="M400.055 213L400.055 175.577"/></g><g class="vf-stem" id="vf-auto16285" pointer-events="bounding-box"><path stroke-width="1.5" fill="none" d="M431.086 213L431.086 173.25"/></g><g class="vf-stem" id="vf-auto16293" pointer-events="bounding-box"><path stroke-width="1.5" fill="none" d="M461.584 213L461.584 170.963"/></g><g class="vf-beam" id="vf-auto16298"><path stroke="none" d="M337.244 179.538L337.244 184.538L461.834 175.269L461.834 170.269Z"/><path stroke="none" d="M337.244 187.038L337.244 192.038L461.834 182.769L461.834 177.769Z"/><path stroke="none" d="M430.336 187.556L430.336 192.556L461.834 190.269L461.834 185.269Z"/></g><text stroke="none" x="562.5" y="200">softmax: 2</text><g class="vf-stave" id="vf-auto16370" stroke-width="1" fill="#999999" stroke="#999999"><path fill="none" d="M100 290L473.132 290"/><path fill="none" d="M100 300L473.132 300"/><path fill="none" d="M100 310L473.132 310"/><path fill="none" d="M100 320L473.132 320"/><path fill="none" d="M100 330L473.132 330"/></g><g class="vf-stavebarline" id="vf-auto16371"/><g class="vf-stavebarline" id="vf-auto16372"><rect x="473.132" y="289.5" width="1" height="41" stroke="none"/></g><g class="vf-clef" id="vf-auto16373"><path stroke="none" d="M125.503 321.76C125.503 324.345,124.464 327.032,121.854 328.071C121.093 323.712,120.105 317.908,119.852 316.286C123.146 316.286,125.503 318.516,125.503 321.76M120.333 328.527C119.598 328.654,118.914 328.73,118.204 328.73C112.983 328.73,108.548 325.08,108.548 319.581C108.548 315.12,111.691 311.141,114.884 308.379C115.518 307.821,116.101 307.314,116.633 306.757C116.962 308.734,117.216 310.457,117.469 311.952C114.149 312.941,111.894 316.438,111.894 319.86C111.894 322.419,113.896 325.917,116.836 325.917C117.114 325.917,117.444 325.79,117.444 325.461C117.444 325.131,117.089 324.954,116.633 324.65C115.214 323.762,114.428 322.825,114.428 321.025C114.428 318.82,116.05 317.021,118.204 316.514M117.114 290.993C117.444 289.548,119.117 285.721,121.017 285.721C121.575 285.721,122.437 287.495,122.437 290.004C122.437 293.806,119.623 296.67,117.114 299.128C116.886 297.684,116.709 296.264,116.709 294.718C116.709 293.375,116.836 292.133,117.114 290.993M109.461 339.729C109.461 342.137,111.311 345.305,116.253 345.305C117.951 345.305,119.446 344.874,120.764 344.063C122.741 342.669,123.248 340.261,123.248 337.98C123.248 336.536,123.02 334.914,122.665 332.836C122.563 332.101,122.335 331.011,122.107 329.566C125.681 328.4,128.367 324.675,128.367 320.924C128.367 315.424,124.464 311.699,119.117 311.699C118.762 309.494,118.382 307.34,118.078 305.312C121.93 301.257,124.591 296.695,124.591 290.891C124.591 287.571,123.577 284.859,122.994 283.567C122.107 281.691,121.068 280.424,120.409 280.424C120.156 280.424,119.015 280.855,117.799 282.274C115.467 285.062,114.808 289.726,114.808 292.792C114.808 294.769,115.011 296.543,115.619 300.623C115.594 300.674,113.693 302.6,112.907 303.234C109.587 306.326,105 310.736,105 318.035C105 324.878,110.956 330.225,117.748 330.225C118.787 330.225,119.776 330.124,120.612 329.972C121.322 333.469,121.727 336.029,121.727 337.98C121.727 341.757,119.776 343.784,116.101 343.784C115.214 343.784,114.453 343.582,114.377 343.582C114.352 343.556,114.276 343.505,114.276 343.48C114.276 343.404,114.352 343.379,114.453 343.328C116.177 343.075,117.875 341.63,117.875 339.273C117.875 337.322,116.379 335.243,113.642 335.243C111.083 335.243,109.461 337.322,109.461 339.729"/></g><g class="vf-timesignature" id="vf-auto16374"><path stroke="none" d="M145.754 292.313C145.754 292.313,145.925 294.002,145.925 295.838C145.925 295.985,145.925 296.157,145.925 296.304C145.901 298.262,145.754 300.588,145.754 300.588C145.754 300.588,145.754 300.636,145.754 300.71C145.754 300.857,145.778 301.126,145.999 301.175C146.317 301.224,147.051 301.42,147.223 301.444C147.296 301.444,147.345 301.444,147.419 301.444C147.541 301.444,147.688 301.42,147.761 301.2C147.933 300.734,148.324 298.898,150.552 298.898C153.049 298.898,153.514 301.053,153.514 302.742C153.514 304.504,152.951 307.05,150.625 307.148C150.503 307.148,150.43 307.148,150.332 307.148C149.524 307.148,149.059 307.05,148.863 306.903C148.741 306.879,148.667 306.756,148.667 306.708C148.667 306.585,148.716 306.512,148.814 306.463C149.132 306.242,150.234 305.851,150.234 304.113C150.234 302.399,149.034 301.738,147.663 301.738C146.268 301.738,145.338 302.987,145.338 304.186C145.338 305.386,145.681 306.732,147.517 307.785C148.398 308.274,149.671 308.592,150.968 308.592C152.755 308.592,154.714 308.029,155.962 306.732C157.113 305.581,157.553 304.088,157.553 302.668C157.553 300.783,156.721 298.947,155.399 298.066C154.518 297.454,153.025 296.964,151.433 296.964C150.258 296.964,149.034 297.258,148.006 297.944C147.982 297.993,147.908 297.993,147.859 297.993C147.737 297.993,147.614 297.895,147.614 297.748L147.614 295.52C147.614 295.3,147.786 295.128,148.006 295.128L148.031 295.128C148.569 295.177,149.744 295.3,150.968 295.3C152.021 295.3,153.122 295.202,153.906 294.884C155.546 294.223,156.109 292.925,156.403 292.166C156.427 292.068,156.476 291.922,156.476 291.824C156.476 291.53,156.28 291.334,155.84 291.334C155.693 291.334,155.546 291.359,155.35 291.408C153.612 291.824,152.266 291.971,150.968 291.971C149.695 291.971,148.471 291.824,146.953 291.603C146.953 291.603,146.782 291.579,146.537 291.579C146.17 291.579,145.754 291.677,145.754 292.166C145.754 292.24,145.754 292.289,145.754 292.313"/><path stroke="none" d="M150.711 324.48L150.711 327.075L147.774 327.075C147.529 327.075,147.284 327.295,147.284 327.589L147.284 328.25C147.284 328.519,147.529 328.739,147.774 328.739L158.447 328.739C158.741 328.739,158.936 328.519,158.936 328.25L158.936 327.589C158.936 327.295,158.741 327.075,158.447 327.075L155.289 327.075L155.289 324.48L158.447 324.48C158.741 324.48,158.936 324.235,158.936 323.941L158.936 323.28C158.936 323.036,158.741 322.791,158.447 322.791L155.289 322.791L155.289 317.185C155.289 316.964,155.167 316.793,155.044 316.72L154.603 316.499C154.53 316.475,154.506 316.475,154.432 316.475C154.408 316.475,154.408 316.475,154.359 316.475C154.261 316.475,154.114 316.499,154.04 316.573L150.834 319.51C150.736 319.608,150.711 319.755,150.711 319.902L150.711 322.791L146.599 322.791C146.599 322.791,150.564 318.556,154.726 312.974C154.848 312.803,154.897 312.632,154.897 312.485C154.897 312.313,154.824 312.166,154.799 312.142L154.016 311.359C153.918 311.285,153.796 311.212,153.649 311.212C153.453 311.212,148.679 311.212,148.41 311.212C148.165 311.212,147.994 311.432,147.945 311.652C147.945 311.652,147.774 314.247,146.868 317.111C145.938 319.976,144.885 321.738,143.955 323.036C143.955 323.036,143.857 323.207,143.857 323.427C143.857 323.501,143.857 323.55,143.906 323.623C144.004 323.868,144.248 324.26,144.248 324.26C144.248 324.26,144.322 324.48,144.64 324.48"/></g><g class="vf-stavenote" id="vf-auto16309"><g class="vf-stem" id="vf-auto16310" pointer-events="bounding-box"><path stroke-width="1.5" fill="none" d="M186.8 307.65L186.8 340"/></g><g class="vf-notehead" id="vf-auto16312" pointer-events="bounding-box"><path stroke="none" d="M194.671 299.665C190.74 299.665,186.05 302.95,186.05 306.685C186.05 308.426,187.314 310.391,190.571 310.391C194.783 310.391,199.192 306.938,199.192 303.371C199.192 300.985,197.17 299.665,194.671 299.665M193.576 306.769C193.463 306.853,190.487 308.482,189.083 308.482C187.735 308.482,187.454 307.387,187.454 307.022C187.454 305.337,191.498 303.343,191.666 303.259C191.835 303.175,194.699 301.574,196.159 301.574C197.142 301.574,197.788 302.136,197.788 303.006C197.788 304.747,193.688 306.685,193.576 306.769"/><path stroke="none" d="M182.64 300.869C182.859 300.814,183.05 300.54,183.05 300.321L183.05 297.996C183.05 297.668,182.831 297.449,182.503 297.449C182.476 297.449,182.476 297.449,182.421 297.449L181.135 297.722L181.135 291.84L180.013 291.84L180.013 297.941L176.511 298.652L176.511 293.098L175.417 293.098L175.417 298.899L173.885 299.2C173.638 299.254,173.447 299.528,173.447 299.747L173.447 299.829L173.447 302.127L173.447 302.045C173.447 302.373,173.693 302.592,173.994 302.592C174.049 302.592,174.076 302.592,174.103 302.592L175.417 302.319L175.417 308.83L173.885 309.131C173.638 309.186,173.447 309.46,173.447 309.679L173.447 311.977C173.447 312.278,173.693 312.524,173.994 312.524C174.049 312.524,174.076 312.524,174.103 312.524L175.417 312.25L175.417 318.133L176.511 318.133L176.511 312.004L180.013 311.293L180.013 316.847L181.135 316.847L181.135 311.074L182.64 310.8C182.859 310.746,183.05 310.472,183.05 310.253L183.05 307.928C183.05 307.599,182.831 307.353,182.503 307.353C182.476 307.353,182.476 307.353,182.421 307.353L181.135 307.627L181.135 301.142M176.511 302.072L180.013 301.388L180.013 307.873L176.511 308.612"/></g></g><g class="vf-stavenote" id="vf-auto16315"><g class="vf-stem" id="vf-auto16316" pointer-events="bounding-box"><path stroke-width="1.5" fill="none" d="M248.425 313L248.425 280"/></g><g class="vf-notehead" id="vf-auto16318" pointer-events="bounding-box"><path stroke="none" d="M236.034 316.685C236.034 318.426,237.297 320.391,240.555 320.391C244.767 320.391,249.175 316.938,249.175 313.371C249.175 310.985,247.153 309.665,244.654 309.665C240.723 309.665,236.034 312.978,236.034 316.685"/></g></g><g class="vf-stavenote" id="vf-auto16319"><g class="vf-notehead" id="vf-auto16323" pointer-events="bounding-box"><path stroke="none" d="M272.261 316.685C272.261 318.426,273.524 320.391,276.782 320.391C280.994 320.391,285.402 316.938,285.402 313.371C285.402 310.985,283.38 309.665,280.881 309.665C276.95 309.665,272.261 312.978,272.261 316.685"/><path stroke="none" d="M269.179 311.854C268.96 310.321,268.002 308.899,266.005 308.899C264.035 308.899,262.886 310.075,262.694 310.321L262.859 297.708C262.859 297.38,262.612 297.161,262.284 297.161L261.819 297.161C261.518 297.161,261.272 297.38,261.272 297.708L261.381 309.555C260.889 309.172,260.232 308.899,259.384 308.899C257.414 308.899,256.265 310.103,256.073 310.349L256.237 297.708C256.237 297.38,255.991 297.161,255.663 297.161L255.198 297.161C254.897 297.161,254.651 297.38,254.651 297.708L254.842 321.375C254.842 321.703,255.088 321.922,255.389 321.922C255.471 321.922,255.636 321.867,255.718 321.813C255.882 321.731,258.426 320.527,260.56 318.119C260.834 317.791,261.19 317.244,261.436 316.888L261.463 321.375C261.463 321.703,261.709 321.922,262.01 321.922C262.092 321.922,262.257 321.867,262.339 321.813C262.503 321.731,265.047 320.472,267.181 318.064C268.686 316.368,269.261 314.453,269.261 312.839C269.261 312.483,269.233 312.155,269.179 311.854M259.849 313.413C259.849 314.015,259.685 315.821,258.7 317.326C258.043 318.338,256.703 319.405,255.964 320.007L256.073 312.319C256.155 311.963,256.73 310.814,258.317 310.814C259.74 310.814,259.849 312.155,259.849 313.003C259.849 313.194,259.849 313.304,259.849 313.413M266.47 313.413C266.47 314.015,266.306 315.821,265.321 317.326C264.664 318.338,263.324 319.405,262.558 320.007L262.694 312.319C262.776 311.963,263.351 310.814,264.938 310.814C266.361 310.814,266.47 312.155,266.47 313.003C266.47 313.194,266.47 313.304,266.47 313.413"/></g></g><g class="vf-stavenote" id="vf-auto16327"><g class="vf-notehead" id="vf-auto16331" pointer-events="bounding-box"><path stroke="none" d="M303.102 316.685C303.102 318.426,304.366 320.391,307.623 320.391C311.835 320.391,316.244 316.938,316.244 313.371C316.244 310.985,314.222 309.665,311.723 309.665C307.792 309.665,303.102 312.978,303.102 316.685"/></g></g><g class="vf-stavenote" id="vf-auto16334"><g class="vf-notehead" id="vf-auto16338" pointer-events="bounding-box"><path stroke="none" d="M333.944 316.685C333.944 318.426,335.208 320.391,338.465 320.391C342.677 320.391,347.085 316.938,347.085 313.371C347.085 310.985,345.064 309.665,342.564 309.665C338.633 309.665,333.944 312.978,333.944 316.685"/></g></g><g class="vf-stavenote" id="vf-auto16340"><g class="vf-notehead" id="vf-auto16344" pointer-events="bounding-box"><path stroke="none" d="M364.689 316.685C364.689 318.426,365.952 320.391,369.21 320.391C373.422 320.391,377.83 316.938,377.83 313.371C377.83 310.985,375.808 309.665,373.309 309.665C369.378 309.665,364.689 312.978,364.689 316.685"/><path stroke="none" d="M361.278 310.869C361.497 310.814,361.689 310.54,361.689 310.321L361.689 307.996C361.689 307.668,361.47 307.449,361.142 307.449C361.114 307.449,361.114 307.449,361.059 307.449L359.774 307.722L359.774 301.84L358.652 301.84L358.652 307.941L355.15 308.652L355.15 303.098L354.055 303.098L354.055 308.899L352.523 309.2C352.277 309.254,352.085 309.528,352.085 309.747L352.085 309.829L352.085 312.127L352.085 312.045C352.085 312.373,352.332 312.592,352.633 312.592C352.687 312.592,352.715 312.592,352.742 312.592L354.055 312.319L354.055 318.83L352.523 319.131C352.277 319.186,352.085 319.46,352.085 319.679L352.085 321.977C352.085 322.278,352.332 322.524,352.633 322.524C352.687 322.524,352.715 322.524,352.742 322.524L354.055 322.25L354.055 328.133L355.15 328.133L355.15 322.004L358.652 321.293L358.652 326.847L359.774 326.847L359.774 321.074L361.278 320.8C361.497 320.746,361.689 320.472,361.689 320.253L361.689 317.928C361.689 317.599,361.47 317.353,361.142 317.353C361.114 317.353,361.114 317.353,361.059 317.353L359.774 317.627L359.774 311.142M355.15 312.072L358.652 311.388L358.652 317.873L355.15 318.612"/></g></g><g class="vf-stavenote" id="vf-auto16348"><g class="vf-notehead" id="vf-auto16352" pointer-events="bounding-box"><path stroke="none" d="M393.146 316.685C393.146 318.426,394.409 320.391,397.666 320.391C401.878 320.391,406.287 316.938,406.287 313.371C406.287 310.985,404.265 309.665,401.766 309.665C397.835 309.665,393.146 312.978,393.146 316.685"/></g></g><g class="vf-stavenote" id="vf-auto16354"><g class="vf-notehead" id="vf-auto16358" pointer-events="bounding-box"><path stroke="none" d="M422.276 316.685C422.276 318.426,423.54 320.391,426.797 320.391C431.009 320.391,435.418 316.938,435.418 313.371C435.418 310.985,433.396 309.665,430.897 309.665C426.966 309.665,422.276 312.978,422.276 316.685"/><path stroke="none" d="M419.194 311.881C418.975 310.349,418.018 308.899,416.02 308.899C414.05 308.899,412.901 310.103,412.71 310.349L412.874 297.708C412.874 297.38,412.628 297.161,412.299 297.161L411.834 297.161C411.533 297.161,411.287 297.38,411.287 297.708L411.479 321.375C411.479 321.703,411.725 321.922,412.026 321.922C412.108 321.922,412.272 321.895,412.354 321.867C412.518 321.785,415.063 320.527,417.197 318.119C418.702 316.423,419.276 314.48,419.276 312.866C419.276 312.51,419.249 312.209,419.194 311.881M416.485 313.413C416.485 314.015,416.321 315.821,415.336 317.326C414.68 318.338,413.339 319.405,412.6 320.007L412.71 312.319C412.792 311.963,413.366 310.814,414.953 310.814C416.376 310.814,416.485 312.155,416.485 313.003C416.485 313.194,416.485 313.304,416.485 313.413"/></g></g><g class="vf-stavenote" id="vf-auto16362"><g class="vf-notehead" id="vf-auto16366" pointer-events="bounding-box"><path stroke="none" d="M449.611 316.685C449.611 318.426,450.874 320.391,454.132 320.391C458.344 320.391,462.752 316.938,462.752 313.371C462.752 310.985,460.73 309.665,458.231 309.665C454.3 309.665,449.611 312.978,449.611 316.685"/></g></g><g class="vf-stem" id="vf-auto16320" pointer-events="bounding-box"><path stroke-width="1.5" fill="none" d="M284.652 313L284.652 280.75"/></g><g class="vf-stem" id="vf-auto16328" pointer-events="bounding-box"><path stroke-width="1.5" fill="none" d="M315.494 313L315.494 280.75"/></g><g class="vf-beam" id="vf-auto16333"><path stroke="none" d="M283.902 280L283.902 285L315.744 285L315.744 280Z"/></g><g class="vf-stem" id="vf-auto16335" pointer-events="bounding-box"><path stroke-width="1.5" fill="none" d="M346.335 313L346.335 279.875"/></g><g class="vf-stem" id="vf-auto16341" pointer-events="bounding-box"><path stroke-width="1.5" fill="none" d="M377.08 313L377.08 277.569"/></g><g class="vf-stem" id="vf-auto16349" pointer-events="bounding-box"><path stroke-width="1.5" fill="none" d="M405.537 313L405.537 275.435"/></g><g class="vf-stem" id="vf-auto16355" pointer-events="bounding-box"><path stroke-width="1.5" fill="none" d="M434.668 313L434.668 273.25"/></g><g class="vf-stem" id="vf-auto16363" pointer-events="bounding-box"><path stroke-width="1.5" fill="none" d="M462.002 313L462.002 271.2"/></g><g class="vf-beam" id="vf-auto16368"><path stroke="none" d="M345.585 279.181L345.585 284.181L462.252 275.506L462.252 270.506Z"/><path stroke="none" d="M345.585 286.681L345.585 291.681L462.252 283.006L462.252 278.006Z"/><path stroke="none" d="M433.918 287.556L433.918 292.556L462.252 290.506L462.252 285.506Z"/></g><text stroke="none" x="562.5" y="300">softmax: 5</text><g class="vf-stave" id="vf-auto16440" stroke-width="1" fill="#999999" stroke="#999999"><path fill="none" d="M100 390L473.132 390"/><path fill="none" d="M100 400L473.132 400"/><path fill="none" d="M100 410L473.132 410"/><path fill="none" d="M100 420L473.132 420"/><path fill="none" d="M100 430L473.132 430"/></g><g class="vf-stavebarline" id="vf-auto16441"/><g class="vf-stavebarline" id="vf-auto16442"><rect x="473.132" y="389.5" width="1" height="41" stroke="none"/></g><g class="vf-clef" id="vf-auto16443"><path stroke="none" d="M125.503 421.76C125.503 424.345,124.464 427.032,121.854 428.071C121.093 423.712,120.105 417.908,119.852 416.286C123.146 416.286,125.503 418.516,125.503 421.76M120.333 428.527C119.598 428.654,118.914 428.73,118.204 428.73C112.983 428.73,108.548 425.08,108.548 419.581C108.548 415.12,111.691 411.141,114.884 408.379C115.518 407.821,116.101 407.314,116.633 406.757C116.962 408.734,117.216 410.457,117.469 411.952C114.149 412.941,111.894 416.438,111.894 419.86C111.894 422.419,113.896 425.917,116.836 425.917C117.114 425.917,117.444 425.79,117.444 425.461C117.444 425.131,117.089 424.954,116.633 424.65C115.214 423.762,114.428 422.825,114.428 421.025C114.428 418.82,116.05 417.021,118.204 416.514M117.114 390.993C117.444 389.548,119.117 385.721,121.017 385.721C121.575 385.721,122.437 387.495,122.437 390.004C122.437 393.806,119.623 396.67,117.114 399.128C116.886 397.684,116.709 396.264,116.709 394.718C116.709 393.375,116.836 392.133,117.114 390.993M109.461 439.729C109.461 442.137,111.311 445.305,116.253 445.305C117.951 445.305,119.446 444.874,120.764 444.063C122.741 442.669,123.248 440.261,123.248 437.98C123.248 436.536,123.02 434.914,122.665 432.836C122.563 432.101,122.335 431.011,122.107 429.566C125.681 428.4,128.367 424.675,128.367 420.924C128.367 415.424,124.464 411.699,119.117 411.699C118.762 409.494,118.382 407.34,118.078 405.312C121.93 401.257,124.591 396.695,124.591 390.891C124.591 387.571,123.577 384.859,122.994 383.567C122.107 381.691,121.068 380.424,120.409 380.424C120.156 380.424,119.015 380.855,117.799 382.274C115.467 385.062,114.808 389.726,114.808 392.792C114.808 394.769,115.011 396.543,115.619 400.623C115.594 400.674,113.693 402.6,112.907 403.234C109.587 406.326,105 410.736,105 418.035C105 424.878,110.956 430.225,117.748 430.225C118.787 430.225,119.776 430.124,120.612 429.972C121.322 433.469,121.727 436.029,121.727 437.98C121.727 441.757,119.776 443.784,116.101 443.784C115.214 443.784,114.453 443.582,114.377 443.582C114.352 443.556,114.276 443.505,114.276 443.48C114.276 443.404,114.352 443.379,114.453 443.328C116.177 443.075,117.875 441.63,117.875 439.273C117.875 437.322,116.379 435.243,113.642 435.243C111.083 435.243,109.461 437.322,109.461 439.729"/></g><g class="vf-timesignature" id="vf-auto16444"><path stroke="none" d="M145.754 392.313C145.754 392.313,145.925 394.002,145.925 395.838C145.925 395.985,145.925 396.157,145.925 396.304C145.901 398.262,145.754 400.588,145.754 400.588C145.754 400.588,145.754 400.636,145.754 400.71C145.754 400.857,145.778 401.126,145.999 401.175C146.317 401.224,147.051 401.42,147.223 401.444C147.296 401.444,147.345 401.444,147.419 401.444C147.541 401.444,147.688 401.42,147.761 401.2C147.933 400.734,148.324 398.898,150.552 398.898C153.049 398.898,153.514 401.053,153.514 402.742C153.514 404.504,152.951 407.05,150.625 407.148C150.503 407.148,150.43 407.148,150.332 407.148C149.524 407.148,149.059 407.05,148.863 406.903C148.741 406.879,148.667 406.756,148.667 406.708C148.667 406.585,148.716 406.512,148.814 406.463C149.132 406.242,150.234 405.851,150.234 404.113C150.234 402.399,149.034 401.738,147.663 401.738C146.268 401.738,145.338 402.987,145.338 404.186C145.338 405.386,145.681 406.732,147.517 407.785C148.398 408.274,149.671 408.592,150.968 408.592C152.755 408.592,154.714 408.029,155.962 406.732C157.113 405.581,157.553 404.088,157.553 402.668C157.553 400.783,156.721 398.947,155.399 398.066C154.518 397.454,153.025 396.964,151.433 396.964C150.258 396.964,149.034 397.258,148.006 397.944C147.982 397.993,147.908 397.993,147.859 397.993C147.737 397.993,147.614 397.895,147.614 397.748L147.614 395.52C147.614 395.3,147.786 395.128,148.006 395.128L148.031 395.128C148.569 395.177,149.744 395.3,150.968 395.3C152.021 395.3,153.122 395.202,153.906 394.884C155.546 394.223,156.109 392.925,156.403 392.166C156.427 392.068,156.476 391.922,156.476 391.824C156.476 391.53,156.28 391.334,155.84 391.334C155.693 391.334,155.546 391.359,155.35 391.408C153.612 391.824,152.266 391.971,150.968 391.971C149.695 391.971,148.471 391.824,146.953 391.603C146.953 391.603,146.782 391.579,146.537 391.579C146.17 391.579,145.754 391.677,145.754 392.166C145.754 392.24,145.754 392.289,145.754 392.313"/><path stroke="none" d="M150.711 424.48L150.711 427.075L147.774 427.075C147.529 427.075,147.284 427.295,147.284 427.589L147.284 428.25C147.284 428.519,147.529 428.739,147.774 428.739L158.447 428.739C158.741 428.739,158.936 428.519,158.936 428.25L158.936 427.589C158.936 427.295,158.741 427.075,158.447 427.075L155.289 427.075L155.289 424.48L158.447 424.48C158.741 424.48,158.936 424.235,158.936 423.941L158.936 423.28C158.936 423.036,158.741 422.791,158.447 422.791L155.289 422.791L155.289 417.185C155.289 416.964,155.167 416.793,155.044 416.72L154.603 416.499C154.53 416.475,154.506 416.475,154.432 416.475C154.408 416.475,154.408 416.475,154.359 416.475C154.261 416.475,154.114 416.499,154.04 416.573L150.834 419.51C150.736 419.608,150.711 419.755,150.711 419.902L150.711 422.791L146.599 422.791C146.599 422.791,150.564 418.556,154.726 412.974C154.848 412.803,154.897 412.632,154.897 412.485C154.897 412.313,154.824 412.166,154.799 412.142L154.016 411.359C153.918 411.285,153.796 411.212,153.649 411.212C153.453 411.212,148.679 411.212,148.41 411.212C148.165 411.212,147.994 411.432,147.945 411.652C147.945 411.652,147.774 414.247,146.868 417.111C145.938 419.976,144.885 421.738,143.955 423.036C143.955 423.036,143.857 423.207,143.857 423.427C143.857 423.501,143.857 423.55,143.906 423.623C144.004 423.868,144.248 424.26,144.248 424.26C144.248 424.26,144.322 424.48,144.64 424.48"/></g><g class="vf-stavenote" id="vf-auto16379"><g class="vf-stem" id="vf-auto16380" pointer-events="bounding-box"><path stroke-width="1.5" fill="none" d="M186.8 407.65L186.8 440"/></g><g class="vf-notehead" id="vf-auto16382" pointer-events="bounding-box"><path stroke="none" d="M194.671 399.665C190.74 399.665,186.05 402.95,186.05 406.685C186.05 408.426,187.314 410.391,190.571 410.391C194.783 410.391,199.192 406.938,199.192 403.371C199.192 400.985,197.17 399.665,194.671 399.665M193.576 406.769C193.463 406.853,190.487 408.482,189.083 408.482C187.735 408.482,187.454 407.387,187.454 407.022C187.454 405.337,191.498 403.343,191.666 403.259C191.835 403.175,194.699 401.574,196.159 401.574C197.142 401.574,197.788 402.136,197.788 403.006C197.788 404.747,193.688 406.685,193.576 406.769"/><path stroke="none" d="M182.64 400.869C182.859 400.814,183.05 400.54,183.05 400.321L183.05 397.996C183.05 397.668,182.831 397.449,182.503 397.449C182.476 397.449,182.476 397.449,182.421 397.449L181.135 397.722L181.135 391.84L180.013 391.84L180.013 397.941L176.511 398.652L176.511 393.098L175.417 393.098L175.417 398.899L173.885 399.2C173.638 399.254,173.447 399.528,173.447 399.747L173.447 399.829L173.447 402.127L173.447 402.045C173.447 402.373,173.693 402.592,173.994 402.592C174.049 402.592,174.076 402.592,174.103 402.592L175.417 402.319L175.417 408.83L173.885 409.131C173.638 409.186,173.447 409.46,173.447 409.679L173.447 411.977C173.447 412.278,173.693 412.524,173.994 412.524C174.049 412.524,174.076 412.524,174.103 412.524L175.417 412.25L175.417 418.133L176.511 418.133L176.511 412.004L180.013 411.293L180.013 416.847L181.135 416.847L181.135 411.074L182.64 410.8C182.859 410.746,183.05 410.472,183.05 410.253L183.05 407.928C183.05 407.599,182.831 407.353,182.503 407.353C182.476 407.353,182.476 407.353,182.421 407.353L181.135 407.627L181.135 401.142M176.511 402.072L180.013 401.388L180.013 407.873L176.511 408.612"/></g></g><g class="vf-stavenote" id="vf-auto16385"><g class="vf-stem" id="vf-auto16386" pointer-events="bounding-box"><path stroke-width="1.5" fill="none" d="M255.314 413L255.314 380"/></g><g class="vf-notehead" id="vf-auto16388" pointer-events="bounding-box"><path stroke="none" d="M242.922 416.685C242.922 418.426,244.186 420.391,247.443 420.391C251.655 420.391,256.064 416.938,256.064 413.371C256.064 410.985,254.042 409.665,251.543 409.665C247.612 409.665,242.922 412.978,242.922 416.685"/></g></g><g class="vf-stavenote" id="vf-auto16389"><g class="vf-notehead" id="vf-auto16393" pointer-events="bounding-box"><path stroke="none" d="M278.806 416.685C278.806 418.426,280.07 420.391,283.327 420.391C287.539 420.391,291.948 416.938,291.948 413.371C291.948 410.985,289.926 409.665,287.427 409.665C283.496 409.665,278.806 412.978,278.806 416.685"/><path stroke="none" d="M275.724 411.854C275.505 410.321,274.548 408.899,272.55 408.899C270.58 408.899,269.431 410.075,269.24 410.321L269.404 397.708C269.404 397.38,269.158 397.161,268.829 397.161L268.364 397.161C268.063 397.161,267.817 397.38,267.817 397.708L267.927 409.555C267.434 409.172,266.777 408.899,265.929 408.899C263.959 408.899,262.81 410.103,262.619 410.349L262.783 397.708C262.783 397.38,262.537 397.161,262.208 397.161L261.743 397.161C261.442 397.161,261.196 397.38,261.196 397.708L261.387 421.375C261.387 421.703,261.634 421.922,261.935 421.922C262.017 421.922,262.181 421.867,262.263 421.813C262.427 421.731,264.972 420.527,267.106 418.119C267.379 417.791,267.735 417.244,267.981 416.888L268.009 421.375C268.009 421.703,268.255 421.922,268.556 421.922C268.638 421.922,268.802 421.867,268.884 421.813C269.048 421.731,271.593 420.472,273.727 418.064C275.232 416.368,275.806 414.453,275.806 412.839C275.806 412.483,275.779 412.155,275.724 411.854M266.394 413.413C266.394 414.015,266.23 415.821,265.245 417.326C264.589 418.338,263.248 419.405,262.509 420.007L262.619 412.319C262.701 411.963,263.275 410.814,264.862 410.814C266.285 410.814,266.394 412.155,266.394 413.003C266.394 413.194,266.394 413.304,266.394 413.413M273.015 413.413C273.015 414.015,272.851 415.821,271.866 417.326C271.21 418.338,269.869 419.405,269.103 420.007L269.24 412.319C269.322 411.963,269.896 410.814,271.483 410.814C272.906 410.814,273.015 412.155,273.015 413.003C273.015 413.194,273.015 413.304,273.015 413.413"/></g></g><g class="vf-stavenote" id="vf-auto16397"><g class="vf-notehead" id="vf-auto16401" pointer-events="bounding-box"><path stroke="none" d="M307.31 416.685C307.31 418.426,308.573 420.391,311.831 420.391C316.043 420.391,320.451 416.938,320.451 413.371C320.451 410.985,318.429 409.665,315.93 409.665C311.999 409.665,307.31 412.978,307.31 416.685"/></g></g><g class="vf-stavenote" id="vf-auto16404"><g class="vf-notehead" id="vf-auto16408" pointer-events="bounding-box"><path stroke="none" d="M335.813 416.685C335.813 418.426,337.077 420.391,340.334 420.391C344.546 420.391,348.955 416.938,348.955 413.371C348.955 410.985,346.933 409.665,344.434 409.665C340.503 409.665,335.813 412.978,335.813 416.685"/></g></g><g class="vf-stavenote" id="vf-auto16410"><g class="vf-notehead" id="vf-auto16414" pointer-events="bounding-box"><path stroke="none" d="M366.558 416.685C366.558 418.426,367.822 420.391,371.079 420.391C375.291 420.391,379.7 416.938,379.7 413.371C379.7 410.985,377.678 409.665,375.179 409.665C371.248 409.665,366.558 412.978,366.558 416.685"/><path stroke="none" d="M363.148 410.869C363.367 410.814,363.558 410.54,363.558 410.321L363.558 407.996C363.558 407.668,363.339 407.449,363.011 407.449C362.984 407.449,362.984 407.449,362.929 407.449L361.643 407.722L361.643 401.84L360.521 401.84L360.521 407.941L357.019 408.652L357.019 403.098L355.925 403.098L355.925 408.899L354.393 409.2C354.146 409.254,353.955 409.528,353.955 409.747L353.955 409.829L353.955 412.127L353.955 412.045C353.955 412.373,354.201 412.592,354.502 412.592C354.557 412.592,354.584 412.592,354.611 412.592L355.925 412.319L355.925 418.83L354.393 419.131C354.146 419.186,353.955 419.46,353.955 419.679L353.955 421.977C353.955 422.278,354.201 422.524,354.502 422.524C354.557 422.524,354.584 422.524,354.611 422.524L355.925 422.25L355.925 428.133L357.019 428.133L357.019 422.004L360.521 421.293L360.521 426.847L361.643 426.847L361.643 421.074L363.148 420.8C363.367 420.746,363.558 420.472,363.558 420.253L363.558 417.928C363.558 417.599,363.339 417.353,363.011 417.353C362.984 417.353,362.984 417.353,362.929 417.353L361.643 417.627L361.643 411.142M357.019 412.072L360.521 411.388L360.521 417.873L357.019 418.612"/></g></g><g class="vf-stavenote" id="vf-auto16418"><g class="vf-notehead" id="vf-auto16422" pointer-events="bounding-box"><path stroke="none" d="M391.962 416.685C391.962 418.426,393.226 420.391,396.483 420.391C400.695 420.391,405.103 416.938,405.103 413.371C405.103 410.985,403.082 409.665,400.583 409.665C396.651 409.665,391.962 412.978,391.962 416.685"/></g></g><g class="vf-stavenote" id="vf-auto16424"><g class="vf-notehead" id="vf-auto16428" pointer-events="bounding-box"><path stroke="none" d="M421.093 416.685C421.093 418.426,422.356 420.391,425.613 420.391C429.825 420.391,434.234 416.938,434.234 413.371C434.234 410.985,432.212 409.665,429.713 409.665C425.782 409.665,421.093 412.978,421.093 416.685"/><path stroke="none" d="M418.011 411.881C417.792 410.349,416.834 408.899,414.837 408.899C412.867 408.899,411.718 410.103,411.526 410.349L411.69 397.708C411.69 397.38,411.444 397.161,411.116 397.161L410.651 397.161C410.35 397.161,410.103 397.38,410.103 397.708L410.295 421.375C410.295 421.703,410.541 421.922,410.842 421.922C410.924 421.922,411.088 421.895,411.171 421.867C411.335 421.785,413.879 420.527,416.013 418.119C417.518 416.423,418.093 414.48,418.093 412.866C418.093 412.51,418.065 412.209,418.011 411.881M415.302 413.413C415.302 414.015,415.138 415.821,414.153 417.326C413.496 418.338,412.155 419.405,411.417 420.007L411.526 412.319C411.608 411.963,412.183 410.814,413.77 410.814C415.192 410.814,415.302 412.155,415.302 413.003C415.302 413.194,415.302 413.304,415.302 413.413"/></g></g><g class="vf-stavenote" id="vf-auto16432"><g class="vf-notehead" id="vf-auto16436" pointer-events="bounding-box"><path stroke="none" d="M445.075 416.685C445.075 418.426,446.339 420.391,449.596 420.391C453.808 420.391,458.217 416.938,458.217 413.371C458.217 410.985,456.195 409.665,453.696 409.665C449.765 409.665,445.075 412.978,445.075 416.685"/></g></g><g class="vf-stem" id="vf-auto16390" pointer-events="bounding-box"><path stroke-width="1.5" fill="none" d="M291.198 413L291.198 380.75"/></g><g class="vf-stem" id="vf-auto16398" pointer-events="bounding-box"><path stroke-width="1.5" fill="none" d="M319.701 413L319.701 380.75"/></g><g class="vf-beam" id="vf-auto16403"><path stroke="none" d="M290.448 380L290.448 385L319.951 385L319.951 380Z"/></g><g class="vf-stem" id="vf-auto16405" pointer-events="bounding-box"><path stroke-width="1.5" fill="none" d="M348.205 413L348.205 379.646"/></g><g class="vf-stem" id="vf-auto16411" pointer-events="bounding-box"><path stroke-width="1.5" fill="none" d="M378.95 413L378.95 377.34"/></g><g class="vf-stem" id="vf-auto16419" pointer-events="bounding-box"><path stroke-width="1.5" fill="none" d="M404.353 413L404.353 375.435"/></g><g class="vf-stem" id="vf-auto16425" pointer-events="bounding-box"><path stroke-width="1.5" fill="none" d="M433.484 413L433.484 373.25"/></g><g class="vf-stem" id="vf-auto16433" pointer-events="bounding-box"><path stroke-width="1.5" fill="none" d="M457.467 413L457.467 371.451"/></g><g class="vf-beam" id="vf-auto16438"><path stroke="none" d="M347.455 378.952L347.455 383.952L457.717 375.758L457.717 370.758Z"/><path stroke="none" d="M347.455 386.452L347.455 391.452L457.717 383.258L457.717 378.258Z"/><path stroke="none" d="M432.734 387.556L432.734 392.556L457.717 390.758L457.717 385.758Z"/></g><text stroke="none" x="562.5" y="400">softmax: 10</text><g class="vf-stave" id="vf-auto16510" stroke-width="1" fill="#999999" stroke="#999999"><path fill="none" d="M100 490L473.132 490"/><path fill="none" d="M100 500L473.132 500"/><path fill="none" d="M100 510L473.132 510"/><path fill="none" d="M100 520L473.132 520"/><path fill="none" d="M100 530L473.132 530"/></g><g class="vf-stavebarline" id="vf-auto16511"/><g class="vf-stavebarline" id="vf-auto16512"><rect x="473.132" y="489.5" width="1" height="41" stroke="none"/></g><g class="vf-clef" id="vf-auto16513"><path stroke="none" d="M125.503 521.76C125.503 524.345,124.464 527.032,121.854 528.071C121.093 523.712,120.105 517.908,119.852 516.286C123.146 516.286,125.503 518.516,125.503 521.76M120.333 528.527C119.598 528.654,118.914 528.73,118.204 528.73C112.983 528.73,108.548 525.08,108.548 519.581C108.548 515.12,111.691 511.141,114.884 508.379C115.518 507.821,116.101 507.314,116.633 506.757C116.962 508.734,117.216 510.457,117.469 511.952C114.149 512.941,111.894 516.438,111.894 519.86C111.894 522.419,113.896 525.917,116.836 525.917C117.114 525.917,117.444 525.79,117.444 525.461C117.444 525.131,117.089 524.954,116.633 524.65C115.214 523.762,114.428 522.825,114.428 521.025C114.428 518.82,116.05 517.021,118.204 516.514M117.114 490.993C117.444 489.548,119.117 485.721,121.017 485.721C121.575 485.721,122.437 487.495,122.437 490.004C122.437 493.806,119.623 496.67,117.114 499.128C116.886 497.684,116.709 496.264,116.709 494.718C116.709 493.375,116.836 492.133,117.114 490.993M109.461 539.729C109.461 542.137,111.311 545.305,116.253 545.305C117.951 545.305,119.446 544.874,120.764 544.063C122.741 542.669,123.248 540.261,123.248 537.98C123.248 536.536,123.02 534.914,122.665 532.836C122.563 532.101,122.335 531.011,122.107 529.566C125.681 528.4,128.367 524.675,128.367 520.924C128.367 515.424,124.464 511.699,119.117 511.699C118.762 509.494,118.382 507.34,118.078 505.312C121.93 501.257,124.591 496.695,124.591 490.891C124.591 487.571,123.577 484.859,122.994 483.567C122.107 481.691,121.068 480.424,120.409 480.424C120.156 480.424,119.015 480.855,117.799 482.274C115.467 485.062,114.808 489.726,114.808 492.792C114.808 494.769,115.011 496.543,115.619 500.623C115.594 500.674,113.693 502.6,112.907 503.234C109.587 506.326,105 510.736,105 518.035C105 524.878,110.956 530.225,117.748 530.225C118.787 530.225,119.776 530.124,120.612 529.972C121.322 533.469,121.727 536.029,121.727 537.98C121.727 541.757,119.776 543.784,116.101 543.784C115.214 543.784,114.453 543.582,114.377 543.582C114.352 543.556,114.276 543.505,114.276 543.48C114.276 543.404,114.352 543.379,114.453 543.328C116.177 543.075,117.875 541.63,117.875 539.273C117.875 537.322,116.379 535.243,113.642 535.243C111.083 535.243,109.461 537.322,109.461 539.729"/></g><g class="vf-timesignature" id="vf-auto16514"><path stroke="none" d="M145.754 492.313C145.754 492.313,145.925 494.002,145.925 495.838C145.925 495.985,145.925 496.157,145.925 496.304C145.901 498.262,145.754 500.588,145.754 500.588C145.754 500.588,145.754 500.636,145.754 500.71C145.754 500.857,145.778 501.126,145.999 501.175C146.317 501.224,147.051 501.42,147.223 501.444C147.296 501.444,147.345 501.444,147.419 501.444C147.541 501.444,147.688 501.42,147.761 501.2C147.933 500.734,148.324 498.898,150.552 498.898C153.049 498.898,153.514 501.053,153.514 502.742C153.514 504.504,152.951 507.05,150.625 507.148C150.503 507.148,150.43 507.148,150.332 507.148C149.524 507.148,149.059 507.05,148.863 506.903C148.741 506.879,148.667 506.756,148.667 506.708C148.667 506.585,148.716 506.512,148.814 506.463C149.132 506.242,150.234 505.851,150.234 504.113C150.234 502.399,149.034 501.738,147.663 501.738C146.268 501.738,145.338 502.987,145.338 504.186C145.338 505.386,145.681 506.732,147.517 507.785C148.398 508.274,149.671 508.592,150.968 508.592C152.755 508.592,154.714 508.029,155.962 506.732C157.113 505.581,157.553 504.088,157.553 502.668C157.553 500.783,156.721 498.947,155.399 498.066C154.518 497.454,153.025 496.964,151.433 496.964C150.258 496.964,149.034 497.258,148.006 497.944C147.982 497.993,147.908 497.993,147.859 497.993C147.737 497.993,147.614 497.895,147.614 497.748L147.614 495.52C147.614 495.3,147.786 495.128,148.006 495.128L148.031 495.128C148.569 495.177,149.744 495.3,150.968 495.3C152.021 495.3,153.122 495.202,153.906 494.884C155.546 494.223,156.109 492.925,156.403 492.166C156.427 492.068,156.476 491.922,156.476 491.824C156.476 491.53,156.28 491.334,155.84 491.334C155.693 491.334,155.546 491.359,155.35 491.408C153.612 491.824,152.266 491.971,150.968 491.971C149.695 491.971,148.471 491.824,146.953 491.603C146.953 491.603,146.782 491.579,146.537 491.579C146.17 491.579,145.754 491.677,145.754 492.166C145.754 492.24,145.754 492.289,145.754 492.313"/><path stroke="none" d="M150.711 524.48L150.711 527.075L147.774 527.075C147.529 527.075,147.284 527.295,147.284 527.589L147.284 528.25C147.284 528.519,147.529 528.739,147.774 528.739L158.447 528.739C158.741 528.739,158.936 528.519,158.936 528.25L158.936 527.589C158.936 527.295,158.741 527.075,158.447 527.075L155.289 527.075L155.289 524.48L158.447 524.48C158.741 524.48,158.936 524.235,158.936 523.941L158.936 523.28C158.936 523.036,158.741 522.791,158.447 522.791L155.289 522.791L155.289 517.185C155.289 516.964,155.167 516.793,155.044 516.72L154.603 516.499C154.53 516.475,154.506 516.475,154.432 516.475C154.408 516.475,154.408 516.475,154.359 516.475C154.261 516.475,154.114 516.499,154.04 516.573L150.834 519.51C150.736 519.608,150.711 519.755,150.711 519.902L150.711 522.791L146.599 522.791C146.599 522.791,150.564 518.556,154.726 512.974C154.848 512.803,154.897 512.632,154.897 512.485C154.897 512.313,154.824 512.166,154.799 512.142L154.016 511.359C153.918 511.285,153.796 511.212,153.649 511.212C153.453 511.212,148.679 511.212,148.41 511.212C148.165 511.212,147.994 511.432,147.945 511.652C147.945 511.652,147.774 514.247,146.868 517.111C145.938 519.976,144.885 521.738,143.955 523.036C143.955 523.036,143.857 523.207,143.857 523.427C143.857 523.501,143.857 523.55,143.906 523.623C144.004 523.868,144.248 524.26,144.248 524.26C144.248 524.26,144.322 524.48,144.64 524.48"/></g><g class="vf-stavenote" id="vf-auto16449"><g class="vf-stem" id="vf-auto16450" pointer-events="bounding-box"><path stroke-width="1.5" fill="none" d="M186.8 507.65L186.8 540"/></g><g class="vf-notehead" id="vf-auto16452" pointer-events="bounding-box"><path stroke="none" d="M194.671 499.665C190.74 499.665,186.05 502.95,186.05 506.685C186.05 508.426,187.314 510.391,190.571 510.391C194.783 510.391,199.192 506.938,199.192 503.371C199.192 500.985,197.17 499.665,194.671 499.665M193.576 506.769C193.463 506.853,190.487 508.482,189.083 508.482C187.735 508.482,187.454 507.387,187.454 507.022C187.454 505.337,191.498 503.343,191.666 503.259C191.835 503.175,194.699 501.574,196.159 501.574C197.142 501.574,197.788 502.136,197.788 503.006C197.788 504.747,193.688 506.685,193.576 506.769"/><path stroke="none" d="M182.64 500.869C182.859 500.814,183.05 500.54,183.05 500.321L183.05 497.996C183.05 497.668,182.831 497.449,182.503 497.449C182.476 497.449,182.476 497.449,182.421 497.449L181.135 497.722L181.135 491.84L180.013 491.84L180.013 497.941L176.511 498.652L176.511 493.098L175.417 493.098L175.417 498.899L173.885 499.2C173.638 499.254,173.447 499.528,173.447 499.747L173.447 499.829L173.447 502.127L173.447 502.045C173.447 502.373,173.693 502.592,173.994 502.592C174.049 502.592,174.076 502.592,174.103 502.592L175.417 502.319L175.417 508.83L173.885 509.131C173.638 509.186,173.447 509.46,173.447 509.679L173.447 511.977C173.447 512.278,173.693 512.524,173.994 512.524C174.049 512.524,174.076 512.524,174.103 512.524L175.417 512.25L175.417 518.133L176.511 518.133L176.511 512.004L180.013 511.293L180.013 516.847L181.135 516.847L181.135 511.074L182.64 510.8C182.859 510.746,183.05 510.472,183.05 510.253L183.05 507.928C183.05 507.599,182.831 507.353,182.503 507.353C182.476 507.353,182.476 507.353,182.421 507.353L181.135 507.627L181.135 501.142M176.511 502.072L180.013 501.388L180.013 507.873L176.511 508.612"/></g></g><g class="vf-stavenote" id="vf-auto16455"><g class="vf-stem" id="vf-auto16456" pointer-events="bounding-box"><path stroke-width="1.5" fill="none" d="M261.321 513L261.321 480"/></g><g class="vf-notehead" id="vf-auto16458" pointer-events="bounding-box"><path stroke="none" d="M248.93 516.685C248.93 518.426,250.194 520.391,253.451 520.391C257.663 520.391,262.071 516.938,262.071 513.371C262.071 510.985,260.05 509.665,257.551 509.665C253.619 509.665,248.93 512.978,248.93 516.685"/></g></g><g class="vf-stavenote" id="vf-auto16459"><g class="vf-notehead" id="vf-auto16463" pointer-events="bounding-box"><path stroke="none" d="M285.514 516.685C285.514 518.426,286.778 520.391,290.035 520.391C294.247 520.391,298.656 516.938,298.656 513.371C298.656 510.985,296.634 509.665,294.135 509.665C290.204 509.665,285.514 512.978,285.514 516.685"/><path stroke="none" d="M282.432 511.854C282.213 510.321,281.256 508.899,279.258 508.899C277.288 508.899,276.139 510.075,275.948 510.321L276.112 497.708C276.112 497.38,275.866 497.161,275.537 497.161L275.072 497.161C274.771 497.161,274.525 497.38,274.525 497.708L274.635 509.555C274.142 509.172,273.485 508.899,272.637 508.899C270.667 508.899,269.518 510.103,269.327 510.349L269.491 497.708C269.491 497.38,269.245 497.161,268.916 497.161L268.451 497.161C268.15 497.161,267.904 497.38,267.904 497.708L268.095 521.375C268.095 521.703,268.342 521.922,268.643 521.922C268.725 521.922,268.889 521.867,268.971 521.813C269.135 521.731,271.68 520.527,273.814 518.119C274.087 517.791,274.443 517.244,274.689 516.888L274.717 521.375C274.717 521.703,274.963 521.922,275.264 521.922C275.346 521.922,275.51 521.867,275.592 521.813C275.756 521.731,278.301 520.472,280.435 518.064C281.94 516.368,282.514 514.453,282.514 512.839C282.514 512.483,282.487 512.155,282.432 511.854M273.102 513.413C273.102 514.015,272.938 515.821,271.953 517.326C271.297 518.338,269.956 519.405,269.217 520.007L269.327 512.319C269.409 511.963,269.983 510.814,271.57 510.814C272.993 510.814,273.102 512.155,273.102 513.003C273.102 513.194,273.102 513.304,273.102 513.413M279.723 513.413C279.723 514.015,279.559 515.821,278.574 517.326C277.918 518.338,276.577 519.405,275.811 520.007L275.948 512.319C276.03 511.963,276.604 510.814,278.191 510.814C279.614 510.814,279.723 512.155,279.723 513.003C279.723 513.194,279.723 513.304,279.723 513.413"/></g></g><g class="vf-stavenote" id="vf-auto16467"><g class="vf-notehead" id="vf-auto16471" pointer-events="bounding-box"><path stroke="none" d="M313.419 516.685C313.419 518.426,314.683 520.391,317.94 520.391C322.152 520.391,326.561 516.938,326.561 513.371C326.561 510.985,324.539 509.665,322.04 509.665C318.109 509.665,313.419 512.978,313.419 516.685"/></g></g><g class="vf-stavenote" id="vf-auto16474"><g class="vf-notehead" id="vf-auto16478" pointer-events="bounding-box"><path stroke="none" d="M341.324 516.685C341.324 518.426,342.588 520.391,345.845 520.391C350.057 520.391,354.466 516.938,354.466 513.371C354.466 510.985,352.444 509.665,349.945 509.665C346.014 509.665,341.324 512.978,341.324 516.685"/></g></g><g class="vf-stavenote" id="vf-auto16480"><g class="vf-notehead" id="vf-auto16484" pointer-events="bounding-box"><path stroke="none" d="M372.069 516.685C372.069 518.426,373.333 520.391,376.59 520.391C380.802 520.391,385.211 516.938,385.211 513.371C385.211 510.985,383.189 509.665,380.69 509.665C376.759 509.665,372.069 512.978,372.069 516.685"/><path stroke="none" d="M368.659 510.869C368.878 510.814,369.069 510.54,369.069 510.321L369.069 507.996C369.069 507.668,368.85 507.449,368.522 507.449C368.495 507.449,368.495 507.449,368.44 507.449L367.154 507.722L367.154 501.84L366.032 501.84L366.032 507.941L362.53 508.652L362.53 503.098L361.436 503.098L361.436 508.899L359.904 509.2C359.657 509.254,359.466 509.528,359.466 509.747L359.466 509.829L359.466 512.127L359.466 512.045C359.466 512.373,359.712 512.592,360.013 512.592C360.068 512.592,360.095 512.592,360.123 512.592L361.436 512.319L361.436 518.83L359.904 519.131C359.657 519.186,359.466 519.46,359.466 519.679L359.466 521.977C359.466 522.278,359.712 522.524,360.013 522.524C360.068 522.524,360.095 522.524,360.123 522.524L361.436 522.25L361.436 528.133L362.53 528.133L362.53 522.004L366.032 521.293L366.032 526.847L367.154 526.847L367.154 521.074L368.659 520.8C368.878 520.746,369.069 520.472,369.069 520.253L369.069 517.928C369.069 517.599,368.85 517.353,368.522 517.353C368.495 517.353,368.495 517.353,368.44 517.353L367.154 517.627L367.154 511.142M362.53 512.072L366.032 511.388L366.032 517.873L362.53 518.612"/></g></g><g class="vf-stavenote" id="vf-auto16488"><g class="vf-notehead" id="vf-auto16492" pointer-events="bounding-box"><path stroke="none" d="M396.441 516.685C396.441 518.426,397.704 520.391,400.961 520.391C405.173 520.391,409.582 516.938,409.582 513.371C409.582 510.985,407.56 509.665,405.061 509.665C401.13 509.665,396.441 512.978,396.441 516.685"/></g></g><g class="vf-stavenote" id="vf-auto16494"><g class="vf-notehead" id="vf-auto16498" pointer-events="bounding-box"><path stroke="none" d="M425.571 516.685C425.571 518.426,426.835 520.391,430.092 520.391C434.304 520.391,438.713 516.938,438.713 513.371C438.713 510.985,436.691 509.665,434.192 509.665C430.261 509.665,425.571 512.978,425.571 516.685"/><path stroke="none" d="M422.489 511.881C422.27 510.349,421.313 508.899,419.315 508.899C417.345 508.899,416.196 510.103,416.005 510.349L416.169 497.708C416.169 497.38,415.923 497.161,415.594 497.161L415.129 497.161C414.828 497.161,414.582 497.38,414.582 497.708L414.774 521.375C414.774 521.703,415.02 521.922,415.321 521.922C415.403 521.922,415.567 521.895,415.649 521.867C415.813 521.785,418.358 520.527,420.492 518.119C421.997 516.423,422.571 514.48,422.571 512.866C422.571 512.51,422.544 512.209,422.489 511.881M419.78 513.413C419.78 514.015,419.616 515.821,418.631 517.326C417.975 518.338,416.634 519.405,415.895 520.007L416.005 512.319C416.087 511.963,416.661 510.814,418.248 510.814C419.671 510.814,419.78 512.155,419.78 513.003C419.78 513.194,419.78 513.304,419.78 513.413"/></g></g><g class="vf-stavenote" id="vf-auto16502"><g class="vf-notehead" id="vf-auto16506" pointer-events="bounding-box"><path stroke="none" d="M448.347 516.685C448.347 518.426,449.611 520.391,452.868 520.391C457.08 520.391,461.489 516.938,461.489 513.371C461.489 510.985,459.467 509.665,456.968 509.665C453.037 509.665,448.347 512.978,448.347 516.685"/></g></g><g class="vf-stem" id="vf-auto16460" pointer-events="bounding-box"><path stroke-width="1.5" fill="none" d="M297.906 513L297.906 480.75"/></g><g class="vf-stem" id="vf-auto16468" pointer-events="bounding-box"><path stroke-width="1.5" fill="none" d="M325.811 513L325.811 480.75"/></g><g class="vf-beam" id="vf-auto16473"><path stroke="none" d="M297.156 480L297.156 485L326.061 485L326.061 480Z"/></g><g class="vf-stem" id="vf-auto16475" pointer-events="bounding-box"><path stroke-width="1.5" fill="none" d="M353.716 513L353.716 479.569"/></g><g class="vf-stem" id="vf-auto16481" pointer-events="bounding-box"><path stroke-width="1.5" fill="none" d="M384.461 513L384.461 477.263"/></g><g class="vf-stem" id="vf-auto16489" pointer-events="bounding-box"><path stroke-width="1.5" fill="none" d="M408.832 513L408.832 475.435"/></g><g class="vf-stem" id="vf-auto16495" pointer-events="bounding-box"><path stroke-width="1.5" fill="none" d="M437.963 513L437.963 473.25"/></g><g class="vf-stem" id="vf-auto16503" pointer-events="bounding-box"><path stroke-width="1.5" fill="none" d="M460.739 513L460.739 471.542"/></g><g class="vf-beam" id="vf-auto16508"><path stroke="none" d="M352.966 478.875L352.966 483.875L460.989 475.848L460.989 470.848Z"/><path stroke="none" d="M352.966 486.375L352.966 491.375L460.989 483.348L460.989 478.348Z"/><path stroke="none" d="M437.213 487.556L437.213 492.556L460.989 490.848L460.989 485.848Z"/></g><text stroke="none" x="562.5" y="500">softmax: 15</text></svg>