<svg xmlns="http://www.w3.org/2000/svg" stroke-width="0.3" stroke-dasharray="none" fill="black" stroke="black" font-family="Arial, sans-serif" font-size="10pt" font-weight="normal" font-style="normal" width="700" height="150" viewBox="0 0 700 150" style="width: 700px; height: 150px; border: none;"><g class="vf-stave" id="vf-auto20957" stroke-width="1" fill="#999999" stroke="#999999"><path fill="none" d="M0 40L690 40"/><path fill="none" d="M0 50L690 50"/><path fill="none" d="M0 60L690 60"/><path fill="none" d="M0 70L690 70"/><path fill="none" d="M0 80L690 80"/></g><g class="vf-stavebarline" id="vf-auto20958"><rect y="39.5" width="1" height="41" stroke="none"/></g><g class="vf-stavebarline" id="vf-auto20959"><rect x="690" y="39.5" width="1" height="41" stroke="none"/></g><g class="vf-keysignature" id="vf-auto20960"><path stroke="none" d="M10.527 55.13C10.828 55.103,10.91 54.665,10.992 54.391C11.156 53.872,11.183 53.352,11.183 52.887C11.183 52.449,11.156 52.066,11.156 51.628C11.156 51.354,11.156 50.999,11.183 50.725C11.265 49.932,11.348 49.138,11.375 48.345L13.126 47.989C13.208 49.658,13.509 51.272,14.056 52.832C14.111 53.051,14.248 53.27,14.494 53.27C14.74 53.324,14.822 53.051,14.932 52.832C15.205 52.421,15.233 51.902,15.233 51.436C15.287 51.081,15.287 50.752,15.287 50.452C15.287 49.494,15.205 48.509,15.178 47.551L17.449 47.086C19.61 46.648,19.884 46.348,20.048 44.268C20.048 43.748,20.103 43.393,20.048 42.982C20.021 42.49,19.802 42.134,19.391 42.134L19.309 42.134C19.145 42.134,19.036 42.134,18.872 42.161C17.969 42.408,16.984 42.599,16.026 42.763L15.369 42.873C15.397 42.326,15.397 41.724,15.452 41.149C15.479 39.891,15.506 38.632,15.506 37.373C16.628 37.072,17.695 36.772,18.762 36.416C19.337 36.224,19.856 35.896,20.021 35.267C20.157 34.555,20.376 33.899,20.376 33.187C20.376 32.777,20.322 32.367,20.157 31.956C20.021 31.573,19.884 31.382,19.665 31.382L19.583 31.382C19.446 31.382,19.309 31.382,19.145 31.464C17.914 31.956,16.71 32.367,15.452 32.722L15.315 30.588C15.233 28.892,15.178 27.168,14.822 25.472C14.74 25.253,14.768 24.897,14.521 24.897L14.494 24.897L14.384 24.897C14.056 24.979,13.673 25.116,13.618 25.554L13.618 26.293C13.618 28.618,13.7 30.889,13.755 33.187L11.648 33.652C11.648 32.476,11.621 31.3,11.539 30.123C11.512 29.521,11.512 28.974,11.183 28.372C10.308 28.81,10.445 29.548,10.445 30.178C10.363 31.464,10.308 32.668,10.28 33.899C9.186 34.118,8.064 34.282,6.97 34.473C5.356 34.747,5.109 34.993,5.109 36.772C5 37.209,5.328 37.702,5.274 38.194C5.192 38.933,5.383 39.179,5.903 39.207C6.012 39.207,6.149 39.179,6.313 39.124C7.599 38.933,8.858 38.741,10.116 38.495L10.007 42.052C9.952 42.709,9.897 43.338,9.815 43.967C8.338 44.268,6.888 44.542,5.438 44.897C4.617 45.089,4.124 45.39,4.124 46.348C4.124 47.278,4.48 48.153,4.535 49.056C4.535 49.494,4.644 49.685,4.973 49.74C5.027 49.74,5.164 49.685,5.328 49.658C6.724 49.33,8.146 49.056,9.569 48.755C9.542 49.248,9.542 49.768,9.542 50.315C9.542 51.71,9.679 53.051,10.171 54.391C10.253 54.665,10.171 55.13,10.527 55.13M11.566 43.612C11.621 42.763,11.621 41.888,11.648 41.012C11.703 40.082,11.703 39.179,11.703 38.222C12.36 38.112,12.989 38.003,13.618 37.839C13.427 39.644,13.345 41.45,13.235 43.283"/><path stroke="none" d="M27.779 70.13C28.08 70.103,28.162 69.665,28.244 69.391C28.408 68.872,28.435 68.352,28.435 67.887C28.435 67.449,28.408 67.066,28.408 66.628C28.408 66.354,28.408 65.999,28.435 65.725C28.517 64.932,28.599 64.138,28.627 63.345L30.378 62.989C30.46 64.658,30.761 66.272,31.308 67.832C31.363 68.051,31.5 68.27,31.746 68.27C31.992 68.324,32.074 68.051,32.184 67.832C32.457 67.421,32.484 66.902,32.484 66.436C32.539 66.081,32.539 65.752,32.539 65.452C32.539 64.494,32.457 63.509,32.43 62.551L34.701 62.086C36.862 61.648,37.136 61.348,37.3 59.268C37.3 58.748,37.355 58.393,37.3 57.982C37.272 57.49,37.054 57.134,36.643 57.134L36.561 57.134C36.397 57.134,36.288 57.134,36.123 57.161C35.22 57.408,34.236 57.599,33.278 57.763L32.621 57.873C32.649 57.326,32.649 56.724,32.703 56.149C32.731 54.891,32.758 53.632,32.758 52.373C33.88 52.072,34.947 51.772,36.014 51.416C36.588 51.224,37.108 50.896,37.272 50.267C37.409 49.555,37.628 48.899,37.628 48.187C37.628 47.777,37.573 47.367,37.409 46.956C37.272 46.573,37.136 46.382,36.917 46.382L36.835 46.382C36.698 46.382,36.561 46.382,36.397 46.464C35.166 46.956,33.962 47.367,32.703 47.722L32.567 45.588C32.484 43.892,32.43 42.168,32.074 40.472C31.992 40.253,32.019 39.897,31.773 39.897L31.746 39.897L31.636 39.897C31.308 39.979,30.925 40.116,30.87 40.554L30.87 41.293C30.87 43.618,30.952 45.889,31.007 48.187L28.9 48.652C28.9 47.476,28.873 46.3,28.791 45.123C28.764 44.521,28.764 43.974,28.435 43.372C27.56 43.81,27.696 44.548,27.696 45.178C27.614 46.464,27.56 47.668,27.532 48.899C26.438 49.118,25.316 49.282,24.222 49.473C22.608 49.747,22.361 49.993,22.361 51.772C22.252 52.209,22.58 52.702,22.525 53.194C22.443 53.933,22.635 54.179,23.155 54.207C23.264 54.207,23.401 54.179,23.565 54.124C24.851 53.933,26.11 53.741,27.368 53.495L27.259 57.052C27.204 57.709,27.149 58.338,27.067 58.967C25.59 59.268,24.14 59.542,22.69 59.897C21.869 60.089,21.376 60.39,21.376 61.348C21.376 62.278,21.732 63.153,21.787 64.056C21.787 64.494,21.896 64.685,22.224 64.74C22.279 64.74,22.416 64.685,22.58 64.658C23.976 64.33,25.398 64.056,26.821 63.755C26.794 64.248,26.794 64.768,26.794 65.315C26.794 66.71,26.93 68.051,27.423 69.391C27.505 69.665,27.423 70.13,27.779 70.13M28.818 58.612C28.873 57.763,28.873 56.888,28.9 56.012C28.955 55.082,28.955 54.179,28.955 53.222C29.612 53.112,30.241 53.003,30.87 52.839C30.679 54.644,30.597 56.45,30.487 58.283"/><path stroke="none" d="M45.03 50.13C45.331 50.103,45.413 49.665,45.496 49.391C45.66 48.872,45.687 48.352,45.687 47.887C45.687 47.449,45.66 47.066,45.66 46.628C45.66 46.354,45.66 45.999,45.687 45.725C45.769 44.932,45.851 44.138,45.879 43.345L47.63 42.989C47.712 44.658,48.013 46.272,48.56 47.832C48.615 48.051,48.751 48.27,48.998 48.27C49.244 48.324,49.326 48.051,49.435 47.832C49.709 47.421,49.736 46.902,49.736 46.436C49.791 46.081,49.791 45.752,49.791 45.452C49.791 44.494,49.709 43.509,49.682 42.551L51.952 42.086C54.114 41.648,54.388 41.348,54.552 39.268C54.552 38.748,54.606 38.393,54.552 37.982C54.524 37.49,54.305 37.134,53.895 37.134L53.813 37.134C53.649 37.134,53.539 37.134,53.375 37.161C52.472 37.408,51.487 37.599,50.53 37.763L49.873 37.873C49.9 37.326,49.9 36.724,49.955 36.149C49.983 34.891,50.01 33.632,50.01 32.373C51.132 32.072,52.199 31.772,53.266 31.416C53.84 31.224,54.36 30.896,54.524 30.267C54.661 29.555,54.88 28.899,54.88 28.187C54.88 27.777,54.825 27.367,54.661 26.956C54.524 26.573,54.388 26.382,54.169 26.382L54.087 26.382C53.95 26.382,53.813 26.382,53.649 26.464C52.418 26.956,51.214 27.367,49.955 27.722L49.818 25.588C49.736 23.892,49.682 22.168,49.326 20.472C49.244 20.253,49.271 19.897,49.025 19.897L48.998 19.897L48.888 19.897C48.56 19.979,48.177 20.116,48.122 20.554L48.122 21.293C48.122 23.618,48.204 25.889,48.259 28.187L46.152 28.652C46.152 27.476,46.125 26.3,46.043 25.123C46.015 24.521,46.015 23.974,45.687 23.372C44.812 23.81,44.948 24.548,44.948 25.178C44.866 26.464,44.812 27.668,44.784 28.899C43.69 29.118,42.568 29.282,41.474 29.473C39.859 29.747,39.613 29.993,39.613 31.772C39.504 32.209,39.832 32.702,39.777 33.194C39.695 33.933,39.887 34.179,40.407 34.207C40.516 34.207,40.653 34.179,40.817 34.124C42.103 33.933,43.361 33.741,44.62 33.495L44.511 37.052C44.456 37.709,44.401 38.338,44.319 38.967C42.842 39.268,41.392 39.542,39.941 39.897C39.121 40.089,38.628 40.39,38.628 41.348C38.628 42.278,38.984 43.153,39.039 44.056C39.039 44.494,39.148 44.685,39.476 44.74C39.531 44.74,39.668 44.685,39.832 44.658C41.227 44.33,42.65 44.056,44.073 43.755C44.045 44.248,44.045 44.768,44.045 45.315C44.045 46.71,44.182 48.051,44.675 49.391C44.757 49.665,44.675 50.13,45.03 50.13M46.07 38.612C46.125 37.763,46.125 36.888,46.152 36.012C46.207 35.082,46.207 34.179,46.207 33.222C46.864 33.112,47.493 33.003,48.122 32.839C47.931 34.644,47.848 36.45,47.739 38.283"/><path stroke="none" d="M62.282 65.13C62.583 65.103,62.665 64.665,62.747 64.391C62.912 63.872,62.939 63.352,62.939 62.887C62.939 62.449,62.912 62.066,62.912 61.628C62.912 61.354,62.912 60.999,62.939 60.725C63.021 59.932,63.103 59.138,63.13 58.345L64.881 57.989C64.964 59.658,65.264 61.272,65.812 62.832C65.866 63.051,66.003 63.27,66.249 63.27C66.496 63.324,66.578 63.051,66.687 62.832C66.961 62.421,66.988 61.902,66.988 61.436C67.043 61.081,67.043 60.752,67.043 60.452C67.043 59.494,66.961 58.509,66.933 57.551L69.204 57.086C71.366 56.648,71.639 56.348,71.804 54.268C71.804 53.748,71.858 53.393,71.804 52.982C71.776 52.49,71.557 52.134,71.147 52.134L71.065 52.134C70.901 52.134,70.791 52.134,70.627 52.161C69.724 52.408,68.739 52.599,67.782 52.763L67.125 52.873C67.152 52.326,67.152 51.724,67.207 51.149C67.234 49.891,67.262 48.632,67.262 47.373C68.384 47.072,69.451 46.772,70.518 46.416C71.092 46.224,71.612 45.896,71.776 45.267C71.913 44.555,72.132 43.899,72.132 43.187C72.132 42.777,72.077 42.367,71.913 41.956C71.776 41.573,71.639 41.382,71.42 41.382L71.338 41.382C71.202 41.382,71.065 41.382,70.901 41.464C69.669 41.956,68.466 42.367,67.207 42.722L67.07 40.588C66.988 38.892,66.933 37.168,66.578 35.472C66.496 35.253,66.523 34.897,66.277 34.897L66.249 34.897L66.14 34.897C65.812 34.979,65.429 35.116,65.374 35.554L65.374 36.293C65.374 38.618,65.456 40.889,65.511 43.187L63.404 43.652C63.404 42.476,63.377 41.3,63.295 40.123C63.267 39.521,63.267 38.974,62.939 38.372C62.063 38.81,62.2 39.548,62.2 40.178C62.118 41.464,62.063 42.668,62.036 43.899C60.942 44.118,59.82 44.282,58.725 44.473C57.111 44.747,56.865 44.993,56.865 46.772C56.756 47.209,57.084 47.702,57.029 48.194C56.947 48.933,57.139 49.179,57.658 49.207C57.768 49.207,57.905 49.179,58.069 49.124C59.355 48.933,60.613 48.741,61.872 48.495L61.762 52.052C61.708 52.709,61.653 53.338,61.571 53.967C60.093 54.268,58.643 54.542,57.193 54.897C56.372 55.089,55.88 55.39,55.88 56.348C55.88 57.278,56.236 58.153,56.29 59.056C56.29 59.494,56.4 59.685,56.728 59.74C56.783 59.74,56.92 59.685,57.084 59.658C58.479 59.33,59.902 59.056,61.325 58.755C61.297 59.248,61.297 59.768,61.297 60.315C61.297 61.71,61.434 63.051,61.927 64.391C62.009 64.665,61.927 65.13,62.282 65.13M63.322 53.612C63.377 52.763,63.377 51.888,63.404 51.012C63.459 50.082,63.459 49.179,63.459 48.222C64.115 48.112,64.745 48.003,65.374 47.839C65.182 49.644,65.1 51.45,64.991 53.283"/><path stroke="none" d="M79.534 80.13C79.835 80.103,79.917 79.665,79.999 79.391C80.163 78.872,80.191 78.352,80.191 77.887C80.191 77.449,80.163 77.066,80.163 76.628C80.163 76.354,80.163 75.999,80.191 75.725C80.273 74.932,80.355 74.138,80.382 73.345L82.133 72.989C82.215 74.658,82.516 76.272,83.064 77.832C83.118 78.051,83.255 78.27,83.501 78.27C83.748 78.324,83.83 78.051,83.939 77.832C84.213 77.421,84.24 76.902,84.24 76.436C84.295 76.081,84.295 75.752,84.295 75.452C84.295 74.494,84.213 73.509,84.185 72.551L86.456 72.086C88.618 71.648,88.891 71.348,89.055 69.268C89.055 68.748,89.11 68.393,89.055 67.982C89.028 67.49,88.809 67.134,88.399 67.134L88.317 67.134C88.152 67.134,88.043 67.134,87.879 67.161C86.976 67.408,85.991 67.599,85.033 67.763L84.377 67.873C84.404 67.326,84.404 66.724,84.459 66.149C84.486 64.891,84.514 63.632,84.514 62.373C85.635 62.072,86.702 61.772,87.769 61.416C88.344 61.224,88.864 60.896,89.028 60.267C89.165 59.555,89.384 58.899,89.384 58.187C89.384 57.777,89.329 57.367,89.165 56.956C89.028 56.573,88.891 56.382,88.672 56.382L88.59 56.382C88.453 56.382,88.317 56.382,88.152 56.464C86.921 56.956,85.717 57.367,84.459 57.722L84.322 55.588C84.24 53.892,84.185 52.168,83.83 50.472C83.748 50.253,83.775 49.897,83.529 49.897L83.501 49.897L83.392 49.897C83.064 49.979,82.68 50.116,82.626 50.554L82.626 51.293C82.626 53.618,82.708 55.889,82.763 58.187L80.656 58.652C80.656 57.476,80.628 56.3,80.546 55.123C80.519 54.521,80.519 53.974,80.191 53.372C79.315 53.81,79.452 54.548,79.452 55.178C79.37 56.464,79.315 57.668,79.288 58.899C78.193 59.118,77.072 59.282,75.977 59.473C74.363 59.747,74.117 59.993,74.117 61.772C74.007 62.209,74.336 62.702,74.281 63.194C74.199 63.933,74.39 64.179,74.91 64.207C75.02 64.207,75.156 64.179,75.321 64.124C76.607 63.933,77.865 63.741,79.124 63.495L79.014 67.052C78.96 67.709,78.905 68.338,78.823 68.967C77.345 69.268,75.895 69.542,74.445 69.897C73.624 70.089,73.132 70.39,73.132 71.348C73.132 72.278,73.488 73.153,73.542 74.056C73.542 74.494,73.652 74.685,73.98 74.74C74.035 74.74,74.172 74.685,74.336 74.658C75.731 74.33,77.154 74.056,78.576 73.755C78.549 74.248,78.549 74.768,78.549 75.315C78.549 76.71,78.686 78.051,79.178 79.391C79.26 79.665,79.178 80.13,79.534 80.13M80.574 68.612C80.628 67.763,80.628 66.888,80.656 66.012C80.711 65.082,80.711 64.179,80.711 63.222C81.367 63.112,81.996 63.003,82.626 62.839C82.434 64.644,82.352 66.45,82.243 68.283"/><path stroke="none" d="M96.786 60.13C97.087 60.103,97.169 59.665,97.251 59.391C97.415 58.872,97.443 58.352,97.443 57.887C97.443 57.449,97.415 57.066,97.415 56.628C97.415 56.354,97.415 55.999,97.443 55.725C97.525 54.932,97.607 54.138,97.634 53.345L99.385 52.989C99.467 54.658,99.768 56.272,100.315 57.832C100.37 58.051,100.507 58.27,100.753 58.27C100.999 58.324,101.081 58.051,101.191 57.832C101.464 57.421,101.492 56.902,101.492 56.436C101.547 56.081,101.547 55.752,101.547 55.452C101.547 54.494,101.464 53.509,101.437 52.551L103.708 52.086C105.869 51.648,106.143 51.348,106.307 49.268C106.307 48.748,106.362 48.393,106.307 47.982C106.28 47.49,106.061 47.134,105.651 47.134L105.568 47.134C105.404 47.134,105.295 47.134,105.131 47.161C104.228 47.408,103.243 47.599,102.285 47.763L101.629 47.873C101.656 47.326,101.656 46.724,101.711 46.149C101.738 44.891,101.765 43.632,101.765 42.373C102.887 42.072,103.954 41.772,105.021 41.416C105.596 41.224,106.116 40.896,106.28 40.267C106.417 39.555,106.636 38.899,106.636 38.187C106.636 37.777,106.581 37.367,106.417 36.956C106.28 36.573,106.143 36.382,105.924 36.382L105.842 36.382C105.705 36.382,105.568 36.382,105.404 36.464C104.173 36.956,102.969 37.367,101.711 37.722L101.574 35.588C101.492 33.892,101.437 32.168,101.081 30.472C100.999 30.253,101.027 29.897,100.78 29.897L100.753 29.897L100.644 29.897C100.315 29.979,99.932 30.116,99.878 30.554L99.878 31.293C99.878 33.618,99.96 35.889,100.014 38.187L97.908 38.652C97.908 37.476,97.88 36.3,97.798 35.123C97.771 34.521,97.771 33.974,97.443 33.372C96.567 33.81,96.704 34.548,96.704 35.178C96.622 36.464,96.567 37.668,96.54 38.899C95.445 39.118,94.324 39.282,93.229 39.473C91.615 39.747,91.369 39.993,91.369 41.772C91.259 42.209,91.588 42.702,91.533 43.194C91.451 43.933,91.642 44.179,92.162 44.207C92.272 44.207,92.408 44.179,92.572 44.124C93.858 43.933,95.117 43.741,96.376 43.495L96.266 47.052C96.211 47.709,96.157 48.338,96.075 48.967C94.597 49.268,93.147 49.542,91.697 49.897C90.876 50.089,90.384 50.39,90.384 51.348C90.384 52.278,90.739 53.153,90.794 54.056C90.794 54.494,90.904 54.685,91.232 54.74C91.287 54.74,91.423 54.685,91.588 54.658C92.983 54.33,94.406 54.056,95.828 53.755C95.801 54.248,95.801 54.768,95.801 55.315C95.801 56.71,95.938 58.051,96.43 59.391C96.512 59.665,96.43 60.13,96.786 60.13M97.826 48.612C97.88 47.763,97.88 46.888,97.908 46.012C97.962 45.082,97.962 44.179,97.962 43.222C98.619 43.112,99.248 43.003,99.878 42.839C99.686 44.644,99.604 46.45,99.495 48.283"/><path stroke="none" d="M114.038 75.13C114.339 75.103,114.421 74.665,114.503 74.391C114.667 73.872,114.694 73.352,114.694 72.887C114.694 72.449,114.667 72.066,114.667 71.628C114.667 71.354,114.667 70.999,114.694 70.725C114.776 69.932,114.859 69.138,114.886 68.345L116.637 67.989C116.719 69.658,117.02 71.272,117.567 72.832C117.622 73.051,117.759 73.27,118.005 73.27C118.251 73.324,118.333 73.051,118.443 72.832C118.716 72.421,118.744 71.902,118.744 71.436C118.798 71.081,118.798 70.752,118.798 70.452C118.798 69.494,118.716 68.509,118.689 67.551L120.96 67.086C123.121 66.648,123.395 66.348,123.559 64.268C123.559 63.748,123.614 63.393,123.559 62.982C123.532 62.49,123.313 62.134,122.902 62.134L122.82 62.134C122.656 62.134,122.547 62.134,122.383 62.161C121.48 62.408,120.495 62.599,119.537 62.763L118.88 62.873C118.908 62.326,118.908 61.724,118.963 61.149C118.99 59.891,119.017 58.632,119.017 57.373C120.139 57.072,121.206 56.772,122.273 56.416C122.848 56.224,123.368 55.896,123.532 55.267C123.668 54.555,123.887 53.899,123.887 53.187C123.887 52.777,123.833 52.367,123.668 51.956C123.532 51.573,123.395 51.382,123.176 51.382L123.094 51.382C122.957 51.382,122.82 51.382,122.656 51.464C121.425 51.956,120.221 52.367,118.963 52.722L118.826 50.588C118.744 48.892,118.689 47.168,118.333 45.472C118.251 45.253,118.279 44.897,118.032 44.897L118.005 44.897L117.896 44.897C117.567 44.979,117.184 45.116,117.129 45.554L117.129 46.293C117.129 48.618,117.212 50.889,117.266 53.187L115.16 53.652C115.16 52.476,115.132 51.3,115.05 50.123C115.023 49.521,115.023 48.974,114.694 48.372C113.819 48.81,113.956 49.548,113.956 50.178C113.874 51.464,113.819 52.668,113.792 53.899C112.697 54.118,111.575 54.282,110.481 54.473C108.867 54.747,108.62 54.993,108.62 56.772C108.511 57.209,108.839 57.702,108.785 58.194C108.703 58.933,108.894 59.179,109.414 59.207C109.523 59.207,109.66 59.179,109.824 59.124C111.11 58.933,112.369 58.741,113.627 58.495L113.518 62.052C113.463 62.709,113.408 63.338,113.326 63.967C111.849 64.268,110.399 64.542,108.949 64.897C108.128 65.089,107.636 65.39,107.636 66.348C107.636 67.278,107.991 68.153,108.046 69.056C108.046 69.494,108.155 69.685,108.484 69.74C108.538 69.74,108.675 69.685,108.839 69.658C110.235 69.33,111.657 69.056,113.08 68.755C113.053 69.248,113.053 69.768,113.053 70.315C113.053 71.71,113.19 73.051,113.682 74.391C113.764 74.665,113.682 75.13,114.038 75.13M115.077 63.612C115.132 62.763,115.132 61.888,115.16 61.012C115.214 60.082,115.214 59.179,115.214 58.222C115.871 58.112,116.5 58.003,117.129 57.839C116.938 59.644,116.856 61.45,116.746 63.283"/></g><g class="vf-stavenote" id="vf-auto20961"><path stroke-width="1.4" fill="none" stroke="#444" d="M149.183 90L168.691 90"/><g class="vf-stem" id="vf-auto20962" pointer-events="bounding-box"><path stroke-width="1.5" fill="none" d="M152.933 92L152.933 125"/></g><g class="vf-notehead" id="vf-auto20964" pointer-events="bounding-box"><path stroke="none" d="M155.328 96.543C155.609 96.599,155.861 96.627,156.142 96.627C160.017 96.627,165.802 91.348,165.689 87.08C165.577 86.041,165.605 84.609,163.499 83.766C162.909 83.485,162.264 83.373,161.562 83.373C157.237 83.373,152.548 88.343,152.211 91.657C152.211 91.909,152.183 92.134,152.183 92.387C152.183 94.409,153.081 96.037,155.328 96.543"/><path stroke="none" d="M147.74 107.976C148.177 107.976,148.287 107.401,148.451 107.073C148.478 106.826,148.56 106.635,148.56 106.389C148.643 103.68,148.67 100.944,148.752 98.208C148.752 96.922,148.67 95.664,148.67 94.405C148.752 91.778,148.889 89.124,148.971 86.498C148.971 86.498,149.026 85.896,149.08 85.404L149.08 85.267L149.108 84.802L149.108 84.555L149.162 83.844C149.162 83.735,149.244 83.269,149.08 82.914C148.889 82.503,149.026 81.655,148.205 81.847C146.344 82.367,144.429 82.558,142.487 82.722C142.623 80.479,142.733 78.18,142.733 75.937C142.733 75.198,142.733 74.487,142.705 73.721C142.705 73.064,142.569 72.435,142.295 71.806C141.009 72.189,141.228 73.365,141.228 74.159C141.283 78.153,140.954 82.093,140.845 86.06C140.79 87.428,140.763 88.824,140.763 90.192C140.763 91.368,140.79 92.517,140.845 93.666C140.845 94.46,140.954 95.253,140.954 95.992C140.954 96.648,141.228 96.867,141.72 96.867C141.83 96.867,141.939 96.867,142.104 96.813L146.864 96.101L147.056 96.074L147.056 99.822C147.056 101.218,146.864 102.695,146.864 104.118C146.864 105.048,146.946 106.006,147.22 106.936C147.329 107.346,147.22 107.976,147.74 107.976M142.35 91.724C142.295 90.383,142.213 89.097,142.268 87.784L142.295 87.291C142.541 87.291,142.815 87.319,143.088 87.291C144.429 87.155,145.77 87.072,147.11 87.045L147.329 87.018L147.22 88.194C147.192 89.207,147.11 90.274,147.11 91.313C145.524 91.724,143.909 91.997,142.35 92.216"/></g></g><g class="vf-stavenote" id="vf-auto20965"><path stroke-width="1.4" fill="none" stroke="#444" d="M209.824 90L229.332 90"/><g class="vf-stem" id="vf-auto20966" pointer-events="bounding-box"><path stroke-width="1.5" fill="none" d="M213.574 92L213.574 125"/></g><g class="vf-notehead" id="vf-auto20968" pointer-events="bounding-box"><path stroke="none" d="M215.969 96.543C216.25 96.599,216.503 96.627,216.783 96.627C220.658 96.627,226.443 91.348,226.331 87.08C226.218 86.041,226.246 84.609,224.14 83.766C223.551 83.485,222.905 83.373,222.203 83.373C217.878 83.373,213.189 88.343,212.852 91.657C212.852 91.909,212.824 92.134,212.824 92.387C212.824 94.409,213.723 96.037,215.969 96.543"/><path stroke="none" d="M199.974 105.13C200.275 105.103,200.358 104.665,200.44 104.391C200.604 103.872,200.631 103.352,200.631 102.887C200.631 102.449,200.604 102.066,200.604 101.628C200.604 101.354,200.604 100.999,200.631 100.725C200.713 99.932,200.795 99.138,200.823 98.345L202.574 97.989C202.656 99.658,202.957 101.272,203.504 102.832C203.559 103.051,203.695 103.27,203.942 103.27C204.188 103.324,204.27 103.051,204.379 102.832C204.653 102.421,204.68 101.902,204.68 101.436C204.735 101.081,204.735 100.752,204.735 100.452C204.735 99.494,204.653 98.509,204.626 97.551L206.897 97.086C209.058 96.648,209.332 96.348,209.496 94.268C209.496 93.748,209.55 93.393,209.496 92.982C209.468 92.49,209.25 92.134,208.839 92.134L208.757 92.134C208.593 92.134,208.483 92.134,208.319 92.161C207.416 92.408,206.431 92.599,205.474 92.763L204.817 92.873C204.845 92.326,204.845 91.724,204.899 91.149C204.927 89.891,204.954 88.632,204.954 87.373C206.076 87.072,207.143 86.772,208.21 86.416C208.784 86.224,209.304 85.896,209.468 85.267C209.605 84.555,209.824 83.899,209.824 83.187C209.824 82.777,209.769 82.367,209.605 81.956C209.468 81.573,209.332 81.382,209.113 81.382L209.031 81.382C208.894 81.382,208.757 81.382,208.593 81.464C207.362 81.956,206.158 82.367,204.899 82.722L204.762 80.588C204.68 78.892,204.626 77.168,204.27 75.472C204.188 75.253,204.215 74.897,203.969 74.897L203.942 74.897L203.832 74.897C203.504 74.979,203.121 75.116,203.066 75.554L203.066 76.293C203.066 78.618,203.148 80.889,203.203 83.187L201.096 83.652C201.096 82.476,201.069 81.3,200.987 80.123C200.959 79.521,200.959 78.974,200.631 78.372C199.756 78.81,199.892 79.548,199.892 80.178C199.81 81.464,199.756 82.668,199.728 83.899C198.634 84.118,197.512 84.282,196.418 84.473C194.803 84.747,194.557 84.993,194.557 86.772C194.448 87.209,194.776 87.702,194.721 88.194C194.639 88.933,194.831 89.179,195.351 89.207C195.46 89.207,195.597 89.179,195.761 89.124C197.047 88.933,198.306 88.741,199.564 88.495L199.455 92.052C199.4 92.709,199.345 93.338,199.263 93.967C197.786 94.268,196.336 94.542,194.886 94.897C194.065 95.089,193.572 95.39,193.572 96.348C193.572 97.278,193.928 98.153,193.983 99.056C193.983 99.494,194.092 99.685,194.42 99.74C194.475 99.74,194.612 99.685,194.776 99.658C196.171 99.33,197.594 99.056,199.017 98.755C198.99 99.248,198.99 99.768,198.99 100.315C198.99 101.71,199.126 103.051,199.619 104.391C199.701 104.665,199.619 105.13,199.974 105.13M201.014 93.612C201.069 92.763,201.069 91.888,201.096 91.012C201.151 90.082,201.151 89.179,201.151 88.222C201.808 88.112,202.437 88.003,203.066 87.839C202.875 89.644,202.793 91.45,202.683 93.283"/></g></g><g class="vf-stavenote" id="vf-auto20969"><path stroke-width="1.4" fill="none" stroke="#444" d="M270.465 90L289.973 90"/><g class="vf-stem" id="vf-auto20970" pointer-events="bounding-box"><path stroke-width="1.5" fill="none" d="M274.215 92L274.215 125"/></g><g class="vf-notehead" id="vf-auto20972" pointer-events="bounding-box"><path stroke="none" d="M276.61 96.543C276.891 96.599,277.144 96.627,277.425 96.627C281.3 96.627,287.084 91.348,286.972 87.08C286.859 86.041,286.888 84.609,284.782 83.766C284.192 83.485,283.546 83.373,282.844 83.373C278.52 83.373,273.83 88.343,273.493 91.657C273.493 91.909,273.465 92.134,273.465 92.387C273.465 94.409,274.364 96.037,276.61 96.543"/></g></g><g class="vf-stavenote" id="vf-auto20973"><path stroke-width="1.4" fill="none" stroke="#444" d="M331.106 90L350.615 90"/><g class="vf-stem" id="vf-auto20974" pointer-events="bounding-box"><path stroke-width="1.5" fill="none" d="M334.856 92L334.856 125"/></g><g class="vf-notehead" id="vf-auto20976" pointer-events="bounding-box"><path stroke="none" d="M337.251 96.543C337.532 96.599,337.785 96.627,338.066 96.627C341.941 96.627,347.725 91.348,347.613 87.08C347.501 86.041,347.529 84.609,345.423 83.766C344.833 83.485,344.187 83.373,343.485 83.373C339.161 83.373,334.471 88.343,334.135 91.657C334.135 91.909,334.106 92.134,334.106 92.387C334.106 94.409,335.005 96.037,337.251 96.543"/><path stroke="none" d="M329.663 107.976C330.101 107.976,330.21 107.401,330.375 107.073C330.402 106.826,330.484 106.635,330.484 106.389C330.566 103.68,330.593 100.944,330.676 98.208C330.676 96.922,330.593 95.664,330.593 94.405C330.676 91.778,330.812 89.124,330.894 86.498C330.894 86.498,330.949 85.896,331.004 85.404L331.004 85.267L331.031 84.802L331.031 84.555L331.086 83.844C331.086 83.735,331.168 83.269,331.004 82.914C330.812 82.503,330.949 81.655,330.128 81.847C328.268 82.367,326.353 82.558,324.41 82.722C324.547 80.479,324.656 78.18,324.656 75.937C324.656 75.198,324.656 74.487,324.629 73.721C324.629 73.064,324.492 72.435,324.219 71.806C322.933 72.189,323.152 73.365,323.152 74.159C323.206 78.153,322.878 82.093,322.768 86.06C322.714 87.428,322.686 88.824,322.686 90.192C322.686 91.368,322.714 92.517,322.768 93.666C322.768 94.46,322.878 95.253,322.878 95.992C322.878 96.648,323.152 96.867,323.644 96.867C323.753 96.867,323.863 96.867,324.027 96.813L328.788 96.101L328.979 96.074L328.979 99.822C328.979 101.218,328.788 102.695,328.788 104.118C328.788 105.048,328.87 106.006,329.143 106.936C329.253 107.346,329.143 107.976,329.663 107.976M324.273 91.724C324.219 90.383,324.136 89.097,324.191 87.784L324.219 87.291C324.465 87.291,324.738 87.319,325.012 87.291C326.353 87.155,327.693 87.072,329.034 87.045L329.253 87.018L329.143 88.194C329.116 89.207,329.034 90.274,329.034 91.313C327.447 91.724,325.833 91.997,324.273 92.216"/></g></g><g class="vf-stavenote" id="vf-auto20977"><path stroke-width="1.4" fill="none" stroke="#444" d="M391.748 90L411.256 90"/><g class="vf-stem" id="vf-auto20978" pointer-events="bounding-box"><path stroke-width="1.5" fill="none" d="M395.498 92L395.498 125"/></g><g class="vf-notehead" id="vf-auto20980" pointer-events="bounding-box"><path stroke="none" d="M397.893 96.543C398.173 96.599,398.426 96.627,398.707 96.627C402.582 96.627,408.366 91.348,408.254 87.08C408.142 86.041,408.17 84.609,406.064 83.766C405.474 83.485,404.828 83.373,404.126 83.373C399.802 83.373,395.113 88.343,394.776 91.657C394.776 91.909,394.748 92.134,394.748 92.387C394.748 94.409,395.646 96.037,397.893 96.543"/></g></g><g class="vf-stavenote" id="vf-auto20981"><path stroke-width="1.4" fill="none" stroke="#444" d="M452.389 90L471.897 90"/><g class="vf-stem" id="vf-auto20982" pointer-events="bounding-box"><path stroke-width="1.5" fill="none" d="M456.139 92L456.139 125"/></g><g class="vf-notehead" id="vf-auto20984" pointer-events="bounding-box"><path stroke="none" d="M458.534 96.543C458.815 96.599,459.067 96.627,459.348 96.627C463.223 96.627,469.008 91.348,468.895 87.08C468.783 86.041,468.811 84.609,466.705 83.766C466.115 83.485,465.47 83.373,464.768 83.373C460.443 83.373,455.754 88.343,455.417 91.657C455.417 91.909,455.389 92.134,455.389 92.387C455.389 94.409,456.287 96.037,458.534 96.543"/><path stroke="none" d="M445.002 98.208C445.111 98.208,445.275 98.126,445.467 97.907C445.987 97.497,446.561 97.059,447.136 96.648C450.583 94.186,452.444 90.821,452.444 86.525C452.444 85.978,452.444 85.458,452.361 84.911C452.17 82.996,451.076 81.874,449.407 81.874C449.051 81.874,448.668 81.956,448.23 82.093C447.683 82.23,447.136 82.503,446.561 82.75L446.534 82.777L446.534 81.765C446.534 80.26,446.616 78.782,446.698 77.278C446.698 76.402,446.78 75.581,446.78 74.706C446.78 73.885,446.698 73.009,446.506 72.189C446.424 71.915,446.424 71.395,446.014 71.395L445.987 71.395C445.549 71.45,445.22 71.806,445.22 72.353C445.193 73.447,445.084 74.596,445.111 75.691L445.111 76.922C445.111 79.248,445.002 81.573,444.92 83.899C444.81 87.237,444.236 90.52,444.236 93.858C444.236 95.171,444.318 96.539,444.673 97.852C444.755 98.071,444.837 98.208,445.002 98.208M446.069 92.873C446.151 91.86,446.178 90.793,446.288 89.672C446.37 88.824,446.424 87.948,446.424 87.072L446.561 87.018C447.327 86.689,448.066 86.306,448.887 86.306C449.16 86.306,449.489 86.388,449.79 86.498C450.446 86.717,450.747 87.045,450.72 87.483C450.72 87.702,450.665 87.948,450.501 88.276C449.489 90.274,447.82 91.614,446.069 92.873"/></g></g><g class="vf-stavenote" id="vf-auto20985"><path stroke-width="1.4" fill="none" stroke="#444" d="M513.03 90L532.538 90"/><g class="vf-stem" id="vf-auto20986" pointer-events="bounding-box"><path stroke-width="1.5" fill="none" d="M516.78 92L516.78 125"/></g><g class="vf-notehead" id="vf-auto20988" pointer-events="bounding-box"><path stroke="none" d="M519.175 96.543C519.456 96.599,519.708 96.627,519.989 96.627C523.864 96.627,529.649 91.348,529.536 87.08C529.424 86.041,529.452 84.609,527.346 83.766C526.757 83.485,526.111 83.373,525.409 83.373C521.084 83.373,516.395 88.343,516.058 91.657C516.058 91.909,516.03 92.134,516.03 92.387C516.03 94.409,516.929 96.037,519.175 96.543"/></g></g><g class="vf-stavenote" id="vf-auto20989"><path stroke-width="1.4" fill="none" stroke="#444" d="M573.671 90L593.179 90"/><g class="vf-stem" id="vf-auto20990" pointer-events="bounding-box"><path stroke-width="1.5" fill="none" d="M577.421 92L577.421 125"/></g><g class="vf-notehead" id="vf-auto20992" pointer-events="bounding-box"><path stroke="none" d="M579.816 96.543C580.097 96.599,580.35 96.627,580.63 96.627C584.505 96.627,590.29 91.348,590.178 87.08C590.065 86.041,590.093 84.609,587.987 83.766C587.398 83.485,586.752 83.373,586.05 83.373C581.726 83.373,577.036 88.343,576.699 91.657C576.699 91.909,576.671 92.134,576.671 92.387C576.671 94.409,577.57 96.037,579.816 96.543"/><path stroke="none" d="M572.228 107.976C572.666 107.976,572.775 107.401,572.939 107.073C572.967 106.826,573.049 106.635,573.049 106.389C573.131 103.68,573.158 100.944,573.24 98.208C573.24 96.922,573.158 95.664,573.158 94.405C573.24 91.778,573.377 89.124,573.459 86.498C573.459 86.498,573.514 85.896,573.569 85.404L573.569 85.267L573.596 84.802L573.596 84.555L573.651 83.844C573.651 83.735,573.733 83.269,573.569 82.914C573.377 82.503,573.514 81.655,572.693 81.847C570.833 82.367,568.917 82.558,566.975 82.722C567.112 80.479,567.221 78.18,567.221 75.937C567.221 75.198,567.221 74.487,567.194 73.721C567.194 73.064,567.057 72.435,566.783 71.806C565.497 72.189,565.716 73.365,565.716 74.159C565.771 78.153,565.443 82.093,565.333 86.06C565.278 87.428,565.251 88.824,565.251 90.192C565.251 91.368,565.278 92.517,565.333 93.666C565.333 94.46,565.443 95.253,565.443 95.992C565.443 96.648,565.716 96.867,566.209 96.867C566.318 96.867,566.428 96.867,566.592 96.813L571.352 96.101L571.544 96.074L571.544 99.822C571.544 101.218,571.352 102.695,571.352 104.118C571.352 105.048,571.434 106.006,571.708 106.936C571.818 107.346,571.708 107.976,572.228 107.976M566.838 91.724C566.783 90.383,566.701 89.097,566.756 87.784L566.783 87.291C567.03 87.291,567.303 87.319,567.577 87.291C568.917 87.155,570.258 87.072,571.599 87.045L571.818 87.018L571.708 88.194C571.681 89.207,571.599 90.274,571.599 91.313C570.012 91.724,568.398 91.997,566.838 92.216"/></g></g><g class="vf-stavenote" id="vf-auto20993"><path stroke-width="1.4" fill="none" stroke="#444" d="M634.312 90L653.82 90"/><g class="vf-stem" id="vf-auto20994" pointer-events="bounding-box"><path stroke-width="1.5" fill="none" d="M638.062 92L638.062 125"/></g><g class="vf-notehead" id="vf-auto20996" pointer-events="bounding-box"><path stroke="none" d="M640.457 96.543C640.738 96.599,640.991 96.627,641.272 96.627C645.147 96.627,650.931 91.348,650.819 87.08C650.707 86.041,650.735 84.609,648.629 83.766C648.039 83.485,647.393 83.373,646.691 83.373C642.367 83.373,637.677 88.343,637.34 91.657C637.34 91.909,637.312 92.134,637.312 92.387C637.312 94.409,638.211 96.037,640.457 96.543"/></g></g></svg>