<svg xmlns="http://www.w3.org/2000/svg" stroke-width="0.3" stroke-dasharray="none" fill="black" stroke="black" font-family="Arial, sans-serif" font-size="10pt" font-weight="normal" font-style="normal" width="600" height="250" viewBox="0 0 600 250" style="width: 600px; height: 250px; border: none;"><g class="vf-stave" id="vf-auto10095" stroke-width="1" fill="#999999" stroke="#999999"><path fill="none" d="M0 52L590 52"/><path fill="none" d="M0 65L590 65"/><path fill="none" d="M0 78L590 78"/><path fill="none" d="M0 91L590 91"/><path fill="none" d="M0 104L590 104"/><path fill="none" d="M0 117L590 117"/><path fill="none" d="M0 130L590 130"/><path fill="none" d="M0 143L590 143"/><path fill="none" d="M0 156L590 156"/><path fill="none" d="M0 169L590 169"/></g><g class="vf-stavebarline" id="vf-auto10096"><rect y="51.5" width="1" height="118" stroke="none"/></g><g class="vf-stavebarline" id="vf-auto10097"><rect x="590" y="51.5" width="1" height="118" stroke="none"/></g><g class="vf-tabnote" id="vf-auto10098" pointer-events="bounding-box"><rect x="18.703" y="75" width="11.422" height="6" fill="#FFF" stroke="none"/><text stroke="none" x="20.703" y="83">6</text><rect x="15" y="88" width="18.828" height="6" fill="#FFF" stroke="none"/><text stroke="none" x="17" y="96">25</text><g class="vf-stem" id="vf-auto10099" pointer-events="bounding-box"><path stroke-width="1.5" fill="none" d="M24.414 177.5L24.414 210.5"/></g></g><g class="vf-tabnote" id="vf-auto10100" pointer-events="bounding-box"><rect x="69.564" y="62" width="18.828" height="6" fill="#FFF" stroke="none"/><text stroke="none" x="71.564" y="70">10</text><rect x="69.564" y="101" width="18.828" height="6" fill="#FFF" stroke="none"/><text stroke="none" x="71.564" y="109">12</text><path stroke="none" d="M93.392 175.5 A2 2 0 0 0 89.392 175.5 A2 2 0 0 0 93.392 175.5"/><path stroke="none" d="M99.392 175.5 A2 2 0 0 0 95.392 175.5 A2 2 0 0 0 99.392 175.5"/></g><g class="vf-tabnote" id="vf-auto10103" pointer-events="bounding-box"><rect x="121.267" y="49" width="11.422" height="6" fill="#FFF" stroke="none"/><text stroke="none" x="123.267" y="57">6</text><rect x="121.267" y="88" width="11.422" height="6" fill="#FFF" stroke="none"/><text stroke="none" x="123.267" y="96">5</text></g><g class="vf-tabnote" id="vf-auto10106" pointer-events="bounding-box"><rect x="165.256" y="49" width="11.422" height="6" fill="#FFF" stroke="none"/><text stroke="none" x="167.256" y="57">6</text><rect x="165.256" y="88" width="11.422" height="6" fill="#FFF" stroke="none"/><text stroke="none" x="167.256" y="96">5</text></g><g class="vf-tabnote" id="vf-auto10109" pointer-events="bounding-box"><rect x="204.752" y="49" width="11.422" height="6" fill="#FFF" stroke="none"/><text stroke="none" x="206.752" y="57">6</text><rect x="204.752" y="88" width="11.422" height="6" fill="#FFF" stroke="none"/><text stroke="none" x="206.752" y="96">5</text></g><g class="vf-tabnote" id="vf-auto10112" pointer-events="bounding-box"><rect x="242.178" y="49" width="11.422" height="6" fill="#FFF" stroke="none"/><text stroke="none" x="244.178" y="57">6</text><rect x="242.178" y="88" width="11.422" height="6" fill="#FFF" stroke="none"/><text stroke="none" x="244.178" y="96">5</text></g><g class="vf-tabnote" id="vf-auto10115" pointer-events="bounding-box"><rect x="278.609" y="49" width="11.422" height="6" fill="#FFF" stroke="none"/><text stroke="none" x="280.609" y="57">6</text><rect x="278.609" y="88" width="11.422" height="6" fill="#FFF" stroke="none"/><text stroke="none" x="280.609" y="96">5</text></g><g class="vf-tabnote" id="vf-auto10118" pointer-events="bounding-box"><rect x="314.552" y="49" width="11.422" height="6" fill="#FFF" stroke="none"/><text stroke="none" x="316.552" y="57">6</text><g class="vf-stem" id="vf-auto10119" pointer-events="bounding-box"><path stroke-width="1.5" fill="none" d="M320.263 177.5L320.263 210.5"/></g><path stroke="none" d="M329.229 179.78C329.791 181.465,330.071 183.487,330.071 185.312C330.071 187.699,329.06 191.097,328.443 192.473C326.954 195.87,324.933 199.128,319.513 200.953L319.513 210.472C319.513 210.865,319.85 211.062,320.159 211.062C320.524 211.062,321.058 210.837,321.142 210.163C321.816 206.344,324.82 202.806,326.87 199.633C329.425 195.618,331.897 190.816,331.897 185.762C331.897 182.588,331.082 179.724,330.745 178.433C330.633 177.983,330.38 177.815,330.099 177.815C329.51 177.815,328.808 178.601,329.229 179.78"/></g><g class="vf-tabnote" id="vf-auto10121" pointer-events="bounding-box"><rect x="358.541" y="49" width="11.422" height="6" fill="#FFF" stroke="none"/><text stroke="none" x="360.541" y="57">6</text></g><g class="vf-tabnote" id="vf-auto10124" pointer-events="bounding-box"><rect x="399.481" y="49" width="11.422" height="6" fill="#FFF" stroke="none"/><text stroke="none" x="401.481" y="57">6</text></g><g class="vf-tabnote" id="vf-auto10127" pointer-events="bounding-box"><rect x="440.422" y="127" width="11.422" height="6" fill="#FFF" stroke="none"/><text stroke="none" x="442.422" y="135">6</text></g><g class="vf-tabnote" id="vf-auto10130" pointer-events="bounding-box"><rect x="481.362" y="127" width="11.422" height="6" fill="#FFF" stroke="none"/><text stroke="none" x="483.362" y="135">6</text><g class="vf-stem" id="vf-auto10131" pointer-events="bounding-box"><path stroke-width="1.5" fill="none" d="M487.073 177.5L487.073 210.5"/></g><path stroke="none" d="M496.039 179.78C496.6 181.465,496.881 183.487,496.881 185.312C496.881 187.699,495.87 191.097,495.253 192.473C493.764 195.87,491.743 199.128,486.323 200.953L486.323 210.472C486.323 210.865,486.66 211.062,486.969 211.062C487.334 211.062,487.868 210.837,487.952 210.163C488.626 206.344,491.63 202.806,493.68 199.633C496.235 195.618,498.706 190.816,498.706 185.762C498.706 182.588,497.892 179.724,497.555 178.433C497.443 177.983,497.19 177.815,496.909 177.815C496.32 177.815,495.618 178.601,496.039 179.78"/></g><g class="vf-tabnote" id="vf-auto10133" pointer-events="bounding-box"><rect x="522.303" y="166" width="11.422" height="6" fill="#FFF" stroke="none"/><text stroke="none" x="524.303" y="174">6</text><g class="vf-stem" id="vf-auto10134" pointer-events="bounding-box"><path stroke-width="1.5" fill="none" d="M528.014 177.5L528.014 210.5"/></g><path stroke="none" d="M536.979 179.78C537.541 181.465,537.822 183.487,537.822 185.312C537.822 187.699,536.811 191.097,536.193 192.473C534.705 195.87,532.683 199.128,527.264 200.953L527.264 210.472C527.264 210.865,527.601 211.062,527.909 211.062C528.274 211.062,528.808 210.837,528.892 210.163C529.566 206.344,532.571 202.806,534.621 199.633C537.176 195.618,539.647 190.816,539.647 185.762C539.647 182.588,538.833 179.724,538.496 178.433C538.383 177.983,538.131 177.815,537.85 177.815C537.26 177.815,536.558 178.601,536.979 179.78"/></g><g class="vf-tabnote" id="vf-auto10136" pointer-events="bounding-box"><rect x="563.243" y="166" width="11.422" height="6" fill="#FFF" stroke="none"/><text stroke="none" x="565.243" y="174">6</text><g class="vf-stem" id="vf-auto10137" pointer-events="bounding-box"><path stroke-width="1.5" fill="none" d="M568.954 177.5L568.954 210.5"/></g><path stroke="none" d="M577.92 179.78C578.481 181.465,578.762 183.487,578.762 185.312C578.762 187.699,577.751 191.097,577.133 192.473C575.645 195.87,573.623 199.128,568.204 200.953L568.204 210.472C568.204 210.865,568.541 211.062,568.85 211.062C569.215 211.062,569.748 210.837,569.833 210.163C570.507 206.344,573.511 202.806,575.561 199.633C578.116 195.618,580.587 190.816,580.587 185.762C580.587 182.588,579.773 179.724,579.436 178.433C579.324 177.983,579.071 177.815,578.79 177.815C578.2 177.815,577.498 178.601,577.92 179.78"/></g><g class="vf-stem" id="vf-auto10101" pointer-events="bounding-box"><path stroke-width="1.5" fill="none" d="M78.978 177.5L78.978 209.75"/></g><g class="vf-stem" id="vf-auto10104" pointer-events="bounding-box"><path stroke-width="1.5" fill="none" d="M126.978 177.5L126.978 209.75"/></g><g class="vf-stem" id="vf-auto10107" pointer-events="bounding-box"><path stroke-width="1.5" fill="none" d="M170.967 177.5L170.967 209.75"/></g><g class="vf-stem" id="vf-auto10110" pointer-events="bounding-box"><path stroke-width="1.5" fill="none" d="M210.463 177.5L210.463 209.75"/></g><g class="vf-stem" id="vf-auto10113" pointer-events="bounding-box"><path stroke-width="1.5" fill="none" d="M247.889 177.5L247.889 209.75"/></g><g class="vf-stem" id="vf-auto10116" pointer-events="bounding-box"><path stroke-width="1.5" fill="none" d="M284.32 177.5L284.32 209.75"/></g><g class="vf-beam" id="vf-auto10141"><path stroke="none" d="M78.228 210.5L78.228 205.5L284.57 205.5L284.57 210.5Z"/><path stroke="none" d="M170.217 203L170.217 198L284.57 198L284.57 203Z"/><path stroke="none" d="M209.713 195.5L209.713 190.5L284.57 190.5L284.57 195.5Z"/><path stroke="none" d="M247.139 188L247.139 183L284.57 183L284.57 188Z"/><path stroke="none" d="M283.57 180.5L283.57 175.5L274.57 175.5L274.57 180.5Z"/></g><g class="vf-stem" id="vf-auto10122" pointer-events="bounding-box"><path stroke-width="1.5" fill="none" d="M364.252 177.5L364.252 209.75"/></g><g class="vf-stem" id="vf-auto10125" pointer-events="bounding-box"><path stroke-width="1.5" fill="none" d="M405.192 177.5L405.192 209.75"/></g><g class="vf-stem" id="vf-auto10128" pointer-events="bounding-box"><path stroke-width="1.5" fill="none" d="M446.133 177.5L446.133 209.75"/></g><g class="vf-beam" id="vf-auto10142"><path stroke="none" d="M363.502 210.5L363.502 205.5L446.383 205.5L446.383 210.5Z"/></g><path stroke="none" d="M405.715 214.178C405.683 214.178,405.668 214.178,405.62 214.178L405.462 214.147C405.43 214.147,405.398 214.147,405.367 214.147C403.402 214.147,401.438 215.461,401.438 216.665C401.438 217.41,401.882 218.424,403.292 218.503L403.402 218.503C404.416 218.503,404.907 217.774,404.907 217.03L404.907 216.84C404.844 216,404.274 215.953,404.163 215.905C404.052 215.857,403.703 215.905,403.703 215.588L403.703 215.493C403.751 215.113,404.464 214.923,404.654 214.923C406.602 214.923,406.776 216.143,406.776 216.681L406.776 216.84C406.776 218.534,405.43 219.2,404.004 219.263C403.767 219.279,403.45 219.406,403.45 219.643C403.45 219.928,403.846 219.928,404.02 219.928C406.65 219.928,406.856 221.702,406.856 222.003C406.856 224.411,405.62 224.696,405.113 224.696C405.034 224.696,404.939 224.665,404.907 224.665C404.733 224.649,404.289 224.649,404.274 224.3L404.274 224.189C404.274 223.682,404.781 223.35,404.796 222.685C404.796 221.734,404.131 221.037,403.149 221.037C403.07 221.037,402.991 221.037,402.911 221.069C402.515 221.132,402.088 221.354,401.803 221.655C401.422 222.003,401.312 222.542,401.312 223.049C401.359 224.823,402.975 225.52,405.208 225.552L405.414 225.552C407.679 225.552,409.992 224.395,409.992 222.384L409.992 222.225C409.96 221.56,409.786 221.132,409.358 220.625C409.216 220.451,409.041 220.293,408.82 220.15L408.329 219.881L407.584 219.675C407.473 219.643,407.394 219.643,407.347 219.564C407.331 219.517,407.331 219.485,407.331 219.453C407.331 219.358,407.347 219.263,407.426 219.247C407.679 219.168,407.917 219.152,408.123 219.041C409.041 218.598,409.517 218.012,409.517 216.966C409.517 214.86,406.665 214.242,405.715 214.178"/><rect x="476.362" y="220.5" width="42.311" height="1" stroke="none"/><rect x="537.354" y="220.5" width="42.311" height="1" stroke="none"/><rect x="476.362" y="211.5" width="1" height="10" stroke="none"/><rect x="579.665" y="211.5" width="1" height="10" stroke="none"/><path stroke="none" d="M528.536 214.178C528.505 214.178,528.489 214.178,528.441 214.178L528.283 214.147C528.251 214.147,528.219 214.147,528.188 214.147C526.224 214.147,524.259 215.461,524.259 216.665C524.259 217.41,524.703 218.424,526.113 218.503L526.224 218.503C527.237 218.503,527.728 217.774,527.728 217.03L527.728 216.84C527.665 216,527.095 215.953,526.984 215.905C526.873 215.857,526.525 215.905,526.525 215.588L526.525 215.493C526.572 215.113,527.285 214.923,527.475 214.923C529.423 214.923,529.598 216.143,529.598 216.681L529.598 216.84C529.598 218.534,528.251 219.2,526.826 219.263C526.588 219.279,526.271 219.406,526.271 219.643C526.271 219.928,526.667 219.928,526.841 219.928C529.471 219.928,529.677 221.702,529.677 222.003C529.677 224.411,528.441 224.696,527.934 224.696C527.855 224.696,527.76 224.665,527.728 224.665C527.554 224.649,527.111 224.649,527.095 224.3L527.095 224.189C527.095 223.682,527.602 223.35,527.618 222.685C527.618 221.734,526.952 221.037,525.97 221.037C525.891 221.037,525.812 221.037,525.733 221.069C525.337 221.132,524.909 221.354,524.624 221.655C524.244 222.003,524.133 222.542,524.133 223.049C524.18 224.823,525.796 225.52,528.029 225.552L528.235 225.552C530.5 225.552,532.813 224.395,532.813 222.384L532.813 222.225C532.781 221.56,532.607 221.132,532.179 220.625C532.037 220.451,531.863 220.293,531.641 220.15L531.15 219.881L530.405 219.675C530.295 219.643,530.215 219.643,530.168 219.564C530.152 219.517,530.152 219.485,530.152 219.453C530.152 219.358,530.168 219.263,530.247 219.247C530.5 219.168,530.738 219.152,530.944 219.041C531.863 218.598,532.338 218.012,532.338 216.966C532.338 214.86,529.487 214.242,528.536 214.178"/></svg>