<svg xmlns="http://www.w3.org/2000/svg" stroke-width="0.3" stroke-dasharray="none" fill="black" stroke="black" font-family="Arial, sans-serif" font-size="10pt" font-weight="normal" font-style="normal" width="350" height="140" viewBox="0 0 350 140" style="width: 350px; height: 140px; border: none;"><g class="vf-stave" id="vf-auto3281" stroke-width="1" fill="#999999" stroke="#999999"><path fill="none" d="M0 60L340 60"/><path fill="none" d="M0 70L340 70"/><path fill="none" d="M0 80L340 80"/><path fill="none" d="M0 90L340 90"/><path fill="none" d="M0 100L340 100"/></g><g class="vf-stavebarline" id="vf-auto3282"><rect y="59.5" width="1" height="41" stroke="none"/></g><g class="vf-stavebarline" id="vf-auto3283"><rect x="340" y="59.5" width="1" height="41" stroke="none"/></g><g class="vf-stavenote" id="vf-auto3284"><g class="vf-notehead" id="vf-auto3358" pointer-events="bounding-box"><path stroke="none" d="M20.931 90.054C24.525 90.054,28.934 86.741,28.934 83.315C28.934 81.237,27.305 79.946,25.003 79.946C20.566 79.946,17 83.231,17 86.685C17 88.791,18.741 90.054,20.931 90.054"/></g></g><g class="vf-stavenote" id="vf-auto3290"><g class="vf-notehead" id="vf-auto3360" pointer-events="bounding-box"><path stroke="none" d="M47.514 85.054C51.108 85.054,55.516 81.741,55.516 78.315C55.516 76.237,53.888 74.946,51.585 74.946C47.149 74.946,43.582 78.231,43.582 81.685C43.582 83.791,45.323 85.054,47.514 85.054"/></g></g><g class="vf-stavenote" id="vf-auto3296"><g class="vf-notehead" id="vf-auto3363" pointer-events="bounding-box"><path stroke="none" d="M74.096 95.054C77.69 95.054,82.099 91.741,82.099 88.315C82.099 86.237,80.47 84.946,78.167 84.946C73.731 84.946,70.165 88.231,70.165 91.685C70.165 93.791,71.906 95.054,74.096 95.054"/></g></g><g class="vf-stavenote" id="vf-auto3302"><g class="vf-notehead" id="vf-auto3365" pointer-events="bounding-box"><path stroke="none" d="M100.678 80.054C104.272 80.054,108.681 76.741,108.681 73.315C108.681 71.237,107.052 69.946,104.75 69.946C100.313 69.946,96.747 73.231,96.747 76.685C96.747 78.791,98.488 80.054,100.678 80.054"/></g></g><g class="vf-stavenote" id="vf-auto3308"><g class="vf-notehead" id="vf-auto3368" pointer-events="bounding-box"><path stroke="none" d="M127.261 100.054C130.855 100.054,135.263 96.741,135.263 93.315C135.263 91.237,133.635 89.946,131.332 89.946C126.896 89.946,123.329 93.231,123.329 96.685C123.329 98.791,125.07 100.054,127.261 100.054"/></g></g><g class="vf-stavenote" id="vf-auto3314"><g class="vf-notehead" id="vf-auto3370" pointer-events="bounding-box"><path stroke="none" d="M153.843 75.054C157.437 75.054,161.846 71.741,161.846 68.315C161.846 66.237,160.217 64.946,157.915 64.946C153.478 64.946,149.912 68.231,149.912 71.685C149.912 73.791,151.653 75.054,153.843 75.054"/></g></g><g class="vf-stavenote" id="vf-auto3320"><g class="vf-notehead" id="vf-auto3373" pointer-events="bounding-box"><path stroke="none" d="M180.425 105.054C184.02 105.054,188.428 101.741,188.428 98.315C188.428 96.237,186.799 94.946,184.497 94.946C180.06 94.946,176.494 98.231,176.494 101.685C176.494 103.791,178.235 105.054,180.425 105.054"/></g></g><g class="vf-stavenote" id="vf-auto3326"><g class="vf-notehead" id="vf-auto3375" pointer-events="bounding-box"><path stroke="none" d="M207.008 70.054C210.602 70.054,215.01 66.741,215.01 63.315C215.01 61.237,213.382 59.946,211.079 59.946C206.643 59.946,203.076 63.231,203.076 66.685C203.076 68.791,204.817 70.054,207.008 70.054"/></g></g><g class="vf-stavenote" id="vf-auto3332"><g class="vf-notehead" id="vf-auto3378" pointer-events="bounding-box"><path stroke="none" d="M233.59 85.054C237.184 85.054,241.593 81.741,241.593 78.315C241.593 76.237,239.964 74.946,237.662 74.946C233.225 74.946,229.659 78.231,229.659 81.685C229.659 83.791,231.4 85.054,233.59 85.054"/></g></g><g class="vf-stavenote" id="vf-auto3338"><g class="vf-notehead" id="vf-auto3380" pointer-events="bounding-box"><path stroke="none" d="M260.172 85.054C263.767 85.054,268.175 81.741,268.175 78.315C268.175 76.237,266.546 74.946,264.244 74.946C259.807 74.946,256.241 78.231,256.241 81.685C256.241 83.791,257.982 85.054,260.172 85.054"/></g></g><g class="vf-stavenote" id="vf-auto3344"><g class="vf-notehead" id="vf-auto3383" pointer-events="bounding-box"><path stroke="none" d="M286.755 95.054C290.349 95.054,294.757 91.741,294.757 88.315C294.757 86.237,293.129 84.946,290.826 84.946C286.39 84.946,282.823 88.231,282.823 91.685C282.823 93.791,284.564 95.054,286.755 95.054"/></g></g><g class="vf-stavenote" id="vf-auto3350"><g class="vf-notehead" id="vf-auto3385" pointer-events="bounding-box"><path stroke="none" d="M313.337 75.054C316.931 75.054,321.34 71.741,321.34 68.315C321.34 66.237,319.711 64.946,317.409 64.946C312.972 64.946,309.406 68.231,309.406 71.685C309.406 73.791,311.147 75.054,313.337 75.054"/></g></g><g class="vf-stem" id="vf-auto3285" pointer-events="bounding-box"><path stroke-width="1.5" fill="none" d="M28.184 83L28.184 48.408"/></g><g class="vf-stem" id="vf-auto3291" pointer-events="bounding-box"><path stroke-width="1.5" fill="none" d="M54.766 78L54.766 45.75"/></g><g class="vf-beam" id="vf-auto3357"><path stroke="none" d="M27.434 47.733L27.434 52.733L55.016 50.075L55.016 45.075Z"/></g><g class="vf-stem" id="vf-auto3297" pointer-events="bounding-box"><path stroke-width="1.5" fill="none" d="M81.349 88L81.349 47.396"/></g><g class="vf-stem" id="vf-auto3303" pointer-events="bounding-box"><path stroke-width="1.5" fill="none" d="M107.931 73L107.931 40.75"/></g><g class="vf-beam" id="vf-auto3362"><path stroke="none" d="M80.599 46.833L80.599 51.833L108.181 45.188L108.181 40.188Z"/></g><g class="vf-stem" id="vf-auto3309" pointer-events="bounding-box"><path stroke-width="1.5" fill="none" d="M134.513 93L134.513 42.396"/></g><g class="vf-stem" id="vf-auto3315" pointer-events="bounding-box"><path stroke-width="1.5" fill="none" d="M161.096 68L161.096 35.75"/></g><g class="vf-beam" id="vf-auto3367"><path stroke="none" d="M133.763 41.833L133.763 46.833L161.346 40.188L161.346 35.188Z"/></g><g class="vf-stem" id="vf-auto3321" pointer-events="bounding-box"><path stroke-width="1.5" fill="none" d="M187.678 98L187.678 37.396"/></g><g class="vf-stem" id="vf-auto3327" pointer-events="bounding-box"><path stroke-width="1.5" fill="none" d="M214.26 63L214.26 30.75"/></g><g class="vf-beam" id="vf-auto3372"><path stroke="none" d="M186.928 36.833L186.928 41.833L214.51 35.188L214.51 30.188Z"/></g><g class="vf-stem" id="vf-auto3333" pointer-events="bounding-box"><path stroke-width="1.5" fill="none" d="M230.409 82L230.409 114.25"/></g><g class="vf-stem" id="vf-auto3339" pointer-events="bounding-box"><path stroke-width="1.5" fill="none" d="M256.991 82L256.991 114.25"/></g><g class="vf-beam" id="vf-auto3377"><path stroke="none" d="M229.659 115L229.659 110L257.241 110L257.241 115Z"/></g><g class="vf-stem" id="vf-auto3345" pointer-events="bounding-box"><path stroke-width="1.5" fill="none" d="M283.573 92L283.573 124.25"/></g><g class="vf-stem" id="vf-auto3351" pointer-events="bounding-box"><path stroke-width="1.5" fill="none" d="M310.156 72L310.156 117.604"/></g><g class="vf-beam" id="vf-auto3382"><path stroke="none" d="M282.823 125.188L282.823 120.188L310.406 113.542L310.406 118.542Z"/></g></svg>