<svg xmlns="http://www.w3.org/2000/svg" stroke-width="0.3" stroke-dasharray="none" fill="black" stroke="black" font-family="Arial, sans-serif" font-size="10pt" font-weight="normal" font-style="normal" width="400" height="195" viewBox="0 0 400 195" style="width: 400px; height: 195px; border: none;"><g class="vf-stave" id="vf-auto5911" stroke-width="1" fill="#999999" stroke="#999999"><path fill="none" d="M50 70L200 70"/><path fill="none" d="M50 80L200 80"/><path fill="none" d="M50 90L200 90"/><path fill="none" d="M50 100L200 100"/><path fill="none" d="M50 110L200 110"/></g><g class="vf-stavebarline" id="vf-auto5912"><rect x="50" y="69.5" width="1" height="41" stroke="none"/></g><g class="vf-stavebarline" id="vf-auto5913"/><g class="vf-stavenote" id="vf-auto5882"><path stroke-width="1.4" fill="none" stroke="#444" d="M66.551 120L86.059 120"/><g class="vf-stem" id="vf-auto5883" pointer-events="bounding-box"><path stroke-width="1.5" fill="none" d="M82.309 118L82.309 85"/></g><g class="vf-notehead" id="vf-auto5885" pointer-events="bounding-box"><path stroke="none" d="M72.696 126.543C72.977 126.599,73.23 126.627,73.51 126.627C77.385 126.627,83.17 121.348,83.058 117.08C82.945 116.041,82.973 114.609,80.867 113.766C80.278 113.485,79.632 113.373,78.93 113.373C74.605 113.373,69.916 118.343,69.579 121.657C69.579 121.909,69.551 122.134,69.551 122.387C69.551 124.409,70.45 126.037,72.696 126.543"/><path stroke="none" d="M68.072 64.802C68.811 64.064,68.948 63.079,69.14 62.121C69.523 60.124,70.042 58.181,71.465 56.567C72.45 55.418,73.544 54.351,74.776 53.503C75.542 52.928,76.308 52.654,77.211 52.545C77.813 52.545,78.223 52.873,78.852 53.284C81.506 55.199,83.312 57.525,83.504 60.89C83.504 61.136,83.285 61.492,83.285 61.765L83.285 62.668C83.312 63.024,83.12 63.571,83.476 63.708C83.941 63.899,84.27 63.434,84.488 63.079C84.653 62.832,84.735 62.559,84.817 62.285C85.063 61.464,85.118 60.616,85.255 59.768C85.364 59.002,85.391 58.291,85.61 57.47C85.61 54.515,84.461 51.916,82.327 49.563C80.904 47.976,79.372 47.319,77.84 47.182C76.964 47.182,75.897 47.456,74.967 47.784C73.435 48.304,72.477 49.59,71.41 50.685C69.331 52.873,67.717 55.308,67.115 58.263C67.005 59.002,66.923 59.713,67.115 60.315C67.115 61.683,67.115 63.188,67.279 64.556C67.334 64.912,67.443 65.076,67.799 64.966C67.963 64.966,67.908 64.966,68.072 64.802M76.253 64.064C76.581 64.091,76.773 64.091,77.129 63.982C77.594 63.982,77.402 63.899,77.402 63.024C77.457 62.914,77.457 62.75,77.648 62.504C77.648 62.039,77.238 61.738,76.746 61.464C75.98 61.054,75.213 60.808,74.365 60.862C73.9 60.862,73.244 60.78,73.161 61.656C73.079 62.86,73.353 63.544,74.146 63.763C74.858 63.982,75.542 63.982,76.253 64.064"/></g></g><g class="vf-stavenote" id="vf-auto5886"><g class="vf-stem" id="vf-auto5887" pointer-events="bounding-box"><path stroke-width="1.5" fill="none" d="M114.957 93L114.957 60"/></g><g class="vf-notehead" id="vf-auto5889" pointer-events="bounding-box"><path stroke="none" d="M105.344 101.543C105.625 101.599,105.877 101.627,106.158 101.627C110.033 101.627,115.818 96.348,115.705 92.08C115.593 91.041,115.621 89.609,113.515 88.766C112.926 88.485,112.28 88.373,111.578 88.373C107.253 88.373,102.564 93.343,102.227 96.657C102.227 96.909,102.199 97.134,102.199 97.387C102.199 99.409,103.098 101.037,105.344 101.543"/><path stroke="none" d="M100.72 54.802C101.459 54.064,101.596 53.079,101.787 52.121C102.171 50.124,102.69 48.181,104.113 46.567C105.098 45.418,106.192 44.351,107.424 43.503C108.19 42.928,108.956 42.654,109.859 42.545C110.461 42.545,110.871 42.873,111.5 43.284C114.154 45.199,115.96 47.525,116.151 50.89C116.151 51.136,115.933 51.492,115.933 51.765L115.933 52.668C115.96 53.024,115.768 53.571,116.124 53.708C116.589 53.899,116.918 53.434,117.136 53.079C117.301 52.832,117.383 52.559,117.465 52.285C117.711 51.464,117.766 50.616,117.903 49.768C118.012 49.002,118.039 48.291,118.258 47.47C118.258 44.515,117.109 41.916,114.975 39.563C113.552 37.976,112.02 37.319,110.488 37.182C109.612 37.182,108.545 37.456,107.615 37.784C106.083 38.304,105.125 39.59,104.058 40.685C101.979 42.873,100.365 45.308,99.763 48.263C99.653 49.002,99.571 49.713,99.763 50.315C99.763 51.683,99.763 53.188,99.927 54.556C99.982 54.912,100.091 55.076,100.447 54.966C100.611 54.966,100.556 54.966,100.72 54.802M108.901 54.064C109.229 54.091,109.421 54.091,109.777 53.982C110.242 53.982,110.05 53.899,110.05 53.024C110.105 52.914,110.105 52.75,110.296 52.504C110.296 52.039,109.886 51.738,109.394 51.464C108.627 51.054,107.861 50.808,107.013 50.862C106.548 50.862,105.891 50.78,105.809 51.656C105.727 52.86,106.001 53.544,106.794 53.763C107.506 53.982,108.19 53.982,108.901 54.064"/></g></g><g class="vf-stavenote" id="vf-auto5890"><path stroke-width="1.4" fill="none" stroke="#444" d="M131.847 120L151.355 120"/><g class="vf-stem" id="vf-auto5891" pointer-events="bounding-box"><path stroke-width="1.5" fill="none" d="M135.597 122L135.597 155"/></g><g class="vf-notehead" id="vf-auto5893" pointer-events="bounding-box"><path stroke="none" d="M137.992 126.543C138.273 126.599,138.525 126.627,138.806 126.627C142.681 126.627,148.466 121.348,148.353 117.08C148.241 116.041,148.269 114.609,146.163 113.766C145.574 113.485,144.928 113.373,144.226 113.373C139.901 113.373,135.212 118.343,134.875 121.657C134.875 121.909,134.847 122.134,134.847 122.387C134.847 124.409,135.746 126.037,137.992 126.543"/><path stroke="none" d="M140.804 176.852C142.391 176.496,143.759 175.785,145.072 174.882C147.945 172.912,149.477 169.985,150.9 166.948C151.557 165.607,151.912 164.212,151.803 162.707C151.748 162.269,151.748 161.64,151.283 161.64C150.845 161.64,150.38 161.886,150.216 162.433C150.189 162.652,150.079 162.816,149.942 163.008C149.122 165.033,148.109 166.92,146.769 168.617C145.51 170.231,143.923 171.408,141.981 172.037C141.433 172.228,140.886 172.31,140.366 172.31C138.889 172.31,137.548 171.599,136.317 170.587C134.429 169.055,133.28 167.194,133.28 164.923C133.28 164.403,133.335 163.884,133.444 163.336C133.526 162.789,133.691 162.187,133.691 161.613C133.691 161.448,133.691 161.257,133.636 161.093C133.554 160.737,133.636 160.135,133.253 160.053C132.733 160.026,132.295 160.354,132.104 160.901C132.049 161.093,131.994 161.257,131.94 161.448C131.639 162.953,131.31 164.431,131.392 166.127C131.42 169.547,132.131 172.83,135.25 175.156C136.645 176.168,138.041 176.962,139.71 176.962C140.065 176.962,140.421 176.934,140.804 176.852M142.747 165.224C143.13 165.279,143.294 165.06,143.294 164.321C143.294 162.379,141.762 160.764,139.819 160.764C139.245 160.764,138.834 160.983,138.807 161.284C138.752 161.531,138.752 161.722,138.752 161.914C138.752 163.528,139.655 164.677,141.351 165.033"/></g></g><g class="vf-stavenote" id="vf-auto5894"><g class="vf-stem" id="vf-auto5895" pointer-events="bounding-box"><path stroke-width="1.5" fill="none" d="M168.245 97L168.245 130"/></g><g class="vf-notehead" id="vf-auto5897" pointer-events="bounding-box"><path stroke="none" d="M170.64 101.543C170.921 101.599,171.173 101.627,171.454 101.627C175.329 101.627,181.114 96.348,181.001 92.08C180.889 91.041,180.917 89.609,178.811 88.766C178.221 88.485,177.576 88.373,176.874 88.373C172.549 88.373,167.86 93.343,167.523 96.657C167.523 96.909,167.495 97.134,167.495 97.387C167.495 99.409,168.393 101.037,170.64 101.543"/><path stroke="none" d="M173.452 151.852C175.039 151.496,176.407 150.785,177.72 149.882C180.593 147.912,182.125 144.985,183.548 141.948C184.205 140.607,184.56 139.212,184.451 137.707C184.396 137.269,184.396 136.64,183.931 136.64C183.493 136.64,183.028 136.886,182.864 137.433C182.837 137.652,182.727 137.816,182.59 138.008C181.77 140.033,180.757 141.92,179.417 143.617C178.158 145.231,176.571 146.408,174.629 147.037C174.081 147.228,173.534 147.31,173.014 147.31C171.537 147.31,170.196 146.599,168.965 145.587C167.077 144.055,165.928 142.194,165.928 139.923C165.928 139.403,165.983 138.884,166.092 138.336C166.174 137.789,166.339 137.187,166.339 136.613C166.339 136.448,166.339 136.257,166.284 136.093C166.202 135.737,166.284 135.135,165.901 135.053C165.381 135.026,164.943 135.354,164.752 135.901C164.697 136.093,164.642 136.257,164.587 136.448C164.287 137.953,163.958 139.431,164.04 141.127C164.068 144.547,164.779 147.83,167.898 150.156C169.293 151.168,170.689 151.962,172.358 151.962C172.713 151.962,173.069 151.934,173.452 151.852M175.395 140.224C175.778 140.279,175.942 140.06,175.942 139.321C175.942 137.379,174.41 135.764,172.467 135.764C171.893 135.764,171.482 135.983,171.455 136.284C171.4 136.531,171.4 136.722,171.4 136.914C171.4 138.528,172.303 139.677,173.999 140.033"/></g></g><g class="vf-stave" id="vf-auto5943" stroke-width="1" fill="#999999" stroke="#999999"><path fill="none" d="M200 70L350 70"/><path fill="none" d="M200 80L350 80"/><path fill="none" d="M200 90L350 90"/><path fill="none" d="M200 100L350 100"/><path fill="none" d="M200 110L350 110"/></g><g class="vf-stavebarline" id="vf-auto5944"><rect x="200" y="69.5" width="1" height="41" stroke="none"/></g><g class="vf-stavebarline" id="vf-auto5945"><rect x="347" y="69.5" width="1" height="41" stroke="none"/><rect x="350" y="69.5" width="1" height="41" stroke="none"/></g><g class="vf-stavenote" id="vf-auto5914"><g class="vf-stem" id="vf-auto5915" pointer-events="bounding-box"><path stroke-width="1.5" fill="none" d="M232.309 83L232.309 50"/></g><g class="vf-notehead" id="vf-auto5917" pointer-events="bounding-box"><path stroke="none" d="M222.696 91.543C222.977 91.599,223.23 91.627,223.51 91.627C227.385 91.627,233.17 86.348,233.058 82.08C232.945 81.041,232.973 79.609,230.867 78.766C230.278 78.485,229.632 78.373,228.93 78.373C224.605 78.373,219.916 83.343,219.579 86.657C219.579 86.909,219.551 87.134,219.551 87.387C219.551 89.409,220.45 91.037,222.696 91.543"/><path stroke="none" d="M218.072 44.802C218.811 44.064,218.948 43.079,219.14 42.121C219.523 40.124,220.042 38.181,221.465 36.567C222.45 35.418,223.544 34.351,224.776 33.503C225.542 32.928,226.308 32.654,227.211 32.545C227.813 32.545,228.223 32.873,228.852 33.284C231.506 35.199,233.312 37.525,233.504 40.89C233.504 41.136,233.285 41.492,233.285 41.765L233.285 42.668C233.312 43.024,233.12 43.571,233.476 43.708C233.941 43.899,234.27 43.434,234.488 43.079C234.653 42.832,234.735 42.559,234.817 42.285C235.063 41.464,235.118 40.616,235.255 39.768C235.364 39.002,235.391 38.291,235.61 37.47C235.61 34.515,234.461 31.916,232.327 29.563C230.904 27.976,229.372 27.319,227.84 27.182C226.964 27.182,225.897 27.456,224.967 27.784C223.435 28.304,222.477 29.59,221.41 30.685C219.331 32.873,217.717 35.308,217.115 38.263C217.005 39.002,216.923 39.713,217.115 40.315C217.115 41.683,217.115 43.188,217.279 44.556C217.334 44.912,217.443 45.076,217.799 44.966C217.963 44.966,217.908 44.966,218.072 44.802M226.253 44.064C226.581 44.091,226.773 44.091,227.129 43.982C227.594 43.982,227.402 43.899,227.402 43.024C227.457 42.914,227.457 42.75,227.648 42.504C227.648 42.039,227.238 41.738,226.746 41.464C225.98 41.054,225.213 40.808,224.365 40.862C223.9 40.862,223.244 40.78,223.161 41.656C223.079 42.86,223.353 43.544,224.146 43.763C224.858 43.982,225.542 43.982,226.253 44.064"/></g></g><g class="vf-stavenote" id="vf-auto5918"><path stroke-width="1.4" fill="none" stroke="#444" d="M249.199 60L268.707 60"/><g class="vf-stem" id="vf-auto5919" pointer-events="bounding-box"><path stroke-width="1.5" fill="none" d="M264.957 58L264.957 25"/></g><g class="vf-notehead" id="vf-auto5921" pointer-events="bounding-box"><path stroke="none" d="M255.344 66.543C255.625 66.599,255.877 66.627,256.158 66.627C260.033 66.627,265.818 61.348,265.705 57.08C265.593 56.041,265.621 54.609,263.515 53.766C262.926 53.485,262.28 53.373,261.578 53.373C257.253 53.373,252.564 58.343,252.227 61.657C252.227 61.909,252.199 62.134,252.199 62.387C252.199 64.409,253.098 66.037,255.344 66.543"/><path stroke="none" d="M250.72 19.802C251.459 19.064,251.596 18.079,251.787 17.121C252.171 15.124,252.69 13.181,254.113 11.567C255.098 10.418,256.192 9.351,257.424 8.503C258.19 7.928,258.956 7.654,259.859 7.545C260.461 7.545,260.871 7.873,261.5 8.284C264.154 10.199,265.96 12.525,266.151 15.89C266.151 16.136,265.933 16.492,265.933 16.765L265.933 17.668C265.96 18.024,265.768 18.571,266.124 18.708C266.589 18.899,266.918 18.434,267.136 18.079C267.301 17.832,267.383 17.559,267.465 17.285C267.711 16.464,267.766 15.616,267.903 14.768C268.012 14.002,268.039 13.291,268.258 12.47C268.258 9.515,267.109 6.916,264.975 4.563C263.552 2.976,262.02 2.319,260.488 2.182C259.612 2.182,258.545 2.456,257.615 2.784C256.083 3.304,255.125 4.59,254.058 5.685C251.979 7.873,250.365 10.308,249.763 13.263C249.653 14.002,249.571 14.713,249.763 15.315C249.763 16.683,249.763 18.188,249.927 19.556C249.982 19.912,250.091 20.076,250.447 19.966C250.611 19.966,250.556 19.966,250.72 19.802M258.901 19.064C259.229 19.091,259.421 19.091,259.777 18.982C260.242 18.982,260.05 18.899,260.05 18.024C260.105 17.914,260.105 17.75,260.296 17.504C260.296 17.039,259.886 16.738,259.394 16.464C258.627 16.054,257.861 15.808,257.013 15.862C256.548 15.862,255.891 15.78,255.809 16.656C255.727 17.86,256.001 18.544,256.794 18.763C257.506 18.982,258.19 18.982,258.901 19.064"/></g></g><g class="vf-stavenote" id="vf-auto5922"><g class="vf-stem" id="vf-auto5923" pointer-events="bounding-box"><path stroke-width="1.5" fill="none" d="M285.597 87L285.597 120"/></g><g class="vf-notehead" id="vf-auto5925" pointer-events="bounding-box"><path stroke="none" d="M287.992 91.543C288.273 91.599,288.525 91.627,288.806 91.627C292.681 91.627,298.466 86.348,298.353 82.08C298.241 81.041,298.269 79.609,296.163 78.766C295.574 78.485,294.928 78.373,294.226 78.373C289.901 78.373,285.212 83.343,284.875 86.657C284.875 86.909,284.847 87.134,284.847 87.387C284.847 89.409,285.746 91.037,287.992 91.543"/><path stroke="none" d="M290.804 141.852C292.391 141.496,293.759 140.785,295.072 139.882C297.945 137.912,299.477 134.985,300.9 131.948C301.557 130.607,301.912 129.212,301.803 127.707C301.748 127.269,301.748 126.64,301.283 126.64C300.845 126.64,300.38 126.886,300.216 127.433C300.189 127.652,300.079 127.816,299.942 128.008C299.122 130.033,298.109 131.92,296.769 133.617C295.51 135.231,293.923 136.408,291.981 137.037C291.433 137.228,290.886 137.31,290.366 137.31C288.889 137.31,287.548 136.599,286.317 135.587C284.429 134.055,283.28 132.194,283.28 129.923C283.28 129.403,283.335 128.884,283.444 128.336C283.526 127.789,283.691 127.187,283.691 126.613C283.691 126.448,283.691 126.257,283.636 126.093C283.554 125.737,283.636 125.135,283.253 125.053C282.733 125.026,282.295 125.354,282.104 125.901C282.049 126.093,281.994 126.257,281.94 126.448C281.639 127.953,281.31 129.431,281.392 131.127C281.42 134.547,282.131 137.83,285.25 140.156C286.645 141.168,288.041 141.962,289.71 141.962C290.065 141.962,290.421 141.934,290.804 141.852M292.747 130.224C293.13 130.279,293.294 130.06,293.294 129.321C293.294 127.379,291.762 125.764,289.819 125.764C289.245 125.764,288.834 125.983,288.807 126.284C288.752 126.531,288.752 126.722,288.752 126.914C288.752 128.528,289.655 129.677,291.351 130.033"/></g></g><g class="vf-stavenote" id="vf-auto5926"><path stroke-width="1.4" fill="none" stroke="#444" d="M314.495 60L334.003 60"/><g class="vf-stem" id="vf-auto5927" pointer-events="bounding-box"><path stroke-width="1.5" fill="none" d="M318.245 62L318.245 95"/></g><g class="vf-notehead" id="vf-auto5929" pointer-events="bounding-box"><path stroke="none" d="M320.64 66.543C320.921 66.599,321.173 66.627,321.454 66.627C325.329 66.627,331.114 61.348,331.001 57.08C330.889 56.041,330.917 54.609,328.811 53.766C328.221 53.485,327.576 53.373,326.874 53.373C322.549 53.373,317.86 58.343,317.523 61.657C317.523 61.909,317.495 62.134,317.495 62.387C317.495 64.409,318.393 66.037,320.64 66.543"/><path stroke="none" d="M323.452 131.852C325.039 131.496,326.407 130.785,327.72 129.882C330.593 127.912,332.125 124.985,333.548 121.948C334.205 120.607,334.56 119.212,334.451 117.707C334.396 117.269,334.396 116.64,333.931 116.64C333.493 116.64,333.028 116.886,332.864 117.433C332.837 117.652,332.727 117.816,332.59 118.008C331.77 120.033,330.757 121.92,329.417 123.617C328.158 125.231,326.571 126.408,324.629 127.037C324.081 127.228,323.534 127.31,323.014 127.31C321.537 127.31,320.196 126.599,318.965 125.587C317.077 124.055,315.928 122.194,315.928 119.923C315.928 119.403,315.983 118.884,316.092 118.336C316.174 117.789,316.339 117.187,316.339 116.613C316.339 116.448,316.339 116.257,316.284 116.093C316.202 115.737,316.284 115.135,315.901 115.053C315.381 115.026,314.943 115.354,314.752 115.901C314.697 116.093,314.642 116.257,314.587 116.448C314.287 117.953,313.958 119.431,314.04 121.127C314.068 124.547,314.779 127.83,317.898 130.156C319.293 131.168,320.689 131.962,322.358 131.962C322.713 131.962,323.069 131.934,323.452 131.852M325.395 120.224C325.778 120.279,325.942 120.06,325.942 119.321C325.942 117.379,324.41 115.764,322.467 115.764C321.893 115.764,321.482 115.983,321.455 116.284C321.4 116.531,321.4 116.722,321.4 116.914C321.4 118.528,322.303 119.677,323.999 120.033"/></g></g></svg>