<svg xmlns="http://www.w3.org/2000/svg" stroke-width="0.3" stroke-dasharray="none" fill="black" stroke="black" font-family="Arial, sans-serif" font-size="10pt" font-weight="normal" font-style="normal" width="500" height="200" viewBox="0 0 500 200" style="width: 500px; height: 200px; border: none;"><g class="vf-stave" id="vf-auto10144" stroke-width="1" fill="#999999" stroke="#999999"><path fill="none" d="M10 50L107.822 50"/><path fill="none" d="M10 60L107.822 60"/><path fill="none" d="M10 70L107.822 70"/><path fill="none" d="M10 80L107.822 80"/><path fill="none" d="M10 90L107.822 90"/></g><g class="vf-stavebarline" id="vf-auto10145"/><g class="vf-stavebarline" id="vf-auto10146"><rect x="107.822" y="49.5" width="1" height="41" stroke="none"/></g><g class="vf-stavenote" id="vf-auto10117"><path stroke-width="1.4" fill="none" stroke="#444" d="M32 100L49.934 100"/><g class="vf-stem" id="vf-auto10118" pointer-events="bounding-box"><path stroke-width="1.5" fill="none" d="M46.184 98L46.184 65"/></g><g class="vf-notehead" id="vf-auto10120" pointer-events="bounding-box"><path stroke="none" d="M38.931 105.054C42.525 105.054,46.934 101.741,46.934 98.315C46.934 96.237,45.305 94.946,43.003 94.946C38.566 94.946,35 98.231,35 101.685C35 103.791,36.741 105.054,38.931 105.054"/><text stroke="none" font-size="9pt" font-weight="bold" x="26" y="105">1</text></g></g><g class="vf-stavenote" id="vf-auto10122"><g class="vf-stem" id="vf-auto10123" pointer-events="bounding-box"><path stroke-width="1.5" fill="none" d="M61.906 88L61.906 55"/></g><g class="vf-notehead" id="vf-auto10125" pointer-events="bounding-box"><path stroke="none" d="M54.653 95.054C58.248 95.054,62.656 91.741,62.656 88.315C62.656 86.237,61.027 84.946,58.725 84.946C54.288 84.946,50.722 88.231,50.722 91.685C50.722 93.791,52.463 95.054,54.653 95.054"/><text stroke="none" font-size="9pt" font-weight="bold" x="52.689" y="83">3</text></g></g><g class="vf-stavenote" id="vf-auto10127"><g class="vf-stem" id="vf-auto10128" pointer-events="bounding-box"><path stroke-width="1.5" fill="none" d="M77.628 78L77.628 45"/></g><g class="vf-notehead" id="vf-auto10130" pointer-events="bounding-box"><path stroke="none" d="M70.375 85.054C73.97 85.054,78.378 81.741,78.378 78.315C78.378 76.237,76.75 74.946,74.447 74.946C70.01 74.946,66.444 78.231,66.444 81.685C66.444 83.791,68.185 85.054,70.375 85.054"/><text stroke="none" font-size="9pt" font-weight="bold" x="70.411" y="95">5</text></g></g><g class="vf-stavenote" id="vf-auto10132"><path stroke-width="1.4" fill="none" stroke="#444" d="M85.378 100L103.312 100"/><g class="vf-stem" id="vf-auto10133" pointer-events="bounding-box"><path stroke-width="1.5" fill="none" d="M99.562 98L99.562 45"/></g><g class="vf-notehead" id="vf-auto10137" pointer-events="bounding-box"><path stroke="none" d="M92.309 105.054C95.904 105.054,100.312 101.741,100.312 98.315C100.312 96.237,98.684 94.946,96.381 94.946C91.944 94.946,88.378 98.231,88.378 101.685C88.378 103.791,90.119 105.054,92.309 105.054"/><text stroke="none" font-size="9pt" font-weight="bold" x="79.378" y="105">1</text></g><g class="vf-notehead" id="vf-auto10138" pointer-events="bounding-box"><path stroke="none" d="M92.309 95.054C95.904 95.054,100.312 91.741,100.312 88.315C100.312 86.237,98.684 84.946,96.381 84.946C91.944 84.946,88.378 88.231,88.378 91.685C88.378 93.791,90.119 95.054,92.309 95.054"/><text stroke="none" font-size="9pt" font-weight="bold" x="79.378" y="95">3</text></g><g class="vf-notehead" id="vf-auto10139" pointer-events="bounding-box"><path stroke="none" d="M92.309 85.054C95.904 85.054,100.312 81.741,100.312 78.315C100.312 76.237,98.684 74.946,96.381 74.946C91.944 74.946,88.378 78.231,88.378 81.685C88.378 83.791,90.119 85.054,92.309 85.054"/><text stroke="none" font-size="9pt" font-weight="bold" x="79.378" y="85">5</text></g></g></svg>