<svg xmlns="http://www.w3.org/2000/svg" stroke-width="0.3" stroke-dasharray="none" fill="black" stroke="black" font-family="Arial, sans-serif" font-size="10pt" font-weight="normal" font-style="normal" width="450" height="140" viewBox="0 0 450 140" style="width: 450px; height: 140px; border: none;"><g class="vf-stave" id="vf-auto16479" stroke-width="1" fill="#999999" stroke="#999999"><path fill="none" d="M0 80L440 80"/><path fill="none" d="M0 90L440 90"/><path fill="none" d="M0 100L440 100"/><path fill="none" d="M0 110L440 110"/><path fill="none" d="M0 120L440 120"/></g><g class="vf-stavebarline" id="vf-auto16480"><rect y="79.5" width="1" height="41" stroke="none"/></g><g class="vf-stavebarline" id="vf-auto16481"><rect x="440" y="79.5" width="1" height="41" stroke="none"/></g><g class="vf-stavenote" id="vf-auto16482"><path stroke-width="1.4" fill="none" stroke="#444" d="M14 130L31.99 130"/><g class="vf-notehead" id="vf-auto16577" pointer-events="bounding-box"><path stroke="none" d="M24.104 124.889C24.188 124.889,24.273 124.889,24.413 124.889C24.778 124.889,25.312 124.918,25.508 124.946C27.839 125.283,28.99 126.827,28.99 128.624C28.99 130.534,27.698 132.724,25.115 134.128C23.852 134.802,22.56 135.111,21.38 135.111C19.218 135.111,17.449 134.044,17.084 132.162C17.028 131.881,17 131.629,17 131.376C17 128.343,20.257 125.283,24.104 124.889"/></g></g><g class="vf-stavenote" id="vf-auto16488"><g class="vf-notehead" id="vf-auto16579" pointer-events="bounding-box"><path stroke="none" d="M54.806 104.889C54.89 104.889,54.975 104.889,55.115 104.889C55.48 104.889,56.014 104.918,56.21 104.946C58.541 105.283,59.692 106.827,59.692 108.624C59.692 110.534,58.4 112.724,55.817 114.128C54.553 114.802,53.262 115.111,52.082 115.111C49.92 115.111,48.151 114.044,47.786 112.162C47.73 111.881,47.702 111.629,47.702 111.376C47.702 108.343,50.959 105.283,54.806 104.889"/></g></g><g class="vf-stavenote" id="vf-auto16494"><g class="vf-notehead" id="vf-auto16581" pointer-events="bounding-box"><path stroke="none" d="M85.508 74.889C85.592 74.889,85.677 74.889,85.817 74.889C86.182 74.889,86.716 74.918,86.912 74.946C89.243 75.283,90.394 76.827,90.394 78.624C90.394 80.534,89.102 82.724,86.519 84.128C85.255 84.802,83.964 85.111,82.784 85.111C80.622 85.111,78.853 84.044,78.488 82.162C78.432 81.881,78.404 81.629,78.404 81.376C78.404 78.343,81.661 75.283,85.508 74.889"/></g></g><g class="vf-stavenote" id="vf-auto16503"><g class="vf-notehead" id="vf-auto16583" pointer-events="bounding-box"><path stroke="none" d="M116.21 84.889C116.294 84.889,116.379 84.889,116.519 84.889C116.884 84.889,117.417 84.918,117.614 84.946C119.945 85.283,121.096 86.827,121.096 88.624C121.096 90.534,119.804 92.724,117.221 94.128C115.957 94.802,114.666 95.111,113.486 95.111C111.324 95.111,109.555 94.044,109.19 92.162C109.134 91.881,109.106 91.629,109.106 91.376C109.106 88.343,112.363 85.283,116.21 84.889"/></g></g><g class="vf-stavenote" id="vf-auto16509"><g class="vf-notehead" id="vf-auto16585" pointer-events="bounding-box"><path stroke="none" d="M150.003 89.889C150.088 89.889,150.172 89.889,150.312 89.889C150.677 89.889,151.211 89.918,151.407 89.946C153.738 90.283,154.889 91.827,154.889 93.624C154.889 95.534,153.598 97.724,151.014 99.128C149.751 99.802,148.459 100.111,147.28 100.111C145.118 100.111,143.349 99.044,142.983 97.162C142.927 96.881,142.899 96.629,142.899 96.376C142.899 93.343,146.157 90.283,150.003 89.889"/></g></g><g class="vf-stavenote" id="vf-auto16515"><path stroke-width="1.4" fill="none" stroke="#444" d="M167.792 130L185.783 130"/><g class="vf-notehead" id="vf-auto16587" pointer-events="bounding-box"><path stroke="none" d="M177.897 124.889C177.981 124.889,178.065 124.889,178.206 124.889C178.571 124.889,179.104 124.918,179.301 124.946C181.631 125.283,182.783 126.827,182.783 128.624C182.783 130.534,181.491 132.724,178.908 134.128C177.644 134.802,176.352 135.111,175.173 135.111C173.011 135.111,171.242 134.044,170.877 132.162C170.821 131.881,170.792 131.629,170.792 131.376C170.792 128.343,174.05 125.283,177.897 124.889"/></g><g class="vf-notehead" id="vf-auto16588" pointer-events="bounding-box"><path stroke="none" d="M177.897 114.889C177.981 114.889,178.065 114.889,178.206 114.889C178.571 114.889,179.104 114.918,179.301 114.946C181.631 115.283,182.783 116.827,182.783 118.624C182.783 120.534,181.491 122.724,178.908 124.128C177.644 124.802,176.352 125.111,175.173 125.111C173.011 125.111,171.242 124.044,170.877 122.162C170.821 121.881,170.792 121.629,170.792 121.376C170.792 118.343,174.05 115.283,177.897 114.889"/></g><g class="vf-notehead" id="vf-auto16589" pointer-events="bounding-box"><path stroke="none" d="M177.897 104.889C177.981 104.889,178.065 104.889,178.206 104.889C178.571 104.889,179.104 104.918,179.301 104.946C181.631 105.283,182.783 106.827,182.783 108.624C182.783 110.534,181.491 112.724,178.908 114.128C177.644 114.802,176.352 115.111,175.173 115.111C173.011 115.111,171.242 114.044,170.877 112.162C170.821 111.881,170.792 111.629,170.792 111.376C170.792 108.343,174.05 105.283,177.897 104.889"/></g></g><g class="vf-stavenote" id="vf-auto16525"><g class="vf-notehead" id="vf-auto16591" pointer-events="bounding-box"><path stroke="none" d="M205.79 109.889C205.874 109.889,205.958 109.889,206.099 109.889C206.464 109.889,206.997 109.918,207.194 109.946C209.525 110.283,210.676 111.827,210.676 113.624C210.676 115.534,209.384 117.724,206.801 119.128C205.537 119.802,204.246 120.111,203.066 120.111C200.904 120.111,199.135 119.044,198.77 117.162C198.714 116.881,198.686 116.629,198.686 116.376C198.686 113.343,201.943 110.283,205.79 109.889"/></g></g><g class="vf-stavenote" id="vf-auto16534"><g class="vf-notehead" id="vf-auto16593" pointer-events="bounding-box"><path stroke="none" d="M233.683 84.889C233.767 84.889,233.852 84.889,233.992 84.889C234.357 84.889,234.891 84.918,235.087 84.946C237.418 85.283,238.569 86.827,238.569 88.624C238.569 90.534,237.277 92.724,234.694 94.128C233.43 94.802,232.139 95.111,230.959 95.111C228.797 95.111,227.028 94.044,226.663 92.162C226.607 91.881,226.579 91.629,226.579 91.376C226.579 88.343,229.836 85.283,233.683 84.889"/></g></g><g class="vf-stavenote" id="vf-auto16540"><g class="vf-notehead" id="vf-auto16595" pointer-events="bounding-box"><path stroke="none" d="M267.477 79.889C267.561 79.889,267.645 79.889,267.786 79.889C268.151 79.889,268.684 79.918,268.881 79.946C271.211 80.283,272.363 81.827,272.363 83.624C272.363 85.534,271.071 87.724,268.488 89.128C267.224 89.802,265.932 90.111,264.753 90.111C262.591 90.111,260.822 89.044,260.457 87.162C260.4 86.881,260.372 86.629,260.372 86.376C260.372 83.343,263.63 80.283,267.477 79.889"/></g></g><g class="vf-stavenote" id="vf-auto16546"><path stroke-width="1.4" fill="none" stroke="#444" d="M291.166 130L309.156 130"/><g class="vf-notehead" id="vf-auto16597" pointer-events="bounding-box"><path stroke="none" d="M301.27 124.889C301.354 124.889,301.439 124.889,301.579 124.889C301.944 124.889,302.477 124.918,302.674 124.946C305.005 125.283,306.156 126.827,306.156 128.624C306.156 130.534,304.864 132.724,302.281 134.128C301.017 134.802,299.726 135.111,298.546 135.111C296.384 135.111,294.615 134.044,294.25 132.162C294.194 131.881,294.166 131.629,294.166 131.376C294.166 128.343,297.423 125.283,301.27 124.889"/></g></g><g class="vf-stavenote" id="vf-auto16552"><g class="vf-notehead" id="vf-auto16599" pointer-events="bounding-box"><path stroke="none" d="M335.063 74.889C335.148 74.889,335.232 74.889,335.372 74.889C335.737 74.889,336.271 74.918,336.467 74.946C338.798 75.283,339.949 76.827,339.949 78.624C339.949 80.534,338.658 82.724,336.074 84.128C334.811 84.802,333.519 85.111,332.34 85.111C330.178 85.111,328.409 84.044,328.043 82.162C327.987 81.881,327.959 81.629,327.959 81.376C327.959 78.343,331.217 75.283,335.063 74.889"/></g></g><g class="vf-stavenote" id="vf-auto16558"><g class="vf-notehead" id="vf-auto16601" pointer-events="bounding-box"><path stroke="none" d="M362.296 74.889C362.38 74.889,362.464 74.889,362.605 74.889C362.97 74.889,363.503 74.918,363.7 74.946C366.03 75.283,367.182 76.827,367.182 78.624C367.182 80.534,365.89 82.724,363.307 84.128C362.043 84.802,360.751 85.111,359.572 85.111C357.41 85.111,355.641 84.044,355.276 82.162C355.22 81.881,355.191 81.629,355.191 81.376C355.191 78.343,358.449 75.283,362.296 74.889"/></g></g><g class="vf-stavenote" id="vf-auto16564"><g class="vf-notehead" id="vf-auto16603" pointer-events="bounding-box"><path stroke="none" d="M389.528 74.889C389.612 74.889,389.696 74.889,389.837 74.889C390.202 74.889,390.735 74.918,390.932 74.946C393.262 75.283,394.414 76.827,394.414 78.624C394.414 80.534,393.122 82.724,390.539 84.128C389.275 84.802,387.983 85.111,386.804 85.111C384.642 85.111,382.873 84.044,382.508 82.162C382.452 81.881,382.424 81.629,382.424 81.376C382.424 78.343,385.681 75.283,389.528 74.889"/></g></g><g class="vf-stavenote" id="vf-auto16570"><g class="vf-notehead" id="vf-auto16605" pointer-events="bounding-box"><path stroke="none" d="M416.76 74.889C416.844 74.889,416.928 74.889,417.069 74.889C417.434 74.889,417.967 74.918,418.164 74.946C420.495 75.283,421.646 76.827,421.646 78.624C421.646 80.534,420.354 82.724,417.771 84.128C416.507 84.802,415.216 85.111,414.036 85.111C411.874 85.111,410.105 84.044,409.74 82.162C409.684 81.881,409.656 81.629,409.656 81.376C409.656 78.343,412.913 75.283,416.76 74.889"/></g></g><path stroke="none" d="M58.206 29.592C58.408 29.572,58.589 29.552,58.791 29.552C61.029 29.552,62.964 30.842,62.964 32.435C62.964 33.423,61.815 34.451,60.162 34.955L59.96 35.015L60.041 35.035C61.533 35.519,62.641 36.507,62.964 37.616C63.024 37.858,63.065 38.08,63.065 38.301C63.065 39.713,61.815 40.983,59.9 41.345C59.537 41.426,59.174 41.466,58.811 41.466C57.48 41.466,56.19 40.962,55.283 40.075C54.96 39.753,54.819 39.39,54.819 39.007C54.819 38.201,55.464 37.394,56.372 37.394C56.472 37.394,56.553 37.414,56.654 37.434C57.46 37.576,57.884 38.261,57.884 38.926C57.884 39.471,57.581 40.035,56.956 40.277C56.916 40.277,56.916 40.297,56.916 40.297C56.916 40.317,56.956 40.317,57.097 40.358C57.4 40.438,57.662 40.458,57.924 40.458C58.569 40.458,59.093 40.257,59.517 39.833C59.94 39.41,60.142 38.886,60.142 38.261C60.142 38.059,60.121 37.858,60.081 37.636C59.819 36.326,58.892 35.378,57.783 35.318C57.48 35.297,57.38 35.217,57.38 34.995C57.38 34.773,57.48 34.693,57.803 34.673C58.811 34.612,59.698 33.886,59.98 32.919C60.021 32.757,60.041 32.596,60.041 32.435C60.041 31.608,59.436 30.882,58.509 30.661C58.388 30.62,58.206 30.62,57.984 30.62C57.702 30.62,57.4 30.641,57.158 30.681L57.077 30.701L57.138 30.721C57.642 30.983,57.884 31.487,57.884 31.991C57.884 32.596,57.541 33.221,56.876 33.443C56.714 33.483,56.553 33.523,56.392 33.523C55.525 33.523,54.819 32.777,54.819 31.931C54.819 31.709,54.86 31.487,54.981 31.265C55.364 30.459,56.775 29.733,58.206 29.592M58.932 42.333L58.972 42.333L58.912 42.333M58.932 29.068L58.972 29.068L58.912 29.068"/><path stroke="none" d="M181.297 44.592C181.498 44.572,181.68 44.552,181.881 44.552C184.119 44.552,186.055 45.842,186.055 47.435C186.055 48.423,184.905 49.451,183.252 49.955L183.051 50.015L183.131 50.035C184.623 50.519,185.732 51.507,186.055 52.616C186.115 52.858,186.155 53.08,186.155 53.301C186.155 54.713,184.905 55.983,182.99 56.345C182.627 56.426,182.264 56.466,181.902 56.466C180.571 56.466,179.281 55.962,178.374 55.075C178.051 54.753,177.91 54.39,177.91 54.007C177.91 53.201,178.555 52.394,179.462 52.394C179.563 52.394,179.644 52.414,179.744 52.434C180.551 52.576,180.974 53.261,180.974 53.926C180.974 54.471,180.672 55.035,180.047 55.277C180.007 55.277,180.007 55.297,180.007 55.297C180.007 55.317,180.047 55.317,180.188 55.358C180.49 55.438,180.752 55.458,181.015 55.458C181.66 55.458,182.184 55.257,182.607 54.833C183.031 54.41,183.232 53.886,183.232 53.261C183.232 53.059,183.212 52.858,183.172 52.636C182.91 51.326,181.982 50.378,180.873 50.318C180.571 50.297,180.47 50.217,180.47 49.995C180.47 49.773,180.571 49.693,180.894 49.673C181.902 49.612,182.789 48.886,183.071 47.919C183.111 47.757,183.131 47.596,183.131 47.435C183.131 46.608,182.527 45.882,181.599 45.661C181.478 45.62,181.297 45.62,181.075 45.62C180.793 45.62,180.49 45.641,180.248 45.681L180.168 45.701L180.228 45.721C180.732 45.983,180.974 46.487,180.974 46.991C180.974 47.596,180.632 48.221,179.966 48.443C179.805 48.483,179.644 48.523,179.482 48.523C178.616 48.523,177.91 47.777,177.91 46.931C177.91 46.709,177.95 46.487,178.071 46.265C178.454 45.459,179.865 44.733,181.297 44.592M182.023 57.333L182.063 57.333L182.002 57.333M182.023 44.068L182.063 44.068L182.002 44.068"/><g class="vf-stem" id="vf-auto16483" pointer-events="bounding-box"><path stroke-width="1.5" fill="none" d="M28.24 128.5L28.24 58.25"/></g><g class="vf-stem" id="vf-auto16489" pointer-events="bounding-box"><path stroke-width="1.5" fill="none" d="M58.942 108.5L58.942 58.25"/></g><g class="vf-stem" id="vf-auto16495" pointer-events="bounding-box"><path stroke-width="1.5" fill="none" d="M89.644 78.5L89.644 58.25"/></g><g class="vf-beam" id="vf-auto16607"><path stroke="none" d="M27.49 57.5L27.49 62.5L89.894 62.5L89.894 57.5Z"/></g><g class="vf-stem" id="vf-auto16504" pointer-events="bounding-box"><path stroke-width="1.5" fill="none" d="M120.346 88.5L120.346 68.25"/></g><g class="vf-stem" id="vf-auto16510" pointer-events="bounding-box"><path stroke-width="1.5" fill="none" d="M154.139 93.5L154.139 68.25"/></g><g class="vf-stem" id="vf-auto16516" pointer-events="bounding-box"><path stroke-width="1.5" fill="none" d="M182.033 128.5L182.033 68.25"/></g><g class="vf-stem" id="vf-auto16526" pointer-events="bounding-box"><path stroke-width="1.5" fill="none" d="M209.926 113.5L209.926 68.25"/></g><g class="vf-beam" id="vf-auto16608"><path stroke="none" d="M119.596 67.5L119.596 72.5L210.176 72.5L210.176 67.5Z"/><path stroke="none" d="M153.389 75L153.389 80L210.176 80L210.176 75Z"/></g><g class="vf-stem" id="vf-auto16535" pointer-events="bounding-box"><path stroke-width="1.5" fill="none" d="M237.819 88.5L237.819 53.25"/></g><g class="vf-stem" id="vf-auto16541" pointer-events="bounding-box"><path stroke-width="1.5" fill="none" d="M271.613 83.5L271.613 53.25"/></g><g class="vf-beam" id="vf-auto16609"><path stroke="none" d="M237.069 52.5L237.069 57.5L271.863 57.5L271.863 52.5Z"/></g><g class="vf-stem" id="vf-auto16547" pointer-events="bounding-box"><path stroke-width="1.5" fill="none" d="M305.406 128.5L305.406 43.25"/></g><g class="vf-stem" id="vf-auto16553" pointer-events="bounding-box"><path stroke-width="1.5" fill="none" d="M339.199 78.5L339.199 43.25"/></g><g class="vf-stem" id="vf-auto16559" pointer-events="bounding-box"><path stroke-width="1.5" fill="none" d="M366.432 78.5L366.432 43.25"/></g><g class="vf-stem" id="vf-auto16565" pointer-events="bounding-box"><path stroke-width="1.5" fill="none" d="M393.664 78.5L393.664 43.25"/></g><g class="vf-stem" id="vf-auto16571" pointer-events="bounding-box"><path stroke-width="1.5" fill="none" d="M420.896 78.5L420.896 43.25"/></g><g class="vf-beam" id="vf-auto16610"><path stroke="none" d="M304.656 42.5L304.656 47.5L421.146 47.5L421.146 42.5Z"/><path stroke="none" d="M338.449 50L338.449 55L421.146 55L421.146 50Z"/><path stroke="none" d="M338.449 57.5L338.449 62.5L421.146 62.5L421.146 57.5Z"/></g></svg>