<svg xmlns="http://www.w3.org/2000/svg" stroke-width="0.3" stroke-dasharray="none" fill="black" stroke="black" font-family="Arial, sans-serif" font-size="10pt" font-weight="normal" font-style="normal" width="500" height="550" viewBox="0 0 500 550" style="width: 500px; height: 550px; border: none;"><g class="vf-stave" id="vf-auto7245" stroke-width="1" fill="#999999" stroke="#999999"><path fill="none" d="M10 50L320 50"/><path fill="none" d="M10 60L320 60"/><path fill="none" d="M10 70L320 70"/><path fill="none" d="M10 80L320 80"/><path fill="none" d="M10 90L320 90"/></g><g class="vf-stavebarline" id="vf-auto7246"/><g class="vf-stavebarline" id="vf-auto7247"><rect x="320" y="49.5" width="1" height="41" stroke="none"/></g><g class="vf-clef" id="vf-auto7248"><path stroke="none" d="M23.813 50.15C24.101 50.122,24.36 50.122,24.648 50.122C27.557 50.122,30.552 51.014,32.51 52.483C35.045 54.384,36.341 56.976,36.341 60.058C36.341 60.49,36.312 60.922,36.254 61.382C35.304 69.619,28.536 77.165,19.349 80.218C17.995 80.678,15.835 81.226,15.432 81.226C15.173 81.226,15 81.053,15 80.794C15 80.506,15.058 80.448,15.662 80.218C24.562 76.906,30.581 69.878,31.272 61.958C31.301 61.382,31.33 60.806,31.33 60.259C31.33 56.4,30.062 53.434,27.701 51.936C26.693 51.302,25.541 51.014,24.36 51.014C21.71 51.014,18.946 52.512,17.707 54.989C17.621 55.162,17.419 55.622,17.419 55.651C17.419 55.651,17.419 55.651,17.419 55.651C17.419 55.651,17.506 55.622,17.592 55.565C18.197 55.162,18.888 54.989,19.579 54.989C21.278 54.989,22.92 56.141,23.323 57.984C23.41 58.272,23.438 58.56,23.438 58.848C23.438 60.979,21.71 62.736,19.522 62.736C19.349 62.736,19.147 62.707,18.974 62.678C16.757 62.39,15.23 60.403,15.23 57.84L15.23 57.84C15.23 53.837,19.003 50.438,23.813 50.15M39.048 53.923C39.077 53.923,39.134 53.894,39.192 53.894C39.394 53.894,39.653 53.923,39.739 53.981C40.43 54.211,40.776 54.787,40.776 55.392C40.776 55.968,40.43 56.573,39.739 56.803C39.624 56.832,39.451 56.861,39.307 56.861C39.134 56.861,38.962 56.832,38.846 56.803C38.155 56.573,37.838 55.968,37.838 55.392C37.838 54.73,38.242 54.067,39.048 53.923M39.048 63.139C39.077 63.139,39.134 63.139,39.192 63.139C39.394 63.139,39.653 63.168,39.739 63.197C40.43 63.427,40.776 64.032,40.776 64.608C40.776 65.213,40.43 65.818,39.739 66.019C39.624 66.077,39.451 66.077,39.307 66.077C39.134 66.077,38.962 66.077,38.846 66.019C38.155 65.789,37.838 65.213,37.838 64.608C37.838 63.974,38.242 63.312,39.048 63.139"/></g><g class="vf-timesignature" id="vf-auto7249"><path stroke="none" d="M61.608 51.77C61.81 51.77,62.011 51.741,62.213 51.741C62.99 51.741,63.883 51.856,64.517 52.058C66.936 52.749,68.347 54.362,68.347 56.262C68.347 56.896,68.203 57.53,67.886 58.192C67.022 59.978,65.381 61.245,62.933 62.08C60.6 62.829,59.102 63.779,58.008 65.162L57.893 65.277L58.037 65.162C59.218 64.211,60.658 63.722,62.069 63.722C62.99 63.722,63.883 63.923,64.661 64.355C65.294 64.701,65.669 64.845,66.158 64.931C66.302 64.96,66.475 64.96,66.619 64.96C67.339 64.96,68.002 64.701,68.232 64.298C68.318 64.096,68.491 64.01,68.664 64.01C68.866 64.01,69.096 64.182,69.096 64.47C69.096 64.73,68.75 65.594,68.434 66.141C67.512 67.725,66.043 68.733,64.574 68.733L64.546 68.733C63.941 68.704,63.768 68.675,63.307 68.387C62.069 67.581,60.773 67.178,59.534 67.178C59.16 67.178,58.814 67.206,58.469 67.293C57.778 67.437,57.058 67.84,56.798 68.214C56.683 68.358,56.51 68.445,56.366 68.445C56.194 68.445,56.021 68.358,55.963 68.157C55.934 68.128,55.934 68.042,55.934 67.926C55.934 67.581,55.992 67.005,56.107 66.602C56.683 64.211,58.382 62.282,60.802 61.216C62.587 60.438,63.797 58.883,64.142 56.954C64.171 56.723,64.2 56.493,64.2 56.291C64.2 55.456,63.883 54.707,63.307 54.16C62.674 53.555,61.896 53.238,60.917 53.238C60.744 53.238,60.542 53.267,60.341 53.296C60.11 53.296,60.053 53.325,60.053 53.325C60.053 53.354,60.082 53.354,60.11 53.382C60.802 53.814,61.118 54.477,61.118 55.168C61.118 56.032,60.6 56.896,59.65 57.213C59.419 57.299,59.189 57.328,58.958 57.328C57.749 57.328,56.741 56.291,56.741 55.082C56.741 54.88,56.77 54.678,56.827 54.448C57.202 53.152,59.246 52,61.608 51.77M62.501 70L62.558 70L62.472 70M62.501 51.05L62.558 51.05L62.472 51.05"/><path stroke="none" d="M60.758 72.086C60.816 72.058,62.458 72.058,64.013 72.058C65.338 72.058,66.634 72.058,66.662 72.086C66.835 72.144,66.95 72.317,66.95 72.49C66.95 72.691,66.922 72.72,66.374 73.325C65.885 73.843,64.358 75.571,62.803 77.328C62.342 77.846,61.91 78.336,61.795 78.451C61.68 78.566,60.989 79.344,60.24 80.179C59.52 81.014,58.598 82.051,58.224 82.454C57.85 82.886,57.533 83.232,57.533 83.261C57.533 83.261,57.533 83.261,57.533 83.261C57.533 83.29,57.763 83.29,60.125 83.29L62.717 83.29L62.746 81.418C62.746 79.603,62.746 79.574,62.774 79.517C62.803 79.488,63.379 78.826,64.07 78.048C64.762 77.27,65.568 76.349,65.885 76.032C66.662 75.139,66.634 75.168,66.864 75.168C67.066 75.168,67.21 75.254,67.267 75.398C67.296 75.485,67.296 75.629,67.296 79.373L67.296 83.29L67.987 83.29C68.65 83.29,68.707 83.29,68.794 83.318C69.024 83.405,69.168 83.635,69.168 83.866C69.168 84.038,69.11 84.182,68.995 84.298C68.822 84.47,68.794 84.47,68.016 84.47L67.325 84.47L67.325 84.643C67.325 84.73,67.325 84.989,67.325 85.219C67.354 86.4,67.728 86.976,68.88 87.552C69.11 87.667,69.254 87.84,69.254 88.013C69.254 88.128,69.197 88.243,69.11 88.33C68.995 88.445,69.283 88.445,66.547 88.445C66.115 88.445,65.597 88.445,65.021 88.445C64.445 88.445,63.926 88.445,63.494 88.445C60.758 88.445,61.046 88.445,60.931 88.33C60.845 88.243,60.787 88.128,60.787 88.013C60.787 87.84,60.931 87.667,61.162 87.552C62.314 86.976,62.688 86.4,62.717 85.219C62.717 84.989,62.717 84.73,62.717 84.643L62.717 84.47L59.434 84.47C58.944 84.47,58.541 84.47,58.195 84.47C55.834 84.47,56.035 84.47,55.92 84.355C55.834 84.269,55.776 84.154,55.776 84.038C55.776 83.923,55.862 83.75,56.006 83.578C58.742 80.496,60.384 76.637,60.499 72.893C60.499 72.288,60.528 72.202,60.758 72.086M62.515 90L62.544 90L62.458 90M62.515 71.05L62.544 71.05L62.458 71.05"/></g><g class="vf-stavenote" id="vf-auto7214"><g class="vf-notehead" id="vf-auto7254" pointer-events="bounding-box"><path stroke="none" d="M83.838 21.688C83.95 21.66,84.034 21.66,84.147 21.66C84.736 21.66,85.438 21.913,85.916 22.278C86.646 22.84,87.011 23.682,87.011 24.524C87.011 25.198,86.786 25.872,86.309 26.378L86.196 26.518L86.337 26.462C87.881 26.041,89.229 24.777,89.875 23.148C89.903 23.036,89.987 22.896,89.987 22.868C90.128 22.727,90.296 22.643,90.465 22.643C90.774 22.643,91.054 22.868,91.054 23.205C91.054 23.345,86.955 37.048,86.87 37.188C86.786 37.385,86.59 37.469,86.365 37.469C86.14 37.469,85.916 37.357,85.831 37.132C85.803 37.076,85.775 37.048,85.775 36.992C85.775 36.767,86.028 36.037,87.348 31.629C88.19 28.793,88.892 26.462,88.892 26.462C88.892 26.462,88.892 26.462,88.892 26.462C88.864 26.462,88.78 26.518,88.639 26.63C87.629 27.389,86.365 27.782,85.186 27.782C84.119 27.782,83.08 27.473,82.265 26.799C81.591 26.265,81.254 25.451,81.254 24.609C81.254 23.879,81.507 23.148,82.069 22.559C82.518 22.081,83.08 21.801,83.838 21.688"/></g></g><g class="vf-stavenote" id="vf-auto7218"><g class="vf-stem" id="vf-auto7219" pointer-events="bounding-box"><path stroke-width="1.5" fill="none" d="M146.617 48.5L146.617 18"/></g><g class="vf-notehead" id="vf-auto7224" pointer-events="bounding-box"><path stroke="none" d="M142.481 44.889C142.565 44.889,142.649 44.889,142.789 44.889C143.155 44.889,143.688 44.918,143.885 44.946C146.215 45.283,147.367 46.827,147.367 48.624C147.367 50.534,146.075 52.724,143.491 54.128C142.228 54.802,140.936 55.111,139.757 55.111C137.595 55.111,135.826 54.044,135.461 52.162C135.404 51.881,135.376 51.629,135.376 51.376C135.376 48.343,138.634 45.283,142.481 44.889"/></g><path stroke="none" d="M145.891 17.409L145.891 13.14L145.975 13.14C146.312 13.14,146.452 13.309,146.565 13.758C147.379 16.819,148.923 19.346,151.366 21.592C154.062 24.092,155.41 27.545,155.41 31.084C155.41 34.172,154.399 37.373,152.321 40.125C151.591 41.108,151.366 41.305,151.085 41.305C150.72 41.305,150.496 41.052,150.496 40.771C150.496 40.603,150.58 40.406,150.72 40.238C152.911 37.682,154.034 34.594,154.034 31.673C154.034 29.09,153.163 26.647,151.422 24.766C150.327 23.614,148.446 22.547,145.919 21.677C145.891 21.677,145.891 20.806,145.891 17.409"/></g><g class="vf-stavenote" id="vf-auto7226"><path stroke-width="1.4" fill="none" stroke="#444" d="M186.498 40L204.489 40"/><g class="vf-stem" id="vf-auto7227" pointer-events="bounding-box"><path stroke-width="1.5" fill="none" d="M200.739 38.5L200.739 5"/></g><g class="vf-notehead" id="vf-auto7230" pointer-events="bounding-box"><path stroke="none" d="M196.603 34.889C196.687 34.889,196.771 34.889,196.911 34.889C197.277 34.889,197.81 34.918,198.007 34.946C200.337 35.283,201.489 36.827,201.489 38.624C201.489 40.534,200.197 42.724,197.613 44.128C196.35 44.802,195.058 45.111,193.879 45.111C191.717 45.111,189.948 44.044,189.583 42.162C189.526 41.881,189.498 41.629,189.498 41.376C189.498 38.343,192.756 35.283,196.603 34.889"/></g></g><g class="vf-stavenote" id="vf-auto7232"><g class="vf-stem" id="vf-auto7233" pointer-events="bounding-box"><path stroke-width="1.5" fill="none" d="M82.004 51.5L82.004 95"/></g><g class="vf-notehead" id="vf-auto7239" pointer-events="bounding-box"><path stroke="none" d="M88.359 54.889C88.443 54.889,88.527 54.889,88.668 54.889C89.033 54.889,89.566 54.918,89.763 54.946C92.093 55.283,93.245 56.827,93.245 58.624C93.245 60.534,91.953 62.724,89.37 64.128C88.106 64.802,86.814 65.111,85.635 65.111C83.473 65.111,81.704 64.044,81.339 62.162C81.282 61.881,81.254 61.629,81.254 61.376C81.254 58.343,84.512 55.283,88.359 54.889"/></g><g class="vf-notehead" id="vf-auto7238" pointer-events="bounding-box"><path stroke="none" d="M88.359 44.889C88.443 44.889,88.527 44.889,88.668 44.889C89.033 44.889,89.566 44.918,89.763 44.946C92.093 45.283,93.245 46.827,93.245 48.624C93.245 50.534,91.953 52.724,89.37 54.128C88.106 54.802,86.814 55.111,85.635 55.111C83.473 55.111,81.704 54.044,81.339 52.162C81.282 51.881,81.254 51.629,81.254 51.376C81.254 48.343,84.512 45.283,88.359 44.889"/></g></g><g class="vf-stavenote" id="vf-auto7240"><g class="vf-notehead" id="vf-auto7255" pointer-events="bounding-box"><path stroke="none" d="M190.818 51.157C190.874 51.128,190.93 51.128,190.987 51.128C191.127 51.128,191.267 51.213,191.464 51.381C191.548 51.465,191.829 51.69,192.054 51.887C192.25 52.083,192.531 52.308,192.615 52.392C193.261 52.954,193.542 53.206,194.272 53.824C197.473 56.632,197.698 56.801,197.698 56.969C197.698 56.969,197.698 56.997,197.698 57.025C197.698 57.053,197.698 57.081,197.698 57.11C197.698 57.222,197.67 57.222,197.361 57.671C196.575 58.85,195.957 60.226,195.676 61.518C195.479 62.36,195.367 63.175,195.367 63.989C195.367 66.207,196.125 68.229,197.557 69.689C197.894 69.998,197.922 70.054,197.922 70.223C197.922 70.504,197.754 70.644,197.501 70.644C197.389 70.644,197.277 70.616,197.164 70.588C196.911 70.532,196.631 70.476,196.378 70.476C195.339 70.476,194.272 70.981,193.57 71.852C193.008 72.582,192.728 73.452,192.728 74.323C192.728 75.558,193.289 76.878,194.384 77.945C194.581 78.141,194.693 78.31,194.693 78.478C194.693 78.563,194.637 78.647,194.553 78.759C194.469 78.815,194.384 78.872,194.272 78.872C194.075 78.872,193.767 78.647,193.093 78.085C190.762 76.092,189.498 73.986,189.498 72.132L189.498 72.132L189.498 71.655L189.555 71.43C190.004 69.802,191.576 68.847,193.654 68.847C194.16 68.847,194.693 68.903,195.227 69.015L195.507 69.072L195.451 69.015C195.395 68.959,193.935 67.668,192.784 66.629C190.116 64.27,190.004 64.186,190.004 64.017C190.004 63.989,190.004 63.989,190.004 63.961L190.004 63.933C190.004 63.764,190.004 63.764,190.257 63.456C191.801 61.378,192.587 58.935,192.587 56.744C192.587 54.919,192.026 53.234,190.902 52.083C190.593 51.802,190.565 51.746,190.565 51.578C190.565 51.381,190.65 51.241,190.818 51.157"/></g></g><text stroke="none" x="330" y="60">softmax: 15</text><g class="vf-stave" id="vf-auto7288" stroke-width="1" fill="#999999" stroke="#999999"><path fill="none" d="M10 150L320 150"/><path fill="none" d="M10 160L320 160"/><path fill="none" d="M10 170L320 170"/><path fill="none" d="M10 180L320 180"/><path fill="none" d="M10 190L320 190"/></g><g class="vf-stavebarline" id="vf-auto7289"/><g class="vf-stavebarline" id="vf-auto7290"><rect x="320" y="149.5" width="1" height="41" stroke="none"/></g><g class="vf-clef" id="vf-auto7291"><path stroke="none" d="M23.813 150.15C24.101 150.122,24.36 150.122,24.648 150.122C27.557 150.122,30.552 151.014,32.51 152.483C35.045 154.384,36.341 156.976,36.341 160.058C36.341 160.49,36.312 160.922,36.254 161.382C35.304 169.619,28.536 177.165,19.349 180.218C17.995 180.678,15.835 181.226,15.432 181.226C15.173 181.226,15 181.053,15 180.794C15 180.506,15.058 180.448,15.662 180.218C24.562 176.906,30.581 169.878,31.272 161.958C31.301 161.382,31.33 160.806,31.33 160.259C31.33 156.4,30.062 153.434,27.701 151.936C26.693 151.302,25.541 151.014,24.36 151.014C21.71 151.014,18.946 152.512,17.707 154.989C17.621 155.162,17.419 155.622,17.419 155.651C17.419 155.651,17.419 155.651,17.419 155.651C17.419 155.651,17.506 155.622,17.592 155.565C18.197 155.162,18.888 154.989,19.579 154.989C21.278 154.989,22.92 156.141,23.323 157.984C23.41 158.272,23.438 158.56,23.438 158.848C23.438 160.979,21.71 162.736,19.522 162.736C19.349 162.736,19.147 162.707,18.974 162.678C16.757 162.39,15.23 160.403,15.23 157.84L15.23 157.84C15.23 153.837,19.003 150.438,23.813 150.15M39.048 153.923C39.077 153.923,39.134 153.894,39.192 153.894C39.394 153.894,39.653 153.923,39.739 153.981C40.43 154.211,40.776 154.787,40.776 155.392C40.776 155.968,40.43 156.573,39.739 156.803C39.624 156.832,39.451 156.861,39.307 156.861C39.134 156.861,38.962 156.832,38.846 156.803C38.155 156.573,37.838 155.968,37.838 155.392C37.838 154.73,38.242 154.067,39.048 153.923M39.048 163.139C39.077 163.139,39.134 163.139,39.192 163.139C39.394 163.139,39.653 163.168,39.739 163.197C40.43 163.427,40.776 164.032,40.776 164.608C40.776 165.213,40.43 165.818,39.739 166.019C39.624 166.077,39.451 166.077,39.307 166.077C39.134 166.077,38.962 166.077,38.846 166.019C38.155 165.789,37.838 165.213,37.838 164.608C37.838 163.974,38.242 163.312,39.048 163.139"/></g><g class="vf-timesignature" id="vf-auto7292"><path stroke="none" d="M61.608 151.77C61.81 151.77,62.011 151.741,62.213 151.741C62.99 151.741,63.883 151.856,64.517 152.058C66.936 152.749,68.347 154.362,68.347 156.262C68.347 156.896,68.203 157.53,67.886 158.192C67.022 159.978,65.381 161.245,62.933 162.08C60.6 162.829,59.102 163.779,58.008 165.162L57.893 165.277L58.037 165.162C59.218 164.211,60.658 163.722,62.069 163.722C62.99 163.722,63.883 163.923,64.661 164.355C65.294 164.701,65.669 164.845,66.158 164.931C66.302 164.96,66.475 164.96,66.619 164.96C67.339 164.96,68.002 164.701,68.232 164.298C68.318 164.096,68.491 164.01,68.664 164.01C68.866 164.01,69.096 164.182,69.096 164.47C69.096 164.73,68.75 165.594,68.434 166.141C67.512 167.725,66.043 168.733,64.574 168.733L64.546 168.733C63.941 168.704,63.768 168.675,63.307 168.387C62.069 167.581,60.773 167.178,59.534 167.178C59.16 167.178,58.814 167.206,58.469 167.293C57.778 167.437,57.058 167.84,56.798 168.214C56.683 168.358,56.51 168.445,56.366 168.445C56.194 168.445,56.021 168.358,55.963 168.157C55.934 168.128,55.934 168.042,55.934 167.926C55.934 167.581,55.992 167.005,56.107 166.602C56.683 164.211,58.382 162.282,60.802 161.216C62.587 160.438,63.797 158.883,64.142 156.954C64.171 156.723,64.2 156.493,64.2 156.291C64.2 155.456,63.883 154.707,63.307 154.16C62.674 153.555,61.896 153.238,60.917 153.238C60.744 153.238,60.542 153.267,60.341 153.296C60.11 153.296,60.053 153.325,60.053 153.325C60.053 153.354,60.082 153.354,60.11 153.382C60.802 153.814,61.118 154.477,61.118 155.168C61.118 156.032,60.6 156.896,59.65 157.213C59.419 157.299,59.189 157.328,58.958 157.328C57.749 157.328,56.741 156.291,56.741 155.082C56.741 154.88,56.77 154.678,56.827 154.448C57.202 153.152,59.246 152,61.608 151.77M62.501 170L62.558 170L62.472 170M62.501 151.05L62.558 151.05L62.472 151.05"/><path stroke="none" d="M60.758 172.086C60.816 172.058,62.458 172.058,64.013 172.058C65.338 172.058,66.634 172.058,66.662 172.086C66.835 172.144,66.95 172.317,66.95 172.49C66.95 172.691,66.922 172.72,66.374 173.325C65.885 173.843,64.358 175.571,62.803 177.328C62.342 177.846,61.91 178.336,61.795 178.451C61.68 178.566,60.989 179.344,60.24 180.179C59.52 181.014,58.598 182.051,58.224 182.454C57.85 182.886,57.533 183.232,57.533 183.261C57.533 183.261,57.533 183.261,57.533 183.261C57.533 183.29,57.763 183.29,60.125 183.29L62.717 183.29L62.746 181.418C62.746 179.603,62.746 179.574,62.774 179.517C62.803 179.488,63.379 178.826,64.07 178.048C64.762 177.27,65.568 176.349,65.885 176.032C66.662 175.139,66.634 175.168,66.864 175.168C67.066 175.168,67.21 175.254,67.267 175.398C67.296 175.485,67.296 175.629,67.296 179.373L67.296 183.29L67.987 183.29C68.65 183.29,68.707 183.29,68.794 183.318C69.024 183.405,69.168 183.635,69.168 183.866C69.168 184.038,69.11 184.182,68.995 184.298C68.822 184.47,68.794 184.47,68.016 184.47L67.325 184.47L67.325 184.643C67.325 184.73,67.325 184.989,67.325 185.219C67.354 186.4,67.728 186.976,68.88 187.552C69.11 187.667,69.254 187.84,69.254 188.013C69.254 188.128,69.197 188.243,69.11 188.33C68.995 188.445,69.283 188.445,66.547 188.445C66.115 188.445,65.597 188.445,65.021 188.445C64.445 188.445,63.926 188.445,63.494 188.445C60.758 188.445,61.046 188.445,60.931 188.33C60.845 188.243,60.787 188.128,60.787 188.013C60.787 187.84,60.931 187.667,61.162 187.552C62.314 186.976,62.688 186.4,62.717 185.219C62.717 184.989,62.717 184.73,62.717 184.643L62.717 184.47L59.434 184.47C58.944 184.47,58.541 184.47,58.195 184.47C55.834 184.47,56.035 184.47,55.92 184.355C55.834 184.269,55.776 184.154,55.776 184.038C55.776 183.923,55.862 183.75,56.006 183.578C58.742 180.496,60.384 176.637,60.499 172.893C60.499 172.288,60.528 172.202,60.758 172.086M62.515 190L62.544 190L62.458 190M62.515 171.05L62.544 171.05L62.458 171.05"/></g><g class="vf-stavenote" id="vf-auto7257"><g class="vf-notehead" id="vf-auto7297" pointer-events="bounding-box"><path stroke="none" d="M83.838 121.688C83.95 121.66,84.034 121.66,84.147 121.66C84.736 121.66,85.438 121.913,85.916 122.278C86.646 122.84,87.011 123.682,87.011 124.524C87.011 125.198,86.786 125.872,86.309 126.378L86.196 126.518L86.337 126.462C87.881 126.041,89.229 124.777,89.875 123.148C89.903 123.036,89.987 122.896,89.987 122.868C90.128 122.727,90.296 122.643,90.465 122.643C90.774 122.643,91.054 122.868,91.054 123.205C91.054 123.345,86.955 137.048,86.87 137.188C86.786 137.385,86.59 137.469,86.365 137.469C86.14 137.469,85.916 137.357,85.831 137.132C85.803 137.076,85.775 137.048,85.775 136.992C85.775 136.767,86.028 136.037,87.348 131.629C88.19 128.793,88.892 126.462,88.892 126.462C88.892 126.462,88.892 126.462,88.892 126.462C88.864 126.462,88.78 126.518,88.639 126.63C87.629 127.389,86.365 127.782,85.186 127.782C84.119 127.782,83.08 127.473,82.265 126.799C81.591 126.265,81.254 125.451,81.254 124.609C81.254 123.879,81.507 123.148,82.069 122.559C82.518 122.081,83.08 121.801,83.838 121.688"/></g></g><g class="vf-stavenote" id="vf-auto7261"><g class="vf-stem" id="vf-auto7262" pointer-events="bounding-box"><path stroke-width="1.5" fill="none" d="M149.334 148.5L149.334 118"/></g><g class="vf-notehead" id="vf-auto7267" pointer-events="bounding-box"><path stroke="none" d="M145.198 144.889C145.282 144.889,145.367 144.889,145.507 144.889C145.872 144.889,146.406 144.918,146.602 144.946C148.933 145.283,150.084 146.827,150.084 148.624C150.084 150.534,148.792 152.724,146.209 154.128C144.945 154.802,143.654 155.111,142.474 155.111C140.312 155.111,138.543 154.044,138.178 152.162C138.122 151.881,138.094 151.629,138.094 151.376C138.094 148.343,141.351 145.283,145.198 144.889"/></g><path stroke="none" d="M148.608 117.409L148.608 113.14L148.692 113.14C149.029 113.14,149.17 113.309,149.282 113.758C150.096 116.819,151.641 119.346,154.084 121.592C156.779 124.092,158.127 127.545,158.127 131.084C158.127 134.172,157.116 137.373,155.039 140.125C154.308 141.108,154.084 141.305,153.803 141.305C153.438 141.305,153.213 141.052,153.213 140.771C153.213 140.603,153.298 140.406,153.438 140.238C155.628 137.682,156.751 134.594,156.751 131.673C156.751 129.09,155.881 126.647,154.14 124.766C153.045 123.614,151.163 122.547,148.636 121.677C148.608 121.677,148.608 120.806,148.608 117.409"/></g><g class="vf-stavenote" id="vf-auto7269"><path stroke-width="1.4" fill="none" stroke="#444" d="M191.933 140L209.924 140"/><g class="vf-stem" id="vf-auto7270" pointer-events="bounding-box"><path stroke-width="1.5" fill="none" d="M206.174 138.5L206.174 105"/></g><g class="vf-notehead" id="vf-auto7273" pointer-events="bounding-box"><path stroke="none" d="M202.038 134.889C202.122 134.889,202.206 134.889,202.346 134.889C202.712 134.889,203.245 134.918,203.442 134.946C205.772 135.283,206.924 136.827,206.924 138.624C206.924 140.534,205.632 142.724,203.048 144.128C201.785 144.802,200.493 145.111,199.314 145.111C197.152 145.111,195.383 144.044,195.018 142.162C194.961 141.881,194.933 141.629,194.933 141.376C194.933 138.343,198.191 135.283,202.038 134.889"/></g></g><g class="vf-stavenote" id="vf-auto7275"><g class="vf-stem" id="vf-auto7276" pointer-events="bounding-box"><path stroke-width="1.5" fill="none" d="M82.004 151.5L82.004 195"/></g><g class="vf-notehead" id="vf-auto7282" pointer-events="bounding-box"><path stroke="none" d="M88.359 154.889C88.443 154.889,88.527 154.889,88.668 154.889C89.033 154.889,89.566 154.918,89.763 154.946C92.093 155.283,93.245 156.827,93.245 158.624C93.245 160.534,91.953 162.724,89.37 164.128C88.106 164.802,86.814 165.111,85.635 165.111C83.473 165.111,81.704 164.044,81.339 162.162C81.282 161.881,81.254 161.629,81.254 161.376C81.254 158.343,84.512 155.283,88.359 154.889"/></g><g class="vf-notehead" id="vf-auto7281" pointer-events="bounding-box"><path stroke="none" d="M88.359 144.889C88.443 144.889,88.527 144.889,88.668 144.889C89.033 144.889,89.566 144.918,89.763 144.946C92.093 145.283,93.245 146.827,93.245 148.624C93.245 150.534,91.953 152.724,89.37 154.128C88.106 154.802,86.814 155.111,85.635 155.111C83.473 155.111,81.704 154.044,81.339 152.162C81.282 151.881,81.254 151.629,81.254 151.376C81.254 148.343,84.512 145.283,88.359 144.889"/></g></g><g class="vf-stavenote" id="vf-auto7283"><g class="vf-notehead" id="vf-auto7298" pointer-events="bounding-box"><path stroke="none" d="M196.253 151.157C196.309 151.128,196.365 151.128,196.422 151.128C196.562 151.128,196.702 151.213,196.899 151.381C196.983 151.465,197.264 151.69,197.489 151.887C197.685 152.083,197.966 152.308,198.05 152.392C198.696 152.954,198.977 153.206,199.707 153.824C202.908 156.632,203.133 156.801,203.133 156.969C203.133 156.969,203.133 156.997,203.133 157.025C203.133 157.053,203.133 157.081,203.133 157.11C203.133 157.222,203.105 157.222,202.796 157.671C202.01 158.85,201.392 160.226,201.111 161.518C200.914 162.36,200.802 163.175,200.802 163.989C200.802 166.207,201.56 168.229,202.992 169.689C203.329 169.998,203.357 170.054,203.357 170.223C203.357 170.504,203.189 170.644,202.936 170.644C202.824 170.644,202.712 170.616,202.599 170.588C202.346 170.532,202.066 170.476,201.813 170.476C200.774 170.476,199.707 170.981,199.005 171.852C198.443 172.582,198.163 173.452,198.163 174.323C198.163 175.558,198.724 176.878,199.819 177.945C200.016 178.141,200.128 178.31,200.128 178.478C200.128 178.563,200.072 178.647,199.988 178.759C199.904 178.815,199.819 178.872,199.707 178.872C199.51 178.872,199.202 178.647,198.528 178.085C196.197 176.092,194.933 173.986,194.933 172.132L194.933 172.132L194.933 171.655L194.99 171.43C195.439 169.802,197.011 168.847,199.089 168.847C199.595 168.847,200.128 168.903,200.662 169.015L200.942 169.072L200.886 169.015C200.83 168.959,199.37 167.668,198.219 166.629C195.551 164.27,195.439 164.186,195.439 164.017C195.439 163.989,195.439 163.989,195.439 163.961L195.439 163.933C195.439 163.764,195.439 163.764,195.692 163.456C197.236 161.378,198.022 158.935,198.022 156.744C198.022 154.919,197.461 153.234,196.337 152.083C196.028 151.802,196 151.746,196 151.578C196 151.381,196.085 151.241,196.253 151.157"/></g></g><text stroke="none" x="330" y="160">softmax: 10</text><g class="vf-stave" id="vf-auto7331" stroke-width="1" fill="#999999" stroke="#999999"><path fill="none" d="M10 250L320 250"/><path fill="none" d="M10 260L320 260"/><path fill="none" d="M10 270L320 270"/><path fill="none" d="M10 280L320 280"/><path fill="none" d="M10 290L320 290"/></g><g class="vf-stavebarline" id="vf-auto7332"/><g class="vf-stavebarline" id="vf-auto7333"><rect x="320" y="249.5" width="1" height="41" stroke="none"/></g><g class="vf-clef" id="vf-auto7334"><path stroke="none" d="M23.813 250.15C24.101 250.122,24.36 250.122,24.648 250.122C27.557 250.122,30.552 251.014,32.51 252.483C35.045 254.384,36.341 256.976,36.341 260.058C36.341 260.49,36.312 260.922,36.254 261.382C35.304 269.619,28.536 277.165,19.349 280.218C17.995 280.678,15.835 281.226,15.432 281.226C15.173 281.226,15 281.053,15 280.794C15 280.506,15.058 280.448,15.662 280.218C24.562 276.906,30.581 269.878,31.272 261.958C31.301 261.382,31.33 260.806,31.33 260.259C31.33 256.4,30.062 253.434,27.701 251.936C26.693 251.302,25.541 251.014,24.36 251.014C21.71 251.014,18.946 252.512,17.707 254.989C17.621 255.162,17.419 255.622,17.419 255.651C17.419 255.651,17.419 255.651,17.419 255.651C17.419 255.651,17.506 255.622,17.592 255.565C18.197 255.162,18.888 254.989,19.579 254.989C21.278 254.989,22.92 256.141,23.323 257.984C23.41 258.272,23.438 258.56,23.438 258.848C23.438 260.979,21.71 262.736,19.522 262.736C19.349 262.736,19.147 262.707,18.974 262.678C16.757 262.39,15.23 260.403,15.23 257.84L15.23 257.84C15.23 253.837,19.003 250.438,23.813 250.15M39.048 253.923C39.077 253.923,39.134 253.894,39.192 253.894C39.394 253.894,39.653 253.923,39.739 253.981C40.43 254.211,40.776 254.787,40.776 255.392C40.776 255.968,40.43 256.573,39.739 256.803C39.624 256.832,39.451 256.861,39.307 256.861C39.134 256.861,38.962 256.832,38.846 256.803C38.155 256.573,37.838 255.968,37.838 255.392C37.838 254.73,38.242 254.067,39.048 253.923M39.048 263.139C39.077 263.139,39.134 263.139,39.192 263.139C39.394 263.139,39.653 263.168,39.739 263.197C40.43 263.427,40.776 264.032,40.776 264.608C40.776 265.213,40.43 265.818,39.739 266.019C39.624 266.077,39.451 266.077,39.307 266.077C39.134 266.077,38.962 266.077,38.846 266.019C38.155 265.789,37.838 265.213,37.838 264.608C37.838 263.974,38.242 263.312,39.048 263.139"/></g><g class="vf-timesignature" id="vf-auto7335"><path stroke="none" d="M61.608 251.77C61.81 251.77,62.011 251.741,62.213 251.741C62.99 251.741,63.883 251.856,64.517 252.058C66.936 252.749,68.347 254.362,68.347 256.262C68.347 256.896,68.203 257.53,67.886 258.192C67.022 259.978,65.381 261.245,62.933 262.08C60.6 262.829,59.102 263.779,58.008 265.162L57.893 265.277L58.037 265.162C59.218 264.211,60.658 263.722,62.069 263.722C62.99 263.722,63.883 263.923,64.661 264.355C65.294 264.701,65.669 264.845,66.158 264.931C66.302 264.96,66.475 264.96,66.619 264.96C67.339 264.96,68.002 264.701,68.232 264.298C68.318 264.096,68.491 264.01,68.664 264.01C68.866 264.01,69.096 264.182,69.096 264.47C69.096 264.73,68.75 265.594,68.434 266.141C67.512 267.725,66.043 268.733,64.574 268.733L64.546 268.733C63.941 268.704,63.768 268.675,63.307 268.387C62.069 267.581,60.773 267.178,59.534 267.178C59.16 267.178,58.814 267.206,58.469 267.293C57.778 267.437,57.058 267.84,56.798 268.214C56.683 268.358,56.51 268.445,56.366 268.445C56.194 268.445,56.021 268.358,55.963 268.157C55.934 268.128,55.934 268.042,55.934 267.926C55.934 267.581,55.992 267.005,56.107 266.602C56.683 264.211,58.382 262.282,60.802 261.216C62.587 260.438,63.797 258.883,64.142 256.954C64.171 256.723,64.2 256.493,64.2 256.291C64.2 255.456,63.883 254.707,63.307 254.16C62.674 253.555,61.896 253.238,60.917 253.238C60.744 253.238,60.542 253.267,60.341 253.296C60.11 253.296,60.053 253.325,60.053 253.325C60.053 253.354,60.082 253.354,60.11 253.382C60.802 253.814,61.118 254.477,61.118 255.168C61.118 256.032,60.6 256.896,59.65 257.213C59.419 257.299,59.189 257.328,58.958 257.328C57.749 257.328,56.741 256.291,56.741 255.082C56.741 254.88,56.77 254.678,56.827 254.448C57.202 253.152,59.246 252,61.608 251.77M62.501 270L62.558 270L62.472 270M62.501 251.05L62.558 251.05L62.472 251.05"/><path stroke="none" d="M60.758 272.086C60.816 272.058,62.458 272.058,64.013 272.058C65.338 272.058,66.634 272.058,66.662 272.086C66.835 272.144,66.95 272.317,66.95 272.49C66.95 272.691,66.922 272.72,66.374 273.325C65.885 273.843,64.358 275.571,62.803 277.328C62.342 277.846,61.91 278.336,61.795 278.451C61.68 278.566,60.989 279.344,60.24 280.179C59.52 281.014,58.598 282.051,58.224 282.454C57.85 282.886,57.533 283.232,57.533 283.261C57.533 283.261,57.533 283.261,57.533 283.261C57.533 283.29,57.763 283.29,60.125 283.29L62.717 283.29L62.746 281.418C62.746 279.603,62.746 279.574,62.774 279.517C62.803 279.488,63.379 278.826,64.07 278.048C64.762 277.27,65.568 276.349,65.885 276.032C66.662 275.139,66.634 275.168,66.864 275.168C67.066 275.168,67.21 275.254,67.267 275.398C67.296 275.485,67.296 275.629,67.296 279.373L67.296 283.29L67.987 283.29C68.65 283.29,68.707 283.29,68.794 283.318C69.024 283.405,69.168 283.635,69.168 283.866C69.168 284.038,69.11 284.182,68.995 284.298C68.822 284.47,68.794 284.47,68.016 284.47L67.325 284.47L67.325 284.643C67.325 284.73,67.325 284.989,67.325 285.219C67.354 286.4,67.728 286.976,68.88 287.552C69.11 287.667,69.254 287.84,69.254 288.013C69.254 288.128,69.197 288.243,69.11 288.33C68.995 288.445,69.283 288.445,66.547 288.445C66.115 288.445,65.597 288.445,65.021 288.445C64.445 288.445,63.926 288.445,63.494 288.445C60.758 288.445,61.046 288.445,60.931 288.33C60.845 288.243,60.787 288.128,60.787 288.013C60.787 287.84,60.931 287.667,61.162 287.552C62.314 286.976,62.688 286.4,62.717 285.219C62.717 284.989,62.717 284.73,62.717 284.643L62.717 284.47L59.434 284.47C58.944 284.47,58.541 284.47,58.195 284.47C55.834 284.47,56.035 284.47,55.92 284.355C55.834 284.269,55.776 284.154,55.776 284.038C55.776 283.923,55.862 283.75,56.006 283.578C58.742 280.496,60.384 276.637,60.499 272.893C60.499 272.288,60.528 272.202,60.758 272.086M62.515 290L62.544 290L62.458 290M62.515 271.05L62.544 271.05L62.458 271.05"/></g><g class="vf-stavenote" id="vf-auto7300"><g class="vf-notehead" id="vf-auto7340" pointer-events="bounding-box"><path stroke="none" d="M83.838 221.688C83.95 221.66,84.034 221.66,84.147 221.66C84.736 221.66,85.438 221.913,85.916 222.278C86.646 222.84,87.011 223.682,87.011 224.524C87.011 225.198,86.786 225.872,86.309 226.378L86.196 226.518L86.337 226.462C87.881 226.041,89.229 224.777,89.875 223.148C89.903 223.036,89.987 222.896,89.987 222.868C90.128 222.727,90.296 222.643,90.465 222.643C90.774 222.643,91.054 222.868,91.054 223.205C91.054 223.345,86.955 237.048,86.87 237.188C86.786 237.385,86.59 237.469,86.365 237.469C86.14 237.469,85.916 237.357,85.831 237.132C85.803 237.076,85.775 237.048,85.775 236.992C85.775 236.767,86.028 236.037,87.348 231.629C88.19 228.793,88.892 226.462,88.892 226.462C88.892 226.462,88.892 226.462,88.892 226.462C88.864 226.462,88.78 226.518,88.639 226.63C87.629 227.389,86.365 227.782,85.186 227.782C84.119 227.782,83.08 227.473,82.265 226.799C81.591 226.265,81.254 225.451,81.254 224.609C81.254 223.879,81.507 223.148,82.069 222.559C82.518 222.081,83.08 221.801,83.838 221.688"/></g></g><g class="vf-stavenote" id="vf-auto7304"><g class="vf-stem" id="vf-auto7305" pointer-events="bounding-box"><path stroke-width="1.5" fill="none" d="M153.935 248.5L153.935 218"/></g><g class="vf-notehead" id="vf-auto7310" pointer-events="bounding-box"><path stroke="none" d="M149.799 244.889C149.883 244.889,149.967 244.889,150.108 244.889C150.473 244.889,151.006 244.918,151.203 244.946C153.534 245.283,154.685 246.827,154.685 248.624C154.685 250.534,153.393 252.724,150.81 254.128C149.546 254.802,148.255 255.111,147.075 255.111C144.913 255.111,143.144 254.044,142.779 252.162C142.723 251.881,142.695 251.629,142.695 251.376C142.695 248.343,145.952 245.283,149.799 244.889"/></g><path stroke="none" d="M153.209 217.409L153.209 213.14L153.293 213.14C153.63 213.14,153.771 213.309,153.883 213.758C154.697 216.819,156.242 219.346,158.685 221.592C161.38 224.092,162.728 227.545,162.728 231.084C162.728 234.172,161.717 237.373,159.639 240.125C158.909 241.108,158.685 241.305,158.404 241.305C158.039 241.305,157.814 241.052,157.814 240.771C157.814 240.603,157.898 240.406,158.039 240.238C160.229 237.682,161.352 234.594,161.352 231.673C161.352 229.09,160.482 226.647,158.741 224.766C157.646 223.614,155.764 222.547,153.237 221.677C153.209 221.677,153.209 220.806,153.209 217.409"/></g><g class="vf-stavenote" id="vf-auto7312"><path stroke-width="1.4" fill="none" stroke="#444" d="M201.135 240L219.125 240"/><g class="vf-stem" id="vf-auto7313" pointer-events="bounding-box"><path stroke-width="1.5" fill="none" d="M215.375 238.5L215.375 205"/></g><g class="vf-notehead" id="vf-auto7316" pointer-events="bounding-box"><path stroke="none" d="M211.239 234.889C211.324 234.889,211.408 234.889,211.548 234.889C211.913 234.889,212.447 234.918,212.643 234.946C214.974 235.283,216.125 236.827,216.125 238.624C216.125 240.534,214.834 242.724,212.25 244.128C210.987 244.802,209.695 245.111,208.516 245.111C206.353 245.111,204.584 244.044,204.219 242.162C204.163 241.881,204.135 241.629,204.135 241.376C204.135 238.343,207.392 235.283,211.239 234.889"/></g></g><g class="vf-stavenote" id="vf-auto7318"><g class="vf-stem" id="vf-auto7319" pointer-events="bounding-box"><path stroke-width="1.5" fill="none" d="M82.004 251.5L82.004 295"/></g><g class="vf-notehead" id="vf-auto7325" pointer-events="bounding-box"><path stroke="none" d="M88.359 254.889C88.443 254.889,88.527 254.889,88.668 254.889C89.033 254.889,89.566 254.918,89.763 254.946C92.093 255.283,93.245 256.827,93.245 258.624C93.245 260.534,91.953 262.724,89.37 264.128C88.106 264.802,86.814 265.111,85.635 265.111C83.473 265.111,81.704 264.044,81.339 262.162C81.282 261.881,81.254 261.629,81.254 261.376C81.254 258.343,84.512 255.283,88.359 254.889"/></g><g class="vf-notehead" id="vf-auto7324" pointer-events="bounding-box"><path stroke="none" d="M88.359 244.889C88.443 244.889,88.527 244.889,88.668 244.889C89.033 244.889,89.566 244.918,89.763 244.946C92.093 245.283,93.245 246.827,93.245 248.624C93.245 250.534,91.953 252.724,89.37 254.128C88.106 254.802,86.814 255.111,85.635 255.111C83.473 255.111,81.704 254.044,81.339 252.162C81.282 251.881,81.254 251.629,81.254 251.376C81.254 248.343,84.512 245.283,88.359 244.889"/></g></g><g class="vf-stavenote" id="vf-auto7326"><g class="vf-notehead" id="vf-auto7341" pointer-events="bounding-box"><path stroke="none" d="M205.455 251.157C205.511 251.128,205.567 251.128,205.623 251.128C205.764 251.128,205.904 251.213,206.101 251.381C206.185 251.465,206.466 251.69,206.69 251.887C206.887 252.083,207.168 252.308,207.252 252.392C207.898 252.954,208.179 253.206,208.909 253.824C212.11 256.632,212.334 256.801,212.334 256.969C212.334 256.969,212.334 256.997,212.334 257.025C212.334 257.053,212.334 257.081,212.334 257.11C212.334 257.222,212.306 257.222,211.997 257.671C211.211 258.85,210.593 260.226,210.313 261.518C210.116 262.36,210.004 263.175,210.004 263.989C210.004 266.207,210.762 268.229,212.194 269.689C212.531 269.998,212.559 270.054,212.559 270.223C212.559 270.504,212.391 270.644,212.138 270.644C212.026 270.644,211.913 270.616,211.801 270.588C211.548 270.532,211.267 270.476,211.015 270.476C209.976 270.476,208.909 270.981,208.207 271.852C207.645 272.582,207.364 273.452,207.364 274.323C207.364 275.558,207.926 276.878,209.021 277.945C209.218 278.141,209.33 278.31,209.33 278.478C209.33 278.563,209.274 278.647,209.189 278.759C209.105 278.815,209.021 278.872,208.909 278.872C208.712 278.872,208.403 278.647,207.729 278.085C205.399 276.092,204.135 273.986,204.135 272.132L204.135 272.132L204.135 271.655L204.191 271.43C204.641 269.802,206.213 268.847,208.291 268.847C208.796 268.847,209.33 268.903,209.863 269.015L210.144 269.072L210.088 269.015C210.032 268.959,208.572 267.668,207.42 266.629C204.753 264.27,204.641 264.186,204.641 264.017C204.641 263.989,204.641 263.989,204.641 263.961L204.641 263.933C204.641 263.764,204.641 263.764,204.893 263.456C206.438 261.378,207.224 258.935,207.224 256.744C207.224 254.919,206.662 253.234,205.539 252.083C205.23 251.802,205.202 251.746,205.202 251.578C205.202 251.381,205.286 251.241,205.455 251.157"/></g></g><text stroke="none" x="330" y="260">softmax: 5</text><g class="vf-stave" id="vf-auto7374" stroke-width="1" fill="#999999" stroke="#999999"><path fill="none" d="M10 350L320 350"/><path fill="none" d="M10 360L320 360"/><path fill="none" d="M10 370L320 370"/><path fill="none" d="M10 380L320 380"/><path fill="none" d="M10 390L320 390"/></g><g class="vf-stavebarline" id="vf-auto7375"/><g class="vf-stavebarline" id="vf-auto7376"><rect x="320" y="349.5" width="1" height="41" stroke="none"/></g><g class="vf-clef" id="vf-auto7377"><path stroke="none" d="M23.813 350.15C24.101 350.122,24.36 350.122,24.648 350.122C27.557 350.122,30.552 351.014,32.51 352.483C35.045 354.384,36.341 356.976,36.341 360.058C36.341 360.49,36.312 360.922,36.254 361.382C35.304 369.619,28.536 377.165,19.349 380.218C17.995 380.678,15.835 381.226,15.432 381.226C15.173 381.226,15 381.053,15 380.794C15 380.506,15.058 380.448,15.662 380.218C24.562 376.906,30.581 369.878,31.272 361.958C31.301 361.382,31.33 360.806,31.33 360.259C31.33 356.4,30.062 353.434,27.701 351.936C26.693 351.302,25.541 351.014,24.36 351.014C21.71 351.014,18.946 352.512,17.707 354.989C17.621 355.162,17.419 355.622,17.419 355.651C17.419 355.651,17.419 355.651,17.419 355.651C17.419 355.651,17.506 355.622,17.592 355.565C18.197 355.162,18.888 354.989,19.579 354.989C21.278 354.989,22.92 356.141,23.323 357.984C23.41 358.272,23.438 358.56,23.438 358.848C23.438 360.979,21.71 362.736,19.522 362.736C19.349 362.736,19.147 362.707,18.974 362.678C16.757 362.39,15.23 360.403,15.23 357.84L15.23 357.84C15.23 353.837,19.003 350.438,23.813 350.15M39.048 353.923C39.077 353.923,39.134 353.894,39.192 353.894C39.394 353.894,39.653 353.923,39.739 353.981C40.43 354.211,40.776 354.787,40.776 355.392C40.776 355.968,40.43 356.573,39.739 356.803C39.624 356.832,39.451 356.861,39.307 356.861C39.134 356.861,38.962 356.832,38.846 356.803C38.155 356.573,37.838 355.968,37.838 355.392C37.838 354.73,38.242 354.067,39.048 353.923M39.048 363.139C39.077 363.139,39.134 363.139,39.192 363.139C39.394 363.139,39.653 363.168,39.739 363.197C40.43 363.427,40.776 364.032,40.776 364.608C40.776 365.213,40.43 365.818,39.739 366.019C39.624 366.077,39.451 366.077,39.307 366.077C39.134 366.077,38.962 366.077,38.846 366.019C38.155 365.789,37.838 365.213,37.838 364.608C37.838 363.974,38.242 363.312,39.048 363.139"/></g><g class="vf-timesignature" id="vf-auto7378"><path stroke="none" d="M61.608 351.77C61.81 351.77,62.011 351.741,62.213 351.741C62.99 351.741,63.883 351.856,64.517 352.058C66.936 352.749,68.347 354.362,68.347 356.262C68.347 356.896,68.203 357.53,67.886 358.192C67.022 359.978,65.381 361.245,62.933 362.08C60.6 362.829,59.102 363.779,58.008 365.162L57.893 365.277L58.037 365.162C59.218 364.211,60.658 363.722,62.069 363.722C62.99 363.722,63.883 363.923,64.661 364.355C65.294 364.701,65.669 364.845,66.158 364.931C66.302 364.96,66.475 364.96,66.619 364.96C67.339 364.96,68.002 364.701,68.232 364.298C68.318 364.096,68.491 364.01,68.664 364.01C68.866 364.01,69.096 364.182,69.096 364.47C69.096 364.73,68.75 365.594,68.434 366.141C67.512 367.725,66.043 368.733,64.574 368.733L64.546 368.733C63.941 368.704,63.768 368.675,63.307 368.387C62.069 367.581,60.773 367.178,59.534 367.178C59.16 367.178,58.814 367.206,58.469 367.293C57.778 367.437,57.058 367.84,56.798 368.214C56.683 368.358,56.51 368.445,56.366 368.445C56.194 368.445,56.021 368.358,55.963 368.157C55.934 368.128,55.934 368.042,55.934 367.926C55.934 367.581,55.992 367.005,56.107 366.602C56.683 364.211,58.382 362.282,60.802 361.216C62.587 360.438,63.797 358.883,64.142 356.954C64.171 356.723,64.2 356.493,64.2 356.291C64.2 355.456,63.883 354.707,63.307 354.16C62.674 353.555,61.896 353.238,60.917 353.238C60.744 353.238,60.542 353.267,60.341 353.296C60.11 353.296,60.053 353.325,60.053 353.325C60.053 353.354,60.082 353.354,60.11 353.382C60.802 353.814,61.118 354.477,61.118 355.168C61.118 356.032,60.6 356.896,59.65 357.213C59.419 357.299,59.189 357.328,58.958 357.328C57.749 357.328,56.741 356.291,56.741 355.082C56.741 354.88,56.77 354.678,56.827 354.448C57.202 353.152,59.246 352,61.608 351.77M62.501 370L62.558 370L62.472 370M62.501 351.05L62.558 351.05L62.472 351.05"/><path stroke="none" d="M60.758 372.086C60.816 372.058,62.458 372.058,64.013 372.058C65.338 372.058,66.634 372.058,66.662 372.086C66.835 372.144,66.95 372.317,66.95 372.49C66.95 372.691,66.922 372.72,66.374 373.325C65.885 373.843,64.358 375.571,62.803 377.328C62.342 377.846,61.91 378.336,61.795 378.451C61.68 378.566,60.989 379.344,60.24 380.179C59.52 381.014,58.598 382.051,58.224 382.454C57.85 382.886,57.533 383.232,57.533 383.261C57.533 383.261,57.533 383.261,57.533 383.261C57.533 383.29,57.763 383.29,60.125 383.29L62.717 383.29L62.746 381.418C62.746 379.603,62.746 379.574,62.774 379.517C62.803 379.488,63.379 378.826,64.07 378.048C64.762 377.27,65.568 376.349,65.885 376.032C66.662 375.139,66.634 375.168,66.864 375.168C67.066 375.168,67.21 375.254,67.267 375.398C67.296 375.485,67.296 375.629,67.296 379.373L67.296 383.29L67.987 383.29C68.65 383.29,68.707 383.29,68.794 383.318C69.024 383.405,69.168 383.635,69.168 383.866C69.168 384.038,69.11 384.182,68.995 384.298C68.822 384.47,68.794 384.47,68.016 384.47L67.325 384.47L67.325 384.643C67.325 384.73,67.325 384.989,67.325 385.219C67.354 386.4,67.728 386.976,68.88 387.552C69.11 387.667,69.254 387.84,69.254 388.013C69.254 388.128,69.197 388.243,69.11 388.33C68.995 388.445,69.283 388.445,66.547 388.445C66.115 388.445,65.597 388.445,65.021 388.445C64.445 388.445,63.926 388.445,63.494 388.445C60.758 388.445,61.046 388.445,60.931 388.33C60.845 388.243,60.787 388.128,60.787 388.013C60.787 387.84,60.931 387.667,61.162 387.552C62.314 386.976,62.688 386.4,62.717 385.219C62.717 384.989,62.717 384.73,62.717 384.643L62.717 384.47L59.434 384.47C58.944 384.47,58.541 384.47,58.195 384.47C55.834 384.47,56.035 384.47,55.92 384.355C55.834 384.269,55.776 384.154,55.776 384.038C55.776 383.923,55.862 383.75,56.006 383.578C58.742 380.496,60.384 376.637,60.499 372.893C60.499 372.288,60.528 372.202,60.758 372.086M62.515 390L62.544 390L62.458 390M62.515 371.05L62.544 371.05L62.458 371.05"/></g><g class="vf-stavenote" id="vf-auto7343"><g class="vf-notehead" id="vf-auto7383" pointer-events="bounding-box"><path stroke="none" d="M83.838 321.688C83.95 321.66,84.034 321.66,84.147 321.66C84.736 321.66,85.438 321.913,85.916 322.278C86.646 322.84,87.011 323.682,87.011 324.524C87.011 325.198,86.786 325.872,86.309 326.378L86.196 326.518L86.337 326.462C87.881 326.041,89.229 324.777,89.875 323.148C89.903 323.036,89.987 322.896,89.987 322.868C90.128 322.727,90.296 322.643,90.465 322.643C90.774 322.643,91.054 322.868,91.054 323.205C91.054 323.345,86.955 337.048,86.87 337.188C86.786 337.385,86.59 337.469,86.365 337.469C86.14 337.469,85.916 337.357,85.831 337.132C85.803 337.076,85.775 337.048,85.775 336.992C85.775 336.767,86.028 336.037,87.348 331.629C88.19 328.793,88.892 326.462,88.892 326.462C88.892 326.462,88.892 326.462,88.892 326.462C88.864 326.462,88.78 326.518,88.639 326.63C87.629 327.389,86.365 327.782,85.186 327.782C84.119 327.782,83.08 327.473,82.265 326.799C81.591 326.265,81.254 325.451,81.254 324.609C81.254 323.879,81.507 323.148,82.069 322.559C82.518 322.081,83.08 321.801,83.838 321.688"/></g></g><g class="vf-stavenote" id="vf-auto7347"><g class="vf-stem" id="vf-auto7348" pointer-events="bounding-box"><path stroke-width="1.5" fill="none" d="M159.833 348.5L159.833 318"/></g><g class="vf-notehead" id="vf-auto7353" pointer-events="bounding-box"><path stroke="none" d="M155.697 344.889C155.781 344.889,155.865 344.889,156.006 344.889C156.371 344.889,156.904 344.918,157.101 344.946C159.431 345.283,160.583 346.827,160.583 348.624C160.583 350.534,159.291 352.724,156.708 354.128C155.444 354.802,154.152 355.111,152.973 355.111C150.811 355.111,149.042 354.044,148.677 352.162C148.621 351.881,148.593 351.629,148.593 351.376C148.593 348.343,151.85 345.283,155.697 344.889"/></g><path stroke="none" d="M159.107 317.409L159.107 313.14L159.191 313.14C159.528 313.14,159.669 313.309,159.781 313.758C160.595 316.819,162.14 319.346,164.583 321.592C167.278 324.092,168.626 327.545,168.626 331.084C168.626 334.172,167.615 337.373,165.537 340.125C164.807 341.108,164.583 341.305,164.302 341.305C163.937 341.305,163.712 341.052,163.712 340.771C163.712 340.603,163.796 340.406,163.937 340.238C166.127 337.682,167.25 334.594,167.25 331.673C167.25 329.09,166.38 326.647,164.639 324.766C163.544 323.614,161.662 322.547,159.135 321.677C159.107 321.677,159.107 320.806,159.107 317.409"/></g><g class="vf-stavenote" id="vf-auto7355"><path stroke-width="1.4" fill="none" stroke="#444" d="M212.931 340L230.921 340"/><g class="vf-stem" id="vf-auto7356" pointer-events="bounding-box"><path stroke-width="1.5" fill="none" d="M227.171 338.5L227.171 305"/></g><g class="vf-notehead" id="vf-auto7359" pointer-events="bounding-box"><path stroke="none" d="M223.035 334.889C223.119 334.889,223.204 334.889,223.344 334.889C223.709 334.889,224.242 334.918,224.439 334.946C226.77 335.283,227.921 336.827,227.921 338.624C227.921 340.534,226.629 342.724,224.046 344.128C222.782 344.802,221.491 345.111,220.311 345.111C218.149 345.111,216.38 344.044,216.015 342.162C215.959 341.881,215.931 341.629,215.931 341.376C215.931 338.343,219.188 335.283,223.035 334.889"/></g></g><g class="vf-stavenote" id="vf-auto7361"><g class="vf-stem" id="vf-auto7362" pointer-events="bounding-box"><path stroke-width="1.5" fill="none" d="M82.004 351.5L82.004 395"/></g><g class="vf-notehead" id="vf-auto7368" pointer-events="bounding-box"><path stroke="none" d="M88.359 354.889C88.443 354.889,88.527 354.889,88.668 354.889C89.033 354.889,89.566 354.918,89.763 354.946C92.093 355.283,93.245 356.827,93.245 358.624C93.245 360.534,91.953 362.724,89.37 364.128C88.106 364.802,86.814 365.111,85.635 365.111C83.473 365.111,81.704 364.044,81.339 362.162C81.282 361.881,81.254 361.629,81.254 361.376C81.254 358.343,84.512 355.283,88.359 354.889"/></g><g class="vf-notehead" id="vf-auto7367" pointer-events="bounding-box"><path stroke="none" d="M88.359 344.889C88.443 344.889,88.527 344.889,88.668 344.889C89.033 344.889,89.566 344.918,89.763 344.946C92.093 345.283,93.245 346.827,93.245 348.624C93.245 350.534,91.953 352.724,89.37 354.128C88.106 354.802,86.814 355.111,85.635 355.111C83.473 355.111,81.704 354.044,81.339 352.162C81.282 351.881,81.254 351.629,81.254 351.376C81.254 348.343,84.512 345.283,88.359 344.889"/></g></g><g class="vf-stavenote" id="vf-auto7369"><g class="vf-notehead" id="vf-auto7384" pointer-events="bounding-box"><path stroke="none" d="M217.251 351.157C217.307 351.128,217.363 351.128,217.419 351.128C217.559 351.128,217.7 351.213,217.896 351.381C217.981 351.465,218.261 351.69,218.486 351.887C218.683 352.083,218.963 352.308,219.048 352.392C219.694 352.954,219.974 353.206,220.704 353.824C223.906 356.632,224.13 356.801,224.13 356.969C224.13 356.969,224.13 356.997,224.13 357.025C224.13 357.053,224.13 357.081,224.13 357.11C224.13 357.222,224.102 357.222,223.793 357.671C223.007 358.85,222.389 360.226,222.108 361.518C221.912 362.36,221.8 363.175,221.8 363.989C221.8 366.207,222.558 368.229,223.99 369.689C224.327 369.998,224.355 370.054,224.355 370.223C224.355 370.504,224.186 370.644,223.934 370.644C223.821 370.644,223.709 370.616,223.597 370.588C223.344 370.532,223.063 370.476,222.81 370.476C221.771 370.476,220.704 370.981,220.002 371.852C219.441 372.582,219.16 373.452,219.16 374.323C219.16 375.558,219.722 376.878,220.817 377.945C221.013 378.141,221.126 378.31,221.126 378.478C221.126 378.563,221.069 378.647,220.985 378.759C220.901 378.815,220.817 378.872,220.704 378.872C220.508 378.872,220.199 378.647,219.525 378.085C217.194 376.092,215.931 373.986,215.931 372.132L215.931 372.132L215.931 371.655L215.987 371.43C216.436 369.802,218.009 368.847,220.087 368.847C220.592 368.847,221.126 368.903,221.659 369.015L221.94 369.072L221.884 369.015C221.828 368.959,220.367 367.668,219.216 366.629C216.549 364.27,216.436 364.186,216.436 364.017C216.436 363.989,216.436 363.989,216.436 363.961L216.436 363.933C216.436 363.764,216.436 363.764,216.689 363.456C218.233 361.378,219.02 358.935,219.02 356.744C219.02 354.919,218.458 353.234,217.335 352.083C217.026 351.802,216.998 351.746,216.998 351.578C216.998 351.381,217.082 351.241,217.251 351.157"/></g></g><text stroke="none" x="330" y="360">softmax: 2</text><g class="vf-stave" id="vf-auto7417" stroke-width="1" fill="#999999" stroke="#999999"><path fill="none" d="M10 450L320 450"/><path fill="none" d="M10 460L320 460"/><path fill="none" d="M10 470L320 470"/><path fill="none" d="M10 480L320 480"/><path fill="none" d="M10 490L320 490"/></g><g class="vf-stavebarline" id="vf-auto7418"/><g class="vf-stavebarline" id="vf-auto7419"><rect x="320" y="449.5" width="1" height="41" stroke="none"/></g><g class="vf-clef" id="vf-auto7420"><path stroke="none" d="M23.813 450.15C24.101 450.122,24.36 450.122,24.648 450.122C27.557 450.122,30.552 451.014,32.51 452.483C35.045 454.384,36.341 456.976,36.341 460.058C36.341 460.49,36.312 460.922,36.254 461.382C35.304 469.619,28.536 477.165,19.349 480.218C17.995 480.678,15.835 481.226,15.432 481.226C15.173 481.226,15 481.053,15 480.794C15 480.506,15.058 480.448,15.662 480.218C24.562 476.906,30.581 469.878,31.272 461.958C31.301 461.382,31.33 460.806,31.33 460.259C31.33 456.4,30.062 453.434,27.701 451.936C26.693 451.302,25.541 451.014,24.36 451.014C21.71 451.014,18.946 452.512,17.707 454.989C17.621 455.162,17.419 455.622,17.419 455.651C17.419 455.651,17.419 455.651,17.419 455.651C17.419 455.651,17.506 455.622,17.592 455.565C18.197 455.162,18.888 454.989,19.579 454.989C21.278 454.989,22.92 456.141,23.323 457.984C23.41 458.272,23.438 458.56,23.438 458.848C23.438 460.979,21.71 462.736,19.522 462.736C19.349 462.736,19.147 462.707,18.974 462.678C16.757 462.39,15.23 460.403,15.23 457.84L15.23 457.84C15.23 453.837,19.003 450.438,23.813 450.15M39.048 453.923C39.077 453.923,39.134 453.894,39.192 453.894C39.394 453.894,39.653 453.923,39.739 453.981C40.43 454.211,40.776 454.787,40.776 455.392C40.776 455.968,40.43 456.573,39.739 456.803C39.624 456.832,39.451 456.861,39.307 456.861C39.134 456.861,38.962 456.832,38.846 456.803C38.155 456.573,37.838 455.968,37.838 455.392C37.838 454.73,38.242 454.067,39.048 453.923M39.048 463.139C39.077 463.139,39.134 463.139,39.192 463.139C39.394 463.139,39.653 463.168,39.739 463.197C40.43 463.427,40.776 464.032,40.776 464.608C40.776 465.213,40.43 465.818,39.739 466.019C39.624 466.077,39.451 466.077,39.307 466.077C39.134 466.077,38.962 466.077,38.846 466.019C38.155 465.789,37.838 465.213,37.838 464.608C37.838 463.974,38.242 463.312,39.048 463.139"/></g><g class="vf-timesignature" id="vf-auto7421"><path stroke="none" d="M61.608 451.77C61.81 451.77,62.011 451.741,62.213 451.741C62.99 451.741,63.883 451.856,64.517 452.058C66.936 452.749,68.347 454.362,68.347 456.262C68.347 456.896,68.203 457.53,67.886 458.192C67.022 459.978,65.381 461.245,62.933 462.08C60.6 462.829,59.102 463.779,58.008 465.162L57.893 465.277L58.037 465.162C59.218 464.211,60.658 463.722,62.069 463.722C62.99 463.722,63.883 463.923,64.661 464.355C65.294 464.701,65.669 464.845,66.158 464.931C66.302 464.96,66.475 464.96,66.619 464.96C67.339 464.96,68.002 464.701,68.232 464.298C68.318 464.096,68.491 464.01,68.664 464.01C68.866 464.01,69.096 464.182,69.096 464.47C69.096 464.73,68.75 465.594,68.434 466.141C67.512 467.725,66.043 468.733,64.574 468.733L64.546 468.733C63.941 468.704,63.768 468.675,63.307 468.387C62.069 467.581,60.773 467.178,59.534 467.178C59.16 467.178,58.814 467.206,58.469 467.293C57.778 467.437,57.058 467.84,56.798 468.214C56.683 468.358,56.51 468.445,56.366 468.445C56.194 468.445,56.021 468.358,55.963 468.157C55.934 468.128,55.934 468.042,55.934 467.926C55.934 467.581,55.992 467.005,56.107 466.602C56.683 464.211,58.382 462.282,60.802 461.216C62.587 460.438,63.797 458.883,64.142 456.954C64.171 456.723,64.2 456.493,64.2 456.291C64.2 455.456,63.883 454.707,63.307 454.16C62.674 453.555,61.896 453.238,60.917 453.238C60.744 453.238,60.542 453.267,60.341 453.296C60.11 453.296,60.053 453.325,60.053 453.325C60.053 453.354,60.082 453.354,60.11 453.382C60.802 453.814,61.118 454.477,61.118 455.168C61.118 456.032,60.6 456.896,59.65 457.213C59.419 457.299,59.189 457.328,58.958 457.328C57.749 457.328,56.741 456.291,56.741 455.082C56.741 454.88,56.77 454.678,56.827 454.448C57.202 453.152,59.246 452,61.608 451.77M62.501 470L62.558 470L62.472 470M62.501 451.05L62.558 451.05L62.472 451.05"/><path stroke="none" d="M60.758 472.086C60.816 472.058,62.458 472.058,64.013 472.058C65.338 472.058,66.634 472.058,66.662 472.086C66.835 472.144,66.95 472.317,66.95 472.49C66.95 472.691,66.922 472.72,66.374 473.325C65.885 473.843,64.358 475.571,62.803 477.328C62.342 477.846,61.91 478.336,61.795 478.451C61.68 478.566,60.989 479.344,60.24 480.179C59.52 481.014,58.598 482.051,58.224 482.454C57.85 482.886,57.533 483.232,57.533 483.261C57.533 483.261,57.533 483.261,57.533 483.261C57.533 483.29,57.763 483.29,60.125 483.29L62.717 483.29L62.746 481.418C62.746 479.603,62.746 479.574,62.774 479.517C62.803 479.488,63.379 478.826,64.07 478.048C64.762 477.27,65.568 476.349,65.885 476.032C66.662 475.139,66.634 475.168,66.864 475.168C67.066 475.168,67.21 475.254,67.267 475.398C67.296 475.485,67.296 475.629,67.296 479.373L67.296 483.29L67.987 483.29C68.65 483.29,68.707 483.29,68.794 483.318C69.024 483.405,69.168 483.635,69.168 483.866C69.168 484.038,69.11 484.182,68.995 484.298C68.822 484.47,68.794 484.47,68.016 484.47L67.325 484.47L67.325 484.643C67.325 484.73,67.325 484.989,67.325 485.219C67.354 486.4,67.728 486.976,68.88 487.552C69.11 487.667,69.254 487.84,69.254 488.013C69.254 488.128,69.197 488.243,69.11 488.33C68.995 488.445,69.283 488.445,66.547 488.445C66.115 488.445,65.597 488.445,65.021 488.445C64.445 488.445,63.926 488.445,63.494 488.445C60.758 488.445,61.046 488.445,60.931 488.33C60.845 488.243,60.787 488.128,60.787 488.013C60.787 487.84,60.931 487.667,61.162 487.552C62.314 486.976,62.688 486.4,62.717 485.219C62.717 484.989,62.717 484.73,62.717 484.643L62.717 484.47L59.434 484.47C58.944 484.47,58.541 484.47,58.195 484.47C55.834 484.47,56.035 484.47,55.92 484.355C55.834 484.269,55.776 484.154,55.776 484.038C55.776 483.923,55.862 483.75,56.006 483.578C58.742 480.496,60.384 476.637,60.499 472.893C60.499 472.288,60.528 472.202,60.758 472.086M62.515 490L62.544 490L62.458 490M62.515 471.05L62.544 471.05L62.458 471.05"/></g><g class="vf-stavenote" id="vf-auto7386"><g class="vf-notehead" id="vf-auto7426" pointer-events="bounding-box"><path stroke="none" d="M83.838 421.688C83.95 421.66,84.034 421.66,84.147 421.66C84.736 421.66,85.438 421.913,85.916 422.278C86.646 422.84,87.011 423.682,87.011 424.524C87.011 425.198,86.786 425.872,86.309 426.378L86.196 426.518L86.337 426.462C87.881 426.041,89.229 424.777,89.875 423.148C89.903 423.036,89.987 422.896,89.987 422.868C90.128 422.727,90.296 422.643,90.465 422.643C90.774 422.643,91.054 422.868,91.054 423.205C91.054 423.345,86.955 437.048,86.87 437.188C86.786 437.385,86.59 437.469,86.365 437.469C86.14 437.469,85.916 437.357,85.831 437.132C85.803 437.076,85.775 437.048,85.775 436.992C85.775 436.767,86.028 436.037,87.348 431.629C88.19 428.793,88.892 426.462,88.892 426.462C88.892 426.462,88.892 426.462,88.892 426.462C88.864 426.462,88.78 426.518,88.639 426.63C87.629 427.389,86.365 427.782,85.186 427.782C84.119 427.782,83.08 427.473,82.265 426.799C81.591 426.265,81.254 425.451,81.254 424.609C81.254 423.879,81.507 423.148,82.069 422.559C82.518 422.081,83.08 421.801,83.838 421.688"/></g></g><g class="vf-stavenote" id="vf-auto7390"><g class="vf-stem" id="vf-auto7391" pointer-events="bounding-box"><path stroke-width="1.5" fill="none" d="M164.08 448.5L164.08 418"/></g><g class="vf-notehead" id="vf-auto7396" pointer-events="bounding-box"><path stroke="none" d="M159.944 444.889C160.028 444.889,160.112 444.889,160.253 444.889C160.618 444.889,161.151 444.918,161.348 444.946C163.678 445.283,164.83 446.827,164.83 448.624C164.83 450.534,163.538 452.724,160.955 454.128C159.691 454.802,158.399 455.111,157.22 455.111C155.058 455.111,153.289 454.044,152.924 452.162C152.868 451.881,152.84 451.629,152.84 451.376C152.84 448.343,156.097 445.283,159.944 444.889"/></g><path stroke="none" d="M163.354 417.409L163.354 413.14L163.438 413.14C163.775 413.14,163.915 413.309,164.028 413.758C164.842 416.819,166.387 419.346,168.829 421.592C171.525 424.092,172.873 427.545,172.873 431.084C172.873 434.172,171.862 437.373,169.784 440.125C169.054 441.108,168.829 441.305,168.549 441.305C168.184 441.305,167.959 441.052,167.959 440.771C167.959 440.603,168.043 440.406,168.184 440.238C170.374 437.682,171.497 434.594,171.497 431.673C171.497 429.09,170.627 426.647,168.886 424.766C167.791 423.614,165.909 422.547,163.382 421.677C163.354 421.677,163.354 420.806,163.354 417.409"/></g><g class="vf-stavenote" id="vf-auto7398"><path stroke-width="1.4" fill="none" stroke="#444" d="M221.425 440L239.415 440"/><g class="vf-stem" id="vf-auto7399" pointer-events="bounding-box"><path stroke-width="1.5" fill="none" d="M235.665 438.5L235.665 405"/></g><g class="vf-notehead" id="vf-auto7402" pointer-events="bounding-box"><path stroke="none" d="M231.529 434.889C231.613 434.889,231.697 434.889,231.838 434.889C232.203 434.889,232.736 434.918,232.933 434.946C235.264 435.283,236.415 436.827,236.415 438.624C236.415 440.534,235.123 442.724,232.54 444.128C231.276 444.802,229.985 445.111,228.805 445.111C226.643 445.111,224.874 444.044,224.509 442.162C224.453 441.881,224.425 441.629,224.425 441.376C224.425 438.343,227.682 435.283,231.529 434.889"/></g></g><g class="vf-stavenote" id="vf-auto7404"><g class="vf-stem" id="vf-auto7405" pointer-events="bounding-box"><path stroke-width="1.5" fill="none" d="M82.004 451.5L82.004 495"/></g><g class="vf-notehead" id="vf-auto7411" pointer-events="bounding-box"><path stroke="none" d="M88.359 454.889C88.443 454.889,88.527 454.889,88.668 454.889C89.033 454.889,89.566 454.918,89.763 454.946C92.093 455.283,93.245 456.827,93.245 458.624C93.245 460.534,91.953 462.724,89.37 464.128C88.106 464.802,86.814 465.111,85.635 465.111C83.473 465.111,81.704 464.044,81.339 462.162C81.282 461.881,81.254 461.629,81.254 461.376C81.254 458.343,84.512 455.283,88.359 454.889"/></g><g class="vf-notehead" id="vf-auto7410" pointer-events="bounding-box"><path stroke="none" d="M88.359 444.889C88.443 444.889,88.527 444.889,88.668 444.889C89.033 444.889,89.566 444.918,89.763 444.946C92.093 445.283,93.245 446.827,93.245 448.624C93.245 450.534,91.953 452.724,89.37 454.128C88.106 454.802,86.814 455.111,85.635 455.111C83.473 455.111,81.704 454.044,81.339 452.162C81.282 451.881,81.254 451.629,81.254 451.376C81.254 448.343,84.512 445.283,88.359 444.889"/></g></g><g class="vf-stavenote" id="vf-auto7412"><g class="vf-notehead" id="vf-auto7427" pointer-events="bounding-box"><path stroke="none" d="M225.744 451.157C225.801 451.128,225.857 451.128,225.913 451.128C226.053 451.128,226.194 451.213,226.39 451.381C226.475 451.465,226.755 451.69,226.98 451.887C227.177 452.083,227.457 452.308,227.542 452.392C228.187 452.954,228.468 453.206,229.198 453.824C232.399 456.632,232.624 456.801,232.624 456.969C232.624 456.969,232.624 456.997,232.624 457.025C232.624 457.053,232.624 457.081,232.624 457.11C232.624 457.222,232.596 457.222,232.287 457.671C231.501 458.85,230.883 460.226,230.602 461.518C230.406 462.36,230.293 463.175,230.293 463.989C230.293 466.207,231.052 468.229,232.484 469.689C232.821 469.998,232.849 470.054,232.849 470.223C232.849 470.504,232.68 470.644,232.427 470.644C232.315 470.644,232.203 470.616,232.091 470.588C231.838 470.532,231.557 470.476,231.304 470.476C230.265 470.476,229.198 470.981,228.496 471.852C227.935 472.582,227.654 473.452,227.654 474.323C227.654 475.558,228.215 476.878,229.311 477.945C229.507 478.141,229.619 478.31,229.619 478.478C229.619 478.563,229.563 478.647,229.479 478.759C229.395 478.815,229.311 478.872,229.198 478.872C229.002 478.872,228.693 478.647,228.019 478.085C225.688 476.092,224.425 473.986,224.425 472.132L224.425 472.132L224.425 471.655L224.481 471.43C224.93 469.802,226.503 468.847,228.581 468.847C229.086 468.847,229.619 468.903,230.153 469.015L230.434 469.072L230.378 469.015C230.321 468.959,228.861 467.668,227.71 466.629C225.042 464.27,224.93 464.186,224.93 464.017C224.93 463.989,224.93 463.989,224.93 463.961L224.93 463.933C224.93 463.764,224.93 463.764,225.183 463.456C226.727 461.378,227.513 458.935,227.513 456.744C227.513 454.919,226.952 453.234,225.829 452.083C225.52 451.802,225.492 451.746,225.492 451.578C225.492 451.381,225.576 451.241,225.744 451.157"/></g></g><text stroke="none" x="330" y="460">softmax: 1</text></svg>