<svg xmlns="http://www.w3.org/2000/svg" stroke-width="0.3" stroke-dasharray="none" fill="black" stroke="black" font-family="Arial, sans-serif" font-size="10pt" font-weight="normal" font-style="normal" width="600" height="200" viewBox="0 0 600 200" style="width: 600px; height: 200px; border: none;"><g class="vf-stave" id="vf-auto25707" stroke-width="1" fill="#999999" stroke="#999999"><path fill="none" d="M50 50L550 50"/><path fill="none" d="M50 60L550 60"/><path fill="none" d="M50 70L550 70"/><path fill="none" d="M50 80L550 80"/><path fill="none" d="M50 90L550 90"/></g><g class="vf-stavebarline" id="vf-auto25708"><rect x="50" y="49.5" width="1" height="41" stroke="none"/></g><g class="vf-stavebarline" id="vf-auto25709"><rect x="550" y="49.5" width="1" height="41" stroke="none"/></g><g class="vf-clef" id="vf-auto25710"><path stroke="none" d="M63.693 101.402C63.87 101.402,64.048 101.377,64.276 101.301C64.707 101.148,65.062 100.92,65.366 100.591C68.382 97.423,69.623 93.596,69.75 89.313C69.75 88.983,69.776 88.451,69.776 88.451C69.776 88.451,70.282 88.147,70.511 88.071C71.727 87.488,72.893 86.829,73.932 85.993C76.72 83.762,78.316 80.747,79.051 77.376C79.204 76.844,79.229 76.286,79.229 75.779C79.229 73.473,77.962 71.8,75.047 71.268C74.312 71.116,73.577 71.04,72.842 71.04C71.017 71.04,69.269 71.521,67.621 72.484C67.419 72.611,67.19 72.763,67.19 72.763L66.253 69.215C66.202 69.038,66.202 68.708,66.202 68.708C66.202 68.708,69.928 62.093,70.434 58.697C70.612 57.709,70.688 56.72,70.688 55.757C70.688 54.972,70.663 54.237,70.536 53.527C70.181 50.891,69.193 48.408,68.534 45.848C68.356 45.088,68.103 44.175,67.216 44.175C66.557 44.175,66.101 44.809,65.695 45.341C63.82 47.926,62.907 50.891,62.73 54.059C62.705 54.566,62.705 55.098,62.705 55.605C62.705 58.545,63.186 61.51,63.566 64.425C63.566 64.653,63.642 64.881,63.693 65.059C62.046 67.39,60.221 69.57,58.65 71.978C57.56 73.701,56.343 75.424,55.583 77.35C55.177 78.288,55 79.403,55 80.493C55 82.749,55.76 85.055,57.078 86.322C57.839 87.057,59.055 87.868,60.246 88.299C61.944 88.907,63.617 89.313,65.391 89.313C65.923 89.313,66.455 89.287,67.013 89.211L67.444 89.135C67.444 89.135,67.469 89.465,67.444 89.642C67.038 91.847,66.506 94.001,65.188 95.826C64.479 96.764,63.82 97.828,62.451 97.93C62.046 97.98,61.868 98.234,61.868 98.563C61.868 98.69,61.894 98.817,61.944 98.944C62.147 99.501,62.4 100.084,62.654 100.642C62.882 101.148,63.237 101.402,63.693 101.402M65.138 62.828C64.859 61.08,64.681 59.356,64.681 57.633C64.681 54.465,65.34 51.373,67.19 48.408C67.621 49.751,67.849 51.119,67.849 52.488C67.849 53.198,67.773 53.933,67.672 54.642C67.19 57.506,66.532 60.269,65.138 62.828M61.387 84.421C60.88 84.396,60.449 84.219,59.967 84.067C59.004 83.737,58.219 83.382,57.965 82.749C57.839 82.47,57.813 82.14,57.813 81.811C57.813 81.406,57.889 80.975,57.965 80.518C57.991 80.316,58.219 79.682,58.295 79.581C59.714 77.046,61.412 74.765,63.211 72.459L64.732 70.457L65.011 71.268C65.29 72.18,65.543 73.625,65.543 73.625C65.543 73.625,64.529 74.943,63.87 75.602C62.046 77.376,61.159 79.606,61.159 82.064C61.159 82.673,61.235 83.306,61.361 83.965C61.387 84.092,61.387 84.219,61.387 84.421M69.269 83.306C68.99 80.924,68.432 79.023,67.925 76.742C67.875 76.463,67.875 76.286,68.001 76.134C68.939 75.957,69.852 75.881,70.815 75.881C71.727 75.881,72.589 75.957,73.501 76.134C74.591 76.362,75.681 76.539,76.542 77.426C76.593 77.503,76.669 77.579,76.745 77.604C75.301 80.518,73.146 82.723,70.08 84.067L69.421 84.32M65.391 85.055C64.124 85.055,62.882 84.726,62.882 84.726C62.882 84.726,62.781 84.219,62.781 83.484C62.781 83.002,62.806 82.419,62.958 81.836C63.313 80.088,64.555 78.846,65.873 77.68C65.974 77.579,66.101 77.503,66.177 77.503C66.303 77.503,66.354 77.655,66.379 77.908C66.709 80.062,67.266 82.166,67.419 84.32C67.444 84.548,67.419 84.878,67.419 84.878C67.419 84.878,66.455 85.131,65.391 85.055"/></g><g class="vf-timesignature" id="vf-auto25711"><path stroke="none" d="M109.113 67.234C109.455 67.332,109.749 67.038,109.921 66.744C110.386 66.157,110.435 65.447,110.557 64.737C110.949 61.383,110.875 58.005,110.998 54.651L110.998 54.308C112.246 54.064,113.397 53.623,114.572 53.109C116.285 52.301,116.579 51.86,116.555 50C116.555 49.119,116.359 48.727,115.918 48.703C115.698 48.703,115.38 48.8,114.988 49.021L114.743 49.119C113.544 49.657,112.32 50.073,111.047 50.318C111.047 48.776,110.973 47.209,110.9 45.667C110.826 44.37,110.802 43.023,110.679 41.726C110.655 41.432,110.679 40.869,110.239 40.869C109.798 40.869,109.504 41.163,109.455 41.677C109.431 42.313,109.235 42.95,109.284 43.586C109.309 45.912,109.382 48.237,109.382 50.539C108.966 50.563,108.55 50.563,108.158 50.539C106.004 50.392,103.898 50.024,101.695 50.073C100.936 50.073,100.153 50.098,99.37 50.22C100.153 48.727,100.79 47.356,101.597 46.01C103.458 42.95,105.465 39.914,106.787 36.487C107.105 35.679,107.35 34.871,107.35 34.039C107.35 33.794,107.301 33.549,107.277 33.28C107.228 33.084,107.228 32.693,106.958 32.693C106.665 32.668,106.322 32.766,106.151 33.035C106.028 33.256,105.906 33.427,105.832 33.647C105.343 35.239,104.462 36.609,103.629 38.005C102.626 39.743,101.45 41.408,100.422 43.121C98.978 45.569,97.778 48.091,96.016 50.318C95.453 51.028,94.939 51.763,94.939 52.644C94.939 52.962,95.012 53.28,95.135 53.599C95.282 53.917,95.453 54.235,95.453 54.553C95.502 55.067,95.6 55.263,95.894 55.288C96.016 55.288,96.236 55.214,96.481 55.067C98.048 54.406,99.614 54.064,101.279 54.064C103.458 54.064,105.661 54.406,107.84 54.553C108.085 54.578,108.329 54.578,108.574 54.627C108.819 54.627,109.064 54.627,109.309 54.553C109.235 56.561,109.211 58.568,109.064 60.575C108.99 62.118,108.819 63.684,108.819 65.3C108.819 65.692,108.819 66.034,108.868 66.402C108.868 66.72,108.819 67.136,109.113 67.234"/><path stroke="none" d="M109.113 107.234C109.455 107.332,109.749 107.038,109.921 106.744C110.386 106.157,110.435 105.447,110.557 104.737C110.949 101.383,110.875 98.005,110.998 94.651L110.998 94.308C112.246 94.064,113.397 93.623,114.572 93.109C116.285 92.301,116.579 91.86,116.555 90C116.555 89.119,116.359 88.727,115.918 88.703C115.698 88.703,115.38 88.8,114.988 89.021L114.743 89.119C113.544 89.657,112.32 90.073,111.047 90.318C111.047 88.776,110.973 87.209,110.9 85.667C110.826 84.37,110.802 83.023,110.679 81.726C110.655 81.432,110.679 80.869,110.239 80.869C109.798 80.869,109.504 81.163,109.455 81.677C109.431 82.313,109.235 82.95,109.284 83.586C109.309 85.912,109.382 88.237,109.382 90.539C108.966 90.563,108.55 90.563,108.158 90.539C106.004 90.392,103.898 90.024,101.695 90.073C100.936 90.073,100.153 90.098,99.37 90.22C100.153 88.727,100.79 87.356,101.597 86.01C103.458 82.95,105.465 79.914,106.787 76.487C107.105 75.679,107.35 74.871,107.35 74.039C107.35 73.794,107.301 73.549,107.277 73.28C107.228 73.084,107.228 72.693,106.958 72.693C106.665 72.668,106.322 72.766,106.151 73.035C106.028 73.256,105.906 73.427,105.832 73.647C105.343 75.239,104.462 76.609,103.629 78.005C102.626 79.743,101.45 81.408,100.422 83.121C98.978 85.569,97.778 88.091,96.016 90.318C95.453 91.028,94.939 91.763,94.939 92.644C94.939 92.962,95.012 93.28,95.135 93.599C95.282 93.917,95.453 94.235,95.453 94.553C95.502 95.067,95.6 95.263,95.894 95.288C96.016 95.288,96.236 95.214,96.481 95.067C98.048 94.406,99.614 94.064,101.279 94.064C103.458 94.064,105.661 94.406,107.84 94.553C108.085 94.578,108.329 94.578,108.574 94.627C108.819 94.627,109.064 94.627,109.309 94.553C109.235 96.561,109.211 98.568,109.064 100.575C108.99 102.118,108.819 103.684,108.819 105.3C108.819 105.692,108.819 106.034,108.868 106.402C108.868 106.72,108.819 107.136,109.113 107.234"/></g><g class="vf-stavenote" id="vf-auto25739"><path stroke-width="1.4" fill="none" stroke="#444" d="M124.846 100L144.354 100"/><path stroke-width="1.4" fill="none" stroke="#444" d="M124.846 110L144.354 110"/><path stroke-width="1.4" fill="none" stroke="#444" d="M124.846 120L144.354 120"/><g class="vf-notehead" id="vf-auto25743" pointer-events="bounding-box"><path stroke="none" d="M130.991 131.543C131.272 131.599,131.525 131.627,131.805 131.627C135.68 131.627,141.465 126.348,141.353 122.08C141.24 121.041,141.268 119.609,139.162 118.766C138.573 118.485,137.927 118.373,137.225 118.373C132.9 118.373,128.211 123.343,127.874 126.657C127.874 126.909,127.846 127.134,127.846 127.387C127.846 129.409,128.745 131.037,130.991 131.543"/></g></g><g class="vf-stavenote" id="vf-auto25745"><g class="vf-notehead" id="vf-auto25785" pointer-events="bounding-box"><path stroke="none" d="M186.095 135.502C186.826 135.474,187.191 135.025,187.443 134.547C188.173 133.199,188.735 131.795,189.24 130.335C190.841 126.011,191.571 121.406,193.003 116.997C193.087 116.744,193.172 116.464,193.172 116.183L193.172 115.986C193.144 115.425,193.003 115.06,192.526 115.06C192.413 115.06,192.329 115.06,192.217 115.088C191.234 115.256,190.336 115.649,189.69 116.267C188.679 117.25,187.556 117.952,186.376 118.682C186.208 118.766,186.067 118.85,185.899 118.85C185.73 118.85,185.562 118.766,185.422 118.598C185.253 118.457,185.169 118.261,185.169 118.092C185.169 117.924,185.197 117.812,185.281 117.643C185.45 117.362,185.618 116.997,185.618 116.632C185.618 115.93,185.815 115.06,185.056 114.695C184.691 114.526,184.354 114.442,184.13 114.442C183.596 114.442,183.259 114.807,182.838 115.565C182.052 116.913,181.827 118.401,181.575 119.918C181.518 120.226,181.49 120.507,181.49 120.788C181.49 122.641,182.473 124.326,184.551 124.326C185.056 124.326,185.646 124.242,186.292 123.989C187.471 123.54,188.454 122.894,189.605 122.164C188.679 126.741,186.91 130.981,186.095 135.502"/></g></g><g class="vf-stavenote" id="vf-auto25749"><g class="vf-notehead" id="vf-auto25786" pointer-events="bounding-box"><path stroke="none" d="M239.74 135.502C240.47 135.474,240.835 135.025,241.088 134.547C241.818 133.199,242.379 131.795,242.885 130.335C244.485 126.011,245.215 121.406,246.647 116.997C246.732 116.744,246.816 116.464,246.816 116.183L246.816 115.986C246.788 115.425,246.647 115.06,246.17 115.06C246.058 115.06,245.973 115.06,245.861 115.088C244.878 115.256,243.98 115.649,243.334 116.267C242.323 117.25,241.2 117.952,240.02 118.682C239.852 118.766,239.712 118.85,239.543 118.85C239.375 118.85,239.206 118.766,239.066 118.598C238.897 118.457,238.813 118.261,238.813 118.092C238.813 117.924,238.841 117.812,238.925 117.643C239.094 117.362,239.262 116.997,239.262 116.632C239.262 115.93,239.459 115.06,238.701 114.695C238.336 114.526,237.999 114.442,237.774 114.442C237.241 114.442,236.904 114.807,236.482 115.565C235.696 116.913,235.472 118.401,235.219 119.918C235.163 120.226,235.135 120.507,235.135 120.788C235.135 122.641,236.117 124.326,238.195 124.326C238.701 124.326,239.29 124.242,239.936 123.989C241.116 123.54,242.098 122.894,243.25 122.164C242.323 126.741,240.554 130.981,239.74 135.502"/></g></g><g class="vf-stavenote" id="vf-auto25753"><path stroke-width="1.4" fill="none" stroke="#444" d="M285.779 100L305.287 100"/><path stroke-width="1.4" fill="none" stroke="#444" d="M285.779 110L305.287 110"/><path stroke-width="1.4" fill="none" stroke="#444" d="M285.779 120L305.287 120"/><g class="vf-notehead" id="vf-auto25757" pointer-events="bounding-box"><path stroke="none" d="M291.924 131.543C292.205 131.599,292.457 131.627,292.738 131.627C296.613 131.627,302.398 126.348,302.285 122.08C302.173 121.041,302.201 119.609,300.095 118.766C299.505 118.485,298.86 118.373,298.158 118.373C293.833 118.373,289.144 123.343,288.807 126.657C288.807 126.909,288.779 127.134,288.779 127.387C288.779 129.409,289.677 131.037,291.924 131.543"/></g></g><g class="vf-stavenote" id="vf-auto25759"><path stroke-width="1.4" fill="none" stroke="#444" d="M339.423 100L358.931 100"/><path stroke-width="1.4" fill="none" stroke="#444" d="M339.423 110L358.931 110"/><path stroke-width="1.4" fill="none" stroke="#444" d="M339.423 120L358.931 120"/><g class="vf-notehead" id="vf-auto25763" pointer-events="bounding-box"><path stroke="none" d="M345.568 131.543C345.849 131.599,346.102 131.627,346.382 131.627C350.257 131.627,356.042 126.348,355.93 122.08C355.817 121.041,355.845 119.609,353.739 118.766C353.15 118.485,352.504 118.373,351.802 118.373C347.477 118.373,342.788 123.343,342.451 126.657C342.451 126.909,342.423 127.134,342.423 127.387C342.423 129.409,343.322 131.037,345.568 131.543"/></g></g><g class="vf-stavenote" id="vf-auto25765"><g class="vf-notehead" id="vf-auto25787" pointer-events="bounding-box"><path stroke="none" d="M400.672 135.502C401.402 135.474,401.768 135.025,402.02 134.547C402.75 133.199,403.312 131.795,403.817 130.335C405.418 126.011,406.148 121.406,407.58 116.997C407.664 116.744,407.749 116.464,407.749 116.183L407.749 115.986C407.72 115.425,407.58 115.06,407.103 115.06C406.99 115.06,406.906 115.06,406.794 115.088C405.811 115.256,404.912 115.649,404.267 116.267C403.256 117.25,402.133 117.952,400.953 118.682C400.785 118.766,400.644 118.85,400.476 118.85C400.307 118.85,400.139 118.766,399.998 118.598C399.83 118.457,399.746 118.261,399.746 118.092C399.746 117.924,399.774 117.812,399.858 117.643C400.027 117.362,400.195 116.997,400.195 116.632C400.195 115.93,400.392 115.06,399.633 114.695C399.268 114.526,398.931 114.442,398.707 114.442C398.173 114.442,397.836 114.807,397.415 115.565C396.629 116.913,396.404 118.401,396.152 119.918C396.095 120.226,396.067 120.507,396.067 120.788C396.067 122.641,397.05 124.326,399.128 124.326C399.633 124.326,400.223 124.242,400.869 123.989C402.048 123.54,403.031 122.894,404.182 122.164C403.256 126.741,401.487 130.981,400.672 135.502"/></g></g><g class="vf-stavenote" id="vf-auto25769"><path stroke-width="1.4" fill="none" stroke="#444" d="M446.712 100L466.22 100"/><path stroke-width="1.4" fill="none" stroke="#444" d="M446.712 110L466.22 110"/><path stroke-width="1.4" fill="none" stroke="#444" d="M446.712 120L466.22 120"/><g class="vf-notehead" id="vf-auto25773" pointer-events="bounding-box"><path stroke="none" d="M452.856 131.543C453.137 131.599,453.39 131.627,453.671 131.627C457.546 131.627,463.33 126.348,463.218 122.08C463.106 121.041,463.134 119.609,461.028 118.766C460.438 118.485,459.792 118.373,459.09 118.373C454.766 118.373,450.077 123.343,449.74 126.657C449.74 126.909,449.712 127.134,449.712 127.387C449.712 129.409,450.61 131.037,452.856 131.543"/></g></g><g class="vf-stavenote" id="vf-auto25775"><path stroke-width="1.4" fill="none" stroke="#444" d="M500.356 100L519.864 100"/><path stroke-width="1.4" fill="none" stroke="#444" d="M500.356 110L519.864 110"/><path stroke-width="1.4" fill="none" stroke="#444" d="M500.356 120L519.864 120"/><g class="vf-notehead" id="vf-auto25779" pointer-events="bounding-box"><path stroke="none" d="M506.501 131.543C506.782 131.599,507.034 131.627,507.315 131.627C511.19 131.627,516.975 126.348,516.862 122.08C516.75 121.041,516.778 119.609,514.672 118.766C514.082 118.485,513.436 118.373,512.734 118.373C508.41 118.373,503.721 123.343,503.384 126.657C503.384 126.909,503.356 127.134,503.356 127.387C503.356 129.409,504.254 131.037,506.501 131.543"/></g></g><g class="vf-stavenote" id="vf-auto25715"><path stroke-width="1.4" fill="none" stroke="#444" d="M124.846 100L144.354 100"/><g class="vf-stem" id="vf-auto25716" pointer-events="bounding-box"><path stroke-width="1.5" fill="none" d="M140.604 98L140.604 45"/></g><g class="vf-notehead" id="vf-auto25720" pointer-events="bounding-box"><path stroke="none" d="M130.991 106.543C131.272 106.599,131.525 106.627,131.805 106.627C135.68 106.627,141.465 101.348,141.353 97.08C141.24 96.041,141.268 94.609,139.162 93.766C138.573 93.485,137.927 93.373,137.225 93.373C132.9 93.373,128.211 98.343,127.874 101.657C127.874 101.909,127.846 102.134,127.846 102.387C127.846 104.409,128.745 106.037,130.991 106.543"/></g><g class="vf-notehead" id="vf-auto25721" pointer-events="bounding-box"><path stroke="none" d="M130.991 96.543C131.272 96.599,131.525 96.627,131.805 96.627C135.68 96.627,141.465 91.348,141.353 87.08C141.24 86.041,141.268 84.609,139.162 83.766C138.573 83.485,137.927 83.373,137.225 83.373C132.9 83.373,128.211 88.343,127.874 91.657C127.874 91.909,127.846 92.134,127.846 92.387C127.846 94.409,128.745 96.037,130.991 96.543"/></g><g class="vf-notehead" id="vf-auto25722" pointer-events="bounding-box"><path stroke="none" d="M130.991 86.543C131.272 86.599,131.525 86.627,131.805 86.627C135.68 86.627,141.465 81.348,141.353 77.08C141.24 76.041,141.268 74.609,139.162 73.766C138.573 73.485,137.927 73.373,137.225 73.373C132.9 73.373,128.211 78.343,127.874 81.657C127.874 81.909,127.846 82.134,127.846 82.387C127.846 84.409,128.745 86.037,130.991 86.543"/></g></g><g class="vf-stavenote" id="vf-auto25723"><g class="vf-notehead" id="vf-auto25783" pointer-events="bounding-box"><path stroke="none" d="M238.94 100.019C239.242 99.843,239.192 99.49,239.267 99.188C239.267 99.036,239.192 98.91,239.167 98.759C238.864 97.474,238.537 96.239,238.259 94.979C238.209 94.828,238.209 94.677,238.209 94.576C238.209 93.341,239.116 91.854,240.149 91.426C240.401 91.275,240.603 91.376,240.88 91.451C242.039 91.829,242.644 92.812,243.299 93.719C243.476 93.971,243.728 94.299,244.03 94.299C244.106 94.299,244.131 94.299,244.207 94.248C244.534 94.097,244.685 93.77,244.685 93.467L244.635 93.19C244.509 92.358,244.358 91.502,243.803 90.846C242.72 89.536,242.14 87.948,241.409 86.462C241.309 86.235,241.233 86.058,241.233 85.907C241.233 85.655,241.384 85.428,241.636 85.176C242.291 84.496,242.972 83.866,243.4 83.034C243.803 82.379,244.055 81.699,244.055 81.018C244.055 80.54,243.955 80.061,243.627 79.557C242.543 77.742,241.409 75.953,240.502 74.038C239.897 72.728,239.116 71.493,238.033 70.51C237.781 70.258,237.453 69.93,237.1 69.93C236.949 69.93,236.798 69.981,236.621 70.082C236.269 70.308,236.117 70.586,236.117 70.838C236.117 71.14,236.269 71.417,236.47 71.72C237.604 73.181,238.285 74.87,239.368 76.331C239.696 76.734,239.847 77.012,239.847 77.264C239.847 77.591,239.57 77.843,238.99 78.221C238.209 78.65,237.428 79.078,236.697 79.632C236.344 79.884,236.143 80.162,236.143 80.464C236.143 80.64,236.218 80.817,236.294 81.018C236.647 81.85,237.125 82.606,237.629 83.362C238.436 84.496,239.167 85.731,239.746 86.991C239.494 87.218,239.267 87.142,239.066 87.167C236.596 87.495,234.958 89.36,235.135 91.577C235.387 94.223,236.369 96.693,237.554 99.036C237.705 99.339,237.881 99.616,238.259 99.742C238.461 99.818,238.612 100.07,238.789 100.07C238.839 100.07,238.915 100.07,238.94 100.019"/></g></g><g class="vf-stavenote" id="vf-auto25727"><path stroke-width="1.4" fill="none" stroke="#444" d="M339.423 100L358.931 100"/><g class="vf-stem" id="vf-auto25728" pointer-events="bounding-box"><path stroke-width="1.5" fill="none" d="M355.181 98L355.181 40"/></g><g class="vf-notehead" id="vf-auto25732" pointer-events="bounding-box"><path stroke="none" d="M345.568 106.543C345.849 106.599,346.102 106.627,346.382 106.627C350.257 106.627,356.042 101.348,355.93 97.08C355.817 96.041,355.845 94.609,353.739 93.766C353.15 93.485,352.504 93.373,351.802 93.373C347.477 93.373,342.788 98.343,342.451 101.657C342.451 101.909,342.423 102.134,342.423 102.387C342.423 104.409,343.322 106.037,345.568 106.543"/></g><g class="vf-notehead" id="vf-auto25733" pointer-events="bounding-box"><path stroke="none" d="M358.326 101.543C358.607 101.599,358.86 101.627,359.14 101.627C363.015 101.627,368.8 96.348,368.688 92.08C368.575 91.041,368.603 89.609,366.497 88.766C365.908 88.485,365.262 88.373,364.56 88.373C360.236 88.373,355.546 93.343,355.209 96.657C355.209 96.909,355.181 97.134,355.181 97.387C355.181 99.409,356.08 101.037,358.326 101.543"/></g><g class="vf-notehead" id="vf-auto25734" pointer-events="bounding-box"><path stroke="none" d="M345.568 81.543C345.849 81.599,346.102 81.627,346.382 81.627C350.257 81.627,356.042 76.348,355.93 72.08C355.817 71.041,355.845 69.609,353.739 68.766C353.15 68.485,352.504 68.373,351.802 68.373C347.477 68.373,342.788 73.343,342.451 76.657C342.451 76.909,342.423 77.134,342.423 77.387C342.423 79.409,343.322 81.037,345.568 81.543"/></g></g><g class="vf-stavenote" id="vf-auto25735"><g class="vf-notehead" id="vf-auto25784" pointer-events="bounding-box"><path stroke="none" d="M453.517 100.019C453.819 99.843,453.769 99.49,453.844 99.188C453.844 99.036,453.769 98.91,453.744 98.759C453.441 97.474,453.114 96.239,452.836 94.979C452.786 94.828,452.786 94.677,452.786 94.576C452.786 93.341,453.693 91.854,454.726 91.426C454.978 91.275,455.18 91.376,455.457 91.451C456.616 91.829,457.221 92.812,457.876 93.719C458.053 93.971,458.305 94.299,458.607 94.299C458.683 94.299,458.708 94.299,458.784 94.248C459.111 94.097,459.262 93.77,459.262 93.467L459.212 93.19C459.086 92.358,458.935 91.502,458.38 90.846C457.297 89.536,456.717 87.948,455.986 86.462C455.886 86.235,455.81 86.058,455.81 85.907C455.81 85.655,455.961 85.428,456.213 85.176C456.868 84.496,457.549 83.866,457.977 83.034C458.38 82.379,458.632 81.699,458.632 81.018C458.632 80.54,458.532 80.061,458.204 79.557C457.12 77.742,455.986 75.953,455.079 74.038C454.474 72.728,453.693 71.493,452.61 70.51C452.358 70.258,452.03 69.93,451.677 69.93C451.526 69.93,451.375 69.981,451.198 70.082C450.846 70.308,450.694 70.586,450.694 70.838C450.694 71.14,450.846 71.417,451.047 71.72C452.181 73.181,452.862 74.87,453.945 76.331C454.273 76.734,454.424 77.012,454.424 77.264C454.424 77.591,454.147 77.843,453.567 78.221C452.786 78.65,452.005 79.078,451.274 79.632C450.921 79.884,450.72 80.162,450.72 80.464C450.72 80.64,450.795 80.817,450.871 81.018C451.224 81.85,451.702 82.606,452.206 83.362C453.013 84.496,453.744 85.731,454.323 86.991C454.071 87.218,453.844 87.142,453.643 87.167C451.173 87.495,449.535 89.36,449.712 91.577C449.964 94.223,450.946 96.693,452.131 99.036C452.282 99.339,452.458 99.616,452.836 99.742C453.038 99.818,453.189 100.07,453.366 100.07C453.416 100.07,453.492 100.07,453.517 100.019"/></g></g><g class="vf-stem" id="vf-auto25740" pointer-events="bounding-box"><path stroke-width="1.5" fill="none" d="M128.596 127L128.596 159.25"/></g><g class="vf-stem" id="vf-auto25754" pointer-events="bounding-box"><path stroke-width="1.5" fill="none" d="M289.529 127L289.529 159.25"/></g><g class="vf-beam" id="vf-auto25788"><path stroke="none" d="M127.846 160L127.846 155L289.779 155L289.779 160Z"/></g><g class="vf-stem" id="vf-auto25760" pointer-events="bounding-box"><path stroke-width="1.5" fill="none" d="M343.173 127L343.173 159.25"/></g><g class="vf-stem" id="vf-auto25770" pointer-events="bounding-box"><path stroke-width="1.5" fill="none" d="M450.462 127L450.462 159.25"/></g><g class="vf-stem" id="vf-auto25776" pointer-events="bounding-box"><path stroke-width="1.5" fill="none" d="M504.106 127L504.106 159.25"/></g><g class="vf-beam" id="vf-auto25789"><path stroke="none" d="M342.423 160L342.423 155L504.356 155L504.356 160Z"/></g></svg>