<svg xmlns="http://www.w3.org/2000/svg" stroke-width="0.3" stroke-dasharray="none" fill="black" stroke="black" font-family="Arial, sans-serif" font-size="10pt" font-weight="normal" font-style="normal" width="700" height="100" viewBox="0 0 700 100" style="width: 700px; height: 100px; border: none;"><g class="vf-stave" id="vf-auto37293" stroke-width="1" fill="#999999" stroke="#999999"><path fill="none" d="M0 40L690 40"/><path fill="none" d="M0 50L690 50"/><path fill="none" d="M0 60L690 60"/><path fill="none" d="M0 70L690 70"/><path fill="none" d="M0 80L690 80"/></g><g class="vf-stavebarline" id="vf-auto37294"><rect y="39.5" width="1" height="41" stroke="none"/></g><g class="vf-stavebarline" id="vf-auto37295"><rect x="690" y="39.5" width="1" height="41" stroke="none"/></g><g class="vf-clef" id="vf-auto37296"><path stroke="none" d="M14.262 65.766C18.64 65.121,21.497 62.541,23.524 58.831C24.837 56.366,25.137 53.716,25.183 50.721C25.183 50.237,25.114 49.477,24.999 48.74C24.469 44.5,21.658 42.335,17.902 42.335C17.649 42.335,17.349 42.335,17.073 42.358C13.594 42.657,10.507 43.924,8.018 46.413C6.935 47.519,5.852 48.601,5.392 50.168C5.276 50.652,5.207 51.136,5.207 51.551C5.207 53.048,5.991 54.246,7.58 54.984C7.696 55.007,7.765 55.076,7.857 55.099C8.341 55.375,8.825 55.513,9.285 55.513C9.954 55.513,10.576 55.237,11.175 54.753C12.488 53.67,13.087 52.357,13.087 50.859C13.087 50.329,13.018 49.8,12.903 49.27C12.857 49.062,12.834 48.878,12.834 48.671C12.834 47.772,13.364 47.15,14.423 47.081C14.677 47.035,14.93 47.035,15.161 47.035C16.75 47.035,18.202 47.519,19.377 48.671C20.852 50.122,21.681 52.011,22.142 54.108C22.211 54.338,22.211 54.615,22.211 54.799C22.211 55.583,21.957 56.228,21.52 56.942C20.852 58.025,20.068 58.946,19.008 59.753C16.935 61.32,14.562 61.965,12.073 61.965L9.908 61.965C8.548 61.965,7.212 61.919,5.899 61.504C5.392 61.343,5 61.734,5 62.218C5 62.31,5 62.402,5.023 62.495C5.138 62.863,5.23 63.232,5.392 63.577C5.806 64.43,6.152 65.259,7.327 65.49C8.779 65.789,10.184 65.951,11.636 65.951C12.488 65.951,13.364 65.881,14.262 65.766M28.455 47.38C28.985 47.403,29.607 47.288,29.883 46.781C30.321 46.044,30.736 45.353,30.736 44.454C30.736 44.224,30.713 43.97,30.644 43.694C30.39 42.657,29.607 43.141,29.077 42.864C28.685 42.657,28.593 43.187,28.432 43.464C27.787 44.431,27.948 45.583,27.671 46.643C27.556 47.012,27.717 47.403,28.224 47.403M27.395 55.974C28.593 55.928,29.653 54.338,29.653 52.91C29.653 51.919,29.077 52.08,28.616 51.919C28.132 51.712,27.994 52.127,27.787 52.426C27.188 53.279,27.188 54.315,26.865 55.237C26.727 55.606,26.865 55.974,27.326 55.974"/></g><g class="vf-timesignature" id="vf-auto37297"><path stroke="none" d="M52.659 53.219C53.834 53.611,54.96 53.807,56.037 53.807C58.265 53.807,60.346 52.974,62.182 51.383C64.434 49.376,65.217 46.732,65.217 43.941C65.217 43.305,65.168 42.644,65.095 42.007C64.899 40.024,63.773 38.482,61.79 37.674C61.252 37.503,60.738 37.356,60.175 37.209C62.206 34.786,63.944 32.289,65.732 29.767C66.197 29.131,66.417 28.445,66.417 27.687C66.417 27.417,66.368 27.099,66.295 26.781C66.197 26.365,66.025 26.193,65.732 26.193C65.634 26.193,65.536 26.218,65.389 26.242C64.605 26.463,63.822 26.487,63.063 26.487C61.129 26.487,59.146 26.438,57.212 26.438L55.842 26.438C53.687 26.438,51.533 26.438,49.428 26.634C48.718 26.707,48.351 27.001,48.253 27.736C48.106 28.445,48.155 29.18,48.081 29.914C48.032 30.379,48.155 30.6,48.644 30.6L48.742 30.6C49.991 30.477,51.239 30.404,52.512 30.404L62.108 30.404C60.175 33.023,58.265 35.3,56.037 37.356C54.716 38.58,53.394 39.706,53.394 41.591C53.394 41.909,53.443 42.252,53.54 42.644L53.54 42.717C53.516 42.987,53.516 43.305,53.834 43.452C54.079 43.55,54.324 43.427,54.495 43.231C55.401 42.326,56.6 42.056,57.776 41.763C58.192 41.665,58.608 41.591,59 41.591C60.028 41.591,61.007 41.934,61.864 42.644C62.427 43.06,63.161 43.599,63.161 44.382C63.161 44.504,63.137 44.627,63.088 44.749C62.451 46.805,61.301 48.421,59.244 49.204C58.241 49.596,57.212 49.768,56.209 49.768C54.446 49.768,52.733 49.204,51.068 48.323C50.358 47.907,49.771 47.589,49.526 46.732C49.477 46.561,49.452 46.096,49.11 46.096C49.036 46.096,48.987 46.096,48.914 46.144C48.547 46.242,48.253 46.512,48.253 47.05C48.179 48.225,48.473 49.229,48.718 50.355C48.84 50.967,49.281 51.457,49.844 51.799C50.75 52.338,51.631 52.876,52.659 53.219"/><path stroke="none" d="M60.62 97.234C60.962 97.332,61.256 97.038,61.427 96.744C61.892 96.157,61.941 95.447,62.064 94.737C62.456 91.383,62.382 88.005,62.504 84.651L62.504 84.308C63.753 84.064,64.904 83.623,66.079 83.109C67.792 82.301,68.086 81.86,68.061 80C68.061 79.119,67.866 78.727,67.425 78.703C67.205 78.703,66.886 78.8,66.495 79.021L66.25 79.119C65.05 79.657,63.826 80.073,62.553 80.318C62.553 78.776,62.48 77.209,62.407 75.667C62.333 74.37,62.309 73.023,62.186 71.726C62.162 71.432,62.186 70.869,61.746 70.869C61.305 70.869,61.011 71.163,60.962 71.677C60.938 72.313,60.742 72.95,60.791 73.586C60.815 75.912,60.889 78.237,60.889 80.539C60.473 80.563,60.056 80.563,59.665 80.539C57.511 80.392,55.405 80.024,53.202 80.073C52.443 80.073,51.66 80.098,50.876 80.22C51.66 78.727,52.296 77.356,53.104 76.01C54.965 72.95,56.972 69.914,58.294 66.487C58.612 65.679,58.857 64.871,58.857 64.039C58.857 63.794,58.808 63.549,58.784 63.28C58.735 63.084,58.735 62.693,58.465 62.693C58.172 62.668,57.829 62.766,57.657 63.035C57.535 63.256,57.413 63.427,57.339 63.647C56.85 65.239,55.968 66.609,55.136 68.005C54.132 69.743,52.957 71.408,51.929 73.121C50.485 75.569,49.285 78.091,47.523 80.318C46.96 81.028,46.446 81.763,46.446 82.644C46.446 82.962,46.519 83.28,46.641 83.599C46.788 83.917,46.96 84.235,46.96 84.553C47.009 85.067,47.107 85.263,47.4 85.288C47.523 85.288,47.743 85.214,47.988 85.067C49.555 84.406,51.121 84.064,52.786 84.064C54.965 84.064,57.168 84.406,59.347 84.553C59.591 84.578,59.836 84.578,60.081 84.627C60.326 84.627,60.571 84.627,60.815 84.553C60.742 86.561,60.717 88.568,60.571 90.575C60.497 92.118,60.326 93.684,60.326 95.3C60.326 95.692,60.326 96.034,60.375 96.402C60.375 96.72,60.326 97.136,60.62 97.234"/></g><g class="vf-stavenote" id="vf-auto37301"><path stroke-width="1.4" fill="none" stroke="#444" d="M76.353 90L95.861 90"/><g class="vf-stem" id="vf-auto37302" pointer-events="bounding-box"><path stroke-width="1.5" fill="none" d="M92.111 88L92.111 55"/></g><g class="vf-notehead" id="vf-auto37304" pointer-events="bounding-box"><path stroke="none" d="M82.498 96.543C82.779 96.599,83.031 96.627,83.312 96.627C87.187 96.627,92.972 91.348,92.859 87.08C92.747 86.041,92.775 84.609,90.669 83.766C90.079 83.485,89.434 83.373,88.732 83.373C84.407 83.373,79.718 88.343,79.381 91.657C79.381 91.909,79.353 92.134,79.353 92.387C79.353 94.409,80.251 96.037,82.498 96.543"/></g></g><g class="vf-stavenote" id="vf-auto37305"><g class="vf-stem" id="vf-auto37306" pointer-events="bounding-box"><path stroke-width="1.5" fill="none" d="M287.157 78L287.157 45"/></g><g class="vf-notehead" id="vf-auto37308" pointer-events="bounding-box"><path stroke="none" d="M277.544 86.543C277.825 86.599,278.078 86.627,278.358 86.627C282.234 86.627,288.018 81.348,287.906 77.08C287.793 76.041,287.821 74.609,285.715 73.766C285.126 73.485,284.48 73.373,283.778 73.373C279.454 73.373,274.764 78.343,274.427 81.657C274.427 81.909,274.399 82.134,274.399 82.387C274.399 84.409,275.298 86.037,277.544 86.543"/></g></g><g class="vf-stavenote" id="vf-auto37309"><g class="vf-stem" id="vf-auto37310" pointer-events="bounding-box"><path stroke-width="1.5" fill="none" d="M482.204 68L482.204 35"/></g><g class="vf-notehead" id="vf-auto37312" pointer-events="bounding-box"><path stroke="none" d="M472.591 76.543C472.871 76.599,473.124 76.627,473.405 76.627C477.28 76.627,483.064 71.348,482.952 67.08C482.84 66.041,482.868 64.609,480.762 63.766C480.172 63.485,479.526 63.373,478.824 63.373C474.5 63.373,469.811 68.343,469.474 71.657C469.474 71.909,469.446 72.134,469.446 72.387C469.446 74.409,470.344 76.037,472.591 76.543"/></g></g></svg>