<svg xmlns="http://www.w3.org/2000/svg" stroke-width="0.3" stroke-dasharray="none" fill="black" stroke="black" font-family="Arial, sans-serif" font-size="10pt" font-weight="normal" font-style="normal" width="650" height="200" viewBox="0 0 650 200" style="width: 650px; height: 200px; border: none;"><g class="vf-stave" id="vf-auto43488" stroke-width="1" fill="#999999" stroke="#999999"><path fill="none" d="M0 40L640 40"/><path fill="none" d="M0 50L640 50"/><path fill="none" d="M0 60L640 60"/><path fill="none" d="M0 70L640 70"/><path fill="none" d="M0 80L640 80"/></g><g class="vf-stavebarline" id="vf-auto43489"><rect y="39.5" width="1" height="41" stroke="none"/></g><g class="vf-stavebarline" id="vf-auto43490"><rect x="640" y="39.5" width="1" height="41" stroke="none"/></g><g class="vf-stavenote" id="vf-auto43491"><path stroke-width="1.4" fill="none" stroke="#444" d="M14 90L31.99 90"/><g class="vf-stem" id="vf-auto43492" pointer-events="bounding-box"><path stroke-width="1.5" fill="none" d="M28.24 88.5L28.24 55"/></g><g class="vf-notehead" id="vf-auto43494" pointer-events="bounding-box"><path stroke="none" d="M24.104 84.889C24.188 84.889,24.273 84.889,24.413 84.889C24.778 84.889,25.312 84.918,25.508 84.946C27.839 85.283,28.99 86.827,28.99 88.624C28.99 90.534,27.698 92.724,25.115 94.128C23.852 94.802,22.56 95.111,21.38 95.111C19.218 95.111,17.449 94.044,17.084 92.162C17.028 91.881,17 91.629,17 91.376C17 88.343,20.257 85.283,24.104 84.889"/></g></g><g class="vf-stavenote" id="vf-auto43495"><path stroke-width="1.4" fill="none" stroke="#444" d="M163.752 90L181.743 90"/><g class="vf-stem" id="vf-auto43496" pointer-events="bounding-box"><path stroke-width="1.5" fill="none" d="M177.993 88.5L177.993 55"/></g><g class="vf-notehead" id="vf-auto43498" pointer-events="bounding-box"><path stroke="none" d="M173.857 84.889C173.941 84.889,174.025 84.889,174.166 84.889C174.531 84.889,175.064 84.918,175.261 84.946C177.591 85.283,178.743 86.827,178.743 88.624C178.743 90.534,177.451 92.724,174.868 94.128C173.604 94.802,172.312 95.111,171.133 95.111C168.971 95.111,167.202 94.044,166.837 92.162C166.781 91.881,166.752 91.629,166.752 91.376C166.752 88.343,170.01 85.283,173.857 84.889"/></g></g><g class="vf-stavenote" id="vf-auto43499"><path stroke-width="1.4" fill="none" stroke="#444" d="M313.505 90L331.495 90"/><g class="vf-stem" id="vf-auto43500" pointer-events="bounding-box"><path stroke-width="1.5" fill="none" d="M327.745 88.5L327.745 55"/></g><g class="vf-notehead" id="vf-auto43502" pointer-events="bounding-box"><path stroke="none" d="M323.609 84.889C323.693 84.889,323.778 84.889,323.918 84.889C324.283 84.889,324.817 84.918,325.013 84.946C327.344 85.283,328.495 86.827,328.495 88.624C328.495 90.534,327.203 92.724,324.62 94.128C323.356 94.802,322.065 95.111,320.885 95.111C318.723 95.111,316.954 94.044,316.589 92.162C316.533 91.881,316.505 91.629,316.505 91.376C316.505 88.343,319.762 85.283,323.609 84.889"/></g></g><g class="vf-stavenote" id="vf-auto43503"><path stroke-width="1.4" fill="none" stroke="#444" d="M463.257 90L481.248 90"/><g class="vf-stem" id="vf-auto43504" pointer-events="bounding-box"><path stroke-width="1.5" fill="none" d="M477.498 88.5L477.498 55"/></g><g class="vf-notehead" id="vf-auto43506" pointer-events="bounding-box"><path stroke="none" d="M473.362 84.889C473.446 84.889,473.53 84.889,473.671 84.889C474.036 84.889,474.569 84.918,474.766 84.946C477.096 85.283,478.248 86.827,478.248 88.624C478.248 90.534,476.956 92.724,474.373 94.128C473.109 94.802,471.817 95.111,470.638 95.111C468.476 95.111,466.707 94.044,466.342 92.162C466.285 91.881,466.257 91.629,466.257 91.376C466.257 88.343,469.515 85.283,473.362 84.889"/></g></g><path stroke="none" d="M5 13L9 7L13 13L17 7L21 13L25 7L29 13L33 7L37 13L41 7L45 13L49 7L53 13L57 7L61 13L65 7L69 13L73 7L77 13L81 7L85 13L89 7L93 13L97 7L101 13L105 7L109 13L113 7L117 13L121 7L125 13L129 7L133 13L137 7L141 13L145 7L149 13L153 7L157 13L161 7L165 13L169 7L173 13L177 7L181 13L185 7L189 13L193 7L197 13L201 7L205 13L209 7L213 13L217 7L221 13L225 7L229 13L233 7L237 13L241 7L245 13L249 7L253 13L257 7L261 13L265 7L269 13L273 7L277 13L281 7L285 13L289 7L293 13L297 7L301 13L297 10L293 16L289 10L285 16L281 10L277 16L273 10L269 16L265 10L261 16L257 10L253 16L249 10L245 16L241 10L237 16L233 10L229 16L225 10L221 16L217 10L213 16L209 10L205 16L201 10L197 16L193 10L189 16L185 10L181 16L177 10L173 16L169 10L165 16L161 10L157 16L153 10L149 16L145 10L141 16L137 10L133 16L129 10L125 16L121 10L117 16L113 10L109 16L105 10L101 16L97 10L93 16L89 10L85 16L81 10L77 16L73 10L69 16L65 10L61 16L57 10L53 16L49 10L45 16L41 10L37 16L33 10L29 16L25 10L21 16L17 10L13 16L9 10L5 16"/></svg>