<svg xmlns="http://www.w3.org/2000/svg" stroke-width="0.3" stroke-dasharray="none" fill="black" stroke="black" font-family="Arial, sans-serif" font-size="10pt" font-weight="normal" font-style="normal" width="600" height="350" viewBox="0 0 600 350" style="width: 600px; height: 350px; border: none;"><g class="vf-stave" id="vf-auto8199" stroke-width="1" fill="#999999" stroke="#999999"><path fill="none" d="M10 50L360.424 50"/><path fill="none" d="M10 60L360.424 60"/><path fill="none" d="M10 70L360.424 70"/><path fill="none" d="M10 80L360.424 80"/><path fill="none" d="M10 90L360.424 90"/></g><g class="vf-stavebarline" id="vf-auto8200"/><g class="vf-stavebarline" id="vf-auto8201"><rect x="360.424" y="49.5" width="1" height="41" stroke="none"/></g><g class="vf-clef" id="vf-auto8202"><path stroke="none" d="M23.693 101.402C23.87 101.402,24.048 101.377,24.276 101.301C24.707 101.148,25.062 100.92,25.366 100.591C28.382 97.423,29.623 93.596,29.75 89.313C29.75 88.983,29.776 88.451,29.776 88.451C29.776 88.451,30.282 88.147,30.511 88.071C31.727 87.488,32.893 86.829,33.932 85.993C36.72 83.762,38.316 80.747,39.051 77.376C39.204 76.844,39.229 76.286,39.229 75.779C39.229 73.473,37.962 71.8,35.047 71.268C34.312 71.116,33.577 71.04,32.842 71.04C31.017 71.04,29.269 71.521,27.621 72.484C27.419 72.611,27.19 72.763,27.19 72.763L26.253 69.215C26.202 69.038,26.202 68.708,26.202 68.708C26.202 68.708,29.928 62.093,30.434 58.697C30.612 57.709,30.688 56.72,30.688 55.757C30.688 54.972,30.663 54.237,30.536 53.527C30.181 50.891,29.193 48.408,28.534 45.848C28.356 45.088,28.103 44.175,27.216 44.175C26.557 44.175,26.101 44.809,25.695 45.341C23.82 47.926,22.907 50.891,22.73 54.059C22.705 54.566,22.705 55.098,22.705 55.605C22.705 58.545,23.186 61.51,23.566 64.425C23.566 64.653,23.642 64.881,23.693 65.059C22.046 67.39,20.221 69.57,18.65 71.978C17.56 73.701,16.343 75.424,15.583 77.35C15.177 78.288,15 79.403,15 80.493C15 82.749,15.76 85.055,17.078 86.322C17.839 87.057,19.055 87.868,20.246 88.299C21.944 88.907,23.617 89.313,25.391 89.313C25.923 89.313,26.455 89.287,27.013 89.211L27.444 89.135C27.444 89.135,27.469 89.465,27.444 89.642C27.038 91.847,26.506 94.001,25.188 95.826C24.479 96.764,23.82 97.828,22.451 97.93C22.046 97.98,21.868 98.234,21.868 98.563C21.868 98.69,21.894 98.817,21.944 98.944C22.147 99.501,22.4 100.084,22.654 100.642C22.882 101.148,23.237 101.402,23.693 101.402M25.138 62.828C24.859 61.08,24.681 59.356,24.681 57.633C24.681 54.465,25.34 51.373,27.19 48.408C27.621 49.751,27.849 51.119,27.849 52.488C27.849 53.198,27.773 53.933,27.672 54.642C27.19 57.506,26.532 60.269,25.138 62.828M21.387 84.421C20.88 84.396,20.449 84.219,19.967 84.067C19.004 83.737,18.219 83.382,17.965 82.749C17.839 82.47,17.813 82.14,17.813 81.811C17.813 81.406,17.889 80.975,17.965 80.518C17.991 80.316,18.219 79.682,18.295 79.581C19.714 77.046,21.412 74.765,23.211 72.459L24.732 70.457L25.011 71.268C25.29 72.18,25.543 73.625,25.543 73.625C25.543 73.625,24.529 74.943,23.87 75.602C22.046 77.376,21.159 79.606,21.159 82.064C21.159 82.673,21.235 83.306,21.361 83.965C21.387 84.092,21.387 84.219,21.387 84.421M29.269 83.306C28.99 80.924,28.432 79.023,27.925 76.742C27.875 76.463,27.875 76.286,28.001 76.134C28.939 75.957,29.852 75.881,30.815 75.881C31.727 75.881,32.589 75.957,33.501 76.134C34.591 76.362,35.681 76.539,36.542 77.426C36.593 77.503,36.669 77.579,36.745 77.604C35.301 80.518,33.146 82.723,30.08 84.067L29.421 84.32M25.391 85.055C24.124 85.055,22.882 84.726,22.882 84.726C22.882 84.726,22.781 84.219,22.781 83.484C22.781 83.002,22.806 82.419,22.958 81.836C23.313 80.088,24.555 78.846,25.873 77.68C25.974 77.579,26.101 77.503,26.177 77.503C26.303 77.503,26.354 77.655,26.379 77.908C26.709 80.062,27.266 82.166,27.419 84.32C27.444 84.548,27.419 84.878,27.419 84.878C27.419 84.878,26.455 85.131,25.391 85.055"/></g><g class="vf-stave" id="vf-auto8240" stroke-width="1" fill="#999999" stroke="#999999"><path fill="none" d="M10 170L360.424 170"/><path fill="none" d="M10 180L360.424 180"/><path fill="none" d="M10 190L360.424 190"/><path fill="none" d="M10 200L360.424 200"/><path fill="none" d="M10 210L360.424 210"/></g><g class="vf-stavebarline" id="vf-auto8241"/><g class="vf-stavebarline" id="vf-auto8242"><rect x="360.424" y="169.5" width="1" height="41" stroke="none"/></g><g class="vf-clef" id="vf-auto8243"><path stroke="none" d="M24.262 195.766C28.64 195.121,31.497 192.541,33.524 188.831C34.837 186.366,35.137 183.716,35.183 180.721C35.183 180.237,35.114 179.477,34.999 178.74C34.469 174.5,31.658 172.335,27.902 172.335C27.649 172.335,27.349 172.335,27.073 172.358C23.594 172.657,20.507 173.924,18.018 176.413C16.935 177.519,15.852 178.601,15.392 180.168C15.276 180.652,15.207 181.136,15.207 181.551C15.207 183.048,15.991 184.246,17.58 184.984C17.696 185.007,17.765 185.076,17.857 185.099C18.341 185.375,18.825 185.513,19.285 185.513C19.954 185.513,20.576 185.237,21.175 184.753C22.488 183.67,23.087 182.357,23.087 180.859C23.087 180.329,23.018 179.8,22.903 179.27C22.857 179.062,22.834 178.878,22.834 178.671C22.834 177.772,23.364 177.15,24.423 177.081C24.677 177.035,24.93 177.035,25.161 177.035C26.75 177.035,28.202 177.519,29.377 178.671C30.852 180.122,31.681 182.011,32.142 184.108C32.211 184.338,32.211 184.615,32.211 184.799C32.211 185.583,31.957 186.228,31.52 186.942C30.852 188.025,30.068 188.946,29.008 189.753C26.935 191.32,24.562 191.965,22.073 191.965L19.908 191.965C18.548 191.965,17.212 191.919,15.899 191.504C15.392 191.343,15 191.734,15 192.218C15 192.31,15 192.402,15.023 192.495C15.138 192.863,15.23 193.232,15.392 193.577C15.806 194.43,16.152 195.259,17.327 195.49C18.779 195.789,20.184 195.951,21.636 195.951C22.488 195.951,23.364 195.881,24.262 195.766M38.455 177.38C38.985 177.403,39.607 177.288,39.883 176.781C40.321 176.044,40.736 175.353,40.736 174.454C40.736 174.224,40.713 173.97,40.644 173.694C40.39 172.657,39.607 173.141,39.077 172.864C38.685 172.657,38.593 173.187,38.432 173.464C37.787 174.431,37.948 175.583,37.671 176.643C37.556 177.012,37.717 177.403,38.224 177.403M37.395 185.974C38.593 185.928,39.653 184.338,39.653 182.91C39.653 181.919,39.077 182.08,38.616 181.919C38.132 181.712,37.994 182.127,37.787 182.426C37.188 183.279,37.188 184.315,36.865 185.237C36.727 185.606,36.865 185.974,37.326 185.974"/></g><g class="vf-stavenote" id="vf-auto8146"><g class="vf-stem" id="vf-auto8147" pointer-events="bounding-box"><path stroke-width="1.5" fill="none" d="M132.262 82L132.262 130"/></g><g class="vf-notehead" id="vf-auto8156" pointer-events="bounding-box"><path stroke="none" d="M121.899 101.543C122.179 101.599,122.432 101.627,122.713 101.627C126.588 101.627,132.373 96.348,132.26 92.08C132.148 91.041,132.176 89.609,130.07 88.766C129.48 88.485,128.834 88.373,128.132 88.373C123.808 88.373,119.119 93.343,118.782 96.657C118.782 96.909,118.754 97.134,118.754 97.387C118.754 99.409,119.652 101.037,121.899 101.543"/><path stroke="none" d="M117.766 102.975C117.795 102.975,117.851 102.975,117.879 102.89C118.047 102.806,118.075 102.694,118.075 102.525L118.047 102.104C117.879 101.318,117.401 100.728,117.008 100.054C115.997 98.37,115.183 96.572,115.183 94.635C115.183 94.101,115.211 93.54,115.38 92.95C115.745 91.406,116.671 90.198,117.851 89.103C118.131 88.85,118.3 88.289,118.3 87.84C118.3 87.559,118.244 87.306,118.075 87.194C117.935 87.11,117.795 87.025,117.654 87.025C117.289 87.025,117.036 87.475,116.756 87.727C114.987 89.3,114.032 91.322,114.004 93.961C114.256 96.938,115.492 99.858,117.317 102.525C117.401 102.694,117.57 102.975,117.766 102.975"/><path stroke="none" d="M147.543 102.919C147.851 103.34,148.357 102.638,148.694 102.413C149.143 102.104,149.48 101.627,149.705 101.15C150.716 99.212,151.165 97.106,151.305 94.972C151.333 94.832,151.333 94.663,151.333 94.551C151.333 93.989,151.165 93.456,151.081 92.95C150.8 90.676,149.929 88.654,148.132 87.166C147.908 86.941,147.655 86.66,147.374 86.66C147.262 86.66,147.121 86.744,146.981 86.885C146.841 86.997,146.812 87.25,146.812 87.531C146.812 87.952,146.981 88.57,147.121 88.682C149.368 90.226,150.379 92.697,150.379 95.197C150.379 96.938,149.845 98.707,148.918 100.167C148.638 100.616,148.132 100.869,147.739 101.234C147.458 101.515,147.346 101.88,147.346 102.245C147.346 102.469,147.402 102.75,147.543 102.919"/></g><g class="vf-notehead" id="vf-auto8155" pointer-events="bounding-box"><path stroke="none" d="M134.657 96.543C134.938 96.599,135.19 96.627,135.471 96.627C139.346 96.627,145.131 91.348,145.018 87.08C144.906 86.041,144.934 84.609,142.828 83.766C142.238 83.485,141.593 83.373,140.891 83.373C136.566 83.373,131.877 88.343,131.54 91.657C131.54 91.909,131.512 92.134,131.512 92.387C131.512 94.409,132.41 96.037,134.657 96.543"/><path stroke="none" d="M117.766 97.975C117.795 97.975,117.851 97.975,117.879 97.89C118.047 97.806,118.075 97.694,118.075 97.525L118.047 97.104C117.879 96.318,117.401 95.728,117.008 95.054C115.997 93.37,115.183 91.572,115.183 89.635C115.183 89.101,115.211 88.54,115.38 87.95C115.745 86.406,116.671 85.198,117.851 84.103C118.131 83.85,118.3 83.289,118.3 82.84C118.3 82.559,118.244 82.306,118.075 82.194C117.935 82.11,117.795 82.025,117.654 82.025C117.289 82.025,117.036 82.475,116.756 82.727C114.987 84.3,114.032 86.322,114.004 88.961C114.256 91.938,115.492 94.858,117.317 97.525C117.401 97.694,117.57 97.975,117.766 97.975"/><path stroke="none" d="M147.543 97.919C147.851 98.34,148.357 97.638,148.694 97.413C149.143 97.104,149.48 96.627,149.705 96.15C150.716 94.212,151.165 92.106,151.305 89.972C151.333 89.832,151.333 89.663,151.333 89.551C151.333 88.989,151.165 88.456,151.081 87.95C150.8 85.676,149.929 83.654,148.132 82.166C147.908 81.941,147.655 81.66,147.374 81.66C147.262 81.66,147.121 81.744,146.981 81.885C146.841 81.997,146.812 82.25,146.812 82.531C146.812 82.952,146.981 83.57,147.121 83.682C149.368 85.226,150.379 87.697,150.379 90.197C150.379 91.938,149.845 93.707,148.918 95.167C148.638 95.616,148.132 95.869,147.739 96.234C147.458 96.515,147.346 96.88,147.346 97.245C147.346 97.469,147.402 97.75,147.543 97.919"/></g><g class="vf-notehead" id="vf-auto8154" pointer-events="bounding-box"><path stroke="none" d="M134.657 86.543C134.938 86.599,135.19 86.627,135.471 86.627C139.346 86.627,145.131 81.348,145.018 77.08C144.906 76.041,144.934 74.609,142.828 73.766C142.238 73.485,141.593 73.373,140.891 73.373C136.566 73.373,131.877 78.343,131.54 81.657C131.54 81.909,131.512 82.134,131.512 82.387C131.512 84.409,132.41 86.037,134.657 86.543"/><path stroke="none" d="M131.275 87.975C131.303 87.975,131.359 87.975,131.387 87.89C131.555 87.806,131.583 87.694,131.583 87.525L131.555 87.104C131.387 86.318,130.909 85.728,130.516 85.054C129.505 83.37,128.691 81.572,128.691 79.635C128.691 79.101,128.719 78.54,128.888 77.95C129.253 76.406,130.179 75.198,131.359 74.103C131.64 73.85,131.808 73.289,131.808 72.84C131.808 72.559,131.752 72.306,131.583 72.194C131.443 72.11,131.303 72.025,131.162 72.025C130.797 72.025,130.544 72.475,130.264 72.727C128.495 74.3,127.54 76.322,127.512 78.961C127.765 81.938,129 84.858,130.825 87.525C130.909 87.694,131.078 87.975,131.275 87.975"/><path stroke="none" d="M147.543 87.919C147.851 88.34,148.357 87.638,148.694 87.413C149.143 87.104,149.48 86.627,149.705 86.15C150.716 84.212,151.165 82.106,151.305 79.972C151.333 79.832,151.333 79.663,151.333 79.551C151.333 78.989,151.165 78.456,151.081 77.95C150.8 75.676,149.929 73.654,148.132 72.166C147.908 71.941,147.655 71.66,147.374 71.66C147.262 71.66,147.121 71.744,146.981 71.885C146.841 71.997,146.812 72.25,146.812 72.531C146.812 72.952,146.981 73.57,147.121 73.682C149.368 75.226,150.379 77.697,150.379 80.197C150.379 81.938,149.845 83.707,148.918 85.167C148.638 85.616,148.132 85.869,147.739 86.234C147.458 86.515,147.346 86.88,147.346 87.245C147.346 87.469,147.402 87.75,147.543 87.919"/></g></g><g class="vf-stavenote" id="vf-auto8157"><path stroke-width="1.4" fill="none" stroke="#444" d="M191.036 100L210.544 100"/><g class="vf-stem" id="vf-auto8158" pointer-events="bounding-box"><path stroke-width="1.5" fill="none" d="M194.786 102L194.786 135"/></g><g class="vf-notehead" id="vf-auto8161" pointer-events="bounding-box"><path stroke="none" d="M197.181 106.543C197.462 106.599,197.715 106.627,197.995 106.627C201.87 106.627,207.655 101.348,207.543 97.08C207.43 96.041,207.458 94.609,205.352 93.766C204.763 93.485,204.117 93.373,203.415 93.373C199.09 93.373,194.401 98.343,194.064 101.657C194.064 101.909,194.036 102.134,194.036 102.387C194.036 104.409,194.935 106.037,197.181 106.543"/></g></g><g class="vf-stavenote" id="vf-auto8162"><g class="vf-notehead" id="vf-auto8166" pointer-events="bounding-box"><path stroke="none" d="M257.673 115.019C257.976 114.843,257.925 114.49,258.001 114.188C258.001 114.036,257.925 113.91,257.9 113.759C257.598 112.474,257.27 111.239,256.993 109.979C256.942 109.828,256.942 109.677,256.942 109.576C256.942 108.341,257.85 106.854,258.883 106.426C259.135 106.275,259.336 106.376,259.614 106.451C260.773 106.829,261.378 107.812,262.033 108.719C262.209 108.971,262.461 109.299,262.764 109.299C262.839 109.299,262.864 109.299,262.94 109.248C263.268 109.097,263.419 108.77,263.419 108.467L263.368 108.19C263.242 107.358,263.091 106.502,262.537 105.846C261.453 104.536,260.874 102.948,260.143 101.462C260.042 101.235,259.966 101.058,259.966 100.907C259.966 100.655,260.118 100.428,260.37 100.176C261.025 99.496,261.705 98.866,262.134 98.034C262.537 97.379,262.789 96.699,262.789 96.018C262.789 95.54,262.688 95.061,262.36 94.557C261.277 92.742,260.143 90.953,259.236 89.038C258.631 87.728,257.85 86.493,256.766 85.51C256.514 85.258,256.186 84.93,255.834 84.93C255.682 84.93,255.531 84.981,255.355 85.082C255.002 85.308,254.851 85.586,254.851 85.838C254.851 86.14,255.002 86.417,255.204 86.72C256.338 88.181,257.018 89.87,258.102 91.331C258.429 91.734,258.58 92.012,258.58 92.264C258.58 92.591,258.303 92.843,257.724 93.221C256.942 93.65,256.161 94.078,255.43 94.632C255.078 94.884,254.876 95.162,254.876 95.464C254.876 95.64,254.952 95.817,255.027 96.018C255.38 96.85,255.859 97.606,256.363 98.362C257.169 99.496,257.9 100.731,258.48 101.991C258.228 102.218,258.001 102.142,257.799 102.167C255.33 102.495,253.692 104.36,253.868 106.577C254.12 109.223,255.103 111.693,256.287 114.036C256.438 114.339,256.615 114.616,256.993 114.742C257.194 114.818,257.346 115.07,257.522 115.07C257.572 115.07,257.648 115.07,257.673 115.019"/></g></g><g class="vf-stavenote" id="vf-auto8167"><path stroke-width="1.4" fill="none" stroke="#444" d="M326.208 100L345.716 100"/><g class="vf-stem" id="vf-auto8168" pointer-events="bounding-box"><path stroke-width="1.5" fill="none" d="M329.958 102L329.958 135"/></g><g class="vf-notehead" id="vf-auto8171" pointer-events="bounding-box"><path stroke="none" d="M332.353 106.543C332.634 106.599,332.887 106.627,333.167 106.627C337.042 106.627,342.827 101.348,342.715 97.08C342.602 96.041,342.63 94.609,340.524 93.766C339.935 93.485,339.289 93.373,338.587 93.373C334.263 93.373,329.573 98.343,329.236 101.657C329.236 101.909,329.208 102.134,329.208 102.387C329.208 104.409,330.107 106.037,332.353 106.543"/><path stroke="none" d="M328.971 107.975C328.999 107.975,329.055 107.975,329.083 107.89C329.252 107.806,329.28 107.694,329.28 107.525L329.252 107.104C329.083 106.318,328.606 105.728,328.213 105.054C327.202 103.37,326.387 101.572,326.387 99.635C326.387 99.101,326.416 98.54,326.584 97.95C326.949 96.406,327.876 95.198,329.055 94.103C329.336 93.85,329.504 93.289,329.504 92.84C329.504 92.559,329.448 92.306,329.28 92.194C329.139 92.11,328.999 92.025,328.859 92.025C328.493 92.025,328.241 92.475,327.96 92.727C326.191 94.3,325.236 96.322,325.208 98.961C325.461 101.938,326.696 104.858,328.522 107.525C328.606 107.694,328.774 107.975,328.971 107.975"/><path stroke="none" d="M345.239 107.919C345.548 108.34,346.053 107.638,346.39 107.413C346.839 107.104,347.176 106.627,347.401 106.15C348.412 104.212,348.861 102.106,349.002 99.972C349.03 99.832,349.03 99.663,349.03 99.551C349.03 98.989,348.861 98.456,348.777 97.95C348.496 95.676,347.626 93.654,345.829 92.166C345.604 91.941,345.351 91.66,345.07 91.66C344.958 91.66,344.818 91.744,344.677 91.885C344.537 91.997,344.509 92.25,344.509 92.531C344.509 92.952,344.677 93.57,344.818 93.682C347.064 95.226,348.075 97.697,348.075 100.197C348.075 101.938,347.541 103.707,346.615 105.167C346.334 105.616,345.829 105.869,345.435 106.234C345.155 106.515,345.042 106.88,345.042 107.245C345.042 107.469,345.098 107.75,345.239 107.919"/></g></g><g class="vf-stavenote" id="vf-auto8180"><g class="vf-stem" id="vf-auto8181" pointer-events="bounding-box"><path stroke-width="1.5" fill="none" d="M103.246 67.65L103.246 100"/></g><g class="vf-notehead" id="vf-auto8184" pointer-events="bounding-box"><path stroke="none" d="M115.974 63.428C115.918 68.229,111.79 72.048,107.185 72.048C106.511 72.048,105.809 71.964,105.135 71.795C103.703 71.43,103.057 70.391,102.748 68.959C102.58 68.229,102.496 67.555,102.496 66.909C102.496 62.332,106.062 59.384,110.47 58.008C110.611 57.952,110.835 57.924,111.032 57.924C112.998 57.924,116.002 60.226,116.002 62.81C116.002 63.006,116.002 63.231,115.974 63.428M108.477 67.864C110.19 67.274,112.071 66.348,113.7 64.832C113.728 64.803,113.784 64.635,113.784 64.523C113.784 64.382,113.728 64.27,113.7 64.242C112.969 63.512,112.408 62.529,111.228 62.36C111.06 62.332,110.92 62.332,110.695 62.332C108.954 62.332,107.578 63.456,106.146 64.242C105.247 64.747,104.237 65.814,104.433 66.741C104.63 67.752,106.09 67.555,107.016 67.752C107.382 67.836,107.718 67.836,108.477 67.864"/><path stroke="none" d="M82.646 80.13C82.947 80.103,83.029 79.665,83.111 79.391C83.275 78.872,83.303 78.352,83.303 77.887C83.303 77.449,83.275 77.066,83.275 76.628C83.275 76.354,83.275 75.999,83.303 75.725C83.385 74.932,83.467 74.138,83.494 73.345L85.245 72.989C85.327 74.658,85.628 76.272,86.175 77.832C86.23 78.051,86.367 78.27,86.613 78.27C86.859 78.324,86.942 78.051,87.051 77.832C87.325 77.421,87.352 76.902,87.352 76.436C87.407 76.081,87.407 75.752,87.407 75.452C87.407 74.494,87.325 73.509,87.297 72.551L89.568 72.086C91.73 71.648,92.003 71.348,92.167 69.268C92.167 68.748,92.222 68.393,92.167 67.982C92.14 67.49,91.921 67.134,91.511 67.134L91.429 67.134C91.264 67.134,91.155 67.134,90.991 67.161C90.088 67.408,89.103 67.599,88.145 67.763L87.489 67.873C87.516 67.326,87.516 66.724,87.571 66.149C87.598 64.891,87.626 63.632,87.626 62.373C88.747 62.072,89.814 61.772,90.881 61.416C91.456 61.224,91.976 60.896,92.14 60.267C92.277 59.555,92.496 58.899,92.496 58.187C92.496 57.777,92.441 57.367,92.277 56.956C92.14 56.573,92.003 56.382,91.784 56.382L91.702 56.382C91.565 56.382,91.429 56.382,91.264 56.464C90.033 56.956,88.829 57.367,87.571 57.722L87.434 55.588C87.352 53.892,87.297 52.168,86.942 50.472C86.859 50.253,86.887 49.897,86.641 49.897L86.613 49.897L86.504 49.897C86.175 49.979,85.792 50.116,85.738 50.554L85.738 51.293C85.738 53.618,85.82 55.889,85.874 58.187L83.768 58.652C83.768 57.476,83.74 56.3,83.658 55.123C83.631 54.521,83.631 53.974,83.303 53.372C82.427 53.81,82.564 54.548,82.564 55.178C82.482 56.464,82.427 57.668,82.4 58.899C81.305 59.118,80.184 59.282,79.089 59.473C77.475 59.747,77.229 59.993,77.229 61.772C77.119 62.209,77.448 62.702,77.393 63.194C77.311 63.933,77.502 64.179,78.022 64.207C78.132 64.207,78.268 64.179,78.433 64.124C79.718 63.933,80.977 63.741,82.236 63.495L82.126 67.052C82.071 67.709,82.017 68.338,81.935 68.967C80.457 69.268,79.007 69.542,77.557 69.897C76.736 70.089,76.244 70.39,76.244 71.348C76.244 72.278,76.599 73.153,76.654 74.056C76.654 74.494,76.764 74.685,77.092 74.74C77.147 74.74,77.283 74.685,77.448 74.658C78.843 74.33,80.266 74.056,81.688 73.755C81.661 74.248,81.661 74.768,81.661 75.315C81.661 76.71,81.798 78.051,82.29 79.391C82.372 79.665,82.29 80.13,82.646 80.13M83.686 68.612C83.74 67.763,83.74 66.888,83.768 66.012C83.822 65.082,83.822 64.179,83.822 63.222C84.479 63.112,85.108 63.003,85.738 62.839C85.546 64.644,85.464 66.45,85.355 68.283"/><path stroke="none" d="M130.002 65 A2 2 0 0 0 126.002 65 A2 2 0 0 0 130.002 65"/><path stroke="none" d="M102.258 72.975C102.286 72.975,102.343 72.975,102.371 72.89C102.539 72.806,102.567 72.694,102.567 72.525L102.539 72.104C102.371 71.318,101.893 70.728,101.5 70.054C100.489 68.37,99.675 66.572,99.675 64.635C99.675 64.101,99.703 63.54,99.872 62.95C100.237 61.406,101.163 60.198,102.343 59.103C102.623 58.85,102.792 58.289,102.792 57.84C102.792 57.559,102.736 57.306,102.567 57.194C102.427 57.11,102.286 57.025,102.146 57.025C101.781 57.025,101.528 57.475,101.247 57.727C99.478 59.3,98.524 61.322,98.496 63.961C98.748 66.938,99.984 69.858,101.809 72.525C101.893 72.694,102.062 72.975,102.258 72.975"/><path stroke="none" d="M118.525 72.919C118.834 73.34,119.339 72.638,119.676 72.413C120.125 72.104,120.462 71.627,120.687 71.15C121.698 69.212,122.147 67.106,122.287 64.972C122.316 64.832,122.316 64.663,122.316 64.551C122.316 63.989,122.147 63.456,122.063 62.95C121.782 60.676,120.912 58.654,119.114 57.166C118.89 56.941,118.637 56.66,118.356 56.66C118.244 56.66,118.104 56.744,117.963 56.885C117.823 56.997,117.795 57.25,117.795 57.531C117.795 57.952,117.963 58.57,118.104 58.682C120.35 60.226,121.361 62.697,121.361 65.197C121.361 66.938,120.827 68.707,119.901 70.167C119.62 70.616,119.114 70.869,118.721 71.234C118.44 71.515,118.328 71.88,118.328 72.245C118.328 72.469,118.384 72.75,118.525 72.919"/></g></g><g class="vf-stavenote" id="vf-auto8188"><g class="vf-stem" id="vf-auto8189" pointer-events="bounding-box"><path stroke-width="1.5" fill="none" d="M314.45 67L314.45 100"/></g><g class="vf-notehead" id="vf-auto8192" pointer-events="bounding-box"><path stroke="none" d="M316.845 71.543C317.126 71.599,317.378 71.627,317.659 71.627C321.534 71.627,327.319 66.348,327.206 62.08C327.094 61.041,327.122 59.609,325.016 58.766C324.427 58.485,323.781 58.373,323.079 58.373C318.754 58.373,314.065 63.343,313.728 66.657C313.728 66.909,313.7 67.134,313.7 67.387C313.7 69.409,314.599 71.037,316.845 71.543"/><path stroke="none" d="M313.463 72.975C313.491 72.975,313.547 72.975,313.575 72.89C313.744 72.806,313.772 72.694,313.772 72.525L313.744 72.104C313.575 71.318,313.098 70.728,312.705 70.054C311.694 68.37,310.879 66.572,310.879 64.635C310.879 64.101,310.907 63.54,311.076 62.95C311.441 61.406,312.368 60.198,313.547 59.103C313.828 58.85,313.996 58.289,313.996 57.84C313.996 57.559,313.94 57.306,313.772 57.194C313.631 57.11,313.491 57.025,313.35 57.025C312.985 57.025,312.733 57.475,312.452 57.727C310.683 59.3,309.728 61.322,309.7 63.961C309.953 66.938,311.188 69.858,313.013 72.525C313.098 72.694,313.266 72.975,313.463 72.975"/><path stroke="none" d="M329.731 72.919C330.04 73.34,330.545 72.638,330.882 72.413C331.331 72.104,331.668 71.627,331.893 71.15C332.904 69.212,333.353 67.106,333.493 64.972C333.522 64.832,333.522 64.663,333.522 64.551C333.522 63.989,333.353 63.456,333.269 62.95C332.988 60.676,332.118 58.654,330.32 57.166C330.096 56.941,329.843 56.66,329.562 56.66C329.45 56.66,329.31 56.744,329.169 56.885C329.029 56.997,329.001 57.25,329.001 57.531C329.001 57.952,329.169 58.57,329.31 58.682C331.556 60.226,332.567 62.697,332.567 65.197C332.567 66.938,332.033 68.707,331.107 70.167C330.826 70.616,330.32 70.869,329.927 71.234C329.647 71.515,329.534 71.88,329.534 72.245C329.534 72.469,329.59 72.75,329.731 72.919"/></g></g><g class="vf-stavenote" id="vf-auto8203"><path stroke-width="1.4" fill="none" stroke="#444" d="M99.496 220L119.004 220"/><path stroke-width="1.4" fill="none" stroke="#444" d="M99.496 230L119.004 230"/><path stroke-width="1.4" fill="none" stroke="#444" d="M99.496 240L119.004 240"/><path stroke-width="1.4" fill="none" stroke="#444" d="M99.496 250L119.004 250"/><g class="vf-stem" id="vf-auto8204" pointer-events="bounding-box"><path stroke-width="1.5" fill="none" d="M103.246 257L103.246 290"/></g><g class="vf-notehead" id="vf-auto8207" pointer-events="bounding-box"><path stroke="none" d="M105.641 261.543C105.921 261.599,106.174 261.627,106.455 261.627C110.33 261.627,116.114 256.348,116.002 252.08C115.89 251.041,115.918 249.609,113.812 248.766C113.222 248.485,112.576 248.373,111.874 248.373C107.55 248.373,102.861 253.343,102.524 256.657C102.524 256.909,102.496 257.134,102.496 257.387C102.496 259.409,103.394 261.037,105.641 261.543"/><path stroke="none" d="M82.646 270.13C82.947 270.103,83.029 269.665,83.111 269.391C83.275 268.872,83.303 268.352,83.303 267.887C83.303 267.449,83.275 267.066,83.275 266.628C83.275 266.354,83.275 265.999,83.303 265.725C83.385 264.932,83.467 264.138,83.494 263.345L85.245 262.989C85.327 264.658,85.628 266.272,86.175 267.832C86.23 268.051,86.367 268.27,86.613 268.27C86.859 268.324,86.942 268.051,87.051 267.832C87.325 267.421,87.352 266.902,87.352 266.436C87.407 266.081,87.407 265.752,87.407 265.452C87.407 264.494,87.325 263.509,87.297 262.551L89.568 262.086C91.73 261.648,92.003 261.348,92.167 259.268C92.167 258.748,92.222 258.393,92.167 257.982C92.14 257.49,91.921 257.134,91.511 257.134L91.429 257.134C91.264 257.134,91.155 257.134,90.991 257.161C90.088 257.408,89.103 257.599,88.145 257.763L87.489 257.873C87.516 257.326,87.516 256.724,87.571 256.149C87.598 254.891,87.626 253.632,87.626 252.373C88.747 252.072,89.814 251.772,90.881 251.416C91.456 251.224,91.976 250.896,92.14 250.267C92.277 249.555,92.496 248.899,92.496 248.187C92.496 247.777,92.441 247.367,92.277 246.956C92.14 246.573,92.003 246.382,91.784 246.382L91.702 246.382C91.565 246.382,91.429 246.382,91.264 246.464C90.033 246.956,88.829 247.367,87.571 247.722L87.434 245.588C87.352 243.892,87.297 242.168,86.942 240.472C86.859 240.253,86.887 239.897,86.641 239.897L86.613 239.897L86.504 239.897C86.175 239.979,85.792 240.116,85.738 240.554L85.738 241.293C85.738 243.618,85.82 245.889,85.874 248.187L83.768 248.652C83.768 247.476,83.74 246.3,83.658 245.123C83.631 244.521,83.631 243.974,83.303 243.372C82.427 243.81,82.564 244.548,82.564 245.178C82.482 246.464,82.427 247.668,82.4 248.899C81.305 249.118,80.184 249.282,79.089 249.473C77.475 249.747,77.229 249.993,77.229 251.772C77.119 252.209,77.448 252.702,77.393 253.194C77.311 253.933,77.502 254.179,78.022 254.207C78.132 254.207,78.268 254.179,78.433 254.124C79.718 253.933,80.977 253.741,82.236 253.495L82.126 257.052C82.071 257.709,82.017 258.338,81.935 258.967C80.457 259.268,79.007 259.542,77.557 259.897C76.736 260.089,76.244 260.39,76.244 261.348C76.244 262.278,76.599 263.153,76.654 264.056C76.654 264.494,76.764 264.685,77.092 264.74C77.147 264.74,77.283 264.685,77.448 264.658C78.843 264.33,80.266 264.056,81.688 263.755C81.661 264.248,81.661 264.768,81.661 265.315C81.661 266.71,81.798 268.051,82.29 269.391C82.372 269.665,82.29 270.13,82.646 270.13M83.686 258.612C83.74 257.763,83.74 256.888,83.768 256.012C83.822 255.082,83.822 254.179,83.822 253.222C84.479 253.112,85.108 253.003,85.738 252.839C85.546 254.644,85.464 256.45,85.355 258.283"/><path stroke="none" d="M102.258 262.975C102.286 262.975,102.343 262.975,102.371 262.89C102.539 262.806,102.567 262.694,102.567 262.525L102.539 262.104C102.371 261.318,101.893 260.728,101.5 260.054C100.489 258.37,99.675 256.572,99.675 254.635C99.675 254.101,99.703 253.54,99.872 252.95C100.237 251.406,101.163 250.198,102.343 249.103C102.623 248.85,102.792 248.289,102.792 247.84C102.792 247.559,102.736 247.306,102.567 247.194C102.427 247.11,102.286 247.025,102.146 247.025C101.781 247.025,101.528 247.475,101.247 247.727C99.478 249.3,98.524 251.322,98.496 253.961C98.748 256.938,99.984 259.858,101.809 262.525C101.893 262.694,102.062 262.975,102.258 262.975"/><path stroke="none" d="M118.526 262.919C118.835 263.34,119.341 262.638,119.678 262.413C120.127 262.104,120.464 261.627,120.689 261.15C121.699 259.212,122.149 257.106,122.289 254.972C122.317 254.832,122.317 254.663,122.317 254.551C122.317 253.989,122.149 253.456,122.064 252.95C121.784 250.676,120.913 248.654,119.116 247.166C118.891 246.941,118.639 246.66,118.358 246.66C118.246 246.66,118.105 246.744,117.965 246.885C117.824 246.997,117.796 247.25,117.796 247.531C117.796 247.952,117.965 248.57,118.105 248.682C120.352 250.226,121.362 252.697,121.362 255.197C121.362 256.938,120.829 258.707,119.902 260.167C119.621 260.616,119.116 260.869,118.723 261.234C118.442 261.515,118.33 261.88,118.33 262.245C118.33 262.469,118.386 262.75,118.526 262.919"/></g></g><g class="vf-stavenote" id="vf-auto8210"><path stroke-width="1.4" fill="none" stroke="#444" d="M191.036 220L210.544 220"/><path stroke-width="1.4" fill="none" stroke="#444" d="M191.036 230L210.544 230"/><path stroke-width="1.4" fill="none" stroke="#444" d="M191.036 240L210.544 240"/><path stroke-width="1.4" fill="none" stroke="#444" d="M191.036 250L210.544 250"/><g class="vf-stem" id="vf-auto8211" pointer-events="bounding-box"><path stroke-width="1.5" fill="none" d="M194.786 257L194.786 290"/></g><g class="vf-notehead" id="vf-auto8214" pointer-events="bounding-box"><path stroke="none" d="M197.181 261.543C197.462 261.599,197.715 261.627,197.995 261.627C201.87 261.627,207.655 256.348,207.543 252.08C207.43 251.041,207.458 249.609,205.352 248.766C204.763 248.485,204.117 248.373,203.415 248.373C199.09 248.373,194.401 253.343,194.064 256.657C194.064 256.909,194.036 257.134,194.036 257.387C194.036 259.409,194.935 261.037,197.181 261.543"/><path stroke="none" d="M182.593 272.976C183.031 272.976,183.14 272.401,183.304 272.073C183.332 271.826,183.414 271.635,183.414 271.389C183.496 268.68,183.523 265.944,183.605 263.208C183.605 261.922,183.523 260.664,183.523 259.405C183.605 256.778,183.742 254.124,183.824 251.498C183.824 251.498,183.879 250.896,183.933 250.404L183.933 250.267L183.961 249.802L183.961 249.555L184.016 248.844C184.016 248.735,184.098 248.269,183.933 247.914C183.742 247.503,183.879 246.655,183.058 246.847C181.197 247.367,179.282 247.558,177.34 247.722C177.477 245.479,177.586 243.18,177.586 240.937C177.586 240.198,177.586 239.487,177.559 238.721C177.559 238.064,177.422 237.435,177.148 236.806C175.862 237.189,176.081 238.365,176.081 239.159C176.136 243.153,175.808 247.093,175.698 251.06C175.643 252.428,175.616 253.824,175.616 255.192C175.616 256.368,175.643 257.517,175.698 258.666C175.698 259.46,175.808 260.253,175.808 260.992C175.808 261.648,176.081 261.867,176.574 261.867C176.683 261.867,176.793 261.867,176.957 261.813L181.717 261.101L181.909 261.074L181.909 264.822C181.909 266.218,181.717 267.695,181.717 269.118C181.717 270.048,181.799 271.006,182.073 271.936C182.182 272.346,182.073 272.976,182.593 272.976M177.203 256.724C177.148 255.383,177.066 254.097,177.121 252.784L177.148 252.291C177.394 252.291,177.668 252.319,177.942 252.291C179.282 252.155,180.623 252.072,181.964 252.045L182.182 252.018L182.073 253.194C182.046 254.207,181.964 255.274,181.964 256.313C180.377 256.724,178.762 256.997,177.203 257.216"/><path stroke="none" d="M193.799 262.975C193.827 262.975,193.883 262.975,193.911 262.89C194.08 262.806,194.108 262.694,194.108 262.525L194.08 262.104C193.911 261.318,193.434 260.728,193.041 260.054C192.03 258.37,191.215 256.572,191.215 254.635C191.215 254.101,191.244 253.54,191.412 252.95C191.777 251.406,192.704 250.198,193.883 249.103C194.164 248.85,194.332 248.289,194.332 247.84C194.332 247.559,194.276 247.306,194.108 247.194C193.967 247.11,193.827 247.025,193.686 247.025C193.321 247.025,193.069 247.475,192.788 247.727C191.019 249.3,190.064 251.322,190.036 253.961C190.289 256.938,191.524 259.858,193.35 262.525C193.434 262.694,193.602 262.975,193.799 262.975"/><path stroke="none" d="M210.067 262.919C210.376 263.34,210.881 262.638,211.218 262.413C211.667 262.104,212.004 261.627,212.229 261.15C213.24 259.212,213.689 257.106,213.83 254.972C213.858 254.832,213.858 254.663,213.858 254.551C213.858 253.989,213.689 253.456,213.605 252.95C213.324 250.676,212.454 248.654,210.656 247.166C210.432 246.941,210.179 246.66,209.898 246.66C209.786 246.66,209.646 246.744,209.505 246.885C209.365 246.997,209.337 247.25,209.337 247.531C209.337 247.952,209.505 248.57,209.646 248.682C211.892 250.226,212.903 252.697,212.903 255.197C212.903 256.938,212.369 258.707,211.443 260.167C211.162 260.616,210.656 260.869,210.263 261.234C209.983 261.515,209.87 261.88,209.87 262.245C209.87 262.469,209.926 262.75,210.067 262.919"/></g></g><g class="vf-stavenote" id="vf-auto8217"><path stroke-width="1.4" fill="none" stroke="#444" d="M250.868 220L270.376 220"/><g class="vf-stem" id="vf-auto8218" pointer-events="bounding-box"><path stroke-width="1.5" fill="none" d="M254.618 227L254.618 260"/></g><g class="vf-notehead" id="vf-auto8221" pointer-events="bounding-box"><path stroke="none" d="M257.013 231.543C257.294 231.599,257.547 231.627,257.827 231.627C261.702 231.627,267.487 226.348,267.375 222.08C267.262 221.041,267.29 219.609,265.184 218.766C264.595 218.485,263.949 218.373,263.247 218.373C258.922 218.373,254.233 223.343,253.896 226.657C253.896 226.909,253.868 227.134,253.868 227.387C253.868 229.409,254.767 231.037,257.013 231.543"/><path stroke="none" d="M236.481 233.208C236.59 233.208,236.754 233.126,236.946 232.907C237.466 232.497,238.04 232.059,238.615 231.648C242.062 229.186,243.923 225.821,243.923 221.525C243.923 220.978,243.923 220.458,243.841 219.911C243.649 217.996,242.555 216.874,240.886 216.874C240.53 216.874,240.147 216.956,239.709 217.093C239.162 217.23,238.615 217.503,238.04 217.75L238.013 217.777L238.013 216.765C238.013 215.26,238.095 213.782,238.177 212.278C238.177 211.402,238.259 210.581,238.259 209.706C238.259 208.885,238.177 208.009,237.986 207.189C237.904 206.915,237.904 206.395,237.493 206.395L237.466 206.395C237.028 206.45,236.7 206.806,236.7 207.353C236.672 208.447,236.563 209.596,236.59 210.691L236.59 211.922C236.59 214.248,236.481 216.573,236.399 218.899C236.289 222.237,235.715 225.52,235.715 228.858C235.715 230.171,235.797 231.539,236.153 232.852C236.235 233.071,236.317 233.208,236.481 233.208M237.548 227.873C237.63 226.86,237.657 225.793,237.767 224.672C237.849 223.824,237.904 222.948,237.904 222.072L238.04 222.018C238.806 221.689,239.545 221.306,240.366 221.306C240.64 221.306,240.968 221.388,241.269 221.498C241.925 221.717,242.226 222.045,242.199 222.483C242.199 222.702,242.144 222.948,241.98 223.276C240.968 225.274,239.299 226.614,237.548 227.873"/><path stroke="none" d="M253.631 232.975C253.659 232.975,253.715 232.975,253.743 232.89C253.912 232.806,253.94 232.694,253.94 232.525L253.912 232.104C253.743 231.318,253.266 230.728,252.873 230.054C251.862 228.37,251.047 226.572,251.047 224.635C251.047 224.101,251.075 223.54,251.244 222.95C251.609 221.406,252.536 220.198,253.715 219.103C253.996 218.85,254.164 218.289,254.164 217.84C254.164 217.559,254.108 217.306,253.94 217.194C253.799 217.11,253.659 217.025,253.518 217.025C253.153 217.025,252.901 217.475,252.62 217.727C250.851 219.3,249.896 221.322,249.868 223.961C250.121 226.938,251.356 229.858,253.181 232.525C253.266 232.694,253.434 232.975,253.631 232.975"/><path stroke="none" d="M269.899 232.919C270.208 233.34,270.713 232.638,271.05 232.413C271.499 232.104,271.836 231.627,272.061 231.15C273.072 229.212,273.521 227.106,273.661 224.972C273.69 224.832,273.69 224.663,273.69 224.551C273.69 223.989,273.521 223.456,273.437 222.95C273.156 220.676,272.286 218.654,270.488 217.166C270.264 216.941,270.011 216.66,269.73 216.66C269.618 216.66,269.478 216.744,269.337 216.885C269.197 216.997,269.169 217.25,269.169 217.531C269.169 217.952,269.337 218.57,269.478 218.682C271.724 220.226,272.735 222.697,272.735 225.197C272.735 226.938,272.201 228.707,271.275 230.167C270.994 230.616,270.488 230.869,270.095 231.234C269.815 231.515,269.702 231.88,269.702 232.245C269.702 232.469,269.758 232.75,269.899 232.919"/></g></g><g class="vf-stavenote" id="vf-auto8224"><path stroke-width="1.4" fill="none" stroke="#444" d="M310.7 220L330.208 220"/><path stroke-width="1.4" fill="none" stroke="#444" d="M310.7 230L330.208 230"/><path stroke-width="1.4" fill="none" stroke="#444" d="M310.7 240L330.208 240"/><path stroke-width="1.4" fill="none" stroke="#444" d="M310.7 250L330.208 250"/><g class="vf-stem" id="vf-auto8225" pointer-events="bounding-box"><path stroke-width="1.5" fill="none" d="M314.45 252L314.45 285"/></g><g class="vf-notehead" id="vf-auto8228" pointer-events="bounding-box"><path stroke="none" d="M316.845 256.543C317.126 256.599,317.378 256.627,317.659 256.627C321.534 256.627,327.319 251.348,327.206 247.08C327.094 246.041,327.122 244.609,325.016 243.766C324.427 243.485,323.781 243.373,323.079 243.373C318.754 243.373,314.065 248.343,313.728 251.657C313.728 251.909,313.7 252.134,313.7 252.387C313.7 254.409,314.599 256.037,316.845 256.543"/><path stroke="none" d="M294.699 256.265C294.89 256.265,295.082 256.156,295.328 255.91C296.176 255.089,296.969 254.213,297.872 253.42C298.201 253.146,298.474 252.873,298.748 252.599C299.815 253.42,300.882 254.296,301.894 255.171C302.14 255.363,302.332 255.472,302.524 255.472C302.797 255.472,303.043 255.253,303.235 254.897C303.618 254.213,303.508 253.42,303.673 252.791C303.618 251.888,303.344 251.259,302.715 250.739L301.292 249.617C301.976 248.851,302.633 248.14,303.399 247.51C303.618 247.373,303.7 247.072,303.7 246.525C303.591 245.951,303.262 245.185,302.852 244.528C302.524 243.981,302.25 243.735,301.976 243.735C301.703 243.735,301.374 243.899,300.991 244.254C300.608 244.555,300.198 244.884,299.897 245.239C299.295 245.869,298.748 246.498,298.201 247.155C297.134 246.388,296.012 245.595,294.917 244.884C294.753 244.747,294.644 244.72,294.534 244.72C294.452 244.72,294.37 244.72,294.261 244.802C294.097 244.911,293.85 244.884,293.714 245.103C293.577 245.404,293.495 245.787,293.495 246.252C293.495 247.483,293.932 249.124,294.616 249.562C294.835 249.726,295.082 249.891,295.328 250.082C294.48 250.876,293.632 251.696,292.783 252.572C292.564 252.791,292.4 253.119,292.4 253.393C292.4 253.666,292.482 253.94,292.729 254.213C293.112 254.815,293.714 255.28,294.097 255.882C294.288 256.156,294.48 256.265,294.699 256.265"/><path stroke="none" d="M313.463 257.975C313.491 257.975,313.547 257.975,313.575 257.89C313.744 257.806,313.772 257.694,313.772 257.525L313.744 257.104C313.575 256.318,313.098 255.728,312.705 255.054C311.694 253.37,310.879 251.572,310.879 249.635C310.879 249.101,310.907 248.54,311.076 247.95C311.441 246.406,312.368 245.198,313.547 244.103C313.828 243.85,313.996 243.289,313.996 242.84C313.996 242.559,313.94 242.306,313.772 242.194C313.631 242.11,313.491 242.025,313.35 242.025C312.985 242.025,312.733 242.475,312.452 242.727C310.683 244.3,309.728 246.322,309.7 248.961C309.953 251.938,311.188 254.858,313.013 257.525C313.098 257.694,313.266 257.975,313.463 257.975"/><path stroke="none" d="M329.731 257.919C330.04 258.34,330.545 257.638,330.882 257.413C331.331 257.104,331.668 256.627,331.893 256.15C332.904 254.212,333.353 252.106,333.493 249.972C333.522 249.832,333.522 249.663,333.522 249.551C333.522 248.989,333.353 248.456,333.269 247.95C332.988 245.676,332.118 243.654,330.32 242.166C330.096 241.941,329.843 241.66,329.562 241.66C329.45 241.66,329.31 241.744,329.169 241.885C329.029 241.997,329.001 242.25,329.001 242.531C329.001 242.952,329.169 243.57,329.31 243.682C331.556 245.226,332.567 247.697,332.567 250.197C332.567 251.938,332.033 253.707,331.107 255.167C330.826 255.616,330.32 255.869,329.927 256.234C329.647 256.515,329.534 256.88,329.534 257.245C329.534 257.469,329.59 257.75,329.731 257.919"/></g></g><path stroke="none" d="M5.634 44C6.584 43.971,7.563 44,8.514 44L9.522 44C17.24 44,22.914 40.054,25.534 33.171C25.851 32.307,26.082 31.443,26.082 30.55C26.082 30.118,26.024 29.658,25.909 29.197C25.822 28.794,25.707 28.65,25.477 28.65C25.362 28.65,25.16 28.736,24.958 28.851C24.67 29.024,24.526 29.37,24.411 29.658C24.066 30.55,23.778 31.472,23.288 32.307C21.128 35.907,18.19 38.442,13.928 39.277C12.43 39.565,10.933 39.651,9.435 39.651C8.37 39.651,7.246 39.565,6.123 39.565C5.49 39.565,5.115 39.824,5.029 40.544C5 40.89,5 41.235,5 41.581C5 42.186,5.029 42.848,5 43.424C5 43.885,5.202 44,5.634 44"/><path stroke="none" d="M25.045 233.301C25.534 233.301,25.39 232.811,25.477 232.523C25.534 232.35,25.563 232.178,25.563 232.005C25.563 231.89,25.534 231.774,25.534 231.63C25.333 229.816,24.814 228.059,24.037 226.418C22.366 222.846,19.774 220.139,16.29 218.21C14.533 217.202,12.661 217,10.933 217C10.472 217,10.011 217.029,9.608 217.029C8.082 217.029,6.901 217.086,5.749 217.029C5.346 217.029,5 217.115,5 217.547L5 217.662C5.029 217.922,5.086 218.21,5.086 218.44C5.086 218.786,5.029 219.102,5.029 219.477C5.029 219.765,5.029 220.11,5.115 220.398C5.288 221.176,5.662 221.435,6.296 221.349C7.563 221.147,8.888 221.176,10.184 221.118C16.29 220.888,20.062 223.797,22.885 229.067C23.461 230.133,23.864 231.314,24.066 232.523C24.21 233.042,24.584 233.301,25.045 233.301"/><rect x="5" y="44" width="3" height="173" stroke="none"/></svg>