<svg xmlns="http://www.w3.org/2000/svg" stroke-width="0.3" stroke-dasharray="none" fill="black" stroke="black" font-family="Arial, sans-serif" font-size="10pt" font-weight="normal" font-style="normal" width="750" height="260" viewBox="0 0 750 260" style="width: 750px; height: 260px; border: none;"><g class="vf-stave" id="vf-auto1956" stroke-width="1" fill="#999999" stroke="#999999"><path fill="none" d="M10 50L180 50"/><path fill="none" d="M10 60L180 60"/><path fill="none" d="M10 70L180 70"/><path fill="none" d="M10 80L180 80"/><path fill="none" d="M10 90L180 90"/></g><g class="vf-stavebarline" id="vf-auto1957"/><g class="vf-stavebarline" id="vf-auto1958"><rect x="180" y="49.5" width="1" height="41" stroke="none"/></g><g class="vf-stave" id="vf-auto1989" stroke-width="1" fill="#999999" stroke="#999999"><path fill="none" d="M10 170L180 170"/><path fill="none" d="M10 180L180 180"/><path fill="none" d="M10 190L180 190"/><path fill="none" d="M10 200L180 200"/><path fill="none" d="M10 210L180 210"/></g><g class="vf-stavebarline" id="vf-auto1990"/><g class="vf-stavebarline" id="vf-auto1991"><rect x="180" y="169.5" width="1" height="41" stroke="none"/></g><g class="vf-stavenote" id="vf-n0"><path stroke-width="1.4" fill="none" stroke="#444" d="M39.622 100L57.612 100"/><g class="vf-stem" id="vf-auto1933" pointer-events="bounding-box"><path stroke-width="1.5" fill="none" d="M53.862 98.5L53.862 50"/></g><g class="vf-notehead" id="vf-auto1936" pointer-events="bounding-box"><path stroke="none" d="M49.726 94.889C49.811 94.889,49.895 94.889,50.035 94.889C50.4 94.889,50.934 94.918,51.13 94.946C53.461 95.283,54.612 96.827,54.612 98.624C54.612 100.534,53.321 102.724,50.737 104.128C49.474 104.802,48.182 105.111,47.003 105.111C44.84 105.111,43.071 104.044,42.706 102.162C42.65 101.881,42.622 101.629,42.622 101.376C42.622 98.343,45.879 95.283,49.726 94.889M52.871 96.35C52.731 96.293,52.591 96.293,52.422 96.293C50.709 96.293,47.199 98.371,45.234 100.674C44.391 101.657,43.942 102.527,43.942 103.061C43.942 103.313,44.026 103.482,44.195 103.566C44.363 103.678,44.588 103.707,44.812 103.707C46.638 103.707,50.428 101.376,52.31 98.961C52.984 98.119,53.321 97.417,53.321 96.967C53.321 96.658,53.152 96.434,52.871 96.35"/><g class="vf-annotation" id="vf-auto1959"><text stroke="none" font-family="Roboto Slab" x="31" y="122.318">hand,</text></g></g><g class="vf-notehead" id="vf-auto1937" pointer-events="bounding-box"><path stroke="none" d="M49.726 79.889C49.811 79.889,49.895 79.889,50.035 79.889C50.4 79.889,50.934 79.918,51.13 79.946C53.461 80.283,54.612 81.827,54.612 83.624C54.612 85.534,53.321 87.724,50.737 89.128C49.474 89.802,48.182 90.111,47.003 90.111C44.84 90.111,43.071 89.044,42.706 87.162C42.65 86.881,42.622 86.629,42.622 86.376C42.622 83.343,45.879 80.283,49.726 79.889M52.871 81.35C52.731 81.293,52.591 81.293,52.422 81.293C50.709 81.293,47.199 83.371,45.234 85.674C44.391 86.657,43.942 87.527,43.942 88.061C43.942 88.313,44.026 88.482,44.195 88.566C44.363 88.678,44.588 88.707,44.812 88.707C46.638 88.707,50.428 86.376,52.31 83.961C52.984 83.119,53.321 82.417,53.321 81.967C53.321 81.658,53.152 81.434,52.871 81.35"/><g class="vf-annotation" id="vf-auto1962"><text stroke="none" font-family="Roboto Slab" x="31.482" y="137.319">pears</text></g></g></g><g class="vf-stavenote" id="vf-n1"><path stroke-width="1.4" fill="none" stroke="#444" d="M112.831 100L130.821 100"/><g class="vf-notehead" id="vf-auto1943" pointer-events="bounding-box"><path stroke="none" d="M122.935 94.889C123.02 94.889,123.104 94.889,123.244 94.889C123.609 94.889,124.143 94.918,124.339 94.946C126.67 95.283,127.821 96.827,127.821 98.624C127.821 100.534,126.53 102.724,123.946 104.128C122.683 104.802,121.391 105.111,120.212 105.111C118.049 105.111,116.28 104.044,115.915 102.162C115.859 101.881,115.831 101.629,115.831 101.376C115.831 98.343,119.088 95.283,122.935 94.889"/><g class="vf-annotation" id="vf-auto1960"><text stroke="none" font-family="Roboto Slab" x="109.805" y="120.43">and</text></g></g><g class="vf-notehead" id="vf-auto1944" pointer-events="bounding-box"><path stroke="none" d="M122.935 69.889C123.02 69.889,123.104 69.889,123.244 69.889C123.609 69.889,124.143 69.918,124.339 69.946C126.67 70.283,127.821 71.827,127.821 73.624C127.821 75.534,126.53 77.724,123.946 79.128C122.683 79.802,121.391 80.111,120.212 80.111C118.049 80.111,116.28 79.044,115.915 77.162C115.859 76.881,115.831 76.629,115.831 76.376C115.831 73.343,119.088 70.283,122.935 69.889"/><g class="vf-annotation" id="vf-auto1963"><text stroke="none" font-family="Roboto Slab" x="108.604" y="132.859">lead</text></g></g></g><g class="vf-stavenote" id="vf-n2"><path stroke-width="1.4" fill="none" stroke="#444" d="M139.937 100L157.927 100"/><g class="vf-notehead" id="vf-auto1951" pointer-events="bounding-box"><path stroke="none" d="M150.041 94.889C150.125 94.889,150.209 94.889,150.35 94.889C150.715 94.889,151.248 94.918,151.445 94.946C153.776 95.283,154.927 96.827,154.927 98.624C154.927 100.534,153.635 102.724,151.052 104.128C149.788 104.802,148.496 105.111,147.317 105.111C145.155 105.111,143.386 104.044,143.021 102.162C142.965 101.881,142.937 101.629,142.937 101.376C142.937 98.343,146.194 95.283,150.041 94.889"/><g class="vf-annotation" id="vf-auto1961"><text stroke="none" font-family="Roboto Slab" x="139.049" y="120.43">me</text></g></g><g class="vf-notehead" id="vf-auto1952" pointer-events="bounding-box"><path stroke="none" d="M150.041 69.889C150.125 69.889,150.209 69.889,150.35 69.889C150.715 69.889,151.248 69.918,151.445 69.946C153.776 70.283,154.927 71.827,154.927 73.624C154.927 75.534,153.635 77.724,151.052 79.128C149.788 79.802,148.496 80.111,147.317 80.111C145.155 80.111,143.386 79.044,143.021 77.162C142.965 76.881,142.937 76.629,142.937 76.376C142.937 73.343,146.194 70.283,150.041 69.889"/><g class="vf-annotation" id="vf-auto1964"><text stroke="none" font-family="Roboto Slab" x="138.828" y="132.859">the</text></g></g></g><g class="vf-stavenote" id="vf-auto1965"><g class="vf-stem" id="vf-auto1966" pointer-events="bounding-box"><path stroke-width="1.5" fill="none" d="M53.862 203.5L53.862 145"/></g><g class="vf-notehead" id="vf-auto1969" pointer-events="bounding-box"><path stroke="none" d="M49.726 199.889C49.811 199.889,49.895 199.889,50.035 199.889C50.4 199.889,50.934 199.918,51.13 199.946C53.461 200.283,54.612 201.827,54.612 203.624C54.612 205.534,53.321 207.724,50.737 209.128C49.474 209.802,48.182 210.111,47.003 210.111C44.84 210.111,43.071 209.044,42.706 207.162C42.65 206.881,42.622 206.629,42.622 206.376C42.622 203.343,45.879 200.283,49.726 199.889M52.871 201.35C52.731 201.293,52.591 201.293,52.422 201.293C50.709 201.293,47.199 203.371,45.234 205.674C44.391 206.657,43.942 207.527,43.942 208.061C43.942 208.313,44.026 208.482,44.195 208.566C44.363 208.678,44.588 208.707,44.812 208.707C46.638 208.707,50.428 206.376,52.31 203.961C52.984 203.119,53.321 202.417,53.321 201.967C53.321 201.658,53.152 201.434,52.871 201.35"/></g><g class="vf-notehead" id="vf-auto1970" pointer-events="bounding-box"><path stroke="none" d="M49.726 174.889C49.811 174.889,49.895 174.889,50.035 174.889C50.4 174.889,50.934 174.918,51.13 174.946C53.461 175.283,54.612 176.827,54.612 178.624C54.612 180.534,53.321 182.724,50.737 184.128C49.474 184.802,48.182 185.111,47.003 185.111C44.84 185.111,43.071 184.044,42.706 182.162C42.65 181.881,42.622 181.629,42.622 181.376C42.622 178.343,45.879 175.283,49.726 174.889M52.871 176.35C52.731 176.293,52.591 176.293,52.422 176.293C50.709 176.293,47.199 178.371,45.234 180.674C44.391 181.657,43.942 182.527,43.942 183.061C43.942 183.313,44.026 183.482,44.195 183.566C44.363 183.678,44.588 183.707,44.812 183.707C46.638 183.707,50.428 181.376,52.31 178.961C52.984 178.119,53.321 177.417,53.321 176.967C53.321 176.658,53.152 176.434,52.871 176.35"/></g></g><g class="vf-stavenote" id="vf-auto1971"><g class="vf-notehead" id="vf-auto1977" pointer-events="bounding-box"><path stroke="none" d="M122.935 199.889C123.02 199.889,123.104 199.889,123.244 199.889C123.609 199.889,124.143 199.918,124.339 199.946C126.67 200.283,127.821 201.827,127.821 203.624C127.821 205.534,126.53 207.724,123.946 209.128C122.683 209.802,121.391 210.111,120.212 210.111C118.049 210.111,116.28 209.044,115.915 207.162C115.859 206.881,115.831 206.629,115.831 206.376C115.831 203.343,119.088 200.283,122.935 199.889"/></g><g class="vf-notehead" id="vf-auto1976" pointer-events="bounding-box"><path stroke="none" d="M122.935 164.889C123.02 164.889,123.104 164.889,123.244 164.889C123.609 164.889,124.143 164.918,124.339 164.946C126.67 165.283,127.821 166.827,127.821 168.624C127.821 170.534,126.53 172.724,123.946 174.128C122.683 174.802,121.391 175.111,120.212 175.111C118.049 175.111,116.28 174.044,115.915 172.162C115.859 171.881,115.831 171.629,115.831 171.376C115.831 168.343,119.088 165.283,122.935 164.889"/></g></g><g class="vf-stavenote" id="vf-auto1979"><g class="vf-notehead" id="vf-auto1985" pointer-events="bounding-box"><path stroke="none" d="M150.041 199.889C150.125 199.889,150.209 199.889,150.35 199.889C150.715 199.889,151.248 199.918,151.445 199.946C153.776 200.283,154.927 201.827,154.927 203.624C154.927 205.534,153.635 207.724,151.052 209.128C149.788 209.802,148.496 210.111,147.317 210.111C145.155 210.111,143.386 209.044,143.021 207.162C142.965 206.881,142.937 206.629,142.937 206.376C142.937 203.343,146.194 200.283,150.041 199.889"/></g><g class="vf-notehead" id="vf-auto1984" pointer-events="bounding-box"><path stroke="none" d="M150.041 164.889C150.125 164.889,150.209 164.889,150.35 164.889C150.715 164.889,151.248 164.918,151.445 164.946C153.776 165.283,154.927 166.827,154.927 168.624C154.927 170.534,153.635 172.724,151.052 174.128C149.788 174.802,148.496 175.111,147.317 175.111C145.155 175.111,143.386 174.044,143.021 172.162C142.965 171.881,142.937 171.629,142.937 171.376C142.937 168.343,146.194 165.283,150.041 164.889"/></g></g><g class="vf-stem" id="vf-auto1939" pointer-events="bounding-box"><path stroke-width="1.5" fill="none" d="M127.071 98.5L127.071 40.75"/></g><g class="vf-stem" id="vf-auto1947" pointer-events="bounding-box"><path stroke-width="1.5" fill="none" d="M154.177 98.5L154.177 40.75"/></g><g class="vf-beam" id="vf-auto1954"><path stroke="none" d="M126.321 40L126.321 45L154.427 45L154.427 40Z"/></g><g class="vf-stem" id="vf-auto1972" pointer-events="bounding-box"><path stroke-width="1.5" fill="none" d="M116.581 171.5L116.581 239.25"/></g><g class="vf-stem" id="vf-auto1980" pointer-events="bounding-box"><path stroke-width="1.5" fill="none" d="M143.687 171.5L143.687 239.25"/></g><g class="vf-beam" id="vf-auto1987"><path stroke="none" d="M115.831 240L115.831 235L143.937 235L143.937 240Z"/></g><g class="vf-stave" id="vf-auto2017" stroke-width="1" fill="#999999" stroke="#999999"><path fill="none" d="M214 50L418 50"/><path fill="none" d="M214 60L418 60"/><path fill="none" d="M214 70L418 70"/><path fill="none" d="M214 80L418 80"/><path fill="none" d="M214 90L418 90"/></g><g class="vf-stavebarline" id="vf-auto2018"/><g class="vf-stavebarline" id="vf-auto2019"><rect x="418" y="49.5" width="1" height="41" stroke="none"/></g><g class="vf-stave" id="vf-auto2050" stroke-width="1" fill="#999999" stroke="#999999"><path fill="none" d="M214 170L418 170"/><path fill="none" d="M214 180L418 180"/><path fill="none" d="M214 190L418 190"/><path fill="none" d="M214 200L418 200"/><path fill="none" d="M214 210L418 210"/></g><g class="vf-stavebarline" id="vf-auto2051"/><g class="vf-stavebarline" id="vf-auto2052"><rect x="418" y="169.5" width="1" height="41" stroke="none"/></g><g class="vf-stavenote" id="vf-n0"><path stroke-width="1.4" fill="none" stroke="#444" d="M247.146 100L265.136 100"/><g class="vf-stem" id="vf-auto1994" pointer-events="bounding-box"><path stroke-width="1.5" fill="none" d="M261.386 98.5L261.386 50"/></g><g class="vf-notehead" id="vf-auto1997" pointer-events="bounding-box"><path stroke="none" d="M257.25 94.889C257.334 94.889,257.418 94.889,257.559 94.889C257.924 94.889,258.457 94.918,258.654 94.946C260.984 95.283,262.136 96.827,262.136 98.624C262.136 100.534,260.844 102.724,258.261 104.128C256.997 104.802,255.705 105.111,254.526 105.111C252.364 105.111,250.595 104.044,250.23 102.162C250.174 101.881,250.146 101.629,250.146 101.376C250.146 98.343,253.403 95.283,257.25 94.889M260.395 96.35C260.254 96.293,260.114 96.293,259.945 96.293C258.233 96.293,254.723 98.371,252.757 100.674C251.915 101.657,251.465 102.527,251.465 103.061C251.465 103.313,251.55 103.482,251.718 103.566C251.887 103.678,252.111 103.707,252.336 103.707C254.161 103.707,257.952 101.376,259.833 98.961C260.507 98.119,260.844 97.417,260.844 96.967C260.844 96.658,260.676 96.434,260.395 96.35"/><g class="vf-annotation" id="vf-auto2020"><text stroke="none" font-family="Roboto Slab" font-size="12pt" x="235" y="124.781">hand,</text></g></g><g class="vf-notehead" id="vf-auto1998" pointer-events="bounding-box"><path stroke="none" d="M257.25 79.889C257.334 79.889,257.418 79.889,257.559 79.889C257.924 79.889,258.457 79.918,258.654 79.946C260.984 80.283,262.136 81.827,262.136 83.624C262.136 85.534,260.844 87.724,258.261 89.128C256.997 89.802,255.705 90.111,254.526 90.111C252.364 90.111,250.595 89.044,250.23 87.162C250.174 86.881,250.146 86.629,250.146 86.376C250.146 83.343,253.403 80.283,257.25 79.889M260.395 81.35C260.254 81.293,260.114 81.293,259.945 81.293C258.233 81.293,254.723 83.371,252.757 85.674C251.915 86.657,251.465 87.527,251.465 88.061C251.465 88.313,251.55 88.482,251.718 88.566C251.887 88.678,252.111 88.707,252.336 88.707C254.161 88.707,257.952 86.376,259.833 83.961C260.507 83.119,260.844 82.417,260.844 81.967C260.844 81.658,260.676 81.434,260.395 81.35"/><g class="vf-annotation" id="vf-auto2023"><text stroke="none" font-family="Roboto Slab" font-size="12pt" x="235.578" y="142.383">pears</text></g></g></g><g class="vf-stavenote" id="vf-n1"><path stroke-width="1.4" fill="none" stroke="#444" d="M341.708 100L359.699 100"/><g class="vf-notehead" id="vf-auto2004" pointer-events="bounding-box"><path stroke="none" d="M351.813 94.889C351.897 94.889,351.981 94.889,352.122 94.889C352.487 94.889,353.02 94.918,353.217 94.946C355.547 95.283,356.699 96.827,356.699 98.624C356.699 100.534,355.407 102.724,352.824 104.128C351.56 104.802,350.268 105.111,349.089 105.111C346.927 105.111,345.158 104.044,344.793 102.162C344.736 101.881,344.708 101.629,344.708 101.376C344.708 98.343,347.966 95.283,351.813 94.889"/><g class="vf-annotation" id="vf-auto2021"><text stroke="none" font-family="Roboto Slab" font-size="12pt" x="336.278" y="122.516">and</text></g></g><g class="vf-notehead" id="vf-auto2005" pointer-events="bounding-box"><path stroke="none" d="M351.813 69.889C351.897 69.889,351.981 69.889,352.122 69.889C352.487 69.889,353.02 69.918,353.217 69.946C355.547 70.283,356.699 71.827,356.699 73.624C356.699 75.534,355.407 77.724,352.824 79.128C351.56 79.802,350.268 80.111,349.089 80.111C346.927 80.111,345.158 79.044,344.793 77.162C344.736 76.881,344.708 76.629,344.708 76.376C344.708 73.343,347.966 70.283,351.813 69.889"/><g class="vf-annotation" id="vf-auto2024"><text stroke="none" font-family="Roboto Slab" font-size="12pt" x="334.836" y="137.031">lead</text></g></g></g><g class="vf-stavenote" id="vf-n2"><path stroke-width="1.4" fill="none" stroke="#444" d="M373.435 100L391.425 100"/><g class="vf-notehead" id="vf-auto2012" pointer-events="bounding-box"><path stroke="none" d="M383.539 94.889C383.623 94.889,383.708 94.889,383.848 94.889C384.213 94.889,384.747 94.918,384.943 94.946C387.274 95.283,388.425 96.827,388.425 98.624C388.425 100.534,387.133 102.724,384.55 104.128C383.286 104.802,381.995 105.111,380.815 105.111C378.653 105.111,376.884 104.044,376.519 102.162C376.463 101.881,376.435 101.629,376.435 101.376C376.435 98.343,379.692 95.283,383.539 94.889"/><g class="vf-annotation" id="vf-auto2022"><text stroke="none" font-family="Roboto Slab" font-size="12pt" x="370.571" y="122.516">me</text></g></g><g class="vf-notehead" id="vf-auto2013" pointer-events="bounding-box"><path stroke="none" d="M383.539 69.889C383.623 69.889,383.708 69.889,383.848 69.889C384.213 69.889,384.747 69.918,384.943 69.946C387.274 70.283,388.425 71.827,388.425 73.624C388.425 75.534,387.133 77.724,384.55 79.128C383.286 79.802,381.995 80.111,380.815 80.111C378.653 80.111,376.884 79.044,376.519 77.162C376.463 76.881,376.435 76.629,376.435 76.376C376.435 73.343,379.692 70.283,383.539 69.889"/><g class="vf-annotation" id="vf-auto2025"><text stroke="none" font-family="Roboto Slab" font-size="12pt" x="370.305" y="137.031">the</text></g></g></g><g class="vf-stavenote" id="vf-auto2026"><g class="vf-stem" id="vf-auto2027" pointer-events="bounding-box"><path stroke-width="1.5" fill="none" d="M261.386 203.5L261.386 145"/></g><g class="vf-notehead" id="vf-auto2030" pointer-events="bounding-box"><path stroke="none" d="M257.25 199.889C257.334 199.889,257.418 199.889,257.559 199.889C257.924 199.889,258.457 199.918,258.654 199.946C260.984 200.283,262.136 201.827,262.136 203.624C262.136 205.534,260.844 207.724,258.261 209.128C256.997 209.802,255.705 210.111,254.526 210.111C252.364 210.111,250.595 209.044,250.23 207.162C250.174 206.881,250.146 206.629,250.146 206.376C250.146 203.343,253.403 200.283,257.25 199.889M260.395 201.35C260.254 201.293,260.114 201.293,259.945 201.293C258.233 201.293,254.723 203.371,252.757 205.674C251.915 206.657,251.465 207.527,251.465 208.061C251.465 208.313,251.55 208.482,251.718 208.566C251.887 208.678,252.111 208.707,252.336 208.707C254.161 208.707,257.952 206.376,259.833 203.961C260.507 203.119,260.844 202.417,260.844 201.967C260.844 201.658,260.676 201.434,260.395 201.35"/></g><g class="vf-notehead" id="vf-auto2031" pointer-events="bounding-box"><path stroke="none" d="M257.25 174.889C257.334 174.889,257.418 174.889,257.559 174.889C257.924 174.889,258.457 174.918,258.654 174.946C260.984 175.283,262.136 176.827,262.136 178.624C262.136 180.534,260.844 182.724,258.261 184.128C256.997 184.802,255.705 185.111,254.526 185.111C252.364 185.111,250.595 184.044,250.23 182.162C250.174 181.881,250.146 181.629,250.146 181.376C250.146 178.343,253.403 175.283,257.25 174.889M260.395 176.35C260.254 176.293,260.114 176.293,259.945 176.293C258.233 176.293,254.723 178.371,252.757 180.674C251.915 181.657,251.465 182.527,251.465 183.061C251.465 183.313,251.55 183.482,251.718 183.566C251.887 183.678,252.111 183.707,252.336 183.707C254.161 183.707,257.952 181.376,259.833 178.961C260.507 178.119,260.844 177.417,260.844 176.967C260.844 176.658,260.676 176.434,260.395 176.35"/></g></g><g class="vf-stavenote" id="vf-auto2032"><g class="vf-notehead" id="vf-auto2038" pointer-events="bounding-box"><path stroke="none" d="M351.813 199.889C351.897 199.889,351.981 199.889,352.122 199.889C352.487 199.889,353.02 199.918,353.217 199.946C355.547 200.283,356.699 201.827,356.699 203.624C356.699 205.534,355.407 207.724,352.824 209.128C351.56 209.802,350.268 210.111,349.089 210.111C346.927 210.111,345.158 209.044,344.793 207.162C344.736 206.881,344.708 206.629,344.708 206.376C344.708 203.343,347.966 200.283,351.813 199.889"/></g><g class="vf-notehead" id="vf-auto2037" pointer-events="bounding-box"><path stroke="none" d="M351.813 164.889C351.897 164.889,351.981 164.889,352.122 164.889C352.487 164.889,353.02 164.918,353.217 164.946C355.547 165.283,356.699 166.827,356.699 168.624C356.699 170.534,355.407 172.724,352.824 174.128C351.56 174.802,350.268 175.111,349.089 175.111C346.927 175.111,345.158 174.044,344.793 172.162C344.736 171.881,344.708 171.629,344.708 171.376C344.708 168.343,347.966 165.283,351.813 164.889"/></g></g><g class="vf-stavenote" id="vf-auto2040"><g class="vf-notehead" id="vf-auto2046" pointer-events="bounding-box"><path stroke="none" d="M383.539 199.889C383.623 199.889,383.708 199.889,383.848 199.889C384.213 199.889,384.747 199.918,384.943 199.946C387.274 200.283,388.425 201.827,388.425 203.624C388.425 205.534,387.133 207.724,384.55 209.128C383.286 209.802,381.995 210.111,380.815 210.111C378.653 210.111,376.884 209.044,376.519 207.162C376.463 206.881,376.435 206.629,376.435 206.376C376.435 203.343,379.692 200.283,383.539 199.889"/></g><g class="vf-notehead" id="vf-auto2045" pointer-events="bounding-box"><path stroke="none" d="M383.539 164.889C383.623 164.889,383.708 164.889,383.848 164.889C384.213 164.889,384.747 164.918,384.943 164.946C387.274 165.283,388.425 166.827,388.425 168.624C388.425 170.534,387.133 172.724,384.55 174.128C383.286 174.802,381.995 175.111,380.815 175.111C378.653 175.111,376.884 174.044,376.519 172.162C376.463 171.881,376.435 171.629,376.435 171.376C376.435 168.343,379.692 165.283,383.539 164.889"/></g></g><g class="vf-stem" id="vf-auto2000" pointer-events="bounding-box"><path stroke-width="1.5" fill="none" d="M355.949 98.5L355.949 40.75"/></g><g class="vf-stem" id="vf-auto2008" pointer-events="bounding-box"><path stroke-width="1.5" fill="none" d="M387.675 98.5L387.675 40.75"/></g><g class="vf-beam" id="vf-auto2015"><path stroke="none" d="M355.199 40L355.199 45L387.925 45L387.925 40Z"/></g><g class="vf-stem" id="vf-auto2033" pointer-events="bounding-box"><path stroke-width="1.5" fill="none" d="M345.458 171.5L345.458 239.25"/></g><g class="vf-stem" id="vf-auto2041" pointer-events="bounding-box"><path stroke-width="1.5" fill="none" d="M377.185 171.5L377.185 239.25"/></g><g class="vf-beam" id="vf-auto2048"><path stroke="none" d="M344.708 240L344.708 235L377.435 235L377.435 240Z"/></g><g class="vf-stave" id="vf-auto2078" stroke-width="1" fill="#999999" stroke="#999999"><path fill="none" d="M452 50L690 50"/><path fill="none" d="M452 60L690 60"/><path fill="none" d="M452 70L690 70"/><path fill="none" d="M452 80L690 80"/><path fill="none" d="M452 90L690 90"/></g><g class="vf-stavebarline" id="vf-auto2079"/><g class="vf-stavebarline" id="vf-auto2080"><rect x="690" y="49.5" width="1" height="41" stroke="none"/></g><g class="vf-stave" id="vf-auto2111" stroke-width="1" fill="#999999" stroke="#999999"><path fill="none" d="M452 170L690 170"/><path fill="none" d="M452 180L690 180"/><path fill="none" d="M452 190L690 190"/><path fill="none" d="M452 200L690 200"/><path fill="none" d="M452 210L690 210"/></g><g class="vf-stavebarline" id="vf-auto2112"/><g class="vf-stavebarline" id="vf-auto2113"><rect x="690" y="169.5" width="1" height="41" stroke="none"/></g><g class="vf-stavenote" id="vf-n0"><path stroke-width="1.4" fill="none" stroke="#444" d="M488.669 100L506.659 100"/><g class="vf-stem" id="vf-auto2055" pointer-events="bounding-box"><path stroke-width="1.5" fill="none" d="M502.909 98.5L502.909 50"/></g><g class="vf-notehead" id="vf-auto2058" pointer-events="bounding-box"><path stroke="none" d="M498.773 94.889C498.857 94.889,498.942 94.889,499.082 94.889C499.447 94.889,499.981 94.918,500.177 94.946C502.508 95.283,503.659 96.827,503.659 98.624C503.659 100.534,502.367 102.724,499.784 104.128C498.521 104.802,497.229 105.111,496.049 105.111C493.887 105.111,492.118 104.044,491.753 102.162C491.697 101.881,491.669 101.629,491.669 101.376C491.669 98.343,494.926 95.283,498.773 94.889M501.918 96.35C501.778 96.293,501.637 96.293,501.469 96.293C499.756 96.293,496.246 98.371,494.28 100.674C493.438 101.657,492.989 102.527,492.989 103.061C492.989 103.313,493.073 103.482,493.241 103.566C493.41 103.678,493.635 103.707,493.859 103.707C495.684 103.707,499.475 101.376,501.357 98.961C502.031 98.119,502.367 97.417,502.367 96.967C502.367 96.658,502.199 96.434,501.918 96.35"/><g class="vf-annotation" id="vf-auto2081"><text stroke="none" font-family="Roboto Slab" font-size="14pt" x="473" y="127.245">hand,</text></g></g><g class="vf-notehead" id="vf-auto2059" pointer-events="bounding-box"><path stroke="none" d="M498.773 79.889C498.857 79.889,498.942 79.889,499.082 79.889C499.447 79.889,499.981 79.918,500.177 79.946C502.508 80.283,503.659 81.827,503.659 83.624C503.659 85.534,502.367 87.724,499.784 89.128C498.521 89.802,497.229 90.111,496.049 90.111C493.887 90.111,492.118 89.044,491.753 87.162C491.697 86.881,491.669 86.629,491.669 86.376C491.669 83.343,494.926 80.283,498.773 79.889M501.918 81.35C501.778 81.293,501.637 81.293,501.469 81.293C499.756 81.293,496.246 83.371,494.28 85.674C493.438 86.657,492.989 87.527,492.989 88.061C492.989 88.313,493.073 88.482,493.241 88.566C493.41 88.678,493.635 88.707,493.859 88.707C495.684 88.707,499.475 86.376,501.357 83.961C502.031 83.119,502.367 82.417,502.367 81.967C502.367 81.658,502.199 81.434,501.918 81.35"/><g class="vf-annotation" id="vf-auto2084"><text stroke="none" font-family="Roboto Slab" font-size="14pt" x="473.674" y="147.447">pears</text></g></g></g><g class="vf-stavenote" id="vf-n1"><path stroke-width="1.4" fill="none" stroke="#444" d="M604.586 100L622.576 100"/><g class="vf-notehead" id="vf-auto2065" pointer-events="bounding-box"><path stroke="none" d="M614.69 94.889C614.774 94.889,614.858 94.889,614.999 94.889C615.364 94.889,615.897 94.918,616.094 94.946C618.425 95.283,619.576 96.827,619.576 98.624C619.576 100.534,618.284 102.724,615.701 104.128C614.437 104.802,613.145 105.111,611.966 105.111C609.804 105.111,608.035 104.044,607.67 102.162C607.614 101.881,607.586 101.629,607.586 101.376C607.586 98.343,610.843 95.283,614.69 94.889"/><g class="vf-annotation" id="vf-auto2082"><text stroke="none" font-family="Roboto Slab" font-size="14pt" x="596.751" y="124.602">and</text></g></g><g class="vf-notehead" id="vf-auto2066" pointer-events="bounding-box"><path stroke="none" d="M614.69 69.889C614.774 69.889,614.858 69.889,614.999 69.889C615.364 69.889,615.897 69.918,616.094 69.946C618.425 70.283,619.576 71.827,619.576 73.624C619.576 75.534,618.284 77.724,615.701 79.128C614.437 79.802,613.145 80.111,611.966 80.111C609.804 80.111,608.035 79.044,607.67 77.162C607.614 76.881,607.586 76.629,607.586 76.376C607.586 73.343,610.843 70.283,614.69 69.889"/><g class="vf-annotation" id="vf-auto2085"><text stroke="none" font-family="Roboto Slab" font-size="14pt" x="595.069" y="141.203">lead</text></g></g></g><g class="vf-stavenote" id="vf-n2"><path stroke-width="1.4" fill="none" stroke="#444" d="M641.242 100L659.232 100"/><g class="vf-notehead" id="vf-auto2073" pointer-events="bounding-box"><path stroke="none" d="M651.346 94.889C651.43 94.889,651.514 94.889,651.655 94.889C652.02 94.889,652.553 94.918,652.75 94.946C655.081 95.283,656.232 96.827,656.232 98.624C656.232 100.534,654.94 102.724,652.357 104.128C651.093 104.802,649.802 105.111,648.622 105.111C646.46 105.111,644.691 104.044,644.326 102.162C644.27 101.881,644.242 101.629,644.242 101.376C644.242 98.343,647.499 95.283,651.346 94.889"/><g class="vf-annotation" id="vf-auto2083"><text stroke="none" font-family="Roboto Slab" font-size="14pt" x="636.401" y="124.602">me</text></g></g><g class="vf-notehead" id="vf-auto2074" pointer-events="bounding-box"><path stroke="none" d="M651.346 69.889C651.43 69.889,651.514 69.889,651.655 69.889C652.02 69.889,652.553 69.918,652.75 69.946C655.081 70.283,656.232 71.827,656.232 73.624C656.232 75.534,654.94 77.724,652.357 79.128C651.093 79.802,649.802 80.111,648.622 80.111C646.46 80.111,644.691 79.044,644.326 77.162C644.27 76.881,644.242 76.629,644.242 76.376C644.242 73.343,647.499 70.283,651.346 69.889"/><g class="vf-annotation" id="vf-auto2086"><text stroke="none" font-family="Roboto Slab" font-size="14pt" x="636.091" y="141.203">the</text></g></g></g><g class="vf-stavenote" id="vf-auto2087"><g class="vf-stem" id="vf-auto2088" pointer-events="bounding-box"><path stroke-width="1.5" fill="none" d="M502.909 203.5L502.909 145"/></g><g class="vf-notehead" id="vf-auto2091" pointer-events="bounding-box"><path stroke="none" d="M498.773 199.889C498.857 199.889,498.942 199.889,499.082 199.889C499.447 199.889,499.981 199.918,500.177 199.946C502.508 200.283,503.659 201.827,503.659 203.624C503.659 205.534,502.367 207.724,499.784 209.128C498.521 209.802,497.229 210.111,496.049 210.111C493.887 210.111,492.118 209.044,491.753 207.162C491.697 206.881,491.669 206.629,491.669 206.376C491.669 203.343,494.926 200.283,498.773 199.889M501.918 201.35C501.778 201.293,501.637 201.293,501.469 201.293C499.756 201.293,496.246 203.371,494.28 205.674C493.438 206.657,492.989 207.527,492.989 208.061C492.989 208.313,493.073 208.482,493.241 208.566C493.41 208.678,493.635 208.707,493.859 208.707C495.684 208.707,499.475 206.376,501.357 203.961C502.031 203.119,502.367 202.417,502.367 201.967C502.367 201.658,502.199 201.434,501.918 201.35"/></g><g class="vf-notehead" id="vf-auto2092" pointer-events="bounding-box"><path stroke="none" d="M498.773 174.889C498.857 174.889,498.942 174.889,499.082 174.889C499.447 174.889,499.981 174.918,500.177 174.946C502.508 175.283,503.659 176.827,503.659 178.624C503.659 180.534,502.367 182.724,499.784 184.128C498.521 184.802,497.229 185.111,496.049 185.111C493.887 185.111,492.118 184.044,491.753 182.162C491.697 181.881,491.669 181.629,491.669 181.376C491.669 178.343,494.926 175.283,498.773 174.889M501.918 176.35C501.778 176.293,501.637 176.293,501.469 176.293C499.756 176.293,496.246 178.371,494.28 180.674C493.438 181.657,492.989 182.527,492.989 183.061C492.989 183.313,493.073 183.482,493.241 183.566C493.41 183.678,493.635 183.707,493.859 183.707C495.684 183.707,499.475 181.376,501.357 178.961C502.031 178.119,502.367 177.417,502.367 176.967C502.367 176.658,502.199 176.434,501.918 176.35"/></g></g><g class="vf-stavenote" id="vf-auto2093"><g class="vf-notehead" id="vf-auto2099" pointer-events="bounding-box"><path stroke="none" d="M614.69 199.889C614.774 199.889,614.858 199.889,614.999 199.889C615.364 199.889,615.897 199.918,616.094 199.946C618.425 200.283,619.576 201.827,619.576 203.624C619.576 205.534,618.284 207.724,615.701 209.128C614.437 209.802,613.145 210.111,611.966 210.111C609.804 210.111,608.035 209.044,607.67 207.162C607.614 206.881,607.586 206.629,607.586 206.376C607.586 203.343,610.843 200.283,614.69 199.889"/></g><g class="vf-notehead" id="vf-auto2098" pointer-events="bounding-box"><path stroke="none" d="M614.69 164.889C614.774 164.889,614.858 164.889,614.999 164.889C615.364 164.889,615.897 164.918,616.094 164.946C618.425 165.283,619.576 166.827,619.576 168.624C619.576 170.534,618.284 172.724,615.701 174.128C614.437 174.802,613.145 175.111,611.966 175.111C609.804 175.111,608.035 174.044,607.67 172.162C607.614 171.881,607.586 171.629,607.586 171.376C607.586 168.343,610.843 165.283,614.69 164.889"/></g></g><g class="vf-stavenote" id="vf-auto2101"><g class="vf-notehead" id="vf-auto2107" pointer-events="bounding-box"><path stroke="none" d="M651.346 199.889C651.43 199.889,651.514 199.889,651.655 199.889C652.02 199.889,652.553 199.918,652.75 199.946C655.081 200.283,656.232 201.827,656.232 203.624C656.232 205.534,654.94 207.724,652.357 209.128C651.093 209.802,649.802 210.111,648.622 210.111C646.46 210.111,644.691 209.044,644.326 207.162C644.27 206.881,644.242 206.629,644.242 206.376C644.242 203.343,647.499 200.283,651.346 199.889"/></g><g class="vf-notehead" id="vf-auto2106" pointer-events="bounding-box"><path stroke="none" d="M651.346 164.889C651.43 164.889,651.514 164.889,651.655 164.889C652.02 164.889,652.553 164.918,652.75 164.946C655.081 165.283,656.232 166.827,656.232 168.624C656.232 170.534,654.94 172.724,652.357 174.128C651.093 174.802,649.802 175.111,648.622 175.111C646.46 175.111,644.691 174.044,644.326 172.162C644.27 171.881,644.242 171.629,644.242 171.376C644.242 168.343,647.499 165.283,651.346 164.889"/></g></g><g class="vf-stem" id="vf-auto2061" pointer-events="bounding-box"><path stroke-width="1.5" fill="none" d="M618.826 98.5L618.826 40.75"/></g><g class="vf-stem" id="vf-auto2069" pointer-events="bounding-box"><path stroke-width="1.5" fill="none" d="M655.482 98.5L655.482 40.75"/></g><g class="vf-beam" id="vf-auto2076"><path stroke="none" d="M618.076 40L618.076 45L655.732 45L655.732 40Z"/></g><g class="vf-stem" id="vf-auto2094" pointer-events="bounding-box"><path stroke-width="1.5" fill="none" d="M608.336 171.5L608.336 239.25"/></g><g class="vf-stem" id="vf-auto2102" pointer-events="bounding-box"><path stroke-width="1.5" fill="none" d="M644.992 171.5L644.992 239.25"/></g><g class="vf-beam" id="vf-auto2109"><path stroke="none" d="M607.586 240L607.586 235L645.242 235L645.242 240Z"/></g></svg>