<svg xmlns="http://www.w3.org/2000/svg" stroke-width="0.3" stroke-dasharray="none" fill="black" stroke="black" font-family="Arial, sans-serif" font-size="10pt" font-weight="normal" font-style="normal" width="750" height="300" viewBox="0 0 750 300" style="width: 750px; height: 300px; border: none;"><g class="vf-stave" id="vf-auto1339" stroke-width="1" fill="#999999" stroke="#999999"><path fill="none" d="M10 90L760 90"/><path fill="none" d="M10 100L760 100"/><path fill="none" d="M10 110L760 110"/><path fill="none" d="M10 120L760 120"/><path fill="none" d="M10 130L760 130"/></g><g class="vf-stavebarline" id="vf-auto1340"><rect x="10" y="89.5" width="1" height="41" stroke="none"/></g><g class="vf-stavebarline" id="vf-auto1341"><rect x="760" y="89.5" width="1" height="41" stroke="none"/></g><g class="vf-clef" id="vf-auto1342"><path stroke="none" d="M23.693 141.402C23.87 141.402,24.048 141.377,24.276 141.301C24.707 141.148,25.062 140.92,25.366 140.591C28.382 137.423,29.623 133.596,29.75 129.313C29.75 128.983,29.776 128.451,29.776 128.451C29.776 128.451,30.282 128.147,30.511 128.071C31.727 127.488,32.893 126.829,33.932 125.993C36.72 123.762,38.316 120.747,39.051 117.376C39.204 116.844,39.229 116.286,39.229 115.779C39.229 113.473,37.962 111.8,35.047 111.268C34.312 111.116,33.577 111.04,32.842 111.04C31.017 111.04,29.269 111.521,27.621 112.484C27.419 112.611,27.19 112.763,27.19 112.763L26.253 109.215C26.202 109.038,26.202 108.708,26.202 108.708C26.202 108.708,29.928 102.093,30.434 98.697C30.612 97.709,30.688 96.72,30.688 95.757C30.688 94.972,30.663 94.237,30.536 93.527C30.181 90.891,29.193 88.408,28.534 85.848C28.356 85.088,28.103 84.175,27.216 84.175C26.557 84.175,26.101 84.809,25.695 85.341C23.82 87.926,22.907 90.891,22.73 94.059C22.705 94.566,22.705 95.098,22.705 95.605C22.705 98.545,23.186 101.51,23.566 104.425C23.566 104.653,23.642 104.881,23.693 105.059C22.046 107.39,20.221 109.57,18.65 111.978C17.56 113.701,16.343 115.424,15.583 117.35C15.177 118.288,15 119.403,15 120.493C15 122.749,15.76 125.055,17.078 126.322C17.839 127.057,19.055 127.868,20.246 128.299C21.944 128.907,23.617 129.313,25.391 129.313C25.923 129.313,26.455 129.287,27.013 129.211L27.444 129.135C27.444 129.135,27.469 129.465,27.444 129.642C27.038 131.847,26.506 134.001,25.188 135.826C24.479 136.764,23.82 137.828,22.451 137.93C22.046 137.98,21.868 138.234,21.868 138.563C21.868 138.69,21.894 138.817,21.944 138.944C22.147 139.501,22.4 140.084,22.654 140.642C22.882 141.148,23.237 141.402,23.693 141.402M25.138 102.828C24.859 101.08,24.681 99.356,24.681 97.633C24.681 94.465,25.34 91.373,27.19 88.408C27.621 89.751,27.849 91.119,27.849 92.488C27.849 93.198,27.773 93.933,27.672 94.642C27.19 97.506,26.532 100.269,25.138 102.828M21.387 124.421C20.88 124.396,20.449 124.219,19.967 124.067C19.004 123.737,18.219 123.382,17.965 122.749C17.839 122.47,17.813 122.14,17.813 121.811C17.813 121.406,17.889 120.975,17.965 120.518C17.991 120.316,18.219 119.682,18.295 119.581C19.714 117.046,21.412 114.765,23.211 112.459L24.732 110.457L25.011 111.268C25.29 112.18,25.543 113.625,25.543 113.625C25.543 113.625,24.529 114.943,23.87 115.602C22.046 117.376,21.159 119.606,21.159 122.064C21.159 122.673,21.235 123.306,21.361 123.965C21.387 124.092,21.387 124.219,21.387 124.421M29.269 123.306C28.99 120.924,28.432 119.023,27.925 116.742C27.875 116.463,27.875 116.286,28.001 116.134C28.939 115.957,29.852 115.881,30.815 115.881C31.727 115.881,32.589 115.957,33.501 116.134C34.591 116.362,35.681 116.539,36.542 117.426C36.593 117.503,36.669 117.579,36.745 117.604C35.301 120.518,33.146 122.723,30.08 124.067L29.421 124.32M25.391 125.055C24.124 125.055,22.882 124.726,22.882 124.726C22.882 124.726,22.781 124.219,22.781 123.484C22.781 123.002,22.806 122.419,22.958 121.836C23.313 120.088,24.555 118.846,25.873 117.68C25.974 117.579,26.101 117.503,26.177 117.503C26.303 117.503,26.354 117.655,26.379 117.908C26.709 120.062,27.266 122.166,27.419 124.32C27.444 124.548,27.419 124.878,27.419 124.878C27.419 124.878,26.455 125.131,25.391 125.055"/></g><g class="vf-stavenote" id="vf-auto1343"><g class="vf-stem" id="vf-auto1344" pointer-events="bounding-box"><path stroke-width="1.5" fill="none" d="M58.414 132L58.414 165"/></g><g class="vf-notehead" id="vf-auto1346" pointer-events="bounding-box"><path stroke="none" d="M60.809 136.543C61.089 136.599,61.342 136.627,61.623 136.627C65.498 136.627,71.283 131.348,71.17 127.08C71.058 126.041,71.086 124.609,68.98 123.766C68.39 123.485,67.744 123.373,67.042 123.373C62.718 123.373,58.029 128.343,57.692 131.657C57.692 131.909,57.664 132.134,57.664 132.387C57.664 134.409,58.562 136.037,60.809 136.543"/><path stroke="none" d="M62.886 117.244C62.913 117.244,62.913 117.244,62.968 117.216C63.788 117.079,64.582 117.079,65.403 116.997C65.84 116.97,66.114 116.642,66.114 116.313C66.196 115.657,66.306 115,66.306 114.289C66.306 114.097,66.306 113.906,66.278 113.687C66.196 113.057,65.95 112.756,65.485 112.756C65.375 112.756,65.239 112.756,65.129 112.784C64.582 112.866,63.98 112.948,63.433 113.057C63.077 113.14,62.694 113.304,62.639 113.741C62.557 114.754,62.53 115.793,62.53 116.806C62.53 116.997,62.557 117.244,62.886 117.244"/><path stroke="none" d="M58.896 106.108C59.415 106.108,60.045 106.081,60.537 106.081C62.48 106.081,64.395 105.944,66.337 105.944C66.967 105.944,67.705 105.944,68.335 105.999C69.046 106.026,69.757 106.108,70.359 106.108C71.235 106.108,72.138 106.026,72.959 105.834C73.26 105.78,73.697 105.834,73.697 105.369C73.752 104.877,73.533 104.658,73.041 104.494C71.727 104.111,70.469 104.111,69.128 104.056C66.803 103.974,64.477 103.892,62.124 103.892C61.221 103.892,60.428 103.947,59.525 103.947L56.132 103.947C55.804 103.974,55.339 103.782,55.175 104.166C55.065 104.576,55.393 104.932,55.667 105.233C55.859 105.451,56.132 105.561,56.378 105.67C57.227 106.026,58.102 106.108,58.896 106.108"/><g class="vf-annotation" id="vf-auto1353"><text stroke="none" font-family="Times New Roman, serif" x="57.751" y="80">v1</text></g><g class="vf-annotation" id="vf-auto1354"><text stroke="none" font-family="Times New Roman, serif" x="57.751" y="68.605">v2</text></g></g></g><g class="vf-stavenote" id="vf-auto1355"><g class="vf-stem" id="vf-auto1356" pointer-events="bounding-box"><path stroke-width="1.5" fill="none" d="M116.764 112L116.764 145"/></g><g class="vf-notehead" id="vf-auto1358" pointer-events="bounding-box"><path stroke="none" d="M119.159 116.543C119.44 116.599,119.692 116.627,119.973 116.627C123.848 116.627,129.633 111.348,129.52 107.08C129.408 106.041,129.436 104.609,127.33 103.766C126.74 103.485,126.095 103.373,125.393 103.373C121.068 103.373,116.379 108.343,116.042 111.657C116.042 111.909,116.014 112.134,116.014 112.387C116.014 114.409,116.912 116.037,119.159 116.543"/><path stroke="none" d="M121.236 97.244C121.263 97.244,121.263 97.244,121.318 97.216C122.139 97.079,122.932 97.079,123.753 96.997C124.191 96.97,124.464 96.642,124.464 96.313C124.546 95.657,124.656 95,124.656 94.289C124.656 94.097,124.656 93.906,124.628 93.687C124.546 93.057,124.3 92.756,123.835 92.756C123.726 92.756,123.589 92.756,123.479 92.784C122.932 92.866,122.33 92.948,121.783 93.057C121.427 93.14,121.044 93.304,120.99 93.741C120.907 94.754,120.88 95.793,120.88 96.806C120.88 96.997,120.907 97.244,121.236 97.244"/><path stroke="none" d="M117.246 85C117.766 85,118.395 84.973,118.887 84.973C120.83 84.973,122.745 84.836,124.688 84.836C125.317 84.836,126.056 84.836,126.685 84.891C127.396 84.918,128.108 85,128.71 85C129.585 85,130.488 84.918,131.309 84.726C131.61 84.672,132.048 84.726,132.048 84.261C132.102 83.769,131.883 83.55,131.391 83.386C130.078 83.003,128.819 83.003,127.478 82.948C125.153 82.866,122.827 82.784,120.474 82.784C119.571 82.784,118.778 82.839,117.875 82.839L114.482 82.839C114.154 82.866,113.689 82.674,113.525 83.057C113.415 83.468,113.744 83.824,114.017 84.124C114.209 84.343,114.482 84.453,114.729 84.562C115.577 84.918,116.452 85,117.246 85"/><g class="vf-annotation" id="vf-auto1365"><text stroke="none" font-family="Times New Roman, serif" x="116.101" y="80">v1</text></g><g class="vf-annotation" id="vf-auto1366"><text stroke="none" font-family="Times New Roman, serif" x="116.101" y="68.605">v2</text></g></g></g><g class="vf-stavenote" id="vf-auto1367"><g class="vf-stem" id="vf-auto1368" pointer-events="bounding-box"><path stroke-width="1.5" fill="none" d="M175.114 107L175.114 140"/></g><g class="vf-notehead" id="vf-auto1370" pointer-events="bounding-box"><path stroke="none" d="M177.509 111.543C177.79 111.599,178.043 111.627,178.323 111.627C182.198 111.627,187.983 106.348,187.871 102.08C187.758 101.041,187.786 99.609,185.68 98.766C185.091 98.485,184.445 98.373,183.743 98.373C179.419 98.373,174.729 103.343,174.392 106.657C174.392 106.909,174.364 107.134,174.364 107.387C174.364 109.409,175.263 111.037,177.509 111.543"/><path stroke="none" d="M179.586 97.244C179.613 97.244,179.613 97.244,179.668 97.216C180.489 97.079,181.282 97.079,182.103 96.997C182.541 96.97,182.814 96.642,182.814 96.313C182.897 95.657,183.006 95,183.006 94.289C183.006 94.097,183.006 93.906,182.979 93.687C182.897 93.057,182.65 92.756,182.185 92.756C182.076 92.756,181.939 92.756,181.83 92.784C181.282 92.866,180.68 92.948,180.133 93.057C179.778 93.14,179.394 93.304,179.34 93.741C179.258 94.754,179.23 95.793,179.23 96.806C179.23 96.997,179.258 97.244,179.586 97.244"/><path stroke="none" d="M175.596 85C176.116 85,176.745 84.973,177.238 84.973C179.18 84.973,181.095 84.836,183.038 84.836C183.667 84.836,184.406 84.836,185.035 84.891C185.747 84.918,186.458 85,187.06 85C187.935 85,188.838 84.918,189.659 84.726C189.96 84.672,190.398 84.726,190.398 84.261C190.452 83.769,190.234 83.55,189.741 83.386C188.428 83.003,187.169 83.003,185.829 82.948C183.503 82.866,181.177 82.784,178.824 82.784C177.922 82.784,177.128 82.839,176.225 82.839L172.833 82.839C172.504 82.866,172.039 82.674,171.875 83.057C171.766 83.468,172.094 83.824,172.367 84.124C172.559 84.343,172.833 84.453,173.079 84.562C173.927 84.918,174.803 85,175.596 85"/><g class="vf-annotation" id="vf-auto1377"><text stroke="none" font-family="Times New Roman, serif" x="174.451" y="75">v1</text></g><g class="vf-annotation" id="vf-auto1378"><text stroke="none" font-family="Times New Roman, serif" x="174.451" y="63.605">v2</text></g></g></g><g class="vf-stavenote" id="vf-auto1379"><g class="vf-stem" id="vf-auto1380" pointer-events="bounding-box"><path stroke-width="1.5" fill="none" d="M245.472 123L245.472 90"/></g><g class="vf-notehead" id="vf-auto1382" pointer-events="bounding-box"><path stroke="none" d="M235.859 131.543C236.14 131.599,236.393 131.627,236.674 131.627C240.549 131.627,246.333 126.348,246.221 122.08C246.108 121.041,246.137 119.609,244.031 118.766C243.441 118.485,242.795 118.373,242.093 118.373C237.769 118.373,233.079 123.343,232.742 126.657C232.742 126.909,232.714 127.134,232.714 127.387C232.714 129.409,233.613 131.037,235.859 131.543"/><g class="vf-annotation" id="vf-auto1383"><text stroke="none" font-family="Times New Roman, serif" font-size="14pt" x="230.135" y="80">v1</text></g><g class="vf-annotation" id="vf-auto1384"><text stroke="none" font-family="Times New Roman, serif" font-size="14pt" x="230.135" y="64.848">v2</text></g></g></g><g class="vf-stavenote" id="vf-auto1385"><g class="vf-stem" id="vf-auto1386" pointer-events="bounding-box"><path stroke-width="1.5" fill="none" d="M291.814 127L291.814 160"/></g><g class="vf-notehead" id="vf-auto1388" pointer-events="bounding-box"><path stroke="none" d="M294.209 131.543C294.49 131.599,294.743 131.627,295.024 131.627C298.899 131.627,304.683 126.348,304.571 122.08C304.459 121.041,304.487 119.609,302.381 118.766C301.791 118.485,301.145 118.373,300.443 118.373C296.119 118.373,291.43 123.343,291.093 126.657C291.093 126.909,291.064 127.134,291.064 127.387C291.064 129.409,291.963 131.037,294.209 131.543"/><path stroke="none" d="M302.866 84.998C303.085 85.025,303.277 84.752,303.414 84.533C303.687 84.123,303.797 83.685,303.797 83.192C303.797 81.25,303.851 79.471,303.851 77.666C303.851 76.407,303.797 75.121,303.715 73.726L303.687 73.698C303.687 73.069,303.578 72.522,303.359 72.166C302.894 71.291,301.991 71.291,301.198 71.099C299.939 70.771,298.653 70.579,297.367 70.579C296.054 70.579,294.741 70.826,293.427 71.373C292.661 71.728,292.059 72.194,291.977 73.014L291.977 73.343C291.977 74.164,291.977 74.957,291.895 75.778C291.786 77.556,291.786 79.362,291.786 81.168C291.786 82.071,291.786 83.001,291.813 83.849C291.813 84.259,291.704 84.889,292.141 84.916C292.579 84.916,292.743 84.341,292.88 83.931C292.935 83.822,292.88 83.657,292.935 83.548C293.099 82.7,293.126 81.934,293.126 81.14C293.126 80.429,293.099 79.745,293.099 79.116C293.099 78.76,293.099 78.432,293.126 78.103L293.126 76.462C293.756 75.942,294.494 75.696,295.342 75.614C296.054 75.532,296.71 75.504,297.422 75.504C298.954 75.504,300.486 75.75,301.964 76.407L302.456 76.599L302.456 78.295C302.511 79.198,302.456 80.183,302.456 81.222C302.456 82.235,302.511 83.302,302.648 84.369C302.702 84.615,302.538 84.971,302.866 84.998"/><path stroke="none" d="M296.286 65C296.314 65,296.314 65,296.368 64.973C297.189 64.836,297.983 64.836,298.804 64.754C299.241 64.726,299.515 64.398,299.515 64.07C299.597 63.413,299.706 62.756,299.706 62.045C299.706 61.854,299.706 61.662,299.679 61.443C299.597 60.814,299.351 60.513,298.886 60.513C298.776 60.513,298.639 60.513,298.53 60.54C297.983 60.622,297.381 60.704,296.834 60.814C296.478 60.896,296.095 61.06,296.04 61.498C295.958 62.51,295.931 63.55,295.931 64.562C295.931 64.754,295.958 65,296.286 65"/><path stroke="none" d="M292.296 55C292.816 55,293.445 54.973,293.938 54.973C295.881 54.973,297.796 54.836,299.738 54.836C300.368 54.836,301.106 54.836,301.736 54.891C302.447 54.918,303.158 55,303.76 55C304.636 55,305.539 54.918,306.359 54.726C306.66 54.672,307.098 54.726,307.098 54.261C307.153 53.769,306.934 53.55,306.441 53.386C305.128 53.003,303.87 53.003,302.529 52.948C300.203 52.866,297.878 52.784,295.525 52.784C294.622 52.784,293.829 52.839,292.926 52.839L289.533 52.839C289.205 52.866,288.74 52.674,288.575 53.057C288.466 53.468,288.794 53.824,289.068 54.124C289.259 54.343,289.533 54.453,289.779 54.562C290.627 54.918,291.503 55,292.296 55"/><g class="vf-annotation" id="vf-auto1398"><text stroke="none" font-family="Times New Roman, serif" x="291.152" y="50">v1</text></g><g class="vf-annotation" id="vf-auto1399"><text stroke="none" font-family="Times New Roman, serif" font-size="20pt" x="284.485" y="38.605">v2</text></g></g></g><g class="vf-stavenote" id="vf-auto1400"><g class="vf-stem" id="vf-auto1401" pointer-events="bounding-box"><path stroke-width="1.5" fill="none" d="M362.173 88L362.173 55"/></g><g class="vf-notehead" id="vf-auto1403" pointer-events="bounding-box"><path stroke="none" d="M352.56 96.543C352.84 96.599,353.093 96.627,353.374 96.627C357.249 96.627,363.033 91.348,362.921 87.08C362.809 86.041,362.837 84.609,360.731 83.766C360.141 83.485,359.495 83.373,358.793 83.373C354.469 83.373,349.78 88.343,349.443 91.657C349.443 91.909,349.415 92.134,349.415 92.387C349.415 94.409,350.313 96.037,352.56 96.543"/><g class="vf-annotation" id="vf-auto1404"><text stroke="none" font-family="Times New Roman, serif" font-size="11pt" x="348.835" y="45">v1</text></g><g class="vf-annotation" id="vf-auto1405"><text stroke="none" font-family="Times New Roman, serif" font-size="11pt" x="348.835" y="32.666">v2</text></g></g></g><g class="vf-stavenote" id="vf-auto1406"><g class="vf-stem" id="vf-auto1407" pointer-events="bounding-box"><path stroke-width="1.5" fill="none" d="M420.523 88L420.523 55"/></g><g class="vf-notehead" id="vf-auto1409" pointer-events="bounding-box"><path stroke="none" d="M410.91 96.543C411.191 96.599,411.443 96.627,411.724 96.627C415.599 96.627,421.384 91.348,421.271 87.08C421.159 86.041,421.187 84.609,419.081 83.766C418.491 83.485,417.846 83.373,417.144 83.373C412.819 83.373,408.13 88.343,407.793 91.657C407.793 91.909,407.765 92.134,407.765 92.387C407.765 94.409,408.663 96.037,410.91 96.543"/><g class="vf-annotation" id="vf-auto1410"><text stroke="none" font-family="Times New Roman, serif" font-size="11pt" x="407.186" y="45">v1</text></g><g class="vf-annotation" id="vf-auto1411"><text stroke="none" font-family="Times New Roman, serif" font-size="20pt" x="401.186" y="32.666">v2</text></g></g></g><g class="vf-stavenote" id="vf-auto1412"><g class="vf-stem" id="vf-auto1413" pointer-events="bounding-box"><path stroke-width="1.5" fill="none" d="M478.873 123L478.873 90"/></g><g class="vf-notehead" id="vf-auto1415" pointer-events="bounding-box"><path stroke="none" d="M469.26 131.543C469.541 131.599,469.794 131.627,470.074 131.627C473.949 131.627,479.734 126.348,479.622 122.08C479.509 121.041,479.537 119.609,477.431 118.766C476.842 118.485,476.196 118.373,475.494 118.373C471.169 118.373,466.48 123.343,466.143 126.657C466.143 126.909,466.115 127.134,466.115 127.387C466.115 129.409,467.014 131.037,469.26 131.543"/><g class="vf-annotation" id="vf-auto1416"><text stroke="none" font-family="Times New Roman, serif" font-size="12pt" x="464.869" y="151.273">v1</text></g><g class="vf-annotation" id="vf-auto1417"><text stroke="none" font-family="Times New Roman, serif" font-size="12pt" x="464.869" y="164.547">v2</text></g></g></g><g class="vf-stavenote" id="vf-auto1418"><g class="vf-stem" id="vf-auto1419" pointer-events="bounding-box"><path stroke-width="1.5" fill="none" d="M537.223 88L537.223 55"/></g><g class="vf-notehead" id="vf-auto1421" pointer-events="bounding-box"><path stroke="none" d="M527.61 96.543C527.891 96.599,528.144 96.627,528.425 96.627C532.3 96.627,538.084 91.348,537.972 87.08C537.859 86.041,537.888 84.609,535.782 83.766C535.192 83.485,534.546 83.373,533.844 83.373C529.52 83.373,524.83 88.343,524.493 91.657C524.493 91.909,524.465 92.134,524.465 92.387C524.465 94.409,525.364 96.037,527.61 96.543"/><path stroke="none" d="M529.687 107.244C529.715 107.244,529.715 107.244,529.769 107.216C530.59 107.079,531.383 107.079,532.204 106.997C532.642 106.97,532.916 106.642,532.916 106.313C532.998 105.657,533.107 105,533.107 104.289C533.107 104.097,533.107 103.906,533.08 103.687C532.998 103.057,532.751 102.756,532.286 102.756C532.177 102.756,532.04 102.756,531.931 102.784C531.383 102.866,530.782 102.948,530.234 103.057C529.879 103.14,529.496 103.304,529.441 103.741C529.359 104.754,529.331 105.793,529.331 106.806C529.331 106.997,529.359 107.244,529.687 107.244"/><g class="vf-annotation" id="vf-auto1425"><text stroke="none" font-family="Times New Roman, serif" font-size="11pt" x="523.886" y="140.334">v1</text></g><g class="vf-annotation" id="vf-auto1426"><text stroke="none" font-family="Times New Roman, serif" font-size="20pt" x="517.886" y="161.123">v2</text></g></g></g><g class="vf-stavenote" id="vf-auto1427"><g class="vf-stem" id="vf-auto1428" pointer-events="bounding-box"><path stroke-width="1.5" fill="none" d="M583.565 92L583.565 125"/></g><g class="vf-notehead" id="vf-auto1430" pointer-events="bounding-box"><path stroke="none" d="M585.96 96.543C586.241 96.599,586.494 96.627,586.775 96.627C590.65 96.627,596.434 91.348,596.322 87.08C596.21 86.041,596.238 84.609,594.132 83.766C593.542 83.485,592.896 83.373,592.194 83.373C587.87 83.373,583.181 88.343,582.844 91.657C582.844 91.909,582.815 92.134,582.815 92.387C582.815 94.409,583.714 96.037,585.96 96.543"/><path stroke="none" d="M594.617 149.419C594.836 149.446,595.028 149.172,595.165 148.954C595.438 148.543,595.548 148.105,595.548 147.613C595.548 145.67,595.602 143.892,595.602 142.086C595.602 140.828,595.548 139.542,595.466 138.146L595.438 138.119C595.438 137.49,595.329 136.943,595.11 136.587C594.645 135.711,593.742 135.711,592.948 135.52C591.69 135.192,590.404 135,589.118 135C587.805 135,586.492 135.246,585.178 135.793C584.412 136.149,583.81 136.614,583.728 137.435L583.728 137.763C583.728 138.584,583.728 139.378,583.646 140.198C583.537 141.977,583.537 143.783,583.537 145.588C583.537 146.491,583.537 147.421,583.564 148.27C583.564 148.68,583.455 149.309,583.892 149.337C584.33 149.337,584.494 148.762,584.631 148.352C584.686 148.242,584.631 148.078,584.686 147.969C584.85 147.12,584.877 146.354,584.877 145.561C584.877 144.85,584.85 144.166,584.85 143.536C584.85 143.181,584.85 142.852,584.877 142.524L584.877 140.882C585.507 140.363,586.245 140.116,587.093 140.034C587.805 139.952,588.461 139.925,589.173 139.925C590.705 139.925,592.237 140.171,593.715 140.828L594.207 141.019L594.207 142.716C594.262 143.618,594.207 144.603,594.207 145.643C594.207 146.655,594.262 147.722,594.399 148.789C594.453 149.036,594.289 149.391,594.617 149.419"/><g class="vf-annotation" id="vf-auto1434"><text stroke="none" font-family="Times New Roman, serif" x="582.903" y="164.395">v1</text></g><g class="vf-annotation" id="vf-auto1435"><text stroke="none" font-family="Times New Roman, serif" font-size="20pt" x="576.236" y="185.184">v2</text></g></g></g><g class="vf-stavenote" id="vf-auto1436"><g class="vf-stem" id="vf-auto1437" pointer-events="bounding-box"><path stroke-width="1.5" fill="none" d="M641.916 127L641.916 160"/></g><g class="vf-notehead" id="vf-auto1439" pointer-events="bounding-box"><path stroke="none" d="M644.311 131.543C644.591 131.599,644.844 131.627,645.125 131.627C649 131.627,654.784 126.348,654.672 122.08C654.56 121.041,654.588 119.609,652.482 118.766C651.892 118.485,651.246 118.373,650.544 118.373C646.22 118.373,641.531 123.343,641.194 126.657C641.194 126.909,641.166 127.134,641.166 127.387C641.166 129.409,642.064 131.037,644.311 131.543"/><g class="vf-annotation" id="vf-auto1440"><text stroke="none" font-family="Times New Roman, serif" x="641.253" y="169.395">v1</text></g><g class="vf-annotation" id="vf-auto1441"><text stroke="none" font-family="Times New Roman, serif" font-size="20pt" x="634.586" y="190.184">v2</text></g></g></g><g class="vf-stavenote" id="vf-auto1442"><g class="vf-notehead" id="vf-auto1445" pointer-events="bounding-box"><path stroke="none" d="M714.876 88.877C714.763 94.24,709.821 97.273,705.778 97.525C704.57 97.61,703.531 96.964,702.38 96.543L701.257 96.065C700.134 95.532,699.516 94.661,699.516 93.566C699.516 93.229,699.544 92.92,699.684 92.555C700.443 90.253,701.453 88.006,702.942 86.041C704.289 84.272,706.508 83.317,708.698 83.317C710.664 83.317,712.629 84.047,713.949 85.563C714.791 86.49,714.932 87.641,714.876 88.877M706.48 93.005C707.799 92.864,709.091 92.471,710.299 91.769C710.804 91.488,711.169 91.123,711.478 90.646C711.646 90.393,711.731 90.168,711.731 89.916C711.731 89.607,711.534 89.326,711.113 89.101C710.074 88.624,709.147 87.95,707.968 87.95C707.687 87.95,707.434 87.978,707.154 88.062C705.328 88.512,703.924 89.438,702.914 90.983C702.801 91.179,702.633 91.404,702.633 91.629C702.633 91.825,702.745 91.994,703.026 92.106C704.121 92.499,705.188 93.005,706.48 93.005"/><path stroke="none" d="M706.404 151.852C707.991 151.496,709.359 150.785,710.673 149.882C713.545 147.912,715.077 144.985,716.5 141.948C717.157 140.607,717.513 139.212,717.403 137.707C717.348 137.269,717.348 136.64,716.883 136.64C716.445 136.64,715.98 136.886,715.816 137.433C715.789 137.652,715.679 137.816,715.543 138.008C714.722 140.033,713.709 141.92,712.369 143.617C711.11 145.231,709.523 146.408,707.581 147.037C707.034 147.228,706.486 147.31,705.967 147.31C704.489 147.31,703.149 146.599,701.917 145.587C700.029 144.055,698.88 142.194,698.88 139.923C698.88 139.403,698.935 138.884,699.045 138.336C699.127 137.789,699.291 137.187,699.291 136.613C699.291 136.448,699.291 136.257,699.236 136.093C699.154 135.737,699.236 135.135,698.853 135.053C698.333 135.026,697.895 135.354,697.704 135.901C697.649 136.093,697.594 136.257,697.54 136.448C697.239 137.953,696.91 139.431,696.993 141.127C697.02 144.547,697.731 147.83,700.85 150.156C702.246 151.168,703.641 151.962,705.31 151.962C705.666 151.962,706.021 151.934,706.404 151.852M708.347 140.224C708.73 140.279,708.894 140.06,708.894 139.321C708.894 137.379,707.362 135.764,705.419 135.764C704.845 135.764,704.434 135.983,704.407 136.284C704.352 136.531,704.352 136.722,704.352 136.914C704.352 138.528,705.255 139.677,706.952 140.033"/><g class="vf-annotation" id="vf-auto1449"><text stroke="none" font-family="Times New Roman, serif" font-size="11pt" x="699.868" y="175.334">v1</text></g><g class="vf-annotation" id="vf-auto1450"><text stroke="none" font-family="Times New Roman, serif" font-size="16pt" x="696.535" y="192.365">v2</text></g></g></g></svg>