<svg xmlns="http://www.w3.org/2000/svg" stroke-width="0.3" stroke-dasharray="none" fill="black" stroke="black" font-family="Arial, sans-serif" font-size="10pt" font-weight="normal" font-style="normal" width="450" height="140" viewBox="0 0 450 140" style="width: 450px; height: 140px; border: none;"><g class="vf-stave" id="vf-auto1542" stroke-width="1" fill="#999999" stroke="#999999"><path fill="none" d="M0 40L440 40"/><path fill="none" d="M0 50L440 50"/><path fill="none" d="M0 60L440 60"/><path fill="none" d="M0 70L440 70"/><path fill="none" d="M0 80L440 80"/></g><g class="vf-stavebarline" id="vf-auto1543"><rect y="39.5" width="1" height="41" stroke="none"/></g><g class="vf-stavebarline" id="vf-auto1544"><rect x="440" y="39.5" width="1" height="41" stroke="none"/></g><g class="vf-stavenote" id="vf-auto1545"><g class="vf-notehead" id="vf-auto1551" pointer-events="bounding-box"><path stroke="none" d="M20.931 45.054C24.525 45.054,28.934 41.741,28.934 38.315C28.934 36.237,27.305 34.946,25.003 34.946C20.566 34.946,17 38.231,17 41.685C17 43.791,18.741 45.054,20.931 45.054"/></g></g><g class="vf-stavenote" id="vf-auto1553"><g class="vf-notehead" id="vf-auto1559" pointer-events="bounding-box"><path stroke="none" d="M74.681 50.054C78.275 50.054,82.684 46.741,82.684 43.315C82.684 41.237,81.055 39.946,78.753 39.946C74.316 39.946,70.75 43.231,70.75 46.685C70.75 48.791,72.491 50.054,74.681 50.054"/></g></g><g class="vf-stavenote" id="vf-auto1561"><g class="vf-notehead" id="vf-auto1567" pointer-events="bounding-box"><path stroke="none" d="M128.431 55.054C132.025 55.054,136.434 51.741,136.434 48.315C136.434 46.237,134.805 44.946,132.503 44.946C128.066 44.946,124.5 48.231,124.5 51.685C124.5 53.791,126.241 55.054,128.431 55.054"/></g></g><g class="vf-stavenote" id="vf-auto1569"><g class="vf-notehead" id="vf-auto1575" pointer-events="bounding-box"><path stroke="none" d="M182.181 60.054C185.775 60.054,190.184 56.741,190.184 53.315C190.184 51.237,188.555 49.946,186.253 49.946C181.816 49.946,178.25 53.231,178.25 56.685C178.25 58.791,179.991 60.054,182.181 60.054"/></g></g><g class="vf-stavenote" id="vf-auto1578"><g class="vf-notehead" id="vf-auto1584" pointer-events="bounding-box"><path stroke="none" d="M235.931 60.054C239.525 60.054,243.934 56.741,243.934 53.315C243.934 51.237,242.305 49.946,240.003 49.946C235.566 49.946,232 53.231,232 56.685C232 58.791,233.741 60.054,235.931 60.054"/></g></g><g class="vf-stavenote" id="vf-auto1586"><g class="vf-notehead" id="vf-auto1592" pointer-events="bounding-box"><path stroke="none" d="M289.681 55.054C293.275 55.054,297.684 51.741,297.684 48.315C297.684 46.237,296.055 44.946,293.753 44.946C289.316 44.946,285.75 48.231,285.75 51.685C285.75 53.791,287.491 55.054,289.681 55.054"/></g></g><g class="vf-stavenote" id="vf-auto1594"><g class="vf-notehead" id="vf-auto1600" pointer-events="bounding-box"><path stroke="none" d="M343.431 50.054C347.025 50.054,351.434 46.741,351.434 43.315C351.434 41.237,349.805 39.946,347.503 39.946C343.066 39.946,339.5 43.231,339.5 46.685C339.5 48.791,341.241 50.054,343.431 50.054"/></g></g><g class="vf-stavenote" id="vf-auto1602"><g class="vf-notehead" id="vf-auto1608" pointer-events="bounding-box"><path stroke="none" d="M397.181 45.054C400.775 45.054,405.184 41.741,405.184 38.315C405.184 36.237,403.555 34.946,401.253 34.946C396.816 34.946,393.25 38.231,393.25 41.685C393.25 43.791,394.991 45.054,397.181 45.054"/></g></g><g class="vf-stavenote" id="vf-auto1612"><g class="vf-notehead" id="vf-auto1618" pointer-events="bounding-box"><path stroke="none" d="M20.931 80.054C24.525 80.054,28.934 76.741,28.934 73.315C28.934 71.237,27.305 69.946,25.003 69.946C20.566 69.946,17 73.231,17 76.685C17 78.791,18.741 80.054,20.931 80.054"/></g></g><g class="vf-stavenote" id="vf-auto1620"><g class="vf-notehead" id="vf-auto1626" pointer-events="bounding-box"><path stroke="none" d="M74.681 85.054C78.275 85.054,82.684 81.741,82.684 78.315C82.684 76.237,81.055 74.946,78.753 74.946C74.316 74.946,70.75 78.231,70.75 81.685C70.75 83.791,72.491 85.054,74.681 85.054"/></g></g><g class="vf-stavenote" id="vf-auto1628"><g class="vf-notehead" id="vf-auto1634" pointer-events="bounding-box"><path stroke="none" d="M128.431 90.054C132.025 90.054,136.434 86.741,136.434 83.315C136.434 81.237,134.805 79.946,132.503 79.946C128.066 79.946,124.5 83.231,124.5 86.685C124.5 88.791,126.241 90.054,128.431 90.054"/></g></g><g class="vf-stavenote" id="vf-auto1636"><path stroke-width="1.4" fill="none" stroke="#444" d="M175.25 90L193.184 90"/><g class="vf-notehead" id="vf-auto1642" pointer-events="bounding-box"><path stroke="none" d="M182.181 95.054C185.775 95.054,190.184 91.741,190.184 88.315C190.184 86.237,188.555 84.946,186.253 84.946C181.816 84.946,178.25 88.231,178.25 91.685C178.25 93.791,179.991 95.054,182.181 95.054"/></g></g><g class="vf-stavenote" id="vf-auto1645"><path stroke-width="1.4" fill="none" stroke="#444" d="M229 90L246.934 90"/><g class="vf-notehead" id="vf-auto1651" pointer-events="bounding-box"><path stroke="none" d="M235.931 95.054C239.525 95.054,243.934 91.741,243.934 88.315C243.934 86.237,242.305 84.946,240.003 84.946C235.566 84.946,232 88.231,232 91.685C232 93.791,233.741 95.054,235.931 95.054"/></g></g><g class="vf-stavenote" id="vf-auto1653"><g class="vf-notehead" id="vf-auto1659" pointer-events="bounding-box"><path stroke="none" d="M289.681 90.054C293.275 90.054,297.684 86.741,297.684 83.315C297.684 81.237,296.055 79.946,293.753 79.946C289.316 79.946,285.75 83.231,285.75 86.685C285.75 88.791,287.491 90.054,289.681 90.054"/></g></g><g class="vf-stavenote" id="vf-auto1661"><g class="vf-notehead" id="vf-auto1667" pointer-events="bounding-box"><path stroke="none" d="M343.431 85.054C347.025 85.054,351.434 81.741,351.434 78.315C351.434 76.237,349.805 74.946,347.503 74.946C343.066 74.946,339.5 78.231,339.5 81.685C339.5 83.791,341.241 85.054,343.431 85.054"/></g></g><g class="vf-stavenote" id="vf-auto1669"><g class="vf-notehead" id="vf-auto1675" pointer-events="bounding-box"><path stroke="none" d="M397.181 80.054C400.775 80.054,405.184 76.741,405.184 73.315C405.184 71.237,403.555 69.946,401.253 69.946C396.816 69.946,393.25 73.231,393.25 76.685C393.25 78.791,394.991 80.054,397.181 80.054"/></g></g><g class="vf-stem" id="vf-auto1546" pointer-events="bounding-box"><path stroke-width="1.5" fill="none" d="M28.184 38L28.184 4.625"/></g><g class="vf-stem" id="vf-auto1554" pointer-events="bounding-box"><path stroke-width="1.5" fill="none" d="M81.934 43L81.934 10"/></g><g class="vf-stem" id="vf-auto1562" pointer-events="bounding-box"><path stroke-width="1.5" fill="none" d="M135.684 48L135.684 15.375"/></g><g class="vf-stem" id="vf-auto1570" pointer-events="bounding-box"><path stroke-width="1.5" fill="none" d="M189.434 53L189.434 20.75"/></g><g class="vf-beam" id="vf-auto1577"><path stroke="none" d="M27.434 3.8L27.434 8.8L189.684 24.925L189.684 19.925Z"/></g><g class="vf-stem" id="vf-auto1579" pointer-events="bounding-box"><path stroke-width="1.5" fill="none" d="M243.184 53L243.184 20.75"/></g><g class="vf-stem" id="vf-auto1587" pointer-events="bounding-box"><path stroke-width="1.5" fill="none" d="M296.934 48L296.934 15.375"/></g><g class="vf-stem" id="vf-auto1595" pointer-events="bounding-box"><path stroke-width="1.5" fill="none" d="M350.684 43L350.684 10"/></g><g class="vf-stem" id="vf-auto1603" pointer-events="bounding-box"><path stroke-width="1.5" fill="none" d="M404.434 38L404.434 4.625"/></g><g class="vf-beam" id="vf-auto1610"><path stroke="none" d="M242.434 20.075L242.434 25.075L404.684 8.95L404.684 3.95Z"/></g><g class="vf-stem" id="vf-auto1613" pointer-events="bounding-box"><path stroke-width="1.5" fill="none" d="M17.75 77L17.75 109.25"/></g><g class="vf-stem" id="vf-auto1621" pointer-events="bounding-box"><path stroke-width="1.5" fill="none" d="M71.5 82L71.5 114.625"/></g><g class="vf-stem" id="vf-auto1629" pointer-events="bounding-box"><path stroke-width="1.5" fill="none" d="M125.25 87L125.25 120"/></g><g class="vf-stem" id="vf-auto1637" pointer-events="bounding-box"><path stroke-width="1.5" fill="none" d="M179 92L179 125.375"/></g><g class="vf-beam" id="vf-auto1644"><path stroke="none" d="M17 109.925L17 104.925L179.25 121.05L179.25 126.05Z"/></g><g class="vf-stem" id="vf-auto1646" pointer-events="bounding-box"><path stroke-width="1.5" fill="none" d="M232.75 92L232.75 125.375"/></g><g class="vf-stem" id="vf-auto1654" pointer-events="bounding-box"><path stroke-width="1.5" fill="none" d="M286.5 87L286.5 120"/></g><g class="vf-stem" id="vf-auto1662" pointer-events="bounding-box"><path stroke-width="1.5" fill="none" d="M340.25 82L340.25 114.625"/></g><g class="vf-stem" id="vf-auto1670" pointer-events="bounding-box"><path stroke-width="1.5" fill="none" d="M394 77L394 109.25"/></g><g class="vf-beam" id="vf-auto1677"><path stroke="none" d="M232 126.2L232 121.2L394.25 105.075L394.25 110.075Z"/></g></svg>