<svg xmlns="http://www.w3.org/2000/svg" stroke-width="0.3" stroke-dasharray="none" fill="black" stroke="black" font-family="Arial, sans-serif" font-size="10pt" font-weight="normal" font-style="normal" width="600" height="350" viewBox="0 0 600 350" style="width: 600px; height: 350px; border: none;"><g class="vf-stave" id="vf-auto6571" stroke-width="1" fill="#999999" stroke="#999999"><path fill="none" d="M10 50L220.525 50"/><path fill="none" d="M10 60L220.525 60"/><path fill="none" d="M10 70L220.525 70"/><path fill="none" d="M10 80L220.525 80"/><path fill="none" d="M10 90L220.525 90"/></g><g class="vf-stavebarline" id="vf-auto6572"/><g class="vf-stavebarline" id="vf-auto6573"><rect x="220.525" y="49.5" width="1" height="41" stroke="none"/></g><g class="vf-clef" id="vf-auto6574"><path stroke="none" d="M35.503 81.76C35.503 84.345,34.464 87.032,31.854 88.071C31.093 83.712,30.105 77.908,29.852 76.286C33.146 76.286,35.503 78.516,35.503 81.76M30.333 88.527C29.598 88.654,28.914 88.73,28.204 88.73C22.983 88.73,18.548 85.08,18.548 79.581C18.548 75.12,21.691 71.141,24.884 68.379C25.518 67.821,26.101 67.314,26.633 66.757C26.962 68.734,27.216 70.457,27.469 71.952C24.149 72.941,21.894 76.438,21.894 79.86C21.894 82.419,23.896 85.917,26.836 85.917C27.114 85.917,27.444 85.79,27.444 85.461C27.444 85.131,27.089 84.954,26.633 84.65C25.214 83.762,24.428 82.825,24.428 81.025C24.428 78.82,26.05 77.021,28.204 76.514M27.114 50.993C27.444 49.548,29.117 45.721,31.017 45.721C31.575 45.721,32.437 47.495,32.437 50.004C32.437 53.806,29.623 56.67,27.114 59.128C26.886 57.684,26.709 56.264,26.709 54.718C26.709 53.375,26.836 52.133,27.114 50.993M19.461 99.729C19.461 102.137,21.311 105.305,26.253 105.305C27.951 105.305,29.446 104.874,30.764 104.063C32.741 102.669,33.248 100.261,33.248 97.98C33.248 96.536,33.02 94.914,32.665 92.836C32.563 92.101,32.335 91.011,32.107 89.566C35.681 88.4,38.367 84.675,38.367 80.924C38.367 75.424,34.464 71.699,29.117 71.699C28.762 69.494,28.382 67.34,28.078 65.312C31.93 61.257,34.591 56.695,34.591 50.891C34.591 47.571,33.577 44.859,32.994 43.567C32.107 41.691,31.068 40.424,30.409 40.424C30.156 40.424,29.015 40.855,27.799 42.274C25.467 45.062,24.808 49.726,24.808 52.792C24.808 54.769,25.011 56.543,25.619 60.623C25.594 60.674,23.693 62.6,22.907 63.234C19.587 66.326,15 70.736,15 78.035C15 84.878,20.956 90.225,27.748 90.225C28.787 90.225,29.776 90.124,30.612 89.972C31.322 93.469,31.727 96.029,31.727 97.98C31.727 101.757,29.776 103.784,26.101 103.784C25.214 103.784,24.453 103.582,24.377 103.582C24.352 103.556,24.276 103.505,24.276 103.48C24.276 103.404,24.352 103.379,24.453 103.328C26.177 103.075,27.875 101.63,27.875 99.273C27.875 97.322,26.379 95.243,23.642 95.243C21.083 95.243,19.461 97.322,19.461 99.729"/></g><g class="vf-stave" id="vf-auto6600" stroke-width="1" fill="#999999" stroke="#999999"><path fill="none" d="M10 170L220.525 170"/><path fill="none" d="M10 180L220.525 180"/><path fill="none" d="M10 190L220.525 190"/><path fill="none" d="M10 200L220.525 200"/><path fill="none" d="M10 210L220.525 210"/></g><g class="vf-stavebarline" id="vf-auto6601"/><g class="vf-stavebarline" id="vf-auto6602"><rect x="220.525" y="169.5" width="1" height="41" stroke="none"/></g><g class="vf-clef" id="vf-auto6603"><path stroke="none" d="M23.433 171.183C20.898 171.183,18.871 172.634,18.848 172.634C16.935 174.063,16.152 175.744,15.852 176.92C15.691 177.519,15.622 178.118,15.622 178.671C15.622 179.477,15.76 180.191,16.06 180.836C16.452 181.712,17.212 182.357,18.226 182.68C18.617 182.818,19.055 182.887,19.47 182.887C20.207 182.887,20.967 182.68,21.612 182.311C22.626 181.758,23.271 180.56,23.271 179.27C23.271 178.118,22.672 177.035,21.659 176.413C20.967 175.952,20.299 175.814,19.746 175.814C19.355 175.814,18.986 175.883,18.686 175.975C18.341 176.113,17.788 176.459,17.511 176.689C17.627 176.044,18.018 175.076,18.387 174.546C18.756 174.016,19.47 173.371,20.046 173.072C20.875 172.588,21.935 172.404,23.087 172.404C26.474 172.404,28.133 175.122,28.133 180.698C28.133 183.785,26.981 186.735,25.99 188.693C24.884 190.882,23.433 192.978,22.142 194.13C18.686 197.287,15.438 198.784,15.392 198.784C15.392 198.784,15 199.015,15 199.407C15 199.476,15.023 199.499,15.023 199.568C15.138 199.913,15.438 199.96,15.622 199.96C15.668 199.96,15.76 199.936,15.806 199.936C15.829 199.936,19.608 198.37,22.626 196.02C24.331 194.799,25.852 193.462,27.165 192.034C28.363 190.744,29.4 189.361,30.229 187.956C31.681 185.467,32.51 182.887,32.51 180.652C32.51 177.91,31.796 175.629,30.437 173.993C28.87 172.127,26.52 171.183,23.433 171.183M33.847 175.376C33.847 176.32,34.584 177.035,35.436 177.035C36.289 177.035,37.026 176.32,37.026 175.376C37.026 174.454,36.289 173.694,35.436 173.694C34.584 173.694,33.847 174.454,33.847 175.376M33.847 183.578C33.847 184.5,34.584 185.283,35.436 185.283C36.289 185.283,37.026 184.5,37.026 183.578C37.026 182.656,36.289 181.896,35.436 181.896C34.584 181.896,33.847 182.656,33.847 183.578"/></g><g class="vf-stavenote" id="vf-auto6530"><g class="vf-stem" id="vf-auto6531" pointer-events="bounding-box"><path stroke-width="1.5" fill="none" d="M81.721 80L81.721 130"/></g><g class="vf-notehead" id="vf-auto6540" pointer-events="bounding-box"><path stroke-width="1.5" stroke="none" d="M66.721 105L66.721 96L81.721 85L81.721 95L66.721 105Z"/></g><g class="vf-notehead" id="vf-auto6539" pointer-events="bounding-box"><path stroke-width="1.5" stroke="none" d="M80.971 100L80.971 91L95.971 80L95.971 90L80.971 100Z"/></g><g class="vf-notehead" id="vf-auto6538" pointer-events="bounding-box"><path stroke-width="1.5" stroke="none" d="M80.971 90L80.971 81L95.971 70L95.971 80L80.971 90Z"/></g></g><g class="vf-stavenote" id="vf-auto6541"><path stroke-width="1.4" fill="none" stroke="#444" d="M115.47 100L136.47 100"/><g class="vf-stem" id="vf-auto6542" pointer-events="bounding-box"><path stroke-width="1.5" fill="none" d="M119.22 100L119.22 135"/></g><g class="vf-notehead" id="vf-auto6545" pointer-events="bounding-box"><path stroke-width="1.5" stroke="none" d="M118.47 110L118.47 101L133.47 90L133.47 100L118.47 110Z"/></g></g><g class="vf-stavenote" id="vf-auto6546"><g class="vf-notehead" id="vf-auto6550" pointer-events="bounding-box"><path stroke="none" d="M164.31 106.023C164.285 105.998,164.209 105.922,164.109 105.771L159.925 100.605C159.9 100.58,159.85 100.479,159.85 100.403C159.85 100.302,159.9 100.151,159.925 100.076L163.63 94.481C163.655 94.406,163.705 94.305,163.705 94.229L163.705 93.902C163.705 93.801,163.655 93.675,163.579 93.624L157.708 85.661C157.708 85.661,157.557 85.46,157.355 85.46C157.229 85.46,157.179 85.485,157.053 85.56C156.901 85.661,156.876 85.812,156.876 85.913C156.876 86.14,156.977 86.316,156.977 86.316L159.749 90.096C159.825 90.197,159.85 90.348,159.85 90.525C159.85 90.676,159.825 90.852,159.749 90.953L156.07 96.548C156.045 96.623,155.994 96.774,155.994 96.85L155.994 97.178C155.994 97.278,156.045 97.379,156.12 97.455L160.177 102.495C160.026 102.47,159.699 102.394,159.27 102.394C158.665 102.394,157.859 102.545,157.204 103.125C156.397 103.856,155.969 104.864,155.969 105.771C155.969 106.275,156.07 106.779,156.372 107.182C157.128 108.341,159.85 111.794,159.85 111.794C159.85 111.794,160.026 112.02,160.278 112.02C160.354 112.02,160.429 112.02,160.505 111.945C160.681 111.794,160.757 111.642,160.757 111.491C160.757 111.365,160.681 111.239,160.656 111.189C160.53 110.987,159.371 108.896,159.371 108.896C159.371 108.896,159.119 108.392,159.119 107.736C159.119 107.258,159.27 106.678,159.749 106.199C160.177 105.771,160.681 105.62,161.16 105.62C161.639 105.62,162.017 105.771,162.319 105.947L163.731 106.854C163.731 106.854,163.882 106.93,164.033 106.93C164.159 106.93,164.285 106.905,164.386 106.754C164.461 106.602,164.487 106.527,164.487 106.426C164.487 106.325,164.461 106.25,164.386 106.124"/></g></g><g class="vf-stavenote" id="vf-auto6551"><path stroke-width="1.4" fill="none" stroke="#444" d="M190.468 100L211.468 100"/><g class="vf-stem" id="vf-auto6552" pointer-events="bounding-box"><path stroke-width="1.5" fill="none" d="M194.218 100L194.218 135"/></g><g class="vf-notehead" id="vf-auto6555" pointer-events="bounding-box"><path stroke-width="1.5" stroke="none" d="M193.468 110L193.468 101L208.468 90L208.468 100L193.468 110Z"/></g></g><g class="vf-stavenote" id="vf-auto6557"><g class="vf-stem" id="vf-auto6558" pointer-events="bounding-box"><path stroke-width="1.5" fill="none" d="M95.221 65L95.221 30"/></g><g class="vf-notehead" id="vf-auto6561" pointer-events="bounding-box"><path stroke-width="1.5" fill="none" d="M80.221 75L80.221 66L95.221 55L95.221 65L80.221 75Z"/><path stroke="none" d="M77.56 60.869C77.779 60.814,77.971 60.54,77.971 60.321L77.971 57.996C77.971 57.668,77.752 57.449,77.423 57.449C77.396 57.449,77.396 57.449,77.341 57.449L76.055 57.722L76.055 51.84L74.934 51.84L74.934 57.941L71.431 58.652L71.431 53.098L70.337 53.098L70.337 58.899L68.805 59.2C68.559 59.254,68.367 59.528,68.367 59.747L68.367 59.829L68.367 62.127L68.367 62.045C68.367 62.373,68.613 62.592,68.914 62.592C68.969 62.592,68.996 62.592,69.024 62.592L70.337 62.319L70.337 68.83L68.805 69.131C68.559 69.186,68.367 69.46,68.367 69.679L68.367 71.977C68.367 72.278,68.613 72.524,68.914 72.524C68.969 72.524,68.996 72.524,69.024 72.524L70.337 72.25L70.337 78.133L71.431 78.133L71.431 72.004L74.934 71.293L74.934 76.847L76.055 76.847L76.055 71.074L77.56 70.8C77.779 70.746,77.971 70.472,77.971 70.253L77.971 67.928C77.971 67.599,77.752 67.353,77.423 67.353C77.396 67.353,77.396 67.353,77.341 67.353L76.055 67.627L76.055 61.142M71.431 62.072L74.934 61.388L74.934 67.873L71.431 68.612"/><path stroke="none" d="M102.971 65 A2 2 0 0 0 98.971 65 A2 2 0 0 0 102.971 65"/></g></g><g class="vf-stavenote" id="vf-auto6565"><g class="vf-stem" id="vf-auto6566" pointer-events="bounding-box"><path stroke-width="1.5" fill="none" d="M207.718 65L207.718 30"/></g><g class="vf-notehead" id="vf-auto6569" pointer-events="bounding-box"><path stroke-width="1.5" stroke="none" d="M193.468 75L193.468 66L208.468 55L208.468 65L193.468 75Z"/></g></g><g class="vf-stavenote" id="vf-auto6575"><g class="vf-stem" id="vf-auto6576" pointer-events="bounding-box"><path stroke-width="1.5" fill="none" d="M95.221 195L95.221 160"/></g><g class="vf-notehead" id="vf-auto6578" pointer-events="bounding-box"><path stroke-width="1.5" stroke="none" d="M80.971 205L80.971 196L95.971 185L95.971 195L80.971 205Z"/><path stroke="none" d="M77.56 190.869C77.779 190.814,77.971 190.54,77.971 190.321L77.971 187.996C77.971 187.668,77.752 187.449,77.423 187.449C77.396 187.449,77.396 187.449,77.341 187.449L76.055 187.722L76.055 181.84L74.934 181.84L74.934 187.941L71.431 188.652L71.431 183.098L70.337 183.098L70.337 188.899L68.805 189.2C68.559 189.254,68.367 189.528,68.367 189.747L68.367 189.829L68.367 192.127L68.367 192.045C68.367 192.373,68.613 192.592,68.914 192.592C68.969 192.592,68.996 192.592,69.024 192.592L70.337 192.319L70.337 198.83L68.805 199.131C68.559 199.186,68.367 199.46,68.367 199.679L68.367 201.977C68.367 202.278,68.613 202.524,68.914 202.524C68.969 202.524,68.996 202.524,69.024 202.524L70.337 202.25L70.337 208.133L71.431 208.133L71.431 202.004L74.934 201.293L74.934 206.847L76.055 206.847L76.055 201.074L77.56 200.8C77.779 200.746,77.971 200.472,77.971 200.253L77.971 197.928C77.971 197.599,77.752 197.353,77.423 197.353C77.396 197.353,77.396 197.353,77.341 197.353L76.055 197.627L76.055 191.142M71.431 192.072L74.934 191.388L74.934 197.873L71.431 198.612"/></g></g><g class="vf-stavenote" id="vf-auto6581"><g class="vf-stem" id="vf-auto6582" pointer-events="bounding-box"><path stroke-width="1.5" fill="none" d="M132.72 195L132.72 160"/></g><g class="vf-notehead" id="vf-auto6584" pointer-events="bounding-box"><path stroke-width="1.5" stroke="none" d="M118.47 205L118.47 196L133.47 185L133.47 195L118.47 205Z"/><path stroke="none" d="M115.278 187.777C115.196 187.722,115.087 187.668,114.977 187.668C114.923 187.668,114.84 187.722,114.813 187.722L109.834 189.09L109.834 182.196L108.739 182.196L108.739 201.703C108.739 202.004,108.985 202.223,109.286 202.223C109.341 202.223,109.396 202.223,109.451 202.223L114.403 200.828L114.403 207.722L115.47 207.722C115.47 201.183,115.47 194.973,115.47 188.215C115.47 188.078,115.388 187.859,115.278 187.777M109.834 198.83L109.834 192.373L114.403 191.06L114.403 197.572"/></g></g><g class="vf-stavenote" id="vf-auto6587"><g class="vf-stem" id="vf-auto6588" pointer-events="bounding-box"><path stroke-width="1.5" fill="none" d="M156.719 165L156.719 200"/></g><g class="vf-notehead" id="vf-auto6590" pointer-events="bounding-box"><path stroke-width="1.5" stroke="none" d="M155.969 175L155.969 166L170.969 155L170.969 165L155.969 175Z"/><path stroke="none" d="M152.887 161.881C152.668 160.349,151.71 158.899,149.713 158.899C147.743 158.899,146.594 160.103,146.403 160.349L146.567 147.708C146.567 147.38,146.32 147.161,145.992 147.161L145.527 147.161C145.226 147.161,144.98 147.38,144.98 147.708L145.171 171.375C145.171 171.703,145.418 171.922,145.719 171.922C145.801 171.922,145.965 171.895,146.047 171.867C146.211 171.785,148.755 170.527,150.89 168.119C152.394 166.423,152.969 164.48,152.969 162.866C152.969 162.51,152.942 162.209,152.887 161.881M150.178 163.413C150.178 164.015,150.014 165.821,149.029 167.326C148.372 168.338,147.032 169.405,146.293 170.007L146.403 162.319C146.485 161.963,147.059 160.814,148.646 160.814C150.069 160.814,150.178 162.155,150.178 163.003C150.178 163.194,150.178 163.304,150.178 163.413"/></g></g><g class="vf-stavenote" id="vf-auto6593"><g class="vf-stem" id="vf-auto6594" pointer-events="bounding-box"><path stroke-width="1.5" fill="none" d="M194.218 190L194.218 225"/></g><g class="vf-notehead" id="vf-auto6596" pointer-events="bounding-box"><path stroke-width="1.5" stroke="none" d="M193.468 200L193.468 191L208.468 180L208.468 190L193.468 200Z"/><path stroke="none" d="M189.483 188.003L189.921 188.003C190.222 188.003,190.468 187.756,190.468 187.428L190.468 185.103C190.468 184.802,190.222 184.555,189.921 184.555L187.595 184.555C187.267 184.555,187.048 184.802,187.048 185.103L187.048 185.595L187.048 187.209L185.106 189.179L184.996 189.179L183.026 187.209L183.026 185.103C183.026 184.802,182.835 184.555,182.506 184.555L180.181 184.555C179.88 184.555,179.634 184.802,179.634 185.103L179.634 187.428C179.634 187.756,179.88 188.003,180.181 188.003L180.591 188.003L180.619 188.003L182.26 188.003L184.203 189.918L184.203 190.027L182.26 191.997L180.619 191.997L180.591 191.997L180.181 191.997C179.88 191.997,179.634 192.216,179.634 192.517L179.634 194.843C179.634 195.171,179.88 195.39,180.181 195.39L182.506 195.39C182.835 195.39,183.026 195.171,183.026 194.843L183.026 192.763L184.996 190.876L185.106 190.876L187.048 192.763L187.048 194.405L187.048 194.46L187.048 194.843C187.048 195.171,187.267 195.39,187.595 195.39L189.921 195.39C190.222 195.39,190.468 195.171,190.468 194.843L190.468 192.517C190.468 192.216,190.222 191.997,189.921 191.997L189.511 191.997L189.483 191.997L187.842 191.997L185.872 190.027L185.872 189.973L187.842 188.003"/></g></g><path stroke="none" d="M25.074 32.509C24.987 32.48,24.872 32.422,24.786 32.422C24.613 32.422,24.411 32.48,24.325 32.624C24.238 32.768,20.091 39.162,12.171 39.162L5.576 39.162C5.259 39.162,5 39.363,5 39.68L5 43.424L5 44L10.069 44C22.827 44,25.275 33.344,25.333 33.229C25.333 33.171,25.362 33.085,25.362 32.998C25.362 32.797,25.246 32.624,25.074 32.509"/><path stroke="none" d="M25.074 228.491C25.246 228.376,25.362 228.203,25.362 228.002C25.362 227.915,25.333 227.829,25.333 227.771C25.275 227.656,22.827 217,10.069 217L5 217L5 217.576L5 221.32C5 221.637,5.259 221.838,5.576 221.838L12.171 221.838C20.091 221.838,24.238 228.232,24.325 228.376C24.411 228.52,24.613 228.578,24.786 228.578C24.872 228.578,24.987 228.52,25.074 228.491"/><rect x="5" y="44" width="3" height="173" stroke="none"/></svg>