<svg xmlns="http://www.w3.org/2000/svg" stroke-width="0.3" stroke-dasharray="none" fill="black" stroke="black" font-family="Arial, sans-serif" font-size="10pt" font-weight="normal" font-style="normal" width="450" height="140" viewBox="0 0 450 140" style="width: 450px; height: 140px; border: none;"><g class="vf-stave" id="vf-auto6036" stroke-width="1" fill="#999999" stroke="#999999"><path fill="none" d="M0 40L440 40"/><path fill="none" d="M0 50L440 50"/><path fill="none" d="M0 60L440 60"/><path fill="none" d="M0 70L440 70"/><path fill="none" d="M0 80L440 80"/></g><g class="vf-stavebarline" id="vf-auto6037"><rect y="39.5" width="1" height="41" stroke="none"/></g><g class="vf-stavebarline" id="vf-auto6038"><rect x="440" y="39.5" width="1" height="41" stroke="none"/></g><g class="vf-stavenote" id="vf-auto6039"><g class="vf-notehead" id="vf-auto6045" pointer-events="bounding-box"><path stroke="none" d="M20.145 91.543C20.426 91.599,20.678 91.627,20.959 91.627C24.834 91.627,30.619 86.348,30.506 82.08C30.394 81.041,30.422 79.609,28.316 78.766C27.727 78.485,27.081 78.373,26.379 78.373C22.054 78.373,17.365 83.343,17.028 86.657C17.028 86.909,17 87.134,17 87.387C17 89.409,17.899 91.037,20.145 91.543"/></g></g><g class="vf-stavenote" id="vf-auto6047"><path stroke-width="1.4" fill="none" stroke="#444" d="M49.1 90L68.608 90"/><g class="vf-notehead" id="vf-auto6053" pointer-events="bounding-box"><path stroke="none" d="M55.245 101.543C55.526 101.599,55.779 101.627,56.059 101.627C59.934 101.627,65.719 96.348,65.607 92.08C65.494 91.041,65.522 89.609,63.416 88.766C62.827 88.485,62.181 88.373,61.479 88.373C57.154 88.373,52.465 93.343,52.128 96.657C52.128 96.909,52.1 97.134,52.1 97.387C52.1 99.409,52.999 101.037,55.245 101.543"/><path stroke="none" d="M72.608 95 A2 2 0 0 0 68.608 95 A2 2 0 0 0 72.608 95"/></g></g><g class="vf-stavenote" id="vf-auto6056"><path stroke-width="1.4" fill="none" stroke="#444" d="M87.734 90L107.243 90"/><path stroke-width="1.4" fill="none" stroke="#444" d="M87.734 100L107.243 100"/><g class="vf-notehead" id="vf-auto6062" pointer-events="bounding-box"><path stroke="none" d="M93.879 106.543C94.16 106.599,94.413 106.627,94.694 106.627C98.569 106.627,104.353 101.348,104.241 97.08C104.129 96.041,104.157 94.609,102.051 93.766C101.461 93.485,100.815 93.373,100.113 93.373C95.789 93.373,91.099 98.343,90.763 101.657C90.763 101.909,90.734 102.134,90.734 102.387C90.734 104.409,91.633 106.037,93.879 106.543"/></g></g><g class="vf-stavenote" id="vf-auto6064"><path stroke-width="1.4" fill="none" stroke="#444" d="M119.623 90L139.132 90"/><path stroke-width="1.4" fill="none" stroke="#444" d="M119.623 100L139.132 100"/><g class="vf-notehead" id="vf-auto6070" pointer-events="bounding-box"><path stroke="none" d="M125.768 106.543C126.049 106.599,126.302 106.627,126.583 106.627C130.458 106.627,136.242 101.348,136.13 97.08C136.018 96.041,136.046 94.609,133.94 93.766C133.35 93.485,132.704 93.373,132.002 93.373C127.678 93.373,122.988 98.343,122.652 101.657C122.652 101.909,122.623 102.134,122.623 102.387C122.623 104.409,123.522 106.037,125.768 106.543"/></g></g><g class="vf-stavenote" id="vf-auto6072"><path stroke-width="1.4" fill="none" stroke="#444" d="M154.723 90L174.232 90"/><g class="vf-notehead" id="vf-auto6078" pointer-events="bounding-box"><path stroke="none" d="M160.868 101.543C161.149 101.599,161.402 101.627,161.683 101.627C165.558 101.627,171.342 96.348,171.23 92.08C171.118 91.041,171.146 89.609,169.04 88.766C168.45 88.485,167.804 88.373,167.102 88.373C162.778 88.373,158.089 93.343,157.752 96.657C157.752 96.909,157.723 97.134,157.723 97.387C157.723 99.409,158.622 101.037,160.868 101.543"/><path stroke="none" d="M178.232 95 A2 2 0 0 0 174.232 95 A2 2 0 0 0 178.232 95"/></g></g><g class="vf-stavenote" id="vf-auto6081"><path stroke-width="1.4" fill="none" stroke="#444" d="M193.358 90L212.866 90"/><g class="vf-notehead" id="vf-auto6087" pointer-events="bounding-box"><path stroke="none" d="M199.503 96.543C199.784 96.599,200.036 96.627,200.317 96.627C204.192 96.627,209.977 91.348,209.864 87.08C209.752 86.041,209.78 84.609,207.674 83.766C207.084 83.485,206.439 83.373,205.737 83.373C201.412 83.373,196.723 88.343,196.386 91.657C196.386 91.909,196.358 92.134,196.358 92.387C196.358 94.409,197.256 96.037,199.503 96.543"/></g></g><g class="vf-stavenote" id="vf-auto6089"><g class="vf-notehead" id="vf-auto6095" pointer-events="bounding-box"><path stroke="none" d="M231.392 91.543C231.673 91.599,231.925 91.627,232.206 91.627C236.081 91.627,241.866 86.348,241.753 82.08C241.641 81.041,241.669 79.609,239.563 78.766C238.973 78.485,238.328 78.373,237.626 78.373C233.301 78.373,228.612 83.343,228.275 86.657C228.275 86.909,228.247 87.134,228.247 87.387C228.247 89.409,229.145 91.037,231.392 91.543"/></g></g><g class="vf-stavenote" id="vf-auto6097"><path stroke-width="1.4" fill="none" stroke="#444" d="M260.347 90L279.855 90"/><g class="vf-notehead" id="vf-auto6103" pointer-events="bounding-box"><path stroke="none" d="M266.492 101.543C266.773 101.599,267.025 101.627,267.306 101.627C271.181 101.627,276.966 96.348,276.853 92.08C276.741 91.041,276.769 89.609,274.663 88.766C274.074 88.485,273.428 88.373,272.726 88.373C268.401 88.373,263.712 93.343,263.375 96.657C263.375 96.909,263.347 97.134,263.347 97.387C263.347 99.409,264.246 101.037,266.492 101.543"/></g></g><g class="vf-stavenote" id="vf-auto6105"><path stroke-width="1.4" fill="none" stroke="#444" d="M295.447 90L314.955 90"/><path stroke-width="1.4" fill="none" stroke="#444" d="M295.447 100L314.955 100"/><g class="vf-notehead" id="vf-auto6111" pointer-events="bounding-box"><path stroke="none" d="M301.592 106.543C301.873 106.599,302.125 106.627,302.406 106.627C306.281 106.627,312.066 101.348,311.953 97.08C311.841 96.041,311.869 94.609,309.763 93.766C309.174 93.485,308.528 93.373,307.826 93.373C303.501 93.373,298.812 98.343,298.475 101.657C298.475 101.909,298.447 102.134,298.447 102.387C298.447 104.409,299.346 106.037,301.592 106.543"/><path stroke="none" d="M318.955 95 A2 2 0 0 0 314.955 95 A2 2 0 0 0 318.955 95"/></g></g><g class="vf-stavenote" id="vf-auto6114"><path stroke-width="1.4" fill="none" stroke="#444" d="M334.081 90L353.589 90"/><path stroke-width="1.4" fill="none" stroke="#444" d="M334.081 100L353.589 100"/><g class="vf-notehead" id="vf-auto6120" pointer-events="bounding-box"><path stroke="none" d="M340.226 106.543C340.507 106.599,340.76 106.627,341.041 106.627C344.916 106.627,350.7 101.348,350.588 97.08C350.476 96.041,350.504 94.609,348.398 93.766C347.808 93.485,347.162 93.373,346.46 93.373C342.136 93.373,337.446 98.343,337.109 101.657C337.109 101.909,337.081 102.134,337.081 102.387C337.081 104.409,337.98 106.037,340.226 106.543"/></g></g><g class="vf-stavenote" id="vf-auto6122"><path stroke-width="1.4" fill="none" stroke="#444" d="M365.97 90L385.478 90"/><g class="vf-notehead" id="vf-auto6128" pointer-events="bounding-box"><path stroke="none" d="M372.115 101.543C372.396 101.599,372.649 101.627,372.93 101.627C376.805 101.627,382.589 96.348,382.477 92.08C382.365 91.041,382.393 89.609,380.287 88.766C379.697 88.485,379.051 88.373,378.349 88.373C374.025 88.373,369.335 93.343,368.998 96.657C368.998 96.909,368.97 97.134,368.97 97.387C368.97 99.409,369.869 101.037,372.115 101.543"/><path stroke="none" d="M389.478 95 A2 2 0 0 0 385.478 95 A2 2 0 0 0 389.478 95"/></g></g><g class="vf-stavenote" id="vf-auto6131"><path stroke-width="1.4" fill="none" stroke="#444" d="M404.605 90L424.113 90"/><g class="vf-notehead" id="vf-auto6137" pointer-events="bounding-box"><path stroke="none" d="M410.75 96.543C411.031 96.599,411.283 96.627,411.564 96.627C415.439 96.627,421.224 91.348,421.111 87.08C420.999 86.041,421.027 84.609,418.921 83.766C418.331 83.485,417.686 83.373,416.984 83.373C412.659 83.373,407.97 88.343,407.633 91.657C407.633 91.909,407.605 92.134,407.605 92.387C407.605 94.409,408.503 96.037,410.75 96.543"/></g></g><g class="vf-stem" id="vf-auto6040" pointer-events="bounding-box"><path stroke-width="1.5" fill="none" d="M29.758 83L29.758 50.188"/></g><g class="vf-stem" id="vf-auto6048" pointer-events="bounding-box"><path stroke-width="1.5" fill="none" d="M64.858 93L64.858 53.698"/></g><g class="vf-stem" id="vf-auto6057" pointer-events="bounding-box"><path stroke-width="1.5" fill="none" d="M103.493 98L103.493 57.561"/></g><g class="vf-stem" id="vf-auto6065" pointer-events="bounding-box"><path stroke-width="1.5" fill="none" d="M135.382 98L135.382 60.75"/></g><g class="vf-beam" id="vf-auto6140"><path stroke="none" d="M29.008 49.363L29.008 54.363L135.632 64.925L135.632 59.925Z"/><path stroke="none" d="M102.743 64.236L102.743 69.236L93.743 68.236L93.743 63.236Z"/></g><g class="vf-stem" id="vf-auto6073" pointer-events="bounding-box"><path stroke-width="1.5" fill="none" d="M170.482 93L170.482 50.75"/></g><g class="vf-stem" id="vf-auto6082" pointer-events="bounding-box"><path stroke-width="1.5" fill="none" d="M209.116 88L209.116 50.75"/></g><g class="vf-stem" id="vf-auto6090" pointer-events="bounding-box"><path stroke-width="1.5" fill="none" d="M241.005 83L241.005 50.75"/></g><g class="vf-stem" id="vf-auto6098" pointer-events="bounding-box"><path stroke-width="1.5" fill="none" d="M276.105 93L276.105 50.75"/></g><g class="vf-beam" id="vf-auto6141"><path stroke="none" d="M169.732 50L169.732 55L276.355 55L276.355 50Z"/><path stroke="none" d="M208.366 57.5L208.366 62.5L199.366 62.5L199.366 57.5Z"/></g><g class="vf-stem" id="vf-auto6106" pointer-events="bounding-box"><path stroke-width="1.5" fill="none" d="M311.205 98L311.205 60.75"/></g><g class="vf-stem" id="vf-auto6115" pointer-events="bounding-box"><path stroke-width="1.5" fill="none" d="M349.839 98L349.839 58.818"/></g><g class="vf-stem" id="vf-auto6123" pointer-events="bounding-box"><path stroke-width="1.5" fill="none" d="M381.728 93L381.728 57.224"/></g><g class="vf-stem" id="vf-auto6132" pointer-events="bounding-box"><path stroke-width="1.5" fill="none" d="M420.363 88L420.363 55.292"/></g><g class="vf-beam" id="vf-auto6142"><path stroke="none" d="M310.455 60.038L310.455 65.037L420.613 59.58L420.613 54.58Z"/><path stroke="none" d="M349.089 65.606L349.089 70.606L340.089 71.106L340.089 66.106Z"/><path stroke="none" d="M419.613 62.08L419.613 67.08L410.613 67.58L410.613 62.58Z"/></g></svg>