<svg xmlns="http://www.w3.org/2000/svg" stroke-width="0.3" stroke-dasharray="none" fill="black" stroke="black" font-family="Arial, sans-serif" font-size="10pt" font-weight="normal" font-style="normal" width="1500" height="195" viewBox="0 0 1875 243.75" style="width: 1500px; height: 195px; border: none;"><g class="vf-stave" id="vf-auto8323" stroke-width="1" fill="#999999" stroke="#999999"><path fill="none" d="M10 90L510 90"/><path fill="none" d="M10 100L510 100"/><path fill="none" d="M10 110L510 110"/><path fill="none" d="M10 120L510 120"/><path fill="none" d="M10 130L510 130"/></g><g class="vf-stavebarline" id="vf-auto8324"><rect x="10" y="89.5" width="1" height="41" stroke="none"/></g><g class="vf-stavebarline" id="vf-auto8325"><rect x="510" y="89.5" width="1" height="41" stroke="none"/></g><g class="vf-stavenote" id="vf-auto8326"><path stroke-width="1.4" fill="none" stroke="#444" d="M25.618 140L45.126 140"/><g class="vf-notehead" id="vf-auto8330" pointer-events="bounding-box"><path stroke="none" d="M31.763 146.543C32.044 146.599,32.297 146.627,32.577 146.627C36.452 146.627,42.237 141.348,42.125 137.08C42.012 136.041,42.04 134.609,39.934 133.766C39.345 133.485,38.699 133.373,37.997 133.373C33.673 133.373,28.983 138.343,28.646 141.657C28.646 141.909,28.618 142.134,28.618 142.387C28.618 144.409,29.517 146.037,31.763 146.543"/><path stroke="none" d="M33.84 154.487C33.867 154.487,33.867 154.487,33.922 154.46C34.743 154.323,35.536 154.323,36.357 154.241C36.795 154.213,37.068 153.885,37.068 153.557C37.151 152.9,37.26 152.244,37.26 151.532C37.26 151.341,37.26 151.149,37.233 150.93C37.151 150.301,36.904 150,36.439 150C36.33 150,36.193 150,36.084 150.027C35.536 150.109,34.934 150.192,34.387 150.301C34.032 150.383,33.648 150.547,33.594 150.985C33.512 151.997,33.484 153.037,33.484 154.049C33.484 154.241,33.512 154.487,33.84 154.487"/><path stroke="none" d="M27.711 172.832L27.739 172.832C28.259 172.832,28.696 172.695,29.134 172.531C31.596 171.655,33.922 170.397,36.494 169.768C38.19 169.33,39.558 168.263,41.255 167.798C42.24 167.551,43.115 166.813,43.635 165.746C43.717 165.581,43.744 165.472,43.744 165.363C43.744 165.171,43.635 165.007,43.361 164.897C42.294 164.296,41.172 163.776,40.051 163.338C37.233 162.326,34.524 161.231,31.815 160.109C31.596 160.027,31.405 160,31.268 160C30.967 160,30.748 160.109,30.42 160.356C29.627 161.012,29.134 161.943,28.45 162.709C28.313 162.928,28.231 163.064,28.231 163.201C28.231 163.42,28.423 163.612,28.86 163.748C31.542 164.679,34.168 165.718,36.85 166.703C35.263 167.278,33.813 168.208,32.253 168.618C30.283 169.22,28.45 170.014,27.356 171.847C27.246 172.093,27 172.257,27 172.476L27 172.613C27.082 172.804,27.274 172.832,27.438 172.832"/></g></g><g class="vf-stavenote" id="vf-auto8332"><g class="vf-notehead" id="vf-auto8336" pointer-events="bounding-box"><path stroke="none" d="M61.626 141.543C61.907 141.599,62.16 141.627,62.44 141.627C66.315 141.627,72.1 136.348,71.988 132.08C71.875 131.041,71.903 129.609,69.797 128.766C69.208 128.485,68.562 128.373,67.86 128.373C63.535 128.373,58.846 133.343,58.509 136.657C58.509 136.909,58.481 137.134,58.481 137.387C58.481 139.409,59.38 141.037,61.626 141.543"/><path stroke="none" d="M63.703 149.487C63.73 149.487,63.73 149.487,63.785 149.46C64.606 149.323,65.399 149.323,66.22 149.241C66.658 149.213,66.931 148.885,66.931 148.557C67.013 147.9,67.123 147.244,67.123 146.532C67.123 146.341,67.123 146.149,67.096 145.93C67.013 145.301,66.767 145,66.302 145C66.193 145,66.056 145,65.946 145.027C65.399 145.109,64.797 145.192,64.25 145.301C63.894 145.383,63.511 145.547,63.457 145.985C63.375 146.997,63.347 148.037,63.347 149.049C63.347 149.241,63.375 149.487,63.703 149.487"/><path stroke="none" d="M57.574 167.832L57.602 167.832C58.121 167.832,58.559 167.695,58.997 167.531C61.459 166.655,63.785 165.397,66.357 164.768C68.053 164.33,69.421 163.263,71.117 162.798C72.102 162.551,72.978 161.813,73.498 160.746C73.58 160.581,73.607 160.472,73.607 160.363C73.607 160.171,73.498 160.007,73.224 159.897C72.157 159.296,71.035 158.776,69.914 158.338C67.096 157.326,64.387 156.231,61.678 155.109C61.459 155.027,61.268 155,61.131 155C60.83 155,60.611 155.109,60.283 155.356C59.489 156.012,58.997 156.943,58.313 157.709C58.176 157.928,58.094 158.064,58.094 158.201C58.094 158.42,58.286 158.612,58.723 158.748C61.405 159.679,64.031 160.718,66.713 161.703C65.126 162.278,63.676 163.208,62.116 163.618C60.146 164.22,58.313 165.014,57.219 166.847C57.109 167.093,56.863 167.257,56.863 167.476L56.863 167.613C56.945 167.804,57.137 167.832,57.301 167.832"/></g></g><g class="vf-stavenote" id="vf-auto8338"><g class="vf-notehead" id="vf-auto8342" pointer-events="bounding-box"><path stroke="none" d="M91.489 136.543C91.77 136.599,92.022 136.627,92.303 136.627C96.178 136.627,101.963 131.348,101.85 127.08C101.738 126.041,101.766 124.609,99.66 123.766C99.071 123.485,98.425 123.373,97.723 123.373C93.398 123.373,88.709 128.343,88.372 131.657C88.372 131.909,88.344 132.134,88.344 132.387C88.344 134.409,89.243 136.037,91.489 136.543"/><path stroke="none" d="M93.566 144.487C93.593 144.487,93.593 144.487,93.648 144.46C94.469 144.323,95.262 144.323,96.083 144.241C96.521 144.213,96.794 143.885,96.794 143.557C96.876 142.9,96.986 142.244,96.986 141.532C96.986 141.341,96.986 141.149,96.958 140.93C96.876 140.301,96.63 140,96.165 140C96.056 140,95.919 140,95.809 140.027C95.262 140.109,94.66 140.192,94.113 140.301C93.757 140.383,93.374 140.547,93.32 140.985C93.238 141.997,93.21 143.037,93.21 144.049C93.21 144.241,93.238 144.487,93.566 144.487"/><path stroke="none" d="M87.437 162.832L87.465 162.832C87.984 162.832,88.422 162.695,88.86 162.531C91.322 161.655,93.648 160.397,96.22 159.768C97.916 159.33,99.284 158.263,100.98 157.798C101.965 157.551,102.841 156.813,103.361 155.746C103.443 155.581,103.47 155.472,103.47 155.363C103.47 155.171,103.361 155.007,103.087 154.897C102.02 154.296,100.898 153.776,99.777 153.338C96.958 152.326,94.25 151.231,91.541 150.109C91.322 150.027,91.131 150,90.994 150C90.693 150,90.474 150.109,90.146 150.356C89.352 151.012,88.86 151.943,88.176 152.709C88.039 152.928,87.957 153.064,87.957 153.201C87.957 153.42,88.149 153.612,88.586 153.748C91.268 154.679,93.894 155.718,96.575 156.703C94.989 157.278,93.538 158.208,91.979 158.618C90.009 159.22,88.176 160.014,87.082 161.847C86.972 162.093,86.726 162.257,86.726 162.476L86.726 162.613C86.808 162.804,86.999 162.832,87.164 162.832"/></g></g><g class="vf-stavenote" id="vf-auto8344"><g class="vf-notehead" id="vf-auto8348" pointer-events="bounding-box"><path stroke="none" d="M121.352 131.543C121.633 131.599,121.885 131.627,122.166 131.627C126.041 131.627,131.826 126.348,131.713 122.08C131.601 121.041,131.629 119.609,129.523 118.766C128.933 118.485,128.288 118.373,127.586 118.373C123.261 118.373,118.572 123.343,118.235 126.657C118.235 126.909,118.207 127.134,118.207 127.387C118.207 129.409,119.105 131.037,121.352 131.543"/><path stroke="none" d="M123.429 139.487C123.456 139.487,123.456 139.487,123.511 139.46C124.332 139.323,125.125 139.323,125.946 139.241C126.384 139.213,126.657 138.885,126.657 138.557C126.739 137.9,126.849 137.244,126.849 136.532C126.849 136.341,126.849 136.149,126.821 135.93C126.739 135.301,126.493 135,126.028 135C125.919 135,125.782 135,125.672 135.027C125.125 135.109,124.523 135.192,123.976 135.301C123.62 135.383,123.237 135.547,123.183 135.985C123.1 136.997,123.073 138.037,123.073 139.049C123.073 139.241,123.1 139.487,123.429 139.487"/><path stroke="none" d="M117.3 157.832L117.327 157.832C117.847 157.832,118.285 157.695,118.723 157.531C121.185 156.655,123.511 155.397,126.083 154.768C127.779 154.33,129.147 153.263,130.843 152.798C131.828 152.551,132.704 151.813,133.224 150.746C133.306 150.581,133.333 150.472,133.333 150.363C133.333 150.171,133.224 150.007,132.95 149.897C131.883 149.296,130.761 148.776,129.639 148.338C126.821 147.326,124.113 146.231,121.404 145.109C121.185 145.027,120.994 145,120.857 145C120.556 145,120.337 145.109,120.009 145.356C119.215 146.012,118.723 146.943,118.039 147.709C117.902 147.928,117.82 148.064,117.82 148.201C117.82 148.42,118.011 148.612,118.449 148.748C121.131 149.679,123.757 150.718,126.438 151.703C124.851 152.278,123.401 153.208,121.842 153.618C119.872 154.22,118.039 155.014,116.944 156.847C116.835 157.093,116.589 157.257,116.589 157.476L116.589 157.613C116.671 157.804,116.862 157.832,117.027 157.832"/></g></g><g class="vf-stavenote" id="vf-auto8350"><g class="vf-notehead" id="vf-auto8354" pointer-events="bounding-box"><path stroke="none" d="M151.215 126.543C151.496 126.599,151.748 126.627,152.029 126.627C155.904 126.627,161.689 121.348,161.576 117.08C161.464 116.041,161.492 114.609,159.386 113.766C158.796 113.485,158.151 113.373,157.449 113.373C153.124 113.373,148.435 118.343,148.098 121.657C148.098 121.909,148.07 122.134,148.07 122.387C148.07 124.409,148.968 126.037,151.215 126.543"/><path stroke="none" d="M153.292 139.487C153.319 139.487,153.319 139.487,153.374 139.46C154.195 139.323,154.988 139.323,155.809 139.241C156.247 139.213,156.52 138.885,156.52 138.557C156.602 137.9,156.712 137.244,156.712 136.532C156.712 136.341,156.712 136.149,156.684 135.93C156.602 135.301,156.356 135,155.891 135C155.781 135,155.645 135,155.535 135.027C154.988 135.109,154.386 135.192,153.839 135.301C153.483 135.383,153.1 135.547,153.045 135.985C152.963 136.997,152.936 138.037,152.936 139.049C152.936 139.241,152.963 139.487,153.292 139.487"/><path stroke="none" d="M147.163 152.832L147.19 152.832C147.71 152.832,148.148 152.695,148.586 152.531C151.048 151.655,153.374 150.397,155.946 149.768C157.642 149.33,159.01 148.263,160.706 147.798C161.691 147.551,162.567 146.813,163.087 145.746C163.169 145.581,163.196 145.472,163.196 145.363C163.196 145.171,163.087 145.007,162.813 144.897C161.746 144.296,160.624 143.776,159.502 143.338C156.684 142.326,153.976 141.231,151.267 140.109C151.048 140.027,150.857 140,150.72 140C150.419 140,150.2 140.109,149.872 140.356C149.078 141.012,148.586 141.943,147.902 142.709C147.765 142.928,147.683 143.064,147.683 143.201C147.683 143.42,147.874 143.612,148.312 143.748C150.993 144.679,153.62 145.718,156.301 146.703C154.714 147.278,153.264 148.208,151.705 148.618C149.735 149.22,147.902 150.014,146.807 151.847C146.698 152.093,146.452 152.257,146.452 152.476L146.452 152.613C146.534 152.804,146.725 152.832,146.889 152.832"/></g></g><g class="vf-stavenote" id="vf-auto8356"><g class="vf-notehead" id="vf-auto8360" pointer-events="bounding-box"><path stroke="none" d="M181.078 121.543C181.358 121.599,181.611 121.627,181.892 121.627C185.767 121.627,191.552 116.348,191.439 112.08C191.327 111.041,191.355 109.609,189.249 108.766C188.659 108.485,188.013 108.373,187.311 108.373C182.987 108.373,178.298 113.343,177.961 116.657C177.961 116.909,177.933 117.134,177.933 117.387C177.933 119.409,178.831 121.037,181.078 121.543"/><path stroke="none" d="M183.155 127.244C183.182 127.244,183.182 127.244,183.237 127.216C184.057 127.079,184.851 127.079,185.672 126.997C186.109 126.97,186.383 126.642,186.383 126.313C186.465 125.657,186.575 125,186.575 124.289C186.575 124.097,186.575 123.906,186.547 123.687C186.465 123.057,186.219 122.756,185.754 122.756C185.644 122.756,185.508 122.756,185.398 122.784C184.851 122.866,184.249 122.948,183.702 123.057C183.346 123.14,182.963 123.304,182.908 123.741C182.826 124.754,182.799 125.793,182.799 126.806C182.799 126.997,182.826 127.244,183.155 127.244"/><path stroke="none" d="M177.026 147.832L177.053 147.832C177.573 147.832,178.011 147.695,178.449 147.531C180.911 146.655,183.237 145.397,185.809 144.768C187.505 144.33,188.873 143.263,190.569 142.798C191.554 142.551,192.43 141.813,192.949 140.746C193.032 140.581,193.059 140.472,193.059 140.363C193.059 140.171,192.949 140.007,192.676 139.897C191.609 139.296,190.487 138.776,189.365 138.338C186.547 137.326,183.839 136.231,181.13 135.109C180.911 135.027,180.72 135,180.583 135C180.282 135,180.063 135.109,179.735 135.356C178.941 136.012,178.449 136.943,177.765 137.709C177.628 137.928,177.546 138.064,177.546 138.201C177.546 138.42,177.737 138.612,178.175 138.748C180.856 139.679,183.483 140.718,186.164 141.703C184.577 142.278,183.127 143.208,181.568 143.618C179.598 144.22,177.765 145.014,176.67 146.847C176.561 147.093,176.315 147.257,176.315 147.476L176.315 147.613C176.397 147.804,176.588 147.832,176.752 147.832"/></g></g><g class="vf-stavenote" id="vf-auto8362"><g class="vf-notehead" id="vf-auto8366" pointer-events="bounding-box"><path stroke="none" d="M210.941 116.543C211.221 116.599,211.474 116.627,211.755 116.627C215.63 116.627,221.414 111.348,221.302 107.08C221.19 106.041,221.218 104.609,219.112 103.766C218.522 103.485,217.876 103.373,217.174 103.373C212.85 103.373,208.161 108.343,207.824 111.657C207.824 111.909,207.796 112.134,207.796 112.387C207.796 114.409,208.694 116.037,210.941 116.543"/><path stroke="none" d="M213.018 127.244C213.045 127.244,213.045 127.244,213.1 127.216C213.92 127.079,214.714 127.079,215.535 126.997C215.972 126.97,216.246 126.642,216.246 126.313C216.328 125.657,216.438 125,216.438 124.289C216.438 124.097,216.438 123.906,216.41 123.687C216.328 123.057,216.082 122.756,215.617 122.756C215.507 122.756,215.37 122.756,215.261 122.784C214.714 122.866,214.112 122.948,213.565 123.057C213.209 123.14,212.826 123.304,212.771 123.741C212.689 124.754,212.662 125.793,212.662 126.806C212.662 126.997,212.689 127.244,213.018 127.244"/><path stroke="none" d="M206.889 147.832L206.916 147.832C207.436 147.832,207.874 147.695,208.312 147.531C210.774 146.655,213.1 145.397,215.671 144.768C217.368 144.33,218.736 143.263,220.432 142.798C221.417 142.551,222.293 141.813,222.812 140.746C222.894 140.581,222.922 140.472,222.922 140.363C222.922 140.171,222.812 140.007,222.539 139.897C221.472 139.296,220.35 138.776,219.228 138.338C216.41 137.326,213.702 136.231,210.993 135.109C210.774 135.027,210.582 135,210.446 135C210.145 135,209.926 135.109,209.598 135.356C208.804 136.012,208.312 136.943,207.628 137.709C207.491 137.928,207.409 138.064,207.409 138.201C207.409 138.42,207.6 138.612,208.038 138.748C210.719 139.679,213.346 140.718,216.027 141.703C214.44 142.278,212.99 143.208,211.431 143.618C209.461 144.22,207.628 145.014,206.533 146.847C206.424 147.093,206.178 147.257,206.178 147.476L206.178 147.613C206.26 147.804,206.451 147.832,206.615 147.832"/></g></g><g class="vf-stavenote" id="vf-auto8368"><g class="vf-notehead" id="vf-auto8372" pointer-events="bounding-box"><path stroke="none" d="M240.804 111.543C241.084 111.599,241.337 111.627,241.618 111.627C245.493 111.627,251.277 106.348,251.165 102.08C251.053 101.041,251.081 99.609,248.975 98.766C248.385 98.485,247.739 98.373,247.037 98.373C242.713 98.373,238.024 103.343,237.687 106.657C237.687 106.909,237.659 107.134,237.659 107.387C237.659 109.409,238.557 111.037,240.804 111.543"/><path stroke="none" d="M242.88 117.244C242.908 117.244,242.908 117.244,242.963 117.216C243.783 117.079,244.577 117.079,245.398 116.997C245.835 116.97,246.109 116.642,246.109 116.313C246.191 115.657,246.3 115,246.3 114.289C246.3 114.097,246.3 113.906,246.273 113.687C246.191 113.057,245.945 112.756,245.48 112.756C245.37 112.756,245.233 112.756,245.124 112.784C244.577 112.866,243.975 112.948,243.428 113.057C243.072 113.14,242.689 113.304,242.634 113.741C242.552 114.754,242.525 115.793,242.525 116.806C242.525 116.997,242.552 117.244,242.88 117.244"/><path stroke="none" d="M236.752 131.416L236.779 131.416C237.299 131.416,237.737 131.279,238.175 131.115C240.637 130.239,242.963 128.981,245.534 128.352C247.231 127.914,248.599 126.847,250.295 126.382C251.28 126.135,252.156 125.397,252.675 124.33C252.757 124.166,252.785 124.056,252.785 123.947C252.785 123.755,252.675 123.591,252.402 123.482C251.335 122.88,250.213 122.36,249.091 121.922C246.273 120.91,243.564 119.815,240.856 118.694C240.637 118.611,240.445 118.584,240.309 118.584C240.008 118.584,239.789 118.694,239.46 118.94C238.667 119.596,238.175 120.527,237.491 121.293C237.354 121.512,237.272 121.648,237.272 121.785C237.272 122.004,237.463 122.196,237.901 122.332C240.582 123.263,243.209 124.302,245.89 125.287C244.303 125.862,242.853 126.792,241.294 127.202C239.324 127.804,237.491 128.598,236.396 130.431C236.287 130.677,236.04 130.841,236.04 131.06L236.04 131.197C236.123 131.389,236.314 131.416,236.478 131.416"/></g></g><g class="vf-stavenote" id="vf-auto8374"><g class="vf-notehead" id="vf-auto8378" pointer-events="bounding-box"><path stroke="none" d="M270.666 106.543C270.947 106.599,271.2 106.627,271.481 106.627C275.356 106.627,281.14 101.348,281.028 97.08C280.916 96.041,280.944 94.609,278.838 93.766C278.248 93.485,277.602 93.373,276.9 93.373C272.576 93.373,267.887 98.343,267.55 101.657C267.55 101.909,267.521 102.134,267.521 102.387C267.521 104.409,268.42 106.037,270.666 106.543"/><path stroke="none" d="M272.743 146.747C272.771 146.747,272.771 146.747,272.825 146.72C273.646 146.583,274.44 146.583,275.261 146.501C275.698 146.474,275.972 146.145,275.972 145.817C276.054 145.16,276.163 144.504,276.163 143.792C276.163 143.601,276.163 143.409,276.136 143.19C276.054 142.561,275.808 142.26,275.343 142.26C275.233 142.26,275.096 142.26,274.987 142.287C274.44 142.37,273.838 142.452,273.291 142.561C272.935 142.643,272.552 142.807,272.497 143.245C272.415 144.257,272.388 145.297,272.388 146.309C272.388 146.501,272.415 146.747,272.743 146.747"/><path stroke="none" d="M266.615 165.092L266.642 165.092C267.162 165.092,267.6 164.955,268.037 164.791C270.5 163.915,272.825 162.657,275.397 162.028C277.094 161.59,278.462 160.523,280.158 160.058C281.143 159.811,282.018 159.073,282.538 158.006C282.62 157.842,282.648 157.732,282.648 157.623C282.648 157.431,282.538 157.267,282.265 157.158C281.198 156.556,280.076 156.036,278.954 155.598C276.136 154.586,273.427 153.491,270.719 152.37C270.5 152.287,270.308 152.26,270.172 152.26C269.871 152.26,269.652 152.37,269.323 152.616C268.53 153.272,268.037 154.203,267.353 154.969C267.217 155.188,267.135 155.324,267.135 155.461C267.135 155.68,267.326 155.872,267.764 156.008C270.445 156.939,273.072 157.978,275.753 158.963C274.166 159.538,272.716 160.468,271.157 160.879C269.187 161.48,267.353 162.274,266.259 164.107C266.15 164.353,265.903 164.517,265.903 164.736L265.903 164.873C265.985 165.065,266.177 165.092,266.341 165.092"/></g></g><g class="vf-stavenote" id="vf-auto8380"><g class="vf-notehead" id="vf-auto8384" pointer-events="bounding-box"><path stroke="none" d="M300.529 101.543C300.81 101.599,301.063 101.627,301.344 101.627C305.219 101.627,311.003 96.348,310.891 92.08C310.779 91.041,310.807 89.609,308.701 88.766C308.111 88.485,307.465 88.373,306.763 88.373C302.439 88.373,297.749 93.343,297.413 96.657C297.413 96.909,297.384 97.134,297.384 97.387C297.384 99.409,298.283 101.037,300.529 101.543"/><path stroke="none" d="M302.606 144.281C302.634 144.281,302.634 144.281,302.688 144.254C303.509 144.117,304.303 144.117,305.123 144.035C305.561 144.008,305.835 143.68,305.835 143.351C305.917 142.695,306.026 142.038,306.026 141.327C306.026 141.135,306.026 140.944,305.999 140.725C305.917 140.095,305.671 139.794,305.206 139.794C305.096 139.794,304.959 139.794,304.85 139.822C304.303 139.904,303.701 139.986,303.154 140.095C302.798 140.177,302.415 140.342,302.36 140.779C302.278 141.792,302.251 142.831,302.251 143.844C302.251 144.035,302.278 144.281,302.606 144.281"/><path stroke="none" d="M296.478 162.626L296.505 162.626C297.025 162.626,297.463 162.489,297.9 162.325C300.363 161.45,302.688 160.191,305.26 159.562C306.957 159.124,308.325 158.057,310.021 157.592C311.006 157.346,311.881 156.607,312.401 155.54C312.483 155.376,312.511 155.266,312.511 155.157C312.511 154.965,312.401 154.801,312.128 154.692C311.061 154.09,309.939 153.57,308.817 153.132C305.999 152.12,303.29 151.026,300.582 149.904C300.363 149.822,300.171 149.794,300.034 149.794C299.734 149.794,299.515 149.904,299.186 150.15C298.393 150.807,297.9 151.737,297.216 152.503C297.08 152.722,296.998 152.859,296.998 152.996C296.998 153.214,297.189 153.406,297.627 153.543C300.308 154.473,302.935 155.513,305.616 156.498C304.029 157.072,302.579 158.002,301.019 158.413C299.05 159.015,297.216 159.808,296.122 161.641C296.013 161.888,295.766 162.052,295.766 162.271L295.766 162.407C295.848 162.599,296.04 162.626,296.204 162.626"/></g></g><g class="vf-stavenote" id="vf-auto8386"><g class="vf-notehead" id="vf-auto8390" pointer-events="bounding-box"><path stroke="none" d="M330.392 96.543C330.673 96.599,330.926 96.627,331.207 96.627C335.082 96.627,340.866 91.348,340.754 87.08C340.642 86.041,340.67 84.609,338.564 83.766C337.974 83.485,337.328 83.373,336.626 83.373C332.302 83.373,327.612 88.343,327.275 91.657C327.275 91.909,327.247 92.134,327.247 92.387C327.247 94.409,328.146 96.037,330.392 96.543"/><path stroke="none" d="M332.469 139.487C332.497 139.487,332.497 139.487,332.551 139.46C333.372 139.323,334.166 139.323,334.986 139.241C335.424 139.213,335.698 138.885,335.698 138.557C335.78 137.9,335.889 137.244,335.889 136.532C335.889 136.341,335.889 136.149,335.862 135.93C335.78 135.301,335.534 135,335.068 135C334.959 135,334.822 135,334.713 135.027C334.166 135.109,333.564 135.192,333.016 135.301C332.661 135.383,332.278 135.547,332.223 135.985C332.141 136.997,332.114 138.037,332.114 139.049C332.114 139.241,332.141 139.487,332.469 139.487"/><path stroke="none" d="M326.341 157.832L326.368 157.832C326.888 157.832,327.326 157.695,327.763 157.531C330.226 156.655,332.551 155.397,335.123 154.768C336.819 154.33,338.187 153.263,339.884 152.798C340.869 152.551,341.744 151.813,342.264 150.746C342.346 150.581,342.374 150.472,342.374 150.363C342.374 150.171,342.264 150.007,341.991 149.897C340.923 149.296,339.802 148.776,338.68 148.338C335.862 147.326,333.153 146.231,330.445 145.109C330.226 145.027,330.034 145,329.897 145C329.596 145,329.378 145.109,329.049 145.356C328.256 146.012,327.763 146.943,327.079 147.709C326.943 147.928,326.86 148.064,326.86 148.201C326.86 148.42,327.052 148.612,327.49 148.748C330.171 149.679,332.798 150.718,335.479 151.703C333.892 152.278,332.442 153.208,330.882 153.618C328.912 154.22,327.079 155.014,325.985 156.847C325.875 157.093,325.629 157.257,325.629 157.476L325.629 157.613C325.711 157.804,325.903 157.832,326.067 157.832"/></g></g><g class="vf-stavenote" id="vf-auto8392"><g class="vf-notehead" id="vf-auto8396" pointer-events="bounding-box"><path stroke="none" d="M360.255 91.543C360.536 91.599,360.789 91.627,361.07 91.627C364.945 91.627,370.729 86.348,370.617 82.08C370.504 81.041,370.533 79.609,368.427 78.766C367.837 78.485,367.191 78.373,366.489 78.373C362.165 78.373,357.475 83.343,357.138 86.657C357.138 86.909,357.11 87.134,357.11 87.387C357.11 89.409,358.009 91.037,360.255 91.543"/><path stroke="none" d="M362.332 139.487C362.36 139.487,362.36 139.487,362.414 139.46C363.235 139.323,364.028 139.323,364.849 139.241C365.287 139.213,365.561 138.885,365.561 138.557C365.643 137.9,365.752 137.244,365.752 136.532C365.752 136.341,365.752 136.149,365.725 135.93C365.643 135.301,365.396 135,364.931 135C364.822 135,364.685 135,364.576 135.027C364.028 135.109,363.427 135.192,362.879 135.301C362.524 135.383,362.141 135.547,362.086 135.985C362.004 136.997,361.976 138.037,361.976 139.049C361.976 139.241,362.004 139.487,362.332 139.487"/><path stroke="none" d="M356.204 152.832L356.231 152.832C356.751 152.832,357.188 152.695,357.626 152.531C360.089 151.655,362.414 150.397,364.986 149.768C366.682 149.33,368.05 148.263,369.747 147.798C370.732 147.551,371.607 146.813,372.127 145.746C372.209 145.581,372.236 145.472,372.236 145.363C372.236 145.171,372.127 145.007,371.853 144.897C370.786 144.296,369.665 143.776,368.543 143.338C365.725 142.326,363.016 141.231,360.308 140.109C360.089 140.027,359.897 140,359.76 140C359.459 140,359.24 140.109,358.912 140.356C358.119 141.012,357.626 141.943,356.942 142.709C356.805 142.928,356.723 143.064,356.723 143.201C356.723 143.42,356.915 143.612,357.353 143.748C360.034 144.679,362.66 145.718,365.342 146.703C363.755 147.278,362.305 148.208,360.745 148.618C358.775 149.22,356.942 150.014,355.848 151.847C355.738 152.093,355.492 152.257,355.492 152.476L355.492 152.613C355.574 152.804,355.766 152.832,355.93 152.832"/></g></g><g class="vf-stavenote" id="vf-auto8398"><path stroke-width="1.4" fill="none" stroke="#444" d="M383.973 80L403.481 80"/><g class="vf-notehead" id="vf-auto8402" pointer-events="bounding-box"><path stroke="none" d="M390.118 86.543C390.399 86.599,390.652 86.627,390.932 86.627C394.808 86.627,400.592 81.348,400.48 77.08C400.367 76.041,400.395 74.609,398.289 73.766C397.7 73.485,397.054 73.373,396.352 73.373C392.028 73.373,387.338 78.343,387.001 81.657C387.001 81.909,386.973 82.134,386.973 82.387C386.973 84.409,387.872 86.037,390.118 86.543"/><path stroke="none" d="M392.195 139.487C392.222 139.487,392.222 139.487,392.277 139.46C393.098 139.323,393.891 139.323,394.712 139.241C395.15 139.213,395.424 138.885,395.424 138.557C395.506 137.9,395.615 137.244,395.615 136.532C395.615 136.341,395.615 136.149,395.588 135.93C395.506 135.301,395.259 135,394.794 135C394.685 135,394.548 135,394.439 135.027C393.891 135.109,393.289 135.192,392.742 135.301C392.387 135.383,392.004 135.547,391.949 135.985C391.867 136.997,391.839 138.037,391.839 139.049C391.839 139.241,391.867 139.487,392.195 139.487"/><path stroke="none" d="M386.066 150.229L386.094 150.229C386.614 150.229,387.051 150.092,387.489 149.928C389.952 149.053,392.277 147.794,394.849 147.165C396.545 146.727,397.913 145.66,399.61 145.195C400.595 144.949,401.47 144.21,401.99 143.143C402.072 142.979,402.099 142.869,402.099 142.76C402.099 142.568,401.99 142.404,401.716 142.295C400.649 141.693,399.528 141.173,398.406 140.735C395.588 139.723,392.879 138.628,390.17 137.507C389.952 137.425,389.76 137.397,389.623 137.397C389.322 137.397,389.103 137.507,388.775 137.753C387.982 138.41,387.489 139.34,386.805 140.106C386.668 140.325,386.586 140.462,386.586 140.598C386.586 140.817,386.778 141.009,387.216 141.146C389.897 142.076,392.523 143.115,395.205 144.1C393.618 144.675,392.168 145.605,390.608 146.016C388.638 146.618,386.805 147.411,385.711 149.244C385.601 149.49,385.355 149.654,385.355 149.873L385.355 150.01C385.437 150.202,385.629 150.229,385.793 150.229"/></g></g><g class="vf-stavenote" id="vf-auto8404"><path stroke-width="1.4" fill="none" stroke="#444" d="M413.836 80L433.344 80"/><g class="vf-notehead" id="vf-auto8408" pointer-events="bounding-box"><path stroke="none" d="M419.981 81.543C420.262 81.599,420.515 81.627,420.795 81.627C424.67 81.627,430.455 76.348,430.343 72.08C430.23 71.041,430.258 69.609,428.152 68.766C427.563 68.485,426.917 68.373,426.215 68.373C421.891 68.373,417.201 73.343,416.864 76.657C416.864 76.909,416.836 77.134,416.836 77.387C416.836 79.409,417.735 81.037,419.981 81.543"/><path stroke="none" d="M422.058 127.244C422.085 127.244,422.085 127.244,422.14 127.216C422.961 127.079,423.754 127.079,424.575 126.997C425.013 126.97,425.286 126.642,425.286 126.313C425.369 125.657,425.478 125,425.478 124.289C425.478 124.097,425.478 123.906,425.451 123.687C425.369 123.057,425.122 122.756,424.657 122.756C424.548 122.756,424.411 122.756,424.302 122.784C423.754 122.866,423.152 122.948,422.605 123.057C422.25 123.14,421.866 123.304,421.812 123.741C421.73 124.754,421.702 125.793,421.702 126.806C421.702 126.997,421.73 127.244,422.058 127.244"/><path stroke="none" d="M415.929 147.832L415.957 147.832C416.477 147.832,416.914 147.695,417.352 147.531C419.814 146.655,422.14 145.397,424.712 144.768C426.408 144.33,427.776 143.263,429.473 142.798C430.458 142.551,431.333 141.813,431.853 140.746C431.935 140.581,431.962 140.472,431.962 140.363C431.962 140.171,431.853 140.007,431.579 139.897C430.512 139.296,429.39 138.776,428.269 138.338C425.451 137.326,422.742 136.231,420.033 135.109C419.814 135.027,419.623 135,419.486 135C419.185 135,418.966 135.109,418.638 135.356C417.845 136.012,417.352 136.943,416.668 137.709C416.531 137.928,416.449 138.064,416.449 138.201C416.449 138.42,416.641 138.612,417.078 138.748C419.76 139.679,422.386 140.718,425.068 141.703C423.481 142.278,422.031 143.208,420.471 143.618C418.501 144.22,416.668 145.014,415.574 146.847C415.464 147.093,415.218 147.257,415.218 147.476L415.218 147.613C415.3 147.804,415.492 147.832,415.656 147.832"/></g></g><g class="vf-stavenote" id="vf-auto8410"><path stroke-width="1.4" fill="none" stroke="#444" d="M443.699 80L463.207 80"/><path stroke-width="1.4" fill="none" stroke="#444" d="M443.699 70L463.207 70"/><g class="vf-notehead" id="vf-auto8414" pointer-events="bounding-box"><path stroke="none" d="M449.844 76.543C450.125 76.599,450.378 76.627,450.658 76.627C454.533 76.627,460.318 71.348,460.206 67.08C460.093 66.041,460.121 64.609,458.015 63.766C457.426 63.485,456.78 63.373,456.078 63.373C451.753 63.373,447.064 68.343,446.727 71.657C446.727 71.909,446.699 72.134,446.699 72.387C446.699 74.409,447.598 76.037,449.844 76.543"/><path stroke="none" d="M451.921 127.244C451.948 127.244,451.948 127.244,452.003 127.216C452.824 127.079,453.617 127.079,454.438 126.997C454.876 126.97,455.149 126.642,455.149 126.313C455.231 125.657,455.341 125,455.341 124.289C455.341 124.097,455.341 123.906,455.314 123.687C455.231 123.057,454.985 122.756,454.52 122.756C454.411 122.756,454.274 122.756,454.164 122.784C453.617 122.866,453.015 122.948,452.468 123.057C452.112 123.14,451.729 123.304,451.675 123.741C451.593 124.754,451.565 125.793,451.565 126.806C451.565 126.997,451.593 127.244,451.921 127.244"/><path stroke="none" d="M445.792 147.832L445.82 147.832C446.339 147.832,446.777 147.695,447.215 147.531C449.677 146.655,452.003 145.397,454.575 144.768C456.271 144.33,457.639 143.263,459.335 142.798C460.32 142.551,461.196 141.813,461.716 140.746C461.798 140.581,461.825 140.472,461.825 140.363C461.825 140.171,461.716 140.007,461.442 139.897C460.375 139.296,459.253 138.776,458.132 138.338C455.314 137.326,452.605 136.231,449.896 135.109C449.677 135.027,449.486 135,449.349 135C449.048 135,448.829 135.109,448.501 135.356C447.707 136.012,447.215 136.943,446.531 137.709C446.394 137.928,446.312 138.064,446.312 138.201C446.312 138.42,446.504 138.612,446.941 138.748C449.623 139.679,452.249 140.718,454.931 141.703C453.344 142.278,451.894 143.208,450.334 143.618C448.364 144.22,446.531 145.014,445.437 146.847C445.327 147.093,445.081 147.257,445.081 147.476L445.081 147.613C445.163 147.804,445.355 147.832,445.519 147.832"/></g></g><g class="vf-stavenote" id="vf-auto8416"><path stroke-width="1.4" fill="none" stroke="#444" d="M473.562 80L493.07 80"/><path stroke-width="1.4" fill="none" stroke="#444" d="M473.562 70L493.07 70"/><g class="vf-notehead" id="vf-auto8420" pointer-events="bounding-box"><path stroke="none" d="M479.707 71.543C479.988 71.599,480.24 71.627,480.521 71.627C484.396 71.627,490.181 66.348,490.068 62.08C489.956 61.041,489.984 59.609,487.878 58.766C487.289 58.485,486.643 58.373,485.941 58.373C481.616 58.373,476.927 63.343,476.59 66.657C476.59 66.909,476.562 67.134,476.562 67.387C476.562 69.409,477.461 71.037,479.707 71.543"/><path stroke="none" d="M481.784 117.244C481.811 117.244,481.811 117.244,481.866 117.216C482.687 117.079,483.48 117.079,484.301 116.997C484.739 116.97,485.012 116.642,485.012 116.313C485.094 115.657,485.204 115,485.204 114.289C485.204 114.097,485.204 113.906,485.176 113.687C485.094 113.057,484.848 112.756,484.383 112.756C484.274 112.756,484.137 112.756,484.027 112.784C483.48 112.866,482.878 112.948,482.331 113.057C481.975 113.14,481.592 113.304,481.538 113.741C481.456 114.754,481.428 115.793,481.428 116.806C481.428 116.997,481.456 117.244,481.784 117.244"/><path stroke="none" d="M475.655 131.416L475.683 131.416C476.202 131.416,476.64 131.279,477.078 131.115C479.54 130.239,481.866 128.981,484.438 128.352C486.134 127.914,487.502 126.847,489.198 126.382C490.183 126.135,491.059 125.397,491.579 124.33C491.661 124.166,491.688 124.056,491.688 123.947C491.688 123.755,491.579 123.591,491.305 123.482C490.238 122.88,489.116 122.36,487.995 121.922C485.176 120.91,482.468 119.815,479.759 118.694C479.54 118.611,479.349 118.584,479.212 118.584C478.911 118.584,478.692 118.694,478.364 118.94C477.57 119.596,477.078 120.527,476.394 121.293C476.257 121.512,476.175 121.648,476.175 121.785C476.175 122.004,476.367 122.196,476.804 122.332C479.486 123.263,482.112 124.302,484.793 125.287C483.207 125.862,481.756 126.792,480.197 127.202C478.227 127.804,476.394 128.598,475.3 130.431C475.19 130.677,474.944 130.841,474.944 131.06L474.944 131.197C475.026 131.389,475.217 131.416,475.382 131.416"/><path stroke="none" d="M482.519 156.852C484.106 156.496,485.474 155.785,486.787 154.882C489.66 152.912,491.192 149.985,492.615 146.948C493.272 145.607,493.627 144.212,493.518 142.707C493.463 142.269,493.463 141.64,492.998 141.64C492.56 141.64,492.095 141.886,491.931 142.433C491.904 142.652,491.794 142.816,491.657 143.008C490.837 145.033,489.824 146.92,488.484 148.617C487.225 150.231,485.638 151.408,483.696 152.037C483.148 152.228,482.601 152.31,482.081 152.31C480.604 152.31,479.263 151.599,478.032 150.587C476.144 149.055,474.995 147.194,474.995 144.923C474.995 144.403,475.05 143.884,475.159 143.336C475.241 142.789,475.406 142.187,475.406 141.613C475.406 141.448,475.406 141.257,475.351 141.093C475.269 140.737,475.351 140.135,474.968 140.053C474.448 140.026,474.01 140.354,473.819 140.901C473.764 141.093,473.709 141.257,473.655 141.448C473.354 142.953,473.025 144.431,473.107 146.127C473.135 149.547,473.846 152.83,476.965 155.156C478.36 156.168,479.756 156.962,481.425 156.962C481.78 156.962,482.136 156.934,482.519 156.852M484.462 145.224C484.845 145.279,485.009 145.06,485.009 144.321C485.009 142.379,483.477 140.764,481.534 140.764C480.96 140.764,480.549 140.983,480.522 141.284C480.467 141.531,480.467 141.722,480.467 141.914C480.467 143.528,481.37 144.677,483.066 145.033"/></g></g><g class="vf-stem" id="vf-auto8327" pointer-events="bounding-box"><path stroke-width="1.5" fill="none" d="M41.376 138L41.376 105.75"/></g><g class="vf-stem" id="vf-auto8333" pointer-events="bounding-box"><path stroke-width="1.5" fill="none" d="M71.239 133L71.239 100.524"/></g><g class="vf-stem" id="vf-auto8339" pointer-events="bounding-box"><path stroke-width="1.5" fill="none" d="M101.102 128L101.102 95.298"/></g><g class="vf-stem" id="vf-auto8345" pointer-events="bounding-box"><path stroke-width="1.5" fill="none" d="M130.965 123L130.965 90.072"/></g><g class="vf-stem" id="vf-auto8351" pointer-events="bounding-box"><path stroke-width="1.5" fill="none" d="M160.828 118L160.828 84.846"/></g><g class="vf-stem" id="vf-auto8357" pointer-events="bounding-box"><path stroke-width="1.5" fill="none" d="M190.691 113L190.691 79.62"/></g><g class="vf-stem" id="vf-auto8363" pointer-events="bounding-box"><path stroke-width="1.5" fill="none" d="M220.554 108L220.554 74.394"/></g><g class="vf-stem" id="vf-auto8369" pointer-events="bounding-box"><path stroke-width="1.5" fill="none" d="M250.417 103L250.417 69.168"/></g><g class="vf-beam" id="vf-auto8521"><path stroke="none" d="M40.626 105.131L40.626 110.131L250.667 73.549L250.667 68.549Z"/><path stroke="none" d="M40.626 112.631L40.626 117.631L250.667 81.049L250.667 76.049Z"/></g><g class="vf-stem" id="vf-auto8375" pointer-events="bounding-box"><path stroke-width="1.5" fill="none" d="M268.271 102L268.271 135.38"/></g><g class="vf-stem" id="vf-auto8381" pointer-events="bounding-box"><path stroke-width="1.5" fill="none" d="M298.134 97L298.134 131.647"/></g><g class="vf-stem" id="vf-auto8387" pointer-events="bounding-box"><path stroke-width="1.5" fill="none" d="M327.997 92L327.997 127.914"/></g><g class="vf-stem" id="vf-auto8393" pointer-events="bounding-box"><path stroke-width="1.5" fill="none" d="M357.86 87L357.86 124.181"/></g><g class="vf-stem" id="vf-auto8399" pointer-events="bounding-box"><path stroke-width="1.5" fill="none" d="M387.723 82L387.723 120.449"/></g><g class="vf-stem" id="vf-auto8405" pointer-events="bounding-box"><path stroke-width="1.5" fill="none" d="M417.586 77L417.586 116.716"/></g><g class="vf-stem" id="vf-auto8411" pointer-events="bounding-box"><path stroke-width="1.5" fill="none" d="M447.449 72L447.449 112.983"/></g><g class="vf-stem" id="vf-auto8417" pointer-events="bounding-box"><path stroke-width="1.5" fill="none" d="M477.312 67L477.312 109.25"/></g><g class="vf-beam" id="vf-auto8522"><path stroke="none" d="M267.521 136.224L267.521 131.224L477.562 105.094L477.562 110.094Z"/><path stroke="none" d="M267.521 128.724L267.521 123.724L477.562 97.594L477.562 102.594Z"/></g><g class="vf-stave" id="vf-auto8524" stroke-width="1" fill="#999999" stroke="#999999"><path fill="none" d="M510 90L1010 90"/><path fill="none" d="M510 100L1010 100"/><path fill="none" d="M510 110L1010 110"/><path fill="none" d="M510 120L1010 120"/><path fill="none" d="M510 130L1010 130"/></g><g class="vf-stavebarline" id="vf-auto8525"><rect x="510" y="89.5" width="1" height="41" stroke="none"/></g><g class="vf-stavebarline" id="vf-auto8526"><rect x="1010" y="89.5" width="1" height="41" stroke="none"/></g><g class="vf-stavenote" id="vf-auto8527"><path stroke-width="1.4" fill="none" stroke="#444" d="M526.522 140L546.03 140"/><path stroke-width="1.4" fill="none" stroke="#444" d="M526.522 150L546.03 150"/><path stroke-width="1.4" fill="none" stroke="#444" d="M526.522 160L546.03 160"/><g class="vf-notehead" id="vf-auto8531" pointer-events="bounding-box"><path stroke="none" d="M532.667 166.543C532.948 166.599,533.201 166.627,533.481 166.627C537.357 166.627,543.141 161.348,543.029 157.08C542.916 156.041,542.944 154.609,540.838 153.766C540.249 153.485,539.603 153.373,538.901 153.373C534.577 153.373,529.887 158.343,529.55 161.657C529.55 161.909,529.522 162.134,529.522 162.387C529.522 164.409,530.421 166.037,532.667 166.543"/><path stroke="none" d="M530.754 106.108C531.274 106.108,531.903 106.081,532.396 106.081C534.338 106.081,536.253 105.944,538.196 105.944C538.825 105.944,539.564 105.944,540.193 105.999C540.905 106.026,541.616 106.108,542.218 106.108C543.093 106.108,543.996 106.026,544.817 105.834C545.118 105.78,545.556 105.834,545.556 105.369C545.611 104.877,545.392 104.658,544.899 104.494C543.586 104.111,542.327 104.111,540.987 104.056C538.661 103.974,536.336 103.892,533.983 103.892C533.08 103.892,532.286 103.947,531.383 103.947L527.991 103.947C527.662 103.974,527.197 103.782,527.033 104.166C526.924 104.576,527.252 104.932,527.526 105.233C527.717 105.451,527.991 105.561,528.237 105.67C529.085 106.026,529.961 106.108,530.754 106.108"/><path stroke="none" d="M541.53 85C541.831 85,542.16 84.836,542.433 84.644C543.418 83.906,543.883 82.784,544.075 81.607C544.075 80.978,543.801 80.458,543.446 79.993C541.804 77.75,539.561 75.971,538.22 73.454C538.165 73.263,538.056 73.071,537.946 72.907L537.946 72.852C537.782 72.524,537.509 72.305,537.18 72.278L537.016 72.168C536.524 71.867,536.25 72.387,535.976 72.715C535.648 73.016,535.402 73.372,535.101 73.7C533.322 75.616,531.544 77.503,530.012 79.637C529.191 80.787,528.835 82.127,528.507 83.468C528.37 84.042,528.726 84.453,529.218 84.453C529.355 84.453,529.492 84.453,529.629 84.371C530.094 84.207,530.45 83.933,530.778 83.55C532.338 81.58,533.76 79.528,535.457 77.64C535.648 78.023,535.758 78.379,536.004 78.735C537.344 80.869,539.15 82.647,540.737 84.617C540.956 84.891,541.257 85,541.53 85"/></g></g><g class="vf-stavenote" id="vf-auto8533"><path stroke-width="1.4" fill="none" stroke="#444" d="M556.325 140L575.833 140"/><path stroke-width="1.4" fill="none" stroke="#444" d="M556.325 150L575.833 150"/><g class="vf-notehead" id="vf-auto8537" pointer-events="bounding-box"><path stroke="none" d="M562.47 161.543C562.751 161.599,563.004 161.627,563.284 161.627C567.159 161.627,572.944 156.348,572.832 152.08C572.719 151.041,572.747 149.609,570.641 148.766C570.052 148.485,569.406 148.373,568.704 148.373C564.38 148.373,559.69 153.343,559.353 156.657C559.353 156.909,559.325 157.134,559.325 157.387C559.325 159.409,560.224 161.037,562.47 161.543"/><path stroke="none" d="M560.557 96.108C561.077 96.108,561.706 96.081,562.199 96.081C564.141 96.081,566.056 95.944,567.999 95.944C568.628 95.944,569.367 95.944,569.996 95.999C570.708 96.026,571.419 96.108,572.021 96.108C572.896 96.108,573.799 96.026,574.62 95.834C574.921 95.78,575.359 95.834,575.359 95.369C575.413 94.877,575.195 94.658,574.702 94.494C573.389 94.111,572.13 94.111,570.79 94.056C568.464 93.974,566.138 93.892,563.785 93.892C562.883 93.892,562.089 93.947,561.186 93.947L557.794 93.947C557.465 93.974,557 93.782,556.836 94.166C556.727 94.576,557.055 94.932,557.328 95.233C557.52 95.451,557.794 95.561,558.04 95.67C558.888 96.026,559.764 96.108,560.557 96.108"/><path stroke="none" d="M571.333 85C571.634 85,571.963 84.836,572.236 84.644C573.221 83.906,573.686 82.784,573.878 81.607C573.878 80.978,573.604 80.458,573.249 79.993C571.607 77.75,569.363 75.971,568.023 73.454C567.968 73.263,567.859 73.071,567.749 72.907L567.749 72.852C567.585 72.524,567.311 72.305,566.983 72.278L566.819 72.168C566.326 71.867,566.053 72.387,565.779 72.715C565.451 73.016,565.205 73.372,564.904 73.7C563.125 75.616,561.347 77.503,559.815 79.637C558.994 80.787,558.638 82.127,558.31 83.468C558.173 84.042,558.529 84.453,559.021 84.453C559.158 84.453,559.295 84.453,559.432 84.371C559.897 84.207,560.253 83.933,560.581 83.55C562.14 81.58,563.563 79.528,565.259 77.64C565.451 78.023,565.56 78.379,565.807 78.735C567.147 80.869,568.953 82.647,570.54 84.617C570.759 84.891,571.06 85,571.333 85"/></g></g><g class="vf-stavenote" id="vf-auto8539"><path stroke-width="1.4" fill="none" stroke="#444" d="M586.128 140L605.636 140"/><path stroke-width="1.4" fill="none" stroke="#444" d="M586.128 150L605.636 150"/><g class="vf-notehead" id="vf-auto8543" pointer-events="bounding-box"><path stroke="none" d="M592.273 156.543C592.554 156.599,592.806 156.627,593.087 156.627C596.962 156.627,602.747 151.348,602.634 147.08C602.522 146.041,602.55 144.609,600.444 143.766C599.855 143.485,599.209 143.373,598.507 143.373C594.182 143.373,589.493 148.343,589.156 151.657C589.156 151.909,589.128 152.134,589.128 152.387C589.128 154.409,590.027 156.037,592.273 156.543"/><path stroke="none" d="M590.36 96.108C590.88 96.108,591.509 96.081,592.001 96.081C593.944 96.081,595.859 95.944,597.802 95.944C598.431 95.944,599.17 95.944,599.799 95.999C600.51 96.026,601.222 96.108,601.824 96.108C602.699 96.108,603.602 96.026,604.423 95.834C604.724 95.78,605.162 95.834,605.162 95.369C605.216 94.877,604.997 94.658,604.505 94.494C603.192 94.111,601.933 94.111,600.592 94.056C598.267 93.974,595.941 93.892,593.588 93.892C592.685 93.892,591.892 93.947,590.989 93.947L587.596 93.947C587.268 93.974,586.803 93.782,586.639 94.166C586.529 94.576,586.858 94.932,587.131 95.233C587.323 95.451,587.596 95.561,587.843 95.67C588.691 96.026,589.566 96.108,590.36 96.108"/><path stroke="none" d="M601.136 85C601.437 85,601.766 84.836,602.039 84.644C603.024 83.906,603.489 82.784,603.681 81.607C603.681 80.978,603.407 80.458,603.051 79.993C601.41 77.75,599.166 75.971,597.826 73.454C597.771 73.263,597.662 73.071,597.552 72.907L597.552 72.852C597.388 72.524,597.114 72.305,596.786 72.278L596.622 72.168C596.129 71.867,595.856 72.387,595.582 72.715C595.254 73.016,595.008 73.372,594.707 73.7C592.928 75.616,591.15 77.503,589.618 79.637C588.797 80.787,588.441 82.127,588.113 83.468C587.976 84.042,588.332 84.453,588.824 84.453C588.961 84.453,589.098 84.453,589.235 84.371C589.7 84.207,590.055 83.933,590.384 83.55C591.943 81.58,593.366 79.528,595.062 77.64C595.254 78.023,595.363 78.379,595.61 78.735C596.95 80.869,598.756 82.647,600.343 84.617C600.562 84.891,600.863 85,601.136 85"/></g></g><g class="vf-stavenote" id="vf-auto8545"><path stroke-width="1.4" fill="none" stroke="#444" d="M615.931 140L635.439 140"/><g class="vf-notehead" id="vf-auto8549" pointer-events="bounding-box"><path stroke="none" d="M622.076 151.543C622.357 151.599,622.609 151.627,622.89 151.627C626.765 151.627,632.55 146.348,632.437 142.08C632.325 141.041,632.353 139.609,630.247 138.766C629.657 138.485,629.012 138.373,628.31 138.373C623.985 138.373,619.296 143.343,618.959 146.657C618.959 146.909,618.931 147.134,618.931 147.387C618.931 149.409,619.829 151.037,622.076 151.543"/><path stroke="none" d="M620.163 96.108C620.683 96.108,621.312 96.081,621.804 96.081C623.747 96.081,625.662 95.944,627.605 95.944C628.234 95.944,628.973 95.944,629.602 95.999C630.313 96.026,631.025 96.108,631.627 96.108C632.502 96.108,633.405 96.026,634.226 95.834C634.527 95.78,634.964 95.834,634.964 95.369C635.019 94.877,634.8 94.658,634.308 94.494C632.995 94.111,631.736 94.111,630.395 94.056C628.07 93.974,625.744 93.892,623.391 93.892C622.488 93.892,621.695 93.947,620.792 93.947L617.399 93.947C617.071 93.974,616.606 93.782,616.442 94.166C616.332 94.576,616.661 94.932,616.934 95.233C617.126 95.451,617.399 95.561,617.646 95.67C618.494 96.026,619.369 96.108,620.163 96.108"/><path stroke="none" d="M630.939 85C631.24 85,631.568 84.836,631.842 84.644C632.827 83.906,633.292 82.784,633.484 81.607C633.484 80.978,633.21 80.458,632.854 79.993C631.213 77.75,628.969 75.971,627.629 73.454C627.574 73.263,627.464 73.071,627.355 72.907L627.355 72.852C627.191 72.524,626.917 72.305,626.589 72.278L626.425 72.168C625.932 71.867,625.659 72.387,625.385 72.715C625.057 73.016,624.81 73.372,624.51 73.7C622.731 75.616,620.953 77.503,619.421 79.637C618.6 80.787,618.244 82.127,617.916 83.468C617.779 84.042,618.135 84.453,618.627 84.453C618.764 84.453,618.901 84.453,619.038 84.371C619.503 84.207,619.858 83.933,620.187 83.55C621.746 81.58,623.169 79.528,624.865 77.64C625.057 78.023,625.166 78.379,625.412 78.735C626.753 80.869,628.559 82.647,630.146 84.617C630.365 84.891,630.666 85,630.939 85"/></g></g><g class="vf-stavenote" id="vf-auto8551"><path stroke-width="1.4" fill="none" stroke="#444" d="M645.734 140L665.242 140"/><g class="vf-notehead" id="vf-auto8555" pointer-events="bounding-box"><path stroke="none" d="M651.879 146.543C652.16 146.599,652.412 146.627,652.693 146.627C656.568 146.627,662.353 141.348,662.24 137.08C662.128 136.041,662.156 134.609,660.05 133.766C659.46 133.485,658.814 133.373,658.112 133.373C653.788 133.373,649.099 138.343,648.762 141.657C648.762 141.909,648.734 142.134,648.734 142.387C648.734 144.409,649.632 146.037,651.879 146.543"/><path stroke="none" d="M649.966 85C650.485 85,651.115 84.973,651.607 84.973C653.55 84.973,655.465 84.836,657.408 84.836C658.037 84.836,658.776 84.836,659.405 84.891C660.116 84.918,660.828 85,661.429 85C662.305 85,663.208 84.918,664.029 84.726C664.33 84.672,664.767 84.726,664.767 84.261C664.822 83.769,664.603 83.55,664.111 83.386C662.797 83.003,661.539 83.003,660.198 82.948C657.873 82.866,655.547 82.784,653.194 82.784C652.291 82.784,651.498 82.839,650.595 82.839L647.202 82.839C646.874 82.866,646.409 82.674,646.245 83.057C646.135 83.468,646.464 83.824,646.737 84.124C646.929 84.343,647.202 84.453,647.448 84.562C648.297 84.918,649.172 85,649.966 85"/><path stroke="none" d="M660.742 81.158C661.043 81.158,661.371 80.994,661.645 80.802C662.63 80.063,663.095 78.942,663.286 77.765C663.286 77.136,663.013 76.616,662.657 76.151C661.016 73.907,658.772 72.129,657.431 69.612C657.377 69.42,657.267 69.229,657.158 69.065L657.158 69.01C656.994 68.682,656.72 68.463,656.392 68.435L656.228 68.326C655.735 68.025,655.462 68.545,655.188 68.873C654.86 69.174,654.613 69.53,654.312 69.858C652.534 71.773,650.756 73.661,649.223 75.795C648.403 76.944,648.047 78.285,647.719 79.626C647.582 80.2,647.938 80.61,648.43 80.61C648.567 80.61,648.704 80.61,648.84 80.528C649.306 80.364,649.661 80.091,649.99 79.708C651.549 77.738,652.972 75.686,654.668 73.798C654.86 74.181,654.969 74.537,655.215 74.892C656.556 77.026,658.362 78.805,659.949 80.775C660.167 81.048,660.468 81.158,660.742 81.158"/></g></g><g class="vf-stavenote" id="vf-auto8557"><g class="vf-notehead" id="vf-auto8561" pointer-events="bounding-box"><path stroke="none" d="M681.682 141.543C681.962 141.599,682.215 141.627,682.496 141.627C686.371 141.627,692.155 136.348,692.043 132.08C691.931 131.041,691.959 129.609,689.853 128.766C689.263 128.485,688.617 128.373,687.915 128.373C683.591 128.373,678.902 133.343,678.565 136.657C678.565 136.909,678.537 137.134,678.537 137.387C678.537 139.409,679.435 141.037,681.682 141.543"/><path stroke="none" d="M679.769 85C680.288 85,680.918 84.973,681.41 84.973C683.353 84.973,685.268 84.836,687.21 84.836C687.84 84.836,688.578 84.836,689.208 84.891C689.919 84.918,690.63 85,691.232 85C692.108 85,693.011 84.918,693.832 84.726C694.133 84.672,694.57 84.726,694.57 84.261C694.625 83.769,694.406 83.55,693.914 83.386C692.6 83.003,691.342 83.003,690.001 82.948C687.676 82.866,685.35 82.784,682.997 82.784C682.094 82.784,681.301 82.839,680.398 82.839L677.005 82.839C676.677 82.866,676.212 82.674,676.048 83.057C675.938 83.468,676.266 83.824,676.54 84.124C676.732 84.343,677.005 84.453,677.251 84.562C678.1 84.918,678.975 85,679.769 85"/><path stroke="none" d="M690.545 80C690.846 80,691.174 79.836,691.448 79.644C692.433 78.906,692.898 77.784,693.089 76.607C693.089 75.978,692.816 75.458,692.46 74.993C690.818 72.75,688.575 70.971,687.234 68.454C687.18 68.263,687.07 68.071,686.961 67.907L686.961 67.852C686.797 67.524,686.523 67.305,686.195 67.278L686.03 67.168C685.538 66.867,685.264 67.387,684.991 67.715C684.662 68.016,684.416 68.372,684.115 68.7C682.337 70.616,680.558 72.503,679.026 74.637C678.206 75.787,677.85 77.127,677.522 78.468C677.385 79.042,677.74 79.453,678.233 79.453C678.37 79.453,678.506 79.453,678.643 79.371C679.108 79.207,679.464 78.933,679.792 78.55C681.352 76.58,682.775 74.528,684.471 72.64C684.662 73.023,684.772 73.379,685.018 73.735C686.359 75.869,688.165 77.647,689.751 79.617C689.97 79.891,690.271 80,690.545 80"/></g></g><g class="vf-stavenote" id="vf-auto8563"><g class="vf-notehead" id="vf-auto8567" pointer-events="bounding-box"><path stroke="none" d="M711.484 136.543C711.765 136.599,712.018 136.627,712.299 136.627C716.174 136.627,721.958 131.348,721.846 127.08C721.734 126.041,721.762 124.609,719.656 123.766C719.066 123.485,718.42 123.373,717.718 123.373C713.394 123.373,708.705 128.343,708.368 131.657C708.368 131.909,708.34 132.134,708.34 132.387C708.34 134.409,709.238 136.037,711.484 136.543"/><path stroke="none" d="M709.571 85C710.091 85,710.721 84.973,711.213 84.973C713.156 84.973,715.071 84.836,717.013 84.836C717.643 84.836,718.381 84.836,719.011 84.891C719.722 84.918,720.433 85,721.035 85C721.911 85,722.814 84.918,723.634 84.726C723.935 84.672,724.373 84.726,724.373 84.261C724.428 83.769,724.209 83.55,723.717 83.386C722.403 83.003,721.145 83.003,719.804 82.948C717.478 82.866,715.153 82.784,712.8 82.784C711.897 82.784,711.104 82.839,710.201 82.839L706.808 82.839C706.48 82.866,706.015 82.674,705.85 83.057C705.741 83.468,706.069 83.824,706.343 84.124C706.534 84.343,706.808 84.453,707.054 84.562C707.902 84.918,708.778 85,709.571 85"/><path stroke="none" d="M720.348 75C720.649 75,720.977 74.836,721.251 74.644C722.236 73.906,722.701 72.784,722.892 71.607C722.892 70.978,722.619 70.458,722.263 69.993C720.621 67.75,718.378 65.971,717.037 63.454C716.983 63.263,716.873 63.071,716.764 62.907L716.764 62.852C716.599 62.524,716.326 62.305,715.998 62.278L715.833 62.168C715.341 61.867,715.067 62.387,714.794 62.715C714.465 63.016,714.219 63.372,713.918 63.7C712.14 65.616,710.361 67.503,708.829 69.637C708.008 70.787,707.653 72.127,707.324 73.468C707.188 74.042,707.543 74.453,708.036 74.453C708.173 74.453,708.309 74.453,708.446 74.371C708.911 74.207,709.267 73.933,709.595 73.55C711.155 71.58,712.578 69.528,714.274 67.64C714.465 68.023,714.575 68.379,714.821 68.735C716.162 70.869,717.967 72.647,719.554 74.617C719.773 74.891,720.074 75,720.348 75"/></g></g><g class="vf-stavenote" id="vf-auto8569"><g class="vf-notehead" id="vf-auto8573" pointer-events="bounding-box"><path stroke="none" d="M741.287 131.543C741.568 131.599,741.821 131.627,742.102 131.627C745.977 131.627,751.761 126.348,751.649 122.08C751.537 121.041,751.565 119.609,749.459 118.766C748.869 118.485,748.223 118.373,747.521 118.373C743.197 118.373,738.507 123.343,738.17 126.657C738.17 126.909,738.142 127.134,738.142 127.387C738.142 129.409,739.041 131.037,741.287 131.543"/><path stroke="none" d="M739.374 83.276C739.894 83.276,740.523 83.249,741.016 83.249C742.958 83.249,744.874 83.112,746.816 83.112C747.445 83.112,748.184 83.112,748.813 83.167C749.525 83.194,750.236 83.276,750.838 83.276C751.714 83.276,752.617 83.194,753.437 83.002C753.738 82.948,754.176 83.002,754.176 82.537C754.231 82.045,754.012 81.826,753.519 81.662C752.206 81.279,750.948 81.279,749.607 81.224C747.281 81.142,744.956 81.06,742.603 81.06C741.7 81.06,740.906 81.115,740.004 81.115L736.611 81.115C736.283 81.142,735.817 80.95,735.653 81.333C735.544 81.744,735.872 82.099,736.146 82.4C736.337 82.619,736.611 82.729,736.857 82.838C737.705 83.194,738.581 83.276,739.374 83.276"/><path stroke="none" d="M750.151 73.276C750.452 73.276,750.78 73.112,751.054 72.92C752.039 72.182,752.504 71.06,752.695 69.883C752.695 69.254,752.422 68.734,752.066 68.269C750.424 66.026,748.181 64.247,746.84 61.73C746.785 61.539,746.676 61.347,746.567 61.183L746.567 61.128C746.402 60.8,746.129 60.581,745.8 60.554L745.636 60.444C745.144 60.143,744.87 60.663,744.597 60.991C744.268 61.292,744.022 61.648,743.721 61.976C741.943 63.891,740.164 65.779,738.632 67.913C737.811 69.063,737.456 70.403,737.127 71.744C736.991 72.318,737.346 72.729,737.839 72.729C737.975 72.729,738.112 72.729,738.249 72.647C738.714 72.483,739.07 72.209,739.398 71.826C740.958 69.856,742.38 67.804,744.077 65.916C744.268 66.299,744.378 66.655,744.624 67.011C745.965 69.145,747.77 70.923,749.357 72.893C749.576 73.167,749.877 73.276,750.151 73.276"/></g></g><g class="vf-stavenote" id="vf-auto8575"><g class="vf-notehead" id="vf-auto8579" pointer-events="bounding-box"><path stroke="none" d="M771.09 126.543C771.371 126.599,771.624 126.627,771.905 126.627C775.78 126.627,781.564 121.348,781.452 117.08C781.339 116.041,781.368 114.609,779.262 113.766C778.672 113.485,778.026 113.373,777.324 113.373C773 113.373,768.31 118.343,767.973 121.657C767.973 121.909,767.945 122.134,767.945 122.387C767.945 124.409,768.844 126.037,771.09 126.543"/><path stroke="none" d="M769.177 106.108C769.697 106.108,770.326 106.081,770.819 106.081C772.761 106.081,774.677 105.944,776.619 105.944C777.248 105.944,777.987 105.944,778.616 105.999C779.328 106.026,780.039 106.108,780.641 106.108C781.517 106.108,782.419 106.026,783.24 105.834C783.541 105.78,783.979 105.834,783.979 105.369C784.034 104.877,783.815 104.658,783.322 104.494C782.009 104.111,780.75 104.111,779.41 104.056C777.084 103.974,774.759 103.892,772.406 103.892C771.503 103.892,770.709 103.947,769.806 103.947L766.414 103.947C766.085 103.974,765.62 103.782,765.456 104.166C765.347 104.576,765.675 104.932,765.949 105.233C766.14 105.451,766.414 105.561,766.66 105.67C767.508 106.026,768.384 106.108,769.177 106.108"/><path stroke="none" d="M779.954 85C780.255 85,780.583 84.836,780.856 84.644C781.841 83.906,782.307 82.784,782.498 81.607C782.498 80.978,782.224 80.458,781.869 79.993C780.227 77.75,777.984 75.971,776.643 73.454C776.588 73.263,776.479 73.071,776.369 72.907L776.369 72.852C776.205 72.524,775.932 72.305,775.603 72.278L775.439 72.168C774.947 71.867,774.673 72.387,774.399 72.715C774.071 73.016,773.825 73.372,773.524 73.7C771.746 75.616,769.967 77.503,768.435 79.637C767.614 80.787,767.259 82.127,766.93 83.468C766.793 84.042,767.149 84.453,767.642 84.453C767.778 84.453,767.915 84.453,768.052 84.371C768.517 84.207,768.873 83.933,769.201 83.55C770.761 81.58,772.183 79.528,773.88 77.64C774.071 78.023,774.181 78.379,774.427 78.735C775.767 80.869,777.573 82.647,779.16 84.617C779.379 84.891,779.68 85,779.954 85"/></g></g><g class="vf-stavenote" id="vf-auto8581"><g class="vf-notehead" id="vf-auto8585" pointer-events="bounding-box"><path stroke="none" d="M800.893 121.543C801.174 121.599,801.427 121.627,801.707 121.627C805.583 121.627,811.367 116.348,811.255 112.08C811.142 111.041,811.17 109.609,809.064 108.766C808.475 108.485,807.829 108.373,807.127 108.373C802.803 108.373,798.113 113.343,797.776 116.657C797.776 116.909,797.748 117.134,797.748 117.387C797.748 119.409,798.647 121.037,800.893 121.543"/><path stroke="none" d="M798.98 106.108C799.5 106.108,800.129 106.081,800.622 106.081C802.564 106.081,804.479 105.944,806.422 105.944C807.051 105.944,807.79 105.944,808.419 105.999C809.131 106.026,809.842 106.108,810.444 106.108C811.319 106.108,812.222 106.026,813.043 105.834C813.344 105.78,813.782 105.834,813.782 105.369C813.837 104.877,813.618 104.658,813.125 104.494C811.812 104.111,810.553 104.111,809.213 104.056C806.887 103.974,804.561 103.892,802.209 103.892C801.306 103.892,800.512 103.947,799.609 103.947L796.217 103.947C795.888 103.974,795.423 103.782,795.259 104.166C795.15 104.576,795.478 104.932,795.752 105.233C795.943 105.451,796.217 105.561,796.463 105.67C797.311 106.026,798.187 106.108,798.98 106.108"/><path stroke="none" d="M809.756 85C810.057 85,810.386 84.836,810.659 84.644C811.644 83.906,812.109 82.784,812.301 81.607C812.301 80.978,812.027 80.458,811.672 79.993C810.03 77.75,807.787 75.971,806.446 73.454C806.391 73.263,806.282 73.071,806.172 72.907L806.172 72.852C806.008 72.524,805.735 72.305,805.406 72.278L805.242 72.168C804.75 71.867,804.476 72.387,804.202 72.715C803.874 73.016,803.628 73.372,803.327 73.7C801.548 75.616,799.77 77.503,798.238 79.637C797.417 80.787,797.061 82.127,796.733 83.468C796.596 84.042,796.952 84.453,797.444 84.453C797.581 84.453,797.718 84.453,797.855 84.371C798.32 84.207,798.676 83.933,799.004 83.55C800.563 81.58,801.986 79.528,803.683 77.64C803.874 78.023,803.983 78.379,804.23 78.735C805.57 80.869,807.376 82.647,808.963 84.617C809.182 84.891,809.483 85,809.756 85"/></g></g><g class="vf-stavenote" id="vf-auto8587"><g class="vf-notehead" id="vf-auto8591" pointer-events="bounding-box"><path stroke="none" d="M830.696 116.543C830.977 116.599,831.23 116.627,831.51 116.627C835.385 116.627,841.17 111.348,841.058 107.08C840.945 106.041,840.973 104.609,838.867 103.766C838.278 103.485,837.632 103.373,836.93 103.373C832.605 103.373,827.916 108.343,827.579 111.657C827.579 111.909,827.551 112.134,827.551 112.387C827.551 114.409,828.45 116.037,830.696 116.543"/><path stroke="none" d="M828.783 96.108C829.303 96.108,829.932 96.081,830.425 96.081C832.367 96.081,834.282 95.944,836.225 95.944C836.854 95.944,837.593 95.944,838.222 95.999C838.933 96.026,839.645 96.108,840.247 96.108C841.122 96.108,842.025 96.026,842.846 95.834C843.147 95.78,843.585 95.834,843.585 95.369C843.639 94.877,843.421 94.658,842.928 94.494C841.615 94.111,840.356 94.111,839.016 94.056C836.69 93.974,834.364 93.892,832.011 93.892C831.109 93.892,830.315 93.947,829.412 93.947L826.02 93.947C825.691 93.974,825.226 93.782,825.062 94.166C824.953 94.576,825.281 94.932,825.554 95.233C825.746 95.451,826.02 95.561,826.266 95.67C827.114 96.026,827.989 96.108,828.783 96.108"/><path stroke="none" d="M839.559 85C839.86 85,840.189 84.836,840.462 84.644C841.447 83.906,841.912 82.784,842.104 81.607C842.104 80.978,841.83 80.458,841.475 79.993C839.833 77.75,837.589 75.971,836.249 73.454C836.194 73.263,836.085 73.071,835.975 72.907L835.975 72.852C835.811 72.524,835.537 72.305,835.209 72.278L835.045 72.168C834.552 71.867,834.279 72.387,834.005 72.715C833.677 73.016,833.431 73.372,833.13 73.7C831.351 75.616,829.573 77.503,828.041 79.637C827.22 80.787,826.864 82.127,826.536 83.468C826.399 84.042,826.755 84.453,827.247 84.453C827.384 84.453,827.521 84.453,827.658 84.371C828.123 84.207,828.479 83.933,828.807 83.55C830.366 81.58,831.789 79.528,833.485 77.64C833.677 78.023,833.786 78.379,834.033 78.735C835.373 80.869,837.179 82.647,838.766 84.617C838.985 84.891,839.286 85,839.559 85"/></g></g><g class="vf-stavenote" id="vf-auto8593"><g class="vf-notehead" id="vf-auto8597" pointer-events="bounding-box"><path stroke="none" d="M860.499 111.543C860.78 111.599,861.032 111.627,861.313 111.627C865.188 111.627,870.973 106.348,870.86 102.08C870.748 101.041,870.776 99.609,868.67 98.766C868.081 98.485,867.435 98.373,866.733 98.373C862.408 98.373,857.719 103.343,857.382 106.657C857.382 106.909,857.354 107.134,857.354 107.387C857.354 109.409,858.253 111.037,860.499 111.543"/><path stroke="none" d="M858.586 96.108C859.106 96.108,859.735 96.081,860.227 96.081C862.17 96.081,864.085 95.944,866.028 95.944C866.657 95.944,867.396 95.944,868.025 95.999C868.736 96.026,869.448 96.108,870.05 96.108C870.925 96.108,871.828 96.026,872.649 95.834C872.95 95.78,873.388 95.834,873.388 95.369C873.442 94.877,873.223 94.658,872.731 94.494C871.418 94.111,870.159 94.111,868.818 94.056C866.493 93.974,864.167 93.892,861.814 93.892C860.911 93.892,860.118 93.947,859.215 93.947L855.822 93.947C855.494 93.974,855.029 93.782,854.865 94.166C854.755 94.576,855.084 94.932,855.357 95.233C855.549 95.451,855.822 95.561,856.069 95.67C856.917 96.026,857.792 96.108,858.586 96.108"/><path stroke="none" d="M869.362 85C869.663 85,869.991 84.836,870.265 84.644C871.25 83.906,871.715 82.784,871.907 81.607C871.907 80.978,871.633 80.458,871.277 79.993C869.636 77.75,867.392 75.971,866.052 73.454C865.997 73.263,865.887 73.071,865.778 72.907L865.778 72.852C865.614 72.524,865.34 72.305,865.012 72.278L864.848 72.168C864.355 71.867,864.082 72.387,863.808 72.715C863.48 73.016,863.234 73.372,862.933 73.7C861.154 75.616,859.376 77.503,857.844 79.637C857.023 80.787,856.667 82.127,856.339 83.468C856.202 84.042,856.558 84.453,857.05 84.453C857.187 84.453,857.324 84.453,857.461 84.371C857.926 84.207,858.281 83.933,858.61 83.55C860.169 81.58,861.592 79.528,863.288 77.64C863.48 78.023,863.589 78.379,863.835 78.735C865.176 80.869,866.982 82.647,868.569 84.617C868.788 84.891,869.089 85,869.362 85"/></g></g><g class="vf-stavenote" id="vf-auto8599"><g class="vf-notehead" id="vf-auto8603" pointer-events="bounding-box"><path stroke="none" d="M890.302 106.543C890.583 106.599,890.835 106.627,891.116 106.627C894.991 106.627,900.776 101.348,900.663 97.08C900.551 96.041,900.579 94.609,898.473 93.766C897.883 93.485,897.238 93.373,896.536 93.373C892.211 93.373,887.522 98.343,887.185 101.657C887.185 101.909,887.157 102.134,887.157 102.387C887.157 104.409,888.055 106.037,890.302 106.543"/><path stroke="none" d="M888.389 85C888.909 85,889.538 84.973,890.03 84.973C891.973 84.973,893.888 84.836,895.831 84.836C896.46 84.836,897.199 84.836,897.828 84.891C898.539 84.918,899.251 85,899.853 85C900.728 85,901.631 84.918,902.452 84.726C902.753 84.672,903.19 84.726,903.19 84.261C903.245 83.769,903.026 83.55,902.534 83.386C901.221 83.003,899.962 83.003,898.621 82.948C896.296 82.866,893.97 82.784,891.617 82.784C890.714 82.784,889.921 82.839,889.018 82.839L885.625 82.839C885.297 82.866,884.832 82.674,884.668 83.057C884.558 83.468,884.887 83.824,885.16 84.124C885.352 84.343,885.625 84.453,885.872 84.562C886.72 84.918,887.595 85,888.389 85"/><path stroke="none" d="M899.165 80C899.466 80,899.794 79.836,900.068 79.644C901.053 78.906,901.518 77.784,901.71 76.607C901.71 75.978,901.436 75.458,901.08 74.993C899.439 72.75,897.195 70.971,895.855 68.454C895.8 68.263,895.69 68.071,895.581 67.907L895.581 67.852C895.417 67.524,895.143 67.305,894.815 67.278L894.651 67.168C894.158 66.867,893.885 67.387,893.611 67.715C893.283 68.016,893.036 68.372,892.735 68.7C890.957 70.616,889.179 72.503,887.647 74.637C886.826 75.787,886.47 77.127,886.142 78.468C886.005 79.042,886.361 79.453,886.853 79.453C886.99 79.453,887.127 79.453,887.263 79.371C887.729 79.207,888.084 78.933,888.413 78.55C889.972 76.58,891.395 74.528,893.091 72.64C893.283 73.023,893.392 73.379,893.638 73.735C894.979 75.869,896.785 77.647,898.372 79.617C898.591 79.891,898.891 80,899.165 80"/></g></g><g class="vf-stavenote" id="vf-auto8605"><g class="vf-notehead" id="vf-auto8609" pointer-events="bounding-box"><path stroke="none" d="M920.105 101.543C920.385 101.599,920.638 101.627,920.919 101.627C924.794 101.627,930.579 96.348,930.466 92.08C930.354 91.041,930.382 89.609,928.276 88.766C927.686 88.485,927.04 88.373,926.338 88.373C922.014 88.373,917.325 93.343,916.988 96.657C916.988 96.909,916.96 97.134,916.96 97.387C916.96 99.409,917.858 101.037,920.105 101.543"/><path stroke="none" d="M918.192 85C918.711 85,919.341 84.973,919.833 84.973C921.776 84.973,923.691 84.836,925.634 84.836C926.263 84.836,927.002 84.836,927.631 84.891C928.342 84.918,929.054 85,929.655 85C930.531 85,931.434 84.918,932.255 84.726C932.556 84.672,932.993 84.726,932.993 84.261C933.048 83.769,932.829 83.55,932.337 83.386C931.023 83.003,929.765 83.003,928.424 82.948C926.099 82.866,923.773 82.784,921.42 82.784C920.517 82.784,919.724 82.839,918.821 82.839L915.428 82.839C915.1 82.866,914.635 82.674,914.471 83.057C914.361 83.468,914.69 83.824,914.963 84.124C915.155 84.343,915.428 84.453,915.674 84.562C916.523 84.918,917.398 85,918.192 85"/><path stroke="none" d="M928.968 75C929.269 75,929.597 74.836,929.871 74.644C930.856 73.906,931.321 72.784,931.512 71.607C931.512 70.978,931.239 70.458,930.883 69.993C929.242 67.75,926.998 65.971,925.657 63.454C925.603 63.263,925.493 63.071,925.384 62.907L925.384 62.852C925.22 62.524,924.946 62.305,924.618 62.278L924.454 62.168C923.961 61.867,923.687 62.387,923.414 62.715C923.086 63.016,922.839 63.372,922.538 63.7C920.76 65.616,918.982 67.503,917.449 69.637C916.629 70.787,916.273 72.127,915.945 73.468C915.808 74.042,916.163 74.453,916.656 74.453C916.793 74.453,916.93 74.453,917.066 74.371C917.531 74.207,917.887 73.933,918.215 73.55C919.775 71.58,921.198 69.528,922.894 67.64C923.086 68.023,923.195 68.379,923.441 68.735C924.782 70.869,926.588 72.647,928.175 74.617C928.393 74.891,928.694 75,928.968 75"/></g></g><g class="vf-stavenote" id="vf-auto8611"><g class="vf-notehead" id="vf-auto8615" pointer-events="bounding-box"><path stroke="none" d="M949.908 96.543C950.188 96.599,950.441 96.627,950.722 96.627C954.597 96.627,960.381 91.348,960.269 87.08C960.157 86.041,960.185 84.609,958.079 83.766C957.489 83.485,956.843 83.373,956.141 83.373C951.817 83.373,947.128 88.343,946.791 91.657C946.791 91.909,946.763 92.134,946.763 92.387C946.763 94.409,947.661 96.037,949.908 96.543"/><path stroke="none" d="M947.994 80C948.514 80,949.144 79.973,949.636 79.973C951.579 79.973,953.494 79.836,955.436 79.836C956.066 79.836,956.804 79.836,957.434 79.891C958.145 79.918,958.856 80,959.458 80C960.334 80,961.237 79.918,962.058 79.726C962.358 79.672,962.796 79.726,962.796 79.261C962.851 78.769,962.632 78.55,962.14 78.386C960.826 78.003,959.568 78.003,958.227 77.948C955.902 77.866,953.576 77.784,951.223 77.784C950.32 77.784,949.527 77.839,948.624 77.839L945.231 77.839C944.903 77.866,944.438 77.674,944.274 78.057C944.164 78.468,944.492 78.824,944.766 79.124C944.958 79.343,945.231 79.453,945.477 79.562C946.326 79.918,947.201 80,947.994 80"/><path stroke="none" d="M958.771 70C959.072 70,959.4 69.836,959.674 69.644C960.659 68.906,961.124 67.784,961.315 66.607C961.315 65.978,961.042 65.458,960.686 64.993C959.044 62.75,956.801 60.971,955.46 58.454C955.406 58.263,955.296 58.071,955.187 57.907L955.187 57.852C955.023 57.524,954.749 57.305,954.421 57.278L954.256 57.168C953.764 56.867,953.49 57.387,953.217 57.715C952.888 58.016,952.642 58.372,952.341 58.7C950.563 60.616,948.784 62.503,947.252 64.637C946.431 65.787,946.076 67.127,945.747 68.468C945.611 69.042,945.966 69.453,946.459 69.453C946.596 69.453,946.732 69.453,946.869 69.371C947.334 69.207,947.69 68.933,948.018 68.55C949.578 66.58,951.001 64.528,952.697 62.64C952.888 63.023,952.998 63.379,953.244 63.735C954.585 65.869,956.391 67.647,957.977 69.617C958.196 69.891,958.497 70,958.771 70"/></g></g><g class="vf-stavenote" id="vf-auto8617"><g class="vf-notehead" id="vf-auto8621" pointer-events="bounding-box"><path stroke="none" d="M979.71 91.543C979.991 91.599,980.244 91.627,980.525 91.627C984.4 91.627,990.184 86.348,990.072 82.08C989.96 81.041,989.988 79.609,987.882 78.766C987.292 78.485,986.646 78.373,985.944 78.373C981.62 78.373,976.931 83.343,976.594 86.657C976.594 86.909,976.565 87.134,976.565 87.387C976.565 89.409,977.464 91.037,979.71 91.543"/><path stroke="none" d="M977.797 75C978.317 75,978.946 74.973,979.439 74.973C981.382 74.973,983.297 74.836,985.239 74.836C985.869 74.836,986.607 74.836,987.237 74.891C987.948 74.918,988.659 75,989.261 75C990.137 75,991.04 74.918,991.86 74.726C992.161 74.672,992.599 74.726,992.599 74.261C992.654 73.769,992.435 73.55,991.942 73.386C990.629 73.003,989.371 73.003,988.03 72.948C985.704 72.866,983.379 72.784,981.026 72.784C980.123 72.784,979.33 72.839,978.427 72.839L975.034 72.839C974.706 72.866,974.241 72.674,974.076 73.057C973.967 73.468,974.295 73.824,974.569 74.124C974.76 74.343,975.034 74.453,975.28 74.562C976.128 74.918,977.004 75,977.797 75"/><path stroke="none" d="M988.574 65C988.875 65,989.203 64.836,989.477 64.644C990.462 63.906,990.927 62.784,991.118 61.607C991.118 60.978,990.845 60.458,990.489 59.993C988.847 57.75,986.604 55.971,985.263 53.454C985.208 53.263,985.099 53.071,984.99 52.907L984.99 52.852C984.825 52.524,984.552 52.305,984.224 52.278L984.059 52.168C983.567 51.867,983.293 52.387,983.02 52.715C982.691 53.016,982.445 53.372,982.144 53.7C980.366 55.616,978.587 57.503,977.055 59.637C976.234 60.787,975.879 62.127,975.55 63.468C975.414 64.042,975.769 64.453,976.262 64.453C976.399 64.453,976.535 64.453,976.672 64.371C977.137 64.207,977.493 63.933,977.821 63.55C979.381 61.58,980.804 59.528,982.5 57.64C982.691 58.023,982.801 58.379,983.047 58.735C984.388 60.869,986.193 62.647,987.78 64.617C987.999 64.891,988.3 65,988.574 65"/><path stroke="none" d="M982.523 151.852C984.11 151.496,985.478 150.785,986.791 149.882C989.664 147.912,991.196 144.985,992.619 141.948C993.275 140.607,993.631 139.212,993.521 137.707C993.467 137.269,993.467 136.64,993.002 136.64C992.564 136.64,992.099 136.886,991.935 137.433C991.907 137.652,991.798 137.816,991.661 138.008C990.84 140.033,989.828 141.92,988.487 143.617C987.229 145.231,985.642 146.408,983.699 147.037C983.152 147.228,982.605 147.31,982.085 147.31C980.607 147.31,979.267 146.599,978.036 145.587C976.148 144.055,974.999 142.194,974.999 139.923C974.999 139.403,975.053 138.884,975.163 138.336C975.245 137.789,975.409 137.187,975.409 136.613C975.409 136.448,975.409 136.257,975.354 136.093C975.272 135.737,975.354 135.135,974.971 135.053C974.451 135.026,974.014 135.354,973.822 135.901C973.767 136.093,973.713 136.257,973.658 136.448C973.357 137.953,973.029 139.431,973.111 141.127C973.138 144.547,973.85 147.83,976.969 150.156C978.364 151.168,979.759 151.962,981.428 151.962C981.784 151.962,982.14 151.934,982.523 151.852M984.465 140.224C984.848 140.279,985.012 140.06,985.012 139.321C985.012 137.379,983.48 135.764,981.538 135.764C980.963 135.764,980.553 135.983,980.525 136.284C980.471 136.531,980.471 136.722,980.471 136.914C980.471 138.528,981.374 139.677,983.07 140.033"/></g></g><g class="vf-stem" id="vf-auto8528" pointer-events="bounding-box"><path stroke-width="1.5" fill="none" d="M542.28 158L542.28 110.75"/></g><g class="vf-stem" id="vf-auto8534" pointer-events="bounding-box"><path stroke-width="1.5" fill="none" d="M572.083 153L572.083 107.77"/></g><g class="vf-stem" id="vf-auto8540" pointer-events="bounding-box"><path stroke-width="1.5" fill="none" d="M601.886 148L601.886 104.789"/></g><g class="vf-stem" id="vf-auto8546" pointer-events="bounding-box"><path stroke-width="1.5" fill="none" d="M631.689 143L631.689 101.809"/></g><g class="vf-stem" id="vf-auto8552" pointer-events="bounding-box"><path stroke-width="1.5" fill="none" d="M661.492 138L661.492 98.829"/></g><g class="vf-stem" id="vf-auto8558" pointer-events="bounding-box"><path stroke-width="1.5" fill="none" d="M691.295 133L691.295 95.849"/></g><g class="vf-stem" id="vf-auto8564" pointer-events="bounding-box"><path stroke-width="1.5" fill="none" d="M721.098 128L721.098 92.868"/></g><g class="vf-stem" id="vf-auto8570" pointer-events="bounding-box"><path stroke-width="1.5" fill="none" d="M750.901 123L750.901 89.888"/></g><g class="vf-beam" id="vf-auto8722"><path stroke="none" d="M541.53 110.075L541.53 115.075L751.151 94.213L751.151 89.213Z"/><path stroke="none" d="M541.53 117.575L541.53 122.575L751.151 101.713L751.151 96.713Z"/></g><g class="vf-stem" id="vf-auto8576" pointer-events="bounding-box"><path stroke-width="1.5" fill="none" d="M768.695 122L768.695 155.759"/></g><g class="vf-stem" id="vf-auto8582" pointer-events="bounding-box"><path stroke-width="1.5" fill="none" d="M798.498 117L798.498 150.543"/></g><g class="vf-stem" id="vf-auto8588" pointer-events="bounding-box"><path stroke-width="1.5" fill="none" d="M828.301 112L828.301 145.328"/></g><g class="vf-stem" id="vf-auto8594" pointer-events="bounding-box"><path stroke-width="1.5" fill="none" d="M858.104 107L858.104 140.112"/></g><g class="vf-stem" id="vf-auto8600" pointer-events="bounding-box"><path stroke-width="1.5" fill="none" d="M887.907 102L887.907 134.897"/></g><g class="vf-stem" id="vf-auto8606" pointer-events="bounding-box"><path stroke-width="1.5" fill="none" d="M917.71 97L917.71 129.681"/></g><g class="vf-stem" id="vf-auto8612" pointer-events="bounding-box"><path stroke-width="1.5" fill="none" d="M947.513 92L947.513 124.466"/></g><g class="vf-stem" id="vf-auto8618" pointer-events="bounding-box"><path stroke-width="1.5" fill="none" d="M977.315 87L977.315 119.25"/></g><g class="vf-beam" id="vf-auto8723"><path stroke="none" d="M767.945 156.64L767.945 151.64L977.565 115.131L977.565 120.131Z"/><path stroke="none" d="M767.945 149.14L767.945 144.14L977.565 107.631L977.565 112.631Z"/></g><g class="vf-stave" id="vf-auto8725" stroke-width="1" fill="#999999" stroke="#999999"><path fill="none" d="M1010 90L1110 90"/><path fill="none" d="M1010 100L1110 100"/><path fill="none" d="M1010 110L1110 110"/><path fill="none" d="M1010 120L1110 120"/><path fill="none" d="M1010 130L1110 130"/></g><g class="vf-stavebarline" id="vf-auto8726"><rect x="1010" y="89.5" width="1" height="41" stroke="none"/></g><g class="vf-stavebarline" id="vf-auto8727"><rect x="1110" y="89.5" width="1" height="41" stroke="none"/></g><g class="vf-stavenote" id="vf-auto8728"><path stroke-width="1.4" fill="none" stroke="#444" d="M1025.62 140L1046.99 140"/><g class="vf-notehead" id="vf-auto8731" pointer-events="bounding-box"><path stroke="none" d="M1043.98 138.877C1043.867 144.24,1038.925 147.273,1034.882 147.525C1033.674 147.61,1032.635 146.964,1031.484 146.543L1030.361 146.065C1029.238 145.532,1028.62 144.661,1028.62 143.566C1028.62 143.229,1028.648 142.92,1028.788 142.555C1029.546 140.253,1030.557 138.006,1032.046 136.041C1033.393 134.272,1035.612 133.317,1037.802 133.317C1039.768 133.317,1041.733 134.047,1043.053 135.563C1043.895 136.49,1044.036 137.641,1043.98 138.877M1035.584 143.005C1036.903 142.864,1038.195 142.471,1039.403 141.769C1039.908 141.488,1040.273 141.123,1040.582 140.646C1040.75 140.393,1040.835 140.168,1040.835 139.916C1040.835 139.607,1040.638 139.326,1040.217 139.101C1039.178 138.624,1038.251 137.95,1037.072 137.95C1036.791 137.95,1036.538 137.978,1036.258 138.062C1034.432 138.512,1033.028 139.438,1032.017 140.983C1031.905 141.179,1031.737 141.404,1031.737 141.629C1031.737 141.825,1031.849 141.994,1032.13 142.106C1033.225 142.499,1034.292 143.005,1035.584 143.005"/><path stroke="none" d="M1030.783 126.108C1031.303 126.108,1031.932 126.081,1032.425 126.081C1034.367 126.081,1036.282 125.944,1038.225 125.944C1038.854 125.944,1039.593 125.944,1040.222 125.999C1040.933 126.026,1041.645 126.108,1042.247 126.108C1043.122 126.108,1044.025 126.026,1044.846 125.834C1045.147 125.78,1045.585 125.834,1045.585 125.369C1045.639 124.877,1045.421 124.658,1044.928 124.494C1043.615 124.111,1042.356 124.111,1041.016 124.056C1038.69 123.974,1036.364 123.892,1034.011 123.892C1033.109 123.892,1032.315 123.947,1031.412 123.947L1028.02 123.947C1027.691 123.974,1027.226 123.782,1027.062 124.166C1026.953 124.576,1027.281 124.932,1027.554 125.233C1027.746 125.451,1028.02 125.561,1028.266 125.67C1029.114 126.026,1029.989 126.108,1030.783 126.108"/><path stroke="none" d="M1028.672 121.389C1029.192 121.416,1029.629 121.252,1030.067 121.088C1032.529 120.185,1034.855 118.926,1037.427 118.352C1039.123 117.914,1040.491 116.847,1042.188 116.382C1043.172 116.108,1044.048 115.397,1044.568 114.33C1044.65 114.166,1044.677 114.001,1044.677 113.919C1044.677 113.728,1044.568 113.564,1044.294 113.427C1043.227 112.88,1042.105 112.36,1040.984 111.922C1038.166 110.91,1035.457 109.788,1032.748 108.694C1032.529 108.611,1032.338 108.584,1032.201 108.584C1031.9 108.584,1031.681 108.694,1031.353 108.94C1030.56 109.596,1030.067 110.499,1029.383 111.293C1029.246 111.484,1029.164 111.648,1029.164 111.758C1029.164 112.004,1029.356 112.196,1029.793 112.305C1032.475 113.263,1035.101 114.275,1037.783 115.26C1036.196 115.862,1034.746 116.737,1033.186 117.202C1031.216 117.804,1029.383 118.543,1028.289 120.431C1028.179 120.622,1027.933 120.814,1027.933 121.06L1027.933 121.17C1028.015 121.389,1028.207 121.416,1028.371 121.416L1028.644 121.416C1028.672 121.416,1028.672 121.416,1028.672 121.389"/><path stroke="none" d="M1028.072 84.802C1028.811 84.064,1028.948 83.079,1029.14 82.121C1029.523 80.124,1030.042 78.181,1031.465 76.567C1032.45 75.418,1033.544 74.351,1034.776 73.503C1035.542 72.928,1036.308 72.654,1037.211 72.545C1037.813 72.545,1038.223 72.873,1038.852 73.284C1041.506 75.199,1043.312 77.525,1043.504 80.89C1043.504 81.136,1043.285 81.492,1043.285 81.765L1043.285 82.668C1043.312 83.024,1043.12 83.571,1043.476 83.708C1043.941 83.899,1044.27 83.434,1044.488 83.079C1044.653 82.832,1044.735 82.559,1044.817 82.285C1045.063 81.464,1045.118 80.616,1045.255 79.768C1045.364 79.002,1045.391 78.291,1045.61 77.47C1045.61 74.515,1044.461 71.916,1042.327 69.563C1040.904 67.976,1039.372 67.319,1037.84 67.182C1036.964 67.182,1035.897 67.456,1034.967 67.784C1033.435 68.304,1032.477 69.59,1031.41 70.685C1029.331 72.873,1027.717 75.308,1027.115 78.263C1027.005 79.002,1026.923 79.713,1027.115 80.315C1027.115 81.683,1027.115 83.188,1027.279 84.556C1027.334 84.912,1027.443 85.076,1027.799 84.966C1027.963 84.966,1027.908 84.966,1028.072 84.802M1036.253 84.064C1036.581 84.091,1036.773 84.091,1037.129 83.982C1037.594 83.982,1037.402 83.899,1037.402 83.024C1037.457 82.914,1037.457 82.75,1037.648 82.504C1037.648 82.039,1037.238 81.738,1036.746 81.464C1035.98 81.054,1035.213 80.808,1034.365 80.862C1033.9 80.862,1033.244 80.78,1033.161 81.656C1033.079 82.86,1033.353 83.544,1034.146 83.763C1034.858 83.982,1035.542 83.982,1036.253 84.064"/></g></g><g class="vf-stave" id="vf-auto8742" stroke-width="1" fill="#999999" stroke="#999999"><path fill="none" d="M1110 90L1360 90"/><path fill="none" d="M1110 100L1360 100"/><path fill="none" d="M1110 110L1360 110"/><path fill="none" d="M1110 120L1360 120"/><path fill="none" d="M1110 130L1360 130"/></g><g class="vf-stavebarline" id="vf-auto8743"><rect x="1110" y="89.5" width="1" height="41" stroke="none"/></g><g class="vf-stavebarline" id="vf-auto8744"><rect x="1360" y="89.5" width="1" height="41" stroke="none"/></g><g class="vf-stavenote" id="vf-auto8745"><g class="vf-stem" id="vf-auto8746" pointer-events="bounding-box"><path stroke-width="1.5" fill="none" d="M1130.272 107L1130.272 140"/></g><g class="vf-notehead" id="vf-auto8748" pointer-events="bounding-box"><path stroke="none" d="M1132.667 111.543C1132.948 111.599,1133.201 111.627,1133.481 111.627C1137.357 111.627,1143.141 106.348,1143.029 102.08C1142.916 101.041,1142.944 99.609,1140.838 98.766C1140.249 98.485,1139.603 98.373,1138.901 98.373C1134.577 98.373,1129.887 103.343,1129.55 106.657C1129.55 106.909,1129.522 107.134,1129.522 107.387C1129.522 109.409,1130.421 111.037,1132.667 111.543"/><path stroke="none" d="M1130.754 96.108C1131.274 96.108,1131.903 96.081,1132.396 96.081C1134.338 96.081,1136.253 95.944,1138.196 95.944C1138.825 95.944,1139.564 95.944,1140.193 95.999C1140.905 96.026,1141.616 96.108,1142.218 96.108C1143.093 96.108,1143.996 96.026,1144.817 95.834C1145.118 95.78,1145.556 95.834,1145.556 95.369C1145.611 94.877,1145.392 94.658,1144.899 94.494C1143.586 94.111,1142.327 94.111,1140.987 94.056C1138.661 93.974,1136.336 93.892,1133.983 93.892C1133.08 93.892,1132.286 93.947,1131.383 93.947L1127.991 93.947C1127.662 93.974,1127.197 93.782,1127.033 94.166C1126.924 94.576,1127.252 94.932,1127.526 95.233C1127.717 95.451,1127.991 95.561,1128.237 95.67C1129.085 96.026,1129.961 96.108,1130.754 96.108"/></g></g><g class="vf-stavenote" id="vf-auto8749"><path stroke-width="1.4" fill="none" stroke="#444" d="M1186.522 80L1206.03 80"/><g class="vf-stem" id="vf-auto8750" pointer-events="bounding-box"><path stroke-width="1.5" fill="none" d="M1190.272 82L1190.272 115"/></g><g class="vf-notehead" id="vf-auto8752" pointer-events="bounding-box"><path stroke="none" d="M1192.667 86.543C1192.948 86.599,1193.201 86.627,1193.481 86.627C1197.357 86.627,1203.141 81.348,1203.029 77.08C1202.916 76.041,1202.944 74.609,1200.838 73.766C1200.249 73.485,1199.603 73.373,1198.901 73.373C1194.577 73.373,1189.887 78.343,1189.55 81.657C1189.55 81.909,1189.522 82.134,1189.522 82.387C1189.522 84.409,1190.421 86.037,1192.667 86.543"/><path stroke="none" d="M1190.754 70C1191.274 70,1191.903 69.973,1192.396 69.973C1194.338 69.973,1196.253 69.836,1198.196 69.836C1198.825 69.836,1199.564 69.836,1200.193 69.891C1200.905 69.918,1201.616 70,1202.218 70C1203.093 70,1203.996 69.918,1204.817 69.726C1205.118 69.672,1205.556 69.726,1205.556 69.261C1205.611 68.769,1205.392 68.55,1204.899 68.386C1203.586 68.003,1202.327 68.003,1200.987 67.948C1198.661 67.866,1196.336 67.784,1193.983 67.784C1193.08 67.784,1192.286 67.839,1191.383 67.839L1187.991 67.839C1187.662 67.866,1187.197 67.674,1187.033 68.057C1186.924 68.468,1187.252 68.824,1187.526 69.124C1187.717 69.343,1187.991 69.453,1188.237 69.562C1189.085 69.918,1189.961 70,1190.754 70"/></g></g><g class="vf-stavenote" id="vf-auto8753"><g class="vf-stem" id="vf-auto8754" pointer-events="bounding-box"><path stroke-width="1.5" fill="none" d="M1250.272 107L1250.272 140"/></g><g class="vf-notehead" id="vf-auto8756" pointer-events="bounding-box"><path stroke="none" d="M1252.667 111.543C1252.948 111.599,1253.201 111.627,1253.481 111.627C1257.357 111.627,1263.141 106.348,1263.029 102.08C1262.916 101.041,1262.944 99.609,1260.838 98.766C1260.249 98.485,1259.603 98.373,1258.901 98.373C1254.577 98.373,1249.887 103.343,1249.55 106.657C1249.55 106.909,1249.522 107.134,1249.522 107.387C1249.522 109.409,1250.421 111.037,1252.667 111.543"/><path stroke="none" d="M1250.754 147.435C1251.274 147.435,1251.903 147.408,1252.396 147.408C1254.338 147.408,1256.253 147.271,1258.196 147.271C1258.825 147.271,1259.564 147.271,1260.193 147.326C1260.905 147.353,1261.616 147.435,1262.218 147.435C1263.093 147.435,1263.996 147.353,1264.817 147.161C1265.118 147.107,1265.556 147.161,1265.556 146.696C1265.611 146.204,1265.392 145.985,1264.899 145.821C1263.586 145.438,1262.327 145.438,1260.987 145.383C1258.661 145.301,1256.336 145.219,1253.983 145.219C1253.08 145.219,1252.286 145.274,1251.383 145.274L1247.991 145.274C1247.662 145.301,1247.197 145.109,1247.033 145.492C1246.924 145.903,1247.252 146.259,1247.526 146.56C1247.717 146.751,1247.991 146.888,1248.237 146.997C1249.085 147.353,1249.961 147.435,1250.754 147.435"/></g></g><g class="vf-stavenote" id="vf-auto8757"><path stroke-width="1.4" fill="none" stroke="#444" d="M1306.522 80L1326.03 80"/><g class="vf-stem" id="vf-auto8758" pointer-events="bounding-box"><path stroke-width="1.5" fill="none" d="M1310.272 82L1310.272 115"/></g><g class="vf-notehead" id="vf-auto8760" pointer-events="bounding-box"><path stroke="none" d="M1312.667 86.543C1312.948 86.599,1313.201 86.627,1313.481 86.627C1317.357 86.627,1323.141 81.348,1323.029 77.08C1322.916 76.041,1322.944 74.609,1320.838 73.766C1320.249 73.485,1319.603 73.373,1318.901 73.373C1314.577 73.373,1309.887 78.343,1309.55 81.657C1309.55 81.909,1309.522 82.134,1309.522 82.387C1309.522 84.409,1310.421 86.037,1312.667 86.543"/><path stroke="none" d="M1310.754 126.327C1311.274 126.327,1311.903 126.3,1312.396 126.3C1314.338 126.3,1316.253 126.163,1318.196 126.163C1318.825 126.163,1319.564 126.163,1320.193 126.218C1320.905 126.245,1321.616 126.327,1322.218 126.327C1323.093 126.327,1323.996 126.245,1324.817 126.053C1325.118 125.999,1325.556 126.053,1325.556 125.588C1325.611 125.096,1325.392 124.877,1324.899 124.713C1323.586 124.33,1322.327 124.33,1320.987 124.275C1318.661 124.193,1316.336 124.111,1313.983 124.111C1313.08 124.111,1312.286 124.166,1311.383 124.166L1307.991 124.166C1307.662 124.193,1307.197 124.001,1307.033 124.384C1306.924 124.795,1307.252 125.15,1307.526 125.451C1307.717 125.643,1307.991 125.78,1308.237 125.889C1309.085 126.245,1309.961 126.327,1310.754 126.327"/></g></g></svg>