<svg xmlns="http://www.w3.org/2000/svg" stroke-width="0.3" stroke-dasharray="none" fill="black" stroke="black" font-family="Arial, sans-serif" font-size="10pt" font-weight="normal" font-style="normal" width="550" height="140" viewBox="0 0 550 140" style="width: 550px; height: 140px; border: none;"><g class="vf-stave" id="vf-auto28780" stroke-width="1" fill="#999999" stroke="#999999"><path fill="none" d="M0 40L540 40"/><path fill="none" d="M0 50L540 50"/><path fill="none" d="M0 60L540 60"/><path fill="none" d="M0 70L540 70"/><path fill="none" d="M0 80L540 80"/></g><g class="vf-stavebarline" id="vf-auto28781"><rect y="39.5" width="1" height="41" stroke="none"/></g><g class="vf-stavebarline" id="vf-auto28782"><rect x="540" y="39.5" width="1" height="41" stroke="none"/></g><g class="vf-stavenote" id="vf-auto28783"><path stroke-width="1.4" fill="none" stroke="#444" d="M14 90L31.934 90"/><g class="vf-stem" id="vf-auto28784" pointer-events="bounding-box"><path stroke-width="1.5" fill="none" d="M28.184 88L28.184 55"/></g><g class="vf-notehead" id="vf-auto28787" pointer-events="bounding-box"><path stroke="none" d="M20.931 95.054C24.525 95.054,28.934 91.741,28.934 88.315C28.934 86.237,27.305 84.946,25.003 84.946C20.566 84.946,17 88.231,17 91.685C17 93.791,18.741 95.054,20.931 95.054"/></g></g><g class="vf-stavenote" id="vf-auto28788"><path stroke-width="1.4" fill="none" stroke="#444" d="M113.813 90L131.747 90"/><g class="vf-stem" id="vf-auto28789" pointer-events="bounding-box"><path stroke-width="1.5" fill="none" d="M127.997 88L127.997 55"/></g><g class="vf-notehead" id="vf-auto28792" pointer-events="bounding-box"><path stroke="none" d="M120.744 95.054C124.339 95.054,128.747 91.741,128.747 88.315C128.747 86.237,127.119 84.946,124.816 84.946C120.379 84.946,116.813 88.231,116.813 91.685C116.813 93.791,118.554 95.054,120.744 95.054"/></g></g><g class="vf-stavenote" id="vf-auto28793"><path stroke-width="1.4" fill="none" stroke="#444" d="M213.626 90L231.56 90"/><g class="vf-stem" id="vf-auto28794" pointer-events="bounding-box"><path stroke-width="1.5" fill="none" d="M227.81 88L227.81 55"/></g><g class="vf-notehead" id="vf-auto28797" pointer-events="bounding-box"><path stroke="none" d="M220.558 95.054C224.152 95.054,228.56 91.741,228.56 88.315C228.56 86.237,226.932 84.946,224.629 84.946C220.193 84.946,216.626 88.231,216.626 91.685C216.626 93.791,218.367 95.054,220.558 95.054"/></g></g><g class="vf-stavenote" id="vf-auto28798"><path stroke-width="1.4" fill="none" stroke="#444" d="M313.44 90L331.374 90"/><g class="vf-stem" id="vf-auto28799" pointer-events="bounding-box"><path stroke-width="1.5" fill="none" d="M327.624 88L327.624 55"/></g><g class="vf-notehead" id="vf-auto28802" pointer-events="bounding-box"><path stroke="none" d="M320.371 95.054C323.965 95.054,328.374 91.741,328.374 88.315C328.374 86.237,326.745 84.946,324.442 84.946C320.006 84.946,316.44 88.231,316.44 91.685C316.44 93.791,318.181 95.054,320.371 95.054"/></g></g><g class="vf-stavenote" id="vf-auto28803"><path stroke-width="1.4" fill="none" stroke="#444" d="M413.253 90L431.187 90"/><g class="vf-stem" id="vf-auto28804" pointer-events="bounding-box"><path stroke-width="1.5" fill="none" d="M427.437 88L427.437 55"/></g><g class="vf-notehead" id="vf-auto28807" pointer-events="bounding-box"><path stroke="none" d="M420.184 95.054C423.778 95.054,428.187 91.741,428.187 88.315C428.187 86.237,426.558 84.946,424.256 84.946C419.819 84.946,416.253 88.231,416.253 91.685C416.253 93.791,417.994 95.054,420.184 95.054"/></g></g><text stroke-width="1" stroke="none" font-family="&quot;Times New Roman&quot;, serif" font-size="15pt" font-style="italic" x="17" y="20">Cool notes</text><path stroke-width="1" fill="none" d="M108.125 11.2L113.125 11.2M118.125 11.2L123.125 11.2M128.125 11.2L128.747 11.2Z"/><path stroke-width="1" fill="none" d="M128.747 12.2L128.747 17.2M128.747 19.2Z"/><text stroke-width="2" stroke="none" font-family="Arial" font-size="15pt" x="216.626" y="20">Testing</text><text stroke-width="2" stroke="none" font-family="Arial" font-size="10.71429pt" x="281.001" y="11.116">superscript</text><path stroke-width="2" fill="none" d="M354.845 5.19L359.845 5.19M364.845 5.19L369.845 5.19M374.845 5.19L379.845 5.19M384.845 5.19L389.845 5.19M394.845 5.19L399.845 5.19M404.845 5.19L409.845 5.19M414.845 5.19L419.845 5.19M424.845 5.19L428.187 5.19Z"/><text stroke-width="1" stroke="none" font-family="&quot;Times New Roman&quot;, serif" font-size="30pt" font-style="italic" x="17" y="130">8</text><text stroke-width="1" stroke="none" font-family="Times New Roman, serif" font-size="21.42858pt" font-style="italic" x="38" y="112">vb</text><path stroke-width="1" fill="none" d="M65.969 123.481L128.747 123.481L128.747 115.481"/><text stroke-width="1" stroke="none" font-family="&quot;Times New Roman&quot;, serif" font-size="15pt" font-style="italic" x="216.626" y="140">Not cool notes</text><text stroke-width="1" stroke="none" font-family="Times New Roman, serif" font-size="10.71429pt" font-style="italic" x="333.73" y="131.2"> super uncool</text><path stroke-width="1" fill="none" d="M334.73 137.146L336.73 137.146M338.73 137.146L340.73 137.146M342.73 137.146L344.73 137.146M346.73 137.146L348.73 137.146M350.73 137.146L352.73 137.146M354.73 137.146L356.73 137.146M358.73 137.146L360.73 137.146M362.73 137.146L364.73 137.146M366.73 137.146L368.73 137.146M370.73 137.146L372.73 137.146M374.73 137.146L376.73 137.146M378.73 137.146L380.73 137.146M382.73 137.146L384.73 137.146M386.73 137.146L388.73 137.146M390.73 137.146L392.73 137.146M394.73 137.146L396.73 137.146M398.73 137.146L400.73 137.146M402.73 137.146L404.73 137.146M406.73 137.146L408.73 137.146M410.73 137.146L412.73 137.146M414.73 137.146L416.73 137.146M418.73 137.146L420.73 137.146M422.73 137.146L424.73 137.146M426.73 137.146L428.187 137.146Z"/><path stroke-width="1" fill="none" d="M428.187 136.146L428.187 134.146M428.187 132.146L428.187 130.146M428.187 128.146L428.187 126.146M428.187 124.146L428.187 122.146M428.187 120.146L428.187 118.146M428.187 116.146L428.187 114.146M428.187 112.146L428.187 110.146M428.187 108.146L428.187 106.146M428.187 104.146L428.187 102.146M428.187 100.146L428.187 98.146M428.187 97.146Z"/></svg>