<svg xmlns="http://www.w3.org/2000/svg" stroke-width="0.3" stroke-dasharray="none" fill="black" stroke="black" font-family="Arial, sans-serif" font-size="10pt" font-weight="normal" font-style="normal" width="450" height="200" viewBox="0 0 450 200" style="width: 450px; height: 200px; border: none;"><g class="vf-stave" id="vf-auto9319" stroke-width="1" fill="#999999" stroke="#999999"><path fill="none" d="M0 40L440 40"/><path fill="none" d="M0 50L440 50"/><path fill="none" d="M0 60L440 60"/><path fill="none" d="M0 70L440 70"/><path fill="none" d="M0 80L440 80"/></g><g class="vf-stavebarline" id="vf-auto9320"><rect y="39.5" width="1" height="41" stroke="none"/></g><g class="vf-stavebarline" id="vf-auto9321"><rect x="440" y="39.5" width="1" height="41" stroke="none"/></g><g class="vf-timesignature" id="vf-auto9322"><path stroke="none" d="M14.547 52.681C16.481 52.411,18.44 52.093,20.202 51.212C23.433 49.547,24.927 46.879,24.927 43.28C24.927 40.392,23.36 38.58,20.961 38.556C20.398 38.556,19.835 38.654,19.198 38.825C14.596 40.22,11.756 43.378,10.704 48.176C9.431 47.687,8.501 46.805,7.815 45.581C7.546 45.043,7.399 44.48,7.399 43.917C7.399 43.525,7.472 43.109,7.619 42.668C8.036 41.444,8.55 40.294,9.088 39.094C10.777 35.373,13.495 32.852,17.436 31.677C17.974 31.505,18.537 31.359,19.076 31.359C19.688 31.359,20.3 31.53,20.863 31.995C21.01 32.142,21.181 32.166,21.279 32.166C21.5 32.166,21.671 32.044,21.818 31.775C22.063 31.212,22.209 30.649,22.209 30.086C22.209 29.498,22.063 28.96,21.744 28.445C21.255 27.662,20.447 27.246,19.517 27.197C19.394 27.197,19.247 27.197,19.1 27.246C16.555 27.564,14.302 28.617,12.271 30.135C10.312 31.579,9.015 33.537,7.815 35.667C6.469 37.993,5.71 40.416,5.71 42.962C5.71 44.235,5.881 45.508,6.297 46.805C7.007 49.156,8.207 51.114,10.532 52.167C11.487 52.583,12.466 52.803,13.495 52.803C13.837 52.803,14.204 52.754,14.547 52.681M13.592 48.739C13.25 48.715,12.834 48.886,12.638 48.592C12.442 48.323,12.834 48.005,12.956 47.711C14.131 45.435,15.967 43.868,18.293 42.938C18.954 42.644,19.59 42.497,20.227 42.546C21.034 42.546,21.818 42.742,22.552 43.231C22.919 43.501,23.115 43.745,23.115 44.088C23.115 44.308,23.042 44.504,22.87 44.798C21.891 46.316,20.52 47.344,18.782 47.858C17.167 48.348,15.477 48.666,13.788 48.739"/><path stroke="none" d="M12.563 95.08C12.783 95.08,12.955 95.08,13.151 95.055C18.12 94.492,22.159 91.873,23.457 86.634C23.726 85.606,23.873 84.578,23.848 83.623C23.848 81.175,22.894 78.972,20.397 77.356C20.176 77.209,20.103 77.062,20.078 76.891C20.078 76.769,20.152 76.622,20.176 76.475C20.519 75.202,20.715 73.904,20.715 72.632C20.715 71.726,20.592 70.796,20.421 69.89C19.76 67.001,17.508 64.92,14.791 64.92C13.836 64.92,12.808 65.165,11.78 65.753C8.548 67.638,6.786 70.6,6.786 74.296C6.786 76.255,7.202 78.237,8.622 79.78C9.185 80.392,9.993 80.661,10.703 81.175C9.527 81.787,8.867 82.791,8.328 83.868C7.618 85.312,7.3 86.83,6.982 88.397C6.933 88.788,6.884 89.156,6.884 89.547C6.884 92.828,9.699 95.08,12.563 95.08M12.392 77.43C11.339 77.43,10.164 77.136,9.111 76.377C8.646 76.01,8.426 75.667,8.426 75.202C8.426 75.055,8.426 74.884,8.499 74.688C9.013 73.121,9.772 71.75,10.898 70.6C12 69.498,13.346 68.96,14.644 68.96C16.162 68.96,17.63 69.669,18.707 71.089C18.879 71.334,19.05 71.603,19.05 71.897L19.05 71.995L19.05 72.166C18.805 73.611,18.487 75.104,17.532 76.304C17.214 76.695,16.896 76.94,16.333 77.013C15.133 77.136,13.909 77.43,12.392 77.43M14.105 90.722C11.78 90.673,9.993 88.788,9.944 86.756C9.944 86.463,10.017 86.169,10.139 85.851C10.384 84.969,11.021 84.382,11.706 83.843C12.783 83.06,13.909 82.399,15.06 81.763C15.77 81.371,16.431 81.2,17.043 81.2C18.095 81.2,19.001 81.763,19.834 82.889C20.519 83.843,21.033 84.872,21.033 86.144C21.033 87.05,20.641 87.785,20.005 88.348C18.316 89.841,16.259 90.575,14.105 90.722"/></g><g class="vf-stavenote" id="vf-auto9326"><g class="vf-stem" id="vf-auto9327" pointer-events="bounding-box"><path stroke-width="1.5" fill="none" d="M36.967 62L36.967 95"/></g><g class="vf-notehead" id="vf-auto9329" pointer-events="bounding-box"><path stroke="none" d="M39.362 66.543C39.643 66.599,39.895 66.627,40.176 66.627C44.051 66.627,49.836 61.348,49.723 57.08C49.611 56.041,49.639 54.609,47.533 53.766C46.943 53.485,46.298 53.373,45.596 53.373C41.271 53.373,36.582 58.343,36.245 61.657C36.245 61.909,36.217 62.134,36.217 62.387C36.217 64.409,37.115 66.037,39.362 66.543"/></g></g><g class="vf-stavenote" id="vf-auto9330"><g class="vf-stem" id="vf-auto9331" pointer-events="bounding-box"><path stroke-width="1.5" fill="none" d="M149.462 62L149.462 95"/></g><g class="vf-notehead" id="vf-auto9333" pointer-events="bounding-box"><path stroke="none" d="M151.857 66.543C152.138 66.599,152.391 66.627,152.671 66.627C156.546 66.627,162.331 61.348,162.219 57.08C162.106 56.041,162.134 54.609,160.028 53.766C159.439 53.485,158.793 53.373,158.091 53.373C153.767 53.373,149.077 58.343,148.74 61.657C148.74 61.909,148.712 62.134,148.712 62.387C148.712 64.409,149.611 66.037,151.857 66.543"/></g></g><g class="vf-stavenote" id="vf-auto9334"><g class="vf-notehead" id="vf-auto9347" pointer-events="bounding-box"><path stroke="none" d="M264.352 66.543C264.633 66.599,264.886 66.627,265.167 66.627C269.042 66.627,274.826 61.348,274.714 57.08C274.602 56.041,274.63 54.609,272.524 53.766C271.934 53.485,271.288 53.373,270.586 53.373C266.262 53.373,261.573 58.343,261.236 61.657C261.236 61.909,261.208 62.134,261.208 62.387C261.208 64.409,262.106 66.037,264.352 66.543"/></g></g><g class="vf-stavenote" id="vf-auto9340"><g class="vf-notehead" id="vf-auto9349" pointer-events="bounding-box"><path stroke="none" d="M340.995 66.543C341.275 66.599,341.528 66.627,341.809 66.627C345.684 66.627,351.469 61.348,351.356 57.08C351.244 56.041,351.272 54.609,349.166 53.766C348.576 53.485,347.93 53.373,347.228 53.373C342.904 53.373,338.215 58.343,337.878 61.657C337.878 61.909,337.85 62.134,337.85 62.387C337.85 64.409,338.748 66.037,340.995 66.543"/></g></g><g class="vf-stem" id="vf-auto9335" pointer-events="bounding-box"><path stroke-width="1.5" fill="none" d="M261.958 62L261.958 94.25"/></g><g class="vf-stem" id="vf-auto9341" pointer-events="bounding-box"><path stroke-width="1.5" fill="none" d="M338.6 62L338.6 94.25"/></g><g class="vf-beam" id="vf-auto9351"><path stroke="none" d="M261.208 95L261.208 90L338.85 90L338.85 95Z"/></g></svg>