<svg xmlns="http://www.w3.org/2000/svg" stroke-width="0.3" stroke-dasharray="none" fill="black" stroke="black" font-family="Arial, sans-serif" font-size="10pt" font-weight="normal" font-style="normal" width="450" height="140" viewBox="0 0 450 140" style="width: 450px; height: 140px; border: none;"><g class="vf-stave" id="vf-auto13004" stroke-width="1" fill="#999999" stroke="#999999"><path fill="none" d="M0 40L440 40"/><path fill="none" d="M0 50L440 50"/><path fill="none" d="M0 60L440 60"/><path fill="none" d="M0 70L440 70"/><path fill="none" d="M0 80L440 80"/></g><g class="vf-stavebarline" id="vf-auto13005"><rect y="39.5" width="1" height="41" stroke="none"/></g><g class="vf-stavebarline" id="vf-auto13006"><rect x="440" y="39.5" width="1" height="41" stroke="none"/></g><g class="vf-stavenote" id="vf-auto13007"><path stroke-width="1.4" fill="none" stroke="#444" d="M14 90L33.141 90"/><g class="vf-stem" id="vf-auto13008" pointer-events="bounding-box"><path stroke-width="1.5" fill="none" d="M29.391 88L29.391 58"/></g><g class="vf-notehead" id="vf-auto13055" pointer-events="bounding-box"><path stroke="none" d="M17 91.685C17 93.426,18.264 95.391,21.521 95.391C25.733 95.391,30.141 91.938,30.141 88.371C30.141 85.985,28.12 84.665,25.621 84.665C21.689 84.665,17 87.978,17 91.685"/></g><path stroke="none" d="M28.641 62.182C28.641 62.294,28.67 62.491,28.978 62.631C30.691 63.193,34.173 65.383,36.813 69.848C37.543 71.112,38.722 72.853,38.722 76.222C38.722 79.114,37.936 82.119,36.897 85.011C36.813 85.264,36.728 85.46,36.757 85.629C36.757 85.797,36.813 85.91,36.981 85.994C37.065 86.022,37.122 86.022,37.178 86.022C37.459 86.022,37.655 85.882,37.824 85.601C39.733 82.231,40.379 77.935,40.323 75.408C40.323 75.211,40.323 75.071,40.323 74.902C40.126 69.708,37.122 65.861,37.122 65.861C37.262 65.861,33.415 60.89,32.32 59.178C30.832 56.875,30.13 54.572,30.045 54.404C30.017 54.292,29.652 52.832,29.652 52.832C29.624 52.663,29.4 52.523,29.175 52.523C28.894 52.523,28.641 52.747,28.641 53.028"/></g><g class="vf-stavenote" id="vf-auto13013"><g class="vf-stem" id="vf-auto13014" pointer-events="bounding-box"><path stroke-width="1.5" fill="none" d="M80.831 68L80.831 35"/></g><g class="vf-notehead" id="vf-auto13016" pointer-events="bounding-box"><path stroke="none" d="M68.44 71.685C68.44 73.426,69.703 75.391,72.96 75.391C77.172 75.391,81.581 71.938,81.581 68.371C81.581 65.985,79.559 64.665,77.06 64.665C73.129 64.665,68.44 67.978,68.44 71.685"/></g></g><g class="vf-stavenote" id="vf-auto13017"><g class="vf-notehead" id="vf-auto13057" pointer-events="bounding-box"><path stroke="none" d="M134.876 56.685C134.876 58.426,136.14 60.391,139.397 60.391C143.609 60.391,148.018 56.938,148.018 53.371C148.018 50.985,145.996 49.665,143.497 49.665C139.566 49.665,134.876 52.978,134.876 56.685"/><path stroke="none" d="M155.018 55 A2 2 0 0 0 151.018 55 A2 2 0 0 0 155.018 55"/></g></g><g class="vf-stavenote" id="vf-auto13024"><g class="vf-notehead" id="vf-auto13059" pointer-events="bounding-box"><path stroke="none" d="M193.335 36.685C193.335 38.426,194.599 40.391,197.856 40.391C202.068 40.391,206.477 36.938,206.477 33.371C206.477 30.985,204.455 29.665,201.956 29.665C198.025 29.665,193.335 32.978,193.335 36.685"/></g></g><g class="vf-stavenote" id="vf-auto13030"><path stroke-width="1.4" fill="none" stroke="#444" d="M235.598 30L254.74 30"/><g class="vf-stem" id="vf-auto13031" pointer-events="bounding-box"><path stroke-width="1.5" fill="none" d="M239.348 32L239.348 65"/></g><g class="vf-notehead" id="vf-auto13033" pointer-events="bounding-box"><path stroke="none" d="M238.598 31.685C238.598 33.426,239.862 35.391,243.119 35.391C247.331 35.391,251.74 31.938,251.74 28.371C251.74 25.985,249.718 24.665,247.219 24.665C243.288 24.665,238.598 27.978,238.598 31.685"/></g></g><g class="vf-stavenote" id="vf-auto13034"><path stroke-width="1.4" fill="none" stroke="#444" d="M302.035 30L321.176 30"/><g class="vf-notehead" id="vf-auto13061" pointer-events="bounding-box"><path stroke="none" d="M305.035 31.685C305.035 33.426,306.298 35.391,309.556 35.391C313.768 35.391,318.176 31.938,318.176 28.371C318.176 25.985,316.155 24.665,313.655 24.665C309.724 24.665,305.035 27.978,305.035 31.685"/></g></g><g class="vf-stavenote" id="vf-auto13040"><g class="vf-notehead" id="vf-auto13064" pointer-events="bounding-box"><path stroke="none" d="M350.298 56.685C350.298 58.426,351.561 60.391,354.819 60.391C359.031 60.391,363.439 56.938,363.439 53.371C363.439 50.985,361.417 49.665,358.918 49.665C354.987 49.665,350.298 52.978,350.298 56.685"/></g><g class="vf-notehead" id="vf-auto13063" pointer-events="bounding-box"><path stroke="none" d="M350.298 46.685C350.298 48.426,351.561 50.391,354.819 50.391C359.031 50.391,363.439 46.938,363.439 43.371C363.439 40.985,361.417 39.665,358.918 39.665C354.987 39.665,350.298 42.978,350.298 46.685"/></g></g><g class="vf-stavenote" id="vf-auto13048"><path stroke-width="1.4" fill="none" stroke="#444" d="M392.56 30L411.702 30"/><g class="vf-notehead" id="vf-auto13066" pointer-events="bounding-box"><path stroke="none" d="M395.56 31.685C395.56 33.426,396.824 35.391,400.081 35.391C404.293 35.391,408.702 31.938,408.702 28.371C408.702 25.985,406.68 24.665,404.181 24.665C400.25 24.665,395.56 27.978,395.56 31.685"/></g></g><g class="vf-stem" id="vf-auto13018" pointer-events="bounding-box"><path stroke-width="1.5" fill="none" d="M135.626 57L135.626 89.25"/></g><g class="vf-stem" id="vf-auto13025" pointer-events="bounding-box"><path stroke-width="1.5" fill="none" d="M194.085 37L194.085 79.02"/></g><g class="vf-beam" id="vf-auto13068"><path stroke="none" d="M134.876 90.131L134.876 85.131L194.335 74.901L194.335 79.901Z"/><path stroke="none" d="M193.335 72.401L193.335 67.401L184.335 69.151L184.335 74.151Z"/></g><g class="vf-stem" id="vf-auto13035" pointer-events="bounding-box"><path stroke-width="1.5" fill="none" d="M305.785 32L305.785 89.25"/></g><g class="vf-stem" id="vf-auto13041" pointer-events="bounding-box"><path stroke-width="1.5" fill="none" d="M351.048 47L351.048 89.25"/></g><g class="vf-stem" id="vf-auto13049" pointer-events="bounding-box"><path stroke-width="1.5" fill="none" d="M396.31 32L396.31 89.25"/></g><g class="vf-beam" id="vf-auto13069"><path stroke="none" d="M305.035 90L305.035 85L396.56 85L396.56 90Z"/><path stroke="none" d="M305.035 82.5L305.035 77.5L351.298 77.5L351.298 82.5Z"/></g></svg>