<svg xmlns="http://www.w3.org/2000/svg" stroke-width="0.3" stroke-dasharray="none" fill="black" stroke="black" font-family="Arial, sans-serif" font-size="10pt" font-weight="normal" font-style="normal" width="422" height="250" viewBox="0 0 527.5 312.5" style="width: 422px; height: 250px; border: none;"><g class="vf-stave" id="vf-auto16825" stroke-width="1" fill="#999999" stroke="#999999"><path fill="none" d="M10 50L286.163 50"/><path fill="none" d="M10 60L286.163 60"/><path fill="none" d="M10 70L286.163 70"/><path fill="none" d="M10 80L286.163 80"/><path fill="none" d="M10 90L286.163 90"/></g><g class="vf-stavebarline" id="vf-auto16826"/><g class="vf-stavebarline" id="vf-auto16827"><rect x="286.163" y="49.5" width="1" height="41" stroke="none"/></g><g class="vf-clef" id="vf-auto16828"><path stroke="none" d="M23.693 101.402C23.87 101.402,24.048 101.377,24.276 101.301C24.707 101.148,25.062 100.92,25.366 100.591C28.382 97.423,29.623 93.596,29.75 89.313C29.75 88.983,29.776 88.451,29.776 88.451C29.776 88.451,30.282 88.147,30.511 88.071C31.727 87.488,32.893 86.829,33.932 85.993C36.72 83.762,38.316 80.747,39.051 77.376C39.204 76.844,39.229 76.286,39.229 75.779C39.229 73.473,37.962 71.8,35.047 71.268C34.312 71.116,33.577 71.04,32.842 71.04C31.017 71.04,29.269 71.521,27.621 72.484C27.419 72.611,27.19 72.763,27.19 72.763L26.253 69.215C26.202 69.038,26.202 68.708,26.202 68.708C26.202 68.708,29.928 62.093,30.434 58.697C30.612 57.709,30.688 56.72,30.688 55.757C30.688 54.972,30.663 54.237,30.536 53.527C30.181 50.891,29.193 48.408,28.534 45.848C28.356 45.088,28.103 44.175,27.216 44.175C26.557 44.175,26.101 44.809,25.695 45.341C23.82 47.926,22.907 50.891,22.73 54.059C22.705 54.566,22.705 55.098,22.705 55.605C22.705 58.545,23.186 61.51,23.566 64.425C23.566 64.653,23.642 64.881,23.693 65.059C22.046 67.39,20.221 69.57,18.65 71.978C17.56 73.701,16.343 75.424,15.583 77.35C15.177 78.288,15 79.403,15 80.493C15 82.749,15.76 85.055,17.078 86.322C17.839 87.057,19.055 87.868,20.246 88.299C21.944 88.907,23.617 89.313,25.391 89.313C25.923 89.313,26.455 89.287,27.013 89.211L27.444 89.135C27.444 89.135,27.469 89.465,27.444 89.642C27.038 91.847,26.506 94.001,25.188 95.826C24.479 96.764,23.82 97.828,22.451 97.93C22.046 97.98,21.868 98.234,21.868 98.563C21.868 98.69,21.894 98.817,21.944 98.944C22.147 99.501,22.4 100.084,22.654 100.642C22.882 101.148,23.237 101.402,23.693 101.402M25.138 62.828C24.859 61.08,24.681 59.356,24.681 57.633C24.681 54.465,25.34 51.373,27.19 48.408C27.621 49.751,27.849 51.119,27.849 52.488C27.849 53.198,27.773 53.933,27.672 54.642C27.19 57.506,26.532 60.269,25.138 62.828M21.387 84.421C20.88 84.396,20.449 84.219,19.967 84.067C19.004 83.737,18.219 83.382,17.965 82.749C17.839 82.47,17.813 82.14,17.813 81.811C17.813 81.406,17.889 80.975,17.965 80.518C17.991 80.316,18.219 79.682,18.295 79.581C19.714 77.046,21.412 74.765,23.211 72.459L24.732 70.457L25.011 71.268C25.29 72.18,25.543 73.625,25.543 73.625C25.543 73.625,24.529 74.943,23.87 75.602C22.046 77.376,21.159 79.606,21.159 82.064C21.159 82.673,21.235 83.306,21.361 83.965C21.387 84.092,21.387 84.219,21.387 84.421M29.269 83.306C28.99 80.924,28.432 79.023,27.925 76.742C27.875 76.463,27.875 76.286,28.001 76.134C28.939 75.957,29.852 75.881,30.815 75.881C31.727 75.881,32.589 75.957,33.501 76.134C34.591 76.362,35.681 76.539,36.542 77.426C36.593 77.503,36.669 77.579,36.745 77.604C35.301 80.518,33.146 82.723,30.08 84.067L29.421 84.32M25.391 85.055C24.124 85.055,22.882 84.726,22.882 84.726C22.882 84.726,22.781 84.219,22.781 83.484C22.781 83.002,22.806 82.419,22.958 81.836C23.313 80.088,24.555 78.846,25.873 77.68C25.974 77.579,26.101 77.503,26.177 77.503C26.303 77.503,26.354 77.655,26.379 77.908C26.709 80.062,27.266 82.166,27.419 84.32C27.444 84.548,27.419 84.878,27.419 84.878C27.419 84.878,26.455 85.131,25.391 85.055"/></g><g class="vf-timesignature" id="vf-auto16829"><path stroke="none" d="M69.113 67.234C69.455 67.332,69.749 67.038,69.921 66.744C70.386 66.157,70.435 65.447,70.557 64.737C70.949 61.383,70.875 58.005,70.998 54.651L70.998 54.308C72.246 54.064,73.397 53.623,74.572 53.109C76.285 52.301,76.579 51.86,76.555 50C76.555 49.119,76.359 48.727,75.918 48.703C75.698 48.703,75.38 48.8,74.988 49.021L74.743 49.119C73.544 49.657,72.32 50.073,71.047 50.318C71.047 48.776,70.973 47.209,70.9 45.667C70.826 44.37,70.802 43.023,70.679 41.726C70.655 41.432,70.679 40.869,70.239 40.869C69.798 40.869,69.504 41.163,69.455 41.677C69.431 42.313,69.235 42.95,69.284 43.586C69.309 45.912,69.382 48.237,69.382 50.539C68.966 50.563,68.55 50.563,68.158 50.539C66.004 50.392,63.898 50.024,61.695 50.073C60.936 50.073,60.153 50.098,59.37 50.22C60.153 48.727,60.79 47.356,61.597 46.01C63.458 42.95,65.465 39.914,66.787 36.487C67.105 35.679,67.35 34.871,67.35 34.039C67.35 33.794,67.301 33.549,67.277 33.28C67.228 33.084,67.228 32.693,66.958 32.693C66.665 32.668,66.322 32.766,66.151 33.035C66.028 33.256,65.906 33.427,65.832 33.647C65.343 35.239,64.462 36.609,63.629 38.005C62.626 39.743,61.45 41.408,60.422 43.121C58.978 45.569,57.778 48.091,56.016 50.318C55.453 51.028,54.939 51.763,54.939 52.644C54.939 52.962,55.012 53.28,55.135 53.599C55.282 53.917,55.453 54.235,55.453 54.553C55.502 55.067,55.6 55.263,55.894 55.288C56.016 55.288,56.236 55.214,56.481 55.067C58.048 54.406,59.614 54.064,61.279 54.064C63.458 54.064,65.661 54.406,67.84 54.553C68.085 54.578,68.329 54.578,68.574 54.627C68.819 54.627,69.064 54.627,69.309 54.553C69.235 56.561,69.211 58.568,69.064 60.575C68.99 62.118,68.819 63.684,68.819 65.3C68.819 65.692,68.819 66.034,68.868 66.402C68.868 66.72,68.819 67.136,69.113 67.234"/><path stroke="none" d="M69.113 107.234C69.455 107.332,69.749 107.038,69.921 106.744C70.386 106.157,70.435 105.447,70.557 104.737C70.949 101.383,70.875 98.005,70.998 94.651L70.998 94.308C72.246 94.064,73.397 93.623,74.572 93.109C76.285 92.301,76.579 91.86,76.555 90C76.555 89.119,76.359 88.727,75.918 88.703C75.698 88.703,75.38 88.8,74.988 89.021L74.743 89.119C73.544 89.657,72.32 90.073,71.047 90.318C71.047 88.776,70.973 87.209,70.9 85.667C70.826 84.37,70.802 83.023,70.679 81.726C70.655 81.432,70.679 80.869,70.239 80.869C69.798 80.869,69.504 81.163,69.455 81.677C69.431 82.313,69.235 82.95,69.284 83.586C69.309 85.912,69.382 88.237,69.382 90.539C68.966 90.563,68.55 90.563,68.158 90.539C66.004 90.392,63.898 90.024,61.695 90.073C60.936 90.073,60.153 90.098,59.37 90.22C60.153 88.727,60.79 87.356,61.597 86.01C63.458 82.95,65.465 79.914,66.787 76.487C67.105 75.679,67.35 74.871,67.35 74.039C67.35 73.794,67.301 73.549,67.277 73.28C67.228 73.084,67.228 72.693,66.958 72.693C66.665 72.668,66.322 72.766,66.151 73.035C66.028 73.256,65.906 73.427,65.832 73.647C65.343 75.239,64.462 76.609,63.629 78.005C62.626 79.743,61.45 81.408,60.422 83.121C58.978 85.569,57.778 88.091,56.016 90.318C55.453 91.028,54.939 91.763,54.939 92.644C54.939 92.962,55.012 93.28,55.135 93.599C55.282 93.917,55.453 94.235,55.453 94.553C55.502 95.067,55.6 95.263,55.894 95.288C56.016 95.288,56.236 95.214,56.481 95.067C58.048 94.406,59.614 94.064,61.279 94.064C63.458 94.064,65.661 94.406,67.84 94.553C68.085 94.578,68.329 94.578,68.574 94.627C68.819 94.627,69.064 94.627,69.309 94.553C69.235 96.561,69.211 98.568,69.064 100.575C68.99 102.118,68.819 103.684,68.819 105.3C68.819 105.692,68.819 106.034,68.868 106.402C68.868 106.72,68.819 107.136,69.113 107.234"/></g><g class="vf-stave" id="vf-auto16870" stroke-width="1" fill="#999999" stroke="#999999"><path fill="none" d="M10 170L286.163 170"/><path fill="none" d="M10 180L286.163 180"/><path fill="none" d="M10 190L286.163 190"/><path fill="none" d="M10 200L286.163 200"/><path fill="none" d="M10 210L286.163 210"/></g><g class="vf-stavebarline" id="vf-auto16871"/><g class="vf-stavebarline" id="vf-auto16872"><rect x="286.163" y="169.5" width="1" height="41" stroke="none"/></g><g class="vf-clef" id="vf-auto16873"><path stroke="none" d="M23.693 221.402C23.87 221.402,24.048 221.377,24.276 221.301C24.707 221.148,25.062 220.92,25.366 220.591C28.382 217.423,29.623 213.596,29.75 209.313C29.75 208.983,29.776 208.451,29.776 208.451C29.776 208.451,30.282 208.147,30.511 208.071C31.727 207.488,32.893 206.829,33.932 205.993C36.72 203.762,38.316 200.747,39.051 197.376C39.204 196.844,39.229 196.286,39.229 195.779C39.229 193.473,37.962 191.8,35.047 191.268C34.312 191.116,33.577 191.04,32.842 191.04C31.017 191.04,29.269 191.521,27.621 192.484C27.419 192.611,27.19 192.763,27.19 192.763L26.253 189.215C26.202 189.038,26.202 188.708,26.202 188.708C26.202 188.708,29.928 182.093,30.434 178.697C30.612 177.709,30.688 176.72,30.688 175.757C30.688 174.972,30.663 174.237,30.536 173.527C30.181 170.891,29.193 168.408,28.534 165.848C28.356 165.088,28.103 164.175,27.216 164.175C26.557 164.175,26.101 164.809,25.695 165.341C23.82 167.926,22.907 170.891,22.73 174.059C22.705 174.566,22.705 175.098,22.705 175.605C22.705 178.545,23.186 181.51,23.566 184.425C23.566 184.653,23.642 184.881,23.693 185.059C22.046 187.39,20.221 189.57,18.65 191.978C17.56 193.701,16.343 195.424,15.583 197.35C15.177 198.288,15 199.403,15 200.493C15 202.749,15.76 205.055,17.078 206.322C17.839 207.057,19.055 207.868,20.246 208.299C21.944 208.907,23.617 209.313,25.391 209.313C25.923 209.313,26.455 209.287,27.013 209.211L27.444 209.135C27.444 209.135,27.469 209.465,27.444 209.642C27.038 211.847,26.506 214.001,25.188 215.826C24.479 216.764,23.82 217.828,22.451 217.93C22.046 217.98,21.868 218.234,21.868 218.563C21.868 218.69,21.894 218.817,21.944 218.944C22.147 219.501,22.4 220.084,22.654 220.642C22.882 221.148,23.237 221.402,23.693 221.402M25.138 182.828C24.859 181.08,24.681 179.356,24.681 177.633C24.681 174.465,25.34 171.373,27.19 168.408C27.621 169.751,27.849 171.119,27.849 172.488C27.849 173.198,27.773 173.933,27.672 174.642C27.19 177.506,26.532 180.269,25.138 182.828M21.387 204.421C20.88 204.396,20.449 204.219,19.967 204.067C19.004 203.737,18.219 203.382,17.965 202.749C17.839 202.47,17.813 202.14,17.813 201.811C17.813 201.406,17.889 200.975,17.965 200.518C17.991 200.316,18.219 199.682,18.295 199.581C19.714 197.046,21.412 194.765,23.211 192.459L24.732 190.457L25.011 191.268C25.29 192.18,25.543 193.625,25.543 193.625C25.543 193.625,24.529 194.943,23.87 195.602C22.046 197.376,21.159 199.606,21.159 202.064C21.159 202.673,21.235 203.306,21.361 203.965C21.387 204.092,21.387 204.219,21.387 204.421M29.269 203.306C28.99 200.924,28.432 199.023,27.925 196.742C27.875 196.463,27.875 196.286,28.001 196.134C28.939 195.957,29.852 195.881,30.815 195.881C31.727 195.881,32.589 195.957,33.501 196.134C34.591 196.362,35.681 196.539,36.542 197.426C36.593 197.503,36.669 197.579,36.745 197.604C35.301 200.518,33.146 202.723,30.08 204.067L29.421 204.32M25.391 205.055C24.124 205.055,22.882 204.726,22.882 204.726C22.882 204.726,22.781 204.219,22.781 203.484C22.781 203.002,22.806 202.419,22.958 201.836C23.313 200.088,24.555 198.846,25.873 197.68C25.974 197.579,26.101 197.503,26.177 197.503C26.303 197.503,26.354 197.655,26.379 197.908C26.709 200.062,27.266 202.166,27.419 204.32C27.444 204.548,27.419 204.878,27.419 204.878C27.419 204.878,26.455 205.131,25.391 205.055"/></g><g class="vf-timesignature" id="vf-auto16874"><path stroke="none" d="M69.113 187.234C69.455 187.332,69.749 187.038,69.921 186.744C70.386 186.157,70.435 185.447,70.557 184.737C70.949 181.383,70.875 178.005,70.998 174.651L70.998 174.308C72.246 174.064,73.397 173.623,74.572 173.109C76.285 172.301,76.579 171.86,76.555 170C76.555 169.119,76.359 168.727,75.918 168.703C75.698 168.703,75.38 168.8,74.988 169.021L74.743 169.119C73.544 169.657,72.32 170.073,71.047 170.318C71.047 168.776,70.973 167.209,70.9 165.667C70.826 164.37,70.802 163.023,70.679 161.726C70.655 161.432,70.679 160.869,70.239 160.869C69.798 160.869,69.504 161.163,69.455 161.677C69.431 162.313,69.235 162.95,69.284 163.586C69.309 165.912,69.382 168.237,69.382 170.539C68.966 170.563,68.55 170.563,68.158 170.539C66.004 170.392,63.898 170.024,61.695 170.073C60.936 170.073,60.153 170.098,59.37 170.22C60.153 168.727,60.79 167.356,61.597 166.01C63.458 162.95,65.465 159.914,66.787 156.487C67.105 155.679,67.35 154.871,67.35 154.039C67.35 153.794,67.301 153.549,67.277 153.28C67.228 153.084,67.228 152.693,66.958 152.693C66.665 152.668,66.322 152.766,66.151 153.035C66.028 153.256,65.906 153.427,65.832 153.647C65.343 155.239,64.462 156.609,63.629 158.005C62.626 159.743,61.45 161.408,60.422 163.121C58.978 165.569,57.778 168.091,56.016 170.318C55.453 171.028,54.939 171.763,54.939 172.644C54.939 172.962,55.012 173.28,55.135 173.599C55.282 173.917,55.453 174.235,55.453 174.553C55.502 175.067,55.6 175.263,55.894 175.288C56.016 175.288,56.236 175.214,56.481 175.067C58.048 174.406,59.614 174.064,61.279 174.064C63.458 174.064,65.661 174.406,67.84 174.553C68.085 174.578,68.329 174.578,68.574 174.627C68.819 174.627,69.064 174.627,69.309 174.553C69.235 176.561,69.211 178.568,69.064 180.575C68.99 182.118,68.819 183.684,68.819 185.3C68.819 185.692,68.819 186.034,68.868 186.402C68.868 186.72,68.819 187.136,69.113 187.234"/><path stroke="none" d="M69.113 227.234C69.455 227.332,69.749 227.038,69.921 226.744C70.386 226.157,70.435 225.447,70.557 224.737C70.949 221.383,70.875 218.005,70.998 214.651L70.998 214.308C72.246 214.064,73.397 213.623,74.572 213.109C76.285 212.301,76.579 211.86,76.555 210C76.555 209.119,76.359 208.727,75.918 208.703C75.698 208.703,75.38 208.8,74.988 209.021L74.743 209.119C73.544 209.657,72.32 210.073,71.047 210.318C71.047 208.776,70.973 207.209,70.9 205.667C70.826 204.37,70.802 203.023,70.679 201.726C70.655 201.432,70.679 200.869,70.239 200.869C69.798 200.869,69.504 201.163,69.455 201.677C69.431 202.313,69.235 202.95,69.284 203.586C69.309 205.912,69.382 208.237,69.382 210.539C68.966 210.563,68.55 210.563,68.158 210.539C66.004 210.392,63.898 210.024,61.695 210.073C60.936 210.073,60.153 210.098,59.37 210.22C60.153 208.727,60.79 207.356,61.597 206.01C63.458 202.95,65.465 199.914,66.787 196.487C67.105 195.679,67.35 194.871,67.35 194.039C67.35 193.794,67.301 193.549,67.277 193.28C67.228 193.084,67.228 192.693,66.958 192.693C66.665 192.668,66.322 192.766,66.151 193.035C66.028 193.256,65.906 193.427,65.832 193.647C65.343 195.239,64.462 196.609,63.629 198.005C62.626 199.743,61.45 201.408,60.422 203.121C58.978 205.569,57.778 208.091,56.016 210.318C55.453 211.028,54.939 211.763,54.939 212.644C54.939 212.962,55.012 213.28,55.135 213.599C55.282 213.917,55.453 214.235,55.453 214.553C55.502 215.067,55.6 215.263,55.894 215.288C56.016 215.288,56.236 215.214,56.481 215.067C58.048 214.406,59.614 214.064,61.279 214.064C63.458 214.064,65.661 214.406,67.84 214.553C68.085 214.578,68.329 214.578,68.574 214.627C68.819 214.627,69.064 214.627,69.309 214.553C69.235 216.561,69.211 218.568,69.064 220.575C68.99 222.118,68.819 223.684,68.819 225.3C68.819 225.692,68.819 226.034,68.868 226.402C68.868 226.72,68.819 227.136,69.113 227.234"/></g><g class="vf-stavenote" id="vf-auto16789"><g class="vf-stem" id="vf-auto16790" pointer-events="bounding-box"><path stroke-width="1.5" fill="none" d="M110.848 67L110.848 100"/></g><g class="vf-notehead" id="vf-auto16792" pointer-events="bounding-box"><path stroke="none" d="M113.243 71.543C113.524 71.599,113.776 71.627,114.057 71.627C117.932 71.627,123.717 66.348,123.604 62.08C123.492 61.041,123.52 59.609,121.414 58.766C120.824 58.485,120.179 58.373,119.477 58.373C115.152 58.373,110.463 63.343,110.126 66.657C110.126 66.909,110.098 67.134,110.098 67.387C110.098 69.409,110.996 71.037,113.243 71.543"/><path stroke="none" d="M97.248 80.13C97.549 80.103,97.631 79.665,97.713 79.391C97.878 78.872,97.905 78.352,97.905 77.887C97.905 77.449,97.878 77.066,97.878 76.628C97.878 76.354,97.878 75.999,97.905 75.725C97.987 74.932,98.069 74.138,98.096 73.345L99.847 72.989C99.93 74.658,100.231 76.272,100.778 77.832C100.832 78.051,100.969 78.27,101.215 78.27C101.462 78.324,101.544 78.051,101.653 77.832C101.927 77.421,101.954 76.902,101.954 76.436C102.009 76.081,102.009 75.752,102.009 75.452C102.009 74.494,101.927 73.509,101.899 72.551L104.17 72.086C106.332 71.648,106.605 71.348,106.77 69.268C106.77 68.748,106.824 68.393,106.77 67.982C106.742 67.49,106.523 67.134,106.113 67.134L106.031 67.134C105.867 67.134,105.757 67.134,105.593 67.161C104.69 67.408,103.705 67.599,102.748 67.763L102.091 67.873C102.118 67.326,102.118 66.724,102.173 66.149C102.2 64.891,102.228 63.632,102.228 62.373C103.35 62.072,104.417 61.772,105.484 61.416C106.058 61.224,106.578 60.896,106.742 60.267C106.879 59.555,107.098 58.899,107.098 58.187C107.098 57.777,107.043 57.367,106.879 56.956C106.742 56.573,106.605 56.382,106.387 56.382L106.304 56.382C106.168 56.382,106.031 56.382,105.867 56.464C104.635 56.956,103.432 57.367,102.173 57.722L102.036 55.588C101.954 53.892,101.899 52.168,101.544 50.472C101.462 50.253,101.489 49.897,101.243 49.897L101.215 49.897L101.106 49.897C100.778 49.979,100.395 50.116,100.34 50.554L100.34 51.293C100.34 53.618,100.422 55.889,100.477 58.187L98.37 58.652C98.37 57.476,98.343 56.3,98.261 55.123C98.233 54.521,98.233 53.974,97.905 53.372C97.029 53.81,97.166 54.548,97.166 55.178C97.084 56.464,97.029 57.668,97.002 58.899C95.908 59.118,94.786 59.282,93.691 59.473C92.077 59.747,91.831 59.993,91.831 61.772C91.722 62.209,92.05 62.702,91.995 63.194C91.913 63.933,92.105 64.179,92.624 64.207C92.734 64.207,92.871 64.179,93.035 64.124C94.321 63.933,95.579 63.741,96.838 63.495L96.728 67.052C96.674 67.709,96.619 68.338,96.537 68.967C95.059 69.268,93.609 69.542,92.159 69.897C91.339 70.089,90.846 70.39,90.846 71.348C90.846 72.278,91.202 73.153,91.256 74.056C91.256 74.494,91.366 74.685,91.694 74.74C91.749 74.74,91.886 74.685,92.05 74.658C93.445 74.33,94.868 74.056,96.291 73.755C96.263 74.248,96.263 74.768,96.263 75.315C96.263 76.71,96.4 78.051,96.893 79.391C96.975 79.665,96.893 80.13,97.248 80.13M98.288 68.612C98.343 67.763,98.343 66.888,98.37 66.012C98.425 65.082,98.425 64.179,98.425 63.222C99.081 63.112,99.711 63.003,100.34 62.839C100.148 64.644,100.066 66.45,99.957 68.283"/></g></g><g class="vf-stavenote" id="vf-auto16795"><g class="vf-stem" id="vf-auto16796" pointer-events="bounding-box"><path stroke-width="1.5" fill="none" d="M143.331 72L143.331 105"/></g><g class="vf-notehead" id="vf-auto16798" pointer-events="bounding-box"><path stroke="none" d="M145.726 76.543C146.007 76.599,146.26 76.627,146.54 76.627C150.415 76.627,156.2 71.348,156.088 67.08C155.975 66.041,156.003 64.609,153.897 63.766C153.308 63.485,152.662 63.373,151.96 63.373C147.635 63.373,142.946 68.343,142.609 71.657C142.609 71.909,142.581 72.134,142.581 72.387C142.581 74.409,143.48 76.037,145.726 76.543"/></g></g><g class="vf-stavenote" id="vf-auto16799"><g class="vf-notehead" id="vf-auto16803" pointer-events="bounding-box"><path stroke="none" d="M178.209 81.543C178.49 81.599,178.743 81.627,179.024 81.627C182.899 81.627,188.683 76.348,188.571 72.08C188.458 71.041,188.487 69.609,186.381 68.766C185.791 68.485,185.145 68.373,184.443 68.373C180.119 68.373,175.429 73.343,175.092 76.657C175.092 76.909,175.064 77.134,175.064 77.387C175.064 79.409,175.963 81.037,178.209 81.543"/></g></g><g class="vf-stavenote" id="vf-auto16805"><g class="vf-notehead" id="vf-auto16809" pointer-events="bounding-box"><path stroke="none" d="M202.568 96.543C202.849 96.599,203.102 96.627,203.383 96.627C207.258 96.627,213.042 91.348,212.93 87.08C212.817 86.041,212.845 84.609,210.739 83.766C210.15 83.485,209.504 83.373,208.802 83.373C204.478 83.373,199.788 88.343,199.451 91.657C199.451 91.909,199.423 92.134,199.423 92.387C199.423 94.409,200.322 96.037,202.568 96.543"/></g></g><g class="vf-stavenote" id="vf-auto16811"><path stroke-width="1.4" fill="none" stroke="#444" d="M220.782 100L240.29 100"/><g class="vf-notehead" id="vf-auto16815" pointer-events="bounding-box"><path stroke="none" d="M226.927 106.543C227.208 106.599,227.461 106.627,227.741 106.627C231.617 106.627,237.401 101.348,237.289 97.08C237.176 96.041,237.204 94.609,235.098 93.766C234.509 93.485,233.863 93.373,233.161 93.373C228.837 93.373,224.147 98.343,223.81 101.657C223.81 101.909,223.782 102.134,223.782 102.387C223.782 104.409,224.681 106.037,226.927 106.543"/></g></g><g class="vf-stavenote" id="vf-auto16817"><g class="vf-notehead" id="vf-auto16821" pointer-events="bounding-box"><path stroke="none" d="M256.983 101.543C257.264 101.599,257.517 101.627,257.798 101.627C261.673 101.627,267.457 96.348,267.345 92.08C267.233 91.041,267.261 89.609,265.155 88.766C264.565 88.485,263.919 88.373,263.217 88.373C258.893 88.373,254.204 93.343,253.867 96.657C253.867 96.909,253.838 97.134,253.838 97.387C253.838 99.409,254.737 101.037,256.983 101.543"/></g></g><g class="vf-stavenote" id="vf-auto16833"><g class="vf-stem" id="vf-auto16834" pointer-events="bounding-box"><path stroke-width="1.5" fill="none" d="M110.848 187L110.848 220"/></g><g class="vf-notehead" id="vf-auto16836" pointer-events="bounding-box"><path stroke="none" d="M113.243 191.543C113.524 191.599,113.776 191.627,114.057 191.627C117.932 191.627,123.717 186.348,123.604 182.08C123.492 181.041,123.52 179.609,121.414 178.766C120.824 178.485,120.179 178.373,119.477 178.373C115.152 178.373,110.463 183.343,110.126 186.657C110.126 186.909,110.098 187.134,110.098 187.387C110.098 189.409,110.996 191.037,113.243 191.543"/><path stroke="none" d="M97.248 200.13C97.549 200.103,97.631 199.665,97.713 199.391C97.878 198.872,97.905 198.352,97.905 197.887C97.905 197.449,97.878 197.066,97.878 196.628C97.878 196.354,97.878 195.999,97.905 195.725C97.987 194.932,98.069 194.138,98.096 193.345L99.847 192.989C99.93 194.658,100.231 196.272,100.778 197.832C100.832 198.051,100.969 198.27,101.215 198.27C101.462 198.324,101.544 198.051,101.653 197.832C101.927 197.421,101.954 196.902,101.954 196.436C102.009 196.081,102.009 195.752,102.009 195.452C102.009 194.494,101.927 193.509,101.899 192.551L104.17 192.086C106.332 191.648,106.605 191.348,106.77 189.268C106.77 188.748,106.824 188.393,106.77 187.982C106.742 187.49,106.523 187.134,106.113 187.134L106.031 187.134C105.867 187.134,105.757 187.134,105.593 187.161C104.69 187.408,103.705 187.599,102.748 187.763L102.091 187.873C102.118 187.326,102.118 186.724,102.173 186.149C102.2 184.891,102.228 183.632,102.228 182.373C103.35 182.072,104.417 181.772,105.484 181.416C106.058 181.224,106.578 180.896,106.742 180.267C106.879 179.555,107.098 178.899,107.098 178.187C107.098 177.777,107.043 177.367,106.879 176.956C106.742 176.573,106.605 176.382,106.387 176.382L106.304 176.382C106.168 176.382,106.031 176.382,105.867 176.464C104.635 176.956,103.432 177.367,102.173 177.722L102.036 175.588C101.954 173.892,101.899 172.168,101.544 170.472C101.462 170.253,101.489 169.897,101.243 169.897L101.215 169.897L101.106 169.897C100.778 169.979,100.395 170.116,100.34 170.554L100.34 171.293C100.34 173.618,100.422 175.889,100.477 178.187L98.37 178.652C98.37 177.476,98.343 176.3,98.261 175.123C98.233 174.521,98.233 173.974,97.905 173.372C97.029 173.81,97.166 174.548,97.166 175.178C97.084 176.464,97.029 177.668,97.002 178.899C95.908 179.118,94.786 179.282,93.691 179.473C92.077 179.747,91.831 179.993,91.831 181.772C91.722 182.209,92.05 182.702,91.995 183.194C91.913 183.933,92.105 184.179,92.624 184.207C92.734 184.207,92.871 184.179,93.035 184.124C94.321 183.933,95.579 183.741,96.838 183.495L96.728 187.052C96.674 187.709,96.619 188.338,96.537 188.967C95.059 189.268,93.609 189.542,92.159 189.897C91.339 190.089,90.846 190.39,90.846 191.348C90.846 192.278,91.202 193.153,91.256 194.056C91.256 194.494,91.366 194.685,91.694 194.74C91.749 194.74,91.886 194.685,92.05 194.658C93.445 194.33,94.868 194.056,96.291 193.755C96.263 194.248,96.263 194.768,96.263 195.315C96.263 196.71,96.4 198.051,96.893 199.391C96.975 199.665,96.893 200.13,97.248 200.13M98.288 188.612C98.343 187.763,98.343 186.888,98.37 186.012C98.425 185.082,98.425 184.179,98.425 183.222C99.081 183.112,99.711 183.003,100.34 182.839C100.148 184.644,100.066 186.45,99.957 188.283"/></g></g><g class="vf-stavenote" id="vf-auto16839"><g class="vf-stem" id="vf-auto16840" pointer-events="bounding-box"><path stroke-width="1.5" fill="none" d="M143.331 192L143.331 225"/></g><g class="vf-notehead" id="vf-auto16842" pointer-events="bounding-box"><path stroke="none" d="M145.726 196.543C146.007 196.599,146.26 196.627,146.54 196.627C150.415 196.627,156.2 191.348,156.088 187.08C155.975 186.041,156.003 184.609,153.897 183.766C153.308 183.485,152.662 183.373,151.96 183.373C147.635 183.373,142.946 188.343,142.609 191.657C142.609 191.909,142.581 192.134,142.581 192.387C142.581 194.409,143.48 196.037,145.726 196.543"/></g></g><g class="vf-stavenote" id="vf-auto16843"><g class="vf-stem" id="vf-auto16844" pointer-events="bounding-box"><path stroke-width="1.5" fill="none" d="M175.814 192L175.814 225"/></g><g class="vf-notehead" id="vf-auto16846" pointer-events="bounding-box"><path stroke="none" d="M178.209 196.543C178.49 196.599,178.743 196.627,179.024 196.627C182.899 196.627,188.683 191.348,188.571 187.08C188.458 186.041,188.487 184.609,186.381 183.766C185.791 183.485,185.145 183.373,184.443 183.373C180.119 183.373,175.429 188.343,175.092 191.657C175.092 191.909,175.064 192.134,175.064 192.387C175.064 194.409,175.963 196.037,178.209 196.543"/></g></g><g class="vf-stavenote" id="vf-auto16847"><g class="vf-notehead" id="vf-auto16851" pointer-events="bounding-box"><path stroke="none" d="M226.927 201.543C227.208 201.599,227.461 201.627,227.741 201.627C231.617 201.627,237.401 196.348,237.289 192.08C237.176 191.041,237.204 189.609,235.098 188.766C234.509 188.485,233.863 188.373,233.161 188.373C228.837 188.373,224.147 193.343,223.81 196.657C223.81 196.909,223.782 197.134,223.782 197.387C223.782 199.409,224.681 201.037,226.927 201.543"/></g></g><g class="vf-stavenote" id="vf-auto16853"><g class="vf-notehead" id="vf-auto16857" pointer-events="bounding-box"><path stroke="none" d="M248.863 216.543C249.144 216.599,249.397 216.627,249.678 216.627C253.553 216.627,259.337 211.348,259.225 207.08C259.113 206.041,259.141 204.609,257.035 203.766C256.445 203.485,255.799 203.373,255.097 203.373C250.773 203.373,246.083 208.343,245.746 211.657C245.746 211.909,245.718 212.134,245.718 212.387C245.718 214.409,246.617 216.037,248.863 216.543"/></g></g><g class="vf-stavenote" id="vf-auto16859"><path stroke-width="1.4" fill="none" stroke="#444" d="M264.655 220L284.163 220"/><g class="vf-notehead" id="vf-auto16863" pointer-events="bounding-box"><path stroke="none" d="M270.799 226.543C271.08 226.599,271.333 226.627,271.614 226.627C275.489 226.627,281.273 221.348,281.161 217.08C281.049 216.041,281.077 214.609,278.971 213.766C278.381 213.485,277.735 213.373,277.033 213.373C272.709 213.373,268.02 218.343,267.683 221.657C267.683 221.909,267.655 222.134,267.655 222.387C267.655 224.409,268.553 226.037,270.799 226.543"/></g></g><g class="vf-stem" id="vf-auto16800" pointer-events="bounding-box"><path stroke-width="1.5" fill="none" d="M187.822 73L187.822 40.75"/></g><g class="vf-stem" id="vf-auto16806" pointer-events="bounding-box"><path stroke-width="1.5" fill="none" d="M212.181 88L212.181 46.84"/></g><g class="vf-stem" id="vf-auto16812" pointer-events="bounding-box"><path stroke-width="1.5" fill="none" d="M236.54 98L236.54 52.929"/></g><g class="vf-stem" id="vf-auto16818" pointer-events="bounding-box"><path stroke-width="1.5" fill="none" d="M266.597 93L266.597 60.444"/></g><g class="vf-beam" id="vf-auto16823"><path stroke="none" d="M187.072 39.813L187.072 44.813L266.847 64.506L266.847 59.506Z"/></g><g class="vf-stem" id="vf-auto16848" pointer-events="bounding-box"><path stroke-width="1.5" fill="none" d="M236.54 193L236.54 160.75"/></g><g class="vf-stem" id="vf-auto16854" pointer-events="bounding-box"><path stroke-width="1.5" fill="none" d="M258.476 208L258.476 166.234"/></g><g class="vf-stem" id="vf-auto16860" pointer-events="bounding-box"><path stroke-width="1.5" fill="none" d="M280.413 218L280.413 171.718"/></g><g class="vf-beam" id="vf-auto16865"><path stroke="none" d="M235.79 159.813L235.79 164.813L280.663 175.781L280.663 170.781Z"/></g><path stroke="none" d="M255.963 157.887C256.723 158.14,257.452 158.267,258.149 158.267C259.59 158.267,260.936 157.729,262.124 156.699C263.582 155.4,264.089 153.689,264.089 151.884C264.089 151.472,264.057 151.044,264.009 150.632C263.883 149.349,263.154 148.351,261.871 147.829C261.522 147.718,261.19 147.623,260.825 147.528C262.14 145.959,263.265 144.344,264.421 142.712C264.722 142.3,264.865 141.857,264.865 141.366C264.865 141.192,264.833 140.986,264.785 140.78C264.722 140.51,264.611 140.4,264.421 140.4C264.358 140.4,264.294 140.415,264.199 140.431C263.693 140.574,263.186 140.59,262.695 140.59C261.443 140.59,260.16 140.558,258.909 140.558L258.022 140.558C256.628 140.558,255.234 140.558,253.872 140.685C253.412 140.732,253.175 140.922,253.111 141.397C253.016 141.857,253.048 142.332,253.001 142.807C252.969 143.108,253.048 143.251,253.365 143.251L253.428 143.251C254.236 143.172,255.044 143.124,255.868 143.124L262.077 143.124C260.825 144.819,259.59 146.292,258.149 147.623C257.293 148.415,256.438 149.143,256.438 150.363C256.438 150.569,256.469 150.791,256.533 151.044L256.533 151.092C256.517 151.266,256.517 151.472,256.723 151.567C256.881 151.63,257.04 151.551,257.151 151.424C257.737 150.838,258.513 150.664,259.273 150.474C259.542 150.41,259.812 150.363,260.065 150.363C260.73 150.363,261.364 150.585,261.918 151.044C262.283 151.313,262.758 151.662,262.758 152.169C262.758 152.248,262.742 152.327,262.71 152.406C262.299 153.737,261.554 154.782,260.224 155.289C259.574 155.543,258.909 155.653,258.259 155.653C257.119 155.653,256.01 155.289,254.933 154.719C254.474 154.45,254.093 154.244,253.935 153.689C253.903 153.578,253.888 153.277,253.666 153.277C253.618 153.277,253.587 153.277,253.539 153.309C253.301 153.373,253.111 153.547,253.111 153.895C253.064 154.656,253.254 155.305,253.412 156.034C253.492 156.43,253.777 156.746,254.141 156.968C254.727 157.317,255.297 157.665,255.963 157.887"/><rect x="123.606" y="10" width="18.975" height="240" fill="rgba(100,200,100,0.4)" stroke="none"/><text stroke-width="1" fill="green" stroke="none" font-size="8pt" x="123.606" y="262">19</text><rect x="158.089" y="10" width="16.975" height="240" fill="rgba(100,200,100,0.4)" stroke="none"/><text stroke-width="1" fill="green" stroke="none" font-size="8pt" x="158.089" y="262">17</text><rect x="190.572" y="10" width="8.851" height="240" fill="rgba(100,200,100,0.4)" stroke="none"/><text stroke-width="1" fill="green" stroke="none" font-size="8pt" x="190.572" y="262">9</text><rect x="214.931" y="10" width="8.851" height="240" fill="rgba(100,200,100,0.4)" stroke="none"/><text stroke-width="1" fill="green" stroke="none" font-size="8pt" x="214.931" y="262">9</text><rect x="239.29" y="10" width="6.428" height="240" fill="rgba(100,200,100,0.4)" stroke="none"/><text stroke-width="1" fill="green" stroke="none" font-size="8pt" x="239.29" y="262">6</text><rect x="261.226" y="10" height="240" fill="rgba(100,200,100,0.4)" stroke="none"/><text stroke-width="1" fill="green" stroke="none" font-size="8pt" x="261.226" y="262">-7</text><rect x="269.347" y="10" height="240" fill="rgba(100,200,100,0.4)" stroke="none"/><text stroke-width="1" fill="green" stroke="none" font-size="8pt" x="269.347" y="262">-2</text><text stroke-width="1" fill="red" stroke="none" font-size="8pt" x="67.846" y="277">Loss: 20.65 Shift: 0.00 Gap: 51.00</text></svg>