<svg xmlns="http://www.w3.org/2000/svg" stroke-width="0.3" stroke-dasharray="none" fill="black" stroke="black" font-family="Arial, sans-serif" font-size="10pt" font-weight="normal" font-style="normal" width="775" height="750" viewBox="0 0 775 750" style="width: 775px; height: 750px; border: none;"><g class="vf-stave" id="vf-auto21512" stroke-width="1" fill="#999999" stroke="#999999"><path fill="none" d="M50 50L713.549 50"/><path fill="none" d="M50 60L713.549 60"/><path fill="none" d="M50 70L713.549 70"/><path fill="none" d="M50 80L713.549 80"/><path fill="none" d="M50 90L713.549 90"/></g><g class="vf-stavebarline" id="vf-auto21513"/><g class="vf-stavebarline" id="vf-auto21514"><rect x="713.549" y="49.5" width="1" height="41" stroke="none"/></g><g class="vf-clef" id="vf-auto21515"><path stroke="none" d="M75.503 81.76C75.503 84.345,74.464 87.032,71.854 88.071C71.093 83.712,70.105 77.908,69.852 76.286C73.146 76.286,75.503 78.516,75.503 81.76M70.333 88.527C69.598 88.654,68.914 88.73,68.204 88.73C62.983 88.73,58.548 85.08,58.548 79.581C58.548 75.12,61.691 71.141,64.884 68.379C65.518 67.821,66.101 67.314,66.633 66.757C66.962 68.734,67.216 70.457,67.469 71.952C64.149 72.941,61.894 76.438,61.894 79.86C61.894 82.419,63.896 85.917,66.836 85.917C67.114 85.917,67.444 85.79,67.444 85.461C67.444 85.131,67.089 84.954,66.633 84.65C65.214 83.762,64.428 82.825,64.428 81.025C64.428 78.82,66.05 77.021,68.204 76.514M67.114 50.993C67.444 49.548,69.117 45.721,71.017 45.721C71.575 45.721,72.437 47.495,72.437 50.004C72.437 53.806,69.623 56.67,67.114 59.128C66.886 57.684,66.709 56.264,66.709 54.718C66.709 53.375,66.836 52.133,67.114 50.993M59.461 99.729C59.461 102.137,61.311 105.305,66.253 105.305C67.951 105.305,69.446 104.874,70.764 104.063C72.741 102.669,73.248 100.261,73.248 97.98C73.248 96.536,73.02 94.914,72.665 92.836C72.563 92.101,72.335 91.011,72.107 89.566C75.681 88.4,78.367 84.675,78.367 80.924C78.367 75.424,74.464 71.699,69.117 71.699C68.762 69.494,68.382 67.34,68.078 65.312C71.93 61.257,74.591 56.695,74.591 50.891C74.591 47.571,73.577 44.859,72.994 43.567C72.107 41.691,71.068 40.424,70.409 40.424C70.156 40.424,69.015 40.855,67.799 42.274C65.467 45.062,64.808 49.726,64.808 52.792C64.808 54.769,65.011 56.543,65.619 60.623C65.594 60.674,63.693 62.6,62.907 63.234C59.587 66.326,55 70.736,55 78.035C55 84.878,60.956 90.225,67.748 90.225C68.787 90.225,69.776 90.124,70.612 89.972C71.322 93.469,71.727 96.029,71.727 97.98C71.727 101.757,69.776 103.784,66.101 103.784C65.214 103.784,64.453 103.582,64.377 103.582C64.352 103.556,64.276 103.505,64.276 103.48C64.276 103.404,64.352 103.379,64.453 103.328C66.177 103.075,67.875 101.63,67.875 99.273C67.875 97.322,66.379 95.243,63.642 95.243C61.083 95.243,59.461 97.322,59.461 99.729"/></g><g class="vf-timesignature" id="vf-auto21516"><path stroke="none" d="M104.04 66.952L104.04 51.775C104.04 51.53,103.845 51.359,103.6 51.359L100.124 51.359C100.05 51.359,99.977 51.408,99.903 51.432C99.879 51.481,99.805 51.53,99.756 51.579L95.815 58.409C95.791 58.482,95.791 58.556,95.791 58.629C95.791 58.776,95.889 58.898,95.987 58.972L96.672 59.364C96.721 59.412,96.794 59.437,96.868 59.437C97.015 59.437,97.162 59.339,97.235 59.217L99.732 54.933L99.732 66.952L97.039 66.952C96.794 66.952,96.623 67.124,96.623 67.368L96.623 68.152C96.623 68.397,96.794 68.568,97.039 68.568L106.709 68.568C106.954 68.568,107.1 68.397,107.1 68.152L107.1 67.368C107.1 67.124,106.954 66.952,106.709 66.952"/><path stroke="none" d="M100.711 84.48L100.711 87.075L97.774 87.075C97.529 87.075,97.284 87.295,97.284 87.589L97.284 88.25C97.284 88.519,97.529 88.739,97.774 88.739L108.447 88.739C108.741 88.739,108.936 88.519,108.936 88.25L108.936 87.589C108.936 87.295,108.741 87.075,108.447 87.075L105.289 87.075L105.289 84.48L108.447 84.48C108.741 84.48,108.936 84.235,108.936 83.941L108.936 83.28C108.936 83.036,108.741 82.791,108.447 82.791L105.289 82.791L105.289 77.185C105.289 76.964,105.167 76.793,105.044 76.72L104.603 76.499C104.53 76.475,104.506 76.475,104.432 76.475C104.408 76.475,104.408 76.475,104.359 76.475C104.261 76.475,104.114 76.499,104.04 76.573L100.834 79.51C100.736 79.608,100.711 79.755,100.711 79.902L100.711 82.791L96.599 82.791C96.599 82.791,100.564 78.556,104.726 72.974C104.848 72.803,104.897 72.632,104.897 72.485C104.897 72.313,104.824 72.166,104.799 72.142L104.016 71.359C103.918 71.285,103.796 71.212,103.649 71.212C103.453 71.212,98.679 71.212,98.41 71.212C98.165 71.212,97.994 71.432,97.945 71.652C97.945 71.652,97.774 74.247,96.868 77.111C95.938 79.976,94.885 81.738,93.955 83.036C93.955 83.036,93.857 83.207,93.857 83.427C93.857 83.501,93.857 83.55,93.906 83.623C94.004 83.868,94.248 84.26,94.248 84.26C94.248 84.26,94.322 84.48,94.64 84.48"/></g><g class="vf-stave" id="vf-auto21520" stroke-width="1" fill="#999999" stroke="#999999"><path fill="none" d="M50 185L713.549 185"/><path fill="none" d="M50 195L713.549 195"/><path fill="none" d="M50 205L713.549 205"/><path fill="none" d="M50 215L713.549 215"/><path fill="none" d="M50 225L713.549 225"/></g><g class="vf-stavebarline" id="vf-auto21521"/><g class="vf-stavebarline" id="vf-auto21522"><rect x="713.549" y="184.5" width="1" height="41" stroke="none"/></g><g class="vf-clef" id="vf-auto21523"><path stroke="none" d="M75.503 216.76C75.503 219.345,74.464 222.032,71.854 223.071C71.093 218.712,70.105 212.908,69.852 211.286C73.146 211.286,75.503 213.516,75.503 216.76M70.333 223.527C69.598 223.654,68.914 223.73,68.204 223.73C62.983 223.73,58.548 220.08,58.548 214.581C58.548 210.12,61.691 206.141,64.884 203.379C65.518 202.821,66.101 202.314,66.633 201.757C66.962 203.734,67.216 205.457,67.469 206.952C64.149 207.941,61.894 211.438,61.894 214.86C61.894 217.419,63.896 220.917,66.836 220.917C67.114 220.917,67.444 220.79,67.444 220.461C67.444 220.131,67.089 219.954,66.633 219.65C65.214 218.762,64.428 217.825,64.428 216.025C64.428 213.82,66.05 212.021,68.204 211.514M67.114 185.993C67.444 184.548,69.117 180.721,71.017 180.721C71.575 180.721,72.437 182.495,72.437 185.004C72.437 188.806,69.623 191.67,67.114 194.128C66.886 192.684,66.709 191.264,66.709 189.718C66.709 188.375,66.836 187.133,67.114 185.993M59.461 234.729C59.461 237.137,61.311 240.305,66.253 240.305C67.951 240.305,69.446 239.874,70.764 239.063C72.741 237.669,73.248 235.261,73.248 232.98C73.248 231.536,73.02 229.914,72.665 227.836C72.563 227.101,72.335 226.011,72.107 224.566C75.681 223.4,78.367 219.675,78.367 215.924C78.367 210.424,74.464 206.699,69.117 206.699C68.762 204.494,68.382 202.34,68.078 200.312C71.93 196.257,74.591 191.695,74.591 185.891C74.591 182.571,73.577 179.859,72.994 178.567C72.107 176.691,71.068 175.424,70.409 175.424C70.156 175.424,69.015 175.855,67.799 177.274C65.467 180.062,64.808 184.726,64.808 187.792C64.808 189.769,65.011 191.543,65.619 195.623C65.594 195.674,63.693 197.6,62.907 198.234C59.587 201.326,55 205.736,55 213.035C55 219.878,60.956 225.225,67.748 225.225C68.787 225.225,69.776 225.124,70.612 224.972C71.322 228.469,71.727 231.029,71.727 232.98C71.727 236.757,69.776 238.784,66.101 238.784C65.214 238.784,64.453 238.582,64.377 238.582C64.352 238.556,64.276 238.505,64.276 238.48C64.276 238.404,64.352 238.379,64.453 238.328C66.177 238.075,67.875 236.63,67.875 234.273C67.875 232.322,66.379 230.243,63.642 230.243C61.083 230.243,59.461 232.322,59.461 234.729"/></g><g class="vf-timesignature" id="vf-auto21524"><path stroke="none" d="M104.04 201.952L104.04 186.775C104.04 186.53,103.845 186.359,103.6 186.359L100.124 186.359C100.05 186.359,99.977 186.408,99.903 186.432C99.879 186.481,99.805 186.53,99.756 186.579L95.815 193.409C95.791 193.482,95.791 193.556,95.791 193.629C95.791 193.776,95.889 193.898,95.987 193.972L96.672 194.364C96.721 194.412,96.794 194.437,96.868 194.437C97.015 194.437,97.162 194.339,97.235 194.217L99.732 189.933L99.732 201.952L97.039 201.952C96.794 201.952,96.623 202.124,96.623 202.368L96.623 203.152C96.623 203.397,96.794 203.568,97.039 203.568L106.709 203.568C106.954 203.568,107.1 203.397,107.1 203.152L107.1 202.368C107.1 202.124,106.954 201.952,106.709 201.952"/><path stroke="none" d="M100.711 219.48L100.711 222.075L97.774 222.075C97.529 222.075,97.284 222.295,97.284 222.589L97.284 223.25C97.284 223.519,97.529 223.739,97.774 223.739L108.447 223.739C108.741 223.739,108.936 223.519,108.936 223.25L108.936 222.589C108.936 222.295,108.741 222.075,108.447 222.075L105.289 222.075L105.289 219.48L108.447 219.48C108.741 219.48,108.936 219.235,108.936 218.941L108.936 218.28C108.936 218.036,108.741 217.791,108.447 217.791L105.289 217.791L105.289 212.185C105.289 211.964,105.167 211.793,105.044 211.72L104.603 211.499C104.53 211.475,104.506 211.475,104.432 211.475C104.408 211.475,104.408 211.475,104.359 211.475C104.261 211.475,104.114 211.499,104.04 211.573L100.834 214.51C100.736 214.608,100.711 214.755,100.711 214.902L100.711 217.791L96.599 217.791C96.599 217.791,100.564 213.556,104.726 207.974C104.848 207.803,104.897 207.632,104.897 207.485C104.897 207.313,104.824 207.166,104.799 207.142L104.016 206.359C103.918 206.285,103.796 206.212,103.649 206.212C103.453 206.212,98.679 206.212,98.41 206.212C98.165 206.212,97.994 206.432,97.945 206.652C97.945 206.652,97.774 209.247,96.868 212.111C95.938 214.976,94.885 216.738,93.955 218.036C93.955 218.036,93.857 218.207,93.857 218.427C93.857 218.501,93.857 218.55,93.906 218.623C94.004 218.868,94.248 219.26,94.248 219.26C94.248 219.26,94.322 219.48,94.64 219.48"/></g><g class="vf-stave" id="vf-auto21528" stroke-width="1" fill="#999999" stroke="#999999"><path fill="none" d="M50 320L713.549 320"/><path fill="none" d="M50 330L713.549 330"/><path fill="none" d="M50 340L713.549 340"/><path fill="none" d="M50 350L713.549 350"/><path fill="none" d="M50 360L713.549 360"/></g><g class="vf-stavebarline" id="vf-auto21529"/><g class="vf-stavebarline" id="vf-auto21530"><rect x="713.549" y="319.5" width="1" height="41" stroke="none"/></g><g class="vf-clef" id="vf-auto21531"><path stroke="none" d="M75.503 351.76C75.503 354.345,74.464 357.032,71.854 358.071C71.093 353.712,70.105 347.908,69.852 346.286C73.146 346.286,75.503 348.516,75.503 351.76M70.333 358.527C69.598 358.654,68.914 358.73,68.204 358.73C62.983 358.73,58.548 355.08,58.548 349.581C58.548 345.12,61.691 341.141,64.884 338.379C65.518 337.821,66.101 337.314,66.633 336.757C66.962 338.734,67.216 340.457,67.469 341.952C64.149 342.941,61.894 346.438,61.894 349.86C61.894 352.419,63.896 355.917,66.836 355.917C67.114 355.917,67.444 355.79,67.444 355.461C67.444 355.131,67.089 354.954,66.633 354.65C65.214 353.762,64.428 352.825,64.428 351.025C64.428 348.82,66.05 347.021,68.204 346.514M67.114 320.993C67.444 319.548,69.117 315.721,71.017 315.721C71.575 315.721,72.437 317.495,72.437 320.004C72.437 323.806,69.623 326.67,67.114 329.128C66.886 327.684,66.709 326.264,66.709 324.718C66.709 323.375,66.836 322.133,67.114 320.993M59.461 369.729C59.461 372.137,61.311 375.305,66.253 375.305C67.951 375.305,69.446 374.874,70.764 374.063C72.741 372.669,73.248 370.261,73.248 367.98C73.248 366.536,73.02 364.914,72.665 362.836C72.563 362.101,72.335 361.011,72.107 359.566C75.681 358.4,78.367 354.675,78.367 350.924C78.367 345.424,74.464 341.699,69.117 341.699C68.762 339.494,68.382 337.34,68.078 335.312C71.93 331.257,74.591 326.695,74.591 320.891C74.591 317.571,73.577 314.859,72.994 313.567C72.107 311.691,71.068 310.424,70.409 310.424C70.156 310.424,69.015 310.855,67.799 312.274C65.467 315.062,64.808 319.726,64.808 322.792C64.808 324.769,65.011 326.543,65.619 330.623C65.594 330.674,63.693 332.6,62.907 333.234C59.587 336.326,55 340.736,55 348.035C55 354.878,60.956 360.225,67.748 360.225C68.787 360.225,69.776 360.124,70.612 359.972C71.322 363.469,71.727 366.029,71.727 367.98C71.727 371.757,69.776 373.784,66.101 373.784C65.214 373.784,64.453 373.582,64.377 373.582C64.352 373.556,64.276 373.505,64.276 373.48C64.276 373.404,64.352 373.379,64.453 373.328C66.177 373.075,67.875 371.63,67.875 369.273C67.875 367.322,66.379 365.243,63.642 365.243C61.083 365.243,59.461 367.322,59.461 369.729"/></g><g class="vf-timesignature" id="vf-auto21532"><path stroke="none" d="M104.04 336.952L104.04 321.775C104.04 321.53,103.845 321.359,103.6 321.359L100.124 321.359C100.05 321.359,99.977 321.408,99.903 321.432C99.879 321.481,99.805 321.53,99.756 321.579L95.815 328.409C95.791 328.482,95.791 328.556,95.791 328.629C95.791 328.776,95.889 328.898,95.987 328.972L96.672 329.364C96.721 329.412,96.794 329.437,96.868 329.437C97.015 329.437,97.162 329.339,97.235 329.217L99.732 324.933L99.732 336.952L97.039 336.952C96.794 336.952,96.623 337.124,96.623 337.368L96.623 338.152C96.623 338.397,96.794 338.568,97.039 338.568L106.709 338.568C106.954 338.568,107.1 338.397,107.1 338.152L107.1 337.368C107.1 337.124,106.954 336.952,106.709 336.952"/><path stroke="none" d="M100.711 354.48L100.711 357.075L97.774 357.075C97.529 357.075,97.284 357.295,97.284 357.589L97.284 358.25C97.284 358.519,97.529 358.739,97.774 358.739L108.447 358.739C108.741 358.739,108.936 358.519,108.936 358.25L108.936 357.589C108.936 357.295,108.741 357.075,108.447 357.075L105.289 357.075L105.289 354.48L108.447 354.48C108.741 354.48,108.936 354.235,108.936 353.941L108.936 353.28C108.936 353.036,108.741 352.791,108.447 352.791L105.289 352.791L105.289 347.185C105.289 346.964,105.167 346.793,105.044 346.72L104.603 346.499C104.53 346.475,104.506 346.475,104.432 346.475C104.408 346.475,104.408 346.475,104.359 346.475C104.261 346.475,104.114 346.499,104.04 346.573L100.834 349.51C100.736 349.608,100.711 349.755,100.711 349.902L100.711 352.791L96.599 352.791C96.599 352.791,100.564 348.556,104.726 342.974C104.848 342.803,104.897 342.632,104.897 342.485C104.897 342.313,104.824 342.166,104.799 342.142L104.016 341.359C103.918 341.285,103.796 341.212,103.649 341.212C103.453 341.212,98.679 341.212,98.41 341.212C98.165 341.212,97.994 341.432,97.945 341.652C97.945 341.652,97.774 344.247,96.868 347.111C95.938 349.976,94.885 351.738,93.955 353.036C93.955 353.036,93.857 353.207,93.857 353.427C93.857 353.501,93.857 353.55,93.906 353.623C94.004 353.868,94.248 354.26,94.248 354.26C94.248 354.26,94.322 354.48,94.64 354.48"/></g><g class="vf-stave" id="vf-auto21536" stroke-width="1" fill="#999999" stroke="#999999"><path fill="none" d="M50 455L713.549 455"/><path fill="none" d="M50 465L713.549 465"/><path fill="none" d="M50 475L713.549 475"/><path fill="none" d="M50 485L713.549 485"/><path fill="none" d="M50 495L713.549 495"/></g><g class="vf-stavebarline" id="vf-auto21537"/><g class="vf-stavebarline" id="vf-auto21538"><rect x="713.549" y="454.5" width="1" height="41" stroke="none"/></g><g class="vf-clef" id="vf-auto21539"><path stroke="none" d="M75.503 486.76C75.503 489.345,74.464 492.032,71.854 493.071C71.093 488.712,70.105 482.908,69.852 481.286C73.146 481.286,75.503 483.516,75.503 486.76M70.333 493.527C69.598 493.654,68.914 493.73,68.204 493.73C62.983 493.73,58.548 490.08,58.548 484.581C58.548 480.12,61.691 476.141,64.884 473.379C65.518 472.821,66.101 472.314,66.633 471.757C66.962 473.734,67.216 475.457,67.469 476.952C64.149 477.941,61.894 481.438,61.894 484.86C61.894 487.419,63.896 490.917,66.836 490.917C67.114 490.917,67.444 490.79,67.444 490.461C67.444 490.131,67.089 489.954,66.633 489.65C65.214 488.762,64.428 487.825,64.428 486.025C64.428 483.82,66.05 482.021,68.204 481.514M67.114 455.993C67.444 454.548,69.117 450.721,71.017 450.721C71.575 450.721,72.437 452.495,72.437 455.004C72.437 458.806,69.623 461.67,67.114 464.128C66.886 462.684,66.709 461.264,66.709 459.718C66.709 458.375,66.836 457.133,67.114 455.993M59.461 504.729C59.461 507.137,61.311 510.305,66.253 510.305C67.951 510.305,69.446 509.874,70.764 509.063C72.741 507.669,73.248 505.261,73.248 502.98C73.248 501.536,73.02 499.914,72.665 497.836C72.563 497.101,72.335 496.011,72.107 494.566C75.681 493.4,78.367 489.675,78.367 485.924C78.367 480.424,74.464 476.699,69.117 476.699C68.762 474.494,68.382 472.34,68.078 470.312C71.93 466.257,74.591 461.695,74.591 455.891C74.591 452.571,73.577 449.859,72.994 448.567C72.107 446.691,71.068 445.424,70.409 445.424C70.156 445.424,69.015 445.855,67.799 447.274C65.467 450.062,64.808 454.726,64.808 457.792C64.808 459.769,65.011 461.543,65.619 465.623C65.594 465.674,63.693 467.6,62.907 468.234C59.587 471.326,55 475.736,55 483.035C55 489.878,60.956 495.225,67.748 495.225C68.787 495.225,69.776 495.124,70.612 494.972C71.322 498.469,71.727 501.029,71.727 502.98C71.727 506.757,69.776 508.784,66.101 508.784C65.214 508.784,64.453 508.582,64.377 508.582C64.352 508.556,64.276 508.505,64.276 508.48C64.276 508.404,64.352 508.379,64.453 508.328C66.177 508.075,67.875 506.63,67.875 504.273C67.875 502.322,66.379 500.243,63.642 500.243C61.083 500.243,59.461 502.322,59.461 504.729"/></g><g class="vf-timesignature" id="vf-auto21540"><path stroke="none" d="M104.04 471.952L104.04 456.775C104.04 456.53,103.845 456.359,103.6 456.359L100.124 456.359C100.05 456.359,99.977 456.408,99.903 456.432C99.879 456.481,99.805 456.53,99.756 456.579L95.815 463.409C95.791 463.482,95.791 463.556,95.791 463.629C95.791 463.776,95.889 463.898,95.987 463.972L96.672 464.364C96.721 464.412,96.794 464.437,96.868 464.437C97.015 464.437,97.162 464.339,97.235 464.217L99.732 459.933L99.732 471.952L97.039 471.952C96.794 471.952,96.623 472.124,96.623 472.368L96.623 473.152C96.623 473.397,96.794 473.568,97.039 473.568L106.709 473.568C106.954 473.568,107.1 473.397,107.1 473.152L107.1 472.368C107.1 472.124,106.954 471.952,106.709 471.952"/><path stroke="none" d="M100.711 489.48L100.711 492.075L97.774 492.075C97.529 492.075,97.284 492.295,97.284 492.589L97.284 493.25C97.284 493.519,97.529 493.739,97.774 493.739L108.447 493.739C108.741 493.739,108.936 493.519,108.936 493.25L108.936 492.589C108.936 492.295,108.741 492.075,108.447 492.075L105.289 492.075L105.289 489.48L108.447 489.48C108.741 489.48,108.936 489.235,108.936 488.941L108.936 488.28C108.936 488.036,108.741 487.791,108.447 487.791L105.289 487.791L105.289 482.185C105.289 481.964,105.167 481.793,105.044 481.72L104.603 481.499C104.53 481.475,104.506 481.475,104.432 481.475C104.408 481.475,104.408 481.475,104.359 481.475C104.261 481.475,104.114 481.499,104.04 481.573L100.834 484.51C100.736 484.608,100.711 484.755,100.711 484.902L100.711 487.791L96.599 487.791C96.599 487.791,100.564 483.556,104.726 477.974C104.848 477.803,104.897 477.632,104.897 477.485C104.897 477.313,104.824 477.166,104.799 477.142L104.016 476.359C103.918 476.285,103.796 476.212,103.649 476.212C103.453 476.212,98.679 476.212,98.41 476.212C98.165 476.212,97.994 476.432,97.945 476.652C97.945 476.652,97.774 479.247,96.868 482.111C95.938 484.976,94.885 486.738,93.955 488.036C93.955 488.036,93.857 488.207,93.857 488.427C93.857 488.501,93.857 488.55,93.906 488.623C94.004 488.868,94.248 489.26,94.248 489.26C94.248 489.26,94.322 489.48,94.64 489.48"/></g><g class="vf-stave" id="vf-auto21544" stroke-width="1" fill="#999999" stroke="#999999"><path fill="none" d="M50 590L713.549 590"/><path fill="none" d="M50 600L713.549 600"/><path fill="none" d="M50 610L713.549 610"/><path fill="none" d="M50 620L713.549 620"/><path fill="none" d="M50 630L713.549 630"/></g><g class="vf-stavebarline" id="vf-auto21545"/><g class="vf-stavebarline" id="vf-auto21546"><rect x="713.549" y="589.5" width="1" height="41" stroke="none"/></g><g class="vf-clef" id="vf-auto21547"><path stroke="none" d="M75.503 621.76C75.503 624.345,74.464 627.032,71.854 628.071C71.093 623.712,70.105 617.908,69.852 616.286C73.146 616.286,75.503 618.516,75.503 621.76M70.333 628.527C69.598 628.654,68.914 628.73,68.204 628.73C62.983 628.73,58.548 625.08,58.548 619.581C58.548 615.12,61.691 611.141,64.884 608.379C65.518 607.821,66.101 607.314,66.633 606.757C66.962 608.734,67.216 610.457,67.469 611.952C64.149 612.941,61.894 616.438,61.894 619.86C61.894 622.419,63.896 625.917,66.836 625.917C67.114 625.917,67.444 625.79,67.444 625.461C67.444 625.131,67.089 624.954,66.633 624.65C65.214 623.762,64.428 622.825,64.428 621.025C64.428 618.82,66.05 617.021,68.204 616.514M67.114 590.993C67.444 589.548,69.117 585.721,71.017 585.721C71.575 585.721,72.437 587.495,72.437 590.004C72.437 593.806,69.623 596.67,67.114 599.128C66.886 597.684,66.709 596.264,66.709 594.718C66.709 593.375,66.836 592.133,67.114 590.993M59.461 639.729C59.461 642.137,61.311 645.305,66.253 645.305C67.951 645.305,69.446 644.874,70.764 644.063C72.741 642.669,73.248 640.261,73.248 637.98C73.248 636.536,73.02 634.914,72.665 632.836C72.563 632.101,72.335 631.011,72.107 629.566C75.681 628.4,78.367 624.675,78.367 620.924C78.367 615.424,74.464 611.699,69.117 611.699C68.762 609.494,68.382 607.34,68.078 605.312C71.93 601.257,74.591 596.695,74.591 590.891C74.591 587.571,73.577 584.859,72.994 583.567C72.107 581.691,71.068 580.424,70.409 580.424C70.156 580.424,69.015 580.855,67.799 582.274C65.467 585.062,64.808 589.726,64.808 592.792C64.808 594.769,65.011 596.543,65.619 600.623C65.594 600.674,63.693 602.6,62.907 603.234C59.587 606.326,55 610.736,55 618.035C55 624.878,60.956 630.225,67.748 630.225C68.787 630.225,69.776 630.124,70.612 629.972C71.322 633.469,71.727 636.029,71.727 637.98C71.727 641.757,69.776 643.784,66.101 643.784C65.214 643.784,64.453 643.582,64.377 643.582C64.352 643.556,64.276 643.505,64.276 643.48C64.276 643.404,64.352 643.379,64.453 643.328C66.177 643.075,67.875 641.63,67.875 639.273C67.875 637.322,66.379 635.243,63.642 635.243C61.083 635.243,59.461 637.322,59.461 639.729"/></g><g class="vf-timesignature" id="vf-auto21548"><path stroke="none" d="M104.04 606.952L104.04 591.775C104.04 591.53,103.845 591.359,103.6 591.359L100.124 591.359C100.05 591.359,99.977 591.408,99.903 591.432C99.879 591.481,99.805 591.53,99.756 591.579L95.815 598.409C95.791 598.482,95.791 598.556,95.791 598.629C95.791 598.776,95.889 598.898,95.987 598.972L96.672 599.364C96.721 599.412,96.794 599.437,96.868 599.437C97.015 599.437,97.162 599.339,97.235 599.217L99.732 594.933L99.732 606.952L97.039 606.952C96.794 606.952,96.623 607.124,96.623 607.368L96.623 608.152C96.623 608.397,96.794 608.568,97.039 608.568L106.709 608.568C106.954 608.568,107.1 608.397,107.1 608.152L107.1 607.368C107.1 607.124,106.954 606.952,106.709 606.952"/><path stroke="none" d="M100.711 624.48L100.711 627.075L97.774 627.075C97.529 627.075,97.284 627.295,97.284 627.589L97.284 628.25C97.284 628.519,97.529 628.739,97.774 628.739L108.447 628.739C108.741 628.739,108.936 628.519,108.936 628.25L108.936 627.589C108.936 627.295,108.741 627.075,108.447 627.075L105.289 627.075L105.289 624.48L108.447 624.48C108.741 624.48,108.936 624.235,108.936 623.941L108.936 623.28C108.936 623.036,108.741 622.791,108.447 622.791L105.289 622.791L105.289 617.185C105.289 616.964,105.167 616.793,105.044 616.72L104.603 616.499C104.53 616.475,104.506 616.475,104.432 616.475C104.408 616.475,104.408 616.475,104.359 616.475C104.261 616.475,104.114 616.499,104.04 616.573L100.834 619.51C100.736 619.608,100.711 619.755,100.711 619.902L100.711 622.791L96.599 622.791C96.599 622.791,100.564 618.556,104.726 612.974C104.848 612.803,104.897 612.632,104.897 612.485C104.897 612.313,104.824 612.166,104.799 612.142L104.016 611.359C103.918 611.285,103.796 611.212,103.649 611.212C103.453 611.212,98.679 611.212,98.41 611.212C98.165 611.212,97.994 611.432,97.945 611.652C97.945 611.652,97.774 614.247,96.868 617.111C95.938 619.976,94.885 621.738,93.955 623.036C93.955 623.036,93.857 623.207,93.857 623.427C93.857 623.501,93.857 623.55,93.906 623.623C94.004 623.868,94.248 624.26,94.248 624.26C94.248 624.26,94.322 624.48,94.64 624.48"/></g><g class="vf-stavenote" id="vf-auto21372"><g class="vf-stem" id="vf-auto21373" pointer-events="bounding-box"><path stroke-width="1.5" fill="none" d="M121.197 67L121.197 97"/></g><g class="vf-notehead" id="vf-auto21376" pointer-events="bounding-box"><path stroke="none" d="M120.447 66.685C120.447 68.426,121.71 70.391,124.968 70.391C129.18 70.391,133.588 66.938,133.588 63.371C133.588 60.985,131.567 59.665,129.067 59.665C125.136 59.665,120.447 62.978,120.447 66.685"/></g><path stroke="none" d="M120.447 101.972C120.447 102.253,120.7 102.477,120.98 102.477C121.177 102.477,121.43 102.337,121.458 102.168C121.458 102.112,121.823 100.708,121.851 100.596C121.907 100.428,122.272 98.883,123.732 96.496C125.305 93.885,127.72 91.975,129.741 89.139C131.735 86.303,132.942 83.636,132.942 80.098C132.942 76.391,132.1 73.33,129.938 69.399C129.826 69.118,129.573 68.978,129.348 68.978C129.264 68.978,129.18 68.978,129.152 69.006C128.927 69.09,128.871 69.259,128.871 69.483C128.871 69.624,128.899 69.82,128.983 69.989C130.584 73.723,131.23 75.886,131.23 78.778C131.23 82.147,130.078 83.888,129.348 85.152C126.709 89.617,122.469 91.807,120.784 92.369C120.475 92.509,120.447 92.706,120.447 92.818"/></g><g class="vf-stavenote" id="vf-auto21378"><g class="vf-stem" id="vf-auto21379" pointer-events="bounding-box"><path stroke-width="1.5" fill="none" d="M350.318 67L350.318 97"/></g><g class="vf-notehead" id="vf-auto21382" pointer-events="bounding-box"><path stroke="none" d="M349.568 66.685C349.568 68.426,350.832 70.391,354.089 70.391C358.301 70.391,362.71 66.938,362.71 63.371C362.71 60.985,360.688 59.665,358.189 59.665C354.258 59.665,349.568 62.978,349.568 66.685"/></g><path stroke="none" d="M349.568 101.972C349.568 102.253,349.821 102.477,350.102 102.477C350.299 102.477,350.551 102.337,350.579 102.168C350.579 102.112,350.944 100.708,350.972 100.596C351.029 100.428,351.394 98.883,352.854 96.496C354.426 93.885,356.841 91.975,358.863 89.139C360.857 86.303,362.064 83.636,362.064 80.098C362.064 76.391,361.222 73.33,359.059 69.399C358.947 69.118,358.694 68.978,358.47 68.978C358.386 68.978,358.301 68.978,358.273 69.006C358.049 69.09,357.992 69.259,357.992 69.483C357.992 69.624,358.021 69.82,358.105 69.989C359.705 73.723,360.351 75.886,360.351 78.778C360.351 82.147,359.2 83.888,358.47 85.152C355.83 89.617,351.59 91.807,349.905 92.369C349.597 92.509,349.568 92.706,349.568 92.818"/></g><g class="vf-stavenote" id="vf-auto21384"><g class="vf-stem" id="vf-auto21385" pointer-events="bounding-box"><path stroke-width="1.5" fill="none" d="M132.838 208L132.838 178"/></g><g class="vf-notehead" id="vf-auto21388" pointer-events="bounding-box"><path stroke="none" d="M120.447 211.685C120.447 213.426,121.71 215.391,124.968 215.391C129.18 215.391,133.588 211.938,133.588 208.371C133.588 205.985,131.567 204.665,129.067 204.665C125.136 204.665,120.447 207.978,120.447 211.685"/></g><path stroke="none" d="M132.088 182.182C132.088 182.294,132.116 182.491,132.425 182.631C134.138 183.193,137.62 185.383,140.26 189.848C140.99 191.112,142.169 192.853,142.169 196.222C142.169 199.114,141.383 202.119,140.344 205.011C140.26 205.264,140.175 205.46,140.203 205.629C140.203 205.797,140.26 205.91,140.428 205.994C140.512 206.022,140.568 206.022,140.625 206.022C140.905 206.022,141.102 205.882,141.27 205.601C143.18 202.231,143.826 197.935,143.77 195.408C143.77 195.211,143.77 195.071,143.77 194.902C143.573 189.708,140.568 185.861,140.568 185.861C140.709 185.861,136.862 180.89,135.767 179.178C134.279 176.875,133.577 174.572,133.492 174.404C133.464 174.292,133.099 172.832,133.099 172.832C133.071 172.663,132.846 172.523,132.622 172.523C132.341 172.523,132.088 172.747,132.088 173.028"/></g><g class="vf-stavenote" id="vf-auto21390"><g class="vf-stem" id="vf-auto21391" pointer-events="bounding-box"><path stroke-width="1.5" fill="none" d="M271.111 208L271.111 178"/></g><g class="vf-notehead" id="vf-auto21394" pointer-events="bounding-box"><path stroke="none" d="M258.72 211.685C258.72 213.426,259.983 215.391,263.241 215.391C267.453 215.391,271.861 211.938,271.861 208.371C271.861 205.985,269.839 204.665,267.34 204.665C263.409 204.665,258.72 207.978,258.72 211.685"/></g><path stroke="none" d="M270.361 182.182C270.361 182.294,270.389 182.491,270.698 182.631C272.411 183.193,275.893 185.383,278.533 189.848C279.263 191.112,280.442 192.853,280.442 196.222C280.442 199.114,279.656 202.119,278.617 205.011C278.533 205.264,278.448 205.46,278.476 205.629C278.476 205.797,278.533 205.91,278.701 205.994C278.785 206.022,278.841 206.022,278.898 206.022C279.178 206.022,279.375 205.882,279.543 205.601C281.453 202.231,282.099 197.935,282.043 195.408C282.043 195.211,282.043 195.071,282.043 194.902C281.846 189.708,278.841 185.861,278.841 185.861C278.982 185.861,275.135 180.89,274.04 179.178C272.551 176.875,271.849 174.572,271.765 174.404C271.737 174.292,271.372 172.832,271.372 172.832C271.344 172.663,271.119 172.523,270.895 172.523C270.614 172.523,270.361 172.747,270.361 173.028"/></g><g class="vf-stavenote" id="vf-auto21396"><g class="vf-stem" id="vf-auto21397" pointer-events="bounding-box"><path stroke-width="1.5" fill="none" d="M439.667 208L439.667 178"/></g><g class="vf-notehead" id="vf-auto21400" pointer-events="bounding-box"><path stroke="none" d="M427.276 211.685C427.276 213.426,428.539 215.391,431.797 215.391C436.009 215.391,440.417 211.938,440.417 208.371C440.417 205.985,438.395 204.665,435.896 204.665C431.965 204.665,427.276 207.978,427.276 211.685"/></g><path stroke="none" d="M438.917 182.182C438.917 182.294,438.945 182.491,439.254 182.631C440.967 183.193,444.449 185.383,447.088 189.848C447.818 191.112,448.998 192.853,448.998 196.222C448.998 199.114,448.212 202.119,447.173 205.011C447.088 205.264,447.004 205.46,447.032 205.629C447.032 205.797,447.088 205.91,447.257 205.994C447.341 206.022,447.397 206.022,447.453 206.022C447.734 206.022,447.931 205.882,448.099 205.601C450.009 202.231,450.655 197.935,450.598 195.408C450.598 195.211,450.598 195.071,450.598 194.902C450.402 189.708,447.397 185.861,447.397 185.861C447.538 185.861,443.691 180.89,442.596 179.178C441.107 176.875,440.405 174.572,440.321 174.404C440.293 174.292,439.928 172.832,439.928 172.832C439.9 172.663,439.675 172.523,439.451 172.523C439.17 172.523,438.917 172.747,438.917 173.028"/></g><g class="vf-stavenote" id="vf-auto21405"><g class="vf-stem" id="vf-auto21406" pointer-events="bounding-box"><path stroke-width="1.5" fill="none" d="M121.197 337L121.197 367"/></g><g class="vf-notehead" id="vf-auto21409" pointer-events="bounding-box"><path stroke="none" d="M120.447 336.685C120.447 338.426,121.71 340.391,124.968 340.391C129.18 340.391,133.588 336.938,133.588 333.371C133.588 330.985,131.567 329.665,129.067 329.665C125.136 329.665,120.447 332.978,120.447 336.685"/></g><path stroke="none" d="M121.935 362.284C121.991 362.088,122.019 361.919,122.019 361.807C122.3 360.796,122.637 359.308,125.024 357.483C127.355 355.657,130.163 353.411,131.23 351.445C131.173 354.562,130.387 356.5,129.348 357.876C126.877 360.908,123.873 361.779,121.935 362.284M120.447 372.393C120.447 372.73,120.728 373.039,121.065 373.039C121.373 373.039,121.57 372.73,121.654 372.393C122.272 368.237,123.508 367.03,125.136 365.485C127.27 363.436,132.942 360.319,132.942 352.821C132.942 351.502,132.83 350.013,132.577 348.497C132.746 347.992,132.83 347.262,132.83 346.194C132.83 343.021,130.949 340.775,129.629 339.736C129.461 339.624,129.208 339.54,128.983 339.54C128.815 339.54,128.646 339.568,128.506 339.652C128.337 339.736,128.281 339.764,128.281 339.848C128.281 339.989,128.534 340.129,128.702 340.298C130.106 341.786,131.173 343.162,131.173 345.886C131.173 346.391,131.117 346.925,130.949 347.402L130.921 347.542C130.921 347.542,130.921 347.542,130.921 347.542C130.724 348.357,130.275 349.115,129.629 349.845C126.793 353.13,122.862 354.815,121.065 355.208C120.784 355.349,120.447 356.219,120.447 356.303"/></g><g class="vf-stavenote" id="vf-auto21411"><g class="vf-stem" id="vf-auto21412" pointer-events="bounding-box"><path stroke-width="1.5" fill="none" d="M212.045 337L212.045 367"/></g><g class="vf-notehead" id="vf-auto21415" pointer-events="bounding-box"><path stroke="none" d="M211.295 336.685C211.295 338.426,212.559 340.391,215.816 340.391C220.028 340.391,224.437 336.938,224.437 333.371C224.437 330.985,222.415 329.665,219.916 329.665C215.985 329.665,211.295 332.978,211.295 336.685"/></g><path stroke="none" d="M212.784 362.284C212.84 362.088,212.868 361.919,212.868 361.807C213.149 360.796,213.486 359.308,215.873 357.483C218.203 355.657,221.011 353.411,222.078 351.445C222.022 354.562,221.236 356.5,220.197 357.876C217.726 360.908,214.721 361.779,212.784 362.284M211.295 372.393C211.295 372.73,211.576 373.039,211.913 373.039C212.222 373.039,212.419 372.73,212.503 372.393C213.121 368.237,214.356 367.03,215.985 365.485C218.119 363.436,223.791 360.319,223.791 352.821C223.791 351.502,223.679 350.013,223.426 348.497C223.595 347.992,223.679 347.262,223.679 346.194C223.679 343.021,221.797 340.775,220.478 339.736C220.309 339.624,220.056 339.54,219.832 339.54C219.663 339.54,219.495 339.568,219.354 339.652C219.186 339.736,219.13 339.764,219.13 339.848C219.13 339.989,219.383 340.129,219.551 340.298C220.955 341.786,222.022 343.162,222.022 345.886C222.022 346.391,221.966 346.925,221.797 347.402L221.769 347.542C221.769 347.542,221.769 347.542,221.769 347.542C221.573 348.357,221.123 349.115,220.478 349.845C217.642 353.13,213.71 354.815,211.913 355.208C211.632 355.349,211.295 356.219,211.295 356.303"/></g><g class="vf-stavenote" id="vf-auto21417"><g class="vf-stem" id="vf-auto21418" pointer-events="bounding-box"><path stroke-width="1.5" fill="none" d="M350.318 337L350.318 367"/></g><g class="vf-notehead" id="vf-auto21421" pointer-events="bounding-box"><path stroke="none" d="M349.568 336.685C349.568 338.426,350.832 340.391,354.089 340.391C358.301 340.391,362.71 336.938,362.71 333.371C362.71 330.985,360.688 329.665,358.189 329.665C354.258 329.665,349.568 332.978,349.568 336.685"/></g><path stroke="none" d="M351.057 362.284C351.113 362.088,351.141 361.919,351.141 361.807C351.422 360.796,351.759 359.308,354.145 357.483C356.476 355.657,359.284 353.411,360.351 351.445C360.295 354.562,359.509 356.5,358.47 357.876C355.999 360.908,352.994 361.779,351.057 362.284M349.568 372.393C349.568 372.73,349.849 373.039,350.186 373.039C350.495 373.039,350.692 372.73,350.776 372.393C351.394 368.237,352.629 367.03,354.258 365.485C356.392 363.436,362.064 360.319,362.064 352.821C362.064 351.502,361.952 350.013,361.699 348.497C361.867 347.992,361.952 347.262,361.952 346.194C361.952 343.021,360.07 340.775,358.751 339.736C358.582 339.624,358.329 339.54,358.105 339.54C357.936 339.54,357.768 339.568,357.627 339.652C357.459 339.736,357.403 339.764,357.403 339.848C357.403 339.989,357.655 340.129,357.824 340.298C359.228 341.786,360.295 343.162,360.295 345.886C360.295 346.391,360.239 346.925,360.07 347.402L360.042 347.542C360.042 347.542,360.042 347.542,360.042 347.542C359.846 348.357,359.396 349.115,358.751 349.845C355.915 353.13,351.983 354.815,350.186 355.208C349.905 355.349,349.568 356.219,349.568 356.303"/></g><g class="vf-stavenote" id="vf-auto21423"><g class="vf-stem" id="vf-auto21424" pointer-events="bounding-box"><path stroke-width="1.5" fill="none" d="M488.591 337L488.591 367"/></g><g class="vf-notehead" id="vf-auto21427" pointer-events="bounding-box"><path stroke="none" d="M487.841 336.685C487.841 338.426,489.105 340.391,492.362 340.391C496.574 340.391,500.983 336.938,500.983 333.371C500.983 330.985,498.961 329.665,496.462 329.665C492.531 329.665,487.841 332.978,487.841 336.685"/></g><path stroke="none" d="M489.33 362.284C489.386 362.088,489.414 361.919,489.414 361.807C489.695 360.796,490.032 359.308,492.418 357.483C494.749 355.657,497.557 353.411,498.624 351.445C498.568 354.562,497.782 356.5,496.743 357.876C494.272 360.908,491.267 361.779,489.33 362.284M487.841 372.393C487.841 372.73,488.122 373.039,488.459 373.039C488.768 373.039,488.965 372.73,489.049 372.393C489.667 368.237,490.902 367.03,492.531 365.485C494.665 363.436,500.337 360.319,500.337 352.821C500.337 351.502,500.225 350.013,499.972 348.497C500.14 347.992,500.225 347.262,500.225 346.194C500.225 343.021,498.343 340.775,497.024 339.736C496.855 339.624,496.602 339.54,496.378 339.54C496.209 339.54,496.041 339.568,495.9 339.652C495.732 339.736,495.676 339.764,495.676 339.848C495.676 339.989,495.928 340.129,496.097 340.298C497.501 341.786,498.568 343.162,498.568 345.886C498.568 346.391,498.512 346.925,498.343 347.402L498.315 347.542C498.315 347.542,498.315 347.542,498.315 347.542C498.119 348.357,497.669 349.115,497.024 349.845C494.187 353.13,490.256 354.815,488.459 355.208C488.178 355.349,487.841 356.219,487.841 356.303"/></g><g class="vf-stavenote" id="vf-auto21429"><g class="vf-stem" id="vf-auto21430" pointer-events="bounding-box"><path stroke-width="1.5" fill="none" d="M132.838 478L132.838 448"/></g><g class="vf-notehead" id="vf-auto21433" pointer-events="bounding-box"><path stroke="none" d="M120.447 481.685C120.447 483.426,121.71 485.391,124.968 485.391C129.18 485.391,133.588 481.938,133.588 478.371C133.588 475.985,131.567 474.665,129.067 474.665C125.136 474.665,120.447 477.978,120.447 481.685"/></g><path stroke="none" d="M140.54 462.122C139.445 460.718,138.238 459.427,136.244 457.433C134.672 455.861,133.942 454.485,133.661 453.446C133.633 453.221,133.577 452.94,133.548 452.631C135.598 452.631,138.238 455.411,139.698 457.321C141.27 459.371,141.635 460.999,141.635 462.544C141.635 462.937,141.579 463.33,141.551 463.751C141.214 463.105,140.849 462.572,140.54 462.122M132.088 458.416C132.088 458.528,132.425 458.697,132.706 458.809C133.745 459.174,136.89 461.196,139.333 464.79C140.709 466.868,141.018 468.3,141.018 469.676C141.018 469.929,141.018 470.125,140.99 470.378C140.99 471.333,140.709 473.411,140.091 475.011C140.063 475.236,139.923 475.46,139.923 475.685C139.923 475.826,140.007 475.994,140.203 476.106C140.288 476.162,140.344 476.162,140.428 476.162C140.709 476.162,140.849 475.826,141.018 475.601C141.748 474.45,142.815 472.287,142.815 470.013C142.815 468.834,142.731 467.879,142.59 467.008C143.011 465.52,143.376 464.032,143.376 462.038C143.376 459.932,142.815 458.051,141.439 456.226C139.529 453.727,137.48 451.621,135.935 449.402C134.391 447.156,133.268 443,133.268 443C133.183 442.719,133.127 442.523,132.706 442.523C132.201 442.523,132.088 442.719,132.088 443"/></g><g class="vf-stavenote" id="vf-auto21435"><g class="vf-stem" id="vf-auto21436" pointer-events="bounding-box"><path stroke-width="1.5" fill="none" d="M193.404 478L193.404 448"/></g><g class="vf-notehead" id="vf-auto21439" pointer-events="bounding-box"><path stroke="none" d="M181.013 481.685C181.013 483.426,182.276 485.391,185.533 485.391C189.745 485.391,194.154 481.938,194.154 478.371C194.154 475.985,192.132 474.665,189.633 474.665C185.702 474.665,181.013 477.978,181.013 481.685"/></g><path stroke="none" d="M201.106 462.122C200.011 460.718,198.804 459.427,196.81 457.433C195.237 455.861,194.507 454.485,194.227 453.446C194.198 453.221,194.142 452.94,194.114 452.631C196.164 452.631,198.804 455.411,200.264 457.321C201.836 459.371,202.201 460.999,202.201 462.544C202.201 462.937,202.145 463.33,202.117 463.751C201.78 463.105,201.415 462.572,201.106 462.122M192.654 458.416C192.654 458.528,192.991 458.697,193.272 458.809C194.311 459.174,197.456 461.196,199.899 464.79C201.275 466.868,201.583 468.3,201.583 469.676C201.583 469.929,201.583 470.125,201.555 470.378C201.555 471.333,201.275 473.411,200.657 475.011C200.629 475.236,200.488 475.46,200.488 475.685C200.488 475.826,200.573 475.994,200.769 476.106C200.853 476.162,200.91 476.162,200.994 476.162C201.275 476.162,201.415 475.826,201.583 475.601C202.314 474.45,203.381 472.287,203.381 470.013C203.381 468.834,203.296 467.879,203.156 467.008C203.577 465.52,203.942 464.032,203.942 462.038C203.942 459.932,203.381 458.051,202.005 456.226C200.095 453.727,198.045 451.621,196.501 449.402C194.957 447.156,193.833 443,193.833 443C193.749 442.719,193.693 442.523,193.272 442.523C192.766 442.523,192.654 442.719,192.654 443"/></g><g class="vf-stavenote" id="vf-auto21441"><g class="vf-stem" id="vf-auto21442" pointer-events="bounding-box"><path stroke-width="1.5" fill="none" d="M301.394 478L301.394 448"/></g><g class="vf-notehead" id="vf-auto21445" pointer-events="bounding-box"><path stroke="none" d="M289.003 481.685C289.003 483.426,290.266 485.391,293.524 485.391C297.736 485.391,302.144 481.938,302.144 478.371C302.144 475.985,300.122 474.665,297.623 474.665C293.692 474.665,289.003 477.978,289.003 481.685"/></g><path stroke="none" d="M309.096 462.122C308.001 460.718,306.794 459.427,304.8 457.433C303.227 455.861,302.497 454.485,302.217 453.446C302.189 453.221,302.132 452.94,302.104 452.631C304.154 452.631,306.794 455.411,308.254 457.321C309.826 459.371,310.191 460.999,310.191 462.544C310.191 462.937,310.135 463.33,310.107 463.751C309.77 463.105,309.405 462.572,309.096 462.122M300.644 458.416C300.644 458.528,300.981 458.697,301.262 458.809C302.301 459.174,305.446 461.196,307.889 464.79C309.265 466.868,309.574 468.3,309.574 469.676C309.574 469.929,309.574 470.125,309.545 470.378C309.545 471.333,309.265 473.411,308.647 475.011C308.619 475.236,308.478 475.46,308.478 475.685C308.478 475.826,308.563 475.994,308.759 476.106C308.843 476.162,308.9 476.162,308.984 476.162C309.265 476.162,309.405 475.826,309.574 475.601C310.304 474.45,311.371 472.287,311.371 470.013C311.371 468.834,311.286 467.879,311.146 467.008C311.567 465.52,311.932 464.032,311.932 462.038C311.932 459.932,311.371 458.051,309.995 456.226C308.085 453.727,306.035 451.621,304.491 449.402C302.947 447.156,301.823 443,301.823 443C301.739 442.719,301.683 442.523,301.262 442.523C300.756 442.523,300.644 442.719,300.644 443"/></g><g class="vf-stavenote" id="vf-auto21447"><g class="vf-stem" id="vf-auto21448" pointer-events="bounding-box"><path stroke-width="1.5" fill="none" d="M409.384 478L409.384 448"/></g><g class="vf-notehead" id="vf-auto21451" pointer-events="bounding-box"><path stroke="none" d="M396.993 481.685C396.993 483.426,398.256 485.391,401.514 485.391C405.726 485.391,410.134 481.938,410.134 478.371C410.134 475.985,408.112 474.665,405.613 474.665C401.682 474.665,396.993 477.978,396.993 481.685"/></g><path stroke="none" d="M417.086 462.122C415.991 460.718,414.784 459.427,412.79 457.433C411.218 455.861,410.487 454.485,410.207 453.446C410.179 453.221,410.122 452.94,410.094 452.631C412.144 452.631,414.784 455.411,416.244 457.321C417.816 459.371,418.181 460.999,418.181 462.544C418.181 462.937,418.125 463.33,418.097 463.751C417.76 463.105,417.395 462.572,417.086 462.122M408.634 458.416C408.634 458.528,408.971 458.697,409.252 458.809C410.291 459.174,413.436 461.196,415.879 464.79C417.255 466.868,417.564 468.3,417.564 469.676C417.564 469.929,417.564 470.125,417.536 470.378C417.536 471.333,417.255 473.411,416.637 475.011C416.609 475.236,416.469 475.46,416.469 475.685C416.469 475.826,416.553 475.994,416.749 476.106C416.834 476.162,416.89 476.162,416.974 476.162C417.255 476.162,417.395 475.826,417.564 475.601C418.294 474.45,419.361 472.287,419.361 470.013C419.361 468.834,419.277 467.879,419.136 467.008C419.557 465.52,419.922 464.032,419.922 462.038C419.922 459.932,419.361 458.051,417.985 456.226C416.075 453.727,414.026 451.621,412.481 449.402C410.937 447.156,409.814 443,409.814 443C409.729 442.719,409.673 442.523,409.252 442.523C408.747 442.523,408.634 442.719,408.634 443"/></g><g class="vf-stavenote" id="vf-auto21453"><g class="vf-stem" id="vf-auto21454" pointer-events="bounding-box"><path stroke-width="1.5" fill="none" d="M517.374 478L517.374 448"/></g><g class="vf-notehead" id="vf-auto21457" pointer-events="bounding-box"><path stroke="none" d="M504.983 481.685C504.983 483.426,506.246 485.391,509.504 485.391C513.716 485.391,518.124 481.938,518.124 478.371C518.124 475.985,516.103 474.665,513.603 474.665C509.672 474.665,504.983 477.978,504.983 481.685"/></g><path stroke="none" d="M525.076 462.122C523.981 460.718,522.774 459.427,520.78 457.433C519.208 455.861,518.478 454.485,518.197 453.446C518.169 453.221,518.113 452.94,518.084 452.631C520.134 452.631,522.774 455.411,524.234 457.321C525.806 459.371,526.171 460.999,526.171 462.544C526.171 462.937,526.115 463.33,526.087 463.751C525.75 463.105,525.385 462.572,525.076 462.122M516.624 458.416C516.624 458.528,516.961 458.697,517.242 458.809C518.281 459.174,521.426 461.196,523.869 464.79C525.245 466.868,525.554 468.3,525.554 469.676C525.554 469.929,525.554 470.125,525.526 470.378C525.526 471.333,525.245 473.411,524.627 475.011C524.599 475.236,524.459 475.46,524.459 475.685C524.459 475.826,524.543 475.994,524.739 476.106C524.824 476.162,524.88 476.162,524.964 476.162C525.245 476.162,525.385 475.826,525.554 475.601C526.284 474.45,527.351 472.287,527.351 470.013C527.351 468.834,527.267 467.879,527.126 467.008C527.547 465.52,527.912 464.032,527.912 462.038C527.912 459.932,527.351 458.051,525.975 456.226C524.065 453.727,522.016 451.621,520.471 449.402C518.927 447.156,517.804 443,517.804 443C517.719 442.719,517.663 442.523,517.242 442.523C516.737 442.523,516.624 442.719,516.624 443"/></g><g class="vf-stavenote" id="vf-auto21462"><g class="vf-stem" id="vf-auto21463" pointer-events="bounding-box"><path stroke-width="1.5" fill="none" d="M132.838 613L132.838 574"/></g><g class="vf-notehead" id="vf-auto21466" pointer-events="bounding-box"><path stroke="none" d="M120.447 616.685C120.447 618.426,121.71 620.391,124.968 620.391C129.18 620.391,133.588 616.938,133.588 613.371C133.588 610.985,131.567 609.665,129.067 609.665C125.136 609.665,120.447 612.978,120.447 616.685"/></g><path stroke="none" d="M140.54 597.179C139.445 595.747,138.238 594.511,136.244 592.489C134.672 590.889,133.942 589.513,133.661 588.474C133.633 588.277,133.577 587.94,133.492 587.631C135.598 587.631,138.238 590.131,139.698 592.04C141.27 594.146,141.635 595.747,141.635 597.291C141.635 597.768,141.579 598.246,141.551 598.751C141.214 598.105,140.849 597.6,140.54 597.179M139.698 585.273C141.27 587.351,141.635 589.007,141.635 590.524C141.635 590.776,141.579 590.973,141.579 591.17C141.551 591.113,141.467 591.029,141.439 590.945C139.529 588.446,136.16 585.61,134.644 583.391C134.026 582.493,133.717 581.482,133.492 580.583C135.57 580.583,138.238 583.391,139.698 585.273M132.088 593.444C132.088 593.556,132.425 593.725,132.706 593.837C133.745 594.202,136.89 596.224,139.333 599.846C140.709 601.896,141.018 603.356,141.018 604.732C141.018 604.957,141.018 605.181,140.99 605.406C140.99 606.389,140.709 608.439,140.091 610.067C140.063 610.264,139.923 610.517,139.923 610.713C139.923 610.882,140.007 611.022,140.203 611.162C140.288 611.191,140.344 611.191,140.428 611.191C140.709 611.191,140.849 610.882,141.018 610.629C141.748 609.506,142.815 607.316,142.815 605.041C142.815 603.89,142.731 602.907,142.59 602.065C143.011 600.52,143.376 598.779,143.376 596.757C143.376 595.747,143.208 594.736,142.927 593.809C143.18 592.77,143.376 591.675,143.376 590.383C143.376 590.243,143.376 590.131,143.376 590.018C143.376 587.912,142.815 586.003,141.439 584.178C139.529 581.678,137.48 579.572,135.935 577.354C134.391 575.136,133.268 570.952,133.268 570.952C133.183 570.671,133.127 570.475,132.706 570.475C132.201 570.475,132.088 570.671,132.088 570.952"/></g><g class="vf-stavenote" id="vf-auto21468"><g class="vf-stem" id="vf-auto21469" pointer-events="bounding-box"><path stroke-width="1.5" fill="none" d="M163.121 613L163.121 574"/></g><g class="vf-notehead" id="vf-auto21472" pointer-events="bounding-box"><path stroke="none" d="M150.73 616.685C150.73 618.426,151.993 620.391,155.251 620.391C159.463 620.391,163.871 616.938,163.871 613.371C163.871 610.985,161.849 609.665,159.35 609.665C155.419 609.665,150.73 612.978,150.73 616.685"/></g><path stroke="none" d="M170.823 597.179C169.728 595.747,168.521 594.511,166.527 592.489C164.955 590.889,164.224 589.513,163.944 588.474C163.916 588.277,163.859 587.94,163.775 587.631C165.881 587.631,168.521 590.131,169.981 592.04C171.553 594.146,171.918 595.747,171.918 597.291C171.918 597.768,171.862 598.246,171.834 598.751C171.497 598.105,171.132 597.6,170.823 597.179M169.981 585.273C171.553 587.351,171.918 589.007,171.918 590.524C171.918 590.776,171.862 590.973,171.862 591.17C171.834 591.113,171.75 591.029,171.722 590.945C169.812 588.446,166.443 585.61,164.926 583.391C164.309 582.493,164 581.482,163.775 580.583C165.853 580.583,168.521 583.391,169.981 585.273M162.371 593.444C162.371 593.556,162.708 593.725,162.989 593.837C164.028 594.202,167.173 596.224,169.616 599.846C170.992 601.896,171.301 603.356,171.301 604.732C171.301 604.957,171.301 605.181,171.273 605.406C171.273 606.389,170.992 608.439,170.374 610.067C170.346 610.264,170.205 610.517,170.205 610.713C170.205 610.882,170.29 611.022,170.486 611.162C170.571 611.191,170.627 611.191,170.711 611.191C170.992 611.191,171.132 610.882,171.301 610.629C172.031 609.506,173.098 607.316,173.098 605.041C173.098 603.89,173.013 602.907,172.873 602.065C173.294 600.52,173.659 598.779,173.659 596.757C173.659 595.747,173.491 594.736,173.21 593.809C173.463 592.77,173.659 591.675,173.659 590.383C173.659 590.243,173.659 590.131,173.659 590.018C173.659 587.912,173.098 586.003,171.722 584.178C169.812 581.678,167.763 579.572,166.218 577.354C164.674 575.136,163.551 570.952,163.551 570.952C163.466 570.671,163.41 570.475,162.989 570.475C162.483 570.475,162.371 570.671,162.371 570.952"/></g><g class="vf-stavenote" id="vf-auto21474"><g class="vf-stem" id="vf-auto21475" pointer-events="bounding-box"><path stroke-width="1.5" fill="none" d="M240.828 613L240.828 574"/></g><g class="vf-notehead" id="vf-auto21478" pointer-events="bounding-box"><path stroke="none" d="M228.437 616.685C228.437 618.426,229.701 620.391,232.958 620.391C237.17 620.391,241.578 616.938,241.578 613.371C241.578 610.985,239.557 609.665,237.057 609.665C233.126 609.665,228.437 612.978,228.437 616.685"/></g><path stroke="none" d="M248.53 597.179C247.435 595.747,246.228 594.511,244.234 592.489C242.662 590.889,241.932 589.513,241.651 588.474C241.623 588.277,241.567 587.94,241.482 587.631C243.588 587.631,246.228 590.131,247.688 592.04C249.261 594.146,249.626 595.747,249.626 597.291C249.626 597.768,249.569 598.246,249.541 598.751C249.204 598.105,248.839 597.6,248.53 597.179M247.688 585.273C249.261 587.351,249.626 589.007,249.626 590.524C249.626 590.776,249.569 590.973,249.569 591.17C249.541 591.113,249.457 591.029,249.429 590.945C247.52 588.446,244.15 585.61,242.634 583.391C242.016 582.493,241.707 581.482,241.482 580.583C243.56 580.583,246.228 583.391,247.688 585.273M240.078 593.444C240.078 593.556,240.415 593.725,240.696 593.837C241.735 594.202,244.88 596.224,247.323 599.846C248.699 601.896,249.008 603.356,249.008 604.732C249.008 604.957,249.008 605.181,248.98 605.406C248.98 606.389,248.699 608.439,248.081 610.067C248.053 610.264,247.913 610.517,247.913 610.713C247.913 610.882,247.997 611.022,248.193 611.162C248.278 611.191,248.334 611.191,248.418 611.191C248.699 611.191,248.839 610.882,249.008 610.629C249.738 609.506,250.805 607.316,250.805 605.041C250.805 603.89,250.721 602.907,250.58 602.065C251.001 600.52,251.367 598.779,251.367 596.757C251.367 595.747,251.198 594.736,250.917 593.809C251.17 592.77,251.367 591.675,251.367 590.383C251.367 590.243,251.367 590.131,251.367 590.018C251.367 587.912,250.805 586.003,249.429 584.178C247.52 581.678,245.47 579.572,243.925 577.354C242.381 575.136,241.258 570.952,241.258 570.952C241.173 570.671,241.117 570.475,240.696 570.475C240.191 570.475,240.078 570.671,240.078 570.952"/></g><g class="vf-stavenote" id="vf-auto21480"><g class="vf-stem" id="vf-auto21481" pointer-events="bounding-box"><path stroke-width="1.5" fill="none" d="M331.677 613L331.677 574"/></g><g class="vf-notehead" id="vf-auto21484" pointer-events="bounding-box"><path stroke="none" d="M319.286 616.685C319.286 618.426,320.549 620.391,323.806 620.391C328.018 620.391,332.427 616.938,332.427 613.371C332.427 610.985,330.405 609.665,327.906 609.665C323.975 609.665,319.286 612.978,319.286 616.685"/></g><path stroke="none" d="M339.379 597.179C338.284 595.747,337.077 594.511,335.083 592.489C333.51 590.889,332.78 589.513,332.499 588.474C332.471 588.277,332.415 587.94,332.331 587.631C334.437 587.631,337.077 590.131,338.537 592.04C340.109 594.146,340.474 595.747,340.474 597.291C340.474 597.768,340.418 598.246,340.39 598.751C340.053 598.105,339.688 597.6,339.379 597.179M338.537 585.273C340.109 587.351,340.474 589.007,340.474 590.524C340.474 590.776,340.418 590.973,340.418 591.17C340.39 591.113,340.306 591.029,340.278 590.945C338.368 588.446,334.999 585.61,333.482 583.391C332.865 582.493,332.556 581.482,332.331 580.583C334.409 580.583,337.077 583.391,338.537 585.273M330.927 593.444C330.927 593.556,331.264 593.725,331.545 593.837C332.584 594.202,335.729 596.224,338.172 599.846C339.548 601.896,339.856 603.356,339.856 604.732C339.856 604.957,339.856 605.181,339.828 605.406C339.828 606.389,339.548 608.439,338.93 610.067C338.902 610.264,338.761 610.517,338.761 610.713C338.761 610.882,338.846 611.022,339.042 611.162C339.126 611.191,339.183 611.191,339.267 611.191C339.548 611.191,339.688 610.882,339.856 610.629C340.587 609.506,341.654 607.316,341.654 605.041C341.654 603.89,341.569 602.907,341.429 602.065C341.85 600.52,342.215 598.779,342.215 596.757C342.215 595.747,342.047 594.736,341.766 593.809C342.019 592.77,342.215 591.675,342.215 590.383C342.215 590.243,342.215 590.131,342.215 590.018C342.215 587.912,341.654 586.003,340.278 584.178C338.368 581.678,336.318 579.572,334.774 577.354C333.23 575.136,332.106 570.952,332.106 570.952C332.022 570.671,331.966 570.475,331.545 570.475C331.039 570.475,330.927 570.671,330.927 570.952"/></g><g class="vf-stavenote" id="vf-auto21486"><g class="vf-stem" id="vf-auto21487" pointer-events="bounding-box"><path stroke-width="1.5" fill="none" d="M379.101 613L379.101 574"/></g><g class="vf-notehead" id="vf-auto21490" pointer-events="bounding-box"><path stroke="none" d="M366.71 616.685C366.71 618.426,367.973 620.391,371.231 620.391C375.443 620.391,379.851 616.938,379.851 613.371C379.851 610.985,377.83 609.665,375.33 609.665C371.399 609.665,366.71 612.978,366.71 616.685"/></g><path stroke="none" d="M386.803 597.179C385.708 595.747,384.501 594.511,382.507 592.489C380.935 590.889,380.205 589.513,379.924 588.474C379.896 588.277,379.84 587.94,379.755 587.631C381.861 587.631,384.501 590.131,385.961 592.04C387.533 594.146,387.899 595.747,387.899 597.291C387.899 597.768,387.842 598.246,387.814 598.751C387.477 598.105,387.112 597.6,386.803 597.179M385.961 585.273C387.533 587.351,387.899 589.007,387.899 590.524C387.899 590.776,387.842 590.973,387.842 591.17C387.814 591.113,387.73 591.029,387.702 590.945C385.793 588.446,382.423 585.61,380.907 583.391C380.289 582.493,379.98 581.482,379.755 580.583C381.833 580.583,384.501 583.391,385.961 585.273M378.351 593.444C378.351 593.556,378.688 593.725,378.969 593.837C380.008 594.202,383.153 596.224,385.596 599.846C386.972 601.896,387.281 603.356,387.281 604.732C387.281 604.957,387.281 605.181,387.253 605.406C387.253 606.389,386.972 608.439,386.354 610.067C386.326 610.264,386.186 610.517,386.186 610.713C386.186 610.882,386.27 611.022,386.466 611.162C386.551 611.191,386.607 611.191,386.691 611.191C386.972 611.191,387.112 610.882,387.281 610.629C388.011 609.506,389.078 607.316,389.078 605.041C389.078 603.89,388.994 602.907,388.853 602.065C389.274 600.52,389.639 598.779,389.639 596.757C389.639 595.747,389.471 594.736,389.19 593.809C389.443 592.77,389.639 591.675,389.639 590.383C389.639 590.243,389.639 590.131,389.639 590.018C389.639 587.912,389.078 586.003,387.702 584.178C385.793 581.678,383.743 579.572,382.198 577.354C380.654 575.136,379.531 570.952,379.531 570.952C379.446 570.671,379.39 570.475,378.969 570.475C378.464 570.475,378.351 570.671,378.351 570.952"/></g><g class="vf-stavenote" id="vf-auto21492"><g class="vf-stem" id="vf-auto21493" pointer-events="bounding-box"><path stroke-width="1.5" fill="none" d="M469.95 613L469.95 574"/></g><g class="vf-notehead" id="vf-auto21496" pointer-events="bounding-box"><path stroke="none" d="M457.559 616.685C457.559 618.426,458.822 620.391,462.079 620.391C466.291 620.391,470.7 616.938,470.7 613.371C470.7 610.985,468.678 609.665,466.179 609.665C462.248 609.665,457.559 612.978,457.559 616.685"/></g><path stroke="none" d="M477.652 597.179C476.557 595.747,475.349 594.511,473.356 592.489C471.783 590.889,471.053 589.513,470.772 588.474C470.744 588.277,470.688 587.94,470.604 587.631C472.71 587.631,475.349 590.131,476.81 592.04C478.382 594.146,478.747 595.747,478.747 597.291C478.747 597.768,478.691 598.246,478.663 598.751C478.326 598.105,477.961 597.6,477.652 597.179M476.81 585.273C478.382 587.351,478.747 589.007,478.747 590.524C478.747 590.776,478.691 590.973,478.691 591.17C478.663 591.113,478.579 591.029,478.551 590.945C476.641 588.446,473.272 585.61,471.755 583.391C471.137 582.493,470.829 581.482,470.604 580.583C472.682 580.583,475.349 583.391,476.81 585.273M469.2 593.444C469.2 593.556,469.537 593.725,469.818 593.837C470.857 594.202,474.002 596.224,476.445 599.846C477.821 601.896,478.129 603.356,478.129 604.732C478.129 604.957,478.129 605.181,478.101 605.406C478.101 606.389,477.821 608.439,477.203 610.067C477.175 610.264,477.034 610.517,477.034 610.713C477.034 610.882,477.119 611.022,477.315 611.162C477.399 611.191,477.455 611.191,477.54 611.191C477.821 611.191,477.961 610.882,478.129 610.629C478.859 609.506,479.927 607.316,479.927 605.041C479.927 603.89,479.842 602.907,479.702 602.065C480.123 600.52,480.488 598.779,480.488 596.757C480.488 595.747,480.32 594.736,480.039 593.809C480.292 592.77,480.488 591.675,480.488 590.383C480.488 590.243,480.488 590.131,480.488 590.018C480.488 587.912,479.927 586.003,478.551 584.178C476.641 581.678,474.591 579.572,473.047 577.354C471.503 575.136,470.379 570.952,470.379 570.952C470.295 570.671,470.239 570.475,469.818 570.475C469.312 570.475,469.2 570.671,469.2 570.952"/></g><g class="vf-stavenote" id="vf-auto21498"><g class="vf-stem" id="vf-auto21499" pointer-events="bounding-box"><path stroke-width="1.5" fill="none" d="M547.657 613L547.657 574"/></g><g class="vf-notehead" id="vf-auto21502" pointer-events="bounding-box"><path stroke="none" d="M535.266 616.685C535.266 618.426,536.529 620.391,539.787 620.391C543.999 620.391,548.407 616.938,548.407 613.371C548.407 610.985,546.385 609.665,543.886 609.665C539.955 609.665,535.266 612.978,535.266 616.685"/></g><path stroke="none" d="M555.359 597.179C554.264 595.747,553.057 594.511,551.063 592.489C549.491 590.889,548.76 589.513,548.48 588.474C548.452 588.277,548.395 587.94,548.311 587.631C550.417 587.631,553.057 590.131,554.517 592.04C556.089 594.146,556.454 595.747,556.454 597.291C556.454 597.768,556.398 598.246,556.37 598.751C556.033 598.105,555.668 597.6,555.359 597.179M554.517 585.273C556.089 587.351,556.454 589.007,556.454 590.524C556.454 590.776,556.398 590.973,556.398 591.17C556.37 591.113,556.286 591.029,556.258 590.945C554.348 588.446,550.979 585.61,549.462 583.391C548.845 582.493,548.536 581.482,548.311 580.583C550.389 580.583,553.057 583.391,554.517 585.273M546.907 593.444C546.907 593.556,547.244 593.725,547.525 593.837C548.564 594.202,551.709 596.224,554.152 599.846C555.528 601.896,555.837 603.356,555.837 604.732C555.837 604.957,555.837 605.181,555.809 605.406C555.809 606.389,555.528 608.439,554.91 610.067C554.882 610.264,554.741 610.517,554.741 610.713C554.741 610.882,554.826 611.022,555.022 611.162C555.107 611.191,555.163 611.191,555.247 611.191C555.528 611.191,555.668 610.882,555.837 610.629C556.567 609.506,557.634 607.316,557.634 605.041C557.634 603.89,557.549 602.907,557.409 602.065C557.83 600.52,558.195 598.779,558.195 596.757C558.195 595.747,558.027 594.736,557.746 593.809C557.999 592.77,558.195 591.675,558.195 590.383C558.195 590.243,558.195 590.131,558.195 590.018C558.195 587.912,557.634 586.003,556.258 584.178C554.348 581.678,552.299 579.572,550.754 577.354C549.21 575.136,548.087 570.952,548.087 570.952C548.002 570.671,547.946 570.475,547.525 570.475C547.019 570.475,546.907 570.671,546.907 570.952"/></g><rect x="115.447" y="165" width="156.009" height="1" stroke="none"/><rect x="289.408" y="165" width="156.009" height="1" stroke="none"/><rect x="115.447" y="165" width="1" height="10" stroke="none"/><rect x="445.417" y="165" width="1" height="10" stroke="none"/><path stroke="none" d="M282.665 163.969C284.487 163.256,284.598 162.068,284.598 161.672C284.598 161.625,284.598 161.577,284.598 161.545C284.598 161.34,284.534 158.773,280.606 158.773C276.678 158.773,276.804 161.545,276.804 161.545L276.82 161.545L276.804 161.593C276.804 162.417,277.454 163.05,278.277 163.05C279.101 163.05,279.735 162.417,279.735 161.593C279.735 160.928,279.244 160.294,278.594 160.152C278.626 160.136,278.642 160.12,278.673 160.088C278.99 159.866,279.418 159.756,279.861 159.756C280.812 159.756,281.841 160.326,281.841 161.545C281.841 162.987,280.764 163.193,280.495 163.24C280.226 163.288,278.943 163.383,278.673 163.383C278.388 163.383,278.373 163.7,278.373 163.7L278.373 164.143C278.373 164.143,278.42 164.397,278.673 164.428C279.054 164.444,279.576 164.444,280.305 164.555C281.319 164.698,281.841 165.379,281.841 166.979C281.841 168.515,280.812 168.911,279.861 168.911C279.212 168.911,278.626 168.737,278.373 168.547C279.117 168.515,279.735 167.85,279.735 167.089C279.735 166.266,279.101 165.616,278.277 165.616C277.454 165.616,276.804 166.266,276.804 167.089C276.804 167.089,276.804 167.137,276.804 167.185C276.804 167.485,276.868 168.309,277.691 169.054C278.578 169.877,279.687 169.893,280.194 169.893C282.38 169.893,284.756 169.149,284.756 166.662C284.756 164.999,283.616 164.286,282.618 163.969"/><rect x="115.447" y="435" width="194.887" height="1" stroke="none"/><rect x="328.238" y="435" width="194.887" height="1" stroke="none"/><rect x="115.447" y="435" width="1" height="10" stroke="none"/><rect x="523.124" y="435" width="1" height="10" stroke="none"/><path stroke="none" d="M315.951 429.36C315.951 429.36,316.062 430.453,316.062 431.641C316.062 431.736,316.062 431.846,316.062 431.941C316.046 433.209,315.951 434.713,315.951 434.713C315.951 434.713,315.951 434.745,315.951 434.793C315.951 434.888,315.967 435.062,316.11 435.094C316.316 435.125,316.791 435.252,316.902 435.268C316.949 435.268,316.981 435.268,317.028 435.268C317.108 435.268,317.203 435.252,317.25 435.109C317.361 434.809,317.614 433.621,319.056 433.621C320.672 433.621,320.973 435.014,320.973 436.107C320.973 437.248,320.608 438.895,319.103 438.959C319.024 438.959,318.977 438.959,318.913 438.959C318.391 438.959,318.09 438.895,317.963 438.8C317.884 438.784,317.836 438.705,317.836 438.673C317.836 438.594,317.868 438.547,317.931 438.515C318.137 438.373,318.85 438.119,318.85 436.994C318.85 435.886,318.074 435.458,317.187 435.458C316.284 435.458,315.682 436.266,315.682 437.042C315.682 437.818,315.904 438.689,317.092 439.37C317.662 439.687,318.486 439.893,319.325 439.893C320.481 439.893,321.749 439.529,322.557 438.689C323.301 437.945,323.586 436.979,323.586 436.06C323.586 434.84,323.048 433.652,322.192 433.082C321.622 432.686,320.656 432.369,319.626 432.369C318.866 432.369,318.074 432.559,317.409 433.003C317.393 433.034,317.345 433.034,317.313 433.034C317.234 433.034,317.155 432.971,317.155 432.876L317.155 431.435C317.155 431.292,317.266 431.181,317.409 431.181L317.424 431.181C317.773 431.213,318.533 431.292,319.325 431.292C320.006 431.292,320.719 431.229,321.226 431.023C322.287 430.595,322.652 429.756,322.842 429.265C322.857 429.201,322.889 429.106,322.889 429.043C322.889 428.853,322.762 428.726,322.477 428.726C322.382 428.726,322.287 428.742,322.161 428.773C321.036 429.043,320.165 429.138,319.325 429.138C318.501 429.138,317.709 429.043,316.727 428.9C316.727 428.9,316.617 428.884,316.458 428.884C316.221 428.884,315.951 428.948,315.951 429.265C315.951 429.312,315.951 429.344,315.951 429.36"/><rect x="115.447" y="561" width="209.981" height="1" stroke="none"/><rect x="343.427" y="561" width="209.981" height="1" stroke="none"/><rect x="115.447" y="561" width="1" height="10" stroke="none"/><rect x="553.407" y="561" width="1" height="10" stroke="none"/><path stroke="none" d="M334.118 563.137C333.627 563.897,332.962 564.8,332.962 565.656C332.962 565.893,333.025 566.036,333.279 566.036C333.643 566.036,333.865 565.941,334.609 565.893C334.673 565.893,334.768 565.877,334.831 565.877C335.496 565.877,336.114 566.036,336.272 566.036C336.478 566.036,336.858 565.782,336.843 565.576C336.843 565.561,336.843 565.529,336.843 565.513C336.843 565.465,336.7 564.753,336.7 563.913C336.7 563.438,336.748 562.884,336.89 562.393C337.159 561.315,337.888 559.383,338.395 557.941C338.633 557.229,338.775 555.977,338.775 555.455C338.775 555.249,338.775 555.154,338.759 554.932C338.728 554.694,338.633 554.615,338.506 554.615C338.395 554.615,338.205 554.615,338.094 554.615C337.983 554.615,337.825 554.694,337.825 554.932C337.825 555.154,337.777 556.722,336.858 556.722C335.908 556.722,335.623 554.773,334.15 554.773C332.724 554.773,331.869 556.199,331.79 556.342L331.79 555.249C331.79 555.106,331.679 554.995,331.552 554.995L331.013 554.995C330.887 554.995,330.776 555.106,330.776 555.249L330.776 559.462C330.776 559.605,330.887 559.716,331.013 559.716L331.552 559.716C331.679 559.716,331.79 559.605,331.79 559.462L331.79 558.733C331.79 558.211,332.138 557.498,332.93 557.498C333.738 557.498,333.801 558.369,335.623 558.369C336.082 558.369,336.922 558.306,337.159 558.068C336.969 558.433,334.641 562.393,334.118 563.137"/><path stroke="none" d="M65.074 32.509C64.987 32.48,64.872 32.422,64.786 32.422C64.613 32.422,64.411 32.48,64.325 32.624C64.238 32.768,60.091 39.162,52.171 39.162L45.576 39.162C45.259 39.162,45 39.363,45 39.68L45 43.424L45 44L50.069 44C62.827 44,65.275 33.344,65.333 33.229C65.333 33.171,65.362 33.085,65.362 32.998C65.362 32.797,65.246 32.624,65.074 32.509"/><path stroke="none" d="M65.074 648.491C65.246 648.376,65.362 648.203,65.362 648.002C65.362 647.915,65.333 647.829,65.333 647.771C65.275 647.656,62.827 637,50.069 637L45 637L45 637.576L45 641.32C45 641.637,45.259 641.838,45.576 641.838L52.171 641.838C60.091 641.838,64.238 648.232,64.325 648.376C64.411 648.52,64.613 648.578,64.786 648.578C64.872 648.578,64.987 648.52,65.074 648.491"/><rect x="45" y="44" width="3" height="593" stroke="none"/><rect x="148.73" y="10" width="2" height="675" fill="rgba(100,200,100,0.4)" stroke="none"/><text stroke-width="1" fill="green" stroke="none" font-size="8pt" x="148.73" y="697">2</text><rect x="179.013" y="10" width="2" height="675" fill="rgba(100,200,100,0.4)" stroke="none"/><text stroke-width="1" fill="green" stroke="none" font-size="8pt" x="179.013" y="697">2</text><rect x="209.295" y="10" width="2" height="675" fill="rgba(100,200,100,0.4)" stroke="none"/><text stroke-width="1" fill="green" stroke="none" font-size="8pt" x="209.295" y="697">2</text><rect x="226.437" y="10" width="2" height="675" fill="rgba(100,200,100,0.4)" stroke="none"/><text stroke-width="1" fill="green" stroke="none" font-size="8pt" x="226.437" y="697">2</text><rect x="256.72" y="10" width="2" height="675" fill="rgba(100,200,100,0.4)" stroke="none"/><text stroke-width="1" fill="green" stroke="none" font-size="8pt" x="256.72" y="697">2</text><rect x="287.003" y="10" width="2" height="675" fill="rgba(100,200,100,0.4)" stroke="none"/><text stroke-width="1" fill="green" stroke="none" font-size="8pt" x="287.003" y="697">2</text><rect x="317.286" y="10" width="2" height="675" fill="rgba(100,200,100,0.4)" stroke="none"/><text stroke-width="1" fill="green" stroke="none" font-size="8pt" x="317.286" y="697">2</text><rect x="347.568" y="10" width="2" height="675" fill="rgba(100,200,100,0.4)" stroke="none"/><text stroke-width="1" fill="green" stroke="none" font-size="8pt" x="347.568" y="697">2</text><rect x="364.71" y="10" width="2" height="675" fill="rgba(100,200,100,0.4)" stroke="none"/><text stroke-width="1" fill="green" stroke="none" font-size="8pt" x="364.71" y="697">2</text><rect x="394.993" y="10" width="2" height="675" fill="rgba(100,200,100,0.4)" stroke="none"/><text stroke-width="1" fill="green" stroke="none" font-size="8pt" x="394.993" y="697">2</text><rect x="425.276" y="10" width="2" height="675" fill="rgba(100,200,100,0.4)" stroke="none"/><text stroke-width="1" fill="green" stroke="none" font-size="8pt" x="425.276" y="697">2</text><rect x="455.559" y="10" width="2" height="675" fill="rgba(100,200,100,0.4)" stroke="none"/><text stroke-width="1" fill="green" stroke="none" font-size="8pt" x="455.559" y="697">2</text><rect x="485.841" y="10" width="2" height="675" fill="rgba(100,200,100,0.4)" stroke="none"/><text stroke-width="1" fill="green" stroke="none" font-size="8pt" x="485.841" y="697">2</text><rect x="502.983" y="10" width="2" height="675" fill="rgba(100,200,100,0.4)" stroke="none"/><text stroke-width="1" fill="green" stroke="none" font-size="8pt" x="502.983" y="697">2</text><rect x="533.266" y="10" width="2" height="675" fill="rgba(100,200,100,0.4)" stroke="none"/><text stroke-width="1" fill="green" stroke="none" font-size="8pt" x="533.266" y="697">2</text><text stroke-width="1" fill="red" stroke="none" font-size="8pt" x="100.447" y="712">Loss: 1092.79 Shift: 0.00 Gap: 30.00</text><text stroke="none" font-size="8pt" x="120.447" y="130">15px</text><path stroke-width="3" fill="none" stroke="red" d="M120.447 137L120.447 137"/><path stroke-width="3" fill="none" stroke="#999" d="M120.447 137L120.447 137"/><path stroke-width="3" fill="none" stroke="green" d="M120.447 137L135.588 137"/><path stroke-width="3" fill="none" stroke="#999" d="M135.588 137L135.588 137"/><path stroke-width="3" fill="none" stroke="red" d="M135.588 137L135.588 137"/><path stroke-width="3" fill="none" stroke="#DD0" d="M135.588 137L349.568 137"/><path stroke-width="3" fill="none" stroke="#BBB" d="M120.447 137L120.447 137"/><path stroke-width="3" fill="blue" stroke="none" d="M123.447 137 A3 3 0 0 0 117.447 137 A3 3 0 0 0 123.447 137Z"/><text stroke-width="3" fill="red" stroke="none" font-size="8pt" x="120.447" y="120">+229</text><text stroke="none" font-size="8pt" x="349.568" y="130">15px</text><path stroke-width="3" fill="none" stroke="red" d="M349.568 137L349.568 137"/><path stroke-width="3" fill="none" stroke="#999" d="M349.568 137L349.568 137"/><path stroke-width="3" fill="none" stroke="green" d="M349.568 137L364.71 137"/><path stroke-width="3" fill="none" stroke="#999" d="M364.71 137L364.71 137"/><path stroke-width="3" fill="none" stroke="red" d="M364.71 137L364.71 137"/><path stroke-width="3" fill="none" stroke="#DD0" d="M364.71 137L120.447 137"/><path stroke-width="3" fill="none" stroke="#BBB" d="M349.568 137L349.568 137"/><path stroke-width="3" fill="blue" stroke="none" d="M352.568 137 A3 3 0 0 0 346.568 137 A3 3 0 0 0 352.568 137Z"/><text stroke-width="3" fill="red" stroke="none" font-size="8pt" x="349.568" y="120">-229</text><text stroke="none" font-size="8pt" x="120.447" y="265">28px</text><path stroke-width="3" fill="none" stroke="red" d="M120.447 272L120.447 272"/><path stroke-width="3" fill="none" stroke="#999" d="M120.447 272L120.447 272"/><path stroke-width="3" fill="none" stroke="green" d="M120.447 272L148.73 272"/><path stroke-width="3" fill="none" stroke="#999" d="M148.73 272L148.73 272"/><path stroke-width="3" fill="none" stroke="red" d="M148.73 272L148.73 272"/><path stroke-width="3" fill="none" stroke="#DD0" d="M148.73 272L258.72 272"/><path stroke-width="3" fill="none" stroke="#BBB" d="M120.447 272L120.447 272"/><path stroke-width="3" fill="blue" stroke="none" d="M123.447 272 A3 3 0 0 0 117.447 272 A3 3 0 0 0 123.447 272Z"/><text stroke-width="3" fill="red" stroke="none" font-size="8pt" x="120.447" y="255">+215</text><text stroke="none" font-size="8pt" x="258.72" y="265">28px</text><path stroke-width="3" fill="none" stroke="red" d="M258.72 272L258.72 272"/><path stroke-width="3" fill="none" stroke="#999" d="M258.72 272L258.72 272"/><path stroke-width="3" fill="none" stroke="green" d="M258.72 272L287.003 272"/><path stroke-width="3" fill="none" stroke="#999" d="M287.003 272L287.003 272"/><path stroke-width="3" fill="none" stroke="red" d="M287.003 272L287.003 272"/><path stroke-width="3" fill="none" stroke="#DD0" d="M287.003 272L427.276 272"/><path stroke-width="3" fill="none" stroke="#BBB" d="M258.72 272L258.72 272"/><path stroke-width="3" fill="blue" stroke="none" d="M261.72 272 A3 3 0 0 0 255.72 272 A3 3 0 0 0 261.72 272Z"/><text stroke-width="3" fill="red" stroke="none" font-size="8pt" x="258.72" y="255">+245</text><text stroke="none" font-size="8pt" x="427.276" y="265">28px</text><path stroke-width="3" fill="none" stroke="red" d="M427.276 272L427.276 272"/><path stroke-width="3" fill="none" stroke="#999" d="M427.276 272L427.276 272"/><path stroke-width="3" fill="none" stroke="green" d="M427.276 272L455.559 272"/><path stroke-width="3" fill="none" stroke="#999" d="M455.559 272L455.559 272"/><path stroke-width="3" fill="none" stroke="red" d="M455.559 272L455.559 272"/><path stroke-width="3" fill="none" stroke="#DD0" d="M455.559 272L120.447 272"/><path stroke-width="3" fill="none" stroke="#BBB" d="M427.276 272L427.276 272"/><path stroke-width="3" fill="blue" stroke="none" d="M430.276 272 A3 3 0 0 0 424.276 272 A3 3 0 0 0 430.276 272Z"/><text stroke-width="3" fill="red" stroke="none" font-size="8pt" x="427.276" y="255">-230</text><text stroke="none" font-size="8pt" x="120.447" y="400">15px</text><path stroke-width="3" fill="none" stroke="red" d="M120.447 407L120.447 407"/><path stroke-width="3" fill="none" stroke="#999" d="M120.447 407L120.447 407"/><path stroke-width="3" fill="none" stroke="green" d="M120.447 407L135.588 407"/><path stroke-width="3" fill="none" stroke="#999" d="M135.588 407L135.588 407"/><path stroke-width="3" fill="none" stroke="red" d="M135.588 407L135.588 407"/><path stroke-width="3" fill="none" stroke="#DD0" d="M135.588 407L211.295 407"/><path stroke-width="3" fill="none" stroke="#BBB" d="M120.447 407L120.447 407"/><path stroke-width="3" fill="blue" stroke="none" d="M123.447 407 A3 3 0 0 0 117.447 407 A3 3 0 0 0 123.447 407Z"/><text stroke-width="3" fill="red" stroke="none" font-size="8pt" x="120.447" y="390">+211</text><text stroke="none" font-size="8pt" x="211.295" y="400">15px</text><path stroke-width="3" fill="none" stroke="red" d="M211.295 407L211.295 407"/><path stroke-width="3" fill="none" stroke="#999" d="M211.295 407L211.295 407"/><path stroke-width="3" fill="none" stroke="green" d="M211.295 407L226.437 407"/><path stroke-width="3" fill="none" stroke="#999" d="M226.437 407L226.437 407"/><path stroke-width="3" fill="none" stroke="red" d="M226.437 407L226.437 407"/><path stroke-width="3" fill="none" stroke="#DD0" d="M226.437 407L349.568 407"/><path stroke-width="3" fill="none" stroke="#BBB" d="M211.295 407L211.295 407"/><path stroke-width="3" fill="blue" stroke="none" d="M214.295 407 A3 3 0 0 0 208.295 407 A3 3 0 0 0 214.295 407Z"/><text stroke-width="3" fill="red" stroke="none" font-size="8pt" x="211.295" y="390">+259</text><text stroke="none" font-size="8pt" x="349.568" y="400">15px</text><path stroke-width="3" fill="none" stroke="red" d="M349.568 407L349.568 407"/><path stroke-width="3" fill="none" stroke="#999" d="M349.568 407L349.568 407"/><path stroke-width="3" fill="none" stroke="green" d="M349.568 407L364.71 407"/><path stroke-width="3" fill="none" stroke="#999" d="M364.71 407L364.71 407"/><path stroke-width="3" fill="none" stroke="red" d="M364.71 407L364.71 407"/><path stroke-width="3" fill="none" stroke="#DD0" d="M364.71 407L487.841 407"/><path stroke-width="3" fill="none" stroke="#BBB" d="M349.568 407L349.568 407"/><path stroke-width="3" fill="blue" stroke="none" d="M352.568 407 A3 3 0 0 0 346.568 407 A3 3 0 0 0 352.568 407Z"/><text stroke-width="3" fill="red" stroke="none" font-size="8pt" x="349.568" y="390">+259</text><text stroke="none" font-size="8pt" x="487.841" y="400">15px</text><path stroke-width="3" fill="none" stroke="red" d="M487.841 407L487.841 407"/><path stroke-width="3" fill="none" stroke="#999" d="M487.841 407L487.841 407"/><path stroke-width="3" fill="none" stroke="green" d="M487.841 407L502.983 407"/><path stroke-width="3" fill="none" stroke="#999" d="M502.983 407L502.983 407"/><path stroke-width="3" fill="none" stroke="red" d="M502.983 407L502.983 407"/><path stroke-width="3" fill="none" stroke="#DD0" d="M502.983 407L120.447 407"/><path stroke-width="3" fill="none" stroke="#BBB" d="M487.841 407L487.841 407"/><path stroke-width="3" fill="blue" stroke="none" d="M490.841 407 A3 3 0 0 0 484.841 407 A3 3 0 0 0 490.841 407Z"/><text stroke-width="3" fill="red" stroke="none" font-size="8pt" x="487.841" y="390">-247</text><text stroke="none" font-size="8pt" x="120.447" y="535">28px</text><path stroke-width="3" fill="none" stroke="red" d="M120.447 542L120.447 542"/><path stroke-width="3" fill="none" stroke="#999" d="M120.447 542L120.447 542"/><path stroke-width="3" fill="none" stroke="green" d="M120.447 542L148.73 542"/><path stroke-width="3" fill="none" stroke="#999" d="M148.73 542L148.73 542"/><path stroke-width="3" fill="none" stroke="red" d="M148.73 542L148.73 542"/><path stroke-width="3" fill="none" stroke="#DD0" d="M148.73 542L181.013 542"/><path stroke-width="3" fill="none" stroke="#BBB" d="M120.447 542L120.447 542"/><path stroke-width="3" fill="blue" stroke="none" d="M123.447 542 A3 3 0 0 0 117.447 542 A3 3 0 0 0 123.447 542Z"/><text stroke-width="3" fill="red" stroke="none" font-size="8pt" x="120.447" y="525">+202</text><text stroke="none" font-size="8pt" x="181.013" y="535">28px</text><path stroke-width="3" fill="none" stroke="red" d="M181.013 542L181.013 542"/><path stroke-width="3" fill="none" stroke="#999" d="M181.013 542L181.013 542"/><path stroke-width="3" fill="none" stroke="green" d="M181.013 542L209.295 542"/><path stroke-width="3" fill="none" stroke="#999" d="M209.295 542L209.295 542"/><path stroke-width="3" fill="none" stroke="red" d="M209.295 542L209.295 542"/><path stroke-width="3" fill="none" stroke="#DD0" d="M209.295 542L289.003 542"/><path stroke-width="3" fill="none" stroke="#BBB" d="M181.013 542L181.013 542"/><path stroke-width="3" fill="blue" stroke="none" d="M184.013 542 A3 3 0 0 0 178.013 542 A3 3 0 0 0 184.013 542Z"/><text stroke-width="3" fill="red" stroke="none" font-size="8pt" x="181.013" y="525">+249</text><text stroke="none" font-size="8pt" x="289.003" y="535">28px</text><path stroke-width="3" fill="none" stroke="red" d="M289.003 542L289.003 542"/><path stroke-width="3" fill="none" stroke="#999" d="M289.003 542L289.003 542"/><path stroke-width="3" fill="none" stroke="green" d="M289.003 542L317.286 542"/><path stroke-width="3" fill="none" stroke="#999" d="M317.286 542L317.286 542"/><path stroke-width="3" fill="none" stroke="red" d="M317.286 542L317.286 542"/><path stroke-width="3" fill="none" stroke="#DD0" d="M317.286 542L396.993 542"/><path stroke-width="3" fill="none" stroke="#BBB" d="M289.003 542L289.003 542"/><path stroke-width="3" fill="blue" stroke="none" d="M292.003 542 A3 3 0 0 0 286.003 542 A3 3 0 0 0 292.003 542Z"/><text stroke-width="3" fill="red" stroke="none" font-size="8pt" x="289.003" y="525">+249</text><text stroke="none" font-size="8pt" x="396.993" y="535">28px</text><path stroke-width="3" fill="none" stroke="red" d="M396.993 542L396.993 542"/><path stroke-width="3" fill="none" stroke="#999" d="M396.993 542L396.993 542"/><path stroke-width="3" fill="none" stroke="green" d="M396.993 542L425.276 542"/><path stroke-width="3" fill="none" stroke="#999" d="M425.276 542L425.276 542"/><path stroke-width="3" fill="none" stroke="red" d="M425.276 542L425.276 542"/><path stroke-width="3" fill="none" stroke="#DD0" d="M425.276 542L504.983 542"/><path stroke-width="3" fill="none" stroke="#BBB" d="M396.993 542L396.993 542"/><path stroke-width="3" fill="blue" stroke="none" d="M399.993 542 A3 3 0 0 0 393.993 542 A3 3 0 0 0 399.993 542Z"/><text stroke-width="3" fill="red" stroke="none" font-size="8pt" x="396.993" y="525">+249</text><text stroke="none" font-size="8pt" x="504.983" y="535">28px</text><path stroke-width="3" fill="none" stroke="red" d="M504.983 542L504.983 542"/><path stroke-width="3" fill="none" stroke="#999" d="M504.983 542L504.983 542"/><path stroke-width="3" fill="none" stroke="green" d="M504.983 542L533.266 542"/><path stroke-width="3" fill="none" stroke="#999" d="M533.266 542L533.266 542"/><path stroke-width="3" fill="none" stroke="red" d="M533.266 542L533.266 542"/><path stroke-width="3" fill="none" stroke="#DD0" d="M533.266 542L120.447 542"/><path stroke-width="3" fill="none" stroke="#BBB" d="M504.983 542L504.983 542"/><path stroke-width="3" fill="blue" stroke="none" d="M507.983 542 A3 3 0 0 0 501.983 542 A3 3 0 0 0 507.983 542Z"/><text stroke-width="3" fill="red" stroke="none" font-size="8pt" x="504.983" y="525">-243</text><text stroke="none" font-size="8pt" x="120.447" y="670">28px</text><path stroke-width="3" fill="none" stroke="red" d="M120.447 677L120.447 677"/><path stroke-width="3" fill="none" stroke="#999" d="M120.447 677L120.447 677"/><path stroke-width="3" fill="none" stroke="green" d="M120.447 677L148.73 677"/><path stroke-width="3" fill="none" stroke="#999" d="M148.73 677L148.73 677"/><path stroke-width="3" fill="none" stroke="red" d="M148.73 677L148.73 677"/><path stroke-width="3" fill="none" stroke="#DD0" d="M148.73 677L150.73 677"/><path stroke-width="3" fill="none" stroke="#BBB" d="M120.447 677L120.447 677"/><path stroke-width="3" fill="blue" stroke="none" d="M123.447 677 A3 3 0 0 0 117.447 677 A3 3 0 0 0 123.447 677Z"/><text stroke-width="3" fill="red" stroke="none" font-size="8pt" x="120.447" y="660">+199</text><text stroke="none" font-size="8pt" x="150.73" y="670">28px</text><path stroke-width="3" fill="none" stroke="red" d="M150.73 677L150.73 677"/><path stroke-width="3" fill="none" stroke="#999" d="M150.73 677L150.73 677"/><path stroke-width="3" fill="none" stroke="green" d="M150.73 677L179.013 677"/><path stroke-width="3" fill="none" stroke="#999" d="M179.013 677L179.013 677"/><path stroke-width="3" fill="none" stroke="red" d="M179.013 677L179.013 677"/><path stroke-width="3" fill="none" stroke="#DD0" d="M179.013 677L228.437 677"/><path stroke-width="3" fill="none" stroke="#BBB" d="M150.73 677L150.73 677"/><path stroke-width="3" fill="blue" stroke="none" d="M153.73 677 A3 3 0 0 0 147.73 677 A3 3 0 0 0 153.73 677Z"/><text stroke-width="3" fill="red" stroke="none" font-size="8pt" x="150.73" y="660">+247</text><text stroke="none" font-size="8pt" x="228.437" y="670">28px</text><path stroke-width="3" fill="none" stroke="red" d="M228.437 677L228.437 677"/><path stroke-width="3" fill="none" stroke="#999" d="M228.437 677L228.437 677"/><path stroke-width="3" fill="none" stroke="green" d="M228.437 677L256.72 677"/><path stroke-width="3" fill="none" stroke="#999" d="M256.72 677L256.72 677"/><path stroke-width="3" fill="none" stroke="red" d="M256.72 677L256.72 677"/><path stroke-width="3" fill="none" stroke="#DD0" d="M256.72 677L319.286 677"/><path stroke-width="3" fill="none" stroke="#BBB" d="M228.437 677L228.437 677"/><path stroke-width="3" fill="blue" stroke="none" d="M231.437 677 A3 3 0 0 0 225.437 677 A3 3 0 0 0 231.437 677Z"/><text stroke-width="3" fill="red" stroke="none" font-size="8pt" x="228.437" y="660">+260</text><text stroke="none" font-size="8pt" x="319.286" y="670">28px</text><path stroke-width="3" fill="none" stroke="red" d="M319.286 677L319.286 677"/><path stroke-width="3" fill="none" stroke="#999" d="M319.286 677L319.286 677"/><path stroke-width="3" fill="none" stroke="green" d="M319.286 677L347.568 677"/><path stroke-width="3" fill="none" stroke="#999" d="M347.568 677L347.568 677"/><path stroke-width="3" fill="none" stroke="red" d="M347.568 677L347.568 677"/><path stroke-width="3" fill="none" stroke="#DD0" d="M347.568 677L366.71 677"/><path stroke-width="3" fill="none" stroke="#BBB" d="M319.286 677L319.286 677"/><path stroke-width="3" fill="blue" stroke="none" d="M322.286 677 A3 3 0 0 0 316.286 677 A3 3 0 0 0 322.286 677Z"/><text stroke-width="3" fill="red" stroke="none" font-size="8pt" x="319.286" y="660">+217</text><text stroke="none" font-size="8pt" x="366.71" y="670">28px</text><path stroke-width="3" fill="none" stroke="red" d="M366.71 677L366.71 677"/><path stroke-width="3" fill="none" stroke="#999" d="M366.71 677L366.71 677"/><path stroke-width="3" fill="none" stroke="green" d="M366.71 677L394.993 677"/><path stroke-width="3" fill="none" stroke="#999" d="M394.993 677L394.993 677"/><path stroke-width="3" fill="none" stroke="red" d="M394.993 677L394.993 677"/><path stroke-width="3" fill="none" stroke="#DD0" d="M394.993 677L457.559 677"/><path stroke-width="3" fill="none" stroke="#BBB" d="M366.71 677L366.71 677"/><path stroke-width="3" fill="blue" stroke="none" d="M369.71 677 A3 3 0 0 0 363.71 677 A3 3 0 0 0 369.71 677Z"/><text stroke-width="3" fill="red" stroke="none" font-size="8pt" x="366.71" y="660">+260</text><text stroke="none" font-size="8pt" x="457.559" y="670">28px</text><path stroke-width="3" fill="none" stroke="red" d="M457.559 677L457.559 677"/><path stroke-width="3" fill="none" stroke="#999" d="M457.559 677L457.559 677"/><path stroke-width="3" fill="none" stroke="green" d="M457.559 677L485.841 677"/><path stroke-width="3" fill="none" stroke="#999" d="M485.841 677L485.841 677"/><path stroke-width="3" fill="none" stroke="red" d="M485.841 677L485.841 677"/><path stroke-width="3" fill="none" stroke="#DD0" d="M485.841 677L535.266 677"/><path stroke-width="3" fill="none" stroke="#BBB" d="M457.559 677L457.559 677"/><path stroke-width="3" fill="blue" stroke="none" d="M460.559 677 A3 3 0 0 0 454.559 677 A3 3 0 0 0 460.559 677Z"/><text stroke-width="3" fill="red" stroke="none" font-size="8pt" x="457.559" y="660">+247</text><text stroke="none" font-size="8pt" x="535.266" y="670">28px</text><path stroke-width="3" fill="none" stroke="red" d="M535.266 677L535.266 677"/><path stroke-width="3" fill="none" stroke="#999" d="M535.266 677L535.266 677"/><path stroke-width="3" fill="none" stroke="green" d="M535.266 677L563.549 677"/><path stroke-width="3" fill="none" stroke="#999" d="M563.549 677L563.549 677"/><path stroke-width="3" fill="none" stroke="red" d="M563.549 677L563.549 677"/><path stroke-width="3" fill="none" stroke="#DD0" d="M563.549 677L120.447 677"/><path stroke-width="3" fill="none" stroke="#BBB" d="M535.266 677L535.266 677"/><path stroke-width="3" fill="blue" stroke="none" d="M538.266 677 A3 3 0 0 0 532.266 677 A3 3 0 0 0 538.266 677Z"/><text stroke-width="3" fill="red" stroke="none" font-size="8pt" x="535.266" y="660">-246</text></svg>