<svg xmlns="http://www.w3.org/2000/svg" stroke-width="0.3" stroke-dasharray="none" fill="black" stroke="black" font-family="Arial, sans-serif" font-size="10pt" font-weight="normal" font-style="normal" width="750" height="140" viewBox="0 0 750 140" style="width: 750px; height: 140px; border: none;"><g class="vf-stave" id="vf-auto28338" stroke-width="1" fill="#999999" stroke="#999999"><path fill="none" d="M0 40L490 40"/><path fill="none" d="M0 50L490 50"/><path fill="none" d="M0 60L490 60"/><path fill="none" d="M0 70L490 70"/><path fill="none" d="M0 80L490 80"/></g><g class="vf-stavebarline" id="vf-auto28339"><rect y="39.5" width="1" height="41" stroke="none"/></g><g class="vf-stavebarline" id="vf-auto28340"><rect x="487" y="39.5" width="1" height="41" stroke="none"/><rect x="490" y="39.5" width="1" height="41" stroke="none"/></g><g class="vf-clef" id="vf-auto28341"><path stroke="none" d="M19.112 27.837C19.112 27.837,19.141 27.837,19.17 27.837C19.544 27.837,20.034 28.211,20.667 28.96C22.942 31.696,24.44 36.045,24.44 39.731C24.44 39.99,24.44 40.278,24.411 40.538C24.152 44.829,22.28 48.515,18.68 51.942C18.363 52.259,17.902 52.691,17.701 52.864L17.355 53.238L18.075 56.608C18.478 58.48,18.795 60.006,18.795 60.006C18.795 60.006,18.795 60.006,18.795 60.006C18.824 60.006,18.939 59.978,19.026 59.978C19.198 59.949,19.659 59.949,20.12 59.949C20.466 59.949,20.84 59.949,20.984 59.949C25.592 60.525,28.962 64.125,29.278 68.79C29.307 68.992,29.307 69.194,29.307 69.395C29.307 73.254,26.802 76.941,23.029 78.554C22.885 78.611,22.798 78.669,22.798 78.669C22.798 78.669,23 79.677,23.259 80.886C23.518 82.125,23.778 83.306,23.806 83.536C23.979 84.458,24.066 85.322,24.066 86.157C24.066 88.317,23.49 90.131,22.395 91.542C20.754 93.587,18.392 94.624,16.03 94.624C13.726 94.624,11.422 93.674,9.752 91.773C9.061 90.966,8.686 90.016,8.686 89.037C8.686 88.202,8.974 87.338,9.55 86.56C10.386 85.437,11.624 84.89,12.862 84.89C14.014 84.89,15.166 85.379,15.973 86.358C16.549 87.107,16.808 87.942,16.808 88.778C16.808 90.678,15.397 92.493,13.237 92.579L12.978 92.579L13.064 92.637C13.928 93.069,14.936 93.299,15.973 93.299C17.24 93.299,18.565 92.954,19.602 92.291C21.704 90.966,22.741 88.922,22.741 86.157C22.741 85.264,22.626 84.285,22.424 83.248C22.338 82.758,21.531 79.101,21.531 79.101C21.531 79.101,21.531 79.101,21.531 79.101C21.502 79.101,21.358 79.13,21.186 79.158C20.667 79.302,20.12 79.389,19.515 79.446C19.314 79.475,18.91 79.475,18.478 79.475C17.931 79.475,17.384 79.475,17.154 79.446C10.126 78.669,5 72.995,5 65.968C5 62.858,5.893 60.15,7.765 57.558C9.752 54.794,11.768 52.403,14.245 49.898L15.109 49.034L14.734 47.306C14.533 46.326,14.331 45.318,14.245 45.03C13.899 43.389,13.726 42.582,13.669 42.266C13.525 41.373,13.467 40.48,13.467 39.587C13.467 35.469,15.022 31.552,17.902 28.758C18.565 28.125,18.91 27.866,19.112 27.837M21.013 33.482C20.84 33.453,20.696 33.424,20.523 33.424C19.688 33.424,18.68 33.942,17.73 34.893C16.088 36.534,15.195 39.011,15.195 41.718C15.195 42.41,15.253 43.101,15.368 43.821C15.426 44.138,16.203 47.968,16.232 47.968C16.232 47.968,16.232 47.968,16.232 47.968C16.261 47.968,17.182 47.018,17.442 46.73C20.638 43.187,22.453 39.357,22.453 36.362C22.453 35.872,22.395 35.411,22.309 34.95C22.107 34.086,21.733 33.654,21.013 33.482M16.318 54.707C16.29 54.534,16.261 54.39,16.261 54.39C16.146 54.39,13.87 57.04,12.834 58.336C10.702 61.043,9.925 62.31,9.32 64.038C8.888 65.363,8.658 66.688,8.658 67.984C8.658 70.317,9.349 72.534,10.674 74.406C12.517 76.998,15.426 78.496,18.421 78.496C18.91 78.496,19.4 78.467,19.89 78.381C20.408 78.294,21.301 78.064,21.301 78.006C21.301 77.978,20.955 76.394,20.552 74.435C20.12 72.506,19.486 69.51,19.112 67.811C18.766 66.112,18.45 64.701,18.45 64.701C18.45 64.701,18.45 64.701,18.45 64.701C18.334 64.701,17.701 64.96,17.355 65.133C15.598 66.112,14.677 67.84,14.677 69.568C14.677 71.094,15.397 72.592,16.866 73.485C17.154 73.658,17.298 73.859,17.298 74.09C17.298 74.205,17.24 74.349,17.125 74.464C17.038 74.579,16.923 74.666,16.75 74.666C16.549 74.666,16.29 74.55,15.858 74.32C13.237 72.966,11.912 70.403,11.912 67.782C11.912 65.334,13.093 62.858,15.454 61.302C16.059 60.899,17.269 60.323,17.499 60.323C17.499 60.323,17.528 60.294,17.528 60.294C17.528 60.266,17.528 60.266,17.528 60.266C17.499 60.208,16.434 55.197,16.318 54.707M20.725 64.499C20.581 64.499,20.293 64.47,20.12 64.47L19.746 64.47L19.774 64.528C19.774 64.557,20.293 67.034,20.955 70.029C21.589 73.024,22.136 75.616,22.165 75.789C22.222 75.962,22.309 76.422,22.395 76.797L22.539 77.488L22.626 77.43C24.21 76.538,25.362 75.27,25.995 73.715C26.37 72.851,26.542 71.987,26.542 71.123C26.542 67.869,24.152 64.902,20.725 64.499"/></g><g class="vf-stavenote" id="vf-auto28217"><path stroke-width="1.4" fill="none" stroke="#444" d="M113.901 90L131.891 90"/><g class="vf-stem" id="vf-auto28218" pointer-events="bounding-box"><path stroke-width="1.5" fill="none" d="M128.141 88.5L128.141 0"/></g><g class="vf-notehead" id="vf-auto28225" pointer-events="bounding-box"><path stroke="none" d="M124.005 84.889C124.09 84.889,124.174 84.889,124.314 84.889C124.679 84.889,125.213 84.918,125.409 84.946C127.74 85.283,128.891 86.827,128.891 88.624C128.891 90.534,127.6 92.724,125.016 94.128C123.753 94.802,122.461 95.111,121.282 95.111C119.119 95.111,117.35 94.044,116.985 92.162C116.929 91.881,116.901 91.629,116.901 91.376C116.901 88.343,120.158 85.283,124.005 84.889"/><text stroke="none" font-size="9pt" font-weight="bold" x="107.901" y="95">3</text><path stroke="none" d="M91.136 75.691C91.191 75.663,91.273 75.636,91.355 75.636C91.574 75.636,91.793 75.773,91.875 75.992C91.902 76.101,91.902 76.128,91.902 79.603C91.902 82.859,91.902 83.078,91.957 83.078C91.957 83.078,91.957 83.078,91.957 83.078C92.258 82.996,93.38 82.75,93.462 82.75C93.708 82.75,93.9 82.886,93.982 83.078C94.009 83.16,94.036 83.789,94.036 84.419C94.036 85.048,94.009 85.677,93.982 85.759C93.9 86.033,93.845 86.033,92.751 86.306L91.902 86.525L91.902 89.425C91.902 92.134,91.902 92.353,91.93 92.353C91.957 92.353,91.957 92.353,91.957 92.353C92.258 92.244,93.38 91.997,93.462 91.997C93.626 91.997,93.736 92.052,93.872 92.161C94.009 92.326,94.009 92.271,94.009 93.311C94.009 93.42,94.009 93.557,94.009 93.694C94.009 93.83,94.009 93.94,94.009 94.049C94.009 95.116,94.009 95.062,93.872 95.198C93.736 95.335,93.736 95.335,92.751 95.581L91.902 95.773L91.902 99.33C91.902 102.832,91.902 102.859,91.875 102.941C91.793 103.188,91.574 103.297,91.355 103.297C91.218 103.297,91.054 103.242,90.945 103.133C90.808 102.996,90.781 103.242,90.781 101.053C90.781 100.616,90.781 100.096,90.781 99.467C90.781 97.579,90.781 96.047,90.781 96.047C90.781 96.047,90.233 96.183,89.577 96.348C88.893 96.512,88.346 96.648,88.346 96.648C88.346 96.648,88.346 98.29,88.346 100.287C88.346 103.872,88.346 103.899,88.291 104.008C88.209 104.227,87.99 104.364,87.771 104.364C87.634 104.364,87.47 104.309,87.361 104.2C87.224 104.036,87.224 104.282,87.224 102.066C87.224 101.628,87.224 101.081,87.224 100.424C87.224 97.168,87.224 96.949,87.196 96.949C87.196 96.949,87.196 96.949,87.169 96.949C86.841 97.032,85.828 97.25,85.746 97.25C85.5 97.25,85.281 97.114,85.199 96.922C85.172 96.84,85.172 96.211,85.172 95.581C85.172 94.952,85.172 94.323,85.199 94.241C85.309 93.995,85.363 93.967,86.403 93.694L87.224 93.502L87.224 90.575C87.224 87.866,87.224 87.674,87.196 87.674C87.196 87.674,87.196 87.674,87.169 87.674C86.841 87.756,85.828 88.003,85.746 88.003C85.5 88.003,85.281 87.866,85.199 87.647C85.172 87.592,85.172 86.936,85.172 86.306C85.172 85.677,85.172 85.048,85.199 84.966C85.309 84.72,85.363 84.692,86.403 84.446L87.224 84.254L87.224 80.698C87.224 77.168,87.224 77.141,87.251 77.059C87.333 76.812,87.552 76.703,87.771 76.703C87.908 76.703,88.072 76.758,88.181 76.867C88.318 77.004,88.346 76.758,88.346 78.947C88.346 79.384,88.346 79.904,88.346 80.561C88.346 82.421,88.346 83.953,88.346 83.953C88.346 83.953,88.893 83.817,89.549 83.68C90.233 83.516,90.781 83.379,90.781 83.379C90.781 83.379,90.781 81.737,90.781 79.74C90.781 76.128,90.781 76.101,90.835 75.992C90.863 75.882,91 75.745,91.136 75.691M90.781 89.699C90.781 87.401,90.781 86.799,90.781 86.799L90.781 86.799C90.753 86.799,90.562 86.826,90.343 86.908C90.124 86.963,89.577 87.072,89.139 87.182L88.346 87.401L88.346 90.301C88.346 91.915,88.346 93.228,88.346 93.228C88.346 93.228,88.893 93.092,89.549 92.928C90.233 92.763,90.781 92.627,90.781 92.627C90.781 92.627,90.781 91.313,90.781 89.699"/></g><g class="vf-notehead" id="vf-auto28226" pointer-events="bounding-box"><path stroke="none" d="M124.005 74.889C124.09 74.889,124.174 74.889,124.314 74.889C124.679 74.889,125.213 74.918,125.409 74.946C127.74 75.283,128.891 76.827,128.891 78.624C128.891 80.534,127.6 82.724,125.016 84.128C123.753 84.802,122.461 85.111,121.282 85.111C119.119 85.111,117.35 84.044,116.985 82.162C116.929 81.881,116.901 81.629,116.901 81.376C116.901 78.343,120.158 75.283,124.005 74.889"/><text stroke="none" font-size="9pt" font-weight="bold" x="107.901" y="85">2</text><path stroke-width="1.5" fill="none" d="M59.307 80 A8 8 0 0 0 43.307 80 A8 8 0 0 0 59.307 80"/><text stroke-width="1.5" stroke="none" font-weight="bold" x="47.596" y="84.5">2</text><path stroke="none" d="M79.272 65.691C79.326 65.663,79.408 65.636,79.491 65.636C79.709 65.636,79.928 65.773,80.01 65.992C80.038 66.101,80.038 66.128,80.038 69.603C80.038 72.859,80.038 73.078,80.092 73.078C80.092 73.078,80.092 73.078,80.092 73.078C80.393 72.996,81.515 72.75,81.597 72.75C81.844 72.75,82.035 72.886,82.117 73.078C82.144 73.16,82.172 73.789,82.172 74.419C82.172 75.048,82.144 75.677,82.117 75.759C82.035 76.033,81.98 76.033,80.886 76.306L80.038 76.525L80.038 79.425C80.038 82.134,80.038 82.353,80.065 82.353C80.092 82.353,80.092 82.353,80.092 82.353C80.393 82.244,81.515 81.997,81.597 81.997C81.761 81.997,81.871 82.052,82.008 82.161C82.144 82.326,82.144 82.271,82.144 83.311C82.144 83.42,82.144 83.557,82.144 83.694C82.144 83.83,82.144 83.94,82.144 84.049C82.144 85.116,82.144 85.062,82.008 85.198C81.871 85.335,81.871 85.335,80.886 85.581L80.038 85.773L80.038 89.33C80.038 92.832,80.038 92.859,80.01 92.941C79.928 93.188,79.709 93.297,79.491 93.297C79.354 93.297,79.19 93.242,79.08 93.133C78.943 92.996,78.916 93.242,78.916 91.053C78.916 90.616,78.916 90.096,78.916 89.467C78.916 87.579,78.916 86.047,78.916 86.047C78.916 86.047,78.369 86.183,77.712 86.348C77.028 86.512,76.481 86.648,76.481 86.648C76.481 86.648,76.481 88.29,76.481 90.287C76.481 93.872,76.481 93.899,76.426 94.008C76.344 94.227,76.125 94.364,75.906 94.364C75.77 94.364,75.605 94.309,75.496 94.2C75.359 94.036,75.359 94.282,75.359 92.066C75.359 91.628,75.359 91.081,75.359 90.424C75.359 87.168,75.359 86.949,75.332 86.949C75.332 86.949,75.332 86.949,75.304 86.949C74.976 87.032,73.964 87.25,73.882 87.25C73.636 87.25,73.417 87.114,73.335 86.922C73.307 86.84,73.307 86.211,73.307 85.581C73.307 84.952,73.307 84.323,73.335 84.241C73.444 83.995,73.499 83.967,74.538 83.694L75.359 83.502L75.359 80.575C75.359 77.866,75.359 77.674,75.332 77.674C75.332 77.674,75.332 77.674,75.304 77.674C74.976 77.756,73.964 78.003,73.882 78.003C73.636 78.003,73.417 77.866,73.335 77.647C73.307 77.592,73.307 76.936,73.307 76.306C73.307 75.677,73.307 75.048,73.335 74.966C73.444 74.72,73.499 74.692,74.538 74.446L75.359 74.254L75.359 70.698C75.359 67.168,75.359 67.141,75.387 67.059C75.469 66.812,75.688 66.703,75.906 66.703C76.043 66.703,76.207 66.758,76.317 66.867C76.454 67.004,76.481 66.758,76.481 68.947C76.481 69.384,76.481 69.904,76.481 70.561C76.481 72.421,76.481 73.953,76.481 73.953C76.481 73.953,77.028 73.817,77.685 73.68C78.369 73.516,78.916 73.379,78.916 73.379C78.916 73.379,78.916 71.737,78.916 69.74C78.916 66.128,78.916 66.101,78.971 65.992C78.998 65.882,79.135 65.745,79.272 65.691M78.916 79.699C78.916 77.401,78.916 76.799,78.916 76.799L78.916 76.799C78.889 76.799,78.697 76.826,78.478 76.908C78.259 76.963,77.712 77.072,77.274 77.182L76.481 77.401L76.481 80.301C76.481 81.915,76.481 83.228,76.481 83.228C76.481 83.228,77.028 83.092,77.685 82.928C78.369 82.763,78.916 82.627,78.916 82.627C78.916 82.627,78.916 81.313,78.916 79.699"/></g><g class="vf-notehead" id="vf-auto28227" pointer-events="bounding-box"><path stroke="none" d="M124.005 64.889C124.09 64.889,124.174 64.889,124.314 64.889C124.679 64.889,125.213 64.918,125.409 64.946C127.74 65.283,128.891 66.827,128.891 68.624C128.891 70.534,127.6 72.724,125.016 74.128C123.753 74.802,122.461 75.111,121.282 75.111C119.119 75.111,117.35 74.044,116.985 72.162C116.929 71.881,116.901 71.629,116.901 71.376C116.901 68.343,120.158 65.283,124.005 64.889"/><text stroke="none" font-size="9pt" font-weight="bold" x="107.901" y="75">0</text><path stroke="none" d="M103.001 55.691C103.056 55.663,103.138 55.636,103.22 55.636C103.439 55.636,103.658 55.773,103.74 55.992C103.767 56.101,103.767 56.128,103.767 59.603C103.767 62.859,103.767 63.078,103.822 63.078C103.822 63.078,103.822 63.078,103.822 63.078C104.123 62.996,105.244 62.75,105.327 62.75C105.573 62.75,105.764 62.886,105.846 63.078C105.874 63.16,105.901 63.789,105.901 64.419C105.901 65.048,105.874 65.677,105.846 65.759C105.764 66.033,105.71 66.033,104.615 66.306L103.767 66.525L103.767 69.425C103.767 72.134,103.767 72.353,103.794 72.353C103.822 72.353,103.822 72.353,103.822 72.353C104.123 72.244,105.244 71.997,105.327 71.997C105.491 71.997,105.6 72.052,105.737 72.161C105.874 72.326,105.874 72.271,105.874 73.311C105.874 73.42,105.874 73.557,105.874 73.694C105.874 73.83,105.874 73.94,105.874 74.049C105.874 75.116,105.874 75.062,105.737 75.198C105.6 75.335,105.6 75.335,104.615 75.581L103.767 75.773L103.767 79.33C103.767 82.832,103.767 82.859,103.74 82.941C103.658 83.188,103.439 83.297,103.22 83.297C103.083 83.297,102.919 83.242,102.809 83.133C102.673 82.996,102.645 83.242,102.645 81.053C102.645 80.616,102.645 80.096,102.645 79.467C102.645 77.579,102.645 76.047,102.645 76.047C102.645 76.047,102.098 76.183,101.441 76.348C100.757 76.512,100.21 76.648,100.21 76.648C100.21 76.648,100.21 78.29,100.21 80.287C100.21 83.872,100.21 83.899,100.156 84.008C100.073 84.227,99.855 84.364,99.636 84.364C99.499 84.364,99.335 84.309,99.225 84.2C99.088 84.036,99.088 84.282,99.088 82.066C99.088 81.628,99.088 81.081,99.088 80.424C99.088 77.168,99.088 76.949,99.061 76.949C99.061 76.949,99.061 76.949,99.034 76.949C98.705 77.032,97.693 77.25,97.611 77.25C97.365 77.25,97.146 77.114,97.064 76.922C97.036 76.84,97.036 76.211,97.036 75.581C97.036 74.952,97.036 74.323,97.064 74.241C97.173 73.995,97.228 73.967,98.268 73.694L99.088 73.502L99.088 70.575C99.088 67.866,99.088 67.674,99.061 67.674C99.061 67.674,99.061 67.674,99.034 67.674C98.705 67.756,97.693 68.003,97.611 68.003C97.365 68.003,97.146 67.866,97.064 67.647C97.036 67.592,97.036 66.936,97.036 66.306C97.036 65.677,97.036 65.048,97.064 64.966C97.173 64.72,97.228 64.692,98.268 64.446L99.088 64.254L99.088 60.698C99.088 57.168,99.088 57.141,99.116 57.059C99.198 56.812,99.417 56.703,99.636 56.703C99.772 56.703,99.937 56.758,100.046 56.867C100.183 57.004,100.21 56.758,100.21 58.947C100.21 59.384,100.21 59.904,100.21 60.561C100.21 62.421,100.21 63.953,100.21 63.953C100.21 63.953,100.757 63.817,101.414 63.68C102.098 63.516,102.645 63.379,102.645 63.379C102.645 63.379,102.645 61.737,102.645 59.74C102.645 56.128,102.645 56.101,102.7 55.992C102.727 55.882,102.864 55.745,103.001 55.691M102.645 69.699C102.645 67.401,102.645 66.799,102.645 66.799L102.645 66.799C102.618 66.799,102.426 66.826,102.208 66.908C101.989 66.963,101.441 67.072,101.004 67.182L100.21 67.401L100.21 70.301C100.21 71.915,100.21 73.228,100.21 73.228C100.21 73.228,100.757 73.092,101.414 72.928C102.098 72.763,102.645 72.627,102.645 72.627C102.645 72.627,102.645 71.313,102.645 69.699"/></g><g class="vf-notehead" id="vf-auto28228" pointer-events="bounding-box"><path stroke="none" d="M124.005 49.889C124.09 49.889,124.174 49.889,124.314 49.889C124.679 49.889,125.213 49.918,125.409 49.946C127.74 50.283,128.891 51.827,128.891 53.624C128.891 55.534,127.6 57.724,125.016 59.128C123.753 59.802,122.461 60.111,121.282 60.111C119.119 60.111,117.35 59.044,116.985 57.162C116.929 56.881,116.901 56.629,116.901 56.376C116.901 53.343,120.158 50.283,124.005 49.889"/><text stroke="none" font-size="9pt" font-weight="bold" x="107.901" y="60">3</text><path stroke="none" d="M91.136 40.691C91.191 40.663,91.273 40.636,91.355 40.636C91.574 40.636,91.793 40.773,91.875 40.992C91.902 41.101,91.902 41.128,91.902 44.603C91.902 47.859,91.902 48.078,91.957 48.078C91.957 48.078,91.957 48.078,91.957 48.078C92.258 47.996,93.38 47.75,93.462 47.75C93.708 47.75,93.9 47.886,93.982 48.078C94.009 48.16,94.036 48.789,94.036 49.419C94.036 50.048,94.009 50.677,93.982 50.759C93.9 51.033,93.845 51.033,92.751 51.306L91.902 51.525L91.902 54.425C91.902 57.134,91.902 57.353,91.93 57.353C91.957 57.353,91.957 57.353,91.957 57.353C92.258 57.244,93.38 56.997,93.462 56.997C93.626 56.997,93.736 57.052,93.872 57.161C94.009 57.326,94.009 57.271,94.009 58.311C94.009 58.42,94.009 58.557,94.009 58.694C94.009 58.83,94.009 58.94,94.009 59.049C94.009 60.116,94.009 60.062,93.872 60.198C93.736 60.335,93.736 60.335,92.751 60.581L91.902 60.773L91.902 64.33C91.902 67.832,91.902 67.859,91.875 67.941C91.793 68.188,91.574 68.297,91.355 68.297C91.218 68.297,91.054 68.242,90.945 68.133C90.808 67.996,90.781 68.242,90.781 66.053C90.781 65.616,90.781 65.096,90.781 64.467C90.781 62.579,90.781 61.047,90.781 61.047C90.781 61.047,90.233 61.183,89.577 61.348C88.893 61.512,88.346 61.648,88.346 61.648C88.346 61.648,88.346 63.29,88.346 65.287C88.346 68.872,88.346 68.899,88.291 69.008C88.209 69.227,87.99 69.364,87.771 69.364C87.634 69.364,87.47 69.309,87.361 69.2C87.224 69.036,87.224 69.282,87.224 67.066C87.224 66.628,87.224 66.081,87.224 65.424C87.224 62.168,87.224 61.949,87.196 61.949C87.196 61.949,87.196 61.949,87.169 61.949C86.841 62.032,85.828 62.25,85.746 62.25C85.5 62.25,85.281 62.114,85.199 61.922C85.172 61.84,85.172 61.211,85.172 60.581C85.172 59.952,85.172 59.323,85.199 59.241C85.309 58.995,85.363 58.967,86.403 58.694L87.224 58.502L87.224 55.575C87.224 52.866,87.224 52.674,87.196 52.674C87.196 52.674,87.196 52.674,87.169 52.674C86.841 52.756,85.828 53.003,85.746 53.003C85.5 53.003,85.281 52.866,85.199 52.647C85.172 52.592,85.172 51.936,85.172 51.306C85.172 50.677,85.172 50.048,85.199 49.966C85.309 49.72,85.363 49.692,86.403 49.446L87.224 49.254L87.224 45.698C87.224 42.168,87.224 42.141,87.251 42.059C87.333 41.812,87.552 41.703,87.771 41.703C87.908 41.703,88.072 41.758,88.181 41.867C88.318 42.004,88.346 41.758,88.346 43.947C88.346 44.384,88.346 44.904,88.346 45.561C88.346 47.421,88.346 48.953,88.346 48.953C88.346 48.953,88.893 48.817,89.549 48.68C90.233 48.516,90.781 48.379,90.781 48.379C90.781 48.379,90.781 46.737,90.781 44.74C90.781 41.128,90.781 41.101,90.835 40.992C90.863 40.882,91 40.745,91.136 40.691M90.781 54.699C90.781 52.401,90.781 51.799,90.781 51.799L90.781 51.799C90.753 51.799,90.562 51.826,90.343 51.908C90.124 51.963,89.577 52.072,89.139 52.182L88.346 52.401L88.346 55.301C88.346 56.915,88.346 58.228,88.346 58.228C88.346 58.228,88.893 58.092,89.549 57.928C90.233 57.763,90.781 57.627,90.781 57.627C90.781 57.627,90.781 56.313,90.781 54.699"/></g><g class="vf-notehead" id="vf-auto28229" pointer-events="bounding-box"><path stroke="none" d="M124.005 39.889C124.09 39.889,124.174 39.889,124.314 39.889C124.679 39.889,125.213 39.918,125.409 39.946C127.74 40.283,128.891 41.827,128.891 43.624C128.891 45.534,127.6 47.724,125.016 49.128C123.753 49.802,122.461 50.111,121.282 50.111C119.119 50.111,117.35 49.044,116.985 47.162C116.929 46.881,116.901 46.629,116.901 46.376C116.901 43.343,120.158 40.283,124.005 39.889"/><text stroke="none" font-size="9pt" font-weight="bold" x="131.891" y="50">2</text><path stroke-width="1.5" fill="none" d="M156.891 45 A8 8 0 0 0 140.891 45 A8 8 0 0 0 156.891 45"/><text stroke-width="1.5" stroke="none" font-weight="bold" x="145.18" y="49.5">3</text><path stroke="none" d="M79.272 30.691C79.326 30.663,79.408 30.636,79.491 30.636C79.709 30.636,79.928 30.773,80.01 30.992C80.038 31.101,80.038 31.128,80.038 34.603C80.038 37.859,80.038 38.078,80.092 38.078C80.092 38.078,80.092 38.078,80.092 38.078C80.393 37.996,81.515 37.75,81.597 37.75C81.844 37.75,82.035 37.886,82.117 38.078C82.144 38.16,82.172 38.789,82.172 39.419C82.172 40.048,82.144 40.677,82.117 40.759C82.035 41.033,81.98 41.033,80.886 41.306L80.038 41.525L80.038 44.425C80.038 47.134,80.038 47.353,80.065 47.353C80.092 47.353,80.092 47.353,80.092 47.353C80.393 47.244,81.515 46.997,81.597 46.997C81.761 46.997,81.871 47.052,82.008 47.161C82.144 47.326,82.144 47.271,82.144 48.311C82.144 48.42,82.144 48.557,82.144 48.694C82.144 48.83,82.144 48.94,82.144 49.049C82.144 50.116,82.144 50.062,82.008 50.198C81.871 50.335,81.871 50.335,80.886 50.581L80.038 50.773L80.038 54.33C80.038 57.832,80.038 57.859,80.01 57.941C79.928 58.188,79.709 58.297,79.491 58.297C79.354 58.297,79.19 58.242,79.08 58.133C78.943 57.996,78.916 58.242,78.916 56.053C78.916 55.616,78.916 55.096,78.916 54.467C78.916 52.579,78.916 51.047,78.916 51.047C78.916 51.047,78.369 51.183,77.712 51.348C77.028 51.512,76.481 51.648,76.481 51.648C76.481 51.648,76.481 53.29,76.481 55.287C76.481 58.872,76.481 58.899,76.426 59.008C76.344 59.227,76.125 59.364,75.906 59.364C75.77 59.364,75.605 59.309,75.496 59.2C75.359 59.036,75.359 59.282,75.359 57.066C75.359 56.628,75.359 56.081,75.359 55.424C75.359 52.168,75.359 51.949,75.332 51.949C75.332 51.949,75.332 51.949,75.304 51.949C74.976 52.032,73.964 52.25,73.882 52.25C73.636 52.25,73.417 52.114,73.335 51.922C73.307 51.84,73.307 51.211,73.307 50.581C73.307 49.952,73.307 49.323,73.335 49.241C73.444 48.995,73.499 48.967,74.538 48.694L75.359 48.502L75.359 45.575C75.359 42.866,75.359 42.674,75.332 42.674C75.332 42.674,75.332 42.674,75.304 42.674C74.976 42.756,73.964 43.003,73.882 43.003C73.636 43.003,73.417 42.866,73.335 42.647C73.307 42.592,73.307 41.936,73.307 41.306C73.307 40.677,73.307 40.048,73.335 39.966C73.444 39.72,73.499 39.692,74.538 39.446L75.359 39.254L75.359 35.698C75.359 32.168,75.359 32.141,75.387 32.059C75.469 31.812,75.688 31.703,75.906 31.703C76.043 31.703,76.207 31.758,76.317 31.867C76.454 32.004,76.481 31.758,76.481 33.947C76.481 34.384,76.481 34.904,76.481 35.561C76.481 37.421,76.481 38.953,76.481 38.953C76.481 38.953,77.028 38.817,77.685 38.68C78.369 38.516,78.916 38.379,78.916 38.379C78.916 38.379,78.916 36.737,78.916 34.74C78.916 31.128,78.916 31.101,78.971 30.992C78.998 30.882,79.135 30.745,79.272 30.691M78.916 44.699C78.916 42.401,78.916 41.799,78.916 41.799L78.916 41.799C78.889 41.799,78.697 41.826,78.478 41.908C78.259 41.963,77.712 42.072,77.274 42.182L76.481 42.401L76.481 45.301C76.481 46.915,76.481 48.228,76.481 48.228C76.481 48.228,77.028 48.092,77.685 47.928C78.369 47.763,78.916 47.627,78.916 47.627C78.916 47.627,78.916 46.313,78.916 44.699"/></g><g class="vf-notehead" id="vf-auto28230" pointer-events="bounding-box"><path stroke="none" d="M124.005 29.889C124.09 29.889,124.174 29.889,124.314 29.889C124.679 29.889,125.213 29.918,125.409 29.946C127.74 30.283,128.891 31.827,128.891 33.624C128.891 35.534,127.6 37.724,125.016 39.128C123.753 39.802,122.461 40.111,121.282 40.111C119.119 40.111,117.35 39.044,116.985 37.162C116.929 36.881,116.901 36.629,116.901 36.376C116.901 33.343,120.158 30.283,124.005 29.889"/><text stroke="none" font-size="9pt" font-weight="bold" x="107.901" y="40">0</text><path stroke="none" d="M103.001 20.691C103.056 20.663,103.138 20.636,103.22 20.636C103.439 20.636,103.658 20.773,103.74 20.992C103.767 21.101,103.767 21.128,103.767 24.603C103.767 27.859,103.767 28.078,103.822 28.078C103.822 28.078,103.822 28.078,103.822 28.078C104.123 27.996,105.244 27.75,105.327 27.75C105.573 27.75,105.764 27.886,105.846 28.078C105.874 28.16,105.901 28.789,105.901 29.419C105.901 30.048,105.874 30.677,105.846 30.759C105.764 31.033,105.71 31.033,104.615 31.306L103.767 31.525L103.767 34.425C103.767 37.134,103.767 37.353,103.794 37.353C103.822 37.353,103.822 37.353,103.822 37.353C104.123 37.244,105.244 36.997,105.327 36.997C105.491 36.997,105.6 37.052,105.737 37.161C105.874 37.326,105.874 37.271,105.874 38.311C105.874 38.42,105.874 38.557,105.874 38.694C105.874 38.83,105.874 38.94,105.874 39.049C105.874 40.116,105.874 40.062,105.737 40.198C105.6 40.335,105.6 40.335,104.615 40.581L103.767 40.773L103.767 44.33C103.767 47.832,103.767 47.859,103.74 47.941C103.658 48.188,103.439 48.297,103.22 48.297C103.083 48.297,102.919 48.242,102.809 48.133C102.673 47.996,102.645 48.242,102.645 46.053C102.645 45.616,102.645 45.096,102.645 44.467C102.645 42.579,102.645 41.047,102.645 41.047C102.645 41.047,102.098 41.183,101.441 41.348C100.757 41.512,100.21 41.648,100.21 41.648C100.21 41.648,100.21 43.29,100.21 45.287C100.21 48.872,100.21 48.899,100.156 49.008C100.073 49.227,99.855 49.364,99.636 49.364C99.499 49.364,99.335 49.309,99.225 49.2C99.088 49.036,99.088 49.282,99.088 47.066C99.088 46.628,99.088 46.081,99.088 45.424C99.088 42.168,99.088 41.949,99.061 41.949C99.061 41.949,99.061 41.949,99.034 41.949C98.705 42.032,97.693 42.25,97.611 42.25C97.365 42.25,97.146 42.114,97.064 41.922C97.036 41.84,97.036 41.211,97.036 40.581C97.036 39.952,97.036 39.323,97.064 39.241C97.173 38.995,97.228 38.967,98.268 38.694L99.088 38.502L99.088 35.575C99.088 32.866,99.088 32.674,99.061 32.674C99.061 32.674,99.061 32.674,99.034 32.674C98.705 32.756,97.693 33.003,97.611 33.003C97.365 33.003,97.146 32.866,97.064 32.647C97.036 32.592,97.036 31.936,97.036 31.306C97.036 30.677,97.036 30.048,97.064 29.966C97.173 29.72,97.228 29.692,98.268 29.446L99.088 29.254L99.088 25.698C99.088 22.168,99.088 22.141,99.116 22.059C99.198 21.812,99.417 21.703,99.636 21.703C99.772 21.703,99.937 21.758,100.046 21.867C100.183 22.004,100.21 21.758,100.21 23.947C100.21 24.384,100.21 24.904,100.21 25.561C100.21 27.421,100.21 28.953,100.21 28.953C100.21 28.953,100.757 28.817,101.414 28.68C102.098 28.516,102.645 28.379,102.645 28.379C102.645 28.379,102.645 26.737,102.645 24.74C102.645 21.128,102.645 21.101,102.7 20.992C102.727 20.882,102.864 20.745,103.001 20.691M102.645 34.699C102.645 32.401,102.645 31.799,102.645 31.799L102.645 31.799C102.618 31.799,102.426 31.826,102.208 31.908C101.989 31.963,101.441 32.072,101.004 32.182L100.21 32.401L100.21 35.301C100.21 36.915,100.21 38.228,100.21 38.228C100.21 38.228,100.757 38.092,101.414 37.928C102.098 37.763,102.645 37.627,102.645 37.627C102.645 37.627,102.645 36.313,102.645 34.699"/></g></g><g class="vf-stavenote" id="vf-auto28231"><path stroke-width="1.4" fill="none" stroke="#444" d="M219.665 90L237.655 90"/><g class="vf-stem" id="vf-auto28232" pointer-events="bounding-box"><path stroke-width="1.5" fill="none" d="M233.905 88.5L233.905 0"/></g><g class="vf-notehead" id="vf-auto28239" pointer-events="bounding-box"><path stroke="none" d="M229.769 84.889C229.854 84.889,229.938 84.889,230.078 84.889C230.443 84.889,230.977 84.918,231.173 84.946C233.504 85.283,234.655 86.827,234.655 88.624C234.655 90.534,233.364 92.724,230.78 94.128C229.517 94.802,228.225 95.111,227.046 95.111C224.883 95.111,223.114 94.044,222.749 92.162C222.693 91.881,222.665 91.629,222.665 91.376C222.665 88.343,225.922 85.283,229.769 84.889"/><path stroke="none" d="M204.9 75.691C204.955 75.663,205.037 75.636,205.119 75.636C205.338 75.636,205.557 75.773,205.639 75.992C205.666 76.101,205.666 76.128,205.666 79.603C205.666 82.859,205.666 83.078,205.721 83.078C205.721 83.078,205.721 83.078,205.721 83.078C206.022 82.996,207.144 82.75,207.226 82.75C207.472 82.75,207.664 82.886,207.746 83.078C207.773 83.16,207.8 83.789,207.8 84.419C207.8 85.048,207.773 85.677,207.746 85.759C207.664 86.033,207.609 86.033,206.514 86.306L205.666 86.525L205.666 89.425C205.666 92.134,205.666 92.353,205.694 92.353C205.721 92.353,205.721 92.353,205.721 92.353C206.022 92.244,207.144 91.997,207.226 91.997C207.39 91.997,207.499 92.052,207.636 92.161C207.773 92.326,207.773 92.271,207.773 93.311C207.773 93.42,207.773 93.557,207.773 93.694C207.773 93.83,207.773 93.94,207.773 94.049C207.773 95.116,207.773 95.062,207.636 95.198C207.499 95.335,207.499 95.335,206.514 95.581L205.666 95.773L205.666 99.33C205.666 102.832,205.666 102.859,205.639 102.941C205.557 103.188,205.338 103.297,205.119 103.297C204.982 103.297,204.818 103.242,204.709 103.133C204.572 102.996,204.545 103.242,204.545 101.053C204.545 100.616,204.545 100.096,204.545 99.467C204.545 97.579,204.545 96.047,204.545 96.047C204.545 96.047,203.997 96.183,203.341 96.348C202.657 96.512,202.11 96.648,202.11 96.648C202.11 96.648,202.11 98.29,202.11 100.287C202.11 103.872,202.11 103.899,202.055 104.008C201.973 104.227,201.754 104.364,201.535 104.364C201.398 104.364,201.234 104.309,201.125 104.2C200.988 104.036,200.988 104.282,200.988 102.066C200.988 101.628,200.988 101.081,200.988 100.424C200.988 97.168,200.988 96.949,200.96 96.949C200.96 96.949,200.96 96.949,200.933 96.949C200.605 97.032,199.592 97.25,199.51 97.25C199.264 97.25,199.045 97.114,198.963 96.922C198.936 96.84,198.936 96.211,198.936 95.581C198.936 94.952,198.936 94.323,198.963 94.241C199.073 93.995,199.127 93.967,200.167 93.694L200.988 93.502L200.988 90.575C200.988 87.866,200.988 87.674,200.96 87.674C200.96 87.674,200.96 87.674,200.933 87.674C200.605 87.756,199.592 88.003,199.51 88.003C199.264 88.003,199.045 87.866,198.963 87.647C198.936 87.592,198.936 86.936,198.936 86.306C198.936 85.677,198.936 85.048,198.963 84.966C199.073 84.72,199.127 84.692,200.167 84.446L200.988 84.254L200.988 80.698C200.988 77.168,200.988 77.141,201.015 77.059C201.097 76.812,201.316 76.703,201.535 76.703C201.672 76.703,201.836 76.758,201.945 76.867C202.082 77.004,202.11 76.758,202.11 78.947C202.11 79.384,202.11 79.904,202.11 80.561C202.11 82.421,202.11 83.953,202.11 83.953C202.11 83.953,202.657 83.817,203.313 83.68C203.997 83.516,204.545 83.379,204.545 83.379C204.545 83.379,204.545 81.737,204.545 79.74C204.545 76.128,204.545 76.101,204.599 75.992C204.627 75.882,204.763 75.745,204.9 75.691M204.545 89.699C204.545 87.401,204.545 86.799,204.545 86.799L204.545 86.799C204.517 86.799,204.326 86.826,204.107 86.908C203.888 86.963,203.341 87.072,202.903 87.182L202.11 87.401L202.11 90.301C202.11 91.915,202.11 93.228,202.11 93.228C202.11 93.228,202.657 93.092,203.313 92.928C203.997 92.763,204.545 92.627,204.545 92.627C204.545 92.627,204.545 91.313,204.545 89.699"/></g><g class="vf-notehead" id="vf-auto28240" pointer-events="bounding-box"><path stroke="none" d="M229.769 74.889C229.854 74.889,229.938 74.889,230.078 74.889C230.443 74.889,230.977 74.918,231.173 74.946C233.504 75.283,234.655 76.827,234.655 78.624C234.655 80.534,233.364 82.724,230.78 84.128C229.517 84.802,228.225 85.111,227.046 85.111C224.883 85.111,223.114 84.044,222.749 82.162C222.693 81.881,222.665 81.629,222.665 81.376C222.665 78.343,225.922 75.283,229.769 74.889"/><path stroke="none" d="M193.036 65.691C193.09 65.663,193.172 65.636,193.254 65.636C193.473 65.636,193.692 65.773,193.774 65.992C193.802 66.101,193.802 66.128,193.802 69.603C193.802 72.859,193.802 73.078,193.856 73.078C193.856 73.078,193.856 73.078,193.856 73.078C194.157 72.996,195.279 72.75,195.361 72.75C195.607 72.75,195.799 72.886,195.881 73.078C195.908 73.16,195.936 73.789,195.936 74.419C195.936 75.048,195.908 75.677,195.881 75.759C195.799 76.033,195.744 76.033,194.65 76.306L193.802 76.525L193.802 79.425C193.802 82.134,193.802 82.353,193.829 82.353C193.856 82.353,193.856 82.353,193.856 82.353C194.157 82.244,195.279 81.997,195.361 81.997C195.525 81.997,195.635 82.052,195.772 82.161C195.908 82.326,195.908 82.271,195.908 83.311C195.908 83.42,195.908 83.557,195.908 83.694C195.908 83.83,195.908 83.94,195.908 84.049C195.908 85.116,195.908 85.062,195.772 85.198C195.635 85.335,195.635 85.335,194.65 85.581L193.802 85.773L193.802 89.33C193.802 92.832,193.802 92.859,193.774 92.941C193.692 93.188,193.473 93.297,193.254 93.297C193.118 93.297,192.954 93.242,192.844 93.133C192.707 92.996,192.68 93.242,192.68 91.053C192.68 90.616,192.68 90.096,192.68 89.467C192.68 87.579,192.68 86.047,192.68 86.047C192.68 86.047,192.133 86.183,191.476 86.348C190.792 86.512,190.245 86.648,190.245 86.648C190.245 86.648,190.245 88.29,190.245 90.287C190.245 93.872,190.245 93.899,190.19 94.008C190.108 94.227,189.889 94.364,189.67 94.364C189.534 94.364,189.369 94.309,189.26 94.2C189.123 94.036,189.123 94.282,189.123 92.066C189.123 91.628,189.123 91.081,189.123 90.424C189.123 87.168,189.123 86.949,189.096 86.949C189.096 86.949,189.096 86.949,189.068 86.949C188.74 87.032,187.728 87.25,187.646 87.25C187.399 87.25,187.181 87.114,187.098 86.922C187.071 86.84,187.071 86.211,187.071 85.581C187.071 84.952,187.071 84.323,187.098 84.241C187.208 83.995,187.263 83.967,188.302 83.694L189.123 83.502L189.123 80.575C189.123 77.866,189.123 77.674,189.096 77.674C189.096 77.674,189.096 77.674,189.068 77.674C188.74 77.756,187.728 78.003,187.646 78.003C187.399 78.003,187.181 77.866,187.098 77.647C187.071 77.592,187.071 76.936,187.071 76.306C187.071 75.677,187.071 75.048,187.098 74.966C187.208 74.72,187.263 74.692,188.302 74.446L189.123 74.254L189.123 70.698C189.123 67.168,189.123 67.141,189.15 67.059C189.233 66.812,189.451 66.703,189.67 66.703C189.807 66.703,189.971 66.758,190.081 66.867C190.218 67.004,190.245 66.758,190.245 68.947C190.245 69.384,190.245 69.904,190.245 70.561C190.245 72.421,190.245 73.953,190.245 73.953C190.245 73.953,190.792 73.817,191.449 73.68C192.133 73.516,192.68 73.379,192.68 73.379C192.68 73.379,192.68 71.737,192.68 69.74C192.68 66.128,192.68 66.101,192.735 65.992C192.762 65.882,192.899 65.745,193.036 65.691M192.68 79.699C192.68 77.401,192.68 76.799,192.68 76.799L192.68 76.799C192.653 76.799,192.461 76.826,192.242 76.908C192.023 76.963,191.476 77.072,191.038 77.182L190.245 77.401L190.245 80.301C190.245 81.915,190.245 83.228,190.245 83.228C190.245 83.228,190.792 83.092,191.449 82.928C192.133 82.763,192.68 82.627,192.68 82.627C192.68 82.627,192.68 81.313,192.68 79.699"/></g><g class="vf-notehead" id="vf-auto28241" pointer-events="bounding-box"><path stroke="none" d="M229.769 64.889C229.854 64.889,229.938 64.889,230.078 64.889C230.443 64.889,230.977 64.918,231.173 64.946C233.504 65.283,234.655 66.827,234.655 68.624C234.655 70.534,233.364 72.724,230.78 74.128C229.517 74.802,228.225 75.111,227.046 75.111C224.883 75.111,223.114 74.044,222.749 72.162C222.693 71.881,222.665 71.629,222.665 71.376C222.665 68.343,225.922 65.283,229.769 64.889"/><path stroke="none" d="M216.765 55.691C216.82 55.663,216.902 55.636,216.984 55.636C217.203 55.636,217.422 55.773,217.504 55.992C217.531 56.101,217.531 56.128,217.531 59.603C217.531 62.859,217.531 63.078,217.586 63.078C217.586 63.078,217.586 63.078,217.586 63.078C217.887 62.996,219.008 62.75,219.09 62.75C219.337 62.75,219.528 62.886,219.61 63.078C219.638 63.16,219.665 63.789,219.665 64.419C219.665 65.048,219.638 65.677,219.61 65.759C219.528 66.033,219.474 66.033,218.379 66.306L217.531 66.525L217.531 69.425C217.531 72.134,217.531 72.353,217.558 72.353C217.586 72.353,217.586 72.353,217.586 72.353C217.887 72.244,219.008 71.997,219.09 71.997C219.255 71.997,219.364 72.052,219.501 72.161C219.638 72.326,219.638 72.271,219.638 73.311C219.638 73.42,219.638 73.557,219.638 73.694C219.638 73.83,219.638 73.94,219.638 74.049C219.638 75.116,219.638 75.062,219.501 75.198C219.364 75.335,219.364 75.335,218.379 75.581L217.531 75.773L217.531 79.33C217.531 82.832,217.531 82.859,217.504 82.941C217.422 83.188,217.203 83.297,216.984 83.297C216.847 83.297,216.683 83.242,216.573 83.133C216.437 82.996,216.409 83.242,216.409 81.053C216.409 80.616,216.409 80.096,216.409 79.467C216.409 77.579,216.409 76.047,216.409 76.047C216.409 76.047,215.862 76.183,215.205 76.348C214.521 76.512,213.974 76.648,213.974 76.648C213.974 76.648,213.974 78.29,213.974 80.287C213.974 83.872,213.974 83.899,213.919 84.008C213.837 84.227,213.618 84.364,213.4 84.364C213.263 84.364,213.099 84.309,212.989 84.2C212.852 84.036,212.852 84.282,212.852 82.066C212.852 81.628,212.852 81.081,212.852 80.424C212.852 77.168,212.852 76.949,212.825 76.949C212.825 76.949,212.825 76.949,212.798 76.949C212.469 77.032,211.457 77.25,211.375 77.25C211.129 77.25,210.91 77.114,210.828 76.922C210.8 76.84,210.8 76.211,210.8 75.581C210.8 74.952,210.8 74.323,210.828 74.241C210.937 73.995,210.992 73.967,212.032 73.694L212.852 73.502L212.852 70.575C212.852 67.866,212.852 67.674,212.825 67.674C212.825 67.674,212.825 67.674,212.798 67.674C212.469 67.756,211.457 68.003,211.375 68.003C211.129 68.003,210.91 67.866,210.828 67.647C210.8 67.592,210.8 66.936,210.8 66.306C210.8 65.677,210.8 65.048,210.828 64.966C210.937 64.72,210.992 64.692,212.032 64.446L212.852 64.254L212.852 60.698C212.852 57.168,212.852 57.141,212.88 57.059C212.962 56.812,213.181 56.703,213.4 56.703C213.536 56.703,213.701 56.758,213.81 56.867C213.947 57.004,213.974 56.758,213.974 58.947C213.974 59.384,213.974 59.904,213.974 60.561C213.974 62.421,213.974 63.953,213.974 63.953C213.974 63.953,214.521 63.817,215.178 63.68C215.862 63.516,216.409 63.379,216.409 63.379C216.409 63.379,216.409 61.737,216.409 59.74C216.409 56.128,216.409 56.101,216.464 55.992C216.491 55.882,216.628 55.745,216.765 55.691M216.409 69.699C216.409 67.401,216.409 66.799,216.409 66.799L216.409 66.799C216.382 66.799,216.19 66.826,215.971 66.908C215.753 66.963,215.205 67.072,214.768 67.182L213.974 67.401L213.974 70.301C213.974 71.915,213.974 73.228,213.974 73.228C213.974 73.228,214.521 73.092,215.178 72.928C215.862 72.763,216.409 72.627,216.409 72.627C216.409 72.627,216.409 71.313,216.409 69.699"/></g><g class="vf-notehead" id="vf-auto28242" pointer-events="bounding-box"><path stroke="none" d="M229.769 44.889C229.854 44.889,229.938 44.889,230.078 44.889C230.443 44.889,230.977 44.918,231.173 44.946C233.504 45.283,234.655 46.827,234.655 48.624C234.655 50.534,233.364 52.724,230.78 54.128C229.517 54.802,228.225 55.111,227.046 55.111C224.883 55.111,223.114 54.044,222.749 52.162C222.693 51.881,222.665 51.629,222.665 51.376C222.665 48.343,225.922 45.283,229.769 44.889"/><path stroke="none" d="M204.9 35.691C204.955 35.663,205.037 35.636,205.119 35.636C205.338 35.636,205.557 35.773,205.639 35.992C205.666 36.101,205.666 36.128,205.666 39.603C205.666 42.859,205.666 43.078,205.721 43.078C205.721 43.078,205.721 43.078,205.721 43.078C206.022 42.996,207.144 42.75,207.226 42.75C207.472 42.75,207.664 42.886,207.746 43.078C207.773 43.16,207.8 43.789,207.8 44.419C207.8 45.048,207.773 45.677,207.746 45.759C207.664 46.033,207.609 46.033,206.514 46.306L205.666 46.525L205.666 49.425C205.666 52.134,205.666 52.353,205.694 52.353C205.721 52.353,205.721 52.353,205.721 52.353C206.022 52.244,207.144 51.997,207.226 51.997C207.39 51.997,207.499 52.052,207.636 52.161C207.773 52.326,207.773 52.271,207.773 53.311C207.773 53.42,207.773 53.557,207.773 53.694C207.773 53.83,207.773 53.94,207.773 54.049C207.773 55.116,207.773 55.062,207.636 55.198C207.499 55.335,207.499 55.335,206.514 55.581L205.666 55.773L205.666 59.33C205.666 62.832,205.666 62.859,205.639 62.941C205.557 63.188,205.338 63.297,205.119 63.297C204.982 63.297,204.818 63.242,204.709 63.133C204.572 62.996,204.545 63.242,204.545 61.053C204.545 60.616,204.545 60.096,204.545 59.467C204.545 57.579,204.545 56.047,204.545 56.047C204.545 56.047,203.997 56.183,203.341 56.348C202.657 56.512,202.11 56.648,202.11 56.648C202.11 56.648,202.11 58.29,202.11 60.287C202.11 63.872,202.11 63.899,202.055 64.008C201.973 64.227,201.754 64.364,201.535 64.364C201.398 64.364,201.234 64.309,201.125 64.2C200.988 64.036,200.988 64.282,200.988 62.066C200.988 61.628,200.988 61.081,200.988 60.424C200.988 57.168,200.988 56.949,200.96 56.949C200.96 56.949,200.96 56.949,200.933 56.949C200.605 57.032,199.592 57.25,199.51 57.25C199.264 57.25,199.045 57.114,198.963 56.922C198.936 56.84,198.936 56.211,198.936 55.581C198.936 54.952,198.936 54.323,198.963 54.241C199.073 53.995,199.127 53.967,200.167 53.694L200.988 53.502L200.988 50.575C200.988 47.866,200.988 47.674,200.96 47.674C200.96 47.674,200.96 47.674,200.933 47.674C200.605 47.756,199.592 48.003,199.51 48.003C199.264 48.003,199.045 47.866,198.963 47.647C198.936 47.592,198.936 46.936,198.936 46.306C198.936 45.677,198.936 45.048,198.963 44.966C199.073 44.72,199.127 44.692,200.167 44.446L200.988 44.254L200.988 40.698C200.988 37.168,200.988 37.141,201.015 37.059C201.097 36.812,201.316 36.703,201.535 36.703C201.672 36.703,201.836 36.758,201.945 36.867C202.082 37.004,202.11 36.758,202.11 38.947C202.11 39.384,202.11 39.904,202.11 40.561C202.11 42.421,202.11 43.953,202.11 43.953C202.11 43.953,202.657 43.817,203.313 43.68C203.997 43.516,204.545 43.379,204.545 43.379C204.545 43.379,204.545 41.737,204.545 39.74C204.545 36.128,204.545 36.101,204.599 35.992C204.627 35.882,204.763 35.745,204.9 35.691M204.545 49.699C204.545 47.401,204.545 46.799,204.545 46.799L204.545 46.799C204.517 46.799,204.326 46.826,204.107 46.908C203.888 46.963,203.341 47.072,202.903 47.182L202.11 47.401L202.11 50.301C202.11 51.915,202.11 53.228,202.11 53.228C202.11 53.228,202.657 53.092,203.313 52.928C203.997 52.763,204.545 52.627,204.545 52.627C204.545 52.627,204.545 51.313,204.545 49.699"/></g><g class="vf-notehead" id="vf-auto28243" pointer-events="bounding-box"><path stroke="none" d="M241.009 39.889C241.094 39.889,241.178 39.889,241.318 39.889C241.683 39.889,242.217 39.918,242.413 39.946C244.744 40.283,245.895 41.827,245.895 43.624C245.895 45.534,244.604 47.724,242.02 49.128C240.757 49.802,239.465 50.111,238.286 50.111C236.124 50.111,234.354 49.044,233.989 47.162C233.933 46.881,233.905 46.629,233.905 46.376C233.905 43.343,237.162 40.283,241.009 39.889"/><path stroke="none" d="M193.036 30.691C193.09 30.663,193.172 30.636,193.254 30.636C193.473 30.636,193.692 30.773,193.774 30.992C193.802 31.101,193.802 31.128,193.802 34.603C193.802 37.859,193.802 38.078,193.856 38.078C193.856 38.078,193.856 38.078,193.856 38.078C194.157 37.996,195.279 37.75,195.361 37.75C195.607 37.75,195.799 37.886,195.881 38.078C195.908 38.16,195.936 38.789,195.936 39.419C195.936 40.048,195.908 40.677,195.881 40.759C195.799 41.033,195.744 41.033,194.65 41.306L193.802 41.525L193.802 44.425C193.802 47.134,193.802 47.353,193.829 47.353C193.856 47.353,193.856 47.353,193.856 47.353C194.157 47.244,195.279 46.997,195.361 46.997C195.525 46.997,195.635 47.052,195.772 47.161C195.908 47.326,195.908 47.271,195.908 48.311C195.908 48.42,195.908 48.557,195.908 48.694C195.908 48.83,195.908 48.94,195.908 49.049C195.908 50.116,195.908 50.062,195.772 50.198C195.635 50.335,195.635 50.335,194.65 50.581L193.802 50.773L193.802 54.33C193.802 57.832,193.802 57.859,193.774 57.941C193.692 58.188,193.473 58.297,193.254 58.297C193.118 58.297,192.954 58.242,192.844 58.133C192.707 57.996,192.68 58.242,192.68 56.053C192.68 55.616,192.68 55.096,192.68 54.467C192.68 52.579,192.68 51.047,192.68 51.047C192.68 51.047,192.133 51.183,191.476 51.348C190.792 51.512,190.245 51.648,190.245 51.648C190.245 51.648,190.245 53.29,190.245 55.287C190.245 58.872,190.245 58.899,190.19 59.008C190.108 59.227,189.889 59.364,189.67 59.364C189.534 59.364,189.369 59.309,189.26 59.2C189.123 59.036,189.123 59.282,189.123 57.066C189.123 56.628,189.123 56.081,189.123 55.424C189.123 52.168,189.123 51.949,189.096 51.949C189.096 51.949,189.096 51.949,189.068 51.949C188.74 52.032,187.728 52.25,187.646 52.25C187.399 52.25,187.181 52.114,187.098 51.922C187.071 51.84,187.071 51.211,187.071 50.581C187.071 49.952,187.071 49.323,187.098 49.241C187.208 48.995,187.263 48.967,188.302 48.694L189.123 48.502L189.123 45.575C189.123 42.866,189.123 42.674,189.096 42.674C189.096 42.674,189.096 42.674,189.068 42.674C188.74 42.756,187.728 43.003,187.646 43.003C187.399 43.003,187.181 42.866,187.098 42.647C187.071 42.592,187.071 41.936,187.071 41.306C187.071 40.677,187.071 40.048,187.098 39.966C187.208 39.72,187.263 39.692,188.302 39.446L189.123 39.254L189.123 35.698C189.123 32.168,189.123 32.141,189.15 32.059C189.233 31.812,189.451 31.703,189.67 31.703C189.807 31.703,189.971 31.758,190.081 31.867C190.218 32.004,190.245 31.758,190.245 33.947C190.245 34.384,190.245 34.904,190.245 35.561C190.245 37.421,190.245 38.953,190.245 38.953C190.245 38.953,190.792 38.817,191.449 38.68C192.133 38.516,192.68 38.379,192.68 38.379C192.68 38.379,192.68 36.737,192.68 34.74C192.68 31.128,192.68 31.101,192.735 30.992C192.762 30.882,192.899 30.745,193.036 30.691M192.68 44.699C192.68 42.401,192.68 41.799,192.68 41.799L192.68 41.799C192.653 41.799,192.461 41.826,192.242 41.908C192.023 41.963,191.476 42.072,191.038 42.182L190.245 42.401L190.245 45.301C190.245 46.915,190.245 48.228,190.245 48.228C190.245 48.228,190.792 48.092,191.449 47.928C192.133 47.763,192.68 47.627,192.68 47.627C192.68 47.627,192.68 46.313,192.68 44.699"/></g><g class="vf-notehead" id="vf-auto28244" pointer-events="bounding-box"><path stroke="none" d="M229.769 29.889C229.854 29.889,229.938 29.889,230.078 29.889C230.443 29.889,230.977 29.918,231.173 29.946C233.504 30.283,234.655 31.827,234.655 33.624C234.655 35.534,233.364 37.724,230.78 39.128C229.517 39.802,228.225 40.111,227.046 40.111C224.883 40.111,223.114 39.044,222.749 37.162C222.693 36.881,222.665 36.629,222.665 36.376C222.665 33.343,225.922 30.283,229.769 29.889"/><path stroke="none" d="M216.765 20.691C216.82 20.663,216.902 20.636,216.984 20.636C217.203 20.636,217.422 20.773,217.504 20.992C217.531 21.101,217.531 21.128,217.531 24.603C217.531 27.859,217.531 28.078,217.586 28.078C217.586 28.078,217.586 28.078,217.586 28.078C217.887 27.996,219.008 27.75,219.09 27.75C219.337 27.75,219.528 27.886,219.61 28.078C219.638 28.16,219.665 28.789,219.665 29.419C219.665 30.048,219.638 30.677,219.61 30.759C219.528 31.033,219.474 31.033,218.379 31.306L217.531 31.525L217.531 34.425C217.531 37.134,217.531 37.353,217.558 37.353C217.586 37.353,217.586 37.353,217.586 37.353C217.887 37.244,219.008 36.997,219.09 36.997C219.255 36.997,219.364 37.052,219.501 37.161C219.638 37.326,219.638 37.271,219.638 38.311C219.638 38.42,219.638 38.557,219.638 38.694C219.638 38.83,219.638 38.94,219.638 39.049C219.638 40.116,219.638 40.062,219.501 40.198C219.364 40.335,219.364 40.335,218.379 40.581L217.531 40.773L217.531 44.33C217.531 47.832,217.531 47.859,217.504 47.941C217.422 48.188,217.203 48.297,216.984 48.297C216.847 48.297,216.683 48.242,216.573 48.133C216.437 47.996,216.409 48.242,216.409 46.053C216.409 45.616,216.409 45.096,216.409 44.467C216.409 42.579,216.409 41.047,216.409 41.047C216.409 41.047,215.862 41.183,215.205 41.348C214.521 41.512,213.974 41.648,213.974 41.648C213.974 41.648,213.974 43.29,213.974 45.287C213.974 48.872,213.974 48.899,213.919 49.008C213.837 49.227,213.618 49.364,213.4 49.364C213.263 49.364,213.099 49.309,212.989 49.2C212.852 49.036,212.852 49.282,212.852 47.066C212.852 46.628,212.852 46.081,212.852 45.424C212.852 42.168,212.852 41.949,212.825 41.949C212.825 41.949,212.825 41.949,212.798 41.949C212.469 42.032,211.457 42.25,211.375 42.25C211.129 42.25,210.91 42.114,210.828 41.922C210.8 41.84,210.8 41.211,210.8 40.581C210.8 39.952,210.8 39.323,210.828 39.241C210.937 38.995,210.992 38.967,212.032 38.694L212.852 38.502L212.852 35.575C212.852 32.866,212.852 32.674,212.825 32.674C212.825 32.674,212.825 32.674,212.798 32.674C212.469 32.756,211.457 33.003,211.375 33.003C211.129 33.003,210.91 32.866,210.828 32.647C210.8 32.592,210.8 31.936,210.8 31.306C210.8 30.677,210.8 30.048,210.828 29.966C210.937 29.72,210.992 29.692,212.032 29.446L212.852 29.254L212.852 25.698C212.852 22.168,212.852 22.141,212.88 22.059C212.962 21.812,213.181 21.703,213.4 21.703C213.536 21.703,213.701 21.758,213.81 21.867C213.947 22.004,213.974 21.758,213.974 23.947C213.974 24.384,213.974 24.904,213.974 25.561C213.974 27.421,213.974 28.953,213.974 28.953C213.974 28.953,214.521 28.817,215.178 28.68C215.862 28.516,216.409 28.379,216.409 28.379C216.409 28.379,216.409 26.737,216.409 24.74C216.409 21.128,216.409 21.101,216.464 20.992C216.491 20.882,216.628 20.745,216.765 20.691M216.409 34.699C216.409 32.401,216.409 31.799,216.409 31.799L216.409 31.799C216.382 31.799,216.19 31.826,215.971 31.908C215.753 31.963,215.205 32.072,214.768 32.182L213.974 32.401L213.974 35.301C213.974 36.915,213.974 38.228,213.974 38.228C213.974 38.228,214.521 38.092,215.178 37.928C215.862 37.763,216.409 37.627,216.409 37.627C216.409 37.627,216.409 36.313,216.409 34.699"/></g></g><g class="vf-stavenote" id="vf-auto28245"><path stroke-width="1.4" fill="none" stroke="#444" d="M343.22 90L361.21 90"/><g class="vf-stem" id="vf-auto28246" pointer-events="bounding-box"><path stroke-width="1.5" fill="none" d="M346.97 36.5L346.97 125"/></g><g class="vf-notehead" id="vf-auto28258" pointer-events="bounding-box"><path stroke="none" d="M353.324 84.889C353.408 84.889,353.492 84.889,353.633 84.889C353.998 84.889,354.531 84.918,354.728 84.946C357.058 85.283,358.21 86.827,358.21 88.624C358.21 90.534,356.918 92.724,354.335 94.128C353.071 94.802,351.779 95.111,350.6 95.111C348.438 95.111,346.669 94.044,346.304 92.162C346.248 91.881,346.22 91.629,346.22 91.376C346.22 88.343,349.477 85.283,353.324 84.889"/><text stroke="none" font-size="9pt" font-weight="bold" x="325.229" y="95">3</text><path stroke="none" d="M308.465 75.691C308.519 75.663,308.601 75.636,308.684 75.636C308.902 75.636,309.121 75.773,309.203 75.992C309.231 76.101,309.231 76.128,309.231 79.603C309.231 82.859,309.231 83.078,309.285 83.078C309.285 83.078,309.285 83.078,309.285 83.078C309.586 82.996,310.708 82.75,310.79 82.75C311.036 82.75,311.228 82.886,311.31 83.078C311.337 83.16,311.365 83.789,311.365 84.419C311.365 85.048,311.337 85.677,311.31 85.759C311.228 86.033,311.173 86.033,310.079 86.306L309.231 86.525L309.231 89.425C309.231 92.134,309.231 92.353,309.258 92.353C309.285 92.353,309.285 92.353,309.285 92.353C309.586 92.244,310.708 91.997,310.79 91.997C310.954 91.997,311.064 92.052,311.201 92.161C311.337 92.326,311.337 92.271,311.337 93.311C311.337 93.42,311.337 93.557,311.337 93.694C311.337 93.83,311.337 93.94,311.337 94.049C311.337 95.116,311.337 95.062,311.201 95.198C311.064 95.335,311.064 95.335,310.079 95.581L309.231 95.773L309.231 99.33C309.231 102.832,309.231 102.859,309.203 102.941C309.121 103.188,308.902 103.297,308.684 103.297C308.547 103.297,308.383 103.242,308.273 103.133C308.136 102.996,308.109 103.242,308.109 101.053C308.109 100.616,308.109 100.096,308.109 99.467C308.109 97.579,308.109 96.047,308.109 96.047C308.109 96.047,307.562 96.183,306.905 96.348C306.221 96.512,305.674 96.648,305.674 96.648C305.674 96.648,305.674 98.29,305.674 100.287C305.674 103.872,305.674 103.899,305.619 104.008C305.537 104.227,305.318 104.364,305.099 104.364C304.963 104.364,304.798 104.309,304.689 104.2C304.552 104.036,304.552 104.282,304.552 102.066C304.552 101.628,304.552 101.081,304.552 100.424C304.552 97.168,304.552 96.949,304.525 96.949C304.525 96.949,304.525 96.949,304.497 96.949C304.169 97.032,303.157 97.25,303.075 97.25C302.828 97.25,302.61 97.114,302.528 96.922C302.5 96.84,302.5 96.211,302.5 95.581C302.5 94.952,302.5 94.323,302.528 94.241C302.637 93.995,302.692 93.967,303.731 93.694L304.552 93.502L304.552 90.575C304.552 87.866,304.552 87.674,304.525 87.674C304.525 87.674,304.525 87.674,304.497 87.674C304.169 87.756,303.157 88.003,303.075 88.003C302.828 88.003,302.61 87.866,302.528 87.647C302.5 87.592,302.5 86.936,302.5 86.306C302.5 85.677,302.5 85.048,302.528 84.966C302.637 84.72,302.692 84.692,303.731 84.446L304.552 84.254L304.552 80.698C304.552 77.168,304.552 77.141,304.58 77.059C304.662 76.812,304.88 76.703,305.099 76.703C305.236 76.703,305.4 76.758,305.51 76.867C305.647 77.004,305.674 76.758,305.674 78.947C305.674 79.384,305.674 79.904,305.674 80.561C305.674 82.421,305.674 83.953,305.674 83.953C305.674 83.953,306.221 83.817,306.878 83.68C307.562 83.516,308.109 83.379,308.109 83.379C308.109 83.379,308.109 81.737,308.109 79.74C308.109 76.128,308.109 76.101,308.164 75.992C308.191 75.882,308.328 75.745,308.465 75.691M308.109 89.699C308.109 87.401,308.109 86.799,308.109 86.799L308.109 86.799C308.082 86.799,307.89 86.826,307.671 86.908C307.452 86.963,306.905 87.072,306.467 87.182L305.674 87.401L305.674 90.301C305.674 91.915,305.674 93.228,305.674 93.228C305.674 93.228,306.221 93.092,306.878 92.928C307.562 92.763,308.109 92.627,308.109 92.627C308.109 92.627,308.109 91.313,308.109 89.699"/></g><g class="vf-notehead" id="vf-auto28257" pointer-events="bounding-box"><path stroke="none" d="M353.324 74.889C353.408 74.889,353.492 74.889,353.633 74.889C353.998 74.889,354.531 74.918,354.728 74.946C357.058 75.283,358.21 76.827,358.21 78.624C358.21 80.534,356.918 82.724,354.335 84.128C353.071 84.802,351.779 85.111,350.6 85.111C348.438 85.111,346.669 84.044,346.304 82.162C346.248 81.881,346.22 81.629,346.22 81.376C346.22 78.343,349.477 75.283,353.324 74.889"/><text stroke="none" font-size="9pt" font-weight="bold" x="325.229" y="85">2</text><path stroke-width="1.5" fill="none" d="M276.636 80 A8 8 0 0 0 260.636 80 A8 8 0 0 0 276.636 80"/><text stroke-width="1.5" stroke="none" font-weight="bold" x="264.925" y="84.5">2</text><path stroke="none" d="M296.6 65.691C296.655 65.663,296.737 65.636,296.819 65.636C297.038 65.636,297.257 65.773,297.339 65.992C297.366 66.101,297.366 66.128,297.366 69.603C297.366 72.859,297.366 73.078,297.421 73.078C297.421 73.078,297.421 73.078,297.421 73.078C297.722 72.996,298.844 72.75,298.926 72.75C299.172 72.75,299.363 72.886,299.445 73.078C299.473 73.16,299.5 73.789,299.5 74.419C299.5 75.048,299.473 75.677,299.445 75.759C299.363 76.033,299.309 76.033,298.214 76.306L297.366 76.525L297.366 79.425C297.366 82.134,297.366 82.353,297.393 82.353C297.421 82.353,297.421 82.353,297.421 82.353C297.722 82.244,298.844 81.997,298.926 81.997C299.09 81.997,299.199 82.052,299.336 82.161C299.473 82.326,299.473 82.271,299.473 83.311C299.473 83.42,299.473 83.557,299.473 83.694C299.473 83.83,299.473 83.94,299.473 84.049C299.473 85.116,299.473 85.062,299.336 85.198C299.199 85.335,299.199 85.335,298.214 85.581L297.366 85.773L297.366 89.33C297.366 92.832,297.366 92.859,297.339 92.941C297.257 93.188,297.038 93.297,296.819 93.297C296.682 93.297,296.518 93.242,296.408 93.133C296.272 92.996,296.244 93.242,296.244 91.053C296.244 90.616,296.244 90.096,296.244 89.467C296.244 87.579,296.244 86.047,296.244 86.047C296.244 86.047,295.697 86.183,295.04 86.348C294.356 86.512,293.809 86.648,293.809 86.648C293.809 86.648,293.809 88.29,293.809 90.287C293.809 93.872,293.809 93.899,293.755 94.008C293.672 94.227,293.454 94.364,293.235 94.364C293.098 94.364,292.934 94.309,292.824 94.2C292.688 94.036,292.688 94.282,292.688 92.066C292.688 91.628,292.688 91.081,292.688 90.424C292.688 87.168,292.688 86.949,292.66 86.949C292.66 86.949,292.66 86.949,292.633 86.949C292.304 87.032,291.292 87.25,291.21 87.25C290.964 87.25,290.745 87.114,290.663 86.922C290.636 86.84,290.636 86.211,290.636 85.581C290.636 84.952,290.636 84.323,290.663 84.241C290.772 83.995,290.827 83.967,291.867 83.694L292.688 83.502L292.688 80.575C292.688 77.866,292.688 77.674,292.66 77.674C292.66 77.674,292.66 77.674,292.633 77.674C292.304 77.756,291.292 78.003,291.21 78.003C290.964 78.003,290.745 77.866,290.663 77.647C290.636 77.592,290.636 76.936,290.636 76.306C290.636 75.677,290.636 75.048,290.663 74.966C290.772 74.72,290.827 74.692,291.867 74.446L292.688 74.254L292.688 70.698C292.688 67.168,292.688 67.141,292.715 67.059C292.797 66.812,293.016 66.703,293.235 66.703C293.372 66.703,293.536 66.758,293.645 66.867C293.782 67.004,293.809 66.758,293.809 68.947C293.809 69.384,293.809 69.904,293.809 70.561C293.809 72.421,293.809 73.953,293.809 73.953C293.809 73.953,294.356 73.817,295.013 73.68C295.697 73.516,296.244 73.379,296.244 73.379C296.244 73.379,296.244 71.737,296.244 69.74C296.244 66.128,296.244 66.101,296.299 65.992C296.326 65.882,296.463 65.745,296.6 65.691M296.244 79.699C296.244 77.401,296.244 76.799,296.244 76.799L296.244 76.799C296.217 76.799,296.025 76.826,295.807 76.908C295.588 76.963,295.04 77.072,294.603 77.182L293.809 77.401L293.809 80.301C293.809 81.915,293.809 83.228,293.809 83.228C293.809 83.228,294.356 83.092,295.013 82.928C295.697 82.763,296.244 82.627,296.244 82.627C296.244 82.627,296.244 81.313,296.244 79.699"/></g><g class="vf-notehead" id="vf-auto28256" pointer-events="bounding-box"><path stroke="none" d="M353.324 64.889C353.408 64.889,353.492 64.889,353.633 64.889C353.998 64.889,354.531 64.918,354.728 64.946C357.058 65.283,358.21 66.827,358.21 68.624C358.21 70.534,356.918 72.724,354.335 74.128C353.071 74.802,351.779 75.111,350.6 75.111C348.438 75.111,346.669 74.044,346.304 72.162C346.248 71.881,346.22 71.629,346.22 71.376C346.22 68.343,349.477 65.283,353.324 64.889"/><text stroke="none" font-size="9pt" font-weight="bold" x="325.229" y="75">0</text><path stroke="none" d="M320.329 55.691C320.384 55.663,320.466 55.636,320.548 55.636C320.767 55.636,320.986 55.773,321.068 55.992C321.095 56.101,321.095 56.128,321.095 59.603C321.095 62.859,321.095 63.078,321.15 63.078C321.15 63.078,321.15 63.078,321.15 63.078C321.451 62.996,322.573 62.75,322.655 62.75C322.901 62.75,323.093 62.886,323.175 63.078C323.202 63.16,323.229 63.789,323.229 64.419C323.229 65.048,323.202 65.677,323.175 65.759C323.093 66.033,323.038 66.033,321.944 66.306L321.095 66.525L321.095 69.425C321.095 72.134,321.095 72.353,321.123 72.353C321.15 72.353,321.15 72.353,321.15 72.353C321.451 72.244,322.573 71.997,322.655 71.997C322.819 71.997,322.928 72.052,323.065 72.161C323.202 72.326,323.202 72.271,323.202 73.311C323.202 73.42,323.202 73.557,323.202 73.694C323.202 73.83,323.202 73.94,323.202 74.049C323.202 75.116,323.202 75.062,323.065 75.198C322.928 75.335,322.928 75.335,321.944 75.581L321.095 75.773L321.095 79.33C321.095 82.832,321.095 82.859,321.068 82.941C320.986 83.188,320.767 83.297,320.548 83.297C320.411 83.297,320.247 83.242,320.138 83.133C320.001 82.996,319.974 83.242,319.974 81.053C319.974 80.616,319.974 80.096,319.974 79.467C319.974 77.579,319.974 76.047,319.974 76.047C319.974 76.047,319.426 76.183,318.77 76.348C318.086 76.512,317.539 76.648,317.539 76.648C317.539 76.648,317.539 78.29,317.539 80.287C317.539 83.872,317.539 83.899,317.484 84.008C317.402 84.227,317.183 84.364,316.964 84.364C316.827 84.364,316.663 84.309,316.554 84.2C316.417 84.036,316.417 84.282,316.417 82.066C316.417 81.628,316.417 81.081,316.417 80.424C316.417 77.168,316.417 76.949,316.389 76.949C316.389 76.949,316.389 76.949,316.362 76.949C316.034 77.032,315.021 77.25,314.939 77.25C314.693 77.25,314.474 77.114,314.392 76.922C314.365 76.84,314.365 76.211,314.365 75.581C314.365 74.952,314.365 74.323,314.392 74.241C314.502 73.995,314.556 73.967,315.596 73.694L316.417 73.502L316.417 70.575C316.417 67.866,316.417 67.674,316.389 67.674C316.389 67.674,316.389 67.674,316.362 67.674C316.034 67.756,315.021 68.003,314.939 68.003C314.693 68.003,314.474 67.866,314.392 67.647C314.365 67.592,314.365 66.936,314.365 66.306C314.365 65.677,314.365 65.048,314.392 64.966C314.502 64.72,314.556 64.692,315.596 64.446L316.417 64.254L316.417 60.698C316.417 57.168,316.417 57.141,316.444 57.059C316.526 56.812,316.745 56.703,316.964 56.703C317.101 56.703,317.265 56.758,317.374 56.867C317.511 57.004,317.539 56.758,317.539 58.947C317.539 59.384,317.539 59.904,317.539 60.561C317.539 62.421,317.539 63.953,317.539 63.953C317.539 63.953,318.086 63.817,318.742 63.68C319.426 63.516,319.974 63.379,319.974 63.379C319.974 63.379,319.974 61.737,319.974 59.74C319.974 56.128,319.974 56.101,320.028 55.992C320.056 55.882,320.192 55.745,320.329 55.691M319.974 69.699C319.974 67.401,319.974 66.799,319.974 66.799L319.974 66.799C319.946 66.799,319.755 66.826,319.536 66.908C319.317 66.963,318.77 67.072,318.332 67.182L317.539 67.401L317.539 70.301C317.539 71.915,317.539 73.228,317.539 73.228C317.539 73.228,318.086 73.092,318.742 72.928C319.426 72.763,319.974 72.627,319.974 72.627C319.974 72.627,319.974 71.313,319.974 69.699"/></g><g class="vf-notehead" id="vf-auto28255" pointer-events="bounding-box"><path stroke="none" d="M342.084 44.889C342.168 44.889,342.252 44.889,342.393 44.889C342.758 44.889,343.291 44.918,343.488 44.946C345.818 45.283,346.97 46.827,346.97 48.624C346.97 50.534,345.678 52.724,343.095 54.128C341.831 54.802,340.539 55.111,339.36 55.111C337.198 55.111,335.429 54.044,335.064 52.162C335.008 51.881,334.979 51.629,334.979 51.376C334.979 48.343,338.237 45.283,342.084 44.889"/><text stroke="none" font-size="9pt" font-weight="bold" x="325.229" y="55">3</text><path stroke="none" d="M308.465 35.691C308.519 35.663,308.601 35.636,308.684 35.636C308.902 35.636,309.121 35.773,309.203 35.992C309.231 36.101,309.231 36.128,309.231 39.603C309.231 42.859,309.231 43.078,309.285 43.078C309.285 43.078,309.285 43.078,309.285 43.078C309.586 42.996,310.708 42.75,310.79 42.75C311.036 42.75,311.228 42.886,311.31 43.078C311.337 43.16,311.365 43.789,311.365 44.419C311.365 45.048,311.337 45.677,311.31 45.759C311.228 46.033,311.173 46.033,310.079 46.306L309.231 46.525L309.231 49.425C309.231 52.134,309.231 52.353,309.258 52.353C309.285 52.353,309.285 52.353,309.285 52.353C309.586 52.244,310.708 51.997,310.79 51.997C310.954 51.997,311.064 52.052,311.201 52.161C311.337 52.326,311.337 52.271,311.337 53.311C311.337 53.42,311.337 53.557,311.337 53.694C311.337 53.83,311.337 53.94,311.337 54.049C311.337 55.116,311.337 55.062,311.201 55.198C311.064 55.335,311.064 55.335,310.079 55.581L309.231 55.773L309.231 59.33C309.231 62.832,309.231 62.859,309.203 62.941C309.121 63.188,308.902 63.297,308.684 63.297C308.547 63.297,308.383 63.242,308.273 63.133C308.136 62.996,308.109 63.242,308.109 61.053C308.109 60.616,308.109 60.096,308.109 59.467C308.109 57.579,308.109 56.047,308.109 56.047C308.109 56.047,307.562 56.183,306.905 56.348C306.221 56.512,305.674 56.648,305.674 56.648C305.674 56.648,305.674 58.29,305.674 60.287C305.674 63.872,305.674 63.899,305.619 64.008C305.537 64.227,305.318 64.364,305.099 64.364C304.963 64.364,304.798 64.309,304.689 64.2C304.552 64.036,304.552 64.282,304.552 62.066C304.552 61.628,304.552 61.081,304.552 60.424C304.552 57.168,304.552 56.949,304.525 56.949C304.525 56.949,304.525 56.949,304.497 56.949C304.169 57.032,303.157 57.25,303.075 57.25C302.828 57.25,302.61 57.114,302.528 56.922C302.5 56.84,302.5 56.211,302.5 55.581C302.5 54.952,302.5 54.323,302.528 54.241C302.637 53.995,302.692 53.967,303.731 53.694L304.552 53.502L304.552 50.575C304.552 47.866,304.552 47.674,304.525 47.674C304.525 47.674,304.525 47.674,304.497 47.674C304.169 47.756,303.157 48.003,303.075 48.003C302.828 48.003,302.61 47.866,302.528 47.647C302.5 47.592,302.5 46.936,302.5 46.306C302.5 45.677,302.5 45.048,302.528 44.966C302.637 44.72,302.692 44.692,303.731 44.446L304.552 44.254L304.552 40.698C304.552 37.168,304.552 37.141,304.58 37.059C304.662 36.812,304.88 36.703,305.099 36.703C305.236 36.703,305.4 36.758,305.51 36.867C305.647 37.004,305.674 36.758,305.674 38.947C305.674 39.384,305.674 39.904,305.674 40.561C305.674 42.421,305.674 43.953,305.674 43.953C305.674 43.953,306.221 43.817,306.878 43.68C307.562 43.516,308.109 43.379,308.109 43.379C308.109 43.379,308.109 41.737,308.109 39.74C308.109 36.128,308.109 36.101,308.164 35.992C308.191 35.882,308.328 35.745,308.465 35.691M308.109 49.699C308.109 47.401,308.109 46.799,308.109 46.799L308.109 46.799C308.082 46.799,307.89 46.826,307.671 46.908C307.452 46.963,306.905 47.072,306.467 47.182L305.674 47.401L305.674 50.301C305.674 51.915,305.674 53.228,305.674 53.228C305.674 53.228,306.221 53.092,306.878 52.928C307.562 52.763,308.109 52.627,308.109 52.627C308.109 52.627,308.109 51.313,308.109 49.699"/></g><g class="vf-notehead" id="vf-auto28254" pointer-events="bounding-box"><path stroke="none" d="M353.324 39.889C353.408 39.889,353.492 39.889,353.633 39.889C353.998 39.889,354.531 39.918,354.728 39.946C357.058 40.283,358.21 41.827,358.21 43.624C358.21 45.534,356.918 47.724,354.335 49.128C353.071 49.802,351.779 50.111,350.6 50.111C348.438 50.111,346.669 49.044,346.304 47.162C346.248 46.881,346.22 46.629,346.22 46.376C346.22 43.343,349.477 40.283,353.324 39.889"/><text stroke="none" font-size="9pt" font-weight="bold" x="361.21" y="50">2</text><path stroke-width="1.5" fill="none" d="M386.21 45 A8 8 0 0 0 370.21 45 A8 8 0 0 0 386.21 45"/><text stroke-width="1.5" stroke="none" font-weight="bold" x="374.499" y="49.5">3</text><path stroke="none" d="M296.6 30.691C296.655 30.663,296.737 30.636,296.819 30.636C297.038 30.636,297.257 30.773,297.339 30.992C297.366 31.101,297.366 31.128,297.366 34.603C297.366 37.859,297.366 38.078,297.421 38.078C297.421 38.078,297.421 38.078,297.421 38.078C297.722 37.996,298.844 37.75,298.926 37.75C299.172 37.75,299.363 37.886,299.445 38.078C299.473 38.16,299.5 38.789,299.5 39.419C299.5 40.048,299.473 40.677,299.445 40.759C299.363 41.033,299.309 41.033,298.214 41.306L297.366 41.525L297.366 44.425C297.366 47.134,297.366 47.353,297.393 47.353C297.421 47.353,297.421 47.353,297.421 47.353C297.722 47.244,298.844 46.997,298.926 46.997C299.09 46.997,299.199 47.052,299.336 47.161C299.473 47.326,299.473 47.271,299.473 48.311C299.473 48.42,299.473 48.557,299.473 48.694C299.473 48.83,299.473 48.94,299.473 49.049C299.473 50.116,299.473 50.062,299.336 50.198C299.199 50.335,299.199 50.335,298.214 50.581L297.366 50.773L297.366 54.33C297.366 57.832,297.366 57.859,297.339 57.941C297.257 58.188,297.038 58.297,296.819 58.297C296.682 58.297,296.518 58.242,296.408 58.133C296.272 57.996,296.244 58.242,296.244 56.053C296.244 55.616,296.244 55.096,296.244 54.467C296.244 52.579,296.244 51.047,296.244 51.047C296.244 51.047,295.697 51.183,295.04 51.348C294.356 51.512,293.809 51.648,293.809 51.648C293.809 51.648,293.809 53.29,293.809 55.287C293.809 58.872,293.809 58.899,293.755 59.008C293.672 59.227,293.454 59.364,293.235 59.364C293.098 59.364,292.934 59.309,292.824 59.2C292.688 59.036,292.688 59.282,292.688 57.066C292.688 56.628,292.688 56.081,292.688 55.424C292.688 52.168,292.688 51.949,292.66 51.949C292.66 51.949,292.66 51.949,292.633 51.949C292.304 52.032,291.292 52.25,291.21 52.25C290.964 52.25,290.745 52.114,290.663 51.922C290.636 51.84,290.636 51.211,290.636 50.581C290.636 49.952,290.636 49.323,290.663 49.241C290.772 48.995,290.827 48.967,291.867 48.694L292.688 48.502L292.688 45.575C292.688 42.866,292.688 42.674,292.66 42.674C292.66 42.674,292.66 42.674,292.633 42.674C292.304 42.756,291.292 43.003,291.21 43.003C290.964 43.003,290.745 42.866,290.663 42.647C290.636 42.592,290.636 41.936,290.636 41.306C290.636 40.677,290.636 40.048,290.663 39.966C290.772 39.72,290.827 39.692,291.867 39.446L292.688 39.254L292.688 35.698C292.688 32.168,292.688 32.141,292.715 32.059C292.797 31.812,293.016 31.703,293.235 31.703C293.372 31.703,293.536 31.758,293.645 31.867C293.782 32.004,293.809 31.758,293.809 33.947C293.809 34.384,293.809 34.904,293.809 35.561C293.809 37.421,293.809 38.953,293.809 38.953C293.809 38.953,294.356 38.817,295.013 38.68C295.697 38.516,296.244 38.379,296.244 38.379C296.244 38.379,296.244 36.737,296.244 34.74C296.244 31.128,296.244 31.101,296.299 30.992C296.326 30.882,296.463 30.745,296.6 30.691M296.244 44.699C296.244 42.401,296.244 41.799,296.244 41.799L296.244 41.799C296.217 41.799,296.025 41.826,295.807 41.908C295.588 41.963,295.04 42.072,294.603 42.182L293.809 42.401L293.809 45.301C293.809 46.915,293.809 48.228,293.809 48.228C293.809 48.228,294.356 48.092,295.013 47.928C295.697 47.763,296.244 47.627,296.244 47.627C296.244 47.627,296.244 46.313,296.244 44.699"/></g><g class="vf-notehead" id="vf-auto28253" pointer-events="bounding-box"><path stroke="none" d="M353.324 29.889C353.408 29.889,353.492 29.889,353.633 29.889C353.998 29.889,354.531 29.918,354.728 29.946C357.058 30.283,358.21 31.827,358.21 33.624C358.21 35.534,356.918 37.724,354.335 39.128C353.071 39.802,351.779 40.111,350.6 40.111C348.438 40.111,346.669 39.044,346.304 37.162C346.248 36.881,346.22 36.629,346.22 36.376C346.22 33.343,349.477 30.283,353.324 29.889"/><text stroke="none" font-size="9pt" font-weight="bold" x="325.229" y="40">0</text><path stroke="none" d="M320.329 20.691C320.384 20.663,320.466 20.636,320.548 20.636C320.767 20.636,320.986 20.773,321.068 20.992C321.095 21.101,321.095 21.128,321.095 24.603C321.095 27.859,321.095 28.078,321.15 28.078C321.15 28.078,321.15 28.078,321.15 28.078C321.451 27.996,322.573 27.75,322.655 27.75C322.901 27.75,323.093 27.886,323.175 28.078C323.202 28.16,323.229 28.789,323.229 29.419C323.229 30.048,323.202 30.677,323.175 30.759C323.093 31.033,323.038 31.033,321.944 31.306L321.095 31.525L321.095 34.425C321.095 37.134,321.095 37.353,321.123 37.353C321.15 37.353,321.15 37.353,321.15 37.353C321.451 37.244,322.573 36.997,322.655 36.997C322.819 36.997,322.928 37.052,323.065 37.161C323.202 37.326,323.202 37.271,323.202 38.311C323.202 38.42,323.202 38.557,323.202 38.694C323.202 38.83,323.202 38.94,323.202 39.049C323.202 40.116,323.202 40.062,323.065 40.198C322.928 40.335,322.928 40.335,321.944 40.581L321.095 40.773L321.095 44.33C321.095 47.832,321.095 47.859,321.068 47.941C320.986 48.188,320.767 48.297,320.548 48.297C320.411 48.297,320.247 48.242,320.138 48.133C320.001 47.996,319.974 48.242,319.974 46.053C319.974 45.616,319.974 45.096,319.974 44.467C319.974 42.579,319.974 41.047,319.974 41.047C319.974 41.047,319.426 41.183,318.77 41.348C318.086 41.512,317.539 41.648,317.539 41.648C317.539 41.648,317.539 43.29,317.539 45.287C317.539 48.872,317.539 48.899,317.484 49.008C317.402 49.227,317.183 49.364,316.964 49.364C316.827 49.364,316.663 49.309,316.554 49.2C316.417 49.036,316.417 49.282,316.417 47.066C316.417 46.628,316.417 46.081,316.417 45.424C316.417 42.168,316.417 41.949,316.389 41.949C316.389 41.949,316.389 41.949,316.362 41.949C316.034 42.032,315.021 42.25,314.939 42.25C314.693 42.25,314.474 42.114,314.392 41.922C314.365 41.84,314.365 41.211,314.365 40.581C314.365 39.952,314.365 39.323,314.392 39.241C314.502 38.995,314.556 38.967,315.596 38.694L316.417 38.502L316.417 35.575C316.417 32.866,316.417 32.674,316.389 32.674C316.389 32.674,316.389 32.674,316.362 32.674C316.034 32.756,315.021 33.003,314.939 33.003C314.693 33.003,314.474 32.866,314.392 32.647C314.365 32.592,314.365 31.936,314.365 31.306C314.365 30.677,314.365 30.048,314.392 29.966C314.502 29.72,314.556 29.692,315.596 29.446L316.417 29.254L316.417 25.698C316.417 22.168,316.417 22.141,316.444 22.059C316.526 21.812,316.745 21.703,316.964 21.703C317.101 21.703,317.265 21.758,317.374 21.867C317.511 22.004,317.539 21.758,317.539 23.947C317.539 24.384,317.539 24.904,317.539 25.561C317.539 27.421,317.539 28.953,317.539 28.953C317.539 28.953,318.086 28.817,318.742 28.68C319.426 28.516,319.974 28.379,319.974 28.379C319.974 28.379,319.974 26.737,319.974 24.74C319.974 21.128,319.974 21.101,320.028 20.992C320.056 20.882,320.192 20.745,320.329 20.691M319.974 34.699C319.974 32.401,319.974 31.799,319.974 31.799L319.974 31.799C319.946 31.799,319.755 31.826,319.536 31.908C319.317 31.963,318.77 32.072,318.332 32.182L317.539 32.401L317.539 35.301C317.539 36.915,317.539 38.228,317.539 38.228C317.539 38.228,318.086 38.092,318.742 37.928C319.426 37.763,319.974 37.627,319.974 37.627C319.974 37.627,319.974 36.313,319.974 34.699"/></g></g><g class="vf-stavenote" id="vf-auto28259"><path stroke-width="1.4" fill="none" stroke="#444" d="M448.983 90L466.974 90"/><g class="vf-stem" id="vf-auto28260" pointer-events="bounding-box"><path stroke-width="1.5" fill="none" d="M452.733 36.5L452.733 125"/></g><g class="vf-notehead" id="vf-auto28272" pointer-events="bounding-box"><path stroke="none" d="M459.088 84.889C459.172 84.889,459.256 84.889,459.397 84.889C459.762 84.889,460.295 84.918,460.492 84.946C462.822 85.283,463.974 86.827,463.974 88.624C463.974 90.534,462.682 92.724,460.099 94.128C458.835 94.802,457.543 95.111,456.364 95.111C454.202 95.111,452.433 94.044,452.068 92.162C452.012 91.881,451.983 91.629,451.983 91.376C451.983 88.343,455.241 85.283,459.088 84.889"/><path stroke="none" d="M422.229 75.691C422.283 75.663,422.365 75.636,422.447 75.636C422.666 75.636,422.885 75.773,422.967 75.992C422.995 76.101,422.995 76.128,422.995 79.603C422.995 82.859,422.995 83.078,423.049 83.078C423.049 83.078,423.049 83.078,423.049 83.078C423.35 82.996,424.472 82.75,424.554 82.75C424.8 82.75,424.992 82.886,425.074 83.078C425.101 83.16,425.129 83.789,425.129 84.419C425.129 85.048,425.101 85.677,425.074 85.759C424.992 86.033,424.937 86.033,423.843 86.306L422.995 86.525L422.995 89.425C422.995 92.134,422.995 92.353,423.022 92.353C423.049 92.353,423.049 92.353,423.049 92.353C423.35 92.244,424.472 91.997,424.554 91.997C424.718 91.997,424.828 92.052,424.965 92.161C425.101 92.326,425.101 92.271,425.101 93.311C425.101 93.42,425.101 93.557,425.101 93.694C425.101 93.83,425.101 93.94,425.101 94.049C425.101 95.116,425.101 95.062,424.965 95.198C424.828 95.335,424.828 95.335,423.843 95.581L422.995 95.773L422.995 99.33C422.995 102.832,422.995 102.859,422.967 102.941C422.885 103.188,422.666 103.297,422.447 103.297C422.311 103.297,422.146 103.242,422.037 103.133C421.9 102.996,421.873 103.242,421.873 101.053C421.873 100.616,421.873 100.096,421.873 99.467C421.873 97.579,421.873 96.047,421.873 96.047C421.873 96.047,421.326 96.183,420.669 96.348C419.985 96.512,419.438 96.648,419.438 96.648C419.438 96.648,419.438 98.29,419.438 100.287C419.438 103.872,419.438 103.899,419.383 104.008C419.301 104.227,419.082 104.364,418.863 104.364C418.726 104.364,418.562 104.309,418.453 104.2C418.316 104.036,418.316 104.282,418.316 102.066C418.316 101.628,418.316 101.081,418.316 100.424C418.316 97.168,418.316 96.949,418.289 96.949C418.289 96.949,418.289 96.949,418.261 96.949C417.933 97.032,416.921 97.25,416.839 97.25C416.592 97.25,416.373 97.114,416.291 96.922C416.264 96.84,416.264 96.211,416.264 95.581C416.264 94.952,416.264 94.323,416.291 94.241C416.401 93.995,416.456 93.967,417.495 93.694L418.316 93.502L418.316 90.575C418.316 87.866,418.316 87.674,418.289 87.674C418.289 87.674,418.289 87.674,418.261 87.674C417.933 87.756,416.921 88.003,416.839 88.003C416.592 88.003,416.373 87.866,416.291 87.647C416.264 87.592,416.264 86.936,416.264 86.306C416.264 85.677,416.264 85.048,416.291 84.966C416.401 84.72,416.456 84.692,417.495 84.446L418.316 84.254L418.316 80.698C418.316 77.168,418.316 77.141,418.343 77.059C418.425 76.812,418.644 76.703,418.863 76.703C419 76.703,419.164 76.758,419.274 76.867C419.41 77.004,419.438 76.758,419.438 78.947C419.438 79.384,419.438 79.904,419.438 80.561C419.438 82.421,419.438 83.953,419.438 83.953C419.438 83.953,419.985 83.817,420.642 83.68C421.326 83.516,421.873 83.379,421.873 83.379C421.873 83.379,421.873 81.737,421.873 79.74C421.873 76.128,421.873 76.101,421.928 75.992C421.955 75.882,422.092 75.745,422.229 75.691M421.873 89.699C421.873 87.401,421.873 86.799,421.873 86.799L421.873 86.799C421.845 86.799,421.654 86.826,421.435 86.908C421.216 86.963,420.669 87.072,420.231 87.182L419.438 87.401L419.438 90.301C419.438 91.915,419.438 93.228,419.438 93.228C419.438 93.228,419.985 93.092,420.642 92.928C421.326 92.763,421.873 92.627,421.873 92.627C421.873 92.627,421.873 91.313,421.873 89.699"/></g><g class="vf-notehead" id="vf-auto28271" pointer-events="bounding-box"><path stroke="none" d="M459.088 74.889C459.172 74.889,459.256 74.889,459.397 74.889C459.762 74.889,460.295 74.918,460.492 74.946C462.822 75.283,463.974 76.827,463.974 78.624C463.974 80.534,462.682 82.724,460.099 84.128C458.835 84.802,457.543 85.111,456.364 85.111C454.202 85.111,452.433 84.044,452.068 82.162C452.012 81.881,451.983 81.629,451.983 81.376C451.983 78.343,455.241 75.283,459.088 74.889"/><path stroke="none" d="M410.364 65.691C410.419 65.663,410.501 65.636,410.583 65.636C410.802 65.636,411.021 65.773,411.103 65.992C411.13 66.101,411.13 66.128,411.13 69.603C411.13 72.859,411.13 73.078,411.185 73.078C411.185 73.078,411.185 73.078,411.185 73.078C411.486 72.996,412.607 72.75,412.689 72.75C412.936 72.75,413.127 72.886,413.209 73.078C413.237 73.16,413.264 73.789,413.264 74.419C413.264 75.048,413.237 75.677,413.209 75.759C413.127 76.033,413.073 76.033,411.978 76.306L411.13 76.525L411.13 79.425C411.13 82.134,411.13 82.353,411.157 82.353C411.185 82.353,411.185 82.353,411.185 82.353C411.486 82.244,412.607 81.997,412.689 81.997C412.854 81.997,412.963 82.052,413.1 82.161C413.237 82.326,413.237 82.271,413.237 83.311C413.237 83.42,413.237 83.557,413.237 83.694C413.237 83.83,413.237 83.94,413.237 84.049C413.237 85.116,413.237 85.062,413.1 85.198C412.963 85.335,412.963 85.335,411.978 85.581L411.13 85.773L411.13 89.33C411.13 92.832,411.13 92.859,411.103 92.941C411.021 93.188,410.802 93.297,410.583 93.297C410.446 93.297,410.282 93.242,410.172 93.133C410.036 92.996,410.008 93.242,410.008 91.053C410.008 90.616,410.008 90.096,410.008 89.467C410.008 87.579,410.008 86.047,410.008 86.047C410.008 86.047,409.461 86.183,408.804 86.348C408.12 86.512,407.573 86.648,407.573 86.648C407.573 86.648,407.573 88.29,407.573 90.287C407.573 93.872,407.573 93.899,407.518 94.008C407.436 94.227,407.217 94.364,406.999 94.364C406.862 94.364,406.698 94.309,406.588 94.2C406.451 94.036,406.451 94.282,406.451 92.066C406.451 91.628,406.451 91.081,406.451 90.424C406.451 87.168,406.451 86.949,406.424 86.949C406.424 86.949,406.424 86.949,406.397 86.949C406.068 87.032,405.056 87.25,404.974 87.25C404.728 87.25,404.509 87.114,404.427 86.922C404.399 86.84,404.399 86.211,404.399 85.581C404.399 84.952,404.399 84.323,404.427 84.241C404.536 83.995,404.591 83.967,405.631 83.694L406.451 83.502L406.451 80.575C406.451 77.866,406.451 77.674,406.424 77.674C406.424 77.674,406.424 77.674,406.397 77.674C406.068 77.756,405.056 78.003,404.974 78.003C404.728 78.003,404.509 77.866,404.427 77.647C404.399 77.592,404.399 76.936,404.399 76.306C404.399 75.677,404.399 75.048,404.427 74.966C404.536 74.72,404.591 74.692,405.631 74.446L406.451 74.254L406.451 70.698C406.451 67.168,406.451 67.141,406.479 67.059C406.561 66.812,406.78 66.703,406.999 66.703C407.135 66.703,407.3 66.758,407.409 66.867C407.546 67.004,407.573 66.758,407.573 68.947C407.573 69.384,407.573 69.904,407.573 70.561C407.573 72.421,407.573 73.953,407.573 73.953C407.573 73.953,408.12 73.817,408.777 73.68C409.461 73.516,410.008 73.379,410.008 73.379C410.008 73.379,410.008 71.737,410.008 69.74C410.008 66.128,410.008 66.101,410.063 65.992C410.09 65.882,410.227 65.745,410.364 65.691M410.008 79.699C410.008 77.401,410.008 76.799,410.008 76.799L410.008 76.799C409.981 76.799,409.789 76.826,409.57 76.908C409.352 76.963,408.804 77.072,408.367 77.182L407.573 77.401L407.573 80.301C407.573 81.915,407.573 83.228,407.573 83.228C407.573 83.228,408.12 83.092,408.777 82.928C409.461 82.763,410.008 82.627,410.008 82.627C410.008 82.627,410.008 81.313,410.008 79.699"/></g><g class="vf-notehead" id="vf-auto28270" pointer-events="bounding-box"><path stroke="none" d="M459.088 64.889C459.172 64.889,459.256 64.889,459.397 64.889C459.762 64.889,460.295 64.918,460.492 64.946C462.822 65.283,463.974 66.827,463.974 68.624C463.974 70.534,462.682 72.724,460.099 74.128C458.835 74.802,457.543 75.111,456.364 75.111C454.202 75.111,452.433 74.044,452.068 72.162C452.012 71.881,451.983 71.629,451.983 71.376C451.983 68.343,455.241 65.283,459.088 64.889"/><path stroke="none" d="M434.093 55.691C434.148 55.663,434.23 55.636,434.312 55.636C434.531 55.636,434.75 55.773,434.832 55.992C434.859 56.101,434.859 56.128,434.859 59.603C434.859 62.859,434.859 63.078,434.914 63.078C434.914 63.078,434.914 63.078,434.914 63.078C435.215 62.996,436.337 62.75,436.419 62.75C436.665 62.75,436.857 62.886,436.939 63.078C436.966 63.16,436.993 63.789,436.993 64.419C436.993 65.048,436.966 65.677,436.939 65.759C436.857 66.033,436.802 66.033,435.707 66.306L434.859 66.525L434.859 69.425C434.859 72.134,434.859 72.353,434.887 72.353C434.914 72.353,434.914 72.353,434.914 72.353C435.215 72.244,436.337 71.997,436.419 71.997C436.583 71.997,436.692 72.052,436.829 72.161C436.966 72.326,436.966 72.271,436.966 73.311C436.966 73.42,436.966 73.557,436.966 73.694C436.966 73.83,436.966 73.94,436.966 74.049C436.966 75.116,436.966 75.062,436.829 75.198C436.692 75.335,436.692 75.335,435.707 75.581L434.859 75.773L434.859 79.33C434.859 82.832,434.859 82.859,434.832 82.941C434.75 83.188,434.531 83.297,434.312 83.297C434.175 83.297,434.011 83.242,433.902 83.133C433.765 82.996,433.737 83.242,433.737 81.053C433.737 80.616,433.737 80.096,433.737 79.467C433.737 77.579,433.737 76.047,433.737 76.047C433.737 76.047,433.19 76.183,432.534 76.348C431.85 76.512,431.302 76.648,431.302 76.648C431.302 76.648,431.302 78.29,431.302 80.287C431.302 83.872,431.302 83.899,431.248 84.008C431.166 84.227,430.947 84.364,430.728 84.364C430.591 84.364,430.427 84.309,430.317 84.2C430.181 84.036,430.181 84.282,430.181 82.066C430.181 81.628,430.181 81.081,430.181 80.424C430.181 77.168,430.181 76.949,430.153 76.949C430.153 76.949,430.153 76.949,430.126 76.949C429.798 77.032,428.785 77.25,428.703 77.25C428.457 77.25,428.238 77.114,428.156 76.922C428.129 76.84,428.129 76.211,428.129 75.581C428.129 74.952,428.129 74.323,428.156 74.241C428.265 73.995,428.32 73.967,429.36 73.694L430.181 73.502L430.181 70.575C430.181 67.866,430.181 67.674,430.153 67.674C430.153 67.674,430.153 67.674,430.126 67.674C429.798 67.756,428.785 68.003,428.703 68.003C428.457 68.003,428.238 67.866,428.156 67.647C428.129 67.592,428.129 66.936,428.129 66.306C428.129 65.677,428.129 65.048,428.156 64.966C428.265 64.72,428.32 64.692,429.36 64.446L430.181 64.254L430.181 60.698C430.181 57.168,430.181 57.141,430.208 57.059C430.29 56.812,430.509 56.703,430.728 56.703C430.865 56.703,431.029 56.758,431.138 56.867C431.275 57.004,431.302 56.758,431.302 58.947C431.302 59.384,431.302 59.904,431.302 60.561C431.302 62.421,431.302 63.953,431.302 63.953C431.302 63.953,431.85 63.817,432.506 63.68C433.19 63.516,433.737 63.379,433.737 63.379C433.737 63.379,433.737 61.737,433.737 59.74C433.737 56.128,433.737 56.101,433.792 55.992C433.82 55.882,433.956 55.745,434.093 55.691M433.737 69.699C433.737 67.401,433.737 66.799,433.737 66.799L433.737 66.799C433.71 66.799,433.519 66.826,433.3 66.908C433.081 66.963,432.534 67.072,432.096 67.182L431.302 67.401L431.302 70.301C431.302 71.915,431.302 73.228,431.302 73.228C431.302 73.228,431.85 73.092,432.506 72.928C433.19 72.763,433.737 72.627,433.737 72.627C433.737 72.627,433.737 71.313,433.737 69.699"/></g><g class="vf-notehead" id="vf-auto28269" pointer-events="bounding-box"><path stroke="none" d="M447.848 44.889C447.932 44.889,448.016 44.889,448.156 44.889C448.521 44.889,449.055 44.918,449.252 44.946C451.582 45.283,452.733 46.827,452.733 48.624C452.733 50.534,451.442 52.724,448.858 54.128C447.595 54.802,446.303 55.111,445.124 55.111C442.962 55.111,441.193 54.044,440.828 52.162C440.771 51.881,440.743 51.629,440.743 51.376C440.743 48.343,444.001 45.283,447.848 44.889"/><path stroke="none" d="M422.229 35.691C422.283 35.663,422.365 35.636,422.447 35.636C422.666 35.636,422.885 35.773,422.967 35.992C422.995 36.101,422.995 36.128,422.995 39.603C422.995 42.859,422.995 43.078,423.049 43.078C423.049 43.078,423.049 43.078,423.049 43.078C423.35 42.996,424.472 42.75,424.554 42.75C424.8 42.75,424.992 42.886,425.074 43.078C425.101 43.16,425.129 43.789,425.129 44.419C425.129 45.048,425.101 45.677,425.074 45.759C424.992 46.033,424.937 46.033,423.843 46.306L422.995 46.525L422.995 49.425C422.995 52.134,422.995 52.353,423.022 52.353C423.049 52.353,423.049 52.353,423.049 52.353C423.35 52.244,424.472 51.997,424.554 51.997C424.718 51.997,424.828 52.052,424.965 52.161C425.101 52.326,425.101 52.271,425.101 53.311C425.101 53.42,425.101 53.557,425.101 53.694C425.101 53.83,425.101 53.94,425.101 54.049C425.101 55.116,425.101 55.062,424.965 55.198C424.828 55.335,424.828 55.335,423.843 55.581L422.995 55.773L422.995 59.33C422.995 62.832,422.995 62.859,422.967 62.941C422.885 63.188,422.666 63.297,422.447 63.297C422.311 63.297,422.146 63.242,422.037 63.133C421.9 62.996,421.873 63.242,421.873 61.053C421.873 60.616,421.873 60.096,421.873 59.467C421.873 57.579,421.873 56.047,421.873 56.047C421.873 56.047,421.326 56.183,420.669 56.348C419.985 56.512,419.438 56.648,419.438 56.648C419.438 56.648,419.438 58.29,419.438 60.287C419.438 63.872,419.438 63.899,419.383 64.008C419.301 64.227,419.082 64.364,418.863 64.364C418.726 64.364,418.562 64.309,418.453 64.2C418.316 64.036,418.316 64.282,418.316 62.066C418.316 61.628,418.316 61.081,418.316 60.424C418.316 57.168,418.316 56.949,418.289 56.949C418.289 56.949,418.289 56.949,418.261 56.949C417.933 57.032,416.921 57.25,416.839 57.25C416.592 57.25,416.373 57.114,416.291 56.922C416.264 56.84,416.264 56.211,416.264 55.581C416.264 54.952,416.264 54.323,416.291 54.241C416.401 53.995,416.456 53.967,417.495 53.694L418.316 53.502L418.316 50.575C418.316 47.866,418.316 47.674,418.289 47.674C418.289 47.674,418.289 47.674,418.261 47.674C417.933 47.756,416.921 48.003,416.839 48.003C416.592 48.003,416.373 47.866,416.291 47.647C416.264 47.592,416.264 46.936,416.264 46.306C416.264 45.677,416.264 45.048,416.291 44.966C416.401 44.72,416.456 44.692,417.495 44.446L418.316 44.254L418.316 40.698C418.316 37.168,418.316 37.141,418.343 37.059C418.425 36.812,418.644 36.703,418.863 36.703C419 36.703,419.164 36.758,419.274 36.867C419.41 37.004,419.438 36.758,419.438 38.947C419.438 39.384,419.438 39.904,419.438 40.561C419.438 42.421,419.438 43.953,419.438 43.953C419.438 43.953,419.985 43.817,420.642 43.68C421.326 43.516,421.873 43.379,421.873 43.379C421.873 43.379,421.873 41.737,421.873 39.74C421.873 36.128,421.873 36.101,421.928 35.992C421.955 35.882,422.092 35.745,422.229 35.691M421.873 49.699C421.873 47.401,421.873 46.799,421.873 46.799L421.873 46.799C421.845 46.799,421.654 46.826,421.435 46.908C421.216 46.963,420.669 47.072,420.231 47.182L419.438 47.401L419.438 50.301C419.438 51.915,419.438 53.228,419.438 53.228C419.438 53.228,419.985 53.092,420.642 52.928C421.326 52.763,421.873 52.627,421.873 52.627C421.873 52.627,421.873 51.313,421.873 49.699"/></g><g class="vf-notehead" id="vf-auto28268" pointer-events="bounding-box"><path stroke="none" d="M459.088 39.889C459.172 39.889,459.256 39.889,459.397 39.889C459.762 39.889,460.295 39.918,460.492 39.946C462.822 40.283,463.974 41.827,463.974 43.624C463.974 45.534,462.682 47.724,460.099 49.128C458.835 49.802,457.543 50.111,456.364 50.111C454.202 50.111,452.433 49.044,452.068 47.162C452.012 46.881,451.983 46.629,451.983 46.376C451.983 43.343,455.241 40.283,459.088 39.889"/><path stroke="none" d="M410.364 30.691C410.419 30.663,410.501 30.636,410.583 30.636C410.802 30.636,411.021 30.773,411.103 30.992C411.13 31.101,411.13 31.128,411.13 34.603C411.13 37.859,411.13 38.078,411.185 38.078C411.185 38.078,411.185 38.078,411.185 38.078C411.486 37.996,412.607 37.75,412.689 37.75C412.936 37.75,413.127 37.886,413.209 38.078C413.237 38.16,413.264 38.789,413.264 39.419C413.264 40.048,413.237 40.677,413.209 40.759C413.127 41.033,413.073 41.033,411.978 41.306L411.13 41.525L411.13 44.425C411.13 47.134,411.13 47.353,411.157 47.353C411.185 47.353,411.185 47.353,411.185 47.353C411.486 47.244,412.607 46.997,412.689 46.997C412.854 46.997,412.963 47.052,413.1 47.161C413.237 47.326,413.237 47.271,413.237 48.311C413.237 48.42,413.237 48.557,413.237 48.694C413.237 48.83,413.237 48.94,413.237 49.049C413.237 50.116,413.237 50.062,413.1 50.198C412.963 50.335,412.963 50.335,411.978 50.581L411.13 50.773L411.13 54.33C411.13 57.832,411.13 57.859,411.103 57.941C411.021 58.188,410.802 58.297,410.583 58.297C410.446 58.297,410.282 58.242,410.172 58.133C410.036 57.996,410.008 58.242,410.008 56.053C410.008 55.616,410.008 55.096,410.008 54.467C410.008 52.579,410.008 51.047,410.008 51.047C410.008 51.047,409.461 51.183,408.804 51.348C408.12 51.512,407.573 51.648,407.573 51.648C407.573 51.648,407.573 53.29,407.573 55.287C407.573 58.872,407.573 58.899,407.518 59.008C407.436 59.227,407.217 59.364,406.999 59.364C406.862 59.364,406.698 59.309,406.588 59.2C406.451 59.036,406.451 59.282,406.451 57.066C406.451 56.628,406.451 56.081,406.451 55.424C406.451 52.168,406.451 51.949,406.424 51.949C406.424 51.949,406.424 51.949,406.397 51.949C406.068 52.032,405.056 52.25,404.974 52.25C404.728 52.25,404.509 52.114,404.427 51.922C404.399 51.84,404.399 51.211,404.399 50.581C404.399 49.952,404.399 49.323,404.427 49.241C404.536 48.995,404.591 48.967,405.631 48.694L406.451 48.502L406.451 45.575C406.451 42.866,406.451 42.674,406.424 42.674C406.424 42.674,406.424 42.674,406.397 42.674C406.068 42.756,405.056 43.003,404.974 43.003C404.728 43.003,404.509 42.866,404.427 42.647C404.399 42.592,404.399 41.936,404.399 41.306C404.399 40.677,404.399 40.048,404.427 39.966C404.536 39.72,404.591 39.692,405.631 39.446L406.451 39.254L406.451 35.698C406.451 32.168,406.451 32.141,406.479 32.059C406.561 31.812,406.78 31.703,406.999 31.703C407.135 31.703,407.3 31.758,407.409 31.867C407.546 32.004,407.573 31.758,407.573 33.947C407.573 34.384,407.573 34.904,407.573 35.561C407.573 37.421,407.573 38.953,407.573 38.953C407.573 38.953,408.12 38.817,408.777 38.68C409.461 38.516,410.008 38.379,410.008 38.379C410.008 38.379,410.008 36.737,410.008 34.74C410.008 31.128,410.008 31.101,410.063 30.992C410.09 30.882,410.227 30.745,410.364 30.691M410.008 44.699C410.008 42.401,410.008 41.799,410.008 41.799L410.008 41.799C409.981 41.799,409.789 41.826,409.57 41.908C409.352 41.963,408.804 42.072,408.367 42.182L407.573 42.401L407.573 45.301C407.573 46.915,407.573 48.228,407.573 48.228C407.573 48.228,408.12 48.092,408.777 47.928C409.461 47.763,410.008 47.627,410.008 47.627C410.008 47.627,410.008 46.313,410.008 44.699"/></g><g class="vf-notehead" id="vf-auto28267" pointer-events="bounding-box"><path stroke="none" d="M459.088 29.889C459.172 29.889,459.256 29.889,459.397 29.889C459.762 29.889,460.295 29.918,460.492 29.946C462.822 30.283,463.974 31.827,463.974 33.624C463.974 35.534,462.682 37.724,460.099 39.128C458.835 39.802,457.543 40.111,456.364 40.111C454.202 40.111,452.433 39.044,452.068 37.162C452.012 36.881,451.983 36.629,451.983 36.376C451.983 33.343,455.241 30.283,459.088 29.889"/><path stroke="none" d="M434.093 20.691C434.148 20.663,434.23 20.636,434.312 20.636C434.531 20.636,434.75 20.773,434.832 20.992C434.859 21.101,434.859 21.128,434.859 24.603C434.859 27.859,434.859 28.078,434.914 28.078C434.914 28.078,434.914 28.078,434.914 28.078C435.215 27.996,436.337 27.75,436.419 27.75C436.665 27.75,436.857 27.886,436.939 28.078C436.966 28.16,436.993 28.789,436.993 29.419C436.993 30.048,436.966 30.677,436.939 30.759C436.857 31.033,436.802 31.033,435.707 31.306L434.859 31.525L434.859 34.425C434.859 37.134,434.859 37.353,434.887 37.353C434.914 37.353,434.914 37.353,434.914 37.353C435.215 37.244,436.337 36.997,436.419 36.997C436.583 36.997,436.692 37.052,436.829 37.161C436.966 37.326,436.966 37.271,436.966 38.311C436.966 38.42,436.966 38.557,436.966 38.694C436.966 38.83,436.966 38.94,436.966 39.049C436.966 40.116,436.966 40.062,436.829 40.198C436.692 40.335,436.692 40.335,435.707 40.581L434.859 40.773L434.859 44.33C434.859 47.832,434.859 47.859,434.832 47.941C434.75 48.188,434.531 48.297,434.312 48.297C434.175 48.297,434.011 48.242,433.902 48.133C433.765 47.996,433.737 48.242,433.737 46.053C433.737 45.616,433.737 45.096,433.737 44.467C433.737 42.579,433.737 41.047,433.737 41.047C433.737 41.047,433.19 41.183,432.534 41.348C431.85 41.512,431.302 41.648,431.302 41.648C431.302 41.648,431.302 43.29,431.302 45.287C431.302 48.872,431.302 48.899,431.248 49.008C431.166 49.227,430.947 49.364,430.728 49.364C430.591 49.364,430.427 49.309,430.317 49.2C430.181 49.036,430.181 49.282,430.181 47.066C430.181 46.628,430.181 46.081,430.181 45.424C430.181 42.168,430.181 41.949,430.153 41.949C430.153 41.949,430.153 41.949,430.126 41.949C429.798 42.032,428.785 42.25,428.703 42.25C428.457 42.25,428.238 42.114,428.156 41.922C428.129 41.84,428.129 41.211,428.129 40.581C428.129 39.952,428.129 39.323,428.156 39.241C428.265 38.995,428.32 38.967,429.36 38.694L430.181 38.502L430.181 35.575C430.181 32.866,430.181 32.674,430.153 32.674C430.153 32.674,430.153 32.674,430.126 32.674C429.798 32.756,428.785 33.003,428.703 33.003C428.457 33.003,428.238 32.866,428.156 32.647C428.129 32.592,428.129 31.936,428.129 31.306C428.129 30.677,428.129 30.048,428.156 29.966C428.265 29.72,428.32 29.692,429.36 29.446L430.181 29.254L430.181 25.698C430.181 22.168,430.181 22.141,430.208 22.059C430.29 21.812,430.509 21.703,430.728 21.703C430.865 21.703,431.029 21.758,431.138 21.867C431.275 22.004,431.302 21.758,431.302 23.947C431.302 24.384,431.302 24.904,431.302 25.561C431.302 27.421,431.302 28.953,431.302 28.953C431.302 28.953,431.85 28.817,432.506 28.68C433.19 28.516,433.737 28.379,433.737 28.379C433.737 28.379,433.737 26.737,433.737 24.74C433.737 21.128,433.737 21.101,433.792 20.992C433.82 20.882,433.956 20.745,434.093 20.691M433.737 34.699C433.737 32.401,433.737 31.799,433.737 31.799L433.737 31.799C433.71 31.799,433.519 31.826,433.3 31.908C433.081 31.963,432.534 32.072,432.096 32.182L431.302 32.401L431.302 35.301C431.302 36.915,431.302 38.228,431.302 38.228C431.302 38.228,431.85 38.092,432.506 37.928C433.19 37.763,433.737 37.627,433.737 37.627C433.737 37.627,433.737 36.313,433.737 34.699"/></g></g></svg>