<svg xmlns="http://www.w3.org/2000/svg" stroke-width="0.3" stroke-dasharray="none" fill="black" stroke="black" font-family="Arial, sans-serif" font-size="10pt" font-weight="normal" font-style="normal" width="600" height="200" viewBox="0 0 600 200" style="width: 600px; height: 200px; border: none;"><g class="vf-stave" id="vf-auto8564" stroke-width="1" fill="#999999" stroke="#999999"><path fill="none" d="M0 60L590 60"/><path fill="none" d="M0 70L590 70"/><path fill="none" d="M0 80L590 80"/><path fill="none" d="M0 90L590 90"/><path fill="none" d="M0 100L590 100"/></g><g class="vf-stavebarline" id="vf-auto8565"><rect y="59.5" width="1" height="41" stroke="none"/></g><g class="vf-stavebarline" id="vf-auto8566"><rect x="590" y="59.5" width="1" height="41" stroke="none"/></g><g class="vf-stavenote" id="vf-auto8567"><g class="vf-notehead" id="vf-auto8573" pointer-events="bounding-box"><path stroke="none" d="M24.104 54.889C24.188 54.889,24.273 54.889,24.413 54.889C24.778 54.889,25.312 54.918,25.508 54.946C27.839 55.283,28.99 56.827,28.99 58.624C28.99 60.534,27.698 62.724,25.115 64.128C23.852 64.802,22.56 65.111,21.38 65.111C19.218 65.111,17.449 64.044,17.084 62.162C17.028 61.881,17 61.629,17 61.376C17 58.343,20.257 55.283,24.104 54.889"/><path stroke="none" d="M35.99 55 A2 2 0 0 0 31.99 55 A2 2 0 0 0 35.99 55"/></g></g><g class="vf-stavenote" id="vf-auto8576"><g class="vf-notehead" id="vf-auto8582" pointer-events="bounding-box"><path stroke="none" d="M100.666 54.889C100.751 54.889,100.835 54.889,100.975 54.889C101.34 54.889,101.874 54.918,102.07 54.946C104.401 55.283,105.552 56.827,105.552 58.624C105.552 60.534,104.261 62.724,101.677 64.128C100.414 64.802,99.122 65.111,97.943 65.111C95.78 65.111,94.011 64.044,93.646 62.162C93.59 61.881,93.562 61.629,93.562 61.376C93.562 58.343,96.819 55.283,100.666 54.889"/></g></g><g class="vf-stavenote" id="vf-auto8584"><g class="vf-notehead" id="vf-auto8590" pointer-events="bounding-box"><path stroke="none" d="M136.53 69.889C136.614 69.889,136.698 69.889,136.839 69.889C137.204 69.889,137.737 69.918,137.934 69.946C140.265 70.283,141.416 71.827,141.416 73.624C141.416 75.534,140.124 77.724,137.541 79.128C136.277 79.802,134.986 80.111,133.806 80.111C131.644 80.111,129.875 79.044,129.51 77.162C129.454 76.881,129.426 76.629,129.426 76.376C129.426 73.343,132.683 70.283,136.53 69.889"/><path stroke="none" d="M148.416 75 A2 2 0 0 0 144.416 75 A2 2 0 0 0 148.416 75"/></g></g><g class="vf-stavenote" id="vf-auto8593"><g class="vf-notehead" id="vf-auto8599" pointer-events="bounding-box"><path stroke="none" d="M213.092 64.889C213.176 64.889,213.261 64.889,213.401 64.889C213.766 64.889,214.3 64.918,214.496 64.946C216.827 65.283,217.978 66.827,217.978 68.624C217.978 70.534,216.686 72.724,214.103 74.128C212.839 74.802,211.548 75.111,210.368 75.111C208.206 75.111,206.437 74.044,206.072 72.162C206.016 71.881,205.988 71.629,205.988 71.376C205.988 68.343,209.245 65.283,213.092 64.889"/></g></g><g class="vf-stavenote" id="vf-auto8601"><g class="vf-notehead" id="vf-auto8607" pointer-events="bounding-box"><path stroke="none" d="M248.956 69.889C249.04 69.889,249.124 69.889,249.265 69.889C249.63 69.889,250.163 69.918,250.36 69.946C252.69 70.283,253.842 71.827,253.842 73.624C253.842 75.534,252.55 77.724,249.967 79.128C248.703 79.802,247.411 80.111,246.232 80.111C244.07 80.111,242.301 79.044,241.936 77.162C241.88 76.881,241.852 76.629,241.852 76.376C241.852 73.343,245.109 70.283,248.956 69.889"/><path stroke="none" d="M260.842 75 A2 2 0 0 0 256.842 75 A2 2 0 0 0 260.842 75"/></g></g><g class="vf-stavenote" id="vf-auto8610"><g class="vf-notehead" id="vf-auto8616" pointer-events="bounding-box"><path stroke="none" d="M325.518 64.889C325.602 64.889,325.686 64.889,325.827 64.889C326.192 64.889,326.725 64.918,326.922 64.946C329.252 65.283,330.404 66.827,330.404 68.624C330.404 70.534,329.112 72.724,326.529 74.128C325.265 74.802,323.973 75.111,322.794 75.111C320.632 75.111,318.863 74.044,318.498 72.162C318.442 71.881,318.414 71.629,318.414 71.376C318.414 68.343,321.671 65.283,325.518 64.889"/></g></g><g class="vf-stavenote" id="vf-auto8619"><g class="vf-notehead" id="vf-auto8625" pointer-events="bounding-box"><path stroke="none" d="M361.382 54.889C361.466 54.889,361.55 54.889,361.69 54.889C362.055 54.889,362.589 54.918,362.786 54.946C365.116 55.283,366.267 56.827,366.267 58.624C366.267 60.534,364.976 62.724,362.392 64.128C361.129 64.802,359.837 65.111,358.658 65.111C356.496 65.111,354.727 64.044,354.362 62.162C354.305 61.881,354.277 61.629,354.277 61.376C354.277 58.343,357.535 55.283,361.382 54.889"/></g></g><g class="vf-stavenote" id="vf-auto8627"><g class="vf-notehead" id="vf-auto8633" pointer-events="bounding-box"><path stroke="none" d="M400.857 59.889C400.941 59.889,401.025 59.889,401.165 59.889C401.531 59.889,402.064 59.918,402.261 59.946C404.591 60.283,405.743 61.827,405.743 63.624C405.743 65.534,404.451 67.724,401.867 69.128C400.604 69.802,399.312 70.111,398.133 70.111C395.971 70.111,394.202 69.044,393.837 67.162C393.78 66.881,393.752 66.629,393.752 66.376C393.752 63.343,397.01 60.283,400.857 59.889"/></g></g><g class="vf-stavenote" id="vf-auto8635"><g class="vf-notehead" id="vf-auto8641" pointer-events="bounding-box"><path stroke="none" d="M440.332 59.889C440.416 59.889,440.5 59.889,440.64 59.889C441.006 59.889,441.539 59.918,441.736 59.946C444.066 60.283,445.218 61.827,445.218 63.624C445.218 65.534,443.926 67.724,441.342 69.128C440.079 69.802,438.787 70.111,437.608 70.111C435.446 70.111,433.677 69.044,433.312 67.162C433.255 66.881,433.227 66.629,433.227 66.376C433.227 63.343,436.485 60.283,440.332 59.889"/></g></g><g class="vf-stavenote" id="vf-auto8643"><g class="vf-notehead" id="vf-auto8649" pointer-events="bounding-box"><path stroke="none" d="M479.807 59.889C479.891 59.889,479.975 59.889,480.115 59.889C480.481 59.889,481.014 59.918,481.211 59.946C483.541 60.283,484.693 61.827,484.693 63.624C484.693 65.534,483.401 67.724,480.817 69.128C479.554 69.802,478.262 70.111,477.083 70.111C474.921 70.111,473.152 69.044,472.787 67.162C472.73 66.881,472.702 66.629,472.702 66.376C472.702 63.343,475.96 60.283,479.807 59.889"/></g></g><g class="vf-stavenote" id="vf-auto8651"><g class="vf-notehead" id="vf-auto8657" pointer-events="bounding-box"><path stroke="none" d="M519.282 59.889C519.366 59.889,519.45 59.889,519.59 59.889C519.956 59.889,520.489 59.918,520.686 59.946C523.016 60.283,524.168 61.827,524.168 63.624C524.168 65.534,522.876 67.724,520.292 69.128C519.029 69.802,517.737 70.111,516.558 70.111C514.396 70.111,512.627 69.044,512.262 67.162C512.205 66.881,512.177 66.629,512.177 66.376C512.177 63.343,515.435 60.283,519.282 59.889"/></g></g><g class="vf-stavenote" id="vf-auto8659"><g class="vf-notehead" id="vf-auto8665" pointer-events="bounding-box"><path stroke="none" d="M558.757 59.889C558.841 59.889,558.925 59.889,559.065 59.889C559.431 59.889,559.964 59.918,560.161 59.946C562.491 60.283,563.643 61.827,563.643 63.624C563.643 65.534,562.351 67.724,559.767 69.128C558.504 69.802,557.212 70.111,556.033 70.111C553.871 70.111,552.102 69.044,551.737 67.162C551.68 66.881,551.652 66.629,551.652 66.376C551.652 63.343,554.91 60.283,558.757 59.889"/></g></g><g class="vf-stavenote" id="vf-auto8669"><g class="vf-notehead" id="vf-auto8675" pointer-events="bounding-box"><path stroke="none" d="M24.104 89.889C24.188 89.889,24.273 89.889,24.413 89.889C24.778 89.889,25.312 89.918,25.508 89.946C27.839 90.283,28.99 91.827,28.99 93.624C28.99 95.534,27.698 97.724,25.115 99.128C23.852 99.802,22.56 100.111,21.38 100.111C19.218 100.111,17.449 99.044,17.084 97.162C17.028 96.881,17 96.629,17 96.376C17 93.343,20.257 90.283,24.104 89.889"/></g></g><g class="vf-stavenote" id="vf-auto8677"><g class="vf-notehead" id="vf-auto8683" pointer-events="bounding-box"><path stroke="none" d="M49.625 99.889C49.709 99.889,49.793 99.889,49.934 99.889C50.299 99.889,50.832 99.918,51.029 99.946C53.36 100.283,54.511 101.827,54.511 103.624C54.511 105.534,53.219 107.724,50.636 109.128C49.372 109.802,48.081 110.111,46.901 110.111C44.739 110.111,42.97 109.044,42.605 107.162C42.549 106.881,42.521 106.629,42.521 106.376C42.521 103.343,45.778 100.283,49.625 99.889"/></g></g><g class="vf-stavenote" id="vf-auto8685"><g class="vf-notehead" id="vf-auto8691" pointer-events="bounding-box"><path stroke="none" d="M75.146 94.889C75.23 94.889,75.314 94.889,75.454 94.889C75.82 94.889,76.353 94.918,76.55 94.946C78.88 95.283,80.032 96.827,80.032 98.624C80.032 100.534,78.74 102.724,76.156 104.128C74.893 104.802,73.601 105.111,72.422 105.111C70.26 105.111,68.491 104.044,68.126 102.162C68.069 101.881,68.041 101.629,68.041 101.376C68.041 98.343,71.299 95.283,75.146 94.889"/></g></g><g class="vf-stavenote" id="vf-auto8693"><path stroke-width="1.4" fill="none" stroke="#444" d="M90.562 110L108.552 110"/><g class="vf-notehead" id="vf-auto8699" pointer-events="bounding-box"><path stroke="none" d="M100.666 104.889C100.751 104.889,100.835 104.889,100.975 104.889C101.34 104.889,101.874 104.918,102.07 104.946C104.401 105.283,105.552 106.827,105.552 108.624C105.552 110.534,104.261 112.724,101.677 114.128C100.414 114.802,99.122 115.111,97.943 115.111C95.78 115.111,94.011 114.044,93.646 112.162C93.59 111.881,93.562 111.629,93.562 111.376C93.562 108.343,96.819 105.283,100.666 104.889"/></g></g><g class="vf-stavenote" id="vf-auto8701"><g class="vf-notehead" id="vf-auto8707" pointer-events="bounding-box"><path stroke="none" d="M136.53 99.889C136.614 99.889,136.698 99.889,136.839 99.889C137.204 99.889,137.737 99.918,137.934 99.946C140.265 100.283,141.416 101.827,141.416 103.624C141.416 105.534,140.124 107.724,137.541 109.128C136.277 109.802,134.986 110.111,133.806 110.111C131.644 110.111,129.875 109.044,129.51 107.162C129.454 106.881,129.426 106.629,129.426 106.376C129.426 103.343,132.683 100.283,136.53 99.889"/></g></g><g class="vf-stavenote" id="vf-auto8709"><path stroke-width="1.4" fill="none" stroke="#444" d="M151.946 110L169.937 110"/><g class="vf-notehead" id="vf-auto8715" pointer-events="bounding-box"><path stroke="none" d="M162.051 104.889C162.135 104.889,162.219 104.889,162.36 104.889C162.725 104.889,163.258 104.918,163.455 104.946C165.785 105.283,166.937 106.827,166.937 108.624C166.937 110.534,165.645 112.724,163.062 114.128C161.798 114.802,160.506 115.111,159.327 115.111C157.165 115.111,155.396 114.044,155.031 112.162C154.975 111.881,154.946 111.629,154.946 111.376C154.946 108.343,158.204 105.283,162.051 104.889"/></g></g><g class="vf-stavenote" id="vf-auto8717"><g class="vf-notehead" id="vf-auto8723" pointer-events="bounding-box"><path stroke="none" d="M187.571 89.889C187.656 89.889,187.74 89.889,187.88 89.889C188.245 89.889,188.779 89.918,188.975 89.946C191.306 90.283,192.457 91.827,192.457 93.624C192.457 95.534,191.166 97.724,188.582 99.128C187.319 99.802,186.027 100.111,184.848 100.111C182.685 100.111,180.916 99.044,180.551 97.162C180.495 96.881,180.467 96.629,180.467 96.376C180.467 93.343,183.724 90.283,187.571 89.889"/></g></g><g class="vf-stavenote" id="vf-auto8725"><g class="vf-notehead" id="vf-auto8731" pointer-events="bounding-box"><path stroke="none" d="M213.092 99.889C213.176 99.889,213.261 99.889,213.401 99.889C213.766 99.889,214.3 99.918,214.496 99.946C216.827 100.283,217.978 101.827,217.978 103.624C217.978 105.534,216.686 107.724,214.103 109.128C212.839 109.802,211.548 110.111,210.368 110.111C208.206 110.111,206.437 109.044,206.072 107.162C206.016 106.881,205.988 106.629,205.988 106.376C205.988 103.343,209.245 100.283,213.092 99.889"/></g></g><g class="vf-stavenote" id="vf-auto8733"><g class="vf-notehead" id="vf-auto8739" pointer-events="bounding-box"><path stroke="none" d="M248.956 94.889C249.04 94.889,249.124 94.889,249.265 94.889C249.63 94.889,250.163 94.918,250.36 94.946C252.69 95.283,253.842 96.827,253.842 98.624C253.842 100.534,252.55 102.724,249.967 104.128C248.703 104.802,247.411 105.111,246.232 105.111C244.07 105.111,242.301 104.044,241.936 102.162C241.88 101.881,241.852 101.629,241.852 101.376C241.852 98.343,245.109 95.283,248.956 94.889"/></g></g><g class="vf-stavenote" id="vf-auto8741"><path stroke-width="1.4" fill="none" stroke="#444" d="M264.372 110L282.362 110"/><g class="vf-notehead" id="vf-auto8747" pointer-events="bounding-box"><path stroke="none" d="M274.476 104.889C274.561 104.889,274.645 104.889,274.785 104.889C275.15 104.889,275.684 104.918,275.88 104.946C278.211 105.283,279.362 106.827,279.362 108.624C279.362 110.534,278.071 112.724,275.487 114.128C274.224 114.802,272.932 115.111,271.753 115.111C269.591 115.111,267.822 114.044,267.456 112.162C267.4 111.881,267.372 111.629,267.372 111.376C267.372 108.343,270.63 105.283,274.476 104.889"/></g></g><g class="vf-stavenote" id="vf-auto8749"><path stroke-width="1.4" fill="none" stroke="#444" d="M289.893 110L307.883 110"/><g class="vf-notehead" id="vf-auto8755" pointer-events="bounding-box"><path stroke="none" d="M299.997 104.889C300.081 104.889,300.166 104.889,300.306 104.889C300.671 104.889,301.205 104.918,301.401 104.946C303.732 105.283,304.883 106.827,304.883 108.624C304.883 110.534,303.591 112.724,301.008 114.128C299.744 114.802,298.453 115.111,297.273 115.111C295.111 115.111,293.342 114.044,292.977 112.162C292.921 111.881,292.893 111.629,292.893 111.376C292.893 108.343,296.15 105.283,299.997 104.889"/></g></g><g class="vf-stavenote" id="vf-auto8757"><g class="vf-notehead" id="vf-auto8763" pointer-events="bounding-box"><path stroke="none" d="M325.518 99.889C325.602 99.889,325.686 99.889,325.827 99.889C326.192 99.889,326.725 99.918,326.922 99.946C329.252 100.283,330.404 101.827,330.404 103.624C330.404 105.534,329.112 107.724,326.529 109.128C325.265 109.802,323.973 110.111,322.794 110.111C320.632 110.111,318.863 109.044,318.498 107.162C318.442 106.881,318.414 106.629,318.414 106.376C318.414 103.343,321.671 100.283,325.518 99.889"/></g></g><g class="vf-stavenote" id="vf-auto8766"><g class="vf-notehead" id="vf-auto8772" pointer-events="bounding-box"><path stroke="none" d="M361.382 99.889C361.466 99.889,361.55 99.889,361.69 99.889C362.055 99.889,362.589 99.918,362.786 99.946C365.116 100.283,366.267 101.827,366.267 103.624C366.267 105.534,364.976 107.724,362.392 109.128C361.129 109.802,359.837 110.111,358.658 110.111C356.496 110.111,354.727 109.044,354.362 107.162C354.305 106.881,354.277 106.629,354.277 106.376C354.277 103.343,357.535 100.283,361.382 99.889"/></g></g><g class="vf-stavenote" id="vf-auto8774"><g class="vf-notehead" id="vf-auto8780" pointer-events="bounding-box"><path stroke="none" d="M400.857 89.889C400.941 89.889,401.025 89.889,401.165 89.889C401.531 89.889,402.064 89.918,402.261 89.946C404.591 90.283,405.743 91.827,405.743 93.624C405.743 95.534,404.451 97.724,401.867 99.128C400.604 99.802,399.312 100.111,398.133 100.111C395.971 100.111,394.202 99.044,393.837 97.162C393.78 96.881,393.752 96.629,393.752 96.376C393.752 93.343,397.01 90.283,400.857 89.889"/></g></g><g class="vf-stavenote" id="vf-auto8782"><g class="vf-notehead" id="vf-auto8788" pointer-events="bounding-box"><path stroke="none" d="M440.332 99.889C440.416 99.889,440.5 99.889,440.64 99.889C441.006 99.889,441.539 99.918,441.736 99.946C444.066 100.283,445.218 101.827,445.218 103.624C445.218 105.534,443.926 107.724,441.342 109.128C440.079 109.802,438.787 110.111,437.608 110.111C435.446 110.111,433.677 109.044,433.312 107.162C433.255 106.881,433.227 106.629,433.227 106.376C433.227 103.343,436.485 100.283,440.332 99.889"/></g></g><g class="vf-stavenote" id="vf-auto8790"><g class="vf-notehead" id="vf-auto8796" pointer-events="bounding-box"><path stroke="none" d="M479.807 94.889C479.891 94.889,479.975 94.889,480.115 94.889C480.481 94.889,481.014 94.918,481.211 94.946C483.541 95.283,484.693 96.827,484.693 98.624C484.693 100.534,483.401 102.724,480.817 104.128C479.554 104.802,478.262 105.111,477.083 105.111C474.921 105.111,473.152 104.044,472.787 102.162C472.73 101.881,472.702 101.629,472.702 101.376C472.702 98.343,475.96 95.283,479.807 94.889"/></g></g><g class="vf-stavenote" id="vf-auto8798"><g class="vf-notehead" id="vf-auto8804" pointer-events="bounding-box"><path stroke="none" d="M519.282 94.889C519.366 94.889,519.45 94.889,519.59 94.889C519.956 94.889,520.489 94.918,520.686 94.946C523.016 95.283,524.168 96.827,524.168 98.624C524.168 100.534,522.876 102.724,520.292 104.128C519.029 104.802,517.737 105.111,516.558 105.111C514.396 105.111,512.627 104.044,512.262 102.162C512.205 101.881,512.177 101.629,512.177 101.376C512.177 98.343,515.435 95.283,519.282 94.889"/></g></g><g class="vf-stavenote" id="vf-auto8806"><g class="vf-notehead" id="vf-auto8812" pointer-events="bounding-box"><path stroke="none" d="M558.757 94.889C558.841 94.889,558.925 94.889,559.065 94.889C559.431 94.889,559.964 94.918,560.161 94.946C562.491 95.283,563.643 96.827,563.643 98.624C563.643 100.534,562.351 102.724,559.767 104.128C558.504 104.802,557.212 105.111,556.033 105.111C553.871 105.111,552.102 104.044,551.737 102.162C551.68 101.881,551.652 101.629,551.652 101.376C551.652 98.343,554.91 95.283,558.757 94.889"/></g></g><g class="vf-stem" id="vf-auto8568" pointer-events="bounding-box"><path stroke-width="1.5" fill="none" d="M28.24 58.5L28.24 13.179"/></g><g class="vf-stem" id="vf-auto8577" pointer-events="bounding-box"><path stroke-width="1.5" fill="none" d="M104.802 58.5L104.802 17.007"/></g><g class="vf-stem" id="vf-auto8585" pointer-events="bounding-box"><path stroke-width="1.5" fill="none" d="M140.666 73.5L140.666 18.801"/></g><g class="vf-stem" id="vf-auto8594" pointer-events="bounding-box"><path stroke-width="1.5" fill="none" d="M217.228 68.5L217.228 22.629"/></g><g class="vf-stem" id="vf-auto8602" pointer-events="bounding-box"><path stroke-width="1.5" fill="none" d="M253.092 73.5L253.092 24.422"/></g><g class="vf-stem" id="vf-auto8611" pointer-events="bounding-box"><path stroke-width="1.5" fill="none" d="M329.654 68.5L329.654 28.25"/></g><g class="vf-beam" id="vf-auto8618"><path stroke="none" d="M27.49 12.392L27.49 17.392L329.904 32.463L329.904 27.463Z"/><path stroke="none" d="M27.49 19.892L27.49 24.892L105.052 28.72L105.052 23.72Z"/><path stroke="none" d="M139.916 25.513L139.916 30.513L217.478 34.341L217.478 29.341Z"/><path stroke="none" d="M252.342 31.134L252.342 36.134L329.904 39.963L329.904 34.963Z"/><path stroke="none" d="M104.052 31.22L104.052 36.22L95.052 35.72L95.052 30.72Z"/><path stroke="none" d="M216.478 36.841L216.478 41.841L207.478 41.341L207.478 36.341Z"/><path stroke="none" d="M328.904 42.463L328.904 47.463L319.904 46.963L319.904 41.963Z"/></g><g class="vf-stem" id="vf-auto8620" pointer-events="bounding-box"><path stroke-width="1.5" fill="none" d="M365.517 58.5L365.517 25.75"/></g><g class="vf-stem" id="vf-auto8628" pointer-events="bounding-box"><path stroke-width="1.5" fill="none" d="M404.993 63.5L404.993 26.737"/></g><g class="vf-stem" id="vf-auto8636" pointer-events="bounding-box"><path stroke-width="1.5" fill="none" d="M444.468 63.5L444.468 27.724"/></g><g class="vf-stem" id="vf-auto8644" pointer-events="bounding-box"><path stroke-width="1.5" fill="none" d="M483.943 63.5L483.943 28.711"/></g><g class="vf-stem" id="vf-auto8652" pointer-events="bounding-box"><path stroke-width="1.5" fill="none" d="M523.418 63.5L523.418 29.698"/></g><g class="vf-stem" id="vf-auto8660" pointer-events="bounding-box"><path stroke-width="1.5" fill="none" d="M562.893 63.5L562.893 30.684"/></g><g class="vf-beam" id="vf-auto8667"><path stroke="none" d="M364.767 24.981L364.767 29.981L563.143 34.916L563.143 29.916Z"/><path stroke="none" d="M364.767 32.481L364.767 37.481L444.718 39.455L444.718 34.455Z"/><path stroke="none" d="M483.193 35.442L483.193 40.442L563.143 42.416L563.143 37.416Z"/></g><g class="vf-stem" id="vf-auto8670" pointer-events="bounding-box"><path stroke-width="1.5" fill="none" d="M17.75 96.5L17.75 151.75"/></g><g class="vf-stem" id="vf-auto8678" pointer-events="bounding-box"><path stroke-width="1.5" fill="none" d="M43.271 106.5L43.271 151.75"/></g><g class="vf-stem" id="vf-auto8686" pointer-events="bounding-box"><path stroke-width="1.5" fill="none" d="M68.791 101.5L68.791 151.75"/></g><g class="vf-stem" id="vf-auto8694" pointer-events="bounding-box"><path stroke-width="1.5" fill="none" d="M94.312 111.5L94.312 151.75"/></g><g class="vf-stem" id="vf-auto8702" pointer-events="bounding-box"><path stroke-width="1.5" fill="none" d="M130.176 106.5L130.176 151.75"/></g><g class="vf-stem" id="vf-auto8710" pointer-events="bounding-box"><path stroke-width="1.5" fill="none" d="M155.696 111.5L155.696 151.75"/></g><g class="vf-stem" id="vf-auto8718" pointer-events="bounding-box"><path stroke-width="1.5" fill="none" d="M181.217 96.5L181.217 151.75"/></g><g class="vf-stem" id="vf-auto8726" pointer-events="bounding-box"><path stroke-width="1.5" fill="none" d="M206.738 106.5L206.738 151.75"/></g><g class="vf-stem" id="vf-auto8734" pointer-events="bounding-box"><path stroke-width="1.5" fill="none" d="M242.602 101.5L242.602 151.75"/></g><g class="vf-stem" id="vf-auto8742" pointer-events="bounding-box"><path stroke-width="1.5" fill="none" d="M268.122 111.5L268.122 151.75"/></g><g class="vf-stem" id="vf-auto8750" pointer-events="bounding-box"><path stroke-width="1.5" fill="none" d="M293.643 111.5L293.643 151.75"/></g><g class="vf-stem" id="vf-auto8758" pointer-events="bounding-box"><path stroke-width="1.5" fill="none" d="M319.164 106.5L319.164 151.75"/></g><g class="vf-beam" id="vf-auto8765"><path stroke="none" d="M17 152.5L17 147.5L319.414 147.5L319.414 152.5Z"/><path stroke="none" d="M17 145L17 140L94.562 140L94.562 145Z"/><path stroke="none" d="M129.426 145L129.426 140L206.988 140L206.988 145Z"/><path stroke="none" d="M241.852 145L241.852 140L319.414 140L319.414 145Z"/><path stroke="none" d="M17 137.5L17 132.5L94.562 132.5L94.562 137.5Z"/><path stroke="none" d="M129.426 137.5L129.426 132.5L206.988 132.5L206.988 137.5Z"/><path stroke="none" d="M241.852 137.5L241.852 132.5L319.414 132.5L319.414 137.5Z"/></g><g class="vf-stem" id="vf-auto8767" pointer-events="bounding-box"><path stroke-width="1.5" fill="none" d="M355.027 106.5L355.027 141.224"/></g><g class="vf-stem" id="vf-auto8775" pointer-events="bounding-box"><path stroke-width="1.5" fill="none" d="M394.502 96.5L394.502 140.237"/></g><g class="vf-stem" id="vf-auto8783" pointer-events="bounding-box"><path stroke-width="1.5" fill="none" d="M433.977 106.5L433.977 139.25"/></g><g class="vf-stem" id="vf-auto8791" pointer-events="bounding-box"><path stroke-width="1.5" fill="none" d="M473.452 101.5L473.452 138.263"/></g><g class="vf-stem" id="vf-auto8799" pointer-events="bounding-box"><path stroke-width="1.5" fill="none" d="M512.927 101.5L512.927 137.276"/></g><g class="vf-stem" id="vf-auto8807" pointer-events="bounding-box"><path stroke-width="1.5" fill="none" d="M552.402 101.5L552.402 136.289"/></g><g class="vf-beam" id="vf-auto8814"><path stroke="none" d="M354.277 141.993L354.277 136.993L552.652 132.058L552.652 137.058Z"/><path stroke="none" d="M354.277 134.493L354.277 129.493L473.702 126.532L473.702 131.532Z"/><path stroke="none" d="M512.177 130.545L512.177 125.545L552.652 124.558L552.652 129.558Z"/></g></svg>