<svg xmlns="http://www.w3.org/2000/svg" stroke-width="0.3" stroke-dasharray="none" fill="black" stroke="black" font-family="Arial, sans-serif" font-size="10pt" font-weight="normal" font-style="normal" width="550" height="140" viewBox="0 0 550 140" style="width: 550px; height: 140px; border: none;"><g class="vf-stave" id="vf-auto7212" stroke-width="1" fill="#999999" stroke="#999999"><path fill="none" d="M10 50L304.172 50"/><path fill="none" d="M10 60L304.172 60"/><path fill="none" d="M10 70L304.172 70"/><path fill="none" d="M10 80L304.172 80"/><path fill="none" d="M10 90L304.172 90"/></g><g class="vf-stavebarline" id="vf-auto7213"/><g class="vf-stavebarline" id="vf-auto7214"><rect x="304.172" y="49.5" width="1" height="41" stroke="none"/></g><g class="vf-stavenote" id="vf-auto7094"><g class="vf-stem" id="vf-auto7095" pointer-events="bounding-box"><path stroke-width="1.5" fill="none" d="M54.995 48L54.995 15"/></g><g class="vf-notehead" id="vf-auto7098" pointer-events="bounding-box"><path stroke="none" d="M42.603 51.685C42.603 53.426,43.867 55.391,47.124 55.391C51.336 55.391,55.745 51.938,55.745 48.371C55.745 45.985,53.723 44.665,51.224 44.665C47.293 44.665,42.603 47.978,42.603 51.685"/><path stroke="none" d="M39.193 45.869C39.412 45.814,39.603 45.54,39.603 45.321L39.603 42.996C39.603 42.668,39.384 42.449,39.056 42.449C39.029 42.449,39.029 42.449,38.974 42.449L37.688 42.722L37.688 36.84L36.566 36.84L36.566 42.941L33.064 43.652L33.064 38.098L31.97 38.098L31.97 43.899L30.438 44.2C30.192 44.254,30 44.528,30 44.747L30 44.829L30 47.127L30 47.045C30 47.373,30.246 47.592,30.547 47.592C30.602 47.592,30.629 47.592,30.657 47.592L31.97 47.319L31.97 53.83L30.438 54.131C30.192 54.186,30 54.46,30 54.679L30 56.977C30 57.278,30.246 57.524,30.547 57.524C30.602 57.524,30.629 57.524,30.657 57.524L31.97 57.25L31.97 63.133L33.064 63.133L33.064 57.004L36.566 56.293L36.566 61.847L37.688 61.847L37.688 56.074L39.193 55.8C39.412 55.746,39.603 55.472,39.603 55.253L39.603 52.928C39.603 52.599,39.384 52.353,39.056 52.353C39.029 52.353,39.029 52.353,38.974 52.353L37.688 52.627L37.688 46.142M33.064 47.072L36.566 46.388L36.566 52.873L33.064 53.612"/></g></g><g class="vf-stavenote" id="vf-auto7101"><g class="vf-stem" id="vf-auto7102" pointer-events="bounding-box"><path stroke-width="1.5" fill="none" d="M82.324 48L82.324 15"/></g><g class="vf-notehead" id="vf-auto7105" pointer-events="bounding-box"><path stroke="none" d="M69.933 51.685C69.933 53.426,71.196 55.391,74.454 55.391C78.666 55.391,83.074 51.938,83.074 48.371C83.074 45.985,81.053 44.665,78.553 44.665C74.622 44.665,69.933 47.978,69.933 51.685"/></g></g><g class="vf-stavenote" id="vf-auto7106"><g class="vf-stem" id="vf-auto7107" pointer-events="bounding-box"><path stroke-width="1.5" fill="none" d="M111.455 58L111.455 25"/></g><g class="vf-notehead" id="vf-auto7110" pointer-events="bounding-box"><path stroke="none" d="M99.063 61.685C99.063 63.426,100.327 65.391,103.584 65.391C107.796 65.391,112.205 61.938,112.205 58.371C112.205 55.985,110.183 54.665,107.684 54.665C103.753 54.665,99.063 57.978,99.063 61.685"/><path stroke="none" d="M95.981 56.881C95.762 55.349,94.805 53.899,92.808 53.899C90.838 53.899,89.689 55.103,89.497 55.349L89.661 42.708C89.661 42.38,89.415 42.161,89.087 42.161L88.621 42.161C88.321 42.161,88.074 42.38,88.074 42.708L88.266 66.375C88.266 66.703,88.512 66.922,88.813 66.922C88.895 66.922,89.059 66.895,89.141 66.867C89.305 66.785,91.85 65.527,93.984 63.119C95.489 61.423,96.063 59.48,96.063 57.866C96.063 57.51,96.036 57.209,95.981 56.881M93.273 58.413C93.273 59.015,93.109 60.821,92.124 62.326C91.467 63.338,90.126 64.405,89.388 65.007L89.497 57.319C89.579 56.963,90.154 55.814,91.741 55.814C93.163 55.814,93.273 57.155,93.273 58.003C93.273 58.194,93.273 58.304,93.273 58.413"/></g></g><g class="vf-stavenote" id="vf-auto7113"><g class="vf-stem" id="vf-auto7114" pointer-events="bounding-box"><path stroke-width="1.5" fill="none" d="M138.784 63L138.784 30"/></g><g class="vf-notehead" id="vf-auto7117" pointer-events="bounding-box"><path stroke="none" d="M126.393 66.685C126.393 68.426,127.657 70.391,130.914 70.391C135.126 70.391,139.534 66.938,139.534 63.371C139.534 60.985,137.513 59.665,135.013 59.665C131.082 59.665,126.393 62.978,126.393 66.685"/></g></g><g class="vf-stavenote" id="vf-auto7118"><g class="vf-notehead" id="vf-auto7124" pointer-events="bounding-box"><path stroke="none" d="M153.722 66.685C153.722 68.426,154.986 70.391,158.243 70.391C162.455 70.391,166.864 66.938,166.864 63.371C166.864 60.985,164.842 59.665,162.343 59.665C158.412 59.665,153.722 62.978,153.722 66.685"/></g></g><g class="vf-stavenote" id="vf-auto7126"><g class="vf-notehead" id="vf-auto7132" pointer-events="bounding-box"><path stroke="none" d="M176.907 61.685C176.907 63.426,178.171 65.391,181.428 65.391C185.64 65.391,190.049 61.938,190.049 58.371C190.049 55.985,188.027 54.665,185.528 54.665C181.597 54.665,176.907 57.978,176.907 61.685"/></g></g><g class="vf-stavenote" id="vf-auto7134"><g class="vf-notehead" id="vf-auto7140" pointer-events="bounding-box"><path stroke="none" d="M204.779 51.685C204.779 53.426,206.043 55.391,209.3 55.391C213.512 55.391,217.921 51.938,217.921 48.371C217.921 45.985,215.899 44.665,213.4 44.665C209.469 44.665,204.779 47.978,204.779 51.685"/><path stroke="none" d="M201.588 42.777C201.506 42.722,201.396 42.668,201.287 42.668C201.232 42.668,201.15 42.722,201.123 42.722L196.143 44.09L196.143 37.196L195.049 37.196L195.049 56.703C195.049 57.004,195.295 57.223,195.596 57.223C195.651 57.223,195.705 57.223,195.76 57.223L200.712 55.828L200.712 62.722L201.779 62.722C201.779 56.183,201.779 49.973,201.779 43.215C201.779 43.078,201.697 42.859,201.588 42.777M196.143 53.83L196.143 47.373L200.712 46.06L200.712 52.572"/></g></g><g class="vf-stavenote" id="vf-auto7144"><g class="vf-notehead" id="vf-auto7150" pointer-events="bounding-box"><path stroke="none" d="M234.755 56.685C234.755 58.426,236.019 60.391,239.276 60.391C243.488 60.391,247.897 56.938,247.897 53.371C247.897 50.985,245.875 49.665,243.376 49.665C239.445 49.665,234.755 52.978,234.755 56.685"/></g></g><g class="vf-stavenote" id="vf-auto7153"><g class="vf-notehead" id="vf-auto7159" pointer-events="bounding-box"><path stroke="none" d="M257.94 61.685C257.94 63.426,259.204 65.391,262.461 65.391C266.673 65.391,271.081 61.938,271.081 58.371C271.081 55.985,269.06 54.665,266.561 54.665C262.629 54.665,257.94 57.978,257.94 61.685"/></g></g><g class="vf-stavenote" id="vf-auto7161"><g class="vf-notehead" id="vf-auto7167" pointer-events="bounding-box"><path stroke="none" d="M281.125 66.685C281.125 68.426,282.388 70.391,285.646 70.391C289.858 70.391,294.266 66.938,294.266 63.371C294.266 60.985,292.244 59.665,289.745 59.665C285.814 59.665,281.125 62.978,281.125 66.685"/></g></g><g class="vf-stavenote" id="vf-auto7172"><g class="vf-stem" id="vf-auto7173" pointer-events="bounding-box"><path stroke-width="1.5" fill="none" d="M99.813 87L99.813 120"/></g><g class="vf-notehead" id="vf-auto7176" pointer-events="bounding-box"><path stroke="none" d="M99.063 86.685C99.063 88.426,100.327 90.391,103.584 90.391C107.796 90.391,112.205 86.938,112.205 83.371C112.205 80.985,110.183 79.665,107.684 79.665C103.753 79.665,99.063 82.978,99.063 86.685"/></g></g><g class="vf-stavenote" id="vf-auto7178"><g class="vf-stem" id="vf-auto7179" pointer-events="bounding-box"><path stroke-width="1.5" fill="none" d="M154.472 92L154.472 125"/></g><g class="vf-notehead" id="vf-auto7182" pointer-events="bounding-box"><path stroke="none" d="M153.722 91.685C153.722 93.426,154.986 95.391,158.243 95.391C162.455 95.391,166.864 91.938,166.864 88.371C166.864 85.985,164.842 84.665,162.343 84.665C158.412 84.665,153.722 87.978,153.722 91.685"/></g></g><g class="vf-stavenote" id="vf-auto7185"><g class="vf-stem" id="vf-auto7186" pointer-events="bounding-box"><path stroke-width="1.5" fill="none" d="M235.505 97L235.505 127"/></g><g class="vf-notehead" id="vf-auto7191" pointer-events="bounding-box"><path stroke="none" d="M234.755 96.685C234.755 98.426,236.019 100.391,239.276 100.391C243.488 100.391,247.897 96.938,247.897 93.371C247.897 90.985,245.875 89.665,243.376 89.665C239.445 89.665,234.755 92.978,234.755 96.685"/><path stroke="none" d="M230.77 93.003L231.208 93.003C231.509 93.003,231.755 92.756,231.755 92.428L231.755 90.103C231.755 89.802,231.509 89.555,231.208 89.555L228.882 89.555C228.554 89.555,228.335 89.802,228.335 90.103L228.335 90.595L228.335 92.209L226.393 94.179L226.283 94.179L224.313 92.209L224.313 90.103C224.313 89.802,224.122 89.555,223.793 89.555L221.468 89.555C221.167 89.555,220.921 89.802,220.921 90.103L220.921 92.428C220.921 92.756,221.167 93.003,221.468 93.003L221.878 93.003L221.906 93.003L223.547 93.003L225.49 94.918L225.49 95.027L223.547 96.997L221.906 96.997L221.878 96.997L221.468 96.997C221.167 96.997,220.921 97.216,220.921 97.517L220.921 99.843C220.921 100.171,221.167 100.39,221.468 100.39L223.793 100.39C224.122 100.39,224.313 100.171,224.313 99.843L224.313 97.763L226.283 95.876L226.393 95.876L228.335 97.763L228.335 99.405L228.335 99.46L228.335 99.843C228.335 100.171,228.554 100.39,228.882 100.39L231.208 100.39C231.509 100.39,231.755 100.171,231.755 99.843L231.755 97.517C231.755 97.216,231.509 96.997,231.208 96.997L230.798 96.997L230.77 96.997L229.129 96.997L227.159 95.027L227.159 94.973L229.129 93.003"/></g><path stroke="none" d="M234.755 131.972C234.755 132.253,235.008 132.477,235.289 132.477C235.485 132.477,235.738 132.337,235.766 132.168C235.766 132.112,236.131 130.708,236.159 130.596C236.215 130.428,236.58 128.883,238.041 126.496C239.613 123.885,242.028 121.975,244.05 119.139C246.043 116.303,247.251 113.636,247.251 110.098C247.251 106.391,246.408 103.33,244.246 99.399C244.134 99.118,243.881 98.978,243.657 98.978C243.572 98.978,243.488 98.978,243.46 99.006C243.235 99.09,243.179 99.259,243.179 99.483C243.179 99.624,243.207 99.82,243.292 99.989C244.892 103.723,245.538 105.886,245.538 108.778C245.538 112.147,244.387 113.888,243.657 115.152C241.017 119.617,236.777 121.807,235.092 122.369C234.783 122.509,234.755 122.706,234.755 122.818"/></g><g class="vf-stavenote" id="vf-auto7195"><path stroke-width="1.4" fill="none" stroke="#444" d="M254.94 100L274.081 100"/><g class="vf-stem" id="vf-auto7196" pointer-events="bounding-box"><path stroke-width="1.5" fill="none" d="M258.69 102L258.69 132"/></g><g class="vf-notehead" id="vf-auto7201" pointer-events="bounding-box"><path stroke="none" d="M257.94 101.685C257.94 103.426,259.204 105.391,262.461 105.391C266.673 105.391,271.081 101.938,271.081 98.371C271.081 95.985,269.06 94.665,266.561 94.665C262.629 94.665,257.94 97.978,257.94 101.685"/></g><path stroke="none" d="M257.94 136.972C257.94 137.253,258.193 137.477,258.474 137.477C258.67 137.477,258.923 137.337,258.951 137.168C258.951 137.112,259.316 135.708,259.344 135.596C259.4 135.428,259.765 133.883,261.225 131.496C262.798 128.885,265.213 126.975,267.234 124.139C269.228 121.303,270.436 118.636,270.436 115.098C270.436 111.391,269.593 108.33,267.431 104.399C267.319 104.118,267.066 103.978,266.841 103.978C266.757 103.978,266.673 103.978,266.645 104.006C266.42 104.09,266.364 104.259,266.364 104.483C266.364 104.624,266.392 104.82,266.476 104.989C268.077 108.723,268.723 110.886,268.723 113.778C268.723 117.147,267.571 118.888,266.841 120.152C264.202 124.617,259.962 126.807,258.277 127.369C257.968 127.509,257.94 127.706,257.94 127.818"/></g><g class="vf-stavenote" id="vf-auto7203"><path stroke-width="1.4" fill="none" stroke="#444" d="M278.125 100L297.266 100"/><g class="vf-stem" id="vf-auto7204" pointer-events="bounding-box"><path stroke-width="1.5" fill="none" d="M281.875 102L281.875 132"/></g><g class="vf-notehead" id="vf-auto7209" pointer-events="bounding-box"><path stroke="none" d="M281.125 101.685C281.125 103.426,282.388 105.391,285.646 105.391C289.858 105.391,294.266 101.938,294.266 98.371C294.266 95.985,292.244 94.665,289.745 94.665C285.814 94.665,281.125 97.978,281.125 101.685"/></g><path stroke="none" d="M281.125 136.972C281.125 137.253,281.377 137.477,281.658 137.477C281.855 137.477,282.108 137.337,282.136 137.168C282.136 137.112,282.501 135.708,282.529 135.596C282.585 135.428,282.95 133.883,284.41 131.496C285.983 128.885,288.397 126.975,290.419 124.139C292.413 121.303,293.62 118.636,293.62 115.098C293.62 111.391,292.778 108.33,290.616 104.399C290.503 104.118,290.251 103.978,290.026 103.978C289.942 103.978,289.858 103.978,289.83 104.006C289.605 104.09,289.549 104.259,289.549 104.483C289.549 104.624,289.577 104.82,289.661 104.989C291.262 108.723,291.907 110.886,291.907 113.778C291.907 117.147,290.756 118.888,290.026 120.152C287.387 124.617,283.147 126.807,281.462 127.369C281.153 127.509,281.125 127.706,281.125 127.818"/></g><g class="vf-stem" id="vf-auto7119" pointer-events="bounding-box"><path stroke-width="1.5" fill="none" d="M166.114 63L166.114 19.579"/></g><g class="vf-stem" id="vf-auto7127" pointer-events="bounding-box"><path stroke-width="1.5" fill="none" d="M189.299 58L189.299 17.84"/></g><g class="vf-stem" id="vf-auto7135" pointer-events="bounding-box"><path stroke-width="1.5" fill="none" d="M217.171 48L217.171 15.75"/></g><g class="vf-stem" id="vf-auto7145" pointer-events="bounding-box"><path stroke-width="1.5" fill="none" d="M247.147 53L247.147 13.502"/></g><g class="vf-beam" id="vf-auto7152"><path stroke="none" d="M165.364 18.886L165.364 23.886L247.397 17.808L247.397 12.808Z"/></g><g class="vf-stem" id="vf-auto7154" pointer-events="bounding-box"><path stroke-width="1.5" fill="none" d="M270.331 58L270.331 25.75"/></g><g class="vf-stem" id="vf-auto7162" pointer-events="bounding-box"><path stroke-width="1.5" fill="none" d="M293.516 63L293.516 28.068"/></g><g class="vf-beam" id="vf-auto7169"><path stroke="none" d="M269.581 24.925L269.581 29.925L293.766 32.243L293.766 27.243Z"/></g></svg>