<svg xmlns="http://www.w3.org/2000/svg" stroke-width="0.3" stroke-dasharray="none" fill="black" stroke="black" font-family="Arial, sans-serif" font-size="10pt" font-weight="normal" font-style="normal" width="350" height="140" viewBox="0 0 350 140" style="width: 350px; height: 140px; border: none;"><g class="vf-stave" id="vf-auto9924" stroke-width="1" fill="#999999" stroke="#999999"><path fill="none" d="M10 62L360 62"/><path fill="none" d="M10 75L360 75"/><path fill="none" d="M10 88L360 88"/><path fill="none" d="M10 101L360 101"/><path fill="none" d="M10 114L360 114"/><path fill="none" d="M10 127L360 127"/></g><g class="vf-stavebarline" id="vf-auto9925"><rect x="10" y="61.5" width="1" height="66" stroke="none"/></g><g class="vf-stavebarline" id="vf-auto9926"><rect x="360" y="61.5" width="1" height="66" stroke="none"/></g><g class="vf-clef" id="vf-auto9927"><path stroke="none" d="M16.198 70.755L16.198 73.428L20.737 73.428L20.737 85.846L23.916 85.846L23.916 73.428L28.432 73.428L28.432 70.755M15 103.172L18.341 103.172L19.424 100.016L25.045 100.016L26.082 103.172L29.561 103.172L24.124 87.805L20.484 87.805M22.258 91.33L24.216 97.366L20.276 97.366M28.041 106.421C27.234 105.361,25.944 104.785,24.055 104.762L16.636 104.762L16.636 120.153L23.571 120.153C23.594 120.153,23.594 120.153,23.617 120.153C24.331 120.153,25.022 120.084,25.714 119.945C26.382 119.83,26.981 119.531,27.465 119.162C27.902 118.816,28.248 118.425,28.548 117.964C29.008 117.227,29.239 116.397,29.239 115.499C29.239 114.6,29.031 113.886,28.64 113.241C28.248 112.619,27.649 112.181,26.843 111.881C27.372 111.628,27.764 111.352,28.041 111.029C28.501 110.453,28.732 109.693,28.732 108.771C28.732 107.849,28.501 107.089,28.041 106.421M23.018 107.435C23.755 107.435,24.4 107.504,24.861 107.665C25.414 107.919,25.691 108.379,25.691 109.094C25.691 109.762,25.483 110.2,25.045 110.453C24.631 110.729,24.101 110.822,23.433 110.822L19.677 110.822L19.677 107.435M23.456 113.379C24.124 113.379,24.654 113.471,25.022 113.656C25.691 113.955,25.99 114.485,25.99 115.268C25.99 116.236,25.644 116.858,24.976 117.204C24.631 117.365,24.101 117.457,23.433 117.457L19.677 117.457L19.677 113.379"/></g><g class="vf-tabnote" id="vf-auto9928" pointer-events="bounding-box"><rect x="50.233" y="98" width="11.422" height="6" fill="#FFF" stroke="none"/><text stroke="none" x="52.233" y="106">6</text><g class="vf-tabnote" id="vf-auto9936" pointer-events="bounding-box"><rect x="41.561" y="98.3" width="10.672" height="6" fill="#FFF" stroke="none"/><path stroke="none" d="M49.627 100.07L49.896 100.07C50.081 100.07,50.233 99.918,50.233 99.716L50.233 98.284C50.233 98.099,50.081 97.947,49.896 97.947L48.464 97.947C48.262 97.947,48.127 98.099,48.127 98.284L48.127 98.587L48.127 99.582L46.931 100.795L46.863 100.795L45.65 99.582L45.65 98.284C45.65 98.099,45.532 97.947,45.33 97.947L43.898 97.947C43.713 97.947,43.561 98.099,43.561 98.284L43.561 99.716C43.561 99.918,43.713 100.07,43.898 100.07L44.151 100.07L44.168 100.07L45.179 100.07L46.375 101.249L46.375 101.317L45.179 102.53L44.168 102.53L44.151 102.53L43.898 102.53C43.713 102.53,43.561 102.665,43.561 102.85L43.561 104.282C43.561 104.484,43.713 104.619,43.898 104.619L45.33 104.619C45.532 104.619,45.65 104.484,45.65 104.282L45.65 103.002L46.863 101.839L46.931 101.839L48.127 103.002L48.127 104.013L48.127 104.046L48.127 104.282C48.127 104.484,48.262 104.619,48.464 104.619L49.896 104.619C50.081 104.619,50.233 104.484,50.233 104.282L50.233 102.85C50.233 102.665,50.081 102.53,49.896 102.53L49.643 102.53L49.627 102.53L48.616 102.53L47.403 101.317L47.403 101.283L48.616 100.07"/></g></g><g class="vf-tabnote" id="vf-auto9930" pointer-events="bounding-box"><rect x="119.398" y="98" width="18.828" height="6" fill="#FFF" stroke="none"/><text stroke="none" x="121.398" y="106">12</text><g class="vf-tabnote" id="vf-auto9941" pointer-events="bounding-box"><rect x="102.798" y="98.3" width="9.563" height="6" fill="#FFF" stroke="none"/><text stroke="none" font-size="7.5pt" x="104.798" y="104.3">9</text></g><g class="vf-tabnote" id="vf-auto9944" pointer-events="bounding-box"><rect x="108.998" y="98.3" width="15.125" height="6" fill="#FFF" stroke="none"/><text stroke="none" font-size="7.5pt" x="110.998" y="104.3">10</text></g></g><g class="vf-tabnote" id="vf-auto9932" pointer-events="bounding-box"><rect x="188.563" y="98" width="18.828" height="6" fill="#FFF" stroke="none"/><text stroke="none" x="190.563" y="106">10</text><g class="vf-tabnote" id="vf-auto9947" pointer-events="bounding-box"><rect x="173.963" y="98.3" width="16.234" height="6" fill="#FFF" stroke="none"/><text stroke="none" font-size="7.5pt" x="175.963" y="104.3">(9)</text></g></g><g class="vf-tabnote" id="vf-auto9934" pointer-events="bounding-box"><rect x="257.728" y="98" width="18.828" height="6" fill="#FFF" stroke="none"/><text stroke="none" x="259.728" y="106">10</text><g class="vf-tabnote" id="vf-auto9950" pointer-events="bounding-box"><rect x="241.128" y="111.3" width="15.125" height="6" fill="#FFF" stroke="none"/><text stroke="none" font-size="7.5pt" x="243.128" y="117.3">10</text></g><g class="vf-tabnote" id="vf-auto9953" pointer-events="bounding-box"><rect x="251.528" y="98.3" width="9.563" height="6" fill="#FFF" stroke="none"/><text stroke="none" font-size="7.5pt" x="253.528" y="104.3">9</text></g></g></svg>