<svg xmlns="http://www.w3.org/2000/svg" stroke-width="0.3" stroke-dasharray="none" fill="black" stroke="black" font-family="Arial, sans-serif" font-size="10pt" font-weight="normal" font-style="normal" width="600" height="150" viewBox="0 0 600 150" style="width: 600px; height: 150px; border: none;"><g class="vf-stave" id="vf-auto26839" stroke-width="1" fill="#999999" stroke="#999999"><path fill="none" d="M25 60L525 60"/><path fill="none" d="M25 70L525 70"/><path fill="none" d="M25 80L525 80"/><path fill="none" d="M25 90L525 90"/><path fill="none" d="M25 100L525 100"/></g><g class="vf-stavebarline" id="vf-auto26840"><rect x="25" y="59.5" width="1" height="41" stroke="none"/></g><g class="vf-stavebarline" id="vf-auto26841"><rect x="525" y="59.5" width="1" height="41" stroke="none"/></g><g class="vf-keysignature" id="vf-auto26842" fill="blue"><path stroke="none" d="M49.193 55.869C49.412 55.814,49.603 55.54,49.603 55.321L49.603 52.996C49.603 52.668,49.384 52.449,49.056 52.449C49.029 52.449,49.029 52.449,48.974 52.449L47.688 52.722L47.688 46.84L46.566 46.84L46.566 52.941L43.064 53.652L43.064 48.098L41.97 48.098L41.97 53.899L40.438 54.2C40.192 54.254,40 54.528,40 54.747L40 54.829L40 57.127L40 57.045C40 57.373,40.246 57.592,40.547 57.592C40.602 57.592,40.629 57.592,40.657 57.592L41.97 57.319L41.97 63.83L40.438 64.131C40.192 64.186,40 64.46,40 64.679L40 66.977C40 67.278,40.246 67.524,40.547 67.524C40.602 67.524,40.629 67.524,40.657 67.524L41.97 67.25L41.97 73.133L43.064 73.133L43.064 67.004L46.566 66.293L46.566 71.847L47.688 71.847L47.688 66.074L49.193 65.8C49.412 65.746,49.603 65.472,49.603 65.253L49.603 62.928C49.603 62.599,49.384 62.353,49.056 62.353C49.029 62.353,49.029 62.353,48.974 62.353L47.688 62.627L47.688 56.142M43.064 57.072L46.566 56.388L46.566 62.873L43.064 63.612"/><path stroke="none" d="M59.796 70.869C60.015 70.814,60.207 70.54,60.207 70.321L60.207 67.996C60.207 67.668,59.988 67.449,59.66 67.449C59.632 67.449,59.632 67.449,59.577 67.449L58.292 67.722L58.292 61.84L57.17 61.84L57.17 67.941L53.668 68.652L53.668 63.098L52.573 63.098L52.573 68.899L51.041 69.2C50.795 69.254,50.603 69.528,50.603 69.747L50.603 69.829L50.603 72.127L50.603 72.045C50.603 72.373,50.85 72.592,51.151 72.592C51.205 72.592,51.233 72.592,51.26 72.592L52.573 72.319L52.573 78.83L51.041 79.131C50.795 79.186,50.603 79.46,50.603 79.679L50.603 81.977C50.603 82.278,50.85 82.524,51.151 82.524C51.205 82.524,51.233 82.524,51.26 82.524L52.573 82.25L52.573 88.133L53.668 88.133L53.668 82.004L57.17 81.293L57.17 86.847L58.292 86.847L58.292 81.074L59.796 80.8C60.015 80.746,60.207 80.472,60.207 80.253L60.207 77.928C60.207 77.599,59.988 77.353,59.66 77.353C59.632 77.353,59.632 77.353,59.577 77.353L58.292 77.627L58.292 71.142M53.668 72.072L57.17 71.388L57.17 77.873L53.668 78.612"/></g><g class="vf-timesignature" id="vf-auto26843" fill="brown"><path stroke="none" d="M83.551 74.48L83.551 77.075L80.613 77.075C80.368 77.075,80.124 77.295,80.124 77.589L80.124 78.25C80.124 78.519,80.368 78.739,80.613 78.739L91.286 78.739C91.58 78.739,91.776 78.519,91.776 78.25L91.776 77.589C91.776 77.295,91.58 77.075,91.286 77.075L88.128 77.075L88.128 74.48L91.286 74.48C91.58 74.48,91.776 74.235,91.776 73.941L91.776 73.28C91.776 73.036,91.58 72.791,91.286 72.791L88.128 72.791L88.128 67.185C88.128 66.964,88.006 66.793,87.884 66.72L87.443 66.499C87.37 66.475,87.345 66.475,87.272 66.475C87.247 66.475,87.247 66.475,87.198 66.475C87.1 66.475,86.953 66.499,86.88 66.573L83.673 69.51C83.575 69.608,83.551 69.755,83.551 69.902L83.551 72.791L79.438 72.791C79.438 72.791,83.404 68.556,87.565 62.974C87.688 62.803,87.737 62.632,87.737 62.485C87.737 62.313,87.663 62.166,87.639 62.142L86.856 61.359C86.758 61.285,86.635 61.212,86.488 61.212C86.292 61.212,81.519 61.212,81.25 61.212C81.005 61.212,80.833 61.432,80.784 61.652C80.784 61.652,80.613 64.247,79.707 67.111C78.777 69.976,77.724 71.738,76.794 73.036C76.794 73.036,76.696 73.207,76.696 73.427C76.696 73.501,76.696 73.55,76.745 73.623C76.843 73.868,77.088 74.26,77.088 74.26C77.088 74.26,77.161 74.48,77.48 74.48"/><path stroke="none" d="M83.551 94.48L83.551 97.075L80.613 97.075C80.368 97.075,80.124 97.295,80.124 97.589L80.124 98.25C80.124 98.519,80.368 98.739,80.613 98.739L91.286 98.739C91.58 98.739,91.776 98.519,91.776 98.25L91.776 97.589C91.776 97.295,91.58 97.075,91.286 97.075L88.128 97.075L88.128 94.48L91.286 94.48C91.58 94.48,91.776 94.235,91.776 93.941L91.776 93.28C91.776 93.036,91.58 92.791,91.286 92.791L88.128 92.791L88.128 87.185C88.128 86.964,88.006 86.793,87.884 86.72L87.443 86.499C87.37 86.475,87.345 86.475,87.272 86.475C87.247 86.475,87.247 86.475,87.198 86.475C87.1 86.475,86.953 86.499,86.88 86.573L83.673 89.51C83.575 89.608,83.551 89.755,83.551 89.902L83.551 92.791L79.438 92.791C79.438 92.791,83.404 88.556,87.565 82.974C87.688 82.803,87.737 82.632,87.737 82.485C87.737 82.313,87.663 82.166,87.639 82.142L86.856 81.359C86.758 81.285,86.635 81.212,86.488 81.212C86.292 81.212,81.519 81.212,81.25 81.212C81.005 81.212,80.833 81.432,80.784 81.652C80.784 81.652,80.613 84.247,79.707 87.111C78.777 89.976,77.724 91.738,76.794 93.036C76.794 93.036,76.696 93.207,76.696 93.427C76.696 93.501,76.696 93.55,76.745 93.623C76.843 93.868,77.088 94.26,77.088 94.26C77.088 94.26,77.161 94.48,77.48 94.48"/></g><g class="vf-stavenote" id="vf-auto26847"><path stroke-width="1.4" fill="none" stroke="#444" d="M126.879 110L146.02 110"/><g class="vf-stem" id="vf-auto26848" pointer-events="bounding-box"><path stroke-width="1.5" fill="none" d="M142.27 108L142.27 50"/></g><g class="vf-notehead" id="vf-auto26852" pointer-events="bounding-box" fill="red"><path stroke="none" d="M129.879 111.685C129.879 113.426,131.142 115.391,134.4 115.391C138.612 115.391,143.02 111.938,143.02 108.371C143.02 105.985,140.999 104.665,138.499 104.665C134.568 104.665,129.879 107.978,129.879 111.685"/><path stroke="none" d="M114.193 106.881C113.975 105.349,113.017 103.899,111.02 103.899C109.05 103.899,107.901 105.103,107.709 105.349L107.873 92.708C107.873 92.38,107.627 92.161,107.299 92.161L106.834 92.161C106.533 92.161,106.286 92.38,106.286 92.708L106.478 116.375C106.478 116.703,106.724 116.922,107.025 116.922C107.107 116.922,107.271 116.895,107.353 116.867C107.518 116.785,110.062 115.527,112.196 113.119C113.701 111.423,114.276 109.48,114.276 107.866C114.276 107.51,114.248 107.209,114.193 106.881M111.485 108.413C111.485 109.015,111.321 110.821,110.336 112.326C109.679 113.338,108.338 114.405,107.6 115.007L107.709 107.319C107.791 106.963,108.366 105.814,109.953 105.814C111.375 105.814,111.485 107.155,111.485 108.003C111.485 108.194,111.485 108.304,111.485 108.413"/><path fill="green" stroke="none" d="M134.48 121.97C134.48 123.064,135.355 123.94,136.45 123.94C137.544 123.94,138.42 123.064,138.42 121.97C138.42 120.876,137.544 120,136.45 120C135.355 120,134.48 120.876,134.48 121.97"/><g class="vf-ornament" id="vf-auto26887" fill="lightgreen"><path stroke="none" d="M136.265 21.737L133.939 25.458L130.765 20.506C130.711 20.342,130.492 20.232,130.355 20.232C130.191 20.232,129.945 20.342,129.862 20.506L127.044 25.321L124.117 20.506C124.035 20.342,123.816 20.232,123.652 20.232C123.488 20.232,123.296 20.342,123.159 20.506L118.563 28.112L119.52 28.687L121.846 24.829L124.746 29.726C124.828 29.891,125.074 30,125.211 30C125.375 30,125.622 29.891,125.704 29.726L128.577 24.829L131.641 29.754C131.723 29.918,131.969 30,132.106 30C132.27 30,132.516 29.891,132.598 29.726L137.195 22.312"/></g></g><g class="vf-notehead" id="vf-auto26853" pointer-events="bounding-box"><path stroke="none" d="M129.879 101.685C129.879 103.426,131.142 105.391,134.4 105.391C138.612 105.391,143.02 101.938,143.02 98.371C143.02 95.985,140.999 94.665,138.499 94.665C134.568 94.665,129.879 97.978,129.879 101.685"/><path stroke="none" d="M126.468 95.869C126.687 95.814,126.879 95.54,126.879 95.321L126.879 92.996C126.879 92.668,126.66 92.449,126.332 92.449C126.304 92.449,126.304 92.449,126.25 92.449L124.964 92.722L124.964 86.84L123.842 86.84L123.842 92.941L120.34 93.652L120.34 88.098L119.245 88.098L119.245 93.899L117.713 94.2C117.467 94.254,117.276 94.528,117.276 94.747L117.276 94.829L117.276 97.127L117.276 97.045C117.276 97.373,117.522 97.592,117.823 97.592C117.877 97.592,117.905 97.592,117.932 97.592L119.245 97.319L119.245 103.83L117.713 104.131C117.467 104.186,117.276 104.46,117.276 104.679L117.276 106.977C117.276 107.278,117.522 107.524,117.823 107.524C117.877 107.524,117.905 107.524,117.932 107.524L119.245 107.25L119.245 113.133L120.34 113.133L120.34 107.004L123.842 106.293L123.842 111.847L124.964 111.847L124.964 106.074L126.468 105.8C126.687 105.746,126.879 105.472,126.879 105.253L126.879 102.928C126.879 102.599,126.66 102.353,126.332 102.353C126.304 102.353,126.304 102.353,126.25 102.353L124.964 102.627L124.964 96.142M120.34 97.072L123.842 96.388L123.842 102.873L120.34 103.612"/></g><g class="vf-notehead" id="vf-auto26854" pointer-events="bounding-box"><path stroke="none" d="M129.879 86.685C129.879 88.426,131.142 90.391,134.4 90.391C138.612 90.391,143.02 86.938,143.02 83.371C143.02 80.985,140.999 79.665,138.499 79.665C134.568 79.665,129.879 82.978,129.879 86.685"/></g></g><g class="vf-stavenote" id="vf-auto26859"><path stroke-width="1.4" fill="none" stroke="#444" d="M203.161 110L222.302 110"/><g class="vf-stem" id="vf-auto26860" pointer-events="bounding-box"><path stroke-width="1.5" fill="none" d="M218.552 108L218.552 50"/></g><g class="vf-notehead" id="vf-auto26864" pointer-events="bounding-box" fill="red"><path stroke="none" d="M206.161 111.685C206.161 113.426,207.424 115.391,210.682 115.391C214.894 115.391,219.302 111.938,219.302 108.371C219.302 105.985,217.28 104.665,214.781 104.665C210.85 104.665,206.161 107.978,206.161 111.685"/><path fill="green" stroke="none" d="M190.475 106.881C190.256 105.349,189.299 103.899,187.302 103.899C185.332 103.899,184.183 105.103,183.991 105.349L184.155 92.708C184.155 92.38,183.909 92.161,183.581 92.161L183.115 92.161C182.815 92.161,182.568 92.38,182.568 92.708L182.76 116.375C182.76 116.703,183.006 116.922,183.307 116.922C183.389 116.922,183.553 116.895,183.635 116.867C183.799 116.785,186.344 115.527,188.478 113.119C189.983 111.423,190.557 109.48,190.557 107.866C190.557 107.51,190.53 107.209,190.475 106.881M187.767 108.413C187.767 109.015,187.603 110.821,186.618 112.326C185.961 113.338,184.62 114.405,183.882 115.007L183.991 107.319C184.073 106.963,184.648 105.814,186.235 105.814C187.657 105.814,187.767 107.155,187.767 108.003C187.767 108.194,187.767 108.304,187.767 108.413"/><g class="vf-annotation" id="vf-auto26889" fill="blue"><text stroke="none" x="199.027" y="40">blue</text></g><path fill="blue" stroke="none" d="M168.319 90.562C168.319 92.471,167.552 94.455,165.624 95.223C165.062 92.003,164.332 87.716,164.145 86.518C166.578 86.518,168.319 88.165,168.319 90.562M164.5 95.56C163.957 95.653,163.452 95.71,162.928 95.71C159.072 95.71,155.796 93.014,155.796 88.952C155.796 85.657,158.117 82.718,160.476 80.677C160.944 80.266,161.374 79.891,161.767 79.479C162.011 80.94,162.198 82.212,162.385 83.317C159.933 84.047,158.267 86.63,158.267 89.158C158.267 91.048,159.745 93.632,161.917 93.632C162.123 93.632,162.366 93.538,162.366 93.295C162.366 93.051,162.104 92.92,161.767 92.696C160.719 92.04,160.139 91.348,160.139 90.019C160.139 88.39,161.337 87.061,162.928 86.687M162.123 67.836C162.366 66.768,163.602 63.942,165.006 63.942C165.418 63.942,166.054 65.252,166.054 67.105C166.054 69.913,163.976 72.029,162.123 73.845C161.954 72.778,161.823 71.729,161.823 70.587C161.823 69.595,161.917 68.678,162.123 67.836M156.469 103.834C156.469 105.612,157.836 107.952,161.486 107.952C162.741 107.952,163.845 107.634,164.819 107.035C166.279 106.006,166.653 104.227,166.653 102.542C166.653 101.475,166.485 100.277,166.223 98.742C166.148 98.199,165.979 97.394,165.811 96.327C168.45 95.466,170.435 92.714,170.435 89.944C170.435 85.882,167.552 83.13,163.602 83.13C163.34 81.501,163.059 79.91,162.834 78.412C165.68 75.417,167.645 72.048,167.645 67.761C167.645 65.308,166.897 63.305,166.466 62.351C165.811 60.965,165.043 60.029,164.557 60.029C164.369 60.029,163.527 60.348,162.628 61.396C160.906 63.455,160.419 66.9,160.419 69.165C160.419 70.625,160.569 71.935,161.018 74.949C161 74.987,159.596 76.409,159.015 76.877C156.563 79.161,153.175 82.418,153.175 87.81C153.175 92.864,157.574 96.814,162.591 96.814C163.358 96.814,164.089 96.739,164.706 96.627C165.23 99.21,165.53 101.101,165.53 102.542C165.53 105.332,164.089 106.829,161.374 106.829C160.719 106.829,160.157 106.68,160.101 106.68C160.082 106.661,160.026 106.623,160.026 106.605C160.026 106.548,160.082 106.53,160.157 106.492C161.43 106.305,162.685 105.238,162.685 103.497C162.685 102.056,161.58 100.521,159.558 100.521C157.668 100.521,156.469 102.056,156.469 103.834"/></g><g class="vf-notehead" id="vf-auto26865" pointer-events="bounding-box"><path stroke="none" d="M206.161 101.685C206.161 103.426,207.424 105.391,210.682 105.391C214.894 105.391,219.302 101.938,219.302 98.371C219.302 95.985,217.28 94.665,214.781 94.665C210.85 94.665,206.161 97.978,206.161 101.685"/><path stroke="none" d="M202.75 95.869C202.969 95.814,203.161 95.54,203.161 95.321L203.161 92.996C203.161 92.668,202.942 92.449,202.614 92.449C202.586 92.449,202.586 92.449,202.531 92.449L201.246 92.722L201.246 86.84L200.124 86.84L200.124 92.941L196.622 93.652L196.622 88.098L195.527 88.098L195.527 93.899L193.995 94.2C193.749 94.254,193.557 94.528,193.557 94.747L193.557 94.829L193.557 97.127L193.557 97.045C193.557 97.373,193.804 97.592,194.105 97.592C194.159 97.592,194.187 97.592,194.214 97.592L195.527 97.319L195.527 103.83L193.995 104.131C193.749 104.186,193.557 104.46,193.557 104.679L193.557 106.977C193.557 107.278,193.804 107.524,194.105 107.524C194.159 107.524,194.187 107.524,194.214 107.524L195.527 107.25L195.527 113.133L196.622 113.133L196.622 107.004L200.124 106.293L200.124 111.847L201.246 111.847L201.246 106.074L202.75 105.8C202.969 105.746,203.161 105.472,203.161 105.253L203.161 102.928C203.161 102.599,202.942 102.353,202.614 102.353C202.586 102.353,202.586 102.353,202.531 102.353L201.246 102.627L201.246 96.142M196.622 97.072L200.124 96.388L200.124 102.873L196.622 103.612"/></g><g class="vf-notehead" id="vf-auto26866" pointer-events="bounding-box"><path stroke="none" d="M206.161 86.685C206.161 88.426,207.424 90.391,210.682 90.391C214.894 90.391,219.302 86.938,219.302 83.371C219.302 80.985,217.28 79.665,214.781 79.665C210.85 79.665,206.161 82.978,206.161 86.685"/></g></g><g class="vf-stavenote" id="vf-auto26871"><g class="vf-stem" id="vf-auto26872" pointer-events="bounding-box"><path stroke-width="1.5" fill="none" d="M294.834 98L294.834 65"/></g><g class="vf-notehead" id="vf-auto26874" pointer-events="bounding-box"><path stroke="none" d="M282.443 101.685C282.443 103.426,283.706 105.391,286.964 105.391C291.176 105.391,295.584 101.938,295.584 98.371C295.584 95.985,293.562 94.665,291.063 94.665C287.132 94.665,282.443 97.978,282.443 101.685"/></g></g><g class="vf-stavenote" id="vf-auto26875"><g class="vf-stem" id="vf-auto26876" pointer-events="bounding-box"><path stroke-width="1.5" fill="none" d="M371.116 93L371.116 63"/></g><g class="vf-notehead" id="vf-auto26879" pointer-events="bounding-box"><path stroke="none" d="M358.725 96.685C358.725 98.426,359.988 100.391,363.245 100.391C367.457 100.391,371.866 96.938,371.866 93.371C371.866 90.985,369.844 89.665,367.345 89.665C363.414 89.665,358.725 92.978,358.725 96.685"/></g><path stroke="none" d="M370.366 67.182C370.366 67.294,370.394 67.491,370.703 67.631C372.416 68.193,375.898 70.383,378.537 74.848C379.267 76.112,380.447 77.853,380.447 81.222C380.447 84.114,379.66 87.119,378.622 90.011C378.537 90.264,378.453 90.46,378.481 90.629C378.481 90.797,378.537 90.91,378.706 90.994C378.79 91.022,378.846 91.022,378.902 91.022C379.183 91.022,379.38 90.882,379.548 90.601C381.458 87.231,382.103 82.935,382.047 80.408C382.047 80.211,382.047 80.071,382.047 79.902C381.851 74.708,378.846 70.861,378.846 70.861C378.987 70.861,375.14 65.89,374.044 64.178C372.556 61.875,371.854 59.572,371.77 59.404C371.742 59.292,371.377 57.832,371.377 57.832C371.349 57.663,371.124 57.523,370.9 57.523C370.619 57.523,370.366 57.747,370.366 58.028"/></g><path fill="blue" stroke="none" d="M421.852 21.971C421.362 22.24,421.24 22.656,421.24 22.925C421.24 23.292,421.558 23.904,422.244 23.904C422.905 23.904,423.149 23.415,423.223 23.048C423.272 22.974,423.272 22.876,423.272 22.778C423.272 21.971,422.586 20.722,420.555 20.722C418.18 20.722,417.127 22.289,417.127 23.66C417.127 24.394,417.372 25.202,418.351 25.765C418.792 26.01,419.355 26.304,419.943 26.646C420.555 27.013,420.677 27.503,420.677 27.846C420.677 28.213,420.261 29.412,418.963 29.412C417.935 29.412,417.69 29.045,417.69 28.874C417.69 28.825,417.69 28.8,417.715 28.8C417.837 28.727,418.278 28.482,418.278 27.65C418.278 26.72,417.69 26.328,417.152 26.328C416.638 26.328,415.928 26.72,415.928 27.772C415.928 29.364,417.127 30.171,418.963 30.171C420.799 30.171,422.831 29.412,422.831 27.283C422.831 25.177,420.995 24.639,420.114 24.149C419.233 23.66,419.061 23.439,419.061 22.852C419.061 22.24,419.747 21.505,420.653 21.505C421.558 21.505,421.852 21.971,421.852 21.971"/><path fill="blue" stroke="none" d="M422.941 32.105C421.987 32.105,421.105 32.987,421.105 33.941C421.105 35.777,422.329 36.805,423.945 36.805C425.071 36.805,425.903 36.463,426.785 35.581C428.327 34.015,430.016 28.776,430.873 25.765C431.191 24.639,431.509 23.537,431.754 22.729L431.754 22.656L434.276 22.656C434.496 22.656,434.643 22.534,434.643 22.313L434.643 21.53C434.643 21.334,434.496 21.187,434.276 21.187L432.195 21.187L432.195 21.089C433.198 17.491,433.468 16.854,434.006 16.438C434.276 16.218,434.52 16.144,434.716 16.144C434.765 16.144,434.839 16.193,434.888 16.193C435.059 16.218,435.157 16.316,435.23 16.463C435.279 16.536,435.279 16.56,435.279 16.634C435.279 16.805,435.206 17.001,435.059 17.075C434.716 17.344,434.52 17.809,434.52 18.299C434.52 18.47,434.569 18.617,434.594 18.788C434.716 19.106,434.985 19.425,435.328 19.572C435.475 19.645,435.72 19.718,435.965 19.718C436.209 19.718,436.503 19.645,436.821 19.449C437.164 19.278,437.531 18.837,437.629 18.445C437.703 18.25,437.703 18.054,437.703 17.833C437.703 17.417,437.605 16.952,437.36 16.536C437.066 15.997,436.258 15.361,435.132 15.19C434.961 15.165,434.741 15.165,434.52 15.165C433.688 15.165,432.586 15.434,431.436 16.463C430.506 17.27,429.698 18.837,428.914 21.114L428.914 21.187L426.246 21.187C426.026 21.187,425.903 21.334,425.903 21.53L425.903 22.313C425.903 22.534,426.026 22.656,426.246 22.656L428.425 22.656L428.425 22.803C428.082 24.223,427.788 25.422,427.544 26.573C427.274 27.895,426.956 29.217,426.515 30.857L426.417 31.273C425.683 34.162,425.463 35.19,424.63 35.753C424.459 35.851,424.239 35.924,424.018 35.924C423.847 35.924,423.676 35.851,423.529 35.753C423.431 35.679,423.357 35.581,423.357 35.435C423.357 35.386,423.357 35.386,423.357 35.361C423.382 35.214,423.455 35.067,423.627 34.994C424.312 34.725,424.508 34.088,424.508 33.525C424.508 33.036,424.19 32.105,422.941 32.105"/><path fill="blue" stroke="none" d="M443.534 22.852C443.607 22.852,443.632 22.876,443.681 22.95C443.705 23.023,443.705 23.023,443.705 23.048C443.705 23.121,443.681 23.17,443.632 23.195C443.607 23.244,437.83 27.919,436.9 28.654C436.557 28.947,436.459 29.192,436.459 29.412C436.459 29.706,436.704 29.902,436.704 29.902C436.826 29.976,436.949 30,437.071 30C437.585 30,437.952 29.535,438.148 29.29C438.344 28.947,438.564 28.311,439.152 28.311C439.764 28.311,439.911 28.776,440.107 29.143C440.474 29.755,441.282 30.024,442.089 30.024C442.75 30.024,443.387 29.853,443.877 29.461C444.978 28.629,445.37 27.111,445.37 26.401C445.37 25.692,445.125 25.202,444.391 25.202C443.779 25.202,443.46 25.74,443.46 26.181C443.46 26.867,444.023 27.013,444.072 27.136C444.072 27.209,444.072 27.283,444.072 27.356C444.072 27.601,444.023 27.846,443.877 28.066C443.705 28.335,443.387 28.629,443.118 28.629C443.044 28.629,442.922 28.629,442.873 28.556C442.677 28.458,442.481 28.164,441.918 27.748C441.355 27.332,440.719 27.062,440.572 27.013C440.498 26.964,440.498 26.964,440.498 26.94C440.498 26.891,440.547 26.867,440.547 26.867C440.547 26.867,445.321 22.803,445.566 22.558C445.859 22.289,446.153 21.995,446.276 21.677C446.325 21.652,446.349 21.53,446.349 21.505L446.349 21.285C446.325 21.016,446.153 20.967,446.08 20.967L446.031 20.967L444.342 21.114C443.925 21.163,443.558 21.163,443.24 21.163C442.653 21.163,442.187 21.114,441.747 21.04C441.526 21.016,440.988 20.893,440.719 20.893C440.645 20.893,440.572 20.942,440.547 20.942C440.327 21.016,440.107 21.187,440.033 21.579C439.69 23.513,438.956 24.321,438.834 24.565C438.834 24.614,438.834 24.614,438.834 24.639C438.834 24.786,438.981 24.933,439.152 24.933L439.544 24.933C439.764 24.933,439.788 24.737,439.911 24.492C440.009 24.247,440.498 23.023,440.572 22.876C440.645 22.729,440.67 22.729,440.817 22.729C440.988 22.778,441.453 22.876,442.016 22.925C442.114 22.925,442.261 22.925,442.359 22.925C442.873 22.925,443.362 22.876,443.534 22.852"/><g class="vf-annotation" id="vf-auto26883" fill="green"><text stroke="none" x="397.677" y="50">GhostNote green text</text></g></svg>