<svg xmlns="http://www.w3.org/2000/svg" stroke-width="0.3" stroke-dasharray="none" fill="black" stroke="black" font-family="Arial, sans-serif" font-size="10pt" font-weight="normal" font-style="normal" width="700" height="180" viewBox="0 0 700 180" style="width: 700px; height: 180px; border: none;"><g class="vf-stave" id="vf-auto31297" stroke-width="1" fill="#999999" stroke="#999999"><path fill="none" d="M10 70L760 70"/><path fill="none" d="M10 80L760 80"/><path fill="none" d="M10 90L760 90"/><path fill="none" d="M10 100L760 100"/><path fill="none" d="M10 110L760 110"/></g><g class="vf-stavebarline" id="vf-auto31298"><rect x="10" y="69.5" width="1" height="41" stroke="none"/></g><g class="vf-stavebarline" id="vf-auto31299"><rect x="760" y="69.5" width="1" height="41" stroke="none"/></g><g class="vf-clef" id="vf-auto31300"><path stroke="none" d="M23.433 71.183C20.898 71.183,18.871 72.634,18.848 72.634C16.935 74.063,16.152 75.744,15.852 76.92C15.691 77.519,15.622 78.118,15.622 78.671C15.622 79.477,15.76 80.191,16.06 80.836C16.452 81.712,17.212 82.357,18.226 82.68C18.617 82.818,19.055 82.887,19.47 82.887C20.207 82.887,20.967 82.68,21.612 82.311C22.626 81.758,23.271 80.56,23.271 79.27C23.271 78.118,22.672 77.035,21.659 76.413C20.967 75.952,20.299 75.814,19.746 75.814C19.355 75.814,18.986 75.883,18.686 75.975C18.341 76.113,17.788 76.459,17.511 76.689C17.627 76.044,18.018 75.076,18.387 74.546C18.756 74.016,19.47 73.371,20.046 73.072C20.875 72.588,21.935 72.404,23.087 72.404C26.474 72.404,28.133 75.122,28.133 80.698C28.133 83.785,26.981 86.735,25.99 88.693C24.884 90.882,23.433 92.978,22.142 94.13C18.686 97.287,15.438 98.784,15.392 98.784C15.392 98.784,15 99.015,15 99.407C15 99.476,15.023 99.499,15.023 99.568C15.138 99.913,15.438 99.96,15.622 99.96C15.668 99.96,15.76 99.936,15.806 99.936C15.829 99.936,19.608 98.37,22.626 96.02C24.331 94.799,25.852 93.462,27.165 92.034C28.363 90.744,29.4 89.361,30.229 87.956C31.681 85.467,32.51 82.887,32.51 80.652C32.51 77.91,31.796 75.629,30.437 73.993C28.87 72.127,26.52 71.183,23.433 71.183M33.847 75.376C33.847 76.32,34.584 77.035,35.436 77.035C36.289 77.035,37.026 76.32,37.026 75.376C37.026 74.454,36.289 73.694,35.436 73.694C34.584 73.694,33.847 74.454,33.847 75.376M33.847 83.578C33.847 84.5,34.584 85.283,35.436 85.283C36.289 85.283,37.026 84.5,37.026 83.578C37.026 82.656,36.289 81.896,35.436 81.896C34.584 81.896,33.847 82.656,33.847 83.578"/></g><g class="vf-stavenote" id="vf-auto31301"><g class="vf-notehead" id="vf-auto31306" pointer-events="bounding-box"><path stroke="none" d="M74.953 87.755C74.784 87.755,74.756 87.755,74.588 87.755C74.279 87.755,74.026 88.008,74.026 88.317C74.026 88.654,74.026 101.346,74.026 101.627C74.026 101.908,74.279 102.188,74.588 102.188C74.756 102.188,74.784 102.188,74.953 102.188C75.234 102.188,75.514 101.88,75.514 101.627C75.514 101.402,75.514 88.654,75.514 88.317C75.514 88.008,75.29 87.755,74.953 87.755M92.25 87.755C92.11 87.755,92.054 87.755,91.885 87.755C91.576 87.755,91.324 88.008,91.324 88.317C91.324 88.401,91.324 89.749,91.324 91.49C90.116 90.311,88.066 89.496,84.949 89.496C81.776 89.496,79.726 90.311,78.519 91.49C78.519 89.749,78.519 88.401,78.519 88.317C78.519 88.008,78.266 87.755,77.957 87.755C77.789 87.755,77.733 87.755,77.592 87.755C77.255 87.755,77.031 88.008,77.031 88.317C77.031 88.654,77.031 101.346,77.031 101.627C77.031 101.908,77.255 102.188,77.592 102.188C77.733 102.188,77.789 102.188,77.957 102.188C78.238 102.188,78.519 101.88,78.519 101.627C78.519 101.543,78.519 100.223,78.519 98.426C79.726 99.661,81.776 100.448,84.949 100.448C88.066 100.448,90.116 99.661,91.324 98.426C91.324 100.223,91.324 101.543,91.324 101.627C91.324 101.908,91.576 102.188,91.885 102.188C92.054 102.188,92.11 102.188,92.25 102.188C92.559 102.188,92.84 101.88,92.84 101.627C92.84 101.402,92.84 88.654,92.84 88.317C92.84 88.008,92.587 87.755,92.25 87.755M86.999 98.931C86.522 99.044,85.876 99.156,85.258 99.156C84.135 99.156,83.377 98.791,82.843 97.836C82.31 96.825,81.58 94.186,81.552 93.091C81.552 93.006,81.552 92.95,81.552 92.866C81.552 91.939,81.945 91.35,82.843 91.041C83.321 90.928,83.967 90.788,84.612 90.788C85.708 90.788,86.438 91.069,86.999 92.136C87.561 93.231,88.347 95.814,88.347 96.853C88.347 97.92,87.982 98.594,86.999 98.931M95.227 87.755C95.058 87.755,95.002 87.755,94.862 87.755C94.525 87.755,94.272 88.008,94.272 88.317C94.272 88.654,94.272 101.346,94.272 101.627C94.272 101.908,94.525 102.188,94.862 102.188C95.002 102.188,95.058 102.188,95.227 102.188C95.507 102.188,95.788 101.88,95.788 101.627C95.788 101.402,95.788 88.654,95.788 88.317C95.788 88.008,95.536 87.755,95.227 87.755"/></g><g class="vf-notehead" id="vf-auto31307" pointer-events="bounding-box"><path stroke="none" d="M74.953 77.755C74.784 77.755,74.756 77.755,74.588 77.755C74.279 77.755,74.026 78.008,74.026 78.317C74.026 78.654,74.026 91.346,74.026 91.627C74.026 91.908,74.279 92.188,74.588 92.188C74.756 92.188,74.784 92.188,74.953 92.188C75.234 92.188,75.514 91.88,75.514 91.627C75.514 91.402,75.514 78.654,75.514 78.317C75.514 78.008,75.29 77.755,74.953 77.755M92.25 77.755C92.11 77.755,92.054 77.755,91.885 77.755C91.576 77.755,91.324 78.008,91.324 78.317C91.324 78.401,91.324 79.749,91.324 81.49C90.116 80.311,88.066 79.496,84.949 79.496C81.776 79.496,79.726 80.311,78.519 81.49C78.519 79.749,78.519 78.401,78.519 78.317C78.519 78.008,78.266 77.755,77.957 77.755C77.789 77.755,77.733 77.755,77.592 77.755C77.255 77.755,77.031 78.008,77.031 78.317C77.031 78.654,77.031 91.346,77.031 91.627C77.031 91.908,77.255 92.188,77.592 92.188C77.733 92.188,77.789 92.188,77.957 92.188C78.238 92.188,78.519 91.88,78.519 91.627C78.519 91.543,78.519 90.223,78.519 88.426C79.726 89.661,81.776 90.448,84.949 90.448C88.066 90.448,90.116 89.661,91.324 88.426C91.324 90.223,91.324 91.543,91.324 91.627C91.324 91.908,91.576 92.188,91.885 92.188C92.054 92.188,92.11 92.188,92.25 92.188C92.559 92.188,92.84 91.88,92.84 91.627C92.84 91.402,92.84 78.654,92.84 78.317C92.84 78.008,92.587 77.755,92.25 77.755M86.999 88.931C86.522 89.044,85.876 89.156,85.258 89.156C84.135 89.156,83.377 88.791,82.843 87.836C82.31 86.825,81.58 84.186,81.552 83.091C81.552 83.006,81.552 82.95,81.552 82.866C81.552 81.939,81.945 81.35,82.843 81.041C83.321 80.928,83.967 80.788,84.612 80.788C85.708 80.788,86.438 81.069,86.999 82.136C87.561 83.231,88.347 85.814,88.347 86.853C88.347 87.92,87.982 88.594,86.999 88.931M95.227 77.755C95.058 77.755,95.002 77.755,94.862 77.755C94.525 77.755,94.272 78.008,94.272 78.317C94.272 78.654,94.272 91.346,94.272 91.627C94.272 91.908,94.525 92.188,94.862 92.188C95.002 92.188,95.058 92.188,95.227 92.188C95.507 92.188,95.788 91.88,95.788 91.627C95.788 91.402,95.788 78.654,95.788 78.317C95.788 78.008,95.536 77.755,95.227 77.755"/></g><g class="vf-notehead" id="vf-auto31308" pointer-events="bounding-box"><path stroke="none" d="M74.953 62.755C74.784 62.755,74.756 62.755,74.588 62.755C74.279 62.755,74.026 63.008,74.026 63.317C74.026 63.654,74.026 76.346,74.026 76.627C74.026 76.908,74.279 77.188,74.588 77.188C74.756 77.188,74.784 77.188,74.953 77.188C75.234 77.188,75.514 76.88,75.514 76.627C75.514 76.402,75.514 63.654,75.514 63.317C75.514 63.008,75.29 62.755,74.953 62.755M92.25 62.755C92.11 62.755,92.054 62.755,91.885 62.755C91.576 62.755,91.324 63.008,91.324 63.317C91.324 63.401,91.324 64.749,91.324 66.49C90.116 65.311,88.066 64.496,84.949 64.496C81.776 64.496,79.726 65.311,78.519 66.49C78.519 64.749,78.519 63.401,78.519 63.317C78.519 63.008,78.266 62.755,77.957 62.755C77.789 62.755,77.733 62.755,77.592 62.755C77.255 62.755,77.031 63.008,77.031 63.317C77.031 63.654,77.031 76.346,77.031 76.627C77.031 76.908,77.255 77.188,77.592 77.188C77.733 77.188,77.789 77.188,77.957 77.188C78.238 77.188,78.519 76.88,78.519 76.627C78.519 76.543,78.519 75.223,78.519 73.426C79.726 74.661,81.776 75.448,84.949 75.448C88.066 75.448,90.116 74.661,91.324 73.426C91.324 75.223,91.324 76.543,91.324 76.627C91.324 76.908,91.576 77.188,91.885 77.188C92.054 77.188,92.11 77.188,92.25 77.188C92.559 77.188,92.84 76.88,92.84 76.627C92.84 76.402,92.84 63.654,92.84 63.317C92.84 63.008,92.587 62.755,92.25 62.755M86.999 73.931C86.522 74.044,85.876 74.156,85.258 74.156C84.135 74.156,83.377 73.791,82.843 72.836C82.31 71.825,81.58 69.186,81.552 68.091C81.552 68.006,81.552 67.95,81.552 67.866C81.552 66.939,81.945 66.35,82.843 66.041C83.321 65.928,83.967 65.788,84.612 65.788C85.708 65.788,86.438 66.069,86.999 67.136C87.561 68.231,88.347 70.814,88.347 71.853C88.347 72.92,87.982 73.594,86.999 73.931M95.227 62.755C95.058 62.755,95.002 62.755,94.862 62.755C94.525 62.755,94.272 63.008,94.272 63.317C94.272 63.654,94.272 76.346,94.272 76.627C94.272 76.908,94.525 77.188,94.862 77.188C95.002 77.188,95.058 77.188,95.227 77.188C95.507 77.188,95.788 76.88,95.788 76.627C95.788 76.402,95.788 63.654,95.788 63.317C95.788 63.008,95.536 62.755,95.227 62.755"/></g></g><g class="vf-stavenote" id="vf-auto31309"><path stroke-width="1.4" fill="none" stroke="#444" d="M96.026 120L117.105 120"/><path stroke-width="1.4" fill="none" stroke="#444" d="M96.026 130L117.105 130"/><g class="vf-notehead" id="vf-auto31314" pointer-events="bounding-box"><path stroke="none" d="M106.58 124.496C101.02 124.496,99.026 127.332,99.026 129.972C99.026 132.583,101.02 135.419,106.58 135.419C112.168 135.419,114.105 132.583,114.105 129.972C114.105 127.332,112.168 124.496,106.58 124.496M108.658 133.875C108.152 134.044,107.506 134.128,106.917 134.128C105.765 134.128,105.007 133.791,104.474 132.78C103.968 131.769,103.238 129.186,103.182 128.091C103.098 126.995,103.519 126.35,104.474 126.041C104.979 125.872,105.625 125.788,106.215 125.788C107.366 125.788,108.096 126.041,108.658 127.136C109.219 128.231,109.949 130.814,109.949 131.825C109.949 132.864,109.612 133.594,108.658 133.875"/></g><g class="vf-notehead" id="vf-auto31315" pointer-events="bounding-box"><path stroke="none" d="M106.58 114.496C101.02 114.496,99.026 117.332,99.026 119.972C99.026 122.583,101.02 125.419,106.58 125.419C112.168 125.419,114.105 122.583,114.105 119.972C114.105 117.332,112.168 114.496,106.58 114.496M108.658 123.875C108.152 124.044,107.506 124.128,106.917 124.128C105.765 124.128,105.007 123.791,104.474 122.78C103.968 121.769,103.238 119.186,103.182 118.091C103.098 116.995,103.519 116.35,104.474 116.041C104.979 115.872,105.625 115.788,106.215 115.788C107.366 115.788,108.096 116.041,108.658 117.136C109.219 118.231,109.949 120.814,109.949 121.825C109.949 122.864,109.612 123.594,108.658 123.875"/></g><g class="vf-notehead" id="vf-auto31316" pointer-events="bounding-box"><path stroke="none" d="M106.58 99.496C101.02 99.496,99.026 102.332,99.026 104.972C99.026 107.583,101.02 110.419,106.58 110.419C112.168 110.419,114.105 107.583,114.105 104.972C114.105 102.332,112.168 99.496,106.58 99.496M108.658 108.875C108.152 109.044,107.506 109.128,106.917 109.128C105.765 109.128,105.007 108.791,104.474 107.78C103.968 106.769,103.238 104.186,103.182 103.091C103.098 101.995,103.519 101.35,104.474 101.041C104.979 100.872,105.625 100.788,106.215 100.788C107.366 100.788,108.096 101.041,108.658 102.136C109.219 103.231,109.949 105.814,109.949 106.825C109.949 107.864,109.612 108.594,108.658 108.875"/></g></g><g class="vf-stavenote" id="vf-auto31317"><g class="vf-stem" id="vf-auto31318" pointer-events="bounding-box"><path stroke-width="1.5" fill="none" d="M136.418 92.45L136.418 35"/></g><g class="vf-notehead" id="vf-auto31322" pointer-events="bounding-box"><path stroke="none" d="M132.647 89.665C128.716 89.665,124.026 92.95,124.026 96.685C124.026 98.426,125.29 100.391,128.547 100.391C132.759 100.391,137.168 96.938,137.168 93.371C137.168 90.985,135.146 89.665,132.647 89.665M131.552 96.769C131.439 96.853,128.463 98.482,127.059 98.482C125.711 98.482,125.43 97.387,125.43 97.022C125.43 95.337,129.474 93.343,129.642 93.259C129.811 93.175,132.675 91.574,134.135 91.574C135.118 91.574,135.764 92.136,135.764 93.006C135.764 94.747,131.664 96.685,131.552 96.769"/></g><g class="vf-notehead" id="vf-auto31323" pointer-events="bounding-box"><path stroke="none" d="M132.647 79.665C128.716 79.665,124.026 82.95,124.026 86.685C124.026 88.426,125.29 90.391,128.547 90.391C132.759 90.391,137.168 86.938,137.168 83.371C137.168 80.985,135.146 79.665,132.647 79.665M131.552 86.769C131.439 86.853,128.463 88.482,127.059 88.482C125.711 88.482,125.43 87.387,125.43 87.022C125.43 85.337,129.474 83.343,129.642 83.259C129.811 83.175,132.675 81.574,134.135 81.574C135.118 81.574,135.764 82.136,135.764 83.006C135.764 84.747,131.664 86.685,131.552 86.769"/></g><g class="vf-notehead" id="vf-auto31324" pointer-events="bounding-box"><path stroke="none" d="M132.647 64.665C128.716 64.665,124.026 67.95,124.026 71.685C124.026 73.426,125.29 75.391,128.547 75.391C132.759 75.391,137.168 71.938,137.168 68.371C137.168 65.985,135.146 64.665,132.647 64.665M131.552 71.769C131.439 71.853,128.463 73.482,127.059 73.482C125.711 73.482,125.43 72.387,125.43 72.022C125.43 70.337,129.474 68.343,129.642 68.259C129.811 68.175,132.675 66.574,134.135 66.574C135.118 66.574,135.764 67.136,135.764 68.006C135.764 69.747,131.664 71.685,131.552 71.769"/></g></g><g class="vf-stavenote" id="vf-auto31325"><path stroke-width="1.4" fill="none" stroke="#444" d="M146.026 120L165.168 120"/><path stroke-width="1.4" fill="none" stroke="#444" d="M146.026 130L165.168 130"/><g class="vf-stem" id="vf-auto31326" pointer-events="bounding-box"><path stroke-width="1.5" fill="none" d="M161.418 128L161.418 70"/></g><g class="vf-notehead" id="vf-auto31330" pointer-events="bounding-box"><path stroke="none" d="M149.026 131.685C149.026 133.426,150.29 135.391,153.547 135.391C157.759 135.391,162.168 131.938,162.168 128.371C162.168 125.985,160.146 124.665,157.647 124.665C153.716 124.665,149.026 127.978,149.026 131.685"/></g><g class="vf-notehead" id="vf-auto31331" pointer-events="bounding-box"><path stroke="none" d="M149.026 121.685C149.026 123.426,150.29 125.391,153.547 125.391C157.759 125.391,162.168 121.938,162.168 118.371C162.168 115.985,160.146 114.665,157.647 114.665C153.716 114.665,149.026 117.978,149.026 121.685"/></g><g class="vf-notehead" id="vf-auto31332" pointer-events="bounding-box"><path stroke="none" d="M149.026 106.685C149.026 108.426,150.29 110.391,153.547 110.391C157.759 110.391,162.168 106.938,162.168 103.371C162.168 100.985,160.146 99.665,157.647 99.665C153.716 99.665,149.026 102.978,149.026 106.685"/></g></g><g class="vf-stavenote" id="vf-auto31333"><g class="vf-stem" id="vf-auto31334" pointer-events="bounding-box"><path stroke-width="1.5" fill="none" d="M186.418 93L186.418 38"/></g><g class="vf-notehead" id="vf-auto31339" pointer-events="bounding-box"><path stroke="none" d="M174.026 96.685C174.026 98.426,175.29 100.391,178.547 100.391C182.759 100.391,187.168 96.938,187.168 93.371C187.168 90.985,185.146 89.665,182.647 89.665C178.716 89.665,174.026 92.978,174.026 96.685"/></g><g class="vf-notehead" id="vf-auto31340" pointer-events="bounding-box"><path stroke="none" d="M174.026 86.685C174.026 88.426,175.29 90.391,178.547 90.391C182.759 90.391,187.168 86.938,187.168 83.371C187.168 80.985,185.146 79.665,182.647 79.665C178.716 79.665,174.026 82.978,174.026 86.685"/></g><g class="vf-notehead" id="vf-auto31341" pointer-events="bounding-box"><path stroke="none" d="M174.026 71.685C174.026 73.426,175.29 75.391,178.547 75.391C182.759 75.391,187.168 71.938,187.168 68.371C187.168 65.985,185.146 64.665,182.647 64.665C178.716 64.665,174.026 67.978,174.026 71.685"/></g><path stroke="none" d="M185.668 42.182C185.668 42.294,185.696 42.491,186.005 42.631C187.718 43.193,191.199 45.383,193.839 49.848C194.569 51.112,195.748 52.853,195.748 56.222C195.748 59.114,194.962 62.119,193.923 65.011C193.839 65.264,193.755 65.46,193.783 65.629C193.783 65.797,193.839 65.91,194.007 65.994C194.092 66.022,194.148 66.022,194.204 66.022C194.485 66.022,194.681 65.882,194.85 65.601C196.759 62.231,197.405 57.935,197.349 55.408C197.349 55.211,197.349 55.071,197.349 54.902C197.152 49.708,194.148 45.861,194.148 45.861C194.288 45.861,190.441 40.89,189.346 39.178C187.858 36.875,187.156 34.572,187.072 34.404C187.044 34.292,186.679 32.832,186.679 32.832C186.65 32.663,186.426 32.523,186.201 32.523C185.92 32.523,185.668 32.747,185.668 33.028"/></g><g class="vf-stavenote" id="vf-auto31343"><path stroke-width="1.4" fill="none" stroke="#444" d="M196.026 120L215.168 120"/><path stroke-width="1.4" fill="none" stroke="#444" d="M196.026 130L215.168 130"/><g class="vf-stem" id="vf-auto31344" pointer-events="bounding-box"><path stroke-width="1.5" fill="none" d="M211.418 128L211.418 73"/></g><g class="vf-notehead" id="vf-auto31349" pointer-events="bounding-box"><path stroke="none" d="M199.026 131.685C199.026 133.426,200.29 135.391,203.547 135.391C207.759 135.391,212.168 131.938,212.168 128.371C212.168 125.985,210.146 124.665,207.647 124.665C203.716 124.665,199.026 127.978,199.026 131.685"/></g><g class="vf-notehead" id="vf-auto31350" pointer-events="bounding-box"><path stroke="none" d="M199.026 121.685C199.026 123.426,200.29 125.391,203.547 125.391C207.759 125.391,212.168 121.938,212.168 118.371C212.168 115.985,210.146 114.665,207.647 114.665C203.716 114.665,199.026 117.978,199.026 121.685"/></g><g class="vf-notehead" id="vf-auto31351" pointer-events="bounding-box"><path stroke="none" d="M199.026 106.685C199.026 108.426,200.29 110.391,203.547 110.391C207.759 110.391,212.168 106.938,212.168 103.371C212.168 100.985,210.146 99.665,207.647 99.665C203.716 99.665,199.026 102.978,199.026 106.685"/></g><path stroke="none" d="M219.12 87.122C218.025 85.718,216.817 84.427,214.824 82.433C213.251 80.861,212.521 79.485,212.24 78.446C212.212 78.221,212.156 77.94,212.128 77.631C214.178 77.631,216.817 80.411,218.277 82.321C219.85 84.371,220.215 85.999,220.215 87.544C220.215 87.937,220.159 88.33,220.131 88.751C219.794 88.105,219.429 87.572,219.12 87.122M210.668 83.416C210.668 83.528,211.005 83.697,211.285 83.809C212.324 84.174,215.469 86.196,217.912 89.79C219.288 91.868,219.597 93.3,219.597 94.676C219.597 94.929,219.597 95.125,219.569 95.378C219.569 96.333,219.288 98.411,218.67 100.011C218.642 100.236,218.502 100.46,218.502 100.685C218.502 100.826,218.586 100.994,218.783 101.106C218.867 101.162,218.923 101.162,219.007 101.162C219.288 101.162,219.429 100.826,219.597 100.601C220.327 99.45,221.394 97.287,221.394 95.013C221.394 93.834,221.31 92.879,221.17 92.008C221.591 90.52,221.956 89.032,221.956 87.038C221.956 84.932,221.394 83.051,220.018 81.226C218.109 78.727,216.059 76.621,214.515 74.402C212.97 72.156,211.847 68,211.847 68C211.763 67.719,211.707 67.523,211.285 67.523C210.78 67.523,210.668 67.719,210.668 68"/></g><g class="vf-stavenote" id="vf-auto31353"><g class="vf-stem" id="vf-auto31354" pointer-events="bounding-box"><path stroke-width="1.5" fill="none" d="M236.418 93L236.418 29"/></g><g class="vf-notehead" id="vf-auto31359" pointer-events="bounding-box"><path stroke="none" d="M224.026 96.685C224.026 98.426,225.29 100.391,228.547 100.391C232.759 100.391,237.168 96.938,237.168 93.371C237.168 90.985,235.146 89.665,232.647 89.665C228.716 89.665,224.026 92.978,224.026 96.685"/></g><g class="vf-notehead" id="vf-auto31360" pointer-events="bounding-box"><path stroke="none" d="M224.026 86.685C224.026 88.426,225.29 90.391,228.547 90.391C232.759 90.391,237.168 86.938,237.168 83.371C237.168 80.985,235.146 79.665,232.647 79.665C228.716 79.665,224.026 82.978,224.026 86.685"/></g><g class="vf-notehead" id="vf-auto31361" pointer-events="bounding-box"><path stroke="none" d="M224.026 71.685C224.026 73.426,225.29 75.391,228.547 75.391C232.759 75.391,237.168 71.938,237.168 68.371C237.168 65.985,235.146 64.665,232.647 64.665C228.716 64.665,224.026 67.978,224.026 71.685"/></g><path stroke="none" d="M244.12 52.179C243.025 50.747,241.817 49.511,239.824 47.489C238.251 45.889,237.521 44.513,237.24 43.474C237.212 43.277,237.156 42.94,237.072 42.631C239.178 42.631,241.817 45.131,243.277 47.04C244.85 49.146,245.215 50.747,245.215 52.291C245.215 52.768,245.159 53.246,245.131 53.751C244.794 53.105,244.429 52.6,244.12 52.179M243.277 40.273C244.85 42.351,245.215 44.007,245.215 45.524C245.215 45.776,245.159 45.973,245.159 46.17C245.131 46.113,245.046 46.029,245.018 45.945C243.109 43.446,239.739 40.61,238.223 38.391C237.605 37.493,237.296 36.482,237.072 35.583C239.15 35.583,241.817 38.391,243.277 40.273M235.668 48.444C235.668 48.556,236.005 48.725,236.285 48.837C237.324 49.202,240.469 51.224,242.912 54.846C244.288 56.896,244.597 58.356,244.597 59.732C244.597 59.957,244.597 60.181,244.569 60.406C244.569 61.389,244.288 63.439,243.67 65.067C243.642 65.264,243.502 65.517,243.502 65.713C243.502 65.882,243.586 66.022,243.783 66.162C243.867 66.191,243.923 66.191,244.007 66.191C244.288 66.191,244.429 65.882,244.597 65.629C245.327 64.506,246.394 62.316,246.394 60.041C246.394 58.89,246.31 57.907,246.17 57.065C246.591 55.52,246.956 53.779,246.956 51.757C246.956 50.747,246.787 49.736,246.507 48.809C246.759 47.77,246.956 46.675,246.956 45.383C246.956 45.243,246.956 45.131,246.956 45.018C246.956 42.912,246.394 41.003,245.018 39.178C243.109 36.678,241.059 34.572,239.515 32.354C237.97 30.136,236.847 25.952,236.847 25.952C236.763 25.671,236.707 25.475,236.285 25.475C235.78 25.475,235.668 25.671,235.668 25.952"/></g><g class="vf-stavenote" id="vf-auto31363"><g class="vf-stem" id="vf-auto31364" pointer-events="bounding-box"><path stroke-width="1.5" fill="none" d="M261.418 93L261.418 25"/></g><g class="vf-notehead" id="vf-auto31369" pointer-events="bounding-box"><path stroke="none" d="M249.026 96.685C249.026 98.426,250.29 100.391,253.547 100.391C257.759 100.391,262.168 96.938,262.168 93.371C262.168 90.985,260.146 89.665,257.647 89.665C253.716 89.665,249.026 92.978,249.026 96.685"/></g><g class="vf-notehead" id="vf-auto31370" pointer-events="bounding-box"><path stroke="none" d="M249.026 86.685C249.026 88.426,250.29 90.391,253.547 90.391C257.759 90.391,262.168 86.938,262.168 83.371C262.168 80.985,260.146 79.665,257.647 79.665C253.716 79.665,249.026 82.978,249.026 86.685"/></g><g class="vf-notehead" id="vf-auto31371" pointer-events="bounding-box"><path stroke="none" d="M249.026 71.685C249.026 73.426,250.29 75.391,253.547 75.391C257.759 75.391,262.168 71.938,262.168 68.371C262.168 65.985,260.146 64.665,257.647 64.665C253.716 64.665,249.026 67.978,249.026 71.685"/></g><path stroke="none" d="M270.018 45.945C268.109 43.446,264.739 40.61,263.223 38.391C262.605 37.521,262.296 36.51,262.072 35.583C264.178 35.583,266.817 38.139,268.277 40.048C269.85 42.098,270.215 43.755,270.215 45.299C270.215 45.58,270.159 45.889,270.159 46.17C270.131 46.113,270.046 46.029,270.018 45.945M269.12 52.179C268.025 50.747,266.817 49.511,264.824 47.517C263.251 45.945,262.521 44.513,262.24 43.502C262.212 43.277,262.156 42.996,262.072 42.631C264.178 42.631,266.817 45.159,268.277 47.068C269.85 49.146,270.215 50.803,270.215 52.319C270.215 52.824,270.159 53.246,270.131 53.751C269.794 53.133,269.429 52.6,269.12 52.179M268.277 32.719C269.85 34.769,270.215 36.398,270.215 37.942C270.215 38.335,270.159 38.728,270.131 39.093C270.103 39.065,270.046 38.981,270.018 38.953C268.109 36.426,264.739 33.449,263.223 31.175C262.521 30.164,262.156 28.985,262.016 28.03L262.072 28.03C264.15 28.03,266.761 30.81,268.277 32.719M260.668 48.5C260.668 48.556,261.005 48.781,261.285 48.837C262.324 49.258,265.469 51.224,267.912 54.846C269.288 56.896,269.569 58.356,269.597 59.732C269.597 59.957,269.597 60.181,269.569 60.406C269.569 61.417,269.288 63.439,268.67 65.067C268.642 65.264,268.502 65.517,268.502 65.713C268.502 65.91,268.586 66.078,268.783 66.162C268.867 66.191,268.951 66.247,269.007 66.247C269.288 66.191,269.429 65.91,269.597 65.685C270.327 64.506,271.394 62.316,271.394 60.041C271.394 58.918,271.31 57.907,271.17 57.065C271.591 55.576,271.956 53.779,271.956 51.757C271.956 50.747,271.787 49.736,271.507 48.809C271.759 47.686,271.956 46.478,271.956 45.131C271.956 45.018,271.956 44.878,271.956 44.737C271.956 43.642,271.787 42.575,271.422 41.536C271.703 40.413,271.956 39.234,271.956 37.774C271.956 37.661,271.956 37.577,271.956 37.437C271.956 35.359,271.394 33.449,270.018 31.624C268.109 29.125,266.059 27.019,264.515 24.801C262.97 22.554,261.847 18.398,261.847 18.398C261.763 18.118,261.707 17.921,261.285 17.921C260.78 17.921,260.668 18.118,260.668 18.398"/></g><g class="vf-stavenote" id="vf-auto31373"><g class="vf-stem" id="vf-auto31374" pointer-events="bounding-box"><path stroke-width="1.5" fill="none" d="M286.418 93L286.418 16"/></g><g class="vf-notehead" id="vf-auto31379" pointer-events="bounding-box"><path stroke="none" d="M274.026 96.685C274.026 98.426,275.29 100.391,278.547 100.391C282.759 100.391,287.168 96.938,287.168 93.371C287.168 90.985,285.146 89.665,282.647 89.665C278.716 89.665,274.026 92.978,274.026 96.685"/></g><g class="vf-notehead" id="vf-auto31380" pointer-events="bounding-box"><path stroke="none" d="M274.026 86.685C274.026 88.426,275.29 90.391,278.547 90.391C282.759 90.391,287.168 86.938,287.168 83.371C287.168 80.985,285.146 79.665,282.647 79.665C278.716 79.665,274.026 82.978,274.026 86.685"/></g><g class="vf-notehead" id="vf-auto31381" pointer-events="bounding-box"><path stroke="none" d="M274.026 71.685C274.026 73.426,275.29 75.391,278.547 75.391C282.759 75.391,287.168 71.938,287.168 68.371C287.168 65.985,285.146 64.665,282.647 64.665C278.716 64.665,274.026 67.978,274.026 71.685"/></g><path stroke="none" d="M285.668 48.444C285.668 48.528,286.005 48.725,286.285 48.809C287.324 49.174,290.469 51.196,292.912 54.79C294.288 56.868,294.597 58.3,294.597 59.676C294.597 59.929,294.597 60.125,294.569 60.378C294.569 61.389,294.288 63.411,293.67 65.011C293.642 65.236,293.502 65.46,293.502 65.685C293.502 65.882,293.586 66.022,293.783 66.106C293.867 66.162,293.923 66.162,294.007 66.191C294.288 66.191,294.429 65.826,294.597 65.629C295.327 64.45,296.394 62.287,296.394 60.013C296.394 58.89,296.31 57.907,296.17 57.065C296.591 55.52,296.956 53.779,296.956 51.757C296.956 50.662,296.787 49.567,296.422 48.556C296.787 47.124,296.956 45.692,296.956 44.204C296.956 43.081,296.787 42.014,296.394 40.975C296.787 39.458,296.956 38.054,296.956 36.51C296.956 35.415,296.787 34.376,296.422 33.393C296.787 32.017,296.956 30.726,296.956 29.35C296.956 27.272,296.394 25.025,295.018 23.228C293.109 20.701,291.059 18.595,289.515 16.377C287.97 14.158,286.959 10.733,286.847 10.311C286.763 10.031,286.707 9.834,286.285 9.834C285.78 9.834,285.668 10.031,285.668 10.311M293.277 24.295C294.878 26.401,295.215 28.226,295.215 29.883C295.215 30.248,295.159 30.585,295.159 30.95C295.103 30.866,295.046 30.782,295.018 30.726C293.109 28.226,289.739 25.25,288.223 22.975C287.521 21.965,287.156 20.785,287.016 19.83L287.072 19.83C289.15 19.83,291.761 22.414,293.277 24.295M294.12 52.122C293.025 50.718,291.817 49.651,289.824 47.686C288.251 46.057,287.521 44.794,287.24 43.755C287.212 43.502,287.128 43.081,287.044 42.631L287.072 42.631C289.15 42.631,291.761 45.131,293.277 47.04C294.85 49.146,295.215 50.803,295.215 52.319C295.215 52.824,295.159 53.246,295.131 53.695C294.794 53.105,294.429 52.572,294.12 52.122M295.018 45.945C293.109 43.446,289.739 40.61,288.223 38.391C287.521 37.324,287.156 36.117,287.016 35.05L287.016 35.05L287.072 35.05C289.15 35.05,291.761 37.577,293.277 39.515C294.85 41.564,295.215 43.221,295.215 44.766C295.215 45.215,295.159 45.692,295.131 46.141C295.103 46.057,295.046 46.029,295.018 45.945M295.018 38.391C293.109 35.864,289.739 32.888,288.223 30.641C287.493 29.602,287.156 28.395,287.016 27.384L287.016 27.384L287.072 27.384C289.15 27.384,291.761 29.939,293.277 31.821C294.85 33.899,295.215 35.583,295.215 37.128C295.215 37.605,295.159 38.082,295.131 38.532C295.103 38.504,295.046 38.448,295.018 38.391"/></g><g class="vf-stavenote" id="vf-auto31383"><path stroke-width="1.4" fill="none" stroke="#444" d="M296.026 120L323.788 120"/><path stroke-width="1.4" fill="none" stroke="#444" d="M296.026 130L323.788 130"/><g class="vf-notehead" id="vf-auto31390" pointer-events="bounding-box"><path stroke="none" d="M299.953 122.755C299.784 122.755,299.756 122.755,299.588 122.755C299.279 122.755,299.026 123.008,299.026 123.317C299.026 123.654,299.026 136.346,299.026 136.627C299.026 136.908,299.279 137.188,299.588 137.188C299.756 137.188,299.784 137.188,299.953 137.188C300.234 137.188,300.514 136.88,300.514 136.627C300.514 136.402,300.514 123.654,300.514 123.317C300.514 123.008,300.29 122.755,299.953 122.755M317.25 122.755C317.11 122.755,317.054 122.755,316.885 122.755C316.576 122.755,316.324 123.008,316.324 123.317C316.324 123.401,316.324 124.749,316.324 126.49C315.116 125.311,313.066 124.496,309.949 124.496C306.776 124.496,304.726 125.311,303.519 126.49C303.519 124.749,303.519 123.401,303.519 123.317C303.519 123.008,303.266 122.755,302.957 122.755C302.789 122.755,302.733 122.755,302.592 122.755C302.255 122.755,302.031 123.008,302.031 123.317C302.031 123.654,302.031 136.346,302.031 136.627C302.031 136.908,302.255 137.188,302.592 137.188C302.733 137.188,302.789 137.188,302.957 137.188C303.238 137.188,303.519 136.88,303.519 136.627C303.519 136.543,303.519 135.223,303.519 133.426C304.726 134.661,306.776 135.448,309.949 135.448C313.066 135.448,315.116 134.661,316.324 133.426C316.324 135.223,316.324 136.543,316.324 136.627C316.324 136.908,316.576 137.188,316.885 137.188C317.054 137.188,317.11 137.188,317.25 137.188C317.559 137.188,317.84 136.88,317.84 136.627C317.84 136.402,317.84 123.654,317.84 123.317C317.84 123.008,317.587 122.755,317.25 122.755M311.999 133.931C311.522 134.044,310.876 134.156,310.258 134.156C309.135 134.156,308.377 133.791,307.843 132.836C307.31 131.825,306.58 129.186,306.552 128.091C306.552 128.006,306.552 127.95,306.552 127.866C306.552 126.939,306.945 126.35,307.843 126.041C308.321 125.928,308.967 125.788,309.612 125.788C310.708 125.788,311.438 126.069,311.999 127.136C312.561 128.231,313.347 130.814,313.347 131.853C313.347 132.92,312.982 133.594,311.999 133.931M320.227 122.755C320.058 122.755,320.002 122.755,319.862 122.755C319.525 122.755,319.272 123.008,319.272 123.317C319.272 123.654,319.272 136.346,319.272 136.627C319.272 136.908,319.525 137.188,319.862 137.188C320.002 137.188,320.058 137.188,320.227 137.188C320.507 137.188,320.788 136.88,320.788 136.627C320.788 136.402,320.788 123.654,320.788 123.317C320.788 123.008,320.536 122.755,320.227 122.755"/></g><g class="vf-notehead" id="vf-auto31389" pointer-events="bounding-box"><path stroke="none" d="M299.953 112.755C299.784 112.755,299.756 112.755,299.588 112.755C299.279 112.755,299.026 113.008,299.026 113.317C299.026 113.654,299.026 126.346,299.026 126.627C299.026 126.908,299.279 127.188,299.588 127.188C299.756 127.188,299.784 127.188,299.953 127.188C300.234 127.188,300.514 126.88,300.514 126.627C300.514 126.402,300.514 113.654,300.514 113.317C300.514 113.008,300.29 112.755,299.953 112.755M317.25 112.755C317.11 112.755,317.054 112.755,316.885 112.755C316.576 112.755,316.324 113.008,316.324 113.317C316.324 113.401,316.324 114.749,316.324 116.49C315.116 115.311,313.066 114.496,309.949 114.496C306.776 114.496,304.726 115.311,303.519 116.49C303.519 114.749,303.519 113.401,303.519 113.317C303.519 113.008,303.266 112.755,302.957 112.755C302.789 112.755,302.733 112.755,302.592 112.755C302.255 112.755,302.031 113.008,302.031 113.317C302.031 113.654,302.031 126.346,302.031 126.627C302.031 126.908,302.255 127.188,302.592 127.188C302.733 127.188,302.789 127.188,302.957 127.188C303.238 127.188,303.519 126.88,303.519 126.627C303.519 126.543,303.519 125.223,303.519 123.426C304.726 124.661,306.776 125.448,309.949 125.448C313.066 125.448,315.116 124.661,316.324 123.426C316.324 125.223,316.324 126.543,316.324 126.627C316.324 126.908,316.576 127.188,316.885 127.188C317.054 127.188,317.11 127.188,317.25 127.188C317.559 127.188,317.84 126.88,317.84 126.627C317.84 126.402,317.84 113.654,317.84 113.317C317.84 113.008,317.587 112.755,317.25 112.755M311.999 123.931C311.522 124.044,310.876 124.156,310.258 124.156C309.135 124.156,308.377 123.791,307.843 122.836C307.31 121.825,306.58 119.186,306.552 118.091C306.552 118.006,306.552 117.95,306.552 117.866C306.552 116.939,306.945 116.35,307.843 116.041C308.321 115.928,308.967 115.788,309.612 115.788C310.708 115.788,311.438 116.069,311.999 117.136C312.561 118.231,313.347 120.814,313.347 121.853C313.347 122.92,312.982 123.594,311.999 123.931M320.227 112.755C320.058 112.755,320.002 112.755,319.862 112.755C319.525 112.755,319.272 113.008,319.272 113.317C319.272 113.654,319.272 126.346,319.272 126.627C319.272 126.908,319.525 127.188,319.862 127.188C320.002 127.188,320.058 127.188,320.227 127.188C320.507 127.188,320.788 126.88,320.788 126.627C320.788 126.402,320.788 113.654,320.788 113.317C320.788 113.008,320.536 112.755,320.227 112.755"/></g><g class="vf-notehead" id="vf-auto31388" pointer-events="bounding-box"><path stroke="none" d="M299.953 97.755C299.784 97.755,299.756 97.755,299.588 97.755C299.279 97.755,299.026 98.008,299.026 98.317C299.026 98.654,299.026 111.346,299.026 111.627C299.026 111.908,299.279 112.188,299.588 112.188C299.756 112.188,299.784 112.188,299.953 112.188C300.234 112.188,300.514 111.88,300.514 111.627C300.514 111.402,300.514 98.654,300.514 98.317C300.514 98.008,300.29 97.755,299.953 97.755M317.25 97.755C317.11 97.755,317.054 97.755,316.885 97.755C316.576 97.755,316.324 98.008,316.324 98.317C316.324 98.401,316.324 99.749,316.324 101.49C315.116 100.311,313.066 99.496,309.949 99.496C306.776 99.496,304.726 100.311,303.519 101.49C303.519 99.749,303.519 98.401,303.519 98.317C303.519 98.008,303.266 97.755,302.957 97.755C302.789 97.755,302.733 97.755,302.592 97.755C302.255 97.755,302.031 98.008,302.031 98.317C302.031 98.654,302.031 111.346,302.031 111.627C302.031 111.908,302.255 112.188,302.592 112.188C302.733 112.188,302.789 112.188,302.957 112.188C303.238 112.188,303.519 111.88,303.519 111.627C303.519 111.543,303.519 110.223,303.519 108.426C304.726 109.661,306.776 110.448,309.949 110.448C313.066 110.448,315.116 109.661,316.324 108.426C316.324 110.223,316.324 111.543,316.324 111.627C316.324 111.908,316.576 112.188,316.885 112.188C317.054 112.188,317.11 112.188,317.25 112.188C317.559 112.188,317.84 111.88,317.84 111.627C317.84 111.402,317.84 98.654,317.84 98.317C317.84 98.008,317.587 97.755,317.25 97.755M311.999 108.931C311.522 109.044,310.876 109.156,310.258 109.156C309.135 109.156,308.377 108.791,307.843 107.836C307.31 106.825,306.58 104.186,306.552 103.091C306.552 103.006,306.552 102.95,306.552 102.866C306.552 101.939,306.945 101.35,307.843 101.041C308.321 100.928,308.967 100.788,309.612 100.788C310.708 100.788,311.438 101.069,311.999 102.136C312.561 103.231,313.347 105.814,313.347 106.853C313.347 107.92,312.982 108.594,311.999 108.931M320.227 97.755C320.058 97.755,320.002 97.755,319.862 97.755C319.525 97.755,319.272 98.008,319.272 98.317C319.272 98.654,319.272 111.346,319.272 111.627C319.272 111.908,319.525 112.188,319.862 112.188C320.002 112.188,320.058 112.188,320.227 112.188C320.507 112.188,320.788 111.88,320.788 111.627C320.788 111.402,320.788 98.654,320.788 98.317C320.788 98.008,320.536 97.755,320.227 97.755"/></g></g><g class="vf-stavenote" id="vf-auto31391"><path stroke-width="1.4" fill="none" stroke="#444" d="M321.026 120L342.105 120"/><path stroke-width="1.4" fill="none" stroke="#444" d="M321.026 130L342.105 130"/><g class="vf-notehead" id="vf-auto31398" pointer-events="bounding-box"><path stroke="none" d="M331.58 124.496C326.02 124.496,324.026 127.332,324.026 129.972C324.026 132.583,326.02 135.419,331.58 135.419C337.168 135.419,339.105 132.583,339.105 129.972C339.105 127.332,337.168 124.496,331.58 124.496M333.658 133.875C333.152 134.044,332.506 134.128,331.917 134.128C330.765 134.128,330.007 133.791,329.474 132.78C328.968 131.769,328.238 129.186,328.182 128.091C328.098 126.995,328.519 126.35,329.474 126.041C329.979 125.872,330.625 125.788,331.215 125.788C332.366 125.788,333.096 126.041,333.658 127.136C334.219 128.231,334.949 130.814,334.949 131.825C334.949 132.864,334.612 133.594,333.658 133.875"/></g><g class="vf-notehead" id="vf-auto31397" pointer-events="bounding-box"><path stroke="none" d="M331.58 114.496C326.02 114.496,324.026 117.332,324.026 119.972C324.026 122.583,326.02 125.419,331.58 125.419C337.168 125.419,339.105 122.583,339.105 119.972C339.105 117.332,337.168 114.496,331.58 114.496M333.658 123.875C333.152 124.044,332.506 124.128,331.917 124.128C330.765 124.128,330.007 123.791,329.474 122.78C328.968 121.769,328.238 119.186,328.182 118.091C328.098 116.995,328.519 116.35,329.474 116.041C329.979 115.872,330.625 115.788,331.215 115.788C332.366 115.788,333.096 116.041,333.658 117.136C334.219 118.231,334.949 120.814,334.949 121.825C334.949 122.864,334.612 123.594,333.658 123.875"/></g><g class="vf-notehead" id="vf-auto31396" pointer-events="bounding-box"><path stroke="none" d="M331.58 99.496C326.02 99.496,324.026 102.332,324.026 104.972C324.026 107.583,326.02 110.419,331.58 110.419C337.168 110.419,339.105 107.583,339.105 104.972C339.105 102.332,337.168 99.496,331.58 99.496M333.658 108.875C333.152 109.044,332.506 109.128,331.917 109.128C330.765 109.128,330.007 108.791,329.474 107.78C328.968 106.769,328.238 104.186,328.182 103.091C328.098 101.995,328.519 101.35,329.474 101.041C329.979 100.872,330.625 100.788,331.215 100.788C332.366 100.788,333.096 101.041,333.658 102.136C334.219 103.231,334.949 105.814,334.949 106.825C334.949 107.864,334.612 108.594,333.658 108.875"/></g></g><g class="vf-stavenote" id="vf-auto31399"><path stroke-width="1.4" fill="none" stroke="#444" d="M346.026 120L365.168 120"/><path stroke-width="1.4" fill="none" stroke="#444" d="M346.026 130L365.168 130"/><g class="vf-stem" id="vf-auto31400" pointer-events="bounding-box"><path stroke-width="1.5" fill="none" d="M349.776 107.65L349.776 165"/></g><g class="vf-notehead" id="vf-auto31406" pointer-events="bounding-box"><path stroke="none" d="M357.647 124.665C353.716 124.665,349.026 127.95,349.026 131.685C349.026 133.426,350.29 135.391,353.547 135.391C357.759 135.391,362.168 131.938,362.168 128.371C362.168 125.985,360.146 124.665,357.647 124.665M356.552 131.769C356.439 131.853,353.463 133.482,352.059 133.482C350.711 133.482,350.43 132.387,350.43 132.022C350.43 130.337,354.474 128.343,354.642 128.259C354.811 128.175,357.675 126.574,359.135 126.574C360.118 126.574,360.764 127.136,360.764 128.006C360.764 129.747,356.664 131.685,356.552 131.769"/></g><g class="vf-notehead" id="vf-auto31405" pointer-events="bounding-box"><path stroke="none" d="M357.647 114.665C353.716 114.665,349.026 117.95,349.026 121.685C349.026 123.426,350.29 125.391,353.547 125.391C357.759 125.391,362.168 121.938,362.168 118.371C362.168 115.985,360.146 114.665,357.647 114.665M356.552 121.769C356.439 121.853,353.463 123.482,352.059 123.482C350.711 123.482,350.43 122.387,350.43 122.022C350.43 120.337,354.474 118.343,354.642 118.259C354.811 118.175,357.675 116.574,359.135 116.574C360.118 116.574,360.764 117.136,360.764 118.006C360.764 119.747,356.664 121.685,356.552 121.769"/></g><g class="vf-notehead" id="vf-auto31404" pointer-events="bounding-box"><path stroke="none" d="M357.647 99.665C353.716 99.665,349.026 102.95,349.026 106.685C349.026 108.426,350.29 110.391,353.547 110.391C357.759 110.391,362.168 106.938,362.168 103.371C362.168 100.985,360.146 99.665,357.647 99.665M356.552 106.769C356.439 106.853,353.463 108.482,352.059 108.482C350.711 108.482,350.43 107.387,350.43 107.022C350.43 105.337,354.474 103.343,354.642 103.259C354.811 103.175,357.675 101.574,359.135 101.574C360.118 101.574,360.764 102.136,360.764 103.006C360.764 104.747,356.664 106.685,356.552 106.769"/></g></g><g class="vf-stavenote" id="vf-auto31407"><path stroke-width="1.4" fill="none" stroke="#444" d="M371.026 120L390.168 120"/><path stroke-width="1.4" fill="none" stroke="#444" d="M371.026 130L390.168 130"/><g class="vf-stem" id="vf-auto31408" pointer-events="bounding-box"><path stroke-width="1.5" fill="none" d="M374.776 107L374.776 165"/></g><g class="vf-notehead" id="vf-auto31414" pointer-events="bounding-box"><path stroke="none" d="M374.026 131.685C374.026 133.426,375.29 135.391,378.547 135.391C382.759 135.391,387.168 131.938,387.168 128.371C387.168 125.985,385.146 124.665,382.647 124.665C378.716 124.665,374.026 127.978,374.026 131.685"/></g><g class="vf-notehead" id="vf-auto31413" pointer-events="bounding-box"><path stroke="none" d="M374.026 121.685C374.026 123.426,375.29 125.391,378.547 125.391C382.759 125.391,387.168 121.938,387.168 118.371C387.168 115.985,385.146 114.665,382.647 114.665C378.716 114.665,374.026 117.978,374.026 121.685"/></g><g class="vf-notehead" id="vf-auto31412" pointer-events="bounding-box"><path stroke="none" d="M374.026 106.685C374.026 108.426,375.29 110.391,378.547 110.391C382.759 110.391,387.168 106.938,387.168 103.371C387.168 100.985,385.146 99.665,382.647 99.665C378.716 99.665,374.026 102.978,374.026 106.685"/></g></g><g class="vf-stavenote" id="vf-auto31415"><path stroke-width="1.4" fill="none" stroke="#444" d="M396.026 120L415.168 120"/><path stroke-width="1.4" fill="none" stroke="#444" d="M396.026 130L415.168 130"/><g class="vf-stem" id="vf-auto31416" pointer-events="bounding-box"><path stroke-width="1.5" fill="none" d="M399.776 107L399.776 162"/></g><g class="vf-notehead" id="vf-auto31423" pointer-events="bounding-box"><path stroke="none" d="M399.026 131.685C399.026 133.426,400.29 135.391,403.547 135.391C407.759 135.391,412.168 131.938,412.168 128.371C412.168 125.985,410.146 124.665,407.647 124.665C403.716 124.665,399.026 127.978,399.026 131.685"/></g><g class="vf-notehead" id="vf-auto31422" pointer-events="bounding-box"><path stroke="none" d="M399.026 121.685C399.026 123.426,400.29 125.391,403.547 125.391C407.759 125.391,412.168 121.938,412.168 118.371C412.168 115.985,410.146 114.665,407.647 114.665C403.716 114.665,399.026 117.978,399.026 121.685"/></g><g class="vf-notehead" id="vf-auto31421" pointer-events="bounding-box"><path stroke="none" d="M399.026 106.685C399.026 108.426,400.29 110.391,403.547 110.391C407.759 110.391,412.168 106.938,412.168 103.371C412.168 100.985,410.146 99.665,407.647 99.665C403.716 99.665,399.026 102.978,399.026 106.685"/></g><path stroke="none" d="M399.026 166.972C399.026 167.253,399.279 167.477,399.56 167.477C399.756 167.477,400.009 167.337,400.037 167.168C400.037 167.112,400.402 165.708,400.43 165.596C400.486 165.428,400.851 163.883,402.312 161.496C403.884 158.885,406.299 156.975,408.321 154.139C410.314 151.303,411.522 148.636,411.522 145.098C411.522 141.391,410.679 138.33,408.517 134.399C408.405 134.118,408.152 133.978,407.928 133.978C407.843 133.978,407.759 133.978,407.731 134.006C407.506 134.09,407.45 134.259,407.45 134.483C407.45 134.624,407.478 134.82,407.563 134.989C409.163 138.723,409.809 140.886,409.809 143.778C409.809 147.147,408.658 148.888,407.928 150.152C405.288 154.617,401.048 156.807,399.363 157.369C399.054 157.509,399.026 157.706,399.026 157.818"/></g><g class="vf-stavenote" id="vf-auto31425"><path stroke-width="1.4" fill="none" stroke="#444" d="M421.026 120L440.168 120"/><path stroke-width="1.4" fill="none" stroke="#444" d="M421.026 130L440.168 130"/><g class="vf-stem" id="vf-auto31426" pointer-events="bounding-box"><path stroke-width="1.5" fill="none" d="M424.776 107L424.776 162"/></g><g class="vf-notehead" id="vf-auto31433" pointer-events="bounding-box"><path stroke="none" d="M424.026 131.685C424.026 133.426,425.29 135.391,428.547 135.391C432.759 135.391,437.168 131.938,437.168 128.371C437.168 125.985,435.146 124.665,432.647 124.665C428.716 124.665,424.026 127.978,424.026 131.685"/></g><g class="vf-notehead" id="vf-auto31432" pointer-events="bounding-box"><path stroke="none" d="M424.026 121.685C424.026 123.426,425.29 125.391,428.547 125.391C432.759 125.391,437.168 121.938,437.168 118.371C437.168 115.985,435.146 114.665,432.647 114.665C428.716 114.665,424.026 117.978,424.026 121.685"/></g><g class="vf-notehead" id="vf-auto31431" pointer-events="bounding-box"><path stroke="none" d="M424.026 106.685C424.026 108.426,425.29 110.391,428.547 110.391C432.759 110.391,437.168 106.938,437.168 103.371C437.168 100.985,435.146 99.665,432.647 99.665C428.716 99.665,424.026 102.978,424.026 106.685"/></g><path stroke="none" d="M425.514 157.284C425.571 157.088,425.599 156.919,425.599 156.807C425.88 155.796,426.216 154.308,428.603 152.483C430.934 150.657,433.742 148.411,434.809 146.445C434.753 149.562,433.967 151.5,432.928 152.876C430.457 155.908,427.452 156.779,425.514 157.284M424.026 167.393C424.026 167.73,424.307 168.039,424.644 168.039C424.953 168.039,425.149 167.73,425.234 167.393C425.851 163.237,427.087 162.03,428.716 160.485C430.85 158.436,436.522 155.319,436.522 147.821C436.522 146.502,436.41 145.013,436.157 143.497C436.325 142.992,436.41 142.262,436.41 141.194C436.41 138.021,434.528 135.775,433.208 134.736C433.04 134.624,432.787 134.54,432.563 134.54C432.394 134.54,432.226 134.568,432.085 134.652C431.917 134.736,431.861 134.764,431.861 134.848C431.861 134.989,432.113 135.129,432.282 135.298C433.686 136.786,434.753 138.162,434.753 140.886C434.753 141.391,434.697 141.925,434.528 142.402L434.5 142.542C434.5 142.542,434.5 142.542,434.5 142.542C434.304 143.357,433.854 144.115,433.208 144.845C430.372 148.13,426.441 149.815,424.644 150.208C424.363 150.349,424.026 151.219,424.026 151.303"/></g><g class="vf-stavenote" id="vf-auto31435"><path stroke-width="1.4" fill="none" stroke="#444" d="M446.026 120L465.168 120"/><path stroke-width="1.4" fill="none" stroke="#444" d="M446.026 130L465.168 130"/><g class="vf-stem" id="vf-auto31436" pointer-events="bounding-box"><path stroke-width="1.5" fill="none" d="M449.776 107L449.776 171"/></g><g class="vf-notehead" id="vf-auto31443" pointer-events="bounding-box"><path stroke="none" d="M449.026 131.685C449.026 133.426,450.29 135.391,453.547 135.391C457.759 135.391,462.168 131.938,462.168 128.371C462.168 125.985,460.146 124.665,457.647 124.665C453.716 124.665,449.026 127.978,449.026 131.685"/></g><g class="vf-notehead" id="vf-auto31442" pointer-events="bounding-box"><path stroke="none" d="M449.026 121.685C449.026 123.426,450.29 125.391,453.547 125.391C457.759 125.391,462.168 121.938,462.168 118.371C462.168 115.985,460.146 114.665,457.647 114.665C453.716 114.665,449.026 117.978,449.026 121.685"/></g><g class="vf-notehead" id="vf-auto31441" pointer-events="bounding-box"><path stroke="none" d="M449.026 106.685C449.026 108.426,450.29 110.391,453.547 110.391C457.759 110.391,462.168 106.938,462.168 103.371C462.168 100.985,460.146 99.665,457.647 99.665C453.716 99.665,449.026 102.978,449.026 106.685"/></g><path stroke="none" d="M450.43 164.95C450.655 164.052,451.02 163.041,451.582 162.198C453.098 159.952,456.664 158.099,458.77 155.712C459.163 155.263,459.528 154.785,459.809 154.252C459.809 157.256,459.163 158.941,458.124 160.289C455.625 163.35,452.452 164.36,450.43 164.95M453.603 152.483C455.99 150.461,458.208 148.973,459.304 147.541C459.472 147.344,459.612 147.119,459.753 146.895C459.781 147.119,459.781 147.344,459.781 147.541C459.781 149.562,459.107 151.219,457.843 152.82C456.271 154.757,454.053 156.049,450.514 157.369C450.571 157.144,450.599 156.919,450.599 156.807C450.88 155.768,451.301 154.392,453.603 152.483M449.026 175.087C449.026 175.368,449.307 175.733,449.644 175.733C449.953 175.733,450.149 175.424,450.234 175.087C450.851 170.875,452.087 169.668,453.716 168.123C455.85 166.101,461.522 162.985,461.522 155.515C461.522 154.027,461.353 152.398,461.129 150.798C461.241 150.096,461.353 149.422,461.41 148.72C461.41 148.523,461.41 148.271,461.41 148.046C461.41 147.906,461.41 147.793,461.41 147.709C461.41 146.502,461.185 145.322,460.96 144.311C461.241 143.413,461.41 142.402,461.41 141.194C461.41 138.021,459.528 135.775,458.208 134.736C458.04 134.624,457.843 134.54,457.591 134.54C457.45 134.54,457.226 134.568,457.085 134.652C456.917 134.736,456.861 134.764,456.861 134.848C456.861 134.989,457.113 135.101,457.282 135.298C458.686 136.786,459.753 138.162,459.753 140.886C459.753 142.374,459.247 143.637,458.208 144.845C455.372 148.13,451.441 149.815,449.644 150.208C449.363 150.349,449.026 151.219,449.026 151.303"/></g><g class="vf-stavenote" id="vf-auto31445"><path stroke-width="1.4" fill="none" stroke="#444" d="M471.026 120L490.168 120"/><path stroke-width="1.4" fill="none" stroke="#444" d="M471.026 130L490.168 130"/><g class="vf-stem" id="vf-auto31446" pointer-events="bounding-box"><path stroke-width="1.5" fill="none" d="M474.776 107L474.776 175"/></g><g class="vf-notehead" id="vf-auto31453" pointer-events="bounding-box"><path stroke="none" d="M474.026 131.685C474.026 133.426,475.29 135.391,478.547 135.391C482.759 135.391,487.168 131.938,487.168 128.371C487.168 125.985,485.146 124.665,482.647 124.665C478.716 124.665,474.026 127.978,474.026 131.685"/></g><g class="vf-notehead" id="vf-auto31452" pointer-events="bounding-box"><path stroke="none" d="M474.026 121.685C474.026 123.426,475.29 125.391,478.547 125.391C482.759 125.391,487.168 121.938,487.168 118.371C487.168 115.985,485.146 114.665,482.647 114.665C478.716 114.665,474.026 117.978,474.026 121.685"/></g><g class="vf-notehead" id="vf-auto31451" pointer-events="bounding-box"><path stroke="none" d="M474.026 106.685C474.026 108.426,475.29 110.391,478.547 110.391C482.759 110.391,487.168 106.938,487.168 103.371C487.168 100.985,485.146 99.665,482.647 99.665C478.716 99.665,474.026 102.978,474.026 106.685"/></g><path stroke="none" d="M475.486 172.504C475.683 171.661,476.02 170.678,476.582 169.864C478.098 167.646,481.664 165.736,483.77 163.406C484.163 162.928,484.528 162.423,484.809 161.946C484.809 164.866,484.163 166.551,483.124 167.842C480.625 170.931,477.508 171.942,475.486 172.504M478.603 152.483C480.99 150.461,483.208 148.916,484.304 147.541C484.472 147.316,484.612 147.119,484.753 146.867C484.781 147.119,484.781 147.316,484.781 147.541C484.781 149.562,484.107 151.219,482.843 152.82C481.271 154.701,479.053 156.049,475.514 157.369C475.571 157.144,475.599 156.919,475.599 156.807C475.88 155.768,476.301 154.392,478.603 152.483M482.843 160.485C481.271 162.423,479.053 163.715,475.43 165.062C475.599 164.136,475.964 163.069,476.582 162.198C478.098 159.952,481.664 158.071,483.77 155.712C484.135 155.319,484.472 154.869,484.753 154.392C484.781 154.673,484.781 154.954,484.781 155.206C484.781 157.228,484.107 158.913,482.843 160.485M474.026 182.641C474.026 182.921,474.307 183.286,474.644 183.286C474.953 183.286,475.149 182.921,475.234 182.641C475.851 178.457,477.087 177.221,478.716 175.705C480.85 173.683,486.522 170.51,486.522 163.069C486.522 161.609,486.353 160.008,486.129 158.379C486.269 157.706,486.353 157.06,486.41 156.414C486.41 156.133,486.41 155.852,486.41 155.6C486.41 155.487,486.41 155.403,486.41 155.263C486.41 153.971,486.157 152.763,485.904 151.668C486.157 150.657,486.325 149.647,486.41 148.72C486.41 148.467,486.41 148.271,486.41 148.046C486.41 147.906,486.41 147.793,486.41 147.681C486.41 146.502,486.185 145.322,485.96 144.311C486.241 143.413,486.41 142.402,486.41 141.194C486.41 138.021,484.528 135.775,483.208 134.736C483.04 134.624,482.843 134.54,482.591 134.483C482.45 134.483,482.226 134.54,482.085 134.652C481.917 134.68,481.861 134.764,481.861 134.848C481.861 134.989,482.113 135.101,482.282 135.298C483.686 136.786,484.753 138.162,484.753 140.886C484.753 142.374,484.247 143.637,483.208 144.845C480.372 148.13,476.441 149.815,474.644 150.208C474.363 150.349,474.026 151.191,474.026 151.303"/></g><g class="vf-stavenote" id="vf-auto31455"><path stroke-width="1.4" fill="none" stroke="#444" d="M496.026 120L515.168 120"/><path stroke-width="1.4" fill="none" stroke="#444" d="M496.026 130L515.168 130"/><g class="vf-stem" id="vf-auto31456" pointer-events="bounding-box"><path stroke-width="1.5" fill="none" d="M499.776 107L499.776 184"/></g><g class="vf-notehead" id="vf-auto31463" pointer-events="bounding-box"><path stroke="none" d="M499.026 131.685C499.026 133.426,500.29 135.391,503.547 135.391C507.759 135.391,512.168 131.938,512.168 128.371C512.168 125.985,510.146 124.665,507.647 124.665C503.716 124.665,499.026 127.978,499.026 131.685"/></g><g class="vf-notehead" id="vf-auto31462" pointer-events="bounding-box"><path stroke="none" d="M499.026 121.685C499.026 123.426,500.29 125.391,503.547 125.391C507.759 125.391,512.168 121.938,512.168 118.371C512.168 115.985,510.146 114.665,507.647 114.665C503.716 114.665,499.026 117.978,499.026 121.685"/></g><g class="vf-notehead" id="vf-auto31461" pointer-events="bounding-box"><path stroke="none" d="M499.026 106.685C499.026 108.426,500.29 110.391,503.547 110.391C507.759 110.391,512.168 106.938,512.168 103.371C512.168 100.985,510.146 99.665,507.647 99.665C503.716 99.665,499.026 102.978,499.026 106.685"/></g><path stroke="none" d="M499.026 190.25C499.026 190.531,499.307 190.896,499.644 190.896C499.953 190.896,500.149 190.587,500.234 190.25C500.851 186.038,502.087 184.831,503.716 183.286C505.85 181.265,511.522 178.148,511.522 170.678C511.522 169.218,511.353 167.618,511.129 165.989C511.269 165.315,511.353 164.613,511.41 163.967C511.41 163.715,511.41 163.434,511.41 163.153C511.41 163.069,511.41 162.956,511.41 162.872C511.41 161.581,511.157 160.373,510.904 159.278C511.185 158.295,511.325 157.34,511.41 156.414C511.41 156.133,511.41 155.88,511.41 155.6C511.41 155.487,511.41 155.403,511.41 155.263C511.41 153.971,511.157 152.763,510.904 151.668C511.157 150.657,511.325 149.703,511.41 148.776C511.41 148.523,511.41 148.271,511.41 148.046C511.41 147.906,511.41 147.793,511.41 147.709C511.41 146.502,511.185 145.322,510.96 144.311C511.241 143.413,511.41 142.402,511.41 141.194C511.41 138.021,509.528 135.775,508.208 134.736C508.04 134.624,507.787 134.54,507.563 134.54C507.394 134.54,507.226 134.568,507.085 134.652C506.917 134.736,506.861 134.764,506.861 134.848C506.861 134.989,507.113 135.129,507.282 135.298C508.686 136.786,509.753 138.162,509.753 140.886C509.753 142.374,509.247 143.637,508.208 144.845C505.372 148.13,501.441 149.815,499.644 150.208C499.363 150.349,499.026 151.219,499.026 151.303M507.843 168.039C506.271 170.005,504.053 171.296,500.43 172.616C500.655 171.717,501.02 170.707,501.582 169.864C503.098 167.646,506.664 165.736,508.77 163.406C509.135 162.985,509.472 162.507,509.753 162.058C509.781 162.311,509.781 162.507,509.781 162.76C509.781 164.782,509.107 166.466,507.843 168.039M507.843 160.485C506.271 162.423,504.053 163.715,500.43 165.062C500.599 164.164,500.964 163.125,501.582 162.198C503.098 159.952,506.664 158.099,508.77 155.712C509.135 155.319,509.472 154.869,509.753 154.392C509.781 154.673,509.781 154.954,509.781 155.206C509.781 157.256,509.107 158.913,507.843 160.485M503.603 152.483C505.99 150.461,508.208 148.973,509.304 147.541C509.472 147.344,509.612 147.119,509.753 146.895C509.781 147.119,509.781 147.344,509.781 147.541C509.753 149.562,509.107 151.275,507.843 152.82C506.271 154.757,504.053 156.049,500.514 157.369C500.571 157.172,500.599 156.975,500.599 156.807C500.88 155.796,501.301 154.392,503.603 152.483M500.486 180.113C500.683 179.215,501.02 178.288,501.582 177.446C503.098 175.199,506.664 173.318,508.77 170.959C509.163 170.51,509.528 170.033,509.809 169.499C509.753 172.448,509.163 174.16,508.124 175.452C505.625 178.513,502.452 179.524,500.486 180.113"/></g><g class="vf-stavenote" id="vf-auto31465"><g class="vf-notehead" id="vf-auto31468" pointer-events="bounding-box"><path stroke="none" d="M528.463 90.449C528.828 90.449,529.081 90.168,529.081 89.832L529.081 80.004C529.081 79.695,528.828 79.414,528.463 79.414L524.644 79.414C524.307 79.414,524.026 79.695,524.026 80.004L524.026 89.832C524.026 90.168,524.307 90.449,524.644 90.449"/></g></g><g class="vf-stavenote" id="vf-auto31469"><g class="vf-notehead" id="vf-auto31472" pointer-events="bounding-box"><path stroke="none" d="M549.588 79.803C549.279 79.803,549.026 80.028,549.026 80.365L549.026 84.717C549.026 85.054,549.279 85.307,549.588 85.307L561.606 85.307C561.915 85.307,562.168 85.054,562.168 84.717L562.168 80.365C562.168 80.028,561.915 79.803,561.606 79.803"/></g></g><g class="vf-stavenote" id="vf-auto31473"><g class="vf-notehead" id="vf-auto31476" pointer-events="bounding-box"><path stroke="none" d="M574.026 89.607C574.026 90.168,574.026 90.168,574.588 90.168L586.606 90.168C587.168 90.168,587.168 90.168,587.168 89.607L587.168 85.226C587.168 84.665,587.168 84.665,586.606 84.665L574.588 84.665C574.026 84.665,574.026 84.665,574.026 85.226"/></g></g><g class="vf-stavenote" id="vf-auto31477"><g class="vf-notehead" id="vf-auto31480" pointer-events="bounding-box"><path stroke="none" d="M607.367 96.023C607.342 95.998,607.267 95.922,607.166 95.771L602.983 90.605C602.957 90.58,602.907 90.479,602.907 90.403C602.907 90.302,602.957 90.151,602.983 90.076L606.687 84.481C606.712 84.406,606.763 84.305,606.763 84.229L606.763 83.902C606.763 83.801,606.712 83.675,606.637 83.624L600.765 75.661C600.765 75.661,600.614 75.46,600.412 75.46C600.286 75.46,600.236 75.485,600.11 75.56C599.959 75.661,599.933 75.812,599.933 75.913C599.933 76.14,600.034 76.316,600.034 76.316L602.806 80.096C602.882 80.197,602.907 80.348,602.907 80.525C602.907 80.676,602.882 80.852,602.806 80.953L599.127 86.548C599.102 86.623,599.051 86.774,599.051 86.85L599.051 87.178C599.051 87.278,599.102 87.379,599.177 87.455L603.235 92.495C603.083 92.47,602.756 92.394,602.327 92.394C601.723 92.394,600.916 92.545,600.261 93.125C599.455 93.856,599.026 94.864,599.026 95.771C599.026 96.275,599.127 96.779,599.429 97.182C600.185 98.341,602.907 101.794,602.907 101.794C602.907 101.794,603.083 102.02,603.335 102.02C603.411 102.02,603.487 102.02,603.562 101.945C603.739 101.794,603.814 101.642,603.814 101.491C603.814 101.365,603.739 101.239,603.713 101.189C603.587 100.987,602.428 98.896,602.428 98.896C602.428 98.896,602.176 98.392,602.176 97.736C602.176 97.258,602.327 96.678,602.806 96.199C603.235 95.771,603.739 95.62,604.217 95.62C604.696 95.62,605.074 95.771,605.377 95.947L606.788 96.854C606.788 96.854,606.939 96.93,607.09 96.93C607.216 96.93,607.342 96.905,607.443 96.754C607.519 96.602,607.544 96.527,607.544 96.426C607.544 96.325,607.519 96.25,607.443 96.124"/></g></g><g class="vf-stavenote" id="vf-auto31481"><g class="vf-notehead" id="vf-auto31484" pointer-events="bounding-box"><path stroke="none" d="M634.809 81.801C634.781 81.801,634.697 81.744,634.669 81.744C634.416 81.744,634.219 81.885,634.135 82.081C633.967 82.306,632.731 84.693,630.906 86.041C630.372 86.434,629.726 86.715,629.081 86.855C629.53 86.322,629.811 85.676,629.811 84.918C629.811 83.317,628.519 82.025,626.947 82.025C625.318 82.025,624.026 83.317,624.026 84.918C624.026 86.153,624.784 87.164,625.851 87.613C626.441 87.894,627.255 88.091,628.07 88.091C629.249 88.091,630.485 87.726,631.58 86.939C632.085 86.574,632.563 86.069,633.012 85.591L628.407 99.996L629.474 100.305L635.146 82.475C635.174 82.446,635.174 82.362,635.174 82.278C635.174 82.081,635.062 81.913,634.809 81.801"/></g></g><g class="vf-stavenote" id="vf-auto31485"><g class="vf-notehead" id="vf-auto31488" pointer-events="bounding-box"><path stroke="none" d="M662.898 82.475C662.926 82.39,662.926 82.362,662.926 82.278C662.926 82.081,662.814 81.885,662.561 81.801C662.505 81.744,662.42 81.744,662.364 81.744C662.14 81.744,661.971 81.885,661.831 82.081C660.876 84.019,659.247 86.209,657.029 86.771C657.506 86.209,657.731 85.563,657.731 84.833C657.731 83.261,656.299 82.025,654.726 82.025C653.098 82.11,651.947 83.457,651.947 85.03C651.975 86.237,652.789 87.248,653.828 87.641C654.558 87.978,655.344 88.062,656.102 88.062C658.124 87.978,659.697 86.967,660.904 85.395L660.904 85.395L659.107 91.825C658.517 93.707,656.215 96.346,654.165 96.88C654.614 96.318,654.839 95.616,654.839 94.942C654.839 93.313,653.463 92.134,651.89 92.134C650.29 92.134,649.054 93.51,649.054 95.139C649.054 96.346,649.925 97.357,650.964 97.722C651.722 98.059,652.424 98.115,653.238 98.115C655.26 98.059,656.832 97.048,658.04 95.448L653.912 110.218L655.007 110.498"/></g></g><g class="vf-stavenote" id="vf-auto31489"><g class="vf-notehead" id="vf-auto31492" pointer-events="bounding-box"><path stroke="none" d="M680.12 88.006C683.798 88.006,685.314 85.479,685.483 85.198L683.967 91.292C683.096 93.398,681.552 96.093,679.193 96.739C679.642 96.178,679.755 95.532,679.755 94.802C679.755 93.201,678.463 92.134,676.89 92.134C675.318 92.134,674.026 93.37,674.026 94.97C674.026 97.076,675.795 98.087,677.957 98.087C680.092 98.087,681.776 96.908,683.012 95.223L679.333 110.246L680.428 110.498L689.807 72.085C689.835 72.057,689.835 71.973,689.835 71.916C689.835 71.692,689.667 71.523,689.442 71.439C689.386 71.411,689.302 71.411,689.274 71.411C689.021 71.411,688.852 71.551,688.74 71.776C687.982 73.461,686.129 75.848,684.163 76.325C684.669 75.735,684.781 75.118,684.781 74.388C684.781 72.843,683.517 71.692,681.945 71.692C680.372 71.692,679.053 72.899,679.053 74.584C679.053 75.82,679.923 76.971,681.018 77.336C681.552 77.532,682.113 77.617,682.759 77.673C682.928 77.673,683.096 77.673,683.293 77.617C685.258 77.504,686.887 76.381,688.01 74.809L686.438 81.295C685.623 83.317,683.882 86.153,681.636 86.715C682.113 86.125,682.226 85.507,682.226 84.777C682.226 83.177,680.906 82.081,679.333 82.081C677.733 82.081,676.497 83.317,676.497 84.946C676.497 86.855,678.322 88.006,680.12 88.006"/></g></g><g class="vf-stavenote" id="vf-auto31493"><g class="vf-notehead" id="vf-auto31496" pointer-events="bounding-box"><path stroke="none" d="M704.839 120.411L705.934 120.663C706.945 115.806,716.015 72.197,716.099 71.916C716.099 71.832,716.127 71.804,716.127 71.776C716.127 71.523,715.958 71.327,715.734 71.271C715.678 71.243,715.65 71.243,715.565 71.243C715.228 71.243,715.172 71.355,715.004 71.636C714.835 71.916,713.909 73.91,712.336 75.37C711.831 75.82,711.241 76.128,710.595 76.325C710.96 75.876,711.157 75.23,711.157 74.668C711.157 72.984,709.753 71.776,708.236 71.776C706.748 71.776,705.372 72.927,705.372 74.668C705.372 76.943,707.45 77.701,709.135 77.701C710.792 77.701,712.336 76.943,713.094 76.185C713.824 75.455,713.993 75.23,714.358 74.668L714.386 74.64L713.066 80.93C712.814 81.576,711.718 84.131,710.23 85.479C709.753 85.956,709.135 86.293,708.489 86.49C708.854 85.985,709.051 86.237,709.051 84.833C709.051 83.401,707.928 81.913,706.13 81.913C704.361 81.913,703.266 83.373,703.266 84.749C703.266 86.125,704.165 87.866,707.029 87.866C710.595 87.866,712.083 85.142,712.252 84.833L710.904 91.264C710.623 91.938,709.528 94.437,708.124 95.728C707.591 96.234,707.001 96.543,706.383 96.739C706.72 96.262,706.917 95.953,706.917 95.054C706.917 94.128,706.271 92.19,703.996 92.19C701.778 92.19,701.132 94.296,701.132 95.054C701.132 95.813,701.497 98.115,704.895 98.115C708.293 98.115,709.949 95.419,710.118 95.082L708.854 101.148C708.489 102.608,707.029 104.882,705.99 105.837C705.457 106.286,704.839 106.623,704.249 106.82C704.558 106.371,704.755 105.809,704.755 105.163C704.755 104.068,703.912 102.299,701.89 102.299C699.841 102.299,699.026 104.068,699.026 105.163C699.026 106.258,699.7 108.196,702.733 108.196C706.496 108.196,707.871 105.5,708.012 105.163"/></g></g><g class="vf-stavenote" id="vf-auto31497"><g class="vf-notehead" id="vf-auto31500" pointer-events="bounding-box"><path stroke="none" d="M743.036 61.134C742.896 61.05,742.756 61.021,742.671 61.021C742.391 61.021,742.25 61.134,742.11 61.415C741.941 61.695,741.015 63.689,739.442 65.121C738.937 65.57,738.347 65.907,737.701 66.104C738.066 65.627,738.263 65.009,738.263 64.447C738.263 62.734,736.831 61.527,735.342 61.527C733.854 61.527,732.478 62.706,732.478 64.447C732.478 66.722,734.528 67.48,736.241 67.48C737.898 67.48,739.442 66.722,740.2 65.935C740.93 65.205,741.099 65.009,741.464 64.447L741.492 64.391L740.172 70.709C739.92 71.355,738.824 73.91,737.336 75.23C736.831 75.735,736.241 76.044,735.595 76.241C735.96 75.763,736.157 76.016,736.157 74.584C736.157 73.18,735.034 71.692,733.236 71.692C731.467 71.692,730.372 73.152,730.372 74.5C730.372 75.876,731.271 77.617,734.135 77.617C737.701 77.617,739.189 74.921,739.358 74.584L738.01 81.014C737.729 81.716,736.634 84.187,735.23 85.507C734.697 85.985,734.107 86.322,733.489 86.49C733.798 86.041,734.023 85.704,734.023 84.833C734.023 83.907,733.377 81.941,731.102 81.941C728.884 81.941,728.238 84.047,728.238 84.833C728.238 85.591,728.603 87.866,732.001 87.866C735.399 87.866,737.055 85.198,737.196 84.861L735.96 90.927C735.595 92.387,734.135 94.661,733.096 95.616C732.563 96.065,731.945 96.402,731.355 96.599C731.664 96.15,731.861 95.588,731.861 94.942C731.861 93.847,731.018 92.022,728.996 92.022C726.947 92.022,726.132 93.847,726.132 94.942C726.132 96.037,726.806 97.975,729.839 97.975C733.602 97.975,734.977 95.251,735.118 94.942L733.77 101.485C733.293 102.945,731.945 104.967,730.99 105.893C730.457 106.343,729.839 106.651,729.249 106.848C729.558 106.371,729.755 105.837,729.755 105.191C729.755 104.068,728.912 102.299,726.89 102.299C724.841 102.299,723.998 104.124,723.998 105.191C723.998 106.286,724.7 108.224,727.733 108.224C731.215 108.224,732.647 105.921,732.956 105.332L729.811 120.439L730.906 120.691C731.917 115.834,743.121 62.032,743.205 61.695C743.205 61.667,743.233 61.527,743.233 61.499C743.233 61.358,743.205 61.246,743.036 61.134"/></g></g><g class="vf-stavenote" id="vf-auto31501"><g class="vf-stem" id="vf-auto31502" pointer-events="bounding-box"><path stroke-width="1.5" fill="none" d="M761.418 87.45L761.418 55"/></g><g class="vf-notehead" id="vf-auto31504" pointer-events="bounding-box"><path stroke="none" d="M761.971 86.125C762.083 86.041,762.168 85.872,762.168 85.704L762.168 85.676C762.168 85.507,762.083 85.395,761.999 85.311L761.522 84.833C761.41 84.749,761.269 84.665,761.129 84.665C760.988 84.665,760.82 84.693,760.764 84.777L755.625 88.877L750.43 84.777C750.374 84.693,750.206 84.665,750.065 84.665C749.925 84.665,749.841 84.749,749.7 84.833L749.195 85.311C749.11 85.395,749.026 85.563,749.026 85.704C749.026 85.872,749.11 86.041,749.223 86.125L754.165 90L749.223 93.875C749.11 93.959,749.026 94.128,749.026 94.296C749.026 94.409,749.11 94.577,749.195 94.661L749.672 95.167C749.756 95.307,749.925 95.335,750.065 95.335C750.206 95.335,750.374 95.307,750.43 95.223L755.625 91.123L760.764 95.223C760.82 95.307,760.988 95.335,761.129 95.335C761.269 95.335,761.438 95.307,761.522 95.167L761.999 94.661C762.083 94.577,762.168 94.409,762.168 94.296C762.168 94.128,762.083 93.959,761.971 93.875L757.029 90"/></g></g></svg>