<svg xmlns="http://www.w3.org/2000/svg" stroke-width="0.3" stroke-dasharray="none" fill="black" stroke="black" font-family="Arial, sans-serif" font-size="10pt" font-weight="normal" font-style="normal" width="350" height="140" viewBox="0 0 350 140" style="width: 350px; height: 140px; border: none;"><g class="vf-stave" id="vf-auto4314" stroke-width="1" fill="#999999" stroke="#999999"><path fill="none" d="M0 60L340 60"/><path fill="none" d="M0 70L340 70"/><path fill="none" d="M0 80L340 80"/><path fill="none" d="M0 90L340 90"/><path fill="none" d="M0 100L340 100"/></g><g class="vf-stavebarline" id="vf-auto4315"><rect y="59.5" width="1" height="41" stroke="none"/></g><g class="vf-stavebarline" id="vf-auto4316"><rect x="340" y="59.5" width="1" height="41" stroke="none"/></g><g class="vf-stavenote" id="vf-auto4317"><g class="vf-notehead" id="vf-auto4323" pointer-events="bounding-box"><path stroke="none" d="M20.145 66.543C20.426 66.599,20.678 66.627,20.959 66.627C24.834 66.627,30.619 61.348,30.506 57.08C30.394 56.041,30.422 54.609,28.316 53.766C27.727 53.485,27.081 53.373,26.379 53.373C22.054 53.373,17.365 58.343,17.028 61.657C17.028 61.909,17 62.134,17 62.387C17 64.409,17.899 66.037,20.145 66.543"/></g></g><g class="vf-stavenote" id="vf-auto4325"><g class="vf-notehead" id="vf-auto4331" pointer-events="bounding-box"><path stroke="none" d="M55.191 76.543C55.472 76.599,55.725 76.627,56.006 76.627C59.881 76.627,65.665 71.348,65.553 67.08C65.441 66.041,65.469 64.609,63.363 63.766C62.773 63.485,62.127 63.373,61.425 63.373C57.101 63.373,52.412 68.343,52.075 71.657C52.075 71.909,52.047 72.134,52.047 72.387C52.047 74.409,52.945 76.037,55.191 76.543"/></g></g><g class="vf-stavenote" id="vf-auto4333"><g class="vf-notehead" id="vf-auto4339" pointer-events="bounding-box"><path stroke="none" d="M76.68 81.543C76.961 81.599,77.213 81.627,77.494 81.627C81.369 81.627,87.154 76.348,87.041 72.08C86.929 71.041,86.957 69.609,84.851 68.766C84.261 68.485,83.616 68.373,82.914 68.373C78.589 68.373,73.9 73.343,73.563 76.657C73.563 76.909,73.535 77.134,73.535 77.387C73.535 79.409,74.433 81.037,76.68 81.543"/></g></g><g class="vf-stavenote" id="vf-auto4341"><g class="vf-notehead" id="vf-auto4347" pointer-events="bounding-box"><path stroke="none" d="M98.168 81.543C98.449 81.599,98.702 81.627,98.982 81.627C102.857 81.627,108.642 76.348,108.53 72.08C108.417 71.041,108.445 69.609,106.339 68.766C105.75 68.485,105.104 68.373,104.402 68.373C100.078 68.373,95.388 73.343,95.051 76.657C95.051 76.909,95.023 77.134,95.023 77.387C95.023 79.409,95.922 81.037,98.168 81.543"/></g></g><g class="vf-stavenote" id="vf-auto4349"><g class="vf-notehead" id="vf-auto4355" pointer-events="bounding-box"><path stroke="none" d="M119.656 76.543C119.937 76.599,120.19 76.627,120.471 76.627C124.346 76.627,130.13 71.348,130.018 67.08C129.906 66.041,129.934 64.609,127.828 63.766C127.238 63.485,126.592 63.373,125.89 63.373C121.566 63.373,116.877 68.343,116.54 71.657C116.54 71.909,116.512 72.134,116.512 72.387C116.512 74.409,117.41 76.037,119.656 76.543"/></g></g><g class="vf-stavenote" id="vf-auto4357"><g class="vf-notehead" id="vf-auto4363" pointer-events="bounding-box"><path stroke="none" d="M141.145 71.543C141.426 71.599,141.678 71.627,141.959 71.627C145.834 71.627,151.619 66.348,151.506 62.08C151.394 61.041,151.422 59.609,149.316 58.766C148.726 58.485,148.081 58.373,147.379 58.373C143.054 58.373,138.365 63.343,138.028 66.657C138.028 66.909,138 67.134,138 67.387C138 69.409,138.898 71.037,141.145 71.543"/></g></g><g class="vf-stavenote" id="vf-auto4365"><g class="vf-notehead" id="vf-auto4371" pointer-events="bounding-box"><path stroke="none" d="M176.191 66.543C176.472 66.599,176.725 66.627,177.006 66.627C180.881 66.627,186.665 61.348,186.553 57.08C186.441 56.041,186.469 54.609,184.363 53.766C183.773 53.485,183.127 53.373,182.425 53.373C178.101 53.373,173.411 58.343,173.074 61.657C173.074 61.909,173.046 62.134,173.046 62.387C173.046 64.409,173.945 66.037,176.191 66.543"/></g></g><g class="vf-stavenote" id="vf-auto4373"><g class="vf-notehead" id="vf-auto4379" pointer-events="bounding-box"><path stroke="none" d="M211.238 76.543C211.519 76.599,211.771 76.627,212.052 76.627C215.927 76.627,221.712 71.348,221.599 67.08C221.487 66.041,221.515 64.609,219.409 63.766C218.819 63.485,218.174 63.373,217.472 63.373C213.147 63.373,208.458 68.343,208.121 71.657C208.121 71.909,208.093 72.134,208.093 72.387C208.093 74.409,208.991 76.037,211.238 76.543"/></g></g><g class="vf-stavenote" id="vf-auto4381"><g class="vf-notehead" id="vf-auto4387" pointer-events="bounding-box"><path stroke="none" d="M232.726 81.543C233.007 81.599,233.26 81.627,233.54 81.627C237.416 81.627,243.2 76.348,243.088 72.08C242.975 71.041,243.003 69.609,240.897 68.766C240.308 68.485,239.662 68.373,238.96 68.373C234.636 68.373,229.946 73.343,229.609 76.657C229.609 76.909,229.581 77.134,229.581 77.387C229.581 79.409,230.48 81.037,232.726 81.543"/></g></g><g class="vf-stavenote" id="vf-auto4389"><g class="vf-notehead" id="vf-auto4395" pointer-events="bounding-box"><path stroke="none" d="M254.214 81.543C254.495 81.599,254.748 81.627,255.029 81.627C258.904 81.627,264.688 76.348,264.576 72.08C264.464 71.041,264.492 69.609,262.386 68.766C261.796 68.485,261.15 68.373,260.448 68.373C256.124 68.373,251.435 73.343,251.098 76.657C251.098 76.909,251.07 77.134,251.07 77.387C251.07 79.409,251.968 81.037,254.214 81.543"/></g></g><g class="vf-stavenote" id="vf-auto4397"><g class="vf-notehead" id="vf-auto4403" pointer-events="bounding-box"><path stroke="none" d="M275.703 76.543C275.984 76.599,276.236 76.627,276.517 76.627C280.392 76.627,286.177 71.348,286.064 67.08C285.952 66.041,285.98 64.609,283.874 63.766C283.284 63.485,282.639 63.373,281.937 63.373C277.612 63.373,272.923 68.343,272.586 71.657C272.586 71.909,272.558 72.134,272.558 72.387C272.558 74.409,273.456 76.037,275.703 76.543"/></g></g><g class="vf-stavenote" id="vf-auto4405"><g class="vf-notehead" id="vf-auto4411" pointer-events="bounding-box"><path stroke="none" d="M297.191 71.543C297.472 71.599,297.725 71.627,298.005 71.627C301.881 71.627,307.665 66.348,307.553 62.08C307.44 61.041,307.468 59.609,305.362 58.766C304.773 58.485,304.127 58.373,303.425 58.373C299.101 58.373,294.411 63.343,294.074 66.657C294.074 66.909,294.046 67.134,294.046 67.387C294.046 69.409,294.945 71.037,297.191 71.543"/></g></g><g class="vf-stavenote" id="vf-auto4414"><g class="vf-notehead" id="vf-auto4420" pointer-events="bounding-box"><path stroke="none" d="M20.145 101.543C20.426 101.599,20.678 101.627,20.959 101.627C24.834 101.627,30.619 96.348,30.506 92.08C30.394 91.041,30.422 89.609,28.316 88.766C27.727 88.485,27.081 88.373,26.379 88.373C22.054 88.373,17.365 93.343,17.028 96.657C17.028 96.909,17 97.134,17 97.387C17 99.409,17.899 101.037,20.145 101.543"/></g></g><g class="vf-stavenote" id="vf-auto4422"><g class="vf-notehead" id="vf-auto4428" pointer-events="bounding-box"><path stroke="none" d="M41.633 106.543C41.914 106.599,42.167 106.627,42.448 106.627C46.323 106.627,52.107 101.348,51.995 97.08C51.882 96.041,51.911 94.609,49.805 93.766C49.215 93.485,48.569 93.373,47.867 93.373C43.543 93.373,38.853 98.343,38.516 101.657C38.516 101.909,38.488 102.134,38.488 102.387C38.488 104.409,39.387 106.037,41.633 106.543"/></g></g><g class="vf-stavenote" id="vf-auto4430"><g class="vf-notehead" id="vf-auto4436" pointer-events="bounding-box"><path stroke="none" d="M76.68 111.543C76.961 111.599,77.213 111.627,77.494 111.627C81.369 111.627,87.154 106.348,87.041 102.08C86.929 101.041,86.957 99.609,84.851 98.766C84.261 98.485,83.616 98.373,82.914 98.373C78.589 98.373,73.9 103.343,73.563 106.657C73.563 106.909,73.535 107.134,73.535 107.387C73.535 109.409,74.433 111.037,76.68 111.543"/></g></g><g class="vf-stavenote" id="vf-auto4438"><path stroke-width="1.4" fill="none" stroke="#444" d="M92.023 110L111.531 110"/><g class="vf-notehead" id="vf-auto4444" pointer-events="bounding-box"><path stroke="none" d="M98.168 116.543C98.449 116.599,98.702 116.627,98.982 116.627C102.857 116.627,108.642 111.348,108.53 107.08C108.417 106.041,108.445 104.609,106.339 103.766C105.75 103.485,105.104 103.373,104.402 103.373C100.078 103.373,95.388 108.343,95.051 111.657C95.051 111.909,95.023 112.134,95.023 112.387C95.023 114.409,95.922 116.037,98.168 116.543"/></g></g><g class="vf-stavenote" id="vf-auto4446"><g class="vf-notehead" id="vf-auto4452" pointer-events="bounding-box"><path stroke="none" d="M119.656 111.543C119.937 111.599,120.19 111.627,120.471 111.627C124.346 111.627,130.13 106.348,130.018 102.08C129.906 101.041,129.934 99.609,127.828 98.766C127.238 98.485,126.592 98.373,125.89 98.373C121.566 98.373,116.877 103.343,116.54 106.657C116.54 106.909,116.512 107.134,116.512 107.387C116.512 109.409,117.41 111.037,119.656 111.543"/></g></g><g class="vf-stavenote" id="vf-auto4454"><g class="vf-notehead" id="vf-auto4460" pointer-events="bounding-box"><path stroke="none" d="M154.703 101.543C154.984 101.599,155.237 101.627,155.517 101.627C159.392 101.627,165.177 96.348,165.065 92.08C164.952 91.041,164.98 89.609,162.874 88.766C162.285 88.485,161.639 88.373,160.937 88.373C156.612 88.373,151.923 93.343,151.586 96.657C151.586 96.909,151.558 97.134,151.558 97.387C151.558 99.409,152.457 101.037,154.703 101.543"/></g></g><g class="vf-stavenote" id="vf-auto4462"><g class="vf-notehead" id="vf-auto4468" pointer-events="bounding-box"><path stroke="none" d="M176.191 101.543C176.472 101.599,176.725 101.627,177.006 101.627C180.881 101.627,186.665 96.348,186.553 92.08C186.441 91.041,186.469 89.609,184.363 88.766C183.773 88.485,183.127 88.373,182.425 88.373C178.101 88.373,173.411 93.343,173.074 96.657C173.074 96.909,173.046 97.134,173.046 97.387C173.046 99.409,173.945 101.037,176.191 101.543"/></g></g><g class="vf-stavenote" id="vf-auto4470"><g class="vf-notehead" id="vf-auto4476" pointer-events="bounding-box"><path stroke="none" d="M197.68 106.543C197.96 106.599,198.213 106.627,198.494 106.627C202.369 106.627,208.153 101.348,208.041 97.08C207.929 96.041,207.957 94.609,205.851 93.766C205.261 93.485,204.615 93.373,203.913 93.373C199.589 93.373,194.9 98.343,194.563 101.657C194.563 101.909,194.535 102.134,194.535 102.387C194.535 104.409,195.433 106.037,197.68 106.543"/></g></g><g class="vf-stavenote" id="vf-auto4478"><g class="vf-notehead" id="vf-auto4484" pointer-events="bounding-box"><path stroke="none" d="M232.726 111.543C233.007 111.599,233.26 111.627,233.54 111.627C237.416 111.627,243.2 106.348,243.088 102.08C242.975 101.041,243.003 99.609,240.897 98.766C240.308 98.485,239.662 98.373,238.96 98.373C234.636 98.373,229.946 103.343,229.609 106.657C229.609 106.909,229.581 107.134,229.581 107.387C229.581 109.409,230.48 111.037,232.726 111.543"/></g></g><g class="vf-stavenote" id="vf-auto4486"><path stroke-width="1.4" fill="none" stroke="#444" d="M248.07 110L267.578 110"/><g class="vf-notehead" id="vf-auto4492" pointer-events="bounding-box"><path stroke="none" d="M254.214 116.543C254.495 116.599,254.748 116.627,255.029 116.627C258.904 116.627,264.688 111.348,264.576 107.08C264.464 106.041,264.492 104.609,262.386 103.766C261.796 103.485,261.15 103.373,260.448 103.373C256.124 103.373,251.435 108.343,251.098 111.657C251.098 111.909,251.07 112.134,251.07 112.387C251.07 114.409,251.968 116.037,254.214 116.543"/></g></g><g class="vf-stavenote" id="vf-auto4494"><g class="vf-notehead" id="vf-auto4500" pointer-events="bounding-box"><path stroke="none" d="M275.703 111.543C275.984 111.599,276.236 111.627,276.517 111.627C280.392 111.627,286.177 106.348,286.064 102.08C285.952 101.041,285.98 99.609,283.874 98.766C283.284 98.485,282.639 98.373,281.937 98.373C277.612 98.373,272.923 103.343,272.586 106.657C272.586 106.909,272.558 107.134,272.558 107.387C272.558 109.409,273.456 111.037,275.703 111.543"/></g></g><g class="vf-stavenote" id="vf-auto4502"><g class="vf-notehead" id="vf-auto4508" pointer-events="bounding-box"><path stroke="none" d="M310.749 101.543C311.03 101.599,311.283 101.627,311.564 101.627C315.439 101.627,321.223 96.348,321.111 92.08C320.999 91.041,321.027 89.609,318.921 88.766C318.331 88.485,317.685 88.373,316.983 88.373C312.659 88.373,307.969 93.343,307.632 96.657C307.632 96.909,307.604 97.134,307.604 97.387C307.604 99.409,308.503 101.037,310.749 101.543"/></g></g><g class="vf-stem" id="vf-auto4318" pointer-events="bounding-box"><path stroke-width="1.5" fill="none" d="M29.758 58L29.758 25.75"/></g><g class="vf-stem" id="vf-auto4326" pointer-events="bounding-box"><path stroke-width="1.5" fill="none" d="M64.805 68L64.805 31.883"/></g><g class="vf-stem" id="vf-auto4334" pointer-events="bounding-box"><path stroke-width="1.5" fill="none" d="M86.293 73L86.293 35.644"/></g><g class="vf-stem" id="vf-auto4342" pointer-events="bounding-box"><path stroke-width="1.5" fill="none" d="M107.781 73L107.781 39.404"/></g><g class="vf-beam" id="vf-auto4511"><path stroke="none" d="M29.008 24.869L29.008 29.869L108.031 43.523L108.031 38.523Z"/><path stroke="none" d="M64.055 38.502L64.055 43.502L108.031 51.023L108.031 46.023Z"/></g><g class="vf-stem" id="vf-auto4350" pointer-events="bounding-box"><path stroke-width="1.5" fill="none" d="M129.27 68L129.27 25.75"/></g><g class="vf-stem" id="vf-auto4358" pointer-events="bounding-box"><path stroke-width="1.5" fill="none" d="M150.758 63L150.758 25.75"/></g><g class="vf-stem" id="vf-auto4366" pointer-events="bounding-box"><path stroke-width="1.5" fill="none" d="M185.804 58L185.804 25.75"/></g><g class="vf-stem" id="vf-auto4374" pointer-events="bounding-box"><path stroke-width="1.5" fill="none" d="M220.851 68L220.851 25.75"/></g><g class="vf-beam" id="vf-auto4512"><path stroke="none" d="M128.52 25L128.52 30L221.101 30L221.101 25Z"/><path stroke="none" d="M128.52 32.5L128.52 37.5L139.52 37.5L139.52 32.5Z"/><path stroke="none" d="M220.101 32.5L220.101 37.5L211.101 37.5L211.101 32.5Z"/></g><g class="vf-stem" id="vf-auto4382" pointer-events="bounding-box"><path stroke-width="1.5" fill="none" d="M242.339 73L242.339 40.42"/></g><g class="vf-stem" id="vf-auto4390" pointer-events="bounding-box"><path stroke-width="1.5" fill="none" d="M263.828 73L263.828 37.196"/></g><g class="vf-stem" id="vf-auto4398" pointer-events="bounding-box"><path stroke-width="1.5" fill="none" d="M285.316 68L285.316 33.973"/></g><g class="vf-stem" id="vf-auto4406" pointer-events="bounding-box"><path stroke-width="1.5" fill="none" d="M306.804 63L306.804 30.75"/></g><g class="vf-beam" id="vf-auto4513"><path stroke="none" d="M241.589 39.782L241.589 44.782L307.054 35.113L307.054 30.112Z"/><path stroke="none" d="M241.589 47.282L241.589 52.282L285.566 45.836L285.566 40.836Z"/></g><g class="vf-stem" id="vf-auto4415" pointer-events="bounding-box"><path stroke-width="1.5" fill="none" d="M17.75 97L17.75 130.596"/></g><g class="vf-stem" id="vf-auto4423" pointer-events="bounding-box"><path stroke-width="1.5" fill="none" d="M39.238 102L39.238 134.356"/></g><g class="vf-stem" id="vf-auto4431" pointer-events="bounding-box"><path stroke-width="1.5" fill="none" d="M74.285 107L74.285 140.49"/></g><g class="vf-stem" id="vf-auto4439" pointer-events="bounding-box"><path stroke-width="1.5" fill="none" d="M95.773 112L95.773 144.25"/></g><g class="vf-beam" id="vf-auto4514"><path stroke="none" d="M17 131.215L17 126.215L96.023 139.869L96.023 144.869Z"/><path stroke="none" d="M17 123.715L17 118.715L28 120.465L28 125.465Z"/><path stroke="none" d="M73.535 133.608L73.535 128.608L96.023 132.369L96.023 137.369Z"/></g><g class="vf-stem" id="vf-auto4447" pointer-events="bounding-box"><path stroke-width="1.5" fill="none" d="M117.262 107L117.262 139.25"/></g><g class="vf-stem" id="vf-auto4455" pointer-events="bounding-box"><path stroke-width="1.5" fill="none" d="M152.308 97L152.308 137.498"/></g><g class="vf-stem" id="vf-auto4463" pointer-events="bounding-box"><path stroke-width="1.5" fill="none" d="M173.796 97L173.796 136.423"/></g><g class="vf-stem" id="vf-auto4471" pointer-events="bounding-box"><path stroke-width="1.5" fill="none" d="M195.285 102L195.285 135.349"/></g><g class="vf-beam" id="vf-auto4515"><path stroke="none" d="M116.512 140.038L116.512 135.038L195.535 131.136L195.535 136.136Z"/><path stroke="none" d="M151.558 130.785L151.558 125.785L174.046 124.711L174.046 129.711Z"/></g><g class="vf-stem" id="vf-auto4479" pointer-events="bounding-box"><path stroke-width="1.5" fill="none" d="M230.331 107L230.331 145.862"/></g><g class="vf-stem" id="vf-auto4487" pointer-events="bounding-box"><path stroke-width="1.5" fill="none" d="M251.82 112L251.82 144.25"/></g><g class="vf-stem" id="vf-auto4495" pointer-events="bounding-box"><path stroke-width="1.5" fill="none" d="M273.308 107L273.308 142.638"/></g><g class="vf-stem" id="vf-auto4503" pointer-events="bounding-box"><path stroke-width="1.5" fill="none" d="M308.354 97L308.354 140.01"/></g><g class="vf-beam" id="vf-auto4516"><path stroke="none" d="M229.581 146.668L229.581 141.668L308.604 135.816L308.604 140.816Z"/><path stroke="none" d="M229.581 139.168L229.581 134.168L252.07 132.556L252.07 137.556Z"/><path stroke="none" d="M307.604 133.316L307.604 128.316L298.604 129.066L298.604 134.066Z"/></g></svg>