<svg xmlns="http://www.w3.org/2000/svg" stroke-width="0.3" stroke-dasharray="none" fill="black" stroke="black" font-family="Arial, sans-serif" font-size="10pt" font-weight="normal" font-style="normal" width="450" height="200" viewBox="0 0 450 200" style="width: 450px; height: 200px; border: none;"><g class="vf-stave" id="vf-auto21559" stroke-width="1" fill="#999999" stroke="#999999"><path fill="none" d="M0 80L440 80"/><path fill="none" d="M0 90L440 90"/><path fill="none" d="M0 100L440 100"/><path fill="none" d="M0 110L440 110"/><path fill="none" d="M0 120L440 120"/></g><g class="vf-stavebarline" id="vf-auto21560"><rect y="79.5" width="1" height="41" stroke="none"/></g><g class="vf-stavebarline" id="vf-auto21561"><rect x="440" y="79.5" width="1" height="41" stroke="none"/></g><g class="vf-stavenote" id="vf-auto21562"><g class="vf-notehead" id="vf-auto21729" pointer-events="bounding-box"><path stroke="none" d="M17 76.685C17 78.426,18.264 80.391,21.521 80.391C25.733 80.391,30.141 76.938,30.141 73.371C30.141 70.985,28.12 69.665,25.621 69.665C21.689 69.665,17 72.978,17 76.685"/></g></g><g class="vf-stavenote" id="vf-auto21570"><path stroke-width="1.4" fill="none" stroke="#444" d="M38.604 70L57.745 70"/><path stroke-width="1.4" fill="none" stroke="#444" d="M38.604 60L57.745 60"/><path stroke-width="1.4" fill="none" stroke="#444" d="M38.604 50L57.745 50"/><path stroke-width="1.4" fill="none" stroke="#444" d="M38.604 40L57.745 40"/><g class="vf-notehead" id="vf-auto21731" pointer-events="bounding-box"><path stroke="none" d="M41.604 36.685C41.604 38.426,42.867 40.391,46.124 40.391C50.336 40.391,54.745 36.938,54.745 33.371C54.745 30.985,52.723 29.665,50.224 29.665C46.293 29.665,41.604 32.978,41.604 36.685"/></g></g><g class="vf-stavenote" id="vf-auto21578"><path stroke-width="1.4" fill="none" stroke="#444" d="M58.43 70L77.572 70"/><path stroke-width="1.4" fill="none" stroke="#444" d="M58.43 60L77.572 60"/><path stroke-width="1.4" fill="none" stroke="#444" d="M58.43 50L77.572 50"/><path stroke-width="1.4" fill="none" stroke="#444" d="M58.43 40L77.572 40"/><g class="vf-notehead" id="vf-auto21733" pointer-events="bounding-box"><path stroke="none" d="M61.43 36.685C61.43 38.426,62.694 40.391,65.951 40.391C70.163 40.391,74.572 36.938,74.572 33.371C74.572 30.985,72.55 29.665,70.051 29.665C66.119 29.665,61.43 32.978,61.43 36.685"/></g></g><g class="vf-stavenote" id="vf-auto21586"><path stroke-width="1.4" fill="none" stroke="#444" d="M78.257 70L97.398 70"/><path stroke-width="1.4" fill="none" stroke="#444" d="M78.257 60L97.398 60"/><path stroke-width="1.4" fill="none" stroke="#444" d="M78.257 50L97.398 50"/><path stroke-width="1.4" fill="none" stroke="#444" d="M78.257 40L97.398 40"/><g class="vf-notehead" id="vf-auto21735" pointer-events="bounding-box"><path stroke="none" d="M81.257 36.685C81.257 38.426,82.52 40.391,85.778 40.391C89.99 40.391,94.398 36.938,94.398 33.371C94.398 30.985,92.376 29.665,89.877 29.665C85.946 29.665,81.257 32.978,81.257 36.685"/></g></g><g class="vf-stavenote" id="vf-auto21594"><g class="vf-notehead" id="vf-auto21737" pointer-events="bounding-box"><path stroke="none" d="M101.083 111.685C101.083 113.426,102.347 115.391,105.604 115.391C109.816 115.391,114.225 111.938,114.225 108.371C114.225 105.985,112.203 104.665,109.704 104.665C105.773 104.665,101.083 107.978,101.083 111.685"/></g></g><g class="vf-stavenote" id="vf-auto21602"><g class="vf-notehead" id="vf-auto21739" pointer-events="bounding-box"><path stroke="none" d="M120.209 111.685C120.209 113.426,121.473 115.391,124.73 115.391C128.942 115.391,133.351 111.938,133.351 108.371C133.351 105.985,131.329 104.665,128.83 104.665C124.899 104.665,120.209 107.978,120.209 111.685"/></g></g><g class="vf-stavenote" id="vf-auto21610"><g class="vf-notehead" id="vf-auto21741" pointer-events="bounding-box"><path stroke="none" d="M139.335 96.685C139.335 98.426,140.599 100.391,143.856 100.391C148.068 100.391,152.477 96.938,152.477 93.371C152.477 90.985,150.455 89.665,147.956 89.665C144.024 89.665,139.335 92.978,139.335 96.685"/></g></g><g class="vf-stavenote" id="vf-auto21618"><g class="vf-notehead" id="vf-auto21743" pointer-events="bounding-box"><path stroke="none" d="M158.461 96.685C158.461 98.426,159.725 100.391,162.982 100.391C167.194 100.391,171.603 96.938,171.603 93.371C171.603 90.985,169.581 89.665,167.082 89.665C163.15 89.665,158.461 92.978,158.461 96.685"/></g></g><g class="vf-stavenote" id="vf-auto21626"><g class="vf-notehead" id="vf-auto21745" pointer-events="bounding-box"><path stroke="none" d="M177.587 96.685C177.587 98.426,178.851 100.391,182.108 100.391C186.32 100.391,190.728 96.938,190.728 93.371C190.728 90.985,188.707 89.665,186.208 89.665C182.276 89.665,177.587 92.978,177.587 96.685"/></g></g><g class="vf-stavenote" id="vf-auto21634"><g class="vf-notehead" id="vf-auto21747" pointer-events="bounding-box"><path stroke="none" d="M196.713 96.685C196.713 98.426,197.977 100.391,201.234 100.391C205.446 100.391,209.854 96.938,209.854 93.371C209.854 90.985,207.833 89.665,205.333 89.665C201.402 89.665,196.713 92.978,196.713 96.685"/></g></g><g class="vf-stavenote" id="vf-auto21642"><g class="vf-notehead" id="vf-auto21749" pointer-events="bounding-box"><path stroke="none" d="M215.839 96.685C215.839 98.426,217.102 100.391,220.36 100.391C224.572 100.391,228.98 96.938,228.98 93.371C228.98 90.985,226.959 89.665,224.459 89.665C220.528 89.665,215.839 92.978,215.839 96.685"/></g></g><g class="vf-stavenote" id="vf-auto21650"><g class="vf-notehead" id="vf-auto21751" pointer-events="bounding-box"><path stroke="none" d="M234.965 96.685C234.965 98.426,236.228 100.391,239.486 100.391C243.698 100.391,248.106 96.938,248.106 93.371C248.106 90.985,246.084 89.665,243.585 89.665C239.654 89.665,234.965 92.978,234.965 96.685"/></g></g><g class="vf-stavenote" id="vf-auto21658"><g class="vf-notehead" id="vf-auto21753" pointer-events="bounding-box"><path stroke="none" d="M254.091 96.685C254.091 98.426,255.354 100.391,258.612 100.391C262.824 100.391,267.232 96.938,267.232 93.371C267.232 90.985,265.21 89.665,262.711 89.665C258.78 89.665,254.091 92.978,254.091 96.685"/></g></g><g class="vf-stavenote" id="vf-auto21666"><g class="vf-notehead" id="vf-auto21755" pointer-events="bounding-box"><path stroke="none" d="M273.217 96.685C273.217 98.426,274.48 100.391,277.738 100.391C281.95 100.391,286.358 96.938,286.358 93.371C286.358 90.985,284.336 89.665,281.837 89.665C277.906 89.665,273.217 92.978,273.217 96.685"/></g></g><g class="vf-stavenote" id="vf-auto21674"><path stroke-width="1.4" fill="none" stroke="#444" d="M289.343 70L308.484 70"/><g class="vf-notehead" id="vf-auto21757" pointer-events="bounding-box"><path stroke="none" d="M292.343 71.685C292.343 73.426,293.606 75.391,296.863 75.391C301.075 75.391,305.484 71.938,305.484 68.371C305.484 65.985,303.462 64.665,300.963 64.665C297.032 64.665,292.343 67.978,292.343 71.685"/></g></g><g class="vf-stavenote" id="vf-auto21682"><g class="vf-notehead" id="vf-auto21759" pointer-events="bounding-box"><path stroke="none" d="M316.946 76.685C316.946 78.426,318.21 80.391,321.467 80.391C325.679 80.391,330.088 76.938,330.088 73.371C330.088 70.985,328.066 69.665,325.567 69.665C321.635 69.665,316.946 72.978,316.946 76.685"/></g></g><g class="vf-stavenote" id="vf-auto21690"><g class="vf-notehead" id="vf-auto21763" pointer-events="bounding-box"><path stroke="none" d="M341.55 121.685C341.55 123.426,342.813 125.391,346.071 125.391C350.283 125.391,354.691 121.938,354.691 118.371C354.691 115.985,352.669 114.665,350.17 114.665C346.239 114.665,341.55 117.978,341.55 121.685"/></g><g class="vf-notehead" id="vf-auto21762" pointer-events="bounding-box"><path stroke="none" d="M341.55 111.685C341.55 113.426,342.813 115.391,346.071 115.391C350.283 115.391,354.691 111.938,354.691 108.371C354.691 105.985,352.669 104.665,350.17 104.665C346.239 104.665,341.55 107.978,341.55 111.685"/></g><g class="vf-notehead" id="vf-auto21761" pointer-events="bounding-box"><path stroke="none" d="M341.55 101.685C341.55 103.426,342.813 105.391,346.071 105.391C350.283 105.391,354.691 101.938,354.691 98.371C354.691 95.985,352.669 94.665,350.17 94.665C346.239 94.665,341.55 97.978,341.55 101.685"/></g></g><g class="vf-stavenote" id="vf-auto21704"><g class="vf-notehead" id="vf-auto21765" pointer-events="bounding-box"><path stroke="none" d="M362.855 86.685C362.855 88.426,364.119 90.391,367.376 90.391C371.588 90.391,375.997 86.938,375.997 83.371C375.997 80.985,373.975 79.665,371.476 79.665C367.545 79.665,362.855 82.978,362.855 86.685"/></g></g><g class="vf-stavenote" id="vf-auto21712"><g class="vf-notehead" id="vf-auto21767" pointer-events="bounding-box"><path stroke="none" d="M384.161 91.685C384.161 93.426,385.425 95.391,388.682 95.391C392.894 95.391,397.303 91.938,397.303 88.371C397.303 85.985,395.281 84.665,392.782 84.665C388.851 84.665,384.161 87.978,384.161 91.685"/></g></g><g class="vf-stavenote" id="vf-auto21720"><g class="vf-notehead" id="vf-auto21769" pointer-events="bounding-box"><path stroke="none" d="M408.765 86.685C408.765 88.426,410.028 90.391,413.286 90.391C417.498 90.391,421.906 86.938,421.906 83.371C421.906 80.985,419.884 79.665,417.385 79.665C413.454 79.665,408.765 82.978,408.765 86.685"/></g></g><g class="vf-stem" id="vf-auto21563" pointer-events="bounding-box"><path stroke-width="1.5" fill="none" d="M17.75 77L17.75 154.25"/></g><g class="vf-stem" id="vf-auto21571" pointer-events="bounding-box"><path stroke-width="1.5" fill="none" d="M42.354 37L42.354 154.25"/></g><g class="vf-stem" id="vf-auto21579" pointer-events="bounding-box"><path stroke-width="1.5" fill="none" d="M62.18 37L62.18 154.25"/></g><g class="vf-stem" id="vf-auto21587" pointer-events="bounding-box"><path stroke-width="1.5" fill="none" d="M82.007 37L82.007 154.25"/></g><g class="vf-stem" id="vf-auto21595" pointer-events="bounding-box"><path stroke-width="1.5" fill="none" d="M101.833 112L101.833 154.25"/></g><g class="vf-stem" id="vf-auto21603" pointer-events="bounding-box"><path stroke-width="1.5" fill="none" d="M120.959 112L120.959 154.25"/></g><g class="vf-beam" id="vf-auto21771"><path stroke="none" d="M17 155L17 150L121.209 150L121.209 155Z"/><path stroke="none" d="M41.604 147.5L41.604 142.5L121.209 142.5L121.209 147.5Z"/><path stroke="none" d="M41.604 140L41.604 135L121.209 135L121.209 140Z"/><path stroke="none" d="M101.083 132.5L101.083 127.5L121.209 127.5L121.209 132.5Z"/></g><g class="vf-stem" id="vf-auto21611" pointer-events="bounding-box"><path stroke-width="1.5" fill="none" d="M140.085 97L140.085 144.25"/></g><g class="vf-stem" id="vf-auto21619" pointer-events="bounding-box"><path stroke-width="1.5" fill="none" d="M159.211 97L159.211 144.25"/></g><g class="vf-stem" id="vf-auto21627" pointer-events="bounding-box"><path stroke-width="1.5" fill="none" d="M178.337 97L178.337 144.25"/></g><g class="vf-stem" id="vf-auto21635" pointer-events="bounding-box"><path stroke-width="1.5" fill="none" d="M197.463 97L197.463 144.25"/></g><g class="vf-stem" id="vf-auto21643" pointer-events="bounding-box"><path stroke-width="1.5" fill="none" d="M216.589 97L216.589 144.25"/></g><g class="vf-stem" id="vf-auto21651" pointer-events="bounding-box"><path stroke-width="1.5" fill="none" d="M235.715 97L235.715 144.25"/></g><g class="vf-stem" id="vf-auto21659" pointer-events="bounding-box"><path stroke-width="1.5" fill="none" d="M254.841 97L254.841 144.25"/></g><g class="vf-stem" id="vf-auto21667" pointer-events="bounding-box"><path stroke-width="1.5" fill="none" d="M273.967 97L273.967 144.25"/></g><g class="vf-stem" id="vf-auto21675" pointer-events="bounding-box"><path stroke-width="1.5" fill="none" d="M293.093 72L293.093 144.25"/></g><g class="vf-beam" id="vf-auto21772"><path stroke="none" d="M139.335 145L139.335 140L293.343 140L293.343 145Z"/><path stroke="none" d="M139.335 137.5L139.335 132.5L274.217 132.5L274.217 137.5Z"/><path stroke="none" d="M139.335 130L139.335 125L274.217 125L274.217 130Z"/><path stroke="none" d="M139.335 122.5L139.335 117.5L274.217 117.5L274.217 122.5Z"/></g><g class="vf-stem" id="vf-auto21683" pointer-events="bounding-box"><path stroke-width="1.5" fill="none" d="M317.696 77L317.696 149.25"/></g><g class="vf-stem" id="vf-auto21691" pointer-events="bounding-box"><path stroke-width="1.5" fill="none" d="M342.3 102L342.3 149.25"/></g><g class="vf-stem" id="vf-auto21705" pointer-events="bounding-box"><path stroke-width="1.5" fill="none" d="M363.605 87L363.605 149.25"/></g><g class="vf-beam" id="vf-auto21773"><path stroke="none" d="M316.946 150L316.946 145L363.855 145L363.855 150Z"/><path stroke="none" d="M341.55 142.5L341.55 137.5L363.855 137.5L363.855 142.5Z"/></g><g class="vf-stem" id="vf-auto21713" pointer-events="bounding-box"><path stroke-width="1.5" fill="none" d="M384.911 92L384.911 144.25"/></g><g class="vf-stem" id="vf-auto21721" pointer-events="bounding-box"><path stroke-width="1.5" fill="none" d="M409.515 87L409.515 144.25"/></g><g class="vf-beam" id="vf-auto21774"><path stroke="none" d="M384.161 145L384.161 140L409.765 140L409.765 145Z"/></g></svg>