<svg xmlns="http://www.w3.org/2000/svg" stroke-width="0.3" stroke-dasharray="none" fill="black" stroke="black" font-family="Arial, sans-serif" font-size="10pt" font-weight="normal" font-style="normal" width="700" height="100" viewBox="0 0 700 100" style="width: 700px; height: 100px; border: none;"><g class="vf-stave" id="vf-auto37251" stroke-width="1" fill="#999999" stroke="#999999"><path fill="none" d="M0 40L690 40"/><path fill="none" d="M0 50L690 50"/><path fill="none" d="M0 60L690 60"/><path fill="none" d="M0 70L690 70"/><path fill="none" d="M0 80L690 80"/></g><g class="vf-stavebarline" id="vf-auto37252"><rect y="39.5" width="1" height="41" stroke="none"/></g><g class="vf-stavebarline" id="vf-auto37253"><rect x="690" y="39.5" width="1" height="41" stroke="none"/></g><g class="vf-clef" id="vf-auto37254"><path stroke="none" d="M13.364 40.814C7.58 40.814,5 45.03,5 48.21C5 50.859,6.382 53.14,9.078 53.14C11.175 53.14,12.603 51.689,12.603 49.638C12.603 47.519,11.036 46.182,9.424 46.182C8.525 46.182,8.18 46.413,7.765 46.413C7.327 46.413,7.212 46.159,7.212 45.814C7.212 44.5,9.216 42.058,12.603 42.058C16.105 42.058,17.649 45.514,17.649 50.721C17.649 59.983,13.064 65.167,5.323 69.568C5.023 69.729,4.839 69.913,4.839 70.167C4.839 70.374,4.977 70.559,5.276 70.559C5.438 70.559,5.622 70.512,5.829 70.397C13.986 66.411,22.626 60.513,22.626 50.422C22.626 44.662,19.1 40.814,13.364 40.814M25.874 43.533C24.837 43.533,24.054 44.316,24.054 45.353C24.054 46.39,24.837 47.173,25.874 47.173C26.888 47.173,27.694 46.39,27.694 45.353C27.694 44.316,26.888 43.533,25.874 43.533M25.897 51.85C24.884 51.85,24.1 52.61,24.1 53.647C24.1 54.684,24.884 55.444,25.897 55.444C26.934 55.444,27.694 54.684,27.694 53.647C27.694 52.61,26.934 51.85,25.897 51.85"/></g><g class="vf-timesignature" id="vf-auto37255"><path stroke="none" d="M51.24 41.261C51.191 41.261,51.167 41.261,51.093 41.261L50.848 41.212C50.799 41.212,50.75 41.212,50.702 41.212C47.666 41.212,44.63 43.244,44.63 45.104C44.63 46.255,45.316 47.821,47.495 47.944L47.666 47.944C49.233 47.944,49.992 46.818,49.992 45.667L49.992 45.373C49.894 44.076,49.012 44.002,48.841 43.929C48.67 43.856,48.131 43.929,48.131 43.439L48.131 43.292C48.205 42.705,49.306 42.411,49.6 42.411C52.611 42.411,52.88 44.296,52.88 45.128L52.88 45.373C52.88 47.993,50.799 49.021,48.596 49.119C48.229 49.143,47.739 49.339,47.739 49.706C47.739 50.147,48.351 50.147,48.621 50.147C52.684 50.147,53.003 52.889,53.003 53.354C53.003 57.075,51.093 57.515,50.31 57.515C50.187 57.515,50.041 57.466,49.992 57.466C49.722 57.442,49.037 57.442,49.012 56.903L49.012 56.732C49.012 55.949,49.796 55.435,49.82 54.406C49.82 52.938,48.792 51.86,47.274 51.86C47.152 51.86,47.03 51.86,46.907 51.909C46.295 52.007,45.634 52.35,45.194 52.815C44.606 53.354,44.435 54.186,44.435 54.969C44.508 57.711,47.005 58.788,50.457 58.837L50.775 58.837C54.276 58.837,57.85 57.05,57.85 53.941L57.85 53.696C57.801 52.668,57.531 52.007,56.87 51.224C56.65 50.955,56.381 50.71,56.038 50.49L55.279 50.073L54.129 49.755C53.957 49.706,53.835 49.706,53.762 49.584C53.737 49.51,53.737 49.461,53.737 49.412C53.737 49.266,53.762 49.119,53.884 49.094C54.276 48.972,54.643 48.947,54.961 48.776C56.381 48.091,57.115 47.185,57.115 45.569C57.115 42.313,52.709 41.359,51.24 41.261"/><path stroke="none" d="M55.61 72.619L55.61 65.055C55.61 64.786,55.585 64.468,55.194 64.468C54.875 64.468,54.704 64.541,54.484 64.786L51.13 68.825C51.008 69.021,50.812 69.217,50.812 69.657L50.812 72.619L46.063 72.619C48.878 70.22,54.533 62.215,54.631 61.775L54.655 61.677C54.655 61.359,54.41 61.163,54.141 61.163C53.823 61.163,52.378 61.212,51.742 61.212C51.105 61.212,49.514 61.163,49.245 61.163C48.927 61.163,48.437 61.261,48.437 61.824C48.437 66.181,44.961 71.102,43.908 72.57L43.712 72.864C43.712 72.864,43.712 72.889,43.712 72.889L43.664 72.938C43.59 73.109,43.566 73.231,43.566 73.354C43.566 73.696,43.835 73.941,44.276 73.941L50.812 73.941L50.812 76.169C50.812 77.124,50.053 77.393,49.416 77.393C48.853 77.393,48.608 77.711,48.608 78.078C48.608 78.421,48.731 78.813,49.269 78.813L56.785 78.813C57.128 78.813,57.495 78.568,57.495 78.078C57.495 77.589,57.054 77.368,56.711 77.368C56.369 77.368,55.61 77.148,55.61 76.022L55.61 73.941L58.18 73.941C58.547 73.941,58.719 73.696,58.719 73.28C58.719 72.864,58.572 72.619,58.18 72.619"/></g><g class="vf-stavenote" id="vf-auto37259"><path stroke-width="1.4" fill="none" stroke="#444" d="M67.009 90L84.943 90"/><g class="vf-stem" id="vf-auto37260" pointer-events="bounding-box"><path stroke-width="1.5" fill="none" d="M81.193 88L81.193 55"/></g><g class="vf-notehead" id="vf-auto37262" pointer-events="bounding-box"><path stroke="none" d="M73.94 95.054C77.534 95.054,81.943 91.741,81.943 88.315C81.943 86.237,80.314 84.946,78.012 84.946C73.575 84.946,70.009 88.231,70.009 91.685C70.009 93.791,71.75 95.054,73.94 95.054"/></g></g><g class="vf-stavenote" id="vf-auto37263"><g class="vf-stem" id="vf-auto37264" pointer-events="bounding-box"><path stroke-width="1.5" fill="none" d="M279.879 78L279.879 45"/></g><g class="vf-notehead" id="vf-auto37266" pointer-events="bounding-box"><path stroke="none" d="M272.626 85.054C276.22 85.054,280.629 81.741,280.629 78.315C280.629 76.237,279 74.946,276.697 74.946C272.261 74.946,268.695 78.231,268.695 81.685C268.695 83.791,270.435 85.054,272.626 85.054"/></g></g><g class="vf-stavenote" id="vf-auto37267"><g class="vf-stem" id="vf-auto37268" pointer-events="bounding-box"><path stroke-width="1.5" fill="none" d="M478.564 68L478.564 35"/></g><g class="vf-notehead" id="vf-auto37270" pointer-events="bounding-box"><path stroke="none" d="M471.311 75.054C474.906 75.054,479.314 71.741,479.314 68.315C479.314 66.237,477.686 64.946,475.383 64.946C470.946 64.946,467.38 68.231,467.38 71.685C467.38 73.791,469.121 75.054,471.311 75.054"/></g></g></svg>