<svg xmlns="http://www.w3.org/2000/svg" stroke-width="0.3" stroke-dasharray="none" fill="black" stroke="black" font-family="Arial, sans-serif" font-size="10pt" font-weight="normal" font-style="normal" width="450" height="140" viewBox="0 0 450 140" style="width: 450px; height: 140px; border: none;"><g class="vf-stave" id="vf-auto1104" stroke-width="1" fill="#999999" stroke="#999999"><path fill="none" d="M0 40L440 40"/><path fill="none" d="M0 50L440 50"/><path fill="none" d="M0 60L440 60"/><path fill="none" d="M0 70L440 70"/><path fill="none" d="M0 80L440 80"/></g><g class="vf-stavebarline" id="vf-auto1105"><rect y="39.5" width="1" height="41" stroke="none"/></g><g class="vf-stavebarline" id="vf-auto1106"><rect x="440" y="39.5" width="1" height="41" stroke="none"/></g><g class="vf-stavenote" id="vf-auto1107"><g class="vf-notehead" id="vf-auto1180" pointer-events="bounding-box"><path stroke="none" d="M20.931 45.054C24.525 45.054,28.934 41.741,28.934 38.315C28.934 36.237,27.305 34.946,25.003 34.946C20.566 34.946,17 38.231,17 41.685C17 43.791,18.741 45.054,20.931 45.054"/></g></g><g class="vf-stavenote" id="vf-auto1113"><g class="vf-notehead" id="vf-auto1182" pointer-events="bounding-box"><path stroke="none" d="M59.581 50.054C63.175 50.054,67.584 46.741,67.584 43.315C67.584 41.237,65.955 39.946,63.653 39.946C59.216 39.946,55.65 43.231,55.65 46.685C55.65 48.791,57.391 50.054,59.581 50.054"/></g></g><g class="vf-stavenote" id="vf-auto1119"><g class="vf-notehead" id="vf-auto1184" pointer-events="bounding-box"><path stroke="none" d="M98.231 55.054C101.825 55.054,106.234 51.741,106.234 48.315C106.234 46.237,104.605 44.946,102.302 44.946C97.866 44.946,94.3 48.231,94.3 51.685C94.3 53.791,96.041 55.054,98.231 55.054"/></g></g><g class="vf-stavenote" id="vf-auto1125"><g class="vf-notehead" id="vf-auto1186" pointer-events="bounding-box"><path stroke="none" d="M136.881 60.054C140.475 60.054,144.883 56.741,144.883 53.315C144.883 51.237,143.255 49.946,140.952 49.946C136.516 49.946,132.949 53.231,132.949 56.685C132.949 58.791,134.69 60.054,136.881 60.054"/></g></g><g class="vf-stavenote" id="vf-auto1131"><g class="vf-notehead" id="vf-auto1188" pointer-events="bounding-box"><path stroke="none" d="M170.35 60.054C173.944 60.054,178.353 56.741,178.353 53.315C178.353 51.237,176.724 49.946,174.422 49.946C169.985 49.946,166.419 53.231,166.419 56.685C166.419 58.791,168.16 60.054,170.35 60.054"/></g></g><g class="vf-stavenote" id="vf-auto1137"><g class="vf-notehead" id="vf-auto1190" pointer-events="bounding-box"><path stroke="none" d="M203.819 55.054C207.414 55.054,211.822 51.741,211.822 48.315C211.822 46.237,210.194 44.946,207.891 44.946C203.454 44.946,199.888 48.231,199.888 51.685C199.888 53.791,201.629 55.054,203.819 55.054"/></g></g><g class="vf-stavenote" id="vf-auto1143"><g class="vf-notehead" id="vf-auto1192" pointer-events="bounding-box"><path stroke="none" d="M242.469 50.054C246.063 50.054,250.472 46.741,250.472 43.315C250.472 41.237,248.843 39.946,246.541 39.946C242.104 39.946,238.538 43.231,238.538 46.685C238.538 48.791,240.279 50.054,242.469 50.054"/></g></g><g class="vf-stavenote" id="vf-auto1149"><g class="vf-notehead" id="vf-auto1194" pointer-events="bounding-box"><path stroke="none" d="M281.119 45.054C284.713 45.054,289.122 41.741,289.122 38.315C289.122 36.237,287.493 34.946,285.191 34.946C280.754 34.946,277.188 38.231,277.188 41.685C277.188 43.791,278.929 45.054,281.119 45.054"/></g></g><g class="vf-stavenote" id="vf-auto1155"><g class="vf-notehead" id="vf-auto1196" pointer-events="bounding-box"><path stroke="none" d="M319.769 45.054C323.363 45.054,327.772 41.741,327.772 38.315C327.772 36.237,326.143 34.946,323.84 34.946C319.404 34.946,315.838 38.231,315.838 41.685C315.838 43.791,317.579 45.054,319.769 45.054"/></g></g><g class="vf-stavenote" id="vf-auto1161"><g class="vf-notehead" id="vf-auto1198" pointer-events="bounding-box"><path stroke="none" d="M350.914 45.054C354.509 45.054,358.917 41.741,358.917 38.315C358.917 36.237,357.289 34.946,354.986 34.946C350.549 34.946,346.983 38.231,346.983 41.685C346.983 43.791,348.724 45.054,350.914 45.054"/></g></g><g class="vf-stavenote" id="vf-auto1167"><g class="vf-notehead" id="vf-auto1200" pointer-events="bounding-box"><path stroke="none" d="M382.06 45.054C385.654 45.054,390.063 41.741,390.063 38.315C390.063 36.237,388.434 34.946,386.132 34.946C381.695 34.946,378.129 38.231,378.129 41.685C378.129 43.791,379.87 45.054,382.06 45.054"/></g></g><g class="vf-stavenote" id="vf-auto1173"><g class="vf-notehead" id="vf-auto1202" pointer-events="bounding-box"><path stroke="none" d="M413.206 45.054C416.8 45.054,421.209 41.741,421.209 38.315C421.209 36.237,419.58 34.946,417.277 34.946C412.841 34.946,409.275 38.231,409.275 41.685C409.275 43.791,411.016 45.054,413.206 45.054"/></g></g><g class="vf-stem" id="vf-auto1108" pointer-events="bounding-box"><path stroke-width="1.5" fill="none" d="M17.75 42L17.75 76.351"/></g><g class="vf-stem" id="vf-auto1114" pointer-events="bounding-box"><path stroke-width="1.5" fill="none" d="M56.4 47L56.4 79.25"/></g><g class="vf-beam" id="vf-auto1204"><path stroke="none" d="M17 77.045L17 72.045L56.65 74.944L56.65 79.944Z"/></g><g class="vf-stem" id="vf-auto1120" pointer-events="bounding-box"><path stroke-width="1.5" fill="none" d="M95.05 52L95.05 88.284"/></g><g class="vf-stem" id="vf-auto1126" pointer-events="bounding-box"><path stroke-width="1.5" fill="none" d="M133.699 57L133.699 89.25"/></g><g class="vf-stem" id="vf-auto1132" pointer-events="bounding-box"><path stroke-width="1.5" fill="none" d="M167.169 57L167.169 90.087"/></g><g class="vf-beam" id="vf-auto1205"><path stroke="none" d="M94.3 89.015L94.3 84.015L167.419 85.818L167.419 90.818Z"/><path stroke="none" d="M132.949 82.481L132.949 77.481L167.419 78.318L167.419 83.318Z"/></g><g class="vf-stem" id="vf-auto1138" pointer-events="bounding-box"><path stroke-width="1.5" fill="none" d="M200.638 52L200.638 84.25"/></g><g class="vf-stem" id="vf-auto1144" pointer-events="bounding-box"><path stroke-width="1.5" fill="none" d="M239.288 47L239.288 81.351"/></g><g class="vf-beam" id="vf-auto1206"><path stroke="none" d="M199.888 85.056L199.888 80.056L239.538 77.158L239.538 82.158Z"/></g><g class="vf-stem" id="vf-auto1150" pointer-events="bounding-box"><path stroke-width="1.5" fill="none" d="M277.938 42L277.938 81.75"/></g><g class="vf-stem" id="vf-auto1156" pointer-events="bounding-box"><path stroke-width="1.5" fill="none" d="M316.588 42L316.588 81.75"/></g><g class="vf-stem" id="vf-auto1162" pointer-events="bounding-box"><path stroke-width="1.5" fill="none" d="M347.733 42L347.733 81.75"/></g><g class="vf-stem" id="vf-auto1168" pointer-events="bounding-box"><path stroke-width="1.5" fill="none" d="M378.879 42L378.879 81.75"/></g><g class="vf-stem" id="vf-auto1174" pointer-events="bounding-box"><path stroke-width="1.5" fill="none" d="M410.025 42L410.025 81.75"/></g><g class="vf-beam" id="vf-auto1207"><path stroke="none" d="M277.188 82.5L277.188 77.5L410.275 77.5L410.275 82.5Z"/><path stroke="none" d="M315.838 75L315.838 70L410.275 70L410.275 75Z"/><path stroke="none" d="M315.838 67.5L315.838 62.5L410.275 62.5L410.275 67.5Z"/></g></svg>