<svg xmlns="http://www.w3.org/2000/svg" stroke-width="0.3" stroke-dasharray="none" fill="black" stroke="black" font-family="Arial, sans-serif" font-size="10pt" font-weight="normal" font-style="normal" width="975" height="650" viewBox="0 0 650 433.3333333333333" style="width: 975px; height: 650px; border: none;"><g class="vf-stave" id="vf-auto23869" stroke-width="1" fill="#999999" stroke="#999999"><path fill="none" d="M10 80L460 80"/><path fill="none" d="M10 90L460 90"/><path fill="none" d="M10 100L460 100"/><path fill="none" d="M10 110L460 110"/><path fill="none" d="M10 120L460 120"/></g><g class="vf-stavebarline" id="vf-auto23870"><rect x="10" y="79.5" width="1" height="41" stroke="none"/></g><g class="vf-stavebarline" id="vf-auto23871"><rect x="460" y="79.5" width="1" height="41" stroke="none"/></g><g class="vf-clef" id="vf-auto23872"><path stroke="none" d="M23.693 131.402C23.87 131.402,24.048 131.377,24.276 131.301C24.707 131.148,25.062 130.92,25.366 130.591C28.382 127.423,29.623 123.596,29.75 119.313C29.75 118.983,29.776 118.451,29.776 118.451C29.776 118.451,30.282 118.147,30.511 118.071C31.727 117.488,32.893 116.829,33.932 115.993C36.72 113.762,38.316 110.747,39.051 107.376C39.204 106.844,39.229 106.286,39.229 105.779C39.229 103.473,37.962 101.8,35.047 101.268C34.312 101.116,33.577 101.04,32.842 101.04C31.017 101.04,29.269 101.521,27.621 102.484C27.419 102.611,27.19 102.763,27.19 102.763L26.253 99.215C26.202 99.038,26.202 98.708,26.202 98.708C26.202 98.708,29.928 92.093,30.434 88.697C30.612 87.709,30.688 86.72,30.688 85.757C30.688 84.972,30.663 84.237,30.536 83.527C30.181 80.891,29.193 78.408,28.534 75.848C28.356 75.088,28.103 74.175,27.216 74.175C26.557 74.175,26.101 74.809,25.695 75.341C23.82 77.926,22.907 80.891,22.73 84.059C22.705 84.566,22.705 85.098,22.705 85.605C22.705 88.545,23.186 91.51,23.566 94.425C23.566 94.653,23.642 94.881,23.693 95.059C22.046 97.39,20.221 99.57,18.65 101.978C17.56 103.701,16.343 105.424,15.583 107.35C15.177 108.288,15 109.403,15 110.493C15 112.749,15.76 115.055,17.078 116.322C17.839 117.057,19.055 117.868,20.246 118.299C21.944 118.907,23.617 119.313,25.391 119.313C25.923 119.313,26.455 119.287,27.013 119.211L27.444 119.135C27.444 119.135,27.469 119.465,27.444 119.642C27.038 121.847,26.506 124.001,25.188 125.826C24.479 126.764,23.82 127.828,22.451 127.93C22.046 127.98,21.868 128.234,21.868 128.563C21.868 128.69,21.894 128.817,21.944 128.944C22.147 129.501,22.4 130.084,22.654 130.642C22.882 131.148,23.237 131.402,23.693 131.402M25.138 92.828C24.859 91.08,24.681 89.356,24.681 87.633C24.681 84.465,25.34 81.373,27.19 78.408C27.621 79.751,27.849 81.119,27.849 82.488C27.849 83.198,27.773 83.933,27.672 84.642C27.19 87.506,26.532 90.269,25.138 92.828M21.387 114.421C20.88 114.396,20.449 114.219,19.967 114.067C19.004 113.737,18.219 113.382,17.965 112.749C17.839 112.47,17.813 112.14,17.813 111.811C17.813 111.406,17.889 110.975,17.965 110.518C17.991 110.316,18.219 109.682,18.295 109.581C19.714 107.046,21.412 104.765,23.211 102.459L24.732 100.457L25.011 101.268C25.29 102.18,25.543 103.625,25.543 103.625C25.543 103.625,24.529 104.943,23.87 105.602C22.046 107.376,21.159 109.606,21.159 112.064C21.159 112.673,21.235 113.306,21.361 113.965C21.387 114.092,21.387 114.219,21.387 114.421M29.269 113.306C28.99 110.924,28.432 109.023,27.925 106.742C27.875 106.463,27.875 106.286,28.001 106.134C28.939 105.957,29.852 105.881,30.815 105.881C31.727 105.881,32.589 105.957,33.501 106.134C34.591 106.362,35.681 106.539,36.542 107.426C36.593 107.503,36.669 107.579,36.745 107.604C35.301 110.518,33.146 112.723,30.08 114.067L29.421 114.32M25.391 115.055C24.124 115.055,22.882 114.726,22.882 114.726C22.882 114.726,22.781 114.219,22.781 113.484C22.781 113.002,22.806 112.419,22.958 111.836C23.313 110.088,24.555 108.846,25.873 107.68C25.974 107.579,26.101 107.503,26.177 107.503C26.303 107.503,26.354 107.655,26.379 107.908C26.709 110.062,27.266 112.166,27.419 114.32C27.444 114.548,27.419 114.878,27.419 114.878C27.419 114.878,26.455 115.131,25.391 115.055"/></g><g class="vf-stave" id="vf-auto23869" stroke-width="1" fill="#999999" stroke="#999999"><path fill="none" d="M10 80L460 80"/><path fill="none" d="M10 90L460 90"/><path fill="none" d="M10 100L460 100"/><path fill="none" d="M10 110L460 110"/><path fill="none" d="M10 120L460 120"/></g><g class="vf-stavebarline" id="vf-auto23870"><rect x="10" y="79.5" width="1" height="41" stroke="none"/></g><g class="vf-stavebarline" id="vf-auto23871"><rect x="460" y="79.5" width="1" height="41" stroke="none"/></g><g class="vf-clef" id="vf-auto23872"><path stroke="none" d="M23.693 131.402C23.87 131.402,24.048 131.377,24.276 131.301C24.707 131.148,25.062 130.92,25.366 130.591C28.382 127.423,29.623 123.596,29.75 119.313C29.75 118.983,29.776 118.451,29.776 118.451C29.776 118.451,30.282 118.147,30.511 118.071C31.727 117.488,32.893 116.829,33.932 115.993C36.72 113.762,38.316 110.747,39.051 107.376C39.204 106.844,39.229 106.286,39.229 105.779C39.229 103.473,37.962 101.8,35.047 101.268C34.312 101.116,33.577 101.04,32.842 101.04C31.017 101.04,29.269 101.521,27.621 102.484C27.419 102.611,27.19 102.763,27.19 102.763L26.253 99.215C26.202 99.038,26.202 98.708,26.202 98.708C26.202 98.708,29.928 92.093,30.434 88.697C30.612 87.709,30.688 86.72,30.688 85.757C30.688 84.972,30.663 84.237,30.536 83.527C30.181 80.891,29.193 78.408,28.534 75.848C28.356 75.088,28.103 74.175,27.216 74.175C26.557 74.175,26.101 74.809,25.695 75.341C23.82 77.926,22.907 80.891,22.73 84.059C22.705 84.566,22.705 85.098,22.705 85.605C22.705 88.545,23.186 91.51,23.566 94.425C23.566 94.653,23.642 94.881,23.693 95.059C22.046 97.39,20.221 99.57,18.65 101.978C17.56 103.701,16.343 105.424,15.583 107.35C15.177 108.288,15 109.403,15 110.493C15 112.749,15.76 115.055,17.078 116.322C17.839 117.057,19.055 117.868,20.246 118.299C21.944 118.907,23.617 119.313,25.391 119.313C25.923 119.313,26.455 119.287,27.013 119.211L27.444 119.135C27.444 119.135,27.469 119.465,27.444 119.642C27.038 121.847,26.506 124.001,25.188 125.826C24.479 126.764,23.82 127.828,22.451 127.93C22.046 127.98,21.868 128.234,21.868 128.563C21.868 128.69,21.894 128.817,21.944 128.944C22.147 129.501,22.4 130.084,22.654 130.642C22.882 131.148,23.237 131.402,23.693 131.402M25.138 92.828C24.859 91.08,24.681 89.356,24.681 87.633C24.681 84.465,25.34 81.373,27.19 78.408C27.621 79.751,27.849 81.119,27.849 82.488C27.849 83.198,27.773 83.933,27.672 84.642C27.19 87.506,26.532 90.269,25.138 92.828M21.387 114.421C20.88 114.396,20.449 114.219,19.967 114.067C19.004 113.737,18.219 113.382,17.965 112.749C17.839 112.47,17.813 112.14,17.813 111.811C17.813 111.406,17.889 110.975,17.965 110.518C17.991 110.316,18.219 109.682,18.295 109.581C19.714 107.046,21.412 104.765,23.211 102.459L24.732 100.457L25.011 101.268C25.29 102.18,25.543 103.625,25.543 103.625C25.543 103.625,24.529 104.943,23.87 105.602C22.046 107.376,21.159 109.606,21.159 112.064C21.159 112.673,21.235 113.306,21.361 113.965C21.387 114.092,21.387 114.219,21.387 114.421M29.269 113.306C28.99 110.924,28.432 109.023,27.925 106.742C27.875 106.463,27.875 106.286,28.001 106.134C28.939 105.957,29.852 105.881,30.815 105.881C31.727 105.881,32.589 105.957,33.501 106.134C34.591 106.362,35.681 106.539,36.542 107.426C36.593 107.503,36.669 107.579,36.745 107.604C35.301 110.518,33.146 112.723,30.08 114.067L29.421 114.32M25.391 115.055C24.124 115.055,22.882 114.726,22.882 114.726C22.882 114.726,22.781 114.219,22.781 113.484C22.781 113.002,22.806 112.419,22.958 111.836C23.313 110.088,24.555 108.846,25.873 107.68C25.974 107.579,26.101 107.503,26.177 107.503C26.303 107.503,26.354 107.655,26.379 107.908C26.709 110.062,27.266 112.166,27.419 114.32C27.444 114.548,27.419 114.878,27.419 114.878C27.419 114.878,26.455 115.131,25.391 115.055"/></g><g class="vf-stavenote" id="vf-auto23873"><g class="vf-stem" id="vf-auto23874" pointer-events="bounding-box"><path stroke-width="1.5" fill="none" d="M78.193 117.45L78.193 55"/></g><g class="vf-notehead" id="vf-auto23878" pointer-events="bounding-box"><path stroke="none" d="M78.915 118.428C78.859 123.229,74.731 127.048,70.126 127.048C69.452 127.048,68.75 126.964,68.076 126.795C66.644 126.43,65.998 125.391,65.69 123.959C65.521 123.229,65.437 122.555,65.437 121.909C65.437 117.332,69.003 114.384,73.412 113.008C73.552 112.952,73.777 112.924,73.973 112.924C75.939 112.924,78.943 115.226,78.943 117.81C78.943 118.006,78.943 118.231,78.915 118.428M71.418 122.864C73.131 122.274,75.012 121.348,76.641 119.832C76.669 119.803,76.725 119.635,76.725 119.523C76.725 119.382,76.669 119.27,76.641 119.242C75.911 118.512,75.349 117.529,74.17 117.36C74.001 117.332,73.861 117.332,73.636 117.332C71.895 117.332,70.519 118.456,69.087 119.242C68.189 119.747,67.178 120.814,67.374 121.741C67.571 122.752,69.031 122.555,69.958 122.752C70.323 122.836,70.66 122.836,71.418 122.864"/><g class="vf-chordsymbol" id="vf-auto23862"><text stroke="none" font-family="PetalumaScript, Arial, sans-serif" font-size="12pt" x="72.19" y="50">F7</text><path stroke="none" d="M93.963 46.24C94.036 46.231,94.036 46.149,94.063 46.085C94.091 46.021,94.091 45.948,94.091 45.902C94.091 45.766,94.054 45.638,94.009 45.501C93.881 45.109,93.653 44.78,93.525 44.388C93.133 43.156,92.813 41.915,92.786 40.62C92.777 40.173,92.749 39.707,92.749 39.26C92.749 38.895,92.768 38.53,92.832 38.156C93.096 36.769,93.561 35.437,94.237 34.206C94.364 33.959,94.428 33.731,94.428 33.494C94.428 33.366,94.41 33.22,94.364 33.074C94.31 32.892,94.264 32.655,94.063 32.655C93.936 32.655,93.853 32.855,93.762 32.974C93.443 33.43,93.279 33.959,93.041 34.452C92.366 35.857,92.001 37.317,92.001 38.886C92.001 39.133,92.001 39.397,92.029 39.662C92.01 39.789,92.01 39.917,92.01 40.063C92.01 40.83,92.147 41.642,92.33 42.426C92.567 43.439,92.868 44.424,93.315 45.364C93.443 45.638,93.634 45.884,93.79 46.131C93.826 46.176,93.863 46.24,93.936 46.24"/><path stroke="none" d="M96.306 45.141C96.4 45.132,96.426 44.996,96.451 44.91C96.503 44.748,96.511 44.585,96.511 44.44C96.511 44.303,96.503 44.183,96.503 44.046C96.503 43.961,96.503 43.849,96.511 43.764C96.537 43.516,96.562 43.268,96.571 43.02L97.118 42.909C97.144 43.43,97.238 43.935,97.409 44.423C97.426 44.491,97.469 44.559,97.546 44.559C97.623 44.576,97.649 44.491,97.683 44.423C97.768 44.294,97.777 44.132,97.777 43.986C97.794 43.875,97.794 43.772,97.794 43.678C97.794 43.379,97.768 43.071,97.76 42.772L98.47 42.626C99.146 42.489,99.231 42.395,99.282 41.745C99.282 41.583,99.3 41.472,99.282 41.343C99.274 41.189,99.205 41.078,99.077 41.078L99.051 41.078C99 41.078,98.966 41.078,98.915 41.087C98.632 41.164,98.324 41.223,98.025 41.275L97.82 41.309C97.828 41.138,97.828 40.95,97.845 40.77C97.854 40.377,97.863 39.983,97.863 39.59C98.213 39.496,98.547 39.402,98.88 39.29C99.06 39.23,99.223 39.128,99.274 38.931C99.317 38.709,99.385 38.503,99.385 38.281C99.385 38.153,99.368 38.024,99.317 37.896C99.274 37.776,99.231 37.716,99.163 37.716L99.137 37.716C99.094 37.716,99.051 37.716,99 37.742C98.615 37.896,98.239 38.024,97.845 38.136L97.803 37.468C97.777 36.938,97.76 36.399,97.649 35.869C97.623 35.8,97.632 35.689,97.555 35.689L97.546 35.689L97.512 35.689C97.409 35.715,97.289 35.758,97.272 35.895L97.272 36.126C97.272 36.853,97.298 37.563,97.315 38.281L96.656 38.426C96.656 38.059,96.648 37.691,96.622 37.323C96.614 37.135,96.614 36.964,96.511 36.776C96.237 36.912,96.28 37.143,96.28 37.34C96.254 37.742,96.237 38.119,96.229 38.503C95.887 38.572,95.536 38.623,95.194 38.683C94.689 38.769,94.612 38.846,94.612 39.402C94.578 39.538,94.681 39.692,94.663 39.846C94.638 40.077,94.698 40.154,94.86 40.163C94.894 40.163,94.937 40.154,94.989 40.137C95.391 40.077,95.784 40.017,96.177 39.94L96.143 41.052C96.126 41.258,96.109 41.454,96.083 41.651C95.621 41.745,95.168 41.831,94.715 41.942C94.458 42.002,94.304 42.096,94.304 42.395C94.304 42.686,94.415 42.96,94.433 43.242C94.433 43.379,94.467 43.439,94.569 43.456C94.586 43.456,94.629 43.439,94.681 43.43C95.117 43.328,95.562 43.242,96.006 43.148C95.998 43.302,95.998 43.465,95.998 43.636C95.998 44.072,96.041 44.491,96.195 44.91C96.22 44.996,96.195 45.141,96.306 45.141M96.631 41.54C96.648 41.275,96.648 41.001,96.656 40.727C96.674 40.437,96.674 40.154,96.674 39.855C96.879 39.821,97.076 39.786,97.272 39.735C97.212 40.3,97.187 40.864,97.153 41.437"/><text stroke="none" font-family="PetalumaScript, Arial, sans-serif" font-size="7.92pt" x="98.485" y="43.6">11</text><path stroke="none" d="M106.09 44.736C106.131 44.736,106.193 44.705,106.265 44.623C106.46 44.469,106.675 44.305,106.891 44.151C108.184 43.227,108.882 41.965,108.882 40.353C108.882 40.148,108.882 39.953,108.851 39.748C108.78 39.029,108.369 38.608,107.743 38.608C107.609 38.608,107.466 38.639,107.302 38.691C107.096 38.742,106.891 38.845,106.675 38.937L106.665 38.947L106.665 38.567C106.665 38.003,106.696 37.449,106.727 36.884C106.727 36.556,106.758 36.248,106.758 35.919C106.758 35.611,106.727 35.283,106.655 34.975C106.624 34.872,106.624 34.677,106.47 34.677L106.46 34.677C106.296 34.698,106.172 34.831,106.172 35.036C106.162 35.447,106.121 35.878,106.131 36.289L106.131 36.751C106.131 37.623,106.09 38.496,106.06 39.368C106.018 40.62,105.803 41.852,105.803 43.104C105.803 43.597,105.834 44.11,105.967 44.603C105.998 44.685,106.029 44.736,106.09 44.736M106.491 42.735C106.521 42.355,106.532 41.955,106.573 41.534C106.604 41.216,106.624 40.887,106.624 40.559L106.675 40.538C106.963 40.415,107.24 40.271,107.548 40.271C107.651 40.271,107.774 40.302,107.887 40.343C108.133 40.425,108.246 40.548,108.236 40.713C108.236 40.795,108.215 40.887,108.153 41.01C107.774 41.76,107.148 42.263,106.491 42.735"/><text stroke="none" font-family="PetalumaScript, Arial, sans-serif" font-size="7.92pt" x="109.024" y="43.6">9</text><path stroke="none" d="M116.605 46.231C116.715 46.267,116.833 46.185,116.906 46.112C117.116 45.875,117.317 45.62,117.445 45.337C117.655 44.844,117.846 44.379,118.056 43.886C118.512 42.782,118.777 41.651,118.804 40.154C118.841 39.78,118.713 39.123,118.576 38.466C118.129 36.414,117.499 34.425,116.423 32.6C116.368 32.509,116.341 32.335,116.204 32.335C116.204 32.335,116.186 32.335,116.186 32.354C116.03 32.363,115.939 32.527,115.912 32.655C115.848 32.883,115.802 33.102,115.802 33.312C115.802 33.558,115.857 33.795,116.003 34.06C116.332 34.653,116.651 35.255,116.952 35.857C117.317 36.605,117.582 37.399,117.819 38.184C118.01 38.813,118.156 39.47,118.211 40.145C118.22 40.264,118.22 40.382,118.22 40.483C118.22 41.131,118.083 41.751,117.846 42.353C117.518 43.229,117.344 44.16,116.751 44.935C116.505 45.246,116.487 45.61,116.505 45.975C116.514 46.067,116.551 46.213,116.605 46.231"/></g><path stroke="none" d="M55.05 128.208C55.159 128.208,55.323 128.126,55.515 127.907C56.035 127.497,56.609 127.059,57.184 126.648C60.631 124.186,62.492 120.821,62.492 116.525C62.492 115.978,62.492 115.458,62.41 114.911C62.218 112.996,61.124 111.874,59.455 111.874C59.099 111.874,58.716 111.956,58.278 112.093C57.731 112.23,57.184 112.503,56.609 112.75L56.582 112.777L56.582 111.765C56.582 110.26,56.664 108.782,56.746 107.278C56.746 106.402,56.828 105.581,56.828 104.706C56.828 103.885,56.746 103.009,56.554 102.189C56.472 101.915,56.472 101.395,56.062 101.395L56.035 101.395C55.597 101.45,55.269 101.806,55.269 102.353C55.241 103.447,55.132 104.596,55.159 105.691L55.159 106.922C55.159 109.248,55.05 111.573,54.968 113.899C54.858 117.237,54.284 120.52,54.284 123.858C54.284 125.171,54.366 126.539,54.721 127.852C54.803 128.071,54.886 128.208,55.05 128.208M56.117 122.873C56.199 121.86,56.226 120.793,56.336 119.672C56.418 118.824,56.472 117.948,56.472 117.072L56.609 117.018C57.375 116.689,58.114 116.306,58.935 116.306C59.208 116.306,59.537 116.388,59.838 116.498C60.494 116.717,60.795 117.045,60.768 117.483C60.768 117.702,60.713 117.948,60.549 118.276C59.537 120.274,57.868 121.614,56.117 122.873"/></g><g class="vf-notehead" id="vf-auto23879" pointer-events="bounding-box"><path stroke="none" d="M78.915 103.428C78.859 108.229,74.731 112.048,70.126 112.048C69.452 112.048,68.75 111.964,68.076 111.795C66.644 111.43,65.998 110.391,65.69 108.959C65.521 108.229,65.437 107.555,65.437 106.909C65.437 102.332,69.003 99.384,73.412 98.008C73.552 97.952,73.777 97.924,73.973 97.924C75.939 97.924,78.943 100.226,78.943 102.81C78.943 103.006,78.943 103.231,78.915 103.428M71.418 107.864C73.131 107.274,75.012 106.348,76.641 104.832C76.669 104.803,76.725 104.635,76.725 104.523C76.725 104.382,76.669 104.27,76.641 104.242C75.911 103.512,75.349 102.529,74.17 102.36C74.001 102.332,73.861 102.332,73.636 102.332C71.895 102.332,70.519 103.456,69.087 104.242C68.189 104.747,67.178 105.814,67.374 106.741C67.571 107.752,69.031 107.555,69.958 107.752C70.323 107.836,70.66 107.836,71.418 107.864"/></g><g class="vf-notehead" id="vf-auto23880" pointer-events="bounding-box"><path stroke="none" d="M78.915 88.428C78.859 93.229,74.731 97.048,70.126 97.048C69.452 97.048,68.75 96.964,68.076 96.795C66.644 96.43,65.998 95.391,65.69 93.959C65.521 93.229,65.437 92.555,65.437 91.909C65.437 87.332,69.003 84.384,73.412 83.008C73.552 82.952,73.777 82.924,73.973 82.924C75.939 82.924,78.943 85.226,78.943 87.81C78.943 88.006,78.943 88.231,78.915 88.428M71.418 92.864C73.131 92.274,75.012 91.348,76.641 89.832C76.669 89.803,76.725 89.635,76.725 89.523C76.725 89.382,76.669 89.27,76.641 89.242C75.911 88.512,75.349 87.529,74.17 87.36C74.001 87.332,73.861 87.332,73.636 87.332C71.895 87.332,70.519 88.456,69.087 89.242C68.189 89.747,67.178 90.814,67.374 91.741C67.571 92.752,69.031 92.555,69.958 92.752C70.323 92.836,70.66 92.836,71.418 92.864"/></g></g><g class="vf-stavenote" id="vf-auto23883"><path stroke-width="1.4" fill="none" stroke="#444" d="M246.965 70L266.472 70"/><path stroke-width="1.4" fill="none" stroke="#444" d="M246.965 60L266.472 60"/><g class="vf-stem" id="vf-auto23884" pointer-events="bounding-box"><path stroke-width="1.5" fill="none" d="M250.715 62.65L250.715 130"/></g><g class="vf-notehead" id="vf-auto23890" pointer-events="bounding-box"><path stroke="none" d="M263.444 93.428C263.387 98.229,259.26 102.048,254.655 102.048C253.981 102.048,253.279 101.964,252.605 101.795C251.173 101.43,250.527 100.391,250.218 98.959C250.049 98.229,249.965 97.555,249.965 96.909C249.965 92.332,253.531 89.384,257.94 88.008C258.08 87.952,258.305 87.924,258.502 87.924C260.467 87.924,263.472 90.226,263.472 92.81C263.472 93.006,263.472 93.231,263.444 93.428M255.946 97.864C257.659 97.274,259.54 96.348,261.169 94.832C261.197 94.803,261.253 94.635,261.253 94.523C261.253 94.382,261.197 94.27,261.169 94.242C260.439 93.512,259.877 92.529,258.698 92.36C258.53 92.332,258.389 92.332,258.165 92.332C256.424 92.332,255.048 93.456,253.616 94.242C252.717 94.747,251.706 95.814,251.903 96.741C252.099 97.752,253.559 97.555,254.486 97.752C254.851 97.836,255.188 97.836,255.946 97.864"/><g class="vf-chordsymbol" id="vf-auto23867"><text stroke="none" font-family="PetalumaScript, Arial, sans-serif" font-size="12pt" x="256.718" y="50">C</text><path stroke="none" d="M267.447 43.59L271.276 43.323C272.384 43.241,273.472 43.159,274.581 43.087C274.868 43.066,274.95 42.953,274.94 42.594C274.848 42.286,274.745 41.896,274.509 41.547C273.667 40.233,272.826 38.919,271.964 37.595C271.522 36.908,271.101 36.21,270.639 35.532C270.475 35.296,270.362 35.194,270.249 35.194C270.147 35.194,270.065 35.276,269.962 35.471C268.72 37.595,267.488 39.71,266.246 41.824C266.205 41.896,266.174 41.978,266.174 42.06C266.174 42.132,266.205 42.214,266.246 42.286C266.482 42.717,266.842 43.087,267.088 43.497C267.15 43.59,267.221 43.6,267.293 43.6M267.848 42.091C267.796 42.091,267.776 42.081,267.745 42.03C267.683 41.927,267.796 41.855,267.858 41.763C268.751 40.172,269.644 38.591,270.547 36.99C270.609 36.877,270.65 36.826,270.711 36.826C270.752 36.826,270.814 36.877,270.875 36.98C271.789 38.437,272.703 39.895,273.637 41.342C273.688 41.414,273.729 41.486,273.729 41.527C273.729 41.588,273.667 41.629,273.503 41.65C271.686 41.783,269.859 41.927,268.012 42.081C267.96 42.06,267.899 42.091,267.848 42.091"/></g></g><g class="vf-notehead" id="vf-auto23889" pointer-events="bounding-box"><path stroke="none" d="M263.444 83.428C263.387 88.229,259.26 92.048,254.655 92.048C253.981 92.048,253.279 91.964,252.605 91.795C251.173 91.43,250.527 90.391,250.218 88.959C250.049 88.229,249.965 87.555,249.965 86.909C249.965 82.332,253.531 79.384,257.94 78.008C258.08 77.952,258.305 77.924,258.502 77.924C260.467 77.924,263.472 80.226,263.472 82.81C263.472 83.006,263.472 83.231,263.444 83.428M255.946 87.864C257.659 87.274,259.54 86.348,261.169 84.832C261.197 84.803,261.253 84.635,261.253 84.523C261.253 84.382,261.197 84.27,261.169 84.242C260.439 83.512,259.877 82.529,258.698 82.36C258.53 82.332,258.389 82.332,258.165 82.332C256.424 82.332,255.048 83.456,253.616 84.242C252.717 84.747,251.706 85.814,251.903 86.741C252.099 87.752,253.559 87.555,254.486 87.752C254.851 87.836,255.188 87.836,255.946 87.864"/></g><g class="vf-notehead" id="vf-auto23888" pointer-events="bounding-box"><path stroke="none" d="M263.444 58.428C263.387 63.229,259.26 67.048,254.655 67.048C253.981 67.048,253.279 66.964,252.605 66.795C251.173 66.43,250.527 65.391,250.218 63.959C250.049 63.229,249.965 62.555,249.965 61.909C249.965 57.332,253.531 54.384,257.94 53.008C258.08 52.952,258.305 52.924,258.502 52.924C260.467 52.924,263.472 55.226,263.472 57.81C263.472 58.006,263.472 58.231,263.444 58.428M255.946 62.864C257.659 62.274,259.54 61.348,261.169 59.832C261.197 59.803,261.253 59.635,261.253 59.523C261.253 59.382,261.197 59.27,261.169 59.242C260.439 58.512,259.877 57.529,258.698 57.36C258.53 57.332,258.389 57.332,258.165 57.332C256.424 57.332,255.048 58.456,253.616 59.242C252.717 59.747,251.706 60.814,251.903 61.741C252.099 62.752,253.559 62.555,254.486 62.752C254.851 62.836,255.188 62.836,255.946 62.864"/></g></g><g class="vf-stave" id="vf-auto23896" stroke-width="1" fill="#999999" stroke="#999999"><path fill="none" d="M10 180L460 180"/><path fill="none" d="M10 190L460 190"/><path fill="none" d="M10 200L460 200"/><path fill="none" d="M10 210L460 210"/><path fill="none" d="M10 220L460 220"/></g><g class="vf-stavebarline" id="vf-auto23897"><rect x="10" y="179.5" width="1" height="41" stroke="none"/></g><g class="vf-stavebarline" id="vf-auto23898"><rect x="460" y="179.5" width="1" height="41" stroke="none"/></g><g class="vf-clef" id="vf-auto23899"><path stroke="none" d="M23.693 231.402C23.87 231.402,24.048 231.377,24.276 231.301C24.707 231.148,25.062 230.92,25.366 230.591C28.382 227.423,29.623 223.596,29.75 219.313C29.75 218.983,29.776 218.451,29.776 218.451C29.776 218.451,30.282 218.147,30.511 218.071C31.727 217.488,32.893 216.829,33.932 215.993C36.72 213.762,38.316 210.747,39.051 207.376C39.204 206.844,39.229 206.286,39.229 205.779C39.229 203.473,37.962 201.8,35.047 201.268C34.312 201.116,33.577 201.04,32.842 201.04C31.017 201.04,29.269 201.521,27.621 202.484C27.419 202.611,27.19 202.763,27.19 202.763L26.253 199.215C26.202 199.038,26.202 198.708,26.202 198.708C26.202 198.708,29.928 192.093,30.434 188.697C30.612 187.709,30.688 186.72,30.688 185.757C30.688 184.972,30.663 184.237,30.536 183.527C30.181 180.891,29.193 178.408,28.534 175.848C28.356 175.088,28.103 174.175,27.216 174.175C26.557 174.175,26.101 174.809,25.695 175.341C23.82 177.926,22.907 180.891,22.73 184.059C22.705 184.566,22.705 185.098,22.705 185.605C22.705 188.545,23.186 191.51,23.566 194.425C23.566 194.653,23.642 194.881,23.693 195.059C22.046 197.39,20.221 199.57,18.65 201.978C17.56 203.701,16.343 205.424,15.583 207.35C15.177 208.288,15 209.403,15 210.493C15 212.749,15.76 215.055,17.078 216.322C17.839 217.057,19.055 217.868,20.246 218.299C21.944 218.907,23.617 219.313,25.391 219.313C25.923 219.313,26.455 219.287,27.013 219.211L27.444 219.135C27.444 219.135,27.469 219.465,27.444 219.642C27.038 221.847,26.506 224.001,25.188 225.826C24.479 226.764,23.82 227.828,22.451 227.93C22.046 227.98,21.868 228.234,21.868 228.563C21.868 228.69,21.894 228.817,21.944 228.944C22.147 229.501,22.4 230.084,22.654 230.642C22.882 231.148,23.237 231.402,23.693 231.402M25.138 192.828C24.859 191.08,24.681 189.356,24.681 187.633C24.681 184.465,25.34 181.373,27.19 178.408C27.621 179.751,27.849 181.119,27.849 182.488C27.849 183.198,27.773 183.933,27.672 184.642C27.19 187.506,26.532 190.269,25.138 192.828M21.387 214.421C20.88 214.396,20.449 214.219,19.967 214.067C19.004 213.737,18.219 213.382,17.965 212.749C17.839 212.47,17.813 212.14,17.813 211.811C17.813 211.406,17.889 210.975,17.965 210.518C17.991 210.316,18.219 209.682,18.295 209.581C19.714 207.046,21.412 204.765,23.211 202.459L24.732 200.457L25.011 201.268C25.29 202.18,25.543 203.625,25.543 203.625C25.543 203.625,24.529 204.943,23.87 205.602C22.046 207.376,21.159 209.606,21.159 212.064C21.159 212.673,21.235 213.306,21.361 213.965C21.387 214.092,21.387 214.219,21.387 214.421M29.269 213.306C28.99 210.924,28.432 209.023,27.925 206.742C27.875 206.463,27.875 206.286,28.001 206.134C28.939 205.957,29.852 205.881,30.815 205.881C31.727 205.881,32.589 205.957,33.501 206.134C34.591 206.362,35.681 206.539,36.542 207.426C36.593 207.503,36.669 207.579,36.745 207.604C35.301 210.518,33.146 212.723,30.08 214.067L29.421 214.32M25.391 215.055C24.124 215.055,22.882 214.726,22.882 214.726C22.882 214.726,22.781 214.219,22.781 213.484C22.781 213.002,22.806 212.419,22.958 211.836C23.313 210.088,24.555 208.846,25.873 207.68C25.974 207.579,26.101 207.503,26.177 207.503C26.303 207.503,26.354 207.655,26.379 207.908C26.709 210.062,27.266 212.166,27.419 214.32C27.444 214.548,27.419 214.878,27.419 214.878C27.419 214.878,26.455 215.131,25.391 215.055"/></g><g class="vf-stave" id="vf-auto23896" stroke-width="1" fill="#999999" stroke="#999999"><path fill="none" d="M10 180L460 180"/><path fill="none" d="M10 190L460 190"/><path fill="none" d="M10 200L460 200"/><path fill="none" d="M10 210L460 210"/><path fill="none" d="M10 220L460 220"/></g><g class="vf-stavebarline" id="vf-auto23897"><rect x="10" y="179.5" width="1" height="41" stroke="none"/></g><g class="vf-stavebarline" id="vf-auto23898"><rect x="460" y="179.5" width="1" height="41" stroke="none"/></g><g class="vf-clef" id="vf-auto23899"><path stroke="none" d="M23.693 231.402C23.87 231.402,24.048 231.377,24.276 231.301C24.707 231.148,25.062 230.92,25.366 230.591C28.382 227.423,29.623 223.596,29.75 219.313C29.75 218.983,29.776 218.451,29.776 218.451C29.776 218.451,30.282 218.147,30.511 218.071C31.727 217.488,32.893 216.829,33.932 215.993C36.72 213.762,38.316 210.747,39.051 207.376C39.204 206.844,39.229 206.286,39.229 205.779C39.229 203.473,37.962 201.8,35.047 201.268C34.312 201.116,33.577 201.04,32.842 201.04C31.017 201.04,29.269 201.521,27.621 202.484C27.419 202.611,27.19 202.763,27.19 202.763L26.253 199.215C26.202 199.038,26.202 198.708,26.202 198.708C26.202 198.708,29.928 192.093,30.434 188.697C30.612 187.709,30.688 186.72,30.688 185.757C30.688 184.972,30.663 184.237,30.536 183.527C30.181 180.891,29.193 178.408,28.534 175.848C28.356 175.088,28.103 174.175,27.216 174.175C26.557 174.175,26.101 174.809,25.695 175.341C23.82 177.926,22.907 180.891,22.73 184.059C22.705 184.566,22.705 185.098,22.705 185.605C22.705 188.545,23.186 191.51,23.566 194.425C23.566 194.653,23.642 194.881,23.693 195.059C22.046 197.39,20.221 199.57,18.65 201.978C17.56 203.701,16.343 205.424,15.583 207.35C15.177 208.288,15 209.403,15 210.493C15 212.749,15.76 215.055,17.078 216.322C17.839 217.057,19.055 217.868,20.246 218.299C21.944 218.907,23.617 219.313,25.391 219.313C25.923 219.313,26.455 219.287,27.013 219.211L27.444 219.135C27.444 219.135,27.469 219.465,27.444 219.642C27.038 221.847,26.506 224.001,25.188 225.826C24.479 226.764,23.82 227.828,22.451 227.93C22.046 227.98,21.868 228.234,21.868 228.563C21.868 228.69,21.894 228.817,21.944 228.944C22.147 229.501,22.4 230.084,22.654 230.642C22.882 231.148,23.237 231.402,23.693 231.402M25.138 192.828C24.859 191.08,24.681 189.356,24.681 187.633C24.681 184.465,25.34 181.373,27.19 178.408C27.621 179.751,27.849 181.119,27.849 182.488C27.849 183.198,27.773 183.933,27.672 184.642C27.19 187.506,26.532 190.269,25.138 192.828M21.387 214.421C20.88 214.396,20.449 214.219,19.967 214.067C19.004 213.737,18.219 213.382,17.965 212.749C17.839 212.47,17.813 212.14,17.813 211.811C17.813 211.406,17.889 210.975,17.965 210.518C17.991 210.316,18.219 209.682,18.295 209.581C19.714 207.046,21.412 204.765,23.211 202.459L24.732 200.457L25.011 201.268C25.29 202.18,25.543 203.625,25.543 203.625C25.543 203.625,24.529 204.943,23.87 205.602C22.046 207.376,21.159 209.606,21.159 212.064C21.159 212.673,21.235 213.306,21.361 213.965C21.387 214.092,21.387 214.219,21.387 214.421M29.269 213.306C28.99 210.924,28.432 209.023,27.925 206.742C27.875 206.463,27.875 206.286,28.001 206.134C28.939 205.957,29.852 205.881,30.815 205.881C31.727 205.881,32.589 205.957,33.501 206.134C34.591 206.362,35.681 206.539,36.542 207.426C36.593 207.503,36.669 207.579,36.745 207.604C35.301 210.518,33.146 212.723,30.08 214.067L29.421 214.32M25.391 215.055C24.124 215.055,22.882 214.726,22.882 214.726C22.882 214.726,22.781 214.219,22.781 213.484C22.781 213.002,22.806 212.419,22.958 211.836C23.313 210.088,24.555 208.846,25.873 207.68C25.974 207.579,26.101 207.503,26.177 207.503C26.303 207.503,26.354 207.655,26.379 207.908C26.709 210.062,27.266 212.166,27.419 214.32C27.444 214.548,27.419 214.878,27.419 214.878C27.419 214.878,26.455 215.131,25.391 215.055"/></g><g class="vf-stavenote" id="vf-auto23900"><g class="vf-stem" id="vf-auto23901" pointer-events="bounding-box"><path stroke-width="1.5" fill="none" d="M90.717 217.45L90.717 155"/></g><g class="vf-notehead" id="vf-auto23905" pointer-events="bounding-box"><path stroke="none" d="M91.439 218.428C91.383 223.229,87.255 227.048,82.65 227.048C81.976 227.048,81.274 226.964,80.6 226.795C79.168 226.43,78.522 225.391,78.213 223.959C78.045 223.229,77.961 222.555,77.961 221.909C77.961 217.332,81.527 214.384,85.935 213.008C86.076 212.952,86.3 212.924,86.497 212.924C88.463 212.924,91.467 215.226,91.467 217.81C91.467 218.006,91.467 218.231,91.439 218.428M83.942 222.864C85.655 222.274,87.536 221.348,89.165 219.832C89.193 219.803,89.249 219.635,89.249 219.523C89.249 219.382,89.193 219.27,89.165 219.242C88.435 218.512,87.873 217.529,86.694 217.36C86.525 217.332,86.385 217.332,86.16 217.332C84.419 217.332,83.043 218.456,81.611 219.242C80.713 219.747,79.702 220.814,79.898 221.741C80.095 222.752,81.555 222.555,82.482 222.752C82.847 222.836,83.184 222.836,83.942 222.864"/><g class="vf-chordsymbol" id="vf-auto23892"><text stroke="none" font-family="PetalumaScript, Arial, sans-serif" font-size="12pt" x="59.982" y="150">F7</text><text stroke="none" font-family="PetalumaScript, Arial, sans-serif" font-size="7.92pt" x="79.582" y="143.6">(</text><path stroke="none" d="M85.407 145.141C85.501 145.132,85.527 144.996,85.553 144.91C85.604 144.748,85.612 144.585,85.612 144.44C85.612 144.303,85.604 144.183,85.604 144.046C85.604 143.961,85.604 143.849,85.612 143.764C85.638 143.516,85.664 143.268,85.672 143.02L86.22 142.909C86.245 143.43,86.34 143.935,86.511 144.423C86.528 144.491,86.571 144.559,86.647 144.559C86.724 144.576,86.75 144.491,86.784 144.423C86.87 144.294,86.878 144.132,86.878 143.986C86.896 143.875,86.896 143.772,86.896 143.678C86.896 143.379,86.87 143.071,86.861 142.772L87.571 142.626C88.247 142.489,88.333 142.395,88.384 141.745C88.384 141.583,88.401 141.472,88.384 141.343C88.375 141.189,88.307 141.078,88.179 141.078L88.153 141.078C88.102 141.078,88.067 141.078,88.016 141.087C87.734 141.164,87.426 141.223,87.126 141.275L86.921 141.309C86.93 141.138,86.93 140.95,86.947 140.77C86.955 140.377,86.964 139.983,86.964 139.59C87.315 139.496,87.648 139.402,87.982 139.29C88.161 139.23,88.324 139.128,88.375 138.931C88.418 138.709,88.487 138.503,88.487 138.281C88.487 138.153,88.469 138.024,88.418 137.896C88.375 137.776,88.333 137.716,88.264 137.716L88.238 137.716C88.196 137.716,88.153 137.716,88.102 137.742C87.717 137.896,87.34 138.024,86.947 138.136L86.904 137.468C86.878 136.938,86.861 136.399,86.75 135.869C86.724 135.8,86.733 135.689,86.656 135.689L86.647 135.689L86.613 135.689C86.511 135.715,86.391 135.758,86.374 135.895L86.374 136.126C86.374 136.853,86.399 137.563,86.417 138.281L85.758 138.426C85.758 138.059,85.749 137.691,85.724 137.323C85.715 137.135,85.715 136.964,85.612 136.776C85.339 136.912,85.382 137.143,85.382 137.34C85.356 137.742,85.339 138.119,85.33 138.503C84.988 138.572,84.637 138.623,84.295 138.683C83.791 138.769,83.714 138.846,83.714 139.402C83.679 139.538,83.782 139.692,83.765 139.846C83.739 140.077,83.799 140.154,83.962 140.163C83.996 140.163,84.039 140.154,84.09 140.137C84.492 140.077,84.885 140.017,85.279 139.94L85.245 141.052C85.228 141.258,85.21 141.454,85.185 141.651C84.723 141.745,84.27 141.831,83.816 141.942C83.56 142.002,83.406 142.096,83.406 142.395C83.406 142.686,83.517 142.96,83.534 143.242C83.534 143.379,83.568 143.439,83.671 143.456C83.688 143.456,83.731 143.439,83.782 143.43C84.218 143.328,84.663 143.242,85.108 143.148C85.099 143.302,85.099 143.465,85.099 143.636C85.099 144.072,85.142 144.491,85.296 144.91C85.322 144.996,85.296 145.141,85.407 145.141M85.732 141.54C85.749 141.275,85.749 141.001,85.758 140.727C85.775 140.437,85.775 140.154,85.775 139.855C85.98 139.821,86.177 139.786,86.374 139.735C86.314 140.3,86.288 140.864,86.254 141.437"/><text stroke="none" font-family="PetalumaScript, Arial, sans-serif" font-size="7.92pt" x="87.587" y="143.6">11</text><path stroke="none" d="M95.192 144.736C95.233 144.736,95.294 144.705,95.366 144.623C95.561 144.469,95.777 144.305,95.992 144.151C97.286 143.227,97.984 141.965,97.984 140.353C97.984 140.148,97.984 139.953,97.953 139.748C97.881 139.029,97.47 138.608,96.844 138.608C96.711 138.608,96.567 138.639,96.403 138.691C96.198 138.742,95.992 138.845,95.777 138.937L95.767 138.947L95.767 138.567C95.767 138.003,95.797 137.449,95.828 136.884C95.828 136.556,95.859 136.248,95.859 135.919C95.859 135.611,95.828 135.283,95.756 134.975C95.726 134.872,95.726 134.677,95.572 134.677L95.561 134.677C95.397 134.698,95.274 134.831,95.274 135.036C95.264 135.447,95.223 135.878,95.233 136.289L95.233 136.751C95.233 137.623,95.192 138.496,95.161 139.368C95.12 140.62,94.904 141.852,94.904 143.104C94.904 143.597,94.935 144.11,95.069 144.603C95.099 144.685,95.13 144.736,95.192 144.736M95.592 142.735C95.623 142.355,95.633 141.955,95.674 141.534C95.705 141.216,95.726 140.887,95.726 140.559L95.777 140.538C96.064 140.415,96.341 140.271,96.649 140.271C96.752 140.271,96.875 140.302,96.988 140.343C97.234 140.425,97.347 140.548,97.337 140.713C97.337 140.795,97.316 140.887,97.255 141.01C96.875 141.76,96.249 142.263,95.592 142.735"/><text stroke="none" font-family="PetalumaScript, Arial, sans-serif" font-size="7.92pt" x="98.125" y="143.6">9</text><text stroke="none" font-family="PetalumaScript, Arial, sans-serif" font-size="7.92pt" x="105.433" y="143.6">)</text></g><path stroke="none" d="M67.574 228.208C67.683 228.208,67.847 228.126,68.039 227.907C68.558 227.497,69.133 227.059,69.708 226.648C73.155 224.186,75.015 220.821,75.015 216.525C75.015 215.978,75.015 215.458,74.933 214.911C74.742 212.996,73.647 211.874,71.978 211.874C71.623 211.874,71.24 211.956,70.802 212.093C70.255 212.23,69.708 212.503,69.133 212.75L69.106 212.777L69.106 211.765C69.106 210.26,69.188 208.782,69.27 207.278C69.27 206.402,69.352 205.581,69.352 204.706C69.352 203.885,69.27 203.009,69.078 202.189C68.996 201.915,68.996 201.395,68.586 201.395L68.558 201.395C68.121 201.45,67.792 201.806,67.792 202.353C67.765 203.447,67.656 204.596,67.683 205.691L67.683 206.922C67.683 209.248,67.574 211.573,67.491 213.899C67.382 217.237,66.807 220.52,66.807 223.858C66.807 225.171,66.89 226.539,67.245 227.852C67.327 228.071,67.409 228.208,67.574 228.208M68.641 222.873C68.723 221.86,68.75 220.793,68.859 219.672C68.942 218.824,68.996 217.948,68.996 217.072L69.133 217.018C69.899 216.689,70.638 216.306,71.459 216.306C71.732 216.306,72.061 216.388,72.362 216.498C73.018 216.717,73.319 217.045,73.292 217.483C73.292 217.702,73.237 217.948,73.073 218.276C72.061 220.274,70.392 221.614,68.641 222.873"/></g><g class="vf-notehead" id="vf-auto23906" pointer-events="bounding-box"><path stroke="none" d="M91.439 203.428C91.383 208.229,87.255 212.048,82.65 212.048C81.976 212.048,81.274 211.964,80.6 211.795C79.168 211.43,78.522 210.391,78.213 208.959C78.045 208.229,77.961 207.555,77.961 206.909C77.961 202.332,81.527 199.384,85.935 198.008C86.076 197.952,86.3 197.924,86.497 197.924C88.463 197.924,91.467 200.226,91.467 202.81C91.467 203.006,91.467 203.231,91.439 203.428M83.942 207.864C85.655 207.274,87.536 206.348,89.165 204.832C89.193 204.803,89.249 204.635,89.249 204.523C89.249 204.382,89.193 204.27,89.165 204.242C88.435 203.512,87.873 202.529,86.694 202.36C86.525 202.332,86.385 202.332,86.16 202.332C84.419 202.332,83.043 203.456,81.611 204.242C80.713 204.747,79.702 205.814,79.898 206.741C80.095 207.752,81.555 207.555,82.482 207.752C82.847 207.836,83.184 207.836,83.942 207.864"/></g><g class="vf-notehead" id="vf-auto23907" pointer-events="bounding-box"><path stroke="none" d="M91.439 188.428C91.383 193.229,87.255 197.048,82.65 197.048C81.976 197.048,81.274 196.964,80.6 196.795C79.168 196.43,78.522 195.391,78.213 193.959C78.045 193.229,77.961 192.555,77.961 191.909C77.961 187.332,81.527 184.384,85.935 183.008C86.076 182.952,86.3 182.924,86.497 182.924C88.463 182.924,91.467 185.226,91.467 187.81C91.467 188.006,91.467 188.231,91.439 188.428M83.942 192.864C85.655 192.274,87.536 191.348,89.165 189.832C89.193 189.803,89.249 189.635,89.249 189.523C89.249 189.382,89.193 189.27,89.165 189.242C88.435 188.512,87.873 187.529,86.694 187.36C86.525 187.332,86.385 187.332,86.16 187.332C84.419 187.332,83.043 188.456,81.611 189.242C80.713 189.747,79.702 190.814,79.898 191.741C80.095 192.752,81.555 192.555,82.482 192.752C82.847 192.836,83.184 192.836,83.942 192.864"/></g></g><g class="vf-stavenote" id="vf-auto23910"><path stroke-width="1.4" fill="none" stroke="#444" d="M254.227 170L273.734 170"/><path stroke-width="1.4" fill="none" stroke="#444" d="M254.227 160L273.734 160"/><g class="vf-stem" id="vf-auto23911" pointer-events="bounding-box"><path stroke-width="1.5" fill="none" d="M257.977 162.65L257.977 230"/></g><g class="vf-notehead" id="vf-auto23917" pointer-events="bounding-box"><path stroke="none" d="M270.706 193.428C270.649 198.229,266.522 202.048,261.916 202.048C261.243 202.048,260.541 201.964,259.867 201.795C258.435 201.43,257.789 200.391,257.48 198.959C257.311 198.229,257.227 197.555,257.227 196.909C257.227 192.332,260.793 189.384,265.202 188.008C265.342 187.952,265.567 187.924,265.763 187.924C267.729 187.924,270.734 190.226,270.734 192.81C270.734 193.006,270.734 193.231,270.706 193.428M263.208 197.864C264.921 197.274,266.802 196.348,268.431 194.832C268.459 194.803,268.515 194.635,268.515 194.523C268.515 194.382,268.459 194.27,268.431 194.242C267.701 193.512,267.139 192.529,265.96 192.36C265.792 192.332,265.651 192.332,265.426 192.332C263.686 192.332,262.31 193.456,260.878 194.242C259.979 194.747,258.968 195.814,259.165 196.741C259.361 197.752,260.821 197.555,261.748 197.752C262.113 197.836,262.45 197.836,263.208 197.864"/><g class="vf-chordsymbol" id="vf-auto23895"><text stroke="none" font-family="PetalumaScript, Arial, sans-serif" font-size="12pt" x="263.98" y="150">C</text><text stroke="none" font-family="PetalumaScript, Arial, sans-serif" font-size="7.92pt" x="275.548" y="143.6">Maj.</text></g></g><g class="vf-notehead" id="vf-auto23916" pointer-events="bounding-box"><path stroke="none" d="M270.706 183.428C270.649 188.229,266.522 192.048,261.916 192.048C261.243 192.048,260.541 191.964,259.867 191.795C258.435 191.43,257.789 190.391,257.48 188.959C257.311 188.229,257.227 187.555,257.227 186.909C257.227 182.332,260.793 179.384,265.202 178.008C265.342 177.952,265.567 177.924,265.763 177.924C267.729 177.924,270.734 180.226,270.734 182.81C270.734 183.006,270.734 183.231,270.706 183.428M263.208 187.864C264.921 187.274,266.802 186.348,268.431 184.832C268.459 184.803,268.515 184.635,268.515 184.523C268.515 184.382,268.459 184.27,268.431 184.242C267.701 183.512,267.139 182.529,265.96 182.36C265.792 182.332,265.651 182.332,265.426 182.332C263.686 182.332,262.31 183.456,260.878 184.242C259.979 184.747,258.968 185.814,259.165 186.741C259.361 187.752,260.821 187.555,261.748 187.752C262.113 187.836,262.45 187.836,263.208 187.864"/></g><g class="vf-notehead" id="vf-auto23915" pointer-events="bounding-box"><path stroke="none" d="M270.706 158.428C270.649 163.229,266.522 167.048,261.916 167.048C261.243 167.048,260.541 166.964,259.867 166.795C258.435 166.43,257.789 165.391,257.48 163.959C257.311 163.229,257.227 162.555,257.227 161.909C257.227 157.332,260.793 154.384,265.202 153.008C265.342 152.952,265.567 152.924,265.763 152.924C267.729 152.924,270.734 155.226,270.734 157.81C270.734 158.006,270.734 158.231,270.706 158.428M263.208 162.864C264.921 162.274,266.802 161.348,268.431 159.832C268.459 159.803,268.515 159.635,268.515 159.523C268.515 159.382,268.459 159.27,268.431 159.242C267.701 158.512,267.139 157.529,265.96 157.36C265.792 157.332,265.651 157.332,265.426 157.332C263.686 157.332,262.31 158.456,260.878 159.242C259.979 159.747,258.968 160.814,259.165 161.741C259.361 162.752,260.821 162.555,261.748 162.752C262.113 162.836,262.45 162.836,263.208 162.864"/></g></g><g class="vf-stave" id="vf-auto23923" stroke-width="1" fill="#999999" stroke="#999999"><path fill="none" d="M10 280L460 280"/><path fill="none" d="M10 290L460 290"/><path fill="none" d="M10 300L460 300"/><path fill="none" d="M10 310L460 310"/><path fill="none" d="M10 320L460 320"/></g><g class="vf-stavebarline" id="vf-auto23924"><rect x="10" y="279.5" width="1" height="41" stroke="none"/></g><g class="vf-stavebarline" id="vf-auto23925"><rect x="460" y="279.5" width="1" height="41" stroke="none"/></g><g class="vf-clef" id="vf-auto23926"><path stroke="none" d="M23.693 331.402C23.87 331.402,24.048 331.377,24.276 331.301C24.707 331.148,25.062 330.92,25.366 330.591C28.382 327.423,29.623 323.596,29.75 319.313C29.75 318.983,29.776 318.451,29.776 318.451C29.776 318.451,30.282 318.147,30.511 318.071C31.727 317.488,32.893 316.829,33.932 315.993C36.72 313.762,38.316 310.747,39.051 307.376C39.204 306.844,39.229 306.286,39.229 305.779C39.229 303.473,37.962 301.8,35.047 301.268C34.312 301.116,33.577 301.04,32.842 301.04C31.017 301.04,29.269 301.521,27.621 302.484C27.419 302.611,27.19 302.763,27.19 302.763L26.253 299.215C26.202 299.038,26.202 298.708,26.202 298.708C26.202 298.708,29.928 292.093,30.434 288.697C30.612 287.709,30.688 286.72,30.688 285.757C30.688 284.972,30.663 284.237,30.536 283.527C30.181 280.891,29.193 278.408,28.534 275.848C28.356 275.088,28.103 274.175,27.216 274.175C26.557 274.175,26.101 274.809,25.695 275.341C23.82 277.926,22.907 280.891,22.73 284.059C22.705 284.566,22.705 285.098,22.705 285.605C22.705 288.545,23.186 291.51,23.566 294.425C23.566 294.653,23.642 294.881,23.693 295.059C22.046 297.39,20.221 299.57,18.65 301.978C17.56 303.701,16.343 305.424,15.583 307.35C15.177 308.288,15 309.403,15 310.493C15 312.749,15.76 315.055,17.078 316.322C17.839 317.057,19.055 317.868,20.246 318.299C21.944 318.907,23.617 319.313,25.391 319.313C25.923 319.313,26.455 319.287,27.013 319.211L27.444 319.135C27.444 319.135,27.469 319.465,27.444 319.642C27.038 321.847,26.506 324.001,25.188 325.826C24.479 326.764,23.82 327.828,22.451 327.93C22.046 327.98,21.868 328.234,21.868 328.563C21.868 328.69,21.894 328.817,21.944 328.944C22.147 329.501,22.4 330.084,22.654 330.642C22.882 331.148,23.237 331.402,23.693 331.402M25.138 292.828C24.859 291.08,24.681 289.356,24.681 287.633C24.681 284.465,25.34 281.373,27.19 278.408C27.621 279.751,27.849 281.119,27.849 282.488C27.849 283.198,27.773 283.933,27.672 284.642C27.19 287.506,26.532 290.269,25.138 292.828M21.387 314.421C20.88 314.396,20.449 314.219,19.967 314.067C19.004 313.737,18.219 313.382,17.965 312.749C17.839 312.47,17.813 312.14,17.813 311.811C17.813 311.406,17.889 310.975,17.965 310.518C17.991 310.316,18.219 309.682,18.295 309.581C19.714 307.046,21.412 304.765,23.211 302.459L24.732 300.457L25.011 301.268C25.29 302.18,25.543 303.625,25.543 303.625C25.543 303.625,24.529 304.943,23.87 305.602C22.046 307.376,21.159 309.606,21.159 312.064C21.159 312.673,21.235 313.306,21.361 313.965C21.387 314.092,21.387 314.219,21.387 314.421M29.269 313.306C28.99 310.924,28.432 309.023,27.925 306.742C27.875 306.463,27.875 306.286,28.001 306.134C28.939 305.957,29.852 305.881,30.815 305.881C31.727 305.881,32.589 305.957,33.501 306.134C34.591 306.362,35.681 306.539,36.542 307.426C36.593 307.503,36.669 307.579,36.745 307.604C35.301 310.518,33.146 312.723,30.08 314.067L29.421 314.32M25.391 315.055C24.124 315.055,22.882 314.726,22.882 314.726C22.882 314.726,22.781 314.219,22.781 313.484C22.781 313.002,22.806 312.419,22.958 311.836C23.313 310.088,24.555 308.846,25.873 307.68C25.974 307.579,26.101 307.503,26.177 307.503C26.303 307.503,26.354 307.655,26.379 307.908C26.709 310.062,27.266 312.166,27.419 314.32C27.444 314.548,27.419 314.878,27.419 314.878C27.419 314.878,26.455 315.131,25.391 315.055"/></g><g class="vf-stave" id="vf-auto23923" stroke-width="1" fill="#999999" stroke="#999999"><path fill="none" d="M10 280L460 280"/><path fill="none" d="M10 290L460 290"/><path fill="none" d="M10 300L460 300"/><path fill="none" d="M10 310L460 310"/><path fill="none" d="M10 320L460 320"/></g><g class="vf-stavebarline" id="vf-auto23924"><rect x="10" y="279.5" width="1" height="41" stroke="none"/></g><g class="vf-stavebarline" id="vf-auto23925"><rect x="460" y="279.5" width="1" height="41" stroke="none"/></g><g class="vf-clef" id="vf-auto23926"><path stroke="none" d="M23.693 331.402C23.87 331.402,24.048 331.377,24.276 331.301C24.707 331.148,25.062 330.92,25.366 330.591C28.382 327.423,29.623 323.596,29.75 319.313C29.75 318.983,29.776 318.451,29.776 318.451C29.776 318.451,30.282 318.147,30.511 318.071C31.727 317.488,32.893 316.829,33.932 315.993C36.72 313.762,38.316 310.747,39.051 307.376C39.204 306.844,39.229 306.286,39.229 305.779C39.229 303.473,37.962 301.8,35.047 301.268C34.312 301.116,33.577 301.04,32.842 301.04C31.017 301.04,29.269 301.521,27.621 302.484C27.419 302.611,27.19 302.763,27.19 302.763L26.253 299.215C26.202 299.038,26.202 298.708,26.202 298.708C26.202 298.708,29.928 292.093,30.434 288.697C30.612 287.709,30.688 286.72,30.688 285.757C30.688 284.972,30.663 284.237,30.536 283.527C30.181 280.891,29.193 278.408,28.534 275.848C28.356 275.088,28.103 274.175,27.216 274.175C26.557 274.175,26.101 274.809,25.695 275.341C23.82 277.926,22.907 280.891,22.73 284.059C22.705 284.566,22.705 285.098,22.705 285.605C22.705 288.545,23.186 291.51,23.566 294.425C23.566 294.653,23.642 294.881,23.693 295.059C22.046 297.39,20.221 299.57,18.65 301.978C17.56 303.701,16.343 305.424,15.583 307.35C15.177 308.288,15 309.403,15 310.493C15 312.749,15.76 315.055,17.078 316.322C17.839 317.057,19.055 317.868,20.246 318.299C21.944 318.907,23.617 319.313,25.391 319.313C25.923 319.313,26.455 319.287,27.013 319.211L27.444 319.135C27.444 319.135,27.469 319.465,27.444 319.642C27.038 321.847,26.506 324.001,25.188 325.826C24.479 326.764,23.82 327.828,22.451 327.93C22.046 327.98,21.868 328.234,21.868 328.563C21.868 328.69,21.894 328.817,21.944 328.944C22.147 329.501,22.4 330.084,22.654 330.642C22.882 331.148,23.237 331.402,23.693 331.402M25.138 292.828C24.859 291.08,24.681 289.356,24.681 287.633C24.681 284.465,25.34 281.373,27.19 278.408C27.621 279.751,27.849 281.119,27.849 282.488C27.849 283.198,27.773 283.933,27.672 284.642C27.19 287.506,26.532 290.269,25.138 292.828M21.387 314.421C20.88 314.396,20.449 314.219,19.967 314.067C19.004 313.737,18.219 313.382,17.965 312.749C17.839 312.47,17.813 312.14,17.813 311.811C17.813 311.406,17.889 310.975,17.965 310.518C17.991 310.316,18.219 309.682,18.295 309.581C19.714 307.046,21.412 304.765,23.211 302.459L24.732 300.457L25.011 301.268C25.29 302.18,25.543 303.625,25.543 303.625C25.543 303.625,24.529 304.943,23.87 305.602C22.046 307.376,21.159 309.606,21.159 312.064C21.159 312.673,21.235 313.306,21.361 313.965C21.387 314.092,21.387 314.219,21.387 314.421M29.269 313.306C28.99 310.924,28.432 309.023,27.925 306.742C27.875 306.463,27.875 306.286,28.001 306.134C28.939 305.957,29.852 305.881,30.815 305.881C31.727 305.881,32.589 305.957,33.501 306.134C34.591 306.362,35.681 306.539,36.542 307.426C36.593 307.503,36.669 307.579,36.745 307.604C35.301 310.518,33.146 312.723,30.08 314.067L29.421 314.32M25.391 315.055C24.124 315.055,22.882 314.726,22.882 314.726C22.882 314.726,22.781 314.219,22.781 313.484C22.781 313.002,22.806 312.419,22.958 311.836C23.313 310.088,24.555 308.846,25.873 307.68C25.974 307.579,26.101 307.503,26.177 307.503C26.303 307.503,26.354 307.655,26.379 307.908C26.709 310.062,27.266 312.166,27.419 314.32C27.444 314.548,27.419 314.878,27.419 314.878C27.419 314.878,26.455 315.131,25.391 315.055"/></g><g class="vf-stavenote" id="vf-auto23927"><g class="vf-stem" id="vf-auto23928" pointer-events="bounding-box"><path stroke-width="1.5" fill="none" d="M96.335 317.45L96.335 255"/></g><g class="vf-notehead" id="vf-auto23932" pointer-events="bounding-box"><path stroke="none" d="M97.057 318.428C97.001 323.229,92.873 327.048,88.268 327.048C87.594 327.048,86.892 326.964,86.218 326.795C84.786 326.43,84.141 325.391,83.832 323.959C83.663 323.229,83.579 322.555,83.579 321.909C83.579 317.332,87.145 314.384,91.554 313.008C91.694 312.952,91.919 312.924,92.115 312.924C94.081 312.924,97.085 315.226,97.085 317.81C97.085 318.006,97.085 318.231,97.057 318.428M89.56 322.864C91.273 322.274,93.154 321.348,94.783 319.832C94.811 319.803,94.867 319.635,94.867 319.523C94.867 319.382,94.811 319.27,94.783 319.242C94.053 318.512,93.491 317.529,92.312 317.36C92.143 317.332,92.003 317.332,91.778 317.332C90.037 317.332,88.661 318.456,87.229 319.242C86.331 319.747,85.32 320.814,85.516 321.741C85.713 322.752,87.173 322.555,88.1 322.752C88.465 322.836,88.802 322.836,89.56 322.864"/><g class="vf-chordsymbol" id="vf-auto23919"><text stroke="none" font-family="PetalumaScript, Arial, sans-serif" font-size="12pt" x="90.332" y="250">F7</text><path stroke="none" d="M111.449 245.141C111.543 245.132,111.569 244.996,111.594 244.91C111.646 244.748,111.654 244.585,111.654 244.44C111.654 244.303,111.646 244.183,111.646 244.046C111.646 243.961,111.646 243.849,111.654 243.764C111.68 243.516,111.705 243.268,111.714 243.02L112.261 242.909C112.287 243.43,112.381 243.935,112.552 244.423C112.569 244.491,112.612 244.559,112.689 244.559C112.766 244.576,112.792 244.491,112.826 244.423C112.911 244.294,112.92 244.132,112.92 243.986C112.937 243.875,112.937 243.772,112.937 243.678C112.937 243.379,112.911 243.071,112.903 242.772L113.613 242.626C114.289 242.489,114.374 242.395,114.425 241.745C114.425 241.583,114.443 241.472,114.425 241.343C114.417 241.189,114.348 241.078,114.22 241.078L114.195 241.078C114.143 241.078,114.109 241.078,114.058 241.087C113.775 241.164,113.467 241.223,113.168 241.275L112.963 241.309C112.971 241.138,112.971 240.95,112.988 240.77C112.997 240.377,113.006 239.983,113.006 239.59C113.356 239.496,113.69 239.402,114.023 239.29C114.203 239.23,114.366 239.128,114.417 238.931C114.46 238.709,114.528 238.503,114.528 238.281C114.528 238.153,114.511 238.024,114.46 237.896C114.417 237.776,114.374 237.716,114.306 237.716L114.28 237.716C114.237 237.716,114.195 237.716,114.143 237.742C113.758 237.896,113.382 238.024,112.988 238.136L112.946 237.468C112.92 236.938,112.903 236.399,112.792 235.869C112.766 235.8,112.775 235.689,112.698 235.689L112.689 235.689L112.655 235.689C112.552 235.715,112.432 235.758,112.415 235.895L112.415 236.126C112.415 236.853,112.441 237.563,112.458 238.281L111.8 238.426C111.8 238.059,111.791 237.691,111.765 237.323C111.757 237.135,111.757 236.964,111.654 236.776C111.38 236.912,111.423 237.143,111.423 237.34C111.397 237.742,111.38 238.119,111.372 238.503C111.03 238.572,110.679 238.623,110.337 238.683C109.832 238.769,109.755 238.846,109.755 239.402C109.721 239.538,109.824 239.692,109.807 239.846C109.781 240.077,109.841 240.154,110.003 240.163C110.037 240.163,110.08 240.154,110.132 240.137C110.534 240.077,110.927 240.017,111.321 239.94L111.286 241.052C111.269 241.258,111.252 241.454,111.226 241.651C110.765 241.745,110.311 241.831,109.858 241.942C109.601 242.002,109.447 242.096,109.447 242.395C109.447 242.686,109.558 242.96,109.576 243.242C109.576 243.379,109.61 243.439,109.712 243.456C109.73 243.456,109.772 243.439,109.824 243.43C110.26 243.328,110.705 243.242,111.149 243.148C111.141 243.302,111.141 243.465,111.141 243.636C111.141 244.072,111.184 244.491,111.338 244.91C111.363 244.996,111.338 245.141,111.449 245.141M111.774 241.54C111.791 241.275,111.791 241.001,111.8 240.727C111.817 240.437,111.817 240.154,111.817 239.855C112.022 239.821,112.219 239.786,112.415 239.735C112.355 240.3,112.33 240.864,112.296 241.437"/><text stroke="none" font-family="PetalumaScript, Arial, sans-serif" font-size="7.92pt" x="113.628" y="243.6">11</text><path stroke="none" d="M110.441 255.936C110.482 255.936,110.544 255.905,110.616 255.823C110.811 255.669,111.026 255.505,111.242 255.351C112.535 254.427,113.233 253.165,113.233 251.553C113.233 251.348,113.233 251.153,113.202 250.948C113.13 250.229,112.72 249.808,112.094 249.808C111.96 249.808,111.816 249.839,111.652 249.891C111.447 249.942,111.242 250.045,111.026 250.137L111.016 250.147L111.016 249.767C111.016 249.203,111.047 248.649,111.077 248.084C111.077 247.756,111.108 247.448,111.108 247.119C111.108 246.811,111.077 246.483,111.006 246.175C110.975 246.072,110.975 245.877,110.821 245.877L110.811 245.877C110.646 245.898,110.523 246.031,110.523 246.236C110.513 246.647,110.472 247.078,110.482 247.489L110.482 247.951C110.482 248.823,110.441 249.696,110.41 250.568C110.369 251.82,110.154 253.052,110.154 254.304C110.154 254.797,110.184 255.31,110.318 255.803C110.349 255.885,110.379 255.936,110.441 255.936M110.841 253.935C110.872 253.555,110.882 253.155,110.923 252.734C110.954 252.416,110.975 252.087,110.975 251.759L111.026 251.738C111.314 251.615,111.591 251.471,111.899 251.471C112.001 251.471,112.124 251.502,112.237 251.543C112.484 251.625,112.597 251.748,112.586 251.913C112.586 251.995,112.566 252.087,112.504 252.21C112.124 252.96,111.498 253.463,110.841 253.935"/><text stroke="none" font-family="PetalumaScript, Arial, sans-serif" font-size="7.92pt" x="113.586" y="254.8">9</text></g><path stroke="none" d="M73.192 328.208C73.301 328.208,73.465 328.126,73.657 327.907C74.177 327.497,74.751 327.059,75.326 326.648C78.773 324.186,80.634 320.821,80.634 316.525C80.634 315.978,80.634 315.458,80.552 314.911C80.36 312.996,79.266 311.874,77.597 311.874C77.241 311.874,76.858 311.956,76.42 312.093C75.873 312.23,75.326 312.503,74.751 312.75L74.724 312.777L74.724 311.765C74.724 310.26,74.806 308.782,74.888 307.278C74.888 306.402,74.97 305.581,74.97 304.706C74.97 303.885,74.888 303.009,74.697 302.189C74.614 301.915,74.614 301.395,74.204 301.395L74.177 301.395C73.739 301.45,73.411 301.806,73.411 302.353C73.383 303.447,73.274 304.596,73.301 305.691L73.301 306.922C73.301 309.248,73.192 311.573,73.11 313.899C73 317.237,72.426 320.52,72.426 323.858C72.426 325.171,72.508 326.539,72.863 327.852C72.946 328.071,73.028 328.208,73.192 328.208M74.259 322.873C74.341 321.86,74.368 320.793,74.478 319.672C74.56 318.824,74.614 317.948,74.614 317.072L74.751 317.018C75.517 316.689,76.256 316.306,77.077 316.306C77.35 316.306,77.679 316.388,77.98 316.498C78.636 316.717,78.937 317.045,78.91 317.483C78.91 317.702,78.855 317.948,78.691 318.276C77.679 320.274,76.01 321.614,74.259 322.873"/></g><g class="vf-notehead" id="vf-auto23933" pointer-events="bounding-box"><path stroke="none" d="M97.057 303.428C97.001 308.229,92.873 312.048,88.268 312.048C87.594 312.048,86.892 311.964,86.218 311.795C84.786 311.43,84.141 310.391,83.832 308.959C83.663 308.229,83.579 307.555,83.579 306.909C83.579 302.332,87.145 299.384,91.554 298.008C91.694 297.952,91.919 297.924,92.115 297.924C94.081 297.924,97.085 300.226,97.085 302.81C97.085 303.006,97.085 303.231,97.057 303.428M89.56 307.864C91.273 307.274,93.154 306.348,94.783 304.832C94.811 304.803,94.867 304.635,94.867 304.523C94.867 304.382,94.811 304.27,94.783 304.242C94.053 303.512,93.491 302.529,92.312 302.36C92.143 302.332,92.003 302.332,91.778 302.332C90.037 302.332,88.661 303.456,87.229 304.242C86.331 304.747,85.32 305.814,85.516 306.741C85.713 307.752,87.173 307.555,88.1 307.752C88.465 307.836,88.802 307.836,89.56 307.864"/></g><g class="vf-notehead" id="vf-auto23934" pointer-events="bounding-box"><path stroke="none" d="M97.057 288.428C97.001 293.229,92.873 297.048,88.268 297.048C87.594 297.048,86.892 296.964,86.218 296.795C84.786 296.43,84.141 295.391,83.832 293.959C83.663 293.229,83.579 292.555,83.579 291.909C83.579 287.332,87.145 284.384,91.554 283.008C91.694 282.952,91.919 282.924,92.115 282.924C94.081 282.924,97.085 285.226,97.085 287.81C97.085 288.006,97.085 288.231,97.057 288.428M89.56 292.864C91.273 292.274,93.154 291.348,94.783 289.832C94.811 289.803,94.867 289.635,94.867 289.523C94.867 289.382,94.811 289.27,94.783 289.242C94.053 288.512,93.491 287.529,92.312 287.36C92.143 287.332,92.003 287.332,91.778 287.332C90.037 287.332,88.661 288.456,87.229 289.242C86.331 289.747,85.32 290.814,85.516 291.741C85.713 292.752,87.173 292.555,88.1 292.752C88.465 292.836,88.802 292.836,89.56 292.864"/></g></g><g class="vf-stavenote" id="vf-auto23937"><path stroke-width="1.4" fill="none" stroke="#444" d="M251.861 270L271.367 270"/><path stroke-width="1.4" fill="none" stroke="#444" d="M251.861 260L271.367 260"/><g class="vf-stem" id="vf-auto23938" pointer-events="bounding-box"><path stroke-width="1.5" fill="none" d="M255.611 262.65L255.611 330"/></g><g class="vf-notehead" id="vf-auto23944" pointer-events="bounding-box"><path stroke="none" d="M268.339 293.428C268.283 298.229,264.155 302.048,259.55 302.048C258.876 302.048,258.174 301.964,257.5 301.795C256.068 301.43,255.422 300.391,255.113 298.959C254.945 298.229,254.861 297.555,254.861 296.909C254.861 292.332,258.427 289.384,262.835 288.008C262.976 287.952,263.2 287.924,263.397 287.924C265.363 287.924,268.367 290.226,268.367 292.81C268.367 293.006,268.367 293.231,268.339 293.428M260.842 297.864C262.555 297.274,264.436 296.348,266.065 294.832C266.093 294.803,266.149 294.635,266.149 294.523C266.149 294.382,266.093 294.27,266.065 294.242C265.335 293.512,264.773 292.529,263.594 292.36C263.425 292.332,263.285 292.332,263.06 292.332C261.319 292.332,259.943 293.456,258.511 294.242C257.613 294.747,256.602 295.814,256.798 296.741C256.995 297.752,258.455 297.555,259.382 297.752C259.747 297.836,260.084 297.836,260.842 297.864"/><g class="vf-chordsymbol" id="vf-auto23922"><text stroke="none" font-family="PetalumaScript, Arial, sans-serif" font-size="12pt" x="244.51" y="250">C</text><text stroke="none" font-family="PetalumaScript, Arial, sans-serif" font-size="7.92pt" x="256.078" y="243.6">sus4</text></g></g><g class="vf-notehead" id="vf-auto23943" pointer-events="bounding-box"><path stroke="none" d="M268.339 283.428C268.283 288.229,264.155 292.048,259.55 292.048C258.876 292.048,258.174 291.964,257.5 291.795C256.068 291.43,255.422 290.391,255.113 288.959C254.945 288.229,254.861 287.555,254.861 286.909C254.861 282.332,258.427 279.384,262.835 278.008C262.976 277.952,263.2 277.924,263.397 277.924C265.363 277.924,268.367 280.226,268.367 282.81C268.367 283.006,268.367 283.231,268.339 283.428M260.842 287.864C262.555 287.274,264.436 286.348,266.065 284.832C266.093 284.803,266.149 284.635,266.149 284.523C266.149 284.382,266.093 284.27,266.065 284.242C265.335 283.512,264.773 282.529,263.594 282.36C263.425 282.332,263.285 282.332,263.06 282.332C261.319 282.332,259.943 283.456,258.511 284.242C257.613 284.747,256.602 285.814,256.798 286.741C256.995 287.752,258.455 287.555,259.382 287.752C259.747 287.836,260.084 287.836,260.842 287.864"/></g><g class="vf-notehead" id="vf-auto23942" pointer-events="bounding-box"><path stroke="none" d="M268.339 258.428C268.283 263.229,264.155 267.048,259.55 267.048C258.876 267.048,258.174 266.964,257.5 266.795C256.068 266.43,255.422 265.391,255.113 263.959C254.945 263.229,254.861 262.555,254.861 261.909C254.861 257.332,258.427 254.384,262.835 253.008C262.976 252.952,263.2 252.924,263.397 252.924C265.363 252.924,268.367 255.226,268.367 257.81C268.367 258.006,268.367 258.231,268.339 258.428M260.842 262.864C262.555 262.274,264.436 261.348,266.065 259.832C266.093 259.803,266.149 259.635,266.149 259.523C266.149 259.382,266.093 259.27,266.065 259.242C265.335 258.512,264.773 257.529,263.594 257.36C263.425 257.332,263.285 257.332,263.06 257.332C261.319 257.332,259.943 258.456,258.511 259.242C257.613 259.747,256.602 260.814,256.798 261.741C256.995 262.752,258.455 262.555,259.382 262.752C259.747 262.836,260.084 262.836,260.842 262.864"/></g></g></svg>