<svg xmlns="http://www.w3.org/2000/svg" stroke-width="0.3" stroke-dasharray="none" fill="black" stroke="black" font-family="Arial, sans-serif" font-size="10pt" font-weight="normal" font-style="normal" width="550" height="400" viewBox="0 0 550 400" style="width: 550px; height: 400px; border: none;"><g class="vf-stave" id="vf-auto36534" stroke-width="1" fill="#999999" stroke="#999999"><path fill="none" d="M15 70L515 70"/><path fill="none" d="M15 80L515 80"/><path fill="none" d="M15 90L515 90"/><path fill="none" d="M15 100L515 100"/><path fill="none" d="M15 110L515 110"/></g><g class="vf-stavebarline" id="vf-auto36535"><rect x="15" y="69.5" width="1" height="41" stroke="none"/></g><g class="vf-stavebarline" id="vf-auto36536"><rect x="515" y="69.5" width="1" height="41" stroke="none"/></g><g class="vf-clef" id="vf-auto36537"><path stroke="none" d="M28.693 121.402C28.87 121.402,29.048 121.377,29.276 121.301C29.707 121.148,30.062 120.92,30.366 120.591C33.382 117.423,34.623 113.596,34.75 109.313C34.75 108.983,34.776 108.451,34.776 108.451C34.776 108.451,35.282 108.147,35.511 108.071C36.727 107.488,37.893 106.829,38.932 105.993C41.72 103.762,43.316 100.747,44.051 97.376C44.204 96.844,44.229 96.286,44.229 95.779C44.229 93.473,42.962 91.8,40.047 91.268C39.312 91.116,38.577 91.04,37.842 91.04C36.017 91.04,34.269 91.521,32.621 92.484C32.419 92.611,32.19 92.763,32.19 92.763L31.253 89.215C31.202 89.038,31.202 88.708,31.202 88.708C31.202 88.708,34.928 82.093,35.434 78.697C35.612 77.709,35.688 76.72,35.688 75.757C35.688 74.972,35.663 74.237,35.536 73.527C35.181 70.891,34.193 68.408,33.534 65.848C33.356 65.088,33.103 64.175,32.216 64.175C31.557 64.175,31.101 64.809,30.695 65.341C28.82 67.926,27.907 70.891,27.73 74.059C27.705 74.566,27.705 75.098,27.705 75.605C27.705 78.545,28.186 81.51,28.566 84.425C28.566 84.653,28.642 84.881,28.693 85.059C27.046 87.39,25.221 89.57,23.65 91.978C22.56 93.701,21.343 95.424,20.583 97.35C20.177 98.288,20 99.403,20 100.493C20 102.749,20.76 105.055,22.078 106.322C22.839 107.057,24.055 107.868,25.246 108.299C26.944 108.907,28.617 109.313,30.391 109.313C30.923 109.313,31.455 109.287,32.013 109.211L32.444 109.135C32.444 109.135,32.469 109.465,32.444 109.642C32.038 111.847,31.506 114.001,30.188 115.826C29.479 116.764,28.82 117.828,27.451 117.93C27.046 117.98,26.868 118.234,26.868 118.563C26.868 118.69,26.894 118.817,26.944 118.944C27.147 119.501,27.4 120.084,27.654 120.642C27.882 121.148,28.237 121.402,28.693 121.402M30.138 82.828C29.859 81.08,29.681 79.356,29.681 77.633C29.681 74.465,30.34 71.373,32.19 68.408C32.621 69.751,32.849 71.119,32.849 72.488C32.849 73.198,32.773 73.933,32.672 74.642C32.19 77.506,31.532 80.269,30.138 82.828M26.387 104.421C25.88 104.396,25.449 104.219,24.967 104.067C24.004 103.737,23.219 103.382,22.965 102.749C22.839 102.47,22.813 102.14,22.813 101.811C22.813 101.406,22.889 100.975,22.965 100.518C22.991 100.316,23.219 99.682,23.295 99.581C24.714 97.046,26.412 94.765,28.211 92.459L29.732 90.457L30.011 91.268C30.29 92.18,30.543 93.625,30.543 93.625C30.543 93.625,29.529 94.943,28.87 95.602C27.046 97.376,26.159 99.606,26.159 102.064C26.159 102.673,26.235 103.306,26.361 103.965C26.387 104.092,26.387 104.219,26.387 104.421M34.269 103.306C33.99 100.924,33.432 99.023,32.925 96.742C32.875 96.463,32.875 96.286,33.001 96.134C33.939 95.957,34.852 95.881,35.815 95.881C36.727 95.881,37.589 95.957,38.501 96.134C39.591 96.362,40.681 96.539,41.542 97.426C41.593 97.503,41.669 97.579,41.745 97.604C40.301 100.518,38.146 102.723,35.08 104.067L34.421 104.32M30.391 105.055C29.124 105.055,27.882 104.726,27.882 104.726C27.882 104.726,27.781 104.219,27.781 103.484C27.781 103.002,27.806 102.419,27.958 101.836C28.313 100.088,29.555 98.846,30.873 97.68C30.974 97.579,31.101 97.503,31.177 97.503C31.303 97.503,31.354 97.655,31.379 97.908C31.709 100.062,32.266 102.166,32.419 104.32C32.444 104.548,32.419 104.878,32.419 104.878C32.419 104.878,31.455 105.131,30.391 105.055"/></g><g class="vf-stave" id="vf-auto36570" stroke-width="1" fill="#999999" stroke="#999999"><path fill="none" d="M15 190L515 190"/><path fill="none" d="M15 200L515 200"/><path fill="none" d="M15 210L515 210"/><path fill="none" d="M15 220L515 220"/><path fill="none" d="M15 230L515 230"/></g><g class="vf-stavebarline" id="vf-auto36571"><rect x="15" y="189.5" width="1" height="41" stroke="none"/></g><g class="vf-stavebarline" id="vf-auto36572"><rect x="515" y="189.5" width="1" height="41" stroke="none"/></g><g class="vf-clef" id="vf-auto36573"><path stroke="none" d="M29.262 215.766C33.64 215.121,36.497 212.541,38.524 208.831C39.837 206.366,40.137 203.716,40.183 200.721C40.183 200.237,40.114 199.477,39.999 198.74C39.469 194.5,36.658 192.335,32.902 192.335C32.649 192.335,32.349 192.335,32.073 192.358C28.594 192.657,25.507 193.924,23.018 196.413C21.935 197.519,20.852 198.601,20.392 200.168C20.276 200.652,20.207 201.136,20.207 201.551C20.207 203.048,20.991 204.246,22.58 204.984C22.696 205.007,22.765 205.076,22.857 205.099C23.341 205.375,23.825 205.513,24.285 205.513C24.954 205.513,25.576 205.237,26.175 204.753C27.488 203.67,28.087 202.357,28.087 200.859C28.087 200.329,28.018 199.8,27.903 199.27C27.857 199.062,27.834 198.878,27.834 198.671C27.834 197.772,28.364 197.15,29.423 197.081C29.677 197.035,29.93 197.035,30.161 197.035C31.75 197.035,33.202 197.519,34.377 198.671C35.852 200.122,36.681 202.011,37.142 204.108C37.211 204.338,37.211 204.615,37.211 204.799C37.211 205.583,36.957 206.228,36.52 206.942C35.852 208.025,35.068 208.946,34.008 209.753C31.935 211.32,29.562 211.965,27.073 211.965L24.908 211.965C23.548 211.965,22.212 211.919,20.899 211.504C20.392 211.343,20 211.734,20 212.218C20 212.31,20 212.402,20.023 212.495C20.138 212.863,20.23 213.232,20.392 213.577C20.806 214.43,21.152 215.259,22.327 215.49C23.779 215.789,25.184 215.951,26.636 215.951C27.488 215.951,28.364 215.881,29.262 215.766M43.455 197.38C43.985 197.403,44.607 197.288,44.883 196.781C45.321 196.044,45.736 195.353,45.736 194.454C45.736 194.224,45.713 193.97,45.644 193.694C45.39 192.657,44.607 193.141,44.077 192.864C43.685 192.657,43.593 193.187,43.432 193.464C42.787 194.431,42.948 195.583,42.671 196.643C42.556 197.012,42.717 197.403,43.224 197.403M42.395 205.974C43.593 205.928,44.653 204.338,44.653 202.91C44.653 201.919,44.077 202.08,43.616 201.919C43.132 201.712,42.994 202.127,42.787 202.426C42.188 203.279,42.188 204.315,41.865 205.237C41.727 205.606,41.865 205.974,42.326 205.974"/></g><g class="vf-stavenote" id="vf-auto36538"><g class="vf-stem" id="vf-auto36539" pointer-events="bounding-box"><path stroke-width="1.5" fill="none" d="M91.239 68L91.239 35"/></g><g class="vf-notehead" id="vf-auto36541" pointer-events="bounding-box"><path stroke="none" d="M81.626 76.543C81.906 76.599,82.159 76.627,82.44 76.627C86.315 76.627,92.1 71.348,91.987 67.08C91.875 66.041,91.903 64.609,89.797 63.766C89.207 63.485,88.561 63.373,87.859 63.373C83.535 63.373,78.846 68.343,78.509 71.657C78.509 71.909,78.481 72.134,78.481 72.387C78.481 74.409,79.379 76.037,81.626 76.543"/></g></g><g class="vf-stavenote" id="vf-auto36542"><path stroke-width="1.4" fill="none" stroke="#444" d="M178.234 60L197.742 60"/><g class="vf-stem" id="vf-auto36543" pointer-events="bounding-box"><path stroke-width="1.5" fill="none" d="M193.992 53L193.992 20"/></g><g class="vf-notehead" id="vf-auto36545" pointer-events="bounding-box"><path stroke="none" d="M184.378 61.543C184.659 61.599,184.912 61.627,185.193 61.627C189.068 61.627,194.852 56.348,194.74 52.08C194.628 51.041,194.656 49.609,192.55 48.766C191.96 48.485,191.314 48.373,190.612 48.373C186.288 48.373,181.599 53.343,181.262 56.657C181.262 56.909,181.234 57.134,181.234 57.387C181.234 59.409,182.132 61.037,184.378 61.543"/><path stroke="none" d="M168.384 70.13C168.685 70.103,168.767 69.665,168.849 69.391C169.013 68.872,169.041 68.352,169.041 67.887C169.041 67.449,169.013 67.066,169.013 66.628C169.013 66.354,169.013 65.999,169.041 65.725C169.123 64.932,169.205 64.138,169.232 63.345L170.983 62.989C171.065 64.658,171.366 66.272,171.913 67.832C171.968 68.051,172.105 68.27,172.351 68.27C172.597 68.324,172.679 68.051,172.789 67.832C173.062 67.421,173.09 66.902,173.09 66.436C173.145 66.081,173.145 65.752,173.145 65.452C173.145 64.494,173.062 63.509,173.035 62.551L175.306 62.086C177.467 61.648,177.741 61.348,177.905 59.268C177.905 58.748,177.96 58.393,177.905 57.982C177.878 57.49,177.659 57.134,177.249 57.134L177.166 57.134C177.002 57.134,176.893 57.134,176.729 57.161C175.826 57.408,174.841 57.599,173.883 57.763L173.227 57.873C173.254 57.326,173.254 56.724,173.309 56.149C173.336 54.891,173.363 53.632,173.363 52.373C174.485 52.072,175.552 51.772,176.619 51.416C177.194 51.224,177.714 50.896,177.878 50.267C178.015 49.555,178.234 48.899,178.234 48.187C178.234 47.777,178.179 47.367,178.015 46.956C177.878 46.573,177.741 46.382,177.522 46.382L177.44 46.382C177.303 46.382,177.166 46.382,177.002 46.464C175.771 46.956,174.567 47.367,173.309 47.722L173.172 45.588C173.09 43.892,173.035 42.168,172.679 40.472C172.597 40.253,172.625 39.897,172.378 39.897L172.351 39.897L172.242 39.897C171.913 39.979,171.53 40.116,171.476 40.554L171.476 41.293C171.476 43.618,171.558 45.889,171.612 48.187L169.506 48.652C169.506 47.476,169.478 46.3,169.396 45.123C169.369 44.521,169.369 43.974,169.041 43.372C168.165 43.81,168.302 44.548,168.302 45.178C168.22 46.464,168.165 47.668,168.138 48.899C167.043 49.118,165.922 49.282,164.827 49.473C163.213 49.747,162.967 49.993,162.967 51.772C162.857 52.209,163.186 52.702,163.131 53.194C163.049 53.933,163.24 54.179,163.76 54.207C163.87 54.207,164.006 54.179,164.17 54.124C165.456 53.933,166.715 53.741,167.974 53.495L167.864 57.052C167.809 57.709,167.755 58.338,167.673 58.967C166.195 59.268,164.745 59.542,163.295 59.897C162.474 60.089,161.982 60.39,161.982 61.348C161.982 62.278,162.337 63.153,162.392 64.056C162.392 64.494,162.502 64.685,162.83 64.74C162.885 64.74,163.021 64.685,163.186 64.658C164.581 64.33,166.004 64.056,167.426 63.755C167.399 64.248,167.399 64.768,167.399 65.315C167.399 66.71,167.536 68.051,168.028 69.391C168.11 69.665,168.028 70.13,168.384 70.13M169.424 58.612C169.478 57.763,169.478 56.888,169.506 56.012C169.56 55.082,169.56 54.179,169.56 53.222C170.217 53.112,170.846 53.003,171.476 52.839C171.284 54.644,171.202 56.45,171.093 58.283"/><path stroke="none" d="M119.98 93.216C123.536 92.692,125.858 90.596,127.505 87.582C128.572 85.579,128.816 83.426,128.853 80.992C128.853 80.599,128.797 79.981,128.703 79.382C128.273 75.938,125.989 74.178,122.937 74.178C122.732 74.178,122.488 74.178,122.264 74.197C119.437 74.44,116.928 75.47,114.907 77.492C114.027 78.39,113.147 79.27,112.772 80.543C112.679 80.936,112.623 81.329,112.623 81.666C112.623 82.883,113.259 83.856,114.551 84.455C114.644 84.474,114.701 84.53,114.776 84.549C115.169 84.774,115.562 84.886,115.936 84.886C116.479 84.886,116.984 84.661,117.471 84.268C118.538 83.388,119.025 82.321,119.025 81.104C119.025 80.674,118.969 80.243,118.875 79.813C118.838 79.644,118.819 79.495,118.819 79.326C118.819 78.596,119.25 78.091,120.111 78.034C120.317 77.997,120.523 77.997,120.71 77.997C122.001 77.997,123.181 78.39,124.136 79.326C125.334 80.505,126.008 82.04,126.382 83.744C126.438 83.931,126.438 84.156,126.438 84.306C126.438 84.942,126.232 85.466,125.876 86.047C125.334 86.926,124.697 87.675,123.836 88.33C122.151 89.603,120.223 90.128,118.201 90.128L116.442 90.128C115.337 90.128,114.251 90.09,113.184 89.753C112.772 89.622,112.454 89.94,112.454 90.333C112.454 90.408,112.454 90.483,112.473 90.558C112.567 90.858,112.641 91.157,112.772 91.438C113.109 92.131,113.39 92.804,114.345 92.992C115.524 93.235,116.666 93.366,117.846 93.366C118.538 93.366,119.25 93.31,119.98 93.216M131.511 78.278C131.942 78.296,132.447 78.203,132.672 77.791C133.028 77.192,133.364 76.63,133.364 75.9C133.364 75.713,133.346 75.507,133.29 75.283C133.084 74.44,132.447 74.833,132.017 74.609C131.698 74.44,131.624 74.871,131.492 75.095C130.968 75.882,131.099 76.818,130.875 77.679C130.781 77.978,130.912 78.296,131.324 78.296M130.65 85.26C131.624 85.223,132.485 83.931,132.485 82.771C132.485 81.966,132.017 82.097,131.642 81.966C131.249 81.797,131.137 82.134,130.968 82.377C130.482 83.07,130.482 83.912,130.22 84.661C130.107 84.961,130.22 85.26,130.594 85.26"/><path stroke="none" d="M142.288 83.219C143.463 83.611,144.589 83.807,145.666 83.807C147.894 83.807,149.975 82.974,151.811 81.383C154.063 79.376,154.846 76.732,154.846 73.941C154.846 73.305,154.797 72.644,154.724 72.007C154.528 70.024,153.402 68.482,151.419 67.674C150.88 67.503,150.366 67.356,149.803 67.209C151.835 64.786,153.573 62.289,155.36 59.767C155.825 59.131,156.046 58.445,156.046 57.687C156.046 57.417,155.997 57.099,155.923 56.781C155.825 56.365,155.654 56.193,155.36 56.193C155.262 56.193,155.164 56.218,155.018 56.242C154.234 56.463,153.451 56.487,152.692 56.487C150.758 56.487,148.775 56.438,146.841 56.438L145.47 56.438C143.316 56.438,141.162 56.438,139.057 56.634C138.347 56.707,137.98 57.001,137.882 57.736C137.735 58.445,137.784 59.18,137.71 59.914C137.661 60.379,137.784 60.6,138.273 60.6L138.371 60.6C139.62 60.477,140.868 60.404,142.141 60.404L151.737 60.404C149.803 63.023,147.894 65.3,145.666 67.356C144.344 68.58,143.022 69.706,143.022 71.591C143.022 71.909,143.071 72.252,143.169 72.644L143.169 72.717C143.145 72.987,143.145 73.305,143.463 73.452C143.708 73.55,143.953 73.427,144.124 73.231C145.03 72.326,146.229 72.056,147.404 71.763C147.82 71.665,148.237 71.591,148.628 71.591C149.656 71.591,150.636 71.934,151.492 72.644C152.056 73.06,152.79 73.599,152.79 74.382C152.79 74.504,152.765 74.627,152.716 74.749C152.08 76.805,150.929 78.421,148.873 79.204C147.869 79.596,146.841 79.768,145.838 79.768C144.075 79.768,142.361 79.204,140.697 78.323C139.987 77.907,139.399 77.589,139.155 76.732C139.106 76.561,139.081 76.096,138.738 76.096C138.665 76.096,138.616 76.096,138.543 76.144C138.175 76.242,137.882 76.512,137.882 77.05C137.808 78.225,138.102 79.229,138.347 80.355C138.469 80.967,138.91 81.457,139.473 81.799C140.379 82.338,141.26 82.876,142.288 83.219"/><path stroke="none" d="M150.248 127.234C150.591 127.332,150.885 127.038,151.056 126.744C151.521 126.157,151.57 125.447,151.693 124.737C152.084 121.383,152.011 118.005,152.133 114.651L152.133 114.308C153.382 114.064,154.532 113.623,155.707 113.109C157.421 112.301,157.715 111.86,157.69 110C157.69 109.119,157.494 108.727,157.054 108.703C156.833 108.703,156.515 108.8,156.124 109.021L155.879 109.119C154.679 109.657,153.455 110.073,152.182 110.318C152.182 108.776,152.109 107.209,152.035 105.667C151.962 104.37,151.937 103.023,151.815 101.726C151.791 101.432,151.815 100.869,151.374 100.869C150.934 100.869,150.64 101.163,150.591 101.677C150.567 102.313,150.371 102.95,150.42 103.586C150.444 105.912,150.518 108.237,150.518 110.539C150.101 110.563,149.685 110.563,149.294 110.539C147.139 110.392,145.034 110.024,142.831 110.073C142.072 110.073,141.289 110.098,140.505 110.22C141.289 108.727,141.925 107.356,142.733 106.01C144.593 102.95,146.601 99.914,147.923 96.487C148.241 95.679,148.486 94.871,148.486 94.039C148.486 93.794,148.437 93.549,148.412 93.28C148.363 93.084,148.363 92.693,148.094 92.693C147.8 92.668,147.458 92.766,147.286 93.035C147.164 93.256,147.041 93.427,146.968 93.647C146.478 95.239,145.597 96.609,144.765 98.005C143.761 99.743,142.586 101.408,141.558 103.121C140.114 105.569,138.914 108.091,137.152 110.318C136.588 111.028,136.074 111.763,136.074 112.644C136.074 112.962,136.148 113.28,136.27 113.599C136.417 113.917,136.588 114.235,136.588 114.553C136.637 115.067,136.735 115.263,137.029 115.288C137.152 115.288,137.372 115.214,137.617 115.067C139.183 114.406,140.75 114.064,142.415 114.064C144.593 114.064,146.797 114.406,148.975 114.553C149.22 114.578,149.465 114.578,149.71 114.627C149.955 114.627,150.199 114.627,150.444 114.553C150.371 116.561,150.346 118.568,150.199 120.575C150.126 122.118,149.955 123.684,149.955 125.3C149.955 125.692,149.955 126.034,150.004 126.402C150.004 126.72,149.955 127.136,150.248 127.234"/></g></g><g class="vf-stavenote" id="vf-auto36546"><path stroke-width="1.4" fill="none" stroke="#444" d="M280.986 60L300.494 60"/><g class="vf-stem" id="vf-auto36547" pointer-events="bounding-box"><path stroke-width="1.5" fill="none" d="M296.744 53L296.744 20"/></g><g class="vf-notehead" id="vf-auto36549" pointer-events="bounding-box"><path stroke="none" d="M287.131 61.543C287.412 61.599,287.665 61.627,287.946 61.627C291.821 61.627,297.605 56.348,297.493 52.08C297.38 51.041,297.409 49.609,295.303 48.766C294.713 48.485,294.067 48.373,293.365 48.373C289.041 48.373,284.351 53.343,284.014 56.657C284.014 56.909,283.986 57.134,283.986 57.387C283.986 59.409,284.885 61.037,287.131 61.543"/><path stroke="none" d="M273.599 63.208C273.709 63.208,273.873 63.126,274.064 62.907C274.584 62.497,275.159 62.059,275.733 61.648C279.181 59.186,281.041 55.821,281.041 51.525C281.041 50.978,281.041 50.458,280.959 49.911C280.767 47.996,279.673 46.874,278.004 46.874C277.648 46.874,277.265 46.956,276.828 47.093C276.28 47.23,275.733 47.503,275.159 47.75L275.131 47.777L275.131 46.765C275.131 45.26,275.213 43.782,275.295 42.278C275.295 41.402,275.378 40.581,275.378 39.706C275.378 38.885,275.295 38.009,275.104 37.189C275.022 36.915,275.022 36.395,274.611 36.395L274.584 36.395C274.146 36.45,273.818 36.806,273.818 37.353C273.791 38.447,273.681 39.596,273.709 40.691L273.709 41.922C273.709 44.248,273.599 46.573,273.517 48.899C273.408 52.237,272.833 55.52,272.833 58.858C272.833 60.171,272.915 61.539,273.271 62.852C273.353 63.071,273.435 63.208,273.599 63.208M274.666 57.873C274.748 56.86,274.776 55.793,274.885 54.672C274.967 53.824,275.022 52.948,275.022 52.072L275.159 52.018C275.925 51.689,276.663 51.306,277.484 51.306C277.758 51.306,278.086 51.388,278.387 51.498C279.044 51.717,279.345 52.045,279.317 52.483C279.317 52.702,279.263 52.948,279.098 53.276C278.086 55.274,276.417 56.614,274.666 57.873"/></g></g><g class="vf-stavenote" id="vf-auto36550"><g class="vf-stem" id="vf-auto36551" pointer-events="bounding-box"><path stroke-width="1.5" fill="none" d="M422.299 73L422.299 40"/></g><g class="vf-notehead" id="vf-auto36553" pointer-events="bounding-box"><path stroke="none" d="M412.686 81.543C412.967 81.599,413.219 81.627,413.5 81.627C417.375 81.627,423.16 76.348,423.047 72.08C422.935 71.041,422.963 69.609,420.857 68.766C420.268 68.485,419.622 68.373,418.92 68.373C414.595 68.373,409.906 73.343,409.569 76.657C409.569 76.909,409.541 77.134,409.541 77.387C409.541 79.409,410.44 81.037,412.686 81.543"/><path stroke="none" d="M368.029 124.639C368.16 124.639,368.198 124.471,368.216 124.134C368.254 122.486,368.291 120.801,368.329 119.173C368.385 114.83,368.441 110.449,368.572 106.125C368.647 103.56,368.535 100.996,368.722 98.431C368.816 97.083,368.048 96.297,367.093 95.623C366.812 95.436,366.607 95.361,366.419 95.361C366.064 95.361,365.82 95.623,365.633 96.147C365.596 96.222,365.577 96.334,365.577 96.447L365.596 96.709C365.652 97.42,365.652 98.132,365.652 98.843L365.652 102.849C365.652 104.609,365.652 106.331,365.745 108.091C365.82 110.599,365.764 113.108,365.895 115.635L365.895 122.58C365.895 123.123,366.082 123.478,366.513 123.778C366.869 124.021,367.28 124.208,367.617 124.452C367.823 124.564,367.954 124.639,368.029 124.639M377.09 124.414C378.868 124.414,380.572 123.834,382.069 122.804C384.035 121.457,384.671 119.547,384.671 117.394C384.671 117.001,384.634 116.627,384.615 116.252C384.428 113.912,382.35 111.404,379.973 111.161C379.842 111.123,379.711 111.123,379.542 111.123C378.868 111.123,378.213 111.292,377.539 111.367C376.772 111.479,376.06 111.722,375.386 112.04C375.424 111.591,375.461 111.123,375.461 110.674C375.461 110.487,375.461 110.262,375.442 110.075C375.442 109.813,375.461 109.551,375.461 109.27C375.461 108.896,375.442 108.521,375.424 108.147C375.854 108.222,376.247 108.24,376.659 108.24C377.015 108.24,377.352 108.222,377.708 108.147C379.505 108.24,381.377 107.81,382.65 107.061C384.465 105.975,385.289 104.684,385.289 102.943C385.289 102.643,385.289 102.344,385.233 102.044C384.99 100.247,384.035 98.731,382.687 97.551C381.583 96.578,380.384 95.904,378.999 95.904C378.456 95.904,377.895 96.016,377.296 96.26L374.226 97.551C372.578 98.244,372.073 99.142,372.073 100.64C372.073 100.94,372.092 101.239,372.129 101.595C372.185 101.988,372.447 102.212,372.915 102.156C373.533 102.044,374.169 101.988,374.787 101.801C375.386 101.613,375.704 101.239,375.704 100.677C375.704 100.584,375.704 100.49,375.686 100.378C375.63 100.191,375.63 99.966,375.63 99.779C375.63 99.142,375.873 98.562,376.304 98.038C376.472 97.851,376.678 97.701,376.921 97.701L376.977 97.701C377.689 97.795,378.381 97.888,378.98 98.356C380.572 99.592,381.189 101.22,381.189 103.036C381.189 103.336,381.152 103.673,381.133 103.953C381.021 105.02,380.459 105.938,379.486 106.499C379.28 106.63,379.055 106.705,378.868 106.705C378.756 106.705,378.681 106.687,378.569 106.649C377.52 106.387,376.472 106.144,375.442 105.825C375.236 105.732,375.031 105.713,374.843 105.713C374.581 105.713,374.338 105.788,374.076 105.882C373.664 106.013,373.346 106.256,372.971 106.462C372.765 106.518,372.578 106.612,372.372 106.63C372.241 106.649,372.092 106.705,372.092 106.855C371.998 106.874,371.942 106.93,371.942 106.986C371.942 107.061,371.998 107.117,372.073 107.192C372.092 107.229,372.185 107.248,372.241 107.248C372.335 107.566,372.372 107.922,372.391 108.278C372.447 109.083,372.485 109.888,372.485 110.693C372.485 111.423,372.447 112.153,372.372 112.883C372.316 113.426,372.26 113.931,372.26 114.418C372.26 114.736,372.335 114.848,372.616 114.942C373.102 115.316,373.608 115.41,374.113 115.41C374.525 115.41,374.937 115.335,375.33 115.279C375.63 115.223,375.798 115.073,375.854 114.774C375.985 114.212,376.378 113.781,376.772 113.313C376.903 113.145,377.052 113.07,377.221 113.07C377.296 113.07,377.389 113.108,377.483 113.126C378.269 113.313,378.943 113.725,379.598 114.212C380.815 115.167,381.452 116.309,381.452 117.582C381.452 118.162,381.302 118.817,381.002 119.491C380.403 120.895,379.243 121.7,377.876 122.299C377.52 122.43,377.221 122.505,376.959 122.505C376.285 122.505,375.817 122.074,375.573 121.269C375.499 121.026,375.368 120.764,375.18 120.764C375.124 120.764,375.087 120.764,375.068 120.783C374.881 120.858,374.712 120.895,374.525 120.895C374.076 120.895,373.589 120.67,373.159 120.67C373.046 120.67,372.971 120.67,372.859 120.708L372.372 120.708C372.092 120.708,371.811 120.652,371.586 120.764L371.586 98.188C371.624 98,371.624 97.795,371.624 97.607C371.624 97.252,371.586 96.933,371.474 96.596C371.455 96.465,371.511 96.222,371.268 96.222L371.23 96.222C371.081 96.26,370.912 96.353,370.837 96.596C370.744 96.896,370.725 97.214,370.725 97.551L370.725 102.849C370.725 104.609,370.725 106.387,370.744 108.147C370.781 109.813,370.744 111.516,370.8 113.182C370.856 114.605,370.893 116.047,370.893 117.469C370.893 118.892,370.856 120.352,370.856 121.775C370.856 122.355,370.987 122.917,370.987 123.497C370.987 123.609,371.024 123.778,371.193 123.778C371.324 123.778,371.38 123.666,371.418 123.553C371.624 123.216,371.586 122.861,371.586 122.486L371.586 121.831L371.717 122.056L371.942 122.299C372.803 123.235,373.907 123.853,375.124 124.171C375.798 124.34,376.435 124.414,377.09 124.414"/></g></g><g class="vf-stavenote" id="vf-auto36554"><path stroke-width="1.4" fill="none" stroke="#444" d="M75.481 120L94.989 120"/><g class="vf-stem" id="vf-auto36555" pointer-events="bounding-box"><path stroke-width="1.5" fill="none" d="M79.231 122L79.231 155"/></g><g class="vf-notehead" id="vf-auto36557" pointer-events="bounding-box"><path stroke="none" d="M81.626 126.543C81.906 126.599,82.159 126.627,82.44 126.627C86.315 126.627,92.1 121.348,91.987 117.08C91.875 116.041,91.903 114.609,89.797 113.766C89.207 113.485,88.561 113.373,87.859 113.373C83.535 113.373,78.846 118.343,78.509 121.657C78.509 121.909,78.481 122.134,78.481 122.387C78.481 124.409,79.379 126.037,81.626 126.543"/></g></g><g class="vf-stavenote" id="vf-auto36558"><g class="vf-stem" id="vf-auto36559" pointer-events="bounding-box"><path stroke-width="1.5" fill="none" d="M181.984 97L181.984 130"/></g><g class="vf-notehead" id="vf-auto36561" pointer-events="bounding-box"><path stroke="none" d="M184.378 101.543C184.659 101.599,184.912 101.627,185.193 101.627C189.068 101.627,194.852 96.348,194.74 92.08C194.628 91.041,194.656 89.609,192.55 88.766C191.96 88.485,191.314 88.373,190.612 88.373C186.288 88.373,181.599 93.343,181.262 96.657C181.262 96.909,181.234 97.134,181.234 97.387C181.234 99.409,182.132 101.037,184.378 101.543"/></g></g><g class="vf-stavenote" id="vf-auto36562"><g class="vf-stem" id="vf-auto36563" pointer-events="bounding-box"><path stroke-width="1.5" fill="none" d="M284.736 87L284.736 120"/></g><g class="vf-notehead" id="vf-auto36565" pointer-events="bounding-box"><path stroke="none" d="M287.131 91.543C287.412 91.599,287.665 91.627,287.946 91.627C291.821 91.627,297.605 86.348,297.493 82.08C297.38 81.041,297.409 79.609,295.303 78.766C294.713 78.485,294.067 78.373,293.365 78.373C289.041 78.373,284.351 83.343,284.014 86.657C284.014 86.909,283.986 87.134,283.986 87.387C283.986 89.409,284.885 91.037,287.131 91.543"/><path stroke="none" d="M231.453 104.639C231.584 104.639,231.622 104.471,231.64 104.134C231.678 102.486,231.715 100.801,231.753 99.173C231.809 94.83,231.865 90.449,231.996 86.125C232.071 83.56,231.959 80.996,232.146 78.431C232.24 77.083,231.472 76.297,230.517 75.623C230.236 75.436,230.031 75.361,229.843 75.361C229.488 75.361,229.244 75.623,229.057 76.147C229.02 76.222,229.001 76.334,229.001 76.447L229.02 76.709C229.076 77.42,229.076 78.132,229.076 78.843L229.076 82.849C229.076 84.609,229.076 86.331,229.169 88.091C229.244 90.599,229.188 93.108,229.319 95.635L229.319 102.58C229.319 103.123,229.506 103.478,229.937 103.778C230.293 104.021,230.704 104.208,231.041 104.452C231.247 104.564,231.378 104.639,231.453 104.639M240.514 104.414C242.292 104.414,243.996 103.834,245.493 102.804C247.459 101.457,248.095 99.547,248.095 97.394C248.095 97.001,248.058 96.627,248.039 96.252C247.852 93.912,245.774 91.404,243.397 91.161C243.266 91.123,243.135 91.123,242.966 91.123C242.292 91.123,241.637 91.292,240.963 91.367C240.196 91.479,239.484 91.722,238.81 92.04C238.848 91.591,238.885 91.123,238.885 90.674C238.885 90.487,238.885 90.262,238.866 90.075C238.866 89.813,238.885 89.551,238.885 89.27C238.885 88.896,238.866 88.521,238.848 88.147C239.278 88.222,239.671 88.24,240.083 88.24C240.439 88.24,240.776 88.222,241.132 88.147C242.929 88.24,244.801 87.81,246.074 87.061C247.889 85.975,248.713 84.684,248.713 82.943C248.713 82.643,248.713 82.344,248.657 82.044C248.414 80.247,247.459 78.731,246.111 77.551C245.007 76.578,243.808 75.904,242.423 75.904C241.88 75.904,241.319 76.016,240.72 76.26L237.65 77.551C236.002 78.244,235.497 79.142,235.497 80.64C235.497 80.94,235.516 81.239,235.553 81.595C235.609 81.988,235.871 82.212,236.339 82.156C236.957 82.044,237.593 81.988,238.211 81.801C238.81 81.613,239.128 81.239,239.128 80.677C239.128 80.584,239.128 80.49,239.11 80.378C239.054 80.191,239.054 79.966,239.054 79.779C239.054 79.142,239.297 78.562,239.728 78.038C239.896 77.851,240.102 77.701,240.345 77.701L240.401 77.701C241.113 77.795,241.805 77.888,242.404 78.356C243.996 79.592,244.613 81.22,244.613 83.036C244.613 83.336,244.576 83.673,244.557 83.953C244.445 85.02,243.883 85.938,242.91 86.499C242.704 86.63,242.479 86.705,242.292 86.705C242.18 86.705,242.105 86.687,241.993 86.649C240.944 86.387,239.896 86.144,238.866 85.825C238.66 85.732,238.455 85.713,238.267 85.713C238.005 85.713,237.762 85.788,237.5 85.882C237.088 86.013,236.77 86.256,236.395 86.462C236.189 86.518,236.002 86.612,235.796 86.63C235.665 86.649,235.516 86.705,235.516 86.855C235.422 86.874,235.366 86.93,235.366 86.986C235.366 87.061,235.422 87.117,235.497 87.192C235.516 87.229,235.609 87.248,235.665 87.248C235.759 87.566,235.796 87.922,235.815 88.278C235.871 89.083,235.909 89.888,235.909 90.693C235.909 91.423,235.871 92.153,235.796 92.883C235.74 93.426,235.684 93.931,235.684 94.418C235.684 94.736,235.759 94.848,236.04 94.942C236.526 95.316,237.032 95.41,237.537 95.41C237.949 95.41,238.361 95.335,238.754 95.279C239.054 95.223,239.222 95.073,239.278 94.774C239.409 94.212,239.802 93.781,240.196 93.313C240.327 93.145,240.476 93.07,240.645 93.07C240.72 93.07,240.813 93.108,240.907 93.126C241.693 93.313,242.367 93.725,243.022 94.212C244.239 95.167,244.876 96.309,244.876 97.582C244.876 98.162,244.726 98.817,244.426 99.491C243.827 100.895,242.667 101.7,241.3 102.299C240.944 102.43,240.645 102.505,240.383 102.505C239.709 102.505,239.241 102.074,238.997 101.269C238.923 101.026,238.792 100.764,238.604 100.764C238.548 100.764,238.511 100.764,238.492 100.783C238.305 100.858,238.136 100.895,237.949 100.895C237.5 100.895,237.013 100.67,236.583 100.67C236.47 100.67,236.395 100.67,236.283 100.708L235.796 100.708C235.516 100.708,235.235 100.652,235.01 100.764L235.01 78.188C235.048 78,235.048 77.795,235.048 77.607C235.048 77.252,235.01 76.933,234.898 76.596C234.879 76.465,234.935 76.222,234.692 76.222L234.654 76.222C234.505 76.26,234.336 76.353,234.261 76.596C234.168 76.896,234.149 77.214,234.149 77.551L234.149 82.849C234.149 84.609,234.149 86.387,234.168 88.147C234.205 89.813,234.168 91.516,234.224 93.182C234.28 94.605,234.317 96.047,234.317 97.469C234.317 98.892,234.28 100.352,234.28 101.775C234.28 102.355,234.411 102.917,234.411 103.497C234.411 103.609,234.448 103.778,234.617 103.778C234.748 103.778,234.804 103.666,234.842 103.553C235.048 103.216,235.01 102.861,235.01 102.486L235.01 101.831L235.141 102.056L235.366 102.299C236.227 103.235,237.331 103.853,238.548 104.171C239.222 104.34,239.859 104.414,240.514 104.414"/><path stroke="none" d="M256.651 84.835C257.63 84.835,258.683 84.517,259.735 83.807C262.82 81.799,264.754 78.96,266.051 75.606C267.153 72.791,267.887 69.902,268.181 66.891C268.23 66.01,268.303 65.177,268.303 64.296C268.303 63.366,268.23 62.46,268.034 61.53C267.006 57.344,263.872 55.165,260.421 55.165C260.103 55.165,259.809 55.165,259.491 55.19C255.084 55.655,252.269 59.204,252.269 63.341C252.269 64.712,252.587 66.181,253.248 67.601C254.423 70.073,256.724 71.297,259.074 71.297C260.886 71.297,262.746 70.588,264.215 69.119C265.243 68.091,266.125 66.964,266.859 65.692C266.688 66.548,266.541 67.43,266.345 68.262C265.562 71.542,264.656 74.798,262.33 77.393C260.984 78.911,259.564 80.331,257.532 80.82C257.14 80.918,256.749 80.967,256.406 80.967C254.521 80.967,253.297 79.67,253.224 77.466C253.224 77.05,253.199 76.634,253.077 76.242C253.003 76.022,252.979 75.704,252.685 75.704C252.489 75.704,252.269 75.851,252.171 76.071C251.926 76.634,251.632 77.124,251.608 77.76C251.608 78.837,251.877 79.914,252.098 80.967C252.587 83.244,254.423 84.835,256.651 84.835M259.221 67.454C257.361 67.356,255.647 66.548,254.423 64.884C254.129 64.492,254.007 64.125,254.007 63.684C254.007 63.366,254.08 63.048,254.252 62.729C255.402 60.306,257.483 59.008,259.858 59.008C261.057 59.008,262.33 59.327,263.554 60.012C264.264 60.404,264.901 60.893,265.464 61.481C265.782 61.775,265.978 62.142,265.978 62.534C265.978 62.705,265.904 62.925,265.806 63.121C264.533 65.496,262.575 67.454,259.221 67.454"/><path stroke="none" d="M257.2 125.08C257.421 125.08,257.592 125.08,257.788 125.055C262.757 124.492,266.796 121.873,268.094 116.634C268.363 115.606,268.51 114.578,268.486 113.623C268.486 111.175,267.531 108.972,265.034 107.356C264.814 107.209,264.74 107.062,264.716 106.891C264.716 106.769,264.789 106.622,264.814 106.475C265.156 105.202,265.352 103.904,265.352 102.632C265.352 101.726,265.23 100.796,265.058 99.89C264.397 97.001,262.145 94.92,259.428 94.92C258.473 94.92,257.445 95.165,256.417 95.753C253.186 97.638,251.423 100.6,251.423 104.296C251.423 106.255,251.839 108.237,253.259 109.78C253.822 110.392,254.63 110.661,255.34 111.175C254.165 111.787,253.504 112.791,252.965 113.868C252.255 115.312,251.937 116.83,251.619 118.397C251.57 118.788,251.521 119.156,251.521 119.547C251.521 122.828,254.336 125.08,257.2 125.08M257.029 107.43C255.976 107.43,254.801 107.136,253.749 106.377C253.284 106.01,253.063 105.667,253.063 105.202C253.063 105.055,253.063 104.884,253.137 104.688C253.651 103.121,254.41 101.75,255.536 100.6C256.637 99.498,257.984 98.96,259.281 98.96C260.799 98.96,262.268 99.669,263.345 101.089C263.516 101.334,263.688 101.603,263.688 101.897L263.688 101.995L263.688 102.166C263.443 103.611,263.124 105.104,262.17 106.304C261.852 106.695,261.533 106.94,260.97 107.013C259.771 107.136,258.547 107.43,257.029 107.43M258.743 120.722C256.417 120.673,254.63 118.788,254.581 116.756C254.581 116.463,254.654 116.169,254.777 115.851C255.022 114.969,255.658 114.382,256.344 113.843C257.421 113.06,258.547 112.399,259.697 111.763C260.407 111.371,261.068 111.2,261.68 111.2C262.733 111.2,263.639 111.763,264.471 112.889C265.156 113.843,265.67 114.872,265.67 116.144C265.67 117.05,265.279 117.785,264.642 118.348C262.953 119.841,260.897 120.575,258.743 120.722"/></g></g><g class="vf-stavenote" id="vf-auto36566"><g class="vf-stem" id="vf-auto36567" pointer-events="bounding-box"><path stroke-width="1.5" fill="none" d="M410.291 97L410.291 130"/></g><g class="vf-notehead" id="vf-auto36569" pointer-events="bounding-box"><path stroke="none" d="M412.686 101.543C412.967 101.599,413.219 101.627,413.5 101.627C417.375 101.627,423.16 96.348,423.047 92.08C422.935 91.041,422.963 89.609,420.857 88.766C420.268 88.485,419.622 88.373,418.92 88.373C414.595 88.373,409.906 93.343,409.569 96.657C409.569 96.909,409.541 97.134,409.541 97.387C409.541 99.409,410.44 101.037,412.686 101.543"/><path stroke="none" d="M396.691 110.13C396.992 110.103,397.074 109.665,397.156 109.391C397.321 108.872,397.348 108.352,397.348 107.887C397.348 107.449,397.321 107.066,397.321 106.628C397.321 106.354,397.321 105.999,397.348 105.725C397.43 104.932,397.512 104.138,397.54 103.345L399.291 102.989C399.373 104.658,399.674 106.272,400.221 107.832C400.276 108.051,400.412 108.27,400.659 108.27C400.905 108.324,400.987 108.051,401.096 107.832C401.37 107.421,401.397 106.902,401.397 106.436C401.452 106.081,401.452 105.752,401.452 105.452C401.452 104.494,401.37 103.509,401.343 102.551L403.613 102.086C405.775 101.648,406.048 101.348,406.213 99.268C406.213 98.748,406.267 98.393,406.213 97.982C406.185 97.49,405.966 97.134,405.556 97.134L405.474 97.134C405.31 97.134,405.2 97.134,405.036 97.161C404.133 97.408,403.148 97.599,402.191 97.763L401.534 97.873C401.561 97.326,401.561 96.724,401.616 96.149C401.644 94.891,401.671 93.632,401.671 92.373C402.793 92.072,403.86 91.772,404.927 91.416C405.501 91.224,406.021 90.896,406.185 90.267C406.322 89.555,406.541 88.899,406.541 88.187C406.541 87.777,406.486 87.367,406.322 86.956C406.185 86.573,406.048 86.382,405.83 86.382L405.748 86.382C405.611 86.382,405.474 86.382,405.31 86.464C404.079 86.956,402.875 87.367,401.616 87.722L401.479 85.588C401.397 83.892,401.343 82.168,400.987 80.472C400.905 80.253,400.932 79.897,400.686 79.897L400.659 79.897L400.549 79.897C400.221 79.979,399.838 80.116,399.783 80.554L399.783 81.293C399.783 83.618,399.865 85.889,399.92 88.187L397.813 88.652C397.813 87.476,397.786 86.3,397.704 85.123C397.676 84.521,397.676 83.974,397.348 83.372C396.472 83.81,396.609 84.548,396.609 85.178C396.527 86.464,396.472 87.668,396.445 88.899C395.351 89.118,394.229 89.282,393.135 89.473C391.52 89.747,391.274 89.993,391.274 91.772C391.165 92.209,391.493 92.702,391.438 93.194C391.356 93.933,391.548 94.179,392.068 94.207C392.177 94.207,392.314 94.179,392.478 94.124C393.764 93.933,395.022 93.741,396.281 93.495L396.172 97.052C396.117 97.709,396.062 98.338,395.98 98.967C394.503 99.268,393.052 99.542,391.602 99.897C390.782 100.089,390.289 100.39,390.289 101.348C390.289 102.278,390.645 103.153,390.7 104.056C390.7 104.494,390.809 104.685,391.137 104.74C391.192 104.74,391.329 104.685,391.493 104.658C392.888 104.33,394.311 104.056,395.734 103.755C395.706 104.248,395.706 104.768,395.706 105.315C395.706 106.71,395.843 108.051,396.336 109.391C396.418 109.665,396.336 110.13,396.691 110.13M397.731 98.612C397.786 97.763,397.786 96.888,397.813 96.012C397.868 95.082,397.868 94.179,397.868 93.222C398.524 93.112,399.154 93.003,399.783 92.839C399.592 94.644,399.509 96.45,399.4 98.283"/></g></g><g class="vf-stavenote" id="vf-auto36574"><g class="vf-stem" id="vf-auto36575" pointer-events="bounding-box"><path stroke-width="1.5" fill="none" d="M80.738 207L80.738 237"/></g><g class="vf-notehead" id="vf-auto36578" pointer-events="bounding-box"><path stroke="none" d="M83.132 211.543C83.413 211.599,83.666 211.627,83.947 211.627C87.822 211.627,93.606 206.348,93.494 202.08C93.382 201.041,93.41 199.609,91.304 198.766C90.714 198.485,90.068 198.373,89.366 198.373C85.042 198.373,80.353 203.343,80.016 206.657C80.016 206.909,79.988 207.134,79.988 207.387C79.988 209.409,80.886 211.037,83.132 211.543"/><path stroke="none" d="M67.138 220.13C67.439 220.103,67.521 219.665,67.603 219.391C67.767 218.872,67.795 218.352,67.795 217.887C67.795 217.449,67.767 217.066,67.767 216.628C67.767 216.354,67.767 215.999,67.795 215.725C67.877 214.932,67.959 214.138,67.986 213.345L69.737 212.989C69.819 214.658,70.12 216.272,70.667 217.832C70.722 218.051,70.859 218.27,71.105 218.27C71.351 218.324,71.433 218.051,71.543 217.832C71.816 217.421,71.844 216.902,71.844 216.436C71.899 216.081,71.899 215.752,71.899 215.452C71.899 214.494,71.816 213.509,71.789 212.551L74.06 212.086C76.221 211.648,76.495 211.348,76.659 209.268C76.659 208.748,76.714 208.393,76.659 207.982C76.632 207.49,76.413 207.134,76.003 207.134L75.92 207.134C75.756 207.134,75.647 207.134,75.483 207.161C74.58 207.408,73.595 207.599,72.637 207.763L71.981 207.873C72.008 207.326,72.008 206.724,72.063 206.149C72.09 204.891,72.117 203.632,72.117 202.373C73.239 202.072,74.306 201.772,75.373 201.416C75.948 201.224,76.468 200.896,76.632 200.267C76.769 199.555,76.988 198.899,76.988 198.187C76.988 197.777,76.933 197.367,76.769 196.956C76.632 196.573,76.495 196.382,76.276 196.382L76.194 196.382C76.057 196.382,75.92 196.382,75.756 196.464C74.525 196.956,73.321 197.367,72.063 197.722L71.926 195.588C71.844 193.892,71.789 192.168,71.433 190.472C71.351 190.253,71.379 189.897,71.132 189.897L71.105 189.897L70.996 189.897C70.667 189.979,70.284 190.116,70.23 190.554L70.23 191.293C70.23 193.618,70.312 195.889,70.366 198.187L68.26 198.652C68.26 197.476,68.232 196.3,68.15 195.123C68.123 194.521,68.123 193.974,67.795 193.372C66.919 193.81,67.056 194.548,67.056 195.178C66.974 196.464,66.919 197.668,66.892 198.899C65.797 199.118,64.676 199.282,63.581 199.473C61.967 199.747,61.721 199.993,61.721 201.772C61.611 202.209,61.94 202.702,61.885 203.194C61.803 203.933,61.994 204.179,62.514 204.207C62.624 204.207,62.76 204.179,62.924 204.124C64.21 203.933,65.469 203.741,66.728 203.495L66.618 207.052C66.563 207.709,66.509 208.338,66.427 208.967C64.949 209.268,63.499 209.542,62.049 209.897C61.228 210.089,60.736 210.39,60.736 211.348C60.736 212.278,61.091 213.153,61.146 214.056C61.146 214.494,61.256 214.685,61.584 214.74C61.639 214.74,61.775 214.685,61.94 214.658C63.335 214.33,64.758 214.056,66.18 213.755C66.153 214.248,66.153 214.768,66.153 215.315C66.153 216.71,66.29 218.051,66.782 219.391C66.864 219.665,66.782 220.13,67.138 220.13M68.178 208.612C68.232 207.763,68.232 206.888,68.26 206.012C68.314 205.082,68.314 204.179,68.314 203.222C68.971 203.112,69.6 203.003,70.23 202.839C70.038 204.644,69.956 206.45,69.847 208.283"/></g><path stroke="none" d="M87.429 209.118C87.26 208.978,87.148 208.894,87.036 208.894C86.895 208.894,86.783 209.034,86.727 209.371C86.699 209.905,86.502 210.41,86.446 210.944C86.418 211.309,86.39 211.674,86.39 212.011C86.39 212.656,86.53 213.246,87.176 213.78C87.906 214.369,88.327 215.324,88.72 216.194C88.833 216.447,88.889 216.728,88.889 217.009C88.889 217.542,88.692 218.104,88.636 218.666C88.355 221.754,86.895 224.338,84.958 226.64C84.2 227.567,83.469 228.578,82.683 229.504C80.802 232.004,79.988 234.84,79.988 237.956L79.988 240.231C79.988 240.989,80.156 241.635,80.97 242L81.167 242C81.448 241.326,81.728 240.624,81.728 239.894C81.728 239.445,81.644 239.08,81.644 238.715C81.672 236.861,82.543 235.289,83.666 233.829C84.649 232.621,85.575 231.358,86.53 230.15C88.72 227.398,89.816 224.253,90.293 220.8C90.461 219.761,90.546 218.722,90.546 217.655C90.546 216.082,90.349 214.51,89.844 212.937C89.422 211.477,88.44 210.27,87.429 209.118"/></g><g class="vf-stavenote" id="vf-auto36580"><g class="vf-notehead" id="vf-auto36584" pointer-events="bounding-box"><path stroke="none" d="M134.509 226.543C134.79 226.599,135.042 226.627,135.323 226.627C139.198 226.627,144.983 221.348,144.87 217.08C144.758 216.041,144.786 214.609,142.68 213.766C142.09 213.485,141.445 213.373,140.743 213.373C136.418 213.373,131.729 218.343,131.392 221.657C131.392 221.909,131.364 222.134,131.364 222.387C131.364 224.409,132.262 226.037,134.509 226.543"/><path stroke="none" d="M117.889 235.07C118.02 235.07,118.151 235.051,118.319 234.995C118.637 234.882,118.899 234.714,119.124 234.471C121.352 232.131,122.269 229.304,122.363 226.14C122.363 225.897,122.381 225.504,122.381 225.504C122.381 225.504,122.756 225.279,122.924 225.223C123.823 224.792,124.684 224.306,125.451 223.688C127.511 222.04,128.69 219.813,129.233 217.323C129.345 216.93,129.364 216.518,129.364 216.144C129.364 214.44,128.428 213.205,126.275 212.812C125.732 212.699,125.189 212.643,124.646 212.643C123.299 212.643,122.007 212.999,120.79 213.71C120.64 213.804,120.472 213.916,120.472 213.916L119.779 211.295C119.742 211.164,119.742 210.921,119.742 210.921C119.742 210.921,122.494 206.035,122.868 203.526C122.999 202.796,123.055 202.066,123.055 201.355C123.055 200.775,123.037 200.232,122.943 199.708C122.681 197.761,121.951 195.926,121.464 194.035C121.333 193.474,121.146 192.8,120.491 192.8C120.004 192.8,119.667 193.268,119.367 193.661C117.982 195.57,117.308 197.761,117.177 200.101C117.158 200.475,117.158 200.868,117.158 201.243C117.158 203.414,117.514 205.604,117.795 207.757C117.795 207.926,117.851 208.094,117.889 208.225C116.672 209.947,115.324 211.557,114.163 213.336C113.358 214.609,112.46 215.882,111.898 217.304C111.599 217.997,111.468 218.821,111.468 219.626C111.468 221.292,112.029 222.995,113.003 223.931C113.564 224.474,114.463 225.073,115.343 225.391C116.597 225.841,117.832 226.14,119.143 226.14C119.536 226.14,119.929 226.121,120.341 226.065L120.659 226.009C120.659 226.009,120.678 226.252,120.659 226.384C120.36 228.012,119.966 229.603,118.993 230.951C118.469 231.644,117.982 232.43,116.971 232.505C116.672 232.542,116.541 232.73,116.541 232.973C116.541 233.067,116.559 233.16,116.597 233.254C116.747 233.666,116.934 234.096,117.121 234.508C117.29 234.882,117.552 235.07,117.889 235.07M118.956 206.578C118.75 205.286,118.619 204.013,118.619 202.74C118.619 200.4,119.105 198.116,120.472 195.926C120.79 196.918,120.959 197.929,120.959 198.94C120.959 199.464,120.902 200.007,120.828 200.531C120.472 202.647,119.985 204.687,118.956 206.578M116.185 222.527C115.811 222.508,115.492 222.377,115.137 222.265C114.425 222.022,113.845 221.76,113.658 221.292C113.564 221.086,113.546 220.842,113.546 220.599C113.546 220.3,113.602 219.981,113.658 219.644C113.677 219.495,113.845 219.027,113.901 218.952C114.95 217.08,116.204 215.395,117.533 213.691L118.656 212.212L118.862 212.812C119.068 213.485,119.255 214.552,119.255 214.552C119.255 214.552,118.506 215.526,118.02 216.013C116.672 217.323,116.017 218.97,116.017 220.786C116.017 221.236,116.073 221.704,116.166 222.19C116.185 222.284,116.185 222.377,116.185 222.527M122.007 221.704C121.801 219.944,121.389 218.54,121.015 216.855C120.977 216.649,120.977 216.518,121.071 216.406C121.764 216.275,122.438 216.219,123.149 216.219C123.823 216.219,124.459 216.275,125.133 216.406C125.938 216.574,126.743 216.705,127.38 217.36C127.417 217.417,127.473 217.473,127.529 217.492C126.462 219.644,124.871 221.273,122.606 222.265L122.119 222.452M119.143 222.995C118.207 222.995,117.29 222.752,117.29 222.752C117.29 222.752,117.215 222.377,117.215 221.835C117.215 221.479,117.233 221.048,117.346 220.618C117.608 219.326,118.525 218.409,119.498 217.548C119.573 217.473,119.667 217.417,119.723 217.417C119.817 217.417,119.854 217.529,119.873 217.716C120.116 219.307,120.528 220.861,120.64 222.452C120.659 222.621,120.64 222.864,120.64 222.864C120.64 222.864,119.929 223.051,119.143 222.995"/></g></g><g class="vf-stavenote" id="vf-auto36586"><g class="vf-notehead" id="vf-auto36590" pointer-events="bounding-box"><path stroke="none" d="M185.885 241.543C186.166 241.599,186.419 241.627,186.7 241.627C190.575 241.627,196.359 236.348,196.247 232.08C196.134 231.041,196.163 229.609,194.057 228.766C193.467 228.485,192.821 228.373,192.119 228.373C187.795 228.373,183.105 233.343,182.768 236.657C182.768 236.909,182.74 237.134,182.74 237.387C182.74 239.409,183.639 241.037,185.885 241.543"/></g></g><g class="vf-stavenote" id="vf-auto36592"><g class="vf-notehead" id="vf-auto36596" pointer-events="bounding-box"><path stroke="none" d="M237.262 231.543C237.542 231.599,237.795 231.627,238.076 231.627C241.951 231.627,247.736 226.348,247.623 222.08C247.511 221.041,247.539 219.609,245.433 218.766C244.843 218.485,244.197 218.373,243.495 218.373C239.171 218.373,234.482 223.343,234.145 226.657C234.145 226.909,234.117 227.134,234.117 227.387C234.117 229.409,235.015 231.037,237.262 231.543"/><path stroke="none" d="M223.73 233.208C223.839 233.208,224.003 233.126,224.195 232.907C224.714 232.497,225.289 232.059,225.864 231.648C229.311 229.186,231.171 225.821,231.171 221.525C231.171 220.978,231.171 220.458,231.089 219.911C230.898 217.996,229.803 216.874,228.134 216.874C227.779 216.874,227.396 216.956,226.958 217.093C226.411 217.23,225.864 217.503,225.289 217.75L225.262 217.777L225.262 216.765C225.262 215.26,225.344 213.782,225.426 212.278C225.426 211.402,225.508 210.581,225.508 209.706C225.508 208.885,225.426 208.009,225.234 207.189C225.152 206.915,225.152 206.395,224.742 206.395L224.714 206.395C224.277 206.45,223.948 206.806,223.948 207.353C223.921 208.447,223.812 209.596,223.839 210.691L223.839 211.922C223.839 214.248,223.73 216.573,223.647 218.899C223.538 222.237,222.963 225.52,222.963 228.858C222.963 230.171,223.046 231.539,223.401 232.852C223.483 233.071,223.565 233.208,223.73 233.208M224.797 227.873C224.879 226.86,224.906 225.793,225.015 224.672C225.098 223.824,225.152 222.948,225.152 222.072L225.289 222.018C226.055 221.689,226.794 221.306,227.615 221.306C227.888 221.306,228.217 221.388,228.518 221.498C229.174 221.717,229.475 222.045,229.448 222.483C229.448 222.702,229.393 222.948,229.229 223.276C228.217 225.274,226.548 226.614,224.797 227.873"/></g></g><g class="vf-stavenote" id="vf-auto36598"><path stroke-width="1.4" fill="none" stroke="#444" d="M282.493 240L302.001 240"/><g class="vf-stem" id="vf-auto36599" pointer-events="bounding-box"><path stroke-width="1.5" fill="none" d="M298.251 238L298.251 208"/></g><g class="vf-notehead" id="vf-auto36602" pointer-events="bounding-box"><path stroke="none" d="M288.638 246.543C288.919 246.599,289.172 246.627,289.452 246.627C293.327 246.627,299.112 241.348,299 237.08C298.887 236.041,298.915 234.609,296.809 233.766C296.22 233.485,295.574 233.373,294.872 233.373C290.548 233.373,285.858 238.343,285.521 241.657C285.521 241.909,285.493 242.134,285.493 242.387C285.493 244.409,286.392 246.037,288.638 246.543"/></g><path stroke="none" d="M304.942 235.882C305.953 234.73,306.936 233.523,307.357 232.063C307.863 230.49,308.059 228.918,308.059 227.345C308.059 226.278,307.975 225.239,307.807 224.2C307.329 220.747,306.234 217.602,304.044 214.85C303.089 213.642,302.162 212.379,301.18 211.171C300.056 209.711,299.354 208.391,299.326 206.51C299.326 206.145,299.242 205.555,299.242 205.106C299.242 204.376,298.961 203.674,298.681 203L298.484 203C297.67 203.365,297.501 204.011,297.501 204.769L297.501 207.044C297.501 210.16,298.316 212.996,300.197 215.496C300.983 216.422,301.713 217.433,302.471 218.36C304.409 220.662,305.869 223.246,306.15 226.334C306.206 226.896,306.403 227.458,306.403 227.991C306.403 228.272,306.346 228.553,306.234 228.806C305.841 229.676,305.42 230.631,304.69 231.22C304.044 231.754,303.903 232.344,303.903 232.989C303.903 233.326,303.932 233.691,303.96 234.056C304.016 234.59,304.212 235.095,304.24 235.629C304.297 235.966,304.409 236.106,304.549 236.106C304.662 236.106,304.774 236.022,304.942 235.882"/></g><g class="vf-stavenote" id="vf-auto36604"><g class="vf-notehead" id="vf-auto36608" pointer-events="bounding-box"><path stroke="none" d="M362.816 201.543C363.097 201.599,363.35 201.627,363.631 201.627C367.506 201.627,373.29 196.348,373.178 192.08C373.066 191.041,373.094 189.609,370.988 188.766C370.398 188.485,369.752 188.373,369.05 188.373C364.726 188.373,360.036 193.343,359.699 196.657C359.699 196.909,359.671 197.134,359.671 197.387C359.671 199.409,360.57 201.037,362.816 201.543"/><path stroke="none" d="M322.035 213.216C325.592 212.692,327.913 210.596,329.56 207.582C330.627 205.579,330.871 203.426,330.908 200.992C330.908 200.599,330.852 199.981,330.758 199.382C330.328 195.938,328.044 194.178,324.993 194.178C324.787 194.178,324.543 194.178,324.319 194.197C321.492 194.44,318.983 195.47,316.962 197.492C316.082 198.39,315.202 199.27,314.828 200.543C314.734 200.936,314.678 201.329,314.678 201.666C314.678 202.883,315.314 203.856,316.606 204.455C316.7 204.474,316.756 204.53,316.831 204.549C317.224 204.774,317.617 204.886,317.991 204.886C318.534 204.886,319.04 204.661,319.526 204.268C320.593 203.388,321.08 202.321,321.08 201.104C321.08 200.674,321.024 200.243,320.93 199.813C320.893 199.644,320.874 199.495,320.874 199.326C320.874 198.596,321.305 198.091,322.166 198.034C322.372 197.997,322.578 197.997,322.765 197.997C324.057 197.997,325.236 198.39,326.191 199.326C327.389 200.505,328.063 202.04,328.437 203.744C328.493 203.931,328.493 204.156,328.493 204.306C328.493 204.942,328.287 205.466,327.932 206.047C327.389 206.926,326.752 207.675,325.891 208.33C324.206 209.603,322.278 210.128,320.256 210.128L318.497 210.128C317.392 210.128,316.306 210.09,315.239 209.753C314.828 209.622,314.509 209.94,314.509 210.333C314.509 210.408,314.509 210.483,314.528 210.558C314.622 210.858,314.697 211.157,314.828 211.438C315.165 212.131,315.445 212.804,316.4 212.992C317.579 213.235,318.721 213.366,319.901 213.366C320.593 213.366,321.305 213.31,322.035 213.216M333.566 198.278C333.997 198.296,334.502 198.203,334.727 197.791C335.083 197.192,335.42 196.63,335.42 195.9C335.42 195.713,335.401 195.507,335.345 195.283C335.139 194.44,334.502 194.833,334.072 194.609C333.753 194.44,333.679 194.871,333.548 195.095C333.023 195.882,333.154 196.818,332.93 197.679C332.836 197.978,332.967 198.296,333.379 198.296M332.705 205.26C333.679 205.223,334.54 203.931,334.54 202.771C334.54 201.966,334.072 202.097,333.697 201.966C333.304 201.797,333.192 202.134,333.023 202.377C332.537 203.07,332.537 203.912,332.275 204.661C332.162 204.961,332.275 205.26,332.649 205.26"/><path stroke="none" d="M346.822 210.13C347.123 210.103,347.205 209.665,347.287 209.391C347.451 208.872,347.478 208.352,347.478 207.887C347.478 207.449,347.451 207.066,347.451 206.628C347.451 206.354,347.451 205.999,347.478 205.725C347.561 204.932,347.643 204.138,347.67 203.345L349.421 202.989C349.503 204.658,349.804 206.272,350.351 207.832C350.406 208.051,350.543 208.27,350.789 208.27C351.035 208.324,351.117 208.051,351.227 207.832C351.5 207.421,351.528 206.902,351.528 206.436C351.582 206.081,351.582 205.752,351.582 205.452C351.582 204.494,351.5 203.509,351.473 202.551L353.744 202.086C355.905 201.648,356.179 201.348,356.343 199.268C356.343 198.748,356.398 198.393,356.343 197.982C356.316 197.49,356.097 197.134,355.686 197.134L355.604 197.134C355.44 197.134,355.331 197.134,355.167 197.161C354.264 197.408,353.279 197.599,352.321 197.763L351.665 197.873C351.692 197.326,351.692 196.724,351.747 196.149C351.774 194.891,351.801 193.632,351.801 192.373C352.923 192.072,353.99 191.772,355.057 191.416C355.632 191.224,356.152 190.896,356.316 190.267C356.453 189.555,356.671 188.899,356.671 188.187C356.671 187.777,356.617 187.367,356.453 186.956C356.316 186.573,356.179 186.382,355.96 186.382L355.878 186.382C355.741 186.382,355.604 186.382,355.44 186.464C354.209 186.956,353.005 187.367,351.747 187.722L351.61 185.588C351.528 183.892,351.473 182.168,351.117 180.472C351.035 180.253,351.063 179.897,350.816 179.897L350.789 179.897L350.68 179.897C350.351 179.979,349.968 180.116,349.913 180.554L349.913 181.293C349.913 183.618,349.996 185.889,350.05 188.187L347.944 188.652C347.944 187.476,347.916 186.3,347.834 185.123C347.807 184.521,347.807 183.974,347.478 183.372C346.603 183.81,346.74 184.548,346.74 185.178C346.658 186.464,346.603 187.668,346.576 188.899C345.481 189.118,344.359 189.282,343.265 189.473C341.651 189.747,341.405 189.993,341.405 191.772C341.295 192.209,341.623 192.702,341.569 193.194C341.487 193.933,341.678 194.179,342.198 194.207C342.307 194.207,342.444 194.179,342.608 194.124C343.894 193.933,345.153 193.741,346.411 193.495L346.302 197.052C346.247 197.709,346.193 198.338,346.11 198.967C344.633 199.268,343.183 199.542,341.733 199.897C340.912 200.089,340.42 200.39,340.42 201.348C340.42 202.278,340.775 203.153,340.83 204.056C340.83 204.494,340.939 204.685,341.268 204.74C341.322 204.74,341.459 204.685,341.623 204.658C343.019 204.33,344.441 204.056,345.864 203.755C345.837 204.248,345.837 204.768,345.837 205.315C345.837 206.71,345.974 208.051,346.466 209.391C346.548 209.665,346.466 210.13,346.822 210.13M347.861 198.612C347.916 197.763,347.916 196.888,347.944 196.012C347.998 195.082,347.998 194.179,347.998 193.222C348.655 193.112,349.284 193.003,349.913 192.839C349.722 194.644,349.64 196.45,349.53 198.283"/></g></g><g class="vf-stavenote" id="vf-auto36610"><g class="vf-notehead" id="vf-auto36614" pointer-events="bounding-box"><path stroke="none" d="M414.193 216.543C414.474 216.599,414.726 216.627,415.007 216.627C418.882 216.627,424.667 211.348,424.554 207.08C424.442 206.041,424.47 204.609,422.364 203.766C421.774 203.485,421.129 203.373,420.427 203.373C416.102 203.373,411.413 208.343,411.076 211.657C411.076 211.909,411.048 212.134,411.048 212.387C411.048 214.409,411.946 216.037,414.193 216.543"/></g></g><g class="vf-stavenote" id="vf-auto36616"><g class="vf-notehead" id="vf-auto36620" pointer-events="bounding-box"><path stroke="none" d="M465.569 206.543C465.85 206.599,466.103 206.627,466.383 206.627C470.259 206.627,476.043 201.348,475.931 197.08C475.818 196.041,475.846 194.609,473.74 193.766C473.151 193.485,472.505 193.373,471.803 193.373C467.479 193.373,462.789 198.343,462.452 201.657C462.452 201.909,462.424 202.134,462.424 202.387C462.424 204.409,463.323 206.037,465.569 206.543"/></g></g><path stroke="none" d="M13 70C-9.8 102.2,26.2 128.765,1 150.5C26.2 172.235,-9.8 198.8,13 231C-11 198.8,17.8 172.235,1 150.5C17.8 128.765,-11 102.2,13 70"/><path stroke-width="1" fill="none" d="M13 70C-9.8 102.2,26.2 128.765,1 150.5C26.2 172.235,-9.8 198.8,13 231C-11 198.8,17.8 172.235,1 150.5C17.8 128.765,-11 102.2,13 70"/><rect x="15" y="70" width="1" height="161" stroke="none"/><rect x="515" y="70" width="1" height="161" stroke="none"/><g class="vf-stem" id="vf-auto36581" pointer-events="bounding-box"><path stroke-width="1.5" fill="none" d="M144.122 218L144.122 185.612"/></g><g class="vf-stem" id="vf-auto36587" pointer-events="bounding-box"><path stroke-width="1.5" fill="none" d="M195.498 233L195.498 188.181"/></g><g class="vf-stem" id="vf-auto36593" pointer-events="bounding-box"><path stroke-width="1.5" fill="none" d="M246.875 223L246.875 190.75"/></g><g class="vf-beam" id="vf-auto36625"><path stroke="none" d="M143.372 184.825L143.372 189.825L247.125 194.963L247.125 189.963Z"/></g><g class="vf-stem" id="vf-auto36605" pointer-events="bounding-box"><path stroke-width="1.5" fill="none" d="M360.421 197L360.421 242.966"/></g><g class="vf-stem" id="vf-auto36611" pointer-events="bounding-box"><path stroke-width="1.5" fill="none" d="M411.798 212L411.798 244.25"/></g><g class="vf-stem" id="vf-auto36617" pointer-events="bounding-box"><path stroke-width="1.5" fill="none" d="M463.174 202L463.174 245.534"/></g><g class="vf-beam" id="vf-auto36626"><path stroke="none" d="M359.671 243.697L359.671 238.697L463.424 241.266L463.424 246.266Z"/></g></svg>