<svg xmlns="http://www.w3.org/2000/svg" stroke-width="0.3" stroke-dasharray="none" fill="black" stroke="black" font-family="Arial, sans-serif" font-size="10pt" font-weight="normal" font-style="normal" width="300" height="280" viewBox="0 0 100 93.33333333333333" style="width: 300px; height: 280px; border: none;"><g class="vf-stave" id="vf-auto36230" stroke-width="1" fill="#999999" stroke="#999999"><path fill="none" d="M10 40L110 40"/><path fill="none" d="M10 50L110 50"/><path fill="none" d="M10 60L110 60"/><path fill="none" d="M10 70L110 70"/><path fill="none" d="M10 80L110 80"/></g><g class="vf-stavebarline" id="vf-auto36231"><rect x="10" y="39.5" width="1" height="41" stroke="none"/></g><g class="vf-stavebarline" id="vf-auto36232"><rect x="110" y="39.5" width="1" height="41" stroke="none"/></g><g class="vf-stavenote" id="vf-auto36233"><g class="vf-stem" id="vf-auto36234" pointer-events="bounding-box"><path stroke-width="1.5" fill="none" d="M64.758 68L64.758 18"/></g><g class="vf-notehead" id="vf-auto36239" pointer-events="bounding-box"><path stroke="none" d="M55.145 76.543C55.426 76.599,55.678 76.627,55.959 76.627C59.834 76.627,65.619 71.348,65.506 67.08C65.394 66.041,65.422 64.609,63.316 63.766C62.727 63.485,62.081 63.373,61.379 63.373C57.054 63.373,52.365 68.343,52.028 71.657C52.028 71.909,52 72.134,52 72.387C52 74.409,52.899 76.037,55.145 76.543"/></g><g class="vf-notehead" id="vf-auto36240" pointer-events="bounding-box"><path stroke="none" d="M55.145 66.543C55.426 66.599,55.678 66.627,55.959 66.627C59.834 66.627,65.619 61.348,65.506 57.08C65.394 56.041,65.422 54.609,63.316 53.766C62.727 53.485,62.081 53.373,61.379 53.373C57.054 53.373,52.365 58.343,52.028 61.657C52.028 61.909,52 62.134,52 62.387C52 64.409,52.899 66.037,55.145 66.543"/><path stroke="none" d="M42.613 68.208C42.722 68.208,42.886 68.126,43.078 67.907C43.598 67.497,44.172 67.059,44.747 66.648C48.194 64.186,50.055 60.821,50.055 56.525C50.055 55.978,50.055 55.458,49.973 54.911C49.781 52.996,48.687 51.874,47.018 51.874C46.662 51.874,46.279 51.956,45.841 52.093C45.294 52.23,44.747 52.503,44.172 52.75L44.145 52.777L44.145 51.765C44.145 50.26,44.227 48.782,44.309 47.278C44.309 46.402,44.391 45.581,44.391 44.706C44.391 43.885,44.309 43.009,44.118 42.189C44.036 41.915,44.036 41.395,43.625 41.395L43.598 41.395C43.16 41.45,42.832 41.806,42.832 42.353C42.804 43.447,42.695 44.596,42.722 45.691L42.722 46.922C42.722 49.248,42.613 51.573,42.531 53.899C42.421 57.237,41.847 60.52,41.847 63.858C41.847 65.171,41.929 66.539,42.284 67.852C42.367 68.071,42.449 68.208,42.613 68.208M43.68 62.873C43.762 61.86,43.789 60.793,43.899 59.672C43.981 58.824,44.036 57.948,44.036 57.072L44.172 57.018C44.938 56.689,45.677 56.306,46.498 56.306C46.772 56.306,47.1 56.388,47.401 56.498C48.057 56.717,48.358 57.045,48.331 57.483C48.331 57.702,48.276 57.948,48.112 58.276C47.1 60.274,45.431 61.614,43.68 62.873"/></g><g class="vf-notehead" id="vf-auto36241" pointer-events="bounding-box"><path stroke="none" d="M55.145 56.543C55.426 56.599,55.678 56.627,55.959 56.627C59.834 56.627,65.619 51.348,65.506 47.08C65.394 46.041,65.422 44.609,63.316 43.766C62.727 43.485,62.081 43.373,61.379 43.373C57.054 43.373,52.365 48.343,52.028 51.657C52.028 51.909,52 52.134,52 52.387C52 54.409,52.899 56.037,55.145 56.543"/></g><path fill="blue" stroke="none" d="M71.449 45.882C72.46 44.73,73.443 43.523,73.864 42.063C74.37 40.49,74.566 38.918,74.566 37.345C74.566 36.278,74.482 35.239,74.313 34.2C73.836 30.747,72.741 27.602,70.551 24.85C69.596 23.642,68.669 22.379,67.687 21.171C66.563 19.711,65.861 18.391,65.833 16.51C65.833 16.145,65.749 15.555,65.749 15.106C65.749 14.376,65.468 13.674,65.187 13L64.991 13C64.177 13.365,64.008 14.011,64.008 14.769L64.008 17.044C64.008 20.16,64.822 22.996,66.704 25.496C67.49 26.422,68.22 27.433,68.978 28.36C70.916 30.662,72.376 33.246,72.657 36.334C72.713 36.896,72.909 37.458,72.909 37.991C72.909 38.272,72.853 38.553,72.741 38.806C72.348 39.676,71.927 40.631,71.197 41.22C70.551 41.754,70.41 42.344,70.41 42.989C70.41 43.326,70.438 43.691,70.466 44.056C70.523 44.59,70.719 45.095,70.747 45.629C70.803 45.966,70.916 46.106,71.056 46.106C71.168 46.106,71.281 46.022,71.449 45.882" style="filter: drop-shadow(0 0 1.3333333333333333px blue)"/></g></svg>