<svg xmlns="http://www.w3.org/2000/svg" stroke-width="0.3" stroke-dasharray="none" fill="black" stroke="black" font-family="Arial, sans-serif" font-size="10pt" font-weight="normal" font-style="normal" width="550" height="200" viewBox="0 0 550 200" style="width: 550px; height: 200px; border: none;"><g class="vf-stave" id="vf-auto26970" stroke-width="1" fill="#999999" stroke="#999999"><path fill="none" d="M0 40L250 40"/><path fill="none" d="M0 50L250 50"/><path fill="none" d="M0 60L250 60"/><path fill="none" d="M0 70L250 70"/><path fill="none" d="M0 80L250 80"/></g><g class="vf-stavebarline" id="vf-auto26971"><rect y="39.5" width="1" height="41" stroke="none"/></g><g class="vf-stavebarline" id="vf-auto26972"><rect x="250" y="39.5" width="1" height="41" stroke="none"/></g><g class="vf-clef" id="vf-auto26973"><path stroke="none" d="M13.693 91.402C13.87 91.402,14.048 91.377,14.276 91.301C14.707 91.148,15.062 90.92,15.366 90.591C18.382 87.423,19.623 83.596,19.75 79.313C19.75 78.983,19.776 78.451,19.776 78.451C19.776 78.451,20.282 78.147,20.511 78.071C21.727 77.488,22.893 76.829,23.932 75.993C26.72 73.762,28.316 70.747,29.051 67.376C29.204 66.844,29.229 66.286,29.229 65.779C29.229 63.473,27.962 61.8,25.047 61.268C24.312 61.116,23.577 61.04,22.842 61.04C21.017 61.04,19.269 61.521,17.621 62.484C17.419 62.611,17.19 62.763,17.19 62.763L16.253 59.215C16.202 59.038,16.202 58.708,16.202 58.708C16.202 58.708,19.928 52.093,20.434 48.697C20.612 47.709,20.688 46.72,20.688 45.757C20.688 44.972,20.663 44.237,20.536 43.527C20.181 40.891,19.193 38.408,18.534 35.848C18.356 35.088,18.103 34.175,17.216 34.175C16.557 34.175,16.101 34.809,15.695 35.341C13.82 37.926,12.907 40.891,12.73 44.059C12.705 44.566,12.705 45.098,12.705 45.605C12.705 48.545,13.186 51.51,13.566 54.425C13.566 54.653,13.642 54.881,13.693 55.059C12.046 57.39,10.221 59.57,8.65 61.978C7.56 63.701,6.343 65.424,5.583 67.35C5.177 68.288,5 69.403,5 70.493C5 72.749,5.76 75.055,7.078 76.322C7.839 77.057,9.055 77.868,10.246 78.299C11.944 78.907,13.617 79.313,15.391 79.313C15.923 79.313,16.455 79.287,17.013 79.211L17.444 79.135C17.444 79.135,17.469 79.465,17.444 79.642C17.038 81.847,16.506 84.001,15.188 85.826C14.479 86.764,13.82 87.828,12.451 87.93C12.046 87.98,11.868 88.234,11.868 88.563C11.868 88.69,11.894 88.817,11.944 88.944C12.147 89.501,12.4 90.084,12.654 90.642C12.882 91.148,13.237 91.402,13.693 91.402M15.138 52.828C14.859 51.08,14.681 49.356,14.681 47.633C14.681 44.465,15.34 41.373,17.19 38.408C17.621 39.751,17.849 41.119,17.849 42.488C17.849 43.198,17.773 43.933,17.672 44.642C17.19 47.506,16.532 50.269,15.138 52.828M11.387 74.421C10.88 74.396,10.449 74.219,9.967 74.067C9.004 73.737,8.219 73.382,7.965 72.749C7.839 72.47,7.813 72.14,7.813 71.811C7.813 71.406,7.889 70.975,7.965 70.518C7.991 70.316,8.219 69.682,8.295 69.581C9.714 67.046,11.412 64.765,13.211 62.459L14.732 60.457L15.011 61.268C15.29 62.18,15.543 63.625,15.543 63.625C15.543 63.625,14.529 64.943,13.87 65.602C12.046 67.376,11.159 69.606,11.159 72.064C11.159 72.673,11.235 73.306,11.361 73.965C11.387 74.092,11.387 74.219,11.387 74.421M19.269 73.306C18.99 70.924,18.432 69.023,17.925 66.742C17.875 66.463,17.875 66.286,18.001 66.134C18.939 65.957,19.852 65.881,20.815 65.881C21.727 65.881,22.589 65.957,23.501 66.134C24.591 66.362,25.681 66.539,26.542 67.426C26.593 67.503,26.669 67.579,26.745 67.604C25.301 70.518,23.146 72.723,20.08 74.067L19.421 74.32M15.391 75.055C14.124 75.055,12.882 74.726,12.882 74.726C12.882 74.726,12.781 74.219,12.781 73.484C12.781 73.002,12.806 72.419,12.958 71.836C13.313 70.088,14.555 68.846,15.873 67.68C15.974 67.579,16.101 67.503,16.177 67.503C16.303 67.503,16.354 67.655,16.379 67.908C16.709 70.062,17.266 72.166,17.419 74.32C17.444 74.548,17.419 74.878,17.419 74.878C17.419 74.878,16.455 75.131,15.391 75.055"/></g><g class="vf-stave" id="vf-auto26995" stroke-width="1" fill="#999999" stroke="#999999"><path fill="none" d="M250 40L510 40"/><path fill="none" d="M250 50L510 50"/><path fill="none" d="M250 60L510 60"/><path fill="none" d="M250 70L510 70"/><path fill="none" d="M250 80L510 80"/></g><g class="vf-stavebarline" id="vf-auto26996"><rect x="250" y="39.5" width="1" height="41" stroke="none"/></g><g class="vf-stavebarline" id="vf-auto26997"><rect x="510" y="39.5" width="1" height="41" stroke="none"/></g><g class="vf-stavenote" id="vf-auto26974"><g class="vf-stem" id="vf-auto26975" pointer-events="bounding-box"><path stroke-width="1.5" fill="none" d="M53.987 58L53.987 25"/></g><g class="vf-notehead" id="vf-auto26978" pointer-events="bounding-box"><path stroke="none" d="M44.374 66.543C44.655 66.599,44.907 66.627,45.188 66.627C49.063 66.627,54.848 61.348,54.735 57.08C54.623 56.041,54.651 54.609,52.545 53.766C51.955 53.485,51.31 53.373,50.608 53.373C46.283 53.373,41.594 58.343,41.257 61.657C41.257 61.909,41.229 62.134,41.229 62.387C41.229 64.409,42.127 66.037,44.374 66.543"/></g></g><g class="vf-stavenote" id="vf-auto26979"><g class="vf-stem" id="vf-auto26980" pointer-events="bounding-box"><path stroke-width="1.5" fill="none" d="M110.007 58L110.007 25"/></g><g class="vf-notehead" id="vf-auto26983" pointer-events="bounding-box"><path stroke="none" d="M100.394 66.543C100.674 66.599,100.927 66.627,101.208 66.627C105.083 66.627,110.867 61.348,110.755 57.08C110.643 56.041,110.671 54.609,108.565 53.766C107.975 53.485,107.329 53.373,106.627 53.373C102.303 53.373,97.614 58.343,97.277 61.657C97.277 61.909,97.249 62.134,97.249 62.387C97.249 64.409,98.147 66.037,100.394 66.543"/></g></g><g class="vf-stavenote" id="vf-auto26984"><g class="vf-stem" id="vf-auto26985" pointer-events="bounding-box"><path stroke-width="1.5" fill="none" d="M166.026 58L166.026 25"/></g><g class="vf-notehead" id="vf-auto26988" pointer-events="bounding-box"><path stroke="none" d="M156.413 66.543C156.694 66.599,156.947 66.627,157.228 66.627C161.103 66.627,166.887 61.348,166.775 57.08C166.662 56.041,166.691 54.609,164.585 53.766C163.995 53.485,163.349 53.373,162.647 53.373C158.323 53.373,153.633 58.343,153.296 61.657C153.296 61.909,153.268 62.134,153.268 62.387C153.268 64.409,154.167 66.037,156.413 66.543"/></g></g><g class="vf-stavenote" id="vf-auto26989"><g class="vf-stem" id="vf-auto26990" pointer-events="bounding-box"><path stroke-width="1.5" fill="none" d="M210.038 62L210.038 95"/></g><g class="vf-notehead" id="vf-auto26993" pointer-events="bounding-box"><path stroke="none" d="M212.433 66.543C212.714 66.599,212.966 66.627,213.247 66.627C217.122 66.627,222.907 61.348,222.794 57.08C222.682 56.041,222.71 54.609,220.604 53.766C220.015 53.485,219.369 53.373,218.667 53.373C214.342 53.373,209.653 58.343,209.316 61.657C209.316 61.909,209.288 62.134,209.288 62.387C209.288 64.409,210.187 66.037,212.433 66.543"/></g></g><g class="vf-stavenote" id="vf-auto26998"><path stroke-width="1.4" fill="none" stroke="#444" d="M264 90L283.508 90"/><g class="vf-stem" id="vf-auto26999" pointer-events="bounding-box"><path stroke-width="1.5" fill="none" d="M279.758 88L279.758 55"/></g><g class="vf-notehead" id="vf-auto27002" pointer-events="bounding-box"><path stroke="none" d="M270.145 96.543C270.426 96.599,270.678 96.627,270.959 96.627C274.834 96.627,280.619 91.348,280.506 87.08C280.394 86.041,280.422 84.609,278.316 83.766C277.727 83.485,277.081 83.373,276.379 83.373C272.054 83.373,267.365 88.343,267.028 91.657C267.028 91.909,267 92.134,267 92.387C267 94.409,267.899 96.037,270.145 96.543"/></g></g><g class="vf-stavenote" id="vf-auto27003"><path stroke-width="1.4" fill="none" stroke="#444" d="M326.5 90L346.008 90"/><g class="vf-stem" id="vf-auto27004" pointer-events="bounding-box"><path stroke-width="1.5" fill="none" d="M342.258 88L342.258 55"/></g><g class="vf-notehead" id="vf-auto27007" pointer-events="bounding-box"><path stroke="none" d="M332.645 96.543C332.926 96.599,333.178 96.627,333.459 96.627C337.334 96.627,343.119 91.348,343.006 87.08C342.894 86.041,342.922 84.609,340.816 83.766C340.227 83.485,339.581 83.373,338.879 83.373C334.554 83.373,329.865 88.343,329.528 91.657C329.528 91.909,329.5 92.134,329.5 92.387C329.5 94.409,330.399 96.037,332.645 96.543"/></g></g><g class="vf-stavenote" id="vf-auto27008"><path stroke-width="1.4" fill="none" stroke="#444" d="M389 90L408.508 90"/><g class="vf-stem" id="vf-auto27009" pointer-events="bounding-box"><path stroke-width="1.5" fill="none" d="M404.758 88L404.758 55"/></g><g class="vf-notehead" id="vf-auto27012" pointer-events="bounding-box"><path stroke="none" d="M395.145 96.543C395.426 96.599,395.678 96.627,395.959 96.627C399.834 96.627,405.619 91.348,405.506 87.08C405.394 86.041,405.422 84.609,403.316 83.766C402.727 83.485,402.081 83.373,401.379 83.373C397.054 83.373,392.365 88.343,392.028 91.657C392.028 91.909,392 92.134,392 92.387C392 94.409,392.899 96.037,395.145 96.543"/></g></g><g class="vf-stavenote" id="vf-auto27013"><path stroke-width="1.4" fill="none" stroke="#444" d="M451.5 90L471.008 90"/><g class="vf-stem" id="vf-auto27014" pointer-events="bounding-box"><path stroke-width="1.5" fill="none" d="M467.258 88L467.258 55"/></g><g class="vf-notehead" id="vf-auto27017" pointer-events="bounding-box"><path stroke="none" d="M457.645 96.543C457.926 96.599,458.178 96.627,458.459 96.627C462.334 96.627,468.119 91.348,468.006 87.08C467.894 86.041,467.922 84.609,465.816 83.766C465.227 83.485,464.581 83.373,463.879 83.373C459.554 83.373,454.865 88.343,454.528 91.657C454.528 91.909,454.5 92.134,454.5 92.387C454.5 94.409,455.399 96.037,457.645 96.543"/></g></g><path stroke="none" d="M31.767 120C32.526 120,33.799 118.874,33.897 118.091L34.754 111.848C34.827 111.505,34.656 110.893,35.219 110.796C37.055 110.453,38.597 109.572,40.14 108.617C41.413 107.833,42.343 106.781,42.343 105.336C42.343 105.19,42.343 105.018,42.294 104.871C42.049 103.011,40.923 101.713,39.062 101.15C38.45 100.955,37.887 100.93,37.3 100.93C36.835 100.93,36.419 100.93,35.954 100.955C35.66 100.955,35.317 101.028,35.146 100.906C34.974 100.685,34.754 100.636,34.583 100.612C34.362 100.612,34.118 100.685,33.897 100.685C32.673 100.685,32.404 101.958,31.4 102.399C31.621 102.521,31.718 102.668,31.792 102.668C31.939 102.619,32.037 102.619,32.11 102.619C32.502 102.619,32.526 102.913,32.526 103.256L32.526 103.5C32.526 105.875,32.526 108.201,32.282 110.551C32.11 112.362,31.963 114.174,31.718 115.985C31.572 117.062,31.4 118.164,31.253 119.266C31.229 119.364,31.229 119.461,31.229 119.535C31.229 119.78,31.327 120,31.767 120M35.415 109.596C35.146 109.596,35.048 109.498,35.048 109.18C35.072 108.935,35.072 108.641,35.072 108.372C35.17 107.344,35.244 106.291,35.244 105.263C35.244 104.455,35.219 103.672,35.17 102.913C35.17 102.374,35.317 102.154,35.733 102.154L35.954 102.154C38.034 102.399,39.748 104.308,39.748 106.218C39.748 106.438,39.723 106.609,39.699 106.805C39.258 108.764,36.835 109.669,35.415 109.596M55.195 119.853C55.366 119.853,55.586 119.78,55.905 119.682C56.859 119.29,57.643 118.874,57.692 117.528C57.839 114.688,58.255 111.848,58.549 109.008C58.72 107.319,58.965 105.655,59.21 103.99C59.258 103.745,59.332 103.476,59.332 103.231C59.332 103.035,59.283 102.864,59.136 102.766C58.891 102.546,58.622 102.472,58.328 102.472C57.961 102.472,57.496 102.619,57.08 102.717C56.566 102.791,56.639 103.231,56.615 103.574C56.321 105.434,56.052 107.344,55.807 109.253C55.733 109.523,55.684 109.743,55.366 109.743C55.342 109.743,55.268 109.718,55.195 109.743C54.852 109.645,54.46 109.596,54.118 109.572C52.869 109.572,51.743 110.086,50.69 110.796C48.708 112.093,47.484 113.904,47.484 116.255C47.484 116.45,47.508 116.622,47.508 116.818C47.655 118.409,48.463 119.29,49.662 119.29C50.152 119.29,50.617 119.192,51.18 119.021C52.6 118.409,53.824 117.528,55.097 116.401C54.999 117.356,54.926 118.14,54.852 118.898C54.803 119.584,54.877 119.853,55.195 119.853M40.85 120.416C43.322 119.608,45.403 118.727,46.749 116.45C46.798 116.304,46.847 116.181,46.847 116.083C46.847 115.936,46.749 115.887,46.529 115.887C46.504 115.887,46.455 115.887,46.431 115.912C45.476 115.985,44.546 116.083,44.056 117.111C43.885 117.454,43.591 117.748,43.346 118.066C42.759 118.8,42.294 119.192,41.878 119.192C41.413 119.192,40.947 118.654,40.531 117.65C40.36 117.209,40.262 116.793,40.262 116.45C40.262 115.447,40.898 114.786,42.049 114.492C42.269 114.419,42.465 114.394,42.686 114.321C44.424 113.758,46.064 113.023,47.239 111.579C47.557 111.187,47.802 110.796,47.802 110.33C47.802 110.159,47.753 110.012,47.679 109.841C47.41 109.18,46.872 108.862,46.211 108.764C45.966 108.715,45.721 108.715,45.648 108.715C43.469 108.715,41.241 110.012,39.748 111.971C38.622 113.439,37.814 115.128,37.814 117.062C37.814 118.898,39.014 120.465,40.507 120.465C40.605 120.465,40.752 120.465,40.85 120.416M40.898 114.125C41.462 112.656,42.294 111.579,43.322 110.624L43.983 110.086C44.154 109.988,44.35 109.767,44.546 109.743C44.619 109.743,44.693 109.767,44.791 109.841C45.036 110.061,45.182 110.306,45.182 110.624L45.182 110.722C45.182 111.187,44.987 111.579,44.742 111.897C43.738 113.023,42.539 113.807,40.898 114.125M51.474 117.821C51.18 117.821,50.911 117.65,50.617 117.283C50.201 116.793,49.981 116.132,49.981 115.006C50.127 113.733,50.788 112.313,51.914 111.187C52.135 110.967,52.355 110.893,52.551 110.893C52.771 110.893,52.967 110.967,53.187 111.04C54.289 111.359,54.803 112.166,55.17 113.17C55.244 113.341,55.244 113.513,55.121 113.66C54.289 115.031,53.481 116.401,52.233 117.454C51.963 117.699,51.719 117.821,51.474 117.821M62.612 119.706C63.126 119.657,63.542 119.437,63.934 119.143C64.301 118.898,64.497 118.58,64.497 118.262C64.497 117.993,64.326 117.674,63.983 117.503C63.347 117.111,62.661 116.818,61.927 116.818C61.168 116.818,60.654 117.332,60.287 117.846C60.164 118.017,60.066 118.237,60.066 118.409C60.066 118.654,60.164 118.898,60.482 119.094C61.168 119.437,61.902 119.535,62.612 119.706"/><path stroke="none" d="M160.772 123C160.801 123,160.859 123,160.887 122.971C161.003 122.885,161.06 122.798,161.06 122.654L161.003 122.251C161.003 119.976,161.003 117.701,161.06 115.397C162.788 117.067,164.545 118.738,166.417 120.264C166.705 120.466,167.022 120.955,167.367 120.955C167.396 120.955,167.483 120.955,167.511 120.926C167.972 120.725,167.972 120.062,167.972 119.515L167.972 119.342C168.116 118.45,167.771 117.701,166.907 117.154C166.187 116.693,165.524 116.146,164.862 115.541L164.084 114.792C165.495 114.706,166.849 114.619,168.26 114.59C168.807 114.533,169.067 114.302,169.182 113.842C169.268 113.467,169.297 113.035,169.355 112.661C169.47 111.682,169.153 111.336,168.145 111.422C166.993 111.509,165.783 111.595,164.631 111.624L167.367 108.859C167.598 108.6,167.598 108.312,167.598 107.909C167.598 107.822,167.598 107.563,167.511 107.362C167.367 106.786,167.396 106.008,166.791 105.835C166.273 105.72,165.899 106.382,165.495 106.757C163.998 108.197,162.5 109.637,161.06 111.106L161.06 106.872C161.06 105.72,160.513 104.798,159.534 103.877C159.159 105.374,159.102 106.699,159.073 108.082C159.015 108.773,159.015 109.493,158.987 110.184C157.575 108.946,156.107 107.736,154.638 106.613C154.407 106.44,154.206 106.325,154.033 106.325C153.831 106.325,153.716 106.498,153.716 106.872C153.716 108.082,153.63 109.262,154.839 110.155C155.675 110.731,156.481 111.394,157.287 112.056C155.703 112.142,154.119 112.171,152.564 112.229C151.527 112.229,151.268 112.661,151.268 113.669C151.268 115.368,151.297 115.368,153.083 115.339C153.831 115.253,154.638 115.166,155.415 115.166L156.913 115.166C156.078 115.915,155.243 116.693,154.379 117.442C153.457 118.277,152.996 118.651,152.996 119.112C152.996 119.515,153.371 119.976,154.119 120.898C154.177 120.926,154.206 120.955,154.263 121.042C154.35 121.272,154.465 121.33,154.551 121.33C154.724 121.33,154.839 121.214,155.012 121.099C156.251 119.918,157.518 118.824,158.727 117.643C158.727 118.306,158.641 118.968,158.641 119.63C158.641 120.926,159.073 121.934,160.225 122.626C160.398 122.712,160.571 123,160.772 123"/><path stroke="none" d="M199.827 120C200.585 120,201.858 118.874,201.956 118.091L202.813 111.848C202.887 111.505,202.715 110.893,203.278 110.796C205.114 110.453,206.656 109.572,208.199 108.617C209.472 107.833,210.402 106.781,210.402 105.336C210.402 105.19,210.402 105.018,210.353 104.871C210.108 103.011,208.982 101.713,207.122 101.15C206.51 100.955,205.947 100.93,205.359 100.93C204.894 100.93,204.478 100.93,204.013 100.955C203.719 100.955,203.376 101.028,203.205 100.906C203.033 100.685,202.813 100.636,202.642 100.612C202.421 100.612,202.177 100.685,201.956 100.685C200.732 100.685,200.463 101.958,199.459 102.399C199.68 102.521,199.778 102.668,199.851 102.668C199.998 102.619,200.096 102.619,200.169 102.619C200.561 102.619,200.585 102.913,200.585 103.256L200.585 103.5C200.585 105.875,200.585 108.201,200.341 110.551C200.169 112.362,200.022 114.174,199.778 115.985C199.631 117.062,199.459 118.164,199.312 119.266C199.288 119.364,199.288 119.461,199.288 119.535C199.288 119.78,199.386 120,199.827 120M203.474 109.596C203.205 109.596,203.107 109.498,203.107 109.18C203.131 108.935,203.131 108.641,203.131 108.372C203.229 107.344,203.303 106.291,203.303 105.263C203.303 104.455,203.278 103.672,203.229 102.913C203.229 102.374,203.376 102.154,203.792 102.154L204.013 102.154C206.093 102.399,207.807 104.308,207.807 106.218C207.807 106.438,207.783 106.609,207.758 106.805C207.317 108.764,204.894 109.669,203.474 109.596M223.254 119.853C223.425 119.853,223.646 119.78,223.964 119.682C224.919 119.29,225.702 118.874,225.751 117.528C225.898 114.688,226.314 111.848,226.608 109.008C226.779 107.319,227.024 105.655,227.269 103.99C227.318 103.745,227.391 103.476,227.391 103.231C227.391 103.035,227.342 102.864,227.195 102.766C226.95 102.546,226.681 102.472,226.387 102.472C226.02 102.472,225.555 102.619,225.139 102.717C224.625 102.791,224.698 103.231,224.674 103.574C224.38 105.434,224.111 107.344,223.866 109.253C223.792 109.523,223.743 109.743,223.425 109.743C223.401 109.743,223.327 109.718,223.254 109.743C222.911 109.645,222.519 109.596,222.177 109.572C220.928 109.572,219.802 110.086,218.75 110.796C216.767 112.093,215.543 113.904,215.543 116.255C215.543 116.45,215.567 116.622,215.567 116.818C215.714 118.409,216.522 119.29,217.721 119.29C218.211 119.29,218.676 119.192,219.239 119.021C220.659 118.409,221.883 117.528,223.156 116.401C223.058 117.356,222.985 118.14,222.911 118.898C222.862 119.584,222.936 119.853,223.254 119.853M208.909 120.416C211.381 119.608,213.462 118.727,214.808 116.45C214.857 116.304,214.906 116.181,214.906 116.083C214.906 115.936,214.808 115.887,214.588 115.887C214.563 115.887,214.515 115.887,214.49 115.912C213.535 115.985,212.605 116.083,212.115 117.111C211.944 117.454,211.65 117.748,211.406 118.066C210.818 118.8,210.353 119.192,209.937 119.192C209.472 119.192,209.007 118.654,208.59 117.65C208.419 117.209,208.321 116.793,208.321 116.45C208.321 115.447,208.958 114.786,210.108 114.492C210.328 114.419,210.524 114.394,210.745 114.321C212.483 113.758,214.123 113.023,215.298 111.579C215.616 111.187,215.861 110.796,215.861 110.33C215.861 110.159,215.812 110.012,215.739 109.841C215.469 109.18,214.931 108.862,214.27 108.764C214.025 108.715,213.78 108.715,213.707 108.715C211.528 108.715,209.3 110.012,207.807 111.971C206.681 113.439,205.873 115.128,205.873 117.062C205.873 118.898,207.073 120.465,208.566 120.465C208.664 120.465,208.811 120.465,208.909 120.416M208.958 114.125C209.521 112.656,210.353 111.579,211.381 110.624L212.042 110.086C212.213 109.988,212.409 109.767,212.605 109.743C212.679 109.743,212.752 109.767,212.85 109.841C213.095 110.061,213.242 110.306,213.242 110.624L213.242 110.722C213.242 111.187,213.046 111.579,212.801 111.897C211.797 113.023,210.598 113.807,208.958 114.125M219.533 117.821C219.239 117.821,218.97 117.65,218.676 117.283C218.26 116.793,218.04 116.132,218.04 115.006C218.187 113.733,218.847 112.313,219.974 111.187C220.194 110.967,220.414 110.893,220.61 110.893C220.83 110.893,221.026 110.967,221.247 111.04C222.348 111.359,222.862 112.166,223.229 113.17C223.303 113.341,223.303 113.513,223.18 113.66C222.348 115.031,221.54 116.401,220.292 117.454C220.023 117.699,219.778 117.821,219.533 117.821M230.671 119.706C231.185 119.657,231.602 119.437,231.993 119.143C232.36 118.898,232.556 118.58,232.556 118.262C232.556 117.993,232.385 117.674,232.042 117.503C231.406 117.111,230.72 116.818,229.986 116.818C229.227 116.818,228.713 117.332,228.346 117.846C228.223 118.017,228.125 118.237,228.125 118.409C228.125 118.654,228.223 118.898,228.542 119.094C229.227 119.437,229.961 119.535,230.671 119.706"/><path stroke="none" d="M462.004 123C462.033 123,462.09 123,462.119 122.971C462.234 122.885,462.292 122.798,462.292 122.654L462.234 122.251C462.234 119.976,462.234 117.701,462.292 115.397C464.02 117.067,465.777 118.738,467.649 120.264C467.937 120.466,468.254 120.955,468.599 120.955C468.628 120.955,468.714 120.955,468.743 120.926C469.204 120.725,469.204 120.062,469.204 119.515L469.204 119.342C469.348 118.45,469.002 117.701,468.138 117.154C467.418 116.693,466.756 116.146,466.094 115.541L465.316 114.792C466.727 114.706,468.081 114.619,469.492 114.59C470.039 114.533,470.298 114.302,470.414 113.842C470.5 113.467,470.529 113.035,470.586 112.661C470.702 111.682,470.385 111.336,469.377 111.422C468.225 111.509,467.015 111.595,465.863 111.624L468.599 108.859C468.83 108.6,468.83 108.312,468.83 107.909C468.83 107.822,468.83 107.563,468.743 107.362C468.599 106.786,468.628 106.008,468.023 105.835C467.505 105.72,467.13 106.382,466.727 106.757C465.23 108.197,463.732 109.637,462.292 111.106L462.292 106.872C462.292 105.72,461.745 104.798,460.766 103.877C460.391 105.374,460.334 106.699,460.305 108.082C460.247 108.773,460.247 109.493,460.218 110.184C458.807 108.946,457.338 107.736,455.87 106.613C455.639 106.44,455.438 106.325,455.265 106.325C455.063 106.325,454.948 106.498,454.948 106.872C454.948 108.082,454.862 109.262,456.071 110.155C456.906 110.731,457.713 111.394,458.519 112.056C456.935 112.142,455.351 112.171,453.796 112.229C452.759 112.229,452.5 112.661,452.5 113.669C452.5 115.368,452.529 115.368,454.314 115.339C455.063 115.253,455.87 115.166,456.647 115.166L458.145 115.166C457.31 115.915,456.474 116.693,455.61 117.442C454.689 118.277,454.228 118.651,454.228 119.112C454.228 119.515,454.602 119.976,455.351 120.898C455.409 120.926,455.438 120.955,455.495 121.042C455.582 121.272,455.697 121.33,455.783 121.33C455.956 121.33,456.071 121.214,456.244 121.099C457.482 119.918,458.75 118.824,459.959 117.643C459.959 118.306,459.873 118.968,459.873 119.63C459.873 120.926,460.305 121.934,461.457 122.626C461.63 122.712,461.802 123,462.004 123"/></svg>