<svg xmlns="http://www.w3.org/2000/svg" stroke-width="0.3" stroke-dasharray="none" fill="black" stroke="black" font-family="Arial, sans-serif" font-size="10pt" font-weight="normal" font-style="normal" width="450" height="240" viewBox="0 0 450 240" style="width: 450px; height: 240px; border: none;"><g class="vf-stave" id="vf-auto23920" stroke-width="1" fill="#999999" stroke="#999999"><path fill="none" d="M10 50L435 50"/><path fill="none" d="M10 60L435 60"/><path fill="none" d="M10 70L435 70"/><path fill="none" d="M10 80L435 80"/><path fill="none" d="M10 90L435 90"/></g><g class="vf-stavebarline" id="vf-auto23921"><rect x="10" y="49.5" width="1" height="41" stroke="none"/></g><g class="vf-stavebarline" id="vf-auto23922"><rect x="435" y="49.5" width="1" height="41" stroke="none"/></g><g class="vf-clef" id="vf-auto23923"><path stroke="none" d="M26.082 78.294C26.313 78.294,26.52 78.294,26.681 78.225C27.465 77.972,27.603 77.488,27.58 76.797C27.511 73.917,27.442 71.06,27.349 68.18C27.28 66.383,27.303 64.586,27.05 62.835C26.935 62.166,26.704 61.729,25.944 61.729C25.575 61.729,25.184 61.706,24.792 61.706C24.585 61.706,24.423 61.706,24.216 61.729C23.018 61.867,22.834 62.005,22.764 63.226L22.764 71.682C22.764 73.156,22.764 74.608,22.741 76.083C22.741 76.313,22.788 76.543,22.903 76.774C23.271 77.603,24.93 78.294,26.082 78.294M18.318 77.857C18.848 77.857,19.355 77.626,19.769 77.373C19.954 77.258,20 77.096,20 76.935C20 76.659,19.838 76.336,19.838 76.036C19.884 72.58,19.815 69.148,20.253 65.692C20.253 64.931,20.276 64.171,20.253 63.388C20.253 62.259,20.115 62.097,19.009 61.867C18.617 61.775,18.18 61.729,17.765 61.729C17.212 61.729,16.659 61.798,16.106 61.775C15.668 61.775,15.438 62.074,15.392 62.558C15.369 64.125,15.207 65.692,15.161 67.235C15.138 69.009,15.138 70.76,15.138 72.511L15.138 74.7C15.138 75.069,15 75.414,15 75.783C15 75.898,15 76.036,15.069 76.198C15.553 77.603,16.82 77.557,17.926 77.834C18.041 77.857,18.18 77.857,18.318 77.857"/></g><g class="vf-stavenote" id="vf-auto23924"><g class="vf-stem" id="vf-auto23925" pointer-events="bounding-box"><path stroke-width="1.5" fill="none" d="M65.332 45L65.332 80"/></g><g class="vf-notehead" id="vf-auto23927" pointer-events="bounding-box"><path stroke="none" d="M71.041 49.97C71.321 50.223,71.574 50.335,71.771 50.335C72.023 50.335,72.22 50.167,72.473 49.858C73.399 48.482,74.326 47.134,75.309 45.814C75.449 45.618,75.533 45.393,75.533 45.281C75.533 45.084,75.421 44.888,75.14 44.663C73.231 43.147,71.321 41.602,69.44 40.03C69.243 39.861,69.075 39.665,68.626 39.665C68.148 39.777,67.727 40.226,67.334 40.704C66.52 41.771,65.762 42.866,64.947 43.877C64.694 44.186,64.582 44.438,64.582 44.635C64.582 44.916,64.779 45.253,65.2 45.534C67.166 46.938,69.159 48.426,71.041 49.97M72.416 48.594C72.276 48.763,72.051 48.566,71.911 48.426L66.435 44.158C66.239 44.017,66.155 43.905,66.155 43.736C66.155 43.652,66.239 43.54,66.323 43.428C67.137 42.164,67.531 41.574,68.008 41.574C68.457 41.574,69.019 41.995,70.03 42.866L73.568 45.73C73.708 45.899,74.017 45.983,74.017 46.404C73.512 47.106,73.006 47.864,72.416 48.594"/></g></g><g class="vf-stavenote" id="vf-auto23928"><g class="vf-stem" id="vf-auto23929" pointer-events="bounding-box"><path stroke-width="1.5" fill="none" d="M90.332 45L90.332 80"/></g><g class="vf-notehead" id="vf-auto23931" pointer-events="bounding-box"><path stroke="none" d="M95.984 50.813C96.181 50.897,96.321 50.981,96.462 50.981C96.658 50.981,96.827 50.897,96.995 50.7C98.399 49.212,99.803 47.752,101.235 46.292C101.376 46.123,101.516 45.983,101.516 45.758C101.516 45.618,101.432 45.449,101.263 45.281C99.41 43.315,97.557 41.322,95.676 39.384C95.535 39.187,95.31 39.019,95.03 39.019C94.665 39.019,94.552 39.3,94.356 39.496C92.896 40.985,91.492 42.585,89.975 44.073C89.694 44.354,89.582 44.551,89.582 44.803C89.582 45.028,89.751 45.281,90.06 45.562C91.042 46.404,91.885 47.387,92.896 48.201C93.963 49.044,94.749 50.167,95.984 50.813M95.451 49.409C94.552 48.875,93.541 48.229,93.345 46.938C93.261 46.544,93.233 46.123,93.233 45.73C93.233 43.821,94.075 42.22,95.619 40.844C95.676 40.76,95.76 40.62,95.9 40.62C95.928 40.62,95.984 40.62,96.041 40.704C97.332 42.08,98.596 43.456,98.652 45.73C98.68 46.179,98.427 46.657,97.95 47.106C97.641 47.415,97.332 47.78,97.023 48.061C96.462 48.51,95.984 49.689,95.451 49.409"/></g></g><g class="vf-stavenote" id="vf-auto23932"><g class="vf-stem" id="vf-auto23933" pointer-events="bounding-box"><path stroke-width="1.5" fill="none" d="M115.332 45L115.332 80"/></g><g class="vf-notehead" id="vf-auto23935" pointer-events="bounding-box"><path stroke="none" d="M122.051 50.897C122.388 50.869,122.557 50.616,122.697 50.448C123.849 49.38,124.888 48.229,125.983 47.134C126.741 46.376,127.106 46.011,127.106 45.646C127.106 45.281,126.797 44.916,126.151 44.186C126.067 44.158,126.039 44.073,125.955 43.989C124.522 42.501,123.118 40.985,121.658 39.496C121.406 39.272,121.181 39.103,120.9 39.103C120.732 39.103,120.535 39.131,120.31 39.328C118.541 41.041,116.688 42.697,114.863 44.326C114.694 44.466,114.582 44.607,114.582 44.747C114.582 44.888,114.666 45,114.835 45.168L121.097 50.391C121.378 50.616,121.771 50.728,122.051 50.897"/></g></g><g class="vf-stavenote" id="vf-auto23936"><g class="vf-stem" id="vf-auto23937" pointer-events="bounding-box"><path stroke-width="1.5" fill="none" d="M140.332 45L140.332 80"/></g><g class="vf-notehead" id="vf-auto23939" pointer-events="bounding-box"><path stroke="none" d="M147.051 50.897C147.388 50.869,147.557 50.616,147.697 50.448C148.849 49.38,149.888 48.229,150.983 47.134C151.741 46.376,152.106 46.011,152.106 45.646C152.106 45.281,151.797 44.916,151.151 44.186C151.067 44.158,151.039 44.073,150.955 43.989C149.522 42.501,148.118 40.985,146.658 39.496C146.406 39.272,146.181 39.103,145.9 39.103C145.732 39.103,145.535 39.131,145.31 39.328C143.541 41.041,141.688 42.697,139.863 44.326C139.694 44.466,139.582 44.607,139.582 44.747C139.582 44.888,139.666 45,139.835 45.168L146.097 50.391C146.378 50.616,146.771 50.728,147.051 50.897"/></g></g><g class="vf-stavenote" id="vf-auto23940"><g class="vf-notehead" id="vf-auto23943" pointer-events="bounding-box"><path stroke="none" d="M165.228 76.318C165.705 76.262,166.155 76.15,166.52 75.728C167.166 75.054,167.811 74.409,168.429 73.678L170.451 71.404C171.995 72.836,173.596 74.156,175.168 75.532C175.365 75.7,175.618 75.897,175.898 75.897L176.039 75.897C176.263 75.813,176.263 75.588,176.263 75.391L176.263 75.223C176.263 74.802,176.179 74.437,175.898 74.156C175.365 73.51,174.888 72.836,174.242 72.274C173.343 71.544,172.501 70.814,171.658 70.028C172.922 68.624,174.129 67.164,175.168 65.591C175.449 65.226,175.87 64.749,175.87 64.328C175.87 64.187,175.814 64.019,175.674 63.907C175.505 63.738,175.309 63.654,175.14 63.654C174.691 63.654,174.298 64.272,173.961 64.609C172.697 65.985,171.546 67.36,170.367 68.821C169.272 67.726,168.261 66.63,167.278 65.479C166.997 65.114,166.716 64.693,166.267 64.581C166.042 64.496,165.762 64.216,165.509 64.216C165.396 64.216,165.312 64.272,165.2 64.412C164.975 64.665,164.863 64.918,164.863 65.142C164.863 65.339,164.975 65.591,165.2 65.872C166.323 67.248,167.502 68.54,168.738 69.803C168.906 69.972,169.019 70.084,169.187 70.197C167.699 71.853,166.127 73.426,164.863 75.307C164.751 75.532,164.582 75.7,164.582 75.953C164.582 75.981,164.582 76.065,164.61 76.093C164.694 76.346,164.975 76.234,165.228 76.318"/></g></g><g class="vf-stavenote" id="vf-auto23944"><g class="vf-notehead" id="vf-auto23947" pointer-events="bounding-box"><path stroke="none" d="M203.734 50.869C204.184 50.869,204.38 50.784,204.38 50.588C204.38 50.419,204.296 50.251,204.184 50.054C203.65 49.24,203.061 48.426,202.471 47.64C200.814 45.168,199.157 42.697,197.416 40.226C197.051 39.665,196.686 39.412,196.378 39.412C196.041 39.412,195.732 39.693,195.367 40.311C193.513 43.231,191.716 46.179,189.863 49.072C189.666 49.38,189.582 49.605,189.582 49.802C189.582 50.139,189.835 50.391,190.228 50.616C190.509 50.784,190.846 50.869,191.127 50.869M195.254 49.521C194.721 49.577,194.524 49.38,194.524 48.847C194.524 48.117,194.608 47.415,194.833 46.741C195.367 45.281,195.984 43.821,196.686 42.332C198.203 44.326,198.961 46.376,199.045 48.707C199.073 49.296,198.961 49.521,198.315 49.521C197.838 49.521,197.304 49.493,196.771 49.493C196.265 49.493,195.76 49.521,195.254 49.521"/></g></g><g class="vf-stavenote" id="vf-auto23948"><g class="vf-stem" id="vf-auto23949" pointer-events="bounding-box"><path stroke-width="1.5" fill="none" d="M215.332 49L215.332 80"/></g><g class="vf-notehead" id="vf-auto23951" pointer-events="bounding-box"><path stroke="none" d="M227.443 51.346C227.555 51.262,227.752 51.43,228.004 51.43C228.117 51.43,228.257 51.402,228.341 51.234C228.482 50.813,228.173 50.504,227.976 50.167C226.095 46.825,224.298 43.428,222.473 40.058C222.136 39.552,221.911 39.019,221.265 38.682C221.097 38.654,220.984 38.598,220.9 38.57C220.676 38.57,220.563 38.682,220.451 38.963C218.541 42.417,216.632 45.842,214.694 49.296C214.61 49.437,214.582 49.605,214.582 49.774C214.582 49.97,214.694 50.139,214.919 50.307C215.34 50.672,215.79 50.981,216.435 51.037C220.03 51.093,223.652 51.234,227.443 51.346M218.822 49.689C220.31 47.499,221.321 45.028,222.95 42.894C223.006 42.866,223.034 42.782,223.034 42.697L224.607 45.618C224.494 45.758,224.41 46.039,224.242 46.207C223.484 47.218,223.343 48.566,222.585 49.577C222.501 49.661,222.416 49.689,222.388 49.774"/></g></g><g class="vf-stavenote" id="vf-auto23952"><g class="vf-stem" id="vf-auto23953" pointer-events="bounding-box"><path stroke-width="1.5" fill="none" d="M240.332 49L240.332 80"/></g><g class="vf-notehead" id="vf-auto23955" pointer-events="bounding-box"><path stroke="none" d="M253.089 51.037C253.257 51.037,253.398 51.037,253.566 50.869C253.566 50.448,253.285 50.167,253.117 49.858L247.557 40.142C247.388 39.833,247.136 39.552,246.855 39.328C246.546 39.103,246.265 38.963,246.012 38.963C245.647 38.963,245.367 39.216,245.086 39.693L239.947 49.212C239.835 49.38,239.751 49.577,239.666 49.717C239.61 49.858,239.582 49.97,239.582 50.054C239.582 50.251,239.694 50.419,239.919 50.532C240.396 50.784,240.846 50.981,241.351 50.981C245.282 50.981,249.214 51.037,253.089 51.037"/></g></g><g class="vf-stavenote" id="vf-auto23956"><g class="vf-stem" id="vf-auto23957" pointer-events="bounding-box"><path stroke-width="1.5" fill="none" d="M265.332 49L265.332 80"/></g><g class="vf-notehead" id="vf-auto23959" pointer-events="bounding-box"><path stroke="none" d="M278.089 51.037C278.257 51.037,278.398 51.037,278.566 50.869C278.566 50.448,278.285 50.167,278.117 49.858L272.557 40.142C272.388 39.833,272.136 39.552,271.855 39.328C271.546 39.103,271.265 38.963,271.012 38.963C270.647 38.963,270.367 39.216,270.086 39.693L264.947 49.212C264.835 49.38,264.751 49.577,264.666 49.717C264.61 49.858,264.582 49.97,264.582 50.054C264.582 50.251,264.694 50.419,264.919 50.532C265.396 50.784,265.846 50.981,266.351 50.981C270.282 50.981,274.214 51.037,278.089 51.037"/></g></g><g class="vf-stavenote" id="vf-auto23960"><g class="vf-notehead" id="vf-auto23963" pointer-events="bounding-box"><path stroke="none" d="M290.228 76.318C290.705 76.262,291.155 76.15,291.52 75.728C292.166 75.054,292.811 74.409,293.429 73.678L295.451 71.404C296.995 72.836,298.596 74.156,300.168 75.532C300.365 75.7,300.618 75.897,300.898 75.897L301.039 75.897C301.263 75.813,301.263 75.588,301.263 75.391L301.263 75.223C301.263 74.802,301.179 74.437,300.898 74.156C300.365 73.51,299.888 72.836,299.242 72.274C298.343 71.544,297.501 70.814,296.658 70.028C297.922 68.624,299.129 67.164,300.168 65.591C300.449 65.226,300.87 64.749,300.87 64.328C300.87 64.187,300.814 64.019,300.674 63.907C300.505 63.738,300.309 63.654,300.14 63.654C299.691 63.654,299.298 64.272,298.961 64.609C297.697 65.985,296.546 67.36,295.367 68.821C294.272 67.726,293.261 66.63,292.278 65.479C291.997 65.114,291.716 64.693,291.267 64.581C291.042 64.496,290.762 64.216,290.509 64.216C290.396 64.216,290.312 64.272,290.2 64.412C289.975 64.665,289.863 64.918,289.863 65.142C289.863 65.339,289.975 65.591,290.2 65.872C291.323 67.248,292.502 68.54,293.738 69.803C293.906 69.972,294.019 70.084,294.187 70.197C292.699 71.853,291.127 73.426,289.863 75.307C289.751 75.532,289.582 75.7,289.582 75.953C289.582 75.981,289.582 76.065,289.61 76.093C289.694 76.346,289.975 76.234,290.228 76.318"/></g></g><g class="vf-stavenote" id="vf-auto23964"><g class="vf-notehead" id="vf-auto23967" pointer-events="bounding-box"><path stroke="none" d="M316.07 50.784C317.868 50.813,319.356 50.504,320.732 49.577C321.574 48.959,322.501 48.426,323.399 47.864C323.961 47.499,324.579 47.134,325.168 46.769C326.432 47.696,327.724 48.594,329.015 49.521C329.577 49.886,330.082 50.504,330.756 50.504C330.869 50.504,331.009 50.504,331.121 50.419C332.132 50.448,333.031 50.082,333.901 49.886C334.182 49.802,334.547 49.858,334.547 49.437C334.547 49.24,334.266 49.128,334.126 49.015C332.329 47.752,330.504 46.46,328.706 45.253L328.201 44.888C330.279 43.624,332.385 42.332,334.35 40.928C334.547 40.788,335.052 40.76,335.052 40.395L335.052 40.283C334.968 39.861,334.519 39.581,334.126 39.496C333.424 39.328,332.694 39.187,332.02 39.187C331.121 39.187,330.223 39.384,329.408 40.03C328.061 41.069,326.544 41.967,325.056 42.866C323.849 42.08,322.641 41.293,321.49 40.395C320.395 39.581,319.272 39.3,318.008 39.216C317.446 39.187,316.604 39.187,316.435 39.609C316.211 40.142,316.969 40.563,317.362 40.872C318.991 42.136,320.619 43.371,322.276 44.607C319.749 46.179,317.278 47.752,315.031 49.605C314.919 49.717,314.582 49.774,314.582 50.026C314.582 50.054,314.582 50.139,314.61 50.139C314.751 50.419,314.919 50.728,315.312 50.728C315.621 50.784,315.958 50.784,316.07 50.784M331.739 49.97C329.465 48.313,327.274 46.769,325.14 45.253L319.187 49.015C318.71 49.324,318.233 49.605,317.502 49.605C317.278 49.605,317.081 49.605,316.885 49.521C318.429 48.51,319.721 47.668,321.041 46.825L324.326 44.663C324.157 44.551,323.961 44.382,323.764 44.27L320.086 41.602C319.749 41.406,319.44 41.153,319.159 40.872C318.906 40.676,318.513 40.423,318.513 40.142C318.513 40.058,318.541 40.03,318.598 39.946C318.906 39.552,319.272 40.114,319.608 40.339L325.028 44.242L330.475 40.704C330.869 40.479,331.318 40.226,331.795 40.198C332.104 40.198,332.413 40.114,332.413 40.507C332.413 40.704,332.16 40.788,332.02 40.872L326.628 44.326C326.348 44.466,326.067 44.635,325.814 44.832C327.387 45.983,328.987 47.106,330.56 48.285C331.093 48.65,331.655 49.015,331.739 49.97"/></g></g><g class="vf-stavenote" id="vf-auto23968"><g class="vf-stem" id="vf-auto23969" pointer-events="bounding-box"><path stroke-width="1.5" fill="none" d="M340.332 49L340.332 80"/></g><g class="vf-notehead" id="vf-auto23971" pointer-events="bounding-box"><path stroke="none" d="M353.341 50.869C353.763 50.813,354.212 50.813,354.717 50.813C355.307 50.813,355.953 50.869,356.599 50.869C356.486 50.7,356.43 50.588,356.374 50.504L350.983 45.534L354.745 41.35C354.914 41.209,354.942 41.069,354.942 40.956C354.942 40.844,354.83 40.704,354.633 40.62C354.128 40.339,353.706 40.058,353.285 39.609C352.808 39.131,352.05 38.907,351.263 38.907C350.253 38.907,349.242 39.272,348.652 39.946L346.995 41.771C346.771 41.574,346.546 41.322,346.293 41.125C344.637 39.496,342.615 39.384,340.509 39.468C340.228 39.468,339.751 39.581,339.666 39.777C339.554 40.114,339.863 40.423,340.116 40.676C341.52 41.995,342.952 43.343,344.384 44.663C342.952 46.264,341.52 47.836,340.116 49.409C339.975 49.577,339.582 49.661,339.582 49.97C339.582 50.026,339.582 50.054,339.61 50.082C339.835 50.532,340.2 50.7,340.677 50.7L344.805 50.7C344.917 50.672,345.002 50.616,345.114 50.672L345.563 50.672C345.984 50.672,346.49 50.588,346.939 50.054L348.399 48.426C349.775 49.774,351.151 51.065,353.341 50.869M351.797 49.156C350.224 48.145,349.045 46.938,347.753 45.842L345.563 48.313C345.395 48.51,345.254 48.847,344.917 48.847C344.44 48.65,343.906 48.566,343.654 48.117C343.429 47.752,343.822 47.471,344.075 47.218C344.749 46.348,345.535 45.449,346.265 44.551C345.31 43.793,344.44 42.978,343.541 42.22L343.064 41.715C342.98 41.602,342.811 41.434,342.811 41.293C342.811 41.237,342.868 41.153,342.896 41.153C343.148 40.872,343.373 41.125,343.541 41.293L346.686 43.989C347.585 42.894,348.427 41.855,349.326 40.788C349.522 40.507,349.775 40.423,349.972 40.395C350.309 40.395,350.618 40.62,350.898 40.928C351.151 41.069,351.263 41.293,351.263 41.434C351.263 41.687,351.151 41.883,350.955 42.136L348.203 45.281C349.214 46.179,350.224 47.05,351.179 47.948C351.516 48.229,351.825 48.51,351.797 49.156"/></g></g><g class="vf-stavenote" id="vf-auto23972"><g class="vf-stem" id="vf-auto23973" pointer-events="bounding-box"><path stroke-width="1.5" fill="none" d="M365.332 49L365.332 80"/></g><g class="vf-notehead" id="vf-auto23975" pointer-events="bounding-box"><path stroke="none" d="M365.228 51.318C365.705 51.262,366.155 51.15,366.52 50.728C367.166 50.054,367.811 49.409,368.429 48.678L370.451 46.404C371.995 47.836,373.596 49.156,375.168 50.532C375.365 50.7,375.618 50.897,375.898 50.897L376.039 50.897C376.263 50.813,376.263 50.588,376.263 50.391L376.263 50.223C376.263 49.802,376.179 49.437,375.898 49.156C375.365 48.51,374.888 47.836,374.242 47.274C373.343 46.544,372.501 45.814,371.658 45.028C372.922 43.624,374.129 42.164,375.168 40.591C375.449 40.226,375.87 39.749,375.87 39.328C375.87 39.187,375.814 39.019,375.674 38.907C375.505 38.738,375.309 38.654,375.14 38.654C374.691 38.654,374.298 39.272,373.961 39.609C372.697 40.985,371.546 42.36,370.367 43.821C369.272 42.726,368.261 41.63,367.278 40.479C366.997 40.114,366.716 39.693,366.267 39.581C366.042 39.496,365.762 39.216,365.509 39.216C365.396 39.216,365.312 39.272,365.2 39.412C364.975 39.665,364.863 39.918,364.863 40.142C364.863 40.339,364.975 40.591,365.2 40.872C366.323 42.248,367.502 43.54,368.738 44.803C368.906 44.972,369.019 45.084,369.187 45.197C367.699 46.853,366.127 48.426,364.863 50.307C364.751 50.532,364.582 50.7,364.582 50.953C364.582 50.981,364.582 51.065,364.61 51.093C364.694 51.346,364.975 51.234,365.228 51.318"/></g></g><g class="vf-stavenote" id="vf-auto23976"><g class="vf-stem" id="vf-auto23977" pointer-events="bounding-box"><path stroke-width="1.5" fill="none" d="M390.332 45L390.332 80"/></g><g class="vf-notehead" id="vf-auto23979" pointer-events="bounding-box"><path stroke="none" d="M392.362 50.897C393.429 51.795,394.805 52.245,396.209 52.245C398.147 52.245,400.084 51.458,401.32 50.139C402.92 48.37,403.482 46.348,403.482 44.073C403.482 43.736,403.454 43.456,403.454 43.147C403.257 39.861,400.955 37.812,398.062 37.924C396.939 38.008,395.816 38.036,394.665 38.177C393.176 38.373,391.8 38.85,390.874 40.198C389.975 41.434,389.582 42.95,389.582 44.466C389.582 46.909,390.565 49.38,392.362 50.897M396.462 43.821L393.064 40.62C393.654 40.339,394.356 40.142,395.198 40.058C396.462 39.918,397.753 39.833,399.045 39.861C399.438 39.861,399.803 39.946,400.168 40.058C398.933 41.322,397.669 42.585,396.462 43.821M400.59 47.78L397.585 44.916L400.814 41.602C401.067 41.322,401.32 41.069,401.32 40.676C402.162 41.35,402.639 42.36,402.639 43.596C402.555 45.477,401.909 47.05,400.955 48.145M392.081 48.37C391.155 47.303,390.93 46.179,390.93 45C390.93 44.017,391.239 42.866,392.081 41.855C392.278 41.883,392.446 41.967,392.643 42.164L395.479 44.803L394.833 45.477C393.822 46.488,393.092 47.303,392.081 48.37M394.524 50.139C394.019 50.026,393.541 49.802,393.148 49.577L396.658 45.899L400.028 49.044C398.961 49.858,397.585 50.307,396.125 50.307C395.619 50.307,395.086 50.251,394.524 50.139"/></g></g><g class="vf-stave" id="vf-auto23980" stroke-width="1" fill="#999999" stroke="#999999"><path fill="none" d="M10 170L435 170"/><path fill="none" d="M10 180L435 180"/><path fill="none" d="M10 190L435 190"/><path fill="none" d="M10 200L435 200"/><path fill="none" d="M10 210L435 210"/></g><g class="vf-stavebarline" id="vf-auto23981"><rect x="10" y="169.5" width="1" height="41" stroke="none"/></g><g class="vf-stavebarline" id="vf-auto23982"><rect x="435" y="169.5" width="1" height="41" stroke="none"/></g><g class="vf-clef" id="vf-auto23983"><path stroke="none" d="M26.082 198.294C26.313 198.294,26.52 198.294,26.681 198.225C27.465 197.972,27.603 197.488,27.58 196.797C27.511 193.917,27.442 191.06,27.349 188.18C27.28 186.383,27.303 184.586,27.05 182.835C26.935 182.166,26.704 181.729,25.944 181.729C25.575 181.729,25.184 181.706,24.792 181.706C24.585 181.706,24.423 181.706,24.216 181.729C23.018 181.867,22.834 182.005,22.764 183.226L22.764 191.682C22.764 193.156,22.764 194.608,22.741 196.083C22.741 196.313,22.788 196.543,22.903 196.774C23.271 197.603,24.93 198.294,26.082 198.294M18.318 197.857C18.848 197.857,19.355 197.626,19.769 197.373C19.954 197.258,20 197.096,20 196.935C20 196.659,19.838 196.336,19.838 196.036C19.884 192.58,19.815 189.148,20.253 185.692C20.253 184.931,20.276 184.171,20.253 183.388C20.253 182.259,20.115 182.097,19.009 181.867C18.617 181.775,18.18 181.729,17.765 181.729C17.212 181.729,16.659 181.798,16.106 181.775C15.668 181.775,15.438 182.074,15.392 182.558C15.369 184.125,15.207 185.692,15.161 187.235C15.138 189.009,15.138 190.76,15.138 192.511L15.138 194.7C15.138 195.069,15 195.414,15 195.783C15 195.898,15 196.036,15.069 196.198C15.553 197.603,16.82 197.557,17.926 197.834C18.041 197.857,18.18 197.857,18.318 197.857"/></g><g class="vf-stavenote" id="vf-auto23984"><g class="vf-stem" id="vf-auto23985" pointer-events="bounding-box"><path stroke-width="1.5" fill="none" d="M77.34 165L77.34 130"/></g><g class="vf-notehead" id="vf-auto23987" pointer-events="bounding-box"><path stroke="none" d="M73.597 169.97C73.878 170.223,74.131 170.335,74.328 170.335C74.58 170.335,74.777 170.167,75.03 169.858C75.956 168.482,76.883 167.134,77.866 165.814C78.006 165.618,78.09 165.393,78.09 165.281C78.09 165.084,77.978 164.888,77.697 164.663C75.788 163.147,73.878 161.602,71.997 160.03C71.8 159.861,71.632 159.665,71.183 159.665C70.705 159.777,70.284 160.226,69.891 160.704C69.077 161.771,68.318 162.866,67.504 163.877C67.251 164.186,67.139 164.438,67.139 164.635C67.139 164.916,67.336 165.253,67.757 165.534C69.722 166.938,71.716 168.426,73.597 169.97M74.973 168.594C74.833 168.763,74.608 168.566,74.468 168.426L68.992 164.158C68.796 164.017,68.712 163.905,68.712 163.736C68.712 163.652,68.796 163.54,68.88 163.428C69.694 162.164,70.087 161.574,70.565 161.574C71.014 161.574,71.576 161.995,72.587 162.866L76.125 165.73C76.265 165.899,76.574 165.983,76.574 166.404C76.068 167.106,75.563 167.864,74.973 168.594"/></g></g><g class="vf-stavenote" id="vf-auto23988"><g class="vf-stem" id="vf-auto23989" pointer-events="bounding-box"><path stroke-width="1.5" fill="none" d="M102.34 165L102.34 130"/></g><g class="vf-notehead" id="vf-auto23991" pointer-events="bounding-box"><path stroke="none" d="M97.558 170.813C97.755 170.897,97.895 170.981,98.036 170.981C98.232 170.981,98.401 170.897,98.569 170.7C99.973 169.212,101.377 167.752,102.809 166.292C102.95 166.123,103.09 165.983,103.09 165.758C103.09 165.618,103.006 165.449,102.838 165.281C100.984 163.315,99.131 161.322,97.25 159.384C97.109 159.187,96.885 159.019,96.604 159.019C96.239 159.019,96.126 159.3,95.93 159.496C94.47 160.985,93.066 162.585,91.549 164.073C91.269 164.354,91.156 164.551,91.156 164.803C91.156 165.028,91.325 165.281,91.634 165.562C92.616 166.404,93.459 167.387,94.47 168.201C95.537 169.044,96.323 170.167,97.558 170.813M97.025 169.409C96.126 168.875,95.116 168.229,94.919 166.938C94.835 166.544,94.807 166.123,94.807 165.73C94.807 163.821,95.649 162.22,97.193 160.844C97.25 160.76,97.334 160.62,97.474 160.62C97.502 160.62,97.558 160.62,97.615 160.704C98.906 162.08,100.17 163.456,100.226 165.73C100.254 166.179,100.001 166.657,99.524 167.106C99.215 167.415,98.906 167.78,98.597 168.061C98.036 168.51,97.558 169.689,97.025 169.409"/></g></g><g class="vf-stavenote" id="vf-auto23992"><g class="vf-stem" id="vf-auto23993" pointer-events="bounding-box"><path stroke-width="1.5" fill="none" d="M127.34 165L127.34 130"/></g><g class="vf-notehead" id="vf-auto23995" pointer-events="bounding-box"><path stroke="none" d="M123.036 170.897C123.373 170.869,123.541 170.616,123.682 170.448C124.833 169.38,125.872 168.229,126.967 167.134C127.725 166.376,128.09 166.011,128.09 165.646C128.09 165.281,127.781 164.916,127.136 164.186C127.051 164.158,127.023 164.073,126.939 163.989C125.507 162.501,124.103 160.985,122.643 159.496C122.39 159.272,122.165 159.103,121.885 159.103C121.716 159.103,121.52 159.131,121.295 159.328C119.526 161.041,117.673 162.697,115.847 164.326C115.679 164.466,115.567 164.607,115.567 164.747C115.567 164.888,115.651 165,115.819 165.168L122.081 170.391C122.362 170.616,122.755 170.728,123.036 170.897"/></g></g><g class="vf-stavenote" id="vf-auto23996"><g class="vf-stem" id="vf-auto23997" pointer-events="bounding-box"><path stroke-width="1.5" fill="none" d="M152.34 165L152.34 130"/></g><g class="vf-notehead" id="vf-auto23999" pointer-events="bounding-box"><path stroke="none" d="M148.036 170.897C148.373 170.869,148.541 170.616,148.682 170.448C149.833 169.38,150.872 168.229,151.967 167.134C152.725 166.376,153.09 166.011,153.09 165.646C153.09 165.281,152.781 164.916,152.136 164.186C152.051 164.158,152.023 164.073,151.939 163.989C150.507 162.501,149.103 160.985,147.643 159.496C147.39 159.272,147.165 159.103,146.885 159.103C146.716 159.103,146.52 159.131,146.295 159.328C144.526 161.041,142.673 162.697,140.847 164.326C140.679 164.466,140.567 164.607,140.567 164.747C140.567 164.888,140.651 165,140.819 165.168L147.081 170.391C147.362 170.616,147.755 170.728,148.036 170.897"/></g></g><g class="vf-stavenote" id="vf-auto24000"><g class="vf-notehead" id="vf-auto24003" pointer-events="bounding-box"><path stroke="none" d="M165.228 196.318C165.705 196.262,166.155 196.15,166.52 195.728C167.166 195.054,167.811 194.409,168.429 193.678L170.451 191.404C171.995 192.836,173.596 194.156,175.168 195.532C175.365 195.7,175.618 195.897,175.898 195.897L176.039 195.897C176.263 195.813,176.263 195.588,176.263 195.391L176.263 195.223C176.263 194.802,176.179 194.437,175.898 194.156C175.365 193.51,174.888 192.836,174.242 192.274C173.343 191.544,172.501 190.814,171.658 190.028C172.922 188.624,174.129 187.164,175.168 185.591C175.449 185.226,175.87 184.749,175.87 184.328C175.87 184.187,175.814 184.019,175.674 183.907C175.505 183.738,175.309 183.654,175.14 183.654C174.691 183.654,174.298 184.272,173.961 184.609C172.697 185.985,171.546 187.36,170.367 188.821C169.272 187.726,168.261 186.63,167.278 185.479C166.997 185.114,166.716 184.693,166.267 184.581C166.042 184.496,165.762 184.216,165.509 184.216C165.396 184.216,165.312 184.272,165.2 184.412C164.975 184.665,164.863 184.918,164.863 185.142C164.863 185.339,164.975 185.591,165.2 185.872C166.323 187.248,167.502 188.54,168.738 189.803C168.906 189.972,169.019 190.084,169.187 190.197C167.699 191.853,166.127 193.426,164.863 195.307C164.751 195.532,164.582 195.7,164.582 195.953C164.582 195.981,164.582 196.065,164.61 196.093C164.694 196.346,164.975 196.234,165.228 196.318"/></g></g><g class="vf-stavenote" id="vf-auto24004"><g class="vf-notehead" id="vf-auto24007" pointer-events="bounding-box"><path stroke="none" d="M203.734 170.869C204.184 170.869,204.38 170.784,204.38 170.588C204.38 170.419,204.296 170.251,204.184 170.054C203.65 169.24,203.061 168.426,202.471 167.64C200.814 165.168,199.157 162.697,197.416 160.226C197.051 159.665,196.686 159.412,196.378 159.412C196.041 159.412,195.732 159.693,195.367 160.311C193.513 163.231,191.716 166.179,189.863 169.072C189.666 169.38,189.582 169.605,189.582 169.802C189.582 170.139,189.835 170.391,190.228 170.616C190.509 170.784,190.846 170.869,191.127 170.869M195.254 169.521C194.721 169.577,194.524 169.38,194.524 168.847C194.524 168.117,194.608 167.415,194.833 166.741C195.367 165.281,195.984 163.821,196.686 162.332C198.203 164.326,198.961 166.376,199.045 168.707C199.073 169.296,198.961 169.521,198.315 169.521C197.838 169.521,197.304 169.493,196.771 169.493C196.265 169.493,195.76 169.521,195.254 169.521"/></g></g><g class="vf-stavenote" id="vf-auto24008"><g class="vf-stem" id="vf-auto24009" pointer-events="bounding-box"><path stroke-width="1.5" fill="none" d="M227.34 170L227.34 130"/></g><g class="vf-notehead" id="vf-auto24011" pointer-events="bounding-box"><path stroke="none" d="M227.156 171.346C227.269 171.262,227.465 171.43,227.718 171.43C227.83 171.43,227.971 171.402,228.055 171.234C228.195 170.813,227.886 170.504,227.69 170.167C225.808 166.825,224.011 163.428,222.186 160.058C221.849 159.552,221.624 159.019,220.979 158.682C220.81 158.654,220.698 158.598,220.614 158.57C220.389 158.57,220.277 158.682,220.164 158.963C218.255 162.417,216.345 165.842,214.408 169.296C214.324 169.437,214.296 169.605,214.296 169.774C214.296 169.97,214.408 170.139,214.633 170.307C215.054 170.672,215.503 170.981,216.149 171.037C219.743 171.093,223.365 171.234,227.156 171.346M218.536 169.689C220.024 167.499,221.035 165.028,222.663 162.894C222.72 162.866,222.748 162.782,222.748 162.697L224.32 165.618C224.208 165.758,224.124 166.039,223.955 166.207C223.197 167.218,223.057 168.566,222.298 169.577C222.214 169.661,222.13 169.689,222.102 169.774"/></g></g><g class="vf-stavenote" id="vf-auto24012"><g class="vf-stem" id="vf-auto24013" pointer-events="bounding-box"><path stroke-width="1.5" fill="none" d="M252.34 170L252.34 130"/></g><g class="vf-notehead" id="vf-auto24015" pointer-events="bounding-box"><path stroke="none" d="M252.613 171.037C252.781 171.037,252.922 171.037,253.09 170.869C253.09 170.448,252.809 170.167,252.641 169.858L247.081 160.142C246.913 159.833,246.66 159.552,246.379 159.328C246.07 159.103,245.789 158.963,245.537 158.963C245.172 158.963,244.891 159.216,244.61 159.693L239.471 169.212C239.359 169.38,239.275 169.577,239.191 169.717C239.134 169.858,239.106 169.97,239.106 170.054C239.106 170.251,239.219 170.419,239.443 170.532C239.921 170.784,240.37 170.981,240.875 170.981C244.807 170.981,248.738 171.037,252.613 171.037"/></g></g><g class="vf-stavenote" id="vf-auto24016"><g class="vf-stem" id="vf-auto24017" pointer-events="bounding-box"><path stroke-width="1.5" fill="none" d="M277.34 170L277.34 130"/></g><g class="vf-notehead" id="vf-auto24019" pointer-events="bounding-box"><path stroke="none" d="M277.613 171.037C277.781 171.037,277.922 171.037,278.09 170.869C278.09 170.448,277.809 170.167,277.641 169.858L272.081 160.142C271.913 159.833,271.66 159.552,271.379 159.328C271.07 159.103,270.789 158.963,270.537 158.963C270.172 158.963,269.891 159.216,269.61 159.693L264.471 169.212C264.359 169.38,264.275 169.577,264.191 169.717C264.134 169.858,264.106 169.97,264.106 170.054C264.106 170.251,264.219 170.419,264.443 170.532C264.921 170.784,265.37 170.981,265.875 170.981C269.807 170.981,273.738 171.037,277.613 171.037"/></g></g><g class="vf-stavenote" id="vf-auto24020"><g class="vf-notehead" id="vf-auto24023" pointer-events="bounding-box"><path stroke="none" d="M290.228 196.318C290.705 196.262,291.155 196.15,291.52 195.728C292.166 195.054,292.811 194.409,293.429 193.678L295.451 191.404C296.995 192.836,298.596 194.156,300.168 195.532C300.365 195.7,300.618 195.897,300.898 195.897L301.039 195.897C301.263 195.813,301.263 195.588,301.263 195.391L301.263 195.223C301.263 194.802,301.179 194.437,300.898 194.156C300.365 193.51,299.888 192.836,299.242 192.274C298.343 191.544,297.501 190.814,296.658 190.028C297.922 188.624,299.129 187.164,300.168 185.591C300.449 185.226,300.87 184.749,300.87 184.328C300.87 184.187,300.814 184.019,300.674 183.907C300.505 183.738,300.309 183.654,300.14 183.654C299.691 183.654,299.298 184.272,298.961 184.609C297.697 185.985,296.546 187.36,295.367 188.821C294.272 187.726,293.261 186.63,292.278 185.479C291.997 185.114,291.716 184.693,291.267 184.581C291.042 184.496,290.762 184.216,290.509 184.216C290.396 184.216,290.312 184.272,290.2 184.412C289.975 184.665,289.863 184.918,289.863 185.142C289.863 185.339,289.975 185.591,290.2 185.872C291.323 187.248,292.502 188.54,293.738 189.803C293.906 189.972,294.019 190.084,294.187 190.197C292.699 191.853,291.127 193.426,289.863 195.307C289.751 195.532,289.582 195.7,289.582 195.953C289.582 195.981,289.582 196.065,289.61 196.093C289.694 196.346,289.975 196.234,290.228 196.318"/></g></g><g class="vf-stavenote" id="vf-auto24024"><g class="vf-notehead" id="vf-auto24027" pointer-events="bounding-box"><path stroke="none" d="M316.07 170.784C317.868 170.813,319.356 170.504,320.732 169.577C321.574 168.959,322.501 168.426,323.399 167.864C323.961 167.499,324.579 167.134,325.168 166.769C326.432 167.696,327.724 168.594,329.015 169.521C329.577 169.886,330.082 170.504,330.756 170.504C330.869 170.504,331.009 170.504,331.121 170.419C332.132 170.448,333.031 170.082,333.901 169.886C334.182 169.802,334.547 169.858,334.547 169.437C334.547 169.24,334.266 169.128,334.126 169.015C332.329 167.752,330.504 166.46,328.706 165.253L328.201 164.888C330.279 163.624,332.385 162.332,334.35 160.928C334.547 160.788,335.052 160.76,335.052 160.395L335.052 160.283C334.968 159.861,334.519 159.581,334.126 159.496C333.424 159.328,332.694 159.187,332.02 159.187C331.121 159.187,330.223 159.384,329.408 160.03C328.061 161.069,326.544 161.967,325.056 162.866C323.849 162.08,322.641 161.293,321.49 160.395C320.395 159.581,319.272 159.3,318.008 159.216C317.446 159.187,316.604 159.187,316.435 159.609C316.211 160.142,316.969 160.563,317.362 160.872C318.991 162.136,320.619 163.371,322.276 164.607C319.749 166.179,317.278 167.752,315.031 169.605C314.919 169.717,314.582 169.774,314.582 170.026C314.582 170.054,314.582 170.139,314.61 170.139C314.751 170.419,314.919 170.728,315.312 170.728C315.621 170.784,315.958 170.784,316.07 170.784M331.739 169.97C329.465 168.313,327.274 166.769,325.14 165.253L319.187 169.015C318.71 169.324,318.233 169.605,317.502 169.605C317.278 169.605,317.081 169.605,316.885 169.521C318.429 168.51,319.721 167.668,321.041 166.825L324.326 164.663C324.157 164.551,323.961 164.382,323.764 164.27L320.086 161.602C319.749 161.406,319.44 161.153,319.159 160.872C318.906 160.676,318.513 160.423,318.513 160.142C318.513 160.058,318.541 160.03,318.598 159.946C318.906 159.552,319.272 160.114,319.608 160.339L325.028 164.242L330.475 160.704C330.869 160.479,331.318 160.226,331.795 160.198C332.104 160.198,332.413 160.114,332.413 160.507C332.413 160.704,332.16 160.788,332.02 160.872L326.628 164.326C326.348 164.466,326.067 164.635,325.814 164.832C327.387 165.983,328.987 167.106,330.56 168.285C331.093 168.65,331.655 169.015,331.739 169.97"/></g></g><g class="vf-stavenote" id="vf-auto24028"><g class="vf-stem" id="vf-auto24029" pointer-events="bounding-box"><path stroke-width="1.5" fill="none" d="M352.34 161L352.34 130"/></g><g class="vf-notehead" id="vf-auto24031" pointer-events="bounding-box"><path stroke="none" d="M349.833 170.869C350.254 170.813,350.703 170.813,351.209 170.813C351.799 170.813,352.444 170.869,353.09 170.869C352.978 170.7,352.922 170.588,352.866 170.504L347.474 165.534L351.237 161.35C351.405 161.209,351.434 161.069,351.434 160.956C351.434 160.844,351.321 160.704,351.125 160.62C350.619 160.339,350.198 160.058,349.777 159.609C349.299 159.131,348.541 158.907,347.755 158.907C346.744 158.907,345.733 159.272,345.144 159.946L343.487 161.771C343.262 161.574,343.038 161.322,342.785 161.125C341.128 159.496,339.106 159.384,337 159.468C336.72 159.468,336.242 159.581,336.158 159.777C336.046 160.114,336.355 160.423,336.607 160.676C338.011 161.995,339.443 163.343,340.875 164.663C339.443 166.264,338.011 167.836,336.607 169.409C336.467 169.577,336.074 169.661,336.074 169.97C336.074 170.026,336.074 170.054,336.102 170.082C336.326 170.532,336.692 170.7,337.169 170.7L341.297 170.7C341.409 170.672,341.493 170.616,341.606 170.672L342.055 170.672C342.476 170.672,342.981 170.588,343.431 170.054L344.891 168.426C346.267 169.774,347.643 171.065,349.833 170.869M348.289 169.156C346.716 168.145,345.537 166.938,344.245 165.842L342.055 168.313C341.886 168.51,341.746 168.847,341.409 168.847C340.932 168.65,340.398 168.566,340.145 168.117C339.921 167.752,340.314 167.471,340.567 167.218C341.24 166.348,342.027 165.449,342.757 164.551C341.802 163.793,340.932 162.978,340.033 162.22L339.556 161.715C339.471 161.602,339.303 161.434,339.303 161.293C339.303 161.237,339.359 161.153,339.387 161.153C339.64 160.872,339.865 161.125,340.033 161.293L343.178 163.989C344.077 162.894,344.919 161.855,345.818 160.788C346.014 160.507,346.267 160.423,346.463 160.395C346.8 160.395,347.109 160.62,347.39 160.928C347.643 161.069,347.755 161.293,347.755 161.434C347.755 161.687,347.643 161.883,347.446 162.136L344.694 165.281C345.705 166.179,346.716 167.05,347.671 167.948C348.008 168.229,348.317 168.51,348.289 169.156"/></g></g><g class="vf-stavenote" id="vf-auto24032"><g class="vf-stem" id="vf-auto24033" pointer-events="bounding-box"><path stroke-width="1.5" fill="none" d="M377.34 161L377.34 130"/></g><g class="vf-notehead" id="vf-auto24035" pointer-events="bounding-box"><path stroke="none" d="M367.055 171.318C367.532 171.262,367.981 171.15,368.346 170.728C368.992 170.054,369.638 169.409,370.256 168.678L372.278 166.404C373.822 167.836,375.423 169.156,376.995 170.532C377.192 170.7,377.444 170.897,377.725 170.897L377.866 170.897C378.09 170.813,378.09 170.588,378.09 170.391L378.09 170.223C378.09 169.802,378.006 169.437,377.725 169.156C377.192 168.51,376.714 167.836,376.068 167.274C375.17 166.544,374.328 165.814,373.485 165.028C374.749 163.624,375.956 162.164,376.995 160.591C377.276 160.226,377.697 159.749,377.697 159.328C377.697 159.187,377.641 159.019,377.501 158.907C377.332 158.738,377.136 158.654,376.967 158.654C376.518 158.654,376.125 159.272,375.788 159.609C374.524 160.985,373.373 162.36,372.193 163.821C371.098 162.726,370.087 161.63,369.105 160.479C368.824 160.114,368.543 159.693,368.094 159.581C367.869 159.496,367.588 159.216,367.336 159.216C367.223 159.216,367.139 159.272,367.027 159.412C366.802 159.665,366.69 159.918,366.69 160.142C366.69 160.339,366.802 160.591,367.027 160.872C368.15 162.248,369.329 163.54,370.565 164.803C370.733 164.972,370.846 165.084,371.014 165.197C369.526 166.853,367.953 168.426,366.69 170.307C366.577 170.532,366.409 170.7,366.409 170.953C366.409 170.981,366.409 171.065,366.437 171.093C366.521 171.346,366.802 171.234,367.055 171.318"/></g></g><g class="vf-stavenote" id="vf-auto24036"><g class="vf-stem" id="vf-auto24037" pointer-events="bounding-box"><path stroke-width="1.5" fill="none" d="M402.34 165L402.34 130"/></g><g class="vf-notehead" id="vf-auto24039" pointer-events="bounding-box"><path stroke="none" d="M391.971 170.897C393.038 171.795,394.414 172.245,395.818 172.245C397.755 172.245,399.693 171.458,400.928 170.139C402.529 168.37,403.09 166.348,403.09 164.073C403.09 163.736,403.062 163.456,403.062 163.147C402.866 159.861,400.563 157.812,397.671 157.924C396.548 158.008,395.424 158.036,394.273 158.177C392.785 158.373,391.409 158.85,390.482 160.198C389.584 161.434,389.191 162.95,389.191 164.466C389.191 166.909,390.173 169.38,391.971 170.897M396.07 163.821L392.673 160.62C393.262 160.339,393.964 160.142,394.807 160.058C396.07 159.918,397.362 159.833,398.654 159.861C399.047 159.861,399.412 159.946,399.777 160.058C398.541 161.322,397.278 162.585,396.07 163.821M400.198 167.78L397.193 164.916L400.423 161.602C400.675 161.322,400.928 161.069,400.928 160.676C401.77 161.35,402.248 162.36,402.248 163.596C402.164 165.477,401.518 167.05,400.563 168.145M391.69 168.37C390.763 167.303,390.538 166.179,390.538 165C390.538 164.017,390.847 162.866,391.69 161.855C391.886 161.883,392.055 161.967,392.251 162.164L395.087 164.803L394.442 165.477C393.431 166.488,392.701 167.303,391.69 168.37M394.133 170.139C393.627 170.026,393.15 169.802,392.757 169.577L396.267 165.899L399.636 169.044C398.569 169.858,397.193 170.307,395.733 170.307C395.228 170.307,394.694 170.251,394.133 170.139"/></g></g></svg>