<svg xmlns="http://www.w3.org/2000/svg" stroke-width="0.3" stroke-dasharray="none" fill="black" stroke="black" font-family="Arial, sans-serif" font-size="10pt" font-weight="normal" font-style="normal" width="975" height="150" viewBox="0 0 975 150" style="width: 975px; height: 150px; border: none;"><g class="vf-stave" id="vf-auto35929" stroke-width="1" fill="#999999" stroke="#999999"><path fill="none" d="M10 50L985 50"/><path fill="none" d="M10 60L985 60"/><path fill="none" d="M10 70L985 70"/><path fill="none" d="M10 80L985 80"/><path fill="none" d="M10 90L985 90"/></g><g class="vf-stavebarline" id="vf-auto35930"><rect x="10" y="49.5" width="1" height="41" stroke="none"/></g><g class="vf-stavebarline" id="vf-auto35931"><rect x="985" y="49.5" width="1" height="41" stroke="none"/></g><g class="vf-stavenote" id="vf-auto35932"><path stroke-width="1.4" fill="none" stroke="#444" d="M24 100L43.508 100"/><path stroke-width="1.4" fill="none" stroke="#444" d="M24 110L43.508 110"/><path stroke-width="1.4" fill="none" stroke="#444" d="M24 120L43.508 120"/><g class="vf-stem" id="vf-auto35933" pointer-events="bounding-box"><path stroke-width="1.5" fill="none" d="M39.758 123L39.758 70"/></g><g class="vf-notehead" id="vf-auto35935" pointer-events="bounding-box"><path stroke="none" d="M30.145 131.543C30.426 131.599,30.678 131.627,30.959 131.627C34.834 131.627,40.619 126.348,40.506 122.08C40.394 121.041,40.422 119.609,38.316 118.766C37.727 118.485,37.081 118.373,36.379 118.373C32.054 118.373,27.365 123.343,27.028 126.657C27.028 126.909,27 127.134,27 127.387C27 129.409,27.899 131.037,30.145 131.543"/></g></g><g class="vf-stavenote" id="vf-auto35936"><path stroke-width="1.4" fill="none" stroke="#444" d="M59.985 100L79.493 100"/><path stroke-width="1.4" fill="none" stroke="#444" d="M59.985 110L79.493 110"/><path stroke-width="1.4" fill="none" stroke="#444" d="M59.985 120L79.493 120"/><g class="vf-stem" id="vf-auto35937" pointer-events="bounding-box"><path stroke-width="1.5" fill="none" d="M75.743 118L75.743 73"/></g><g class="vf-notehead" id="vf-auto35940" pointer-events="bounding-box"><path stroke="none" d="M66.13 126.543C66.41 126.599,66.663 126.627,66.944 126.627C70.819 126.627,76.603 121.348,76.491 117.08C76.379 116.041,76.407 114.609,74.301 113.766C73.711 113.485,73.065 113.373,72.363 113.373C68.039 113.373,63.35 118.343,63.013 121.657C63.013 121.909,62.985 122.134,62.985 122.387C62.985 124.409,63.883 126.037,66.13 126.543"/></g><path stroke="none" d="M82.434 100.882C83.445 99.73,84.428 98.523,84.849 97.063C85.354 95.49,85.551 93.918,85.551 92.345C85.551 91.278,85.467 90.239,85.298 89.2C84.821 85.747,83.726 82.602,81.535 79.85C80.581 78.642,79.654 77.379,78.671 76.171C77.548 74.711,76.846 73.391,76.818 71.51C76.818 71.145,76.734 70.555,76.734 70.106C76.734 69.376,76.453 68.674,76.172 68L75.976 68C75.161 68.365,74.993 69.011,74.993 69.769L74.993 72.044C74.993 75.16,75.807 77.996,77.688 80.496C78.475 81.422,79.205 82.433,79.963 83.36C81.9 85.662,83.361 88.246,83.641 91.334C83.698 91.896,83.894 92.458,83.894 92.991C83.894 93.272,83.838 93.553,83.726 93.806C83.333 94.676,82.911 95.631,82.181 96.22C81.535 96.754,81.395 97.344,81.395 97.989C81.395 98.326,81.423 98.691,81.451 99.056C81.507 99.59,81.704 100.095,81.732 100.629C81.788 100.966,81.9 101.106,82.041 101.106C82.153 101.106,82.266 101.022,82.434 100.882"/></g><g class="vf-stavenote" id="vf-auto35942"><path stroke-width="1.4" fill="none" stroke="#444" d="M94.923 100L114.431 100"/><path stroke-width="1.4" fill="none" stroke="#444" d="M94.923 110L114.431 110"/><g class="vf-stem" id="vf-auto35943" pointer-events="bounding-box"><path stroke-width="1.5" fill="none" d="M110.681 113L110.681 70"/></g><g class="vf-notehead" id="vf-auto35945" pointer-events="bounding-box"><path stroke="none" d="M101.068 121.543C101.348 121.599,101.601 121.627,101.882 121.627C105.757 121.627,111.541 116.348,111.429 112.08C111.317 111.041,111.345 109.609,109.239 108.766C108.649 108.485,108.003 108.373,107.301 108.373C102.977 108.373,98.288 113.343,97.951 116.657C97.951 116.909,97.923 117.134,97.923 117.387C97.923 119.409,98.821 121.037,101.068 121.543"/></g></g><g class="vf-stavenote" id="vf-auto35946"><path stroke-width="1.4" fill="none" stroke="#444" d="M130.907 100L150.415 100"/><path stroke-width="1.4" fill="none" stroke="#444" d="M130.907 110L150.415 110"/><g class="vf-stem" id="vf-auto35947" pointer-events="bounding-box"><path stroke-width="1.5" fill="none" d="M146.665 108L146.665 73"/></g><g class="vf-notehead" id="vf-auto35950" pointer-events="bounding-box"><path stroke="none" d="M137.052 116.543C137.333 116.599,137.586 116.627,137.867 116.627C141.742 116.627,147.526 111.348,147.414 107.08C147.301 106.041,147.33 104.609,145.224 103.766C144.634 103.485,143.988 103.373,143.286 103.373C138.962 103.373,134.272 108.343,133.935 111.657C133.935 111.909,133.907 112.134,133.907 112.387C133.907 114.409,134.806 116.037,137.052 116.543"/></g><path stroke="none" d="M153.357 100.882C154.368 99.73,155.35 98.523,155.772 97.063C156.277 95.49,156.474 93.918,156.474 92.345C156.474 91.278,156.389 90.239,156.221 89.2C155.743 85.747,154.648 82.602,152.458 79.85C151.503 78.642,150.577 77.379,149.594 76.171C148.471 74.711,147.769 73.391,147.741 71.51C147.741 71.145,147.656 70.555,147.656 70.106C147.656 69.376,147.376 68.674,147.095 68L146.898 68C146.084 68.365,145.915 69.011,145.915 69.769L145.915 72.044C145.915 75.16,146.73 77.996,148.611 80.496C149.397 81.422,150.127 82.433,150.886 83.36C152.823 85.662,154.283 88.246,154.564 91.334C154.62 91.896,154.817 92.458,154.817 92.991C154.817 93.272,154.761 93.553,154.648 93.806C154.255 94.676,153.834 95.631,153.104 96.22C152.458 96.754,152.318 97.344,152.318 97.989C152.318 98.326,152.346 98.691,152.374 99.056C152.43 99.59,152.627 100.095,152.655 100.629C152.711 100.966,152.823 101.106,152.964 101.106C153.076 101.106,153.188 101.022,153.357 100.882"/></g><g class="vf-stavenote" id="vf-auto35952"><path stroke-width="1.4" fill="none" stroke="#444" d="M165.845 100L185.353 100"/><g class="vf-stem" id="vf-auto35953" pointer-events="bounding-box"><path stroke-width="1.5" fill="none" d="M181.603 103L181.603 70"/></g><g class="vf-notehead" id="vf-auto35955" pointer-events="bounding-box"><path stroke="none" d="M171.99 111.543C172.271 111.599,172.524 111.627,172.805 111.627C176.68 111.627,182.464 106.348,182.352 102.08C182.239 101.041,182.268 99.609,180.162 98.766C179.572 98.485,178.926 98.373,178.224 98.373C173.9 98.373,169.21 103.343,168.873 106.657C168.873 106.909,168.845 107.134,168.845 107.387C168.845 109.409,169.744 111.037,171.99 111.543"/></g></g><g class="vf-stavenote" id="vf-auto35956"><path stroke-width="1.4" fill="none" stroke="#444" d="M201.83 100L221.338 100"/><g class="vf-stem" id="vf-auto35957" pointer-events="bounding-box"><path stroke-width="1.5" fill="none" d="M217.588 98L217.588 68"/></g><g class="vf-notehead" id="vf-auto35960" pointer-events="bounding-box"><path stroke="none" d="M207.975 106.543C208.256 106.599,208.508 106.627,208.789 106.627C212.664 106.627,218.449 101.348,218.336 97.08C218.224 96.041,218.252 94.609,216.146 93.766C215.557 93.485,214.911 93.373,214.209 93.373C209.884 93.373,205.195 98.343,204.858 101.657C204.858 101.909,204.83 102.134,204.83 102.387C204.83 104.409,205.729 106.037,207.975 106.543"/></g><path stroke="none" d="M224.279 95.882C225.29 94.73,226.273 93.523,226.694 92.063C227.2 90.49,227.396 88.918,227.396 87.345C227.396 86.278,227.312 85.239,227.143 84.2C226.666 80.747,225.571 77.602,223.381 74.85C222.426 73.642,221.499 72.379,220.517 71.171C219.393 69.711,218.691 68.391,218.663 66.51C218.663 66.145,218.579 65.555,218.579 65.106C218.579 64.376,218.298 63.674,218.017 63L217.821 63C217.007 63.365,216.838 64.011,216.838 64.769L216.838 67.044C216.838 70.16,217.652 72.996,219.534 75.496C220.32 76.422,221.05 77.433,221.808 78.36C223.746 80.662,225.206 83.246,225.487 86.334C225.543 86.896,225.739 87.458,225.739 87.991C225.739 88.272,225.683 88.553,225.571 88.806C225.178 89.676,224.757 90.631,224.027 91.22C223.381 91.754,223.24 92.344,223.24 92.989C223.24 93.326,223.268 93.691,223.296 94.056C223.353 94.59,223.549 95.095,223.577 95.629C223.633 95.966,223.746 96.106,223.886 96.106C223.998 96.106,224.111 96.022,224.279 95.882"/></g><g class="vf-stavenote" id="vf-auto35962"><g class="vf-stem" id="vf-auto35963" pointer-events="bounding-box"><path stroke-width="1.5" fill="none" d="M252.526 93L252.526 60"/></g><g class="vf-notehead" id="vf-auto35965" pointer-events="bounding-box"><path stroke="none" d="M242.913 101.543C243.194 101.599,243.446 101.627,243.727 101.627C247.602 101.627,253.387 96.348,253.274 92.08C253.162 91.041,253.19 89.609,251.084 88.766C250.494 88.485,249.849 88.373,249.147 88.373C244.822 88.373,240.133 93.343,239.796 96.657C239.796 96.909,239.768 97.134,239.768 97.387C239.768 99.409,240.666 101.037,242.913 101.543"/></g></g><g class="vf-stavenote" id="vf-auto35966"><g class="vf-stem" id="vf-auto35967" pointer-events="bounding-box"><path stroke-width="1.5" fill="none" d="M288.511 88L288.511 58"/></g><g class="vf-notehead" id="vf-auto35970" pointer-events="bounding-box"><path stroke="none" d="M278.898 96.543C279.178 96.599,279.431 96.627,279.712 96.627C283.587 96.627,289.371 91.348,289.259 87.08C289.147 86.041,289.175 84.609,287.069 83.766C286.479 83.485,285.833 83.373,285.131 83.373C280.807 83.373,276.118 88.343,275.781 91.657C275.781 91.909,275.753 92.134,275.753 92.387C275.753 94.409,276.651 96.037,278.898 96.543"/></g><path stroke="none" d="M295.202 85.882C296.213 84.73,297.196 83.523,297.617 82.063C298.122 80.49,298.319 78.918,298.319 77.345C298.319 76.278,298.235 75.239,298.066 74.2C297.589 70.747,296.494 67.602,294.303 64.85C293.349 63.642,292.422 62.379,291.439 61.171C290.316 59.711,289.614 58.391,289.586 56.51C289.586 56.145,289.502 55.555,289.502 55.106C289.502 54.376,289.221 53.674,288.94 53L288.744 53C287.929 53.365,287.761 54.011,287.761 54.769L287.761 57.044C287.761 60.16,288.575 62.996,290.456 65.496C291.243 66.422,291.973 67.433,292.731 68.36C294.668 70.662,296.129 73.246,296.409 76.334C296.466 76.896,296.662 77.458,296.662 77.991C296.662 78.272,296.606 78.553,296.494 78.806C296.1 79.676,295.679 80.631,294.949 81.22C294.303 81.754,294.163 82.344,294.163 82.989C294.163 83.326,294.191 83.691,294.219 84.056C294.275 84.59,294.472 85.095,294.5 85.629C294.556 85.966,294.668 86.106,294.809 86.106C294.921 86.106,295.033 86.022,295.202 85.882"/></g><g class="vf-stavenote" id="vf-auto35972"><g class="vf-stem" id="vf-auto35973" pointer-events="bounding-box"><path stroke-width="1.5" fill="none" d="M323.449 83L323.449 50"/></g><g class="vf-notehead" id="vf-auto35975" pointer-events="bounding-box"><path stroke="none" d="M313.836 91.543C314.116 91.599,314.369 91.627,314.65 91.627C318.525 91.627,324.309 86.348,324.197 82.08C324.085 81.041,324.113 79.609,322.007 78.766C321.417 78.485,320.771 78.373,320.069 78.373C315.745 78.373,311.056 83.343,310.719 86.657C310.719 86.909,310.691 87.134,310.691 87.387C310.691 89.409,311.589 91.037,313.836 91.543"/></g></g><g class="vf-stavenote" id="vf-auto35976"><g class="vf-stem" id="vf-auto35977" pointer-events="bounding-box"><path stroke-width="1.5" fill="none" d="M359.433 78L359.433 48"/></g><g class="vf-notehead" id="vf-auto35980" pointer-events="bounding-box"><path stroke="none" d="M349.82 86.543C350.101 86.599,350.354 86.627,350.635 86.627C354.51 86.627,360.294 81.348,360.182 77.08C360.069 76.041,360.097 74.609,357.991 73.766C357.402 73.485,356.756 73.373,356.054 73.373C351.73 73.373,347.04 78.343,346.703 81.657C346.703 81.909,346.675 82.134,346.675 82.387C346.675 84.409,347.574 86.037,349.82 86.543"/></g><path stroke="none" d="M366.125 75.882C367.135 74.73,368.118 73.523,368.539 72.063C369.045 70.49,369.241 68.918,369.241 67.345C369.241 66.278,369.157 65.239,368.989 64.2C368.511 60.747,367.416 57.602,365.226 54.85C364.271 53.642,363.345 52.379,362.362 51.171C361.239 49.711,360.537 48.391,360.509 46.51C360.509 46.145,360.424 45.555,360.424 45.106C360.424 44.376,360.144 43.674,359.863 43L359.666 43C358.852 43.365,358.683 44.011,358.683 44.769L358.683 47.044C358.683 50.16,359.498 52.996,361.379 55.496C362.165 56.422,362.895 57.433,363.654 58.36C365.591 60.662,367.051 63.246,367.332 66.334C367.388 66.896,367.585 67.458,367.585 67.991C367.585 68.272,367.529 68.553,367.416 68.806C367.023 69.676,366.602 70.631,365.872 71.22C365.226 71.754,365.086 72.344,365.086 72.989C365.086 73.326,365.114 73.691,365.142 74.056C365.198 74.59,365.394 75.095,365.423 75.629C365.479 75.966,365.591 76.106,365.731 76.106C365.844 76.106,365.956 76.022,366.125 75.882"/></g><g class="vf-stavenote" id="vf-auto35982"><g class="vf-stem" id="vf-auto35983" pointer-events="bounding-box"><path stroke-width="1.5" fill="none" d="M382.363 52L382.363 85"/></g><g class="vf-notehead" id="vf-auto35985" pointer-events="bounding-box"><path stroke="none" d="M384.758 56.543C385.039 56.599,385.292 56.627,385.572 56.627C389.448 56.627,395.232 51.348,395.12 47.08C395.007 46.041,395.035 44.609,392.929 43.766C392.34 43.485,391.694 43.373,390.992 43.373C386.668 43.373,381.978 48.343,381.641 51.657C381.641 51.909,381.613 52.134,381.613 52.387C381.613 54.409,382.512 56.037,384.758 56.543"/></g></g><g class="vf-stavenote" id="vf-auto35986"><g class="vf-stem" id="vf-auto35987" pointer-events="bounding-box"><path stroke-width="1.5" fill="none" d="M418.348 47L418.348 77"/></g><g class="vf-notehead" id="vf-auto35990" pointer-events="bounding-box"><path stroke="none" d="M420.743 51.543C421.024 51.599,421.276 51.627,421.557 51.627C425.432 51.627,431.217 46.348,431.104 42.08C430.992 41.041,431.02 39.609,428.914 38.766C428.324 38.485,427.679 38.373,426.977 38.373C422.652 38.373,417.963 43.343,417.626 46.657C417.626 46.909,417.598 47.134,417.598 47.387C417.598 49.409,418.496 51.037,420.743 51.543"/></g><path stroke="none" d="M425.039 49.118C424.871 48.978,424.758 48.894,424.646 48.894C424.506 48.894,424.393 49.034,424.337 49.371C424.309 49.905,424.112 50.41,424.056 50.944C424.028 51.309,424 51.674,424 52.011C424 52.656,424.141 53.246,424.786 53.78C425.516 54.369,425.938 55.324,426.331 56.194C426.443 56.447,426.499 56.728,426.499 57.009C426.499 57.542,426.303 58.104,426.247 58.666C425.966 61.754,424.506 64.338,422.568 66.64C421.81 67.567,421.08 68.578,420.294 69.504C418.412 72.004,417.598 74.84,417.598 77.956L417.598 80.231C417.598 80.989,417.766 81.635,418.581 82L418.777 82C419.058 81.326,419.339 80.624,419.339 79.894C419.339 79.445,419.255 79.08,419.255 78.715C419.283 76.861,420.153 75.289,421.276 73.829C422.259 72.621,423.186 71.358,424.141 70.15C426.331 67.398,427.426 64.253,427.903 60.8C428.072 59.761,428.156 58.722,428.156 57.655C428.156 56.082,427.959 54.51,427.454 52.937C427.033 51.477,426.05 50.27,425.039 49.118"/></g><g class="vf-stavenote" id="vf-auto35992"><path stroke-width="1.4" fill="none" stroke="#444" d="M449.536 40L469.044 40"/><g class="vf-stem" id="vf-auto35993" pointer-events="bounding-box"><path stroke-width="1.5" fill="none" d="M453.286 42L453.286 75"/></g><g class="vf-notehead" id="vf-auto35995" pointer-events="bounding-box"><path stroke="none" d="M455.681 46.543C455.962 46.599,456.214 46.627,456.495 46.627C460.37 46.627,466.155 41.348,466.042 37.08C465.93 36.041,465.958 34.609,463.852 33.766C463.262 33.485,462.617 33.373,461.915 33.373C457.59 33.373,452.901 38.343,452.564 41.657C452.564 41.909,452.536 42.134,452.536 42.387C452.536 44.409,453.434 46.037,455.681 46.543"/></g></g><g class="vf-stavenote" id="vf-auto35996"><path stroke-width="1.4" fill="none" stroke="#444" d="M485.521 40L505.029 40"/><g class="vf-stem" id="vf-auto35997" pointer-events="bounding-box"><path stroke-width="1.5" fill="none" d="M489.271 37L489.271 67"/></g><g class="vf-notehead" id="vf-auto36000" pointer-events="bounding-box"><path stroke="none" d="M491.665 41.543C491.946 41.599,492.199 41.627,492.48 41.627C496.355 41.627,502.139 36.348,502.027 32.08C501.915 31.041,501.943 29.609,499.837 28.766C499.247 28.485,498.601 28.373,497.899 28.373C493.575 28.373,488.886 33.343,488.549 36.657C488.549 36.909,488.521 37.134,488.521 37.387C488.521 39.409,489.419 41.037,491.665 41.543"/></g><path stroke="none" d="M495.962 39.118C495.793 38.978,495.681 38.894,495.569 38.894C495.428 38.894,495.316 39.034,495.26 39.371C495.232 39.905,495.035 40.41,494.979 40.944C494.951 41.309,494.923 41.674,494.923 42.011C494.923 42.656,495.063 43.246,495.709 43.78C496.439 44.369,496.86 45.324,497.253 46.194C497.366 46.447,497.422 46.728,497.422 47.009C497.422 47.542,497.225 48.104,497.169 48.666C496.888 51.754,495.428 54.338,493.491 56.64C492.733 57.567,492.002 58.578,491.216 59.504C489.335 62.004,488.521 64.84,488.521 67.956L488.521 70.231C488.521 70.989,488.689 71.635,489.503 72L489.7 72C489.981 71.326,490.261 70.624,490.261 69.894C490.261 69.445,490.177 69.08,490.177 68.715C490.205 66.861,491.076 65.289,492.199 63.829C493.182 62.621,494.108 61.358,495.063 60.15C497.253 57.398,498.349 54.253,498.826 50.8C498.994 49.761,499.079 48.722,499.079 47.655C499.079 46.082,498.882 44.51,498.377 42.937C497.955 41.477,496.973 40.27,495.962 39.118"/></g><g class="vf-stavenote" id="vf-auto36002"><path stroke-width="1.4" fill="none" stroke="#444" d="M520.458 40L539.967 40"/><path stroke-width="1.4" fill="none" stroke="#444" d="M520.458 30L539.967 30"/><g class="vf-stem" id="vf-auto36003" pointer-events="bounding-box"><path stroke-width="1.5" fill="none" d="M524.208 32L524.208 70"/></g><g class="vf-notehead" id="vf-auto36005" pointer-events="bounding-box"><path stroke="none" d="M526.603 36.543C526.884 36.599,527.137 36.627,527.418 36.627C531.293 36.627,537.077 31.348,536.965 27.08C536.853 26.041,536.881 24.609,534.775 23.766C534.185 23.485,533.539 23.373,532.837 23.373C528.513 23.373,523.824 28.343,523.487 31.657C523.487 31.909,523.458 32.134,523.458 32.387C523.458 34.409,524.357 36.037,526.603 36.543"/></g></g><g class="vf-stavenote" id="vf-auto36006"><path stroke-width="1.4" fill="none" stroke="#444" d="M556.443 40L575.951 40"/><path stroke-width="1.4" fill="none" stroke="#444" d="M556.443 30L575.951 30"/><g class="vf-stem" id="vf-auto36007" pointer-events="bounding-box"><path stroke-width="1.5" fill="none" d="M560.193 27L560.193 67"/></g><g class="vf-notehead" id="vf-auto36010" pointer-events="bounding-box"><path stroke="none" d="M562.588 31.543C562.869 31.599,563.122 31.627,563.402 31.627C567.277 31.627,573.062 26.348,572.95 22.08C572.837 21.041,572.865 19.609,570.759 18.766C570.17 18.485,569.524 18.373,568.822 18.373C564.498 18.373,559.808 23.343,559.471 26.657C559.471 26.909,559.443 27.134,559.443 27.387C559.443 29.409,560.342 31.037,562.588 31.543"/></g><path stroke="none" d="M566.884 39.118C566.716 38.978,566.604 38.894,566.491 38.894C566.351 38.894,566.239 39.034,566.182 39.371C566.154 39.905,565.958 40.41,565.902 40.944C565.873 41.309,565.845 41.674,565.845 42.011C565.845 42.656,565.986 43.246,566.632 43.78C567.362 44.369,567.783 45.324,568.176 46.194C568.288 46.447,568.345 46.728,568.345 47.009C568.345 47.542,568.148 48.104,568.092 48.666C567.811 51.754,566.351 54.338,564.413 56.64C563.655 57.567,562.925 58.578,562.139 59.504C560.257 62.004,559.443 64.84,559.443 67.956L559.443 70.231C559.443 70.989,559.612 71.635,560.426 72L560.623 72C560.903 71.326,561.184 70.624,561.184 69.894C561.184 69.445,561.1 69.08,561.1 68.715C561.128 66.861,561.998 65.289,563.122 63.829C564.104 62.621,565.031 61.358,565.986 60.15C568.176 57.398,569.271 54.253,569.749 50.8C569.917 49.761,570.001 48.722,570.001 47.655C570.001 46.082,569.805 44.51,569.299 42.937C568.878 41.477,567.895 40.27,566.884 39.118"/></g><g class="vf-stavenote" id="vf-auto36012"><path stroke-width="1.4" fill="none" stroke="#444" d="M591.381 40L610.889 40"/><path stroke-width="1.4" fill="none" stroke="#444" d="M591.381 30L610.889 30"/><path stroke-width="1.4" fill="none" stroke="#444" d="M591.381 20L610.889 20"/><g class="vf-stem" id="vf-auto36013" pointer-events="bounding-box"><path stroke-width="1.5" fill="none" d="M595.131 22L595.131 70"/></g><g class="vf-notehead" id="vf-auto36015" pointer-events="bounding-box"><path stroke="none" d="M597.526 26.543C597.807 26.599,598.06 26.627,598.34 26.627C602.215 26.627,608 21.348,607.888 17.08C607.775 16.041,607.803 14.609,605.697 13.766C605.108 13.485,604.462 13.373,603.76 13.373C599.436 13.373,594.746 18.343,594.409 21.657C594.409 21.909,594.381 22.134,594.381 22.387C594.381 24.409,595.28 26.037,597.526 26.543"/></g></g><g class="vf-stavenote" id="vf-auto36016"><path stroke-width="1.4" fill="none" stroke="#444" d="M627.366 40L646.874 40"/><path stroke-width="1.4" fill="none" stroke="#444" d="M627.366 30L646.874 30"/><path stroke-width="1.4" fill="none" stroke="#444" d="M627.366 20L646.874 20"/><g class="vf-stem" id="vf-auto36017" pointer-events="bounding-box"><path stroke-width="1.5" fill="none" d="M631.116 17L631.116 67"/></g><g class="vf-notehead" id="vf-auto36020" pointer-events="bounding-box"><path stroke="none" d="M633.511 21.543C633.792 21.599,634.044 21.627,634.325 21.627C638.2 21.627,643.985 16.348,643.872 12.08C643.76 11.041,643.788 9.609,641.682 8.766C641.092 8.485,640.447 8.373,639.745 8.373C635.42 8.373,630.731 13.343,630.394 16.657C630.394 16.909,630.366 17.134,630.366 17.387C630.366 19.409,631.264 21.037,633.511 21.543"/></g><path stroke="none" d="M637.807 39.118C637.639 38.978,637.526 38.894,637.414 38.894C637.273 38.894,637.161 39.034,637.105 39.371C637.077 39.905,636.88 40.41,636.824 40.944C636.796 41.309,636.768 41.674,636.768 42.011C636.768 42.656,636.908 43.246,637.554 43.78C638.284 44.369,638.706 45.324,639.099 46.194C639.211 46.447,639.267 46.728,639.267 47.009C639.267 47.542,639.071 48.104,639.014 48.666C638.734 51.754,637.273 54.338,635.336 56.64C634.578 57.567,633.848 58.578,633.061 59.504C631.18 62.004,630.366 64.84,630.366 67.956L630.366 70.231C630.366 70.989,630.534 71.635,631.349 72L631.545 72C631.826 71.326,632.107 70.624,632.107 69.894C632.107 69.445,632.023 69.08,632.023 68.715C632.051 66.861,632.921 65.289,634.044 63.829C635.027 62.621,635.954 61.358,636.908 60.15C639.099 57.398,640.194 54.253,640.671 50.8C640.84 49.761,640.924 48.722,640.924 47.655C640.924 46.082,640.727 44.51,640.222 42.937C639.801 41.477,638.818 40.27,637.807 39.118"/></g><g class="vf-stavenote" id="vf-auto36022"><path stroke-width="1.4" fill="none" stroke="#444" d="M662.304 40L681.812 40"/><path stroke-width="1.4" fill="none" stroke="#444" d="M662.304 30L681.812 30"/><path stroke-width="1.4" fill="none" stroke="#444" d="M662.304 20L681.812 20"/><path stroke-width="1.4" fill="none" stroke="#444" d="M662.304 10L681.812 10"/><g class="vf-stem" id="vf-auto36023" pointer-events="bounding-box"><path stroke-width="1.5" fill="none" d="M666.054 12L666.054 70"/></g><g class="vf-notehead" id="vf-auto36025" pointer-events="bounding-box"><path stroke="none" d="M668.449 16.543C668.73 16.599,668.982 16.627,669.263 16.627C673.138 16.627,678.923 11.348,678.81 7.08C678.698 6.041,678.726 4.609,676.62 3.766C676.03 3.485,675.384 3.373,674.682 3.373C670.358 3.373,665.669 8.343,665.332 11.657C665.332 11.909,665.304 12.134,665.304 12.387C665.304 14.409,666.202 16.037,668.449 16.543"/></g></g><g class="vf-stavenote" id="vf-auto36026"><path stroke-width="1.4" fill="none" stroke="#444" d="M698.288 40L717.797 40"/><path stroke-width="1.4" fill="none" stroke="#444" d="M698.288 30L717.797 30"/><path stroke-width="1.4" fill="none" stroke="#444" d="M698.288 20L717.797 20"/><path stroke-width="1.4" fill="none" stroke="#444" d="M698.288 10L717.797 10"/><g class="vf-stem" id="vf-auto36027" pointer-events="bounding-box"><path stroke-width="1.5" fill="none" d="M702.038 7L702.038 67"/></g><g class="vf-notehead" id="vf-auto36030" pointer-events="bounding-box"><path stroke="none" d="M704.433 11.543C704.714 11.599,704.967 11.627,705.248 11.627C709.123 11.627,714.907 6.348,714.795 2.08C714.683 1.041,714.711 -0.391,712.605 -1.234C712.015 -1.515,711.369 -1.627,710.667 -1.627C706.343 -1.627,701.653 3.343,701.317 6.657C701.317 6.909,701.288 7.134,701.288 7.387C701.288 9.409,702.187 11.037,704.433 11.543"/></g><path stroke="none" d="M708.73 39.118C708.561 38.978,708.449 38.894,708.337 38.894C708.196 38.894,708.084 39.034,708.028 39.371C708 39.905,707.803 40.41,707.747 40.944C707.719 41.309,707.691 41.674,707.691 42.011C707.691 42.656,707.831 43.246,708.477 43.78C709.207 44.369,709.628 45.324,710.021 46.194C710.134 46.447,710.19 46.728,710.19 47.009C710.19 47.542,709.993 48.104,709.937 48.666C709.656 51.754,708.196 54.338,706.259 56.64C705.5 57.567,704.77 58.578,703.984 59.504C702.103 62.004,701.288 64.84,701.288 67.956L701.288 70.231C701.288 70.989,701.457 71.635,702.271 72L702.468 72C702.749 71.326,703.029 70.624,703.029 69.894C703.029 69.445,702.945 69.08,702.945 68.715C702.973 66.861,703.844 65.289,704.967 63.829C705.95 62.621,706.876 61.358,707.831 60.15C710.021 57.398,711.116 54.253,711.594 50.8C711.762 49.761,711.847 48.722,711.847 47.655C711.847 46.082,711.65 44.51,711.145 42.937C710.723 41.477,709.741 40.27,708.73 39.118"/></g><g class="vf-stavenote" id="vf-auto36032"><path stroke-width="1.4" fill="none" stroke="#444" d="M733.226 100L754.597 100"/><path stroke-width="1.4" fill="none" stroke="#444" d="M733.226 110L754.597 110"/><path stroke-width="1.4" fill="none" stroke="#444" d="M733.226 120L754.597 120"/><g class="vf-notehead" id="vf-auto36035" pointer-events="bounding-box"><path stroke="none" d="M751.586 123.877C751.474 129.24,746.532 132.273,742.488 132.525C741.281 132.61,740.242 131.964,739.091 131.543L737.967 131.065C736.844 130.532,736.226 129.661,736.226 128.566C736.226 128.229,736.254 127.92,736.395 127.555C737.153 125.253,738.164 123.006,739.652 121.041C741 119.272,743.218 118.317,745.409 118.317C747.374 118.317,749.34 119.047,750.66 120.563C751.502 121.49,751.642 122.641,751.586 123.877M743.19 128.005C744.51 127.864,745.802 127.471,747.009 126.769C747.515 126.488,747.88 126.123,748.188 125.646C748.357 125.393,748.441 125.168,748.441 124.916C748.441 124.607,748.245 124.326,747.823 124.101C746.784 123.624,745.858 122.95,744.678 122.95C744.398 122.95,744.145 122.978,743.864 123.062C742.039 123.512,740.635 124.438,739.624 125.983C739.512 126.179,739.343 126.404,739.343 126.629C739.343 126.825,739.456 126.994,739.736 127.106C740.832 127.499,741.899 128.005,743.19 128.005"/></g></g><g class="vf-stavenote" id="vf-auto36036"><path stroke-width="1.4" fill="none" stroke="#444" d="M776.184 100L797.555 100"/><path stroke-width="1.4" fill="none" stroke="#444" d="M776.184 110L797.555 110"/><g class="vf-notehead" id="vf-auto36039" pointer-events="bounding-box"><path stroke="none" d="M794.544 108.877C794.432 114.24,789.489 117.273,785.446 117.525C784.238 117.61,783.2 116.964,782.048 116.543L780.925 116.065C779.802 115.532,779.184 114.661,779.184 113.566C779.184 113.229,779.212 112.92,779.353 112.555C780.111 110.253,781.122 108.006,782.61 106.041C783.958 104.272,786.176 103.317,788.366 103.317C790.332 103.317,792.297 104.047,793.617 105.563C794.46 106.49,794.6 107.641,794.544 108.877M786.148 113.005C787.468 112.864,788.759 112.471,789.967 111.769C790.472 111.488,790.837 111.123,791.146 110.646C791.315 110.393,791.399 110.168,791.399 109.916C791.399 109.607,791.202 109.326,790.781 109.101C789.742 108.624,788.816 107.95,787.636 107.95C787.355 107.95,787.103 107.978,786.822 108.062C784.997 108.512,783.593 109.438,782.582 110.983C782.469 111.179,782.301 111.404,782.301 111.629C782.301 111.825,782.413 111.994,782.694 112.106C783.789 112.499,784.856 113.005,786.148 113.005"/></g></g><g class="vf-stavenote" id="vf-auto36040"><g class="vf-notehead" id="vf-auto36043" pointer-events="bounding-box"><path stroke="none" d="M837.502 48.877C837.389 54.24,832.447 57.273,828.404 57.525C827.196 57.61,826.157 56.964,825.006 56.543L823.883 56.065C822.76 55.532,822.142 54.661,822.142 53.566C822.142 53.229,822.17 52.92,822.31 52.555C823.068 50.253,824.079 48.006,825.568 46.041C826.915 44.272,829.134 43.317,831.324 43.317C833.29 43.317,835.255 44.047,836.575 45.563C837.417 46.49,837.558 47.641,837.502 48.877M829.106 53.005C830.425 52.864,831.717 52.471,832.924 51.769C833.43 51.488,833.795 51.123,834.104 50.646C834.272 50.393,834.357 50.168,834.357 49.916C834.357 49.607,834.16 49.326,833.739 49.101C832.7 48.624,831.773 47.95,830.594 47.95C830.313 47.95,830.06 47.978,829.78 48.062C827.954 48.512,826.55 49.438,825.539 50.983C825.427 51.179,825.259 51.404,825.259 51.629C825.259 51.825,825.371 51.994,825.652 52.106C826.747 52.499,827.814 53.005,829.106 53.005"/></g></g><g class="vf-stavenote" id="vf-auto36044"><path stroke-width="1.4" fill="none" stroke="#444" d="M862.099 40L883.47 40"/><g class="vf-notehead" id="vf-auto36047" pointer-events="bounding-box"><path stroke="none" d="M880.459 38.877C880.347 44.24,875.405 47.273,871.361 47.525C870.154 47.61,869.115 46.964,867.964 46.543L866.84 46.065C865.717 45.532,865.099 44.661,865.099 43.566C865.099 43.229,865.128 42.92,865.268 42.555C866.026 40.253,867.037 38.006,868.525 36.041C869.873 34.272,872.091 33.317,874.282 33.317C876.247 33.317,878.213 34.047,879.533 35.563C880.375 36.49,880.515 37.641,880.459 38.877M872.063 43.005C873.383 42.864,874.675 42.471,875.882 41.769C876.388 41.488,876.753 41.123,877.062 40.646C877.23 40.393,877.314 40.168,877.314 39.916C877.314 39.607,877.118 39.326,876.696 39.101C875.658 38.624,874.731 37.95,873.552 37.95C873.271 37.95,873.018 37.978,872.737 38.062C870.912 38.512,869.508 39.438,868.497 40.983C868.385 41.179,868.216 41.404,868.216 41.629C868.216 41.825,868.329 41.994,868.609 42.106C869.705 42.499,870.772 43.005,872.063 43.005"/></g></g><g class="vf-stavenote" id="vf-auto36048"><path stroke-width="1.4" fill="none" stroke="#444" d="M905.057 40L926.428 40"/><path stroke-width="1.4" fill="none" stroke="#444" d="M905.057 30L926.428 30"/><g class="vf-notehead" id="vf-auto36051" pointer-events="bounding-box"><path stroke="none" d="M923.417 23.877C923.305 29.24,918.363 32.273,914.319 32.525C913.112 32.61,912.073 31.964,910.921 31.543L909.798 31.065C908.675 30.532,908.057 29.661,908.057 28.566C908.057 28.229,908.085 27.92,908.226 27.555C908.984 25.253,909.995 23.006,911.483 21.041C912.831 19.272,915.049 18.317,917.239 18.317C919.205 18.317,921.171 19.047,922.49 20.563C923.333 21.49,923.473 22.641,923.417 23.877M915.021 28.005C916.341 27.864,917.632 27.471,918.84 26.769C919.345 26.488,919.71 26.123,920.019 25.646C920.188 25.393,920.272 25.168,920.272 24.916C920.272 24.607,920.075 24.326,919.654 24.101C918.615 23.624,917.689 22.95,916.509 22.95C916.228 22.95,915.976 22.978,915.695 23.062C913.87 23.512,912.466 24.438,911.455 25.983C911.343 26.179,911.174 26.404,911.174 26.629C911.174 26.825,911.286 26.994,911.567 27.106C912.662 27.499,913.729 28.005,915.021 28.005"/></g></g><g class="vf-stavenote" id="vf-auto36052"><path stroke-width="1.4" fill="none" stroke="#444" d="M948.015 40L969.385 40"/><path stroke-width="1.4" fill="none" stroke="#444" d="M948.015 30L969.385 30"/><path stroke-width="1.4" fill="none" stroke="#444" d="M948.015 20L969.385 20"/><path stroke-width="1.4" fill="none" stroke="#444" d="M948.015 10L969.385 10"/><g class="vf-notehead" id="vf-auto36055" pointer-events="bounding-box"><path stroke="none" d="M966.375 3.877C966.262 9.24,961.32 12.273,957.277 12.525C956.069 12.61,955.03 11.964,953.879 11.543L952.756 11.065C951.633 10.532,951.015 9.661,951.015 8.566C951.015 8.229,951.043 7.92,951.183 7.555C951.941 5.253,952.952 3.006,954.441 1.041C955.788 -0.728,958.007 -1.683,960.197 -1.683C962.163 -1.683,964.128 -0.953,965.448 0.563C966.29 1.49,966.431 2.641,966.375 3.877M957.979 8.005C959.298 7.864,960.59 7.471,961.798 6.769C962.303 6.488,962.668 6.123,962.977 5.646C963.145 5.393,963.23 5.168,963.23 4.916C963.23 4.607,963.033 4.326,962.612 4.101C961.573 3.624,960.646 2.95,959.467 2.95C959.186 2.95,958.933 2.978,958.653 3.062C956.827 3.512,955.423 4.438,954.413 5.983C954.3 6.179,954.132 6.404,954.132 6.629C954.132 6.825,954.244 6.994,954.525 7.106C955.62 7.499,956.687 8.005,957.979 8.005"/></g></g></svg>