<svg xmlns="http://www.w3.org/2000/svg" stroke-width="0.3" stroke-dasharray="none" fill="black" stroke="black" font-family="Arial, sans-serif" font-size="10pt" font-weight="normal" font-style="normal" width="800" height="150" viewBox="0 0 800 150" style="width: 800px; height: 150px; border: none;"><g class="vf-stave" id="vf-auto17305" stroke-width="1" fill="#999999" stroke="#999999"><path fill="none" d="M10 70L310 70"/><path fill="none" d="M10 80L310 80"/><path fill="none" d="M10 90L310 90"/><path fill="none" d="M10 100L310 100"/><path fill="none" d="M10 110L310 110"/></g><g class="vf-stavebarline" id="vf-auto17306"><rect x="10" y="69.5" width="1" height="41" stroke="none"/></g><g class="vf-stavebarline" id="vf-auto17307"><rect x="310" y="69.5" width="1" height="41" stroke="none"/></g><g class="vf-clef" id="vf-auto17308"><path stroke="none" d="M35.503 101.76C35.503 104.345,34.464 107.032,31.854 108.071C31.093 103.712,30.105 97.908,29.852 96.286C33.146 96.286,35.503 98.516,35.503 101.76M30.333 108.527C29.598 108.654,28.914 108.73,28.204 108.73C22.983 108.73,18.548 105.08,18.548 99.581C18.548 95.12,21.691 91.141,24.884 88.379C25.518 87.821,26.101 87.314,26.633 86.757C26.962 88.734,27.216 90.457,27.469 91.952C24.149 92.941,21.894 96.438,21.894 99.86C21.894 102.419,23.896 105.917,26.836 105.917C27.114 105.917,27.444 105.79,27.444 105.461C27.444 105.131,27.089 104.954,26.633 104.65C25.214 103.762,24.428 102.825,24.428 101.025C24.428 98.82,26.05 97.021,28.204 96.514M27.114 70.993C27.444 69.548,29.117 65.721,31.017 65.721C31.575 65.721,32.437 67.495,32.437 70.004C32.437 73.806,29.623 76.67,27.114 79.128C26.886 77.684,26.709 76.264,26.709 74.718C26.709 73.375,26.836 72.133,27.114 70.993M19.461 119.729C19.461 122.137,21.311 125.305,26.253 125.305C27.951 125.305,29.446 124.874,30.764 124.063C32.741 122.669,33.248 120.261,33.248 117.98C33.248 116.536,33.02 114.914,32.665 112.836C32.563 112.101,32.335 111.011,32.107 109.566C35.681 108.4,38.367 104.675,38.367 100.924C38.367 95.424,34.464 91.699,29.117 91.699C28.762 89.494,28.382 87.34,28.078 85.312C31.93 81.257,34.591 76.695,34.591 70.891C34.591 67.571,33.577 64.859,32.994 63.567C32.107 61.691,31.068 60.424,30.409 60.424C30.156 60.424,29.015 60.855,27.799 62.274C25.467 65.062,24.808 69.726,24.808 72.792C24.808 74.769,25.011 76.543,25.619 80.623C25.594 80.674,23.693 82.6,22.907 83.234C19.587 86.326,15 90.736,15 98.035C15 104.878,20.956 110.225,27.748 110.225C28.787 110.225,29.776 110.124,30.612 109.972C31.322 113.469,31.727 116.029,31.727 117.98C31.727 121.757,29.776 123.784,26.101 123.784C25.214 123.784,24.453 123.582,24.377 123.582C24.352 123.556,24.276 123.505,24.276 123.48C24.276 123.404,24.352 123.379,24.453 123.328C26.177 123.075,27.875 121.63,27.875 119.273C27.875 117.322,26.379 115.243,23.642 115.243C21.083 115.243,19.461 117.322,19.461 119.729"/></g><g class="vf-timesignature" id="vf-auto17309"><path stroke="none" d="M79.7 84.48L79.7 87.075L76.763 87.075C76.518 87.075,76.273 87.295,76.273 87.589L76.273 88.25C76.273 88.519,76.518 88.739,76.763 88.739L87.436 88.739C87.73 88.739,87.926 88.519,87.926 88.25L87.926 87.589C87.926 87.295,87.73 87.075,87.436 87.075L84.278 87.075L84.278 84.48L87.436 84.48C87.73 84.48,87.926 84.235,87.926 83.941L87.926 83.28C87.926 83.036,87.73 82.791,87.436 82.791L84.278 82.791L84.278 77.185C84.278 76.964,84.156 76.793,84.033 76.72L83.593 76.499C83.519 76.475,83.495 76.475,83.421 76.475C83.397 76.475,83.397 76.475,83.348 76.475C83.25 76.475,83.103 76.499,83.03 76.573L79.823 79.51C79.725 79.608,79.7 79.755,79.7 79.902L79.7 82.791L75.588 82.791C75.588 82.791,79.553 78.556,83.715 72.974C83.837 72.803,83.886 72.632,83.886 72.485C83.886 72.313,83.813 72.166,83.788 72.142L83.005 71.359C82.907 71.285,82.785 71.212,82.638 71.212C82.442 71.212,77.668 71.212,77.399 71.212C77.154 71.212,76.983 71.432,76.934 71.652C76.934 71.652,76.763 74.247,75.857 77.111C74.927 79.976,73.874 81.738,72.944 83.036C72.944 83.036,72.846 83.207,72.846 83.427C72.846 83.501,72.846 83.55,72.895 83.623C72.993 83.868,73.238 84.26,73.238 84.26C73.238 84.26,73.311 84.48,73.629 84.48"/><path stroke="none" d="M79.7 104.48L79.7 107.075L76.763 107.075C76.518 107.075,76.273 107.295,76.273 107.589L76.273 108.25C76.273 108.519,76.518 108.739,76.763 108.739L87.436 108.739C87.73 108.739,87.926 108.519,87.926 108.25L87.926 107.589C87.926 107.295,87.73 107.075,87.436 107.075L84.278 107.075L84.278 104.48L87.436 104.48C87.73 104.48,87.926 104.235,87.926 103.941L87.926 103.28C87.926 103.036,87.73 102.791,87.436 102.791L84.278 102.791L84.278 97.185C84.278 96.964,84.156 96.793,84.033 96.72L83.593 96.499C83.519 96.475,83.495 96.475,83.421 96.475C83.397 96.475,83.397 96.475,83.348 96.475C83.25 96.475,83.103 96.499,83.03 96.573L79.823 99.51C79.725 99.608,79.7 99.755,79.7 99.902L79.7 102.791L75.588 102.791C75.588 102.791,79.553 98.556,83.715 92.974C83.837 92.803,83.886 92.632,83.886 92.485C83.886 92.313,83.813 92.166,83.788 92.142L83.005 91.359C82.907 91.285,82.785 91.212,82.638 91.212C82.442 91.212,77.668 91.212,77.399 91.212C77.154 91.212,76.983 91.432,76.934 91.652C76.934 91.652,76.763 94.247,75.857 97.111C74.927 99.976,73.874 101.738,72.944 103.036C72.944 103.036,72.846 103.207,72.846 103.427C72.846 103.501,72.846 103.55,72.895 103.623C72.993 103.868,73.238 104.26,73.238 104.26C73.238 104.26,73.311 104.48,73.629 104.48"/></g><g class="vf-keysignature" id="vf-auto17313"><path stroke="none" d="M56.274 86.881C56.055 85.349,55.098 83.899,53.1 83.899C51.131 83.899,49.981 85.103,49.79 85.349L49.954 72.708C49.954 72.38,49.708 72.161,49.379 72.161L48.914 72.161C48.613 72.161,48.367 72.38,48.367 72.708L48.559 96.375C48.559 96.703,48.805 96.922,49.106 96.922C49.188 96.922,49.352 96.895,49.434 96.867C49.598 96.785,52.143 95.527,54.277 93.119C55.782 91.423,56.356 89.48,56.356 87.866C56.356 87.51,56.329 87.209,56.274 86.881M53.566 88.413C53.566 89.015,53.401 90.821,52.416 92.326C51.76 93.338,50.419 94.405,49.68 95.007L49.79 87.319C49.872 86.963,50.447 85.814,52.033 85.814C53.456 85.814,53.566 87.155,53.566 88.003C53.566 88.194,53.566 88.304,53.566 88.413"/></g><g class="vf-stavenote" id="vf-auto17315"><g class="vf-notehead" id="vf-auto17319" pointer-events="bounding-box"><path stroke-width="1.5" stroke="none" d="M105.015 100L105.015 91L120.015 80L120.015 90L105.015 100Z"/><g class="vf-annotation" id="vf-auto17361"><text stroke="none" font-family="Times" font-size="13pt" x="101.436" y="17.5">C7</text></g></g></g><g class="vf-stavenote" id="vf-auto17321"><g class="vf-notehead" id="vf-auto17325" pointer-events="bounding-box"><path stroke-width="1.5" stroke="none" d="M129.419 100L129.419 91L144.419 80L144.419 90L129.419 100Z"/></g></g><g class="vf-stavenote" id="vf-auto17327"><g class="vf-notehead" id="vf-auto17331" pointer-events="bounding-box"><path stroke="none" d="M166.768 86.125C166.88 86.041,166.965 85.872,166.965 85.704L166.965 85.676C166.965 85.507,166.88 85.395,166.796 85.311L166.319 84.833C166.206 84.749,166.066 84.665,165.926 84.665C165.785 84.665,165.617 84.693,165.561 84.777L160.422 88.877L155.227 84.777C155.171 84.693,155.002 84.665,154.862 84.665C154.722 84.665,154.637 84.749,154.497 84.833L153.992 85.311C153.907 85.395,153.823 85.563,153.823 85.704C153.823 85.872,153.907 86.041,154.02 86.125L158.962 90L154.02 93.875C153.907 93.959,153.823 94.128,153.823 94.296C153.823 94.409,153.907 94.577,153.992 94.661L154.469 95.167C154.553 95.307,154.722 95.335,154.862 95.335C155.002 95.335,155.171 95.307,155.227 95.223L160.422 91.123L165.561 95.223C165.617 95.307,165.785 95.335,165.926 95.335C166.066 95.335,166.234 95.307,166.319 95.167L166.796 94.661C166.88 94.577,166.965 94.409,166.965 94.296C166.965 94.128,166.88 93.959,166.768 93.875L161.826 90"/></g></g><g class="vf-stavenote" id="vf-auto17333"><g class="vf-notehead" id="vf-auto17337" pointer-events="bounding-box"><path stroke-width="1.5" stroke="none" d="M178.227 100L178.227 91L193.227 80L193.227 90L178.227 100Z"/></g></g><g class="vf-stavenote" id="vf-auto17339"><g class="vf-notehead" id="vf-auto17343" pointer-events="bounding-box"><path stroke="none" d="M215.576 86.125C215.689 86.041,215.773 85.872,215.773 85.704L215.773 85.676C215.773 85.507,215.689 85.395,215.604 85.311L215.127 84.833C215.015 84.749,214.874 84.665,214.734 84.665C214.594 84.665,214.425 84.693,214.369 84.777L209.23 88.877L204.035 84.777C203.979 84.693,203.811 84.665,203.67 84.665C203.53 84.665,203.446 84.749,203.305 84.833L202.8 85.311C202.716 85.395,202.631 85.563,202.631 85.704C202.631 85.872,202.716 86.041,202.828 86.125L207.77 90L202.828 93.875C202.716 93.959,202.631 94.128,202.631 94.296C202.631 94.409,202.716 94.577,202.8 94.661L203.277 95.167C203.362 95.307,203.53 95.335,203.67 95.335C203.811 95.335,203.979 95.307,204.035 95.223L209.23 91.123L214.369 95.223C214.425 95.307,214.594 95.335,214.734 95.335C214.874 95.335,215.043 95.307,215.127 95.167L215.604 94.661C215.689 94.577,215.773 94.409,215.773 94.296C215.773 94.128,215.689 93.959,215.576 93.875L210.634 90"/></g></g><g class="vf-stavenote" id="vf-auto17345"><g class="vf-notehead" id="vf-auto17349" pointer-events="bounding-box"><path stroke-width="1.5" stroke="none" d="M227.036 100L227.036 91L242.036 80L242.036 90L227.036 100Z"/></g></g><g class="vf-stavenote" id="vf-auto17351"><g class="vf-notehead" id="vf-auto17364" pointer-events="bounding-box"><path stroke="none" d="M257.533 88.006C261.212 88.006,262.728 85.479,262.896 85.198L261.38 91.292C260.51 93.398,258.965 96.093,256.607 96.739C257.056 96.178,257.168 95.532,257.168 94.802C257.168 93.201,255.876 92.134,254.304 92.134C252.731 92.134,251.44 93.37,251.44 94.97C251.44 97.076,253.209 98.087,255.371 98.087C257.505 98.087,259.19 96.908,260.425 95.223L256.747 110.246L257.842 110.498L267.221 72.085C267.249 72.057,267.249 71.973,267.249 71.916C267.249 71.692,267.08 71.523,266.856 71.439C266.8 71.411,266.715 71.411,266.687 71.411C266.435 71.411,266.266 71.551,266.154 71.776C265.396 73.461,263.542 75.848,261.577 76.325C262.082 75.735,262.194 75.118,262.194 74.388C262.194 72.843,260.931 71.692,259.358 71.692C257.786 71.692,256.466 72.899,256.466 74.584C256.466 75.82,257.337 76.971,258.432 77.336C258.965 77.532,259.527 77.617,260.173 77.673C260.341 77.673,260.51 77.673,260.706 77.617C262.672 77.504,264.3 76.381,265.424 74.809L263.851 81.295C263.037 83.317,261.296 86.153,259.049 86.715C259.527 86.125,259.639 85.507,259.639 84.777C259.639 83.177,258.319 82.081,256.747 82.081C255.146 82.081,253.911 83.317,253.911 84.946C253.911 86.855,255.736 88.006,257.533 88.006"/></g></g><g class="vf-stavenote" id="vf-auto17355"><g class="vf-notehead" id="vf-auto17359" pointer-events="bounding-box"><path stroke-width="1.5" stroke="none" d="M275.844 100L275.844 91L290.844 80L290.844 90L275.844 100Z"/></g></g><g class="vf-stem" id="vf-auto17316" pointer-events="bounding-box"><path stroke-width="1.5" fill="none" d="M119.265 90L119.265 48.25"/></g><g class="vf-stem" id="vf-auto17322" pointer-events="bounding-box"><path stroke-width="1.5" fill="none" d="M143.669 90L143.669 48.25"/></g><g class="vf-stem" id="vf-auto17328" pointer-events="bounding-box"><path stroke-width="1.5" fill="none" d="M166.215 86L166.215 48.25"/></g><g class="vf-stem" id="vf-auto17334" pointer-events="bounding-box"><path stroke-width="1.5" fill="none" d="M192.477 90L192.477 48.25"/></g><g class="vf-stem" id="vf-auto17340" pointer-events="bounding-box"><path stroke-width="1.5" fill="none" d="M215.023 86L215.023 48.25"/></g><g class="vf-stem" id="vf-auto17346" pointer-events="bounding-box"><path stroke-width="1.5" fill="none" d="M241.286 90L241.286 48.25"/></g><g class="vf-stem" id="vf-auto17356" pointer-events="bounding-box"><path stroke-width="1.5" fill="none" d="M290.094 90L290.094 48.25"/></g><g class="vf-beam" id="vf-auto17362"><path stroke="none" d="M118.515 47.5L118.515 52.5L290.344 52.5L290.344 47.5Z"/><path stroke="none" d="M118.515 55L118.515 60L290.344 60L290.344 55Z"/><path stroke="none" d="M118.515 62.5L118.515 67.5L290.344 67.5L290.344 62.5Z"/></g></svg>