<svg xmlns="http://www.w3.org/2000/svg" stroke-width="0.3" stroke-dasharray="none" fill="black" stroke="black" font-family="Arial, sans-serif" font-size="10pt" font-weight="normal" font-style="normal" width="800" height="250" viewBox="0 0 800 250" style="width: 800px; height: 250px; border: none;"><g class="vf-stave" id="vf-auto39892" stroke-width="1" fill="#999999" stroke="#999999"><path fill="none" d="M50 140L250 140"/><path fill="none" d="M50 150L250 150"/><path fill="none" d="M50 160L250 160"/><path fill="none" d="M50 170L250 170"/><path fill="none" d="M50 180L250 180"/></g><g class="vf-stavebarline" id="vf-auto39893"/><g class="vf-stavebarline" id="vf-auto39894"><rect x="250" y="139.5" width="1" height="41" stroke="none"/></g><g class="vf-clef" id="vf-auto39895"><path stroke="none" d="M63.693 191.402C63.87 191.402,64.048 191.377,64.276 191.301C64.707 191.148,65.062 190.92,65.366 190.591C68.382 187.423,69.623 183.596,69.75 179.313C69.75 178.983,69.776 178.451,69.776 178.451C69.776 178.451,70.282 178.147,70.511 178.071C71.727 177.488,72.893 176.829,73.932 175.993C76.72 173.762,78.316 170.747,79.051 167.376C79.204 166.844,79.229 166.286,79.229 165.779C79.229 163.473,77.962 161.8,75.047 161.268C74.312 161.116,73.577 161.04,72.842 161.04C71.017 161.04,69.269 161.521,67.621 162.484C67.419 162.611,67.19 162.763,67.19 162.763L66.253 159.215C66.202 159.038,66.202 158.708,66.202 158.708C66.202 158.708,69.928 152.093,70.434 148.697C70.612 147.709,70.688 146.72,70.688 145.757C70.688 144.972,70.663 144.237,70.536 143.527C70.181 140.891,69.193 138.408,68.534 135.848C68.356 135.088,68.103 134.175,67.216 134.175C66.557 134.175,66.101 134.809,65.695 135.341C63.82 137.926,62.907 140.891,62.73 144.059C62.705 144.566,62.705 145.098,62.705 145.605C62.705 148.545,63.186 151.51,63.566 154.425C63.566 154.653,63.642 154.881,63.693 155.059C62.046 157.39,60.221 159.57,58.65 161.978C57.56 163.701,56.343 165.424,55.583 167.35C55.177 168.288,55 169.403,55 170.493C55 172.749,55.76 175.055,57.078 176.322C57.839 177.057,59.055 177.868,60.246 178.299C61.944 178.907,63.617 179.313,65.391 179.313C65.923 179.313,66.455 179.287,67.013 179.211L67.444 179.135C67.444 179.135,67.469 179.465,67.444 179.642C67.038 181.847,66.506 184.001,65.188 185.826C64.479 186.764,63.82 187.828,62.451 187.93C62.046 187.98,61.868 188.234,61.868 188.563C61.868 188.69,61.894 188.817,61.944 188.944C62.147 189.501,62.4 190.084,62.654 190.642C62.882 191.148,63.237 191.402,63.693 191.402M65.138 152.828C64.859 151.08,64.681 149.356,64.681 147.633C64.681 144.465,65.34 141.373,67.19 138.408C67.621 139.751,67.849 141.119,67.849 142.488C67.849 143.198,67.773 143.933,67.672 144.642C67.19 147.506,66.532 150.269,65.138 152.828M61.387 174.421C60.88 174.396,60.449 174.219,59.967 174.067C59.004 173.737,58.219 173.382,57.965 172.749C57.839 172.47,57.813 172.14,57.813 171.811C57.813 171.406,57.889 170.975,57.965 170.518C57.991 170.316,58.219 169.682,58.295 169.581C59.714 167.046,61.412 164.765,63.211 162.459L64.732 160.457L65.011 161.268C65.29 162.18,65.543 163.625,65.543 163.625C65.543 163.625,64.529 164.943,63.87 165.602C62.046 167.376,61.159 169.606,61.159 172.064C61.159 172.673,61.235 173.306,61.361 173.965C61.387 174.092,61.387 174.219,61.387 174.421M69.269 173.306C68.99 170.924,68.432 169.023,67.925 166.742C67.875 166.463,67.875 166.286,68.001 166.134C68.939 165.957,69.852 165.881,70.815 165.881C71.727 165.881,72.589 165.957,73.501 166.134C74.591 166.362,75.681 166.539,76.542 167.426C76.593 167.503,76.669 167.579,76.745 167.604C75.301 170.518,73.146 172.723,70.08 174.067L69.421 174.32M65.391 175.055C64.124 175.055,62.882 174.726,62.882 174.726C62.882 174.726,62.781 174.219,62.781 173.484C62.781 173.002,62.806 172.419,62.958 171.836C63.313 170.088,64.555 168.846,65.873 167.68C65.974 167.579,66.101 167.503,66.177 167.503C66.303 167.503,66.354 167.655,66.379 167.908C66.709 170.062,67.266 172.166,67.419 174.32C67.444 174.548,67.419 174.878,67.419 174.878C67.419 174.878,66.455 175.131,65.391 175.055"/></g><g class="vf-timesignature" id="vf-auto39896"><path stroke="none" d="M109.113 157.234C109.455 157.332,109.749 157.038,109.921 156.744C110.386 156.157,110.435 155.447,110.557 154.737C110.949 151.383,110.875 148.005,110.998 144.651L110.998 144.308C112.246 144.064,113.397 143.623,114.572 143.109C116.285 142.301,116.579 141.86,116.555 140C116.555 139.119,116.359 138.727,115.918 138.703C115.698 138.703,115.38 138.8,114.988 139.021L114.743 139.119C113.544 139.657,112.32 140.073,111.047 140.318C111.047 138.776,110.973 137.209,110.9 135.667C110.826 134.37,110.802 133.023,110.679 131.726C110.655 131.432,110.679 130.869,110.239 130.869C109.798 130.869,109.504 131.163,109.455 131.677C109.431 132.313,109.235 132.95,109.284 133.586C109.309 135.912,109.382 138.237,109.382 140.539C108.966 140.563,108.55 140.563,108.158 140.539C106.004 140.392,103.898 140.024,101.695 140.073C100.936 140.073,100.153 140.098,99.37 140.22C100.153 138.727,100.79 137.356,101.597 136.01C103.458 132.95,105.465 129.914,106.787 126.487C107.105 125.679,107.35 124.871,107.35 124.039C107.35 123.794,107.301 123.549,107.277 123.28C107.228 123.084,107.228 122.693,106.958 122.693C106.665 122.668,106.322 122.766,106.151 123.035C106.028 123.256,105.906 123.427,105.832 123.647C105.343 125.239,104.462 126.609,103.629 128.005C102.626 129.743,101.45 131.408,100.422 133.121C98.978 135.569,97.778 138.091,96.016 140.318C95.453 141.028,94.939 141.763,94.939 142.644C94.939 142.962,95.012 143.28,95.135 143.599C95.282 143.917,95.453 144.235,95.453 144.553C95.502 145.067,95.6 145.263,95.894 145.288C96.016 145.288,96.236 145.214,96.481 145.067C98.048 144.406,99.614 144.064,101.279 144.064C103.458 144.064,105.661 144.406,107.84 144.553C108.085 144.578,108.329 144.578,108.574 144.627C108.819 144.627,109.064 144.627,109.309 144.553C109.235 146.561,109.211 148.568,109.064 150.575C108.99 152.118,108.819 153.684,108.819 155.3C108.819 155.692,108.819 156.034,108.868 156.402C108.868 156.72,108.819 157.136,109.113 157.234"/><path stroke="none" d="M109.113 197.234C109.455 197.332,109.749 197.038,109.921 196.744C110.386 196.157,110.435 195.447,110.557 194.737C110.949 191.383,110.875 188.005,110.998 184.651L110.998 184.308C112.246 184.064,113.397 183.623,114.572 183.109C116.285 182.301,116.579 181.86,116.555 180C116.555 179.119,116.359 178.727,115.918 178.703C115.698 178.703,115.38 178.8,114.988 179.021L114.743 179.119C113.544 179.657,112.32 180.073,111.047 180.318C111.047 178.776,110.973 177.209,110.9 175.667C110.826 174.37,110.802 173.023,110.679 171.726C110.655 171.432,110.679 170.869,110.239 170.869C109.798 170.869,109.504 171.163,109.455 171.677C109.431 172.313,109.235 172.95,109.284 173.586C109.309 175.912,109.382 178.237,109.382 180.539C108.966 180.563,108.55 180.563,108.158 180.539C106.004 180.392,103.898 180.024,101.695 180.073C100.936 180.073,100.153 180.098,99.37 180.22C100.153 178.727,100.79 177.356,101.597 176.01C103.458 172.95,105.465 169.914,106.787 166.487C107.105 165.679,107.35 164.871,107.35 164.039C107.35 163.794,107.301 163.549,107.277 163.28C107.228 163.084,107.228 162.693,106.958 162.693C106.665 162.668,106.322 162.766,106.151 163.035C106.028 163.256,105.906 163.427,105.832 163.647C105.343 165.239,104.462 166.609,103.629 168.005C102.626 169.743,101.45 171.408,100.422 173.121C98.978 175.569,97.778 178.091,96.016 180.318C95.453 181.028,94.939 181.763,94.939 182.644C94.939 182.962,95.012 183.28,95.135 183.599C95.282 183.917,95.453 184.235,95.453 184.553C95.502 185.067,95.6 185.263,95.894 185.288C96.016 185.288,96.236 185.214,96.481 185.067C98.048 184.406,99.614 184.064,101.279 184.064C103.458 184.064,105.661 184.406,107.84 184.553C108.085 184.578,108.329 184.578,108.574 184.627C108.819 184.627,109.064 184.627,109.309 184.553C109.235 186.561,109.211 188.568,109.064 190.575C108.99 192.118,108.819 193.684,108.819 195.3C108.819 195.692,108.819 196.034,108.868 196.402C108.868 196.72,108.819 197.136,109.113 197.234"/></g><g class="vf-stave" id="vf-auto39915" stroke-width="1" fill="#999999" stroke="#999999"><path fill="none" d="M250 140L400 140"/><path fill="none" d="M250 150L400 150"/><path fill="none" d="M250 160L400 160"/><path fill="none" d="M250 170L400 170"/><path fill="none" d="M250 180L400 180"/></g><g class="vf-stavebarline" id="vf-auto39916"/><g class="vf-stavebarline" id="vf-auto39917"><rect x="400" y="139.5" width="1" height="41" stroke="none"/></g><g class="vf-stave" id="vf-auto39933" stroke-width="1" fill="#999999" stroke="#999999"><path fill="none" d="M400 140L550 140"/><path fill="none" d="M400 150L550 150"/><path fill="none" d="M400 160L550 160"/><path fill="none" d="M400 170L550 170"/><path fill="none" d="M400 180L550 180"/></g><g class="vf-stavebarline" id="vf-auto39934"/><g class="vf-stavebarline" id="vf-auto39935"><rect x="550" y="139.5" width="1" height="41" stroke="none"/></g><g class="vf-stave" id="vf-auto39969" stroke-width="1" fill="#999999" stroke="#999999"><path fill="none" d="M550 140L700 140"/><path fill="none" d="M550 150L700 150"/><path fill="none" d="M550 160L700 160"/><path fill="none" d="M550 170L700 170"/><path fill="none" d="M550 180L700 180"/></g><g class="vf-stavebarline" id="vf-auto39970"/><g class="vf-stavebarline" id="vf-auto39971"><rect x="700" y="139.5" width="1" height="41" stroke="none"/></g><g class="vf-stavenote" id="vf-auto39861"><g class="vf-notehead" id="vf-auto39867" pointer-events="bounding-box"><path stroke="none" d="M148.362 171.543C148.642 171.599,148.895 171.627,149.176 171.627C153.051 171.627,158.835 166.348,158.723 162.08C158.611 161.041,158.639 159.609,156.533 158.766C155.943 158.485,155.297 158.373,154.595 158.373C150.271 158.373,145.582 163.343,145.245 166.657C145.245 166.909,145.217 167.134,145.217 167.387C145.217 169.409,146.115 171.037,148.362 171.543"/></g></g><g class="vf-stavenote" id="vf-auto39869"><g class="vf-notehead" id="vf-auto39875" pointer-events="bounding-box"><path stroke="none" d="M179.24 166.543C179.521 166.599,179.774 166.627,180.055 166.627C183.93 166.627,189.714 161.348,189.602 157.08C189.49 156.041,189.518 154.609,187.412 153.766C186.822 153.485,186.176 153.373,185.474 153.373C181.15 153.373,176.46 158.343,176.123 161.657C176.123 161.909,176.095 162.134,176.095 162.387C176.095 164.409,176.994 166.037,179.24 166.543"/></g></g><g class="vf-stavenote" id="vf-auto39878"><g class="vf-notehead" id="vf-auto39881" pointer-events="bounding-box"><path stroke="none" d="M195.409 180.019C195.711 179.843,195.661 179.49,195.736 179.188C195.736 179.036,195.661 178.91,195.635 178.759C195.333 177.474,195.005 176.239,194.728 174.979C194.678 174.828,194.678 174.677,194.678 174.576C194.678 173.341,195.585 171.854,196.618 171.426C196.87 171.275,197.072 171.376,197.349 171.451C198.508 171.829,199.113 172.812,199.768 173.719C199.945 173.971,200.197 174.299,200.499 174.299C200.575 174.299,200.6 174.299,200.675 174.248C201.003 174.097,201.154 173.77,201.154 173.467L201.104 173.19C200.978 172.358,200.827 171.502,200.272 170.846C199.189 169.536,198.609 167.948,197.878 166.462C197.777 166.235,197.702 166.058,197.702 165.907C197.702 165.655,197.853 165.428,198.105 165.176C198.76 164.496,199.441 163.866,199.869 163.034C200.272 162.379,200.524 161.699,200.524 161.018C200.524 160.54,200.423 160.061,200.096 159.557C199.012 157.742,197.878 155.953,196.971 154.038C196.366 152.728,195.585 151.493,194.501 150.51C194.249 150.258,193.922 149.93,193.569 149.93C193.418 149.93,193.267 149.981,193.09 150.082C192.737 150.308,192.586 150.586,192.586 150.838C192.586 151.14,192.737 151.417,192.939 151.72C194.073 153.181,194.753 154.87,195.837 156.331C196.165 156.734,196.316 157.012,196.316 157.264C196.316 157.591,196.039 157.843,195.459 158.221C194.678 158.65,193.897 159.078,193.166 159.632C192.813 159.884,192.611 160.162,192.611 160.464C192.611 160.64,192.687 160.817,192.763 161.018C193.115 161.85,193.594 162.606,194.098 163.362C194.905 164.496,195.635 165.731,196.215 166.991C195.963 167.218,195.736 167.142,195.535 167.167C193.065 167.495,191.427 169.36,191.603 171.577C191.855 174.223,192.838 176.693,194.023 179.036C194.174 179.339,194.35 179.616,194.728 179.742C194.93 179.818,195.081 180.07,195.257 180.07C195.308 180.07,195.383 180.07,195.409 180.019"/></g></g><g class="vf-stavenote" id="vf-auto39882"><g class="vf-notehead" id="vf-auto39885" pointer-events="bounding-box"><path stroke="none" d="M214.884 165L227.744 165C228.755 165,229.794 165,230.805 164.972C232.35 164.916,232.995 164.186,233.08 162.697C233.164 161.799,232.911 160.956,232.799 160.114C232.602 158.963,232.013 158.485,230.946 158.485C229.991 158.485,229.064 158.57,228.138 158.57C226.116 158.57,224.094 158.457,222.128 158.457L214.182 158.457C212.666 158.457,212.132 158.822,212.132 159.974C212.132 160.198,212.132 160.395,212.16 160.676C212.244 161.209,212.3 161.771,212.3 162.332C212.216 164.242,212.946 165,214.884 165"/></g></g><g class="vf-stavenote" id="vf-auto39887"><g class="vf-notehead" id="vf-auto39890" pointer-events="bounding-box"><path stroke="none" d="M143.206 168.877C143.093 174.24,138.151 177.273,134.108 177.525C132.9 177.61,131.861 176.964,130.71 176.543L129.587 176.065C128.464 175.532,127.846 174.661,127.846 173.566C127.846 173.229,127.874 172.92,128.015 172.555C128.773 170.253,129.784 168.006,131.272 166.041C132.62 164.272,134.838 163.317,137.028 163.317C138.994 163.317,140.959 164.047,142.279 165.563C143.122 166.49,143.262 167.641,143.206 168.877M134.81 173.005C136.13 172.864,137.421 172.471,138.629 171.769C139.134 171.488,139.499 171.123,139.808 170.646C139.977 170.393,140.061 170.168,140.061 169.916C140.061 169.607,139.864 169.326,139.443 169.101C138.404 168.624,137.477 167.95,136.298 167.95C136.017 167.95,135.765 167.978,135.484 168.062C133.659 168.512,132.255 169.438,131.244 170.983C131.131 171.179,130.963 171.404,130.963 171.629C130.963 171.825,131.075 171.994,131.356 172.106C132.451 172.499,133.518 173.005,134.81 173.005"/></g></g><g class="vf-stavenote" id="vf-auto39901"><g class="vf-stem" id="vf-auto39902" pointer-events="bounding-box"><path stroke-width="1.5" fill="none" d="M285.121 162.65L285.121 195"/></g><g class="vf-notehead" id="vf-auto39904" pointer-events="bounding-box"><path stroke="none" d="M297.849 158.428C297.793 163.229,293.665 167.048,289.06 167.048C288.386 167.048,287.684 166.964,287.01 166.795C285.578 166.43,284.932 165.391,284.623 163.959C284.455 163.229,284.371 162.555,284.371 161.909C284.371 157.332,287.937 154.384,292.345 153.008C292.486 152.952,292.71 152.924,292.907 152.924C294.873 152.924,297.877 155.226,297.877 157.81C297.877 158.006,297.877 158.231,297.849 158.428M290.352 162.864C292.065 162.274,293.946 161.348,295.575 159.832C295.603 159.803,295.659 159.635,295.659 159.523C295.659 159.382,295.603 159.27,295.575 159.242C294.844 158.512,294.283 157.529,293.104 157.36C292.935 157.332,292.795 157.332,292.57 157.332C290.829 157.332,289.453 158.456,288.021 159.242C287.122 159.747,286.112 160.814,286.308 161.741C286.505 162.752,287.965 162.555,288.892 162.752C289.257 162.836,289.594 162.836,290.352 162.864"/></g></g><g class="vf-stavenote" id="vf-auto39905"><g class="vf-notehead" id="vf-auto39908" pointer-events="bounding-box"><path stroke="none" d="M350.964 160L363.824 160C364.835 160,365.874 160,366.885 159.972C368.429 159.916,369.075 159.186,369.16 157.697C369.244 156.799,368.991 155.956,368.879 155.114C368.682 153.963,368.093 153.485,367.025 153.485C366.071 153.485,365.144 153.57,364.217 153.57C362.196 153.57,360.174 153.457,358.208 153.457L350.262 153.457C348.745 153.457,348.212 153.822,348.212 154.974C348.212 155.198,348.212 155.395,348.24 155.676C348.324 156.209,348.38 156.771,348.38 157.332C348.296 159.242,349.026 160,350.964 160"/></g></g><g class="vf-stavenote" id="vf-auto39910"><g class="vf-notehead" id="vf-auto39913" pointer-events="bounding-box"><path stroke="none" d="M282.36 158.877C282.247 164.24,277.305 167.273,273.262 167.525C272.054 167.61,271.015 166.964,269.864 166.543L268.741 166.065C267.618 165.532,267 164.661,267 163.566C267 163.229,267.028 162.92,267.168 162.555C267.927 160.253,268.938 158.006,270.426 156.041C271.774 154.272,273.992 153.317,276.182 153.317C278.148 153.317,280.113 154.047,281.433 155.563C282.276 156.49,282.416 157.641,282.36 158.877M273.964 163.005C275.284 162.864,276.575 162.471,277.783 161.769C278.288 161.488,278.653 161.123,278.962 160.646C279.131 160.393,279.215 160.168,279.215 159.916C279.215 159.607,279.018 159.326,278.597 159.101C277.558 158.624,276.631 157.95,275.452 157.95C275.171 157.95,274.919 157.978,274.638 158.062C272.813 158.512,271.409 159.438,270.398 160.983C270.285 161.179,270.117 161.404,270.117 161.629C270.117 161.825,270.229 161.994,270.51 162.106C271.605 162.499,272.672 163.005,273.964 163.005"/></g></g><g class="vf-stavenote" id="vf-auto39919"><g class="vf-stem" id="vf-auto39920" pointer-events="bounding-box"><path stroke-width="1.5" fill="none" d="M429.756 147.45L429.756 115"/></g><g class="vf-notehead" id="vf-auto39972" pointer-events="bounding-box"><path stroke="none" d="M430.478 148.428C430.422 153.229,426.294 157.048,421.689 157.048C421.015 157.048,420.313 156.964,419.64 156.795C418.207 156.43,417.562 155.391,417.253 153.959C417.084 153.229,417 152.555,417 151.909C417 147.332,420.566 144.384,424.975 143.008C425.115 142.952,425.34 142.924,425.536 142.924C427.502 142.924,430.506 145.226,430.506 147.81C430.506 148.006,430.506 148.231,430.478 148.428M422.981 152.864C424.694 152.274,426.575 151.348,428.204 149.832C428.232 149.803,428.288 149.635,428.288 149.523C428.288 149.382,428.232 149.27,428.204 149.242C427.474 148.512,426.912 147.529,425.733 147.36C425.564 147.332,425.424 147.332,425.199 147.332C423.458 147.332,422.082 148.456,420.65 149.242C419.752 149.747,418.741 150.814,418.938 151.741C419.134 152.752,420.594 152.555,421.521 152.752C421.886 152.836,422.223 152.836,422.981 152.864"/></g></g><g class="vf-stavenote" id="vf-auto39923"><g class="vf-notehead" id="vf-auto39926" pointer-events="bounding-box"><path stroke="none" d="M492.278 150L505.139 150C506.15 150,507.189 150,508.2 149.972C509.744 149.916,510.39 149.186,510.474 147.697C510.559 146.799,510.306 145.956,510.193 145.114C509.997 143.963,509.407 143.485,508.34 143.485C507.385 143.485,506.459 143.57,505.532 143.57C503.51 143.57,501.489 143.457,499.523 143.457L491.576 143.457C490.06 143.457,489.527 143.822,489.527 144.974C489.527 145.198,489.527 145.395,489.555 145.676C489.639 146.209,489.695 146.771,489.695 147.332C489.611 149.242,490.341 150,492.278 150"/></g></g><g class="vf-stavenote" id="vf-auto39928"><g class="vf-notehead" id="vf-auto39931" pointer-events="bounding-box"><path stroke="none" d="M432.36 178.877C432.247 184.24,427.305 187.273,423.262 187.525C422.054 187.61,421.015 186.964,419.864 186.543L418.741 186.065C417.618 185.532,417 184.661,417 183.566C417 183.229,417.028 182.92,417.168 182.555C417.927 180.253,418.938 178.006,420.426 176.041C421.774 174.272,423.992 173.317,426.182 173.317C428.148 173.317,430.113 174.047,431.433 175.563C432.276 176.49,432.416 177.641,432.36 178.877M423.964 183.005C425.284 182.864,426.575 182.471,427.783 181.769C428.288 181.488,428.653 181.123,428.962 180.646C429.131 180.393,429.215 180.168,429.215 179.916C429.215 179.607,429.018 179.326,428.597 179.101C427.558 178.624,426.631 177.95,425.452 177.95C425.171 177.95,424.919 177.978,424.638 178.062C422.813 178.512,421.409 179.438,420.398 180.983C420.285 181.179,420.117 181.404,420.117 181.629C420.117 181.825,420.229 181.994,420.51 182.106C421.605 182.499,422.672 183.005,423.964 183.005"/></g></g><g class="vf-stavenote" id="vf-auto39937"><g class="vf-stem" id="vf-auto39938" pointer-events="bounding-box"><path stroke-width="1.5" fill="none" d="M579.758 178L579.758 145"/></g><g class="vf-notehead" id="vf-auto39940" pointer-events="bounding-box"><path stroke="none" d="M570.145 186.543C570.426 186.599,570.678 186.627,570.959 186.627C574.834 186.627,580.619 181.348,580.506 177.08C580.394 176.041,580.422 174.609,578.316 173.766C577.727 173.485,577.081 173.373,576.379 173.373C572.054 173.373,567.365 178.343,567.028 181.657C567.028 181.909,567 182.134,567 182.387C567 184.409,567.899 186.037,570.145 186.543"/></g></g><g class="vf-stavenote" id="vf-auto39941"><g class="vf-notehead" id="vf-auto39944" pointer-events="bounding-box"><path stroke="none" d="M617.616 195.019C617.918 194.843,617.868 194.49,617.943 194.188C617.943 194.036,617.868 193.91,617.842 193.759C617.54 192.474,617.212 191.239,616.935 189.979C616.885 189.828,616.885 189.677,616.885 189.576C616.885 188.341,617.792 186.854,618.825 186.426C619.077 186.275,619.279 186.376,619.556 186.451C620.715 186.829,621.32 187.812,621.975 188.719C622.152 188.971,622.404 189.299,622.706 189.299C622.782 189.299,622.807 189.299,622.882 189.248C623.21 189.097,623.361 188.77,623.361 188.467L623.311 188.19C623.185 187.358,623.034 186.502,622.479 185.846C621.396 184.536,620.816 182.948,620.085 181.462C619.984 181.235,619.909 181.058,619.909 180.907C619.909 180.655,620.06 180.428,620.312 180.176C620.967 179.496,621.648 178.866,622.076 178.034C622.479 177.379,622.731 176.699,622.731 176.018C622.731 175.54,622.63 175.061,622.303 174.557C621.219 172.742,620.085 170.953,619.178 169.038C618.573 167.728,617.792 166.493,616.708 165.51C616.456 165.258,616.129 164.93,615.776 164.93C615.625 164.93,615.474 164.981,615.297 165.082C614.944 165.308,614.793 165.586,614.793 165.838C614.793 166.14,614.944 166.417,615.146 166.72C616.28 168.181,616.96 169.87,618.044 171.331C618.372 171.734,618.523 172.012,618.523 172.264C618.523 172.591,618.246 172.843,617.666 173.221C616.885 173.65,616.104 174.078,615.373 174.632C615.02 174.884,614.818 175.162,614.818 175.464C614.818 175.64,614.894 175.817,614.97 176.018C615.322 176.85,615.801 177.606,616.305 178.362C617.112 179.496,617.842 180.731,618.422 181.991C618.17 182.218,617.943 182.142,617.742 182.167C615.272 182.495,613.634 184.36,613.81 186.577C614.062 189.223,615.045 191.693,616.23 194.036C616.381 194.339,616.557 194.616,616.935 194.742C617.137 194.818,617.288 195.07,617.464 195.07C617.515 195.07,617.59 195.07,617.616 195.019"/></g></g><g class="vf-stavenote" id="vf-auto39945"><g class="vf-notehead" id="vf-auto39948" pointer-events="bounding-box"><path stroke="none" d="M651.902 180L664.763 180C665.774 180,666.813 180,667.824 179.972C669.368 179.916,670.014 179.186,670.098 177.697C670.182 176.799,669.93 175.956,669.817 175.114C669.621 173.963,669.031 173.485,667.964 173.485C667.009 173.485,666.083 173.57,665.156 173.57C663.134 173.57,661.113 173.457,659.147 173.457L651.2 173.457C649.684 173.457,649.15 173.822,649.15 174.974C649.15 175.198,649.15 175.395,649.179 175.676C649.263 176.209,649.319 176.771,649.319 177.332C649.235 179.242,649.965 180,651.902 180"/></g></g><g class="vf-stavenote" id="vf-auto39950"><g class="vf-stem" id="vf-auto39951" pointer-events="bounding-box"><path stroke-width="1.5" fill="none" d="M567.75 182L567.75 212"/></g><g class="vf-notehead" id="vf-auto39973" pointer-events="bounding-box"><path stroke="none" d="M570.145 186.543C570.426 186.599,570.678 186.627,570.959 186.627C574.834 186.627,580.619 181.348,580.506 177.08C580.394 176.041,580.422 174.609,578.316 173.766C577.727 173.485,577.081 173.373,576.379 173.373C572.054 173.373,567.365 178.343,567.028 181.657C567.028 181.909,567 182.134,567 182.387C567 184.409,567.899 186.037,570.145 186.543"/></g><path stroke="none" d="M574.441 184.118C574.273 183.978,574.16 183.894,574.048 183.894C573.908 183.894,573.795 184.034,573.739 184.371C573.711 184.905,573.515 185.41,573.458 185.944C573.43 186.309,573.402 186.674,573.402 187.011C573.402 187.656,573.543 188.246,574.188 188.78C574.919 189.369,575.34 190.324,575.733 191.194C575.845 191.447,575.901 191.728,575.901 192.009C575.901 192.542,575.705 193.104,575.649 193.666C575.368 196.754,573.908 199.338,571.97 201.64C571.212 202.567,570.482 203.578,569.696 204.504C567.814 207.004,567 209.84,567 212.956L567 215.231C567 215.989,567.168 216.635,567.983 217L568.179 217C568.46 216.326,568.741 215.624,568.741 214.894C568.741 214.445,568.657 214.08,568.657 213.715C568.685 211.861,569.555 210.289,570.678 208.829C571.661 207.621,572.588 206.358,573.543 205.15C575.733 202.398,576.828 199.253,577.305 195.8C577.474 194.761,577.558 193.722,577.558 192.655C577.558 191.082,577.362 189.51,576.856 187.937C576.435 186.477,575.452 185.27,574.441 184.118"/></g><g class="vf-stavenote" id="vf-auto39956"><g class="vf-notehead" id="vf-auto39959" pointer-events="bounding-box"><path stroke="none" d="M595.01 190.502C595.74 190.474,596.105 190.025,596.358 189.547C597.088 188.199,597.65 186.795,598.155 185.335C599.756 181.011,600.486 176.406,601.918 171.997C602.002 171.744,602.087 171.464,602.087 171.183L602.087 170.986C602.058 170.425,601.918 170.06,601.441 170.06C601.328 170.06,601.244 170.06,601.132 170.088C600.149 170.256,599.25 170.649,598.605 171.267C597.594 172.25,596.471 172.952,595.291 173.682C595.123 173.766,594.982 173.85,594.814 173.85C594.645 173.85,594.477 173.766,594.336 173.598C594.168 173.457,594.084 173.261,594.084 173.092C594.084 172.924,594.112 172.812,594.196 172.643C594.365 172.362,594.533 171.997,594.533 171.632C594.533 170.93,594.73 170.06,593.971 169.695C593.606 169.526,593.269 169.442,593.045 169.442C592.511 169.442,592.174 169.807,591.753 170.565C590.967 171.913,590.742 173.401,590.489 174.918C590.433 175.226,590.405 175.507,590.405 175.788C590.405 177.641,591.388 179.326,593.466 179.326C593.971 179.326,594.561 179.242,595.207 178.989C596.386 178.54,597.369 177.894,598.52 177.164C597.594 181.741,595.825 185.981,595.01 190.502"/></g></g><g class="vf-stem" id="vf-auto39862" pointer-events="bounding-box"><path stroke-width="1.5" fill="none" d="M157.975 163L157.975 128.066"/></g><g class="vf-stem" id="vf-auto39870" pointer-events="bounding-box"><path stroke-width="1.5" fill="none" d="M188.853 158L188.853 125.75"/></g><g class="vf-beam" id="vf-auto39877"><path stroke="none" d="M157.225 127.372L157.225 132.372L189.103 130.056L189.103 125.056Z"/></g></svg>