<svg xmlns="http://www.w3.org/2000/svg" stroke-width="0.3" stroke-dasharray="none" fill="black" stroke="black" font-family="Arial, sans-serif" font-size="10pt" font-weight="normal" font-style="normal" width="440" height="250" viewBox="0 0 550 312.5" style="width: 440px; height: 250px; border: none;"><g class="vf-stave" id="vf-auto17772" stroke-width="1" fill="#999999" stroke="#999999"><path fill="none" d="M10 50L391.752 50"/><path fill="none" d="M10 60L391.752 60"/><path fill="none" d="M10 70L391.752 70"/><path fill="none" d="M10 80L391.752 80"/><path fill="none" d="M10 90L391.752 90"/></g><g class="vf-stavebarline" id="vf-auto17773"/><g class="vf-stavebarline" id="vf-auto17774"><rect x="391.752" y="49.5" width="1" height="41" stroke="none"/></g><g class="vf-clef" id="vf-auto17775"><path stroke="none" d="M28.711 65.844C28.66 65.413,28.711 65.388,28.939 65.16C32.893 61.485,35.883 56.847,35.883 51.246C35.883 48.078,34.996 44.935,33.501 42.756C32.944 41.945,32.006 40.931,31.6 40.931C31.093 40.931,29.953 41.869,29.243 42.68C26.532 45.67,25.644 50.232,25.644 54.034C25.644 56.138,25.923 58.52,26.177 60.015C26.253 60.446,26.278 60.522,25.847 60.902C20.576 65.236,15 70.457,15 77.832C15 84.168,19.334 90.2,28.28 90.2C29.117 90.2,30.08 90.124,30.815 89.972C31.195 89.896,31.271 89.87,31.347 90.301C31.778 92.76,32.335 95.928,32.335 97.651C32.335 103.049,28.686 103.708,26.532 103.708C24.555 103.708,23.617 103.125,23.617 102.644C23.617 102.39,23.946 102.289,24.783 102.01C25.923 101.681,27.216 100.718,27.216 98.589C27.216 96.587,25.949 94.863,23.718 94.863C21.285 94.863,19.815 96.815,19.815 99.07C19.815 101.427,21.235 105.026,26.76 105.026C29.193 105.026,33.932 103.911,33.932 97.727C33.932 95.623,33.273 92.177,32.893 89.896C32.817 89.465,32.842 89.516,33.349 89.287C37.049 87.818,39.482 84.726,39.482 80.594C39.482 75.931,36.061 71.8,30.688 71.8C29.75 71.8,29.75 71.8,29.623 71.141M32.158 46.583C33.349 46.583,34.337 47.571,34.337 49.573C34.337 53.628,30.865 56.923,28.001 59.432C27.748 59.66,27.596 59.61,27.52 59.128C27.368 58.19,27.292 56.949,27.292 55.783C27.292 50.08,29.928 46.583,32.158 46.583M28.179 71.445C28.28 72.13,28.28 72.104,27.621 72.307C24.428 73.397,22.324 76.286,22.324 79.403C22.324 82.673,24.048 85.004,26.532 85.866C26.836 85.967,27.266 86.069,27.52 86.069C27.799 86.069,27.951 85.891,27.951 85.663C27.951 85.41,27.672 85.308,27.419 85.207C25.873 84.548,24.783 82.977,24.783 81.304C24.783 79.201,26.202 77.655,28.432 77.021C29.015 76.869,29.091 76.92,29.167 77.325L30.992 88.198C31.068 88.603,31.017 88.603,30.485 88.705C29.902 88.806,29.167 88.882,28.432 88.882C22.046 88.882,17.915 85.334,17.915 80.265C17.915 78.111,18.295 75.222,21.311 71.8C23.516 69.367,25.188 67.999,26.886 66.63C27.266 66.326,27.343 66.377,27.419 66.757M30.688 77.249C30.612 76.793,30.663 76.692,31.093 76.742C34.059 76.996,36.492 79.479,36.492 82.673C36.492 84.979,35.098 86.829,33.07 87.868C32.639 88.071,32.563 88.071,32.487 87.64"/></g><g class="vf-timesignature" id="vf-auto17776"><path stroke="none" d="M67.236 62.619L67.236 55.055C67.236 54.786,67.212 54.468,66.82 54.468C66.502 54.468,66.331 54.541,66.11 54.786L62.757 58.825C62.634 59.021,62.438 59.217,62.438 59.657L62.438 62.619L57.689 62.619C60.504 60.22,66.159 52.215,66.257 51.775L66.282 51.677C66.282 51.359,66.037 51.163,65.768 51.163C65.449 51.163,64.005 51.212,63.369 51.212C62.732 51.212,61.141 51.163,60.872 51.163C60.553 51.163,60.064 51.261,60.064 51.824C60.064 56.181,56.588 61.102,55.535 62.57L55.339 62.864C55.339 62.864,55.339 62.889,55.339 62.889L55.29 62.938C55.217 63.109,55.192 63.231,55.192 63.354C55.192 63.696,55.462 63.941,55.902 63.941L62.438 63.941L62.438 66.169C62.438 67.124,61.679 67.393,61.043 67.393C60.48 67.393,60.235 67.711,60.235 68.078C60.235 68.421,60.358 68.813,60.896 68.813L68.411 68.813C68.754 68.813,69.121 68.568,69.121 68.078C69.121 67.589,68.681 67.368,68.338 67.368C67.995 67.368,67.236 67.148,67.236 66.022L67.236 63.941L69.807 63.941C70.174 63.941,70.345 63.696,70.345 63.28C70.345 62.864,70.198 62.619,69.807 62.619"/><path stroke="none" d="M67.236 82.619L67.236 75.055C67.236 74.786,67.212 74.468,66.82 74.468C66.502 74.468,66.331 74.541,66.11 74.786L62.757 78.825C62.634 79.021,62.438 79.217,62.438 79.657L62.438 82.619L57.689 82.619C60.504 80.22,66.159 72.215,66.257 71.775L66.282 71.677C66.282 71.359,66.037 71.163,65.768 71.163C65.449 71.163,64.005 71.212,63.369 71.212C62.732 71.212,61.141 71.163,60.872 71.163C60.553 71.163,60.064 71.261,60.064 71.824C60.064 76.181,56.588 81.102,55.535 82.57L55.339 82.864C55.339 82.864,55.339 82.889,55.339 82.889L55.29 82.938C55.217 83.109,55.192 83.231,55.192 83.354C55.192 83.696,55.462 83.941,55.902 83.941L62.438 83.941L62.438 86.169C62.438 87.124,61.679 87.393,61.043 87.393C60.48 87.393,60.235 87.711,60.235 88.078C60.235 88.421,60.358 88.813,60.896 88.813L68.411 88.813C68.754 88.813,69.121 88.568,69.121 88.078C69.121 87.589,68.681 87.368,68.338 87.368C67.995 87.368,67.236 87.148,67.236 86.022L67.236 83.941L69.807 83.941C70.174 83.941,70.345 83.696,70.345 83.28C70.345 82.864,70.198 82.619,69.807 82.619"/></g><g class="vf-stave" id="vf-auto17785" stroke-width="1" fill="#999999" stroke="#999999"><path fill="none" d="M10 170L391.752 170"/><path fill="none" d="M10 180L391.752 180"/><path fill="none" d="M10 190L391.752 190"/><path fill="none" d="M10 200L391.752 200"/><path fill="none" d="M10 210L391.752 210"/></g><g class="vf-stavebarline" id="vf-auto17786"/><g class="vf-stavebarline" id="vf-auto17787"><rect x="391.752" y="169.5" width="1" height="41" stroke="none"/></g><g class="vf-clef" id="vf-auto17788"><path stroke="none" d="M28.711 185.844C28.66 185.413,28.711 185.388,28.939 185.16C32.893 181.485,35.883 176.847,35.883 171.246C35.883 168.078,34.996 164.935,33.501 162.756C32.944 161.945,32.006 160.931,31.6 160.931C31.093 160.931,29.953 161.869,29.243 162.68C26.532 165.67,25.644 170.232,25.644 174.034C25.644 176.138,25.923 178.52,26.177 180.015C26.253 180.446,26.278 180.522,25.847 180.902C20.576 185.236,15 190.457,15 197.832C15 204.168,19.334 210.2,28.28 210.2C29.117 210.2,30.08 210.124,30.815 209.972C31.195 209.896,31.271 209.87,31.347 210.301C31.778 212.76,32.335 215.928,32.335 217.651C32.335 223.049,28.686 223.708,26.532 223.708C24.555 223.708,23.617 223.125,23.617 222.644C23.617 222.39,23.946 222.289,24.783 222.01C25.923 221.681,27.216 220.718,27.216 218.589C27.216 216.587,25.949 214.863,23.718 214.863C21.285 214.863,19.815 216.815,19.815 219.07C19.815 221.427,21.235 225.026,26.76 225.026C29.193 225.026,33.932 223.911,33.932 217.727C33.932 215.623,33.273 212.177,32.893 209.896C32.817 209.465,32.842 209.516,33.349 209.287C37.049 207.818,39.482 204.726,39.482 200.594C39.482 195.931,36.061 191.8,30.688 191.8C29.75 191.8,29.75 191.8,29.623 191.141M32.158 166.583C33.349 166.583,34.337 167.571,34.337 169.573C34.337 173.628,30.865 176.923,28.001 179.432C27.748 179.66,27.596 179.61,27.52 179.128C27.368 178.19,27.292 176.949,27.292 175.783C27.292 170.08,29.928 166.583,32.158 166.583M28.179 191.445C28.28 192.13,28.28 192.104,27.621 192.307C24.428 193.397,22.324 196.286,22.324 199.403C22.324 202.673,24.048 205.004,26.532 205.866C26.836 205.967,27.266 206.069,27.52 206.069C27.799 206.069,27.951 205.891,27.951 205.663C27.951 205.41,27.672 205.308,27.419 205.207C25.873 204.548,24.783 202.977,24.783 201.304C24.783 199.201,26.202 197.655,28.432 197.021C29.015 196.869,29.091 196.92,29.167 197.325L30.992 208.198C31.068 208.603,31.017 208.603,30.485 208.705C29.902 208.806,29.167 208.882,28.432 208.882C22.046 208.882,17.915 205.334,17.915 200.265C17.915 198.111,18.295 195.222,21.311 191.8C23.516 189.367,25.188 187.999,26.886 186.63C27.266 186.326,27.343 186.377,27.419 186.757M30.688 197.249C30.612 196.793,30.663 196.692,31.093 196.742C34.059 196.996,36.492 199.479,36.492 202.673C36.492 204.979,35.098 206.829,33.07 207.868C32.639 208.071,32.563 208.071,32.487 207.64"/></g><g class="vf-timesignature" id="vf-auto17789"><path stroke="none" d="M67.236 182.619L67.236 175.055C67.236 174.786,67.212 174.468,66.82 174.468C66.502 174.468,66.331 174.541,66.11 174.786L62.757 178.825C62.634 179.021,62.438 179.217,62.438 179.657L62.438 182.619L57.689 182.619C60.504 180.22,66.159 172.215,66.257 171.775L66.282 171.677C66.282 171.359,66.037 171.163,65.768 171.163C65.449 171.163,64.005 171.212,63.369 171.212C62.732 171.212,61.141 171.163,60.872 171.163C60.553 171.163,60.064 171.261,60.064 171.824C60.064 176.181,56.588 181.102,55.535 182.57L55.339 182.864C55.339 182.864,55.339 182.889,55.339 182.889L55.29 182.938C55.217 183.109,55.192 183.231,55.192 183.354C55.192 183.696,55.462 183.941,55.902 183.941L62.438 183.941L62.438 186.169C62.438 187.124,61.679 187.393,61.043 187.393C60.48 187.393,60.235 187.711,60.235 188.078C60.235 188.421,60.358 188.813,60.896 188.813L68.411 188.813C68.754 188.813,69.121 188.568,69.121 188.078C69.121 187.589,68.681 187.368,68.338 187.368C67.995 187.368,67.236 187.148,67.236 186.022L67.236 183.941L69.807 183.941C70.174 183.941,70.345 183.696,70.345 183.28C70.345 182.864,70.198 182.619,69.807 182.619"/><path stroke="none" d="M67.236 202.619L67.236 195.055C67.236 194.786,67.212 194.468,66.82 194.468C66.502 194.468,66.331 194.541,66.11 194.786L62.757 198.825C62.634 199.021,62.438 199.217,62.438 199.657L62.438 202.619L57.689 202.619C60.504 200.22,66.159 192.215,66.257 191.775L66.282 191.677C66.282 191.359,66.037 191.163,65.768 191.163C65.449 191.163,64.005 191.212,63.369 191.212C62.732 191.212,61.141 191.163,60.872 191.163C60.553 191.163,60.064 191.261,60.064 191.824C60.064 196.181,56.588 201.102,55.535 202.57L55.339 202.864C55.339 202.864,55.339 202.889,55.339 202.889L55.29 202.938C55.217 203.109,55.192 203.231,55.192 203.354C55.192 203.696,55.462 203.941,55.902 203.941L62.438 203.941L62.438 206.169C62.438 207.124,61.679 207.393,61.043 207.393C60.48 207.393,60.235 207.711,60.235 208.078C60.235 208.421,60.358 208.813,60.896 208.813L68.411 208.813C68.754 208.813,69.121 208.568,69.121 208.078C69.121 207.589,68.681 207.368,68.338 207.368C67.995 207.368,67.236 207.148,67.236 206.022L67.236 203.941L69.807 203.941C70.174 203.941,70.345 203.696,70.345 203.28C70.345 202.864,70.198 202.619,69.807 202.619"/></g><g class="vf-stavenote" id="vf-auto17714"><g class="vf-notehead" id="vf-auto17718" pointer-events="bounding-box"><path stroke="none" d="M85.567 75.054C89.161 75.054,93.569 71.741,93.569 68.315C93.569 66.237,91.941 64.946,89.638 64.946C85.202 64.946,81.635 68.231,81.635 71.685C81.635 73.791,83.376 75.054,85.567 75.054"/></g></g><g class="vf-stavenote" id="vf-auto17720"><g class="vf-notehead" id="vf-auto17724" pointer-events="bounding-box"><path stroke="none" d="M115.768 75.054C119.362 75.054,123.771 71.741,123.771 68.315C123.771 66.237,122.142 64.946,119.839 64.946C115.403 64.946,111.837 68.231,111.837 71.685C111.837 73.791,113.578 75.054,115.768 75.054"/></g></g><g class="vf-stavenote" id="vf-auto17726"><g class="vf-notehead" id="vf-auto17730" pointer-events="bounding-box"><path stroke="none" d="M145.969 75.054C149.563 75.054,153.972 71.741,153.972 68.315C153.972 66.237,152.343 64.946,150.041 64.946C145.604 64.946,142.038 68.231,142.038 71.685C142.038 73.791,143.779 75.054,145.969 75.054"/></g></g><g class="vf-stavenote" id="vf-auto17732"><g class="vf-notehead" id="vf-auto17736" pointer-events="bounding-box"><path stroke="none" d="M176.17 75.054C179.764 75.054,184.173 71.741,184.173 68.315C184.173 66.237,182.544 64.946,180.242 64.946C175.805 64.946,172.239 68.231,172.239 71.685C172.239 73.791,173.98 75.054,176.17 75.054"/></g></g><g class="vf-stavenote" id="vf-auto17738"><g class="vf-notehead" id="vf-auto17742" pointer-events="bounding-box"><path stroke="none" d="M206.371 75.054C209.966 75.054,214.374 71.741,214.374 68.315C214.374 66.237,212.746 64.946,210.443 64.946C206.006 64.946,202.44 68.231,202.44 71.685C202.44 73.791,204.181 75.054,206.371 75.054"/></g></g><g class="vf-stavenote" id="vf-auto17744"><g class="vf-notehead" id="vf-auto17748" pointer-events="bounding-box"><path stroke="none" d="M236.573 75.054C240.167 75.054,244.575 71.741,244.575 68.315C244.575 66.237,242.947 64.946,240.644 64.946C236.208 64.946,232.641 68.231,232.641 71.685C232.641 73.791,234.382 75.054,236.573 75.054"/></g></g><g class="vf-stavenote" id="vf-auto17750"><g class="vf-notehead" id="vf-auto17754" pointer-events="bounding-box"><path stroke="none" d="M266.774 75.054C270.368 75.054,274.777 71.741,274.777 68.315C274.777 66.237,273.148 64.946,270.845 64.946C266.409 64.946,262.843 68.231,262.843 71.685C262.843 73.791,264.584 75.054,266.774 75.054"/></g></g><g class="vf-stavenote" id="vf-auto17756"><g class="vf-notehead" id="vf-auto17760" pointer-events="bounding-box"><path stroke="none" d="M296.975 75.054C300.569 75.054,304.978 71.741,304.978 68.315C304.978 66.237,303.349 64.946,301.047 64.946C296.61 64.946,293.044 68.231,293.044 71.685C293.044 73.791,294.785 75.054,296.975 75.054"/></g></g><g class="vf-stavenote" id="vf-auto17763"><g class="vf-stem" id="vf-auto17764" pointer-events="bounding-box"><path stroke-width="1.5" fill="none" d="M323.995 72L323.995 105"/></g><g class="vf-notehead" id="vf-auto17766" pointer-events="bounding-box"><path stroke="none" d="M327.176 75.054C330.771 75.054,335.179 71.741,335.179 68.315C335.179 66.237,333.55 64.946,331.248 64.946C326.811 64.946,323.245 68.231,323.245 71.685C323.245 73.791,324.986 75.054,327.176 75.054"/></g></g><g class="vf-stavenote" id="vf-auto17767"><g class="vf-stem" id="vf-auto17768" pointer-events="bounding-box"><path stroke-width="1.5" fill="none" d="M370.503 72L370.503 105"/></g><g class="vf-notehead" id="vf-auto17770" pointer-events="bounding-box"><path stroke="none" d="M373.684 75.054C377.278 75.054,381.687 71.741,381.687 68.315C381.687 66.237,380.058 64.946,377.756 64.946C373.319 64.946,369.753 68.231,369.753 71.685C369.753 73.791,371.494 75.054,373.684 75.054"/></g></g><g class="vf-stavenote" id="vf-auto17780"><g class="vf-notehead" id="vf-auto17783" pointer-events="bounding-box"><path stroke="none" d="M90.368 184.946C85.005 184.946,81.635 187.164,81.635 189.916C81.635 192.64,83.938 195.054,89.975 195.054C96.602 195.054,98.708 192.752,98.708 189.916C98.708 187.052,94.131 184.946,90.368 184.946M86.128 187.445C86.578 186.041,88.066 185.844,89.329 185.844C92.109 185.844,94.328 188.821,94.328 191.264C94.328 192.499,93.794 193.65,92.474 193.959C92.081 194.072,91.632 194.128,91.211 194.128C89.751 194.128,88.262 193.145,87.42 192.022C86.606 191.095,86.016 189.719,86.016 188.428C86.016 188.091,86.044 187.782,86.128 187.445"/></g></g><g class="vf-stem" id="vf-auto17715" pointer-events="bounding-box"><path stroke-width="1.5" fill="none" d="M82.385 72L82.385 104.25"/></g><g class="vf-stem" id="vf-auto17721" pointer-events="bounding-box"><path stroke-width="1.5" fill="none" d="M112.587 72L112.587 104.25"/></g><g class="vf-stem" id="vf-auto17727" pointer-events="bounding-box"><path stroke-width="1.5" fill="none" d="M142.788 72L142.788 104.25"/></g><g class="vf-stem" id="vf-auto17733" pointer-events="bounding-box"><path stroke-width="1.5" fill="none" d="M172.989 72L172.989 104.25"/></g><g class="vf-stem" id="vf-auto17739" pointer-events="bounding-box"><path stroke-width="1.5" fill="none" d="M203.19 72L203.19 104.25"/></g><g class="vf-stem" id="vf-auto17745" pointer-events="bounding-box"><path stroke-width="1.5" fill="none" d="M233.391 72L233.391 104.25"/></g><g class="vf-stem" id="vf-auto17751" pointer-events="bounding-box"><path stroke-width="1.5" fill="none" d="M263.593 72L263.593 104.25"/></g><g class="vf-stem" id="vf-auto17757" pointer-events="bounding-box"><path stroke-width="1.5" fill="none" d="M293.794 72L293.794 104.25"/></g><g class="vf-beam" id="vf-auto17762"><path stroke="none" d="M81.635 105L81.635 100L294.044 100L294.044 105Z"/><path stroke="none" d="M81.635 97.5L81.635 92.5L294.044 92.5L294.044 97.5Z"/></g><rect x="100.708" y="10" width="11.129" height="240" fill="rgba(100,200,100,0.4)" stroke="none"/><text stroke-width="1" fill="green" stroke="none" font-size="8pt" x="100.708" y="262">11</text><rect x="125.771" y="10" width="16.267" height="240" fill="rgba(100,200,100,0.4)" stroke="none"/><text stroke-width="1" fill="green" stroke="none" font-size="8pt" x="125.771" y="262">16</text><rect x="155.972" y="10" width="16.267" height="240" fill="rgba(100,200,100,0.4)" stroke="none"/><text stroke-width="1" fill="green" stroke="none" font-size="8pt" x="155.972" y="262">16</text><rect x="186.173" y="10" width="16.267" height="240" fill="rgba(100,200,100,0.4)" stroke="none"/><text stroke-width="1" fill="green" stroke="none" font-size="8pt" x="186.173" y="262">16</text><rect x="216.374" y="10" width="16.267" height="240" fill="rgba(100,200,100,0.4)" stroke="none"/><text stroke-width="1" fill="green" stroke="none" font-size="8pt" x="216.374" y="262">16</text><rect x="246.575" y="10" width="16.267" height="240" fill="rgba(100,200,100,0.4)" stroke="none"/><text stroke-width="1" fill="green" stroke="none" font-size="8pt" x="246.575" y="262">16</text><rect x="276.777" y="10" width="16.267" height="240" fill="rgba(100,200,100,0.4)" stroke="none"/><text stroke-width="1" fill="green" stroke="none" font-size="8pt" x="276.777" y="262">16</text><rect x="306.978" y="10" width="16.267" height="240" fill="rgba(100,200,100,0.4)" stroke="none"/><text stroke-width="1" fill="green" stroke="none" font-size="8pt" x="306.978" y="262">16</text><rect x="337.179" y="10" width="32.574" height="240" fill="rgba(100,200,100,0.4)" stroke="none"/><text stroke-width="1" fill="green" stroke="none" font-size="8pt" x="337.179" y="262">33</text><text stroke-width="1" fill="red" stroke="none" font-size="8pt" x="61.635" y="277">Loss: 15.92 Shift: 0.00 Gap: 157.57</text></svg>