<svg xmlns="http://www.w3.org/2000/svg" stroke-width="0.3" stroke-dasharray="none" fill="black" stroke="black" font-family="Arial, sans-serif" font-size="10pt" font-weight="normal" font-style="normal" width="550" height="140" viewBox="0 0 550 140" style="width: 550px; height: 140px; border: none;"><g class="vf-stave" id="vf-auto15541" stroke-width="1" fill="#999999" stroke="#999999"><path fill="none" d="M0 40L540 40"/><path fill="none" d="M0 50L540 50"/><path fill="none" d="M0 60L540 60"/><path fill="none" d="M0 70L540 70"/><path fill="none" d="M0 80L540 80"/></g><g class="vf-stavebarline" id="vf-auto15542"><rect y="39.5" width="1" height="41" stroke="none"/></g><g class="vf-stavebarline" id="vf-auto15543"><rect x="540" y="39.5" width="1" height="41" stroke="none"/></g><g class="vf-stavenote" id="vf-auto15545"><g class="vf-stem" id="vf-auto15546" pointer-events="bounding-box"><path stroke-width="1.5" fill="none" d="M133.95 38L133.95 8"/></g><g class="vf-notehead" id="vf-auto15549" pointer-events="bounding-box"><path stroke="none" d="M126.697 45.054C130.291 45.054,134.7 41.741,134.7 38.315C134.7 36.237,133.071 34.946,130.768 34.946C126.332 34.946,122.766 38.231,122.766 41.685C122.766 43.791,124.507 45.054,126.697 45.054"/><path stroke="none" d="M115.935 34.063C115.224 34.063,114.731 34.336,114.075 34.692C113.801 34.829,113.5 35.185,113.144 35.185C113.062 35.185,112.98 35.185,112.953 35.157C112.679 35.075,112.543 34.802,112.543 34.473C112.543 33.652,112.789 24.159,112.789 23.42C112.789 22.982,112.433 22.791,112.05 22.791C111.53 22.791,110.901 23.146,110.819 23.803C110.819 23.803,110.846 29.193,110.928 34.692C110.354 34.282,109.67 34.063,108.931 34.063L108.685 34.063C107.946 34.063,107.481 34.336,106.852 34.692C106.523 34.829,106.25 35.185,105.894 35.185C105.812 35.185,105.785 35.185,105.703 35.157C105.429 35.075,105.265 34.802,105.265 34.473C105.265 33.652,105.538 24.159,105.538 23.42C105.538 22.982,105.183 22.791,104.8 22.791C104.225 22.791,103.596 23.146,103.568 23.803C103.568 23.803,103.76 46.348,104.034 46.703C104.17 46.867,104.28 46.895,104.389 46.895C104.526 46.895,104.635 46.813,104.635 46.813C105.867 46.183,106.852 45.089,107.755 44.405C109.205 43.393,110.299 42.326,111.065 41.368C111.12 44.323,111.202 46.566,111.339 46.703C111.448 46.867,111.558 46.895,111.64 46.895C111.776 46.895,111.886 46.813,111.886 46.813C113.09 46.183,114.047 45.089,114.95 44.46C118.507 41.97,119.766 39.562,119.766 37.756C119.766 35.54,118.015 34.09,116.181 34.063M106.195 43.666C106.086 43.748,105.921 43.776,105.867 43.776C105.538 43.776,105.429 43.393,105.429 43.146C105.429 43.146,105.292 40.821,105.292 39.289C105.292 38.659,105.347 38.194,105.374 38.03C105.62 37.237,107.235 36.06,108.165 36.06C109.369 36.06,109.752 37.401,109.752 38.386C109.752 40.602,107.973 42.572,106.195 43.666M113.445 43.666C113.309 43.748,113.172 43.776,113.09 43.776C112.789 43.776,112.679 43.393,112.679 43.146C112.679 43.146,112.543 40.438,112.543 38.933C112.543 38.495,112.543 38.14,112.597 38.03C112.816 37.237,114.485 36.06,115.415 36.06C115.826 36.06,116.127 36.17,116.373 36.443C116.729 36.936,116.975 37.592,116.975 38.386C116.975 40.602,115.224 42.572,113.445 43.666"/></g><path stroke="none" d="M142.831 34.955C142.831 34.955,143.87 31.108,143.87 27.935C143.87 22.881,141.764 18.135,139.237 14.092C137.159 10.89,135.474 7.409,134.828 3.534C134.688 2.888,134.379 2.635,133.958 2.635C133.537 2.635,133.2 2.747,133.2 3.253L133.2 12.912C135.867 13.39,139.714 18.893,141.174 22.319C141.764 23.695,142.129 25.998,142.129 28.384C142.129 30.21,141.848 32.119,141.174 33.944C141.09 34.169,141.034 34.365,141.034 34.534C141.034 35.18,141.455 35.545,141.68 35.713C141.932 35.882,142.634 35.629,142.831 34.955"/></g><g class="vf-stavenote" id="vf-auto15551"><g class="vf-stem" id="vf-auto15552" pointer-events="bounding-box"><path stroke-width="1.5" fill="none" d="M177.805 48L177.805 15"/></g><g class="vf-notehead" id="vf-auto15554" pointer-events="bounding-box"><path stroke="none" d="M170.552 55.054C174.146 55.054,178.555 51.741,178.555 48.315C178.555 46.237,176.926 44.946,174.623 44.946C170.187 44.946,166.621 48.231,166.621 51.685C166.621 53.791,168.362 55.054,170.552 55.054"/></g></g><g class="vf-stavenote" id="vf-auto15555"><g class="vf-notehead" id="vf-auto15559" pointer-events="bounding-box"><path stroke="none" d="M221.195 60.054C224.789 60.054,229.198 56.741,229.198 53.315C229.198 51.237,227.569 49.946,225.266 49.946C220.83 49.946,217.264 53.231,217.264 56.685C217.264 58.791,219.004 60.054,221.195 60.054"/></g></g><g class="vf-stavenote" id="vf-auto15561"><g class="vf-notehead" id="vf-auto15565" pointer-events="bounding-box"><path stroke="none" d="M265.05 60.054C268.644 60.054,273.053 56.741,273.053 53.315C273.053 51.237,271.424 49.946,269.121 49.946C264.685 49.946,261.119 53.231,261.119 56.685C261.119 58.791,262.859 60.054,265.05 60.054"/><path stroke="none" d="M257.626 50.349C257.9 50.239,258.119 49.911,258.119 49.692L258.119 46.874C258.119 46.683,257.982 46.573,257.818 46.573C257.763 46.573,257.708 46.573,257.626 46.6C257.626 46.6,256.833 46.929,256.641 46.956C256.367 46.956,256.094 46.765,256.094 46.464L256.094 41.648C256.094 41.402,255.848 41.211,255.547 41.211C255.164 41.211,254.917 41.402,254.917 41.648L254.917 46.765C254.863 47.148,254.753 47.668,254.398 47.914C253.932 48.187,252.592 48.735,251.908 48.899C251.579 48.899,251.443 48.434,251.443 48.105L251.443 43.372C251.443 43.153,251.169 42.934,250.895 42.934C250.512 42.934,250.266 43.153,250.266 43.372L250.266 48.707C250.266 49.254,250.02 49.637,249.801 49.747C249.555 49.884,248.761 50.185,248.761 50.185C248.488 50.267,248.296 50.595,248.296 50.814L248.296 53.632C248.296 53.851,248.406 53.988,248.652 53.988L248.734 53.933C248.761 53.933,249.363 53.687,249.664 53.55L249.719 53.495C250.02 53.495,250.266 53.906,250.266 54.207L250.266 58.119C250.266 58.557,250.075 58.912,249.828 59.022C249.61 59.104,248.761 59.46,248.761 59.46C248.488 59.542,248.296 59.843,248.296 60.089L248.296 62.88C248.296 63.126,248.406 63.235,248.652 63.235L248.734 63.208C248.761 63.208,249.309 62.962,249.664 62.852C249.719 62.798,249.746 62.798,249.801 62.798C250.075 62.798,250.266 63.235,250.266 63.427L250.266 68.27C250.266 68.516,250.512 68.707,250.786 68.707C251.169 68.707,251.443 68.516,251.443 68.27L251.443 62.798C251.443 62.278,251.634 62.004,251.853 61.922L254.233 60.937C254.233 60.937,254.288 60.937,254.288 60.937L254.37 60.91C254.726 60.91,254.917 61.375,254.917 61.621L254.917 66.546C254.917 66.792,255.164 66.984,255.437 66.984C255.848 66.984,256.094 66.792,256.094 66.546L256.094 60.937C256.094 60.636,256.258 60.171,256.532 60.034C256.805 59.925,257.626 59.596,257.626 59.596C257.9 59.487,258.119 59.186,258.119 58.94L258.119 56.149C258.119 55.958,257.982 55.821,257.818 55.821C257.763 55.821,257.708 55.821,257.626 55.876L256.614 56.259C256.367 56.259,256.094 56.012,256.094 55.547L256.094 51.881C256.094 51.607,256.285 50.869,256.614 50.732M254.917 56.778C254.671 57.572,252.838 58.338,251.908 58.338C251.689 58.338,251.497 58.283,251.443 58.146C251.361 57.982,251.333 57.134,251.333 56.176C251.333 54.973,251.361 53.577,251.443 53.276C251.525 52.592,253.331 51.772,254.315 51.772C254.589 51.772,254.835 51.854,254.917 52.018C254.999 52.209,255.082 53.194,255.082 54.261C255.082 55.328,254.999 56.423,254.917 56.778"/></g></g><g class="vf-stavenote" id="vf-auto15567"><g class="vf-notehead" id="vf-auto15571" pointer-events="bounding-box"><path stroke="none" d="M305.86 55.054C309.454 55.054,313.863 51.741,313.863 48.315C313.863 46.237,312.234 44.946,309.932 44.946C305.495 44.946,301.929 48.231,301.929 51.685C301.929 53.791,303.67 55.054,305.86 55.054"/></g></g><g class="vf-stavenote" id="vf-auto15574"><g class="vf-stem" id="vf-auto15575" pointer-events="bounding-box"><path stroke-width="1.5" fill="none" d="M508.145 38L508.145 8"/></g><g class="vf-notehead" id="vf-auto15578" pointer-events="bounding-box"><path stroke="none" d="M500.892 45.054C504.486 45.054,508.895 41.741,508.895 38.315C508.895 36.237,507.266 34.946,504.964 34.946C500.527 34.946,496.961 38.231,496.961 41.685C496.961 43.791,498.702 45.054,500.892 45.054"/><path stroke="none" d="M492.894 32.859C492.812 32.859,492.784 32.914,492.73 32.914C492.73 32.914,490.212 33.817,489.2 33.817C488.954 33.817,488.79 33.762,488.79 33.625L488.79 27.031C488.79 26.758,488.571 26.566,488.325 26.566L487.805 26.566C487.531 26.566,487.34 26.758,487.34 27.031L487.34 47.332C487.34 47.551,487.449 47.688,487.695 47.688L487.777 47.633C487.805 47.633,487.887 47.633,487.942 47.606C488.489 47.36,490.678 46.43,491.827 46.43C492.237 46.43,492.511 46.539,492.511 46.867L492.511 52.722C492.511 52.996,492.702 53.188,492.976 53.188L493.496 53.188C493.715 53.188,493.961 52.996,493.961 52.722L493.961 32.941C493.961 32.75,493.797 32.64,493.632 32.64C493.605 32.64,493.523 32.64,493.496 32.668M488.79 38.468C488.79 37.921,491.197 36.881,492.155 36.881C492.374 36.881,492.511 36.936,492.511 37.072L492.511 41.149C492.511 41.86,490.267 42.763,489.282 42.763C488.981 42.763,488.79 42.681,488.79 42.517"/></g><path stroke="none" d="M517.026 34.955C517.026 34.955,518.065 31.108,518.065 27.935C518.065 22.881,515.959 18.135,513.432 14.092C511.354 10.89,509.669 7.409,509.023 3.534C508.883 2.888,508.574 2.635,508.153 2.635C507.732 2.635,507.395 2.747,507.395 3.253L507.395 12.912C510.062 13.39,513.909 18.893,515.369 22.319C515.959 23.695,516.324 25.998,516.324 28.384C516.324 30.21,516.043 32.119,515.369 33.944C515.285 34.169,515.229 34.365,515.229 34.534C515.229 35.18,515.65 35.545,515.875 35.713C516.128 35.882,516.83 35.629,517.026 34.955"/></g><g class="vf-stavenote" id="vf-auto15581"><g class="vf-stem" id="vf-auto15582" pointer-events="bounding-box"><path stroke-width="1.5" fill="none" d="M33.572 77L33.572 110"/></g><g class="vf-notehead" id="vf-auto15584" pointer-events="bounding-box"><path stroke="none" d="M36.753 80.054C40.348 80.054,44.756 76.741,44.756 73.315C44.756 71.237,43.128 69.946,40.825 69.946C36.388 69.946,32.822 73.231,32.822 76.685C32.822 78.791,34.563 80.054,36.753 80.054"/><path stroke="none" d="M29.33 70.349C29.603 70.239,29.822 69.911,29.822 69.692L29.822 66.874C29.822 66.683,29.685 66.573,29.521 66.573C29.467 66.573,29.412 66.573,29.33 66.6C29.33 66.6,28.536 66.929,28.345 66.956C28.071 66.956,27.798 66.765,27.798 66.464L27.798 61.648C27.798 61.402,27.551 61.211,27.25 61.211C26.867 61.211,26.621 61.402,26.621 61.648L26.621 66.765C26.566 67.148,26.457 67.668,26.101 67.914C25.636 68.187,24.296 68.735,23.612 68.899C23.283 68.899,23.146 68.434,23.146 68.105L23.146 63.372C23.146 63.153,22.873 62.934,22.599 62.934C22.216 62.934,21.97 63.153,21.97 63.372L21.97 68.707C21.97 69.254,21.724 69.637,21.505 69.747C21.259 69.884,20.465 70.185,20.465 70.185C20.192 70.267,20 70.595,20 70.814L20 73.632C20 73.851,20.109 73.988,20.356 73.988L20.438 73.933C20.465 73.933,21.067 73.687,21.368 73.55L21.423 73.495C21.724 73.495,21.97 73.906,21.97 74.207L21.97 78.119C21.97 78.557,21.778 78.912,21.532 79.022C21.313 79.104,20.465 79.46,20.465 79.46C20.192 79.542,20 79.843,20 80.089L20 82.88C20 83.126,20.109 83.235,20.356 83.235L20.438 83.208C20.465 83.208,21.012 82.962,21.368 82.852C21.423 82.798,21.45 82.798,21.505 82.798C21.778 82.798,21.97 83.235,21.97 83.427L21.97 88.27C21.97 88.516,22.216 88.707,22.49 88.707C22.873 88.707,23.146 88.516,23.146 88.27L23.146 82.798C23.146 82.278,23.338 82.004,23.557 81.922L25.937 80.937C25.937 80.937,25.992 80.937,25.992 80.937L26.074 80.91C26.43 80.91,26.621 81.375,26.621 81.621L26.621 86.546C26.621 86.792,26.867 86.984,27.141 86.984C27.551 86.984,27.798 86.792,27.798 86.546L27.798 80.937C27.798 80.636,27.962 80.171,28.235 80.034C28.509 79.925,29.33 79.596,29.33 79.596C29.603 79.487,29.822 79.186,29.822 78.94L29.822 76.149C29.822 75.958,29.685 75.821,29.521 75.821C29.467 75.821,29.412 75.821,29.33 75.876L28.317 76.259C28.071 76.259,27.798 76.012,27.798 75.547L27.798 71.881C27.798 71.607,27.989 70.869,28.317 70.732M26.621 76.778C26.375 77.572,24.542 78.338,23.612 78.338C23.393 78.338,23.201 78.283,23.146 78.146C23.064 77.982,23.037 77.134,23.037 76.176C23.037 74.973,23.064 73.577,23.146 73.276C23.228 72.592,25.034 71.772,26.019 71.772C26.293 71.772,26.539 71.854,26.621 72.018C26.703 72.209,26.785 73.194,26.785 74.261C26.785 75.328,26.703 76.423,26.621 76.778"/></g></g><g class="vf-stavenote" id="vf-auto15585"><g class="vf-notehead" id="vf-auto15589" pointer-events="bounding-box"><path stroke="none" d="M84.955 85.054C88.55 85.054,92.958 81.741,92.958 78.315C92.958 76.237,91.33 74.946,89.027 74.946C84.59 74.946,81.024 78.231,81.024 81.685C81.024 83.791,82.765 85.054,84.955 85.054"/></g></g><g class="vf-stavenote" id="vf-auto15591"><g class="vf-notehead" id="vf-auto15595" pointer-events="bounding-box"><path stroke="none" d="M126.697 90.054C130.291 90.054,134.7 86.741,134.7 83.315C134.7 81.237,133.071 79.946,130.768 79.946C126.332 79.946,122.766 83.231,122.766 86.685C122.766 88.791,124.507 90.054,126.697 90.054"/></g></g><g class="vf-stavenote" id="vf-auto15598"><path stroke-width="1.4" fill="none" stroke="#444" d="M298.929 90L316.863 90"/><g class="vf-stem" id="vf-auto15599" pointer-events="bounding-box"><path stroke-width="1.5" fill="none" d="M302.679 92L302.679 122"/></g><g class="vf-notehead" id="vf-auto15602" pointer-events="bounding-box"><path stroke="none" d="M305.86 95.054C309.454 95.054,313.863 91.741,313.863 88.315C313.863 86.237,312.234 84.946,309.932 84.946C305.495 84.946,301.929 88.231,301.929 91.685C301.929 93.791,303.67 95.054,305.86 95.054"/><path stroke="none" d="M290.502 96.703C290.639 96.867,290.748 96.895,290.858 96.895C290.994 96.895,291.104 96.813,291.104 96.813C292.28 96.156,293.238 95.089,294.223 94.405C297.725 91.97,298.929 89.562,298.929 87.756C298.929 85.513,297.205 84.09,295.399 83.981C294.715 83.981,293.785 84.282,293.238 84.637C292.992 84.829,292.554 85.185,292.362 85.185C292.28 85.185,292.253 85.185,292.171 85.157C291.897 85.048,291.733 84.747,291.733 84.473C291.76 83.625,292.007 74.159,292.007 73.365C292.007 72.927,291.651 72.708,291.268 72.708C290.693 72.708,290.064 73.092,290.037 73.803C290.037 73.803,290.201 96.293,290.502 96.703M291.897 93.201C291.897 93.201,291.76 90.821,291.76 89.261C291.76 88.632,291.815 88.14,291.843 88.003C292.116 87.209,293.703 86.06,294.606 86.06C295.755 86.06,296.22 87.373,296.22 88.358C296.22 90.465,294.414 92.599,292.718 93.666C292.554 93.748,292.444 93.776,292.335 93.776C291.979 93.776,291.897 93.393,291.897 93.201"/></g><path stroke="none" d="M311.644 95.213C312.234 98.611,312.234 102.29,310.69 105.435C307.91 111.107,304.624 111.219,302.125 111.303L301.929 111.303L301.929 126.972C301.929 127.168,302.21 127.365,302.603 127.365C302.912 127.365,303.333 127.281,303.417 126.832C304.4 120.598,312.375 118.885,313.329 112.511C313.413 112.09,313.442 111.584,313.442 111.079C313.442 108.608,312.571 106.165,312.431 105.94C312.403 105.856,312.403 105.772,312.403 105.659C312.403 105.491,312.431 105.406,312.431 105.294C313.891 102.262,313.947 98.302,313.301 95.045C313.077 94.118,312.796 94.174,312.318 94.174C311.841 94.203,311.504 94.54,311.644 95.213M311.055 108.551C311.279 108.551,311.56 108.692,311.588 108.832C311.785 109.141,311.785 109.534,311.869 109.843C311.925 110.152,311.925 110.433,311.925 110.657C311.925 112.005,311.56 113.213,310.83 114.252C309.482 116.245,306.899 118.52,304.428 118.52L304.119 118.52C303.782 118.52,303.557 118.295,303.557 118.099C303.557 118.071,303.557 118.014,303.585 117.986C304.428 114.673,306.702 113.746,308.612 111.5C309.454 110.573,310.128 109.787,310.774 108.72C310.858 108.608,310.942 108.551,311.055 108.551"/></g><g class="vf-stavenote" id="vf-auto15604"><path stroke-width="1.4" fill="none" stroke="#444" d="M339.739 90L357.673 90"/><g class="vf-stem" id="vf-auto15605" pointer-events="bounding-box"><path stroke-width="1.5" fill="none" d="M343.489 92.65L343.489 125"/></g><g class="vf-notehead" id="vf-auto15607" pointer-events="bounding-box"><path stroke="none" d="M346.67 95.054C353.325 95.054,354.673 89.635,354.673 88.315C354.673 86.237,353.016 84.946,350.658 84.946C344.648 84.946,342.739 89.607,342.739 91.685C342.739 93.847,344.424 95.054,346.67 95.054M345.772 93.51C344.929 93.51,344.424 93.061,344.143 92.583C344.031 92.359,343.918 92.05,343.918 91.769C343.918 89.803,349.787 86.602,351.668 86.602C352.455 86.602,352.876 86.967,353.185 87.445C353.297 87.697,353.409 87.95,353.409 88.231C353.409 89.972,347.709 93.51,345.772 93.51"/><path stroke="none" d="M339.247 85.349C339.52 85.239,339.739 84.911,339.739 84.692L339.739 81.874C339.739 81.683,339.602 81.573,339.438 81.573C339.383 81.573,339.329 81.573,339.247 81.6C339.247 81.6,338.453 81.929,338.262 81.956C337.988 81.956,337.714 81.765,337.714 81.464L337.714 76.648C337.714 76.402,337.468 76.211,337.167 76.211C336.784 76.211,336.538 76.402,336.538 76.648L336.538 81.765C336.483 82.148,336.374 82.668,336.018 82.914C335.553 83.187,334.212 83.735,333.528 83.899C333.2 83.899,333.063 83.434,333.063 83.105L333.063 78.372C333.063 78.153,332.79 77.934,332.516 77.934C332.133 77.934,331.887 78.153,331.887 78.372L331.887 83.707C331.887 84.254,331.64 84.637,331.422 84.747C331.175 84.884,330.382 85.185,330.382 85.185C330.108 85.267,329.917 85.595,329.917 85.814L329.917 88.632C329.917 88.851,330.026 88.988,330.272 88.988L330.355 88.933C330.382 88.933,330.984 88.687,331.285 88.55L331.339 88.495C331.64 88.495,331.887 88.906,331.887 89.207L331.887 93.119C331.887 93.557,331.695 93.912,331.449 94.022C331.23 94.104,330.382 94.46,330.382 94.46C330.108 94.542,329.917 94.843,329.917 95.089L329.917 97.88C329.917 98.126,330.026 98.235,330.272 98.235L330.355 98.208C330.382 98.208,330.929 97.962,331.285 97.852C331.339 97.798,331.367 97.798,331.422 97.798C331.695 97.798,331.887 98.235,331.887 98.427L331.887 103.27C331.887 103.516,332.133 103.707,332.407 103.707C332.79 103.707,333.063 103.516,333.063 103.27L333.063 97.798C333.063 97.278,333.255 97.004,333.474 96.922L335.854 95.937C335.854 95.937,335.909 95.937,335.909 95.937L335.991 95.91C336.346 95.91,336.538 96.375,336.538 96.621L336.538 101.546C336.538 101.792,336.784 101.984,337.058 101.984C337.468 101.984,337.714 101.792,337.714 101.546L337.714 95.937C337.714 95.636,337.879 95.171,338.152 95.034C338.426 94.925,339.247 94.596,339.247 94.596C339.52 94.487,339.739 94.186,339.739 93.94L339.739 91.149C339.739 90.958,339.602 90.821,339.438 90.821C339.383 90.821,339.329 90.821,339.247 90.876L338.234 91.259C337.988 91.259,337.714 91.012,337.714 90.547L337.714 86.881C337.714 86.607,337.906 85.869,338.234 85.732M336.538 91.778C336.292 92.572,334.459 93.338,333.528 93.338C333.309 93.338,333.118 93.283,333.063 93.146C332.981 92.982,332.954 92.134,332.954 91.176C332.954 89.973,332.981 88.577,333.063 88.276C333.145 87.592,334.951 86.772,335.936 86.772C336.21 86.772,336.456 86.854,336.538 87.018C336.62 87.209,336.702 88.194,336.702 89.261C336.702 90.328,336.62 91.423,336.538 91.778"/></g></g><g class="vf-stavenote" id="vf-auto15608"><g class="vf-stem" id="vf-auto15609" pointer-events="bounding-box"><path stroke-width="1.5" fill="none" d="M407.767 87L407.767 120"/></g><g class="vf-notehead" id="vf-auto15611" pointer-events="bounding-box"><path stroke="none" d="M410.949 90.054C414.543 90.054,418.951 86.741,418.951 83.315C418.951 81.237,417.323 79.946,415.02 79.946C410.584 79.946,407.017 83.231,407.017 86.685C407.017 88.791,408.758 90.054,410.949 90.054"/></g></g><g class="vf-stavenote" id="vf-auto15612"><g class="vf-notehead" id="vf-auto15616" pointer-events="bounding-box"><path stroke="none" d="M459.151 80.054C462.745 80.054,467.154 76.741,467.154 73.315C467.154 71.237,465.525 69.946,463.222 69.946C458.786 69.946,455.22 73.231,455.22 76.685C455.22 78.791,456.96 80.054,459.151 80.054"/><path stroke="none" d="M451.152 67.859C451.07 67.859,451.043 67.914,450.988 67.914C450.988 67.914,448.471 68.817,447.459 68.817C447.213 68.817,447.048 68.762,447.048 68.625L447.048 62.031C447.048 61.758,446.83 61.566,446.583 61.566L446.064 61.566C445.79 61.566,445.598 61.758,445.598 62.031L445.598 82.332C445.598 82.551,445.708 82.688,445.954 82.688L446.036 82.633C446.064 82.633,446.146 82.633,446.2 82.606C446.748 82.36,448.936 81.43,450.085 81.43C450.496 81.43,450.769 81.539,450.769 81.867L450.769 87.722C450.769 87.996,450.961 88.188,451.235 88.188L451.754 88.188C451.973 88.188,452.22 87.996,452.22 87.722L452.22 67.941C452.22 67.75,452.055 67.64,451.891 67.64C451.864 67.64,451.782 67.64,451.754 67.668M447.048 73.468C447.048 72.921,449.456 71.881,450.414 71.881C450.633 71.881,450.769 71.936,450.769 72.072L450.769 76.149C450.769 76.86,448.526 77.763,447.541 77.763C447.24 77.763,447.048 77.681,447.048 77.517"/></g></g><g class="vf-stavenote" id="vf-auto15618"><g class="vf-notehead" id="vf-auto15622" pointer-events="bounding-box"><path stroke="none" d="M500.892 85.054C504.486 85.054,508.895 81.741,508.895 78.315C508.895 76.237,507.266 74.946,504.964 74.946C500.527 74.946,496.961 78.231,496.961 81.685C496.961 83.791,498.702 85.054,500.892 85.054"/></g></g><g class="vf-stem" id="vf-auto15556" pointer-events="bounding-box"><path stroke-width="1.5" fill="none" d="M228.448 53L228.448 19.983"/></g><g class="vf-stem" id="vf-auto15562" pointer-events="bounding-box"><path stroke-width="1.5" fill="none" d="M272.303 53L272.303 17.791"/></g><g class="vf-stem" id="vf-auto15568" pointer-events="bounding-box"><path stroke-width="1.5" fill="none" d="M313.113 48L313.113 15.75"/></g><g class="vf-beam" id="vf-auto15639"><path stroke="none" d="M227.698 19.271L227.698 24.271L313.363 20.037L313.363 15.037Z"/><path stroke="none" d="M271.553 24.578L271.553 29.578L313.363 27.537L313.363 22.537Z"/></g><g class="vf-stem" id="vf-auto15586" pointer-events="bounding-box"><path stroke-width="1.5" fill="none" d="M81.774 82L81.774 116.119"/></g><g class="vf-stem" id="vf-auto15592" pointer-events="bounding-box"><path stroke-width="1.5" fill="none" d="M123.516 87L123.516 119.25"/></g><g class="vf-beam" id="vf-auto15640"><path stroke="none" d="M81.024 116.813L81.024 111.813L123.766 114.944L123.766 119.944Z"/></g><g class="vf-stem" id="vf-auto15613" pointer-events="bounding-box"><path stroke-width="1.5" fill="none" d="M455.97 77L455.97 111.119"/></g><g class="vf-stem" id="vf-auto15619" pointer-events="bounding-box"><path stroke-width="1.5" fill="none" d="M497.711 82L497.711 114.25"/></g><g class="vf-beam" id="vf-auto15641"><path stroke="none" d="M455.22 111.813L455.22 106.813L497.961 109.944L497.961 114.944Z"/></g></svg>