<svg xmlns="http://www.w3.org/2000/svg" stroke-width="0.3" stroke-dasharray="none" fill="black" stroke="black" font-family="Arial, sans-serif" font-size="10pt" font-weight="normal" font-style="normal" width="450" height="200" viewBox="0 0 450 200" style="width: 450px; height: 200px; border: none;"><g class="vf-stave" id="vf-auto19916" stroke-width="1" fill="#999999" stroke="#999999"><path fill="none" d="M0 80L440 80"/><path fill="none" d="M0 90L440 90"/><path fill="none" d="M0 100L440 100"/><path fill="none" d="M0 110L440 110"/><path fill="none" d="M0 120L440 120"/></g><g class="vf-stavebarline" id="vf-auto19917"><rect y="79.5" width="1" height="41" stroke="none"/></g><g class="vf-stavebarline" id="vf-auto19918"><rect x="440" y="79.5" width="1" height="41" stroke="none"/></g><g class="vf-stavenote" id="vf-auto19919"><g class="vf-notehead" id="vf-auto20044" pointer-events="bounding-box"><path stroke="none" d="M17 96.685C17 98.426,18.264 100.391,21.521 100.391C25.733 100.391,30.141 96.938,30.141 93.371C30.141 90.985,28.12 89.665,25.621 89.665C21.689 89.665,17 92.978,17 96.685"/></g></g><g class="vf-stavenote" id="vf-auto19925"><g class="vf-notehead" id="vf-auto20046" pointer-events="bounding-box"><path stroke="none" d="M35.886 96.685C35.886 98.426,37.149 100.391,40.406 100.391C44.618 100.391,49.027 96.938,49.027 93.371C49.027 90.985,47.005 89.665,44.506 89.665C40.575 89.665,35.886 92.978,35.886 96.685"/></g></g><g class="vf-stavenote" id="vf-auto19931"><g class="vf-notehead" id="vf-auto20048" pointer-events="bounding-box"><path stroke="none" d="M54.771 96.685C54.771 98.426,56.035 100.391,59.292 100.391C63.504 100.391,67.912 96.938,67.912 93.371C67.912 90.985,65.891 89.665,63.392 89.665C59.46 89.665,54.771 92.978,54.771 96.685"/></g></g><g class="vf-stavenote" id="vf-auto19937"><g class="vf-notehead" id="vf-auto20050" pointer-events="bounding-box"><path stroke="none" d="M73.657 96.685C73.657 98.426,74.92 100.391,78.177 100.391C82.389 100.391,86.798 96.938,86.798 93.371C86.798 90.985,84.776 89.665,82.277 89.665C78.346 89.665,73.657 92.978,73.657 96.685"/></g></g><g class="vf-stavenote" id="vf-auto19943"><g class="vf-notehead" id="vf-auto20052" pointer-events="bounding-box"><path stroke="none" d="M92.542 96.685C92.542 98.426,93.806 100.391,97.063 100.391C101.275 100.391,105.683 96.938,105.683 93.371C105.683 90.985,103.662 89.665,101.163 89.665C97.231 89.665,92.542 92.978,92.542 96.685"/></g></g><g class="vf-stavenote" id="vf-auto19949"><g class="vf-notehead" id="vf-auto20054" pointer-events="bounding-box"><path stroke="none" d="M111.428 96.685C111.428 98.426,112.691 100.391,115.948 100.391C120.16 100.391,124.569 96.938,124.569 93.371C124.569 90.985,122.547 89.665,120.048 89.665C116.117 89.665,111.428 92.978,111.428 96.685"/></g></g><g class="vf-stavenote" id="vf-auto19955"><g class="vf-notehead" id="vf-auto20056" pointer-events="bounding-box"><path stroke="none" d="M130.313 96.685C130.313 98.426,131.577 100.391,134.834 100.391C139.046 100.391,143.454 96.938,143.454 93.371C143.454 90.985,141.433 89.665,138.934 89.665C135.002 89.665,130.313 92.978,130.313 96.685"/></g></g><g class="vf-stavenote" id="vf-auto19961"><g class="vf-notehead" id="vf-auto20058" pointer-events="bounding-box"><path stroke="none" d="M149.199 96.685C149.199 98.426,150.462 100.391,153.719 100.391C157.931 100.391,162.34 96.938,162.34 93.371C162.34 90.985,160.318 89.665,157.819 89.665C153.888 89.665,149.199 92.978,149.199 96.685"/></g></g><g class="vf-stavenote" id="vf-auto19967"><path stroke-width="1.4" fill="none" stroke="#444" d="M165.084 70L184.225 70"/><g class="vf-notehead" id="vf-auto20060" pointer-events="bounding-box"><path stroke="none" d="M168.084 71.685C168.084 73.426,169.348 75.391,172.605 75.391C176.817 75.391,181.225 71.938,181.225 68.371C181.225 65.985,179.204 64.665,176.705 64.665C172.773 64.665,168.084 67.978,168.084 71.685"/></g></g><g class="vf-stavenote" id="vf-auto19973"><g class="vf-notehead" id="vf-auto20062" pointer-events="bounding-box"><path stroke="none" d="M192.378 76.685C192.378 78.426,193.642 80.391,196.899 80.391C201.111 80.391,205.52 76.938,205.52 73.371C205.52 70.985,203.498 69.665,200.999 69.665C197.068 69.665,192.378 72.978,192.378 76.685"/></g></g><g class="vf-stavenote" id="vf-auto19979"><g class="vf-notehead" id="vf-auto20066" pointer-events="bounding-box"><path stroke="none" d="M216.673 121.685C216.673 123.426,217.936 125.391,221.193 125.391C225.405 125.391,229.814 121.938,229.814 118.371C229.814 115.985,227.792 114.665,225.293 114.665C221.362 114.665,216.673 117.978,216.673 121.685"/></g><g class="vf-notehead" id="vf-auto20065" pointer-events="bounding-box"><path stroke="none" d="M216.673 111.685C216.673 113.426,217.936 115.391,221.193 115.391C225.405 115.391,229.814 111.938,229.814 108.371C229.814 105.985,227.792 104.665,225.293 104.665C221.362 104.665,216.673 107.978,216.673 111.685"/></g><g class="vf-notehead" id="vf-auto20064" pointer-events="bounding-box"><path stroke="none" d="M216.673 101.685C216.673 103.426,217.936 105.391,221.193 105.391C225.405 105.391,229.814 101.938,229.814 98.371C229.814 95.985,227.792 94.665,225.293 94.665C221.362 94.665,216.673 97.978,216.673 101.685"/></g></g><g class="vf-stavenote" id="vf-auto19989"><g class="vf-notehead" id="vf-auto20068" pointer-events="bounding-box"><path stroke="none" d="M237.711 86.685C237.711 88.426,238.974 90.391,242.231 90.391C246.443 90.391,250.852 86.938,250.852 83.371C250.852 80.985,248.83 79.665,246.331 79.665C242.4 79.665,237.711 82.978,237.711 86.685"/></g></g><g class="vf-stavenote" id="vf-auto19995"><g class="vf-notehead" id="vf-auto20070" pointer-events="bounding-box"><path stroke="none" d="M258.748 91.685C258.748 93.426,260.012 95.391,263.269 95.391C267.481 95.391,271.89 91.938,271.89 88.371C271.89 85.985,269.868 84.665,267.369 84.665C263.438 84.665,258.748 87.978,258.748 91.685"/></g></g><g class="vf-stavenote" id="vf-auto20001"><g class="vf-notehead" id="vf-auto20072" pointer-events="bounding-box"><path stroke="none" d="M283.043 86.685C283.043 88.426,284.306 90.391,287.564 90.391C291.776 90.391,296.184 86.938,296.184 83.371C296.184 80.985,294.162 79.665,291.663 79.665C287.732 79.665,283.043 82.978,283.043 86.685"/></g></g><g class="vf-stavenote" id="vf-auto20007"><g class="vf-notehead" id="vf-auto20074" pointer-events="bounding-box"><path stroke="none" d="M307.337 76.685C307.337 78.426,308.601 80.391,311.858 80.391C316.07 80.391,320.478 76.938,320.478 73.371C320.478 70.985,318.457 69.665,315.958 69.665C312.026 69.665,307.337 72.978,307.337 76.685"/></g></g><g class="vf-stavenote" id="vf-auto20013"><path stroke-width="1.4" fill="none" stroke="#444" d="M328.631 70L347.773 70"/><path stroke-width="1.4" fill="none" stroke="#444" d="M328.631 60L347.773 60"/><path stroke-width="1.4" fill="none" stroke="#444" d="M328.631 50L347.773 50"/><path stroke-width="1.4" fill="none" stroke="#444" d="M328.631 40L347.773 40"/><g class="vf-notehead" id="vf-auto20076" pointer-events="bounding-box"><path stroke="none" d="M331.631 36.685C331.631 38.426,332.895 40.391,336.152 40.391C340.364 40.391,344.773 36.938,344.773 33.371C344.773 30.985,342.751 29.665,340.252 29.665C336.321 29.665,331.631 32.978,331.631 36.685"/></g></g><g class="vf-stavenote" id="vf-auto20019"><path stroke-width="1.4" fill="none" stroke="#444" d="M348.209 70L367.35 70"/><path stroke-width="1.4" fill="none" stroke="#444" d="M348.209 60L367.35 60"/><path stroke-width="1.4" fill="none" stroke="#444" d="M348.209 50L367.35 50"/><path stroke-width="1.4" fill="none" stroke="#444" d="M348.209 40L367.35 40"/><g class="vf-notehead" id="vf-auto20078" pointer-events="bounding-box"><path stroke="none" d="M351.209 36.685C351.209 38.426,352.472 40.391,355.729 40.391C359.941 40.391,364.35 36.938,364.35 33.371C364.35 30.985,362.328 29.665,359.829 29.665C355.898 29.665,351.209 32.978,351.209 36.685"/></g></g><g class="vf-stavenote" id="vf-auto20025"><path stroke-width="1.4" fill="none" stroke="#444" d="M367.786 70L386.927 70"/><path stroke-width="1.4" fill="none" stroke="#444" d="M367.786 60L386.927 60"/><path stroke-width="1.4" fill="none" stroke="#444" d="M367.786 50L386.927 50"/><path stroke-width="1.4" fill="none" stroke="#444" d="M367.786 40L386.927 40"/><g class="vf-notehead" id="vf-auto20080" pointer-events="bounding-box"><path stroke="none" d="M370.786 36.685C370.786 38.426,372.049 40.391,375.307 40.391C379.519 40.391,383.927 36.938,383.927 33.371C383.927 30.985,381.906 29.665,379.406 29.665C375.475 29.665,370.786 32.978,370.786 36.685"/></g></g><g class="vf-stavenote" id="vf-auto20031"><g class="vf-notehead" id="vf-auto20082" pointer-events="bounding-box"><path stroke="none" d="M390.363 111.685C390.363 113.426,391.627 115.391,394.884 115.391C399.096 115.391,403.505 111.938,403.505 108.371C403.505 105.985,401.483 104.665,398.984 104.665C395.053 104.665,390.363 107.978,390.363 111.685"/></g></g><g class="vf-stavenote" id="vf-auto20037"><g class="vf-notehead" id="vf-auto20084" pointer-events="bounding-box"><path stroke="none" d="M409.249 111.685C409.249 113.426,410.512 115.391,413.77 115.391C417.982 115.391,422.39 111.938,422.39 108.371C422.39 105.985,420.368 104.665,417.869 104.665C413.938 104.665,409.249 107.978,409.249 111.685"/></g></g><g class="vf-stem" id="vf-auto19920" pointer-events="bounding-box"><path stroke-width="1.5" fill="none" d="M17.75 97L17.75 154.25"/></g><g class="vf-stem" id="vf-auto19926" pointer-events="bounding-box"><path stroke-width="1.5" fill="none" d="M36.636 97L36.636 154.25"/></g><g class="vf-stem" id="vf-auto19932" pointer-events="bounding-box"><path stroke-width="1.5" fill="none" d="M55.521 97L55.521 154.25"/></g><g class="vf-stem" id="vf-auto19938" pointer-events="bounding-box"><path stroke-width="1.5" fill="none" d="M74.407 97L74.407 154.25"/></g><g class="vf-stem" id="vf-auto19944" pointer-events="bounding-box"><path stroke-width="1.5" fill="none" d="M93.292 97L93.292 154.25"/></g><g class="vf-stem" id="vf-auto19950" pointer-events="bounding-box"><path stroke-width="1.5" fill="none" d="M112.178 97L112.178 154.25"/></g><g class="vf-stem" id="vf-auto19956" pointer-events="bounding-box"><path stroke-width="1.5" fill="none" d="M131.063 97L131.063 154.25"/></g><g class="vf-stem" id="vf-auto19962" pointer-events="bounding-box"><path stroke-width="1.5" fill="none" d="M149.949 97L149.949 154.25"/></g><g class="vf-stem" id="vf-auto19968" pointer-events="bounding-box"><path stroke-width="1.5" fill="none" d="M168.834 72L168.834 154.25"/></g><g class="vf-beam" id="vf-auto20086"><path stroke="none" d="M17 155L17 150L169.084 150L169.084 155Z"/><path stroke="none" d="M17 147.5L17 142.5L150.199 142.5L150.199 147.5Z"/><path stroke="none" d="M17 140L17 135L150.199 135L150.199 140Z"/><path stroke="none" d="M17 132.5L17 127.5L150.199 127.5L150.199 132.5Z"/></g><g class="vf-stem" id="vf-auto19974" pointer-events="bounding-box"><path stroke-width="1.5" fill="none" d="M193.128 77L193.128 154.25"/></g><g class="vf-stem" id="vf-auto19980" pointer-events="bounding-box"><path stroke-width="1.5" fill="none" d="M217.423 102L217.423 154.25"/></g><g class="vf-stem" id="vf-auto19990" pointer-events="bounding-box"><path stroke-width="1.5" fill="none" d="M238.461 87L238.461 154.25"/></g><g class="vf-beam" id="vf-auto20087"><path stroke="none" d="M192.378 155L192.378 150L238.711 150L238.711 155Z"/><path stroke="none" d="M216.673 147.5L216.673 142.5L238.711 142.5L238.711 147.5Z"/></g><g class="vf-stem" id="vf-auto19996" pointer-events="bounding-box"><path stroke-width="1.5" fill="none" d="M259.498 92L259.498 154.25"/></g><g class="vf-stem" id="vf-auto20002" pointer-events="bounding-box"><path stroke-width="1.5" fill="none" d="M283.793 87L283.793 154.25"/></g><g class="vf-beam" id="vf-auto20088"><path stroke="none" d="M258.748 155L258.748 150L284.043 150L284.043 155Z"/></g><g class="vf-stem" id="vf-auto20008" pointer-events="bounding-box"><path stroke-width="1.5" fill="none" d="M308.087 77L308.087 154.25"/></g><g class="vf-stem" id="vf-auto20014" pointer-events="bounding-box"><path stroke-width="1.5" fill="none" d="M332.381 37L332.381 154.25"/></g><g class="vf-stem" id="vf-auto20020" pointer-events="bounding-box"><path stroke-width="1.5" fill="none" d="M351.959 37L351.959 154.25"/></g><g class="vf-stem" id="vf-auto20026" pointer-events="bounding-box"><path stroke-width="1.5" fill="none" d="M371.536 37L371.536 154.25"/></g><g class="vf-stem" id="vf-auto20032" pointer-events="bounding-box"><path stroke-width="1.5" fill="none" d="M391.113 112L391.113 154.25"/></g><g class="vf-stem" id="vf-auto20038" pointer-events="bounding-box"><path stroke-width="1.5" fill="none" d="M409.999 112L409.999 154.25"/></g><g class="vf-beam" id="vf-auto20089"><path stroke="none" d="M307.337 155L307.337 150L410.249 150L410.249 155Z"/><path stroke="none" d="M331.631 147.5L331.631 142.5L410.249 142.5L410.249 147.5Z"/><path stroke="none" d="M331.631 140L331.631 135L410.249 135L410.249 140Z"/><path stroke="none" d="M390.363 132.5L390.363 127.5L410.249 127.5L410.249 132.5Z"/></g></svg>