<svg xmlns="http://www.w3.org/2000/svg" stroke-width="0.3" stroke-dasharray="none" fill="black" stroke="black" font-family="Arial, sans-serif" font-size="10pt" font-weight="normal" font-style="normal" width="700" height="150" viewBox="0 0 700 150" style="width: 700px; height: 150px; border: none;"><g class="vf-stave" id="vf-auto18490" stroke-width="1" fill="#999999" stroke="#999999"><path fill="none" d="M0 40L690 40"/><path fill="none" d="M0 50L690 50"/><path fill="none" d="M0 60L690 60"/><path fill="none" d="M0 70L690 70"/><path fill="none" d="M0 80L690 80"/></g><g class="vf-stavebarline" id="vf-auto18491"><rect y="39.5" width="1" height="41" stroke="none"/></g><g class="vf-stavebarline" id="vf-auto18492"><rect x="690" y="39.5" width="1" height="41" stroke="none"/></g><g class="vf-keysignature" id="vf-auto18493"><path stroke="none" d="M5.793 68.208C5.903 68.208,6.067 68.126,6.259 67.907C6.778 67.497,7.353 67.059,7.928 66.648C11.375 64.186,13.235 60.821,13.235 56.525C13.235 55.978,13.235 55.458,13.153 54.911C12.962 52.996,11.867 51.874,10.198 51.874C9.843 51.874,9.46 51.956,9.022 52.093C8.475 52.23,7.928 52.503,7.353 52.75L7.326 52.777L7.326 51.765C7.326 50.26,7.408 48.782,7.49 47.278C7.49 46.402,7.572 45.581,7.572 44.706C7.572 43.885,7.49 43.009,7.298 42.189C7.216 41.915,7.216 41.395,6.806 41.395L6.778 41.395C6.341 41.45,6.012 41.806,6.012 42.353C5.985 43.447,5.876 44.596,5.903 45.691L5.903 46.922C5.903 49.248,5.793 51.573,5.711 53.899C5.602 57.237,5.027 60.52,5.027 63.858C5.027 65.171,5.109 66.539,5.465 67.852C5.547 68.071,5.629 68.208,5.793 68.208M6.86 62.873C6.943 61.86,6.97 60.793,7.079 59.672C7.161 58.824,7.216 57.948,7.216 57.072L7.353 57.018C8.119 56.689,8.858 56.306,9.679 56.306C9.952 56.306,10.28 56.388,10.581 56.498C11.238 56.717,11.539 57.045,11.512 57.483C11.512 57.702,11.457 57.948,11.293 58.276C10.28 60.274,8.612 61.614,6.86 62.873"/><path stroke="none" d="M15.001 53.208C15.111 53.208,15.275 53.126,15.467 52.907C15.986 52.497,16.561 52.059,17.136 51.648C20.583 49.186,22.443 45.821,22.443 41.525C22.443 40.978,22.443 40.458,22.361 39.911C22.17 37.996,21.075 36.874,19.406 36.874C19.051 36.874,18.668 36.956,18.23 37.093C17.683 37.23,17.136 37.503,16.561 37.75L16.534 37.777L16.534 36.765C16.534 35.26,16.616 33.782,16.698 32.278C16.698 31.402,16.78 30.581,16.78 29.706C16.78 28.885,16.698 28.009,16.506 27.189C16.424 26.915,16.424 26.395,16.014 26.395L15.986 26.395C15.549 26.45,15.22 26.806,15.22 27.353C15.193 28.447,15.084 29.596,15.111 30.691L15.111 31.922C15.111 34.248,15.001 36.573,14.919 38.899C14.81 42.237,14.235 45.52,14.235 48.858C14.235 50.171,14.317 51.539,14.673 52.852C14.755 53.071,14.837 53.208,15.001 53.208M16.068 47.873C16.151 46.86,16.178 45.793,16.287 44.672C16.369 43.824,16.424 42.948,16.424 42.072L16.561 42.018C17.327 41.689,18.066 41.306,18.887 41.306C19.16 41.306,19.488 41.388,19.789 41.498C20.446 41.717,20.747 42.045,20.72 42.483C20.72 42.702,20.665 42.948,20.501 43.276C19.488 45.274,17.82 46.614,16.068 47.873"/><path stroke="none" d="M24.209 73.208C24.319 73.208,24.483 73.126,24.675 72.907C25.194 72.497,25.769 72.059,26.344 71.648C29.791 69.186,31.651 65.821,31.651 61.525C31.651 60.978,31.651 60.458,31.569 59.911C31.378 57.996,30.283 56.874,28.614 56.874C28.259 56.874,27.876 56.956,27.438 57.093C26.891 57.23,26.344 57.503,25.769 57.75L25.742 57.777L25.742 56.765C25.742 55.26,25.824 53.782,25.906 52.278C25.906 51.402,25.988 50.581,25.988 49.706C25.988 48.885,25.906 48.009,25.714 47.189C25.632 46.915,25.632 46.395,25.222 46.395L25.194 46.395C24.757 46.45,24.428 46.806,24.428 47.353C24.401 48.447,24.292 49.596,24.319 50.691L24.319 51.922C24.319 54.248,24.209 56.573,24.127 58.899C24.018 62.237,23.443 65.52,23.443 68.858C23.443 70.171,23.525 71.539,23.881 72.852C23.963 73.071,24.045 73.208,24.209 73.208M25.276 67.873C25.359 66.86,25.386 65.793,25.495 64.672C25.577 63.824,25.632 62.948,25.632 62.072L25.769 62.018C26.535 61.689,27.274 61.306,28.095 61.306C28.368 61.306,28.696 61.388,28.997 61.498C29.654 61.717,29.955 62.045,29.928 62.483C29.928 62.702,29.873 62.948,29.709 63.276C28.696 65.274,27.028 66.614,25.276 67.873"/><path stroke="none" d="M33.417 58.208C33.527 58.208,33.691 58.126,33.883 57.907C34.402 57.497,34.977 57.059,35.552 56.648C38.999 54.186,40.859 50.821,40.859 46.525C40.859 45.978,40.859 45.458,40.777 44.911C40.586 42.996,39.491 41.874,37.822 41.874C37.467 41.874,37.084 41.956,36.646 42.093C36.099 42.23,35.552 42.503,34.977 42.75L34.95 42.777L34.95 41.765C34.95 40.26,35.032 38.782,35.114 37.278C35.114 36.402,35.196 35.581,35.196 34.706C35.196 33.885,35.114 33.009,34.922 32.189C34.84 31.915,34.84 31.395,34.43 31.395L34.402 31.395C33.965 31.45,33.636 31.806,33.636 32.353C33.609 33.447,33.5 34.596,33.527 35.691L33.527 36.922C33.527 39.248,33.417 41.573,33.335 43.899C33.226 47.237,32.651 50.52,32.651 53.858C32.651 55.171,32.733 56.539,33.089 57.852C33.171 58.071,33.253 58.208,33.417 58.208M34.484 52.873C34.567 51.86,34.594 50.793,34.703 49.672C34.785 48.824,34.84 47.948,34.84 47.072L34.977 47.018C35.743 46.689,36.482 46.306,37.303 46.306C37.576 46.306,37.904 46.388,38.205 46.498C38.862 46.717,39.163 47.045,39.136 47.483C39.136 47.702,39.081 47.948,38.917 48.276C37.904 50.274,36.236 51.614,34.484 52.873"/></g><g class="vf-stavenote" id="vf-auto18494"><path stroke-width="1.4" fill="none" stroke="#444" d="M50.832 90L70.34 90"/><g class="vf-stem" id="vf-auto18495" pointer-events="bounding-box"><path stroke-width="1.5" fill="none" d="M66.59 88L66.59 55"/></g><g class="vf-notehead" id="vf-auto18497" pointer-events="bounding-box"><path stroke="none" d="M56.977 96.543C57.258 96.599,57.51 96.627,57.791 96.627C61.666 96.627,67.451 91.348,67.338 87.08C67.226 86.041,67.254 84.609,65.148 83.766C64.559 83.485,63.913 83.373,63.211 83.373C58.886 83.373,54.197 88.343,53.86 91.657C53.86 91.909,53.832 92.134,53.832 92.387C53.832 94.409,54.731 96.037,56.977 96.543"/></g></g><g class="vf-stavenote" id="vf-auto18498"><g class="vf-stem" id="vf-auto18499" pointer-events="bounding-box"><path stroke-width="1.5" fill="none" d="M148.318 83L148.318 50"/></g><g class="vf-notehead" id="vf-auto18501" pointer-events="bounding-box"><path stroke="none" d="M138.705 91.543C138.986 91.599,139.239 91.627,139.52 91.627C143.395 91.627,149.179 86.348,149.067 82.08C148.954 81.041,148.983 79.609,146.877 78.766C146.287 78.485,145.641 78.373,144.939 78.373C140.615 78.373,135.925 83.343,135.588 86.657C135.588 86.909,135.56 87.134,135.56 87.387C135.56 89.409,136.459 91.037,138.705 91.543"/><path stroke="none" d="M131.117 102.976C131.555 102.976,131.664 102.401,131.828 102.073C131.856 101.826,131.938 101.635,131.938 101.389C132.02 98.68,132.047 95.944,132.129 93.208C132.129 91.922,132.047 90.664,132.047 89.405C132.129 86.778,132.266 84.124,132.348 81.498C132.348 81.498,132.403 80.896,132.458 80.404L132.458 80.267L132.485 79.802L132.485 79.555L132.54 78.844C132.54 78.735,132.622 78.269,132.458 77.914C132.266 77.503,132.403 76.655,131.582 76.847C129.722 77.367,127.806 77.558,125.864 77.722C126.001 75.479,126.11 73.18,126.11 70.937C126.11 70.198,126.11 69.487,126.083 68.721C126.083 68.064,125.946 67.435,125.672 66.806C124.386 67.189,124.605 68.365,124.605 69.159C124.66 73.153,124.332 77.093,124.222 81.06C124.168 82.428,124.14 83.824,124.14 85.192C124.14 86.368,124.168 87.517,124.222 88.666C124.222 89.46,124.332 90.253,124.332 90.992C124.332 91.648,124.605 91.867,125.098 91.867C125.207 91.867,125.317 91.867,125.481 91.813L130.242 91.101L130.433 91.074L130.433 94.822C130.433 96.218,130.242 97.695,130.242 99.118C130.242 100.048,130.324 101.006,130.597 101.936C130.707 102.346,130.597 102.976,131.117 102.976M125.727 86.724C125.672 85.383,125.59 84.097,125.645 82.784L125.672 82.291C125.919 82.291,126.192 82.319,126.466 82.291C127.806 82.155,129.147 82.072,130.488 82.045L130.707 82.018L130.597 83.194C130.57 84.207,130.488 85.274,130.488 86.313C128.901 86.724,127.287 86.997,125.727 87.216"/></g></g><g class="vf-stavenote" id="vf-auto18502"><g class="vf-stem" id="vf-auto18503" pointer-events="bounding-box"><path stroke-width="1.5" fill="none" d="M230.047 78L230.047 45"/></g><g class="vf-notehead" id="vf-auto18505" pointer-events="bounding-box"><path stroke="none" d="M220.433 86.543C220.714 86.599,220.967 86.627,221.248 86.627C225.123 86.627,230.907 81.348,230.795 77.08C230.683 76.041,230.711 74.609,228.605 73.766C228.015 73.485,227.369 73.373,226.667 73.373C222.343 73.373,217.654 78.343,217.317 81.657C217.317 81.909,217.289 82.134,217.289 82.387C217.289 84.409,218.187 86.037,220.433 86.543"/><path stroke="none" d="M212.845 97.976C213.283 97.976,213.392 97.401,213.557 97.073C213.584 96.826,213.666 96.635,213.666 96.389C213.748 93.68,213.776 90.944,213.858 88.208C213.858 86.922,213.776 85.664,213.776 84.405C213.858 81.778,213.994 79.124,214.076 76.498C214.076 76.498,214.131 75.896,214.186 75.404L214.186 75.267L214.213 74.802L214.213 74.555L214.268 73.844C214.268 73.735,214.35 73.269,214.186 72.914C213.994 72.503,214.131 71.655,213.31 71.847C211.45 72.367,209.535 72.558,207.592 72.722C207.729 70.479,207.838 68.18,207.838 65.937C207.838 65.198,207.838 64.487,207.811 63.721C207.811 63.064,207.674 62.435,207.401 61.806C206.115 62.189,206.334 63.365,206.334 64.159C206.388 68.153,206.06 72.093,205.951 76.06C205.896 77.428,205.868 78.824,205.868 80.192C205.868 81.368,205.896 82.517,205.951 83.666C205.951 84.46,206.06 85.253,206.06 85.992C206.06 86.648,206.334 86.867,206.826 86.867C206.936 86.867,207.045 86.867,207.209 86.813L211.97 86.101L212.161 86.074L212.161 89.822C212.161 91.218,211.97 92.695,211.97 94.118C211.97 95.048,212.052 96.006,212.325 96.936C212.435 97.346,212.325 97.976,212.845 97.976M207.455 81.724C207.401 80.383,207.319 79.097,207.373 77.784L207.401 77.291C207.647 77.291,207.92 77.319,208.194 77.291C209.535 77.155,210.875 77.072,212.216 77.045L212.435 77.018L212.325 78.194C212.298 79.207,212.216 80.274,212.216 81.313C210.629 81.724,209.015 81.997,207.455 82.216"/></g></g><g class="vf-stavenote" id="vf-auto18506"><g class="vf-stem" id="vf-auto18507" pointer-events="bounding-box"><path stroke-width="1.5" fill="none" d="M311.775 73L311.775 40"/></g><g class="vf-notehead" id="vf-auto18509" pointer-events="bounding-box"><path stroke="none" d="M302.162 81.543C302.443 81.599,302.695 81.627,302.976 81.627C306.851 81.627,312.636 76.348,312.523 72.08C312.411 71.041,312.439 69.609,310.333 68.766C309.743 68.485,309.098 68.373,308.396 68.373C304.071 68.373,299.382 73.343,299.045 76.657C299.045 76.909,299.017 77.134,299.017 77.387C299.017 79.409,299.915 81.037,302.162 81.543"/></g></g><g class="vf-stavenote" id="vf-auto18510"><g class="vf-stem" id="vf-auto18511" pointer-events="bounding-box"><path stroke-width="1.5" fill="none" d="M393.503 68L393.503 35"/></g><g class="vf-notehead" id="vf-auto18513" pointer-events="bounding-box"><path stroke="none" d="M383.89 76.543C384.171 76.599,384.424 76.627,384.704 76.627C388.579 76.627,394.364 71.348,394.252 67.08C394.139 66.041,394.167 64.609,392.061 63.766C391.472 63.485,390.826 63.373,390.124 63.373C385.799 63.373,381.11 68.343,380.773 71.657C380.773 71.909,380.745 72.134,380.745 72.387C380.745 74.409,381.644 76.037,383.89 76.543"/></g></g><g class="vf-stavenote" id="vf-auto18514"><g class="vf-stem" id="vf-auto18515" pointer-events="bounding-box"><path stroke-width="1.5" fill="none" d="M475.231 63L475.231 30"/></g><g class="vf-notehead" id="vf-auto18517" pointer-events="bounding-box"><path stroke="none" d="M465.618 71.543C465.899 71.599,466.152 71.627,466.433 71.627C470.308 71.627,476.092 66.348,475.98 62.08C475.868 61.041,475.896 59.609,473.79 58.766C473.2 58.485,472.554 58.373,471.852 58.373C467.528 58.373,462.838 63.343,462.501 66.657C462.501 66.909,462.473 67.134,462.473 67.387C462.473 69.409,463.372 71.037,465.618 71.543"/><path stroke="none" d="M458.03 82.976C458.468 82.976,458.577 82.401,458.741 82.073C458.769 81.826,458.851 81.635,458.851 81.389C458.933 78.68,458.96 75.944,459.042 73.208C459.042 71.922,458.96 70.664,458.96 69.405C459.042 66.778,459.179 64.124,459.261 61.498C459.261 61.498,459.316 60.896,459.371 60.404L459.371 60.267L459.398 59.802L459.398 59.555L459.453 58.844C459.453 58.735,459.535 58.269,459.371 57.914C459.179 57.503,459.316 56.655,458.495 56.847C456.635 57.367,454.72 57.558,452.777 57.722C452.914 55.479,453.023 53.18,453.023 50.937C453.023 50.198,453.023 49.487,452.996 48.721C452.996 48.064,452.859 47.435,452.585 46.806C451.3 47.189,451.518 48.365,451.518 49.159C451.573 53.153,451.245 57.093,451.135 61.06C451.081 62.428,451.053 63.824,451.053 65.192C451.053 66.368,451.081 67.517,451.135 68.666C451.135 69.46,451.245 70.253,451.245 70.992C451.245 71.648,451.518 71.867,452.011 71.867C452.12 71.867,452.23 71.867,452.394 71.813L457.155 71.101L457.346 71.074L457.346 74.822C457.346 76.218,457.155 77.695,457.155 79.118C457.155 80.048,457.237 81.006,457.51 81.936C457.62 82.346,457.51 82.976,458.03 82.976M452.64 66.724C452.585 65.383,452.503 64.097,452.558 62.784L452.585 62.291C452.832 62.291,453.105 62.319,453.379 62.291C454.72 62.155,456.06 62.072,457.401 62.045L457.62 62.018L457.51 63.194C457.483 64.207,457.401 65.274,457.401 66.313C455.814 66.724,454.2 66.997,452.64 67.216"/></g></g><g class="vf-stavenote" id="vf-auto18518"><g class="vf-stem" id="vf-auto18519" pointer-events="bounding-box"><path stroke-width="1.5" fill="none" d="M556.96 58L556.96 25"/></g><g class="vf-notehead" id="vf-auto18521" pointer-events="bounding-box"><path stroke="none" d="M547.347 66.543C547.627 66.599,547.88 66.627,548.161 66.627C552.036 66.627,557.82 61.348,557.708 57.08C557.596 56.041,557.624 54.609,555.518 53.766C554.928 53.485,554.282 53.373,553.58 53.373C549.256 53.373,544.567 58.343,544.23 61.657C544.23 61.909,544.202 62.134,544.202 62.387C544.202 64.409,545.1 66.037,547.347 66.543"/><path stroke="none" d="M539.758 77.976C540.196 77.976,540.306 77.401,540.47 77.073C540.497 76.826,540.579 76.635,540.579 76.389C540.661 73.68,540.689 70.944,540.771 68.208C540.771 66.922,540.689 65.664,540.689 64.405C540.771 61.778,540.907 59.124,540.99 56.498C540.99 56.498,541.044 55.896,541.099 55.404L541.099 55.267L541.126 54.802L541.126 54.555L541.181 53.844C541.181 53.735,541.263 53.269,541.099 52.914C540.907 52.503,541.044 51.655,540.223 51.847C538.363 52.367,536.448 52.558,534.505 52.722C534.642 50.479,534.751 48.18,534.751 45.937C534.751 45.198,534.751 44.487,534.724 43.721C534.724 43.064,534.587 42.435,534.314 41.806C533.028 42.189,533.247 43.365,533.247 44.159C533.301 48.153,532.973 52.093,532.864 56.06C532.809 57.428,532.782 58.824,532.782 60.192C532.782 61.368,532.809 62.517,532.864 63.666C532.864 64.46,532.973 65.253,532.973 65.992C532.973 66.648,533.247 66.867,533.739 66.867C533.849 66.867,533.958 66.867,534.122 66.813L538.883 66.101L539.074 66.074L539.074 69.822C539.074 71.218,538.883 72.695,538.883 74.118C538.883 75.048,538.965 76.006,539.239 76.936C539.348 77.346,539.239 77.976,539.758 77.976M534.368 61.724C534.314 60.383,534.232 59.097,534.286 57.784L534.314 57.291C534.56 57.291,534.834 57.319,535.107 57.291C536.448 57.155,537.788 57.072,539.129 57.045L539.348 57.018L539.239 58.194C539.211 59.207,539.129 60.274,539.129 61.313C537.542 61.724,535.928 61.997,534.368 62.216"/></g></g><g class="vf-stavenote" id="vf-auto18522"><g class="vf-stem" id="vf-auto18523" pointer-events="bounding-box"><path stroke-width="1.5" fill="none" d="M638.688 53L638.688 20"/></g><g class="vf-notehead" id="vf-auto18525" pointer-events="bounding-box"><path stroke="none" d="M629.075 61.543C629.356 61.599,629.608 61.627,629.889 61.627C633.764 61.627,639.549 56.348,639.436 52.08C639.324 51.041,639.352 49.609,637.246 48.766C636.656 48.485,636.011 48.373,635.309 48.373C630.984 48.373,626.295 53.343,625.958 56.657C625.958 56.909,625.93 57.134,625.93 57.387C625.93 59.409,626.828 61.037,629.075 61.543"/></g></g></svg>