<svg xmlns="http://www.w3.org/2000/svg" stroke-width="0.3" stroke-dasharray="none" fill="black" stroke="black" font-family="Arial, sans-serif" font-size="10pt" font-weight="normal" font-style="normal" width="450" height="140" viewBox="0 0 450 140" style="width: 450px; height: 140px; border: none;"><g class="vf-stave" id="vf-auto13726" stroke-width="1" fill="#999999" stroke="#999999"><path fill="none" d="M0 40L440 40"/><path fill="none" d="M0 50L440 50"/><path fill="none" d="M0 60L440 60"/><path fill="none" d="M0 70L440 70"/><path fill="none" d="M0 80L440 80"/></g><g class="vf-stavebarline" id="vf-auto13727"><rect y="39.5" width="1" height="41" stroke="none"/></g><g class="vf-stavebarline" id="vf-auto13728"><rect x="440" y="39.5" width="1" height="41" stroke="none"/></g><g class="vf-stavenote" id="vf-auto13729"><path stroke-width="1.4" fill="none" stroke="#444" d="M14 90L31.934 90"/><g class="vf-stem" id="vf-auto13730" pointer-events="bounding-box"><path stroke-width="1.5" fill="none" d="M28.184 88L28.184 58"/></g><g class="vf-notehead" id="vf-auto13810" pointer-events="bounding-box"><path stroke="none" d="M20.931 95.054C24.525 95.054,28.934 91.741,28.934 88.315C28.934 86.237,27.305 84.946,25.003 84.946C20.566 84.946,17 88.231,17 91.685C17 93.791,18.741 95.054,20.931 95.054"/></g><path stroke="none" d="M38.441 85.18C38.582 84.983,38.722 82.681,38.722 80.743L38.722 79.844C38.722 78.16,38.273 76.503,37.543 74.987C37.543 74.874,37.515 74.79,37.515 74.622C37.515 74.565,37.515 74.481,37.543 74.341C37.655 74.116,38.554 71.673,38.554 69.202C38.554 68.697,38.526 68.247,38.441 67.77C38.02 65.018,36.981 63.867,34.061 60.722C31.871 58.391,29.624 57.717,28.922 53.449C28.838 53,28.361 52.916,28.108 52.916C27.883 52.916,27.434 53.028,27.434 53.337L27.434 69.006L27.631 69.006C30.13 69.09,33.022 69.174,35.802 74.846C36.728 76.784,37.094 78.749,37.094 80.855C37.094 82.035,36.981 83.242,36.785 84.45C36.728 84.618,36.728 84.702,36.728 84.815C36.728 85.348,37.065 85.882,37.627 85.882C37.908 85.882,38.189 85.713,38.441 85.18M35.886 71.561C35.24 70.55,34.538 69.736,33.696 68.781C31.814 66.591,29.933 65.608,29.091 62.294C29.063 62.266,29.063 62.21,29.063 62.182C29.063 62.014,29.287 61.761,29.624 61.761L29.933 61.761C32.404 61.761,34.594 64.035,35.914 66.029C36.644 67.068,37.009 68.332,37.009 69.623C37.009 69.904,37.009 70.157,36.981 70.438C36.897 70.747,36.897 71.168,36.7 71.477C36.644 71.589,36.363 71.729,36.167 71.729C36.055 71.729,35.97 71.673,35.886 71.561"/></g><g class="vf-stavenote" id="vf-auto13735"><g class="vf-stem" id="vf-auto13736" pointer-events="bounding-box"><path stroke-width="1.5" fill="none" d="M55.669 67.45L55.669 35"/></g><g class="vf-notehead" id="vf-auto13738" pointer-events="bounding-box"><path stroke="none" d="M48.416 75.054C55.071 75.054,56.419 69.635,56.419 68.315C56.419 66.237,54.762 64.946,52.403 64.946C46.394 64.946,44.485 69.607,44.485 71.685C44.485 73.847,46.17 75.054,48.416 75.054M47.517 73.51C46.675 73.51,46.17 73.061,45.889 72.583C45.776 72.359,45.664 72.05,45.664 71.769C45.664 69.803,51.533 66.602,53.414 66.602C54.2 66.602,54.622 66.967,54.931 67.445C55.043 67.697,55.155 67.95,55.155 68.231C55.155 69.972,49.455 73.51,47.517 73.51"/></g></g><g class="vf-stavenote" id="vf-auto13739"><g class="vf-stem" id="vf-auto13740" pointer-events="bounding-box"><path stroke-width="1.5" fill="none" d="M101.151 73L101.151 43"/></g><g class="vf-notehead" id="vf-auto13812" pointer-events="bounding-box"><path stroke="none" d="M93.898 80.054C97.493 80.054,101.901 76.741,101.901 73.315C101.901 71.237,100.272 69.946,97.97 69.946C93.533 69.946,89.967 73.231,89.967 76.685C89.967 78.791,91.708 80.054,93.898 80.054"/></g><path stroke="none" d="M111.408 70.18C111.549 69.983,111.689 67.681,111.689 65.743L111.689 64.844C111.689 63.16,111.24 61.503,110.51 59.987C110.51 59.874,110.482 59.79,110.482 59.622C110.482 59.565,110.482 59.481,110.51 59.341C110.622 59.116,111.521 56.673,111.521 54.202C111.521 53.697,111.493 53.247,111.408 52.77C110.987 50.018,109.948 48.867,107.028 45.722C104.838 43.391,102.591 42.717,101.889 38.449C101.805 38,101.328 37.916,101.075 37.916C100.85 37.916,100.401 38.028,100.401 38.337L100.401 54.006L100.598 54.006C103.097 54.09,105.989 54.174,108.769 59.846C109.696 61.784,110.061 63.749,110.061 65.855C110.061 67.035,109.948 68.242,109.752 69.45C109.696 69.618,109.696 69.702,109.696 69.815C109.696 70.348,110.033 70.882,110.594 70.882C110.875 70.882,111.156 70.713,111.408 70.18M108.853 56.561C108.207 55.55,107.505 54.736,106.663 53.781C104.782 51.591,102.9 50.608,102.058 47.294C102.03 47.266,102.03 47.21,102.03 47.182C102.03 47.014,102.254 46.761,102.591 46.761L102.9 46.761C105.371 46.761,107.562 49.035,108.881 51.029C109.611 52.068,109.976 53.332,109.976 54.623C109.976 54.904,109.976 55.157,109.948 55.438C109.864 55.747,109.864 56.168,109.668 56.477C109.611 56.589,109.331 56.729,109.134 56.729C109.022 56.729,108.937 56.673,108.853 56.561"/></g><g class="vf-stavenote" id="vf-auto13745"><g class="vf-notehead" id="vf-auto13814" pointer-events="bounding-box"><path stroke="none" d="M121.383 60.054C124.977 60.054,129.386 56.741,129.386 53.315C129.386 51.237,127.757 49.946,125.455 49.946C121.018 49.946,117.452 53.231,117.452 56.685C117.452 58.791,119.193 60.054,121.383 60.054"/></g></g><g class="vf-stavenote" id="vf-auto13751"><g class="vf-notehead" id="vf-auto13816" pointer-events="bounding-box"><path stroke="none" d="M150.919 70.054C154.513 70.054,158.921 66.741,158.921 63.315C158.921 61.237,157.293 59.946,154.99 59.946C150.553 59.946,146.987 63.231,146.987 66.685C146.987 68.791,148.728 70.054,150.919 70.054"/></g></g><g class="vf-stavenote" id="vf-auto13757"><path stroke-width="1.4" fill="none" stroke="#444" d="M171.472 90L189.406 90"/><g class="vf-notehead" id="vf-auto13818" pointer-events="bounding-box"><path stroke="none" d="M178.403 95.054C181.998 95.054,186.406 91.741,186.406 88.315C186.406 86.237,184.777 84.946,182.475 84.946C178.038 84.946,174.472 88.231,174.472 91.685C174.472 93.791,176.213 95.054,178.403 95.054"/></g></g><g class="vf-stavenote" id="vf-auto13763"><g class="vf-notehead" id="vf-auto13820" pointer-events="bounding-box"><path stroke="none" d="M205.888 75.054C209.482 75.054,213.891 71.741,213.891 68.315C213.891 66.237,212.262 64.946,209.96 64.946C205.523 64.946,201.957 68.231,201.957 71.685C201.957 73.791,203.698 75.054,205.888 75.054"/></g></g><g class="vf-stavenote" id="vf-auto13769"><g class="vf-notehead" id="vf-auto13822" pointer-events="bounding-box"><path stroke="none" d="M235.424 65.054C239.018 65.054,243.426 61.741,243.426 58.315C243.426 56.237,241.798 54.946,239.495 54.946C235.058 54.946,231.492 58.231,231.492 61.685C231.492 63.791,233.233 65.054,235.424 65.054"/></g></g><g class="vf-stavenote" id="vf-auto13775"><g class="vf-notehead" id="vf-auto13824" pointer-events="bounding-box"><path stroke="none" d="M264.959 60.054C268.553 60.054,272.962 56.741,272.962 53.315C272.962 51.237,271.333 49.946,269.031 49.946C264.594 49.946,261.028 53.231,261.028 56.685C261.028 58.791,262.769 60.054,264.959 60.054"/></g></g><g class="vf-stavenote" id="vf-auto13781"><g class="vf-notehead" id="vf-auto13826" pointer-events="bounding-box"><path stroke="none" d="M294.494 40.054C298.089 40.054,302.497 36.741,302.497 33.315C302.497 31.237,300.868 29.946,298.566 29.946C294.129 29.946,290.563 33.231,290.563 36.685C290.563 38.791,292.304 40.054,294.494 40.054"/></g></g><g class="vf-stavenote" id="vf-auto13787"><g class="vf-notehead" id="vf-auto13828" pointer-events="bounding-box"><path stroke="none" d="M324.03 45.054C327.624 45.054,332.032 41.741,332.032 38.315C332.032 36.237,330.404 34.946,328.101 34.946C323.665 34.946,320.098 38.231,320.098 41.685C320.098 43.791,321.839 45.054,324.03 45.054"/></g></g><g class="vf-stavenote" id="vf-auto13793"><g class="vf-notehead" id="vf-auto13830" pointer-events="bounding-box"><path stroke="none" d="M353.565 50.054C357.159 50.054,361.568 46.741,361.568 43.315C361.568 41.237,359.939 39.946,357.637 39.946C353.2 39.946,349.634 43.231,349.634 46.685C349.634 48.791,351.375 50.054,353.565 50.054"/></g></g><g class="vf-stavenote" id="vf-auto13799"><g class="vf-stem" id="vf-auto13800" pointer-events="bounding-box"><path stroke-width="1.5" fill="none" d="M379.919 57L379.919 87"/></g><g class="vf-notehead" id="vf-auto13832" pointer-events="bounding-box"><path stroke="none" d="M383.1 60.054C386.695 60.054,391.103 56.741,391.103 53.315C391.103 51.237,389.475 49.946,387.172 49.946C382.735 49.946,379.169 53.231,379.169 56.685C379.169 58.791,380.91 60.054,383.1 60.054"/></g><path stroke="none" d="M388.885 61.28C389.447 62.965,389.727 64.987,389.727 66.812C389.727 69.199,388.716 72.597,388.099 73.973C386.61 77.37,384.589 80.628,379.169 82.453L379.169 91.972C379.169 92.365,379.506 92.562,379.815 92.562C380.18 92.562,380.714 92.337,380.798 91.663C381.472 87.844,384.476 84.306,386.526 81.133C389.081 77.118,391.553 72.316,391.553 67.262C391.553 64.088,390.738 61.224,390.401 59.933C390.289 59.483,390.036 59.315,389.755 59.315C389.166 59.315,388.464 60.101,388.885 61.28"/></g><g class="vf-stavenote" id="vf-auto13805"><g class="vf-stem" id="vf-auto13806" pointer-events="bounding-box"><path stroke-width="1.5" fill="none" d="M419.889 63L419.889 30"/></g><g class="vf-notehead" id="vf-auto13808" pointer-events="bounding-box"><path stroke="none" d="M412.636 70.054C416.23 70.054,420.639 66.741,420.639 63.315C420.639 61.237,419.01 59.946,416.707 59.946C412.271 59.946,408.705 63.231,408.705 66.685C408.705 68.791,410.446 70.054,412.636 70.054"/></g></g><g class="vf-stem" id="vf-auto13746" pointer-events="bounding-box"><path stroke-width="1.5" fill="none" d="M128.636 53L128.636 20.75"/></g><g class="vf-stem" id="vf-auto13752" pointer-events="bounding-box"><path stroke-width="1.5" fill="none" d="M158.171 63L158.171 25.919"/></g><g class="vf-stem" id="vf-auto13758" pointer-events="bounding-box"><path stroke-width="1.5" fill="none" d="M185.656 88L185.656 30.729"/></g><g class="vf-stem" id="vf-auto13764" pointer-events="bounding-box"><path stroke-width="1.5" fill="none" d="M213.141 68L213.141 35.538"/></g><g class="vf-beam" id="vf-auto13834"><path stroke="none" d="M127.886 19.869L127.886 24.869L213.391 39.657L213.391 34.657Z"/><path stroke="none" d="M157.421 32.537L157.421 37.537L185.906 42.347L185.906 37.347Z"/></g><g class="vf-stem" id="vf-auto13770" pointer-events="bounding-box"><path stroke-width="1.5" fill="none" d="M232.242 62L232.242 95.157"/></g><g class="vf-stem" id="vf-auto13776" pointer-events="bounding-box"><path stroke-width="1.5" fill="none" d="M261.778 57L261.778 89.25"/></g><g class="vf-stem" id="vf-auto13782" pointer-events="bounding-box"><path stroke-width="1.5" fill="none" d="M291.313 37L291.313 83.343"/></g><g class="vf-beam" id="vf-auto13835"><path stroke="none" d="M231.492 96.057L231.492 91.057L291.563 79.243L291.563 84.243Z"/></g><g class="vf-stem" id="vf-auto13788" pointer-events="bounding-box"><path stroke-width="1.5" fill="none" d="M320.848 42L320.848 76.296"/></g><g class="vf-stem" id="vf-auto13794" pointer-events="bounding-box"><path stroke-width="1.5" fill="none" d="M350.384 47L350.384 79.25"/></g><g class="vf-beam" id="vf-auto13836"><path stroke="none" d="M320.098 76.971L320.098 71.971L350.634 74.925L350.634 79.925Z"/></g></svg>