<svg xmlns="http://www.w3.org/2000/svg" stroke-width="0.3" stroke-dasharray="none" fill="black" stroke="black" font-family="Arial, sans-serif" font-size="10pt" font-weight="normal" font-style="normal" width="400" height="160" viewBox="0 0 400 160" style="width: 400px; height: 160px; border: none;"><g class="vf-stave" id="vf-auto40906" stroke-width="1" fill="#999999" stroke="#999999"><path fill="none" d="M10 50L360 50"/><path fill="none" d="M10 60L360 60"/><path fill="none" d="M10 70L360 70"/><path fill="none" d="M10 80L360 80"/><path fill="none" d="M10 90L360 90"/></g><g class="vf-stavebarline" id="vf-auto40907"><rect x="10" y="49.5" width="1" height="41" stroke="none"/></g><g class="vf-stavebarline" id="vf-auto40908"><rect x="360" y="49.5" width="1" height="41" stroke="none"/></g><g class="vf-clef" id="vf-auto40909"><path stroke="none" d="M28.711 65.844C28.66 65.413,28.711 65.388,28.939 65.16C32.893 61.485,35.883 56.847,35.883 51.246C35.883 48.078,34.996 44.935,33.501 42.756C32.944 41.945,32.006 40.931,31.6 40.931C31.093 40.931,29.953 41.869,29.243 42.68C26.532 45.67,25.644 50.232,25.644 54.034C25.644 56.138,25.923 58.52,26.177 60.015C26.253 60.446,26.278 60.522,25.847 60.902C20.576 65.236,15 70.457,15 77.832C15 84.168,19.334 90.2,28.28 90.2C29.117 90.2,30.08 90.124,30.815 89.972C31.195 89.896,31.271 89.87,31.347 90.301C31.778 92.76,32.335 95.928,32.335 97.651C32.335 103.049,28.686 103.708,26.532 103.708C24.555 103.708,23.617 103.125,23.617 102.644C23.617 102.39,23.946 102.289,24.783 102.01C25.923 101.681,27.216 100.718,27.216 98.589C27.216 96.587,25.949 94.863,23.718 94.863C21.285 94.863,19.815 96.815,19.815 99.07C19.815 101.427,21.235 105.026,26.76 105.026C29.193 105.026,33.932 103.911,33.932 97.727C33.932 95.623,33.273 92.177,32.893 89.896C32.817 89.465,32.842 89.516,33.349 89.287C37.049 87.818,39.482 84.726,39.482 80.594C39.482 75.931,36.061 71.8,30.688 71.8C29.75 71.8,29.75 71.8,29.623 71.141M32.158 46.583C33.349 46.583,34.337 47.571,34.337 49.573C34.337 53.628,30.865 56.923,28.001 59.432C27.748 59.66,27.596 59.61,27.52 59.128C27.368 58.19,27.292 56.949,27.292 55.783C27.292 50.08,29.928 46.583,32.158 46.583M28.179 71.445C28.28 72.13,28.28 72.104,27.621 72.307C24.428 73.397,22.324 76.286,22.324 79.403C22.324 82.673,24.048 85.004,26.532 85.866C26.836 85.967,27.266 86.069,27.52 86.069C27.799 86.069,27.951 85.891,27.951 85.663C27.951 85.41,27.672 85.308,27.419 85.207C25.873 84.548,24.783 82.977,24.783 81.304C24.783 79.201,26.202 77.655,28.432 77.021C29.015 76.869,29.091 76.92,29.167 77.325L30.992 88.198C31.068 88.603,31.017 88.603,30.485 88.705C29.902 88.806,29.167 88.882,28.432 88.882C22.046 88.882,17.915 85.334,17.915 80.265C17.915 78.111,18.295 75.222,21.311 71.8C23.516 69.367,25.188 67.999,26.886 66.63C27.266 66.326,27.343 66.377,27.419 66.757M30.688 77.249C30.612 76.793,30.663 76.692,31.093 76.742C34.059 76.996,36.492 79.479,36.492 82.673C36.492 84.979,35.098 86.829,33.07 87.868C32.639 88.071,32.563 88.071,32.487 87.64"/></g><g class="vf-timesignature" id="vf-auto40910"><path stroke="none" d="M62.267 51.261C62.218 51.261,62.194 51.261,62.12 51.261L61.875 51.212C61.826 51.212,61.777 51.212,61.728 51.212C58.693 51.212,55.657 53.244,55.657 55.104C55.657 56.255,56.343 57.821,58.522 57.944L58.693 57.944C60.26 57.944,61.018 56.818,61.018 55.667L61.018 55.373C60.921 54.076,60.039 54.002,59.868 53.929C59.697 53.856,59.158 53.929,59.158 53.439L59.158 53.292C59.231 52.705,60.333 52.411,60.627 52.411C63.638 52.411,63.907 54.296,63.907 55.128L63.907 55.373C63.907 57.993,61.826 59.021,59.623 59.119C59.256 59.143,58.766 59.339,58.766 59.706C58.766 60.147,59.378 60.147,59.648 60.147C63.711 60.147,64.03 62.889,64.03 63.354C64.03 67.075,62.12 67.515,61.337 67.515C61.214 67.515,61.067 67.466,61.018 67.466C60.749 67.442,60.064 67.442,60.039 66.903L60.039 66.732C60.039 65.949,60.823 65.435,60.847 64.406C60.847 62.938,59.819 61.86,58.301 61.86C58.179 61.86,58.056 61.86,57.934 61.909C57.322 62.007,56.661 62.35,56.22 62.815C55.633 63.354,55.462 64.186,55.462 64.969C55.535 67.711,58.032 68.788,61.484 68.837L61.802 68.837C65.302 68.837,68.877 67.05,68.877 63.941L68.877 63.696C68.828 62.668,68.558 62.007,67.897 61.224C67.677 60.955,67.408 60.71,67.065 60.49L66.306 60.073L65.156 59.755C64.984 59.706,64.862 59.706,64.788 59.584C64.764 59.51,64.764 59.461,64.764 59.412C64.764 59.266,64.788 59.119,64.911 59.094C65.302 58.972,65.67 58.947,65.988 58.776C67.408 58.091,68.142 57.185,68.142 55.569C68.142 52.313,63.736 51.359,62.267 51.261"/><path stroke="none" d="M66.257 78.727C67.53 77.919,68.362 76.769,68.362 75.006C68.362 71.408,63.197 70.869,62.242 70.869C58.154 70.869,55.364 72.729,55.364 75.692C55.364 78.14,56.734 79.437,58.424 80.392C56.588 81.273,55.192 82.424,55.192 84.651C55.192 87.711,58.35 89.131,61.851 89.131C65.376 89.131,69.146 87.613,69.146 82.864C69.146 80.734,67.922 79.584,66.257 78.727M64.421 77.919C61.606 76.94,58.595 76.328,58.595 74.125C58.595 72.632,60.627 71.897,62.169 71.897C63.295 71.897,66.282 72.46,66.282 74.933C66.282 76.328,65.596 77.258,64.421 77.919M61.704 87.956C59.354 87.956,57.2 86.756,57.2 84.48C57.2 83.06,58.424 81.763,59.99 81.175C62.561 82.301,65.156 83.036,65.156 85.361C65.156 86.756,64.078 87.956,61.704 87.956"/></g><g class="vf-stavenote" id="vf-auto40914"><g class="vf-notehead" id="vf-auto40941" pointer-events="bounding-box"><path stroke="none" d="M219.651 94.409L219.651 90.674C219.651 90.084,219.174 89.635,218.612 89.635L209.29 89.635C208.7 89.635,208.251 90.084,208.251 90.674L208.251 94.409C208.251 94.97,208.7 95.448,209.29 95.448L218.612 95.448C219.174 95.448,219.651 94.97,219.651 94.409"/></g></g><g class="vf-stavenote" id="vf-auto40918"><g class="vf-notehead" id="vf-auto40922" pointer-events="bounding-box"><path stroke="none" d="M84.367 75.054C87.961 75.054,92.37 71.741,92.37 68.315C92.37 66.237,90.741 64.946,88.439 64.946C84.002 64.946,80.436 68.231,80.436 71.685C80.436 73.791,82.177 75.054,84.367 75.054"/></g></g><g class="vf-stavenote" id="vf-auto40924"><g class="vf-notehead" id="vf-auto40928" pointer-events="bounding-box"><path stroke="none" d="M169.577 75.054C173.171 75.054,177.58 71.741,177.58 68.315C177.58 66.237,175.951 64.946,173.649 64.946C169.212 64.946,165.646 68.231,165.646 71.685C165.646 73.791,167.387 75.054,169.577 75.054"/><path stroke="none" d="M162.153 65.349C162.427 65.239,162.646 64.911,162.646 64.692L162.646 61.874C162.646 61.683,162.509 61.573,162.345 61.573C162.29 61.573,162.236 61.573,162.153 61.6C162.153 61.6,161.36 61.929,161.168 61.956C160.895 61.956,160.621 61.765,160.621 61.464L160.621 56.648C160.621 56.402,160.375 56.211,160.074 56.211C159.691 56.211,159.445 56.402,159.445 56.648L159.445 61.765C159.39 62.148,159.281 62.668,158.925 62.914C158.46 63.187,157.119 63.735,156.435 63.899C156.107 63.899,155.97 63.434,155.97 63.105L155.97 58.372C155.97 58.153,155.696 57.934,155.423 57.934C155.04 57.934,154.794 58.153,154.794 58.372L154.794 63.707C154.794 64.254,154.547 64.637,154.328 64.747C154.082 64.884,153.289 65.185,153.289 65.185C153.015 65.267,152.824 65.595,152.824 65.814L152.824 68.632C152.824 68.851,152.933 68.988,153.179 68.988L153.261 68.933C153.289 68.933,153.891 68.687,154.192 68.55L154.246 68.495C154.547 68.495,154.794 68.906,154.794 69.207L154.794 73.119C154.794 73.557,154.602 73.912,154.356 74.022C154.137 74.104,153.289 74.46,153.289 74.46C153.015 74.542,152.824 74.843,152.824 75.089L152.824 77.88C152.824 78.126,152.933 78.235,153.179 78.235L153.261 78.208C153.289 78.208,153.836 77.962,154.192 77.852C154.246 77.798,154.274 77.798,154.328 77.798C154.602 77.798,154.794 78.235,154.794 78.427L154.794 83.27C154.794 83.516,155.04 83.707,155.313 83.707C155.696 83.707,155.97 83.516,155.97 83.27L155.97 77.798C155.97 77.278,156.162 77.004,156.38 76.922L158.761 75.937C158.761 75.937,158.816 75.937,158.816 75.937L158.898 75.91C159.253 75.91,159.445 76.375,159.445 76.621L159.445 81.546C159.445 81.792,159.691 81.984,159.965 81.984C160.375 81.984,160.621 81.792,160.621 81.546L160.621 75.937C160.621 75.636,160.785 75.171,161.059 75.034C161.333 74.925,162.153 74.596,162.153 74.596C162.427 74.487,162.646 74.186,162.646 73.94L162.646 71.149C162.646 70.958,162.509 70.821,162.345 70.821C162.29 70.821,162.236 70.821,162.153 70.876L161.141 71.259C160.895 71.259,160.621 71.012,160.621 70.547L160.621 66.881C160.621 66.607,160.813 65.869,161.141 65.732M159.445 71.778C159.199 72.572,157.365 73.338,156.435 73.338C156.216 73.338,156.025 73.283,155.97 73.146C155.888 72.982,155.861 72.134,155.861 71.176C155.861 69.973,155.888 68.577,155.97 68.276C156.052 67.592,157.858 66.772,158.843 66.772C159.116 66.772,159.363 66.854,159.445 67.018C159.527 67.209,159.609 68.194,159.609 69.261C159.609 70.328,159.527 71.423,159.445 71.778"/></g></g><g class="vf-stavenote" id="vf-auto40930"><g class="vf-notehead" id="vf-auto40934" pointer-events="bounding-box"><path stroke="none" d="M254.787 75.054C258.381 75.054,262.79 71.741,262.79 68.315C262.79 66.237,261.161 64.946,258.859 64.946C254.422 64.946,250.856 68.231,250.856 71.685C250.856 73.791,252.597 75.054,254.787 75.054"/></g></g><g class="vf-stem" id="vf-auto40919" pointer-events="bounding-box"><path stroke-width="1.5" fill="none" d="M91.62 68L91.62 35.75"/></g><g class="vf-stem" id="vf-auto40925" pointer-events="bounding-box"><path stroke-width="1.5" fill="none" d="M176.83 68L176.83 35.75"/></g><g class="vf-stem" id="vf-auto40931" pointer-events="bounding-box"><path stroke-width="1.5" fill="none" d="M262.04 68L262.04 35.75"/></g><g class="vf-beam" id="vf-auto40938"><path stroke="none" d="M90.87 35L90.87 40L262.29 40L262.29 35Z"/></g></svg>