<svg xmlns="http://www.w3.org/2000/svg" stroke-width="0.3" stroke-dasharray="none" fill="black" stroke="black" font-family="Arial, sans-serif" font-size="10pt" font-weight="normal" font-style="normal" width="750" height="680" viewBox="0 0 500 453.3333333333333" style="width: 750px; height: 680px; border: none;"><g class="vf-stave" id="vf-auto24489" stroke-width="1" fill="#999999" stroke="#999999"><path fill="none" d="M10 80L460 80"/><path fill="none" d="M10 90L460 90"/><path fill="none" d="M10 100L460 100"/><path fill="none" d="M10 110L460 110"/><path fill="none" d="M10 120L460 120"/></g><g class="vf-stavebarline" id="vf-auto24490"><rect x="10" y="79.5" width="1" height="41" stroke="none"/></g><g class="vf-stavebarline" id="vf-auto24491"><rect x="460" y="79.5" width="1" height="41" stroke="none"/></g><g class="vf-clef" id="vf-auto24492"><path stroke="none" d="M35.503 111.76C35.503 114.345,34.464 117.032,31.854 118.071C31.093 113.712,30.105 107.908,29.852 106.286C33.146 106.286,35.503 108.516,35.503 111.76M30.333 118.527C29.598 118.654,28.914 118.73,28.204 118.73C22.983 118.73,18.548 115.08,18.548 109.581C18.548 105.12,21.691 101.141,24.884 98.379C25.518 97.821,26.101 97.314,26.633 96.757C26.962 98.734,27.216 100.457,27.469 101.952C24.149 102.941,21.894 106.438,21.894 109.86C21.894 112.419,23.896 115.917,26.836 115.917C27.114 115.917,27.444 115.79,27.444 115.461C27.444 115.131,27.089 114.954,26.633 114.65C25.214 113.762,24.428 112.825,24.428 111.025C24.428 108.82,26.05 107.021,28.204 106.514M27.114 80.993C27.444 79.548,29.117 75.721,31.017 75.721C31.575 75.721,32.437 77.495,32.437 80.004C32.437 83.806,29.623 86.67,27.114 89.128C26.886 87.684,26.709 86.264,26.709 84.718C26.709 83.375,26.836 82.133,27.114 80.993M19.461 129.729C19.461 132.137,21.311 135.305,26.253 135.305C27.951 135.305,29.446 134.874,30.764 134.063C32.741 132.669,33.248 130.261,33.248 127.98C33.248 126.536,33.02 124.914,32.665 122.836C32.563 122.101,32.335 121.011,32.107 119.566C35.681 118.4,38.367 114.675,38.367 110.924C38.367 105.424,34.464 101.699,29.117 101.699C28.762 99.494,28.382 97.34,28.078 95.312C31.93 91.257,34.591 86.695,34.591 80.891C34.591 77.571,33.577 74.859,32.994 73.567C32.107 71.691,31.068 70.424,30.409 70.424C30.156 70.424,29.015 70.855,27.799 72.274C25.467 75.062,24.808 79.726,24.808 82.792C24.808 84.769,25.011 86.543,25.619 90.623C25.594 90.674,23.693 92.6,22.907 93.234C19.587 96.326,15 100.736,15 108.035C15 114.878,20.956 120.225,27.748 120.225C28.787 120.225,29.776 120.124,30.612 119.972C31.322 123.469,31.727 126.029,31.727 127.98C31.727 131.757,29.776 133.784,26.101 133.784C25.214 133.784,24.453 133.582,24.377 133.582C24.352 133.556,24.276 133.505,24.276 133.48C24.276 133.404,24.352 133.379,24.453 133.328C26.177 133.075,27.875 131.63,27.875 129.273C27.875 127.322,26.379 125.243,23.642 125.243C21.083 125.243,19.461 127.322,19.461 129.729"/></g><g class="vf-stavenote" id="vf-auto24493"><g class="vf-stem" id="vf-auto24494" pointer-events="bounding-box"><path stroke-width="1.5" fill="none" d="M114.939 117.45L114.939 55"/></g><g class="vf-notehead" id="vf-auto24498" pointer-events="bounding-box"><path stroke="none" d="M111.168 114.665C107.237 114.665,102.548 117.95,102.548 121.685C102.548 123.426,103.811 125.391,107.069 125.391C111.281 125.391,115.689 121.938,115.689 118.371C115.689 115.985,113.667 114.665,111.168 114.665M110.073 121.769C109.961 121.853,106.984 123.482,105.58 123.482C104.232 123.482,103.952 122.387,103.952 122.022C103.952 120.337,107.995 118.343,108.164 118.259C108.332 118.175,111.196 116.574,112.656 116.574C113.639 116.574,114.285 117.136,114.285 118.006C114.285 119.747,110.185 121.685,110.073 121.769"/><g class="vf-chordsymbol" id="vf-auto24482"><text stroke="none" font-family="Roboto Slab, Times, serif" font-size="12pt" x="109.118" y="50">F7</text><path stroke="none" d="M131.982 45.802C131.982 45.738,131.963 45.674,131.936 45.647C130.987 44.306,130.394 42.59,130.394 39.68C130.394 36.779,130.96 35.036,131.945 33.731C131.982 33.667,131.982 33.521,131.982 33.521L131.982 33.248C131.982 33.184,131.982 33.138,131.963 33.138C131.945 33.138,131.918 33.156,131.918 33.156C130.321 34.735,129.564 37.016,129.564 39.68C129.564 42.326,130.275 44.625,131.918 46.231C131.936 46.24,131.945 46.24,131.963 46.24C131.972 46.24,131.982 46.185,131.982 46.158"/><path stroke="none" d="M135.005 39.119C135.074 39.102,135.134 39.017,135.134 38.948L135.134 38.221C135.134 38.119,135.065 38.05,134.962 38.05C134.954 38.05,134.954 38.05,134.937 38.05L134.535 38.136L134.535 36.297L134.184 36.297L134.184 38.204L133.089 38.426L133.089 36.69L132.747 36.69L132.747 38.503L132.268 38.598C132.191 38.615,132.131 38.7,132.131 38.769L132.131 38.794L132.131 39.513L132.131 39.487C132.131 39.59,132.208 39.658,132.302 39.658C132.319 39.658,132.328 39.658,132.337 39.658L132.747 39.573L132.747 41.608L132.268 41.702C132.191 41.72,132.131 41.805,132.131 41.874L132.131 42.592C132.131 42.686,132.208 42.763,132.302 42.763C132.319 42.763,132.328 42.763,132.337 42.763L132.747 42.678L132.747 44.517L133.089 44.517L133.089 42.601L134.184 42.378L134.184 44.115L134.535 44.115L134.535 42.31L135.005 42.224C135.074 42.207,135.134 42.122,135.134 42.053L135.134 41.326C135.134 41.223,135.065 41.146,134.962 41.146C134.954 41.146,134.954 41.146,134.937 41.146L134.535 41.232L134.535 39.205M133.089 39.496L134.184 39.282L134.184 41.309L133.089 41.54"/><text stroke="none" font-family="Roboto Slab, Times, serif" font-size="7.92pt" x="136.038" y="43.6">11</text><path stroke="none" d="M148.976 40.487C148.894 39.912,148.534 39.368,147.785 39.368C147.046 39.368,146.615 39.82,146.543 39.912L146.605 35.17C146.605 35.047,146.512 34.965,146.389 34.965L146.215 34.965C146.102 34.965,146.009 35.047,146.009 35.17L146.081 44.049C146.081 44.172,146.174 44.254,146.287 44.254C146.317 44.254,146.379 44.244,146.41 44.233C146.471 44.203,147.426 43.73,148.226 42.827C148.791 42.191,149.007 41.462,149.007 40.856C149.007 40.723,148.996 40.61,148.976 40.487M147.96 41.062C147.96 41.287,147.898 41.965,147.528 42.529C147.282 42.909,146.779 43.31,146.502 43.535L146.543 40.651C146.574 40.518,146.789 40.087,147.385 40.087C147.919 40.087,147.96 40.589,147.96 40.908C147.96 40.98,147.96 41.021,147.96 41.062"/><text stroke="none" font-family="Roboto Slab, Times, serif" font-size="7.92pt" x="149.241" y="43.6">9</text><path stroke="none" d="M155.982 46.158C155.982 46.185,156.001 46.24,156.01 46.24C156.028 46.24,156.037 46.24,156.046 46.231C157.689 44.625,158.4 42.326,158.4 39.68C158.4 37.016,157.652 34.735,156.046 33.156C156.046 33.156,156.028 33.138,156.01 33.138C155.982 33.138,155.982 33.184,155.982 33.248L155.982 33.521C155.982 33.521,155.982 33.667,156.028 33.731C157.013 35.036,157.57 36.779,157.57 39.68C157.57 42.59,156.986 44.306,156.037 45.647C156.01 45.674,155.982 45.738,155.982 45.802"/></g><path stroke="none" d="M99.466 116.881C99.247 115.349,98.289 113.899,96.292 113.899C94.322 113.899,93.173 115.103,92.981 115.349L93.145 102.708C93.145 102.38,92.899 102.161,92.571 102.161L92.106 102.161C91.805 102.161,91.559 102.38,91.559 102.708L91.75 126.375C91.75 126.703,91.996 126.922,92.297 126.922C92.379 126.922,92.544 126.895,92.626 126.867C92.79 126.785,95.334 125.527,97.468 123.119C98.973 121.423,99.548 119.48,99.548 117.866C99.548 117.51,99.52 117.209,99.466 116.881M96.757 118.413C96.757 119.015,96.593 120.821,95.608 122.326C94.951 123.338,93.611 124.405,92.872 125.007L92.981 117.319C93.063 116.963,93.638 115.814,95.225 115.814C96.648 115.814,96.757 117.155,96.757 118.003C96.757 118.194,96.757 118.304,96.757 118.413"/></g><g class="vf-notehead" id="vf-auto24499" pointer-events="bounding-box"><path stroke="none" d="M111.168 99.665C107.237 99.665,102.548 102.95,102.548 106.685C102.548 108.426,103.811 110.391,107.069 110.391C111.281 110.391,115.689 106.938,115.689 103.371C115.689 100.985,113.667 99.665,111.168 99.665M110.073 106.769C109.961 106.853,106.984 108.482,105.58 108.482C104.232 108.482,103.952 107.387,103.952 107.022C103.952 105.337,107.995 103.343,108.164 103.259C108.332 103.175,111.196 101.574,112.656 101.574C113.639 101.574,114.285 102.136,114.285 103.006C114.285 104.747,110.185 106.685,110.073 106.769"/></g><g class="vf-notehead" id="vf-auto24500" pointer-events="bounding-box"><path stroke="none" d="M111.168 84.665C107.237 84.665,102.548 87.95,102.548 91.685C102.548 93.426,103.811 95.391,107.069 95.391C111.281 95.391,115.689 91.938,115.689 88.371C115.689 85.985,113.667 84.665,111.168 84.665M110.073 91.769C109.961 91.853,106.984 93.482,105.58 93.482C104.232 93.482,103.952 92.387,103.952 92.022C103.952 90.337,107.995 88.343,108.164 88.259C108.332 88.175,111.196 86.574,112.656 86.574C113.639 86.574,114.285 87.136,114.285 88.006C114.285 89.747,110.185 91.685,110.073 91.769"/></g></g><g class="vf-stavenote" id="vf-auto24503"><path stroke-width="1.4" fill="none" stroke="#444" d="M266.703 130L285.845 130"/><g class="vf-stem" id="vf-auto24504" pointer-events="bounding-box"><path stroke-width="1.5" fill="none" d="M282.095 127.45L282.095 65"/></g><g class="vf-notehead" id="vf-auto24508" pointer-events="bounding-box"><path stroke="none" d="M278.324 124.665C274.392 124.665,269.703 127.95,269.703 131.685C269.703 133.426,270.967 135.391,274.224 135.391C278.436 135.391,282.845 131.938,282.845 128.371C282.845 125.985,280.823 124.665,278.324 124.665M277.229 131.769C277.116 131.853,274.14 133.482,272.736 133.482C271.388 133.482,271.107 132.387,271.107 132.022C271.107 130.337,275.151 128.343,275.319 128.259C275.488 128.175,278.352 126.574,279.812 126.574C280.795 126.574,281.441 127.136,281.441 128.006C281.441 129.747,277.341 131.685,277.229 131.769"/><g class="vf-chordsymbol" id="vf-auto24487"><text stroke="none" font-family="Roboto Slab, Times, serif" font-size="12pt" x="276.274" y="60">C</text><path stroke="none" d="M289.535 48.18L291.845 52.615L287.226 52.615M289.535 46.353L285.84 53.456L293.23 53.456"/></g></g><g class="vf-notehead" id="vf-auto24509" pointer-events="bounding-box"><path stroke="none" d="M278.324 114.665C274.392 114.665,269.703 117.95,269.703 121.685C269.703 123.426,270.967 125.391,274.224 125.391C278.436 125.391,282.845 121.938,282.845 118.371C282.845 115.985,280.823 114.665,278.324 114.665M277.229 121.769C277.116 121.853,274.14 123.482,272.736 123.482C271.388 123.482,271.107 122.387,271.107 122.022C271.107 120.337,275.151 118.343,275.319 118.259C275.488 118.175,278.352 116.574,279.812 116.574C280.795 116.574,281.441 117.136,281.441 118.006C281.441 119.747,277.341 121.685,277.229 121.769"/></g><g class="vf-notehead" id="vf-auto24510" pointer-events="bounding-box"><path stroke="none" d="M278.324 94.665C274.392 94.665,269.703 97.95,269.703 101.685C269.703 103.426,270.967 105.391,274.224 105.391C278.436 105.391,282.845 101.938,282.845 98.371C282.845 95.985,280.823 94.665,278.324 94.665M277.229 101.769C277.116 101.853,274.14 103.482,272.736 103.482C271.388 103.482,271.107 102.387,271.107 102.022C271.107 100.337,275.151 98.343,275.319 98.259C275.488 98.175,278.352 96.574,279.812 96.574C280.795 96.574,281.441 97.136,281.441 98.006C281.441 99.747,277.341 101.685,277.229 101.769"/></g></g><g class="vf-stave" id="vf-auto24518" stroke-width="1" fill="#999999" stroke="#999999"><path fill="none" d="M10 180L460 180"/><path fill="none" d="M10 190L460 190"/><path fill="none" d="M10 200L460 200"/><path fill="none" d="M10 210L460 210"/><path fill="none" d="M10 220L460 220"/></g><g class="vf-stavebarline" id="vf-auto24519"><rect x="10" y="179.5" width="1" height="41" stroke="none"/></g><g class="vf-stavebarline" id="vf-auto24520"><rect x="460" y="179.5" width="1" height="41" stroke="none"/></g><g class="vf-clef" id="vf-auto24521"><path stroke="none" d="M35.503 211.76C35.503 214.345,34.464 217.032,31.854 218.071C31.093 213.712,30.105 207.908,29.852 206.286C33.146 206.286,35.503 208.516,35.503 211.76M30.333 218.527C29.598 218.654,28.914 218.73,28.204 218.73C22.983 218.73,18.548 215.08,18.548 209.581C18.548 205.12,21.691 201.141,24.884 198.379C25.518 197.821,26.101 197.314,26.633 196.757C26.962 198.734,27.216 200.457,27.469 201.952C24.149 202.941,21.894 206.438,21.894 209.86C21.894 212.419,23.896 215.917,26.836 215.917C27.114 215.917,27.444 215.79,27.444 215.461C27.444 215.131,27.089 214.954,26.633 214.65C25.214 213.762,24.428 212.825,24.428 211.025C24.428 208.82,26.05 207.021,28.204 206.514M27.114 180.993C27.444 179.548,29.117 175.721,31.017 175.721C31.575 175.721,32.437 177.495,32.437 180.004C32.437 183.806,29.623 186.67,27.114 189.128C26.886 187.684,26.709 186.264,26.709 184.718C26.709 183.375,26.836 182.133,27.114 180.993M19.461 229.729C19.461 232.137,21.311 235.305,26.253 235.305C27.951 235.305,29.446 234.874,30.764 234.063C32.741 232.669,33.248 230.261,33.248 227.98C33.248 226.536,33.02 224.914,32.665 222.836C32.563 222.101,32.335 221.011,32.107 219.566C35.681 218.4,38.367 214.675,38.367 210.924C38.367 205.424,34.464 201.699,29.117 201.699C28.762 199.494,28.382 197.34,28.078 195.312C31.93 191.257,34.591 186.695,34.591 180.891C34.591 177.571,33.577 174.859,32.994 173.567C32.107 171.691,31.068 170.424,30.409 170.424C30.156 170.424,29.015 170.855,27.799 172.274C25.467 175.062,24.808 179.726,24.808 182.792C24.808 184.769,25.011 186.543,25.619 190.623C25.594 190.674,23.693 192.6,22.907 193.234C19.587 196.326,15 200.736,15 208.035C15 214.878,20.956 220.225,27.748 220.225C28.787 220.225,29.776 220.124,30.612 219.972C31.322 223.469,31.727 226.029,31.727 227.98C31.727 231.757,29.776 233.784,26.101 233.784C25.214 233.784,24.453 233.582,24.377 233.582C24.352 233.556,24.276 233.505,24.276 233.48C24.276 233.404,24.352 233.379,24.453 233.328C26.177 233.075,27.875 231.63,27.875 229.273C27.875 227.322,26.379 225.243,23.642 225.243C21.083 225.243,19.461 227.322,19.461 229.729"/></g><g class="vf-stavenote" id="vf-auto24522"><g class="vf-stem" id="vf-auto24523" pointer-events="bounding-box"><path stroke-width="1.5" fill="none" d="M114.939 217.45L114.939 155"/></g><g class="vf-notehead" id="vf-auto24527" pointer-events="bounding-box"><path stroke="none" d="M111.168 214.665C107.237 214.665,102.548 217.95,102.548 221.685C102.548 223.426,103.811 225.391,107.069 225.391C111.281 225.391,115.689 221.938,115.689 218.371C115.689 215.985,113.667 214.665,111.168 214.665M110.073 221.769C109.961 221.853,106.984 223.482,105.58 223.482C104.232 223.482,103.952 222.387,103.952 222.022C103.952 220.337,107.995 218.343,108.164 218.259C108.332 218.175,111.196 216.574,112.656 216.574C113.639 216.574,114.285 217.136,114.285 218.006C114.285 219.747,110.185 221.685,110.073 221.769"/><g class="vf-chordsymbol" id="vf-auto24512"><text stroke="none" font-family="Roboto Slab, Times, serif" font-size="12pt" x="109.118" y="150">F7</text><path stroke="none" d="M131.982 145.802C131.982 145.738,131.963 145.674,131.936 145.647C130.987 144.306,130.394 142.59,130.394 139.68C130.394 136.779,130.96 135.036,131.945 133.731C131.982 133.667,131.982 133.521,131.982 133.521L131.982 133.248C131.982 133.184,131.982 133.138,131.963 133.138C131.945 133.138,131.918 133.156,131.918 133.156C130.321 134.735,129.564 137.016,129.564 139.68C129.564 142.326,130.275 144.625,131.918 146.231C131.936 146.24,131.945 146.24,131.963 146.24C131.972 146.24,131.982 146.185,131.982 146.158"/><path stroke="none" d="M135.005 139.119C135.074 139.102,135.134 139.017,135.134 138.948L135.134 138.221C135.134 138.119,135.065 138.05,134.962 138.05C134.954 138.05,134.954 138.05,134.937 138.05L134.535 138.136L134.535 136.297L134.184 136.297L134.184 138.204L133.089 138.426L133.089 136.69L132.747 136.69L132.747 138.503L132.268 138.598C132.191 138.615,132.131 138.7,132.131 138.769L132.131 138.794L132.131 139.513L132.131 139.487C132.131 139.59,132.208 139.658,132.302 139.658C132.319 139.658,132.328 139.658,132.337 139.658L132.747 139.573L132.747 141.608L132.268 141.702C132.191 141.72,132.131 141.805,132.131 141.874L132.131 142.592C132.131 142.686,132.208 142.763,132.302 142.763C132.319 142.763,132.328 142.763,132.337 142.763L132.747 142.678L132.747 144.517L133.089 144.517L133.089 142.601L134.184 142.378L134.184 144.115L134.535 144.115L134.535 142.31L135.005 142.224C135.074 142.207,135.134 142.122,135.134 142.053L135.134 141.326C135.134 141.223,135.065 141.146,134.962 141.146C134.954 141.146,134.954 141.146,134.937 141.146L134.535 141.232L134.535 139.205M133.089 139.496L134.184 139.282L134.184 141.309L133.089 141.54"/><text stroke="none" font-family="Roboto Slab, Times, serif" font-size="7.92pt" x="136.038" y="143.6">11</text><path stroke="none" d="M148.976 140.487C148.894 139.912,148.534 139.368,147.785 139.368C147.046 139.368,146.615 139.82,146.543 139.912L146.605 135.17C146.605 135.047,146.512 134.965,146.389 134.965L146.215 134.965C146.102 134.965,146.009 135.047,146.009 135.17L146.081 144.049C146.081 144.172,146.174 144.254,146.287 144.254C146.317 144.254,146.379 144.244,146.41 144.233C146.471 144.203,147.426 143.73,148.226 142.827C148.791 142.191,149.007 141.462,149.007 140.856C149.007 140.723,148.996 140.61,148.976 140.487M147.96 141.062C147.96 141.287,147.898 141.965,147.528 142.529C147.282 142.909,146.779 143.31,146.502 143.535L146.543 140.651C146.574 140.518,146.789 140.087,147.385 140.087C147.919 140.087,147.96 140.589,147.96 140.908C147.96 140.98,147.96 141.021,147.96 141.062"/><text stroke="none" font-family="Roboto Slab, Times, serif" font-size="7.92pt" x="149.241" y="143.6">9</text><path stroke="none" d="M155.982 146.158C155.982 146.185,156.001 146.24,156.01 146.24C156.028 146.24,156.037 146.24,156.046 146.231C157.689 144.625,158.4 142.326,158.4 139.68C158.4 137.016,157.652 134.735,156.046 133.156C156.046 133.156,156.028 133.138,156.01 133.138C155.982 133.138,155.982 133.184,155.982 133.248L155.982 133.521C155.982 133.521,155.982 133.667,156.028 133.731C157.013 135.036,157.57 136.779,157.57 139.68C157.57 142.59,156.986 144.306,156.037 145.647C156.01 145.674,155.982 145.738,155.982 145.802"/></g><path stroke="none" d="M99.466 216.881C99.247 215.349,98.289 213.899,96.292 213.899C94.322 213.899,93.173 215.103,92.981 215.349L93.145 202.708C93.145 202.38,92.899 202.161,92.571 202.161L92.106 202.161C91.805 202.161,91.559 202.38,91.559 202.708L91.75 226.375C91.75 226.703,91.996 226.922,92.297 226.922C92.379 226.922,92.544 226.895,92.626 226.867C92.79 226.785,95.334 225.527,97.468 223.119C98.973 221.423,99.548 219.48,99.548 217.866C99.548 217.51,99.52 217.209,99.466 216.881M96.757 218.413C96.757 219.015,96.593 220.821,95.608 222.326C94.951 223.338,93.611 224.405,92.872 225.007L92.981 217.319C93.063 216.963,93.638 215.814,95.225 215.814C96.648 215.814,96.757 217.155,96.757 218.003C96.757 218.194,96.757 218.304,96.757 218.413"/></g><g class="vf-notehead" id="vf-auto24528" pointer-events="bounding-box"><path stroke="none" d="M111.168 199.665C107.237 199.665,102.548 202.95,102.548 206.685C102.548 208.426,103.811 210.391,107.069 210.391C111.281 210.391,115.689 206.938,115.689 203.371C115.689 200.985,113.667 199.665,111.168 199.665M110.073 206.769C109.961 206.853,106.984 208.482,105.58 208.482C104.232 208.482,103.952 207.387,103.952 207.022C103.952 205.337,107.995 203.343,108.164 203.259C108.332 203.175,111.196 201.574,112.656 201.574C113.639 201.574,114.285 202.136,114.285 203.006C114.285 204.747,110.185 206.685,110.073 206.769"/></g><g class="vf-notehead" id="vf-auto24529" pointer-events="bounding-box"><path stroke="none" d="M111.168 184.665C107.237 184.665,102.548 187.95,102.548 191.685C102.548 193.426,103.811 195.391,107.069 195.391C111.281 195.391,115.689 191.938,115.689 188.371C115.689 185.985,113.667 184.665,111.168 184.665M110.073 191.769C109.961 191.853,106.984 193.482,105.58 193.482C104.232 193.482,103.952 192.387,103.952 192.022C103.952 190.337,107.995 188.343,108.164 188.259C108.332 188.175,111.196 186.574,112.656 186.574C113.639 186.574,114.285 187.136,114.285 188.006C114.285 189.747,110.185 191.685,110.073 191.769"/></g></g><g class="vf-stavenote" id="vf-auto24532"><path stroke-width="1.4" fill="none" stroke="#444" d="M261.479 230L280.62 230"/><g class="vf-stem" id="vf-auto24533" pointer-events="bounding-box"><path stroke-width="1.5" fill="none" d="M276.87 227.45L276.87 165"/></g><g class="vf-notehead" id="vf-auto24537" pointer-events="bounding-box"><path stroke="none" d="M273.099 224.665C269.168 224.665,264.479 227.95,264.479 231.685C264.479 233.426,265.742 235.391,268.999 235.391C273.211 235.391,277.62 231.938,277.62 228.371C277.62 225.985,275.598 224.665,273.099 224.665M272.004 231.769C271.892 231.853,268.915 233.482,267.511 233.482C266.163 233.482,265.883 232.387,265.883 232.022C265.883 230.337,269.926 228.343,270.095 228.259C270.263 228.175,273.127 226.574,274.587 226.574C275.57 226.574,276.216 227.136,276.216 228.006C276.216 229.747,272.116 231.685,272.004 231.769"/><g class="vf-chordsymbol" id="vf-auto24517"><text stroke="none" font-family="Roboto Slab, Times, serif" font-size="12pt" x="254.029" y="160">C</text><text stroke="none" font-family="Roboto Slab, Times, serif" font-size="7.92pt" x="265.708" y="153.6">Maj.</text></g></g><g class="vf-notehead" id="vf-auto24538" pointer-events="bounding-box"><path stroke="none" d="M273.099 214.665C269.168 214.665,264.479 217.95,264.479 221.685C264.479 223.426,265.742 225.391,268.999 225.391C273.211 225.391,277.62 221.938,277.62 218.371C277.62 215.985,275.598 214.665,273.099 214.665M272.004 221.769C271.892 221.853,268.915 223.482,267.511 223.482C266.163 223.482,265.883 222.387,265.883 222.022C265.883 220.337,269.926 218.343,270.095 218.259C270.263 218.175,273.127 216.574,274.587 216.574C275.57 216.574,276.216 217.136,276.216 218.006C276.216 219.747,272.116 221.685,272.004 221.769"/></g><g class="vf-notehead" id="vf-auto24539" pointer-events="bounding-box"><path stroke="none" d="M273.099 194.665C269.168 194.665,264.479 197.95,264.479 201.685C264.479 203.426,265.742 205.391,268.999 205.391C273.211 205.391,277.62 201.938,277.62 198.371C277.62 195.985,275.598 194.665,273.099 194.665M272.004 201.769C271.892 201.853,268.915 203.482,267.511 203.482C266.163 203.482,265.883 202.387,265.883 202.022C265.883 200.337,269.926 198.343,270.095 198.259C270.263 198.175,273.127 196.574,274.587 196.574C275.57 196.574,276.216 197.136,276.216 198.006C276.216 199.747,272.116 201.685,272.004 201.769"/></g></g><g class="vf-stave" id="vf-auto24545" stroke-width="1" fill="#999999" stroke="#999999"><path fill="none" d="M10 280L460 280"/><path fill="none" d="M10 290L460 290"/><path fill="none" d="M10 300L460 300"/><path fill="none" d="M10 310L460 310"/><path fill="none" d="M10 320L460 320"/></g><g class="vf-stavebarline" id="vf-auto24546"><rect x="10" y="279.5" width="1" height="41" stroke="none"/></g><g class="vf-stavebarline" id="vf-auto24547"><rect x="460" y="279.5" width="1" height="41" stroke="none"/></g><g class="vf-clef" id="vf-auto24548"><path stroke="none" d="M35.503 311.76C35.503 314.345,34.464 317.032,31.854 318.071C31.093 313.712,30.105 307.908,29.852 306.286C33.146 306.286,35.503 308.516,35.503 311.76M30.333 318.527C29.598 318.654,28.914 318.73,28.204 318.73C22.983 318.73,18.548 315.08,18.548 309.581C18.548 305.12,21.691 301.141,24.884 298.379C25.518 297.821,26.101 297.314,26.633 296.757C26.962 298.734,27.216 300.457,27.469 301.952C24.149 302.941,21.894 306.438,21.894 309.86C21.894 312.419,23.896 315.917,26.836 315.917C27.114 315.917,27.444 315.79,27.444 315.461C27.444 315.131,27.089 314.954,26.633 314.65C25.214 313.762,24.428 312.825,24.428 311.025C24.428 308.82,26.05 307.021,28.204 306.514M27.114 280.993C27.444 279.548,29.117 275.721,31.017 275.721C31.575 275.721,32.437 277.495,32.437 280.004C32.437 283.806,29.623 286.67,27.114 289.128C26.886 287.684,26.709 286.264,26.709 284.718C26.709 283.375,26.836 282.133,27.114 280.993M19.461 329.729C19.461 332.137,21.311 335.305,26.253 335.305C27.951 335.305,29.446 334.874,30.764 334.063C32.741 332.669,33.248 330.261,33.248 327.98C33.248 326.536,33.02 324.914,32.665 322.836C32.563 322.101,32.335 321.011,32.107 319.566C35.681 318.4,38.367 314.675,38.367 310.924C38.367 305.424,34.464 301.699,29.117 301.699C28.762 299.494,28.382 297.34,28.078 295.312C31.93 291.257,34.591 286.695,34.591 280.891C34.591 277.571,33.577 274.859,32.994 273.567C32.107 271.691,31.068 270.424,30.409 270.424C30.156 270.424,29.015 270.855,27.799 272.274C25.467 275.062,24.808 279.726,24.808 282.792C24.808 284.769,25.011 286.543,25.619 290.623C25.594 290.674,23.693 292.6,22.907 293.234C19.587 296.326,15 300.736,15 308.035C15 314.878,20.956 320.225,27.748 320.225C28.787 320.225,29.776 320.124,30.612 319.972C31.322 323.469,31.727 326.029,31.727 327.98C31.727 331.757,29.776 333.784,26.101 333.784C25.214 333.784,24.453 333.582,24.377 333.582C24.352 333.556,24.276 333.505,24.276 333.48C24.276 333.404,24.352 333.379,24.453 333.328C26.177 333.075,27.875 331.63,27.875 329.273C27.875 327.322,26.379 325.243,23.642 325.243C21.083 325.243,19.461 327.322,19.461 329.729"/></g><g class="vf-stavenote" id="vf-auto24549"><g class="vf-stem" id="vf-auto24550" pointer-events="bounding-box"><path stroke-width="1.5" fill="none" d="M95.432 317.45L95.432 255"/></g><g class="vf-notehead" id="vf-auto24554" pointer-events="bounding-box"><path stroke="none" d="M91.662 314.665C87.73 314.665,83.041 317.95,83.041 321.685C83.041 323.426,84.305 325.391,87.562 325.391C91.774 325.391,96.182 321.938,96.182 318.371C96.182 315.985,94.161 314.665,91.662 314.665M90.566 321.769C90.454 321.853,87.478 323.482,86.074 323.482C84.726 323.482,84.445 322.387,84.445 322.022C84.445 320.337,88.489 318.343,88.657 318.259C88.826 318.175,91.69 316.574,93.15 316.574C94.133 316.574,94.778 317.136,94.778 318.006C94.778 319.747,90.679 321.685,90.566 321.769"/><g class="vf-chordsymbol" id="vf-auto24541"><text stroke="none" font-family="Roboto Slab, Times, serif" font-size="12pt" x="89.612" y="250">F7</text><path stroke="none" d="M112.5 239.119C112.568 239.102,112.628 239.017,112.628 238.948L112.628 238.221C112.628 238.119,112.559 238.05,112.457 238.05C112.448 238.05,112.448 238.05,112.431 238.05L112.029 238.136L112.029 236.297L111.678 236.297L111.678 238.204L110.584 238.426L110.584 236.69L110.241 236.69L110.241 238.503L109.762 238.598C109.685 238.615,109.626 238.7,109.626 238.769L109.626 238.794L109.626 239.513L109.626 239.487C109.626 239.59,109.703 239.658,109.797 239.658C109.814 239.658,109.822 239.658,109.831 239.658L110.241 239.573L110.241 241.608L109.762 241.702C109.685 241.72,109.626 241.805,109.626 241.874L109.626 242.592C109.626 242.686,109.703 242.763,109.797 242.763C109.814 242.763,109.822 242.763,109.831 242.763L110.241 242.678L110.241 244.517L110.584 244.517L110.584 242.601L111.678 242.378L111.678 244.115L112.029 244.115L112.029 242.31L112.5 242.224C112.568 242.207,112.628 242.122,112.628 242.053L112.628 241.326C112.628 241.223,112.559 241.146,112.457 241.146C112.448 241.146,112.448 241.146,112.431 241.146L112.029 241.232L112.029 239.205M110.584 239.496L111.678 239.282L111.678 241.309L110.584 241.54"/><text stroke="none" font-family="Roboto Slab, Times, serif" font-size="7.92pt" x="113.533" y="243.6">11</text><path stroke="none" d="M113.014 251.687C112.932 251.112,112.573 250.568,111.824 250.568C111.085 250.568,110.654 251.02,110.582 251.112L110.643 246.37C110.643 246.247,110.551 246.165,110.428 246.165L110.253 246.165C110.14 246.165,110.048 246.247,110.048 246.37L110.12 255.249C110.12 255.372,110.212 255.454,110.325 255.454C110.356 255.454,110.417 255.444,110.448 255.433C110.51 255.403,111.464 254.93,112.265 254.027C112.83 253.391,113.045 252.662,113.045 252.056C113.045 251.923,113.035 251.81,113.014 251.687M111.998 252.262C111.998 252.487,111.937 253.165,111.567 253.729C111.321 254.109,110.818 254.51,110.541 254.735L110.582 251.851C110.612 251.718,110.828 251.287,111.423 251.287C111.957 251.287,111.998 251.789,111.998 252.108C111.998 252.18,111.998 252.221,111.998 252.262"/><text stroke="none" font-family="Roboto Slab, Times, serif" font-size="7.92pt" x="113.491" y="254.8">9</text></g><path stroke="none" d="M79.959 316.881C79.74 315.349,78.782 313.899,76.785 313.899C74.815 313.899,73.666 315.103,73.475 315.349L73.639 302.708C73.639 302.38,73.393 302.161,73.064 302.161L72.599 302.161C72.298 302.161,72.052 302.38,72.052 302.708L72.243 326.375C72.243 326.703,72.49 326.922,72.791 326.922C72.873 326.922,73.037 326.895,73.119 326.867C73.283 326.785,75.828 325.527,77.962 323.119C79.466 321.423,80.041 319.48,80.041 317.866C80.041 317.51,80.014 317.209,79.959 316.881M77.25 318.413C77.25 319.015,77.086 320.821,76.101 322.326C75.445 323.338,74.104 324.405,73.365 325.007L73.475 317.319C73.557 316.963,74.131 315.814,75.718 315.814C77.141 315.814,77.25 317.155,77.25 318.003C77.25 318.194,77.25 318.304,77.25 318.413"/></g><g class="vf-notehead" id="vf-auto24555" pointer-events="bounding-box"><path stroke="none" d="M91.662 299.665C87.73 299.665,83.041 302.95,83.041 306.685C83.041 308.426,84.305 310.391,87.562 310.391C91.774 310.391,96.182 306.938,96.182 303.371C96.182 300.985,94.161 299.665,91.662 299.665M90.566 306.769C90.454 306.853,87.478 308.482,86.074 308.482C84.726 308.482,84.445 307.387,84.445 307.022C84.445 305.337,88.489 303.343,88.657 303.259C88.826 303.175,91.69 301.574,93.15 301.574C94.133 301.574,94.778 302.136,94.778 303.006C94.778 304.747,90.679 306.685,90.566 306.769"/></g><g class="vf-notehead" id="vf-auto24556" pointer-events="bounding-box"><path stroke="none" d="M91.662 284.665C87.73 284.665,83.041 287.95,83.041 291.685C83.041 293.426,84.305 295.391,87.562 295.391C91.774 295.391,96.182 291.938,96.182 288.371C96.182 285.985,94.161 284.665,91.662 284.665M90.566 291.769C90.454 291.853,87.478 293.482,86.074 293.482C84.726 293.482,84.445 292.387,84.445 292.022C84.445 290.337,88.489 288.343,88.657 288.259C88.826 288.175,91.69 286.574,93.15 286.574C94.133 286.574,94.778 287.136,94.778 288.006C94.778 289.747,90.679 291.685,90.566 291.769"/></g></g><g class="vf-stavenote" id="vf-auto24559"><path stroke-width="1.4" fill="none" stroke="#444" d="M246.501 330L265.642 330"/><g class="vf-stem" id="vf-auto24560" pointer-events="bounding-box"><path stroke-width="1.5" fill="none" d="M261.892 327.45L261.892 265"/></g><g class="vf-notehead" id="vf-auto24564" pointer-events="bounding-box"><path stroke="none" d="M258.121 324.665C254.19 324.665,249.501 327.95,249.501 331.685C249.501 333.426,250.764 335.391,254.022 335.391C258.234 335.391,262.642 331.938,262.642 328.371C262.642 325.985,260.62 324.665,258.121 324.665M257.026 331.769C256.914 331.853,253.937 333.482,252.533 333.482C251.185 333.482,250.905 332.387,250.905 332.022C250.905 330.337,254.948 328.343,255.117 328.259C255.285 328.175,258.149 326.574,259.609 326.574C260.592 326.574,261.238 327.136,261.238 328.006C261.238 329.747,257.138 331.685,257.026 331.769"/><g class="vf-chordsymbol" id="vf-auto24544"><text stroke="none" font-family="Roboto Slab, Times, serif" font-size="12pt" x="290.111" y="260">C</text><text stroke="none" font-family="Roboto Slab, Times, serif" font-size="7.92pt" x="301.789" y="253.6">Maj.</text></g></g><g class="vf-notehead" id="vf-auto24565" pointer-events="bounding-box"><path stroke="none" d="M258.121 314.665C254.19 314.665,249.501 317.95,249.501 321.685C249.501 323.426,250.764 325.391,254.022 325.391C258.234 325.391,262.642 321.938,262.642 318.371C262.642 315.985,260.62 314.665,258.121 314.665M257.026 321.769C256.914 321.853,253.937 323.482,252.533 323.482C251.185 323.482,250.905 322.387,250.905 322.022C250.905 320.337,254.948 318.343,255.117 318.259C255.285 318.175,258.149 316.574,259.609 316.574C260.592 316.574,261.238 317.136,261.238 318.006C261.238 319.747,257.138 321.685,257.026 321.769"/></g><g class="vf-notehead" id="vf-auto24566" pointer-events="bounding-box"><path stroke="none" d="M258.121 294.665C254.19 294.665,249.501 297.95,249.501 301.685C249.501 303.426,250.764 305.391,254.022 305.391C258.234 305.391,262.642 301.938,262.642 298.371C262.642 295.985,260.62 294.665,258.121 294.665M257.026 301.769C256.914 301.853,253.937 303.482,252.533 303.482C251.185 303.482,250.905 302.387,250.905 302.022C250.905 300.337,254.948 298.343,255.117 298.259C255.285 298.175,258.149 296.574,259.609 296.574C260.592 296.574,261.238 297.136,261.238 298.006C261.238 299.747,257.138 301.685,257.026 301.769"/></g></g><g class="vf-stave" id="vf-auto24572" stroke-width="1" fill="#999999" stroke="#999999"><path fill="none" d="M10 380L460 380"/><path fill="none" d="M10 390L460 390"/><path fill="none" d="M10 400L460 400"/><path fill="none" d="M10 410L460 410"/><path fill="none" d="M10 420L460 420"/></g><g class="vf-stavebarline" id="vf-auto24573"><rect x="10" y="379.5" width="1" height="41" stroke="none"/></g><g class="vf-stavebarline" id="vf-auto24574"><rect x="460" y="379.5" width="1" height="41" stroke="none"/></g><g class="vf-clef" id="vf-auto24575"><path stroke="none" d="M35.503 411.76C35.503 414.345,34.464 417.032,31.854 418.071C31.093 413.712,30.105 407.908,29.852 406.286C33.146 406.286,35.503 408.516,35.503 411.76M30.333 418.527C29.598 418.654,28.914 418.73,28.204 418.73C22.983 418.73,18.548 415.08,18.548 409.581C18.548 405.12,21.691 401.141,24.884 398.379C25.518 397.821,26.101 397.314,26.633 396.757C26.962 398.734,27.216 400.457,27.469 401.952C24.149 402.941,21.894 406.438,21.894 409.86C21.894 412.419,23.896 415.917,26.836 415.917C27.114 415.917,27.444 415.79,27.444 415.461C27.444 415.131,27.089 414.954,26.633 414.65C25.214 413.762,24.428 412.825,24.428 411.025C24.428 408.82,26.05 407.021,28.204 406.514M27.114 380.993C27.444 379.548,29.117 375.721,31.017 375.721C31.575 375.721,32.437 377.495,32.437 380.004C32.437 383.806,29.623 386.67,27.114 389.128C26.886 387.684,26.709 386.264,26.709 384.718C26.709 383.375,26.836 382.133,27.114 380.993M19.461 429.729C19.461 432.137,21.311 435.305,26.253 435.305C27.951 435.305,29.446 434.874,30.764 434.063C32.741 432.669,33.248 430.261,33.248 427.98C33.248 426.536,33.02 424.914,32.665 422.836C32.563 422.101,32.335 421.011,32.107 419.566C35.681 418.4,38.367 414.675,38.367 410.924C38.367 405.424,34.464 401.699,29.117 401.699C28.762 399.494,28.382 397.34,28.078 395.312C31.93 391.257,34.591 386.695,34.591 380.891C34.591 377.571,33.577 374.859,32.994 373.567C32.107 371.691,31.068 370.424,30.409 370.424C30.156 370.424,29.015 370.855,27.799 372.274C25.467 375.062,24.808 379.726,24.808 382.792C24.808 384.769,25.011 386.543,25.619 390.623C25.594 390.674,23.693 392.6,22.907 393.234C19.587 396.326,15 400.736,15 408.035C15 414.878,20.956 420.225,27.748 420.225C28.787 420.225,29.776 420.124,30.612 419.972C31.322 423.469,31.727 426.029,31.727 427.98C31.727 431.757,29.776 433.784,26.101 433.784C25.214 433.784,24.453 433.582,24.377 433.582C24.352 433.556,24.276 433.505,24.276 433.48C24.276 433.404,24.352 433.379,24.453 433.328C26.177 433.075,27.875 431.63,27.875 429.273C27.875 427.322,26.379 425.243,23.642 425.243C21.083 425.243,19.461 427.322,19.461 429.729"/></g><g class="vf-stavenote" id="vf-auto24576"><g class="vf-stem" id="vf-auto24577" pointer-events="bounding-box"><path stroke-width="1.5" fill="none" d="M95.432 417.45L95.432 355"/></g><g class="vf-notehead" id="vf-auto24581" pointer-events="bounding-box"><path stroke="none" d="M91.662 414.665C87.73 414.665,83.041 417.95,83.041 421.685C83.041 423.426,84.305 425.391,87.562 425.391C91.774 425.391,96.182 421.938,96.182 418.371C96.182 415.985,94.161 414.665,91.662 414.665M90.566 421.769C90.454 421.853,87.478 423.482,86.074 423.482C84.726 423.482,84.445 422.387,84.445 422.022C84.445 420.337,88.489 418.343,88.657 418.259C88.826 418.175,91.69 416.574,93.15 416.574C94.133 416.574,94.778 417.136,94.778 418.006C94.778 419.747,90.679 421.685,90.566 421.769"/><g class="vf-chordsymbol" id="vf-auto24568"><text stroke="none" font-family="Roboto Slab, Times, serif" font-size="12pt" x="89.612" y="350">F7</text><path stroke="none" d="M112.5 339.119C112.568 339.102,112.628 339.017,112.628 338.948L112.628 338.221C112.628 338.119,112.559 338.05,112.457 338.05C112.448 338.05,112.448 338.05,112.431 338.05L112.029 338.136L112.029 336.297L111.678 336.297L111.678 338.204L110.584 338.426L110.584 336.69L110.241 336.69L110.241 338.503L109.762 338.598C109.685 338.615,109.626 338.7,109.626 338.769L109.626 338.794L109.626 339.513L109.626 339.487C109.626 339.59,109.703 339.658,109.797 339.658C109.814 339.658,109.822 339.658,109.831 339.658L110.241 339.573L110.241 341.608L109.762 341.702C109.685 341.72,109.626 341.805,109.626 341.874L109.626 342.592C109.626 342.686,109.703 342.763,109.797 342.763C109.814 342.763,109.822 342.763,109.831 342.763L110.241 342.678L110.241 344.517L110.584 344.517L110.584 342.601L111.678 342.378L111.678 344.115L112.029 344.115L112.029 342.31L112.5 342.224C112.568 342.207,112.628 342.122,112.628 342.053L112.628 341.326C112.628 341.223,112.559 341.146,112.457 341.146C112.448 341.146,112.448 341.146,112.431 341.146L112.029 341.232L112.029 339.205M110.584 339.496L111.678 339.282L111.678 341.309L110.584 341.54"/><text stroke="none" font-family="Roboto Slab, Times, serif" font-size="7.92pt" x="113.533" y="343.6">11</text><path stroke="none" d="M113.014 351.687C112.932 351.112,112.573 350.568,111.824 350.568C111.085 350.568,110.654 351.02,110.582 351.112L110.643 346.37C110.643 346.247,110.551 346.165,110.428 346.165L110.253 346.165C110.14 346.165,110.048 346.247,110.048 346.37L110.12 355.249C110.12 355.372,110.212 355.454,110.325 355.454C110.356 355.454,110.417 355.444,110.448 355.433C110.51 355.403,111.464 354.93,112.265 354.027C112.83 353.391,113.045 352.662,113.045 352.056C113.045 351.923,113.035 351.81,113.014 351.687M111.998 352.262C111.998 352.487,111.937 353.165,111.567 353.729C111.321 354.109,110.818 354.51,110.541 354.735L110.582 351.851C110.612 351.718,110.828 351.287,111.423 351.287C111.957 351.287,111.998 351.789,111.998 352.108C111.998 352.18,111.998 352.221,111.998 352.262"/><text stroke="none" font-family="Roboto Slab, Times, serif" font-size="7.92pt" x="113.491" y="354.8">9</text></g><path stroke="none" d="M79.959 416.881C79.74 415.349,78.782 413.899,76.785 413.899C74.815 413.899,73.666 415.103,73.475 415.349L73.639 402.708C73.639 402.38,73.393 402.161,73.064 402.161L72.599 402.161C72.298 402.161,72.052 402.38,72.052 402.708L72.243 426.375C72.243 426.703,72.49 426.922,72.791 426.922C72.873 426.922,73.037 426.895,73.119 426.867C73.283 426.785,75.828 425.527,77.962 423.119C79.466 421.423,80.041 419.48,80.041 417.866C80.041 417.51,80.014 417.209,79.959 416.881M77.25 418.413C77.25 419.015,77.086 420.821,76.101 422.326C75.445 423.338,74.104 424.405,73.365 425.007L73.475 417.319C73.557 416.963,74.131 415.814,75.718 415.814C77.141 415.814,77.25 417.155,77.25 418.003C77.25 418.194,77.25 418.304,77.25 418.413"/></g><g class="vf-notehead" id="vf-auto24582" pointer-events="bounding-box"><path stroke="none" d="M91.662 399.665C87.73 399.665,83.041 402.95,83.041 406.685C83.041 408.426,84.305 410.391,87.562 410.391C91.774 410.391,96.182 406.938,96.182 403.371C96.182 400.985,94.161 399.665,91.662 399.665M90.566 406.769C90.454 406.853,87.478 408.482,86.074 408.482C84.726 408.482,84.445 407.387,84.445 407.022C84.445 405.337,88.489 403.343,88.657 403.259C88.826 403.175,91.69 401.574,93.15 401.574C94.133 401.574,94.778 402.136,94.778 403.006C94.778 404.747,90.679 406.685,90.566 406.769"/></g><g class="vf-notehead" id="vf-auto24583" pointer-events="bounding-box"><path stroke="none" d="M91.662 384.665C87.73 384.665,83.041 387.95,83.041 391.685C83.041 393.426,84.305 395.391,87.562 395.391C91.774 395.391,96.182 391.938,96.182 388.371C96.182 385.985,94.161 384.665,91.662 384.665M90.566 391.769C90.454 391.853,87.478 393.482,86.074 393.482C84.726 393.482,84.445 392.387,84.445 392.022C84.445 390.337,88.489 388.343,88.657 388.259C88.826 388.175,91.69 386.574,93.15 386.574C94.133 386.574,94.778 387.136,94.778 388.006C94.778 389.747,90.679 391.685,90.566 391.769"/></g></g><g class="vf-stavenote" id="vf-auto24586"><path stroke-width="1.4" fill="none" stroke="#444" d="M251.725 430L270.867 430"/><g class="vf-stem" id="vf-auto24587" pointer-events="bounding-box"><path stroke-width="1.5" fill="none" d="M267.117 427.45L267.117 365"/></g><g class="vf-notehead" id="vf-auto24591" pointer-events="bounding-box"><path stroke="none" d="M263.346 424.665C259.415 424.665,254.725 427.95,254.725 431.685C254.725 433.426,255.989 435.391,259.246 435.391C263.458 435.391,267.867 431.938,267.867 428.371C267.867 425.985,265.845 424.665,263.346 424.665M262.251 431.769C262.138 431.853,259.162 433.482,257.758 433.482C256.41 433.482,256.129 432.387,256.129 432.022C256.129 430.337,260.173 428.343,260.341 428.259C260.51 428.175,263.374 426.574,264.834 426.574C265.817 426.574,266.463 427.136,266.463 428.006C266.463 429.747,262.363 431.685,262.251 431.769"/><g class="vf-chordsymbol" id="vf-auto24571"><text stroke="none" font-family="Roboto Slab, Times, serif" font-size="12pt" x="250.097" y="360">C</text><text stroke="none" font-family="Roboto Slab, Times, serif" font-size="7.92pt" x="261.775" y="353.6">Maj.</text></g></g><g class="vf-notehead" id="vf-auto24592" pointer-events="bounding-box"><path stroke="none" d="M263.346 414.665C259.415 414.665,254.725 417.95,254.725 421.685C254.725 423.426,255.989 425.391,259.246 425.391C263.458 425.391,267.867 421.938,267.867 418.371C267.867 415.985,265.845 414.665,263.346 414.665M262.251 421.769C262.138 421.853,259.162 423.482,257.758 423.482C256.41 423.482,256.129 422.387,256.129 422.022C256.129 420.337,260.173 418.343,260.341 418.259C260.51 418.175,263.374 416.574,264.834 416.574C265.817 416.574,266.463 417.136,266.463 418.006C266.463 419.747,262.363 421.685,262.251 421.769"/></g><g class="vf-notehead" id="vf-auto24593" pointer-events="bounding-box"><path stroke="none" d="M263.346 394.665C259.415 394.665,254.725 397.95,254.725 401.685C254.725 403.426,255.989 405.391,259.246 405.391C263.458 405.391,267.867 401.938,267.867 398.371C267.867 395.985,265.845 394.665,263.346 394.665M262.251 401.769C262.138 401.853,259.162 403.482,257.758 403.482C256.41 403.482,256.129 402.387,256.129 402.022C256.129 400.337,260.173 398.343,260.341 398.259C260.51 398.175,263.374 396.574,264.834 396.574C265.817 396.574,266.463 397.136,266.463 398.006C266.463 399.747,262.363 401.685,262.251 401.769"/></g></g></svg>