<svg xmlns="http://www.w3.org/2000/svg" stroke-width="0.3" stroke-dasharray="none" fill="black" stroke="black" font-family="Arial, sans-serif" font-size="10pt" font-weight="normal" font-style="normal" width="450" height="140" viewBox="0 0 450 140" style="width: 450px; height: 140px; border: none;"><g class="vf-stave" id="vf-auto35287" stroke-width="1" fill="#999999" stroke="#999999"><path fill="none" d="M10 50L450 50"/><path fill="none" d="M10 60L450 60"/><path fill="none" d="M10 70L450 70"/><path fill="none" d="M10 80L450 80"/><path fill="none" d="M10 90L450 90"/></g><g class="vf-stavebarline" id="vf-auto35288"><rect x="10" y="49.5" width="1" height="41" stroke="none"/></g><g class="vf-stavebarline" id="vf-auto35289"><rect x="450" y="49.5" width="1" height="41" stroke="none"/></g><g class="vf-stavenote" id="vf-auto35290"><path stroke-width="1.4" fill="none" stroke="#444" d="M24 100L41.99 100"/><path stroke-width="1.4" fill="none" stroke="#444" d="M24 110L41.99 110"/><path stroke-width="1.4" fill="none" stroke="#444" d="M24 120L41.99 120"/><g class="vf-stem" id="vf-auto35291" pointer-events="bounding-box"><path stroke-width="1.5" fill="none" d="M38.24 118.5L38.24 70"/></g><g class="vf-notehead" id="vf-auto35293" pointer-events="bounding-box"><path stroke="none" d="M34.104 114.889C34.188 114.889,34.273 114.889,34.413 114.889C34.778 114.889,35.312 114.918,35.508 114.946C37.839 115.283,38.99 116.827,38.99 118.624C38.99 120.534,37.698 122.724,35.115 124.128C33.852 124.802,32.56 125.111,31.38 125.111C29.218 125.111,27.449 124.044,27.084 122.162C27.028 121.881,27 121.629,27 121.376C27 118.343,30.257 115.283,34.104 114.889"/></g></g><g class="vf-stavenote" id="vf-auto35294"><path stroke-width="1.4" fill="none" stroke="#444" d="M96.877 40L114.867 40"/><g class="vf-stem" id="vf-auto35295" pointer-events="bounding-box"><path stroke-width="1.5" fill="none" d="M100.627 41.5L100.627 75"/></g><g class="vf-notehead" id="vf-auto35297" pointer-events="bounding-box"><path stroke="none" d="M106.981 34.889C107.065 34.889,107.149 34.889,107.29 34.889C107.655 34.889,108.188 34.918,108.385 34.946C110.716 35.283,111.867 36.827,111.867 38.624C111.867 40.534,110.575 42.724,107.992 44.128C106.728 44.802,105.437 45.111,104.257 45.111C102.095 45.111,100.326 44.044,99.961 42.162C99.905 41.881,99.877 41.629,99.877 41.376C99.877 38.343,103.134 35.283,106.981 34.889"/></g></g><g class="vf-stavenote" id="vf-auto35298"><g class="vf-stem" id="vf-auto35299" pointer-events="bounding-box"><path stroke-width="1.5" fill="none" d="M183.994 73.5L183.994 40"/></g><g class="vf-notehead" id="vf-auto35301" pointer-events="bounding-box"><path stroke="none" d="M179.858 69.889C179.942 69.889,180.026 69.889,180.167 69.889C180.532 69.889,181.065 69.918,181.262 69.946C183.592 70.283,184.744 71.827,184.744 73.624C184.744 75.534,183.452 77.724,180.869 79.128C179.605 79.802,178.313 80.111,177.134 80.111C174.972 80.111,173.203 79.044,172.838 77.162C172.782 76.881,172.754 76.629,172.754 76.376C172.754 73.343,176.011 70.283,179.858 69.889"/></g></g><g class="vf-stavenote" id="vf-auto35302"><path stroke-width="1.4" fill="none" stroke="#444" d="M242.63 100L260.62 100"/><path stroke-width="1.4" fill="none" stroke="#444" d="M242.63 110L260.62 110"/><path stroke-width="1.4" fill="none" stroke="#444" d="M242.63 120L260.62 120"/><g class="vf-stem" id="vf-auto35303" pointer-events="bounding-box"><path stroke-width="1.5" fill="none" d="M256.87 118.5L256.87 70"/></g><g class="vf-notehead" id="vf-auto35305" pointer-events="bounding-box"><path stroke="none" d="M252.735 114.889C252.819 114.889,252.903 114.889,253.043 114.889C253.408 114.889,253.942 114.918,254.139 114.946C256.469 115.283,257.62 116.827,257.62 118.624C257.62 120.534,256.329 122.724,253.745 124.128C252.482 124.802,251.19 125.111,250.011 125.111C247.849 125.111,246.08 124.044,245.715 122.162C245.658 121.881,245.63 121.629,245.63 121.376C245.63 118.343,248.888 115.283,252.735 114.889"/></g></g><g class="vf-stavenote" id="vf-auto35306"><g class="vf-stem" id="vf-auto35307" pointer-events="bounding-box"><path stroke-width="1.5" fill="none" d="M319.257 76.5L319.257 110"/></g><g class="vf-notehead" id="vf-auto35309" pointer-events="bounding-box"><path stroke="none" d="M325.611 69.889C325.696 69.889,325.78 69.889,325.92 69.889C326.285 69.889,326.819 69.918,327.015 69.946C329.346 70.283,330.497 71.827,330.497 73.624C330.497 75.534,329.206 77.724,326.622 79.128C325.359 79.802,324.067 80.111,322.888 80.111C320.725 80.111,318.956 79.044,318.591 77.162C318.535 76.881,318.507 76.629,318.507 76.376C318.507 73.343,321.764 70.283,325.611 69.889"/></g></g><g class="vf-stavenote" id="vf-auto35310"><path stroke-width="1.4" fill="none" stroke="#444" d="M388.384 100L406.374 100"/><g class="vf-stem" id="vf-auto35311" pointer-events="bounding-box"><path stroke-width="1.5" fill="none" d="M392.134 101.5L392.134 135"/></g><g class="vf-notehead" id="vf-auto35313" pointer-events="bounding-box"><path stroke="none" d="M398.488 94.889C398.572 94.889,398.657 94.889,398.797 94.889C399.162 94.889,399.696 94.918,399.892 94.946C402.223 95.283,403.374 96.827,403.374 98.624C403.374 100.534,402.082 102.724,399.499 104.128C398.235 104.802,396.944 105.111,395.764 105.111C393.602 105.111,391.833 104.044,391.468 102.162C391.412 101.881,391.384 101.629,391.384 101.376C391.384 98.343,394.641 95.283,398.488 94.889"/></g></g><rect x="22" y="20" width="37.827" height="1" stroke="none"/><rect x="79.04" y="20" width="37.827" height="1" stroke="none"/><rect x="22" y="20" width="1" height="10" stroke="none"/><rect x="116.867" y="20" width="1" height="10" stroke="none"/><path stroke="none" d="M68.798 14.572C68.94 14.572,69.081 14.552,69.222 14.552C69.766 14.552,70.391 14.633,70.835 14.774C72.528 15.257,73.516 16.386,73.516 17.717C73.516 18.161,73.415 18.604,73.193 19.068C72.589 20.318,71.439 21.205,69.726 21.789C68.093 22.313,67.045 22.979,66.278 23.946L66.198 24.027L66.299 23.946C67.125 23.281,68.133 22.938,69.121 22.938C69.766 22.938,70.391 23.08,70.935 23.382C71.379 23.624,71.641 23.725,71.984 23.785C72.085 23.805,72.205 23.805,72.306 23.805C72.81 23.805,73.274 23.624,73.435 23.342C73.496 23.201,73.617 23.14,73.738 23.14C73.879 23.14,74.04 23.261,74.04 23.463C74.04 23.644,73.798 24.249,73.576 24.632C72.931 25.741,71.903 26.446,70.875 26.446L70.855 26.446C70.431 26.426,70.31 26.406,69.988 26.204C69.121 25.64,68.214 25.358,67.347 25.358C67.085 25.358,66.843 25.378,66.601 25.438C66.117 25.539,65.613 25.821,65.432 26.083C65.351 26.184,65.23 26.245,65.129 26.245C65.008 26.245,64.887 26.184,64.847 26.043C64.827 26.023,64.827 25.962,64.827 25.882C64.827 25.64,64.867 25.237,64.948 24.954C65.351 23.281,66.541 21.93,68.234 21.185C69.484 20.64,70.331 19.552,70.573 18.201C70.593 18.04,70.613 17.878,70.613 17.737C70.613 17.153,70.391 16.628,69.988 16.245C69.544 15.822,69 15.6,68.315 15.6C68.194 15.6,68.053 15.62,67.911 15.641C67.75 15.641,67.71 15.661,67.71 15.661C67.71 15.681,67.73 15.681,67.75 15.701C68.234 16.003,68.456 16.467,68.456 16.951C68.456 17.556,68.093 18.161,67.428 18.382C67.266 18.443,67.105 18.463,66.944 18.463C66.097 18.463,65.391 17.737,65.391 16.89C65.391 16.749,65.412 16.608,65.452 16.447C65.714 15.54,67.145 14.733,68.798 14.572M69.423 27.333L69.464 27.333L69.403 27.333M69.423 14.068L69.464 14.068L69.403 14.068"/><rect x="167.754" y="30" width="37.827" height="1" stroke="none"/><rect x="224.794" y="30" width="37.827" height="1" stroke="none"/><rect x="167.754" y="30" width="1" height="10" stroke="none"/><rect x="262.62" y="30" width="1" height="10" stroke="none"/><path stroke="none" d="M214.552 24.572C214.693 24.572,214.834 24.552,214.975 24.552C215.52 24.552,216.145 24.633,216.588 24.774C218.282 25.257,219.269 26.386,219.269 27.717C219.269 28.161,219.169 28.604,218.947 29.068C218.342 30.318,217.193 31.205,215.479 31.789C213.846 32.313,212.798 32.979,212.032 33.946L211.951 34.027L212.052 33.946C212.879 33.281,213.887 32.938,214.875 32.938C215.52 32.938,216.145 33.08,216.689 33.382C217.132 33.624,217.395 33.725,217.737 33.785C217.838 33.805,217.959 33.805,218.06 33.805C218.564 33.805,219.028 33.624,219.189 33.342C219.249 33.201,219.37 33.14,219.491 33.14C219.632 33.14,219.794 33.261,219.794 33.463C219.794 33.644,219.552 34.249,219.33 34.632C218.685 35.741,217.657 36.446,216.628 36.446L216.608 36.446C216.185 36.426,216.064 36.406,215.741 36.204C214.875 35.64,213.967 35.358,213.1 35.358C212.838 35.358,212.596 35.378,212.355 35.438C211.871 35.539,211.367 35.821,211.185 36.083C211.105 36.184,210.984 36.245,210.883 36.245C210.762 36.245,210.641 36.184,210.601 36.043C210.58 36.023,210.58 35.962,210.58 35.882C210.58 35.64,210.621 35.237,210.701 34.954C211.105 33.281,212.294 31.93,213.988 31.185C215.237 30.64,216.084 29.552,216.326 28.201C216.346 28.04,216.366 27.878,216.366 27.737C216.366 27.153,216.145 26.628,215.741 26.245C215.298 25.822,214.754 25.6,214.068 25.6C213.947 25.6,213.806 25.62,213.665 25.641C213.504 25.641,213.463 25.661,213.463 25.661C213.463 25.681,213.484 25.681,213.504 25.701C213.988 26.003,214.209 26.467,214.209 26.951C214.209 27.556,213.846 28.161,213.181 28.382C213.02 28.443,212.859 28.463,212.697 28.463C211.851 28.463,211.145 27.737,211.145 26.89C211.145 26.749,211.165 26.608,211.205 26.447C211.468 25.54,212.899 24.733,214.552 24.572M215.177 37.333L215.217 37.333L215.157 37.333M215.177 24.068L215.217 24.068L215.157 24.068"/><rect x="313.507" y="35" width="37.827" height="1" stroke="none"/><rect x="370.547" y="35" width="37.827" height="1" stroke="none"/><rect x="313.507" y="35" width="1" height="10" stroke="none"/><rect x="408.374" y="35" width="1" height="10" stroke="none"/><path stroke="none" d="M360.306 29.572C360.447 29.572,360.588 29.552,360.729 29.552C361.273 29.552,361.898 29.633,362.342 29.774C364.035 30.257,365.023 31.386,365.023 32.717C365.023 33.161,364.922 33.604,364.7 34.068C364.096 35.318,362.946 36.205,361.233 36.789C359.6 37.313,358.552 37.979,357.786 38.946L357.705 39.027L357.806 38.946C358.632 38.281,359.64 37.938,360.628 37.938C361.273 37.938,361.898 38.08,362.442 38.382C362.886 38.624,363.148 38.725,363.491 38.785C363.592 38.805,363.713 38.805,363.813 38.805C364.317 38.805,364.781 38.624,364.942 38.342C365.003 38.201,365.124 38.14,365.245 38.14C365.386 38.14,365.547 38.261,365.547 38.463C365.547 38.644,365.305 39.249,365.083 39.632C364.438 40.741,363.41 41.446,362.382 41.446L362.362 41.446C361.938 41.426,361.818 41.406,361.495 41.204C360.628 40.64,359.721 40.358,358.854 40.358C358.592 40.358,358.35 40.378,358.108 40.438C357.624 40.539,357.12 40.821,356.939 41.083C356.858 41.184,356.737 41.245,356.636 41.245C356.515 41.245,356.394 41.184,356.354 41.043C356.334 41.023,356.334 40.962,356.334 40.882C356.334 40.64,356.374 40.237,356.455 39.954C356.858 38.281,358.048 36.93,359.741 36.185C360.991 35.64,361.838 34.552,362.08 33.201C362.1 33.04,362.12 32.878,362.12 32.737C362.12 32.153,361.898 31.628,361.495 31.245C361.051 30.822,360.507 30.6,359.822 30.6C359.701 30.6,359.56 30.62,359.418 30.641C359.257 30.641,359.217 30.661,359.217 30.661C359.217 30.681,359.237 30.681,359.257 30.701C359.741 31.003,359.963 31.467,359.963 31.951C359.963 32.556,359.6 33.161,358.935 33.382C358.773 33.443,358.612 33.463,358.451 33.463C357.604 33.463,356.898 32.737,356.898 31.89C356.898 31.749,356.919 31.608,356.959 31.447C357.221 30.54,358.652 29.733,360.306 29.572M360.93 42.333L360.971 42.333L360.91 42.333M360.93 29.068L360.971 29.068L360.91 29.068"/></svg>