<svg xmlns="http://www.w3.org/2000/svg" stroke-width="0.3" stroke-dasharray="none" fill="black" stroke="black" font-family="Arial, sans-serif" font-size="10pt" font-weight="normal" font-style="normal" width="700" height="180" viewBox="0 0 700 180" style="width: 700px; height: 180px; border: none;"><g class="vf-stave" id="vf-auto33404" stroke-width="1" fill="#999999" stroke="#999999"><path fill="none" d="M10 50L660 50"/><path fill="none" d="M10 60L660 60"/><path fill="none" d="M10 70L660 70"/><path fill="none" d="M10 80L660 80"/><path fill="none" d="M10 90L660 90"/></g><g class="vf-stavebarline" id="vf-auto33405"><rect x="10" y="49.5" width="1" height="41" stroke="none"/></g><g class="vf-stavebarline" id="vf-auto33406"><rect x="660" y="49.5" width="1" height="41" stroke="none"/></g><g class="vf-stavenote" id="vf-auto33407"><g class="vf-notehead" id="vf-auto33410" pointer-events="bounding-box"><path stroke-width="1.5" fill="none" d="M27.75 80L27.75 71L42.75 60L42.75 70L27.75 80Z"/><path stroke-width="1.5" fill="none" d="M24.75 60L24.75 81"/><path stroke-width="1.5" fill="none" d="M26.75 60L26.75 81"/><path stroke-width="1.5" fill="none" d="M43.75 60L43.75 81"/><path stroke-width="1.5" fill="none" d="M45.75 60L45.75 81"/></g></g><g class="vf-stavenote" id="vf-auto33411"><g class="vf-notehead" id="vf-auto33414" pointer-events="bounding-box"><path stroke-width="1.5" fill="none" d="M63.309 80L63.309 71L78.309 60L78.309 70L63.309 80Z"/></g></g><g class="vf-stavenote" id="vf-auto33415"><g class="vf-stem" id="vf-auto33416" pointer-events="bounding-box"><path stroke-width="1.5" fill="none" d="M90.417 70L90.417 105"/></g><g class="vf-notehead" id="vf-auto33418" pointer-events="bounding-box"><path stroke-width="1.5" fill="none" d="M90.417 80L90.417 71L105.417 60L105.417 70L90.417 80Z"/></g></g><g class="vf-stavenote" id="vf-auto33419"><g class="vf-stem" id="vf-auto33420" pointer-events="bounding-box"><path stroke-width="1.5" fill="none" d="M116.007 70L116.007 105"/></g><g class="vf-notehead" id="vf-auto33422" pointer-events="bounding-box"><path stroke-width="1.5" stroke="none" d="M115.257 80L115.257 71L130.257 60L130.257 70L115.257 80Z"/></g></g><g class="vf-stavenote" id="vf-auto33423"><g class="vf-stem" id="vf-auto33424" pointer-events="bounding-box"><path stroke-width="1.5" fill="none" d="M141.598 70L141.598 102"/></g><g class="vf-notehead" id="vf-auto33427" pointer-events="bounding-box"><path stroke-width="1.5" stroke="none" d="M140.848 80L140.848 71L155.848 60L155.848 70L140.848 80Z"/></g><path stroke="none" d="M147.84 78.723C147.924 78.695,148.008 78.695,148.092 78.695C148.317 78.695,148.486 78.864,148.766 79.257C150.732 82.262,151.743 85.631,151.743 88.86C151.743 90.938,151.322 92.932,150.479 94.757C149.862 96.105,148.963 97.369,147.98 98.267C145.818 100.233,144.33 101.889,143.038 103.715C142.364 104.641,141.718 105.736,141.438 106.438C141.325 106.691,141.129 106.86,140.932 106.86L140.848 106.86L140.848 102.591L140.848 98.351L140.988 98.351C141.774 98.351,143.263 98.071,144.217 97.762C147.812 96.554,150.255 92.567,150.255 87.962C150.255 85.21,149.384 82.346,147.756 79.875C147.531 79.51,147.475 79.454,147.475 79.285C147.475 79.032,147.615 78.808,147.84 78.723"/></g><g class="vf-stavenote" id="vf-auto33429"><g class="vf-stem" id="vf-auto33430" pointer-events="bounding-box"><path stroke-width="1.5" fill="none" d="M167.188 70L167.188 102"/></g><g class="vf-notehead" id="vf-auto33433" pointer-events="bounding-box"><path stroke-width="1.5" stroke="none" d="M166.438 80L166.438 71L181.438 60L181.438 70L166.438 80Z"/></g><path stroke="none" d="M175.452 78.723C175.536 78.695,175.62 78.695,175.676 78.695C175.929 78.695,176.126 78.836,176.266 79.173C176.856 80.408,177.165 81.784,177.165 83.216C177.165 84.396,176.94 85.631,176.519 86.782L176.435 87.063L176.519 87.344C176.94 88.439,177.165 89.59,177.165 90.77C177.165 93.381,176.154 96.021,174.244 98.127C173.851 98.576,173.374 99.025,172.756 99.559C170.341 101.609,168.123 104.276,167 106.523C166.887 106.719,166.691 106.86,166.522 106.86L166.438 106.86L166.438 103.153L166.438 99.418L166.719 99.39C169.415 98.969,171.296 98.295,172.644 97.256C174.778 95.571,175.957 93.157,175.957 90.629C175.957 90.012,175.901 89.366,175.761 88.748L175.705 88.551L175.564 88.804C174.862 89.984,174.02 90.91,172.756 91.977C170.341 94.055,168.123 96.695,167 98.941C166.887 99.138,166.691 99.306,166.522 99.306L166.438 99.306L166.438 95.571L166.438 91.865L166.719 91.837C169.106 91.472,170.903 90.854,172.166 90.04C174.581 88.411,175.957 85.715,175.957 83.02C175.957 81.925,175.733 80.858,175.283 79.819C175.087 79.425,175.087 79.425,175.087 79.285C175.087 79.032,175.227 78.808,175.452 78.723"/></g><g class="vf-stavenote" id="vf-auto33435"><g class="vf-stem" id="vf-auto33436" pointer-events="bounding-box"><path stroke-width="1.5" fill="none" d="M192.778 70L192.778 111"/></g><g class="vf-notehead" id="vf-auto33439" pointer-events="bounding-box"><path stroke-width="1.5" stroke="none" d="M192.028 80L192.028 71L207.028 60L207.028 70L192.028 80Z"/></g><path stroke="none" d="M200.312 78.232C200.368 78.204,200.452 78.204,200.537 78.204C200.621 78.204,200.705 78.204,200.761 78.232C201.182 78.373,202.109 80.282,202.502 81.827C202.727 82.781,202.867 83.764,202.867 84.775C202.867 85.982,202.671 87.218,202.334 88.341L202.25 88.566L202.334 88.819C202.39 88.959,202.446 89.212,202.502 89.38C202.727 90.335,202.867 91.346,202.867 92.329C202.867 93.564,202.671 94.772,202.334 95.895L202.25 96.119L202.334 96.372C202.39 96.512,202.446 96.765,202.502 96.934C202.755 97.916,202.867 98.899,202.867 99.882C202.867 103.252,201.435 106.537,198.852 108.812C198.571 109.064,198.571 109.064,197.925 109.598C195.538 111.507,193.573 113.641,192.618 115.438C192.478 115.719,192.309 115.86,192.113 115.86L192.028 115.86L192.028 112.209L192.028 108.559L192.197 108.559C194.387 108.222,196.437 107.52,197.897 106.537C200.2 104.993,201.576 102.269,201.576 99.377C201.576 98.984,201.548 98.59,201.491 98.169L201.463 97.945L201.407 98.029C200.677 99.32,199.863 100.359,198.852 101.258C198.571 101.483,198.571 101.511,197.925 102.044C195.538 103.926,193.573 106.088,192.618 107.857C192.478 108.166,192.309 108.306,192.113 108.306L192.028 108.306L192.028 104.656L192.028 101.005L192.197 100.977C194.387 100.668,196.437 99.938,197.897 98.984C200.2 97.439,201.576 94.715,201.576 91.823C201.576 91.43,201.548 91.009,201.491 90.616L201.463 90.391L201.407 90.475C200.677 91.767,199.863 92.806,198.852 93.704C198.571 93.929,198.571 93.929,197.925 94.463C195.538 96.372,193.573 98.534,192.618 100.303C192.478 100.584,192.309 100.724,192.113 100.724L192.028 100.724L192.028 97.074L192.028 93.452L192.197 93.424C194.64 93.059,196.97 92.188,198.403 91.037C200.48 89.38,201.576 86.881,201.576 84.27C201.576 82.585,201.126 80.872,200.172 79.299C199.975 78.991,199.975 78.934,199.975 78.766C199.975 78.513,200.115 78.317,200.312 78.232"/></g><g class="vf-stavenote" id="vf-auto33441"><g class="vf-stem" id="vf-auto33442" pointer-events="bounding-box"><path stroke-width="1.5" fill="none" d="M218.368 70L218.368 115"/></g><g class="vf-notehead" id="vf-auto33445" pointer-events="bounding-box"><path stroke-width="1.5" stroke="none" d="M217.618 80L217.618 71L232.618 60L232.618 70L217.618 80Z"/></g><path stroke="none" d="M225.397 77.487C225.481 77.459,225.537 77.431,225.621 77.431C225.762 77.431,225.902 77.487,226.043 77.599C226.717 78.133,227.278 78.835,227.699 79.593C228.233 80.632,228.514 81.783,228.514 82.962C228.514 84.17,228.205 85.377,227.643 86.529L227.475 86.809L227.531 86.866C227.559 86.922,227.615 87.034,227.699 87.174C228.233 88.213,228.514 89.337,228.514 90.516C228.514 91.723,228.205 92.959,227.643 94.11L227.475 94.391L227.531 94.447C227.559 94.475,227.615 94.588,227.699 94.728C228.233 95.767,228.514 96.918,228.514 98.07C228.514 99.277,228.205 100.512,227.643 101.664L227.475 101.945L227.531 102.001C228.093 102.843,228.486 104.331,228.486 105.595C228.486 105.623,228.486 105.623,228.486 105.623C228.486 108.375,227.138 110.818,224.695 112.503C221.634 114.609,218.995 117.417,218.18 119.466C218.096 119.691,217.928 119.832,217.731 119.86L217.619 119.86L217.619 116.293L217.619 112.727L217.871 112.699C219.556 112.615,221.241 112.306,222.336 111.857C225.228 110.706,227.138 107.982,227.138 105.258C227.138 104.64,227.025 104.022,226.829 103.433C226.745 103.208,226.717 103.152,226.689 103.152C226.66 103.152,226.632 103.18,226.576 103.236C226.099 103.854,225.481 104.388,224.695 104.921C221.606 107.055,218.995 109.863,218.18 111.885C218.096 112.138,217.928 112.278,217.731 112.278L217.619 112.306L217.619 108.712L217.619 105.146L217.871 105.146C219.556 105.061,221.241 104.724,222.336 104.303C225.228 103.152,227.138 100.428,227.138 97.704C227.138 97.087,227.025 96.469,226.829 95.879C226.745 95.655,226.717 95.57,226.689 95.57C226.66 95.57,226.632 95.627,226.576 95.683C226.099 96.3,225.481 96.834,224.695 97.368C221.606 99.502,218.995 102.282,218.18 104.331C218.096 104.556,217.928 104.696,217.731 104.724L217.619 104.724L217.619 101.158L217.619 97.592L217.871 97.564C219.556 97.48,221.241 97.171,222.336 96.75C225.228 95.598,227.138 92.847,227.138 90.151C227.138 89.533,227.025 88.915,226.829 88.326C226.745 88.101,226.717 88.017,226.689 88.017C226.66 88.017,226.632 88.045,226.576 88.129C226.099 88.719,225.481 89.28,224.695 89.814C221.606 91.92,218.995 94.728,218.18 96.778C218.096 97.002,217.928 97.143,217.731 97.171L217.619 97.171L217.619 93.605L217.619 90.039L217.871 90.011C219.556 89.926,221.241 89.617,222.336 89.168C225.172 88.045,227.11 85.377,227.11 82.597L227.11 82.597C227.11 80.997,226.464 79.481,225.369 78.582C225.116 78.357,225.06 78.245,225.06 78.02C225.06 77.768,225.2 77.543,225.397 77.487"/></g><g class="vf-stavenote" id="vf-auto33447"><g class="vf-stem" id="vf-auto33448" pointer-events="bounding-box"><path stroke-width="1.5" fill="none" d="M243.959 70L243.959 124"/></g><g class="vf-notehead" id="vf-auto33451" pointer-events="bounding-box"><path stroke-width="1.5" stroke="none" d="M243.209 80L243.209 71L258.209 60L258.209 70L243.209 80Z"/></g><path stroke="none" d="M251.493 76.968C251.577 76.94,251.661 76.912,251.717 76.912C251.942 76.912,252.138 77.08,252.391 77.417C253.514 79.018,254.076 80.899,254.076 82.78C254.076 83.96,253.851 85.139,253.402 86.29L253.29 86.571L253.402 86.88C253.851 87.975,254.076 89.154,254.076 90.334C254.076 91.541,253.851 92.721,253.402 93.844L253.29 94.125L253.402 94.434C253.851 95.557,254.076 96.736,254.076 97.915C254.076 99.095,253.851 100.274,253.402 101.397L253.29 101.678L253.402 101.987C253.851 103.11,254.076 104.29,254.076 105.469C254.076 106.648,253.851 107.856,253.402 108.979L253.29 109.26L253.402 109.569C253.851 110.692,254.076 111.871,254.076 113.022C254.076 115.774,252.868 118.442,250.65 120.323C247.365 123.075,244.753 126.164,243.799 128.41C243.686 128.691,243.49 128.86,243.293 128.86L243.209 128.86L243.237 125.35L243.237 121.84L243.434 121.812C244.473 121.587,245.877 121.081,247.056 120.548C248.235 119.986,248.797 119.677,249.415 119.2C251.549 117.6,252.756 115.157,252.756 112.657C252.756 112.068,252.7 111.506,252.56 110.945C252.531 110.776,252.531 110.72,252.503 110.72C252.475 110.72,252.447 110.748,252.419 110.832C251.942 111.506,251.324 112.18,250.65 112.742C247.365 115.494,244.753 118.61,243.799 120.857C243.686 121.138,243.49 121.306,243.293 121.306L243.209 121.306L243.237 117.796L243.237 114.286L243.434 114.23C244.473 114.033,245.877 113.528,247.056 112.994C248.235 112.433,248.797 112.124,249.415 111.647C251.549 110.046,252.756 107.603,252.756 105.076C252.756 104.514,252.7 103.953,252.56 103.391C252.531 103.223,252.531 103.166,252.503 103.166C252.475 103.166,252.447 103.194,252.419 103.251C251.942 103.953,251.324 104.598,250.65 105.188C247.365 107.94,244.753 111.057,243.799 113.303C243.686 113.584,243.49 113.724,243.293 113.724L243.209 113.724L243.237 110.214L243.237 106.733L243.434 106.676C244.473 106.452,245.877 105.974,247.056 105.413C248.235 104.879,248.797 104.57,249.415 104.093C251.549 102.492,252.756 100.05,252.756 97.522C252.756 96.961,252.7 96.371,252.56 95.809C252.531 95.669,252.531 95.585,252.503 95.585C252.475 95.585,252.447 95.641,252.419 95.697C251.914 96.427,251.352 97.045,250.538 97.719C247.365 100.386,244.725 103.531,243.799 105.722C243.686 106.002,243.49 106.171,243.293 106.171L243.209 106.171L243.237 102.661L243.237 99.151L243.434 99.123C244.473 98.898,245.877 98.421,247.056 97.859C248.235 97.326,248.797 96.989,249.415 96.54C251.549 94.911,252.756 92.468,252.756 89.969C252.756 89.407,252.7 88.818,252.56 88.256C252.531 88.087,252.531 88.031,252.503 88.031C252.475 88.031,252.447 88.059,252.419 88.144C251.914 88.874,251.352 89.463,250.538 90.165C247.365 92.833,244.725 95.95,243.799 98.168C243.686 98.449,243.49 98.617,243.293 98.617L243.209 98.617L243.237 95.107L243.237 91.597L243.434 91.569C244.473 91.345,245.877 90.839,247.056 90.306C248.235 89.744,248.797 89.435,249.415 88.958C251.605 87.329,252.756 84.858,252.756 82.387C252.756 80.843,252.307 79.298,251.324 77.979C251.212 77.81,251.156 77.614,251.156 77.473C251.156 77.249,251.268 77.052,251.493 76.968"/></g><g class="vf-stavenote" id="vf-auto33453"><g class="vf-notehead" id="vf-auto33456" pointer-events="bounding-box"><path stroke-width="1.5" fill="none" d="M268.049 80L268.049 71L283.049 60L283.049 70L268.049 80Z"/><path stroke-width="1.5" fill="none" d="M265.049 60L265.049 81"/><path stroke-width="1.5" fill="none" d="M267.049 60L267.049 81"/><path stroke-width="1.5" fill="none" d="M284.049 60L284.049 81"/><path stroke-width="1.5" fill="none" d="M286.049 60L286.049 81"/></g></g><g class="vf-stavenote" id="vf-auto33457"><g class="vf-notehead" id="vf-auto33460" pointer-events="bounding-box"><path stroke-width="1.5" fill="none" d="M303.608 80L303.608 71L318.608 60L318.608 70L303.608 80Z"/></g></g><g class="vf-stavenote" id="vf-auto33461"><g class="vf-stem" id="vf-auto33462" pointer-events="bounding-box"><path stroke-width="1.5" fill="none" d="M345.716 70L345.716 35"/></g><g class="vf-notehead" id="vf-auto33464" pointer-events="bounding-box"><path stroke-width="1.5" fill="none" d="M330.716 80L330.716 71L345.716 60L345.716 70L330.716 80Z"/></g></g><g class="vf-stavenote" id="vf-auto33465"><g class="vf-stem" id="vf-auto33466" pointer-events="bounding-box"><path stroke-width="1.5" fill="none" d="M371.306 70L371.306 35"/></g><g class="vf-notehead" id="vf-auto33468" pointer-events="bounding-box"><path stroke-width="1.5" stroke="none" d="M357.056 80L357.056 71L372.056 60L372.056 70L357.056 80Z"/></g></g><g class="vf-stavenote" id="vf-auto33469"><g class="vf-stem" id="vf-auto33470" pointer-events="bounding-box"><path stroke-width="1.5" fill="none" d="M396.896 70L396.896 38"/></g><g class="vf-notehead" id="vf-auto33473" pointer-events="bounding-box"><path stroke-width="1.5" stroke="none" d="M382.646 80L382.646 71L397.646 60L397.646 70L382.646 80Z"/></g><path stroke="none" d="M396.171 37.409L396.171 33.14L396.255 33.14C396.592 33.14,396.732 33.309,396.844 33.758C397.659 36.819,399.203 39.346,401.646 41.592C404.342 44.092,405.69 47.545,405.69 51.084C405.69 54.172,404.679 57.373,402.601 60.125C401.871 61.108,401.646 61.305,401.365 61.305C401 61.305,400.776 61.052,400.776 60.771C400.776 60.603,400.86 60.406,401 60.238C403.191 57.682,404.314 54.594,404.314 51.673C404.314 49.09,403.443 46.647,401.702 44.766C400.607 43.614,398.726 42.547,396.199 41.677C396.171 41.677,396.171 40.806,396.171 37.409"/></g><g class="vf-stavenote" id="vf-auto33475"><g class="vf-stem" id="vf-auto33476" pointer-events="bounding-box"><path stroke-width="1.5" fill="none" d="M428.896 70L428.896 38"/></g><g class="vf-notehead" id="vf-auto33479" pointer-events="bounding-box"><path stroke-width="1.5" stroke="none" d="M414.646 80L414.646 71L429.646 60L429.646 70L414.646 80Z"/></g><path stroke="none" d="M428.171 36.987L428.171 33.14L428.255 33.14C428.508 33.14,428.704 33.281,428.816 33.59C429.631 35.527,431.54 37.97,434.32 40.61C436.51 42.744,437.69 45.608,437.69 48.612C437.69 49.904,437.493 51.224,437.044 52.516L436.932 52.824L437.044 53.133C437.493 54.341,437.69 55.604,437.69 56.896C437.69 59.479,436.819 62.119,435.191 64.281C434.573 65.067,434.432 65.18,434.152 65.18C433.787 65.18,433.562 64.927,433.562 64.618C433.562 64.478,433.618 64.309,433.73 64.197C435.471 62.203,436.37 59.788,436.37 57.345C436.37 56.924,436.342 56.475,436.286 56.054C436.23 55.717,436.201 55.408,436.145 55.267C436.145 55.239,436.089 55.071,436.061 54.902C435.556 52.993,434.376 51.28,432.832 50.185C431.961 49.595,430.164 49.146,428.564 49.146C428.395 49.146,428.255 49.146,428.227 49.146L428.171 49.118L428.171 45.271L428.171 41.424L428.255 41.424C428.508 41.424,428.704 41.564,428.816 41.873C429.631 43.811,431.568 46.31,434.292 48.893C435.022 49.567,435.668 50.382,436.089 51.084C436.117 51.112,436.117 51.14,436.145 51.14C436.145 51.14,436.173 51.084,436.201 50.943C436.314 50.325,436.37 49.708,436.37 49.062C436.37 48.472,436.314 47.882,436.201 47.293C436.201 47.18,436.173 47.04,436.145 47.012C436.145 46.956,436.089 46.787,436.061 46.619C435.556 44.709,434.376 42.996,432.832 41.901C431.961 41.312,430.164 40.862,428.564 40.862C428.395 40.862,428.255 40.862,428.227 40.862L428.171 40.834"/></g><g class="vf-stavenote" id="vf-auto33481"><g class="vf-stem" id="vf-auto33482" pointer-events="bounding-box"><path stroke-width="1.5" fill="none" d="M460.896 70L460.896 29"/></g><g class="vf-notehead" id="vf-auto33485" pointer-events="bounding-box"><path stroke-width="1.5" stroke="none" d="M446.646 80L446.646 71L461.646 60L461.646 70L446.646 80Z"/></g><path stroke="none" d="M460.171 27.959L460.171 24.14L460.255 24.14C460.508 24.14,460.676 24.253,460.844 24.618C461.631 26.19,463.372 28.352,465.337 30.234C465.618 30.515,465.983 30.852,466.124 30.992C467.836 32.677,469.016 35.035,469.465 37.703C469.605 38.461,469.662 39.247,469.662 40.062C469.662 41.353,469.493 42.701,469.184 43.965L469.1 44.33L469.128 44.47C469.24 44.892,469.381 45.481,469.465 45.987C469.605 46.745,469.662 47.531,469.662 48.345C469.662 49.637,469.493 50.957,469.184 52.248L469.1 52.614L469.128 52.754C469.24 53.175,469.381 53.765,469.465 54.27C469.605 55.028,469.662 55.815,469.662 56.629C469.662 58.847,469.156 61.178,468.23 63.34C467.808 64.211,467.05 65.615,466.854 65.839C466.713 65.952,466.573 66.008,466.432 66.008C466.152 66.008,465.871 65.755,465.871 65.418C465.871 65.25,465.871 65.193,466.039 64.913C467.528 62.554,468.314 59.886,468.314 57.331C468.314 56.91,468.286 56.489,468.23 56.095C467.921 52.838,466.264 50.086,463.933 48.851C463.287 48.514,462.389 48.373,460.985 48.345L460.171 48.345L460.171 44.526L460.171 40.708L460.255 40.708C460.508 40.708,460.676 40.82,460.844 41.185C461.631 42.757,463.372 44.948,465.337 46.801C466.854 48.233,467.387 48.907,468.089 50.171L468.23 50.451L468.258 50.199C468.286 49.834,468.314 49.44,468.314 49.075C468.314 45.313,466.629 41.971,463.933 40.567C463.287 40.23,462.389 40.09,460.985 40.062L460.171 40.062L460.171 36.243L460.171 32.424L460.255 32.424C460.508 32.424,460.676 32.536,460.844 32.901C461.631 34.474,463.372 36.664,465.337 38.517C466.854 39.949,467.387 40.623,468.089 41.915L468.23 42.168L468.258 41.915C468.286 41.55,468.314 41.157,468.314 40.792C468.314 37.029,466.629 33.688,463.933 32.284C463.287 31.947,462.389 31.806,460.985 31.778L460.171 31.778"/></g><g class="vf-stavenote" id="vf-auto33487"><g class="vf-notehead" id="vf-auto33491" pointer-events="bounding-box"><path stroke-width="1.5" stroke="none" d="M478.646 80L478.646 71L493.646 60L493.646 70L478.646 80Z"/></g></g><g class="vf-stavenote" id="vf-auto33493"><g class="vf-notehead" id="vf-auto33497" pointer-events="bounding-box"><path stroke-width="1.5" stroke="none" d="M504.237 80L504.237 71L519.237 60L519.237 70L504.237 80Z"/></g></g><g class="vf-stavenote" id="vf-auto33499"><g class="vf-notehead" id="vf-auto33503" pointer-events="bounding-box"><path stroke-width="1.5" stroke="none" d="M529.827 80L529.827 71L544.827 60L544.827 70L529.827 80Z"/></g></g><g class="vf-stavenote" id="vf-auto33505"><g class="vf-notehead" id="vf-auto33509" pointer-events="bounding-box"><path stroke-width="1.5" stroke="none" d="M555.417 80L555.417 71L570.417 60L570.417 70L555.417 80Z"/></g></g><g class="vf-stavenote" id="vf-auto33511"><g class="vf-stem" id="vf-auto33512" pointer-events="bounding-box"><path stroke-width="1.5" fill="none" d="M595.257 70L595.257 38"/></g><g class="vf-notehead" id="vf-auto33515" pointer-events="bounding-box"><path stroke-width="1.5" stroke="none" d="M581.007 80L581.007 71L596.007 60L596.007 70L581.007 80Z"/></g><path stroke="none" d="M594.532 37.409L594.532 33.14L594.616 33.14C594.953 33.14,595.093 33.309,595.206 33.758C596.02 36.819,597.564 39.346,600.007 41.592C602.703 44.092,604.051 47.545,604.051 51.084C604.051 54.172,603.04 57.373,600.962 60.125C600.232 61.108,600.007 61.305,599.726 61.305C599.361 61.305,599.137 61.052,599.137 60.771C599.137 60.603,599.221 60.406,599.361 60.238C601.552 57.682,602.675 54.594,602.675 51.673C602.675 49.09,601.804 46.647,600.063 44.766C598.968 43.614,597.087 42.547,594.56 41.677C594.532 41.677,594.532 40.806,594.532 37.409"/></g><g class="vf-stavenote" id="vf-auto33517"><g class="vf-stem" id="vf-auto33518" pointer-events="bounding-box"><path stroke-width="1.5" fill="none" d="M627.257 70L627.257 38"/></g><g class="vf-notehead" id="vf-auto33521" pointer-events="bounding-box"><path stroke-width="1.5" stroke="none" d="M613.007 80L613.007 71L628.007 60L628.007 70L613.007 80Z"/></g><path stroke="none" d="M626.532 37.409L626.532 33.14L626.616 33.14C626.953 33.14,627.093 33.309,627.206 33.758C628.02 36.819,629.564 39.346,632.007 41.592C634.703 44.092,636.051 47.545,636.051 51.084C636.051 54.172,635.04 57.373,632.962 60.125C632.232 61.108,632.007 61.305,631.726 61.305C631.361 61.305,631.137 61.052,631.137 60.771C631.137 60.603,631.221 60.406,631.361 60.238C633.552 57.682,634.675 54.594,634.675 51.673C634.675 49.09,633.804 46.647,632.063 44.766C630.968 43.614,629.087 42.547,626.56 41.677C626.532 41.677,626.532 40.806,626.532 37.409"/></g><g class="vf-stem" id="vf-auto33488" pointer-events="bounding-box"><path stroke-width="1.5" fill="none" d="M492.896 70L492.896 17.089"/></g><g class="vf-stem" id="vf-auto33494" pointer-events="bounding-box"><path stroke-width="1.5" fill="none" d="M518.487 70L518.487 13.25"/></g><g class="vf-beam" id="vf-auto33523"><path stroke="none" d="M492.146 16.451L492.146 21.451L518.737 17.612L518.737 12.612Z"/><path stroke="none" d="M492.146 23.951L492.146 28.951L518.737 25.112L518.737 20.112Z"/><path stroke="none" d="M492.146 31.451L492.146 36.451L518.737 32.612L518.737 27.612Z"/><path stroke="none" d="M492.146 38.951L492.146 43.951L518.737 40.113L518.737 35.113Z"/><path stroke="none" d="M517.737 42.613L517.737 47.613L508.737 49.113L508.737 44.113Z"/></g><g class="vf-stem" id="vf-auto33500" pointer-events="bounding-box"><path stroke-width="1.5" fill="none" d="M530.577 70L530.577 104.25"/></g><g class="vf-stem" id="vf-auto33506" pointer-events="bounding-box"><path stroke-width="1.5" fill="none" d="M556.167 70L556.167 104.25"/></g><g class="vf-beam" id="vf-auto33524"><path stroke="none" d="M529.827 105L529.827 100L556.417 100L556.417 105Z"/></g></svg>