<svg xmlns="http://www.w3.org/2000/svg" stroke-width="0.3" stroke-dasharray="none" fill="black" stroke="black" font-family="Arial, sans-serif" font-size="10pt" font-weight="normal" font-style="normal" width="700" height="180" viewBox="0 0 700 180" style="width: 700px; height: 180px; border: none;"><g class="vf-stave" id="vf-auto30049" stroke-width="1" fill="#999999" stroke="#999999"><path fill="none" d="M10 70L760 70"/><path fill="none" d="M10 80L760 80"/><path fill="none" d="M10 90L760 90"/><path fill="none" d="M10 100L760 100"/><path fill="none" d="M10 110L760 110"/></g><g class="vf-stavebarline" id="vf-auto30050"><rect x="10" y="69.5" width="1" height="41" stroke="none"/></g><g class="vf-stavebarline" id="vf-auto30051"><rect x="760" y="69.5" width="1" height="41" stroke="none"/></g><g class="vf-clef" id="vf-auto30052"><path stroke="none" d="M18.018 98.017C18.18 98.017,18.226 97.81,18.249 97.395C18.295 95.368,18.341 93.294,18.387 91.29C18.456 85.944,18.525 80.553,18.686 75.231C18.779 72.074,18.64 68.918,18.871 65.761C18.986 64.102,18.041 63.135,16.866 62.305C16.521 62.075,16.267 61.983,16.037 61.983C15.599 61.983,15.3 62.305,15.069 62.95C15.023 63.043,15 63.181,15 63.319L15.023 63.642C15.092 64.517,15.092 65.393,15.092 66.268L15.092 71.199C15.092 73.364,15.092 75.484,15.207 77.65C15.3 80.737,15.23 83.825,15.392 86.935L15.392 95.483C15.392 96.151,15.622 96.589,16.152 96.957C16.59 97.257,17.097 97.487,17.511 97.787C17.765 97.925,17.926 98.017,18.018 98.017M29.17 97.741C31.358 97.741,33.455 97.027,35.298 95.759C37.717 94.1,38.501 91.75,38.501 89.101C38.501 88.617,38.455 88.156,38.432 87.695C38.201 84.815,35.644 81.728,32.718 81.428C32.556 81.382,32.395 81.382,32.188 81.382C31.358 81.382,30.552 81.59,29.723 81.682C28.778 81.82,27.902 82.12,27.073 82.511C27.119 81.958,27.165 81.382,27.165 80.829C27.165 80.599,27.165 80.323,27.142 80.092C27.142 79.77,27.165 79.447,27.165 79.101C27.165 78.641,27.142 78.18,27.119 77.719C27.649 77.811,28.133 77.834,28.64 77.834C29.077 77.834,29.492 77.811,29.93 77.719C32.142 77.834,34.446 77.304,36.012 76.383C38.247 75.046,39.261 73.457,39.261 71.314C39.261 70.945,39.261 70.577,39.192 70.208C38.892 67.996,37.717 66.13,36.059 64.678C34.699 63.48,33.225 62.651,31.52 62.651C30.852 62.651,30.16 62.789,29.423 63.089L25.644 64.678C23.617 65.531,22.995 66.637,22.995 68.48C22.995 68.849,23.018 69.217,23.064 69.655C23.133 70.139,23.456 70.415,24.032 70.346C24.792 70.208,25.575 70.139,26.336 69.908C27.073 69.678,27.465 69.217,27.465 68.526C27.465 68.411,27.465 68.296,27.442 68.157C27.372 67.927,27.372 67.651,27.372 67.42C27.372 66.637,27.672 65.923,28.202 65.277C28.409 65.047,28.663 64.863,28.962 64.863L29.031 64.863C29.907 64.978,30.759 65.093,31.497 65.669C33.455 67.19,34.215 69.194,34.215 71.429C34.215 71.798,34.169 72.212,34.146 72.558C34.008 73.871,33.317 75,32.119 75.692C31.865 75.853,31.589 75.945,31.358 75.945C31.22 75.945,31.128 75.922,30.99 75.876C29.7 75.553,28.409 75.254,27.142 74.862C26.889 74.747,26.635 74.724,26.405 74.724C26.082 74.724,25.783 74.816,25.46 74.931C24.953 75.092,24.562 75.392,24.101 75.645C23.847 75.715,23.617 75.83,23.364 75.853C23.202 75.876,23.018 75.945,23.018 76.129C22.903 76.152,22.834 76.221,22.834 76.291C22.834 76.383,22.903 76.452,22.995 76.544C23.018 76.59,23.133 76.613,23.202 76.613C23.317 77.005,23.364 77.443,23.387 77.88C23.456 78.871,23.502 79.862,23.502 80.852C23.502 81.751,23.456 82.65,23.364 83.548C23.294 84.216,23.225 84.838,23.225 85.437C23.225 85.829,23.317 85.967,23.663 86.083C24.262 86.543,24.884 86.659,25.506 86.659C26.013 86.659,26.52 86.566,27.004 86.497C27.372 86.428,27.58 86.244,27.649 85.875C27.81 85.184,28.294 84.654,28.778 84.078C28.939 83.871,29.124 83.779,29.331 83.779C29.423 83.779,29.538 83.825,29.653 83.848C30.621 84.078,31.451 84.585,32.257 85.184C33.755 86.359,34.538 87.764,34.538 89.331C34.538 90.045,34.354 90.852,33.985 91.681C33.248 93.409,31.819 94.4,30.137 95.137C29.7 95.299,29.331 95.391,29.008 95.391C28.179 95.391,27.603 94.861,27.303 93.87C27.211 93.571,27.05 93.248,26.82 93.248C26.75 93.248,26.704 93.248,26.681 93.271C26.451 93.363,26.244 93.409,26.013 93.409C25.46 93.409,24.861 93.133,24.331 93.133C24.193 93.133,24.101 93.133,23.963 93.179L23.364 93.179C23.018 93.179,22.672 93.11,22.396 93.248L22.396 65.462C22.442 65.231,22.442 64.978,22.442 64.748C22.442 64.31,22.396 63.918,22.258 63.503C22.235 63.342,22.304 63.043,22.004 63.043L21.958 63.043C21.774 63.089,21.566 63.204,21.474 63.503C21.359 63.872,21.336 64.264,21.336 64.678L21.336 71.199C21.336 73.364,21.336 75.553,21.359 77.719C21.405 79.77,21.359 81.866,21.428 83.917C21.497 85.668,21.543 87.442,21.543 89.193C21.543 90.944,21.497 92.741,21.497 94.492C21.497 95.206,21.659 95.898,21.659 96.612C21.659 96.75,21.705 96.957,21.912 96.957C22.073 96.957,22.142 96.819,22.188 96.681C22.442 96.266,22.396 95.828,22.396 95.368L22.396 94.561L22.557 94.838L22.834 95.137C23.893 96.289,25.253 97.05,26.75 97.441C27.58 97.649,28.363 97.741,29.17 97.741"/></g><g class="vf-stavenote" id="vf-auto30053"><path stroke-width="1.4" fill="none" stroke="#444" d="M73.261 60L104.109 60"/><g class="vf-notehead" id="vf-auto30058" pointer-events="bounding-box"><path stroke="none" d="M77.244 89.014C77.89 88.929,77.89 88.087,78.002 87.469L78.002 85.448C78.002 83.201,78.03 80.899,78.03 78.596C78.03 77.304,78.03 75.985,77.946 74.693C77.918 73.654,77.946 72.559,77.469 71.576C77.384 71.351,77.356 70.986,77.075 70.986L76.991 70.986C76.626 71.071,76.261 71.295,76.261 71.801C76.261 72.194,76.233 72.643,76.261 73.036C76.373 73.963,76.43 74.918,76.43 75.872C76.43 76.799,76.373 77.726,76.373 78.652C76.373 79.101,76.43 79.551,76.43 80C76.458 80.337,76.458 80.674,76.458 81.011L76.458 81.46C76.458 82.415,76.43 83.398,76.43 84.38C76.43 85.504,76.514 86.627,76.795 87.722C76.907 88.171,76.71 89.07,77.244 89.014M100.045 88.817C100.41 88.845,100.606 88.424,100.719 88.087C101 87.16,101.14 86.234,101.084 85.251C100.915 82.415,100.859 79.607,100.859 76.771C100.859 75.479,100.859 74.131,100.887 72.84C100.887 72.475,100.775 72.166,100.635 71.829C100.606 71.548,100.494 71.464,100.27 71.464C100.185 71.464,100.073 71.464,99.961 71.548C99.427 71.801,99.343 72.194,99.343 72.559C99.343 72.727,99.343 72.84,99.399 72.952C99.343 73.682,99.343 74.468,99.343 75.226L99.343 80.562C99.483 82.415,99.427 85.223,99.708 87.975C99.764 88.284,99.708 88.733,100.045 88.817M97.518 88.171C98.613 87.16,98.5 85.953,98.529 84.802C98.585 83.678,98.585 82.555,98.585 81.376C98.585 78.989,98.472 76.602,98.332 74.187C98.332 73.907,98.248 73.57,98.135 73.261C98.051 73.092,98.051 72.755,97.77 72.755C97.742 72.755,97.686 72.812,97.658 72.812C97.377 72.896,97.04 72.924,97.012 73.373C96.956 73.935,96.816 74.468,96.844 75.03C96.956 76.49,97.012 77.95,96.956 79.438L96.956 83.005C96.956 83.875,97.012 84.774,97.04 85.672C97.04 86.458,97.125 87.329,97.518 88.171M79.855 87.329C80.052 87.413,80.22 87.188,80.305 87.048C80.642 86.627,80.67 86.178,80.698 85.7C80.782 85.082,80.782 84.437,80.782 83.847C80.782 82.274,80.67 80.73,80.67 79.158C80.67 78.736,80.67 78.315,80.698 77.866L80.698 77.164C80.698 76.041,80.698 74.861,80.642 73.682C80.642 73.401,80.585 72.896,80.108 72.896L80.024 72.896C79.631 72.952,79.322 73.205,79.322 73.766C79.294 74.974,79.181 76.237,79.181 77.445C79.181 78.821,79.322 80.253,79.294 81.629C79.294 82.05,79.294 82.499,79.266 82.948C79.266 83.145,79.266 83.37,79.21 83.566C79.21 84.689,79.462 85.728,79.575 86.88C79.575 87.076,79.659 87.273,79.855 87.329M89.964 86.795C92.969 86.992,95.496 84.661,95.721 82.218L95.721 81.544C95.721 81.011,95.664 80.477,95.636 80C95.468 77.641,93.699 75.395,91.424 74.749C90.526 74.496,89.74 74.384,88.869 74.384C86.454 74.384,84.18 75.423,82.158 77.08C81.765 77.417,81.484 77.866,81.484 78.428C81.484 79.747,81.652 81.039,82.074 82.303C82.579 83.707,83.225 85.082,84.685 85.728C86.258 86.43,87.914 86.739,89.964 86.795M90.02 82.471C89.655 82.471,89.29 82.471,88.869 82.415C87.465 82.387,85.836 82.19,84.32 81.572C83.983 81.46,83.506 81.348,83.506 80.927C83.506 80.562,83.899 80.365,84.18 80.197C85.808 79.354,87.465 78.793,89.122 78.793C90.217 78.793,91.34 79.017,92.548 79.607C93.278 79.972,93.643 80.253,93.615 80.562C93.615 80.842,93.362 81.179,92.884 81.629C92.042 82.303,91.087 82.471,90.02 82.471"/></g><g class="vf-notehead" id="vf-auto30059" pointer-events="bounding-box"><path stroke="none" d="M77.244 79.014C77.89 78.929,77.89 78.087,78.002 77.469L78.002 75.448C78.002 73.201,78.03 70.899,78.03 68.596C78.03 67.304,78.03 65.985,77.946 64.693C77.918 63.654,77.946 62.559,77.469 61.576C77.384 61.351,77.356 60.986,77.075 60.986L76.991 60.986C76.626 61.071,76.261 61.295,76.261 61.801C76.261 62.194,76.233 62.643,76.261 63.036C76.373 63.963,76.43 64.918,76.43 65.872C76.43 66.799,76.373 67.726,76.373 68.652C76.373 69.101,76.43 69.551,76.43 70C76.458 70.337,76.458 70.674,76.458 71.011L76.458 71.46C76.458 72.415,76.43 73.398,76.43 74.38C76.43 75.504,76.514 76.627,76.795 77.722C76.907 78.171,76.71 79.07,77.244 79.014M100.045 78.817C100.41 78.845,100.606 78.424,100.719 78.087C101 77.16,101.14 76.234,101.084 75.251C100.915 72.415,100.859 69.607,100.859 66.771C100.859 65.479,100.859 64.131,100.887 62.84C100.887 62.475,100.775 62.166,100.635 61.829C100.606 61.548,100.494 61.464,100.27 61.464C100.185 61.464,100.073 61.464,99.961 61.548C99.427 61.801,99.343 62.194,99.343 62.559C99.343 62.727,99.343 62.84,99.399 62.952C99.343 63.682,99.343 64.468,99.343 65.226L99.343 70.562C99.483 72.415,99.427 75.223,99.708 77.975C99.764 78.284,99.708 78.733,100.045 78.817M97.518 78.171C98.613 77.16,98.5 75.953,98.529 74.802C98.585 73.678,98.585 72.555,98.585 71.376C98.585 68.989,98.472 66.602,98.332 64.187C98.332 63.907,98.248 63.57,98.135 63.261C98.051 63.092,98.051 62.755,97.77 62.755C97.742 62.755,97.686 62.812,97.658 62.812C97.377 62.896,97.04 62.924,97.012 63.373C96.956 63.935,96.816 64.468,96.844 65.03C96.956 66.49,97.012 67.95,96.956 69.438L96.956 73.005C96.956 73.875,97.012 74.774,97.04 75.672C97.04 76.458,97.125 77.329,97.518 78.171M79.855 77.329C80.052 77.413,80.22 77.188,80.305 77.048C80.642 76.627,80.67 76.178,80.698 75.7C80.782 75.082,80.782 74.437,80.782 73.847C80.782 72.274,80.67 70.73,80.67 69.158C80.67 68.736,80.67 68.315,80.698 67.866L80.698 67.164C80.698 66.041,80.698 64.861,80.642 63.682C80.642 63.401,80.585 62.896,80.108 62.896L80.024 62.896C79.631 62.952,79.322 63.205,79.322 63.766C79.294 64.974,79.181 66.237,79.181 67.445C79.181 68.821,79.322 70.253,79.294 71.629C79.294 72.05,79.294 72.499,79.266 72.948C79.266 73.145,79.266 73.37,79.21 73.566C79.21 74.689,79.462 75.728,79.575 76.88C79.575 77.076,79.659 77.273,79.855 77.329M89.964 76.795C92.969 76.992,95.496 74.661,95.721 72.218L95.721 71.544C95.721 71.011,95.664 70.477,95.636 70C95.468 67.641,93.699 65.395,91.424 64.749C90.526 64.496,89.74 64.384,88.869 64.384C86.454 64.384,84.18 65.423,82.158 67.08C81.765 67.417,81.484 67.866,81.484 68.428C81.484 69.747,81.652 71.039,82.074 72.303C82.579 73.707,83.225 75.082,84.685 75.728C86.258 76.43,87.914 76.739,89.964 76.795M90.02 72.471C89.655 72.471,89.29 72.471,88.869 72.415C87.465 72.387,85.836 72.19,84.32 71.572C83.983 71.46,83.506 71.348,83.506 70.927C83.506 70.562,83.899 70.365,84.18 70.197C85.808 69.354,87.465 68.793,89.122 68.793C90.217 68.793,91.34 69.017,92.548 69.607C93.278 69.972,93.643 70.253,93.615 70.562C93.615 70.842,93.362 71.179,92.884 71.629C92.042 72.303,91.087 72.471,90.02 72.471"/></g><g class="vf-notehead" id="vf-auto30060" pointer-events="bounding-box"><path stroke="none" d="M77.244 64.014C77.89 63.929,77.89 63.087,78.002 62.469L78.002 60.448C78.002 58.201,78.03 55.899,78.03 53.596C78.03 52.304,78.03 50.985,77.946 49.693C77.918 48.654,77.946 47.559,77.469 46.576C77.384 46.351,77.356 45.986,77.075 45.986L76.991 45.986C76.626 46.071,76.261 46.295,76.261 46.801C76.261 47.194,76.233 47.643,76.261 48.036C76.373 48.963,76.43 49.918,76.43 50.872C76.43 51.799,76.373 52.726,76.373 53.652C76.373 54.101,76.43 54.551,76.43 55C76.458 55.337,76.458 55.674,76.458 56.011L76.458 56.46C76.458 57.415,76.43 58.398,76.43 59.38C76.43 60.504,76.514 61.627,76.795 62.722C76.907 63.171,76.71 64.07,77.244 64.014M100.045 63.817C100.41 63.845,100.606 63.424,100.719 63.087C101 62.16,101.14 61.234,101.084 60.251C100.915 57.415,100.859 54.607,100.859 51.771C100.859 50.479,100.859 49.131,100.887 47.84C100.887 47.475,100.775 47.166,100.635 46.829C100.606 46.548,100.494 46.464,100.27 46.464C100.185 46.464,100.073 46.464,99.961 46.548C99.427 46.801,99.343 47.194,99.343 47.559C99.343 47.727,99.343 47.84,99.399 47.952C99.343 48.682,99.343 49.468,99.343 50.226L99.343 55.562C99.483 57.415,99.427 60.223,99.708 62.975C99.764 63.284,99.708 63.733,100.045 63.817M97.518 63.171C98.613 62.16,98.5 60.953,98.529 59.802C98.585 58.678,98.585 57.555,98.585 56.376C98.585 53.989,98.472 51.602,98.332 49.187C98.332 48.907,98.248 48.57,98.135 48.261C98.051 48.092,98.051 47.755,97.77 47.755C97.742 47.755,97.686 47.812,97.658 47.812C97.377 47.896,97.04 47.924,97.012 48.373C96.956 48.935,96.816 49.468,96.844 50.03C96.956 51.49,97.012 52.95,96.956 54.438L96.956 58.005C96.956 58.875,97.012 59.774,97.04 60.672C97.04 61.458,97.125 62.329,97.518 63.171M79.855 62.329C80.052 62.413,80.22 62.188,80.305 62.048C80.642 61.627,80.67 61.178,80.698 60.7C80.782 60.082,80.782 59.437,80.782 58.847C80.782 57.274,80.67 55.73,80.67 54.158C80.67 53.736,80.67 53.315,80.698 52.866L80.698 52.164C80.698 51.041,80.698 49.861,80.642 48.682C80.642 48.401,80.585 47.896,80.108 47.896L80.024 47.896C79.631 47.952,79.322 48.205,79.322 48.766C79.294 49.974,79.181 51.237,79.181 52.445C79.181 53.821,79.322 55.253,79.294 56.629C79.294 57.05,79.294 57.499,79.266 57.948C79.266 58.145,79.266 58.37,79.21 58.566C79.21 59.689,79.462 60.728,79.575 61.88C79.575 62.076,79.659 62.273,79.855 62.329M89.964 61.795C92.969 61.992,95.496 59.661,95.721 57.218L95.721 56.544C95.721 56.011,95.664 55.477,95.636 55C95.468 52.641,93.699 50.395,91.424 49.749C90.526 49.496,89.74 49.384,88.869 49.384C86.454 49.384,84.18 50.423,82.158 52.08C81.765 52.417,81.484 52.866,81.484 53.428C81.484 54.747,81.652 56.039,82.074 57.303C82.579 58.707,83.225 60.082,84.685 60.728C86.258 61.43,87.914 61.739,89.964 61.795M90.02 57.471C89.655 57.471,89.29 57.471,88.869 57.415C87.465 57.387,85.836 57.19,84.32 56.572C83.983 56.46,83.506 56.348,83.506 55.927C83.506 55.562,83.899 55.365,84.18 55.197C85.808 54.354,87.465 53.793,89.122 53.793C90.217 53.793,91.34 54.017,92.548 54.607C93.278 54.972,93.643 55.253,93.615 55.562C93.615 55.842,93.362 56.179,92.884 56.629C92.042 57.303,91.087 57.471,90.02 57.471"/></g></g><g class="vf-stavenote" id="vf-auto30061"><g class="vf-notehead" id="vf-auto30066" pointer-events="bounding-box"><path stroke="none" d="M116.621 113.877C116.509 119.24,111.566 122.273,107.523 122.525C106.316 122.61,105.277 121.964,104.125 121.543L103.002 121.065C101.879 120.532,101.261 119.661,101.261 118.566C101.261 118.229,101.289 117.92,101.43 117.555C102.188 115.253,103.199 113.006,104.687 111.041C106.035 109.272,108.253 108.317,110.443 108.317C112.409 108.317,114.374 109.047,115.694 110.563C116.537 111.49,116.677 112.641,116.621 113.877M108.225 118.005C109.545 117.864,110.836 117.471,112.044 116.769C112.549 116.488,112.914 116.123,113.223 115.646C113.392 115.393,113.476 115.168,113.476 114.916C113.476 114.607,113.279 114.326,112.858 114.101C111.819 113.624,110.893 112.95,109.713 112.95C109.432 112.95,109.18 112.978,108.899 113.062C107.074 113.512,105.67 114.438,104.659 115.983C104.546 116.179,104.378 116.404,104.378 116.629C104.378 116.825,104.49 116.994,104.771 117.106C105.866 117.499,106.933 118.005,108.225 118.005"/></g><g class="vf-notehead" id="vf-auto30067" pointer-events="bounding-box"><path stroke="none" d="M116.621 103.877C116.509 109.24,111.566 112.273,107.523 112.525C106.316 112.61,105.277 111.964,104.125 111.543L103.002 111.065C101.879 110.532,101.261 109.661,101.261 108.566C101.261 108.229,101.289 107.92,101.43 107.555C102.188 105.253,103.199 103.006,104.687 101.041C106.035 99.272,108.253 98.317,110.443 98.317C112.409 98.317,114.374 99.047,115.694 100.563C116.537 101.49,116.677 102.641,116.621 103.877M108.225 108.005C109.545 107.864,110.836 107.471,112.044 106.769C112.549 106.488,112.914 106.123,113.223 105.646C113.392 105.393,113.476 105.168,113.476 104.916C113.476 104.607,113.279 104.326,112.858 104.101C111.819 103.624,110.893 102.95,109.713 102.95C109.432 102.95,109.18 102.978,108.899 103.062C107.074 103.512,105.67 104.438,104.659 105.983C104.546 106.179,104.378 106.404,104.378 106.629C104.378 106.825,104.49 106.994,104.771 107.106C105.866 107.499,106.933 108.005,108.225 108.005"/></g><g class="vf-notehead" id="vf-auto30068" pointer-events="bounding-box"><path stroke="none" d="M116.621 88.877C116.509 94.24,111.566 97.273,107.523 97.525C106.316 97.61,105.277 96.964,104.125 96.543L103.002 96.065C101.879 95.532,101.261 94.661,101.261 93.566C101.261 93.229,101.289 92.92,101.43 92.555C102.188 90.253,103.199 88.006,104.687 86.041C106.035 84.272,108.253 83.317,110.443 83.317C112.409 83.317,114.374 84.047,115.694 85.563C116.537 86.49,116.677 87.641,116.621 88.877M108.225 93.005C109.545 92.864,110.836 92.471,112.044 91.769C112.549 91.488,112.914 91.123,113.223 90.646C113.392 90.393,113.476 90.168,113.476 89.916C113.476 89.607,113.279 89.326,112.858 89.101C111.819 88.624,110.893 87.95,109.713 87.95C109.432 87.95,109.18 87.978,108.899 88.062C107.074 88.512,105.67 89.438,104.659 90.983C104.546 91.179,104.378 91.404,104.378 91.629C104.378 91.825,104.49 91.994,104.771 92.106C105.866 92.499,106.933 93.005,108.225 93.005"/></g></g><g class="vf-stavenote" id="vf-auto30069"><path stroke-width="1.4" fill="none" stroke="#444" d="M123.261 60L142.768 60"/><g class="vf-stem" id="vf-auto30070" pointer-events="bounding-box"><path stroke-width="1.5" fill="none" d="M139.018 77.45L139.018 20"/></g><g class="vf-notehead" id="vf-auto30074" pointer-events="bounding-box"><path stroke="none" d="M139.74 78.428C139.683 83.229,135.556 87.048,130.95 87.048C130.277 87.048,129.575 86.964,128.901 86.795C127.469 86.43,126.823 85.391,126.514 83.959C126.345 83.229,126.261 82.555,126.261 81.909C126.261 77.332,129.827 74.384,134.236 73.008C134.376 72.952,134.601 72.924,134.797 72.924C136.763 72.924,139.768 75.226,139.768 77.81C139.768 78.006,139.768 78.231,139.74 78.428M132.242 82.864C133.955 82.274,135.836 81.348,137.465 79.832C137.493 79.803,137.549 79.635,137.549 79.523C137.549 79.382,137.493 79.27,137.465 79.242C136.735 78.512,136.173 77.529,134.994 77.36C134.826 77.332,134.685 77.332,134.46 77.332C132.72 77.332,131.344 78.456,129.912 79.242C129.013 79.747,128.002 80.814,128.199 81.741C128.395 82.752,129.855 82.555,130.782 82.752C131.147 82.836,131.484 82.836,132.242 82.864"/></g><g class="vf-notehead" id="vf-auto30075" pointer-events="bounding-box"><path stroke="none" d="M139.74 68.428C139.683 73.229,135.556 77.048,130.95 77.048C130.277 77.048,129.575 76.964,128.901 76.795C127.469 76.43,126.823 75.391,126.514 73.959C126.345 73.229,126.261 72.555,126.261 71.909C126.261 67.332,129.827 64.384,134.236 63.008C134.376 62.952,134.601 62.924,134.797 62.924C136.763 62.924,139.768 65.226,139.768 67.81C139.768 68.006,139.768 68.231,139.74 68.428M132.242 72.864C133.955 72.274,135.836 71.348,137.465 69.832C137.493 69.803,137.549 69.635,137.549 69.523C137.549 69.382,137.493 69.27,137.465 69.242C136.735 68.512,136.173 67.529,134.994 67.36C134.826 67.332,134.685 67.332,134.46 67.332C132.72 67.332,131.344 68.456,129.912 69.242C129.013 69.747,128.002 70.814,128.199 71.741C128.395 72.752,129.855 72.555,130.782 72.752C131.147 72.836,131.484 72.836,132.242 72.864"/></g><g class="vf-notehead" id="vf-auto30076" pointer-events="bounding-box"><path stroke="none" d="M139.74 53.428C139.683 58.229,135.556 62.048,130.95 62.048C130.277 62.048,129.575 61.964,128.901 61.795C127.469 61.43,126.823 60.391,126.514 58.959C126.345 58.229,126.261 57.555,126.261 56.909C126.261 52.332,129.827 49.384,134.236 48.008C134.376 47.952,134.601 47.924,134.797 47.924C136.763 47.924,139.768 50.226,139.768 52.81C139.768 53.006,139.768 53.231,139.74 53.428M132.242 57.864C133.955 57.274,135.836 56.348,137.465 54.832C137.493 54.803,137.549 54.635,137.549 54.523C137.549 54.382,137.493 54.27,137.465 54.242C136.735 53.512,136.173 52.529,134.994 52.36C134.826 52.332,134.685 52.332,134.46 52.332C132.72 52.332,131.344 53.456,129.912 54.242C129.013 54.747,128.002 55.814,128.199 56.741C128.395 57.752,129.855 57.555,130.782 57.752C131.147 57.836,131.484 57.836,132.242 57.864"/></g></g><g class="vf-stavenote" id="vf-auto30077"><g class="vf-stem" id="vf-auto30078" pointer-events="bounding-box"><path stroke-width="1.5" fill="none" d="M164.019 113L164.019 55"/></g><g class="vf-notehead" id="vf-auto30082" pointer-events="bounding-box"><path stroke="none" d="M154.406 121.543C154.687 121.599,154.94 121.627,155.22 121.627C159.095 121.627,164.88 116.348,164.768 112.08C164.655 111.041,164.683 109.609,162.577 108.766C161.988 108.485,161.342 108.373,160.64 108.373C156.316 108.373,151.626 113.343,151.289 116.657C151.289 116.909,151.261 117.134,151.261 117.387C151.261 119.409,152.16 121.037,154.406 121.543"/></g><g class="vf-notehead" id="vf-auto30083" pointer-events="bounding-box"><path stroke="none" d="M154.406 111.543C154.687 111.599,154.94 111.627,155.22 111.627C159.095 111.627,164.88 106.348,164.768 102.08C164.655 101.041,164.683 99.609,162.577 98.766C161.988 98.485,161.342 98.373,160.64 98.373C156.316 98.373,151.626 103.343,151.289 106.657C151.289 106.909,151.261 107.134,151.261 107.387C151.261 109.409,152.16 111.037,154.406 111.543"/></g><g class="vf-notehead" id="vf-auto30084" pointer-events="bounding-box"><path stroke="none" d="M154.406 96.543C154.687 96.599,154.94 96.627,155.22 96.627C159.095 96.627,164.88 91.348,164.768 87.08C164.655 86.041,164.683 84.609,162.577 83.766C161.988 83.485,161.342 83.373,160.64 83.373C156.316 83.373,151.626 88.343,151.289 91.657C151.289 91.909,151.261 92.134,151.261 92.387C151.261 94.409,152.16 96.037,154.406 96.543"/></g></g><g class="vf-stavenote" id="vf-auto30085"><path stroke-width="1.4" fill="none" stroke="#444" d="M173.261 60L192.769 60"/><g class="vf-stem" id="vf-auto30086" pointer-events="bounding-box"><path stroke-width="1.5" fill="none" d="M189.019 78L189.019 23"/></g><g class="vf-notehead" id="vf-auto30091" pointer-events="bounding-box"><path stroke="none" d="M179.406 86.543C179.687 86.599,179.94 86.627,180.22 86.627C184.095 86.627,189.88 81.348,189.768 77.08C189.655 76.041,189.683 74.609,187.577 73.766C186.988 73.485,186.342 73.373,185.64 73.373C181.316 73.373,176.626 78.343,176.289 81.657C176.289 81.909,176.261 82.134,176.261 82.387C176.261 84.409,177.16 86.037,179.406 86.543"/></g><g class="vf-notehead" id="vf-auto30092" pointer-events="bounding-box"><path stroke="none" d="M179.406 76.543C179.687 76.599,179.94 76.627,180.22 76.627C184.095 76.627,189.88 71.348,189.768 67.08C189.655 66.041,189.683 64.609,187.577 63.766C186.988 63.485,186.342 63.373,185.64 63.373C181.316 63.373,176.626 68.343,176.289 71.657C176.289 71.909,176.261 72.134,176.261 72.387C176.261 74.409,177.16 76.037,179.406 76.543"/></g><g class="vf-notehead" id="vf-auto30093" pointer-events="bounding-box"><path stroke="none" d="M179.406 61.543C179.687 61.599,179.94 61.627,180.22 61.627C184.095 61.627,189.88 56.348,189.768 52.08C189.655 51.041,189.683 49.609,187.577 48.766C186.988 48.485,186.342 48.373,185.64 48.373C181.316 48.373,176.626 53.343,176.289 56.657C176.289 56.909,176.261 57.134,176.261 57.387C176.261 59.409,177.16 61.037,179.406 61.543"/></g><path stroke="none" d="M195.71 50.882C196.721 49.73,197.704 48.523,198.125 47.063C198.631 45.49,198.827 43.918,198.827 42.345C198.827 41.278,198.743 40.239,198.575 39.2C198.097 35.747,197.002 32.602,194.812 29.85C193.857 28.642,192.93 27.379,191.948 26.171C190.824 24.711,190.122 23.391,190.094 21.51C190.094 21.145,190.01 20.555,190.01 20.106C190.01 19.376,189.729 18.674,189.449 18L189.252 18C188.438 18.365,188.269 19.011,188.269 19.769L188.269 22.044C188.269 25.16,189.084 27.996,190.965 30.496C191.751 31.422,192.481 32.433,193.239 33.36C195.177 35.662,196.637 38.246,196.918 41.334C196.974 41.896,197.171 42.458,197.171 42.991C197.171 43.272,197.114 43.553,197.002 43.806C196.609 44.676,196.188 45.631,195.458 46.22C194.812 46.754,194.671 47.344,194.671 47.989C194.671 48.326,194.7 48.691,194.728 49.056C194.784 49.59,194.98 50.095,195.008 50.629C195.065 50.966,195.177 51.106,195.317 51.106C195.43 51.106,195.542 51.022,195.71 50.882"/></g><g class="vf-stavenote" id="vf-auto30095"><g class="vf-stem" id="vf-auto30096" pointer-events="bounding-box"><path stroke-width="1.5" fill="none" d="M214.019 113L214.019 58"/></g><g class="vf-notehead" id="vf-auto30101" pointer-events="bounding-box"><path stroke="none" d="M204.406 121.543C204.687 121.599,204.94 121.627,205.22 121.627C209.095 121.627,214.88 116.348,214.768 112.08C214.655 111.041,214.683 109.609,212.577 108.766C211.988 108.485,211.342 108.373,210.64 108.373C206.316 108.373,201.626 113.343,201.289 116.657C201.289 116.909,201.261 117.134,201.261 117.387C201.261 119.409,202.16 121.037,204.406 121.543"/></g><g class="vf-notehead" id="vf-auto30102" pointer-events="bounding-box"><path stroke="none" d="M204.406 111.543C204.687 111.599,204.94 111.627,205.22 111.627C209.095 111.627,214.88 106.348,214.768 102.08C214.655 101.041,214.683 99.609,212.577 98.766C211.988 98.485,211.342 98.373,210.64 98.373C206.316 98.373,201.626 103.343,201.289 106.657C201.289 106.909,201.261 107.134,201.261 107.387C201.261 109.409,202.16 111.037,204.406 111.543"/></g><g class="vf-notehead" id="vf-auto30103" pointer-events="bounding-box"><path stroke="none" d="M204.406 96.543C204.687 96.599,204.94 96.627,205.22 96.627C209.095 96.627,214.88 91.348,214.768 87.08C214.655 86.041,214.683 84.609,212.577 83.766C211.988 83.485,211.342 83.373,210.64 83.373C206.316 83.373,201.626 88.343,201.289 91.657C201.289 91.909,201.261 92.134,201.261 92.387C201.261 94.409,202.16 96.037,204.406 96.543"/></g><path stroke="none" d="M224.922 86.106C225.147 86.191,225.316 85.966,225.484 85.797C225.681 85.545,225.793 85.264,225.933 84.955C226.298 83.944,226.383 82.877,226.326 81.642C226.298 81.192,226.298 80.631,226.214 80.013C226.383 78.721,226.523 77.43,226.495 76.054C226.523 75.211,226.383 74.228,226.326 73.246C226.158 71.28,225.652 69.427,224.922 67.602C223.659 64.457,221.244 62.182,218.885 59.88C217.762 58.784,216.583 57.717,215.965 56.201C215.628 55.387,215.656 54.488,215.375 53.674C215.291 53.449,215.291 53,214.926 53C214.898 53,214.842 53.028,214.757 53.028C214.392 53.168,214.027 53.281,214.027 53.899C214.027 54.207,214.084 54.544,214.084 54.909C213.831 54.938,213.634 55.022,213.55 55.218C213.438 55.499,213.297 55.78,213.297 56.061C213.269 56.65,213.269 57.156,213.269 57.774C213.269 60.076,213.606 62.351,214.252 64.513C215.403 68.641,217.65 72.122,220.514 75.267C223.097 78.16,224.782 81.473,224.754 85.517C224.754 85.713,224.642 85.994,224.922 86.106M224.866 75.913C224.277 74.594,223.49 73.302,222.564 72.122C220.738 69.736,218.576 67.63,217.341 64.794C216.779 63.502,216.133 62.266,215.684 60.89C216.218 61.761,216.863 62.631,217.65 63.39C219.166 64.934,220.823 66.422,222.199 68.135C224.024 70.438,225.063 73.021,224.866 75.913"/></g><g class="vf-stavenote" id="vf-auto30105"><path stroke-width="1.4" fill="none" stroke="#444" d="M223.261 60L242.769 60"/><g class="vf-stem" id="vf-auto30106" pointer-events="bounding-box"><path stroke-width="1.5" fill="none" d="M239.019 78L239.019 14"/></g><g class="vf-notehead" id="vf-auto30111" pointer-events="bounding-box"><path stroke="none" d="M229.406 86.543C229.687 86.599,229.94 86.627,230.22 86.627C234.095 86.627,239.88 81.348,239.768 77.08C239.655 76.041,239.683 74.609,237.577 73.766C236.988 73.485,236.342 73.373,235.64 73.373C231.316 73.373,226.626 78.343,226.289 81.657C226.289 81.909,226.261 82.134,226.261 82.387C226.261 84.409,227.16 86.037,229.406 86.543"/></g><g class="vf-notehead" id="vf-auto30112" pointer-events="bounding-box"><path stroke="none" d="M229.406 76.543C229.687 76.599,229.94 76.627,230.22 76.627C234.095 76.627,239.88 71.348,239.768 67.08C239.655 66.041,239.683 64.609,237.577 63.766C236.988 63.485,236.342 63.373,235.64 63.373C231.316 63.373,226.626 68.343,226.289 71.657C226.289 71.909,226.261 72.134,226.261 72.387C226.261 74.409,227.16 76.037,229.406 76.543"/></g><g class="vf-notehead" id="vf-auto30113" pointer-events="bounding-box"><path stroke="none" d="M229.406 61.543C229.687 61.599,229.94 61.627,230.22 61.627C234.095 61.627,239.88 56.348,239.768 52.08C239.655 51.041,239.683 49.609,237.577 48.766C236.988 48.485,236.342 48.373,235.64 48.373C231.316 48.373,226.626 53.343,226.289 56.657C226.289 56.909,226.261 57.134,226.261 57.387C226.261 59.409,227.16 61.037,229.406 61.543"/></g><path stroke="none" d="M247.339 52.342C247.732 52.454,247.929 51.977,248.125 51.64C248.21 51.528,248.266 51.359,248.35 51.247C248.855 49.506,249.136 47.765,249.108 46.052C249.108 44.03,248.715 42.008,247.844 39.987C247.648 39.594,247.536 39.144,247.536 38.667C247.536 38.414,247.536 38.133,247.62 37.881C247.816 37.038,247.929 36.224,247.929 35.438C247.929 35.073,247.901 34.651,247.844 34.258C247.76 33.528,247.479 32.77,247.479 32.04C247.479 31.787,247.479 31.591,247.564 31.338C247.901 30.299,248.041 29.288,248.013 28.39C248.041 23.953,246.356 19.572,242.509 17.242C241.021 16.343,239.673 15.136,239.757 13.058C239.757 12.861,239.617 12.609,239.533 12.468C239.392 12.3,239.392 11.935,239.196 11.963L239.112 11.963C238.887 12.047,238.522 12.131,238.438 12.552C238.353 13.226,238.241 13.928,238.269 14.63C238.382 16.175,238.269 17.635,238.269 19.207C238.269 19.685,238.297 20.218,238.269 20.752C238.269 22.409,238.438 24.065,238.382 25.75C238.382 27.463,238.466 29.148,238.466 30.804C238.466 32.686,238.887 34.427,240.122 35.915C240.909 36.842,241.835 37.572,242.706 38.33C245.177 40.492,246.553 43.244,247.199 46.389C247.283 46.67,247.283 46.979,247.283 47.316C247.283 48.326,247.03 49.337,247.03 50.348C247.03 50.713,247.086 51.106,247.171 51.471C247.255 51.752,247.002 52.258,247.339 52.342M246.272 28.558C245.261 26.115,243.127 24.88,241.667 23.054C241.19 22.437,240.853 21.791,240.824 20.948C243.352 22.044,246.356 25.554,246.356 27.94C246.356 28.193,246.328 28.39,246.272 28.558M245.991 36.449C244.615 34.539,242.846 33.36,241.386 31.815C240.459 30.804,240.122 29.737,240.094 28.558C240.094 28.109,240.179 27.575,240.263 27.07C242.874 29.737,245.71 32.152,245.991 36.449"/></g><g class="vf-stavenote" id="vf-auto30115"><path stroke-width="1.4" fill="none" stroke="#444" d="M248.261 60L267.769 60"/><g class="vf-stem" id="vf-auto30116" pointer-events="bounding-box"><path stroke-width="1.5" fill="none" d="M264.019 78L264.019 10"/></g><g class="vf-notehead" id="vf-auto30121" pointer-events="bounding-box"><path stroke="none" d="M254.406 86.543C254.687 86.599,254.94 86.627,255.22 86.627C259.095 86.627,264.88 81.348,264.768 77.08C264.655 76.041,264.683 74.609,262.577 73.766C261.988 73.485,261.342 73.373,260.64 73.373C256.316 73.373,251.626 78.343,251.289 81.657C251.289 81.909,251.261 82.134,251.261 82.387C251.261 84.409,252.16 86.037,254.406 86.543"/></g><g class="vf-notehead" id="vf-auto30122" pointer-events="bounding-box"><path stroke="none" d="M254.406 76.543C254.687 76.599,254.94 76.627,255.22 76.627C259.095 76.627,264.88 71.348,264.768 67.08C264.655 66.041,264.683 64.609,262.577 63.766C261.988 63.485,261.342 63.373,260.64 63.373C256.316 63.373,251.626 68.343,251.289 71.657C251.289 71.909,251.261 72.134,251.261 72.387C251.261 74.409,252.16 76.037,254.406 76.543"/></g><g class="vf-notehead" id="vf-auto30123" pointer-events="bounding-box"><path stroke="none" d="M254.406 61.543C254.687 61.599,254.94 61.627,255.22 61.627C259.095 61.627,264.88 56.348,264.768 52.08C264.655 51.041,264.683 49.609,262.577 48.766C261.988 48.485,261.342 48.373,260.64 48.373C256.316 48.373,251.626 53.343,251.289 56.657C251.289 56.909,251.261 57.134,251.261 57.387C251.261 59.409,252.16 61.037,254.406 61.543"/></g><path stroke="none" d="M273.097 51.275C273.49 51.387,273.771 50.994,273.94 50.629C274.473 49.422,274.67 48.074,274.67 46.698C274.67 44.536,274.052 42.458,273.35 40.408C273.181 40.043,273.041 39.678,273.041 39.228C273.041 39.144,273.097 39.032,273.097 38.892C273.266 37.768,273.462 36.645,273.462 35.438C273.462 35.073,273.462 34.651,273.378 34.286C273.35 34.09,273.35 33.921,273.35 33.725C273.35 33.051,273.546 32.405,273.743 31.759C274.108 30.468,274.305 29.092,274.305 27.716C274.305 26.986,274.22 26.256,274.136 25.554C273.996 24.15,273.041 22.858,273.041 21.566C273.041 21.37,273.041 21.117,273.125 20.92C273.125 20.555,273.181 20.19,273.181 19.825C273.181 18.73,273.041 17.832,272.844 16.961C272.339 14.967,271.075 13.395,269.615 11.963C268.352 10.755,266.835 9.913,265.684 8.565C265.291 8.088,265.01 7.61,265.01 6.908C265.01 6.122,264.814 5.252,264.449 4.494C264.308 4.297,264.28 3.96,264.027 3.96C263.999 3.96,263.999 3.96,263.943 4.016C263.662 4.044,263.297 4.185,263.241 4.522C263.157 4.887,263.101 5.224,263.101 5.532L263.101 5.785C263.241 6.684,263.241 7.554,263.241 8.425L263.241 10.531C263.241 11.542,263.269 12.581,263.438 13.62C263.606 14.715,263.634 15.894,263.634 17.017L263.634 18.983C263.634 19.46,263.662 19.909,263.662 20.387C263.803 22.212,264.196 23.981,264.084 25.75C263.943 27.379,263.831 29.007,263.831 30.58C263.831 31.394,263.887 32.18,263.943 32.995C264.112 34.988,264.926 36.645,266.47 37.881C267.285 38.555,268.071 39.2,268.801 39.902C271.721 42.823,272.844 46.389,272.929 50.376C272.929 50.545,272.901 50.741,272.901 50.91C272.901 51.022,272.929 51.191,273.097 51.275M271.328 20.471C268.492 18.477,265.488 16.652,265.01 12.581C266.667 13.956,268.155 15.248,269.7 16.54C270.458 17.186,270.963 18.084,271.384 18.927C271.525 19.179,271.553 19.376,271.553 19.572C271.553 19.853,271.469 20.134,271.328 20.471M271.637 29.513C269.952 27.856,268.211 26.284,266.583 24.599C265.572 23.532,265.459 22.128,265.403 20.471C267.116 22.296,268.969 23.672,270.795 25.076C271.806 25.834,272.536 26.845,272.536 28.109C272.536 28.474,272.451 28.867,272.339 29.288C272.199 29.597,272.114 29.737,272.002 29.737C271.89 29.737,271.749 29.653,271.637 29.513M271.693 37.403C270.093 35.297,267.987 34.146,266.555 32.265C265.909 31.478,265.572 30.58,265.572 29.457C265.572 29.148,265.572 28.867,265.628 28.642C267.06 30.664,269.054 31.815,270.542 33.528C271.328 34.371,271.721 35.382,271.721 36.729C271.721 36.926,271.721 37.179,271.693 37.403"/></g><g class="vf-stavenote" id="vf-auto30125"><path stroke-width="1.4" fill="none" stroke="#444" d="M273.261 60L292.769 60"/><g class="vf-stem" id="vf-auto30126" pointer-events="bounding-box"><path stroke-width="1.5" fill="none" d="M289.019 78L289.019 1"/></g><g class="vf-notehead" id="vf-auto30131" pointer-events="bounding-box"><path stroke="none" d="M279.406 86.543C279.687 86.599,279.94 86.627,280.22 86.627C284.095 86.627,289.88 81.348,289.768 77.08C289.655 76.041,289.683 74.609,287.577 73.766C286.988 73.485,286.342 73.373,285.64 73.373C281.316 73.373,276.626 78.343,276.289 81.657C276.289 81.909,276.261 82.134,276.261 82.387C276.261 84.409,277.16 86.037,279.406 86.543"/></g><g class="vf-notehead" id="vf-auto30132" pointer-events="bounding-box"><path stroke="none" d="M279.406 76.543C279.687 76.599,279.94 76.627,280.22 76.627C284.095 76.627,289.88 71.348,289.768 67.08C289.655 66.041,289.683 64.609,287.577 63.766C286.988 63.485,286.342 63.373,285.64 63.373C281.316 63.373,276.626 68.343,276.289 71.657C276.289 71.909,276.261 72.134,276.261 72.387C276.261 74.409,277.16 76.037,279.406 76.543"/></g><g class="vf-notehead" id="vf-auto30133" pointer-events="bounding-box"><path stroke="none" d="M279.406 61.543C279.687 61.599,279.94 61.627,280.22 61.627C284.095 61.627,289.88 56.348,289.768 52.08C289.655 51.041,289.683 49.609,287.577 48.766C286.988 48.485,286.342 48.373,285.64 48.373C281.316 48.373,276.626 53.343,276.289 56.657C276.289 56.909,276.261 57.134,276.261 57.387C276.261 59.409,277.16 61.037,279.406 61.543"/></g><path stroke="none" d="M296.637 50.517C297.03 50.517,297.255 49.983,297.479 49.618C297.536 49.534,297.536 49.422,297.536 49.337C297.901 48.214,298.013 47.119,298.013 45.968C298.013 44.479,297.76 42.991,297.479 41.503C297.367 40.913,297.255 40.408,297.255 39.846C297.255 39.425,297.339 39.032,297.536 38.583C297.76 38.049,297.732 37.319,297.816 36.673C297.816 36.533,297.844 36.308,297.844 36.112C297.844 35.101,297.62 34.062,297.62 32.995C297.62 32.405,297.648 31.815,297.901 31.226C298.266 30.243,298.406 29.288,298.406 28.277C298.406 26.733,298.041 25.188,297.564 23.672C297.536 23.532,297.479 23.419,297.479 23.251C297.479 23.167,297.479 23.082,297.564 23.026C298.181 21.847,298.462 20.696,298.462 19.544C298.462 18.337,298.125 17.073,297.732 15.782C297.62 15.417,297.451 15.08,297.451 14.799C297.451 14.518,297.564 14.293,297.929 13.956C298.181 13.788,298.294 13.423,298.35 13.114C298.378 12.581,298.406 12.103,298.406 11.598C298.406 8.537,297.395 5.785,295.093 3.483C294.25 2.668,293.296 2.022,292.397 1.264C291.386 0.422,290.375 -0.392,290.375 -1.881C290.375 -2.302,290.179 -2.583,290.01 -2.892C289.898 -3.116,289.898 -3.425,289.673 -3.425C289.645 -3.425,289.617 -3.397,289.561 -3.397C289.28 -3.257,288.887 -3.257,288.747 -2.835C288.662 -2.386,288.269 -1.965,288.269 -1.572C288.269 -0.589,288.353 0.282,288.297 1.292C288.269 2.5,288.269 3.651,288.269 4.83C288.269 5.196,288.269 5.589,288.297 5.954C288.438 7.273,288.887 8.537,288.887 9.885C288.887 11.317,288.943 12.833,288.943 14.406C288.943 14.967,288.915 15.585,288.887 16.147C288.831 16.961,288.803 17.719,288.803 18.534C288.803 19.572,288.831 20.668,288.831 21.707C288.831 23.054,288.803 24.43,288.634 25.75C288.55 26.536,288.522 27.266,288.522 28.081C288.522 29.288,288.606 30.496,288.606 31.675C288.606 32.77,289.084 33.556,289.842 34.343C291.274 35.747,292.762 37.122,293.801 38.835C295.71 41.896,296.019 45.406,296.356 48.888C296.356 49.085,296.328 49.309,296.356 49.506C296.384 49.702,296.328 49.955,296.328 50.152C296.328 50.376,296.356 50.517,296.637 50.517M296.806 13.788C294.7 10.812,291.414 8.621,290.375 4.662C294.812 7.975,296.834 9.941,296.806 13.788M295.879 20.05C294.812 18.393,293.296 17.27,291.835 15.978C290.965 15.248,290.544 14.434,290.544 13.311C290.544 13.058,290.572 12.833,290.628 12.552C292.425 15.136,295.065 16.905,295.879 20.05M296.104 29.12C294.812 27.266,293.324 25.834,291.976 24.262C291.19 23.391,290.544 22.38,290.544 21.145C290.544 20.948,290.544 20.752,290.572 20.555C292.959 21.51,295.823 25.89,296.104 29.12M295.261 35.101C293.801 32.602,290.74 31.226,290.207 28.025C291.948 30.383,294.7 31.984,295.261 35.101"/></g><g class="vf-stavenote" id="vf-auto30135"><g class="vf-notehead" id="vf-auto30142" pointer-events="bounding-box"><path stroke="none" d="M302.244 124.014C302.89 123.929,302.89 123.087,303.002 122.469L303.002 120.448C303.002 118.201,303.03 115.899,303.03 113.596C303.03 112.304,303.03 110.985,302.946 109.693C302.918 108.654,302.946 107.559,302.469 106.576C302.384 106.351,302.356 105.986,302.075 105.986L301.991 105.986C301.626 106.071,301.261 106.295,301.261 106.801C301.261 107.194,301.233 107.643,301.261 108.036C301.373 108.963,301.43 109.918,301.43 110.872C301.43 111.799,301.373 112.726,301.373 113.652C301.373 114.101,301.43 114.551,301.43 115C301.458 115.337,301.458 115.674,301.458 116.011L301.458 116.46C301.458 117.415,301.43 118.398,301.43 119.38C301.43 120.504,301.514 121.627,301.795 122.722C301.907 123.171,301.71 124.07,302.244 124.014M325.045 123.817C325.41 123.845,325.606 123.424,325.719 123.087C326 122.16,326.14 121.234,326.084 120.251C325.915 117.415,325.859 114.607,325.859 111.771C325.859 110.479,325.859 109.131,325.887 107.84C325.887 107.475,325.775 107.166,325.635 106.829C325.606 106.548,325.494 106.464,325.27 106.464C325.185 106.464,325.073 106.464,324.961 106.548C324.427 106.801,324.343 107.194,324.343 107.559C324.343 107.727,324.343 107.84,324.399 107.952C324.343 108.682,324.343 109.468,324.343 110.226L324.343 115.562C324.483 117.415,324.427 120.223,324.708 122.975C324.764 123.284,324.708 123.733,325.045 123.817M322.518 123.171C323.613 122.16,323.5 120.953,323.529 119.802C323.585 118.678,323.585 117.555,323.585 116.376C323.585 113.989,323.472 111.602,323.332 109.187C323.332 108.907,323.248 108.57,323.135 108.261C323.051 108.092,323.051 107.755,322.77 107.755C322.742 107.755,322.686 107.812,322.658 107.812C322.377 107.896,322.04 107.924,322.012 108.373C321.956 108.935,321.816 109.468,321.844 110.03C321.956 111.49,322.012 112.95,321.956 114.438L321.956 118.005C321.956 118.875,322.012 119.774,322.04 120.672C322.04 121.458,322.125 122.329,322.518 123.171M304.855 122.329C305.052 122.413,305.22 122.188,305.305 122.048C305.642 121.627,305.67 121.178,305.698 120.7C305.782 120.082,305.782 119.437,305.782 118.847C305.782 117.274,305.67 115.73,305.67 114.158C305.67 113.736,305.67 113.315,305.698 112.866L305.698 112.164C305.698 111.041,305.698 109.861,305.642 108.682C305.642 108.401,305.585 107.896,305.108 107.896L305.024 107.896C304.631 107.952,304.322 108.205,304.322 108.766C304.294 109.974,304.181 111.237,304.181 112.445C304.181 113.821,304.322 115.253,304.294 116.629C304.294 117.05,304.294 117.499,304.266 117.948C304.266 118.145,304.266 118.37,304.21 118.566C304.21 119.689,304.462 120.728,304.575 121.88C304.575 122.076,304.659 122.273,304.855 122.329M314.964 121.795C317.969 121.992,320.496 119.661,320.721 117.218L320.721 116.544C320.721 116.011,320.664 115.477,320.636 115C320.468 112.641,318.699 110.395,316.424 109.749C315.526 109.496,314.74 109.384,313.869 109.384C311.454 109.384,309.18 110.423,307.158 112.08C306.765 112.417,306.484 112.866,306.484 113.428C306.484 114.747,306.652 116.039,307.074 117.303C307.579 118.707,308.225 120.082,309.685 120.728C311.258 121.43,312.914 121.739,314.964 121.795M315.02 117.471C314.655 117.471,314.29 117.471,313.869 117.415C312.465 117.387,310.836 117.19,309.32 116.572C308.983 116.46,308.506 116.348,308.506 115.927C308.506 115.562,308.899 115.365,309.18 115.197C310.808 114.354,312.465 113.793,314.122 113.793C315.217 113.793,316.34 114.017,317.548 114.607C318.278 114.972,318.643 115.253,318.615 115.562C318.615 115.842,318.362 116.179,317.884 116.629C317.042 117.303,316.087 117.471,315.02 117.471"/></g><g class="vf-notehead" id="vf-auto30141" pointer-events="bounding-box"><path stroke="none" d="M302.244 114.014C302.89 113.929,302.89 113.087,303.002 112.469L303.002 110.448C303.002 108.201,303.03 105.899,303.03 103.596C303.03 102.304,303.03 100.985,302.946 99.693C302.918 98.654,302.946 97.559,302.469 96.576C302.384 96.351,302.356 95.986,302.075 95.986L301.991 95.986C301.626 96.071,301.261 96.295,301.261 96.801C301.261 97.194,301.233 97.643,301.261 98.036C301.373 98.963,301.43 99.918,301.43 100.872C301.43 101.799,301.373 102.726,301.373 103.652C301.373 104.101,301.43 104.551,301.43 105C301.458 105.337,301.458 105.674,301.458 106.011L301.458 106.46C301.458 107.415,301.43 108.398,301.43 109.38C301.43 110.504,301.514 111.627,301.795 112.722C301.907 113.171,301.71 114.07,302.244 114.014M325.045 113.817C325.41 113.845,325.606 113.424,325.719 113.087C326 112.16,326.14 111.234,326.084 110.251C325.915 107.415,325.859 104.607,325.859 101.771C325.859 100.479,325.859 99.131,325.887 97.84C325.887 97.475,325.775 97.166,325.635 96.829C325.606 96.548,325.494 96.464,325.27 96.464C325.185 96.464,325.073 96.464,324.961 96.548C324.427 96.801,324.343 97.194,324.343 97.559C324.343 97.727,324.343 97.84,324.399 97.952C324.343 98.682,324.343 99.468,324.343 100.226L324.343 105.562C324.483 107.415,324.427 110.223,324.708 112.975C324.764 113.284,324.708 113.733,325.045 113.817M322.518 113.171C323.613 112.16,323.5 110.953,323.529 109.802C323.585 108.678,323.585 107.555,323.585 106.376C323.585 103.989,323.472 101.602,323.332 99.187C323.332 98.907,323.248 98.57,323.135 98.261C323.051 98.092,323.051 97.755,322.77 97.755C322.742 97.755,322.686 97.812,322.658 97.812C322.377 97.896,322.04 97.924,322.012 98.373C321.956 98.935,321.816 99.468,321.844 100.03C321.956 101.49,322.012 102.95,321.956 104.438L321.956 108.005C321.956 108.875,322.012 109.774,322.04 110.672C322.04 111.458,322.125 112.329,322.518 113.171M304.855 112.329C305.052 112.413,305.22 112.188,305.305 112.048C305.642 111.627,305.67 111.178,305.698 110.7C305.782 110.082,305.782 109.437,305.782 108.847C305.782 107.274,305.67 105.73,305.67 104.158C305.67 103.736,305.67 103.315,305.698 102.866L305.698 102.164C305.698 101.041,305.698 99.861,305.642 98.682C305.642 98.401,305.585 97.896,305.108 97.896L305.024 97.896C304.631 97.952,304.322 98.205,304.322 98.766C304.294 99.974,304.181 101.237,304.181 102.445C304.181 103.821,304.322 105.253,304.294 106.629C304.294 107.05,304.294 107.499,304.266 107.948C304.266 108.145,304.266 108.37,304.21 108.566C304.21 109.689,304.462 110.728,304.575 111.88C304.575 112.076,304.659 112.273,304.855 112.329M314.964 111.795C317.969 111.992,320.496 109.661,320.721 107.218L320.721 106.544C320.721 106.011,320.664 105.477,320.636 105C320.468 102.641,318.699 100.395,316.424 99.749C315.526 99.496,314.74 99.384,313.869 99.384C311.454 99.384,309.18 100.423,307.158 102.08C306.765 102.417,306.484 102.866,306.484 103.428C306.484 104.747,306.652 106.039,307.074 107.303C307.579 108.707,308.225 110.082,309.685 110.728C311.258 111.43,312.914 111.739,314.964 111.795M315.02 107.471C314.655 107.471,314.29 107.471,313.869 107.415C312.465 107.387,310.836 107.19,309.32 106.572C308.983 106.46,308.506 106.348,308.506 105.927C308.506 105.562,308.899 105.365,309.18 105.197C310.808 104.354,312.465 103.793,314.122 103.793C315.217 103.793,316.34 104.017,317.548 104.607C318.278 104.972,318.643 105.253,318.615 105.562C318.615 105.842,318.362 106.179,317.884 106.629C317.042 107.303,316.087 107.471,315.02 107.471"/></g><g class="vf-notehead" id="vf-auto30140" pointer-events="bounding-box"><path stroke="none" d="M302.244 99.014C302.89 98.929,302.89 98.087,303.002 97.469L303.002 95.448C303.002 93.201,303.03 90.899,303.03 88.596C303.03 87.304,303.03 85.985,302.946 84.693C302.918 83.654,302.946 82.559,302.469 81.576C302.384 81.351,302.356 80.986,302.075 80.986L301.991 80.986C301.626 81.071,301.261 81.295,301.261 81.801C301.261 82.194,301.233 82.643,301.261 83.036C301.373 83.963,301.43 84.918,301.43 85.872C301.43 86.799,301.373 87.726,301.373 88.652C301.373 89.101,301.43 89.551,301.43 90C301.458 90.337,301.458 90.674,301.458 91.011L301.458 91.46C301.458 92.415,301.43 93.398,301.43 94.38C301.43 95.504,301.514 96.627,301.795 97.722C301.907 98.171,301.71 99.07,302.244 99.014M325.045 98.817C325.41 98.845,325.606 98.424,325.719 98.087C326 97.16,326.14 96.234,326.084 95.251C325.915 92.415,325.859 89.607,325.859 86.771C325.859 85.479,325.859 84.131,325.887 82.84C325.887 82.475,325.775 82.166,325.635 81.829C325.606 81.548,325.494 81.464,325.27 81.464C325.185 81.464,325.073 81.464,324.961 81.548C324.427 81.801,324.343 82.194,324.343 82.559C324.343 82.727,324.343 82.84,324.399 82.952C324.343 83.682,324.343 84.468,324.343 85.226L324.343 90.562C324.483 92.415,324.427 95.223,324.708 97.975C324.764 98.284,324.708 98.733,325.045 98.817M322.518 98.171C323.613 97.16,323.5 95.953,323.529 94.802C323.585 93.678,323.585 92.555,323.585 91.376C323.585 88.989,323.472 86.602,323.332 84.187C323.332 83.907,323.248 83.57,323.135 83.261C323.051 83.092,323.051 82.755,322.77 82.755C322.742 82.755,322.686 82.812,322.658 82.812C322.377 82.896,322.04 82.924,322.012 83.373C321.956 83.935,321.816 84.468,321.844 85.03C321.956 86.49,322.012 87.95,321.956 89.438L321.956 93.005C321.956 93.875,322.012 94.774,322.04 95.672C322.04 96.458,322.125 97.329,322.518 98.171M304.855 97.329C305.052 97.413,305.22 97.188,305.305 97.048C305.642 96.627,305.67 96.178,305.698 95.7C305.782 95.082,305.782 94.437,305.782 93.847C305.782 92.274,305.67 90.73,305.67 89.158C305.67 88.736,305.67 88.315,305.698 87.866L305.698 87.164C305.698 86.041,305.698 84.861,305.642 83.682C305.642 83.401,305.585 82.896,305.108 82.896L305.024 82.896C304.631 82.952,304.322 83.205,304.322 83.766C304.294 84.974,304.181 86.237,304.181 87.445C304.181 88.821,304.322 90.253,304.294 91.629C304.294 92.05,304.294 92.499,304.266 92.948C304.266 93.145,304.266 93.37,304.21 93.566C304.21 94.689,304.462 95.728,304.575 96.88C304.575 97.076,304.659 97.273,304.855 97.329M314.964 96.795C317.969 96.992,320.496 94.661,320.721 92.218L320.721 91.544C320.721 91.011,320.664 90.477,320.636 90C320.468 87.641,318.699 85.395,316.424 84.749C315.526 84.496,314.74 84.384,313.869 84.384C311.454 84.384,309.18 85.423,307.158 87.08C306.765 87.417,306.484 87.866,306.484 88.428C306.484 89.747,306.652 91.039,307.074 92.303C307.579 93.707,308.225 95.082,309.685 95.728C311.258 96.43,312.914 96.739,314.964 96.795M315.02 92.471C314.655 92.471,314.29 92.471,313.869 92.415C312.465 92.387,310.836 92.19,309.32 91.572C308.983 91.46,308.506 91.348,308.506 90.927C308.506 90.562,308.899 90.365,309.18 90.197C310.808 89.354,312.465 88.793,314.122 88.793C315.217 88.793,316.34 89.017,317.548 89.607C318.278 89.972,318.643 90.253,318.615 90.562C318.615 90.842,318.362 91.179,317.884 91.629C317.042 92.303,316.087 92.471,315.02 92.471"/></g></g><g class="vf-stavenote" id="vf-auto30143"><g class="vf-notehead" id="vf-auto30150" pointer-events="bounding-box"><path stroke="none" d="M341.621 113.877C341.509 119.24,336.566 122.273,332.523 122.525C331.316 122.61,330.277 121.964,329.125 121.543L328.002 121.065C326.879 120.532,326.261 119.661,326.261 118.566C326.261 118.229,326.289 117.92,326.43 117.555C327.188 115.253,328.199 113.006,329.687 111.041C331.035 109.272,333.253 108.317,335.443 108.317C337.409 108.317,339.374 109.047,340.694 110.563C341.537 111.49,341.677 112.641,341.621 113.877M333.225 118.005C334.545 117.864,335.836 117.471,337.044 116.769C337.549 116.488,337.914 116.123,338.223 115.646C338.392 115.393,338.476 115.168,338.476 114.916C338.476 114.607,338.279 114.326,337.858 114.101C336.819 113.624,335.893 112.95,334.713 112.95C334.432 112.95,334.18 112.978,333.899 113.062C332.074 113.512,330.67 114.438,329.659 115.983C329.546 116.179,329.378 116.404,329.378 116.629C329.378 116.825,329.49 116.994,329.771 117.106C330.866 117.499,331.933 118.005,333.225 118.005"/></g><g class="vf-notehead" id="vf-auto30149" pointer-events="bounding-box"><path stroke="none" d="M341.621 103.877C341.509 109.24,336.566 112.273,332.523 112.525C331.316 112.61,330.277 111.964,329.125 111.543L328.002 111.065C326.879 110.532,326.261 109.661,326.261 108.566C326.261 108.229,326.289 107.92,326.43 107.555C327.188 105.253,328.199 103.006,329.687 101.041C331.035 99.272,333.253 98.317,335.443 98.317C337.409 98.317,339.374 99.047,340.694 100.563C341.537 101.49,341.677 102.641,341.621 103.877M333.225 108.005C334.545 107.864,335.836 107.471,337.044 106.769C337.549 106.488,337.914 106.123,338.223 105.646C338.392 105.393,338.476 105.168,338.476 104.916C338.476 104.607,338.279 104.326,337.858 104.101C336.819 103.624,335.893 102.95,334.713 102.95C334.432 102.95,334.18 102.978,333.899 103.062C332.074 103.512,330.67 104.438,329.659 105.983C329.546 106.179,329.378 106.404,329.378 106.629C329.378 106.825,329.49 106.994,329.771 107.106C330.866 107.499,331.933 108.005,333.225 108.005"/></g><g class="vf-notehead" id="vf-auto30148" pointer-events="bounding-box"><path stroke="none" d="M341.621 88.877C341.509 94.24,336.566 97.273,332.523 97.525C331.316 97.61,330.277 96.964,329.125 96.543L328.002 96.065C326.879 95.532,326.261 94.661,326.261 93.566C326.261 93.229,326.289 92.92,326.43 92.555C327.188 90.253,328.199 88.006,329.687 86.041C331.035 84.272,333.253 83.317,335.443 83.317C337.409 83.317,339.374 84.047,340.694 85.563C341.537 86.49,341.677 87.641,341.621 88.877M333.225 93.005C334.545 92.864,335.836 92.471,337.044 91.769C337.549 91.488,337.914 91.123,338.223 90.646C338.392 90.393,338.476 90.168,338.476 89.916C338.476 89.607,338.279 89.326,337.858 89.101C336.819 88.624,335.893 87.95,334.713 87.95C334.432 87.95,334.18 87.978,333.899 88.062C332.074 88.512,330.67 89.438,329.659 90.983C329.546 91.179,329.378 91.404,329.378 91.629C329.378 91.825,329.49 91.994,329.771 92.106C330.866 92.499,331.933 93.005,333.225 93.005"/></g></g><g class="vf-stavenote" id="vf-auto30151"><g class="vf-stem" id="vf-auto30152" pointer-events="bounding-box"><path stroke-width="1.5" fill="none" d="M352.011 92.65L352.011 150"/></g><g class="vf-notehead" id="vf-auto30158" pointer-events="bounding-box"><path stroke="none" d="M364.74 113.428C364.683 118.229,360.556 122.048,355.95 122.048C355.277 122.048,354.575 121.964,353.901 121.795C352.469 121.43,351.823 120.391,351.514 118.959C351.345 118.229,351.261 117.555,351.261 116.909C351.261 112.332,354.827 109.384,359.236 108.008C359.376 107.952,359.601 107.924,359.797 107.924C361.763 107.924,364.768 110.226,364.768 112.81C364.768 113.006,364.768 113.231,364.74 113.428M357.242 117.864C358.955 117.274,360.836 116.348,362.465 114.832C362.493 114.803,362.549 114.635,362.549 114.523C362.549 114.382,362.493 114.27,362.465 114.242C361.735 113.512,361.173 112.529,359.994 112.36C359.826 112.332,359.685 112.332,359.46 112.332C357.72 112.332,356.344 113.456,354.912 114.242C354.013 114.747,353.002 115.814,353.199 116.741C353.395 117.752,354.855 117.555,355.782 117.752C356.147 117.836,356.484 117.836,357.242 117.864"/></g><g class="vf-notehead" id="vf-auto30157" pointer-events="bounding-box"><path stroke="none" d="M364.74 103.428C364.683 108.229,360.556 112.048,355.95 112.048C355.277 112.048,354.575 111.964,353.901 111.795C352.469 111.43,351.823 110.391,351.514 108.959C351.345 108.229,351.261 107.555,351.261 106.909C351.261 102.332,354.827 99.384,359.236 98.008C359.376 97.952,359.601 97.924,359.797 97.924C361.763 97.924,364.768 100.226,364.768 102.81C364.768 103.006,364.768 103.231,364.74 103.428M357.242 107.864C358.955 107.274,360.836 106.348,362.465 104.832C362.493 104.803,362.549 104.635,362.549 104.523C362.549 104.382,362.493 104.27,362.465 104.242C361.735 103.512,361.173 102.529,359.994 102.36C359.826 102.332,359.685 102.332,359.46 102.332C357.72 102.332,356.344 103.456,354.912 104.242C354.013 104.747,353.002 105.814,353.199 106.741C353.395 107.752,354.855 107.555,355.782 107.752C356.147 107.836,356.484 107.836,357.242 107.864"/></g><g class="vf-notehead" id="vf-auto30156" pointer-events="bounding-box"><path stroke="none" d="M364.74 88.428C364.683 93.229,360.556 97.048,355.95 97.048C355.277 97.048,354.575 96.964,353.901 96.795C352.469 96.43,351.823 95.391,351.514 93.959C351.345 93.229,351.261 92.555,351.261 91.909C351.261 87.332,354.827 84.384,359.236 83.008C359.376 82.952,359.601 82.924,359.797 82.924C361.763 82.924,364.768 85.226,364.768 87.81C364.768 88.006,364.768 88.231,364.74 88.428M357.242 92.864C358.955 92.274,360.836 91.348,362.465 89.832C362.493 89.803,362.549 89.635,362.549 89.523C362.549 89.382,362.493 89.27,362.465 89.242C361.735 88.512,361.173 87.529,359.994 87.36C359.826 87.332,359.685 87.332,359.46 87.332C357.72 87.332,356.344 88.456,354.912 89.242C354.013 89.747,353.002 90.814,353.199 91.741C353.395 92.752,354.855 92.555,355.782 92.752C356.147 92.836,356.484 92.836,357.242 92.864"/></g></g><g class="vf-stavenote" id="vf-auto30159"><g class="vf-stem" id="vf-auto30160" pointer-events="bounding-box"><path stroke-width="1.5" fill="none" d="M377.011 92L377.011 150"/></g><g class="vf-notehead" id="vf-auto30166" pointer-events="bounding-box"><path stroke="none" d="M379.406 121.543C379.687 121.599,379.94 121.627,380.22 121.627C384.095 121.627,389.88 116.348,389.768 112.08C389.655 111.041,389.683 109.609,387.577 108.766C386.988 108.485,386.342 108.373,385.64 108.373C381.316 108.373,376.626 113.343,376.289 116.657C376.289 116.909,376.261 117.134,376.261 117.387C376.261 119.409,377.16 121.037,379.406 121.543"/></g><g class="vf-notehead" id="vf-auto30165" pointer-events="bounding-box"><path stroke="none" d="M379.406 111.543C379.687 111.599,379.94 111.627,380.22 111.627C384.095 111.627,389.88 106.348,389.768 102.08C389.655 101.041,389.683 99.609,387.577 98.766C386.988 98.485,386.342 98.373,385.64 98.373C381.316 98.373,376.626 103.343,376.289 106.657C376.289 106.909,376.261 107.134,376.261 107.387C376.261 109.409,377.16 111.037,379.406 111.543"/></g><g class="vf-notehead" id="vf-auto30164" pointer-events="bounding-box"><path stroke="none" d="M379.406 96.543C379.687 96.599,379.94 96.627,380.22 96.627C384.095 96.627,389.88 91.348,389.768 87.08C389.655 86.041,389.683 84.609,387.577 83.766C386.988 83.485,386.342 83.373,385.64 83.373C381.316 83.373,376.626 88.343,376.289 91.657C376.289 91.909,376.261 92.134,376.261 92.387C376.261 94.409,377.16 96.037,379.406 96.543"/></g></g><g class="vf-stavenote" id="vf-auto30167"><g class="vf-stem" id="vf-auto30168" pointer-events="bounding-box"><path stroke-width="1.5" fill="none" d="M402.011 92L402.011 147"/></g><g class="vf-notehead" id="vf-auto30175" pointer-events="bounding-box"><path stroke="none" d="M404.406 121.543C404.687 121.599,404.94 121.627,405.22 121.627C409.095 121.627,414.88 116.348,414.768 112.08C414.655 111.041,414.683 109.609,412.577 108.766C411.988 108.485,411.342 108.373,410.64 108.373C406.316 108.373,401.626 113.343,401.289 116.657C401.289 116.909,401.261 117.134,401.261 117.387C401.261 119.409,402.16 121.037,404.406 121.543"/></g><g class="vf-notehead" id="vf-auto30174" pointer-events="bounding-box"><path stroke="none" d="M404.406 111.543C404.687 111.599,404.94 111.627,405.22 111.627C409.095 111.627,414.88 106.348,414.768 102.08C414.655 101.041,414.683 99.609,412.577 98.766C411.988 98.485,411.342 98.373,410.64 98.373C406.316 98.373,401.626 103.343,401.289 106.657C401.289 106.909,401.261 107.134,401.261 107.387C401.261 109.409,402.16 111.037,404.406 111.543"/></g><g class="vf-notehead" id="vf-auto30173" pointer-events="bounding-box"><path stroke="none" d="M404.406 96.543C404.687 96.599,404.94 96.627,405.22 96.627C409.095 96.627,414.88 91.348,414.768 87.08C414.655 86.041,414.683 84.609,412.577 83.766C411.988 83.485,411.342 83.373,410.64 83.373C406.316 83.373,401.626 88.343,401.289 91.657C401.289 91.909,401.261 92.134,401.261 92.387C401.261 94.409,402.16 96.037,404.406 96.543"/></g><path stroke="none" d="M408.702 119.118C408.534 118.978,408.422 118.894,408.309 118.894C408.169 118.894,408.056 119.034,408 119.371C407.972 119.905,407.776 120.41,407.72 120.944C407.691 121.309,407.663 121.674,407.663 122.011C407.663 122.656,407.804 123.246,408.45 123.78C409.18 124.369,409.601 125.324,409.994 126.194C410.106 126.447,410.162 126.728,410.162 127.009C410.162 127.542,409.966 128.104,409.91 128.666C409.629 131.754,408.169 134.338,406.231 136.64C405.473 137.567,404.743 138.578,403.957 139.504C402.075 142.004,401.261 144.84,401.261 147.956L401.261 150.231C401.261 150.989,401.43 151.635,402.244 152L402.44 152C402.721 151.326,403.002 150.624,403.002 149.894C403.002 149.445,402.918 149.08,402.918 148.715C402.946 146.861,403.816 145.289,404.94 143.829C405.922 142.621,406.849 141.358,407.804 140.15C409.994 137.398,411.089 134.253,411.566 130.8C411.735 129.761,411.819 128.722,411.819 127.655C411.819 126.082,411.623 124.51,411.117 122.937C410.696 121.477,409.713 120.27,408.702 119.118"/></g><g class="vf-stavenote" id="vf-auto30177"><g class="vf-stem" id="vf-auto30178" pointer-events="bounding-box"><path stroke-width="1.5" fill="none" d="M427.011 92L427.011 147"/></g><g class="vf-notehead" id="vf-auto30185" pointer-events="bounding-box"><path stroke="none" d="M429.406 121.543C429.687 121.599,429.94 121.627,430.22 121.627C434.095 121.627,439.88 116.348,439.768 112.08C439.655 111.041,439.683 109.609,437.577 108.766C436.988 108.485,436.342 108.373,435.64 108.373C431.316 108.373,426.626 113.343,426.289 116.657C426.289 116.909,426.261 117.134,426.261 117.387C426.261 119.409,427.16 121.037,429.406 121.543"/></g><g class="vf-notehead" id="vf-auto30184" pointer-events="bounding-box"><path stroke="none" d="M429.406 111.543C429.687 111.599,429.94 111.627,430.22 111.627C434.095 111.627,439.88 106.348,439.768 102.08C439.655 101.041,439.683 99.609,437.577 98.766C436.988 98.485,436.342 98.373,435.64 98.373C431.316 98.373,426.626 103.343,426.289 106.657C426.289 106.909,426.261 107.134,426.261 107.387C426.261 109.409,427.16 111.037,429.406 111.543"/></g><g class="vf-notehead" id="vf-auto30183" pointer-events="bounding-box"><path stroke="none" d="M429.406 96.543C429.687 96.599,429.94 96.627,430.22 96.627C434.095 96.627,439.88 91.348,439.768 87.08C439.655 86.041,439.683 84.609,437.577 83.766C436.988 83.485,436.342 83.373,435.64 83.373C431.316 83.373,426.626 88.343,426.289 91.657C426.289 91.909,426.261 92.134,426.261 92.387C426.261 94.409,427.16 96.037,429.406 96.543"/></g><path stroke="none" d="M427.918 152C428.283 152,428.283 151.551,428.367 151.326C428.648 150.512,428.62 149.613,428.957 148.799C429.575 147.283,430.754 146.216,431.877 145.12C434.236 142.818,436.651 140.543,437.914 137.398C438.644 135.573,439.15 133.72,439.318 131.754C439.374 130.772,439.515 129.789,439.487 128.946C439.515 127.57,439.374 126.279,439.206 124.987C439.29 124.369,439.29 123.808,439.318 123.358C439.374 122.123,439.29 121.056,438.925 120.045C438.785 119.736,438.672 119.455,438.476 119.203C438.364 119.09,438.195 118.894,437.999 118.894L437.914 118.894C437.746 118.978,437.718 119.034,437.718 119.174C437.718 119.287,437.746 119.399,437.746 119.483C437.774 123.527,436.089 126.84,433.506 129.733C430.642 132.878,428.395 136.359,427.244 140.487C426.598 142.649,426.261 144.924,426.261 147.226L426.261 149.529C426.261 150.006,426.43 151.354,427.075 151.803C427.188 151.888,427.89 152,427.918 152M428.676 144.11C429.125 142.734,429.771 141.498,430.333 140.206C431.568 137.37,433.73 135.264,435.556 132.878C436.482 131.698,437.268 130.406,437.858 129.087C437.858 129.311,437.914 129.564,437.914 129.789C437.914 132.4,436.847 134.787,435.191 136.865C433.815 138.578,432.158 140.066,430.642 141.61C429.855 142.369,429.21 143.239,428.676 144.11"/></g><g class="vf-stavenote" id="vf-auto30187"><g class="vf-stem" id="vf-auto30188" pointer-events="bounding-box"><path stroke-width="1.5" fill="none" d="M452.011 92L452.011 156"/></g><g class="vf-notehead" id="vf-auto30195" pointer-events="bounding-box"><path stroke="none" d="M454.406 121.543C454.687 121.599,454.94 121.627,455.22 121.627C459.095 121.627,464.88 116.348,464.768 112.08C464.655 111.041,464.683 109.609,462.577 108.766C461.988 108.485,461.342 108.373,460.64 108.373C456.316 108.373,451.626 113.343,451.289 116.657C451.289 116.909,451.261 117.134,451.261 117.387C451.261 119.409,452.16 121.037,454.406 121.543"/></g><g class="vf-notehead" id="vf-auto30194" pointer-events="bounding-box"><path stroke="none" d="M454.406 111.543C454.687 111.599,454.94 111.627,455.22 111.627C459.095 111.627,464.88 106.348,464.768 102.08C464.655 101.041,464.683 99.609,462.577 98.766C461.988 98.485,461.342 98.373,460.64 98.373C456.316 98.373,451.626 103.343,451.289 106.657C451.289 106.909,451.261 107.134,451.261 107.387C451.261 109.409,452.16 111.037,454.406 111.543"/></g><g class="vf-notehead" id="vf-auto30193" pointer-events="bounding-box"><path stroke="none" d="M454.406 96.543C454.687 96.599,454.94 96.627,455.22 96.627C459.095 96.627,464.88 91.348,464.768 87.08C464.655 86.041,464.683 84.609,462.577 83.766C461.988 83.485,461.342 83.373,460.64 83.373C456.316 83.373,451.626 88.343,451.289 91.657C451.289 91.909,451.261 92.134,451.261 92.387C451.261 94.409,452.16 96.037,454.406 96.543"/></g><path stroke="none" d="M460.331 118.472C459.994 118.557,460.247 119.034,460.162 119.315C460.078 119.68,460.022 120.101,460.022 120.466C460.022 121.477,460.275 122.488,460.275 123.499C460.275 123.808,460.275 124.145,460.191 124.425C459.545 127.57,458.169 130.322,455.698 132.456C454.827 133.243,453.901 133.973,453.114 134.899C451.879 136.388,451.458 138.128,451.458 139.982C451.458 141.638,451.373 143.351,451.373 145.036C451.43 146.749,450.98 148.153,451.233 149.81C451.261 150.343,451.261 151.101,451.261 151.607L451.261 156.156C451.261 156.886,451.345 157.588,451.43 158.262C451.514 158.683,451.879 158.739,452.104 158.823L452.188 158.823C452.384 158.88,452.384 158.515,452.525 158.346C452.609 158.178,452.749 157.953,452.749 157.728C452.665 155.678,454.013 154.471,455.501 153.572C459.348 151.242,461.033 146.861,461.005 142.425C461.033 141.526,460.893 140.515,460.556 139.476C460.471 139.224,460.471 139.027,460.471 138.774C460.471 138.044,460.752 137.286,460.836 136.556C460.893 136.163,460.921 135.742,460.921 135.377C460.921 134.562,460.808 133.776,460.612 132.906C460.528 132.681,460.528 132.4,460.528 132.147C460.528 131.67,460.64 131.221,460.836 130.8C461.707 128.778,462.1 126.756,462.1 124.734C462.128 123.05,461.847 121.309,461.342 119.568C461.258 119.455,461.201 119.287,461.117 119.174C460.921 118.838,460.724 118.36,460.331 118.472M458.983 134.366C458.702 138.662,455.866 141.077,453.255 143.744C453.171 143.239,453.086 142.706,453.086 142.256C453.114 141.077,453.451 139.982,454.378 138.971C455.838 137.455,457.607 136.275,458.983 134.366M459.264 142.256C459.32 142.425,459.348 142.621,459.348 142.874C459.348 145.261,456.344 148.771,453.816 149.866C453.844 148.995,454.181 148.35,454.659 147.76C456.119 145.935,458.253 144.671,459.264 142.256"/></g><g class="vf-stavenote" id="vf-auto30197"><g class="vf-stem" id="vf-auto30198" pointer-events="bounding-box"><path stroke-width="1.5" fill="none" d="M477.011 92L477.011 160"/></g><g class="vf-notehead" id="vf-auto30205" pointer-events="bounding-box"><path stroke="none" d="M479.406 121.543C479.687 121.599,479.94 121.627,480.22 121.627C484.095 121.627,489.88 116.348,489.768 112.08C489.655 111.041,489.683 109.609,487.577 108.766C486.988 108.485,486.342 108.373,485.64 108.373C481.316 108.373,476.626 113.343,476.289 116.657C476.289 116.909,476.261 117.134,476.261 117.387C476.261 119.409,477.16 121.037,479.406 121.543"/></g><g class="vf-notehead" id="vf-auto30204" pointer-events="bounding-box"><path stroke="none" d="M479.406 111.543C479.687 111.599,479.94 111.627,480.22 111.627C484.095 111.627,489.88 106.348,489.768 102.08C489.655 101.041,489.683 99.609,487.577 98.766C486.988 98.485,486.342 98.373,485.64 98.373C481.316 98.373,476.626 103.343,476.289 106.657C476.289 106.909,476.261 107.134,476.261 107.387C476.261 109.409,477.16 111.037,479.406 111.543"/></g><g class="vf-notehead" id="vf-auto30203" pointer-events="bounding-box"><path stroke="none" d="M479.406 96.543C479.687 96.599,479.94 96.627,480.22 96.627C484.095 96.627,489.88 91.348,489.768 87.08C489.655 86.041,489.683 84.609,487.577 83.766C486.988 83.485,486.342 83.373,485.64 83.373C481.316 83.373,476.626 88.343,476.289 91.657C476.289 91.909,476.261 92.134,476.261 92.387C476.261 94.409,477.16 96.037,479.406 96.543"/></g><path stroke="none" d="M486.033 119.848C485.893 119.933,485.836 120.101,485.836 120.213C485.836 120.382,485.893 120.578,485.893 120.747C485.808 124.734,484.685 128.3,481.765 131.221C481.035 131.951,480.22 132.597,479.406 133.243C477.89 134.478,477.075 136.163,476.907 138.128C476.823 138.943,476.795 139.757,476.795 140.543C476.795 142.144,476.907 143.744,477.019 145.373C477.16 147.142,476.738 148.939,476.626 150.736C476.626 151.242,476.598 151.663,476.598 152.168L476.598 154.106C476.598 155.229,476.542 156.409,476.373 157.504C476.233 158.543,476.177 159.61,476.177 160.621L476.177 162.727C476.177 163.569,476.177 164.468,476.065 165.338L476.065 165.591C476.065 165.9,476.093 166.237,476.177 166.602C476.261 166.967,476.626 167.079,476.907 167.135C476.935 167.163,476.935 167.163,476.991 167.163C477.244 167.163,477.272 166.826,477.384 166.63C477.749 165.872,477.946 165.029,477.946 164.215C477.946 163.513,478.255 163.035,478.648 162.558C479.771 161.21,481.316 160.368,482.579 159.16C484.011 157.728,485.275 156.156,485.808 154.19C486.005 153.292,486.117 152.393,486.117 151.326C486.117 150.961,486.089 150.596,486.089 150.231C486.005 150.006,486.005 149.782,486.005 149.585C486.005 148.293,486.932 146.974,487.1 145.57C487.184 144.896,487.268 144.166,487.268 143.436C487.268 142.06,487.044 140.684,486.707 139.392C486.482 138.746,486.286 138.1,486.286 137.398C486.286 137.202,486.286 137.033,486.342 136.837C486.398 136.472,486.398 136.079,486.398 135.714C486.398 134.478,486.201 133.355,486.033 132.232C486.033 132.119,486.005 131.979,486.005 131.895C486.005 131.445,486.117 131.108,486.286 130.743C487.016 128.666,487.634 126.616,487.634 124.425C487.634 123.05,487.409 121.702,486.903 120.494C486.735 120.129,486.454 119.736,486.033 119.848M484.629 133.72C484.685 133.973,484.685 134.197,484.685 134.422C484.685 135.742,484.264 136.753,483.506 137.595C481.989 139.308,480.024 140.487,478.564 142.509C478.536 142.256,478.536 141.975,478.536 141.695C478.536 140.543,478.844 139.673,479.49 138.859C480.95 137.005,483.056 135.826,484.629 133.72M484.601 141.61C484.713 141.498,484.826 141.414,484.966 141.414C485.078 141.414,485.162 141.526,485.275 141.863C485.387 142.256,485.471 142.649,485.471 143.014C485.471 144.278,484.741 145.289,483.73 146.047C481.933 147.479,480.052 148.855,478.367 150.652C478.395 148.995,478.536 147.591,479.546 146.552C481.147 144.84,482.888 143.267,484.601 141.61M484.264 150.652C484.432 150.989,484.517 151.27,484.517 151.551C484.517 151.747,484.46 151.972,484.348 152.197C483.899 153.039,483.422 153.938,482.663 154.583C481.119 155.875,479.631 157.167,477.946 158.543C478.451 154.471,481.428 152.646,484.264 150.652"/></g><g class="vf-stavenote" id="vf-auto30207"><g class="vf-stem" id="vf-auto30208" pointer-events="bounding-box"><path stroke-width="1.5" fill="none" d="M502.011 92L502.011 169"/></g><g class="vf-notehead" id="vf-auto30215" pointer-events="bounding-box"><path stroke="none" d="M504.406 121.543C504.687 121.599,504.94 121.627,505.22 121.627C509.095 121.627,514.88 116.348,514.768 112.08C514.655 111.041,514.683 109.609,512.577 108.766C511.988 108.485,511.342 108.373,510.64 108.373C506.316 108.373,501.626 113.343,501.289 116.657C501.289 116.909,501.261 117.134,501.261 117.387C501.261 119.409,502.16 121.037,504.406 121.543"/></g><g class="vf-notehead" id="vf-auto30214" pointer-events="bounding-box"><path stroke="none" d="M504.406 111.543C504.687 111.599,504.94 111.627,505.22 111.627C509.095 111.627,514.88 106.348,514.768 102.08C514.655 101.041,514.683 99.609,512.577 98.766C511.988 98.485,511.342 98.373,510.64 98.373C506.316 98.373,501.626 103.343,501.289 106.657C501.289 106.909,501.261 107.134,501.261 107.387C501.261 109.409,502.16 111.037,504.406 111.543"/></g><g class="vf-notehead" id="vf-auto30213" pointer-events="bounding-box"><path stroke="none" d="M504.406 96.543C504.687 96.599,504.94 96.627,505.22 96.627C509.095 96.627,514.88 91.348,514.768 87.08C514.655 86.041,514.683 84.609,512.577 83.766C511.988 83.485,511.342 83.373,510.64 83.373C506.316 83.373,501.626 88.343,501.289 91.657C501.289 91.909,501.261 92.134,501.261 92.387C501.261 94.409,502.16 96.037,504.406 96.543"/></g><path stroke="none" d="M509.629 121.505C509.348 121.505,509.32 121.646,509.32 121.87C509.32 122.067,509.376 122.319,509.348 122.516C509.32 122.713,509.348 122.937,509.348 123.134C509.011 126.616,508.702 130.126,506.793 133.186C505.754 134.899,504.266 136.275,502.834 137.679C502.075 138.465,501.598 139.252,501.598 140.347C501.598 141.526,501.514 142.734,501.514 143.941C501.514 144.755,501.542 145.485,501.626 146.272C501.795 147.591,501.823 148.967,501.823 150.315C501.823 151.354,501.795 152.449,501.795 153.488C501.795 154.303,501.823 155.061,501.879 155.875C501.907 156.437,501.935 157.054,501.935 157.616C501.935 159.188,501.879 160.705,501.879 162.137C501.879 163.485,501.43 164.748,501.289 166.068C501.261 166.433,501.261 166.826,501.261 167.191C501.261 168.371,501.177 169.522,501.261 170.729C501.261 170.954,501.177 174.211,501.261 174.717C501.373 175.166,502.272 175.278,502.553 175.419C502.609 175.419,502.637 175.447,502.665 175.447C502.89 175.447,502.89 175.138,503.002 174.913C503.171 174.604,503.367 174.324,503.367 173.902C503.367 172.414,504.378 171.6,505.389 170.757C506.287 169.999,507.242 169.353,508.085 168.539C510.387 166.237,511.398 163.485,511.398 160.424C511.398 159.919,511.37 159.441,511.342 158.908C511.286 158.599,511.173 158.234,510.921 158.065C510.556 157.728,510.443 157.504,510.443 157.223C510.443 156.942,510.612 156.605,510.724 156.24C511.117 154.948,511.454 153.685,511.454 152.477C511.454 151.326,511.173 150.175,510.556 148.995C510.471 148.939,510.471 148.855,510.471 148.771C510.471 148.602,510.528 148.49,510.556 148.35C511.033 146.833,511.398 145.289,511.398 143.744C511.398 142.734,511.258 141.779,510.893 140.796C510.64 140.206,510.612 139.617,510.612 139.027C510.612 137.96,510.836 136.921,510.836 135.91C510.836 135.714,510.808 135.489,510.808 135.349C510.724 134.703,510.752 133.973,510.528 133.439C510.331 132.99,510.247 132.597,510.247 132.176C510.247 131.614,510.359 131.108,510.471 130.519C510.752 129.031,511.005 127.542,511.005 126.054C511.005 124.903,510.893 123.808,510.528 122.684C510.528 122.6,510.528 122.488,510.471 122.404C510.247 122.039,510.022 121.505,509.629 121.505M508.253 136.921C507.691 140.038,504.94 141.638,503.199 143.997C503.732 140.796,506.793 139.42,508.253 136.921M509.095 142.902C508.815 146.131,505.95 150.512,503.564 151.466C503.536 151.27,503.536 151.073,503.536 150.877C503.536 149.641,504.181 148.63,504.968 147.76C506.316 146.187,507.804 144.755,509.095 142.902M508.871 151.972C508.056 155.117,505.417 156.886,503.62 159.469C503.564 159.188,503.536 158.964,503.536 158.711C503.536 157.588,503.957 156.774,504.827 156.044C506.287 154.752,507.804 153.629,508.871 151.972M509.797 158.234C509.826 162.081,507.804 164.046,503.367 167.36C504.406 163.4,507.691 161.21,509.797 158.234"/></g><g class="vf-stavenote" id="vf-auto30217"><g class="vf-notehead" id="vf-auto30220" pointer-events="bounding-box"><path stroke="none" d="M527.469 90C527.609 90,527.721 90,527.89 89.972C528.536 89.832,529.125 89.523,529.743 89.438C531.119 89.242,531.203 88.371,531.203 87.304C531.147 86.125,531.119 84.974,531.119 83.822C531.119 83.036,531.203 82.25,531.203 81.464C531.203 80.706,530.838 80.284,530.192 80.088C529.771 80.004,529.378 79.919,528.929 79.919C528.311 79.919,527.721 80.06,527.16 80.284C526.823 80.453,526.261 80.537,526.261 81.155C526.261 81.829,526.289 82.475,526.289 83.177L526.289 85.114L526.373 85.114L526.373 88.652C526.373 89.551,526.738 90,527.469 90"/></g></g><g class="vf-stavenote" id="vf-auto30221"><g class="vf-notehead" id="vf-auto30224" pointer-events="bounding-box"><path stroke="none" d="M561.258 84.858L561.258 84.802L569.288 84.802C570.356 84.802,571.394 84.072,571.451 83.229C571.451 82.92,571.479 82.583,571.479 82.303C571.479 81.685,571.451 81.123,571.226 80.562C571.029 80,570.749 79.719,570.131 79.523C569.906 79.438,569.71 79.438,569.485 79.438C569.064 79.438,568.699 79.523,568.25 79.523C563.42 79.523,558.618 79.523,553.844 79.466C553.199 79.438,552.637 79.663,552.075 79.803C551.598 79.888,551.514 80.168,551.514 80.477C551.514 80.73,551.542 80.983,551.542 81.207C551.542 81.629,551.345 82.022,551.289 82.359C551.261 84.128,551.458 84.858,553.395 84.858"/></g></g><g class="vf-stavenote" id="vf-auto30225"><g class="vf-notehead" id="vf-auto30228" pointer-events="bounding-box"><path stroke="none" d="M579.013 90L591.874 90C592.884 90,593.923 90,594.934 89.972C596.479 89.916,597.125 89.186,597.209 87.697C597.293 86.799,597.04 85.956,596.928 85.114C596.731 83.963,596.142 83.485,595.075 83.485C594.12 83.485,593.193 83.57,592.267 83.57C590.245 83.57,588.223 83.457,586.258 83.457L578.311 83.457C576.795 83.457,576.261 83.822,576.261 84.974C576.261 85.198,576.261 85.395,576.289 85.676C576.373 86.209,576.43 86.771,576.43 87.332C576.345 89.242,577.075 90,579.013 90"/></g></g><g class="vf-stavenote" id="vf-auto30229"><g class="vf-notehead" id="vf-auto30232" pointer-events="bounding-box"><path stroke="none" d="M605.066 105.019C605.369 104.843,605.318 104.49,605.394 104.188C605.394 104.036,605.318 103.91,605.293 103.759C604.991 102.474,604.663 101.239,604.386 99.979C604.336 99.828,604.336 99.677,604.336 99.576C604.336 98.341,605.243 96.854,606.276 96.426C606.528 96.275,606.73 96.376,607.007 96.451C608.166 96.829,608.771 97.812,609.426 98.719C609.602 98.971,609.854 99.299,610.157 99.299C610.232 99.299,610.258 99.299,610.333 99.248C610.661 99.097,610.812 98.77,610.812 98.467L610.762 98.19C610.636 97.358,610.484 96.502,609.93 95.846C608.846 94.536,608.267 92.948,607.536 91.462C607.435 91.235,607.36 91.058,607.36 90.907C607.36 90.655,607.511 90.428,607.763 90.176C608.418 89.496,609.098 88.866,609.527 88.034C609.93 87.379,610.182 86.699,610.182 86.018C610.182 85.54,610.081 85.061,609.754 84.557C608.67 82.742,607.536 80.953,606.629 79.038C606.024 77.728,605.243 76.493,604.159 75.51C603.907 75.258,603.58 74.93,603.227 74.93C603.076 74.93,602.924 74.981,602.748 75.082C602.395 75.308,602.244 75.586,602.244 75.838C602.244 76.14,602.395 76.417,602.597 76.72C603.731 78.181,604.411 79.87,605.495 81.331C605.822 81.734,605.974 82.012,605.974 82.264C605.974 82.591,605.696 82.843,605.117 83.221C604.336 83.65,603.554 84.078,602.824 84.632C602.471 84.884,602.269 85.162,602.269 85.464C602.269 85.64,602.345 85.817,602.42 86.018C602.773 86.85,603.252 87.606,603.756 88.362C604.562 89.496,605.293 90.731,605.873 91.991C605.621 92.218,605.394 92.142,605.192 92.167C602.723 92.495,601.085 94.36,601.261 96.577C601.513 99.223,602.496 101.693,603.68 104.036C603.832 104.339,604.008 104.616,604.386 104.742C604.588 104.818,604.739 105.07,604.915 105.07C604.966 105.07,605.041 105.07,605.066 105.019"/></g></g><g class="vf-stavenote" id="vf-auto30233"><g class="vf-notehead" id="vf-auto30236" pointer-events="bounding-box"><path stroke="none" d="M630.866 100.502C631.596 100.474,631.961 100.025,632.214 99.547C632.944 98.199,633.506 96.795,634.011 95.335C635.612 91.011,636.342 86.406,637.774 81.997C637.858 81.744,637.942 81.464,637.942 81.183L637.942 80.986C637.914 80.425,637.774 80.06,637.297 80.06C637.184 80.06,637.1 80.06,636.988 80.088C636.005 80.256,635.106 80.649,634.46 81.267C633.45 82.25,632.326 82.952,631.147 83.682C630.979 83.766,630.838 83.85,630.67 83.85C630.501 83.85,630.333 83.766,630.192 83.598C630.024 83.457,629.94 83.261,629.94 83.092C629.94 82.924,629.968 82.812,630.052 82.643C630.22 82.362,630.389 81.997,630.389 81.632C630.389 80.93,630.585 80.06,629.827 79.695C629.462 79.526,629.125 79.442,628.901 79.442C628.367 79.442,628.03 79.807,627.609 80.565C626.823 81.913,626.598 83.401,626.345 84.918C626.289 85.226,626.261 85.507,626.261 85.788C626.261 87.641,627.244 89.326,629.322 89.326C629.827 89.326,630.417 89.242,631.063 88.989C632.242 88.54,633.225 87.894,634.376 87.164C633.45 91.741,631.681 95.981,630.866 100.502"/></g></g><g class="vf-stavenote" id="vf-auto30237"><g class="vf-notehead" id="vf-auto30240" pointer-events="bounding-box"><path stroke="none" d="M657.13 103.226C657.495 103.394,657.888 103.141,658.169 102.861C659.095 101.934,659.685 100.783,659.882 99.491C660.022 98.452,660.162 97.357,660.359 96.346C661.089 92.64,662.1 89.017,663.279 85.479C663.757 83.963,664.74 82.727,664.74 81.071C664.74 80.706,664.655 80.425,664.374 80.256C664.206 80.172,664.009 80.144,663.757 80.144C663.392 80.144,663.027 80.256,662.718 80.537C662.634 80.565,662.577 80.621,662.549 80.649C660.921 81.744,659.517 83.12,657.523 83.963C657.691 83.457,657.86 83.092,657.888 82.727C657.944 82.559,657.944 82.39,657.944 82.25C657.944 81.52,657.607 80.621,657.214 80.509C657.046 80.453,656.849 80.425,656.681 80.425C655.642 80.425,654.181 81.099,653.676 81.885C653.114 82.84,652.918 83.907,652.918 84.946C652.918 87.866,653.844 89.242,655.642 89.242C656.287 89.242,656.989 89.017,657.888 88.708C658.871 88.343,659.629 87.697,660.752 87.164C660.022 88.624,659.741 90,659.376 91.376C659.011 92.78,657.86 93.005,656.765 93.426C656.512 93.566,656.203 93.566,656.203 93.201L656.203 93.117C656.231 92.471,655.866 92.022,655.67 91.488C655.22 90.197,654.097 90.449,653.199 90.253C652.469 90.084,652.075 90.758,651.738 91.348C651.373 92.05,651.261 92.78,651.261 93.566C651.261 94.128,651.289 94.689,651.43 95.223C651.738 97.357,652.3 98.256,653.564 98.256C654.125 98.256,654.855 98.115,655.754 97.75C656.344 97.525,656.961 97.273,657.411 96.795C657.523 96.627,657.691 96.458,657.888 96.458C657.972 96.458,658 96.458,658.085 96.515C658.225 96.908,657.972 97.329,657.86 97.722C657.439 99.379,656.933 101.092,656.933 102.804C656.933 102.973,656.961 103.141,657.13 103.226"/></g></g><g class="vf-stavenote" id="vf-auto30241"><g class="vf-notehead" id="vf-auto30244" pointer-events="bounding-box"><path stroke="none" d="M681.231 110.105C681.709 110.218,682.13 109.768,682.354 109.375C682.579 109.094,682.72 108.757,682.804 108.392C683.365 105.921,683.983 103.478,684.46 100.951C685.022 97.722,685.696 94.521,686.398 91.348C687.297 87.136,688.111 82.924,688.953 78.768C689.374 76.606,689.796 74.472,690.217 72.338C690.245 72.169,690.301 72.001,690.301 71.832C690.301 71.327,690.076 70.793,689.74 70.597C689.599 70.512,689.431 70.456,689.29 70.456C688.841 70.456,688.364 70.765,687.999 71.074L686.398 72.422C686.173 72.647,685.893 72.815,685.612 72.843C685.387 72.843,685.162 72.703,684.91 72.338C684.46 71.72,683.702 71.439,682.972 71.271C682.663 71.243,682.326 71.186,681.989 71.186C680.22 71.186,678.929 72.366,678.676 74.303C678.676 74.5,678.648 74.724,678.648 74.921C678.648 76.1,678.929 77.224,679.266 78.319C679.462 79.077,680.024 79.554,680.782 79.554C680.922 79.554,681.035 79.554,681.147 79.526C681.652 79.498,682.13 79.414,682.607 79.245C684.264 78.712,685.528 77.532,687.128 76.578C686.903 77.532,686.482 78.347,686.482 79.161C686.482 80.93,685.247 81.632,684.011 82.39C683.899 82.475,683.787 82.531,683.702 82.531C683.59 82.531,683.45 82.446,683.337 82.25C682.691 81.267,681.484 80.649,680.277 80.649C679.912 80.649,679.575 80.734,679.266 80.818C678.002 81.183,677.553 81.829,677.469 83.177C677.469 84.103,677.721 84.974,677.89 85.928C678.171 87.417,679.041 88.231,680.473 88.231C682.242 88.231,683.534 87.248,685.106 86.293C684.601 88.231,684.152 89.888,683.73 91.629C683.534 92.555,682.72 92.696,682.074 92.836C681.484 93.005,681.849 92.106,681.484 91.853C681.344 91.769,681.4 91.544,681.316 91.404C680.754 90.646,680.052 90.084,679.097 90.084C677.918 90.084,676.823 90.899,676.514 91.853C676.345 92.359,676.261 92.836,676.261 93.313C676.261 94.044,676.43 94.774,676.542 95.504C676.823 97.188,677.721 98.059,679.181 98.059C679.462 98.059,679.771 98.059,680.108 97.919C680.501 97.89,681.063 97.554,681.428 97.554C681.596 97.554,681.681 97.61,681.765 97.722C681.793 97.806,681.849 97.919,681.849 98.059C681.849 98.536,681.568 99.126,681.428 99.631C681.428 99.716,681.4 99.744,681.344 99.772C680.698 102.046,679.94 104.265,680.024 106.708C680.024 107.522,680.473 108.196,680.642 109.01C680.698 109.459,680.754 110.021,681.231 110.105"/></g></g><g class="vf-stavenote" id="vf-auto30245"><g class="vf-notehead" id="vf-auto30248" pointer-events="bounding-box"><path stroke="none" d="M706.877 119.119C707.298 119.119,707.495 118.782,707.691 118.417C707.804 118.192,707.888 117.912,707.944 117.631C708.225 115.665,708.702 113.812,709.18 111.902C710.162 108.084,711.201 104.237,712.1 100.362C713.111 95.953,713.925 91.488,715.048 87.08C716.087 83.008,716.705 78.796,718.109 74.809C718.418 73.994,718.558 73.18,718.558 72.338C718.558 71.804,718.53 71.158,718.109 70.906C717.716 70.709,717.154 70.99,716.705 71.327C716.059 71.776,715.329 72.169,714.74 72.647C714.571 72.787,714.403 72.843,714.29 72.843C714.122 72.843,714.009 72.731,713.841 72.534C713.195 71.72,712.409 71.411,711.538 71.411C711.201 71.411,710.893 71.439,710.556 71.523C709.264 71.832,708.365 72.618,708.056 73.938C707.972 74.359,707.888 74.753,707.888 75.174C707.888 76.409,708.309 77.589,708.73 78.768C708.955 79.414,709.713 79.526,710.387 79.526C711.538 79.526,712.577 79.245,713.504 78.515L715.133 77.308C714.88 78.319,714.571 79.077,714.571 79.891C714.571 81.66,713.476 82.446,712.016 83.036C711.847 81.913,711.117 81.295,710.247 80.79C709.826 80.537,709.432 80.425,709.011 80.425C707.86 80.425,706.709 81.267,706.484 82.446C706.4 82.812,706.344 83.177,706.344 83.542C706.344 84.272,706.484 84.974,706.512 85.704C706.652 87.585,707.804 88.231,709.095 88.231C709.348 88.231,709.545 88.231,709.797 88.175C710.921 87.978,711.903 87.417,712.942 86.771C712.662 88.062,712.409 89.242,712.128 90.393C711.932 91.46,711.623 92.415,710.247 92.668C710.247 92.499,710.247 92.359,710.191 92.218C709.826 90.814,708.871 90,707.523 90C706.063 90,705.052 90.842,704.687 92.274C704.631 92.696,704.575 93.145,704.575 93.566L704.575 95.504C704.575 96.037,704.771 96.43,705.108 96.795C705.67 97.469,706.344 97.722,707.13 97.722C707.495 97.722,707.86 97.694,708.253 97.554C708.899 97.413,709.517 97.16,710.191 96.964C710.106 98.452,709.46 99.66,709.152 100.951C709.095 101.035,709.095 101.148,709.011 101.232C708.899 101.457,708.73 101.681,708.534 101.794C708.422 101.934,708.309 102.046,708.169 102.046C708.056 102.046,707.944 101.962,707.804 101.653C707.579 100.923,706.877 100.446,706.203 100.081C705.698 99.772,705.192 99.716,704.659 99.716C703.311 99.716,702.019 100.39,701.654 101.457C701.373 102.299,701.261 103.141,701.261 103.984C701.261 104.602,701.345 105.247,701.43 105.837C701.598 107.157,702.525 107.831,703.816 107.831C704.181 107.831,704.546 107.803,704.94 107.662C705.838 107.466,706.596 106.932,707.523 106.567C706.961 108.842,706.568 110.976,705.922 113.138C705.67 113.924,705.417 114.738,705.417 115.609C705.417 116.002,705.473 116.395,705.642 116.816C705.782 117.294,706.035 117.827,706.231 118.305C706.344 118.642,706.4 119.119,706.877 119.119"/></g></g><g class="vf-stavenote" id="vf-auto30249"><g class="vf-notehead" id="vf-auto30252" pointer-events="bounding-box"><path stroke="none" d="M732.804 118.501C733.45 118.136,733.73 117.546,733.871 116.844L735.078 110.302C735.724 106.792,736.538 103.31,737.297 99.828C738.672 93.594,740.076 87.445,741.509 81.239C742.632 76.241,744.092 71.327,745.552 66.385C745.861 65.29,746.114 64.194,746.114 63.099C746.114 62.819,746.114 62.594,746.086 62.313C746.029 61.948,746.029 61.246,745.58 61.218C745.44 61.218,745.271 61.162,745.075 61.162C744.654 61.162,744.204 61.302,743.923 61.723C743.474 62.454,742.716 62.819,741.958 63.464C741.789 62.819,741.958 62.173,741.452 61.808C740.75 61.246,739.964 60.937,739.066 60.937C738.729 60.937,738.364 60.965,738.027 61.078C736.903 61.415,736.173 62.06,735.921 63.24C735.836 63.717,735.808 64.251,735.808 64.728C735.808 65.262,735.836 65.739,735.836 66.216C735.808 67.115,736.201 67.733,736.932 68.126C737.662 68.519,738.476 68.603,739.29 68.575C740.582 68.575,741.677 67.929,742.884 67.143C742.407 68.743,741.874 70.063,741.593 71.467C741.34 72.618,740.778 73.208,739.74 73.573C739.74 73.433,739.683 73.292,739.683 73.18C739.515 72.001,738.279 70.962,737.1 70.962C735.893 70.962,734.797 71.72,734.517 72.815C734.18 74.079,734.067 75.37,734.095 76.606C734.152 77.982,735.162 78.908,736.454 78.908C736.623 78.908,736.763 78.908,736.932 78.88C737.942 78.684,738.869 78.234,739.964 77.757C739.431 79.975,739.403 82.278,737.044 83.457C736.735 82.924,736.847 82.25,736.342 81.829C735.724 81.295,734.966 81.071,734.18 81.071C733.085 81.071,731.961 81.632,731.344 82.587C730.557 83.935,730.585 85.479,730.585 86.995C730.585 88.821,731.512 89.832,733.056 89.832C733.365 89.832,733.702 89.803,734.067 89.719C735.528 89.382,736.538 88.456,737.718 87.529C737.493 88.428,737.297 89.242,737.128 90.028C736.903 91.544,736.201 92.64,734.713 93.145C734.601 92.668,734.741 92.218,734.376 91.825C733.815 91.179,733.141 90.899,732.411 90.899C732.074 90.899,731.765 90.983,731.4 91.039C730.305 91.292,729.659 91.994,729.406 93.061C729.181 94.072,729.294 95.139,729.21 96.15C729.097 97.75,730.024 98.845,731.484 98.845C731.849 98.845,732.298 98.761,732.72 98.621C733.674 98.284,734.46 97.722,735.359 97.188C735.331 100.755,733.73 103.226,731.316 103.787C731.316 103.478,731.316 103.17,731.4 102.889C731.428 102.748,731.428 102.58,731.428 102.411L731.428 102.243C731.428 101.316,731.035 100.755,730.052 100.362C729.771 100.221,729.462 100.193,729.125 100.193C728.311 100.193,727.525 100.558,727.075 101.204C726.149 102.58,726.43 104.124,726.289 105.612C726.149 107.55,727.469 108.814,729.322 108.814C729.575 108.814,729.912 108.757,730.192 108.729C731.316 108.477,732.242 107.915,733.365 107.297C733.225 108.084,733.056 108.673,732.944 109.319C732.439 111.874,731.652 114.345,731.652 116.929C731.652 117.266,731.652 117.546,731.681 117.855C731.709 118.473,731.849 118.754,732.158 118.754C732.326 118.754,732.523 118.67,732.804 118.501"/></g></g><g class="vf-stavenote" id="vf-auto30253"><g class="vf-stem" id="vf-auto30254" pointer-events="bounding-box"><path stroke-width="1.5" fill="none" d="M764.018 87.45L764.018 55"/></g><g class="vf-notehead" id="vf-auto30256" pointer-events="bounding-box"><path stroke="none" d="M753.732 96.318C754.21 96.262,754.659 96.15,755.024 95.728C755.67 95.054,756.316 94.409,756.933 93.678L758.955 91.404C760.499 92.836,762.1 94.156,763.672 95.532C763.869 95.7,764.122 95.897,764.403 95.897L764.543 95.897C764.768 95.813,764.768 95.588,764.768 95.391L764.768 95.223C764.768 94.802,764.683 94.437,764.403 94.156C763.869 93.51,763.392 92.836,762.746 92.274C761.847 91.544,761.005 90.814,760.162 90.028C761.426 88.624,762.634 87.164,763.672 85.591C763.953 85.226,764.374 84.749,764.374 84.328C764.374 84.187,764.318 84.019,764.178 83.907C764.009 83.738,763.813 83.654,763.644 83.654C763.195 83.654,762.802 84.272,762.465 84.609C761.201 85.985,760.05 87.36,758.871 88.821C757.776 87.726,756.765 86.63,755.782 85.479C755.501 85.114,755.22 84.693,754.771 84.581C754.546 84.496,754.266 84.216,754.013 84.216C753.901 84.216,753.816 84.272,753.704 84.412C753.479 84.665,753.367 84.918,753.367 85.142C753.367 85.339,753.479 85.591,753.704 85.872C754.827 87.248,756.007 88.54,757.242 89.803C757.411 89.972,757.523 90.084,757.691 90.197C756.203 91.853,754.631 93.426,753.367 95.307C753.255 95.532,753.086 95.7,753.086 95.953C753.086 95.981,753.086 96.065,753.114 96.093C753.199 96.346,753.479 96.234,753.732 96.318"/></g></g></svg>