<svg xmlns="http://www.w3.org/2000/svg" stroke-width="0.3" stroke-dasharray="none" fill="black" stroke="black" font-family="Arial, sans-serif" font-size="10pt" font-weight="normal" font-style="normal" width="450" height="200" viewBox="0 0 450 200" style="width: 450px; height: 200px; border: none;"><g class="vf-stave" id="vf-auto20911" stroke-width="1" fill="#999999" stroke="#999999"><path fill="none" d="M0 80L440 80"/><path fill="none" d="M0 90L440 90"/><path fill="none" d="M0 100L440 100"/><path fill="none" d="M0 110L440 110"/><path fill="none" d="M0 120L440 120"/></g><g class="vf-stavebarline" id="vf-auto20912"><rect y="79.5" width="1" height="41" stroke="none"/></g><g class="vf-stavebarline" id="vf-auto20913"><rect x="440" y="79.5" width="1" height="41" stroke="none"/></g><g class="vf-stavenote" id="vf-auto20914"><g class="vf-notehead" id="vf-auto21081" pointer-events="bounding-box"><path stroke="none" d="M20.931 80.054C24.525 80.054,28.934 76.741,28.934 73.315C28.934 71.237,27.305 69.946,25.003 69.946C20.566 69.946,17 73.231,17 76.685C17 78.791,18.741 80.054,20.931 80.054"/></g></g><g class="vf-stavenote" id="vf-auto20922"><path stroke-width="1.4" fill="none" stroke="#444" d="M38.679 70L56.613 70"/><path stroke-width="1.4" fill="none" stroke="#444" d="M38.679 60L56.613 60"/><path stroke-width="1.4" fill="none" stroke="#444" d="M38.679 50L56.613 50"/><path stroke-width="1.4" fill="none" stroke="#444" d="M38.679 40L56.613 40"/><g class="vf-notehead" id="vf-auto21083" pointer-events="bounding-box"><path stroke="none" d="M45.61 40.054C49.205 40.054,53.613 36.741,53.613 33.315C53.613 31.237,51.984 29.946,49.682 29.946C45.245 29.946,41.679 33.231,41.679 36.685C41.679 38.791,43.42 40.054,45.61 40.054"/></g></g><g class="vf-stavenote" id="vf-auto20930"><path stroke-width="1.4" fill="none" stroke="#444" d="M58.567 70L76.501 70"/><path stroke-width="1.4" fill="none" stroke="#444" d="M58.567 60L76.501 60"/><path stroke-width="1.4" fill="none" stroke="#444" d="M58.567 50L76.501 50"/><path stroke-width="1.4" fill="none" stroke="#444" d="M58.567 40L76.501 40"/><g class="vf-notehead" id="vf-auto21085" pointer-events="bounding-box"><path stroke="none" d="M65.498 40.054C69.092 40.054,73.501 36.741,73.501 33.315C73.501 31.237,71.872 29.946,69.569 29.946C65.133 29.946,61.567 33.231,61.567 36.685C61.567 38.791,63.308 40.054,65.498 40.054"/></g></g><g class="vf-stavenote" id="vf-auto20938"><path stroke-width="1.4" fill="none" stroke="#444" d="M78.454 70L96.388 70"/><path stroke-width="1.4" fill="none" stroke="#444" d="M78.454 60L96.388 60"/><path stroke-width="1.4" fill="none" stroke="#444" d="M78.454 50L96.388 50"/><path stroke-width="1.4" fill="none" stroke="#444" d="M78.454 40L96.388 40"/><g class="vf-notehead" id="vf-auto21087" pointer-events="bounding-box"><path stroke="none" d="M85.385 40.054C88.979 40.054,93.388 36.741,93.388 33.315C93.388 31.237,91.759 29.946,89.457 29.946C85.02 29.946,81.454 33.231,81.454 36.685C81.454 38.791,83.195 40.054,85.385 40.054"/></g></g><g class="vf-stavenote" id="vf-auto20946"><g class="vf-notehead" id="vf-auto21089" pointer-events="bounding-box"><path stroke="none" d="M105.273 115.054C108.867 115.054,113.276 111.741,113.276 108.315C113.276 106.237,111.647 104.946,109.344 104.946C104.908 104.946,101.342 108.231,101.342 111.685C101.342 113.791,103.082 115.054,105.273 115.054"/></g></g><g class="vf-stavenote" id="vf-auto20954"><g class="vf-notehead" id="vf-auto21091" pointer-events="bounding-box"><path stroke="none" d="M124.457 115.054C128.052 115.054,132.46 111.741,132.46 108.315C132.46 106.237,130.832 104.946,128.529 104.946C124.092 104.946,120.526 108.231,120.526 111.685C120.526 113.791,122.267 115.054,124.457 115.054"/></g></g><g class="vf-stavenote" id="vf-auto20962"><g class="vf-notehead" id="vf-auto21093" pointer-events="bounding-box"><path stroke="none" d="M143.642 100.054C147.236 100.054,151.645 96.741,151.645 93.315C151.645 91.237,150.016 89.946,147.714 89.946C143.277 89.946,139.711 93.231,139.711 96.685C139.711 98.791,141.452 100.054,143.642 100.054"/></g></g><g class="vf-stavenote" id="vf-auto20970"><g class="vf-notehead" id="vf-auto21095" pointer-events="bounding-box"><path stroke="none" d="M162.827 100.054C166.421 100.054,170.83 96.741,170.83 93.315C170.83 91.237,169.201 89.946,166.898 89.946C162.462 89.946,158.896 93.231,158.896 96.685C158.896 98.791,160.636 100.054,162.827 100.054"/></g></g><g class="vf-stavenote" id="vf-auto20978"><g class="vf-notehead" id="vf-auto21097" pointer-events="bounding-box"><path stroke="none" d="M182.011 100.054C185.606 100.054,190.014 96.741,190.014 93.315C190.014 91.237,188.386 89.946,186.083 89.946C181.646 89.946,178.08 93.231,178.08 96.685C178.08 98.791,179.821 100.054,182.011 100.054"/></g></g><g class="vf-stavenote" id="vf-auto20986"><g class="vf-notehead" id="vf-auto21099" pointer-events="bounding-box"><path stroke="none" d="M201.196 100.054C204.79 100.054,209.199 96.741,209.199 93.315C209.199 91.237,207.57 89.946,205.268 89.946C200.831 89.946,197.265 93.231,197.265 96.685C197.265 98.791,199.006 100.054,201.196 100.054"/></g></g><g class="vf-stavenote" id="vf-auto20994"><g class="vf-notehead" id="vf-auto21101" pointer-events="bounding-box"><path stroke="none" d="M220.381 100.054C223.975 100.054,228.384 96.741,228.384 93.315C228.384 91.237,226.755 89.946,224.452 89.946C220.016 89.946,216.45 93.231,216.45 96.685C216.45 98.791,218.191 100.054,220.381 100.054"/></g></g><g class="vf-stavenote" id="vf-auto21002"><g class="vf-notehead" id="vf-auto21103" pointer-events="bounding-box"><path stroke="none" d="M239.565 100.054C243.16 100.054,247.568 96.741,247.568 93.315C247.568 91.237,245.94 89.946,243.637 89.946C239.2 89.946,235.634 93.231,235.634 96.685C235.634 98.791,237.375 100.054,239.565 100.054"/></g></g><g class="vf-stavenote" id="vf-auto21010"><g class="vf-notehead" id="vf-auto21105" pointer-events="bounding-box"><path stroke="none" d="M258.75 100.054C262.344 100.054,266.753 96.741,266.753 93.315C266.753 91.237,265.124 89.946,262.822 89.946C258.385 89.946,254.819 93.231,254.819 96.685C254.819 98.791,256.56 100.054,258.75 100.054"/></g></g><g class="vf-stavenote" id="vf-auto21018"><g class="vf-notehead" id="vf-auto21107" pointer-events="bounding-box"><path stroke="none" d="M277.935 100.054C281.529 100.054,285.938 96.741,285.938 93.315C285.938 91.237,284.309 89.946,282.006 89.946C277.57 89.946,274.004 93.231,274.004 96.685C274.004 98.791,275.745 100.054,277.935 100.054"/></g></g><g class="vf-stavenote" id="vf-auto21026"><path stroke-width="1.4" fill="none" stroke="#444" d="M290.188 70L308.122 70"/><g class="vf-notehead" id="vf-auto21109" pointer-events="bounding-box"><path stroke="none" d="M297.119 75.054C300.714 75.054,305.122 71.741,305.122 68.315C305.122 66.237,303.494 64.946,301.191 64.946C296.754 64.946,293.188 68.231,293.188 71.685C293.188 73.791,294.929 75.054,297.119 75.054"/></g></g><g class="vf-stavenote" id="vf-auto21034"><g class="vf-notehead" id="vf-auto21111" pointer-events="bounding-box"><path stroke="none" d="M321.799 80.054C325.393 80.054,329.801 76.741,329.801 73.315C329.801 71.237,328.173 69.946,325.87 69.946C321.434 69.946,317.867 73.231,317.867 76.685C317.867 78.791,319.608 80.054,321.799 80.054"/></g></g><g class="vf-stavenote" id="vf-auto21042"><g class="vf-notehead" id="vf-auto21115" pointer-events="bounding-box"><path stroke="none" d="M346.478 125.054C350.072 125.054,354.48 121.741,354.48 118.315C354.48 116.237,352.852 114.946,350.549 114.946C346.113 114.946,342.546 118.231,342.546 121.685C342.546 123.791,344.287 125.054,346.478 125.054"/></g><g class="vf-notehead" id="vf-auto21114" pointer-events="bounding-box"><path stroke="none" d="M346.478 115.054C350.072 115.054,354.48 111.741,354.48 108.315C354.48 106.237,352.852 104.946,350.549 104.946C346.113 104.946,342.546 108.231,342.546 111.685C342.546 113.791,344.287 115.054,346.478 115.054"/></g><g class="vf-notehead" id="vf-auto21113" pointer-events="bounding-box"><path stroke="none" d="M346.478 105.054C350.072 105.054,354.48 101.741,354.48 98.315C354.48 96.237,352.852 94.946,350.549 94.946C346.113 94.946,342.546 98.231,342.546 101.685C342.546 103.791,344.287 105.054,346.478 105.054"/></g></g><g class="vf-stavenote" id="vf-auto21056"><g class="vf-notehead" id="vf-auto21117" pointer-events="bounding-box"><path stroke="none" d="M367.849 90.054C371.443 90.054,375.852 86.741,375.852 83.315C375.852 81.237,374.223 79.946,371.92 79.946C367.484 79.946,363.918 83.231,363.918 86.685C363.918 88.791,365.659 90.054,367.849 90.054"/></g></g><g class="vf-stavenote" id="vf-auto21064"><g class="vf-notehead" id="vf-auto21119" pointer-events="bounding-box"><path stroke="none" d="M389.22 95.054C392.814 95.054,397.223 91.741,397.223 88.315C397.223 86.237,395.594 84.946,393.292 84.946C388.855 84.946,385.289 88.231,385.289 91.685C385.289 93.791,387.03 95.054,389.22 95.054"/></g></g><g class="vf-stavenote" id="vf-auto21072"><g class="vf-notehead" id="vf-auto21121" pointer-events="bounding-box"><path stroke="none" d="M413.899 90.054C417.493 90.054,421.902 86.741,421.902 83.315C421.902 81.237,420.273 79.946,417.971 79.946C413.534 79.946,409.968 83.231,409.968 86.685C409.968 88.791,411.709 90.054,413.899 90.054"/></g></g><g class="vf-stem" id="vf-auto20915" pointer-events="bounding-box"><path stroke-width="1.5" fill="none" d="M17.75 77L17.75 154.25"/></g><g class="vf-stem" id="vf-auto20923" pointer-events="bounding-box"><path stroke-width="1.5" fill="none" d="M42.429 37L42.429 154.25"/></g><g class="vf-stem" id="vf-auto20931" pointer-events="bounding-box"><path stroke-width="1.5" fill="none" d="M62.317 37L62.317 154.25"/></g><g class="vf-stem" id="vf-auto20939" pointer-events="bounding-box"><path stroke-width="1.5" fill="none" d="M82.204 37L82.204 154.25"/></g><g class="vf-stem" id="vf-auto20947" pointer-events="bounding-box"><path stroke-width="1.5" fill="none" d="M102.092 112L102.092 154.25"/></g><g class="vf-stem" id="vf-auto20955" pointer-events="bounding-box"><path stroke-width="1.5" fill="none" d="M121.276 112L121.276 154.25"/></g><g class="vf-beam" id="vf-auto21123"><path stroke="none" d="M17 155L17 150L121.526 150L121.526 155Z"/><path stroke="none" d="M41.679 147.5L41.679 142.5L121.526 142.5L121.526 147.5Z"/><path stroke="none" d="M41.679 140L41.679 135L121.526 135L121.526 140Z"/><path stroke="none" d="M101.342 132.5L101.342 127.5L121.526 127.5L121.526 132.5Z"/></g><g class="vf-stem" id="vf-auto20963" pointer-events="bounding-box"><path stroke-width="1.5" fill="none" d="M140.461 97L140.461 144.25"/></g><g class="vf-stem" id="vf-auto20971" pointer-events="bounding-box"><path stroke-width="1.5" fill="none" d="M159.646 97L159.646 144.25"/></g><g class="vf-stem" id="vf-auto20979" pointer-events="bounding-box"><path stroke-width="1.5" fill="none" d="M178.83 97L178.83 144.25"/></g><g class="vf-stem" id="vf-auto20987" pointer-events="bounding-box"><path stroke-width="1.5" fill="none" d="M198.015 97L198.015 144.25"/></g><g class="vf-stem" id="vf-auto20995" pointer-events="bounding-box"><path stroke-width="1.5" fill="none" d="M217.2 97L217.2 144.25"/></g><g class="vf-stem" id="vf-auto21003" pointer-events="bounding-box"><path stroke-width="1.5" fill="none" d="M236.384 97L236.384 144.25"/></g><g class="vf-stem" id="vf-auto21011" pointer-events="bounding-box"><path stroke-width="1.5" fill="none" d="M255.569 97L255.569 144.25"/></g><g class="vf-stem" id="vf-auto21019" pointer-events="bounding-box"><path stroke-width="1.5" fill="none" d="M274.754 97L274.754 144.25"/></g><g class="vf-stem" id="vf-auto21027" pointer-events="bounding-box"><path stroke-width="1.5" fill="none" d="M293.938 72L293.938 144.25"/></g><g class="vf-beam" id="vf-auto21124"><path stroke="none" d="M139.711 145L139.711 140L294.188 140L294.188 145Z"/><path stroke="none" d="M139.711 137.5L139.711 132.5L275.004 132.5L275.004 137.5Z"/><path stroke="none" d="M139.711 130L139.711 125L275.004 125L275.004 130Z"/><path stroke="none" d="M139.711 122.5L139.711 117.5L275.004 117.5L275.004 122.5Z"/></g><g class="vf-stem" id="vf-auto21035" pointer-events="bounding-box"><path stroke-width="1.5" fill="none" d="M318.617 77L318.617 149.25"/></g><g class="vf-stem" id="vf-auto21043" pointer-events="bounding-box"><path stroke-width="1.5" fill="none" d="M343.296 102L343.296 149.25"/></g><g class="vf-stem" id="vf-auto21057" pointer-events="bounding-box"><path stroke-width="1.5" fill="none" d="M364.668 87L364.668 149.25"/></g><g class="vf-beam" id="vf-auto21125"><path stroke="none" d="M317.867 150L317.867 145L364.918 145L364.918 150Z"/><path stroke="none" d="M342.546 142.5L342.546 137.5L364.918 137.5L364.918 142.5Z"/></g><g class="vf-stem" id="vf-auto21065" pointer-events="bounding-box"><path stroke-width="1.5" fill="none" d="M386.039 92L386.039 144.25"/></g><g class="vf-stem" id="vf-auto21073" pointer-events="bounding-box"><path stroke-width="1.5" fill="none" d="M410.718 87L410.718 144.25"/></g><g class="vf-beam" id="vf-auto21126"><path stroke="none" d="M385.289 145L385.289 140L410.968 140L410.968 145Z"/></g></svg>