<svg xmlns="http://www.w3.org/2000/svg" stroke-width="0.3" stroke-dasharray="none" fill="black" stroke="black" font-family="Arial, sans-serif" font-size="10pt" font-weight="normal" font-style="normal" width="916" height="600" viewBox="0 0 916 600" style="width: 916px; height: 600px; border: none;"><text stroke="none" x="100" y="40">550px,softMax:5</text><g class="vf-stave" id="vf-auto19393" stroke-width="1" fill="#999999" stroke="#999999"><path fill="none" d="M10 80L560 80"/><path fill="none" d="M10 90L560 90"/><path fill="none" d="M10 100L560 100"/><path fill="none" d="M10 110L560 110"/><path fill="none" d="M10 120L560 120"/></g><g class="vf-stavebarline" id="vf-auto19394"><rect x="10" y="79.5" width="1" height="41" stroke="none"/></g><g class="vf-stavebarline" id="vf-auto19395"><rect x="560" y="79.5" width="1" height="41" stroke="none"/></g><g class="vf-stavenote" id="vf-auto19396"><g class="vf-notehead" id="vf-auto19400" pointer-events="bounding-box"><path stroke="none" d="M35.765 101.685C35.765 103.426,37.029 105.391,40.286 105.391C44.498 105.391,48.907 101.938,48.907 98.371C48.907 95.985,46.885 94.665,44.386 94.665C40.455 94.665,35.765 97.978,35.765 101.685"/><path stroke="none" d="M55.907 95 A2 2 0 0 0 51.907 95 A2 2 0 0 0 55.907 95"/><g class="vf-annotation" id="vf-auto19403"><text stroke="none" font-family="Times New Roman, serif" font-size="12pt" x="29" y="144.516">ipso</text></g></g></g><g class="vf-stavenote" id="vf-auto19404"><g class="vf-notehead" id="vf-auto19408" pointer-events="bounding-box"><path stroke="none" d="M87.211 101.685C87.211 103.426,88.474 105.391,91.732 105.391C95.944 105.391,100.352 101.938,100.352 98.371C100.352 95.985,98.33 94.665,95.831 94.665C91.9 94.665,87.211 97.978,87.211 101.685"/><g class="vf-annotation" id="vf-auto19410"><text stroke="none" font-family="Times New Roman, serif" font-size="12pt" x="77.781" y="144.516">ipso-</text></g></g></g><g class="vf-stavenote" id="vf-auto19411"><g class="vf-notehead" id="vf-auto19415" pointer-events="bounding-box"><path stroke="none" d="M132.199 101.685C132.199 103.426,133.463 105.391,136.72 105.391C140.932 105.391,145.34 101.938,145.34 98.371C145.34 95.985,143.319 94.665,140.819 94.665C136.888 94.665,132.199 97.978,132.199 101.685"/><g class="vf-annotation" id="vf-auto19417"><text stroke="none" font-family="Times New Roman, serif" font-size="12pt" x="125.434" y="144.516">ipso</text></g></g></g><g class="vf-stavenote" id="vf-auto19418"><g class="vf-notehead" id="vf-auto19422" pointer-events="bounding-box"><path stroke="none" d="M180.308 101.685C180.308 103.426,181.571 105.391,184.828 105.391C189.04 105.391,193.449 101.938,193.449 98.371C193.449 95.985,191.427 94.665,188.928 94.665C184.997 94.665,180.308 97.978,180.308 101.685"/><path stroke="none" d="M200.449 95 A2 2 0 0 0 196.449 95 A2 2 0 0 0 200.449 95"/><g class="vf-annotation" id="vf-auto19425"><text stroke="none" font-family="Times New Roman, serif" font-size="12pt" x="173.542" y="144.516">ipso</text></g></g></g><g class="vf-stavenote" id="vf-auto19426"><g class="vf-notehead" id="vf-auto19430" pointer-events="bounding-box"><path stroke="none" d="M231.753 101.685C231.753 103.426,233.017 105.391,236.274 105.391C240.486 105.391,244.894 101.938,244.894 98.371C244.894 95.985,242.873 94.665,240.374 94.665C236.442 94.665,231.753 97.978,231.753 101.685"/><g class="vf-annotation" id="vf-auto19432"><text stroke="none" font-family="Times New Roman, serif" font-size="12pt" x="221.437" y="144.516">ipsoz</text></g></g></g><g class="vf-stavenote" id="vf-auto19433"><g class="vf-notehead" id="vf-auto19437" pointer-events="bounding-box"><path stroke="none" d="M276.741 101.685C276.741 103.426,278.005 105.391,281.262 105.391C285.474 105.391,289.883 101.938,289.883 98.371C289.883 95.985,287.861 94.665,285.362 94.665C281.431 94.665,276.741 97.978,276.741 101.685"/><g class="vf-annotation" id="vf-auto19439"><text stroke="none" font-family="Times New Roman, serif" font-size="12pt" x="267.312" y="144.516">ipso-</text></g></g></g><g class="vf-stavenote" id="vf-auto19440"><g class="vf-notehead" id="vf-auto19444" pointer-events="bounding-box"><path stroke="none" d="M324.85 101.685C324.85 103.426,326.114 105.391,329.371 105.391C333.583 105.391,337.991 101.938,337.991 98.371C337.991 95.985,335.97 94.665,333.47 94.665C329.539 94.665,324.85 97.978,324.85 101.685"/><path stroke="none" d="M344.991 95 A2 2 0 0 0 340.991 95 A2 2 0 0 0 344.991 95"/><g class="vf-annotation" id="vf-auto19447"><text stroke="none" font-family="Times New Roman, serif" font-size="12pt" x="318.085" y="144.516">ipso</text></g></g></g><g class="vf-stavenote" id="vf-auto19448"><g class="vf-notehead" id="vf-auto19452" pointer-events="bounding-box"><path stroke="none" d="M376.295 101.685C376.295 103.426,377.559 105.391,380.816 105.391C385.028 105.391,389.437 101.938,389.437 98.371C389.437 95.985,387.415 94.665,384.916 94.665C380.985 94.665,376.295 97.978,376.295 101.685"/><g class="vf-annotation" id="vf-auto19454"><text stroke="none" font-family="Times New Roman, serif" font-size="12pt" x="369.53" y="144.516">ipso</text></g></g></g><g class="vf-stavenote" id="vf-auto19455"><g class="vf-notehead" id="vf-auto19459" pointer-events="bounding-box"><path stroke="none" d="M421.284 101.685C421.284 103.426,422.547 105.391,425.804 105.391C430.016 105.391,434.425 101.938,434.425 98.371C434.425 95.985,432.403 94.665,429.904 94.665C425.973 94.665,421.284 97.978,421.284 101.685"/><g class="vf-annotation" id="vf-auto19461"><text stroke="none" font-family="Times New Roman, serif" font-size="12pt" x="414.518" y="144.516">ipso</text></g></g></g><g class="vf-stavenote" id="vf-auto19462"><g class="vf-stem" id="vf-auto19463" pointer-events="bounding-box"><path stroke-width="1.5" fill="none" d="M481.784 98L481.784 65"/></g><g class="vf-notehead" id="vf-auto19465" pointer-events="bounding-box"><path stroke="none" d="M469.392 101.685C469.392 103.426,470.656 105.391,473.913 105.391C478.125 105.391,482.534 101.938,482.534 98.371C482.534 95.985,480.512 94.665,478.013 94.665C474.082 94.665,469.392 97.978,469.392 101.685"/><g class="vf-annotation" id="vf-auto19466"><text stroke="none" font-family="Times New Roman, serif" font-size="12pt" x="469.74" y="144.516">ip</text></g></g></g><g class="vf-stavenote" id="vf-auto19467"><g class="vf-stem" id="vf-auto19468" pointer-events="bounding-box"><path stroke-width="1.5" fill="none" d="M536.797 98L536.797 68"/></g><g class="vf-notehead" id="vf-auto19471" pointer-events="bounding-box"><path stroke="none" d="M524.406 101.685C524.406 103.426,525.67 105.391,528.927 105.391C533.139 105.391,537.547 101.938,537.547 98.371C537.547 95.985,535.526 94.665,533.026 94.665C529.095 94.665,524.406 97.978,524.406 101.685"/><g class="vf-annotation" id="vf-auto19473"><text stroke="none" font-family="Times New Roman, serif" font-size="12pt" x="517.641" y="144.516">ipso</text></g></g><path stroke="none" d="M536.047 72.182C536.047 72.294,536.075 72.491,536.384 72.631C538.097 73.193,541.579 75.383,544.219 79.848C544.949 81.112,546.128 82.853,546.128 86.222C546.128 89.114,545.342 92.119,544.303 95.011C544.219 95.264,544.134 95.46,544.162 95.629C544.162 95.797,544.219 95.91,544.387 95.994C544.471 96.022,544.528 96.022,544.584 96.022C544.864 96.022,545.061 95.882,545.23 95.601C547.139 92.231,547.785 87.935,547.729 85.408C547.729 85.211,547.729 85.071,547.729 84.902C547.532 79.708,544.528 75.861,544.528 75.861C544.668 75.861,540.821 70.89,539.726 69.178C538.238 66.875,537.536 64.572,537.451 64.404C537.423 64.292,537.058 62.832,537.058 62.832C537.03 62.663,536.806 62.523,536.581 62.523C536.3 62.523,536.047 62.747,536.047 63.028"/></g><g class="vf-stem" id="vf-auto19397" pointer-events="bounding-box"><path stroke-width="1.5" fill="none" d="M48.157 98L48.157 65.75"/></g><g class="vf-stem" id="vf-auto19405" pointer-events="bounding-box"><path stroke-width="1.5" fill="none" d="M99.602 98L99.602 65.75"/></g><g class="vf-stem" id="vf-auto19412" pointer-events="bounding-box"><path stroke-width="1.5" fill="none" d="M144.59 98L144.59 65.75"/></g><g class="vf-beam" id="vf-auto19474"><path stroke="none" d="M47.407 65L47.407 70L144.84 70L144.84 65Z"/><path stroke="none" d="M98.852 72.5L98.852 77.5L89.852 77.5L89.852 72.5Z"/></g><g class="vf-stem" id="vf-auto19419" pointer-events="bounding-box"><path stroke-width="1.5" fill="none" d="M192.699 98L192.699 65.75"/></g><g class="vf-stem" id="vf-auto19427" pointer-events="bounding-box"><path stroke-width="1.5" fill="none" d="M244.144 98L244.144 65.75"/></g><g class="vf-stem" id="vf-auto19434" pointer-events="bounding-box"><path stroke-width="1.5" fill="none" d="M289.133 98L289.133 65.75"/></g><g class="vf-beam" id="vf-auto19475"><path stroke="none" d="M191.949 65L191.949 70L289.383 70L289.383 65Z"/><path stroke="none" d="M243.394 72.5L243.394 77.5L234.394 77.5L234.394 72.5Z"/></g><g class="vf-stem" id="vf-auto19441" pointer-events="bounding-box"><path stroke-width="1.5" fill="none" d="M337.241 98L337.241 65.75"/></g><g class="vf-stem" id="vf-auto19449" pointer-events="bounding-box"><path stroke-width="1.5" fill="none" d="M388.687 98L388.687 65.75"/></g><g class="vf-stem" id="vf-auto19456" pointer-events="bounding-box"><path stroke-width="1.5" fill="none" d="M433.675 98L433.675 65.75"/></g><g class="vf-beam" id="vf-auto19476"><path stroke="none" d="M336.491 65L336.491 70L433.925 70L433.925 65Z"/><path stroke="none" d="M387.937 72.5L387.937 77.5L378.937 77.5L378.937 72.5Z"/></g><text stroke="none" x="100" y="180">550px,softmax:5,different word order</text><g class="vf-stave" id="vf-auto19478" stroke-width="1" fill="#999999" stroke="#999999"><path fill="none" d="M10 220L560 220"/><path fill="none" d="M10 230L560 230"/><path fill="none" d="M10 240L560 240"/><path fill="none" d="M10 250L560 250"/><path fill="none" d="M10 260L560 260"/></g><g class="vf-stavebarline" id="vf-auto19479"><rect x="10" y="219.5" width="1" height="41" stroke="none"/></g><g class="vf-stavebarline" id="vf-auto19480"><rect x="560" y="219.5" width="1" height="41" stroke="none"/></g><g class="vf-stavenote" id="vf-auto19481"><g class="vf-notehead" id="vf-auto19485" pointer-events="bounding-box"><path stroke="none" d="M35.765 241.685C35.765 243.426,37.029 245.391,40.286 245.391C44.498 245.391,48.907 241.938,48.907 238.371C48.907 235.985,46.885 234.665,44.386 234.665C40.455 234.665,35.765 237.978,35.765 241.685"/><path stroke="none" d="M55.907 235 A2 2 0 0 0 51.907 235 A2 2 0 0 0 55.907 235"/><g class="vf-annotation" id="vf-auto19488"><text stroke="none" font-family="Times New Roman, serif" font-size="12pt" x="29" y="284.516">ipso</text></g></g></g><g class="vf-stavenote" id="vf-auto19489"><g class="vf-notehead" id="vf-auto19493" pointer-events="bounding-box"><path stroke="none" d="M87.211 241.685C87.211 243.426,88.474 245.391,91.732 245.391C95.944 245.391,100.352 241.938,100.352 238.371C100.352 235.985,98.33 234.665,95.831 234.665C91.9 234.665,87.211 237.978,87.211 241.685"/><g class="vf-annotation" id="vf-auto19495"><text stroke="none" font-family="Times New Roman, serif" font-size="12pt" x="77.781" y="284.516">ipso-</text></g></g></g><g class="vf-stavenote" id="vf-auto19496"><g class="vf-notehead" id="vf-auto19500" pointer-events="bounding-box"><path stroke="none" d="M132.199 241.685C132.199 243.426,133.463 245.391,136.72 245.391C140.932 245.391,145.34 241.938,145.34 238.371C145.34 235.985,143.319 234.665,140.819 234.665C136.888 234.665,132.199 237.978,132.199 241.685"/><g class="vf-annotation" id="vf-auto19502"><text stroke="none" font-family="Times New Roman, serif" font-size="12pt" x="121.883" y="284.516">ipsoz</text></g></g></g><g class="vf-stavenote" id="vf-auto19503"><g class="vf-notehead" id="vf-auto19507" pointer-events="bounding-box"><path stroke="none" d="M180.308 241.685C180.308 243.426,181.571 245.391,184.828 245.391C189.04 245.391,193.449 241.938,193.449 238.371C193.449 235.985,191.427 234.665,188.928 234.665C184.997 234.665,180.308 237.978,180.308 241.685"/><path stroke="none" d="M200.449 235 A2 2 0 0 0 196.449 235 A2 2 0 0 0 200.449 235"/><g class="vf-annotation" id="vf-auto19510"><text stroke="none" font-family="Times New Roman, serif" font-size="12pt" x="173.542" y="284.516">ipso</text></g></g></g><g class="vf-stavenote" id="vf-auto19511"><g class="vf-notehead" id="vf-auto19515" pointer-events="bounding-box"><path stroke="none" d="M231.753 241.685C231.753 243.426,233.017 245.391,236.274 245.391C240.486 245.391,244.894 241.938,244.894 238.371C244.894 235.985,242.873 234.665,240.374 234.665C236.442 234.665,231.753 237.978,231.753 241.685"/><g class="vf-annotation" id="vf-auto19517"><text stroke="none" font-family="Times New Roman, serif" font-size="12pt" x="224.988" y="284.516">ipso</text></g></g></g><g class="vf-stavenote" id="vf-auto19518"><g class="vf-notehead" id="vf-auto19522" pointer-events="bounding-box"><path stroke="none" d="M276.741 241.685C276.741 243.426,278.005 245.391,281.262 245.391C285.474 245.391,289.883 241.938,289.883 238.371C289.883 235.985,287.861 234.665,285.362 234.665C281.431 234.665,276.741 237.978,276.741 241.685"/><g class="vf-annotation" id="vf-auto19524"><text stroke="none" font-family="Times New Roman, serif" font-size="12pt" x="267.312" y="284.516">ipso-</text></g></g></g><g class="vf-stavenote" id="vf-auto19525"><g class="vf-notehead" id="vf-auto19529" pointer-events="bounding-box"><path stroke="none" d="M324.85 241.685C324.85 243.426,326.114 245.391,329.371 245.391C333.583 245.391,337.991 241.938,337.991 238.371C337.991 235.985,335.97 234.665,333.47 234.665C329.539 234.665,324.85 237.978,324.85 241.685"/><path stroke="none" d="M344.991 235 A2 2 0 0 0 340.991 235 A2 2 0 0 0 344.991 235"/><g class="vf-annotation" id="vf-auto19532"><text stroke="none" font-family="Times New Roman, serif" font-size="12pt" x="318.085" y="284.516">ipso</text></g></g></g><g class="vf-stavenote" id="vf-auto19533"><g class="vf-notehead" id="vf-auto19537" pointer-events="bounding-box"><path stroke="none" d="M376.295 241.685C376.295 243.426,377.559 245.391,380.816 245.391C385.028 245.391,389.437 241.938,389.437 238.371C389.437 235.985,387.415 234.665,384.916 234.665C380.985 234.665,376.295 237.978,376.295 241.685"/><g class="vf-annotation" id="vf-auto19539"><text stroke="none" font-family="Times New Roman, serif" font-size="12pt" x="369.53" y="284.516">ipso</text></g></g></g><g class="vf-stavenote" id="vf-auto19540"><g class="vf-notehead" id="vf-auto19544" pointer-events="bounding-box"><path stroke="none" d="M421.284 241.685C421.284 243.426,422.547 245.391,425.804 245.391C430.016 245.391,434.425 241.938,434.425 238.371C434.425 235.985,432.403 234.665,429.904 234.665C425.973 234.665,421.284 237.978,421.284 241.685"/><g class="vf-annotation" id="vf-auto19546"><text stroke="none" font-family="Times New Roman, serif" font-size="12pt" x="414.518" y="284.516">ipso</text></g></g></g><g class="vf-stavenote" id="vf-auto19547"><g class="vf-stem" id="vf-auto19548" pointer-events="bounding-box"><path stroke-width="1.5" fill="none" d="M481.784 238L481.784 205"/></g><g class="vf-notehead" id="vf-auto19550" pointer-events="bounding-box"><path stroke="none" d="M469.392 241.685C469.392 243.426,470.656 245.391,473.913 245.391C478.125 245.391,482.534 241.938,482.534 238.371C482.534 235.985,480.512 234.665,478.013 234.665C474.082 234.665,469.392 237.978,469.392 241.685"/><g class="vf-annotation" id="vf-auto19551"><text stroke="none" font-family="Times New Roman, serif" font-size="12pt" x="469.74" y="284.516">ip</text></g></g></g><g class="vf-stavenote" id="vf-auto19552"><g class="vf-stem" id="vf-auto19553" pointer-events="bounding-box"><path stroke-width="1.5" fill="none" d="M536.797 238L536.797 208"/></g><g class="vf-notehead" id="vf-auto19556" pointer-events="bounding-box"><path stroke="none" d="M524.406 241.685C524.406 243.426,525.67 245.391,528.927 245.391C533.139 245.391,537.547 241.938,537.547 238.371C537.547 235.985,535.526 234.665,533.026 234.665C529.095 234.665,524.406 237.978,524.406 241.685"/><g class="vf-annotation" id="vf-auto19558"><text stroke="none" font-family="Times New Roman, serif" font-size="12pt" x="517.641" y="284.516">ipso</text></g></g><path stroke="none" d="M536.047 212.182C536.047 212.294,536.075 212.491,536.384 212.631C538.097 213.193,541.579 215.383,544.219 219.848C544.949 221.112,546.128 222.853,546.128 226.222C546.128 229.114,545.342 232.119,544.303 235.011C544.219 235.264,544.134 235.46,544.162 235.629C544.162 235.797,544.219 235.91,544.387 235.994C544.471 236.022,544.528 236.022,544.584 236.022C544.864 236.022,545.061 235.882,545.23 235.601C547.139 232.231,547.785 227.935,547.729 225.408C547.729 225.211,547.729 225.071,547.729 224.902C547.532 219.708,544.528 215.861,544.528 215.861C544.668 215.861,540.821 210.89,539.726 209.178C538.238 206.875,537.536 204.572,537.451 204.404C537.423 204.292,537.058 202.832,537.058 202.832C537.03 202.663,536.806 202.523,536.581 202.523C536.3 202.523,536.047 202.747,536.047 203.028"/></g><g class="vf-stem" id="vf-auto19397" pointer-events="bounding-box"><path stroke-width="1.5" fill="none" d="M48.157 98L48.157 65.75"/></g><g class="vf-stem" id="vf-auto19405" pointer-events="bounding-box"><path stroke-width="1.5" fill="none" d="M99.602 98L99.602 65.75"/></g><g class="vf-stem" id="vf-auto19412" pointer-events="bounding-box"><path stroke-width="1.5" fill="none" d="M144.59 98L144.59 65.75"/></g><g class="vf-beam" id="vf-auto19474"><path stroke="none" d="M47.407 65L47.407 70L144.84 70L144.84 65Z"/><path stroke="none" d="M98.852 72.5L98.852 77.5L89.852 77.5L89.852 72.5Z"/></g><g class="vf-stem" id="vf-auto19419" pointer-events="bounding-box"><path stroke-width="1.5" fill="none" d="M192.699 98L192.699 65.75"/></g><g class="vf-stem" id="vf-auto19427" pointer-events="bounding-box"><path stroke-width="1.5" fill="none" d="M244.144 98L244.144 65.75"/></g><g class="vf-stem" id="vf-auto19434" pointer-events="bounding-box"><path stroke-width="1.5" fill="none" d="M289.133 98L289.133 65.75"/></g><g class="vf-beam" id="vf-auto19475"><path stroke="none" d="M191.949 65L191.949 70L289.383 70L289.383 65Z"/><path stroke="none" d="M243.394 72.5L243.394 77.5L234.394 77.5L234.394 72.5Z"/></g><g class="vf-stem" id="vf-auto19441" pointer-events="bounding-box"><path stroke-width="1.5" fill="none" d="M337.241 98L337.241 65.75"/></g><g class="vf-stem" id="vf-auto19449" pointer-events="bounding-box"><path stroke-width="1.5" fill="none" d="M388.687 98L388.687 65.75"/></g><g class="vf-stem" id="vf-auto19456" pointer-events="bounding-box"><path stroke-width="1.5" fill="none" d="M433.675 98L433.675 65.75"/></g><g class="vf-beam" id="vf-auto19476"><path stroke="none" d="M336.491 65L336.491 70L433.925 70L433.925 65Z"/><path stroke="none" d="M387.937 72.5L387.937 77.5L378.937 77.5L378.937 72.5Z"/></g><g class="vf-stem" id="vf-auto19482" pointer-events="bounding-box"><path stroke-width="1.5" fill="none" d="M48.157 238L48.157 205.75"/></g><g class="vf-stem" id="vf-auto19490" pointer-events="bounding-box"><path stroke-width="1.5" fill="none" d="M99.602 238L99.602 205.75"/></g><g class="vf-stem" id="vf-auto19497" pointer-events="bounding-box"><path stroke-width="1.5" fill="none" d="M144.59 238L144.59 205.75"/></g><g class="vf-beam" id="vf-auto19559"><path stroke="none" d="M47.407 205L47.407 210L144.84 210L144.84 205Z"/><path stroke="none" d="M98.852 212.5L98.852 217.5L89.852 217.5L89.852 212.5Z"/></g><g class="vf-stem" id="vf-auto19504" pointer-events="bounding-box"><path stroke-width="1.5" fill="none" d="M192.699 238L192.699 205.75"/></g><g class="vf-stem" id="vf-auto19512" pointer-events="bounding-box"><path stroke-width="1.5" fill="none" d="M244.144 238L244.144 205.75"/></g><g class="vf-stem" id="vf-auto19519" pointer-events="bounding-box"><path stroke-width="1.5" fill="none" d="M289.133 238L289.133 205.75"/></g><g class="vf-beam" id="vf-auto19560"><path stroke="none" d="M191.949 205L191.949 210L289.383 210L289.383 205Z"/><path stroke="none" d="M243.394 212.5L243.394 217.5L234.394 217.5L234.394 212.5Z"/></g><g class="vf-stem" id="vf-auto19526" pointer-events="bounding-box"><path stroke-width="1.5" fill="none" d="M337.241 238L337.241 205.75"/></g><g class="vf-stem" id="vf-auto19534" pointer-events="bounding-box"><path stroke-width="1.5" fill="none" d="M388.687 238L388.687 205.75"/></g><g class="vf-stem" id="vf-auto19541" pointer-events="bounding-box"><path stroke-width="1.5" fill="none" d="M433.675 238L433.675 205.75"/></g><g class="vf-beam" id="vf-auto19561"><path stroke="none" d="M336.491 205L336.491 210L433.925 210L433.925 205Z"/><path stroke="none" d="M387.937 212.5L387.937 217.5L378.937 217.5L378.937 212.5Z"/></g><text stroke="none" x="100" y="320">550px,softmax:10</text><g class="vf-stave" id="vf-auto19563" stroke-width="1" fill="#999999" stroke="#999999"><path fill="none" d="M10 360L560 360"/><path fill="none" d="M10 370L560 370"/><path fill="none" d="M10 380L560 380"/><path fill="none" d="M10 390L560 390"/><path fill="none" d="M10 400L560 400"/></g><g class="vf-stavebarline" id="vf-auto19564"><rect x="10" y="359.5" width="1" height="41" stroke="none"/></g><g class="vf-stavebarline" id="vf-auto19565"><rect x="560" y="359.5" width="1" height="41" stroke="none"/></g><g class="vf-stavenote" id="vf-auto19566"><g class="vf-notehead" id="vf-auto19570" pointer-events="bounding-box"><path stroke="none" d="M35.765 381.685C35.765 383.426,37.029 385.391,40.286 385.391C44.498 385.391,48.907 381.938,48.907 378.371C48.907 375.985,46.885 374.665,44.386 374.665C40.455 374.665,35.765 377.978,35.765 381.685"/><path stroke="none" d="M55.907 375 A2 2 0 0 0 51.907 375 A2 2 0 0 0 55.907 375"/><g class="vf-annotation" id="vf-auto19573"><text stroke="none" font-family="Times New Roman, serif" font-size="12pt" x="29" y="424.516">ipso</text></g></g></g><g class="vf-stavenote" id="vf-auto19574"><g class="vf-notehead" id="vf-auto19578" pointer-events="bounding-box"><path stroke="none" d="M88.299 381.685C88.299 383.426,89.563 385.391,92.82 385.391C97.032 385.391,101.441 381.938,101.441 378.371C101.441 375.985,99.419 374.665,96.92 374.665C92.989 374.665,88.299 377.978,88.299 381.685"/><g class="vf-annotation" id="vf-auto19580"><text stroke="none" font-family="Times New Roman, serif" font-size="12pt" x="78.87" y="424.516">ipso-</text></g></g></g><g class="vf-stavenote" id="vf-auto19581"><g class="vf-notehead" id="vf-auto19585" pointer-events="bounding-box"><path stroke="none" d="M131.661 381.685C131.661 383.426,132.925 385.391,136.182 385.391C140.394 385.391,144.802 381.938,144.802 378.371C144.802 375.985,142.781 374.665,140.282 374.665C136.35 374.665,131.661 377.978,131.661 381.685"/><g class="vf-annotation" id="vf-auto19587"><text stroke="none" font-family="Times New Roman, serif" font-size="12pt" x="121.345" y="424.516">ipsoz</text></g></g></g><g class="vf-stavenote" id="vf-auto19588"><g class="vf-notehead" id="vf-auto19592" pointer-events="bounding-box"><path stroke="none" d="M179.389 381.685C179.389 383.426,180.653 385.391,183.91 385.391C188.122 385.391,192.531 381.938,192.531 378.371C192.531 375.985,190.509 374.665,188.01 374.665C184.078 374.665,179.389 377.978,179.389 381.685"/><path stroke="none" d="M199.531 375 A2 2 0 0 0 195.531 375 A2 2 0 0 0 199.531 375"/><g class="vf-annotation" id="vf-auto19595"><text stroke="none" font-family="Times New Roman, serif" font-size="12pt" x="172.624" y="424.516">ipso</text></g></g></g><g class="vf-stavenote" id="vf-auto19596"><g class="vf-notehead" id="vf-auto19600" pointer-events="bounding-box"><path stroke="none" d="M231.923 381.685C231.923 383.426,233.187 385.391,236.444 385.391C240.656 385.391,245.065 381.938,245.065 378.371C245.065 375.985,243.043 374.665,240.544 374.665C236.612 374.665,231.923 377.978,231.923 381.685"/><g class="vf-annotation" id="vf-auto19602"><text stroke="none" font-family="Times New Roman, serif" font-size="12pt" x="225.158" y="424.516">ipso</text></g></g></g><g class="vf-stavenote" id="vf-auto19603"><g class="vf-notehead" id="vf-auto19607" pointer-events="bounding-box"><path stroke="none" d="M275.285 381.685C275.285 383.426,276.549 385.391,279.806 385.391C284.018 385.391,288.426 381.938,288.426 378.371C288.426 375.985,286.405 374.665,283.905 374.665C279.974 374.665,275.285 377.978,275.285 381.685"/><g class="vf-annotation" id="vf-auto19609"><text stroke="none" font-family="Times New Roman, serif" font-size="12pt" x="265.856" y="424.516">ipso-</text></g></g></g><g class="vf-stavenote" id="vf-auto19610"><g class="vf-notehead" id="vf-auto19614" pointer-events="bounding-box"><path stroke="none" d="M323.013 381.685C323.013 383.426,324.277 385.391,327.534 385.391C331.746 385.391,336.154 381.938,336.154 378.371C336.154 375.985,334.133 374.665,331.634 374.665C327.702 374.665,323.013 377.978,323.013 381.685"/><path stroke="none" d="M343.154 375 A2 2 0 0 0 339.154 375 A2 2 0 0 0 343.154 375"/><g class="vf-annotation" id="vf-auto19617"><text stroke="none" font-family="Times New Roman, serif" font-size="12pt" x="316.248" y="424.516">ipso</text></g></g></g><g class="vf-stavenote" id="vf-auto19618"><g class="vf-notehead" id="vf-auto19622" pointer-events="bounding-box"><path stroke="none" d="M375.547 381.685C375.547 383.426,376.811 385.391,380.068 385.391C384.28 385.391,388.688 381.938,388.688 378.371C388.688 375.985,386.667 374.665,384.168 374.665C380.236 374.665,375.547 377.978,375.547 381.685"/><g class="vf-annotation" id="vf-auto19624"><text stroke="none" font-family="Times New Roman, serif" font-size="12pt" x="368.782" y="424.516">ipso</text></g></g></g><g class="vf-stavenote" id="vf-auto19625"><g class="vf-notehead" id="vf-auto19629" pointer-events="bounding-box"><path stroke="none" d="M418.909 381.685C418.909 383.426,420.172 385.391,423.43 385.391C427.642 385.391,432.05 381.938,432.05 378.371C432.05 375.985,430.029 374.665,427.529 374.665C423.598 374.665,418.909 377.978,418.909 381.685"/><g class="vf-annotation" id="vf-auto19631"><text stroke="none" font-family="Times New Roman, serif" font-size="12pt" x="412.144" y="424.516">ipso</text></g></g></g><g class="vf-stavenote" id="vf-auto19632"><g class="vf-stem" id="vf-auto19633" pointer-events="bounding-box"><path stroke-width="1.5" fill="none" d="M479.028 378L479.028 345"/></g><g class="vf-notehead" id="vf-auto19635" pointer-events="bounding-box"><path stroke="none" d="M466.637 381.685C466.637 383.426,467.901 385.391,471.158 385.391C475.37 385.391,479.778 381.938,479.778 378.371C479.778 375.985,477.757 374.665,475.257 374.665C471.326 374.665,466.637 377.978,466.637 381.685"/><g class="vf-annotation" id="vf-auto19636"><text stroke="none" font-family="Times New Roman, serif" font-size="12pt" x="466.985" y="424.516">ip</text></g></g></g><g class="vf-stavenote" id="vf-auto19637"><g class="vf-stem" id="vf-auto19638" pointer-events="bounding-box"><path stroke-width="1.5" fill="none" d="M536.852 378L536.852 348"/></g><g class="vf-notehead" id="vf-auto19641" pointer-events="bounding-box"><path stroke="none" d="M524.461 381.685C524.461 383.426,525.724 385.391,528.982 385.391C533.194 385.391,537.602 381.938,537.602 378.371C537.602 375.985,535.58 374.665,533.081 374.665C529.15 374.665,524.461 377.978,524.461 381.685"/><g class="vf-annotation" id="vf-auto19643"><text stroke="none" font-family="Times New Roman, serif" font-size="12pt" x="517.696" y="424.516">ipso</text></g></g><path stroke="none" d="M536.102 352.182C536.102 352.294,536.13 352.491,536.439 352.631C538.152 353.193,541.634 355.383,544.274 359.848C545.004 361.112,546.183 362.853,546.183 366.222C546.183 369.114,545.397 372.119,544.358 375.011C544.274 375.264,544.189 375.46,544.217 375.629C544.217 375.797,544.274 375.91,544.442 375.994C544.526 376.022,544.582 376.022,544.639 376.022C544.919 376.022,545.116 375.882,545.284 375.601C547.194 372.231,547.84 367.935,547.784 365.408C547.784 365.211,547.784 365.071,547.784 364.902C547.587 359.708,544.582 355.861,544.582 355.861C544.723 355.861,540.876 350.89,539.781 349.178C538.292 346.875,537.59 344.572,537.506 344.404C537.478 344.292,537.113 342.832,537.113 342.832C537.085 342.663,536.86 342.523,536.636 342.523C536.355 342.523,536.102 342.747,536.102 343.028"/></g><g class="vf-stem" id="vf-auto19397" pointer-events="bounding-box"><path stroke-width="1.5" fill="none" d="M48.157 98L48.157 65.75"/></g><g class="vf-stem" id="vf-auto19405" pointer-events="bounding-box"><path stroke-width="1.5" fill="none" d="M99.602 98L99.602 65.75"/></g><g class="vf-stem" id="vf-auto19412" pointer-events="bounding-box"><path stroke-width="1.5" fill="none" d="M144.59 98L144.59 65.75"/></g><g class="vf-beam" id="vf-auto19474"><path stroke="none" d="M47.407 65L47.407 70L144.84 70L144.84 65Z"/><path stroke="none" d="M98.852 72.5L98.852 77.5L89.852 77.5L89.852 72.5Z"/></g><g class="vf-stem" id="vf-auto19419" pointer-events="bounding-box"><path stroke-width="1.5" fill="none" d="M192.699 98L192.699 65.75"/></g><g class="vf-stem" id="vf-auto19427" pointer-events="bounding-box"><path stroke-width="1.5" fill="none" d="M244.144 98L244.144 65.75"/></g><g class="vf-stem" id="vf-auto19434" pointer-events="bounding-box"><path stroke-width="1.5" fill="none" d="M289.133 98L289.133 65.75"/></g><g class="vf-beam" id="vf-auto19475"><path stroke="none" d="M191.949 65L191.949 70L289.383 70L289.383 65Z"/><path stroke="none" d="M243.394 72.5L243.394 77.5L234.394 77.5L234.394 72.5Z"/></g><g class="vf-stem" id="vf-auto19441" pointer-events="bounding-box"><path stroke-width="1.5" fill="none" d="M337.241 98L337.241 65.75"/></g><g class="vf-stem" id="vf-auto19449" pointer-events="bounding-box"><path stroke-width="1.5" fill="none" d="M388.687 98L388.687 65.75"/></g><g class="vf-stem" id="vf-auto19456" pointer-events="bounding-box"><path stroke-width="1.5" fill="none" d="M433.675 98L433.675 65.75"/></g><g class="vf-beam" id="vf-auto19476"><path stroke="none" d="M336.491 65L336.491 70L433.925 70L433.925 65Z"/><path stroke="none" d="M387.937 72.5L387.937 77.5L378.937 77.5L378.937 72.5Z"/></g><g class="vf-stem" id="vf-auto19482" pointer-events="bounding-box"><path stroke-width="1.5" fill="none" d="M48.157 238L48.157 205.75"/></g><g class="vf-stem" id="vf-auto19490" pointer-events="bounding-box"><path stroke-width="1.5" fill="none" d="M99.602 238L99.602 205.75"/></g><g class="vf-stem" id="vf-auto19497" pointer-events="bounding-box"><path stroke-width="1.5" fill="none" d="M144.59 238L144.59 205.75"/></g><g class="vf-beam" id="vf-auto19559"><path stroke="none" d="M47.407 205L47.407 210L144.84 210L144.84 205Z"/><path stroke="none" d="M98.852 212.5L98.852 217.5L89.852 217.5L89.852 212.5Z"/></g><g class="vf-stem" id="vf-auto19504" pointer-events="bounding-box"><path stroke-width="1.5" fill="none" d="M192.699 238L192.699 205.75"/></g><g class="vf-stem" id="vf-auto19512" pointer-events="bounding-box"><path stroke-width="1.5" fill="none" d="M244.144 238L244.144 205.75"/></g><g class="vf-stem" id="vf-auto19519" pointer-events="bounding-box"><path stroke-width="1.5" fill="none" d="M289.133 238L289.133 205.75"/></g><g class="vf-beam" id="vf-auto19560"><path stroke="none" d="M191.949 205L191.949 210L289.383 210L289.383 205Z"/><path stroke="none" d="M243.394 212.5L243.394 217.5L234.394 217.5L234.394 212.5Z"/></g><g class="vf-stem" id="vf-auto19526" pointer-events="bounding-box"><path stroke-width="1.5" fill="none" d="M337.241 238L337.241 205.75"/></g><g class="vf-stem" id="vf-auto19534" pointer-events="bounding-box"><path stroke-width="1.5" fill="none" d="M388.687 238L388.687 205.75"/></g><g class="vf-stem" id="vf-auto19541" pointer-events="bounding-box"><path stroke-width="1.5" fill="none" d="M433.675 238L433.675 205.75"/></g><g class="vf-beam" id="vf-auto19561"><path stroke="none" d="M336.491 205L336.491 210L433.925 210L433.925 205Z"/><path stroke="none" d="M387.937 212.5L387.937 217.5L378.937 217.5L378.937 212.5Z"/></g><g class="vf-stem" id="vf-auto19567" pointer-events="bounding-box"><path stroke-width="1.5" fill="none" d="M48.157 378L48.157 345.75"/></g><g class="vf-stem" id="vf-auto19575" pointer-events="bounding-box"><path stroke-width="1.5" fill="none" d="M100.691 378L100.691 345.75"/></g><g class="vf-stem" id="vf-auto19582" pointer-events="bounding-box"><path stroke-width="1.5" fill="none" d="M144.052 378L144.052 345.75"/></g><g class="vf-beam" id="vf-auto19644"><path stroke="none" d="M47.407 345L47.407 350L144.302 350L144.302 345Z"/><path stroke="none" d="M99.941 352.5L99.941 357.5L90.941 357.5L90.941 352.5Z"/></g><g class="vf-stem" id="vf-auto19589" pointer-events="bounding-box"><path stroke-width="1.5" fill="none" d="M191.781 378L191.781 345.75"/></g><g class="vf-stem" id="vf-auto19597" pointer-events="bounding-box"><path stroke-width="1.5" fill="none" d="M244.315 378L244.315 345.75"/></g><g class="vf-stem" id="vf-auto19604" pointer-events="bounding-box"><path stroke-width="1.5" fill="none" d="M287.676 378L287.676 345.75"/></g><g class="vf-beam" id="vf-auto19645"><path stroke="none" d="M191.031 345L191.031 350L287.926 350L287.926 345Z"/><path stroke="none" d="M243.565 352.5L243.565 357.5L234.565 357.5L234.565 352.5Z"/></g><g class="vf-stem" id="vf-auto19611" pointer-events="bounding-box"><path stroke-width="1.5" fill="none" d="M335.404 378L335.404 345.75"/></g><g class="vf-stem" id="vf-auto19619" pointer-events="bounding-box"><path stroke-width="1.5" fill="none" d="M387.938 378L387.938 345.75"/></g><g class="vf-stem" id="vf-auto19626" pointer-events="bounding-box"><path stroke-width="1.5" fill="none" d="M431.3 378L431.3 345.75"/></g><g class="vf-beam" id="vf-auto19646"><path stroke="none" d="M334.654 345L334.654 350L431.55 350L431.55 345Z"/><path stroke="none" d="M387.188 352.5L387.188 357.5L378.188 357.5L378.188 352.5Z"/></g><text stroke="none" x="100" y="460">550px,softmax:15</text><g class="vf-stave" id="vf-auto19648" stroke-width="1" fill="#999999" stroke="#999999"><path fill="none" d="M10 500L560 500"/><path fill="none" d="M10 510L560 510"/><path fill="none" d="M10 520L560 520"/><path fill="none" d="M10 530L560 530"/><path fill="none" d="M10 540L560 540"/></g><g class="vf-stavebarline" id="vf-auto19649"><rect x="10" y="499.5" width="1" height="41" stroke="none"/></g><g class="vf-stavebarline" id="vf-auto19650"><rect x="560" y="499.5" width="1" height="41" stroke="none"/></g><g class="vf-stavenote" id="vf-auto19651"><g class="vf-notehead" id="vf-auto19655" pointer-events="bounding-box"><path stroke="none" d="M35.765 521.685C35.765 523.426,37.029 525.391,40.286 525.391C44.498 525.391,48.907 521.938,48.907 518.371C48.907 515.985,46.885 514.665,44.386 514.665C40.455 514.665,35.765 517.978,35.765 521.685"/><path stroke="none" d="M55.907 515 A2 2 0 0 0 51.907 515 A2 2 0 0 0 55.907 515"/><g class="vf-annotation" id="vf-auto19658"><text stroke="none" font-family="Times New Roman, serif" font-size="12pt" x="29" y="564.516">ipso</text></g></g></g><g class="vf-stavenote" id="vf-auto19659"><g class="vf-notehead" id="vf-auto19663" pointer-events="bounding-box"><path stroke="none" d="M88.927 521.685C88.927 523.426,90.19 525.391,93.448 525.391C97.66 525.391,102.068 521.938,102.068 518.371C102.068 515.985,100.047 514.665,97.547 514.665C93.616 514.665,88.927 517.978,88.927 521.685"/><g class="vf-annotation" id="vf-auto19665"><text stroke="none" font-family="Times New Roman, serif" font-size="12pt" x="79.498" y="564.516">ipso-</text></g></g></g><g class="vf-stavenote" id="vf-auto19666"><g class="vf-notehead" id="vf-auto19670" pointer-events="bounding-box"><path stroke="none" d="M131.349 521.685C131.349 523.426,132.612 525.391,135.87 525.391C140.082 525.391,144.49 521.938,144.49 518.371C144.49 515.985,142.468 514.665,139.969 514.665C136.038 514.665,131.349 517.978,131.349 521.685"/><g class="vf-annotation" id="vf-auto19672"><text stroke="none" font-family="Times New Roman, serif" font-size="12pt" x="121.033" y="564.516">ipsoz</text></g></g></g><g class="vf-stavenote" id="vf-auto19673"><g class="vf-notehead" id="vf-auto19677" pointer-events="bounding-box"><path stroke="none" d="M178.838 521.685C178.838 523.426,180.102 525.391,183.359 525.391C187.571 525.391,191.979 521.938,191.979 518.371C191.979 515.985,189.958 514.665,187.459 514.665C183.527 514.665,178.838 517.978,178.838 521.685"/><path stroke="none" d="M198.979 515 A2 2 0 0 0 194.979 515 A2 2 0 0 0 198.979 515"/><g class="vf-annotation" id="vf-auto19680"><text stroke="none" font-family="Times New Roman, serif" font-size="12pt" x="172.073" y="564.516">ipso</text></g></g></g><g class="vf-stavenote" id="vf-auto19681"><g class="vf-notehead" id="vf-auto19685" pointer-events="bounding-box"><path stroke="none" d="M232 521.685C232 523.426,233.263 525.391,236.52 525.391C240.732 525.391,245.141 521.938,245.141 518.371C245.141 515.985,243.119 514.665,240.62 514.665C236.689 514.665,232 517.978,232 521.685"/><g class="vf-annotation" id="vf-auto19687"><text stroke="none" font-family="Times New Roman, serif" font-size="12pt" x="225.234" y="564.516">ipso</text></g></g></g><g class="vf-stavenote" id="vf-auto19688"><g class="vf-notehead" id="vf-auto19692" pointer-events="bounding-box"><path stroke="none" d="M274.422 521.685C274.422 523.426,275.685 525.391,278.942 525.391C283.154 525.391,287.563 521.938,287.563 518.371C287.563 515.985,285.541 514.665,283.042 514.665C279.111 514.665,274.422 517.978,274.422 521.685"/><g class="vf-annotation" id="vf-auto19694"><text stroke="none" font-family="Times New Roman, serif" font-size="12pt" x="264.992" y="564.516">ipso-</text></g></g></g><g class="vf-stavenote" id="vf-auto19695"><g class="vf-notehead" id="vf-auto19699" pointer-events="bounding-box"><path stroke="none" d="M321.911 521.685C321.911 523.426,323.174 525.391,326.432 525.391C330.644 525.391,335.052 521.938,335.052 518.371C335.052 515.985,333.03 514.665,330.531 514.665C326.6 514.665,321.911 517.978,321.911 521.685"/><path stroke="none" d="M342.052 515 A2 2 0 0 0 338.052 515 A2 2 0 0 0 342.052 515"/><g class="vf-annotation" id="vf-auto19702"><text stroke="none" font-family="Times New Roman, serif" font-size="12pt" x="315.145" y="564.516">ipso</text></g></g></g><g class="vf-stavenote" id="vf-auto19703"><g class="vf-notehead" id="vf-auto19707" pointer-events="bounding-box"><path stroke="none" d="M375.072 521.685C375.072 523.426,376.336 525.391,379.593 525.391C383.805 525.391,388.214 521.938,388.214 518.371C388.214 515.985,386.192 514.665,383.693 514.665C379.762 514.665,375.072 517.978,375.072 521.685"/><g class="vf-annotation" id="vf-auto19709"><text stroke="none" font-family="Times New Roman, serif" font-size="12pt" x="368.307" y="564.516">ipso</text></g></g></g><g class="vf-stavenote" id="vf-auto19710"><g class="vf-notehead" id="vf-auto19714" pointer-events="bounding-box"><path stroke="none" d="M417.494 521.685C417.494 523.426,418.758 525.391,422.015 525.391C426.227 525.391,430.636 521.938,430.636 518.371C430.636 515.985,428.614 514.665,426.115 514.665C422.184 514.665,417.494 517.978,417.494 521.685"/><g class="vf-annotation" id="vf-auto19716"><text stroke="none" font-family="Times New Roman, serif" font-size="12pt" x="410.729" y="564.516">ipso</text></g></g></g><g class="vf-stavenote" id="vf-auto19717"><g class="vf-stem" id="vf-auto19718" pointer-events="bounding-box"><path stroke-width="1.5" fill="none" d="M477.375 518L477.375 485"/></g><g class="vf-notehead" id="vf-auto19720" pointer-events="bounding-box"><path stroke="none" d="M464.983 521.685C464.983 523.426,466.247 525.391,469.504 525.391C473.716 525.391,478.125 521.938,478.125 518.371C478.125 515.985,476.103 514.665,473.604 514.665C469.673 514.665,464.983 517.978,464.983 521.685"/><g class="vf-annotation" id="vf-auto19721"><text stroke="none" font-family="Times New Roman, serif" font-size="12pt" x="465.331" y="564.516">ip</text></g></g></g><g class="vf-stavenote" id="vf-auto19722"><g class="vf-stem" id="vf-auto19723" pointer-events="bounding-box"><path stroke-width="1.5" fill="none" d="M536.887 518L536.887 488"/></g><g class="vf-notehead" id="vf-auto19726" pointer-events="bounding-box"><path stroke="none" d="M524.495 521.685C524.495 523.426,525.759 525.391,529.016 525.391C533.228 525.391,537.637 521.938,537.637 518.371C537.637 515.985,535.615 514.665,533.116 514.665C529.184 514.665,524.495 517.978,524.495 521.685"/><g class="vf-annotation" id="vf-auto19728"><text stroke="none" font-family="Times New Roman, serif" font-size="12pt" x="517.73" y="564.516">ipso</text></g></g><path stroke="none" d="M536.137 492.182C536.137 492.294,536.165 492.491,536.473 492.631C538.186 493.193,541.668 495.383,544.308 499.848C545.038 501.112,546.217 502.853,546.217 506.222C546.217 509.114,545.431 512.119,544.392 515.011C544.308 515.264,544.224 515.46,544.252 515.629C544.252 515.797,544.308 515.91,544.476 515.994C544.561 516.022,544.617 516.022,544.673 516.022C544.954 516.022,545.15 515.882,545.319 515.601C547.228 512.231,547.874 507.935,547.818 505.408C547.818 505.211,547.818 505.071,547.818 504.902C547.621 499.708,544.617 495.861,544.617 495.861C544.757 495.861,540.91 490.89,539.815 489.178C538.327 486.875,537.625 484.572,537.541 484.404C537.512 484.292,537.147 482.832,537.147 482.832C537.119 482.663,536.895 482.523,536.67 482.523C536.389 482.523,536.137 482.747,536.137 483.028"/></g><g class="vf-stem" id="vf-auto19397" pointer-events="bounding-box"><path stroke-width="1.5" fill="none" d="M48.157 98L48.157 65.75"/></g><g class="vf-stem" id="vf-auto19405" pointer-events="bounding-box"><path stroke-width="1.5" fill="none" d="M99.602 98L99.602 65.75"/></g><g class="vf-stem" id="vf-auto19412" pointer-events="bounding-box"><path stroke-width="1.5" fill="none" d="M144.59 98L144.59 65.75"/></g><g class="vf-beam" id="vf-auto19474"><path stroke="none" d="M47.407 65L47.407 70L144.84 70L144.84 65Z"/><path stroke="none" d="M98.852 72.5L98.852 77.5L89.852 77.5L89.852 72.5Z"/></g><g class="vf-stem" id="vf-auto19419" pointer-events="bounding-box"><path stroke-width="1.5" fill="none" d="M192.699 98L192.699 65.75"/></g><g class="vf-stem" id="vf-auto19427" pointer-events="bounding-box"><path stroke-width="1.5" fill="none" d="M244.144 98L244.144 65.75"/></g><g class="vf-stem" id="vf-auto19434" pointer-events="bounding-box"><path stroke-width="1.5" fill="none" d="M289.133 98L289.133 65.75"/></g><g class="vf-beam" id="vf-auto19475"><path stroke="none" d="M191.949 65L191.949 70L289.383 70L289.383 65Z"/><path stroke="none" d="M243.394 72.5L243.394 77.5L234.394 77.5L234.394 72.5Z"/></g><g class="vf-stem" id="vf-auto19441" pointer-events="bounding-box"><path stroke-width="1.5" fill="none" d="M337.241 98L337.241 65.75"/></g><g class="vf-stem" id="vf-auto19449" pointer-events="bounding-box"><path stroke-width="1.5" fill="none" d="M388.687 98L388.687 65.75"/></g><g class="vf-stem" id="vf-auto19456" pointer-events="bounding-box"><path stroke-width="1.5" fill="none" d="M433.675 98L433.675 65.75"/></g><g class="vf-beam" id="vf-auto19476"><path stroke="none" d="M336.491 65L336.491 70L433.925 70L433.925 65Z"/><path stroke="none" d="M387.937 72.5L387.937 77.5L378.937 77.5L378.937 72.5Z"/></g><g class="vf-stem" id="vf-auto19482" pointer-events="bounding-box"><path stroke-width="1.5" fill="none" d="M48.157 238L48.157 205.75"/></g><g class="vf-stem" id="vf-auto19490" pointer-events="bounding-box"><path stroke-width="1.5" fill="none" d="M99.602 238L99.602 205.75"/></g><g class="vf-stem" id="vf-auto19497" pointer-events="bounding-box"><path stroke-width="1.5" fill="none" d="M144.59 238L144.59 205.75"/></g><g class="vf-beam" id="vf-auto19559"><path stroke="none" d="M47.407 205L47.407 210L144.84 210L144.84 205Z"/><path stroke="none" d="M98.852 212.5L98.852 217.5L89.852 217.5L89.852 212.5Z"/></g><g class="vf-stem" id="vf-auto19504" pointer-events="bounding-box"><path stroke-width="1.5" fill="none" d="M192.699 238L192.699 205.75"/></g><g class="vf-stem" id="vf-auto19512" pointer-events="bounding-box"><path stroke-width="1.5" fill="none" d="M244.144 238L244.144 205.75"/></g><g class="vf-stem" id="vf-auto19519" pointer-events="bounding-box"><path stroke-width="1.5" fill="none" d="M289.133 238L289.133 205.75"/></g><g class="vf-beam" id="vf-auto19560"><path stroke="none" d="M191.949 205L191.949 210L289.383 210L289.383 205Z"/><path stroke="none" d="M243.394 212.5L243.394 217.5L234.394 217.5L234.394 212.5Z"/></g><g class="vf-stem" id="vf-auto19526" pointer-events="bounding-box"><path stroke-width="1.5" fill="none" d="M337.241 238L337.241 205.75"/></g><g class="vf-stem" id="vf-auto19534" pointer-events="bounding-box"><path stroke-width="1.5" fill="none" d="M388.687 238L388.687 205.75"/></g><g class="vf-stem" id="vf-auto19541" pointer-events="bounding-box"><path stroke-width="1.5" fill="none" d="M433.675 238L433.675 205.75"/></g><g class="vf-beam" id="vf-auto19561"><path stroke="none" d="M336.491 205L336.491 210L433.925 210L433.925 205Z"/><path stroke="none" d="M387.937 212.5L387.937 217.5L378.937 217.5L378.937 212.5Z"/></g><g class="vf-stem" id="vf-auto19567" pointer-events="bounding-box"><path stroke-width="1.5" fill="none" d="M48.157 378L48.157 345.75"/></g><g class="vf-stem" id="vf-auto19575" pointer-events="bounding-box"><path stroke-width="1.5" fill="none" d="M100.691 378L100.691 345.75"/></g><g class="vf-stem" id="vf-auto19582" pointer-events="bounding-box"><path stroke-width="1.5" fill="none" d="M144.052 378L144.052 345.75"/></g><g class="vf-beam" id="vf-auto19644"><path stroke="none" d="M47.407 345L47.407 350L144.302 350L144.302 345Z"/><path stroke="none" d="M99.941 352.5L99.941 357.5L90.941 357.5L90.941 352.5Z"/></g><g class="vf-stem" id="vf-auto19589" pointer-events="bounding-box"><path stroke-width="1.5" fill="none" d="M191.781 378L191.781 345.75"/></g><g class="vf-stem" id="vf-auto19597" pointer-events="bounding-box"><path stroke-width="1.5" fill="none" d="M244.315 378L244.315 345.75"/></g><g class="vf-stem" id="vf-auto19604" pointer-events="bounding-box"><path stroke-width="1.5" fill="none" d="M287.676 378L287.676 345.75"/></g><g class="vf-beam" id="vf-auto19645"><path stroke="none" d="M191.031 345L191.031 350L287.926 350L287.926 345Z"/><path stroke="none" d="M243.565 352.5L243.565 357.5L234.565 357.5L234.565 352.5Z"/></g><g class="vf-stem" id="vf-auto19611" pointer-events="bounding-box"><path stroke-width="1.5" fill="none" d="M335.404 378L335.404 345.75"/></g><g class="vf-stem" id="vf-auto19619" pointer-events="bounding-box"><path stroke-width="1.5" fill="none" d="M387.938 378L387.938 345.75"/></g><g class="vf-stem" id="vf-auto19626" pointer-events="bounding-box"><path stroke-width="1.5" fill="none" d="M431.3 378L431.3 345.75"/></g><g class="vf-beam" id="vf-auto19646"><path stroke="none" d="M334.654 345L334.654 350L431.55 350L431.55 345Z"/><path stroke="none" d="M387.188 352.5L387.188 357.5L378.188 357.5L378.188 352.5Z"/></g><g class="vf-stem" id="vf-auto19652" pointer-events="bounding-box"><path stroke-width="1.5" fill="none" d="M48.157 518L48.157 485.75"/></g><g class="vf-stem" id="vf-auto19660" pointer-events="bounding-box"><path stroke-width="1.5" fill="none" d="M101.318 518L101.318 485.75"/></g><g class="vf-stem" id="vf-auto19667" pointer-events="bounding-box"><path stroke-width="1.5" fill="none" d="M143.74 518L143.74 485.75"/></g><g class="vf-beam" id="vf-auto19729"><path stroke="none" d="M47.407 485L47.407 490L143.99 490L143.99 485Z"/><path stroke="none" d="M100.568 492.5L100.568 497.5L91.568 497.5L91.568 492.5Z"/></g><g class="vf-stem" id="vf-auto19674" pointer-events="bounding-box"><path stroke-width="1.5" fill="none" d="M191.229 518L191.229 485.75"/></g><g class="vf-stem" id="vf-auto19682" pointer-events="bounding-box"><path stroke-width="1.5" fill="none" d="M244.391 518L244.391 485.75"/></g><g class="vf-stem" id="vf-auto19689" pointer-events="bounding-box"><path stroke-width="1.5" fill="none" d="M286.813 518L286.813 485.75"/></g><g class="vf-beam" id="vf-auto19730"><path stroke="none" d="M190.479 485L190.479 490L287.063 490L287.063 485Z"/><path stroke="none" d="M243.641 492.5L243.641 497.5L234.641 497.5L234.641 492.5Z"/></g><g class="vf-stem" id="vf-auto19696" pointer-events="bounding-box"><path stroke-width="1.5" fill="none" d="M334.302 518L334.302 485.75"/></g><g class="vf-stem" id="vf-auto19704" pointer-events="bounding-box"><path stroke-width="1.5" fill="none" d="M387.464 518L387.464 485.75"/></g><g class="vf-stem" id="vf-auto19711" pointer-events="bounding-box"><path stroke-width="1.5" fill="none" d="M429.886 518L429.886 485.75"/></g><g class="vf-beam" id="vf-auto19731"><path stroke="none" d="M333.552 485L333.552 490L430.136 490L430.136 485Z"/><path stroke="none" d="M386.714 492.5L386.714 497.5L377.714 497.5L377.714 492.5Z"/></g></svg>