<svg xmlns="http://www.w3.org/2000/svg" stroke-width="0.3" stroke-dasharray="none" fill="black" stroke="black" font-family="Arial, sans-serif" font-size="10pt" font-weight="normal" font-style="normal" width="450" height="200" viewBox="0 0 450 200" style="width: 450px; height: 200px; border: none;"><g class="vf-stave" id="vf-auto21127" stroke-width="1" fill="#999999" stroke="#999999"><path fill="none" d="M0 80L440 80"/><path fill="none" d="M0 90L440 90"/><path fill="none" d="M0 100L440 100"/><path fill="none" d="M0 110L440 110"/><path fill="none" d="M0 120L440 120"/></g><g class="vf-stavebarline" id="vf-auto21128"><rect y="79.5" width="1" height="41" stroke="none"/></g><g class="vf-stavebarline" id="vf-auto21129"><rect x="440" y="79.5" width="1" height="41" stroke="none"/></g><g class="vf-stavenote" id="vf-auto21130"><g class="vf-notehead" id="vf-auto21297" pointer-events="bounding-box"><path stroke="none" d="M24.104 69.889C24.188 69.889,24.273 69.889,24.413 69.889C24.778 69.889,25.312 69.918,25.508 69.946C27.839 70.283,28.99 71.827,28.99 73.624C28.99 75.534,27.698 77.724,25.115 79.128C23.852 79.802,22.56 80.111,21.38 80.111C19.218 80.111,17.449 79.044,17.084 77.162C17.028 76.881,17 76.629,17 76.376C17 73.343,20.257 70.283,24.104 69.889"/></g></g><g class="vf-stavenote" id="vf-auto21138"><path stroke-width="1.4" fill="none" stroke="#444" d="M38.676 70L56.666 70"/><path stroke-width="1.4" fill="none" stroke="#444" d="M38.676 60L56.666 60"/><path stroke-width="1.4" fill="none" stroke="#444" d="M38.676 50L56.666 50"/><path stroke-width="1.4" fill="none" stroke="#444" d="M38.676 40L56.666 40"/><g class="vf-notehead" id="vf-auto21299" pointer-events="bounding-box"><path stroke="none" d="M48.78 29.889C48.864 29.889,48.948 29.889,49.089 29.889C49.454 29.889,49.987 29.918,50.184 29.946C52.514 30.283,53.666 31.827,53.666 33.624C53.666 35.534,52.374 37.724,49.791 39.128C48.527 39.802,47.235 40.111,46.056 40.111C43.894 40.111,42.125 39.044,41.76 37.162C41.704 36.881,41.676 36.629,41.676 36.376C41.676 33.343,44.933 30.283,48.78 29.889"/></g></g><g class="vf-stavenote" id="vf-auto21146"><path stroke-width="1.4" fill="none" stroke="#444" d="M58.56 70L76.55 70"/><path stroke-width="1.4" fill="none" stroke="#444" d="M58.56 60L76.55 60"/><path stroke-width="1.4" fill="none" stroke="#444" d="M58.56 50L76.55 50"/><path stroke-width="1.4" fill="none" stroke="#444" d="M58.56 40L76.55 40"/><g class="vf-notehead" id="vf-auto21301" pointer-events="bounding-box"><path stroke="none" d="M68.664 29.889C68.749 29.889,68.833 29.889,68.973 29.889C69.338 29.889,69.872 29.918,70.068 29.946C72.399 30.283,73.55 31.827,73.55 33.624C73.55 35.534,72.259 37.724,69.675 39.128C68.412 39.802,67.12 40.111,65.941 40.111C63.779 40.111,62.01 39.044,61.644 37.162C61.588 36.881,61.56 36.629,61.56 36.376C61.56 33.343,64.818 30.283,68.664 29.889"/></g></g><g class="vf-stavenote" id="vf-auto21154"><path stroke-width="1.4" fill="none" stroke="#444" d="M78.445 70L96.435 70"/><path stroke-width="1.4" fill="none" stroke="#444" d="M78.445 60L96.435 60"/><path stroke-width="1.4" fill="none" stroke="#444" d="M78.445 50L96.435 50"/><path stroke-width="1.4" fill="none" stroke="#444" d="M78.445 40L96.435 40"/><g class="vf-notehead" id="vf-auto21303" pointer-events="bounding-box"><path stroke="none" d="M88.549 29.889C88.633 29.889,88.718 29.889,88.858 29.889C89.223 29.889,89.757 29.918,89.953 29.946C92.284 30.283,93.435 31.827,93.435 33.624C93.435 35.534,92.143 37.724,89.56 39.128C88.296 39.802,87.005 40.111,85.825 40.111C83.663 40.111,81.894 39.044,81.529 37.162C81.473 36.881,81.445 36.629,81.445 36.376C81.445 33.343,84.702 30.283,88.549 29.889"/></g></g><g class="vf-stavenote" id="vf-auto21162"><g class="vf-notehead" id="vf-auto21305" pointer-events="bounding-box"><path stroke="none" d="M108.434 104.889C108.518 104.889,108.602 104.889,108.743 104.889C109.108 104.889,109.641 104.918,109.838 104.946C112.168 105.283,113.32 106.827,113.32 108.624C113.32 110.534,112.028 112.724,109.445 114.128C108.181 114.802,106.889 115.111,105.71 115.111C103.548 115.111,101.779 114.044,101.414 112.162C101.358 111.881,101.329 111.629,101.329 111.376C101.329 108.343,104.587 105.283,108.434 104.889"/></g></g><g class="vf-stavenote" id="vf-auto21170"><g class="vf-notehead" id="vf-auto21307" pointer-events="bounding-box"><path stroke="none" d="M127.616 104.889C127.7 104.889,127.784 104.889,127.925 104.889C128.29 104.889,128.823 104.918,129.02 104.946C131.35 105.283,132.502 106.827,132.502 108.624C132.502 110.534,131.21 112.724,128.627 114.128C127.363 114.802,126.071 115.111,124.892 115.111C122.73 115.111,120.961 114.044,120.596 112.162C120.54 111.881,120.511 111.629,120.511 111.376C120.511 108.343,123.769 105.283,127.616 104.889"/></g></g><g class="vf-stavenote" id="vf-auto21178"><g class="vf-notehead" id="vf-auto21309" pointer-events="bounding-box"><path stroke="none" d="M146.798 89.889C146.882 89.889,146.966 89.889,147.106 89.889C147.472 89.889,148.005 89.918,148.202 89.946C150.532 90.283,151.684 91.827,151.684 93.624C151.684 95.534,150.392 97.724,147.808 99.128C146.545 99.802,145.253 100.111,144.074 100.111C141.912 100.111,140.143 99.044,139.778 97.162C139.721 96.881,139.693 96.629,139.693 96.376C139.693 93.343,142.951 90.283,146.798 89.889"/></g></g><g class="vf-stavenote" id="vf-auto21186"><g class="vf-notehead" id="vf-auto21311" pointer-events="bounding-box"><path stroke="none" d="M165.98 89.889C166.064 89.889,166.148 89.889,166.288 89.889C166.653 89.889,167.187 89.918,167.384 89.946C169.714 90.283,170.865 91.827,170.865 93.624C170.865 95.534,169.574 97.724,166.99 99.128C165.727 99.802,164.435 100.111,163.256 100.111C161.094 100.111,159.325 99.044,158.96 97.162C158.903 96.881,158.875 96.629,158.875 96.376C158.875 93.343,162.133 90.283,165.98 89.889"/></g></g><g class="vf-stavenote" id="vf-auto21194"><g class="vf-notehead" id="vf-auto21313" pointer-events="bounding-box"><path stroke="none" d="M185.162 89.889C185.246 89.889,185.33 89.889,185.47 89.889C185.835 89.889,186.369 89.918,186.566 89.946C188.896 90.283,190.047 91.827,190.047 93.624C190.047 95.534,188.756 97.724,186.172 99.128C184.909 99.802,183.617 100.111,182.438 100.111C180.276 100.111,178.507 99.044,178.142 97.162C178.085 96.881,178.057 96.629,178.057 96.376C178.057 93.343,181.315 90.283,185.162 89.889"/></g></g><g class="vf-stavenote" id="vf-auto21202"><g class="vf-notehead" id="vf-auto21315" pointer-events="bounding-box"><path stroke="none" d="M204.343 89.889C204.428 89.889,204.512 89.889,204.652 89.889C205.017 89.889,205.551 89.918,205.747 89.946C208.078 90.283,209.229 91.827,209.229 93.624C209.229 95.534,207.938 97.724,205.354 99.128C204.091 99.802,202.799 100.111,201.62 100.111C199.458 100.111,197.688 99.044,197.323 97.162C197.267 96.881,197.239 96.629,197.239 96.376C197.239 93.343,200.496 90.283,204.343 89.889"/></g></g><g class="vf-stavenote" id="vf-auto21210"><g class="vf-notehead" id="vf-auto21317" pointer-events="bounding-box"><path stroke="none" d="M223.525 89.889C223.61 89.889,223.694 89.889,223.834 89.889C224.199 89.889,224.733 89.918,224.929 89.946C227.26 90.283,228.411 91.827,228.411 93.624C228.411 95.534,227.12 97.724,224.536 99.128C223.273 99.802,221.981 100.111,220.802 100.111C218.639 100.111,216.87 99.044,216.505 97.162C216.449 96.881,216.421 96.629,216.421 96.376C216.421 93.343,219.678 90.283,223.525 89.889"/></g></g><g class="vf-stavenote" id="vf-auto21218"><g class="vf-notehead" id="vf-auto21319" pointer-events="bounding-box"><path stroke="none" d="M242.707 89.889C242.792 89.889,242.876 89.889,243.016 89.889C243.381 89.889,243.915 89.918,244.111 89.946C246.442 90.283,247.593 91.827,247.593 93.624C247.593 95.534,246.302 97.724,243.718 99.128C242.455 99.802,241.163 100.111,239.984 100.111C237.821 100.111,236.052 99.044,235.687 97.162C235.631 96.881,235.603 96.629,235.603 96.376C235.603 93.343,238.86 90.283,242.707 89.889"/></g></g><g class="vf-stavenote" id="vf-auto21226"><g class="vf-notehead" id="vf-auto21321" pointer-events="bounding-box"><path stroke="none" d="M261.889 89.889C261.974 89.889,262.058 89.889,262.198 89.889C262.563 89.889,263.097 89.918,263.293 89.946C265.624 90.283,266.775 91.827,266.775 93.624C266.775 95.534,265.484 97.724,262.9 99.128C261.637 99.802,260.345 100.111,259.166 100.111C257.003 100.111,255.234 99.044,254.869 97.162C254.813 96.881,254.785 96.629,254.785 96.376C254.785 93.343,258.042 90.283,261.889 89.889"/></g></g><g class="vf-stavenote" id="vf-auto21234"><g class="vf-notehead" id="vf-auto21323" pointer-events="bounding-box"><path stroke="none" d="M281.071 89.889C281.155 89.889,281.24 89.889,281.38 89.889C281.745 89.889,282.279 89.918,282.475 89.946C284.806 90.283,285.957 91.827,285.957 93.624C285.957 95.534,284.665 97.724,282.082 99.128C280.818 99.802,279.527 100.111,278.347 100.111C276.185 100.111,274.416 99.044,274.051 97.162C273.995 96.881,273.967 96.629,273.967 96.376C273.967 93.343,277.224 90.283,281.071 89.889"/></g></g><g class="vf-stavenote" id="vf-auto21242"><path stroke-width="1.4" fill="none" stroke="#444" d="M290.149 70L308.139 70"/><g class="vf-notehead" id="vf-auto21325" pointer-events="bounding-box"><path stroke="none" d="M300.253 64.889C300.337 64.889,300.422 64.889,300.562 64.889C300.927 64.889,301.461 64.918,301.657 64.946C303.988 65.283,305.139 66.827,305.139 68.624C305.139 70.534,303.847 72.724,301.264 74.128C300 74.802,298.709 75.111,297.529 75.111C295.367 75.111,293.598 74.044,293.233 72.162C293.177 71.881,293.149 71.629,293.149 71.376C293.149 68.343,296.406 65.283,300.253 64.889"/></g></g><g class="vf-stavenote" id="vf-auto21250"><g class="vf-notehead" id="vf-auto21327" pointer-events="bounding-box"><path stroke="none" d="M324.929 69.889C325.013 69.889,325.097 69.889,325.238 69.889C325.603 69.889,326.136 69.918,326.333 69.946C328.663 70.283,329.815 71.827,329.815 73.624C329.815 75.534,328.523 77.724,325.94 79.128C324.676 79.802,323.384 80.111,322.205 80.111C320.043 80.111,318.274 79.044,317.909 77.162C317.853 76.881,317.825 76.629,317.825 76.376C317.825 73.343,321.082 70.283,324.929 69.889"/></g></g><g class="vf-stavenote" id="vf-auto21258"><g class="vf-notehead" id="vf-auto21331" pointer-events="bounding-box"><path stroke="none" d="M349.604 114.889C349.689 114.889,349.773 114.889,349.913 114.889C350.278 114.889,350.812 114.918,351.008 114.946C353.339 115.283,354.49 116.827,354.49 118.624C354.49 120.534,353.199 122.724,350.615 124.128C349.352 124.802,348.06 125.111,346.881 125.111C344.718 125.111,342.949 124.044,342.584 122.162C342.528 121.881,342.5 121.629,342.5 121.376C342.5 118.343,345.757 115.283,349.604 114.889"/></g><g class="vf-notehead" id="vf-auto21330" pointer-events="bounding-box"><path stroke="none" d="M349.604 104.889C349.689 104.889,349.773 104.889,349.913 104.889C350.278 104.889,350.812 104.918,351.008 104.946C353.339 105.283,354.49 106.827,354.49 108.624C354.49 110.534,353.199 112.724,350.615 114.128C349.352 114.802,348.06 115.111,346.881 115.111C344.718 115.111,342.949 114.044,342.584 112.162C342.528 111.881,342.5 111.629,342.5 111.376C342.5 108.343,345.757 105.283,349.604 104.889"/></g><g class="vf-notehead" id="vf-auto21329" pointer-events="bounding-box"><path stroke="none" d="M349.604 94.889C349.689 94.889,349.773 94.889,349.913 94.889C350.278 94.889,350.812 94.918,351.008 94.946C353.339 95.283,354.49 96.827,354.49 98.624C354.49 100.534,353.199 102.724,350.615 104.128C349.352 104.802,348.06 105.111,346.881 105.111C344.718 105.111,342.949 104.044,342.584 102.162C342.528 101.881,342.5 101.629,342.5 101.376C342.5 98.343,345.757 95.283,349.604 94.889"/></g></g><g class="vf-stavenote" id="vf-auto21272"><g class="vf-notehead" id="vf-auto21333" pointer-events="bounding-box"><path stroke="none" d="M370.973 79.889C371.057 79.889,371.141 79.889,371.281 79.889C371.646 79.889,372.18 79.918,372.377 79.946C374.707 80.283,375.858 81.827,375.858 83.624C375.858 85.534,374.567 87.724,371.983 89.128C370.72 89.802,369.428 90.111,368.249 90.111C366.087 90.111,364.318 89.044,363.953 87.162C363.896 86.881,363.868 86.629,363.868 86.376C363.868 83.343,367.126 80.283,370.973 79.889"/></g></g><g class="vf-stavenote" id="vf-auto21280"><g class="vf-notehead" id="vf-auto21335" pointer-events="bounding-box"><path stroke="none" d="M392.341 84.889C392.425 84.889,392.509 84.889,392.65 84.889C393.015 84.889,393.548 84.918,393.745 84.946C396.075 85.283,397.227 86.827,397.227 88.624C397.227 90.534,395.935 92.724,393.352 94.128C392.088 94.802,390.796 95.111,389.617 95.111C387.455 95.111,385.686 94.044,385.321 92.162C385.265 91.881,385.236 91.629,385.236 91.376C385.236 88.343,388.494 85.283,392.341 84.889"/></g></g><g class="vf-stavenote" id="vf-auto21288"><g class="vf-notehead" id="vf-auto21337" pointer-events="bounding-box"><path stroke="none" d="M417.016 79.889C417.101 79.889,417.185 79.889,417.325 79.889C417.69 79.889,418.224 79.918,418.42 79.946C420.751 80.283,421.902 81.827,421.902 83.624C421.902 85.534,420.611 87.724,418.027 89.128C416.764 89.802,415.472 90.111,414.293 90.111C412.13 90.111,410.361 89.044,409.996 87.162C409.94 86.881,409.912 86.629,409.912 86.376C409.912 83.343,413.169 80.283,417.016 79.889"/></g></g><g class="vf-stem" id="vf-auto21131" pointer-events="bounding-box"><path stroke-width="1.5" fill="none" d="M17.75 76.5L17.75 154.25"/></g><g class="vf-stem" id="vf-auto21139" pointer-events="bounding-box"><path stroke-width="1.5" fill="none" d="M42.426 36.5L42.426 154.25"/></g><g class="vf-stem" id="vf-auto21147" pointer-events="bounding-box"><path stroke-width="1.5" fill="none" d="M62.31 36.5L62.31 154.25"/></g><g class="vf-stem" id="vf-auto21155" pointer-events="bounding-box"><path stroke-width="1.5" fill="none" d="M82.195 36.5L82.195 154.25"/></g><g class="vf-stem" id="vf-auto21163" pointer-events="bounding-box"><path stroke-width="1.5" fill="none" d="M102.079 111.5L102.079 154.25"/></g><g class="vf-stem" id="vf-auto21171" pointer-events="bounding-box"><path stroke-width="1.5" fill="none" d="M121.261 111.5L121.261 154.25"/></g><g class="vf-beam" id="vf-auto21339"><path stroke="none" d="M17 155L17 150L121.511 150L121.511 155Z"/><path stroke="none" d="M41.676 147.5L41.676 142.5L121.511 142.5L121.511 147.5Z"/><path stroke="none" d="M41.676 140L41.676 135L121.511 135L121.511 140Z"/><path stroke="none" d="M101.329 132.5L101.329 127.5L121.511 127.5L121.511 132.5Z"/></g><g class="vf-stem" id="vf-auto21179" pointer-events="bounding-box"><path stroke-width="1.5" fill="none" d="M140.443 96.5L140.443 144.25"/></g><g class="vf-stem" id="vf-auto21187" pointer-events="bounding-box"><path stroke-width="1.5" fill="none" d="M159.625 96.5L159.625 144.25"/></g><g class="vf-stem" id="vf-auto21195" pointer-events="bounding-box"><path stroke-width="1.5" fill="none" d="M178.807 96.5L178.807 144.25"/></g><g class="vf-stem" id="vf-auto21203" pointer-events="bounding-box"><path stroke-width="1.5" fill="none" d="M197.989 96.5L197.989 144.25"/></g><g class="vf-stem" id="vf-auto21211" pointer-events="bounding-box"><path stroke-width="1.5" fill="none" d="M217.171 96.5L217.171 144.25"/></g><g class="vf-stem" id="vf-auto21219" pointer-events="bounding-box"><path stroke-width="1.5" fill="none" d="M236.353 96.5L236.353 144.25"/></g><g class="vf-stem" id="vf-auto21227" pointer-events="bounding-box"><path stroke-width="1.5" fill="none" d="M255.535 96.5L255.535 144.25"/></g><g class="vf-stem" id="vf-auto21235" pointer-events="bounding-box"><path stroke-width="1.5" fill="none" d="M274.717 96.5L274.717 144.25"/></g><g class="vf-stem" id="vf-auto21243" pointer-events="bounding-box"><path stroke-width="1.5" fill="none" d="M293.899 71.5L293.899 144.25"/></g><g class="vf-beam" id="vf-auto21340"><path stroke="none" d="M139.693 145L139.693 140L294.149 140L294.149 145Z"/><path stroke="none" d="M139.693 137.5L139.693 132.5L274.967 132.5L274.967 137.5Z"/><path stroke="none" d="M139.693 130L139.693 125L274.967 125L274.967 130Z"/><path stroke="none" d="M139.693 122.5L139.693 117.5L274.967 117.5L274.967 122.5Z"/></g><g class="vf-stem" id="vf-auto21251" pointer-events="bounding-box"><path stroke-width="1.5" fill="none" d="M318.575 76.5L318.575 149.25"/></g><g class="vf-stem" id="vf-auto21259" pointer-events="bounding-box"><path stroke-width="1.5" fill="none" d="M343.25 101.5L343.25 149.25"/></g><g class="vf-stem" id="vf-auto21273" pointer-events="bounding-box"><path stroke-width="1.5" fill="none" d="M364.618 86.5L364.618 149.25"/></g><g class="vf-beam" id="vf-auto21341"><path stroke="none" d="M317.825 150L317.825 145L364.868 145L364.868 150Z"/><path stroke="none" d="M342.5 142.5L342.5 137.5L364.868 137.5L364.868 142.5Z"/></g><g class="vf-stem" id="vf-auto21281" pointer-events="bounding-box"><path stroke-width="1.5" fill="none" d="M385.986 91.5L385.986 144.25"/></g><g class="vf-stem" id="vf-auto21289" pointer-events="bounding-box"><path stroke-width="1.5" fill="none" d="M410.662 86.5L410.662 144.25"/></g><g class="vf-beam" id="vf-auto21342"><path stroke="none" d="M385.236 145L385.236 140L410.912 140L410.912 145Z"/></g></svg>