<svg xmlns="http://www.w3.org/2000/svg" stroke-width="0.3" stroke-dasharray="none" fill="black" stroke="black" font-family="Arial, sans-serif" font-size="10pt" font-weight="normal" font-style="normal" width="800" height="150" viewBox="0 0 800 150" style="width: 800px; height: 150px; border: none;"><g class="vf-stave" id="vf-auto16260" stroke-width="1" fill="#999999" stroke="#999999"><path fill="none" d="M10 70L310 70"/><path fill="none" d="M10 80L310 80"/><path fill="none" d="M10 90L310 90"/><path fill="none" d="M10 100L310 100"/><path fill="none" d="M10 110L310 110"/></g><g class="vf-stavebarline" id="vf-auto16261"><rect x="10" y="69.5" width="1" height="41" stroke="none"/></g><g class="vf-stavebarline" id="vf-auto16262"><rect x="310" y="69.5" width="1" height="41" stroke="none"/></g><g class="vf-clef" id="vf-auto16263"><path stroke="none" d="M29.112 57.837C29.112 57.837,29.141 57.837,29.17 57.837C29.544 57.837,30.034 58.211,30.667 58.96C32.942 61.696,34.44 66.045,34.44 69.731C34.44 69.99,34.44 70.278,34.411 70.538C34.152 74.829,32.28 78.515,28.68 81.942C28.363 82.259,27.902 82.691,27.701 82.864L27.355 83.238L28.075 86.608C28.478 88.48,28.795 90.006,28.795 90.006C28.795 90.006,28.795 90.006,28.795 90.006C28.824 90.006,28.939 89.978,29.026 89.978C29.198 89.949,29.659 89.949,30.12 89.949C30.466 89.949,30.84 89.949,30.984 89.949C35.592 90.525,38.962 94.125,39.278 98.79C39.307 98.992,39.307 99.194,39.307 99.395C39.307 103.254,36.802 106.941,33.029 108.554C32.885 108.611,32.798 108.669,32.798 108.669C32.798 108.669,33 109.677,33.259 110.886C33.518 112.125,33.778 113.306,33.806 113.536C33.979 114.458,34.066 115.322,34.066 116.157C34.066 118.317,33.49 120.131,32.395 121.542C30.754 123.587,28.392 124.624,26.03 124.624C23.726 124.624,21.422 123.674,19.752 121.773C19.061 120.966,18.686 120.016,18.686 119.037C18.686 118.202,18.974 117.338,19.55 116.56C20.386 115.437,21.624 114.89,22.862 114.89C24.014 114.89,25.166 115.379,25.973 116.358C26.549 117.107,26.808 117.942,26.808 118.778C26.808 120.678,25.397 122.493,23.237 122.579L22.978 122.579L23.064 122.637C23.928 123.069,24.936 123.299,25.973 123.299C27.24 123.299,28.565 122.954,29.602 122.291C31.704 120.966,32.741 118.922,32.741 116.157C32.741 115.264,32.626 114.285,32.424 113.248C32.338 112.758,31.531 109.101,31.531 109.101C31.531 109.101,31.531 109.101,31.531 109.101C31.502 109.101,31.358 109.13,31.186 109.158C30.667 109.302,30.12 109.389,29.515 109.446C29.314 109.475,28.91 109.475,28.478 109.475C27.931 109.475,27.384 109.475,27.154 109.446C20.126 108.669,15 102.995,15 95.968C15 92.858,15.893 90.15,17.765 87.558C19.752 84.794,21.768 82.403,24.245 79.898L25.109 79.034L24.734 77.306C24.533 76.326,24.331 75.318,24.245 75.03C23.899 73.389,23.726 72.582,23.669 72.266C23.525 71.373,23.467 70.48,23.467 69.587C23.467 65.469,25.022 61.552,27.902 58.758C28.565 58.125,28.91 57.866,29.112 57.837M31.013 63.482C30.84 63.453,30.696 63.424,30.523 63.424C29.688 63.424,28.68 63.942,27.73 64.893C26.088 66.534,25.195 69.011,25.195 71.718C25.195 72.41,25.253 73.101,25.368 73.821C25.426 74.138,26.203 77.968,26.232 77.968C26.232 77.968,26.232 77.968,26.232 77.968C26.261 77.968,27.182 77.018,27.442 76.73C30.638 73.187,32.453 69.357,32.453 66.362C32.453 65.872,32.395 65.411,32.309 64.95C32.107 64.086,31.733 63.654,31.013 63.482M26.318 84.707C26.29 84.534,26.261 84.39,26.261 84.39C26.146 84.39,23.87 87.04,22.834 88.336C20.702 91.043,19.925 92.31,19.32 94.038C18.888 95.363,18.658 96.688,18.658 97.984C18.658 100.317,19.349 102.534,20.674 104.406C22.517 106.998,25.426 108.496,28.421 108.496C28.91 108.496,29.4 108.467,29.89 108.381C30.408 108.294,31.301 108.064,31.301 108.006C31.301 107.978,30.955 106.394,30.552 104.435C30.12 102.506,29.486 99.51,29.112 97.811C28.766 96.112,28.45 94.701,28.45 94.701C28.45 94.701,28.45 94.701,28.45 94.701C28.334 94.701,27.701 94.96,27.355 95.133C25.598 96.112,24.677 97.84,24.677 99.568C24.677 101.094,25.397 102.592,26.866 103.485C27.154 103.658,27.298 103.859,27.298 104.09C27.298 104.205,27.24 104.349,27.125 104.464C27.038 104.579,26.923 104.666,26.75 104.666C26.549 104.666,26.29 104.55,25.858 104.32C23.237 102.966,21.912 100.403,21.912 97.782C21.912 95.334,23.093 92.858,25.454 91.302C26.059 90.899,27.269 90.323,27.499 90.323C27.499 90.323,27.528 90.294,27.528 90.294C27.528 90.266,27.528 90.266,27.528 90.266C27.499 90.208,26.434 85.197,26.318 84.707M30.725 94.499C30.581 94.499,30.293 94.47,30.12 94.47L29.746 94.47L29.774 94.528C29.774 94.557,30.293 97.034,30.955 100.029C31.589 103.024,32.136 105.616,32.165 105.789C32.222 105.962,32.309 106.422,32.395 106.797L32.539 107.488L32.626 107.43C34.21 106.538,35.362 105.27,35.995 103.715C36.37 102.851,36.542 101.987,36.542 101.123C36.542 97.869,34.152 94.902,30.725 94.499"/></g><g class="vf-timesignature" id="vf-auto16264"><path stroke="none" d="M59.29 72.086C59.347 72.058,60.989 72.058,62.544 72.058C63.869 72.058,65.165 72.058,65.194 72.086C65.366 72.144,65.482 72.317,65.482 72.49C65.482 72.691,65.453 72.72,64.906 73.325C64.416 73.843,62.89 75.571,61.334 77.328C60.874 77.846,60.442 78.336,60.326 78.451C60.211 78.566,59.52 79.344,58.771 80.179C58.051 81.014,57.13 82.051,56.755 82.454C56.381 82.886,56.064 83.232,56.064 83.261C56.064 83.261,56.064 83.261,56.064 83.261C56.064 83.29,56.294 83.29,58.656 83.29L61.248 83.29L61.277 81.418C61.277 79.603,61.277 79.574,61.306 79.517C61.334 79.488,61.91 78.826,62.602 78.048C63.293 77.27,64.099 76.349,64.416 76.032C65.194 75.139,65.165 75.168,65.395 75.168C65.597 75.168,65.741 75.254,65.798 75.398C65.827 75.485,65.827 75.629,65.827 79.373L65.827 83.29L66.518 83.29C67.181 83.29,67.238 83.29,67.325 83.318C67.555 83.405,67.699 83.635,67.699 83.866C67.699 84.038,67.642 84.182,67.526 84.298C67.354 84.47,67.325 84.47,66.547 84.47L65.856 84.47L65.856 84.643C65.856 84.73,65.856 84.989,65.856 85.219C65.885 86.4,66.259 86.976,67.411 87.552C67.642 87.667,67.786 87.84,67.786 88.013C67.786 88.128,67.728 88.243,67.642 88.33C67.526 88.445,67.814 88.445,65.078 88.445C64.646 88.445,64.128 88.445,63.552 88.445C62.976 88.445,62.458 88.445,62.026 88.445C59.29 88.445,59.578 88.445,59.462 88.33C59.376 88.243,59.318 88.128,59.318 88.013C59.318 87.84,59.462 87.667,59.693 87.552C60.845 86.976,61.219 86.4,61.248 85.219C61.248 84.989,61.248 84.73,61.248 84.643L61.248 84.47L57.965 84.47C57.475 84.47,57.072 84.47,56.726 84.47C54.365 84.47,54.566 84.47,54.451 84.355C54.365 84.269,54.307 84.154,54.307 84.038C54.307 83.923,54.394 83.75,54.538 83.578C57.274 80.496,58.915 76.637,59.03 72.893C59.03 72.288,59.059 72.202,59.29 72.086M61.046 90L61.075 90L60.989 90M61.046 71.05L61.075 71.05L60.989 71.05"/><path stroke="none" d="M59.29 92.086C59.347 92.058,60.989 92.058,62.544 92.058C63.869 92.058,65.165 92.058,65.194 92.086C65.366 92.144,65.482 92.317,65.482 92.49C65.482 92.691,65.453 92.72,64.906 93.325C64.416 93.843,62.89 95.571,61.334 97.328C60.874 97.846,60.442 98.336,60.326 98.451C60.211 98.566,59.52 99.344,58.771 100.179C58.051 101.014,57.13 102.051,56.755 102.454C56.381 102.886,56.064 103.232,56.064 103.261C56.064 103.261,56.064 103.261,56.064 103.261C56.064 103.29,56.294 103.29,58.656 103.29L61.248 103.29L61.277 101.418C61.277 99.603,61.277 99.574,61.306 99.517C61.334 99.488,61.91 98.826,62.602 98.048C63.293 97.27,64.099 96.349,64.416 96.032C65.194 95.139,65.165 95.168,65.395 95.168C65.597 95.168,65.741 95.254,65.798 95.398C65.827 95.485,65.827 95.629,65.827 99.373L65.827 103.29L66.518 103.29C67.181 103.29,67.238 103.29,67.325 103.318C67.555 103.405,67.699 103.635,67.699 103.866C67.699 104.038,67.642 104.182,67.526 104.298C67.354 104.47,67.325 104.47,66.547 104.47L65.856 104.47L65.856 104.643C65.856 104.73,65.856 104.989,65.856 105.219C65.885 106.4,66.259 106.976,67.411 107.552C67.642 107.667,67.786 107.84,67.786 108.013C67.786 108.128,67.728 108.243,67.642 108.33C67.526 108.445,67.814 108.445,65.078 108.445C64.646 108.445,64.128 108.445,63.552 108.445C62.976 108.445,62.458 108.445,62.026 108.445C59.29 108.445,59.578 108.445,59.462 108.33C59.376 108.243,59.318 108.128,59.318 108.013C59.318 107.84,59.462 107.667,59.693 107.552C60.845 106.976,61.219 106.4,61.248 105.219C61.248 104.989,61.248 104.73,61.248 104.643L61.248 104.47L57.965 104.47C57.475 104.47,57.072 104.47,56.726 104.47C54.365 104.47,54.566 104.47,54.451 104.355C54.365 104.269,54.307 104.154,54.307 104.038C54.307 103.923,54.394 103.75,54.538 103.578C57.274 100.496,58.915 96.637,59.03 92.893C59.03 92.288,59.059 92.202,59.29 92.086M61.046 110L61.075 110L60.989 110M61.046 91.05L61.075 91.05L60.989 91.05"/></g><g class="vf-keysignature" id="vf-auto16268"/><g class="vf-stavenote" id="vf-auto16269"><g class="vf-notehead" id="vf-auto16273" pointer-events="bounding-box"><path stroke-width="1.5" stroke="none" d="M79.786 100L79.786 91L94.786 80L94.786 90L79.786 100Z"/></g></g><g class="vf-stavenote" id="vf-auto16275"><g class="vf-notehead" id="vf-auto16279" pointer-events="bounding-box"><path stroke-width="1.5" stroke="none" d="M107.738 100L107.738 91L122.738 80L122.738 90L107.738 100Z"/></g></g><g class="vf-stavenote" id="vf-auto16281"><g class="vf-notehead" id="vf-auto16285" pointer-events="bounding-box"><path stroke-width="1.5" stroke="none" d="M135.69 100L135.69 91L150.69 80L150.69 90L135.69 100Z"/></g></g><g class="vf-stavenote" id="vf-auto16287"><g class="vf-notehead" id="vf-auto16291" pointer-events="bounding-box"><path stroke-width="1.5" stroke="none" d="M163.642 100L163.642 91L178.642 80L178.642 90L163.642 100Z"/></g></g><g class="vf-stavenote" id="vf-auto16293"><g class="vf-notehead" id="vf-auto16297" pointer-events="bounding-box"><path stroke-width="1.5" stroke="none" d="M191.594 100L191.594 91L206.594 80L206.594 90L191.594 100Z"/></g></g><g class="vf-stavenote" id="vf-auto16299"><g class="vf-notehead" id="vf-auto16303" pointer-events="bounding-box"><path stroke-width="1.5" stroke="none" d="M219.546 100L219.546 91L234.546 80L234.546 90L219.546 100Z"/></g></g><g class="vf-stavenote" id="vf-auto16305"><g class="vf-notehead" id="vf-auto16309" pointer-events="bounding-box"><path stroke-width="1.5" stroke="none" d="M247.498 100L247.498 91L262.498 80L262.498 90L247.498 100Z"/></g></g><g class="vf-stavenote" id="vf-auto16311"><g class="vf-notehead" id="vf-auto16315" pointer-events="bounding-box"><path stroke-width="1.5" stroke="none" d="M275.45 100L275.45 91L290.45 80L290.45 90L275.45 100Z"/></g></g><g class="vf-stem" id="vf-auto16270" pointer-events="bounding-box"><path stroke-width="1.5" fill="none" d="M80.536 90L80.536 124.25"/></g><g class="vf-stem" id="vf-auto16276" pointer-events="bounding-box"><path stroke-width="1.5" fill="none" d="M108.488 90L108.488 124.25"/></g><g class="vf-stem" id="vf-auto16282" pointer-events="bounding-box"><path stroke-width="1.5" fill="none" d="M136.44 90L136.44 124.25"/></g><g class="vf-stem" id="vf-auto16288" pointer-events="bounding-box"><path stroke-width="1.5" fill="none" d="M164.392 90L164.392 124.25"/></g><g class="vf-beam" id="vf-auto16317"><path stroke="none" d="M79.786 125L79.786 120L164.642 120L164.642 125Z"/></g><g class="vf-stem" id="vf-auto16294" pointer-events="bounding-box"><path stroke-width="1.5" fill="none" d="M192.344 90L192.344 124.25"/></g><g class="vf-stem" id="vf-auto16300" pointer-events="bounding-box"><path stroke-width="1.5" fill="none" d="M220.296 90L220.296 124.25"/></g><g class="vf-stem" id="vf-auto16306" pointer-events="bounding-box"><path stroke-width="1.5" fill="none" d="M248.248 90L248.248 124.25"/></g><g class="vf-stem" id="vf-auto16312" pointer-events="bounding-box"><path stroke-width="1.5" fill="none" d="M276.2 90L276.2 124.25"/></g><g class="vf-beam" id="vf-auto16318"><path stroke="none" d="M191.594 125L191.594 120L276.45 120L276.45 125Z"/></g></svg>