<svg xmlns="http://www.w3.org/2000/svg" stroke-width="0.3" stroke-dasharray="none" fill="black" stroke="black" font-family="Arial, sans-serif" font-size="10pt" font-weight="normal" font-style="normal" width="600" height="200" viewBox="0 0 600 200" style="width: 600px; height: 200px; border: none;"><g class="vf-stave" id="vf-auto15176" stroke-width="1" fill="#999999" stroke="#999999" font-family="Arial"><path fill="none" d="M10 82L560 82"/><path fill="none" d="M10 95L560 95"/><path fill="none" d="M10 108L560 108"/><path fill="none" d="M10 121L560 121"/><path fill="none" d="M10 134L560 134"/><path fill="none" d="M10 147L560 147"/></g><g class="vf-stavebarline" id="vf-auto15177" font-family="Arial"><rect x="10" y="81.5" width="1" height="66" stroke="none"/></g><g class="vf-stavebarline" id="vf-auto15178" font-family="Arial"><rect x="560" y="81.5" width="1" height="66" stroke="none"/></g><g class="vf-tabnote" id="vf-auto15179" pointer-events="bounding-box" font-weight="bold"><rect x="28.703" y="105" width="11.422" height="6" fill="#FFF" stroke="none"/><text stroke="none" font-weight="normal" x="30.703" y="113">6</text><rect x="25" y="118" width="18.828" height="6" fill="#FFF" stroke="none"/><text stroke="none" font-weight="normal" x="27" y="126">25</text><path stroke-width="1.5" fill="none" d="M34.414 73.5L34.414 100.5"/><g class="vf-stem" id="vf-auto15180" pointer-events="bounding-box"><path stroke-width="1.5" fill="none" d="M34.414 73.5L34.414 40.5"/></g></g><g class="vf-tabnote" id="vf-auto15181" pointer-events="bounding-box" font-weight="bold"><rect x="153.493" y="92" width="18.828" height="6" fill="#FFF" stroke="none"/><text stroke="none" font-weight="normal" x="155.493" y="100">10</text><rect x="153.493" y="131" width="18.828" height="6" fill="#FFF" stroke="none"/><text stroke="none" font-weight="normal" x="155.493" y="139">12</text><path stroke-width="1.5" fill="none" d="M162.907 73.5L162.907 87.5"/><path stroke-width="1.5" fill="none" d="M162.907 102.5L162.907 126.5"/><g class="vf-stem" id="vf-auto15182" pointer-events="bounding-box"><path stroke-width="1.5" fill="none" d="M162.907 73.5L162.907 40.5"/></g><path stroke="none" d="M169.598 73.382C170.609 72.23,171.591 71.023,172.013 69.563C172.518 67.99,172.715 66.418,172.715 64.845C172.715 63.778,172.63 62.739,172.462 61.7C171.985 58.247,170.889 55.102,168.699 52.35C167.745 51.142,166.818 49.879,165.835 48.671C164.712 47.211,164.01 45.891,163.982 44.01C163.982 43.645,163.898 43.055,163.898 42.606C163.898 41.876,163.617 41.174,163.336 40.5L163.139 40.5C162.325 40.865,162.157 41.511,162.157 42.269L162.157 44.544C162.157 47.66,162.971 50.496,164.852 52.996C165.639 53.922,166.369 54.933,167.127 55.86C169.064 58.162,170.524 60.746,170.805 63.834C170.861 64.396,171.058 64.958,171.058 65.491C171.058 65.772,171.002 66.053,170.889 66.306C170.496 67.176,170.075 68.131,169.345 68.72C168.699 69.254,168.559 69.844,168.559 70.489C168.559 70.826,168.587 71.191,168.615 71.556C168.671 72.09,168.868 72.595,168.896 73.129C168.952 73.466,169.064 73.606,169.205 73.606C169.317 73.606,169.429 73.522,169.598 73.382"/></g><g class="vf-tabnote" id="vf-auto15184" pointer-events="bounding-box" font-weight="bold"><rect x="234.095" y="79" width="11.422" height="6" fill="#FFF" stroke="none"/><text stroke="none" font-weight="normal" x="236.095" y="87">6</text><rect x="234.095" y="118" width="11.422" height="6" fill="#FFF" stroke="none"/><text stroke="none" font-weight="normal" x="236.095" y="126">5</text><path stroke-width="1.5" fill="none" d="M239.806 89.5L239.806 113.5"/><g class="vf-stem" id="vf-auto15185" pointer-events="bounding-box"><path stroke-width="1.5" fill="none" d="M239.806 73.5L239.806 40.5"/></g><path stroke="none" d="M246.497 73.382C247.508 72.23,248.49 71.023,248.912 69.563C249.417 67.99,249.614 66.418,249.614 64.845C249.614 63.778,249.529 62.739,249.361 61.7C248.884 58.247,247.788 55.102,245.598 52.35C244.644 51.142,243.717 49.879,242.734 48.671C241.611 47.211,240.909 45.891,240.881 44.01C240.881 43.645,240.797 43.055,240.797 42.606C240.797 41.876,240.516 41.174,240.235 40.5L240.038 40.5C239.224 40.865,239.056 41.511,239.056 42.269L239.056 44.544C239.056 47.66,239.87 50.496,241.751 52.996C242.538 53.922,243.268 54.933,244.026 55.86C245.963 58.162,247.423 60.746,247.704 63.834C247.76 64.396,247.957 64.958,247.957 65.491C247.957 65.772,247.901 66.053,247.788 66.306C247.395 67.176,246.974 68.131,246.244 68.72C245.598 69.254,245.458 69.844,245.458 70.489C245.458 70.826,245.486 71.191,245.514 71.556C245.57 72.09,245.767 72.595,245.795 73.129C245.851 73.466,245.963 73.606,246.104 73.606C246.216 73.606,246.328 73.522,246.497 73.382"/></g><g class="vf-tabnote" id="vf-auto15187" pointer-events="bounding-box" font-weight="bold"><rect x="314.697" y="79" width="11.422" height="6" fill="#FFF" stroke="none"/><text stroke="none" font-weight="normal" x="316.697" y="87">6</text><rect x="314.697" y="118" width="11.422" height="6" fill="#FFF" stroke="none"/><text stroke="none" font-weight="normal" x="316.697" y="126">5</text><path stroke-width="1.5" fill="none" d="M320.408 89.5L320.408 113.5"/><g class="vf-stem" id="vf-auto15188" pointer-events="bounding-box"><path stroke-width="1.5" fill="none" d="M320.408 73.5L320.408 40.5"/></g><path stroke="none" d="M331.311 73.606C331.536 73.691,331.704 73.466,331.872 73.297C332.069 73.045,332.181 72.764,332.322 72.455C332.687 71.444,332.771 70.377,332.715 69.142C332.687 68.692,332.687 68.131,332.603 67.513C332.771 66.221,332.911 64.93,332.883 63.554C332.911 62.711,332.771 61.728,332.715 60.746C332.546 58.78,332.041 56.927,331.311 55.102C330.047 51.957,327.632 49.682,325.274 47.38C324.15 46.284,322.971 45.217,322.353 43.701C322.016 42.887,322.044 41.988,321.764 41.174C321.679 40.949,321.679 40.5,321.314 40.5C321.286 40.5,321.23 40.528,321.146 40.528C320.781 40.668,320.416 40.781,320.416 41.399C320.416 41.707,320.472 42.044,320.472 42.409C320.219 42.438,320.023 42.522,319.938 42.718C319.826 42.999,319.686 43.28,319.686 43.561C319.658 44.15,319.658 44.656,319.658 45.274C319.658 47.576,319.995 49.851,320.64 52.013C321.792 56.141,324.038 59.622,326.902 62.767C329.486 65.66,331.17 68.973,331.142 73.017C331.142 73.213,331.03 73.494,331.311 73.606M331.255 63.413C330.665 62.094,329.879 60.802,328.952 59.622C327.127 57.236,324.965 55.13,323.729 52.294C323.168 51.002,322.522 49.766,322.073 48.39C322.606 49.261,323.252 50.131,324.038 50.89C325.554 52.434,327.211 53.922,328.587 55.635C330.412 57.938,331.451 60.521,331.255 63.413"/></g><g class="vf-tabnote" id="vf-auto15190" pointer-events="bounding-box" font-weight="bold"><rect x="378.535" y="79" width="11.422" height="6" fill="#FFF" stroke="none"/><text stroke="none" font-weight="normal" x="380.535" y="87">6</text><rect x="378.535" y="118" width="11.422" height="6" fill="#FFF" stroke="none"/><text stroke="none" font-weight="normal" x="380.535" y="126">5</text><path stroke-width="1.5" fill="none" d="M384.246 89.5L384.246 113.5"/><g class="vf-stem" id="vf-auto15191" pointer-events="bounding-box"><path stroke-width="1.5" fill="none" d="M384.246 73.5L384.246 31.5"/></g><path stroke="none" d="M392.566 74.842C392.959 74.954,393.155 74.477,393.352 74.14C393.436 74.028,393.492 73.859,393.577 73.747C394.082 72.006,394.363 70.265,394.335 68.552C394.335 66.53,393.942 64.508,393.071 62.487C392.875 62.094,392.762 61.644,392.762 61.167C392.762 60.914,392.762 60.633,392.846 60.381C393.043 59.538,393.155 58.724,393.155 57.938C393.155 57.573,393.127 57.151,393.071 56.758C392.987 56.028,392.706 55.27,392.706 54.54C392.706 54.287,392.706 54.091,392.79 53.838C393.127 52.799,393.268 51.788,393.24 50.89C393.268 46.453,391.583 42.072,387.736 39.742C386.248 38.843,384.9 37.636,384.984 35.558C384.984 35.361,384.844 35.109,384.759 34.968C384.619 34.8,384.619 34.435,384.422 34.463L384.338 34.463C384.114 34.547,383.749 34.631,383.664 35.052C383.58 35.726,383.468 36.428,383.496 37.13C383.608 38.675,383.496 40.135,383.496 41.707C383.496 42.185,383.524 42.718,383.496 43.252C383.496 44.909,383.664 46.565,383.608 48.25C383.608 49.963,383.692 51.648,383.692 53.304C383.692 55.186,384.114 56.927,385.349 58.415C386.135 59.342,387.062 60.072,387.932 60.83C390.404 62.992,391.779 65.744,392.425 68.889C392.51 69.17,392.51 69.479,392.51 69.816C392.51 70.826,392.257 71.837,392.257 72.848C392.257 73.213,392.313 73.606,392.397 73.971C392.481 74.252,392.229 74.758,392.566 74.842M391.499 51.058C390.488 48.615,388.354 47.38,386.894 45.554C386.416 44.937,386.079 44.291,386.051 43.448C388.578 44.544,391.583 48.054,391.583 50.44C391.583 50.693,391.555 50.89,391.499 51.058M391.218 58.949C389.842 57.039,388.073 55.86,386.613 54.315C385.686 53.304,385.349 52.237,385.321 51.058C385.321 50.609,385.405 50.075,385.49 49.57C388.101 52.237,390.937 54.652,391.218 58.949"/></g><g class="vf-tabnote" id="vf-auto15193" pointer-events="bounding-box" font-weight="bold"><rect x="435.348" y="79" width="11.422" height="6" fill="#FFF" stroke="none"/><text stroke="none" font-weight="normal" x="437.348" y="87">6</text><rect x="435.348" y="118" width="11.422" height="6" fill="#FFF" stroke="none"/><text stroke="none" font-weight="normal" x="437.348" y="126">5</text><path stroke-width="1.5" fill="none" d="M441.059 89.5L441.059 113.5"/><g class="vf-stem" id="vf-auto15194" pointer-events="bounding-box"><path stroke-width="1.5" fill="none" d="M441.059 73.5L441.059 27.5"/></g><path stroke="none" d="M450.137 73.775C450.53 73.887,450.811 73.494,450.979 73.129C451.513 71.922,451.709 70.574,451.709 69.198C451.709 67.036,451.092 64.958,450.39 62.908C450.221 62.543,450.081 62.178,450.081 61.728C450.081 61.644,450.137 61.532,450.137 61.392C450.305 60.268,450.502 59.145,450.502 57.938C450.502 57.573,450.502 57.151,450.418 56.786C450.39 56.59,450.39 56.421,450.39 56.225C450.39 55.551,450.586 54.905,450.783 54.259C451.148 52.968,451.344 51.592,451.344 50.216C451.344 49.486,451.26 48.756,451.176 48.054C451.035 46.65,450.081 45.358,450.081 44.066C450.081 43.87,450.081 43.617,450.165 43.42C450.165 43.055,450.221 42.69,450.221 42.325C450.221 41.23,450.081 40.332,449.884 39.461C449.379 37.467,448.115 35.895,446.655 34.463C445.391 33.255,443.875 32.413,442.724 31.065C442.331 30.588,442.05 30.11,442.05 29.408C442.05 28.622,441.853 27.752,441.488 26.994C441.348 26.797,441.32 26.46,441.067 26.46C441.039 26.46,441.039 26.46,440.983 26.516C440.702 26.544,440.337 26.685,440.281 27.022C440.197 27.387,440.14 27.724,440.14 28.032L440.14 28.285C440.281 29.184,440.281 30.054,440.281 30.925L440.281 33.031C440.281 34.042,440.309 35.081,440.477 36.12C440.646 37.215,440.674 38.394,440.674 39.517L440.674 41.483C440.674 41.96,440.702 42.409,440.702 42.887C440.842 44.712,441.235 46.481,441.123 48.25C440.983 49.879,440.87 51.507,440.87 53.08C440.87 53.894,440.927 54.68,440.983 55.495C441.151 57.488,441.966 59.145,443.51 60.381C444.324 61.055,445.111 61.7,445.841 62.402C448.761 65.323,449.884 68.889,449.968 72.876C449.968 73.045,449.94 73.241,449.94 73.41C449.94 73.522,449.968 73.691,450.137 73.775M448.368 42.971C445.532 40.977,442.527 39.152,442.05 35.081C443.707 36.456,445.195 37.748,446.739 39.04C447.497 39.686,448.003 40.584,448.424 41.427C448.564 41.679,448.592 41.876,448.592 42.072C448.592 42.353,448.508 42.634,448.368 42.971M448.677 52.013C446.992 50.356,445.251 48.784,443.622 47.099C442.611 46.032,442.499 44.628,442.443 42.971C444.156 44.796,446.009 46.172,447.834 47.576C448.845 48.334,449.575 49.345,449.575 50.609C449.575 50.974,449.491 51.367,449.379 51.788C449.238 52.097,449.154 52.237,449.042 52.237C448.929 52.237,448.789 52.153,448.677 52.013M448.733 59.903C447.132 57.797,445.026 56.646,443.594 54.765C442.948 53.978,442.611 53.08,442.611 51.957C442.611 51.648,442.611 51.367,442.668 51.142C444.1 53.164,446.093 54.315,447.582 56.028C448.368 56.871,448.761 57.882,448.761 59.229C448.761 59.426,448.761 59.679,448.733 59.903"/></g><g class="vf-tabnote" id="vf-auto15196" pointer-events="bounding-box" font-weight="bold"><rect x="488.944" y="79" width="11.422" height="6" fill="#FFF" stroke="none"/><text stroke="none" font-weight="normal" x="490.944" y="87">6</text><rect x="488.944" y="118" width="11.422" height="6" fill="#FFF" stroke="none"/><text stroke="none" font-weight="normal" x="490.944" y="126">5</text><path stroke-width="1.5" fill="none" d="M494.655 89.5L494.655 113.5"/><g class="vf-stem" id="vf-auto15197" pointer-events="bounding-box"><path stroke-width="1.5" fill="none" d="M494.655 73.5L494.655 18.5"/></g><path stroke="none" d="M502.273 73.017C502.666 73.017,502.89 72.483,503.115 72.118C503.171 72.034,503.171 71.922,503.171 71.837C503.536 70.714,503.648 69.619,503.648 68.468C503.648 66.979,503.396 65.491,503.115 64.003C503.003 63.413,502.89 62.908,502.89 62.346C502.89 61.925,502.975 61.532,503.171 61.083C503.396 60.549,503.368 59.819,503.452 59.173C503.452 59.033,503.48 58.808,503.48 58.612C503.48 57.601,503.255 56.562,503.255 55.495C503.255 54.905,503.283 54.315,503.536 53.726C503.901 52.743,504.042 51.788,504.042 50.777C504.042 49.233,503.677 47.688,503.199 46.172C503.171 46.032,503.115 45.919,503.115 45.751C503.115 45.667,503.115 45.582,503.199 45.526C503.817 44.347,504.098 43.196,504.098 42.044C504.098 40.837,503.761 39.573,503.368 38.282C503.255 37.917,503.087 37.58,503.087 37.299C503.087 37.018,503.199 36.793,503.564 36.456C503.817 36.288,503.929 35.923,503.985 35.614C504.013 35.081,504.042 34.603,504.042 34.098C504.042 31.037,503.031 28.285,500.728 25.983C499.886 25.168,498.931 24.522,498.032 23.764C497.022 22.922,496.011 22.108,496.011 20.619C496.011 20.198,495.814 19.917,495.646 19.608C495.533 19.384,495.533 19.075,495.309 19.075C495.281 19.075,495.253 19.103,495.196 19.103C494.916 19.243,494.522 19.243,494.382 19.665C494.298 20.114,493.905 20.535,493.905 20.928C493.905 21.911,493.989 22.782,493.933 23.792C493.905 25,493.905 26.151,493.905 27.33C493.905 27.696,493.905 28.089,493.933 28.454C494.073 29.773,494.522 31.037,494.522 32.385C494.522 33.817,494.579 35.333,494.579 36.906C494.579 37.467,494.551 38.085,494.522 38.647C494.466 39.461,494.438 40.219,494.438 41.034C494.438 42.072,494.466 43.168,494.466 44.207C494.466 45.554,494.438 46.93,494.27 48.25C494.185 49.036,494.157 49.766,494.157 50.581C494.157 51.788,494.242 52.996,494.242 54.175C494.242 55.27,494.719 56.056,495.477 56.843C496.909 58.247,498.397 59.622,499.436 61.335C501.346 64.396,501.655 67.906,501.992 71.388C501.992 71.585,501.964 71.809,501.992 72.006C502.02 72.202,501.964 72.455,501.964 72.652C501.964 72.876,501.992 73.017,502.273 73.017M502.441 36.288C500.335 33.312,497.05 31.121,496.011 27.162C500.447 30.475,502.469 32.441,502.441 36.288M501.514 42.55C500.447 40.893,498.931 39.77,497.471 38.478C496.6 37.748,496.179 36.934,496.179 35.811C496.179 35.558,496.207 35.333,496.263 35.052C498.061 37.636,500.7 39.405,501.514 42.55M501.739 51.62C500.447 49.766,498.959 48.334,497.611 46.762C496.825 45.891,496.179 44.88,496.179 43.645C496.179 43.448,496.179 43.252,496.207 43.055C498.594 44.01,501.458 48.39,501.739 51.62M500.897 57.601C499.436 55.102,496.376 53.726,495.842 50.525C497.583 52.883,500.335 54.484,500.897 57.601"/></g></svg>