<svg xmlns="http://www.w3.org/2000/svg" stroke-width="0.3" stroke-dasharray="none" fill="black" stroke="black" font-family="Arial, sans-serif" font-size="10pt" font-weight="normal" font-style="normal" width="500" height="200" viewBox="0 0 500 200" style="width: 500px; height: 200px; border: none;"><g class="vf-stave" id="vf-auto30836" stroke-width="1" fill="#999999" stroke="#999999"><path fill="none" d="M0 40L490 40"/><path fill="none" d="M0 50L490 50"/><path fill="none" d="M0 60L490 60"/><path fill="none" d="M0 70L490 70"/><path fill="none" d="M0 80L490 80"/></g><g class="vf-stavebarline" id="vf-auto30837"><rect y="39.5" width="1" height="41" stroke="none"/></g><g class="vf-stavebarline" id="vf-auto30838"><rect x="490" y="39.5" width="1" height="41" stroke="none"/></g><g class="vf-stavenote" id="vf-auto30839"><path stroke-width="1.4" fill="none" stroke="#444" d="M24 90L41.934 90"/><g class="vf-stem" id="vf-auto30840" pointer-events="bounding-box"><path stroke-width="1.5" fill="none" d="M38.184 88L38.184 35"/></g><g class="vf-notehead" id="vf-auto30847" pointer-events="bounding-box"><path stroke="none" d="M30.931 95.054C34.525 95.054,38.934 91.741,38.934 88.315C38.934 86.237,37.305 84.946,35.003 84.946C30.566 84.946,27 88.231,27 91.685C27 93.791,28.741 95.054,30.931 95.054"/><path stroke="none" d="M19.776 74.849C19.83 74.849,19.858 74.795,19.885 74.795C20.077 74.795,20.268 74.986,20.87 75.643C21.937 76.874,22.238 77.394,22.238 78.133C22.238 78.215,22.238 78.242,22.238 78.324C22.211 79.2,21.8 79.966,20.815 80.978C20.159 81.662,19.612 82.456,19.365 83.003C19.338 83.085,19.311 83.194,19.311 83.304C19.311 83.687,19.529 84.152,19.967 84.644C20.131 84.836,20.186 84.973,20.186 85.055C20.186 85.137,20.159 85.164,20.077 85.246C20.049 85.301,19.967 85.301,19.94 85.301C19.83 85.301,19.721 85.219,19.529 85.027C18.435 83.988,17.86 83.14,17.669 82.62C17.614 82.401,17.587 82.127,17.587 81.908C17.587 81.06,18.025 80.157,19.01 79.118C19.666 78.434,20.241 77.64,20.46 77.148C20.542 77.038,20.542 76.929,20.542 76.819C20.542 76.436,20.296 75.971,19.858 75.479C19.666 75.26,19.639 75.205,19.639 75.15C19.639 75.096,19.639 75.096,19.639 75.068C19.639 74.959,19.721 74.877,19.776 74.849"/><path stroke="none" d="M19.776 84.849C19.83 84.849,19.858 84.795,19.885 84.795C20.077 84.795,20.268 84.986,20.87 85.643C21.937 86.874,22.238 87.394,22.238 88.133C22.238 88.215,22.238 88.242,22.238 88.324C22.211 89.2,21.8 89.966,20.815 90.978C20.159 91.662,19.612 92.456,19.365 93.003C19.338 93.085,19.311 93.194,19.311 93.304C19.311 93.687,19.529 94.152,19.967 94.644C20.131 94.836,20.186 94.973,20.186 95.055C20.186 95.137,20.159 95.164,20.077 95.246C20.049 95.301,19.967 95.301,19.94 95.301C19.83 95.301,19.721 95.219,19.529 95.027C18.435 93.988,17.86 93.14,17.669 92.62C17.614 92.401,17.587 92.127,17.587 91.908C17.587 91.06,18.025 90.157,19.01 89.118C19.666 88.434,20.241 87.64,20.46 87.148C20.542 87.038,20.542 86.929,20.542 86.819C20.542 86.436,20.296 85.971,19.858 85.479C19.666 85.26,19.639 85.205,19.639 85.15C19.639 85.096,19.639 85.096,19.639 85.068C19.639 84.959,19.721 84.877,19.776 84.849"/><path stroke="none" d="M19.776 94.849C19.83 94.849,19.858 94.795,19.885 94.795C20.077 94.795,20.268 94.986,20.87 95.643C21.937 96.874,22.238 97.394,22.238 98.133C22.238 98.215,22.238 98.242,22.238 98.324C22.211 99.2,21.8 99.966,20.815 100.978C20.159 101.662,19.612 102.456,19.365 103.003C19.338 103.085,19.311 103.194,19.311 103.304C19.311 103.687,19.529 104.152,19.967 104.644C20.131 104.836,20.186 104.973,20.186 105.055C20.186 105.137,20.159 105.164,20.077 105.246C20.049 105.301,19.967 105.301,19.94 105.301C19.83 105.301,19.721 105.219,19.529 105.027C18.435 103.988,17.86 103.14,17.669 102.62C17.614 102.401,17.587 102.127,17.587 101.908C17.587 101.06,18.025 100.157,19.01 99.118C19.666 98.434,20.241 97.64,20.46 97.148C20.542 97.038,20.542 96.929,20.542 96.819C20.542 96.436,20.296 95.971,19.858 95.479C19.666 95.26,19.639 95.205,19.639 95.15C19.639 95.096,19.639 95.096,19.639 95.068C19.639 94.959,19.721 94.877,19.776 94.849"/><path stroke="none" d="M19.776 104.849C19.83 104.849,19.858 104.795,19.885 104.795C20.077 104.795,20.268 104.986,20.87 105.643C21.937 106.874,22.238 107.394,22.238 108.133C22.238 108.215,22.238 108.242,22.238 108.324C22.211 109.2,21.8 109.966,20.815 110.978C20.159 111.662,19.612 112.456,19.365 113.003C19.338 113.085,19.311 113.194,19.311 113.304C19.311 113.687,19.529 114.152,19.967 114.644C20.131 114.836,20.186 114.973,20.186 115.055C20.186 115.137,20.159 115.164,20.077 115.246C20.049 115.301,19.967 115.301,19.94 115.301C19.83 115.301,19.721 115.219,19.529 115.027C18.435 113.988,17.86 113.14,17.669 112.62C17.614 112.401,17.587 112.127,17.587 111.908C17.587 111.06,18.025 110.157,19.01 109.118C19.666 108.434,20.241 107.64,20.46 107.148C20.542 107.038,20.542 106.929,20.542 106.819C20.542 106.436,20.296 105.971,19.858 105.479C19.666 105.26,19.639 105.205,19.639 105.15C19.639 105.096,19.639 105.096,19.639 105.068C19.639 104.959,19.721 104.877,19.776 104.849"/><path stroke="none" d="M19.776 114.849C19.83 114.849,19.858 114.795,19.885 114.795C20.077 114.795,20.268 114.986,20.87 115.643C21.937 116.874,22.238 117.394,22.238 118.133C22.238 118.215,22.238 118.242,22.238 118.324C22.211 119.2,21.8 119.966,20.815 120.978C20.159 121.662,19.612 122.456,19.365 123.003C19.338 123.085,19.311 123.194,19.311 123.304C19.311 123.687,19.529 124.152,19.967 124.644C20.131 124.836,20.186 124.973,20.186 125.055C20.186 125.137,20.159 125.164,20.077 125.246C20.049 125.301,19.967 125.301,19.94 125.301C19.83 125.301,19.721 125.219,19.529 125.027C18.435 123.988,17.86 123.14,17.669 122.62C17.614 122.401,17.587 122.127,17.587 121.908C17.587 121.06,18.025 120.157,19.01 119.118C19.666 118.434,20.241 117.64,20.46 117.148C20.542 117.038,20.542 116.929,20.542 116.819C20.542 116.436,20.296 115.971,19.858 115.479C19.666 115.26,19.639 115.205,19.639 115.15C19.639 115.096,19.639 115.096,19.639 115.068C19.639 114.959,19.721 114.877,19.776 114.849"/><path stroke="none" d="M20.542 64.208C19.037 68.503,16 75.179,16 75.453C16 75.672,16.164 76,16.438 76L16.465 75.973C17.176 75.562,20.378 74.632,20.542 74.632C20.679 74.632,23.907 75.644,24.482 75.973L24.509 76C24.783 76,24.974 75.672,24.974 75.453C24.974 75.179,22.019 68.503,20.542 64.208"/><text stroke="none" font-family="Times New Roman, serif" font-weight="bold" font-style="italic" x="15" y="137">R</text></g><g class="vf-notehead" id="vf-auto30848" pointer-events="bounding-box"><path stroke="none" d="M30.931 85.054C34.525 85.054,38.934 81.741,38.934 78.315C38.934 76.237,37.305 74.946,35.003 74.946C30.566 74.946,27 78.231,27 81.685C27 83.791,28.741 85.054,30.931 85.054"/></g><g class="vf-notehead" id="vf-auto30849" pointer-events="bounding-box"><path stroke="none" d="M30.931 75.054C34.525 75.054,38.934 71.741,38.934 68.315C38.934 66.237,37.305 64.946,35.003 64.946C30.566 64.946,27 68.231,27 71.685C27 73.791,28.741 75.054,30.931 75.054"/></g></g><g class="vf-stavenote" id="vf-auto30850"><path stroke-width="1.4" fill="none" stroke="#444" d="M141.5 90L159.434 90"/><g class="vf-stem" id="vf-auto30851" pointer-events="bounding-box"><path stroke-width="1.5" fill="none" d="M155.684 88L155.684 35"/></g><g class="vf-notehead" id="vf-auto30858" pointer-events="bounding-box"><path stroke="none" d="M148.431 95.054C152.025 95.054,156.434 91.741,156.434 88.315C156.434 86.237,154.805 84.946,152.503 84.946C148.066 84.946,144.5 88.231,144.5 91.685C144.5 93.791,146.241 95.054,148.431 95.054"/><path stroke="none" d="M108.631 64.849C108.686 64.849,108.713 64.795,108.741 64.795C108.932 64.795,109.124 64.986,109.726 65.643C110.793 66.874,111.094 67.394,111.094 68.133C111.094 68.215,111.094 68.242,111.094 68.324C111.066 69.2,110.656 69.966,109.671 70.978C109.014 71.662,108.467 72.456,108.221 73.003C108.193 73.085,108.166 73.194,108.166 73.304C108.166 73.687,108.385 74.152,108.823 74.644C108.987 74.836,109.042 74.973,109.042 75.055C109.042 75.137,109.014 75.164,108.932 75.246C108.905 75.301,108.823 75.301,108.795 75.301C108.686 75.301,108.576 75.219,108.385 75.027C107.291 73.988,106.716 73.14,106.524 72.62C106.47 72.401,106.442 72.127,106.442 71.908C106.442 71.06,106.88 70.157,107.865 69.118C108.522 68.434,109.096 67.64,109.315 67.148C109.397 67.038,109.397 66.929,109.397 66.819C109.397 66.436,109.151 65.971,108.713 65.479C108.522 65.26,108.494 65.205,108.494 65.15C108.494 65.096,108.494 65.096,108.494 65.068C108.494 64.959,108.576 64.877,108.631 64.849"/><path stroke="none" d="M108.631 74.849C108.686 74.849,108.713 74.795,108.741 74.795C108.932 74.795,109.124 74.986,109.726 75.643C110.793 76.874,111.094 77.394,111.094 78.133C111.094 78.215,111.094 78.242,111.094 78.324C111.066 79.2,110.656 79.966,109.671 80.978C109.014 81.662,108.467 82.456,108.221 83.003C108.193 83.085,108.166 83.194,108.166 83.304C108.166 83.687,108.385 84.152,108.823 84.644C108.987 84.836,109.042 84.973,109.042 85.055C109.042 85.137,109.014 85.164,108.932 85.246C108.905 85.301,108.823 85.301,108.795 85.301C108.686 85.301,108.576 85.219,108.385 85.027C107.291 83.988,106.716 83.14,106.524 82.62C106.47 82.401,106.442 82.127,106.442 81.908C106.442 81.06,106.88 80.157,107.865 79.118C108.522 78.434,109.096 77.64,109.315 77.148C109.397 77.038,109.397 76.929,109.397 76.819C109.397 76.436,109.151 75.971,108.713 75.479C108.522 75.26,108.494 75.205,108.494 75.15C108.494 75.096,108.494 75.096,108.494 75.068C108.494 74.959,108.576 74.877,108.631 74.849"/><path stroke="none" d="M108.631 84.849C108.686 84.849,108.713 84.795,108.741 84.795C108.932 84.795,109.124 84.986,109.726 85.643C110.793 86.874,111.094 87.394,111.094 88.133C111.094 88.215,111.094 88.242,111.094 88.324C111.066 89.2,110.656 89.966,109.671 90.978C109.014 91.662,108.467 92.456,108.221 93.003C108.193 93.085,108.166 93.194,108.166 93.304C108.166 93.687,108.385 94.152,108.823 94.644C108.987 94.836,109.042 94.973,109.042 95.055C109.042 95.137,109.014 95.164,108.932 95.246C108.905 95.301,108.823 95.301,108.795 95.301C108.686 95.301,108.576 95.219,108.385 95.027C107.291 93.988,106.716 93.14,106.524 92.62C106.47 92.401,106.442 92.127,106.442 91.908C106.442 91.06,106.88 90.157,107.865 89.118C108.522 88.434,109.096 87.64,109.315 87.148C109.397 87.038,109.397 86.929,109.397 86.819C109.397 86.436,109.151 85.971,108.713 85.479C108.522 85.26,108.494 85.205,108.494 85.15C108.494 85.096,108.494 85.096,108.494 85.068C108.494 84.959,108.576 84.877,108.631 84.849"/><path stroke="none" d="M108.631 94.849C108.686 94.849,108.713 94.795,108.741 94.795C108.932 94.795,109.124 94.986,109.726 95.643C110.793 96.874,111.094 97.394,111.094 98.133C111.094 98.215,111.094 98.242,111.094 98.324C111.066 99.2,110.656 99.966,109.671 100.978C109.014 101.662,108.467 102.456,108.221 103.003C108.193 103.085,108.166 103.194,108.166 103.304C108.166 103.687,108.385 104.152,108.823 104.644C108.987 104.836,109.042 104.973,109.042 105.055C109.042 105.137,109.014 105.164,108.932 105.246C108.905 105.301,108.823 105.301,108.795 105.301C108.686 105.301,108.576 105.219,108.385 105.027C107.291 103.988,106.716 103.14,106.524 102.62C106.47 102.401,106.442 102.127,106.442 101.908C106.442 101.06,106.88 100.157,107.865 99.118C108.522 98.434,109.096 97.64,109.315 97.148C109.397 97.038,109.397 96.929,109.397 96.819C109.397 96.436,109.151 95.971,108.713 95.479C108.522 95.26,108.494 95.205,108.494 95.15C108.494 95.096,108.494 95.096,108.494 95.068C108.494 94.959,108.576 94.877,108.631 94.849"/><path stroke="none" d="M108.631 104.849C108.686 104.849,108.713 104.795,108.741 104.795C108.932 104.795,109.124 104.986,109.726 105.643C110.793 106.874,111.094 107.394,111.094 108.133C111.094 108.215,111.094 108.242,111.094 108.324C111.066 109.2,110.656 109.966,109.671 110.978C109.014 111.662,108.467 112.456,108.221 113.003C108.193 113.085,108.166 113.194,108.166 113.304C108.166 113.687,108.385 114.152,108.823 114.644C108.987 114.836,109.042 114.973,109.042 115.055C109.042 115.137,109.014 115.164,108.932 115.246C108.905 115.301,108.823 115.301,108.795 115.301C108.686 115.301,108.576 115.219,108.385 115.027C107.291 113.988,106.716 113.14,106.524 112.62C106.47 112.401,106.442 112.127,106.442 111.908C106.442 111.06,106.88 110.157,107.865 109.118C108.522 108.434,109.096 107.64,109.315 107.148C109.397 107.038,109.397 106.929,109.397 106.819C109.397 106.436,109.151 105.971,108.713 105.479C108.522 105.26,108.494 105.205,108.494 105.15C108.494 105.096,108.494 105.096,108.494 105.068C108.494 104.959,108.576 104.877,108.631 104.849"/><path stroke="none" d="M108.397 126C109.875 121.704,112.83 115.056,112.83 114.782C112.83 114.536,112.638 114.208,112.364 114.208L112.337 114.263C111.763 114.564,108.534 115.603,108.397 115.603C108.233 115.603,105.032 114.646,104.321 114.263L104.293 114.208C104.02 114.208,103.856 114.536,103.856 114.782C103.856 115.056,106.892 121.704,108.397 126"/><text stroke="none" font-family="Times New Roman, serif" font-weight="bold" font-style="italic" x="103.856" y="62.5">R</text><path stroke="none" d="M128.185 85.349C128.459 85.239,128.678 84.911,128.678 84.692L128.678 81.874C128.678 81.683,128.541 81.573,128.377 81.573C128.322 81.573,128.267 81.573,128.185 81.6C128.185 81.6,127.392 81.929,127.2 81.956C126.927 81.956,126.653 81.765,126.653 81.464L126.653 76.648C126.653 76.402,126.407 76.211,126.106 76.211C125.723 76.211,125.477 76.402,125.477 76.648L125.477 81.765C125.422 82.148,125.312 82.668,124.957 82.914C124.492 83.187,123.151 83.735,122.467 83.899C122.139 83.899,122.002 83.434,122.002 83.105L122.002 78.372C122.002 78.153,121.728 77.934,121.455 77.934C121.072 77.934,120.825 78.153,120.825 78.372L120.825 83.707C120.825 84.254,120.579 84.637,120.36 84.747C120.114 84.884,119.321 85.185,119.321 85.185C119.047 85.267,118.856 85.595,118.856 85.814L118.856 88.632C118.856 88.851,118.965 88.988,119.211 88.988L119.293 88.933C119.321 88.933,119.923 88.687,120.224 88.55L120.278 88.495C120.579 88.495,120.825 88.906,120.825 89.207L120.825 93.119C120.825 93.557,120.634 93.912,120.388 94.022C120.169 94.104,119.321 94.46,119.321 94.46C119.047 94.542,118.856 94.843,118.856 95.089L118.856 97.88C118.856 98.126,118.965 98.235,119.211 98.235L119.293 98.208C119.321 98.208,119.868 97.962,120.224 97.852C120.278 97.798,120.306 97.798,120.36 97.798C120.634 97.798,120.825 98.235,120.825 98.427L120.825 103.27C120.825 103.516,121.072 103.707,121.345 103.707C121.728 103.707,122.002 103.516,122.002 103.27L122.002 97.798C122.002 97.278,122.193 97.004,122.412 96.922L124.793 95.937C124.793 95.937,124.847 95.937,124.847 95.937L124.929 95.91C125.285 95.91,125.477 96.375,125.477 96.621L125.477 101.546C125.477 101.792,125.723 101.984,125.996 101.984C126.407 101.984,126.653 101.792,126.653 101.546L126.653 95.937C126.653 95.636,126.817 95.171,127.091 95.034C127.364 94.925,128.185 94.596,128.185 94.596C128.459 94.487,128.678 94.186,128.678 93.94L128.678 91.149C128.678 90.958,128.541 90.821,128.377 90.821C128.322 90.821,128.267 90.821,128.185 90.876L127.173 91.259C126.927 91.259,126.653 91.012,126.653 90.547L126.653 86.881C126.653 86.607,126.845 85.869,127.173 85.732M125.477 91.778C125.23 92.572,123.397 93.338,122.467 93.338C122.248 93.338,122.057 93.283,122.002 93.146C121.92 92.982,121.892 92.134,121.892 91.176C121.892 89.973,121.92 88.577,122.002 88.276C122.084 87.592,123.89 86.772,124.875 86.772C125.148 86.772,125.395 86.854,125.477 87.018C125.559 87.209,125.641 88.194,125.641 89.261C125.641 90.328,125.559 91.423,125.477 91.778"/></g><g class="vf-notehead" id="vf-auto30859" pointer-events="bounding-box"><path stroke="none" d="M148.431 85.054C152.025 85.054,156.434 81.741,156.434 78.315C156.434 76.237,154.805 74.946,152.503 74.946C148.066 74.946,144.5 78.231,144.5 81.685C144.5 83.791,146.241 85.054,148.431 85.054"/></g><g class="vf-notehead" id="vf-auto30860" pointer-events="bounding-box"><path stroke="none" d="M148.431 75.054C152.025 75.054,156.434 71.741,156.434 68.315C156.434 66.237,154.805 64.946,152.503 64.946C148.066 64.946,144.5 68.231,144.5 71.685C144.5 73.791,146.241 75.054,148.431 75.054"/><path stroke="none" d="M141.008 65.349C141.281 65.239,141.5 64.911,141.5 64.692L141.5 61.874C141.5 61.683,141.363 61.573,141.199 61.573C141.144 61.573,141.09 61.573,141.008 61.6C141.008 61.6,140.214 61.929,140.023 61.956C139.749 61.956,139.475 61.765,139.475 61.464L139.475 56.648C139.475 56.402,139.229 56.211,138.928 56.211C138.545 56.211,138.299 56.402,138.299 56.648L138.299 61.765C138.244 62.148,138.135 62.668,137.779 62.914C137.314 63.187,135.973 63.735,135.289 63.899C134.961 63.899,134.824 63.434,134.824 63.105L134.824 58.372C134.824 58.153,134.551 57.934,134.277 57.934C133.894 57.934,133.648 58.153,133.648 58.372L133.648 63.707C133.648 64.254,133.401 64.637,133.183 64.747C132.936 64.884,132.143 65.185,132.143 65.185C131.869 65.267,131.678 65.595,131.678 65.814L131.678 68.632C131.678 68.851,131.787 68.988,132.033 68.988L132.116 68.933C132.143 68.933,132.745 68.687,133.046 68.55L133.1 68.495C133.401 68.495,133.648 68.906,133.648 69.207L133.648 73.119C133.648 73.557,133.456 73.912,133.21 74.022C132.991 74.104,132.143 74.46,132.143 74.46C131.869 74.542,131.678 74.843,131.678 75.089L131.678 77.88C131.678 78.126,131.787 78.235,132.033 78.235L132.116 78.208C132.143 78.208,132.69 77.962,133.046 77.852C133.1 77.798,133.128 77.798,133.183 77.798C133.456 77.798,133.648 78.235,133.648 78.427L133.648 83.27C133.648 83.516,133.894 83.707,134.168 83.707C134.551 83.707,134.824 83.516,134.824 83.27L134.824 77.798C134.824 77.278,135.016 77.004,135.235 76.922L137.615 75.937C137.615 75.937,137.67 75.937,137.67 75.937L137.752 75.91C138.107 75.91,138.299 76.375,138.299 76.621L138.299 81.546C138.299 81.792,138.545 81.984,138.819 81.984C139.229 81.984,139.475 81.792,139.475 81.546L139.475 75.937C139.475 75.636,139.64 75.171,139.913 75.034C140.187 74.925,141.008 74.596,141.008 74.596C141.281 74.487,141.5 74.186,141.5 73.94L141.5 71.149C141.5 70.958,141.363 70.821,141.199 70.821C141.144 70.821,141.09 70.821,141.008 70.876L139.995 71.259C139.749 71.259,139.475 71.012,139.475 70.547L139.475 66.881C139.475 66.607,139.667 65.869,139.995 65.732M138.299 71.778C138.053 72.572,136.22 73.338,135.289 73.338C135.07 73.338,134.879 73.283,134.824 73.146C134.742 72.982,134.715 72.134,134.715 71.176C134.715 69.973,134.742 68.577,134.824 68.276C134.906 67.592,136.712 66.772,137.697 66.772C137.971 66.772,138.217 66.854,138.299 67.018C138.381 67.209,138.463 68.194,138.463 69.261C138.463 70.328,138.381 71.423,138.299 71.778"/></g></g><g class="vf-stavenote" id="vf-auto30861"><path stroke-width="1.4" fill="none" stroke="#444" d="M259 90L276.934 90"/><g class="vf-stem" id="vf-auto30862" pointer-events="bounding-box"><path stroke-width="1.5" fill="none" d="M273.184 88L273.184 30"/></g><g class="vf-notehead" id="vf-auto30869" pointer-events="bounding-box"><path stroke="none" d="M265.931 95.054C269.525 95.054,273.934 91.741,273.934 88.315C273.934 86.237,272.305 84.946,270.003 84.946C265.566 84.946,262 88.231,262 91.685C262 93.791,263.741 95.054,265.931 95.054"/><rect x="255" y="60" width="1" height="55" stroke="none"/><path stroke="none" d="M255.542 120C257.019 115.704,259.974 109.056,259.974 108.782C259.974 108.536,259.783 108.208,259.509 108.208L259.482 108.263C258.907 108.564,255.679 109.603,255.542 109.603C255.378 109.603,252.176 108.646,251.465 108.263L251.438 108.208C251.164 108.208,251 108.536,251 108.782C251 109.056,254.037 115.704,255.542 120"/></g><g class="vf-notehead" id="vf-auto30870" pointer-events="bounding-box"><path stroke="none" d="M277.115 90.054C280.709 90.054,285.118 86.741,285.118 83.315C285.118 81.237,283.489 79.946,281.187 79.946C276.75 79.946,273.184 83.231,273.184 86.685C273.184 88.791,274.925 90.054,277.115 90.054"/></g><g class="vf-notehead" id="vf-auto30871" pointer-events="bounding-box"><path stroke="none" d="M265.931 70.054C269.525 70.054,273.934 66.741,273.934 63.315C273.934 61.237,272.305 59.946,270.003 59.946C265.566 59.946,262 63.231,262 66.685C262 68.791,263.741 70.054,265.931 70.054"/></g></g><g class="vf-stavenote" id="vf-auto30872"><path stroke-width="1.4" fill="none" stroke="#444" d="M376.5 90L394.434 90"/><g class="vf-stem" id="vf-auto30873" pointer-events="bounding-box"><path stroke-width="1.5" fill="none" d="M390.684 88L390.684 30"/></g><g class="vf-notehead" id="vf-auto30880" pointer-events="bounding-box"><path stroke="none" d="M383.431 95.054C387.025 95.054,391.434 91.741,391.434 88.315C391.434 86.237,389.805 84.946,387.503 84.946C383.066 84.946,379.5 88.231,379.5 91.685C379.5 93.791,381.241 95.054,383.431 95.054"/><rect x="372.5" y="65" width="1" height="55" stroke="none"/><path stroke="none" d="M373.192 58.208C371.687 62.503,368.65 69.179,368.65 69.453C368.65 69.672,368.814 70,369.088 70L369.115 69.973C369.826 69.562,373.028 68.632,373.192 68.632C373.329 68.632,376.557 69.644,377.132 69.973L377.159 70C377.433 70,377.624 69.672,377.624 69.453C377.624 69.179,374.669 62.503,373.192 58.208"/></g><g class="vf-notehead" id="vf-auto30881" pointer-events="bounding-box"><path stroke="none" d="M394.615 90.054C398.209 90.054,402.618 86.741,402.618 83.315C402.618 81.237,400.989 79.946,398.687 79.946C394.25 79.946,390.684 83.231,390.684 86.685C390.684 88.791,392.425 90.054,394.615 90.054"/></g><g class="vf-notehead" id="vf-auto30882" pointer-events="bounding-box"><path stroke="none" d="M383.431 70.054C387.025 70.054,391.434 66.741,391.434 63.315C391.434 61.237,389.805 59.946,387.503 59.946C383.066 59.946,379.5 63.231,379.5 66.685C379.5 68.791,381.241 70.054,383.431 70.054"/></g></g><g class="vf-stavenote" id="vf-auto30891"><path stroke-width="1.4" fill="none" stroke="#444" d="M24 90L41.934 90"/><path stroke-width="1.4" fill="none" stroke="#444" d="M24 100L41.934 100"/><path stroke-width="1.4" fill="none" stroke="#444" d="M24 110L41.934 110"/><g class="vf-notehead" id="vf-auto30897" pointer-events="bounding-box"><path stroke="none" d="M30.931 120.054C34.525 120.054,38.934 116.741,38.934 113.315C38.934 111.237,37.305 109.946,35.003 109.946C30.566 109.946,27 113.231,27 116.685C27 118.791,28.741 120.054,30.931 120.054"/></g></g><g class="vf-stavenote" id="vf-auto30899"><path stroke-width="1.4" fill="none" stroke="#444" d="M82.75 90L100.684 90"/><path stroke-width="1.4" fill="none" stroke="#444" d="M82.75 100L100.684 100"/><path stroke-width="1.4" fill="none" stroke="#444" d="M82.75 110L100.684 110"/><g class="vf-notehead" id="vf-auto30905" pointer-events="bounding-box"><path stroke="none" d="M89.681 120.054C93.275 120.054,97.684 116.741,97.684 113.315C97.684 111.237,96.055 109.946,93.753 109.946C89.316 109.946,85.75 113.231,85.75 116.685C85.75 118.791,87.491 120.054,89.681 120.054"/></g></g><g class="vf-stavenote" id="vf-auto30907"><path stroke-width="1.4" fill="none" stroke="#444" d="M141.5 90L159.434 90"/><path stroke-width="1.4" fill="none" stroke="#444" d="M141.5 100L159.434 100"/><path stroke-width="1.4" fill="none" stroke="#444" d="M141.5 110L159.434 110"/><g class="vf-notehead" id="vf-auto30913" pointer-events="bounding-box"><path stroke="none" d="M148.431 120.054C152.025 120.054,156.434 116.741,156.434 113.315C156.434 111.237,154.805 109.946,152.503 109.946C148.066 109.946,144.5 113.231,144.5 116.685C144.5 118.791,146.241 120.054,148.431 120.054"/></g></g><g class="vf-stavenote" id="vf-auto30915"><path stroke-width="1.4" fill="none" stroke="#444" d="M200.25 90L218.184 90"/><path stroke-width="1.4" fill="none" stroke="#444" d="M200.25 100L218.184 100"/><path stroke-width="1.4" fill="none" stroke="#444" d="M200.25 110L218.184 110"/><g class="vf-notehead" id="vf-auto30921" pointer-events="bounding-box"><path stroke="none" d="M207.181 120.054C210.775 120.054,215.184 116.741,215.184 113.315C215.184 111.237,213.555 109.946,211.253 109.946C206.816 109.946,203.25 113.231,203.25 116.685C203.25 118.791,204.991 120.054,207.181 120.054"/></g></g><g class="vf-stavenote" id="vf-auto30923"><path stroke-width="1.4" fill="none" stroke="#444" d="M259 90L276.934 90"/><path stroke-width="1.4" fill="none" stroke="#444" d="M259 100L276.934 100"/><path stroke-width="1.4" fill="none" stroke="#444" d="M259 110L276.934 110"/><g class="vf-notehead" id="vf-auto30929" pointer-events="bounding-box"><path stroke="none" d="M265.931 120.054C269.525 120.054,273.934 116.741,273.934 113.315C273.934 111.237,272.305 109.946,270.003 109.946C265.566 109.946,262 113.231,262 116.685C262 118.791,263.741 120.054,265.931 120.054"/></g></g><g class="vf-stavenote" id="vf-auto30931"><path stroke-width="1.4" fill="none" stroke="#444" d="M317.75 90L335.684 90"/><path stroke-width="1.4" fill="none" stroke="#444" d="M317.75 100L335.684 100"/><path stroke-width="1.4" fill="none" stroke="#444" d="M317.75 110L335.684 110"/><g class="vf-notehead" id="vf-auto30937" pointer-events="bounding-box"><path stroke="none" d="M324.681 120.054C328.275 120.054,332.684 116.741,332.684 113.315C332.684 111.237,331.055 109.946,328.753 109.946C324.316 109.946,320.75 113.231,320.75 116.685C320.75 118.791,322.491 120.054,324.681 120.054"/></g></g><g class="vf-stavenote" id="vf-auto30939"><path stroke-width="1.4" fill="none" stroke="#444" d="M376.5 90L394.434 90"/><path stroke-width="1.4" fill="none" stroke="#444" d="M376.5 100L394.434 100"/><path stroke-width="1.4" fill="none" stroke="#444" d="M376.5 110L394.434 110"/><g class="vf-notehead" id="vf-auto30945" pointer-events="bounding-box"><path stroke="none" d="M383.431 120.054C387.025 120.054,391.434 116.741,391.434 113.315C391.434 111.237,389.805 109.946,387.503 109.946C383.066 109.946,379.5 113.231,379.5 116.685C379.5 118.791,381.241 120.054,383.431 120.054"/></g></g><g class="vf-stavenote" id="vf-auto30947"><path stroke-width="1.4" fill="none" stroke="#444" d="M435.25 90L453.184 90"/><path stroke-width="1.4" fill="none" stroke="#444" d="M435.25 100L453.184 100"/><path stroke-width="1.4" fill="none" stroke="#444" d="M435.25 110L453.184 110"/><g class="vf-notehead" id="vf-auto30953" pointer-events="bounding-box"><path stroke="none" d="M442.181 120.054C445.775 120.054,450.184 116.741,450.184 113.315C450.184 111.237,448.555 109.946,446.253 109.946C441.816 109.946,438.25 113.231,438.25 116.685C438.25 118.791,439.991 120.054,442.181 120.054"/></g></g><g class="vf-stem" id="vf-auto30892" pointer-events="bounding-box"><path stroke-width="1.5" fill="none" d="M27.75 117L27.75 149.25"/></g><g class="vf-stem" id="vf-auto30900" pointer-events="bounding-box"><path stroke-width="1.5" fill="none" d="M86.5 117L86.5 149.25"/></g><g class="vf-stem" id="vf-auto30908" pointer-events="bounding-box"><path stroke-width="1.5" fill="none" d="M145.25 117L145.25 149.25"/></g><g class="vf-stem" id="vf-auto30916" pointer-events="bounding-box"><path stroke-width="1.5" fill="none" d="M204 117L204 149.25"/></g><g class="vf-beam" id="vf-auto30955"><path stroke="none" d="M27 150L27 145L204.25 145L204.25 150Z"/></g><g class="vf-stem" id="vf-auto30924" pointer-events="bounding-box"><path stroke-width="1.5" fill="none" d="M262.75 117L262.75 149.25"/></g><g class="vf-stem" id="vf-auto30932" pointer-events="bounding-box"><path stroke-width="1.5" fill="none" d="M321.5 117L321.5 149.25"/></g><g class="vf-stem" id="vf-auto30940" pointer-events="bounding-box"><path stroke-width="1.5" fill="none" d="M380.25 117L380.25 149.25"/></g><g class="vf-stem" id="vf-auto30948" pointer-events="bounding-box"><path stroke-width="1.5" fill="none" d="M439 117L439 149.25"/></g><g class="vf-beam" id="vf-auto30956"><path stroke="none" d="M262 150L262 145L439.25 145L439.25 150Z"/></g></svg>