<svg xmlns="http://www.w3.org/2000/svg" stroke-width="0.3" stroke-dasharray="none" fill="black" stroke="black" font-family="Arial, sans-serif" font-size="10pt" font-weight="normal" font-style="normal" width="600" height="230" viewBox="0 0 600 230" style="width: 600px; height: 230px; border: none;"><g class="vf-stave" id="vf-auto28360" stroke-width="1" fill="#999999" stroke="#999999"><path fill="none" d="M0 80L590 80"/><path fill="none" d="M0 90L590 90"/><path fill="none" d="M0 100L590 100"/><path fill="none" d="M0 110L590 110"/><path fill="none" d="M0 120L590 120"/></g><g class="vf-stavebarline" id="vf-auto28361"><rect y="79.5" width="1" height="41" stroke="none"/></g><g class="vf-stavebarline" id="vf-auto28362"><rect x="590" y="79.5" width="1" height="41" stroke="none"/></g><g class="vf-stavenote" id="vf-auto28363"><path stroke-width="1.4" fill="none" stroke="#444" d="M51.724 130L69.658 130"/><g class="vf-stem" id="vf-auto28364" pointer-events="bounding-box"><path stroke-width="1.5" fill="none" d="M55.474 107.65L55.474 165"/></g><g class="vf-notehead" id="vf-auto28370" pointer-events="bounding-box"><path stroke="none" d="M58.655 135.054C65.31 135.054,66.658 129.635,66.658 128.315C66.658 126.237,65.001 124.946,62.642 124.946C56.633 124.946,54.724 129.607,54.724 131.685C54.724 133.847,56.408 135.054,58.655 135.054M57.756 133.51C56.914 133.51,56.408 133.061,56.128 132.583C56.015 132.359,55.903 132.05,55.903 131.769C55.903 129.803,61.772 126.602,63.653 126.602C64.439 126.602,64.861 126.967,65.169 127.445C65.282 127.697,65.394 127.95,65.394 128.231C65.394 129.972,59.694 133.51,57.756 133.51"/><path stroke="none" d="M30.475 136.703C30.611 136.867,30.721 136.895,30.83 136.895C30.967 136.895,31.076 136.813,31.076 136.813C32.253 136.156,33.211 135.089,34.196 134.405C37.698 131.97,38.901 129.562,38.901 127.756C38.901 125.513,37.178 124.09,35.372 123.981C34.688 123.981,33.758 124.282,33.211 124.637C32.964 124.829,32.527 125.185,32.335 125.185C32.253 125.185,32.226 125.185,32.144 125.157C31.87 125.048,31.706 124.747,31.706 124.473C31.733 123.625,31.979 114.159,31.979 113.365C31.979 112.927,31.624 112.708,31.241 112.708C30.666 112.708,30.037 113.092,30.009 113.803C30.009 113.803,30.174 136.293,30.475 136.703M31.87 133.201C31.87 133.201,31.733 130.821,31.733 129.261C31.733 128.632,31.788 128.14,31.815 128.003C32.089 127.209,33.676 126.06,34.579 126.06C35.728 126.06,36.193 127.373,36.193 128.358C36.193 130.465,34.387 132.599,32.691 133.666C32.527 133.748,32.417 133.776,32.308 133.776C31.952 133.776,31.87 133.393,31.87 133.201"/></g><g class="vf-notehead" id="vf-auto28369" pointer-events="bounding-box"><path stroke="none" d="M58.655 125.054C65.31 125.054,66.658 119.635,66.658 118.315C66.658 116.237,65.001 114.946,62.642 114.946C56.633 114.946,54.724 119.607,54.724 121.685C54.724 123.847,56.408 125.054,58.655 125.054M57.756 123.51C56.914 123.51,56.408 123.061,56.128 122.583C56.015 122.359,55.903 122.05,55.903 121.769C55.903 119.803,61.772 116.602,63.653 116.602C64.439 116.602,64.861 116.967,65.169 117.445C65.282 117.697,65.394 117.95,65.394 118.231C65.394 119.972,59.694 123.51,57.756 123.51"/><path stroke="none" d="M51.231 115.349C51.505 115.239,51.724 114.911,51.724 114.692L51.724 111.874C51.724 111.683,51.587 111.573,51.423 111.573C51.368 111.573,51.313 111.573,51.231 111.6C51.231 111.6,50.438 111.929,50.246 111.956C49.973 111.956,49.699 111.765,49.699 111.464L49.699 106.648C49.699 106.402,49.453 106.211,49.152 106.211C48.769 106.211,48.523 106.402,48.523 106.648L48.523 111.765C48.468 112.148,48.358 112.668,48.003 112.914C47.538 113.187,46.197 113.735,45.513 113.899C45.185 113.899,45.048 113.434,45.048 113.105L45.048 108.372C45.048 108.153,44.774 107.934,44.501 107.934C44.118 107.934,43.871 108.153,43.871 108.372L43.871 113.707C43.871 114.254,43.625 114.637,43.406 114.747C43.16 114.884,42.367 115.185,42.367 115.185C42.093 115.267,41.901 115.595,41.901 115.814L41.901 118.632C41.901 118.851,42.011 118.988,42.257 118.988L42.339 118.933C42.367 118.933,42.968 118.687,43.269 118.55L43.324 118.495C43.625 118.495,43.871 118.906,43.871 119.207L43.871 123.119C43.871 123.557,43.68 123.912,43.434 124.022C43.215 124.104,42.367 124.46,42.367 124.46C42.093 124.542,41.901 124.843,41.901 125.089L41.901 127.88C41.901 128.126,42.011 128.235,42.257 128.235L42.339 128.208C42.367 128.208,42.914 127.962,43.269 127.852C43.324 127.798,43.352 127.798,43.406 127.798C43.68 127.798,43.871 128.235,43.871 128.427L43.871 133.27C43.871 133.516,44.118 133.707,44.391 133.707C44.774 133.707,45.048 133.516,45.048 133.27L45.048 127.798C45.048 127.278,45.239 127.004,45.458 126.922L47.839 125.937C47.839 125.937,47.893 125.937,47.893 125.937L47.975 125.91C48.331 125.91,48.523 126.375,48.523 126.621L48.523 131.546C48.523 131.792,48.769 131.984,49.042 131.984C49.453 131.984,49.699 131.792,49.699 131.546L49.699 125.937C49.699 125.636,49.863 125.171,50.137 125.034C50.41 124.925,51.231 124.596,51.231 124.596C51.505 124.487,51.724 124.186,51.724 123.94L51.724 121.149C51.724 120.958,51.587 120.821,51.423 120.821C51.368 120.821,51.313 120.821,51.231 120.876L50.219 121.259C49.973 121.259,49.699 121.012,49.699 120.547L49.699 116.881C49.699 116.607,49.891 115.869,50.219 115.732M48.523 121.778C48.276 122.572,46.443 123.338,45.513 123.338C45.294 123.338,45.103 123.283,45.048 123.146C44.966 122.982,44.938 122.134,44.938 121.176C44.938 119.973,44.966 118.577,45.048 118.276C45.13 117.592,46.936 116.772,47.921 116.772C48.194 116.772,48.44 116.854,48.523 117.018C48.605 117.209,48.687 118.194,48.687 119.261C48.687 120.328,48.605 121.423,48.523 121.778"/></g><g class="vf-notehead" id="vf-auto28368" pointer-events="bounding-box"><path stroke="none" d="M58.655 110.054C65.31 110.054,66.658 104.635,66.658 103.315C66.658 101.237,65.001 99.946,62.642 99.946C56.633 99.946,54.724 104.607,54.724 106.685C54.724 108.847,56.408 110.054,58.655 110.054M57.756 108.51C56.914 108.51,56.408 108.061,56.128 107.583C56.015 107.359,55.903 107.05,55.903 106.769C55.903 104.803,61.772 101.602,63.653 101.602C64.439 101.602,64.861 101.967,65.169 102.445C65.282 102.697,65.394 102.95,65.394 103.231C65.394 104.972,59.694 108.51,57.756 108.51"/></g></g><g class="vf-stavenote" id="vf-auto28375"><g class="vf-stem" id="vf-auto28376" pointer-events="bounding-box"><path stroke-width="1.5" fill="none" d="M299.625 117L299.625 157"/></g><g class="vf-notehead" id="vf-auto28383" pointer-events="bounding-box"><path stroke="none" d="M302.806 130.054C306.4 130.054,310.809 126.741,310.809 123.315C310.809 121.237,309.18 119.946,306.878 119.946C302.441 119.946,298.875 123.231,298.875 126.685C298.875 128.791,300.616 130.054,302.806 130.054"/></g><g class="vf-notehead" id="vf-auto28382" pointer-events="bounding-box"><path stroke="none" d="M291.622 125.054C295.216 125.054,299.625 121.741,299.625 118.315C299.625 116.237,297.996 114.946,295.694 114.946C291.257 114.946,287.691 118.231,287.691 121.685C287.691 123.791,289.432 125.054,291.622 125.054"/></g><g class="vf-notehead" id="vf-auto28381" pointer-events="bounding-box"><path stroke="none" d="M302.806 120.054C306.4 120.054,310.809 116.741,310.809 113.315C310.809 111.237,309.18 109.946,306.878 109.946C302.441 109.946,298.875 113.231,298.875 116.685C298.875 118.791,300.616 120.054,302.806 120.054"/></g><path stroke="none" d="M308.591 131.28C309.152 132.965,309.433 134.987,309.433 136.812C309.433 139.199,308.422 142.597,307.804 143.973C306.316 147.37,304.294 150.628,298.875 152.453L298.875 161.972C298.875 162.365,299.212 162.562,299.521 162.562C299.886 162.562,300.419 162.337,300.504 161.663C301.177 157.844,304.182 154.306,306.232 151.133C308.787 147.118,311.258 142.316,311.258 137.262C311.258 134.088,310.444 131.224,310.107 129.933C309.995 129.483,309.742 129.315,309.461 129.315C308.871 129.315,308.169 130.101,308.591 131.28"/></g><g class="vf-stavenote" id="vf-auto28385"><path stroke-width="1.4" fill="none" stroke="#444" d="M366.588 130L384.522 130"/><g class="vf-stem" id="vf-auto28386" pointer-events="bounding-box"><path stroke-width="1.5" fill="none" d="M370.338 107L370.338 162"/></g><g class="vf-notehead" id="vf-auto28393" pointer-events="bounding-box"><path stroke="none" d="M373.519 135.054C377.113 135.054,381.522 131.741,381.522 128.315C381.522 126.237,379.893 124.946,377.59 124.946C373.154 124.946,369.588 128.231,369.588 131.685C369.588 133.791,371.329 135.054,373.519 135.054"/></g><g class="vf-notehead" id="vf-auto28392" pointer-events="bounding-box"><path stroke="none" d="M373.519 120.054C377.113 120.054,381.522 116.741,381.522 113.315C381.522 111.237,379.893 109.946,377.59 109.946C373.154 109.946,369.588 113.231,369.588 116.685C369.588 118.791,371.329 120.054,373.519 120.054"/></g><g class="vf-notehead" id="vf-auto28391" pointer-events="bounding-box"><path stroke="none" d="M373.519 110.054C377.113 110.054,381.522 106.741,381.522 103.315C381.522 101.237,379.893 99.946,377.59 99.946C373.154 99.946,369.588 103.231,369.588 106.685C369.588 108.791,371.329 110.054,373.519 110.054"/></g><path stroke="none" d="M379.303 136.28C379.865 137.965,380.146 139.987,380.146 141.812C380.146 144.199,379.135 147.597,378.517 148.973C377.029 152.37,375.007 155.628,369.588 157.453L369.588 166.972C369.588 167.365,369.925 167.562,370.234 167.562C370.599 167.562,371.132 167.337,371.216 166.663C371.89 162.844,374.895 159.306,376.945 156.133C379.5 152.118,381.971 147.316,381.971 142.262C381.971 139.088,381.157 136.224,380.82 134.933C380.707 134.483,380.455 134.315,380.174 134.315C379.584 134.315,378.882 135.101,379.303 136.28"/></g><g class="vf-stavenote" id="vf-auto28395"><path stroke-width="1.4" fill="none" stroke="#444" d="M437.3 130L455.234 130"/><g class="vf-stem" id="vf-auto28396" pointer-events="bounding-box"><path stroke-width="1.5" fill="none" d="M441.05 107L441.05 162"/></g><g class="vf-notehead" id="vf-auto28403" pointer-events="bounding-box"><path stroke="none" d="M444.232 135.054C447.826 135.054,452.234 131.741,452.234 128.315C452.234 126.237,450.606 124.946,448.303 124.946C443.867 124.946,440.3 128.231,440.3 131.685C440.3 133.791,442.041 135.054,444.232 135.054"/></g><g class="vf-notehead" id="vf-auto28402" pointer-events="bounding-box"><path stroke="none" d="M444.232 120.054C447.826 120.054,452.234 116.741,452.234 113.315C452.234 111.237,450.606 109.946,448.303 109.946C443.867 109.946,440.3 113.231,440.3 116.685C440.3 118.791,442.041 120.054,444.232 120.054"/></g><g class="vf-notehead" id="vf-auto28401" pointer-events="bounding-box"><path stroke="none" d="M444.232 110.054C447.826 110.054,452.234 106.741,452.234 103.315C452.234 101.237,450.606 99.946,448.303 99.946C443.867 99.946,440.3 103.231,440.3 106.685C440.3 108.791,442.041 110.054,444.232 110.054"/></g><path stroke="none" d="M450.016 136.28C450.578 137.965,450.859 139.987,450.859 141.812C450.859 144.199,449.848 147.597,449.23 148.973C447.742 152.37,445.72 155.628,440.3 157.453L440.3 166.972C440.3 167.365,440.637 167.562,440.946 167.562C441.311 167.562,441.845 167.337,441.929 166.663C442.603 162.844,445.608 159.306,447.657 156.133C450.213 152.118,452.684 147.316,452.684 142.262C452.684 139.088,451.869 136.224,451.532 134.933C451.42 134.483,451.167 134.315,450.887 134.315C450.297 134.315,449.595 135.101,450.016 136.28"/></g><g class="vf-stavenote" id="vf-auto28405"><path stroke-width="1.4" fill="none" stroke="#444" d="M508.013 130L525.947 130"/><g class="vf-stem" id="vf-auto28406" pointer-events="bounding-box"><path stroke-width="1.5" fill="none" d="M511.763 107L511.763 162"/></g><g class="vf-notehead" id="vf-auto28413" pointer-events="bounding-box"><path stroke="none" d="M514.944 135.054C518.539 135.054,522.947 131.741,522.947 128.315C522.947 126.237,521.319 124.946,519.016 124.946C514.579 124.946,511.013 128.231,511.013 131.685C511.013 133.791,512.754 135.054,514.944 135.054"/></g><g class="vf-notehead" id="vf-auto28412" pointer-events="bounding-box"><path stroke="none" d="M514.944 120.054C518.539 120.054,522.947 116.741,522.947 113.315C522.947 111.237,521.319 109.946,519.016 109.946C514.579 109.946,511.013 113.231,511.013 116.685C511.013 118.791,512.754 120.054,514.944 120.054"/></g><g class="vf-notehead" id="vf-auto28411" pointer-events="bounding-box"><path stroke="none" d="M514.944 110.054C518.539 110.054,522.947 106.741,522.947 103.315C522.947 101.237,521.319 99.946,519.016 99.946C514.579 99.946,511.013 103.231,511.013 106.685C511.013 108.791,512.754 110.054,514.944 110.054"/></g><path stroke="none" d="M520.729 136.28C521.29 137.965,521.571 139.987,521.571 141.812C521.571 144.199,520.56 147.597,519.943 148.973C518.454 152.37,516.433 155.628,511.013 157.453L511.013 166.972C511.013 167.365,511.35 167.562,511.659 167.562C512.024 167.562,512.558 167.337,512.642 166.663C513.316 162.844,516.32 159.306,518.37 156.133C520.925 152.118,523.396 147.316,523.396 142.262C523.396 139.088,522.582 136.224,522.245 134.933C522.133 134.483,521.88 134.315,521.599 134.315C521.01 134.315,520.308 135.101,520.729 136.28"/></g><path stroke="none" d="M52.972 40.505C51.642 40.505,50.553 41.109,50.553 42.41C50.553 43.377,51.188 43.982,52.095 43.982C53.365 43.982,53.426 42.984,54.333 42.984C55.059 42.984,55.754 43.892,55.754 45.041C55.754 46.916,54.454 47.823,52.942 47.823C51.551 47.823,50.099 46.643,48.225 44.557C46.108 42.198,44.172 40.565,41.36 40.565C38.487 40.565,36.824 42.742,36.824 45.524C36.824 48.639,38.82 50,40.695 50C42.056 50,43.144 49.395,43.144 48.095C43.144 47.127,42.479 46.522,41.572 46.522C40.302 46.522,40.271 47.52,39.364 47.52C38.608 47.52,37.913 46.613,37.913 45.464C37.913 43.589,39.213 42.682,40.755 42.682C42.146 42.682,43.568 43.861,45.443 45.948C47.59 48.307,49.495 49.97,52.337 49.97C55.21 49.97,56.843 47.792,56.843 44.98C56.843 41.865,54.847 40.505,52.972 40.505"/><path stroke="none" d="M99.618 36.664C99.074 36.664,98.922 36.906,98.922 37.36L98.922 41.714C98.922 42.198,98.862 42.38,98.68 42.38C98.439 42.38,98.227 42.077,97.441 41.593C96.443 40.988,95.354 40.595,94.084 40.595C91.211 40.595,89.548 42.773,89.548 45.555C89.548 48.7,91.544 50.03,93.419 50.03C94.78 50.03,95.868 49.425,95.868 48.125C95.868 47.157,95.203 46.553,94.296 46.553C93.026 46.553,92.995 47.551,92.088 47.551C91.332 47.551,90.637 46.643,90.637 45.524C90.637 43.65,91.937 42.742,93.479 42.742C94.87 42.742,96.261 44.043,98.166 46.129C98.741 46.734,98.832 46.825,98.832 47.611L98.832 53.236C98.832 53.689,98.983 53.931,99.527 53.931C100.041 53.931,100.223 53.689,100.223 53.236L100.223 48.881C100.223 48.397,100.223 48.216,100.434 48.216C100.707 48.216,100.918 48.518,101.704 49.002C102.702 49.607,103.791 50,105.061 50C107.934 50,109.567 47.823,109.567 45.041C109.567 41.896,107.571 40.565,105.696 40.565C104.366 40.565,103.277 41.17,103.277 42.47C103.277 43.438,103.912 44.043,104.819 44.043C106.089 44.043,106.15 43.045,107.057 43.045C107.783 43.045,108.478 43.952,108.478 45.071C108.478 46.946,107.178 47.853,105.666 47.853C104.275 47.853,102.884 46.553,100.948 44.466C100.404 43.861,100.313 43.771,100.313 42.984L100.313 37.36C100.313 36.906,100.132 36.664,99.618 36.664"/><path stroke="none" d="M136.392 130.44C134.287 130.465,132.671 130.685,130.664 131.664C128.902 132.546,126.282 134.529,126.282 137.344C126.282 138.886,127.188 140.796,129.269 140.796C130.909 140.796,132.157 138.935,132.157 136.781C132.157 135.826,131.986 135.655,131.79 135.655C131.496 135.655,131.472 135.973,131.276 136.56C131.154 137.099,130.713 138.25,129.66 138.25C128.632 138.25,128.363 137.344,128.363 136.56L128.363 136.438C128.461 133.109,131.913 131.346,134.924 131.346C135.193 131.346,135.413 131.395,135.413 131.591C135.413 131.885,135.095 132.301,134.875 132.668C134.361 133.476,132.99 135.679,132.99 136.634C132.99 137.564,134.434 139.131,134.924 139.816C135.389 140.453,136.368 141.408,136.368 142.558C136.368 143.268,136.148 143.733,135.634 144.419C135.168 145.055,135.119 145.104,134.458 145.349C132.916 145.912,129.881 147.846,129.881 149.29C129.881 149.902,130.468 150.294,131.08 150.294C132.133 150.294,133.112 149.192,134.679 147.356L135.168 146.769C135.34 146.548,135.487 146.328,135.756 146.328C137.176 146.328,137.714 150.098,139.575 150.098C140.162 150.098,140.627 150,141.729 148.972L142.635 148.091C142.782 147.944,142.929 147.821,143.051 147.821C143.124 147.821,143.173 147.895,143.32 148.164C143.834 149.29,144.716 150.22,146.086 150.22C147.188 150.22,148.167 149.682,149.44 148.384C150.052 147.748,150.297 147.381,150.468 147.381C150.615 147.381,150.664 147.576,150.811 147.821C151.497 149.119,152.647 150.098,154.483 150.098C156.588 150.098,158.816 147.993,158.816 143.929C158.816 136.389,151.913 133.721,145.67 132.448C145.499 132.399,145.254 132.374,145.034 132.374C144.691 132.374,144.569 132.595,144.569 132.791C144.569 133.035,144.789 133.231,145.377 133.354C151.448 134.798,156.221 137.662,156.221 144.565C156.221 147.013,155.781 149.045,154.483 149.045C153.308 149.045,152.549 146.769,152.549 144.394C152.549 142.313,152.867 140.771,153.994 139.645C154.189 139.425,154.238 139.327,154.238 139.18C154.238 138.96,154.091 138.788,153.847 138.788C153.675 138.788,153.43 138.862,153.039 139.082C151.301 140.012,150.15 141.75,150.15 144.712L150.15 145.349C150.15 146.083,150.077 146.328,149.367 147.038C148.29 148.14,147.751 148.311,147.139 148.311C146.258 148.311,145.523 147.136,145.279 146.377C145.254 146.23,145.205 146.132,145.205 146.01C145.205 145.912,145.279 145.838,145.523 145.667L145.891 145.422C147.506 144.247,149.22 143.048,149.22 141.04C149.22 139.669,148.314 138.886,146.943 138.886C143.687 138.886,142.561 141.897,142.561 144.688C142.561 145.177,142.61 145.692,142.708 146.255L142.708 146.401C142.708 146.499,142.684 146.573,142.488 146.72C141.925 147.111,141.582 147.283,141.093 147.283C140.285 147.283,139.648 146.695,139.036 146.083C138.449 145.496,137.886 145.177,137.323 145.031C136.931 144.933,136.711 144.957,136.711 144.81C136.711 144.712,136.784 144.614,136.955 144.37C137.641 143.415,138.767 141.677,138.767 140.477C138.767 139.351,138.033 138.69,136.784 137.246C135.756 136.046,135.315 135.336,135.315 134.602C135.315 134.137,135.682 133.084,136.123 132.374C136.686 131.42,137.2 131.322,137.592 131.322C139.501 131.322,141.239 132.766,141.239 134.724C141.239 135.508,140.725 135.924,140.089 135.924C139.501 135.924,139.012 135.753,138.547 135.263C138.326 135.043,138.204 134.773,137.886 134.773C137.665 134.773,137.518 134.945,137.518 135.239C137.518 136.046,138.767 138.47,141.044 138.47C142.684 138.47,143.687 137.172,143.687 135.606C143.687 131.836,139.844 130.44,136.613 130.44M146.233 140.135C146.796 140.135,147.041 140.624,147.041 141.603C147.041 142.778,146.454 143.611,145.377 144.468C145.205 144.614,145.083 144.688,145.009 144.688C144.936 144.688,144.862 144.614,144.862 144.419C144.814 144.002,144.789 143.586,144.789 143.097C144.789 141.53,145.181 140.135,146.233 140.135M160.677 146.964C159.795 146.964,159.183 147.601,159.183 148.482C159.183 149.364,159.795 150,160.677 150C161.558 150,162.194 149.364,162.194 148.482C162.194 147.601,161.558 146.964,160.677 146.964"/><path stroke="none" d="M202.151 140.306C201.465 140.306,200.951 140.6,200.535 141.016C200.021 141.505,199.825 141.677,199.286 141.677L199.115 141.677C198.479 141.677,197.989 141.481,197.989 140.771C197.989 140.526,198.16 140.306,198.479 139.988L198.626 139.841C198.944 139.523,199.262 139.498,199.898 139.498C200.976 139.498,201.979 138.935,201.979 137.736C201.979 136.756,201.147 135.924,200.168 135.924C198.968 135.924,198.405 136.928,198.405 138.005C198.405 138.641,198.381 138.96,198.062 139.278L197.916 139.425C197.597 139.743,197.377 139.914,197.132 139.914C196.422 139.914,196.226 139.425,196.226 138.788L196.226 138.617C196.226 138.078,196.398 137.882,196.887 137.368C197.304 136.952,197.597 136.438,197.597 135.753C197.597 134.7,196.79 134.137,195.835 134.137C194.88 134.137,194.072 134.7,194.072 135.753C194.072 136.438,194.366 136.952,194.782 137.368C195.272 137.882,195.443 138.078,195.443 138.617L195.443 138.788C195.443 139.425,195.247 139.914,194.537 139.914C194.293 139.914,194.072 139.743,193.754 139.425L193.607 139.278C193.289 138.96,193.264 138.641,193.264 138.005C193.264 136.928,192.701 135.924,191.502 135.924C190.523 135.924,189.69 136.756,189.69 137.736C189.69 138.935,190.694 139.498,191.771 139.498C192.408 139.498,192.726 139.523,193.044 139.841L193.191 139.988C193.509 140.306,193.681 140.526,193.681 140.771C193.681 141.481,193.191 141.677,192.554 141.677L192.383 141.677C191.845 141.677,191.649 141.505,191.135 141.016C190.718 140.6,190.204 140.306,189.519 140.306C188.466 140.306,187.903 141.114,187.903 142.068C187.903 143.023,188.466 143.831,189.519 143.831C190.204 143.831,190.718 143.537,191.135 143.121C191.649 142.632,191.845 142.46,192.383 142.46L192.554 142.46C193.191 142.46,193.681 142.656,193.681 143.366C193.681 143.611,193.509 143.831,193.191 144.149L193.044 144.296C192.726 144.614,192.408 144.639,191.771 144.639C190.694 144.639,189.69 145.202,189.69 146.401C189.69 147.381,190.523 148.213,191.502 148.213C192.701 148.213,193.264 147.209,193.264 146.132C193.264 145.496,193.289 145.177,193.607 144.859L193.754 144.712C194.072 144.394,194.293 144.223,194.537 144.223C195.247 144.223,195.443 144.712,195.443 145.349L195.443 145.52C195.443 146.059,195.272 146.255,194.782 146.769C194.366 147.185,194.072 147.699,194.072 148.384C194.072 149.437,194.88 150,195.835 150C196.79 150,197.597 149.437,197.597 148.384C197.597 147.699,197.304 147.185,196.887 146.769C196.398 146.255,196.226 146.059,196.226 145.52L196.226 145.349C196.226 144.712,196.422 144.223,197.132 144.223C197.377 144.223,197.597 144.394,197.916 144.712L198.062 144.859C198.381 145.177,198.405 145.496,198.405 146.132C198.405 147.209,198.968 148.213,200.168 148.213C201.147 148.213,201.979 147.381,201.979 146.401C201.979 145.202,200.976 144.639,199.898 144.639C199.262 144.639,198.944 144.614,198.626 144.296L198.479 144.149C198.16 143.831,197.989 143.611,197.989 143.366C197.989 142.656,198.479 142.46,199.115 142.46L199.286 142.46C199.825 142.46,200.021 142.632,200.535 143.121C200.951 143.537,201.465 143.831,202.151 143.831C203.203 143.831,203.766 143.023,203.766 142.068C203.766 141.114,203.203 140.306,202.151 140.306M195.835 143.366C195.027 143.366,194.537 142.876,194.537 142.068C194.537 141.261,195.027 140.771,195.835 140.771C196.643 140.771,197.132 141.261,197.132 142.068C197.132 142.876,196.643 143.366,195.835 143.366"/><path stroke="none" d="M252.878 61.322C252.315 61.322,251.777 61.787,251.752 62.399C251.434 67.589,249.182 72.778,247.027 77.601L246.391 79.045C246.366 79.143,246.318 79.217,246.318 79.339C246.318 79.682,246.562 80,247.027 80C247.272 80,247.517 79.853,247.615 79.608C250.308 74.37,254.004 68.299,254.004 62.472C254.004 61.836,253.539 61.322,252.878 61.322M241.568 80C241.813 80,242.034 79.853,242.156 79.608L242.866 78.311C245.436 73.537,248.545 67.809,248.545 62.472C248.545 61.836,248.08 61.322,247.419 61.322C246.856 61.322,246.318 61.787,246.293 62.399C245.975 67.589,243.723 72.778,241.568 77.601L240.932 79.045C240.883 79.119,240.858 79.192,240.858 79.29C240.858 79.657,241.152 80,241.568 80"/><path stroke="none" d="M299.052 80.024C299.493 80.024,299.836 79.78,299.983 79.364L305.931 62.546C305.98 62.448,305.98 62.35,305.98 62.228C305.98 61.713,305.515 61.248,304.977 61.248C304.56 61.248,304.218 61.493,304.071 61.909L298.147 78.727C298.098 78.825,298.073 78.972,298.073 79.094C298.073 79.461,298.318 79.829,298.734 79.976C298.857 80.024,298.954 80.024,299.052 80.024M305.613 79.364L311.586 62.546C311.611 62.448,311.611 62.35,311.611 62.228C311.611 61.713,311.146 61.248,310.631 61.248C310.191 61.248,309.848 61.493,309.701 61.909L303.753 78.727C303.704 78.825,303.704 78.947,303.704 79.045C303.704 79.437,303.948 79.829,304.389 79.976C304.487 80.024,304.585 80.024,304.707 80.024C305.099 80.024,305.466 79.78,305.613 79.364"/><path stroke="none" d="M375.425 60.643C373.818 60.643,372.755 61.68,372.755 62.976C372.755 64.246,373.637 65.075,374.855 65.075C375.788 65.075,375.892 65.853,375.892 65.853C375.943 66.008,375.969 66.112,375.969 66.268C375.969 66.786,375.71 67.278,375.373 67.719C374.751 68.548,373.766 69.093,373.688 69.171C373.559 69.248,373.403 69.326,373.403 69.559L373.429 69.585C373.481 69.844,373.585 69.922,373.688 69.922C374.933 69.922,376.825 68.289,377.421 67.356C378.173 66.19,378.406 64.894,378.406 63.805L378.406 63.546C378.406 61.783,377.136 60.643,375.425 60.643"/><path stroke="none" d="M437.17 79.487C437.092 79.358,437.014 79.306,436.936 79.306C436.936 79.487,436.936 80.109,437.17 80.343C437.973 80.913,441.187 85.864,441.576 88.508C441.576 88.922,441.757 89,441.913 89C442.042 89,442.302 88.844,442.379 88.508C443.287 83.894,450.078 71.945,455.028 70.83C455.443 70.752,455.599 70.571,455.599 70.493C455.599 70.338,455.365 70.26,455.028 70.26C448.73 70.493,442.379 83.764,442.042 84.179C441.965 84.36,441.835 84.438,441.757 84.438C441.576 84.438,441.498 84.179,441.498 84.179C440.643 82.105,437.636 79.695,437.17 79.487"/><path stroke="none" d="M518.356 44.242C518.209 44.242,518.013 44.316,517.891 44.365L516.177 44.928C515.859 45.026,515.712 45.124,515.565 45.491L514.292 48.6C514.17 48.942,514.121 49.016,514.023 49.016C513.876 49.016,513.68 48.844,513.362 48.698C512.848 48.477,512.407 48.379,511.869 48.379C510.204 48.379,508.98 49.359,508.98 50.852C508.98 51.929,509.715 52.859,511.306 52.859C511.722 52.859,512.187 52.786,512.407 52.786C512.481 52.786,512.505 52.81,512.505 52.884C512.505 52.957,512.481 53.055,512.407 53.251L512.016 54.181C511.624 55.136,511.33 55.846,511.33 56.58C511.33 57.584,512.016 58.343,513.362 58.343C515.174 58.343,516.936 56.874,516.936 54.255C516.936 53.422,516.814 52.639,516.496 51.856C516.422 51.684,516.373 51.611,516.373 51.513C516.373 51.292,516.593 51.121,517.157 50.803L517.377 50.705C518.601 49.971,519.458 49.481,520.119 49.481C520.437 49.481,520.584 49.579,520.584 49.995C520.584 50.362,520.461 50.778,520.363 51.023L517.793 57.412C517.72 57.584,517.695 57.682,517.695 57.78C517.695 57.927,517.793 58,518.087 58L519.8 58C520.119 58,520.217 57.927,520.363 57.584L522.665 51.856C523.105 50.705,524.256 49.408,525.015 49.408C525.235 49.408,525.382 49.481,525.382 49.603C525.382 49.922,524.598 50.044,524.598 51.023C524.598 51.733,525.137 52.149,525.871 52.149C526.704 52.149,527.34 51.439,527.34 50.215C527.34 49.187,526.826 48.33,525.504 48.33C524.598 48.33,523.864 48.844,523.325 49.432C523.007 49.775,522.983 49.922,522.836 49.922C522.665 49.922,522.787 49.677,522.518 49.163C522.273 48.698,521.734 48.379,520.975 48.379C519.556 48.379,518.209 49.089,517.475 49.481C517.01 49.726,516.814 49.848,516.618 49.848C516.569 49.848,516.52 49.824,516.52 49.75C516.52 49.603,516.618 49.408,516.691 49.212L518.454 44.854C518.527 44.683,518.576 44.56,518.576 44.463C518.576 44.316,518.503 44.242,518.356 44.242M511.869 49.187C512.261 49.187,513.68 49.505,513.68 50.044C513.68 50.142,513.607 50.313,513.533 50.485L513.387 50.852C513.215 51.292,513.068 51.415,512.603 51.513C512.163 51.611,511.722 51.684,511.379 51.684C510.204 51.684,509.935 51.121,509.935 50.632C509.935 49.995,510.449 49.187,511.869 49.187M515.639 52.125C515.957 52.125,516.128 53.985,516.128 54.304C516.128 55.846,515.174 57.266,514.17 57.266C513.876 57.266,513.778 57.094,513.778 56.825C513.778 56.556,513.925 56.091,514.048 55.748C514.048 55.699,514.097 55.699,515.443 52.37C515.492 52.174,515.541 52.125,515.639 52.125"/></svg>