<svg xmlns="http://www.w3.org/2000/svg" stroke-width="0.3" stroke-dasharray="none" fill="black" stroke="black" font-family="Arial, sans-serif" font-size="10pt" font-weight="normal" font-style="normal" width="460" height="250" viewBox="0 0 460 250" style="width: 460px; height: 250px; border: none;"><g class="vf-stave" id="vf-auto15664" stroke-width="1" fill="#999999" stroke="#999999"><path fill="none" d="M10 85L430 85"/><path fill="none" d="M10 95L430 95"/><path fill="none" d="M10 105L430 105"/><path fill="none" d="M10 115L430 115"/><path fill="none" d="M10 125L430 125"/></g><g class="vf-stavebarline" id="vf-auto15665"><rect x="10" y="84.5" width="1" height="41" stroke="none"/></g><g class="vf-stavebarline" id="vf-auto15666"><rect x="430" y="84.5" width="1" height="41" stroke="none"/></g><g class="vf-stavenote" id="vf-auto15667"><path stroke-width="1.4" fill="none" stroke="#444" d="M84 135L103.141 135"/><g class="vf-stem" id="vf-auto15668" pointer-events="bounding-box"><path stroke-width="1.5" fill="none" d="M87.75 112.65L87.75 170"/></g><g class="vf-notehead" id="vf-auto15674" pointer-events="bounding-box"><path stroke="none" d="M95.621 129.665C91.689 129.665,87 132.95,87 136.685C87 138.426,88.264 140.391,91.521 140.391C95.733 140.391,100.141 136.938,100.141 133.371C100.141 130.985,98.12 129.665,95.621 129.665M94.525 136.769C94.413 136.853,91.437 138.482,90.033 138.482C88.685 138.482,88.404 137.387,88.404 137.022C88.404 135.337,92.448 133.343,92.616 133.259C92.784 133.175,95.649 131.574,97.109 131.574C98.092 131.574,98.737 132.136,98.737 133.006C98.737 134.747,94.638 136.685,94.525 136.769"/><path stroke="none" d="M70.083 131.881C69.864 130.349,68.907 128.899,66.91 128.899C64.94 128.899,63.791 130.103,63.599 130.349L63.763 117.708C63.763 117.38,63.517 117.161,63.189 117.161L62.724 117.161C62.423 117.161,62.176 117.38,62.176 117.708L62.368 141.375C62.368 141.703,62.614 141.922,62.915 141.922C62.997 141.922,63.161 141.895,63.243 141.867C63.408 141.785,65.952 140.527,68.086 138.119C69.591 136.423,70.165 134.48,70.165 132.866C70.165 132.51,70.138 132.209,70.083 131.881M67.375 133.413C67.375 134.015,67.211 135.821,66.226 137.326C65.569 138.338,64.228 139.405,63.49 140.007L63.599 132.319C63.681 131.963,64.256 130.814,65.843 130.814C67.265 130.814,67.375 132.155,67.375 133.003C67.375 133.194,67.375 133.304,67.375 133.413"/></g><g class="vf-notehead" id="vf-auto15673" pointer-events="bounding-box"><path stroke="none" d="M95.621 119.665C91.689 119.665,87 122.95,87 126.685C87 128.426,88.264 130.391,91.521 130.391C95.733 130.391,100.141 126.938,100.141 123.371C100.141 120.985,98.12 119.665,95.621 119.665M94.525 126.769C94.413 126.853,91.437 128.482,90.033 128.482C88.685 128.482,88.404 127.387,88.404 127.022C88.404 125.337,92.448 123.343,92.616 123.259C92.784 123.175,95.649 121.574,97.109 121.574C98.092 121.574,98.737 122.136,98.737 123.006C98.737 124.747,94.638 126.685,94.525 126.769"/><path stroke="none" d="M58.985 117.777C58.903 117.722,58.793 117.668,58.684 117.668C58.629 117.668,58.547 117.722,58.52 117.722L53.54 119.09L53.54 112.196L52.446 112.196L52.446 131.703C52.446 132.004,52.692 132.223,52.993 132.223C53.048 132.223,53.102 132.223,53.157 132.223L58.109 130.828L58.109 137.722L59.176 137.722C59.176 131.183,59.176 124.973,59.176 118.215C59.176 118.078,59.094 117.859,58.985 117.777M53.54 128.83L53.54 122.373L58.109 121.06L58.109 127.572"/></g><g class="vf-notehead" id="vf-auto15672" pointer-events="bounding-box"><path stroke="none" d="M95.621 104.665C91.689 104.665,87 107.95,87 111.685C87 113.426,88.264 115.391,91.521 115.391C95.733 115.391,100.141 111.938,100.141 108.371C100.141 105.985,98.12 104.665,95.621 104.665M94.525 111.769C94.413 111.853,91.437 113.482,90.033 113.482C88.685 113.482,88.404 112.387,88.404 112.022C88.404 110.337,92.448 108.343,92.616 108.259C92.784 108.175,95.649 106.574,97.109 106.574C98.092 106.574,98.737 107.136,98.737 108.006C98.737 109.747,94.638 111.685,94.525 111.769"/><path stroke="none" d="M83.59 105.869C83.808 105.814,84 105.54,84 105.321L84 102.996C84 102.668,83.781 102.449,83.453 102.449C83.425 102.449,83.425 102.449,83.371 102.449L82.085 102.722L82.085 96.84L80.963 96.84L80.963 102.941L77.461 103.652L77.461 98.098L76.367 98.098L76.367 103.899L74.834 104.2C74.588 104.254,74.397 104.528,74.397 104.747L74.397 104.829L74.397 107.127L74.397 107.045C74.397 107.373,74.643 107.592,74.944 107.592C74.999 107.592,75.026 107.592,75.053 107.592L76.367 107.319L76.367 113.83L74.834 114.131C74.588 114.186,74.397 114.46,74.397 114.679L74.397 116.977C74.397 117.278,74.643 117.524,74.944 117.524C74.999 117.524,75.026 117.524,75.053 117.524L76.367 117.25L76.367 123.133L77.461 123.133L77.461 117.004L80.963 116.293L80.963 121.847L82.085 121.847L82.085 116.074L83.59 115.8C83.808 115.746,84 115.472,84 115.253L84 112.928C84 112.599,83.781 112.353,83.453 112.353C83.425 112.353,83.425 112.353,83.371 112.353L82.085 112.627L82.085 106.142M77.461 107.072L80.963 106.388L80.963 112.873L77.461 113.612"/></g></g><g class="vf-stavenote" id="vf-auto15681"><path stroke-width="1.4" fill="none" stroke="#444" d="M84 75L115.533 75"/><g class="vf-stem" id="vf-auto15682" pointer-events="bounding-box"><path stroke-width="1.5" fill="none" d="M99.391 92.45L99.391 35"/></g><g class="vf-notehead" id="vf-auto15686" pointer-events="bounding-box"><path stroke="none" d="M95.621 89.665C91.689 89.665,87 92.95,87 96.685C87 98.426,88.264 100.391,91.521 100.391C95.733 100.391,100.141 96.938,100.141 93.371C100.141 90.985,98.12 89.665,95.621 89.665M94.525 96.769C94.413 96.853,91.437 98.482,90.033 98.482C88.685 98.482,88.404 97.387,88.404 97.022C88.404 95.337,92.448 93.343,92.616 93.259C92.784 93.175,95.649 91.574,97.109 91.574C98.092 91.574,98.737 92.136,98.737 93.006C98.737 94.747,94.638 96.685,94.525 96.769"/><path stroke="none" d="M70.083 91.881C69.864 90.349,68.907 88.899,66.91 88.899C64.94 88.899,63.791 90.103,63.599 90.349L63.763 77.708C63.763 77.38,63.517 77.161,63.189 77.161L62.724 77.161C62.423 77.161,62.176 77.38,62.176 77.708L62.368 101.375C62.368 101.703,62.614 101.922,62.915 101.922C62.997 101.922,63.161 101.895,63.243 101.867C63.408 101.785,65.952 100.527,68.086 98.119C69.591 96.423,70.165 94.48,70.165 92.866C70.165 92.51,70.138 92.209,70.083 91.881M67.375 93.413C67.375 94.015,67.211 95.821,66.226 97.326C65.569 98.338,64.228 99.405,63.49 100.007L63.599 92.319C63.681 91.963,64.256 90.814,65.843 90.814C67.265 90.814,67.375 92.155,67.375 93.003C67.375 93.194,67.375 93.304,67.375 93.413"/></g><g class="vf-notehead" id="vf-auto15687" pointer-events="bounding-box"><path stroke="none" d="M95.621 69.665C91.689 69.665,87 72.95,87 76.685C87 78.426,88.264 80.391,91.521 80.391C95.733 80.391,100.141 76.938,100.141 73.371C100.141 70.985,98.12 69.665,95.621 69.665M94.525 76.769C94.413 76.853,91.437 78.482,90.033 78.482C88.685 78.482,88.404 77.387,88.404 77.022C88.404 75.337,92.448 73.343,92.616 73.259C92.784 73.175,95.649 71.574,97.109 71.574C98.092 71.574,98.737 72.136,98.737 73.006C98.737 74.747,94.638 76.685,94.525 76.769"/><path stroke="none" d="M59.094 71.854C58.875 70.321,57.918 68.899,55.92 68.899C53.951 68.899,52.801 70.075,52.61 70.321L52.774 57.708C52.774 57.38,52.528 57.161,52.2 57.161L51.734 57.161C51.433 57.161,51.187 57.38,51.187 57.708L51.297 69.555C50.804 69.172,50.148 68.899,49.299 68.899C47.329 68.899,46.18 70.103,45.989 70.349L46.153 57.708C46.153 57.38,45.907 57.161,45.578 57.161L45.113 57.161C44.812 57.161,44.566 57.38,44.566 57.708L44.758 81.375C44.758 81.703,45.004 81.922,45.305 81.922C45.387 81.922,45.551 81.867,45.633 81.813C45.797 81.731,48.342 80.527,50.476 78.119C50.749 77.791,51.105 77.244,51.351 76.888L51.379 81.375C51.379 81.703,51.625 81.922,51.926 81.922C52.008 81.922,52.172 81.867,52.254 81.813C52.418 81.731,54.963 80.472,57.097 78.064C58.602 76.368,59.176 74.453,59.176 72.839C59.176 72.483,59.149 72.155,59.094 71.854M49.764 73.413C49.764 74.015,49.6 75.821,48.615 77.326C47.959 78.338,46.618 79.405,45.879 80.007L45.989 72.319C46.071 71.963,46.645 70.814,48.232 70.814C49.655 70.814,49.764 72.155,49.764 73.003C49.764 73.194,49.764 73.304,49.764 73.413M56.386 73.413C56.386 74.015,56.221 75.821,55.236 77.326C54.58 78.338,53.239 79.405,52.473 80.007L52.61 72.319C52.692 71.963,53.267 70.814,54.853 70.814C56.276 70.814,56.386 72.155,56.386 73.003C56.386 73.194,56.386 73.304,56.386 73.413"/></g><g class="vf-notehead" id="vf-auto15688" pointer-events="bounding-box"><path stroke="none" d="M108.012 64.665C104.081 64.665,99.391 67.95,99.391 71.685C99.391 73.426,100.655 75.391,103.912 75.391C108.124 75.391,112.533 71.938,112.533 68.371C112.533 65.985,110.511 64.665,108.012 64.665M106.917 71.769C106.805 71.853,103.828 73.482,102.424 73.482C101.076 73.482,100.795 72.387,100.795 72.022C100.795 70.337,104.839 68.343,105.007 68.259C105.176 68.175,108.04 66.574,109.5 66.574C110.483 66.574,111.129 67.136,111.129 68.006C111.129 69.747,107.029 71.685,106.917 71.769"/><path stroke="none" d="M83.015 68.003L83.453 68.003C83.754 68.003,84 67.756,84 67.428L84 65.103C84 64.802,83.754 64.555,83.453 64.555L81.127 64.555C80.799 64.555,80.58 64.802,80.58 65.103L80.58 65.595L80.58 67.209L78.637 69.179L78.528 69.179L76.558 67.209L76.558 65.103C76.558 64.802,76.367 64.555,76.038 64.555L73.713 64.555C73.412 64.555,73.165 64.802,73.165 65.103L73.165 67.428C73.165 67.756,73.412 68.003,73.713 68.003L74.123 68.003L74.15 68.003L75.792 68.003L77.735 69.918L77.735 70.027L75.792 71.997L74.15 71.997L74.123 71.997L73.713 71.997C73.412 71.997,73.165 72.216,73.165 72.517L73.165 74.843C73.165 75.171,73.412 75.39,73.713 75.39L76.038 75.39C76.367 75.39,76.558 75.171,76.558 74.843L76.558 72.763L78.528 70.876L78.637 70.876L80.58 72.763L80.58 74.405L80.58 74.46L80.58 74.843C80.58 75.171,80.799 75.39,81.127 75.39L83.453 75.39C83.754 75.39,84 75.171,84 74.843L84 72.517C84 72.216,83.754 71.997,83.453 71.997L83.042 71.997L83.015 71.997L81.373 71.997L79.404 70.027L79.404 69.973L81.373 68.003"/></g></g><text stroke="none" font-size="8pt" x="41.566" y="180">59px</text><path stroke-width="3" fill="none" stroke="red" d="M41.566 187L87 187"/><path stroke-width="3" fill="none" stroke="#999" d="M87 187L87 187"/><path stroke-width="3" fill="none" stroke="green" d="M87 187L100.141 187"/><path stroke-width="3" fill="none" stroke="#999" d="M100.141 187L100.141 187"/><path stroke-width="3" fill="none" stroke="red" d="M100.141 187L100.141 187"/><path stroke-width="3" fill="none" stroke="#DD0" d="M100.141 187L100.141 187"/><path stroke-width="3" fill="none" stroke="#BBB" d="M41.566 187L41.566 187"/><path stroke-width="3" fill="blue" stroke="none" d="M90 187 A3 3 0 0 0 84 187 A3 3 0 0 0 90 187Z"/><text stroke="none" font-size="8pt" x="41.566" y="15">72px</text><path stroke-width="3" fill="none" stroke="red" d="M41.566 22L87 22"/><path stroke-width="3" fill="none" stroke="#999" d="M87 22L87 22"/><path stroke-width="3" fill="none" stroke="green" d="M87 22L100.141 22"/><path stroke-width="3" fill="none" stroke="#999" d="M100.141 22L113.283 22"/><path stroke-width="3" fill="none" stroke="red" d="M113.283 22L113.283 22"/><path stroke-width="3" fill="none" stroke="#DD0" d="M113.283 22L113.283 22"/><path stroke-width="3" fill="none" stroke="#BBB" d="M41.566 22L41.566 22"/><path stroke-width="3" fill="blue" stroke="none" d="M90 22 A3 3 0 0 0 84 22 A3 3 0 0 0 90 22Z"/><g class="vf-stavenote" id="vf-auto15695"><path stroke-width="1.4" fill="none" stroke="#444" d="M202.283 135L221.424 135"/><g class="vf-stem" id="vf-auto15696" pointer-events="bounding-box"><path stroke-width="1.5" fill="none" d="M206.033 102.65L206.033 170"/></g><g class="vf-notehead" id="vf-auto15702" pointer-events="bounding-box"><path stroke="none" d="M213.903 129.665C209.972 129.665,205.283 132.95,205.283 136.685C205.283 138.426,206.546 140.391,209.804 140.391C214.016 140.391,218.424 136.938,218.424 133.371C218.424 130.985,216.403 129.665,213.903 129.665M212.808 136.769C212.696 136.853,209.72 138.482,208.316 138.482C206.968 138.482,206.687 137.387,206.687 137.022C206.687 135.337,210.73 133.343,210.899 133.259C211.067 133.175,213.932 131.574,215.392 131.574C216.374 131.574,217.02 132.136,217.02 133.006C217.02 134.747,212.921 136.685,212.808 136.769"/><path stroke="none" d="M162.929 131.881C162.71 130.349,161.752 128.899,159.755 128.899C157.785 128.899,156.636 130.103,156.444 130.349L156.609 117.708C156.609 117.38,156.362 117.161,156.034 117.161L155.569 117.161C155.268 117.161,155.022 117.38,155.022 117.708L155.213 141.375C155.213 141.703,155.46 141.922,155.76 141.922C155.843 141.922,156.007 141.895,156.089 141.867C156.253 141.785,158.797 140.527,160.932 138.119C162.436 136.423,163.011 134.48,163.011 132.866C163.011 132.51,162.984 132.209,162.929 131.881M160.22 133.413C160.22 134.015,160.056 135.821,159.071 137.326C158.414 138.338,157.074 139.405,156.335 140.007L156.444 132.319C156.527 131.963,157.101 130.814,158.688 130.814C160.111 130.814,160.22 132.155,160.22 133.003C160.22 133.194,160.22 133.304,160.22 133.413"/></g><g class="vf-notehead" id="vf-auto15701" pointer-events="bounding-box"><path stroke="none" d="M213.903 119.665C209.972 119.665,205.283 122.95,205.283 126.685C205.283 128.426,206.546 130.391,209.804 130.391C214.016 130.391,218.424 126.938,218.424 123.371C218.424 120.985,216.403 119.665,213.903 119.665M212.808 126.769C212.696 126.853,209.72 128.482,208.316 128.482C206.968 128.482,206.687 127.387,206.687 127.022C206.687 125.337,210.73 123.343,210.899 123.259C211.067 123.175,213.932 121.574,215.392 121.574C216.374 121.574,217.02 122.136,217.02 123.006C217.02 124.747,212.921 126.685,212.808 126.769"/><path stroke="none" d="M173.808 117.777C173.726 117.722,173.617 117.668,173.508 117.668C173.453 117.668,173.371 117.722,173.343 117.722L168.364 119.09L168.364 112.196L167.269 112.196L167.269 131.703C167.269 132.004,167.516 132.223,167.817 132.223C167.871 132.223,167.926 132.223,167.981 132.223L172.933 130.828L172.933 137.722L174 137.722C174 131.183,174 124.973,174 118.215C174 118.078,173.918 117.859,173.808 117.777M168.364 128.83L168.364 122.373L172.933 121.06L172.933 127.572"/></g><g class="vf-notehead" id="vf-auto15700" pointer-events="bounding-box"><path stroke="none" d="M213.903 94.665C209.972 94.665,205.283 97.95,205.283 101.685C205.283 103.426,206.546 105.391,209.804 105.391C214.016 105.391,218.424 101.938,218.424 98.371C218.424 95.985,216.403 94.665,213.903 94.665M212.808 101.769C212.696 101.853,209.72 103.482,208.316 103.482C206.968 103.482,206.687 102.387,206.687 102.022C206.687 100.337,210.73 98.343,210.899 98.259C211.067 98.175,213.932 96.574,215.392 96.574C216.374 96.574,217.02 97.136,217.02 98.006C217.02 99.747,212.921 101.685,212.808 101.769"/><path stroke="none" d="M162.6 95.869C162.819 95.814,163.011 95.54,163.011 95.321L163.011 92.996C163.011 92.668,162.792 92.449,162.464 92.449C162.436 92.449,162.436 92.449,162.382 92.449L161.096 92.722L161.096 86.84L159.974 86.84L159.974 92.941L156.472 93.652L156.472 88.098L155.377 88.098L155.377 93.899L153.845 94.2C153.599 94.254,153.408 94.528,153.408 94.747L153.408 94.829L153.408 97.127L153.408 97.045C153.408 97.373,153.654 97.592,153.955 97.592C154.009 97.592,154.037 97.592,154.064 97.592L155.377 97.319L155.377 103.83L153.845 104.131C153.599 104.186,153.408 104.46,153.408 104.679L153.408 106.977C153.408 107.278,153.654 107.524,153.955 107.524C154.009 107.524,154.037 107.524,154.064 107.524L155.377 107.25L155.377 113.133L156.472 113.133L156.472 107.004L159.974 106.293L159.974 111.847L161.096 111.847L161.096 106.074L162.6 105.8C162.819 105.746,163.011 105.472,163.011 105.253L163.011 102.928C163.011 102.599,162.792 102.353,162.464 102.353C162.436 102.353,162.436 102.353,162.382 102.353L161.096 102.627L161.096 96.142M156.472 97.072L159.974 96.388L159.974 102.873L156.472 103.612"/></g></g><g class="vf-stavenote" id="vf-auto15709"><path stroke-width="1.4" fill="none" stroke="#444" d="M174 75L205.533 75"/><g class="vf-stem" id="vf-auto15710" pointer-events="bounding-box"><path stroke-width="1.5" fill="none" d="M189.391 93L189.391 35"/></g><g class="vf-notehead" id="vf-auto15714" pointer-events="bounding-box"><path stroke="none" d="M177 96.685C177 98.426,178.264 100.391,181.521 100.391C185.733 100.391,190.141 96.938,190.141 93.371C190.141 90.985,188.12 89.665,185.621 89.665C181.689 89.665,177 92.978,177 96.685"/><path stroke="none" d="M173.918 91.881C173.699 90.349,172.741 88.899,170.744 88.899C168.774 88.899,167.625 90.103,167.434 90.349L167.598 77.708C167.598 77.38,167.352 77.161,167.023 77.161L166.558 77.161C166.257 77.161,166.011 77.38,166.011 77.708L166.202 101.375C166.202 101.703,166.449 101.922,166.75 101.922C166.832 101.922,166.996 101.895,167.078 101.867C167.242 101.785,169.787 100.527,171.921 98.119C173.425 96.423,174 94.48,174 92.866C174 92.51,173.973 92.209,173.918 91.881M171.209 93.413C171.209 94.015,171.045 95.821,170.06 97.326C169.404 98.338,168.063 99.405,167.324 100.007L167.434 92.319C167.516 91.963,168.09 90.814,169.677 90.814C171.1 90.814,171.209 92.155,171.209 93.003C171.209 93.194,171.209 93.304,171.209 93.413"/></g><g class="vf-notehead" id="vf-auto15715" pointer-events="bounding-box"><path stroke="none" d="M177 76.685C177 78.426,178.264 80.391,181.521 80.391C185.733 80.391,190.141 76.938,190.141 73.371C190.141 70.985,188.12 69.665,185.621 69.665C181.689 69.665,177 72.978,177 76.685"/></g><g class="vf-notehead" id="vf-auto15716" pointer-events="bounding-box"><path stroke="none" d="M189.391 71.685C189.391 73.426,190.655 75.391,193.912 75.391C198.124 75.391,202.533 71.938,202.533 68.371C202.533 65.985,200.511 64.665,198.012 64.665C194.081 64.665,189.391 67.978,189.391 71.685"/></g></g><text stroke="none" font-size="8pt" x="178.69" y="180">68px</text><path stroke-width="3" fill="none" stroke="red" d="M178.69 187L205.283 187"/><path stroke-width="3" fill="none" stroke="#999" d="M205.283 187L205.283 187"/><path stroke-width="3" fill="none" stroke="green" d="M205.283 187L218.424 187"/><path stroke-width="3" fill="none" stroke="#999" d="M218.424 187L218.424 187"/><path stroke-width="3" fill="none" stroke="red" d="M218.424 187L246.707 187"/><path stroke-width="3" fill="none" stroke="#DD0" d="M246.707 187L246.707 187"/><path stroke-width="3" fill="none" stroke="#BBB" d="M150.408 187L178.69 187"/><path stroke-width="3" fill="blue" stroke="none" d="M208.283 187 A3 3 0 0 0 202.283 187 A3 3 0 0 0 208.283 187Z"/><text stroke="none" font-size="8pt" x="150.408" y="15">81px</text><path stroke-width="3" fill="none" stroke="red" d="M150.408 22L177 22"/><path stroke-width="3" fill="none" stroke="#999" d="M177 22L177 22"/><path stroke-width="3" fill="none" stroke="green" d="M177 22L190.141 22"/><path stroke-width="3" fill="none" stroke="#999" d="M190.141 22L203.283 22"/><path stroke-width="3" fill="none" stroke="red" d="M203.283 22L231.566 22"/><path stroke-width="3" fill="none" stroke="#DD0" d="M231.566 22L231.566 22"/><path stroke-width="3" fill="none" stroke="#BBB" d="M150.408 22L150.408 22"/><path stroke-width="3" fill="blue" stroke="none" d="M180 22 A3 3 0 0 0 174 22 A3 3 0 0 0 180 22Z"/><g class="vf-stavenote" id="vf-auto15719"><g class="vf-stem" id="vf-auto15720" pointer-events="bounding-box"><path stroke-width="1.5" fill="none" d="M306.033 97.65L306.033 165"/></g><g class="vf-notehead" id="vf-auto15726" pointer-events="bounding-box"><path stroke="none" d="M313.903 124.665C309.972 124.665,305.283 127.95,305.283 131.685C305.283 133.426,306.546 135.391,309.804 135.391C314.016 135.391,318.424 131.938,318.424 128.371C318.424 125.985,316.403 124.665,313.903 124.665M312.808 131.769C312.696 131.853,309.72 133.482,308.316 133.482C306.968 133.482,306.687 132.387,306.687 132.022C306.687 130.337,310.73 128.343,310.899 128.259C311.067 128.175,313.932 126.574,315.392 126.574C316.374 126.574,317.02 127.136,317.02 128.006C317.02 129.747,312.921 131.685,312.808 131.769"/><path stroke="none" d="M273.918 126.881C273.699 125.349,272.741 123.899,270.744 123.899C268.774 123.899,267.625 125.103,267.434 125.349L267.598 112.708C267.598 112.38,267.352 112.161,267.023 112.161L266.558 112.161C266.257 112.161,266.011 112.38,266.011 112.708L266.202 136.375C266.202 136.703,266.449 136.922,266.75 136.922C266.832 136.922,266.996 136.895,267.078 136.867C267.242 136.785,269.787 135.527,271.921 133.119C273.425 131.423,274 129.48,274 127.866C274 127.51,273.973 127.209,273.918 126.881M271.209 128.413C271.209 129.015,271.045 130.821,270.06 132.326C269.404 133.338,268.063 134.405,267.324 135.007L267.434 127.319C267.516 126.963,268.09 125.814,269.677 125.814C271.1 125.814,271.209 127.155,271.209 128.003C271.209 128.194,271.209 128.304,271.209 128.413"/></g><g class="vf-notehead" id="vf-auto15725" pointer-events="bounding-box"><path stroke="none" d="M301.512 94.665C297.581 94.665,292.891 97.95,292.891 101.685C292.891 103.426,294.155 105.391,297.412 105.391C301.624 105.391,306.033 101.938,306.033 98.371C306.033 95.985,304.011 94.665,301.512 94.665M300.417 101.769C300.305 101.853,297.328 103.482,295.924 103.482C294.576 103.482,294.295 102.387,294.295 102.022C294.295 100.337,298.339 98.343,298.507 98.259C298.676 98.175,301.54 96.574,303 96.574C303.983 96.574,304.629 97.136,304.629 98.006C304.629 99.747,300.529 101.685,300.417 101.769"/><path stroke="none" d="M250.216 92.777C250.134 92.722,250.024 92.668,249.915 92.668C249.86 92.668,249.778 92.722,249.751 92.722L244.771 94.09L244.771 87.196L243.677 87.196L243.677 106.703C243.677 107.004,243.923 107.223,244.224 107.223C244.279 107.223,244.334 107.223,244.388 107.223L249.34 105.828L249.34 112.722L250.408 112.722C250.408 106.183,250.408 99.973,250.408 93.215C250.408 93.078,250.325 92.859,250.216 92.777M244.771 103.83L244.771 97.373L249.34 96.06L249.34 102.572"/></g><g class="vf-notehead" id="vf-auto15724" pointer-events="bounding-box"><path stroke="none" d="M313.903 89.665C309.972 89.665,305.283 92.95,305.283 96.685C305.283 98.426,306.546 100.391,309.804 100.391C314.016 100.391,318.424 96.938,318.424 93.371C318.424 90.985,316.403 89.665,313.903 89.665M312.808 96.769C312.696 96.853,309.72 98.482,308.316 98.482C306.968 98.482,306.687 97.387,306.687 97.022C306.687 95.337,310.73 93.343,310.899 93.259C311.067 93.175,313.932 91.574,315.392 91.574C316.374 91.574,317.02 92.136,317.02 93.006C317.02 94.747,312.921 96.685,312.808 96.769"/><path stroke="none" d="M273.59 90.869C273.808 90.814,274 90.54,274 90.321L274 87.996C274 87.668,273.781 87.449,273.453 87.449C273.425 87.449,273.425 87.449,273.371 87.449L272.085 87.722L272.085 81.84L270.963 81.84L270.963 87.941L267.461 88.652L267.461 83.098L266.367 83.098L266.367 88.899L264.834 89.2C264.588 89.254,264.397 89.528,264.397 89.747L264.397 89.829L264.397 92.127L264.397 92.045C264.397 92.373,264.643 92.592,264.944 92.592C264.999 92.592,265.026 92.592,265.053 92.592L266.367 92.319L266.367 98.83L264.834 99.131C264.588 99.186,264.397 99.46,264.397 99.679L264.397 101.977C264.397 102.278,264.643 102.524,264.944 102.524C264.999 102.524,265.026 102.524,265.053 102.524L266.367 102.25L266.367 108.133L267.461 108.133L267.461 102.004L270.963 101.293L270.963 106.847L272.085 106.847L272.085 101.074L273.59 100.8C273.808 100.746,274 100.472,274 100.253L274 97.928C274 97.599,273.781 97.353,273.453 97.353C273.425 97.353,273.425 97.353,273.371 97.353L272.085 97.627L272.085 91.142M267.461 92.072L270.963 91.388L270.963 97.873L267.461 98.612"/></g></g><g class="vf-stavenote" id="vf-auto15733"><path stroke-width="1.4" fill="none" stroke="#444" d="M274 75L305.533 75"/><g class="vf-stem" id="vf-auto15734" pointer-events="bounding-box"><path stroke-width="1.5" fill="none" d="M289.391 93L289.391 35"/></g><g class="vf-notehead" id="vf-auto15738" pointer-events="bounding-box"><path stroke="none" d="M277 96.685C277 98.426,278.264 100.391,281.521 100.391C285.733 100.391,290.141 96.938,290.141 93.371C290.141 90.985,288.12 89.665,285.621 89.665C281.689 89.665,277 92.978,277 96.685"/><path stroke="none" d="M261.315 91.881C261.096 90.349,260.138 88.899,258.141 88.899C256.171 88.899,255.022 90.103,254.83 90.349L254.994 77.708C254.994 77.38,254.748 77.161,254.42 77.161L253.955 77.161C253.654 77.161,253.408 77.38,253.408 77.708L253.599 101.375C253.599 101.703,253.845 101.922,254.146 101.922C254.228 101.922,254.392 101.895,254.475 101.867C254.639 101.785,257.183 100.527,259.317 98.119C260.822 96.423,261.397 94.48,261.397 92.866C261.397 92.51,261.369 92.209,261.315 91.881M258.606 93.413C258.606 94.015,258.442 95.821,257.457 97.326C256.8 98.338,255.46 99.405,254.721 100.007L254.83 92.319C254.912 91.963,255.487 90.814,257.074 90.814C258.496 90.814,258.606 92.155,258.606 93.003C258.606 93.194,258.606 93.304,258.606 93.413"/></g><g class="vf-notehead" id="vf-auto15739" pointer-events="bounding-box"><path stroke="none" d="M277 76.685C277 78.426,278.264 80.391,281.521 80.391C285.733 80.391,290.141 76.938,290.141 73.371C290.141 70.985,288.12 69.665,285.621 69.665C281.689 69.665,277 72.978,277 76.685"/></g><g class="vf-notehead" id="vf-auto15740" pointer-events="bounding-box"><path stroke="none" d="M289.391 71.685C289.391 73.426,290.655 75.391,293.912 75.391C298.124 75.391,302.533 71.938,302.533 68.371C302.533 65.985,300.511 64.665,298.012 64.665C294.081 64.665,289.391 67.978,289.391 71.685"/></g></g><text stroke="none" font-size="8pt" x="255.818" y="180">91px</text><path stroke-width="3" fill="none" stroke="red" d="M255.818 187L292.141 187"/><path stroke-width="3" fill="none" stroke="#999" d="M292.141 187L305.283 187"/><path stroke-width="3" fill="none" stroke="green" d="M305.283 187L318.424 187"/><path stroke-width="3" fill="none" stroke="#999" d="M318.424 187L318.424 187"/><path stroke-width="3" fill="none" stroke="red" d="M318.424 187L346.707 187"/><path stroke-width="3" fill="none" stroke="#DD0" d="M346.707 187L346.707 187"/><path stroke-width="3" fill="none" stroke="#BBB" d="M227.536 187L255.818 187"/><path stroke-width="3" fill="blue" stroke="none" d="M308.283 187 A3 3 0 0 0 302.283 187 A3 3 0 0 0 308.283 187Z"/><text stroke="none" font-size="8pt" x="240.677" y="15">91px</text><path stroke-width="3" fill="none" stroke="red" d="M240.677 22L277 22"/><path stroke-width="3" fill="none" stroke="#999" d="M277 22L277 22"/><path stroke-width="3" fill="none" stroke="green" d="M277 22L290.141 22"/><path stroke-width="3" fill="none" stroke="#999" d="M290.141 22L303.283 22"/><path stroke-width="3" fill="none" stroke="red" d="M303.283 22L331.566 22"/><path stroke-width="3" fill="none" stroke="#DD0" d="M331.566 22L331.566 22"/><path stroke-width="3" fill="none" stroke="#BBB" d="M240.677 22L240.677 22"/><path stroke-width="3" fill="blue" stroke="none" d="M280 22 A3 3 0 0 0 274 22 A3 3 0 0 0 280 22Z"/><path stroke-width="10" fill="none" stroke="green" d="M350 146L360 146"/><text stroke-width="10" stroke="none" font-size="8pt" x="365" y="150">Note + Flag</text><path stroke-width="10" fill="none" stroke="red" d="M350 158L360 158"/><text stroke-width="10" stroke="none" font-size="8pt" x="365" y="162">Modifiers</text><path stroke-width="10" fill="none" stroke="#999" d="M350 170L360 170"/><text stroke-width="10" stroke="none" font-size="8pt" x="365" y="174">Displaced Head</text><path stroke-width="10" fill="none" stroke="#DDD" d="M350 182L360 182"/><text stroke-width="10" stroke="none" font-size="8pt" x="365" y="186">Formatter Shift</text></svg>