<svg xmlns="http://www.w3.org/2000/svg" stroke-width="0.3" stroke-dasharray="none" fill="black" stroke="black" font-family="Arial, sans-serif" font-size="10pt" font-weight="normal" font-style="normal" width="750" height="300" viewBox="0 0 750 300" style="width: 750px; height: 300px; border: none;"><g class="vf-stave" id="vf-auto2216" stroke-width="1" fill="#999999" stroke="#999999"><path fill="none" d="M10 90L760 90"/><path fill="none" d="M10 100L760 100"/><path fill="none" d="M10 110L760 110"/><path fill="none" d="M10 120L760 120"/><path fill="none" d="M10 130L760 130"/></g><g class="vf-stavebarline" id="vf-auto2217"><rect x="10" y="89.5" width="1" height="41" stroke="none"/></g><g class="vf-stavebarline" id="vf-auto2218"><rect x="760" y="89.5" width="1" height="41" stroke="none"/></g><g class="vf-clef" id="vf-auto2219"><path stroke="none" d="M23.693 141.402C23.87 141.402,24.048 141.377,24.276 141.301C24.707 141.148,25.062 140.92,25.366 140.591C28.382 137.423,29.623 133.596,29.75 129.313C29.75 128.983,29.776 128.451,29.776 128.451C29.776 128.451,30.282 128.147,30.511 128.071C31.727 127.488,32.893 126.829,33.932 125.993C36.72 123.762,38.316 120.747,39.051 117.376C39.204 116.844,39.229 116.286,39.229 115.779C39.229 113.473,37.962 111.8,35.047 111.268C34.312 111.116,33.577 111.04,32.842 111.04C31.017 111.04,29.269 111.521,27.621 112.484C27.419 112.611,27.19 112.763,27.19 112.763L26.253 109.215C26.202 109.038,26.202 108.708,26.202 108.708C26.202 108.708,29.928 102.093,30.434 98.697C30.612 97.709,30.688 96.72,30.688 95.757C30.688 94.972,30.663 94.237,30.536 93.527C30.181 90.891,29.193 88.408,28.534 85.848C28.356 85.088,28.103 84.175,27.216 84.175C26.557 84.175,26.101 84.809,25.695 85.341C23.82 87.926,22.907 90.891,22.73 94.059C22.705 94.566,22.705 95.098,22.705 95.605C22.705 98.545,23.186 101.51,23.566 104.425C23.566 104.653,23.642 104.881,23.693 105.059C22.046 107.39,20.221 109.57,18.65 111.978C17.56 113.701,16.343 115.424,15.583 117.35C15.177 118.288,15 119.403,15 120.493C15 122.749,15.76 125.055,17.078 126.322C17.839 127.057,19.055 127.868,20.246 128.299C21.944 128.907,23.617 129.313,25.391 129.313C25.923 129.313,26.455 129.287,27.013 129.211L27.444 129.135C27.444 129.135,27.469 129.465,27.444 129.642C27.038 131.847,26.506 134.001,25.188 135.826C24.479 136.764,23.82 137.828,22.451 137.93C22.046 137.98,21.868 138.234,21.868 138.563C21.868 138.69,21.894 138.817,21.944 138.944C22.147 139.501,22.4 140.084,22.654 140.642C22.882 141.148,23.237 141.402,23.693 141.402M25.138 102.828C24.859 101.08,24.681 99.356,24.681 97.633C24.681 94.465,25.34 91.373,27.19 88.408C27.621 89.751,27.849 91.119,27.849 92.488C27.849 93.198,27.773 93.933,27.672 94.642C27.19 97.506,26.532 100.269,25.138 102.828M21.387 124.421C20.88 124.396,20.449 124.219,19.967 124.067C19.004 123.737,18.219 123.382,17.965 122.749C17.839 122.47,17.813 122.14,17.813 121.811C17.813 121.406,17.889 120.975,17.965 120.518C17.991 120.316,18.219 119.682,18.295 119.581C19.714 117.046,21.412 114.765,23.211 112.459L24.732 110.457L25.011 111.268C25.29 112.18,25.543 113.625,25.543 113.625C25.543 113.625,24.529 114.943,23.87 115.602C22.046 117.376,21.159 119.606,21.159 122.064C21.159 122.673,21.235 123.306,21.361 123.965C21.387 124.092,21.387 124.219,21.387 124.421M29.269 123.306C28.99 120.924,28.432 119.023,27.925 116.742C27.875 116.463,27.875 116.286,28.001 116.134C28.939 115.957,29.852 115.881,30.815 115.881C31.727 115.881,32.589 115.957,33.501 116.134C34.591 116.362,35.681 116.539,36.542 117.426C36.593 117.503,36.669 117.579,36.745 117.604C35.301 120.518,33.146 122.723,30.08 124.067L29.421 124.32M25.391 125.055C24.124 125.055,22.882 124.726,22.882 124.726C22.882 124.726,22.781 124.219,22.781 123.484C22.781 123.002,22.806 122.419,22.958 121.836C23.313 120.088,24.555 118.846,25.873 117.68C25.974 117.579,26.101 117.503,26.177 117.503C26.303 117.503,26.354 117.655,26.379 117.908C26.709 120.062,27.266 122.166,27.419 124.32C27.444 124.548,27.419 124.878,27.419 124.878C27.419 124.878,26.455 125.131,25.391 125.055"/></g><g class="vf-stavenote" id="vf-auto2220"><g class="vf-stem" id="vf-auto2221" pointer-events="bounding-box"><path stroke-width="1.5" fill="none" d="M70.454 123L70.454 90"/></g><g class="vf-notehead" id="vf-auto2223" pointer-events="bounding-box"><path stroke="none" d="M61.341 131.543C61.622 131.599,61.875 131.627,62.156 131.627C66.031 131.627,71.815 126.348,71.703 122.08C71.59 121.041,71.619 119.609,69.513 118.766C68.923 118.485,68.277 118.373,67.575 118.373C63.251 118.373,58.561 123.343,58.224 126.657C58.224 126.909,58.196 127.134,58.196 127.387C58.196 129.409,59.095 131.037,61.341 131.543"/><path stroke="none" d="M63.653 151.852C65.24 151.496,66.608 150.785,67.922 149.882C70.794 147.912,72.327 144.985,73.749 141.948C74.406 140.607,74.762 139.212,74.652 137.707C74.597 137.269,74.597 136.64,74.132 136.64C73.695 136.64,73.229 136.886,73.065 137.433C73.038 137.652,72.929 137.816,72.792 138.008C71.971 140.033,70.959 141.92,69.618 143.617C68.359 145.231,66.773 146.408,64.83 147.037C64.283 147.228,63.736 147.31,63.216 147.31C61.738 147.31,60.398 146.599,59.166 145.587C57.279 144.055,56.129 142.194,56.129 139.923C56.129 139.403,56.184 138.884,56.294 138.336C56.376 137.789,56.54 137.187,56.54 136.613C56.54 136.448,56.54 136.257,56.485 136.093C56.403 135.737,56.485 135.135,56.102 135.053C55.582 135.026,55.145 135.354,54.953 135.901C54.898 136.093,54.844 136.257,54.789 136.448C54.488 137.953,54.16 139.431,54.242 141.127C54.269 144.547,54.98 147.83,58.099 150.156C59.495 151.168,60.89 151.962,62.559 151.962C62.915 151.962,63.27 151.934,63.653 151.852M65.596 140.224C65.979 140.279,66.143 140.06,66.143 139.321C66.143 137.379,64.611 135.764,62.669 135.764C62.094 135.764,61.684 135.983,61.656 136.284C61.601 136.531,61.601 136.722,61.601 136.914C61.601 138.528,62.504 139.677,64.201 140.033"/><path stroke="none" d="M62.918 169.487C62.946 169.487,62.946 169.487,63 169.46C63.821 169.323,64.614 169.323,65.435 169.241C65.873 169.213,66.147 168.885,66.147 168.557C66.229 167.9,66.338 167.244,66.338 166.532C66.338 166.341,66.338 166.149,66.311 165.93C66.229 165.301,65.982 165,65.517 165C65.408 165,65.271 165,65.162 165.027C64.614 165.109,64.013 165.192,63.465 165.301C63.11 165.383,62.727 165.547,62.672 165.985C62.59 166.997,62.562 168.037,62.562 169.049C62.562 169.241,62.59 169.487,62.918 169.487"/><path stroke="none" d="M58.928 172.435C59.448 172.435,60.077 172.408,60.57 172.408C62.512 172.408,64.428 172.271,66.37 172.271C66.999 172.271,67.738 172.271,68.367 172.326C69.079 172.353,69.79 172.435,70.392 172.435C71.268 172.435,72.17 172.353,72.991 172.161C73.292 172.107,73.73 172.161,73.73 171.696C73.785 171.204,73.566 170.985,73.073 170.821C71.76 170.438,70.501 170.438,69.161 170.383C66.835 170.301,64.51 170.219,62.157 170.219C61.254 170.219,60.46 170.274,59.557 170.274L56.165 170.274C55.836 170.301,55.371 170.109,55.207 170.492C55.098 170.903,55.426 171.259,55.7 171.56C55.891 171.751,56.165 171.888,56.411 171.997C57.259 172.353,58.135 172.435,58.928 172.435"/></g></g><g class="vf-stavenote" id="vf-auto2231"><g class="vf-stem" id="vf-auto2232" pointer-events="bounding-box"><path stroke-width="1.5" fill="none" d="M118.461 122L118.461 155"/></g><g class="vf-notehead" id="vf-auto2234" pointer-events="bounding-box"><path stroke="none" d="M120.856 126.543C121.137 126.599,121.39 126.627,121.671 126.627C125.546 126.627,131.33 121.348,131.218 117.08C131.106 116.041,131.134 114.609,129.028 113.766C128.438 113.485,127.792 113.373,127.09 113.373C122.766 113.373,118.076 118.343,117.739 121.657C117.739 121.909,117.711 122.134,117.711 122.387C117.711 124.409,118.61 126.037,120.856 126.543"/><path stroke="none" d="M123.891 173.571C124.137 173.571,124.411 173.352,124.876 172.832C127.721 169.768,130.594 166.731,133.357 163.584C134.26 162.544,135.191 161.532,135.601 160.055C134.671 160,134.342 160.575,133.905 160.985C130.977 163.666,128.104 166.375,125.259 169.138C125.067 169.275,124.958 169.357,124.794 169.357C124.63 169.357,124.493 169.275,124.274 169.084C120.963 166.183,117.625 163.256,114.288 160.383C114.123 160.274,113.959 160,113.768 160C113.686 160,113.604 160,113.521 160.055C113.357 160.192,113.33 160.356,113.33 160.465C113.33 160.657,113.412 160.848,113.521 161.012C113.658 161.204,113.713 161.45,113.877 161.696C114.972 163.584,116.476 165.226,117.899 166.895C119.595 168.865,121.237 170.862,122.933 172.832C123.371 173.352,123.645 173.571,123.891 173.571M123.781 166.211C123.973 166.211,124.165 166.129,124.438 166.047C125.122 165.828,125.533 165.308,125.697 164.651C125.806 163.995,125.861 163.338,125.943 162.709C125.943 162.189,125.751 161.724,125.587 161.259C125.423 160.711,125.122 160.547,124.766 160.547C124.548 160.547,124.411 160.575,124.192 160.629C123.617 160.766,122.906 160.766,122.851 161.751C122.851 162.873,123.015 163.94,123.07 165.034C123.097 165.828,123.262 166.211,123.781 166.211"/><path stroke="none" d="M122.933 184.487C122.961 184.487,122.961 184.487,123.015 184.46C123.836 184.323,124.63 184.323,125.45 184.241C125.888 184.213,126.162 183.885,126.162 183.557C126.244 182.9,126.353 182.244,126.353 181.532C126.353 181.341,126.353 181.149,126.326 180.93C126.244 180.301,125.998 180,125.533 180C125.423 180,125.286 180,125.177 180.027C124.63 180.109,124.028 180.192,123.481 180.301C123.125 180.383,122.742 180.547,122.687 180.985C122.605 181.997,122.578 183.037,122.578 184.049C122.578 184.241,122.605 184.487,122.933 184.487"/><path stroke="none" d="M118.943 187.435C119.463 187.435,120.092 187.408,120.585 187.408C122.527 187.408,124.443 187.271,126.385 187.271C127.014 187.271,127.753 187.271,128.382 187.326C129.094 187.353,129.805 187.435,130.407 187.435C131.283 187.435,132.186 187.353,133.006 187.161C133.307 187.107,133.745 187.161,133.745 186.696C133.8 186.204,133.581 185.985,133.088 185.821C131.775 185.438,130.517 185.438,129.176 185.383C126.85 185.301,124.525 185.219,122.172 185.219C121.269 185.219,120.475 185.274,119.573 185.274L116.18 185.274C115.852 185.301,115.386 185.109,115.222 185.492C115.113 185.903,115.441 186.259,115.715 186.56C115.906 186.751,116.18 186.888,116.426 186.997C117.274 187.353,118.15 187.435,118.943 187.435"/></g></g><g class="vf-stavenote" id="vf-auto2242"><g class="vf-stem" id="vf-auto2243" pointer-events="bounding-box"><path stroke-width="1.5" fill="none" d="M190.485 103L190.485 70"/></g><g class="vf-notehead" id="vf-auto2245" pointer-events="bounding-box"><path stroke="none" d="M181.372 111.543C181.652 111.599,181.905 111.627,182.186 111.627C186.061 111.627,191.845 106.348,191.733 102.08C191.621 101.041,191.649 99.609,189.543 98.766C188.953 98.485,188.307 98.373,187.605 98.373C183.281 98.373,178.592 103.343,178.255 106.657C178.255 106.909,178.227 107.134,178.227 107.387C178.227 109.409,179.125 111.037,181.372 111.543"/><path stroke="none" d="M194.317 148.461C195.11 148.461,195.657 148.16,195.903 147.421C196.15 146.655,196.341 145.862,196.341 145.041C196.341 144.85,196.341 144.658,196.286 144.467C196.095 143.126,196.013 141.785,195.903 140.445C195.794 138.967,195.602 137.572,195.384 136.149C195.384 135.985,195.384 135.739,195.165 135.739L195.11 135.739C194.946 135.793,194.672 135.821,194.645 136.094C194.563 136.642,194.453 137.161,194.453 137.681C194.453 139.569,194.535 141.43,194.645 143.263C194.672 143.974,194.535 144.22,193.742 144.22C189.994 144.22,186.218 144.166,182.47 144.138C179.87 144.111,177.299 144.22,174.754 144.22C174.234 144.22,173.988 144.029,173.988 143.591L173.988 143.4C174.125 142.415,174.262 141.43,174.316 140.39C174.316 139.213,174.563 138.064,174.563 136.915C174.563 136.587,174.563 136.176,174.481 135.821C174.426 135.547,174.508 135,174.07 135L174.043 135C173.632 135.027,173.277 135.301,173.222 135.876C173.085 136.778,173.058 137.709,173.003 138.584C172.894 140.746,172.62 142.907,172.62 145.096C172.62 145.944,172.702 146.765,172.784 147.64C172.866 148.352,173.167 148.434,173.769 148.434L183.974 148.434L183.974 148.461M183.81 140.28C184.111 140.28,184.522 140.226,185.041 140.171C185.944 140.089,186.409 139.596,186.437 138.666C186.492 138.338,186.437 138.037,186.437 137.709C186.437 137.435,186.492 137.134,186.492 136.86C186.492 136.696,186.492 136.587,186.437 136.423C186.382 136.067,186.327 135.547,185.89 135.547C185.534 135.52,185.233 135.52,184.877 135.52C184.248 135.52,183.619 135.602,183.017 135.876C182.798 136.012,182.552 136.231,182.552 136.532L182.552 136.614C182.552 137.216,182.497 137.845,182.579 138.393C182.853 139.87,182.935 140.28,183.81 140.28"/><path stroke="none" d="M182.948 169.487C182.976 169.487,182.976 169.487,183.031 169.46C183.851 169.323,184.645 169.323,185.466 169.241C185.903 169.213,186.177 168.885,186.177 168.557C186.259 167.9,186.368 167.244,186.368 166.532C186.368 166.341,186.368 166.149,186.341 165.93C186.259 165.301,186.013 165,185.548 165C185.438 165,185.301 165,185.192 165.027C184.645 165.109,184.043 165.192,183.496 165.301C183.14 165.383,182.757 165.547,182.702 165.985C182.62 166.997,182.593 168.037,182.593 169.049C182.593 169.241,182.62 169.487,182.948 169.487"/><path stroke="none" d="M178.958 172.435C179.478 172.435,180.108 172.408,180.6 172.408C182.543 172.408,184.458 172.271,186.4 172.271C187.03 172.271,187.768 172.271,188.398 172.326C189.109 172.353,189.82 172.435,190.422 172.435C191.298 172.435,192.201 172.353,193.021 172.161C193.322 172.107,193.76 172.161,193.76 171.696C193.815 171.204,193.596 170.985,193.104 170.821C191.79 170.438,190.532 170.438,189.191 170.383C186.865 170.301,184.54 170.219,182.187 170.219C181.284 170.219,180.491 170.274,179.588 170.274L176.195 170.274C175.867 170.301,175.402 170.109,175.237 170.492C175.128 170.903,175.456 171.259,175.73 171.56C175.921 171.751,176.195 171.888,176.441 171.997C177.289 172.353,178.165 172.435,178.958 172.435"/></g></g><g class="vf-stavenote" id="vf-auto2253"><g class="vf-stem" id="vf-auto2254" pointer-events="bounding-box"><path stroke-width="1.5" fill="none" d="M250.5 123L250.5 90"/></g><g class="vf-notehead" id="vf-auto2256" pointer-events="bounding-box"><path stroke="none" d="M241.387 131.543C241.667 131.599,241.92 131.627,242.201 131.627C246.076 131.627,251.86 126.348,251.748 122.08C251.636 121.041,251.664 119.609,249.558 118.766C248.968 118.485,248.322 118.373,247.62 118.373C243.296 118.373,238.607 123.343,238.27 126.657C238.27 126.909,238.242 127.134,238.242 127.387C238.242 129.409,239.14 131.037,241.387 131.543"/><path stroke="none" d="M242.964 139.487C242.991 139.487,242.991 139.487,243.046 139.46C243.866 139.323,244.66 139.323,245.481 139.241C245.918 139.213,246.192 138.885,246.192 138.557C246.274 137.9,246.384 137.244,246.384 136.532C246.384 136.341,246.384 136.149,246.356 135.93C246.274 135.301,246.028 135,245.563 135C245.453 135,245.317 135,245.207 135.027C244.66 135.109,244.058 135.192,243.511 135.301C243.155 135.383,242.772 135.547,242.717 135.985C242.635 136.997,242.608 138.037,242.608 139.049C242.608 139.241,242.635 139.487,242.964 139.487"/><path stroke="none" d="M238.974 157.435C239.493 157.435,240.123 157.408,240.615 157.408C242.558 157.408,244.473 157.271,246.415 157.271C247.045 157.271,247.783 157.271,248.413 157.326C249.124 157.353,249.835 157.435,250.437 157.435C251.313 157.435,252.216 157.353,253.037 157.161C253.338 157.107,253.775 157.161,253.775 156.696C253.83 156.204,253.611 155.985,253.119 155.821C251.805 155.438,250.547 155.438,249.206 155.383C246.881 155.301,244.555 155.219,242.202 155.219C241.299 155.219,240.506 155.274,239.603 155.274L236.21 155.274C235.882 155.301,235.417 155.109,235.253 155.492C235.143 155.903,235.471 156.259,235.745 156.56C235.937 156.751,236.21 156.888,236.456 156.997C237.305 157.353,238.18 157.435,238.974 157.435"/><path stroke="none" d="M244.633 170.999C244.824 170.999,245.016 170.835,245.262 170.616C247.478 168.4,249.749 166.265,251.965 164.077C252.95 163.092,253.251 161.833,253.306 160.438C252.868 160.356,252.622 160.52,252.348 160.711C249.858 162.49,247.478 164.432,245.016 166.32C244.66 166.594,244.386 166.703,244.113 166.703C243.812 166.703,243.538 166.539,243.128 166.238C240.884 164.213,238.559 162.298,236.288 160.328C236.151 160.246,236.041 160,235.877 160C235.795 160,235.713 160.055,235.658 160.137C235.522 160.246,235.44 160.41,235.44 160.602C235.44 160.684,235.44 160.766,235.494 160.876C235.85 161.97,236.397 163.092,237.191 163.858L244.003 170.643C244.222 170.889,244.441 170.999,244.633 170.999M244.523 179.234C244.906 178.96,245.207 178.605,245.508 178.222C248.955 173.707,252.457 169.22,255.85 164.706C256.698 163.584,257.683 162.517,258.094 161.176C258.148 161.067,258.23 160.958,258.23 160.793C258.23 160.711,258.176 160.629,258.094 160.602C257.875 160.492,257.601 160.547,257.382 160.793L257.109 161.149C253.333 165.554,249.585 169.932,245.864 174.337C245.617 174.665,245.426 174.774,245.207 174.774C245.016 174.774,244.824 174.638,244.578 174.337C241.513 170.752,238.258 167.442,235.029 164.022C233.88 162.818,232.731 161.587,231.5 160.356C231.418 160.274,231.363 160.055,231.199 160.055C231.117 160.055,231.089 160.082,231.007 160.164C230.925 160.246,230.761 160.438,230.761 160.602C230.761 160.629,230.761 160.711,230.788 160.766C230.87 160.985,231.007 161.259,231.144 161.505C231.992 162.873,232.977 164.131,233.962 165.417C237.382 169.768,240.611 174.309,243.949 178.769C244.085 178.906,244.195 179.207,244.523 179.234M244.085 165.007C245.07 165.007,245.864 164.268,245.864 163.201C245.809 162.654,245.782 162.025,245.645 161.341C245.563 161.04,245.453 160.547,245.016 160.547L244.906 160.547C244.222 160.766,243.401 160.52,242.964 161.313C242.909 161.395,242.936 161.532,242.936 161.669C243.1 162.599,243.292 163.557,243.456 164.487C243.565 164.815,243.538 165.007,244.085 165.007"/></g></g><g class="vf-stavenote" id="vf-auto2264"><g class="vf-stem" id="vf-auto2265" pointer-events="bounding-box"><path stroke-width="1.5" fill="none" d="M298.507 122L298.507 155"/></g><g class="vf-notehead" id="vf-auto2267" pointer-events="bounding-box"><path stroke="none" d="M300.902 126.543C301.183 126.599,301.435 126.627,301.716 126.627C305.591 126.627,311.376 121.348,311.263 117.08C311.151 116.041,311.179 114.609,309.073 113.766C308.483 113.485,307.838 113.373,307.136 113.373C302.811 113.373,298.122 118.343,297.785 121.657C297.785 121.909,297.757 122.134,297.757 122.387C297.757 124.409,298.655 126.037,300.902 126.543"/><path stroke="none" d="M302.979 164.487C303.006 164.487,303.006 164.487,303.061 164.46C303.882 164.323,304.675 164.323,305.496 164.241C305.934 164.213,306.207 163.885,306.207 163.557C306.289 162.9,306.399 162.244,306.399 161.532C306.399 161.341,306.399 161.149,306.371 160.93C306.289 160.301,306.043 160,305.578 160C305.468 160,305.332 160,305.222 160.027C304.675 160.109,304.073 160.192,303.526 160.301C303.17 160.383,302.787 160.547,302.732 160.985C302.65 161.997,302.623 163.037,302.623 164.049C302.623 164.241,302.65 164.487,302.979 164.487"/><path stroke="none" d="M298.989 172.435C299.509 172.435,300.138 172.408,300.63 172.408C302.573 172.408,304.488 172.271,306.431 172.271C307.06 172.271,307.799 172.271,308.428 172.326C309.139 172.353,309.851 172.435,310.453 172.435C311.328 172.435,312.231 172.353,313.052 172.161C313.353 172.107,313.79 172.161,313.79 171.696C313.845 171.204,313.626 170.985,313.134 170.821C311.821 170.438,310.562 170.438,309.221 170.383C306.896 170.301,304.57 170.219,302.217 170.219C301.314 170.219,300.521 170.274,299.618 170.274L296.225 170.274C295.897 170.301,295.432 170.109,295.268 170.492C295.158 170.903,295.487 171.259,295.76 171.56C295.952 171.751,296.225 171.888,296.472 171.997C297.32 172.353,298.195 172.435,298.989 172.435"/><path stroke="none" d="M292.518 193.003C294.597 192.921,296.649 192.948,298.701 192.921C304.583 192.811,310.411 192.757,316.266 192.757C317.06 192.757,317.47 192.401,317.607 191.772C317.908 190.759,318.099 189.692,318.017 188.625C317.908 186.847,317.853 185.123,317.853 183.345C317.853 181.566,317.826 179.843,317.689 178.064C317.662 177.544,317.689 177.079,317.689 176.56C317.689 176.067,317.662 175.547,317.415 175C317.06 175.164,316.786 175.219,316.704 175.629C316.595 176.505,316.512 177.408,316.512 178.256C316.512 178.666,316.512 179.104,316.567 179.487C316.704 181.183,316.704 182.88,316.704 184.576L316.704 188.078C316.704 188.516,316.567 188.707,316.129 188.707C315.883 188.707,315.692 188.707,315.445 188.735C309.18 188.789,302.887 188.954,296.622 188.954C295.555 188.954,294.46 188.981,293.393 188.954C292.217 188.954,292.135 188.899,292.217 187.804C292.244 187.558,292.244 187.339,292.244 187.12C292.244 186.464,292.162 185.752,292.162 185.068C292.135 182.633,292.135 180.226,292.135 177.791C292.135 177.052,291.971 176.341,291.587 175.711C290.958 175.985,290.986 176.45,290.986 176.915C290.986 180.499,291.177 184.084,291.177 187.668L291.177 189.145C291.177 190.13,291.177 191.06,291.423 192.018C291.587 192.675,291.724 193.003,292.518 193.003M312.573 186.847C313.311 186.902,313.667 186.573,313.831 185.944C314.077 185.041,314.242 184.138,314.242 183.181C314.242 182.962,314.242 182.716,314.187 182.469C314.105 181.621,314.105 180.746,314.105 179.87L314.105 178.146C314.105 177.271,314.187 176.423,313.886 175.547C313.12 175.793,313.12 176.368,313.12 176.915L313.12 182.25C313.12 182.688,313.01 182.798,312.545 182.798L296.54 182.442C296.075 182.442,295.91 182.278,295.91 181.895L295.91 180.554C295.91 180.144,295.91 179.761,295.883 179.323C295.828 178.748,295.883 178.146,295.883 177.544C295.883 176.888,295.801 176.176,295.445 175.52C294.953 175.657,294.816 175.903,294.734 176.341C294.652 176.642,294.652 176.915,294.652 177.244C294.652 177.818,294.734 178.42,294.761 179.049L294.761 181.566C294.761 182.907,294.761 184.22,294.953 185.561C295.035 186.136,295.117 186.491,295.883 186.491C301.464 186.491,307.019 186.573,312.573 186.847M304.118 180.664C306.006 180.664,306.471 180.007,306.471 177.955C306.471 176.45,306.417 176.149,305.404 176.149C302.641 176.149,302.915 176.423,302.915 178.119L302.915 178.584L302.915 180.089C302.915 180.363,302.997 180.581,303.407 180.636C303.681 180.636,303.899 180.664,304.118 180.664"/></g></g><g class="vf-stavenote" id="vf-auto2275"><g class="vf-stem" id="vf-auto2276" pointer-events="bounding-box"><path stroke-width="1.5" fill="none" d="M370.53 103L370.53 70"/></g><g class="vf-notehead" id="vf-auto2278" pointer-events="bounding-box"><path stroke="none" d="M361.417 111.543C361.698 111.599,361.95 111.627,362.231 111.627C366.106 111.627,371.891 106.348,371.778 102.08C371.666 101.041,371.694 99.609,369.588 98.766C368.999 98.485,368.353 98.373,367.651 98.373C363.326 98.373,358.637 103.343,358.3 106.657C358.3 106.909,358.272 107.134,358.272 107.387C358.272 109.409,359.171 111.037,361.417 111.543"/><path stroke="none" d="M362.994 117.244C363.021 117.244,363.021 117.244,363.076 117.216C363.897 117.079,364.69 117.079,365.511 116.997C365.949 116.97,366.222 116.642,366.222 116.313C366.304 115.657,366.414 115,366.414 114.289C366.414 114.097,366.414 113.906,366.386 113.687C366.304 113.057,366.058 112.756,365.593 112.756C365.484 112.756,365.347 112.756,365.237 112.784C364.69 112.866,364.088 112.948,363.541 113.057C363.185 113.14,362.802 113.304,362.748 113.741C362.666 114.754,362.638 115.793,362.638 116.806C362.638 116.997,362.666 117.244,362.994 117.244"/><path stroke="none" d="M359.004 126.327C359.524 126.327,360.153 126.3,360.645 126.3C362.588 126.3,364.503 126.163,366.446 126.163C367.075 126.163,367.814 126.163,368.443 126.218C369.154 126.245,369.866 126.327,370.468 126.327C371.343 126.327,372.246 126.245,373.067 126.053C373.368 125.999,373.806 126.053,373.806 125.588C373.86 125.096,373.641 124.877,373.149 124.713C371.836 124.33,370.577 124.33,369.236 124.275C366.911 124.193,364.585 124.111,362.232 124.111C361.329 124.111,360.536 124.166,359.633 124.166L356.24 124.166C355.912 124.193,355.447 124.001,355.283 124.384C355.173 124.795,355.502 125.15,355.775 125.451C355.967 125.643,356.24 125.78,356.487 125.889C357.335 126.245,358.21 126.327,359.004 126.327"/><path stroke="none" d="M363.729 151.852C365.316 151.496,366.684 150.785,367.997 149.882C370.87 147.912,372.402 144.985,373.825 141.948C374.482 140.607,374.837 139.212,374.728 137.707C374.673 137.269,374.673 136.64,374.208 136.64C373.77 136.64,373.305 136.886,373.141 137.433C373.114 137.652,373.004 137.816,372.867 138.008C372.047 140.033,371.034 141.92,369.694 143.617C368.435 145.231,366.848 146.408,364.906 147.037C364.358 147.228,363.811 147.31,363.291 147.31C361.814 147.31,360.473 146.599,359.242 145.587C357.354 144.055,356.205 142.194,356.205 139.923C356.205 139.403,356.26 138.884,356.369 138.336C356.451 137.789,356.616 137.187,356.616 136.613C356.616 136.448,356.616 136.257,356.561 136.093C356.479 135.737,356.561 135.135,356.178 135.053C355.658 135.026,355.22 135.354,355.029 135.901C354.974 136.093,354.919 136.257,354.865 136.448C354.564 137.953,354.235 139.431,354.317 141.127C354.345 144.547,355.056 147.83,358.175 150.156C359.57 151.168,360.966 151.962,362.635 151.962C362.99 151.962,363.346 151.934,363.729 151.852M365.672 140.224C366.055 140.279,366.219 140.06,366.219 139.321C366.219 137.379,364.687 135.764,362.744 135.764C362.17 135.764,361.759 135.983,361.732 136.284C361.677 136.531,361.677 136.722,361.677 136.914C361.677 138.528,362.58 139.677,364.276 140.033"/></g></g><g class="vf-stavenote" id="vf-auto2286"><path stroke-width="1.4" fill="none" stroke="#444" d="M414.787 80L434.295 80"/><g class="vf-stem" id="vf-auto2287" pointer-events="bounding-box"><path stroke-width="1.5" fill="none" d="M418.537 82L418.537 115"/></g><g class="vf-notehead" id="vf-auto2289" pointer-events="bounding-box"><path stroke="none" d="M420.932 86.543C421.213 86.599,421.466 86.627,421.746 86.627C425.621 86.627,431.406 81.348,431.294 77.08C431.181 76.041,431.209 74.609,429.103 73.766C428.514 73.485,427.868 73.373,427.166 73.373C422.841 73.373,418.152 78.343,417.815 81.657C417.815 81.909,417.787 82.134,417.787 82.387C417.787 84.409,418.686 86.037,420.932 86.543"/><path stroke="none" d="M416.308 69.802C417.047 69.064,417.184 68.079,417.376 67.121C417.759 65.124,418.278 63.181,419.701 61.567C420.686 60.418,421.78 59.351,423.012 58.503C423.778 57.928,424.544 57.654,425.447 57.545C426.049 57.545,426.459 57.873,427.088 58.284C429.742 60.199,431.548 62.525,431.74 65.89C431.74 66.136,431.521 66.492,431.521 66.765L431.521 67.668C431.548 68.024,431.356 68.571,431.712 68.708C432.177 68.899,432.506 68.434,432.724 68.079C432.889 67.832,432.971 67.559,433.053 67.285C433.299 66.464,433.354 65.616,433.491 64.768C433.6 64.002,433.627 63.291,433.846 62.47C433.846 59.515,432.697 56.916,430.563 54.563C429.14 52.976,427.608 52.319,426.076 52.182C425.2 52.182,424.133 52.456,423.203 52.784C421.671 53.304,420.713 54.59,419.646 55.685C417.567 57.873,415.953 60.308,415.351 63.263C415.241 64.002,415.159 64.713,415.351 65.315C415.351 66.683,415.351 68.188,415.515 69.556C415.57 69.912,415.679 70.076,416.035 69.966C416.199 69.966,416.144 69.966,416.308 69.802M424.489 69.064C424.817 69.091,425.009 69.091,425.365 68.982C425.83 68.982,425.638 68.899,425.638 68.024C425.693 67.914,425.693 67.75,425.884 67.504C425.884 67.039,425.474 66.738,424.982 66.464C424.216 66.054,423.449 65.808,422.601 65.862C422.136 65.862,421.48 65.78,421.397 66.656C421.315 67.86,421.589 68.544,422.382 68.763C423.094 68.982,423.778 68.982,424.489 69.064"/><path stroke="none" d="M423.009 45C423.036 45,423.036 45,423.091 44.973C423.912 44.836,424.705 44.836,425.526 44.754C425.964 44.726,426.237 44.398,426.237 44.07C426.32 43.413,426.429 42.756,426.429 42.045C426.429 41.854,426.429 41.662,426.402 41.443C426.32 40.814,426.073 40.513,425.608 40.513C425.499 40.513,425.362 40.513,425.252 40.54C424.705 40.622,424.103 40.704,423.556 40.814C423.2 40.896,422.817 41.06,422.763 41.498C422.681 42.51,422.653 43.55,422.653 44.562C422.653 44.754,422.681 45,423.009 45"/><path stroke="none" d="M419.019 35C419.539 35,420.168 34.973,420.661 34.973C422.603 34.973,424.518 34.836,426.461 34.836C427.09 34.836,427.829 34.836,428.458 34.891C429.17 34.918,429.881 35,430.483 35C431.358 35,432.261 34.918,433.082 34.726C433.383 34.672,433.821 34.726,433.821 34.261C433.875 33.769,433.657 33.55,433.164 33.386C431.851 33.003,430.592 33.003,429.252 32.948C426.926 32.866,424.6 32.784,422.247 32.784C421.345 32.784,420.551 32.839,419.648 32.839L416.256 32.839C415.927 32.866,415.462 32.674,415.298 33.057C415.189 33.468,415.517 33.824,415.79 34.124C415.982 34.343,416.256 34.453,416.502 34.562C417.35 34.918,418.226 35,419.019 35"/></g></g><g class="vf-stavenote" id="vf-auto2297"><g class="vf-stem" id="vf-auto2298" pointer-events="bounding-box"><path stroke-width="1.5" fill="none" d="M490.56 88L490.56 55"/></g><g class="vf-notehead" id="vf-auto2300" pointer-events="bounding-box"><path stroke="none" d="M481.447 96.543C481.728 96.599,481.981 96.627,482.261 96.627C486.137 96.627,491.921 91.348,491.809 87.08C491.696 86.041,491.724 84.609,489.618 83.766C489.029 83.485,488.383 83.373,487.681 83.373C483.357 83.373,478.667 88.343,478.33 91.657C478.33 91.909,478.302 92.134,478.302 92.387C478.302 94.409,479.201 96.037,481.447 96.543"/><path stroke="none" d="M474.255 49.998C474.529 50.026,474.638 49.725,474.802 49.533C477.73 46.359,480.63 43.186,483.503 39.984C483.667 39.82,483.776 39.766,483.913 39.766C484.023 39.766,484.132 39.82,484.269 39.957L488.318 43.842C490.206 45.703,492.203 47.426,494.146 49.287C494.255 49.369,494.337 49.478,494.42 49.478C494.502 49.478,494.584 49.451,494.666 49.314C495.049 49.013,495.295 47.974,495.295 46.989C495.295 46.223,495.131 45.511,494.83 45.183L484.734 35.853C484.543 35.662,484.324 35.58,484.187 35.58C483.995 35.58,483.776 35.744,483.585 35.935C480.603 39.164,477.675 42.42,474.556 45.539C474.146 45.976,473.845 46.414,473.845 46.989C473.845 47.125,473.845 47.235,473.9 47.399C473.845 47.508,473.817 47.673,473.817 47.782C473.817 48.302,474.064 48.74,474.064 49.26C474.091 49.478,473.9 49.889,474.255 49.998M483.585 48.63C483.667 48.63,483.749 48.63,483.859 48.548C485.363 48.138,485.61 47.946,485.61 46.058C485.61 45.73,485.61 45.429,485.555 45.156C485.528 44.608,485.555 44.006,484.761 44.006C483.64 44.006,482.928 44.472,482.928 45.265C482.928 46.25,483.038 47.153,483.147 48.138C483.202 48.466,483.284 48.63,483.585 48.63"/><path stroke="none" d="M483.024 30C483.051 30,483.051 30,483.106 29.973C483.927 29.836,484.72 29.836,485.541 29.754C485.979 29.726,486.253 29.398,486.253 29.07C486.335 28.413,486.444 27.756,486.444 27.045C486.444 26.854,486.444 26.662,486.417 26.443C486.335 25.814,486.088 25.513,485.623 25.513C485.514 25.513,485.377 25.513,485.268 25.54C484.72 25.622,484.118 25.704,483.571 25.814C483.216 25.896,482.833 26.06,482.778 26.498C482.696 27.51,482.668 28.55,482.668 29.562C482.668 29.754,482.696 30,483.024 30"/><path stroke="none" d="M479.034 20C479.554 20,480.183 19.973,480.676 19.973C482.618 19.973,484.533 19.836,486.476 19.836C487.105 19.836,487.844 19.836,488.473 19.891C489.185 19.918,489.896 20,490.498 20C491.373 20,492.276 19.918,493.097 19.726C493.398 19.672,493.836 19.726,493.836 19.261C493.891 18.769,493.672 18.55,493.179 18.386C491.866 18.003,490.607 18.003,489.267 17.948C486.941 17.866,484.616 17.784,482.263 17.784C481.36 17.784,480.566 17.839,479.663 17.839L476.271 17.839C475.942 17.866,475.477 17.674,475.313 18.057C475.204 18.468,475.532 18.824,475.806 19.124C475.997 19.343,476.271 19.453,476.517 19.562C477.365 19.918,478.241 20,479.034 20"/></g></g><g class="vf-stavenote" id="vf-auto2308"><g class="vf-stem" id="vf-auto2309" pointer-events="bounding-box"><path stroke-width="1.5" fill="none" d="M538.567 112L538.567 145"/></g><g class="vf-notehead" id="vf-auto2311" pointer-events="bounding-box"><path stroke="none" d="M540.962 116.543C541.243 116.599,541.496 116.627,541.777 116.627C545.652 116.627,551.436 111.348,551.324 107.08C551.212 106.041,551.24 104.609,549.134 103.766C548.544 103.485,547.898 103.373,547.196 103.373C542.872 103.373,538.182 108.343,537.845 111.657C537.845 111.909,537.817 112.134,537.817 112.387C537.817 114.409,538.716 116.037,540.962 116.543"/><path stroke="none" d="M533.468 85C533.714 85,533.879 84.672,533.906 84.371C534.152 83.523,534.262 82.62,534.262 81.772C534.262 81.443,534.262 81.17,534.234 80.841C534.015 79.282,534.152 77.75,534.07 76.217C534.07 75.698,534.18 75.506,534.645 75.506C534.699 75.506,534.727 75.506,534.781 75.451C536.697 75.561,538.639 75.616,540.554 75.643C544.932 75.725,549.31 75.916,553.715 76.081C554.125 76.081,554.316 76.135,554.344 76.6L554.7 80.349C554.836 81.607,554.864 82.893,555.192 84.289C555.903 83.523,556.314 81.963,556.204 80.814C555.958 78.516,555.739 76.217,555.466 73.919C555.247 72.196,555.137 71.977,553.715 71.949L534.426 71.484C533.249 71.429,532.948 71.676,532.948 72.907L532.948 74.165C532.948 75.862,532.921 77.531,532.921 79.2C532.921 80.896,533.003 82.592,533.167 84.289C533.167 84.562,533.085 85,533.468 85M543.947 84.672C544.221 84.672,544.549 84.644,544.932 84.59C545.616 84.508,545.89 84.152,545.972 83.605C545.999 83.413,545.999 83.249,545.999 83.057L545.999 82.456C545.999 81.772,545.999 81.06,545.643 80.376C545.534 80.185,545.479 80.02,545.206 80.02C543.482 79.856,542.606 80.486,542.606 81.881C542.606 82.155,542.661 82.456,542.743 82.811C542.771 82.866,542.771 82.948,542.771 82.975C543.099 84.371,543.126 84.672,543.947 84.672"/><path stroke="none" d="M543.039 65C543.067 65,543.067 65,543.121 64.973C543.942 64.836,544.736 64.836,545.556 64.754C545.994 64.726,546.268 64.398,546.268 64.07C546.35 63.413,546.459 62.756,546.459 62.045C546.459 61.854,546.459 61.662,546.432 61.443C546.35 60.814,546.104 60.513,545.638 60.513C545.529 60.513,545.392 60.513,545.283 60.54C544.736 60.622,544.134 60.704,543.586 60.814C543.231 60.896,542.848 61.06,542.793 61.498C542.711 62.51,542.684 63.55,542.684 64.562C542.684 64.754,542.711 65,543.039 65"/><path stroke="none" d="M539.049 55C539.569 55,540.198 54.973,540.691 54.973C542.633 54.973,544.549 54.836,546.491 54.836C547.12 54.836,547.859 54.836,548.488 54.891C549.2 54.918,549.911 55,550.513 55C551.389 55,552.291 54.918,553.112 54.726C553.413 54.672,553.851 54.726,553.851 54.261C553.906 53.769,553.687 53.55,553.194 53.386C551.881 53.003,550.622 53.003,549.282 52.948C546.956 52.866,544.631 52.784,542.278 52.784C541.375 52.784,540.581 52.839,539.678 52.839L536.286 52.839C535.958 52.866,535.492 52.674,535.328 53.057C535.219 53.468,535.547 53.824,535.821 54.124C536.012 54.343,536.286 54.453,536.532 54.562C537.38 54.918,538.256 55,539.049 55"/></g></g><g class="vf-stavenote" id="vf-auto2319"><path stroke-width="1.4" fill="none" stroke="#444" d="M594.832 80L614.341 80"/><g class="vf-stem" id="vf-auto2320" pointer-events="bounding-box"><path stroke-width="1.5" fill="none" d="M598.582 82L598.582 115"/></g><g class="vf-notehead" id="vf-auto2322" pointer-events="bounding-box"><path stroke="none" d="M600.977 86.543C601.258 86.599,601.511 86.627,601.792 86.627C605.667 86.627,611.451 81.348,611.339 77.08C611.227 76.041,611.255 74.609,609.149 73.766C608.559 73.485,607.913 73.373,607.211 73.373C602.887 73.373,598.198 78.343,597.861 81.657C597.861 81.909,597.832 82.134,597.832 82.387C597.832 84.409,598.731 86.037,600.977 86.543"/><path stroke="none" d="M603.054 70C603.082 70,603.082 70,603.136 69.973C603.957 69.836,604.751 69.836,605.571 69.754C606.009 69.726,606.283 69.398,606.283 69.07C606.365 68.413,606.474 67.756,606.474 67.045C606.474 66.854,606.474 66.662,606.447 66.443C606.365 65.814,606.119 65.513,605.654 65.513C605.544 65.513,605.407 65.513,605.298 65.54C604.751 65.622,604.149 65.704,603.602 65.814C603.246 65.896,602.863 66.06,602.808 66.498C602.726 67.51,602.699 68.55,602.699 69.562C602.699 69.754,602.726 70,603.054 70"/><path stroke="none" d="M599.064 60C599.584 60,600.213 59.973,600.706 59.973C602.649 59.973,604.564 59.836,606.506 59.836C607.136 59.836,607.874 59.836,608.504 59.891C609.215 59.918,609.926 60,610.528 60C611.404 60,612.307 59.918,613.127 59.726C613.428 59.672,613.866 59.726,613.866 59.261C613.921 58.769,613.702 58.55,613.209 58.386C611.896 58.003,610.638 58.003,609.297 57.948C606.971 57.866,604.646 57.784,602.293 57.784C601.39 57.784,600.597 57.839,599.694 57.839L596.301 57.839C595.973 57.866,595.508 57.674,595.343 58.057C595.234 58.468,595.562 58.824,595.836 59.124C596.027 59.343,596.301 59.453,596.547 59.562C597.395 59.918,598.271 60,599.064 60"/><path stroke="none" d="M618.431 50C618.513 49.562,618.595 49.152,618.595 48.796C618.595 47.674,618.157 46.717,617.555 45.896C613.697 40.506,609.758 35.226,605.818 29.945C605.462 29.453,605.106 29.234,604.805 29.234C604.395 29.234,604.039 29.453,603.711 29.972C602.425 31.778,601.167 33.557,599.881 35.362C597.473 38.728,595.175 42.12,592.575 45.294C591.891 46.17,591.18 47.045,590.578 48.167C591.481 48.03,592.001 47.62,592.439 47.127C593.342 46.142,594.19 45.075,595.147 44.118C598.13 41.135,601.084 38.016,604.094 35.007C604.368 34.733,604.559 34.596,604.751 34.596C604.97 34.596,605.161 34.733,605.435 35.061C608.909 39.029,612.439 42.968,615.831 47.045C616.625 47.975,617.5 48.878,618.431 50M613.479 49.207C613.506 49.042,613.506 48.878,613.506 48.741C613.506 47.756,612.959 47.127,612.439 46.525C610.305 43.871,608.061 41.272,605.9 38.673C605.708 38.454,605.517 38.208,605.38 37.934C605.161 37.469,604.997 37.223,604.751 37.223C604.559 37.223,604.34 37.414,604.012 37.825C602.753 39.439,601.413 40.971,600.072 42.503C598.704 44.118,597.117 45.568,596.132 47.538C596.023 47.784,595.612 48.057,595.612 48.304C595.612 48.386,595.667 48.44,595.749 48.523C596.05 48.796,596.461 48.249,596.762 48.057L597.09 47.811C599.361 45.841,601.741 43.953,604.094 42.066C604.286 41.901,604.395 41.847,604.532 41.847C604.641 41.847,604.805 41.901,604.97 42.066C606.775 43.68,608.636 45.212,610.524 46.772M604.121 48.769C604.258 48.769,604.395 48.741,604.559 48.605C604.97 48.331,605.353 47.948,605.79 47.893C606.529 47.811,606.611 47.401,606.611 46.908C606.611 46.416,606.502 46.005,606.42 45.622C606.064 44.172,605.708 43.57,605.161 43.57C604.696 43.57,604.094 43.926,603.136 44.555C602.835 44.802,602.671 45.075,602.671 45.431C602.671 45.568,602.671 45.732,602.753 45.896C603.054 46.689,603.301 47.51,603.629 48.304C603.738 48.577,603.903 48.769,604.121 48.769"/></g></g><g class="vf-stavenote" id="vf-auto2330"><g class="vf-stem" id="vf-auto2331" pointer-events="bounding-box"><path stroke-width="1.5" fill="none" d="M670.606 88L670.606 55"/></g><g class="vf-notehead" id="vf-auto2333" pointer-events="bounding-box"><path stroke="none" d="M661.493 96.543C661.773 96.599,662.026 96.627,662.307 96.627C666.182 96.627,671.966 91.348,671.854 87.08C671.742 86.041,671.77 84.609,669.664 83.766C669.074 83.485,668.428 83.373,667.726 83.373C663.402 83.373,658.713 88.343,658.376 91.657C658.376 91.909,658.348 92.134,658.348 92.387C658.348 94.409,659.246 96.037,661.493 96.543"/><path stroke="none" d="M663.069 50C663.097 50,663.097 50,663.152 49.973C663.972 49.836,664.766 49.836,665.587 49.754C666.024 49.726,666.298 49.398,666.298 49.07C666.38 48.413,666.489 47.756,666.489 47.045C666.489 46.854,666.489 46.662,666.462 46.443C666.38 45.814,666.134 45.513,665.669 45.513C665.559 45.513,665.422 45.513,665.313 45.54C664.766 45.622,664.164 45.704,663.617 45.814C663.261 45.896,662.878 46.06,662.823 46.498C662.741 47.51,662.714 48.55,662.714 49.562C662.714 49.754,662.741 50,663.069 50"/><path stroke="none" d="M659.079 40C659.599 40,660.229 39.973,660.721 39.973C662.664 39.973,664.579 39.836,666.521 39.836C667.151 39.836,667.889 39.836,668.519 39.891C669.23 39.918,669.941 40,670.543 40C671.419 40,672.322 39.918,673.143 39.726C673.443 39.672,673.881 39.726,673.881 39.261C673.936 38.769,673.717 38.55,673.225 38.386C671.911 38.003,670.653 38.003,669.312 37.948C666.987 37.866,664.661 37.784,662.308 37.784C661.405 37.784,660.612 37.839,659.709 37.839L656.316 37.839C655.988 37.866,655.523 37.674,655.359 38.057C655.249 38.468,655.577 38.824,655.851 39.124C656.043 39.343,656.316 39.453,656.562 39.562C657.411 39.918,658.286 40,659.079 40"/><path stroke="none" d="M651.223 29.993C651.496 30.048,651.578 29.774,651.66 29.555C651.852 29.063,651.852 28.543,651.852 27.996L651.852 17.188C651.852 16.669,651.934 16.368,652.399 16.368L652.481 16.368C652.563 16.368,652.645 16.368,652.727 16.313C653.302 16.395,653.849 16.395,654.451 16.395L656.175 16.395C662.878 16.395,669.609 16.559,676.312 16.559C676.941 16.559,677.215 16.669,677.269 17.353C677.461 20.499,677.461 23.618,677.57 26.737C677.625 27.804,677.734 28.844,677.844 29.966C678.637 29.282,678.692 28.488,678.692 27.749C678.637 23.7,678.555 19.623,678.446 15.574C678.446 14.753,678.336 13.933,678.2 13.139C678.117 12.537,677.817 12.373,677.215 12.373C672.919 12.373,668.624 12.346,664.383 12.318C660.169 12.264,655.983 12.236,651.77 12.236C651.031 12.236,650.703 12.537,650.703 13.303C650.703 17.736,650.511 22.223,650.511 26.682C650.511 27.667,650.867 28.57,650.949 29.555C650.976 29.719,651.113 29.966,651.223 29.993M655.628 29.692C656.147 29.637,656.093 29.063,656.175 28.625C656.229 28.433,656.175 28.187,656.175 27.941C656.257 26.245,655.901 24.548,655.983 22.879C655.983 22.442,656.065 22.277,656.503 22.277L656.613 22.277C658.747 22.387,660.881 22.469,662.987 22.551L671.633 22.907C672.18 22.934,672.454 23.016,672.509 23.727C672.563 24.986,672.645 26.299,672.892 27.558C672.974 28.187,672.837 28.926,673.329 29.555C673.822 29.09,673.959 28.488,673.959 27.914C673.959 26.737,673.986 25.588,673.795 24.439C673.521 22.825,673.521 21.21,673.138 19.596C672.974 18.967,672.645 18.803,672.016 18.775C666.599 18.42,661.1 18.447,655.682 18.255C654.971 18.255,654.697 18.502,654.697 19.131C654.697 22.359,654.615 25.533,655.245 28.707C655.327 29.09,655.354 29.692,655.628 29.692M663.589 29.364C663.945 29.364,664.465 29.282,665.176 29.172C666.079 29.063,666.38 28.57,666.435 27.804L666.435 27.011L666.38 27.011C666.38 26.764,666.435 26.518,666.38 26.245C666.298 25.123,666.161 24.767,665.286 24.767C665.121 24.767,664.957 24.795,664.766 24.767C664.191 24.795,663.644 24.849,663.069 24.904C662.44 24.959,662.085 25.232,662.085 25.834C662.085 26.217,662.139 26.655,662.221 27.038C662.495 28.844,662.522 29.336,663.589 29.364"/></g></g><g class="vf-stavenote" id="vf-auto2341"><g class="vf-stem" id="vf-auto2342" pointer-events="bounding-box"><path stroke-width="1.5" fill="none" d="M718.613 112L718.613 145"/></g><g class="vf-notehead" id="vf-auto2344" pointer-events="bounding-box"><path stroke="none" d="M721.008 116.543C721.289 116.599,721.541 116.627,721.822 116.627C725.697 116.627,731.482 111.348,731.369 107.08C731.257 106.041,731.285 104.609,729.179 103.766C728.589 103.485,727.943 103.373,727.241 103.373C722.917 103.373,718.228 108.343,717.891 111.657C717.891 111.909,717.863 112.134,717.863 112.387C717.863 114.409,718.761 116.037,721.008 116.543"/><path stroke="none" d="M723.085 97.244C723.112 97.244,723.112 97.244,723.167 97.216C723.988 97.079,724.781 97.079,725.602 96.997C726.04 96.97,726.313 96.642,726.313 96.313C726.395 95.657,726.505 95,726.505 94.289C726.505 94.097,726.505 93.906,726.477 93.687C726.395 93.057,726.149 92.756,725.684 92.756C725.574 92.756,725.438 92.756,725.328 92.784C724.781 92.866,724.179 92.948,723.632 93.057C723.276 93.14,722.893 93.304,722.838 93.741C722.756 94.754,722.729 95.793,722.729 96.806C722.729 96.997,722.756 97.244,723.085 97.244"/><path stroke="none" d="M719.095 85C719.614 85,720.244 84.973,720.736 84.973C722.679 84.973,724.594 84.836,726.537 84.836C727.166 84.836,727.905 84.836,728.534 84.891C729.245 84.918,729.957 85,730.558 85C731.434 85,732.337 84.918,733.158 84.726C733.459 84.672,733.896 84.726,733.896 84.261C733.951 83.769,733.732 83.55,733.24 83.386C731.926 83.003,730.668 83.003,729.327 82.948C727.002 82.866,724.676 82.784,722.323 82.784C721.42 82.784,720.627 82.839,719.724 82.839L716.331 82.839C716.003 82.866,715.538 82.674,715.374 83.057C715.264 83.468,715.593 83.824,715.866 84.124C716.058 84.343,716.331 84.453,716.577 84.562C717.426 84.918,718.301 85,719.095 85"/><path stroke="none" d="M716.384 79.802C717.123 79.064,717.26 78.079,717.451 77.121C717.834 75.124,718.354 73.181,719.777 71.567C720.762 70.418,721.856 69.351,723.087 68.503C723.853 67.928,724.62 67.654,725.522 67.545C726.124 67.545,726.535 67.873,727.164 68.284C729.818 70.199,731.624 72.525,731.815 75.89C731.815 76.136,731.596 76.492,731.596 76.765L731.596 77.668C731.624 78.024,731.432 78.571,731.788 78.708C732.253 78.899,732.581 78.434,732.8 78.079C732.964 77.832,733.046 77.559,733.128 77.285C733.375 76.464,733.429 75.616,733.566 74.768C733.676 74.002,733.703 73.291,733.922 72.47C733.922 69.515,732.773 66.916,730.639 64.563C729.216 62.976,727.684 62.319,726.152 62.182C725.276 62.182,724.209 62.456,723.279 62.784C721.747 63.304,720.789 64.59,719.722 65.685C717.643 67.873,716.028 70.308,715.427 73.263C715.317 74.002,715.235 74.713,715.427 75.315C715.427 76.683,715.427 78.188,715.591 79.556C715.645 79.912,715.755 80.076,716.111 79.966C716.275 79.966,716.22 79.966,716.384 79.802M724.565 79.064C724.893 79.091,725.085 79.091,725.44 78.982C725.905 78.982,725.714 78.899,725.714 78.024C725.769 77.914,725.769 77.75,725.96 77.504C725.96 77.039,725.55 76.738,725.057 76.464C724.291 76.054,723.525 75.808,722.677 75.862C722.212 75.862,721.555 75.78,721.473 76.656C721.391 77.86,721.665 78.544,722.458 78.763C723.169 78.982,723.853 78.982,724.565 79.064"/></g></g></svg>