<svg xmlns="http://www.w3.org/2000/svg" stroke-width="0.3" stroke-dasharray="none" fill="black" stroke="black" font-family="Arial, sans-serif" font-size="10pt" font-weight="normal" font-style="normal" width="300" height="500" viewBox="0 0 300 500" style="width: 300px; height: 500px; border: none;"><g class="vf-stave" id="vf-auto25075" stroke-width="1" fill="#999999" stroke="#999999"><path fill="none" d="M50 50L300 50"/><path fill="none" d="M50 60L300 60"/><path fill="none" d="M50 70L300 70"/><path fill="none" d="M50 80L300 80"/><path fill="none" d="M50 90L300 90"/></g><g class="vf-stavebarline" id="vf-auto25076"/><g class="vf-stavebarline" id="vf-auto25077"><rect x="300" y="49.5" width="1" height="41" stroke="none"/></g><g class="vf-stave" id="vf-auto25078" stroke-width="1" fill="#999999" stroke="#999999"><path fill="none" d="M50 170L300 170"/><path fill="none" d="M50 180L300 180"/><path fill="none" d="M50 190L300 190"/><path fill="none" d="M50 200L300 200"/><path fill="none" d="M50 210L300 210"/></g><g class="vf-stavebarline" id="vf-auto25079"/><g class="vf-stavebarline" id="vf-auto25080"><rect x="300" y="169.5" width="1" height="41" stroke="none"/></g><g class="vf-stave" id="vf-auto25081" stroke-width="1" fill="#999999" stroke="#999999"><path fill="none" d="M50 290L300 290"/><path fill="none" d="M50 300L300 300"/><path fill="none" d="M50 310L300 310"/><path fill="none" d="M50 320L300 320"/><path fill="none" d="M50 330L300 330"/></g><g class="vf-stavebarline" id="vf-auto25082"/><g class="vf-stavebarline" id="vf-auto25083"><rect x="300" y="289.5" width="1" height="41" stroke="none"/></g><g class="vf-stave" id="vf-auto25084" stroke-width="1" fill="#999999" stroke="#999999"><path fill="none" d="M50 410L300 410"/><path fill="none" d="M50 420L300 420"/><path fill="none" d="M50 430L300 430"/><path fill="none" d="M50 440L300 440"/><path fill="none" d="M50 450L300 450"/></g><g class="vf-stavebarline" id="vf-auto25085"/><g class="vf-stavebarline" id="vf-auto25086"><rect x="300" y="409.5" width="1" height="41" stroke="none"/></g><g class="vf-glyphNote" id="vf-auto25058"><path stroke="none" d="M174.812 64.816C174.812 63.376,173.602 62.195,172.191 62.195C170.751 62.195,169.57 63.376,169.57 64.816C169.57 66.256,170.751 67.437,172.191 67.437C173.602 67.437,174.812 66.256,174.812 64.816M189.5 59.632L184.258 59.632L169.542 80.368L174.754 80.368M189.5 75.213C189.5 73.773,188.29 72.621,186.879 72.621C185.439 72.621,184.258 73.773,184.258 75.213C184.258 76.682,185.439 77.834,186.879 77.834C188.29 77.834,189.5 76.682,189.5 75.213"/></g><g class="vf-glyphNote" id="vf-auto25060"><path stroke="none" d="M194.756 195.213C194.756 193.773,193.575 192.621,192.164 192.621C190.695 192.621,189.543 193.773,189.543 195.213C189.543 196.682,190.695 197.834,192.164 197.834C193.575 197.834,194.756 196.682,194.756 195.213M169.556 184.816C169.556 183.376,168.346 182.195,166.935 182.195C165.495 182.195,164.314 183.376,164.314 184.816C164.314 186.256,165.495 187.437,166.935 187.437C168.346 187.437,169.556 186.256,169.556 184.816M184.244 179.632L179.002 179.632L164.286 200.368L169.498 200.368M194.756 179.632L189.543 179.632L174.826 200.368L180.039 200.368"/></g><g class="vf-glyphNote" id="vf-auto25062"><path stroke="none" d="M159.015 304.816C159.015 303.376,157.806 302.195,156.394 302.195C154.954 302.195,153.774 303.376,153.774 304.816C153.774 306.256,154.954 307.437,156.394 307.437C157.806 307.437,159.015 306.256,159.015 304.816M173.703 299.632L168.462 299.632L153.745 320.368L158.958 320.368M184.215 299.632L179.002 299.632L164.286 320.368L169.498 320.368M194.756 299.632L189.543 299.632L174.826 320.368L180.039 320.368M205.297 299.632L200.055 299.632L185.338 320.368L190.58 320.368M205.297 315.213C205.297 313.773,204.087 312.621,202.676 312.621C201.236 312.621,200.055 313.773,200.055 315.213C200.055 316.682,201.236 317.834,202.676 317.834C204.087 317.834,205.297 316.682,205.297 315.213"/></g><g class="vf-glyphNote" id="vf-auto25064"><path stroke="none" d="M86.958 419.632L81.717 419.632L67 440.368L72.213 440.368"/></g><g class="vf-glyphNote" id="vf-auto25066"><path stroke="none" d="M152.458 419.632L147.217 419.632L132.5 440.368L137.713 440.368"/></g><g class="vf-glyphNote" id="vf-auto25068"><path stroke="none" d="M217.958 419.632L212.717 419.632L198 440.368L203.213 440.368"/></g><g class="vf-glyphNote" id="vf-auto25070"><path stroke="none" d="M283.458 419.632L278.217 419.632L263.5 440.368L268.713 440.368"/></g><path stroke="none" d="M65.074 32.509C64.987 32.48,64.872 32.422,64.786 32.422C64.613 32.422,64.411 32.48,64.325 32.624C64.238 32.768,60.091 39.162,52.171 39.162L45.576 39.162C45.259 39.162,45 39.363,45 39.68L45 43.424L45 44L50.069 44C62.827 44,65.275 33.344,65.333 33.229C65.333 33.171,65.362 33.085,65.362 32.998C65.362 32.797,65.246 32.624,65.074 32.509"/><path stroke="none" d="M65.074 468.491C65.246 468.376,65.362 468.203,65.362 468.002C65.362 467.915,65.333 467.829,65.333 467.771C65.275 467.656,62.827 457,50.069 457L45 457L45 457.576L45 461.32C45 461.637,45.259 461.838,45.576 461.838L52.171 461.838C60.091 461.838,64.238 468.232,64.325 468.376C64.411 468.52,64.613 468.578,64.786 468.578C64.872 468.578,64.987 468.52,65.074 468.491"/><rect x="45" y="44" width="3" height="413" stroke="none"/></svg>