<svg xmlns="http://www.w3.org/2000/svg" stroke-width="0.3" stroke-dasharray="none" fill="black" stroke="black" font-family="Arial, sans-serif" font-size="10pt" font-weight="normal" font-style="normal" width="600" height="200" viewBox="0 0 600 200" style="width: 600px; height: 200px; border: none;"><g class="vf-stave" id="vf-auto17783" stroke-width="1" fill="#999999" stroke="#999999"><path fill="none" d="M0 40L590 40"/><path fill="none" d="M0 50L590 50"/><path fill="none" d="M0 60L590 60"/><path fill="none" d="M0 70L590 70"/><path fill="none" d="M0 80L590 80"/></g><g class="vf-stavebarline" id="vf-auto17784"><rect y="39.5" width="1" height="41" stroke="none"/></g><g class="vf-stavebarline" id="vf-auto17785"><rect x="590" y="39.5" width="1" height="41" stroke="none"/></g><g class="vf-clef" id="vf-auto17786"><path stroke="none" d="M19.112 27.837C19.112 27.837,19.141 27.837,19.17 27.837C19.544 27.837,20.034 28.211,20.667 28.96C22.942 31.696,24.44 36.045,24.44 39.731C24.44 39.99,24.44 40.278,24.411 40.538C24.152 44.829,22.28 48.515,18.68 51.942C18.363 52.259,17.902 52.691,17.701 52.864L17.355 53.238L18.075 56.608C18.478 58.48,18.795 60.006,18.795 60.006C18.795 60.006,18.795 60.006,18.795 60.006C18.824 60.006,18.939 59.978,19.026 59.978C19.198 59.949,19.659 59.949,20.12 59.949C20.466 59.949,20.84 59.949,20.984 59.949C25.592 60.525,28.962 64.125,29.278 68.79C29.307 68.992,29.307 69.194,29.307 69.395C29.307 73.254,26.802 76.941,23.029 78.554C22.885 78.611,22.798 78.669,22.798 78.669C22.798 78.669,23 79.677,23.259 80.886C23.518 82.125,23.778 83.306,23.806 83.536C23.979 84.458,24.066 85.322,24.066 86.157C24.066 88.317,23.49 90.131,22.395 91.542C20.754 93.587,18.392 94.624,16.03 94.624C13.726 94.624,11.422 93.674,9.752 91.773C9.061 90.966,8.686 90.016,8.686 89.037C8.686 88.202,8.974 87.338,9.55 86.56C10.386 85.437,11.624 84.89,12.862 84.89C14.014 84.89,15.166 85.379,15.973 86.358C16.549 87.107,16.808 87.942,16.808 88.778C16.808 90.678,15.397 92.493,13.237 92.579L12.978 92.579L13.064 92.637C13.928 93.069,14.936 93.299,15.973 93.299C17.24 93.299,18.565 92.954,19.602 92.291C21.704 90.966,22.741 88.922,22.741 86.157C22.741 85.264,22.626 84.285,22.424 83.248C22.338 82.758,21.531 79.101,21.531 79.101C21.531 79.101,21.531 79.101,21.531 79.101C21.502 79.101,21.358 79.13,21.186 79.158C20.667 79.302,20.12 79.389,19.515 79.446C19.314 79.475,18.91 79.475,18.478 79.475C17.931 79.475,17.384 79.475,17.154 79.446C10.126 78.669,5 72.995,5 65.968C5 62.858,5.893 60.15,7.765 57.558C9.752 54.794,11.768 52.403,14.245 49.898L15.109 49.034L14.734 47.306C14.533 46.326,14.331 45.318,14.245 45.03C13.899 43.389,13.726 42.582,13.669 42.266C13.525 41.373,13.467 40.48,13.467 39.587C13.467 35.469,15.022 31.552,17.902 28.758C18.565 28.125,18.91 27.866,19.112 27.837M21.013 33.482C20.84 33.453,20.696 33.424,20.523 33.424C19.688 33.424,18.68 33.942,17.73 34.893C16.088 36.534,15.195 39.011,15.195 41.718C15.195 42.41,15.253 43.101,15.368 43.821C15.426 44.138,16.203 47.968,16.232 47.968C16.232 47.968,16.232 47.968,16.232 47.968C16.261 47.968,17.182 47.018,17.442 46.73C20.638 43.187,22.453 39.357,22.453 36.362C22.453 35.872,22.395 35.411,22.309 34.95C22.107 34.086,21.733 33.654,21.013 33.482M16.318 54.707C16.29 54.534,16.261 54.39,16.261 54.39C16.146 54.39,13.87 57.04,12.834 58.336C10.702 61.043,9.925 62.31,9.32 64.038C8.888 65.363,8.658 66.688,8.658 67.984C8.658 70.317,9.349 72.534,10.674 74.406C12.517 76.998,15.426 78.496,18.421 78.496C18.91 78.496,19.4 78.467,19.89 78.381C20.408 78.294,21.301 78.064,21.301 78.006C21.301 77.978,20.955 76.394,20.552 74.435C20.12 72.506,19.486 69.51,19.112 67.811C18.766 66.112,18.45 64.701,18.45 64.701C18.45 64.701,18.45 64.701,18.45 64.701C18.334 64.701,17.701 64.96,17.355 65.133C15.598 66.112,14.677 67.84,14.677 69.568C14.677 71.094,15.397 72.592,16.866 73.485C17.154 73.658,17.298 73.859,17.298 74.09C17.298 74.205,17.24 74.349,17.125 74.464C17.038 74.579,16.923 74.666,16.75 74.666C16.549 74.666,16.29 74.55,15.858 74.32C13.237 72.966,11.912 70.403,11.912 67.782C11.912 65.334,13.093 62.858,15.454 61.302C16.059 60.899,17.269 60.323,17.499 60.323C17.499 60.323,17.528 60.294,17.528 60.294C17.528 60.266,17.528 60.266,17.528 60.266C17.499 60.208,16.434 55.197,16.318 54.707M20.725 64.499C20.581 64.499,20.293 64.47,20.12 64.47L19.746 64.47L19.774 64.528C19.774 64.557,20.293 67.034,20.955 70.029C21.589 73.024,22.136 75.616,22.165 75.789C22.222 75.962,22.309 76.422,22.395 76.797L22.539 77.488L22.626 77.43C24.21 76.538,25.362 75.27,25.995 73.715C26.37 72.851,26.542 71.987,26.542 71.123C26.542 67.869,24.152 64.902,20.725 64.499"/></g><g class="vf-timesignature" id="vf-auto17787"><path stroke="none" d="M49.29 42.086C49.347 42.058,50.989 42.058,52.544 42.058C53.869 42.058,55.165 42.058,55.194 42.086C55.366 42.144,55.482 42.317,55.482 42.49C55.482 42.691,55.453 42.72,54.906 43.325C54.416 43.843,52.89 45.571,51.334 47.328C50.874 47.846,50.442 48.336,50.326 48.451C50.211 48.566,49.52 49.344,48.771 50.179C48.051 51.014,47.13 52.051,46.755 52.454C46.381 52.886,46.064 53.232,46.064 53.261C46.064 53.261,46.064 53.261,46.064 53.261C46.064 53.29,46.294 53.29,48.656 53.29L51.248 53.29L51.277 51.418C51.277 49.603,51.277 49.574,51.306 49.517C51.334 49.488,51.91 48.826,52.602 48.048C53.293 47.27,54.099 46.349,54.416 46.032C55.194 45.139,55.165 45.168,55.395 45.168C55.597 45.168,55.741 45.254,55.798 45.398C55.827 45.485,55.827 45.629,55.827 49.373L55.827 53.29L56.518 53.29C57.181 53.29,57.238 53.29,57.325 53.318C57.555 53.405,57.699 53.635,57.699 53.866C57.699 54.038,57.642 54.182,57.526 54.298C57.354 54.47,57.325 54.47,56.547 54.47L55.856 54.47L55.856 54.643C55.856 54.73,55.856 54.989,55.856 55.219C55.885 56.4,56.259 56.976,57.411 57.552C57.642 57.667,57.786 57.84,57.786 58.013C57.786 58.128,57.728 58.243,57.642 58.33C57.526 58.445,57.814 58.445,55.078 58.445C54.646 58.445,54.128 58.445,53.552 58.445C52.976 58.445,52.458 58.445,52.026 58.445C49.29 58.445,49.578 58.445,49.462 58.33C49.376 58.243,49.318 58.128,49.318 58.013C49.318 57.84,49.462 57.667,49.693 57.552C50.845 56.976,51.219 56.4,51.248 55.219C51.248 54.989,51.248 54.73,51.248 54.643L51.248 54.47L47.965 54.47C47.475 54.47,47.072 54.47,46.726 54.47C44.365 54.47,44.566 54.47,44.451 54.355C44.365 54.269,44.307 54.154,44.307 54.038C44.307 53.923,44.394 53.75,44.538 53.578C47.274 50.496,48.915 46.637,49.03 42.893C49.03 42.288,49.059 42.202,49.29 42.086M51.046 60L51.075 60L50.989 60M51.046 41.05L51.075 41.05L50.989 41.05"/><path stroke="none" d="M49.29 62.086C49.347 62.058,50.989 62.058,52.544 62.058C53.869 62.058,55.165 62.058,55.194 62.086C55.366 62.144,55.482 62.317,55.482 62.49C55.482 62.691,55.453 62.72,54.906 63.325C54.416 63.843,52.89 65.571,51.334 67.328C50.874 67.846,50.442 68.336,50.326 68.451C50.211 68.566,49.52 69.344,48.771 70.179C48.051 71.014,47.13 72.051,46.755 72.454C46.381 72.886,46.064 73.232,46.064 73.261C46.064 73.261,46.064 73.261,46.064 73.261C46.064 73.29,46.294 73.29,48.656 73.29L51.248 73.29L51.277 71.418C51.277 69.603,51.277 69.574,51.306 69.517C51.334 69.488,51.91 68.826,52.602 68.048C53.293 67.27,54.099 66.349,54.416 66.032C55.194 65.139,55.165 65.168,55.395 65.168C55.597 65.168,55.741 65.254,55.798 65.398C55.827 65.485,55.827 65.629,55.827 69.373L55.827 73.29L56.518 73.29C57.181 73.29,57.238 73.29,57.325 73.318C57.555 73.405,57.699 73.635,57.699 73.866C57.699 74.038,57.642 74.182,57.526 74.298C57.354 74.47,57.325 74.47,56.547 74.47L55.856 74.47L55.856 74.643C55.856 74.73,55.856 74.989,55.856 75.219C55.885 76.4,56.259 76.976,57.411 77.552C57.642 77.667,57.786 77.84,57.786 78.013C57.786 78.128,57.728 78.243,57.642 78.33C57.526 78.445,57.814 78.445,55.078 78.445C54.646 78.445,54.128 78.445,53.552 78.445C52.976 78.445,52.458 78.445,52.026 78.445C49.29 78.445,49.578 78.445,49.462 78.33C49.376 78.243,49.318 78.128,49.318 78.013C49.318 77.84,49.462 77.667,49.693 77.552C50.845 76.976,51.219 76.4,51.248 75.219C51.248 74.989,51.248 74.73,51.248 74.643L51.248 74.47L47.965 74.47C47.475 74.47,47.072 74.47,46.726 74.47C44.365 74.47,44.566 74.47,44.451 74.355C44.365 74.269,44.307 74.154,44.307 74.038C44.307 73.923,44.394 73.75,44.538 73.578C47.274 70.496,48.915 66.637,49.03 62.893C49.03 62.288,49.059 62.202,49.29 62.086M51.046 80L51.075 80L50.989 80M51.046 61.05L51.075 61.05L50.989 61.05"/></g><g class="vf-stavenote" id="vf-auto17791"><g class="vf-stem" id="vf-auto17792" pointer-events="bounding-box"><path stroke-width="1.5" fill="none" d="M111.89 68.5L111.89 10"/></g><g class="vf-notehead" id="vf-auto17797" pointer-events="bounding-box"><path stroke="none" d="M107.754 64.889C107.839 64.889,107.923 64.889,108.063 64.889C108.428 64.889,108.962 64.918,109.158 64.946C111.489 65.283,112.64 66.827,112.64 68.624C112.64 70.534,111.349 72.724,108.765 74.128C107.502 74.802,106.21 75.111,105.031 75.111C102.869 75.111,101.1 74.044,100.734 72.162C100.678 71.881,100.65 71.629,100.65 71.376C100.65 68.343,103.908 65.283,107.754 64.889"/><text stroke="none" font-size="9pt" font-weight="bold" x="91.65" y="75">0</text></g><g class="vf-notehead" id="vf-auto17798" pointer-events="bounding-box"><path stroke="none" d="M107.754 39.889C107.839 39.889,107.923 39.889,108.063 39.889C108.428 39.889,108.962 39.918,109.158 39.946C111.489 40.283,112.64 41.827,112.64 43.624C112.64 45.534,111.349 47.724,108.765 49.128C107.502 49.802,106.21 50.111,105.031 50.111C102.869 50.111,101.1 49.044,100.734 47.162C100.678 46.881,100.65 46.629,100.65 46.376C100.65 43.343,103.908 40.283,107.754 39.889"/><text stroke="none" font-size="9pt" font-weight="bold" x="91.65" y="50">0</text></g></g><g class="vf-stavenote" id="vf-auto17799"><g class="vf-stem" id="vf-auto17800" pointer-events="bounding-box"><path stroke-width="1.5" fill="none" d="M229.475 43.5L229.475 10"/></g><g class="vf-notehead" id="vf-auto17803" pointer-events="bounding-box"><path stroke="none" d="M225.339 39.889C225.423 39.889,225.508 39.889,225.648 39.889C226.013 39.889,226.547 39.918,226.743 39.946C229.074 40.283,230.225 41.827,230.225 43.624C230.225 45.534,228.933 47.724,226.35 49.128C225.087 49.802,223.795 50.111,222.615 50.111C220.453 50.111,218.684 49.044,218.319 47.162C218.263 46.881,218.235 46.629,218.235 46.376C218.235 43.343,221.492 40.283,225.339 39.889"/></g></g><g class="vf-stavenote" id="vf-auto17804"><g class="vf-stem" id="vf-auto17805" pointer-events="bounding-box"><path stroke-width="1.5" fill="none" d="M388.846 68.5L388.846 10"/></g><g class="vf-notehead" id="vf-auto17810" pointer-events="bounding-box"><path stroke="none" d="M384.71 64.889C384.794 64.889,384.878 64.889,385.019 64.889C385.384 64.889,385.917 64.918,386.114 64.946C388.444 65.283,389.596 66.827,389.596 68.624C389.596 70.534,388.304 72.724,385.721 74.128C384.457 74.802,383.165 75.111,381.986 75.111C379.824 75.111,378.055 74.044,377.69 72.162C377.634 71.881,377.606 71.629,377.606 71.376C377.606 68.343,380.863 65.283,384.71 64.889M387.855 66.35C387.714 66.293,387.574 66.293,387.406 66.293C385.693 66.293,382.183 68.371,380.217 70.674C379.375 71.657,378.925 72.527,378.925 73.061C378.925 73.313,379.01 73.482,379.178 73.566C379.347 73.678,379.571 73.707,379.796 73.707C381.621 73.707,385.412 71.376,387.293 68.961C387.967 68.119,388.304 67.417,388.304 66.967C388.304 66.658,388.136 66.434,387.855 66.35"/></g><g class="vf-notehead" id="vf-auto17811" pointer-events="bounding-box"><path stroke="none" d="M384.71 39.889C384.794 39.889,384.878 39.889,385.019 39.889C385.384 39.889,385.917 39.918,386.114 39.946C388.444 40.283,389.596 41.827,389.596 43.624C389.596 45.534,388.304 47.724,385.721 49.128C384.457 49.802,383.165 50.111,381.986 50.111C379.824 50.111,378.055 49.044,377.69 47.162C377.634 46.881,377.606 46.629,377.606 46.376C377.606 43.343,380.863 40.283,384.71 39.889M387.855 41.35C387.714 41.293,387.574 41.293,387.406 41.293C385.693 41.293,382.183 43.371,380.217 45.674C379.375 46.657,378.925 47.527,378.925 48.061C378.925 48.313,379.01 48.482,379.178 48.566C379.347 48.678,379.571 48.707,379.796 48.707C381.621 48.707,385.412 46.376,387.293 43.961C387.967 43.119,388.304 42.417,388.304 41.967C388.304 41.658,388.136 41.434,387.855 41.35"/></g></g><g class="vf-stavenote" id="vf-auto17812"><g class="vf-stem" id="vf-auto17813" pointer-events="bounding-box"><path stroke-width="1.5" fill="none" d="M115.39 56.5L115.39 90"/></g><g class="vf-notehead" id="vf-auto17816" pointer-events="bounding-box"><path stroke="none" d="M121.745 49.889C121.829 49.889,121.913 49.889,122.054 49.889C122.419 49.889,122.952 49.918,123.149 49.946C125.479 50.283,126.631 51.827,126.631 53.624C126.631 55.534,125.339 57.724,122.756 59.128C121.492 59.802,120.2 60.111,119.021 60.111C116.859 60.111,115.09 59.044,114.725 57.162C114.668 56.881,114.64 56.629,114.64 56.376C114.64 53.343,117.898 50.283,121.745 49.889"/><path stroke="none" d="M86.75 40.691C86.805 40.663,86.887 40.636,86.969 40.636C87.188 40.636,87.407 40.773,87.489 40.992C87.516 41.101,87.516 41.128,87.516 44.603C87.516 47.859,87.516 48.078,87.571 48.078C87.571 48.078,87.571 48.078,87.571 48.078C87.872 47.996,88.994 47.75,89.076 47.75C89.322 47.75,89.513 47.886,89.596 48.078C89.623 48.16,89.65 48.789,89.65 49.419C89.65 50.048,89.623 50.677,89.596 50.759C89.513 51.033,89.459 51.033,88.364 51.306L87.516 51.525L87.516 54.425C87.516 57.134,87.516 57.353,87.544 57.353C87.571 57.353,87.571 57.353,87.571 57.353C87.872 57.244,88.994 56.997,89.076 56.997C89.24 56.997,89.349 57.052,89.486 57.161C89.623 57.326,89.623 57.271,89.623 58.311C89.623 58.42,89.623 58.557,89.623 58.694C89.623 58.83,89.623 58.94,89.623 59.049C89.623 60.116,89.623 60.062,89.486 60.198C89.349 60.335,89.349 60.335,88.364 60.581L87.516 60.773L87.516 64.33C87.516 67.832,87.516 67.859,87.489 67.941C87.407 68.188,87.188 68.297,86.969 68.297C86.832 68.297,86.668 68.242,86.559 68.133C86.422 67.996,86.394 68.242,86.394 66.053C86.394 65.616,86.394 65.096,86.394 64.467C86.394 62.579,86.394 61.047,86.394 61.047C86.394 61.047,85.847 61.183,85.191 61.348C84.507 61.512,83.959 61.648,83.959 61.648C83.959 61.648,83.959 63.29,83.959 65.287C83.959 68.872,83.959 68.899,83.905 69.008C83.823 69.227,83.604 69.364,83.385 69.364C83.248 69.364,83.084 69.309,82.974 69.2C82.838 69.036,82.838 69.282,82.838 67.066C82.838 66.628,82.838 66.081,82.838 65.424C82.838 62.168,82.838 61.949,82.81 61.949C82.81 61.949,82.81 61.949,82.783 61.949C82.455 62.032,81.442 62.25,81.36 62.25C81.114 62.25,80.895 62.114,80.813 61.922C80.786 61.84,80.786 61.211,80.786 60.581C80.786 59.952,80.786 59.323,80.813 59.241C80.922 58.995,80.977 58.967,82.017 58.694L82.838 58.502L82.838 55.575C82.838 52.866,82.838 52.674,82.81 52.674C82.81 52.674,82.81 52.674,82.783 52.674C82.455 52.756,81.442 53.003,81.36 53.003C81.114 53.003,80.895 52.866,80.813 52.647C80.786 52.592,80.786 51.936,80.786 51.306C80.786 50.677,80.786 50.048,80.813 49.966C80.922 49.72,80.977 49.692,82.017 49.446L82.838 49.254L82.838 45.698C82.838 42.168,82.838 42.141,82.865 42.059C82.947 41.812,83.166 41.703,83.385 41.703C83.522 41.703,83.686 41.758,83.795 41.867C83.932 42.004,83.959 41.758,83.959 43.947C83.959 44.384,83.959 44.904,83.959 45.561C83.959 47.421,83.959 48.953,83.959 48.953C83.959 48.953,84.507 48.817,85.163 48.68C85.847 48.516,86.394 48.379,86.394 48.379C86.394 48.379,86.394 46.737,86.394 44.74C86.394 41.128,86.394 41.101,86.449 40.992C86.476 40.882,86.613 40.745,86.75 40.691M86.394 54.699C86.394 52.401,86.394 51.799,86.394 51.799L86.394 51.799C86.367 51.799,86.176 51.826,85.957 51.908C85.738 51.963,85.191 52.072,84.753 52.182L83.959 52.401L83.959 55.301C83.959 56.915,83.959 58.228,83.959 58.228C83.959 58.228,84.507 58.092,85.163 57.928C85.847 57.763,86.394 57.627,86.394 57.627C86.394 57.627,86.394 56.313,86.394 54.699"/><text stroke="none" font-size="9pt" font-weight="bold" x="91.65" y="60">1</text></g></g><g class="vf-stavenote" id="vf-auto17819"><g class="vf-stem" id="vf-auto17820" pointer-events="bounding-box"><path stroke-width="1.5" fill="none" d="M232.975 61.5L232.975 92"/></g><g class="vf-notehead" id="vf-auto17873" pointer-events="bounding-box"><path stroke="none" d="M239.329 54.889C239.414 54.889,239.498 54.889,239.638 54.889C240.003 54.889,240.537 54.918,240.733 54.946C243.064 55.283,244.215 56.827,244.215 58.624C244.215 60.534,242.924 62.724,240.34 64.128C239.077 64.802,237.785 65.111,236.606 65.111C234.443 65.111,232.674 64.044,232.309 62.162C232.253 61.881,232.225 61.629,232.225 61.376C232.225 58.343,235.482 55.283,239.329 54.889"/></g><path stroke="none" d="M239.217 68.723C239.302 68.695,239.386 68.695,239.47 68.695C239.695 68.695,239.863 68.864,240.144 69.257C242.11 72.262,243.121 75.631,243.121 78.86C243.121 80.938,242.699 82.932,241.857 84.757C241.239 86.105,240.341 87.369,239.358 88.267C237.196 90.233,235.707 91.889,234.416 93.715C233.742 94.641,233.096 95.736,232.815 96.438C232.703 96.691,232.506 96.86,232.31 96.86L232.225 96.86L232.225 92.591L232.225 88.351L232.366 88.351C233.152 88.351,234.64 88.071,235.595 87.762C239.189 86.554,241.632 82.567,241.632 77.962C241.632 75.21,240.762 72.346,239.133 69.875C238.909 69.51,238.852 69.454,238.852 69.285C238.852 69.032,238.993 68.808,239.217 68.723"/></g><g class="vf-stavenote" id="vf-auto17827"><g class="vf-notehead" id="vf-auto17831" pointer-events="bounding-box"><path stroke="none" d="M307.499 51.688C307.611 51.66,307.695 51.66,307.808 51.66C308.397 51.66,309.099 51.913,309.577 52.278C310.307 52.84,310.672 53.682,310.672 54.524C310.672 55.198,310.447 55.872,309.97 56.378L309.857 56.518L309.998 56.462C311.542 56.041,312.89 54.777,313.536 53.148C313.564 53.036,313.648 52.896,313.648 52.868C313.789 52.727,313.957 52.643,314.126 52.643C314.434 52.643,314.715 52.868,314.715 53.205C314.715 53.345,310.616 67.048,310.531 67.188C310.447 67.385,310.251 67.469,310.026 67.469C309.801 67.469,309.577 67.357,309.492 67.132C309.464 67.076,309.436 67.048,309.436 66.992C309.436 66.767,309.689 66.037,311.009 61.629C311.851 58.793,312.553 56.462,312.553 56.462C312.553 56.462,312.553 56.462,312.553 56.462C312.525 56.462,312.441 56.518,312.3 56.63C311.29 57.389,310.026 57.782,308.847 57.782C307.78 57.782,306.741 57.473,305.926 56.799C305.252 56.265,304.915 55.451,304.915 54.609C304.915 53.879,305.168 53.148,305.73 52.559C306.179 52.081,306.741 51.801,307.499 51.688"/></g></g><g class="vf-stavenote" id="vf-auto17832"><g class="vf-stem" id="vf-auto17833" pointer-events="bounding-box"><path stroke-width="1.5" fill="none" d="M392.346 66.5L392.346 100"/></g><g class="vf-notehead" id="vf-auto17836" pointer-events="bounding-box"><path stroke="none" d="M398.7 59.889C398.784 59.889,398.868 59.889,399.009 59.889C399.374 59.889,399.907 59.918,400.104 59.946C402.435 60.283,403.586 61.827,403.586 63.624C403.586 65.534,402.294 67.724,399.711 69.128C398.447 69.802,397.156 70.111,395.976 70.111C393.814 70.111,392.045 69.044,391.68 67.162C391.624 66.881,391.596 66.629,391.596 66.376C391.596 63.343,394.853 60.283,398.7 59.889"/><path stroke="none" d="M410.586 65 A2 2 0 0 0 406.586 65 A2 2 0 0 0 410.586 65"/></g></g><g class="vf-stavenote" id="vf-auto17838"><g class="vf-stem" id="vf-auto17839" pointer-events="bounding-box"><path stroke-width="1.5" fill="none" d="M521.609 71.5L521.609 102"/></g><g class="vf-notehead" id="vf-auto17875" pointer-events="bounding-box"><path stroke="none" d="M527.963 64.889C528.048 64.889,528.132 64.889,528.272 64.889C528.637 64.889,529.171 64.918,529.367 64.946C531.698 65.283,532.849 66.827,532.849 68.624C532.849 70.534,531.558 72.724,528.974 74.128C527.711 74.802,526.419 75.111,525.24 75.111C523.078 75.111,521.309 74.044,520.943 72.162C520.887 71.881,520.859 71.629,520.859 71.376C520.859 68.343,524.117 65.283,527.963 64.889"/></g><path stroke="none" d="M527.851 78.723C527.936 78.695,528.02 78.695,528.104 78.695C528.329 78.695,528.497 78.864,528.778 79.257C530.744 82.262,531.755 85.631,531.755 88.86C531.755 90.938,531.333 92.932,530.491 94.757C529.873 96.105,528.975 97.369,527.992 98.267C525.83 100.233,524.341 101.889,523.05 103.715C522.376 104.641,521.73 105.736,521.449 106.438C521.337 106.691,521.14 106.86,520.944 106.86L520.86 106.86L520.86 102.591L520.86 98.351L521 98.351C521.786 98.351,523.274 98.071,524.229 97.762C527.823 96.554,530.266 92.567,530.266 87.962C530.266 85.21,529.396 82.346,527.767 79.875C527.543 79.51,527.486 79.454,527.486 79.285C527.486 79.032,527.627 78.808,527.851 78.723"/></g><g class="vf-stavenote" id="vf-auto17846"><path stroke-width="1.4" fill="none" stroke="#444" d="M97.65 90L115.64 90"/><g class="vf-stem" id="vf-auto17847" pointer-events="bounding-box"><path stroke-width="1.5" fill="none" d="M101.4 91.5L101.4 125"/></g><g class="vf-notehead" id="vf-auto17877" pointer-events="bounding-box"><path stroke="none" d="M107.754 84.889C107.839 84.889,107.923 84.889,108.063 84.889C108.428 84.889,108.962 84.918,109.158 84.946C111.489 85.283,112.64 86.827,112.64 88.624C112.64 90.534,111.349 92.724,108.765 94.128C107.502 94.802,106.21 95.111,105.031 95.111C102.869 95.111,101.1 94.044,100.734 92.162C100.678 91.881,100.65 91.629,100.65 91.376C100.65 88.343,103.908 85.283,107.754 84.889"/><text stroke="none" font-size="9pt" font-weight="bold" x="91.65" y="95">3</text></g></g><g class="vf-stavenote" id="vf-auto17851"><path stroke-width="1.4" fill="none" stroke="#444" d="M215.235 90L233.225 90"/><g class="vf-stem" id="vf-auto17852" pointer-events="bounding-box"><path stroke-width="1.5" fill="none" d="M218.985 96.5L218.985 130"/></g><g class="vf-notehead" id="vf-auto17878" pointer-events="bounding-box"><path stroke="none" d="M225.339 89.889C225.423 89.889,225.508 89.889,225.648 89.889C226.013 89.889,226.547 89.918,226.743 89.946C229.074 90.283,230.225 91.827,230.225 93.624C230.225 95.534,228.933 97.724,226.35 99.128C225.087 99.802,223.795 100.111,222.615 100.111C220.453 100.111,218.684 99.044,218.319 97.162C218.263 96.881,218.235 96.629,218.235 96.376C218.235 93.343,221.492 90.283,225.339 89.889"/></g></g><g class="vf-stavenote" id="vf-auto17856"><path stroke-width="1.4" fill="none" stroke="#444" d="M374.606 90L392.596 90"/><path stroke-width="1.4" fill="none" stroke="#444" d="M374.606 100L392.596 100"/><g class="vf-stem" id="vf-auto17857" pointer-events="bounding-box"><path stroke-width="1.5" fill="none" d="M378.356 101.5L378.356 135"/></g><g class="vf-notehead" id="vf-auto17879" pointer-events="bounding-box"><path stroke="none" d="M384.71 94.889C384.794 94.889,384.878 94.889,385.019 94.889C385.384 94.889,385.917 94.918,386.114 94.946C388.444 95.283,389.596 96.827,389.596 98.624C389.596 100.534,388.304 102.724,385.721 104.128C384.457 104.802,383.165 105.111,381.986 105.111C379.824 105.111,378.055 104.044,377.69 102.162C377.634 101.881,377.606 101.629,377.606 101.376C377.606 98.343,380.863 95.283,384.71 94.889"/></g></g><g class="vf-stavenote" id="vf-auto17861"><path stroke-width="1.4" fill="none" stroke="#444" d="M485.673 90L503.663 90"/><path stroke-width="1.4" fill="none" stroke="#444" d="M485.673 100L503.663 100"/><g class="vf-stem" id="vf-auto17862" pointer-events="bounding-box"><path stroke-width="1.5" fill="none" d="M489.423 106.5L489.423 140"/></g><g class="vf-notehead" id="vf-auto17865" pointer-events="bounding-box"><path stroke="none" d="M495.777 99.889C495.861 99.889,495.945 99.889,496.086 99.889C496.451 99.889,496.984 99.918,497.181 99.946C499.511 100.283,500.663 101.827,500.663 103.624C500.663 105.534,499.371 107.724,496.788 109.128C495.524 109.802,494.232 110.111,493.053 110.111C490.891 110.111,489.122 109.044,488.757 107.162C488.701 106.881,488.673 106.629,488.673 106.376C488.673 103.343,491.93 100.283,495.777 99.889"/></g></g></svg>