<svg xmlns="http://www.w3.org/2000/svg" stroke-width="0.3" stroke-dasharray="none" fill="black" stroke="black" font-family="Arial, sans-serif" font-size="10pt" font-weight="normal" font-style="normal" width="350" height="140" viewBox="0 0 350 140" style="width: 350px; height: 140px; border: none;"><g class="vf-stave" id="vf-auto3387" stroke-width="1" fill="#999999" stroke="#999999"><path fill="none" d="M0 60L340 60"/><path fill="none" d="M0 70L340 70"/><path fill="none" d="M0 80L340 80"/><path fill="none" d="M0 90L340 90"/><path fill="none" d="M0 100L340 100"/></g><g class="vf-stavebarline" id="vf-auto3388"><rect y="59.5" width="1" height="41" stroke="none"/></g><g class="vf-stavebarline" id="vf-auto3389"><rect x="340" y="59.5" width="1" height="41" stroke="none"/></g><g class="vf-stavenote" id="vf-auto3390"><g class="vf-notehead" id="vf-auto3464" pointer-events="bounding-box"><path stroke="none" d="M24.104 79.889C24.188 79.889,24.273 79.889,24.413 79.889C24.778 79.889,25.312 79.918,25.508 79.946C27.839 80.283,28.99 81.827,28.99 83.624C28.99 85.534,27.698 87.724,25.115 89.128C23.852 89.802,22.56 90.111,21.38 90.111C19.218 90.111,17.449 89.044,17.084 87.162C17.028 86.881,17 86.629,17 86.376C17 83.343,20.257 80.283,24.104 79.889"/></g></g><g class="vf-stavenote" id="vf-auto3396"><g class="vf-notehead" id="vf-auto3466" pointer-events="bounding-box"><path stroke="none" d="M50.682 74.889C50.766 74.889,50.85 74.889,50.99 74.889C51.355 74.889,51.889 74.918,52.086 74.946C54.416 75.283,55.567 76.827,55.567 78.624C55.567 80.534,54.276 82.724,51.692 84.128C50.429 84.802,49.137 85.111,47.958 85.111C45.796 85.111,44.027 84.044,43.662 82.162C43.605 81.881,43.577 81.629,43.577 81.376C43.577 78.343,46.835 75.283,50.682 74.889"/></g></g><g class="vf-stavenote" id="vf-auto3402"><g class="vf-notehead" id="vf-auto3469" pointer-events="bounding-box"><path stroke="none" d="M77.259 84.889C77.343 84.889,77.427 84.889,77.568 84.889C77.933 84.889,78.466 84.918,78.663 84.946C80.993 85.283,82.145 86.827,82.145 88.624C82.145 90.534,80.853 92.724,78.27 94.128C77.006 94.802,75.714 95.111,74.535 95.111C72.373 95.111,70.604 94.044,70.239 92.162C70.183 91.881,70.155 91.629,70.155 91.376C70.155 88.343,73.412 85.283,77.259 84.889"/></g></g><g class="vf-stavenote" id="vf-auto3408"><g class="vf-notehead" id="vf-auto3471" pointer-events="bounding-box"><path stroke="none" d="M103.836 69.889C103.92 69.889,104.005 69.889,104.145 69.889C104.51 69.889,105.044 69.918,105.24 69.946C107.571 70.283,108.722 71.827,108.722 73.624C108.722 75.534,107.43 77.724,104.847 79.128C103.583 79.802,102.292 80.111,101.112 80.111C98.95 80.111,97.181 79.044,96.816 77.162C96.76 76.881,96.732 76.629,96.732 76.376C96.732 73.343,99.989 70.283,103.836 69.889"/></g></g><g class="vf-stavenote" id="vf-auto3414"><g class="vf-notehead" id="vf-auto3474" pointer-events="bounding-box"><path stroke="none" d="M130.413 89.889C130.498 89.889,130.582 89.889,130.722 89.889C131.087 89.889,131.621 89.918,131.817 89.946C134.148 90.283,135.299 91.827,135.299 93.624C135.299 95.534,134.008 97.724,131.424 99.128C130.161 99.802,128.869 100.111,127.69 100.111C125.527 100.111,123.758 99.044,123.393 97.162C123.337 96.881,123.309 96.629,123.309 96.376C123.309 93.343,126.566 90.283,130.413 89.889"/></g></g><g class="vf-stavenote" id="vf-auto3420"><g class="vf-notehead" id="vf-auto3476" pointer-events="bounding-box"><path stroke="none" d="M156.991 64.889C157.075 64.889,157.159 64.889,157.3 64.889C157.665 64.889,158.198 64.918,158.395 64.946C160.725 65.283,161.877 66.827,161.877 68.624C161.877 70.534,160.585 72.724,158.002 74.128C156.738 74.802,155.446 75.111,154.267 75.111C152.105 75.111,150.336 74.044,149.971 72.162C149.914 71.881,149.886 71.629,149.886 71.376C149.886 68.343,153.144 65.283,156.991 64.889"/></g></g><g class="vf-stavenote" id="vf-auto3426"><g class="vf-notehead" id="vf-auto3479" pointer-events="bounding-box"><path stroke="none" d="M183.568 94.889C183.652 94.889,183.736 94.889,183.877 94.889C184.242 94.889,184.775 94.918,184.972 94.946C187.303 95.283,188.454 96.827,188.454 98.624C188.454 100.534,187.162 102.724,184.579 104.128C183.315 104.802,182.024 105.111,180.844 105.111C178.682 105.111,176.913 104.044,176.548 102.162C176.492 101.881,176.464 101.629,176.464 101.376C176.464 98.343,179.721 95.283,183.568 94.889"/></g></g><g class="vf-stavenote" id="vf-auto3432"><g class="vf-notehead" id="vf-auto3481" pointer-events="bounding-box"><path stroke="none" d="M210.145 59.889C210.229 59.889,210.314 59.889,210.454 59.889C210.819 59.889,211.353 59.918,211.549 59.946C213.88 60.283,215.031 61.827,215.031 63.624C215.031 65.534,213.739 67.724,211.156 69.128C209.892 69.802,208.601 70.111,207.421 70.111C205.259 70.111,203.49 69.044,203.125 67.162C203.069 66.881,203.041 66.629,203.041 66.376C203.041 63.343,206.298 60.283,210.145 59.889"/></g></g><g class="vf-stavenote" id="vf-auto3438"><g class="vf-notehead" id="vf-auto3484" pointer-events="bounding-box"><path stroke="none" d="M236.722 74.889C236.807 74.889,236.891 74.889,237.031 74.889C237.396 74.889,237.93 74.918,238.126 74.946C240.457 75.283,241.608 76.827,241.608 78.624C241.608 80.534,240.317 82.724,237.733 84.128C236.47 84.802,235.178 85.111,233.999 85.111C231.837 85.111,230.067 84.044,229.702 82.162C229.646 81.881,229.618 81.629,229.618 81.376C229.618 78.343,232.875 75.283,236.722 74.889"/></g></g><g class="vf-stavenote" id="vf-auto3444"><g class="vf-notehead" id="vf-auto3486" pointer-events="bounding-box"><path stroke="none" d="M263.3 74.889C263.384 74.889,263.468 74.889,263.609 74.889C263.974 74.889,264.507 74.918,264.704 74.946C267.034 75.283,268.186 76.827,268.186 78.624C268.186 80.534,266.894 82.724,264.311 84.128C263.047 84.802,261.755 85.111,260.576 85.111C258.414 85.111,256.645 84.044,256.28 82.162C256.224 81.881,256.195 81.629,256.195 81.376C256.195 78.343,259.453 75.283,263.3 74.889"/></g></g><g class="vf-stavenote" id="vf-auto3450"><g class="vf-notehead" id="vf-auto3489" pointer-events="bounding-box"><path stroke="none" d="M289.877 84.889C289.961 84.889,290.045 84.889,290.186 84.889C290.551 84.889,291.084 84.918,291.281 84.946C293.612 85.283,294.763 86.827,294.763 88.624C294.763 90.534,293.471 92.724,290.888 94.128C289.624 94.802,288.333 95.111,287.153 95.111C284.991 95.111,283.222 94.044,282.857 92.162C282.801 91.881,282.773 91.629,282.773 91.376C282.773 88.343,286.03 85.283,289.877 84.889"/></g></g><g class="vf-stavenote" id="vf-auto3456"><g class="vf-notehead" id="vf-auto3491" pointer-events="bounding-box"><path stroke="none" d="M316.454 64.889C316.539 64.889,316.623 64.889,316.763 64.889C317.128 64.889,317.662 64.918,317.858 64.946C320.189 65.283,321.34 66.827,321.34 68.624C321.34 70.534,320.049 72.724,317.465 74.128C316.202 74.802,314.91 75.111,313.731 75.111C311.568 75.111,309.799 74.044,309.434 72.162C309.378 71.881,309.35 71.629,309.35 71.376C309.35 68.343,312.607 65.283,316.454 64.889"/></g></g><g class="vf-stem" id="vf-auto3391" pointer-events="bounding-box"><path stroke-width="1.5" fill="none" d="M28.24 83.5L28.24 48.408"/></g><g class="vf-stem" id="vf-auto3397" pointer-events="bounding-box"><path stroke-width="1.5" fill="none" d="M54.817 78.5L54.817 45.75"/></g><g class="vf-beam" id="vf-auto3463"><path stroke="none" d="M27.49 47.733L27.49 52.733L55.067 50.075L55.067 45.075Z"/></g><g class="vf-stem" id="vf-auto3403" pointer-events="bounding-box"><path stroke-width="1.5" fill="none" d="M81.395 88.5L81.395 47.394"/></g><g class="vf-stem" id="vf-auto3409" pointer-events="bounding-box"><path stroke-width="1.5" fill="none" d="M107.972 73.5L107.972 40.75"/></g><g class="vf-beam" id="vf-auto3468"><path stroke="none" d="M80.645 46.832L80.645 51.832L108.222 45.188L108.222 40.188Z"/></g><g class="vf-stem" id="vf-auto3415" pointer-events="bounding-box"><path stroke-width="1.5" fill="none" d="M134.549 93.5L134.549 42.394"/></g><g class="vf-stem" id="vf-auto3421" pointer-events="bounding-box"><path stroke-width="1.5" fill="none" d="M161.127 68.5L161.127 35.75"/></g><g class="vf-beam" id="vf-auto3473"><path stroke="none" d="M133.799 41.832L133.799 46.832L161.377 40.188L161.377 35.188Z"/></g><g class="vf-stem" id="vf-auto3427" pointer-events="bounding-box"><path stroke-width="1.5" fill="none" d="M187.704 98.5L187.704 37.394"/></g><g class="vf-stem" id="vf-auto3433" pointer-events="bounding-box"><path stroke-width="1.5" fill="none" d="M214.281 63.5L214.281 30.75"/></g><g class="vf-beam" id="vf-auto3478"><path stroke="none" d="M186.954 36.832L186.954 41.832L214.531 35.188L214.531 30.188Z"/></g><g class="vf-stem" id="vf-auto3439" pointer-events="bounding-box"><path stroke-width="1.5" fill="none" d="M230.368 81.5L230.368 114.25"/></g><g class="vf-stem" id="vf-auto3445" pointer-events="bounding-box"><path stroke-width="1.5" fill="none" d="M256.945 81.5L256.945 114.25"/></g><g class="vf-beam" id="vf-auto3483"><path stroke="none" d="M229.618 115L229.618 110L257.195 110L257.195 115Z"/></g><g class="vf-stem" id="vf-auto3451" pointer-events="bounding-box"><path stroke-width="1.5" fill="none" d="M283.523 91.5L283.523 124.25"/></g><g class="vf-stem" id="vf-auto3457" pointer-events="bounding-box"><path stroke-width="1.5" fill="none" d="M310.1 71.5L310.1 117.606"/></g><g class="vf-beam" id="vf-auto3488"><path stroke="none" d="M282.773 125.188L282.773 120.188L310.35 113.543L310.35 118.543Z"/></g></svg>