<svg xmlns="http://www.w3.org/2000/svg" stroke-width="0.3" stroke-dasharray="none" fill="black" stroke="black" font-family="Arial, sans-serif" font-size="10pt" font-weight="normal" font-style="normal" width="900" height="200" viewBox="0 0 900 200" style="width: 900px; height: 200px; border: none;"><g class="vf-stave" id="vf-auto19638" stroke-width="1" fill="#999999" stroke="#999999"><path fill="none" d="M10 90L410 90"/><path fill="none" d="M10 100L410 100"/><path fill="none" d="M10 110L410 110"/><path fill="none" d="M10 120L410 120"/><path fill="none" d="M10 130L410 130"/></g><g class="vf-stavebarline" id="vf-auto19639"><rect x="10" y="89.5" width="1" height="41" stroke="none"/></g><g class="vf-stavebarline" id="vf-auto19640"><rect x="410" y="89.5" width="1" height="41" stroke="none"/></g><g class="vf-stave" id="vf-auto19831" stroke-width="1" fill="#999999" stroke="#999999"><path fill="none" d="M410 90L810 90"/><path fill="none" d="M410 100L810 100"/><path fill="none" d="M410 110L810 110"/><path fill="none" d="M410 120L810 120"/><path fill="none" d="M410 130L810 130"/></g><g class="vf-stavebarline" id="vf-auto19832"><rect x="410" y="89.5" width="1" height="41" stroke="none"/></g><g class="vf-stavebarline" id="vf-auto19833"><rect x="810" y="89.5" width="1" height="41" stroke="none"/></g><g class="vf-stavenote" id="vf-auto19641"><g class="vf-notehead" id="vf-auto19823" pointer-events="bounding-box"><path stroke="none" d="M37.783 91.801C37.755 91.801,37.67 91.744,37.642 91.744C37.39 91.744,37.193 91.885,37.109 92.081C36.94 92.306,35.705 94.693,33.88 96.041C33.346 96.434,32.7 96.715,32.054 96.855C32.504 96.322,32.784 95.676,32.784 94.918C32.784 93.317,31.493 92.025,29.92 92.025C28.292 92.025,27 93.317,27 94.918C27 96.153,27.758 97.164,28.825 97.613C29.415 97.894,30.229 98.091,31.044 98.091C32.223 98.091,33.458 97.726,34.554 96.939C35.059 96.574,35.536 96.069,35.986 95.591L31.38 109.996L32.448 110.305L38.12 92.475C38.148 92.446,38.148 92.362,38.148 92.278C38.148 92.081,38.035 91.913,37.783 91.801"/></g></g><g class="vf-stavenote" id="vf-auto19646"><g class="vf-stem" id="vf-auto19647" pointer-events="bounding-box"><path stroke-width="1.5" fill="none" d="M90.192 93L90.192 63"/></g><g class="vf-notehead" id="vf-auto19796" pointer-events="bounding-box"><path stroke="none" d="M77.801 96.685C77.801 98.426,79.064 100.391,82.322 100.391C86.534 100.391,90.942 96.938,90.942 93.371C90.942 90.985,88.92 89.665,86.421 89.665C82.49 89.665,77.801 92.978,77.801 96.685"/></g><path stroke="none" d="M97.894 77.122C96.799 75.718,95.592 74.427,93.598 72.433C92.026 70.861,91.295 69.485,91.015 68.446C90.987 68.221,90.93 67.94,90.902 67.631C92.952 67.631,95.592 70.411,97.052 72.321C98.624 74.371,98.989 75.999,98.989 77.544C98.989 77.937,98.933 78.33,98.905 78.751C98.568 78.105,98.203 77.572,97.894 77.122M89.442 73.416C89.442 73.528,89.779 73.697,90.06 73.809C91.099 74.174,94.244 76.196,96.687 79.79C98.063 81.868,98.372 83.3,98.372 84.676C98.372 84.929,98.372 85.125,98.344 85.378C98.344 86.333,98.063 88.411,97.445 90.011C97.417 90.236,97.276 90.46,97.276 90.685C97.276 90.826,97.361 90.994,97.557 91.106C97.642 91.162,97.698 91.162,97.782 91.162C98.063 91.162,98.203 90.826,98.372 90.601C99.102 89.45,100.169 87.287,100.169 85.013C100.169 83.834,100.084 82.879,99.944 82.008C100.365 80.52,100.73 79.032,100.73 77.038C100.73 74.932,100.169 73.051,98.793 71.226C96.883 68.727,94.834 66.621,93.289 64.402C91.745 62.156,90.622 58,90.622 58C90.537 57.719,90.481 57.523,90.06 57.523C89.554 57.523,89.442 57.719,89.442 58"/></g><g class="vf-stavenote" id="vf-auto19654"><g class="vf-notehead" id="vf-auto19825" pointer-events="bounding-box"><path stroke="none" d="M122.925 92.475C122.954 92.39,122.954 92.362,122.954 92.278C122.954 92.081,122.841 91.885,122.589 91.801C122.532 91.744,122.448 91.744,122.392 91.744C122.167 91.744,121.999 91.885,121.858 92.081C120.904 94.019,119.275 96.209,117.057 96.771C117.534 96.209,117.759 95.563,117.759 94.833C117.759 93.261,116.327 92.025,114.754 92.025C113.126 92.11,111.974 93.457,111.974 95.03C112.002 96.237,112.817 97.248,113.856 97.641C114.586 97.978,115.372 98.062,116.13 98.062C118.152 97.978,119.724 96.967,120.932 95.395L120.932 95.395L119.135 101.825C118.545 103.707,116.242 106.346,114.193 106.88C114.642 106.318,114.867 105.616,114.867 104.942C114.867 103.313,113.491 102.134,111.918 102.134C110.318 102.134,109.082 103.51,109.082 105.139C109.082 106.346,109.953 107.357,110.991 107.722C111.75 108.059,112.452 108.115,113.266 108.115C115.288 108.059,116.86 107.048,118.068 105.448L113.94 120.218L115.035 120.498"/></g></g><g class="vf-stavenote" id="vf-auto19659"><g class="vf-notehead" id="vf-auto19663" pointer-events="bounding-box"><path stroke="none" d="M151.09 101.801C151.062 101.801,150.978 101.744,150.95 101.744C150.697 101.744,150.5 101.885,150.416 102.081C150.248 102.306,149.012 104.693,147.187 106.041C146.653 106.434,146.007 106.715,145.362 106.855C145.811 106.322,146.092 105.676,146.092 104.918C146.092 103.317,144.8 102.025,143.228 102.025C141.599 102.025,140.307 103.317,140.307 104.918C140.307 106.153,141.065 107.164,142.132 107.613C142.722 107.894,143.536 108.091,144.351 108.091C145.53 108.091,146.766 107.726,147.861 106.939C148.366 106.574,148.844 106.069,149.293 105.591L144.688 119.996L145.755 120.305L151.427 102.475C151.455 102.446,151.455 102.362,151.455 102.278C151.455 102.081,151.343 101.913,151.09 101.801"/></g></g><g class="vf-stavenote" id="vf-auto19664"><g class="vf-stem" id="vf-auto19665" pointer-events="bounding-box"><path stroke-width="1.5" fill="none" d="M203.499 93L203.499 63"/></g><g class="vf-notehead" id="vf-auto19798" pointer-events="bounding-box"><path stroke="none" d="M191.108 96.685C191.108 98.426,192.372 100.391,195.629 100.391C199.841 100.391,204.249 96.938,204.249 93.371C204.249 90.985,202.228 89.665,199.729 89.665C195.797 89.665,191.108 92.978,191.108 96.685"/></g><path stroke="none" d="M211.201 77.122C210.106 75.718,208.899 74.427,206.905 72.433C205.333 70.861,204.603 69.485,204.322 68.446C204.294 68.221,204.238 67.94,204.21 67.631C206.259 67.631,208.899 70.411,210.359 72.321C211.932 74.371,212.297 75.999,212.297 77.544C212.297 77.937,212.24 78.33,212.212 78.751C211.875 78.105,211.51 77.572,211.201 77.122M202.749 73.416C202.749 73.528,203.086 73.697,203.367 73.809C204.406 74.174,207.551 76.196,209.994 79.79C211.37 81.868,211.679 83.3,211.679 84.676C211.679 84.929,211.679 85.125,211.651 85.378C211.651 86.333,211.37 88.411,210.752 90.011C210.724 90.236,210.584 90.46,210.584 90.685C210.584 90.826,210.668 90.994,210.865 91.106C210.949 91.162,211.005 91.162,211.089 91.162C211.37 91.162,211.51 90.826,211.679 90.601C212.409 89.45,213.476 87.287,213.476 85.013C213.476 83.834,213.392 82.879,213.251 82.008C213.673 80.52,214.038 79.032,214.038 77.038C214.038 74.932,213.476 73.051,212.1 71.226C210.191 68.727,208.141 66.621,206.596 64.402C205.052 62.156,203.929 58,203.929 58C203.845 57.719,203.788 57.523,203.367 57.523C202.862 57.523,202.749 57.719,202.749 58"/></g><g class="vf-stavenote" id="vf-auto19672"><g class="vf-notehead" id="vf-auto19827" pointer-events="bounding-box"><path stroke="none" d="M236.233 92.475C236.261 92.39,236.261 92.362,236.261 92.278C236.261 92.081,236.148 91.885,235.896 91.801C235.84 91.744,235.755 91.744,235.699 91.744C235.475 91.744,235.306 91.885,235.166 92.081C234.211 94.019,232.582 96.209,230.364 96.771C230.841 96.209,231.066 95.563,231.066 94.833C231.066 93.261,229.634 92.025,228.061 92.025C226.433 92.11,225.282 93.457,225.282 95.03C225.31 96.237,226.124 97.248,227.163 97.641C227.893 97.978,228.679 98.062,229.437 98.062C231.459 97.978,233.032 96.967,234.239 95.395L234.239 95.395L232.442 101.825C231.852 103.707,229.55 106.346,227.5 106.88C227.949 106.318,228.174 105.616,228.174 104.942C228.174 103.313,226.798 102.134,225.225 102.134C223.625 102.134,222.389 103.51,222.389 105.139C222.389 106.346,223.26 107.357,224.299 107.722C225.057 108.059,225.759 108.115,226.573 108.115C228.595 108.059,230.167 107.048,231.375 105.448L227.247 120.218L228.342 120.498"/></g></g><g class="vf-stavenote" id="vf-auto19677"><g class="vf-notehead" id="vf-auto19828" pointer-events="bounding-box"><path stroke="none" d="M264.397 91.801C264.369 91.801,264.285 91.744,264.257 91.744C264.004 91.744,263.807 91.885,263.723 92.081C263.555 92.306,262.319 94.693,260.494 96.041C259.961 96.434,259.315 96.715,258.669 96.855C259.118 96.322,259.399 95.676,259.399 94.918C259.399 93.317,258.107 92.025,256.535 92.025C254.906 92.025,253.614 93.317,253.614 94.918C253.614 96.153,254.373 97.164,255.44 97.613C256.029 97.894,256.844 98.091,257.658 98.091C258.837 98.091,260.073 97.726,261.168 96.939C261.673 96.574,262.151 96.069,262.6 95.591L257.995 109.996L259.062 110.305L264.734 92.475C264.762 92.446,264.762 92.362,264.762 92.278C264.762 92.081,264.65 91.913,264.397 91.801"/></g></g><g class="vf-stavenote" id="vf-auto19682"><g class="vf-stem" id="vf-auto19683" pointer-events="bounding-box"><path stroke-width="1.5" fill="none" d="M316.807 98L316.807 68"/></g><g class="vf-notehead" id="vf-auto19800" pointer-events="bounding-box"><path stroke="none" d="M304.415 101.685C304.415 103.426,305.679 105.391,308.936 105.391C313.148 105.391,317.557 101.938,317.557 98.371C317.557 95.985,315.535 94.665,313.036 94.665C309.105 94.665,304.415 97.978,304.415 101.685"/></g><path stroke="none" d="M324.509 82.122C323.414 80.718,322.206 79.427,320.212 77.433C318.64 75.861,317.91 74.485,317.629 73.446C317.601 73.221,317.545 72.94,317.517 72.631C319.567 72.631,322.206 75.411,323.666 77.321C325.239 79.371,325.604 80.999,325.604 82.544C325.604 82.937,325.548 83.33,325.52 83.751C325.183 83.105,324.818 82.572,324.509 82.122M316.057 78.416C316.057 78.528,316.394 78.697,316.674 78.809C317.713 79.174,320.858 81.196,323.301 84.79C324.677 86.868,324.986 88.3,324.986 89.676C324.986 89.929,324.986 90.125,324.958 90.378C324.958 91.333,324.677 93.411,324.059 95.011C324.031 95.236,323.891 95.46,323.891 95.685C323.891 95.826,323.975 95.994,324.172 96.106C324.256 96.162,324.312 96.162,324.396 96.162C324.677 96.162,324.818 95.826,324.986 95.601C325.716 94.45,326.783 92.287,326.783 90.013C326.783 88.834,326.699 87.879,326.559 87.008C326.98 85.52,327.345 84.032,327.345 82.038C327.345 79.932,326.783 78.051,325.407 76.226C323.498 73.727,321.448 71.621,319.904 69.402C318.359 67.156,317.236 63,317.236 63C317.152 62.719,317.096 62.523,316.674 62.523C316.169 62.523,316.057 62.719,316.057 63"/></g><g class="vf-stavenote" id="vf-auto19690"><g class="vf-notehead" id="vf-auto19830" pointer-events="bounding-box"><path stroke="none" d="M349.54 92.475C349.568 92.39,349.568 92.362,349.568 92.278C349.568 92.081,349.456 91.885,349.203 91.801C349.147 91.744,349.063 91.744,349.006 91.744C348.782 91.744,348.613 91.885,348.473 92.081C347.518 94.019,345.89 96.209,343.671 96.771C344.149 96.209,344.373 95.563,344.373 94.833C344.373 93.261,342.941 92.025,341.369 92.025C339.74 92.11,338.589 93.457,338.589 95.03C338.617 96.237,339.431 97.248,340.47 97.641C341.2 97.978,341.986 98.062,342.745 98.062C344.766 97.978,346.339 96.967,347.546 95.395L347.546 95.395L345.749 101.825C345.159 103.707,342.857 106.346,340.807 106.88C341.256 106.318,341.481 105.616,341.481 104.942C341.481 103.313,340.105 102.134,338.533 102.134C336.932 102.134,335.696 103.51,335.696 105.139C335.696 106.346,336.567 107.357,337.606 107.722C338.364 108.059,339.066 108.115,339.88 108.115C341.902 108.059,343.475 107.048,344.682 105.448L340.554 120.218L341.649 120.498"/></g></g><g class="vf-stavenote" id="vf-auto19695"><g class="vf-stem" id="vf-auto19696" pointer-events="bounding-box"><path stroke-width="1.5" fill="none" d="M379.313 93L379.313 60"/></g><g class="vf-notehead" id="vf-auto19699" pointer-events="bounding-box"><path stroke="none" d="M366.922 96.685C366.922 98.426,368.185 100.391,371.443 100.391C375.655 100.391,380.063 96.938,380.063 93.371C380.063 90.985,378.041 89.665,375.542 89.665C371.611 89.665,366.922 92.978,366.922 96.685"/></g></g><g class="vf-stavenote" id="vf-auto19700"><g class="vf-notehead" id="vf-auto19802" pointer-events="bounding-box"><path stroke="none" d="M27 106.685C27 108.426,28.264 110.391,31.521 110.391C35.733 110.391,40.141 106.938,40.141 103.371C40.141 100.985,38.12 99.665,35.621 99.665C31.689 99.665,27 102.978,27 106.685"/></g></g><g class="vf-stavenote" id="vf-auto19708"><path stroke-width="1.4" fill="none" stroke="#444" d="M49.4 140L68.542 140"/><g class="vf-notehead" id="vf-auto19804" pointer-events="bounding-box"><path stroke="none" d="M52.4 141.685C52.4 143.426,53.664 145.391,56.921 145.391C61.133 145.391,65.542 141.938,65.542 138.371C65.542 135.985,63.52 134.665,61.021 134.665C57.09 134.665,52.4 137.978,52.4 141.685"/></g></g><g class="vf-stavenote" id="vf-auto19716"><g class="vf-notehead" id="vf-auto19824" pointer-events="bounding-box"><path stroke="none" d="M91.672 112.475C91.7 112.39,91.7 112.362,91.7 112.278C91.7 112.081,91.588 111.885,91.335 111.801C91.279 111.744,91.195 111.744,91.139 111.744C90.914 111.744,90.746 111.885,90.605 112.081C89.65 114.019,88.022 116.209,85.804 116.771C86.281 116.209,86.506 115.563,86.506 114.833C86.506 113.261,85.073 112.025,83.501 112.025C81.872 112.11,80.721 113.457,80.721 115.03C80.749 116.237,81.563 117.248,82.602 117.641C83.332 117.978,84.119 118.062,84.877 118.062C86.899 117.978,88.471 116.967,89.679 115.395L89.679 115.395L87.881 121.825C87.292 123.707,84.989 126.346,82.939 126.88C83.389 126.318,83.613 125.616,83.613 124.942C83.613 123.313,82.237 122.134,80.665 122.134C79.064 122.134,77.829 123.51,77.829 125.139C77.829 126.346,78.699 127.357,79.738 127.722C80.496 128.059,81.198 128.115,82.013 128.115C84.034 128.059,85.607 127.048,86.814 125.448L82.687 140.218L83.782 140.498"/></g></g><g class="vf-stavenote" id="vf-auto19721"><g class="vf-stem" id="vf-auto19722" pointer-events="bounding-box"><path stroke-width="1.5" fill="none" d="M109.804 137L109.804 167"/></g><g class="vf-notehead" id="vf-auto19806" pointer-events="bounding-box"><path stroke="none" d="M109.054 136.685C109.054 138.426,110.318 140.391,113.575 140.391C117.787 140.391,122.195 136.938,122.195 133.371C122.195 130.985,120.174 129.665,117.675 129.665C113.743 129.665,109.054 132.978,109.054 136.685"/></g><path stroke="none" d="M110.542 162.284C110.598 162.088,110.626 161.919,110.626 161.807C110.907 160.796,111.244 159.308,113.631 157.483C115.962 155.657,118.77 153.411,119.837 151.445C119.781 154.562,118.994 156.5,117.955 157.876C115.484 160.908,112.48 161.779,110.542 162.284M109.054 172.393C109.054 172.73,109.335 173.039,109.672 173.039C109.981 173.039,110.177 172.73,110.261 172.393C110.879 168.237,112.115 167.03,113.743 165.485C115.877 163.436,121.55 160.319,121.55 152.821C121.55 151.502,121.437 150.013,121.185 148.497C121.353 147.992,121.437 147.262,121.437 146.194C121.437 143.021,119.556 140.775,118.236 139.736C118.068 139.624,117.815 139.54,117.59 139.54C117.422 139.54,117.253 139.568,117.113 139.652C116.944 139.736,116.888 139.764,116.888 139.848C116.888 139.989,117.141 140.129,117.309 140.298C118.713 141.786,119.781 143.162,119.781 145.886C119.781 146.391,119.724 146.925,119.556 147.402L119.528 147.542C119.528 147.542,119.528 147.542,119.528 147.542C119.331 148.357,118.882 149.115,118.236 149.845C115.4 153.13,111.469 154.815,109.672 155.208C109.391 155.349,109.054 156.219,109.054 156.303"/></g><g class="vf-stavenote" id="vf-auto19729"><g class="vf-notehead" id="vf-auto19808" pointer-events="bounding-box"><path stroke="none" d="M140.307 131.685C140.307 133.426,141.571 135.391,144.828 135.391C149.04 135.391,153.449 131.938,153.449 128.371C153.449 125.985,151.427 124.665,148.928 124.665C144.997 124.665,140.307 127.978,140.307 131.685"/></g></g><g class="vf-stavenote" id="vf-auto19737"><g class="vf-notehead" id="vf-auto19810" pointer-events="bounding-box"><path stroke="none" d="M165.708 126.685C165.708 128.426,166.971 130.391,170.228 130.391C174.44 130.391,178.849 126.938,178.849 123.371C178.849 120.985,176.827 119.665,174.328 119.665C170.397 119.665,165.708 122.978,165.708 126.685"/></g></g><g class="vf-stavenote" id="vf-auto19745"><g class="vf-notehead" id="vf-auto19826" pointer-events="bounding-box"><path stroke="none" d="M204.979 112.475C205.008 112.39,205.008 112.362,205.008 112.278C205.008 112.081,204.895 111.885,204.643 111.801C204.586 111.744,204.502 111.744,204.446 111.744C204.221 111.744,204.053 111.885,203.912 112.081C202.958 114.019,201.329 116.209,199.111 116.771C199.588 116.209,199.813 115.563,199.813 114.833C199.813 113.261,198.381 112.025,196.808 112.025C195.18 112.11,194.028 113.457,194.028 115.03C194.056 116.237,194.871 117.248,195.91 117.641C196.64 117.978,197.426 118.062,198.184 118.062C200.206 117.978,201.778 116.967,202.986 115.395L202.986 115.395L201.189 121.825C200.599 123.707,198.296 126.346,196.247 126.88C196.696 126.318,196.921 125.616,196.921 124.942C196.921 123.313,195.545 122.134,193.972 122.134C192.372 122.134,191.136 123.51,191.136 125.139C191.136 126.346,192.007 127.357,193.045 127.722C193.804 128.059,194.506 128.115,195.32 128.115C197.342 128.059,198.914 127.048,200.122 125.448L195.994 140.218L197.089 140.498"/></g></g><g class="vf-stavenote" id="vf-auto19750"><g class="vf-stem" id="vf-auto19751" pointer-events="bounding-box"><path stroke-width="1.5" fill="none" d="M223.111 122L223.111 152"/></g><g class="vf-notehead" id="vf-auto19812" pointer-events="bounding-box"><path stroke="none" d="M222.361 121.685C222.361 123.426,223.625 125.391,226.882 125.391C231.094 125.391,235.503 121.938,235.503 118.371C235.503 115.985,233.481 114.665,230.982 114.665C227.051 114.665,222.361 117.978,222.361 121.685"/></g><path stroke="none" d="M223.849 147.284C223.906 147.088,223.934 146.919,223.934 146.807C224.214 145.796,224.551 144.308,226.938 142.483C229.269 140.657,232.077 138.411,233.144 136.445C233.088 139.562,232.302 141.5,231.263 142.876C228.792 145.908,225.787 146.779,223.849 147.284M222.361 157.393C222.361 157.73,222.642 158.039,222.979 158.039C223.288 158.039,223.484 157.73,223.569 157.393C224.186 153.237,225.422 152.03,227.051 150.485C229.185 148.436,234.857 145.319,234.857 137.821C234.857 136.502,234.744 135.013,234.492 133.497C234.66 132.992,234.744 132.262,234.744 131.194C234.744 128.021,232.863 125.775,231.543 124.736C231.375 124.624,231.122 124.54,230.898 124.54C230.729 124.54,230.561 124.568,230.42 124.652C230.252 124.736,230.196 124.764,230.196 124.848C230.196 124.989,230.448 125.129,230.617 125.298C232.021 126.786,233.088 128.162,233.088 130.886C233.088 131.391,233.032 131.925,232.863 132.402L232.835 132.542C232.835 132.542,232.835 132.542,232.835 132.542C232.638 133.357,232.189 134.115,231.543 134.845C228.707 138.13,224.776 139.815,222.979 140.208C222.698 140.349,222.361 141.219,222.361 141.303"/></g><g class="vf-stavenote" id="vf-auto19758"><g class="vf-notehead" id="vf-auto19814" pointer-events="bounding-box"><path stroke="none" d="M253.614 121.685C253.614 123.426,254.878 125.391,258.135 125.391C262.347 125.391,266.756 121.938,266.756 118.371C266.756 115.985,264.734 114.665,262.235 114.665C258.304 114.665,253.614 117.978,253.614 121.685"/></g></g><g class="vf-stavenote" id="vf-auto19766"><g class="vf-notehead" id="vf-auto19816" pointer-events="bounding-box"><path stroke="none" d="M279.015 116.685C279.015 118.426,280.278 120.391,283.536 120.391C287.748 120.391,292.156 116.938,292.156 113.371C292.156 110.985,290.134 109.665,287.635 109.665C283.704 109.665,279.015 112.978,279.015 116.685"/></g></g><g class="vf-stavenote" id="vf-auto19774"><g class="vf-notehead" id="vf-auto19829" pointer-events="bounding-box"><path stroke="none" d="M318.287 112.475C318.315 112.39,318.315 112.362,318.315 112.278C318.315 112.081,318.202 111.885,317.95 111.801C317.894 111.744,317.809 111.744,317.753 111.744C317.529 111.744,317.36 111.885,317.22 112.081C316.265 114.019,314.636 116.209,312.418 116.771C312.895 116.209,313.12 115.563,313.12 114.833C313.12 113.261,311.688 112.025,310.115 112.025C308.487 112.11,307.335 113.457,307.335 115.03C307.364 116.237,308.178 117.248,309.217 117.641C309.947 117.978,310.733 118.062,311.491 118.062C313.513 117.978,315.086 116.967,316.293 115.395L316.293 115.395L314.496 121.825C313.906 123.707,311.604 126.346,309.554 126.88C310.003 126.318,310.228 125.616,310.228 124.942C310.228 123.313,308.852 122.134,307.279 122.134C305.679 122.134,304.443 123.51,304.443 125.139C304.443 126.346,305.314 127.357,306.353 127.722C307.111 128.059,307.813 128.115,308.627 128.115C310.649 128.059,312.221 127.048,313.429 125.448L309.301 140.218L310.396 140.498"/></g></g><g class="vf-stavenote" id="vf-auto19779"><g class="vf-stem" id="vf-auto19780" pointer-events="bounding-box"><path stroke-width="1.5" fill="none" d="M336.418 112L336.418 142"/></g><g class="vf-notehead" id="vf-auto19818" pointer-events="bounding-box"><path stroke="none" d="M335.668 111.685C335.668 113.426,336.932 115.391,340.189 115.391C344.401 115.391,348.81 111.938,348.81 108.371C348.81 105.985,346.788 104.665,344.289 104.665C340.358 104.665,335.668 107.978,335.668 111.685"/></g><path stroke="none" d="M337.157 137.284C337.213 137.088,337.241 136.919,337.241 136.807C337.522 135.796,337.859 134.308,340.245 132.483C342.576 130.657,345.384 128.411,346.451 126.445C346.395 129.562,345.609 131.5,344.57 132.876C342.099 135.908,339.094 136.779,337.157 137.284M335.668 147.393C335.668 147.73,335.949 148.039,336.286 148.039C336.595 148.039,336.792 147.73,336.876 147.393C337.494 143.237,338.729 142.03,340.358 140.485C342.492 138.436,348.164 135.319,348.164 127.821C348.164 126.502,348.052 125.013,347.799 123.497C347.967 122.992,348.052 122.262,348.052 121.194C348.052 118.021,346.17 115.775,344.851 114.736C344.682 114.624,344.429 114.54,344.205 114.54C344.036 114.54,343.868 114.568,343.727 114.652C343.559 114.736,343.503 114.764,343.503 114.848C343.503 114.989,343.755 115.129,343.924 115.298C345.328 116.786,346.395 118.162,346.395 120.886C346.395 121.391,346.339 121.925,346.17 122.402L346.142 122.542C346.142 122.542,346.142 122.542,346.142 122.542C345.946 123.357,345.496 124.115,344.851 124.845C342.014 128.13,338.083 129.815,336.286 130.208C336.005 130.349,335.668 131.219,335.668 131.303"/></g><g class="vf-stavenote" id="vf-auto19787"><g class="vf-stem" id="vf-auto19788" pointer-events="bounding-box"><path stroke-width="1.5" fill="none" d="M367.672 132L367.672 165"/></g><g class="vf-notehead" id="vf-auto19791" pointer-events="bounding-box"><path stroke="none" d="M366.922 131.685C366.922 133.426,368.185 135.391,371.443 135.391C375.655 135.391,380.063 131.938,380.063 128.371C380.063 125.985,378.041 124.665,375.542 124.665C371.611 124.665,366.922 127.978,366.922 131.685"/></g></g><text stroke="none" font-size="12pt" x="33.571" y="50">Default Rest Positions</text><g class="vf-stavenote" id="vf-auto19834" font-size="12pt"><g class="vf-notehead" id="vf-auto20025" pointer-events="bounding-box"><path stroke="none" d="M437.783 76.801C437.755 76.801,437.67 76.744,437.642 76.744C437.39 76.744,437.193 76.885,437.109 77.081C436.94 77.306,435.705 79.693,433.88 81.041C433.346 81.434,432.7 81.715,432.054 81.855C432.504 81.322,432.784 80.676,432.784 79.918C432.784 78.317,431.493 77.025,429.92 77.025C428.292 77.025,427 78.317,427 79.918C427 81.153,427.758 82.164,428.825 82.613C429.415 82.894,430.229 83.091,431.044 83.091C432.223 83.091,433.458 82.726,434.554 81.939C435.059 81.574,435.536 81.069,435.986 80.591L431.38 94.996L432.448 95.305L438.12 77.475C438.148 77.446,438.148 77.362,438.148 77.278C438.148 77.081,438.035 76.913,437.783 76.801"/></g></g><g class="vf-stavenote" id="vf-auto19839" font-size="12pt"><g class="vf-stem" id="vf-auto19840" pointer-events="bounding-box"><path stroke-width="1.5" fill="none" d="M490.192 93L490.192 63"/></g><g class="vf-notehead" id="vf-auto19989" pointer-events="bounding-box"><path stroke="none" d="M477.801 96.685C477.801 98.426,479.064 100.391,482.322 100.391C486.534 100.391,490.942 96.938,490.942 93.371C490.942 90.985,488.92 89.665,486.421 89.665C482.49 89.665,477.801 92.978,477.801 96.685"/></g><path stroke="none" d="M497.894 77.122C496.799 75.718,495.592 74.427,493.598 72.433C492.026 70.861,491.295 69.485,491.015 68.446C490.987 68.221,490.93 67.94,490.902 67.631C492.952 67.631,495.592 70.411,497.052 72.321C498.624 74.371,498.989 75.999,498.989 77.544C498.989 77.937,498.933 78.33,498.905 78.751C498.568 78.105,498.203 77.572,497.894 77.122M489.442 73.416C489.442 73.528,489.779 73.697,490.06 73.809C491.099 74.174,494.244 76.196,496.687 79.79C498.063 81.868,498.372 83.3,498.372 84.676C498.372 84.929,498.372 85.125,498.344 85.378C498.344 86.333,498.063 88.411,497.445 90.011C497.417 90.236,497.276 90.46,497.276 90.685C497.276 90.826,497.361 90.994,497.557 91.106C497.642 91.162,497.698 91.162,497.782 91.162C498.063 91.162,498.203 90.826,498.372 90.601C499.102 89.45,500.169 87.287,500.169 85.013C500.169 83.834,500.084 82.879,499.944 82.008C500.365 80.52,500.73 79.032,500.73 77.038C500.73 74.932,500.169 73.051,498.793 71.226C496.883 68.727,494.834 66.621,493.289 64.402C491.745 62.156,490.622 58,490.622 58C490.537 57.719,490.481 57.523,490.06 57.523C489.554 57.523,489.442 57.719,489.442 58"/></g><g class="vf-stavenote" id="vf-auto19847" font-size="12pt"><g class="vf-notehead" id="vf-auto20017" pointer-events="bounding-box"><path stroke="none" d="M522.925 87.475C522.954 87.39,522.954 87.362,522.954 87.278C522.954 87.081,522.841 86.885,522.589 86.801C522.532 86.744,522.448 86.744,522.392 86.744C522.167 86.744,521.999 86.885,521.858 87.081C520.904 89.019,519.275 91.209,517.057 91.771C517.534 91.209,517.759 90.563,517.759 89.833C517.759 88.261,516.327 87.025,514.754 87.025C513.126 87.11,511.974 88.457,511.974 90.03C512.002 91.237,512.817 92.248,513.856 92.641C514.586 92.978,515.372 93.062,516.13 93.062C518.152 92.978,519.724 91.967,520.932 90.395L520.932 90.395L519.135 96.825C518.545 98.707,516.242 101.346,514.193 101.88C514.642 101.318,514.867 100.616,514.867 99.942C514.867 98.313,513.491 97.134,511.918 97.134C510.318 97.134,509.082 98.51,509.082 100.139C509.082 101.346,509.953 102.357,510.991 102.722C511.75 103.059,512.452 103.115,513.266 103.115C515.288 103.059,516.86 102.048,518.068 100.448L513.94 115.218L515.035 115.498"/></g></g><g class="vf-stavenote" id="vf-auto19852" font-size="12pt"><g class="vf-notehead" id="vf-auto20018" pointer-events="bounding-box"><path stroke="none" d="M551.09 86.801C551.062 86.801,550.978 86.744,550.95 86.744C550.697 86.744,550.5 86.885,550.416 87.081C550.248 87.306,549.012 89.693,547.187 91.041C546.653 91.434,546.007 91.715,545.362 91.855C545.811 91.322,546.092 90.676,546.092 89.918C546.092 88.317,544.8 87.025,543.228 87.025C541.599 87.025,540.307 88.317,540.307 89.918C540.307 91.153,541.065 92.164,542.132 92.613C542.722 92.894,543.536 93.091,544.351 93.091C545.53 93.091,546.766 92.726,547.861 91.939C548.366 91.574,548.844 91.069,549.293 90.591L544.688 104.996L545.755 105.305L551.427 87.475C551.455 87.446,551.455 87.362,551.455 87.278C551.455 87.081,551.343 86.913,551.09 86.801"/></g></g><g class="vf-stavenote" id="vf-auto19857" font-size="12pt"><g class="vf-stem" id="vf-auto19858" pointer-events="bounding-box"><path stroke-width="1.5" fill="none" d="M603.499 93L603.499 63"/></g><g class="vf-notehead" id="vf-auto19991" pointer-events="bounding-box"><path stroke="none" d="M591.108 96.685C591.108 98.426,592.372 100.391,595.629 100.391C599.841 100.391,604.249 96.938,604.249 93.371C604.249 90.985,602.228 89.665,599.729 89.665C595.797 89.665,591.108 92.978,591.108 96.685"/></g><path stroke="none" d="M611.201 77.122C610.106 75.718,608.899 74.427,606.905 72.433C605.333 70.861,604.603 69.485,604.322 68.446C604.294 68.221,604.238 67.94,604.21 67.631C606.259 67.631,608.899 70.411,610.359 72.321C611.932 74.371,612.297 75.999,612.297 77.544C612.297 77.937,612.24 78.33,612.212 78.751C611.875 78.105,611.51 77.572,611.201 77.122M602.749 73.416C602.749 73.528,603.086 73.697,603.367 73.809C604.406 74.174,607.551 76.196,609.994 79.79C611.37 81.868,611.679 83.3,611.679 84.676C611.679 84.929,611.679 85.125,611.651 85.378C611.651 86.333,611.37 88.411,610.752 90.011C610.724 90.236,610.584 90.46,610.584 90.685C610.584 90.826,610.668 90.994,610.865 91.106C610.949 91.162,611.005 91.162,611.089 91.162C611.37 91.162,611.51 90.826,611.679 90.601C612.409 89.45,613.476 87.287,613.476 85.013C613.476 83.834,613.392 82.879,613.251 82.008C613.673 80.52,614.038 79.032,614.038 77.038C614.038 74.932,613.476 73.051,612.1 71.226C610.191 68.727,608.141 66.621,606.596 64.402C605.052 62.156,603.929 58,603.929 58C603.845 57.719,603.788 57.523,603.367 57.523C602.862 57.523,602.749 57.719,602.749 58"/></g><g class="vf-stavenote" id="vf-auto19865" font-size="12pt"><g class="vf-notehead" id="vf-auto20026" pointer-events="bounding-box"><path stroke="none" d="M636.233 77.475C636.261 77.39,636.261 77.362,636.261 77.278C636.261 77.081,636.148 76.885,635.896 76.801C635.84 76.744,635.755 76.744,635.699 76.744C635.475 76.744,635.306 76.885,635.166 77.081C634.211 79.019,632.582 81.209,630.364 81.771C630.841 81.209,631.066 80.563,631.066 79.833C631.066 78.261,629.634 77.025,628.061 77.025C626.433 77.11,625.282 78.457,625.282 80.03C625.31 81.237,626.124 82.248,627.163 82.641C627.893 82.978,628.679 83.062,629.437 83.062C631.459 82.978,633.032 81.967,634.239 80.395L634.239 80.395L632.442 86.825C631.852 88.707,629.55 91.346,627.5 91.88C627.949 91.318,628.174 90.616,628.174 89.942C628.174 88.313,626.798 87.134,625.225 87.134C623.625 87.134,622.389 88.51,622.389 90.139C622.389 91.346,623.26 92.357,624.299 92.722C625.057 93.059,625.759 93.115,626.573 93.115C628.595 93.059,630.167 92.048,631.375 90.448L627.247 105.218L628.342 105.498"/></g></g><g class="vf-stavenote" id="vf-auto19870" font-size="12pt"><g class="vf-notehead" id="vf-auto20020" pointer-events="bounding-box"><path stroke="none" d="M664.397 86.801C664.369 86.801,664.285 86.744,664.257 86.744C664.004 86.744,663.807 86.885,663.723 87.081C663.555 87.306,662.319 89.693,660.494 91.041C659.961 91.434,659.315 91.715,658.669 91.855C659.118 91.322,659.399 90.676,659.399 89.918C659.399 88.317,658.107 87.025,656.535 87.025C654.906 87.025,653.614 88.317,653.614 89.918C653.614 91.153,654.373 92.164,655.44 92.613C656.029 92.894,656.844 93.091,657.658 93.091C658.837 93.091,660.073 92.726,661.168 91.939C661.673 91.574,662.151 91.069,662.6 90.591L657.995 104.996L659.062 105.305L664.734 87.475C664.762 87.446,664.762 87.362,664.762 87.278C664.762 87.081,664.65 86.913,664.397 86.801"/></g></g><g class="vf-stavenote" id="vf-auto19875" font-size="12pt"><g class="vf-stem" id="vf-auto19876" pointer-events="bounding-box"><path stroke-width="1.5" fill="none" d="M716.807 98L716.807 68"/></g><g class="vf-notehead" id="vf-auto19993" pointer-events="bounding-box"><path stroke="none" d="M704.415 101.685C704.415 103.426,705.679 105.391,708.936 105.391C713.148 105.391,717.557 101.938,717.557 98.371C717.557 95.985,715.535 94.665,713.036 94.665C709.105 94.665,704.415 97.978,704.415 101.685"/></g><path stroke="none" d="M724.509 82.122C723.414 80.718,722.206 79.427,720.212 77.433C718.64 75.861,717.91 74.485,717.629 73.446C717.601 73.221,717.545 72.94,717.517 72.631C719.567 72.631,722.206 75.411,723.666 77.321C725.239 79.371,725.604 80.999,725.604 82.544C725.604 82.937,725.548 83.33,725.52 83.751C725.183 83.105,724.818 82.572,724.509 82.122M716.057 78.416C716.057 78.528,716.394 78.697,716.674 78.809C717.713 79.174,720.858 81.196,723.301 84.79C724.677 86.868,724.986 88.3,724.986 89.676C724.986 89.929,724.986 90.125,724.958 90.378C724.958 91.333,724.677 93.411,724.059 95.011C724.031 95.236,723.891 95.46,723.891 95.685C723.891 95.826,723.975 95.994,724.172 96.106C724.256 96.162,724.312 96.162,724.396 96.162C724.677 96.162,724.818 95.826,724.986 95.601C725.716 94.45,726.783 92.287,726.783 90.013C726.783 88.834,726.699 87.879,726.559 87.008C726.98 85.52,727.345 84.032,727.345 82.038C727.345 79.932,726.783 78.051,725.407 76.226C723.498 73.727,721.448 71.621,719.904 69.402C718.359 67.156,717.236 63,717.236 63C717.152 62.719,717.096 62.523,716.674 62.523C716.169 62.523,716.057 62.719,716.057 63"/></g><g class="vf-stavenote" id="vf-auto19883" font-size="12pt"><g class="vf-notehead" id="vf-auto20028" pointer-events="bounding-box"><path stroke="none" d="M749.54 77.475C749.568 77.39,749.568 77.362,749.568 77.278C749.568 77.081,749.456 76.885,749.203 76.801C749.147 76.744,749.063 76.744,749.006 76.744C748.782 76.744,748.613 76.885,748.473 77.081C747.518 79.019,745.89 81.209,743.671 81.771C744.149 81.209,744.373 80.563,744.373 79.833C744.373 78.261,742.941 77.025,741.369 77.025C739.74 77.11,738.589 78.457,738.589 80.03C738.617 81.237,739.431 82.248,740.47 82.641C741.2 82.978,741.986 83.062,742.745 83.062C744.766 82.978,746.339 81.967,747.546 80.395L747.546 80.395L745.749 86.825C745.159 88.707,742.857 91.346,740.807 91.88C741.256 91.318,741.481 90.616,741.481 89.942C741.481 88.313,740.105 87.134,738.533 87.134C736.932 87.134,735.696 88.51,735.696 90.139C735.696 91.346,736.567 92.357,737.606 92.722C738.364 93.059,739.066 93.115,739.88 93.115C741.902 93.059,743.475 92.048,744.682 90.448L740.554 105.218L741.649 105.498"/></g></g><g class="vf-stavenote" id="vf-auto19888" font-size="12pt"><g class="vf-stem" id="vf-auto19889" pointer-events="bounding-box"><path stroke-width="1.5" fill="none" d="M779.313 93L779.313 60"/></g><g class="vf-notehead" id="vf-auto19892" pointer-events="bounding-box"><path stroke="none" d="M766.922 96.685C766.922 98.426,768.185 100.391,771.443 100.391C775.655 100.391,780.063 96.938,780.063 93.371C780.063 90.985,778.041 89.665,775.542 89.665C771.611 89.665,766.922 92.978,766.922 96.685"/></g></g><g class="vf-stavenote" id="vf-auto19893" font-size="12pt"><g class="vf-notehead" id="vf-auto19995" pointer-events="bounding-box"><path stroke="none" d="M427 106.685C427 108.426,428.264 110.391,431.521 110.391C435.733 110.391,440.141 106.938,440.141 103.371C440.141 100.985,438.12 99.665,435.621 99.665C431.689 99.665,427 102.978,427 106.685"/></g></g><g class="vf-stavenote" id="vf-auto19901" font-size="12pt"><path stroke-width="1.4" fill="none" stroke="#444" d="M449.4 140L468.542 140"/><g class="vf-notehead" id="vf-auto19997" pointer-events="bounding-box"><path stroke="none" d="M452.4 141.685C452.4 143.426,453.664 145.391,456.921 145.391C461.133 145.391,465.542 141.938,465.542 138.371C465.542 135.985,463.52 134.665,461.021 134.665C457.09 134.665,452.4 137.978,452.4 141.685"/></g></g><g class="vf-stavenote" id="vf-auto19909" font-size="12pt"><g class="vf-notehead" id="vf-auto20022" pointer-events="bounding-box"><path stroke="none" d="M491.672 127.475C491.7 127.39,491.7 127.362,491.7 127.278C491.7 127.081,491.588 126.885,491.335 126.801C491.279 126.744,491.195 126.744,491.139 126.744C490.914 126.744,490.746 126.885,490.605 127.081C489.65 129.019,488.022 131.209,485.804 131.771C486.281 131.209,486.506 130.563,486.506 129.833C486.506 128.261,485.073 127.025,483.501 127.025C481.872 127.11,480.721 128.457,480.721 130.03C480.749 131.237,481.563 132.248,482.602 132.641C483.332 132.978,484.119 133.062,484.877 133.062C486.899 132.978,488.471 131.967,489.679 130.395L489.679 130.395L487.881 136.825C487.292 138.707,484.989 141.346,482.939 141.88C483.389 141.318,483.613 140.616,483.613 139.942C483.613 138.313,482.237 137.134,480.665 137.134C479.064 137.134,477.829 138.51,477.829 140.139C477.829 141.346,478.699 142.357,479.738 142.722C480.496 143.059,481.198 143.115,482.013 143.115C484.034 143.059,485.607 142.048,486.814 140.448L482.687 155.218L483.782 155.498"/></g></g><g class="vf-stavenote" id="vf-auto19914" font-size="12pt"><g class="vf-stem" id="vf-auto19915" pointer-events="bounding-box"><path stroke-width="1.5" fill="none" d="M509.804 137L509.804 167"/></g><g class="vf-notehead" id="vf-auto19999" pointer-events="bounding-box"><path stroke="none" d="M509.054 136.685C509.054 138.426,510.318 140.391,513.575 140.391C517.787 140.391,522.195 136.938,522.195 133.371C522.195 130.985,520.174 129.665,517.675 129.665C513.743 129.665,509.054 132.978,509.054 136.685"/></g><path stroke="none" d="M510.542 162.284C510.598 162.088,510.626 161.919,510.626 161.807C510.907 160.796,511.244 159.308,513.631 157.483C515.962 155.657,518.77 153.411,519.837 151.445C519.781 154.562,518.994 156.5,517.955 157.876C515.484 160.908,512.48 161.779,510.542 162.284M509.054 172.393C509.054 172.73,509.335 173.039,509.672 173.039C509.981 173.039,510.177 172.73,510.261 172.393C510.879 168.237,512.115 167.03,513.743 165.485C515.877 163.436,521.55 160.319,521.55 152.821C521.55 151.502,521.437 150.013,521.185 148.497C521.353 147.992,521.437 147.262,521.437 146.194C521.437 143.021,519.556 140.775,518.236 139.736C518.068 139.624,517.815 139.54,517.59 139.54C517.422 139.54,517.253 139.568,517.113 139.652C516.944 139.736,516.888 139.764,516.888 139.848C516.888 139.989,517.141 140.129,517.309 140.298C518.713 141.786,519.781 143.162,519.781 145.886C519.781 146.391,519.724 146.925,519.556 147.402L519.528 147.542C519.528 147.542,519.528 147.542,519.528 147.542C519.331 148.357,518.882 149.115,518.236 149.845C515.4 153.13,511.469 154.815,509.672 155.208C509.391 155.349,509.054 156.219,509.054 156.303"/></g><g class="vf-stavenote" id="vf-auto19922" font-size="12pt"><g class="vf-notehead" id="vf-auto20001" pointer-events="bounding-box"><path stroke="none" d="M540.307 131.685C540.307 133.426,541.571 135.391,544.828 135.391C549.04 135.391,553.449 131.938,553.449 128.371C553.449 125.985,551.427 124.665,548.928 124.665C544.997 124.665,540.307 127.978,540.307 131.685"/></g></g><g class="vf-stavenote" id="vf-auto19930" font-size="12pt"><g class="vf-notehead" id="vf-auto20003" pointer-events="bounding-box"><path stroke="none" d="M565.708 126.685C565.708 128.426,566.971 130.391,570.228 130.391C574.44 130.391,578.849 126.938,578.849 123.371C578.849 120.985,576.827 119.665,574.328 119.665C570.397 119.665,565.708 122.978,565.708 126.685"/></g></g><g class="vf-stavenote" id="vf-auto19938" font-size="12pt"><g class="vf-notehead" id="vf-auto20023" pointer-events="bounding-box"><path stroke="none" d="M604.979 112.475C605.008 112.39,605.008 112.362,605.008 112.278C605.008 112.081,604.895 111.885,604.643 111.801C604.586 111.744,604.502 111.744,604.446 111.744C604.221 111.744,604.053 111.885,603.912 112.081C602.958 114.019,601.329 116.209,599.111 116.771C599.588 116.209,599.813 115.563,599.813 114.833C599.813 113.261,598.381 112.025,596.808 112.025C595.18 112.11,594.028 113.457,594.028 115.03C594.056 116.237,594.871 117.248,595.91 117.641C596.64 117.978,597.426 118.062,598.184 118.062C600.206 117.978,601.778 116.967,602.986 115.395L602.986 115.395L601.189 121.825C600.599 123.707,598.296 126.346,596.247 126.88C596.696 126.318,596.921 125.616,596.921 124.942C596.921 123.313,595.545 122.134,593.972 122.134C592.372 122.134,591.136 123.51,591.136 125.139C591.136 126.346,592.007 127.357,593.045 127.722C593.804 128.059,594.506 128.115,595.32 128.115C597.342 128.059,598.914 127.048,600.122 125.448L595.994 140.218L597.089 140.498"/></g></g><g class="vf-stavenote" id="vf-auto19943" font-size="12pt"><g class="vf-stem" id="vf-auto19944" pointer-events="bounding-box"><path stroke-width="1.5" fill="none" d="M623.111 122L623.111 152"/></g><g class="vf-notehead" id="vf-auto20005" pointer-events="bounding-box"><path stroke="none" d="M622.361 121.685C622.361 123.426,623.625 125.391,626.882 125.391C631.094 125.391,635.503 121.938,635.503 118.371C635.503 115.985,633.481 114.665,630.982 114.665C627.051 114.665,622.361 117.978,622.361 121.685"/></g><path stroke="none" d="M623.849 147.284C623.906 147.088,623.934 146.919,623.934 146.807C624.214 145.796,624.551 144.308,626.938 142.483C629.269 140.657,632.077 138.411,633.144 136.445C633.088 139.562,632.302 141.5,631.263 142.876C628.792 145.908,625.787 146.779,623.849 147.284M622.361 157.393C622.361 157.73,622.642 158.039,622.979 158.039C623.288 158.039,623.484 157.73,623.569 157.393C624.186 153.237,625.422 152.03,627.051 150.485C629.185 148.436,634.857 145.319,634.857 137.821C634.857 136.502,634.744 135.013,634.492 133.497C634.66 132.992,634.744 132.262,634.744 131.194C634.744 128.021,632.863 125.775,631.543 124.736C631.375 124.624,631.122 124.54,630.898 124.54C630.729 124.54,630.561 124.568,630.42 124.652C630.252 124.736,630.196 124.764,630.196 124.848C630.196 124.989,630.448 125.129,630.617 125.298C632.021 126.786,633.088 128.162,633.088 130.886C633.088 131.391,633.032 131.925,632.863 132.402L632.835 132.542C632.835 132.542,632.835 132.542,632.835 132.542C632.638 133.357,632.189 134.115,631.543 134.845C628.707 138.13,624.776 139.815,622.979 140.208C622.698 140.349,622.361 141.219,622.361 141.303"/></g><g class="vf-stavenote" id="vf-auto19951" font-size="12pt"><g class="vf-notehead" id="vf-auto20007" pointer-events="bounding-box"><path stroke="none" d="M653.614 121.685C653.614 123.426,654.878 125.391,658.135 125.391C662.347 125.391,666.756 121.938,666.756 118.371C666.756 115.985,664.734 114.665,662.235 114.665C658.304 114.665,653.614 117.978,653.614 121.685"/></g></g><g class="vf-stavenote" id="vf-auto19959" font-size="12pt"><g class="vf-notehead" id="vf-auto20009" pointer-events="bounding-box"><path stroke="none" d="M679.015 116.685C679.015 118.426,680.278 120.391,683.536 120.391C687.748 120.391,692.156 116.938,692.156 113.371C692.156 110.985,690.134 109.665,687.635 109.665C683.704 109.665,679.015 112.978,679.015 116.685"/></g></g><g class="vf-stavenote" id="vf-auto19967" font-size="12pt"><g class="vf-notehead" id="vf-auto20027" pointer-events="bounding-box"><path stroke="none" d="M718.287 112.475C718.315 112.39,718.315 112.362,718.315 112.278C718.315 112.081,718.202 111.885,717.95 111.801C717.894 111.744,717.809 111.744,717.753 111.744C717.529 111.744,717.36 111.885,717.22 112.081C716.265 114.019,714.636 116.209,712.418 116.771C712.895 116.209,713.12 115.563,713.12 114.833C713.12 113.261,711.688 112.025,710.115 112.025C708.487 112.11,707.335 113.457,707.335 115.03C707.364 116.237,708.178 117.248,709.217 117.641C709.947 117.978,710.733 118.062,711.491 118.062C713.513 117.978,715.086 116.967,716.293 115.395L716.293 115.395L714.496 121.825C713.906 123.707,711.604 126.346,709.554 126.88C710.003 126.318,710.228 125.616,710.228 124.942C710.228 123.313,708.852 122.134,707.279 122.134C705.679 122.134,704.443 123.51,704.443 125.139C704.443 126.346,705.314 127.357,706.353 127.722C707.111 128.059,707.813 128.115,708.627 128.115C710.649 128.059,712.221 127.048,713.429 125.448L709.301 140.218L710.396 140.498"/></g></g><g class="vf-stavenote" id="vf-auto19972" font-size="12pt"><g class="vf-stem" id="vf-auto19973" pointer-events="bounding-box"><path stroke-width="1.5" fill="none" d="M736.418 112L736.418 142"/></g><g class="vf-notehead" id="vf-auto20011" pointer-events="bounding-box"><path stroke="none" d="M735.668 111.685C735.668 113.426,736.932 115.391,740.189 115.391C744.401 115.391,748.81 111.938,748.81 108.371C748.81 105.985,746.788 104.665,744.289 104.665C740.358 104.665,735.668 107.978,735.668 111.685"/></g><path stroke="none" d="M737.157 137.284C737.213 137.088,737.241 136.919,737.241 136.807C737.522 135.796,737.859 134.308,740.245 132.483C742.576 130.657,745.384 128.411,746.451 126.445C746.395 129.562,745.609 131.5,744.57 132.876C742.099 135.908,739.094 136.779,737.157 137.284M735.668 147.393C735.668 147.73,735.949 148.039,736.286 148.039C736.595 148.039,736.792 147.73,736.876 147.393C737.494 143.237,738.729 142.03,740.358 140.485C742.492 138.436,748.164 135.319,748.164 127.821C748.164 126.502,748.052 125.013,747.799 123.497C747.967 122.992,748.052 122.262,748.052 121.194C748.052 118.021,746.17 115.775,744.851 114.736C744.682 114.624,744.429 114.54,744.205 114.54C744.036 114.54,743.868 114.568,743.727 114.652C743.559 114.736,743.503 114.764,743.503 114.848C743.503 114.989,743.755 115.129,743.924 115.298C745.328 116.786,746.395 118.162,746.395 120.886C746.395 121.391,746.339 121.925,746.17 122.402L746.142 122.542C746.142 122.542,746.142 122.542,746.142 122.542C745.946 123.357,745.496 124.115,744.851 124.845C742.014 128.13,738.083 129.815,736.286 130.208C736.005 130.349,735.668 131.219,735.668 131.303"/></g><g class="vf-stavenote" id="vf-auto19980" font-size="12pt"><g class="vf-stem" id="vf-auto19981" pointer-events="bounding-box"><path stroke-width="1.5" fill="none" d="M767.672 132L767.672 165"/></g><g class="vf-notehead" id="vf-auto19984" pointer-events="bounding-box"><path stroke="none" d="M766.922 131.685C766.922 133.426,768.185 135.391,771.443 135.391C775.655 135.391,780.063 131.938,780.063 128.371C780.063 125.985,778.041 124.665,775.542 124.665C771.611 124.665,766.922 127.978,766.922 131.685"/></g></g><text stroke="none" font-size="12pt" x="433.571" y="50">Rests Repositioned To Avoid Collisions</text><g class="vf-stem" id="vf-auto19701" pointer-events="bounding-box" font-size="12pt"><path stroke-width="1.5" fill="none" d="M27.75 107L27.75 167.9"/></g><g class="vf-stem" id="vf-auto19709" pointer-events="bounding-box" font-size="12pt"><path stroke-width="1.5" fill="none" d="M53.15 142L53.15 174.25"/></g><g class="vf-beam" id="vf-auto19820" font-size="12pt"><path stroke="none" d="M27 168.462L27 163.462L53.4 169.813L53.4 174.813Z"/><path stroke="none" d="M27 160.962L27 155.962L53.4 162.313L53.4 167.313Z"/></g><g class="vf-stem" id="vf-auto19730" pointer-events="bounding-box" font-size="12pt"><path stroke-width="1.5" fill="none" d="M141.057 132L141.057 164.25"/></g><g class="vf-stem" id="vf-auto19738" pointer-events="bounding-box" font-size="12pt"><path stroke-width="1.5" fill="none" d="M166.458 127L166.458 161.71"/></g><g class="vf-beam" id="vf-auto19821" font-size="12pt"><path stroke="none" d="M140.307 165.075L140.307 160.075L166.708 157.535L166.708 162.535Z"/><path stroke="none" d="M140.307 157.575L140.307 152.575L166.708 150.035L166.708 155.035Z"/></g><g class="vf-stem" id="vf-auto19759" pointer-events="bounding-box" font-size="12pt"><path stroke-width="1.5" fill="none" d="M254.364 122L254.364 154.25"/></g><g class="vf-stem" id="vf-auto19767" pointer-events="bounding-box" font-size="12pt"><path stroke-width="1.5" fill="none" d="M279.765 117L279.765 151.71"/></g><g class="vf-beam" id="vf-auto19822" font-size="12pt"><path stroke="none" d="M253.614 155.075L253.614 150.075L280.015 147.535L280.015 152.535Z"/><path stroke="none" d="M253.614 147.575L253.614 142.575L280.015 140.035L280.015 145.035Z"/></g><g class="vf-stem" id="vf-auto19894" pointer-events="bounding-box" font-size="12pt"><path stroke-width="1.5" fill="none" d="M427.75 107L427.75 167.9"/></g><g class="vf-stem" id="vf-auto19902" pointer-events="bounding-box" font-size="12pt"><path stroke-width="1.5" fill="none" d="M453.15 142L453.15 174.25"/></g><g class="vf-beam" id="vf-auto20013" font-size="12pt"><path stroke="none" d="M427 168.462L427 163.462L453.4 169.813L453.4 174.813Z"/><path stroke="none" d="M427 160.962L427 155.962L453.4 162.313L453.4 167.313Z"/></g><g class="vf-stem" id="vf-auto19923" pointer-events="bounding-box" font-size="12pt"><path stroke-width="1.5" fill="none" d="M541.057 132L541.057 164.25"/></g><g class="vf-stem" id="vf-auto19931" pointer-events="bounding-box" font-size="12pt"><path stroke-width="1.5" fill="none" d="M566.458 127L566.458 161.71"/></g><g class="vf-beam" id="vf-auto20014" font-size="12pt"><path stroke="none" d="M540.307 165.075L540.307 160.075L566.708 157.535L566.708 162.535Z"/><path stroke="none" d="M540.307 157.575L540.307 152.575L566.708 150.035L566.708 155.035Z"/></g><g class="vf-stem" id="vf-auto19952" pointer-events="bounding-box" font-size="12pt"><path stroke-width="1.5" fill="none" d="M654.364 122L654.364 154.25"/></g><g class="vf-stem" id="vf-auto19960" pointer-events="bounding-box" font-size="12pt"><path stroke-width="1.5" fill="none" d="M679.765 117L679.765 151.71"/></g><g class="vf-beam" id="vf-auto20015" font-size="12pt"><path stroke="none" d="M653.614 155.075L653.614 150.075L680.015 147.535L680.015 152.535Z"/><path stroke="none" d="M653.614 147.575L653.614 142.575L680.015 140.035L680.015 145.035Z"/></g></svg>