<svg xmlns="http://www.w3.org/2000/svg" stroke-width="0.3" stroke-dasharray="none" fill="black" stroke="black" font-family="Arial, sans-serif" font-size="10pt" font-weight="normal" font-style="normal" width="500" height="140" viewBox="0 0 500 140" style="width: 500px; height: 140px; border: none;"><g class="vf-stave" id="vf-auto25504" stroke-width="1" fill="#999999" stroke="#999999"><path fill="none" d="M0 40L490 40"/><path fill="none" d="M0 50L490 50"/><path fill="none" d="M0 60L490 60"/><path fill="none" d="M0 70L490 70"/><path fill="none" d="M0 80L490 80"/></g><g class="vf-stavebarline" id="vf-auto25505"><rect y="39.5" width="1" height="41" stroke="none"/></g><g class="vf-stavebarline" id="vf-auto25506"><rect x="490" y="39.5" width="1" height="41" stroke="none"/></g><g class="vf-clef" id="vf-auto25507"><path stroke="none" d="M5.438 51.636C5.207 51.636,5 51.844,5 52.074L5 67.926C5 68.156,5.207 68.364,5.438 68.364L9.078 68.364C9.308 68.364,9.516 68.156,9.516 67.926L9.516 52.074C9.516 51.844,9.308 51.636,9.078 51.636M12.603 51.636C12.373 51.636,12.165 51.844,12.165 52.074L12.165 67.926C12.165 68.156,12.373 68.364,12.603 68.364L16.244 68.364C16.474 68.364,16.681 68.156,16.681 67.926L16.681 52.074C16.681 51.844,16.474 51.636,16.244 51.636"/></g><g class="vf-timesignature" id="vf-auto25508"><path stroke="none" d="M39.025 54.48L39.025 57.075L36.088 57.075C35.843 57.075,35.598 57.295,35.598 57.589L35.598 58.25C35.598 58.519,35.843 58.739,36.088 58.739L46.761 58.739C47.055 58.739,47.251 58.519,47.251 58.25L47.251 57.589C47.251 57.295,47.055 57.075,46.761 57.075L43.603 57.075L43.603 54.48L46.761 54.48C47.055 54.48,47.251 54.235,47.251 53.941L47.251 53.28C47.251 53.036,47.055 52.791,46.761 52.791L43.603 52.791L43.603 47.185C43.603 46.964,43.481 46.793,43.358 46.72L42.918 46.499C42.844 46.475,42.82 46.475,42.746 46.475C42.722 46.475,42.722 46.475,42.673 46.475C42.575 46.475,42.428 46.499,42.355 46.573L39.148 49.51C39.05 49.608,39.025 49.755,39.025 49.902L39.025 52.791L34.913 52.791C34.913 52.791,38.878 48.556,43.04 42.974C43.162 42.803,43.211 42.632,43.211 42.485C43.211 42.313,43.138 42.166,43.113 42.142L42.33 41.359C42.232 41.285,42.11 41.212,41.963 41.212C41.767 41.212,36.993 41.212,36.724 41.212C36.479 41.212,36.308 41.432,36.259 41.652C36.259 41.652,36.088 44.247,35.182 47.111C34.252 49.976,33.199 51.738,32.269 53.036C32.269 53.036,32.171 53.207,32.171 53.427C32.171 53.501,32.171 53.55,32.22 53.623C32.318 53.868,32.563 54.26,32.563 54.26C32.563 54.26,32.636 54.48,32.954 54.48"/><path stroke="none" d="M39.025 74.48L39.025 77.075L36.088 77.075C35.843 77.075,35.598 77.295,35.598 77.589L35.598 78.25C35.598 78.519,35.843 78.739,36.088 78.739L46.761 78.739C47.055 78.739,47.251 78.519,47.251 78.25L47.251 77.589C47.251 77.295,47.055 77.075,46.761 77.075L43.603 77.075L43.603 74.48L46.761 74.48C47.055 74.48,47.251 74.235,47.251 73.941L47.251 73.28C47.251 73.036,47.055 72.791,46.761 72.791L43.603 72.791L43.603 67.185C43.603 66.964,43.481 66.793,43.358 66.72L42.918 66.499C42.844 66.475,42.82 66.475,42.746 66.475C42.722 66.475,42.722 66.475,42.673 66.475C42.575 66.475,42.428 66.499,42.355 66.573L39.148 69.51C39.05 69.608,39.025 69.755,39.025 69.902L39.025 72.791L34.913 72.791C34.913 72.791,38.878 68.556,43.04 62.974C43.162 62.803,43.211 62.632,43.211 62.485C43.211 62.313,43.138 62.166,43.113 62.142L42.33 61.359C42.232 61.285,42.11 61.212,41.963 61.212C41.767 61.212,36.993 61.212,36.724 61.212C36.479 61.212,36.308 61.432,36.259 61.652C36.259 61.652,36.088 64.247,35.182 67.111C34.252 69.976,33.199 71.738,32.269 73.036C32.269 73.036,32.171 73.207,32.171 73.427C32.171 73.501,32.171 73.55,32.22 73.623C32.318 73.868,32.563 74.26,32.563 74.26C32.563 74.26,32.636 74.48,32.954 74.48"/></g><g class="vf-stavenote" id="vf-auto25513"><g class="vf-stem" id="vf-auto25514" pointer-events="bounding-box"><path stroke-width="1.5" fill="none" d="M61.184 57L61.184 90"/></g><g class="vf-notehead" id="vf-auto25516" pointer-events="bounding-box"><path stroke="none" d="M60.434 56.685C60.434 58.426,61.698 60.391,64.955 60.391C69.167 60.391,73.576 56.938,73.576 53.371C73.576 50.985,71.554 49.665,69.055 49.665C65.124 49.665,60.434 52.978,60.434 56.685"/><path stroke="none" d="M60.603 40.404C60.548 40.404,60.493 40.376,60.439 40.376C60.138 40.376,59.891 40.595,59.891 40.923L59.891 41.826C59.891 42.072,60.083 42.264,60.274 42.346L68.729 44.973L60.274 47.654C60.083 47.736,59.891 47.928,59.891 48.174L59.891 49.077C59.891 49.378,60.138 49.624,60.439 49.624C60.493 49.624,60.548 49.596,60.603 49.596L73.708 45.52C73.927 45.438,74.119 45.219,74.119 44.973C74.119 44.726,73.927 44.535,73.708 44.453"/><g class="vf-annotation" id="vf-auto25519"><text stroke="none" font-family="Times New Roman, serif" font-size="14pt" font-weight="bold" font-style="italic" x="61.304" y="102.897">L</text></g></g></g><g class="vf-stavenote" id="vf-auto25520"><g class="vf-stem" id="vf-auto25521" pointer-events="bounding-box"><path stroke-width="1.5" fill="none" d="M162.79 57L162.79 90"/></g><g class="vf-notehead" id="vf-auto25523" pointer-events="bounding-box"><path stroke="none" d="M162.04 56.685C162.04 58.426,163.304 60.391,166.561 60.391C170.773 60.391,175.182 56.938,175.182 53.371C175.182 50.985,173.16 49.665,170.661 49.665C166.73 49.665,162.04 52.978,162.04 56.685"/><g class="vf-annotation" id="vf-auto25524"><text stroke="none" font-family="Times New Roman, serif" font-size="14pt" font-weight="bold" font-style="italic" x="162.386" y="102.897">R</text></g></g></g><g class="vf-stavenote" id="vf-auto25525"><g class="vf-stem" id="vf-auto25526" pointer-events="bounding-box"><path stroke-width="1.5" fill="none" d="M264.396 57L264.396 90"/></g><g class="vf-notehead" id="vf-auto25528" pointer-events="bounding-box"><path stroke="none" d="M263.646 56.685C263.646 58.426,264.91 60.391,268.167 60.391C272.379 60.391,276.788 56.938,276.788 53.371C276.788 50.985,274.766 49.665,272.267 49.665C268.336 49.665,263.646 52.978,263.646 56.685"/><g class="vf-annotation" id="vf-auto25529"><text stroke="none" font-family="Times New Roman, serif" font-size="14pt" font-weight="bold" font-style="italic" x="264.516" y="102.897">L</text></g></g></g><g class="vf-stavenote" id="vf-auto25530"><g class="vf-stem" id="vf-auto25531" pointer-events="bounding-box"><path stroke-width="1.5" fill="none" d="M366.002 57L366.002 90"/></g><g class="vf-notehead" id="vf-auto25533" pointer-events="bounding-box"><path stroke="none" d="M365.252 56.685C365.252 58.426,366.516 60.391,369.773 60.391C373.985 60.391,378.394 56.938,378.394 53.371C378.394 50.985,376.372 49.665,373.873 49.665C369.942 49.665,365.252 52.978,365.252 56.685"/><g class="vf-annotation" id="vf-auto25534"><text stroke="none" font-family="Times New Roman, serif" font-size="14pt" font-weight="bold" font-style="italic" x="366.122" y="102.897">L</text></g></g></g></svg>