<svg xmlns="http://www.w3.org/2000/svg" stroke-width="0.3" stroke-dasharray="none" fill="black" stroke="black" font-family="Arial, sans-serif" font-size="10pt" font-weight="normal" font-style="normal" width="450" height="140" viewBox="0 0 450 140" style="width: 450px; height: 140px; border: none;"><g class="vf-stave" id="vf-auto33348" stroke-width="1" fill="#999999" stroke="#999999"><path fill="none" d="M10 50L360 50"/><path fill="none" d="M10 60L360 60"/><path fill="none" d="M10 70L360 70"/><path fill="none" d="M10 80L360 80"/><path fill="none" d="M10 90L360 90"/></g><g class="vf-stavebarline" id="vf-auto33349"><rect x="10" y="49.5" width="1" height="41" stroke="none"/></g><g class="vf-stavebarline" id="vf-auto33350"><rect x="360" y="49.5" width="1" height="41" stroke="none"/></g><g class="vf-timesignature" id="vf-auto33351"><path stroke="none" d="M22.344 64.48L22.344 67.075L19.406 67.075C19.162 67.075,18.917 67.295,18.917 67.589L18.917 68.25C18.917 68.519,19.162 68.739,19.406 68.739L30.08 68.739C30.373 68.739,30.569 68.519,30.569 68.25L30.569 67.589C30.569 67.295,30.373 67.075,30.08 67.075L26.922 67.075L26.922 64.48L30.08 64.48C30.373 64.48,30.569 64.235,30.569 63.941L30.569 63.28C30.569 63.036,30.373 62.791,30.08 62.791L26.922 62.791L26.922 57.185C26.922 56.964,26.799 56.793,26.677 56.72L26.236 56.499C26.163 56.475,26.138 56.475,26.065 56.475C26.04 56.475,26.04 56.475,25.992 56.475C25.894 56.475,25.747 56.499,25.673 56.573L22.466 59.51C22.368 59.608,22.344 59.755,22.344 59.902L22.344 62.791L18.231 62.791C18.231 62.791,22.197 58.556,26.359 52.974C26.481 52.803,26.53 52.632,26.53 52.485C26.53 52.313,26.457 52.166,26.432 52.142L25.649 51.359C25.551 51.285,25.428 51.212,25.282 51.212C25.086 51.212,20.312 51.212,20.043 51.212C19.798 51.212,19.627 51.432,19.578 51.652C19.578 51.652,19.406 54.247,18.501 57.111C17.57 59.976,16.518 61.738,15.588 63.036C15.588 63.036,15.49 63.207,15.49 63.427C15.49 63.501,15.49 63.55,15.539 63.623C15.636 63.868,15.881 64.26,15.881 64.26C15.881 64.26,15.955 64.48,16.273 64.48"/><path stroke="none" d="M22.344 84.48L22.344 87.075L19.406 87.075C19.162 87.075,18.917 87.295,18.917 87.589L18.917 88.25C18.917 88.519,19.162 88.739,19.406 88.739L30.08 88.739C30.373 88.739,30.569 88.519,30.569 88.25L30.569 87.589C30.569 87.295,30.373 87.075,30.08 87.075L26.922 87.075L26.922 84.48L30.08 84.48C30.373 84.48,30.569 84.235,30.569 83.941L30.569 83.28C30.569 83.036,30.373 82.791,30.08 82.791L26.922 82.791L26.922 77.185C26.922 76.964,26.799 76.793,26.677 76.72L26.236 76.499C26.163 76.475,26.138 76.475,26.065 76.475C26.04 76.475,26.04 76.475,25.992 76.475C25.894 76.475,25.747 76.499,25.673 76.573L22.466 79.51C22.368 79.608,22.344 79.755,22.344 79.902L22.344 82.791L18.231 82.791C18.231 82.791,22.197 78.556,26.359 72.974C26.481 72.803,26.53 72.632,26.53 72.485C26.53 72.313,26.457 72.166,26.432 72.142L25.649 71.359C25.551 71.285,25.428 71.212,25.282 71.212C25.086 71.212,20.312 71.212,20.043 71.212C19.798 71.212,19.627 71.432,19.578 71.652C19.578 71.652,19.406 74.247,18.501 77.111C17.57 79.976,16.518 81.738,15.588 83.036C15.588 83.036,15.49 83.207,15.49 83.427C15.49 83.501,15.49 83.55,15.539 83.623C15.636 83.868,15.881 84.26,15.881 84.26C15.881 84.26,15.955 84.48,16.273 84.48"/></g><g class="vf-stavenote" id="vf-auto33355"><g class="vf-stem" id="vf-auto33356" pointer-events="bounding-box"><path stroke-width="1.5" fill="none" d="M54.471 83L54.471 50"/></g><g class="vf-notehead" id="vf-auto33358" pointer-events="bounding-box"><path stroke="none" d="M42.08 86.685C42.08 88.426,43.343 90.391,46.601 90.391C50.813 90.391,55.221 86.938,55.221 83.371C55.221 80.985,53.199 79.665,50.7 79.665C46.769 79.665,42.08 82.978,42.08 86.685"/></g></g><g class="vf-stavenote" id="vf-auto33359"><g class="vf-stem" id="vf-auto33360" pointer-events="bounding-box"><path stroke-width="1.5" fill="none" d="M108.625 73L108.625 40"/></g><g class="vf-notehead" id="vf-auto33362" pointer-events="bounding-box"><path stroke="none" d="M96.233 76.685C96.233 78.426,97.497 80.391,100.754 80.391C104.966 80.391,109.375 76.938,109.375 73.371C109.375 70.985,107.353 69.665,104.854 69.665C100.922 69.665,96.233 72.978,96.233 76.685"/></g></g><g class="vf-stavenote" id="vf-auto33363"><g class="vf-stem" id="vf-auto33364" pointer-events="bounding-box"><path stroke-width="1.5" fill="none" d="M162.778 68L162.778 35"/></g><g class="vf-notehead" id="vf-auto33366" pointer-events="bounding-box"><path stroke="none" d="M150.386 71.685C150.386 73.426,151.65 75.391,154.907 75.391C159.119 75.391,163.528 71.938,163.528 68.371C163.528 65.985,161.506 64.665,159.007 64.665C155.076 64.665,150.386 67.978,150.386 71.685"/></g></g><g class="vf-stavenote" id="vf-auto33367"><g class="vf-notehead" id="vf-auto33371" pointer-events="bounding-box"><path stroke="none" d="M204.54 81.685C204.54 83.426,205.803 85.391,209.061 85.391C213.273 85.391,217.681 81.938,217.681 78.371C217.681 75.985,215.66 74.665,213.16 74.665C209.229 74.665,204.54 77.978,204.54 81.685"/></g></g><g class="vf-stavenote" id="vf-auto33373"><g class="vf-notehead" id="vf-auto33377" pointer-events="bounding-box"><path stroke="none" d="M258.693 91.685C258.693 93.426,259.957 95.391,263.214 95.391C267.426 95.391,271.835 91.938,271.835 88.371C271.835 85.985,269.813 84.665,267.314 84.665C263.383 84.665,258.693 87.978,258.693 91.685"/></g></g><g class="vf-stavenote" id="vf-auto33379"><g class="vf-notehead" id="vf-auto33383" pointer-events="bounding-box"><path stroke="none" d="M312.847 81.685C312.847 83.426,314.11 85.391,317.367 85.391C321.579 85.391,325.988 81.938,325.988 78.371C325.988 75.985,323.966 74.665,321.467 74.665C317.536 74.665,312.847 77.978,312.847 81.685"/></g></g><g class="vf-stem" id="vf-auto33368" pointer-events="bounding-box"><path stroke-width="1.5" fill="none" d="M216.931 78L216.931 45.75"/></g><g class="vf-stem" id="vf-auto33374" pointer-events="bounding-box"><path stroke-width="1.5" fill="none" d="M271.085 88L271.085 45.75"/></g><g class="vf-stem" id="vf-auto33380" pointer-events="bounding-box"><path stroke-width="1.5" fill="none" d="M325.238 78L325.238 45.75"/></g><g class="vf-beam" id="vf-auto33385"><path stroke="none" d="M216.181 45L216.181 50L325.488 50L325.488 45Z"/></g><rect x="37.08" y="25" width="49.102" height="1" stroke="none"/><rect x="119.426" y="25" width="49.102" height="1" stroke="none"/><rect x="37.08" y="25" width="1" height="10" stroke="none"/><rect x="168.528" y="25" width="1" height="10" stroke="none"/><path stroke="none" d="M97.391 23.969C99.212 23.256,99.323 22.068,99.323 21.672C99.323 21.625,99.323 21.577,99.323 21.545C99.323 21.34,99.26 18.773,95.331 18.773C91.403 18.773,91.53 21.545,91.53 21.545L91.546 21.545L91.53 21.593C91.53 22.417,92.179 23.05,93.003 23.05C93.827 23.05,94.46 22.417,94.46 21.593C94.46 20.928,93.969 20.294,93.32 20.152C93.351 20.136,93.367 20.12,93.399 20.088C93.716 19.866,94.143 19.756,94.587 19.756C95.537 19.756,96.567 20.326,96.567 21.545C96.567 22.987,95.49 23.193,95.221 23.24C94.951 23.288,93.668 23.383,93.399 23.383C93.114 23.383,93.098 23.7,93.098 23.7L93.098 24.143C93.098 24.143,93.146 24.397,93.399 24.428C93.779 24.444,94.302 24.444,95.031 24.555C96.044 24.698,96.567 25.379,96.567 26.979C96.567 28.515,95.537 28.911,94.587 28.911C93.938 28.911,93.351 28.737,93.098 28.547C93.843 28.515,94.46 27.85,94.46 27.089C94.46 26.266,93.827 25.616,93.003 25.616C92.179 25.616,91.53 26.266,91.53 27.089C91.53 27.089,91.53 27.137,91.53 27.185C91.53 27.485,91.593 28.309,92.417 29.054C93.304 29.877,94.413 29.893,94.92 29.893C97.106 29.893,99.482 29.149,99.482 26.662C99.482 24.999,98.341 24.286,97.343 23.969"/><path stroke="none" d="M103.974 23.24 A1.32 1.32 0 0 0 101.334 23.24 A1.32 1.32 0 0 0 103.974 23.24Z"/><path stroke="none" d="M103.974 27.64 A1.32 1.32 0 0 0 101.334 27.64 A1.32 1.32 0 0 0 103.974 27.64Z"/><path stroke="none" d="M113.967 25.22C113.793 25.727,113.333 27.375,112.224 27.375C110.735 27.375,110.419 26.456,109.183 26.456C109.009 26.456,108.819 26.472,108.597 26.519C108.597 26.519,109.167 25.664,111.575 24.904C113.998 24.143,114.616 22.971,114.616 21.593C114.616 20.643,114.173 18.742,110.735 18.742C107.298 18.742,106.649 20.817,106.649 21.862C106.649 22.813,107.425 23.557,108.359 23.557C109.294 23.557,110.054 22.813,110.054 21.862C110.054 21.229,109.595 20.532,109.009 20.294C108.93 20.278,108.835 20.152,108.835 20.041C108.835 19.914,108.961 19.756,109.373 19.629C109.484 19.581,109.801 19.518,110.149 19.518C110.466 19.518,110.83 19.581,111.1 19.771C111.527 20.041,111.686 20.453,111.686 21.482C111.686 24.143,108.518 24.713,107.203 26.709C107.203 26.709,106.522 27.66,106.522 28.737C106.522 29.814,107.061 29.877,107.33 29.877C107.694 29.877,108.09 29.576,108.09 29.165C108.09 29.085,108.074 28.99,108.027 28.879C107.884 28.547,107.837 28.309,107.837 28.119C107.837 28.056,107.837 27.977,107.868 27.913C107.884 27.771,108.074 27.549,108.613 27.549C109.278 27.549,109.532 28.325,109.943 28.911C110.355 29.513,110.989 29.877,111.718 29.877C112.446 29.877,113.428 29.355,113.84 28.515C114.252 27.66,114.775 25.949,114.775 25.331C114.775 25.046,114.585 24.904,114.379 24.904C114.22 24.904,114.062 24.999,113.967 25.22"/><path stroke="none" d="M264.919 33.969C266.741 33.256,266.852 32.068,266.852 31.672C266.852 31.625,266.852 31.577,266.852 31.545C266.852 31.34,266.788 28.773,262.86 28.773C258.932 28.773,259.058 31.545,259.058 31.545L259.074 31.545L259.058 31.593C259.058 32.417,259.708 33.05,260.531 33.05C261.355 33.05,261.989 32.417,261.989 31.593C261.989 30.928,261.498 30.294,260.848 30.152C260.88 30.136,260.896 30.12,260.927 30.088C261.244 29.866,261.672 29.756,262.115 29.756C263.066 29.756,264.095 30.326,264.095 31.545C264.095 32.987,263.018 33.193,262.749 33.24C262.48 33.288,261.197 33.383,260.927 33.383C260.642 33.383,260.627 33.7,260.627 33.7L260.627 34.143C260.627 34.143,260.674 34.397,260.927 34.428C261.308 34.444,261.83 34.444,262.559 34.555C263.573 34.698,264.095 35.379,264.095 36.979C264.095 38.515,263.066 38.911,262.115 38.911C261.466 38.911,260.88 38.737,260.627 38.547C261.371 38.515,261.989 37.85,261.989 37.089C261.989 36.266,261.355 35.616,260.531 35.616C259.708 35.616,259.058 36.266,259.058 37.089C259.058 37.089,259.058 37.137,259.058 37.185C259.058 37.485,259.122 38.309,259.945 39.054C260.832 39.877,261.941 39.893,262.448 39.893C264.634 39.893,267.01 39.149,267.01 36.662C267.01 34.999,265.87 34.286,264.872 33.969"/><path stroke="none" d="M271.502 33.24 A1.32 1.32 0 0 0 268.862 33.24 A1.32 1.32 0 0 0 271.502 33.24Z"/><path stroke="none" d="M271.502 37.64 A1.32 1.32 0 0 0 268.862 37.64 A1.32 1.32 0 0 0 271.502 37.64Z"/><path stroke="none" d="M278.454 37.232L278.454 38.911L276.553 38.911C276.395 38.911,276.236 39.054,276.236 39.244L276.236 39.671C276.236 39.846,276.395 39.988,276.553 39.988L283.459 39.988C283.65 39.988,283.776 39.846,283.776 39.671L283.776 39.244C283.776 39.054,283.65 38.911,283.459 38.911L281.416 38.911L281.416 37.232L283.459 37.232C283.65 37.232,283.776 37.074,283.776 36.884L283.776 36.456C283.776 36.297,283.65 36.139,283.459 36.139L281.416 36.139L281.416 32.512C281.416 32.369,281.337 32.258,281.258 32.211L280.973 32.068C280.925 32.052,280.909 32.052,280.862 32.052C280.846 32.052,280.846 32.052,280.814 32.052C280.751 32.052,280.656 32.068,280.608 32.116L278.533 34.017C278.47 34.08,278.454 34.175,278.454 34.27L278.454 36.139L275.793 36.139C275.793 36.139,278.359 33.399,281.052 29.787C281.131 29.676,281.163 29.565,281.163 29.47C281.163 29.36,281.115 29.265,281.099 29.249L280.592 28.742C280.529 28.694,280.45 28.647,280.355 28.647C280.228 28.647,277.139 28.647,276.965 28.647C276.807 28.647,276.696 28.789,276.664 28.932C276.664 28.932,276.553 30.611,275.967 32.464C275.365 34.317,274.684 35.458,274.082 36.297C274.082 36.297,274.019 36.408,274.019 36.551C274.019 36.598,274.019 36.63,274.05 36.678C274.114 36.836,274.272 37.089,274.272 37.089C274.272 37.089,274.32 37.232,274.526 37.232"/></svg>