<svg xmlns="http://www.w3.org/2000/svg" stroke-width="0.3" stroke-dasharray="none" fill="black" stroke="black" font-family="Arial, sans-serif" font-size="10pt" font-weight="normal" font-style="normal" width="600" height="280" viewBox="0 0 600 280" style="width: 600px; height: 280px; border: none;"><g class="vf-stave" id="vf-auto35127" stroke-width="1" fill="#999999" stroke="#999999"><path fill="none" d="M10 50L660 50"/><path fill="none" d="M10 60L660 60"/><path fill="none" d="M10 70L660 70"/><path fill="none" d="M10 80L660 80"/><path fill="none" d="M10 90L660 90"/></g><g class="vf-stavebarline" id="vf-auto35128"><rect x="10" y="49.5" width="1" height="41" stroke="none"/></g><g class="vf-stavebarline" id="vf-auto35129"><rect x="660" y="49.5" width="1" height="41" stroke="none"/></g><g class="vf-clef" id="vf-auto35130"><path stroke="none" d="M24.262 75.766C28.64 75.121,31.497 72.541,33.524 68.831C34.837 66.366,35.137 63.716,35.183 60.721C35.183 60.237,35.114 59.477,34.999 58.74C34.469 54.5,31.658 52.335,27.902 52.335C27.649 52.335,27.349 52.335,27.073 52.358C23.594 52.657,20.507 53.924,18.018 56.413C16.935 57.519,15.852 58.601,15.392 60.168C15.276 60.652,15.207 61.136,15.207 61.551C15.207 63.048,15.991 64.246,17.58 64.984C17.696 65.007,17.765 65.076,17.857 65.099C18.341 65.375,18.825 65.513,19.285 65.513C19.954 65.513,20.576 65.237,21.175 64.753C22.488 63.67,23.087 62.357,23.087 60.859C23.087 60.329,23.018 59.8,22.903 59.27C22.857 59.062,22.834 58.878,22.834 58.671C22.834 57.772,23.364 57.15,24.423 57.081C24.677 57.035,24.93 57.035,25.161 57.035C26.75 57.035,28.202 57.519,29.377 58.671C30.852 60.122,31.681 62.011,32.142 64.108C32.211 64.338,32.211 64.615,32.211 64.799C32.211 65.583,31.957 66.228,31.52 66.942C30.852 68.025,30.068 68.946,29.008 69.753C26.935 71.32,24.562 71.965,22.073 71.965L19.908 71.965C18.548 71.965,17.212 71.919,15.899 71.504C15.392 71.343,15 71.734,15 72.218C15 72.31,15 72.402,15.023 72.495C15.138 72.863,15.23 73.232,15.392 73.577C15.806 74.43,16.152 75.259,17.327 75.49C18.779 75.789,20.184 75.951,21.636 75.951C22.488 75.951,23.364 75.881,24.262 75.766M38.455 57.38C38.985 57.403,39.607 57.288,39.883 56.781C40.321 56.044,40.736 55.353,40.736 54.454C40.736 54.224,40.713 53.97,40.644 53.694C40.39 52.657,39.607 53.141,39.077 52.864C38.685 52.657,38.593 53.187,38.432 53.464C37.787 54.431,37.948 55.583,37.671 56.643C37.556 57.012,37.717 57.403,38.224 57.403M37.395 65.974C38.593 65.928,39.653 64.338,39.653 62.91C39.653 61.919,39.077 62.08,38.616 61.919C38.132 61.712,37.994 62.127,37.787 62.426C37.188 63.279,37.188 64.315,36.865 65.237C36.727 65.606,36.865 65.974,37.326 65.974"/></g><g class="vf-stavenote" id="vf-auto35131"><g class="vf-notehead" id="vf-auto35136" pointer-events="bounding-box"><path stroke="none" d="M81.718 84.014C82.364 83.929,82.364 83.087,82.477 82.469L82.477 80.448C82.477 78.201,82.505 75.899,82.505 73.596C82.505 72.304,82.505 70.985,82.42 69.693C82.392 68.654,82.42 67.559,81.943 66.576C81.859 66.351,81.831 65.986,81.55 65.986L81.466 65.986C81.101 66.071,80.736 66.295,80.736 66.801C80.736 67.194,80.708 67.643,80.736 68.036C80.848 68.963,80.904 69.918,80.904 70.872C80.904 71.799,80.848 72.726,80.848 73.652C80.848 74.101,80.904 74.551,80.904 75C80.932 75.337,80.932 75.674,80.932 76.011L80.932 76.46C80.932 77.415,80.904 78.398,80.904 79.38C80.904 80.504,80.988 81.627,81.269 82.722C81.382 83.171,81.185 84.07,81.718 84.014M104.519 83.817C104.884 83.845,105.081 83.424,105.193 83.087C105.474 82.16,105.615 81.234,105.558 80.251C105.39 77.415,105.334 74.607,105.334 71.771C105.334 70.479,105.334 69.131,105.362 67.84C105.362 67.475,105.25 67.166,105.109 66.829C105.081 66.548,104.969 66.464,104.744 66.464C104.66 66.464,104.548 66.464,104.435 66.548C103.902 66.801,103.817 67.194,103.817 67.559C103.817 67.727,103.817 67.84,103.874 67.952C103.817 68.682,103.817 69.468,103.817 70.226L103.817 75.562C103.958 77.415,103.902 80.223,104.182 82.975C104.239 83.284,104.182 83.733,104.519 83.817M101.992 83.171C103.087 82.16,102.975 80.953,103.003 79.802C103.059 78.678,103.059 77.555,103.059 76.376C103.059 73.989,102.947 71.602,102.807 69.187C102.807 68.907,102.722 68.57,102.61 68.261C102.526 68.092,102.526 67.755,102.245 67.755C102.217 67.755,102.161 67.812,102.133 67.812C101.852 67.896,101.515 67.924,101.487 68.373C101.431 68.935,101.29 69.468,101.318 70.03C101.431 71.49,101.487 72.95,101.431 74.438L101.431 78.005C101.431 78.875,101.487 79.774,101.515 80.672C101.515 81.458,101.599 82.329,101.992 83.171M84.33 82.329C84.526 82.413,84.695 82.188,84.779 82.048C85.116 81.627,85.144 81.178,85.172 80.7C85.257 80.082,85.257 79.437,85.257 78.847C85.257 77.274,85.144 75.73,85.144 74.158C85.144 73.736,85.144 73.315,85.172 72.866L85.172 72.164C85.172 71.041,85.172 69.861,85.116 68.682C85.116 68.401,85.06 67.896,84.583 67.896L84.498 67.896C84.105 67.952,83.796 68.205,83.796 68.766C83.768 69.974,83.656 71.237,83.656 72.445C83.656 73.821,83.796 75.253,83.768 76.629C83.768 77.05,83.768 77.499,83.74 77.948C83.74 78.145,83.74 78.37,83.684 78.566C83.684 79.689,83.937 80.728,84.049 81.88C84.049 82.076,84.133 82.273,84.33 82.329M94.439 81.795C97.443 81.992,99.97 79.661,100.195 77.218L100.195 76.544C100.195 76.011,100.139 75.477,100.111 75C99.942 72.641,98.173 70.395,95.899 69.749C95 69.496,94.214 69.384,93.344 69.384C90.929 69.384,88.654 70.423,86.632 72.08C86.239 72.417,85.959 72.866,85.959 73.428C85.959 74.747,86.127 76.039,86.548 77.303C87.054 78.707,87.7 80.082,89.16 80.728C90.732 81.43,92.389 81.739,94.439 81.795M94.495 77.471C94.13 77.471,93.765 77.471,93.344 77.415C91.94 77.387,90.311 77.19,88.795 76.572C88.458 76.46,87.98 76.348,87.98 75.927C87.98 75.562,88.373 75.365,88.654 75.197C90.283 74.354,91.94 73.793,93.596 73.793C94.691 73.793,95.815 74.017,97.022 74.607C97.752 74.972,98.117 75.253,98.089 75.562C98.089 75.842,97.836 76.179,97.359 76.629C96.517 77.303,95.562 77.471,94.495 77.471"/></g><g class="vf-notehead" id="vf-auto35137" pointer-events="bounding-box"><path stroke="none" d="M81.718 74.014C82.364 73.929,82.364 73.087,82.477 72.469L82.477 70.448C82.477 68.201,82.505 65.899,82.505 63.596C82.505 62.304,82.505 60.985,82.42 59.693C82.392 58.654,82.42 57.559,81.943 56.576C81.859 56.351,81.831 55.986,81.55 55.986L81.466 55.986C81.101 56.071,80.736 56.295,80.736 56.801C80.736 57.194,80.708 57.643,80.736 58.036C80.848 58.963,80.904 59.918,80.904 60.872C80.904 61.799,80.848 62.726,80.848 63.652C80.848 64.101,80.904 64.551,80.904 65C80.932 65.337,80.932 65.674,80.932 66.011L80.932 66.46C80.932 67.415,80.904 68.398,80.904 69.38C80.904 70.504,80.988 71.627,81.269 72.722C81.382 73.171,81.185 74.07,81.718 74.014M104.519 73.817C104.884 73.845,105.081 73.424,105.193 73.087C105.474 72.16,105.615 71.234,105.558 70.251C105.39 67.415,105.334 64.607,105.334 61.771C105.334 60.479,105.334 59.131,105.362 57.84C105.362 57.475,105.25 57.166,105.109 56.829C105.081 56.548,104.969 56.464,104.744 56.464C104.66 56.464,104.548 56.464,104.435 56.548C103.902 56.801,103.817 57.194,103.817 57.559C103.817 57.727,103.817 57.84,103.874 57.952C103.817 58.682,103.817 59.468,103.817 60.226L103.817 65.562C103.958 67.415,103.902 70.223,104.182 72.975C104.239 73.284,104.182 73.733,104.519 73.817M101.992 73.171C103.087 72.16,102.975 70.953,103.003 69.802C103.059 68.678,103.059 67.555,103.059 66.376C103.059 63.989,102.947 61.602,102.807 59.187C102.807 58.907,102.722 58.57,102.61 58.261C102.526 58.092,102.526 57.755,102.245 57.755C102.217 57.755,102.161 57.812,102.133 57.812C101.852 57.896,101.515 57.924,101.487 58.373C101.431 58.935,101.29 59.468,101.318 60.03C101.431 61.49,101.487 62.95,101.431 64.438L101.431 68.005C101.431 68.875,101.487 69.774,101.515 70.672C101.515 71.458,101.599 72.329,101.992 73.171M84.33 72.329C84.526 72.413,84.695 72.188,84.779 72.048C85.116 71.627,85.144 71.178,85.172 70.7C85.257 70.082,85.257 69.437,85.257 68.847C85.257 67.274,85.144 65.73,85.144 64.158C85.144 63.736,85.144 63.315,85.172 62.866L85.172 62.164C85.172 61.041,85.172 59.861,85.116 58.682C85.116 58.401,85.06 57.896,84.583 57.896L84.498 57.896C84.105 57.952,83.796 58.205,83.796 58.766C83.768 59.974,83.656 61.237,83.656 62.445C83.656 63.821,83.796 65.253,83.768 66.629C83.768 67.05,83.768 67.499,83.74 67.948C83.74 68.145,83.74 68.37,83.684 68.566C83.684 69.689,83.937 70.728,84.049 71.88C84.049 72.076,84.133 72.273,84.33 72.329M94.439 71.795C97.443 71.992,99.97 69.661,100.195 67.218L100.195 66.544C100.195 66.011,100.139 65.477,100.111 65C99.942 62.641,98.173 60.395,95.899 59.749C95 59.496,94.214 59.384,93.344 59.384C90.929 59.384,88.654 60.423,86.632 62.08C86.239 62.417,85.959 62.866,85.959 63.428C85.959 64.747,86.127 66.039,86.548 67.303C87.054 68.707,87.7 70.082,89.16 70.728C90.732 71.43,92.389 71.739,94.439 71.795M94.495 67.471C94.13 67.471,93.765 67.471,93.344 67.415C91.94 67.387,90.311 67.19,88.795 66.572C88.458 66.46,87.98 66.348,87.98 65.927C87.98 65.562,88.373 65.365,88.654 65.197C90.283 64.354,91.94 63.793,93.596 63.793C94.691 63.793,95.815 64.017,97.022 64.607C97.752 64.972,98.117 65.253,98.089 65.562C98.089 65.842,97.836 66.179,97.359 66.629C96.517 67.303,95.562 67.471,94.495 67.471"/></g><g class="vf-notehead" id="vf-auto35138" pointer-events="bounding-box"><path stroke="none" d="M81.718 59.014C82.364 58.929,82.364 58.087,82.477 57.469L82.477 55.448C82.477 53.201,82.505 50.899,82.505 48.596C82.505 47.304,82.505 45.985,82.42 44.693C82.392 43.654,82.42 42.559,81.943 41.576C81.859 41.351,81.831 40.986,81.55 40.986L81.466 40.986C81.101 41.071,80.736 41.295,80.736 41.801C80.736 42.194,80.708 42.643,80.736 43.036C80.848 43.963,80.904 44.918,80.904 45.872C80.904 46.799,80.848 47.726,80.848 48.652C80.848 49.101,80.904 49.551,80.904 50C80.932 50.337,80.932 50.674,80.932 51.011L80.932 51.46C80.932 52.415,80.904 53.398,80.904 54.38C80.904 55.504,80.988 56.627,81.269 57.722C81.382 58.171,81.185 59.07,81.718 59.014M104.519 58.817C104.884 58.845,105.081 58.424,105.193 58.087C105.474 57.16,105.615 56.234,105.558 55.251C105.39 52.415,105.334 49.607,105.334 46.771C105.334 45.479,105.334 44.131,105.362 42.84C105.362 42.475,105.25 42.166,105.109 41.829C105.081 41.548,104.969 41.464,104.744 41.464C104.66 41.464,104.548 41.464,104.435 41.548C103.902 41.801,103.817 42.194,103.817 42.559C103.817 42.727,103.817 42.84,103.874 42.952C103.817 43.682,103.817 44.468,103.817 45.226L103.817 50.562C103.958 52.415,103.902 55.223,104.182 57.975C104.239 58.284,104.182 58.733,104.519 58.817M101.992 58.171C103.087 57.16,102.975 55.953,103.003 54.802C103.059 53.678,103.059 52.555,103.059 51.376C103.059 48.989,102.947 46.602,102.807 44.187C102.807 43.907,102.722 43.57,102.61 43.261C102.526 43.092,102.526 42.755,102.245 42.755C102.217 42.755,102.161 42.812,102.133 42.812C101.852 42.896,101.515 42.924,101.487 43.373C101.431 43.935,101.29 44.468,101.318 45.03C101.431 46.49,101.487 47.95,101.431 49.438L101.431 53.005C101.431 53.875,101.487 54.774,101.515 55.672C101.515 56.458,101.599 57.329,101.992 58.171M84.33 57.329C84.526 57.413,84.695 57.188,84.779 57.048C85.116 56.627,85.144 56.178,85.172 55.7C85.257 55.082,85.257 54.437,85.257 53.847C85.257 52.274,85.144 50.73,85.144 49.158C85.144 48.736,85.144 48.315,85.172 47.866L85.172 47.164C85.172 46.041,85.172 44.861,85.116 43.682C85.116 43.401,85.06 42.896,84.583 42.896L84.498 42.896C84.105 42.952,83.796 43.205,83.796 43.766C83.768 44.974,83.656 46.237,83.656 47.445C83.656 48.821,83.796 50.253,83.768 51.629C83.768 52.05,83.768 52.499,83.74 52.948C83.74 53.145,83.74 53.37,83.684 53.566C83.684 54.689,83.937 55.728,84.049 56.88C84.049 57.076,84.133 57.273,84.33 57.329M94.439 56.795C97.443 56.992,99.97 54.661,100.195 52.218L100.195 51.544C100.195 51.011,100.139 50.477,100.111 50C99.942 47.641,98.173 45.395,95.899 44.749C95 44.496,94.214 44.384,93.344 44.384C90.929 44.384,88.654 45.423,86.632 47.08C86.239 47.417,85.959 47.866,85.959 48.428C85.959 49.747,86.127 51.039,86.548 52.303C87.054 53.707,87.7 55.082,89.16 55.728C90.732 56.43,92.389 56.739,94.439 56.795M94.495 52.471C94.13 52.471,93.765 52.471,93.344 52.415C91.94 52.387,90.311 52.19,88.795 51.572C88.458 51.46,87.98 51.348,87.98 50.927C87.98 50.562,88.373 50.365,88.654 50.197C90.283 49.354,91.94 48.793,93.596 48.793C94.691 48.793,95.815 49.017,97.022 49.607C97.752 49.972,98.117 50.253,98.089 50.562C98.089 50.842,97.836 51.179,97.359 51.629C96.517 52.303,95.562 52.471,94.495 52.471"/></g></g><g class="vf-stavenote" id="vf-auto35139"><path stroke-width="1.4" fill="none" stroke="#444" d="M102.736 100L124.106 100"/><path stroke-width="1.4" fill="none" stroke="#444" d="M102.736 110L124.106 110"/><g class="vf-notehead" id="vf-auto35144" pointer-events="bounding-box"><path stroke="none" d="M122.095 108.877C121.983 114.24,117.041 117.273,112.998 117.525C111.79 117.61,110.751 116.964,109.6 116.543L108.477 116.065C107.353 115.532,106.736 114.661,106.736 113.566C106.736 113.229,106.764 112.92,106.904 112.555C107.662 110.253,108.673 108.006,110.161 106.041C111.509 104.272,113.728 103.317,115.918 103.317C117.883 103.317,119.849 104.047,121.169 105.563C122.011 106.49,122.152 107.641,122.095 108.877M113.7 113.005C115.019 112.864,116.311 112.471,117.518 111.769C118.024 111.488,118.389 111.123,118.698 110.646C118.866 110.393,118.95 110.168,118.95 109.916C118.95 109.607,118.754 109.326,118.333 109.101C117.294 108.624,116.367 107.95,115.188 107.95C114.907 107.95,114.654 107.978,114.373 108.062C112.548 108.512,111.144 109.438,110.133 110.983C110.021 111.179,109.853 111.404,109.853 111.629C109.853 111.825,109.965 111.994,110.246 112.106C111.341 112.499,112.408 113.005,113.7 113.005"/></g><g class="vf-notehead" id="vf-auto35145" pointer-events="bounding-box"><path stroke="none" d="M122.095 98.877C121.983 104.24,117.041 107.273,112.998 107.525C111.79 107.61,110.751 106.964,109.6 106.543L108.477 106.065C107.353 105.532,106.736 104.661,106.736 103.566C106.736 103.229,106.764 102.92,106.904 102.555C107.662 100.253,108.673 98.006,110.161 96.041C111.509 94.272,113.728 93.317,115.918 93.317C117.883 93.317,119.849 94.047,121.169 95.563C122.011 96.49,122.152 97.641,122.095 98.877M113.7 103.005C115.019 102.864,116.311 102.471,117.518 101.769C118.024 101.488,118.389 101.123,118.698 100.646C118.866 100.393,118.95 100.168,118.95 99.916C118.95 99.607,118.754 99.326,118.333 99.101C117.294 98.624,116.367 97.95,115.188 97.95C114.907 97.95,114.654 97.978,114.373 98.062C112.548 98.512,111.144 99.438,110.133 100.983C110.021 101.179,109.853 101.404,109.853 101.629C109.853 101.825,109.965 101.994,110.246 102.106C111.341 102.499,112.408 103.005,113.7 103.005"/></g><g class="vf-notehead" id="vf-auto35146" pointer-events="bounding-box"><path stroke="none" d="M122.095 83.877C121.983 89.24,117.041 92.273,112.998 92.525C111.79 92.61,110.751 91.964,109.6 91.543L108.477 91.065C107.353 90.532,106.736 89.661,106.736 88.566C106.736 88.229,106.764 87.92,106.904 87.555C107.662 85.253,108.673 83.006,110.161 81.041C111.509 79.272,113.728 78.317,115.918 78.317C117.883 78.317,119.849 79.047,121.169 80.563C122.011 81.49,122.152 82.641,122.095 83.877M113.7 88.005C115.019 87.864,116.311 87.471,117.518 86.769C118.024 86.488,118.389 86.123,118.698 85.646C118.866 85.393,118.95 85.168,118.95 84.916C118.95 84.607,118.754 84.326,118.333 84.101C117.294 83.624,116.367 82.95,115.188 82.95C114.907 82.95,114.654 82.978,114.373 83.062C112.548 83.512,111.144 84.438,110.133 85.983C110.021 86.179,109.853 86.404,109.853 86.629C109.853 86.825,109.965 86.994,110.246 87.106C111.341 87.499,112.408 88.005,113.7 88.005"/></g></g><g class="vf-stavenote" id="vf-auto35147"><g class="vf-stem" id="vf-auto35148" pointer-events="bounding-box"><path stroke-width="1.5" fill="none" d="M143.492 73.2L143.492 15"/></g><g class="vf-notehead" id="vf-auto35152" pointer-events="bounding-box"><path stroke="none" d="M144.939 73.428C144.883 78.229,140.755 82.048,136.15 82.048C135.476 82.048,134.774 81.964,134.1 81.795C132.668 81.43,132.022 80.391,131.713 78.959C131.545 78.229,131.461 77.555,131.461 76.909C131.461 72.332,135.027 69.384,139.435 68.008C139.576 67.952,139.8 67.924,139.997 67.924C141.963 67.924,144.967 70.226,144.967 72.81C144.967 73.006,144.967 73.231,144.939 73.428M137.442 77.864C139.155 77.274,141.036 76.348,142.665 74.832C142.693 74.803,142.749 74.635,142.749 74.523C142.749 74.382,142.693 74.27,142.665 74.242C141.935 73.512,141.373 72.529,140.194 72.36C140.025 72.332,139.885 72.332,139.66 72.332C137.919 72.332,136.543 73.456,135.111 74.242C134.213 74.747,133.202 75.814,133.398 76.741C133.595 77.752,135.055 77.555,135.982 77.752C136.347 77.836,136.684 77.836,137.442 77.864"/></g><g class="vf-notehead" id="vf-auto35153" pointer-events="bounding-box"><path stroke="none" d="M144.939 63.428C144.883 68.229,140.755 72.048,136.15 72.048C135.476 72.048,134.774 71.964,134.1 71.795C132.668 71.43,132.022 70.391,131.713 68.959C131.545 68.229,131.461 67.555,131.461 66.909C131.461 62.332,135.027 59.384,139.435 58.008C139.576 57.952,139.8 57.924,139.997 57.924C141.963 57.924,144.967 60.226,144.967 62.81C144.967 63.006,144.967 63.231,144.939 63.428M137.442 67.864C139.155 67.274,141.036 66.348,142.665 64.832C142.693 64.803,142.749 64.635,142.749 64.523C142.749 64.382,142.693 64.27,142.665 64.242C141.935 63.512,141.373 62.529,140.194 62.36C140.025 62.332,139.885 62.332,139.66 62.332C137.919 62.332,136.543 63.456,135.111 64.242C134.213 64.747,133.202 65.814,133.398 66.741C133.595 67.752,135.055 67.555,135.982 67.752C136.347 67.836,136.684 67.836,137.442 67.864"/></g><g class="vf-notehead" id="vf-auto35154" pointer-events="bounding-box"><path stroke="none" d="M144.939 48.428C144.883 53.229,140.755 57.048,136.15 57.048C135.476 57.048,134.774 56.964,134.1 56.795C132.668 56.43,132.022 55.391,131.713 53.959C131.545 53.229,131.461 52.555,131.461 51.909C131.461 47.332,135.027 44.384,139.435 43.008C139.576 42.952,139.8 42.924,139.997 42.924C141.963 42.924,144.967 45.226,144.967 47.81C144.967 48.006,144.967 48.231,144.939 48.428M137.442 52.864C139.155 52.274,141.036 51.348,142.665 49.832C142.693 49.803,142.749 49.635,142.749 49.523C142.749 49.382,142.693 49.27,142.665 49.242C141.935 48.512,141.373 47.529,140.194 47.36C140.025 47.332,139.885 47.332,139.66 47.332C137.919 47.332,136.543 48.456,135.111 49.242C134.213 49.747,133.202 50.814,133.398 51.741C133.595 52.752,135.055 52.555,135.982 52.752C136.347 52.836,136.684 52.836,137.442 52.864"/></g></g><g class="vf-stavenote" id="vf-auto35155"><path stroke-width="1.4" fill="none" stroke="#444" d="M152.736 100L172.244 100"/><path stroke-width="1.4" fill="none" stroke="#444" d="M152.736 110L172.244 110"/><g class="vf-stem" id="vf-auto35156" pointer-events="bounding-box"><path stroke-width="1.5" fill="none" d="M168.494 108L168.494 50"/></g><g class="vf-notehead" id="vf-auto35160" pointer-events="bounding-box"><path stroke="none" d="M159.381 116.543C159.661 116.599,159.914 116.627,160.195 116.627C164.07 116.627,169.854 111.348,169.742 107.08C169.63 106.041,169.658 104.609,167.552 103.766C166.962 103.485,166.316 103.373,165.614 103.373C161.29 103.373,156.601 108.343,156.264 111.657C156.264 111.909,156.236 112.134,156.236 112.387C156.236 114.409,157.134 116.037,159.381 116.543"/></g><g class="vf-notehead" id="vf-auto35161" pointer-events="bounding-box"><path stroke="none" d="M159.381 106.543C159.661 106.599,159.914 106.627,160.195 106.627C164.07 106.627,169.854 101.348,169.742 97.08C169.63 96.041,169.658 94.609,167.552 93.766C166.962 93.485,166.316 93.373,165.614 93.373C161.29 93.373,156.601 98.343,156.264 101.657C156.264 101.909,156.236 102.134,156.236 102.387C156.236 104.409,157.134 106.037,159.381 106.543"/></g><g class="vf-notehead" id="vf-auto35162" pointer-events="bounding-box"><path stroke="none" d="M159.381 91.543C159.661 91.599,159.914 91.627,160.195 91.627C164.07 91.627,169.854 86.348,169.742 82.08C169.63 81.041,169.658 79.609,167.552 78.766C166.962 78.485,166.316 78.373,165.614 78.373C161.29 78.373,156.601 83.343,156.264 86.657C156.264 86.909,156.236 87.134,156.236 87.387C156.236 89.409,157.134 91.037,159.381 91.543"/></g></g><g class="vf-stavenote" id="vf-auto35163"><g class="vf-stem" id="vf-auto35164" pointer-events="bounding-box"><path stroke-width="1.5" fill="none" d="M193.494 73L193.494 18"/></g><g class="vf-notehead" id="vf-auto35169" pointer-events="bounding-box"><path stroke="none" d="M184.381 81.543C184.661 81.599,184.914 81.627,185.195 81.627C189.07 81.627,194.854 76.348,194.742 72.08C194.63 71.041,194.658 69.609,192.552 68.766C191.962 68.485,191.316 68.373,190.614 68.373C186.29 68.373,181.601 73.343,181.264 76.657C181.264 76.909,181.236 77.134,181.236 77.387C181.236 79.409,182.134 81.037,184.381 81.543"/></g><g class="vf-notehead" id="vf-auto35170" pointer-events="bounding-box"><path stroke="none" d="M184.381 71.543C184.661 71.599,184.914 71.627,185.195 71.627C189.07 71.627,194.854 66.348,194.742 62.08C194.63 61.041,194.658 59.609,192.552 58.766C191.962 58.485,191.316 58.373,190.614 58.373C186.29 58.373,181.601 63.343,181.264 66.657C181.264 66.909,181.236 67.134,181.236 67.387C181.236 69.409,182.134 71.037,184.381 71.543"/></g><g class="vf-notehead" id="vf-auto35171" pointer-events="bounding-box"><path stroke="none" d="M184.381 56.543C184.661 56.599,184.914 56.627,185.195 56.627C189.07 56.627,194.854 51.348,194.742 47.08C194.63 46.041,194.658 44.609,192.552 43.766C191.962 43.485,191.316 43.373,190.614 43.373C186.29 43.373,181.601 48.343,181.264 51.657C181.264 51.909,181.236 52.134,181.236 52.387C181.236 54.409,182.134 56.037,184.381 56.543"/></g><path stroke="none" d="M200.165 45.882C201.176 44.73,202.159 43.523,202.58 42.063C203.085 40.49,203.282 38.918,203.282 37.345C203.282 36.278,203.198 35.239,203.029 34.2C202.552 30.747,201.457 27.602,199.266 24.85C198.312 23.642,197.385 22.379,196.402 21.171C195.279 19.711,194.577 18.391,194.549 16.51C194.549 16.145,194.465 15.555,194.465 15.106C194.465 14.376,194.184 13.674,193.903 13L193.707 13C192.892 13.365,192.724 14.011,192.724 14.769L192.724 17.044C192.724 20.16,193.538 22.996,195.419 25.496C196.206 26.422,196.936 27.433,197.694 28.36C199.631 30.662,201.092 33.246,201.372 36.334C201.429 36.896,201.625 37.458,201.625 37.991C201.625 38.272,201.569 38.553,201.457 38.806C201.064 39.676,200.642 40.631,199.912 41.22C199.266 41.754,199.126 42.344,199.126 42.989C199.126 43.326,199.154 43.691,199.182 44.056C199.238 44.59,199.435 45.095,199.463 45.629C199.519 45.966,199.631 46.106,199.772 46.106C199.884 46.106,199.996 46.022,200.165 45.882"/></g><g class="vf-stavenote" id="vf-auto35173"><path stroke-width="1.4" fill="none" stroke="#444" d="M202.736 100L222.244 100"/><path stroke-width="1.4" fill="none" stroke="#444" d="M202.736 110L222.244 110"/><g class="vf-stem" id="vf-auto35174" pointer-events="bounding-box"><path stroke-width="1.5" fill="none" d="M218.494 108L218.494 53"/></g><g class="vf-notehead" id="vf-auto35179" pointer-events="bounding-box"><path stroke="none" d="M209.381 116.543C209.661 116.599,209.914 116.627,210.195 116.627C214.07 116.627,219.854 111.348,219.742 107.08C219.63 106.041,219.658 104.609,217.552 103.766C216.962 103.485,216.316 103.373,215.614 103.373C211.29 103.373,206.601 108.343,206.264 111.657C206.264 111.909,206.236 112.134,206.236 112.387C206.236 114.409,207.134 116.037,209.381 116.543"/></g><g class="vf-notehead" id="vf-auto35180" pointer-events="bounding-box"><path stroke="none" d="M209.381 106.543C209.661 106.599,209.914 106.627,210.195 106.627C214.07 106.627,219.854 101.348,219.742 97.08C219.63 96.041,219.658 94.609,217.552 93.766C216.962 93.485,216.316 93.373,215.614 93.373C211.29 93.373,206.601 98.343,206.264 101.657C206.264 101.909,206.236 102.134,206.236 102.387C206.236 104.409,207.134 106.037,209.381 106.543"/></g><g class="vf-notehead" id="vf-auto35181" pointer-events="bounding-box"><path stroke="none" d="M209.381 91.543C209.661 91.599,209.914 91.627,210.195 91.627C214.07 91.627,219.854 86.348,219.742 82.08C219.63 81.041,219.658 79.609,217.552 78.766C216.962 78.485,216.316 78.373,215.614 78.373C211.29 78.373,206.601 83.343,206.264 86.657C206.264 86.909,206.236 87.134,206.236 87.387C206.236 89.409,207.134 91.037,209.381 91.543"/></g><path stroke="none" d="M229.397 81.106C229.622 81.191,229.79 80.966,229.959 80.797C230.155 80.545,230.267 80.264,230.408 79.955C230.773 78.944,230.857 77.877,230.801 76.642C230.773 76.192,230.773 75.631,230.689 75.013C230.857 73.721,230.998 72.43,230.969 71.054C230.998 70.211,230.857 69.228,230.801 68.246C230.632 66.28,230.127 64.427,229.397 62.602C228.133 59.457,225.718 57.182,223.36 54.88C222.237 53.784,221.057 52.717,220.439 51.201C220.102 50.387,220.131 49.488,219.85 48.674C219.766 48.449,219.766 48,219.4 48C219.372 48,219.316 48.028,219.232 48.028C218.867 48.168,218.502 48.281,218.502 48.899C218.502 49.207,218.558 49.544,218.558 49.909C218.305 49.938,218.109 50.022,218.025 50.218C217.912 50.499,217.772 50.78,217.772 51.061C217.744 51.65,217.744 52.156,217.744 52.774C217.744 55.076,218.081 57.351,218.727 59.513C219.878 63.641,222.124 67.122,224.988 70.267C227.572 73.16,229.257 76.473,229.228 80.517C229.228 80.713,229.116 80.994,229.397 81.106M229.341 70.913C228.751 69.594,227.965 68.302,227.038 67.122C225.213 64.736,223.051 62.63,221.815 59.794C221.254 58.502,220.608 57.266,220.159 55.89C220.692 56.761,221.338 57.631,222.124 58.39C223.641 59.934,225.297 61.422,226.673 63.135C228.498 65.438,229.537 68.021,229.341 70.913"/></g><g class="vf-stavenote" id="vf-auto35183"><g class="vf-stem" id="vf-auto35184" pointer-events="bounding-box"><path stroke-width="1.5" fill="none" d="M243.494 73L243.494 9"/></g><g class="vf-notehead" id="vf-auto35189" pointer-events="bounding-box"><path stroke="none" d="M234.381 81.543C234.661 81.599,234.914 81.627,235.195 81.627C239.07 81.627,244.854 76.348,244.742 72.08C244.63 71.041,244.658 69.609,242.552 68.766C241.962 68.485,241.316 68.373,240.614 68.373C236.29 68.373,231.601 73.343,231.264 76.657C231.264 76.909,231.236 77.134,231.236 77.387C231.236 79.409,232.134 81.037,234.381 81.543"/></g><g class="vf-notehead" id="vf-auto35190" pointer-events="bounding-box"><path stroke="none" d="M234.381 71.543C234.661 71.599,234.914 71.627,235.195 71.627C239.07 71.627,244.854 66.348,244.742 62.08C244.63 61.041,244.658 59.609,242.552 58.766C241.962 58.485,241.316 58.373,240.614 58.373C236.29 58.373,231.601 63.343,231.264 66.657C231.264 66.909,231.236 67.134,231.236 67.387C231.236 69.409,232.134 71.037,234.381 71.543"/></g><g class="vf-notehead" id="vf-auto35191" pointer-events="bounding-box"><path stroke="none" d="M234.381 56.543C234.661 56.599,234.914 56.627,235.195 56.627C239.07 56.627,244.854 51.348,244.742 47.08C244.63 46.041,244.658 44.609,242.552 43.766C241.962 43.485,241.316 43.373,240.614 43.373C236.29 43.373,231.601 48.343,231.264 51.657C231.264 51.909,231.236 52.134,231.236 52.387C231.236 54.409,232.134 56.037,234.381 56.543"/></g><path stroke="none" d="M251.714 47.342C252.107 47.454,252.303 46.977,252.5 46.64C252.584 46.528,252.64 46.359,252.724 46.247C253.23 44.506,253.511 42.765,253.483 41.052C253.483 39.03,253.09 37.008,252.219 34.987C252.022 34.594,251.91 34.144,251.91 33.667C251.91 33.414,251.91 33.133,251.994 32.881C252.191 32.038,252.303 31.224,252.303 30.438C252.303 30.073,252.275 29.651,252.219 29.258C252.135 28.528,251.854 27.77,251.854 27.04C251.854 26.787,251.854 26.591,251.938 26.338C252.275 25.299,252.416 24.288,252.388 23.39C252.416 18.953,250.731 14.572,246.884 12.242C245.396 11.343,244.048 10.136,244.132 8.058C244.132 7.861,243.992 7.609,243.907 7.468C243.767 7.3,243.767 6.935,243.57 6.963L243.486 6.963C243.262 7.047,242.896 7.131,242.812 7.552C242.728 8.226,242.616 8.928,242.644 9.63C242.756 11.175,242.644 12.635,242.644 14.207C242.644 14.685,242.672 15.218,242.644 15.752C242.644 17.409,242.812 19.065,242.756 20.75C242.756 22.463,242.84 24.148,242.84 25.804C242.84 27.686,243.262 29.427,244.497 30.915C245.283 31.842,246.21 32.572,247.08 33.33C249.551 35.492,250.927 38.244,251.573 41.389C251.657 41.67,251.657 41.979,251.657 42.316C251.657 43.326,251.405 44.337,251.405 45.348C251.405 45.713,251.461 46.106,251.545 46.471C251.629 46.752,251.377 47.258,251.714 47.342M250.647 23.558C249.636 21.115,247.502 19.88,246.041 18.054C245.564 17.437,245.227 16.791,245.199 15.948C247.726 17.044,250.731 20.554,250.731 22.94C250.731 23.193,250.703 23.39,250.647 23.558M250.366 31.449C248.99 29.539,247.221 28.36,245.761 26.815C244.834 25.804,244.497 24.737,244.469 23.558C244.469 23.109,244.553 22.575,244.637 22.07C247.249 24.737,250.085 27.152,250.366 31.449"/></g><g class="vf-stavenote" id="vf-auto35193"><path stroke-width="1.4" fill="none" stroke="#444" d="M252.736 100L272.242 100"/><path stroke-width="1.4" fill="none" stroke="#444" d="M252.736 110L272.242 110"/><g class="vf-stem" id="vf-auto35194" pointer-events="bounding-box"><path stroke-width="1.5" fill="none" d="M256.486 86.8L256.486 145"/></g><g class="vf-notehead" id="vf-auto35200" pointer-events="bounding-box"><path stroke="none" d="M269.214 108.428C269.158 113.229,265.03 117.048,260.425 117.048C259.751 117.048,259.049 116.964,258.375 116.795C256.943 116.43,256.297 115.391,255.988 113.959C255.82 113.229,255.736 112.555,255.736 111.909C255.736 107.332,259.302 104.384,263.71 103.008C263.851 102.952,264.075 102.924,264.272 102.924C266.238 102.924,269.242 105.226,269.242 107.81C269.242 108.006,269.242 108.231,269.214 108.428M261.717 112.864C263.43 112.274,265.311 111.348,266.94 109.832C266.968 109.803,267.024 109.635,267.024 109.523C267.024 109.382,266.968 109.27,266.94 109.242C266.21 108.512,265.648 107.529,264.469 107.36C264.3 107.332,264.16 107.332,263.935 107.332C262.194 107.332,260.818 108.456,259.386 109.242C258.488 109.747,257.477 110.814,257.673 111.741C257.87 112.752,259.33 112.555,260.257 112.752C260.622 112.836,260.959 112.836,261.717 112.864"/></g><g class="vf-notehead" id="vf-auto35199" pointer-events="bounding-box"><path stroke="none" d="M269.214 98.428C269.158 103.229,265.03 107.048,260.425 107.048C259.751 107.048,259.049 106.964,258.375 106.795C256.943 106.43,256.297 105.391,255.988 103.959C255.82 103.229,255.736 102.555,255.736 101.909C255.736 97.332,259.302 94.384,263.71 93.008C263.851 92.952,264.075 92.924,264.272 92.924C266.238 92.924,269.242 95.226,269.242 97.81C269.242 98.006,269.242 98.231,269.214 98.428M261.717 102.864C263.43 102.274,265.311 101.348,266.94 99.832C266.968 99.803,267.024 99.635,267.024 99.523C267.024 99.382,266.968 99.27,266.94 99.242C266.21 98.512,265.648 97.529,264.469 97.36C264.3 97.332,264.16 97.332,263.935 97.332C262.194 97.332,260.818 98.456,259.386 99.242C258.488 99.747,257.477 100.814,257.673 101.741C257.87 102.752,259.33 102.555,260.257 102.752C260.622 102.836,260.959 102.836,261.717 102.864"/></g><g class="vf-notehead" id="vf-auto35198" pointer-events="bounding-box"><path stroke="none" d="M269.214 83.428C269.158 88.229,265.03 92.048,260.425 92.048C259.751 92.048,259.049 91.964,258.375 91.795C256.943 91.43,256.297 90.391,255.988 88.959C255.82 88.229,255.736 87.555,255.736 86.909C255.736 82.332,259.302 79.384,263.71 78.008C263.851 77.952,264.075 77.924,264.272 77.924C266.238 77.924,269.242 80.226,269.242 82.81C269.242 83.006,269.242 83.231,269.214 83.428M261.717 87.864C263.43 87.274,265.311 86.348,266.94 84.832C266.968 84.803,267.024 84.635,267.024 84.523C267.024 84.382,266.968 84.27,266.94 84.242C266.21 83.512,265.648 82.529,264.469 82.36C264.3 82.332,264.16 82.332,263.935 82.332C262.194 82.332,260.818 83.456,259.386 84.242C258.488 84.747,257.477 85.814,257.673 86.741C257.87 87.752,259.33 87.555,260.257 87.752C260.622 87.836,260.959 87.836,261.717 87.864"/></g></g><g class="vf-stavenote" id="vf-auto35201"><path stroke-width="1.4" fill="none" stroke="#444" d="M277.736 100L297.244 100"/><path stroke-width="1.4" fill="none" stroke="#444" d="M277.736 110L297.244 110"/><g class="vf-stem" id="vf-auto35202" pointer-events="bounding-box"><path stroke-width="1.5" fill="none" d="M281.486 87L281.486 145"/></g><g class="vf-notehead" id="vf-auto35208" pointer-events="bounding-box"><path stroke="none" d="M283.881 116.543C284.161 116.599,284.414 116.627,284.695 116.627C288.57 116.627,294.354 111.348,294.242 107.08C294.13 106.041,294.158 104.609,292.052 103.766C291.462 103.485,290.816 103.373,290.114 103.373C285.79 103.373,281.101 108.343,280.764 111.657C280.764 111.909,280.736 112.134,280.736 112.387C280.736 114.409,281.634 116.037,283.881 116.543"/></g><g class="vf-notehead" id="vf-auto35207" pointer-events="bounding-box"><path stroke="none" d="M283.881 106.543C284.161 106.599,284.414 106.627,284.695 106.627C288.57 106.627,294.354 101.348,294.242 97.08C294.13 96.041,294.158 94.609,292.052 93.766C291.462 93.485,290.816 93.373,290.114 93.373C285.79 93.373,281.101 98.343,280.764 101.657C280.764 101.909,280.736 102.134,280.736 102.387C280.736 104.409,281.634 106.037,283.881 106.543"/></g><g class="vf-notehead" id="vf-auto35206" pointer-events="bounding-box"><path stroke="none" d="M283.881 91.543C284.161 91.599,284.414 91.627,284.695 91.627C288.57 91.627,294.354 86.348,294.242 82.08C294.13 81.041,294.158 79.609,292.052 78.766C291.462 78.485,290.816 78.373,290.114 78.373C285.79 78.373,281.101 83.343,280.764 86.657C280.764 86.909,280.736 87.134,280.736 87.387C280.736 89.409,281.634 91.037,283.881 91.543"/></g></g><g class="vf-stavenote" id="vf-auto35209"><path stroke-width="1.4" fill="none" stroke="#444" d="M302.736 100L322.244 100"/><path stroke-width="1.4" fill="none" stroke="#444" d="M302.736 110L322.244 110"/><g class="vf-stem" id="vf-auto35210" pointer-events="bounding-box"><path stroke-width="1.5" fill="none" d="M306.486 87L306.486 142"/></g><g class="vf-notehead" id="vf-auto35217" pointer-events="bounding-box"><path stroke="none" d="M308.881 116.543C309.161 116.599,309.414 116.627,309.695 116.627C313.57 116.627,319.354 111.348,319.242 107.08C319.13 106.041,319.158 104.609,317.052 103.766C316.462 103.485,315.816 103.373,315.114 103.373C310.79 103.373,306.101 108.343,305.764 111.657C305.764 111.909,305.736 112.134,305.736 112.387C305.736 114.409,306.634 116.037,308.881 116.543"/></g><g class="vf-notehead" id="vf-auto35216" pointer-events="bounding-box"><path stroke="none" d="M308.881 106.543C309.161 106.599,309.414 106.627,309.695 106.627C313.57 106.627,319.354 101.348,319.242 97.08C319.13 96.041,319.158 94.609,317.052 93.766C316.462 93.485,315.816 93.373,315.114 93.373C310.79 93.373,306.101 98.343,305.764 101.657C305.764 101.909,305.736 102.134,305.736 102.387C305.736 104.409,306.634 106.037,308.881 106.543"/></g><g class="vf-notehead" id="vf-auto35215" pointer-events="bounding-box"><path stroke="none" d="M308.881 91.543C309.161 91.599,309.414 91.627,309.695 91.627C313.57 91.627,319.354 86.348,319.242 82.08C319.13 81.041,319.158 79.609,317.052 78.766C316.462 78.485,315.816 78.373,315.114 78.373C310.79 78.373,306.101 83.343,305.764 86.657C305.764 86.909,305.736 87.134,305.736 87.387C305.736 89.409,306.634 91.037,308.881 91.543"/></g><path stroke="none" d="M313.157 114.118C312.988 113.978,312.876 113.894,312.764 113.894C312.623 113.894,312.511 114.034,312.455 114.371C312.427 114.905,312.23 115.41,312.174 115.944C312.146 116.309,312.118 116.674,312.118 117.011C312.118 117.656,312.258 118.246,312.904 118.78C313.634 119.369,314.055 120.324,314.449 121.194C314.561 121.447,314.617 121.728,314.617 122.009C314.617 122.542,314.42 123.104,314.364 123.666C314.084 126.754,312.623 129.338,310.686 131.64C309.928 132.567,309.198 133.578,308.411 134.504C306.53 137.004,305.716 139.84,305.716 142.956L305.716 145.231C305.716 145.989,305.884 146.635,306.698 147L306.895 147C307.176 146.326,307.457 145.624,307.457 144.894C307.457 144.445,307.372 144.08,307.372 143.715C307.4 141.861,308.271 140.289,309.394 138.829C310.377 137.621,311.304 136.358,312.258 135.15C314.449 132.398,315.544 129.253,316.021 125.8C316.19 124.761,316.274 123.722,316.274 122.655C316.274 121.082,316.077 119.51,315.572 117.937C315.151 116.477,314.168 115.27,313.157 114.118"/></g><g class="vf-stavenote" id="vf-auto35219"><path stroke-width="1.4" fill="none" stroke="#444" d="M327.736 100L347.244 100"/><path stroke-width="1.4" fill="none" stroke="#444" d="M327.736 110L347.244 110"/><g class="vf-stem" id="vf-auto35220" pointer-events="bounding-box"><path stroke-width="1.5" fill="none" d="M331.486 87L331.486 142"/></g><g class="vf-notehead" id="vf-auto35227" pointer-events="bounding-box"><path stroke="none" d="M333.881 116.543C334.161 116.599,334.414 116.627,334.695 116.627C338.57 116.627,344.354 111.348,344.242 107.08C344.13 106.041,344.158 104.609,342.052 103.766C341.462 103.485,340.816 103.373,340.114 103.373C335.79 103.373,331.101 108.343,330.764 111.657C330.764 111.909,330.736 112.134,330.736 112.387C330.736 114.409,331.634 116.037,333.881 116.543"/></g><g class="vf-notehead" id="vf-auto35226" pointer-events="bounding-box"><path stroke="none" d="M333.881 106.543C334.161 106.599,334.414 106.627,334.695 106.627C338.57 106.627,344.354 101.348,344.242 97.08C344.13 96.041,344.158 94.609,342.052 93.766C341.462 93.485,340.816 93.373,340.114 93.373C335.79 93.373,331.101 98.343,330.764 101.657C330.764 101.909,330.736 102.134,330.736 102.387C330.736 104.409,331.634 106.037,333.881 106.543"/></g><g class="vf-notehead" id="vf-auto35225" pointer-events="bounding-box"><path stroke="none" d="M333.881 91.543C334.161 91.599,334.414 91.627,334.695 91.627C338.57 91.627,344.354 86.348,344.242 82.08C344.13 81.041,344.158 79.609,342.052 78.766C341.462 78.485,340.816 78.373,340.114 78.373C335.79 78.373,331.101 83.343,330.764 86.657C330.764 86.909,330.736 87.134,330.736 87.387C330.736 89.409,331.634 91.037,333.881 91.543"/></g><path stroke="none" d="M332.392 147C332.757 147,332.757 146.551,332.842 146.326C333.122 145.512,333.094 144.613,333.431 143.799C334.049 142.283,335.228 141.216,336.352 140.12C338.71 137.818,341.125 135.543,342.389 132.398C343.119 130.573,343.624 128.72,343.793 126.754C343.849 125.772,343.989 124.789,343.961 123.946C343.989 122.57,343.849 121.279,343.681 119.987C343.765 119.369,343.765 118.808,343.793 118.358C343.849 117.123,343.765 116.056,343.4 115.045C343.259 114.736,343.147 114.455,342.95 114.203C342.838 114.09,342.67 113.894,342.473 113.894L342.389 113.894C342.22 113.978,342.192 114.034,342.192 114.174C342.192 114.287,342.22 114.399,342.22 114.483C342.248 118.527,340.564 121.84,337.98 124.733C335.116 127.878,332.87 131.359,331.718 135.487C331.073 137.649,330.736 139.924,330.736 142.226L330.736 144.529C330.736 145.006,330.904 146.354,331.55 146.803C331.662 146.888,332.364 147,332.392 147M333.151 139.11C333.6 137.734,334.246 136.498,334.807 135.206C336.043 132.37,338.205 130.264,340.03 127.878C340.957 126.698,341.743 125.406,342.333 124.087C342.333 124.311,342.389 124.564,342.389 124.789C342.389 127.4,341.322 129.787,339.665 131.865C338.289 133.578,336.632 135.066,335.116 136.61C334.33 137.369,333.684 138.239,333.151 139.11"/></g><g class="vf-stavenote" id="vf-auto35229"><path stroke-width="1.4" fill="none" stroke="#444" d="M352.736 100L372.244 100"/><path stroke-width="1.4" fill="none" stroke="#444" d="M352.736 110L372.244 110"/><g class="vf-stem" id="vf-auto35230" pointer-events="bounding-box"><path stroke-width="1.5" fill="none" d="M356.486 87L356.486 151"/></g><g class="vf-notehead" id="vf-auto35237" pointer-events="bounding-box"><path stroke="none" d="M358.881 116.543C359.161 116.599,359.414 116.627,359.695 116.627C363.57 116.627,369.354 111.348,369.242 107.08C369.13 106.041,369.158 104.609,367.052 103.766C366.462 103.485,365.816 103.373,365.114 103.373C360.79 103.373,356.101 108.343,355.764 111.657C355.764 111.909,355.736 112.134,355.736 112.387C355.736 114.409,356.634 116.037,358.881 116.543"/></g><g class="vf-notehead" id="vf-auto35236" pointer-events="bounding-box"><path stroke="none" d="M358.881 106.543C359.161 106.599,359.414 106.627,359.695 106.627C363.57 106.627,369.354 101.348,369.242 97.08C369.13 96.041,369.158 94.609,367.052 93.766C366.462 93.485,365.816 93.373,365.114 93.373C360.79 93.373,356.101 98.343,355.764 101.657C355.764 101.909,355.736 102.134,355.736 102.387C355.736 104.409,356.634 106.037,358.881 106.543"/></g><g class="vf-notehead" id="vf-auto35235" pointer-events="bounding-box"><path stroke="none" d="M358.881 91.543C359.161 91.599,359.414 91.627,359.695 91.627C363.57 91.627,369.354 86.348,369.242 82.08C369.13 81.041,369.158 79.609,367.052 78.766C366.462 78.485,365.816 78.373,365.114 78.373C360.79 78.373,356.101 83.343,355.764 86.657C355.764 86.909,355.736 87.134,355.736 87.387C355.736 89.409,356.634 91.037,358.881 91.543"/></g><path stroke="none" d="M364.796 113.472C364.459 113.557,364.711 114.034,364.627 114.315C364.543 114.68,364.487 115.101,364.487 115.466C364.487 116.477,364.739 117.488,364.739 118.499C364.739 118.808,364.739 119.145,364.655 119.425C364.009 122.57,362.633 125.322,360.162 127.456C359.292 128.243,358.365 128.973,357.579 129.899C356.343 131.388,355.922 133.128,355.922 134.982C355.922 136.638,355.838 138.351,355.838 140.036C355.894 141.749,355.445 143.153,355.698 144.81C355.726 145.343,355.726 146.101,355.726 146.607L355.726 151.156C355.726 151.886,355.81 152.588,355.894 153.262C355.978 153.683,356.343 153.739,356.568 153.823L356.652 153.823C356.849 153.88,356.849 153.515,356.989 153.346C357.074 153.178,357.214 152.953,357.214 152.728C357.13 150.678,358.478 149.471,359.966 148.572C363.813 146.242,365.498 141.861,365.469 137.425C365.498 136.526,365.357 135.515,365.02 134.476C364.936 134.224,364.936 134.027,364.936 133.774C364.936 133.044,365.217 132.286,365.301 131.556C365.357 131.163,365.385 130.742,365.385 130.377C365.385 129.562,365.273 128.776,365.076 127.906C364.992 127.681,364.992 127.4,364.992 127.147C364.992 126.67,365.104 126.221,365.301 125.8C366.171 123.778,366.565 121.756,366.565 119.734C366.593 118.05,366.312 116.309,365.806 114.568C365.722 114.455,365.666 114.287,365.582 114.174C365.385 113.838,365.189 113.36,364.796 113.472M363.448 129.366C363.167 133.662,360.331 136.077,357.719 138.744C357.635 138.239,357.551 137.706,357.551 137.256C357.579 136.077,357.916 134.982,358.843 133.971C360.303 132.455,362.072 131.275,363.448 129.366M363.728 137.256C363.785 137.425,363.813 137.621,363.813 137.874C363.813 140.261,360.808 143.771,358.281 144.866C358.309 143.995,358.646 143.35,359.123 142.76C360.584 140.935,362.718 139.671,363.728 137.256"/></g><g class="vf-stavenote" id="vf-auto35239"><g class="vf-notehead" id="vf-auto35242" pointer-events="bounding-box"><path stroke="none" d="M381.943 70C382.084 70,382.196 70,382.364 69.972C383.01 69.832,383.6 69.523,384.218 69.438C385.594 69.242,385.678 68.371,385.678 67.304C385.622 66.125,385.594 64.974,385.594 63.822C385.594 63.036,385.678 62.25,385.678 61.464C385.678 60.706,385.313 60.284,384.667 60.088C384.246 60.004,383.853 59.919,383.403 59.919C382.786 59.919,382.196 60.06,381.634 60.284C381.297 60.453,380.736 60.537,380.736 61.155C380.736 61.829,380.764 62.475,380.764 63.177L380.764 65.114L380.848 65.114L380.848 68.652C380.848 69.551,381.213 70,381.943 70"/></g></g><g class="vf-stavenote" id="vf-auto35243"><g class="vf-notehead" id="vf-auto35246" pointer-events="bounding-box"><path stroke="none" d="M415.732 64.858L415.732 64.802L423.763 64.802C424.83 64.802,425.869 64.072,425.925 63.229C425.925 62.92,425.953 62.583,425.953 62.303C425.953 61.685,425.925 61.123,425.701 60.562C425.504 60,425.223 59.719,424.605 59.523C424.381 59.438,424.184 59.438,423.96 59.438C423.538 59.438,423.173 59.523,422.724 59.523C417.894 59.523,413.093 59.523,408.319 59.466C407.673 59.438,407.112 59.663,406.55 59.803C406.073 59.888,405.988 60.168,405.988 60.477C405.988 60.73,406.016 60.983,406.016 61.207C406.016 61.629,405.82 62.022,405.764 62.359C405.736 64.128,405.932 64.858,407.87 64.858"/></g></g><g class="vf-stavenote" id="vf-auto35247"><g class="vf-notehead" id="vf-auto35250" pointer-events="bounding-box"><path stroke="none" d="M433.488 70L446.348 70C447.359 70,448.398 70,449.409 69.972C450.953 69.916,451.599 69.186,451.683 67.697C451.768 66.799,451.515 65.956,451.403 65.114C451.206 63.963,450.616 63.485,449.549 63.485C448.595 63.485,447.668 63.57,446.741 63.57C444.72 63.57,442.698 63.457,440.732 63.457L432.786 63.457C431.269 63.457,430.736 63.822,430.736 64.974C430.736 65.198,430.736 65.395,430.764 65.676C430.848 66.209,430.904 66.771,430.904 67.332C430.82 69.242,431.55 70,433.488 70"/></g></g><g class="vf-stavenote" id="vf-auto35251"><g class="vf-notehead" id="vf-auto35254" pointer-events="bounding-box"><path stroke="none" d="M459.976 86.736C460.313 86.539,460.257 86.146,460.341 85.809C460.341 85.641,460.257 85.5,460.228 85.332C459.892 83.9,459.526 82.524,459.218 81.12C459.161 80.951,459.161 80.783,459.161 80.67C459.161 79.294,460.172 77.638,461.324 77.16C461.604 76.992,461.829 77.104,462.138 77.188C463.43 77.61,464.104 78.705,464.834 79.716C465.03 79.996,465.311 80.362,465.648 80.362C465.732 80.362,465.76 80.362,465.844 80.305C466.21 80.137,466.378 79.772,466.378 79.435L466.322 79.126C466.181 78.199,466.013 77.245,465.395 76.515C464.188 75.054,463.542 73.285,462.728 71.629C462.615 71.376,462.531 71.179,462.531 71.011C462.531 70.73,462.7 70.477,462.98 70.197C463.71 69.438,464.469 68.736,464.946 67.81C465.395 67.08,465.676 66.322,465.676 65.563C465.676 65.03,465.564 64.496,465.199 63.935C463.991 61.913,462.728 59.919,461.717 57.785C461.043 56.325,460.172 54.949,458.965 53.854C458.684 53.573,458.319 53.208,457.926 53.208C457.757 53.208,457.589 53.264,457.392 53.377C456.999 53.629,456.831 53.938,456.831 54.219C456.831 54.556,456.999 54.865,457.224 55.202C458.488 56.83,459.246 58.712,460.453 60.34C460.818 60.79,460.987 61.099,460.987 61.379C460.987 61.744,460.678 62.025,460.032 62.446C459.161 62.924,458.291 63.401,457.477 64.019C457.084 64.3,456.859 64.609,456.859 64.946C456.859 65.142,456.943 65.339,457.027 65.563C457.42 66.49,457.954 67.332,458.516 68.175C459.414 69.438,460.228 70.814,460.874 72.218C460.594 72.471,460.341 72.387,460.116 72.415C457.364 72.78,455.539 74.858,455.736 77.329C456.016 80.277,457.112 83.029,458.431 85.641C458.6 85.978,458.796 86.286,459.218 86.427C459.442 86.511,459.611 86.792,459.807 86.792C459.863 86.792,459.948 86.792,459.976 86.736"/></g></g><g class="vf-stavenote" id="vf-auto35255"><g class="vf-notehead" id="vf-auto35258" pointer-events="bounding-box"><path stroke="none" d="M485.341 80.502C486.071 80.474,486.436 80.025,486.689 79.547C487.419 78.199,487.98 76.795,488.486 75.335C490.086 71.011,490.816 66.406,492.248 61.997C492.333 61.744,492.417 61.464,492.417 61.183L492.417 60.986C492.389 60.425,492.248 60.06,491.771 60.06C491.659 60.06,491.575 60.06,491.462 60.088C490.479 60.256,489.581 60.649,488.935 61.267C487.924 62.25,486.801 62.952,485.622 63.682C485.453 63.766,485.313 63.85,485.144 63.85C484.976 63.85,484.807 63.766,484.667 63.598C484.498 63.457,484.414 63.261,484.414 63.092C484.414 62.924,484.442 62.812,484.526 62.643C484.695 62.362,484.863 61.997,484.863 61.632C484.863 60.93,485.06 60.06,484.302 59.695C483.937 59.526,483.6 59.442,483.375 59.442C482.842 59.442,482.505 59.807,482.084 60.565C481.297 61.913,481.073 63.401,480.82 64.918C480.764 65.226,480.736 65.507,480.736 65.788C480.736 67.641,481.718 69.326,483.796 69.326C484.302 69.326,484.892 69.242,485.537 68.989C486.717 68.54,487.7 67.894,488.851 67.164C487.924 71.741,486.155 75.981,485.341 80.502"/></g></g><g class="vf-stavenote" id="vf-auto35259"><g class="vf-notehead" id="vf-auto35262" pointer-events="bounding-box"><path stroke="none" d="M511.604 83.226C511.969 83.394,512.363 83.141,512.643 82.861C513.57 81.934,514.16 80.783,514.356 79.491C514.497 78.452,514.637 77.357,514.834 76.346C515.564 72.64,516.575 69.017,517.754 65.479C518.231 63.963,519.214 62.727,519.214 61.071C519.214 60.706,519.13 60.425,518.849 60.256C518.681 60.172,518.484 60.144,518.231 60.144C517.866 60.144,517.501 60.256,517.192 60.537C517.108 60.565,517.052 60.621,517.024 60.649C515.395 61.744,513.991 63.12,511.998 63.963C512.166 63.457,512.334 63.092,512.363 62.727C512.419 62.559,512.419 62.39,512.419 62.25C512.419 61.52,512.082 60.621,511.689 60.509C511.52 60.453,511.324 60.425,511.155 60.425C510.116 60.425,508.656 61.099,508.151 61.885C507.589 62.84,507.392 63.907,507.392 64.946C507.392 67.866,508.319 69.242,510.116 69.242C510.762 69.242,511.464 69.017,512.363 68.708C513.345 68.343,514.104 67.697,515.227 67.164C514.497 68.624,514.216 70,513.851 71.376C513.486 72.78,512.334 73.005,511.239 73.426C510.987 73.566,510.678 73.566,510.678 73.201L510.678 73.117C510.706 72.471,510.341 72.022,510.144 71.488C509.695 70.197,508.572 70.449,507.673 70.253C506.943 70.084,506.55 70.758,506.213 71.348C505.848 72.05,505.736 72.78,505.736 73.566C505.736 74.128,505.764 74.689,505.904 75.223C506.213 77.357,506.775 78.256,508.038 78.256C508.6 78.256,509.33 78.115,510.228 77.75C510.818 77.525,511.436 77.273,511.885 76.795C511.998 76.627,512.166 76.458,512.363 76.458C512.447 76.458,512.475 76.458,512.559 76.515C512.7 76.908,512.447 77.329,512.334 77.722C511.913 79.379,511.408 81.092,511.408 82.804C511.408 82.973,511.436 83.141,511.604 83.226"/></g></g><g class="vf-stavenote" id="vf-auto35263"><g class="vf-notehead" id="vf-auto35266" pointer-events="bounding-box"><path stroke="none" d="M535.706 90.105C536.183 90.218,536.604 89.768,536.829 89.375C537.054 89.094,537.194 88.757,537.278 88.392C537.84 85.921,538.458 83.478,538.935 80.951C539.497 77.722,540.171 74.521,540.873 71.348C541.771 67.136,542.585 62.924,543.428 58.768C543.849 56.606,544.27 54.472,544.691 52.338C544.72 52.169,544.776 52.001,544.776 51.832C544.776 51.327,544.551 50.793,544.214 50.597C544.074 50.512,543.905 50.456,543.765 50.456C543.316 50.456,542.838 50.765,542.473 51.074L540.873 52.422C540.648 52.647,540.367 52.815,540.086 52.843C539.862 52.843,539.637 52.703,539.384 52.338C538.935 51.72,538.177 51.439,537.447 51.271C537.138 51.243,536.801 51.186,536.464 51.186C534.695 51.186,533.403 52.366,533.151 54.303C533.151 54.5,533.122 54.724,533.122 54.921C533.122 56.1,533.403 57.224,533.74 58.319C533.937 59.077,534.498 59.554,535.257 59.554C535.397 59.554,535.509 59.554,535.622 59.526C536.127 59.498,536.604 59.414,537.082 59.245C538.738 58.712,540.002 57.532,541.603 56.578C541.378 57.532,540.957 58.347,540.957 59.161C540.957 60.93,539.721 61.632,538.486 62.39C538.373 62.475,538.261 62.531,538.177 62.531C538.065 62.531,537.924 62.446,537.812 62.25C537.166 61.267,535.959 60.649,534.751 60.649C534.386 60.649,534.049 60.734,533.74 60.818C532.477 61.183,532.027 61.829,531.943 63.177C531.943 64.103,532.196 64.974,532.364 65.928C532.645 67.417,533.516 68.231,534.948 68.231C536.717 68.231,538.008 67.248,539.581 66.293C539.075 68.231,538.626 69.888,538.205 71.629C538.008 72.555,537.194 72.696,536.548 72.836C535.959 73.005,536.324 72.106,535.959 71.853C535.818 71.769,535.874 71.544,535.79 71.404C535.228 70.646,534.526 70.084,533.572 70.084C532.392 70.084,531.297 70.899,530.988 71.853C530.82 72.359,530.736 72.836,530.736 73.313C530.736 74.044,530.904 74.774,531.016 75.504C531.297 77.188,532.196 78.059,533.656 78.059C533.937 78.059,534.246 78.059,534.583 77.919C534.976 77.89,535.537 77.554,535.902 77.554C536.071 77.554,536.155 77.61,536.239 77.722C536.267 77.806,536.324 77.919,536.324 78.059C536.324 78.536,536.043 79.126,535.902 79.631C535.902 79.716,535.874 79.744,535.818 79.772C535.172 82.046,534.414 84.265,534.498 86.708C534.498 87.522,534.948 88.196,535.116 89.01C535.172 89.459,535.228 90.021,535.706 90.105"/></g></g><g class="vf-stavenote" id="vf-auto35267"><g class="vf-stem" id="vf-auto35268" pointer-events="bounding-box"><path stroke-width="1.5" fill="none" d="M568.492 68.2L568.492 35"/></g><g class="vf-notehead" id="vf-auto35270" pointer-events="bounding-box"><path stroke="none" d="M558.207 76.318C558.684 76.262,559.133 76.15,559.498 75.728C560.144 75.054,560.79 74.409,561.408 73.678L563.43 71.404C564.974 72.836,566.575 74.156,568.147 75.532C568.344 75.7,568.596 75.897,568.877 75.897L569.018 75.897C569.242 75.813,569.242 75.588,569.242 75.391L569.242 75.223C569.242 74.802,569.158 74.437,568.877 74.156C568.344 73.51,567.866 72.836,567.22 72.274C566.322 71.544,565.479 70.814,564.637 70.028C565.901 68.624,567.108 67.164,568.147 65.591C568.428 65.226,568.849 64.749,568.849 64.328C568.849 64.187,568.793 64.019,568.652 63.907C568.484 63.738,568.287 63.654,568.119 63.654C567.67 63.654,567.277 64.272,566.94 64.609C565.676 65.985,564.525 67.36,563.345 68.821C562.25 67.726,561.239 66.63,560.257 65.479C559.976 65.114,559.695 64.693,559.246 64.581C559.021 64.496,558.74 64.216,558.488 64.216C558.375 64.216,558.291 64.272,558.179 64.412C557.954 64.665,557.842 64.918,557.842 65.142C557.842 65.339,557.954 65.591,558.179 65.872C559.302 67.248,560.481 68.54,561.717 69.803C561.885 69.972,561.998 70.084,562.166 70.197C560.678 71.853,559.105 73.426,557.842 75.307C557.729 75.532,557.561 75.7,557.561 75.953C557.561 75.981,557.561 76.065,557.589 76.093C557.673 76.346,557.954 76.234,558.207 76.318"/></g></g></svg>