<svg xmlns="http://www.w3.org/2000/svg" stroke-width="0.3" stroke-dasharray="none" fill="black" stroke="black" font-family="Arial, sans-serif" font-size="10pt" font-weight="normal" font-style="normal" width="800" height="150" viewBox="0 0 800 150" style="width: 800px; height: 150px; border: none;"><g class="vf-stave" id="vf-auto37727" stroke-width="1" fill="#999999" stroke="#999999"><path fill="none" d="M10 50L985 50"/><path fill="none" d="M10 60L985 60"/><path fill="none" d="M10 70L985 70"/><path fill="none" d="M10 80L985 80"/><path fill="none" d="M10 90L985 90"/></g><g class="vf-stavebarline" id="vf-auto37728"><rect x="10" y="49.5" width="1" height="41" stroke="none"/></g><g class="vf-stavebarline" id="vf-auto37729"><rect x="985" y="49.5" width="1" height="41" stroke="none"/></g><g class="vf-stavenote" id="vf-auto37730"><g class="vf-notehead" id="vf-auto37734" pointer-events="bounding-box"><path stroke="none" d="M34.104 79.889C34.188 79.889,34.273 79.889,34.413 79.889C34.778 79.889,35.312 79.918,35.508 79.946C37.839 80.283,38.99 81.827,38.99 83.624C38.99 85.534,37.698 87.724,35.115 89.128C33.852 89.802,32.56 90.111,31.38 90.111C29.218 90.111,27.449 89.044,27.084 87.162C27.028 86.881,27 86.629,27 86.376C27 83.343,30.257 80.283,34.104 79.889"/><path stroke="none" d="M45.99 85 A2 2 0 0 0 41.99 85 A2 2 0 0 0 45.99 85"/></g></g><g class="vf-stavenote" id="vf-auto37736"><g class="vf-notehead" id="vf-auto37740" pointer-events="bounding-box"><path stroke="none" d="M99.104 79.889C99.188 79.889,99.273 79.889,99.413 79.889C99.778 79.889,100.312 79.918,100.508 79.946C102.839 80.283,103.99 81.827,103.99 83.624C103.99 85.534,102.698 87.724,100.115 89.128C98.852 89.802,97.56 90.111,96.38 90.111C94.218 90.111,92.449 89.044,92.084 87.162C92.028 86.881,92 86.629,92 86.376C92 83.343,95.257 80.283,99.104 79.889"/><path stroke="none" d="M110.99 85 A2 2 0 0 0 106.99 85 A2 2 0 0 0 110.99 85"/></g></g><g class="vf-stavenote" id="vf-auto37742"><g class="vf-notehead" id="vf-auto37746" pointer-events="bounding-box"><path stroke="none" d="M164.104 79.889C164.188 79.889,164.273 79.889,164.413 79.889C164.778 79.889,165.312 79.918,165.508 79.946C167.839 80.283,168.99 81.827,168.99 83.624C168.99 85.534,167.698 87.724,165.115 89.128C163.852 89.802,162.56 90.111,161.38 90.111C159.218 90.111,157.449 89.044,157.084 87.162C157.028 86.881,157 86.629,157 86.376C157 83.343,160.257 80.283,164.104 79.889"/><path stroke="none" d="M175.99 85 A2 2 0 0 0 171.99 85 A2 2 0 0 0 175.99 85"/></g></g><g class="vf-stavenote" id="vf-auto37748"><g class="vf-notehead" id="vf-auto37752" pointer-events="bounding-box"><path stroke="none" d="M229.104 79.889C229.188 79.889,229.273 79.889,229.413 79.889C229.778 79.889,230.312 79.918,230.508 79.946C232.839 80.283,233.99 81.827,233.99 83.624C233.99 85.534,232.698 87.724,230.115 89.128C228.852 89.802,227.56 90.111,226.38 90.111C224.218 90.111,222.449 89.044,222.084 87.162C222.028 86.881,222 86.629,222 86.376C222 83.343,225.257 80.283,229.104 79.889"/><path stroke="none" d="M240.99 85 A2 2 0 0 0 236.99 85 A2 2 0 0 0 240.99 85"/></g></g><g class="vf-stavenote" id="vf-auto37754"><g class="vf-notehead" id="vf-auto37758" pointer-events="bounding-box"><path stroke="none" d="M294.104 79.889C294.188 79.889,294.273 79.889,294.413 79.889C294.778 79.889,295.312 79.918,295.508 79.946C297.839 80.283,298.99 81.827,298.99 83.624C298.99 85.534,297.698 87.724,295.115 89.128C293.852 89.802,292.56 90.111,291.38 90.111C289.218 90.111,287.449 89.044,287.084 87.162C287.028 86.881,287 86.629,287 86.376C287 83.343,290.257 80.283,294.104 79.889"/><path stroke="none" d="M305.99 85 A2 2 0 0 0 301.99 85 A2 2 0 0 0 305.99 85"/><path stroke="none" d="M311.99 85 A2 2 0 0 0 307.99 85 A2 2 0 0 0 311.99 85"/></g></g><g class="vf-stavenote" id="vf-auto37760"><g class="vf-notehead" id="vf-auto37764" pointer-events="bounding-box"><path stroke="none" d="M359.104 74.889C359.188 74.889,359.273 74.889,359.413 74.889C359.778 74.889,360.312 74.918,360.508 74.946C362.839 75.283,363.99 76.827,363.99 78.624C363.99 80.534,362.698 82.724,360.115 84.128C358.852 84.802,357.56 85.111,356.38 85.111C354.218 85.111,352.449 84.044,352.084 82.162C352.028 81.881,352 81.629,352 81.376C352 78.343,355.257 75.283,359.104 74.889"/><path stroke="none" d="M370.99 75 A2 2 0 0 0 366.99 75 A2 2 0 0 0 370.99 75"/></g></g><g class="vf-stavenote" id="vf-auto37766"><g class="vf-notehead" id="vf-auto37770" pointer-events="bounding-box"><path stroke="none" d="M424.104 74.889C424.188 74.889,424.273 74.889,424.413 74.889C424.778 74.889,425.312 74.918,425.508 74.946C427.839 75.283,428.99 76.827,428.99 78.624C428.99 80.534,427.698 82.724,425.115 84.128C423.852 84.802,422.56 85.111,421.38 85.111C419.218 85.111,417.449 84.044,417.084 82.162C417.028 81.881,417 81.629,417 81.376C417 78.343,420.257 75.283,424.104 74.889"/><path stroke="none" d="M435.99 75 A2 2 0 0 0 431.99 75 A2 2 0 0 0 435.99 75"/></g></g><g class="vf-stavenote" id="vf-auto37772"><g class="vf-notehead" id="vf-auto37776" pointer-events="bounding-box"><path stroke="none" d="M489.104 74.889C489.188 74.889,489.273 74.889,489.413 74.889C489.778 74.889,490.312 74.918,490.508 74.946C492.839 75.283,493.99 76.827,493.99 78.624C493.99 80.534,492.698 82.724,490.115 84.128C488.852 84.802,487.56 85.111,486.38 85.111C484.218 85.111,482.449 84.044,482.084 82.162C482.028 81.881,482 81.629,482 81.376C482 78.343,485.257 75.283,489.104 74.889"/><path stroke="none" d="M500.99 75 A2 2 0 0 0 496.99 75 A2 2 0 0 0 500.99 75"/></g></g><g class="vf-stavenote" id="vf-auto37778"><g class="vf-notehead" id="vf-auto37782" pointer-events="bounding-box"><path stroke="none" d="M554.104 74.889C554.188 74.889,554.273 74.889,554.413 74.889C554.778 74.889,555.312 74.918,555.508 74.946C557.839 75.283,558.99 76.827,558.99 78.624C558.99 80.534,557.698 82.724,555.115 84.128C553.852 84.802,552.56 85.111,551.38 85.111C549.218 85.111,547.449 84.044,547.084 82.162C547.028 81.881,547 81.629,547 81.376C547 78.343,550.257 75.283,554.104 74.889"/><path stroke="none" d="M565.99 75 A2 2 0 0 0 561.99 75 A2 2 0 0 0 565.99 75"/></g></g><g class="vf-stavenote" id="vf-auto37784"><g class="vf-notehead" id="vf-auto37788" pointer-events="bounding-box"><path stroke="none" d="M619.104 74.889C619.188 74.889,619.273 74.889,619.413 74.889C619.778 74.889,620.312 74.918,620.508 74.946C622.839 75.283,623.99 76.827,623.99 78.624C623.99 80.534,622.698 82.724,620.115 84.128C618.852 84.802,617.56 85.111,616.38 85.111C614.218 85.111,612.449 84.044,612.084 82.162C612.028 81.881,612 81.629,612 81.376C612 78.343,615.257 75.283,619.104 74.889"/><path stroke="none" d="M630.99 75 A2 2 0 0 0 626.99 75 A2 2 0 0 0 630.99 75"/><path stroke="none" d="M636.99 75 A2 2 0 0 0 632.99 75 A2 2 0 0 0 636.99 75"/></g></g><g class="vf-stem" id="vf-auto37731" pointer-events="bounding-box"><path stroke-width="1.5" fill="none" d="M38.24 83.5L38.24 34.75"/></g><g class="vf-stem" id="vf-auto37737" pointer-events="bounding-box"><path stroke-width="1.5" fill="none" d="M103.24 83.5L103.24 33.125"/></g><g class="vf-stem" id="vf-auto37743" pointer-events="bounding-box"><path stroke-width="1.5" fill="none" d="M168.24 83.5L168.24 31.5"/></g><g class="vf-stem" id="vf-auto37749" pointer-events="bounding-box"><path stroke-width="1.5" fill="none" d="M233.24 83.5L233.24 29.875"/></g><g class="vf-stem" id="vf-auto37755" pointer-events="bounding-box"><path stroke-width="1.5" fill="none" d="M298.24 83.5L298.24 28.25"/></g><g class="vf-stem" id="vf-auto37761" pointer-events="bounding-box"><path stroke-width="1.5" fill="none" d="M363.24 78.5L363.24 26.625"/></g><g class="vf-stem" id="vf-auto37767" pointer-events="bounding-box"><path stroke-width="1.5" fill="none" d="M428.24 78.5L428.24 25"/></g><g class="vf-stem" id="vf-auto37773" pointer-events="bounding-box"><path stroke-width="1.5" fill="none" d="M493.24 78.5L493.24 23.375"/></g><g class="vf-stem" id="vf-auto37779" pointer-events="bounding-box"><path stroke-width="1.5" fill="none" d="M558.24 78.5L558.24 21.75"/></g><g class="vf-stem" id="vf-auto37785" pointer-events="bounding-box"><path stroke-width="1.5" fill="none" d="M623.24 78.5L623.24 20.125"/></g><g class="vf-beam" id="vf-auto37802"><path stroke="none" d="M37.49 34.019L37.49 39.019L623.49 24.394L623.49 19.394Z"/><path stroke="none" d="M102.49 39.894L102.49 44.894L298.49 40.019L298.49 35.019Z"/><path stroke="none" d="M427.49 31.769L427.49 36.769L623.49 31.894L623.49 26.894Z"/><path stroke="none" d="M167.49 45.769L167.49 50.769L298.49 47.519L298.49 42.519Z"/><path stroke="none" d="M492.49 37.644L492.49 42.644L623.49 39.394L623.49 34.394Z"/><path stroke="none" d="M232.49 51.644L232.49 56.644L298.49 55.019L298.49 50.019Z"/><path stroke="none" d="M557.49 43.519L557.49 48.519L623.49 46.894L623.49 41.894Z"/><path stroke="none" d="M297.49 57.519L297.49 62.519L288.49 62.769L288.49 57.769Z"/><path stroke="none" d="M622.49 49.394L622.49 54.394L613.49 54.644L613.49 49.644Z"/></g></svg>