<svg xmlns="http://www.w3.org/2000/svg" stroke-width="0.3" stroke-dasharray="none" fill="black" stroke="black" font-family="Arial, sans-serif" font-size="10pt" font-weight="normal" font-style="normal" width="700" height="150" viewBox="0 0 700 150" style="width: 700px; height: 150px; border: none;"><g class="vf-stave" id="vf-auto18896" stroke-width="1" fill="#999999" stroke="#999999"><path fill="none" d="M0 40L690 40"/><path fill="none" d="M0 50L690 50"/><path fill="none" d="M0 60L690 60"/><path fill="none" d="M0 70L690 70"/><path fill="none" d="M0 80L690 80"/></g><g class="vf-stavebarline" id="vf-auto18897"><rect y="39.5" width="1" height="41" stroke="none"/></g><g class="vf-stavebarline" id="vf-auto18898"><rect x="690" y="39.5" width="1" height="41" stroke="none"/></g><g class="vf-keysignature" id="vf-auto18899"><path stroke="none" d="M10.964 25.691C11.019 25.663,11.101 25.636,11.183 25.636C11.402 25.636,11.621 25.773,11.703 25.992C11.731 26.101,11.731 26.128,11.731 29.603C11.731 32.859,11.731 33.078,11.785 33.078C11.785 33.078,11.785 33.078,11.785 33.078C12.086 32.996,13.208 32.75,13.29 32.75C13.536 32.75,13.728 32.886,13.81 33.078C13.837 33.16,13.865 33.789,13.865 34.419C13.865 35.048,13.837 35.677,13.81 35.759C13.728 36.033,13.673 36.033,12.579 36.306L11.731 36.525L11.731 39.425C11.731 42.134,11.731 42.353,11.758 42.353C11.785 42.353,11.785 42.353,11.785 42.353C12.086 42.244,13.208 41.997,13.29 41.997C13.454 41.997,13.564 42.052,13.7 42.161C13.837 42.326,13.837 42.271,13.837 43.311C13.837 43.42,13.837 43.557,13.837 43.694C13.837 43.83,13.837 43.94,13.837 44.049C13.837 45.116,13.837 45.062,13.7 45.198C13.564 45.335,13.564 45.335,12.579 45.581L11.731 45.773L11.731 49.33C11.731 52.832,11.731 52.859,11.703 52.941C11.621 53.188,11.402 53.297,11.183 53.297C11.047 53.297,10.882 53.242,10.773 53.133C10.636 52.996,10.609 53.242,10.609 51.053C10.609 50.616,10.609 50.096,10.609 49.467C10.609 47.579,10.609 46.047,10.609 46.047C10.609 46.047,10.062 46.183,9.405 46.348C8.721 46.512,8.174 46.648,8.174 46.648C8.174 46.648,8.174 48.29,8.174 50.287C8.174 53.872,8.174 53.899,8.119 54.008C8.037 54.227,7.818 54.364,7.599 54.364C7.462 54.364,7.298 54.309,7.189 54.2C7.052 54.036,7.052 54.282,7.052 52.066C7.052 51.628,7.052 51.081,7.052 50.424C7.052 47.168,7.052 46.949,7.025 46.949C7.025 46.949,7.025 46.949,6.997 46.949C6.669 47.032,5.657 47.25,5.575 47.25C5.328 47.25,5.109 47.114,5.027 46.922C5 46.84,5 46.211,5 45.581C5 44.952,5 44.323,5.027 44.241C5.137 43.995,5.192 43.967,6.231 43.694L7.052 43.502L7.052 40.575C7.052 37.866,7.052 37.674,7.025 37.674C7.025 37.674,7.025 37.674,6.997 37.674C6.669 37.756,5.657 38.003,5.575 38.003C5.328 38.003,5.109 37.866,5.027 37.647C5 37.592,5 36.936,5 36.306C5 35.677,5 35.048,5.027 34.966C5.137 34.72,5.192 34.692,6.231 34.446L7.052 34.254L7.052 30.698C7.052 27.168,7.052 27.141,7.079 27.059C7.161 26.812,7.38 26.703,7.599 26.703C7.736 26.703,7.9 26.758,8.01 26.867C8.146 27.004,8.174 26.758,8.174 28.947C8.174 29.384,8.174 29.904,8.174 30.561C8.174 32.421,8.174 33.953,8.174 33.953C8.174 33.953,8.721 33.817,9.378 33.68C10.062 33.516,10.609 33.379,10.609 33.379C10.609 33.379,10.609 31.737,10.609 29.74C10.609 26.128,10.609 26.101,10.664 25.992C10.691 25.882,10.828 25.745,10.964 25.691M10.609 39.699C10.609 37.401,10.609 36.799,10.609 36.799L10.609 36.799C10.581 36.799,10.39 36.826,10.171 36.908C9.952 36.963,9.405 37.072,8.967 37.182L8.174 37.401L8.174 40.301C8.174 41.915,8.174 43.228,8.174 43.228C8.174 43.228,8.721 43.092,9.378 42.928C10.062 42.763,10.609 42.627,10.609 42.627C10.609 42.627,10.609 41.313,10.609 39.699"/><path stroke="none" d="M20.829 40.691C20.884 40.663,20.966 40.636,21.048 40.636C21.267 40.636,21.486 40.773,21.568 40.992C21.595 41.101,21.595 41.128,21.595 44.603C21.595 47.859,21.595 48.078,21.65 48.078C21.65 48.078,21.65 48.078,21.65 48.078C21.951 47.996,23.073 47.75,23.155 47.75C23.401 47.75,23.592 47.886,23.675 48.078C23.702 48.16,23.729 48.789,23.729 49.419C23.729 50.048,23.702 50.677,23.675 50.759C23.592 51.033,23.538 51.033,22.443 51.306L21.595 51.525L21.595 54.425C21.595 57.134,21.595 57.353,21.623 57.353C21.65 57.353,21.65 57.353,21.65 57.353C21.951 57.244,23.073 56.997,23.155 56.997C23.319 56.997,23.428 57.052,23.565 57.161C23.702 57.326,23.702 57.271,23.702 58.311C23.702 58.42,23.702 58.557,23.702 58.694C23.702 58.83,23.702 58.94,23.702 59.049C23.702 60.116,23.702 60.062,23.565 60.198C23.428 60.335,23.428 60.335,22.443 60.581L21.595 60.773L21.595 64.33C21.595 67.832,21.595 67.859,21.568 67.941C21.486 68.188,21.267 68.297,21.048 68.297C20.911 68.297,20.747 68.242,20.638 68.133C20.501 67.996,20.473 68.242,20.473 66.053C20.473 65.616,20.473 65.096,20.473 64.467C20.473 62.579,20.473 61.047,20.473 61.047C20.473 61.047,19.926 61.183,19.27 61.348C18.586 61.512,18.038 61.648,18.038 61.648C18.038 61.648,18.038 63.29,18.038 65.287C18.038 68.872,18.038 68.899,17.984 69.008C17.902 69.227,17.683 69.364,17.464 69.364C17.327 69.364,17.163 69.309,17.053 69.2C16.917 69.036,16.917 69.282,16.917 67.066C16.917 66.628,16.917 66.081,16.917 65.424C16.917 62.168,16.917 61.949,16.889 61.949C16.889 61.949,16.889 61.949,16.862 61.949C16.534 62.032,15.521 62.25,15.439 62.25C15.193 62.25,14.974 62.114,14.892 61.922C14.865 61.84,14.865 61.211,14.865 60.581C14.865 59.952,14.865 59.323,14.892 59.241C15.001 58.995,15.056 58.967,16.096 58.694L16.917 58.502L16.917 55.575C16.917 52.866,16.917 52.674,16.889 52.674C16.889 52.674,16.889 52.674,16.862 52.674C16.534 52.756,15.521 53.003,15.439 53.003C15.193 53.003,14.974 52.866,14.892 52.647C14.865 52.592,14.865 51.936,14.865 51.306C14.865 50.677,14.865 50.048,14.892 49.966C15.001 49.72,15.056 49.692,16.096 49.446L16.917 49.254L16.917 45.698C16.917 42.168,16.917 42.141,16.944 42.059C17.026 41.812,17.245 41.703,17.464 41.703C17.601 41.703,17.765 41.758,17.874 41.867C18.011 42.004,18.038 41.758,18.038 43.947C18.038 44.384,18.038 44.904,18.038 45.561C18.038 47.421,18.038 48.953,18.038 48.953C18.038 48.953,18.586 48.817,19.242 48.68C19.926 48.516,20.473 48.379,20.473 48.379C20.473 48.379,20.473 46.737,20.473 44.74C20.473 41.128,20.473 41.101,20.528 40.992C20.556 40.882,20.692 40.745,20.829 40.691M20.473 54.699C20.473 52.401,20.473 51.799,20.473 51.799L20.473 51.799C20.446 51.799,20.255 51.826,20.036 51.908C19.817 51.963,19.27 52.072,18.832 52.182L18.038 52.401L18.038 55.301C18.038 56.915,18.038 58.228,18.038 58.228C18.038 58.228,18.586 58.092,19.242 57.928C19.926 57.763,20.473 57.627,20.473 57.627C20.473 57.627,20.473 56.313,20.473 54.699"/><path stroke="none" d="M30.694 20.691C30.748 20.663,30.831 20.636,30.913 20.636C31.132 20.636,31.35 20.773,31.432 20.992C31.46 21.101,31.46 21.128,31.46 24.603C31.46 27.859,31.46 28.078,31.515 28.078C31.515 28.078,31.515 28.078,31.515 28.078C31.816 27.996,32.937 27.75,33.019 27.75C33.266 27.75,33.457 27.886,33.539 28.078C33.567 28.16,33.594 28.789,33.594 29.419C33.594 30.048,33.567 30.677,33.539 30.759C33.457 31.033,33.402 31.033,32.308 31.306L31.46 31.525L31.46 34.425C31.46 37.134,31.46 37.353,31.487 37.353C31.515 37.353,31.515 37.353,31.515 37.353C31.816 37.244,32.937 36.997,33.019 36.997C33.184 36.997,33.293 37.052,33.43 37.161C33.567 37.326,33.567 37.271,33.567 38.311C33.567 38.42,33.567 38.557,33.567 38.694C33.567 38.83,33.567 38.94,33.567 39.049C33.567 40.116,33.567 40.062,33.43 40.198C33.293 40.335,33.293 40.335,32.308 40.581L31.46 40.773L31.46 44.33C31.46 47.832,31.46 47.859,31.432 47.941C31.35 48.188,31.132 48.297,30.913 48.297C30.776 48.297,30.612 48.242,30.502 48.133C30.365 47.996,30.338 48.242,30.338 46.053C30.338 45.616,30.338 45.096,30.338 44.467C30.338 42.579,30.338 41.047,30.338 41.047C30.338 41.047,29.791 41.183,29.134 41.348C28.45 41.512,27.903 41.648,27.903 41.648C27.903 41.648,27.903 43.29,27.903 45.287C27.903 48.872,27.903 48.899,27.848 49.008C27.766 49.227,27.547 49.364,27.328 49.364C27.192 49.364,27.028 49.309,26.918 49.2C26.781 49.036,26.781 49.282,26.781 47.066C26.781 46.628,26.781 46.081,26.781 45.424C26.781 42.168,26.781 41.949,26.754 41.949C26.754 41.949,26.754 41.949,26.727 41.949C26.398 42.032,25.386 42.25,25.304 42.25C25.058 42.25,24.839 42.114,24.757 41.922C24.729 41.84,24.729 41.211,24.729 40.581C24.729 39.952,24.729 39.323,24.757 39.241C24.866 38.995,24.921 38.967,25.96 38.694L26.781 38.502L26.781 35.575C26.781 32.866,26.781 32.674,26.754 32.674C26.754 32.674,26.754 32.674,26.727 32.674C26.398 32.756,25.386 33.003,25.304 33.003C25.058 33.003,24.839 32.866,24.757 32.647C24.729 32.592,24.729 31.936,24.729 31.306C24.729 30.677,24.729 30.048,24.757 29.966C24.866 29.72,24.921 29.692,25.96 29.446L26.781 29.254L26.781 25.698C26.781 22.168,26.781 22.141,26.809 22.059C26.891 21.812,27.11 21.703,27.328 21.703C27.465 21.703,27.629 21.758,27.739 21.867C27.876 22.004,27.903 21.758,27.903 23.947C27.903 24.384,27.903 24.904,27.903 25.561C27.903 27.421,27.903 28.953,27.903 28.953C27.903 28.953,28.45 28.817,29.107 28.68C29.791 28.516,30.338 28.379,30.338 28.379C30.338 28.379,30.338 26.737,30.338 24.74C30.338 21.128,30.338 21.101,30.393 20.992C30.42 20.882,30.557 20.745,30.694 20.691M30.338 34.699C30.338 32.401,30.338 31.799,30.338 31.799L30.338 31.799C30.311 31.799,30.119 31.826,29.9 31.908C29.681 31.963,29.134 32.072,28.696 32.182L27.903 32.401L27.903 35.301C27.903 36.915,27.903 38.228,27.903 38.228C27.903 38.228,28.45 38.092,29.107 37.928C29.791 37.763,30.338 37.627,30.338 37.627C30.338 37.627,30.338 36.313,30.338 34.699"/></g><g class="vf-stavenote" id="vf-auto18900"><g class="vf-stem" id="vf-auto18901" pointer-events="bounding-box"><path stroke-width="1.5" fill="none" d="M57.834 63.5L57.834 30"/></g><g class="vf-notehead" id="vf-auto18904" pointer-events="bounding-box"><path stroke="none" d="M53.698 59.889C53.782 59.889,53.867 59.889,54.007 59.889C54.372 59.889,54.906 59.918,55.102 59.946C57.433 60.283,58.584 61.827,58.584 63.624C58.584 65.534,57.292 67.724,54.709 69.128C53.445 69.802,52.154 70.111,50.974 70.111C48.812 70.111,47.043 69.044,46.678 67.162C46.622 66.881,46.594 66.629,46.594 66.376C46.594 63.343,49.851 60.283,53.698 59.889"/></g></g><g class="vf-stavenote" id="vf-auto18905"><g class="vf-stem" id="vf-auto18906" pointer-events="bounding-box"><path stroke-width="1.5" fill="none" d="M140.725 58.5L140.725 25"/></g><g class="vf-notehead" id="vf-auto18909" pointer-events="bounding-box"><path stroke="none" d="M136.589 54.889C136.674 54.889,136.758 54.889,136.898 54.889C137.263 54.889,137.797 54.918,137.993 54.946C140.324 55.283,141.475 56.827,141.475 58.624C141.475 60.534,140.184 62.724,137.6 64.128C136.337 64.802,135.045 65.111,133.866 65.111C131.703 65.111,129.934 64.044,129.569 62.162C129.513 61.881,129.485 61.629,129.485 61.376C129.485 58.343,132.742 55.283,136.589 54.889"/></g></g><g class="vf-stavenote" id="vf-auto18910"><g class="vf-stem" id="vf-auto18911" pointer-events="bounding-box"><path stroke-width="1.5" fill="none" d="M223.616 53.5L223.616 20"/></g><g class="vf-notehead" id="vf-auto18914" pointer-events="bounding-box"><path stroke="none" d="M219.481 49.889C219.565 49.889,219.649 49.889,219.789 49.889C220.154 49.889,220.688 49.918,220.885 49.946C223.215 50.283,224.366 51.827,224.366 53.624C224.366 55.534,223.075 57.724,220.491 59.128C219.228 59.802,217.936 60.111,216.757 60.111C214.595 60.111,212.826 59.044,212.461 57.162C212.404 56.881,212.376 56.629,212.376 56.376C212.376 53.343,215.634 50.283,219.481 49.889"/></g></g><g class="vf-stavenote" id="vf-auto18917"><g class="vf-stem" id="vf-auto18918" pointer-events="bounding-box"><path stroke-width="1.5" fill="none" d="M306.508 48.5L306.508 15"/></g><g class="vf-notehead" id="vf-auto18921" pointer-events="bounding-box"><path stroke="none" d="M302.372 44.889C302.456 44.889,302.54 44.889,302.681 44.889C303.046 44.889,303.579 44.918,303.776 44.946C306.106 45.283,307.258 46.827,307.258 48.624C307.258 50.534,305.966 52.724,303.383 54.128C302.119 54.802,300.827 55.111,299.648 55.111C297.486 55.111,295.717 54.044,295.352 52.162C295.296 51.881,295.267 51.629,295.267 51.376C295.267 48.343,298.525 45.283,302.372 44.889"/></g></g><g class="vf-stavenote" id="vf-auto18922"><g class="vf-stem" id="vf-auto18923" pointer-events="bounding-box"><path stroke-width="1.5" fill="none" d="M389.399 43.5L389.399 10"/></g><g class="vf-notehead" id="vf-auto18926" pointer-events="bounding-box"><path stroke="none" d="M385.263 39.889C385.347 39.889,385.431 39.889,385.572 39.889C385.937 39.889,386.47 39.918,386.667 39.946C388.998 40.283,390.149 41.827,390.149 43.624C390.149 45.534,388.857 47.724,386.274 49.128C385.01 49.802,383.718 50.111,382.539 50.111C380.377 50.111,378.608 49.044,378.243 47.162C378.187 46.881,378.159 46.629,378.159 46.376C378.159 43.343,381.416 40.283,385.263 39.889"/></g></g><g class="vf-stavenote" id="vf-auto18927"><g class="vf-stem" id="vf-auto18928" pointer-events="bounding-box"><path stroke-width="1.5" fill="none" d="M472.29 38.5L472.29 5"/></g><g class="vf-notehead" id="vf-auto18931" pointer-events="bounding-box"><path stroke="none" d="M468.154 34.889C468.238 34.889,468.323 34.889,468.463 34.889C468.828 34.889,469.361 34.918,469.558 34.946C471.889 35.283,473.04 36.827,473.04 38.624C473.04 40.534,471.748 42.724,469.165 44.128C467.901 44.802,466.61 45.111,465.43 45.111C463.268 45.111,461.499 44.044,461.134 42.162C461.078 41.881,461.05 41.629,461.05 41.376C461.05 38.343,464.307 35.283,468.154 34.889"/></g></g><g class="vf-stavenote" id="vf-auto18934"><g class="vf-stem" id="vf-auto18935" pointer-events="bounding-box"><path stroke-width="1.5" fill="none" d="M555.181 33.5L555.181 0"/></g><g class="vf-notehead" id="vf-auto18938" pointer-events="bounding-box"><path stroke="none" d="M551.045 29.889C551.129 29.889,551.214 29.889,551.354 29.889C551.719 29.889,552.253 29.918,552.449 29.946C554.78 30.283,555.931 31.827,555.931 33.624C555.931 35.534,554.639 37.724,552.056 39.128C550.793 39.802,549.501 40.111,548.321 40.111C546.159 40.111,544.39 39.044,544.025 37.162C543.969 36.881,543.941 36.629,543.941 36.376C543.941 33.343,547.198 30.283,551.045 29.889"/></g></g><g class="vf-stavenote" id="vf-auto18941"><path stroke-width="1.4" fill="none" stroke="#444" d="M623.832 30L641.822 30"/><g class="vf-stem" id="vf-auto18942" pointer-events="bounding-box"><path stroke-width="1.5" fill="none" d="M638.072 28.5L638.072 -5"/></g><g class="vf-notehead" id="vf-auto18945" pointer-events="bounding-box"><path stroke="none" d="M633.936 24.889C634.021 24.889,634.105 24.889,634.245 24.889C634.61 24.889,635.144 24.918,635.34 24.946C637.671 25.283,638.822 26.827,638.822 28.624C638.822 30.534,637.531 32.724,634.947 34.128C633.684 34.802,632.392 35.111,631.213 35.111C629.05 35.111,627.281 34.044,626.916 32.162C626.86 31.881,626.832 31.629,626.832 31.376C626.832 28.343,630.089 25.283,633.936 24.889"/></g></g></svg>