<svg xmlns="http://www.w3.org/2000/svg" stroke-width="0.3" stroke-dasharray="none" fill="black" stroke="black" font-family="Arial, sans-serif" font-size="10pt" font-weight="normal" font-style="normal" width="600" height="140" viewBox="0 0 600 140" style="width: 600px; height: 140px; border: none;"><g class="vf-stave" id="vf-auto14777" stroke-width="1" fill="#999999" stroke="#999999" font-family="Arial"><path fill="none" d="M10 62L560 62"/><path fill="none" d="M10 75L560 75"/><path fill="none" d="M10 88L560 88"/><path fill="none" d="M10 101L560 101"/><path fill="none" d="M10 114L560 114"/><path fill="none" d="M10 127L560 127"/></g><g class="vf-stavebarline" id="vf-auto14778" font-family="Arial"><rect x="10" y="61.5" width="1" height="66" stroke="none"/></g><g class="vf-stavebarline" id="vf-auto14779" font-family="Arial"><rect x="560" y="61.5" width="1" height="66" stroke="none"/></g><g class="vf-tabnote" id="vf-auto14780" pointer-events="bounding-box" font-family="Arial"><rect x="50" y="124" width="11.422" height="6" fill="#FFF" stroke="none"/><text stroke="none" font-family="Arial, sans-serif" x="52" y="132">6</text></g><g class="vf-tabnote" id="vf-auto14782" pointer-events="bounding-box" font-family="Arial"><rect x="78.703" y="85" width="11.422" height="6" fill="#FFF" stroke="none"/><text stroke="none" font-family="Arial, sans-serif" x="80.703" y="93">6</text><rect x="75" y="98" width="18.828" height="6" fill="#FFF" stroke="none"/><text stroke="none" font-family="Arial, sans-serif" x="77" y="106">25</text></g><g class="vf-tabnote" id="vf-auto14784" pointer-events="bounding-box" font-family="Arial"><rect x="102.261" y="72" width="14.305" height="6" fill="#FFF" stroke="none"/><path stroke="none" d="M104.261 71.574L104.261 69.861L106.002 69.861L107.715 69.861L107.715 71.153L107.715 72.473L108.558 73.315L109.4 74.158L110.271 73.315L111.113 72.473L111.113 71.153L111.113 69.861L112.826 69.861L114.567 69.861L114.567 71.574L114.567 73.315L113.247 73.315L111.927 73.315L111.085 74.158L110.242 75L111.085 75.842L111.927 76.685L113.247 76.685L114.567 76.685L114.567 78.426L114.567 80.139L112.826 80.139L111.113 80.139L111.113 78.847L111.113 77.527L110.271 76.685L109.4 75.842L108.558 76.685L107.715 77.527L107.715 78.847L107.715 80.139L106.002 80.139L104.261 80.139L104.261 78.426L104.261 76.685L105.581 76.685L106.873 76.685L107.715 75.842L108.586 75L107.715 74.158L106.873 73.315L105.581 73.315L104.261 73.315"/><rect x="100" y="111" width="18.828" height="6" fill="#FFF" stroke="none"/><text stroke="none" font-family="Arial, sans-serif" x="102" y="119">15</text></g><g class="vf-tabnote" id="vf-auto14787" pointer-events="bounding-box" font-family="Arial"><rect x="125" y="72" width="14.305" height="6" fill="#FFF" stroke="none"/><path stroke="none" d="M127 71.574L127 69.861L128.741 69.861L130.454 69.861L130.454 71.153L130.454 72.473L131.296 73.315L132.139 74.158L133.009 73.315L133.852 72.473L133.852 71.153L133.852 69.861L135.564 69.861L137.305 69.861L137.305 71.574L137.305 73.315L135.986 73.315L134.666 73.315L133.823 74.158L132.981 75L133.823 75.842L134.666 76.685L135.986 76.685L137.305 76.685L137.305 78.426L137.305 80.139L135.564 80.139L133.852 80.139L133.852 78.847L133.852 77.527L133.009 76.685L132.139 75.842L131.296 76.685L130.454 77.527L130.454 78.847L130.454 80.139L128.741 80.139L127 80.139L127 78.426L127 76.685L128.32 76.685L129.611 76.685L130.454 75.842L131.324 75L130.454 74.158L129.611 73.315L128.32 73.315L127 73.315"/><rect x="126.442" y="111" width="11.422" height="6" fill="#FFF" stroke="none"/><text stroke="none" font-family="Arial, sans-serif" x="128.442" y="119">5</text></g><g class="vf-tabnote" id="vf-auto14790" pointer-events="bounding-box" font-family="Arial"><rect x="150" y="72" width="18.828" height="6" fill="#FFF" stroke="none"/><text stroke="none" font-family="Arial, sans-serif" x="152" y="80">10</text><rect x="150" y="111" width="18.828" height="6" fill="#FFF" stroke="none"/><text stroke="none" font-family="Arial, sans-serif" x="152" y="119">12</text></g><g class="vf-tabnote" id="vf-auto14792" pointer-events="bounding-box" font-family="Arial"><rect x="175" y="124" width="11.422" height="6" fill="#FFF" stroke="none"/><text stroke="none" font-family="Arial, sans-serif" x="177" y="132">0</text><rect x="175" y="111" width="11.422" height="6" fill="#FFF" stroke="none"/><text stroke="none" font-family="Arial, sans-serif" x="177" y="119">5</text><rect x="175" y="98" width="11.422" height="6" fill="#FFF" stroke="none"/><text stroke="none" font-family="Arial, sans-serif" x="177" y="106">5</text><rect x="175" y="85" width="11.422" height="6" fill="#FFF" stroke="none"/><text stroke="none" font-family="Arial, sans-serif" x="177" y="93">4</text><rect x="175" y="72" width="11.422" height="6" fill="#FFF" stroke="none"/><text stroke="none" font-family="Arial, sans-serif" x="177" y="80">3</text><rect x="175" y="59" width="11.422" height="6" fill="#FFF" stroke="none"/><text stroke="none" font-family="Arial, sans-serif" x="177" y="67">0</text></g><g class="vf-tabnote" id="vf-auto14794" pointer-events="bounding-box" font-family="Arial"><rect x="200" y="59" width="11.422" height="6" fill="#FFF" stroke="none"/><text stroke="none" font-family="Arial, sans-serif" x="202" y="67">6</text><rect x="200" y="98" width="11.422" height="6" fill="#FFF" stroke="none"/><text stroke="none" font-family="Arial, sans-serif" x="202" y="106">5</text></g></svg>