<svg xmlns="http://www.w3.org/2000/svg" stroke-width="0.3" stroke-dasharray="none" fill="black" stroke="black" font-family="Arial, sans-serif" font-size="10pt" font-weight="normal" font-style="normal" width="700" height="240" viewBox="0 0 700 240" style="width: 700px; height: 240px; border: none;"><g class="vf-stave" id="vf-auto21823" stroke-width="1" fill="#999999" stroke="#999999"><path fill="none" d="M10 50L560 50"/><path fill="none" d="M10 60L560 60"/><path fill="none" d="M10 70L560 70"/><path fill="none" d="M10 80L560 80"/><path fill="none" d="M10 90L560 90"/></g><g class="vf-stavebarline" id="vf-auto21824"><rect x="10" y="49.5" width="1" height="41" stroke="none"/></g><g class="vf-stavebarline" id="vf-auto21825"><rect x="560" y="49.5" width="1" height="41" stroke="none"/></g><g class="vf-stavenote" id="vf-auto21826"><path stroke-width="1.4" fill="none" stroke="#444" d="M49.307 100L72.576 100"/><g class="vf-notehead" id="vf-auto21831" pointer-events="bounding-box"><path stroke="none" d="M59.972 94.918C60.309 94.889,60.618 94.889,60.927 94.889C65.027 94.889,68.649 96.602,69.435 98.989C69.548 99.326,69.576 99.691,69.576 100C69.576 102.808,65.841 105.111,60.927 105.111C56.097 105.111,52.307 102.864,52.307 100C52.307 97.36,55.592 95.198,59.972 94.918M60.422 95.563C60.253 95.535,60.085 95.535,59.916 95.535C58.231 95.535,57.08 96.939,57.08 98.849C57.08 99.41,57.192 100.028,57.417 100.674C58.288 103.089,60.281 104.465,61.966 104.465C63.061 104.465,64.044 103.903,64.521 102.668C64.718 102.19,64.802 101.685,64.802 101.179C64.802 98.68,62.837 95.928,60.422 95.563"/><path stroke="none" d="M30.356 83.119C30.41 83.092,30.492 83.092,30.575 83.092C30.793 83.092,31.012 83.228,31.094 83.447C31.149 83.529,31.149 83.529,31.149 89.767L31.149 96.005L31.204 95.951C32.216 95.103,33.283 94.637,34.35 94.637C34.761 94.637,35.171 94.72,35.554 94.856C36.758 95.294,37.442 96.388,37.442 97.729C37.442 98.44,37.223 99.207,36.813 99.973C36.238 101.04,35.472 101.888,33.311 103.803C32.161 104.843,31.888 105.089,31.231 105.718C30.848 106.074,30.793 106.101,30.575 106.101C30.328 106.101,30.137 105.964,30.055 105.773L30 105.664L30 94.61L30 83.529L30.055 83.447C30.082 83.31,30.219 83.174,30.356 83.119M33.639 96.471C33.529 96.443,33.311 96.416,33.174 96.416C33.119 96.416,33.092 96.416,33.064 96.443C32.353 96.525,31.724 96.963,31.259 97.647L31.149 97.839L31.149 100.985L31.149 104.159L31.231 104.049C33.228 101.86,34.514 99.371,34.514 97.729C34.514 97.565,34.514 97.401,34.487 97.264C34.405 96.881,34.077 96.553,33.639 96.471"/></g><g class="vf-notehead" id="vf-auto21832" pointer-events="bounding-box"><path stroke="none" d="M59.972 84.918C60.309 84.889,60.618 84.889,60.927 84.889C65.027 84.889,68.649 86.602,69.435 88.989C69.548 89.326,69.576 89.691,69.576 90C69.576 92.808,65.841 95.111,60.927 95.111C56.097 95.111,52.307 92.864,52.307 90C52.307 87.36,55.592 85.198,59.972 84.918M60.422 85.563C60.253 85.535,60.085 85.535,59.916 85.535C58.231 85.535,57.08 86.939,57.08 88.849C57.08 89.41,57.192 90.028,57.417 90.674C58.288 93.089,60.281 94.465,61.966 94.465C63.061 94.465,64.044 93.903,64.521 92.668C64.718 92.19,64.802 91.685,64.802 91.179C64.802 88.68,62.837 85.928,60.422 85.563"/><path stroke="none" d="M46.406 75.691C46.461 75.663,46.543 75.636,46.625 75.636C46.844 75.636,47.063 75.773,47.145 75.992C47.172 76.101,47.172 76.128,47.172 79.603C47.172 82.859,47.172 83.078,47.227 83.078C47.227 83.078,47.227 83.078,47.227 83.078C47.528 82.996,48.65 82.75,48.732 82.75C48.978 82.75,49.17 82.886,49.252 83.078C49.279 83.16,49.307 83.789,49.307 84.419C49.307 85.048,49.279 85.677,49.252 85.759C49.17 86.033,49.115 86.033,48.021 86.306L47.172 86.525L47.172 89.425C47.172 92.134,47.172 92.353,47.2 92.353C47.227 92.353,47.227 92.353,47.227 92.353C47.528 92.244,48.65 91.997,48.732 91.997C48.896 91.997,49.006 92.052,49.142 92.161C49.279 92.326,49.279 92.271,49.279 93.311C49.279 93.42,49.279 93.557,49.279 93.694C49.279 93.83,49.279 93.94,49.279 94.049C49.279 95.116,49.279 95.062,49.142 95.198C49.006 95.335,49.006 95.335,48.021 95.581L47.172 95.773L47.172 99.33C47.172 102.832,47.172 102.859,47.145 102.941C47.063 103.188,46.844 103.297,46.625 103.297C46.488 103.297,46.324 103.242,46.215 103.133C46.078 102.996,46.051 103.242,46.051 101.053C46.051 100.616,46.051 100.096,46.051 99.467C46.051 97.579,46.051 96.047,46.051 96.047C46.051 96.047,45.504 96.183,44.847 96.348C44.163 96.512,43.616 96.648,43.616 96.648C43.616 96.648,43.616 98.29,43.616 100.287C43.616 103.872,43.616 103.899,43.561 104.008C43.479 104.227,43.26 104.364,43.041 104.364C42.904 104.364,42.74 104.309,42.631 104.2C42.494 104.036,42.494 104.282,42.494 102.066C42.494 101.628,42.494 101.081,42.494 100.424C42.494 97.168,42.494 96.949,42.467 96.949C42.467 96.949,42.467 96.949,42.439 96.949C42.111 97.032,41.099 97.25,41.016 97.25C40.77 97.25,40.551 97.114,40.469 96.922C40.442 96.84,40.442 96.211,40.442 95.581C40.442 94.952,40.442 94.323,40.469 94.241C40.579 93.995,40.633 93.967,41.673 93.694L42.494 93.502L42.494 90.575C42.494 87.866,42.494 87.674,42.467 87.674C42.467 87.674,42.467 87.674,42.439 87.674C42.111 87.756,41.099 88.003,41.016 88.003C40.77 88.003,40.551 87.866,40.469 87.647C40.442 87.592,40.442 86.936,40.442 86.306C40.442 85.677,40.442 85.048,40.469 84.966C40.579 84.72,40.633 84.692,41.673 84.446L42.494 84.254L42.494 80.698C42.494 77.168,42.494 77.141,42.521 77.059C42.603 76.812,42.822 76.703,43.041 76.703C43.178 76.703,43.342 76.758,43.452 76.867C43.588 77.004,43.616 76.758,43.616 78.947C43.616 79.384,43.616 79.904,43.616 80.561C43.616 82.421,43.616 83.953,43.616 83.953C43.616 83.953,44.163 83.817,44.82 83.68C45.504 83.516,46.051 83.379,46.051 83.379C46.051 83.379,46.051 81.737,46.051 79.74C46.051 76.128,46.051 76.101,46.105 75.992C46.133 75.882,46.27 75.745,46.406 75.691M46.051 89.699C46.051 87.401,46.051 86.799,46.051 86.799L46.051 86.799C46.023 86.799,45.832 86.826,45.613 86.908C45.394 86.963,44.847 87.072,44.409 87.182L43.616 87.401L43.616 90.301C43.616 91.915,43.616 93.228,43.616 93.228C43.616 93.228,44.163 93.092,44.82 92.928C45.504 92.763,46.051 92.627,46.051 92.627C46.051 92.627,46.051 91.313,46.051 89.699"/></g><g class="vf-notehead" id="vf-auto21833" pointer-events="bounding-box"><path stroke="none" d="M59.972 69.918C60.309 69.889,60.618 69.889,60.927 69.889C65.027 69.889,68.649 71.602,69.435 73.989C69.548 74.326,69.576 74.691,69.576 75C69.576 77.808,65.841 80.111,60.927 80.111C56.097 80.111,52.307 77.864,52.307 75C52.307 72.36,55.592 70.198,59.972 69.918M60.422 70.563C60.253 70.535,60.085 70.535,59.916 70.535C58.231 70.535,57.08 71.939,57.08 73.849C57.08 74.41,57.192 75.028,57.417 75.674C58.288 78.089,60.281 79.465,61.966 79.465C63.061 79.465,64.044 78.903,64.521 77.668C64.718 77.19,64.802 76.685,64.802 76.179C64.802 73.68,62.837 70.928,60.422 70.563"/></g></g><g class="vf-stavenote" id="vf-auto21838"><g class="vf-stem" id="vf-auto21839" pointer-events="bounding-box"><path stroke-width="1.5" fill="none" d="M145.6 93.5L145.6 10"/></g><g class="vf-notehead" id="vf-auto21847" pointer-events="bounding-box"><path stroke="none" d="M141.464 89.889C141.548 89.889,141.633 89.889,141.773 89.889C142.138 89.889,142.672 89.918,142.868 89.946C145.199 90.283,146.35 91.827,146.35 93.624C146.35 95.534,145.058 97.724,142.475 99.128C141.211 99.802,139.92 100.111,138.74 100.111C136.578 100.111,134.809 99.044,134.444 97.162C134.388 96.881,134.36 96.629,134.36 96.376C134.36 93.343,137.617 90.283,141.464 89.889M144.609 91.35C144.469 91.293,144.328 91.293,144.16 91.293C142.447 91.293,138.937 93.371,136.971 95.674C136.129 96.657,135.68 97.527,135.68 98.061C135.68 98.313,135.764 98.482,135.932 98.566C136.101 98.678,136.326 98.707,136.55 98.707C138.375 98.707,142.166 96.376,144.048 93.961C144.721 93.119,145.058 92.417,145.058 91.967C145.058 91.658,144.89 91.434,144.609 91.35"/><path stroke="none" d="M95.018 91.662L95.018 89.993L96.714 89.993L98.383 89.993L98.383 91.252L98.383 92.538L99.204 93.358L100.025 94.179L100.873 93.358L101.694 92.538L101.694 91.252L101.694 89.993L103.362 89.993L105.059 89.993L105.059 91.662L105.059 93.358L103.773 93.358L102.487 93.358L101.666 94.179L100.845 95L101.666 95.821L102.487 96.642L103.773 96.642L105.059 96.642L105.059 98.338L105.059 100.007L103.362 100.007L101.694 100.007L101.694 98.748L101.694 97.462L100.873 96.642L100.025 95.821L99.204 96.642L98.383 97.462L98.383 98.748L98.383 100.007L96.714 100.007L95.018 100.007L95.018 98.338L95.018 96.642L96.304 96.642L97.562 96.642L98.383 95.821L99.231 95L98.383 94.179L97.562 93.358L96.304 93.358L95.018 93.358"/></g><g class="vf-notehead" id="vf-auto21848" pointer-events="bounding-box"><path stroke="none" d="M152.704 84.889C152.789 84.889,152.873 84.889,153.013 84.889C153.378 84.889,153.912 84.918,154.108 84.946C156.439 85.283,157.59 86.827,157.59 88.624C157.59 90.534,156.299 92.724,153.715 94.128C152.452 94.802,151.16 95.111,149.981 95.111C147.818 95.111,146.049 94.044,145.684 92.162C145.628 91.881,145.6 91.629,145.6 91.376C145.6 88.343,148.857 85.283,152.704 84.889M155.849 86.35C155.709 86.293,155.568 86.293,155.4 86.293C153.687 86.293,150.177 88.371,148.212 90.674C147.369 91.657,146.92 92.527,146.92 93.061C146.92 93.313,147.004 93.482,147.173 93.566C147.341 93.678,147.566 93.707,147.79 93.707C149.616 93.707,153.406 91.376,155.288 88.961C155.962 88.119,156.299 87.417,156.299 86.967C156.299 86.658,156.13 86.434,155.849 86.35"/><path stroke="none" d="M108.387 77.688C108.469 77.661,108.551 77.661,108.606 77.661C108.852 77.661,109.071 77.77,109.153 77.989C109.181 78.098,109.181 78.126,109.181 81.3C109.181 83.57,109.181 84.501,109.208 84.501C109.208 84.501,110.275 84.227,111.561 83.926C113.449 83.461,113.886 83.324,114.078 83.324C114.16 83.324,114.187 83.352,114.242 83.379C114.379 83.406,114.516 83.543,114.543 83.68L114.598 83.762L114.598 92.845L114.598 101.902L114.543 102.011C114.461 102.23,114.242 102.339,114.023 102.339C113.886 102.339,113.722 102.312,113.613 102.203C113.476 102.038,113.449 102.285,113.449 100.068C113.449 99.685,113.449 99.22,113.449 98.646C113.449 96.293,113.449 95.363,113.449 95.363C113.421 95.363,112.354 95.636,111.068 95.937C109.208 96.402,108.743 96.512,108.551 96.512C108.497 96.512,108.442 96.512,108.414 96.484C108.278 96.457,108.141 96.32,108.086 96.183L108.059 96.074L108.059 87.1L108.059 78.098L108.086 77.989C108.141 77.88,108.278 77.743,108.387 77.688M113.449 89.398C113.449 88.851,113.449 88.44,113.449 88.085C113.449 86.963,113.449 86.881,113.421 86.881L113.421 86.881C113.421 86.881,112.464 87.127,111.287 87.401L109.181 87.921L109.181 90.465C109.181 90.903,109.181 91.286,109.181 91.587C109.181 92.681,109.181 92.982,109.208 92.982C109.208 92.982,110.166 92.736,111.342 92.462L113.449 91.943"/></g><g class="vf-notehead" id="vf-auto21849" pointer-events="bounding-box"><path stroke="none" d="M141.464 79.889C141.548 79.889,141.633 79.889,141.773 79.889C142.138 79.889,142.672 79.918,142.868 79.946C145.199 80.283,146.35 81.827,146.35 83.624C146.35 85.534,145.058 87.724,142.475 89.128C141.211 89.802,139.92 90.111,138.74 90.111C136.578 90.111,134.809 89.044,134.444 87.162C134.388 86.881,134.36 86.629,134.36 86.376C134.36 83.343,137.617 80.283,141.464 79.889M144.609 81.35C144.469 81.293,144.328 81.293,144.16 81.293C142.447 81.293,138.937 83.371,136.971 85.674C136.129 86.657,135.68 87.527,135.68 88.061C135.68 88.313,135.764 88.482,135.932 88.566C136.101 88.678,136.326 88.707,136.55 88.707C138.375 88.707,142.166 86.376,144.048 83.961C144.721 83.119,145.058 82.417,145.058 81.967C145.058 81.658,144.89 81.434,144.609 81.35"/><path stroke="none" d="M117.954 68.119C118.008 68.092,118.09 68.092,118.172 68.092C118.391 68.092,118.61 68.228,118.692 68.447C118.747 68.529,118.747 68.529,118.747 74.767L118.747 81.005L118.802 80.951C119.814 80.103,120.963 79.637,122.003 79.637C122.687 79.637,123.316 79.829,123.836 80.212L123.918 80.267L123.918 74.384L123.945 68.475L123.973 68.392C124.082 68.201,124.274 68.092,124.493 68.092C124.711 68.092,124.93 68.201,125.012 68.447C125.04 68.529,125.04 68.529,125.04 74.767L125.04 81.005L125.122 80.951C126.134 80.103,127.201 79.637,128.241 79.637C128.679 79.637,129.089 79.72,129.472 79.856C130.676 80.294,131.36 81.388,131.36 82.729C131.36 83.44,131.141 84.207,130.731 84.973C130.156 86.04,129.363 86.888,127.229 88.803C126.079 89.843,125.806 90.089,125.149 90.718C124.766 91.074,124.711 91.101,124.493 91.101C124.328 91.101,124.192 91.047,124.082 90.937C123.945 90.8,123.918 90.964,123.918 89.213C123.918 88.94,123.918 88.612,123.918 88.201L123.918 85.766L123.781 85.93C123.152 86.724,122.55 87.353,120.908 88.803C119.759 89.843,119.486 90.089,118.829 90.718C118.446 91.074,118.391 91.101,118.172 91.101C117.926 91.101,117.735 90.964,117.653 90.773L117.598 90.664L117.598 79.61L117.598 68.529L117.653 68.447C117.68 68.31,117.817 68.174,117.954 68.119M121.237 81.471C121.127 81.443,120.908 81.416,120.772 81.416C120.717 81.416,120.69 81.416,120.662 81.443C119.951 81.525,119.322 81.963,118.856 82.647L118.747 82.839L118.747 85.985L118.747 89.159L118.829 89.049C120.826 86.86,122.112 84.371,122.112 82.729C122.112 82.565,122.112 82.401,122.085 82.264C122.003 81.881,121.674 81.553,121.237 81.471M127.53 81.471C127.447 81.443,127.229 81.416,127.092 81.416C127.037 81.416,127.01 81.416,126.982 81.443C126.271 81.525,125.642 81.963,125.177 82.647L125.04 82.839L125.04 85.985L125.04 89.159L125.149 89.049C127.146 86.86,128.432 84.371,128.432 82.729C128.432 82.565,128.432 82.401,128.378 82.264C128.323 81.881,127.995 81.553,127.53 81.471"/></g><g class="vf-notehead" id="vf-auto21850" pointer-events="bounding-box"><path stroke="none" d="M141.464 69.889C141.548 69.889,141.633 69.889,141.773 69.889C142.138 69.889,142.672 69.918,142.868 69.946C145.199 70.283,146.35 71.827,146.35 73.624C146.35 75.534,145.058 77.724,142.475 79.128C141.211 79.802,139.92 80.111,138.74 80.111C136.578 80.111,134.809 79.044,134.444 77.162C134.388 76.881,134.36 76.629,134.36 76.376C134.36 73.343,137.617 70.283,141.464 69.889M144.609 71.35C144.469 71.293,144.328 71.293,144.16 71.293C142.447 71.293,138.937 73.371,136.971 75.674C136.129 76.657,135.68 77.527,135.68 78.061C135.68 78.313,135.764 78.482,135.932 78.566C136.101 78.678,136.326 78.707,136.55 78.707C138.375 78.707,142.166 76.376,144.048 73.961C144.721 73.119,145.058 72.417,145.058 71.967C145.058 71.658,144.89 71.434,144.609 71.35"/><path stroke="none" d="M84.931 58.119C84.986 58.092,85.068 58.092,85.15 58.092C85.369 58.092,85.588 58.228,85.67 58.447C85.725 58.529,85.725 58.529,85.725 64.767L85.725 71.005L85.78 70.951C86.792 70.103,87.859 69.637,88.926 69.637C89.336 69.637,89.747 69.72,90.13 69.856C91.334 70.294,92.018 71.388,92.018 72.729C92.018 73.44,91.799 74.207,91.388 74.973C90.814 76.04,90.048 76.888,87.886 78.803C86.737 79.843,86.464 80.089,85.807 80.718C85.424 81.074,85.369 81.101,85.15 81.101C84.904 81.101,84.713 80.964,84.63 80.773L84.576 80.664L84.576 69.61L84.576 58.529L84.63 58.447C84.658 58.31,84.795 58.174,84.931 58.119M88.215 71.471C88.105 71.443,87.886 71.416,87.75 71.416C87.695 71.416,87.667 71.416,87.64 71.443C86.929 71.525,86.299 71.963,85.834 72.647L85.725 72.839L85.725 75.985L85.725 79.159L85.807 79.049C87.804 76.86,89.09 74.371,89.09 72.729C89.09 72.565,89.09 72.401,89.063 72.264C88.981 71.881,88.652 71.553,88.215 71.471"/></g><g class="vf-notehead" id="vf-auto21851" pointer-events="bounding-box"><path stroke="none" d="M141.464 59.889C141.548 59.889,141.633 59.889,141.773 59.889C142.138 59.889,142.672 59.918,142.868 59.946C145.199 60.283,146.35 61.827,146.35 63.624C146.35 65.534,145.058 67.724,142.475 69.128C141.211 69.802,139.92 70.111,138.74 70.111C136.578 70.111,134.809 69.044,134.444 67.162C134.388 66.881,134.36 66.629,134.36 66.376C134.36 63.343,137.617 60.283,141.464 59.889M144.609 61.35C144.469 61.293,144.328 61.293,144.16 61.293C142.447 61.293,138.937 63.371,136.971 65.674C136.129 66.657,135.68 67.527,135.68 68.061C135.68 68.313,135.764 68.482,135.932 68.566C136.101 68.678,136.326 68.707,136.55 68.707C138.375 68.707,142.166 66.376,144.048 63.961C144.721 63.119,145.058 62.417,145.058 61.967C145.058 61.658,144.89 61.434,144.609 61.35"/><path stroke="none" d="M102.159 50.691C102.213 50.663,102.295 50.636,102.378 50.636C102.596 50.636,102.815 50.773,102.897 50.992C102.925 51.101,102.925 51.128,102.925 54.603C102.925 57.859,102.925 58.078,102.979 58.078C102.979 58.078,102.979 58.078,102.979 58.078C103.28 57.996,104.402 57.75,104.484 57.75C104.73 57.75,104.922 57.886,105.004 58.078C105.031 58.16,105.059 58.789,105.059 59.419C105.059 60.048,105.031 60.677,105.004 60.759C104.922 61.033,104.867 61.033,103.773 61.306L102.925 61.525L102.925 64.425C102.925 67.134,102.925 67.353,102.952 67.353C102.979 67.353,102.979 67.353,102.979 67.353C103.28 67.244,104.402 66.997,104.484 66.997C104.648 66.997,104.758 67.052,104.895 67.161C105.031 67.326,105.031 67.271,105.031 68.311C105.031 68.42,105.031 68.557,105.031 68.694C105.031 68.83,105.031 68.94,105.031 69.049C105.031 70.116,105.031 70.062,104.895 70.198C104.758 70.335,104.758 70.335,103.773 70.581L102.925 70.773L102.925 74.33C102.925 77.832,102.925 77.859,102.897 77.941C102.815 78.188,102.596 78.297,102.378 78.297C102.241 78.297,102.077 78.242,101.967 78.133C101.83 77.996,101.803 78.242,101.803 76.053C101.803 75.616,101.803 75.096,101.803 74.467C101.803 72.579,101.803 71.047,101.803 71.047C101.803 71.047,101.256 71.183,100.599 71.348C99.915 71.512,99.368 71.648,99.368 71.648C99.368 71.648,99.368 73.29,99.368 75.287C99.368 78.872,99.368 78.899,99.313 79.008C99.231 79.227,99.012 79.364,98.793 79.364C98.657 79.364,98.492 79.309,98.383 79.2C98.246 79.036,98.246 79.282,98.246 77.066C98.246 76.628,98.246 76.081,98.246 75.424C98.246 72.168,98.246 71.949,98.219 71.949C98.219 71.949,98.219 71.949,98.191 71.949C97.863 72.032,96.851 72.25,96.769 72.25C96.522 72.25,96.304 72.114,96.222 71.922C96.194 71.84,96.194 71.211,96.194 70.581C96.194 69.952,96.194 69.323,96.222 69.241C96.331 68.995,96.386 68.967,97.425 68.694L98.246 68.502L98.246 65.575C98.246 62.866,98.246 62.674,98.219 62.674C98.219 62.674,98.219 62.674,98.191 62.674C97.863 62.756,96.851 63.003,96.769 63.003C96.522 63.003,96.304 62.866,96.222 62.647C96.194 62.592,96.194 61.936,96.194 61.306C96.194 60.677,96.194 60.048,96.222 59.966C96.331 59.72,96.386 59.692,97.425 59.446L98.246 59.254L98.246 55.698C98.246 52.168,98.246 52.141,98.274 52.059C98.356 51.812,98.574 51.703,98.793 51.703C98.93 51.703,99.094 51.758,99.204 51.867C99.341 52.004,99.368 51.758,99.368 53.947C99.368 54.384,99.368 54.904,99.368 55.561C99.368 57.421,99.368 58.953,99.368 58.953C99.368 58.953,99.915 58.817,100.572 58.68C101.256 58.516,101.803 58.379,101.803 58.379C101.803 58.379,101.803 56.737,101.803 54.74C101.803 51.128,101.803 51.101,101.858 50.992C101.885 50.882,102.022 50.745,102.159 50.691M101.803 64.699C101.803 62.401,101.803 61.799,101.803 61.799L101.803 61.799C101.776 61.799,101.584 61.826,101.365 61.908C101.146 61.963,100.599 62.072,100.161 62.182L99.368 62.401L99.368 65.301C99.368 66.915,99.368 68.228,99.368 68.228C99.368 68.228,99.915 68.092,100.572 67.928C101.256 67.763,101.803 67.627,101.803 67.627C101.803 67.627,101.803 66.313,101.803 64.699"/></g><g class="vf-notehead" id="vf-auto21852" pointer-events="bounding-box"><path stroke="none" d="M141.464 49.889C141.548 49.889,141.633 49.889,141.773 49.889C142.138 49.889,142.672 49.918,142.868 49.946C145.199 50.283,146.35 51.827,146.35 53.624C146.35 55.534,145.058 57.724,142.475 59.128C141.211 59.802,139.92 60.111,138.74 60.111C136.578 60.111,134.809 59.044,134.444 57.162C134.388 56.881,134.36 56.629,134.36 56.376C134.36 53.343,137.617 50.283,141.464 49.889M144.609 51.35C144.469 51.293,144.328 51.293,144.16 51.293C142.447 51.293,138.937 53.371,136.971 55.674C136.129 56.657,135.68 57.527,135.68 58.061C135.68 58.313,135.764 58.482,135.932 58.566C136.101 58.678,136.326 58.707,136.55 58.707C138.375 58.707,142.166 56.376,144.048 53.961C144.721 53.119,145.058 52.417,145.058 51.967C145.058 51.658,144.89 51.434,144.609 51.35"/><path stroke="none" d="M108.387 42.688C108.469 42.661,108.551 42.661,108.606 42.661C108.852 42.661,109.071 42.77,109.153 42.989C109.181 43.098,109.181 43.126,109.181 46.3C109.181 48.57,109.181 49.501,109.208 49.501C109.208 49.501,110.275 49.227,111.561 48.926C113.449 48.461,113.886 48.324,114.078 48.324C114.16 48.324,114.187 48.352,114.242 48.379C114.379 48.406,114.516 48.543,114.543 48.68L114.598 48.762L114.598 57.845L114.598 66.902L114.543 67.011C114.461 67.23,114.242 67.339,114.023 67.339C113.886 67.339,113.722 67.312,113.613 67.203C113.476 67.038,113.449 67.285,113.449 65.068C113.449 64.685,113.449 64.22,113.449 63.646C113.449 61.293,113.449 60.363,113.449 60.363C113.421 60.363,112.354 60.636,111.068 60.937C109.208 61.402,108.743 61.512,108.551 61.512C108.497 61.512,108.442 61.512,108.414 61.484C108.278 61.457,108.141 61.32,108.086 61.183L108.059 61.074L108.059 52.1L108.059 43.098L108.086 42.989C108.141 42.88,108.278 42.743,108.387 42.688M113.449 54.398C113.449 53.851,113.449 53.44,113.449 53.085C113.449 51.963,113.449 51.881,113.421 51.881L113.421 51.881C113.421 51.881,112.464 52.127,111.287 52.401L109.181 52.921L109.181 55.465C109.181 55.903,109.181 56.286,109.181 56.587C109.181 57.681,109.181 57.982,109.208 57.982C109.208 57.982,110.166 57.736,111.342 57.462L113.449 56.943"/></g><g class="vf-notehead" id="vf-auto21853" pointer-events="bounding-box"><path stroke="none" d="M141.464 39.889C141.548 39.889,141.633 39.889,141.773 39.889C142.138 39.889,142.672 39.918,142.868 39.946C145.199 40.283,146.35 41.827,146.35 43.624C146.35 45.534,145.058 47.724,142.475 49.128C141.211 49.802,139.92 50.111,138.74 50.111C136.578 50.111,134.809 49.044,134.444 47.162C134.388 46.881,134.36 46.629,134.36 46.376C134.36 43.343,137.617 40.283,141.464 39.889M144.609 41.35C144.469 41.293,144.328 41.293,144.16 41.293C142.447 41.293,138.937 43.371,136.971 45.674C136.129 46.657,135.68 47.527,135.68 48.061C135.68 48.313,135.764 48.482,135.932 48.566C136.101 48.678,136.326 48.707,136.55 48.707C138.375 48.707,142.166 46.376,144.048 43.961C144.721 43.119,145.058 42.417,145.058 41.967C145.058 41.658,144.89 41.434,144.609 41.35"/><path stroke="none" d="M117.954 28.119C118.008 28.092,118.09 28.092,118.172 28.092C118.391 28.092,118.61 28.228,118.692 28.447C118.747 28.529,118.747 28.529,118.747 34.767L118.747 41.005L118.802 40.951C119.814 40.103,120.963 39.637,122.003 39.637C122.687 39.637,123.316 39.829,123.836 40.212L123.918 40.267L123.918 34.384L123.945 28.475L123.973 28.392C124.082 28.201,124.274 28.092,124.493 28.092C124.711 28.092,124.93 28.201,125.012 28.447C125.04 28.529,125.04 28.529,125.04 34.767L125.04 41.005L125.122 40.951C126.134 40.103,127.201 39.637,128.241 39.637C128.679 39.637,129.089 39.72,129.472 39.856C130.676 40.294,131.36 41.388,131.36 42.729C131.36 43.44,131.141 44.207,130.731 44.973C130.156 46.04,129.363 46.888,127.229 48.803C126.079 49.843,125.806 50.089,125.149 50.718C124.766 51.074,124.711 51.101,124.493 51.101C124.328 51.101,124.192 51.047,124.082 50.937C123.945 50.8,123.918 50.964,123.918 49.213C123.918 48.94,123.918 48.612,123.918 48.201L123.918 45.766L123.781 45.93C123.152 46.724,122.55 47.353,120.908 48.803C119.759 49.843,119.486 50.089,118.829 50.718C118.446 51.074,118.391 51.101,118.172 51.101C117.926 51.101,117.735 50.964,117.653 50.773L117.598 50.664L117.598 39.61L117.598 28.529L117.653 28.447C117.68 28.31,117.817 28.174,117.954 28.119M121.237 41.471C121.127 41.443,120.908 41.416,120.772 41.416C120.717 41.416,120.69 41.416,120.662 41.443C119.951 41.525,119.322 41.963,118.856 42.647L118.747 42.839L118.747 45.985L118.747 49.159L118.829 49.049C120.826 46.86,122.112 44.371,122.112 42.729C122.112 42.565,122.112 42.401,122.085 42.264C122.003 41.881,121.674 41.553,121.237 41.471M127.53 41.471C127.447 41.443,127.229 41.416,127.092 41.416C127.037 41.416,127.01 41.416,126.982 41.443C126.271 41.525,125.642 41.963,125.177 42.647L125.04 42.839L125.04 45.985L125.04 49.159L125.149 49.049C127.146 46.86,128.432 44.371,128.432 42.729C128.432 42.565,128.432 42.401,128.378 42.264C128.323 41.881,127.995 41.553,127.53 41.471"/></g></g><g class="vf-stavenote" id="vf-auto21868"><g class="vf-stem" id="vf-auto21869" pointer-events="bounding-box"><path stroke-width="1.5" fill="none" d="M260.545 83.5L260.545 13"/></g><g class="vf-notehead" id="vf-auto21878" pointer-events="bounding-box"><path stroke="none" d="M256.409 79.889C256.493 79.889,256.578 79.889,256.718 79.889C257.083 79.889,257.616 79.918,257.813 79.946C260.144 80.283,261.295 81.827,261.295 83.624C261.295 85.534,260.003 87.724,257.42 89.128C256.156 89.802,254.865 90.111,253.685 90.111C251.523 90.111,249.754 89.044,249.389 87.162C249.333 86.881,249.305 86.629,249.305 86.376C249.305 83.343,252.562 80.283,256.409 79.889"/><path stroke="none" d="M228.229 72.688C228.312 72.661,228.394 72.661,228.448 72.661C228.695 72.661,228.913 72.77,228.996 72.989C229.023 73.098,229.023 73.126,229.023 76.3C229.023 78.57,229.023 79.501,229.05 79.501C229.05 79.501,230.117 79.227,231.403 78.926C233.291 78.461,233.729 78.324,233.92 78.324C234.002 78.324,234.03 78.352,234.084 78.379C234.221 78.406,234.358 78.543,234.385 78.68L234.44 78.762L234.44 87.845L234.44 96.902L234.385 97.011C234.303 97.23,234.084 97.339,233.866 97.339C233.729 97.339,233.565 97.312,233.455 97.203C233.318 97.038,233.291 97.285,233.291 95.068C233.291 94.685,233.291 94.22,233.291 93.646C233.291 91.293,233.291 90.363,233.291 90.363C233.264 90.363,232.197 90.636,230.911 90.937C229.05 91.402,228.585 91.512,228.394 91.512C228.339 91.512,228.284 91.512,228.257 91.484C228.12 91.457,227.983 91.32,227.928 91.183L227.901 91.074L227.901 82.1L227.901 73.098L227.928 72.989C227.983 72.88,228.12 72.743,228.229 72.688M233.291 84.398C233.291 83.851,233.291 83.44,233.291 83.085C233.291 81.963,233.291 81.881,233.264 81.881L233.264 81.881C233.264 81.881,232.306 82.127,231.13 82.401L229.023 82.921L229.023 85.465C229.023 85.903,229.023 86.286,229.023 86.587C229.023 87.681,229.023 87.982,229.05 87.982C229.05 87.982,230.008 87.736,231.184 87.462L233.291 86.943"/></g><g class="vf-notehead" id="vf-auto21879" pointer-events="bounding-box"><path stroke="none" d="M267.649 74.889C267.733 74.889,267.818 74.889,267.958 74.889C268.323 74.889,268.857 74.918,269.053 74.946C271.384 75.283,272.535 76.827,272.535 78.624C272.535 80.534,271.243 82.724,268.66 84.128C267.396 84.802,266.105 85.111,264.925 85.111C262.763 85.111,260.994 84.044,260.629 82.162C260.573 81.881,260.545 81.629,260.545 81.376C260.545 78.343,263.802 75.283,267.649 74.889"/><path stroke="none" d="M243.405 65.691C243.459 65.663,243.541 65.636,243.624 65.636C243.842 65.636,244.061 65.773,244.143 65.992C244.171 66.101,244.171 66.128,244.171 69.603C244.171 72.859,244.171 73.078,244.225 73.078C244.225 73.078,244.225 73.078,244.225 73.078C244.526 72.996,245.648 72.75,245.73 72.75C245.976 72.75,246.168 72.886,246.25 73.078C246.277 73.16,246.305 73.789,246.305 74.419C246.305 75.048,246.277 75.677,246.25 75.759C246.168 76.033,246.113 76.033,245.019 76.306L244.171 76.525L244.171 79.425C244.171 82.134,244.171 82.353,244.198 82.353C244.225 82.353,244.225 82.353,244.225 82.353C244.526 82.244,245.648 81.997,245.73 81.997C245.894 81.997,246.004 82.052,246.141 82.161C246.277 82.326,246.277 82.271,246.277 83.311C246.277 83.42,246.277 83.557,246.277 83.694C246.277 83.83,246.277 83.94,246.277 84.049C246.277 85.116,246.277 85.062,246.141 85.198C246.004 85.335,246.004 85.335,245.019 85.581L244.171 85.773L244.171 89.33C244.171 92.832,244.171 92.859,244.143 92.941C244.061 93.188,243.842 93.297,243.624 93.297C243.487 93.297,243.323 93.242,243.213 93.133C243.076 92.996,243.049 93.242,243.049 91.053C243.049 90.616,243.049 90.096,243.049 89.467C243.049 87.579,243.049 86.047,243.049 86.047C243.049 86.047,242.502 86.183,241.845 86.348C241.161 86.512,240.614 86.648,240.614 86.648C240.614 86.648,240.614 88.29,240.614 90.287C240.614 93.872,240.614 93.899,240.559 94.008C240.477 94.227,240.258 94.364,240.039 94.364C239.903 94.364,239.738 94.309,239.629 94.2C239.492 94.036,239.492 94.282,239.492 92.066C239.492 91.628,239.492 91.081,239.492 90.424C239.492 87.168,239.492 86.949,239.465 86.949C239.465 86.949,239.465 86.949,239.437 86.949C239.109 87.032,238.097 87.25,238.015 87.25C237.768 87.25,237.55 87.114,237.468 86.922C237.44 86.84,237.44 86.211,237.44 85.581C237.44 84.952,237.44 84.323,237.468 84.241C237.577 83.995,237.632 83.967,238.671 83.694L239.492 83.502L239.492 80.575C239.492 77.866,239.492 77.674,239.465 77.674C239.465 77.674,239.465 77.674,239.437 77.674C239.109 77.756,238.097 78.003,238.015 78.003C237.768 78.003,237.55 77.866,237.468 77.647C237.44 77.592,237.44 76.936,237.44 76.306C237.44 75.677,237.44 75.048,237.468 74.966C237.577 74.72,237.632 74.692,238.671 74.446L239.492 74.254L239.492 70.698C239.492 67.168,239.492 67.141,239.52 67.059C239.602 66.812,239.82 66.703,240.039 66.703C240.176 66.703,240.34 66.758,240.45 66.867C240.587 67.004,240.614 66.758,240.614 68.947C240.614 69.384,240.614 69.904,240.614 70.561C240.614 72.421,240.614 73.953,240.614 73.953C240.614 73.953,241.161 73.817,241.818 73.68C242.502 73.516,243.049 73.379,243.049 73.379C243.049 73.379,243.049 71.737,243.049 69.74C243.049 66.128,243.049 66.101,243.104 65.992C243.131 65.882,243.268 65.745,243.405 65.691M243.049 79.699C243.049 77.401,243.049 76.799,243.049 76.799L243.049 76.799C243.022 76.799,242.83 76.826,242.611 76.908C242.392 76.963,241.845 77.072,241.407 77.182L240.614 77.401L240.614 80.301C240.614 81.915,240.614 83.228,240.614 83.228C240.614 83.228,241.161 83.092,241.818 82.928C242.502 82.763,243.049 82.627,243.049 82.627C243.049 82.627,243.049 81.313,243.049 79.699"/></g><g class="vf-notehead" id="vf-auto21880" pointer-events="bounding-box"><path stroke="none" d="M256.409 69.889C256.493 69.889,256.578 69.889,256.718 69.889C257.083 69.889,257.616 69.918,257.813 69.946C260.144 70.283,261.295 71.827,261.295 73.624C261.295 75.534,260.003 77.724,257.42 79.128C256.156 79.802,254.865 80.111,253.685 80.111C251.523 80.111,249.754 79.044,249.389 77.162C249.333 76.881,249.305 76.629,249.305 76.376C249.305 73.343,252.562 70.283,256.409 69.889"/><path stroke="none" d="M191.295 60.691C191.35 60.663,191.432 60.636,191.514 60.636C191.733 60.636,191.952 60.773,192.034 60.992C192.061 61.101,192.061 61.128,192.061 64.603C192.061 67.859,192.061 68.078,192.116 68.078C192.116 68.078,192.116 68.078,192.116 68.078C192.417 67.996,193.538 67.75,193.62 67.75C193.867 67.75,194.058 67.886,194.14 68.078C194.168 68.16,194.195 68.789,194.195 69.419C194.195 70.048,194.168 70.677,194.14 70.759C194.058 71.033,194.004 71.033,192.909 71.306L192.061 71.525L192.061 74.425C192.061 77.134,192.061 77.353,192.088 77.353C192.116 77.353,192.116 77.353,192.116 77.353C192.417 77.244,193.538 76.997,193.62 76.997C193.785 76.997,193.894 77.052,194.031 77.161C194.168 77.326,194.168 77.271,194.168 78.311C194.168 78.42,194.168 78.557,194.168 78.694C194.168 78.83,194.168 78.94,194.168 79.049C194.168 80.116,194.168 80.062,194.031 80.198C193.894 80.335,193.894 80.335,192.909 80.581L192.061 80.773L192.061 84.33C192.061 87.832,192.061 87.859,192.034 87.941C191.952 88.188,191.733 88.297,191.514 88.297C191.377 88.297,191.213 88.242,191.103 88.133C190.967 87.996,190.939 88.242,190.939 86.053C190.939 85.616,190.939 85.096,190.939 84.467C190.939 82.579,190.939 81.047,190.939 81.047C190.939 81.047,190.392 81.183,189.735 81.348C189.051 81.512,188.504 81.648,188.504 81.648C188.504 81.648,188.504 83.29,188.504 85.287C188.504 88.872,188.504 88.899,188.449 89.008C188.367 89.227,188.148 89.364,187.93 89.364C187.793 89.364,187.629 89.309,187.519 89.2C187.382 89.036,187.382 89.282,187.382 87.066C187.382 86.628,187.382 86.081,187.382 85.424C187.382 82.168,187.382 81.949,187.355 81.949C187.355 81.949,187.355 81.949,187.328 81.949C186.999 82.032,185.987 82.25,185.905 82.25C185.659 82.25,185.44 82.114,185.358 81.922C185.33 81.84,185.33 81.211,185.33 80.581C185.33 79.952,185.33 79.323,185.358 79.241C185.467 78.995,185.522 78.967,186.562 78.694L187.382 78.502L187.382 75.575C187.382 72.866,187.382 72.674,187.355 72.674C187.355 72.674,187.355 72.674,187.328 72.674C186.999 72.756,185.987 73.003,185.905 73.003C185.659 73.003,185.44 72.866,185.358 72.647C185.33 72.592,185.33 71.936,185.33 71.306C185.33 70.677,185.33 70.048,185.358 69.966C185.467 69.72,185.522 69.692,186.562 69.446L187.382 69.254L187.382 65.698C187.382 62.168,187.382 62.141,187.41 62.059C187.492 61.812,187.711 61.703,187.93 61.703C188.066 61.703,188.231 61.758,188.34 61.867C188.477 62.004,188.504 61.758,188.504 63.947C188.504 64.384,188.504 64.904,188.504 65.561C188.504 67.421,188.504 68.953,188.504 68.953C188.504 68.953,189.051 68.817,189.708 68.68C190.392 68.516,190.939 68.379,190.939 68.379C190.939 68.379,190.939 66.737,190.939 64.74C190.939 61.128,190.939 61.101,190.994 60.992C191.021 60.882,191.158 60.745,191.295 60.691M190.939 74.699C190.939 72.401,190.939 71.799,190.939 71.799L190.939 71.799C190.912 71.799,190.72 71.826,190.501 71.908C190.283 71.963,189.735 72.072,189.298 72.182L188.504 72.401L188.504 75.301C188.504 76.915,188.504 78.228,188.504 78.228C188.504 78.228,189.051 78.092,189.708 77.928C190.392 77.763,190.939 77.627,190.939 77.627C190.939 77.627,190.939 76.313,190.939 74.699"/></g><g class="vf-notehead" id="vf-auto21881" pointer-events="bounding-box"><path stroke="none" d="M267.649 64.889C267.733 64.889,267.818 64.889,267.958 64.889C268.323 64.889,268.857 64.918,269.053 64.946C271.384 65.283,272.535 66.827,272.535 68.624C272.535 70.534,271.243 72.724,268.66 74.128C267.396 74.802,266.105 75.111,264.925 75.111C262.763 75.111,260.994 74.044,260.629 72.162C260.573 71.881,260.545 71.629,260.545 71.376C260.545 68.343,263.802 65.283,267.649 64.889"/><path stroke="none" d="M197.551 53.119C197.605 53.092,197.688 53.092,197.77 53.092C197.988 53.092,198.207 53.228,198.289 53.447C198.344 53.529,198.344 53.529,198.344 59.767L198.344 66.005L198.399 65.951C199.411 65.103,200.478 64.637,201.545 64.637C201.956 64.637,202.366 64.72,202.749 64.856C203.953 65.294,204.637 66.388,204.637 67.729C204.637 68.44,204.418 69.207,204.008 69.973C203.433 71.04,202.667 71.888,200.506 73.803C199.356 74.843,199.083 75.089,198.426 75.718C198.043 76.074,197.988 76.101,197.77 76.101C197.523 76.101,197.332 75.964,197.25 75.773L197.195 75.664L197.195 64.61L197.195 53.529L197.25 53.447C197.277 53.31,197.414 53.174,197.551 53.119M200.834 66.471C200.724 66.443,200.506 66.416,200.369 66.416C200.314 66.416,200.287 66.416,200.259 66.443C199.548 66.525,198.919 66.963,198.454 67.647L198.344 67.839L198.344 70.985L198.344 74.159L198.426 74.049C200.424 71.86,201.709 69.371,201.709 67.729C201.709 67.565,201.709 67.401,201.682 67.264C201.6 66.881,201.272 66.553,200.834 66.471"/></g><g class="vf-notehead" id="vf-auto21882" pointer-events="bounding-box"><path stroke="none" d="M256.409 59.889C256.493 59.889,256.578 59.889,256.718 59.889C257.083 59.889,257.616 59.918,257.813 59.946C260.144 60.283,261.295 61.827,261.295 63.624C261.295 65.534,260.003 67.724,257.42 69.128C256.156 69.802,254.865 70.111,253.685 70.111C251.523 70.111,249.754 69.044,249.389 67.162C249.333 66.881,249.305 66.629,249.305 66.376C249.305 63.343,252.562 60.283,256.409 59.889"/><path stroke="none" d="M207.993 48.119C208.047 48.092,208.129 48.092,208.212 48.092C208.43 48.092,208.649 48.228,208.731 48.447C208.786 48.529,208.786 48.529,208.786 54.767L208.786 61.005L208.841 60.951C209.853 60.103,211.002 59.637,212.042 59.637C212.726 59.637,213.355 59.829,213.875 60.212L213.957 60.267L213.957 54.384L213.984 48.475L214.012 48.392C214.121 48.201,214.313 48.092,214.532 48.092C214.751 48.092,214.969 48.201,215.052 48.447C215.079 48.529,215.079 48.529,215.079 54.767L215.079 61.005L215.161 60.951C216.173 60.103,217.24 59.637,218.28 59.637C218.718 59.637,219.128 59.72,219.511 59.856C220.715 60.294,221.399 61.388,221.399 62.729C221.399 63.44,221.18 64.207,220.77 64.973C220.195 66.04,219.402 66.888,217.268 68.803C216.119 69.843,215.845 70.089,215.188 70.718C214.805 71.074,214.751 71.101,214.532 71.101C214.368 71.101,214.231 71.047,214.121 70.937C213.984 70.8,213.957 70.964,213.957 69.213C213.957 68.94,213.957 68.612,213.957 68.201L213.957 65.766L213.82 65.93C213.191 66.724,212.589 67.353,210.948 68.803C209.798 69.843,209.525 70.089,208.868 70.718C208.485 71.074,208.43 71.101,208.212 71.101C207.965 71.101,207.774 70.964,207.692 70.773L207.637 70.664L207.637 59.61L207.637 48.529L207.692 48.447C207.719 48.31,207.856 48.174,207.993 48.119M211.276 61.471C211.166 61.443,210.948 61.416,210.811 61.416C210.756 61.416,210.729 61.416,210.701 61.443C209.99 61.525,209.361 61.963,208.896 62.647L208.786 62.839L208.786 65.985L208.786 69.159L208.868 69.049C210.865 66.86,212.151 64.371,212.151 62.729C212.151 62.565,212.151 62.401,212.124 62.264C212.042 61.881,211.714 61.553,211.276 61.471M217.569 61.471C217.487 61.443,217.268 61.416,217.131 61.416C217.076 61.416,217.049 61.416,217.021 61.443C216.31 61.525,215.681 61.963,215.216 62.647L215.079 62.839L215.079 65.985L215.079 69.159L215.188 69.049C217.186 66.86,218.472 64.371,218.472 62.729C218.472 62.565,218.472 62.401,218.417 62.264C218.362 61.881,218.034 61.553,217.569 61.471"/></g><g class="vf-notehead" id="vf-auto21883" pointer-events="bounding-box"><path stroke="none" d="M256.409 49.889C256.493 49.889,256.578 49.889,256.718 49.889C257.083 49.889,257.616 49.918,257.813 49.946C260.144 50.283,261.295 51.827,261.295 53.624C261.295 55.534,260.003 57.724,257.42 59.128C256.156 59.802,254.865 60.111,253.685 60.111C251.523 60.111,249.754 59.044,249.389 57.162C249.333 56.881,249.305 56.629,249.305 56.376C249.305 53.343,252.562 50.283,256.409 49.889"/><path stroke="none" d="M224.399 51.662L224.399 49.993L226.095 49.993L227.764 49.993L227.764 51.252L227.764 52.538L228.585 53.358L229.406 54.179L230.254 53.358L231.075 52.538L231.075 51.252L231.075 49.993L232.744 49.993L234.44 49.993L234.44 51.662L234.44 53.358L233.154 53.358L231.868 53.358L231.048 54.179L230.227 55L231.048 55.821L231.868 56.642L233.154 56.642L234.44 56.642L234.44 58.338L234.44 60.007L232.744 60.007L231.075 60.007L231.075 58.748L231.075 57.462L230.254 56.642L229.406 55.821L228.585 56.642L227.764 57.462L227.764 58.748L227.764 60.007L226.095 60.007L224.399 60.007L224.399 58.338L224.399 56.642L225.685 56.642L226.944 56.642L227.764 55.821L228.612 55L227.764 54.179L226.944 53.358L225.685 53.358L224.399 53.358"/></g><g class="vf-notehead" id="vf-auto21884" pointer-events="bounding-box"><path stroke="none" d="M256.409 39.889C256.493 39.889,256.578 39.889,256.718 39.889C257.083 39.889,257.616 39.918,257.813 39.946C260.144 40.283,261.295 41.827,261.295 43.624C261.295 45.534,260.003 47.724,257.42 49.128C256.156 49.802,254.865 50.111,253.685 50.111C251.523 50.111,249.754 49.044,249.389 47.162C249.333 46.881,249.305 46.629,249.305 46.376C249.305 43.343,252.562 40.283,256.409 39.889"/><path stroke="none" d="M243.405 30.691C243.459 30.663,243.541 30.636,243.624 30.636C243.842 30.636,244.061 30.773,244.143 30.992C244.171 31.101,244.171 31.128,244.171 34.603C244.171 37.859,244.171 38.078,244.225 38.078C244.225 38.078,244.225 38.078,244.225 38.078C244.526 37.996,245.648 37.75,245.73 37.75C245.976 37.75,246.168 37.886,246.25 38.078C246.277 38.16,246.305 38.789,246.305 39.419C246.305 40.048,246.277 40.677,246.25 40.759C246.168 41.033,246.113 41.033,245.019 41.306L244.171 41.525L244.171 44.425C244.171 47.134,244.171 47.353,244.198 47.353C244.225 47.353,244.225 47.353,244.225 47.353C244.526 47.244,245.648 46.997,245.73 46.997C245.894 46.997,246.004 47.052,246.141 47.161C246.277 47.326,246.277 47.271,246.277 48.311C246.277 48.42,246.277 48.557,246.277 48.694C246.277 48.83,246.277 48.94,246.277 49.049C246.277 50.116,246.277 50.062,246.141 50.198C246.004 50.335,246.004 50.335,245.019 50.581L244.171 50.773L244.171 54.33C244.171 57.832,244.171 57.859,244.143 57.941C244.061 58.188,243.842 58.297,243.624 58.297C243.487 58.297,243.323 58.242,243.213 58.133C243.076 57.996,243.049 58.242,243.049 56.053C243.049 55.616,243.049 55.096,243.049 54.467C243.049 52.579,243.049 51.047,243.049 51.047C243.049 51.047,242.502 51.183,241.845 51.348C241.161 51.512,240.614 51.648,240.614 51.648C240.614 51.648,240.614 53.29,240.614 55.287C240.614 58.872,240.614 58.899,240.559 59.008C240.477 59.227,240.258 59.364,240.039 59.364C239.903 59.364,239.738 59.309,239.629 59.2C239.492 59.036,239.492 59.282,239.492 57.066C239.492 56.628,239.492 56.081,239.492 55.424C239.492 52.168,239.492 51.949,239.465 51.949C239.465 51.949,239.465 51.949,239.437 51.949C239.109 52.032,238.097 52.25,238.015 52.25C237.768 52.25,237.55 52.114,237.468 51.922C237.44 51.84,237.44 51.211,237.44 50.581C237.44 49.952,237.44 49.323,237.468 49.241C237.577 48.995,237.632 48.967,238.671 48.694L239.492 48.502L239.492 45.575C239.492 42.866,239.492 42.674,239.465 42.674C239.465 42.674,239.465 42.674,239.437 42.674C239.109 42.756,238.097 43.003,238.015 43.003C237.768 43.003,237.55 42.866,237.468 42.647C237.44 42.592,237.44 41.936,237.44 41.306C237.44 40.677,237.44 40.048,237.468 39.966C237.577 39.72,237.632 39.692,238.671 39.446L239.492 39.254L239.492 35.698C239.492 32.168,239.492 32.141,239.52 32.059C239.602 31.812,239.82 31.703,240.039 31.703C240.176 31.703,240.34 31.758,240.45 31.867C240.587 32.004,240.614 31.758,240.614 33.947C240.614 34.384,240.614 34.904,240.614 35.561C240.614 37.421,240.614 38.953,240.614 38.953C240.614 38.953,241.161 38.817,241.818 38.68C242.502 38.516,243.049 38.379,243.049 38.379C243.049 38.379,243.049 36.737,243.049 34.74C243.049 31.128,243.049 31.101,243.104 30.992C243.131 30.882,243.268 30.745,243.405 30.691M243.049 44.699C243.049 42.401,243.049 41.799,243.049 41.799L243.049 41.799C243.022 41.799,242.83 41.826,242.611 41.908C242.392 41.963,241.845 42.072,241.407 42.182L240.614 42.401L240.614 45.301C240.614 46.915,240.614 48.228,240.614 48.228C240.614 48.228,241.161 48.092,241.818 47.928C242.502 47.763,243.049 47.627,243.049 47.627C243.049 47.627,243.049 46.313,243.049 44.699"/></g><path stroke="none" d="M259.819 11.987L259.819 8.14L259.903 8.14C260.156 8.14,260.353 8.281,260.465 8.59C261.279 10.527,263.189 12.97,265.969 15.61C268.159 17.744,269.338 20.608,269.338 23.612C269.338 24.904,269.142 26.224,268.692 27.516L268.58 27.824L268.692 28.133C269.142 29.341,269.338 30.604,269.338 31.896C269.338 34.479,268.468 37.119,266.839 39.281C266.221 40.067,266.081 40.18,265.8 40.18C265.435 40.18,265.21 39.927,265.21 39.618C265.21 39.478,265.267 39.309,265.379 39.197C267.12 37.203,268.018 34.788,268.018 32.345C268.018 31.924,267.99 31.475,267.934 31.054C267.878 30.717,267.85 30.408,267.794 30.267C267.794 30.239,267.738 30.071,267.71 29.902C267.204 27.993,266.025 26.28,264.48 25.185C263.61 24.595,261.813 24.146,260.212 24.146C260.044 24.146,259.903 24.146,259.875 24.146L259.819 24.118L259.819 20.271L259.819 16.424L259.903 16.424C260.156 16.424,260.353 16.564,260.465 16.873C261.279 18.811,263.217 21.31,265.941 23.893C266.671 24.567,267.316 25.382,267.738 26.084C267.766 26.112,267.766 26.14,267.794 26.14C267.794 26.14,267.822 26.084,267.85 25.943C267.962 25.325,268.018 24.708,268.018 24.062C268.018 23.472,267.962 22.882,267.85 22.293C267.85 22.18,267.822 22.04,267.794 22.012C267.794 21.956,267.738 21.787,267.71 21.619C267.204 19.709,266.025 17.996,264.48 16.901C263.61 16.312,261.813 15.862,260.212 15.862C260.044 15.862,259.903 15.862,259.875 15.862L259.819 15.834"/></g><g class="vf-stavenote" id="vf-auto21900"><path stroke-width="1.4" fill="none" stroke="#444" d="M339.112 100L362.381 100"/><path stroke-width="1.4" fill="none" stroke="#444" d="M339.112 110L362.381 110"/><g class="vf-notehead" id="vf-auto21908" pointer-events="bounding-box"><path stroke="none" d="M349.778 104.918C350.114 104.889,350.423 104.889,350.732 104.889C354.832 104.889,358.454 106.602,359.24 108.989C359.353 109.326,359.381 109.691,359.381 110C359.381 112.808,355.646 115.111,350.732 115.111C345.902 115.111,342.112 112.864,342.112 110C342.112 107.36,345.397 105.198,349.778 104.918M350.227 105.563C350.058 105.535,349.89 105.535,349.721 105.535C348.037 105.535,346.885 106.939,346.885 108.849C346.885 109.41,346.998 110.028,347.222 110.674C348.093 113.089,350.086 114.465,351.771 114.465C352.866 114.465,353.849 113.903,354.326 112.668C354.523 112.19,354.607 111.685,354.607 111.179C354.607 108.68,352.642 105.928,350.227 105.563"/><path stroke="none" d="M317.035 95.691C317.09 95.663,317.172 95.636,317.254 95.636C317.473 95.636,317.692 95.773,317.774 95.992C317.801 96.101,317.801 96.128,317.801 99.603C317.801 102.859,317.801 103.078,317.856 103.078C317.856 103.078,317.856 103.078,317.856 103.078C318.157 102.996,319.278 102.75,319.36 102.75C319.607 102.75,319.798 102.886,319.88 103.078C319.908 103.16,319.935 103.789,319.935 104.419C319.935 105.048,319.908 105.677,319.88 105.759C319.798 106.033,319.744 106.033,318.649 106.306L317.801 106.525L317.801 109.425C317.801 112.134,317.801 112.353,317.828 112.353C317.856 112.353,317.856 112.353,317.856 112.353C318.157 112.244,319.278 111.997,319.36 111.997C319.525 111.997,319.634 112.052,319.771 112.161C319.908 112.326,319.908 112.271,319.908 113.311C319.908 113.42,319.908 113.557,319.908 113.694C319.908 113.83,319.908 113.94,319.908 114.049C319.908 115.116,319.908 115.062,319.771 115.198C319.634 115.335,319.634 115.335,318.649 115.581L317.801 115.773L317.801 119.33C317.801 122.832,317.801 122.859,317.774 122.941C317.692 123.188,317.473 123.297,317.254 123.297C317.117 123.297,316.953 123.242,316.843 123.133C316.707 122.996,316.679 123.242,316.679 121.053C316.679 120.616,316.679 120.096,316.679 119.467C316.679 117.579,316.679 116.047,316.679 116.047C316.679 116.047,316.132 116.183,315.475 116.348C314.791 116.512,314.244 116.648,314.244 116.648C314.244 116.648,314.244 118.29,314.244 120.287C314.244 123.872,314.244 123.899,314.189 124.008C314.107 124.227,313.888 124.364,313.67 124.364C313.533 124.364,313.369 124.309,313.259 124.2C313.122 124.036,313.122 124.282,313.122 122.066C313.122 121.628,313.122 121.081,313.122 120.424C313.122 117.168,313.122 116.949,313.095 116.949C313.095 116.949,313.095 116.949,313.068 116.949C312.739 117.032,311.727 117.25,311.645 117.25C311.399 117.25,311.18 117.114,311.098 116.922C311.07 116.84,311.07 116.211,311.07 115.581C311.07 114.952,311.07 114.323,311.098 114.241C311.207 113.995,311.262 113.967,312.302 113.694L313.122 113.502L313.122 110.575C313.122 107.866,313.122 107.674,313.095 107.674C313.095 107.674,313.095 107.674,313.068 107.674C312.739 107.756,311.727 108.003,311.645 108.003C311.399 108.003,311.18 107.866,311.098 107.647C311.07 107.592,311.07 106.936,311.07 106.306C311.07 105.677,311.07 105.048,311.098 104.966C311.207 104.72,311.262 104.692,312.302 104.446L313.122 104.254L313.122 100.698C313.122 97.168,313.122 97.141,313.15 97.059C313.232 96.812,313.451 96.703,313.67 96.703C313.806 96.703,313.971 96.758,314.08 96.867C314.217 97.004,314.244 96.758,314.244 98.947C314.244 99.384,314.244 99.904,314.244 100.561C314.244 102.421,314.244 103.953,314.244 103.953C314.244 103.953,314.791 103.817,315.448 103.68C316.132 103.516,316.679 103.379,316.679 103.379C316.679 103.379,316.679 101.737,316.679 99.74C316.679 96.128,316.679 96.101,316.734 95.992C316.761 95.882,316.898 95.745,317.035 95.691M316.679 109.699C316.679 107.401,316.679 106.799,316.679 106.799L316.679 106.799C316.652 106.799,316.46 106.826,316.241 106.908C316.023 106.963,315.475 107.072,315.038 107.182L314.244 107.401L314.244 110.301C314.244 111.915,314.244 113.228,314.244 113.228C314.244 113.228,314.791 113.092,315.448 112.928C316.132 112.763,316.679 112.627,316.679 112.627C316.679 112.627,316.679 111.313,316.679 109.699"/></g><g class="vf-notehead" id="vf-auto21909" pointer-events="bounding-box"><path stroke="none" d="M349.778 94.918C350.114 94.889,350.423 94.889,350.732 94.889C354.832 94.889,358.454 96.602,359.24 98.989C359.353 99.326,359.381 99.691,359.381 100C359.381 102.808,355.646 105.111,350.732 105.111C345.902 105.111,342.112 102.864,342.112 100C342.112 97.36,345.397 95.198,349.778 94.918M350.227 95.563C350.058 95.535,349.89 95.535,349.721 95.535C348.037 95.535,346.885 96.939,346.885 98.849C346.885 99.41,346.998 100.028,347.222 100.674C348.093 103.089,350.086 104.465,351.771 104.465C352.866 104.465,353.849 103.903,354.326 102.668C354.523 102.19,354.607 101.685,354.607 101.179C354.607 98.68,352.642 95.928,350.227 95.563"/><path stroke="none" d="M306.458 92.722C306.498 92.722,306.538 92.702,306.599 92.702C306.76 92.702,306.8 92.742,307.002 93.045C308.413 95.242,309.119 97.621,309.119 100C309.119 102.379,308.413 104.738,307.002 106.955C306.841 107.197,306.74 107.298,306.599 107.298C306.558 107.298,306.518 107.278,306.458 107.258C306.357 107.197,306.296 107.137,306.296 107.016C306.296 106.935,306.337 106.794,306.397 106.612C307.244 104.596,307.647 102.298,307.647 100C307.647 97.702,307.244 95.383,306.397 93.367C306.337 93.186,306.296 93.065,306.296 92.964C306.296 92.843,306.357 92.783,306.458 92.722"/><path stroke="none" d="M296.849 97.54L296.849 96.311L298.099 96.311L299.329 96.311L299.329 97.238L299.329 98.186L299.934 98.79L300.539 99.395L301.164 98.79L301.768 98.186L301.768 97.238L301.768 96.311L302.998 96.311L304.248 96.311L304.248 97.54L304.248 98.79L303.3 98.79L302.353 98.79L301.748 99.395L301.143 100L301.748 100.605L302.353 101.21L303.3 101.21L304.248 101.21L304.248 102.46L304.248 103.689L302.998 103.689L301.768 103.689L301.768 102.762L301.768 101.814L301.164 101.21L300.539 100.605L299.934 101.21L299.329 101.814L299.329 102.762L299.329 103.689L298.099 103.689L296.849 103.689L296.849 102.46L296.849 101.21L297.797 101.21L298.724 101.21L299.329 100.605L299.954 100L299.329 99.395L298.724 98.79L297.797 98.79L296.849 98.79"/><path stroke="none" d="M294.406 92.742C294.446 92.722,294.486 92.702,294.547 92.702C294.668 92.702,294.789 92.783,294.829 92.884C294.849 92.924,294.849 92.964,294.849 93.004C294.849 93.085,294.829 93.186,294.748 93.388C294.043 95.101,293.66 96.835,293.519 98.972C293.519 99.153,293.499 99.577,293.499 100C293.499 100.423,293.519 100.847,293.519 101.028C293.66 103.165,294.043 104.899,294.748 106.612C294.849 106.875,294.849 106.915,294.849 106.975C294.849 107.177,294.728 107.298,294.547 107.298C294.386 107.298,294.345 107.258,294.144 106.955C292.732 104.758,292.027 102.379,292.027 100C292.027 97.621,292.732 95.242,294.144 93.045C294.285 92.823,294.345 92.763,294.406 92.742"/></g><g class="vf-notehead" id="vf-auto21910" pointer-events="bounding-box"><path stroke="none" d="M349.778 84.918C350.114 84.889,350.423 84.889,350.732 84.889C354.832 84.889,358.454 86.602,359.24 88.989C359.353 89.326,359.381 89.691,359.381 90C359.381 92.808,355.646 95.111,350.732 95.111C345.902 95.111,342.112 92.864,342.112 90C342.112 87.36,345.397 85.198,349.778 84.918M350.227 85.563C350.058 85.535,349.89 85.535,349.721 85.535C348.037 85.535,346.885 86.939,346.885 88.849C346.885 89.41,346.998 90.028,347.222 90.674C348.093 93.089,350.086 94.465,351.771 94.465C352.866 94.465,353.849 93.903,354.326 92.668C354.523 92.19,354.607 91.685,354.607 91.179C354.607 88.68,352.642 85.928,350.227 85.563"/><path stroke="none" d="M337.499 82.722C337.539 82.722,337.58 82.702,337.64 82.702C337.801 82.702,337.842 82.742,338.043 83.045C339.454 85.242,340.16 87.621,340.16 90C340.16 92.379,339.454 94.738,338.043 96.955C337.882 97.197,337.781 97.298,337.64 97.298C337.6 97.298,337.559 97.278,337.499 97.258C337.398 97.197,337.338 97.137,337.338 97.016C337.338 96.935,337.378 96.794,337.438 96.612C338.285 94.596,338.688 92.298,338.688 90C338.688 87.702,338.285 85.383,337.438 83.367C337.378 83.186,337.338 83.065,337.338 82.964C337.338 82.843,337.398 82.783,337.499 82.722"/><path stroke="none" d="M333.152 79.456C333.193 79.436,333.253 79.416,333.314 79.416C333.475 79.416,333.636 79.517,333.697 79.678C333.717 79.759,333.717 79.779,333.717 82.339C333.717 84.738,333.717 84.9,333.757 84.9C333.757 84.9,333.757 84.9,333.757 84.9C333.979 84.839,334.805 84.658,334.866 84.658C335.047 84.658,335.188 84.758,335.249 84.9C335.269 84.96,335.289 85.424,335.289 85.887C335.289 86.351,335.269 86.815,335.249 86.875C335.188 87.077,335.148 87.077,334.342 87.278L333.717 87.44L333.717 89.577C333.717 91.572,333.717 91.734,333.737 91.734C333.757 91.734,333.757 91.734,333.757 91.734C333.979 91.653,334.805 91.472,334.866 91.472C334.987 91.472,335.068 91.512,335.168 91.593C335.269 91.714,335.269 91.673,335.269 92.439C335.269 92.52,335.269 92.621,335.269 92.722C335.269 92.822,335.269 92.903,335.269 92.984C335.269 93.77,335.269 93.73,335.168 93.83C335.068 93.931,335.068 93.931,334.342 94.113L333.717 94.254L333.717 96.875C333.717 99.455,333.717 99.475,333.697 99.536C333.636 99.717,333.475 99.798,333.314 99.798C333.213 99.798,333.092 99.757,333.011 99.677C332.91 99.576,332.89 99.757,332.89 98.145C332.89 97.822,332.89 97.439,332.89 96.975C332.89 95.584,332.89 94.455,332.89 94.455C332.89 94.455,332.487 94.556,332.003 94.677C331.499 94.798,331.096 94.899,331.096 94.899C331.096 94.899,331.096 96.108,331.096 97.58C331.096 100.221,331.096 100.241,331.056 100.322C330.995 100.483,330.834 100.584,330.673 100.584C330.572 100.584,330.451 100.544,330.37 100.463C330.269 100.342,330.269 100.524,330.269 98.891C330.269 98.568,330.269 98.165,330.269 97.681C330.269 95.282,330.269 95.121,330.249 95.121C330.249 95.121,330.249 95.121,330.229 95.121C329.987 95.181,329.241 95.342,329.181 95.342C328.999 95.342,328.838 95.242,328.778 95.1C328.757 95.04,328.757 94.576,328.757 94.113C328.757 93.649,328.757 93.185,328.778 93.125C328.858 92.943,328.899 92.923,329.665 92.722L330.269 92.58L330.269 90.423C330.269 88.428,330.269 88.286,330.249 88.286C330.249 88.286,330.249 88.286,330.229 88.286C329.987 88.347,329.241 88.528,329.181 88.528C328.999 88.528,328.838 88.428,328.778 88.266C328.757 88.226,328.757 87.742,328.757 87.278C328.757 86.815,328.757 86.351,328.778 86.291C328.858 86.109,328.899 86.089,329.665 85.908L330.269 85.766L330.269 83.146C330.269 80.545,330.269 80.525,330.29 80.464C330.35 80.283,330.511 80.202,330.673 80.202C330.773 80.202,330.894 80.243,330.975 80.323C331.076 80.424,331.096 80.243,331.096 81.855C331.096 82.178,331.096 82.561,331.096 83.045C331.096 84.416,331.096 85.545,331.096 85.545C331.096 85.545,331.499 85.444,331.983 85.343C332.487 85.222,332.89 85.121,332.89 85.121C332.89 85.121,332.89 83.912,332.89 82.44C332.89 79.779,332.89 79.759,332.931 79.678C332.951 79.597,333.052 79.497,333.152 79.456M332.89 89.778C332.89 88.085,332.89 87.641,332.89 87.641L332.89 87.641C332.87 87.641,332.729 87.661,332.568 87.722C332.406 87.762,332.003 87.843,331.681 87.924L331.096 88.085L331.096 90.222C331.096 91.411,331.096 92.379,331.096 92.379C331.096 92.379,331.499 92.278,331.983 92.157C332.487 92.036,332.89 91.935,332.89 91.935C332.89 91.935,332.89 90.968,332.89 89.778"/><path stroke="none" d="M326.314 82.742C326.354 82.722,326.395 82.702,326.455 82.702C326.576 82.702,326.697 82.783,326.737 82.884C326.757 82.924,326.757 82.964,326.757 83.004C326.757 83.085,326.737 83.186,326.657 83.388C325.951 85.101,325.568 86.835,325.427 88.972C325.427 89.153,325.407 89.577,325.407 90C325.407 90.423,325.427 90.847,325.427 91.028C325.568 93.165,325.951 94.899,326.657 96.612C326.757 96.875,326.757 96.915,326.757 96.975C326.757 97.177,326.636 97.298,326.455 97.298C326.294 97.298,326.253 97.258,326.052 96.955C324.641 94.758,323.935 92.379,323.935 90C323.935 87.621,324.641 85.242,326.052 83.045C326.193 82.823,326.253 82.763,326.314 82.742"/></g><g class="vf-notehead" id="vf-auto21911" pointer-events="bounding-box"><path stroke="none" d="M349.778 64.918C350.114 64.889,350.423 64.889,350.732 64.889C354.832 64.889,358.454 66.602,359.24 68.989C359.353 69.326,359.381 69.691,359.381 70C359.381 72.808,355.646 75.111,350.732 75.111C345.902 75.111,342.112 72.864,342.112 70C342.112 67.36,345.397 65.198,349.778 64.918M350.227 65.563C350.058 65.535,349.89 65.535,349.721 65.535C348.037 65.535,346.885 66.939,346.885 68.849C346.885 69.41,346.998 70.028,347.222 70.674C348.093 73.089,350.086 74.465,351.771 74.465C352.866 74.465,353.849 73.903,354.326 72.668C354.523 72.19,354.607 71.685,354.607 71.179C354.607 68.68,352.642 65.928,350.227 65.563"/><path stroke="none" d="M312.849 53.119C312.904 53.092,312.986 53.092,313.068 53.092C313.287 53.092,313.505 53.228,313.588 53.447C313.642 53.529,313.642 53.529,313.642 59.767L313.642 66.005L313.697 65.951C314.709 65.103,315.776 64.637,316.843 64.637C317.254 64.637,317.664 64.72,318.047 64.856C319.251 65.294,319.935 66.388,319.935 67.729C319.935 68.44,319.716 69.207,319.306 69.973C318.731 71.04,317.965 71.888,315.804 73.803C314.655 74.843,314.381 75.089,313.724 75.718C313.341 76.074,313.287 76.101,313.068 76.101C312.821 76.101,312.63 75.964,312.548 75.773L312.493 75.664L312.493 64.61L312.493 53.529L312.548 53.447C312.575 53.31,312.712 53.174,312.849 53.119M316.132 66.471C316.023 66.443,315.804 66.416,315.667 66.416C315.612 66.416,315.585 66.416,315.557 66.443C314.846 66.525,314.217 66.963,313.752 67.647L313.642 67.839L313.642 70.985L313.642 74.159L313.724 74.049C315.722 71.86,317.008 69.371,317.008 67.729C317.008 67.565,317.008 67.401,316.98 67.264C316.898 66.881,316.57 66.553,316.132 66.471"/></g><g class="vf-notehead" id="vf-auto21912" pointer-events="bounding-box"><path stroke="none" d="M349.778 54.918C350.114 54.889,350.423 54.889,350.732 54.889C354.832 54.889,358.454 56.602,359.24 58.989C359.353 59.326,359.381 59.691,359.381 60C359.381 62.808,355.646 65.111,350.732 65.111C345.902 65.111,342.112 62.864,342.112 60C342.112 57.36,345.397 55.198,349.778 54.918M350.227 55.563C350.058 55.535,349.89 55.535,349.721 55.535C348.037 55.535,346.885 56.939,346.885 58.849C346.885 59.41,346.998 60.028,347.222 60.674C348.093 63.089,350.086 64.465,351.771 64.465C352.866 64.465,353.849 63.903,354.326 62.668C354.523 62.19,354.607 61.685,354.607 61.179C354.607 58.68,352.642 55.928,350.227 55.563"/><path stroke="none" d="M306.458 52.722C306.498 52.722,306.538 52.702,306.599 52.702C306.76 52.702,306.8 52.742,307.002 53.045C308.413 55.242,309.119 57.621,309.119 60C309.119 62.379,308.413 64.738,307.002 66.955C306.841 67.197,306.74 67.298,306.599 67.298C306.558 67.298,306.518 67.278,306.458 67.258C306.357 67.197,306.296 67.137,306.296 67.016C306.296 66.935,306.337 66.794,306.397 66.612C307.244 64.596,307.647 62.298,307.647 60C307.647 57.702,307.244 55.383,306.397 53.367C306.337 53.186,306.296 53.065,306.296 52.964C306.296 52.843,306.357 52.783,306.458 52.722"/><path stroke="none" d="M295.37 47.561C295.41 47.541,295.47 47.541,295.531 47.541C295.692 47.541,295.853 47.642,295.914 47.803C295.954 47.864,295.954 47.864,295.954 52.46L295.954 57.057L295.995 57.016C296.74 56.391,297.587 56.049,298.353 56.049C298.857 56.049,299.321 56.19,299.704 56.472L299.764 56.512L299.764 52.178L299.785 47.823L299.805 47.763C299.885 47.622,300.027 47.541,300.188 47.541C300.349 47.541,300.51 47.622,300.571 47.803C300.591 47.864,300.591 47.864,300.591 52.46L300.591 57.057L300.652 57.016C301.397 56.391,302.184 56.049,302.95 56.049C303.272 56.049,303.575 56.109,303.857 56.21C304.744 56.532,305.248 57.339,305.248 58.327C305.248 58.851,305.087 59.415,304.784 59.98C304.361 60.766,303.776 61.391,302.204 62.802C301.357 63.568,301.156 63.75,300.672 64.213C300.389 64.476,300.349 64.496,300.188 64.496C300.067 64.496,299.966 64.455,299.885 64.375C299.785 64.274,299.764 64.395,299.764 63.105C299.764 62.903,299.764 62.661,299.764 62.359L299.764 60.564L299.664 60.685C299.2 61.27,298.756 61.734,297.547 62.802C296.7 63.568,296.499 63.75,296.015 64.213C295.732 64.476,295.692 64.496,295.531 64.496C295.349 64.496,295.208 64.395,295.148 64.254L295.108 64.173L295.108 56.028L295.108 47.864L295.148 47.803C295.168 47.702,295.269 47.602,295.37 47.561M297.789 57.399C297.708 57.379,297.547 57.359,297.446 57.359C297.406 57.359,297.386 57.359,297.365 57.379C296.841 57.44,296.378 57.762,296.035 58.266L295.954 58.407L295.954 60.726L295.954 63.064L296.015 62.984C297.486 61.371,298.434 59.536,298.434 58.327C298.434 58.206,298.434 58.085,298.414 57.984C298.353 57.702,298.111 57.46,297.789 57.399M302.426 57.399C302.365 57.379,302.204 57.359,302.103 57.359C302.063 57.359,302.043 57.359,302.022 57.379C301.498 57.44,301.035 57.762,300.692 58.266L300.591 58.407L300.591 60.726L300.591 63.064L300.672 62.984C302.143 61.371,303.091 59.536,303.091 58.327C303.091 58.206,303.091 58.085,303.051 57.984C303.01 57.702,302.768 57.46,302.426 57.399"/><path stroke="none" d="M292.664 52.742C292.704 52.722,292.745 52.702,292.805 52.702C292.926 52.702,293.047 52.783,293.087 52.884C293.108 52.924,293.108 52.964,293.108 53.004C293.108 53.085,293.087 53.186,293.007 53.388C292.301 55.101,291.918 56.835,291.777 58.972C291.777 59.153,291.757 59.577,291.757 60C291.757 60.423,291.777 60.847,291.777 61.028C291.918 63.165,292.301 64.899,293.007 66.612C293.108 66.875,293.108 66.915,293.108 66.975C293.108 67.177,292.987 67.298,292.805 67.298C292.644 67.298,292.604 67.258,292.402 66.955C290.991 64.758,290.285 62.379,290.285 60C290.285 57.621,290.991 55.242,292.402 53.045C292.543 52.823,292.604 52.763,292.664 52.742"/></g><g class="vf-notehead" id="vf-auto21913" pointer-events="bounding-box"><path stroke="none" d="M349.778 39.918C350.114 39.889,350.423 39.889,350.732 39.889C354.832 39.889,358.454 41.602,359.24 43.989C359.353 44.326,359.381 44.691,359.381 45C359.381 47.808,355.646 50.111,350.732 50.111C345.902 50.111,342.112 47.864,342.112 45C342.112 42.36,345.397 40.198,349.778 39.918M350.227 40.563C350.058 40.535,349.89 40.535,349.721 40.535C348.037 40.535,346.885 41.939,346.885 43.849C346.885 44.41,346.998 45.028,347.222 45.674C348.093 48.089,350.086 49.465,351.771 49.465C352.866 49.465,353.849 48.903,354.326 47.668C354.523 47.19,354.607 46.685,354.607 46.179C354.607 43.68,352.642 40.928,350.227 40.563"/><path stroke="none" d="M337.499 37.722C337.539 37.722,337.58 37.702,337.64 37.702C337.801 37.702,337.842 37.742,338.043 38.045C339.454 40.242,340.16 42.621,340.16 45C340.16 47.379,339.454 49.738,338.043 51.955C337.882 52.197,337.781 52.298,337.64 52.298C337.6 52.298,337.559 52.278,337.499 52.258C337.398 52.197,337.338 52.137,337.338 52.016C337.338 51.935,337.378 51.794,337.438 51.612C338.285 49.596,338.688 47.298,338.688 45C338.688 42.702,338.285 40.383,337.438 38.367C337.378 38.186,337.338 38.065,337.338 37.964C337.338 37.843,337.398 37.783,337.499 37.722"/><path stroke="none" d="M331.068 32.561C331.108 32.541,331.169 32.541,331.229 32.541C331.39 32.541,331.552 32.642,331.612 32.803C331.652 32.864,331.652 32.864,331.652 37.46L331.652 42.057L331.693 42.016C332.439 41.391,333.225 41.049,334.011 41.049C334.314 41.049,334.616 41.109,334.898 41.21C335.785 41.532,336.289 42.339,336.289 43.327C336.289 43.851,336.128 44.415,335.826 44.98C335.402 45.766,334.838 46.391,333.245 47.802C332.398 48.568,332.197 48.75,331.713 49.213C331.431 49.476,331.39 49.496,331.229 49.496C331.048 49.496,330.907 49.395,330.846 49.254L330.806 49.173L330.806 41.028L330.806 32.864L330.846 32.803C330.866 32.702,330.967 32.602,331.068 32.561M333.487 42.399C333.406 42.379,333.245 42.359,333.144 42.359C333.104 42.359,333.084 42.359,333.064 42.379C332.54 42.44,332.076 42.762,331.733 43.266L331.652 43.407L331.652 45.726L331.652 48.064L331.713 47.984C333.185 46.371,334.132 44.536,334.132 43.327C334.132 43.206,334.132 43.085,334.112 42.984C334.052 42.702,333.81 42.46,333.487 42.399"/><path stroke="none" d="M328.362 37.742C328.403 37.722,328.443 37.702,328.503 37.702C328.624 37.702,328.745 37.783,328.786 37.884C328.806 37.924,328.806 37.964,328.806 38.004C328.806 38.085,328.786 38.186,328.705 38.388C327.999 40.101,327.616 41.835,327.475 43.972C327.475 44.153,327.455 44.577,327.455 45C327.455 45.423,327.475 45.847,327.475 46.028C327.616 48.165,327.999 49.899,328.705 51.612C328.806 51.875,328.806 51.915,328.806 51.975C328.806 52.177,328.685 52.298,328.503 52.298C328.342 52.298,328.302 52.258,328.1 51.955C326.689 49.758,325.983 47.379,325.983 45C325.983 42.621,326.689 40.242,328.1 38.045C328.241 37.823,328.302 37.763,328.362 37.742"/></g></g></svg>