<svg xmlns="http://www.w3.org/2000/svg" stroke-width="0.3" stroke-dasharray="none" fill="black" stroke="black" font-family="Arial, sans-serif" font-size="10pt" font-weight="normal" font-style="normal" width="600" height="200" viewBox="0 0 600 200" style="width: 600px; height: 200px; border: none;"><g class="vf-stave" id="vf-auto16115" stroke-width="1" fill="#999999" stroke="#999999"><path fill="none" d="M0 40L590 40"/><path fill="none" d="M0 50L590 50"/><path fill="none" d="M0 60L590 60"/><path fill="none" d="M0 70L590 70"/><path fill="none" d="M0 80L590 80"/></g><g class="vf-stavebarline" id="vf-auto16116"><rect y="39.5" width="1" height="41" stroke="none"/></g><g class="vf-stavebarline" id="vf-auto16117"><rect x="590" y="39.5" width="1" height="41" stroke="none"/></g><g class="vf-clef" id="vf-auto16118"><path stroke="none" d="M25.503 71.76C25.503 74.345,24.464 77.032,21.854 78.071C21.093 73.712,20.105 67.908,19.852 66.286C23.146 66.286,25.503 68.516,25.503 71.76M20.333 78.527C19.598 78.654,18.914 78.73,18.204 78.73C12.983 78.73,8.548 75.08,8.548 69.581C8.548 65.12,11.691 61.141,14.884 58.379C15.518 57.821,16.101 57.314,16.633 56.757C16.962 58.734,17.216 60.457,17.469 61.952C14.149 62.941,11.894 66.438,11.894 69.86C11.894 72.419,13.896 75.917,16.836 75.917C17.114 75.917,17.444 75.79,17.444 75.461C17.444 75.131,17.089 74.954,16.633 74.65C15.214 73.762,14.428 72.825,14.428 71.025C14.428 68.82,16.05 67.021,18.204 66.514M17.114 40.993C17.444 39.548,19.117 35.721,21.017 35.721C21.575 35.721,22.437 37.495,22.437 40.004C22.437 43.806,19.623 46.67,17.114 49.128C16.886 47.684,16.709 46.264,16.709 44.718C16.709 43.375,16.836 42.133,17.114 40.993M9.461 89.729C9.461 92.137,11.311 95.305,16.253 95.305C17.951 95.305,19.446 94.874,20.764 94.063C22.741 92.669,23.248 90.261,23.248 87.98C23.248 86.536,23.02 84.914,22.665 82.836C22.563 82.101,22.335 81.011,22.107 79.566C25.681 78.4,28.367 74.675,28.367 70.924C28.367 65.424,24.464 61.699,19.117 61.699C18.762 59.494,18.382 57.34,18.078 55.312C21.93 51.257,24.591 46.695,24.591 40.891C24.591 37.571,23.577 34.859,22.994 33.567C22.107 31.691,21.068 30.424,20.409 30.424C20.156 30.424,19.015 30.855,17.799 32.274C15.467 35.062,14.808 39.726,14.808 42.792C14.808 44.769,15.011 46.543,15.619 50.623C15.594 50.674,13.693 52.6,12.907 53.234C9.587 56.326,5 60.736,5 68.035C5 74.878,10.956 80.225,17.748 80.225C18.787 80.225,19.776 80.124,20.612 79.972C21.322 83.469,21.727 86.029,21.727 87.98C21.727 91.757,19.776 93.784,16.101 93.784C15.214 93.784,14.453 93.582,14.377 93.582C14.352 93.556,14.276 93.505,14.276 93.48C14.276 93.404,14.352 93.379,14.453 93.328C16.177 93.075,17.875 91.63,17.875 89.273C17.875 87.322,16.379 85.243,13.642 85.243C11.083 85.243,9.461 87.322,9.461 89.729"/></g><g class="vf-timesignature" id="vf-auto16119"><path stroke="none" d="M50.711 54.48L50.711 57.075L47.774 57.075C47.529 57.075,47.284 57.295,47.284 57.589L47.284 58.25C47.284 58.519,47.529 58.739,47.774 58.739L58.447 58.739C58.741 58.739,58.936 58.519,58.936 58.25L58.936 57.589C58.936 57.295,58.741 57.075,58.447 57.075L55.289 57.075L55.289 54.48L58.447 54.48C58.741 54.48,58.936 54.235,58.936 53.941L58.936 53.28C58.936 53.036,58.741 52.791,58.447 52.791L55.289 52.791L55.289 47.185C55.289 46.964,55.167 46.793,55.044 46.72L54.603 46.499C54.53 46.475,54.506 46.475,54.432 46.475C54.408 46.475,54.408 46.475,54.359 46.475C54.261 46.475,54.114 46.499,54.04 46.573L50.834 49.51C50.736 49.608,50.711 49.755,50.711 49.902L50.711 52.791L46.599 52.791C46.599 52.791,50.564 48.556,54.726 42.974C54.848 42.803,54.897 42.632,54.897 42.485C54.897 42.313,54.824 42.166,54.799 42.142L54.016 41.359C53.918 41.285,53.796 41.212,53.649 41.212C53.453 41.212,48.679 41.212,48.41 41.212C48.165 41.212,47.994 41.432,47.945 41.652C47.945 41.652,47.774 44.247,46.868 47.111C45.938 49.976,44.885 51.738,43.955 53.036C43.955 53.036,43.857 53.207,43.857 53.427C43.857 53.501,43.857 53.55,43.906 53.623C44.004 53.868,44.248 54.26,44.248 54.26C44.248 54.26,44.322 54.48,44.64 54.48"/><path stroke="none" d="M50.711 74.48L50.711 77.075L47.774 77.075C47.529 77.075,47.284 77.295,47.284 77.589L47.284 78.25C47.284 78.519,47.529 78.739,47.774 78.739L58.447 78.739C58.741 78.739,58.936 78.519,58.936 78.25L58.936 77.589C58.936 77.295,58.741 77.075,58.447 77.075L55.289 77.075L55.289 74.48L58.447 74.48C58.741 74.48,58.936 74.235,58.936 73.941L58.936 73.28C58.936 73.036,58.741 72.791,58.447 72.791L55.289 72.791L55.289 67.185C55.289 66.964,55.167 66.793,55.044 66.72L54.603 66.499C54.53 66.475,54.506 66.475,54.432 66.475C54.408 66.475,54.408 66.475,54.359 66.475C54.261 66.475,54.114 66.499,54.04 66.573L50.834 69.51C50.736 69.608,50.711 69.755,50.711 69.902L50.711 72.791L46.599 72.791C46.599 72.791,50.564 68.556,54.726 62.974C54.848 62.803,54.897 62.632,54.897 62.485C54.897 62.313,54.824 62.166,54.799 62.142L54.016 61.359C53.918 61.285,53.796 61.212,53.649 61.212C53.453 61.212,48.679 61.212,48.41 61.212C48.165 61.212,47.994 61.432,47.945 61.652C47.945 61.652,47.774 64.247,46.868 67.111C45.938 69.976,44.885 71.738,43.955 73.036C43.955 73.036,43.857 73.207,43.857 73.427C43.857 73.501,43.857 73.55,43.906 73.623C44.004 73.868,44.248 74.26,44.248 74.26C44.248 74.26,44.322 74.48,44.64 74.48"/></g><g class="vf-stavenote" id="vf-auto16123"><g class="vf-stem" id="vf-auto16124" pointer-events="bounding-box"><path stroke-width="1.5" fill="none" d="M114.442 42.45L114.442 10"/></g><g class="vf-notehead" id="vf-auto16127" pointer-events="bounding-box"><path stroke="none" d="M110.671 39.665C106.74 39.665,102.05 42.95,102.05 46.685C102.05 48.426,103.314 50.391,106.571 50.391C110.783 50.391,115.192 46.938,115.192 43.371C115.192 40.985,113.17 39.665,110.671 39.665M109.576 46.769C109.463 46.853,106.487 48.482,105.083 48.482C103.735 48.482,103.454 47.387,103.454 47.022C103.454 45.337,107.498 43.343,107.666 43.259C107.835 43.175,110.699 41.574,112.159 41.574C113.142 41.574,113.788 42.136,113.788 43.006C113.788 44.747,109.688 46.685,109.576 46.769"/><text stroke="none" font-size="9pt" font-weight="bold" x="93.05" y="50">0</text></g></g><g class="vf-stavenote" id="vf-auto16128"><g class="vf-stem" id="vf-auto16129" pointer-events="bounding-box"><path stroke-width="1.5" fill="none" d="M359.887 42.45L359.887 10"/></g><g class="vf-notehead" id="vf-auto16132" pointer-events="bounding-box"><path stroke="none" d="M356.116 39.665C352.185 39.665,347.495 42.95,347.495 46.685C347.495 48.426,348.759 50.391,352.016 50.391C356.228 50.391,360.637 46.938,360.637 43.371C360.637 40.985,358.615 39.665,356.116 39.665M355.021 46.769C354.908 46.853,351.932 48.482,350.528 48.482C349.18 48.482,348.899 47.387,348.899 47.022C348.899 45.337,352.943 43.343,353.111 43.259C353.28 43.175,356.144 41.574,357.604 41.574C358.587 41.574,359.233 42.136,359.233 43.006C359.233 44.747,355.133 46.685,355.021 46.769"/></g></g><g class="vf-stavenote" id="vf-auto16133"><g class="vf-notehead" id="vf-auto16251" pointer-events="bounding-box"><path stroke="none" d="M117.192 86.685C117.192 88.426,118.455 90.391,121.713 90.391C125.925 90.391,130.333 86.938,130.333 83.371C130.333 80.985,128.311 79.665,125.812 79.665C121.881 79.665,117.192 82.978,117.192 86.685"/><text stroke="none" font-size="9pt" font-weight="bold" x="93.05" y="90">0</text></g><g class="vf-notehead" id="vf-auto16250" pointer-events="bounding-box"><path stroke="none" d="M117.192 66.685C117.192 68.426,118.455 70.391,121.713 70.391C125.925 70.391,130.333 66.938,130.333 63.371C130.333 60.985,128.311 59.665,125.812 59.665C121.881 59.665,117.192 62.978,117.192 66.685"/><text stroke="none" font-size="9pt" font-weight="bold" x="93.05" y="70">4</text></g><g class="vf-notehead" id="vf-auto16249" pointer-events="bounding-box"><path stroke="none" d="M117.192 51.685C117.192 53.426,118.455 55.391,121.713 55.391C125.925 55.391,130.333 51.938,130.333 48.371C130.333 45.985,128.311 44.665,125.812 44.665C121.881 44.665,117.192 47.978,117.192 51.685"/><path stroke="none" d="M90.64 45.869C90.859 45.814,91.05 45.54,91.05 45.321L91.05 42.996C91.05 42.668,90.831 42.449,90.503 42.449C90.476 42.449,90.476 42.449,90.421 42.449L89.135 42.722L89.135 36.84L88.013 36.84L88.013 42.941L84.511 43.652L84.511 38.098L83.417 38.098L83.417 43.899L81.885 44.2C81.638 44.254,81.447 44.528,81.447 44.747L81.447 44.829L81.447 47.127L81.447 47.045C81.447 47.373,81.693 47.592,81.994 47.592C82.049 47.592,82.076 47.592,82.103 47.592L83.417 47.319L83.417 53.83L81.885 54.131C81.638 54.186,81.447 54.46,81.447 54.679L81.447 56.977C81.447 57.278,81.693 57.524,81.994 57.524C82.049 57.524,82.076 57.524,82.103 57.524L83.417 57.25L83.417 63.133L84.511 63.133L84.511 57.004L88.013 56.293L88.013 61.847L89.135 61.847L89.135 56.074L90.64 55.8C90.859 55.746,91.05 55.472,91.05 55.253L91.05 52.928C91.05 52.599,90.831 52.353,90.503 52.353C90.476 52.353,90.476 52.353,90.421 52.353L89.135 52.627L89.135 46.142M84.511 47.072L88.013 46.388L88.013 52.873L84.511 53.612"/></g></g><g class="vf-stavenote" id="vf-auto16149"><g class="vf-notehead" id="vf-auto16253" pointer-events="bounding-box"><path stroke="none" d="M170.982 61.685C170.982 63.426,172.246 65.391,175.503 65.391C179.715 65.391,184.124 61.938,184.124 58.371C184.124 55.985,182.102 54.665,179.603 54.665C175.672 54.665,170.982 57.978,170.982 61.685"/></g></g><g class="vf-stavenote" id="vf-auto16157"><g class="vf-notehead" id="vf-auto16257" pointer-events="bounding-box"><path stroke="none" d="M239.914 86.685C239.914 88.426,241.178 90.391,244.435 90.391C248.647 90.391,253.056 86.938,253.056 83.371C253.056 80.985,251.034 79.665,248.535 79.665C244.604 79.665,239.914 82.978,239.914 86.685"/></g><g class="vf-notehead" id="vf-auto16256" pointer-events="bounding-box"><path stroke="none" d="M239.914 66.685C239.914 68.426,241.178 70.391,244.435 70.391C248.647 70.391,253.056 66.938,253.056 63.371C253.056 60.985,251.034 59.665,248.535 59.665C244.604 59.665,239.914 62.978,239.914 66.685"/></g><g class="vf-notehead" id="vf-auto16255" pointer-events="bounding-box"><path stroke="none" d="M239.914 56.685C239.914 58.426,241.178 60.391,244.435 60.391C248.647 60.391,253.056 56.938,253.056 53.371C253.056 50.985,251.034 49.665,248.535 49.665C244.604 49.665,239.914 52.978,239.914 56.685"/></g></g><g class="vf-stavenote" id="vf-auto16171"><g class="vf-notehead" id="vf-auto16259" pointer-events="bounding-box"><path stroke="none" d="M293.705 61.685C293.705 63.426,294.968 65.391,298.226 65.391C302.438 65.391,306.846 61.938,306.846 58.371C306.846 55.985,304.824 54.665,302.325 54.665C298.394 54.665,293.705 57.978,293.705 61.685"/></g></g><g class="vf-stavenote" id="vf-auto16179"><g class="vf-notehead" id="vf-auto16263" pointer-events="bounding-box"><path stroke="none" d="M362.637 86.685C362.637 88.426,363.9 90.391,367.158 90.391C371.37 90.391,375.778 86.938,375.778 83.371C375.778 80.985,373.756 79.665,371.257 79.665C367.326 79.665,362.637 82.978,362.637 86.685"/></g><g class="vf-notehead" id="vf-auto16262" pointer-events="bounding-box"><path stroke="none" d="M362.637 66.685C362.637 68.426,363.9 70.391,367.158 70.391C371.37 70.391,375.778 66.938,375.778 63.371C375.778 60.985,373.756 59.665,371.257 59.665C367.326 59.665,362.637 62.978,362.637 66.685"/></g><g class="vf-notehead" id="vf-auto16261" pointer-events="bounding-box"><path stroke="none" d="M362.637 56.685C362.637 58.426,363.9 60.391,367.158 60.391C371.37 60.391,375.778 56.938,375.778 53.371C375.778 50.985,373.756 49.665,371.257 49.665C367.326 49.665,362.637 52.978,362.637 56.685"/></g></g><g class="vf-stavenote" id="vf-auto16193"><g class="vf-notehead" id="vf-auto16265" pointer-events="bounding-box"><path stroke="none" d="M416.427 61.685C416.427 63.426,417.691 65.391,420.948 65.391C425.16 65.391,429.569 61.938,429.569 58.371C429.569 55.985,427.547 54.665,425.048 54.665C421.117 54.665,416.427 57.978,416.427 61.685"/></g></g><g class="vf-stavenote" id="vf-auto16201"><g class="vf-notehead" id="vf-auto16269" pointer-events="bounding-box"><path stroke="none" d="M485.359 86.685C485.359 88.426,486.623 90.391,489.88 90.391C494.092 90.391,498.501 86.938,498.501 83.371C498.501 80.985,496.479 79.665,493.98 79.665C490.049 79.665,485.359 82.978,485.359 86.685"/></g><g class="vf-notehead" id="vf-auto16268" pointer-events="bounding-box"><path stroke="none" d="M485.359 66.685C485.359 68.426,486.623 70.391,489.88 70.391C494.092 70.391,498.501 66.938,498.501 63.371C498.501 60.985,496.479 59.665,493.98 59.665C490.049 59.665,485.359 62.978,485.359 66.685"/></g><g class="vf-notehead" id="vf-auto16267" pointer-events="bounding-box"><path stroke="none" d="M485.359 56.685C485.359 58.426,486.623 60.391,489.88 60.391C494.092 60.391,498.501 56.938,498.501 53.371C498.501 50.985,496.479 49.665,493.98 49.665C490.049 49.665,485.359 52.978,485.359 56.685"/></g></g><g class="vf-stavenote" id="vf-auto16215"><g class="vf-notehead" id="vf-auto16271" pointer-events="bounding-box"><path stroke="none" d="M539.15 61.685C539.15 63.426,540.413 65.391,543.671 65.391C547.883 65.391,552.291 61.938,552.291 58.371C552.291 55.985,550.27 54.665,547.77 54.665C543.839 54.665,539.15 57.978,539.15 61.685"/></g></g><g class="vf-stavenote" id="vf-auto16223"><path stroke-width="1.4" fill="none" stroke="#444" d="M99.05 90L118.192 90"/><g class="vf-stem" id="vf-auto16224" pointer-events="bounding-box"><path stroke-width="1.5" fill="none" d="M102.8 97L102.8 130"/></g><g class="vf-notehead" id="vf-auto16277" pointer-events="bounding-box"><path stroke="none" d="M102.05 96.685C102.05 98.426,103.314 100.391,106.571 100.391C110.783 100.391,115.192 96.938,115.192 93.371C115.192 90.985,113.17 89.665,110.671 89.665C106.74 89.665,102.05 92.978,102.05 96.685"/></g></g><g class="vf-stavenote" id="vf-auto16228"><path stroke-width="1.4" fill="none" stroke="#444" d="M221.773 90L240.914 90"/><path stroke-width="1.4" fill="none" stroke="#444" d="M221.773 100L240.914 100"/><path stroke-width="1.4" fill="none" stroke="#444" d="M221.773 110L240.914 110"/><g class="vf-stem" id="vf-auto16229" pointer-events="bounding-box"><path stroke-width="1.5" fill="none" d="M225.523 117L225.523 150"/></g><g class="vf-notehead" id="vf-auto16232" pointer-events="bounding-box"><path stroke="none" d="M224.773 116.685C224.773 118.426,226.036 120.391,229.294 120.391C233.506 120.391,237.914 116.938,237.914 113.371C237.914 110.985,235.892 109.665,233.393 109.665C229.462 109.665,224.773 112.978,224.773 116.685"/></g></g><g class="vf-stavenote" id="vf-auto16233"><path stroke-width="1.4" fill="none" stroke="#444" d="M344.495 90L363.637 90"/><path stroke-width="1.4" fill="none" stroke="#444" d="M344.495 100L363.637 100"/><path stroke-width="1.4" fill="none" stroke="#444" d="M344.495 110L363.637 110"/><g class="vf-stem" id="vf-auto16234" pointer-events="bounding-box"><path stroke-width="1.5" fill="none" d="M348.245 112L348.245 145"/></g><g class="vf-notehead" id="vf-auto16278" pointer-events="bounding-box"><path stroke="none" d="M347.495 111.685C347.495 113.426,348.759 115.391,352.016 115.391C356.228 115.391,360.637 111.938,360.637 108.371C360.637 105.985,358.615 104.665,356.116 104.665C352.185 104.665,347.495 107.978,347.495 111.685"/></g></g><g class="vf-stavenote" id="vf-auto16238"><path stroke-width="1.4" fill="none" stroke="#444" d="M467.218 90L486.359 90"/><path stroke-width="1.4" fill="none" stroke="#444" d="M467.218 100L486.359 100"/><g class="vf-stem" id="vf-auto16239" pointer-events="bounding-box"><path stroke-width="1.5" fill="none" d="M470.968 102L470.968 135"/></g><g class="vf-notehead" id="vf-auto16242" pointer-events="bounding-box"><path stroke="none" d="M470.218 101.685C470.218 103.426,471.481 105.391,474.739 105.391C478.951 105.391,483.359 101.938,483.359 98.371C483.359 95.985,481.338 94.665,478.838 94.665C474.907 94.665,470.218 97.978,470.218 101.685"/></g></g><g class="vf-stem" id="vf-auto16134" pointer-events="bounding-box"><path stroke-width="1.5" fill="none" d="M117.942 52L117.942 119.25"/></g><g class="vf-stem" id="vf-auto16150" pointer-events="bounding-box"><path stroke-width="1.5" fill="none" d="M171.732 62L171.732 105.802"/></g><g class="vf-beam" id="vf-auto16273"><path stroke="none" d="M117.192 120.188L117.192 115.188L171.982 101.74L171.982 106.74Z"/></g><g class="vf-stem" id="vf-auto16158" pointer-events="bounding-box"><path stroke-width="1.5" fill="none" d="M240.664 57L240.664 119.25"/></g><g class="vf-stem" id="vf-auto16172" pointer-events="bounding-box"><path stroke-width="1.5" fill="none" d="M294.455 62L294.455 105.802"/></g><g class="vf-beam" id="vf-auto16274"><path stroke="none" d="M239.914 120.188L239.914 115.188L294.705 101.74L294.705 106.74Z"/></g><g class="vf-stem" id="vf-auto16180" pointer-events="bounding-box"><path stroke-width="1.5" fill="none" d="M363.387 57L363.387 119.25"/></g><g class="vf-stem" id="vf-auto16194" pointer-events="bounding-box"><path stroke-width="1.5" fill="none" d="M417.177 62L417.177 105.802"/></g><g class="vf-beam" id="vf-auto16275"><path stroke="none" d="M362.637 120.188L362.637 115.188L417.427 101.74L417.427 106.74Z"/></g><g class="vf-stem" id="vf-auto16202" pointer-events="bounding-box"><path stroke-width="1.5" fill="none" d="M486.109 57L486.109 119.25"/></g><g class="vf-stem" id="vf-auto16216" pointer-events="bounding-box"><path stroke-width="1.5" fill="none" d="M539.9 62L539.9 105.802"/></g><g class="vf-beam" id="vf-auto16276"><path stroke="none" d="M485.359 120.188L485.359 115.188L540.15 101.74L540.15 106.74Z"/></g></svg>