<svg xmlns="http://www.w3.org/2000/svg" stroke-width="0.3" stroke-dasharray="none" fill="black" stroke="black" font-family="Arial, sans-serif" font-size="10pt" font-weight="normal" font-style="normal" width="450" height="200" viewBox="0 0 450 200" style="width: 450px; height: 200px; border: none;"><g class="vf-stave" id="vf-auto8270" stroke-width="1" fill="#999999" stroke="#999999"><path fill="none" d="M0 40L440 40"/><path fill="none" d="M0 50L440 50"/><path fill="none" d="M0 60L440 60"/><path fill="none" d="M0 70L440 70"/><path fill="none" d="M0 80L440 80"/></g><g class="vf-stavebarline" id="vf-auto8271"><rect y="39.5" width="1" height="41" stroke="none"/></g><g class="vf-stavebarline" id="vf-auto8272"><rect x="440" y="39.5" width="1" height="41" stroke="none"/></g><g class="vf-stavenote" id="vf-auto8273"><g class="vf-notehead" id="vf-auto8406" pointer-events="bounding-box"><path stroke="none" d="M20.931 65.054C24.525 65.054,28.934 61.741,28.934 58.315C28.934 56.237,27.305 54.946,25.003 54.946C20.566 54.946,17 58.231,17 61.685C17 63.791,18.741 65.054,20.931 65.054"/></g></g><g class="vf-stavenote" id="vf-auto8281"><g class="vf-notehead" id="vf-auto8408" pointer-events="bounding-box"><path stroke="none" d="M44.16 65.054C47.754 65.054,52.163 61.741,52.163 58.315C52.163 56.237,50.534 54.946,48.232 54.946C43.795 54.946,40.229 58.231,40.229 61.685C40.229 63.791,41.97 65.054,44.16 65.054"/></g></g><g class="vf-stavenote" id="vf-auto8289"><g class="vf-notehead" id="vf-auto8410" pointer-events="bounding-box"><path stroke="none" d="M67.389 65.054C70.983 65.054,75.392 61.741,75.392 58.315C75.392 56.237,73.763 54.946,71.461 54.946C67.024 54.946,63.458 58.231,63.458 61.685C63.458 63.791,65.199 65.054,67.389 65.054"/></g></g><g class="vf-stavenote" id="vf-auto8297"><g class="vf-notehead" id="vf-auto8446" pointer-events="bounding-box"><path stroke="none" d="M95.111 55.507C95.111 53.963,93.875 52.755,92.359 52.755C90.843 52.755,89.607 53.963,89.607 55.507C89.607 57.164,91.292 58.259,92.836 58.259C93.931 58.259,95.055 57.894,95.981 57.36C96.122 57.332,96.178 57.304,96.262 57.304C96.403 57.304,96.459 57.36,96.459 57.585C96.459 58.231,94.409 64.24,94.128 64.858C93.791 65.616,92.724 66.093,92.134 66.093C92.191 65.953,92.191 65.813,92.191 65.7C92.191 64.156,90.927 62.948,89.439 62.948C87.894 62.948,86.687 64.156,86.687 65.7C86.687 67.357,88.372 68.452,89.916 68.452C90.983 68.452,92.022 68.087,92.949 67.61C93.033 67.61,93.117 67.694,93.117 67.834L93.089 67.89C93.089 67.919,93.089 67.919,93.089 67.919L89.242 79.375C89.242 79.375,89.242 79.403,89.242 79.403L89.186 79.459C89.186 79.824,89.551 80.218,90.45 80.218C91.629 80.218,91.825 79.74,91.994 79.291L96.683 63.875C97.722 60.449,98.48 57.726,98.48 57.726C98.48 57.726,99.491 54.187,99.576 53.654C99.576 53.57,99.632 53.542,99.632 53.485C99.632 53.261,99.295 53.092,99.211 53.036C99.014 53.036,98.902 53.12,98.789 53.205C98.48 53.457,96.459 55.872,95.111 55.928"/></g></g><g class="vf-stavenote" id="vf-auto8302"><g class="vf-notehead" id="vf-auto8447" pointer-events="bounding-box"><path stroke="none" d="M118.34 55.507C118.34 53.963,117.104 52.755,115.588 52.755C114.072 52.755,112.836 53.963,112.836 55.507C112.836 57.164,114.521 58.259,116.065 58.259C117.16 58.259,118.284 57.894,119.21 57.36C119.351 57.332,119.407 57.304,119.491 57.304C119.631 57.304,119.688 57.36,119.688 57.585C119.688 58.231,117.638 64.24,117.357 64.858C117.02 65.616,115.953 66.093,115.363 66.093C115.419 65.953,115.419 65.813,115.419 65.7C115.419 64.156,114.156 62.948,112.668 62.948C111.123 62.948,109.916 64.156,109.916 65.7C109.916 67.357,111.601 68.452,113.145 68.452C114.212 68.452,115.251 68.087,116.178 67.61C116.262 67.61,116.346 67.694,116.346 67.834L116.318 67.89C116.318 67.919,116.318 67.919,116.318 67.919L112.471 79.375C112.471 79.375,112.471 79.403,112.471 79.403L112.415 79.459C112.415 79.824,112.78 80.218,113.679 80.218C114.858 80.218,115.054 79.74,115.223 79.291L119.912 63.875C120.951 60.449,121.709 57.726,121.709 57.726C121.709 57.726,122.72 54.187,122.805 53.654C122.805 53.57,122.861 53.542,122.861 53.485C122.861 53.261,122.524 53.092,122.439 53.036C122.243 53.036,122.131 53.12,122.018 53.205C121.709 53.457,119.688 55.872,118.34 55.928"/></g></g><g class="vf-stavenote" id="vf-auto8307"><g class="vf-notehead" id="vf-auto8414" pointer-events="bounding-box"><path stroke="none" d="M137.076 65.054C140.67 65.054,145.079 61.741,145.079 58.315C145.079 56.237,143.45 54.946,141.148 54.946C136.711 54.946,133.145 58.231,133.145 61.685C133.145 63.791,134.886 65.054,137.076 65.054"/></g></g><g class="vf-stavenote" id="vf-auto8315"><g class="vf-notehead" id="vf-auto8416" pointer-events="bounding-box"><path stroke="none" d="M160.305 65.054C163.899 65.054,168.308 61.741,168.308 58.315C168.308 56.237,166.679 54.946,164.376 54.946C159.94 54.946,156.374 58.231,156.374 61.685C156.374 63.791,158.115 65.054,160.305 65.054"/></g></g><g class="vf-stavenote" id="vf-auto8323"><g class="vf-notehead" id="vf-auto8418" pointer-events="bounding-box"><path stroke="none" d="M183.534 65.054C187.128 65.054,191.537 61.741,191.537 58.315C191.537 56.237,189.908 54.946,187.605 54.946C183.169 54.946,179.603 58.231,179.603 61.685C179.603 63.791,181.344 65.054,183.534 65.054"/></g></g><g class="vf-stavenote" id="vf-auto8331"><g class="vf-notehead" id="vf-auto8420" pointer-events="bounding-box"><path stroke="none" d="M206.763 65.054C210.357 65.054,214.766 61.741,214.766 58.315C214.766 56.237,213.137 54.946,210.834 54.946C206.398 54.946,202.832 58.231,202.832 61.685C202.832 63.791,204.573 65.054,206.763 65.054"/></g></g><g class="vf-stavenote" id="vf-auto8339"><g class="vf-notehead" id="vf-auto8422" pointer-events="bounding-box"><path stroke="none" d="M229.992 65.054C233.586 65.054,237.995 61.741,237.995 58.315C237.995 56.237,236.366 54.946,234.063 54.946C229.627 54.946,226.061 58.231,226.061 61.685C226.061 63.791,227.802 65.054,229.992 65.054"/></g></g><g class="vf-stavenote" id="vf-auto8347"><g class="vf-notehead" id="vf-auto8424" pointer-events="bounding-box"><path stroke="none" d="M253.221 65.054C256.815 65.054,261.223 61.741,261.223 58.315C261.223 56.237,259.595 54.946,257.292 54.946C252.856 54.946,249.289 58.231,249.289 61.685C249.289 63.791,251.03 65.054,253.221 65.054"/></g></g><g class="vf-stavenote" id="vf-auto8355"><g class="vf-notehead" id="vf-auto8448" pointer-events="bounding-box"><path stroke="none" d="M280.942 55.507C280.942 53.963,279.707 52.755,278.191 52.755C276.674 52.755,275.439 53.963,275.439 55.507C275.439 57.164,277.124 58.259,278.668 58.259C279.763 58.259,280.886 57.894,281.813 57.36C281.953 57.332,282.009 57.304,282.094 57.304C282.234 57.304,282.29 57.36,282.29 57.585C282.29 58.231,280.24 64.24,279.96 64.858C279.623 65.616,278.556 66.093,277.966 66.093C278.022 65.953,278.022 65.813,278.022 65.7C278.022 64.156,276.759 62.948,275.27 62.948C273.726 62.948,272.518 64.156,272.518 65.7C272.518 67.357,274.203 68.452,275.748 68.452C276.815 68.452,277.854 68.087,278.78 67.61C278.865 67.61,278.949 67.694,278.949 67.834L278.921 67.89C278.921 67.919,278.921 67.919,278.921 67.919L275.074 79.375C275.074 79.375,275.074 79.403,275.074 79.403L275.018 79.459C275.018 79.824,275.383 80.218,276.281 80.218C277.461 80.218,277.657 79.74,277.826 79.291L282.515 63.875C283.554 60.449,284.312 57.726,284.312 57.726C284.312 57.726,285.323 54.187,285.407 53.654C285.407 53.57,285.463 53.542,285.463 53.485C285.463 53.261,285.126 53.092,285.042 53.036C284.846 53.036,284.733 53.12,284.621 53.205C284.312 53.457,282.29 55.872,280.942 55.928"/></g></g><g class="vf-stavenote" id="vf-auto8360"><g class="vf-stem" id="vf-auto8361" pointer-events="bounding-box"><path stroke-width="1.5" fill="none" d="M306.931 58L306.931 19"/></g><g class="vf-notehead" id="vf-auto8427" pointer-events="bounding-box"><path stroke="none" d="M299.679 65.054C303.273 65.054,307.681 61.741,307.681 58.315C307.681 56.237,306.053 54.946,303.75 54.946C299.314 54.946,295.747 58.231,295.747 61.685C295.747 63.791,297.488 65.054,299.679 65.054"/></g><path stroke="none" d="M316.683 50.21C316.627 48.637,316.262 47.093,315.644 45.632C315.616 45.576,315.616 45.492,315.616 45.352C315.616 45.267,315.616 45.211,315.644 45.127C315.729 44.846,316.571 42.6,316.571 40.297C316.571 39.006,316.29 37.714,315.729 36.535C316.094 35.496,316.543 33.839,316.543 32.266C316.543 31.845,316.543 31.48,316.459 31.115C316.009 28.672,315.083 27.577,312.359 24.629C310.337 22.438,308.175 21.793,307.473 17.749C307.445 17.384,307.164 16.963,306.743 16.963C306.518 16.963,306.181 17.187,306.181 17.468L306.181 40.101L306.378 40.101C308.737 40.185,311.404 40.269,313.988 45.52C314.886 47.289,315.251 49.114,315.251 51.052C315.251 52.203,315.111 53.326,314.914 54.506C314.914 54.618,314.886 54.702,314.886 54.787C314.886 55.264,315.111 55.629,315.392 55.741C315.476 55.797,315.56 55.826,315.644 55.826C315.897 55.826,316.178 55.629,316.459 55.18C316.571 54.955,316.739 53.074,316.739 51.333C316.739 50.94,316.683 50.575,316.683 50.21M314.605 30.329C315.027 31.115,315.195 31.733,315.195 32.266C315.195 32.575,315.111 32.828,315.083 33.109C314.999 33.502,314.802 34.204,314.605 34.878C314.016 34.148,313.286 33.39,312.359 32.379C310.393 30.188,308.4 29.515,307.754 25.583C309.972 25.583,312.359 26.566,314.605 30.329M315.027 41.449C314.942 41.757,314.942 42.094,314.83 42.375C314.802 42.488,314.605 42.6,314.381 42.6C314.268 42.6,314.156 42.572,314.1 42.459C313.51 41.561,312.921 40.859,312.247 40.073L312.05 39.848C310.309 37.798,308.652 36.9,307.754 33.951C307.67 33.67,307.866 33.305,308.231 33.305C311.489 33.305,315.111 37.18,315.111 40.466C315.111 40.803,315.083 41.112,315.027 41.449"/></g><g class="vf-stavenote" id="vf-auto8368"><g class="vf-notehead" id="vf-auto8429" pointer-events="bounding-box"><path stroke="none" d="M325.547 65.054C329.141 65.054,333.549 61.741,333.549 58.315C333.549 56.237,331.921 54.946,329.618 54.946C325.182 54.946,321.615 58.231,321.615 61.685C321.615 63.791,323.356 65.054,325.547 65.054"/></g></g><g class="vf-stavenote" id="vf-auto8376"><g class="vf-notehead" id="vf-auto8431" pointer-events="bounding-box"><path stroke="none" d="M347.163 65.054C350.757 65.054,355.166 61.741,355.166 58.315C355.166 56.237,353.537 54.946,351.234 54.946C346.798 54.946,343.232 58.231,343.232 61.685C343.232 63.791,344.973 65.054,347.163 65.054"/></g></g><g class="vf-stavenote" id="vf-auto8384"><g class="vf-notehead" id="vf-auto8433" pointer-events="bounding-box"><path stroke="none" d="M368.779 65.054C372.373 65.054,376.782 61.741,376.782 58.315C376.782 56.237,375.153 54.946,372.851 54.946C368.414 54.946,364.848 58.231,364.848 61.685C364.848 63.791,366.589 65.054,368.779 65.054"/></g></g><g class="vf-stavenote" id="vf-auto8392"><g class="vf-notehead" id="vf-auto8449" pointer-events="bounding-box"><path stroke="none" d="M394.888 55.507C394.888 53.963,393.653 52.755,392.136 52.755C390.62 52.755,389.384 53.963,389.384 55.507C389.384 57.164,391.069 58.259,392.614 58.259C393.709 58.259,394.832 57.894,395.759 57.36C395.899 57.332,395.955 57.304,396.039 57.304C396.18 57.304,396.236 57.36,396.236 57.585C396.236 58.231,394.186 64.24,393.905 64.858C393.568 65.616,392.501 66.093,391.912 66.093C391.968 65.953,391.968 65.813,391.968 65.7C391.968 64.156,390.704 62.948,389.216 62.948C387.671 62.948,386.464 64.156,386.464 65.7C386.464 67.357,388.149 68.452,389.693 68.452C390.76 68.452,391.799 68.087,392.726 67.61C392.81 67.61,392.894 67.694,392.894 67.834L392.866 67.89C392.866 67.919,392.866 67.919,392.866 67.919L389.019 79.375C389.019 79.375,389.019 79.403,389.019 79.403L388.963 79.459C388.963 79.824,389.328 80.218,390.227 80.218C391.406 80.218,391.603 79.74,391.771 79.291L396.461 63.875C397.499 60.449,398.258 57.726,398.258 57.726C398.258 57.726,399.269 54.187,399.353 53.654C399.353 53.57,399.409 53.542,399.409 53.485C399.409 53.261,399.072 53.092,398.988 53.036C398.791 53.036,398.679 53.12,398.567 53.205C398.258 53.457,396.236 55.872,394.888 55.928"/></g></g><g class="vf-stavenote" id="vf-auto8397"><g class="vf-notehead" id="vf-auto8436" pointer-events="bounding-box"><path stroke="none" d="M413.624 65.054C417.218 65.054,421.627 61.741,421.627 58.315C421.627 56.237,419.998 54.946,417.696 54.946C413.259 54.946,409.693 58.231,409.693 61.685C409.693 63.791,411.434 65.054,413.624 65.054"/></g></g><g class="vf-stem" id="vf-auto8274" pointer-events="bounding-box"><path stroke-width="1.5" fill="none" d="M28.184 58L28.184 25.75"/></g><g class="vf-stem" id="vf-auto8282" pointer-events="bounding-box"><path stroke-width="1.5" fill="none" d="M51.413 58L51.413 25.75"/></g><g class="vf-beam" id="vf-auto8438"><path stroke="none" d="M27.434 25L27.434 30L51.663 30L51.663 25Z"/><path stroke="none" d="M27.434 32.5L27.434 37.5L51.663 37.5L51.663 32.5Z"/></g><g class="vf-stem" id="vf-auto8290" pointer-events="bounding-box"><path stroke-width="1.5" fill="none" d="M64.208 62L64.208 94.25"/></g><g class="vf-beam" id="vf-auto8439"><path stroke="none" d="M63.458 95L63.458 90L93.409 90L93.409 95Z"/><path stroke="none" d="M63.458 87.5L63.458 82.5L93.409 82.5L93.409 87.5Z"/></g><g class="vf-stem" id="vf-auto8308" pointer-events="bounding-box"><path stroke-width="1.5" fill="none" d="M133.895 62L133.895 94.25"/></g><g class="vf-beam" id="vf-auto8440"><path stroke="none" d="M115.638 95L115.638 90L134.145 90L134.145 95Z"/><path stroke="none" d="M115.638 87.5L115.638 82.5L134.145 82.5L134.145 87.5Z"/></g><g class="vf-stem" id="vf-auto8316" pointer-events="bounding-box"><path stroke-width="1.5" fill="none" d="M167.558 58L167.558 25.75"/></g><g class="vf-stem" id="vf-auto8324" pointer-events="bounding-box"><path stroke-width="1.5" fill="none" d="M190.787 58L190.787 25.75"/></g><g class="vf-beam" id="vf-auto8441"><path stroke="none" d="M166.808 25L166.808 30L191.037 30L191.037 25Z"/><path stroke="none" d="M166.808 32.5L166.808 37.5L191.037 37.5L191.037 32.5Z"/></g><g class="vf-stem" id="vf-auto8332" pointer-events="bounding-box"><path stroke-width="1.5" fill="none" d="M203.582 62L203.582 94.25"/></g><g class="vf-stem" id="vf-auto8340" pointer-events="bounding-box"><path stroke-width="1.5" fill="none" d="M226.811 62L226.811 94.25"/></g><g class="vf-beam" id="vf-auto8442"><path stroke="none" d="M202.832 95L202.832 90L227.061 90L227.061 95Z"/><path stroke="none" d="M202.832 87.5L202.832 82.5L227.061 82.5L227.061 87.5Z"/></g><g class="vf-stem" id="vf-auto8348" pointer-events="bounding-box"><path stroke-width="1.5" fill="none" d="M260.473 58L260.473 25.75"/></g><g class="vf-beam" id="vf-auto8443"><path stroke="none" d="M259.723 25L259.723 30L279.241 30L279.241 25Z"/><path stroke="none" d="M259.723 32.5L259.723 37.5L279.241 37.5L279.241 32.5Z"/></g><g class="vf-stem" id="vf-auto8369" pointer-events="bounding-box"><path stroke-width="1.5" fill="none" d="M322.365 62L322.365 101.75"/></g><g class="vf-stem" id="vf-auto8377" pointer-events="bounding-box"><path stroke-width="1.5" fill="none" d="M343.982 62L343.982 101.75"/></g><g class="vf-beam" id="vf-auto8444"><path stroke="none" d="M321.615 102.5L321.615 97.5L344.232 97.5L344.232 102.5Z"/><path stroke="none" d="M321.615 95L321.615 90L344.232 90L344.232 95Z"/><path stroke="none" d="M321.615 87.5L321.615 82.5L344.232 82.5L344.232 87.5Z"/></g><g class="vf-stem" id="vf-auto8385" pointer-events="bounding-box"><path stroke-width="1.5" fill="none" d="M376.032 58L376.032 18.25"/></g><g class="vf-stem" id="vf-auto8398" pointer-events="bounding-box"><path stroke-width="1.5" fill="none" d="M420.877 58L420.877 22.735"/></g><g class="vf-beam" id="vf-auto8445"><path stroke="none" d="M375.282 17.425L375.282 22.425L421.127 26.91L421.127 21.91Z"/><path stroke="none" d="M375.282 24.925L375.282 29.925L421.127 34.41L421.127 29.41Z"/><path stroke="none" d="M375.282 32.425L375.282 37.425L386.282 38.425L386.282 33.425Z"/></g></svg>