<svg xmlns="http://www.w3.org/2000/svg" stroke-width="0.3" stroke-dasharray="none" fill="black" stroke="black" font-family="Arial, sans-serif" font-size="10pt" font-weight="normal" font-style="normal" width="300" height="280" viewBox="0 0 100 93.33333333333333" style="width: 300px; height: 280px; border: none;"><g class="vf-stave" id="vf-auto35532" stroke-width="1" fill="#999999" stroke="#999999"><path fill="none" d="M10 40L110 40"/><path fill="none" d="M10 50L110 50"/><path fill="none" d="M10 60L110 60"/><path fill="none" d="M10 70L110 70"/><path fill="none" d="M10 80L110 80"/></g><g class="vf-stavebarline" id="vf-auto35533"><rect x="10" y="39.5" width="1" height="41" stroke="none"/></g><g class="vf-stavebarline" id="vf-auto35534"><rect x="110" y="39.5" width="1" height="41" stroke="none"/></g><g class="vf-stavenote" id="vf-auto35535"><g class="vf-stem" id="vf-auto35536" pointer-events="bounding-box" fill="blue" stroke="blue"><path stroke-width="1.5" fill="none" d="M64.391 68L64.391 15" style="filter: drop-shadow(0 0 1.3333333333333333px blue)"/></g><g class="vf-notehead" id="vf-auto35540" pointer-events="bounding-box"><path stroke="none" d="M52 71.685C52 73.426,53.264 75.391,56.521 75.391C60.733 75.391,65.141 71.938,65.141 68.371C65.141 65.985,63.12 64.665,60.621 64.665C56.689 64.665,52 67.978,52 71.685"/></g><g class="vf-notehead" id="vf-auto35541" pointer-events="bounding-box"><path stroke="none" d="M52 61.685C52 63.426,53.264 65.391,56.521 65.391C60.733 65.391,65.141 61.938,65.141 58.371C65.141 55.985,63.12 54.665,60.621 54.665C56.689 54.665,52 57.978,52 61.685"/><path stroke="none" d="M49.918 56.881C49.699 55.349,48.741 53.899,46.744 53.899C44.774 53.899,43.625 55.103,43.434 55.349L43.598 42.708C43.598 42.38,43.352 42.161,43.023 42.161L42.558 42.161C42.257 42.161,42.011 42.38,42.011 42.708L42.202 66.375C42.202 66.703,42.449 66.922,42.75 66.922C42.832 66.922,42.996 66.895,43.078 66.867C43.242 66.785,45.787 65.527,47.921 63.119C49.425 61.423,50 59.48,50 57.866C50 57.51,49.973 57.209,49.918 56.881M47.209 58.413C47.209 59.015,47.045 60.821,46.06 62.326C45.404 63.338,44.063 64.405,43.324 65.007L43.434 57.319C43.516 56.963,44.09 55.814,45.677 55.814C47.1 55.814,47.209 57.155,47.209 58.003C47.209 58.194,47.209 58.304,47.209 58.413"/></g><g class="vf-notehead" id="vf-auto35542" pointer-events="bounding-box"><path stroke="none" d="M52 51.685C52 53.426,53.264 55.391,56.521 55.391C60.733 55.391,65.141 51.938,65.141 48.371C65.141 45.985,63.12 44.665,60.621 44.665C56.689 44.665,52 47.978,52 51.685"/></g></g></svg>