<svg xmlns="http://www.w3.org/2000/svg" stroke-width="0.3" stroke-dasharray="none" fill="black" stroke="black" font-family="Arial, sans-serif" font-size="10pt" font-weight="normal" font-style="normal" width="700" height="130" viewBox="0 0 700 130" style="width: 700px; height: 130px; border: none;"><g class="vf-stave" id="vf-auto18006" stroke-width="1" fill="#999999" stroke="#999999"><path fill="none" d="M10 50L660 50"/><path fill="none" d="M10 60L660 60"/><path fill="none" d="M10 70L660 70"/><path fill="none" d="M10 80L660 80"/><path fill="none" d="M10 90L660 90"/></g><g class="vf-stavebarline" id="vf-auto18007"><rect x="10" y="49.5" width="1" height="41" stroke="none"/></g><g class="vf-stavebarline" id="vf-auto18008"><rect x="660" y="49.5" width="1" height="41" stroke="none"/></g><g class="vf-stavenote" id="vf-auto18010"><g class="vf-stem" id="vf-auto18011" pointer-events="bounding-box"><path stroke-width="1.5" fill="none" d="M249.836 83L249.836 53"/></g><g class="vf-notehead" id="vf-auto18014" pointer-events="bounding-box"><path stroke="none" d="M242.584 90.054C246.178 90.054,250.586 86.741,250.586 83.315C250.586 81.237,248.958 79.946,246.655 79.946C242.219 79.946,238.652 83.231,238.652 86.685C238.652 88.791,240.393 90.054,242.584 90.054"/><g class="vf-stavenote" id="vf-auto18016"><g class="vf-stem" id="vf-auto18017" pointer-events="bounding-box"><path stroke-width="1.5" fill="none" d="M36.126 93L36.126 54.9"/></g><g class="vf-notehead" id="vf-auto18024" pointer-events="bounding-box"><path stroke="none" d="M31.595 98.336C33.967 98.336,36.876 96.149,36.876 93.888C36.876 92.517,35.802 91.664,34.282 91.664C31.354 91.664,29 93.832,29 96.112C29 97.502,30.149 98.336,31.595 98.336"/></g><g class="vf-notehead" id="vf-auto18025" pointer-events="bounding-box"><path stroke="none" d="M31.595 78.336C33.967 78.336,36.876 76.149,36.876 73.888C36.876 72.517,35.802 71.664,34.282 71.664C31.354 71.664,29 73.832,29 76.112C29 77.502,30.149 78.336,31.595 78.336"/></g><path stroke="none" d="M41.733 70.99C41.733 70.99,42.419 68.451,42.419 66.357C42.419 63.021,41.029 59.889,39.361 57.22C37.99 55.108,36.878 52.81,36.451 50.252C36.359 49.826,36.155 49.659,35.877 49.659C35.599 49.659,35.376 49.733,35.376 50.067L35.376 56.442C37.137 56.757,39.676 60.39,40.64 62.651C41.029 63.559,41.27 65.078,41.27 66.654C41.27 67.858,41.085 69.119,40.64 70.323C40.584 70.471,40.547 70.601,40.547 70.712C40.547 71.139,40.825 71.38,40.973 71.491C41.14 71.602,41.603 71.435,41.733 70.99"/></g><path stroke-width="1" fill="none" d="M30 66.75L43 57.75Z"/><g class="vf-stavenote" id="vf-auto18026"><g class="vf-stem" id="vf-auto18027" pointer-events="bounding-box"><path stroke-width="1.5" fill="none" d="M55.879 93L55.879 54.9"/></g><g class="vf-notehead" id="vf-auto18034" pointer-events="bounding-box"><path stroke="none" d="M51.347 98.336C53.72 98.336,56.629 96.149,56.629 93.888C56.629 92.517,55.554 91.664,54.035 91.664C51.107 91.664,48.753 93.832,48.753 96.112C48.753 97.502,49.902 98.336,51.347 98.336"/></g><g class="vf-notehead" id="vf-auto18035" pointer-events="bounding-box"><path stroke="none" d="M51.347 78.336C53.72 78.336,56.629 76.149,56.629 73.888C56.629 72.517,55.554 71.664,54.035 71.664C51.107 71.664,48.753 73.832,48.753 76.112C48.753 77.502,49.902 78.336,51.347 78.336"/></g><path stroke="none" d="M62.394 71.139C62.487 71.009,62.58 69.489,62.58 68.21L62.58 67.617C62.58 66.505,62.283 65.412,61.801 64.411C61.801 64.337,61.783 64.281,61.783 64.17C61.783 64.133,61.783 64.078,61.801 63.985C61.875 63.837,62.468 62.224,62.468 60.593C62.468 60.26,62.45 59.963,62.394 59.648C62.116 57.832,61.43 57.072,59.503 54.997C58.058 53.458,56.575 53.014,56.112 50.197C56.056 49.9,55.741 49.844,55.574 49.844C55.426 49.844,55.129 49.919,55.129 50.122L55.129 60.464L55.259 60.464C56.908 60.519,58.817 60.575,60.652 64.319C61.264 65.597,61.505 66.895,61.505 68.285C61.505 69.063,61.43 69.86,61.301 70.657C61.264 70.768,61.264 70.824,61.264 70.898C61.264 71.25,61.486 71.602,61.857 71.602C62.042 71.602,62.227 71.491,62.394 71.139M60.708 62.15C60.281 61.483,59.818 60.946,59.262 60.315C58.02 58.87,56.779 58.221,56.223 56.034C56.204 56.016,56.204 55.979,56.204 55.96C56.204 55.849,56.352 55.682,56.575 55.682L56.779 55.682C58.41 55.682,59.855 57.183,60.726 58.499C61.208 59.185,61.449 60.019,61.449 60.871C61.449 61.057,61.449 61.224,61.43 61.409C61.375 61.613,61.375 61.891,61.245 62.095C61.208 62.169,61.023 62.261,60.893 62.261C60.819 62.261,60.763 62.224,60.708 62.15"/></g><path stroke-width="1" fill="none" d="M49.753 66.75L62.753 57.75Z"/><g class="vf-stavenote" id="vf-auto18036"><g class="vf-stem" id="vf-auto18037" pointer-events="bounding-box"><path stroke-width="1.5" fill="none" d="M75.632 93L75.632 48.96"/></g><g class="vf-notehead" id="vf-auto18044" pointer-events="bounding-box"><path stroke="none" d="M71.1 98.336C73.473 98.336,76.382 96.149,76.382 93.888C76.382 92.517,75.307 91.664,73.788 91.664C70.859 91.664,68.506 93.832,68.506 96.112C68.506 97.502,69.655 98.336,71.1 98.336"/></g><g class="vf-notehead" id="vf-auto18045" pointer-events="bounding-box"><path stroke="none" d="M71.1 78.336C73.473 78.336,76.382 76.149,76.382 73.888C76.382 72.517,75.307 71.664,73.788 71.664C70.859 71.664,68.506 73.832,68.506 76.112C68.506 77.502,69.655 78.336,71.1 78.336"/></g><path stroke="none" d="M81.813 67.858C81.776 66.82,81.535 65.801,81.128 64.837C81.109 64.8,81.109 64.745,81.109 64.652C81.109 64.597,81.109 64.559,81.128 64.504C81.183 64.319,81.739 62.836,81.739 61.316C81.739 60.464,81.554 59.611,81.183 58.833C81.424 58.147,81.721 57.054,81.721 56.016C81.721 55.738,81.721 55.497,81.665 55.256C81.369 53.644,80.757 52.921,78.959 50.975C77.625 49.529,76.198 49.103,75.735 46.434C75.716 46.193,75.531 45.915,75.253 45.915C75.105 45.915,74.882 46.064,74.882 46.249L74.882 61.186L75.012 61.186C76.569 61.242,78.329 61.298,80.034 64.763C80.627 65.931,80.868 67.136,80.868 68.414C80.868 69.174,80.776 69.915,80.646 70.694C80.646 70.768,80.627 70.824,80.627 70.879C80.627 71.194,80.776 71.435,80.961 71.509C81.017 71.546,81.072 71.565,81.128 71.565C81.295 71.565,81.48 71.435,81.665 71.139C81.739 70.99,81.851 69.749,81.851 68.6C81.851 68.34,81.813 68.099,81.813 67.858M80.442 54.737C80.72 55.256,80.831 55.664,80.831 56.016C80.831 56.22,80.776 56.386,80.757 56.572C80.701 56.831,80.572 57.295,80.442 57.739C80.053 57.258,79.571 56.757,78.959 56.09C77.662 54.644,76.346 54.2,75.92 51.605C77.384 51.605,78.959 52.254,80.442 54.737M80.72 62.076C80.664 62.28,80.664 62.502,80.59 62.688C80.572 62.762,80.442 62.836,80.294 62.836C80.22 62.836,80.146 62.817,80.108 62.743C79.719 62.15,79.33 61.687,78.885 61.168L78.756 61.02C77.607 59.667,76.513 59.074,75.92 57.128C75.864 56.942,75.994 56.702,76.235 56.702C78.385 56.702,80.776 59.259,80.776 61.427C80.776 61.65,80.757 61.854,80.72 62.076"/></g><path stroke-width="1" fill="none" d="M69.506 66.75L82.506 57.75Z"/><g class="vf-stavenote" id="vf-auto18046"><g class="vf-stem" id="vf-auto18047" pointer-events="bounding-box"><path stroke-width="1.5" fill="none" d="M95.385 93L95.385 46.32"/></g><g class="vf-notehead" id="vf-auto18054" pointer-events="bounding-box"><path stroke="none" d="M90.853 98.336C93.225 98.336,96.135 96.149,96.135 93.888C96.135 92.517,95.06 91.664,93.54 91.664C90.612 91.664,88.259 93.832,88.259 96.112C88.259 97.502,89.408 98.336,90.853 98.336"/></g><g class="vf-notehead" id="vf-auto18055" pointer-events="bounding-box"><path stroke="none" d="M90.853 78.336C93.225 78.336,96.135 76.149,96.135 73.888C96.135 72.517,95.06 71.664,93.54 71.664C90.612 71.664,88.259 73.832,88.259 76.112C88.259 77.502,89.408 78.336,90.853 78.336"/></g><path stroke="none" d="M101.566 67.858C101.529 66.82,101.288 65.801,100.881 64.837C100.862 64.8,100.862 64.745,100.862 64.652C100.862 64.597,100.862 64.559,100.881 64.504C100.936 64.319,101.492 62.836,101.492 61.316C101.492 60.464,101.307 59.611,100.936 58.833C101.177 58.147,101.474 57.054,101.474 56.016C101.474 55.219,101.288 54.385,100.881 53.662C101.122 52.995,101.474 51.827,101.474 50.697C101.474 50.456,101.437 50.215,101.418 49.974C101.122 48.343,100.51 47.639,98.712 45.675C97.378 44.247,95.951 43.821,95.488 41.153C95.469 40.912,95.228 40.634,95.006 40.634C94.82 40.634,94.635 40.782,94.635 40.967L94.635 61.186L94.765 61.186C96.322 61.242,98.082 61.298,99.787 64.763C100.38 65.931,100.621 67.136,100.621 68.414C100.621 69.174,100.529 69.915,100.399 70.694C100.399 70.768,100.38 70.824,100.38 70.879C100.38 71.194,100.529 71.435,100.714 71.509C100.769 71.546,100.825 71.565,100.881 71.565C101.047 71.565,101.233 71.435,101.418 71.139C101.492 70.99,101.603 69.749,101.603 68.6C101.603 68.34,101.566 68.099,101.566 67.858M100.195 49.455C100.473 49.974,100.584 50.382,100.584 50.734C100.584 50.938,100.529 51.105,100.51 51.29L100.158 52.587C99.787 52.142,99.324 51.642,98.712 50.975C97.378 49.529,96.155 49.103,95.71 46.434C95.71 46.397,95.71 46.342,95.673 46.323C97.193 46.323,98.712 46.99,100.195 49.455M100.195 54.737C100.473 55.256,100.584 55.664,100.584 56.016C100.584 56.22,100.529 56.386,100.51 56.572C100.454 56.831,100.325 57.295,100.195 57.739C99.806 57.258,99.324 56.757,98.712 56.09C97.415 54.644,96.099 54.2,95.673 51.605C97.137 51.605,98.712 52.254,100.195 54.737M100.473 62.076C100.417 62.28,100.417 62.502,100.343 62.688C100.325 62.762,100.195 62.836,100.047 62.836C99.973 62.836,99.898 62.817,99.861 62.743C99.472 62.15,99.083 61.687,98.638 61.168L98.508 61.02C97.359 59.667,96.192 59.111,95.654 57.054C95.599 56.868,95.803 56.702,95.988 56.702C98.138 56.702,100.529 59.259,100.529 61.427C100.529 61.65,100.51 61.854,100.473 62.076"/></g><path stroke-width="1" fill="none" d="M89.259 66.75L102.259 57.75Z"/><g class="vf-stavenote" id="vf-auto18056"><g class="vf-stem" id="vf-auto18057" pointer-events="bounding-box"><path stroke-width="1.5" fill="none" d="M115.138 93L115.138 40.38"/></g><g class="vf-notehead" id="vf-auto18064" pointer-events="bounding-box"><path stroke="none" d="M110.606 98.336C112.978 98.336,115.888 96.149,115.888 93.888C115.888 92.517,114.813 91.664,113.293 91.664C110.365 91.664,108.012 93.832,108.012 96.112C108.012 97.502,109.161 98.336,110.606 98.336"/></g><g class="vf-notehead" id="vf-auto18065" pointer-events="bounding-box"><path stroke="none" d="M110.606 78.336C112.978 78.336,115.888 76.149,115.888 73.888C115.888 72.517,114.813 71.664,113.293 71.664C110.365 71.664,108.012 73.832,108.012 76.112C108.012 77.502,109.161 78.336,110.606 78.336"/></g><path stroke="none" d="M121.319 67.858C121.282 66.82,121.041 65.801,120.634 64.837C120.615 64.8,120.615 64.745,120.615 64.652C120.615 64.597,120.615 64.559,120.634 64.504C120.689 64.319,121.245 62.836,121.245 61.316C121.245 60.464,121.06 59.611,120.689 58.833C120.93 58.147,121.227 57.054,121.227 56.016C121.227 55.219,121.041 54.385,120.634 53.662C120.874 52.995,121.227 51.827,121.227 50.697C121.227 50.456,121.189 50.215,121.171 49.974C121.06 49.418,120.93 48.973,120.708 48.51C120.949 47.843,121.227 46.805,121.227 45.786C121.227 45.526,121.227 45.248,121.171 45.007C120.874 43.395,120.263 42.672,118.465 40.726C117.131 39.281,115.704 38.854,115.24 36.186C115.222 35.945,115.037 35.667,114.796 35.667C114.573 35.667,114.388 35.815,114.388 36L114.388 61.186L114.518 61.186C116.074 61.242,117.835 61.298,119.54 64.763C120.133 65.931,120.374 67.136,120.374 68.414C120.374 69.174,120.281 69.915,120.152 70.694C120.152 70.768,120.133 70.824,120.133 70.879C120.133 71.194,120.281 71.435,120.467 71.509C120.522 71.546,120.578 71.565,120.634 71.565C120.8 71.565,120.986 71.435,121.171 71.139C121.245 70.99,121.356 69.749,121.356 68.6C121.356 68.34,121.319 68.099,121.319 67.858M119.948 44.488C120.226 45.007,120.337 45.415,120.337 45.767C120.337 45.971,120.281 46.138,120.263 46.323C120.207 46.564,120.096 46.972,119.966 47.398C119.596 46.916,119.114 46.379,118.465 45.675C117.186 44.266,115.852 43.84,115.407 41.356C116.871 41.356,118.465 42.005,119.948 44.488M119.948 49.455C120.226 49.974,120.337 50.382,120.337 50.734C120.337 50.938,120.281 51.105,120.263 51.29L119.911 52.587C119.54 52.142,119.077 51.642,118.465 50.975C117.131 49.529,115.889 49.103,115.426 46.434C115.426 46.397,115.426 46.342,115.407 46.323C116.927 46.323,118.465 46.99,119.948 49.455M119.948 54.737C120.226 55.256,120.337 55.664,120.337 56.016C120.337 56.22,120.281 56.386,120.263 56.572C120.207 56.831,120.078 57.295,119.948 57.739C119.559 57.258,119.077 56.757,118.465 56.09C117.168 54.644,115.852 54.2,115.426 51.605C116.89 51.605,118.465 52.254,119.948 54.737M120.226 62.076C120.17 62.28,120.17 62.502,120.096 62.688C120.078 62.762,119.948 62.836,119.8 62.836C119.725 62.836,119.651 62.817,119.614 62.743C119.225 62.15,118.836 61.687,118.391 61.168L118.261 61.02C117.112 59.667,115.945 59.111,115.407 57.054C115.37 56.868,115.537 56.702,115.741 56.702C117.891 56.702,120.281 59.259,120.281 61.427C120.281 61.65,120.263 61.854,120.226 62.076"/></g><path stroke-width="1" fill="none" d="M109.012 66.75L122.012 57.75Z"/><g class="vf-stavenote" id="vf-auto18066"><g class="vf-notehead" id="vf-auto18074" pointer-events="bounding-box"><path stroke="none" d="M130.359 98.336C132.731 98.336,135.641 96.149,135.641 93.888C135.641 92.517,134.566 91.664,133.046 91.664C130.118 91.664,127.764 93.832,127.764 96.112C127.764 97.502,128.913 98.336,130.359 98.336"/></g><g class="vf-notehead" id="vf-auto18075" pointer-events="bounding-box"><path stroke="none" d="M130.359 78.336C132.731 78.336,135.641 76.149,135.641 73.888C135.641 72.517,134.566 71.664,133.046 71.664C130.118 71.664,127.764 73.832,127.764 76.112C127.764 77.502,128.913 78.336,130.359 78.336"/></g></g><path stroke-width="1" fill="none" d="M130.648 64.143L146.426 48.364Z"/><g class="vf-stavenote" id="vf-auto18076"><g class="vf-notehead" id="vf-auto18084" pointer-events="bounding-box"><path stroke="none" d="M142.235 98.336C144.608 98.336,147.517 96.149,147.517 93.888C147.517 92.517,146.442 91.664,144.923 91.664C141.995 91.664,139.641 93.832,139.641 96.112C139.641 97.502,140.79 98.336,142.235 98.336"/></g><g class="vf-notehead" id="vf-auto18085" pointer-events="bounding-box"><path stroke="none" d="M142.235 78.336C144.608 78.336,147.517 76.149,147.517 73.888C147.517 72.517,146.442 71.664,144.923 71.664C141.995 71.664,139.641 73.832,139.641 76.112C139.641 77.502,140.79 78.336,142.235 78.336"/></g></g><path stroke-width="1" fill="none" d="M142.525 64.143L158.303 48.364Z"/><g class="vf-stavenote" id="vf-auto18086"><g class="vf-notehead" id="vf-auto18094" pointer-events="bounding-box"><path stroke="none" d="M154.112 98.336C156.484 98.336,159.394 96.149,159.394 93.888C159.394 92.517,158.319 91.664,156.799 91.664C153.871 91.664,151.517 93.832,151.517 96.112C151.517 97.502,152.666 98.336,154.112 98.336"/></g><g class="vf-notehead" id="vf-auto18095" pointer-events="bounding-box"><path stroke="none" d="M154.112 78.336C156.484 78.336,159.394 76.149,159.394 73.888C159.394 72.517,158.319 71.664,156.799 71.664C153.871 71.664,151.517 73.832,151.517 76.112C151.517 77.502,152.666 78.336,154.112 78.336"/></g></g><path stroke-width="1" fill="none" d="M162.886 64.143L147.108 48.364Z"/><g class="vf-stavenote" id="vf-auto18096"><g class="vf-notehead" id="vf-auto18104" pointer-events="bounding-box"><path stroke="none" d="M165.988 93.336C168.361 93.336,171.27 91.149,171.27 88.888C171.27 87.517,170.195 86.664,168.676 86.664C165.747 86.664,163.394 88.832,163.394 91.112C163.394 92.502,164.543 93.336,165.988 93.336"/></g><g class="vf-notehead" id="vf-auto18105" pointer-events="bounding-box"><path stroke="none" d="M165.988 78.336C168.361 78.336,171.27 76.149,171.27 73.888C171.27 72.517,170.195 71.664,168.676 71.664C165.747 71.664,163.394 73.832,163.394 76.112C163.394 77.502,164.543 78.336,165.988 78.336"/></g></g><path stroke-width="1" fill="none" d="M166.828 45.567L181.358 26.957Z"/><g class="vf-stavenote" id="vf-auto18106"><g class="vf-notehead" id="vf-auto18114" pointer-events="bounding-box"><path stroke="none" d="M177.865 93.336C180.237 93.336,183.147 91.149,183.147 88.888C183.147 87.517,182.072 86.664,180.552 86.664C177.624 86.664,175.27 88.832,175.27 91.112C175.27 92.502,176.419 93.336,177.865 93.336"/></g><g class="vf-notehead" id="vf-auto18115" pointer-events="bounding-box"><path stroke="none" d="M177.865 78.336C180.237 78.336,183.147 76.149,183.147 73.888C183.147 72.517,182.072 71.664,180.552 71.664C177.624 71.664,175.27 73.832,175.27 76.112C175.27 77.502,176.419 78.336,177.865 78.336"/></g></g><path stroke-width="1" fill="none" d="M178.704 42.598L193.235 23.988Z"/><g class="vf-stavenote" id="vf-auto18116"><g class="vf-notehead" id="vf-auto18124" pointer-events="bounding-box"><path stroke="none" d="M189.741 73.336C192.113 73.336,195.023 71.149,195.023 68.888C195.023 67.517,193.948 66.664,192.428 66.664C189.5 66.664,187.147 68.832,187.147 71.112C187.147 72.502,188.296 73.336,189.741 73.336"/></g><g class="vf-notehead" id="vf-auto18125" pointer-events="bounding-box"><path stroke="none" d="M189.741 53.336C192.113 53.336,195.023 51.149,195.023 48.888C195.023 47.517,193.948 46.664,192.428 46.664C189.5 46.664,187.147 48.832,187.147 51.112C187.147 52.502,188.296 53.336,189.741 53.336"/></g></g><path stroke-width="1" fill="none" d="M199.002 38.592L182.571 25.763Z"/><g class="vf-stavenote" id="vf-auto18126"><g class="vf-notehead" id="vf-auto18134" pointer-events="bounding-box"><path stroke="none" d="M201.618 73.336C203.99 73.336,206.899 71.149,206.899 68.888C206.899 67.517,205.825 66.664,204.305 66.664C201.377 66.664,199.023 68.832,199.023 71.112C199.023 72.502,200.172 73.336,201.618 73.336"/></g><g class="vf-notehead" id="vf-auto18135" pointer-events="bounding-box"><path stroke="none" d="M201.618 53.336C203.99 53.336,206.899 51.149,206.899 48.888C206.899 47.517,205.825 46.664,204.305 46.664C201.377 46.664,199.023 48.832,199.023 51.112C199.023 52.502,200.172 53.336,201.618 53.336"/></g></g><path stroke-width="1" fill="none" d="M201.42 35.623L217.852 22.794Z"/><g class="vf-stavenote" id="vf-auto18136"><g class="vf-notehead" id="vf-auto18144" pointer-events="bounding-box"><path stroke="none" d="M213.494 73.336C215.866 73.336,218.776 71.149,218.776 68.888C218.776 67.517,217.701 66.664,216.181 66.664C213.253 66.664,210.899 68.832,210.899 71.112C210.899 72.502,212.049 73.336,213.494 73.336"/></g><g class="vf-notehead" id="vf-auto18145" pointer-events="bounding-box"><path stroke="none" d="M213.494 53.336C215.866 53.336,218.776 51.149,218.776 48.888C218.776 47.517,217.701 46.664,216.181 46.664C213.253 46.664,210.899 48.832,210.899 51.112C210.899 52.502,212.049 53.336,213.494 53.336"/></g></g><path stroke-width="1" fill="none" d="M213.297 38.592L229.728 25.763Z"/><g class="vf-stavenote" id="vf-auto18146"><g class="vf-notehead" id="vf-auto18154" pointer-events="bounding-box"><path stroke="none" d="M225.371 93.336C227.743 93.336,230.652 91.149,230.652 88.888C230.652 87.517,229.577 86.664,228.058 86.664C225.13 86.664,222.776 88.832,222.776 91.112C222.776 92.502,223.925 93.336,225.371 93.336"/></g><g class="vf-notehead" id="vf-auto18155" pointer-events="bounding-box"><path stroke="none" d="M225.371 78.336C227.743 78.336,230.652 76.149,230.652 73.888C230.652 72.517,229.577 71.664,228.058 71.664C225.13 71.664,222.776 73.832,222.776 76.112C222.776 77.502,223.925 78.336,225.371 78.336"/></g></g><path stroke-width="1" fill="none" d="M233.595 42.598L219.064 23.988Z"/><g class="vf-stem" id="vf-auto18067" pointer-events="bounding-box"><path stroke-width="1.5" fill="none" d="M134.891 93L134.891 52.65"/></g><g class="vf-stem" id="vf-auto18077" pointer-events="bounding-box"><path stroke-width="1.5" fill="none" d="M146.767 93L146.767 52.65"/></g><g class="vf-stem" id="vf-auto18087" pointer-events="bounding-box"><path stroke-width="1.5" fill="none" d="M158.644 93L158.644 52.65"/></g><g class="vf-beam" id="vf-auto18158"><path stroke="none" d="M134.141 51.9L134.141 54.9L158.894 54.9L158.894 51.9Z"/></g><g class="vf-stem" id="vf-auto18097" pointer-events="bounding-box"><path stroke-width="1.5" fill="none" d="M170.52 88L170.52 33.588"/></g><g class="vf-stem" id="vf-auto18107" pointer-events="bounding-box"><path stroke-width="1.5" fill="none" d="M182.397 88L182.397 30.619"/></g><g class="vf-stem" id="vf-auto18117" pointer-events="bounding-box"><path stroke-width="1.5" fill="none" d="M194.273 68L194.273 27.65"/></g><g class="vf-beam" id="vf-auto18159"><path stroke="none" d="M169.77 33.026L169.77 36.026L194.523 30.088L194.523 27.088Z"/></g><g class="vf-stem" id="vf-auto18127" pointer-events="bounding-box"><path stroke-width="1.5" fill="none" d="M206.149 68L206.149 24.681"/></g><g class="vf-stem" id="vf-auto18137" pointer-events="bounding-box"><path stroke-width="1.5" fill="none" d="M218.026 68L218.026 27.65"/></g><g class="vf-stem" id="vf-auto18147" pointer-events="bounding-box"><path stroke-width="1.5" fill="none" d="M229.902 88L229.902 30.619"/></g><g class="vf-beam" id="vf-auto18160"><path stroke="none" d="M205.399 23.743L205.399 26.743L230.152 32.682L230.152 29.682Z"/></g></g><path stroke="none" d="M260.094 80.18C260.234 79.983,260.375 77.681,260.375 75.743L260.375 74.844C260.375 73.16,259.925 71.503,259.195 69.987C259.195 69.874,259.167 69.79,259.167 69.622C259.167 69.565,259.167 69.481,259.195 69.341C259.307 69.116,260.206 66.673,260.206 64.202C260.206 63.697,260.178 63.247,260.094 62.77C259.673 60.018,258.634 58.867,255.713 55.722C253.523 53.391,251.277 52.717,250.575 48.449C250.49 48,250.013 47.916,249.76 47.916C249.536 47.916,249.086 48.028,249.086 48.337L249.086 64.006L249.283 64.006C251.782 64.09,254.674 64.174,257.454 69.846C258.381 71.784,258.746 73.749,258.746 75.855C258.746 77.035,258.634 78.242,258.437 79.45C258.381 79.618,258.381 79.702,258.381 79.815C258.381 80.348,258.718 80.882,259.279 80.882C259.56 80.882,259.841 80.713,260.094 80.18M257.538 66.561C256.893 65.55,256.191 64.736,255.348 63.781C253.467 61.591,251.585 60.608,250.743 57.294C250.715 57.266,250.715 57.21,250.715 57.182C250.715 57.014,250.94 56.761,251.277 56.761L251.585 56.761C254.057 56.761,256.247 59.035,257.567 61.029C258.297 62.068,258.662 63.332,258.662 64.623C258.662 64.904,258.662 65.157,258.634 65.438C258.549 65.747,258.549 66.168,258.353 66.477C258.297 66.589,258.016 66.729,257.819 66.729C257.707 66.729,257.623 66.673,257.538 66.561"/></g><g class="vf-stavenote" id="vf-auto18161"><g class="vf-stem" id="vf-auto18162" pointer-events="bounding-box"><path stroke-width="1.5" fill="none" d="M536.463 87L536.463 117"/></g><g class="vf-notehead" id="vf-auto18165" pointer-events="bounding-box"><path stroke="none" d="M539.644 90.054C543.238 90.054,547.647 86.741,547.647 83.315C547.647 81.237,546.018 79.946,543.715 79.946C539.279 79.946,535.713 83.231,535.713 86.685C535.713 88.791,537.454 90.054,539.644 90.054"/><g class="vf-stavenote" id="vf-auto18167"><g class="vf-stem" id="vf-auto18168" pointer-events="bounding-box"><path stroke-width="1.5" fill="none" d="M366.192 77L366.192 115.1"/></g><g class="vf-notehead" id="vf-auto18176" pointer-events="bounding-box"><path stroke="none" d="M368.037 98.336C370.409 98.336,373.319 96.149,373.319 93.888C373.319 92.517,372.244 91.664,370.724 91.664C367.796 91.664,365.442 93.832,365.442 96.112C365.442 97.502,366.591 98.336,368.037 98.336"/></g><g class="vf-notehead" id="vf-auto18175" pointer-events="bounding-box"><path stroke="none" d="M368.037 78.336C370.409 78.336,373.319 76.149,373.319 73.888C373.319 72.517,372.244 71.664,370.724 71.664C367.796 71.664,365.442 73.832,365.442 76.112C365.442 77.502,366.591 78.336,368.037 78.336"/></g><path stroke="none" d="M371.855 99.825C372.225 100.937,372.411 102.271,372.411 103.476C372.411 105.051,371.744 107.294,371.336 108.202C370.354 110.444,369.019 112.594,365.442 113.799L365.442 120.081C365.442 120.341,365.665 120.471,365.869 120.471C366.11 120.471,366.462 120.322,366.517 119.878C366.962 117.357,368.945 115.022,370.298 112.928C371.985 110.278,373.615 107.109,373.615 103.773C373.615 101.678,373.078 99.788,372.856 98.936C372.781 98.639,372.615 98.528,372.429 98.528C372.04 98.528,371.577 99.047,371.855 99.825"/></g><path stroke-width="1" fill="none" d="M361.442 104.25L374.442 113.25Z"/><g class="vf-stavenote" id="vf-auto18177"><g class="vf-stem" id="vf-auto18178" pointer-events="bounding-box"><path stroke-width="1.5" fill="none" d="M378.069 77L378.069 115.1"/></g><g class="vf-notehead" id="vf-auto18186" pointer-events="bounding-box"><path stroke="none" d="M379.913 98.336C382.286 98.336,385.195 96.149,385.195 93.888C385.195 92.517,384.12 91.664,382.601 91.664C379.673 91.664,377.319 93.832,377.319 96.112C377.319 97.502,378.468 98.336,379.913 98.336"/></g><g class="vf-notehead" id="vf-auto18185" pointer-events="bounding-box"><path stroke="none" d="M379.913 78.336C382.286 78.336,385.195 76.149,385.195 73.888C385.195 72.517,384.12 71.664,382.601 71.664C379.673 71.664,377.319 73.832,377.319 76.112C377.319 77.502,378.468 78.336,379.913 78.336"/></g><path stroke="none" d="M383.731 99.121C384.12 101.363,384.12 103.791,383.101 105.867C381.266 109.61,379.098 109.685,377.449 109.74L377.319 109.74L377.319 120.081C377.319 120.211,377.504 120.341,377.764 120.341C377.968 120.341,378.246 120.285,378.301 119.989C378.95 115.875,384.213 114.744,384.843 110.537C384.899 110.259,384.917 109.925,384.917 109.592C384.917 107.961,384.343 106.349,384.25 106.2C384.232 106.145,384.232 106.089,384.232 106.015C384.232 105.904,384.25 105.848,384.25 105.774C385.214 103.773,385.251 101.159,384.825 99.01C384.676 98.398,384.491 98.435,384.176 98.435C383.861 98.454,383.639 98.676,383.731 99.121M383.342 107.924C383.49 107.924,383.676 108.017,383.694 108.109C383.824 108.313,383.824 108.573,383.879 108.776C383.917 108.98,383.917 109.166,383.917 109.314C383.917 110.203,383.676 111,383.194 111.686C382.304 113.002,380.599 114.503,378.968 114.503L378.764 114.503C378.542 114.503,378.394 114.355,378.394 114.225C378.394 114.207,378.394 114.17,378.412 114.151C378.968 111.964,380.469 111.353,381.73 109.87C382.286 109.258,382.73 108.739,383.157 108.035C383.212 107.961,383.268 107.924,383.342 107.924"/></g><path stroke-width="1" fill="none" d="M373.319 104.25L386.319 113.25Z"/><g class="vf-stavenote" id="vf-auto18187"><g class="vf-stem" id="vf-auto18188" pointer-events="bounding-box"><path stroke-width="1.5" fill="none" d="M389.945 77L389.945 121.04"/></g><g class="vf-notehead" id="vf-auto18196" pointer-events="bounding-box"><path stroke="none" d="M391.79 98.336C394.162 98.336,397.072 96.149,397.072 93.888C397.072 92.517,395.997 91.664,394.477 91.664C391.549 91.664,389.195 93.832,389.195 96.112C389.195 97.502,390.344 98.336,391.79 98.336"/></g><g class="vf-notehead" id="vf-auto18195" pointer-events="bounding-box"><path stroke="none" d="M391.79 78.336C394.162 78.336,397.072 76.149,397.072 73.888C397.072 72.517,395.997 71.664,394.477 71.664C391.549 71.664,389.195 73.832,389.195 76.112C389.195 77.502,390.344 78.336,391.79 78.336"/></g><path stroke="none" d="M396.479 102.068C396.479 101.53,396.293 98.435,395.367 98.435C395.311 98.435,395.256 98.435,395.2 98.454C395.015 98.528,394.829 98.806,394.829 99.158C394.829 99.195,394.848 99.251,394.848 99.343C395.07 100.529,395.385 101.363,395.385 102.271C395.385 103.013,395.181 103.791,394.551 104.885C392.531 108.517,390.826 108.573,389.195 108.628L389.195 124.344C389.195 124.585,389.362 124.696,389.566 124.696C389.844 124.696,390.048 124.4,390.085 124.159C390.53 121.379,392.049 120.953,393.439 119.433C395.311 117.413,395.941 116.653,396.238 114.948C396.293 114.707,396.293 114.447,396.293 114.17C396.293 113.02,395.941 111.853,395.7 111.13C396.127 110.352,396.312 109.351,396.312 108.443C396.312 107.053,395.886 105.904,395.793 105.644C395.793 105.607,395.793 105.589,395.793 105.589L395.7 105.441C395.7 105.348,395.737 105.292,395.793 105.2L395.886 105.014C396.238 104.347,396.368 104.069,396.479 102.346M390.233 112.946C390.789 110.815,392.031 110.222,393.217 108.814C393.754 108.202,394.181 107.683,394.607 107.016C394.662 106.942,394.755 106.923,394.829 106.923C394.959 106.923,395.126 106.997,395.144 107.071C395.218 107.257,395.218 107.479,395.274 107.683C395.311 107.905,395.33 108.146,395.33 108.35C395.33 110.537,392.883 113.298,390.715 113.298L390.585 113.298C390.344 113.298,390.233 113.076,390.233 112.946M395.311 113.614C395.33 113.799,395.385 113.966,395.385 114.17C395.385 114.522,395.274 114.948,394.959 115.504C393.439 118.08,391.808 118.766,390.289 118.766C390.233 118.747,390.233 118.71,390.233 118.692C390.696 115.912,392.049 115.485,393.439 113.966C394.088 113.261,394.551 112.742,394.94 112.261C395.089 112.761,395.218 113.317,395.311 113.614"/></g><path stroke-width="1" fill="none" d="M385.195 104.25L398.195 113.25Z"/><g class="vf-stavenote" id="vf-auto18197"><g class="vf-stem" id="vf-auto18198" pointer-events="bounding-box"><path stroke-width="1.5" fill="none" d="M401.822 77L401.822 123.68"/></g><g class="vf-notehead" id="vf-auto18206" pointer-events="bounding-box"><path stroke="none" d="M403.666 98.336C406.039 98.336,408.948 96.149,408.948 93.888C408.948 92.517,407.873 91.664,406.354 91.664C403.425 91.664,401.072 93.832,401.072 96.112C401.072 97.502,402.221 98.336,403.666 98.336"/></g><g class="vf-notehead" id="vf-auto18205" pointer-events="bounding-box"><path stroke="none" d="M403.666 78.336C406.039 78.336,408.948 76.149,408.948 73.888C408.948 72.517,407.873 71.664,406.354 71.664C403.425 71.664,401.072 73.832,401.072 76.112C401.072 77.502,402.221 78.336,403.666 78.336"/></g><path stroke="none" d="M408.355 102.068C408.355 101.53,408.17 98.435,407.243 98.435C407.188 98.435,407.132 98.435,407.076 98.454C406.891 98.528,406.706 98.806,406.706 99.158C406.706 99.195,406.724 99.251,406.724 99.343C406.947 100.529,407.262 101.363,407.262 102.271C407.262 103.013,407.058 103.791,406.428 104.885C404.408 108.517,402.703 108.573,401.072 108.628L401.072 129.793C401.072 129.997,401.239 130.126,401.442 130.126C401.72 130.126,401.924 129.848,401.961 129.607C402.406 126.827,403.926 126.401,405.316 124.881C407.188 122.843,407.818 122.102,408.114 120.397C408.17 120.119,408.188 119.859,408.188 119.6C408.188 118.469,407.855 117.302,407.577 116.597C407.855 116.097,408.003 115.597,408.114 114.948C408.17 114.707,408.17 114.447,408.17 114.17C408.17 113.02,407.818 111.853,407.577 111.13C408.003 110.352,408.188 109.351,408.188 108.443C408.188 107.053,407.762 105.904,407.669 105.644C407.669 105.607,407.669 105.589,407.669 105.589L407.577 105.441C407.577 105.348,407.614 105.292,407.669 105.2L407.762 105.014C408.114 104.347,408.244 104.069,408.355 102.346M402.11 112.946C402.666 110.815,403.907 110.222,405.093 108.814C405.631 108.202,406.057 107.683,406.483 107.016C406.539 106.942,406.632 106.923,406.706 106.923C406.835 106.923,407.002 106.997,407.021 107.071C407.095 107.257,407.095 107.479,407.151 107.683C407.188 107.905,407.206 108.146,407.206 108.35C407.206 110.537,404.76 113.298,402.591 113.298L402.462 113.298C402.221 113.298,402.11 113.076,402.11 112.946M407.188 113.614C407.206 113.799,407.262 113.966,407.262 114.17C407.262 114.522,407.151 114.948,406.835 115.504C405.316 118.08,403.685 118.766,402.165 118.766C402.11 118.747,402.11 118.71,402.11 118.692C402.573 115.912,403.926 115.485,405.316 113.966C405.964 113.261,406.428 112.742,406.817 112.261C406.965 112.761,407.095 113.317,407.188 113.614M407.188 119.062C407.206 119.247,407.262 119.414,407.262 119.618C407.262 119.97,407.151 120.397,406.835 120.953C405.316 123.51,403.611 124.214,402.11 124.214C402.462 121.694,403.759 121.119,405.316 119.433C405.964 118.747,406.428 118.21,406.835 117.728"/></g><path stroke-width="1" fill="none" d="M397.072 104.25L410.072 113.25Z"/><g class="vf-stavenote" id="vf-auto18207"><g class="vf-stem" id="vf-auto18208" pointer-events="bounding-box"><path stroke-width="1.5" fill="none" d="M413.698 77L413.698 129.62"/></g><g class="vf-notehead" id="vf-auto18216" pointer-events="bounding-box"><path stroke="none" d="M415.543 98.336C417.915 98.336,420.825 96.149,420.825 93.888C420.825 92.517,419.75 91.664,418.23 91.664C415.302 91.664,412.948 93.832,412.948 96.112C412.948 97.502,414.097 98.336,415.543 98.336"/></g><g class="vf-notehead" id="vf-auto18215" pointer-events="bounding-box"><path stroke="none" d="M415.543 78.336C417.915 78.336,420.825 76.149,420.825 73.888C420.825 72.517,419.75 71.664,418.23 71.664C415.302 71.664,412.948 73.832,412.948 76.112C412.948 77.502,414.097 78.336,415.543 78.336"/></g><path stroke="none" d="M420.232 102.068C420.232 101.53,420.046 98.435,419.12 98.435C419.064 98.435,419.008 98.435,418.953 98.454C418.767 98.528,418.582 98.806,418.582 99.158C418.582 99.195,418.601 99.251,418.601 99.343C418.823 100.529,419.138 101.363,419.138 102.271C419.138 103.013,418.934 103.791,418.304 104.885C416.284 108.517,414.579 108.573,412.948 108.628L412.948 135.223C412.948 135.445,413.078 135.575,413.319 135.575C413.56 135.575,413.801 135.278,413.838 135.037C414.283 132.276,415.802 131.85,417.192 130.33C419.064 128.291,419.694 127.55,419.991 125.845C420.046 125.567,420.065 125.308,420.065 125.03C420.065 123.918,419.731 122.75,419.453 122.046C419.842 121.323,420.065 120.397,420.065 119.6C420.065 118.469,419.731 117.302,419.453 116.597C419.731 116.097,419.879 115.597,419.991 114.948C420.046 114.707,420.046 114.447,420.046 114.17C420.046 113.02,419.694 111.853,419.453 111.13C419.879 110.352,420.065 109.351,420.065 108.443C420.065 107.053,419.639 105.904,419.546 105.644C419.546 105.607,419.546 105.589,419.546 105.589L419.453 105.441C419.453 105.348,419.49 105.292,419.546 105.2L419.639 105.014C419.991 104.347,420.12 104.069,420.232 102.346M413.986 112.946C414.542 110.815,415.784 110.222,416.97 108.814C417.507 108.202,417.934 107.683,418.36 107.016C418.415 106.942,418.508 106.923,418.582 106.923C418.712 106.923,418.879 106.997,418.897 107.071C418.971 107.257,418.971 107.479,419.027 107.683C419.064 107.905,419.083 108.146,419.083 108.35C419.083 110.537,416.636 113.298,414.468 113.298L414.338 113.298C414.097 113.298,413.986 113.076,413.986 112.946M419.064 113.614C419.083 113.799,419.138 113.966,419.138 114.17C419.138 114.522,419.027 114.948,418.712 115.504C417.192 118.08,415.561 118.766,414.042 118.766C413.986 118.747,413.986 118.71,413.986 118.692C414.449 115.912,415.802 115.485,417.192 113.966C417.841 113.261,418.304 112.742,418.693 112.261C418.842 112.761,418.971 113.317,419.064 113.614M419.064 119.062C419.083 119.247,419.138 119.414,419.138 119.618C419.138 119.97,419.027 120.397,418.712 120.953C417.192 123.51,415.487 124.214,413.986 124.214C414.338 121.694,415.635 121.119,417.192 119.433C417.841 118.747,418.304 118.21,418.712 117.728M419.064 124.511C419.083 124.696,419.138 124.844,419.138 125.067C419.138 125.419,419.027 125.845,418.712 126.401C417.192 128.959,415.487 129.663,413.986 129.663C414.338 127.142,415.635 126.549,417.192 124.881C417.841 124.177,418.304 123.658,418.712 123.176"/></g><path stroke-width="1" fill="none" d="M408.948 104.25L421.948 113.25Z"/><g class="vf-stavenote" id="vf-auto18217"><g class="vf-notehead" id="vf-auto18226" pointer-events="bounding-box"><path stroke="none" d="M427.419 98.336C429.791 98.336,432.701 96.149,432.701 93.888C432.701 92.517,431.626 91.664,430.106 91.664C427.178 91.664,424.825 93.832,424.825 96.112C424.825 97.502,425.974 98.336,427.419 98.336"/></g><g class="vf-notehead" id="vf-auto18225" pointer-events="bounding-box"><path stroke="none" d="M427.419 78.336C429.791 78.336,432.701 76.149,432.701 73.888C432.701 72.517,431.626 71.664,430.106 71.664C427.178 71.664,424.825 73.832,424.825 76.112C424.825 77.502,425.974 78.336,427.419 78.336"/></g></g><path stroke-width="1" fill="none" d="M421.332 105.857L437.11 121.636Z"/><g class="vf-stavenote" id="vf-auto18227"><g class="vf-notehead" id="vf-auto18236" pointer-events="bounding-box"><path stroke="none" d="M439.296 98.336C441.668 98.336,444.578 96.149,444.578 93.888C444.578 92.517,443.503 91.664,441.983 91.664C439.055 91.664,436.701 93.832,436.701 96.112C436.701 97.502,437.85 98.336,439.296 98.336"/></g><g class="vf-notehead" id="vf-auto18235" pointer-events="bounding-box"><path stroke="none" d="M439.296 78.336C441.668 78.336,444.578 76.149,444.578 73.888C444.578 72.517,443.503 71.664,441.983 71.664C439.055 71.664,436.701 73.832,436.701 76.112C436.701 77.502,437.85 78.336,439.296 78.336"/></g></g><path stroke-width="1" fill="none" d="M433.208 105.857L448.987 121.636Z"/><g class="vf-stavenote" id="vf-auto18237"><g class="vf-notehead" id="vf-auto18246" pointer-events="bounding-box"><path stroke="none" d="M451.172 98.336C453.544 98.336,456.454 96.149,456.454 93.888C456.454 92.517,455.379 91.664,453.859 91.664C450.931 91.664,448.578 93.832,448.578 96.112C448.578 97.502,449.727 98.336,451.172 98.336"/></g><g class="vf-notehead" id="vf-auto18245" pointer-events="bounding-box"><path stroke="none" d="M451.172 78.336C453.544 78.336,456.454 76.149,456.454 73.888C456.454 72.517,455.379 71.664,453.859 71.664C450.931 71.664,448.578 73.832,448.578 76.112C448.578 77.502,449.727 78.336,451.172 78.336"/></g></g><path stroke-width="1" fill="none" d="M453.57 105.857L437.792 121.636Z"/><g class="vf-stavenote" id="vf-auto18247"><g class="vf-notehead" id="vf-auto18256" pointer-events="bounding-box"><path stroke="none" d="M463.049 93.336C465.421 93.336,468.33 91.149,468.33 88.888C468.33 87.517,467.255 86.664,465.736 86.664C462.808 86.664,460.454 88.832,460.454 91.112C460.454 92.502,461.603 93.336,463.049 93.336"/></g><g class="vf-notehead" id="vf-auto18255" pointer-events="bounding-box"><path stroke="none" d="M463.049 78.336C465.421 78.336,468.33 76.149,468.33 73.888C468.33 72.517,467.255 71.664,465.736 71.664C462.808 71.664,460.454 73.832,460.454 76.112C460.454 77.502,461.603 78.336,463.049 78.336"/></g></g><path stroke-width="1" fill="none" d="M456.475 104.377L472.906 117.206Z"/><g class="vf-stavenote" id="vf-auto18257"><g class="vf-notehead" id="vf-auto18266" pointer-events="bounding-box"><path stroke="none" d="M474.925 93.336C477.297 93.336,480.207 91.149,480.207 88.888C480.207 87.517,479.132 86.664,477.612 86.664C474.684 86.664,472.33 88.832,472.33 91.112C472.33 92.502,473.479 93.336,474.925 93.336"/></g><g class="vf-notehead" id="vf-auto18265" pointer-events="bounding-box"><path stroke="none" d="M474.925 78.336C477.297 78.336,480.207 76.149,480.207 73.888C480.207 72.517,479.132 71.664,477.612 71.664C474.684 71.664,472.33 73.832,472.33 76.112C472.33 77.502,473.479 78.336,474.925 78.336"/></g></g><path stroke-width="1" fill="none" d="M468.351 101.408L484.783 114.237Z"/><g class="vf-stavenote" id="vf-auto18267"><g class="vf-notehead" id="vf-auto18276" pointer-events="bounding-box"><path stroke="none" d="M486.801 73.336C489.174 73.336,492.083 71.149,492.083 68.888C492.083 67.517,491.008 66.664,489.489 66.664C486.56 66.664,484.207 68.832,484.207 71.112C484.207 72.502,485.356 73.336,486.801 73.336"/></g><g class="vf-notehead" id="vf-auto18275" pointer-events="bounding-box"><path stroke="none" d="M486.801 53.336C489.174 53.336,492.083 51.149,492.083 48.888C492.083 47.517,491.008 46.664,489.489 46.664C486.56 46.664,484.207 48.832,484.207 51.112C484.207 52.502,485.356 53.336,486.801 53.336"/></g></g><path stroke-width="1" fill="none" d="M488.649 97.402L474.119 116.012Z"/><g class="vf-stavenote" id="vf-auto18277"><g class="vf-notehead" id="vf-auto18286" pointer-events="bounding-box"><path stroke="none" d="M498.678 73.336C501.05 73.336,503.96 71.149,503.96 68.888C503.96 67.517,502.885 66.664,501.365 66.664C498.437 66.664,496.083 68.832,496.083 71.112C496.083 72.502,497.232 73.336,498.678 73.336"/></g><g class="vf-notehead" id="vf-auto18285" pointer-events="bounding-box"><path stroke="none" d="M498.678 53.336C501.05 53.336,503.96 51.149,503.96 48.888C503.96 47.517,502.885 46.664,501.365 46.664C498.437 46.664,496.083 48.832,496.083 51.112C496.083 52.502,497.232 53.336,498.678 53.336"/></g></g><path stroke-width="1" fill="none" d="M493.141 94.433L507.671 113.043Z"/><g class="vf-stavenote" id="vf-auto18287"><g class="vf-notehead" id="vf-auto18296" pointer-events="bounding-box"><path stroke="none" d="M510.554 73.336C512.927 73.336,515.836 71.149,515.836 68.888C515.836 67.517,514.761 66.664,513.242 66.664C510.313 66.664,507.96 68.832,507.96 71.112C507.96 72.502,509.109 73.336,510.554 73.336"/></g><g class="vf-notehead" id="vf-auto18295" pointer-events="bounding-box"><path stroke="none" d="M510.554 53.336C512.927 53.336,515.836 51.149,515.836 48.888C515.836 47.517,514.761 46.664,513.242 46.664C510.313 46.664,507.96 48.832,507.96 51.112C507.96 52.502,509.109 53.336,510.554 53.336"/></g></g><path stroke-width="1" fill="none" d="M505.017 97.402L519.548 116.012Z"/><g class="vf-stavenote" id="vf-auto18297"><g class="vf-notehead" id="vf-auto18306" pointer-events="bounding-box"><path stroke="none" d="M522.431 93.336C524.803 93.336,527.713 91.149,527.713 88.888C527.713 87.517,526.638 86.664,525.118 86.664C522.19 86.664,519.836 88.832,519.836 91.112C519.836 92.502,520.985 93.336,522.431 93.336"/></g><g class="vf-notehead" id="vf-auto18305" pointer-events="bounding-box"><path stroke="none" d="M522.431 78.336C524.803 78.336,527.713 76.149,527.713 73.888C527.713 72.517,526.638 71.664,525.118 71.664C522.19 71.664,519.836 73.832,519.836 76.112C519.836 77.502,520.985 78.336,522.431 78.336"/></g></g><path stroke-width="1" fill="none" d="M525.315 101.408L508.884 114.237Z"/><g class="vf-stem" id="vf-auto18218" pointer-events="bounding-box"><path stroke-width="1.5" fill="none" d="M425.575 77L425.575 117.35"/></g><g class="vf-stem" id="vf-auto18228" pointer-events="bounding-box"><path stroke-width="1.5" fill="none" d="M437.451 77L437.451 117.35"/></g><g class="vf-stem" id="vf-auto18238" pointer-events="bounding-box"><path stroke-width="1.5" fill="none" d="M449.328 77L449.328 117.35"/></g><g class="vf-beam" id="vf-auto18309"><path stroke="none" d="M424.825 118.1L424.825 115.1L449.578 115.1L449.578 118.1Z"/></g><g class="vf-stem" id="vf-auto18248" pointer-events="bounding-box"><path stroke-width="1.5" fill="none" d="M461.204 77L461.204 115.319"/></g><g class="vf-stem" id="vf-auto18258" pointer-events="bounding-box"><path stroke-width="1.5" fill="none" d="M473.08 77L473.08 112.35"/></g><g class="vf-stem" id="vf-auto18268" pointer-events="bounding-box"><path stroke-width="1.5" fill="none" d="M484.957 52L484.957 109.381"/></g><g class="vf-beam" id="vf-auto18310"><path stroke="none" d="M460.454 116.257L460.454 113.257L485.207 107.318L485.207 110.318Z"/></g><g class="vf-stem" id="vf-auto18278" pointer-events="bounding-box"><path stroke-width="1.5" fill="none" d="M496.833 52L496.833 106.412"/></g><g class="vf-stem" id="vf-auto18288" pointer-events="bounding-box"><path stroke-width="1.5" fill="none" d="M508.71 52L508.71 109.381"/></g><g class="vf-stem" id="vf-auto18298" pointer-events="bounding-box"><path stroke-width="1.5" fill="none" d="M520.586 77L520.586 112.35"/></g><g class="vf-beam" id="vf-auto18311"><path stroke="none" d="M496.083 106.974L496.083 103.974L520.836 109.913L520.836 112.913Z"/></g></g><path stroke="none" d="M545.428 90.213C546.018 93.611,546.018 97.29,544.474 100.435C541.694 106.107,538.408 106.219,535.909 106.303L535.713 106.303L535.713 121.972C535.713 122.168,535.993 122.365,536.387 122.365C536.695 122.365,537.117 122.281,537.201 121.832C538.184 115.598,546.158 113.885,547.113 107.511C547.197 107.09,547.225 106.584,547.225 106.079C547.225 103.608,546.355 101.165,546.215 100.94C546.186 100.856,546.186 100.772,546.186 100.659C546.186 100.491,546.215 100.406,546.215 100.294C547.675 97.262,547.731 93.302,547.085 90.045C546.86 89.118,546.58 89.174,546.102 89.174C545.625 89.203,545.288 89.54,545.428 90.213M544.839 103.551C545.063 103.551,545.344 103.692,545.372 103.832C545.569 104.141,545.569 104.534,545.653 104.843C545.709 105.152,545.709 105.433,545.709 105.657C545.709 107.005,545.344 108.213,544.614 109.252C543.266 111.245,540.683 113.52,538.212 113.52L537.903 113.52C537.566 113.52,537.341 113.295,537.341 113.099C537.341 113.071,537.341 113.014,537.369 112.986C538.212 109.673,540.486 108.746,542.396 106.5C543.238 105.573,543.912 104.787,544.558 103.72C544.642 103.608,544.726 103.551,544.839 103.551"/></g></svg>