<svg xmlns="http://www.w3.org/2000/svg" stroke-width="0.3" stroke-dasharray="none" fill="black" stroke="black" font-family="Arial, sans-serif" font-size="10pt" font-weight="normal" font-style="normal" width="350" height="140" viewBox="0 0 388.88888888888886 155.55555555555554" style="width: 350px; height: 140px; border: none;"><g class="vf-stave" id="vf-auto37738" stroke-width="1" fill="#999999" stroke="#999999" font-family="Arial"><path fill="none" d="M10 62L450 62"/><path fill="none" d="M10 75L450 75"/><path fill="none" d="M10 88L450 88"/><path fill="none" d="M10 101L450 101"/><path fill="none" d="M10 114L450 114"/><path fill="none" d="M10 127L450 127"/></g><g class="vf-stavebarline" id="vf-auto37739" font-family="Arial"><rect x="10" y="61.5" width="1" height="66" stroke="none"/></g><g class="vf-stavebarline" id="vf-auto37740" font-family="Arial"><rect x="450" y="61.5" width="1" height="66" stroke="none"/></g><g class="vf-clef" id="vf-auto37741" font-family="Arial"><path stroke="none" d="M27.833 71.907L27.833 70.156L15.599 70.156L15.599 71.907L20.737 71.907L20.737 85.777L22.741 85.777L22.741 71.907M28.548 103.057L23.064 87.482L20.484 87.482L14.908 103.057L17.028 103.057L18.686 98.38L24.677 98.38L26.313 103.057M24.147 96.698L19.17 96.698L21.728 89.602M27.534 115.844C27.534 113.978,26.681 112.826,24.677 112.066C26.105 111.398,26.843 110.223,26.843 108.679C26.843 106.375,25.184 104.693,22.235 104.693L15.899 104.693L15.899 120.314L22.926 120.314C25.76 120.314,27.534 118.425,27.534 115.844M24.861 108.932C24.861 110.522,23.963 111.421,21.728 111.421L17.88 111.421L17.88 106.444L21.728 106.444C23.963 106.444,24.861 107.343,24.861 108.932M25.552 115.867C25.552 117.365,24.631 118.563,22.764 118.563L17.88 118.563L17.88 113.195L22.764 113.195C24.631 113.195,25.552 114.347,25.552 115.867"/></g><g class="vf-tabnote" id="vf-auto37742" pointer-events="bounding-box" font-family="Arial"><rect x="38.64" y="98" width="11.413" height="6" fill="#FFF" stroke="none"/><text stroke="none" font-family="Arial, sans-serif" x="40.64" y="106">4</text></g><g class="vf-tabnote" id="vf-auto37745" pointer-events="bounding-box" font-family="Arial"><rect x="78.233" y="98" width="11.413" height="6" fill="#FFF" stroke="none"/><text stroke="none" font-family="Arial, sans-serif" x="80.233" y="106">4</text></g><g class="vf-tabnote" id="vf-auto37748" pointer-events="bounding-box" font-family="Arial"><rect x="117.827" y="98" width="11.413" height="6" fill="#FFF" stroke="none"/><text stroke="none" font-family="Arial, sans-serif" x="119.827" y="106">4</text><rect x="117.827" y="111" width="11.413" height="6" fill="#FFF" stroke="none"/><text stroke="none" font-family="Arial, sans-serif" x="119.827" y="119">4</text></g><g class="vf-tabnote" id="vf-auto37751" pointer-events="bounding-box" font-family="Arial"><rect x="157.421" y="98" width="11.413" height="6" fill="#FFF" stroke="none"/><text stroke="none" font-family="Arial, sans-serif" x="159.421" y="106">6</text><rect x="157.421" y="111" width="11.413" height="6" fill="#FFF" stroke="none"/><text stroke="none" font-family="Arial, sans-serif" x="159.421" y="119">6</text></g><g class="vf-tabnote" id="vf-auto37754" pointer-events="bounding-box" font-family="Arial"><rect x="197.015" y="72" width="18.826" height="6" fill="#FFF" stroke="none"/><text stroke="none" font-family="Arial, sans-serif" x="199.015" y="80">14</text></g><g class="vf-tabnote" id="vf-auto37757" pointer-events="bounding-box" font-family="Arial"><rect x="236.608" y="72" width="18.826" height="6" fill="#FFF" stroke="none"/><text stroke="none" font-family="Arial, sans-serif" x="238.608" y="80">16</text></g><g class="vf-tabnote" id="vf-auto37760" pointer-events="bounding-box" font-family="Arial"><rect x="276.202" y="72" width="18.826" height="6" fill="#FFF" stroke="none"/><text stroke="none" font-family="Arial, sans-serif" x="278.202" y="80">14</text><rect x="276.202" y="85" width="18.826" height="6" fill="#FFF" stroke="none"/><text stroke="none" font-family="Arial, sans-serif" x="278.202" y="93">14</text></g><g class="vf-tabnote" id="vf-auto37763" pointer-events="bounding-box" font-family="Arial"><rect x="315.796" y="72" width="18.826" height="6" fill="#FFF" stroke="none"/><text stroke="none" font-family="Arial, sans-serif" x="317.796" y="80">16</text><rect x="315.796" y="85" width="18.826" height="6" fill="#FFF" stroke="none"/><text stroke="none" font-family="Arial, sans-serif" x="317.796" y="93">16</text></g><path stroke-width="1" fill="none" d="M50.053 104.5L78.233 98.5Z"/><text stroke="none" font-family="Times New Roman, serif" font-weight="bold" font-style="italic" x="57.476" y="48">sl.</text><path stroke-width="1" fill="none" d="M129.24 104.5L157.421 98.5Z"/><path stroke-width="1" fill="none" d="M129.24 117.5L157.421 111.5Z"/><text stroke="none" font-family="Times New Roman, serif" font-weight="bold" font-style="italic" x="136.664" y="48">sl.</text><path stroke-width="1" fill="none" d="M215.841 78.5L236.608 72.5Z"/><text stroke="none" font-family="Times New Roman, serif" font-weight="bold" font-style="italic" x="219.558" y="48">sl.</text><path stroke-width="1" fill="none" d="M295.029 78.5L315.796 72.5Z"/><path stroke-width="1" fill="none" d="M295.029 91.5L315.796 85.5Z"/><text stroke="none" font-family="Times New Roman, serif" font-weight="bold" font-style="italic" x="298.746" y="48">sl.</text></svg>