<svg xmlns="http://www.w3.org/2000/svg" stroke-width="0.3" stroke-dasharray="none" fill="black" stroke="black" font-family="Arial, sans-serif" font-size="10pt" font-weight="normal" font-style="normal" width="800" height="150" viewBox="0 0 800 150" style="width: 800px; height: 150px; border: none;"><g class="vf-stave" id="vf-auto36990" stroke-width="1" fill="#999999" stroke="#999999"><path fill="none" d="M10 50L985 50"/><path fill="none" d="M10 60L985 60"/><path fill="none" d="M10 70L985 70"/><path fill="none" d="M10 80L985 80"/><path fill="none" d="M10 90L985 90"/></g><g class="vf-stavebarline" id="vf-auto36991"><rect x="10" y="49.5" width="1" height="41" stroke="none"/></g><g class="vf-stavebarline" id="vf-auto36992"><rect x="985" y="49.5" width="1" height="41" stroke="none"/></g><g class="vf-stavenote" id="vf-auto36993"><g class="vf-stem" id="vf-auto36994" pointer-events="bounding-box"><path stroke-width="1.5" fill="none" d="M42.758 83L42.758 50"/></g><g class="vf-notehead" id="vf-auto36996" pointer-events="bounding-box"><path stroke="none" d="M33.645 91.543C33.926 91.599,34.178 91.627,34.459 91.627C38.334 91.627,44.119 86.348,44.006 82.08C43.894 81.041,43.922 79.609,41.816 78.766C41.227 78.485,40.581 78.373,39.879 78.373C35.554 78.373,30.865 83.343,30.528 86.657C30.528 86.909,30.5 87.134,30.5 87.387C30.5 89.409,31.399 91.037,33.645 91.543"/><path stroke="none" d="M50.508 85 A2 2 0 0 0 46.508 85 A2 2 0 0 0 50.508 85"/></g></g><g class="vf-stavenote" id="vf-auto36997"><g class="vf-stem" id="vf-auto36998" pointer-events="bounding-box"><path stroke-width="1.5" fill="none" d="M107.758 83L107.758 53"/></g><g class="vf-notehead" id="vf-auto37001" pointer-events="bounding-box"><path stroke="none" d="M98.645 91.543C98.926 91.599,99.178 91.627,99.459 91.627C103.334 91.627,109.119 86.348,109.006 82.08C108.894 81.041,108.922 79.609,106.816 78.766C106.227 78.485,105.581 78.373,104.879 78.373C100.554 78.373,95.865 83.343,95.528 86.657C95.528 86.909,95.5 87.134,95.5 87.387C95.5 89.409,96.399 91.037,98.645 91.543"/><path stroke="none" d="M126.066 85 A2 2 0 0 0 122.066 85 A2 2 0 0 0 126.066 85"/></g><path stroke="none" d="M114.429 80.882C115.44 79.73,116.423 78.523,116.844 77.063C117.35 75.49,117.546 73.918,117.546 72.345C117.546 71.278,117.462 70.239,117.293 69.2C116.816 65.747,115.721 62.602,113.531 59.85C112.576 58.642,111.649 57.379,110.667 56.171C109.543 54.711,108.841 53.391,108.813 51.51C108.813 51.145,108.729 50.555,108.729 50.106C108.729 49.376,108.448 48.674,108.167 48L107.971 48C107.157 48.365,106.988 49.011,106.988 49.769L106.988 52.044C106.988 55.16,107.802 57.996,109.684 60.496C110.47 61.422,111.2 62.433,111.958 63.36C113.896 65.662,115.356 68.246,115.637 71.334C115.693 71.896,115.889 72.458,115.889 72.991C115.889 73.272,115.833 73.553,115.721 73.806C115.328 74.676,114.907 75.631,114.177 76.22C113.531 76.754,113.39 77.344,113.39 77.989C113.39 78.326,113.418 78.691,113.446 79.056C113.503 79.59,113.699 80.095,113.727 80.629C113.783 80.966,113.896 81.106,114.036 81.106C114.148 81.106,114.261 81.022,114.429 80.882"/></g><g class="vf-stavenote" id="vf-auto37003"><g class="vf-stem" id="vf-auto37004" pointer-events="bounding-box"><path stroke-width="1.5" fill="none" d="M172.758 83L172.758 53"/></g><g class="vf-notehead" id="vf-auto37007" pointer-events="bounding-box"><path stroke="none" d="M163.645 91.543C163.926 91.599,164.178 91.627,164.459 91.627C168.334 91.627,174.119 86.348,174.006 82.08C173.894 81.041,173.922 79.609,171.816 78.766C171.227 78.485,170.581 78.373,169.879 78.373C165.554 78.373,160.865 83.343,160.528 86.657C160.528 86.909,160.5 87.134,160.5 87.387C160.5 89.409,161.399 91.037,163.645 91.543"/><path stroke="none" d="M193.737 85 A2 2 0 0 0 189.737 85 A2 2 0 0 0 193.737 85"/></g><path stroke="none" d="M183.661 81.106C183.886 81.191,184.054 80.966,184.223 80.797C184.419 80.545,184.532 80.264,184.672 79.955C185.037 78.944,185.121 77.877,185.065 76.642C185.037 76.192,185.037 75.631,184.953 75.013C185.121 73.721,185.262 72.43,185.234 71.054C185.262 70.211,185.121 69.228,185.065 68.246C184.897 66.28,184.391 64.427,183.661 62.602C182.398 59.457,179.983 57.182,177.624 54.88C176.501 53.784,175.322 52.717,174.704 51.201C174.367 50.387,174.395 49.488,174.114 48.674C174.03 48.449,174.03 48,173.665 48C173.637 48,173.581 48.028,173.496 48.028C173.131 48.168,172.766 48.281,172.766 48.899C172.766 49.207,172.822 49.544,172.822 49.909C172.57 49.938,172.373 50.022,172.289 50.218C172.177 50.499,172.036 50.78,172.036 51.061C172.008 51.65,172.008 52.156,172.008 52.774C172.008 55.076,172.345 57.351,172.991 59.513C174.142 63.641,176.389 67.122,179.253 70.267C181.836 73.16,183.521 76.473,183.493 80.517C183.493 80.713,183.38 80.994,183.661 81.106M183.605 70.913C183.015 69.594,182.229 68.302,181.303 67.122C179.477 64.736,177.315 62.63,176.08 59.794C175.518 58.502,174.872 57.266,174.423 55.89C174.956 56.761,175.602 57.631,176.389 58.39C177.905 59.934,179.562 61.422,180.938 63.135C182.763 65.438,183.802 68.021,183.605 70.913"/></g><g class="vf-stavenote" id="vf-auto37009"><g class="vf-stem" id="vf-auto37010" pointer-events="bounding-box"><path stroke-width="1.5" fill="none" d="M237.758 83L237.758 44"/></g><g class="vf-notehead" id="vf-auto37013" pointer-events="bounding-box"><path stroke="none" d="M228.645 91.543C228.926 91.599,229.178 91.627,229.459 91.627C233.334 91.627,239.119 86.348,239.006 82.08C238.894 81.041,238.922 79.609,236.816 78.766C236.227 78.485,235.581 78.373,234.879 78.373C230.554 78.373,225.865 83.343,225.528 86.657C225.528 86.909,225.5 87.134,225.5 87.387C225.5 89.409,226.399 91.037,228.645 91.543"/><path stroke="none" d="M256.353 85 A2 2 0 0 0 252.353 85 A2 2 0 0 0 256.353 85"/></g><path stroke="none" d="M245.978 82.342C246.371 82.454,246.568 81.977,246.764 81.64C246.848 81.528,246.905 81.359,246.989 81.247C247.494 79.506,247.775 77.765,247.747 76.052C247.747 74.03,247.354 72.008,246.483 69.987C246.287 69.594,246.174 69.144,246.174 68.667C246.174 68.414,246.174 68.133,246.259 67.881C246.455 67.038,246.568 66.224,246.568 65.438C246.568 65.073,246.54 64.651,246.483 64.258C246.399 63.528,246.118 62.77,246.118 62.04C246.118 61.787,246.118 61.591,246.203 61.338C246.54 60.299,246.68 59.288,246.652 58.39C246.68 53.953,244.995 49.572,241.148 47.242C239.66 46.343,238.312 45.136,238.396 43.058C238.396 42.861,238.256 42.609,238.172 42.468C238.031 42.3,238.031 41.935,237.835 41.963L237.75 41.963C237.526 42.047,237.161 42.131,237.077 42.552C236.992 43.226,236.88 43.928,236.908 44.63C237.02 46.175,236.908 47.635,236.908 49.207C236.908 49.685,236.936 50.218,236.908 50.752C236.908 52.409,237.077 54.065,237.02 55.75C237.02 57.463,237.105 59.148,237.105 60.804C237.105 62.686,237.526 64.427,238.761 65.915C239.548 66.842,240.474 67.572,241.345 68.33C243.816 70.492,245.192 73.244,245.838 76.389C245.922 76.67,245.922 76.979,245.922 77.316C245.922 78.326,245.669 79.337,245.669 80.348C245.669 80.713,245.725 81.106,245.809 81.471C245.894 81.752,245.641 82.258,245.978 82.342M244.911 58.558C243.9 56.115,241.766 54.88,240.306 53.054C239.828 52.437,239.491 51.791,239.463 50.948C241.991 52.044,244.995 55.554,244.995 57.94C244.995 58.193,244.967 58.39,244.911 58.558M244.63 66.449C243.254 64.539,241.485 63.36,240.025 61.815C239.098 60.804,238.761 59.737,238.733 58.558C238.733 58.109,238.818 57.575,238.902 57.07C241.513 59.737,244.349 62.152,244.63 66.449"/></g><g class="vf-stavenote" id="vf-auto37015"><g class="vf-stem" id="vf-auto37016" pointer-events="bounding-box"><path stroke-width="1.5" fill="none" d="M302.758 83L302.758 40"/></g><g class="vf-notehead" id="vf-auto37019" pointer-events="bounding-box"><path stroke="none" d="M293.645 91.543C293.926 91.599,294.178 91.627,294.459 91.627C298.334 91.627,304.119 86.348,304.006 82.08C303.894 81.041,303.922 79.609,301.816 78.766C301.227 78.485,300.581 78.373,299.879 78.373C295.554 78.373,290.865 83.343,290.528 86.657C290.528 86.909,290.5 87.134,290.5 87.387C290.5 89.409,291.399 91.037,293.645 91.543"/><path stroke="none" d="M322.077 85 A2 2 0 0 0 318.077 85 A2 2 0 0 0 322.077 85"/></g><path stroke="none" d="M311.036 81.275C311.429 81.387,311.71 80.994,311.878 80.629C312.412 79.422,312.609 78.074,312.609 76.698C312.609 74.536,311.991 72.458,311.289 70.408C311.12 70.043,310.98 69.678,310.98 69.228C310.98 69.144,311.036 69.032,311.036 68.892C311.205 67.768,311.401 66.645,311.401 65.438C311.401 65.073,311.401 64.651,311.317 64.286C311.289 64.09,311.289 63.921,311.289 63.725C311.289 63.051,311.485 62.405,311.682 61.759C312.047 60.468,312.244 59.092,312.244 57.716C312.244 56.986,312.159 56.256,312.075 55.554C311.935 54.15,310.98 52.858,310.98 51.566C310.98 51.37,310.98 51.117,311.064 50.92C311.064 50.555,311.12 50.19,311.12 49.825C311.12 48.73,310.98 47.832,310.783 46.961C310.278 44.967,309.014 43.395,307.554 41.963C306.291 40.755,304.774 39.913,303.623 38.565C303.23 38.088,302.949 37.61,302.949 36.908C302.949 36.122,302.752 35.252,302.387 34.494C302.247 34.297,302.219 33.96,301.966 33.96C301.938 33.96,301.938 33.96,301.882 34.016C301.601 34.044,301.236 34.185,301.18 34.522C301.096 34.887,301.04 35.224,301.04 35.532L301.04 35.785C301.18 36.684,301.18 37.554,301.18 38.425L301.18 40.531C301.18 41.542,301.208 42.581,301.377 43.62C301.545 44.715,301.573 45.894,301.573 47.017L301.573 48.983C301.573 49.46,301.601 49.909,301.601 50.387C301.742 52.212,302.135 53.981,302.022 55.75C301.882 57.379,301.77 59.007,301.77 60.58C301.77 61.394,301.826 62.18,301.882 62.995C302.05 64.988,302.865 66.645,304.409 67.881C305.224 68.555,306.01 69.2,306.74 69.902C309.66 72.823,310.783 76.389,310.868 80.376C310.868 80.545,310.84 80.741,310.84 80.91C310.84 81.022,310.868 81.191,311.036 81.275M309.267 50.471C306.431 48.477,303.426 46.652,302.949 42.581C304.606 43.956,306.094 45.248,307.638 46.54C308.397 47.186,308.902 48.084,309.323 48.927C309.464 49.179,309.492 49.376,309.492 49.572C309.492 49.853,309.407 50.134,309.267 50.471M309.576 59.513C307.891 57.856,306.15 56.284,304.522 54.599C303.511 53.532,303.398 52.128,303.342 50.471C305.055 52.296,306.908 53.672,308.734 55.076C309.744 55.834,310.474 56.845,310.474 58.109C310.474 58.474,310.39 58.867,310.278 59.288C310.138 59.597,310.053 59.737,309.941 59.737C309.829 59.737,309.688 59.653,309.576 59.513M309.632 67.403C308.032 65.297,305.926 64.146,304.493 62.265C303.848 61.478,303.511 60.58,303.511 59.457C303.511 59.148,303.511 58.867,303.567 58.642C304.999 60.664,306.993 61.815,308.481 63.528C309.267 64.371,309.66 65.382,309.66 66.729C309.66 66.926,309.66 67.179,309.632 67.403"/></g><g class="vf-stavenote" id="vf-auto37021"><g class="vf-stem" id="vf-auto37022" pointer-events="bounding-box"><path stroke-width="1.5" fill="none" d="M367.758 83L367.758 31"/></g><g class="vf-notehead" id="vf-auto37025" pointer-events="bounding-box"><path stroke="none" d="M358.645 91.543C358.926 91.599,359.178 91.627,359.459 91.627C363.334 91.627,369.119 86.348,369.006 82.08C368.894 81.041,368.922 79.609,366.816 78.766C366.227 78.485,365.581 78.373,364.879 78.373C360.554 78.373,355.865 83.343,355.528 86.657C355.528 86.909,355.5 87.134,355.5 87.387C355.5 89.409,356.399 91.037,358.645 91.543"/><path stroke="none" d="M385.701 85 A2 2 0 0 0 381.701 85 A2 2 0 0 0 385.701 85"/><path stroke="none" d="M391.701 85 A2 2 0 0 0 387.701 85 A2 2 0 0 0 391.701 85"/></g><path stroke="none" d="M374.826 80.517C375.219 80.517,375.444 79.983,375.668 79.618C375.724 79.534,375.724 79.422,375.724 79.337C376.09 78.214,376.202 77.119,376.202 75.968C376.202 74.479,375.949 72.991,375.668 71.503C375.556 70.913,375.444 70.408,375.444 69.846C375.444 69.425,375.528 69.032,375.724 68.583C375.949 68.049,375.921 67.319,376.005 66.673C376.005 66.533,376.033 66.308,376.033 66.112C376.033 65.101,375.809 64.062,375.809 62.995C375.809 62.405,375.837 61.815,376.09 61.226C376.455 60.243,376.595 59.288,376.595 58.277C376.595 56.733,376.23 55.188,375.753 53.672C375.724 53.532,375.668 53.419,375.668 53.251C375.668 53.167,375.668 53.082,375.753 53.026C376.37 51.847,376.651 50.696,376.651 49.544C376.651 48.337,376.314 47.073,375.921 45.782C375.809 45.417,375.64 45.08,375.64 44.799C375.64 44.518,375.753 44.293,376.118 43.956C376.37 43.788,376.483 43.423,376.539 43.114C376.567 42.581,376.595 42.103,376.595 41.598C376.595 38.537,375.584 35.785,373.282 33.483C372.439 32.668,371.484 32.022,370.586 31.264C369.575 30.422,368.564 29.608,368.564 28.119C368.564 27.698,368.368 27.417,368.199 27.108C368.087 26.884,368.087 26.575,367.862 26.575C367.834 26.575,367.806 26.603,367.75 26.603C367.469 26.743,367.076 26.743,366.935 27.165C366.851 27.614,366.458 28.035,366.458 28.428C366.458 29.411,366.542 30.282,366.486 31.292C366.458 32.5,366.458 33.651,366.458 34.83C366.458 35.196,366.458 35.589,366.486 35.954C366.627 37.273,367.076 38.537,367.076 39.885C367.076 41.317,367.132 42.833,367.132 44.406C367.132 44.967,367.104 45.585,367.076 46.147C367.02 46.961,366.992 47.719,366.992 48.534C366.992 49.572,367.02 50.668,367.02 51.707C367.02 53.054,366.992 54.43,366.823 55.75C366.739 56.536,366.711 57.266,366.711 58.081C366.711 59.288,366.795 60.496,366.795 61.675C366.795 62.77,367.272 63.556,368.031 64.343C369.463 65.747,370.951 67.122,371.99 68.835C373.899 71.896,374.208 75.406,374.545 78.888C374.545 79.085,374.517 79.309,374.545 79.506C374.573 79.702,374.517 79.955,374.517 80.152C374.517 80.376,374.545 80.517,374.826 80.517M374.994 43.788C372.888 40.812,369.603 38.621,368.564 34.662C373.001 37.975,375.022 39.941,374.994 43.788M374.068 50.05C373.001 48.393,371.484 47.27,370.024 45.978C369.154 45.248,368.733 44.434,368.733 43.311C368.733 43.058,368.761 42.833,368.817 42.552C370.614 45.136,373.253 46.905,374.068 50.05M374.292 59.12C373.001 57.266,371.512 55.834,370.165 54.262C369.378 53.391,368.733 52.38,368.733 51.145C368.733 50.948,368.733 50.752,368.761 50.555C371.147 51.51,374.012 55.89,374.292 59.12M373.45 65.101C371.99 62.602,368.929 61.226,368.396 58.025C370.137 60.383,372.888 61.984,373.45 65.101"/></g><g class="vf-stavenote" id="vf-auto37027"><g class="vf-stem" id="vf-auto37028" pointer-events="bounding-box"><path stroke-width="1.5" fill="none" d="M432.758 78L432.758 45"/></g><g class="vf-notehead" id="vf-auto37030" pointer-events="bounding-box"><path stroke="none" d="M423.645 86.543C423.926 86.599,424.178 86.627,424.459 86.627C428.334 86.627,434.119 81.348,434.006 77.08C433.894 76.041,433.922 74.609,431.816 73.766C431.227 73.485,430.581 73.373,429.879 73.373C425.554 73.373,420.865 78.343,420.528 81.657C420.528 81.909,420.5 82.134,420.5 82.387C420.5 84.409,421.399 86.037,423.645 86.543"/><path stroke="none" d="M440.508 75 A2 2 0 0 0 436.508 75 A2 2 0 0 0 440.508 75"/></g></g><g class="vf-stavenote" id="vf-auto37031"><g class="vf-stem" id="vf-auto37032" pointer-events="bounding-box"><path stroke-width="1.5" fill="none" d="M497.758 78L497.758 48"/></g><g class="vf-notehead" id="vf-auto37035" pointer-events="bounding-box"><path stroke="none" d="M488.645 86.543C488.926 86.599,489.178 86.627,489.459 86.627C493.334 86.627,499.119 81.348,499.006 77.08C498.894 76.041,498.922 74.609,496.816 73.766C496.227 73.485,495.581 73.373,494.879 73.373C490.554 73.373,485.865 78.343,485.528 81.657C485.528 81.909,485.5 82.134,485.5 82.387C485.5 84.409,486.399 86.037,488.645 86.543"/><path stroke="none" d="M516.066 75 A2 2 0 0 0 512.066 75 A2 2 0 0 0 516.066 75"/></g><path stroke="none" d="M504.429 75.882C505.44 74.73,506.423 73.523,506.844 72.063C507.35 70.49,507.546 68.918,507.546 67.345C507.546 66.278,507.462 65.239,507.293 64.2C506.816 60.747,505.721 57.602,503.531 54.85C502.576 53.642,501.649 52.379,500.667 51.171C499.543 49.711,498.841 48.391,498.813 46.51C498.813 46.145,498.729 45.555,498.729 45.106C498.729 44.376,498.448 43.674,498.167 43L497.971 43C497.157 43.365,496.988 44.011,496.988 44.769L496.988 47.044C496.988 50.16,497.802 52.996,499.684 55.496C500.47 56.422,501.2 57.433,501.958 58.36C503.896 60.662,505.356 63.246,505.637 66.334C505.693 66.896,505.889 67.458,505.889 67.991C505.889 68.272,505.833 68.553,505.721 68.806C505.328 69.676,504.907 70.631,504.177 71.22C503.531 71.754,503.39 72.344,503.39 72.989C503.39 73.326,503.418 73.691,503.446 74.056C503.503 74.59,503.699 75.095,503.727 75.629C503.783 75.966,503.896 76.106,504.036 76.106C504.148 76.106,504.261 76.022,504.429 75.882"/></g><g class="vf-stavenote" id="vf-auto37037"><g class="vf-stem" id="vf-auto37038" pointer-events="bounding-box"><path stroke-width="1.5" fill="none" d="M562.758 78L562.758 48"/></g><g class="vf-notehead" id="vf-auto37041" pointer-events="bounding-box"><path stroke="none" d="M553.645 86.543C553.926 86.599,554.178 86.627,554.459 86.627C558.334 86.627,564.119 81.348,564.006 77.08C563.894 76.041,563.922 74.609,561.816 73.766C561.227 73.485,560.581 73.373,559.879 73.373C555.554 73.373,550.865 78.343,550.528 81.657C550.528 81.909,550.5 82.134,550.5 82.387C550.5 84.409,551.399 86.037,553.645 86.543"/><path stroke="none" d="M583.737 75 A2 2 0 0 0 579.737 75 A2 2 0 0 0 583.737 75"/></g><path stroke="none" d="M573.661 76.106C573.886 76.191,574.054 75.966,574.223 75.797C574.419 75.545,574.532 75.264,574.672 74.955C575.037 73.944,575.121 72.877,575.065 71.642C575.037 71.192,575.037 70.631,574.953 70.013C575.121 68.721,575.262 67.43,575.234 66.054C575.262 65.211,575.121 64.228,575.065 63.246C574.897 61.28,574.391 59.427,573.661 57.602C572.398 54.457,569.983 52.182,567.624 49.88C566.501 48.784,565.322 47.717,564.704 46.201C564.367 45.387,564.395 44.488,564.114 43.674C564.03 43.449,564.03 43,563.665 43C563.637 43,563.581 43.028,563.496 43.028C563.131 43.168,562.766 43.281,562.766 43.899C562.766 44.207,562.822 44.544,562.822 44.909C562.57 44.938,562.373 45.022,562.289 45.218C562.177 45.499,562.036 45.78,562.036 46.061C562.008 46.65,562.008 47.156,562.008 47.774C562.008 50.076,562.345 52.351,562.991 54.513C564.142 58.641,566.389 62.122,569.253 65.267C571.836 68.16,573.521 71.473,573.493 75.517C573.493 75.713,573.38 75.994,573.661 76.106M573.605 65.913C573.015 64.594,572.229 63.302,571.303 62.122C569.477 59.736,567.315 57.63,566.08 54.794C565.518 53.502,564.872 52.266,564.423 50.89C564.956 51.761,565.602 52.631,566.389 53.39C567.905 54.934,569.562 56.422,570.938 58.135C572.763 60.438,573.802 63.021,573.605 65.913"/></g><g class="vf-stavenote" id="vf-auto37043"><g class="vf-stem" id="vf-auto37044" pointer-events="bounding-box"><path stroke-width="1.5" fill="none" d="M627.758 78L627.758 39"/></g><g class="vf-notehead" id="vf-auto37047" pointer-events="bounding-box"><path stroke="none" d="M618.645 86.543C618.926 86.599,619.178 86.627,619.459 86.627C623.334 86.627,629.119 81.348,629.006 77.08C628.894 76.041,628.922 74.609,626.816 73.766C626.227 73.485,625.581 73.373,624.879 73.373C620.554 73.373,615.865 78.343,615.528 81.657C615.528 81.909,615.5 82.134,615.5 82.387C615.5 84.409,616.399 86.037,618.645 86.543"/><path stroke="none" d="M646.353 75 A2 2 0 0 0 642.353 75 A2 2 0 0 0 646.353 75"/></g><path stroke="none" d="M635.978 77.342C636.371 77.454,636.568 76.977,636.764 76.64C636.848 76.528,636.905 76.359,636.989 76.247C637.494 74.506,637.775 72.765,637.747 71.052C637.747 69.03,637.354 67.008,636.483 64.987C636.287 64.594,636.174 64.144,636.174 63.667C636.174 63.414,636.174 63.133,636.259 62.881C636.455 62.038,636.568 61.224,636.568 60.438C636.568 60.073,636.54 59.651,636.483 59.258C636.399 58.528,636.118 57.77,636.118 57.04C636.118 56.787,636.118 56.591,636.203 56.338C636.54 55.299,636.68 54.288,636.652 53.39C636.68 48.953,634.995 44.572,631.148 42.242C629.66 41.343,628.312 40.136,628.396 38.058C628.396 37.861,628.256 37.609,628.172 37.468C628.031 37.3,628.031 36.935,627.835 36.963L627.75 36.963C627.526 37.047,627.161 37.131,627.077 37.552C626.992 38.226,626.88 38.928,626.908 39.63C627.02 41.175,626.908 42.635,626.908 44.207C626.908 44.685,626.936 45.218,626.908 45.752C626.908 47.409,627.077 49.065,627.02 50.75C627.02 52.463,627.105 54.148,627.105 55.804C627.105 57.686,627.526 59.427,628.761 60.915C629.548 61.842,630.474 62.572,631.345 63.33C633.816 65.492,635.192 68.244,635.838 71.389C635.922 71.67,635.922 71.979,635.922 72.316C635.922 73.326,635.669 74.337,635.669 75.348C635.669 75.713,635.725 76.106,635.809 76.471C635.894 76.752,635.641 77.258,635.978 77.342M634.911 53.558C633.9 51.115,631.766 49.88,630.306 48.054C629.828 47.437,629.491 46.791,629.463 45.948C631.991 47.044,634.995 50.554,634.995 52.94C634.995 53.193,634.967 53.39,634.911 53.558M634.63 61.449C633.254 59.539,631.485 58.36,630.025 56.815C629.098 55.804,628.761 54.737,628.733 53.558C628.733 53.109,628.818 52.575,628.902 52.07C631.513 54.737,634.349 57.152,634.63 61.449"/></g><g class="vf-stavenote" id="vf-auto37049"><g class="vf-stem" id="vf-auto37050" pointer-events="bounding-box"><path stroke-width="1.5" fill="none" d="M692.758 78L692.758 35"/></g><g class="vf-notehead" id="vf-auto37053" pointer-events="bounding-box"><path stroke="none" d="M683.645 86.543C683.926 86.599,684.178 86.627,684.459 86.627C688.334 86.627,694.119 81.348,694.006 77.08C693.894 76.041,693.922 74.609,691.816 73.766C691.227 73.485,690.581 73.373,689.879 73.373C685.554 73.373,680.865 78.343,680.528 81.657C680.528 81.909,680.5 82.134,680.5 82.387C680.5 84.409,681.399 86.037,683.645 86.543"/><path stroke="none" d="M712.077 75 A2 2 0 0 0 708.077 75 A2 2 0 0 0 712.077 75"/></g><path stroke="none" d="M701.036 76.275C701.429 76.387,701.71 75.994,701.878 75.629C702.412 74.422,702.609 73.074,702.609 71.698C702.609 69.536,701.991 67.458,701.289 65.408C701.12 65.043,700.98 64.678,700.98 64.228C700.98 64.144,701.036 64.032,701.036 63.892C701.205 62.768,701.401 61.645,701.401 60.438C701.401 60.073,701.401 59.651,701.317 59.286C701.289 59.09,701.289 58.921,701.289 58.725C701.289 58.051,701.485 57.405,701.682 56.759C702.047 55.468,702.244 54.092,702.244 52.716C702.244 51.986,702.159 51.256,702.075 50.554C701.935 49.15,700.98 47.858,700.98 46.566C700.98 46.37,700.98 46.117,701.064 45.92C701.064 45.555,701.12 45.19,701.12 44.825C701.12 43.73,700.98 42.832,700.783 41.961C700.278 39.967,699.014 38.395,697.554 36.963C696.291 35.755,694.774 34.913,693.623 33.565C693.23 33.088,692.949 32.61,692.949 31.908C692.949 31.122,692.752 30.252,692.387 29.494C692.247 29.297,692.219 28.96,691.966 28.96C691.938 28.96,691.938 28.96,691.882 29.016C691.601 29.044,691.236 29.185,691.18 29.522C691.096 29.887,691.04 30.224,691.04 30.532L691.04 30.785C691.18 31.684,691.18 32.554,691.18 33.425L691.18 35.531C691.18 36.542,691.208 37.581,691.377 38.62C691.545 39.715,691.573 40.894,691.573 42.017L691.573 43.983C691.573 44.46,691.601 44.909,691.601 45.387C691.742 47.212,692.135 48.981,692.022 50.75C691.882 52.379,691.77 54.007,691.77 55.58C691.77 56.394,691.826 57.18,691.882 57.995C692.05 59.988,692.865 61.645,694.409 62.881C695.224 63.555,696.01 64.2,696.74 64.902C699.66 67.823,700.783 71.389,700.868 75.376C700.868 75.545,700.84 75.741,700.84 75.91C700.84 76.022,700.868 76.191,701.036 76.275M699.267 45.471C696.431 43.477,693.426 41.652,692.949 37.581C694.606 38.956,696.094 40.248,697.638 41.54C698.397 42.186,698.902 43.084,699.323 43.927C699.464 44.179,699.492 44.376,699.492 44.572C699.492 44.853,699.407 45.134,699.267 45.471M699.576 54.513C697.891 52.856,696.15 51.284,694.522 49.599C693.511 48.532,693.398 47.128,693.342 45.471C695.055 47.296,696.908 48.672,698.734 50.076C699.744 50.834,700.474 51.845,700.474 53.109C700.474 53.474,700.39 53.867,700.278 54.288C700.138 54.597,700.053 54.737,699.941 54.737C699.829 54.737,699.688 54.653,699.576 54.513M699.632 62.403C698.032 60.297,695.926 59.146,694.493 57.265C693.848 56.478,693.511 55.58,693.511 54.457C693.511 54.148,693.511 53.867,693.567 53.642C694.999 55.664,696.993 56.815,698.481 58.528C699.267 59.371,699.66 60.382,699.66 61.729C699.66 61.926,699.66 62.179,699.632 62.403"/></g><g class="vf-stavenote" id="vf-auto37055"><g class="vf-stem" id="vf-auto37056" pointer-events="bounding-box"><path stroke-width="1.5" fill="none" d="M757.758 78L757.758 26"/></g><g class="vf-notehead" id="vf-auto37059" pointer-events="bounding-box"><path stroke="none" d="M748.645 86.543C748.926 86.599,749.178 86.627,749.459 86.627C753.334 86.627,759.119 81.348,759.006 77.08C758.894 76.041,758.922 74.609,756.816 73.766C756.227 73.485,755.581 73.373,754.879 73.373C750.554 73.373,745.865 78.343,745.528 81.657C745.528 81.909,745.5 82.134,745.5 82.387C745.5 84.409,746.399 86.037,748.645 86.543"/><path stroke="none" d="M775.701 75 A2 2 0 0 0 771.701 75 A2 2 0 0 0 775.701 75"/><path stroke="none" d="M781.701 75 A2 2 0 0 0 777.701 75 A2 2 0 0 0 781.701 75"/></g><path stroke="none" d="M764.826 75.517C765.219 75.517,765.444 74.983,765.668 74.618C765.724 74.534,765.724 74.422,765.724 74.337C766.09 73.214,766.202 72.119,766.202 70.968C766.202 69.479,765.949 67.991,765.668 66.503C765.556 65.913,765.444 65.408,765.444 64.846C765.444 64.425,765.528 64.032,765.724 63.583C765.949 63.049,765.921 62.319,766.005 61.673C766.005 61.533,766.033 61.308,766.033 61.112C766.033 60.101,765.809 59.062,765.809 57.995C765.809 57.405,765.837 56.815,766.09 56.226C766.455 55.243,766.595 54.288,766.595 53.277C766.595 51.733,766.23 50.188,765.753 48.672C765.724 48.532,765.668 48.419,765.668 48.251C765.668 48.167,765.668 48.082,765.753 48.026C766.37 46.847,766.651 45.696,766.651 44.544C766.651 43.337,766.314 42.073,765.921 40.782C765.809 40.417,765.64 40.08,765.64 39.799C765.64 39.518,765.753 39.293,766.118 38.956C766.37 38.788,766.483 38.423,766.539 38.114C766.567 37.581,766.595 37.103,766.595 36.598C766.595 33.537,765.584 30.785,763.282 28.483C762.439 27.668,761.484 27.022,760.586 26.264C759.575 25.422,758.564 24.608,758.564 23.119C758.564 22.698,758.368 22.417,758.199 22.108C758.087 21.884,758.087 21.575,757.862 21.575C757.834 21.575,757.806 21.603,757.75 21.603C757.469 21.743,757.076 21.743,756.935 22.165C756.851 22.614,756.458 23.035,756.458 23.428C756.458 24.411,756.542 25.282,756.486 26.292C756.458 27.5,756.458 28.651,756.458 29.83C756.458 30.196,756.458 30.589,756.486 30.954C756.627 32.273,757.076 33.537,757.076 34.885C757.076 36.317,757.132 37.833,757.132 39.406C757.132 39.967,757.104 40.585,757.076 41.147C757.02 41.961,756.992 42.719,756.992 43.534C756.992 44.572,757.02 45.668,757.02 46.707C757.02 48.054,756.992 49.43,756.823 50.75C756.739 51.536,756.711 52.266,756.711 53.081C756.711 54.288,756.795 55.496,756.795 56.675C756.795 57.77,757.272 58.556,758.031 59.343C759.463 60.747,760.951 62.122,761.99 63.835C763.899 66.896,764.208 70.406,764.545 73.888C764.545 74.085,764.517 74.309,764.545 74.506C764.573 74.702,764.517 74.955,764.517 75.152C764.517 75.376,764.545 75.517,764.826 75.517M764.994 38.788C762.888 35.812,759.603 33.621,758.564 29.662C763.001 32.975,765.022 34.941,764.994 38.788M764.068 45.05C763.001 43.393,761.484 42.27,760.024 40.978C759.154 40.248,758.733 39.434,758.733 38.311C758.733 38.058,758.761 37.833,758.817 37.552C760.614 40.136,763.253 41.905,764.068 45.05M764.292 54.12C763.001 52.266,761.512 50.834,760.165 49.262C759.378 48.391,758.733 47.38,758.733 46.145C758.733 45.948,758.733 45.752,758.761 45.555C761.147 46.51,764.012 50.89,764.292 54.12M763.45 60.101C761.99 57.602,758.929 56.226,758.396 53.025C760.137 55.383,762.888 56.984,763.45 60.101"/></g></svg>