<svg xmlns="http://www.w3.org/2000/svg" stroke-width="0.3" stroke-dasharray="none" fill="black" stroke="black" font-family="Arial, sans-serif" font-size="10pt" font-weight="normal" font-style="normal" width="850" height="200" viewBox="0 0 850 200" style="width: 850px; height: 200px; border: none;"><g class="vf-stave" id="vf-auto20902" stroke-width="1" fill="#999999" stroke="#999999"><path fill="none" d="M10 90L410 90"/><path fill="none" d="M10 100L410 100"/><path fill="none" d="M10 110L410 110"/><path fill="none" d="M10 120L410 120"/><path fill="none" d="M10 130L410 130"/></g><g class="vf-stavebarline" id="vf-auto20903"><rect x="10" y="89.5" width="1" height="41" stroke="none"/></g><g class="vf-stavebarline" id="vf-auto20904"><rect x="410" y="89.5" width="1" height="41" stroke="none"/></g><g class="vf-stave" id="vf-auto21044" stroke-width="1" fill="#999999" stroke="#999999"><path fill="none" d="M410 90L810 90"/><path fill="none" d="M410 100L810 100"/><path fill="none" d="M410 110L810 110"/><path fill="none" d="M410 120L810 120"/><path fill="none" d="M410 130L810 130"/></g><g class="vf-stavebarline" id="vf-auto21045"><rect x="410" y="89.5" width="1" height="41" stroke="none"/></g><g class="vf-stavebarline" id="vf-auto21046"><rect x="810" y="89.5" width="1" height="41" stroke="none"/></g><g class="vf-stavenote" id="vf-auto20910"><g class="vf-stem" id="vf-auto20911" pointer-events="bounding-box"><path stroke-width="1.5" fill="none" d="M89.131 93L89.131 60"/></g><g class="vf-notehead" id="vf-auto20914" pointer-events="bounding-box"><path stroke="none" d="M80.018 101.543C80.298 101.599,80.551 101.627,80.832 101.627C84.707 101.627,90.492 96.348,90.379 92.08C90.267 91.041,90.295 89.609,88.189 88.766C87.599 88.485,86.953 88.373,86.251 88.373C81.927 88.373,77.238 93.343,76.901 96.657C76.901 96.909,76.873 97.134,76.873 97.387C76.873 99.409,77.771 101.037,80.018 101.543"/></g></g><g class="vf-stavenote" id="vf-auto20915"><g class="vf-notehead" id="vf-auto21033" pointer-events="bounding-box"><path stroke="none" d="M126.986 101.736C127.322 101.539,127.266 101.146,127.351 100.809C127.351 100.641,127.266 100.5,127.238 100.332C126.901 98.9,126.536 97.524,126.227 96.12C126.171 95.951,126.171 95.783,126.171 95.67C126.171 94.294,127.182 92.638,128.333 92.16C128.614 91.992,128.839 92.104,129.148 92.188C130.439 92.61,131.113 93.705,131.843 94.716C132.04 94.996,132.321 95.362,132.658 95.362C132.742 95.362,132.77 95.362,132.854 95.305C133.219 95.137,133.388 94.772,133.388 94.435L133.332 94.126C133.191 93.199,133.023 92.245,132.405 91.515C131.198 90.054,130.552 88.285,129.737 86.629C129.625 86.376,129.541 86.179,129.541 86.011C129.541 85.73,129.709 85.477,129.99 85.197C130.72 84.438,131.478 83.736,131.956 82.81C132.405 82.08,132.686 81.322,132.686 80.563C132.686 80.03,132.573 79.496,132.208 78.935C131.001 76.913,129.737 74.919,128.726 72.785C128.053 71.325,127.182 69.949,125.975 68.854C125.694 68.573,125.329 68.208,124.936 68.208C124.767 68.208,124.599 68.264,124.402 68.377C124.009 68.629,123.841 68.938,123.841 69.219C123.841 69.556,124.009 69.865,124.234 70.202C125.497 71.83,126.255 73.712,127.463 75.34C127.828 75.79,127.996 76.099,127.996 76.379C127.996 76.744,127.688 77.025,127.042 77.446C126.171 77.924,125.301 78.401,124.486 79.019C124.093 79.3,123.869 79.609,123.869 79.946C123.869 80.142,123.953 80.339,124.037 80.563C124.43 81.49,124.964 82.332,125.525 83.175C126.424 84.438,127.238 85.814,127.884 87.218C127.603 87.471,127.351 87.387,127.126 87.415C124.374 87.78,122.549 89.858,122.745 92.329C123.026 95.277,124.121 98.029,125.441 100.641C125.61 100.978,125.806 101.286,126.227 101.427C126.452 101.511,126.62 101.792,126.817 101.792C126.873 101.792,126.957 101.792,126.986 101.736"/></g></g><g class="vf-stavenote" id="vf-auto20920"><g class="vf-notehead" id="vf-auto21035" pointer-events="bounding-box"><path stroke="none" d="M173.358 101.736C173.695 101.539,173.639 101.146,173.723 100.809C173.723 100.641,173.639 100.5,173.611 100.332C173.274 98.9,172.909 97.524,172.6 96.12C172.544 95.951,172.544 95.783,172.544 95.67C172.544 94.294,173.555 92.638,174.706 92.16C174.987 91.992,175.212 92.104,175.52 92.188C176.812 92.61,177.486 93.705,178.216 94.716C178.413 94.996,178.693 95.362,179.03 95.362C179.115 95.362,179.143 95.362,179.227 95.305C179.592 95.137,179.76 94.772,179.76 94.435L179.704 94.126C179.564 93.199,179.395 92.245,178.778 91.515C177.57 90.054,176.924 88.285,176.11 86.629C175.998 86.376,175.914 86.179,175.914 86.011C175.914 85.73,176.082 85.477,176.363 85.197C177.093 84.438,177.851 83.736,178.328 82.81C178.778 82.08,179.058 81.322,179.058 80.563C179.058 80.03,178.946 79.496,178.581 78.935C177.374 76.913,176.11 74.919,175.099 72.785C174.425 71.325,173.555 69.949,172.347 68.854C172.067 68.573,171.702 68.208,171.308 68.208C171.14 68.208,170.971 68.264,170.775 68.377C170.382 68.629,170.213 68.938,170.213 69.219C170.213 69.556,170.382 69.865,170.606 70.202C171.87 71.83,172.628 73.712,173.836 75.34C174.201 75.79,174.369 76.099,174.369 76.379C174.369 76.744,174.06 77.025,173.414 77.446C172.544 77.924,171.673 78.401,170.859 79.019C170.466 79.3,170.241 79.609,170.241 79.946C170.241 80.142,170.326 80.339,170.41 80.563C170.803 81.49,171.336 82.332,171.898 83.175C172.797 84.438,173.611 85.814,174.257 87.218C173.976 87.471,173.723 87.387,173.499 87.415C170.747 87.78,168.922 89.858,169.118 92.329C169.399 95.277,170.494 98.029,171.814 100.641C171.982 100.978,172.179 101.286,172.6 101.427C172.825 101.511,172.993 101.792,173.19 101.792C173.246 101.792,173.33 101.792,173.358 101.736"/></g></g><g class="vf-stavenote" id="vf-auto20925"><g class="vf-stem" id="vf-auto20926" pointer-events="bounding-box"><path stroke-width="1.5" fill="none" d="M228.249 93L228.249 60"/></g><g class="vf-notehead" id="vf-auto20929" pointer-events="bounding-box"><path stroke="none" d="M219.136 101.543C219.417 101.599,219.669 101.627,219.95 101.627C223.825 101.627,229.61 96.348,229.497 92.08C229.385 91.041,229.413 89.609,227.307 88.766C226.717 88.485,226.072 88.373,225.37 88.373C221.045 88.373,216.356 93.343,216.019 96.657C216.019 96.909,215.991 97.134,215.991 97.387C215.991 99.409,216.889 101.037,219.136 101.543"/></g></g><g class="vf-stavenote" id="vf-auto20930"><g class="vf-stem" id="vf-auto20931" pointer-events="bounding-box"><path stroke-width="1.5" fill="none" d="M274.622 93L274.622 60"/></g><g class="vf-notehead" id="vf-auto20934" pointer-events="bounding-box"><path stroke="none" d="M265.509 101.543C265.789 101.599,266.042 101.627,266.323 101.627C270.198 101.627,275.982 96.348,275.87 92.08C275.758 91.041,275.786 89.609,273.68 88.766C273.09 88.485,272.444 88.373,271.742 88.373C267.418 88.373,262.729 93.343,262.392 96.657C262.392 96.909,262.364 97.134,262.364 97.387C262.364 99.409,263.262 101.037,265.509 101.543"/></g></g><g class="vf-stavenote" id="vf-auto20935"><g class="vf-stem" id="vf-auto20936" pointer-events="bounding-box"><path stroke-width="1.5" fill="none" d="M320.994 93L320.994 60"/></g><g class="vf-notehead" id="vf-auto20939" pointer-events="bounding-box"><path stroke="none" d="M311.881 101.543C312.162 101.599,312.415 101.627,312.696 101.627C316.571 101.627,322.355 96.348,322.243 92.08C322.131 91.041,322.159 89.609,320.053 88.766C319.463 88.485,318.817 88.373,318.115 88.373C313.791 88.373,309.101 93.343,308.764 96.657C308.764 96.909,308.736 97.134,308.736 97.387C308.736 99.409,309.635 101.037,311.881 101.543"/></g></g><g class="vf-stavenote" id="vf-auto20940"><g class="vf-notehead" id="vf-auto21042" pointer-events="bounding-box"><path stroke="none" d="M358.849 101.736C359.186 101.539,359.13 101.146,359.214 100.809C359.214 100.641,359.13 100.5,359.102 100.332C358.765 98.9,358.4 97.524,358.091 96.12C358.035 95.951,358.035 95.783,358.035 95.67C358.035 94.294,359.046 92.638,360.197 92.16C360.478 91.992,360.702 92.104,361.011 92.188C362.303 92.61,362.977 93.705,363.707 94.716C363.904 94.996,364.184 95.362,364.521 95.362C364.606 95.362,364.634 95.362,364.718 95.305C365.083 95.137,365.251 94.772,365.251 94.435L365.195 94.126C365.055 93.199,364.886 92.245,364.269 91.515C363.061 90.054,362.415 88.285,361.601 86.629C361.489 86.376,361.404 86.179,361.404 86.011C361.404 85.73,361.573 85.477,361.854 85.197C362.584 84.438,363.342 83.736,363.819 82.81C364.269 82.08,364.549 81.322,364.549 80.563C364.549 80.03,364.437 79.496,364.072 78.935C362.865 76.913,361.601 74.919,360.59 72.785C359.916 71.325,359.046 69.949,357.838 68.854C357.557 68.573,357.192 68.208,356.799 68.208C356.631 68.208,356.462 68.264,356.266 68.377C355.873 68.629,355.704 68.938,355.704 69.219C355.704 69.556,355.873 69.865,356.097 70.202C357.361 71.83,358.119 73.712,359.327 75.34C359.692 75.79,359.86 76.099,359.86 76.379C359.86 76.744,359.551 77.025,358.905 77.446C358.035 77.924,357.164 78.401,356.35 79.019C355.957 79.3,355.732 79.609,355.732 79.946C355.732 80.142,355.817 80.339,355.901 80.563C356.294 81.49,356.827 82.332,357.389 83.175C358.288 84.438,359.102 85.814,359.748 87.218C359.467 87.471,359.214 87.387,358.99 87.415C356.238 87.78,354.413 89.858,354.609 92.329C354.89 95.277,355.985 98.029,357.305 100.641C357.473 100.978,357.67 101.286,358.091 101.427C358.316 101.511,358.484 101.792,358.681 101.792C358.737 101.792,358.821 101.792,358.849 101.736"/></g></g><g class="vf-stavenote" id="vf-auto20946"><g class="vf-notehead" id="vf-auto20950" pointer-events="bounding-box"><path stroke="none" d="M34.24 126.736C34.577 126.539,34.521 126.146,34.605 125.809C34.605 125.641,34.521 125.5,34.493 125.332C34.156 123.9,33.791 122.524,33.482 121.12C33.426 120.951,33.426 120.783,33.426 120.67C33.426 119.294,34.437 117.638,35.588 117.16C35.869 116.992,36.093 117.104,36.402 117.188C37.694 117.61,38.368 118.705,39.098 119.716C39.294 119.996,39.575 120.362,39.912 120.362C39.996 120.362,40.025 120.362,40.109 120.305C40.474 120.137,40.642 119.772,40.642 119.435L40.586 119.126C40.446 118.199,40.277 117.245,39.66 116.515C38.452 115.054,37.806 113.285,36.992 111.629C36.88 111.376,36.795 111.179,36.795 111.011C36.795 110.73,36.964 110.477,37.245 110.197C37.975 109.438,38.733 108.736,39.21 107.81C39.66 107.08,39.94 106.322,39.94 105.563C39.94 105.03,39.828 104.496,39.463 103.935C38.256 101.913,36.992 99.919,35.981 97.785C35.307 96.325,34.437 94.949,33.229 93.854C32.948 93.573,32.583 93.208,32.19 93.208C32.022 93.208,31.853 93.264,31.657 93.377C31.264 93.629,31.095 93.938,31.095 94.219C31.095 94.556,31.264 94.865,31.488 95.202C32.752 96.83,33.51 98.712,34.717 100.34C35.082 100.79,35.251 101.099,35.251 101.379C35.251 101.744,34.942 102.025,34.296 102.446C33.426 102.924,32.555 103.401,31.741 104.019C31.348 104.3,31.123 104.609,31.123 104.946C31.123 105.142,31.207 105.339,31.292 105.563C31.685 106.49,32.218 107.332,32.78 108.175C33.678 109.438,34.493 110.814,35.139 112.218C34.858 112.471,34.605 112.387,34.38 112.415C31.629 112.78,29.803 114.858,30 117.329C30.281 120.277,31.376 123.029,32.696 125.641C32.864 125.978,33.061 126.286,33.482 126.427C33.707 126.511,33.875 126.792,34.072 126.792C34.128 126.792,34.212 126.792,34.24 126.736"/></g></g><g class="vf-stavenote" id="vf-auto20961"><g class="vf-stem" id="vf-auto20962" pointer-events="bounding-box"><path stroke-width="1.5" fill="none" d="M182.525 112L182.525 145"/></g><g class="vf-notehead" id="vf-auto20965" pointer-events="bounding-box"><path stroke="none" d="M184.92 116.543C185.201 116.599,185.453 116.627,185.734 116.627C189.609 116.627,195.394 111.348,195.281 107.08C195.169 106.041,195.197 104.609,193.091 103.766C192.502 103.485,191.856 103.373,191.154 103.373C186.829 103.373,182.14 108.343,181.803 111.657C181.803 111.909,181.775 112.134,181.775 112.387C181.775 114.409,182.674 116.037,184.92 116.543"/></g></g><g class="vf-stavenote" id="vf-auto20966"><g class="vf-notehead" id="vf-auto20970" pointer-events="bounding-box"><path stroke="none" d="M235.239 126.736C235.576 126.539,235.52 126.146,235.604 125.809C235.604 125.641,235.52 125.5,235.492 125.332C235.155 123.9,234.79 122.524,234.481 121.12C234.425 120.951,234.425 120.783,234.425 120.67C234.425 119.294,235.436 117.638,236.587 117.16C236.868 116.992,237.092 117.104,237.401 117.188C238.693 117.61,239.367 118.705,240.097 119.716C240.293 119.996,240.574 120.362,240.911 120.362C240.995 120.362,241.024 120.362,241.108 120.305C241.473 120.137,241.641 119.772,241.641 119.435L241.585 119.126C241.445 118.199,241.276 117.245,240.659 116.515C239.451 115.054,238.805 113.285,237.991 111.629C237.879 111.376,237.794 111.179,237.794 111.011C237.794 110.73,237.963 110.477,238.244 110.197C238.974 109.438,239.732 108.736,240.209 107.81C240.659 107.08,240.939 106.322,240.939 105.563C240.939 105.03,240.827 104.496,240.462 103.935C239.255 101.913,237.991 99.919,236.98 97.785C236.306 96.325,235.436 94.949,234.228 93.854C233.947 93.573,233.582 93.208,233.189 93.208C233.021 93.208,232.852 93.264,232.656 93.377C232.263 93.629,232.094 93.938,232.094 94.219C232.094 94.556,232.263 94.865,232.487 95.202C233.751 96.83,234.509 98.712,235.716 100.34C236.081 100.79,236.25 101.099,236.25 101.379C236.25 101.744,235.941 102.025,235.295 102.446C234.425 102.924,233.554 103.401,232.74 104.019C232.347 104.3,232.122 104.609,232.122 104.946C232.122 105.142,232.206 105.339,232.291 105.563C232.684 106.49,233.217 107.332,233.779 108.175C234.677 109.438,235.492 110.814,236.138 112.218C235.857 112.471,235.604 112.387,235.379 112.415C232.628 112.78,230.802 114.858,230.999 117.329C231.28 120.277,232.375 123.029,233.695 125.641C233.863 125.978,234.06 126.286,234.481 126.427C234.706 126.511,234.874 126.792,235.071 126.792C235.127 126.792,235.211 126.792,235.239 126.736"/></g></g><g class="vf-stavenote" id="vf-auto20971"><g class="vf-notehead" id="vf-auto21039" pointer-events="bounding-box"><path stroke="none" d="M266.104 131.736C266.441 131.539,266.385 131.146,266.469 130.809C266.469 130.641,266.385 130.5,266.356 130.332C266.019 128.9,265.654 127.524,265.346 126.12C265.289 125.951,265.289 125.783,265.289 125.67C265.289 124.294,266.3 122.638,267.452 122.16C267.732 121.992,267.957 122.104,268.266 122.188C269.558 122.61,270.231 123.705,270.962 124.716C271.158 124.996,271.439 125.362,271.776 125.362C271.86 125.362,271.888 125.362,271.972 125.305C272.337 125.137,272.506 124.772,272.506 124.435L272.45 124.126C272.309 123.199,272.141 122.245,271.523 121.515C270.316 120.054,269.67 118.285,268.856 116.629C268.743 116.376,268.659 116.179,268.659 116.011C268.659 115.73,268.827 115.477,269.108 115.197C269.838 114.438,270.597 113.736,271.074 112.81C271.523 112.08,271.804 111.322,271.804 110.563C271.804 110.03,271.692 109.496,271.327 108.935C270.119 106.913,268.856 104.919,267.845 102.785C267.171 101.325,266.3 99.949,265.093 98.854C264.812 98.573,264.447 98.208,264.054 98.208C263.885 98.208,263.717 98.264,263.52 98.377C263.127 98.629,262.959 98.938,262.959 99.219C262.959 99.556,263.127 99.865,263.352 100.202C264.615 101.83,265.374 103.712,266.581 105.34C266.946 105.79,267.115 106.099,267.115 106.379C267.115 106.744,266.806 107.025,266.16 107.446C265.289 107.924,264.419 108.401,263.605 109.019C263.211 109.3,262.987 109.609,262.987 109.946C262.987 110.142,263.071 110.339,263.155 110.563C263.548 111.49,264.082 112.332,264.644 113.175C265.542 114.438,266.356 115.814,267.002 117.218C266.721 117.471,266.469 117.387,266.244 117.415C263.492 117.78,261.667 119.858,261.864 122.329C262.144 125.277,263.24 128.029,264.559 130.641C264.728 130.978,264.924 131.286,265.346 131.427C265.57 131.511,265.739 131.792,265.935 131.792C265.991 131.792,266.076 131.792,266.104 131.736"/></g></g><g class="vf-stavenote" id="vf-auto20976"><g class="vf-stem" id="vf-auto20977" pointer-events="bounding-box"><path stroke-width="1.5" fill="none" d="M324.494 112L324.494 145"/></g><g class="vf-notehead" id="vf-auto20980" pointer-events="bounding-box"><path stroke="none" d="M326.889 116.543C327.17 116.599,327.423 116.627,327.704 116.627C331.579 116.627,337.363 111.348,337.251 107.08C337.139 106.041,337.167 104.609,335.061 103.766C334.471 103.485,333.825 103.373,333.123 103.373C328.799 103.373,324.109 108.343,323.773 111.657C323.773 111.909,323.744 112.134,323.744 112.387C323.744 114.409,324.643 116.037,326.889 116.543"/></g></g><g class="vf-stavenote" id="vf-auto20981"><g class="vf-stem" id="vf-auto20982" pointer-events="bounding-box"><path stroke-width="1.5" fill="none" d="M370.867 112L370.867 145"/></g><g class="vf-notehead" id="vf-auto20985" pointer-events="bounding-box"><path stroke="none" d="M373.262 116.543C373.543 116.599,373.796 116.627,374.076 116.627C377.951 116.627,383.736 111.348,383.624 107.08C383.511 106.041,383.539 104.609,381.433 103.766C380.844 103.485,380.198 103.373,379.496 103.373C375.172 103.373,370.482 108.343,370.145 111.657C370.145 111.909,370.117 112.134,370.117 112.387C370.117 114.409,371.016 116.037,373.262 116.543"/></g></g><g class="vf-stavenote" id="vf-auto20992"><g class="vf-notehead" id="vf-auto21032" pointer-events="bounding-box"><path stroke="none" d="M80.613 156.736C80.95 156.539,80.894 156.146,80.978 155.809C80.978 155.641,80.894 155.5,80.866 155.332C80.529 153.9,80.164 152.524,79.855 151.12C79.798 150.951,79.798 150.783,79.798 150.67C79.798 149.294,80.809 147.638,81.961 147.16C82.241 146.992,82.466 147.104,82.775 147.188C84.067 147.61,84.741 148.705,85.471 149.716C85.667 149.996,85.948 150.362,86.285 150.362C86.369 150.362,86.397 150.362,86.482 150.305C86.847 150.137,87.015 149.772,87.015 149.435L86.959 149.126C86.818 148.199,86.65 147.245,86.032 146.515C84.825 145.054,84.179 143.285,83.365 141.629C83.252 141.376,83.168 141.179,83.168 141.011C83.168 140.73,83.337 140.477,83.617 140.197C84.347 139.438,85.106 138.736,85.583 137.81C86.032 137.08,86.313 136.322,86.313 135.563C86.313 135.03,86.201 134.496,85.836 133.935C84.628 131.913,83.365 129.919,82.354 127.785C81.68 126.325,80.809 124.949,79.602 123.854C79.321 123.573,78.956 123.208,78.563 123.208C78.394 123.208,78.226 123.264,78.029 123.377C77.636 123.629,77.468 123.938,77.468 124.219C77.468 124.556,77.636 124.865,77.861 125.202C79.125 126.83,79.883 128.712,81.09 130.34C81.455 130.79,81.624 131.099,81.624 131.379C81.624 131.744,81.315 132.025,80.669 132.446C79.798 132.924,78.928 133.401,78.114 134.019C77.721 134.3,77.496 134.609,77.496 134.946C77.496 135.142,77.58 135.339,77.664 135.563C78.058 136.49,78.591 137.332,79.153 138.175C80.051 139.438,80.866 140.814,81.511 142.218C81.231 142.471,80.978 142.387,80.753 142.415C78.001 142.78,76.176 144.858,76.373 147.329C76.654 150.277,77.749 153.029,79.068 155.641C79.237 155.978,79.433 156.286,79.855 156.427C80.079 156.511,80.248 156.792,80.444 156.792C80.5 156.792,80.585 156.792,80.613 156.736"/></g></g><g class="vf-stavenote" id="vf-auto20997"><g class="vf-stem" id="vf-auto20998" pointer-events="bounding-box"><path stroke-width="1.5" fill="none" d="M123.495 127L123.495 160"/></g><g class="vf-notehead" id="vf-auto21034" pointer-events="bounding-box"><path stroke="none" d="M125.89 131.543C126.171 131.599,126.424 131.627,126.705 131.627C130.58 131.627,136.364 126.348,136.252 122.08C136.14 121.041,136.168 119.609,134.062 118.766C133.472 118.485,132.826 118.373,132.124 118.373C127.8 118.373,123.11 123.343,122.774 126.657C122.774 126.909,122.745 127.134,122.745 127.387C122.745 129.409,123.644 131.037,125.89 131.543"/></g></g><g class="vf-stavenote" id="vf-auto21002"><g class="vf-notehead" id="vf-auto21037" pointer-events="bounding-box"><path stroke="none" d="M173.358 136.736C173.695 136.539,173.639 136.146,173.723 135.809C173.723 135.641,173.639 135.5,173.611 135.332C173.274 133.9,172.909 132.524,172.6 131.12C172.544 130.951,172.544 130.783,172.544 130.67C172.544 129.294,173.555 127.638,174.706 127.16C174.987 126.992,175.212 127.104,175.52 127.188C176.812 127.61,177.486 128.705,178.216 129.716C178.413 129.996,178.693 130.362,179.03 130.362C179.115 130.362,179.143 130.362,179.227 130.305C179.592 130.137,179.76 129.772,179.76 129.435L179.704 129.126C179.564 128.199,179.395 127.245,178.778 126.515C177.57 125.054,176.924 123.285,176.11 121.629C175.998 121.376,175.914 121.179,175.914 121.011C175.914 120.73,176.082 120.477,176.363 120.197C177.093 119.438,177.851 118.736,178.328 117.81C178.778 117.08,179.058 116.322,179.058 115.563C179.058 115.03,178.946 114.496,178.581 113.935C177.374 111.913,176.11 109.919,175.099 107.785C174.425 106.325,173.555 104.949,172.347 103.854C172.067 103.573,171.702 103.208,171.308 103.208C171.14 103.208,170.971 103.264,170.775 103.377C170.382 103.629,170.213 103.938,170.213 104.219C170.213 104.556,170.382 104.865,170.606 105.202C171.87 106.83,172.628 108.712,173.836 110.34C174.201 110.79,174.369 111.099,174.369 111.379C174.369 111.744,174.06 112.025,173.414 112.446C172.544 112.924,171.673 113.401,170.859 114.019C170.466 114.3,170.241 114.609,170.241 114.946C170.241 115.142,170.326 115.339,170.41 115.563C170.803 116.49,171.336 117.332,171.898 118.175C172.797 119.438,173.611 120.814,174.257 122.218C173.976 122.471,173.723 122.387,173.499 122.415C170.747 122.78,168.922 124.858,169.118 127.329C169.399 130.277,170.494 133.029,171.814 135.641C171.982 135.978,172.179 136.286,172.6 136.427C172.825 136.511,172.993 136.792,173.19 136.792C173.246 136.792,173.33 136.792,173.358 136.736"/></g></g><g class="vf-stavenote" id="vf-auto21007"><g class="vf-stem" id="vf-auto21008" pointer-events="bounding-box"><path stroke-width="1.5" fill="none" d="M216.241 122L216.241 155"/></g><g class="vf-notehead" id="vf-auto21038" pointer-events="bounding-box"><path stroke="none" d="M218.636 126.543C218.917 126.599,219.169 126.627,219.45 126.627C223.325 126.627,229.11 121.348,228.997 117.08C228.885 116.041,228.913 114.609,226.807 113.766C226.217 113.485,225.572 113.373,224.87 113.373C220.545 113.373,215.856 118.343,215.519 121.657C215.519 121.909,215.491 122.134,215.491 122.387C215.491 124.409,216.389 126.037,218.636 126.543"/></g></g><g class="vf-stavenote" id="vf-auto21012"><path stroke-width="1.4" fill="none" stroke="#444" d="M258.864 140L278.372 140"/><g class="vf-stem" id="vf-auto21013" pointer-events="bounding-box"><path stroke-width="1.5" fill="none" d="M262.614 142L262.614 175"/></g><g class="vf-notehead" id="vf-auto21016" pointer-events="bounding-box"><path stroke="none" d="M265.009 146.543C265.289 146.599,265.542 146.627,265.823 146.627C269.698 146.627,275.482 141.348,275.37 137.08C275.258 136.041,275.286 134.609,273.18 133.766C272.59 133.485,271.944 133.373,271.242 133.373C266.918 133.373,262.229 138.343,261.892 141.657C261.892 141.909,261.864 142.134,261.864 142.387C261.864 144.409,262.762 146.037,265.009 146.543"/></g></g><g class="vf-stavenote" id="vf-auto21017"><g class="vf-notehead" id="vf-auto21041" pointer-events="bounding-box"><path stroke="none" d="M312.476 156.736C312.813 156.539,312.757 156.146,312.841 155.809C312.841 155.641,312.757 155.5,312.729 155.332C312.392 153.9,312.027 152.524,311.718 151.12C311.662 150.951,311.662 150.783,311.662 150.67C311.662 149.294,312.673 147.638,313.824 147.16C314.105 146.992,314.33 147.104,314.639 147.188C315.93 147.61,316.604 148.705,317.334 149.716C317.531 149.996,317.812 150.362,318.149 150.362C318.233 150.362,318.261 150.362,318.345 150.305C318.71 150.137,318.879 149.772,318.879 149.435L318.823 149.126C318.682 148.199,318.514 147.245,317.896 146.515C316.688 145.054,316.043 143.285,315.228 141.629C315.116 141.376,315.032 141.179,315.032 141.011C315.032 140.73,315.2 140.477,315.481 140.197C316.211 139.438,316.969 138.736,317.447 137.81C317.896 137.08,318.177 136.322,318.177 135.563C318.177 135.03,318.064 134.496,317.699 133.935C316.492 131.913,315.228 129.919,314.217 127.785C313.543 126.325,312.673 124.949,311.466 123.854C311.185 123.573,310.82 123.208,310.427 123.208C310.258 123.208,310.09 123.264,309.893 123.377C309.5 123.629,309.331 123.938,309.331 124.219C309.331 124.556,309.5 124.865,309.725 125.202C310.988 126.83,311.746 128.712,312.954 130.34C313.319 130.79,313.487 131.099,313.487 131.379C313.487 131.744,313.178 132.025,312.533 132.446C311.662 132.924,310.792 133.401,309.977 134.019C309.584 134.3,309.36 134.609,309.36 134.946C309.36 135.142,309.444 135.339,309.528 135.563C309.921 136.49,310.455 137.332,311.016 138.175C311.915 139.438,312.729 140.814,313.375 142.218C313.094 142.471,312.841 142.387,312.617 142.415C309.865 142.78,308.04 144.858,308.236 147.329C308.517 150.277,309.612 153.029,310.932 155.641C311.101 155.978,311.297 156.286,311.718 156.427C311.943 156.511,312.111 156.792,312.308 156.792C312.364 156.792,312.448 156.792,312.476 156.736"/></g></g><g class="vf-stavenote" id="vf-auto21022"><path stroke-width="1.4" fill="none" stroke="#444" d="M351.609 140L371.117 140"/><g class="vf-stem" id="vf-auto21023" pointer-events="bounding-box"><path stroke-width="1.5" fill="none" d="M355.359 142L355.359 175"/></g><g class="vf-notehead" id="vf-auto21043" pointer-events="bounding-box"><path stroke="none" d="M357.754 146.543C358.035 146.599,358.288 146.627,358.568 146.627C362.443 146.627,368.228 141.348,368.116 137.08C368.003 136.041,368.031 134.609,365.925 133.766C365.336 133.485,364.69 133.373,363.988 133.373C359.663 133.373,354.974 138.343,354.637 141.657C354.637 141.909,354.609 142.134,354.609 142.387C354.609 144.409,355.508 146.037,357.754 146.543"/></g></g><text stroke="none" font-size="12pt" x="35.328" y="50">Default Rest Positions</text><g class="vf-stavenote" id="vf-auto21052" font-size="12pt"><g class="vf-stem" id="vf-auto21053" pointer-events="bounding-box"><path stroke-width="1.5" fill="none" d="M489.131 93L489.131 60"/></g><g class="vf-notehead" id="vf-auto21056" pointer-events="bounding-box"><path stroke="none" d="M480.018 101.543C480.298 101.599,480.551 101.627,480.832 101.627C484.707 101.627,490.492 96.348,490.379 92.08C490.267 91.041,490.295 89.609,488.189 88.766C487.599 88.485,486.953 88.373,486.251 88.373C481.927 88.373,477.238 93.343,476.901 96.657C476.901 96.909,476.873 97.134,476.873 97.387C476.873 99.409,477.771 101.037,480.018 101.543"/></g></g><g class="vf-stavenote" id="vf-auto21057" font-size="12pt"><g class="vf-notehead" id="vf-auto21182" pointer-events="bounding-box"><path stroke="none" d="M526.986 101.736C527.322 101.539,527.266 101.146,527.351 100.809C527.351 100.641,527.266 100.5,527.238 100.332C526.901 98.9,526.536 97.524,526.227 96.12C526.171 95.951,526.171 95.783,526.171 95.67C526.171 94.294,527.182 92.638,528.333 92.16C528.614 91.992,528.839 92.104,529.148 92.188C530.439 92.61,531.113 93.705,531.843 94.716C532.04 94.996,532.321 95.362,532.658 95.362C532.742 95.362,532.77 95.362,532.854 95.305C533.219 95.137,533.388 94.772,533.388 94.435L533.332 94.126C533.191 93.199,533.023 92.245,532.405 91.515C531.198 90.054,530.552 88.285,529.737 86.629C529.625 86.376,529.541 86.179,529.541 86.011C529.541 85.73,529.709 85.477,529.99 85.197C530.72 84.438,531.478 83.736,531.956 82.81C532.405 82.08,532.686 81.322,532.686 80.563C532.686 80.03,532.573 79.496,532.208 78.935C531.001 76.913,529.737 74.919,528.726 72.785C528.053 71.325,527.182 69.949,525.975 68.854C525.694 68.573,525.329 68.208,524.936 68.208C524.767 68.208,524.599 68.264,524.402 68.377C524.009 68.629,523.841 68.938,523.841 69.219C523.841 69.556,524.009 69.865,524.234 70.202C525.497 71.83,526.255 73.712,527.463 75.34C527.828 75.79,527.996 76.099,527.996 76.379C527.996 76.744,527.688 77.025,527.042 77.446C526.171 77.924,525.301 78.401,524.486 79.019C524.093 79.3,523.869 79.609,523.869 79.946C523.869 80.142,523.953 80.339,524.037 80.563C524.43 81.49,524.964 82.332,525.525 83.175C526.424 84.438,527.238 85.814,527.884 87.218C527.603 87.471,527.351 87.387,527.126 87.415C524.374 87.78,522.549 89.858,522.745 92.329C523.026 95.277,524.121 98.029,525.441 100.641C525.61 100.978,525.806 101.286,526.227 101.427C526.452 101.511,526.62 101.792,526.817 101.792C526.873 101.792,526.957 101.792,526.986 101.736"/></g></g><g class="vf-stavenote" id="vf-auto21062" font-size="12pt"><g class="vf-notehead" id="vf-auto21184" pointer-events="bounding-box"><path stroke="none" d="M573.358 101.736C573.695 101.539,573.639 101.146,573.723 100.809C573.723 100.641,573.639 100.5,573.611 100.332C573.274 98.9,572.909 97.524,572.6 96.12C572.544 95.951,572.544 95.783,572.544 95.67C572.544 94.294,573.555 92.638,574.706 92.16C574.987 91.992,575.212 92.104,575.52 92.188C576.812 92.61,577.486 93.705,578.216 94.716C578.413 94.996,578.693 95.362,579.03 95.362C579.115 95.362,579.143 95.362,579.227 95.305C579.592 95.137,579.76 94.772,579.76 94.435L579.704 94.126C579.564 93.199,579.395 92.245,578.778 91.515C577.57 90.054,576.924 88.285,576.11 86.629C575.998 86.376,575.914 86.179,575.914 86.011C575.914 85.73,576.082 85.477,576.363 85.197C577.093 84.438,577.851 83.736,578.328 82.81C578.778 82.08,579.058 81.322,579.058 80.563C579.058 80.03,578.946 79.496,578.581 78.935C577.374 76.913,576.11 74.919,575.099 72.785C574.425 71.325,573.555 69.949,572.347 68.854C572.067 68.573,571.702 68.208,571.308 68.208C571.14 68.208,570.971 68.264,570.775 68.377C570.382 68.629,570.213 68.938,570.213 69.219C570.213 69.556,570.382 69.865,570.606 70.202C571.87 71.83,572.628 73.712,573.836 75.34C574.201 75.79,574.369 76.099,574.369 76.379C574.369 76.744,574.06 77.025,573.414 77.446C572.544 77.924,571.673 78.401,570.859 79.019C570.466 79.3,570.241 79.609,570.241 79.946C570.241 80.142,570.326 80.339,570.41 80.563C570.803 81.49,571.336 82.332,571.898 83.175C572.797 84.438,573.611 85.814,574.257 87.218C573.976 87.471,573.723 87.387,573.499 87.415C570.747 87.78,568.922 89.858,569.118 92.329C569.399 95.277,570.494 98.029,571.814 100.641C571.982 100.978,572.179 101.286,572.6 101.427C572.825 101.511,572.993 101.792,573.19 101.792C573.246 101.792,573.33 101.792,573.358 101.736"/></g></g><g class="vf-stavenote" id="vf-auto21067" font-size="12pt"><g class="vf-stem" id="vf-auto21068" pointer-events="bounding-box"><path stroke-width="1.5" fill="none" d="M628.249 93L628.249 60"/></g><g class="vf-notehead" id="vf-auto21071" pointer-events="bounding-box"><path stroke="none" d="M619.136 101.543C619.417 101.599,619.669 101.627,619.95 101.627C623.825 101.627,629.61 96.348,629.497 92.08C629.385 91.041,629.413 89.609,627.307 88.766C626.717 88.485,626.072 88.373,625.37 88.373C621.045 88.373,616.356 93.343,616.019 96.657C616.019 96.909,615.991 97.134,615.991 97.387C615.991 99.409,616.889 101.037,619.136 101.543"/></g></g><g class="vf-stavenote" id="vf-auto21072" font-size="12pt"><g class="vf-stem" id="vf-auto21073" pointer-events="bounding-box"><path stroke-width="1.5" fill="none" d="M674.622 93L674.622 60"/></g><g class="vf-notehead" id="vf-auto21076" pointer-events="bounding-box"><path stroke="none" d="M665.509 101.543C665.789 101.599,666.042 101.627,666.323 101.627C670.198 101.627,675.982 96.348,675.87 92.08C675.758 91.041,675.786 89.609,673.68 88.766C673.09 88.485,672.444 88.373,671.742 88.373C667.418 88.373,662.729 93.343,662.392 96.657C662.392 96.909,662.364 97.134,662.364 97.387C662.364 99.409,663.262 101.037,665.509 101.543"/></g></g><g class="vf-stavenote" id="vf-auto21077" font-size="12pt"><g class="vf-stem" id="vf-auto21078" pointer-events="bounding-box"><path stroke-width="1.5" fill="none" d="M720.994 93L720.994 60"/></g><g class="vf-notehead" id="vf-auto21081" pointer-events="bounding-box"><path stroke="none" d="M711.881 101.543C712.162 101.599,712.415 101.627,712.696 101.627C716.571 101.627,722.355 96.348,722.243 92.08C722.131 91.041,722.159 89.609,720.053 88.766C719.463 88.485,718.817 88.373,718.115 88.373C713.791 88.373,709.101 93.343,708.764 96.657C708.764 96.909,708.736 97.134,708.736 97.387C708.736 99.409,709.635 101.037,711.881 101.543"/></g></g><g class="vf-stavenote" id="vf-auto21082" font-size="12pt"><g class="vf-notehead" id="vf-auto21191" pointer-events="bounding-box"><path stroke="none" d="M758.849 101.736C759.186 101.539,759.13 101.146,759.214 100.809C759.214 100.641,759.13 100.5,759.102 100.332C758.765 98.9,758.4 97.524,758.091 96.12C758.035 95.951,758.035 95.783,758.035 95.67C758.035 94.294,759.046 92.638,760.197 92.16C760.478 91.992,760.702 92.104,761.011 92.188C762.303 92.61,762.977 93.705,763.707 94.716C763.904 94.996,764.184 95.362,764.521 95.362C764.606 95.362,764.634 95.362,764.718 95.305C765.083 95.137,765.251 94.772,765.251 94.435L765.195 94.126C765.055 93.199,764.886 92.245,764.269 91.515C763.061 90.054,762.415 88.285,761.601 86.629C761.489 86.376,761.404 86.179,761.404 86.011C761.404 85.73,761.573 85.477,761.854 85.197C762.584 84.438,763.342 83.736,763.819 82.81C764.269 82.08,764.549 81.322,764.549 80.563C764.549 80.03,764.437 79.496,764.072 78.935C762.865 76.913,761.601 74.919,760.59 72.785C759.916 71.325,759.046 69.949,757.838 68.854C757.557 68.573,757.192 68.208,756.799 68.208C756.631 68.208,756.462 68.264,756.266 68.377C755.873 68.629,755.704 68.938,755.704 69.219C755.704 69.556,755.873 69.865,756.097 70.202C757.361 71.83,758.119 73.712,759.327 75.34C759.692 75.79,759.86 76.099,759.86 76.379C759.86 76.744,759.551 77.025,758.905 77.446C758.035 77.924,757.164 78.401,756.35 79.019C755.957 79.3,755.732 79.609,755.732 79.946C755.732 80.142,755.817 80.339,755.901 80.563C756.294 81.49,756.827 82.332,757.389 83.175C758.288 84.438,759.102 85.814,759.748 87.218C759.467 87.471,759.214 87.387,758.99 87.415C756.238 87.78,754.413 89.858,754.609 92.329C754.89 95.277,755.985 98.029,757.305 100.641C757.473 100.978,757.67 101.286,758.091 101.427C758.316 101.511,758.484 101.792,758.681 101.792C758.737 101.792,758.821 101.792,758.849 101.736"/></g></g><g class="vf-stavenote" id="vf-auto21088" font-size="12pt"><g class="vf-notehead" id="vf-auto21174" pointer-events="bounding-box"><path stroke="none" d="M434.24 126.736C434.577 126.539,434.521 126.146,434.605 125.809C434.605 125.641,434.521 125.5,434.493 125.332C434.156 123.9,433.791 122.524,433.482 121.12C433.426 120.951,433.426 120.783,433.426 120.67C433.426 119.294,434.437 117.638,435.588 117.16C435.869 116.992,436.093 117.104,436.402 117.188C437.694 117.61,438.368 118.705,439.098 119.716C439.294 119.996,439.575 120.362,439.912 120.362C439.996 120.362,440.025 120.362,440.109 120.305C440.474 120.137,440.642 119.772,440.642 119.435L440.586 119.126C440.446 118.199,440.277 117.245,439.66 116.515C438.452 115.054,437.806 113.285,436.992 111.629C436.88 111.376,436.795 111.179,436.795 111.011C436.795 110.73,436.964 110.477,437.245 110.197C437.975 109.438,438.733 108.736,439.21 107.81C439.66 107.08,439.94 106.322,439.94 105.563C439.94 105.03,439.828 104.496,439.463 103.935C438.256 101.913,436.992 99.919,435.981 97.785C435.307 96.325,434.437 94.949,433.229 93.854C432.948 93.573,432.583 93.208,432.19 93.208C432.022 93.208,431.853 93.264,431.657 93.377C431.264 93.629,431.095 93.938,431.095 94.219C431.095 94.556,431.264 94.865,431.488 95.202C432.752 96.83,433.51 98.712,434.717 100.34C435.082 100.79,435.251 101.099,435.251 101.379C435.251 101.744,434.942 102.025,434.296 102.446C433.426 102.924,432.555 103.401,431.741 104.019C431.348 104.3,431.123 104.609,431.123 104.946C431.123 105.142,431.207 105.339,431.292 105.563C431.685 106.49,432.218 107.332,432.78 108.175C433.678 109.438,434.493 110.814,435.139 112.218C434.858 112.471,434.605 112.387,434.38 112.415C431.629 112.78,429.803 114.858,430 117.329C430.281 120.277,431.376 123.029,432.696 125.641C432.864 125.978,433.061 126.286,433.482 126.427C433.707 126.511,433.875 126.792,434.072 126.792C434.128 126.792,434.212 126.792,434.24 126.736"/></g></g><g class="vf-stavenote" id="vf-auto21103" font-size="12pt"><g class="vf-stem" id="vf-auto21104" pointer-events="bounding-box"><path stroke-width="1.5" fill="none" d="M582.525 112L582.525 145"/></g><g class="vf-notehead" id="vf-auto21107" pointer-events="bounding-box"><path stroke="none" d="M584.92 116.543C585.201 116.599,585.453 116.627,585.734 116.627C589.609 116.627,595.394 111.348,595.281 107.08C595.169 106.041,595.197 104.609,593.091 103.766C592.502 103.485,591.856 103.373,591.154 103.373C586.829 103.373,582.14 108.343,581.803 111.657C581.803 111.909,581.775 112.134,581.775 112.387C581.775 114.409,582.674 116.037,584.92 116.543"/></g></g><g class="vf-stavenote" id="vf-auto21108" font-size="12pt"><g class="vf-notehead" id="vf-auto21177" pointer-events="bounding-box"><path stroke="none" d="M635.239 126.736C635.576 126.539,635.52 126.146,635.604 125.809C635.604 125.641,635.52 125.5,635.492 125.332C635.155 123.9,634.79 122.524,634.481 121.12C634.425 120.951,634.425 120.783,634.425 120.67C634.425 119.294,635.436 117.638,636.587 117.16C636.868 116.992,637.092 117.104,637.401 117.188C638.693 117.61,639.367 118.705,640.097 119.716C640.293 119.996,640.574 120.362,640.911 120.362C640.995 120.362,641.024 120.362,641.108 120.305C641.473 120.137,641.641 119.772,641.641 119.435L641.585 119.126C641.445 118.199,641.276 117.245,640.659 116.515C639.451 115.054,638.805 113.285,637.991 111.629C637.879 111.376,637.794 111.179,637.794 111.011C637.794 110.73,637.963 110.477,638.244 110.197C638.974 109.438,639.732 108.736,640.209 107.81C640.659 107.08,640.939 106.322,640.939 105.563C640.939 105.03,640.827 104.496,640.462 103.935C639.255 101.913,637.991 99.919,636.98 97.785C636.306 96.325,635.436 94.949,634.228 93.854C633.947 93.573,633.582 93.208,633.189 93.208C633.021 93.208,632.852 93.264,632.656 93.377C632.263 93.629,632.094 93.938,632.094 94.219C632.094 94.556,632.263 94.865,632.487 95.202C633.751 96.83,634.509 98.712,635.716 100.34C636.081 100.79,636.25 101.099,636.25 101.379C636.25 101.744,635.941 102.025,635.295 102.446C634.425 102.924,633.554 103.401,632.74 104.019C632.347 104.3,632.122 104.609,632.122 104.946C632.122 105.142,632.206 105.339,632.291 105.563C632.684 106.49,633.217 107.332,633.779 108.175C634.677 109.438,635.492 110.814,636.138 112.218C635.857 112.471,635.604 112.387,635.379 112.415C632.628 112.78,630.802 114.858,630.999 117.329C631.28 120.277,632.375 123.029,633.695 125.641C633.863 125.978,634.06 126.286,634.481 126.427C634.706 126.511,634.874 126.792,635.071 126.792C635.127 126.792,635.211 126.792,635.239 126.736"/></g></g><g class="vf-stavenote" id="vf-auto21113" font-size="12pt"><g class="vf-notehead" id="vf-auto21188" pointer-events="bounding-box"><path stroke="none" d="M666.104 131.736C666.441 131.539,666.385 131.146,666.469 130.809C666.469 130.641,666.385 130.5,666.356 130.332C666.019 128.9,665.654 127.524,665.346 126.12C665.289 125.951,665.289 125.783,665.289 125.67C665.289 124.294,666.3 122.638,667.452 122.16C667.732 121.992,667.957 122.104,668.266 122.188C669.558 122.61,670.231 123.705,670.962 124.716C671.158 124.996,671.439 125.362,671.776 125.362C671.86 125.362,671.888 125.362,671.972 125.305C672.337 125.137,672.506 124.772,672.506 124.435L672.45 124.126C672.309 123.199,672.141 122.245,671.523 121.515C670.316 120.054,669.67 118.285,668.856 116.629C668.743 116.376,668.659 116.179,668.659 116.011C668.659 115.73,668.827 115.477,669.108 115.197C669.838 114.438,670.597 113.736,671.074 112.81C671.523 112.08,671.804 111.322,671.804 110.563C671.804 110.03,671.692 109.496,671.327 108.935C670.119 106.913,668.856 104.919,667.845 102.785C667.171 101.325,666.3 99.949,665.093 98.854C664.812 98.573,664.447 98.208,664.054 98.208C663.885 98.208,663.717 98.264,663.52 98.377C663.127 98.629,662.959 98.938,662.959 99.219C662.959 99.556,663.127 99.865,663.352 100.202C664.615 101.83,665.374 103.712,666.581 105.34C666.946 105.79,667.115 106.099,667.115 106.379C667.115 106.744,666.806 107.025,666.16 107.446C665.289 107.924,664.419 108.401,663.605 109.019C663.211 109.3,662.987 109.609,662.987 109.946C662.987 110.142,663.071 110.339,663.155 110.563C663.548 111.49,664.082 112.332,664.644 113.175C665.542 114.438,666.356 115.814,667.002 117.218C666.721 117.471,666.469 117.387,666.244 117.415C663.492 117.78,661.667 119.858,661.864 122.329C662.144 125.277,663.24 128.029,664.559 130.641C664.728 130.978,664.924 131.286,665.346 131.427C665.57 131.511,665.739 131.792,665.935 131.792C665.991 131.792,666.076 131.792,666.104 131.736"/></g></g><g class="vf-stavenote" id="vf-auto21118" font-size="12pt"><g class="vf-stem" id="vf-auto21119" pointer-events="bounding-box"><path stroke-width="1.5" fill="none" d="M724.494 112L724.494 145"/></g><g class="vf-notehead" id="vf-auto21122" pointer-events="bounding-box"><path stroke="none" d="M726.889 116.543C727.17 116.599,727.423 116.627,727.704 116.627C731.579 116.627,737.363 111.348,737.251 107.08C737.139 106.041,737.167 104.609,735.061 103.766C734.471 103.485,733.825 103.373,733.123 103.373C728.799 103.373,724.109 108.343,723.773 111.657C723.773 111.909,723.744 112.134,723.744 112.387C723.744 114.409,724.643 116.037,726.889 116.543"/></g></g><g class="vf-stavenote" id="vf-auto21123" font-size="12pt"><g class="vf-stem" id="vf-auto21124" pointer-events="bounding-box"><path stroke-width="1.5" fill="none" d="M770.867 112L770.867 145"/></g><g class="vf-notehead" id="vf-auto21127" pointer-events="bounding-box"><path stroke="none" d="M773.262 116.543C773.543 116.599,773.796 116.627,774.076 116.627C777.951 116.627,783.736 111.348,783.624 107.08C783.511 106.041,783.539 104.609,781.433 103.766C780.844 103.485,780.198 103.373,779.496 103.373C775.172 103.373,770.482 108.343,770.145 111.657C770.145 111.909,770.117 112.134,770.117 112.387C770.117 114.409,771.016 116.037,773.262 116.543"/></g></g><g class="vf-stavenote" id="vf-auto21134" font-size="12pt"><g class="vf-notehead" id="vf-auto21181" pointer-events="bounding-box"><path stroke="none" d="M480.613 156.736C480.95 156.539,480.894 156.146,480.978 155.809C480.978 155.641,480.894 155.5,480.866 155.332C480.529 153.9,480.164 152.524,479.855 151.12C479.798 150.951,479.798 150.783,479.798 150.67C479.798 149.294,480.809 147.638,481.961 147.16C482.241 146.992,482.466 147.104,482.775 147.188C484.067 147.61,484.741 148.705,485.471 149.716C485.667 149.996,485.948 150.362,486.285 150.362C486.369 150.362,486.397 150.362,486.482 150.305C486.847 150.137,487.015 149.772,487.015 149.435L486.959 149.126C486.818 148.199,486.65 147.245,486.032 146.515C484.825 145.054,484.179 143.285,483.365 141.629C483.252 141.376,483.168 141.179,483.168 141.011C483.168 140.73,483.337 140.477,483.617 140.197C484.347 139.438,485.106 138.736,485.583 137.81C486.032 137.08,486.313 136.322,486.313 135.563C486.313 135.03,486.201 134.496,485.836 133.935C484.628 131.913,483.365 129.919,482.354 127.785C481.68 126.325,480.809 124.949,479.602 123.854C479.321 123.573,478.956 123.208,478.563 123.208C478.394 123.208,478.226 123.264,478.029 123.377C477.636 123.629,477.468 123.938,477.468 124.219C477.468 124.556,477.636 124.865,477.861 125.202C479.125 126.83,479.883 128.712,481.09 130.34C481.455 130.79,481.624 131.099,481.624 131.379C481.624 131.744,481.315 132.025,480.669 132.446C479.798 132.924,478.928 133.401,478.114 134.019C477.721 134.3,477.496 134.609,477.496 134.946C477.496 135.142,477.58 135.339,477.664 135.563C478.058 136.49,478.591 137.332,479.153 138.175C480.051 139.438,480.866 140.814,481.511 142.218C481.231 142.471,480.978 142.387,480.753 142.415C478.001 142.78,476.176 144.858,476.373 147.329C476.654 150.277,477.749 153.029,479.068 155.641C479.237 155.978,479.433 156.286,479.855 156.427C480.079 156.511,480.248 156.792,480.444 156.792C480.5 156.792,480.585 156.792,480.613 156.736"/></g></g><g class="vf-stavenote" id="vf-auto21139" font-size="12pt"><g class="vf-stem" id="vf-auto21140" pointer-events="bounding-box"><path stroke-width="1.5" fill="none" d="M523.495 127L523.495 160"/></g><g class="vf-notehead" id="vf-auto21183" pointer-events="bounding-box"><path stroke="none" d="M525.89 131.543C526.171 131.599,526.424 131.627,526.705 131.627C530.58 131.627,536.364 126.348,536.252 122.08C536.14 121.041,536.168 119.609,534.062 118.766C533.472 118.485,532.826 118.373,532.124 118.373C527.8 118.373,523.11 123.343,522.774 126.657C522.774 126.909,522.745 127.134,522.745 127.387C522.745 129.409,523.644 131.037,525.89 131.543"/></g></g><g class="vf-stavenote" id="vf-auto21144" font-size="12pt"><g class="vf-notehead" id="vf-auto21186" pointer-events="bounding-box"><path stroke="none" d="M573.358 146.736C573.695 146.539,573.639 146.146,573.723 145.809C573.723 145.641,573.639 145.5,573.611 145.332C573.274 143.9,572.909 142.524,572.6 141.12C572.544 140.951,572.544 140.783,572.544 140.67C572.544 139.294,573.555 137.638,574.706 137.16C574.987 136.992,575.212 137.104,575.52 137.188C576.812 137.61,577.486 138.705,578.216 139.716C578.413 139.996,578.693 140.362,579.03 140.362C579.115 140.362,579.143 140.362,579.227 140.305C579.592 140.137,579.76 139.772,579.76 139.435L579.704 139.126C579.564 138.199,579.395 137.245,578.778 136.515C577.57 135.054,576.924 133.285,576.11 131.629C575.998 131.376,575.914 131.179,575.914 131.011C575.914 130.73,576.082 130.477,576.363 130.197C577.093 129.438,577.851 128.736,578.328 127.81C578.778 127.08,579.058 126.322,579.058 125.563C579.058 125.03,578.946 124.496,578.581 123.935C577.374 121.913,576.11 119.919,575.099 117.785C574.425 116.325,573.555 114.949,572.347 113.854C572.067 113.573,571.702 113.208,571.308 113.208C571.14 113.208,570.971 113.264,570.775 113.377C570.382 113.629,570.213 113.938,570.213 114.219C570.213 114.556,570.382 114.865,570.606 115.202C571.87 116.83,572.628 118.712,573.836 120.34C574.201 120.79,574.369 121.099,574.369 121.379C574.369 121.744,574.06 122.025,573.414 122.446C572.544 122.924,571.673 123.401,570.859 124.019C570.466 124.3,570.241 124.609,570.241 124.946C570.241 125.142,570.326 125.339,570.41 125.563C570.803 126.49,571.336 127.332,571.898 128.175C572.797 129.438,573.611 130.814,574.257 132.218C573.976 132.471,573.723 132.387,573.499 132.415C570.747 132.78,568.922 134.858,569.118 137.329C569.399 140.277,570.494 143.029,571.814 145.641C571.982 145.978,572.179 146.286,572.6 146.427C572.825 146.511,572.993 146.792,573.19 146.792C573.246 146.792,573.33 146.792,573.358 146.736"/></g></g><g class="vf-stavenote" id="vf-auto21149" font-size="12pt"><g class="vf-stem" id="vf-auto21150" pointer-events="bounding-box"><path stroke-width="1.5" fill="none" d="M616.241 122L616.241 155"/></g><g class="vf-notehead" id="vf-auto21187" pointer-events="bounding-box"><path stroke="none" d="M618.636 126.543C618.917 126.599,619.169 126.627,619.45 126.627C623.325 126.627,629.11 121.348,628.997 117.08C628.885 116.041,628.913 114.609,626.807 113.766C626.217 113.485,625.572 113.373,624.87 113.373C620.545 113.373,615.856 118.343,615.519 121.657C615.519 121.909,615.491 122.134,615.491 122.387C615.491 124.409,616.389 126.037,618.636 126.543"/></g></g><g class="vf-stavenote" id="vf-auto21154" font-size="12pt"><path stroke-width="1.4" fill="none" stroke="#444" d="M658.864 140L678.372 140"/><g class="vf-stem" id="vf-auto21155" pointer-events="bounding-box"><path stroke-width="1.5" fill="none" d="M662.614 142L662.614 175"/></g><g class="vf-notehead" id="vf-auto21158" pointer-events="bounding-box"><path stroke="none" d="M665.009 146.543C665.289 146.599,665.542 146.627,665.823 146.627C669.698 146.627,675.482 141.348,675.37 137.08C675.258 136.041,675.286 134.609,673.18 133.766C672.59 133.485,671.944 133.373,671.242 133.373C666.918 133.373,662.229 138.343,661.892 141.657C661.892 141.909,661.864 142.134,661.864 142.387C661.864 144.409,662.762 146.037,665.009 146.543"/></g></g><g class="vf-stavenote" id="vf-auto21159" font-size="12pt"><g class="vf-notehead" id="vf-auto21190" pointer-events="bounding-box"><path stroke="none" d="M712.476 156.736C712.813 156.539,712.757 156.146,712.841 155.809C712.841 155.641,712.757 155.5,712.729 155.332C712.392 153.9,712.027 152.524,711.718 151.12C711.662 150.951,711.662 150.783,711.662 150.67C711.662 149.294,712.673 147.638,713.824 147.16C714.105 146.992,714.33 147.104,714.639 147.188C715.93 147.61,716.604 148.705,717.334 149.716C717.531 149.996,717.812 150.362,718.149 150.362C718.233 150.362,718.261 150.362,718.345 150.305C718.71 150.137,718.879 149.772,718.879 149.435L718.823 149.126C718.682 148.199,718.514 147.245,717.896 146.515C716.688 145.054,716.043 143.285,715.228 141.629C715.116 141.376,715.032 141.179,715.032 141.011C715.032 140.73,715.2 140.477,715.481 140.197C716.211 139.438,716.969 138.736,717.447 137.81C717.896 137.08,718.177 136.322,718.177 135.563C718.177 135.03,718.064 134.496,717.699 133.935C716.492 131.913,715.228 129.919,714.217 127.785C713.543 126.325,712.673 124.949,711.466 123.854C711.185 123.573,710.82 123.208,710.427 123.208C710.258 123.208,710.09 123.264,709.893 123.377C709.5 123.629,709.331 123.938,709.331 124.219C709.331 124.556,709.5 124.865,709.725 125.202C710.988 126.83,711.746 128.712,712.954 130.34C713.319 130.79,713.487 131.099,713.487 131.379C713.487 131.744,713.178 132.025,712.533 132.446C711.662 132.924,710.792 133.401,709.977 134.019C709.584 134.3,709.36 134.609,709.36 134.946C709.36 135.142,709.444 135.339,709.528 135.563C709.921 136.49,710.455 137.332,711.016 138.175C711.915 139.438,712.729 140.814,713.375 142.218C713.094 142.471,712.841 142.387,712.617 142.415C709.865 142.78,708.04 144.858,708.236 147.329C708.517 150.277,709.612 153.029,710.932 155.641C711.101 155.978,711.297 156.286,711.718 156.427C711.943 156.511,712.111 156.792,712.308 156.792C712.364 156.792,712.448 156.792,712.476 156.736"/></g></g><g class="vf-stavenote" id="vf-auto21164" font-size="12pt"><path stroke-width="1.4" fill="none" stroke="#444" d="M751.609 140L771.117 140"/><g class="vf-stem" id="vf-auto21165" pointer-events="bounding-box"><path stroke-width="1.5" fill="none" d="M755.359 142L755.359 175"/></g><g class="vf-notehead" id="vf-auto21192" pointer-events="bounding-box"><path stroke="none" d="M757.754 146.543C758.035 146.599,758.288 146.627,758.568 146.627C762.443 146.627,768.228 141.348,768.116 137.08C768.003 136.041,768.031 134.609,765.925 133.766C765.336 133.485,764.69 133.373,763.988 133.373C759.663 133.373,754.974 138.343,754.637 141.657C754.637 141.909,754.609 142.134,754.609 142.387C754.609 144.409,755.508 146.037,757.754 146.543"/></g></g><text stroke="none" font-size="12pt" x="435.328" y="50">Rests Repositioned To Avoid Collisions</text></svg>