<svg xmlns="http://www.w3.org/2000/svg" stroke-width="0.3" stroke-dasharray="none" fill="black" stroke="black" font-family="Arial, sans-serif" font-size="10pt" font-weight="normal" font-style="normal" width="550" height="195" viewBox="0 0 550 195" style="width: 550px; height: 195px; border: none;"><g class="vf-stave" id="vf-auto12807" stroke-width="1" fill="#999999" stroke="#999999"><path fill="none" d="M10 70L510 70"/><path fill="none" d="M10 80L510 80"/><path fill="none" d="M10 90L510 90"/><path fill="none" d="M10 100L510 100"/><path fill="none" d="M10 110L510 110"/></g><g class="vf-stavebarline" id="vf-auto12808"><rect x="10" y="69.5" width="1" height="41" stroke="none"/></g><g class="vf-stavebarline" id="vf-auto12809"><rect x="510" y="69.5" width="1" height="41" stroke="none"/></g><g class="vf-stavenote" id="vf-auto12810"><g class="vf-stem" id="vf-auto12811" pointer-events="bounding-box"><path stroke-width="1.5" fill="none" d="M42.758 93L42.758 60"/></g><g class="vf-notehead" id="vf-auto12813" pointer-events="bounding-box"><path stroke="none" d="M33.645 101.543C33.926 101.599,34.178 101.627,34.459 101.627C38.334 101.627,44.119 96.348,44.006 92.08C43.894 91.041,43.922 89.609,41.816 88.766C41.227 88.485,40.581 88.373,39.879 88.373C35.554 88.373,30.865 93.343,30.528 96.657C30.528 96.909,30.5 97.134,30.5 97.387C30.5 99.409,31.399 101.037,33.645 101.543"/><g class="vf-ornament" id="vf-auto12826"><path stroke="none" d="M92.56 50C95.055 50,97.321 48.49,97.977 45.666C98.174 44.648,98.339 43.663,98.339 42.678C98.339 41.398,98.142 40.118,97.715 38.837C96.96 36.605,95.121 35.258,93.02 35.258C92.691 35.258,92.429 35.291,92.068 35.357C90.886 35.521,90.426 36.145,90.525 37.393L90.951 40.15C90.984 40.446,91.05 40.643,91.247 40.643C91.313 40.643,91.411 40.577,91.575 40.544C91.936 40.347,92.33 40.315,92.691 40.315C93.315 40.315,93.939 40.512,94.53 40.676C95.482 40.971,96.566 42.383,96.566 43.138C96.566 43.959,95.285 44.747,94.07 44.878C93.676 44.944,93.348 44.944,92.987 44.944C92.035 44.944,91.148 44.813,90.196 44.484C88.686 43.893,87.438 43.007,86.125 42.055C83.892 40.446,82.054 38.377,79.756 36.867C78.574 36.145,77.425 35.817,76.44 35.817C74.404 35.817,72.795 37.13,71.843 39.231C71.383 40.315,71.186 41.398,71.186 42.481C71.186 44.222,71.646 45.994,72.171 47.669C72.598 49.048,74.338 49.902,75.914 49.902C76.21 49.902,76.44 49.869,76.702 49.803C78.836 49.343,79.329 48.72,79.329 45.994C79.329 45.929,79.329 45.568,79.263 45.174C79.165 44.616,79.033 44.189,78.607 44.189C78.41 44.189,78.245 44.287,77.95 44.419C77.293 44.813,76.637 44.944,75.914 44.944C75.192 44.944,74.503 44.747,73.78 44.419C73.222 44.123,72.927 43.795,72.927 43.368C72.927 43.138,72.992 42.875,73.156 42.514C73.846 41.431,75.126 40.774,76.472 40.774C76.702 40.774,76.965 40.774,77.195 40.84C79.165 41.168,80.511 42.481,81.857 43.762C84.385 45.929,86.782 48.26,89.966 49.475C90.82 49.803,91.706 50,92.56 50"/></g></g></g><g class="vf-stavenote" id="vf-auto12814"><g class="vf-stem" id="vf-auto12815" pointer-events="bounding-box"><path stroke-width="1.5" fill="none" d="M155.131 93L155.131 60"/></g><g class="vf-notehead" id="vf-auto12817" pointer-events="bounding-box"><path stroke="none" d="M146.018 101.543C146.299 101.599,146.551 101.627,146.832 101.627C150.707 101.627,156.492 96.348,156.379 92.08C156.267 91.041,156.295 89.609,154.189 88.766C153.6 88.485,152.954 88.373,152.252 88.373C147.927 88.373,143.238 93.343,142.901 96.657C142.901 96.909,142.873 97.134,142.873 97.387C142.873 99.409,143.772 101.037,146.018 101.543"/><g class="vf-ornament" id="vf-auto12828"><path stroke="none" d="M198.038 50C198.498 48.851,198.531 47.899,198.531 46.947C198.498 45.436,198.498 43.893,198.498 42.317C199.68 43.171,200.96 43.992,202.339 44.517C203.193 44.845,204.079 45.01,204.933 45.01C207.428 45.01,209.694 43.499,210.35 40.676C210.547 39.691,210.712 38.673,210.712 37.688C210.712 36.408,210.515 35.127,210.088 33.879C209.333 31.647,207.494 30.268,205.393 30.268C205.064 30.268,204.802 30.334,204.441 30.366C203.259 30.563,202.799 31.187,202.898 32.402L203.324 35.193C203.357 35.488,203.423 35.652,203.62 35.652C203.685 35.652,203.784 35.62,203.948 35.554C204.309 35.39,204.703 35.324,205.064 35.324C205.688 35.324,206.312 35.521,206.903 35.718C207.855 35.981,208.939 37.425,208.939 38.18C208.939 38.968,207.658 39.789,206.443 39.921C206.049 39.953,205.721 39.953,205.36 39.953C204.408 39.953,203.521 39.822,202.569 39.494C201.059 38.968,199.811 38.016,198.498 37.097C198.498 37.097,198.498 37.031,198.465 37.031L198.465 33.912C198.465 32.304,198.4 30.563,198.4 28.955C198.4 28.003,198.367 27.05,197.776 26.262C197.71 26.098,197.71 25.836,197.513 25.836L197.415 25.836C197.185 25.868,196.955 26.164,196.791 26.394C196.692 26.591,196.758 26.821,196.758 27.05L196.594 35.554C195.149 34.306,193.737 32.96,192.129 31.877C190.947 31.187,189.798 30.826,188.813 30.826C186.777 30.826,185.135 32.172,184.216 34.241C183.756 35.324,183.559 36.408,183.559 37.491C183.559 39.264,184.019 41.004,184.544 42.711C184.971 44.09,186.711 44.944,188.287 44.944C188.583 44.944,188.813 44.878,189.075 44.845C191.209 44.353,191.702 43.762,191.702 41.004C191.702 40.971,191.702 40.577,191.636 40.216C191.538 39.625,191.406 39.198,190.979 39.198C190.783 39.198,190.618 39.297,190.323 39.461C189.666 39.822,189.01 39.953,188.287 39.953C187.565 39.953,186.875 39.789,186.153 39.461C185.595 39.165,185.3 38.837,185.3 38.41C185.3 38.18,185.365 37.885,185.529 37.557C186.153 36.473,187.499 35.817,188.845 35.817C189.075 35.817,189.338 35.817,189.568 35.849C191.538 36.243,192.818 37.557,194.23 38.771C194.985 39.461,195.773 40.118,196.528 40.709C196.462 41.398,196.462 42.055,196.462 42.646C196.364 45.174,196.758 47.538,198.038 50"/></g></g></g><g class="vf-stavenote" id="vf-auto12818"><g class="vf-stem" id="vf-auto12819" pointer-events="bounding-box"><path stroke-width="1.5" fill="none" d="M267.504 93L267.504 60"/></g><g class="vf-notehead" id="vf-auto12821" pointer-events="bounding-box"><path stroke="none" d="M258.391 101.543C258.672 101.599,258.924 101.627,259.205 101.627C263.08 101.627,268.865 96.348,268.752 92.08C268.64 91.041,268.668 89.609,266.562 88.766C265.973 88.485,265.327 88.373,264.625 88.373C260.3 88.373,255.611 93.343,255.274 96.657C255.274 96.909,255.246 97.134,255.246 97.387C255.246 99.409,256.145 101.037,258.391 101.543"/><g class="vf-ornament" id="vf-auto12830"><path stroke="none" d="M310.411 50C310.871 48.851,310.904 47.899,310.904 46.947C310.871 45.436,310.871 43.893,310.871 42.317C312.053 43.171,313.333 43.992,314.712 44.517C315.566 44.845,316.452 45.01,317.306 45.01C319.801 45.01,322.067 43.499,322.723 40.676C322.92 39.691,323.085 38.673,323.085 37.688C323.085 36.408,322.888 35.127,322.461 33.879C321.706 31.647,319.867 30.268,317.766 30.268C317.437 30.268,317.175 30.334,316.814 30.366C315.632 30.563,315.172 31.187,315.27 32.402L315.697 35.193C315.73 35.488,315.796 35.652,315.993 35.652C316.058 35.652,316.157 35.62,316.321 35.554C316.682 35.39,317.076 35.324,317.437 35.324C318.061 35.324,318.685 35.521,319.276 35.718C320.228 35.981,321.312 37.425,321.312 38.18C321.312 38.968,320.031 39.789,318.816 39.921C318.422 39.953,318.094 39.953,317.733 39.953C316.781 39.953,315.894 39.822,314.942 39.494C313.432 38.968,312.184 38.016,310.871 37.097C310.871 37.097,310.871 37.031,310.838 37.031L310.838 33.912C310.838 32.304,310.773 30.563,310.773 28.955C310.773 28.003,310.74 27.05,310.149 26.262C310.083 26.098,310.083 25.836,309.886 25.836L309.788 25.836C309.558 25.868,309.328 26.164,309.164 26.394C309.065 26.591,309.131 26.821,309.131 27.05L308.967 35.554C307.522 34.306,306.11 32.96,304.502 31.877C303.32 31.187,302.171 30.826,301.186 30.826C299.15 30.826,297.508 32.172,296.589 34.241C296.129 35.324,295.932 36.408,295.932 37.491C295.932 39.264,296.392 41.004,296.917 42.711C297.344 44.09,299.084 44.944,300.66 44.944C300.956 44.944,301.186 44.878,301.448 44.845C303.582 44.353,304.075 43.762,304.075 41.004C304.075 40.971,304.075 40.577,304.009 40.216C303.911 39.625,303.779 39.198,303.352 39.198C303.155 39.198,302.991 39.297,302.696 39.461C302.039 39.822,301.383 39.953,300.66 39.953C299.938 39.953,299.248 39.789,298.526 39.461C297.968 39.165,297.673 38.837,297.673 38.41C297.673 38.18,297.738 37.885,297.902 37.557C298.526 36.473,299.872 35.817,301.218 35.817C301.448 35.817,301.711 35.817,301.941 35.849C303.911 36.243,305.191 37.557,306.603 38.771C307.358 39.461,308.146 40.118,308.901 40.709C308.835 41.398,308.835 42.055,308.835 42.646C308.737 45.174,309.131 47.538,310.411 50"/></g></g></g><g class="vf-stavenote" id="vf-auto12822"><g class="vf-stem" id="vf-auto12823" pointer-events="bounding-box"><path stroke-width="1.5" fill="none" d="M379.877 93L379.877 60"/></g><g class="vf-notehead" id="vf-auto12825" pointer-events="bounding-box"><path stroke="none" d="M370.764 101.543C371.045 101.599,371.297 101.627,371.578 101.627C375.453 101.627,381.238 96.348,381.125 92.08C381.013 91.041,381.041 89.609,378.935 88.766C378.345 88.485,377.7 88.373,376.998 88.373C372.673 88.373,367.984 93.343,367.647 96.657C367.647 96.909,367.619 97.134,367.619 97.387C367.619 99.409,368.517 101.037,370.764 101.543"/><g class="vf-ornament" id="vf-auto12832"><path stroke="none" d="M459.933 50C462.428 50,464.694 48.49,465.35 45.666C465.547 44.648,465.712 43.663,465.712 42.678C465.712 41.398,465.515 40.118,465.088 38.837C464.333 36.605,462.494 35.258,460.393 35.258C460.064 35.258,459.802 35.291,459.441 35.357C458.259 35.521,457.799 36.145,457.898 37.393L458.324 40.15C458.357 40.446,458.423 40.643,458.62 40.643C458.685 40.643,458.784 40.577,458.948 40.544C459.309 40.347,459.703 40.315,460.064 40.315C460.688 40.315,461.312 40.512,461.903 40.676C462.855 40.971,463.939 42.383,463.939 43.138C463.939 43.959,462.658 44.747,461.443 44.878C461.049 44.944,460.721 44.944,460.36 44.944C459.408 44.944,458.521 44.813,457.569 44.484C456.059 43.893,454.811 43.007,453.498 42.055C451.265 40.446,449.427 38.377,447.129 36.867C445.947 36.145,444.798 35.817,443.813 35.817C441.777 35.817,440.168 37.13,439.216 39.231C438.756 40.315,438.559 41.398,438.559 42.481C438.559 44.222,439.019 45.994,439.544 47.669C439.971 49.048,441.711 49.902,443.287 49.902C443.583 49.902,443.813 49.869,444.075 49.803C446.209 49.343,446.702 48.72,446.702 45.994C446.702 45.929,446.702 45.568,446.636 45.174C446.538 44.616,446.406 44.189,445.979 44.189C445.783 44.189,445.618 44.287,445.323 44.419C444.666 44.813,444.01 44.944,443.287 44.944C442.565 44.944,441.875 44.747,441.153 44.419C440.595 44.123,440.3 43.795,440.3 43.368C440.3 43.138,440.365 42.875,440.529 42.514C441.219 41.431,442.499 40.774,443.845 40.774C444.075 40.774,444.338 40.774,444.568 40.84C446.538 41.168,447.884 42.481,449.23 43.762C451.758 45.929,454.155 48.26,457.339 49.475C458.193 49.803,459.079 50,459.933 50"/></g></g></g><g class="vf-stavenote" id="vf-auto12810"><g class="vf-stem" id="vf-auto12811" pointer-events="bounding-box"><path stroke-width="1.5" fill="none" d="M42.758 93L42.758 60"/></g><g class="vf-notehead" id="vf-auto12813" pointer-events="bounding-box"><path stroke="none" d="M33.645 101.543C33.926 101.599,34.178 101.627,34.459 101.627C38.334 101.627,44.119 96.348,44.006 92.08C43.894 91.041,43.922 89.609,41.816 88.766C41.227 88.485,40.581 88.373,39.879 88.373C35.554 88.373,30.865 93.343,30.528 96.657C30.528 96.909,30.5 97.134,30.5 97.387C30.5 99.409,31.399 101.037,33.645 101.543"/><g class="vf-ornament" id="vf-auto12826"><path stroke="none" d="M92.56 50C95.055 50,97.321 48.49,97.977 45.666C98.174 44.648,98.339 43.663,98.339 42.678C98.339 41.398,98.142 40.118,97.715 38.837C96.96 36.605,95.121 35.258,93.02 35.258C92.691 35.258,92.429 35.291,92.068 35.357C90.886 35.521,90.426 36.145,90.525 37.393L90.951 40.15C90.984 40.446,91.05 40.643,91.247 40.643C91.313 40.643,91.411 40.577,91.575 40.544C91.936 40.347,92.33 40.315,92.691 40.315C93.315 40.315,93.939 40.512,94.53 40.676C95.482 40.971,96.566 42.383,96.566 43.138C96.566 43.959,95.285 44.747,94.07 44.878C93.676 44.944,93.348 44.944,92.987 44.944C92.035 44.944,91.148 44.813,90.196 44.484C88.686 43.893,87.438 43.007,86.125 42.055C83.892 40.446,82.054 38.377,79.756 36.867C78.574 36.145,77.425 35.817,76.44 35.817C74.404 35.817,72.795 37.13,71.843 39.231C71.383 40.315,71.186 41.398,71.186 42.481C71.186 44.222,71.646 45.994,72.171 47.669C72.598 49.048,74.338 49.902,75.914 49.902C76.21 49.902,76.44 49.869,76.702 49.803C78.836 49.343,79.329 48.72,79.329 45.994C79.329 45.929,79.329 45.568,79.263 45.174C79.165 44.616,79.033 44.189,78.607 44.189C78.41 44.189,78.245 44.287,77.95 44.419C77.293 44.813,76.637 44.944,75.914 44.944C75.192 44.944,74.503 44.747,73.78 44.419C73.222 44.123,72.927 43.795,72.927 43.368C72.927 43.138,72.992 42.875,73.156 42.514C73.846 41.431,75.126 40.774,76.472 40.774C76.702 40.774,76.965 40.774,77.195 40.84C79.165 41.168,80.511 42.481,81.857 43.762C84.385 45.929,86.782 48.26,89.966 49.475C90.82 49.803,91.706 50,92.56 50"/></g></g></g><g class="vf-stavenote" id="vf-auto12814"><g class="vf-stem" id="vf-auto12815" pointer-events="bounding-box"><path stroke-width="1.5" fill="none" d="M155.131 93L155.131 60"/></g><g class="vf-notehead" id="vf-auto12817" pointer-events="bounding-box"><path stroke="none" d="M146.018 101.543C146.299 101.599,146.551 101.627,146.832 101.627C150.707 101.627,156.492 96.348,156.379 92.08C156.267 91.041,156.295 89.609,154.189 88.766C153.6 88.485,152.954 88.373,152.252 88.373C147.927 88.373,143.238 93.343,142.901 96.657C142.901 96.909,142.873 97.134,142.873 97.387C142.873 99.409,143.772 101.037,146.018 101.543"/><g class="vf-ornament" id="vf-auto12828"><path stroke="none" d="M198.038 50C198.498 48.851,198.531 47.899,198.531 46.947C198.498 45.436,198.498 43.893,198.498 42.317C199.68 43.171,200.96 43.992,202.339 44.517C203.193 44.845,204.079 45.01,204.933 45.01C207.428 45.01,209.694 43.499,210.35 40.676C210.547 39.691,210.712 38.673,210.712 37.688C210.712 36.408,210.515 35.127,210.088 33.879C209.333 31.647,207.494 30.268,205.393 30.268C205.064 30.268,204.802 30.334,204.441 30.366C203.259 30.563,202.799 31.187,202.898 32.402L203.324 35.193C203.357 35.488,203.423 35.652,203.62 35.652C203.685 35.652,203.784 35.62,203.948 35.554C204.309 35.39,204.703 35.324,205.064 35.324C205.688 35.324,206.312 35.521,206.903 35.718C207.855 35.981,208.939 37.425,208.939 38.18C208.939 38.968,207.658 39.789,206.443 39.921C206.049 39.953,205.721 39.953,205.36 39.953C204.408 39.953,203.521 39.822,202.569 39.494C201.059 38.968,199.811 38.016,198.498 37.097C198.498 37.097,198.498 37.031,198.465 37.031L198.465 33.912C198.465 32.304,198.4 30.563,198.4 28.955C198.4 28.003,198.367 27.05,197.776 26.262C197.71 26.098,197.71 25.836,197.513 25.836L197.415 25.836C197.185 25.868,196.955 26.164,196.791 26.394C196.692 26.591,196.758 26.821,196.758 27.05L196.594 35.554C195.149 34.306,193.737 32.96,192.129 31.877C190.947 31.187,189.798 30.826,188.813 30.826C186.777 30.826,185.135 32.172,184.216 34.241C183.756 35.324,183.559 36.408,183.559 37.491C183.559 39.264,184.019 41.004,184.544 42.711C184.971 44.09,186.711 44.944,188.287 44.944C188.583 44.944,188.813 44.878,189.075 44.845C191.209 44.353,191.702 43.762,191.702 41.004C191.702 40.971,191.702 40.577,191.636 40.216C191.538 39.625,191.406 39.198,190.979 39.198C190.783 39.198,190.618 39.297,190.323 39.461C189.666 39.822,189.01 39.953,188.287 39.953C187.565 39.953,186.875 39.789,186.153 39.461C185.595 39.165,185.3 38.837,185.3 38.41C185.3 38.18,185.365 37.885,185.529 37.557C186.153 36.473,187.499 35.817,188.845 35.817C189.075 35.817,189.338 35.817,189.568 35.849C191.538 36.243,192.818 37.557,194.23 38.771C194.985 39.461,195.773 40.118,196.528 40.709C196.462 41.398,196.462 42.055,196.462 42.646C196.364 45.174,196.758 47.538,198.038 50"/></g></g></g><g class="vf-stavenote" id="vf-auto12818"><g class="vf-stem" id="vf-auto12819" pointer-events="bounding-box"><path stroke-width="1.5" fill="none" d="M267.504 93L267.504 60"/></g><g class="vf-notehead" id="vf-auto12821" pointer-events="bounding-box"><path stroke="none" d="M258.391 101.543C258.672 101.599,258.924 101.627,259.205 101.627C263.08 101.627,268.865 96.348,268.752 92.08C268.64 91.041,268.668 89.609,266.562 88.766C265.973 88.485,265.327 88.373,264.625 88.373C260.3 88.373,255.611 93.343,255.274 96.657C255.274 96.909,255.246 97.134,255.246 97.387C255.246 99.409,256.145 101.037,258.391 101.543"/><g class="vf-ornament" id="vf-auto12830"><path stroke="none" d="M310.411 50C310.871 48.851,310.904 47.899,310.904 46.947C310.871 45.436,310.871 43.893,310.871 42.317C312.053 43.171,313.333 43.992,314.712 44.517C315.566 44.845,316.452 45.01,317.306 45.01C319.801 45.01,322.067 43.499,322.723 40.676C322.92 39.691,323.085 38.673,323.085 37.688C323.085 36.408,322.888 35.127,322.461 33.879C321.706 31.647,319.867 30.268,317.766 30.268C317.437 30.268,317.175 30.334,316.814 30.366C315.632 30.563,315.172 31.187,315.27 32.402L315.697 35.193C315.73 35.488,315.796 35.652,315.993 35.652C316.058 35.652,316.157 35.62,316.321 35.554C316.682 35.39,317.076 35.324,317.437 35.324C318.061 35.324,318.685 35.521,319.276 35.718C320.228 35.981,321.312 37.425,321.312 38.18C321.312 38.968,320.031 39.789,318.816 39.921C318.422 39.953,318.094 39.953,317.733 39.953C316.781 39.953,315.894 39.822,314.942 39.494C313.432 38.968,312.184 38.016,310.871 37.097C310.871 37.097,310.871 37.031,310.838 37.031L310.838 33.912C310.838 32.304,310.773 30.563,310.773 28.955C310.773 28.003,310.74 27.05,310.149 26.262C310.083 26.098,310.083 25.836,309.886 25.836L309.788 25.836C309.558 25.868,309.328 26.164,309.164 26.394C309.065 26.591,309.131 26.821,309.131 27.05L308.967 35.554C307.522 34.306,306.11 32.96,304.502 31.877C303.32 31.187,302.171 30.826,301.186 30.826C299.15 30.826,297.508 32.172,296.589 34.241C296.129 35.324,295.932 36.408,295.932 37.491C295.932 39.264,296.392 41.004,296.917 42.711C297.344 44.09,299.084 44.944,300.66 44.944C300.956 44.944,301.186 44.878,301.448 44.845C303.582 44.353,304.075 43.762,304.075 41.004C304.075 40.971,304.075 40.577,304.009 40.216C303.911 39.625,303.779 39.198,303.352 39.198C303.155 39.198,302.991 39.297,302.696 39.461C302.039 39.822,301.383 39.953,300.66 39.953C299.938 39.953,299.248 39.789,298.526 39.461C297.968 39.165,297.673 38.837,297.673 38.41C297.673 38.18,297.738 37.885,297.902 37.557C298.526 36.473,299.872 35.817,301.218 35.817C301.448 35.817,301.711 35.817,301.941 35.849C303.911 36.243,305.191 37.557,306.603 38.771C307.358 39.461,308.146 40.118,308.901 40.709C308.835 41.398,308.835 42.055,308.835 42.646C308.737 45.174,309.131 47.538,310.411 50"/></g></g></g><g class="vf-stavenote" id="vf-auto12822"><g class="vf-stem" id="vf-auto12823" pointer-events="bounding-box"><path stroke-width="1.5" fill="none" d="M379.877 93L379.877 60"/></g><g class="vf-notehead" id="vf-auto12825" pointer-events="bounding-box"><path stroke="none" d="M370.764 101.543C371.045 101.599,371.297 101.627,371.578 101.627C375.453 101.627,381.238 96.348,381.125 92.08C381.013 91.041,381.041 89.609,378.935 88.766C378.345 88.485,377.7 88.373,376.998 88.373C372.673 88.373,367.984 93.343,367.647 96.657C367.647 96.909,367.619 97.134,367.619 97.387C367.619 99.409,368.517 101.037,370.764 101.543"/><g class="vf-ornament" id="vf-auto12832"><path stroke="none" d="M459.933 50C462.428 50,464.694 48.49,465.35 45.666C465.547 44.648,465.712 43.663,465.712 42.678C465.712 41.398,465.515 40.118,465.088 38.837C464.333 36.605,462.494 35.258,460.393 35.258C460.064 35.258,459.802 35.291,459.441 35.357C458.259 35.521,457.799 36.145,457.898 37.393L458.324 40.15C458.357 40.446,458.423 40.643,458.62 40.643C458.685 40.643,458.784 40.577,458.948 40.544C459.309 40.347,459.703 40.315,460.064 40.315C460.688 40.315,461.312 40.512,461.903 40.676C462.855 40.971,463.939 42.383,463.939 43.138C463.939 43.959,462.658 44.747,461.443 44.878C461.049 44.944,460.721 44.944,460.36 44.944C459.408 44.944,458.521 44.813,457.569 44.484C456.059 43.893,454.811 43.007,453.498 42.055C451.265 40.446,449.427 38.377,447.129 36.867C445.947 36.145,444.798 35.817,443.813 35.817C441.777 35.817,440.168 37.13,439.216 39.231C438.756 40.315,438.559 41.398,438.559 42.481C438.559 44.222,439.019 45.994,439.544 47.669C439.971 49.048,441.711 49.902,443.287 49.902C443.583 49.902,443.813 49.869,444.075 49.803C446.209 49.343,446.702 48.72,446.702 45.994C446.702 45.929,446.702 45.568,446.636 45.174C446.538 44.616,446.406 44.189,445.979 44.189C445.783 44.189,445.618 44.287,445.323 44.419C444.666 44.813,444.01 44.944,443.287 44.944C442.565 44.944,441.875 44.747,441.153 44.419C440.595 44.123,440.3 43.795,440.3 43.368C440.3 43.138,440.365 42.875,440.529 42.514C441.219 41.431,442.499 40.774,443.845 40.774C444.075 40.774,444.338 40.774,444.568 40.84C446.538 41.168,447.884 42.481,449.23 43.762C451.758 45.929,454.155 48.26,457.339 49.475C458.193 49.803,459.079 50,459.933 50"/></g></g></g></svg>