<svg xmlns="http://www.w3.org/2000/svg" stroke-width="0.3" stroke-dasharray="none" fill="black" stroke="black" font-family="Arial, sans-serif" font-size="10pt" font-weight="normal" font-style="normal" width="400" height="195" viewBox="0 0 400 195" style="width: 400px; height: 195px; border: none;"><g class="vf-stave" id="vf-auto6231" stroke-width="1" fill="#999999" stroke="#999999"><path fill="none" d="M50 70L200 70"/><path fill="none" d="M50 80L200 80"/><path fill="none" d="M50 90L200 90"/><path fill="none" d="M50 100L200 100"/><path fill="none" d="M50 110L200 110"/></g><g class="vf-stavebarline" id="vf-auto6232"><rect x="50" y="69.5" width="1" height="41" stroke="none"/></g><g class="vf-stavebarline" id="vf-auto6233"/><g class="vf-stavenote" id="vf-auto6202"><path stroke-width="1.4" fill="none" stroke="#444" d="M70.985 120L90.493 120"/><g class="vf-stem" id="vf-auto6203" pointer-events="bounding-box"><path stroke-width="1.5" fill="none" d="M86.743 118L86.743 85"/></g><g class="vf-notehead" id="vf-auto6205" pointer-events="bounding-box"><path stroke="none" d="M77.63 126.543C77.911 126.599,78.163 126.627,78.444 126.627C82.319 126.627,88.104 121.348,87.991 117.08C87.879 116.041,87.907 114.609,85.801 113.766C85.211 113.485,84.565 113.373,83.863 113.373C79.539 113.373,74.85 118.343,74.513 121.657C74.513 121.909,74.485 122.134,74.485 122.387C74.485 124.409,75.383 126.037,77.63 126.543"/><path stroke="none" d="M70.438 64.998C70.711 65.026,70.821 64.725,70.985 64.533C73.912 61.359,76.813 58.186,79.685 54.984C79.85 54.82,79.959 54.766,80.096 54.766C80.205 54.766,80.315 54.82,80.452 54.957L84.501 58.842C86.389 60.703,88.386 62.426,90.328 64.287C90.438 64.369,90.52 64.478,90.602 64.478C90.684 64.478,90.766 64.451,90.848 64.314C91.231 64.013,91.478 62.974,91.478 61.989C91.478 61.223,91.313 60.511,91.012 60.183L80.917 50.853C80.725 50.662,80.506 50.58,80.369 50.58C80.178 50.58,79.959 50.744,79.768 50.935C76.785 54.164,73.858 57.42,70.739 60.539C70.328 60.976,70.027 61.414,70.027 61.989C70.027 62.125,70.027 62.235,70.082 62.399C70.027 62.508,70 62.673,70 62.782C70 63.302,70.246 63.74,70.246 64.26C70.274 64.478,70.082 64.889,70.438 64.998M79.768 63.63C79.85 63.63,79.932 63.63,80.041 63.548C81.546 63.138,81.792 62.946,81.792 61.058C81.792 60.73,81.792 60.429,81.737 60.156C81.71 59.608,81.737 59.006,80.944 59.006C79.822 59.006,79.111 59.472,79.111 60.265C79.111 61.25,79.22 62.153,79.33 63.138C79.384 63.466,79.467 63.63,79.768 63.63"/></g></g><g class="vf-stavenote" id="vf-auto6206"><g class="vf-stem" id="vf-auto6207" pointer-events="bounding-box"><path stroke-width="1.5" fill="none" d="M115.657 93L115.657 60"/></g><g class="vf-notehead" id="vf-auto6209" pointer-events="bounding-box"><path stroke="none" d="M106.544 101.543C106.825 101.599,107.078 101.627,107.358 101.627C111.233 101.627,117.018 96.348,116.906 92.08C116.793 91.041,116.821 89.609,114.715 88.766C114.126 88.485,113.48 88.373,112.778 88.373C108.453 88.373,103.764 93.343,103.427 96.657C103.427 96.909,103.399 97.134,103.399 97.387C103.399 99.409,104.298 101.037,106.544 101.543"/><path stroke="none" d="M99.352 54.998C99.626 55.026,99.735 54.725,99.899 54.533C102.827 51.359,105.727 48.186,108.6 44.984C108.764 44.82,108.873 44.766,109.01 44.766C109.12 44.766,109.229 44.82,109.366 44.957L113.415 48.842C115.303 50.703,117.3 52.426,119.243 54.287C119.352 54.369,119.434 54.478,119.516 54.478C119.598 54.478,119.681 54.451,119.763 54.314C120.146 54.013,120.392 52.974,120.392 51.989C120.392 51.223,120.228 50.511,119.927 50.183L109.831 40.853C109.639 40.662,109.421 40.58,109.284 40.58C109.092 40.58,108.873 40.744,108.682 40.935C105.7 44.164,102.772 47.42,99.653 50.539C99.243 50.976,98.942 51.414,98.942 51.989C98.942 52.125,98.942 52.235,98.996 52.399C98.942 52.508,98.914 52.673,98.914 52.782C98.914 53.302,99.161 53.74,99.161 54.26C99.188 54.478,98.996 54.889,99.352 54.998M108.682 53.63C108.764 53.63,108.846 53.63,108.955 53.548C110.46 53.138,110.706 52.946,110.706 51.058C110.706 50.73,110.706 50.429,110.652 50.156C110.624 49.608,110.652 49.006,109.858 49.006C108.737 49.006,108.025 49.472,108.025 50.265C108.025 51.25,108.135 52.153,108.244 53.138C108.299 53.466,108.381 53.63,108.682 53.63"/></g></g><g class="vf-stavenote" id="vf-auto6210"><path stroke-width="1.4" fill="none" stroke="#444" d="M128.813 120L148.321 120"/><g class="vf-stem" id="vf-auto6211" pointer-events="bounding-box"><path stroke-width="1.5" fill="none" d="M132.563 122L132.563 155"/></g><g class="vf-notehead" id="vf-auto6213" pointer-events="bounding-box"><path stroke="none" d="M134.958 126.543C135.239 126.599,135.492 126.627,135.773 126.627C139.648 126.627,145.432 121.348,145.32 117.08C145.207 116.041,145.236 114.609,143.13 113.766C142.54 113.485,141.894 113.373,141.192 113.373C136.868 113.373,132.178 118.343,131.841 121.657C131.841 121.909,131.813 122.134,131.813 122.387C131.813 124.409,132.712 126.037,134.958 126.543"/><path stroke="none" d="M137.993 173.571C138.239 173.571,138.513 173.352,138.978 172.832C141.823 169.768,144.696 166.731,147.459 163.584C148.362 162.544,149.292 161.532,149.703 160.055C148.773 160,148.444 160.575,148.007 160.985C145.079 163.666,142.206 166.375,139.361 169.138C139.169 169.275,139.06 169.357,138.896 169.357C138.732 169.357,138.595 169.275,138.376 169.084C135.065 166.183,131.727 163.256,128.389 160.383C128.225 160.274,128.061 160,127.87 160C127.788 160,127.705 160,127.623 160.055C127.459 160.192,127.432 160.356,127.432 160.465C127.432 160.657,127.514 160.848,127.623 161.012C127.76 161.204,127.815 161.45,127.979 161.696C129.073 163.584,130.578 165.226,132.001 166.895C133.697 168.865,135.339 170.862,137.035 172.832C137.473 173.352,137.747 173.571,137.993 173.571M137.883 166.211C138.075 166.211,138.266 166.129,138.54 166.047C139.224 165.828,139.634 165.308,139.799 164.651C139.908 163.995,139.963 163.338,140.045 162.709C140.045 162.189,139.853 161.724,139.689 161.259C139.525 160.711,139.224 160.547,138.868 160.547C138.649 160.547,138.513 160.575,138.294 160.629C137.719 160.766,137.008 160.766,136.953 161.751C136.953 162.873,137.117 163.94,137.172 165.034C137.199 165.828,137.364 166.211,137.883 166.211"/></g></g><g class="vf-stavenote" id="vf-auto6214"><g class="vf-stem" id="vf-auto6215" pointer-events="bounding-box"><path stroke-width="1.5" fill="none" d="M161.478 97L161.478 130"/></g><g class="vf-notehead" id="vf-auto6217" pointer-events="bounding-box"><path stroke="none" d="M163.873 101.543C164.153 101.599,164.406 101.627,164.687 101.627C168.562 101.627,174.346 96.348,174.234 92.08C174.122 91.041,174.15 89.609,172.044 88.766C171.454 88.485,170.808 88.373,170.106 88.373C165.782 88.373,161.093 93.343,160.756 96.657C160.756 96.909,160.728 97.134,160.728 97.387C160.728 99.409,161.626 101.037,163.873 101.543"/><path stroke="none" d="M166.907 148.571C167.153 148.571,167.427 148.352,167.892 147.832C170.737 144.768,173.61 141.731,176.374 138.584C177.277 137.544,178.207 136.532,178.617 135.055C177.687 135,177.359 135.575,176.921 135.985C173.993 138.666,171.121 141.375,168.275 144.138C168.084 144.275,167.974 144.357,167.81 144.357C167.646 144.357,167.509 144.275,167.29 144.084C163.98 141.183,160.642 138.256,157.304 135.383C157.14 135.274,156.975 135,156.784 135C156.702 135,156.62 135,156.538 135.055C156.373 135.192,156.346 135.356,156.346 135.465C156.346 135.657,156.428 135.848,156.538 136.012C156.674 136.204,156.729 136.45,156.893 136.696C157.988 138.584,159.493 140.226,160.915 141.895C162.612 143.865,164.253 145.862,165.949 147.832C166.387 148.352,166.661 148.571,166.907 148.571M166.798 141.211C166.989 141.211,167.181 141.129,167.454 141.047C168.138 140.828,168.549 140.308,168.713 139.651C168.822 138.995,168.877 138.338,168.959 137.709C168.959 137.189,168.768 136.724,168.603 136.259C168.439 135.711,168.138 135.547,167.783 135.547C167.564 135.547,167.427 135.575,167.208 135.629C166.633 135.766,165.922 135.766,165.867 136.751C165.867 137.873,166.032 138.94,166.086 140.034C166.114 140.828,166.278 141.211,166.798 141.211"/></g></g><g class="vf-stave" id="vf-auto6263" stroke-width="1" fill="#999999" stroke="#999999"><path fill="none" d="M200 70L350 70"/><path fill="none" d="M200 80L350 80"/><path fill="none" d="M200 90L350 90"/><path fill="none" d="M200 100L350 100"/><path fill="none" d="M200 110L350 110"/></g><g class="vf-stavebarline" id="vf-auto6264"><rect x="200" y="69.5" width="1" height="41" stroke="none"/></g><g class="vf-stavebarline" id="vf-auto6265"><rect x="347" y="69.5" width="1" height="41" stroke="none"/><rect x="350" y="69.5" width="1" height="41" stroke="none"/></g><g class="vf-stavenote" id="vf-auto6234"><g class="vf-stem" id="vf-auto6235" pointer-events="bounding-box"><path stroke-width="1.5" fill="none" d="M236.743 83L236.743 50"/></g><g class="vf-notehead" id="vf-auto6237" pointer-events="bounding-box"><path stroke="none" d="M227.63 91.543C227.911 91.599,228.163 91.627,228.444 91.627C232.319 91.627,238.104 86.348,237.991 82.08C237.879 81.041,237.907 79.609,235.801 78.766C235.211 78.485,234.565 78.373,233.863 78.373C229.539 78.373,224.85 83.343,224.513 86.657C224.513 86.909,224.485 87.134,224.485 87.387C224.485 89.409,225.383 91.037,227.63 91.543"/><path stroke="none" d="M220.438 44.998C220.711 45.026,220.821 44.725,220.985 44.533C223.912 41.359,226.813 38.186,229.685 34.984C229.85 34.82,229.959 34.766,230.096 34.766C230.205 34.766,230.315 34.82,230.452 34.957L234.501 38.842C236.389 40.703,238.386 42.426,240.328 44.287C240.438 44.369,240.52 44.478,240.602 44.478C240.684 44.478,240.766 44.451,240.848 44.314C241.231 44.013,241.478 42.974,241.478 41.989C241.478 41.223,241.313 40.511,241.012 40.183L230.917 30.853C230.725 30.662,230.506 30.58,230.369 30.58C230.178 30.58,229.959 30.744,229.768 30.935C226.785 34.164,223.858 37.42,220.739 40.539C220.328 40.976,220.027 41.414,220.027 41.989C220.027 42.125,220.027 42.235,220.082 42.399C220.027 42.508,220 42.673,220 42.782C220 43.302,220.246 43.74,220.246 44.26C220.274 44.478,220.082 44.889,220.438 44.998M229.768 43.63C229.85 43.63,229.932 43.63,230.041 43.548C231.546 43.138,231.792 42.946,231.792 41.058C231.792 40.73,231.792 40.429,231.737 40.156C231.71 39.608,231.737 39.006,230.944 39.006C229.822 39.006,229.111 39.472,229.111 40.265C229.111 41.25,229.22 42.153,229.33 43.138C229.384 43.466,229.467 43.63,229.768 43.63"/></g></g><g class="vf-stavenote" id="vf-auto6238"><path stroke-width="1.4" fill="none" stroke="#444" d="M249.899 60L269.407 60"/><g class="vf-stem" id="vf-auto6239" pointer-events="bounding-box"><path stroke-width="1.5" fill="none" d="M265.657 58L265.657 25"/></g><g class="vf-notehead" id="vf-auto6241" pointer-events="bounding-box"><path stroke="none" d="M256.544 66.543C256.825 66.599,257.078 66.627,257.358 66.627C261.233 66.627,267.018 61.348,266.906 57.08C266.793 56.041,266.821 54.609,264.715 53.766C264.126 53.485,263.48 53.373,262.778 53.373C258.453 53.373,253.764 58.343,253.427 61.657C253.427 61.909,253.399 62.134,253.399 62.387C253.399 64.409,254.298 66.037,256.544 66.543"/><path stroke="none" d="M249.352 19.998C249.626 20.026,249.735 19.725,249.899 19.533C252.827 16.359,255.727 13.186,258.6 9.984C258.764 9.82,258.873 9.766,259.01 9.766C259.12 9.766,259.229 9.82,259.366 9.957L263.415 13.842C265.303 15.703,267.3 17.426,269.243 19.287C269.352 19.369,269.434 19.478,269.516 19.478C269.598 19.478,269.681 19.451,269.763 19.314C270.146 19.013,270.392 17.974,270.392 16.989C270.392 16.223,270.228 15.511,269.927 15.183L259.831 5.853C259.639 5.662,259.421 5.58,259.284 5.58C259.092 5.58,258.873 5.744,258.682 5.935C255.7 9.164,252.772 12.42,249.653 15.539C249.243 15.976,248.942 16.414,248.942 16.989C248.942 17.125,248.942 17.235,248.996 17.399C248.942 17.508,248.914 17.673,248.914 17.782C248.914 18.302,249.161 18.74,249.161 19.26C249.188 19.478,248.996 19.889,249.352 19.998M258.682 18.63C258.764 18.63,258.846 18.63,258.955 18.548C260.46 18.138,260.706 17.946,260.706 16.058C260.706 15.73,260.706 15.429,260.652 15.156C260.624 14.608,260.652 14.006,259.858 14.006C258.737 14.006,258.025 14.472,258.025 15.265C258.025 16.25,258.135 17.153,258.244 18.138C258.299 18.466,258.381 18.63,258.682 18.63"/></g></g><g class="vf-stavenote" id="vf-auto6242"><g class="vf-stem" id="vf-auto6243" pointer-events="bounding-box"><path stroke-width="1.5" fill="none" d="M282.563 87L282.563 120"/></g><g class="vf-notehead" id="vf-auto6245" pointer-events="bounding-box"><path stroke="none" d="M284.958 91.543C285.239 91.599,285.492 91.627,285.773 91.627C289.648 91.627,295.432 86.348,295.32 82.08C295.207 81.041,295.236 79.609,293.13 78.766C292.54 78.485,291.894 78.373,291.192 78.373C286.868 78.373,282.178 83.343,281.841 86.657C281.841 86.909,281.813 87.134,281.813 87.387C281.813 89.409,282.712 91.037,284.958 91.543"/><path stroke="none" d="M287.993 138.571C288.239 138.571,288.513 138.352,288.978 137.832C291.823 134.768,294.696 131.731,297.459 128.584C298.362 127.544,299.292 126.532,299.703 125.055C298.773 125,298.444 125.575,298.007 125.985C295.079 128.666,292.206 131.375,289.361 134.138C289.169 134.275,289.06 134.357,288.896 134.357C288.732 134.357,288.595 134.275,288.376 134.084C285.065 131.183,281.727 128.256,278.389 125.383C278.225 125.274,278.061 125,277.87 125C277.788 125,277.705 125,277.623 125.055C277.459 125.192,277.432 125.356,277.432 125.465C277.432 125.657,277.514 125.848,277.623 126.012C277.76 126.204,277.815 126.45,277.979 126.696C279.073 128.584,280.578 130.226,282.001 131.895C283.697 133.865,285.339 135.862,287.035 137.832C287.473 138.352,287.747 138.571,287.993 138.571M287.883 131.211C288.075 131.211,288.266 131.129,288.54 131.047C289.224 130.828,289.634 130.308,289.799 129.651C289.908 128.995,289.963 128.338,290.045 127.709C290.045 127.189,289.853 126.724,289.689 126.259C289.525 125.711,289.224 125.547,288.868 125.547C288.649 125.547,288.513 125.575,288.294 125.629C287.719 125.766,287.008 125.766,286.953 126.751C286.953 127.873,287.117 128.94,287.172 130.034C287.199 130.828,287.364 131.211,287.883 131.211"/></g></g><g class="vf-stavenote" id="vf-auto6246"><path stroke-width="1.4" fill="none" stroke="#444" d="M307.728 60L327.236 60"/><g class="vf-stem" id="vf-auto6247" pointer-events="bounding-box"><path stroke-width="1.5" fill="none" d="M311.478 62L311.478 95"/></g><g class="vf-notehead" id="vf-auto6249" pointer-events="bounding-box"><path stroke="none" d="M313.873 66.543C314.153 66.599,314.406 66.627,314.687 66.627C318.562 66.627,324.346 61.348,324.234 57.08C324.122 56.041,324.15 54.609,322.044 53.766C321.454 53.485,320.808 53.373,320.106 53.373C315.782 53.373,311.093 58.343,310.756 61.657C310.756 61.909,310.728 62.134,310.728 62.387C310.728 64.409,311.626 66.037,313.873 66.543"/><path stroke="none" d="M316.907 128.571C317.153 128.571,317.427 128.352,317.892 127.832C320.737 124.768,323.61 121.731,326.374 118.584C327.277 117.544,328.207 116.532,328.617 115.055C327.687 115,327.359 115.575,326.921 115.985C323.993 118.666,321.121 121.375,318.275 124.138C318.084 124.275,317.974 124.357,317.81 124.357C317.646 124.357,317.509 124.275,317.29 124.084C313.98 121.183,310.642 118.256,307.304 115.383C307.14 115.274,306.975 115,306.784 115C306.702 115,306.62 115,306.538 115.055C306.373 115.192,306.346 115.356,306.346 115.465C306.346 115.657,306.428 115.848,306.538 116.012C306.674 116.204,306.729 116.45,306.893 116.696C307.988 118.584,309.493 120.226,310.915 121.895C312.612 123.865,314.253 125.862,315.949 127.832C316.387 128.352,316.661 128.571,316.907 128.571M316.798 121.211C316.989 121.211,317.181 121.129,317.454 121.047C318.138 120.828,318.549 120.308,318.713 119.651C318.822 118.995,318.877 118.338,318.959 117.709C318.959 117.189,318.768 116.724,318.603 116.259C318.439 115.711,318.138 115.547,317.783 115.547C317.564 115.547,317.427 115.575,317.208 115.629C316.633 115.766,315.922 115.766,315.867 116.751C315.867 117.873,316.032 118.94,316.086 120.034C316.114 120.828,316.278 121.211,316.798 121.211"/></g></g></svg>