<svg xmlns="http://www.w3.org/2000/svg" stroke-width="0.3" stroke-dasharray="none" fill="black" stroke="black" font-family="Arial, sans-serif" font-size="10pt" font-weight="normal" font-style="normal" width="550" height="195" viewBox="0 0 550 195" style="width: 550px; height: 195px; border: none;"><g class="vf-stave" id="vf-auto12608" stroke-width="1" fill="#999999" stroke="#999999"><path fill="none" d="M10 70L510 70"/><path fill="none" d="M10 80L510 80"/><path fill="none" d="M10 90L510 90"/><path fill="none" d="M10 100L510 100"/><path fill="none" d="M10 110L510 110"/></g><g class="vf-stavebarline" id="vf-auto12609"><rect x="10" y="69.5" width="1" height="41" stroke="none"/></g><g class="vf-stavebarline" id="vf-auto12610"><rect x="510" y="69.5" width="1" height="41" stroke="none"/></g><g class="vf-stavenote" id="vf-auto12611"><g class="vf-stem" id="vf-auto12612" pointer-events="bounding-box"><path stroke-width="1.5" fill="none" d="M38.184 93L38.184 60"/></g><g class="vf-notehead" id="vf-auto12614" pointer-events="bounding-box"><path stroke="none" d="M30.931 100.054C34.525 100.054,38.934 96.741,38.934 93.315C38.934 91.237,37.305 89.946,35.003 89.946C30.566 89.946,27 93.231,27 96.685C27 98.791,28.741 100.054,30.931 100.054"/><g class="vf-ornament" id="vf-auto12627"><path stroke="none" d="M88.416 39.691C86.971 39.691,85.789 40.347,85.789 41.759C85.789 42.81,86.478 43.466,87.463 43.466C88.842 43.466,88.908 42.383,89.893 42.383C90.681 42.383,91.436 43.368,91.436 44.616C91.436 46.651,90.024 47.636,88.383 47.636C86.872 47.636,85.296 46.356,83.261 44.09C80.963 41.529,78.861 39.756,75.808 39.756C72.689 39.756,70.883 42.12,70.883 45.141C70.883 48.523,73.05 50,75.086 50C76.563 50,77.745 49.343,77.745 47.932C77.745 46.881,77.023 46.224,76.038 46.224C74.659 46.224,74.626 47.308,73.641 47.308C72.82 47.308,72.065 46.323,72.065 45.075C72.065 43.04,73.477 42.055,75.151 42.055C76.662 42.055,78.205 43.335,80.24 45.601C82.571 48.161,84.64 49.967,87.726 49.967C90.845 49.967,92.618 47.603,92.618 44.55C92.618 41.168,90.451 39.691,88.416 39.691"/></g></g></g><g class="vf-stavenote" id="vf-auto12615"><g class="vf-stem" id="vf-auto12616" pointer-events="bounding-box"><path stroke-width="1.5" fill="none" d="M152.951 93L152.951 60"/></g><g class="vf-notehead" id="vf-auto12618" pointer-events="bounding-box"><path stroke="none" d="M145.698 100.054C149.292 100.054,153.701 96.741,153.701 93.315C153.701 91.237,152.072 89.946,149.769 89.946C145.333 89.946,141.767 93.231,141.767 96.685C141.767 98.791,143.507 100.054,145.698 100.054"/><g class="vf-ornament" id="vf-auto12629"><path stroke="none" d="M196.583 31.253C195.992 31.253,195.828 31.516,195.828 32.008L195.828 36.736C195.828 37.261,195.762 37.458,195.565 37.458C195.302 37.458,195.073 37.13,194.219 36.605C193.135 35.948,191.953 35.521,190.575 35.521C187.456 35.521,185.65 37.885,185.65 40.906C185.65 44.32,187.817 45.765,189.852 45.765C191.33 45.765,192.512 45.108,192.512 43.696C192.512 42.646,191.789 41.989,190.804 41.989C189.425 41.989,189.393 43.072,188.408 43.072C187.587 43.072,186.832 42.087,186.832 40.873C186.832 38.837,188.243 37.852,189.918 37.852C191.428 37.852,192.938 39.264,195.007 41.529C195.631 42.186,195.729 42.284,195.729 43.138L195.729 49.245C195.729 49.737,195.893 50,196.484 50C197.042 50,197.239 49.737,197.239 49.245L197.239 44.517C197.239 43.992,197.239 43.795,197.469 43.795C197.765 43.795,197.995 44.123,198.848 44.648C199.932 45.305,201.114 45.732,202.493 45.732C205.612 45.732,207.385 43.368,207.385 40.347C207.385 36.933,205.218 35.488,203.182 35.488C201.737 35.488,200.555 36.145,200.555 37.557C200.555 38.607,201.245 39.264,202.23 39.264C203.609 39.264,203.675 38.18,204.659 38.18C205.447 38.18,206.203 39.165,206.203 40.38C206.203 42.416,204.791 43.401,203.149 43.401C201.639 43.401,200.129 41.989,198.027 39.724C197.436 39.067,197.338 38.968,197.338 38.115L197.338 32.008C197.338 31.516,197.141 31.253,196.583 31.253"/></g></g></g><g class="vf-stavenote" id="vf-auto12619"><g class="vf-stem" id="vf-auto12620" pointer-events="bounding-box"><path stroke-width="1.5" fill="none" d="M267.717 93L267.717 60"/></g><g class="vf-notehead" id="vf-auto12622" pointer-events="bounding-box"><path stroke="none" d="M260.464 100.054C264.058 100.054,268.467 96.741,268.467 93.315C268.467 91.237,266.838 89.946,264.536 89.946C260.099 89.946,256.533 93.231,256.533 96.685C256.533 98.791,258.274 100.054,260.464 100.054"/><g class="vf-ornament" id="vf-auto12631"><path stroke="none" d="M311.349 31.253C310.758 31.253,310.594 31.516,310.594 32.008L310.594 36.736C310.594 37.261,310.529 37.458,310.332 37.458C310.069 37.458,309.839 37.13,308.985 36.605C307.902 35.948,306.72 35.521,305.341 35.521C302.222 35.521,300.416 37.885,300.416 40.906C300.416 44.32,302.583 45.765,304.619 45.765C306.096 45.765,307.278 45.108,307.278 43.696C307.278 42.646,306.556 41.989,305.571 41.989C304.192 41.989,304.159 43.072,303.174 43.072C302.353 43.072,301.598 42.087,301.598 40.873C301.598 38.837,303.01 37.852,304.684 37.852C306.195 37.852,307.705 39.264,309.773 41.529C310.397 42.186,310.496 42.284,310.496 43.138L310.496 49.245C310.496 49.737,310.66 50,311.251 50C311.809 50,312.006 49.737,312.006 49.245L312.006 44.517C312.006 43.992,312.006 43.795,312.236 43.795C312.531 43.795,312.761 44.123,313.615 44.648C314.698 45.305,315.88 45.732,317.259 45.732C320.378 45.732,322.151 43.368,322.151 40.347C322.151 36.933,319.984 35.488,317.949 35.488C316.504 35.488,315.322 36.145,315.322 37.557C315.322 38.607,316.011 39.264,316.996 39.264C318.375 39.264,318.441 38.18,319.426 38.18C320.214 38.18,320.969 39.165,320.969 40.38C320.969 42.416,319.557 43.401,317.916 43.401C316.405 43.401,314.895 41.989,312.794 39.724C312.203 39.067,312.104 38.968,312.104 38.115L312.104 32.008C312.104 31.516,311.907 31.253,311.349 31.253"/></g></g></g><g class="vf-stavenote" id="vf-auto12623"><g class="vf-stem" id="vf-auto12624" pointer-events="bounding-box"><path stroke-width="1.5" fill="none" d="M382.484 93L382.484 60"/></g><g class="vf-notehead" id="vf-auto12626" pointer-events="bounding-box"><path stroke="none" d="M375.231 100.054C378.825 100.054,383.234 96.741,383.234 93.315C383.234 91.237,381.605 89.946,379.302 89.946C374.866 89.946,371.299 93.231,371.299 96.685C371.299 98.791,373.04 100.054,375.231 100.054"/><g class="vf-ornament" id="vf-auto12633"><path stroke="none" d="M458.182 39.691C456.737 39.691,455.555 40.347,455.555 41.759C455.555 42.81,456.245 43.466,457.23 43.466C458.609 43.466,458.675 42.383,459.659 42.383C460.447 42.383,461.203 43.368,461.203 44.616C461.203 46.651,459.791 47.636,458.149 47.636C456.639 47.636,455.063 46.356,453.027 44.09C450.729 41.529,448.628 39.756,445.575 39.756C442.456 39.756,440.65 42.12,440.65 45.141C440.65 48.523,442.817 50,444.852 50C446.33 50,447.512 49.343,447.512 47.932C447.512 46.881,446.789 46.224,445.804 46.224C444.425 46.224,444.393 47.308,443.408 47.308C442.587 47.308,441.832 46.323,441.832 45.075C441.832 43.04,443.243 42.055,444.918 42.055C446.428 42.055,447.971 43.335,450.007 45.601C452.338 48.161,454.406 49.967,457.493 49.967C460.612 49.967,462.385 47.603,462.385 44.55C462.385 41.168,460.218 39.691,458.182 39.691"/></g></g></g></svg>