<svg xmlns="http://www.w3.org/2000/svg" stroke-width="0.3" stroke-dasharray="none" fill="black" stroke="black" font-family="Arial, sans-serif" font-size="10pt" font-weight="normal" font-style="normal" width="800" height="150" viewBox="0 0 800 150" style="width: 800px; height: 150px; border: none;"><g class="vf-stave" id="vf-auto16380" stroke-width="1" fill="#999999" stroke="#999999"><path fill="none" d="M10 70L310 70"/><path fill="none" d="M10 80L310 80"/><path fill="none" d="M10 90L310 90"/><path fill="none" d="M10 100L310 100"/><path fill="none" d="M10 110L310 110"/></g><g class="vf-stavebarline" id="vf-auto16381"><rect x="10" y="69.5" width="1" height="41" stroke="none"/></g><g class="vf-stavebarline" id="vf-auto16382"><rect x="310" y="69.5" width="1" height="41" stroke="none"/></g><g class="vf-clef" id="vf-auto16383"><path stroke="none" d="M35.503 101.76C35.503 104.345,34.464 107.032,31.854 108.071C31.093 103.712,30.105 97.908,29.852 96.286C33.146 96.286,35.503 98.516,35.503 101.76M30.333 108.527C29.598 108.654,28.914 108.73,28.204 108.73C22.983 108.73,18.548 105.08,18.548 99.581C18.548 95.12,21.691 91.141,24.884 88.379C25.518 87.821,26.101 87.314,26.633 86.757C26.962 88.734,27.216 90.457,27.469 91.952C24.149 92.941,21.894 96.438,21.894 99.86C21.894 102.419,23.896 105.917,26.836 105.917C27.114 105.917,27.444 105.79,27.444 105.461C27.444 105.131,27.089 104.954,26.633 104.65C25.214 103.762,24.428 102.825,24.428 101.025C24.428 98.82,26.05 97.021,28.204 96.514M27.114 70.993C27.444 69.548,29.117 65.721,31.017 65.721C31.575 65.721,32.437 67.495,32.437 70.004C32.437 73.806,29.623 76.67,27.114 79.128C26.886 77.684,26.709 76.264,26.709 74.718C26.709 73.375,26.836 72.133,27.114 70.993M19.461 119.729C19.461 122.137,21.311 125.305,26.253 125.305C27.951 125.305,29.446 124.874,30.764 124.063C32.741 122.669,33.248 120.261,33.248 117.98C33.248 116.536,33.02 114.914,32.665 112.836C32.563 112.101,32.335 111.011,32.107 109.566C35.681 108.4,38.367 104.675,38.367 100.924C38.367 95.424,34.464 91.699,29.117 91.699C28.762 89.494,28.382 87.34,28.078 85.312C31.93 81.257,34.591 76.695,34.591 70.891C34.591 67.571,33.577 64.859,32.994 63.567C32.107 61.691,31.068 60.424,30.409 60.424C30.156 60.424,29.015 60.855,27.799 62.274C25.467 65.062,24.808 69.726,24.808 72.792C24.808 74.769,25.011 76.543,25.619 80.623C25.594 80.674,23.693 82.6,22.907 83.234C19.587 86.326,15 90.736,15 98.035C15 104.878,20.956 110.225,27.748 110.225C28.787 110.225,29.776 110.124,30.612 109.972C31.322 113.469,31.727 116.029,31.727 117.98C31.727 121.757,29.776 123.784,26.101 123.784C25.214 123.784,24.453 123.582,24.377 123.582C24.352 123.556,24.276 123.505,24.276 123.48C24.276 123.404,24.352 123.379,24.453 123.328C26.177 123.075,27.875 121.63,27.875 119.273C27.875 117.322,26.379 115.243,23.642 115.243C21.083 115.243,19.461 117.322,19.461 119.729"/></g><g class="vf-timesignature" id="vf-auto16384"><path stroke="none" d="M60.711 84.48L60.711 87.075L57.774 87.075C57.529 87.075,57.284 87.295,57.284 87.589L57.284 88.25C57.284 88.519,57.529 88.739,57.774 88.739L68.447 88.739C68.741 88.739,68.936 88.519,68.936 88.25L68.936 87.589C68.936 87.295,68.741 87.075,68.447 87.075L65.289 87.075L65.289 84.48L68.447 84.48C68.741 84.48,68.936 84.235,68.936 83.941L68.936 83.28C68.936 83.036,68.741 82.791,68.447 82.791L65.289 82.791L65.289 77.185C65.289 76.964,65.167 76.793,65.044 76.72L64.603 76.499C64.53 76.475,64.506 76.475,64.432 76.475C64.408 76.475,64.408 76.475,64.359 76.475C64.261 76.475,64.114 76.499,64.04 76.573L60.834 79.51C60.736 79.608,60.711 79.755,60.711 79.902L60.711 82.791L56.599 82.791C56.599 82.791,60.564 78.556,64.726 72.974C64.848 72.803,64.897 72.632,64.897 72.485C64.897 72.313,64.824 72.166,64.799 72.142L64.016 71.359C63.918 71.285,63.796 71.212,63.649 71.212C63.453 71.212,58.679 71.212,58.41 71.212C58.165 71.212,57.994 71.432,57.945 71.652C57.945 71.652,57.774 74.247,56.868 77.111C55.938 79.976,54.885 81.738,53.955 83.036C53.955 83.036,53.857 83.207,53.857 83.427C53.857 83.501,53.857 83.55,53.906 83.623C54.004 83.868,54.248 84.26,54.248 84.26C54.248 84.26,54.322 84.48,54.64 84.48"/><path stroke="none" d="M60.711 104.48L60.711 107.075L57.774 107.075C57.529 107.075,57.284 107.295,57.284 107.589L57.284 108.25C57.284 108.519,57.529 108.739,57.774 108.739L68.447 108.739C68.741 108.739,68.936 108.519,68.936 108.25L68.936 107.589C68.936 107.295,68.741 107.075,68.447 107.075L65.289 107.075L65.289 104.48L68.447 104.48C68.741 104.48,68.936 104.235,68.936 103.941L68.936 103.28C68.936 103.036,68.741 102.791,68.447 102.791L65.289 102.791L65.289 97.185C65.289 96.964,65.167 96.793,65.044 96.72L64.603 96.499C64.53 96.475,64.506 96.475,64.432 96.475C64.408 96.475,64.408 96.475,64.359 96.475C64.261 96.475,64.114 96.499,64.04 96.573L60.834 99.51C60.736 99.608,60.711 99.755,60.711 99.902L60.711 102.791L56.599 102.791C56.599 102.791,60.564 98.556,64.726 92.974C64.848 92.803,64.897 92.632,64.897 92.485C64.897 92.313,64.824 92.166,64.799 92.142L64.016 91.359C63.918 91.285,63.796 91.212,63.649 91.212C63.453 91.212,58.679 91.212,58.41 91.212C58.165 91.212,57.994 91.432,57.945 91.652C57.945 91.652,57.774 94.247,56.868 97.111C55.938 99.976,54.885 101.738,53.955 103.036C53.955 103.036,53.857 103.207,53.857 103.427C53.857 103.501,53.857 103.55,53.906 103.623C54.004 103.868,54.248 104.26,54.248 104.26C54.248 104.26,54.322 104.48,54.64 104.48"/></g><g class="vf-keysignature" id="vf-auto16388"/><g class="vf-stavenote" id="vf-auto16389"><g class="vf-notehead" id="vf-auto16393" pointer-events="bounding-box"><path stroke-width="1.5" stroke="none" d="M80.447 100L80.447 91L95.447 80L95.447 90L80.447 100Z"/></g></g><g class="vf-stavenote" id="vf-auto16395"><g class="vf-notehead" id="vf-auto16399" pointer-events="bounding-box"><path stroke-width="1.5" stroke="none" d="M108.306 100L108.306 91L123.306 80L123.306 90L108.306 100Z"/></g></g><g class="vf-stavenote" id="vf-auto16401"><g class="vf-notehead" id="vf-auto16405" pointer-events="bounding-box"><path stroke-width="1.5" stroke="none" d="M136.165 100L136.165 91L151.165 80L151.165 90L136.165 100Z"/></g></g><g class="vf-stavenote" id="vf-auto16407"><g class="vf-notehead" id="vf-auto16411" pointer-events="bounding-box"><path stroke-width="1.5" stroke="none" d="M164.024 100L164.024 91L179.024 80L179.024 90L164.024 100Z"/></g></g><g class="vf-stavenote" id="vf-auto16413"><g class="vf-notehead" id="vf-auto16417" pointer-events="bounding-box"><path stroke-width="1.5" stroke="none" d="M191.883 100L191.883 91L206.883 80L206.883 90L191.883 100Z"/></g></g><g class="vf-stavenote" id="vf-auto16419"><g class="vf-notehead" id="vf-auto16423" pointer-events="bounding-box"><path stroke-width="1.5" stroke="none" d="M219.742 100L219.742 91L234.742 80L234.742 90L219.742 100Z"/></g></g><g class="vf-stavenote" id="vf-auto16425"><g class="vf-notehead" id="vf-auto16429" pointer-events="bounding-box"><path stroke-width="1.5" stroke="none" d="M247.601 100L247.601 91L262.601 80L262.601 90L247.601 100Z"/></g></g><g class="vf-stavenote" id="vf-auto16431"><g class="vf-notehead" id="vf-auto16435" pointer-events="bounding-box"><path stroke-width="1.5" stroke="none" d="M275.46 100L275.46 91L290.46 80L290.46 90L275.46 100Z"/></g></g><g class="vf-stem" id="vf-auto16390" pointer-events="bounding-box"><path stroke-width="1.5" fill="none" d="M81.197 90L81.197 124.25"/></g><g class="vf-stem" id="vf-auto16396" pointer-events="bounding-box"><path stroke-width="1.5" fill="none" d="M109.056 90L109.056 124.25"/></g><g class="vf-stem" id="vf-auto16402" pointer-events="bounding-box"><path stroke-width="1.5" fill="none" d="M136.915 90L136.915 124.25"/></g><g class="vf-stem" id="vf-auto16408" pointer-events="bounding-box"><path stroke-width="1.5" fill="none" d="M164.774 90L164.774 124.25"/></g><g class="vf-beam" id="vf-auto16437"><path stroke="none" d="M80.447 125L80.447 120L165.024 120L165.024 125Z"/></g><g class="vf-stem" id="vf-auto16414" pointer-events="bounding-box"><path stroke-width="1.5" fill="none" d="M192.633 90L192.633 124.25"/></g><g class="vf-stem" id="vf-auto16420" pointer-events="bounding-box"><path stroke-width="1.5" fill="none" d="M220.492 90L220.492 124.25"/></g><g class="vf-stem" id="vf-auto16426" pointer-events="bounding-box"><path stroke-width="1.5" fill="none" d="M248.351 90L248.351 124.25"/></g><g class="vf-stem" id="vf-auto16432" pointer-events="bounding-box"><path stroke-width="1.5" fill="none" d="M276.21 90L276.21 124.25"/></g><g class="vf-beam" id="vf-auto16438"><path stroke="none" d="M191.883 125L191.883 120L276.46 120L276.46 125Z"/></g></svg>