<svg xmlns="http://www.w3.org/2000/svg" stroke-width="0.3" stroke-dasharray="none" fill="black" stroke="black" font-family="Arial, sans-serif" font-size="10pt" font-weight="normal" font-style="normal" width="675" height="195" viewBox="0 0 675 195" style="width: 675px; height: 195px; border: none;"><g class="vf-stave" id="vf-auto5207" stroke-width="1" fill="#999999" stroke="#999999"><path fill="none" d="M10 70L135 70"/><path fill="none" d="M10 80L135 80"/><path fill="none" d="M10 90L135 90"/><path fill="none" d="M10 100L135 100"/><path fill="none" d="M10 110L135 110"/></g><g class="vf-stavebarline" id="vf-auto5208"><rect x="10" y="69.5" width="1" height="41" stroke="none"/></g><g class="vf-stavebarline" id="vf-auto5209"/><g class="vf-stavenote" id="vf-auto5178"><path stroke-width="1.4" fill="none" stroke="#444" d="M24 120L41.934 120"/><path stroke-width="1.4" fill="none" stroke="#444" d="M24 130L41.934 130"/><g class="vf-stem" id="vf-auto5179" pointer-events="bounding-box"><path stroke-width="1.5" fill="none" d="M38.184 128L38.184 90"/></g><g class="vf-notehead" id="vf-auto5181" pointer-events="bounding-box"><path stroke="none" d="M30.931 135.054C34.525 135.054,38.934 131.741,38.934 128.315C38.934 126.237,37.305 124.946,35.003 124.946C30.566 124.946,27 128.231,27 131.685C27 133.791,28.741 135.054,30.931 135.054"/><path stroke="none" d="M33.049 159.48C33.377 159.48,33.651 159.234,33.733 158.906L37.919 140.821L37.919 140.684C37.919 140.356,37.7 140.082,37.345 140L37.208 140C36.879 140,36.606 140.192,36.524 140.52L33.022 155.677L29.547 140.52C29.438 140.192,29.164 140,28.836 140L28.699 140C28.371 140.082,28.124 140.356,28.124 140.629C28.124 140.711,28.124 140.766,28.179 140.821L32.31 158.906C32.392 159.234,32.666 159.48,33.049 159.48"/></g></g><g class="vf-stavenote" id="vf-auto5182"><g class="vf-stem" id="vf-auto5183" pointer-events="bounding-box"><path stroke-width="1.5" fill="none" d="M64.767 93L64.767 60"/></g><g class="vf-notehead" id="vf-auto5185" pointer-events="bounding-box"><path stroke="none" d="M57.514 100.054C61.109 100.054,65.517 96.741,65.517 93.315C65.517 91.237,63.888 89.946,61.586 89.946C57.149 89.946,53.583 93.231,53.583 96.685C53.583 98.791,55.324 100.054,57.514 100.054"/><path stroke="none" d="M59.632 134.48C59.961 134.48,60.234 134.234,60.316 133.906L64.502 115.821L64.502 115.684C64.502 115.356,64.283 115.082,63.928 115L63.791 115C63.463 115,63.189 115.192,63.107 115.52L59.605 130.677L56.13 115.52C56.021 115.192,55.747 115,55.419 115L55.282 115C54.954 115.082,54.707 115.356,54.707 115.629C54.707 115.711,54.707 115.766,54.762 115.821L58.893 133.906C58.976 134.234,59.249 134.48,59.632 134.48"/></g></g><g class="vf-stavenote" id="vf-auto5186"><path stroke-width="1.4" fill="none" stroke="#444" d="M77.166 120L95.1 120"/><g class="vf-stem" id="vf-auto5187" pointer-events="bounding-box"><path stroke-width="1.5" fill="none" d="M91.35 118L91.35 85"/></g><g class="vf-notehead" id="vf-auto5189" pointer-events="bounding-box"><path stroke="none" d="M84.097 125.054C87.692 125.054,92.1 121.741,92.1 118.315C92.1 116.237,90.472 114.946,88.169 114.946C83.732 114.946,80.166 118.231,80.166 121.685C80.166 123.791,81.907 125.054,84.097 125.054"/><path stroke="none" d="M86.215 65C86.544 65,86.817 64.754,86.899 64.425L91.085 46.34L91.085 46.204C91.085 45.875,90.867 45.602,90.511 45.52L90.374 45.52C90.046 45.52,89.772 45.711,89.69 46.04L86.188 61.197L82.713 46.04C82.604 45.711,82.33 45.52,82.002 45.52L81.865 45.52C81.537 45.602,81.291 45.875,81.291 46.149C81.291 46.231,81.291 46.286,81.345 46.34L85.477 64.425C85.559 64.754,85.832 65,86.215 65"/></g></g><g class="vf-stavenote" id="vf-auto5190"><g class="vf-stem" id="vf-auto5191" pointer-events="bounding-box"><path stroke-width="1.5" fill="none" d="M117.933 93L117.933 60"/></g><g class="vf-notehead" id="vf-auto5193" pointer-events="bounding-box"><path stroke="none" d="M110.681 100.054C114.275 100.054,118.683 96.741,118.683 93.315C118.683 91.237,117.055 89.946,114.752 89.946C110.316 89.946,106.749 93.231,106.749 96.685C106.749 98.791,108.49 100.054,110.681 100.054"/><path stroke="none" d="M112.798 55C113.127 55,113.4 54.754,113.482 54.425L117.669 36.34L117.669 36.204C117.669 35.875,117.45 35.602,117.094 35.52L116.957 35.52C116.629 35.52,116.355 35.711,116.273 36.04L112.771 51.197L109.296 36.04C109.187 35.711,108.913 35.52,108.585 35.52L108.448 35.52C108.12 35.602,107.874 35.875,107.874 36.149C107.874 36.231,107.874 36.286,107.928 36.34L112.06 54.425C112.142 54.754,112.415 55,112.798 55"/></g></g><g class="vf-stave" id="vf-auto5239" stroke-width="1" fill="#999999" stroke="#999999"><path fill="none" d="M135 70L260 70"/><path fill="none" d="M135 80L260 80"/><path fill="none" d="M135 90L260 90"/><path fill="none" d="M135 100L260 100"/><path fill="none" d="M135 110L260 110"/></g><g class="vf-stavebarline" id="vf-auto5240"><rect x="135" y="69.5" width="1" height="41" stroke="none"/></g><g class="vf-stavebarline" id="vf-auto5241"><rect x="257" y="69.5" width="1" height="41" stroke="none"/><rect x="260" y="69.5" width="1" height="41" stroke="none"/></g><g class="vf-stavenote" id="vf-auto5210"><g class="vf-stem" id="vf-auto5211" pointer-events="bounding-box"><path stroke-width="1.5" fill="none" d="M152.75 87L152.75 120"/></g><g class="vf-notehead" id="vf-auto5213" pointer-events="bounding-box"><path stroke="none" d="M155.931 90.054C159.525 90.054,163.934 86.741,163.934 83.315C163.934 81.237,162.305 79.946,160.003 79.946C155.566 79.946,152 83.231,152 86.685C152 88.791,153.741 90.054,155.931 90.054"/><path stroke="none" d="M158.049 65C158.377 65,158.651 64.754,158.733 64.425L162.919 46.34L162.919 46.204C162.919 45.875,162.7 45.602,162.345 45.52L162.208 45.52C161.879 45.52,161.606 45.711,161.524 46.04L158.022 61.197L154.547 46.04C154.438 45.711,154.164 45.52,153.836 45.52L153.699 45.52C153.371 45.602,153.124 45.875,153.124 46.149C153.124 46.231,153.124 46.286,153.179 46.34L157.31 64.425C157.392 64.754,157.666 65,158.049 65"/></g></g><g class="vf-stavenote" id="vf-auto5214"><path stroke-width="1.4" fill="none" stroke="#444" d="M175.583 60L193.517 60"/><g class="vf-stem" id="vf-auto5215" pointer-events="bounding-box"><path stroke-width="1.5" fill="none" d="M179.333 62L179.333 95"/></g><g class="vf-notehead" id="vf-auto5217" pointer-events="bounding-box"><path stroke="none" d="M182.514 65.054C186.109 65.054,190.517 61.741,190.517 58.315C190.517 56.237,188.888 54.946,186.586 54.946C182.149 54.946,178.583 58.231,178.583 61.685C178.583 63.791,180.324 65.054,182.514 65.054"/><path stroke="none" d="M184.632 50C184.961 50,185.234 49.754,185.316 49.425L189.502 31.34L189.502 31.204C189.502 30.875,189.283 30.602,188.928 30.52L188.791 30.52C188.463 30.52,188.189 30.711,188.107 31.04L184.605 46.197L181.13 31.04C181.021 30.711,180.747 30.52,180.419 30.52L180.282 30.52C179.954 30.602,179.707 30.875,179.707 31.149C179.707 31.231,179.707 31.286,179.762 31.34L183.893 49.425C183.976 49.754,184.249 50,184.632 50"/></g></g><g class="vf-stavenote" id="vf-auto5218"><g class="vf-stem" id="vf-auto5219" pointer-events="bounding-box"><path stroke-width="1.5" fill="none" d="M205.916 87L205.916 120"/></g><g class="vf-notehead" id="vf-auto5221" pointer-events="bounding-box"><path stroke="none" d="M209.097 90.054C212.692 90.054,217.1 86.741,217.1 83.315C217.1 81.237,215.472 79.946,213.169 79.946C208.732 79.946,205.166 83.231,205.166 86.685C205.166 88.791,206.907 90.054,209.097 90.054"/><path stroke="none" d="M211.215 144.48C211.544 144.48,211.817 144.234,211.899 143.906L216.085 125.821L216.085 125.684C216.085 125.356,215.867 125.082,215.511 125L215.374 125C215.046 125,214.772 125.192,214.69 125.52L211.188 140.677L207.713 125.52C207.604 125.192,207.33 125,207.002 125L206.865 125C206.537 125.082,206.291 125.356,206.291 125.629C206.291 125.711,206.291 125.766,206.345 125.821L210.477 143.906C210.559 144.234,210.832 144.48,211.215 144.48"/></g></g><g class="vf-stavenote" id="vf-auto5222"><path stroke-width="1.4" fill="none" stroke="#444" d="M228.749 60L246.683 60"/><g class="vf-stem" id="vf-auto5223" pointer-events="bounding-box"><path stroke-width="1.5" fill="none" d="M232.499 62L232.499 95"/></g><g class="vf-notehead" id="vf-auto5225" pointer-events="bounding-box"><path stroke="none" d="M235.681 65.054C239.275 65.054,243.683 61.741,243.683 58.315C243.683 56.237,242.055 54.946,239.752 54.946C235.316 54.946,231.749 58.231,231.749 61.685C231.749 63.791,233.49 65.054,235.681 65.054"/><path stroke="none" d="M237.798 134.48C238.127 134.48,238.4 134.234,238.482 133.906L242.669 115.821L242.669 115.684C242.669 115.356,242.45 115.082,242.094 115L241.957 115C241.629 115,241.355 115.192,241.273 115.52L237.771 130.677L234.296 115.52C234.187 115.192,233.913 115,233.585 115L233.448 115C233.12 115.082,232.874 115.356,232.874 115.629C232.874 115.711,232.874 115.766,232.928 115.821L237.06 133.906C237.142 134.234,237.415 134.48,237.798 134.48"/></g></g><g class="vf-stave" id="vf-auto5271" stroke-width="1" fill="#999999" stroke="#999999"><path fill="none" d="M260 70L385 70"/><path fill="none" d="M260 80L385 80"/><path fill="none" d="M260 90L385 90"/><path fill="none" d="M260 100L385 100"/><path fill="none" d="M260 110L385 110"/></g><g class="vf-stavebarline" id="vf-auto5272"><rect x="260" y="69.5" width="1" height="41" stroke="none"/></g><g class="vf-stavebarline" id="vf-auto5273"/><g class="vf-stavenote" id="vf-auto5242"><path stroke-width="1.4" fill="none" stroke="#444" d="M274.175 120L292.109 120"/><g class="vf-stem" id="vf-auto5243" pointer-events="bounding-box"><path stroke-width="1.5" fill="none" d="M288.359 118L288.359 85"/></g><g class="vf-notehead" id="vf-auto5245" pointer-events="bounding-box"><path stroke="none" d="M281.107 125.054C284.701 125.054,289.109 121.741,289.109 118.315C289.109 116.237,287.481 114.946,285.178 114.946C280.741 114.946,277.175 118.231,277.175 121.685C277.175 123.791,278.916 125.054,281.107 125.054"/><path stroke="none" d="M278.012 130C277.465 130,277 130.465,277 131.04L277 142.066C277 142.339,277.246 142.531,277.465 142.531L278.012 142.531C278.259 142.531,278.505 142.339,278.505 142.066L278.505 135.609C278.505 135.171,280.83 134.925,283.156 134.925C285.482 134.925,287.807 135.171,287.807 135.609L287.807 142.066C287.807 142.339,288.026 142.531,288.3 142.531L288.82 142.531C289.066 142.531,289.285 142.339,289.285 142.066L289.285 131.04C289.285 130.465,288.82 130,288.272 130"/></g></g><g class="vf-stavenote" id="vf-auto5246"><g class="vf-stem" id="vf-auto5247" pointer-events="bounding-box"><path stroke-width="1.5" fill="none" d="M315.458 83L315.458 50"/></g><g class="vf-notehead" id="vf-auto5249" pointer-events="bounding-box"><path stroke="none" d="M308.205 90.054C311.799 90.054,316.208 86.741,316.208 83.315C316.208 81.237,314.579 79.946,312.277 79.946C307.84 79.946,304.274 83.231,304.274 86.685C304.274 88.791,306.015 90.054,308.205 90.054"/><path stroke="none" d="M305.111 115C304.564 115,304.099 115.465,304.099 116.04L304.099 127.066C304.099 127.339,304.345 127.531,304.564 127.531L305.111 127.531C305.357 127.531,305.603 127.339,305.603 127.066L305.603 120.609C305.603 120.171,307.929 119.925,310.255 119.925C312.58 119.925,314.906 120.171,314.906 120.609L314.906 127.066C314.906 127.339,315.125 127.531,315.398 127.531L315.918 127.531C316.164 127.531,316.383 127.339,316.383 127.066L316.383 116.04C316.383 115.465,315.918 115,315.371 115"/></g></g><g class="vf-stavenote" id="vf-auto5250"><path stroke-width="1.4" fill="none" stroke="#444" d="M328.372 120L346.306 120"/><g class="vf-stem" id="vf-auto5251" pointer-events="bounding-box"><path stroke-width="1.5" fill="none" d="M342.556 118L342.556 85"/></g><g class="vf-notehead" id="vf-auto5253" pointer-events="bounding-box"><path stroke="none" d="M335.304 125.054C338.898 125.054,343.306 121.741,343.306 118.315C343.306 116.237,341.678 114.946,339.375 114.946C334.939 114.946,331.372 118.231,331.372 121.685C331.372 123.791,333.113 125.054,335.304 125.054"/><path stroke="none" d="M332.209 52.469C331.662 52.469,331.197 52.934,331.197 53.509L331.197 64.535C331.197 64.808,331.443 65,331.662 65L332.209 65C332.456 65,332.702 64.808,332.702 64.535L332.702 58.078C332.702 57.64,335.028 57.394,337.353 57.394C339.679 57.394,342.004 57.64,342.004 58.078L342.004 64.535C342.004 64.808,342.223 65,342.497 65L343.017 65C343.263 65,343.482 64.808,343.482 64.535L343.482 53.509C343.482 52.934,343.017 52.469,342.469 52.469"/></g></g><g class="vf-stavenote" id="vf-auto5254"><g class="vf-stem" id="vf-auto5255" pointer-events="bounding-box"><path stroke-width="1.5" fill="none" d="M369.655 93L369.655 60"/></g><g class="vf-notehead" id="vf-auto5257" pointer-events="bounding-box"><path stroke="none" d="M362.402 100.054C365.996 100.054,370.405 96.741,370.405 93.315C370.405 91.237,368.776 89.946,366.474 89.946C362.037 89.946,358.471 93.231,358.471 96.685C358.471 98.791,360.212 100.054,362.402 100.054"/><path stroke="none" d="M359.308 42.469C358.761 42.469,358.296 42.934,358.296 43.509L358.296 54.535C358.296 54.808,358.542 55,358.761 55L359.308 55C359.554 55,359.8 54.808,359.8 54.535L359.8 48.078C359.8 47.64,362.126 47.394,364.452 47.394C366.777 47.394,369.103 47.64,369.103 48.078L369.103 54.535C369.103 54.808,369.322 55,369.595 55L370.115 55C370.361 55,370.58 54.808,370.58 54.535L370.58 43.509C370.58 42.934,370.115 42.469,369.568 42.469"/></g></g><g class="vf-stave" id="vf-auto5303" stroke-width="1" fill="#999999" stroke="#999999"><path fill="none" d="M385 70L510 70"/><path fill="none" d="M385 80L510 80"/><path fill="none" d="M385 90L510 90"/><path fill="none" d="M385 100L510 100"/><path fill="none" d="M385 110L510 110"/></g><g class="vf-stavebarline" id="vf-auto5304"><rect x="385" y="69.5" width="1" height="41" stroke="none"/></g><g class="vf-stavebarline" id="vf-auto5305"><rect x="505" y="69.5" width="1" height="41" stroke="none"/><rect x="508" y="69.5" width="3" height="41" stroke="none"/></g><g class="vf-stavenote" id="vf-auto5274"><g class="vf-stem" id="vf-auto5275" pointer-events="bounding-box"><path stroke-width="1.5" fill="none" d="M402.925 97L402.925 130"/></g><g class="vf-notehead" id="vf-auto5277" pointer-events="bounding-box"><path stroke="none" d="M406.107 100.054C409.701 100.054,414.109 96.741,414.109 93.315C414.109 91.237,412.481 89.946,410.178 89.946C405.741 89.946,402.175 93.231,402.175 96.685C402.175 98.791,403.916 100.054,406.107 100.054"/><path stroke="none" d="M403.012 52.469C402.465 52.469,402 52.934,402 53.509L402 64.535C402 64.808,402.246 65,402.465 65L403.012 65C403.259 65,403.505 64.808,403.505 64.535L403.505 58.078C403.505 57.64,405.83 57.394,408.156 57.394C410.482 57.394,412.807 57.64,412.807 58.078L412.807 64.535C412.807 64.808,413.026 65,413.3 65L413.82 65C414.066 65,414.285 64.808,414.285 64.535L414.285 53.509C414.285 52.934,413.82 52.469,413.272 52.469"/></g></g><g class="vf-stavenote" id="vf-auto5278"><path stroke-width="1.4" fill="none" stroke="#444" d="M426.274 60L444.208 60"/><g class="vf-stem" id="vf-auto5279" pointer-events="bounding-box"><path stroke-width="1.5" fill="none" d="M430.024 62L430.024 95"/></g><g class="vf-notehead" id="vf-auto5281" pointer-events="bounding-box"><path stroke="none" d="M433.205 65.054C436.799 65.054,441.208 61.741,441.208 58.315C441.208 56.237,439.579 54.946,437.277 54.946C432.84 54.946,429.274 58.231,429.274 61.685C429.274 63.791,431.015 65.054,433.205 65.054"/><path stroke="none" d="M430.111 37.469C429.564 37.469,429.099 37.934,429.099 38.509L429.099 49.535C429.099 49.808,429.345 50,429.564 50L430.111 50C430.357 50,430.603 49.808,430.603 49.535L430.603 43.078C430.603 42.64,432.929 42.394,435.255 42.394C437.58 42.394,439.906 42.64,439.906 43.078L439.906 49.535C439.906 49.808,440.125 50,440.398 50L440.918 50C441.164 50,441.383 49.808,441.383 49.535L441.383 38.509C441.383 37.934,440.918 37.469,440.371 37.469"/></g></g><g class="vf-stavenote" id="vf-auto5282"><g class="vf-stem" id="vf-auto5283" pointer-events="bounding-box"><path stroke-width="1.5" fill="none" d="M457.122 87L457.122 120"/></g><g class="vf-notehead" id="vf-auto5285" pointer-events="bounding-box"><path stroke="none" d="M460.304 90.054C463.898 90.054,468.306 86.741,468.306 83.315C468.306 81.237,466.678 79.946,464.375 79.946C459.939 79.946,456.372 83.231,456.372 86.685C456.372 88.791,458.113 90.054,460.304 90.054"/><path stroke="none" d="M457.209 125C456.662 125,456.197 125.465,456.197 126.04L456.197 137.066C456.197 137.339,456.443 137.531,456.662 137.531L457.209 137.531C457.456 137.531,457.702 137.339,457.702 137.066L457.702 130.609C457.702 130.171,460.028 129.925,462.353 129.925C464.679 129.925,467.004 130.171,467.004 130.609L467.004 137.066C467.004 137.339,467.223 137.531,467.497 137.531L468.017 137.531C468.263 137.531,468.482 137.339,468.482 137.066L468.482 126.04C468.482 125.465,468.017 125,467.469 125"/></g></g><g class="vf-stavenote" id="vf-auto5286"><path stroke-width="1.4" fill="none" stroke="#444" d="M480.471 60L498.405 60"/><g class="vf-stem" id="vf-auto5287" pointer-events="bounding-box"><path stroke-width="1.5" fill="none" d="M484.221 62L484.221 95"/></g><g class="vf-notehead" id="vf-auto5289" pointer-events="bounding-box"><path stroke="none" d="M487.402 65.054C490.996 65.054,495.405 61.741,495.405 58.315C495.405 56.237,493.776 54.946,491.474 54.946C487.037 54.946,483.471 58.231,483.471 61.685C483.471 63.791,485.212 65.054,487.402 65.054"/><path stroke="none" d="M484.308 115C483.761 115,483.296 115.465,483.296 116.04L483.296 127.066C483.296 127.339,483.542 127.531,483.761 127.531L484.308 127.531C484.554 127.531,484.8 127.339,484.8 127.066L484.8 120.609C484.8 120.171,487.126 119.925,489.452 119.925C491.777 119.925,494.103 120.171,494.103 120.609L494.103 127.066C494.103 127.339,494.322 127.531,494.595 127.531L495.115 127.531C495.361 127.531,495.58 127.339,495.58 127.066L495.58 116.04C495.58 115.465,495.115 115,494.568 115"/></g></g></svg>