<svg xmlns="http://www.w3.org/2000/svg" stroke-width="0.3" stroke-dasharray="none" fill="black" stroke="black" font-family="Arial, sans-serif" font-size="10pt" font-weight="normal" font-style="normal" width="450" height="140" viewBox="0 0 450 140" style="width: 450px; height: 140px; border: none;"><g class="vf-stave" id="vf-auto6595" stroke-width="1" fill="#999999" stroke="#999999"><path fill="none" d="M0 40L440 40"/><path fill="none" d="M0 50L440 50"/><path fill="none" d="M0 60L440 60"/><path fill="none" d="M0 70L440 70"/><path fill="none" d="M0 80L440 80"/></g><g class="vf-stavebarline" id="vf-auto6596"><rect y="39.5" width="1" height="41" stroke="none"/></g><g class="vf-stavebarline" id="vf-auto6597"><rect x="440" y="39.5" width="1" height="41" stroke="none"/></g><g class="vf-stavenote" id="vf-auto6598"><g class="vf-notehead" id="vf-auto6602" pointer-events="bounding-box"><path stroke="none" d="M23.645 91.543C23.926 91.599,24.178 91.627,24.459 91.627C28.334 91.627,34.119 86.348,34.006 82.08C33.894 81.041,33.922 79.609,31.816 78.766C31.227 78.485,30.581 78.373,29.879 78.373C25.554 78.373,20.865 83.343,20.528 86.657C20.528 86.909,20.5 87.134,20.5 87.387C20.5 89.409,21.399 91.037,23.645 91.543"/></g></g><g class="vf-stavenote" id="vf-auto6604"><path stroke-width="1.4" fill="none" stroke="#444" d="M42.62 90L62.128 90"/><g class="vf-notehead" id="vf-auto6608" pointer-events="bounding-box"><path stroke="none" d="M49.265 101.543C49.546 101.599,49.799 101.627,50.08 101.627C53.955 101.627,59.739 96.348,59.627 92.08C59.514 91.041,59.542 89.609,57.436 88.766C56.847 88.485,56.201 88.373,55.499 88.373C51.175 88.373,46.485 93.343,46.148 96.657C46.148 96.909,46.12 97.134,46.12 97.387C46.12 99.409,47.019 101.037,49.265 101.543"/></g></g><g class="vf-stavenote" id="vf-auto6610"><path stroke-width="1.4" fill="none" stroke="#444" d="M64.557 90L84.065 90"/><g class="vf-notehead" id="vf-auto6614" pointer-events="bounding-box"><path stroke="none" d="M71.202 96.543C71.483 96.599,71.735 96.627,72.016 96.627C75.891 96.627,81.676 91.348,81.563 87.08C81.451 86.041,81.479 84.609,79.373 83.766C78.783 83.485,78.137 83.373,77.435 83.373C73.111 83.373,68.422 88.343,68.085 91.657C68.085 91.909,68.057 92.134,68.057 92.387C68.057 94.409,68.955 96.037,71.202 96.543"/><path stroke="none" d="M88.065 85 A2 2 0 0 0 84.065 85 A2 2 0 0 0 88.065 85"/></g></g><g class="vf-stavenote" id="vf-auto6617"><g class="vf-notehead" id="vf-auto6621" pointer-events="bounding-box"><path stroke="none" d="M95.53 91.543C95.811 91.599,96.064 91.627,96.344 91.627C100.219 91.627,106.004 86.348,105.892 82.08C105.779 81.041,105.807 79.609,103.701 78.766C103.112 78.485,102.466 78.373,101.764 78.373C97.439 78.373,92.75 83.343,92.413 86.657C92.413 86.909,92.385 87.134,92.385 87.387C92.385 89.409,93.284 91.037,95.53 91.543"/><path stroke="none" d="M112.393 85 A2 2 0 0 0 108.393 85 A2 2 0 0 0 112.393 85"/></g></g><g class="vf-stavenote" id="vf-auto6624"><g class="vf-notehead" id="vf-auto6628" pointer-events="bounding-box"><path stroke="none" d="M119.858 86.543C120.139 86.599,120.392 86.627,120.673 86.627C124.548 86.627,130.332 81.348,130.22 77.08C130.107 76.041,130.136 74.609,128.03 73.766C127.44 73.485,126.794 73.373,126.092 73.373C121.768 73.373,117.078 78.343,116.741 81.657C116.741 81.909,116.713 82.134,116.713 82.387C116.713 84.409,117.612 86.037,119.858 86.543"/></g></g><g class="vf-stavenote" id="vf-auto6630"><path stroke-width="1.4" fill="none" stroke="#444" d="M138.834 90L158.342 90"/><g class="vf-notehead" id="vf-auto6634" pointer-events="bounding-box"><path stroke="none" d="M145.479 96.543C145.759 96.599,146.012 96.627,146.293 96.627C150.168 96.627,155.952 91.348,155.84 87.08C155.728 86.041,155.756 84.609,153.65 83.766C153.06 83.485,152.414 83.373,151.712 83.373C147.388 83.373,142.699 88.343,142.362 91.657C142.362 91.909,142.334 92.134,142.334 92.387C142.334 94.409,143.232 96.037,145.479 96.543"/></g></g><g class="vf-stavenote" id="vf-auto6636"><path stroke-width="1.4" fill="none" stroke="#444" d="M160.21 90L179.718 90"/><g class="vf-notehead" id="vf-auto6640" pointer-events="bounding-box"><path stroke="none" d="M166.855 96.543C167.136 96.599,167.388 96.627,167.669 96.627C171.544 96.627,177.329 91.348,177.216 87.08C177.104 86.041,177.132 84.609,175.026 83.766C174.436 83.485,173.791 83.373,173.089 83.373C168.764 83.373,164.075 88.343,163.738 91.657C163.738 91.909,163.71 92.134,163.71 92.387C163.71 94.409,164.608 96.037,166.855 96.543"/></g></g><g class="vf-stavenote" id="vf-auto6642"><path stroke-width="1.4" fill="none" stroke="#444" d="M182.146 90L201.654 90"/><path stroke-width="1.4" fill="none" stroke="#444" d="M182.146 100L201.654 100"/><g class="vf-notehead" id="vf-auto6646" pointer-events="bounding-box"><path stroke="none" d="M188.791 106.543C189.072 106.599,189.325 106.627,189.606 106.627C193.481 106.627,199.265 101.348,199.153 97.08C199.04 96.041,199.069 94.609,196.963 93.766C196.373 93.485,195.727 93.373,195.025 93.373C190.701 93.373,186.011 98.343,185.674 101.657C185.674 101.909,185.646 102.134,185.646 102.387C185.646 104.409,186.545 106.037,188.791 106.543"/><path stroke="none" d="M205.654 95 A2 2 0 0 0 201.654 95 A2 2 0 0 0 205.654 95"/></g></g><g class="vf-stavenote" id="vf-auto6649"><path stroke-width="1.4" fill="none" stroke="#444" d="M210.56 90L230.068 90"/><g class="vf-notehead" id="vf-auto6653" pointer-events="bounding-box"><path stroke="none" d="M217.205 101.543C217.486 101.599,217.738 101.627,218.019 101.627C221.894 101.627,227.679 96.348,227.566 92.08C227.454 91.041,227.482 89.609,225.376 88.766C224.787 88.485,224.141 88.373,223.439 88.373C219.114 88.373,214.425 93.343,214.088 96.657C214.088 96.909,214.06 97.134,214.06 97.387C214.06 99.409,214.959 101.037,217.205 101.543"/><path stroke="none" d="M234.068 95 A2 2 0 0 0 230.068 95 A2 2 0 0 0 234.068 95"/></g></g><g class="vf-stavenote" id="vf-auto6656"><path stroke-width="1.4" fill="none" stroke="#444" d="M233.071 90L252.58 90"/><g class="vf-notehead" id="vf-auto6660" pointer-events="bounding-box"><path stroke="none" d="M239.716 96.543C239.997 96.599,240.25 96.627,240.531 96.627C244.406 96.627,250.19 91.348,250.078 87.08C249.966 86.041,249.994 84.609,247.888 83.766C247.298 83.485,246.652 83.373,245.95 83.373C241.626 83.373,236.936 88.343,236.6 91.657C236.6 91.909,236.571 92.134,236.571 92.387C236.571 94.409,237.47 96.037,239.716 96.543"/></g></g><g class="vf-stavenote" id="vf-auto6662"><g class="vf-notehead" id="vf-auto6666" pointer-events="bounding-box"><path stroke="none" d="M265.337 86.543C265.617 86.599,265.87 86.627,266.151 86.627C270.026 86.627,275.81 81.348,275.698 77.08C275.586 76.041,275.614 74.609,273.508 73.766C272.918 73.485,272.272 73.373,271.57 73.373C267.246 73.373,262.557 78.343,262.22 81.657C262.22 81.909,262.192 82.134,262.192 82.387C262.192 84.409,263.09 86.037,265.337 86.543"/></g></g><g class="vf-stavenote" id="vf-auto6668"><path stroke-width="1.4" fill="none" stroke="#444" d="M280.068 90L299.576 90"/><g class="vf-notehead" id="vf-auto6672" pointer-events="bounding-box"><path stroke="none" d="M286.713 101.543C286.994 101.599,287.246 101.627,287.527 101.627C291.402 101.627,297.187 96.348,297.074 92.08C296.962 91.041,296.99 89.609,294.884 88.766C294.294 88.485,293.649 88.373,292.947 88.373C288.622 88.373,283.933 93.343,283.596 96.657C283.596 96.909,283.568 97.134,283.568 97.387C283.568 99.409,284.466 101.037,286.713 101.543"/><path stroke="none" d="M303.576 95 A2 2 0 0 0 299.576 95 A2 2 0 0 0 303.576 95"/></g></g><g class="vf-stavenote" id="vf-auto6675"><path stroke-width="1.4" fill="none" stroke="#444" d="M304.396 90L323.904 90"/><g class="vf-notehead" id="vf-auto6679" pointer-events="bounding-box"><path stroke="none" d="M311.041 101.543C311.322 101.599,311.575 101.627,311.855 101.627C315.731 101.627,321.515 96.348,321.403 92.08C321.29 91.041,321.318 89.609,319.212 88.766C318.623 88.485,317.977 88.373,317.275 88.373C312.951 88.373,308.261 93.343,307.924 96.657C307.924 96.909,307.896 97.134,307.896 97.387C307.896 99.409,308.795 101.037,311.041 101.543"/></g></g><g class="vf-stavenote" id="vf-auto6681"><g class="vf-notehead" id="vf-auto6685" pointer-events="bounding-box"><path stroke="none" d="M332.417 81.543C332.698 81.599,332.951 81.627,333.232 81.627C337.107 81.627,342.891 76.348,342.779 72.08C342.667 71.041,342.695 69.609,340.589 68.766C339.999 68.485,339.353 68.373,338.651 68.373C334.327 68.373,329.638 73.343,329.301 76.657C329.301 76.909,329.272 77.134,329.272 77.387C329.272 79.409,330.171 81.037,332.417 81.543"/></g></g><g class="vf-stavenote" id="vf-auto6687"><g class="vf-notehead" id="vf-auto6691" pointer-events="bounding-box"><path stroke="none" d="M358.038 86.543C358.318 86.599,358.571 86.627,358.852 86.627C362.727 86.627,368.512 81.348,368.399 77.08C368.287 76.041,368.315 74.609,366.209 73.766C365.619 73.485,364.973 73.373,364.271 73.373C359.947 73.373,355.258 78.343,354.921 81.657C354.921 81.909,354.893 82.134,354.893 82.387C354.893 84.409,355.791 86.037,358.038 86.543"/></g></g><g class="vf-stavenote" id="vf-auto6693"><g class="vf-notehead" id="vf-auto6697" pointer-events="bounding-box"><path stroke="none" d="M383.658 76.543C383.939 76.599,384.191 76.627,384.472 76.627C388.347 76.627,394.132 71.348,394.019 67.08C393.907 66.041,393.935 64.609,391.829 63.766C391.24 63.485,390.594 63.373,389.892 63.373C385.567 63.373,380.878 68.343,380.541 71.657C380.541 71.909,380.513 72.134,380.513 72.387C380.513 74.409,381.412 76.037,383.658 76.543"/></g></g><g class="vf-stavenote" id="vf-auto6699"><g class="vf-notehead" id="vf-auto6703" pointer-events="bounding-box"><path stroke="none" d="M405.034 86.543C405.315 86.599,405.568 86.627,405.849 86.627C409.724 86.627,415.508 81.348,415.396 77.08C415.283 76.041,415.311 74.609,413.205 73.766C412.616 73.485,411.97 73.373,411.268 73.373C406.944 73.373,402.254 78.343,401.917 81.657C401.917 81.909,401.889 82.134,401.889 82.387C401.889 84.409,402.788 86.037,405.034 86.543"/></g></g><g class="vf-stem" id="vf-auto6599" pointer-events="bounding-box"><path stroke-width="1.5" fill="none" d="M32.758 83L32.758 50.75"/></g><g class="vf-stem" id="vf-auto6605" pointer-events="bounding-box"><path stroke-width="1.5" fill="none" d="M58.378 93L58.378 52.031"/></g><g class="vf-stem" id="vf-auto6611" pointer-events="bounding-box"><path stroke-width="1.5" fill="none" d="M80.315 88L80.315 53.128"/></g><g class="vf-beam" id="vf-auto6706"><path stroke="none" d="M32.008 49.963L32.008 54.963L80.565 57.34L80.565 52.34Z"/><path stroke="none" d="M57.628 58.744L57.628 63.744L80.565 64.84L80.565 59.84Z"/><path stroke="none" d="M57.628 66.244L57.628 71.244L68.628 71.744L68.628 66.744Z"/></g><g class="vf-stem" id="vf-auto6618" pointer-events="bounding-box"><path stroke-width="1.5" fill="none" d="M104.643 83L104.643 39.501"/></g><g class="vf-stem" id="vf-auto6625" pointer-events="bounding-box"><path stroke-width="1.5" fill="none" d="M128.971 78L128.971 40.109"/></g><g class="vf-stem" id="vf-auto6631" pointer-events="bounding-box"><path stroke-width="1.5" fill="none" d="M154.592 88L154.592 40.75"/></g><g class="vf-stem" id="vf-auto6637" pointer-events="bounding-box"><path stroke-width="1.5" fill="none" d="M175.968 88L175.968 41.284"/></g><g class="vf-stem" id="vf-auto6643" pointer-events="bounding-box"><path stroke-width="1.5" fill="none" d="M197.904 98L197.904 41.833"/></g><g class="vf-stem" id="vf-auto6650" pointer-events="bounding-box"><path stroke-width="1.5" fill="none" d="M226.318 93L226.318 42.543"/></g><g class="vf-beam" id="vf-auto6707"><path stroke="none" d="M103.893 38.733L103.893 43.733L226.568 46.774L226.568 41.774Z"/><path stroke="none" d="M103.893 46.233L103.893 51.233L114.893 51.483L114.893 46.483Z"/><path stroke="none" d="M153.842 47.481L153.842 52.481L176.218 53.016L176.218 48.016Z"/><path stroke="none" d="M225.568 49.274L225.568 54.274L216.568 54.024L216.568 49.024Z"/><path stroke="none" d="M153.842 54.981L153.842 59.981L176.218 60.516L176.218 55.516Z"/><path stroke="none" d="M225.568 56.774L225.568 61.774L216.568 61.524L216.568 56.524Z"/><path stroke="none" d="M153.842 62.481L153.842 67.481L164.842 67.731L164.842 62.731Z"/></g><g class="vf-stem" id="vf-auto6657" pointer-events="bounding-box"><path stroke-width="1.5" fill="none" d="M248.83 88L248.83 32.672"/></g><g class="vf-stem" id="vf-auto6663" pointer-events="bounding-box"><path stroke-width="1.5" fill="none" d="M274.45 78L274.45 30.75"/></g><g class="vf-stem" id="vf-auto6669" pointer-events="bounding-box"><path stroke-width="1.5" fill="none" d="M295.826 93L295.826 29.147"/></g><g class="vf-stem" id="vf-auto6676" pointer-events="bounding-box"><path stroke-width="1.5" fill="none" d="M320.154 93L320.154 27.322"/></g><g class="vf-beam" id="vf-auto6708"><path stroke="none" d="M248.08 31.978L248.08 36.978L320.404 31.628L320.404 26.628Z"/><path stroke="none" d="M273.7 37.556L273.7 42.556L320.404 39.128L320.404 34.128Z"/><path stroke="none" d="M273.7 45.056L273.7 50.056L284.7 49.306L284.7 44.306Z"/><path stroke="none" d="M319.404 41.628L319.404 46.628L310.404 47.378L310.404 42.378Z"/><path stroke="none" d="M273.7 52.556L273.7 57.556L284.7 56.806L284.7 51.806Z"/><path stroke="none" d="M319.404 49.128L319.404 54.128L310.404 54.878L310.404 49.878Z"/></g><g class="vf-stem" id="vf-auto6682" pointer-events="bounding-box"><path stroke-width="1.5" fill="none" d="M341.531 73L341.531 19.469"/></g><g class="vf-stem" id="vf-auto6688" pointer-events="bounding-box"><path stroke-width="1.5" fill="none" d="M367.151 78L367.151 20.109"/></g><g class="vf-stem" id="vf-auto6694" pointer-events="bounding-box"><path stroke-width="1.5" fill="none" d="M392.771 68L392.771 20.75"/></g><g class="vf-stem" id="vf-auto6700" pointer-events="bounding-box"><path stroke-width="1.5" fill="none" d="M414.147 78L414.147 21.284"/></g><g class="vf-beam" id="vf-auto6709"><path stroke="none" d="M340.781 18.7L340.781 23.7L414.397 25.516L414.397 20.516Z"/><path stroke="none" d="M392.021 27.481L392.021 32.481L383.021 32.231L383.021 27.231Z"/><path stroke="none" d="M392.021 34.981L392.021 39.981L383.021 39.731L383.021 34.731Z"/><path stroke="none" d="M392.021 42.481L392.021 47.481L383.021 47.231L383.021 42.231Z"/></g></svg>