<svg xmlns="http://www.w3.org/2000/svg" stroke-width="0.3" stroke-dasharray="none" fill="black" stroke="black" font-family="Arial, sans-serif" font-size="10pt" font-weight="normal" font-style="normal" width="300" height="140" viewBox="0 0 300 140" style="width: 300px; height: 140px; border: none;"><g class="vf-stave" id="vf-auto18209" stroke-width="1" fill="#999999" stroke="#999999"><path fill="none" d="M0 40L290 40"/><path fill="none" d="M0 50L290 50"/><path fill="none" d="M0 60L290 60"/><path fill="none" d="M0 70L290 70"/><path fill="none" d="M0 80L290 80"/></g><g class="vf-stavebarline" id="vf-auto18210"><rect y="39.5" width="1" height="41" stroke="none"/></g><g class="vf-stavebarline" id="vf-auto18211"><rect x="290" y="39.5" width="1" height="41" stroke="none"/></g><g class="vf-clef" id="vf-auto18239"><path stroke="none" d="M19.112 27.837C19.112 27.837,19.141 27.837,19.17 27.837C19.544 27.837,20.034 28.211,20.667 28.96C22.942 31.696,24.44 36.045,24.44 39.731C24.44 39.99,24.44 40.278,24.411 40.538C24.152 44.829,22.28 48.515,18.68 51.942C18.363 52.259,17.902 52.691,17.701 52.864L17.355 53.238L18.075 56.608C18.478 58.48,18.795 60.006,18.795 60.006C18.795 60.006,18.795 60.006,18.795 60.006C18.824 60.006,18.939 59.978,19.026 59.978C19.198 59.949,19.659 59.949,20.12 59.949C20.466 59.949,20.84 59.949,20.984 59.949C25.592 60.525,28.962 64.125,29.278 68.79C29.307 68.992,29.307 69.194,29.307 69.395C29.307 73.254,26.802 76.941,23.029 78.554C22.885 78.611,22.798 78.669,22.798 78.669C22.798 78.669,23 79.677,23.259 80.886C23.518 82.125,23.778 83.306,23.806 83.536C23.979 84.458,24.066 85.322,24.066 86.157C24.066 88.317,23.49 90.131,22.395 91.542C20.754 93.587,18.392 94.624,16.03 94.624C13.726 94.624,11.422 93.674,9.752 91.773C9.061 90.966,8.686 90.016,8.686 89.037C8.686 88.202,8.974 87.338,9.55 86.56C10.386 85.437,11.624 84.89,12.862 84.89C14.014 84.89,15.166 85.379,15.973 86.358C16.549 87.107,16.808 87.942,16.808 88.778C16.808 90.678,15.397 92.493,13.237 92.579L12.978 92.579L13.064 92.637C13.928 93.069,14.936 93.299,15.973 93.299C17.24 93.299,18.565 92.954,19.602 92.291C21.704 90.966,22.741 88.922,22.741 86.157C22.741 85.264,22.626 84.285,22.424 83.248C22.338 82.758,21.531 79.101,21.531 79.101C21.531 79.101,21.531 79.101,21.531 79.101C21.502 79.101,21.358 79.13,21.186 79.158C20.667 79.302,20.12 79.389,19.515 79.446C19.314 79.475,18.91 79.475,18.478 79.475C17.931 79.475,17.384 79.475,17.154 79.446C10.126 78.669,5 72.995,5 65.968C5 62.858,5.893 60.15,7.765 57.558C9.752 54.794,11.768 52.403,14.245 49.898L15.109 49.034L14.734 47.306C14.533 46.326,14.331 45.318,14.245 45.03C13.899 43.389,13.726 42.582,13.669 42.266C13.525 41.373,13.467 40.48,13.467 39.587C13.467 35.469,15.022 31.552,17.902 28.758C18.565 28.125,18.91 27.866,19.112 27.837M21.013 33.482C20.84 33.453,20.696 33.424,20.523 33.424C19.688 33.424,18.68 33.942,17.73 34.893C16.088 36.534,15.195 39.011,15.195 41.718C15.195 42.41,15.253 43.101,15.368 43.821C15.426 44.138,16.203 47.968,16.232 47.968C16.232 47.968,16.232 47.968,16.232 47.968C16.261 47.968,17.182 47.018,17.442 46.73C20.638 43.187,22.453 39.357,22.453 36.362C22.453 35.872,22.395 35.411,22.309 34.95C22.107 34.086,21.733 33.654,21.013 33.482M16.318 54.707C16.29 54.534,16.261 54.39,16.261 54.39C16.146 54.39,13.87 57.04,12.834 58.336C10.702 61.043,9.925 62.31,9.32 64.038C8.888 65.363,8.658 66.688,8.658 67.984C8.658 70.317,9.349 72.534,10.674 74.406C12.517 76.998,15.426 78.496,18.421 78.496C18.91 78.496,19.4 78.467,19.89 78.381C20.408 78.294,21.301 78.064,21.301 78.006C21.301 77.978,20.955 76.394,20.552 74.435C20.12 72.506,19.486 69.51,19.112 67.811C18.766 66.112,18.45 64.701,18.45 64.701C18.45 64.701,18.45 64.701,18.45 64.701C18.334 64.701,17.701 64.96,17.355 65.133C15.598 66.112,14.677 67.84,14.677 69.568C14.677 71.094,15.397 72.592,16.866 73.485C17.154 73.658,17.298 73.859,17.298 74.09C17.298 74.205,17.24 74.349,17.125 74.464C17.038 74.579,16.923 74.666,16.75 74.666C16.549 74.666,16.29 74.55,15.858 74.32C13.237 72.966,11.912 70.403,11.912 67.782C11.912 65.334,13.093 62.858,15.454 61.302C16.059 60.899,17.269 60.323,17.499 60.323C17.499 60.323,17.528 60.294,17.528 60.294C17.528 60.266,17.528 60.266,17.528 60.266C17.499 60.208,16.434 55.197,16.318 54.707M20.725 64.499C20.581 64.499,20.293 64.47,20.12 64.47L19.746 64.47L19.774 64.528C19.774 64.557,20.293 67.034,20.955 70.029C21.589 73.024,22.136 75.616,22.165 75.789C22.222 75.962,22.309 76.422,22.395 76.797L22.539 77.488L22.626 77.43C24.21 76.538,25.362 75.27,25.995 73.715C26.37 72.851,26.542 71.987,26.542 71.123C26.542 67.869,24.152 64.902,20.725 64.499"/></g><g class="vf-stavenote" id="vf-auto18212"><path stroke-width="1.4" fill="none" stroke="#444" d="M63.614 90L81.604 90"/><g class="vf-stem" id="vf-auto18213" pointer-events="bounding-box"><path stroke-width="1.5" fill="none" d="M67.364 66.5L67.364 125"/></g><g class="vf-notehead" id="vf-auto18222" pointer-events="bounding-box"><path stroke="none" d="M73.718 84.889C73.802 84.889,73.886 84.889,74.027 84.889C74.392 84.889,74.925 84.918,75.122 84.946C77.453 85.283,78.604 86.827,78.604 88.624C78.604 90.534,77.312 92.724,74.729 94.128C73.465 94.802,72.174 95.111,70.994 95.111C68.832 95.111,67.063 94.044,66.698 92.162C66.642 91.881,66.614 91.629,66.614 91.376C66.614 88.343,69.871 85.283,73.718 84.889M76.863 86.35C76.723 86.293,76.582 86.293,76.414 86.293C74.701 86.293,71.191 88.371,69.225 90.674C68.383 91.657,67.934 92.527,67.934 93.061C67.934 93.313,68.018 93.482,68.186 93.566C68.355 93.678,68.579 93.707,68.804 93.707C70.629 93.707,74.42 91.376,76.301 88.961C76.975 88.119,77.312 87.417,77.312 86.967C77.312 86.658,77.144 86.434,76.863 86.35"/><path stroke="none" d="M44.663 73.119C44.718 73.092,44.8 73.092,44.882 73.092C45.101 73.092,45.32 73.228,45.402 73.447C45.456 73.529,45.456 73.529,45.456 79.767L45.456 86.005L45.511 85.951C46.523 85.103,47.59 84.637,48.657 84.637C49.068 84.637,49.478 84.72,49.861 84.856C51.065 85.294,51.749 86.388,51.749 87.729C51.749 88.44,51.53 89.207,51.12 89.973C50.545 91.04,49.779 91.888,47.618 93.803C46.469 94.843,46.195 95.089,45.538 95.718C45.155 96.074,45.101 96.101,44.882 96.101C44.636 96.101,44.444 95.964,44.362 95.773L44.307 95.664L44.307 84.61L44.307 73.529L44.362 73.447C44.389 73.31,44.526 73.174,44.663 73.119M47.946 86.471C47.837 86.443,47.618 86.416,47.481 86.416C47.426 86.416,47.399 86.416,47.372 86.443C46.66 86.525,46.031 86.963,45.566 87.647L45.456 87.839L45.456 90.985L45.456 94.159L45.538 94.049C47.536 91.86,48.822 89.371,48.822 87.729C48.822 87.565,48.822 87.401,48.794 87.264C48.712 86.881,48.384 86.553,47.946 86.471"/></g><g class="vf-notehead" id="vf-auto18221" pointer-events="bounding-box"><path stroke="none" d="M73.718 74.889C73.802 74.889,73.886 74.889,74.027 74.889C74.392 74.889,74.925 74.918,75.122 74.946C77.453 75.283,78.604 76.827,78.604 78.624C78.604 80.534,77.312 82.724,74.729 84.128C73.465 84.802,72.174 85.111,70.994 85.111C68.832 85.111,67.063 84.044,66.698 82.162C66.642 81.881,66.614 81.629,66.614 81.376C66.614 78.343,69.871 75.283,73.718 74.889M76.863 76.35C76.723 76.293,76.582 76.293,76.414 76.293C74.701 76.293,71.191 78.371,69.225 80.674C68.383 81.657,67.934 82.527,67.934 83.061C67.934 83.313,68.018 83.482,68.186 83.566C68.355 83.678,68.579 83.707,68.804 83.707C70.629 83.707,74.42 81.376,76.301 78.961C76.975 78.119,77.312 77.417,77.312 76.967C77.312 76.658,77.144 76.434,76.863 76.35"/><path stroke="none" d="M60.714 65.691C60.768 65.663,60.85 65.636,60.932 65.636C61.151 65.636,61.37 65.773,61.452 65.992C61.48 66.101,61.48 66.128,61.48 69.603C61.48 72.859,61.48 73.078,61.534 73.078C61.534 73.078,61.534 73.078,61.534 73.078C61.835 72.996,62.957 72.75,63.039 72.75C63.285 72.75,63.477 72.886,63.559 73.078C63.586 73.16,63.614 73.789,63.614 74.419C63.614 75.048,63.586 75.677,63.559 75.759C63.477 76.033,63.422 76.033,62.328 76.306L61.48 76.525L61.48 79.425C61.48 82.134,61.48 82.353,61.507 82.353C61.534 82.353,61.534 82.353,61.534 82.353C61.835 82.244,62.957 81.997,63.039 81.997C63.203 81.997,63.313 82.052,63.45 82.161C63.586 82.326,63.586 82.271,63.586 83.311C63.586 83.42,63.586 83.557,63.586 83.694C63.586 83.83,63.586 83.94,63.586 84.049C63.586 85.116,63.586 85.062,63.45 85.198C63.313 85.335,63.313 85.335,62.328 85.581L61.48 85.773L61.48 89.33C61.48 92.832,61.48 92.859,61.452 92.941C61.37 93.188,61.151 93.297,60.932 93.297C60.796 93.297,60.632 93.242,60.522 93.133C60.385 92.996,60.358 93.242,60.358 91.053C60.358 90.616,60.358 90.096,60.358 89.467C60.358 87.579,60.358 86.047,60.358 86.047C60.358 86.047,59.811 86.183,59.154 86.348C58.47 86.512,57.923 86.648,57.923 86.648C57.923 86.648,57.923 88.29,57.923 90.287C57.923 93.872,57.923 93.899,57.868 94.008C57.786 94.227,57.567 94.364,57.348 94.364C57.212 94.364,57.047 94.309,56.938 94.2C56.801 94.036,56.801 94.282,56.801 92.066C56.801 91.628,56.801 91.081,56.801 90.424C56.801 87.168,56.801 86.949,56.774 86.949C56.774 86.949,56.774 86.949,56.746 86.949C56.418 87.032,55.406 87.25,55.324 87.25C55.077 87.25,54.859 87.114,54.776 86.922C54.749 86.84,54.749 86.211,54.749 85.581C54.749 84.952,54.749 84.323,54.776 84.241C54.886 83.995,54.941 83.967,55.98 83.694L56.801 83.502L56.801 80.575C56.801 77.866,56.801 77.674,56.774 77.674C56.774 77.674,56.774 77.674,56.746 77.674C56.418 77.756,55.406 78.003,55.324 78.003C55.077 78.003,54.859 77.866,54.776 77.647C54.749 77.592,54.749 76.936,54.749 76.306C54.749 75.677,54.749 75.048,54.776 74.966C54.886 74.72,54.941 74.692,55.98 74.446L56.801 74.254L56.801 70.698C56.801 67.168,56.801 67.141,56.828 67.059C56.911 66.812,57.129 66.703,57.348 66.703C57.485 66.703,57.649 66.758,57.759 66.867C57.896 67.004,57.923 66.758,57.923 68.947C57.923 69.384,57.923 69.904,57.923 70.561C57.923 72.421,57.923 73.953,57.923 73.953C57.923 73.953,58.47 73.817,59.127 73.68C59.811 73.516,60.358 73.379,60.358 73.379C60.358 73.379,60.358 71.737,60.358 69.74C60.358 66.128,60.358 66.101,60.413 65.992C60.44 65.882,60.577 65.745,60.714 65.691M60.358 79.699C60.358 77.401,60.358 76.799,60.358 76.799L60.358 76.799C60.331 76.799,60.139 76.826,59.92 76.908C59.701 76.963,59.154 77.072,58.716 77.182L57.923 77.401L57.923 80.301C57.923 81.915,57.923 83.228,57.923 83.228C57.923 83.228,58.47 83.092,59.127 82.928C59.811 82.763,60.358 82.627,60.358 82.627C60.358 82.627,60.358 81.313,60.358 79.699"/></g><g class="vf-notehead" id="vf-auto18220" pointer-events="bounding-box"><path stroke="none" d="M73.718 59.889C73.802 59.889,73.886 59.889,74.027 59.889C74.392 59.889,74.925 59.918,75.122 59.946C77.453 60.283,78.604 61.827,78.604 63.624C78.604 65.534,77.312 67.724,74.729 69.128C73.465 69.802,72.174 70.111,70.994 70.111C68.832 70.111,67.063 69.044,66.698 67.162C66.642 66.881,66.614 66.629,66.614 66.376C66.614 63.343,69.871 60.283,73.718 59.889M76.863 61.35C76.723 61.293,76.582 61.293,76.414 61.293C74.701 61.293,71.191 63.371,69.225 65.674C68.383 66.657,67.934 67.527,67.934 68.061C67.934 68.313,68.018 68.482,68.186 68.566C68.355 68.678,68.579 68.707,68.804 68.707C70.629 68.707,74.42 66.376,76.301 63.961C76.975 63.119,77.312 62.417,77.312 61.967C77.312 61.658,77.144 61.434,76.863 61.35"/></g></g><g class="vf-stavenote" id="vf-auto18227"><g class="vf-stem" id="vf-auto18228" pointer-events="bounding-box"><path stroke-width="1.5" fill="none" d="M167.062 76.5L167.062 120"/></g><g class="vf-notehead" id="vf-auto18237" pointer-events="bounding-box"><path stroke="none" d="M173.416 79.889C173.5 79.889,173.585 79.889,173.725 79.889C174.09 79.889,174.623 79.918,174.82 79.946C177.151 80.283,178.302 81.827,178.302 83.624C178.302 85.534,177.01 87.724,174.427 89.128C173.163 89.802,171.872 90.111,170.692 90.111C168.53 90.111,166.761 89.044,166.396 87.162C166.34 86.881,166.312 86.629,166.312 86.376C166.312 83.343,169.569 80.283,173.416 79.889M176.561 81.35C176.421 81.293,176.28 81.293,176.112 81.293C174.399 81.293,170.889 83.371,168.923 85.674C168.081 86.657,167.632 87.527,167.632 88.061C167.632 88.313,167.716 88.482,167.884 88.566C168.053 88.678,168.277 88.707,168.502 88.707C170.327 88.707,174.118 86.376,175.999 83.961C176.673 83.119,177.01 82.417,177.01 81.967C177.01 81.658,176.842 81.434,176.561 81.35"/></g><g class="vf-notehead" id="vf-auto18236" pointer-events="bounding-box"><path stroke="none" d="M162.176 74.889C162.26 74.889,162.344 74.889,162.485 74.889C162.85 74.889,163.383 74.918,163.58 74.946C165.911 75.283,167.062 76.827,167.062 78.624C167.062 80.534,165.77 82.724,163.187 84.128C161.923 84.802,160.631 85.111,159.452 85.111C157.29 85.111,155.521 84.044,155.156 82.162C155.1 81.881,155.072 81.629,155.072 81.376C155.072 78.343,158.329 75.283,162.176 74.889M165.321 76.35C165.18 76.293,165.04 76.293,164.872 76.293C163.159 76.293,159.649 78.371,157.683 80.674C156.841 81.657,156.391 82.527,156.391 83.061C156.391 83.313,156.476 83.482,156.644 83.566C156.813 83.678,157.037 83.707,157.262 83.707C159.087 83.707,162.878 81.376,164.759 78.961C165.433 78.119,165.77 77.417,165.77 76.967C165.77 76.658,165.602 76.434,165.321 76.35"/></g><g class="vf-notehead" id="vf-auto18235" pointer-events="bounding-box"><path stroke="none" d="M173.416 69.889C173.5 69.889,173.585 69.889,173.725 69.889C174.09 69.889,174.623 69.918,174.82 69.946C177.151 70.283,178.302 71.827,178.302 73.624C178.302 75.534,177.01 77.724,174.427 79.128C173.163 79.802,171.872 80.111,170.692 80.111C168.53 80.111,166.761 79.044,166.396 77.162C166.34 76.881,166.312 76.629,166.312 76.376C166.312 73.343,169.569 70.283,173.416 69.889M176.561 71.35C176.421 71.293,176.28 71.293,176.112 71.293C174.399 71.293,170.889 73.371,168.923 75.674C168.081 76.657,167.632 77.527,167.632 78.061C167.632 78.313,167.716 78.482,167.884 78.566C168.053 78.678,168.277 78.707,168.502 78.707C170.327 78.707,174.118 76.376,175.999 73.961C176.673 73.119,177.01 72.417,177.01 71.967C177.01 71.658,176.842 71.434,176.561 71.35"/></g></g><g class="vf-stavetie" id="vf-auto18240"><path stroke="none" d="M29.307 58Q47.96 50,66.614 58Q47.96 46,29.307 58Z"/></g><text stroke="none" x="43.14" y="29">H</text></svg>