<svg xmlns="http://www.w3.org/2000/svg" stroke-width="0.3" stroke-dasharray="none" fill="black" stroke="black" font-family="Arial, sans-serif" font-size="10pt" font-weight="normal" font-style="normal" width="700" height="150" viewBox="0 0 777.7777777777777 166.66666666666666" style="width: 700px; height: 150px; border: none;"><g class="vf-stave" id="vf-auto22800" stroke-width="1" fill="#999999" stroke="#999999" font-family="Arial"><path fill="none" d="M10 70L710 70"/><path fill="none" d="M10 80L710 80"/><path fill="none" d="M10 90L710 90"/><path fill="none" d="M10 100L710 100"/><path fill="none" d="M10 110L710 110"/></g><g class="vf-stavebarline" id="vf-auto22801" font-family="Arial"><rect x="10" y="69.5" width="1" height="41" stroke="none"/></g><g class="vf-stavebarline" id="vf-auto22802" font-family="Arial"><rect x="710" y="69.5" width="1" height="41" stroke="none"/></g><g class="vf-clef" id="vf-auto22803" font-family="Arial"><path stroke="none" d="M23.693 121.402C23.87 121.402,24.048 121.377,24.276 121.301C24.707 121.148,25.062 120.92,25.366 120.591C28.382 117.423,29.623 113.596,29.75 109.313C29.75 108.983,29.776 108.451,29.776 108.451C29.776 108.451,30.282 108.147,30.511 108.071C31.727 107.488,32.893 106.829,33.932 105.993C36.72 103.762,38.316 100.747,39.051 97.376C39.204 96.844,39.229 96.286,39.229 95.779C39.229 93.473,37.962 91.8,35.047 91.268C34.312 91.116,33.577 91.04,32.842 91.04C31.017 91.04,29.269 91.521,27.621 92.484C27.419 92.611,27.19 92.763,27.19 92.763L26.253 89.215C26.202 89.038,26.202 88.708,26.202 88.708C26.202 88.708,29.928 82.093,30.434 78.697C30.612 77.709,30.688 76.72,30.688 75.757C30.688 74.972,30.663 74.237,30.536 73.527C30.181 70.891,29.193 68.408,28.534 65.848C28.356 65.088,28.103 64.175,27.216 64.175C26.557 64.175,26.101 64.809,25.695 65.341C23.82 67.926,22.907 70.891,22.73 74.059C22.705 74.566,22.705 75.098,22.705 75.605C22.705 78.545,23.186 81.51,23.566 84.425C23.566 84.653,23.642 84.881,23.693 85.059C22.046 87.39,20.221 89.57,18.65 91.978C17.56 93.701,16.343 95.424,15.583 97.35C15.177 98.288,15 99.403,15 100.493C15 102.749,15.76 105.055,17.078 106.322C17.839 107.057,19.055 107.868,20.246 108.299C21.944 108.907,23.617 109.313,25.391 109.313C25.923 109.313,26.455 109.287,27.013 109.211L27.444 109.135C27.444 109.135,27.469 109.465,27.444 109.642C27.038 111.847,26.506 114.001,25.188 115.826C24.479 116.764,23.82 117.828,22.451 117.93C22.046 117.98,21.868 118.234,21.868 118.563C21.868 118.69,21.894 118.817,21.944 118.944C22.147 119.501,22.4 120.084,22.654 120.642C22.882 121.148,23.237 121.402,23.693 121.402M25.138 82.828C24.859 81.08,24.681 79.356,24.681 77.633C24.681 74.465,25.34 71.373,27.19 68.408C27.621 69.751,27.849 71.119,27.849 72.488C27.849 73.198,27.773 73.933,27.672 74.642C27.19 77.506,26.532 80.269,25.138 82.828M21.387 104.421C20.88 104.396,20.449 104.219,19.967 104.067C19.004 103.737,18.219 103.382,17.965 102.749C17.839 102.47,17.813 102.14,17.813 101.811C17.813 101.406,17.889 100.975,17.965 100.518C17.991 100.316,18.219 99.682,18.295 99.581C19.714 97.046,21.412 94.765,23.211 92.459L24.732 90.457L25.011 91.268C25.29 92.18,25.543 93.625,25.543 93.625C25.543 93.625,24.529 94.943,23.87 95.602C22.046 97.376,21.159 99.606,21.159 102.064C21.159 102.673,21.235 103.306,21.361 103.965C21.387 104.092,21.387 104.219,21.387 104.421M29.269 103.306C28.99 100.924,28.432 99.023,27.925 96.742C27.875 96.463,27.875 96.286,28.001 96.134C28.939 95.957,29.852 95.881,30.815 95.881C31.727 95.881,32.589 95.957,33.501 96.134C34.591 96.362,35.681 96.539,36.542 97.426C36.593 97.503,36.669 97.579,36.745 97.604C35.301 100.518,33.146 102.723,30.08 104.067L29.421 104.32M25.391 105.055C24.124 105.055,22.882 104.726,22.882 104.726C22.882 104.726,22.781 104.219,22.781 103.484C22.781 103.002,22.806 102.419,22.958 101.836C23.313 100.088,24.555 98.846,25.873 97.68C25.974 97.579,26.101 97.503,26.177 97.503C26.303 97.503,26.354 97.655,26.379 97.908C26.709 100.062,27.266 102.166,27.419 104.32C27.444 104.548,27.419 104.878,27.419 104.878C27.419 104.878,26.455 105.131,25.391 105.055"/></g><g class="vf-timesignature" id="vf-auto22804" font-family="Arial"><path stroke="none" d="M63.86 91.151C64.081 91.215,64.271 91.025,64.382 90.835C64.683 90.454,64.715 89.995,64.794 89.536C65.048 87.366,65 85.18,65.079 83.01L65.079 82.788C65.887 82.629,66.632 82.344,67.392 82.012C68.501 81.489,68.691 81.204,68.675 80C68.675 79.43,68.548 79.176,68.263 79.16C68.121 79.16,67.915 79.224,67.661 79.366L67.503 79.43C66.727 79.778,65.935 80.048,65.111 80.206C65.111 79.208,65.063 78.194,65.016 77.196C64.968 76.357,64.953 75.486,64.873 74.646C64.858 74.456,64.873 74.092,64.588 74.092C64.303 74.092,64.113 74.282,64.081 74.614C64.066 75.026,63.939 75.438,63.97 75.85C63.986 77.355,64.034 78.86,64.034 80.348C63.765 80.364,63.495 80.364,63.242 80.348C61.848 80.253,60.486 80.016,59.06 80.048C58.569 80.048,58.062 80.063,57.555 80.143C58.062 79.176,58.474 78.289,58.997 77.418C60.201 75.438,61.499 73.474,62.355 71.256C62.561 70.734,62.719 70.211,62.719 69.672C62.719 69.514,62.687 69.356,62.672 69.181C62.64 69.055,62.64 68.801,62.466 68.801C62.276 68.785,62.054 68.849,61.943 69.023C61.864 69.165,61.785 69.276,61.737 69.419C61.42 70.448,60.85 71.336,60.311 72.238C59.662 73.363,58.902 74.44,58.236 75.549C57.302 77.133,56.526 78.764,55.385 80.206C55.021 80.665,54.688 81.14,54.688 81.711C54.688 81.917,54.736 82.123,54.815 82.328C54.91 82.534,55.021 82.74,55.021 82.946C55.053 83.279,55.116 83.406,55.306 83.421C55.385 83.421,55.528 83.374,55.686 83.279C56.7 82.851,57.714 82.629,58.791 82.629C60.201 82.629,61.626 82.851,63.036 82.946C63.194 82.962,63.353 82.962,63.511 82.994C63.67 82.994,63.828 82.994,63.986 82.946C63.939 84.245,63.923 85.544,63.828 86.843C63.78 87.841,63.67 88.855,63.67 89.9C63.67 90.153,63.67 90.375,63.701 90.613C63.701 90.819,63.67 91.088,63.86 91.151"/><path stroke="none" d="M63.86 111.151C64.081 111.215,64.271 111.025,64.382 110.835C64.683 110.454,64.715 109.995,64.794 109.536C65.048 107.366,65 105.18,65.079 103.01L65.079 102.788C65.887 102.629,66.632 102.344,67.392 102.012C68.501 101.489,68.691 101.204,68.675 100C68.675 99.43,68.548 99.176,68.263 99.16C68.121 99.16,67.915 99.224,67.661 99.366L67.503 99.43C66.727 99.778,65.935 100.048,65.111 100.206C65.111 99.208,65.063 98.194,65.016 97.196C64.968 96.357,64.953 95.486,64.873 94.646C64.858 94.456,64.873 94.092,64.588 94.092C64.303 94.092,64.113 94.282,64.081 94.614C64.066 95.026,63.939 95.438,63.97 95.85C63.986 97.355,64.034 98.86,64.034 100.348C63.765 100.364,63.495 100.364,63.242 100.348C61.848 100.253,60.486 100.016,59.06 100.048C58.569 100.048,58.062 100.063,57.555 100.143C58.062 99.176,58.474 98.289,58.997 97.418C60.201 95.438,61.499 93.474,62.355 91.256C62.561 90.734,62.719 90.211,62.719 89.672C62.719 89.514,62.687 89.356,62.672 89.181C62.64 89.055,62.64 88.801,62.466 88.801C62.276 88.785,62.054 88.849,61.943 89.023C61.864 89.165,61.785 89.276,61.737 89.419C61.42 90.448,60.85 91.336,60.311 92.238C59.662 93.363,58.902 94.44,58.236 95.549C57.302 97.133,56.526 98.764,55.385 100.206C55.021 100.665,54.688 101.14,54.688 101.711C54.688 101.917,54.736 102.123,54.815 102.328C54.91 102.534,55.021 102.74,55.021 102.946C55.053 103.279,55.116 103.406,55.306 103.421C55.385 103.421,55.528 103.374,55.686 103.279C56.7 102.851,57.714 102.629,58.791 102.629C60.201 102.629,61.626 102.851,63.036 102.946C63.194 102.962,63.353 102.962,63.511 102.994C63.67 102.994,63.828 102.994,63.986 102.946C63.939 104.245,63.923 105.544,63.828 106.843C63.78 107.841,63.67 108.855,63.67 109.9C63.67 110.153,63.67 110.375,63.701 110.613C63.701 110.819,63.67 111.088,63.86 111.151"/></g><g class="vf-stavenote" id="vf-auto22808" font-family="Arial"><g class="vf-notehead" id="vf-auto22811" pointer-events="bounding-box"><path stroke="none" d="M93.213 94.858L93.213 94.802L101.244 94.802C102.311 94.802,103.35 94.072,103.406 93.229C103.406 92.92,103.434 92.583,103.434 92.303C103.434 91.685,103.406 91.123,103.181 90.562C102.985 90,102.704 89.719,102.086 89.523C101.862 89.438,101.665 89.438,101.44 89.438C101.019 89.438,100.654 89.523,100.205 89.523C95.375 89.523,90.573 89.523,85.8 89.466C85.154 89.438,84.592 89.663,84.031 89.803C83.553 89.888,83.469 90.168,83.469 90.477C83.469 90.73,83.497 90.983,83.497 91.207C83.497 91.629,83.301 92.022,83.245 92.359C83.216 94.128,83.413 94.858,85.351 94.858"/><path stroke="none" d="M110.408 95 A2 2 0 0 0 106.408 95 A2 2 0 0 0 110.408 95"/></g></g><g class="vf-stavenote" id="vf-auto22812" font-family="Arial"><g class="vf-notehead" id="vf-auto22815" pointer-events="bounding-box"><path stroke="none" d="M258.656 90L271.516 90C272.527 90,273.566 90,274.577 89.972C276.121 89.916,276.767 89.186,276.852 87.697C276.936 86.799,276.683 85.956,276.571 85.114C276.374 83.963,275.784 83.485,274.717 83.485C273.763 83.485,272.836 83.57,271.909 83.57C269.888 83.57,267.866 83.457,265.9 83.457L257.954 83.457C256.437 83.457,255.904 83.822,255.904 84.974C255.904 85.198,255.904 85.395,255.932 85.676C256.016 86.209,256.072 86.771,256.072 87.332C255.988 89.242,256.718 90,258.656 90"/><path stroke="none" d="M283.868 85 A2 2 0 0 0 279.868 85 A2 2 0 0 0 283.868 85"/></g></g><g class="vf-stavenote" id="vf-auto22816" font-family="Arial"><g class="vf-notehead" id="vf-auto22819" pointer-events="bounding-box"><path stroke="none" d="M357.034 106.736C357.371 106.539,357.315 106.146,357.399 105.809C357.399 105.641,357.315 105.5,357.287 105.332C356.95 103.9,356.585 102.524,356.276 101.12C356.22 100.951,356.22 100.783,356.22 100.67C356.22 99.294,357.231 97.638,358.382 97.16C358.663 96.992,358.887 97.104,359.196 97.188C360.488 97.61,361.162 98.705,361.892 99.716C362.089 99.996,362.369 100.362,362.706 100.362C362.791 100.362,362.819 100.362,362.903 100.305C363.268 100.137,363.436 99.772,363.436 99.435L363.38 99.126C363.24 98.199,363.071 97.245,362.454 96.515C361.246 95.054,360.6 93.285,359.786 91.629C359.674 91.376,359.589 91.179,359.589 91.011C359.589 90.73,359.758 90.477,360.039 90.197C360.769 89.438,361.527 88.736,362.004 87.81C362.454 87.08,362.734 86.322,362.734 85.563C362.734 85.03,362.622 84.496,362.257 83.935C361.05 81.913,359.786 79.919,358.775 77.785C358.101 76.325,357.231 74.949,356.023 73.854C355.742 73.573,355.377 73.208,354.984 73.208C354.816 73.208,354.647 73.264,354.451 73.377C354.058 73.629,353.889 73.938,353.889 74.219C353.889 74.556,354.058 74.865,354.282 75.202C355.546 76.83,356.304 78.712,357.512 80.34C357.877 80.79,358.045 81.099,358.045 81.379C358.045 81.744,357.736 82.025,357.09 82.446C356.22 82.924,355.349 83.401,354.535 84.019C354.142 84.3,353.917 84.609,353.917 84.946C353.917 85.142,354.002 85.339,354.086 85.563C354.479 86.49,355.012 87.332,355.574 88.175C356.473 89.438,357.287 90.814,357.933 92.218C357.652 92.471,357.399 92.387,357.175 92.415C354.423 92.78,352.598 94.858,352.794 97.329C353.075 100.277,354.17 103.029,355.49 105.641C355.658 105.978,355.855 106.286,356.276 106.427C356.501 106.511,356.669 106.792,356.866 106.792C356.922 106.792,357.006 106.792,357.034 106.736"/><path stroke="none" d="M370.451 85 A2 2 0 0 0 366.451 85 A2 2 0 0 0 370.451 85"/></g></g><g class="vf-stavenote" id="vf-auto22820" font-family="Arial"><g class="vf-notehead" id="vf-auto22823" pointer-events="bounding-box"><path stroke="none" d="M429.975 100.502C430.705 100.474,431.07 100.025,431.323 99.547C432.053 98.199,432.614 96.795,433.12 95.335C434.72 91.011,435.45 86.406,436.882 81.997C436.967 81.744,437.051 81.464,437.051 81.183L437.051 80.986C437.023 80.425,436.882 80.06,436.405 80.06C436.293 80.06,436.208 80.06,436.096 80.088C435.113 80.256,434.215 80.649,433.569 81.267C432.558 82.25,431.435 82.952,430.255 83.682C430.087 83.766,429.947 83.85,429.778 83.85C429.61 83.85,429.441 83.766,429.301 83.598C429.132 83.457,429.048 83.261,429.048 83.092C429.048 82.924,429.076 82.812,429.16 82.643C429.329 82.362,429.497 81.997,429.497 81.632C429.497 80.93,429.694 80.06,428.936 79.695C428.571 79.526,428.234 79.442,428.009 79.442C427.476 79.442,427.139 79.807,426.717 80.565C425.931 81.913,425.707 83.401,425.454 84.918C425.398 85.226,425.37 85.507,425.37 85.788C425.37 87.641,426.352 89.326,428.43 89.326C428.936 89.326,429.525 89.242,430.171 88.989C431.351 88.54,432.333 87.894,433.485 87.164C432.558 91.741,430.789 95.981,429.975 100.502"/><path stroke="none" d="M444.051 85 A2 2 0 0 0 440.051 85 A2 2 0 0 0 444.051 85"/></g></g><g class="vf-stavenote" id="vf-auto22824" font-family="Arial"><g class="vf-notehead" id="vf-auto22827" pointer-events="bounding-box"><path stroke="none" d="M494.051 103.226C494.416 103.394,494.809 103.141,495.09 102.861C496.016 101.934,496.606 100.783,496.802 99.491C496.943 98.452,497.083 97.357,497.28 96.346C498.01 92.64,499.021 89.017,500.2 85.479C500.678 83.963,501.66 82.727,501.66 81.071C501.66 80.706,501.576 80.425,501.295 80.256C501.127 80.172,500.93 80.144,500.678 80.144C500.312 80.144,499.947 80.256,499.639 80.537C499.554 80.565,499.498 80.621,499.47 80.649C497.841 81.744,496.437 83.12,494.444 83.963C494.612 83.457,494.781 83.092,494.809 82.727C494.865 82.559,494.865 82.39,494.865 82.25C494.865 81.52,494.528 80.621,494.135 80.509C493.966 80.453,493.77 80.425,493.601 80.425C492.562 80.425,491.102 81.099,490.597 81.885C490.035 82.84,489.839 83.907,489.839 84.946C489.839 87.866,490.765 89.242,492.562 89.242C493.208 89.242,493.91 89.017,494.809 88.708C495.792 88.343,496.55 87.697,497.673 87.164C496.943 88.624,496.662 90,496.297 91.376C495.932 92.78,494.781 93.005,493.686 93.426C493.433 93.566,493.124 93.566,493.124 93.201L493.124 93.117C493.152 92.471,492.787 92.022,492.59 91.488C492.141 90.197,491.018 90.449,490.119 90.253C489.389 90.084,488.996 90.758,488.659 91.348C488.294 92.05,488.182 92.78,488.182 93.566C488.182 94.128,488.21 94.689,488.35 95.223C488.659 97.357,489.221 98.256,490.484 98.256C491.046 98.256,491.776 98.115,492.675 97.75C493.264 97.525,493.882 97.273,494.331 96.795C494.444 96.627,494.612 96.458,494.809 96.458C494.893 96.458,494.921 96.458,495.005 96.515C495.146 96.908,494.893 97.329,494.781 97.722C494.36 99.379,493.854 101.092,493.854 102.804C493.854 102.973,493.882 103.141,494.051 103.226"/><path stroke="none" d="M508.66 85 A2 2 0 0 0 504.66 85 A2 2 0 0 0 508.66 85"/></g></g><g class="vf-stavenote" id="vf-auto22828" font-family="Arial"><g class="vf-notehead" id="vf-auto22831" pointer-events="bounding-box"><path stroke="none" d="M551.587 110.105C552.064 110.218,552.486 109.768,552.71 109.375C552.935 109.094,553.075 108.757,553.159 108.392C553.721 105.921,554.339 103.478,554.816 100.951C555.378 97.722,556.052 94.521,556.754 91.348C557.652 87.136,558.467 82.924,559.309 78.768C559.73 76.606,560.151 74.472,560.573 72.338C560.601 72.169,560.657 72.001,560.657 71.832C560.657 71.327,560.432 70.793,560.095 70.597C559.955 70.512,559.786 70.456,559.646 70.456C559.197 70.456,558.719 70.765,558.354 71.074L556.754 72.422C556.529 72.647,556.248 72.815,555.967 72.843C555.743 72.843,555.518 72.703,555.265 72.338C554.816 71.72,554.058 71.439,553.328 71.271C553.019 71.243,552.682 71.186,552.345 71.186C550.576 71.186,549.284 72.366,549.032 74.303C549.032 74.5,549.004 74.724,549.004 74.921C549.004 76.1,549.284 77.224,549.621 78.319C549.818 79.077,550.38 79.554,551.138 79.554C551.278 79.554,551.39 79.554,551.503 79.526C552.008 79.498,552.486 79.414,552.963 79.245C554.62 78.712,555.883 77.532,557.484 76.578C557.259 77.532,556.838 78.347,556.838 79.161C556.838 80.93,555.602 81.632,554.367 82.39C554.255 82.475,554.142 82.531,554.058 82.531C553.946 82.531,553.805 82.446,553.693 82.25C553.047 81.267,551.84 80.649,550.632 80.649C550.267 80.649,549.93 80.734,549.621 80.818C548.358 81.183,547.908 81.829,547.824 83.177C547.824 84.103,548.077 84.974,548.245 85.928C548.526 87.417,549.397 88.231,550.829 88.231C552.598 88.231,553.89 87.248,555.462 86.293C554.957 88.231,554.507 89.888,554.086 91.629C553.89 92.555,553.075 92.696,552.429 92.836C551.84 93.005,552.205 92.106,551.84 91.853C551.699 91.769,551.755 91.544,551.671 91.404C551.11 90.646,550.408 90.084,549.453 90.084C548.274 90.084,547.178 90.899,546.87 91.853C546.701 92.359,546.617 92.836,546.617 93.313C546.617 94.044,546.785 94.774,546.898 95.504C547.178 97.188,548.077 98.059,549.537 98.059C549.818 98.059,550.127 98.059,550.464 97.919C550.857 97.89,551.418 97.554,551.784 97.554C551.952 97.554,552.036 97.61,552.12 97.722C552.149 97.806,552.205 97.919,552.205 98.059C552.205 98.536,551.924 99.126,551.784 99.631C551.784 99.716,551.755 99.744,551.699 99.772C551.053 102.046,550.295 104.265,550.38 106.708C550.38 107.522,550.829 108.196,550.997 109.01C551.053 109.459,551.11 110.021,551.587 110.105"/><path stroke="none" d="M567.657 75 A2 2 0 0 0 563.657 75 A2 2 0 0 0 567.657 75"/></g></g><g class="vf-stavenote" id="vf-auto22832" font-family="Arial"><g class="vf-notehead" id="vf-auto22835" pointer-events="bounding-box"><path stroke="none" d="M608.595 119.119C609.016 119.119,609.213 118.782,609.409 118.417C609.521 118.192,609.606 117.912,609.662 117.631C609.943 115.665,610.42 113.812,610.897 111.902C611.88 108.084,612.919 104.237,613.818 100.362C614.829 95.953,615.643 91.488,616.766 87.08C617.805 83.008,618.423 78.796,619.827 74.809C620.136 73.994,620.276 73.18,620.276 72.338C620.276 71.804,620.248 71.158,619.827 70.906C619.434 70.709,618.872 70.99,618.423 71.327C617.777 71.776,617.047 72.169,616.457 72.647C616.289 72.787,616.12 72.843,616.008 72.843C615.839 72.843,615.727 72.731,615.559 72.534C614.913 71.72,614.127 71.411,613.256 71.411C612.919 71.411,612.61 71.439,612.273 71.523C610.982 71.832,610.083 72.618,609.774 73.938C609.69 74.359,609.606 74.753,609.606 75.174C609.606 76.409,610.027 77.589,610.448 78.768C610.673 79.414,611.431 79.526,612.105 79.526C613.256 79.526,614.295 79.245,615.222 78.515L616.85 77.308C616.598 78.319,616.289 79.077,616.289 79.891C616.289 81.66,615.194 82.446,613.733 83.036C613.565 81.913,612.835 81.295,611.964 80.79C611.543 80.537,611.15 80.425,610.729 80.425C609.578 80.425,608.426 81.267,608.202 82.446C608.117 82.812,608.061 83.177,608.061 83.542C608.061 84.272,608.202 84.974,608.23 85.704C608.37 87.585,609.521 88.231,610.813 88.231C611.066 88.231,611.262 88.231,611.515 88.175C612.638 87.978,613.621 87.417,614.66 86.771C614.379 88.062,614.127 89.242,613.846 90.393C613.649 91.46,613.34 92.415,611.964 92.668C611.964 92.499,611.964 92.359,611.908 92.218C611.543 90.814,610.588 90,609.241 90C607.78 90,606.77 90.842,606.405 92.274C606.348 92.696,606.292 93.145,606.292 93.566L606.292 95.504C606.292 96.037,606.489 96.43,606.826 96.795C607.387 97.469,608.061 97.722,608.847 97.722C609.213 97.722,609.578 97.694,609.971 97.554C610.617 97.413,611.234 97.16,611.908 96.964C611.824 98.452,611.178 99.66,610.869 100.951C610.813 101.035,610.813 101.148,610.729 101.232C610.617 101.457,610.448 101.681,610.251 101.794C610.139 101.934,610.027 102.046,609.886 102.046C609.774 102.046,609.662 101.962,609.521 101.653C609.297 100.923,608.595 100.446,607.921 100.081C607.415 99.772,606.91 99.716,606.376 99.716C605.029 99.716,603.737 100.39,603.372 101.457C603.091 102.299,602.979 103.141,602.979 103.984C602.979 104.602,603.063 105.247,603.147 105.837C603.316 107.157,604.242 107.831,605.534 107.831C605.899 107.831,606.264 107.803,606.657 107.662C607.556 107.466,608.314 106.932,609.241 106.567C608.679 108.842,608.286 110.976,607.64 113.138C607.387 113.924,607.135 114.738,607.135 115.609C607.135 116.002,607.191 116.395,607.359 116.816C607.5 117.294,607.752 117.827,607.949 118.305C608.061 118.642,608.117 119.119,608.595 119.119"/><path stroke="none" d="M627.276 75 A2 2 0 0 0 623.276 75 A2 2 0 0 0 627.276 75"/></g></g><g class="vf-stavenote" id="vf-auto22836" font-family="Arial"><g class="vf-notehead" id="vf-auto22839" pointer-events="bounding-box"><path stroke="none" d="M664.875 118.501C665.52 118.136,665.801 117.546,665.942 116.844L667.149 110.302C667.795 106.792,668.609 103.31,669.367 99.828C670.743 93.594,672.147 87.445,673.579 81.239C674.703 76.241,676.163 71.327,677.623 66.385C677.932 65.29,678.185 64.194,678.185 63.099C678.185 62.819,678.185 62.594,678.156 62.313C678.1 61.948,678.1 61.246,677.651 61.218C677.511 61.218,677.342 61.162,677.146 61.162C676.724 61.162,676.275 61.302,675.994 61.723C675.545 62.454,674.787 62.819,674.029 63.464C673.86 62.819,674.029 62.173,673.523 61.808C672.821 61.246,672.035 60.937,671.136 60.937C670.8 60.937,670.434 60.965,670.098 61.078C668.974 61.415,668.244 62.06,667.992 63.24C667.907 63.717,667.879 64.251,667.879 64.728C667.879 65.262,667.907 65.739,667.907 66.216C667.879 67.115,668.272 67.733,669.002 68.126C669.732 68.519,670.547 68.603,671.361 68.575C672.653 68.575,673.748 67.929,674.955 67.143C674.478 68.743,673.944 70.063,673.664 71.467C673.411 72.618,672.849 73.208,671.81 73.573C671.81 73.433,671.754 73.292,671.754 73.18C671.586 72.001,670.35 70.962,669.171 70.962C667.963 70.962,666.868 71.72,666.588 72.815C666.251 74.079,666.138 75.37,666.166 76.606C666.222 77.982,667.233 78.908,668.525 78.908C668.694 78.908,668.834 78.908,669.002 78.88C670.013 78.684,670.94 78.234,672.035 77.757C671.502 79.975,671.473 82.278,669.115 83.457C668.806 82.924,668.918 82.25,668.413 81.829C667.795 81.295,667.037 81.071,666.251 81.071C665.155 81.071,664.032 81.632,663.414 82.587C662.628 83.935,662.656 85.479,662.656 86.995C662.656 88.821,663.583 89.832,665.127 89.832C665.436 89.832,665.773 89.803,666.138 89.719C667.598 89.382,668.609 88.456,669.789 87.529C669.564 88.428,669.367 89.242,669.199 90.028C668.974 91.544,668.272 92.64,666.784 93.145C666.672 92.668,666.812 92.218,666.447 91.825C665.886 91.179,665.212 90.899,664.482 90.899C664.145 90.899,663.836 90.983,663.471 91.039C662.376 91.292,661.73 91.994,661.477 93.061C661.252 94.072,661.365 95.139,661.28 96.15C661.168 97.75,662.095 98.845,663.555 98.845C663.92 98.845,664.369 98.761,664.79 98.621C665.745 98.284,666.531 97.722,667.43 97.188C667.402 100.755,665.801 103.226,663.386 103.787C663.386 103.478,663.386 103.17,663.471 102.889C663.499 102.748,663.499 102.58,663.499 102.411L663.499 102.243C663.499 101.316,663.106 100.755,662.123 100.362C661.842 100.221,661.533 100.193,661.196 100.193C660.382 100.193,659.596 100.558,659.146 101.204C658.22 102.58,658.5 104.124,658.36 105.612C658.22 107.55,659.539 108.814,661.393 108.814C661.645 108.814,661.982 108.757,662.263 108.729C663.386 108.477,664.313 107.915,665.436 107.297C665.296 108.084,665.127 108.673,665.015 109.319C664.51 111.874,663.723 114.345,663.723 116.929C663.723 117.266,663.723 117.546,663.751 117.855C663.78 118.473,663.92 118.754,664.229 118.754C664.397 118.754,664.594 118.67,664.875 118.501"/><path stroke="none" d="M685.167 65 A2 2 0 0 0 681.167 65 A2 2 0 0 0 685.167 65"/></g></g></svg>