<svg xmlns="http://www.w3.org/2000/svg" stroke-width="0.3" stroke-dasharray="none" fill="black" stroke="black" font-family="Arial, sans-serif" font-size="10pt" font-weight="normal" font-style="normal" width="700" height="240" viewBox="0 0 700 240" style="width: 700px; height: 240px; border: none;"><text stroke="none" font-size="8pt" x="27" y="140">48px</text><path stroke-width="3" fill="none" stroke="red" d="M27 147L60.241 147"/><path stroke-width="3" fill="none" stroke="#999" d="M60.241 147L60.241 147"/><path stroke-width="3" fill="none" stroke="green" d="M60.241 147L75.32 147"/><path stroke-width="3" fill="none" stroke="#999" d="M75.32 147L75.32 147"/><path stroke-width="3" fill="none" stroke="red" d="M75.32 147L75.32 147"/><path stroke-width="3" fill="none" stroke="#DD0" d="M75.32 147L75.32 147"/><path stroke-width="3" fill="none" stroke="#BBB" d="M27 147L27 147"/><path stroke-width="3" fill="blue" stroke="none" d="M63.241 147 A3 3 0 0 0 57.241 147 A3 3 0 0 0 63.241 147Z"/><text stroke="none" font-size="8pt" x="112.32" y="140">89px</text><path stroke-width="3" fill="none" stroke="red" d="M112.32 147L175.09 147"/><path stroke-width="3" fill="none" stroke="#999" d="M175.09 147L175.09 147"/><path stroke-width="3" fill="none" stroke="green" d="M175.09 147L188.232 147"/><path stroke-width="3" fill="none" stroke="#999" d="M188.232 147L201.373 147"/><path stroke-width="3" fill="none" stroke="red" d="M201.373 147L201.373 147"/><path stroke-width="3" fill="none" stroke="#DD0" d="M201.373 147L201.373 147"/><path stroke-width="3" fill="none" stroke="#BBB" d="M112.32 147L112.32 147"/><path stroke-width="3" fill="blue" stroke="none" d="M178.09 147 A3 3 0 0 0 172.09 147 A3 3 0 0 0 178.09 147Z"/><text stroke="none" font-size="8pt" x="251.515" y="140">105px</text><path stroke-width="3" fill="none" stroke="red" d="M251.515 147L330.555 147"/><path stroke-width="3" fill="none" stroke="#999" d="M330.555 147L330.555 147"/><path stroke-width="3" fill="none" stroke="green" d="M330.555 147L356.838 147"/><path stroke-width="3" fill="none" stroke="#999" d="M356.838 147L356.838 147"/><path stroke-width="3" fill="none" stroke="red" d="M356.838 147L356.838 147"/><path stroke-width="3" fill="none" stroke="#DD0" d="M356.838 147L356.838 147"/><path stroke-width="3" fill="none" stroke="#BBB" d="M251.515 147L251.515 147"/><path stroke-width="3" fill="blue" stroke="none" d="M333.555 147 A3 3 0 0 0 327.555 147 A3 3 0 0 0 333.555 147Z"/><text stroke="none" font-size="8pt" x="393.838" y="140">79px</text><path stroke-width="3" fill="none" stroke="red" d="M393.838 147L457.592 147"/><path stroke-width="3" fill="none" stroke="#999" d="M457.592 147L457.592 147"/><path stroke-width="3" fill="none" stroke="green" d="M457.592 147L472.671 147"/><path stroke-width="3" fill="none" stroke="#999" d="M472.671 147L472.671 147"/><path stroke-width="3" fill="none" stroke="red" d="M472.671 147L472.671 147"/><path stroke-width="3" fill="none" stroke="#DD0" d="M472.671 147L472.671 147"/><path stroke-width="3" fill="none" stroke="#BBB" d="M393.838 147L393.838 147"/><path stroke-width="3" fill="blue" stroke="none" d="M460.592 147 A3 3 0 0 0 454.592 147 A3 3 0 0 0 460.592 147Z"/><text stroke="none" font-size="8pt" x="509.671" y="140">111px</text><path stroke-width="3" fill="none" stroke="red" d="M509.671 147L594.32 147"/><path stroke-width="3" fill="none" stroke="#999" d="M594.32 147L594.32 147"/><path stroke-width="3" fill="none" stroke="green" d="M594.32 147L620.603 147"/><path stroke-width="3" fill="none" stroke="#999" d="M620.603 147L620.603 147"/><path stroke-width="3" fill="none" stroke="red" d="M620.603 147L620.603 147"/><path stroke-width="3" fill="none" stroke="#DD0" d="M620.603 147L620.603 147"/><path stroke-width="3" fill="none" stroke="#BBB" d="M509.671 147L509.671 147"/><path stroke-width="3" fill="blue" stroke="none" d="M597.32 147 A3 3 0 0 0 591.32 147 A3 3 0 0 0 597.32 147Z"/><g class="vf-stave" id="vf-auto16315" stroke-width="1" fill="#999999" stroke="#999999"><path fill="none" d="M10 50L660 50"/><path fill="none" d="M10 60L660 60"/><path fill="none" d="M10 70L660 70"/><path fill="none" d="M10 80L660 80"/><path fill="none" d="M10 90L660 90"/></g><g class="vf-stavebarline" id="vf-auto16316"><rect x="10" y="49.5" width="1" height="41" stroke="none"/></g><g class="vf-stavebarline" id="vf-auto16317"><rect x="660" y="49.5" width="1" height="41" stroke="none"/></g><g class="vf-stavenote" id="vf-auto16318"><path stroke-width="1.4" fill="none" stroke="#444" d="M57.241 100L78.32 100"/><g class="vf-notehead" id="vf-auto16323" pointer-events="bounding-box"><path stroke="none" d="M67.794 94.496C62.235 94.496,60.241 97.332,60.241 99.972C60.241 102.583,62.235 105.419,67.794 105.419C73.382 105.419,75.32 102.583,75.32 99.972C75.32 97.332,73.382 94.496,67.794 94.496M69.872 103.875C69.367 104.044,68.721 104.128,68.131 104.128C66.98 104.128,66.222 103.791,65.688 102.78C65.183 101.769,64.453 99.186,64.397 98.091C64.313 96.995,64.734 96.35,65.688 96.041C66.194 95.872,66.84 95.788,67.429 95.788C68.581 95.788,69.311 96.041,69.872 97.136C70.434 98.231,71.164 100.814,71.164 101.825C71.164 102.864,70.827 103.594,69.872 103.875"/><path stroke="none" d="M46.635 97.702C46.635 95.267,45.157 94.063,43.188 94.063C41.382 94.063,40.506 94.911,40.287 95.239L40.369 82.708C40.369 82.435,40.123 82.189,39.85 82.189L39.521 82.189C39.248 82.189,39.029 82.435,39.029 82.708L39.193 106.43C39.193 106.703,39.412 106.922,39.685 106.922C39.822 106.922,39.85 106.867,39.932 106.813C39.932 106.813,42.093 105.527,43.707 103.967C44.856 102.873,46.635 100.711,46.635 97.702M42.558 95.787C43.981 95.787,44.118 97.127,44.118 97.948C44.118 98.14,44.118 98.304,44.118 98.413C44.118 99.015,43.954 100.465,42.969 101.97C42.257 103.037,40.944 104.268,40.205 104.897L40.233 97.072C40.233 97.209,40.287 97.291,40.287 97.209C40.287 96.854,40.835 95.787,42.558 95.787M30 97.702C30 100.711,31.778 102.873,32.928 103.967C34.542 105.527,36.703 106.813,36.703 106.813C36.785 106.867,36.813 106.922,36.922 106.922C37.223 106.922,37.442 106.703,37.442 106.43L37.606 82.708C37.606 82.435,37.36 82.189,37.086 82.189L36.785 82.189C36.512 82.189,36.265 82.435,36.265 82.708L36.348 95.239C36.101 94.911,35.253 94.063,33.42 94.063C31.45 94.063,30 95.267,30 97.702M34.049 95.787C35.8 95.787,36.348 96.854,36.348 97.209C36.348 97.291,36.375 97.209,36.375 97.072L36.43 104.897C35.664 104.268,34.378 103.037,33.666 101.97C32.681 100.465,32.517 99.015,32.517 98.413C32.517 98.304,32.517 98.14,32.517 97.948C32.517 97.127,32.627 95.787,34.049 95.787"/></g><g class="vf-notehead" id="vf-auto16324" pointer-events="bounding-box"><path stroke="none" d="M67.794 84.496C62.235 84.496,60.241 87.332,60.241 89.972C60.241 92.583,62.235 95.419,67.794 95.419C73.382 95.419,75.32 92.583,75.32 89.972C75.32 87.332,73.382 84.496,67.794 84.496M69.872 93.875C69.367 94.044,68.721 94.128,68.131 94.128C66.98 94.128,66.222 93.791,65.688 92.78C65.183 91.769,64.453 89.186,64.397 88.091C64.313 86.995,64.734 86.35,65.688 86.041C66.194 85.872,66.84 85.788,67.429 85.788C68.581 85.788,69.311 86.041,69.872 87.136C70.434 88.231,71.164 90.814,71.164 91.825C71.164 92.864,70.827 93.594,69.872 93.875"/><path stroke="none" d="M49.635 87.702C49.635 90.711,51.413 92.873,52.562 93.967C54.177 95.527,56.338 96.813,56.338 96.813C56.42 96.867,56.448 96.922,56.557 96.922C56.858 96.922,57.077 96.703,57.077 96.43L57.241 72.708C57.241 72.435,56.995 72.189,56.721 72.189L56.42 72.189C56.147 72.189,55.9 72.435,55.9 72.708L55.982 85.239C55.736 84.911,54.888 84.063,53.055 84.063C51.085 84.063,49.635 85.267,49.635 87.702M53.684 85.787C55.435 85.787,55.982 86.854,55.982 87.209C55.982 87.291,56.01 87.209,56.01 87.072L56.064 94.897C55.298 94.268,54.012 93.037,53.301 91.97C52.316 90.465,52.152 89.015,52.152 88.413C52.152 88.304,52.152 88.14,52.152 87.948C52.152 87.127,52.261 85.787,53.684 85.787"/></g><g class="vf-notehead" id="vf-auto16325" pointer-events="bounding-box"><path stroke="none" d="M67.794 69.496C62.235 69.496,60.241 72.332,60.241 74.972C60.241 77.583,62.235 80.419,67.794 80.419C73.382 80.419,75.32 77.583,75.32 74.972C75.32 72.332,73.382 69.496,67.794 69.496M69.872 78.875C69.367 79.044,68.721 79.128,68.131 79.128C66.98 79.128,66.222 78.791,65.688 77.78C65.183 76.769,64.453 74.186,64.397 73.091C64.313 71.995,64.734 71.35,65.688 71.041C66.194 70.872,66.84 70.788,67.429 70.788C68.581 70.788,69.311 71.041,69.872 72.136C70.434 73.231,71.164 75.814,71.164 76.825C71.164 77.864,70.827 78.594,69.872 78.875"/></g></g><g class="vf-stavenote" id="vf-auto16330"><g class="vf-stem" id="vf-auto16331" pointer-events="bounding-box"><path stroke-width="1.5" fill="none" d="M187.482 92.45L187.482 10"/></g><g class="vf-notehead" id="vf-auto16339" pointer-events="bounding-box"><path stroke="none" d="M183.711 89.665C179.78 89.665,175.09 92.95,175.09 96.685C175.09 98.426,176.354 100.391,179.611 100.391C183.823 100.391,188.232 96.938,188.232 93.371C188.232 90.985,186.21 89.665,183.711 89.665M182.616 96.769C182.504 96.853,179.527 98.482,178.123 98.482C176.775 98.482,176.494 97.387,176.494 97.022C176.494 95.337,180.538 93.343,180.706 93.259C180.875 93.175,183.739 91.574,185.199 91.574C186.182 91.574,186.828 92.136,186.828 93.006C186.828 94.747,182.728 96.685,182.616 96.769"/><path stroke="none" d="M130.386 77.736C130.44 77.708,130.495 77.708,130.577 77.708C130.823 77.708,131.042 77.818,131.124 78.037C131.152 78.146,131.152 78.146,131.152 81.457C131.152 83.317,131.152 84.795,131.152 84.795C131.152 84.795,132.328 84.33,133.751 83.782L136.35 82.743L136.35 80.472C136.35 78.201,136.35 78.146,136.405 78.037C136.487 77.818,136.706 77.708,136.925 77.708C137.062 77.708,137.226 77.736,137.335 77.845C137.472 78.037,137.472 77.818,137.472 80.198L137.472 82.332L139.223 81.621C140.673 81.074,141.029 80.937,141.193 80.937C141.275 80.937,141.33 80.937,141.357 80.964C141.603 81.046,141.713 81.265,141.713 81.484C141.713 81.676,141.658 81.867,141.466 81.977C141.439 82.031,140.536 82.36,139.442 82.797L137.472 83.591L137.472 87.257L137.472 90.951L137.554 90.869C138.566 89.993,139.688 89.555,140.728 89.555C141.138 89.555,141.549 89.61,141.959 89.774C143.135 90.185,143.819 91.334,143.819 92.702C143.819 93.413,143.628 94.207,143.218 95C142.616 96.094,141.85 96.97,139.688 98.885L137.581 100.882C137.171 101.265,137.144 101.265,136.925 101.265C136.733 101.265,136.624 101.211,136.514 101.101C136.35 100.937,136.35 101.101,136.35 99.323C136.35 99.049,136.35 98.721,136.35 98.283L136.35 95.793L136.213 95.93C135.584 96.778,134.955 97.408,133.341 98.885L131.234 100.882C130.851 101.265,130.769 101.265,130.577 101.265C130.358 101.265,130.167 101.129,130.085 100.937L130.057 100.882L130.03 93.687L130.03 86.518L128.334 87.148C126.966 87.722,126.637 87.832,126.446 87.832C126.418 87.832,126.364 87.832,126.309 87.804C126.063 87.722,125.926 87.503,125.926 87.257C125.926 87.066,126.035 86.874,126.2 86.765C126.227 86.737,127.075 86.382,128.115 86.026L130.03 85.26L130.03 81.676L130.057 78.119L130.085 78.009C130.139 77.873,130.276 77.763,130.386 77.736M136.35 87.12C136.35 85.397,136.35 84.029,136.35 84.029C136.323 84.029,135.174 84.494,133.724 85.014L131.152 86.053L131.152 88.488L131.152 90.951L131.179 90.869C132.219 89.993,133.395 89.555,134.435 89.555C135.092 89.555,135.721 89.747,136.241 90.075L136.323 90.157C136.323 90.157,136.323 90.157,136.323 90.157C136.35 90.157,136.35 89.555,136.35 87.12M133.614 91.416C133.505 91.361,133.341 91.361,133.231 91.361C133.149 91.361,133.094 91.361,133.04 91.361C132.328 91.471,131.699 91.908,131.261 92.62L131.152 92.811L131.152 96.012L131.152 99.268L131.234 99.159C133.231 96.97,134.544 94.453,134.544 92.784L134.544 92.729C134.544 91.908,134.271 91.553,133.614 91.416M139.934 91.416C139.825 91.361,139.688 91.361,139.579 91.361C139.524 91.361,139.442 91.361,139.414 91.361C138.703 91.471,138.074 91.908,137.636 92.62L137.472 92.811L137.472 96.012L137.472 99.268L137.581 99.159C139.579 96.97,140.865 94.453,140.865 92.784L140.865 92.729C140.865 91.908,140.646 91.553,139.934 91.416"/></g><g class="vf-notehead" id="vf-auto16340" pointer-events="bounding-box"><path stroke="none" d="M196.102 84.665C192.171 84.665,187.482 87.95,187.482 91.685C187.482 93.426,188.746 95.391,192.003 95.391C196.215 95.391,200.623 91.938,200.623 88.371C200.623 85.985,198.602 84.665,196.102 84.665M195.007 91.769C194.895 91.853,191.919 93.482,190.515 93.482C189.167 93.482,188.886 92.387,188.886 92.022C188.886 90.337,192.929 88.343,193.098 88.259C193.266 88.175,196.131 86.574,197.591 86.574C198.574 86.574,199.219 87.136,199.219 88.006C199.219 89.747,195.12 91.685,195.007 91.769"/><path stroke="none" d="M157.763 85.677C158.01 85.622,158.201 85.349,158.201 85.103L158.201 82.777C158.201 82.476,158.01 82.23,157.681 82.23C157.654 82.23,157.627 82.23,157.572 82.23L156.341 82.503L156.341 76.648L155.246 76.648L155.246 82.75L152.921 83.215L152.921 77.278L151.854 77.278L151.854 83.434L149.774 83.844L149.774 77.907L148.707 77.907L148.707 84.09L147.257 84.419C147.011 84.446,146.819 84.692,146.819 84.911L146.819 87.209C146.819 87.51,147.066 87.756,147.367 87.756C147.421 87.756,147.449 87.756,147.476 87.756L148.707 87.483L148.707 94.022L147.257 94.323C147.011 94.378,146.819 94.596,146.819 94.843L146.819 97.141C146.819 97.442,147.066 97.688,147.367 97.688C147.421 97.688,147.449 97.688,147.476 97.688L148.707 97.442L148.707 102.914L149.774 102.914L149.774 97.223L151.854 96.785L151.854 102.339L152.921 102.339L152.921 96.566L155.246 96.101L155.246 101.655L156.341 101.655L156.341 95.882L157.763 95.581C158.01 95.554,158.256 95.28,158.256 95.034L158.256 92.709C158.256 92.408,158.01 92.161,157.681 92.161C157.654 92.161,157.627 92.161,157.572 92.161L156.341 92.435L156.341 85.951M151.854 93.338L149.774 93.776L149.774 87.291L151.854 86.854M152.921 86.662L155.246 86.17L155.246 92.681L152.921 93.146"/></g><g class="vf-notehead" id="vf-auto16341" pointer-events="bounding-box"><path stroke="none" d="M183.711 79.665C179.78 79.665,175.09 82.95,175.09 86.685C175.09 88.426,176.354 90.391,179.611 90.391C183.823 90.391,188.232 86.938,188.232 83.371C188.232 80.985,186.21 79.665,183.711 79.665M182.616 86.769C182.504 86.853,179.527 88.482,178.123 88.482C176.775 88.482,176.494 87.387,176.494 87.022C176.494 85.337,180.538 83.343,180.706 83.259C180.875 83.175,183.739 81.574,185.199 81.574C186.182 81.574,186.828 82.136,186.828 83.006C186.828 84.747,182.728 86.685,182.616 86.769"/><path stroke="none" d="M171.653 81.06C171.899 81.033,172.09 80.732,172.09 80.513L172.09 78.187C172.09 77.859,171.872 77.64,171.543 77.64C171.516 77.64,171.461 77.668,171.434 77.668L169.108 78.133L169.108 72.387L167.986 72.387L167.986 78.379L165.442 78.926C165.196 78.981,165.004 79.2,165.004 79.446L165.004 81.717C165.004 82.045,165.25 82.291,165.551 82.291C165.606 82.291,165.634 82.291,165.661 82.291L167.986 81.799L167.986 88.311L165.442 88.858C165.196 88.912,165.004 89.131,165.004 89.378L165.004 91.648C165.004 91.977,165.25 92.223,165.551 92.223C165.606 92.223,165.634 92.223,165.661 92.223L167.986 91.731L167.986 97.449L169.108 97.449L169.108 91.512L171.653 90.992C171.899 90.937,172.09 90.664,172.09 90.445L172.09 88.119C172.09 87.791,171.872 87.599,171.543 87.599C171.516 87.599,171.461 87.599,171.434 87.599L169.108 88.064L169.108 81.58"/></g><g class="vf-notehead" id="vf-auto16342" pointer-events="bounding-box"><path stroke="none" d="M183.711 69.665C179.78 69.665,175.09 72.95,175.09 76.685C175.09 78.426,176.354 80.391,179.611 80.391C183.823 80.391,188.232 76.938,188.232 73.371C188.232 70.985,186.21 69.665,183.711 69.665M182.616 76.769C182.504 76.853,179.527 78.482,178.123 78.482C176.775 78.482,176.494 77.387,176.494 77.022C176.494 75.337,180.538 73.343,180.706 73.259C180.875 73.175,183.739 71.574,185.199 71.574C186.182 71.574,186.828 72.136,186.828 73.006C186.828 74.747,182.728 76.685,182.616 76.769"/><path stroke="none" d="M115.32 72.702C115.32 75.711,117.098 77.873,118.247 78.967C119.862 80.527,122.023 81.813,122.023 81.813C122.105 81.867,122.133 81.922,122.242 81.922C122.543 81.922,122.762 81.703,122.762 81.43L122.926 57.708C122.926 57.435,122.68 57.189,122.406 57.189L122.105 57.189C121.832 57.189,121.585 57.435,121.585 57.708L121.667 70.239C121.421 69.911,120.573 69.063,118.74 69.063C116.77 69.063,115.32 70.267,115.32 72.702M119.369 70.787C121.12 70.787,121.667 71.854,121.667 72.209C121.667 72.291,121.695 72.209,121.695 72.072L121.75 79.897C120.983 79.268,119.698 78.037,118.986 76.97C118.001 75.465,117.837 74.015,117.837 73.413C117.837 73.304,117.837 73.14,117.837 72.948C117.837 72.127,117.946 70.787,119.369 70.787"/></g><g class="vf-notehead" id="vf-auto16343" pointer-events="bounding-box"><path stroke="none" d="M183.711 59.665C179.78 59.665,175.09 62.95,175.09 66.685C175.09 68.426,176.354 70.391,179.611 70.391C183.823 70.391,188.232 66.938,188.232 63.371C188.232 60.985,186.21 59.665,183.711 59.665M182.616 66.769C182.504 66.853,179.527 68.482,178.123 68.482C176.775 68.482,176.494 67.387,176.494 67.022C176.494 65.337,180.538 63.343,180.706 63.259C180.875 63.175,183.739 61.574,185.199 61.574C186.182 61.574,186.828 62.136,186.828 63.006C186.828 64.747,182.728 66.685,182.616 66.769"/><path stroke="none" d="M143.819 62.702C143.819 60.267,142.342 59.063,140.372 59.063C138.566 59.063,137.691 59.911,137.472 60.239L137.554 47.708C137.554 47.435,137.308 47.189,137.034 47.189L136.706 47.189C136.432 47.189,136.213 47.435,136.213 47.708L136.378 71.43C136.378 71.703,136.596 71.922,136.87 71.922C137.007 71.922,137.034 71.867,137.116 71.813C137.116 71.813,139.278 70.527,140.892 68.967C142.041 67.873,143.819 65.711,143.819 62.702M139.743 60.787C141.166 60.787,141.302 62.127,141.302 62.948C141.302 63.14,141.302 63.304,141.302 63.413C141.302 64.015,141.138 65.465,140.153 66.97C139.442 68.037,138.129 69.268,137.39 69.897L137.417 62.072C137.417 62.209,137.472 62.291,137.472 62.209C137.472 61.854,138.019 60.787,139.743 60.787M127.185 62.702C127.185 65.711,128.963 67.873,130.112 68.967C131.726 70.527,133.888 71.813,133.888 71.813C133.97 71.867,133.997 71.922,134.107 71.922C134.408 71.922,134.626 71.703,134.626 71.43L134.791 47.708C134.791 47.435,134.544 47.189,134.271 47.189L133.97 47.189C133.696 47.189,133.45 47.435,133.45 47.708L133.532 60.239C133.286 59.911,132.438 59.063,130.605 59.063C128.635 59.063,127.185 60.267,127.185 62.702M131.234 60.787C132.985 60.787,133.532 61.854,133.532 62.209C133.532 62.291,133.559 62.209,133.559 62.072L133.614 69.897C132.848 69.268,131.562 68.037,130.851 66.97C129.866 65.465,129.702 64.015,129.702 63.413C129.702 63.304,129.702 63.14,129.702 62.948C129.702 62.127,129.811 60.787,131.234 60.787"/></g><g class="vf-notehead" id="vf-auto16344" pointer-events="bounding-box"><path stroke="none" d="M183.711 49.665C179.78 49.665,175.09 52.95,175.09 56.685C175.09 58.426,176.354 60.391,179.611 60.391C183.823 60.391,188.232 56.938,188.232 53.371C188.232 50.985,186.21 49.665,183.711 49.665M182.616 56.769C182.504 56.853,179.527 58.482,178.123 58.482C176.775 58.482,176.494 57.387,176.494 57.022C176.494 55.337,180.538 53.343,180.706 53.259C180.875 53.175,183.739 51.574,185.199 51.574C186.182 51.574,186.828 52.136,186.828 53.006C186.828 54.747,182.728 56.685,182.616 56.769"/><path stroke="none" d="M157.818 51.06C158.064 51.033,158.256 50.732,158.256 50.513L158.256 48.187C158.256 47.859,158.037 47.64,157.709 47.64C157.681 47.64,157.627 47.668,157.599 47.668L155.274 48.133L155.274 42.387L154.152 42.387L154.152 48.379L151.607 48.926C151.361 48.981,151.17 49.2,151.17 49.446L151.17 51.717C151.17 52.045,151.416 52.291,151.717 52.291C151.772 52.291,151.799 52.291,151.826 52.291L154.152 51.799L154.152 58.311L151.607 58.858C151.361 58.912,151.17 59.131,151.17 59.378L151.17 61.648C151.17 61.977,151.416 62.223,151.717 62.223C151.772 62.223,151.799 62.223,151.826 62.223L154.152 61.731L154.152 67.449L155.274 67.449L155.274 61.512L157.818 60.992C158.064 60.937,158.256 60.664,158.256 60.445L158.256 58.119C158.256 57.791,158.037 57.599,157.709 57.599C157.681 57.599,157.627 57.599,157.599 57.599L155.274 58.064L155.274 51.58"/></g><g class="vf-notehead" id="vf-auto16345" pointer-events="bounding-box"><path stroke="none" d="M183.711 39.665C179.78 39.665,175.09 42.95,175.09 46.685C175.09 48.426,176.354 50.391,179.611 50.391C183.823 50.391,188.232 46.938,188.232 43.371C188.232 40.985,186.21 39.665,183.711 39.665M182.616 46.769C182.504 46.853,179.527 48.482,178.123 48.482C176.775 48.482,176.494 47.387,176.494 47.022C176.494 45.337,180.538 43.343,180.706 43.259C180.875 43.175,183.739 41.574,185.199 41.574C186.182 41.574,186.828 42.136,186.828 43.006C186.828 44.747,182.728 46.685,182.616 46.769"/><path stroke="none" d="M171.106 43.003L171.543 43.003C171.844 43.003,172.09 42.756,172.09 42.428L172.09 40.103C172.09 39.802,171.844 39.555,171.543 39.555L169.218 39.555C168.889 39.555,168.67 39.802,168.67 40.103L168.67 40.595L168.67 42.209L166.728 44.179L166.618 44.179L164.649 42.209L164.649 40.103C164.649 39.802,164.457 39.555,164.129 39.555L161.803 39.555C161.502 39.555,161.256 39.802,161.256 40.103L161.256 42.428C161.256 42.756,161.502 43.003,161.803 43.003L162.214 43.003L162.241 43.003L163.882 43.003L165.825 44.918L165.825 45.027L163.882 46.997L162.241 46.997L162.214 46.997L161.803 46.997C161.502 46.997,161.256 47.216,161.256 47.517L161.256 49.843C161.256 50.171,161.502 50.39,161.803 50.39L164.129 50.39C164.457 50.39,164.649 50.171,164.649 49.843L164.649 47.763L166.618 45.876L166.728 45.876L168.67 47.763L168.67 49.405L168.67 49.46L168.67 49.843C168.67 50.171,168.889 50.39,169.218 50.39L171.543 50.39C171.844 50.39,172.09 50.171,172.09 49.843L172.09 47.517C172.09 47.216,171.844 46.997,171.543 46.997L171.133 46.997L171.106 46.997L169.464 46.997L167.494 45.027L167.494 44.973L169.464 43.003"/></g></g><g class="vf-stavenote" id="vf-auto16360"><g class="vf-stem" id="vf-auto16361" pointer-events="bounding-box"><path stroke-width="1.5" fill="none" d="M342.946 83L342.946 13"/></g><g class="vf-notehead" id="vf-auto16370" pointer-events="bounding-box"><path stroke="none" d="M330.555 86.685C330.555 88.426,331.819 90.391,335.076 90.391C339.288 90.391,343.696 86.938,343.696 83.371C343.696 80.985,341.675 79.665,339.176 79.665C335.244 79.665,330.555 82.978,330.555 86.685"/><path stroke="none" d="M306.169 80.677C306.415 80.622,306.607 80.349,306.607 80.103L306.607 77.777C306.607 77.476,306.415 77.23,306.087 77.23C306.06 77.23,306.032 77.23,305.978 77.23L304.746 77.503L304.746 71.648L303.652 71.648L303.652 77.75L301.326 78.215L301.326 72.278L300.259 72.278L300.259 78.434L298.18 78.844L298.18 72.907L297.113 72.907L297.113 79.09L295.663 79.419C295.417 79.446,295.225 79.692,295.225 79.911L295.225 82.209C295.225 82.51,295.471 82.756,295.772 82.756C295.827 82.756,295.854 82.756,295.882 82.756L297.113 82.483L297.113 89.022L295.663 89.323C295.417 89.378,295.225 89.596,295.225 89.843L295.225 92.141C295.225 92.442,295.471 92.688,295.772 92.688C295.827 92.688,295.854 92.688,295.882 92.688L297.113 92.442L297.113 97.914L298.18 97.914L298.18 92.223L300.259 91.785L300.259 97.339L301.326 97.339L301.326 91.566L303.652 91.101L303.652 96.655L304.746 96.655L304.746 90.882L306.169 90.581C306.415 90.554,306.662 90.28,306.662 90.034L306.662 87.709C306.662 87.408,306.415 87.161,306.087 87.161C306.06 87.161,306.032 87.161,305.978 87.161L304.746 87.435L304.746 80.951M300.259 88.338L298.18 88.776L298.18 82.291L300.259 81.854M301.326 81.662L303.652 81.17L303.652 87.681L301.326 88.146"/></g><g class="vf-notehead" id="vf-auto16371" pointer-events="bounding-box"><path stroke="none" d="M342.946 81.685C342.946 83.426,344.21 85.391,347.467 85.391C351.679 85.391,356.088 81.938,356.088 78.371C356.088 75.985,354.066 74.665,351.567 74.665C347.636 74.665,342.946 77.978,342.946 81.685"/><path stroke="none" d="M314.121 62.736C314.176 62.708,314.231 62.708,314.313 62.708C314.559 62.708,314.778 62.818,314.86 63.037C314.887 63.146,314.887 63.146,314.887 66.457C314.887 68.317,314.887 69.795,314.887 69.795C314.887 69.795,316.064 69.33,317.486 68.782L320.086 67.743L320.086 65.472C320.086 63.201,320.086 63.146,320.14 63.037C320.222 62.818,320.441 62.708,320.66 62.708C320.797 62.708,320.961 62.736,321.071 62.845C321.207 63.037,321.207 62.818,321.207 65.198L321.207 67.332L322.958 66.621C324.409 66.074,324.764 65.937,324.928 65.937C325.01 65.937,325.065 65.937,325.093 65.964C325.339 66.046,325.448 66.265,325.448 66.484C325.448 66.676,325.394 66.867,325.202 66.977C325.175 67.031,324.272 67.36,323.177 67.797L321.207 68.591L321.207 72.257L321.207 75.951L321.29 75.869C322.302 74.993,323.424 74.555,324.463 74.555C324.874 74.555,325.284 74.61,325.694 74.774C326.871 75.185,327.555 76.334,327.555 77.702C327.555 78.413,327.363 79.207,326.953 80C326.351 81.094,325.585 81.97,323.424 83.885L321.317 85.882C320.906 86.265,320.879 86.265,320.66 86.265C320.469 86.265,320.359 86.211,320.25 86.101C320.086 85.937,320.086 86.101,320.086 84.323C320.086 84.049,320.086 83.721,320.086 83.283L320.086 80.793L319.949 80.93C319.32 81.778,318.69 82.408,317.076 83.885L314.969 85.882C314.586 86.265,314.504 86.265,314.313 86.265C314.094 86.265,313.902 86.129,313.82 85.937L313.793 85.882L313.766 78.687L313.766 71.518L312.069 72.148C310.701 72.722,310.373 72.832,310.181 72.832C310.154 72.832,310.099 72.832,310.045 72.804C309.798 72.722,309.662 72.503,309.662 72.257C309.662 72.066,309.771 71.874,309.935 71.765C309.962 71.737,310.811 71.382,311.85 71.026L313.766 70.26L313.766 66.676L313.793 63.119L313.82 63.009C313.875 62.873,314.012 62.763,314.121 62.736M320.086 72.12C320.086 70.397,320.086 69.029,320.086 69.029C320.058 69.029,318.909 69.494,317.459 70.014L314.887 71.053L314.887 73.488L314.887 75.951L314.915 75.869C315.954 74.993,317.131 74.555,318.17 74.555C318.827 74.555,319.456 74.747,319.976 75.075L320.058 75.157C320.058 75.157,320.058 75.157,320.058 75.157C320.086 75.157,320.086 74.555,320.086 72.12M317.35 76.416C317.24 76.361,317.076 76.361,316.967 76.361C316.885 76.361,316.83 76.361,316.775 76.361C316.064 76.471,315.434 76.908,314.997 77.62L314.887 77.811L314.887 81.012L314.887 84.268L314.969 84.159C316.967 81.97,318.28 79.453,318.28 77.784L318.28 77.729C318.28 76.908,318.006 76.553,317.35 76.416M323.67 76.416C323.56 76.361,323.424 76.361,323.314 76.361C323.259 76.361,323.177 76.361,323.15 76.361C322.439 76.471,321.809 76.908,321.372 77.62L321.207 77.811L321.207 81.012L321.207 84.268L321.317 84.159C323.314 81.97,324.6 79.453,324.6 77.784L324.6 77.729C324.6 76.908,324.381 76.553,323.67 76.416"/></g><g class="vf-notehead" id="vf-auto16372" pointer-events="bounding-box"><path stroke="none" d="M330.555 76.685C330.555 78.426,331.819 80.391,335.076 80.391C339.288 80.391,343.696 76.938,343.696 73.371C343.696 70.985,341.675 69.665,339.176 69.665C335.244 69.665,330.555 72.978,330.555 76.685"/><path stroke="none" d="M261.163 71.06C261.41 71.033,261.601 70.732,261.601 70.513L261.601 68.187C261.601 67.859,261.382 67.64,261.054 67.64C261.026 67.64,260.972 67.668,260.944 67.668L258.619 68.133L258.619 62.387L257.497 62.387L257.497 68.379L254.953 68.926C254.706 68.981,254.515 69.2,254.515 69.446L254.515 71.717C254.515 72.045,254.761 72.291,255.062 72.291C255.117 72.291,255.144 72.291,255.171 72.291L257.497 71.799L257.497 78.311L254.953 78.858C254.706 78.912,254.515 79.131,254.515 79.378L254.515 81.648C254.515 81.977,254.761 82.223,255.062 82.223C255.117 82.223,255.144 82.223,255.171 82.223L257.497 81.731L257.497 87.449L258.619 87.449L258.619 81.512L261.163 80.992C261.41 80.937,261.601 80.664,261.601 80.445L261.601 78.119C261.601 77.791,261.382 77.599,261.054 77.599C261.026 77.599,260.972 77.599,260.944 77.599L258.619 78.064L258.619 71.58"/></g><g class="vf-notehead" id="vf-auto16373" pointer-events="bounding-box"><path stroke="none" d="M342.946 71.685C342.946 73.426,344.21 75.391,347.467 75.391C351.679 75.391,356.088 71.938,356.088 68.371C356.088 65.985,354.066 64.665,351.567 64.665C347.636 64.665,342.946 67.978,342.946 71.685"/><path stroke="none" d="M272.508 66.881C272.289 65.349,271.332 63.899,269.334 63.899C267.364 63.899,266.215 65.103,266.024 65.349L266.188 52.708C266.188 52.38,265.942 52.161,265.613 52.161L265.148 52.161C264.847 52.161,264.601 52.38,264.601 52.708L264.793 76.375C264.793 76.703,265.039 76.922,265.34 76.922C265.422 76.922,265.586 76.895,265.668 76.867C265.832 76.785,268.377 75.527,270.511 73.119C272.016 71.423,272.59 69.48,272.59 67.866C272.59 67.51,272.563 67.209,272.508 66.881M269.799 68.413C269.799 69.015,269.635 70.821,268.65 72.326C267.994 73.338,266.653 74.405,265.914 75.007L266.024 67.319C266.106 66.963,266.68 65.814,268.267 65.814C269.69 65.814,269.799 67.155,269.799 68.003C269.799 68.194,269.799 68.304,269.799 68.413"/></g><g class="vf-notehead" id="vf-auto16374" pointer-events="bounding-box"><path stroke="none" d="M330.555 66.685C330.555 68.426,331.819 70.391,335.076 70.391C339.288 70.391,343.696 66.938,343.696 63.371C343.696 60.985,341.675 59.665,339.176 59.665C335.244 59.665,330.555 62.978,330.555 66.685"/><path stroke="none" d="M292.225 62.702C292.225 60.267,290.748 59.063,288.778 59.063C286.972 59.063,286.096 59.911,285.878 60.239L285.96 47.708C285.96 47.435,285.713 47.189,285.44 47.189L285.111 47.189C284.838 47.189,284.619 47.435,284.619 47.708L284.783 71.43C284.783 71.703,285.002 71.922,285.276 71.922C285.412 71.922,285.44 71.867,285.522 71.813C285.522 71.813,287.683 70.527,289.298 68.967C290.447 67.873,292.225 65.711,292.225 62.702M288.148 60.787C289.571 60.787,289.708 62.127,289.708 62.948C289.708 63.14,289.708 63.304,289.708 63.413C289.708 64.015,289.544 65.465,288.559 66.97C287.847 68.037,286.534 69.268,285.795 69.897L285.823 62.072C285.823 62.209,285.878 62.291,285.878 62.209C285.878 61.854,286.425 60.787,288.148 60.787M275.59 62.702C275.59 65.711,277.369 67.873,278.518 68.967C280.132 70.527,282.293 71.813,282.293 71.813C282.375 71.867,282.403 71.922,282.512 71.922C282.813 71.922,283.032 71.703,283.032 71.43L283.196 47.708C283.196 47.435,282.95 47.189,282.676 47.189L282.375 47.189C282.102 47.189,281.856 47.435,281.856 47.708L281.938 60.239C281.691 59.911,280.843 59.063,279.01 59.063C277.04 59.063,275.59 60.267,275.59 62.702M279.639 60.787C281.39 60.787,281.938 61.854,281.938 62.209C281.938 62.291,281.965 62.209,281.965 62.072L282.02 69.897C281.254 69.268,279.968 68.037,279.256 66.97C278.271 65.465,278.107 64.015,278.107 63.413C278.107 63.304,278.107 63.14,278.107 62.948C278.107 62.127,278.217 60.787,279.639 60.787"/></g><g class="vf-notehead" id="vf-auto16375" pointer-events="bounding-box"><path stroke="none" d="M330.555 56.685C330.555 58.426,331.819 60.391,335.076 60.391C339.288 60.391,343.696 56.938,343.696 53.371C343.696 50.985,341.675 49.665,339.176 49.665C335.244 49.665,330.555 52.978,330.555 56.685"/><path stroke="none" d="M305.677 53.003L306.114 53.003C306.415 53.003,306.662 52.756,306.662 52.428L306.662 50.103C306.662 49.802,306.415 49.555,306.114 49.555L303.789 49.555C303.46 49.555,303.242 49.802,303.242 50.103L303.242 50.595L303.242 52.209L301.299 54.179L301.19 54.179L299.22 52.209L299.22 50.103C299.22 49.802,299.028 49.555,298.7 49.555L296.374 49.555C296.073 49.555,295.827 49.802,295.827 50.103L295.827 52.428C295.827 52.756,296.073 53.003,296.374 53.003L296.785 53.003L296.812 53.003L298.454 53.003L300.396 54.918L300.396 55.027L298.454 56.997L296.812 56.997L296.785 56.997L296.374 56.997C296.073 56.997,295.827 57.216,295.827 57.517L295.827 59.843C295.827 60.171,296.073 60.39,296.374 60.39L298.7 60.39C299.028 60.39,299.22 60.171,299.22 59.843L299.22 57.763L301.19 55.876L301.299 55.876L303.242 57.763L303.242 59.405L303.242 59.46L303.242 59.843C303.242 60.171,303.46 60.39,303.789 60.39L306.114 60.39C306.415 60.39,306.662 60.171,306.662 59.843L306.662 57.517C306.662 57.216,306.415 56.997,306.114 56.997L305.704 56.997L305.677 56.997L304.035 56.997L302.065 55.027L302.065 54.973L304.035 53.003"/></g><g class="vf-notehead" id="vf-auto16376" pointer-events="bounding-box"><path stroke="none" d="M330.555 46.685C330.555 48.426,331.819 50.391,335.076 50.391C339.288 50.391,343.696 46.938,343.696 43.371C343.696 40.985,341.675 39.665,339.176 39.665C335.244 39.665,330.555 42.978,330.555 46.685"/><path stroke="none" d="M327.145 40.869C327.363 40.814,327.555 40.54,327.555 40.321L327.555 37.996C327.555 37.668,327.336 37.449,327.008 37.449C326.98 37.449,326.98 37.449,326.926 37.449L325.64 37.722L325.64 31.84L324.518 31.84L324.518 37.941L321.016 38.652L321.016 33.098L319.922 33.098L319.922 38.899L318.389 39.2C318.143 39.254,317.952 39.528,317.952 39.747L317.952 39.829L317.952 42.127L317.952 42.045C317.952 42.373,318.198 42.592,318.499 42.592C318.554 42.592,318.581 42.592,318.608 42.592L319.922 42.319L319.922 48.83L318.389 49.131C318.143 49.186,317.952 49.46,317.952 49.679L317.952 51.977C317.952 52.278,318.198 52.524,318.499 52.524C318.554 52.524,318.581 52.524,318.608 52.524L319.922 52.25L319.922 58.133L321.016 58.133L321.016 52.004L324.518 51.293L324.518 56.847L325.64 56.847L325.64 51.074L327.145 50.8C327.363 50.746,327.555 50.472,327.555 50.253L327.555 47.928C327.555 47.599,327.336 47.353,327.008 47.353C326.98 47.353,326.98 47.353,326.926 47.353L325.64 47.627L325.64 41.142M321.016 42.072L324.518 41.388L324.518 47.873L321.016 48.612"/></g><path stroke="none" d="M350.648 27.122C349.553 25.718,348.346 24.427,346.352 22.433C344.78 20.861,344.05 19.485,343.769 18.446C343.741 18.221,343.685 17.94,343.657 17.631C345.706 17.631,348.346 20.411,349.806 22.321C351.379 24.371,351.744 25.999,351.744 27.544C351.744 27.937,351.687 28.33,351.659 28.751C351.322 28.105,350.957 27.572,350.648 27.122M342.196 23.416C342.196 23.528,342.533 23.697,342.814 23.809C343.853 24.174,346.998 26.196,349.441 29.79C350.817 31.868,351.126 33.3,351.126 34.676C351.126 34.929,351.126 35.125,351.098 35.378C351.098 36.333,350.817 38.411,350.199 40.011C350.171 40.236,350.031 40.46,350.031 40.685C350.031 40.826,350.115 40.994,350.312 41.106C350.396 41.162,350.452 41.162,350.536 41.162C350.817 41.162,350.957 40.826,351.126 40.601C351.856 39.45,352.923 37.287,352.923 35.013C352.923 33.834,352.839 32.879,352.698 32.008C353.12 30.52,353.485 29.032,353.485 27.038C353.485 24.932,352.923 23.051,351.547 21.226C349.638 18.727,347.588 16.621,346.043 14.402C344.499 12.156,343.376 8,343.376 8C343.292 7.719,343.235 7.523,342.814 7.523C342.309 7.523,342.196 7.719,342.196 8"/></g><g class="vf-stavenote" id="vf-auto16392"><path stroke-width="1.4" fill="none" stroke="#444" d="M454.592 100L475.671 100"/><path stroke-width="1.4" fill="none" stroke="#444" d="M454.592 110L475.671 110"/><g class="vf-notehead" id="vf-auto16400" pointer-events="bounding-box"><path stroke="none" d="M465.146 104.496C459.586 104.496,457.592 107.332,457.592 109.972C457.592 112.583,459.586 115.419,465.146 115.419C470.734 115.419,472.671 112.583,472.671 109.972C472.671 107.332,470.734 104.496,465.146 104.496M467.224 113.875C466.718 114.044,466.072 114.128,465.483 114.128C464.331 114.128,463.573 113.791,463.04 112.78C462.534 111.769,461.804 109.186,461.748 108.091C461.664 106.995,462.085 106.35,463.04 106.041C463.545 105.872,464.191 105.788,464.781 105.788C465.932 105.788,466.662 106.041,467.224 107.136C467.785 108.231,468.515 110.814,468.515 111.825C468.515 112.864,468.178 113.594,467.224 113.875"/><path stroke="none" d="M429.643 105.869C429.862 105.814,430.053 105.54,430.053 105.321L430.053 102.996C430.053 102.668,429.834 102.449,429.506 102.449C429.478 102.449,429.478 102.449,429.424 102.449L428.138 102.722L428.138 96.84L427.016 96.84L427.016 102.941L423.514 103.652L423.514 98.098L422.42 98.098L422.42 103.899L420.887 104.2C420.641 104.254,420.45 104.528,420.45 104.747L420.45 104.829L420.45 107.127L420.45 107.045C420.45 107.373,420.696 107.592,420.997 107.592C421.052 107.592,421.079 107.592,421.106 107.592L422.42 107.319L422.42 113.83L420.887 114.131C420.641 114.186,420.45 114.46,420.45 114.679L420.45 116.977C420.45 117.278,420.696 117.524,420.997 117.524C421.052 117.524,421.079 117.524,421.106 117.524L422.42 117.25L422.42 123.133L423.514 123.133L423.514 117.004L427.016 116.293L427.016 121.847L428.138 121.847L428.138 116.074L429.643 115.8C429.862 115.746,430.053 115.472,430.053 115.253L430.053 112.928C430.053 112.599,429.834 112.353,429.506 112.353C429.478 112.353,429.478 112.353,429.424 112.353L428.138 112.627L428.138 106.142M423.514 107.072L427.016 106.388L427.016 112.873L423.514 113.612"/></g><g class="vf-notehead" id="vf-auto16401" pointer-events="bounding-box"><path stroke="none" d="M465.146 94.496C459.586 94.496,457.592 97.332,457.592 99.972C457.592 102.583,459.586 105.419,465.146 105.419C470.734 105.419,472.671 102.583,472.671 99.972C472.671 97.332,470.734 94.496,465.146 94.496M467.224 103.875C466.718 104.044,466.072 104.128,465.483 104.128C464.331 104.128,463.573 103.791,463.04 102.78C462.534 101.769,461.804 99.186,461.748 98.091C461.664 96.995,462.085 96.35,463.04 96.041C463.545 95.872,464.191 95.788,464.781 95.788C465.932 95.788,466.662 96.041,467.224 97.136C467.785 98.231,468.515 100.814,468.515 101.825C468.515 102.864,468.178 103.594,467.224 103.875"/><path stroke="none" d="M415.474 93.851C415.414 93.871,415.393 93.871,415.353 93.912C415.293 93.932,415.272 93.992,415.272 94.053C415.272 94.073,415.272 94.113,415.293 94.174C415.293 94.194,416.643 96.774,416.643 100.202C416.643 101.915,416.28 103.871,415.293 105.806C415.272 105.826,415.272 105.867,415.272 105.887C415.272 105.947,415.293 106.008,415.353 106.048C415.414 106.068,415.454 106.088,415.514 106.068C415.555 106.068,415.595 106.048,415.615 106.008C415.716 105.887,417.45 103.508,417.45 100C417.45 96.492,415.716 94.053,415.615 93.932C415.595 93.871,415.534 93.851,415.474 93.851"/><path stroke="none" d="M414.272 98.307C414.272 96.512,413.184 95.625,411.732 95.625C410.402 95.625,409.757 96.25,409.595 96.492L409.656 87.259C409.656 87.057,409.474 86.876,409.273 86.876L409.031 86.876C408.829 86.876,408.668 87.057,408.668 87.259L408.789 104.738C408.789 104.939,408.95 105.1,409.152 105.1C409.253 105.1,409.273 105.06,409.333 105.02C409.333 105.02,410.926 104.072,412.115 102.923C412.962 102.117,414.272 100.524,414.272 98.307M411.269 96.895C412.317 96.895,412.418 97.883,412.418 98.488C412.418 98.629,412.418 98.75,412.418 98.831C412.418 99.274,412.297 100.343,411.571 101.452C411.047 102.238,410.079 103.145,409.535 103.609L409.555 97.843C409.555 97.944,409.595 98.004,409.595 97.944C409.595 97.682,409.998 96.895,411.269 96.895M402.015 98.307C402.015 100.524,403.326 102.117,404.172 102.923C405.362 104.072,406.954 105.02,406.954 105.02C407.015 105.06,407.035 105.1,407.116 105.1C407.337 105.1,407.499 104.939,407.499 104.738L407.62 87.259C407.62 87.057,407.438 86.876,407.237 86.876L407.015 86.876C406.813 86.876,406.632 87.057,406.632 87.259L406.692 96.492C406.511 96.25,405.886 95.625,404.535 95.625C403.084 95.625,402.015 96.512,402.015 98.307M404.999 96.895C406.289 96.895,406.692 97.682,406.692 97.944C406.692 98.004,406.712 97.944,406.712 97.843L406.753 103.609C406.188 103.145,405.241 102.238,404.717 101.452C403.991 100.343,403.87 99.274,403.87 98.831C403.87 98.75,403.87 98.629,403.87 98.488C403.87 97.883,403.95 96.895,404.999 96.895"/><path stroke="none" d="M399.814 106.149C399.874 106.129,399.894 106.129,399.934 106.088C399.995 106.068,400.015 106.008,400.015 105.947C400.015 105.927,400.015 105.887,399.995 105.826C399.995 105.806,398.644 103.226,398.644 99.798C398.644 98.085,399.007 96.129,399.995 94.194C400.015 94.174,400.015 94.133,400.015 94.113C400.015 94.053,399.995 93.992,399.934 93.952C399.874 93.932,399.834 93.912,399.773 93.932C399.733 93.932,399.693 93.952,399.672 93.992C399.572 94.113,397.838 96.492,397.838 100C397.838 103.508,399.572 105.947,399.672 106.068C399.693 106.129,399.753 106.149,399.814 106.149"/></g><g class="vf-notehead" id="vf-auto16402" pointer-events="bounding-box"><path stroke="none" d="M465.146 84.496C459.586 84.496,457.592 87.332,457.592 89.972C457.592 92.583,459.586 95.419,465.146 95.419C470.734 95.419,472.671 92.583,472.671 89.972C472.671 87.332,470.734 84.496,465.146 84.496M467.224 93.875C466.718 94.044,466.072 94.128,465.483 94.128C464.331 94.128,463.573 93.791,463.04 92.78C462.534 91.769,461.804 89.186,461.748 88.091C461.664 86.995,462.085 86.35,463.04 86.041C463.545 85.872,464.191 85.788,464.781 85.788C465.932 85.788,466.662 86.041,467.224 87.136C467.785 88.231,468.515 90.814,468.515 91.825C468.515 92.864,468.178 93.594,467.224 93.875"/><path stroke="none" d="M452.617 83.851C452.556 83.871,452.536 83.871,452.496 83.912C452.435 83.932,452.415 83.992,452.415 84.053C452.415 84.073,452.415 84.113,452.435 84.174C452.435 84.194,453.786 86.774,453.786 90.202C453.786 91.915,453.423 93.871,452.435 95.806C452.415 95.826,452.415 95.867,452.415 95.887C452.415 95.947,452.435 96.008,452.496 96.048C452.556 96.068,452.596 96.088,452.657 96.068C452.697 96.068,452.738 96.048,452.758 96.008C452.858 95.887,454.592 93.508,454.592 90C454.592 86.492,452.858 84.053,452.758 83.932C452.738 83.871,452.677 83.851,452.617 83.851"/><path stroke="none" d="M441.516 77.279C441.557 77.259,441.597 77.259,441.658 77.259C441.839 77.259,442 77.34,442.061 77.501C442.081 77.581,442.081 77.581,442.081 80.021C442.081 81.392,442.081 82.48,442.081 82.48C442.081 82.48,442.948 82.138,443.996 81.734L445.911 80.968L445.911 79.295C445.911 77.622,445.911 77.581,445.952 77.501C446.012 77.34,446.173 77.259,446.335 77.259C446.435 77.259,446.556 77.279,446.637 77.36C446.738 77.501,446.738 77.34,446.738 79.093L446.738 80.666L448.028 80.142C449.097 79.739,449.359 79.638,449.48 79.638C449.54 79.638,449.58 79.638,449.601 79.658C449.782 79.718,449.863 79.88,449.863 80.041C449.863 80.182,449.822 80.323,449.681 80.404C449.661 80.444,448.996 80.686,448.189 81.009L446.738 81.593L446.738 84.295L446.738 87.016L446.798 86.956C447.544 86.311,448.371 85.988,449.137 85.988C449.439 85.988,449.742 86.028,450.044 86.149C450.911 86.452,451.415 87.299,451.415 88.307C451.415 88.831,451.274 89.415,450.971 90C450.528 90.806,449.963 91.452,448.371 92.863L446.818 94.334C446.516 94.617,446.496 94.617,446.335 94.617C446.194 94.617,446.113 94.576,446.032 94.496C445.911 94.375,445.911 94.496,445.911 93.185C445.911 92.984,445.911 92.742,445.911 92.419L445.911 90.585L445.81 90.685C445.347 91.31,444.883 91.774,443.694 92.863L442.141 94.334C441.859 94.617,441.799 94.617,441.658 94.617C441.496 94.617,441.355 94.516,441.295 94.375L441.274 94.334L441.254 89.032L441.254 83.75L440.004 84.214C438.996 84.637,438.754 84.718,438.613 84.718C438.593 84.718,438.553 84.718,438.513 84.698C438.331 84.637,438.23 84.476,438.23 84.295C438.23 84.154,438.311 84.012,438.432 83.932C438.452 83.912,439.077 83.65,439.843 83.388L441.254 82.823L441.254 80.182L441.274 77.561L441.295 77.481C441.335 77.38,441.436 77.299,441.516 77.279M445.911 84.194C445.911 82.924,445.911 81.916,445.911 81.916C445.891 81.916,445.044 82.259,443.976 82.642L442.081 83.408L442.081 85.202L442.081 87.016L442.101 86.956C442.867 86.311,443.734 85.988,444.5 85.988C444.984 85.988,445.448 86.129,445.831 86.371L445.891 86.432C445.891 86.432,445.891 86.432,445.891 86.432C445.911 86.432,445.911 85.988,445.911 84.194M443.895 87.359C443.815 87.319,443.694 87.319,443.613 87.319C443.553 87.319,443.512 87.319,443.472 87.319C442.948 87.399,442.484 87.722,442.162 88.246L442.081 88.387L442.081 90.746L442.081 93.145L442.141 93.064C443.613 91.452,444.581 89.597,444.581 88.367L444.581 88.327C444.581 87.722,444.379 87.46,443.895 87.359M448.552 87.359C448.472 87.319,448.371 87.319,448.29 87.319C448.25 87.319,448.189 87.319,448.169 87.319C447.645 87.399,447.181 87.722,446.859 88.246L446.738 88.387L446.738 90.746L446.738 93.145L446.818 93.064C448.29 91.452,449.238 89.597,449.238 88.367L449.238 88.327C449.238 87.722,449.076 87.46,448.552 87.359"/><path stroke="none" d="M436.029 96.149C436.089 96.129,436.109 96.129,436.15 96.088C436.21 96.068,436.23 96.008,436.23 95.947C436.23 95.927,436.23 95.887,436.21 95.826C436.21 95.806,434.859 93.226,434.859 89.798C434.859 88.085,435.222 86.129,436.21 84.194C436.23 84.174,436.23 84.133,436.23 84.113C436.23 84.053,436.21 83.992,436.15 83.952C436.089 83.932,436.049 83.912,435.988 83.932C435.948 83.932,435.908 83.952,435.888 83.992C435.787 84.113,434.053 86.492,434.053 90C434.053 93.508,435.787 95.947,435.888 96.068C435.908 96.129,435.968 96.149,436.029 96.149"/></g><g class="vf-notehead" id="vf-auto16403" pointer-events="bounding-box"><path stroke="none" d="M465.146 64.496C459.586 64.496,457.592 67.332,457.592 69.972C457.592 72.583,459.586 75.419,465.146 75.419C470.734 75.419,472.671 72.583,472.671 69.972C472.671 67.332,470.734 64.496,465.146 64.496M467.224 73.875C466.718 74.044,466.072 74.128,465.483 74.128C464.331 74.128,463.573 73.791,463.04 72.78C462.534 71.769,461.804 69.186,461.748 68.091C461.664 66.995,462.085 66.35,463.04 66.041C463.545 65.872,464.191 65.788,464.781 65.788C465.932 65.788,466.662 66.041,467.224 67.136C467.785 68.231,468.515 70.814,468.515 71.825C468.515 72.864,468.178 73.594,467.224 73.875"/><path stroke="none" d="M429.971 66.881C429.752 65.349,428.794 63.899,426.797 63.899C424.827 63.899,423.678 65.103,423.487 65.349L423.651 52.708C423.651 52.38,423.405 52.161,423.076 52.161L422.611 52.161C422.31 52.161,422.064 52.38,422.064 52.708L422.255 76.375C422.255 76.703,422.502 76.922,422.803 76.922C422.885 76.922,423.049 76.895,423.131 76.867C423.295 76.785,425.84 75.527,427.974 73.119C429.478 71.423,430.053 69.48,430.053 67.866C430.053 67.51,430.026 67.209,429.971 66.881M427.262 68.413C427.262 69.015,427.098 70.821,426.113 72.326C425.457 73.338,424.116 74.405,423.377 75.007L423.487 67.319C423.569 66.963,424.143 65.814,425.73 65.814C427.153 65.814,427.262 67.155,427.262 68.003C427.262 68.194,427.262 68.304,427.262 68.413"/></g><g class="vf-notehead" id="vf-auto16404" pointer-events="bounding-box"><path stroke="none" d="M465.146 54.496C459.586 54.496,457.592 57.332,457.592 59.972C457.592 62.583,459.586 65.419,465.146 65.419C470.734 65.419,472.671 62.583,472.671 59.972C472.671 57.332,470.734 54.496,465.146 54.496M467.224 63.875C466.718 64.044,466.072 64.128,465.483 64.128C464.331 64.128,463.573 63.791,463.04 62.78C462.534 61.769,461.804 59.186,461.748 58.091C461.664 56.995,462.085 56.35,463.04 56.041C463.545 55.872,464.191 55.788,464.781 55.788C465.932 55.788,466.662 56.041,467.224 57.136C467.785 58.231,468.515 60.814,468.515 61.825C468.515 62.864,468.178 63.594,467.224 63.875"/><path stroke="none" d="M415.474 53.851C415.414 53.871,415.393 53.871,415.353 53.912C415.293 53.932,415.272 53.992,415.272 54.053C415.272 54.073,415.272 54.113,415.293 54.174C415.293 54.194,416.643 56.774,416.643 60.202C416.643 61.915,416.28 63.871,415.293 65.806C415.272 65.826,415.272 65.867,415.272 65.887C415.272 65.947,415.293 66.008,415.353 66.048C415.414 66.068,415.454 66.088,415.514 66.068C415.555 66.068,415.595 66.048,415.615 66.008C415.716 65.887,417.45 63.508,417.45 60C417.45 56.492,415.716 54.053,415.615 53.932C415.595 53.871,415.534 53.851,415.474 53.851"/><path stroke="none" d="M413.91 56.815C414.091 56.774,414.232 56.573,414.232 56.391L414.232 54.678C414.232 54.456,414.091 54.275,413.849 54.275C413.829 54.275,413.809 54.275,413.768 54.275L412.861 54.476L412.861 50.162L412.055 50.162L412.055 54.658L410.341 55L410.341 50.626L409.555 50.626L409.555 55.162L408.023 55.464L408.023 51.089L407.237 51.089L407.237 55.645L406.168 55.887C405.987 55.908,405.846 56.089,405.846 56.25L405.846 57.944C405.846 58.165,406.027 58.347,406.249 58.347C406.289 58.347,406.309 58.347,406.329 58.347L407.237 58.145L407.237 62.964L406.168 63.185C405.987 63.226,405.846 63.387,405.846 63.568L405.846 65.262C405.846 65.484,406.027 65.665,406.249 65.665C406.289 65.665,406.309 65.665,406.329 65.665L407.237 65.484L407.237 69.516L408.023 69.516L408.023 65.322L409.555 65L409.555 69.092L410.341 69.092L410.341 64.838L412.055 64.496L412.055 68.588L412.861 68.588L412.861 64.334L413.91 64.113C414.091 64.092,414.272 63.891,414.272 63.709L414.272 61.996C414.272 61.774,414.091 61.593,413.849 61.593C413.829 61.593,413.809 61.593,413.768 61.593L412.861 61.794L412.861 57.016M409.555 62.46L408.023 62.782L408.023 58.004L409.555 57.682M410.341 57.54L412.055 57.178L412.055 61.976L410.341 62.318"/><path stroke="none" d="M403.644 66.149C403.704 66.129,403.725 66.129,403.765 66.088C403.825 66.068,403.846 66.008,403.846 65.947C403.846 65.927,403.846 65.887,403.825 65.826C403.825 65.806,402.475 63.226,402.475 59.798C402.475 58.085,402.838 56.129,403.825 54.194C403.846 54.174,403.846 54.133,403.846 54.113C403.846 54.053,403.825 53.992,403.765 53.952C403.704 53.932,403.664 53.912,403.604 53.932C403.563 53.932,403.523 53.952,403.503 53.992C403.402 54.113,401.668 56.492,401.668 60C401.668 63.508,403.402 65.947,403.503 66.068C403.523 66.129,403.583 66.149,403.644 66.149"/></g><g class="vf-notehead" id="vf-auto16405" pointer-events="bounding-box"><path stroke="none" d="M465.146 39.496C459.586 39.496,457.592 42.332,457.592 44.972C457.592 47.583,459.586 50.419,465.146 50.419C470.734 50.419,472.671 47.583,472.671 44.972C472.671 42.332,470.734 39.496,465.146 39.496M467.224 48.875C466.718 49.044,466.072 49.128,465.483 49.128C464.331 49.128,463.573 48.791,463.04 47.78C462.534 46.769,461.804 44.186,461.748 43.091C461.664 41.995,462.085 41.35,463.04 41.041C463.545 40.872,464.191 40.788,464.781 40.788C465.932 40.788,466.662 41.041,467.224 42.136C467.785 43.231,468.515 45.814,468.515 46.825C468.515 47.864,468.178 48.594,467.224 48.875"/><path stroke="none" d="M452.617 38.851C452.556 38.871,452.536 38.871,452.496 38.912C452.435 38.932,452.415 38.992,452.415 39.053C452.415 39.073,452.415 39.113,452.435 39.174C452.435 39.194,453.786 41.774,453.786 45.202C453.786 46.915,453.423 48.871,452.435 50.806C452.415 50.826,452.415 50.867,452.415 50.887C452.415 50.947,452.435 51.008,452.496 51.048C452.556 51.068,452.596 51.088,452.657 51.068C452.697 51.068,452.738 51.048,452.758 51.008C452.858 50.887,454.592 48.508,454.592 45C454.592 41.492,452.858 39.053,452.758 38.932C452.738 38.871,452.677 38.851,452.617 38.851"/><path stroke="none" d="M444.81 43.307C444.81 45.524,446.121 47.117,446.968 47.923C448.157 49.072,449.75 50.02,449.75 50.02C449.81 50.06,449.83 50.1,449.911 50.1C450.133 50.1,450.294 49.939,450.294 49.738L450.415 32.259C450.415 32.057,450.234 31.876,450.032 31.876L449.81 31.876C449.609 31.876,449.427 32.057,449.427 32.259L449.488 41.492C449.306 41.25,448.681 40.625,447.33 40.625C445.879 40.625,444.81 41.512,444.81 43.307M447.794 41.895C449.084 41.895,449.488 42.682,449.488 42.944C449.488 43.004,449.508 42.944,449.508 42.843L449.548 48.609C448.984 48.145,448.036 47.238,447.512 46.452C446.786 45.343,446.665 44.274,446.665 43.831C446.665 43.75,446.665 43.629,446.665 43.488C446.665 42.883,446.746 41.895,447.794 41.895"/><path stroke="none" d="M442.609 51.149C442.669 51.129,442.69 51.129,442.73 51.088C442.79 51.068,442.81 51.008,442.81 50.947C442.81 50.927,442.81 50.887,442.79 50.826C442.79 50.806,441.44 48.226,441.44 44.798C441.44 43.085,441.802 41.129,442.79 39.194C442.81 39.174,442.81 39.133,442.81 39.113C442.81 39.053,442.79 38.992,442.73 38.952C442.669 38.932,442.629 38.912,442.569 38.932C442.528 38.932,442.488 38.952,442.468 38.992C442.367 39.113,440.633 41.492,440.633 45C440.633 48.508,442.367 50.947,442.468 51.068C442.488 51.129,442.548 51.149,442.609 51.149"/></g></g><g class="vf-stavenote" id="vf-auto16430"><g class="vf-stem" id="vf-auto16431" pointer-events="bounding-box"><path stroke-width="1.5" fill="none" d="M606.712 83L606.712 13"/></g><g class="vf-notehead" id="vf-auto16439" pointer-events="bounding-box"><path stroke="none" d="M594.32 86.685C594.32 88.426,595.584 90.391,598.841 90.391C603.053 90.391,607.462 86.938,607.462 83.371C607.462 80.985,605.44 79.665,602.941 79.665C599.01 79.665,594.32 82.978,594.32 86.685"/><path stroke="none" d="M587.572 70.362C587.627 70.308,587.681 70.308,587.791 70.308C588.037 70.308,588.228 70.417,588.311 70.663L588.338 70.745L588.393 73.536L588.393 76.354L589.077 76.163C589.487 76.081,589.788 76.026,589.98 76.026C590.253 76.026,590.308 76.135,590.417 76.354C590.472 76.382,590.472 77.066,590.472 77.722C590.472 78.406,590.472 79.063,590.417 79.118C590.308 79.364,590.253 79.391,589.487 79.583C588.529 79.802,588.393 79.856,588.393 79.884C588.393 79.884,588.393 80.239,588.393 80.732C588.393 80.869,588.393 81.06,588.393 81.279L588.393 82.702L588.666 82.62L589.788 82.319C590.39 82.209,590.664 82.127,590.8 82.127C590.937 82.127,591.019 82.155,591.101 82.237C591.293 82.401,591.32 82.428,591.32 83.331C591.32 83.495,591.32 83.687,591.32 83.906L591.32 85.137L591.293 85.219C591.238 85.328,591.101 85.492,590.992 85.52C590.937 85.52,590.253 85.711,588.721 86.094C588.529 86.122,588.393 86.176,588.393 86.176C588.393 86.176,588.393 86.614,588.393 87.271C588.393 87.38,588.393 87.49,588.393 87.599L588.393 88.967L589.077 88.83C589.542 88.721,589.788 88.639,589.98 88.639C590.144 88.639,590.253 88.721,590.308 88.83C590.472 88.967,590.472 88.885,590.472 89.952L590.472 90.39L590.472 90.746C590.472 91.813,590.472 91.758,590.308 91.895C590.198 92.059,590.253 92.059,588.967 92.36C588.721 92.442,588.447 92.469,588.42 92.497L588.393 92.497L588.338 95.342L588.338 98.215L588.311 98.324C588.228 98.543,588.01 98.653,587.791 98.653C587.572 98.653,587.38 98.543,587.271 98.324L587.216 98.215L587.216 95.506L587.216 92.798L587.189 92.798L586.56 92.962L585.41 93.235C585.109 93.345,584.808 93.372,584.808 93.427C584.781 93.427,584.781 93.564,584.781 96.354L584.781 99.309L584.726 99.391C584.617 99.61,584.398 99.72,584.207 99.72C583.988 99.72,583.769 99.61,583.659 99.391L583.605 99.309L583.605 96.491C583.605 93.919,583.605 93.673,583.577 93.673C583.577 93.673,583.577 93.673,583.577 93.673C583.276 93.81,582.237 94.029,582.127 94.029C581.908 94.029,581.717 93.919,581.607 93.673C581.553 93.618,581.553 93.618,581.553 92.305L581.553 90.992L581.635 90.91C581.744 90.636,581.744 90.636,583.276 90.253L583.605 90.198L583.605 88.776C583.605 87.49,583.605 87.38,583.577 87.38C583.577 87.38,583.577 87.38,583.577 87.38C583.577 87.38,583.386 87.408,583.167 87.49L582.1 87.763C581.635 87.873,581.388 87.9,581.224 87.9C581.115 87.9,581.033 87.873,580.923 87.791C580.759 87.654,580.732 87.599,580.732 86.696C580.732 86.532,580.759 86.341,580.759 86.122L580.759 84.891L580.787 84.836C580.814 84.699,580.923 84.59,581.033 84.562C581.088 84.508,581.799 84.343,583.249 83.988L583.605 83.878L583.605 82.456C583.605 81.17,583.605 81.06,583.577 81.06C583.577 81.06,583.577 81.06,583.577 81.06C583.276 81.142,582.237 81.416,582.127 81.416C581.908 81.416,581.717 81.252,581.607 81.06C581.553 80.978,581.553 80.951,581.553 79.665L581.553 78.379L581.635 78.297C581.744 78.023,581.744 78.023,583.276 77.64L583.605 77.531L583.605 74.685L583.605 71.84L583.659 71.73C583.769 71.539,583.988 71.375,584.207 71.375C584.289 71.375,584.371 71.429,584.425 71.457C584.535 71.484,584.644 71.621,584.726 71.73L584.781 71.84L584.781 74.521L584.781 77.257L584.918 77.23C585 77.202,585.438 77.066,585.958 76.956L587.052 76.71L587.216 76.655L587.216 73.7L587.216 70.745L587.271 70.663C587.326 70.554,587.408 70.417,587.572 70.362M587.216 81.553C587.216 80.787,587.216 80.157,587.189 80.157L587.189 80.157C587.189 80.157,586.915 80.239,586.587 80.294L585.41 80.595C585.055 80.677,584.781 80.759,584.781 80.759C584.781 80.759,584.781 81.115,584.781 81.607C584.781 81.799,584.781 81.963,584.781 82.209L584.781 83.577L584.945 83.523L586.997 83.03L587.216 82.975L587.216 81.553M587.216 87.873C587.216 86.778,587.216 86.477,587.189 86.477L587.189 86.477C587.189 86.477,587.161 86.477,587.079 86.505C586.97 86.505,586.341 86.696,585.465 86.888L584.836 87.079L584.781 87.079L584.781 88.475L584.781 89.897L584.918 89.843C585 89.843,585.438 89.733,585.958 89.569L587.052 89.323L587.216 89.268L587.216 87.873"/></g><g class="vf-notehead" id="vf-auto16440" pointer-events="bounding-box"><path stroke="none" d="M606.712 81.685C606.712 83.426,607.975 85.391,611.232 85.391C615.444 85.391,619.853 81.938,619.853 78.371C619.853 75.985,617.831 74.665,615.332 74.665C611.401 74.665,606.712 77.978,606.712 81.685"/><path stroke="none" d="M554.02 76.689C553.938 76.607,553.829 76.58,553.692 76.58C553.665 76.58,553.637 76.607,553.583 76.607L547.864 78.14L547.864 76.525L551.777 75.513C551.996 75.431,552.132 75.267,552.132 75.048L552.132 72.722C552.132 72.558,552.05 72.367,551.941 72.284C551.859 72.202,551.722 72.202,551.613 72.202C551.585 72.202,551.531 72.202,551.503 72.202L547.864 73.187L547.864 67.469L546.852 67.469L546.852 73.461L542.94 74.528C542.721 74.61,542.584 74.802,542.584 75.048L542.584 77.319C542.584 77.483,542.666 77.647,542.803 77.702C542.857 77.784,542.994 77.839,543.104 77.839C543.131 77.839,543.186 77.784,543.213 77.784L546.852 76.854L546.852 78.413L540.888 80.082C540.669 80.164,540.504 80.328,540.504 80.547L540.504 82.845C540.504 82.982,540.587 83.146,540.696 83.228C540.778 83.311,540.888 83.338,541.024 83.338C541.052 83.338,541.106 83.338,541.134 83.338L546.852 81.806L546.852 83.393L542.94 84.46C542.721 84.542,542.584 84.679,542.584 84.925L542.584 87.223C542.584 87.36,542.666 87.551,542.803 87.633C542.857 87.716,542.994 87.716,543.104 87.716C543.131 87.716,543.186 87.716,543.213 87.716L546.852 86.731L546.852 92.449L547.864 92.449L547.864 86.457L551.777 85.445C551.996 85.363,552.132 85.171,552.132 84.925L552.132 82.599C552.132 82.435,552.05 82.298,551.941 82.216C551.859 82.134,551.722 82.079,551.613 82.079C551.585 82.079,551.531 82.134,551.503 82.134L547.864 83.119L547.864 81.505L553.829 79.891C554.048 79.808,554.212 79.644,554.212 79.398L554.212 77.072C554.212 76.936,554.13 76.772,554.02 76.689"/></g><g class="vf-notehead" id="vf-auto16441" pointer-events="bounding-box"><path stroke="none" d="M594.32 76.685C594.32 78.426,595.584 80.391,598.841 80.391C603.053 80.391,607.462 76.938,607.462 73.371C607.462 70.985,605.44 69.665,602.941 69.665C599.01 69.665,594.32 72.978,594.32 76.685"/><path stroke="none" d="M523.506 71.854C523.26 70.267,522.357 68.844,520.305 68.844C518.253 68.844,517.158 70.103,516.994 70.321L517.076 65.479L521.864 62.633L521.864 60.882L517.076 63.7L517.158 57.654C517.158 57.353,516.939 57.107,516.611 57.107L516.146 57.107C515.818 57.107,515.599 57.353,515.599 57.654L515.653 64.548L512.671 66.3L512.671 68.023L515.653 66.3L515.79 81.43C515.79 81.731,516.009 81.922,516.337 81.922C516.447 81.922,516.584 81.895,516.638 81.867C516.638 81.867,519.292 80.581,521.508 78.119C522.986 76.423,523.588 74.453,523.588 72.839C523.588 72.483,523.533 72.155,523.506 71.854M520.797 73.413C520.797 74.015,520.633 75.821,519.648 77.326C518.964 78.338,517.678 79.46,516.939 80.034L516.994 72.373C517.076 72.018,517.623 70.814,519.238 70.814C520.66 70.814,520.797 72.155,520.797 73.003C520.797 73.194,520.797 73.304,520.797 73.413"/></g><g class="vf-notehead" id="vf-auto16442" pointer-events="bounding-box"><path stroke="none" d="M606.712 71.685C606.712 73.426,607.975 75.391,611.232 75.391C615.444 75.391,619.853 71.938,619.853 68.371C619.853 65.985,617.831 64.665,615.332 64.665C611.401 64.665,606.712 67.978,606.712 71.685"/><path stroke="none" d="M537.422 66.854C537.176 65.267,536.273 63.844,534.221 63.844C532.169 63.844,531.075 65.103,530.911 65.321L530.965 61.327L535.781 58.536L535.781 56.812L530.993 59.603L530.993 56.648L535.781 53.858L535.781 52.107L531.048 54.897L531.075 52.654C531.075 52.353,530.856 52.107,530.528 52.107L530.063 52.107C529.734 52.107,529.515 52.353,529.515 52.654L529.543 55.773L526.588 57.524L526.588 59.248L529.543 57.524L529.57 60.424L526.588 62.202L526.588 63.926L529.57 62.148L529.707 76.43C529.707 76.731,529.926 76.922,530.254 76.922C530.364 76.922,530.446 76.895,530.555 76.867C530.555 76.867,533.209 75.581,535.425 73.119C536.903 71.423,537.504 69.453,537.504 67.839C537.504 67.483,537.45 67.155,537.422 66.854M534.714 68.413C534.714 69.015,534.55 70.821,533.565 72.326C532.881 73.338,531.54 74.46,530.801 75.034L530.911 67.373C530.993 67.018,531.54 65.814,533.154 65.814C534.577 65.814,534.714 67.155,534.714 68.003C534.714 68.194,534.714 68.304,534.714 68.413"/></g><g class="vf-notehead" id="vf-auto16443" pointer-events="bounding-box"><path stroke="none" d="M594.32 61.685C594.32 63.426,595.584 65.391,598.841 65.391C603.053 65.391,607.462 61.938,607.462 58.371C607.462 55.985,605.44 54.665,602.941 54.665C599.01 54.665,594.32 57.978,594.32 61.685"/><path stroke="none" d="M565.529 42.681C565.611 42.654,565.693 42.654,565.748 42.654C565.994 42.654,566.213 42.791,566.295 43.009C566.35 43.092,566.35 43.119,566.35 46.183C566.35 47.88,566.35 49.248,566.35 49.248C566.35 49.248,567.171 48.864,568.128 48.372L569.907 47.469L570.044 47.469C570.071 47.469,570.071 47.469,570.071 47.469C570.427 47.469,570.673 47.743,570.673 48.044C570.673 48.126,570.646 48.18,570.618 48.263C570.536 48.481,570.618 48.427,568.375 49.548L566.35 50.588L566.35 53.242L566.35 55.896L566.405 55.841C567.444 54.966,568.566 54.501,569.633 54.501C570.044 54.501,570.481 54.583,570.892 54.72C572.123 55.157,572.807 56.306,572.807 57.647C572.807 58.386,572.588 59.207,572.178 59.973C571.576 61.067,570.782 61.943,568.594 63.912C567.39 64.98,567.116 65.226,566.432 65.855C566.049 66.238,565.994 66.265,565.776 66.265C565.529 66.265,565.31 66.129,565.228 65.91C565.201 65.8,565.201 65.8,565.201 58.495C565.201 54.446,565.174 51.163,565.174 51.163C565.174 51.163,564.38 51.573,563.395 52.038L561.617 52.941L561.48 52.941C561.48 52.941,561.453 52.941,561.453 52.941C561.097 52.941,560.851 52.695,560.851 52.367C560.851 52.312,560.878 52.23,560.905 52.148C560.988 51.929,560.905 51.984,563.149 50.862L565.201 49.849L565.201 46.457C565.201 43.119,565.201 43.092,565.228 43.009C565.283 42.873,565.42 42.736,565.529 42.681M568.84 56.361C568.73 56.334,568.594 56.334,568.484 56.334C568.402 56.334,568.347 56.334,568.293 56.334C567.581 56.443,566.952 56.881,566.487 57.592L566.35 57.784L566.35 61.012L566.35 64.268L566.432 64.159C568.484 61.943,569.797 59.398,569.797 57.729L569.797 57.702C569.797 56.854,569.551 56.498,568.84 56.361M557.568 42.681L557.568 42.681C557.622 42.654,557.704 42.654,557.786 42.654C558.005 42.654,558.252 42.791,558.334 43.009C558.361 43.092,558.361 43.119,558.361 49.494L558.361 55.896L558.443 55.841C559.483 54.966,560.577 54.501,561.644 54.501C562.082 54.501,562.492 54.583,562.903 54.72C564.134 55.157,564.818 56.306,564.818 57.647C564.818 58.386,564.626 59.207,564.189 59.973C563.587 61.067,562.793 61.943,560.604 63.912C559.428 64.98,559.127 65.226,558.443 65.855C558.06 66.238,558.005 66.265,557.786 66.265C557.54 66.265,557.321 66.129,557.239 65.91L557.212 65.8L557.212 54.446L557.212 43.092L557.239 43.009C557.294 42.873,557.431 42.736,557.568 42.681M560.878 56.361L560.878 56.361C560.769 56.334,560.604 56.334,560.495 56.334C560.44 56.334,560.358 56.334,560.331 56.334C559.592 56.443,558.963 56.881,558.498 57.592L558.361 57.784L558.361 61.012L558.361 64.268L558.47 64.159C560.495 61.943,561.836 59.398,561.836 57.729L561.836 57.702C561.836 56.854,561.562 56.498,560.878 56.361"/></g><g class="vf-notehead" id="vf-auto16444" pointer-events="bounding-box"><path stroke="none" d="M594.32 46.685C594.32 48.426,595.584 50.391,598.841 50.391C603.053 50.391,607.462 46.938,607.462 43.371C607.462 40.985,605.44 39.665,602.941 39.665C599.01 39.665,594.32 42.978,594.32 46.685"/><path stroke="none" d="M581.908 30.308C581.99 30.28,582.045 30.28,582.127 30.28C582.373 30.28,582.592 30.417,582.674 30.636C582.702 30.718,582.702 30.745,582.702 34.33C582.702 37.668,582.702 37.914,582.756 37.914C582.756 37.914,582.756 37.914,582.756 37.914C583.057 37.804,584.207 37.558,584.289 37.558C584.535 37.558,584.754 37.695,584.836 37.914C584.863 37.968,584.891 38.625,584.891 39.282C584.891 39.938,584.863 40.568,584.836 40.65C584.726 40.923,584.699 40.923,583.577 41.224L582.702 41.416L582.702 44.425C582.702 47.189,582.702 47.408,582.756 47.408C582.756 47.408,582.756 47.408,582.756 47.408C583.057 47.298,584.207 47.052,584.289 47.052C584.48 47.052,584.59 47.107,584.699 47.216C584.863 47.38,584.863 47.326,584.863 48.393C584.863 48.393,584.863 48.776,584.863 48.776C584.863 48.776,584.863 49.159,584.863 49.159C584.863 50.226,584.863 50.198,584.699 50.335C584.59 50.472,584.59 50.472,583.577 50.718L582.702 50.937L582.702 54.549C582.702 58.16,582.702 58.188,582.674 58.297C582.592 58.516,582.373 58.653,582.127 58.653C581.99 58.653,581.826 58.598,581.717 58.488C581.58 58.324,581.553 58.571,581.553 56.354C581.553 55.889,581.553 55.369,581.553 54.713C581.553 52.77,581.553 51.211,581.553 51.211C581.553 51.211,580.978 51.348,580.294 51.512C579.61 51.676,579.063 51.813,579.063 51.813C579.036 51.813,579.036 53.509,579.036 55.561C579.036 59.255,579.036 59.282,579.008 59.364C578.926 59.61,578.68 59.72,578.461 59.72C578.324 59.72,578.16 59.665,578.051 59.556C577.914 59.419,577.886 59.665,577.886 57.367C577.886 56.929,577.886 56.354,577.886 55.698C577.886 52.36,577.886 52.114,577.859 52.114C577.859 52.114,577.859 52.114,577.859 52.114C577.531 52.223,576.464 52.442,576.382 52.442C576.135 52.442,575.916 52.305,575.834 52.086C575.807 52.032,575.807 51.375,575.807 50.718C575.807 50.062,575.807 49.432,575.834 49.35C575.944 49.077,575.999 49.049,577.066 48.803L577.886 48.584L577.886 45.602C577.886 42.811,577.886 42.62,577.859 42.62C577.859 42.62,577.859 42.62,577.859 42.62C577.531 42.702,576.464 42.948,576.382 42.948C576.135 42.948,575.916 42.811,575.834 42.592C575.807 42.51,575.807 41.881,575.807 41.224C575.807 40.568,575.807 39.911,575.834 39.856C575.944 39.583,575.999 39.555,577.066 39.282L577.886 39.09L577.886 35.451C577.886 31.84,577.886 31.812,577.914 31.703C578.023 31.484,578.242 31.347,578.461 31.347C578.625 31.347,578.762 31.402,578.871 31.512C579.036 31.676,579.036 31.429,579.036 33.673C579.036 34.111,579.036 34.658,579.036 35.315C579.036 37.23,579.036 38.817,579.036 38.817C579.063 38.817,579.61 38.68,580.294 38.488C580.978 38.324,581.553 38.187,581.553 38.187C581.553 38.187,581.553 36.518,581.553 34.466C581.553 30.745,581.553 30.718,581.607 30.636C581.635 30.499,581.772 30.362,581.908 30.308M581.553 44.699C581.553 42.319,581.553 41.717,581.553 41.717L581.553 41.717C581.525 41.717,581.334 41.744,581.115 41.826C580.869 41.881,580.321 42.018,579.856 42.127L579.036 42.319L579.036 45.328C579.036 46.97,579.036 48.311,579.036 48.311C579.063 48.311,579.61 48.174,580.294 48.01C580.978 47.845,581.553 47.709,581.553 47.709C581.553 47.709,581.553 46.341,581.553 44.699M588.338 30.855C588.42 30.828,588.475 30.8,588.557 30.8C588.803 30.8,589.022 30.964,589.104 31.183C589.159 31.265,589.159 31.293,589.159 34.713L589.159 38.187L589.87 37.941C590.527 37.722,590.609 37.695,590.718 37.695C590.718 37.695,590.746 37.695,590.746 37.695C590.992 37.695,591.156 37.804,591.265 38.023L591.293 38.105L591.293 39.391C591.293 39.665,591.293 39.884,591.293 40.048C591.293 40.814,591.293 40.814,591.183 40.923C591.101 41.06,591.019 41.088,590.062 41.416L589.159 41.717L589.159 44.726C589.159 46.696,589.159 47.736,589.159 47.736C589.186 47.736,589.487 47.627,589.87 47.49C590.253 47.353,590.581 47.244,590.636 47.244C590.664 47.216,590.691 47.216,590.718 47.216C590.964 47.216,591.183 47.38,591.265 47.572C591.293 47.654,591.32 48.42,591.32 49.131C591.32 49.706,591.293 50.253,591.293 50.308C591.183 50.554,591.156 50.581,590.089 50.964L589.159 51.293L589.159 55.041L589.131 58.789L589.104 58.872C588.995 59.063,588.776 59.2,588.557 59.2C588.42 59.2,588.283 59.145,588.146 59.008C588.01 58.872,587.982 59.118,587.982 56.874C587.982 56.436,587.982 55.889,587.982 55.233C587.982 53.29,587.982 51.703,587.982 51.703C587.982 51.703,587.681 51.813,587.326 51.949C586.833 52.114,586.587 52.196,586.423 52.196C586.259 52.196,586.176 52.141,586.067 52.032C585.903 51.867,585.903 51.922,585.903 50.855C585.903 50.746,585.903 50.609,585.903 50.472C585.903 50.363,585.903 50.253,585.903 50.144C585.903 49.022,585.903 49.077,586.067 48.912C586.176 48.803,586.176 48.803,587.161 48.447L587.982 48.146L587.982 45.137C587.982 43.468,587.982 42.1,587.982 42.1C587.982 42.1,587.654 42.209,587.298 42.319C586.833 42.483,586.587 42.565,586.395 42.565C586.259 42.565,586.176 42.51,586.067 42.401C585.903 42.237,585.903 42.291,585.903 41.197C585.903 41.088,585.903 40.951,585.903 40.814C585.903 40.54,585.903 40.294,585.903 40.103C585.903 39.118,585.985 39.227,587.107 38.844L587.982 38.543L587.982 34.904C587.982 31.293,587.982 31.265,588.037 31.183C588.092 31.046,588.228 30.91,588.338 30.855"/></g><path stroke="none" d="M614.414 27.122C613.319 25.718,612.111 24.427,610.117 22.433C608.545 20.861,607.815 19.485,607.534 18.446C607.506 18.221,607.45 17.94,607.422 17.631C609.472 17.631,612.111 20.411,613.571 22.321C615.144 24.371,615.509 25.999,615.509 27.544C615.509 27.937,615.453 28.33,615.425 28.751C615.088 28.105,614.723 27.572,614.414 27.122M605.962 23.416C605.962 23.528,606.299 23.697,606.579 23.809C607.618 24.174,610.763 26.196,613.206 29.79C614.582 31.868,614.891 33.3,614.891 34.676C614.891 34.929,614.891 35.125,614.863 35.378C614.863 36.333,614.582 38.411,613.964 40.011C613.936 40.236,613.796 40.46,613.796 40.685C613.796 40.826,613.88 40.994,614.077 41.106C614.161 41.162,614.217 41.162,614.301 41.162C614.582 41.162,614.723 40.826,614.891 40.601C615.621 39.45,616.688 37.287,616.688 35.013C616.688 33.834,616.604 32.879,616.464 32.008C616.885 30.52,617.25 29.032,617.25 27.038C617.25 24.932,616.688 23.051,615.312 21.226C613.403 18.727,611.353 16.621,609.809 14.402C608.264 12.156,607.141 8,607.141 8C607.057 7.719,607.001 7.523,606.579 7.523C606.074 7.523,605.962 7.719,605.962 8"/></g><path stroke-width="10" fill="none" stroke="green" d="M580 136L590 136"/><text stroke-width="10" stroke="none" font-size="8pt" x="595" y="140">Note + Flag</text><path stroke-width="10" fill="none" stroke="red" d="M580 148L590 148"/><text stroke-width="10" stroke="none" font-size="8pt" x="595" y="152">Modifiers</text><path stroke-width="10" fill="none" stroke="#999" d="M580 160L590 160"/><text stroke-width="10" stroke="none" font-size="8pt" x="595" y="164">Displaced Head</text><path stroke-width="10" fill="none" stroke="#DDD" d="M580 172L590 172"/><text stroke-width="10" stroke="none" font-size="8pt" x="595" y="176">Formatter Shift</text></svg>