<svg xmlns="http://www.w3.org/2000/svg" stroke-width="0.3" stroke-dasharray="none" fill="black" stroke="black" font-family="Arial, sans-serif" font-size="10pt" font-weight="normal" font-style="normal" width="675" height="195" viewBox="0 0 675 195" style="width: 675px; height: 195px; border: none;"><g class="vf-stave" id="vf-auto4567" stroke-width="1" fill="#999999" stroke="#999999"><path fill="none" d="M10 70L135 70"/><path fill="none" d="M10 80L135 80"/><path fill="none" d="M10 90L135 90"/><path fill="none" d="M10 100L135 100"/><path fill="none" d="M10 110L135 110"/></g><g class="vf-stavebarline" id="vf-auto4568"><rect x="10" y="69.5" width="1" height="41" stroke="none"/></g><g class="vf-stavebarline" id="vf-auto4569"/><g class="vf-stavenote" id="vf-auto4538"><path stroke-width="1.4" fill="none" stroke="#444" d="M24 120L41.934 120"/><path stroke-width="1.4" fill="none" stroke="#444" d="M24 130L41.934 130"/><g class="vf-stem" id="vf-auto4539" pointer-events="bounding-box"><path stroke-width="1.5" fill="none" d="M38.184 128L38.184 90"/></g><g class="vf-notehead" id="vf-auto4541" pointer-events="bounding-box"><path stroke="none" d="M30.931 135.054C34.525 135.054,38.934 131.741,38.934 128.315C38.934 126.237,37.305 124.946,35.003 124.946C30.566 124.946,27 128.231,27 131.685C27 133.791,28.741 135.054,30.931 135.054"/><path stroke="none" d="M36.907 143.94C36.907 141.724,35.128 140,32.967 140C30.806 140,29.027 141.724,29.027 143.94C29.027 145.91,30.45 147.524,32.338 147.852L32.338 151.82L33.596 151.82L33.596 147.852C35.457 147.524,36.907 145.91,36.907 143.94M33.596 146.731L33.596 143.94L32.338 143.94L32.338 146.731C31.079 146.457,30.094 145.308,30.094 143.94C30.094 142.326,31.38 141.067,32.967 141.067C34.581 141.067,35.84 142.326,35.84 143.94C35.84 145.308,34.91 146.457,33.596 146.731"/></g></g><g class="vf-stavenote" id="vf-auto4542"><g class="vf-stem" id="vf-auto4543" pointer-events="bounding-box"><path stroke-width="1.5" fill="none" d="M64.767 93L64.767 60"/></g><g class="vf-notehead" id="vf-auto4545" pointer-events="bounding-box"><path stroke="none" d="M57.514 100.054C61.109 100.054,65.517 96.741,65.517 93.315C65.517 91.237,63.888 89.946,61.586 89.946C57.149 89.946,53.583 93.231,53.583 96.685C53.583 98.791,55.324 100.054,57.514 100.054"/><path stroke="none" d="M63.49 118.94C63.49 116.724,61.712 115,59.55 115C57.389 115,55.61 116.724,55.61 118.94C55.61 120.91,57.033 122.524,58.921 122.852L58.921 126.82L60.179 126.82L60.179 122.852C62.04 122.524,63.49 120.91,63.49 118.94M60.179 121.731L60.179 118.94L58.921 118.94L58.921 121.731C57.662 121.457,56.677 120.308,56.677 118.94C56.677 117.326,57.963 116.067,59.55 116.067C61.164 116.067,62.423 117.326,62.423 118.94C62.423 120.308,61.493 121.457,60.179 121.731"/></g></g><g class="vf-stavenote" id="vf-auto4546"><path stroke-width="1.4" fill="none" stroke="#444" d="M77.166 120L95.1 120"/><g class="vf-stem" id="vf-auto4547" pointer-events="bounding-box"><path stroke-width="1.5" fill="none" d="M91.35 118L91.35 85"/></g><g class="vf-notehead" id="vf-auto4549" pointer-events="bounding-box"><path stroke="none" d="M84.097 125.054C87.692 125.054,92.1 121.741,92.1 118.315C92.1 116.237,90.472 114.946,88.169 114.946C83.732 114.946,80.166 118.231,80.166 121.685C80.166 123.791,81.907 125.054,84.097 125.054"/><path stroke="none" d="M82.193 61.06C82.193 63.276,83.972 65,86.133 65C88.295 65,90.073 63.276,90.073 61.06C90.073 59.118,88.623 57.476,86.763 57.202L86.763 53.18L85.504 53.18L85.504 57.202C83.616 57.476,82.193 59.118,82.193 61.06M85.504 58.269L85.504 61.06L86.763 61.06L86.763 58.269C88.021 58.543,89.006 59.72,89.006 61.06C89.006 62.674,87.72 63.933,86.133 63.933C84.519 63.933,83.26 62.674,83.26 61.06C83.26 59.72,84.191 58.543,85.504 58.269"/></g></g><g class="vf-stavenote" id="vf-auto4550"><g class="vf-stem" id="vf-auto4551" pointer-events="bounding-box"><path stroke-width="1.5" fill="none" d="M117.933 93L117.933 60"/></g><g class="vf-notehead" id="vf-auto4553" pointer-events="bounding-box"><path stroke="none" d="M110.681 100.054C114.275 100.054,118.683 96.741,118.683 93.315C118.683 91.237,117.055 89.946,114.752 89.946C110.316 89.946,106.749 93.231,106.749 96.685C106.749 98.791,108.49 100.054,110.681 100.054"/><path stroke="none" d="M108.777 51.06C108.777 53.276,110.555 55,112.716 55C114.878 55,116.656 53.276,116.656 51.06C116.656 49.118,115.206 47.476,113.346 47.202L113.346 43.18L112.087 43.18L112.087 47.202C110.199 47.476,108.777 49.118,108.777 51.06M112.087 48.269L112.087 51.06L113.346 51.06L113.346 48.269C114.604 48.543,115.589 49.72,115.589 51.06C115.589 52.674,114.303 53.933,112.716 53.933C111.102 53.933,109.844 52.674,109.844 51.06C109.844 49.72,110.774 48.543,112.087 48.269"/></g></g><g class="vf-stave" id="vf-auto4599" stroke-width="1" fill="#999999" stroke="#999999"><path fill="none" d="M135 70L260 70"/><path fill="none" d="M135 80L260 80"/><path fill="none" d="M135 90L260 90"/><path fill="none" d="M135 100L260 100"/><path fill="none" d="M135 110L260 110"/></g><g class="vf-stavebarline" id="vf-auto4600"><rect x="135" y="69.5" width="1" height="41" stroke="none"/></g><g class="vf-stavebarline" id="vf-auto4601"><rect x="257" y="69.5" width="1" height="41" stroke="none"/><rect x="260" y="69.5" width="1" height="41" stroke="none"/></g><g class="vf-stavenote" id="vf-auto4570"><g class="vf-stem" id="vf-auto4571" pointer-events="bounding-box"><path stroke-width="1.5" fill="none" d="M152.75 87L152.75 120"/></g><g class="vf-notehead" id="vf-auto4573" pointer-events="bounding-box"><path stroke="none" d="M155.931 90.054C159.525 90.054,163.934 86.741,163.934 83.315C163.934 81.237,162.305 79.946,160.003 79.946C155.566 79.946,152 83.231,152 86.685C152 88.791,153.741 90.054,155.931 90.054"/><path stroke="none" d="M154.027 61.06C154.027 63.276,155.806 65,157.967 65C160.128 65,161.907 63.276,161.907 61.06C161.907 59.118,160.457 57.476,158.596 57.202L158.596 53.18L157.338 53.18L157.338 57.202C155.45 57.476,154.027 59.118,154.027 61.06M157.338 58.269L157.338 61.06L158.596 61.06L158.596 58.269C159.855 58.543,160.84 59.72,160.84 61.06C160.84 62.674,159.554 63.933,157.967 63.933C156.353 63.933,155.094 62.674,155.094 61.06C155.094 59.72,156.024 58.543,157.338 58.269"/></g></g><g class="vf-stavenote" id="vf-auto4574"><path stroke-width="1.4" fill="none" stroke="#444" d="M175.583 60L193.517 60"/><g class="vf-stem" id="vf-auto4575" pointer-events="bounding-box"><path stroke-width="1.5" fill="none" d="M179.333 62L179.333 95"/></g><g class="vf-notehead" id="vf-auto4577" pointer-events="bounding-box"><path stroke="none" d="M182.514 65.054C186.109 65.054,190.517 61.741,190.517 58.315C190.517 56.237,188.888 54.946,186.586 54.946C182.149 54.946,178.583 58.231,178.583 61.685C178.583 63.791,180.324 65.054,182.514 65.054"/><path stroke="none" d="M180.61 46.06C180.61 48.276,182.389 50,184.55 50C186.712 50,188.49 48.276,188.49 46.06C188.49 44.118,187.04 42.476,185.179 42.202L185.179 38.18L183.921 38.18L183.921 42.202C182.033 42.476,180.61 44.118,180.61 46.06M183.921 43.269L183.921 46.06L185.179 46.06L185.179 43.269C186.438 43.543,187.423 44.72,187.423 46.06C187.423 47.674,186.137 48.933,184.55 48.933C182.936 48.933,181.677 47.674,181.677 46.06C181.677 44.72,182.608 43.543,183.921 43.269"/></g></g><g class="vf-stavenote" id="vf-auto4578"><g class="vf-stem" id="vf-auto4579" pointer-events="bounding-box"><path stroke-width="1.5" fill="none" d="M205.916 87L205.916 120"/></g><g class="vf-notehead" id="vf-auto4581" pointer-events="bounding-box"><path stroke="none" d="M209.097 90.054C212.692 90.054,217.1 86.741,217.1 83.315C217.1 81.237,215.472 79.946,213.169 79.946C208.732 79.946,205.166 83.231,205.166 86.685C205.166 88.791,206.907 90.054,209.097 90.054"/><path stroke="none" d="M215.073 128.94C215.073 126.724,213.295 125,211.133 125C208.972 125,207.193 126.724,207.193 128.94C207.193 130.91,208.616 132.524,210.504 132.852L210.504 136.82L211.763 136.82L211.763 132.852C213.623 132.524,215.073 130.91,215.073 128.94M211.763 131.731L211.763 128.94L210.504 128.94L210.504 131.731C209.245 131.457,208.26 130.308,208.26 128.94C208.26 127.326,209.546 126.067,211.133 126.067C212.747 126.067,214.006 127.326,214.006 128.94C214.006 130.308,213.076 131.457,211.763 131.731"/></g></g><g class="vf-stavenote" id="vf-auto4582"><path stroke-width="1.4" fill="none" stroke="#444" d="M228.749 60L246.683 60"/><g class="vf-stem" id="vf-auto4583" pointer-events="bounding-box"><path stroke-width="1.5" fill="none" d="M232.499 62L232.499 95"/></g><g class="vf-notehead" id="vf-auto4585" pointer-events="bounding-box"><path stroke="none" d="M235.681 65.054C239.275 65.054,243.683 61.741,243.683 58.315C243.683 56.237,242.055 54.946,239.752 54.946C235.316 54.946,231.749 58.231,231.749 61.685C231.749 63.791,233.49 65.054,235.681 65.054"/><path stroke="none" d="M241.656 118.94C241.656 116.724,239.878 115,237.716 115C235.555 115,233.777 116.724,233.777 118.94C233.777 120.91,235.199 122.524,237.087 122.852L237.087 126.82L238.346 126.82L238.346 122.852C240.206 122.524,241.656 120.91,241.656 118.94M238.346 121.731L238.346 118.94L237.087 118.94L237.087 121.731C235.829 121.457,234.844 120.308,234.844 118.94C234.844 117.326,236.129 116.067,237.716 116.067C239.331 116.067,240.589 117.326,240.589 118.94C240.589 120.308,239.659 121.457,238.346 121.731"/></g></g><g class="vf-stave" id="vf-auto4631" stroke-width="1" fill="#999999" stroke="#999999"><path fill="none" d="M260 70L385 70"/><path fill="none" d="M260 80L385 80"/><path fill="none" d="M260 90L385 90"/><path fill="none" d="M260 100L385 100"/><path fill="none" d="M260 110L385 110"/></g><g class="vf-stavebarline" id="vf-auto4632"><rect x="260" y="69.5" width="1" height="41" stroke="none"/></g><g class="vf-stavebarline" id="vf-auto4633"/><g class="vf-stavenote" id="vf-auto4602"><path stroke-width="1.4" fill="none" stroke="#444" d="M274 120L291.934 120"/><g class="vf-stem" id="vf-auto4603" pointer-events="bounding-box"><path stroke-width="1.5" fill="none" d="M288.184 118L288.184 85"/></g><g class="vf-notehead" id="vf-auto4605" pointer-events="bounding-box"><path stroke="none" d="M280.931 125.054C284.525 125.054,288.934 121.741,288.934 118.315C288.934 116.237,287.305 114.946,285.003 114.946C280.566 114.946,277 118.231,277 121.685C277 123.791,278.741 125.054,280.931 125.054"/><path stroke="none" d="M286.907 133.94C286.907 131.724,285.128 130,282.967 130C280.806 130,279.027 131.724,279.027 133.94C279.027 135.91,280.45 137.524,282.338 137.852L282.338 141.82L283.596 141.82L283.596 137.852C285.457 137.524,286.907 135.91,286.907 133.94M283.596 136.731L283.596 133.94L282.338 133.94L282.338 136.731C281.079 136.457,280.094 135.308,280.094 133.94C280.094 132.326,281.38 131.067,282.967 131.067C284.581 131.067,285.84 132.326,285.84 133.94C285.84 135.308,284.91 136.457,283.596 136.731"/></g></g><g class="vf-stavenote" id="vf-auto4606"><g class="vf-stem" id="vf-auto4607" pointer-events="bounding-box"><path stroke-width="1.5" fill="none" d="M314.767 83L314.767 50"/></g><g class="vf-notehead" id="vf-auto4609" pointer-events="bounding-box"><path stroke="none" d="M307.514 90.054C311.109 90.054,315.517 86.741,315.517 83.315C315.517 81.237,313.888 79.946,311.586 79.946C307.149 79.946,303.583 83.231,303.583 86.685C303.583 88.791,305.324 90.054,307.514 90.054"/><path stroke="none" d="M313.49 118.94C313.49 116.724,311.712 115,309.55 115C307.389 115,305.61 116.724,305.61 118.94C305.61 120.91,307.033 122.524,308.921 122.852L308.921 126.82L310.179 126.82L310.179 122.852C312.04 122.524,313.49 120.91,313.49 118.94M310.179 121.731L310.179 118.94L308.921 118.94L308.921 121.731C307.662 121.457,306.677 120.308,306.677 118.94C306.677 117.326,307.963 116.067,309.55 116.067C311.164 116.067,312.423 117.326,312.423 118.94C312.423 120.308,311.493 121.457,310.179 121.731"/></g></g><g class="vf-stavenote" id="vf-auto4610"><path stroke-width="1.4" fill="none" stroke="#444" d="M327.166 120L345.1 120"/><g class="vf-stem" id="vf-auto4611" pointer-events="bounding-box"><path stroke-width="1.5" fill="none" d="M341.35 118L341.35 85"/></g><g class="vf-notehead" id="vf-auto4613" pointer-events="bounding-box"><path stroke="none" d="M334.097 125.054C337.692 125.054,342.1 121.741,342.1 118.315C342.1 116.237,340.472 114.946,338.169 114.946C333.732 114.946,330.166 118.231,330.166 121.685C330.166 123.791,331.907 125.054,334.097 125.054"/><path stroke="none" d="M332.193 61.06C332.193 63.276,333.972 65,336.133 65C338.295 65,340.073 63.276,340.073 61.06C340.073 59.118,338.623 57.476,336.763 57.202L336.763 53.18L335.504 53.18L335.504 57.202C333.616 57.476,332.193 59.118,332.193 61.06M335.504 58.269L335.504 61.06L336.763 61.06L336.763 58.269C338.021 58.543,339.006 59.72,339.006 61.06C339.006 62.674,337.72 63.933,336.133 63.933C334.519 63.933,333.26 62.674,333.26 61.06C333.26 59.72,334.191 58.543,335.504 58.269"/></g></g><g class="vf-stavenote" id="vf-auto4614"><g class="vf-stem" id="vf-auto4615" pointer-events="bounding-box"><path stroke-width="1.5" fill="none" d="M367.933 93L367.933 60"/></g><g class="vf-notehead" id="vf-auto4617" pointer-events="bounding-box"><path stroke="none" d="M360.681 100.054C364.275 100.054,368.683 96.741,368.683 93.315C368.683 91.237,367.055 89.946,364.752 89.946C360.316 89.946,356.749 93.231,356.749 96.685C356.749 98.791,358.49 100.054,360.681 100.054"/><path stroke="none" d="M358.777 51.06C358.777 53.276,360.555 55,362.716 55C364.878 55,366.656 53.276,366.656 51.06C366.656 49.118,365.206 47.476,363.346 47.202L363.346 43.18L362.087 43.18L362.087 47.202C360.199 47.476,358.777 49.118,358.777 51.06M362.087 48.269L362.087 51.06L363.346 51.06L363.346 48.269C364.604 48.543,365.589 49.72,365.589 51.06C365.589 52.674,364.303 53.933,362.716 53.933C361.102 53.933,359.844 52.674,359.844 51.06C359.844 49.72,360.774 48.543,362.087 48.269"/></g></g><g class="vf-stave" id="vf-auto4663" stroke-width="1" fill="#999999" stroke="#999999"><path fill="none" d="M385 70L510 70"/><path fill="none" d="M385 80L510 80"/><path fill="none" d="M385 90L510 90"/><path fill="none" d="M385 100L510 100"/><path fill="none" d="M385 110L510 110"/></g><g class="vf-stavebarline" id="vf-auto4664"><rect x="385" y="69.5" width="1" height="41" stroke="none"/></g><g class="vf-stavebarline" id="vf-auto4665"><rect x="505" y="69.5" width="1" height="41" stroke="none"/><rect x="508" y="69.5" width="3" height="41" stroke="none"/></g><g class="vf-stavenote" id="vf-auto4634"><g class="vf-stem" id="vf-auto4635" pointer-events="bounding-box"><path stroke-width="1.5" fill="none" d="M402.75 97L402.75 130"/></g><g class="vf-notehead" id="vf-auto4637" pointer-events="bounding-box"><path stroke="none" d="M405.931 100.054C409.525 100.054,413.934 96.741,413.934 93.315C413.934 91.237,412.305 89.946,410.003 89.946C405.566 89.946,402 93.231,402 96.685C402 98.791,403.741 100.054,405.931 100.054"/><path stroke="none" d="M404.027 61.06C404.027 63.276,405.806 65,407.967 65C410.128 65,411.907 63.276,411.907 61.06C411.907 59.118,410.457 57.476,408.596 57.202L408.596 53.18L407.338 53.18L407.338 57.202C405.45 57.476,404.027 59.118,404.027 61.06M407.338 58.269L407.338 61.06L408.596 61.06L408.596 58.269C409.855 58.543,410.84 59.72,410.84 61.06C410.84 62.674,409.554 63.933,407.967 63.933C406.353 63.933,405.094 62.674,405.094 61.06C405.094 59.72,406.024 58.543,407.338 58.269"/></g></g><g class="vf-stavenote" id="vf-auto4638"><path stroke-width="1.4" fill="none" stroke="#444" d="M425.583 60L443.517 60"/><g class="vf-stem" id="vf-auto4639" pointer-events="bounding-box"><path stroke-width="1.5" fill="none" d="M429.333 62L429.333 95"/></g><g class="vf-notehead" id="vf-auto4641" pointer-events="bounding-box"><path stroke="none" d="M432.514 65.054C436.109 65.054,440.517 61.741,440.517 58.315C440.517 56.237,438.888 54.946,436.586 54.946C432.149 54.946,428.583 58.231,428.583 61.685C428.583 63.791,430.324 65.054,432.514 65.054"/><path stroke="none" d="M430.61 46.06C430.61 48.276,432.389 50,434.55 50C436.712 50,438.49 48.276,438.49 46.06C438.49 44.118,437.04 42.476,435.179 42.202L435.179 38.18L433.921 38.18L433.921 42.202C432.033 42.476,430.61 44.118,430.61 46.06M433.921 43.269L433.921 46.06L435.179 46.06L435.179 43.269C436.438 43.543,437.423 44.72,437.423 46.06C437.423 47.674,436.137 48.933,434.55 48.933C432.936 48.933,431.677 47.674,431.677 46.06C431.677 44.72,432.608 43.543,433.921 43.269"/></g></g><g class="vf-stavenote" id="vf-auto4642"><g class="vf-stem" id="vf-auto4643" pointer-events="bounding-box"><path stroke-width="1.5" fill="none" d="M455.916 87L455.916 120"/></g><g class="vf-notehead" id="vf-auto4645" pointer-events="bounding-box"><path stroke="none" d="M459.097 90.054C462.692 90.054,467.1 86.741,467.1 83.315C467.1 81.237,465.472 79.946,463.169 79.946C458.732 79.946,455.166 83.231,455.166 86.685C455.166 88.791,456.907 90.054,459.097 90.054"/><path stroke="none" d="M465.073 128.94C465.073 126.724,463.295 125,461.133 125C458.972 125,457.193 126.724,457.193 128.94C457.193 130.91,458.616 132.524,460.504 132.852L460.504 136.82L461.763 136.82L461.763 132.852C463.623 132.524,465.073 130.91,465.073 128.94M461.763 131.731L461.763 128.94L460.504 128.94L460.504 131.731C459.245 131.457,458.26 130.308,458.26 128.94C458.26 127.326,459.546 126.067,461.133 126.067C462.747 126.067,464.006 127.326,464.006 128.94C464.006 130.308,463.076 131.457,461.763 131.731"/></g></g><g class="vf-stavenote" id="vf-auto4646"><path stroke-width="1.4" fill="none" stroke="#444" d="M478.749 60L496.683 60"/><g class="vf-stem" id="vf-auto4647" pointer-events="bounding-box"><path stroke-width="1.5" fill="none" d="M482.499 62L482.499 95"/></g><g class="vf-notehead" id="vf-auto4649" pointer-events="bounding-box"><path stroke="none" d="M485.681 65.054C489.275 65.054,493.683 61.741,493.683 58.315C493.683 56.237,492.055 54.946,489.752 54.946C485.316 54.946,481.749 58.231,481.749 61.685C481.749 63.791,483.49 65.054,485.681 65.054"/><path stroke="none" d="M491.656 118.94C491.656 116.724,489.878 115,487.716 115C485.555 115,483.777 116.724,483.777 118.94C483.777 120.91,485.199 122.524,487.087 122.852L487.087 126.82L488.346 126.82L488.346 122.852C490.206 122.524,491.656 120.91,491.656 118.94M488.346 121.731L488.346 118.94L487.087 118.94L487.087 121.731C485.829 121.457,484.844 120.308,484.844 118.94C484.844 117.326,486.129 116.067,487.716 116.067C489.331 116.067,490.589 117.326,490.589 118.94C490.589 120.308,489.659 121.457,488.346 121.731"/></g></g></svg>