<svg xmlns="http://www.w3.org/2000/svg" stroke-width="0.3" stroke-dasharray="none" fill="black" stroke="black" font-family="Arial, sans-serif" font-size="10pt" font-weight="normal" font-style="normal" width="450" height="140" viewBox="0 0 450 140" style="width: 450px; height: 140px; border: none;"><g class="vf-stave" id="vf-auto26385" stroke-width="1" fill="#999999" stroke="#999999"><path fill="none" d="M0 40L440 40"/><path fill="none" d="M0 50L440 50"/><path fill="none" d="M0 60L440 60"/><path fill="none" d="M0 70L440 70"/><path fill="none" d="M0 80L440 80"/></g><g class="vf-stavebarline" id="vf-auto26386"><rect y="39.5" width="1" height="41" stroke="none"/></g><g class="vf-stavebarline" id="vf-auto26387"><rect x="440" y="39.5" width="1" height="41" stroke="none"/></g><g class="vf-stavenote" id="vf-auto26388"><path stroke-width="1.4" fill="none" stroke="#444" d="M50.46 90L69.968 90"/><g class="vf-stem" id="vf-auto26389" pointer-events="bounding-box"><path stroke-width="1.5" fill="none" d="M66.218 88L66.218 30"/></g><g class="vf-notehead" id="vf-auto26393" pointer-events="bounding-box"><path stroke="none" d="M57.105 96.543C57.386 96.599,57.638 96.627,57.919 96.627C61.794 96.627,67.579 91.348,67.466 87.08C67.354 86.041,67.382 84.609,65.276 83.766C64.686 83.485,64.041 83.373,63.339 83.373C59.014 83.373,54.325 88.343,53.988 91.657C53.988 91.909,53.96 92.134,53.96 92.387C53.96 94.409,54.858 96.037,57.105 96.543"/><path stroke="none" d="M23.821 98.208C23.93 98.208,24.094 98.126,24.286 97.907C24.806 97.497,25.38 97.059,25.955 96.648C29.402 94.186,31.263 90.821,31.263 86.525C31.263 85.978,31.263 85.458,31.181 84.911C30.989 82.996,29.895 81.874,28.226 81.874C27.87 81.874,27.487 81.956,27.049 82.093C26.502 82.23,25.955 82.503,25.38 82.75L25.353 82.777L25.353 81.765C25.353 80.26,25.435 78.782,25.517 77.278C25.517 76.402,25.599 75.581,25.599 74.706C25.599 73.885,25.517 73.009,25.326 72.189C25.244 71.915,25.244 71.395,24.833 71.395L24.806 71.395C24.368 71.45,24.04 71.806,24.04 72.353C24.012 73.447,23.903 74.596,23.93 75.691L23.93 76.922C23.93 79.248,23.821 81.573,23.739 83.899C23.629 87.237,23.055 90.52,23.055 93.858C23.055 95.171,23.137 96.539,23.492 97.852C23.575 98.071,23.657 98.208,23.821 98.208M24.888 92.873C24.97 91.86,24.997 90.793,25.107 89.672C25.189 88.824,25.244 87.948,25.244 87.072L25.38 87.018C26.146 86.689,26.885 86.306,27.706 86.306C27.98 86.306,28.308 86.388,28.609 86.498C29.265 86.717,29.566 87.045,29.539 87.483C29.539 87.702,29.484 87.948,29.32 88.276C28.308 90.274,26.639 91.614,24.888 92.873"/></g><g class="vf-notehead" id="vf-auto26394" pointer-events="bounding-box"><path stroke="none" d="M57.105 86.543C57.386 86.599,57.638 86.627,57.919 86.627C61.794 86.627,67.579 81.348,67.466 77.08C67.354 76.041,67.382 74.609,65.276 73.766C64.686 73.485,64.041 73.373,63.339 73.373C59.014 73.373,54.325 78.343,53.988 81.657C53.988 81.909,53.96 82.134,53.96 82.387C53.96 84.409,54.858 86.037,57.105 86.543"/><path stroke="none" d="M40.61 95.13C40.911 95.103,40.993 94.665,41.075 94.391C41.24 93.872,41.267 93.352,41.267 92.887C41.267 92.449,41.24 92.066,41.24 91.628C41.24 91.354,41.24 90.999,41.267 90.725C41.349 89.932,41.431 89.138,41.458 88.345L43.209 87.989C43.292 89.658,43.592 91.272,44.14 92.832C44.194 93.051,44.331 93.27,44.577 93.27C44.824 93.324,44.906 93.051,45.015 92.832C45.289 92.421,45.316 91.902,45.316 91.436C45.371 91.081,45.371 90.752,45.371 90.452C45.371 89.494,45.289 88.509,45.261 87.551L47.532 87.086C49.694 86.648,49.967 86.348,50.132 84.268C50.132 83.748,50.186 83.393,50.132 82.982C50.104 82.49,49.885 82.134,49.475 82.134L49.393 82.134C49.229 82.134,49.119 82.134,48.955 82.161C48.052 82.408,47.067 82.599,46.11 82.763L45.453 82.873C45.48 82.326,45.48 81.724,45.535 81.149C45.562 79.891,45.59 78.632,45.59 77.373C46.712 77.072,47.779 76.772,48.846 76.416C49.42 76.224,49.94 75.896,50.104 75.267C50.241 74.555,50.46 73.899,50.46 73.187C50.46 72.777,50.405 72.367,50.241 71.956C50.104 71.573,49.967 71.382,49.748 71.382L49.666 71.382C49.53 71.382,49.393 71.382,49.229 71.464C47.997 71.956,46.794 72.367,45.535 72.722L45.398 70.588C45.316 68.892,45.261 67.168,44.906 65.472C44.824 65.253,44.851 64.897,44.605 64.897L44.577 64.897L44.468 64.897C44.14 64.979,43.757 65.116,43.702 65.554L43.702 66.293C43.702 68.618,43.784 70.889,43.839 73.187L41.732 73.652C41.732 72.476,41.705 71.3,41.623 70.123C41.595 69.521,41.595 68.974,41.267 68.372C40.391 68.81,40.528 69.548,40.528 70.178C40.446 71.464,40.391 72.668,40.364 73.899C39.27 74.118,38.148 74.282,37.053 74.473C35.439 74.747,35.193 74.993,35.193 76.772C35.084 77.209,35.412 77.702,35.357 78.194C35.275 78.933,35.467 79.179,35.986 79.207C36.096 79.207,36.233 79.179,36.397 79.124C37.683 78.933,38.941 78.741,40.2 78.495L40.09 82.052C40.036 82.709,39.981 83.338,39.899 83.967C38.421 84.268,36.971 84.542,35.521 84.897C34.7 85.089,34.208 85.39,34.208 86.348C34.208 87.278,34.564 88.153,34.618 89.056C34.618 89.494,34.728 89.685,35.056 89.74C35.111 89.74,35.248 89.685,35.412 89.658C36.807 89.33,38.23 89.056,39.653 88.755C39.625 89.248,39.625 89.768,39.625 90.315C39.625 91.71,39.762 93.051,40.255 94.391C40.337 94.665,40.255 95.13,40.61 95.13M41.65 83.612C41.705 82.763,41.705 81.888,41.732 81.012C41.787 80.082,41.787 79.179,41.787 78.222C42.443 78.112,43.073 78.003,43.702 77.839C43.51 79.644,43.428 81.45,43.319 83.283"/></g><g class="vf-notehead" id="vf-auto26395" pointer-events="bounding-box"><path stroke="none" d="M57.105 71.543C57.386 71.599,57.638 71.627,57.919 71.627C61.794 71.627,67.579 66.348,67.466 62.08C67.354 61.041,67.382 59.609,65.276 58.766C64.686 58.485,64.041 58.373,63.339 58.373C59.014 58.373,54.325 63.343,53.988 66.657C53.988 66.909,53.96 67.134,53.96 67.387C53.96 69.409,54.858 71.037,57.105 71.543"/></g></g><g class="vf-stavenote" id="vf-auto26400"><g class="vf-stem" id="vf-auto26401" pointer-events="bounding-box"><path stroke-width="1.5" fill="none" d="M155.226 83L155.226 50"/></g><g class="vf-notehead" id="vf-auto26403" pointer-events="bounding-box"><path stroke="none" d="M146.113 91.543C146.394 91.599,146.646 91.627,146.927 91.627C150.802 91.627,156.587 86.348,156.474 82.08C156.362 81.041,156.39 79.609,154.284 78.766C153.694 78.485,153.049 78.373,152.347 78.373C148.022 78.373,143.333 83.343,142.996 86.657C142.996 86.909,142.968 87.134,142.968 87.387C142.968 89.409,143.866 91.037,146.113 91.543"/></g></g><g class="vf-stavenote" id="vf-auto26404"><g class="vf-stem" id="vf-auto26405" pointer-events="bounding-box"><path stroke-width="1.5" fill="none" d="M244.234 78L244.234 45"/></g><g class="vf-notehead" id="vf-auto26407" pointer-events="bounding-box"><path stroke="none" d="M235.121 86.543C235.402 86.599,235.654 86.627,235.935 86.627C239.81 86.627,245.595 81.348,245.482 77.08C245.37 76.041,245.398 74.609,243.292 73.766C242.702 73.485,242.057 73.373,241.355 73.373C237.03 73.373,232.341 78.343,232.004 81.657C232.004 81.909,231.976 82.134,231.976 82.387C231.976 84.409,232.874 86.037,235.121 86.543"/></g></g><g class="vf-stavenote" id="vf-auto26408"><g class="vf-stem" id="vf-auto26409" pointer-events="bounding-box"><path stroke-width="1.5" fill="none" d="M333.242 73L333.242 40"/></g><g class="vf-notehead" id="vf-auto26411" pointer-events="bounding-box"><path stroke="none" d="M324.129 81.543C324.41 81.599,324.662 81.627,324.943 81.627C328.818 81.627,334.603 76.348,334.49 72.08C334.378 71.041,334.406 69.609,332.3 68.766C331.71 68.485,331.065 68.373,330.363 68.373C326.038 68.373,321.349 73.343,321.012 76.657C321.012 76.909,320.984 77.134,320.984 77.387C320.984 79.409,321.882 81.037,324.129 81.543"/></g></g><path stroke-width="1" fill="none" d="M238.23 110L60.214 115L238.23 120"/><path stroke-width="1" fill="none" d="M240.23 95L327.238 100L240.23 105"/></svg>