<svg xmlns="http://www.w3.org/2000/svg" stroke-width="0.3" stroke-dasharray="none" fill="black" stroke="black" font-family="Arial, sans-serif" font-size="10pt" font-weight="normal" font-style="normal" width="450" height="140" viewBox="0 0 450 140" style="width: 450px; height: 140px; border: none;"><g class="vf-stave" id="vf-auto6895" stroke-width="1" fill="#999999" stroke="#999999"><path fill="none" d="M0 40L440 40"/><path fill="none" d="M0 50L440 50"/><path fill="none" d="M0 60L440 60"/><path fill="none" d="M0 70L440 70"/><path fill="none" d="M0 80L440 80"/></g><g class="vf-stavebarline" id="vf-auto6896"><rect y="39.5" width="1" height="41" stroke="none"/></g><g class="vf-stavebarline" id="vf-auto6897"><rect x="440" y="39.5" width="1" height="41" stroke="none"/></g><g class="vf-stavenote" id="vf-auto6898"><g class="vf-notehead" id="vf-auto6904" pointer-events="bounding-box"><path stroke="none" d="M20.931 70.054C24.525 70.054,28.934 66.741,28.934 63.315C28.934 61.237,27.305 59.946,25.003 59.946C20.566 59.946,17 63.231,17 66.685C17 68.791,18.741 70.054,20.931 70.054"/></g></g><g class="vf-stavenote" id="vf-auto6906"><g class="vf-notehead" id="vf-auto6912" pointer-events="bounding-box"><path stroke="none" d="M74.681 65.054C78.275 65.054,82.684 61.741,82.684 58.315C82.684 56.237,81.055 54.946,78.753 54.946C74.316 54.946,70.75 58.231,70.75 61.685C70.75 63.791,72.491 65.054,74.681 65.054"/></g></g><g class="vf-stavenote" id="vf-auto6914"><path stroke-width="1.4" fill="none" stroke="#444" d="M121.5 90L139.434 90"/><g class="vf-notehead" id="vf-auto6920" pointer-events="bounding-box"><path stroke="none" d="M128.431 95.054C132.025 95.054,136.434 91.741,136.434 88.315C136.434 86.237,134.805 84.946,132.503 84.946C128.066 84.946,124.5 88.231,124.5 91.685C124.5 93.791,126.241 95.054,128.431 95.054"/></g></g><g class="vf-stavenote" id="vf-auto6922"><g class="vf-notehead" id="vf-auto6928" pointer-events="bounding-box"><path stroke="none" d="M182.181 90.054C185.775 90.054,190.184 86.741,190.184 83.315C190.184 81.237,188.555 79.946,186.253 79.946C181.816 79.946,178.25 83.231,178.25 86.685C178.25 88.791,179.991 90.054,182.181 90.054"/></g></g><g class="vf-stavenote" id="vf-auto6930"><g class="vf-notehead" id="vf-auto6936" pointer-events="bounding-box"><path stroke="none" d="M235.931 75.054C239.525 75.054,243.934 71.741,243.934 68.315C243.934 66.237,242.305 64.946,240.003 64.946C235.566 64.946,232 68.231,232 71.685C232 73.791,233.741 75.054,235.931 75.054"/></g></g><g class="vf-stavenote" id="vf-auto6938"><g class="vf-notehead" id="vf-auto6944" pointer-events="bounding-box"><path stroke="none" d="M289.681 70.054C293.275 70.054,297.684 66.741,297.684 63.315C297.684 61.237,296.055 59.946,293.753 59.946C289.316 59.946,285.75 63.231,285.75 66.685C285.75 68.791,287.491 70.054,289.681 70.054"/></g></g><g class="vf-stavenote" id="vf-auto6946"><g class="vf-notehead" id="vf-auto6952" pointer-events="bounding-box"><path stroke="none" d="M343.431 65.054C347.025 65.054,351.434 61.741,351.434 58.315C351.434 56.237,349.805 54.946,347.503 54.946C343.066 54.946,339.5 58.231,339.5 61.685C339.5 63.791,341.241 65.054,343.431 65.054"/></g></g><g class="vf-stavenote" id="vf-auto6954"><path stroke-width="1.4" fill="none" stroke="#444" d="M390.25 90L408.184 90"/><g class="vf-notehead" id="vf-auto6960" pointer-events="bounding-box"><path stroke="none" d="M397.181 95.054C400.775 95.054,405.184 91.741,405.184 88.315C405.184 86.237,403.555 84.946,401.253 84.946C396.816 84.946,393.25 88.231,393.25 91.685C393.25 93.791,394.991 95.054,397.181 95.054"/></g></g><g class="vf-stem" id="vf-auto6899" pointer-events="bounding-box"><path stroke-width="1.5" fill="none" d="M28.184 63L28.184 13.656"/></g><g class="vf-stem" id="vf-auto6907" pointer-events="bounding-box"><path stroke-width="1.5" fill="none" d="M81.934 58L81.934 25.75"/></g><g class="vf-stem" id="vf-auto6915" pointer-events="bounding-box"><path stroke-width="1.5" fill="none" d="M135.684 88L135.684 37.844"/></g><g class="vf-stem" id="vf-auto6923" pointer-events="bounding-box"><path stroke-width="1.5" fill="none" d="M189.434 83L189.434 49.938"/></g><g class="vf-beam" id="vf-auto6963"><path stroke="none" d="M27.434 12.738L27.434 17.738L189.684 54.019L189.684 49.019Z"/></g><g class="vf-stem" id="vf-auto6931" pointer-events="bounding-box"><path stroke-width="1.5" fill="none" d="M243.184 68L243.184 33.813"/></g><g class="vf-stem" id="vf-auto6939" pointer-events="bounding-box"><path stroke-width="1.5" fill="none" d="M296.934 63L296.934 29.781"/></g><g class="vf-stem" id="vf-auto6947" pointer-events="bounding-box"><path stroke-width="1.5" fill="none" d="M350.684 58L350.684 25.75"/></g><g class="vf-stem" id="vf-auto6955" pointer-events="bounding-box"><path stroke-width="1.5" fill="none" d="M404.434 88L404.434 21.719"/></g><g class="vf-beam" id="vf-auto6964"><path stroke="none" d="M242.434 33.119L242.434 38.119L404.684 26.025L404.684 21.025Z"/></g></svg>