<svg xmlns="http://www.w3.org/2000/svg" stroke-width="0.3" stroke-dasharray="none" fill="black" stroke="black" font-family="Arial, sans-serif" font-size="10pt" font-weight="normal" font-style="normal" width="1500" height="195" viewBox="0 0 1875 243.75" style="width: 1500px; height: 195px; border: none;"><g class="vf-stave" id="vf-auto8774" stroke-width="1" fill="#999999" stroke="#999999"><path fill="none" d="M10 90L510 90"/><path fill="none" d="M10 100L510 100"/><path fill="none" d="M10 110L510 110"/><path fill="none" d="M10 120L510 120"/><path fill="none" d="M10 130L510 130"/></g><g class="vf-stavebarline" id="vf-auto8775"><rect x="10" y="89.5" width="1" height="41" stroke="none"/></g><g class="vf-stavebarline" id="vf-auto8776"><rect x="510" y="89.5" width="1" height="41" stroke="none"/></g><g class="vf-stavenote" id="vf-auto8777"><path stroke-width="1.4" fill="none" stroke="#444" d="M24.543 140L43.684 140"/><g class="vf-notehead" id="vf-auto8781" pointer-events="bounding-box"><path stroke="none" d="M27.543 141.685C27.543 143.426,28.806 145.391,32.064 145.391C36.276 145.391,40.684 141.938,40.684 138.371C40.684 135.985,38.663 134.665,36.163 134.665C32.232 134.665,27.543 137.978,27.543 141.685"/><path stroke="none" d="M32.144 151.97C32.144 153.064,33.019 153.94,34.114 153.94C35.208 153.94,36.084 153.064,36.084 151.97C36.084 150.876,35.208 150,34.114 150C33.019 150,32.144 150.876,32.144 151.97"/><path stroke="none" d="M27.711 160.027C27.657 160.027,27.602 160,27.547 160C27.246 160,27 160.246,27 160.547L27 161.45C27 161.696,27.192 161.888,27.383 161.97L35.837 164.596L27.383 167.278C27.192 167.36,27 167.551,27 167.798L27 168.7C27 169.029,27.246 169.248,27.547 169.248C27.602 169.248,27.657 169.22,27.711 169.22L40.817 165.171C41.036 165.089,41.227 164.843,41.227 164.596C41.227 164.378,41.036 164.186,40.817 164.104"/></g></g><g class="vf-stavenote" id="vf-auto8783"><g class="vf-notehead" id="vf-auto8787" pointer-events="bounding-box"><path stroke="none" d="M57.354 136.685C57.354 138.426,58.618 140.391,61.875 140.391C66.087 140.391,70.496 136.938,70.496 133.371C70.496 130.985,68.474 129.665,65.975 129.665C62.044 129.665,57.354 132.978,57.354 136.685"/><path stroke="none" d="M61.955 146.97C61.955 148.064,62.831 148.94,63.925 148.94C65.019 148.94,65.895 148.064,65.895 146.97C65.895 145.876,65.019 145,63.925 145C62.831 145,61.955 145.876,61.955 146.97"/><path stroke="none" d="M57.523 155.027C57.468 155.027,57.413 155,57.359 155C57.058 155,56.811 155.246,56.811 155.547L56.811 156.45C56.811 156.696,57.003 156.888,57.194 156.97L65.649 159.596L57.194 162.278C57.003 162.36,56.811 162.551,56.811 162.798L56.811 163.7C56.811 164.029,57.058 164.248,57.359 164.248C57.413 164.248,57.468 164.22,57.523 164.22L70.628 160.171C70.847 160.089,71.039 159.843,71.039 159.596C71.039 159.378,70.847 159.186,70.628 159.104"/></g></g><g class="vf-stavenote" id="vf-auto8789"><g class="vf-notehead" id="vf-auto8793" pointer-events="bounding-box"><path stroke="none" d="M87.165 131.685C87.165 133.426,88.429 135.391,91.686 135.391C95.898 135.391,100.307 131.938,100.307 128.371C100.307 125.985,98.285 124.665,95.786 124.665C91.855 124.665,87.165 127.978,87.165 131.685"/><path stroke="none" d="M91.766 141.97C91.766 143.064,92.642 143.94,93.736 143.94C94.831 143.94,95.706 143.064,95.706 141.97C95.706 140.876,94.831 140,93.736 140C92.642 140,91.766 140.876,91.766 141.97"/><path stroke="none" d="M87.334 150.027C87.279 150.027,87.225 150,87.17 150C86.869 150,86.623 150.246,86.623 150.547L86.623 151.45C86.623 151.696,86.814 151.888,87.006 151.97L95.46 154.596L87.006 157.278C86.814 157.36,86.623 157.551,86.623 157.798L86.623 158.7C86.623 159.029,86.869 159.248,87.17 159.248C87.225 159.248,87.279 159.22,87.334 159.22L100.439 155.171C100.658 155.089,100.85 154.843,100.85 154.596C100.85 154.378,100.658 154.186,100.439 154.104"/></g></g><g class="vf-stavenote" id="vf-auto8795"><g class="vf-notehead" id="vf-auto8799" pointer-events="bounding-box"><path stroke="none" d="M116.977 126.685C116.977 128.426,118.24 130.391,121.498 130.391C125.71 130.391,130.118 126.938,130.118 123.371C130.118 120.985,128.096 119.665,125.597 119.665C121.666 119.665,116.977 122.978,116.977 126.685"/><path stroke="none" d="M121.578 136.97C121.578 138.064,122.453 138.94,123.548 138.94C124.642 138.94,125.517 138.064,125.517 136.97C125.517 135.876,124.642 135,123.548 135C122.453 135,121.578 135.876,121.578 136.97"/><path stroke="none" d="M117.145 145.027C117.091 145.027,117.036 145,116.981 145C116.68 145,116.434 145.246,116.434 145.547L116.434 146.45C116.434 146.696,116.625 146.888,116.817 146.97L125.271 149.596L116.817 152.278C116.625 152.36,116.434 152.551,116.434 152.798L116.434 153.7C116.434 154.029,116.68 154.248,116.981 154.248C117.036 154.248,117.091 154.22,117.145 154.22L130.251 150.171C130.47 150.089,130.661 149.843,130.661 149.596C130.661 149.378,130.47 149.186,130.251 149.104"/></g></g><g class="vf-stavenote" id="vf-auto8801"><g class="vf-notehead" id="vf-auto8805" pointer-events="bounding-box"><path stroke="none" d="M146.788 121.685C146.788 123.426,148.052 125.391,151.309 125.391C155.521 125.391,159.93 121.938,159.93 118.371C159.93 115.985,157.908 114.665,155.409 114.665C151.477 114.665,146.788 117.978,146.788 121.685"/><path stroke="none" d="M151.389 136.97C151.389 138.064,152.264 138.94,153.359 138.94C154.453 138.94,155.329 138.064,155.329 136.97C155.329 135.876,154.453 135,153.359 135C152.264 135,151.389 135.876,151.389 136.97"/><path stroke="none" d="M146.957 140.027C146.902 140.027,146.847 140,146.792 140C146.491 140,146.245 140.246,146.245 140.547L146.245 141.45C146.245 141.696,146.437 141.888,146.628 141.97L155.083 144.596L146.628 147.278C146.437 147.36,146.245 147.551,146.245 147.798L146.245 148.7C146.245 149.029,146.491 149.248,146.792 149.248C146.847 149.248,146.902 149.22,146.957 149.22L160.062 145.171C160.281 145.089,160.472 144.843,160.472 144.596C160.472 144.378,160.281 144.186,160.062 144.104"/></g></g><g class="vf-stavenote" id="vf-auto8807"><g class="vf-notehead" id="vf-auto8811" pointer-events="bounding-box"><path stroke="none" d="M176.599 116.685C176.599 118.426,177.863 120.391,181.12 120.391C185.332 120.391,189.741 116.938,189.741 113.371C189.741 110.985,187.719 109.665,185.22 109.665C181.289 109.665,176.599 112.978,176.599 116.685"/><path stroke="none" d="M181.2 125C181.2 126.094,182.076 126.97,183.17 126.97C184.265 126.97,185.14 126.094,185.14 125C185.14 123.906,184.265 123.03,183.17 123.03C182.076 123.03,181.2 123.906,181.2 125"/><path stroke="none" d="M176.768 135.027C176.713 135.027,176.658 135,176.604 135C176.303 135,176.057 135.246,176.057 135.547L176.057 136.45C176.057 136.696,176.248 136.888,176.44 136.97L184.894 139.596L176.44 142.278C176.248 142.36,176.057 142.551,176.057 142.798L176.057 143.7C176.057 144.029,176.303 144.248,176.604 144.248C176.658 144.248,176.713 144.22,176.768 144.22L189.873 140.171C190.092 140.089,190.284 139.843,190.284 139.596C190.284 139.378,190.092 139.186,189.873 139.104"/></g></g><g class="vf-stavenote" id="vf-auto8813"><g class="vf-notehead" id="vf-auto8817" pointer-events="bounding-box"><path stroke="none" d="M206.411 111.685C206.411 113.426,207.674 115.391,210.932 115.391C215.144 115.391,219.552 111.938,219.552 108.371C219.552 105.985,217.53 104.665,215.031 104.665C211.1 104.665,206.411 107.978,206.411 111.685"/><path stroke="none" d="M211.012 125C211.012 126.094,211.887 126.97,212.981 126.97C214.076 126.97,214.951 126.094,214.951 125C214.951 123.906,214.076 123.03,212.981 123.03C211.887 123.03,211.012 123.906,211.012 125"/><path stroke="none" d="M206.579 135.027C206.524 135.027,206.47 135,206.415 135C206.114 135,205.868 135.246,205.868 135.547L205.868 136.45C205.868 136.696,206.059 136.888,206.251 136.97L214.705 139.596L206.251 142.278C206.059 142.36,205.868 142.551,205.868 142.798L205.868 143.7C205.868 144.029,206.114 144.248,206.415 144.248C206.47 144.248,206.524 144.22,206.579 144.22L219.685 140.171C219.904 140.089,220.095 139.843,220.095 139.596C220.095 139.378,219.904 139.186,219.685 139.104"/></g></g><g class="vf-stavenote" id="vf-auto8819"><g class="vf-notehead" id="vf-auto8823" pointer-events="bounding-box"><path stroke="none" d="M236.222 106.685C236.222 108.426,237.486 110.391,240.743 110.391C244.955 110.391,249.363 106.938,249.363 103.371C249.363 100.985,247.342 99.665,244.843 99.665C240.911 99.665,236.222 102.978,236.222 106.685"/><path stroke="none" d="M240.823 115C240.823 116.094,241.698 116.97,242.793 116.97C243.887 116.97,244.763 116.094,244.763 115C244.763 113.906,243.887 113.03,242.793 113.03C241.698 113.03,240.823 113.906,240.823 115"/><path stroke="none" d="M236.391 120.404C236.336 120.404,236.281 120.376,236.226 120.376C235.925 120.376,235.679 120.622,235.679 120.923L235.679 121.826C235.679 122.072,235.871 122.264,236.062 122.346L244.516 124.973L236.062 127.654C235.871 127.736,235.679 127.928,235.679 128.174L235.679 129.077C235.679 129.405,235.925 129.624,236.226 129.624C236.281 129.624,236.336 129.596,236.391 129.596L249.496 125.547C249.715 125.465,249.906 125.219,249.906 124.973C249.906 124.754,249.715 124.562,249.496 124.48"/></g></g><g class="vf-stavenote" id="vf-auto8825"><g class="vf-notehead" id="vf-auto8829" pointer-events="bounding-box"><path stroke="none" d="M266.033 101.685C266.033 103.426,267.297 105.391,270.554 105.391C274.766 105.391,279.175 101.938,279.175 98.371C279.175 95.985,277.153 94.665,274.654 94.665C270.723 94.665,266.033 97.978,266.033 101.685"/><path stroke="none" d="M270.634 144.14C270.634 145.234,271.51 146.11,272.604 146.11C273.698 146.11,274.574 145.234,274.574 144.14C274.574 143.045,273.698 142.17,272.604 142.17C271.51 142.17,270.634 143.045,270.634 144.14"/><path stroke="none" d="M266.202 152.197C266.147 152.197,266.092 152.17,266.038 152.17C265.737 152.17,265.49 152.416,265.49 152.717L265.49 153.62C265.49 153.866,265.682 154.058,265.874 154.14L274.328 156.766L265.874 159.448C265.682 159.53,265.49 159.721,265.49 159.967L265.49 160.87C265.49 161.199,265.737 161.417,266.038 161.417C266.092 161.417,266.147 161.39,266.202 161.39L279.307 157.341C279.526 157.259,279.718 157.013,279.718 156.766C279.718 156.547,279.526 156.356,279.307 156.274"/></g></g><g class="vf-stavenote" id="vf-auto8831"><g class="vf-notehead" id="vf-auto8835" pointer-events="bounding-box"><path stroke="none" d="M295.845 96.685C295.845 98.426,297.108 100.391,300.366 100.391C304.578 100.391,308.986 96.938,308.986 93.371C308.986 90.985,306.964 89.665,304.465 89.665C300.534 89.665,295.845 92.978,295.845 96.685"/><path stroke="none" d="M300.445 141.687C300.445 142.781,301.321 143.657,302.415 143.657C303.51 143.657,304.385 142.781,304.385 141.687C304.385 140.592,303.51 139.717,302.415 139.717C301.321 139.717,300.445 140.592,300.445 141.687"/><path stroke="none" d="M296.013 149.744C295.958 149.744,295.904 149.717,295.849 149.717C295.548 149.717,295.302 149.963,295.302 150.264L295.302 151.167C295.302 151.413,295.493 151.605,295.685 151.687L304.139 154.313L295.685 156.995C295.493 157.077,295.302 157.268,295.302 157.515L295.302 158.417C295.302 158.746,295.548 158.965,295.849 158.965C295.904 158.965,295.958 158.937,296.013 158.937L309.119 154.888C309.337 154.806,309.529 154.56,309.529 154.313C309.529 154.095,309.337 153.903,309.119 153.821"/></g></g><g class="vf-stavenote" id="vf-auto8837"><g class="vf-notehead" id="vf-auto8841" pointer-events="bounding-box"><path stroke="none" d="M325.656 91.685C325.656 93.426,326.92 95.391,330.177 95.391C334.389 95.391,338.797 91.938,338.797 88.371C338.797 85.985,336.776 84.665,334.277 84.665C330.345 84.665,325.656 87.978,325.656 91.685"/><path stroke="none" d="M330.257 136.97C330.257 138.064,331.132 138.94,332.227 138.94C333.321 138.94,334.197 138.064,334.197 136.97C334.197 135.876,333.321 135,332.227 135C331.132 135,330.257 135.876,330.257 136.97"/><path stroke="none" d="M325.824 145.027C325.77 145.027,325.715 145,325.66 145C325.359 145,325.113 145.246,325.113 145.547L325.113 146.45C325.113 146.696,325.305 146.888,325.496 146.97L333.95 149.596L325.496 152.278C325.305 152.36,325.113 152.551,325.113 152.798L325.113 153.7C325.113 154.029,325.359 154.248,325.66 154.248C325.715 154.248,325.77 154.22,325.824 154.22L338.93 150.171C339.149 150.089,339.34 149.843,339.34 149.596C339.34 149.378,339.149 149.186,338.93 149.104"/></g></g><g class="vf-stavenote" id="vf-auto8843"><g class="vf-notehead" id="vf-auto8847" pointer-events="bounding-box"><path stroke="none" d="M355.467 86.685C355.467 88.426,356.731 90.391,359.988 90.391C364.2 90.391,368.609 86.938,368.609 83.371C368.609 80.985,366.587 79.665,364.088 79.665C360.157 79.665,355.467 82.978,355.467 86.685"/><path stroke="none" d="M360.068 136.97C360.068 138.064,360.944 138.94,362.038 138.94C363.132 138.94,364.008 138.064,364.008 136.97C364.008 135.876,363.132 135,362.038 135C360.944 135,360.068 135.876,360.068 136.97"/><path stroke="none" d="M355.636 140.027C355.581 140.027,355.526 140,355.472 140C355.171 140,354.924 140.246,354.924 140.547L354.924 141.45C354.924 141.696,355.116 141.888,355.307 141.97L363.762 144.596L355.307 147.278C355.116 147.36,354.924 147.551,354.924 147.798L354.924 148.7C354.924 149.029,355.171 149.248,355.472 149.248C355.526 149.248,355.581 149.22,355.636 149.22L368.741 145.171C368.96 145.089,369.152 144.843,369.152 144.596C369.152 144.378,368.96 144.186,368.741 144.104"/></g></g><g class="vf-stavenote" id="vf-auto8849"><path stroke-width="1.4" fill="none" stroke="#444" d="M382.279 80L401.42 80"/><g class="vf-notehead" id="vf-auto8853" pointer-events="bounding-box"><path stroke="none" d="M385.279 81.685C385.279 83.426,386.542 85.391,389.799 85.391C394.011 85.391,398.42 81.938,398.42 78.371C398.42 75.985,396.398 74.665,393.899 74.665C389.968 74.665,385.279 77.978,385.279 81.685"/><path stroke="none" d="M389.879 136.97C389.879 138.064,390.755 138.94,391.849 138.94C392.944 138.94,393.819 138.064,393.819 136.97C393.819 135.876,392.944 135,391.849 135C390.755 135,389.879 135.876,389.879 136.97"/><path stroke="none" d="M385.447 137.386C385.392 137.386,385.338 137.358,385.283 137.358C384.982 137.358,384.736 137.605,384.736 137.906L384.736 138.809C384.736 139.055,384.927 139.246,385.119 139.328L393.573 141.955L385.119 144.636C384.927 144.718,384.736 144.91,384.736 145.156L384.736 146.059C384.736 146.387,384.982 146.606,385.283 146.606C385.338 146.606,385.392 146.579,385.447 146.579L398.553 142.53C398.771 142.447,398.963 142.201,398.963 141.955C398.963 141.736,398.771 141.545,398.553 141.462"/></g></g><g class="vf-stavenote" id="vf-auto8855"><path stroke-width="1.4" fill="none" stroke="#444" d="M412.09 80L431.231 80"/><g class="vf-notehead" id="vf-auto8859" pointer-events="bounding-box"><path stroke="none" d="M415.09 76.685C415.09 78.426,416.353 80.391,419.611 80.391C423.823 80.391,428.231 76.938,428.231 73.371C428.231 70.985,426.21 69.665,423.71 69.665C419.779 69.665,415.09 72.978,415.09 76.685"/><path stroke="none" d="M419.691 125C419.691 126.094,420.566 126.97,421.661 126.97C422.755 126.97,423.631 126.094,423.631 125C423.631 123.906,422.755 123.03,421.661 123.03C420.566 123.03,419.691 123.906,419.691 125"/><path stroke="none" d="M415.258 135.027C415.204 135.027,415.149 135,415.094 135C414.793 135,414.547 135.246,414.547 135.547L414.547 136.45C414.547 136.696,414.739 136.888,414.93 136.97L423.384 139.596L414.93 142.278C414.739 142.36,414.547 142.551,414.547 142.798L414.547 143.7C414.547 144.029,414.793 144.248,415.094 144.248C415.149 144.248,415.204 144.22,415.258 144.22L428.364 140.171C428.583 140.089,428.774 139.843,428.774 139.596C428.774 139.378,428.583 139.186,428.364 139.104"/></g></g><g class="vf-stavenote" id="vf-auto8861"><path stroke-width="1.4" fill="none" stroke="#444" d="M441.901 80L461.043 80"/><path stroke-width="1.4" fill="none" stroke="#444" d="M441.901 70L461.043 70"/><g class="vf-notehead" id="vf-auto8865" pointer-events="bounding-box"><path stroke="none" d="M444.901 71.685C444.901 73.426,446.165 75.391,449.422 75.391C453.634 75.391,458.043 71.938,458.043 68.371C458.043 65.985,456.021 64.665,453.522 64.665C449.591 64.665,444.901 67.978,444.901 71.685"/><path stroke="none" d="M449.502 125C449.502 126.094,450.378 126.97,451.472 126.97C452.566 126.97,453.442 126.094,453.442 125C453.442 123.906,452.566 123.03,451.472 123.03C450.378 123.03,449.502 123.906,449.502 125"/><path stroke="none" d="M445.07 135.027C445.015 135.027,444.96 135,444.906 135C444.605 135,444.358 135.246,444.358 135.547L444.358 136.45C444.358 136.696,444.55 136.888,444.741 136.97L453.196 139.596L444.741 142.278C444.55 142.36,444.358 142.551,444.358 142.798L444.358 143.7C444.358 144.029,444.605 144.248,444.906 144.248C444.96 144.248,445.015 144.22,445.07 144.22L458.175 140.171C458.394 140.089,458.586 139.843,458.586 139.596C458.586 139.378,458.394 139.186,458.175 139.104"/></g></g><g class="vf-stavenote" id="vf-auto8867"><path stroke-width="1.4" fill="none" stroke="#444" d="M471.713 80L490.854 80"/><path stroke-width="1.4" fill="none" stroke="#444" d="M471.713 70L490.854 70"/><g class="vf-notehead" id="vf-auto8871" pointer-events="bounding-box"><path stroke="none" d="M474.713 66.685C474.713 68.426,475.976 70.391,479.233 70.391C483.445 70.391,487.854 66.938,487.854 63.371C487.854 60.985,485.832 59.665,483.333 59.665C479.402 59.665,474.713 62.978,474.713 66.685"/><path stroke="none" d="M479.313 115C479.313 116.094,480.189 116.97,481.283 116.97C482.378 116.97,483.253 116.094,483.253 115C483.253 113.906,482.378 113.03,481.283 113.03C480.189 113.03,479.313 113.906,479.313 115"/><path stroke="none" d="M474.881 120.404C474.826 120.404,474.772 120.376,474.717 120.376C474.416 120.376,474.17 120.622,474.17 120.923L474.17 121.826C474.17 122.072,474.361 122.264,474.553 122.346L483.007 124.973L474.553 127.654C474.361 127.736,474.17 127.928,474.17 128.174L474.17 129.077C474.17 129.405,474.416 129.624,474.717 129.624C474.772 129.624,474.826 129.596,474.881 129.596L487.986 125.547C488.205 125.465,488.397 125.219,488.397 124.973C488.397 124.754,488.205 124.562,487.986 124.48"/><path stroke="none" d="M490.312 145.233C492.227 143.153,493.541 138.912,493.541 136.778C493.541 135.985,493.376 135.52,492.993 135.52C491.872 135.52,492.419 138.912,489.108 142.25C486.208 145.178,482.296 145.205,481.365 145.205C481.311 145.205,481.311 145.205,481.283 145.205C481.229 145.205,481.229 145.205,481.201 145.205C480.244 145.205,476.358 145.178,473.431 142.25C470.12 138.912,470.668 135.52,469.573 135.52C469.19 135.52,469.026 136.012,469.026 136.778C469.026 138.912,470.367 143.126,472.309 145.233C476.003 149.255,479.231 149.501,481.283 149.501C483.335 149.501,486.591 149.255,490.312 145.233M478.547 137.709C478.547 139.213,479.778 140.445,481.283 140.445C482.788 140.445,483.992 139.213,483.992 137.709C483.992 136.231,482.788 135,481.283 135C479.778 135,478.547 136.231,478.547 137.709"/></g></g><g class="vf-stem" id="vf-auto8778" pointer-events="bounding-box"><path stroke-width="1.5" fill="none" d="M39.934 138L39.934 105.75"/></g><g class="vf-stem" id="vf-auto8784" pointer-events="bounding-box"><path stroke-width="1.5" fill="none" d="M69.746 133L69.746 100.533"/></g><g class="vf-stem" id="vf-auto8790" pointer-events="bounding-box"><path stroke-width="1.5" fill="none" d="M99.557 128L99.557 95.316"/></g><g class="vf-stem" id="vf-auto8796" pointer-events="bounding-box"><path stroke-width="1.5" fill="none" d="M129.368 123L129.368 90.099"/></g><g class="vf-stem" id="vf-auto8802" pointer-events="bounding-box"><path stroke-width="1.5" fill="none" d="M159.18 118L159.18 84.882"/></g><g class="vf-stem" id="vf-auto8808" pointer-events="bounding-box"><path stroke-width="1.5" fill="none" d="M188.991 113L188.991 79.665"/></g><g class="vf-stem" id="vf-auto8814" pointer-events="bounding-box"><path stroke-width="1.5" fill="none" d="M218.802 108L218.802 74.448"/></g><g class="vf-stem" id="vf-auto8820" pointer-events="bounding-box"><path stroke-width="1.5" fill="none" d="M248.613 103L248.613 69.231"/></g><g class="vf-beam" id="vf-auto8972"><path stroke="none" d="M39.184 105.131L39.184 110.131L248.863 73.612L248.863 68.612Z"/><path stroke="none" d="M39.184 112.631L39.184 117.631L248.863 81.112L248.863 76.112Z"/></g><g class="vf-stem" id="vf-auto8826" pointer-events="bounding-box"><path stroke-width="1.5" fill="none" d="M266.783 102L266.783 135.335"/></g><g class="vf-stem" id="vf-auto8832" pointer-events="bounding-box"><path stroke-width="1.5" fill="none" d="M296.595 97L296.595 131.608"/></g><g class="vf-stem" id="vf-auto8838" pointer-events="bounding-box"><path stroke-width="1.5" fill="none" d="M326.406 92L326.406 127.882"/></g><g class="vf-stem" id="vf-auto8844" pointer-events="bounding-box"><path stroke-width="1.5" fill="none" d="M356.217 87L356.217 124.156"/></g><g class="vf-stem" id="vf-auto8850" pointer-events="bounding-box"><path stroke-width="1.5" fill="none" d="M386.029 82L386.029 120.429"/></g><g class="vf-stem" id="vf-auto8856" pointer-events="bounding-box"><path stroke-width="1.5" fill="none" d="M415.84 77L415.84 116.703"/></g><g class="vf-stem" id="vf-auto8862" pointer-events="bounding-box"><path stroke-width="1.5" fill="none" d="M445.651 72L445.651 112.976"/></g><g class="vf-stem" id="vf-auto8868" pointer-events="bounding-box"><path stroke-width="1.5" fill="none" d="M475.463 67L475.463 109.25"/></g><g class="vf-beam" id="vf-auto8973"><path stroke="none" d="M266.033 136.179L266.033 131.179L475.713 105.094L475.713 110.094Z"/><path stroke="none" d="M266.033 128.679L266.033 123.679L475.713 97.594L475.713 102.594Z"/></g><g class="vf-stave" id="vf-auto8975" stroke-width="1" fill="#999999" stroke="#999999"><path fill="none" d="M510 90L1010 90"/><path fill="none" d="M510 100L1010 100"/><path fill="none" d="M510 110L1010 110"/><path fill="none" d="M510 120L1010 120"/><path fill="none" d="M510 130L1010 130"/></g><g class="vf-stavebarline" id="vf-auto8976"><rect x="510" y="89.5" width="1" height="41" stroke="none"/></g><g class="vf-stavebarline" id="vf-auto8977"><rect x="1010" y="89.5" width="1" height="41" stroke="none"/></g><g class="vf-stavenote" id="vf-auto8978"><path stroke-width="1.4" fill="none" stroke="#444" d="M524 140L543.141 140"/><path stroke-width="1.4" fill="none" stroke="#444" d="M524 150L543.141 150"/><path stroke-width="1.4" fill="none" stroke="#444" d="M524 160L543.141 160"/><g class="vf-notehead" id="vf-auto8982" pointer-events="bounding-box"><path stroke="none" d="M527 161.685C527 163.426,528.264 165.391,531.521 165.391C535.733 165.391,540.141 161.938,540.141 158.371C540.141 155.985,538.12 154.665,535.621 154.665C531.689 154.665,527 157.978,527 161.685"/><path stroke="none" d="M527.894 104.097C527.593 104.097,527.346 104.316,527.346 104.644L527.346 105.356C527.346 105.657,527.593 105.903,527.894 105.903L539.248 105.903C539.549 105.903,539.795 105.657,539.795 105.356L539.795 104.644C539.795 104.316,539.549 104.097,539.248 104.097"/><path stroke="none" d="M528.769 84.726L532.517 78.461L535.937 84.726C536.019 84.891,536.266 85,536.457 85L538.947 85C539.248 85,539.439 84.754,539.439 84.453C539.439 84.371,539.439 84.261,539.412 84.179L534.077 75.26C533.967 75.123,533.858 75.068,533.612 75.041C533.448 75.041,533.229 75.123,533.147 75.26L527.811 84.179"/></g></g><g class="vf-stavenote" id="vf-auto8984"><path stroke-width="1.4" fill="none" stroke="#444" d="M553.847 140L572.989 140"/><path stroke-width="1.4" fill="none" stroke="#444" d="M553.847 150L572.989 150"/><g class="vf-notehead" id="vf-auto8988" pointer-events="bounding-box"><path stroke="none" d="M556.847 156.685C556.847 158.426,558.111 160.391,561.368 160.391C565.58 160.391,569.989 156.938,569.989 153.371C569.989 150.985,567.967 149.665,565.468 149.665C561.537 149.665,556.847 152.978,556.847 156.685"/><path stroke="none" d="M557.741 94.097C557.44 94.097,557.194 94.316,557.194 94.644L557.194 95.356C557.194 95.657,557.44 95.903,557.741 95.903L569.095 95.903C569.396 95.903,569.642 95.657,569.642 95.356L569.642 94.644C569.642 94.316,569.396 94.097,569.095 94.097"/><path stroke="none" d="M558.616 84.726L562.365 78.461L565.785 84.726C565.867 84.891,566.113 85,566.305 85L568.794 85C569.095 85,569.287 84.754,569.287 84.453C569.287 84.371,569.287 84.261,569.259 84.179L563.924 75.26C563.815 75.123,563.705 75.068,563.459 75.041C563.295 75.041,563.076 75.123,562.994 75.26L557.659 84.179"/></g></g><g class="vf-stavenote" id="vf-auto8990"><path stroke-width="1.4" fill="none" stroke="#444" d="M583.695 140L602.836 140"/><path stroke-width="1.4" fill="none" stroke="#444" d="M583.695 150L602.836 150"/><g class="vf-notehead" id="vf-auto8994" pointer-events="bounding-box"><path stroke="none" d="M586.695 151.685C586.695 153.426,587.958 155.391,591.216 155.391C595.428 155.391,599.836 151.938,599.836 148.371C599.836 145.985,597.814 144.665,595.315 144.665C591.384 144.665,586.695 147.978,586.695 151.685"/><path stroke="none" d="M587.588 94.097C587.287 94.097,587.041 94.316,587.041 94.644L587.041 95.356C587.041 95.657,587.287 95.903,587.588 95.903L598.943 95.903C599.244 95.903,599.49 95.657,599.49 95.356L599.49 94.644C599.49 94.316,599.244 94.097,598.943 94.097"/><path stroke="none" d="M588.464 84.726L592.212 78.461L595.632 84.726C595.714 84.891,595.96 85,596.152 85L598.642 85C598.943 85,599.134 84.754,599.134 84.453C599.134 84.371,599.134 84.261,599.107 84.179L593.772 75.26C593.662 75.123,593.553 75.068,593.306 75.041C593.142 75.041,592.923 75.123,592.841 75.26L587.506 84.179"/></g></g><g class="vf-stavenote" id="vf-auto8996"><path stroke-width="1.4" fill="none" stroke="#444" d="M613.542 140L632.684 140"/><g class="vf-notehead" id="vf-auto9000" pointer-events="bounding-box"><path stroke="none" d="M616.542 146.685C616.542 148.426,617.806 150.391,621.063 150.391C625.275 150.391,629.684 146.938,629.684 143.371C629.684 140.985,627.662 139.665,625.163 139.665C621.231 139.665,616.542 142.978,616.542 146.685"/><path stroke="none" d="M617.436 94.097C617.135 94.097,616.888 94.316,616.888 94.644L616.888 95.356C616.888 95.657,617.135 95.903,617.436 95.903L628.79 95.903C629.091 95.903,629.337 95.657,629.337 95.356L629.337 94.644C629.337 94.316,629.091 94.097,628.79 94.097"/><path stroke="none" d="M618.311 84.726L622.059 78.461L625.479 84.726C625.562 84.891,625.808 85,625.999 85L628.489 85C628.79 85,628.982 84.754,628.982 84.453C628.982 84.371,628.982 84.261,628.954 84.179L623.619 75.26C623.51 75.123,623.4 75.068,623.154 75.041C622.99 75.041,622.771 75.123,622.689 75.26L617.354 84.179"/></g></g><g class="vf-stavenote" id="vf-auto9002"><path stroke-width="1.4" fill="none" stroke="#444" d="M643.389 140L662.531 140"/><g class="vf-notehead" id="vf-auto9006" pointer-events="bounding-box"><path stroke="none" d="M646.389 141.685C646.389 143.426,647.653 145.391,650.91 145.391C655.122 145.391,659.531 141.938,659.531 138.371C659.531 135.985,657.509 134.665,655.01 134.665C651.079 134.665,646.389 137.978,646.389 141.685"/><path stroke="none" d="M647.283 83.194C646.982 83.194,646.736 83.413,646.736 83.741L646.736 84.453C646.736 84.754,646.982 85,647.283 85L658.637 85C658.938 85,659.185 84.754,659.185 84.453L659.185 83.741C659.185 83.413,658.938 83.194,658.637 83.194"/><path stroke="none" d="M648.158 80.849L651.907 74.583L655.327 80.849C655.409 81.013,655.655 81.122,655.847 81.122L658.336 81.122C658.637 81.122,658.829 80.876,658.829 80.575C658.829 80.493,658.829 80.383,658.802 80.301L653.466 71.382C653.357 71.245,653.247 71.19,653.001 71.163C652.837 71.163,652.618 71.245,652.536 71.382L647.201 80.301"/></g></g><g class="vf-stavenote" id="vf-auto9008"><g class="vf-notehead" id="vf-auto9012" pointer-events="bounding-box"><path stroke="none" d="M676.237 136.685C676.237 138.426,677.5 140.391,680.758 140.391C684.97 140.391,689.378 136.938,689.378 133.371C689.378 130.985,687.356 129.665,684.857 129.665C680.926 129.665,676.237 132.978,676.237 136.685"/><path stroke="none" d="M677.13 83.194C676.829 83.194,676.583 83.413,676.583 83.741L676.583 84.453C676.583 84.754,676.829 85,677.13 85L688.485 85C688.786 85,689.032 84.754,689.032 84.453L689.032 83.741C689.032 83.413,688.786 83.194,688.485 83.194"/><path stroke="none" d="M678.006 79.726L681.754 73.461L685.174 79.726C685.256 79.891,685.502 80,685.694 80L688.184 80C688.485 80,688.676 79.754,688.676 79.453C688.676 79.371,688.676 79.261,688.649 79.179L683.314 70.26C683.204 70.123,683.095 70.068,682.849 70.041C682.684 70.041,682.466 70.123,682.383 70.26L677.048 79.179"/></g></g><g class="vf-stavenote" id="vf-auto9014"><g class="vf-notehead" id="vf-auto9018" pointer-events="bounding-box"><path stroke="none" d="M706.084 131.685C706.084 133.426,707.348 135.391,710.605 135.391C714.817 135.391,719.226 131.938,719.226 128.371C719.226 125.985,717.204 124.665,714.705 124.665C710.774 124.665,706.084 127.978,706.084 131.685"/><path stroke="none" d="M706.978 83.194C706.677 83.194,706.43 83.413,706.43 83.741L706.43 84.453C706.43 84.754,706.677 85,706.978 85L718.332 85C718.633 85,718.879 84.754,718.879 84.453L718.879 83.741C718.879 83.413,718.633 83.194,718.332 83.194"/><path stroke="none" d="M707.853 74.726L711.602 68.461L715.022 74.726C715.104 74.891,715.35 75,715.541 75L718.031 75C718.332 75,718.524 74.754,718.524 74.453C718.524 74.371,718.524 74.261,718.496 74.179L713.161 65.26C713.052 65.123,712.942 65.068,712.696 65.041C712.532 65.041,712.313 65.123,712.231 65.26L706.896 74.179"/></g></g><g class="vf-stavenote" id="vf-auto9020"><g class="vf-notehead" id="vf-auto9024" pointer-events="bounding-box"><path stroke="none" d="M735.932 126.685C735.932 128.426,737.195 130.391,740.452 130.391C744.664 130.391,749.073 126.938,749.073 123.371C749.073 120.985,747.051 119.665,744.552 119.665C740.621 119.665,735.932 122.978,735.932 126.685"/><path stroke="none" d="M736.825 81.408C736.524 81.408,736.278 81.627,736.278 81.955L736.278 82.666C736.278 82.967,736.524 83.214,736.825 83.214L748.179 83.214C748.48 83.214,748.727 82.967,748.727 82.666L748.727 81.955C748.727 81.627,748.48 81.408,748.179 81.408"/><path stroke="none" d="M737.701 72.94L741.449 66.675L744.869 72.94C744.951 73.104,745.197 73.214,745.389 73.214L747.878 73.214C748.179 73.214,748.371 72.967,748.371 72.666C748.371 72.584,748.371 72.475,748.344 72.393L743.008 63.474C742.899 63.337,742.79 63.282,742.543 63.255C742.379 63.255,742.16 63.337,742.078 63.474L736.743 72.393"/></g></g><g class="vf-stavenote" id="vf-auto9026"><g class="vf-notehead" id="vf-auto9030" pointer-events="bounding-box"><path stroke="none" d="M765.779 121.685C765.779 123.426,767.042 125.391,770.3 125.391C774.512 125.391,778.92 121.938,778.92 118.371C778.92 115.985,776.899 114.665,774.399 114.665C770.468 114.665,765.779 117.978,765.779 121.685"/><path stroke="none" d="M766.672 104.097C766.371 104.097,766.125 104.316,766.125 104.644L766.125 105.356C766.125 105.657,766.371 105.903,766.672 105.903L778.027 105.903C778.328 105.903,778.574 105.657,778.574 105.356L778.574 104.644C778.574 104.316,778.328 104.097,778.027 104.097"/><path stroke="none" d="M767.548 84.726L771.296 78.461L774.716 84.726C774.798 84.891,775.045 85,775.236 85L777.726 85C778.027 85,778.218 84.754,778.218 84.453C778.218 84.371,778.218 84.261,778.191 84.179L772.856 75.26C772.746 75.123,772.637 75.068,772.391 75.041C772.226 75.041,772.008 75.123,771.926 75.26L766.59 84.179"/></g></g><g class="vf-stavenote" id="vf-auto9032"><g class="vf-notehead" id="vf-auto9036" pointer-events="bounding-box"><path stroke="none" d="M795.626 116.685C795.626 118.426,796.89 120.391,800.147 120.391C804.359 120.391,808.768 116.938,808.768 113.371C808.768 110.985,806.746 109.665,804.247 109.665C800.316 109.665,795.626 112.978,795.626 116.685"/><path stroke="none" d="M796.52 104.097C796.219 104.097,795.973 104.316,795.973 104.644L795.973 105.356C795.973 105.657,796.219 105.903,796.52 105.903L807.874 105.903C808.175 105.903,808.421 105.657,808.421 105.356L808.421 104.644C808.421 104.316,808.175 104.097,807.874 104.097"/><path stroke="none" d="M797.395 84.726L801.144 78.461L804.564 84.726C804.646 84.891,804.892 85,805.083 85L807.573 85C807.874 85,808.066 84.754,808.066 84.453C808.066 84.371,808.066 84.261,808.038 84.179L802.703 75.26C802.594 75.123,802.484 75.068,802.238 75.041C802.074 75.041,801.855 75.123,801.773 75.26L796.438 84.179"/></g></g><g class="vf-stavenote" id="vf-auto9038"><g class="vf-notehead" id="vf-auto9042" pointer-events="bounding-box"><path stroke="none" d="M825.474 111.685C825.474 113.426,826.737 115.391,829.994 115.391C834.206 115.391,838.615 111.938,838.615 108.371C838.615 105.985,836.593 104.665,834.094 104.665C830.163 104.665,825.474 107.978,825.474 111.685"/><path stroke="none" d="M826.367 94.097C826.066 94.097,825.82 94.316,825.82 94.644L825.82 95.356C825.82 95.657,826.066 95.903,826.367 95.903L837.722 95.903C838.022 95.903,838.269 95.657,838.269 95.356L838.269 94.644C838.269 94.316,838.022 94.097,837.722 94.097"/><path stroke="none" d="M827.243 84.726L830.991 78.461L834.411 84.726C834.493 84.891,834.739 85,834.931 85L837.421 85C837.722 85,837.913 84.754,837.913 84.453C837.913 84.371,837.913 84.261,837.886 84.179L832.55 75.26C832.441 75.123,832.332 75.068,832.085 75.041C831.921 75.041,831.702 75.123,831.62 75.26L826.285 84.179"/></g></g><g class="vf-stavenote" id="vf-auto9044"><g class="vf-notehead" id="vf-auto9048" pointer-events="bounding-box"><path stroke="none" d="M855.321 106.685C855.321 108.426,856.585 110.391,859.842 110.391C864.054 110.391,868.462 106.938,868.462 103.371C868.462 100.985,866.441 99.665,863.942 99.665C860.01 99.665,855.321 102.978,855.321 106.685"/><path stroke="none" d="M856.214 94.097C855.914 94.097,855.667 94.316,855.667 94.644L855.667 95.356C855.667 95.657,855.914 95.903,856.214 95.903L867.569 95.903C867.87 95.903,868.116 95.657,868.116 95.356L868.116 94.644C868.116 94.316,867.87 94.097,867.569 94.097"/><path stroke="none" d="M857.09 84.726L860.838 78.461L864.258 84.726C864.34 84.891,864.587 85,864.778 85L867.268 85C867.569 85,867.76 84.754,867.76 84.453C867.76 84.371,867.76 84.261,867.733 84.179L862.398 75.26C862.288 75.123,862.179 75.068,861.933 75.041C861.769 75.041,861.55 75.123,861.468 75.26L856.132 84.179"/></g></g><g class="vf-stavenote" id="vf-auto9050"><g class="vf-notehead" id="vf-auto9054" pointer-events="bounding-box"><path stroke="none" d="M885.168 101.685C885.168 103.426,886.432 105.391,889.689 105.391C893.901 105.391,898.31 101.938,898.31 98.371C898.31 95.985,896.288 94.665,893.789 94.665C889.858 94.665,885.168 97.978,885.168 101.685"/><path stroke="none" d="M886.062 83.194C885.761 83.194,885.515 83.413,885.515 83.741L885.515 84.453C885.515 84.754,885.761 85,886.062 85L897.416 85C897.717 85,897.963 84.754,897.963 84.453L897.963 83.741C897.963 83.413,897.717 83.194,897.416 83.194"/><path stroke="none" d="M886.937 79.726L890.686 73.461L894.106 79.726C894.188 79.891,894.434 80,894.626 80L897.115 80C897.416 80,897.608 79.754,897.608 79.453C897.608 79.371,897.608 79.261,897.58 79.179L892.245 70.26C892.136 70.123,892.026 70.068,891.78 70.041C891.616 70.041,891.397 70.123,891.315 70.26L885.98 79.179"/></g></g><g class="vf-stavenote" id="vf-auto9056"><g class="vf-notehead" id="vf-auto9060" pointer-events="bounding-box"><path stroke="none" d="M915.016 96.685C915.016 98.426,916.279 100.391,919.537 100.391C923.749 100.391,928.157 96.938,928.157 93.371C928.157 90.985,926.135 89.665,923.636 89.665C919.705 89.665,915.016 92.978,915.016 96.685"/><path stroke="none" d="M915.909 83.194C915.608 83.194,915.362 83.413,915.362 83.741L915.362 84.453C915.362 84.754,915.608 85,915.909 85L927.264 85C927.565 85,927.811 84.754,927.811 84.453L927.811 83.741C927.811 83.413,927.565 83.194,927.264 83.194"/><path stroke="none" d="M916.785 74.726L920.533 68.461L923.953 74.726C924.035 74.891,924.281 75,924.473 75L926.963 75C927.264 75,927.455 74.754,927.455 74.453C927.455 74.371,927.455 74.261,927.428 74.179L922.093 65.26C921.983 65.123,921.874 65.068,921.627 65.041C921.463 65.041,921.244 65.123,921.162 65.26L915.827 74.179"/></g></g><g class="vf-stavenote" id="vf-auto9062"><g class="vf-notehead" id="vf-auto9066" pointer-events="bounding-box"><path stroke="none" d="M944.863 91.685C944.863 93.426,946.127 95.391,949.384 95.391C953.596 95.391,958.004 91.938,958.004 88.371C958.004 85.985,955.983 84.665,953.484 84.665C949.552 84.665,944.863 87.978,944.863 91.685"/><path stroke="none" d="M945.757 78.194C945.456 78.194,945.209 78.413,945.209 78.741L945.209 79.453C945.209 79.754,945.456 80,945.757 80L957.111 80C957.412 80,957.658 79.754,957.658 79.453L957.658 78.741C957.658 78.413,957.412 78.194,957.111 78.194"/><path stroke="none" d="M946.632 69.726L950.38 63.461L953.8 69.726C953.882 69.891,954.129 70,954.32 70L956.81 70C957.111 70,957.302 69.754,957.302 69.453C957.302 69.371,957.302 69.261,957.275 69.179L951.94 60.26C951.83 60.123,951.721 60.068,951.475 60.041C951.311 60.041,951.092 60.123,951.01 60.26L945.674 69.179"/></g></g><g class="vf-stavenote" id="vf-auto9068"><g class="vf-notehead" id="vf-auto9072" pointer-events="bounding-box"><path stroke="none" d="M974.71 86.685C974.71 88.426,975.974 90.391,979.231 90.391C983.443 90.391,987.852 86.938,987.852 83.371C987.852 80.985,985.83 79.665,983.331 79.665C979.4 79.665,974.71 82.978,974.71 86.685"/><path stroke="none" d="M975.604 73.194C975.303 73.194,975.057 73.413,975.057 73.741L975.057 74.453C975.057 74.754,975.303 75,975.604 75L986.958 75C987.259 75,987.506 74.754,987.506 74.453L987.506 73.741C987.506 73.413,987.259 73.194,986.958 73.194"/><path stroke="none" d="M976.479 64.726L980.228 58.461L983.648 64.726C983.73 64.891,983.976 65,984.168 65L986.657 65C986.958 65,987.15 64.754,987.15 64.453C987.15 64.371,987.15 64.261,987.122 64.179L981.787 55.26C981.678 55.123,981.568 55.068,981.322 55.041C981.158 55.041,980.939 55.123,980.857 55.26L975.522 64.179"/><path stroke="none" d="M990.31 145.233C992.225 143.153,993.538 138.912,993.538 136.778C993.538 135.985,993.374 135.52,992.991 135.52C991.869 135.52,992.417 138.912,989.106 142.25C986.206 145.178,982.293 145.205,981.363 145.205C981.308 145.205,981.308 145.205,981.281 145.205C981.226 145.205,981.226 145.205,981.199 145.205C980.241 145.205,976.356 145.178,973.429 142.25C970.118 138.912,970.665 135.52,969.571 135.52C969.188 135.52,969.024 136.012,969.024 136.778C969.024 138.912,970.364 143.126,972.307 145.233C976.001 149.255,979.229 149.501,981.281 149.501C983.333 149.501,986.589 149.255,990.31 145.233M978.545 137.709C978.545 139.213,979.776 140.445,981.281 140.445C982.786 140.445,983.99 139.213,983.99 137.709C983.99 136.231,982.786 135,981.281 135C979.776 135,978.545 136.231,978.545 137.709"/></g></g><g class="vf-stem" id="vf-auto8979" pointer-events="bounding-box"><path stroke-width="1.5" fill="none" d="M539.391 158L539.391 110.75"/></g><g class="vf-stem" id="vf-auto8985" pointer-events="bounding-box"><path stroke-width="1.5" fill="none" d="M569.239 153L569.239 107.765"/></g><g class="vf-stem" id="vf-auto8991" pointer-events="bounding-box"><path stroke-width="1.5" fill="none" d="M599.086 148L599.086 104.781"/></g><g class="vf-stem" id="vf-auto8997" pointer-events="bounding-box"><path stroke-width="1.5" fill="none" d="M628.934 143L628.934 101.796"/></g><g class="vf-stem" id="vf-auto9003" pointer-events="bounding-box"><path stroke-width="1.5" fill="none" d="M658.781 138L658.781 98.811"/></g><g class="vf-stem" id="vf-auto9009" pointer-events="bounding-box"><path stroke-width="1.5" fill="none" d="M688.628 133L688.628 95.826"/></g><g class="vf-stem" id="vf-auto9015" pointer-events="bounding-box"><path stroke-width="1.5" fill="none" d="M718.476 128L718.476 92.842"/></g><g class="vf-stem" id="vf-auto9021" pointer-events="bounding-box"><path stroke-width="1.5" fill="none" d="M748.323 123L748.323 89.857"/></g><g class="vf-beam" id="vf-auto9173"><path stroke="none" d="M538.641 110.075L538.641 115.075L748.573 94.182L748.573 89.182Z"/><path stroke="none" d="M538.641 117.575L538.641 122.575L748.573 101.682L748.573 96.682Z"/></g><g class="vf-stem" id="vf-auto9027" pointer-events="bounding-box"><path stroke-width="1.5" fill="none" d="M766.529 122L766.529 155.813"/></g><g class="vf-stem" id="vf-auto9033" pointer-events="bounding-box"><path stroke-width="1.5" fill="none" d="M796.376 117L796.376 150.59"/></g><g class="vf-stem" id="vf-auto9039" pointer-events="bounding-box"><path stroke-width="1.5" fill="none" d="M826.224 112L826.224 145.366"/></g><g class="vf-stem" id="vf-auto9045" pointer-events="bounding-box"><path stroke-width="1.5" fill="none" d="M856.071 107L856.071 140.143"/></g><g class="vf-stem" id="vf-auto9051" pointer-events="bounding-box"><path stroke-width="1.5" fill="none" d="M885.918 102L885.918 134.92"/></g><g class="vf-stem" id="vf-auto9057" pointer-events="bounding-box"><path stroke-width="1.5" fill="none" d="M915.766 97L915.766 129.697"/></g><g class="vf-stem" id="vf-auto9063" pointer-events="bounding-box"><path stroke-width="1.5" fill="none" d="M945.613 92L945.613 124.473"/></g><g class="vf-stem" id="vf-auto9069" pointer-events="bounding-box"><path stroke-width="1.5" fill="none" d="M975.46 87L975.46 119.25"/></g><g class="vf-beam" id="vf-auto9174"><path stroke="none" d="M765.779 156.694L765.779 151.694L975.71 115.131L975.71 120.131Z"/><path stroke="none" d="M765.779 149.194L765.779 144.194L975.71 107.631L975.71 112.631Z"/></g><g class="vf-stave" id="vf-auto9176" stroke-width="1" fill="#999999" stroke="#999999"><path fill="none" d="M1010 90L1110 90"/><path fill="none" d="M1010 100L1110 100"/><path fill="none" d="M1010 110L1110 110"/><path fill="none" d="M1010 120L1110 120"/><path fill="none" d="M1010 130L1110 130"/></g><g class="vf-stavebarline" id="vf-auto9177"><rect x="1010" y="89.5" width="1" height="41" stroke="none"/></g><g class="vf-stavebarline" id="vf-auto9178"><rect x="1110" y="89.5" width="1" height="41" stroke="none"/></g><g class="vf-stavenote" id="vf-auto9179"><path stroke-width="1.4" fill="none" stroke="#444" d="M1028.718 140L1049.797 140"/><g class="vf-notehead" id="vf-auto9182" pointer-events="bounding-box"><path stroke="none" d="M1039.271 134.496C1033.711 134.496,1031.718 137.332,1031.718 139.972C1031.718 142.583,1033.711 145.419,1039.271 145.419C1044.859 145.419,1046.797 142.583,1046.797 139.972C1046.797 137.332,1044.859 134.496,1039.271 134.496M1041.349 143.875C1040.844 144.044,1040.198 144.128,1039.608 144.128C1038.457 144.128,1037.699 143.791,1037.165 142.78C1036.66 141.769,1035.93 139.186,1035.874 138.091C1035.789 136.995,1036.211 136.35,1037.165 136.041C1037.671 135.872,1038.317 135.788,1038.906 135.788C1040.058 135.788,1040.788 136.041,1041.349 137.136C1041.911 138.231,1042.641 140.814,1042.641 141.825C1042.641 142.864,1042.304 143.594,1041.349 143.875"/><path stroke="none" d="M1033.58 124.097C1033.279 124.097,1033.033 124.316,1033.033 124.644L1033.033 125.356C1033.033 125.657,1033.279 125.903,1033.58 125.903L1044.934 125.903C1045.235 125.903,1045.482 125.657,1045.482 125.356L1045.482 124.644C1045.482 124.316,1045.235 124.097,1044.934 124.097"/><path stroke="none" d="M1032.855 110.404C1032.8 110.404,1032.746 110.376,1032.691 110.376C1032.39 110.376,1032.144 110.595,1032.144 110.923L1032.144 111.826C1032.144 112.072,1032.335 112.264,1032.527 112.346L1040.981 114.973L1032.527 117.654C1032.335 117.736,1032.144 117.928,1032.144 118.174L1032.144 119.077C1032.144 119.378,1032.39 119.624,1032.691 119.624C1032.746 119.624,1032.8 119.596,1032.855 119.596L1045.96 115.52C1046.179 115.438,1046.371 115.219,1046.371 114.973C1046.371 114.726,1046.179 114.535,1045.96 114.453"/><path stroke="none" d="M1048.286 74.767C1044.565 70.745,1041.309 70.499,1039.257 70.499C1037.205 70.499,1033.977 70.745,1030.283 74.767C1028.341 76.874,1027 81.088,1027 83.222C1027 83.988,1027.164 84.48,1027.547 84.48C1028.642 84.48,1028.094 81.088,1031.405 77.75C1034.332 74.822,1038.218 74.795,1039.175 74.795C1039.203 74.795,1039.203 74.795,1039.257 74.795C1039.285 74.795,1039.285 74.795,1039.339 74.795C1040.27 74.795,1044.182 74.822,1047.082 77.75C1050.393 81.088,1049.846 84.48,1050.967 84.48C1051.35 84.48,1051.515 84.015,1051.515 83.222C1051.515 81.088,1050.201 76.847,1048.286 74.767M1036.521 82.291C1036.521 83.769,1037.752 85,1039.257 85C1040.762 85,1041.966 83.769,1041.966 82.291C1041.966 80.787,1040.762 79.555,1039.257 79.555C1037.752 79.555,1036.521 80.787,1036.521 82.291"/></g></g><g class="vf-stave" id="vf-auto9193" stroke-width="1" fill="#999999" stroke="#999999"><path fill="none" d="M1110 90L1360 90"/><path fill="none" d="M1110 100L1360 100"/><path fill="none" d="M1110 110L1360 110"/><path fill="none" d="M1110 120L1360 120"/><path fill="none" d="M1110 130L1360 130"/></g><g class="vf-stavebarline" id="vf-auto9194"><rect x="1110" y="89.5" width="1" height="41" stroke="none"/></g><g class="vf-stavebarline" id="vf-auto9195"><rect x="1360" y="89.5" width="1" height="41" stroke="none"/></g><g class="vf-stavenote" id="vf-auto9196"><g class="vf-stem" id="vf-auto9197" pointer-events="bounding-box"><path stroke-width="1.5" fill="none" d="M1127.75 107L1127.75 140"/></g><g class="vf-notehead" id="vf-auto9199" pointer-events="bounding-box"><path stroke="none" d="M1127 106.685C1127 108.426,1128.264 110.391,1131.521 110.391C1135.733 110.391,1140.141 106.938,1140.141 103.371C1140.141 100.985,1138.12 99.665,1135.621 99.665C1131.689 99.665,1127 102.978,1127 106.685"/><path stroke="none" d="M1127.894 94.097C1127.593 94.097,1127.346 94.316,1127.346 94.644L1127.346 95.356C1127.346 95.657,1127.593 95.903,1127.894 95.903L1139.248 95.903C1139.549 95.903,1139.795 95.657,1139.795 95.356L1139.795 94.644C1139.795 94.316,1139.549 94.097,1139.248 94.097"/></g></g><g class="vf-stavenote" id="vf-auto9200"><path stroke-width="1.4" fill="none" stroke="#444" d="M1184 80L1203.141 80"/><g class="vf-stem" id="vf-auto9201" pointer-events="bounding-box"><path stroke-width="1.5" fill="none" d="M1187.75 82L1187.75 115"/></g><g class="vf-notehead" id="vf-auto9203" pointer-events="bounding-box"><path stroke="none" d="M1187 81.685C1187 83.426,1188.264 85.391,1191.521 85.391C1195.733 85.391,1200.141 81.938,1200.141 78.371C1200.141 75.985,1198.12 74.665,1195.621 74.665C1191.689 74.665,1187 77.978,1187 81.685"/><path stroke="none" d="M1187.894 68.194C1187.593 68.194,1187.346 68.413,1187.346 68.741L1187.346 69.453C1187.346 69.754,1187.593 70,1187.894 70L1199.248 70C1199.549 70,1199.795 69.754,1199.795 69.453L1199.795 68.741C1199.795 68.413,1199.549 68.194,1199.248 68.194"/></g></g><g class="vf-stavenote" id="vf-auto9204"><g class="vf-stem" id="vf-auto9205" pointer-events="bounding-box"><path stroke-width="1.5" fill="none" d="M1247.75 107L1247.75 140"/></g><g class="vf-notehead" id="vf-auto9207" pointer-events="bounding-box"><path stroke="none" d="M1247 106.685C1247 108.426,1248.264 110.391,1251.521 110.391C1255.733 110.391,1260.141 106.938,1260.141 103.371C1260.141 100.985,1258.12 99.665,1255.621 99.665C1251.689 99.665,1247 102.978,1247 106.685"/><path stroke="none" d="M1247.894 145C1247.593 145,1247.346 145.246,1247.346 145.547L1247.346 146.259C1247.346 146.587,1247.593 146.806,1247.894 146.806L1259.248 146.806C1259.549 146.806,1259.795 146.587,1259.795 146.259L1259.795 145.547C1259.795 145.246,1259.549 145,1259.248 145"/></g></g><g class="vf-stavenote" id="vf-auto9208"><path stroke-width="1.4" fill="none" stroke="#444" d="M1304 80L1323.141 80"/><g class="vf-stem" id="vf-auto9209" pointer-events="bounding-box"><path stroke-width="1.5" fill="none" d="M1307.75 82L1307.75 115"/></g><g class="vf-notehead" id="vf-auto9211" pointer-events="bounding-box"><path stroke="none" d="M1307 81.685C1307 83.426,1308.264 85.391,1311.521 85.391C1315.733 85.391,1320.141 81.938,1320.141 78.371C1320.141 75.985,1318.12 74.665,1315.621 74.665C1311.689 74.665,1307 77.978,1307 81.685"/><path stroke="none" d="M1307.894 124.097C1307.593 124.097,1307.346 124.343,1307.346 124.644L1307.346 125.356C1307.346 125.684,1307.593 125.903,1307.894 125.903L1319.248 125.903C1319.549 125.903,1319.795 125.684,1319.795 125.356L1319.795 124.644C1319.795 124.343,1319.549 124.097,1319.248 124.097"/></g></g></svg>