<svg xmlns="http://www.w3.org/2000/svg" stroke-width="0.3" stroke-dasharray="none" fill="black" stroke="black" font-family="Arial, sans-serif" font-size="10pt" font-weight="normal" font-style="normal" width="600" height="350" viewBox="0 0 600 350" style="width: 600px; height: 350px; border: none;"><g class="vf-stave" id="vf-auto8299" stroke-width="1" fill="#999999" stroke="#999999"><path fill="none" d="M10 50L345.398 50"/><path fill="none" d="M10 60L345.398 60"/><path fill="none" d="M10 70L345.398 70"/><path fill="none" d="M10 80L345.398 80"/><path fill="none" d="M10 90L345.398 90"/></g><g class="vf-stavebarline" id="vf-auto8300"/><g class="vf-stavebarline" id="vf-auto8301"><rect x="345.398" y="49.5" width="1" height="41" stroke="none"/></g><g class="vf-clef" id="vf-auto8302"><path stroke="none" d="M35.503 81.76C35.503 84.345,34.464 87.032,31.854 88.071C31.093 83.712,30.105 77.908,29.852 76.286C33.146 76.286,35.503 78.516,35.503 81.76M30.333 88.527C29.598 88.654,28.914 88.73,28.204 88.73C22.983 88.73,18.548 85.08,18.548 79.581C18.548 75.12,21.691 71.141,24.884 68.379C25.518 67.821,26.101 67.314,26.633 66.757C26.962 68.734,27.216 70.457,27.469 71.952C24.149 72.941,21.894 76.438,21.894 79.86C21.894 82.419,23.896 85.917,26.836 85.917C27.114 85.917,27.444 85.79,27.444 85.461C27.444 85.131,27.089 84.954,26.633 84.65C25.214 83.762,24.428 82.825,24.428 81.025C24.428 78.82,26.05 77.021,28.204 76.514M27.114 50.993C27.444 49.548,29.117 45.721,31.017 45.721C31.575 45.721,32.437 47.495,32.437 50.004C32.437 53.806,29.623 56.67,27.114 59.128C26.886 57.684,26.709 56.264,26.709 54.718C26.709 53.375,26.836 52.133,27.114 50.993M19.461 99.729C19.461 102.137,21.311 105.305,26.253 105.305C27.951 105.305,29.446 104.874,30.764 104.063C32.741 102.669,33.248 100.261,33.248 97.98C33.248 96.536,33.02 94.914,32.665 92.836C32.563 92.101,32.335 91.011,32.107 89.566C35.681 88.4,38.367 84.675,38.367 80.924C38.367 75.424,34.464 71.699,29.117 71.699C28.762 69.494,28.382 67.34,28.078 65.312C31.93 61.257,34.591 56.695,34.591 50.891C34.591 47.571,33.577 44.859,32.994 43.567C32.107 41.691,31.068 40.424,30.409 40.424C30.156 40.424,29.015 40.855,27.799 42.274C25.467 45.062,24.808 49.726,24.808 52.792C24.808 54.769,25.011 56.543,25.619 60.623C25.594 60.674,23.693 62.6,22.907 63.234C19.587 66.326,15 70.736,15 78.035C15 84.878,20.956 90.225,27.748 90.225C28.787 90.225,29.776 90.124,30.612 89.972C31.322 93.469,31.727 96.029,31.727 97.98C31.727 101.757,29.776 103.784,26.101 103.784C25.214 103.784,24.453 103.582,24.377 103.582C24.352 103.556,24.276 103.505,24.276 103.48C24.276 103.404,24.352 103.379,24.453 103.328C26.177 103.075,27.875 101.63,27.875 99.273C27.875 97.322,26.379 95.243,23.642 95.243C21.083 95.243,19.461 97.322,19.461 99.729"/></g><g class="vf-stave" id="vf-auto8340" stroke-width="1" fill="#999999" stroke="#999999"><path fill="none" d="M10 170L345.398 170"/><path fill="none" d="M10 180L345.398 180"/><path fill="none" d="M10 190L345.398 190"/><path fill="none" d="M10 200L345.398 200"/><path fill="none" d="M10 210L345.398 210"/></g><g class="vf-stavebarline" id="vf-auto8341"/><g class="vf-stavebarline" id="vf-auto8342"><rect x="345.398" y="169.5" width="1" height="41" stroke="none"/></g><g class="vf-clef" id="vf-auto8343"><path stroke="none" d="M23.433 171.183C20.898 171.183,18.871 172.634,18.848 172.634C16.935 174.063,16.152 175.744,15.852 176.92C15.691 177.519,15.622 178.118,15.622 178.671C15.622 179.477,15.76 180.191,16.06 180.836C16.452 181.712,17.212 182.357,18.226 182.68C18.617 182.818,19.055 182.887,19.47 182.887C20.207 182.887,20.967 182.68,21.612 182.311C22.626 181.758,23.271 180.56,23.271 179.27C23.271 178.118,22.672 177.035,21.659 176.413C20.967 175.952,20.299 175.814,19.746 175.814C19.355 175.814,18.986 175.883,18.686 175.975C18.341 176.113,17.788 176.459,17.511 176.689C17.627 176.044,18.018 175.076,18.387 174.546C18.756 174.016,19.47 173.371,20.046 173.072C20.875 172.588,21.935 172.404,23.087 172.404C26.474 172.404,28.133 175.122,28.133 180.698C28.133 183.785,26.981 186.735,25.99 188.693C24.884 190.882,23.433 192.978,22.142 194.13C18.686 197.287,15.438 198.784,15.392 198.784C15.392 198.784,15 199.015,15 199.407C15 199.476,15.023 199.499,15.023 199.568C15.138 199.913,15.438 199.96,15.622 199.96C15.668 199.96,15.76 199.936,15.806 199.936C15.829 199.936,19.608 198.37,22.626 196.02C24.331 194.799,25.852 193.462,27.165 192.034C28.363 190.744,29.4 189.361,30.229 187.956C31.681 185.467,32.51 182.887,32.51 180.652C32.51 177.91,31.796 175.629,30.437 173.993C28.87 172.127,26.52 171.183,23.433 171.183M33.847 175.376C33.847 176.32,34.584 177.035,35.436 177.035C36.289 177.035,37.026 176.32,37.026 175.376C37.026 174.454,36.289 173.694,35.436 173.694C34.584 173.694,33.847 174.454,33.847 175.376M33.847 183.578C33.847 184.5,34.584 185.283,35.436 185.283C36.289 185.283,37.026 184.5,37.026 183.578C37.026 182.656,36.289 181.896,35.436 181.896C34.584 181.896,33.847 182.656,33.847 183.578"/></g><g class="vf-stavenote" id="vf-auto8246"><g class="vf-stem" id="vf-auto8247" pointer-events="bounding-box"><path stroke-width="1.5" fill="none" d="M122.145 82L122.145 130"/></g><g class="vf-notehead" id="vf-auto8256" pointer-events="bounding-box"><path stroke="none" d="M109.003 96.685C109.003 98.426,110.267 100.391,113.524 100.391C117.736 100.391,122.145 96.938,122.145 93.371C122.145 90.985,120.123 89.665,117.624 89.665C113.693 89.665,109.003 92.978,109.003 96.685"/><path stroke="none" d="M107.005 103.564C107.089 103.536,107.118 103.536,107.174 103.48C107.258 103.452,107.286 103.368,107.286 103.284C107.286 103.256,107.286 103.199,107.258 103.115C107.258 103.087,105.377 99.493,105.377 94.719C105.377 92.332,105.882 89.609,107.258 86.913C107.286 86.885,107.286 86.829,107.286 86.801C107.286 86.716,107.258 86.632,107.174 86.576C107.089 86.548,107.033 86.52,106.949 86.548C106.893 86.548,106.837 86.576,106.809 86.632C106.668 86.801,104.253 90.114,104.253 95C104.253 99.886,106.668 103.284,106.809 103.452C106.837 103.536,106.921 103.564,107.005 103.564"/><path stroke="none" d="M137.817 86.436C137.733 86.464,137.705 86.464,137.649 86.52C137.564 86.548,137.536 86.632,137.536 86.716C137.536 86.744,137.536 86.801,137.564 86.885C137.564 86.913,139.446 90.507,139.446 95.281C139.446 97.668,138.94 100.391,137.564 103.087C137.536 103.115,137.536 103.171,137.536 103.199C137.536 103.284,137.564 103.368,137.649 103.424C137.733 103.452,137.789 103.48,137.873 103.452C137.929 103.452,137.986 103.424,138.014 103.368C138.154 103.199,140.569 99.886,140.569 95C140.569 90.114,138.154 86.716,138.014 86.548C137.986 86.464,137.901 86.436,137.817 86.436"/></g><g class="vf-notehead" id="vf-auto8255" pointer-events="bounding-box"><path stroke="none" d="M121.395 91.685C121.395 93.426,122.658 95.391,125.916 95.391C130.128 95.391,134.536 91.938,134.536 88.371C134.536 85.985,132.515 84.665,130.015 84.665C126.084 84.665,121.395 87.978,121.395 91.685"/><path stroke="none" d="M107.005 98.564C107.089 98.536,107.118 98.536,107.174 98.48C107.258 98.452,107.286 98.368,107.286 98.284C107.286 98.256,107.286 98.199,107.258 98.115C107.258 98.087,105.377 94.493,105.377 89.719C105.377 87.332,105.882 84.609,107.258 81.913C107.286 81.885,107.286 81.829,107.286 81.801C107.286 81.716,107.258 81.632,107.174 81.576C107.089 81.548,107.033 81.52,106.949 81.548C106.893 81.548,106.837 81.576,106.809 81.632C106.668 81.801,104.253 85.114,104.253 90C104.253 94.886,106.668 98.284,106.809 98.452C106.837 98.536,106.921 98.564,107.005 98.564"/><path stroke="none" d="M137.817 81.436C137.733 81.464,137.705 81.464,137.649 81.52C137.564 81.548,137.536 81.632,137.536 81.716C137.536 81.744,137.536 81.801,137.564 81.885C137.564 81.913,139.446 85.507,139.446 90.281C139.446 92.668,138.94 95.391,137.564 98.087C137.536 98.115,137.536 98.171,137.536 98.199C137.536 98.284,137.564 98.368,137.649 98.424C137.733 98.452,137.789 98.48,137.873 98.452C137.929 98.452,137.986 98.424,138.014 98.368C138.154 98.199,140.569 94.886,140.569 90C140.569 85.114,138.154 81.716,138.014 81.548C137.986 81.464,137.901 81.436,137.817 81.436"/></g><g class="vf-notehead" id="vf-auto8254" pointer-events="bounding-box"><path stroke="none" d="M121.395 81.685C121.395 83.426,122.658 85.391,125.916 85.391C130.128 85.391,134.536 81.938,134.536 78.371C134.536 75.985,132.515 74.665,130.015 74.665C126.084 74.665,121.395 77.978,121.395 81.685"/><path stroke="none" d="M120.147 88.564C120.231 88.536,120.259 88.536,120.315 88.48C120.399 88.452,120.427 88.368,120.427 88.284C120.427 88.256,120.427 88.199,120.399 88.115C120.399 88.087,118.518 84.493,118.518 79.719C118.518 77.332,119.023 74.609,120.399 71.913C120.427 71.885,120.427 71.829,120.427 71.801C120.427 71.716,120.399 71.632,120.315 71.576C120.231 71.548,120.175 71.52,120.091 71.548C120.034 71.548,119.978 71.576,119.95 71.632C119.81 71.801,117.395 75.114,117.395 80C117.395 84.886,119.81 88.284,119.95 88.452C119.978 88.536,120.062 88.564,120.147 88.564"/><path stroke="none" d="M137.817 71.436C137.733 71.464,137.705 71.464,137.649 71.52C137.564 71.548,137.536 71.632,137.536 71.716C137.536 71.744,137.536 71.801,137.564 71.885C137.564 71.913,139.446 75.507,139.446 80.281C139.446 82.668,138.94 85.391,137.564 88.087C137.536 88.115,137.536 88.171,137.536 88.199C137.536 88.284,137.564 88.368,137.649 88.424C137.733 88.452,137.789 88.48,137.873 88.452C137.929 88.452,137.986 88.424,138.014 88.368C138.154 88.199,140.569 84.886,140.569 80C140.569 75.114,138.154 71.716,138.014 71.548C137.986 71.464,137.901 71.436,137.817 71.436"/></g></g><g class="vf-stavenote" id="vf-auto8257"><path stroke-width="1.4" fill="none" stroke="#444" d="M179.819 100L198.961 100"/><g class="vf-stem" id="vf-auto8258" pointer-events="bounding-box"><path stroke-width="1.5" fill="none" d="M183.569 102L183.569 135"/></g><g class="vf-notehead" id="vf-auto8261" pointer-events="bounding-box"><path stroke="none" d="M182.819 101.685C182.819 103.426,184.083 105.391,187.34 105.391C191.552 105.391,195.961 101.938,195.961 98.371C195.961 95.985,193.939 94.665,191.44 94.665C187.509 94.665,182.819 97.978,182.819 101.685"/></g></g><g class="vf-stavenote" id="vf-auto8262"><g class="vf-notehead" id="vf-auto8266" pointer-events="bounding-box"><path stroke="none" d="M249.61 106.023C249.584 105.998,249.509 105.922,249.408 105.771L245.225 100.605C245.2 100.58,245.149 100.479,245.149 100.403C245.149 100.302,245.2 100.151,245.225 100.076L248.929 94.481C248.954 94.406,249.005 94.305,249.005 94.229L249.005 93.902C249.005 93.801,248.954 93.675,248.879 93.624L243.007 85.661C243.007 85.661,242.856 85.46,242.654 85.46C242.528 85.46,242.478 85.485,242.352 85.56C242.201 85.661,242.176 85.812,242.176 85.913C242.176 86.14,242.276 86.316,242.276 86.316L245.048 90.096C245.124 90.197,245.149 90.348,245.149 90.525C245.149 90.676,245.124 90.852,245.048 90.953L241.369 96.548C241.344 96.623,241.294 96.774,241.294 96.85L241.294 97.178C241.294 97.278,241.344 97.379,241.42 97.455L245.477 102.495C245.326 102.47,244.998 102.394,244.57 102.394C243.965 102.394,243.158 102.545,242.503 103.125C241.697 103.856,241.268 104.864,241.268 105.771C241.268 106.275,241.369 106.779,241.672 107.182C242.428 108.341,245.149 111.794,245.149 111.794C245.149 111.794,245.326 112.02,245.578 112.02C245.653 112.02,245.729 112.02,245.804 111.945C245.981 111.794,246.056 111.642,246.056 111.491C246.056 111.365,245.981 111.239,245.956 111.189C245.83 110.987,244.67 108.896,244.67 108.896C244.67 108.896,244.418 108.392,244.418 107.736C244.418 107.258,244.57 106.678,245.048 106.199C245.477 105.771,245.981 105.62,246.46 105.62C246.938 105.62,247.316 105.771,247.619 105.947L249.03 106.854C249.03 106.854,249.181 106.93,249.332 106.93C249.458 106.93,249.584 106.905,249.685 106.754C249.761 106.602,249.786 106.527,249.786 106.426C249.786 106.325,249.761 106.25,249.685 106.124"/></g></g><g class="vf-stavenote" id="vf-auto8267"><path stroke-width="1.4" fill="none" stroke="#444" d="M311.859 100L331.001 100"/><g class="vf-stem" id="vf-auto8268" pointer-events="bounding-box"><path stroke-width="1.5" fill="none" d="M315.609 102L315.609 135"/></g><g class="vf-notehead" id="vf-auto8271" pointer-events="bounding-box"><path stroke="none" d="M314.859 101.685C314.859 103.426,316.123 105.391,319.38 105.391C323.592 105.391,328.001 101.938,328.001 98.371C328.001 95.985,325.979 94.665,323.48 94.665C319.549 94.665,314.859 97.978,314.859 101.685"/><path stroke="none" d="M313.611 108.564C313.695 108.536,313.723 108.536,313.78 108.48C313.864 108.452,313.892 108.368,313.892 108.284C313.892 108.256,313.892 108.199,313.864 108.115C313.864 108.087,311.982 104.493,311.982 99.719C311.982 97.332,312.488 94.609,313.864 91.913C313.892 91.885,313.892 91.829,313.892 91.801C313.892 91.716,313.864 91.632,313.78 91.576C313.695 91.548,313.639 91.52,313.555 91.548C313.499 91.548,313.443 91.576,313.415 91.632C313.274 91.801,310.859 95.114,310.859 100C310.859 104.886,313.274 108.284,313.415 108.452C313.443 108.536,313.527 108.564,313.611 108.564"/><path stroke="none" d="M331.281 91.436C331.197 91.464,331.169 91.464,331.113 91.52C331.029 91.548,331.001 91.632,331.001 91.716C331.001 91.744,331.001 91.801,331.029 91.885C331.029 91.913,332.91 95.507,332.91 100.281C332.91 102.668,332.405 105.391,331.029 108.087C331.001 108.115,331.001 108.171,331.001 108.199C331.001 108.284,331.029 108.368,331.113 108.424C331.197 108.452,331.253 108.48,331.338 108.452C331.394 108.452,331.45 108.424,331.478 108.368C331.618 108.199,334.033 104.886,334.033 100C334.033 95.114,331.618 91.716,331.478 91.548C331.45 91.464,331.366 91.436,331.281 91.436"/></g></g><g class="vf-stavenote" id="vf-auto8280"><g class="vf-stem" id="vf-auto8281" pointer-events="bounding-box"><path stroke-width="1.5" fill="none" d="M93.862 67.65L93.862 100"/></g><g class="vf-notehead" id="vf-auto8284" pointer-events="bounding-box"><path stroke="none" d="M101.733 59.665C97.801 59.665,93.112 62.95,93.112 66.685C93.112 68.426,94.376 70.391,97.633 70.391C101.845 70.391,106.253 66.938,106.253 63.371C106.253 60.985,104.232 59.665,101.733 59.665M100.637 66.769C100.525 66.853,97.549 68.482,96.145 68.482C94.797 68.482,94.516 67.387,94.516 67.022C94.516 65.337,98.559 63.343,98.728 63.259C98.896 63.175,101.761 61.574,103.221 61.574C104.204 61.574,104.849 62.136,104.849 63.006C104.849 64.747,100.75 66.685,100.637 66.769"/><path stroke="none" d="M82.702 60.869C82.92 60.814,83.112 60.54,83.112 60.321L83.112 57.996C83.112 57.668,82.893 57.449,82.565 57.449C82.537 57.449,82.537 57.449,82.483 57.449L81.197 57.722L81.197 51.84L80.075 51.84L80.075 57.941L76.573 58.652L76.573 53.098L75.479 53.098L75.479 58.899L73.946 59.2C73.7 59.254,73.509 59.528,73.509 59.747L73.509 59.829L73.509 62.127L73.509 62.045C73.509 62.373,73.755 62.592,74.056 62.592C74.111 62.592,74.138 62.592,74.165 62.592L75.479 62.319L75.479 68.83L73.946 69.131C73.7 69.186,73.509 69.46,73.509 69.679L73.509 71.977C73.509 72.278,73.755 72.524,74.056 72.524C74.111 72.524,74.138 72.524,74.165 72.524L75.479 72.25L75.479 78.133L76.573 78.133L76.573 72.004L80.075 71.293L80.075 76.847L81.197 76.847L81.197 71.074L82.702 70.8C82.92 70.746,83.112 70.472,83.112 70.253L83.112 67.928C83.112 67.599,82.893 67.353,82.565 67.353C82.537 67.353,82.537 67.353,82.483 67.353L81.197 67.627L81.197 61.142M76.573 62.072L80.075 61.388L80.075 67.873L76.573 68.612"/><path stroke="none" d="M120.253 65 A2 2 0 0 0 116.253 65 A2 2 0 0 0 120.253 65"/><path stroke="none" d="M91.864 73.564C91.948 73.536,91.976 73.536,92.032 73.48C92.117 73.452,92.145 73.368,92.145 73.284C92.145 73.256,92.145 73.199,92.117 73.115C92.117 73.087,90.235 69.493,90.235 64.719C90.235 62.332,90.741 59.609,92.117 56.913C92.145 56.885,92.145 56.829,92.145 56.801C92.145 56.716,92.117 56.632,92.032 56.576C91.948 56.548,91.892 56.52,91.808 56.548C91.751 56.548,91.695 56.576,91.667 56.632C91.527 56.801,89.112 60.114,89.112 65C89.112 69.886,91.527 73.284,91.667 73.452C91.695 73.536,91.78 73.564,91.864 73.564"/><path stroke="none" d="M109.534 56.436C109.45 56.464,109.422 56.464,109.366 56.52C109.281 56.548,109.253 56.632,109.253 56.716C109.253 56.744,109.253 56.801,109.281 56.885C109.281 56.913,111.163 60.507,111.163 65.281C111.163 67.668,110.657 70.391,109.281 73.087C109.253 73.115,109.253 73.171,109.253 73.199C109.253 73.284,109.281 73.368,109.366 73.424C109.45 73.452,109.506 73.48,109.59 73.452C109.647 73.452,109.703 73.424,109.731 73.368C109.871 73.199,112.286 69.886,112.286 65C112.286 60.114,109.871 56.716,109.731 56.548C109.703 56.464,109.618 56.436,109.534 56.436"/></g></g><g class="vf-stavenote" id="vf-auto8288"><g class="vf-stem" id="vf-auto8289" pointer-events="bounding-box"><path stroke-width="1.5" fill="none" d="M300.468 67L300.468 100"/></g><g class="vf-notehead" id="vf-auto8292" pointer-events="bounding-box"><path stroke="none" d="M299.718 66.685C299.718 68.426,300.981 70.391,304.239 70.391C308.451 70.391,312.859 66.938,312.859 63.371C312.859 60.985,310.837 59.665,308.338 59.665C304.407 59.665,299.718 62.978,299.718 66.685"/><path stroke="none" d="M298.47 73.564C298.554 73.536,298.582 73.536,298.638 73.48C298.722 73.452,298.75 73.368,298.75 73.284C298.75 73.256,298.75 73.199,298.722 73.115C298.722 73.087,296.841 69.493,296.841 64.719C296.841 62.332,297.346 59.609,298.722 56.913C298.75 56.885,298.75 56.829,298.75 56.801C298.75 56.716,298.722 56.632,298.638 56.576C298.554 56.548,298.498 56.52,298.413 56.548C298.357 56.548,298.301 56.576,298.273 56.632C298.133 56.801,295.718 60.114,295.718 65C295.718 69.886,298.133 73.284,298.273 73.452C298.301 73.536,298.385 73.564,298.47 73.564"/><path stroke="none" d="M316.14 56.436C316.056 56.464,316.028 56.464,315.972 56.52C315.887 56.548,315.859 56.632,315.859 56.716C315.859 56.744,315.859 56.801,315.887 56.885C315.887 56.913,317.769 60.507,317.769 65.281C317.769 67.668,317.263 70.391,315.887 73.087C315.859 73.115,315.859 73.171,315.859 73.199C315.859 73.284,315.887 73.368,315.972 73.424C316.056 73.452,316.112 73.48,316.196 73.452C316.252 73.452,316.309 73.424,316.337 73.368C316.477 73.199,318.892 69.886,318.892 65C318.892 60.114,316.477 56.716,316.337 56.548C316.309 56.464,316.224 56.436,316.14 56.436"/></g></g><g class="vf-stavenote" id="vf-auto8303"><path stroke-width="1.4" fill="none" stroke="#444" d="M90.112 220L109.253 220"/><path stroke-width="1.4" fill="none" stroke="#444" d="M90.112 230L109.253 230"/><path stroke-width="1.4" fill="none" stroke="#444" d="M90.112 240L109.253 240"/><path stroke-width="1.4" fill="none" stroke="#444" d="M90.112 250L109.253 250"/><g class="vf-stem" id="vf-auto8304" pointer-events="bounding-box"><path stroke-width="1.5" fill="none" d="M93.862 257L93.862 290"/></g><g class="vf-notehead" id="vf-auto8307" pointer-events="bounding-box"><path stroke="none" d="M93.112 256.685C93.112 258.426,94.376 260.391,97.633 260.391C101.845 260.391,106.253 256.938,106.253 253.371C106.253 250.985,104.232 249.665,101.733 249.665C97.801 249.665,93.112 252.978,93.112 256.685"/><path stroke="none" d="M82.702 250.869C82.92 250.814,83.112 250.54,83.112 250.321L83.112 247.996C83.112 247.668,82.893 247.449,82.565 247.449C82.537 247.449,82.537 247.449,82.483 247.449L81.197 247.722L81.197 241.84L80.075 241.84L80.075 247.941L76.573 248.652L76.573 243.098L75.479 243.098L75.479 248.899L73.946 249.2C73.7 249.254,73.509 249.528,73.509 249.747L73.509 249.829L73.509 252.127L73.509 252.045C73.509 252.373,73.755 252.592,74.056 252.592C74.111 252.592,74.138 252.592,74.165 252.592L75.479 252.319L75.479 258.83L73.946 259.131C73.7 259.186,73.509 259.46,73.509 259.679L73.509 261.977C73.509 262.278,73.755 262.524,74.056 262.524C74.111 262.524,74.138 262.524,74.165 262.524L75.479 262.25L75.479 268.133L76.573 268.133L76.573 262.004L80.075 261.293L80.075 266.847L81.197 266.847L81.197 261.074L82.702 260.8C82.92 260.746,83.112 260.472,83.112 260.253L83.112 257.928C83.112 257.599,82.893 257.353,82.565 257.353C82.537 257.353,82.537 257.353,82.483 257.353L81.197 257.627L81.197 251.142M76.573 252.072L80.075 251.388L80.075 257.873L76.573 258.612"/><path stroke="none" d="M91.864 263.564C91.948 263.536,91.976 263.536,92.032 263.48C92.117 263.452,92.145 263.368,92.145 263.284C92.145 263.256,92.145 263.199,92.117 263.115C92.117 263.087,90.235 259.493,90.235 254.719C90.235 252.332,90.741 249.609,92.117 246.913C92.145 246.885,92.145 246.829,92.145 246.801C92.145 246.716,92.117 246.632,92.032 246.576C91.948 246.548,91.892 246.52,91.808 246.548C91.751 246.548,91.695 246.576,91.667 246.632C91.527 246.801,89.112 250.114,89.112 255C89.112 259.886,91.527 263.284,91.667 263.452C91.695 263.536,91.78 263.564,91.864 263.564"/><path stroke="none" d="M109.534 246.436C109.45 246.464,109.422 246.464,109.366 246.52C109.281 246.548,109.253 246.632,109.253 246.716C109.253 246.744,109.253 246.801,109.281 246.885C109.281 246.913,111.163 250.507,111.163 255.281C111.163 257.668,110.657 260.391,109.281 263.087C109.253 263.115,109.253 263.171,109.253 263.199C109.253 263.284,109.281 263.368,109.366 263.424C109.45 263.452,109.506 263.48,109.59 263.452C109.647 263.452,109.703 263.424,109.731 263.368C109.871 263.199,112.286 259.886,112.286 255C112.286 250.114,109.871 246.716,109.731 246.548C109.703 246.464,109.618 246.436,109.534 246.436"/></g></g><g class="vf-stavenote" id="vf-auto8310"><path stroke-width="1.4" fill="none" stroke="#444" d="M179.819 220L198.961 220"/><path stroke-width="1.4" fill="none" stroke="#444" d="M179.819 230L198.961 230"/><path stroke-width="1.4" fill="none" stroke="#444" d="M179.819 240L198.961 240"/><path stroke-width="1.4" fill="none" stroke="#444" d="M179.819 250L198.961 250"/><g class="vf-stem" id="vf-auto8311" pointer-events="bounding-box"><path stroke-width="1.5" fill="none" d="M183.569 257L183.569 290"/></g><g class="vf-notehead" id="vf-auto8314" pointer-events="bounding-box"><path stroke="none" d="M182.819 256.685C182.819 258.426,184.083 260.391,187.34 260.391C191.552 260.391,195.961 256.938,195.961 253.371C195.961 250.985,193.939 249.665,191.44 249.665C187.509 249.665,182.819 252.978,182.819 256.685"/><path stroke="none" d="M172.628 247.777C172.546 247.722,172.436 247.668,172.327 247.668C172.272 247.668,172.19 247.722,172.163 247.722L167.183 249.09L167.183 242.196L166.089 242.196L166.089 261.703C166.089 262.004,166.335 262.223,166.636 262.223C166.691 262.223,166.745 262.223,166.8 262.223L171.752 260.828L171.752 267.722L172.819 267.722C172.819 261.183,172.819 254.973,172.819 248.215C172.819 248.078,172.737 247.859,172.628 247.777M167.183 258.83L167.183 252.373L171.752 251.06L171.752 257.572"/><path stroke="none" d="M181.571 263.564C181.655 263.536,181.683 263.536,181.739 263.48C181.824 263.452,181.852 263.368,181.852 263.284C181.852 263.256,181.852 263.199,181.824 263.115C181.824 263.087,179.942 259.493,179.942 254.719C179.942 252.332,180.448 249.609,181.824 246.913C181.852 246.885,181.852 246.829,181.852 246.801C181.852 246.716,181.824 246.632,181.739 246.576C181.655 246.548,181.599 246.52,181.515 246.548C181.459 246.548,181.403 246.576,181.374 246.632C181.234 246.801,178.819 250.114,178.819 255C178.819 259.886,181.234 263.284,181.374 263.452C181.403 263.536,181.487 263.564,181.571 263.564"/><path stroke="none" d="M199.241 246.436C199.157 246.464,199.129 246.464,199.073 246.52C198.989 246.548,198.961 246.632,198.961 246.716C198.961 246.744,198.961 246.801,198.989 246.885C198.989 246.913,200.87 250.507,200.87 255.281C200.87 257.668,200.365 260.391,198.989 263.087C198.961 263.115,198.961 263.171,198.961 263.199C198.961 263.284,198.989 263.368,199.073 263.424C199.157 263.452,199.213 263.48,199.298 263.452C199.354 263.452,199.41 263.424,199.438 263.368C199.578 263.199,201.993 259.886,201.993 255C201.993 250.114,199.578 246.716,199.438 246.548C199.41 246.464,199.326 246.436,199.241 246.436"/></g></g><g class="vf-stavenote" id="vf-auto8317"><path stroke-width="1.4" fill="none" stroke="#444" d="M238.268 220L257.41 220"/><g class="vf-stem" id="vf-auto8318" pointer-events="bounding-box"><path stroke-width="1.5" fill="none" d="M242.018 227L242.018 260"/></g><g class="vf-notehead" id="vf-auto8321" pointer-events="bounding-box"><path stroke="none" d="M241.268 226.685C241.268 228.426,242.532 230.391,245.789 230.391C250.001 230.391,254.41 226.938,254.41 223.371C254.41 220.985,252.388 219.665,249.889 219.665C245.958 219.665,241.268 222.978,241.268 226.685"/><path stroke="none" d="M231.186 221.881C230.968 220.349,230.01 218.899,228.013 218.899C226.043 218.899,224.894 220.103,224.702 220.349L224.866 207.708C224.866 207.38,224.62 207.161,224.292 207.161L223.827 207.161C223.526 207.161,223.279 207.38,223.279 207.708L223.471 231.375C223.471 231.703,223.717 231.922,224.018 231.922C224.1 231.922,224.264 231.895,224.346 231.867C224.511 231.785,227.055 230.527,229.189 228.119C230.694 226.423,231.268 224.48,231.268 222.866C231.268 222.51,231.241 222.209,231.186 221.881M228.478 223.413C228.478 224.015,228.314 225.821,227.329 227.326C226.672 228.338,225.331 229.405,224.593 230.007L224.702 222.319C224.784 221.963,225.359 220.814,226.946 220.814C228.368 220.814,228.478 222.155,228.478 223.003C228.478 223.194,228.478 223.304,228.478 223.413"/><path stroke="none" d="M240.02 233.564C240.105 233.536,240.133 233.536,240.189 233.48C240.273 233.452,240.301 233.368,240.301 233.284C240.301 233.256,240.301 233.199,240.273 233.115C240.273 233.087,238.392 229.493,238.392 224.719C238.392 222.332,238.897 219.609,240.273 216.913C240.301 216.885,240.301 216.829,240.301 216.801C240.301 216.716,240.273 216.632,240.189 216.576C240.105 216.548,240.048 216.52,239.964 216.548C239.908 216.548,239.852 216.576,239.824 216.632C239.683 216.801,237.268 220.114,237.268 225C237.268 229.886,239.683 233.284,239.824 233.452C239.852 233.536,239.936 233.564,240.02 233.564"/><path stroke="none" d="M257.691 216.436C257.606 216.464,257.578 216.464,257.522 216.52C257.438 216.548,257.41 216.632,257.41 216.716C257.41 216.744,257.41 216.801,257.438 216.885C257.438 216.913,259.319 220.507,259.319 225.281C259.319 227.668,258.814 230.391,257.438 233.087C257.41 233.115,257.41 233.171,257.41 233.199C257.41 233.284,257.438 233.368,257.522 233.424C257.606 233.452,257.663 233.48,257.747 233.452C257.803 233.452,257.859 233.424,257.887 233.368C258.028 233.199,260.443 229.886,260.443 225C260.443 220.114,258.028 216.716,257.887 216.548C257.859 216.464,257.775 216.436,257.691 216.436"/></g></g><g class="vf-stavenote" id="vf-auto8324"><path stroke-width="1.4" fill="none" stroke="#444" d="M296.718 220L315.859 220"/><path stroke-width="1.4" fill="none" stroke="#444" d="M296.718 230L315.859 230"/><path stroke-width="1.4" fill="none" stroke="#444" d="M296.718 240L315.859 240"/><path stroke-width="1.4" fill="none" stroke="#444" d="M296.718 250L315.859 250"/><g class="vf-stem" id="vf-auto8325" pointer-events="bounding-box"><path stroke-width="1.5" fill="none" d="M300.468 252L300.468 285"/></g><g class="vf-notehead" id="vf-auto8328" pointer-events="bounding-box"><path stroke="none" d="M299.718 251.685C299.718 253.426,300.981 255.391,304.239 255.391C308.451 255.391,312.859 251.938,312.859 248.371C312.859 245.985,310.837 244.665,308.338 244.665C304.407 244.665,299.718 247.978,299.718 251.685"/><path stroke="none" d="M288.733 248.003L289.171 248.003C289.472 248.003,289.718 247.756,289.718 247.428L289.718 245.103C289.718 244.802,289.472 244.555,289.171 244.555L286.845 244.555C286.517 244.555,286.298 244.802,286.298 245.103L286.298 245.595L286.298 247.209L284.355 249.179L284.246 249.179L282.276 247.209L282.276 245.103C282.276 244.802,282.084 244.555,281.756 244.555L279.43 244.555C279.129 244.555,278.883 244.802,278.883 245.103L278.883 247.428C278.883 247.756,279.129 248.003,279.43 248.003L279.841 248.003L279.868 248.003L281.51 248.003L283.452 249.918L283.452 250.027L281.51 251.997L279.868 251.997L279.841 251.997L279.43 251.997C279.129 251.997,278.883 252.216,278.883 252.517L278.883 254.843C278.883 255.171,279.129 255.39,279.43 255.39L281.756 255.39C282.084 255.39,282.276 255.171,282.276 254.843L282.276 252.763L284.246 250.876L284.355 250.876L286.298 252.763L286.298 254.405L286.298 254.46L286.298 254.843C286.298 255.171,286.517 255.39,286.845 255.39L289.171 255.39C289.472 255.39,289.718 255.171,289.718 254.843L289.718 252.517C289.718 252.216,289.472 251.997,289.171 251.997L288.76 251.997L288.733 251.997L287.091 251.997L285.121 250.027L285.121 249.973L287.091 248.003"/><path stroke="none" d="M298.47 258.564C298.554 258.536,298.582 258.536,298.638 258.48C298.722 258.452,298.75 258.368,298.75 258.284C298.75 258.256,298.75 258.199,298.722 258.115C298.722 258.087,296.841 254.493,296.841 249.719C296.841 247.332,297.346 244.609,298.722 241.913C298.75 241.885,298.75 241.829,298.75 241.801C298.75 241.716,298.722 241.632,298.638 241.576C298.554 241.548,298.498 241.52,298.413 241.548C298.357 241.548,298.301 241.576,298.273 241.632C298.133 241.801,295.718 245.114,295.718 250C295.718 254.886,298.133 258.284,298.273 258.452C298.301 258.536,298.385 258.564,298.47 258.564"/><path stroke="none" d="M316.14 241.436C316.056 241.464,316.028 241.464,315.972 241.52C315.887 241.548,315.859 241.632,315.859 241.716C315.859 241.744,315.859 241.801,315.887 241.885C315.887 241.913,317.769 245.507,317.769 250.281C317.769 252.668,317.263 255.391,315.887 258.087C315.859 258.115,315.859 258.171,315.859 258.199C315.859 258.284,315.887 258.368,315.972 258.424C316.056 258.452,316.112 258.48,316.196 258.452C316.252 258.452,316.309 258.424,316.337 258.368C316.477 258.199,318.892 254.886,318.892 250C318.892 245.114,316.477 241.716,316.337 241.548C316.309 241.464,316.224 241.436,316.14 241.436"/></g></g><path stroke="none" d="M25.074 32.509C24.987 32.48,24.872 32.422,24.786 32.422C24.613 32.422,24.411 32.48,24.325 32.624C24.238 32.768,20.091 39.162,12.171 39.162L5.576 39.162C5.259 39.162,5 39.363,5 39.68L5 43.424L5 44L10.069 44C22.827 44,25.275 33.344,25.333 33.229C25.333 33.171,25.362 33.085,25.362 32.998C25.362 32.797,25.246 32.624,25.074 32.509"/><path stroke="none" d="M25.074 228.491C25.246 228.376,25.362 228.203,25.362 228.002C25.362 227.915,25.333 227.829,25.333 227.771C25.275 227.656,22.827 217,10.069 217L5 217L5 217.576L5 221.32C5 221.637,5.259 221.838,5.576 221.838L12.171 221.838C20.091 221.838,24.238 228.232,24.325 228.376C24.411 228.52,24.613 228.578,24.786 228.578C24.872 228.578,24.987 228.52,25.074 228.491"/><rect x="5" y="44" width="3" height="173" stroke="none"/></svg>