<svg xmlns="http://www.w3.org/2000/svg" stroke-width="0.3" stroke-dasharray="none" fill="black" stroke="black" font-family="Arial, sans-serif" font-size="10pt" font-weight="normal" font-style="normal" width="750" height="300" viewBox="0 0 750 300" style="width: 750px; height: 300px; border: none;"><g class="vf-stave" id="vf-auto24114" stroke-width="1" fill="#999999" stroke="#999999"><path fill="none" d="M30 85L730 85"/><path fill="none" d="M30 95L730 95"/><path fill="none" d="M30 105L730 105"/><path fill="none" d="M30 115L730 115"/><path fill="none" d="M30 125L730 125"/></g><g class="vf-stavebarline" id="vf-auto24115"><rect x="30" y="84.5" width="1" height="41" stroke="none"/></g><g class="vf-stavebarline" id="vf-auto24116"><rect x="730" y="84.5" width="1" height="41" stroke="none"/></g><g class="vf-stavenote" id="vf-auto24117"><path stroke-width="1.4" fill="none" stroke="#444" d="M44 135L61.99 135"/><g class="vf-stem" id="vf-auto24118" pointer-events="bounding-box"><path stroke-width="1.5" fill="none" d="M47.75 111.5L47.75 170"/></g><g class="vf-notehead" id="vf-auto24124" pointer-events="bounding-box"><path stroke="none" d="M54.104 129.889C54.188 129.889,54.273 129.889,54.413 129.889C54.778 129.889,55.312 129.918,55.508 129.946C57.839 130.283,58.99 131.827,58.99 133.624C58.99 135.534,57.698 137.724,55.115 139.128C53.852 139.802,52.56 140.111,51.38 140.111C49.218 140.111,47.449 139.044,47.084 137.162C47.028 136.881,47 136.629,47 136.376C47 133.343,50.257 130.283,54.104 129.889M57.249 131.35C57.109 131.293,56.968 131.293,56.8 131.293C55.087 131.293,51.577 133.371,49.611 135.674C48.769 136.657,48.32 137.527,48.32 138.061C48.32 138.313,48.404 138.482,48.572 138.566C48.741 138.678,48.966 138.707,49.19 138.707C51.015 138.707,54.806 136.376,56.688 133.961C57.362 133.119,57.698 132.417,57.698 131.967C57.698 131.658,57.53 131.434,57.249 131.35"/><path stroke="none" d="M65.99 130 A2 2 0 0 0 61.99 130 A2 2 0 0 0 65.99 130"/><path stroke="none" d="M71.99 130 A2 2 0 0 0 67.99 130 A2 2 0 0 0 71.99 130"/></g><g class="vf-notehead" id="vf-auto24123" pointer-events="bounding-box"><path stroke="none" d="M54.104 119.889C54.188 119.889,54.273 119.889,54.413 119.889C54.778 119.889,55.312 119.918,55.508 119.946C57.839 120.283,58.99 121.827,58.99 123.624C58.99 125.534,57.698 127.724,55.115 129.128C53.852 129.802,52.56 130.111,51.38 130.111C49.218 130.111,47.449 129.044,47.084 127.162C47.028 126.881,47 126.629,47 126.376C47 123.343,50.257 120.283,54.104 119.889M57.249 121.35C57.109 121.293,56.968 121.293,56.8 121.293C55.087 121.293,51.577 123.371,49.611 125.674C48.769 126.657,48.32 127.527,48.32 128.061C48.32 128.313,48.404 128.482,48.572 128.566C48.741 128.678,48.966 128.707,49.19 128.707C51.015 128.707,54.806 126.376,56.688 123.961C57.362 123.119,57.698 122.417,57.698 121.967C57.698 121.658,57.53 121.434,57.249 121.35"/><path stroke="none" d="M65.99 120 A2 2 0 0 0 61.99 120 A2 2 0 0 0 65.99 120"/><path stroke="none" d="M71.99 120 A2 2 0 0 0 67.99 120 A2 2 0 0 0 71.99 120"/></g><g class="vf-notehead" id="vf-auto24122" pointer-events="bounding-box"><path stroke="none" d="M54.104 104.889C54.188 104.889,54.273 104.889,54.413 104.889C54.778 104.889,55.312 104.918,55.508 104.946C57.839 105.283,58.99 106.827,58.99 108.624C58.99 110.534,57.698 112.724,55.115 114.128C53.852 114.802,52.56 115.111,51.38 115.111C49.218 115.111,47.449 114.044,47.084 112.162C47.028 111.881,47 111.629,47 111.376C47 108.343,50.257 105.283,54.104 104.889M57.249 106.35C57.109 106.293,56.968 106.293,56.8 106.293C55.087 106.293,51.577 108.371,49.611 110.674C48.769 111.657,48.32 112.527,48.32 113.061C48.32 113.313,48.404 113.482,48.572 113.566C48.741 113.678,48.966 113.707,49.19 113.707C51.015 113.707,54.806 111.376,56.688 108.961C57.362 108.119,57.698 107.417,57.698 106.967C57.698 106.658,57.53 106.434,57.249 106.35"/><path stroke="none" d="M65.99 110 A2 2 0 0 0 61.99 110 A2 2 0 0 0 65.99 110"/><path stroke="none" d="M71.99 110 A2 2 0 0 0 67.99 110 A2 2 0 0 0 71.99 110"/></g></g><g class="vf-stavenote" id="vf-auto24125"><path stroke-width="1.4" fill="none" stroke="#444" d="M211.461 135L229.451 135"/><g class="vf-stem" id="vf-auto24126" pointer-events="bounding-box"><path stroke-width="1.5" fill="none" d="M215.211 101.5L215.211 170"/></g><g class="vf-notehead" id="vf-auto24132" pointer-events="bounding-box"><path stroke="none" d="M221.565 129.889C221.649 129.889,221.734 129.889,221.874 129.889C222.239 129.889,222.773 129.918,222.969 129.946C225.3 130.283,226.451 131.827,226.451 133.624C226.451 135.534,225.159 137.724,222.576 139.128C221.312 139.802,220.021 140.111,218.841 140.111C216.679 140.111,214.91 139.044,214.545 137.162C214.489 136.881,214.461 136.629,214.461 136.376C214.461 133.343,217.718 130.283,221.565 129.889M224.71 131.35C224.57 131.293,224.429 131.293,224.261 131.293C222.548 131.293,219.038 133.371,217.072 135.674C216.23 136.657,215.781 137.527,215.781 138.061C215.781 138.313,215.865 138.482,216.033 138.566C216.202 138.678,216.426 138.707,216.651 138.707C218.476 138.707,222.267 136.376,224.148 133.961C224.822 133.119,225.159 132.417,225.159 131.967C225.159 131.658,224.991 131.434,224.71 131.35"/><path stroke="none" d="M233.451 130 A2 2 0 0 0 229.451 130 A2 2 0 0 0 233.451 130"/><path stroke="none" d="M239.451 130 A2 2 0 0 0 235.451 130 A2 2 0 0 0 239.451 130"/></g><g class="vf-notehead" id="vf-auto24131" pointer-events="bounding-box"><path stroke="none" d="M221.565 119.889C221.649 119.889,221.734 119.889,221.874 119.889C222.239 119.889,222.773 119.918,222.969 119.946C225.3 120.283,226.451 121.827,226.451 123.624C226.451 125.534,225.159 127.724,222.576 129.128C221.312 129.802,220.021 130.111,218.841 130.111C216.679 130.111,214.91 129.044,214.545 127.162C214.489 126.881,214.461 126.629,214.461 126.376C214.461 123.343,217.718 120.283,221.565 119.889M224.71 121.35C224.57 121.293,224.429 121.293,224.261 121.293C222.548 121.293,219.038 123.371,217.072 125.674C216.23 126.657,215.781 127.527,215.781 128.061C215.781 128.313,215.865 128.482,216.033 128.566C216.202 128.678,216.426 128.707,216.651 128.707C218.476 128.707,222.267 126.376,224.148 123.961C224.822 123.119,225.159 122.417,225.159 121.967C225.159 121.658,224.991 121.434,224.71 121.35"/><path stroke="none" d="M233.451 120 A2 2 0 0 0 229.451 120 A2 2 0 0 0 233.451 120"/><path stroke="none" d="M239.451 120 A2 2 0 0 0 235.451 120 A2 2 0 0 0 239.451 120"/></g><g class="vf-notehead" id="vf-auto24130" pointer-events="bounding-box"><path stroke="none" d="M221.565 94.889C221.649 94.889,221.734 94.889,221.874 94.889C222.239 94.889,222.773 94.918,222.969 94.946C225.3 95.283,226.451 96.827,226.451 98.624C226.451 100.534,225.159 102.724,222.576 104.128C221.312 104.802,220.021 105.111,218.841 105.111C216.679 105.111,214.91 104.044,214.545 102.162C214.489 101.881,214.461 101.629,214.461 101.376C214.461 98.343,217.718 95.283,221.565 94.889M224.71 96.35C224.57 96.293,224.429 96.293,224.261 96.293C222.548 96.293,219.038 98.371,217.072 100.674C216.23 101.657,215.781 102.527,215.781 103.061C215.781 103.313,215.865 103.482,216.033 103.566C216.202 103.678,216.426 103.707,216.651 103.707C218.476 103.707,222.267 101.376,224.148 98.961C224.822 98.119,225.159 97.417,225.159 96.967C225.159 96.658,224.991 96.434,224.71 96.35"/><path stroke="none" d="M233.451 100 A2 2 0 0 0 229.451 100 A2 2 0 0 0 233.451 100"/><path stroke="none" d="M239.451 100 A2 2 0 0 0 235.451 100 A2 2 0 0 0 239.451 100"/><path stroke="none" d="M245.451 100 A2 2 0 0 0 241.451 100 A2 2 0 0 0 245.451 100"/></g></g><g class="vf-stavenote" id="vf-auto24133"><g class="vf-stem" id="vf-auto24134" pointer-events="bounding-box"><path stroke-width="1.5" fill="none" d="M446.078 96.5L446.078 165"/></g><g class="vf-notehead" id="vf-auto24140" pointer-events="bounding-box"><path stroke="none" d="M452.432 124.889C452.516 124.889,452.601 124.889,452.741 124.889C453.106 124.889,453.639 124.918,453.836 124.946C456.167 125.283,457.318 126.827,457.318 128.624C457.318 130.534,456.026 132.724,453.443 134.128C452.179 134.802,450.888 135.111,449.708 135.111C447.546 135.111,445.777 134.044,445.412 132.162C445.356 131.881,445.328 131.629,445.328 131.376C445.328 128.343,448.585 125.283,452.432 124.889M455.577 126.35C455.437 126.293,455.296 126.293,455.128 126.293C453.415 126.293,449.905 128.371,447.939 130.674C447.097 131.657,446.648 132.527,446.648 133.061C446.648 133.313,446.732 133.482,446.9 133.566C447.069 133.678,447.293 133.707,447.518 133.707C449.343 133.707,453.134 131.376,455.015 128.961C455.689 128.119,456.026 127.417,456.026 126.967C456.026 126.658,455.858 126.434,455.577 126.35"/><path stroke="none" d="M464.318 130 A2 2 0 0 0 460.318 130 A2 2 0 0 0 464.318 130"/><path stroke="none" d="M470.318 130 A2 2 0 0 0 466.318 130 A2 2 0 0 0 470.318 130"/><path stroke="none" d="M476.318 130 A2 2 0 0 0 472.318 130 A2 2 0 0 0 476.318 130"/></g><g class="vf-notehead" id="vf-auto24139" pointer-events="bounding-box"><path stroke="none" d="M441.192 94.889C441.276 94.889,441.36 94.889,441.501 94.889C441.866 94.889,442.399 94.918,442.596 94.946C444.927 95.283,446.078 96.827,446.078 98.624C446.078 100.534,444.786 102.724,442.203 104.128C440.939 104.802,439.647 105.111,438.468 105.111C436.306 105.111,434.537 104.044,434.172 102.162C434.116 101.881,434.088 101.629,434.088 101.376C434.088 98.343,437.345 95.283,441.192 94.889M444.337 96.35C444.196 96.293,444.056 96.293,443.888 96.293C442.175 96.293,438.665 98.371,436.699 100.674C435.857 101.657,435.407 102.527,435.407 103.061C435.407 103.313,435.492 103.482,435.66 103.566C435.829 103.678,436.053 103.707,436.278 103.707C438.103 103.707,441.894 101.376,443.775 98.961C444.449 98.119,444.786 97.417,444.786 96.967C444.786 96.658,444.618 96.434,444.337 96.35"/><path stroke="none" d="M464.318 100 A2 2 0 0 0 460.318 100 A2 2 0 0 0 464.318 100"/><path stroke="none" d="M470.318 100 A2 2 0 0 0 466.318 100 A2 2 0 0 0 470.318 100"/></g><g class="vf-notehead" id="vf-auto24138" pointer-events="bounding-box"><path stroke="none" d="M452.432 89.889C452.516 89.889,452.601 89.889,452.741 89.889C453.106 89.889,453.639 89.918,453.836 89.946C456.167 90.283,457.318 91.827,457.318 93.624C457.318 95.534,456.026 97.724,453.443 99.128C452.179 99.802,450.888 100.111,449.708 100.111C447.546 100.111,445.777 99.044,445.412 97.162C445.356 96.881,445.328 96.629,445.328 96.376C445.328 93.343,448.585 90.283,452.432 89.889M455.577 91.35C455.437 91.293,455.296 91.293,455.128 91.293C453.415 91.293,449.905 93.371,447.939 95.674C447.097 96.657,446.648 97.527,446.648 98.061C446.648 98.313,446.732 98.482,446.9 98.566C447.069 98.678,447.293 98.707,447.518 98.707C449.343 98.707,453.134 96.376,455.015 93.961C455.689 93.119,456.026 92.417,456.026 91.967C456.026 91.658,455.858 91.434,455.577 91.35"/><path stroke="none" d="M464.318 90 A2 2 0 0 0 460.318 90 A2 2 0 0 0 464.318 90"/><path stroke="none" d="M470.318 90 A2 2 0 0 0 466.318 90 A2 2 0 0 0 470.318 90"/></g></g><g class="vf-stavenote" id="vf-auto24141"><g class="vf-stem" id="vf-auto24142" pointer-events="bounding-box"><path stroke-width="1.5" fill="none" d="M587.558 96.5L587.558 162"/></g><g class="vf-notehead" id="vf-auto24149" pointer-events="bounding-box"><path stroke="none" d="M593.913 124.889C593.997 124.889,594.081 124.889,594.221 124.889C594.586 124.889,595.12 124.918,595.317 124.946C597.647 125.283,598.798 126.827,598.798 128.624C598.798 130.534,597.507 132.724,594.923 134.128C593.66 134.802,592.368 135.111,591.189 135.111C589.027 135.111,587.258 134.044,586.893 132.162C586.836 131.881,586.808 131.629,586.808 131.376C586.808 128.343,590.066 125.283,593.913 124.889"/><path stroke="none" d="M605.798 130 A2 2 0 0 0 601.798 130 A2 2 0 0 0 605.798 130"/><path stroke="none" d="M611.798 130 A2 2 0 0 0 607.798 130 A2 2 0 0 0 611.798 130"/><path stroke="none" d="M617.798 130 A2 2 0 0 0 613.798 130 A2 2 0 0 0 617.798 130"/></g><g class="vf-notehead" id="vf-auto24148" pointer-events="bounding-box"><path stroke="none" d="M582.672 94.889C582.757 94.889,582.841 94.889,582.981 94.889C583.346 94.889,583.88 94.918,584.076 94.946C586.407 95.283,587.558 96.827,587.558 98.624C587.558 100.534,586.267 102.724,583.683 104.128C582.42 104.802,581.128 105.111,579.949 105.111C577.786 105.111,576.017 104.044,575.652 102.162C575.596 101.881,575.568 101.629,575.568 101.376C575.568 98.343,578.825 95.283,582.672 94.889"/><path stroke="none" d="M605.798 100 A2 2 0 0 0 601.798 100 A2 2 0 0 0 605.798 100"/><path stroke="none" d="M611.798 100 A2 2 0 0 0 607.798 100 A2 2 0 0 0 611.798 100"/></g><g class="vf-notehead" id="vf-auto24147" pointer-events="bounding-box"><path stroke="none" d="M593.913 89.889C593.997 89.889,594.081 89.889,594.221 89.889C594.586 89.889,595.12 89.918,595.317 89.946C597.647 90.283,598.798 91.827,598.798 93.624C598.798 95.534,597.507 97.724,594.923 99.128C593.66 99.802,592.368 100.111,591.189 100.111C589.027 100.111,587.258 99.044,586.893 97.162C586.836 96.881,586.808 96.629,586.808 96.376C586.808 93.343,590.066 90.283,593.913 89.889"/><path stroke="none" d="M605.798 90 A2 2 0 0 0 601.798 90 A2 2 0 0 0 605.798 90"/><path stroke="none" d="M611.798 90 A2 2 0 0 0 607.798 90 A2 2 0 0 0 611.798 90"/></g><path stroke="none" d="M593.801 138.723C593.885 138.695,593.969 138.695,594.053 138.695C594.278 138.695,594.446 138.864,594.727 139.257C596.693 142.262,597.704 145.631,597.704 148.86C597.704 150.938,597.282 152.932,596.44 154.757C595.822 156.105,594.924 157.369,593.941 158.267C591.779 160.233,590.291 161.889,588.999 163.715C588.325 164.641,587.679 165.736,587.398 166.438C587.286 166.691,587.089 166.86,586.893 166.86L586.809 166.86L586.809 162.591L586.809 158.351L586.949 158.351C587.735 158.351,589.224 158.071,590.178 157.762C593.772 156.554,596.215 152.567,596.215 147.962C596.215 145.21,595.345 142.346,593.716 139.875C593.492 139.51,593.436 139.454,593.436 139.285C593.436 139.032,593.576 138.808,593.801 138.723"/></g><g class="vf-stavenote" id="vf-auto24151"><g class="vf-stem" id="vf-auto24152" pointer-events="bounding-box"><path stroke-width="1.5" fill="none" d="M673.938 96.5L673.938 162"/></g><g class="vf-notehead" id="vf-auto24159" pointer-events="bounding-box"><path stroke="none" d="M680.292 124.889C680.376 124.889,680.461 124.889,680.601 124.889C680.966 124.889,681.5 124.918,681.696 124.946C684.027 125.283,685.178 126.827,685.178 128.624C685.178 130.534,683.886 132.724,681.303 134.128C680.039 134.802,678.748 135.111,677.568 135.111C675.406 135.111,673.637 134.044,673.272 132.162C673.216 131.881,673.188 131.629,673.188 131.376C673.188 128.343,676.445 125.283,680.292 124.889"/><path stroke="none" d="M692.178 130 A2 2 0 0 0 688.178 130 A2 2 0 0 0 692.178 130"/><path stroke="none" d="M698.178 130 A2 2 0 0 0 694.178 130 A2 2 0 0 0 698.178 130"/><path stroke="none" d="M704.178 130 A2 2 0 0 0 700.178 130 A2 2 0 0 0 704.178 130"/></g><g class="vf-notehead" id="vf-auto24158" pointer-events="bounding-box"><path stroke="none" d="M669.052 94.889C669.136 94.889,669.22 94.889,669.361 94.889C669.726 94.889,670.259 94.918,670.456 94.946C672.787 95.283,673.938 96.827,673.938 98.624C673.938 100.534,672.646 102.724,670.063 104.128C668.799 104.802,667.508 105.111,666.328 105.111C664.166 105.111,662.397 104.044,662.032 102.162C661.976 101.881,661.948 101.629,661.948 101.376C661.948 98.343,665.205 95.283,669.052 94.889"/><path stroke="none" d="M692.178 100 A2 2 0 0 0 688.178 100 A2 2 0 0 0 692.178 100"/><path stroke="none" d="M698.178 100 A2 2 0 0 0 694.178 100 A2 2 0 0 0 698.178 100"/></g><g class="vf-notehead" id="vf-auto24157" pointer-events="bounding-box"><path stroke="none" d="M680.292 89.889C680.376 89.889,680.461 89.889,680.601 89.889C680.966 89.889,681.5 89.918,681.696 89.946C684.027 90.283,685.178 91.827,685.178 93.624C685.178 95.534,683.886 97.724,681.303 99.128C680.039 99.802,678.748 100.111,677.568 100.111C675.406 100.111,673.637 99.044,673.272 97.162C673.216 96.881,673.188 96.629,673.188 96.376C673.188 93.343,676.445 90.283,680.292 89.889"/><path stroke="none" d="M692.178 90 A2 2 0 0 0 688.178 90 A2 2 0 0 0 692.178 90"/><path stroke="none" d="M698.178 90 A2 2 0 0 0 694.178 90 A2 2 0 0 0 698.178 90"/></g><path stroke="none" d="M680.18 138.723C680.264 138.695,680.349 138.695,680.433 138.695C680.657 138.695,680.826 138.864,681.107 139.257C683.072 142.262,684.083 145.631,684.083 148.86C684.083 150.938,683.662 152.932,682.82 154.757C682.202 156.105,681.303 157.369,680.321 158.267C678.158 160.233,676.67 161.889,675.378 163.715C674.705 164.641,674.059 165.736,673.778 166.438C673.666 166.691,673.469 166.86,673.272 166.86L673.188 166.86L673.188 162.591L673.188 158.351L673.329 158.351C674.115 158.351,675.603 158.071,676.558 157.762C680.152 156.554,682.595 152.567,682.595 147.962C682.595 145.21,681.725 142.346,680.096 139.875C679.871 139.51,679.815 139.454,679.815 139.285C679.815 139.032,679.955 138.808,680.18 138.723"/></g><g class="vf-stavenote" id="vf-auto24195"><path stroke-width="1.4" fill="none" stroke="#444" d="M44 75L73.23 75"/><g class="vf-stem" id="vf-auto24196" pointer-events="bounding-box"><path stroke-width="1.5" fill="none" d="M58.24 93.5L58.24 35"/></g><g class="vf-notehead" id="vf-auto24200" pointer-events="bounding-box"><path stroke="none" d="M54.104 89.889C54.188 89.889,54.273 89.889,54.413 89.889C54.778 89.889,55.312 89.918,55.508 89.946C57.839 90.283,58.99 91.827,58.99 93.624C58.99 95.534,57.698 97.724,55.115 99.128C53.852 99.802,52.56 100.111,51.38 100.111C49.218 100.111,47.449 99.044,47.084 97.162C47.028 96.881,47 96.629,47 96.376C47 93.343,50.257 90.283,54.104 89.889M57.249 91.35C57.109 91.293,56.968 91.293,56.8 91.293C55.087 91.293,51.577 93.371,49.611 95.674C48.769 96.657,48.32 97.527,48.32 98.061C48.32 98.313,48.404 98.482,48.572 98.566C48.741 98.678,48.966 98.707,49.19 98.707C51.015 98.707,54.806 96.376,56.688 93.961C57.362 93.119,57.698 92.417,57.698 91.967C57.698 91.658,57.53 91.434,57.249 91.35"/><path stroke="none" d="M77.98 90 A2 2 0 0 0 73.98 90 A2 2 0 0 0 77.98 90"/></g><g class="vf-notehead" id="vf-auto24201" pointer-events="bounding-box"><path stroke="none" d="M54.104 69.889C54.188 69.889,54.273 69.889,54.413 69.889C54.778 69.889,55.312 69.918,55.508 69.946C57.839 70.283,58.99 71.827,58.99 73.624C58.99 75.534,57.698 77.724,55.115 79.128C53.852 79.802,52.56 80.111,51.38 80.111C49.218 80.111,47.449 79.044,47.084 77.162C47.028 76.881,47 76.629,47 76.376C47 73.343,50.257 70.283,54.104 69.889M57.249 71.35C57.109 71.293,56.968 71.293,56.8 71.293C55.087 71.293,51.577 73.371,49.611 75.674C48.769 76.657,48.32 77.527,48.32 78.061C48.32 78.313,48.404 78.482,48.572 78.566C48.741 78.678,48.966 78.707,49.19 78.707C51.015 78.707,54.806 76.376,56.688 73.961C57.362 73.119,57.698 72.417,57.698 71.967C57.698 71.658,57.53 71.434,57.249 71.35"/><path stroke="none" d="M77.98 80 A2 2 0 0 0 73.98 80 A2 2 0 0 0 77.98 80"/></g><g class="vf-notehead" id="vf-auto24202" pointer-events="bounding-box"><path stroke="none" d="M65.344 64.889C65.429 64.889,65.513 64.889,65.653 64.889C66.018 64.889,66.552 64.918,66.748 64.946C69.079 65.283,70.23 66.827,70.23 68.624C70.23 70.534,68.939 72.724,66.355 74.128C65.092 74.802,63.8 75.111,62.621 75.111C60.458 75.111,58.689 74.044,58.324 72.162C58.268 71.881,58.24 71.629,58.24 71.376C58.24 68.343,61.497 65.283,65.344 64.889M68.489 66.35C68.349 66.293,68.209 66.293,68.04 66.293C66.327 66.293,62.817 68.371,60.852 70.674C60.009 71.657,59.56 72.527,59.56 73.061C59.56 73.313,59.644 73.482,59.813 73.566C59.981 73.678,60.206 73.707,60.43 73.707C62.256 73.707,66.046 71.376,67.928 68.961C68.602 68.119,68.939 67.417,68.939 66.967C68.939 66.658,68.77 66.434,68.489 66.35"/><path stroke="none" d="M77.98 70 A2 2 0 0 0 73.98 70 A2 2 0 0 0 77.98 70"/></g></g><g class="vf-stavenote" id="vf-auto24203"><path stroke-width="1.4" fill="none" stroke="#444" d="M185.481 75L214.711 75"/><g class="vf-stem" id="vf-auto24204" pointer-events="bounding-box"><path stroke-width="1.5" fill="none" d="M199.721 93.5L199.721 35"/></g><g class="vf-notehead" id="vf-auto24208" pointer-events="bounding-box"><path stroke="none" d="M195.585 89.889C195.669 89.889,195.753 89.889,195.894 89.889C196.259 89.889,196.792 89.918,196.989 89.946C199.319 90.283,200.471 91.827,200.471 93.624C200.471 95.534,199.179 97.724,196.596 99.128C195.332 99.802,194.04 100.111,192.861 100.111C190.699 100.111,188.93 99.044,188.565 97.162C188.509 96.881,188.481 96.629,188.481 96.376C188.481 93.343,191.738 90.283,195.585 89.889"/><path stroke="none" d="M219.461 90 A2 2 0 0 0 215.461 90 A2 2 0 0 0 219.461 90"/><path stroke="none" d="M225.461 90 A2 2 0 0 0 221.461 90 A2 2 0 0 0 225.461 90"/></g><g class="vf-notehead" id="vf-auto24209" pointer-events="bounding-box"><path stroke="none" d="M195.585 69.889C195.669 69.889,195.753 69.889,195.894 69.889C196.259 69.889,196.792 69.918,196.989 69.946C199.319 70.283,200.471 71.827,200.471 73.624C200.471 75.534,199.179 77.724,196.596 79.128C195.332 79.802,194.04 80.111,192.861 80.111C190.699 80.111,188.93 79.044,188.565 77.162C188.509 76.881,188.481 76.629,188.481 76.376C188.481 73.343,191.738 70.283,195.585 69.889"/><path stroke="none" d="M219.461 80 A2 2 0 0 0 215.461 80 A2 2 0 0 0 219.461 80"/><path stroke="none" d="M225.461 80 A2 2 0 0 0 221.461 80 A2 2 0 0 0 225.461 80"/></g><g class="vf-notehead" id="vf-auto24210" pointer-events="bounding-box"><path stroke="none" d="M206.825 64.889C206.909 64.889,206.993 64.889,207.134 64.889C207.499 64.889,208.032 64.918,208.229 64.946C210.56 65.283,211.711 66.827,211.711 68.624C211.711 70.534,210.419 72.724,207.836 74.128C206.572 74.802,205.281 75.111,204.101 75.111C201.939 75.111,200.17 74.044,199.805 72.162C199.749 71.881,199.721 71.629,199.721 71.376C199.721 68.343,202.978 65.283,206.825 64.889"/><path stroke="none" d="M219.461 70 A2 2 0 0 0 215.461 70 A2 2 0 0 0 219.461 70"/><path stroke="none" d="M225.461 70 A2 2 0 0 0 221.461 70 A2 2 0 0 0 225.461 70"/></g></g><g class="vf-stavenote" id="vf-auto24211"><path stroke-width="1.4" fill="none" stroke="#444" d="M300.914 75L330.144 75"/><g class="vf-stem" id="vf-auto24212" pointer-events="bounding-box"><path stroke-width="1.5" fill="none" d="M315.154 93.5L315.154 35"/></g><g class="vf-notehead" id="vf-auto24216" pointer-events="bounding-box"><path stroke="none" d="M311.018 89.889C311.102 89.889,311.187 89.889,311.327 89.889C311.692 89.889,312.226 89.918,312.422 89.946C314.753 90.283,315.904 91.827,315.904 93.624C315.904 95.534,314.612 97.724,312.029 99.128C310.766 99.802,309.474 100.111,308.294 100.111C306.132 100.111,304.363 99.044,303.998 97.162C303.942 96.881,303.914 96.629,303.914 96.376C303.914 93.343,307.171 90.283,311.018 89.889"/><path stroke="none" d="M334.894 90 A2 2 0 0 0 330.894 90 A2 2 0 0 0 334.894 90"/></g><g class="vf-notehead" id="vf-auto24217" pointer-events="bounding-box"><path stroke="none" d="M311.018 69.889C311.102 69.889,311.187 69.889,311.327 69.889C311.692 69.889,312.226 69.918,312.422 69.946C314.753 70.283,315.904 71.827,315.904 73.624C315.904 75.534,314.612 77.724,312.029 79.128C310.766 79.802,309.474 80.111,308.294 80.111C306.132 80.111,304.363 79.044,303.998 77.162C303.942 76.881,303.914 76.629,303.914 76.376C303.914 73.343,307.171 70.283,311.018 69.889"/><path stroke="none" d="M334.894 80 A2 2 0 0 0 330.894 80 A2 2 0 0 0 334.894 80"/></g><g class="vf-notehead" id="vf-auto24218" pointer-events="bounding-box"><path stroke="none" d="M322.258 64.889C322.343 64.889,322.427 64.889,322.567 64.889C322.932 64.889,323.466 64.918,323.662 64.946C325.993 65.283,327.144 66.827,327.144 68.624C327.144 70.534,325.853 72.724,323.269 74.128C322.006 74.802,320.714 75.111,319.535 75.111C317.372 75.111,315.603 74.044,315.238 72.162C315.182 71.881,315.154 71.629,315.154 71.376C315.154 68.343,318.411 65.283,322.258 64.889"/><path stroke="none" d="M334.894 70 A2 2 0 0 0 330.894 70 A2 2 0 0 0 334.894 70"/></g></g><g class="vf-stavenote" id="vf-auto24219"><path stroke-width="1.4" fill="none" stroke="#444" d="M416.347 75L445.578 75"/><g class="vf-stem" id="vf-auto24220" pointer-events="bounding-box"><path stroke-width="1.5" fill="none" d="M430.588 93.5L430.588 38"/></g><g class="vf-notehead" id="vf-auto24226" pointer-events="bounding-box"><path stroke="none" d="M426.452 89.889C426.536 89.889,426.62 89.889,426.761 89.889C427.126 89.889,427.659 89.918,427.856 89.946C430.186 90.283,431.338 91.827,431.338 93.624C431.338 95.534,430.046 97.724,427.463 99.128C426.199 99.802,424.907 100.111,423.728 100.111C421.566 100.111,419.797 99.044,419.432 97.162C419.376 96.881,419.347 96.629,419.347 96.376C419.347 93.343,422.605 90.283,426.452 89.889"/><path stroke="none" d="M447.857 90 A2 2 0 0 0 443.857 90 A2 2 0 0 0 447.857 90"/></g><g class="vf-notehead" id="vf-auto24227" pointer-events="bounding-box"><path stroke="none" d="M426.452 74.889C426.536 74.889,426.62 74.889,426.761 74.889C427.126 74.889,427.659 74.918,427.856 74.946C430.186 75.283,431.338 76.827,431.338 78.624C431.338 80.534,430.046 82.724,427.463 84.128C426.199 84.802,424.907 85.111,423.728 85.111C421.566 85.111,419.797 84.044,419.432 82.162C419.376 81.881,419.347 81.629,419.347 81.376C419.347 78.343,422.605 75.283,426.452 74.889"/><path stroke="none" d="M447.857 80 A2 2 0 0 0 443.857 80 A2 2 0 0 0 447.857 80"/></g><g class="vf-notehead" id="vf-auto24228" pointer-events="bounding-box"><path stroke="none" d="M437.692 69.889C437.776 69.889,437.86 69.889,438.001 69.889C438.366 69.889,438.899 69.918,439.096 69.946C441.427 70.283,442.578 71.827,442.578 73.624C442.578 75.534,441.286 77.724,438.703 79.128C437.439 79.802,436.147 80.111,434.968 80.111C432.806 80.111,431.037 79.044,430.672 77.162C430.616 76.881,430.588 76.629,430.588 76.376C430.588 73.343,433.845 70.283,437.692 69.889"/><path stroke="none" d="M447.857 80 A2 2 0 0 0 443.857 80 A2 2 0 0 0 447.857 80"/></g><g class="vf-notehead" id="vf-auto24229" pointer-events="bounding-box"><path stroke="none" d="M426.452 64.889C426.536 64.889,426.62 64.889,426.761 64.889C427.126 64.889,427.659 64.918,427.856 64.946C430.186 65.283,431.338 66.827,431.338 68.624C431.338 70.534,430.046 72.724,427.463 74.128C426.199 74.802,424.907 75.111,423.728 75.111C421.566 75.111,419.797 74.044,419.432 72.162C419.376 71.881,419.347 71.629,419.347 71.376C419.347 68.343,422.605 65.283,426.452 64.889"/><path stroke="none" d="M447.857 70 A2 2 0 0 0 443.857 70 A2 2 0 0 0 447.857 70"/></g><path stroke="none" d="M429.862 37.409L429.862 33.14L429.946 33.14C430.283 33.14,430.423 33.309,430.536 33.758C431.35 36.819,432.894 39.346,435.337 41.592C438.033 44.092,439.381 47.545,439.381 51.084C439.381 54.172,438.37 57.373,436.292 60.125C435.562 61.108,435.337 61.305,435.057 61.305C434.692 61.305,434.467 61.052,434.467 60.771C434.467 60.603,434.551 60.406,434.692 60.238C436.882 57.682,438.005 54.594,438.005 51.673C438.005 49.09,437.135 46.647,435.394 44.766C434.298 43.614,432.417 42.547,429.89 41.677C429.862 41.677,429.862 40.806,429.862 37.409"/></g><g class="vf-stavenote" id="vf-auto24231"><path stroke-width="1.4" fill="none" stroke="#444" d="M508.04 75L537.27 75"/><g class="vf-stem" id="vf-auto24232" pointer-events="bounding-box"><path stroke-width="1.5" fill="none" d="M522.28 93.5L522.28 38"/></g><g class="vf-notehead" id="vf-auto24237" pointer-events="bounding-box"><path stroke="none" d="M518.144 89.889C518.228 89.889,518.312 89.889,518.453 89.889C518.818 89.889,519.351 89.918,519.548 89.946C521.878 90.283,523.03 91.827,523.03 93.624C523.03 95.534,521.738 97.724,519.155 99.128C517.891 99.802,516.599 100.111,515.42 100.111C513.258 100.111,511.489 99.044,511.124 97.162C511.068 96.881,511.04 96.629,511.04 96.376C511.04 93.343,514.297 90.283,518.144 89.889"/><path stroke="none" d="M539.549 90 A2 2 0 0 0 535.549 90 A2 2 0 0 0 539.549 90"/></g><g class="vf-notehead" id="vf-auto24238" pointer-events="bounding-box"><path stroke="none" d="M518.144 69.889C518.228 69.889,518.312 69.889,518.453 69.889C518.818 69.889,519.351 69.918,519.548 69.946C521.878 70.283,523.03 71.827,523.03 73.624C523.03 75.534,521.738 77.724,519.155 79.128C517.891 79.802,516.599 80.111,515.42 80.111C513.258 80.111,511.489 79.044,511.124 77.162C511.068 76.881,511.04 76.629,511.04 76.376C511.04 73.343,514.297 70.283,518.144 69.889"/><path stroke="none" d="M539.549 80 A2 2 0 0 0 535.549 80 A2 2 0 0 0 539.549 80"/></g><g class="vf-notehead" id="vf-auto24239" pointer-events="bounding-box"><path stroke="none" d="M529.384 64.889C529.468 64.889,529.552 64.889,529.693 64.889C530.058 64.889,530.591 64.918,530.788 64.946C533.119 65.283,534.27 66.827,534.27 68.624C534.27 70.534,532.978 72.724,530.395 74.128C529.131 74.802,527.84 75.111,526.66 75.111C524.498 75.111,522.729 74.044,522.364 72.162C522.308 71.881,522.28 71.629,522.28 71.376C522.28 68.343,525.537 65.283,529.384 64.889"/><path stroke="none" d="M539.549 70 A2 2 0 0 0 535.549 70 A2 2 0 0 0 539.549 70"/></g><path stroke="none" d="M521.554 37.409L521.554 33.14L521.638 33.14C521.975 33.14,522.115 33.309,522.228 33.758C523.042 36.819,524.586 39.346,527.029 41.592C529.725 44.092,531.073 47.545,531.073 51.084C531.073 54.172,530.062 57.373,527.984 60.125C527.254 61.108,527.029 61.305,526.749 61.305C526.384 61.305,526.159 61.052,526.159 60.771C526.159 60.603,526.243 60.406,526.384 60.238C528.574 57.682,529.697 54.594,529.697 51.673C529.697 49.09,528.827 46.647,527.086 44.766C525.99 43.614,524.109 42.547,521.582 41.677C521.554 41.677,521.554 40.806,521.554 37.409"/></g><text stroke="none" font-size="8pt" x="47" y="190">30px</text><path stroke-width="3" fill="none" stroke="red" d="M47 197L47 197"/><path stroke-width="3" fill="none" stroke="#999" d="M47 197L47 197"/><path stroke-width="3" fill="none" stroke="green" d="M47 197L58.99 197"/><path stroke-width="3" fill="none" stroke="#999" d="M58.99 197L58.99 197"/><path stroke-width="3" fill="none" stroke="red" d="M58.99 197L76.98 197"/><path stroke-width="3" fill="none" stroke="#DD0" d="M76.98 197L214.461 197"/><path stroke-width="3" fill="none" stroke="#BBB" d="M47 197L47 197"/><path stroke-width="3" fill="blue" stroke="none" d="M50 197 A3 3 0 0 0 44 197 A3 3 0 0 0 50 197Z"/><text stroke-width="3" fill="red" stroke="none" font-size="8pt" x="47" y="180">+12</text><text stroke="none" font-size="8pt" x="214.461" y="190">62px</text><path stroke-width="3" fill="none" stroke="red" d="M214.461 197L214.461 197"/><path stroke-width="3" fill="none" stroke="#999" d="M214.461 197L214.461 197"/><path stroke-width="3" fill="none" stroke="green" d="M214.461 197L226.451 197"/><path stroke-width="3" fill="none" stroke="#999" d="M226.451 197L226.451 197"/><path stroke-width="3" fill="none" stroke="red" d="M226.451 197L276.422 197"/><path stroke-width="3" fill="none" stroke="#DD0" d="M276.422 197L433.338 197"/><path stroke-width="3" fill="none" stroke="#BBB" d="M188.481 197L214.461 197"/><path stroke-width="3" fill="blue" stroke="none" d="M217.461 197 A3 3 0 0 0 211.461 197 A3 3 0 0 0 217.461 197Z"/><text stroke-width="3" fill="red" stroke="none" font-size="8pt" x="214.461" y="180">+75</text><text stroke="none" font-size="8pt" x="433.338" y="190">68px</text><path stroke-width="3" fill="none" stroke="red" d="M433.338 197L433.338 197"/><path stroke-width="3" fill="none" stroke="#999" d="M433.338 197L445.328 197"/><path stroke-width="3" fill="none" stroke="green" d="M445.328 197L457.318 197"/><path stroke-width="3" fill="none" stroke="#999" d="M457.318 197L457.318 197"/><path stroke-width="3" fill="none" stroke="red" d="M457.318 197L501.298 197"/><path stroke-width="3" fill="none" stroke="#DD0" d="M501.298 197L574.818 197"/><path stroke-width="3" fill="none" stroke="#BBB" d="M407.357 197L433.338 197"/><path stroke-width="3" fill="blue" stroke="none" d="M448.328 197 A3 3 0 0 0 442.328 197 A3 3 0 0 0 448.328 197Z"/><text stroke-width="3" fill="red" stroke="none" font-size="8pt" x="445.328" y="180">-14</text><text stroke="none" font-size="8pt" x="574.818" y="190">42px</text><path stroke-width="3" fill="none" stroke="red" d="M574.818 197L574.818 197"/><path stroke-width="3" fill="none" stroke="#999" d="M574.818 197L586.808 197"/><path stroke-width="3" fill="none" stroke="green" d="M586.808 197L598.798 197"/><path stroke-width="3" fill="none" stroke="#999" d="M598.798 197L598.798 197"/><path stroke-width="3" fill="none" stroke="red" d="M598.798 197L616.798 197"/><path stroke-width="3" fill="none" stroke="#DD0" d="M616.798 197L661.198 197"/><path stroke-width="3" fill="none" stroke="#BBB" d="M574.818 197L574.818 197"/><path stroke-width="3" fill="blue" stroke="none" d="M589.808 197 A3 3 0 0 0 583.808 197 A3 3 0 0 0 589.808 197Z"/><text stroke-width="3" fill="red" stroke="none" font-size="8pt" x="586.808" y="180">-75</text><text stroke="none" font-size="8pt" x="661.198" y="190">42px</text><path stroke-width="3" fill="none" stroke="red" d="M661.198 197L661.198 197"/><path stroke-width="3" fill="none" stroke="#999" d="M661.198 197L673.188 197"/><path stroke-width="3" fill="none" stroke="green" d="M673.188 197L685.178 197"/><path stroke-width="3" fill="none" stroke="#999" d="M685.178 197L685.178 197"/><path stroke-width="3" fill="none" stroke="red" d="M685.178 197L703.178 197"/><path stroke-width="3" fill="none" stroke="#DD0" d="M703.178 197L747 197"/><path stroke-width="3" fill="none" stroke="#BBB" d="M661.198 197L661.198 197"/><path stroke-width="3" fill="blue" stroke="none" d="M676.188 197 A3 3 0 0 0 670.188 197 A3 3 0 0 0 676.188 197Z"/><text stroke-width="3" fill="red" stroke="none" font-size="8pt" x="673.188" y="180">-87</text><text stroke="none" font-size="8pt" x="47" y="20">42px</text><path stroke-width="3" fill="none" stroke="red" d="M47 27L47 27"/><path stroke-width="3" fill="none" stroke="#999" d="M47 27L47 27"/><path stroke-width="3" fill="none" stroke="green" d="M47 27L58.99 27"/><path stroke-width="3" fill="none" stroke="#999" d="M58.99 27L70.98 27"/><path stroke-width="3" fill="none" stroke="red" d="M70.98 27L88.97 27"/><path stroke-width="3" fill="none" stroke="#DD0" d="M88.97 27L188.481 27"/><path stroke-width="3" fill="none" stroke="#BBB" d="M47 27L47 27"/><path stroke-width="3" fill="blue" stroke="none" d="M50 27 A3 3 0 0 0 44 27 A3 3 0 0 0 50 27Z"/><text stroke-width="3" fill="red" stroke="none" font-size="8pt" x="47" y="10">-14</text><text stroke="none" font-size="8pt" x="188.481" y="20">74px</text><path stroke-width="3" fill="none" stroke="red" d="M188.481 27L188.481 27"/><path stroke-width="3" fill="none" stroke="#999" d="M188.481 27L188.481 27"/><path stroke-width="3" fill="none" stroke="green" d="M188.481 27L200.471 27"/><path stroke-width="3" fill="none" stroke="#999" d="M200.471 27L212.461 27"/><path stroke-width="3" fill="none" stroke="red" d="M212.461 27L262.431 27"/><path stroke-width="3" fill="none" stroke="#DD0" d="M262.431 27L303.914 27"/><path stroke-width="3" fill="none" stroke="#BBB" d="M188.481 27L188.481 27"/><path stroke-width="3" fill="blue" stroke="none" d="M191.481 27 A3 3 0 0 0 185.481 27 A3 3 0 0 0 191.481 27Z"/><text stroke-width="3" fill="red" stroke="none" font-size="8pt" x="188.481" y="10">+0</text><text stroke="none" font-size="8pt" x="303.914" y="20">42px</text><path stroke-width="3" fill="none" stroke="red" d="M303.914 27L303.914 27"/><path stroke-width="3" fill="none" stroke="#999" d="M303.914 27L303.914 27"/><path stroke-width="3" fill="none" stroke="green" d="M303.914 27L315.904 27"/><path stroke-width="3" fill="none" stroke="#999" d="M315.904 27L327.894 27"/><path stroke-width="3" fill="none" stroke="red" d="M327.894 27L345.884 27"/><path stroke-width="3" fill="none" stroke="#DD0" d="M345.884 27L419.347 27"/><path stroke-width="3" fill="none" stroke="#BBB" d="M303.914 27L303.914 27"/><path stroke-width="3" fill="blue" stroke="none" d="M306.914 27 A3 3 0 0 0 300.914 27 A3 3 0 0 0 306.914 27Z"/><text stroke-width="3" fill="red" stroke="none" font-size="8pt" x="303.914" y="10">+0</text><text stroke="none" font-size="8pt" x="419.347" y="20">68px</text><path stroke-width="3" fill="none" stroke="red" d="M419.347 27L419.347 27"/><path stroke-width="3" fill="none" stroke="#999" d="M419.347 27L419.347 27"/><path stroke-width="3" fill="none" stroke="green" d="M419.347 27L443.328 27"/><path stroke-width="3" fill="none" stroke="#999" d="M443.328 27L443.328 27"/><path stroke-width="3" fill="none" stroke="red" d="M443.328 27L487.308 27"/><path stroke-width="3" fill="none" stroke="#DD0" d="M487.308 27L511.04 27"/><path stroke-width="3" fill="none" stroke="#BBB" d="M419.347 27L419.347 27"/><path stroke-width="3" fill="blue" stroke="none" d="M422.347 27 A3 3 0 0 0 416.347 27 A3 3 0 0 0 422.347 27Z"/><text stroke-width="3" fill="red" stroke="none" font-size="8pt" x="419.347" y="10">-69</text><text stroke="none" font-size="8pt" x="511.04" y="20">30px</text><path stroke-width="3" fill="none" stroke="red" d="M511.04 27L511.04 27"/><path stroke-width="3" fill="none" stroke="#999" d="M511.04 27L511.04 27"/><path stroke-width="3" fill="none" stroke="green" d="M511.04 27L535.02 27"/><path stroke-width="3" fill="none" stroke="#999" d="M535.02 27L535.02 27"/><path stroke-width="3" fill="none" stroke="red" d="M535.02 27L541.02 27"/><path stroke-width="3" fill="none" stroke="#DD0" d="M541.02 27L747 27"/><path stroke-width="3" fill="none" stroke="#BBB" d="M511.04 27L511.04 27"/><path stroke-width="3" fill="blue" stroke="none" d="M514.04 27 A3 3 0 0 0 508.04 27 A3 3 0 0 0 514.04 27Z"/><text stroke-width="3" fill="red" stroke="none" font-size="8pt" x="511.04" y="10">+75</text><path stroke-width="10" fill="none" stroke="green" d="M620 216L630 216"/><text stroke-width="10" stroke="none" font-size="8pt" x="635" y="220">Note + Flag</text><path stroke-width="10" fill="none" stroke="red" d="M620 228L630 228"/><text stroke-width="10" stroke="none" font-size="8pt" x="635" y="232">Modifiers</text><path stroke-width="10" fill="none" stroke="#999" d="M620 240L630 240"/><text stroke-width="10" stroke="none" font-size="8pt" x="635" y="244">Displaced Head</text><path stroke-width="10" fill="none" stroke="#DDD" d="M620 252L630 252"/><text stroke-width="10" stroke="none" font-size="8pt" x="635" y="256">Formatter Shift</text></svg>