<svg xmlns="http://www.w3.org/2000/svg" stroke-width="0.3" stroke-dasharray="none" fill="black" stroke="black" font-family="Arial, sans-serif" font-size="10pt" font-weight="normal" font-style="normal" width="600" height="140" viewBox="0 0 600 140" style="width: 600px; height: 140px; border: none;"><g class="vf-stave" id="vf-auto34629" stroke-width="1" fill="#999999" stroke="#999999"><path fill="none" d="M10 50L600 50"/><path fill="none" d="M10 60L600 60"/><path fill="none" d="M10 70L600 70"/><path fill="none" d="M10 80L600 80"/><path fill="none" d="M10 90L600 90"/></g><g class="vf-stavebarline" id="vf-auto34630"><rect x="10" y="49.5" width="1" height="41" stroke="none"/></g><g class="vf-stavebarline" id="vf-auto34631"><rect x="600" y="49.5" width="1" height="41" stroke="none"/></g><g class="vf-timesignature" id="vf-auto34632"><path stroke="none" d="M19.982 52.086C20.04 52.058,21.682 52.058,23.237 52.058C24.562 52.058,25.858 52.058,25.886 52.086C26.059 52.144,26.174 52.317,26.174 52.49C26.174 52.691,26.146 52.72,25.598 53.325C25.109 53.843,23.582 55.571,22.027 57.328C21.566 57.846,21.134 58.336,21.019 58.451C20.904 58.566,20.213 59.344,19.464 60.179C18.744 61.014,17.822 62.051,17.448 62.454C17.074 62.886,16.757 63.232,16.757 63.261C16.757 63.261,16.757 63.261,16.757 63.261C16.757 63.29,16.987 63.29,19.349 63.29L21.941 63.29L21.97 61.418C21.97 59.603,21.97 59.574,21.998 59.517C22.027 59.488,22.603 58.826,23.294 58.048C23.986 57.27,24.792 56.349,25.109 56.032C25.886 55.139,25.858 55.168,26.088 55.168C26.29 55.168,26.434 55.254,26.491 55.398C26.52 55.485,26.52 55.629,26.52 59.373L26.52 63.29L27.211 63.29C27.874 63.29,27.931 63.29,28.018 63.318C28.248 63.405,28.392 63.635,28.392 63.866C28.392 64.038,28.334 64.182,28.219 64.298C28.046 64.47,28.018 64.47,27.24 64.47L26.549 64.47L26.549 64.643C26.549 64.73,26.549 64.989,26.549 65.219C26.578 66.4,26.952 66.976,28.104 67.552C28.334 67.667,28.478 67.84,28.478 68.013C28.478 68.128,28.421 68.243,28.334 68.33C28.219 68.445,28.507 68.445,25.771 68.445C25.339 68.445,24.821 68.445,24.245 68.445C23.669 68.445,23.15 68.445,22.718 68.445C19.982 68.445,20.27 68.445,20.155 68.33C20.069 68.243,20.011 68.128,20.011 68.013C20.011 67.84,20.155 67.667,20.386 67.552C21.538 66.976,21.912 66.4,21.941 65.219C21.941 64.989,21.941 64.73,21.941 64.643L21.941 64.47L18.658 64.47C18.168 64.47,17.765 64.47,17.419 64.47C15.058 64.47,15.259 64.47,15.144 64.355C15.058 64.269,15 64.154,15 64.038C15 63.923,15.086 63.75,15.23 63.578C17.966 60.496,19.608 56.637,19.723 52.893C19.723 52.288,19.752 52.202,19.982 52.086M21.739 70L21.768 70L21.682 70M21.739 51.05L21.768 51.05L21.682 51.05"/><path stroke="none" d="M19.982 72.086C20.04 72.058,21.682 72.058,23.237 72.058C24.562 72.058,25.858 72.058,25.886 72.086C26.059 72.144,26.174 72.317,26.174 72.49C26.174 72.691,26.146 72.72,25.598 73.325C25.109 73.843,23.582 75.571,22.027 77.328C21.566 77.846,21.134 78.336,21.019 78.451C20.904 78.566,20.213 79.344,19.464 80.179C18.744 81.014,17.822 82.051,17.448 82.454C17.074 82.886,16.757 83.232,16.757 83.261C16.757 83.261,16.757 83.261,16.757 83.261C16.757 83.29,16.987 83.29,19.349 83.29L21.941 83.29L21.97 81.418C21.97 79.603,21.97 79.574,21.998 79.517C22.027 79.488,22.603 78.826,23.294 78.048C23.986 77.27,24.792 76.349,25.109 76.032C25.886 75.139,25.858 75.168,26.088 75.168C26.29 75.168,26.434 75.254,26.491 75.398C26.52 75.485,26.52 75.629,26.52 79.373L26.52 83.29L27.211 83.29C27.874 83.29,27.931 83.29,28.018 83.318C28.248 83.405,28.392 83.635,28.392 83.866C28.392 84.038,28.334 84.182,28.219 84.298C28.046 84.47,28.018 84.47,27.24 84.47L26.549 84.47L26.549 84.643C26.549 84.73,26.549 84.989,26.549 85.219C26.578 86.4,26.952 86.976,28.104 87.552C28.334 87.667,28.478 87.84,28.478 88.013C28.478 88.128,28.421 88.243,28.334 88.33C28.219 88.445,28.507 88.445,25.771 88.445C25.339 88.445,24.821 88.445,24.245 88.445C23.669 88.445,23.15 88.445,22.718 88.445C19.982 88.445,20.27 88.445,20.155 88.33C20.069 88.243,20.011 88.128,20.011 88.013C20.011 87.84,20.155 87.667,20.386 87.552C21.538 86.976,21.912 86.4,21.941 85.219C21.941 84.989,21.941 84.73,21.941 84.643L21.941 84.47L18.658 84.47C18.168 84.47,17.765 84.47,17.419 84.47C15.058 84.47,15.259 84.47,15.144 84.355C15.058 84.269,15 84.154,15 84.038C15 83.923,15.086 83.75,15.23 83.578C17.966 80.496,19.608 76.637,19.723 72.893C19.723 72.288,19.752 72.202,19.982 72.086M21.739 90L21.768 90L21.682 90M21.739 71.05L21.768 71.05L21.682 71.05"/></g><g class="vf-stavenote" id="vf-auto34636"><g class="vf-notehead" id="vf-auto34640" pointer-events="bounding-box"><path stroke="none" d="M47.583 64.889C47.667 64.889,47.751 64.889,47.892 64.889C48.257 64.889,48.79 64.918,48.987 64.946C51.317 65.283,52.469 66.827,52.469 68.624C52.469 70.534,51.177 72.724,48.594 74.128C47.33 74.802,46.038 75.111,44.859 75.111C42.697 75.111,40.928 74.044,40.563 72.162C40.506 71.881,40.478 71.629,40.478 71.376C40.478 68.343,43.736 65.283,47.583 64.889"/><path stroke="none" d="M59.469 65 A2 2 0 0 0 55.469 65 A2 2 0 0 0 59.469 65"/></g></g><g class="vf-stavenote" id="vf-auto34642"><g class="vf-notehead" id="vf-auto34646" pointer-events="bounding-box"><path stroke="none" d="M84.638 69.889C84.722 69.889,84.806 69.889,84.947 69.889C85.312 69.889,85.845 69.918,86.042 69.946C88.373 70.283,89.524 71.827,89.524 73.624C89.524 75.534,88.232 77.724,85.649 79.128C84.385 79.802,83.093 80.111,81.914 80.111C79.752 80.111,77.983 79.044,77.618 77.162C77.562 76.881,77.534 76.629,77.534 76.376C77.534 73.343,80.791 70.283,84.638 69.889"/></g></g><g class="vf-stavenote" id="vf-auto34648"><g class="vf-notehead" id="vf-auto34652" pointer-events="bounding-box"><path stroke="none" d="M115.223 74.889C115.308 74.889,115.392 74.889,115.532 74.889C115.897 74.889,116.431 74.918,116.627 74.946C118.958 75.283,120.109 76.827,120.109 78.624C120.109 80.534,118.818 82.724,116.234 84.128C114.971 84.802,113.679 85.111,112.5 85.111C110.338 85.111,108.568 84.044,108.203 82.162C108.147 81.881,108.119 81.629,108.119 81.376C108.119 78.343,111.376 75.283,115.223 74.889"/></g></g><g class="vf-stavenote" id="vf-auto34654"><g class="vf-stem" id="vf-auto34655" pointer-events="bounding-box"><path stroke-width="1.5" fill="none" d="M153.025 73.5L153.025 43"/></g><g class="vf-notehead" id="vf-auto34658" pointer-events="bounding-box"><path stroke="none" d="M148.889 69.889C148.973 69.889,149.057 69.889,149.198 69.889C149.563 69.889,150.096 69.918,150.293 69.946C152.623 70.283,153.775 71.827,153.775 73.624C153.775 75.534,152.483 77.724,149.9 79.128C148.636 79.802,147.344 80.111,146.165 80.111C144.003 80.111,142.234 79.044,141.869 77.162C141.813 76.881,141.785 76.629,141.785 76.376C141.785 73.343,145.042 70.283,148.889 69.889"/></g><path stroke="none" d="M152.299 41.987L152.299 38.14L152.383 38.14C152.636 38.14,152.832 38.281,152.945 38.59C153.759 40.527,155.668 42.97,158.448 45.61C160.639 47.744,161.818 50.608,161.818 53.612C161.818 54.904,161.621 56.224,161.172 57.516L161.06 57.824L161.172 58.133C161.621 59.341,161.818 60.604,161.818 61.896C161.818 64.479,160.948 67.119,159.319 69.281C158.701 70.067,158.561 70.18,158.28 70.18C157.915 70.18,157.69 69.927,157.69 69.618C157.69 69.478,157.746 69.309,157.859 69.197C159.6 67.203,160.498 64.788,160.498 62.345C160.498 61.924,160.47 61.475,160.414 61.054C160.358 60.717,160.33 60.408,160.274 60.267C160.274 60.239,160.217 60.071,160.189 59.902C159.684 57.993,158.505 56.28,156.96 55.185C156.09 54.595,154.293 54.146,152.692 54.146C152.524 54.146,152.383 54.146,152.355 54.146L152.299 54.118L152.299 50.271L152.299 46.424L152.383 46.424C152.636 46.424,152.832 46.564,152.945 46.873C153.759 48.811,155.697 51.31,158.42 53.893C159.15 54.567,159.796 55.382,160.217 56.084C160.246 56.112,160.246 56.14,160.274 56.14C160.274 56.14,160.302 56.084,160.33 55.943C160.442 55.325,160.498 54.708,160.498 54.062C160.498 53.472,160.442 52.882,160.33 52.293C160.33 52.18,160.302 52.04,160.274 52.012C160.274 51.956,160.217 51.787,160.189 51.619C159.684 49.709,158.505 47.996,156.96 46.901C156.09 46.312,154.293 45.862,152.692 45.862C152.524 45.862,152.383 45.862,152.355 45.862L152.299 45.834"/></g><g class="vf-stavenote" id="vf-auto34660"><g class="vf-notehead" id="vf-auto34754" pointer-events="bounding-box"><path stroke="none" d="M177.345 66.688C177.457 66.66,177.542 66.66,177.654 66.66C178.244 66.66,178.946 66.913,179.423 67.278C180.153 67.84,180.518 68.682,180.518 69.524C180.518 70.198,180.294 70.872,179.816 71.378L179.704 71.518L179.844 71.462C181.389 71.041,182.736 69.777,183.382 68.148C183.41 68.036,183.495 67.896,183.495 67.868C183.635 67.727,183.804 67.643,183.972 67.643C184.281 67.643,184.562 67.868,184.562 68.205C184.562 68.345,177.654 91.399,177.57 91.567C177.486 91.764,177.289 91.848,177.064 91.848C176.84 91.848,176.615 91.736,176.531 91.483C176.503 91.455,176.475 91.427,176.475 91.371C176.475 91.146,176.727 90.388,178.047 86.007C178.89 83.143,179.592 80.841,179.592 80.813C179.592 80.813,179.592 80.813,179.592 80.813C179.563 80.813,179.479 80.897,179.339 80.981C178.328 81.767,177.064 82.16,175.885 82.16C174.818 82.16,173.779 81.823,172.965 81.178C172.291 80.616,171.954 79.802,171.954 78.959C171.954 78.229,172.206 77.499,172.768 76.938C173.33 76.32,174.088 76.039,174.846 76.039C175.885 76.039,176.924 76.601,177.429 77.64C177.626 78.033,177.71 78.454,177.71 78.875C177.71 79.577,177.457 80.251,177.008 80.756L176.896 80.869L177.036 80.841C178.581 80.419,179.928 79.128,180.546 77.555C180.602 77.387,182.4 71.49,182.4 71.462C182.4 71.462,182.4 71.462,182.4 71.462C182.371 71.462,182.287 71.518,182.147 71.63C181.136 72.389,179.9 72.782,178.693 72.782C177.626 72.782,176.587 72.473,175.773 71.799C175.099 71.265,174.762 70.451,174.762 69.609C174.762 68.879,175.014 68.148,175.576 67.559C176.025 67.081,176.587 66.801,177.345 66.688"/></g></g><g class="vf-stavenote" id="vf-auto34664"><g class="vf-notehead" id="vf-auto34668" pointer-events="bounding-box"><path stroke="none" d="M209.227 74.889C209.311 74.889,209.396 74.889,209.536 74.889C209.901 74.889,210.435 74.918,210.631 74.946C212.962 75.283,214.113 76.827,214.113 78.624C214.113 80.534,212.821 82.724,210.238 84.128C208.975 84.802,207.683 85.111,206.503 85.111C204.341 85.111,202.572 84.044,202.207 82.162C202.151 81.881,202.123 81.629,202.123 81.376C202.123 78.343,205.38 75.283,209.227 74.889"/></g></g><g class="vf-stavenote" id="vf-auto34670"><g class="vf-notehead" id="vf-auto34674" pointer-events="bounding-box"><path stroke="none" d="M238.181 79.889C238.265 79.889,238.35 79.889,238.49 79.889C238.855 79.889,239.389 79.918,239.585 79.946C241.916 80.283,243.067 81.827,243.067 83.624C243.067 85.534,241.775 87.724,239.192 89.128C237.928 89.802,236.637 90.111,235.457 90.111C233.295 90.111,231.526 89.044,231.161 87.162C231.105 86.881,231.077 86.629,231.077 86.376C231.077 83.343,234.334 80.283,238.181 79.889"/></g></g><g class="vf-stavenote" id="vf-auto34676"><g class="vf-notehead" id="vf-auto34680" pointer-events="bounding-box"><path stroke="none" d="M267.135 74.889C267.219 74.889,267.303 74.889,267.444 74.889C267.809 74.889,268.342 74.918,268.539 74.946C270.87 75.283,272.021 76.827,272.021 78.624C272.021 80.534,270.729 82.724,268.146 84.128C266.882 84.802,265.591 85.111,264.411 85.111C262.249 85.111,260.48 84.044,260.115 82.162C260.059 81.881,260.031 81.629,260.031 81.376C260.031 78.343,263.288 75.283,267.135 74.889"/></g></g><g class="vf-stavenote" id="vf-auto34682"><g class="vf-notehead" id="vf-auto34686" pointer-events="bounding-box"><path stroke="none" d="M296.089 79.889C296.173 79.889,296.257 79.889,296.398 79.889C296.763 79.889,297.296 79.918,297.493 79.946C299.824 80.283,300.975 81.827,300.975 83.624C300.975 85.534,299.683 87.724,297.1 89.128C295.836 89.802,294.545 90.111,293.365 90.111C291.203 90.111,289.434 89.044,289.069 87.162C289.013 86.881,288.985 86.629,288.985 86.376C288.985 83.343,292.242 80.283,296.089 79.889"/></g></g><g class="vf-stavenote" id="vf-auto34688"><g class="vf-stem" id="vf-auto34689" pointer-events="bounding-box"><path stroke-width="1.5" fill="none" d="M329.179 73.5L329.179 43"/></g><g class="vf-notehead" id="vf-auto34692" pointer-events="bounding-box"><path stroke="none" d="M325.043 69.889C325.127 69.889,325.211 69.889,325.352 69.889C325.717 69.889,326.25 69.918,326.447 69.946C328.777 70.283,329.929 71.827,329.929 73.624C329.929 75.534,328.637 77.724,326.054 79.128C324.79 79.802,323.498 80.111,322.319 80.111C320.157 80.111,318.388 79.044,318.023 77.162C317.967 76.881,317.939 76.629,317.939 76.376C317.939 73.343,321.196 70.283,325.043 69.889"/></g><path stroke="none" d="M328.453 41.987L328.453 38.14L328.537 38.14C328.79 38.14,328.986 38.281,329.099 38.59C329.913 40.527,331.822 42.97,334.602 45.61C336.793 47.744,337.972 50.608,337.972 53.612C337.972 54.904,337.775 56.224,337.326 57.516L337.214 57.824L337.326 58.133C337.775 59.341,337.972 60.604,337.972 61.896C337.972 64.479,337.102 67.119,335.473 69.281C334.855 70.067,334.715 70.18,334.434 70.18C334.069 70.18,333.844 69.927,333.844 69.618C333.844 69.478,333.9 69.309,334.013 69.197C335.754 67.203,336.652 64.788,336.652 62.345C336.652 61.924,336.624 61.475,336.568 61.054C336.512 60.717,336.484 60.408,336.428 60.267C336.428 60.239,336.371 60.071,336.343 59.902C335.838 57.993,334.659 56.28,333.114 55.185C332.244 54.595,330.447 54.146,328.846 54.146C328.678 54.146,328.537 54.146,328.509 54.146L328.453 54.118L328.453 50.271L328.453 46.424L328.537 46.424C328.79 46.424,328.986 46.564,329.099 46.873C329.913 48.811,331.851 51.31,334.574 53.893C335.304 54.567,335.95 55.382,336.371 56.084C336.4 56.112,336.4 56.14,336.428 56.14C336.428 56.14,336.456 56.084,336.484 55.943C336.596 55.325,336.652 54.708,336.652 54.062C336.652 53.472,336.596 52.882,336.484 52.293C336.484 52.18,336.456 52.04,336.428 52.012C336.428 51.956,336.371 51.787,336.343 51.619C335.838 49.709,334.659 47.996,333.114 46.901C332.244 46.312,330.447 45.862,328.846 45.862C328.678 45.862,328.537 45.862,328.509 45.862L328.453 45.834"/></g><g class="vf-stavenote" id="vf-auto34694"><g class="vf-stem" id="vf-auto34695" pointer-events="bounding-box"><path stroke-width="1.5" fill="none" d="M359.348 83.5L359.348 53"/></g><g class="vf-notehead" id="vf-auto34698" pointer-events="bounding-box"><path stroke="none" d="M355.212 79.889C355.296 79.889,355.38 79.889,355.521 79.889C355.886 79.889,356.419 79.918,356.616 79.946C358.947 80.283,360.098 81.827,360.098 83.624C360.098 85.534,358.806 87.724,356.223 89.128C354.959 89.802,353.668 90.111,352.488 90.111C350.326 90.111,348.557 89.044,348.192 87.162C348.136 86.881,348.108 86.629,348.108 86.376C348.108 83.343,351.365 80.283,355.212 79.889"/></g><path stroke="none" d="M358.622 52.409L358.622 48.14L358.706 48.14C359.043 48.14,359.184 48.309,359.296 48.758C360.11 51.819,361.655 54.346,364.098 56.592C366.793 59.092,368.141 62.545,368.141 66.084C368.141 69.172,367.13 72.373,365.052 75.125C364.322 76.108,364.098 76.305,363.817 76.305C363.452 76.305,363.227 76.052,363.227 75.771C363.227 75.603,363.311 75.406,363.452 75.238C365.642 72.682,366.765 69.594,366.765 66.673C366.765 64.09,365.895 61.647,364.154 59.766C363.059 58.614,361.177 57.547,358.65 56.677C358.622 56.677,358.622 55.806,358.622 52.409"/></g><g class="vf-stavenote" id="vf-auto34700"><g class="vf-notehead" id="vf-auto34704" pointer-events="bounding-box"><path stroke="none" d="M387.967 64.889C388.051 64.889,388.136 64.889,388.276 64.889C388.641 64.889,389.175 64.918,389.371 64.946C391.702 65.283,392.853 66.827,392.853 68.624C392.853 70.534,391.561 72.724,388.978 74.128C387.714 74.802,386.423 75.111,385.243 75.111C383.081 75.111,381.312 74.044,380.947 72.162C380.891 71.881,380.863 71.629,380.863 71.376C380.863 68.343,384.12 65.283,387.967 64.889"/></g></g><g class="vf-stavenote" id="vf-auto34706"><g class="vf-notehead" id="vf-auto34710" pointer-events="bounding-box"><path stroke="none" d="M422.949 69.889C423.034 69.889,423.118 69.889,423.258 69.889C423.623 69.889,424.157 69.918,424.353 69.946C426.684 70.283,427.835 71.827,427.835 73.624C427.835 75.534,426.544 77.724,423.96 79.128C422.697 79.802,421.405 80.111,420.226 80.111C418.064 80.111,416.295 79.044,415.929 77.162C415.873 76.881,415.845 76.629,415.845 76.376C415.845 73.343,419.103 70.283,422.949 69.889"/></g></g><g class="vf-stavenote" id="vf-auto34712"><g class="vf-notehead" id="vf-auto34716" pointer-events="bounding-box"><path stroke="none" d="M457.932 74.889C458.016 74.889,458.1 74.889,458.241 74.889C458.606 74.889,459.139 74.918,459.336 74.946C461.667 75.283,462.818 76.827,462.818 78.624C462.818 80.534,461.526 82.724,458.943 84.128C457.679 84.802,456.387 85.111,455.208 85.111C453.046 85.111,451.277 84.044,450.912 82.162C450.856 81.881,450.828 81.629,450.828 81.376C450.828 78.343,454.085 75.283,457.932 74.889"/></g></g><g class="vf-stavenote" id="vf-auto34718"><g class="vf-notehead" id="vf-auto34722" pointer-events="bounding-box"><path stroke="none" d="M542.556 64.889C542.64 64.889,542.724 64.889,542.865 64.889C543.23 64.889,543.763 64.918,543.96 64.946C546.291 65.283,547.442 66.827,547.442 68.624C547.442 70.534,546.15 72.724,543.567 74.128C542.303 74.802,541.012 75.111,539.832 75.111C537.67 75.111,535.901 74.044,535.536 72.162C535.48 71.881,535.452 71.629,535.452 71.376C535.452 68.343,538.709 65.283,542.556 64.889"/></g></g><g class="vf-stavenote" id="vf-auto34724"><g class="vf-notehead" id="vf-auto34728" pointer-events="bounding-box"><path stroke="none" d="M577.538 69.889C577.623 69.889,577.707 69.889,577.847 69.889C578.212 69.889,578.746 69.918,578.942 69.946C581.273 70.283,582.424 71.827,582.424 73.624C582.424 75.534,581.133 77.724,578.549 79.128C577.286 79.802,575.994 80.111,574.815 80.111C572.653 80.111,570.883 79.044,570.518 77.162C570.462 76.881,570.434 76.629,570.434 76.376C570.434 73.343,573.691 70.283,577.538 69.889"/></g></g><g class="vf-stavenote" id="vf-auto34731"><path stroke-width="1.4" fill="none" stroke="#444" d="M37.478 100L55.469 100"/><g class="vf-stem" id="vf-auto34732" pointer-events="bounding-box"><path stroke-width="1.5" fill="none" d="M41.228 101.5L41.228 135"/></g><g class="vf-notehead" id="vf-auto34734" pointer-events="bounding-box"><path stroke="none" d="M47.583 94.889C47.667 94.889,47.751 94.889,47.892 94.889C48.257 94.889,48.79 94.918,48.987 94.946C51.317 95.283,52.469 96.827,52.469 98.624C52.469 100.534,51.177 102.724,48.594 104.128C47.33 104.802,46.038 105.111,44.859 105.111C42.697 105.111,40.928 104.044,40.563 102.162C40.506 101.881,40.478 101.629,40.478 101.376C40.478 98.343,43.736 95.283,47.583 94.889"/></g></g><g class="vf-stavenote" id="vf-auto34735"><path stroke-width="1.4" fill="none" stroke="#444" d="M138.785 100L156.775 100"/><g class="vf-stem" id="vf-auto34736" pointer-events="bounding-box"><path stroke-width="1.5" fill="none" d="M142.535 101.5L142.535 135"/></g><g class="vf-notehead" id="vf-auto34738" pointer-events="bounding-box"><path stroke="none" d="M148.889 94.889C148.973 94.889,149.057 94.889,149.198 94.889C149.563 94.889,150.096 94.918,150.293 94.946C152.623 95.283,153.775 96.827,153.775 98.624C153.775 100.534,152.483 102.724,149.9 104.128C148.636 104.802,147.344 105.111,146.165 105.111C144.003 105.111,142.234 104.044,141.869 102.162C141.813 101.881,141.785 101.629,141.785 101.376C141.785 98.343,145.042 95.283,148.889 94.889"/></g></g><g class="vf-stavenote" id="vf-auto34739"><path stroke-width="1.4" fill="none" stroke="#444" d="M377.863 100L395.853 100"/><g class="vf-stem" id="vf-auto34740" pointer-events="bounding-box"><path stroke-width="1.5" fill="none" d="M381.613 101.5L381.613 135"/></g><g class="vf-notehead" id="vf-auto34742" pointer-events="bounding-box"><path stroke="none" d="M387.967 94.889C388.051 94.889,388.136 94.889,388.276 94.889C388.641 94.889,389.175 94.918,389.371 94.946C391.702 95.283,392.853 96.827,392.853 98.624C392.853 100.534,391.561 102.724,388.978 104.128C387.714 104.802,386.423 105.111,385.243 105.111C383.081 105.111,381.312 104.044,380.947 102.162C380.891 101.881,380.863 101.629,380.863 101.376C380.863 98.343,384.12 95.283,387.967 94.889"/></g></g><g class="vf-stavenote" id="vf-auto34743"><path stroke-width="1.4" fill="none" stroke="#444" d="M506.687 100L524.677 100"/><g class="vf-stem" id="vf-auto34744" pointer-events="bounding-box"><path stroke-width="1.5" fill="none" d="M510.437 101.5L510.437 135"/></g><g class="vf-notehead" id="vf-auto34746" pointer-events="bounding-box"><path stroke="none" d="M516.791 94.889C516.875 94.889,516.96 94.889,517.1 94.889C517.465 94.889,517.999 94.918,518.195 94.946C520.526 95.283,521.677 96.827,521.677 98.624C521.677 100.534,520.385 102.724,517.802 104.128C516.538 104.802,515.247 105.111,514.067 105.111C511.905 105.111,510.136 104.044,509.771 102.162C509.715 101.881,509.687 101.629,509.687 101.376C509.687 98.343,512.944 95.283,516.791 94.889"/></g></g><g class="vf-stem" id="vf-auto34637" pointer-events="bounding-box"><path stroke-width="1.5" fill="none" d="M51.719 68.5L51.719 35.75"/></g><g class="vf-stem" id="vf-auto34643" pointer-events="bounding-box"><path stroke-width="1.5" fill="none" d="M88.774 73.5L88.774 40.382"/></g><g class="vf-stem" id="vf-auto34649" pointer-events="bounding-box"><path stroke-width="1.5" fill="none" d="M119.359 78.5L119.359 44.205"/></g><g class="vf-beam" id="vf-auto34747"><path stroke="none" d="M50.969 34.906L50.969 39.906L119.609 48.361L119.609 43.361Z"/><path stroke="none" d="M88.024 47.038L88.024 52.038L79.024 50.788L79.024 45.788Z"/></g><g class="vf-stem" id="vf-auto34665" pointer-events="bounding-box"><path stroke-width="1.5" fill="none" d="M213.363 78.5L213.363 36.802"/></g><g class="vf-stem" id="vf-auto34671" pointer-events="bounding-box"><path stroke-width="1.5" fill="none" d="M242.317 83.5L242.317 37.526"/></g><g class="vf-stem" id="vf-auto34677" pointer-events="bounding-box"><path stroke-width="1.5" fill="none" d="M271.271 78.5L271.271 38.25"/></g><g class="vf-stem" id="vf-auto34683" pointer-events="bounding-box"><path stroke-width="1.5" fill="none" d="M300.225 83.5L300.225 38.974"/></g><g class="vf-beam" id="vf-auto34748"><path stroke="none" d="M212.613 36.034L212.613 41.034L300.475 43.205L300.475 38.205Z"/><path stroke="none" d="M212.613 43.534L212.613 48.534L300.475 50.705L300.475 45.705Z"/><path stroke="none" d="M212.613 51.034L212.613 56.034L300.475 58.205L300.475 53.205Z"/></g><g class="vf-stem" id="vf-auto34701" pointer-events="bounding-box"><path stroke-width="1.5" fill="none" d="M392.103 68.5L392.103 35.75"/></g><g class="vf-stem" id="vf-auto34707" pointer-events="bounding-box"><path stroke-width="1.5" fill="none" d="M427.085 73.5L427.085 35.75"/></g><g class="vf-stem" id="vf-auto34713" pointer-events="bounding-box"><path stroke-width="1.5" fill="none" d="M462.068 78.5L462.068 35.75"/></g><g class="vf-stem" id="vf-auto34719" pointer-events="bounding-box"><path stroke-width="1.5" fill="none" d="M546.692 68.5L546.692 35.75"/></g><g class="vf-stem" id="vf-auto34725" pointer-events="bounding-box"><path stroke-width="1.5" fill="none" d="M581.674 73.5L581.674 35.75"/></g><g class="vf-beam" id="vf-auto34749"><path stroke="none" d="M391.353 35L391.353 40L581.924 40L581.924 35Z"/></g><path stroke="none" d="M84.803 19.592C85.005 19.572,85.186 19.552,85.388 19.552C87.626 19.552,89.561 20.842,89.561 22.435C89.561 23.423,88.412 24.451,86.759 24.955L86.557 25.015L86.638 25.035C88.13 25.519,89.238 26.507,89.561 27.616C89.621 27.858,89.662 28.08,89.662 28.301C89.662 29.713,88.412 30.983,86.497 31.345C86.134 31.426,85.771 31.466,85.408 31.466C84.077 31.466,82.787 30.962,81.88 30.075C81.557 29.753,81.416 29.39,81.416 29.007C81.416 28.201,82.061 27.394,82.969 27.394C83.069 27.394,83.15 27.414,83.251 27.434C84.057 27.576,84.481 28.261,84.481 28.926C84.481 29.471,84.178 30.035,83.553 30.277C83.513 30.277,83.513 30.297,83.513 30.297C83.513 30.317,83.553 30.317,83.694 30.358C83.997 30.438,84.259 30.458,84.521 30.458C85.166 30.458,85.69 30.257,86.114 29.833C86.537 29.41,86.738 28.886,86.738 28.261C86.738 28.059,86.718 27.858,86.678 27.636C86.416 26.326,85.489 25.378,84.38 25.318C84.077 25.297,83.977 25.217,83.977 24.995C83.977 24.773,84.077 24.693,84.4 24.673C85.408 24.612,86.295 23.886,86.577 22.919C86.618 22.757,86.638 22.596,86.638 22.435C86.638 21.608,86.033 20.882,85.106 20.661C84.985 20.62,84.803 20.62,84.581 20.62C84.299 20.62,83.997 20.641,83.755 20.681L83.674 20.701L83.735 20.721C84.239 20.983,84.481 21.487,84.481 21.991C84.481 22.596,84.138 23.221,83.473 23.443C83.311 23.483,83.15 23.523,82.989 23.523C82.122 23.523,81.416 22.777,81.416 21.931C81.416 21.709,81.457 21.487,81.578 21.265C81.961 20.459,83.372 19.733,84.803 19.592M85.529 32.333L85.569 32.333L85.509 32.333M85.529 19.068L85.569 19.068L85.509 19.068"/><rect x="136.785" y="25" width="104.711" height="1" stroke="none"/><rect x="260.387" y="25" width="104.711" height="1" stroke="none"/><rect x="136.785" y="25" width="1" height="10" stroke="none"/><rect x="365.098" y="25" width="1" height="10" stroke="none"/><path stroke="none" d="M249.58 19.552C249.681 19.552,249.782 19.552,249.903 19.552C250.891 19.552,251.979 19.935,252.806 20.58C252.987 20.741,253.129 20.802,253.33 20.802C253.391 20.802,253.451 20.782,253.512 20.782C253.975 20.721,254.399 20.439,254.741 19.995C254.862 19.834,254.963 19.753,255.084 19.753C255.124 19.753,255.165 19.774,255.205 19.794C255.326 19.834,255.387 19.895,255.387 20.056C255.387 20.217,255.306 20.52,255.145 21.104C254.701 22.737,253.995 24.451,253.491 25.217C252.604 26.527,252.04 28.523,252 30.6C251.979 31.104,251.959 31.144,251.798 31.225C251.758 31.245,250.951 31.245,250.145 31.245C249.339 31.245,248.532 31.245,248.492 31.225C248.351 31.164,248.31 31.083,248.31 30.821C248.31 30.821,248.31 30.821,248.31 30.821C248.31 29.531,248.915 27.858,249.863 26.527C250.427 25.741,250.951 25.177,251.778 24.431C252.846 23.483,253.471 22.737,254.056 21.769C254.116 21.649,254.137 21.608,254.137 21.588C254.137 21.588,254.137 21.588,254.137 21.588C254.137 21.588,254.116 21.588,254.076 21.628C253.25 22.253,252.302 22.576,251.375 22.576C250.508 22.576,249.661 22.273,249.016 21.709C248.714 21.427,248.451 21.306,248.21 21.306C247.968 21.306,247.766 21.447,247.585 21.709C247.423 21.971,247.262 22.314,247.121 22.838C247.081 22.999,246.939 23.08,246.798 23.08C246.677 23.08,246.577 23.019,246.516 22.898C246.496 22.858,246.496 22.153,246.496 21.427C246.496 20.701,246.496 19.995,246.516 19.955C246.577 19.834,246.677 19.774,246.798 19.774C246.879 19.774,246.96 19.794,247.06 19.874C247.202 19.975,247.323 20.036,247.484 20.036C247.665 20.036,247.907 19.975,248.331 19.834C248.855 19.653,249.137 19.592,249.58 19.552M250.931 32.333L250.971 32.333L250.911 32.333M250.931 19.068L250.971 19.068L250.911 19.068"/><path stroke="none" d="M483.744 19.794C483.784 19.774,483.824 19.774,483.865 19.774C483.925 19.774,484.006 19.794,484.127 19.834C484.994 20.137,485.981 20.298,487.03 20.298C488.058 20.298,489.126 20.137,490.175 19.834C490.316 19.794,490.397 19.774,490.477 19.774C490.558 19.774,490.618 19.794,490.679 19.854C490.719 19.915,490.759 19.975,490.759 20.056C490.759 20.157,490.699 20.318,490.558 20.6C489.933 21.85,489.227 22.394,488.038 22.536C487.735 22.576,487.413 22.596,487.07 22.596C486.123 22.596,485.115 22.455,484.268 22.193C484.127 22.153,484.026 22.132,484.026 22.132C484.026 22.132,483.845 24.229,483.845 24.31C483.845 24.31,483.845 24.31,483.845 24.31C483.845 24.31,483.845 24.31,483.845 24.31C483.845 24.31,483.905 24.289,483.965 24.249C484.469 23.987,485.135 23.785,485.8 23.685C485.961 23.665,486.284 23.644,486.586 23.644C486.788 23.644,486.989 23.665,487.09 23.665C489.429 24.007,491.001 25.519,491.001 27.495L491.001 27.495C491.001 29.45,489.469 31.083,487.312 31.426C487.151 31.446,486.969 31.466,486.808 31.466C485.598 31.466,484.228 30.862,483.22 29.854C482.917 29.551,482.776 29.168,482.776 28.805C482.776 27.999,483.441 27.193,484.328 27.193C484.429 27.193,484.51 27.213,484.611 27.213C485.417 27.374,485.84 28.039,485.84 28.705C485.84 29.289,485.518 29.874,484.832 30.096L484.711 30.136L484.853 30.196C485.175 30.337,485.498 30.418,485.78 30.418C486.163 30.418,486.506 30.297,486.848 30.075C487.675 29.531,488.098 28.563,488.098 27.394C488.098 27.092,488.078 26.789,488.018 26.487C487.836 25.398,487.332 24.531,486.768 24.33L486.667 24.289L486.365 24.289C485.477 24.289,484.59 24.572,483.865 25.056C483.582 25.237,483.562 25.257,483.461 25.257C483.28 25.257,483.159 25.136,483.159 24.935C483.159 24.733,483.562 20.016,483.582 19.955C483.623 19.895,483.683 19.834,483.744 19.794M486.989 30.741C486.989 30.741,486.989 30.741,486.969 30.741C486.969 30.741,486.949 30.741,486.909 30.761C486.889 30.781,486.869 30.801,486.869 30.801C486.869 30.801,486.869 30.801,486.869 30.801C486.889 30.801,486.989 30.741,486.989 30.741M486.889 32.333L486.909 32.333L486.869 32.333M486.889 19.068L486.909 19.068L486.869 19.068"/></svg>