<svg xmlns="http://www.w3.org/2000/svg" stroke-width="0.3" stroke-dasharray="none" fill="black" stroke="black" font-family="Arial, sans-serif" font-size="10pt" font-weight="normal" font-style="normal" width="600" height="200" viewBox="0 0 600 200" style="width: 600px; height: 200px; border: none;"><text stroke="none" font-size="8pt" x="20" y="170">12px</text><path stroke-width="3" fill="none" stroke="red" d="M20 177L20 177"/><path stroke-width="3" fill="none" stroke="#999" d="M20 177L25.781 177"/><path stroke-width="3" fill="none" stroke="green" d="M25.781 177L24.808 177"/><path stroke-width="3" fill="none" stroke="#999" d="M24.808 177L31.563 177"/><path stroke-width="3" fill="none" stroke="red" d="M31.563 177L31.563 177"/><path stroke-width="3" fill="none" stroke="#DD0" d="M31.563 177L68.054 177"/><path stroke-width="3" fill="none" stroke="#BBB" d="M20 177L20 177"/><path stroke-width="3" fill="blue" stroke="none" d="M28.781 177 A3 3 0 0 0 22.781 177 A3 3 0 0 0 28.781 177Z"/><text stroke-width="3" fill="red" stroke="none" font-size="8pt" x="25.781" y="160">+0</text><text stroke="none" font-size="8pt" x="68.054" y="170">9px</text><path stroke-width="3" fill="none" stroke="red" d="M68.054 177L68.054 177"/><path stroke-width="3" fill="none" stroke="#999" d="M68.054 177L68.054 177"/><path stroke-width="3" fill="none" stroke="green" d="M68.054 177L70.206 177"/><path stroke-width="3" fill="none" stroke="#999" d="M70.206 177L76.96 177"/><path stroke-width="3" fill="none" stroke="red" d="M76.96 177L76.96 177"/><path stroke-width="3" fill="none" stroke="#DD0" d="M76.96 177L98.764 177"/><path stroke-width="3" fill="none" stroke="#BBB" d="M68.054 177L68.054 177"/><path stroke-width="3" fill="blue" stroke="none" d="M71.054 177 A3 3 0 0 0 65.054 177 A3 3 0 0 0 71.054 177Z"/><text stroke-width="3" fill="red" stroke="none" font-size="8pt" x="68.054" y="160">+0</text><text stroke="none" font-size="8pt" x="98.764" y="170">12px</text><path stroke-width="3" fill="none" stroke="red" d="M98.764 177L98.764 177"/><path stroke-width="3" fill="none" stroke="#999" d="M98.764 177L110.326 177"/><path stroke-width="3" fill="none" stroke="green" d="M110.326 177L103.572 177"/><path stroke-width="3" fill="none" stroke="#999" d="M103.572 177L110.326 177"/><path stroke-width="3" fill="none" stroke="red" d="M110.326 177L110.326 177"/><path stroke-width="3" fill="none" stroke="#DD0" d="M110.326 177L146.817 177"/><path stroke-width="3" fill="none" stroke="#BBB" d="M98.764 177L98.764 177"/><path stroke-width="3" fill="blue" stroke="none" d="M113.326 177 A3 3 0 0 0 107.326 177 A3 3 0 0 0 113.326 177Z"/><text stroke-width="3" fill="red" stroke="none" font-size="8pt" x="110.326" y="160">+0</text><text stroke="none" font-size="8pt" x="146.817" y="170">12px</text><path stroke-width="3" fill="none" stroke="red" d="M146.817 177L146.817 177"/><path stroke-width="3" fill="none" stroke="#999" d="M146.817 177L152.599 177"/><path stroke-width="3" fill="none" stroke="green" d="M152.599 177L151.626 177"/><path stroke-width="3" fill="none" stroke="#999" d="M151.626 177L158.38 177"/><path stroke-width="3" fill="none" stroke="red" d="M158.38 177L158.38 177"/><path stroke-width="3" fill="none" stroke="#DD0" d="M158.38 177L194.871 177"/><path stroke-width="3" fill="none" stroke="#BBB" d="M146.817 177L146.817 177"/><path stroke-width="3" fill="blue" stroke="none" d="M155.599 177 A3 3 0 0 0 149.599 177 A3 3 0 0 0 155.599 177Z"/><text stroke-width="3" fill="red" stroke="none" font-size="8pt" x="152.599" y="160">+0</text><text stroke="none" font-size="8pt" x="194.871" y="170">9px</text><path stroke-width="3" fill="none" stroke="red" d="M194.871 177L194.871 177"/><path stroke-width="3" fill="none" stroke="#999" d="M194.871 177L194.871 177"/><path stroke-width="3" fill="none" stroke="green" d="M194.871 177L197.023 177"/><path stroke-width="3" fill="none" stroke="#999" d="M197.023 177L203.777 177"/><path stroke-width="3" fill="none" stroke="red" d="M203.777 177L203.777 177"/><path stroke-width="3" fill="none" stroke="#DD0" d="M203.777 177L225.581 177"/><path stroke-width="3" fill="none" stroke="#BBB" d="M194.871 177L194.871 177"/><path stroke-width="3" fill="blue" stroke="none" d="M197.871 177 A3 3 0 0 0 191.871 177 A3 3 0 0 0 197.871 177Z"/><text stroke-width="3" fill="red" stroke="none" font-size="8pt" x="194.871" y="160">+0</text><text stroke="none" font-size="8pt" x="225.581" y="170">12px</text><path stroke-width="3" fill="none" stroke="red" d="M225.581 177L225.581 177"/><path stroke-width="3" fill="none" stroke="#999" d="M225.581 177L237.144 177"/><path stroke-width="3" fill="none" stroke="green" d="M237.144 177L230.39 177"/><path stroke-width="3" fill="none" stroke="#999" d="M230.39 177L237.144 177"/><path stroke-width="3" fill="none" stroke="red" d="M237.144 177L237.144 177"/><path stroke-width="3" fill="none" stroke="#DD0" d="M237.144 177L273.635 177"/><path stroke-width="3" fill="none" stroke="#BBB" d="M225.581 177L225.581 177"/><path stroke-width="3" fill="blue" stroke="none" d="M240.144 177 A3 3 0 0 0 234.144 177 A3 3 0 0 0 240.144 177Z"/><text stroke-width="3" fill="red" stroke="none" font-size="8pt" x="237.144" y="160">+0</text><text stroke="none" font-size="8pt" x="273.635" y="170">12px</text><path stroke-width="3" fill="none" stroke="red" d="M273.635 177L273.635 177"/><path stroke-width="3" fill="none" stroke="#999" d="M273.635 177L279.416 177"/><path stroke-width="3" fill="none" stroke="green" d="M279.416 177L278.443 177"/><path stroke-width="3" fill="none" stroke="#999" d="M278.443 177L285.197 177"/><path stroke-width="3" fill="none" stroke="red" d="M285.197 177L285.197 177"/><path stroke-width="3" fill="none" stroke="#DD0" d="M285.197 177L321.689 177"/><path stroke-width="3" fill="none" stroke="#BBB" d="M273.635 177L273.635 177"/><path stroke-width="3" fill="blue" stroke="none" d="M282.416 177 A3 3 0 0 0 276.416 177 A3 3 0 0 0 282.416 177Z"/><text stroke-width="3" fill="red" stroke="none" font-size="8pt" x="279.416" y="160">+0</text><text stroke="none" font-size="8pt" x="321.689" y="170">9px</text><path stroke-width="3" fill="none" stroke="red" d="M321.689 177L321.689 177"/><path stroke-width="3" fill="none" stroke="#999" d="M321.689 177L321.689 177"/><path stroke-width="3" fill="none" stroke="green" d="M321.689 177L323.841 177"/><path stroke-width="3" fill="none" stroke="#999" d="M323.841 177L330.595 177"/><path stroke-width="3" fill="none" stroke="red" d="M330.595 177L330.595 177"/><path stroke-width="3" fill="none" stroke="#DD0" d="M330.595 177L352.399 177"/><path stroke-width="3" fill="none" stroke="#BBB" d="M321.689 177L321.689 177"/><path stroke-width="3" fill="blue" stroke="none" d="M324.689 177 A3 3 0 0 0 318.689 177 A3 3 0 0 0 324.689 177Z"/><text stroke-width="3" fill="red" stroke="none" font-size="8pt" x="321.689" y="160">+0</text><text stroke="none" font-size="8pt" x="352.399" y="170">12px</text><path stroke-width="3" fill="none" stroke="red" d="M352.399 177L352.399 177"/><path stroke-width="3" fill="none" stroke="#999" d="M352.399 177L363.961 177"/><path stroke-width="3" fill="none" stroke="green" d="M363.961 177L357.207 177"/><path stroke-width="3" fill="none" stroke="#999" d="M357.207 177L363.961 177"/><path stroke-width="3" fill="none" stroke="red" d="M363.961 177L363.961 177"/><path stroke-width="3" fill="none" stroke="#DD0" d="M363.961 177L400.452 177"/><path stroke-width="3" fill="none" stroke="#BBB" d="M352.399 177L352.399 177"/><path stroke-width="3" fill="blue" stroke="none" d="M366.961 177 A3 3 0 0 0 360.961 177 A3 3 0 0 0 366.961 177Z"/><text stroke-width="3" fill="red" stroke="none" font-size="8pt" x="363.961" y="160">+0</text><text stroke="none" font-size="8pt" x="400.452" y="170">12px</text><path stroke-width="3" fill="none" stroke="red" d="M400.452 177L400.452 177"/><path stroke-width="3" fill="none" stroke="#999" d="M400.452 177L406.234 177"/><path stroke-width="3" fill="none" stroke="green" d="M406.234 177L405.261 177"/><path stroke-width="3" fill="none" stroke="#999" d="M405.261 177L412.015 177"/><path stroke-width="3" fill="none" stroke="red" d="M412.015 177L412.015 177"/><path stroke-width="3" fill="none" stroke="#DD0" d="M412.015 177L448.506 177"/><path stroke-width="3" fill="none" stroke="#BBB" d="M400.452 177L400.452 177"/><path stroke-width="3" fill="blue" stroke="none" d="M409.234 177 A3 3 0 0 0 403.234 177 A3 3 0 0 0 409.234 177Z"/><text stroke-width="3" fill="red" stroke="none" font-size="8pt" x="406.234" y="160">+0</text><text stroke="none" font-size="8pt" x="448.506" y="170">9px</text><path stroke-width="3" fill="none" stroke="red" d="M448.506 177L448.506 177"/><path stroke-width="3" fill="none" stroke="#999" d="M448.506 177L448.506 177"/><path stroke-width="3" fill="none" stroke="green" d="M448.506 177L450.658 177"/><path stroke-width="3" fill="none" stroke="#999" d="M450.658 177L457.412 177"/><path stroke-width="3" fill="none" stroke="red" d="M457.412 177L457.412 177"/><path stroke-width="3" fill="none" stroke="#DD0" d="M457.412 177L479.216 177"/><path stroke-width="3" fill="none" stroke="#BBB" d="M448.506 177L448.506 177"/><path stroke-width="3" fill="blue" stroke="none" d="M451.506 177 A3 3 0 0 0 445.506 177 A3 3 0 0 0 451.506 177Z"/><text stroke-width="3" fill="red" stroke="none" font-size="8pt" x="448.506" y="160">+0</text><text stroke="none" font-size="8pt" x="479.216" y="170">12px</text><path stroke-width="3" fill="none" stroke="red" d="M479.216 177L479.216 177"/><path stroke-width="3" fill="none" stroke="#999" d="M479.216 177L490.779 177"/><path stroke-width="3" fill="none" stroke="green" d="M490.779 177L484.025 177"/><path stroke-width="3" fill="none" stroke="#999" d="M484.025 177L490.779 177"/><path stroke-width="3" fill="none" stroke="red" d="M490.779 177L490.779 177"/><path stroke-width="3" fill="none" stroke="#DD0" d="M490.779 177L521.489 177"/><path stroke-width="3" fill="none" stroke="#BBB" d="M479.216 177L479.216 177"/><path stroke-width="3" fill="blue" stroke="none" d="M493.779 177 A3 3 0 0 0 487.779 177 A3 3 0 0 0 493.779 177Z"/><text stroke-width="3" fill="red" stroke="none" font-size="8pt" x="490.779" y="160">+0</text><text stroke="none" font-size="8pt" x="521.489" y="170">12px</text><path stroke-width="3" fill="none" stroke="red" d="M521.489 177L521.489 177"/><path stroke-width="3" fill="none" stroke="#999" d="M521.489 177L533.051 177"/><path stroke-width="3" fill="none" stroke="green" d="M533.051 177L526.297 177"/><path stroke-width="3" fill="none" stroke="#999" d="M526.297 177L533.051 177"/><path stroke-width="3" fill="none" stroke="red" d="M533.051 177L533.051 177"/><path stroke-width="3" fill="none" stroke="#DD0" d="M533.051 177L575 177"/><path stroke-width="3" fill="none" stroke="#BBB" d="M521.489 177L521.489 177"/><path stroke-width="3" fill="blue" stroke="none" d="M536.051 177 A3 3 0 0 0 530.051 177 A3 3 0 0 0 536.051 177Z"/><text stroke-width="3" fill="red" stroke="none" font-size="8pt" x="533.051" y="160">+0</text><g class="vf-stave" id="vf-auto27484" stroke-width="1" fill="#999999" stroke="#999999" font-size="12pt"><path fill="none" d="M0 80L590 80"/><path fill="none" d="M0 90L590 90"/><path fill="none" d="M0 100L590 100"/><path fill="none" d="M0 110L590 110"/><path fill="none" d="M0 120L590 120"/></g><g class="vf-stavebarline" id="vf-auto27485" font-size="12pt"><rect y="79.5" width="1" height="41" stroke="none"/></g><g class="vf-stavebarline" id="vf-auto27486" font-size="12pt"><rect x="590" y="79.5" width="1" height="41" stroke="none"/></g><g class="vf-stavenote" id="vf-auto27487" font-size="12pt"><g class="vf-stem" id="vf-auto27488" pointer-events="bounding-box"><path stroke-width="1.5" fill="none" d="M38.539 108L38.539 78"/></g><g class="vf-notehead" id="vf-auto27491" pointer-events="bounding-box"><path stroke="none" d="M29.426 116.543C29.707 116.599,29.96 116.627,30.241 116.627C34.116 116.627,39.9 111.348,39.788 107.08C39.675 106.041,39.703 104.609,37.597 103.766C37.008 103.485,36.362 103.373,35.66 103.373C31.336 103.373,26.646 108.343,26.309 111.657C26.309 111.909,26.281 112.134,26.281 112.387C26.281 114.409,27.18 116.037,29.426 116.543"/></g><path stroke="none" d="M49.443 106.106C49.667 106.191,49.836 105.966,50.004 105.797C50.201 105.545,50.313 105.264,50.453 104.955C50.818 103.944,50.903 102.877,50.847 101.642C50.818 101.192,50.818 100.631,50.734 100.013C50.903 98.721,51.043 97.43,51.015 96.054C51.043 95.211,50.903 94.228,50.847 93.246C50.678 91.28,50.173 89.427,49.443 87.602C48.179 84.457,45.764 82.182,43.405 79.88C42.282 78.784,41.103 77.717,40.485 76.201C40.148 75.387,40.176 74.488,39.895 73.674C39.811 73.449,39.811 73,39.446 73C39.418 73,39.362 73.028,39.278 73.028C38.913 73.168,38.548 73.281,38.548 73.899C38.548 74.207,38.604 74.544,38.604 74.909C38.351 74.938,38.154 75.022,38.07 75.218C37.958 75.499,37.817 75.78,37.817 76.061C37.789 76.65,37.789 77.156,37.789 77.774C37.789 80.076,38.126 82.351,38.772 84.513C39.923 88.641,42.17 92.122,45.034 95.267C47.617 98.16,49.302 101.473,49.274 105.517C49.274 105.713,49.162 105.994,49.443 106.106M49.386 95.913C48.797 94.594,48.01 93.302,47.084 92.122C45.259 89.736,43.096 87.63,41.861 84.794C41.299 83.502,40.654 82.266,40.204 80.89C40.738 81.761,41.384 82.631,42.17 83.39C43.686 84.934,45.343 86.422,46.719 88.135C48.544 90.438,49.583 93.021,49.386 95.913"/></g><g class="vf-stavenote" id="vf-auto27493" font-size="12pt"><g class="vf-stem" id="vf-auto27494" pointer-events="bounding-box"><path stroke-width="1.5" fill="none" d="M80.812 108L80.812 78"/></g><g class="vf-notehead" id="vf-auto27497" pointer-events="bounding-box"><path stroke="none" d="M71.699 116.543C71.979 116.599,72.232 116.627,72.513 116.627C76.388 116.627,82.173 111.348,82.06 107.08C81.948 106.041,81.976 104.609,79.87 103.766C79.28 103.485,78.634 103.373,77.932 103.373C73.608 103.373,68.919 108.343,68.582 111.657C68.582 111.909,68.554 112.134,68.554 112.387C68.554 114.409,69.452 116.037,71.699 116.543"/></g><path stroke="none" d="M91.715 106.106C91.94 106.191,92.108 105.966,92.277 105.797C92.473 105.545,92.586 105.264,92.726 104.955C93.091 103.944,93.175 102.877,93.119 101.642C93.091 101.192,93.091 100.631,93.007 100.013C93.175 98.721,93.316 97.43,93.288 96.054C93.316 95.211,93.175 94.228,93.119 93.246C92.951 91.28,92.445 89.427,91.715 87.602C90.451 84.457,88.037 82.182,85.678 79.88C84.555 78.784,83.375 77.717,82.758 76.201C82.421 75.387,82.449 74.488,82.168 73.674C82.084 73.449,82.084 73,81.719 73C81.69 73,81.634 73.028,81.55 73.028C81.185 73.168,80.82 73.281,80.82 73.899C80.82 74.207,80.876 74.544,80.876 74.909C80.623 74.938,80.427 75.022,80.343 75.218C80.23 75.499,80.09 75.78,80.09 76.061C80.062 76.65,80.062 77.156,80.062 77.774C80.062 80.076,80.399 82.351,81.045 84.513C82.196 88.641,84.442 92.122,87.306 95.267C89.89 98.16,91.575 101.473,91.547 105.517C91.547 105.713,91.434 105.994,91.715 106.106M91.659 95.913C91.069 94.594,90.283 93.302,89.356 92.122C87.531 89.736,85.369 87.63,84.133 84.794C83.572 83.502,82.926 82.266,82.477 80.89C83.01 81.761,83.656 82.631,84.442 83.39C85.959 84.934,87.615 86.422,88.991 88.135C90.816 90.438,91.855 93.021,91.659 95.913"/></g><g class="vf-stavenote" id="vf-auto27499" font-size="12pt"><g class="vf-stem" id="vf-auto27500" pointer-events="bounding-box"><path stroke-width="1.5" fill="none" d="M123.084 108L123.084 78"/></g><g class="vf-notehead" id="vf-auto27503" pointer-events="bounding-box"><path stroke="none" d="M113.971 116.543C114.252 116.599,114.505 116.627,114.786 116.627C118.661 116.627,124.445 111.348,124.333 107.08C124.22 106.041,124.248 104.609,122.142 103.766C121.553 103.485,120.907 103.373,120.205 103.373C115.881 103.373,111.191 108.343,110.854 111.657C110.854 111.909,110.826 112.134,110.826 112.387C110.826 114.409,111.725 116.037,113.971 116.543"/></g><path stroke="none" d="M133.988 106.106C134.212 106.191,134.381 105.966,134.549 105.797C134.746 105.545,134.858 105.264,134.998 104.955C135.363 103.944,135.448 102.877,135.392 101.642C135.363 101.192,135.363 100.631,135.279 100.013C135.448 98.721,135.588 97.43,135.56 96.054C135.588 95.211,135.448 94.228,135.392 93.246C135.223 91.28,134.718 89.427,133.988 87.602C132.724 84.457,130.309 82.182,127.95 79.88C126.827 78.784,125.648 77.717,125.03 76.201C124.693 75.387,124.721 74.488,124.44 73.674C124.356 73.449,124.356 73,123.991 73C123.963 73,123.907 73.028,123.823 73.028C123.458 73.168,123.092 73.281,123.092 73.899C123.092 74.207,123.149 74.544,123.149 74.909C122.896 74.938,122.699 75.022,122.615 75.218C122.503 75.499,122.362 75.78,122.362 76.061C122.334 76.65,122.334 77.156,122.334 77.774C122.334 80.076,122.671 82.351,123.317 84.513C124.468 88.641,126.715 92.122,129.579 95.267C132.162 98.16,133.847 101.473,133.819 105.517C133.819 105.713,133.707 105.994,133.988 106.106M133.931 95.913C133.342 94.594,132.555 93.302,131.629 92.122C129.804 89.736,127.641 87.63,126.406 84.794C125.844 83.502,125.198 82.266,124.749 80.89C125.283 81.761,125.929 82.631,126.715 83.39C128.231 84.934,129.888 86.422,131.264 88.135C133.089 90.438,134.128 93.021,133.931 95.913"/></g><g class="vf-stavenote" id="vf-auto27505" font-size="12pt"><g class="vf-stem" id="vf-auto27506" pointer-events="bounding-box"><path stroke-width="1.5" fill="none" d="M153.349 77L153.349 107"/></g><g class="vf-notehead" id="vf-auto27509" pointer-events="bounding-box"><path stroke="none" d="M155.744 81.543C156.024 81.599,156.277 81.627,156.558 81.627C160.433 81.627,166.218 76.348,166.105 72.08C165.993 71.041,166.021 69.609,163.915 68.766C163.325 68.485,162.679 68.373,161.977 68.373C157.653 68.373,152.964 73.343,152.627 76.657C152.627 76.909,152.599 77.134,152.599 77.387C152.599 79.409,153.497 81.037,155.744 81.543"/></g><path stroke="none" d="M154.255 112C154.62 112,154.62 111.551,154.705 111.326C154.986 110.512,154.957 109.613,155.294 108.799C155.912 107.283,157.092 106.216,158.215 105.12C160.573 102.818,162.988 100.543,164.252 97.398C164.982 95.573,165.487 93.72,165.656 91.754C165.712 90.772,165.852 89.789,165.824 88.946C165.852 87.57,165.712 86.279,165.544 84.987C165.628 84.369,165.628 83.808,165.656 83.358C165.712 82.123,165.628 81.056,165.263 80.045C165.122 79.736,165.01 79.455,164.814 79.203C164.701 79.09,164.533 78.894,164.336 78.894L164.252 78.894C164.083 78.978,164.055 79.034,164.055 79.174C164.055 79.287,164.083 79.399,164.083 79.483C164.112 83.527,162.427 86.84,159.843 89.733C156.979 92.878,154.733 96.359,153.582 100.487C152.936 102.649,152.599 104.924,152.599 107.226L152.599 109.529C152.599 110.006,152.767 111.354,153.413 111.803C153.525 111.888,154.227 112,154.255 112M155.014 104.11C155.463 102.734,156.109 101.498,156.67 100.206C157.906 97.37,160.068 95.264,161.893 92.878C162.82 91.698,163.606 90.406,164.196 89.087C164.196 89.311,164.252 89.564,164.252 89.789C164.252 92.4,163.185 94.787,161.528 96.865C160.152 98.578,158.496 100.066,156.979 101.61C156.193 102.369,155.547 103.239,155.014 104.11"/></g><g class="vf-stavenote" id="vf-auto27511" font-size="12pt"><g class="vf-stem" id="vf-auto27512" pointer-events="bounding-box"><path stroke-width="1.5" fill="none" d="M195.621 77L195.621 107"/></g><g class="vf-notehead" id="vf-auto27515" pointer-events="bounding-box"><path stroke="none" d="M198.016 81.543C198.297 81.599,198.55 81.627,198.83 81.627C202.706 81.627,208.49 76.348,208.378 72.08C208.265 71.041,208.293 69.609,206.187 68.766C205.598 68.485,204.952 68.373,204.25 68.373C199.926 68.373,195.236 73.343,194.899 76.657C194.899 76.909,194.871 77.134,194.871 77.387C194.871 79.409,195.77 81.037,198.016 81.543"/></g><path stroke="none" d="M196.528 112C196.893 112,196.893 111.551,196.977 111.326C197.258 110.512,197.23 109.613,197.567 108.799C198.185 107.283,199.364 106.216,200.487 105.12C202.846 102.818,205.261 100.543,206.524 97.398C207.254 95.573,207.76 93.72,207.928 91.754C207.985 90.772,208.125 89.789,208.097 88.946C208.125 87.57,207.985 86.279,207.816 84.987C207.9 84.369,207.9 83.808,207.928 83.358C207.985 82.123,207.9 81.056,207.535 80.045C207.395 79.736,207.283 79.455,207.086 79.203C206.974 79.09,206.805 78.894,206.609 78.894L206.524 78.894C206.356 78.978,206.328 79.034,206.328 79.174C206.328 79.287,206.356 79.399,206.356 79.483C206.384 83.527,204.699 86.84,202.116 89.733C199.252 92.878,197.005 96.359,195.854 100.487C195.208 102.649,194.871 104.924,194.871 107.226L194.871 109.529C194.871 110.006,195.04 111.354,195.686 111.803C195.798 111.888,196.5 112,196.528 112M197.286 104.11C197.735 102.734,198.381 101.498,198.943 100.206C200.178 97.37,202.34 95.264,204.166 92.878C205.092 91.698,205.879 90.406,206.468 89.087C206.468 89.311,206.524 89.564,206.524 89.789C206.524 92.4,205.457 94.787,203.801 96.865C202.425 98.578,200.768 100.066,199.252 101.61C198.465 102.369,197.82 103.239,197.286 104.11"/></g><g class="vf-stavenote" id="vf-auto27517" font-size="12pt"><g class="vf-stem" id="vf-auto27518" pointer-events="bounding-box"><path stroke-width="1.5" fill="none" d="M237.894 77L237.894 107"/></g><g class="vf-notehead" id="vf-auto27521" pointer-events="bounding-box"><path stroke="none" d="M240.289 81.543C240.569 81.599,240.822 81.627,241.103 81.627C244.978 81.627,250.762 76.348,250.65 72.08C250.538 71.041,250.566 69.609,248.46 68.766C247.87 68.485,247.224 68.373,246.522 68.373C242.198 68.373,237.509 73.343,237.172 76.657C237.172 76.909,237.144 77.134,237.144 77.387C237.144 79.409,238.042 81.037,240.289 81.543"/></g><path stroke="none" d="M238.8 112C239.165 112,239.165 111.551,239.25 111.326C239.53 110.512,239.502 109.613,239.839 108.799C240.457 107.283,241.636 106.216,242.76 105.12C245.118 102.818,247.533 100.543,248.797 97.398C249.527 95.573,250.032 93.72,250.201 91.754C250.257 90.772,250.397 89.789,250.369 88.946C250.397 87.57,250.257 86.279,250.089 84.987C250.173 84.369,250.173 83.808,250.201 83.358C250.257 82.123,250.173 81.056,249.808 80.045C249.667 79.736,249.555 79.455,249.358 79.203C249.246 79.09,249.078 78.894,248.881 78.894L248.797 78.894C248.628 78.978,248.6 79.034,248.6 79.174C248.6 79.287,248.628 79.399,248.628 79.483C248.656 83.527,246.972 86.84,244.388 89.733C241.524 92.878,239.278 96.359,238.126 100.487C237.481 102.649,237.144 104.924,237.144 107.226L237.144 109.529C237.144 110.006,237.312 111.354,237.958 111.803C238.07 111.888,238.772 112,238.8 112M239.559 104.11C240.008 102.734,240.654 101.498,241.215 100.206C242.451 97.37,244.613 95.264,246.438 92.878C247.365 91.698,248.151 90.406,248.741 89.087C248.741 89.311,248.797 89.564,248.797 89.789C248.797 92.4,247.73 94.787,246.073 96.865C244.697 98.578,243.04 100.066,241.524 101.61C240.738 102.369,240.092 103.239,239.559 104.11"/></g><g class="vf-stavenote" id="vf-auto27523" font-size="12pt"><path stroke-width="1.4" fill="none" stroke="#444" d="M276.416 70L295.924 70"/><g class="vf-stem" id="vf-auto27524" pointer-events="bounding-box"><path stroke-width="1.5" fill="none" d="M280.166 72L280.166 107"/></g><g class="vf-notehead" id="vf-auto27529" pointer-events="bounding-box"><path stroke="none" d="M271.803 81.543C272.084 81.599,272.337 81.627,272.617 81.627C276.492 81.627,282.277 76.348,282.165 72.08C282.052 71.041,282.08 69.609,279.974 68.766C279.385 68.485,278.739 68.373,278.037 68.373C273.712 68.373,269.023 73.343,268.686 76.657C268.686 76.909,268.658 77.134,268.658 77.387C268.658 79.409,269.557 81.037,271.803 81.543"/></g><g class="vf-notehead" id="vf-auto27528" pointer-events="bounding-box"><path stroke="none" d="M282.561 76.543C282.842 76.599,283.095 76.627,283.375 76.627C287.25 76.627,293.035 71.348,292.923 67.08C292.81 66.041,292.838 64.609,290.732 63.766C290.143 63.485,289.497 63.373,288.795 63.373C284.471 63.373,279.781 68.343,279.444 71.657C279.444 71.909,279.416 72.134,279.416 72.387C279.416 74.409,280.315 76.037,282.561 76.543"/></g><path stroke="none" d="M281.073 112C281.438 112,281.438 111.551,281.522 111.326C281.803 110.512,281.775 109.613,282.112 108.799C282.73 107.283,283.909 106.216,285.032 105.12C287.391 102.818,289.806 100.543,291.069 97.398C291.799 95.573,292.305 93.72,292.473 91.754C292.53 90.772,292.67 89.789,292.642 88.946C292.67 87.57,292.53 86.279,292.361 84.987C292.445 84.369,292.445 83.808,292.473 83.358C292.53 82.123,292.445 81.056,292.08 80.045C291.94 79.736,291.828 79.455,291.631 79.203C291.519 79.09,291.35 78.894,291.154 78.894L291.069 78.894C290.901 78.978,290.873 79.034,290.873 79.174C290.873 79.287,290.901 79.399,290.901 79.483C290.929 83.527,289.244 86.84,286.661 89.733C283.797 92.878,281.55 96.359,280.399 100.487C279.753 102.649,279.416 104.924,279.416 107.226L279.416 109.529C279.416 110.006,279.585 111.354,280.23 111.803C280.343 111.888,281.045 112,281.073 112M281.831 104.11C282.28 102.734,282.926 101.498,283.488 100.206C284.723 97.37,286.885 95.264,288.711 92.878C289.637 91.698,290.424 90.406,291.013 89.087C291.013 89.311,291.069 89.564,291.069 89.789C291.069 92.4,290.002 94.787,288.346 96.865C286.97 98.578,285.313 100.066,283.797 101.61C283.01 102.369,282.365 103.239,281.831 104.11"/></g><g class="vf-stavenote" id="vf-auto27531" font-size="12pt"><path stroke-width="1.4" fill="none" stroke="#444" d="M318.689 70L338.197 70"/><g class="vf-stem" id="vf-auto27532" pointer-events="bounding-box"><path stroke-width="1.5" fill="none" d="M322.439 72L322.439 107"/></g><g class="vf-notehead" id="vf-auto27537" pointer-events="bounding-box"><path stroke="none" d="M314.076 81.543C314.356 81.599,314.609 81.627,314.89 81.627C318.765 81.627,324.549 76.348,324.437 72.08C324.325 71.041,324.353 69.609,322.247 68.766C321.657 68.485,321.011 68.373,320.309 68.373C315.985 68.373,311.296 73.343,310.959 76.657C310.959 76.909,310.931 77.134,310.931 77.387C310.931 79.409,311.829 81.037,314.076 81.543"/></g><g class="vf-notehead" id="vf-auto27536" pointer-events="bounding-box"><path stroke="none" d="M324.834 76.543C325.114 76.599,325.367 76.627,325.648 76.627C329.523 76.627,335.307 71.348,335.195 67.08C335.083 66.041,335.111 64.609,333.005 63.766C332.415 63.485,331.769 63.373,331.067 63.373C326.743 63.373,322.054 68.343,321.717 71.657C321.717 71.909,321.689 72.134,321.689 72.387C321.689 74.409,322.587 76.037,324.834 76.543"/></g><path stroke="none" d="M323.345 112C323.71 112,323.71 111.551,323.795 111.326C324.075 110.512,324.047 109.613,324.384 108.799C325.002 107.283,326.181 106.216,327.305 105.12C329.663 102.818,332.078 100.543,333.342 97.398C334.072 95.573,334.577 93.72,334.746 91.754C334.802 90.772,334.942 89.789,334.914 88.946C334.942 87.57,334.802 86.279,334.634 84.987C334.718 84.369,334.718 83.808,334.746 83.358C334.802 82.123,334.718 81.056,334.353 80.045C334.212 79.736,334.1 79.455,333.903 79.203C333.791 79.09,333.623 78.894,333.426 78.894L333.342 78.894C333.173 78.978,333.145 79.034,333.145 79.174C333.145 79.287,333.173 79.399,333.173 79.483C333.201 83.527,331.517 86.84,328.933 89.733C326.069 92.878,323.823 96.359,322.671 100.487C322.026 102.649,321.689 104.924,321.689 107.226L321.689 109.529C321.689 110.006,321.857 111.354,322.503 111.803C322.615 111.888,323.317 112,323.345 112M324.104 104.11C324.553 102.734,325.199 101.498,325.76 100.206C326.996 97.37,329.158 95.264,330.983 92.878C331.91 91.698,332.696 90.406,333.286 89.087C333.286 89.311,333.342 89.564,333.342 89.789C333.342 92.4,332.275 94.787,330.618 96.865C329.242 98.578,327.585 100.066,326.069 101.61C325.283 102.369,324.637 103.239,324.104 104.11"/></g><g class="vf-stavenote" id="vf-auto27539" font-size="12pt"><path stroke-width="1.4" fill="none" stroke="#444" d="M360.961 70L380.469 70"/><g class="vf-stem" id="vf-auto27540" pointer-events="bounding-box"><path stroke-width="1.5" fill="none" d="M364.711 72L364.711 107"/></g><g class="vf-notehead" id="vf-auto27545" pointer-events="bounding-box"><path stroke="none" d="M356.348 81.543C356.629 81.599,356.882 81.627,357.162 81.627C361.037 81.627,366.822 76.348,366.71 72.08C366.597 71.041,366.625 69.609,364.519 68.766C363.93 68.485,363.284 68.373,362.582 68.373C358.257 68.373,353.568 73.343,353.231 76.657C353.231 76.909,353.203 77.134,353.203 77.387C353.203 79.409,354.102 81.037,356.348 81.543"/></g><g class="vf-notehead" id="vf-auto27544" pointer-events="bounding-box"><path stroke="none" d="M367.106 76.543C367.387 76.599,367.64 76.627,367.92 76.627C371.795 76.627,377.58 71.348,377.468 67.08C377.355 66.041,377.383 64.609,375.277 63.766C374.688 63.485,374.042 63.373,373.34 63.373C369.016 63.373,364.326 68.343,363.989 71.657C363.989 71.909,363.961 72.134,363.961 72.387C363.961 74.409,364.86 76.037,367.106 76.543"/></g><path stroke="none" d="M365.618 112C365.983 112,365.983 111.551,366.067 111.326C366.348 110.512,366.32 109.613,366.657 108.799C367.275 107.283,368.454 106.216,369.577 105.12C371.936 102.818,374.351 100.543,375.614 97.398C376.344 95.573,376.85 93.72,377.018 91.754C377.075 90.772,377.215 89.789,377.187 88.946C377.215 87.57,377.075 86.279,376.906 84.987C376.99 84.369,376.99 83.808,377.018 83.358C377.075 82.123,376.99 81.056,376.625 80.045C376.485 79.736,376.373 79.455,376.176 79.203C376.064 79.09,375.895 78.894,375.699 78.894L375.614 78.894C375.446 78.978,375.418 79.034,375.418 79.174C375.418 79.287,375.446 79.399,375.446 79.483C375.474 83.527,373.789 86.84,371.206 89.733C368.342 92.878,366.095 96.359,364.944 100.487C364.298 102.649,363.961 104.924,363.961 107.226L363.961 109.529C363.961 110.006,364.13 111.354,364.775 111.803C364.888 111.888,365.59 112,365.618 112M366.376 104.11C366.825 102.734,367.471 101.498,368.033 100.206C369.268 97.37,371.43 95.264,373.256 92.878C374.182 91.698,374.969 90.406,375.558 89.087C375.558 89.311,375.614 89.564,375.614 89.789C375.614 92.4,374.547 94.787,372.891 96.865C371.515 98.578,369.858 100.066,368.342 101.61C367.555 102.369,366.91 103.239,366.376 104.11"/></g><g class="vf-stavenote" id="vf-auto27547" font-size="12pt"><g class="vf-stem" id="vf-auto27548" pointer-events="bounding-box"><path stroke-width="1.5" fill="none" d="M418.992 108L418.992 73"/></g><g class="vf-notehead" id="vf-auto27552" pointer-events="bounding-box"><path stroke="none" d="M409.879 116.543C410.159 116.599,410.412 116.627,410.693 116.627C414.568 116.627,420.352 111.348,420.24 107.08C420.128 106.041,420.156 104.609,418.05 103.766C417.46 103.485,416.814 103.373,416.112 103.373C411.788 103.373,407.099 108.343,406.762 111.657C406.762 111.909,406.734 112.134,406.734 112.387C406.734 114.409,407.632 116.037,409.879 116.543"/></g><g class="vf-notehead" id="vf-auto27553" pointer-events="bounding-box"><path stroke="none" d="M420.637 111.543C420.917 111.599,421.17 111.627,421.451 111.627C425.326 111.627,431.111 106.348,430.998 102.08C430.886 101.041,430.914 99.609,428.808 98.766C428.218 98.485,427.572 98.373,426.87 98.373C422.546 98.373,417.857 103.343,417.52 106.657C417.52 106.909,417.492 107.134,417.492 107.387C417.492 109.409,418.39 111.037,420.637 111.543"/></g><path stroke="none" d="M429.895 101.106C430.12 101.191,430.288 100.966,430.457 100.797C430.653 100.545,430.765 100.264,430.906 99.955C431.271 98.944,431.355 97.877,431.299 96.642C431.271 96.192,431.271 95.631,431.187 95.013C431.355 93.721,431.495 92.43,431.467 91.054C431.495 90.211,431.355 89.228,431.299 88.246C431.13 86.28,430.625 84.427,429.895 82.602C428.631 79.457,426.216 77.182,423.858 74.88C422.735 73.784,421.555 72.717,420.937 71.201C420.6 70.387,420.629 69.488,420.348 68.674C420.263 68.449,420.263 68,419.898 68C419.87 68,419.814 68.028,419.73 68.028C419.365 68.168,419 68.281,419 68.899C419 69.207,419.056 69.544,419.056 69.909C418.803 69.938,418.607 70.022,418.523 70.218C418.41 70.499,418.27 70.78,418.27 71.061C418.242 71.65,418.242 72.156,418.242 72.774C418.242 75.076,418.579 77.351,419.225 79.513C420.376 83.641,422.622 87.122,425.486 90.267C428.07 93.16,429.755 96.473,429.726 100.517C429.726 100.713,429.614 100.994,429.895 101.106M429.839 90.913C429.249 89.594,428.463 88.302,427.536 87.122C425.711 84.736,423.549 82.63,422.313 79.794C421.752 78.502,421.106 77.266,420.657 75.89C421.19 76.761,421.836 77.631,422.622 78.39C424.139 79.934,425.795 81.422,427.171 83.135C428.996 85.438,430.035 88.021,429.839 90.913"/></g><g class="vf-stavenote" id="vf-auto27555" font-size="12pt"><g class="vf-stem" id="vf-auto27556" pointer-events="bounding-box"><path stroke-width="1.5" fill="none" d="M461.264 108L461.264 73"/></g><g class="vf-notehead" id="vf-auto27560" pointer-events="bounding-box"><path stroke="none" d="M452.151 116.543C452.432 116.599,452.685 116.627,452.965 116.627C456.84 116.627,462.625 111.348,462.513 107.08C462.4 106.041,462.428 104.609,460.322 103.766C459.733 103.485,459.087 103.373,458.385 103.373C454.061 103.373,449.371 108.343,449.034 111.657C449.034 111.909,449.006 112.134,449.006 112.387C449.006 114.409,449.905 116.037,452.151 116.543"/></g><g class="vf-notehead" id="vf-auto27561" pointer-events="bounding-box"><path stroke="none" d="M462.909 111.543C463.19 111.599,463.443 111.627,463.724 111.627C467.599 111.627,473.383 106.348,473.271 102.08C473.158 101.041,473.186 99.609,471.08 98.766C470.491 98.485,469.845 98.373,469.143 98.373C464.819 98.373,460.129 103.343,459.792 106.657C459.792 106.909,459.764 107.134,459.764 107.387C459.764 109.409,460.663 111.037,462.909 111.543"/></g><path stroke="none" d="M472.167 101.106C472.392 101.191,472.561 100.966,472.729 100.797C472.926 100.545,473.038 100.264,473.178 99.955C473.543 98.944,473.628 97.877,473.571 96.642C473.543 96.192,473.543 95.631,473.459 95.013C473.628 93.721,473.768 92.43,473.74 91.054C473.768 90.211,473.628 89.228,473.571 88.246C473.403 86.28,472.898 84.427,472.167 82.602C470.904 79.457,468.489 77.182,466.13 74.88C465.007 73.784,463.828 72.717,463.21 71.201C462.873 70.387,462.901 69.488,462.62 68.674C462.536 68.449,462.536 68,462.171 68C462.143 68,462.087 68.028,462.002 68.028C461.637 68.168,461.272 68.281,461.272 68.899C461.272 69.207,461.329 69.544,461.329 69.909C461.076 69.938,460.879 70.022,460.795 70.218C460.683 70.499,460.542 70.78,460.542 71.061C460.514 71.65,460.514 72.156,460.514 72.774C460.514 75.076,460.851 77.351,461.497 79.513C462.648 83.641,464.895 87.122,467.759 90.267C470.342 93.16,472.027 96.473,471.999 100.517C471.999 100.713,471.887 100.994,472.167 101.106M472.111 90.913C471.522 89.594,470.735 88.302,469.809 87.122C467.984 84.736,465.821 82.63,464.586 79.794C464.024 78.502,463.378 77.266,462.929 75.89C463.463 76.761,464.108 77.631,464.895 78.39C466.411 79.934,468.068 81.422,469.444 83.135C471.269 85.438,472.308 88.021,472.111 90.913"/></g><g class="vf-stavenote" id="vf-auto27563" font-size="12pt"><g class="vf-stem" id="vf-auto27564" pointer-events="bounding-box"><path stroke-width="1.5" fill="none" d="M503.537 108L503.537 73"/></g><g class="vf-notehead" id="vf-auto27568" pointer-events="bounding-box"><path stroke="none" d="M494.424 116.543C494.704 116.599,494.957 116.627,495.238 116.627C499.113 116.627,504.897 111.348,504.785 107.08C504.673 106.041,504.701 104.609,502.595 103.766C502.005 103.485,501.359 103.373,500.657 103.373C496.333 103.373,491.644 108.343,491.307 111.657C491.307 111.909,491.279 112.134,491.279 112.387C491.279 114.409,492.177 116.037,494.424 116.543"/></g><g class="vf-notehead" id="vf-auto27569" pointer-events="bounding-box"><path stroke="none" d="M505.182 111.543C505.462 111.599,505.715 111.627,505.996 111.627C509.871 111.627,515.656 106.348,515.543 102.08C515.431 101.041,515.459 99.609,513.353 98.766C512.763 98.485,512.117 98.373,511.415 98.373C507.091 98.373,502.402 103.343,502.065 106.657C502.065 106.909,502.037 107.134,502.037 107.387C502.037 109.409,502.935 111.037,505.182 111.543"/></g><path stroke="none" d="M514.44 101.106C514.665 101.191,514.833 100.966,515.002 100.797C515.198 100.545,515.31 100.264,515.451 99.955C515.816 98.944,515.9 97.877,515.844 96.642C515.816 96.192,515.816 95.631,515.732 95.013C515.9 93.721,516.04 92.43,516.012 91.054C516.04 90.211,515.9 89.228,515.844 88.246C515.675 86.28,515.17 84.427,514.44 82.602C513.176 79.457,510.761 77.182,508.403 74.88C507.28 73.784,506.1 72.717,505.482 71.201C505.145 70.387,505.174 69.488,504.893 68.674C504.808 68.449,504.808 68,504.443 68C504.415 68,504.359 68.028,504.275 68.028C503.91 68.168,503.545 68.281,503.545 68.899C503.545 69.207,503.601 69.544,503.601 69.909C503.348 69.938,503.152 70.022,503.068 70.218C502.955 70.499,502.815 70.78,502.815 71.061C502.787 71.65,502.787 72.156,502.787 72.774C502.787 75.076,503.124 77.351,503.77 79.513C504.921 83.641,507.167 87.122,510.031 90.267C512.615 93.16,514.3 96.473,514.271 100.517C514.271 100.713,514.159 100.994,514.44 101.106M514.384 90.913C513.794 89.594,513.008 88.302,512.081 87.122C510.256 84.736,508.094 82.63,506.858 79.794C506.297 78.502,505.651 77.266,505.202 75.89C505.735 76.761,506.381 77.631,507.167 78.39C508.684 79.934,510.34 81.422,511.716 83.135C513.541 85.438,514.58 88.021,514.384 90.913"/></g><g class="vf-stavenote" id="vf-auto27571" font-size="12pt"><g class="vf-stem" id="vf-auto27572" pointer-events="bounding-box"><path stroke-width="1.5" fill="none" d="M545.809 108L545.809 70"/></g><g class="vf-notehead" id="vf-auto27575" pointer-events="bounding-box"><path stroke="none" d="M536.696 116.543C536.977 116.599,537.23 116.627,537.51 116.627C541.385 116.627,547.17 111.348,547.058 107.08C546.945 106.041,546.973 104.609,544.867 103.766C544.278 103.485,543.632 103.373,542.93 103.373C538.606 103.373,533.916 108.343,533.579 111.657C533.579 111.909,533.551 112.134,533.551 112.387C533.551 114.409,534.45 116.037,536.696 116.543"/></g><g class="vf-notehead" id="vf-auto27576" pointer-events="bounding-box"><path stroke="none" d="M547.454 111.543C547.735 111.599,547.988 111.627,548.268 111.627C552.144 111.627,557.928 106.348,557.816 102.08C557.703 101.041,557.731 99.609,555.625 98.766C555.036 98.485,554.39 98.373,553.688 98.373C549.364 98.373,544.674 103.343,544.337 106.657C544.337 106.909,544.309 107.134,544.309 107.387C544.309 109.409,545.208 111.037,547.454 111.543"/></g></g><text stroke="none" font-size="12pt" x="26.754" y="50">C</text><text stroke="none" font-size="12pt" x="74.808" y="50">L</text><text stroke="none" font-size="12pt" x="105.518" y="50">R</text><text stroke="none" font-size="12pt" x="153.572" y="50">C</text><text stroke="none" font-size="12pt" x="201.625" y="50">L</text><text stroke="none" font-size="12pt" x="232.335" y="50">R</text><text stroke="none" font-size="12pt" x="280.389" y="50">C</text><text stroke="none" font-size="12pt" x="328.443" y="50">L</text><text stroke="none" font-size="12pt" x="359.153" y="50">R</text><text stroke="none" font-size="12pt" x="407.206" y="50">C</text><text stroke="none" font-size="12pt" x="455.26" y="50">L</text><text stroke="none" font-size="12pt" x="485.97" y="50">R</text><text stroke="none" font-size="12pt" x="528.243" y="50">R</text></svg>