<svg xmlns="http://www.w3.org/2000/svg" stroke-width="0.3" stroke-dasharray="none" fill="black" stroke="black" font-family="Arial, sans-serif" font-size="10pt" font-weight="normal" font-style="normal" width="650" height="200" viewBox="0 0 650 200" style="width: 650px; height: 200px; border: none;"><g class="vf-stave" id="vf-auto43257" stroke-width="1" fill="#999999" stroke="#999999"><path fill="none" d="M0 40L640 40"/><path fill="none" d="M0 50L640 50"/><path fill="none" d="M0 60L640 60"/><path fill="none" d="M0 70L640 70"/><path fill="none" d="M0 80L640 80"/></g><g class="vf-stavebarline" id="vf-auto43258"><rect y="39.5" width="1" height="41" stroke="none"/></g><g class="vf-stavebarline" id="vf-auto43259"><rect x="640" y="39.5" width="1" height="41" stroke="none"/></g><g class="vf-stavenote" id="vf-auto43260"><path stroke-width="1.4" fill="none" stroke="#444" d="M14 90L31.934 90"/><g class="vf-stem" id="vf-auto43261" pointer-events="bounding-box"><path stroke-width="1.5" fill="none" d="M28.184 88L28.184 55"/></g><g class="vf-notehead" id="vf-auto43263" pointer-events="bounding-box"><path stroke="none" d="M20.931 95.054C24.525 95.054,28.934 91.741,28.934 88.315C28.934 86.237,27.305 84.946,25.003 84.946C20.566 84.946,17 88.231,17 91.685C17 93.791,18.741 95.054,20.931 95.054"/></g></g><g class="vf-stavenote" id="vf-auto43264"><path stroke-width="1.4" fill="none" stroke="#444" d="M163.767 90L181.701 90"/><g class="vf-stem" id="vf-auto43265" pointer-events="bounding-box"><path stroke-width="1.5" fill="none" d="M177.951 88L177.951 55"/></g><g class="vf-notehead" id="vf-auto43267" pointer-events="bounding-box"><path stroke="none" d="M170.698 95.054C174.292 95.054,178.701 91.741,178.701 88.315C178.701 86.237,177.072 84.946,174.769 84.946C170.333 84.946,166.767 88.231,166.767 91.685C166.767 93.791,168.507 95.054,170.698 95.054"/></g></g><g class="vf-stavenote" id="vf-auto43268"><path stroke-width="1.4" fill="none" stroke="#444" d="M313.533 90L331.467 90"/><g class="vf-stem" id="vf-auto43269" pointer-events="bounding-box"><path stroke-width="1.5" fill="none" d="M327.717 88L327.717 55"/></g><g class="vf-notehead" id="vf-auto43271" pointer-events="bounding-box"><path stroke="none" d="M320.464 95.054C324.058 95.054,328.467 91.741,328.467 88.315C328.467 86.237,326.838 84.946,324.536 84.946C320.099 84.946,316.533 88.231,316.533 91.685C316.533 93.791,318.274 95.054,320.464 95.054"/></g></g><g class="vf-stavenote" id="vf-auto43272"><path stroke-width="1.4" fill="none" stroke="#444" d="M463.3 90L481.234 90"/><g class="vf-stem" id="vf-auto43273" pointer-events="bounding-box"><path stroke-width="1.5" fill="none" d="M477.484 88L477.484 55"/></g><g class="vf-notehead" id="vf-auto43275" pointer-events="bounding-box"><path stroke="none" d="M470.231 95.054C473.825 95.054,478.234 91.741,478.234 88.315C478.234 86.237,476.605 84.946,474.302 84.946C469.866 84.946,466.3 88.231,466.3 91.685C466.3 93.791,468.04 95.054,470.231 95.054"/></g></g><path stroke="none" d="M17 12Q19 7,21 10Q23 13,25 10Q27 7,29 10Q31 13,33 10Q35 7,37 10Q39 13,41 10Q43 7,45 10Q47 13,49 10Q51 7,53 10Q55 13,57 10Q59 7,61 10Q63 13,65 10Q67 7,69 10Q71 13,73 10Q75 7,77 10Q79 13,81 10Q83 7,85 10Q87 13,89 10Q91 7,93 10Q95 13,97 10Q99 7,101 10Q103 13,105 10Q107 7,109 10Q111 13,113 10Q115 7,117 10Q119 13,121 10Q123 7,125 10Q127 13,129 10Q131 7,133 10Q135 13,137 10Q139 7,141 10Q143 13,145 10Q147 7,149 10Q151 13,153 10Q155 7,157 10Q159 13,161 10Q163 7,165 10Q167 13,169 10Q171 7,173 10Q175 13,177 10Q179 7,181 10Q183 13,185 10Q187 7,189 10Q191 13,193 10Q195 7,197 10Q199 13,201 10Q203 7,205 10Q207 13,209 10Q211 7,213 10Q215 13,217 10Q219 7,221 10Q223 13,225 10Q227 7,229 10Q231 13,233 10Q235 7,237 10Q239 13,241 10Q243 7,245 10Q247 13,249 10Q251 7,253 10Q255 13,257 10Q259 7,261 10Q263 13,265 10Q267 7,269 10Q271 13,273 10Q275 7,277 10Q279 13,281 10Q283 7,285 10Q287 13,289 10Q291 7,293 10Q295 13,297 10Q299 7,301 10Q303 13,305 10Q307 7,309 10Q311 13,313 10Q315 7,317 10Q319 13,321 10Q323 7,325 10Q327 13,329 10Q331 7,333 10Q335 13,337 10Q339 7,341 10Q343 13,345 10Q347 7,349 10Q351 13,353 10Q355 7,357 10Q359 13,361 10Q363 7,365 10Q367 13,369 10Q371 7,373 10Q375 13,377 10Q379 7,381 10Q383 13,385 10Q387 7,389 10Q391 13,393 10Q395 7,397 10Q399 13,401 10Q403 7,405 10Q407 13,409 10Q411 7,413 10Q415 13,417 10Q419 7,421 10Q423 13,425 10Q427 7,429 10Q431 13,433 10Q435 7,437 10Q439 13,441 10Q443 7,445 10Q447 13,449 10Q447 15,445 12Q443 9,441 12Q439 15,437 12Q435 9,433 12Q431 15,429 12Q427 9,425 12Q423 15,421 12Q419 9,417 12Q415 15,413 12Q411 9,409 12Q407 15,405 12Q403 9,401 12Q399 15,397 12Q395 9,393 12Q391 15,389 12Q387 9,385 12Q383 15,381 12Q379 9,377 12Q375 15,373 12Q371 9,369 12Q367 15,365 12Q363 9,361 12Q359 15,357 12Q355 9,353 12Q351 15,349 12Q347 9,345 12Q343 15,341 12Q339 9,337 12Q335 15,333 12Q331 9,329 12Q327 15,325 12Q323 9,321 12Q319 15,317 12Q315 9,313 12Q311 15,309 12Q307 9,305 12Q303 15,301 12Q299 9,297 12Q295 15,293 12Q291 9,289 12Q287 15,285 12Q283 9,281 12Q279 15,277 12Q275 9,273 12Q271 15,269 12Q267 9,265 12Q263 15,261 12Q259 9,257 12Q255 15,253 12Q251 9,249 12Q247 15,245 12Q243 9,241 12Q239 15,237 12Q235 9,233 12Q231 15,229 12Q227 9,225 12Q223 15,221 12Q219 9,217 12Q215 15,213 12Q211 9,209 12Q207 15,205 12Q203 9,201 12Q199 15,197 12Q195 9,193 12Q191 15,189 12Q187 9,185 12Q183 15,181 12Q179 9,177 12Q175 15,173 12Q171 9,169 12Q167 15,165 12Q163 9,161 12Q159 15,157 12Q155 9,153 12Q151 15,149 12Q147 9,145 12Q143 15,141 12Q139 9,137 12Q135 15,133 12Q131 9,129 12Q127 15,125 12Q123 9,121 12Q119 15,117 12Q115 9,113 12Q111 15,109 12Q107 9,105 12Q103 15,101 12Q99 9,97 12Q95 15,93 12Q91 9,89 12Q87 15,85 12Q83 9,81 12Q79 15,77 12Q75 9,73 12Q71 15,69 12Q67 9,65 12Q63 15,61 12Q59 9,57 12Q55 15,53 12Q51 9,49 12Q47 15,45 12Q43 9,41 12Q39 15,37 12Q35 9,33 12Q31 15,29 12Q27 9,25 12Q23 15,21 12Q19 9,17 12"/></svg>