<svg xmlns="http://www.w3.org/2000/svg" stroke-width="0.3" stroke-dasharray="none" fill="black" stroke="black" font-family="Arial, sans-serif" font-size="10pt" font-weight="normal" font-style="normal" width="700" height="150" viewBox="0 0 700 150" style="width: 700px; height: 150px; border: none;"><g class="vf-stave" id="vf-auto18392" stroke-width="1" fill="#999999" stroke="#999999"><path fill="none" d="M0 40L690 40"/><path fill="none" d="M0 50L690 50"/><path fill="none" d="M0 60L690 60"/><path fill="none" d="M0 70L690 70"/><path fill="none" d="M0 80L690 80"/></g><g class="vf-stavebarline" id="vf-auto18393"><rect y="39.5" width="1" height="41" stroke="none"/></g><g class="vf-stavebarline" id="vf-auto18394"><rect x="690" y="39.5" width="1" height="41" stroke="none"/></g><g class="vf-keysignature" id="vf-auto18395"><path stroke="none" d="M5.465 66.703C5.602 66.867,5.711 66.895,5.821 66.895C5.958 66.895,6.067 66.813,6.067 66.813C7.244 66.156,8.201 65.089,9.186 64.405C12.688 61.97,13.892 59.562,13.892 57.756C13.892 55.513,12.168 54.09,10.363 53.981C9.679 53.981,8.748 54.282,8.201 54.637C7.955 54.829,7.517 55.185,7.326 55.185C7.244 55.185,7.216 55.185,7.134 55.157C6.86 55.048,6.696 54.747,6.696 54.473C6.724 53.625,6.97 44.159,6.97 43.365C6.97 42.927,6.614 42.708,6.231 42.708C5.657 42.708,5.027 43.092,5 43.803C5 43.803,5.164 66.293,5.465 66.703M6.86 63.201C6.86 63.201,6.724 60.821,6.724 59.261C6.724 58.632,6.778 58.14,6.806 58.003C7.079 57.209,8.666 56.06,9.569 56.06C10.718 56.06,11.183 57.373,11.183 58.358C11.183 60.465,9.378 62.599,7.681 63.666C7.517 63.748,7.408 63.776,7.298 63.776C6.943 63.776,6.86 63.393,6.86 63.201"/><path stroke="none" d="M15.357 51.703C15.494 51.867,15.603 51.895,15.713 51.895C15.85 51.895,15.959 51.813,15.959 51.813C17.136 51.156,18.093 50.089,19.078 49.405C22.58 46.97,23.784 44.562,23.784 42.756C23.784 40.513,22.06 39.09,20.255 38.981C19.571 38.981,18.64 39.282,18.093 39.637C17.847 39.829,17.409 40.185,17.218 40.185C17.136 40.185,17.108 40.185,17.026 40.157C16.752 40.048,16.588 39.747,16.588 39.473C16.616 38.625,16.862 29.159,16.862 28.365C16.862 27.927,16.506 27.708,16.123 27.708C15.549 27.708,14.919 28.092,14.892 28.803C14.892 28.803,15.056 51.293,15.357 51.703M16.752 48.201C16.752 48.201,16.616 45.821,16.616 44.261C16.616 43.632,16.67 43.14,16.698 43.003C16.971 42.209,18.558 41.06,19.461 41.06C20.61 41.06,21.075 42.373,21.075 43.358C21.075 45.465,19.27 47.599,17.573 48.666C17.409 48.748,17.3 48.776,17.19 48.776C16.835 48.776,16.752 48.393,16.752 48.201"/><path stroke="none" d="M25.249 71.703C25.386 71.867,25.495 71.895,25.605 71.895C25.742 71.895,25.851 71.813,25.851 71.813C27.028 71.156,27.985 70.089,28.97 69.405C32.472 66.97,33.676 64.562,33.676 62.756C33.676 60.513,31.952 59.09,30.147 58.981C29.463 58.981,28.532 59.282,27.985 59.637C27.739 59.829,27.301 60.185,27.11 60.185C27.028 60.185,27 60.185,26.918 60.157C26.644 60.048,26.48 59.747,26.48 59.473C26.508 58.625,26.754 49.159,26.754 48.365C26.754 47.927,26.398 47.708,26.015 47.708C25.441 47.708,24.811 48.092,24.784 48.803C24.784 48.803,24.948 71.293,25.249 71.703M26.644 68.201C26.644 68.201,26.508 65.821,26.508 64.261C26.508 63.632,26.562 63.14,26.59 63.003C26.863 62.209,28.45 61.06,29.353 61.06C30.502 61.06,30.967 62.373,30.967 63.358C30.967 65.465,29.162 67.599,27.465 68.666C27.301 68.748,27.192 68.776,27.082 68.776C26.727 68.776,26.644 68.393,26.644 68.201"/><path stroke="none" d="M35.141 56.703C35.278 56.867,35.387 56.895,35.497 56.895C35.634 56.895,35.743 56.813,35.743 56.813C36.92 56.156,37.877 55.089,38.862 54.405C42.364 51.97,43.568 49.562,43.568 47.756C43.568 45.513,41.844 44.09,40.039 43.981C39.355 43.981,38.424 44.282,37.877 44.637C37.631 44.829,37.193 45.185,37.002 45.185C36.92 45.185,36.892 45.185,36.81 45.157C36.536 45.048,36.372 44.747,36.372 44.473C36.4 43.625,36.646 34.159,36.646 33.365C36.646 32.927,36.29 32.708,35.907 32.708C35.333 32.708,34.703 33.092,34.676 33.803C34.676 33.803,34.84 56.293,35.141 56.703M36.536 53.201C36.536 53.201,36.4 50.821,36.4 49.261C36.4 48.632,36.454 48.14,36.482 48.003C36.755 47.209,38.342 46.06,39.245 46.06C40.394 46.06,40.859 47.373,40.859 48.358C40.859 50.465,39.054 52.599,37.357 53.666C37.193 53.748,37.084 53.776,36.974 53.776C36.619 53.776,36.536 53.393,36.536 53.201"/></g><g class="vf-stavenote" id="vf-auto18396"><path stroke-width="1.4" fill="none" stroke="#444" d="M53.568 90L71.502 90"/><g class="vf-stem" id="vf-auto18397" pointer-events="bounding-box"><path stroke-width="1.5" fill="none" d="M67.752 88L67.752 55"/></g><g class="vf-notehead" id="vf-auto18399" pointer-events="bounding-box"><path stroke="none" d="M60.499 95.054C64.093 95.054,68.502 91.741,68.502 88.315C68.502 86.237,66.873 84.946,64.571 84.946C60.134 84.946,56.568 88.231,56.568 91.685C56.568 93.791,58.309 95.054,60.499 95.054"/></g></g><g class="vf-stavenote" id="vf-auto18400"><g class="vf-stem" id="vf-auto18401" pointer-events="bounding-box"><path stroke-width="1.5" fill="none" d="M149.326 83L149.326 50"/></g><g class="vf-notehead" id="vf-auto18403" pointer-events="bounding-box"><path stroke="none" d="M142.073 90.054C145.667 90.054,150.076 86.741,150.076 83.315C150.076 81.237,148.447 79.946,146.145 79.946C141.708 79.946,138.142 83.231,138.142 86.685C138.142 88.791,139.883 90.054,142.073 90.054"/><path stroke="none" d="M134.075 77.859C133.993 77.859,133.965 77.914,133.911 77.914C133.911 77.914,131.394 78.817,130.381 78.817C130.135 78.817,129.971 78.762,129.971 78.625L129.971 72.031C129.971 71.758,129.752 71.566,129.506 71.566L128.986 71.566C128.712 71.566,128.521 71.758,128.521 72.031L128.521 92.332C128.521 92.551,128.63 92.688,128.877 92.688L128.959 92.633C128.986 92.633,129.068 92.633,129.123 92.606C129.67 92.36,131.859 91.43,133.008 91.43C133.418 91.43,133.692 91.539,133.692 91.867L133.692 97.722C133.692 97.996,133.883 98.188,134.157 98.188L134.677 98.188C134.896 98.188,135.142 97.996,135.142 97.722L135.142 77.941C135.142 77.75,134.978 77.64,134.814 77.64C134.786 77.64,134.704 77.64,134.677 77.668M129.971 83.468C129.971 82.921,132.379 81.881,133.336 81.881C133.555 81.881,133.692 81.936,133.692 82.072L133.692 86.149C133.692 86.86,131.448 87.763,130.463 87.763C130.162 87.763,129.971 87.681,129.971 87.517"/></g></g><g class="vf-stavenote" id="vf-auto18404"><g class="vf-stem" id="vf-auto18405" pointer-events="bounding-box"><path stroke-width="1.5" fill="none" d="M230.9 78L230.9 45"/></g><g class="vf-notehead" id="vf-auto18407" pointer-events="bounding-box"><path stroke="none" d="M223.647 85.054C227.241 85.054,231.65 81.741,231.65 78.315C231.65 76.237,230.021 74.946,227.719 74.946C223.282 74.946,219.716 78.231,219.716 81.685C219.716 83.791,221.457 85.054,223.647 85.054"/><path stroke="none" d="M215.649 72.859C215.567 72.859,215.539 72.914,215.485 72.914C215.485 72.914,212.968 73.817,211.955 73.817C211.709 73.817,211.545 73.762,211.545 73.625L211.545 67.031C211.545 66.758,211.326 66.566,211.08 66.566L210.56 66.566C210.286 66.566,210.095 66.758,210.095 67.031L210.095 87.332C210.095 87.551,210.204 87.688,210.45 87.688L210.533 87.633C210.56 87.633,210.642 87.633,210.697 87.606C211.244 87.36,213.433 86.43,214.582 86.43C214.992 86.43,215.266 86.539,215.266 86.867L215.266 92.722C215.266 92.996,215.457 93.188,215.731 93.188L216.251 93.188C216.47 93.188,216.716 92.996,216.716 92.722L216.716 72.941C216.716 72.75,216.552 72.64,216.388 72.64C216.36 72.64,216.278 72.64,216.251 72.668M211.545 78.468C211.545 77.921,213.953 76.881,214.91 76.881C215.129 76.881,215.266 76.936,215.266 77.072L215.266 81.149C215.266 81.86,213.022 82.763,212.037 82.763C211.736 82.763,211.545 82.681,211.545 82.517"/></g></g><g class="vf-stavenote" id="vf-auto18408"><g class="vf-stem" id="vf-auto18409" pointer-events="bounding-box"><path stroke-width="1.5" fill="none" d="M312.474 73L312.474 40"/></g><g class="vf-notehead" id="vf-auto18411" pointer-events="bounding-box"><path stroke="none" d="M305.221 80.054C308.815 80.054,313.224 76.741,313.224 73.315C313.224 71.237,311.595 69.946,309.293 69.946C304.856 69.946,301.29 73.231,301.29 76.685C301.29 78.791,303.031 80.054,305.221 80.054"/></g></g><g class="vf-stavenote" id="vf-auto18412"><g class="vf-stem" id="vf-auto18413" pointer-events="bounding-box"><path stroke-width="1.5" fill="none" d="M394.048 68L394.048 35"/></g><g class="vf-notehead" id="vf-auto18415" pointer-events="bounding-box"><path stroke="none" d="M386.795 75.054C390.389 75.054,394.798 71.741,394.798 68.315C394.798 66.237,393.169 64.946,390.867 64.946C386.43 64.946,382.864 68.231,382.864 71.685C382.864 73.791,384.605 75.054,386.795 75.054"/></g></g><g class="vf-stavenote" id="vf-auto18416"><g class="vf-stem" id="vf-auto18417" pointer-events="bounding-box"><path stroke-width="1.5" fill="none" d="M475.622 63L475.622 30"/></g><g class="vf-notehead" id="vf-auto18419" pointer-events="bounding-box"><path stroke="none" d="M468.369 70.054C471.963 70.054,476.372 66.741,476.372 63.315C476.372 61.237,474.743 59.946,472.441 59.946C468.004 59.946,464.438 63.231,464.438 66.685C464.438 68.791,466.179 70.054,468.369 70.054"/><path stroke="none" d="M460.371 57.859C460.289 57.859,460.261 57.914,460.207 57.914C460.207 57.914,457.689 58.817,456.677 58.817C456.431 58.817,456.267 58.762,456.267 58.625L456.267 52.031C456.267 51.758,456.048 51.566,455.802 51.566L455.282 51.566C455.008 51.566,454.817 51.758,454.817 52.031L454.817 72.332C454.817 72.551,454.926 72.688,455.172 72.688L455.254 72.633C455.282 72.633,455.364 72.633,455.419 72.606C455.966 72.36,458.155 71.43,459.304 71.43C459.714 71.43,459.988 71.539,459.988 71.867L459.988 77.722C459.988 77.996,460.179 78.188,460.453 78.188L460.973 78.188C461.192 78.188,461.438 77.996,461.438 77.722L461.438 57.941C461.438 57.75,461.274 57.64,461.109 57.64C461.082 57.64,461 57.64,460.973 57.668M456.267 63.468C456.267 62.921,458.674 61.881,459.632 61.881C459.851 61.881,459.988 61.936,459.988 62.072L459.988 66.149C459.988 66.86,457.744 67.763,456.759 67.763C456.458 67.763,456.267 67.681,456.267 67.517"/></g></g><g class="vf-stavenote" id="vf-auto18420"><g class="vf-stem" id="vf-auto18421" pointer-events="bounding-box"><path stroke-width="1.5" fill="none" d="M557.196 58L557.196 25"/></g><g class="vf-notehead" id="vf-auto18423" pointer-events="bounding-box"><path stroke="none" d="M549.943 65.054C553.537 65.054,557.946 61.741,557.946 58.315C557.946 56.237,556.317 54.946,554.015 54.946C549.578 54.946,546.012 58.231,546.012 61.685C546.012 63.791,547.753 65.054,549.943 65.054"/><path stroke="none" d="M541.945 52.859C541.863 52.859,541.835 52.914,541.781 52.914C541.781 52.914,539.263 53.817,538.251 53.817C538.005 53.817,537.841 53.762,537.841 53.625L537.841 47.031C537.841 46.758,537.622 46.566,537.376 46.566L536.856 46.566C536.582 46.566,536.391 46.758,536.391 47.031L536.391 67.332C536.391 67.551,536.5 67.688,536.746 67.688L536.828 67.633C536.856 67.633,536.938 67.633,536.993 67.606C537.54 67.36,539.729 66.43,540.878 66.43C541.288 66.43,541.562 66.539,541.562 66.867L541.562 72.722C541.562 72.996,541.753 73.188,542.027 73.188L542.547 73.188C542.765 73.188,543.012 72.996,543.012 72.722L543.012 52.941C543.012 52.75,542.848 52.64,542.683 52.64C542.656 52.64,542.574 52.64,542.547 52.668M537.841 58.468C537.841 57.921,540.248 56.881,541.206 56.881C541.425 56.881,541.562 56.936,541.562 57.072L541.562 61.149C541.562 61.86,539.318 62.763,538.333 62.763C538.032 62.763,537.841 62.681,537.841 62.517"/></g></g><g class="vf-stavenote" id="vf-auto18424"><g class="vf-stem" id="vf-auto18425" pointer-events="bounding-box"><path stroke-width="1.5" fill="none" d="M638.77 53L638.77 20"/></g><g class="vf-notehead" id="vf-auto18427" pointer-events="bounding-box"><path stroke="none" d="M631.517 60.054C635.111 60.054,639.52 56.741,639.52 53.315C639.52 51.237,637.891 49.946,635.588 49.946C631.152 49.946,627.586 53.231,627.586 56.685C627.586 58.791,629.327 60.054,631.517 60.054"/></g></g></svg>