<svg xmlns="http://www.w3.org/2000/svg" stroke-width="0.3" stroke-dasharray="none" fill="black" stroke="black" font-family="Arial, sans-serif" font-size="10pt" font-weight="normal" font-style="normal" width="450" height="140" viewBox="0 0 450 140" style="width: 450px; height: 140px; border: none;"><g class="vf-stave" id="vf-auto7105" stroke-width="1" fill="#999999" stroke="#999999"><path fill="none" d="M0 40L440 40"/><path fill="none" d="M0 50L440 50"/><path fill="none" d="M0 60L440 60"/><path fill="none" d="M0 70L440 70"/><path fill="none" d="M0 80L440 80"/></g><g class="vf-stavebarline" id="vf-auto7106"><rect y="39.5" width="1" height="41" stroke="none"/></g><g class="vf-stavebarline" id="vf-auto7107"><rect x="440" y="39.5" width="1" height="41" stroke="none"/></g><g class="vf-stavenote" id="vf-auto7108"><g class="vf-notehead" id="vf-auto7114" pointer-events="bounding-box"><path stroke="none" d="M17 66.685C17 68.426,18.264 70.391,21.521 70.391C25.733 70.391,30.141 66.938,30.141 63.371C30.141 60.985,28.12 59.665,25.621 59.665C21.689 59.665,17 62.978,17 66.685"/></g></g><g class="vf-stavenote" id="vf-auto7116"><g class="vf-notehead" id="vf-auto7122" pointer-events="bounding-box"><path stroke="none" d="M70.75 61.685C70.75 63.426,72.014 65.391,75.271 65.391C79.483 65.391,83.891 61.938,83.891 58.371C83.891 55.985,81.87 54.665,79.371 54.665C75.439 54.665,70.75 57.978,70.75 61.685"/></g></g><g class="vf-stavenote" id="vf-auto7124"><path stroke-width="1.4" fill="none" stroke="#444" d="M121.5 90L140.641 90"/><g class="vf-notehead" id="vf-auto7130" pointer-events="bounding-box"><path stroke="none" d="M124.5 91.685C124.5 93.426,125.764 95.391,129.021 95.391C133.233 95.391,137.641 91.938,137.641 88.371C137.641 85.985,135.62 84.665,133.121 84.665C129.189 84.665,124.5 87.978,124.5 91.685"/></g></g><g class="vf-stavenote" id="vf-auto7132"><g class="vf-notehead" id="vf-auto7138" pointer-events="bounding-box"><path stroke="none" d="M178.25 86.685C178.25 88.426,179.514 90.391,182.771 90.391C186.983 90.391,191.391 86.938,191.391 83.371C191.391 80.985,189.37 79.665,186.871 79.665C182.939 79.665,178.25 82.978,178.25 86.685"/></g></g><g class="vf-stavenote" id="vf-auto7140"><g class="vf-notehead" id="vf-auto7146" pointer-events="bounding-box"><path stroke="none" d="M232 71.685C232 73.426,233.264 75.391,236.521 75.391C240.733 75.391,245.141 71.938,245.141 68.371C245.141 65.985,243.12 64.665,240.621 64.665C236.689 64.665,232 67.978,232 71.685"/></g></g><g class="vf-stavenote" id="vf-auto7148"><g class="vf-notehead" id="vf-auto7154" pointer-events="bounding-box"><path stroke="none" d="M285.75 66.685C285.75 68.426,287.014 70.391,290.271 70.391C294.483 70.391,298.891 66.938,298.891 63.371C298.891 60.985,296.87 59.665,294.371 59.665C290.439 59.665,285.75 62.978,285.75 66.685"/></g></g><g class="vf-stavenote" id="vf-auto7156"><g class="vf-notehead" id="vf-auto7162" pointer-events="bounding-box"><path stroke="none" d="M339.5 61.685C339.5 63.426,340.764 65.391,344.021 65.391C348.233 65.391,352.641 61.938,352.641 58.371C352.641 55.985,350.62 54.665,348.121 54.665C344.189 54.665,339.5 57.978,339.5 61.685"/></g></g><g class="vf-stavenote" id="vf-auto7164"><path stroke-width="1.4" fill="none" stroke="#444" d="M390.25 90L409.391 90"/><g class="vf-notehead" id="vf-auto7170" pointer-events="bounding-box"><path stroke="none" d="M393.25 91.685C393.25 93.426,394.514 95.391,397.771 95.391C401.983 95.391,406.391 91.938,406.391 88.371C406.391 85.985,404.37 84.665,401.871 84.665C397.939 84.665,393.25 87.978,393.25 91.685"/></g></g><g class="vf-stem" id="vf-auto7109" pointer-events="bounding-box"><path stroke-width="1.5" fill="none" d="M29.391 63L29.391 13.656"/></g><g class="vf-stem" id="vf-auto7117" pointer-events="bounding-box"><path stroke-width="1.5" fill="none" d="M83.141 58L83.141 25.75"/></g><g class="vf-stem" id="vf-auto7125" pointer-events="bounding-box"><path stroke-width="1.5" fill="none" d="M136.891 88L136.891 37.844"/></g><g class="vf-stem" id="vf-auto7133" pointer-events="bounding-box"><path stroke-width="1.5" fill="none" d="M190.641 83L190.641 49.938"/></g><g class="vf-beam" id="vf-auto7173"><path stroke="none" d="M28.641 12.738L28.641 17.738L190.891 54.019L190.891 49.019Z"/></g><g class="vf-stem" id="vf-auto7141" pointer-events="bounding-box"><path stroke-width="1.5" fill="none" d="M244.391 68L244.391 33.813"/></g><g class="vf-stem" id="vf-auto7149" pointer-events="bounding-box"><path stroke-width="1.5" fill="none" d="M298.141 63L298.141 29.781"/></g><g class="vf-stem" id="vf-auto7157" pointer-events="bounding-box"><path stroke-width="1.5" fill="none" d="M351.891 58L351.891 25.75"/></g><g class="vf-stem" id="vf-auto7165" pointer-events="bounding-box"><path stroke-width="1.5" fill="none" d="M405.641 88L405.641 21.719"/></g><g class="vf-beam" id="vf-auto7174"><path stroke="none" d="M243.641 33.119L243.641 38.119L405.891 26.025L405.891 21.025Z"/></g></svg>