<svg xmlns="http://www.w3.org/2000/svg" stroke-width="0.3" stroke-dasharray="none" fill="black" stroke="black" font-family="Arial, sans-serif" font-size="10pt" font-weight="normal" font-style="normal" width="600" height="200" viewBox="0 0 600 200" style="width: 600px; height: 200px; border: none;"><g class="vf-stave" id="vf-auto15391" stroke-width="1" fill="#999999" stroke="#999999" font-family="Arial"><path fill="none" d="M10 62L560 62"/><path fill="none" d="M10 75L560 75"/><path fill="none" d="M10 88L560 88"/><path fill="none" d="M10 101L560 101"/><path fill="none" d="M10 114L560 114"/><path fill="none" d="M10 127L560 127"/></g><g class="vf-stavebarline" id="vf-auto15392" font-family="Arial"><rect x="10" y="61.5" width="1" height="66" stroke="none"/></g><g class="vf-stavebarline" id="vf-auto15393" font-family="Arial"><rect x="560" y="61.5" width="1" height="66" stroke="none"/></g><g class="vf-tabnote" id="vf-auto15394" pointer-events="bounding-box" font-family="Arial"><rect x="28.703" y="85" width="11.422" height="6" fill="#FFF" stroke="none"/><text stroke="none" font-family="Arial, sans-serif" x="30.703" y="93">6</text><rect x="25" y="98" width="18.828" height="6" fill="#FFF" stroke="none"/><text stroke="none" font-family="Arial, sans-serif" x="27" y="106">25</text><g class="vf-stem" id="vf-auto15395" pointer-events="bounding-box"><path stroke-width="1.5" fill="none" d="M34.414 53.5L34.414 20.5"/></g><path stroke="none" d="M48.828 55.5 A2 2 0 0 0 44.828 55.5 A2 2 0 0 0 48.828 55.5"/></g><g class="vf-tabnote" id="vf-auto15396" pointer-events="bounding-box" font-family="Arial"><rect x="186.044" y="72" width="18.828" height="6" fill="#FFF" stroke="none"/><text stroke="none" font-family="Arial, sans-serif" x="188.044" y="80">10</text><rect x="186.044" y="111" width="18.828" height="6" fill="#FFF" stroke="none"/><text stroke="none" font-family="Arial, sans-serif" x="188.044" y="119">12</text><g class="vf-stem" id="vf-auto15397" pointer-events="bounding-box"><path stroke-width="1.5" fill="none" d="M195.458 53.5L195.458 20.5"/></g><path stroke="none" d="M204.34 52.455C204.34 52.455,205.379 48.608,205.379 45.435C205.379 40.381,203.273 35.635,200.745 31.592C198.667 28.39,196.983 24.909,196.337 21.034C196.196 20.388,195.888 20.135,195.466 20.135C195.045 20.135,194.708 20.247,194.708 20.753L194.708 30.412C197.376 30.89,201.223 36.393,202.683 39.819C203.273 41.195,203.638 43.498,203.638 45.884C203.638 47.71,203.357 49.619,202.683 51.444C202.599 51.669,202.543 51.865,202.543 52.034C202.543 52.68,202.964 53.045,203.188 53.213C203.441 53.382,204.143 53.129,204.34 52.455"/></g><g class="vf-tabnote" id="vf-auto15399" pointer-events="bounding-box" font-family="Arial"><rect x="276.606" y="59" width="11.422" height="6" fill="#FFF" stroke="none"/><text stroke="none" font-family="Arial, sans-serif" x="278.606" y="67">6</text><rect x="276.606" y="98" width="11.422" height="6" fill="#FFF" stroke="none"/><text stroke="none" font-family="Arial, sans-serif" x="278.606" y="106">5</text><g class="vf-stem" id="vf-auto15400" pointer-events="bounding-box"><path stroke-width="1.5" fill="none" d="M282.317 135.5L282.317 168.5"/></g><path stroke="none" d="M293.028 133.5 A2 2 0 0 0 289.028 133.5 A2 2 0 0 0 293.028 133.5"/><path stroke="none" d="M299.028 133.5 A2 2 0 0 0 295.028 133.5 A2 2 0 0 0 299.028 133.5"/></g><g class="vf-tabnote" id="vf-auto15401" pointer-events="bounding-box" font-family="Arial"><rect x="462.577" y="59" width="11.422" height="6" fill="#FFF" stroke="none"/><text stroke="none" font-family="Arial, sans-serif" x="464.577" y="67">6</text><rect x="462.577" y="98" width="11.422" height="6" fill="#FFF" stroke="none"/><text stroke="none" font-family="Arial, sans-serif" x="464.577" y="106">5</text><g class="vf-stem" id="vf-auto15402" pointer-events="bounding-box"><path stroke-width="1.5" fill="none" d="M468.288 135.5L468.288 168.5"/></g><path stroke="none" d="M477.253 136.713C477.843 140.111,477.843 143.79,476.299 146.935C473.519 152.607,470.233 152.719,467.734 152.803L467.538 152.803L467.538 168.472C467.538 168.668,467.818 168.865,468.212 168.865C468.52 168.865,468.942 168.781,469.026 168.332C470.009 162.098,477.983 160.385,478.938 154.011C479.022 153.59,479.05 153.084,479.05 152.579C479.05 150.108,478.18 147.665,478.04 147.44C478.012 147.356,478.012 147.272,478.012 147.159C478.012 146.991,478.04 146.906,478.04 146.794C479.5 143.762,479.556 139.802,478.91 136.545C478.685 135.618,478.405 135.674,477.927 135.674C477.45 135.703,477.113 136.04,477.253 136.713M476.664 150.051C476.888 150.051,477.169 150.192,477.197 150.332C477.394 150.641,477.394 151.034,477.478 151.343C477.534 151.652,477.534 151.933,477.534 152.157C477.534 153.505,477.169 154.713,476.439 155.752C475.091 157.745,472.508 160.02,470.037 160.02L469.728 160.02C469.391 160.02,469.166 159.795,469.166 159.599C469.166 159.571,469.166 159.514,469.194 159.486C470.037 156.173,472.311 155.246,474.221 153C475.063 152.073,475.737 151.287,476.383 150.22C476.467 150.108,476.551 150.051,476.664 150.051"/></g></svg>