<svg xmlns="http://www.w3.org/2000/svg" stroke-width="0.3" stroke-dasharray="none" fill="black" stroke="black" font-family="Arial, sans-serif" font-size="10pt" font-weight="normal" font-style="normal" width="450" height="140" viewBox="0 0 450 140" style="width: 450px; height: 140px; border: none;"><g class="vf-stave" id="vf-auto20574" stroke-width="1" fill="#999999" stroke="#999999"><path fill="none" d="M0 80L440 80"/><path fill="none" d="M0 90L440 90"/><path fill="none" d="M0 100L440 100"/><path fill="none" d="M0 110L440 110"/><path fill="none" d="M0 120L440 120"/></g><g class="vf-stavebarline" id="vf-auto20575"><rect y="79.5" width="1" height="41" stroke="none"/></g><g class="vf-stavebarline" id="vf-auto20576"><rect x="440" y="79.5" width="1" height="41" stroke="none"/></g><g class="vf-stavenote" id="vf-auto20577"><path stroke-width="1.4" fill="none" stroke="#444" d="M14 130L33.141 130"/><g class="vf-notehead" id="vf-auto20663" pointer-events="bounding-box"><path stroke="none" d="M17 131.685C17 133.426,18.264 135.391,21.521 135.391C25.733 135.391,30.141 131.938,30.141 128.371C30.141 125.985,28.12 124.665,25.621 124.665C21.689 124.665,17 127.978,17 131.685"/></g></g><g class="vf-stavenote" id="vf-auto20583"><g class="vf-notehead" id="vf-auto20665" pointer-events="bounding-box"><path stroke="none" d="M49.691 111.685C49.691 113.426,50.954 115.391,54.212 115.391C58.424 115.391,62.832 111.938,62.832 108.371C62.832 105.985,60.81 104.665,58.311 104.665C54.38 104.665,49.691 107.978,49.691 111.685"/></g></g><g class="vf-stavenote" id="vf-auto20589"><g class="vf-notehead" id="vf-auto20667" pointer-events="bounding-box"><path stroke="none" d="M82.381 76.685C82.381 78.426,83.645 80.391,86.902 80.391C91.114 80.391,95.523 76.938,95.523 73.371C95.523 70.985,93.501 69.665,91.002 69.665C87.071 69.665,82.381 72.978,82.381 76.685"/></g></g><g class="vf-stavenote" id="vf-auto20598"><g class="vf-notehead" id="vf-auto20669" pointer-events="bounding-box"><path stroke="none" d="M115.072 91.685C115.072 93.426,116.336 95.391,119.593 95.391C123.805 95.391,128.214 91.938,128.214 88.371C128.214 85.985,126.192 84.665,123.693 84.665C119.762 84.665,115.072 87.978,115.072 91.685"/></g></g><g class="vf-stavenote" id="vf-auto20604"><g class="vf-notehead" id="vf-auto20671" pointer-events="bounding-box"><path stroke="none" d="M151.055 96.685C151.055 98.426,152.318 100.391,155.576 100.391C159.788 100.391,164.196 96.938,164.196 93.371C164.196 90.985,162.174 89.665,159.675 89.665C155.744 89.665,151.055 92.978,151.055 96.685"/></g></g><g class="vf-stavenote" id="vf-auto20610"><path stroke-width="1.4" fill="none" stroke="#444" d="M179.214 130L198.356 130"/><g class="vf-notehead" id="vf-auto20673" pointer-events="bounding-box"><path stroke="none" d="M182.214 131.685C182.214 133.426,183.478 135.391,186.735 135.391C190.947 135.391,195.356 131.938,195.356 128.371C195.356 125.985,193.334 124.665,190.835 124.665C186.904 124.665,182.214 127.978,182.214 131.685"/></g><g class="vf-notehead" id="vf-auto20674" pointer-events="bounding-box"><path stroke="none" d="M182.214 121.685C182.214 123.426,183.478 125.391,186.735 125.391C190.947 125.391,195.356 121.938,195.356 118.371C195.356 115.985,193.334 114.665,190.835 114.665C186.904 114.665,182.214 117.978,182.214 121.685"/></g><g class="vf-notehead" id="vf-auto20675" pointer-events="bounding-box"><path stroke="none" d="M182.214 111.685C182.214 113.426,183.478 115.391,186.735 115.391C190.947 115.391,195.356 111.938,195.356 108.371C195.356 105.985,193.334 104.665,190.835 104.665C186.904 104.665,182.214 107.978,182.214 111.685"/></g></g><g class="vf-stavenote" id="vf-auto20620"><g class="vf-notehead" id="vf-auto20677" pointer-events="bounding-box"><path stroke="none" d="M213.374 91.685C213.374 93.426,214.637 95.391,217.895 95.391C222.107 95.391,226.515 91.938,226.515 88.371C226.515 85.985,224.493 84.665,221.994 84.665C218.063 84.665,213.374 87.978,213.374 91.685"/></g></g><g class="vf-stavenote" id="vf-auto20626"><g class="vf-notehead" id="vf-auto20679" pointer-events="bounding-box"><path stroke="none" d="M249.356 86.685C249.356 88.426,250.62 90.391,253.877 90.391C258.089 90.391,262.498 86.938,262.498 83.371C262.498 80.985,260.476 79.665,257.977 79.665C254.046 79.665,249.356 82.978,249.356 86.685"/></g></g><g class="vf-stavenote" id="vf-auto20632"><path stroke-width="1.4" fill="none" stroke="#444" d="M282.339 130L301.48 130"/><g class="vf-notehead" id="vf-auto20681" pointer-events="bounding-box"><path stroke="none" d="M285.339 131.685C285.339 133.426,286.602 135.391,289.86 135.391C294.072 135.391,298.48 131.938,298.48 128.371C298.48 125.985,296.458 124.665,293.959 124.665C290.028 124.665,285.339 127.978,285.339 131.685"/></g></g><g class="vf-stavenote" id="vf-auto20638"><g class="vf-notehead" id="vf-auto20683" pointer-events="bounding-box"><path stroke="none" d="M321.321 81.685C321.321 83.426,322.585 85.391,325.842 85.391C330.054 85.391,334.463 81.938,334.463 78.371C334.463 75.985,332.441 74.665,329.942 74.665C326.011 74.665,321.321 77.978,321.321 81.685"/></g></g><g class="vf-stavenote" id="vf-auto20644"><g class="vf-notehead" id="vf-auto20685" pointer-events="bounding-box"><path stroke="none" d="M350.318 81.685C350.318 83.426,351.581 85.391,354.838 85.391C359.05 85.391,363.459 81.938,363.459 78.371C363.459 75.985,361.437 74.665,358.938 74.665C355.007 74.665,350.318 77.978,350.318 81.685"/></g></g><g class="vf-stavenote" id="vf-auto20650"><g class="vf-notehead" id="vf-auto20687" pointer-events="bounding-box"><path stroke="none" d="M379.314 81.685C379.314 83.426,380.577 85.391,383.835 85.391C388.047 85.391,392.455 81.938,392.455 78.371C392.455 75.985,390.433 74.665,387.934 74.665C384.003 74.665,379.314 77.978,379.314 81.685"/></g></g><g class="vf-stavenote" id="vf-auto20656"><g class="vf-notehead" id="vf-auto20689" pointer-events="bounding-box"><path stroke="none" d="M408.31 81.685C408.31 83.426,409.574 85.391,412.831 85.391C417.043 85.391,421.451 81.938,421.451 78.371C421.451 75.985,419.43 74.665,416.93 74.665C412.999 74.665,408.31 77.978,408.31 81.685"/></g></g><path stroke="none" d="M64.315 28.969C66.137 28.256,66.248 27.068,66.248 26.672C66.248 26.625,66.248 26.577,66.248 26.545C66.248 26.34,66.184 23.773,62.256 23.773C58.328 23.773,58.455 26.545,58.455 26.545L58.47 26.545L58.455 26.593C58.455 27.417,59.104 28.05,59.928 28.05C60.751 28.05,61.385 27.417,61.385 26.593C61.385 25.928,60.894 25.294,60.244 25.152C60.276 25.136,60.292 25.12,60.324 25.088C60.64 24.866,61.068 24.756,61.512 24.756C62.462 24.756,63.492 25.326,63.492 26.545C63.492 27.987,62.415 28.193,62.145 28.24C61.876 28.288,60.593 28.383,60.324 28.383C60.039 28.383,60.023 28.7,60.023 28.7L60.023 29.143C60.023 29.143,60.07 29.397,60.324 29.428C60.704 29.444,61.227 29.444,61.955 29.555C62.969 29.698,63.492 30.379,63.492 31.979C63.492 33.515,62.462 33.911,61.512 33.911C60.862 33.911,60.276 33.737,60.023 33.547C60.767 33.515,61.385 32.85,61.385 32.089C61.385 31.266,60.751 30.616,59.928 30.616C59.104 30.616,58.455 31.266,58.455 32.089C58.455 32.089,58.455 32.137,58.455 32.185C58.455 32.485,58.518 33.309,59.342 34.054C60.229 34.877,61.337 34.893,61.844 34.893C64.03 34.893,66.406 34.149,66.406 31.662C66.406 29.999,65.266 29.286,64.268 28.969"/><g class="vf-stem" id="vf-auto20578" pointer-events="bounding-box"><path stroke-width="1.5" fill="none" d="M29.391 128L29.391 53.25"/></g><g class="vf-stem" id="vf-auto20584" pointer-events="bounding-box"><path stroke-width="1.5" fill="none" d="M62.082 108L62.082 53.25"/></g><g class="vf-stem" id="vf-auto20590" pointer-events="bounding-box"><path stroke-width="1.5" fill="none" d="M94.773 73L94.773 53.25"/></g><g class="vf-beam" id="vf-auto20691"><path stroke="none" d="M28.641 52.5L28.641 57.5L95.023 57.5L95.023 52.5Z"/></g><g class="vf-stem" id="vf-auto20599" pointer-events="bounding-box"><path stroke-width="1.5" fill="none" d="M127.464 88L127.464 60.75"/></g><g class="vf-stem" id="vf-auto20605" pointer-events="bounding-box"><path stroke-width="1.5" fill="none" d="M163.446 93L163.446 60.75"/></g><g class="vf-stem" id="vf-auto20611" pointer-events="bounding-box"><path stroke-width="1.5" fill="none" d="M194.606 128L194.606 60.75"/></g><g class="vf-beam" id="vf-auto20692"><path stroke="none" d="M126.714 60L126.714 65L194.856 65L194.856 60Z"/><path stroke="none" d="M162.696 67.5L162.696 72.5L194.856 72.5L194.856 67.5Z"/></g><g class="vf-stem" id="vf-auto20621" pointer-events="bounding-box"><path stroke-width="1.5" fill="none" d="M225.765 88L225.765 53.25"/></g><g class="vf-stem" id="vf-auto20627" pointer-events="bounding-box"><path stroke-width="1.5" fill="none" d="M261.748 83L261.748 53.25"/></g><g class="vf-beam" id="vf-auto20693"><path stroke="none" d="M225.015 52.5L225.015 57.5L261.998 57.5L261.998 52.5Z"/></g><g class="vf-stem" id="vf-auto20633" pointer-events="bounding-box"><path stroke-width="1.5" fill="none" d="M297.73 128L297.73 43.25"/></g><g class="vf-stem" id="vf-auto20639" pointer-events="bounding-box"><path stroke-width="1.5" fill="none" d="M333.713 78L333.713 43.25"/></g><g class="vf-stem" id="vf-auto20645" pointer-events="bounding-box"><path stroke-width="1.5" fill="none" d="M362.709 78L362.709 43.25"/></g><g class="vf-stem" id="vf-auto20651" pointer-events="bounding-box"><path stroke-width="1.5" fill="none" d="M391.705 78L391.705 43.25"/></g><g class="vf-stem" id="vf-auto20657" pointer-events="bounding-box"><path stroke-width="1.5" fill="none" d="M420.701 78L420.701 43.25"/></g><g class="vf-beam" id="vf-auto20694"><path stroke="none" d="M296.98 42.5L296.98 47.5L420.951 47.5L420.951 42.5Z"/><path stroke="none" d="M332.963 50L332.963 55L420.951 55L420.951 50Z"/><path stroke="none" d="M332.963 57.5L332.963 62.5L420.951 62.5L420.951 57.5Z"/></g></svg>