<svg xmlns="http://www.w3.org/2000/svg" stroke-width="0.3" stroke-dasharray="none" fill="black" stroke="black" font-family="Arial, sans-serif" font-size="10pt" font-weight="normal" font-style="normal" width="700" height="180" viewBox="0 0 700 180" style="width: 700px; height: 180px; border: none;"><g class="vf-stave" id="vf-auto33648" stroke-width="1" fill="#999999" stroke="#999999"><path fill="none" d="M10 50L660 50"/><path fill="none" d="M10 60L660 60"/><path fill="none" d="M10 70L660 70"/><path fill="none" d="M10 80L660 80"/><path fill="none" d="M10 90L660 90"/></g><g class="vf-stavebarline" id="vf-auto33649"><rect x="10" y="49.5" width="1" height="41" stroke="none"/></g><g class="vf-stavebarline" id="vf-auto33650"><rect x="660" y="49.5" width="1" height="41" stroke="none"/></g><g class="vf-stavenote" id="vf-auto33651"><g class="vf-notehead" id="vf-auto33654" pointer-events="bounding-box"><path stroke-width="1.5" fill="none" d="M27.75 80L27.75 71L42.75 60L42.75 70L27.75 80Z"/><path stroke-width="1.5" fill="none" d="M24.75 60L24.75 81"/><path stroke-width="1.5" fill="none" d="M26.75 60L26.75 81"/><path stroke-width="1.5" fill="none" d="M43.75 60L43.75 81"/><path stroke-width="1.5" fill="none" d="M45.75 60L45.75 81"/></g></g><g class="vf-stavenote" id="vf-auto33655"><g class="vf-notehead" id="vf-auto33658" pointer-events="bounding-box"><path stroke-width="1.5" fill="none" d="M63.309 80L63.309 71L78.309 60L78.309 70L63.309 80Z"/></g></g><g class="vf-stavenote" id="vf-auto33659"><g class="vf-stem" id="vf-auto33660" pointer-events="bounding-box"><path stroke-width="1.5" fill="none" d="M90.417 70L90.417 105"/></g><g class="vf-notehead" id="vf-auto33662" pointer-events="bounding-box"><path stroke-width="1.5" fill="none" d="M90.417 80L90.417 71L105.417 60L105.417 70L90.417 80Z"/></g></g><g class="vf-stavenote" id="vf-auto33663"><g class="vf-stem" id="vf-auto33664" pointer-events="bounding-box"><path stroke-width="1.5" fill="none" d="M116.007 70L116.007 105"/></g><g class="vf-notehead" id="vf-auto33666" pointer-events="bounding-box"><path stroke-width="1.5" stroke="none" d="M115.257 80L115.257 71L130.257 60L130.257 70L115.257 80Z"/></g></g><g class="vf-stavenote" id="vf-auto33667"><g class="vf-stem" id="vf-auto33668" pointer-events="bounding-box"><path stroke-width="1.5" fill="none" d="M141.598 70L141.598 102"/></g><g class="vf-notehead" id="vf-auto33671" pointer-events="bounding-box"><path stroke-width="1.5" stroke="none" d="M140.848 80L140.848 71L155.848 60L155.848 70L140.848 80Z"/></g><path stroke="none" d="M140.848 106.972C140.848 107.253,141.1 107.477,141.381 107.477C141.578 107.477,141.83 107.337,141.858 107.168C141.858 107.112,142.223 105.708,142.252 105.596C142.308 105.428,142.673 103.883,144.133 101.496C145.705 98.885,148.12 96.975,150.142 94.139C152.136 91.303,153.343 88.636,153.343 85.098C153.343 81.391,152.501 78.33,150.339 74.399C150.226 74.118,149.974 73.978,149.749 73.978C149.665 73.978,149.58 73.978,149.552 74.006C149.328 74.09,149.272 74.259,149.272 74.483C149.272 74.624,149.3 74.82,149.384 74.989C150.984 78.723,151.63 80.886,151.63 83.778C151.63 87.147,150.479 88.888,149.749 90.152C147.109 94.617,142.869 96.807,141.184 97.369C140.876 97.509,140.848 97.706,140.848 97.818"/></g><g class="vf-stavenote" id="vf-auto33673"><g class="vf-stem" id="vf-auto33674" pointer-events="bounding-box"><path stroke-width="1.5" fill="none" d="M167.188 70L167.188 102"/></g><g class="vf-notehead" id="vf-auto33677" pointer-events="bounding-box"><path stroke-width="1.5" stroke="none" d="M166.438 80L166.438 71L181.438 60L181.438 70L166.438 80Z"/></g><path stroke="none" d="M167.926 97.284C167.982 97.088,168.01 96.919,168.01 96.807C168.291 95.796,168.628 94.308,171.015 92.483C173.345 90.657,176.153 88.411,177.221 86.445C177.164 89.562,176.378 91.5,175.339 92.876C172.868 95.908,169.864 96.779,167.926 97.284M166.438 107.393C166.438 107.73,166.719 108.039,167.056 108.039C167.364 108.039,167.561 107.73,167.645 107.393C168.263 103.237,169.499 102.03,171.127 100.485C173.261 98.436,178.933 95.319,178.933 87.821C178.933 86.502,178.821 85.013,178.568 83.497C178.737 82.992,178.821 82.262,178.821 81.194C178.821 78.021,176.94 75.775,175.62 74.736C175.451 74.624,175.199 74.54,174.974 74.54C174.806 74.54,174.637 74.568,174.497 74.652C174.328 74.736,174.272 74.764,174.272 74.848C174.272 74.989,174.525 75.129,174.693 75.298C176.097 76.786,177.164 78.162,177.164 80.886C177.164 81.391,177.108 81.925,176.94 82.402L176.912 82.542C176.912 82.542,176.912 82.542,176.912 82.542C176.715 83.357,176.266 84.115,175.62 84.845C172.784 88.13,168.853 89.815,167.056 90.208C166.775 90.349,166.438 91.219,166.438 91.303"/></g><g class="vf-stavenote" id="vf-auto33679"><g class="vf-stem" id="vf-auto33680" pointer-events="bounding-box"><path stroke-width="1.5" fill="none" d="M192.778 70L192.778 111"/></g><g class="vf-notehead" id="vf-auto33683" pointer-events="bounding-box"><path stroke-width="1.5" stroke="none" d="M192.028 80L192.028 71L207.028 60L207.028 70L192.028 80Z"/></g><path stroke="none" d="M193.432 104.95C193.657 104.052,194.022 103.041,194.583 102.198C196.1 99.952,199.666 98.099,201.772 95.712C202.165 95.263,202.53 94.785,202.811 94.252C202.811 97.256,202.165 98.941,201.126 100.289C198.627 103.35,195.454 104.36,193.432 104.95M196.605 92.483C198.992 90.461,201.21 88.973,202.305 87.541C202.474 87.344,202.614 87.119,202.755 86.895C202.783 87.119,202.783 87.344,202.783 87.541C202.783 89.562,202.109 91.219,200.845 92.82C199.273 94.757,197.054 96.049,193.516 97.369C193.572 97.144,193.601 96.919,193.601 96.807C193.881 95.768,194.303 94.392,196.605 92.483M192.028 115.087C192.028 115.368,192.309 115.733,192.646 115.733C192.955 115.733,193.151 115.424,193.236 115.087C193.853 110.875,195.089 109.668,196.717 108.123C198.852 106.101,204.524 102.985,204.524 95.515C204.524 94.027,204.355 92.398,204.131 90.798C204.243 90.096,204.355 89.422,204.411 88.72C204.411 88.523,204.411 88.271,204.411 88.046C204.411 87.906,204.411 87.793,204.411 87.709C204.411 86.502,204.187 85.322,203.962 84.311C204.243 83.413,204.411 82.402,204.411 81.194C204.411 78.021,202.53 75.775,201.21 74.736C201.042 74.624,200.845 74.54,200.592 74.54C200.452 74.54,200.227 74.568,200.087 74.652C199.919 74.736,199.862 74.764,199.862 74.848C199.862 74.989,200.115 75.101,200.284 75.298C201.688 76.786,202.755 78.162,202.755 80.886C202.755 82.374,202.249 83.637,201.21 84.845C198.374 88.13,194.443 89.815,192.646 90.208C192.365 90.349,192.028 91.219,192.028 91.303"/></g><g class="vf-stavenote" id="vf-auto33685"><g class="vf-stem" id="vf-auto33686" pointer-events="bounding-box"><path stroke-width="1.5" fill="none" d="M218.368 70L218.368 115"/></g><g class="vf-notehead" id="vf-auto33689" pointer-events="bounding-box"><path stroke-width="1.5" stroke="none" d="M217.618 80L217.618 71L232.618 60L232.618 70L217.618 80Z"/></g><path stroke="none" d="M219.079 112.504C219.275 111.661,219.612 110.678,220.174 109.864C221.69 107.646,225.256 105.736,227.362 103.406C227.755 102.928,228.12 102.423,228.401 101.946C228.401 104.866,227.755 106.551,226.716 107.842C224.217 110.931,221.1 111.942,219.079 112.504M222.195 92.483C224.582 90.461,226.801 88.916,227.896 87.541C228.064 87.316,228.205 87.119,228.345 86.867C228.373 87.119,228.373 87.316,228.373 87.541C228.373 89.562,227.699 91.219,226.435 92.82C224.863 94.701,222.645 96.049,219.107 97.369C219.163 97.144,219.191 96.919,219.191 96.807C219.472 95.768,219.893 94.392,222.195 92.483M226.435 100.485C224.863 102.423,222.645 103.715,219.022 105.062C219.191 104.136,219.556 103.069,220.174 102.198C221.69 99.952,225.256 98.071,227.362 95.712C227.727 95.319,228.064 94.869,228.345 94.392C228.373 94.673,228.373 94.954,228.373 95.206C228.373 97.228,227.699 98.913,226.435 100.485M217.618 122.641C217.618 122.921,217.899 123.286,218.236 123.286C218.545 123.286,218.742 122.921,218.826 122.641C219.444 118.457,220.679 117.221,222.308 115.705C224.442 113.683,230.114 110.51,230.114 103.069C230.114 101.609,229.945 100.008,229.721 98.379C229.861 97.706,229.945 97.06,230.002 96.414C230.002 96.133,230.002 95.852,230.002 95.6C230.002 95.487,230.002 95.403,230.002 95.263C230.002 93.971,229.749 92.763,229.496 91.668C229.749 90.657,229.917 89.647,230.002 88.72C230.002 88.467,230.002 88.271,230.002 88.046C230.002 87.906,230.002 87.793,230.002 87.681C230.002 86.502,229.777 85.322,229.552 84.311C229.833 83.413,230.002 82.402,230.002 81.194C230.002 78.021,228.12 75.775,226.801 74.736C226.632 74.624,226.435 74.54,226.183 74.483C226.042 74.483,225.818 74.54,225.677 74.652C225.509 74.68,225.453 74.764,225.453 74.848C225.453 74.989,225.705 75.101,225.874 75.298C227.278 76.786,228.345 78.162,228.345 80.886C228.345 82.374,227.839 83.637,226.801 84.845C223.964 88.13,220.033 89.815,218.236 90.208C217.955 90.349,217.618 91.191,217.618 91.303"/></g><g class="vf-stavenote" id="vf-auto33691"><g class="vf-stem" id="vf-auto33692" pointer-events="bounding-box"><path stroke-width="1.5" fill="none" d="M243.959 70L243.959 124"/></g><g class="vf-notehead" id="vf-auto33695" pointer-events="bounding-box"><path stroke-width="1.5" stroke="none" d="M243.209 80L243.209 71L258.209 60L258.209 70L243.209 80Z"/></g><path stroke="none" d="M243.209 130.25C243.209 130.531,243.489 130.896,243.826 130.896C244.135 130.896,244.332 130.587,244.416 130.25C245.034 126.038,246.269 124.831,247.898 123.286C250.032 121.265,255.704 118.148,255.704 110.678C255.704 109.218,255.536 107.618,255.311 105.989C255.451 105.315,255.536 104.613,255.592 103.967C255.592 103.715,255.592 103.434,255.592 103.153C255.592 103.069,255.592 102.956,255.592 102.872C255.592 101.581,255.339 100.373,255.086 99.278C255.367 98.295,255.508 97.34,255.592 96.414C255.592 96.133,255.592 95.88,255.592 95.6C255.592 95.487,255.592 95.403,255.592 95.263C255.592 93.971,255.339 92.763,255.086 91.668C255.339 90.657,255.508 89.703,255.592 88.776C255.592 88.523,255.592 88.271,255.592 88.046C255.592 87.906,255.592 87.793,255.592 87.709C255.592 86.502,255.367 85.322,255.143 84.311C255.423 83.413,255.592 82.402,255.592 81.194C255.592 78.021,253.711 75.775,252.391 74.736C252.222 74.624,251.97 74.54,251.745 74.54C251.576 74.54,251.408 74.568,251.268 74.652C251.099 74.736,251.043 74.764,251.043 74.848C251.043 74.989,251.296 75.129,251.464 75.298C252.868 76.786,253.935 78.162,253.935 80.886C253.935 82.374,253.43 83.637,252.391 84.845C249.555 88.13,245.623 89.815,243.826 90.208C243.546 90.349,243.209 91.219,243.209 91.303M252.026 108.039C250.453 110.005,248.235 111.296,244.613 112.616C244.837 111.717,245.202 110.707,245.764 109.864C247.28 107.646,250.846 105.736,252.952 103.406C253.317 102.985,253.654 102.507,253.935 102.058C253.963 102.311,253.963 102.507,253.963 102.76C253.963 104.782,253.289 106.466,252.026 108.039M252.026 100.485C250.453 102.423,248.235 103.715,244.613 105.062C244.781 104.164,245.146 103.125,245.764 102.198C247.28 99.952,250.846 98.099,252.952 95.712C253.317 95.319,253.654 94.869,253.935 94.392C253.963 94.673,253.963 94.954,253.963 95.206C253.963 97.256,253.289 98.913,252.026 100.485M247.786 92.483C250.172 90.461,252.391 88.973,253.486 87.541C253.654 87.344,253.795 87.119,253.935 86.895C253.963 87.119,253.963 87.344,253.963 87.541C253.935 89.562,253.289 91.275,252.026 92.82C250.453 94.757,248.235 96.049,244.697 97.369C244.753 97.172,244.781 96.975,244.781 96.807C245.062 95.796,245.483 94.392,247.786 92.483M244.669 120.113C244.865 119.215,245.202 118.288,245.764 117.446C247.28 115.199,250.846 113.318,252.952 110.959C253.345 110.51,253.711 110.033,253.991 109.499C253.935 112.448,253.345 114.16,252.307 115.452C249.807 118.513,246.634 119.524,244.669 120.113"/></g><g class="vf-stavenote" id="vf-auto33697"><g class="vf-notehead" id="vf-auto33700" pointer-events="bounding-box"><path stroke-width="1.5" fill="none" d="M268.049 80L268.049 71L283.049 60L283.049 70L268.049 80Z"/><path stroke-width="1.5" fill="none" d="M265.049 60L265.049 81"/><path stroke-width="1.5" fill="none" d="M267.049 60L267.049 81"/><path stroke-width="1.5" fill="none" d="M284.049 60L284.049 81"/><path stroke-width="1.5" fill="none" d="M286.049 60L286.049 81"/></g></g><g class="vf-stavenote" id="vf-auto33701"><g class="vf-notehead" id="vf-auto33704" pointer-events="bounding-box"><path stroke-width="1.5" fill="none" d="M303.608 80L303.608 71L318.608 60L318.608 70L303.608 80Z"/></g></g><g class="vf-stavenote" id="vf-auto33705"><g class="vf-stem" id="vf-auto33706" pointer-events="bounding-box"><path stroke-width="1.5" fill="none" d="M345.716 70L345.716 35"/></g><g class="vf-notehead" id="vf-auto33708" pointer-events="bounding-box"><path stroke-width="1.5" fill="none" d="M330.716 80L330.716 71L345.716 60L345.716 70L330.716 80Z"/></g></g><g class="vf-stavenote" id="vf-auto33709"><g class="vf-stem" id="vf-auto33710" pointer-events="bounding-box"><path stroke-width="1.5" fill="none" d="M371.306 70L371.306 35"/></g><g class="vf-notehead" id="vf-auto33712" pointer-events="bounding-box"><path stroke-width="1.5" stroke="none" d="M357.056 80L357.056 71L372.056 60L372.056 70L357.056 80Z"/></g></g><g class="vf-stavenote" id="vf-auto33713"><g class="vf-stem" id="vf-auto33714" pointer-events="bounding-box"><path stroke-width="1.5" fill="none" d="M396.896 70L396.896 38"/></g><g class="vf-notehead" id="vf-auto33717" pointer-events="bounding-box"><path stroke-width="1.5" stroke="none" d="M382.646 80L382.646 71L397.646 60L397.646 70L382.646 80Z"/></g><path stroke="none" d="M396.146 42.182C396.146 42.294,396.174 42.491,396.483 42.631C398.196 43.193,401.678 45.383,404.318 49.848C405.048 51.112,406.227 52.853,406.227 56.222C406.227 59.114,405.441 62.119,404.402 65.011C404.318 65.264,404.233 65.46,404.262 65.629C404.262 65.797,404.318 65.91,404.486 65.994C404.57 66.022,404.627 66.022,404.683 66.022C404.964 66.022,405.16 65.882,405.329 65.601C407.238 62.231,407.884 57.935,407.828 55.408C407.828 55.211,407.828 55.071,407.828 54.902C407.631 49.708,404.627 45.861,404.627 45.861C404.767 45.861,400.92 40.89,399.825 39.178C398.337 36.875,397.635 34.572,397.55 34.404C397.522 34.292,397.157 32.832,397.157 32.832C397.129 32.663,396.905 32.523,396.68 32.523C396.399 32.523,396.146 32.747,396.146 33.028"/></g><g class="vf-stavenote" id="vf-auto33719"><g class="vf-stem" id="vf-auto33720" pointer-events="bounding-box"><path stroke-width="1.5" fill="none" d="M428.896 70L428.896 38"/></g><g class="vf-notehead" id="vf-auto33723" pointer-events="bounding-box"><path stroke-width="1.5" stroke="none" d="M414.646 80L414.646 71L429.646 60L429.646 70L414.646 80Z"/></g><path stroke="none" d="M436.598 52.122C435.503 50.718,434.296 49.427,432.302 47.433C430.73 45.861,430 44.485,429.719 43.446C429.691 43.221,429.635 42.94,429.607 42.631C431.656 42.631,434.296 45.411,435.756 47.321C437.329 49.371,437.694 50.999,437.694 52.544C437.694 52.937,437.637 53.33,437.609 53.751C437.272 53.105,436.907 52.572,436.598 52.122M428.146 48.416C428.146 48.528,428.483 48.697,428.764 48.809C429.803 49.174,432.948 51.196,435.391 54.79C436.767 56.868,437.076 58.3,437.076 59.676C437.076 59.929,437.076 60.125,437.048 60.378C437.048 61.333,436.767 63.411,436.149 65.011C436.121 65.236,435.981 65.46,435.981 65.685C435.981 65.826,436.065 65.994,436.262 66.106C436.346 66.162,436.402 66.162,436.486 66.162C436.767 66.162,436.907 65.826,437.076 65.601C437.806 64.45,438.873 62.287,438.873 60.013C438.873 58.834,438.789 57.879,438.648 57.008C439.07 55.52,439.435 54.032,439.435 52.038C439.435 49.932,438.873 48.051,437.497 46.226C435.588 43.727,433.538 41.621,431.993 39.402C430.449 37.156,429.326 33,429.326 33C429.242 32.719,429.185 32.523,428.764 32.523C428.259 32.523,428.146 32.719,428.146 33"/></g><g class="vf-stavenote" id="vf-auto33725"><g class="vf-stem" id="vf-auto33726" pointer-events="bounding-box"><path stroke-width="1.5" fill="none" d="M460.896 70L460.896 29"/></g><g class="vf-notehead" id="vf-auto33729" pointer-events="bounding-box"><path stroke-width="1.5" stroke="none" d="M446.646 80L446.646 71L461.646 60L461.646 70L446.646 80Z"/></g><path stroke="none" d="M468.598 52.179C467.503 50.747,466.296 49.511,464.302 47.489C462.73 45.889,462 44.513,461.719 43.474C461.691 43.277,461.635 42.94,461.55 42.631C463.656 42.631,466.296 45.131,467.756 47.04C469.329 49.146,469.694 50.747,469.694 52.291C469.694 52.768,469.637 53.246,469.609 53.751C469.272 53.105,468.907 52.6,468.598 52.179M467.756 40.273C469.329 42.351,469.694 44.007,469.694 45.524C469.694 45.776,469.637 45.973,469.637 46.17C469.609 46.113,469.525 46.029,469.497 45.945C467.588 43.446,464.218 40.61,462.702 38.391C462.084 37.493,461.775 36.482,461.55 35.583C463.628 35.583,466.296 38.391,467.756 40.273M460.146 48.444C460.146 48.556,460.483 48.725,460.764 48.837C461.803 49.202,464.948 51.224,467.391 54.846C468.767 56.896,469.076 58.356,469.076 59.732C469.076 59.957,469.076 60.181,469.048 60.406C469.048 61.389,468.767 63.439,468.149 65.067C468.121 65.264,467.981 65.517,467.981 65.713C467.981 65.882,468.065 66.022,468.262 66.162C468.346 66.191,468.402 66.191,468.486 66.191C468.767 66.191,468.907 65.882,469.076 65.629C469.806 64.506,470.873 62.316,470.873 60.041C470.873 58.89,470.789 57.907,470.648 57.065C471.07 55.52,471.435 53.779,471.435 51.757C471.435 50.747,471.266 49.736,470.985 48.809C471.238 47.77,471.435 46.675,471.435 45.383C471.435 45.243,471.435 45.131,471.435 45.018C471.435 42.912,470.873 41.003,469.497 39.178C467.588 36.678,465.538 34.572,463.993 32.354C462.449 30.136,461.326 25.952,461.326 25.952C461.242 25.671,461.185 25.475,460.764 25.475C460.259 25.475,460.146 25.671,460.146 25.952"/></g><g class="vf-stavenote" id="vf-auto33731"><g class="vf-notehead" id="vf-auto33735" pointer-events="bounding-box"><path stroke-width="1.5" stroke="none" d="M478.646 80L478.646 71L493.646 60L493.646 70L478.646 80Z"/></g></g><g class="vf-stavenote" id="vf-auto33737"><g class="vf-notehead" id="vf-auto33741" pointer-events="bounding-box"><path stroke-width="1.5" stroke="none" d="M504.237 80L504.237 71L519.237 60L519.237 70L504.237 80Z"/></g></g><g class="vf-stavenote" id="vf-auto33743"><g class="vf-notehead" id="vf-auto33747" pointer-events="bounding-box"><path stroke-width="1.5" stroke="none" d="M529.827 80L529.827 71L544.827 60L544.827 70L529.827 80Z"/></g></g><g class="vf-stavenote" id="vf-auto33749"><g class="vf-notehead" id="vf-auto33753" pointer-events="bounding-box"><path stroke-width="1.5" stroke="none" d="M555.417 80L555.417 71L570.417 60L570.417 70L555.417 80Z"/></g></g><g class="vf-stavenote" id="vf-auto33755"><g class="vf-stem" id="vf-auto33756" pointer-events="bounding-box"><path stroke-width="1.5" fill="none" d="M595.257 70L595.257 38"/></g><g class="vf-notehead" id="vf-auto33759" pointer-events="bounding-box"><path stroke-width="1.5" stroke="none" d="M581.007 80L581.007 71L596.007 60L596.007 70L581.007 80Z"/></g><path stroke="none" d="M594.507 42.182C594.507 42.294,594.536 42.491,594.844 42.631C596.557 43.193,600.039 45.383,602.679 49.848C603.409 51.112,604.588 52.853,604.588 56.222C604.588 59.114,603.802 62.119,602.763 65.011C602.679 65.264,602.595 65.46,602.623 65.629C602.623 65.797,602.679 65.91,602.847 65.994C602.931 66.022,602.988 66.022,603.044 66.022C603.325 66.022,603.521 65.882,603.69 65.601C605.599 62.231,606.245 57.935,606.189 55.408C606.189 55.211,606.189 55.071,606.189 54.902C605.992 49.708,602.988 45.861,602.988 45.861C603.128 45.861,599.281 40.89,598.186 39.178C596.698 36.875,595.996 34.572,595.911 34.404C595.883 34.292,595.518 32.832,595.518 32.832C595.49 32.663,595.266 32.523,595.041 32.523C594.76 32.523,594.507 32.747,594.507 33.028"/></g><g class="vf-stavenote" id="vf-auto33761"><g class="vf-stem" id="vf-auto33762" pointer-events="bounding-box"><path stroke-width="1.5" fill="none" d="M627.257 70L627.257 38"/></g><g class="vf-notehead" id="vf-auto33765" pointer-events="bounding-box"><path stroke-width="1.5" stroke="none" d="M613.007 80L613.007 71L628.007 60L628.007 70L613.007 80Z"/></g><path stroke="none" d="M626.507 42.182C626.507 42.294,626.536 42.491,626.844 42.631C628.557 43.193,632.039 45.383,634.679 49.848C635.409 51.112,636.588 52.853,636.588 56.222C636.588 59.114,635.802 62.119,634.763 65.011C634.679 65.264,634.595 65.46,634.623 65.629C634.623 65.797,634.679 65.91,634.847 65.994C634.931 66.022,634.988 66.022,635.044 66.022C635.325 66.022,635.521 65.882,635.69 65.601C637.599 62.231,638.245 57.935,638.189 55.408C638.189 55.211,638.189 55.071,638.189 54.902C637.992 49.708,634.988 45.861,634.988 45.861C635.128 45.861,631.281 40.89,630.186 39.178C628.698 36.875,627.996 34.572,627.911 34.404C627.883 34.292,627.518 32.832,627.518 32.832C627.49 32.663,627.266 32.523,627.041 32.523C626.76 32.523,626.507 32.747,626.507 33.028"/></g><g class="vf-stem" id="vf-auto33732" pointer-events="bounding-box"><path stroke-width="1.5" fill="none" d="M492.896 70L492.896 17.089"/></g><g class="vf-stem" id="vf-auto33738" pointer-events="bounding-box"><path stroke-width="1.5" fill="none" d="M518.487 70L518.487 13.25"/></g><g class="vf-beam" id="vf-auto33767"><path stroke="none" d="M492.146 16.451L492.146 21.451L518.737 17.612L518.737 12.612Z"/><path stroke="none" d="M492.146 23.951L492.146 28.951L518.737 25.112L518.737 20.112Z"/><path stroke="none" d="M492.146 31.451L492.146 36.451L518.737 32.612L518.737 27.612Z"/><path stroke="none" d="M492.146 38.951L492.146 43.951L518.737 40.113L518.737 35.113Z"/><path stroke="none" d="M517.737 42.613L517.737 47.613L508.737 49.113L508.737 44.113Z"/></g><g class="vf-stem" id="vf-auto33744" pointer-events="bounding-box"><path stroke-width="1.5" fill="none" d="M530.577 70L530.577 104.25"/></g><g class="vf-stem" id="vf-auto33750" pointer-events="bounding-box"><path stroke-width="1.5" fill="none" d="M556.167 70L556.167 104.25"/></g><g class="vf-beam" id="vf-auto33768"><path stroke="none" d="M529.827 105L529.827 100L556.417 100L556.417 105Z"/></g></svg>