<svg xmlns="http://www.w3.org/2000/svg" stroke-width="0.3" stroke-dasharray="none" fill="black" stroke="black" font-family="Arial, sans-serif" font-size="10pt" font-weight="normal" font-style="normal" width="800" height="160" viewBox="0 0 800 160" style="width: 800px; height: 160px; border: none;"><g class="vf-stave" id="vf-auto37409" stroke-width="1" fill="#999999" stroke="#999999"><path fill="none" d="M10 50L985 50"/><path fill="none" d="M10 60L985 60"/><path fill="none" d="M10 70L985 70"/><path fill="none" d="M10 80L985 80"/><path fill="none" d="M10 90L985 90"/></g><g class="vf-stavebarline" id="vf-auto37410"><rect x="10" y="49.5" width="1" height="41" stroke="none"/></g><g class="vf-stavebarline" id="vf-auto37411"><rect x="985" y="49.5" width="1" height="41" stroke="none"/></g><g class="vf-stavenote" id="vf-auto37412"><g class="vf-stem" id="vf-auto37413" pointer-events="bounding-box"><path stroke-width="1.5" fill="none" d="M30.75 57L30.75 90"/></g><g class="vf-notehead" id="vf-auto37415" pointer-events="bounding-box"><path stroke="none" d="M33.145 61.543C33.426 61.599,33.678 61.627,33.959 61.627C37.834 61.627,43.619 56.348,43.506 52.08C43.394 51.041,43.422 49.609,41.316 48.766C40.727 48.485,40.081 48.373,39.379 48.373C35.054 48.373,30.365 53.343,30.028 56.657C30.028 56.909,30 57.134,30 57.387C30 59.409,30.899 61.037,33.145 61.543"/><path stroke="none" d="M50.508 55 A2 2 0 0 0 46.508 55 A2 2 0 0 0 50.508 55"/></g></g><g class="vf-stavenote" id="vf-auto37416"><g class="vf-stem" id="vf-auto37417" pointer-events="bounding-box"><path stroke-width="1.5" fill="none" d="M95.75 57L95.75 87"/></g><g class="vf-notehead" id="vf-auto37420" pointer-events="bounding-box"><path stroke="none" d="M98.145 61.543C98.426 61.599,98.678 61.627,98.959 61.627C102.834 61.627,108.619 56.348,108.506 52.08C108.394 51.041,108.422 49.609,106.316 48.766C105.727 48.485,105.081 48.373,104.379 48.373C100.054 48.373,95.365 53.343,95.028 56.657C95.028 56.909,95 57.134,95 57.387C95 59.409,95.899 61.037,98.145 61.543"/><path stroke="none" d="M115.508 55 A2 2 0 0 0 111.508 55 A2 2 0 0 0 115.508 55"/></g><path stroke="none" d="M102.421 59.118C102.253 58.978,102.14 58.894,102.028 58.894C101.888 58.894,101.775 59.034,101.719 59.371C101.691 59.905,101.495 60.41,101.438 60.944C101.41 61.309,101.382 61.674,101.382 62.011C101.382 62.656,101.523 63.246,102.168 63.78C102.899 64.369,103.32 65.324,103.713 66.194C103.825 66.447,103.881 66.728,103.881 67.009C103.881 67.542,103.685 68.104,103.629 68.666C103.348 71.754,101.888 74.338,99.95 76.64C99.192 77.567,98.462 78.578,97.676 79.504C95.794 82.004,94.98 84.84,94.98 87.956L94.98 90.231C94.98 90.989,95.148 91.635,95.963 92L96.159 92C96.44 91.326,96.721 90.624,96.721 89.894C96.721 89.445,96.637 89.08,96.637 88.715C96.665 86.861,97.535 85.289,98.658 83.829C99.641 82.621,100.568 81.358,101.523 80.15C103.713 77.398,104.808 74.253,105.285 70.8C105.454 69.761,105.538 68.722,105.538 67.655C105.538 66.082,105.342 64.51,104.836 62.937C104.415 61.477,103.432 60.27,102.421 59.118"/></g><g class="vf-stavenote" id="vf-auto37422"><g class="vf-stem" id="vf-auto37423" pointer-events="bounding-box"><path stroke-width="1.5" fill="none" d="M160.75 57L160.75 87"/></g><g class="vf-notehead" id="vf-auto37426" pointer-events="bounding-box"><path stroke="none" d="M163.145 61.543C163.426 61.599,163.678 61.627,163.959 61.627C167.834 61.627,173.619 56.348,173.506 52.08C173.394 51.041,173.422 49.609,171.316 48.766C170.727 48.485,170.081 48.373,169.379 48.373C165.054 48.373,160.365 53.343,160.028 56.657C160.028 56.909,160 57.134,160 57.387C160 59.409,160.899 61.037,163.145 61.543"/><path stroke="none" d="M180.508 55 A2 2 0 0 0 176.508 55 A2 2 0 0 0 180.508 55"/></g><path stroke="none" d="M161.657 92C162.022 92,162.022 91.551,162.106 91.326C162.387 90.512,162.359 89.613,162.696 88.799C163.313 87.283,164.493 86.216,165.616 85.12C167.975 82.818,170.39 80.543,171.653 77.398C172.383 75.573,172.889 73.72,173.057 71.754C173.113 70.772,173.254 69.789,173.226 68.946C173.254 67.57,173.113 66.279,172.945 64.987C173.029 64.369,173.029 63.808,173.057 63.358C173.113 62.123,173.029 61.056,172.664 60.045C172.524 59.736,172.411 59.455,172.215 59.203C172.102 59.09,171.934 58.894,171.737 58.894L171.653 58.894C171.485 58.978,171.457 59.034,171.457 59.174C171.457 59.287,171.485 59.399,171.485 59.483C171.513 63.527,169.828 66.84,167.245 69.733C164.38 72.878,162.134 76.359,160.983 80.487C160.337 82.649,160 84.924,160 87.226L160 89.529C160 90.006,160.168 91.354,160.814 91.803C160.927 91.888,161.629 92,161.657 92M162.415 84.11C162.864 82.734,163.51 81.498,164.072 80.206C165.307 77.37,167.469 75.264,169.294 72.878C170.221 71.698,171.007 70.406,171.597 69.087C171.597 69.311,171.653 69.564,171.653 69.789C171.653 72.4,170.586 74.787,168.929 76.865C167.554 78.578,165.897 80.066,164.38 81.61C163.594 82.369,162.948 83.239,162.415 84.11"/></g><g class="vf-stavenote" id="vf-auto37428"><g class="vf-stem" id="vf-auto37429" pointer-events="bounding-box"><path stroke-width="1.5" fill="none" d="M225.75 57L225.75 96"/></g><g class="vf-notehead" id="vf-auto37432" pointer-events="bounding-box"><path stroke="none" d="M228.145 61.543C228.426 61.599,228.678 61.627,228.959 61.627C232.834 61.627,238.619 56.348,238.506 52.08C238.394 51.041,238.422 49.609,236.316 48.766C235.727 48.485,235.081 48.373,234.379 48.373C230.054 48.373,225.365 53.343,225.028 56.657C225.028 56.909,225 57.134,225 57.387C225 59.409,225.899 61.037,228.145 61.543"/><path stroke="none" d="M245.508 55 A2 2 0 0 0 241.508 55 A2 2 0 0 0 245.508 55"/></g><path stroke="none" d="M234.06 58.472C233.723 58.557,233.976 59.034,233.891 59.315C233.807 59.68,233.751 60.101,233.751 60.466C233.751 61.477,234.004 62.488,234.004 63.499C234.004 63.808,234.004 64.145,233.919 64.425C233.274 67.57,231.898 70.322,229.427 72.456C228.556 73.243,227.63 73.973,226.843 74.899C225.608 76.388,225.187 78.128,225.187 79.982C225.187 81.638,225.102 83.351,225.102 85.036C225.158 86.749,224.709 88.153,224.962 89.81C224.99 90.343,224.99 91.101,224.99 91.607L224.99 96.156C224.99 96.886,225.074 97.588,225.158 98.262C225.243 98.683,225.608 98.739,225.832 98.823L225.917 98.823C226.113 98.88,226.113 98.515,226.254 98.346C226.338 98.178,226.478 97.953,226.478 97.728C226.394 95.678,227.742 94.471,229.23 93.572C233.077 91.242,234.762 86.861,234.734 82.425C234.762 81.526,234.621 80.515,234.284 79.476C234.2 79.224,234.2 79.027,234.2 78.774C234.2 78.044,234.481 77.286,234.565 76.556C234.621 76.163,234.65 75.742,234.65 75.377C234.65 74.562,234.537 73.776,234.341 72.906C234.256 72.681,234.256 72.4,234.256 72.147C234.256 71.67,234.369 71.221,234.565 70.8C235.436 68.778,235.829 66.756,235.829 64.734C235.857 63.05,235.576 61.309,235.071 59.568C234.986 59.455,234.93 59.287,234.846 59.174C234.65 58.838,234.453 58.36,234.06 58.472M232.712 74.366C232.431 78.662,229.595 81.077,226.984 83.744C226.899 83.239,226.815 82.706,226.815 82.256C226.843 81.077,227.18 79.982,228.107 78.971C229.567 77.455,231.336 76.275,232.712 74.366M232.993 82.256C233.049 82.425,233.077 82.621,233.077 82.874C233.077 85.261,230.072 88.771,227.545 89.866C227.573 88.995,227.91 88.35,228.388 87.76C229.848 85.935,231.982 84.671,232.993 82.256"/></g><g class="vf-stavenote" id="vf-auto37434"><g class="vf-stem" id="vf-auto37435" pointer-events="bounding-box"><path stroke-width="1.5" fill="none" d="M290.75 57L290.75 100"/></g><g class="vf-notehead" id="vf-auto37438" pointer-events="bounding-box"><path stroke="none" d="M293.145 61.543C293.426 61.599,293.678 61.627,293.959 61.627C297.834 61.627,303.619 56.348,303.506 52.08C303.394 51.041,303.422 49.609,301.316 48.766C300.727 48.485,300.081 48.373,299.379 48.373C295.054 48.373,290.365 53.343,290.028 56.657C290.028 56.909,290 57.134,290 57.387C290 59.409,290.899 61.037,293.145 61.543"/><path stroke="none" d="M310.508 55 A2 2 0 0 0 306.508 55 A2 2 0 0 0 310.508 55"/></g><path stroke="none" d="M299.022 59.848C298.881 59.933,298.825 60.101,298.825 60.213C298.825 60.382,298.881 60.578,298.881 60.747C298.797 64.734,297.674 68.3,294.754 71.221C294.024 71.951,293.209 72.597,292.395 73.243C290.879 74.478,290.064 76.163,289.896 78.128C289.812 78.943,289.784 79.757,289.784 80.543C289.784 82.144,289.896 83.744,290.008 85.373C290.149 87.142,289.727 88.939,289.615 90.736C289.615 91.242,289.587 91.663,289.587 92.168L289.587 94.106C289.587 95.229,289.531 96.409,289.362 97.504C289.222 98.543,289.166 99.61,289.166 100.621L289.166 102.727C289.166 103.569,289.166 104.468,289.053 105.338L289.053 105.591C289.053 105.9,289.082 106.237,289.166 106.602C289.25 106.967,289.615 107.079,289.896 107.135C289.924 107.163,289.924 107.163,289.98 107.163C290.233 107.163,290.261 106.826,290.373 106.63C290.738 105.872,290.935 105.029,290.935 104.215C290.935 103.513,291.244 103.035,291.637 102.558C292.76 101.21,294.304 100.368,295.568 99.16C297 97.728,298.264 96.156,298.797 94.19C298.994 93.292,299.106 92.393,299.106 91.326C299.106 90.961,299.078 90.596,299.078 90.231C298.994 90.006,298.994 89.782,298.994 89.585C298.994 88.293,299.92 86.974,300.089 85.57C300.173 84.896,300.257 84.166,300.257 83.436C300.257 82.06,300.033 80.684,299.696 79.392C299.471 78.746,299.275 78.1,299.275 77.398C299.275 77.202,299.275 77.033,299.331 76.837C299.387 76.472,299.387 76.079,299.387 75.714C299.387 74.478,299.19 73.355,299.022 72.232C299.022 72.119,298.994 71.979,298.994 71.895C298.994 71.445,299.106 71.108,299.275 70.743C300.005 68.666,300.622 66.616,300.622 64.425C300.622 63.05,300.398 61.702,299.892 60.494C299.724 60.129,299.443 59.736,299.022 59.848M297.618 73.72C297.674 73.973,297.674 74.197,297.674 74.422C297.674 75.742,297.253 76.753,296.495 77.595C294.978 79.308,293.013 80.487,291.553 82.509C291.524 82.256,291.524 81.975,291.524 81.695C291.524 80.543,291.833 79.673,292.479 78.859C293.939 77.005,296.045 75.826,297.618 73.72M297.59 81.61C297.702 81.498,297.814 81.414,297.955 81.414C298.067 81.414,298.151 81.526,298.264 81.863C298.376 82.256,298.46 82.649,298.46 83.014C298.46 84.278,297.73 85.289,296.719 86.047C294.922 87.479,293.041 88.855,291.356 90.652C291.384 88.995,291.524 87.591,292.535 86.552C294.136 84.84,295.877 83.267,297.59 81.61M297.253 90.652C297.421 90.989,297.506 91.27,297.506 91.551C297.506 91.747,297.449 91.972,297.337 92.197C296.888 93.039,296.41 93.938,295.652 94.583C294.108 95.875,292.62 97.167,290.935 98.543C291.44 94.471,294.417 92.646,297.253 90.652"/></g><g class="vf-stavenote" id="vf-auto37440"><g class="vf-stem" id="vf-auto37441" pointer-events="bounding-box"><path stroke-width="1.5" fill="none" d="M355.75 57L355.75 109"/></g><g class="vf-notehead" id="vf-auto37444" pointer-events="bounding-box"><path stroke="none" d="M358.145 61.543C358.426 61.599,358.678 61.627,358.959 61.627C362.834 61.627,368.619 56.348,368.506 52.08C368.394 51.041,368.422 49.609,366.316 48.766C365.727 48.485,365.081 48.373,364.379 48.373C360.054 48.373,355.365 53.343,355.028 56.657C355.028 56.909,355 57.134,355 57.387C355 59.409,355.899 61.037,358.145 61.543"/><path stroke="none" d="M375.508 55 A2 2 0 0 0 371.508 55 A2 2 0 0 0 375.508 55"/></g><path stroke="none" d="M362.918 61.505C362.637 61.505,362.609 61.646,362.609 61.87C362.609 62.067,362.665 62.319,362.637 62.516C362.609 62.713,362.637 62.937,362.637 63.134C362.3 66.616,361.991 70.126,360.082 73.186C359.043 74.899,357.555 76.275,356.122 77.679C355.364 78.465,354.887 79.252,354.887 80.347C354.887 81.526,354.803 82.734,354.803 83.941C354.803 84.755,354.831 85.485,354.915 86.272C355.084 87.591,355.112 88.967,355.112 90.315C355.112 91.354,355.084 92.449,355.084 93.488C355.084 94.303,355.112 95.061,355.168 95.875C355.196 96.437,355.224 97.054,355.224 97.616C355.224 99.188,355.168 100.705,355.168 102.137C355.168 103.485,354.718 104.748,354.578 106.068C354.55 106.433,354.55 106.826,354.55 107.191C354.55 108.371,354.466 109.522,354.55 110.729C354.55 110.954,354.466 114.211,354.55 114.717C354.662 115.166,355.561 115.278,355.842 115.419C355.898 115.419,355.926 115.447,355.954 115.447C356.179 115.447,356.179 115.138,356.291 114.913C356.459 114.604,356.656 114.324,356.656 113.902C356.656 112.414,357.667 111.6,358.678 110.757C359.576 109.999,360.531 109.353,361.373 108.539C363.676 106.237,364.687 103.485,364.687 100.424C364.687 99.919,364.659 99.441,364.631 98.908C364.575 98.599,364.462 98.234,364.21 98.065C363.844 97.728,363.732 97.504,363.732 97.223C363.732 96.942,363.901 96.605,364.013 96.24C364.406 94.948,364.743 93.685,364.743 92.477C364.743 91.326,364.462 90.175,363.844 88.995C363.76 88.939,363.76 88.855,363.76 88.771C363.76 88.602,363.816 88.49,363.844 88.35C364.322 86.833,364.687 85.289,364.687 83.744C364.687 82.734,364.546 81.779,364.181 80.796C363.929 80.206,363.901 79.617,363.901 79.027C363.901 77.96,364.125 76.921,364.125 75.91C364.125 75.714,364.097 75.489,364.097 75.349C364.013 74.703,364.041 73.973,363.816 73.439C363.62 72.99,363.536 72.597,363.536 72.176C363.536 71.614,363.648 71.108,363.76 70.519C364.041 69.031,364.294 67.542,364.294 66.054C364.294 64.903,364.181 63.808,363.816 62.684C363.816 62.6,363.816 62.488,363.76 62.404C363.536 62.039,363.311 61.505,362.918 61.505M361.542 76.921C360.98 80.038,358.228 81.638,356.488 83.997C357.021 80.796,360.082 79.42,361.542 76.921M362.384 82.902C362.104 86.131,359.239 90.512,356.853 91.466C356.824 91.27,356.824 91.073,356.824 90.877C356.824 89.641,357.47 88.63,358.257 87.76C359.604 86.187,361.093 84.755,362.384 82.902M362.16 91.972C361.345 95.117,358.706 96.886,356.909 99.469C356.853 99.188,356.824 98.964,356.824 98.711C356.824 97.588,357.246 96.774,358.116 96.044C359.576 94.752,361.093 93.629,362.16 91.972M363.086 98.234C363.114 102.081,361.093 104.046,356.656 107.36C357.695 103.4,360.98 101.21,363.086 98.234"/></g><g class="vf-stavenote" id="vf-auto37446"><g class="vf-stem" id="vf-auto37447" pointer-events="bounding-box"><path stroke-width="1.5" fill="none" d="M420.75 62L420.75 95"/></g><g class="vf-notehead" id="vf-auto37449" pointer-events="bounding-box"><path stroke="none" d="M423.145 66.543C423.426 66.599,423.678 66.627,423.959 66.627C427.834 66.627,433.619 61.348,433.506 57.08C433.394 56.041,433.422 54.609,431.316 53.766C430.727 53.485,430.081 53.373,429.379 53.373C425.054 53.373,420.365 58.343,420.028 61.657C420.028 61.909,420 62.134,420 62.387C420 64.409,420.899 66.037,423.145 66.543"/><path stroke="none" d="M440.508 55 A2 2 0 0 0 436.508 55 A2 2 0 0 0 440.508 55"/></g></g><g class="vf-stavenote" id="vf-auto37450"><g class="vf-stem" id="vf-auto37451" pointer-events="bounding-box"><path stroke-width="1.5" fill="none" d="M485.75 62L485.75 92"/></g><g class="vf-notehead" id="vf-auto37454" pointer-events="bounding-box"><path stroke="none" d="M488.145 66.543C488.426 66.599,488.678 66.627,488.959 66.627C492.834 66.627,498.619 61.348,498.506 57.08C498.394 56.041,498.422 54.609,496.316 53.766C495.727 53.485,495.081 53.373,494.379 53.373C490.054 53.373,485.365 58.343,485.028 61.657C485.028 61.909,485 62.134,485 62.387C485 64.409,485.899 66.037,488.145 66.543"/><path stroke="none" d="M505.508 55 A2 2 0 0 0 501.508 55 A2 2 0 0 0 505.508 55"/></g><path stroke="none" d="M492.421 64.118C492.253 63.978,492.14 63.894,492.028 63.894C491.888 63.894,491.775 64.034,491.719 64.371C491.691 64.905,491.495 65.41,491.438 65.944C491.41 66.309,491.382 66.674,491.382 67.011C491.382 67.656,491.523 68.246,492.168 68.78C492.899 69.369,493.32 70.324,493.713 71.194C493.825 71.447,493.881 71.728,493.881 72.009C493.881 72.542,493.685 73.104,493.629 73.666C493.348 76.754,491.888 79.338,489.95 81.64C489.192 82.567,488.462 83.578,487.676 84.504C485.794 87.004,484.98 89.84,484.98 92.956L484.98 95.231C484.98 95.989,485.148 96.635,485.963 97L486.159 97C486.44 96.326,486.721 95.624,486.721 94.894C486.721 94.445,486.637 94.08,486.637 93.715C486.665 91.861,487.535 90.289,488.658 88.829C489.641 87.621,490.568 86.358,491.523 85.15C493.713 82.398,494.808 79.253,495.285 75.8C495.454 74.761,495.538 73.722,495.538 72.655C495.538 71.082,495.342 69.51,494.836 67.937C494.415 66.477,493.432 65.27,492.421 64.118"/></g><g class="vf-stavenote" id="vf-auto37456"><g class="vf-stem" id="vf-auto37457" pointer-events="bounding-box"><path stroke-width="1.5" fill="none" d="M550.75 62L550.75 92"/></g><g class="vf-notehead" id="vf-auto37460" pointer-events="bounding-box"><path stroke="none" d="M553.145 66.543C553.426 66.599,553.678 66.627,553.959 66.627C557.834 66.627,563.619 61.348,563.506 57.08C563.394 56.041,563.422 54.609,561.316 53.766C560.727 53.485,560.081 53.373,559.379 53.373C555.054 53.373,550.365 58.343,550.028 61.657C550.028 61.909,550 62.134,550 62.387C550 64.409,550.899 66.037,553.145 66.543"/><path stroke="none" d="M570.508 55 A2 2 0 0 0 566.508 55 A2 2 0 0 0 570.508 55"/></g><path stroke="none" d="M551.657 97C552.022 97,552.022 96.551,552.106 96.326C552.387 95.512,552.359 94.613,552.696 93.799C553.313 92.283,554.493 91.216,555.616 90.12C557.975 87.818,560.39 85.543,561.653 82.398C562.383 80.573,562.889 78.72,563.057 76.754C563.113 75.772,563.254 74.789,563.226 73.946C563.254 72.57,563.113 71.279,562.945 69.987C563.029 69.369,563.029 68.808,563.057 68.358C563.113 67.123,563.029 66.056,562.664 65.045C562.524 64.736,562.411 64.455,562.215 64.203C562.102 64.09,561.934 63.894,561.737 63.894L561.653 63.894C561.485 63.978,561.457 64.034,561.457 64.174C561.457 64.287,561.485 64.399,561.485 64.483C561.513 68.527,559.828 71.84,557.245 74.733C554.38 77.878,552.134 81.359,550.983 85.487C550.337 87.649,550 89.924,550 92.226L550 94.529C550 95.006,550.168 96.354,550.814 96.803C550.927 96.888,551.629 97,551.657 97M552.415 89.11C552.864 87.734,553.51 86.498,554.072 85.206C555.307 82.37,557.469 80.264,559.294 77.878C560.221 76.698,561.007 75.406,561.597 74.087C561.597 74.311,561.653 74.564,561.653 74.789C561.653 77.4,560.586 79.787,558.929 81.865C557.554 83.578,555.897 85.066,554.38 86.61C553.594 87.369,552.948 88.239,552.415 89.11"/></g><g class="vf-stavenote" id="vf-auto37462"><g class="vf-stem" id="vf-auto37463" pointer-events="bounding-box"><path stroke-width="1.5" fill="none" d="M615.75 62L615.75 101"/></g><g class="vf-notehead" id="vf-auto37466" pointer-events="bounding-box"><path stroke="none" d="M618.145 66.543C618.426 66.599,618.678 66.627,618.959 66.627C622.834 66.627,628.619 61.348,628.506 57.08C628.394 56.041,628.422 54.609,626.316 53.766C625.727 53.485,625.081 53.373,624.379 53.373C620.054 53.373,615.365 58.343,615.028 61.657C615.028 61.909,615 62.134,615 62.387C615 64.409,615.899 66.037,618.145 66.543"/><path stroke="none" d="M635.508 55 A2 2 0 0 0 631.508 55 A2 2 0 0 0 635.508 55"/></g><path stroke="none" d="M624.06 63.472C623.723 63.557,623.976 64.034,623.891 64.315C623.807 64.68,623.751 65.101,623.751 65.466C623.751 66.477,624.004 67.488,624.004 68.499C624.004 68.808,624.004 69.145,623.919 69.425C623.274 72.57,621.898 75.322,619.427 77.456C618.556 78.243,617.63 78.973,616.843 79.899C615.608 81.388,615.187 83.128,615.187 84.982C615.187 86.638,615.102 88.351,615.102 90.036C615.158 91.749,614.709 93.153,614.962 94.81C614.99 95.343,614.99 96.101,614.99 96.607L614.99 101.156C614.99 101.886,615.074 102.588,615.158 103.262C615.243 103.683,615.608 103.739,615.832 103.823L615.917 103.823C616.113 103.88,616.113 103.515,616.254 103.346C616.338 103.178,616.478 102.953,616.478 102.728C616.394 100.678,617.742 99.471,619.23 98.572C623.077 96.242,624.762 91.861,624.734 87.425C624.762 86.526,624.621 85.515,624.284 84.476C624.2 84.224,624.2 84.027,624.2 83.774C624.2 83.044,624.481 82.286,624.565 81.556C624.621 81.163,624.65 80.742,624.65 80.377C624.65 79.562,624.537 78.776,624.341 77.906C624.256 77.681,624.256 77.4,624.256 77.147C624.256 76.67,624.369 76.221,624.565 75.8C625.436 73.778,625.829 71.756,625.829 69.734C625.857 68.05,625.576 66.309,625.071 64.568C624.986 64.455,624.93 64.287,624.846 64.174C624.65 63.838,624.453 63.36,624.06 63.472M622.712 79.366C622.431 83.662,619.595 86.077,616.984 88.744C616.899 88.239,616.815 87.706,616.815 87.256C616.843 86.077,617.18 84.982,618.107 83.971C619.567 82.455,621.336 81.275,622.712 79.366M622.993 87.256C623.049 87.425,623.077 87.621,623.077 87.874C623.077 90.261,620.072 93.771,617.545 94.866C617.573 93.995,617.91 93.35,618.388 92.76C619.848 90.935,621.982 89.671,622.993 87.256"/></g><g class="vf-stavenote" id="vf-auto37468"><g class="vf-stem" id="vf-auto37469" pointer-events="bounding-box"><path stroke-width="1.5" fill="none" d="M680.75 62L680.75 105"/></g><g class="vf-notehead" id="vf-auto37472" pointer-events="bounding-box"><path stroke="none" d="M683.145 66.543C683.426 66.599,683.678 66.627,683.959 66.627C687.834 66.627,693.619 61.348,693.506 57.08C693.394 56.041,693.422 54.609,691.316 53.766C690.727 53.485,690.081 53.373,689.379 53.373C685.054 53.373,680.365 58.343,680.028 61.657C680.028 61.909,680 62.134,680 62.387C680 64.409,680.899 66.037,683.145 66.543"/><path stroke="none" d="M700.508 55 A2 2 0 0 0 696.508 55 A2 2 0 0 0 700.508 55"/></g><path stroke="none" d="M689.022 64.848C688.881 64.933,688.825 65.101,688.825 65.213C688.825 65.382,688.881 65.578,688.881 65.747C688.797 69.734,687.674 73.3,684.754 76.221C684.024 76.951,683.209 77.597,682.395 78.243C680.879 79.478,680.064 81.163,679.896 83.128C679.812 83.943,679.784 84.757,679.784 85.543C679.784 87.144,679.896 88.744,680.008 90.373C680.149 92.142,679.727 93.939,679.615 95.736C679.615 96.242,679.587 96.663,679.587 97.168L679.587 99.106C679.587 100.229,679.531 101.409,679.362 102.504C679.222 103.543,679.166 104.61,679.166 105.621L679.166 107.727C679.166 108.569,679.166 109.468,679.053 110.338L679.053 110.591C679.053 110.9,679.082 111.237,679.166 111.602C679.25 111.967,679.615 112.079,679.896 112.135C679.924 112.163,679.924 112.163,679.98 112.163C680.233 112.163,680.261 111.826,680.373 111.63C680.738 110.872,680.935 110.029,680.935 109.215C680.935 108.513,681.244 108.035,681.637 107.558C682.76 106.21,684.304 105.368,685.568 104.16C687 102.728,688.264 101.156,688.797 99.19C688.994 98.292,689.106 97.393,689.106 96.326C689.106 95.961,689.078 95.596,689.078 95.231C688.994 95.006,688.994 94.782,688.994 94.585C688.994 93.293,689.92 91.974,690.089 90.57C690.173 89.896,690.257 89.166,690.257 88.436C690.257 87.06,690.033 85.684,689.696 84.392C689.471 83.746,689.275 83.1,689.275 82.398C689.275 82.202,689.275 82.033,689.331 81.837C689.387 81.472,689.387 81.079,689.387 80.714C689.387 79.478,689.19 78.355,689.022 77.232C689.022 77.119,688.994 76.979,688.994 76.895C688.994 76.445,689.106 76.108,689.275 75.743C690.005 73.666,690.622 71.616,690.622 69.425C690.622 68.05,690.398 66.702,689.892 65.494C689.724 65.129,689.443 64.736,689.022 64.848M687.618 78.72C687.674 78.973,687.674 79.197,687.674 79.422C687.674 80.742,687.253 81.753,686.495 82.595C684.978 84.308,683.013 85.487,681.553 87.509C681.524 87.256,681.524 86.975,681.524 86.695C681.524 85.543,681.833 84.673,682.479 83.859C683.939 82.005,686.045 80.826,687.618 78.72M687.59 86.61C687.702 86.498,687.814 86.414,687.955 86.414C688.067 86.414,688.151 86.526,688.264 86.863C688.376 87.256,688.46 87.649,688.46 88.014C688.46 89.278,687.73 90.289,686.719 91.047C684.922 92.479,683.041 93.855,681.356 95.652C681.384 93.995,681.524 92.591,682.535 91.552C684.136 89.84,685.877 88.267,687.59 86.61M687.253 95.652C687.421 95.989,687.506 96.27,687.506 96.551C687.506 96.747,687.449 96.972,687.337 97.197C686.888 98.039,686.41 98.938,685.652 99.583C684.108 100.875,682.62 102.167,680.935 103.543C681.44 99.471,684.417 97.646,687.253 95.652"/></g><g class="vf-stavenote" id="vf-auto37474"><g class="vf-stem" id="vf-auto37475" pointer-events="bounding-box"><path stroke-width="1.5" fill="none" d="M745.75 62L745.75 114"/></g><g class="vf-notehead" id="vf-auto37478" pointer-events="bounding-box"><path stroke="none" d="M748.145 66.543C748.426 66.599,748.678 66.627,748.959 66.627C752.834 66.627,758.619 61.348,758.506 57.08C758.394 56.041,758.422 54.609,756.316 53.766C755.727 53.485,755.081 53.373,754.379 53.373C750.054 53.373,745.365 58.343,745.028 61.657C745.028 61.909,745 62.134,745 62.387C745 64.409,745.899 66.037,748.145 66.543"/><path stroke="none" d="M765.508 55 A2 2 0 0 0 761.508 55 A2 2 0 0 0 765.508 55"/></g><path stroke="none" d="M752.918 66.505C752.637 66.505,752.609 66.646,752.609 66.87C752.609 67.067,752.665 67.319,752.637 67.516C752.609 67.713,752.637 67.937,752.637 68.134C752.3 71.616,751.991 75.126,750.082 78.186C749.043 79.899,747.555 81.275,746.122 82.679C745.364 83.465,744.887 84.252,744.887 85.347C744.887 86.526,744.803 87.734,744.803 88.941C744.803 89.755,744.831 90.485,744.915 91.272C745.084 92.591,745.112 93.967,745.112 95.315C745.112 96.354,745.084 97.449,745.084 98.488C745.084 99.303,745.112 100.061,745.168 100.875C745.196 101.437,745.224 102.054,745.224 102.616C745.224 104.188,745.168 105.705,745.168 107.137C745.168 108.485,744.718 109.748,744.578 111.068C744.55 111.433,744.55 111.826,744.55 112.191C744.55 113.371,744.466 114.522,744.55 115.729C744.55 115.954,744.466 119.211,744.55 119.717C744.662 120.166,745.561 120.278,745.842 120.419C745.898 120.419,745.926 120.447,745.954 120.447C746.179 120.447,746.179 120.138,746.291 119.913C746.459 119.604,746.656 119.324,746.656 118.902C746.656 117.414,747.667 116.6,748.678 115.757C749.576 114.999,750.531 114.353,751.373 113.539C753.676 111.237,754.687 108.485,754.687 105.424C754.687 104.919,754.659 104.441,754.631 103.908C754.575 103.599,754.462 103.234,754.21 103.065C753.844 102.728,753.732 102.504,753.732 102.223C753.732 101.942,753.901 101.605,754.013 101.24C754.406 99.948,754.743 98.685,754.743 97.477C754.743 96.326,754.462 95.175,753.844 93.995C753.76 93.939,753.76 93.855,753.76 93.771C753.76 93.602,753.816 93.49,753.844 93.35C754.322 91.833,754.687 90.289,754.687 88.744C754.687 87.734,754.546 86.779,754.181 85.796C753.929 85.206,753.901 84.617,753.901 84.027C753.901 82.96,754.125 81.921,754.125 80.91C754.125 80.714,754.097 80.489,754.097 80.349C754.013 79.703,754.041 78.973,753.816 78.439C753.62 77.99,753.536 77.597,753.536 77.176C753.536 76.614,753.648 76.108,753.76 75.519C754.041 74.031,754.294 72.542,754.294 71.054C754.294 69.903,754.181 68.808,753.816 67.684C753.816 67.6,753.816 67.488,753.76 67.404C753.536 67.039,753.311 66.505,752.918 66.505M751.542 81.921C750.98 85.038,748.228 86.638,746.488 88.997C747.021 85.796,750.082 84.42,751.542 81.921M752.384 87.902C752.104 91.131,749.239 95.512,746.853 96.466C746.824 96.27,746.824 96.073,746.824 95.877C746.824 94.641,747.47 93.63,748.257 92.76C749.604 91.187,751.093 89.755,752.384 87.902M752.16 96.972C751.345 100.117,748.706 101.886,746.909 104.469C746.853 104.188,746.824 103.964,746.824 103.711C746.824 102.588,747.246 101.774,748.116 101.044C749.576 99.752,751.093 98.629,752.16 96.972M753.086 103.234C753.114 107.081,751.093 109.046,746.656 112.36C747.695 108.4,750.98 106.21,753.086 103.234"/></g></svg>