<svg xmlns="http://www.w3.org/2000/svg" stroke-width="0.3" stroke-dasharray="none" fill="black" stroke="black" font-family="Arial, sans-serif" font-size="10pt" font-weight="normal" font-style="normal" width="450" height="200" viewBox="0 0 450 200" style="width: 450px; height: 200px; border: none;"><g class="vf-stave" id="vf-auto9082" stroke-width="1" fill="#999999" stroke="#999999"><path fill="none" d="M0 40L440 40"/><path fill="none" d="M0 50L440 50"/><path fill="none" d="M0 60L440 60"/><path fill="none" d="M0 70L440 70"/><path fill="none" d="M0 80L440 80"/></g><g class="vf-stavebarline" id="vf-auto9083"><rect y="39.5" width="1" height="41" stroke="none"/></g><g class="vf-stavebarline" id="vf-auto9084"><rect x="440" y="39.5" width="1" height="41" stroke="none"/></g><g class="vf-timesignature" id="vf-auto9085"><path stroke="none" d="M10.832 41.77C11.034 41.77,11.235 41.741,11.437 41.741C12.214 41.741,13.107 41.856,13.741 42.058C16.16 42.749,17.571 44.362,17.571 46.262C17.571 46.896,17.427 47.53,17.11 48.192C16.246 49.978,14.605 51.245,12.157 52.08C9.824 52.829,8.326 53.779,7.232 55.162L7.117 55.277L7.261 55.162C8.442 54.211,9.882 53.722,11.293 53.722C12.214 53.722,13.107 53.923,13.885 54.355C14.518 54.701,14.893 54.845,15.382 54.931C15.526 54.96,15.699 54.96,15.843 54.96C16.563 54.96,17.226 54.701,17.456 54.298C17.542 54.096,17.715 54.01,17.888 54.01C18.09 54.01,18.32 54.182,18.32 54.47C18.32 54.73,17.974 55.594,17.658 56.141C16.736 57.725,15.267 58.733,13.798 58.733L13.77 58.733C13.165 58.704,12.992 58.675,12.531 58.387C11.293 57.581,9.997 57.178,8.758 57.178C8.384 57.178,8.038 57.206,7.693 57.293C7.002 57.437,6.282 57.84,6.022 58.214C5.907 58.358,5.734 58.445,5.59 58.445C5.418 58.445,5.245 58.358,5.187 58.157C5.158 58.128,5.158 58.042,5.158 57.926C5.158 57.581,5.216 57.005,5.331 56.602C5.907 54.211,7.606 52.282,10.026 51.216C11.811 50.438,13.021 48.883,13.366 46.954C13.395 46.723,13.424 46.493,13.424 46.291C13.424 45.456,13.107 44.707,12.531 44.16C11.898 43.555,11.12 43.238,10.141 43.238C9.968 43.238,9.766 43.267,9.565 43.296C9.334 43.296,9.277 43.325,9.277 43.325C9.277 43.354,9.306 43.354,9.334 43.382C10.026 43.814,10.342 44.477,10.342 45.168C10.342 46.032,9.824 46.896,8.874 47.213C8.643 47.299,8.413 47.328,8.182 47.328C6.973 47.328,5.965 46.291,5.965 45.082C5.965 44.88,5.994 44.678,6.051 44.448C6.426 43.152,8.47 42,10.832 41.77M11.725 60L11.782 60L11.696 60M11.725 41.05L11.782 41.05L11.696 41.05"/><path stroke="none" d="M9.982 62.086C10.04 62.058,11.682 62.058,13.237 62.058C14.562 62.058,15.858 62.058,15.886 62.086C16.059 62.144,16.174 62.317,16.174 62.49C16.174 62.691,16.146 62.72,15.598 63.325C15.109 63.843,13.582 65.571,12.027 67.328C11.566 67.846,11.134 68.336,11.019 68.451C10.904 68.566,10.213 69.344,9.464 70.179C8.744 71.014,7.822 72.051,7.448 72.454C7.074 72.886,6.757 73.232,6.757 73.261C6.757 73.261,6.757 73.261,6.757 73.261C6.757 73.29,6.987 73.29,9.349 73.29L11.941 73.29L11.97 71.418C11.97 69.603,11.97 69.574,11.998 69.517C12.027 69.488,12.603 68.826,13.294 68.048C13.986 67.27,14.792 66.349,15.109 66.032C15.886 65.139,15.858 65.168,16.088 65.168C16.29 65.168,16.434 65.254,16.491 65.398C16.52 65.485,16.52 65.629,16.52 69.373L16.52 73.29L17.211 73.29C17.874 73.29,17.931 73.29,18.018 73.318C18.248 73.405,18.392 73.635,18.392 73.866C18.392 74.038,18.334 74.182,18.219 74.298C18.046 74.47,18.018 74.47,17.24 74.47L16.549 74.47L16.549 74.643C16.549 74.73,16.549 74.989,16.549 75.219C16.578 76.4,16.952 76.976,18.104 77.552C18.334 77.667,18.478 77.84,18.478 78.013C18.478 78.128,18.421 78.243,18.334 78.33C18.219 78.445,18.507 78.445,15.771 78.445C15.339 78.445,14.821 78.445,14.245 78.445C13.669 78.445,13.15 78.445,12.718 78.445C9.982 78.445,10.27 78.445,10.155 78.33C10.069 78.243,10.011 78.128,10.011 78.013C10.011 77.84,10.155 77.667,10.386 77.552C11.538 76.976,11.912 76.4,11.941 75.219C11.941 74.989,11.941 74.73,11.941 74.643L11.941 74.47L8.658 74.47C8.168 74.47,7.765 74.47,7.419 74.47C5.058 74.47,5.259 74.47,5.144 74.355C5.058 74.269,5 74.154,5 74.038C5 73.923,5.086 73.75,5.23 73.578C7.966 70.496,9.608 66.637,9.723 62.893C9.723 62.288,9.752 62.202,9.982 62.086M11.739 80L11.768 80L11.682 80M11.739 61.05L11.768 61.05L11.682 61.05"/></g><g class="vf-stavenote" id="vf-auto9089"><g class="vf-notehead" id="vf-auto9118" pointer-events="bounding-box"><path stroke="none" d="M37.583 54.889C37.667 54.889,37.751 54.889,37.892 54.889C38.257 54.889,38.79 54.918,38.987 54.946C41.317 55.283,42.469 56.827,42.469 58.624C42.469 60.534,41.177 62.724,38.594 64.128C37.33 64.802,36.038 65.111,34.859 65.111C32.697 65.111,30.928 64.044,30.563 62.162C30.506 61.881,30.478 61.629,30.478 61.376C30.478 58.343,33.736 55.283,37.583 54.889"/></g></g><g class="vf-stavenote" id="vf-auto9095"><g class="vf-notehead" id="vf-auto9120" pointer-events="bounding-box"><path stroke="none" d="M98.093 54.889C98.177 54.889,98.261 54.889,98.401 54.889C98.766 54.889,99.3 54.918,99.497 54.946C101.827 55.283,102.978 56.827,102.978 58.624C102.978 60.534,101.687 62.724,99.103 64.128C97.84 64.802,96.548 65.111,95.369 65.111C93.207 65.111,91.438 64.044,91.073 62.162C91.016 61.881,90.988 61.629,90.988 61.376C90.988 58.343,94.246 55.283,98.093 54.889"/></g></g><g class="vf-stavenote" id="vf-auto9101"><g class="vf-stem" id="vf-auto9102" pointer-events="bounding-box"><path stroke-width="1.5" fill="none" d="M152.248 61.5L152.248 95"/></g><g class="vf-notehead" id="vf-auto9104" pointer-events="bounding-box"><path stroke="none" d="M158.603 54.889C158.687 54.889,158.771 54.889,158.911 54.889C159.276 54.889,159.81 54.918,160.007 54.946C162.337 55.283,163.488 56.827,163.488 58.624C163.488 60.534,162.197 62.724,159.613 64.128C158.35 64.802,157.058 65.111,155.879 65.111C153.717 65.111,151.948 64.044,151.583 62.162C151.526 61.881,151.498 61.629,151.498 61.376C151.498 58.343,154.756 55.283,158.603 54.889"/></g></g><g class="vf-stavenote" id="vf-auto9105"><g class="vf-notehead" id="vf-auto9122" pointer-events="bounding-box"><path stroke="none" d="M302.094 54.889C302.178 54.889,302.263 54.889,302.403 54.889C302.768 54.889,303.302 54.918,303.498 54.946C305.829 55.283,306.98 56.827,306.98 58.624C306.98 60.534,305.688 62.724,303.105 64.128C301.841 64.802,300.55 65.111,299.37 65.111C297.208 65.111,295.439 64.044,295.074 62.162C295.018 61.881,294.99 61.629,294.99 61.376C294.99 58.343,298.247 55.283,302.094 54.889"/></g></g><g class="vf-stavenote" id="vf-auto9111"><g class="vf-notehead" id="vf-auto9124" pointer-events="bounding-box"><path stroke="none" d="M362.604 54.889C362.688 54.889,362.773 54.889,362.913 54.889C363.278 54.889,363.812 54.918,364.008 54.946C366.339 55.283,367.49 56.827,367.49 58.624C367.49 60.534,366.198 62.724,363.615 64.128C362.351 64.802,361.06 65.111,359.88 65.111C357.718 65.111,355.949 64.044,355.584 62.162C355.528 61.881,355.5 61.629,355.5 61.376C355.5 58.343,358.757 55.283,362.604 54.889"/></g></g><g class="vf-stem" id="vf-auto9090" pointer-events="bounding-box"><path stroke-width="1.5" fill="none" d="M31.228 61.5L31.228 94.25"/></g><g class="vf-stem" id="vf-auto9096" pointer-events="bounding-box"><path stroke-width="1.5" fill="none" d="M91.738 61.5L91.738 94.25"/></g><g class="vf-beam" id="vf-auto9126"><path stroke="none" d="M30.478 95L30.478 90L91.988 90L91.988 95Z"/><path stroke="none" d="M30.478 87.5L30.478 82.5L91.988 82.5L91.988 87.5Z"/></g><g class="vf-stem" id="vf-auto9106" pointer-events="bounding-box"><path stroke-width="1.5" fill="none" d="M295.74 61.5L295.74 94.25"/></g><g class="vf-stem" id="vf-auto9112" pointer-events="bounding-box"><path stroke-width="1.5" fill="none" d="M356.25 61.5L356.25 94.25"/></g><g class="vf-beam" id="vf-auto9127"><path stroke="none" d="M294.99 95L294.99 90L356.5 90L356.5 95Z"/><path stroke="none" d="M294.99 87.5L294.99 82.5L356.5 82.5L356.5 87.5Z"/></g></svg>