<svg xmlns="http://www.w3.org/2000/svg" stroke-width="0.3" stroke-dasharray="none" fill="black" stroke="black" font-family="Arial, sans-serif" font-size="10pt" font-weight="normal" font-style="normal" width="550" height="140" viewBox="0 0 550 140" style="width: 550px; height: 140px; border: none;"><g class="vf-stave" id="vf-auto28879" stroke-width="1" fill="#999999" stroke="#999999"><path fill="none" d="M0 40L540 40"/><path fill="none" d="M0 50L540 50"/><path fill="none" d="M0 60L540 60"/><path fill="none" d="M0 70L540 70"/><path fill="none" d="M0 80L540 80"/></g><g class="vf-stavebarline" id="vf-auto28880"><rect y="39.5" width="1" height="41" stroke="none"/></g><g class="vf-stavebarline" id="vf-auto28881"><rect x="540" y="39.5" width="1" height="41" stroke="none"/></g><g class="vf-stavenote" id="vf-auto28882"><path stroke-width="1.4" fill="none" stroke="#444" d="M14 90L33.141 90"/><g class="vf-stem" id="vf-auto28883" pointer-events="bounding-box"><path stroke-width="1.5" fill="none" d="M29.391 88L29.391 55"/></g><g class="vf-notehead" id="vf-auto28886" pointer-events="bounding-box"><path stroke="none" d="M17 91.685C17 93.426,18.264 95.391,21.521 95.391C25.733 95.391,30.141 91.938,30.141 88.371C30.141 85.985,28.12 84.665,25.621 84.665C21.689 84.665,17 87.978,17 91.685"/></g></g><g class="vf-stavenote" id="vf-auto28887"><path stroke-width="1.4" fill="none" stroke="#444" d="M113.572 90L132.713 90"/><g class="vf-stem" id="vf-auto28888" pointer-events="bounding-box"><path stroke-width="1.5" fill="none" d="M128.963 88L128.963 55"/></g><g class="vf-notehead" id="vf-auto28891" pointer-events="bounding-box"><path stroke="none" d="M116.572 91.685C116.572 93.426,117.835 95.391,121.093 95.391C125.305 95.391,129.713 91.938,129.713 88.371C129.713 85.985,127.691 84.665,125.192 84.665C121.261 84.665,116.572 87.978,116.572 91.685"/></g></g><g class="vf-stavenote" id="vf-auto28892"><path stroke-width="1.4" fill="none" stroke="#444" d="M213.143 90L232.285 90"/><g class="vf-stem" id="vf-auto28893" pointer-events="bounding-box"><path stroke-width="1.5" fill="none" d="M228.535 88L228.535 55"/></g><g class="vf-notehead" id="vf-auto28896" pointer-events="bounding-box"><path stroke="none" d="M216.143 91.685C216.143 93.426,217.407 95.391,220.664 95.391C224.876 95.391,229.285 91.938,229.285 88.371C229.285 85.985,227.263 84.665,224.764 84.665C220.833 84.665,216.143 87.978,216.143 91.685"/></g></g><g class="vf-stavenote" id="vf-auto28897"><path stroke-width="1.4" fill="none" stroke="#444" d="M312.715 90L331.857 90"/><g class="vf-stem" id="vf-auto28898" pointer-events="bounding-box"><path stroke-width="1.5" fill="none" d="M328.107 88L328.107 55"/></g><g class="vf-notehead" id="vf-auto28901" pointer-events="bounding-box"><path stroke="none" d="M315.715 91.685C315.715 93.426,316.979 95.391,320.236 95.391C324.448 95.391,328.857 91.938,328.857 88.371C328.857 85.985,326.835 84.665,324.336 84.665C320.404 84.665,315.715 87.978,315.715 91.685"/></g></g><g class="vf-stavenote" id="vf-auto28902"><path stroke-width="1.4" fill="none" stroke="#444" d="M412.287 90L431.428 90"/><g class="vf-stem" id="vf-auto28903" pointer-events="bounding-box"><path stroke-width="1.5" fill="none" d="M427.678 88L427.678 55"/></g><g class="vf-notehead" id="vf-auto28906" pointer-events="bounding-box"><path stroke="none" d="M415.287 91.685C415.287 93.426,416.55 95.391,419.808 95.391C424.02 95.391,428.428 91.938,428.428 88.371C428.428 85.985,426.407 84.665,423.907 84.665C419.976 84.665,415.287 87.978,415.287 91.685"/></g></g><text stroke-width="1" stroke="none" font-family="&quot;Times New Roman&quot;, serif" font-size="15pt" font-style="italic" x="17" y="20">Cool notes</text><path stroke-width="1" fill="none" d="M108.125 11.2L113.125 11.2M118.125 11.2L123.125 11.2M128.125 11.2L129.713 11.2Z"/><path stroke-width="1" fill="none" d="M129.713 12.2L129.713 17.2M129.713 19.2Z"/><text stroke-width="2" stroke="none" font-family="Arial" font-size="15pt" x="216.143" y="20">Testing</text><text stroke-width="2" stroke="none" font-family="Arial" font-size="10.71429pt" x="280.518" y="11.116">superscript</text><path stroke-width="2" fill="none" d="M354.362 5.19L359.362 5.19M364.362 5.19L369.362 5.19M374.362 5.19L379.362 5.19M384.362 5.19L389.362 5.19M394.362 5.19L399.362 5.19M404.362 5.19L409.362 5.19M414.362 5.19L419.362 5.19M424.362 5.19L428.428 5.19Z"/><text stroke-width="1" stroke="none" font-family="&quot;Times New Roman&quot;, serif" font-size="30pt" font-style="italic" x="17" y="130">8</text><text stroke-width="1" stroke="none" font-family="Times New Roman, serif" font-size="21.42858pt" font-style="italic" x="38" y="112">vb</text><path stroke-width="1" fill="none" d="M65.969 123.481L129.713 123.481L129.713 115.481"/><text stroke-width="1" stroke="none" font-family="&quot;Times New Roman&quot;, serif" font-size="15pt" font-style="italic" x="216.143" y="140">Not cool notes</text><text stroke-width="1" stroke="none" font-family="Times New Roman, serif" font-size="10.71429pt" font-style="italic" x="333.247" y="131.2"> super uncool</text><path stroke-width="1" fill="none" d="M334.247 137.146L336.247 137.146M338.247 137.146L340.247 137.146M342.247 137.146L344.247 137.146M346.247 137.146L348.247 137.146M350.247 137.146L352.247 137.146M354.247 137.146L356.247 137.146M358.247 137.146L360.247 137.146M362.247 137.146L364.247 137.146M366.247 137.146L368.247 137.146M370.247 137.146L372.247 137.146M374.247 137.146L376.247 137.146M378.247 137.146L380.247 137.146M382.247 137.146L384.247 137.146M386.247 137.146L388.247 137.146M390.247 137.146L392.247 137.146M394.247 137.146L396.247 137.146M398.247 137.146L400.247 137.146M402.247 137.146L404.247 137.146M406.247 137.146L408.247 137.146M410.247 137.146L412.247 137.146M414.247 137.146L416.247 137.146M418.247 137.146L420.247 137.146M422.247 137.146L424.247 137.146M426.247 137.146L428.247 137.146M428.428 137.146Z"/><path stroke-width="1" fill="none" d="M428.428 136.146L428.428 134.146M428.428 132.146L428.428 130.146M428.428 128.146L428.428 126.146M428.428 124.146L428.428 122.146M428.428 120.146L428.428 118.146M428.428 116.146L428.428 114.146M428.428 112.146L428.428 110.146M428.428 108.146L428.428 106.146M428.428 104.146L428.428 102.146M428.428 100.146L428.428 98.146M428.428 97.146Z"/></svg>