<svg xmlns="http://www.w3.org/2000/svg" stroke-width="0.3" stroke-dasharray="none" fill="black" stroke="black" font-family="Arial, sans-serif" font-size="10pt" font-weight="normal" font-style="normal" width="450" height="140" viewBox="0 0 450 140" style="width: 450px; height: 140px; border: none;"><g class="vf-stave" id="vf-auto13244" stroke-width="1" fill="#999999" stroke="#999999"><path fill="none" d="M0 40L440 40"/><path fill="none" d="M0 50L440 50"/><path fill="none" d="M0 60L440 60"/><path fill="none" d="M0 70L440 70"/><path fill="none" d="M0 80L440 80"/></g><g class="vf-stavebarline" id="vf-auto13245"><rect y="39.5" width="1" height="41" stroke="none"/></g><g class="vf-stavebarline" id="vf-auto13246"><rect x="440" y="39.5" width="1" height="41" stroke="none"/></g><g class="vf-stavenote" id="vf-auto13247"><path stroke-width="1.4" fill="none" stroke="#444" d="M17 90L36.508 90"/><g class="vf-stem" id="vf-auto13248" pointer-events="bounding-box"><path stroke-width="1.5" fill="none" d="M32.758 88L32.758 58"/></g><g class="vf-notehead" id="vf-auto13288" pointer-events="bounding-box"><path stroke="none" d="M23.645 96.543C23.926 96.599,24.178 96.627,24.459 96.627C28.334 96.627,34.119 91.348,34.006 87.08C33.894 86.041,33.922 84.609,31.816 83.766C31.227 83.485,30.581 83.373,29.879 83.373C25.554 83.373,20.865 88.343,20.528 91.657C20.528 91.909,20.5 92.134,20.5 92.387C20.5 94.409,21.399 96.037,23.645 96.543"/></g><path stroke="none" d="M39.429 85.882C40.44 84.73,41.423 83.523,41.844 82.063C42.35 80.49,42.546 78.918,42.546 77.345C42.546 76.278,42.462 75.239,42.293 74.2C41.816 70.747,40.721 67.602,38.531 64.85C37.576 63.642,36.649 62.379,35.667 61.171C34.543 59.711,33.841 58.391,33.813 56.51C33.813 56.145,33.729 55.555,33.729 55.106C33.729 54.376,33.448 53.674,33.167 53L32.971 53C32.157 53.365,31.988 54.011,31.988 54.769L31.988 57.044C31.988 60.16,32.802 62.996,34.684 65.496C35.47 66.422,36.2 67.433,36.958 68.36C38.896 70.662,40.356 73.246,40.637 76.334C40.693 76.896,40.889 77.458,40.889 77.991C40.889 78.272,40.833 78.553,40.721 78.806C40.328 79.676,39.907 80.631,39.177 81.22C38.531 81.754,38.39 82.344,38.39 82.989C38.39 83.326,38.418 83.691,38.446 84.056C38.503 84.59,38.699 85.095,38.727 85.629C38.783 85.966,38.896 86.106,39.036 86.106C39.148 86.106,39.261 86.022,39.429 85.882"/></g><g class="vf-stavenote" id="vf-auto13253"><g class="vf-stem" id="vf-auto13254" pointer-events="bounding-box"><path stroke-width="1.5" fill="none" d="M92.157 68L92.157 35"/></g><g class="vf-notehead" id="vf-auto13256" pointer-events="bounding-box"><path stroke="none" d="M83.044 76.543C83.325 76.599,83.577 76.627,83.858 76.627C87.733 76.627,93.518 71.348,93.405 67.08C93.293 66.041,93.321 64.609,91.215 63.766C90.625 63.485,89.98 63.373,89.278 63.373C84.953 63.373,80.264 68.343,79.927 71.657C79.927 71.909,79.899 72.134,79.899 72.387C79.899 74.409,80.797 76.037,83.044 76.543"/></g></g><g class="vf-stavenote" id="vf-auto13257"><g class="vf-notehead" id="vf-auto13290" pointer-events="bounding-box"><path stroke="none" d="M161.754 61.543C162.034 61.599,162.287 61.627,162.568 61.627C166.443 61.627,172.227 56.348,172.115 52.08C172.003 51.041,172.031 49.609,169.925 48.766C169.335 48.485,168.689 48.373,167.987 48.373C163.663 48.373,158.974 53.343,158.637 56.657C158.637 56.909,158.609 57.134,158.609 57.387C158.609 59.409,159.507 61.037,161.754 61.543"/></g></g><g class="vf-stavenote" id="vf-auto13263"><g class="vf-notehead" id="vf-auto13292" pointer-events="bounding-box"><path stroke="none" d="M221.152 41.543C221.433 41.599,221.686 41.627,221.967 41.627C225.842 41.627,231.626 36.348,231.514 32.08C231.402 31.041,231.43 29.609,229.324 28.766C228.734 28.485,228.088 28.373,227.386 28.373C223.062 28.373,218.373 33.343,218.036 36.657C218.036 36.909,218.007 37.134,218.007 37.387C218.007 39.409,218.906 41.037,221.152 41.543"/></g></g><g class="vf-stavenote" id="vf-auto13269"><path stroke-width="1.4" fill="none" stroke="#444" d="M274.406 30L293.914 30"/><g class="vf-notehead" id="vf-auto13294" pointer-events="bounding-box"><path stroke="none" d="M280.551 36.543C280.832 36.599,281.085 36.627,281.366 36.627C285.241 36.627,291.025 31.348,290.913 27.08C290.801 26.041,290.829 24.609,288.723 23.766C288.133 23.485,287.487 23.373,286.785 23.373C282.461 23.373,277.771 28.343,277.434 31.657C277.434 31.909,277.406 32.134,277.406 32.387C277.406 34.409,278.305 36.037,280.551 36.543"/></g></g><g class="vf-stavenote" id="vf-auto13275"><path stroke-width="1.4" fill="none" stroke="#444" d="M333.805 30L353.313 30"/><g class="vf-notehead" id="vf-auto13296" pointer-events="bounding-box"><path stroke="none" d="M339.95 36.543C340.231 36.599,340.484 36.627,340.765 36.627C344.64 36.627,350.424 31.348,350.312 27.08C350.199 26.041,350.228 24.609,348.122 23.766C347.532 23.485,346.886 23.373,346.184 23.373C341.86 23.373,337.17 28.343,336.833 31.657C336.833 31.909,336.805 32.134,336.805 32.387C336.805 34.409,337.704 36.037,339.95 36.543"/></g></g><g class="vf-stavenote" id="vf-auto13281"><g class="vf-notehead" id="vf-auto13298" pointer-events="bounding-box"><path stroke="none" d="M399.349 46.543C399.63 46.599,399.883 46.627,400.163 46.627C404.039 46.627,409.823 41.348,409.711 37.08C409.598 36.041,409.626 34.609,407.52 33.766C406.931 33.485,406.285 33.373,405.583 33.373C401.259 33.373,396.569 38.343,396.232 41.657C396.232 41.909,396.204 42.134,396.204 42.387C396.204 44.409,397.103 46.037,399.349 46.543"/></g></g><g class="vf-stem" id="vf-auto13258" pointer-events="bounding-box"><path stroke-width="1.5" fill="none" d="M159.359 57L159.359 89.25"/></g><g class="vf-stem" id="vf-auto13264" pointer-events="bounding-box"><path stroke-width="1.5" fill="none" d="M218.757 37L218.757 77.37"/></g><g class="vf-stem" id="vf-auto13270" pointer-events="bounding-box"><path stroke-width="1.5" fill="none" d="M278.156 32L278.156 65.49"/></g><g class="vf-beam" id="vf-auto13300"><path stroke="none" d="M158.609 90.15L158.609 85.15L278.406 61.39L278.406 66.39Z"/></g><g class="vf-stem" id="vf-auto13276" pointer-events="bounding-box"><path stroke-width="1.5" fill="none" d="M337.555 32L337.555 68.31"/></g><g class="vf-stem" id="vf-auto13282" pointer-events="bounding-box"><path stroke-width="1.5" fill="none" d="M396.954 42L396.954 74.25"/></g><g class="vf-beam" id="vf-auto13301"><path stroke="none" d="M336.805 68.985L336.805 63.985L397.204 69.925L397.204 74.925Z"/></g></svg>