<svg xmlns="http://www.w3.org/2000/svg" stroke-width="0.3" stroke-dasharray="none" fill="black" stroke="black" font-family="Arial, sans-serif" font-size="10pt" font-weight="normal" font-style="normal" width="300" height="280" viewBox="0 0 100 93.33333333333333" style="width: 300px; height: 280px; border: none;"><g class="vf-stave" id="vf-auto36245" stroke-width="1" fill="#999999" stroke="#999999"><path fill="none" d="M10 40L110 40"/><path fill="none" d="M10 50L110 50"/><path fill="none" d="M10 60L110 60"/><path fill="none" d="M10 70L110 70"/><path fill="none" d="M10 80L110 80"/></g><g class="vf-stavebarline" id="vf-auto36246"><rect x="10" y="39.5" width="1" height="41" stroke="none"/></g><g class="vf-stavebarline" id="vf-auto36247"><rect x="110" y="39.5" width="1" height="41" stroke="none"/></g><g class="vf-stavenote" id="vf-auto36248"><g class="vf-stem" id="vf-auto36249" pointer-events="bounding-box"><path stroke-width="1.5" fill="none" d="M64.391 68L64.391 18"/></g><g class="vf-notehead" id="vf-auto36254" pointer-events="bounding-box"><path stroke="none" d="M52 71.685C52 73.426,53.264 75.391,56.521 75.391C60.733 75.391,65.141 71.938,65.141 68.371C65.141 65.985,63.12 64.665,60.621 64.665C56.689 64.665,52 67.978,52 71.685"/></g><g class="vf-notehead" id="vf-auto36255" pointer-events="bounding-box"><path stroke="none" d="M52 61.685C52 63.426,53.264 65.391,56.521 65.391C60.733 65.391,65.141 61.938,65.141 58.371C65.141 55.985,63.12 54.665,60.621 54.665C56.689 54.665,52 57.978,52 61.685"/><path stroke="none" d="M49.918 56.881C49.699 55.349,48.741 53.899,46.744 53.899C44.774 53.899,43.625 55.103,43.434 55.349L43.598 42.708C43.598 42.38,43.352 42.161,43.023 42.161L42.558 42.161C42.257 42.161,42.011 42.38,42.011 42.708L42.202 66.375C42.202 66.703,42.449 66.922,42.75 66.922C42.832 66.922,42.996 66.895,43.078 66.867C43.242 66.785,45.787 65.527,47.921 63.119C49.425 61.423,50 59.48,50 57.866C50 57.51,49.973 57.209,49.918 56.881M47.209 58.413C47.209 59.015,47.045 60.821,46.06 62.326C45.404 63.338,44.063 64.405,43.324 65.007L43.434 57.319C43.516 56.963,44.09 55.814,45.677 55.814C47.1 55.814,47.209 57.155,47.209 58.003C47.209 58.194,47.209 58.304,47.209 58.413"/></g><g class="vf-notehead" id="vf-auto36256" pointer-events="bounding-box"><path stroke="none" d="M52 51.685C52 53.426,53.264 55.391,56.521 55.391C60.733 55.391,65.141 51.938,65.141 48.371C65.141 45.985,63.12 44.665,60.621 44.665C56.689 44.665,52 47.978,52 51.685"/></g><path fill="blue" stroke="none" d="M63.641 22.182C63.641 22.294,63.67 22.491,63.978 22.631C65.691 23.193,69.173 25.383,71.813 29.848C72.543 31.112,73.722 32.853,73.722 36.222C73.722 39.114,72.936 42.119,71.897 45.011C71.813 45.264,71.728 45.46,71.757 45.629C71.757 45.797,71.813 45.91,71.981 45.994C72.065 46.022,72.122 46.022,72.178 46.022C72.459 46.022,72.655 45.882,72.824 45.601C74.733 42.231,75.379 37.935,75.323 35.408C75.323 35.211,75.323 35.071,75.323 34.902C75.126 29.708,72.122 25.861,72.122 25.861C72.262 25.861,68.415 20.89,67.32 19.178C65.832 16.875,65.13 14.572,65.045 14.404C65.017 14.292,64.652 12.832,64.652 12.832C64.624 12.663,64.4 12.523,64.175 12.523C63.894 12.523,63.641 12.747,63.641 13.028" style="filter: drop-shadow(0 0 1.3333333333333333px blue)"/></g></svg>