<svg xmlns="http://www.w3.org/2000/svg" stroke-width="0.3" stroke-dasharray="none" fill="black" stroke="black" font-family="Arial, sans-serif" font-size="10pt" font-weight="normal" font-style="normal" width="700" height="180" viewBox="0 0 700 180" style="width: 700px; height: 180px; border: none;"><g class="vf-stave" id="vf-auto30257" stroke-width="1" fill="#999999" stroke="#999999"><path fill="none" d="M10 70L760 70"/><path fill="none" d="M10 80L760 80"/><path fill="none" d="M10 90L760 90"/><path fill="none" d="M10 100L760 100"/><path fill="none" d="M10 110L760 110"/></g><g class="vf-stavebarline" id="vf-auto30258"><rect x="10" y="69.5" width="1" height="41" stroke="none"/></g><g class="vf-stavebarline" id="vf-auto30259"><rect x="760" y="69.5" width="1" height="41" stroke="none"/></g><g class="vf-clef" id="vf-auto30260"><path stroke="none" d="M15.438 64.448C15.207 64.448,15 64.632,15 64.863L15 95.068C15 95.299,15.207 95.483,15.438 95.483L17.811 95.483C18.041 95.483,18.249 95.299,18.249 95.068L18.249 64.863C18.249 64.632,18.041 64.448,17.811 64.448M35.805 88.663C35.805 84.539,33.616 81.336,29.262 81.336C28.501 81.336,27.948 81.382,26.635 82.189C26.589 82.051,25.921 80.737,24.815 79.977C25.921 79.194,26.589 77.88,26.635 77.742C27.902 78.502,28.34 78.618,29.769 78.618C33.801 78.618,35.805 74.862,35.805 71.268C35.805 66.637,32.395 64.01,28.363 64.01C25.875 64.01,22.327 65.047,22.327 68.088C22.327 69.724,23.456 70.784,25.092 70.784C26.543 70.784,27.58 69.724,27.58 68.25C27.58 66.429,26.382 65.83,24.792 65.83C25.552 65.3,26.589 65.001,27.603 65.001C31.082 65.001,31.658 67.789,31.658 70.784C31.658 73.341,31.589 77.051,28.663 77.051C25.76 77.051,25.161 73.894,25.092 73.572C25.092 73.526,25.092 73.088,24.631 73.088C24.147 73.088,24.124 73.526,24.124 73.572C23.824 75.392,22.926 78.572,21.083 79.332L21.083 64.863C21.083 64.632,20.898 64.448,20.668 64.448C20.437 64.448,20.253 64.632,20.253 64.863L20.253 95.068C20.253 95.299,20.437 95.483,20.668 95.483C20.898 95.483,21.083 95.299,21.083 95.068L21.083 80.599C23.018 81.382,23.755 84.539,24.124 86.405C24.124 86.428,24.147 86.843,24.631 86.843C25.092 86.843,25.092 86.428,25.092 86.405C25.161 86.036,25.76 82.88,28.663 82.88C31.589 82.88,31.658 86.612,31.658 89.147C31.658 92.142,31.082 94.93,27.603 94.93C26.589 94.93,25.552 94.63,24.792 94.1C24.815 94.1,24.953 94.124,25.161 94.124C26.612 94.124,27.58 93.11,27.58 91.681C27.58 90.23,26.543 89.147,25.092 89.147C23.456 89.147,22.327 90.23,22.327 91.843C22.327 94.907,25.875 95.921,28.363 95.921C32.395 95.921,35.805 93.294,35.805 88.663"/></g><g class="vf-stavenote" id="vf-auto30261"><path stroke-width="1.4" fill="none" stroke="#444" d="M69.805 60L97.567 60"/><g class="vf-notehead" id="vf-auto30266" pointer-events="bounding-box"><path stroke="none" d="M73.732 72.755C73.563 72.755,73.535 72.755,73.367 72.755C73.058 72.755,72.805 73.008,72.805 73.317C72.805 73.654,72.805 86.346,72.805 86.627C72.805 86.908,73.058 87.188,73.367 87.188C73.535 87.188,73.563 87.188,73.732 87.188C74.013 87.188,74.293 86.88,74.293 86.627C74.293 86.402,74.293 73.654,74.293 73.317C74.293 73.008,74.069 72.755,73.732 72.755M91.029 72.755C90.889 72.755,90.832 72.755,90.664 72.755C90.355 72.755,90.102 73.008,90.102 73.317C90.102 73.401,90.102 74.749,90.102 76.49C88.895 75.311,86.845 74.496,83.728 74.496C80.555 74.496,78.505 75.311,77.298 76.49C77.298 74.749,77.298 73.401,77.298 73.317C77.298 73.008,77.045 72.755,76.736 72.755C76.568 72.755,76.512 72.755,76.371 72.755C76.034 72.755,75.81 73.008,75.81 73.317C75.81 73.654,75.81 86.346,75.81 86.627C75.81 86.908,76.034 87.188,76.371 87.188C76.512 87.188,76.568 87.188,76.736 87.188C77.017 87.188,77.298 86.88,77.298 86.627C77.298 86.543,77.298 85.223,77.298 83.426C78.505 84.661,80.555 85.448,83.728 85.448C86.845 85.448,88.895 84.661,90.102 83.426C90.102 85.223,90.102 86.543,90.102 86.627C90.102 86.908,90.355 87.188,90.664 87.188C90.832 87.188,90.889 87.188,91.029 87.188C91.338 87.188,91.619 86.88,91.619 86.627C91.619 86.402,91.619 73.654,91.619 73.317C91.619 73.008,91.366 72.755,91.029 72.755M85.778 83.931C85.301 84.044,84.655 84.156,84.037 84.156C82.914 84.156,82.156 83.791,81.622 82.836C81.089 81.825,80.359 79.186,80.331 78.091C80.331 78.006,80.331 77.95,80.331 77.866C80.331 76.939,80.724 76.35,81.622 76.041C82.1 75.928,82.745 75.788,83.391 75.788C84.486 75.788,85.216 76.069,85.778 77.136C86.34 78.231,87.126 80.814,87.126 81.853C87.126 82.92,86.761 83.594,85.778 83.931M94.006 72.755C93.837 72.755,93.781 72.755,93.64 72.755C93.304 72.755,93.051 73.008,93.051 73.317C93.051 73.654,93.051 86.346,93.051 86.627C93.051 86.908,93.304 87.188,93.64 87.188C93.781 87.188,93.837 87.188,94.006 87.188C94.286 87.188,94.567 86.88,94.567 86.627C94.567 86.402,94.567 73.654,94.567 73.317C94.567 73.008,94.314 72.755,94.006 72.755"/></g><g class="vf-notehead" id="vf-auto30267" pointer-events="bounding-box"><path stroke="none" d="M73.732 62.755C73.563 62.755,73.535 62.755,73.367 62.755C73.058 62.755,72.805 63.008,72.805 63.317C72.805 63.654,72.805 76.346,72.805 76.627C72.805 76.908,73.058 77.188,73.367 77.188C73.535 77.188,73.563 77.188,73.732 77.188C74.013 77.188,74.293 76.88,74.293 76.627C74.293 76.402,74.293 63.654,74.293 63.317C74.293 63.008,74.069 62.755,73.732 62.755M91.029 62.755C90.889 62.755,90.832 62.755,90.664 62.755C90.355 62.755,90.102 63.008,90.102 63.317C90.102 63.401,90.102 64.749,90.102 66.49C88.895 65.311,86.845 64.496,83.728 64.496C80.555 64.496,78.505 65.311,77.298 66.49C77.298 64.749,77.298 63.401,77.298 63.317C77.298 63.008,77.045 62.755,76.736 62.755C76.568 62.755,76.512 62.755,76.371 62.755C76.034 62.755,75.81 63.008,75.81 63.317C75.81 63.654,75.81 76.346,75.81 76.627C75.81 76.908,76.034 77.188,76.371 77.188C76.512 77.188,76.568 77.188,76.736 77.188C77.017 77.188,77.298 76.88,77.298 76.627C77.298 76.543,77.298 75.223,77.298 73.426C78.505 74.661,80.555 75.448,83.728 75.448C86.845 75.448,88.895 74.661,90.102 73.426C90.102 75.223,90.102 76.543,90.102 76.627C90.102 76.908,90.355 77.188,90.664 77.188C90.832 77.188,90.889 77.188,91.029 77.188C91.338 77.188,91.619 76.88,91.619 76.627C91.619 76.402,91.619 63.654,91.619 63.317C91.619 63.008,91.366 62.755,91.029 62.755M85.778 73.931C85.301 74.044,84.655 74.156,84.037 74.156C82.914 74.156,82.156 73.791,81.622 72.836C81.089 71.825,80.359 69.186,80.331 68.091C80.331 68.006,80.331 67.95,80.331 67.866C80.331 66.939,80.724 66.35,81.622 66.041C82.1 65.928,82.745 65.788,83.391 65.788C84.486 65.788,85.216 66.069,85.778 67.136C86.34 68.231,87.126 70.814,87.126 71.853C87.126 72.92,86.761 73.594,85.778 73.931M94.006 62.755C93.837 62.755,93.781 62.755,93.64 62.755C93.304 62.755,93.051 63.008,93.051 63.317C93.051 63.654,93.051 76.346,93.051 76.627C93.051 76.908,93.304 77.188,93.64 77.188C93.781 77.188,93.837 77.188,94.006 77.188C94.286 77.188,94.567 76.88,94.567 76.627C94.567 76.402,94.567 63.654,94.567 63.317C94.567 63.008,94.314 62.755,94.006 62.755"/></g><g class="vf-notehead" id="vf-auto30268" pointer-events="bounding-box"><path stroke="none" d="M73.732 47.755C73.563 47.755,73.535 47.755,73.367 47.755C73.058 47.755,72.805 48.008,72.805 48.317C72.805 48.654,72.805 61.346,72.805 61.627C72.805 61.908,73.058 62.188,73.367 62.188C73.535 62.188,73.563 62.188,73.732 62.188C74.013 62.188,74.293 61.88,74.293 61.627C74.293 61.402,74.293 48.654,74.293 48.317C74.293 48.008,74.069 47.755,73.732 47.755M91.029 47.755C90.889 47.755,90.832 47.755,90.664 47.755C90.355 47.755,90.102 48.008,90.102 48.317C90.102 48.401,90.102 49.749,90.102 51.49C88.895 50.311,86.845 49.496,83.728 49.496C80.555 49.496,78.505 50.311,77.298 51.49C77.298 49.749,77.298 48.401,77.298 48.317C77.298 48.008,77.045 47.755,76.736 47.755C76.568 47.755,76.512 47.755,76.371 47.755C76.034 47.755,75.81 48.008,75.81 48.317C75.81 48.654,75.81 61.346,75.81 61.627C75.81 61.908,76.034 62.188,76.371 62.188C76.512 62.188,76.568 62.188,76.736 62.188C77.017 62.188,77.298 61.88,77.298 61.627C77.298 61.543,77.298 60.223,77.298 58.426C78.505 59.661,80.555 60.448,83.728 60.448C86.845 60.448,88.895 59.661,90.102 58.426C90.102 60.223,90.102 61.543,90.102 61.627C90.102 61.908,90.355 62.188,90.664 62.188C90.832 62.188,90.889 62.188,91.029 62.188C91.338 62.188,91.619 61.88,91.619 61.627C91.619 61.402,91.619 48.654,91.619 48.317C91.619 48.008,91.366 47.755,91.029 47.755M85.778 58.931C85.301 59.044,84.655 59.156,84.037 59.156C82.914 59.156,82.156 58.791,81.622 57.836C81.089 56.825,80.359 54.186,80.331 53.091C80.331 53.006,80.331 52.95,80.331 52.866C80.331 51.939,80.724 51.35,81.622 51.041C82.1 50.928,82.745 50.788,83.391 50.788C84.486 50.788,85.216 51.069,85.778 52.136C86.34 53.231,87.126 55.814,87.126 56.853C87.126 57.92,86.761 58.594,85.778 58.931M94.006 47.755C93.837 47.755,93.781 47.755,93.64 47.755C93.304 47.755,93.051 48.008,93.051 48.317C93.051 48.654,93.051 61.346,93.051 61.627C93.051 61.908,93.304 62.188,93.64 62.188C93.781 62.188,93.837 62.188,94.006 62.188C94.286 62.188,94.567 61.88,94.567 61.627C94.567 61.402,94.567 48.654,94.567 48.317C94.567 48.008,94.314 47.755,94.006 47.755"/></g></g><g class="vf-stavenote" id="vf-auto30269"><g class="vf-notehead" id="vf-auto30274" pointer-events="bounding-box"><path stroke="none" d="M105.359 109.496C99.799 109.496,97.805 112.332,97.805 114.972C97.805 117.583,99.799 120.419,105.359 120.419C110.947 120.419,112.884 117.583,112.884 114.972C112.884 112.332,110.947 109.496,105.359 109.496M107.437 118.875C106.931 119.044,106.285 119.128,105.696 119.128C104.544 119.128,103.786 118.791,103.253 117.78C102.747 116.769,102.017 114.186,101.961 113.091C101.877 111.995,102.298 111.35,103.253 111.041C103.758 110.872,104.404 110.788,104.994 110.788C106.145 110.788,106.875 111.041,107.437 112.136C107.998 113.231,108.728 115.814,108.728 116.825C108.728 117.864,108.391 118.594,107.437 118.875"/></g><g class="vf-notehead" id="vf-auto30275" pointer-events="bounding-box"><path stroke="none" d="M105.359 99.496C99.799 99.496,97.805 102.332,97.805 104.972C97.805 107.583,99.799 110.419,105.359 110.419C110.947 110.419,112.884 107.583,112.884 104.972C112.884 102.332,110.947 99.496,105.359 99.496M107.437 108.875C106.931 109.044,106.285 109.128,105.696 109.128C104.544 109.128,103.786 108.791,103.253 107.78C102.747 106.769,102.017 104.186,101.961 103.091C101.877 101.995,102.298 101.35,103.253 101.041C103.758 100.872,104.404 100.788,104.994 100.788C106.145 100.788,106.875 101.041,107.437 102.136C107.998 103.231,108.728 105.814,108.728 106.825C108.728 107.864,108.391 108.594,107.437 108.875"/></g><g class="vf-notehead" id="vf-auto30276" pointer-events="bounding-box"><path stroke="none" d="M105.359 84.496C99.799 84.496,97.805 87.332,97.805 89.972C97.805 92.583,99.799 95.419,105.359 95.419C110.947 95.419,112.884 92.583,112.884 89.972C112.884 87.332,110.947 84.496,105.359 84.496M107.437 93.875C106.931 94.044,106.285 94.128,105.696 94.128C104.544 94.128,103.786 93.791,103.253 92.78C102.747 91.769,102.017 89.186,101.961 88.091C101.877 86.995,102.298 86.35,103.253 86.041C103.758 85.872,104.404 85.788,104.994 85.788C106.145 85.788,106.875 86.041,107.437 87.136C107.998 88.231,108.728 90.814,108.728 91.825C108.728 92.864,108.391 93.594,107.437 93.875"/></g></g><g class="vf-stavenote" id="vf-auto30277"><path stroke-width="1.4" fill="none" stroke="#444" d="M119.805 60L138.947 60"/><g class="vf-stem" id="vf-auto30278" pointer-events="bounding-box"><path stroke-width="1.5" fill="none" d="M135.197 77.45L135.197 20"/></g><g class="vf-notehead" id="vf-auto30282" pointer-events="bounding-box"><path stroke="none" d="M131.426 74.665C127.494 74.665,122.805 77.95,122.805 81.685C122.805 83.426,124.069 85.391,127.326 85.391C131.538 85.391,135.947 81.938,135.947 78.371C135.947 75.985,133.925 74.665,131.426 74.665M130.331 81.769C130.218 81.853,127.242 83.482,125.838 83.482C124.49 83.482,124.209 82.387,124.209 82.022C124.209 80.337,128.253 78.343,128.421 78.259C128.59 78.175,131.454 76.574,132.914 76.574C133.897 76.574,134.543 77.136,134.543 78.006C134.543 79.747,130.443 81.685,130.331 81.769"/></g><g class="vf-notehead" id="vf-auto30283" pointer-events="bounding-box"><path stroke="none" d="M131.426 64.665C127.494 64.665,122.805 67.95,122.805 71.685C122.805 73.426,124.069 75.391,127.326 75.391C131.538 75.391,135.947 71.938,135.947 68.371C135.947 65.985,133.925 64.665,131.426 64.665M130.331 71.769C130.218 71.853,127.242 73.482,125.838 73.482C124.49 73.482,124.209 72.387,124.209 72.022C124.209 70.337,128.253 68.343,128.421 68.259C128.59 68.175,131.454 66.574,132.914 66.574C133.897 66.574,134.543 67.136,134.543 68.006C134.543 69.747,130.443 71.685,130.331 71.769"/></g><g class="vf-notehead" id="vf-auto30284" pointer-events="bounding-box"><path stroke="none" d="M131.426 49.665C127.494 49.665,122.805 52.95,122.805 56.685C122.805 58.426,124.069 60.391,127.326 60.391C131.538 60.391,135.947 56.938,135.947 53.371C135.947 50.985,133.925 49.665,131.426 49.665M130.331 56.769C130.218 56.853,127.242 58.482,125.838 58.482C124.49 58.482,124.209 57.387,124.209 57.022C124.209 55.337,128.253 53.343,128.421 53.259C128.59 53.175,131.454 51.574,132.914 51.574C133.897 51.574,134.543 52.136,134.543 53.006C134.543 54.747,130.443 56.685,130.331 56.769"/></g></g><g class="vf-stavenote" id="vf-auto30285"><g class="vf-stem" id="vf-auto30286" pointer-events="bounding-box"><path stroke-width="1.5" fill="none" d="M160.197 113L160.197 55"/></g><g class="vf-notehead" id="vf-auto30290" pointer-events="bounding-box"><path stroke="none" d="M147.805 116.685C147.805 118.426,149.069 120.391,152.326 120.391C156.538 120.391,160.947 116.938,160.947 113.371C160.947 110.985,158.925 109.665,156.426 109.665C152.494 109.665,147.805 112.978,147.805 116.685"/></g><g class="vf-notehead" id="vf-auto30291" pointer-events="bounding-box"><path stroke="none" d="M147.805 106.685C147.805 108.426,149.069 110.391,152.326 110.391C156.538 110.391,160.947 106.938,160.947 103.371C160.947 100.985,158.925 99.665,156.426 99.665C152.494 99.665,147.805 102.978,147.805 106.685"/></g><g class="vf-notehead" id="vf-auto30292" pointer-events="bounding-box"><path stroke="none" d="M147.805 91.685C147.805 93.426,149.069 95.391,152.326 95.391C156.538 95.391,160.947 91.938,160.947 88.371C160.947 85.985,158.925 84.665,156.426 84.665C152.494 84.665,147.805 87.978,147.805 91.685"/></g></g><g class="vf-stavenote" id="vf-auto30293"><path stroke-width="1.4" fill="none" stroke="#444" d="M169.805 60L188.947 60"/><g class="vf-stem" id="vf-auto30294" pointer-events="bounding-box"><path stroke-width="1.5" fill="none" d="M185.197 78L185.197 23"/></g><g class="vf-notehead" id="vf-auto30299" pointer-events="bounding-box"><path stroke="none" d="M172.805 81.685C172.805 83.426,174.069 85.391,177.326 85.391C181.538 85.391,185.947 81.938,185.947 78.371C185.947 75.985,183.925 74.665,181.426 74.665C177.494 74.665,172.805 77.978,172.805 81.685"/></g><g class="vf-notehead" id="vf-auto30300" pointer-events="bounding-box"><path stroke="none" d="M172.805 71.685C172.805 73.426,174.069 75.391,177.326 75.391C181.538 75.391,185.947 71.938,185.947 68.371C185.947 65.985,183.925 64.665,181.426 64.665C177.494 64.665,172.805 67.978,172.805 71.685"/></g><g class="vf-notehead" id="vf-auto30301" pointer-events="bounding-box"><path stroke="none" d="M172.805 56.685C172.805 58.426,174.069 60.391,177.326 60.391C181.538 60.391,185.947 56.938,185.947 53.371C185.947 50.985,183.925 49.665,181.426 49.665C177.494 49.665,172.805 52.978,172.805 56.685"/></g><path stroke="none" d="M184.447 27.182C184.447 27.294,184.475 27.491,184.784 27.631C186.496 28.193,189.978 30.383,192.618 34.848C193.348 36.112,194.527 37.853,194.527 41.222C194.527 44.114,193.741 47.119,192.702 50.011C192.618 50.264,192.534 50.46,192.562 50.629C192.562 50.797,192.618 50.91,192.786 50.994C192.871 51.022,192.927 51.022,192.983 51.022C193.264 51.022,193.46 50.882,193.629 50.601C195.538 47.231,196.184 42.935,196.128 40.408C196.128 40.211,196.128 40.071,196.128 39.902C195.931 34.708,192.927 30.861,192.927 30.861C193.067 30.861,189.22 25.89,188.125 24.178C186.637 21.875,185.935 19.572,185.851 19.404C185.822 19.292,185.457 17.832,185.457 17.832C185.429 17.663,185.205 17.523,184.98 17.523C184.699 17.523,184.447 17.747,184.447 18.028"/></g><g class="vf-stavenote" id="vf-auto30303"><g class="vf-stem" id="vf-auto30304" pointer-events="bounding-box"><path stroke-width="1.5" fill="none" d="M210.197 113L210.197 58"/></g><g class="vf-notehead" id="vf-auto30309" pointer-events="bounding-box"><path stroke="none" d="M197.805 116.685C197.805 118.426,199.069 120.391,202.326 120.391C206.538 120.391,210.947 116.938,210.947 113.371C210.947 110.985,208.925 109.665,206.426 109.665C202.494 109.665,197.805 112.978,197.805 116.685"/></g><g class="vf-notehead" id="vf-auto30310" pointer-events="bounding-box"><path stroke="none" d="M197.805 106.685C197.805 108.426,199.069 110.391,202.326 110.391C206.538 110.391,210.947 106.938,210.947 103.371C210.947 100.985,208.925 99.665,206.426 99.665C202.494 99.665,197.805 102.978,197.805 106.685"/></g><g class="vf-notehead" id="vf-auto30311" pointer-events="bounding-box"><path stroke="none" d="M197.805 91.685C197.805 93.426,199.069 95.391,202.326 95.391C206.538 95.391,210.947 91.938,210.947 88.371C210.947 85.985,208.925 84.665,206.426 84.665C202.494 84.665,197.805 87.978,197.805 91.685"/></g><path stroke="none" d="M217.899 72.122C216.804 70.718,215.596 69.427,213.602 67.433C212.03 65.861,211.3 64.485,211.019 63.446C210.991 63.221,210.935 62.94,210.907 62.631C212.957 62.631,215.596 65.411,217.056 67.321C218.629 69.371,218.994 70.999,218.994 72.544C218.994 72.937,218.938 73.33,218.91 73.751C218.573 73.105,218.208 72.572,217.899 72.122M209.447 68.416C209.447 68.528,209.784 68.697,210.064 68.809C211.103 69.174,214.248 71.196,216.691 74.79C218.067 76.868,218.376 78.3,218.376 79.676C218.376 79.929,218.376 80.125,218.348 80.378C218.348 81.333,218.067 83.411,217.449 85.011C217.421 85.236,217.281 85.46,217.281 85.685C217.281 85.826,217.365 85.994,217.562 86.106C217.646 86.162,217.702 86.162,217.786 86.162C218.067 86.162,218.208 85.826,218.376 85.601C219.106 84.45,220.173 82.287,220.173 80.013C220.173 78.834,220.089 77.879,219.948 77.008C220.37 75.52,220.735 74.032,220.735 72.038C220.735 69.932,220.173 68.051,218.797 66.226C216.888 63.727,214.838 61.621,213.294 59.402C211.749 57.156,210.626 53,210.626 53C210.542 52.719,210.486 52.523,210.064 52.523C209.559 52.523,209.447 52.719,209.447 53"/></g><g class="vf-stavenote" id="vf-auto30313"><path stroke-width="1.4" fill="none" stroke="#444" d="M219.805 60L238.947 60"/><g class="vf-stem" id="vf-auto30314" pointer-events="bounding-box"><path stroke-width="1.5" fill="none" d="M235.197 78L235.197 14"/></g><g class="vf-notehead" id="vf-auto30319" pointer-events="bounding-box"><path stroke="none" d="M222.805 81.685C222.805 83.426,224.069 85.391,227.326 85.391C231.538 85.391,235.947 81.938,235.947 78.371C235.947 75.985,233.925 74.665,231.426 74.665C227.494 74.665,222.805 77.978,222.805 81.685"/></g><g class="vf-notehead" id="vf-auto30320" pointer-events="bounding-box"><path stroke="none" d="M222.805 71.685C222.805 73.426,224.069 75.391,227.326 75.391C231.538 75.391,235.947 71.938,235.947 68.371C235.947 65.985,233.925 64.665,231.426 64.665C227.494 64.665,222.805 67.978,222.805 71.685"/></g><g class="vf-notehead" id="vf-auto30321" pointer-events="bounding-box"><path stroke="none" d="M222.805 56.685C222.805 58.426,224.069 60.391,227.326 60.391C231.538 60.391,235.947 56.938,235.947 53.371C235.947 50.985,233.925 49.665,231.426 49.665C227.494 49.665,222.805 52.978,222.805 56.685"/></g><path stroke="none" d="M242.899 37.179C241.804 35.747,240.596 34.511,238.602 32.489C237.03 30.889,236.3 29.513,236.019 28.474C235.991 28.277,235.935 27.94,235.851 27.631C237.957 27.631,240.596 30.131,242.056 32.04C243.629 34.146,243.994 35.747,243.994 37.291C243.994 37.768,243.938 38.246,243.91 38.751C243.573 38.105,243.208 37.6,242.899 37.179M242.056 25.273C243.629 27.351,243.994 29.007,243.994 30.524C243.994 30.776,243.938 30.973,243.938 31.17C243.91 31.113,243.825 31.029,243.797 30.945C241.888 28.446,238.518 25.61,237.002 23.391C236.384 22.493,236.075 21.482,235.851 20.583C237.928 20.583,240.596 23.391,242.056 25.273M234.447 33.444C234.447 33.556,234.784 33.725,235.064 33.837C236.103 34.202,239.248 36.224,241.691 39.846C243.067 41.896,243.376 43.356,243.376 44.732C243.376 44.957,243.376 45.181,243.348 45.406C243.348 46.389,243.067 48.439,242.449 50.067C242.421 50.264,242.281 50.517,242.281 50.713C242.281 50.882,242.365 51.022,242.562 51.162C242.646 51.191,242.702 51.191,242.786 51.191C243.067 51.191,243.208 50.882,243.376 50.629C244.106 49.506,245.173 47.316,245.173 45.041C245.173 43.89,245.089 42.907,244.948 42.065C245.37 40.52,245.735 38.779,245.735 36.757C245.735 35.747,245.566 34.736,245.285 33.809C245.538 32.77,245.735 31.675,245.735 30.383C245.735 30.243,245.735 30.131,245.735 30.018C245.735 27.912,245.173 26.003,243.797 24.178C241.888 21.678,239.838 19.572,238.294 17.354C236.749 15.136,235.626 10.952,235.626 10.952C235.542 10.671,235.486 10.475,235.064 10.475C234.559 10.475,234.447 10.671,234.447 10.952"/></g><g class="vf-stavenote" id="vf-auto30323"><path stroke-width="1.4" fill="none" stroke="#444" d="M244.805 60L263.947 60"/><g class="vf-stem" id="vf-auto30324" pointer-events="bounding-box"><path stroke-width="1.5" fill="none" d="M260.197 78L260.197 10"/></g><g class="vf-notehead" id="vf-auto30329" pointer-events="bounding-box"><path stroke="none" d="M247.805 81.685C247.805 83.426,249.069 85.391,252.326 85.391C256.538 85.391,260.947 81.938,260.947 78.371C260.947 75.985,258.925 74.665,256.426 74.665C252.494 74.665,247.805 77.978,247.805 81.685"/></g><g class="vf-notehead" id="vf-auto30330" pointer-events="bounding-box"><path stroke="none" d="M247.805 71.685C247.805 73.426,249.069 75.391,252.326 75.391C256.538 75.391,260.947 71.938,260.947 68.371C260.947 65.985,258.925 64.665,256.426 64.665C252.494 64.665,247.805 67.978,247.805 71.685"/></g><g class="vf-notehead" id="vf-auto30331" pointer-events="bounding-box"><path stroke="none" d="M247.805 56.685C247.805 58.426,249.069 60.391,252.326 60.391C256.538 60.391,260.947 56.938,260.947 53.371C260.947 50.985,258.925 49.665,256.426 49.665C252.494 49.665,247.805 52.978,247.805 56.685"/></g><path stroke="none" d="M268.797 30.945C266.888 28.446,263.518 25.61,262.002 23.391C261.384 22.521,261.075 21.51,260.851 20.583C262.957 20.583,265.596 23.139,267.056 25.048C268.629 27.098,268.994 28.755,268.994 30.299C268.994 30.58,268.938 30.889,268.938 31.17C268.91 31.113,268.825 31.029,268.797 30.945M267.899 37.179C266.804 35.747,265.596 34.511,263.602 32.517C262.03 30.945,261.3 29.513,261.019 28.502C260.991 28.277,260.935 27.996,260.851 27.631C262.957 27.631,265.596 30.159,267.056 32.068C268.629 34.146,268.994 35.803,268.994 37.319C268.994 37.824,268.938 38.246,268.91 38.751C268.573 38.133,268.208 37.6,267.899 37.179M267.056 17.719C268.629 19.769,268.994 21.398,268.994 22.942C268.994 23.335,268.938 23.728,268.91 24.093C268.881 24.065,268.825 23.981,268.797 23.953C266.888 21.426,263.518 18.449,262.002 16.175C261.3 15.164,260.935 13.985,260.794 13.03L260.851 13.03C262.928 13.03,265.54 15.81,267.056 17.719M259.447 33.5C259.447 33.556,259.784 33.781,260.064 33.837C261.103 34.258,264.248 36.224,266.691 39.846C268.067 41.896,268.348 43.356,268.376 44.732C268.376 44.957,268.376 45.181,268.348 45.406C268.348 46.417,268.067 48.439,267.449 50.067C267.421 50.264,267.281 50.517,267.281 50.713C267.281 50.91,267.365 51.078,267.562 51.162C267.646 51.191,267.73 51.247,267.786 51.247C268.067 51.191,268.208 50.91,268.376 50.685C269.106 49.506,270.173 47.316,270.173 45.041C270.173 43.918,270.089 42.907,269.948 42.065C270.37 40.576,270.735 38.779,270.735 36.757C270.735 35.747,270.566 34.736,270.285 33.809C270.538 32.686,270.735 31.478,270.735 30.131C270.735 30.018,270.735 29.878,270.735 29.737C270.735 28.642,270.566 27.575,270.201 26.536C270.482 25.413,270.735 24.234,270.735 22.774C270.735 22.661,270.735 22.577,270.735 22.437C270.735 20.359,270.173 18.449,268.797 16.624C266.888 14.125,264.838 12.019,263.294 9.801C261.749 7.554,260.626 3.398,260.626 3.398C260.542 3.118,260.486 2.921,260.064 2.921C259.559 2.921,259.447 3.118,259.447 3.398"/></g><g class="vf-stavenote" id="vf-auto30333"><path stroke-width="1.4" fill="none" stroke="#444" d="M269.805 60L288.947 60"/><g class="vf-stem" id="vf-auto30334" pointer-events="bounding-box"><path stroke-width="1.5" fill="none" d="M285.197 78L285.197 1"/></g><g class="vf-notehead" id="vf-auto30339" pointer-events="bounding-box"><path stroke="none" d="M272.805 81.685C272.805 83.426,274.069 85.391,277.326 85.391C281.538 85.391,285.947 81.938,285.947 78.371C285.947 75.985,283.925 74.665,281.426 74.665C277.494 74.665,272.805 77.978,272.805 81.685"/></g><g class="vf-notehead" id="vf-auto30340" pointer-events="bounding-box"><path stroke="none" d="M272.805 71.685C272.805 73.426,274.069 75.391,277.326 75.391C281.538 75.391,285.947 71.938,285.947 68.371C285.947 65.985,283.925 64.665,281.426 64.665C277.494 64.665,272.805 67.978,272.805 71.685"/></g><g class="vf-notehead" id="vf-auto30341" pointer-events="bounding-box"><path stroke="none" d="M272.805 56.685C272.805 58.426,274.069 60.391,277.326 60.391C281.538 60.391,285.947 56.938,285.947 53.371C285.947 50.985,283.925 49.665,281.426 49.665C277.494 49.665,272.805 52.978,272.805 56.685"/></g><path stroke="none" d="M284.447 33.444C284.447 33.528,284.784 33.725,285.064 33.809C286.103 34.174,289.248 36.196,291.691 39.79C293.067 41.868,293.376 43.3,293.376 44.676C293.376 44.929,293.376 45.125,293.348 45.378C293.348 46.389,293.067 48.411,292.449 50.011C292.421 50.236,292.281 50.46,292.281 50.685C292.281 50.882,292.365 51.022,292.562 51.106C292.646 51.162,292.702 51.162,292.786 51.191C293.067 51.191,293.208 50.826,293.376 50.629C294.106 49.45,295.173 47.287,295.173 45.013C295.173 43.89,295.089 42.907,294.948 42.065C295.37 40.52,295.735 38.779,295.735 36.757C295.735 35.662,295.566 34.567,295.201 33.556C295.566 32.124,295.735 30.692,295.735 29.204C295.735 28.081,295.566 27.014,295.173 25.975C295.566 24.458,295.735 23.054,295.735 21.51C295.735 20.415,295.566 19.376,295.201 18.393C295.566 17.017,295.735 15.726,295.735 14.35C295.735 12.272,295.173 10.025,293.797 8.228C291.888 5.701,289.838 3.595,288.294 1.377C286.749 -0.842,285.738 -4.267,285.626 -4.689C285.542 -4.969,285.486 -5.166,285.064 -5.166C284.559 -5.166,284.447 -4.969,284.447 -4.689M292.056 9.295C293.657 11.401,293.994 13.226,293.994 14.883C293.994 15.248,293.938 15.585,293.938 15.95C293.881 15.866,293.825 15.782,293.797 15.726C291.888 13.226,288.518 10.25,287.002 7.975C286.3 6.965,285.935 5.785,285.794 4.83L285.851 4.83C287.928 4.83,290.54 7.414,292.056 9.295M292.899 37.122C291.804 35.718,290.596 34.651,288.602 32.686C287.03 31.057,286.3 29.794,286.019 28.755C285.991 28.502,285.907 28.081,285.822 27.631L285.851 27.631C287.928 27.631,290.54 30.131,292.056 32.04C293.629 34.146,293.994 35.803,293.994 37.319C293.994 37.824,293.938 38.246,293.91 38.695C293.573 38.105,293.208 37.572,292.899 37.122M293.797 30.945C291.888 28.446,288.518 25.61,287.002 23.391C286.3 22.324,285.935 21.117,285.794 20.05L285.794 20.05L285.851 20.05C287.928 20.05,290.54 22.577,292.056 24.515C293.629 26.564,293.994 28.221,293.994 29.766C293.994 30.215,293.938 30.692,293.91 31.141C293.881 31.057,293.825 31.029,293.797 30.945M293.797 23.391C291.888 20.864,288.518 17.888,287.002 15.641C286.272 14.602,285.935 13.395,285.794 12.384L285.794 12.384L285.851 12.384C287.928 12.384,290.54 14.939,292.056 16.821C293.629 18.899,293.994 20.583,293.994 22.128C293.994 22.605,293.938 23.082,293.91 23.532C293.881 23.504,293.825 23.448,293.797 23.391"/></g><g class="vf-stavenote" id="vf-auto30343"><g class="vf-notehead" id="vf-auto30350" pointer-events="bounding-box"><path stroke="none" d="M298.732 107.755C298.563 107.755,298.535 107.755,298.367 107.755C298.058 107.755,297.805 108.008,297.805 108.317C297.805 108.654,297.805 121.346,297.805 121.627C297.805 121.908,298.058 122.188,298.367 122.188C298.535 122.188,298.563 122.188,298.732 122.188C299.013 122.188,299.293 121.88,299.293 121.627C299.293 121.402,299.293 108.654,299.293 108.317C299.293 108.008,299.069 107.755,298.732 107.755M316.029 107.755C315.889 107.755,315.832 107.755,315.664 107.755C315.355 107.755,315.102 108.008,315.102 108.317C315.102 108.401,315.102 109.749,315.102 111.49C313.895 110.311,311.845 109.496,308.728 109.496C305.555 109.496,303.505 110.311,302.298 111.49C302.298 109.749,302.298 108.401,302.298 108.317C302.298 108.008,302.045 107.755,301.736 107.755C301.568 107.755,301.512 107.755,301.371 107.755C301.034 107.755,300.81 108.008,300.81 108.317C300.81 108.654,300.81 121.346,300.81 121.627C300.81 121.908,301.034 122.188,301.371 122.188C301.512 122.188,301.568 122.188,301.736 122.188C302.017 122.188,302.298 121.88,302.298 121.627C302.298 121.543,302.298 120.223,302.298 118.426C303.505 119.661,305.555 120.448,308.728 120.448C311.845 120.448,313.895 119.661,315.102 118.426C315.102 120.223,315.102 121.543,315.102 121.627C315.102 121.908,315.355 122.188,315.664 122.188C315.832 122.188,315.889 122.188,316.029 122.188C316.338 122.188,316.619 121.88,316.619 121.627C316.619 121.402,316.619 108.654,316.619 108.317C316.619 108.008,316.366 107.755,316.029 107.755M310.778 118.931C310.301 119.044,309.655 119.156,309.037 119.156C307.914 119.156,307.156 118.791,306.622 117.836C306.089 116.825,305.359 114.186,305.331 113.091C305.331 113.006,305.331 112.95,305.331 112.866C305.331 111.939,305.724 111.35,306.622 111.041C307.1 110.928,307.745 110.788,308.391 110.788C309.486 110.788,310.216 111.069,310.778 112.136C311.34 113.231,312.126 115.814,312.126 116.853C312.126 117.92,311.761 118.594,310.778 118.931M319.006 107.755C318.837 107.755,318.781 107.755,318.64 107.755C318.304 107.755,318.051 108.008,318.051 108.317C318.051 108.654,318.051 121.346,318.051 121.627C318.051 121.908,318.304 122.188,318.64 122.188C318.781 122.188,318.837 122.188,319.006 122.188C319.286 122.188,319.567 121.88,319.567 121.627C319.567 121.402,319.567 108.654,319.567 108.317C319.567 108.008,319.314 107.755,319.006 107.755"/></g><g class="vf-notehead" id="vf-auto30349" pointer-events="bounding-box"><path stroke="none" d="M298.732 97.755C298.563 97.755,298.535 97.755,298.367 97.755C298.058 97.755,297.805 98.008,297.805 98.317C297.805 98.654,297.805 111.346,297.805 111.627C297.805 111.908,298.058 112.188,298.367 112.188C298.535 112.188,298.563 112.188,298.732 112.188C299.013 112.188,299.293 111.88,299.293 111.627C299.293 111.402,299.293 98.654,299.293 98.317C299.293 98.008,299.069 97.755,298.732 97.755M316.029 97.755C315.889 97.755,315.832 97.755,315.664 97.755C315.355 97.755,315.102 98.008,315.102 98.317C315.102 98.401,315.102 99.749,315.102 101.49C313.895 100.311,311.845 99.496,308.728 99.496C305.555 99.496,303.505 100.311,302.298 101.49C302.298 99.749,302.298 98.401,302.298 98.317C302.298 98.008,302.045 97.755,301.736 97.755C301.568 97.755,301.512 97.755,301.371 97.755C301.034 97.755,300.81 98.008,300.81 98.317C300.81 98.654,300.81 111.346,300.81 111.627C300.81 111.908,301.034 112.188,301.371 112.188C301.512 112.188,301.568 112.188,301.736 112.188C302.017 112.188,302.298 111.88,302.298 111.627C302.298 111.543,302.298 110.223,302.298 108.426C303.505 109.661,305.555 110.448,308.728 110.448C311.845 110.448,313.895 109.661,315.102 108.426C315.102 110.223,315.102 111.543,315.102 111.627C315.102 111.908,315.355 112.188,315.664 112.188C315.832 112.188,315.889 112.188,316.029 112.188C316.338 112.188,316.619 111.88,316.619 111.627C316.619 111.402,316.619 98.654,316.619 98.317C316.619 98.008,316.366 97.755,316.029 97.755M310.778 108.931C310.301 109.044,309.655 109.156,309.037 109.156C307.914 109.156,307.156 108.791,306.622 107.836C306.089 106.825,305.359 104.186,305.331 103.091C305.331 103.006,305.331 102.95,305.331 102.866C305.331 101.939,305.724 101.35,306.622 101.041C307.1 100.928,307.745 100.788,308.391 100.788C309.486 100.788,310.216 101.069,310.778 102.136C311.34 103.231,312.126 105.814,312.126 106.853C312.126 107.92,311.761 108.594,310.778 108.931M319.006 97.755C318.837 97.755,318.781 97.755,318.64 97.755C318.304 97.755,318.051 98.008,318.051 98.317C318.051 98.654,318.051 111.346,318.051 111.627C318.051 111.908,318.304 112.188,318.64 112.188C318.781 112.188,318.837 112.188,319.006 112.188C319.286 112.188,319.567 111.88,319.567 111.627C319.567 111.402,319.567 98.654,319.567 98.317C319.567 98.008,319.314 97.755,319.006 97.755"/></g><g class="vf-notehead" id="vf-auto30348" pointer-events="bounding-box"><path stroke="none" d="M298.732 82.755C298.563 82.755,298.535 82.755,298.367 82.755C298.058 82.755,297.805 83.008,297.805 83.317C297.805 83.654,297.805 96.346,297.805 96.627C297.805 96.908,298.058 97.188,298.367 97.188C298.535 97.188,298.563 97.188,298.732 97.188C299.013 97.188,299.293 96.88,299.293 96.627C299.293 96.402,299.293 83.654,299.293 83.317C299.293 83.008,299.069 82.755,298.732 82.755M316.029 82.755C315.889 82.755,315.832 82.755,315.664 82.755C315.355 82.755,315.102 83.008,315.102 83.317C315.102 83.401,315.102 84.749,315.102 86.49C313.895 85.311,311.845 84.496,308.728 84.496C305.555 84.496,303.505 85.311,302.298 86.49C302.298 84.749,302.298 83.401,302.298 83.317C302.298 83.008,302.045 82.755,301.736 82.755C301.568 82.755,301.512 82.755,301.371 82.755C301.034 82.755,300.81 83.008,300.81 83.317C300.81 83.654,300.81 96.346,300.81 96.627C300.81 96.908,301.034 97.188,301.371 97.188C301.512 97.188,301.568 97.188,301.736 97.188C302.017 97.188,302.298 96.88,302.298 96.627C302.298 96.543,302.298 95.223,302.298 93.426C303.505 94.661,305.555 95.448,308.728 95.448C311.845 95.448,313.895 94.661,315.102 93.426C315.102 95.223,315.102 96.543,315.102 96.627C315.102 96.908,315.355 97.188,315.664 97.188C315.832 97.188,315.889 97.188,316.029 97.188C316.338 97.188,316.619 96.88,316.619 96.627C316.619 96.402,316.619 83.654,316.619 83.317C316.619 83.008,316.366 82.755,316.029 82.755M310.778 93.931C310.301 94.044,309.655 94.156,309.037 94.156C307.914 94.156,307.156 93.791,306.622 92.836C306.089 91.825,305.359 89.186,305.331 88.091C305.331 88.006,305.331 87.95,305.331 87.866C305.331 86.939,305.724 86.35,306.622 86.041C307.1 85.928,307.745 85.788,308.391 85.788C309.486 85.788,310.216 86.069,310.778 87.136C311.34 88.231,312.126 90.814,312.126 91.853C312.126 92.92,311.761 93.594,310.778 93.931M319.006 82.755C318.837 82.755,318.781 82.755,318.64 82.755C318.304 82.755,318.051 83.008,318.051 83.317C318.051 83.654,318.051 96.346,318.051 96.627C318.051 96.908,318.304 97.188,318.64 97.188C318.781 97.188,318.837 97.188,319.006 97.188C319.286 97.188,319.567 96.88,319.567 96.627C319.567 96.402,319.567 83.654,319.567 83.317C319.567 83.008,319.314 82.755,319.006 82.755"/></g></g><g class="vf-stavenote" id="vf-auto30351"><g class="vf-notehead" id="vf-auto30358" pointer-events="bounding-box"><path stroke="none" d="M330.359 109.496C324.799 109.496,322.805 112.332,322.805 114.972C322.805 117.583,324.799 120.419,330.359 120.419C335.947 120.419,337.884 117.583,337.884 114.972C337.884 112.332,335.947 109.496,330.359 109.496M332.437 118.875C331.931 119.044,331.285 119.128,330.696 119.128C329.544 119.128,328.786 118.791,328.253 117.78C327.747 116.769,327.017 114.186,326.961 113.091C326.877 111.995,327.298 111.35,328.253 111.041C328.758 110.872,329.404 110.788,329.994 110.788C331.145 110.788,331.875 111.041,332.437 112.136C332.998 113.231,333.728 115.814,333.728 116.825C333.728 117.864,333.391 118.594,332.437 118.875"/></g><g class="vf-notehead" id="vf-auto30357" pointer-events="bounding-box"><path stroke="none" d="M330.359 99.496C324.799 99.496,322.805 102.332,322.805 104.972C322.805 107.583,324.799 110.419,330.359 110.419C335.947 110.419,337.884 107.583,337.884 104.972C337.884 102.332,335.947 99.496,330.359 99.496M332.437 108.875C331.931 109.044,331.285 109.128,330.696 109.128C329.544 109.128,328.786 108.791,328.253 107.78C327.747 106.769,327.017 104.186,326.961 103.091C326.877 101.995,327.298 101.35,328.253 101.041C328.758 100.872,329.404 100.788,329.994 100.788C331.145 100.788,331.875 101.041,332.437 102.136C332.998 103.231,333.728 105.814,333.728 106.825C333.728 107.864,333.391 108.594,332.437 108.875"/></g><g class="vf-notehead" id="vf-auto30356" pointer-events="bounding-box"><path stroke="none" d="M330.359 84.496C324.799 84.496,322.805 87.332,322.805 89.972C322.805 92.583,324.799 95.419,330.359 95.419C335.947 95.419,337.884 92.583,337.884 89.972C337.884 87.332,335.947 84.496,330.359 84.496M332.437 93.875C331.931 94.044,331.285 94.128,330.696 94.128C329.544 94.128,328.786 93.791,328.253 92.78C327.747 91.769,327.017 89.186,326.961 88.091C326.877 86.995,327.298 86.35,328.253 86.041C328.758 85.872,329.404 85.788,329.994 85.788C331.145 85.788,331.875 86.041,332.437 87.136C332.998 88.231,333.728 90.814,333.728 91.825C333.728 92.864,333.391 93.594,332.437 93.875"/></g></g><g class="vf-stavenote" id="vf-auto30359"><g class="vf-stem" id="vf-auto30360" pointer-events="bounding-box"><path stroke-width="1.5" fill="none" d="M348.555 92.65L348.555 150"/></g><g class="vf-notehead" id="vf-auto30366" pointer-events="bounding-box"><path stroke="none" d="M356.426 109.665C352.494 109.665,347.805 112.95,347.805 116.685C347.805 118.426,349.069 120.391,352.326 120.391C356.538 120.391,360.947 116.938,360.947 113.371C360.947 110.985,358.925 109.665,356.426 109.665M355.331 116.769C355.218 116.853,352.242 118.482,350.838 118.482C349.49 118.482,349.209 117.387,349.209 117.022C349.209 115.337,353.253 113.343,353.421 113.259C353.59 113.175,356.454 111.574,357.914 111.574C358.897 111.574,359.543 112.136,359.543 113.006C359.543 114.747,355.443 116.685,355.331 116.769"/></g><g class="vf-notehead" id="vf-auto30365" pointer-events="bounding-box"><path stroke="none" d="M356.426 99.665C352.494 99.665,347.805 102.95,347.805 106.685C347.805 108.426,349.069 110.391,352.326 110.391C356.538 110.391,360.947 106.938,360.947 103.371C360.947 100.985,358.925 99.665,356.426 99.665M355.331 106.769C355.218 106.853,352.242 108.482,350.838 108.482C349.49 108.482,349.209 107.387,349.209 107.022C349.209 105.337,353.253 103.343,353.421 103.259C353.59 103.175,356.454 101.574,357.914 101.574C358.897 101.574,359.543 102.136,359.543 103.006C359.543 104.747,355.443 106.685,355.331 106.769"/></g><g class="vf-notehead" id="vf-auto30364" pointer-events="bounding-box"><path stroke="none" d="M356.426 84.665C352.494 84.665,347.805 87.95,347.805 91.685C347.805 93.426,349.069 95.391,352.326 95.391C356.538 95.391,360.947 91.938,360.947 88.371C360.947 85.985,358.925 84.665,356.426 84.665M355.331 91.769C355.218 91.853,352.242 93.482,350.838 93.482C349.49 93.482,349.209 92.387,349.209 92.022C349.209 90.337,353.253 88.343,353.421 88.259C353.59 88.175,356.454 86.574,357.914 86.574C358.897 86.574,359.543 87.136,359.543 88.006C359.543 89.747,355.443 91.685,355.331 91.769"/></g></g><g class="vf-stavenote" id="vf-auto30367"><g class="vf-stem" id="vf-auto30368" pointer-events="bounding-box"><path stroke-width="1.5" fill="none" d="M373.555 92L373.555 150"/></g><g class="vf-notehead" id="vf-auto30374" pointer-events="bounding-box"><path stroke="none" d="M372.805 116.685C372.805 118.426,374.069 120.391,377.326 120.391C381.538 120.391,385.947 116.938,385.947 113.371C385.947 110.985,383.925 109.665,381.426 109.665C377.494 109.665,372.805 112.978,372.805 116.685"/></g><g class="vf-notehead" id="vf-auto30373" pointer-events="bounding-box"><path stroke="none" d="M372.805 106.685C372.805 108.426,374.069 110.391,377.326 110.391C381.538 110.391,385.947 106.938,385.947 103.371C385.947 100.985,383.925 99.665,381.426 99.665C377.494 99.665,372.805 102.978,372.805 106.685"/></g><g class="vf-notehead" id="vf-auto30372" pointer-events="bounding-box"><path stroke="none" d="M372.805 91.685C372.805 93.426,374.069 95.391,377.326 95.391C381.538 95.391,385.947 91.938,385.947 88.371C385.947 85.985,383.925 84.665,381.426 84.665C377.494 84.665,372.805 87.978,372.805 91.685"/></g></g><g class="vf-stavenote" id="vf-auto30375"><g class="vf-stem" id="vf-auto30376" pointer-events="bounding-box"><path stroke-width="1.5" fill="none" d="M398.555 92L398.555 147"/></g><g class="vf-notehead" id="vf-auto30383" pointer-events="bounding-box"><path stroke="none" d="M397.805 116.685C397.805 118.426,399.069 120.391,402.326 120.391C406.538 120.391,410.947 116.938,410.947 113.371C410.947 110.985,408.925 109.665,406.426 109.665C402.494 109.665,397.805 112.978,397.805 116.685"/></g><g class="vf-notehead" id="vf-auto30382" pointer-events="bounding-box"><path stroke="none" d="M397.805 106.685C397.805 108.426,399.069 110.391,402.326 110.391C406.538 110.391,410.947 106.938,410.947 103.371C410.947 100.985,408.925 99.665,406.426 99.665C402.494 99.665,397.805 102.978,397.805 106.685"/></g><g class="vf-notehead" id="vf-auto30381" pointer-events="bounding-box"><path stroke="none" d="M397.805 91.685C397.805 93.426,399.069 95.391,402.326 95.391C406.538 95.391,410.947 91.938,410.947 88.371C410.947 85.985,408.925 84.665,406.426 84.665C402.494 84.665,397.805 87.978,397.805 91.685"/></g><path stroke="none" d="M397.805 151.972C397.805 152.253,398.058 152.477,398.339 152.477C398.535 152.477,398.788 152.337,398.816 152.168C398.816 152.112,399.181 150.708,399.209 150.596C399.265 150.428,399.63 148.883,401.09 146.496C402.663 143.885,405.078 141.975,407.1 139.139C409.093 136.303,410.301 133.636,410.301 130.098C410.301 126.391,409.458 123.33,407.296 119.399C407.184 119.118,406.931 118.978,406.706 118.978C406.622 118.978,406.538 118.978,406.51 119.006C406.285 119.09,406.229 119.259,406.229 119.483C406.229 119.624,406.257 119.82,406.341 119.989C407.942 123.723,408.588 125.886,408.588 128.778C408.588 132.147,407.437 133.888,406.706 135.152C404.067 139.617,399.827 141.807,398.142 142.369C397.833 142.509,397.805 142.706,397.805 142.818"/></g><g class="vf-stavenote" id="vf-auto30385"><g class="vf-stem" id="vf-auto30386" pointer-events="bounding-box"><path stroke-width="1.5" fill="none" d="M423.555 92L423.555 147"/></g><g class="vf-notehead" id="vf-auto30393" pointer-events="bounding-box"><path stroke="none" d="M422.805 116.685C422.805 118.426,424.069 120.391,427.326 120.391C431.538 120.391,435.947 116.938,435.947 113.371C435.947 110.985,433.925 109.665,431.426 109.665C427.494 109.665,422.805 112.978,422.805 116.685"/></g><g class="vf-notehead" id="vf-auto30392" pointer-events="bounding-box"><path stroke="none" d="M422.805 106.685C422.805 108.426,424.069 110.391,427.326 110.391C431.538 110.391,435.947 106.938,435.947 103.371C435.947 100.985,433.925 99.665,431.426 99.665C427.494 99.665,422.805 102.978,422.805 106.685"/></g><g class="vf-notehead" id="vf-auto30391" pointer-events="bounding-box"><path stroke="none" d="M422.805 91.685C422.805 93.426,424.069 95.391,427.326 95.391C431.538 95.391,435.947 91.938,435.947 88.371C435.947 85.985,433.925 84.665,431.426 84.665C427.494 84.665,422.805 87.978,422.805 91.685"/></g><path stroke="none" d="M424.293 142.284C424.35 142.088,424.378 141.919,424.378 141.807C424.658 140.796,424.995 139.308,427.382 137.483C429.713 135.657,432.521 133.411,433.588 131.445C433.532 134.562,432.745 136.5,431.706 137.876C429.235 140.908,426.231 141.779,424.293 142.284M422.805 152.393C422.805 152.73,423.086 153.039,423.423 153.039C423.732 153.039,423.928 152.73,424.013 152.393C424.63 148.237,425.866 147.03,427.494 145.485C429.629 143.436,435.301 140.319,435.301 132.821C435.301 131.502,435.188 130.013,434.936 128.497C435.104 127.992,435.188 127.262,435.188 126.194C435.188 123.021,433.307 120.775,431.987 119.736C431.819 119.624,431.566 119.54,431.341 119.54C431.173 119.54,431.004 119.568,430.864 119.652C430.696 119.736,430.639 119.764,430.639 119.848C430.639 119.989,430.892 120.129,431.061 120.298C432.465 121.786,433.532 123.162,433.532 125.886C433.532 126.391,433.476 126.925,433.307 127.402L433.279 127.542C433.279 127.542,433.279 127.542,433.279 127.542C433.082 128.357,432.633 129.115,431.987 129.845C429.151 133.13,425.22 134.815,423.423 135.208C423.142 135.349,422.805 136.219,422.805 136.303"/></g><g class="vf-stavenote" id="vf-auto30395"><g class="vf-stem" id="vf-auto30396" pointer-events="bounding-box"><path stroke-width="1.5" fill="none" d="M448.555 92L448.555 156"/></g><g class="vf-notehead" id="vf-auto30403" pointer-events="bounding-box"><path stroke="none" d="M447.805 116.685C447.805 118.426,449.069 120.391,452.326 120.391C456.538 120.391,460.947 116.938,460.947 113.371C460.947 110.985,458.925 109.665,456.426 109.665C452.494 109.665,447.805 112.978,447.805 116.685"/></g><g class="vf-notehead" id="vf-auto30402" pointer-events="bounding-box"><path stroke="none" d="M447.805 106.685C447.805 108.426,449.069 110.391,452.326 110.391C456.538 110.391,460.947 106.938,460.947 103.371C460.947 100.985,458.925 99.665,456.426 99.665C452.494 99.665,447.805 102.978,447.805 106.685"/></g><g class="vf-notehead" id="vf-auto30401" pointer-events="bounding-box"><path stroke="none" d="M447.805 91.685C447.805 93.426,449.069 95.391,452.326 95.391C456.538 95.391,460.947 91.938,460.947 88.371C460.947 85.985,458.925 84.665,456.426 84.665C452.494 84.665,447.805 87.978,447.805 91.685"/></g><path stroke="none" d="M449.209 149.95C449.434 149.052,449.799 148.041,450.36 147.198C451.877 144.952,455.443 143.099,457.549 140.712C457.942 140.263,458.307 139.785,458.588 139.252C458.588 142.256,457.942 143.941,456.903 145.289C454.404 148.35,451.231 149.36,449.209 149.95M452.382 137.483C454.769 135.461,456.987 133.973,458.082 132.541C458.251 132.344,458.391 132.119,458.532 131.895C458.56 132.119,458.56 132.344,458.56 132.541C458.56 134.562,457.886 136.219,456.622 137.82C455.05 139.757,452.831 141.049,449.293 142.369C449.35 142.144,449.378 141.919,449.378 141.807C449.658 140.768,450.08 139.392,452.382 137.483M447.805 160.087C447.805 160.368,448.086 160.733,448.423 160.733C448.732 160.733,448.928 160.424,449.013 160.087C449.63 155.875,450.866 154.668,452.494 153.123C454.629 151.101,460.301 147.985,460.301 140.515C460.301 139.027,460.132 137.398,459.908 135.798C460.02 135.096,460.132 134.422,460.188 133.72C460.188 133.523,460.188 133.271,460.188 133.046C460.188 132.906,460.188 132.793,460.188 132.709C460.188 131.502,459.964 130.322,459.739 129.311C460.02 128.413,460.188 127.402,460.188 126.194C460.188 123.021,458.307 120.775,456.987 119.736C456.819 119.624,456.622 119.54,456.37 119.54C456.229 119.54,456.004 119.568,455.864 119.652C455.696 119.736,455.639 119.764,455.639 119.848C455.639 119.989,455.892 120.101,456.061 120.298C457.465 121.786,458.532 123.162,458.532 125.886C458.532 127.374,458.026 128.637,456.987 129.845C454.151 133.13,450.22 134.815,448.423 135.208C448.142 135.349,447.805 136.219,447.805 136.303"/></g><g class="vf-stavenote" id="vf-auto30405"><g class="vf-stem" id="vf-auto30406" pointer-events="bounding-box"><path stroke-width="1.5" fill="none" d="M473.555 92L473.555 160"/></g><g class="vf-notehead" id="vf-auto30413" pointer-events="bounding-box"><path stroke="none" d="M472.805 116.685C472.805 118.426,474.069 120.391,477.326 120.391C481.538 120.391,485.947 116.938,485.947 113.371C485.947 110.985,483.925 109.665,481.426 109.665C477.494 109.665,472.805 112.978,472.805 116.685"/></g><g class="vf-notehead" id="vf-auto30412" pointer-events="bounding-box"><path stroke="none" d="M472.805 106.685C472.805 108.426,474.069 110.391,477.326 110.391C481.538 110.391,485.947 106.938,485.947 103.371C485.947 100.985,483.925 99.665,481.426 99.665C477.494 99.665,472.805 102.978,472.805 106.685"/></g><g class="vf-notehead" id="vf-auto30411" pointer-events="bounding-box"><path stroke="none" d="M472.805 91.685C472.805 93.426,474.069 95.391,477.326 95.391C481.538 95.391,485.947 91.938,485.947 88.371C485.947 85.985,483.925 84.665,481.426 84.665C477.494 84.665,472.805 87.978,472.805 91.685"/></g><path stroke="none" d="M474.265 157.504C474.462 156.661,474.799 155.678,475.36 154.864C476.877 152.646,480.443 150.736,482.549 148.406C482.942 147.928,483.307 147.423,483.588 146.946C483.588 149.866,482.942 151.551,481.903 152.842C479.404 155.931,476.287 156.942,474.265 157.504M477.382 137.483C479.769 135.461,481.987 133.916,483.082 132.541C483.251 132.316,483.391 132.119,483.532 131.867C483.56 132.119,483.56 132.316,483.56 132.541C483.56 134.562,482.886 136.219,481.622 137.82C480.05 139.701,477.831 141.049,474.293 142.369C474.35 142.144,474.378 141.919,474.378 141.807C474.658 140.768,475.08 139.392,477.382 137.483M481.622 145.485C480.05 147.423,477.831 148.715,474.209 150.062C474.378 149.136,474.743 148.069,475.36 147.198C476.877 144.952,480.443 143.071,482.549 140.712C482.914 140.319,483.251 139.869,483.532 139.392C483.56 139.673,483.56 139.954,483.56 140.206C483.56 142.228,482.886 143.913,481.622 145.485M472.805 167.641C472.805 167.921,473.086 168.286,473.423 168.286C473.732 168.286,473.928 167.921,474.013 167.641C474.63 163.457,475.866 162.221,477.494 160.705C479.629 158.683,485.301 155.51,485.301 148.069C485.301 146.609,485.132 145.008,484.908 143.379C485.048 142.706,485.132 142.06,485.188 141.414C485.188 141.133,485.188 140.852,485.188 140.6C485.188 140.487,485.188 140.403,485.188 140.263C485.188 138.971,484.936 137.763,484.683 136.668C484.936 135.657,485.104 134.647,485.188 133.72C485.188 133.467,485.188 133.271,485.188 133.046C485.188 132.906,485.188 132.793,485.188 132.681C485.188 131.502,484.964 130.322,484.739 129.311C485.02 128.413,485.188 127.402,485.188 126.194C485.188 123.021,483.307 120.775,481.987 119.736C481.819 119.624,481.622 119.54,481.37 119.483C481.229 119.483,481.004 119.54,480.864 119.652C480.696 119.68,480.639 119.764,480.639 119.848C480.639 119.989,480.892 120.101,481.061 120.298C482.465 121.786,483.532 123.162,483.532 125.886C483.532 127.374,483.026 128.637,481.987 129.845C479.151 133.13,475.22 134.815,473.423 135.208C473.142 135.349,472.805 136.191,472.805 136.303"/></g><g class="vf-stavenote" id="vf-auto30415"><g class="vf-stem" id="vf-auto30416" pointer-events="bounding-box"><path stroke-width="1.5" fill="none" d="M498.555 92L498.555 169"/></g><g class="vf-notehead" id="vf-auto30423" pointer-events="bounding-box"><path stroke="none" d="M497.805 116.685C497.805 118.426,499.069 120.391,502.326 120.391C506.538 120.391,510.947 116.938,510.947 113.371C510.947 110.985,508.925 109.665,506.426 109.665C502.494 109.665,497.805 112.978,497.805 116.685"/></g><g class="vf-notehead" id="vf-auto30422" pointer-events="bounding-box"><path stroke="none" d="M497.805 106.685C497.805 108.426,499.069 110.391,502.326 110.391C506.538 110.391,510.947 106.938,510.947 103.371C510.947 100.985,508.925 99.665,506.426 99.665C502.494 99.665,497.805 102.978,497.805 106.685"/></g><g class="vf-notehead" id="vf-auto30421" pointer-events="bounding-box"><path stroke="none" d="M497.805 91.685C497.805 93.426,499.069 95.391,502.326 95.391C506.538 95.391,510.947 91.938,510.947 88.371C510.947 85.985,508.925 84.665,506.426 84.665C502.494 84.665,497.805 87.978,497.805 91.685"/></g><path stroke="none" d="M497.805 175.25C497.805 175.531,498.086 175.896,498.423 175.896C498.732 175.896,498.928 175.587,499.013 175.25C499.63 171.038,500.866 169.831,502.494 168.286C504.629 166.265,510.301 163.148,510.301 155.678C510.301 154.218,510.132 152.618,509.908 150.989C510.048 150.315,510.132 149.613,510.188 148.967C510.188 148.715,510.188 148.434,510.188 148.153C510.188 148.069,510.188 147.956,510.188 147.872C510.188 146.581,509.936 145.373,509.683 144.278C509.964 143.295,510.104 142.34,510.188 141.414C510.188 141.133,510.188 140.88,510.188 140.6C510.188 140.487,510.188 140.403,510.188 140.263C510.188 138.971,509.936 137.763,509.683 136.668C509.936 135.657,510.104 134.703,510.188 133.776C510.188 133.523,510.188 133.271,510.188 133.046C510.188 132.906,510.188 132.793,510.188 132.709C510.188 131.502,509.964 130.322,509.739 129.311C510.02 128.413,510.188 127.402,510.188 126.194C510.188 123.021,508.307 120.775,506.987 119.736C506.819 119.624,506.566 119.54,506.341 119.54C506.173 119.54,506.004 119.568,505.864 119.652C505.696 119.736,505.639 119.764,505.639 119.848C505.639 119.989,505.892 120.129,506.061 120.298C507.465 121.786,508.532 123.162,508.532 125.886C508.532 127.374,508.026 128.637,506.987 129.845C504.151 133.13,500.22 134.815,498.423 135.208C498.142 135.349,497.805 136.219,497.805 136.303M506.622 153.039C505.05 155.005,502.831 156.296,499.209 157.616C499.434 156.717,499.799 155.707,500.36 154.864C501.877 152.646,505.443 150.736,507.549 148.406C507.914 147.985,508.251 147.507,508.532 147.058C508.56 147.311,508.56 147.507,508.56 147.76C508.56 149.782,507.886 151.466,506.622 153.039M506.622 145.485C505.05 147.423,502.831 148.715,499.209 150.062C499.378 149.164,499.743 148.125,500.36 147.198C501.877 144.952,505.443 143.099,507.549 140.712C507.914 140.319,508.251 139.869,508.532 139.392C508.56 139.673,508.56 139.954,508.56 140.206C508.56 142.256,507.886 143.913,506.622 145.485M502.382 137.483C504.769 135.461,506.987 133.973,508.082 132.541C508.251 132.344,508.391 132.119,508.532 131.895C508.56 132.119,508.56 132.344,508.56 132.541C508.532 134.562,507.886 136.275,506.622 137.82C505.05 139.757,502.831 141.049,499.293 142.369C499.35 142.172,499.378 141.975,499.378 141.807C499.658 140.796,500.08 139.392,502.382 137.483M499.265 165.113C499.462 164.215,499.799 163.288,500.36 162.446C501.877 160.199,505.443 158.318,507.549 155.959C507.942 155.51,508.307 155.033,508.588 154.499C508.532 157.448,507.942 159.16,506.903 160.452C504.404 163.513,501.231 164.524,499.265 165.113"/></g><g class="vf-stavenote" id="vf-auto30425"><g class="vf-notehead" id="vf-auto30428" pointer-events="bounding-box"><path stroke="none" d="M527.242 90.449C527.607 90.449,527.86 90.168,527.86 89.832L527.86 80.004C527.86 79.695,527.607 79.414,527.242 79.414L523.423 79.414C523.086 79.414,522.805 79.695,522.805 80.004L522.805 89.832C522.805 90.168,523.086 90.449,523.423 90.449"/></g></g><g class="vf-stavenote" id="vf-auto30429"><g class="vf-notehead" id="vf-auto30432" pointer-events="bounding-box"><path stroke="none" d="M548.367 79.803C548.058 79.803,547.805 80.028,547.805 80.365L547.805 84.717C547.805 85.054,548.058 85.307,548.367 85.307L560.385 85.307C560.694 85.307,560.947 85.054,560.947 84.717L560.947 80.365C560.947 80.028,560.694 79.803,560.385 79.803"/></g></g><g class="vf-stavenote" id="vf-auto30433"><g class="vf-notehead" id="vf-auto30436" pointer-events="bounding-box"><path stroke="none" d="M572.805 89.607C572.805 90.168,572.805 90.168,573.367 90.168L585.385 90.168C585.947 90.168,585.947 90.168,585.947 89.607L585.947 85.226C585.947 84.665,585.947 84.665,585.385 84.665L573.367 84.665C572.805 84.665,572.805 84.665,572.805 85.226"/></g></g><g class="vf-stavenote" id="vf-auto30437"><g class="vf-notehead" id="vf-auto30440" pointer-events="bounding-box"><path stroke="none" d="M606.146 96.023C606.121 95.998,606.046 95.922,605.945 95.771L601.762 90.605C601.736 90.58,601.686 90.479,601.686 90.403C601.686 90.302,601.736 90.151,601.762 90.076L605.466 84.481C605.491 84.406,605.542 84.305,605.542 84.229L605.542 83.902C605.542 83.801,605.491 83.675,605.416 83.624L599.544 75.661C599.544 75.661,599.393 75.46,599.191 75.46C599.065 75.46,599.015 75.485,598.889 75.56C598.738 75.661,598.712 75.812,598.712 75.913C598.712 76.14,598.813 76.316,598.813 76.316L601.585 80.096C601.661 80.197,601.686 80.348,601.686 80.525C601.686 80.676,601.661 80.852,601.585 80.953L597.906 86.548C597.881 86.623,597.83 86.774,597.83 86.85L597.83 87.178C597.83 87.278,597.881 87.379,597.956 87.455L602.014 92.495C601.862 92.47,601.535 92.394,601.106 92.394C600.502 92.394,599.695 92.545,599.04 93.125C598.234 93.856,597.805 94.864,597.805 95.771C597.805 96.275,597.906 96.779,598.208 97.182C598.964 98.341,601.686 101.794,601.686 101.794C601.686 101.794,601.862 102.02,602.114 102.02C602.19 102.02,602.266 102.02,602.341 101.945C602.518 101.794,602.593 101.642,602.593 101.491C602.593 101.365,602.518 101.239,602.492 101.189C602.366 100.987,601.207 98.896,601.207 98.896C601.207 98.896,600.955 98.392,600.955 97.736C600.955 97.258,601.106 96.678,601.585 96.199C602.014 95.771,602.518 95.62,602.996 95.62C603.475 95.62,603.853 95.771,604.156 95.947L605.567 96.854C605.567 96.854,605.718 96.93,605.869 96.93C605.995 96.93,606.121 96.905,606.222 96.754C606.298 96.602,606.323 96.527,606.323 96.426C606.323 96.325,606.298 96.25,606.222 96.124"/></g></g><g class="vf-stavenote" id="vf-auto30441"><g class="vf-notehead" id="vf-auto30444" pointer-events="bounding-box"><path stroke="none" d="M633.588 81.801C633.56 81.801,633.476 81.744,633.447 81.744C633.195 81.744,632.998 81.885,632.914 82.081C632.745 82.306,631.51 84.693,629.685 86.041C629.151 86.434,628.505 86.715,627.86 86.855C628.309 86.322,628.59 85.676,628.59 84.918C628.59 83.317,627.298 82.025,625.725 82.025C624.097 82.025,622.805 83.317,622.805 84.918C622.805 86.153,623.563 87.164,624.63 87.613C625.22 87.894,626.034 88.091,626.849 88.091C628.028 88.091,629.264 87.726,630.359 86.939C630.864 86.574,631.341 86.069,631.791 85.591L627.186 99.996L628.253 100.305L633.925 82.475C633.953 82.446,633.953 82.362,633.953 82.278C633.953 82.081,633.841 81.913,633.588 81.801"/></g></g><g class="vf-stavenote" id="vf-auto30445"><g class="vf-notehead" id="vf-auto30448" pointer-events="bounding-box"><path stroke="none" d="M661.677 82.475C661.705 82.39,661.705 82.362,661.705 82.278C661.705 82.081,661.592 81.885,661.34 81.801C661.284 81.744,661.199 81.744,661.143 81.744C660.918 81.744,660.75 81.885,660.61 82.081C659.655 84.019,658.026 86.209,655.808 86.771C656.285 86.209,656.51 85.563,656.51 84.833C656.51 83.261,655.078 82.025,653.505 82.025C651.877 82.11,650.725 83.457,650.725 85.03C650.754 86.237,651.568 87.248,652.607 87.641C653.337 87.978,654.123 88.062,654.881 88.062C656.903 87.978,658.476 86.967,659.683 85.395L659.683 85.395L657.886 91.825C657.296 93.707,654.994 96.346,652.944 96.88C653.393 96.318,653.618 95.616,653.618 94.942C653.618 93.313,652.242 92.134,650.669 92.134C649.069 92.134,647.833 93.51,647.833 95.139C647.833 96.346,648.704 97.357,649.743 97.722C650.501 98.059,651.203 98.115,652.017 98.115C654.039 98.059,655.611 97.048,656.819 95.448L652.691 110.218L653.786 110.498"/></g></g><g class="vf-stavenote" id="vf-auto30449"><g class="vf-notehead" id="vf-auto30452" pointer-events="bounding-box"><path stroke="none" d="M678.898 88.006C682.577 88.006,684.093 85.479,684.262 85.198L682.745 91.292C681.875 93.398,680.331 96.093,677.972 96.739C678.421 96.178,678.533 95.532,678.533 94.802C678.533 93.201,677.242 92.134,675.669 92.134C674.097 92.134,672.805 93.37,672.805 94.97C672.805 97.076,674.574 98.087,676.736 98.087C678.87 98.087,680.555 96.908,681.791 95.223L678.112 110.246L679.207 110.498L688.586 72.085C688.614 72.057,688.614 71.973,688.614 71.916C688.614 71.692,688.446 71.523,688.221 71.439C688.165 71.411,688.081 71.411,688.053 71.411C687.8 71.411,687.631 71.551,687.519 71.776C686.761 73.461,684.908 75.848,682.942 76.325C683.447 75.735,683.56 75.118,683.56 74.388C683.56 72.843,682.296 71.692,680.724 71.692C679.151 71.692,677.831 72.899,677.831 74.584C677.831 75.82,678.702 76.971,679.797 77.336C680.331 77.532,680.892 77.617,681.538 77.673C681.706 77.673,681.875 77.673,682.072 77.617C684.037 77.504,685.666 76.381,686.789 74.809L685.216 81.295C684.402 83.317,682.661 86.153,680.415 86.715C680.892 86.125,681.004 85.507,681.004 84.777C681.004 83.177,679.685 82.081,678.112 82.081C676.512 82.081,675.276 83.317,675.276 84.946C675.276 86.855,677.101 88.006,678.898 88.006"/></g></g><g class="vf-stavenote" id="vf-auto30453"><g class="vf-notehead" id="vf-auto30456" pointer-events="bounding-box"><path stroke="none" d="M703.618 120.411L704.713 120.663C705.724 115.806,714.794 72.197,714.878 71.916C714.878 71.832,714.906 71.804,714.906 71.776C714.906 71.523,714.737 71.327,714.513 71.271C714.457 71.243,714.428 71.243,714.344 71.243C714.007 71.243,713.951 71.355,713.783 71.636C713.614 71.916,712.688 73.91,711.115 75.37C710.61 75.82,710.02 76.128,709.374 76.325C709.739 75.876,709.936 75.23,709.936 74.668C709.936 72.984,708.532 71.776,707.015 71.776C705.527 71.776,704.151 72.927,704.151 74.668C704.151 76.943,706.229 77.701,707.914 77.701C709.571 77.701,711.115 76.943,711.873 76.185C712.603 75.455,712.772 75.23,713.137 74.668L713.165 74.64L711.845 80.93C711.592 81.576,710.497 84.131,709.009 85.479C708.532 85.956,707.914 86.293,707.268 86.49C707.633 85.985,707.83 86.237,707.83 84.833C707.83 83.401,706.706 81.913,704.909 81.913C703.14 81.913,702.045 83.373,702.045 84.749C702.045 86.125,702.944 87.866,705.808 87.866C709.374 87.866,710.862 85.142,711.031 84.833L709.683 91.264C709.402 91.938,708.307 94.437,706.903 95.728C706.37 96.234,705.78 96.543,705.162 96.739C705.499 96.262,705.696 95.953,705.696 95.054C705.696 94.128,705.05 92.19,702.775 92.19C700.557 92.19,699.911 94.296,699.911 95.054C699.911 95.813,700.276 98.115,703.674 98.115C707.072 98.115,708.728 95.419,708.897 95.082L707.633 101.148C707.268 102.608,705.808 104.882,704.769 105.837C704.235 106.286,703.618 106.623,703.028 106.82C703.337 106.371,703.533 105.809,703.533 105.163C703.533 104.068,702.691 102.299,700.669 102.299C698.619 102.299,697.805 104.068,697.805 105.163C697.805 106.258,698.479 108.196,701.512 108.196C705.274 108.196,706.65 105.5,706.791 105.163"/></g></g><g class="vf-stavenote" id="vf-auto30457"><g class="vf-notehead" id="vf-auto30460" pointer-events="bounding-box"><path stroke="none" d="M741.815 61.134C741.675 61.05,741.534 61.021,741.45 61.021C741.169 61.021,741.029 61.134,740.889 61.415C740.72 61.695,739.794 63.689,738.221 65.121C737.716 65.57,737.126 65.907,736.48 66.104C736.845 65.627,737.042 65.009,737.042 64.447C737.042 62.734,735.61 61.527,734.121 61.527C732.633 61.527,731.257 62.706,731.257 64.447C731.257 66.722,733.307 67.48,735.02 67.48C736.677 67.48,738.221 66.722,738.979 65.935C739.709 65.205,739.878 65.009,740.243 64.447L740.271 64.391L738.951 70.709C738.698 71.355,737.603 73.91,736.115 75.23C735.61 75.735,735.02 76.044,734.374 76.241C734.739 75.763,734.936 76.016,734.936 74.584C734.936 73.18,733.812 71.692,732.015 71.692C730.246 71.692,729.151 73.152,729.151 74.5C729.151 75.876,730.05 77.617,732.914 77.617C736.48 77.617,737.968 74.921,738.137 74.584L736.789 81.014C736.508 81.716,735.413 84.187,734.009 85.507C733.476 85.985,732.886 86.322,732.268 86.49C732.577 86.041,732.802 85.704,732.802 84.833C732.802 83.907,732.156 81.941,729.881 81.941C727.663 81.941,727.017 84.047,727.017 84.833C727.017 85.591,727.382 87.866,730.78 87.866C734.178 87.866,735.834 85.198,735.975 84.861L734.739 90.927C734.374 92.387,732.914 94.661,731.875 95.616C731.341 96.065,730.724 96.402,730.134 96.599C730.443 96.15,730.639 95.588,730.639 94.942C730.639 93.847,729.797 92.022,727.775 92.022C725.725 92.022,724.911 93.847,724.911 94.942C724.911 96.037,725.585 97.975,728.618 97.975C732.38 97.975,733.756 95.251,733.897 94.942L732.549 101.485C732.072 102.945,730.724 104.967,729.769 105.893C729.235 106.343,728.618 106.651,728.028 106.848C728.337 106.371,728.533 105.837,728.533 105.191C728.533 104.068,727.691 102.299,725.669 102.299C723.619 102.299,722.777 104.124,722.777 105.191C722.777 106.286,723.479 108.224,726.512 108.224C729.994 108.224,731.426 105.921,731.735 105.332L728.59 120.439L729.685 120.691C730.696 115.834,741.9 62.032,741.984 61.695C741.984 61.667,742.012 61.527,742.012 61.499C742.012 61.358,741.984 61.246,741.815 61.134"/></g></g><g class="vf-stavenote" id="vf-auto30461"><g class="vf-stem" id="vf-auto30462" pointer-events="bounding-box"><path stroke-width="1.5" fill="none" d="M760.197 87.45L760.197 55"/></g><g class="vf-notehead" id="vf-auto30464" pointer-events="bounding-box"><path stroke="none" d="M760.75 86.125C760.862 86.041,760.947 85.872,760.947 85.704L760.947 85.676C760.947 85.507,760.862 85.395,760.778 85.311L760.301 84.833C760.188 84.749,760.048 84.665,759.908 84.665C759.767 84.665,759.599 84.693,759.543 84.777L754.404 88.877L749.209 84.777C749.153 84.693,748.984 84.665,748.844 84.665C748.704 84.665,748.619 84.749,748.479 84.833L747.974 85.311C747.889 85.395,747.805 85.563,747.805 85.704C747.805 85.872,747.889 86.041,748.002 86.125L752.944 90L748.002 93.875C747.889 93.959,747.805 94.128,747.805 94.296C747.805 94.409,747.889 94.577,747.974 94.661L748.451 95.167C748.535 95.307,748.704 95.335,748.844 95.335C748.984 95.335,749.153 95.307,749.209 95.223L754.404 91.123L759.543 95.223C759.599 95.307,759.767 95.335,759.908 95.335C760.048 95.335,760.216 95.307,760.301 95.167L760.778 94.661C760.862 94.577,760.947 94.409,760.947 94.296C760.947 94.128,760.862 93.959,760.75 93.875L755.808 90"/></g></g></svg>