<svg xmlns="http://www.w3.org/2000/svg" stroke-width="0.3" stroke-dasharray="none" fill="black" stroke="black" font-family="Arial, sans-serif" font-size="10pt" font-weight="normal" font-style="normal" width="450" height="200" viewBox="0 0 450 200" style="width: 450px; height: 200px; border: none;"><g class="vf-stave" id="vf-auto19742" stroke-width="1" fill="#999999" stroke="#999999"><path fill="none" d="M0 80L440 80"/><path fill="none" d="M0 90L440 90"/><path fill="none" d="M0 100L440 100"/><path fill="none" d="M0 110L440 110"/><path fill="none" d="M0 120L440 120"/></g><g class="vf-stavebarline" id="vf-auto19743"><rect y="79.5" width="1" height="41" stroke="none"/></g><g class="vf-stavebarline" id="vf-auto19744"><rect x="440" y="79.5" width="1" height="41" stroke="none"/></g><g class="vf-stavenote" id="vf-auto19745"><g class="vf-notehead" id="vf-auto19870" pointer-events="bounding-box"><path stroke="none" d="M23.145 101.543C23.426 101.599,23.678 101.627,23.959 101.627C27.834 101.627,33.619 96.348,33.506 92.08C33.394 91.041,33.422 89.609,31.316 88.766C30.727 88.485,30.081 88.373,29.379 88.373C25.054 88.373,20.365 93.343,20.028 96.657C20.028 96.909,20 97.134,20 97.387C20 99.409,20.899 101.037,23.145 101.543"/></g></g><g class="vf-stavenote" id="vf-auto19751"><g class="vf-notehead" id="vf-auto19872" pointer-events="bounding-box"><path stroke="none" d="M41.036 101.543C41.317 101.599,41.57 101.627,41.851 101.627C45.726 101.627,51.51 96.348,51.398 92.08C51.286 91.041,51.314 89.609,49.208 88.766C48.618 88.485,47.972 88.373,47.27 88.373C42.946 88.373,38.256 93.343,37.919 96.657C37.919 96.909,37.891 97.134,37.891 97.387C37.891 99.409,38.79 101.037,41.036 101.543"/></g></g><g class="vf-stavenote" id="vf-auto19757"><g class="vf-notehead" id="vf-auto19874" pointer-events="bounding-box"><path stroke="none" d="M58.928 101.543C59.208 101.599,59.461 101.627,59.742 101.627C63.617 101.627,69.402 96.348,69.289 92.08C69.177 91.041,69.205 89.609,67.099 88.766C66.509 88.485,65.863 88.373,65.161 88.373C60.837 88.373,56.148 93.343,55.811 96.657C55.811 96.909,55.783 97.134,55.783 97.387C55.783 99.409,56.681 101.037,58.928 101.543"/></g></g><g class="vf-stavenote" id="vf-auto19763"><g class="vf-notehead" id="vf-auto19876" pointer-events="bounding-box"><path stroke="none" d="M76.819 101.543C77.1 101.599,77.353 101.627,77.633 101.627C81.508 101.627,87.293 96.348,87.181 92.08C87.068 91.041,87.096 89.609,84.99 88.766C84.401 88.485,83.755 88.373,83.053 88.373C78.728 88.373,74.039 93.343,73.702 96.657C73.702 96.909,73.674 97.134,73.674 97.387C73.674 99.409,74.573 101.037,76.819 101.543"/></g></g><g class="vf-stavenote" id="vf-auto19769"><g class="vf-notehead" id="vf-auto19878" pointer-events="bounding-box"><path stroke="none" d="M94.71 101.543C94.991 101.599,95.244 101.627,95.525 101.627C99.4 101.627,105.184 96.348,105.072 92.08C104.96 91.041,104.988 89.609,102.882 88.766C102.292 88.485,101.646 88.373,100.944 88.373C96.62 88.373,91.93 93.343,91.594 96.657C91.594 96.909,91.565 97.134,91.565 97.387C91.565 99.409,92.464 101.037,94.71 101.543"/></g></g><g class="vf-stavenote" id="vf-auto19775"><g class="vf-notehead" id="vf-auto19880" pointer-events="bounding-box"><path stroke="none" d="M112.602 101.543C112.883 101.599,113.135 101.627,113.416 101.627C117.291 101.627,123.076 96.348,122.963 92.08C122.851 91.041,122.879 89.609,120.773 88.766C120.183 88.485,119.538 88.373,118.836 88.373C114.511 88.373,109.822 93.343,109.485 96.657C109.485 96.909,109.457 97.134,109.457 97.387C109.457 99.409,110.355 101.037,112.602 101.543"/></g></g><g class="vf-stavenote" id="vf-auto19781"><g class="vf-notehead" id="vf-auto19882" pointer-events="bounding-box"><path stroke="none" d="M130.493 101.543C130.774 101.599,131.027 101.627,131.307 101.627C135.182 101.627,140.967 96.348,140.855 92.08C140.742 91.041,140.77 89.609,138.664 88.766C138.075 88.485,137.429 88.373,136.727 88.373C132.403 88.373,127.713 93.343,127.376 96.657C127.376 96.909,127.348 97.134,127.348 97.387C127.348 99.409,128.247 101.037,130.493 101.543"/></g></g><g class="vf-stavenote" id="vf-auto19787"><g class="vf-notehead" id="vf-auto19884" pointer-events="bounding-box"><path stroke="none" d="M148.384 101.543C148.665 101.599,148.918 101.627,149.199 101.627C153.074 101.627,158.858 96.348,158.746 92.08C158.634 91.041,158.662 89.609,156.556 88.766C155.966 88.485,155.32 88.373,154.618 88.373C150.294 88.373,145.605 93.343,145.268 96.657C145.268 96.909,145.24 97.134,145.24 97.387C145.24 99.409,146.138 101.037,148.384 101.543"/></g></g><g class="vf-stavenote" id="vf-auto19793"><path stroke-width="1.4" fill="none" stroke="#444" d="M160.131 70L179.639 70"/><g class="vf-notehead" id="vf-auto19886" pointer-events="bounding-box"><path stroke="none" d="M166.276 76.543C166.557 76.599,166.809 76.627,167.09 76.627C170.965 76.627,176.75 71.348,176.637 67.08C176.525 66.041,176.553 64.609,174.447 63.766C173.857 63.485,173.212 63.373,172.51 63.373C168.185 63.373,163.496 68.343,163.159 71.657C163.159 71.909,163.131 72.134,163.131 72.387C163.131 74.409,164.029 76.037,166.276 76.543"/></g></g><g class="vf-stavenote" id="vf-auto19799"><g class="vf-notehead" id="vf-auto19888" pointer-events="bounding-box"><path stroke="none" d="M189.291 81.543C189.572 81.599,189.825 81.627,190.106 81.627C193.981 81.627,199.765 76.348,199.653 72.08C199.54 71.041,199.569 69.609,197.463 68.766C196.873 68.485,196.227 68.373,195.525 68.373C191.201 68.373,186.511 73.343,186.174 76.657C186.174 76.909,186.146 77.134,186.146 77.387C186.146 79.409,187.045 81.037,189.291 81.543"/></g></g><g class="vf-stavenote" id="vf-auto19805"><g class="vf-notehead" id="vf-auto19892" pointer-events="bounding-box"><path stroke="none" d="M212.307 126.543C212.587 126.599,212.84 126.627,213.121 126.627C216.996 126.627,222.78 121.348,222.668 117.08C222.556 116.041,222.584 114.609,220.478 113.766C219.888 113.485,219.242 113.373,218.54 113.373C214.216 113.373,209.527 118.343,209.19 121.657C209.19 121.909,209.162 122.134,209.162 122.387C209.162 124.409,210.06 126.037,212.307 126.543"/></g><g class="vf-notehead" id="vf-auto19891" pointer-events="bounding-box"><path stroke="none" d="M212.307 116.543C212.587 116.599,212.84 116.627,213.121 116.627C216.996 116.627,222.78 111.348,222.668 107.08C222.556 106.041,222.584 104.609,220.478 103.766C219.888 103.485,219.242 103.373,218.54 103.373C214.216 103.373,209.527 108.343,209.19 111.657C209.19 111.909,209.162 112.134,209.162 112.387C209.162 114.409,210.06 116.037,212.307 116.543"/></g><g class="vf-notehead" id="vf-auto19890" pointer-events="bounding-box"><path stroke="none" d="M212.307 106.543C212.587 106.599,212.84 106.627,213.121 106.627C216.996 106.627,222.78 101.348,222.668 97.08C222.556 96.041,222.584 94.609,220.478 93.766C219.888 93.485,219.242 93.373,218.54 93.373C214.216 93.373,209.527 98.343,209.19 101.657C209.19 101.909,209.162 102.134,209.162 102.387C209.162 104.409,210.06 106.037,212.307 106.543"/></g></g><g class="vf-stavenote" id="vf-auto19815"><g class="vf-notehead" id="vf-auto19894" pointer-events="bounding-box"><path stroke="none" d="M232.237 91.543C232.518 91.599,232.771 91.627,233.051 91.627C236.927 91.627,242.711 86.348,242.599 82.08C242.486 81.041,242.514 79.609,240.408 78.766C239.819 78.485,239.173 78.373,238.471 78.373C234.147 78.373,229.457 83.343,229.12 86.657C229.12 86.909,229.092 87.134,229.092 87.387C229.092 89.409,229.991 91.037,232.237 91.543"/></g></g><g class="vf-stavenote" id="vf-auto19821"><g class="vf-notehead" id="vf-auto19896" pointer-events="bounding-box"><path stroke="none" d="M252.168 96.543C252.448 96.599,252.701 96.627,252.982 96.627C256.857 96.627,262.641 91.348,262.529 87.08C262.417 86.041,262.445 84.609,260.339 83.766C259.749 83.485,259.103 83.373,258.401 83.373C254.077 83.373,249.388 88.343,249.051 91.657C249.051 91.909,249.023 92.134,249.023 92.387C249.023 94.409,249.921 96.037,252.168 96.543"/></g></g><g class="vf-stavenote" id="vf-auto19827"><g class="vf-notehead" id="vf-auto19898" pointer-events="bounding-box"><path stroke="none" d="M275.183 91.543C275.464 91.599,275.717 91.627,275.997 91.627C279.872 91.627,285.657 86.348,285.545 82.08C285.432 81.041,285.46 79.609,283.354 78.766C282.765 78.485,282.119 78.373,281.417 78.373C277.092 78.373,272.403 83.343,272.066 86.657C272.066 86.909,272.038 87.134,272.038 87.387C272.038 89.409,272.937 91.037,275.183 91.543"/></g></g><g class="vf-stavenote" id="vf-auto19833"><g class="vf-notehead" id="vf-auto19900" pointer-events="bounding-box"><path stroke="none" d="M298.198 81.543C298.479 81.599,298.732 81.627,299.013 81.627C302.888 81.627,308.672 76.348,308.56 72.08C308.448 71.041,308.476 69.609,306.37 68.766C305.78 68.485,305.134 68.373,304.432 68.373C300.108 68.373,295.419 73.343,295.082 76.657C295.082 76.909,295.053 77.134,295.053 77.387C295.053 79.409,295.952 81.037,298.198 81.543"/></g></g><g class="vf-stavenote" id="vf-auto19839"><path stroke-width="1.4" fill="none" stroke="#444" d="M315.069 70L334.577 70"/><path stroke-width="1.4" fill="none" stroke="#444" d="M315.069 60L334.577 60"/><path stroke-width="1.4" fill="none" stroke="#444" d="M315.069 50L334.577 50"/><path stroke-width="1.4" fill="none" stroke="#444" d="M315.069 40L334.577 40"/><g class="vf-notehead" id="vf-auto19902" pointer-events="bounding-box"><path stroke="none" d="M321.214 41.543C321.495 41.599,321.747 41.627,322.028 41.627C325.903 41.627,331.688 36.348,331.575 32.08C331.463 31.041,331.491 29.609,329.385 28.766C328.795 28.485,328.15 28.373,327.448 28.373C323.123 28.373,318.434 33.343,318.097 36.657C318.097 36.909,318.069 37.134,318.069 37.387C318.069 39.409,318.967 41.037,321.214 41.543"/></g></g><g class="vf-stavenote" id="vf-auto19845"><path stroke-width="1.4" fill="none" stroke="#444" d="M333.616 70L353.124 70"/><path stroke-width="1.4" fill="none" stroke="#444" d="M333.616 60L353.124 60"/><path stroke-width="1.4" fill="none" stroke="#444" d="M333.616 50L353.124 50"/><path stroke-width="1.4" fill="none" stroke="#444" d="M333.616 40L353.124 40"/><g class="vf-notehead" id="vf-auto19904" pointer-events="bounding-box"><path stroke="none" d="M339.761 41.543C340.041 41.599,340.294 41.627,340.575 41.627C344.45 41.627,350.234 36.348,350.122 32.08C350.01 31.041,350.038 29.609,347.932 28.766C347.342 28.485,346.696 28.373,345.994 28.373C341.67 28.373,336.981 33.343,336.644 36.657C336.644 36.909,336.616 37.134,336.616 37.387C336.616 39.409,337.514 41.037,339.761 41.543"/></g></g><g class="vf-stavenote" id="vf-auto19851"><path stroke-width="1.4" fill="none" stroke="#444" d="M352.162 70L371.671 70"/><path stroke-width="1.4" fill="none" stroke="#444" d="M352.162 60L371.671 60"/><path stroke-width="1.4" fill="none" stroke="#444" d="M352.162 50L371.671 50"/><path stroke-width="1.4" fill="none" stroke="#444" d="M352.162 40L371.671 40"/><g class="vf-notehead" id="vf-auto19906" pointer-events="bounding-box"><path stroke="none" d="M358.307 41.543C358.588 41.599,358.841 41.627,359.122 41.627C362.997 41.627,368.781 36.348,368.669 32.08C368.557 31.041,368.585 29.609,366.479 28.766C365.889 28.485,365.243 28.373,364.541 28.373C360.217 28.373,355.527 33.343,355.19 36.657C355.19 36.909,355.162 37.134,355.162 37.387C355.162 39.409,356.061 41.037,358.307 41.543"/></g></g><g class="vf-stavenote" id="vf-auto19857"><g class="vf-notehead" id="vf-auto19908" pointer-events="bounding-box"><path stroke="none" d="M376.854 116.543C377.135 116.599,377.388 116.627,377.668 116.627C381.544 116.627,387.328 111.348,387.216 107.08C387.103 106.041,387.131 104.609,385.025 103.766C384.436 103.485,383.79 103.373,383.088 103.373C378.764 103.373,374.074 108.343,373.737 111.657C373.737 111.909,373.709 112.134,373.709 112.387C373.709 114.409,374.608 116.037,376.854 116.543"/></g></g><g class="vf-stavenote" id="vf-auto19863"><g class="vf-notehead" id="vf-auto19910" pointer-events="bounding-box"><path stroke="none" d="M394.746 116.543C395.026 116.599,395.279 116.627,395.56 116.627C399.435 116.627,405.219 111.348,405.107 107.08C404.995 106.041,405.023 104.609,402.917 103.766C402.327 103.485,401.681 103.373,400.979 103.373C396.655 103.373,391.966 108.343,391.629 111.657C391.629 111.909,391.601 112.134,391.601 112.387C391.601 114.409,392.499 116.037,394.746 116.543"/></g></g><g class="vf-stem" id="vf-auto19746" pointer-events="bounding-box"><path stroke-width="1.5" fill="none" d="M20.75 97L20.75 154.25"/></g><g class="vf-stem" id="vf-auto19752" pointer-events="bounding-box"><path stroke-width="1.5" fill="none" d="M38.641 97L38.641 154.25"/></g><g class="vf-stem" id="vf-auto19758" pointer-events="bounding-box"><path stroke-width="1.5" fill="none" d="M56.533 97L56.533 154.25"/></g><g class="vf-stem" id="vf-auto19764" pointer-events="bounding-box"><path stroke-width="1.5" fill="none" d="M74.424 97L74.424 154.25"/></g><g class="vf-stem" id="vf-auto19770" pointer-events="bounding-box"><path stroke-width="1.5" fill="none" d="M92.315 97L92.315 154.25"/></g><g class="vf-stem" id="vf-auto19776" pointer-events="bounding-box"><path stroke-width="1.5" fill="none" d="M110.207 97L110.207 154.25"/></g><g class="vf-stem" id="vf-auto19782" pointer-events="bounding-box"><path stroke-width="1.5" fill="none" d="M128.098 97L128.098 154.25"/></g><g class="vf-stem" id="vf-auto19788" pointer-events="bounding-box"><path stroke-width="1.5" fill="none" d="M145.99 97L145.99 154.25"/></g><g class="vf-stem" id="vf-auto19794" pointer-events="bounding-box"><path stroke-width="1.5" fill="none" d="M163.881 72L163.881 154.25"/></g><g class="vf-beam" id="vf-auto19912"><path stroke="none" d="M20 155L20 150L164.131 150L164.131 155Z"/><path stroke="none" d="M20 147.5L20 142.5L146.24 142.5L146.24 147.5Z"/><path stroke="none" d="M20 140L20 135L146.24 135L146.24 140Z"/><path stroke="none" d="M20 132.5L20 127.5L146.24 127.5L146.24 132.5Z"/></g><g class="vf-stem" id="vf-auto19800" pointer-events="bounding-box"><path stroke-width="1.5" fill="none" d="M186.896 77L186.896 154.25"/></g><g class="vf-stem" id="vf-auto19806" pointer-events="bounding-box"><path stroke-width="1.5" fill="none" d="M209.912 102L209.912 154.25"/></g><g class="vf-stem" id="vf-auto19816" pointer-events="bounding-box"><path stroke-width="1.5" fill="none" d="M229.842 87L229.842 154.25"/></g><g class="vf-beam" id="vf-auto19913"><path stroke="none" d="M186.146 155L186.146 150L230.092 150L230.092 155Z"/><path stroke="none" d="M209.162 147.5L209.162 142.5L230.092 142.5L230.092 147.5Z"/></g><g class="vf-stem" id="vf-auto19822" pointer-events="bounding-box"><path stroke-width="1.5" fill="none" d="M249.773 92L249.773 154.25"/></g><g class="vf-stem" id="vf-auto19828" pointer-events="bounding-box"><path stroke-width="1.5" fill="none" d="M272.788 87L272.788 154.25"/></g><g class="vf-beam" id="vf-auto19914"><path stroke="none" d="M249.023 155L249.023 150L273.038 150L273.038 155Z"/></g><g class="vf-stem" id="vf-auto19834" pointer-events="bounding-box"><path stroke-width="1.5" fill="none" d="M295.803 77L295.803 154.25"/></g><g class="vf-stem" id="vf-auto19840" pointer-events="bounding-box"><path stroke-width="1.5" fill="none" d="M318.819 37L318.819 154.25"/></g><g class="vf-stem" id="vf-auto19846" pointer-events="bounding-box"><path stroke-width="1.5" fill="none" d="M337.366 37L337.366 154.25"/></g><g class="vf-stem" id="vf-auto19852" pointer-events="bounding-box"><path stroke-width="1.5" fill="none" d="M355.912 37L355.912 154.25"/></g><g class="vf-stem" id="vf-auto19858" pointer-events="bounding-box"><path stroke-width="1.5" fill="none" d="M374.459 112L374.459 154.25"/></g><g class="vf-stem" id="vf-auto19864" pointer-events="bounding-box"><path stroke-width="1.5" fill="none" d="M392.351 112L392.351 154.25"/></g><g class="vf-beam" id="vf-auto19915"><path stroke="none" d="M295.053 155L295.053 150L392.601 150L392.601 155Z"/><path stroke="none" d="M318.069 147.5L318.069 142.5L392.601 142.5L392.601 147.5Z"/><path stroke="none" d="M318.069 140L318.069 135L392.601 135L392.601 140Z"/><path stroke="none" d="M373.709 132.5L373.709 127.5L392.601 127.5L392.601 132.5Z"/></g></svg>