<svg xmlns="http://www.w3.org/2000/svg" stroke-width="0.3" stroke-dasharray="none" fill="black" stroke="black" font-family="Arial, sans-serif" font-size="10pt" font-weight="normal" font-style="normal" width="400" height="160" viewBox="0 0 400 160" style="width: 400px; height: 160px; border: none;"><g class="vf-stave" id="vf-auto40694" stroke-width="1" fill="#999999" stroke="#999999"><path fill="none" d="M10 50L360 50"/><path fill="none" d="M10 60L360 60"/><path fill="none" d="M10 70L360 70"/><path fill="none" d="M10 80L360 80"/><path fill="none" d="M10 90L360 90"/></g><g class="vf-stavebarline" id="vf-auto40695"><rect x="10" y="49.5" width="1" height="41" stroke="none"/></g><g class="vf-stavebarline" id="vf-auto40696"><rect x="360" y="49.5" width="1" height="41" stroke="none"/></g><g class="vf-clef" id="vf-auto40697"><path stroke="none" d="M23.693 101.402C23.87 101.402,24.048 101.377,24.276 101.301C24.707 101.148,25.062 100.92,25.366 100.591C28.382 97.423,29.623 93.596,29.75 89.313C29.75 88.983,29.776 88.451,29.776 88.451C29.776 88.451,30.282 88.147,30.511 88.071C31.727 87.488,32.893 86.829,33.932 85.993C36.72 83.762,38.316 80.747,39.051 77.376C39.204 76.844,39.229 76.286,39.229 75.779C39.229 73.473,37.962 71.8,35.047 71.268C34.312 71.116,33.577 71.04,32.842 71.04C31.017 71.04,29.269 71.521,27.621 72.484C27.419 72.611,27.19 72.763,27.19 72.763L26.253 69.215C26.202 69.038,26.202 68.708,26.202 68.708C26.202 68.708,29.928 62.093,30.434 58.697C30.612 57.709,30.688 56.72,30.688 55.757C30.688 54.972,30.663 54.237,30.536 53.527C30.181 50.891,29.193 48.408,28.534 45.848C28.356 45.088,28.103 44.175,27.216 44.175C26.557 44.175,26.101 44.809,25.695 45.341C23.82 47.926,22.907 50.891,22.73 54.059C22.705 54.566,22.705 55.098,22.705 55.605C22.705 58.545,23.186 61.51,23.566 64.425C23.566 64.653,23.642 64.881,23.693 65.059C22.046 67.39,20.221 69.57,18.65 71.978C17.56 73.701,16.343 75.424,15.583 77.35C15.177 78.288,15 79.403,15 80.493C15 82.749,15.76 85.055,17.078 86.322C17.839 87.057,19.055 87.868,20.246 88.299C21.944 88.907,23.617 89.313,25.391 89.313C25.923 89.313,26.455 89.287,27.013 89.211L27.444 89.135C27.444 89.135,27.469 89.465,27.444 89.642C27.038 91.847,26.506 94.001,25.188 95.826C24.479 96.764,23.82 97.828,22.451 97.93C22.046 97.98,21.868 98.234,21.868 98.563C21.868 98.69,21.894 98.817,21.944 98.944C22.147 99.501,22.4 100.084,22.654 100.642C22.882 101.148,23.237 101.402,23.693 101.402M25.138 62.828C24.859 61.08,24.681 59.356,24.681 57.633C24.681 54.465,25.34 51.373,27.19 48.408C27.621 49.751,27.849 51.119,27.849 52.488C27.849 53.198,27.773 53.933,27.672 54.642C27.19 57.506,26.532 60.269,25.138 62.828M21.387 84.421C20.88 84.396,20.449 84.219,19.967 84.067C19.004 83.737,18.219 83.382,17.965 82.749C17.839 82.47,17.813 82.14,17.813 81.811C17.813 81.406,17.889 80.975,17.965 80.518C17.991 80.316,18.219 79.682,18.295 79.581C19.714 77.046,21.412 74.765,23.211 72.459L24.732 70.457L25.011 71.268C25.29 72.18,25.543 73.625,25.543 73.625C25.543 73.625,24.529 74.943,23.87 75.602C22.046 77.376,21.159 79.606,21.159 82.064C21.159 82.673,21.235 83.306,21.361 83.965C21.387 84.092,21.387 84.219,21.387 84.421M29.269 83.306C28.99 80.924,28.432 79.023,27.925 76.742C27.875 76.463,27.875 76.286,28.001 76.134C28.939 75.957,29.852 75.881,30.815 75.881C31.727 75.881,32.589 75.957,33.501 76.134C34.591 76.362,35.681 76.539,36.542 77.426C36.593 77.503,36.669 77.579,36.745 77.604C35.301 80.518,33.146 82.723,30.08 84.067L29.421 84.32M25.391 85.055C24.124 85.055,22.882 84.726,22.882 84.726C22.882 84.726,22.781 84.219,22.781 83.484C22.781 83.002,22.806 82.419,22.958 81.836C23.313 80.088,24.555 78.846,25.873 77.68C25.974 77.579,26.101 77.503,26.177 77.503C26.303 77.503,26.354 77.655,26.379 77.908C26.709 80.062,27.266 82.166,27.419 84.32C27.444 84.548,27.419 84.878,27.419 84.878C27.419 84.878,26.455 85.131,25.391 85.055"/></g><g class="vf-timesignature" id="vf-auto40698"><path stroke="none" d="M63.86 71.151C64.081 71.215,64.271 71.025,64.382 70.835C64.683 70.454,64.715 69.995,64.794 69.536C65.048 67.366,65 65.18,65.079 63.01L65.079 62.788C65.887 62.629,66.632 62.344,67.392 62.012C68.501 61.489,68.691 61.204,68.675 60C68.675 59.43,68.548 59.176,68.263 59.16C68.121 59.16,67.915 59.224,67.661 59.366L67.503 59.43C66.727 59.778,65.935 60.048,65.111 60.206C65.111 59.208,65.063 58.194,65.016 57.196C64.968 56.357,64.953 55.486,64.873 54.646C64.858 54.456,64.873 54.092,64.588 54.092C64.303 54.092,64.113 54.282,64.081 54.614C64.066 55.026,63.939 55.438,63.97 55.85C63.986 57.355,64.034 58.86,64.034 60.348C63.765 60.364,63.495 60.364,63.242 60.348C61.848 60.253,60.486 60.016,59.06 60.048C58.569 60.048,58.062 60.063,57.555 60.143C58.062 59.176,58.474 58.289,58.997 57.418C60.201 55.438,61.499 53.474,62.355 51.256C62.561 50.734,62.719 50.211,62.719 49.672C62.719 49.514,62.687 49.356,62.672 49.181C62.64 49.055,62.64 48.801,62.466 48.801C62.276 48.785,62.054 48.849,61.943 49.023C61.864 49.165,61.785 49.276,61.737 49.419C61.42 50.448,60.85 51.336,60.311 52.238C59.662 53.363,58.902 54.44,58.236 55.549C57.302 57.133,56.526 58.764,55.385 60.206C55.021 60.665,54.688 61.14,54.688 61.711C54.688 61.917,54.736 62.123,54.815 62.328C54.91 62.534,55.021 62.74,55.021 62.946C55.053 63.279,55.116 63.406,55.306 63.421C55.385 63.421,55.528 63.374,55.686 63.279C56.7 62.851,57.714 62.629,58.791 62.629C60.201 62.629,61.626 62.851,63.036 62.946C63.194 62.962,63.353 62.962,63.511 62.994C63.67 62.994,63.828 62.994,63.986 62.946C63.939 64.245,63.923 65.544,63.828 66.843C63.78 67.841,63.67 68.855,63.67 69.9C63.67 70.153,63.67 70.375,63.701 70.613C63.701 70.819,63.67 71.088,63.86 71.151"/><path stroke="none" d="M63.86 91.151C64.081 91.215,64.271 91.025,64.382 90.835C64.683 90.454,64.715 89.995,64.794 89.536C65.048 87.366,65 85.18,65.079 83.01L65.079 82.788C65.887 82.629,66.632 82.344,67.392 82.012C68.501 81.489,68.691 81.204,68.675 80C68.675 79.43,68.548 79.176,68.263 79.16C68.121 79.16,67.915 79.224,67.661 79.366L67.503 79.43C66.727 79.778,65.935 80.048,65.111 80.206C65.111 79.208,65.063 78.194,65.016 77.196C64.968 76.357,64.953 75.486,64.873 74.646C64.858 74.456,64.873 74.092,64.588 74.092C64.303 74.092,64.113 74.282,64.081 74.614C64.066 75.026,63.939 75.438,63.97 75.85C63.986 77.355,64.034 78.86,64.034 80.348C63.765 80.364,63.495 80.364,63.242 80.348C61.848 80.253,60.486 80.016,59.06 80.048C58.569 80.048,58.062 80.063,57.555 80.143C58.062 79.176,58.474 78.289,58.997 77.418C60.201 75.438,61.499 73.474,62.355 71.256C62.561 70.734,62.719 70.211,62.719 69.672C62.719 69.514,62.687 69.356,62.672 69.181C62.64 69.055,62.64 68.801,62.466 68.801C62.276 68.785,62.054 68.849,61.943 69.023C61.864 69.165,61.785 69.276,61.737 69.419C61.42 70.448,60.85 71.336,60.311 72.238C59.662 73.363,58.902 74.44,58.236 75.549C57.302 77.133,56.526 78.764,55.385 80.206C55.021 80.665,54.688 81.14,54.688 81.711C54.688 81.917,54.736 82.123,54.815 82.328C54.91 82.534,55.021 82.74,55.021 82.946C55.053 83.279,55.116 83.406,55.306 83.421C55.385 83.421,55.528 83.374,55.686 83.279C56.7 82.851,57.714 82.629,58.791 82.629C60.201 82.629,61.626 82.851,63.036 82.946C63.194 82.962,63.353 82.962,63.511 82.994C63.67 82.994,63.828 82.994,63.986 82.946C63.939 84.245,63.923 85.544,63.828 86.843C63.78 87.841,63.67 88.855,63.67 89.9C63.67 90.153,63.67 90.375,63.701 90.613C63.701 90.819,63.67 91.088,63.86 91.151"/></g><g class="vf-stavenote" id="vf-auto40702"><g class="vf-notehead" id="vf-auto40705" pointer-events="bounding-box"><path stroke="none" d="M213.009 74.858L213.009 74.802L221.04 74.802C222.107 74.802,223.146 74.072,223.202 73.229C223.202 72.92,223.23 72.583,223.23 72.303C223.23 71.685,223.202 71.123,222.977 70.562C222.781 70,222.5 69.719,221.882 69.523C221.657 69.438,221.461 69.438,221.236 69.438C220.815 69.438,220.45 69.523,220.001 69.523C215.171 69.523,210.369 69.523,205.596 69.466C204.95 69.438,204.388 69.663,203.827 69.803C203.349 69.888,203.265 70.168,203.265 70.477C203.265 70.73,203.293 70.983,203.293 71.207C203.293 71.629,203.097 72.022,203.04 72.359C203.012 74.128,203.209 74.858,205.146 74.858"/></g></g></svg>