<svg xmlns="http://www.w3.org/2000/svg" stroke-width="0.3" stroke-dasharray="none" fill="black" stroke="black" font-family="Arial, sans-serif" font-size="10pt" font-weight="normal" font-style="normal" width="600" height="200" viewBox="0 0 600 200" style="width: 600px; height: 200px; border: none;"><g class="vf-stave" id="vf-auto9876" stroke-width="1" fill="#999999" stroke="#999999"><path fill="none" d="M0 72L590 72"/><path fill="none" d="M0 85L590 85"/><path fill="none" d="M0 98L590 98"/><path fill="none" d="M0 111L590 111"/><path fill="none" d="M0 124L590 124"/><path fill="none" d="M0 137L590 137"/></g><g class="vf-stavebarline" id="vf-auto9877"><rect y="71.5" width="1" height="66" stroke="none"/></g><g class="vf-stavebarline" id="vf-auto9878"><rect x="590" y="71.5" width="1" height="66" stroke="none"/></g><g class="vf-tabnote" id="vf-auto9879" pointer-events="bounding-box"><rect x="18.703" y="95" width="11.422" height="6" fill="#FFF" stroke="none"/><text stroke="none" x="20.703" y="103">6</text><rect x="15" y="108" width="18.828" height="6" fill="#FFF" stroke="none"/><text stroke="none" x="17" y="116">25</text><g class="vf-stem" id="vf-auto9880" pointer-events="bounding-box"><path stroke-width="1.5" fill="none" d="M24.414 63.5L24.414 30.5"/></g></g><g class="vf-tabnote" id="vf-auto9881" pointer-events="bounding-box"><rect x="87.323" y="82" width="18.828" height="6" fill="#FFF" stroke="none"/><text stroke="none" x="89.323" y="90">10</text><rect x="87.323" y="121" width="18.828" height="6" fill="#FFF" stroke="none"/><text stroke="none" x="89.323" y="129">12</text></g><g class="vf-tabnote" id="vf-auto9884" pointer-events="bounding-box"><rect x="141.435" y="69" width="11.422" height="6" fill="#FFF" stroke="none"/><text stroke="none" x="143.435" y="77">6</text><rect x="141.435" y="108" width="11.422" height="6" fill="#FFF" stroke="none"/><text stroke="none" x="143.435" y="116">5</text></g><g class="vf-tabnote" id="vf-auto9887" pointer-events="bounding-box"><rect x="195.547" y="69" width="11.422" height="6" fill="#FFF" stroke="none"/><text stroke="none" x="197.547" y="77">6</text><rect x="195.547" y="108" width="11.422" height="6" fill="#FFF" stroke="none"/><text stroke="none" x="197.547" y="116">5</text></g><g class="vf-tabnote" id="vf-auto9890" pointer-events="bounding-box"><rect x="242.353" y="69" width="11.422" height="6" fill="#FFF" stroke="none"/><text stroke="none" x="244.353" y="77">6</text><rect x="242.353" y="108" width="11.422" height="6" fill="#FFF" stroke="none"/><text stroke="none" x="244.353" y="116">5</text></g><g class="vf-tabnote" id="vf-auto9893" pointer-events="bounding-box"><rect x="285.884" y="69" width="11.422" height="6" fill="#FFF" stroke="none"/><text stroke="none" x="287.884" y="77">6</text><rect x="285.884" y="108" width="11.422" height="6" fill="#FFF" stroke="none"/><text stroke="none" x="287.884" y="116">5</text></g><g class="vf-tabnote" id="vf-auto9896" pointer-events="bounding-box"><rect x="327.866" y="69" width="11.422" height="6" fill="#FFF" stroke="none"/><text stroke="none" x="329.866" y="77">6</text><rect x="327.866" y="108" width="11.422" height="6" fill="#FFF" stroke="none"/><text stroke="none" x="329.866" y="116">5</text></g><g class="vf-tabnote" id="vf-auto9899" pointer-events="bounding-box"><rect x="369.093" y="95" width="11.422" height="6" fill="#FFF" stroke="none"/><text stroke="none" x="371.093" y="103">6</text><g class="vf-stem" id="vf-auto9900" pointer-events="bounding-box"><path stroke-width="1.5" fill="none" d="M374.804 63.5L374.804 30.5"/></g><path stroke="none" d="M383.685 62.455C383.685 62.455,384.724 58.608,384.724 55.435C384.724 50.381,382.618 45.635,380.091 41.592C378.013 38.39,376.328 34.909,375.682 31.034C375.542 30.388,375.233 30.135,374.812 30.135C374.391 30.135,374.054 30.247,374.054 30.753L374.054 40.412C376.721 40.89,380.568 46.393,382.028 49.819C382.618 51.195,382.983 53.498,382.983 55.884C382.983 57.71,382.702 59.619,382.028 61.444C381.944 61.669,381.888 61.865,381.888 62.034C381.888 62.68,382.309 63.045,382.534 63.213C382.787 63.382,383.489 63.129,383.685 62.455"/></g><g class="vf-tabnote" id="vf-auto9902" pointer-events="bounding-box"><rect x="423.205" y="95" width="11.422" height="6" fill="#FFF" stroke="none"/><text stroke="none" x="425.205" y="103">6</text></g><g class="vf-tabnote" id="vf-auto9905" pointer-events="bounding-box"><rect x="472.329" y="95" width="11.422" height="6" fill="#FFF" stroke="none"/><text stroke="none" x="474.329" y="103">6</text></g><g class="vf-tabnote" id="vf-auto9908" pointer-events="bounding-box"><rect x="521.454" y="95" width="11.422" height="6" fill="#FFF" stroke="none"/><text stroke="none" x="523.454" y="103">6</text></g><g class="vf-stem" id="vf-auto9882" pointer-events="bounding-box"><path stroke-width="1.5" fill="none" d="M96.737 63.5L96.737 31.25"/></g><g class="vf-stem" id="vf-auto9885" pointer-events="bounding-box"><path stroke-width="1.5" fill="none" d="M147.146 63.5L147.146 31.25"/></g><g class="vf-stem" id="vf-auto9888" pointer-events="bounding-box"><path stroke-width="1.5" fill="none" d="M201.258 63.5L201.258 31.25"/></g><g class="vf-stem" id="vf-auto9891" pointer-events="bounding-box"><path stroke-width="1.5" fill="none" d="M248.064 63.5L248.064 31.25"/></g><g class="vf-stem" id="vf-auto9894" pointer-events="bounding-box"><path stroke-width="1.5" fill="none" d="M291.595 63.5L291.595 31.25"/></g><g class="vf-stem" id="vf-auto9897" pointer-events="bounding-box"><path stroke-width="1.5" fill="none" d="M333.577 63.5L333.577 31.25"/></g><g class="vf-beam" id="vf-auto9911"><path stroke="none" d="M95.987 30.5L95.987 35.5L333.827 35.5L333.827 30.5Z"/><path stroke="none" d="M200.508 38L200.508 43L333.827 43L333.827 38Z"/><path stroke="none" d="M247.314 45.5L247.314 50.5L333.827 50.5L333.827 45.5Z"/><path stroke="none" d="M290.845 53L290.845 58L333.827 58L333.827 53Z"/><path stroke="none" d="M332.827 60.5L332.827 65.5L323.827 65.5L323.827 60.5Z"/></g><g class="vf-stem" id="vf-auto9903" pointer-events="bounding-box"><path stroke-width="1.5" fill="none" d="M428.916 63.5L428.916 31.25"/></g><g class="vf-stem" id="vf-auto9906" pointer-events="bounding-box"><path stroke-width="1.5" fill="none" d="M478.04 63.5L478.04 31.25"/></g><g class="vf-stem" id="vf-auto9909" pointer-events="bounding-box"><path stroke-width="1.5" fill="none" d="M527.165 63.5L527.165 31.25"/></g><g class="vf-beam" id="vf-auto9912"><path stroke="none" d="M428.166 30.5L428.166 35.5L527.415 35.5L527.415 30.5Z"/></g><path stroke="none" d="M470.418 14.178C470.386 14.178,470.37 14.178,470.323 14.178L470.164 14.147C470.132 14.147,470.101 14.147,470.069 14.147C468.105 14.147,466.141 15.461,466.141 16.665C466.141 17.41,466.584 18.424,467.994 18.503L468.105 18.503C469.119 18.503,469.61 17.774,469.61 17.03L469.61 16.84C469.546 16,468.976 15.953,468.865 15.905C468.754 15.857,468.406 15.905,468.406 15.588L468.406 15.493C468.453 15.113,469.166 14.923,469.356 14.923C471.305 14.923,471.479 16.143,471.479 16.681L471.479 16.84C471.479 18.534,470.132 19.2,468.707 19.263C468.469 19.279,468.152 19.406,468.152 19.643C468.152 19.928,468.548 19.928,468.723 19.928C471.352 19.928,471.558 21.702,471.558 22.003C471.558 24.411,470.323 24.696,469.816 24.696C469.736 24.696,469.641 24.665,469.61 24.665C469.435 24.649,468.992 24.649,468.976 24.3L468.976 24.189C468.976 23.682,469.483 23.35,469.499 22.685C469.499 21.734,468.834 21.037,467.851 21.037C467.772 21.037,467.693 21.037,467.614 21.069C467.218 21.132,466.79 21.354,466.505 21.655C466.125 22.003,466.014 22.542,466.014 23.049C466.062 24.823,467.677 25.52,469.911 25.552L470.117 25.552C472.382 25.552,474.694 24.395,474.694 22.384L474.694 22.225C474.663 21.56,474.488 21.132,474.061 20.625C473.918 20.451,473.744 20.293,473.522 20.15L473.031 19.881L472.287 19.675C472.176 19.643,472.097 19.643,472.049 19.564C472.033 19.517,472.033 19.485,472.033 19.453C472.033 19.358,472.049 19.263,472.128 19.247C472.382 19.168,472.619 19.152,472.825 19.041C473.744 18.598,474.219 18.012,474.219 16.966C474.219 14.86,471.368 14.242,470.418 14.178"/><path stroke="none" d="M479.075 18.74 A1.32 1.32 0 0 0 476.435 18.74 A1.32 1.32 0 0 0 479.075 18.74Z"/><path stroke="none" d="M479.075 23.14 A1.32 1.32 0 0 0 476.435 23.14 A1.32 1.32 0 0 0 479.075 23.14Z"/><path stroke="none" d="M490.874 21.908C490.874 21.639,490.763 21.592,490.605 21.592C490.415 21.592,490.351 21.687,490.304 21.845L490.288 21.861C490.05 22.431,489.876 22.875,489.401 22.875C489.274 22.875,489.163 22.843,489.005 22.795C488.704 22.685,488.546 22.669,488.324 22.542C487.864 22.368,486.787 22.003,485.853 22.003C485.568 22.003,485.267 22.051,485.013 22.13C485.52 21.322,487.453 20.625,487.959 20.499C489.559 20.055,490.985 19.406,490.985 17.505C490.985 15.081,488.625 14.036,486.502 14.036C484.902 14.036,483.493 14.178,482.368 15.477C481.988 15.953,481.734 16.523,481.734 17.141C481.734 17.457,481.798 17.774,481.94 18.123C482.273 18.835,482.986 19.374,483.809 19.374C485.203 19.374,485.409 17.933,485.409 17.362C485.409 16,483.825 15.937,483.825 15.477C483.873 15.161,484.285 14.606,485.631 14.606C487.659 14.606,487.69 16.143,487.69 16.792C487.69 18.883,485.979 20.451,484.332 21.449C483.081 22.257,482.194 23.366,481.798 24.855L481.782 24.918C481.782 25.219,482.035 25.694,482.368 25.694C482.875 25.694,483.144 24.3,484.491 24.3C485.409 24.3,485.742 25.536,487.769 25.536C488.751 25.536,490.51 25.441,490.874 21.908"/></svg>