<svg xmlns="http://www.w3.org/2000/svg" stroke-width="0.3" stroke-dasharray="none" fill="black" stroke="black" font-family="Arial, sans-serif" font-size="10pt" font-weight="normal" font-style="normal" width="1225" height="240" viewBox="0 0 1225 240" style="width: 1225px; height: 240px; border: none;"><g class="vf-stave" id="vf-auto10523" stroke-width="1" fill="#999999" stroke="#999999"><path fill="none" d="M10 50L1210 50"/><path fill="none" d="M10 60L1210 60"/><path fill="none" d="M10 70L1210 70"/><path fill="none" d="M10 80L1210 80"/><path fill="none" d="M10 90L1210 90"/></g><g class="vf-stavebarline" id="vf-auto10524"><rect x="10" y="49.5" width="1" height="41" stroke="none"/></g><g class="vf-stavebarline" id="vf-auto10525"><rect x="1210" y="49.5" width="1" height="41" stroke="none"/></g><g class="vf-clef" id="vf-auto10526"><path stroke="none" d="M20.299 77.788L20.299 62.212C20.299 61.936,20.115 61.706,19.838 61.706L15.461 61.706C15.207 61.706,15 61.936,15 62.212L15 77.788C15 78.064,15.207 78.294,15.461 78.294L19.838 78.294C20.115 78.294,20.299 78.064,20.299 77.788M27.672 62.212C27.672 61.936,27.465 61.706,27.211 61.706L22.834 61.706C22.557 61.706,22.373 61.936,22.373 62.212L22.373 77.788C22.373 78.064,22.557 78.294,22.834 78.294L27.211 78.294C27.465 78.294,27.672 78.064,27.672 77.788"/></g><g class="vf-stavenote" id="vf-auto10527"><g class="vf-notehead" id="vf-auto10530" pointer-events="bounding-box"><path stroke="none" d="M81.295 38.738C81.099 38.738,80.958 38.85,80.958 38.963L80.958 51.037C80.958 51.15,81.099 51.262,81.295 51.262L81.745 51.262C81.941 51.262,82.138 51.15,82.138 51.037L82.138 38.963C82.138 38.85,81.941 38.738,81.745 38.738M79.189 38.738C78.993 38.738,78.824 38.85,78.824 38.963L78.824 51.037C78.824 51.15,78.993 51.262,79.189 51.262L79.639 51.262C79.835 51.262,79.948 51.15,79.948 51.037L79.948 38.963C79.948 38.85,79.835 38.738,79.639 38.738M71.58 39.974C71.495 39.974,71.467 39.946,71.411 39.946C71.299 39.946,71.215 39.974,71.187 40.058L67.985 44.382C67.957 44.438,67.957 44.466,67.957 44.523L67.957 38.963C67.957 38.85,67.789 38.738,67.592 38.738L67.143 38.738C66.946 38.738,66.778 38.85,66.778 38.963L66.778 51.037C66.778 51.15,66.946 51.262,67.143 51.262L67.592 51.262C67.789 51.262,67.957 51.15,67.957 51.037L67.957 44.607L67.985 44.607C67.985 44.663,68.042 44.719,68.098 44.803L75.174 50.026C75.23 50.054,75.314 50.054,75.399 50.054C75.455 50.054,75.539 50.054,75.623 49.97L78.796 45.646L78.796 45.477C78.796 45.365,78.796 45.281,78.712 45.253M65.009 38.738C64.784 38.738,64.672 38.85,64.672 38.963L64.672 51.037C64.672 51.15,64.784 51.262,65.009 51.262L65.486 51.262C65.683 51.262,65.795 51.15,65.795 51.037L65.795 38.963C65.795 38.85,65.683 38.738,65.486 38.738M69.811 43.905C69.754 43.905,69.698 43.793,69.698 43.708C71.018 41.855,71.074 41.855,71.102 41.855C71.102 41.855,71.215 41.883,71.299 41.939L76.915 46.095C76.971 46.095,76.999 46.179,76.999 46.292C75.707 48.117,75.679 48.145,75.623 48.145C75.595 48.145,75.511 48.117,75.427 48.061"/></g></g><g class="vf-stavenote" id="vf-auto10531"><g class="vf-notehead" id="vf-auto10534" pointer-events="bounding-box"><path stroke="none" d="M100.511 45.646C100.539 45.562,100.595 45.534,100.595 45.449C100.595 45.365,100.511 45.253,100.427 45.197L93.322 39.974C93.266 39.946,93.182 39.946,93.098 39.946C93.042 39.946,92.957 39.946,92.901 40.03L89.756 44.354C89.7 44.438,89.672 44.466,89.672 44.523C89.672 44.551,89.756 44.719,89.784 44.803L96.917 50.026C97.001 50.026,97.029 50.054,97.085 50.054C97.197 50.054,97.282 50.026,97.31 49.942M91.525 43.877C91.497 43.821,91.413 43.736,91.413 43.652L92.733 41.883C92.733 41.855,92.789 41.855,92.817 41.855C92.901 41.855,92.957 41.883,92.985 41.883L98.658 46.039C98.742 46.095,98.77 46.179,98.77 46.292C97.478 48.117,97.422 48.117,97.394 48.117C97.31 48.117,97.282 48.061,97.197 48.033"/></g></g><g class="vf-stavenote" id="vf-auto10535"><g class="vf-stem" id="vf-auto10536" pointer-events="bounding-box"><path stroke-width="1.5" fill="none" d="M115.422 45L115.422 80"/></g><g class="vf-notehead" id="vf-auto10538" pointer-events="bounding-box"><path stroke="none" d="M124.753 45.197C124.781 45.168,124.809 45.084,124.809 45C124.809 44.916,124.781 44.888,124.753 44.803L119.979 40.03C119.895 39.974,119.811 39.946,119.726 39.946C119.698 39.946,119.614 39.974,119.558 40.03L114.784 44.803C114.7 44.888,114.672 44.916,114.672 45C114.672 45.084,114.7 45.168,114.784 45.197L119.558 49.97C119.614 50.054,119.698 50.054,119.726 50.054C119.811 50.054,119.895 50.054,119.979 49.97M122.141 44.27C122.141 45.337,119.614 46.994,118.547 46.994C118.07 46.994,117.705 46.769,117.368 46.404C117.171 46.207,117.143 45.899,117.143 45.674C117.143 44.635,119.642 42.95,120.709 42.95C121.355 42.95,122.141 43.596,122.141 44.27"/></g></g><g class="vf-stavenote" id="vf-auto10539"><g class="vf-stem" id="vf-auto10540" pointer-events="bounding-box"><path stroke-width="1.5" fill="none" d="M140.422 45L140.422 80"/></g><g class="vf-notehead" id="vf-auto10542" pointer-events="bounding-box"><path stroke="none" d="M149.697 45.168C149.753 45.112,149.781 45.028,149.781 44.972C149.781 44.888,149.753 44.803,149.697 44.747L144.979 40.03C144.923 39.974,144.839 39.946,144.726 39.946C144.642 39.946,144.53 39.974,144.474 40.03L139.756 44.747C139.672 44.832,139.672 44.888,139.672 44.972C139.672 45.028,139.7 45.112,139.784 45.197L144.53 49.97C144.614 50.054,144.642 50.054,144.726 50.054C144.754 50.054,144.839 50.054,144.923 49.97"/></g></g><g class="vf-stavenote" id="vf-auto10543"><g class="vf-notehead" id="vf-auto10546" pointer-events="bounding-box"><path stroke="none" d="M176.185 74.015L171.383 70L176.185 65.956C176.325 65.872,176.409 65.676,176.409 65.507C176.409 65.198,176.129 64.946,175.876 64.946C175.792 64.946,175.679 64.974,175.595 65.03L170.485 69.27L165.486 65.03C165.402 64.974,165.29 64.946,165.149 64.946C164.869 64.946,164.672 65.226,164.672 65.479C164.672 65.62,164.756 65.844,164.869 65.956L169.698 70L164.869 74.015C164.7 74.128,164.672 74.296,164.672 74.437C164.672 74.774,164.869 75.054,165.206 75.054C165.318 75.054,165.402 75.026,165.486 74.942L170.485 70.674L175.595 74.942C175.679 75.026,175.792 75.054,175.876 75.054C176.185 75.054,176.409 74.717,176.409 74.493C176.409 74.296,176.325 74.128,176.185 74.015"/></g></g><g class="vf-stavenote" id="vf-auto10547"><g class="vf-notehead" id="vf-auto10550" pointer-events="bounding-box"><path stroke="none" d="M190.879 39.019C190.879 38.907,190.767 38.738,190.514 38.738L190.037 38.738C189.84 38.738,189.672 38.907,189.672 39.019L189.672 51.037C189.672 51.15,189.84 51.262,190.037 51.262L190.514 51.262C190.767 51.262,190.879 51.15,190.879 51.037M209.44 39.019C209.44 38.907,209.272 38.738,209.131 38.738L208.542 38.738C208.401 38.738,208.205 38.907,208.205 39.019L208.205 40.423C208.064 40.142,207.784 39.946,207.475 39.946L203.852 39.946C203.656 39.946,203.431 40.03,203.263 40.142L200.707 42.332L198.096 40.142C197.928 40.03,197.731 39.946,197.506 39.946L193.912 39.946C193.631 39.946,193.322 40.142,193.182 40.423L193.182 39.019C193.182 38.907,192.985 38.738,192.817 38.738L192.312 38.738C192.087 38.738,191.975 38.907,191.975 39.019L191.975 51.037C191.975 51.15,192.087 51.262,192.312 51.262L192.817 51.262C192.985 51.262,193.182 51.15,193.182 51.037L193.182 49.577C193.322 49.858,193.603 50.054,193.912 50.054L197.506 50.054C197.731 50.054,197.928 49.97,198.096 49.802L200.707 47.668L203.291 49.802C203.459 49.97,203.656 50.054,203.852 50.054L207.419 50.054C207.784 50.054,208.064 49.858,208.205 49.577L208.205 51.037C208.205 51.15,208.401 51.262,208.542 51.262L209.131 51.262C209.272 51.262,209.44 51.15,209.44 51.037M211.743 39.019C211.743 38.907,211.574 38.738,211.35 38.738L210.872 38.738C210.648 38.738,210.451 38.907,210.451 39.019L210.451 51.037C210.451 51.15,210.648 51.262,210.872 51.262L211.35 51.262C211.574 51.262,211.743 51.15,211.743 51.037M203.909 48.959L200.707 46.264L197.422 48.959L195.485 48.959L199.893 45L195.485 41.041L197.422 41.041L200.707 43.736L203.909 41.041L205.874 41.041L201.466 45L205.874 48.959M208.205 48.707L204.217 45L208.205 41.293M193.182 41.322L197.141 45L193.182 48.678"/></g></g><g class="vf-stavenote" id="vf-auto10551"><g class="vf-notehead" id="vf-auto10554" pointer-events="bounding-box"><path stroke="none" d="M222.31 47.668L224.893 49.802C225.062 49.97,225.258 50.054,225.455 50.054L229.021 50.054C229.498 50.054,229.919 49.605,229.919 49.156C229.919 48.931,229.807 48.678,229.582 48.482L226.241 45L229.582 41.518C229.807 41.322,229.863 41.069,229.863 40.844C229.863 40.395,229.498 39.946,229.077 39.946L225.455 39.946C225.258 39.946,225.062 40.03,224.893 40.198L222.31 42.36L219.698 40.198C219.53 40.03,219.333 39.946,219.109 39.946L215.514 39.946C215.121 39.946,214.672 40.395,214.672 40.844C214.672 41.069,214.784 41.322,215.009 41.518L218.379 45L215.009 48.482C214.784 48.678,214.7 48.931,214.7 49.156C214.7 49.605,215.065 50.054,215.571 50.054L219.109 50.054C219.333 50.054,219.53 49.97,219.698 49.802M225.511 48.959L222.31 46.264L219.081 48.959L217.143 48.959L221.552 45L217.143 41.041L219.081 41.041L222.31 43.736L225.511 41.041L227.476 41.041L223.096 45L227.476 48.959"/></g></g><g class="vf-stavenote" id="vf-auto10555"><g class="vf-stem" id="vf-auto10556" pointer-events="bounding-box"><path stroke-width="1.5" fill="none" d="M240.422 49L240.422 80"/></g><g class="vf-notehead" id="vf-auto10558" pointer-events="bounding-box"><path stroke="none" d="M247.956 39.946C247.731 39.946,247.478 40.03,247.282 40.226L245.541 42.248L242.901 40.198C242.733 40.03,242.592 39.946,242.34 39.946L240.683 39.946C240.206 39.946,239.784 40.395,239.784 40.844C239.784 41.069,239.869 41.293,240.065 41.518L243.603 44.382L239.869 48.566C239.756 48.678,239.672 48.875,239.672 49.156C239.672 49.661,240.065 50.054,240.571 50.054L244.839 50.054C245.091 50.054,245.372 49.97,245.541 49.774L247.282 47.78L249.865 49.802C250.062 49.942,250.258 50.054,250.455 50.054L252.168 50.054C252.617 50.054,253.094 49.577,253.094 49.128C253.094 48.875,252.982 48.678,252.729 48.51L249.247 45.618L252.982 41.434C253.15 41.322,253.178 41.125,253.178 40.844C253.178 40.339,252.813 39.946,252.252 39.946M240.683 40.844L242.34 40.844L246.215 44.073L249.051 40.844L251.185 40.844L247.366 45.168L252.168 49.156L250.455 49.156L246.636 45.983L243.8 49.156L241.666 49.156L245.456 44.888"/></g></g><g class="vf-stavenote" id="vf-auto10559"><g class="vf-stem" id="vf-auto10560" pointer-events="bounding-box"><path stroke-width="1.5" fill="none" d="M265.422 49L265.422 80"/></g><g class="vf-notehead" id="vf-auto10562" pointer-events="bounding-box"><path stroke="none" d="M276.185 49.015L271.383 45L276.185 40.956C276.325 40.872,276.409 40.676,276.409 40.507C276.409 40.198,276.129 39.946,275.876 39.946C275.792 39.946,275.679 39.974,275.595 40.03L270.485 44.27L265.486 40.03C265.402 39.974,265.29 39.946,265.149 39.946C264.869 39.946,264.672 40.226,264.672 40.479C264.672 40.62,264.756 40.844,264.869 40.956L269.698 45L264.869 49.015C264.7 49.128,264.672 49.296,264.672 49.437C264.672 49.774,264.869 50.054,265.206 50.054C265.318 50.054,265.402 50.026,265.486 49.942L270.485 45.674L275.595 49.942C275.679 50.026,275.792 50.054,275.876 50.054C276.185 50.054,276.409 49.717,276.409 49.493C276.409 49.296,276.325 49.128,276.185 49.015"/></g></g><g class="vf-stavenote" id="vf-auto10563"><g class="vf-notehead" id="vf-auto10566" pointer-events="bounding-box"><path stroke="none" d="M301.185 74.015L296.383 70L301.185 65.956C301.325 65.872,301.409 65.676,301.409 65.507C301.409 65.198,301.129 64.946,300.876 64.946C300.792 64.946,300.679 64.974,300.595 65.03L295.485 69.27L290.486 65.03C290.402 64.974,290.29 64.946,290.149 64.946C289.869 64.946,289.672 65.226,289.672 65.479C289.672 65.62,289.756 65.844,289.869 65.956L294.698 70L289.869 74.015C289.7 74.128,289.672 74.296,289.672 74.437C289.672 74.774,289.869 75.054,290.206 75.054C290.318 75.054,290.402 75.026,290.486 74.942L295.485 70.674L300.595 74.942C300.679 75.026,300.792 75.054,300.876 75.054C301.185 75.054,301.409 74.717,301.409 74.493C301.409 74.296,301.325 74.128,301.185 74.015"/></g></g><g class="vf-stavenote" id="vf-auto10567"><g class="vf-notehead" id="vf-auto10570" pointer-events="bounding-box"><path stroke="none" d="M330.846 38.738C330.678 38.738,330.481 38.85,330.481 39.019L330.481 51.037C330.481 51.15,330.678 51.262,330.846 51.262L331.38 51.262C331.576 51.262,331.745 51.15,331.745 51.037L331.745 39.019C331.745 38.85,331.576 38.738,331.38 38.738M328.628 38.738C328.459 38.738,328.263 38.85,328.263 39.019L328.263 51.037C328.263 51.15,328.459 51.262,328.628 51.262L329.161 51.262C329.358 51.262,329.498 51.15,329.498 51.037L329.498 39.019C329.498 38.85,329.358 38.738,329.161 38.738M317.312 38.738C317.087 38.738,316.946 38.85,316.946 39.019L316.946 51.037C316.946 51.15,317.087 51.262,317.312 51.262L317.789 51.262C317.985 51.262,318.154 51.15,318.154 51.037L318.154 39.019C318.154 38.85,317.985 38.738,317.789 38.738M315.037 38.738C314.84 38.738,314.672 38.85,314.672 39.019L314.672 51.037C314.672 51.15,314.84 51.262,315.037 51.262L315.514 51.262C315.711 51.262,315.936 51.15,315.936 51.037L315.936 39.019C315.936 38.85,315.711 38.738,315.514 38.738M323.208 39.946C320.456 39.946,318.238 42.164,318.238 45C318.238 47.78,320.456 50.054,323.208 50.054C326.044 50.054,328.207 47.78,328.207 45C328.207 42.164,326.044 39.946,323.208 39.946M323.236 44.101L320.99 41.855C321.636 41.35,322.394 41.069,323.208 41.069C324.107 41.069,324.893 41.35,325.539 41.855M322.478 44.972L320.091 47.303C320.26 46.657,320.737 45.842,320.737 45C320.737 44.073,320.372 43.596,320.12 42.613M324.051 44.972L326.409 42.641C325.96 43.596,325.595 44.354,325.595 45C325.595 45.842,326.157 46.685,326.409 47.274M323.236 45.758L325.595 48.061C324.893 48.594,324.107 48.875,323.208 48.875C322.366 48.875,321.58 48.594,320.906 48.061"/></g></g><g class="vf-stavenote" id="vf-auto10571"><g class="vf-notehead" id="vf-auto10574" pointer-events="bounding-box"><path stroke="none" d="M344.698 39.946C341.946 39.946,339.672 42.164,339.672 45C339.672 47.78,341.946 50.054,344.698 50.054C347.478 50.054,349.753 47.78,349.753 45C349.753 42.164,347.478 39.946,344.698 39.946M344.726 44.101L342.452 41.855C343.07 41.35,343.884 41.069,344.698 41.069C345.569 41.069,346.355 41.35,347.029 41.855M343.912 44.972L341.581 47.303C341.722 46.657,342.087 45.842,342.087 45C342.087 44.073,341.862 43.596,341.581 42.613M345.541 44.972L347.843 42.641C347.422 43.596,347.226 44.101,347.226 45C347.226 45.73,347.591 46.629,347.843 47.218M344.726 45.758L347.085 48.117C346.383 48.594,345.569 48.875,344.698 48.875C343.828 48.875,343.042 48.594,342.368 48.117"/></g></g><g class="vf-stavenote" id="vf-auto10575"><g class="vf-stem" id="vf-auto10576" pointer-events="bounding-box"><path stroke-width="1.5" fill="none" d="M365.422 45L365.422 80"/></g><g class="vf-notehead" id="vf-auto10578" pointer-events="bounding-box"><path stroke="none" d="M369.698 39.946C366.946 39.946,364.672 42.164,364.672 45C364.672 47.78,366.946 50.054,369.698 50.054C372.478 50.054,374.781 47.78,374.781 45C374.781 42.164,372.478 39.946,369.698 39.946M369.895 43.961L368.35 42.417C368.968 41.939,369.979 41.518,370.85 41.518C371.299 41.518,371.664 41.602,372.029 41.855M370.709 44.803L372.843 42.641C373.096 43.006,373.208 43.371,373.208 43.821C373.208 44.719,372.759 45.73,372.282 46.376M368.744 45.168L366.581 47.303C366.329 46.994,366.244 46.629,366.244 46.179C366.244 45.253,366.694 44.242,367.171 43.54M369.558 45.927L371.13 47.499C370.456 48.033,369.474 48.482,368.603 48.482C368.098 48.482,367.733 48.398,367.368 48.117"/></g></g><g class="vf-stavenote" id="vf-auto10579"><g class="vf-stem" id="vf-auto10580" pointer-events="bounding-box"><path stroke-width="1.5" fill="none" d="M390.422 45L390.422 80"/></g><g class="vf-notehead" id="vf-auto10582" pointer-events="bounding-box"><path stroke="none" d="M394.698 39.946C391.946 39.946,389.672 42.22,389.672 45C389.672 47.78,391.946 50.054,394.698 50.054C397.478 50.054,399.753 47.78,399.753 45C399.753 42.22,397.478 39.946,394.698 39.946M397.001 41.855L394.726 44.158L392.424 41.855C393.07 41.406,393.828 41.125,394.698 41.125C395.569 41.125,396.355 41.406,397.001 41.855M398.573 45C398.573 45.842,398.321 46.657,397.871 47.303L395.541 44.972L397.843 42.641C398.293 43.315,398.573 44.158,398.573 45M390.795 45C390.795 44.101,391.076 43.315,391.61 42.641L393.912 44.972L391.581 47.359C391.048 46.685,390.795 45.842,390.795 45M392.34 48.117L394.726 45.758L397.029 48.117C396.383 48.594,395.569 48.875,394.698 48.875C393.828 48.875,393.042 48.594,392.34 48.117"/></g></g><g class="vf-stavenote" id="vf-auto10583"><g class="vf-notehead" id="vf-auto10586" pointer-events="bounding-box"><path stroke="none" d="M426.185 74.015L421.383 70L426.185 65.956C426.325 65.872,426.409 65.676,426.409 65.507C426.409 65.198,426.129 64.946,425.876 64.946C425.792 64.946,425.679 64.974,425.595 65.03L420.485 69.27L415.486 65.03C415.402 64.974,415.29 64.946,415.149 64.946C414.869 64.946,414.672 65.226,414.672 65.479C414.672 65.62,414.756 65.844,414.869 65.956L419.698 70L414.869 74.015C414.7 74.128,414.672 74.296,414.672 74.437C414.672 74.774,414.869 75.054,415.206 75.054C415.318 75.054,415.402 75.026,415.486 74.942L420.485 70.674L425.595 74.942C425.679 75.026,425.792 75.054,425.876 75.054C426.185 75.054,426.409 74.717,426.409 74.493C426.409 74.296,426.325 74.128,426.185 74.015"/></g></g><g class="vf-stavenote" id="vf-auto10587"><g class="vf-notehead" id="vf-auto10590" pointer-events="bounding-box"><path stroke="none" d="M459.216 39.019C459.216 38.907,459.047 38.738,458.794 38.738L458.261 38.738C458.064 38.738,457.868 38.907,457.868 39.019L457.868 50.981C457.868 51.15,458.064 51.262,458.261 51.262L458.794 51.262C459.047 51.262,459.216 51.15,459.216 50.981M457.054 39.019C457.054 38.907,456.885 38.738,456.66 38.738L456.183 38.738C455.958 38.738,455.762 38.907,455.762 39.019L455.762 49.324L449.697 40.142C449.612 40.03,449.528 39.946,449.388 39.946C449.247 39.946,449.135 40.03,449.051 40.142L443.098 49.324L443.098 39.019C443.098 38.907,442.957 38.738,442.705 38.738L442.227 38.738C442.031 38.738,441.806 38.907,441.806 39.019L441.806 50.981C441.806 51.15,442.031 51.262,442.227 51.262L442.705 51.262C442.957 51.262,443.098 51.15,443.098 50.981L443.098 49.886C443.182 49.97,443.322 50.054,443.435 50.054L455.453 50.054C455.565 50.054,455.678 49.97,455.762 49.886L455.762 50.981C455.762 51.15,455.958 51.262,456.183 51.262L456.66 51.262C456.885 51.262,457.054 51.15,457.054 50.981M440.571 38.738L440.065 38.738C439.869 38.738,439.672 38.907,439.672 39.019L439.672 50.981C439.672 51.15,439.869 51.262,440.065 51.262L440.571 51.262C440.795 51.262,440.964 51.15,440.964 50.981L440.964 39.019C440.964 38.907,440.795 38.738,440.571 38.738M451.69 47.752C451.69 48.117,451.438 48.847,451.072 48.847L447.787 48.847C447.394 48.847,447.113 48.061,447.113 47.696C447.113 45.477,448.517 43.456,449.388 41.995C450.258 43.512,451.69 45.477,451.69 47.752"/></g></g><g class="vf-stavenote" id="vf-auto10591"><g class="vf-notehead" id="vf-auto10594" pointer-events="bounding-box"><path stroke="none" d="M477.168 50.054C477.42 50.054,477.561 49.858,477.561 49.661C477.561 49.577,477.533 49.493,477.533 49.437L471.383 40.142C471.355 40.03,471.215 39.946,471.074 39.946C470.99 39.946,470.822 40.03,470.737 40.142L464.7 49.437C464.7 49.493,464.672 49.577,464.672 49.661C464.672 49.858,464.84 50.054,465.065 50.054M469.446 48.847C469.081 48.847,468.744 48.061,468.744 47.696C468.744 45.477,470.204 43.428,471.074 41.967C471.945 43.456,473.377 45.477,473.377 47.752C473.377 48.117,473.124 48.847,472.759 48.847"/></g></g><g class="vf-stavenote" id="vf-auto10595"><g class="vf-stem" id="vf-auto10596" pointer-events="bounding-box"><path stroke-width="1.5" fill="none" d="M490.422 49L490.422 80"/></g><g class="vf-notehead" id="vf-auto10598" pointer-events="bounding-box"><path stroke="none" d="M495.709 39.946C495.569 39.946,495.4 40.03,495.344 40.142L489.756 49.409C489.7 49.493,489.672 49.577,489.672 49.661C489.672 49.858,489.869 50.054,490.065 50.054L500.792 50.054C501.072 50.054,501.185 49.858,501.185 49.661C501.185 49.577,501.185 49.521,501.157 49.437L496.074 40.142C496.018 40.114,495.85 39.946,495.709 39.946M496.58 48.875L492.901 48.875L496.187 42.866L498.012 46.039"/></g></g><g class="vf-stavenote" id="vf-auto10599"><g class="vf-stem" id="vf-auto10600" pointer-events="bounding-box"><path stroke-width="1.5" fill="none" d="M515.422 49L515.422 80"/></g><g class="vf-notehead" id="vf-auto10602" pointer-events="bounding-box"><path stroke="none" d="M526.522 50.054L520.485 39.946L514.672 50.054"/></g></g><g class="vf-stavenote" id="vf-auto10603"><g class="vf-notehead" id="vf-auto10606" pointer-events="bounding-box"><path stroke="none" d="M551.185 74.015L546.383 70L551.185 65.956C551.325 65.872,551.409 65.676,551.409 65.507C551.409 65.198,551.129 64.946,550.876 64.946C550.792 64.946,550.679 64.974,550.595 65.03L545.485 69.27L540.486 65.03C540.402 64.974,540.29 64.946,540.149 64.946C539.869 64.946,539.672 65.226,539.672 65.479C539.672 65.62,539.756 65.844,539.869 65.956L544.698 70L539.869 74.015C539.7 74.128,539.672 74.296,539.672 74.437C539.672 74.774,539.869 75.054,540.206 75.054C540.318 75.054,540.402 75.026,540.486 74.942L545.485 70.674L550.595 74.942C550.679 75.026,550.792 75.054,550.876 75.054C551.185 75.054,551.409 74.717,551.409 74.493C551.409 74.296,551.325 74.128,551.185 74.015"/></g></g><g class="vf-stavenote" id="vf-auto10607"><g class="vf-notehead" id="vf-auto10610" pointer-events="bounding-box"><path stroke="none" d="M584.216 39.019C584.216 38.85,584.047 38.738,583.794 38.738L583.261 38.738C583.064 38.738,582.868 38.85,582.868 39.019L582.868 50.981C582.868 51.093,583.064 51.262,583.261 51.262L583.794 51.262C584.047 51.262,584.216 51.093,584.216 50.981M582.054 39.019C582.054 38.85,581.885 38.738,581.66 38.738L581.183 38.738C580.958 38.738,580.762 38.85,580.762 39.019L580.762 40.114C580.678 40.03,580.565 39.946,580.453 39.946L568.435 39.946C568.322 39.946,568.182 40.03,568.098 40.114L568.098 39.019C568.098 38.85,567.957 38.738,567.705 38.738L567.227 38.738C567.031 38.738,566.806 38.85,566.806 39.019L566.806 50.981C566.806 51.093,567.031 51.262,567.227 51.262L567.705 51.262C567.957 51.262,568.098 51.093,568.098 50.981L568.098 40.676L574.051 49.858C574.135 49.97,574.247 50.054,574.388 50.054C574.528 50.054,574.612 49.97,574.697 49.858L580.762 40.676L580.762 50.981C580.762 51.093,580.958 51.262,581.183 51.262L581.66 51.262C581.885 51.262,582.054 51.093,582.054 50.981M565.571 51.262C565.795 51.262,565.964 51.093,565.964 50.981L565.964 39.019C565.964 38.85,565.795 38.738,565.571 38.738L565.065 38.738C564.869 38.738,564.672 38.85,564.672 39.019L564.672 50.981C564.672 51.093,564.869 51.262,565.065 51.262M576.69 42.248C576.69 44.523,575.258 46.488,574.388 48.005C573.517 46.544,572.113 44.523,572.113 42.304C572.113 41.939,572.394 41.153,572.787 41.153L576.072 41.153C576.438 41.153,576.69 41.883,576.69 42.248"/></g></g><g class="vf-stavenote" id="vf-auto10611"><g class="vf-notehead" id="vf-auto10614" pointer-events="bounding-box"><path stroke="none" d="M590.065 39.946C589.84 39.946,589.672 40.142,589.672 40.339C589.672 40.423,589.7 40.507,589.7 40.563L595.737 49.858C595.822 49.97,595.99 50.054,596.074 50.054C596.215 50.054,596.355 49.97,596.383 49.858L602.533 40.563C602.533 40.507,602.561 40.423,602.561 40.339C602.561 40.142,602.42 39.946,602.168 39.946M597.759 41.153C598.124 41.153,598.377 41.883,598.377 42.248C598.377 44.523,596.945 46.544,596.074 48.033C595.204 46.572,593.744 44.523,593.744 42.304C593.744 41.939,594.081 41.153,594.446 41.153"/></g></g><g class="vf-stavenote" id="vf-auto10615"><g class="vf-stem" id="vf-auto10616" pointer-events="bounding-box"><path stroke-width="1.5" fill="none" d="M615.422 45L615.422 80"/></g><g class="vf-notehead" id="vf-auto10618" pointer-events="bounding-box"><path stroke="none" d="M620.176 50.054C620.288 50.054,620.456 49.97,620.541 49.858L626.129 40.591C626.157 40.507,626.185 40.423,626.185 40.339C626.185 40.142,625.988 39.946,625.792 39.946L615.065 39.946C614.784 39.946,614.672 40.142,614.672 40.339C614.672 40.423,614.672 40.479,614.7 40.563L619.811 49.858C619.839 49.886,620.007 50.054,620.176 50.054M619.277 41.125L622.956 41.125L619.698 47.134L617.873 43.961"/></g></g><g class="vf-stavenote" id="vf-auto10619"><g class="vf-stem" id="vf-auto10620" pointer-events="bounding-box"><path stroke-width="1.5" fill="none" d="M640.422 45L640.422 80"/></g><g class="vf-notehead" id="vf-auto10622" pointer-events="bounding-box"><path stroke="none" d="M645.485 50.054L651.466 39.946L639.672 39.946"/></g></g><g class="vf-stavenote" id="vf-auto10623"><g class="vf-notehead" id="vf-auto10626" pointer-events="bounding-box"><path stroke="none" d="M676.185 74.015L671.383 70L676.185 65.956C676.325 65.872,676.409 65.676,676.409 65.507C676.409 65.198,676.129 64.946,675.876 64.946C675.792 64.946,675.679 64.974,675.595 65.03L670.485 69.27L665.486 65.03C665.402 64.974,665.29 64.946,665.149 64.946C664.869 64.946,664.672 65.226,664.672 65.479C664.672 65.62,664.756 65.844,664.869 65.956L669.698 70L664.869 74.015C664.7 74.128,664.672 74.296,664.672 74.437C664.672 74.774,664.869 75.054,665.206 75.054C665.318 75.054,665.402 75.026,665.486 74.942L670.485 70.674L675.595 74.942C675.679 75.026,675.792 75.054,675.876 75.054C676.185 75.054,676.409 74.717,676.409 74.493C676.409 74.296,676.325 74.128,676.185 74.015"/></g></g><g class="vf-stavenote" id="vf-auto10627"><g class="vf-notehead" id="vf-auto10630" pointer-events="bounding-box"><path stroke="none" d="M707.025 41.209L709.244 39.216C709.412 39.103,709.44 38.935,709.44 38.766C709.44 38.654,709.412 38.485,709.272 38.373C709.16 38.289,708.991 38.205,708.851 38.205C708.682 38.205,708.598 38.261,708.486 38.317L705.818 40.704C704.582 40.283,703.178 39.946,701.887 39.946C696.58 39.946,693.266 42.248,693.266 45C693.266 46.629,694.165 48.201,696.299 49.156L693.968 51.234C693.828 51.346,693.744 51.515,693.744 51.683C693.744 51.795,693.828 51.964,693.912 52.076C694.052 52.188,694.193 52.245,694.361 52.245C694.474 52.245,694.642 52.188,694.754 52.104L697.591 49.605C698.658 49.858,699.949 50.054,701.466 50.054C708.036 50.054,710.142 47.752,710.142 45C710.142 43.456,708.794 42.08,707.025 41.209M692.873 38.738L692.34 38.738C692.143 38.738,691.975 38.907,691.975 39.047L691.975 51.037C691.975 51.15,692.143 51.262,692.34 51.262L692.873 51.262C693.07 51.262,693.238 51.15,693.238 51.037L693.238 39.047C693.238 38.907,693.07 38.738,692.873 38.738M690.571 38.738L690.037 38.738C689.84 38.738,689.672 38.907,689.672 39.047L689.672 51.037C689.672 51.15,689.84 51.262,690.037 51.262L690.571 51.262C690.767 51.262,690.936 51.15,690.936 51.037L690.936 39.047C690.936 38.907,690.767 38.738,690.571 38.738M713.372 38.738L712.838 38.738C712.67 38.738,712.445 38.907,712.445 39.047L712.445 51.037C712.445 51.15,712.67 51.262,712.838 51.262L713.372 51.262C713.568 51.262,713.765 51.15,713.765 51.037L713.765 39.047C713.765 38.907,713.568 38.738,713.372 38.738M711.097 38.738L710.535 38.738C710.339 38.738,710.17 38.907,710.17 39.047L710.17 51.037C710.17 51.15,710.339 51.262,710.535 51.262L711.097 51.262C711.266 51.262,711.462 51.15,711.462 51.037L711.462 39.047C711.462 38.907,711.266 38.738,711.097 38.738M697.591 43.428C697.591 43.091,697.647 42.782,697.675 42.501C698.124 41.153,699.612 40.956,700.876 40.956C702.055 40.956,703.15 41.518,703.993 42.332L698.854 46.909C698.124 45.983,697.591 44.635,697.591 43.428M705.734 47.022C705.509 48.033,704.948 48.707,703.937 48.959C703.572 49.072,703.178 49.128,702.785 49.128C701.69 49.128,700.595 48.594,699.781 47.92L699.668 47.752L704.751 43.231C705.397 44.158,705.818 45.253,705.818 46.292C705.818 46.544,705.762 46.825,705.734 47.022"/></g></g><g class="vf-stavenote" id="vf-auto10631"><g class="vf-notehead" id="vf-auto10634" pointer-events="bounding-box"><path stroke="none" d="M728.263 41.069C726.774 40.339,724.977 39.946,723.321 39.946C717.985 39.946,714.672 42.22,714.672 44.972C714.672 46.348,715.29 47.668,716.722 48.594L714.054 50.335C713.914 50.448,713.773 50.616,713.773 50.784C713.773 50.897,713.83 51.037,713.914 51.093C714.026 51.262,714.195 51.346,714.335 51.346C714.475 51.346,714.56 51.318,714.672 51.262L717.817 49.212C719.081 49.717,720.765 50.054,722.928 50.054C729.442 50.054,731.576 47.752,731.576 44.972C731.576 43.652,730.678 42.585,729.358 41.687L731.885 40.03C732.054 39.918,732.194 39.749,732.194 39.581C732.194 39.468,732.138 39.384,732.054 39.272C731.941 39.131,731.773 39.019,731.604 39.019C731.492 39.019,731.408 39.047,731.295 39.131M720.007 46.46C719.446 45.562,718.996 44.466,718.996 43.428C718.996 43.091,719.052 42.782,719.165 42.445C719.558 41.125,721.018 40.872,722.282 40.872C723.686 40.872,724.893 41.602,725.792 42.697M726.438 43.596C726.915 44.466,727.196 45.393,727.196 46.348C727.196 48.37,725.96 49.128,724.135 49.128C723.854 49.128,723.489 49.044,723.124 48.959C722.422 48.763,721.776 48.37,721.271 47.92C721.018 47.752,720.85 47.555,720.709 47.359"/></g></g><g class="vf-stavenote" id="vf-auto10635"><g class="vf-stem" id="vf-auto10636" pointer-events="bounding-box"><path stroke-width="1.5" fill="none" d="M740.422 45L740.422 80"/></g><g class="vf-notehead" id="vf-auto10638" pointer-events="bounding-box"><path stroke="none" d="M755.172 38.766C755.088 38.598,754.919 38.542,754.723 38.542C754.639 38.542,754.498 38.542,754.386 38.598L750.595 41.069C749.893 40.395,748.854 39.946,747.562 39.946C741.497 39.946,739.672 44.635,739.672 46.685C739.672 47.19,739.756 47.583,739.869 47.948L737.201 49.689C737.032 49.802,736.976 49.97,736.976 50.167C736.976 50.251,737.004 50.391,737.032 50.448C737.173 50.672,737.313 50.728,737.538 50.728C737.622 50.728,737.734 50.7,737.819 50.672L740.486 48.931C741.216 49.689,742.255 50.054,743.519 50.054C750.174 50.054,751.466 44.635,751.466 43.343C751.466 42.866,751.438 42.417,751.241 41.995L755.004 39.552C755.172 39.468,755.284 39.272,755.284 39.103C755.284 39.019,755.228 38.907,755.172 38.766M748.517 41.63C748.882 41.63,749.163 41.715,749.416 41.855L740.964 47.303C740.879 47.134,740.851 46.938,740.851 46.769C740.851 44.832,746.636 41.63,748.517 41.63M742.705 48.482C742.227 48.482,741.89 48.37,741.61 48.201L750.118 42.726C750.174 42.894,750.23 43.062,750.23 43.231C750.23 45,744.558 48.482,742.705 48.482"/></g></g><g class="vf-stavenote" id="vf-auto10639"><g class="vf-stem" id="vf-auto10640" pointer-events="bounding-box"><path stroke-width="1.5" fill="none" d="M765.422 45L765.422 80"/></g><g class="vf-notehead" id="vf-auto10642" pointer-events="bounding-box"><path stroke="none" d="M779.217 38.261C779.105 38.261,778.993 38.289,778.909 38.373L775.455 40.844C774.753 40.283,773.77 39.946,772.647 39.946C768.238 39.946,764.672 43.231,764.672 46.741C764.672 47.303,764.784 47.78,765.037 48.229L761.667 50.672C761.555 50.728,761.443 50.953,761.443 51.093C761.443 51.234,761.471 51.318,761.555 51.43C761.639 51.599,761.836 51.683,762.004 51.683C762.117 51.683,762.257 51.627,762.313 51.599L765.767 49.156C766.441 49.774,767.452 50.054,768.603 50.054C772.197 50.054,776.606 46.741,776.606 43.343C776.606 42.726,776.466 42.164,776.185 41.715L779.554 39.3C779.723 39.187,779.835 39.019,779.835 38.85C779.835 38.57,779.498 38.261,779.217 38.261"/></g></g><g class="vf-stavenote" id="vf-auto10643"><g class="vf-notehead" id="vf-auto10646" pointer-events="bounding-box"><path stroke="none" d="M801.185 74.015L796.383 70L801.185 65.956C801.325 65.872,801.409 65.676,801.409 65.507C801.409 65.198,801.129 64.946,800.876 64.946C800.792 64.946,800.679 64.974,800.595 65.03L795.485 69.27L790.486 65.03C790.402 64.974,790.29 64.946,790.149 64.946C789.869 64.946,789.672 65.226,789.672 65.479C789.672 65.62,789.756 65.844,789.869 65.956L794.698 70L789.869 74.015C789.7 74.128,789.672 74.296,789.672 74.437C789.672 74.774,789.869 75.054,790.206 75.054C790.318 75.054,790.402 75.026,790.486 74.942L795.485 70.674L800.595 74.942C800.679 75.026,800.792 75.054,800.876 75.054C801.185 75.054,801.409 74.717,801.409 74.493C801.409 74.296,801.325 74.128,801.185 74.015"/></g></g><g class="vf-stavenote" id="vf-auto10647"><g class="vf-notehead" id="vf-auto10650" pointer-events="bounding-box"><path stroke="none" d="M835.142 45C835.142 42.136,830.65 39.946,826.887 39.946C825.174 39.946,823.686 40.226,822.478 40.62L819.839 38.289C819.754 38.205,819.614 38.177,819.446 38.177C819.333 38.177,819.109 38.261,818.996 38.317C818.912 38.457,818.884 38.598,818.884 38.738C818.884 38.907,818.968 39.047,819.052 39.187L821.215 41.125C819.361 41.995,818.266 43.428,818.266 45C818.266 47.64,820.569 50.054,826.466 50.054C828.207 50.054,829.639 49.886,830.818 49.605L833.542 52.076C833.682 52.16,833.794 52.188,833.963 52.188C834.075 52.188,834.272 52.16,834.412 52.048C834.496 51.908,834.525 51.739,834.525 51.627C834.525 51.458,834.496 51.318,834.356 51.178L832.054 49.212C834.328 48.285,835.142 46.741,835.142 45M817.873 38.738L817.34 38.738C817.143 38.738,816.975 38.907,816.975 39.019L816.975 50.981C816.975 51.15,817.143 51.262,817.34 51.262L817.873 51.262C818.07 51.262,818.238 51.15,818.238 50.981L818.238 39.019C818.238 38.907,818.07 38.738,817.873 38.738M815.571 38.738L815.037 38.738C814.84 38.738,814.672 38.907,814.672 39.019L814.672 50.981C814.672 51.15,814.84 51.262,815.037 51.262L815.571 51.262C815.767 51.262,815.936 51.15,815.936 50.981L815.936 39.019C815.936 38.907,815.767 38.738,815.571 38.738M838.372 38.738L837.838 38.738C837.67 38.738,837.445 38.907,837.445 39.019L837.445 50.981C837.445 51.15,837.67 51.262,837.838 51.262L838.372 51.262C838.568 51.262,838.765 51.15,838.765 50.981L838.765 39.019C838.765 38.907,838.568 38.738,838.372 38.738M836.097 38.738L835.535 38.738C835.339 38.738,835.17 38.907,835.17 39.019L835.17 50.981C835.17 51.15,835.339 51.262,835.535 51.262L836.097 51.262C836.266 51.262,836.462 51.15,836.462 50.981L836.462 39.019C836.462 38.907,836.266 38.738,836.097 38.738M823.433 41.518C824.107 41.041,825.034 40.956,825.876 40.956C828.572 40.956,830.818 43.877,830.818 46.292C830.818 46.825,830.678 47.274,830.481 47.752M828.937 48.959C828.572 49.072,828.178 49.128,827.785 49.128C826.69 49.128,825.595 48.594,824.781 47.92C824.5 47.668,824.219 47.303,823.938 47.022C823.208 46.039,822.591 44.719,822.591 43.428C822.591 43.091,822.647 42.782,822.675 42.501C822.731 42.501,823.208 42.894,829.723 48.65"/></g></g><g class="vf-stavenote" id="vf-auto10651"><g class="vf-notehead" id="vf-auto10654" pointer-events="bounding-box"><path stroke="none" d="M854.582 48.594C856.015 47.696,856.576 46.376,856.576 44.972C856.576 42.08,852.055 39.946,848.321 39.946C846.13 39.946,844.277 40.339,842.873 40.956L839.784 38.963C839.7 38.907,839.588 38.907,839.504 38.907C839.307 38.907,839.138 38.963,839.054 39.131C838.998 39.272,838.942 39.384,838.942 39.468C838.942 39.609,839.054 39.833,839.223 39.918L841.778 41.602C840.43 42.445,839.672 43.624,839.672 44.972C839.672 47.64,841.975 50.054,847.928 50.054C850.314 50.054,852.14 49.717,853.459 49.212L856.464 51.15C856.52 51.234,856.66 51.234,856.745 51.234C856.941 51.234,857.11 51.15,857.194 50.981C857.25 50.869,857.306 50.784,857.306 50.672C857.306 50.504,857.194 50.307,857.025 50.223M844.389 41.967C845.007 41.041,846.215 40.872,847.282 40.872C850.034 40.872,852.196 43.877,852.196 46.348C852.196 46.572,852.196 46.769,852.168 47.022M843.996 43.062L851.718 48.061C851.438 48.51,850.96 48.791,850.399 48.959C849.977 49.044,849.528 49.128,849.135 49.128C848.854 49.128,848.489 49.044,848.124 48.959C847.422 48.763,846.776 48.37,846.271 47.92C845.934 47.64,845.653 47.303,845.372 47.022C844.642 46.095,843.996 44.663,843.996 43.371"/></g></g><g class="vf-stavenote" id="vf-auto10655"><g class="vf-stem" id="vf-auto10656" pointer-events="bounding-box"><path stroke-width="1.5" fill="none" d="M865.422 45L865.422 80"/></g><g class="vf-notehead" id="vf-auto10658" pointer-events="bounding-box"><path stroke="none" d="M879.751 49.38L875.427 46.629C876.269 45.253,876.522 43.905,876.522 43.315C876.522 41.237,874.893 39.946,872.562 39.946C870.372 39.946,868.716 40.591,867.508 41.434L862.566 38.289C862.482 38.205,862.369 38.205,862.285 38.205C862.089 38.205,861.92 38.289,861.808 38.457C861.752 38.57,861.724 38.682,861.724 38.766C861.724 38.935,861.808 39.131,862.004 39.216L866.61 42.22C865.206 43.708,864.672 45.562,864.672 46.657C864.672 48.791,866.357 50.054,868.547 50.054C871.636 50.054,873.573 48.875,874.753 47.471L879.161 50.335C879.274 50.391,879.386 50.419,879.47 50.419C879.667 50.419,879.835 50.335,879.919 50.139C880.004 50.054,880.032 49.942,880.032 49.858C880.032 49.661,879.919 49.493,879.751 49.38M874.977 42.417C875.174 42.697,875.258 42.95,875.258 43.231C875.258 43.793,874.809 44.438,873.601 45.393L869.839 42.978C871.636 41.967,872.787 41.602,873.573 41.602C874.332 41.602,874.697 41.939,874.977 42.417M871.636 46.853C869.754 48.033,868.547 48.482,867.705 48.482C866.862 48.482,866.357 48.061,866.076 47.583C865.964 47.359,865.851 47.05,865.851 46.769C865.851 45.983,866.581 45,868.744 43.624L872.675 46.123C872.366 46.376,872.001 46.572,871.636 46.853"/></g></g><g class="vf-stavenote" id="vf-auto10659"><g class="vf-stem" id="vf-auto10660" pointer-events="bounding-box"><path stroke-width="1.5" fill="none" d="M890.422 45L890.422 80"/></g><g class="vf-notehead" id="vf-auto10662" pointer-events="bounding-box"><path stroke="none" d="M904.582 50.616L899.865 47.19C900.96 46.039,901.606 44.719,901.606 43.343C901.606 41.293,899.977 39.946,897.675 39.946C895.569 39.946,893.716 40.676,892.255 41.799L887.398 38.317C887.285 38.261,887.173 38.205,887.032 38.205C886.892 38.205,886.667 38.317,886.555 38.485C886.527 38.57,886.471 38.682,886.471 38.822C886.471 38.963,886.555 39.187,886.724 39.272L891.413 42.613C890.318 43.793,889.672 45.253,889.672 46.741C889.672 48.847,891.413 50.054,893.603 50.054C895.4 50.054,897.394 49.296,898.966 48.033L903.909 51.543C904.021 51.627,904.189 51.627,904.274 51.627C904.47 51.627,904.639 51.543,904.751 51.402C904.835 51.318,904.863 51.178,904.863 51.065C904.863 50.897,904.751 50.7,904.582 50.616"/></g></g><g class="vf-stavenote" id="vf-auto10663"><g class="vf-notehead" id="vf-auto10666" pointer-events="bounding-box"><path stroke="none" d="M926.185 74.015L921.383 70L926.185 65.956C926.325 65.872,926.409 65.676,926.409 65.507C926.409 65.198,926.129 64.946,925.876 64.946C925.792 64.946,925.679 64.974,925.595 65.03L920.485 69.27L915.486 65.03C915.402 64.974,915.29 64.946,915.149 64.946C914.869 64.946,914.672 65.226,914.672 65.479C914.672 65.62,914.756 65.844,914.869 65.956L919.698 70L914.869 74.015C914.7 74.128,914.672 74.296,914.672 74.437C914.672 74.774,914.869 75.054,915.206 75.054C915.318 75.054,915.402 75.026,915.486 74.942L920.485 70.674L925.595 74.942C925.679 75.026,925.792 75.054,925.876 75.054C926.185 75.054,926.409 74.717,926.409 74.493C926.409 74.296,926.325 74.128,926.185 74.015"/></g></g><g class="vf-stavenote" id="vf-auto10667"><g class="vf-notehead" id="vf-auto10670" pointer-events="bounding-box"><path stroke="none" d="M961.294 38.738L960.788 38.738C960.564 38.738,960.367 38.85,960.367 39.019L960.367 43.343C959.609 39.3,956.015 36.379,951.887 36.379C947.562 36.379,944.052 39.468,943.266 43.652L943.266 39.019C943.266 38.85,943.098 38.738,942.901 38.738L942.368 38.738C942.171 38.738,942.031 38.85,942.031 39.019L942.031 51.037C942.031 51.178,942.171 51.262,942.368 51.262L942.901 51.262C943.098 51.262,943.266 51.178,943.266 51.037L943.266 46.572C944.052 50.784,947.591 53.817,951.887 53.817C954.189 53.817,956.38 52.919,958.036 51.262C959.244 50.054,960.058 48.51,960.367 46.853L960.367 51.037C960.367 51.178,960.564 51.262,960.788 51.262L961.294 51.262C961.518 51.262,961.715 51.178,961.715 51.037L961.715 39.019C961.715 38.85,961.518 38.738,961.294 38.738M951.887 37.306C955.284 37.306,958.233 39.552,959.272 42.613C957.671 40.985,954.667 39.946,951.999 39.946C948.658 39.946,946.074 40.844,944.614 42.22C945.765 39.3,948.601 37.306,951.887 37.306M940.571 38.738L940.037 38.738C939.84 38.738,939.672 38.85,939.672 39.019L939.672 51.037C939.672 51.178,939.84 51.262,940.037 51.262L940.571 51.262C940.795 51.262,940.936 51.178,940.936 51.037L940.936 39.019C940.936 38.85,940.795 38.738,940.571 38.738M963.596 38.738L963.119 38.738C962.922 38.738,962.67 38.85,962.67 39.019L962.67 51.037C962.67 51.178,962.922 51.262,963.119 51.262L963.596 51.262C963.849 51.262,964.045 51.178,964.045 51.037L964.045 39.019C964.045 38.85,963.849 38.738,963.596 38.738M955.958 46.292C955.958 47.555,955.453 48.678,954.105 49.015C953.74 49.128,953.347 49.156,952.926 49.156C951.831 49.156,950.764 48.678,949.893 47.948L949.051 47.05C948.293 46.095,947.675 44.719,947.675 43.371C947.675 43.062,947.731 42.782,947.787 42.445C948.236 41.069,949.697 40.928,950.988 40.928C953.74 40.928,955.958 43.821,955.958 46.292M951.887 52.919C948.601 52.919,945.765 50.869,944.614 48.033C945.906 49.24,948.124 50.054,951.606 50.054C955.481 50.054,957.84 49.296,959.075 48.061C957.952 50.897,955.116 52.919,951.887 52.919"/></g></g><g class="vf-stavenote" id="vf-auto10671"><g class="vf-notehead" id="vf-auto10674" pointer-events="bounding-box"><path stroke="none" d="M973.489 36.464C968.603 36.464,964.672 40.395,964.672 45.281C964.672 50.139,968.631 54.098,973.489 54.098C978.347 54.098,982.334 50.139,982.334 45.281C982.334 40.395,978.375 36.464,973.489 36.464M973.489 37.278C977.055 37.278,980.088 39.581,981.183 42.95C979.723 41.153,976.466 39.946,973.686 39.946C970.007 39.946,967.34 40.985,966.02 42.529C967.059 39.412,970.26 37.278,973.489 37.278M975.707 48.959C975.314 49.072,974.893 49.128,974.5 49.128C974.135 49.128,973.798 49.072,973.489 48.959C971.271 48.37,969.361 45.73,969.361 43.456C969.361 43.147,969.389 42.782,969.53 42.445C969.923 41.125,971.383 40.928,972.647 40.928C975.399 40.928,977.561 43.905,977.561 46.348C977.561 47.555,976.971 48.678,975.707 48.959M973.489 53.256C969.923 53.256,966.778 50.813,965.795 47.415C966.946 48.959,969.277 50.054,973.236 50.054C977.701 50.054,980.116 49.015,981.183 47.415C980.228 50.869,977.083 53.256,973.489 53.256"/></g></g><g class="vf-stavenote" id="vf-auto10675"><g class="vf-stem" id="vf-auto10676" pointer-events="bounding-box"><path stroke-width="1.5" fill="none" d="M990.422 45L990.422 80"/></g><g class="vf-notehead" id="vf-auto10678" pointer-events="bounding-box"><path stroke="none" d="M995.625 38.261C991.946 38.261,988.942 41.237,988.942 44.916C988.942 48.566,991.946 51.543,995.625 51.543C999.247 51.543,1002.252 48.566,1002.252 44.916C1002.252 41.237,999.247 38.261,995.625 38.261M995.625 38.822C997.282 38.822,998.77 39.468,999.865 40.507C999.247 40.142,998.433 39.946,997.562 39.946C991.806 39.946,989.84 44.27,989.672 46.46C989.56 45.983,989.504 45.449,989.504 44.916C989.504 41.574,992.255 38.822,995.625 38.822M991.076 47.583C990.964 47.359,990.851 47.05,990.851 46.769C990.851 45.927,991.722 44.803,994.53 43.231C996.495 42.052,997.759 41.63,998.573 41.63C999.332 41.63,999.753 41.995,1000.034 42.501C1000.174 42.726,1000.258 42.978,1000.258 43.259C1000.258 44.073,999.444 45.028,996.636 46.853C994.811 48.061,993.547 48.51,992.705 48.51C991.862 48.51,991.357 48.061,991.076 47.583M995.625 51.037C994.277 51.037,993.042 50.588,992.031 49.802C992.508 50.026,993.042 50.054,993.547 50.054C1000.118 50.054,1001.466 44.803,1001.522 43.428C1001.634 43.877,1001.718 44.382,1001.718 44.916C1001.718 48.285,999.023 51.037,995.625 51.037"/></g></g><g class="vf-stavenote" id="vf-auto10679"><g class="vf-stem" id="vf-auto10680" pointer-events="bounding-box"><path stroke-width="1.5" fill="none" d="M1015.422 45L1015.422 80"/></g><g class="vf-notehead" id="vf-auto10682" pointer-events="bounding-box"><path stroke="none" d="M1020.737 38.261C1016.975 38.261,1013.83 41.322,1013.83 45.084C1013.83 48.847,1016.975 51.908,1020.737 51.908C1024.528 51.908,1027.645 48.847,1027.645 45.084C1027.645 41.322,1024.528 38.261,1020.737 38.261M1020.737 38.822C1022.422 38.822,1023.966 39.468,1025.118 40.507C1024.444 40.114,1023.573 39.946,1022.647 39.946C1018.238 39.946,1014.672 43.175,1014.672 46.657L1014.672 46.853C1014.504 46.264,1014.391 45.674,1014.391 45.084C1014.391 41.63,1017.255 38.822,1020.737 38.822M1020.737 51.346C1018.968 51.346,1017.368 50.616,1016.244 49.437C1016.89 49.802,1017.677 50.054,1018.603 50.054C1022.197 50.054,1026.606 46.685,1026.606 43.315C1026.606 43.006,1026.606 42.782,1026.522 42.529C1026.887 43.315,1027.083 44.186,1027.083 45.084C1027.083 48.51,1024.247 51.346,1020.737 51.346"/></g></g><g class="vf-stavenote" id="vf-auto10683"><g class="vf-notehead" id="vf-auto10686" pointer-events="bounding-box"><path stroke="none" d="M1051.185 74.015L1046.383 70L1051.185 65.956C1051.325 65.872,1051.409 65.676,1051.409 65.507C1051.409 65.198,1051.129 64.946,1050.876 64.946C1050.792 64.946,1050.679 64.974,1050.595 65.03L1045.485 69.27L1040.486 65.03C1040.402 64.974,1040.29 64.946,1040.149 64.946C1039.869 64.946,1039.672 65.226,1039.672 65.479C1039.672 65.62,1039.756 65.844,1039.869 65.956L1044.698 70L1039.869 74.015C1039.7 74.128,1039.672 74.296,1039.672 74.437C1039.672 74.774,1039.869 75.054,1040.206 75.054C1040.318 75.054,1040.402 75.026,1040.486 74.942L1045.485 70.674L1050.595 74.942C1050.679 75.026,1050.792 75.054,1050.876 75.054C1051.185 75.054,1051.409 74.717,1051.409 74.493C1051.409 74.296,1051.325 74.128,1051.185 74.015"/></g></g><g class="vf-stavenote" id="vf-auto10687"><g class="vf-notehead" id="vf-auto10690" pointer-events="bounding-box"><path stroke="none" d="M1080.481 38.907C1080.481 39.609,1079.948 39.946,1079.498 39.946L1066.413 39.946C1066.132 39.946,1065.683 39.609,1065.683 38.963L1065.683 37.475C1065.683 37.194,1065.43 36.997,1065.149 36.997C1064.869 36.997,1064.672 37.194,1064.672 37.475L1064.672 52.16C1064.672 52.413,1064.869 52.694,1065.149 52.694C1065.43 52.694,1065.683 52.413,1065.683 52.16L1065.683 50.981C1065.683 50.532,1066.16 50.054,1066.525 50.054L1079.498 50.054C1080.088 50.054,1080.481 50.504,1080.481 50.869L1080.481 52.16C1080.481 52.413,1080.678 52.694,1080.958 52.694C1081.239 52.694,1081.492 52.413,1081.492 52.16L1081.492 37.475C1081.492 37.194,1081.239 36.997,1080.958 36.997C1080.678 36.997,1080.481 37.194,1080.481 37.475M1065.683 44.354C1065.683 43.456,1066.301 43.006,1067.789 43.006L1078.347 43.006C1079.639 43.006,1080.481 43.512,1080.481 44.158L1080.481 45.618C1080.481 46.488,1079.639 46.909,1078.347 46.909L1067.957 46.909C1066.525 46.909,1065.683 46.376,1065.683 45.618"/></g></g><g class="vf-stavenote" id="vf-auto10691"><g class="vf-notehead" id="vf-auto10694" pointer-events="bounding-box"><path stroke="none" d="M1102.336 50.054L1102.336 39.946L1089.672 39.946L1089.672 50.054M1090.795 48.875L1090.795 41.069L1101.185 41.069L1101.185 48.875"/></g></g><g class="vf-stavenote" id="vf-auto10695"><g class="vf-stem" id="vf-auto10696" pointer-events="bounding-box"><path stroke-width="1.5" fill="none" d="M1115.422 40L1115.422 80"/></g><g class="vf-notehead" id="vf-auto10698" pointer-events="bounding-box"><path stroke="none" d="M1127.336 50.054L1127.336 39.946L1114.672 39.946L1114.672 50.054M1115.795 48.875L1115.795 41.069L1126.185 41.069L1126.185 48.875"/></g></g><g class="vf-stavenote" id="vf-auto10699"><g class="vf-stem" id="vf-auto10700" pointer-events="bounding-box"><path stroke-width="1.5" fill="none" d="M1140.422 45L1140.422 80"/></g><g class="vf-notehead" id="vf-auto10702" pointer-events="bounding-box"><path stroke="none" d="M1152.336 50.054L1152.336 39.946L1139.672 39.946L1139.672 50.054"/></g></g><g class="vf-stavenote" id="vf-auto10703"><g class="vf-notehead" id="vf-auto10706" pointer-events="bounding-box"><path stroke="none" d="M1176.185 74.015L1171.383 70L1176.185 65.956C1176.325 65.872,1176.409 65.676,1176.409 65.507C1176.409 65.198,1176.129 64.946,1175.876 64.946C1175.792 64.946,1175.679 64.974,1175.595 65.03L1170.485 69.27L1165.486 65.03C1165.402 64.974,1165.29 64.946,1165.149 64.946C1164.869 64.946,1164.672 65.226,1164.672 65.479C1164.672 65.62,1164.756 65.844,1164.869 65.956L1169.698 70L1164.869 74.015C1164.7 74.128,1164.672 74.296,1164.672 74.437C1164.672 74.774,1164.869 75.054,1165.206 75.054C1165.318 75.054,1165.402 75.026,1165.486 74.942L1170.485 70.674L1175.595 74.942C1175.679 75.026,1175.792 75.054,1175.876 75.054C1176.185 75.054,1176.409 74.717,1176.409 74.493C1176.409 74.296,1176.325 74.128,1176.185 74.015"/></g></g><g class="vf-stave" id="vf-auto10707" stroke-width="1" fill="#999999" stroke="#999999"><path fill="none" d="M10 170L1210 170"/><path fill="none" d="M10 180L1210 180"/><path fill="none" d="M10 190L1210 190"/><path fill="none" d="M10 200L1210 200"/><path fill="none" d="M10 210L1210 210"/></g><g class="vf-stavebarline" id="vf-auto10708"><rect x="10" y="169.5" width="1" height="41" stroke="none"/></g><g class="vf-stavebarline" id="vf-auto10709"><rect x="1210" y="169.5" width="1" height="41" stroke="none"/></g><g class="vf-clef" id="vf-auto10710"><path stroke="none" d="M20.299 197.788L20.299 182.212C20.299 181.936,20.115 181.706,19.838 181.706L15.461 181.706C15.207 181.706,15 181.936,15 182.212L15 197.788C15 198.064,15.207 198.294,15.461 198.294L19.838 198.294C20.115 198.294,20.299 198.064,20.299 197.788M27.672 182.212C27.672 181.936,27.465 181.706,27.211 181.706L22.834 181.706C22.557 181.706,22.373 181.936,22.373 182.212L22.373 197.788C22.373 198.064,22.557 198.294,22.834 198.294L27.211 198.294C27.465 198.294,27.672 198.064,27.672 197.788"/></g><g class="vf-stavenote" id="vf-auto10711"><g class="vf-notehead" id="vf-auto10714" pointer-events="bounding-box"><path stroke="none" d="M81.295 158.738C81.099 158.738,80.958 158.85,80.958 158.963L80.958 171.037C80.958 171.15,81.099 171.262,81.295 171.262L81.745 171.262C81.941 171.262,82.138 171.15,82.138 171.037L82.138 158.963C82.138 158.85,81.941 158.738,81.745 158.738M79.189 158.738C78.993 158.738,78.824 158.85,78.824 158.963L78.824 171.037C78.824 171.15,78.993 171.262,79.189 171.262L79.639 171.262C79.835 171.262,79.948 171.15,79.948 171.037L79.948 158.963C79.948 158.85,79.835 158.738,79.639 158.738M71.58 159.974C71.495 159.974,71.467 159.946,71.411 159.946C71.299 159.946,71.215 159.974,71.187 160.058L67.985 164.382C67.957 164.438,67.957 164.466,67.957 164.523L67.957 158.963C67.957 158.85,67.789 158.738,67.592 158.738L67.143 158.738C66.946 158.738,66.778 158.85,66.778 158.963L66.778 171.037C66.778 171.15,66.946 171.262,67.143 171.262L67.592 171.262C67.789 171.262,67.957 171.15,67.957 171.037L67.957 164.607L67.985 164.607C67.985 164.663,68.042 164.719,68.098 164.803L75.174 170.026C75.23 170.054,75.314 170.054,75.399 170.054C75.455 170.054,75.539 170.054,75.623 169.97L78.796 165.646L78.796 165.477C78.796 165.365,78.796 165.281,78.712 165.253M65.009 158.738C64.784 158.738,64.672 158.85,64.672 158.963L64.672 171.037C64.672 171.15,64.784 171.262,65.009 171.262L65.486 171.262C65.683 171.262,65.795 171.15,65.795 171.037L65.795 158.963C65.795 158.85,65.683 158.738,65.486 158.738M69.811 163.905C69.754 163.905,69.698 163.793,69.698 163.708C71.018 161.855,71.074 161.855,71.102 161.855C71.102 161.855,71.215 161.883,71.299 161.939L76.915 166.095C76.971 166.095,76.999 166.179,76.999 166.292C75.707 168.117,75.679 168.145,75.623 168.145C75.595 168.145,75.511 168.117,75.427 168.061"/></g></g><g class="vf-stavenote" id="vf-auto10715"><g class="vf-notehead" id="vf-auto10718" pointer-events="bounding-box"><path stroke="none" d="M100.511 165.646C100.539 165.562,100.595 165.534,100.595 165.449C100.595 165.365,100.511 165.253,100.427 165.197L93.322 159.974C93.266 159.946,93.182 159.946,93.098 159.946C93.042 159.946,92.957 159.946,92.901 160.03L89.756 164.354C89.7 164.438,89.672 164.466,89.672 164.523C89.672 164.551,89.756 164.719,89.784 164.803L96.917 170.026C97.001 170.026,97.029 170.054,97.085 170.054C97.197 170.054,97.282 170.026,97.31 169.942M91.525 163.877C91.497 163.821,91.413 163.736,91.413 163.652L92.733 161.883C92.733 161.855,92.789 161.855,92.817 161.855C92.901 161.855,92.957 161.883,92.985 161.883L98.658 166.039C98.742 166.095,98.77 166.179,98.77 166.292C97.478 168.117,97.422 168.117,97.394 168.117C97.31 168.117,97.282 168.061,97.197 168.033"/></g></g><g class="vf-stavenote" id="vf-auto10719"><g class="vf-stem" id="vf-auto10720" pointer-events="bounding-box"><path stroke-width="1.5" fill="none" d="M125.856 165L125.856 130"/></g><g class="vf-notehead" id="vf-auto10722" pointer-events="bounding-box"><path stroke="none" d="M126.55 165.197C126.578 165.168,126.606 165.084,126.606 165C126.606 164.916,126.578 164.888,126.55 164.803L121.776 160.03C121.692 159.974,121.608 159.946,121.524 159.946C121.495 159.946,121.411 159.974,121.355 160.03L116.581 164.803C116.497 164.888,116.469 164.916,116.469 165C116.469 165.084,116.497 165.168,116.581 165.197L121.355 169.97C121.411 170.054,121.495 170.054,121.524 170.054C121.608 170.054,121.692 170.054,121.776 169.97M123.938 164.27C123.938 165.337,121.411 166.994,120.344 166.994C119.867 166.994,119.502 166.769,119.165 166.404C118.968 166.207,118.94 165.899,118.94 165.674C118.94 164.635,121.439 162.95,122.506 162.95C123.152 162.95,123.938 163.596,123.938 164.27"/></g></g><g class="vf-stavenote" id="vf-auto10723"><g class="vf-stem" id="vf-auto10724" pointer-events="bounding-box"><path stroke-width="1.5" fill="none" d="M150.856 165L150.856 130"/></g><g class="vf-notehead" id="vf-auto10726" pointer-events="bounding-box"><path stroke="none" d="M151.522 165.168C151.578 165.112,151.606 165.028,151.606 164.972C151.606 164.888,151.578 164.803,151.522 164.747L146.804 160.03C146.748 159.974,146.664 159.946,146.552 159.946C146.467 159.946,146.355 159.974,146.299 160.03L141.581 164.747C141.497 164.832,141.497 164.888,141.497 164.972C141.497 165.028,141.525 165.112,141.61 165.197L146.355 169.97C146.439 170.054,146.467 170.054,146.552 170.054C146.58 170.054,146.664 170.054,146.748 169.97"/></g></g><g class="vf-stavenote" id="vf-auto10727"><g class="vf-notehead" id="vf-auto10730" pointer-events="bounding-box"><path stroke="none" d="M176.185 194.015L171.383 190L176.185 185.956C176.325 185.872,176.409 185.676,176.409 185.507C176.409 185.198,176.129 184.946,175.876 184.946C175.792 184.946,175.679 184.974,175.595 185.03L170.485 189.27L165.486 185.03C165.402 184.974,165.29 184.946,165.149 184.946C164.869 184.946,164.672 185.226,164.672 185.479C164.672 185.62,164.756 185.844,164.869 185.956L169.698 190L164.869 194.015C164.7 194.128,164.672 194.296,164.672 194.437C164.672 194.774,164.869 195.054,165.206 195.054C165.318 195.054,165.402 195.026,165.486 194.942L170.485 190.674L175.595 194.942C175.679 195.026,175.792 195.054,175.876 195.054C176.185 195.054,176.409 194.717,176.409 194.493C176.409 194.296,176.325 194.128,176.185 194.015"/></g></g><g class="vf-stavenote" id="vf-auto10731"><g class="vf-notehead" id="vf-auto10734" pointer-events="bounding-box"><path stroke="none" d="M190.879 159.019C190.879 158.907,190.767 158.738,190.514 158.738L190.037 158.738C189.84 158.738,189.672 158.907,189.672 159.019L189.672 171.037C189.672 171.15,189.84 171.262,190.037 171.262L190.514 171.262C190.767 171.262,190.879 171.15,190.879 171.037M209.44 159.019C209.44 158.907,209.272 158.738,209.131 158.738L208.542 158.738C208.401 158.738,208.205 158.907,208.205 159.019L208.205 160.423C208.064 160.142,207.784 159.946,207.475 159.946L203.852 159.946C203.656 159.946,203.431 160.03,203.263 160.142L200.707 162.332L198.096 160.142C197.928 160.03,197.731 159.946,197.506 159.946L193.912 159.946C193.631 159.946,193.322 160.142,193.182 160.423L193.182 159.019C193.182 158.907,192.985 158.738,192.817 158.738L192.312 158.738C192.087 158.738,191.975 158.907,191.975 159.019L191.975 171.037C191.975 171.15,192.087 171.262,192.312 171.262L192.817 171.262C192.985 171.262,193.182 171.15,193.182 171.037L193.182 169.577C193.322 169.858,193.603 170.054,193.912 170.054L197.506 170.054C197.731 170.054,197.928 169.97,198.096 169.802L200.707 167.668L203.291 169.802C203.459 169.97,203.656 170.054,203.852 170.054L207.419 170.054C207.784 170.054,208.064 169.858,208.205 169.577L208.205 171.037C208.205 171.15,208.401 171.262,208.542 171.262L209.131 171.262C209.272 171.262,209.44 171.15,209.44 171.037M211.743 159.019C211.743 158.907,211.574 158.738,211.35 158.738L210.872 158.738C210.648 158.738,210.451 158.907,210.451 159.019L210.451 171.037C210.451 171.15,210.648 171.262,210.872 171.262L211.35 171.262C211.574 171.262,211.743 171.15,211.743 171.037M203.909 168.959L200.707 166.264L197.422 168.959L195.485 168.959L199.893 165L195.485 161.041L197.422 161.041L200.707 163.736L203.909 161.041L205.874 161.041L201.466 165L205.874 168.959M208.205 168.707L204.217 165L208.205 161.293M193.182 161.322L197.141 165L193.182 168.678"/></g></g><g class="vf-stavenote" id="vf-auto10735"><g class="vf-notehead" id="vf-auto10738" pointer-events="bounding-box"><path stroke="none" d="M222.31 167.668L224.893 169.802C225.062 169.97,225.258 170.054,225.455 170.054L229.021 170.054C229.498 170.054,229.919 169.605,229.919 169.156C229.919 168.931,229.807 168.678,229.582 168.482L226.241 165L229.582 161.518C229.807 161.322,229.863 161.069,229.863 160.844C229.863 160.395,229.498 159.946,229.077 159.946L225.455 159.946C225.258 159.946,225.062 160.03,224.893 160.198L222.31 162.36L219.698 160.198C219.53 160.03,219.333 159.946,219.109 159.946L215.514 159.946C215.121 159.946,214.672 160.395,214.672 160.844C214.672 161.069,214.784 161.322,215.009 161.518L218.379 165L215.009 168.482C214.784 168.678,214.7 168.931,214.7 169.156C214.7 169.605,215.065 170.054,215.571 170.054L219.109 170.054C219.333 170.054,219.53 169.97,219.698 169.802M225.511 168.959L222.31 166.264L219.081 168.959L217.143 168.959L221.552 165L217.143 161.041L219.081 161.041L222.31 163.736L225.511 161.041L227.476 161.041L223.096 165L227.476 168.959"/></g></g><g class="vf-stavenote" id="vf-auto10739"><g class="vf-stem" id="vf-auto10740" pointer-events="bounding-box"><path stroke-width="1.5" fill="none" d="M250.856 161L250.856 130"/></g><g class="vf-notehead" id="vf-auto10742" pointer-events="bounding-box"><path stroke="none" d="M246.383 159.946C246.158 159.946,245.906 160.03,245.709 160.226L243.968 162.248L241.329 160.198C241.16 160.03,241.02 159.946,240.767 159.946L239.11 159.946C238.633 159.946,238.212 160.395,238.212 160.844C238.212 161.069,238.296 161.293,238.493 161.518L242.031 164.382L238.296 168.566C238.184 168.678,238.1 168.875,238.1 169.156C238.1 169.661,238.493 170.054,238.998 170.054L243.266 170.054C243.519 170.054,243.8 169.97,243.968 169.774L245.709 167.78L248.293 169.802C248.489 169.942,248.686 170.054,248.882 170.054L250.595 170.054C251.044 170.054,251.522 169.577,251.522 169.128C251.522 168.875,251.409 168.678,251.157 168.51L247.675 165.618L251.409 161.434C251.578 161.322,251.606 161.125,251.606 160.844C251.606 160.339,251.241 159.946,250.679 159.946M239.11 160.844L240.767 160.844L244.642 164.073L247.478 160.844L249.612 160.844L245.793 165.168L250.595 169.156L248.882 169.156L245.063 165.983L242.227 169.156L240.093 169.156L243.884 164.888"/></g></g><g class="vf-stavenote" id="vf-auto10743"><g class="vf-stem" id="vf-auto10744" pointer-events="bounding-box"><path stroke-width="1.5" fill="none" d="M275.856 161L275.856 130"/></g><g class="vf-notehead" id="vf-auto10746" pointer-events="bounding-box"><path stroke="none" d="M276.381 169.015L271.58 165L276.381 160.956C276.522 160.872,276.606 160.676,276.606 160.507C276.606 160.198,276.325 159.946,276.072 159.946C275.988 159.946,275.876 159.974,275.792 160.03L270.681 164.27L265.683 160.03C265.599 159.974,265.486 159.946,265.346 159.946C265.065 159.946,264.869 160.226,264.869 160.479C264.869 160.62,264.953 160.844,265.065 160.956L269.895 165L265.065 169.015C264.897 169.128,264.869 169.296,264.869 169.437C264.869 169.774,265.065 170.054,265.402 170.054C265.514 170.054,265.599 170.026,265.683 169.942L270.681 165.674L275.792 169.942C275.876 170.026,275.988 170.054,276.072 170.054C276.381 170.054,276.606 169.717,276.606 169.493C276.606 169.296,276.522 169.128,276.381 169.015"/></g></g><g class="vf-stavenote" id="vf-auto10747"><g class="vf-notehead" id="vf-auto10750" pointer-events="bounding-box"><path stroke="none" d="M301.185 194.015L296.383 190L301.185 185.956C301.325 185.872,301.409 185.676,301.409 185.507C301.409 185.198,301.129 184.946,300.876 184.946C300.792 184.946,300.679 184.974,300.595 185.03L295.485 189.27L290.486 185.03C290.402 184.974,290.29 184.946,290.149 184.946C289.869 184.946,289.672 185.226,289.672 185.479C289.672 185.62,289.756 185.844,289.869 185.956L294.698 190L289.869 194.015C289.7 194.128,289.672 194.296,289.672 194.437C289.672 194.774,289.869 195.054,290.206 195.054C290.318 195.054,290.402 195.026,290.486 194.942L295.485 190.674L300.595 194.942C300.679 195.026,300.792 195.054,300.876 195.054C301.185 195.054,301.409 194.717,301.409 194.493C301.409 194.296,301.325 194.128,301.185 194.015"/></g></g><g class="vf-stavenote" id="vf-auto10751"><g class="vf-notehead" id="vf-auto10754" pointer-events="bounding-box"><path stroke="none" d="M330.846 158.738C330.678 158.738,330.481 158.85,330.481 159.019L330.481 171.037C330.481 171.15,330.678 171.262,330.846 171.262L331.38 171.262C331.576 171.262,331.745 171.15,331.745 171.037L331.745 159.019C331.745 158.85,331.576 158.738,331.38 158.738M328.628 158.738C328.459 158.738,328.263 158.85,328.263 159.019L328.263 171.037C328.263 171.15,328.459 171.262,328.628 171.262L329.161 171.262C329.358 171.262,329.498 171.15,329.498 171.037L329.498 159.019C329.498 158.85,329.358 158.738,329.161 158.738M317.312 158.738C317.087 158.738,316.946 158.85,316.946 159.019L316.946 171.037C316.946 171.15,317.087 171.262,317.312 171.262L317.789 171.262C317.985 171.262,318.154 171.15,318.154 171.037L318.154 159.019C318.154 158.85,317.985 158.738,317.789 158.738M315.037 158.738C314.84 158.738,314.672 158.85,314.672 159.019L314.672 171.037C314.672 171.15,314.84 171.262,315.037 171.262L315.514 171.262C315.711 171.262,315.936 171.15,315.936 171.037L315.936 159.019C315.936 158.85,315.711 158.738,315.514 158.738M323.208 159.946C320.456 159.946,318.238 162.164,318.238 165C318.238 167.78,320.456 170.054,323.208 170.054C326.044 170.054,328.207 167.78,328.207 165C328.207 162.164,326.044 159.946,323.208 159.946M323.236 164.101L320.99 161.855C321.636 161.35,322.394 161.069,323.208 161.069C324.107 161.069,324.893 161.35,325.539 161.855M322.478 164.972L320.091 167.303C320.26 166.657,320.737 165.842,320.737 165C320.737 164.073,320.372 163.596,320.12 162.613M324.051 164.972L326.409 162.641C325.96 163.596,325.595 164.354,325.595 165C325.595 165.842,326.157 166.685,326.409 167.274M323.236 165.758L325.595 168.061C324.893 168.594,324.107 168.875,323.208 168.875C322.366 168.875,321.58 168.594,320.906 168.061"/></g></g><g class="vf-stavenote" id="vf-auto10755"><g class="vf-notehead" id="vf-auto10758" pointer-events="bounding-box"><path stroke="none" d="M344.698 159.946C341.946 159.946,339.672 162.164,339.672 165C339.672 167.78,341.946 170.054,344.698 170.054C347.478 170.054,349.753 167.78,349.753 165C349.753 162.164,347.478 159.946,344.698 159.946M344.726 164.101L342.452 161.855C343.07 161.35,343.884 161.069,344.698 161.069C345.569 161.069,346.355 161.35,347.029 161.855M343.912 164.972L341.581 167.303C341.722 166.657,342.087 165.842,342.087 165C342.087 164.073,341.862 163.596,341.581 162.613M345.541 164.972L347.843 162.641C347.422 163.596,347.226 164.101,347.226 165C347.226 165.73,347.591 166.629,347.843 167.218M344.726 165.758L347.085 168.117C346.383 168.594,345.569 168.875,344.698 168.875C343.828 168.875,343.042 168.594,342.368 168.117"/></g></g><g class="vf-stavenote" id="vf-auto10759"><g class="vf-stem" id="vf-auto10760" pointer-events="bounding-box"><path stroke-width="1.5" fill="none" d="M375.856 165L375.856 130"/></g><g class="vf-notehead" id="vf-auto10762" pointer-events="bounding-box"><path stroke="none" d="M371.524 159.946C368.772 159.946,366.497 162.164,366.497 165C366.497 167.78,368.772 170.054,371.524 170.054C374.303 170.054,376.606 167.78,376.606 165C376.606 162.164,374.303 159.946,371.524 159.946M371.72 163.961L370.176 162.417C370.793 161.939,371.804 161.518,372.675 161.518C373.124 161.518,373.489 161.602,373.854 161.855M372.534 164.803L374.668 162.641C374.921 163.006,375.034 163.371,375.034 163.821C375.034 164.719,374.584 165.73,374.107 166.376M370.569 165.168L368.407 167.303C368.154 166.994,368.07 166.629,368.07 166.179C368.07 165.253,368.519 164.242,368.996 163.54M371.383 165.927L372.956 167.499C372.282 168.033,371.299 168.482,370.428 168.482C369.923 168.482,369.558 168.398,369.193 168.117"/></g></g><g class="vf-stavenote" id="vf-auto10763"><g class="vf-stem" id="vf-auto10764" pointer-events="bounding-box"><path stroke-width="1.5" fill="none" d="M400.856 165L400.856 130"/></g><g class="vf-notehead" id="vf-auto10766" pointer-events="bounding-box"><path stroke="none" d="M396.552 159.946C393.8 159.946,391.525 162.22,391.525 165C391.525 167.78,393.8 170.054,396.552 170.054C399.332 170.054,401.606 167.78,401.606 165C401.606 162.22,399.332 159.946,396.552 159.946M398.854 161.855L396.58 164.158L394.277 161.855C394.923 161.406,395.681 161.125,396.552 161.125C397.422 161.125,398.208 161.406,398.854 161.855M400.427 165C400.427 165.842,400.174 166.657,399.725 167.303L397.394 164.972L399.697 162.641C400.146 163.315,400.427 164.158,400.427 165M392.648 165C392.648 164.101,392.929 163.315,393.463 162.641L395.765 164.972L393.435 167.359C392.901 166.685,392.648 165.842,392.648 165M394.193 168.117L396.58 165.758L398.882 168.117C398.236 168.594,397.422 168.875,396.552 168.875C395.681 168.875,394.895 168.594,394.193 168.117"/></g></g><g class="vf-stavenote" id="vf-auto10767"><g class="vf-notehead" id="vf-auto10770" pointer-events="bounding-box"><path stroke="none" d="M426.185 194.015L421.383 190L426.185 185.956C426.325 185.872,426.409 185.676,426.409 185.507C426.409 185.198,426.129 184.946,425.876 184.946C425.792 184.946,425.679 184.974,425.595 185.03L420.485 189.27L415.486 185.03C415.402 184.974,415.29 184.946,415.149 184.946C414.869 184.946,414.672 185.226,414.672 185.479C414.672 185.62,414.756 185.844,414.869 185.956L419.698 190L414.869 194.015C414.7 194.128,414.672 194.296,414.672 194.437C414.672 194.774,414.869 195.054,415.206 195.054C415.318 195.054,415.402 195.026,415.486 194.942L420.485 190.674L425.595 194.942C425.679 195.026,425.792 195.054,425.876 195.054C426.185 195.054,426.409 194.717,426.409 194.493C426.409 194.296,426.325 194.128,426.185 194.015"/></g></g><g class="vf-stavenote" id="vf-auto10771"><g class="vf-notehead" id="vf-auto10774" pointer-events="bounding-box"><path stroke="none" d="M459.216 159.019C459.216 158.907,459.047 158.738,458.794 158.738L458.261 158.738C458.064 158.738,457.868 158.907,457.868 159.019L457.868 170.981C457.868 171.15,458.064 171.262,458.261 171.262L458.794 171.262C459.047 171.262,459.216 171.15,459.216 170.981M457.054 159.019C457.054 158.907,456.885 158.738,456.66 158.738L456.183 158.738C455.958 158.738,455.762 158.907,455.762 159.019L455.762 169.324L449.697 160.142C449.612 160.03,449.528 159.946,449.388 159.946C449.247 159.946,449.135 160.03,449.051 160.142L443.098 169.324L443.098 159.019C443.098 158.907,442.957 158.738,442.705 158.738L442.227 158.738C442.031 158.738,441.806 158.907,441.806 159.019L441.806 170.981C441.806 171.15,442.031 171.262,442.227 171.262L442.705 171.262C442.957 171.262,443.098 171.15,443.098 170.981L443.098 169.886C443.182 169.97,443.322 170.054,443.435 170.054L455.453 170.054C455.565 170.054,455.678 169.97,455.762 169.886L455.762 170.981C455.762 171.15,455.958 171.262,456.183 171.262L456.66 171.262C456.885 171.262,457.054 171.15,457.054 170.981M440.571 158.738L440.065 158.738C439.869 158.738,439.672 158.907,439.672 159.019L439.672 170.981C439.672 171.15,439.869 171.262,440.065 171.262L440.571 171.262C440.795 171.262,440.964 171.15,440.964 170.981L440.964 159.019C440.964 158.907,440.795 158.738,440.571 158.738M451.69 167.752C451.69 168.117,451.438 168.847,451.072 168.847L447.787 168.847C447.394 168.847,447.113 168.061,447.113 167.696C447.113 165.477,448.517 163.456,449.388 161.995C450.258 163.512,451.69 165.477,451.69 167.752"/></g></g><g class="vf-stavenote" id="vf-auto10775"><g class="vf-notehead" id="vf-auto10778" pointer-events="bounding-box"><path stroke="none" d="M477.168 170.054C477.42 170.054,477.561 169.858,477.561 169.661C477.561 169.577,477.533 169.493,477.533 169.437L471.383 160.142C471.355 160.03,471.215 159.946,471.074 159.946C470.99 159.946,470.822 160.03,470.737 160.142L464.7 169.437C464.7 169.493,464.672 169.577,464.672 169.661C464.672 169.858,464.84 170.054,465.065 170.054M469.446 168.847C469.081 168.847,468.744 168.061,468.744 167.696C468.744 165.477,470.204 163.428,471.074 161.967C471.945 163.456,473.377 165.477,473.377 167.752C473.377 168.117,473.124 168.847,472.759 168.847"/></g></g><g class="vf-stavenote" id="vf-auto10779"><g class="vf-stem" id="vf-auto10780" pointer-events="bounding-box"><path stroke-width="1.5" fill="none" d="M500.856 170L500.856 130"/></g><g class="vf-notehead" id="vf-auto10782" pointer-events="bounding-box"><path stroke="none" d="M496.13 159.946C495.99 159.946,495.822 160.03,495.765 160.142L490.177 169.409C490.121 169.493,490.093 169.577,490.093 169.661C490.093 169.858,490.29 170.054,490.486 170.054L501.213 170.054C501.494 170.054,501.606 169.858,501.606 169.661C501.606 169.577,501.606 169.521,501.578 169.437L496.495 160.142C496.439 160.114,496.271 159.946,496.13 159.946M497.001 168.875L493.322 168.875L496.608 162.866L498.433 166.039"/></g></g><g class="vf-stavenote" id="vf-auto10783"><g class="vf-stem" id="vf-auto10784" pointer-events="bounding-box"><path stroke-width="1.5" fill="none" d="M525.856 170L525.856 130"/></g><g class="vf-notehead" id="vf-auto10786" pointer-events="bounding-box"><path stroke="none" d="M526.606 170.054L520.569 159.946L514.756 170.054"/></g></g><g class="vf-stavenote" id="vf-auto10787"><g class="vf-notehead" id="vf-auto10790" pointer-events="bounding-box"><path stroke="none" d="M551.185 194.015L546.383 190L551.185 185.956C551.325 185.872,551.409 185.676,551.409 185.507C551.409 185.198,551.129 184.946,550.876 184.946C550.792 184.946,550.679 184.974,550.595 185.03L545.485 189.27L540.486 185.03C540.402 184.974,540.29 184.946,540.149 184.946C539.869 184.946,539.672 185.226,539.672 185.479C539.672 185.62,539.756 185.844,539.869 185.956L544.698 190L539.869 194.015C539.7 194.128,539.672 194.296,539.672 194.437C539.672 194.774,539.869 195.054,540.206 195.054C540.318 195.054,540.402 195.026,540.486 194.942L545.485 190.674L550.595 194.942C550.679 195.026,550.792 195.054,550.876 195.054C551.185 195.054,551.409 194.717,551.409 194.493C551.409 194.296,551.325 194.128,551.185 194.015"/></g></g><g class="vf-stavenote" id="vf-auto10791"><g class="vf-notehead" id="vf-auto10794" pointer-events="bounding-box"><path stroke="none" d="M584.216 159.019C584.216 158.85,584.047 158.738,583.794 158.738L583.261 158.738C583.064 158.738,582.868 158.85,582.868 159.019L582.868 170.981C582.868 171.093,583.064 171.262,583.261 171.262L583.794 171.262C584.047 171.262,584.216 171.093,584.216 170.981M582.054 159.019C582.054 158.85,581.885 158.738,581.66 158.738L581.183 158.738C580.958 158.738,580.762 158.85,580.762 159.019L580.762 160.114C580.678 160.03,580.565 159.946,580.453 159.946L568.435 159.946C568.322 159.946,568.182 160.03,568.098 160.114L568.098 159.019C568.098 158.85,567.957 158.738,567.705 158.738L567.227 158.738C567.031 158.738,566.806 158.85,566.806 159.019L566.806 170.981C566.806 171.093,567.031 171.262,567.227 171.262L567.705 171.262C567.957 171.262,568.098 171.093,568.098 170.981L568.098 160.676L574.051 169.858C574.135 169.97,574.247 170.054,574.388 170.054C574.528 170.054,574.612 169.97,574.697 169.858L580.762 160.676L580.762 170.981C580.762 171.093,580.958 171.262,581.183 171.262L581.66 171.262C581.885 171.262,582.054 171.093,582.054 170.981M565.571 171.262C565.795 171.262,565.964 171.093,565.964 170.981L565.964 159.019C565.964 158.85,565.795 158.738,565.571 158.738L565.065 158.738C564.869 158.738,564.672 158.85,564.672 159.019L564.672 170.981C564.672 171.093,564.869 171.262,565.065 171.262M576.69 162.248C576.69 164.523,575.258 166.488,574.388 168.005C573.517 166.544,572.113 164.523,572.113 162.304C572.113 161.939,572.394 161.153,572.787 161.153L576.072 161.153C576.438 161.153,576.69 161.883,576.69 162.248"/></g></g><g class="vf-stavenote" id="vf-auto10795"><g class="vf-notehead" id="vf-auto10798" pointer-events="bounding-box"><path stroke="none" d="M590.065 159.946C589.84 159.946,589.672 160.142,589.672 160.339C589.672 160.423,589.7 160.507,589.7 160.563L595.737 169.858C595.822 169.97,595.99 170.054,596.074 170.054C596.215 170.054,596.355 169.97,596.383 169.858L602.533 160.563C602.533 160.507,602.561 160.423,602.561 160.339C602.561 160.142,602.42 159.946,602.168 159.946M597.759 161.153C598.124 161.153,598.377 161.883,598.377 162.248C598.377 164.523,596.945 166.544,596.074 168.033C595.204 166.572,593.744 164.523,593.744 162.304C593.744 161.939,594.081 161.153,594.446 161.153"/></g></g><g class="vf-stavenote" id="vf-auto10799"><g class="vf-stem" id="vf-auto10800" pointer-events="bounding-box"><path stroke-width="1.5" fill="none" d="M625.856 165L625.856 130"/></g><g class="vf-notehead" id="vf-auto10802" pointer-events="bounding-box"><path stroke="none" d="M620.597 170.054C620.709 170.054,620.878 169.97,620.962 169.858L626.55 160.591C626.578 160.507,626.606 160.423,626.606 160.339C626.606 160.142,626.409 159.946,626.213 159.946L615.486 159.946C615.206 159.946,615.093 160.142,615.093 160.339C615.093 160.423,615.093 160.479,615.121 160.563L620.232 169.858C620.26 169.886,620.428 170.054,620.597 170.054M619.698 161.125L623.377 161.125L620.12 167.134L618.294 163.961"/></g></g><g class="vf-stavenote" id="vf-auto10803"><g class="vf-stem" id="vf-auto10804" pointer-events="bounding-box"><path stroke-width="1.5" fill="none" d="M650.856 165L650.856 130"/></g><g class="vf-notehead" id="vf-auto10806" pointer-events="bounding-box"><path stroke="none" d="M645.625 170.054L651.606 159.946L639.812 159.946"/></g></g><g class="vf-stavenote" id="vf-auto10807"><g class="vf-notehead" id="vf-auto10810" pointer-events="bounding-box"><path stroke="none" d="M676.185 194.015L671.383 190L676.185 185.956C676.325 185.872,676.409 185.676,676.409 185.507C676.409 185.198,676.129 184.946,675.876 184.946C675.792 184.946,675.679 184.974,675.595 185.03L670.485 189.27L665.486 185.03C665.402 184.974,665.29 184.946,665.149 184.946C664.869 184.946,664.672 185.226,664.672 185.479C664.672 185.62,664.756 185.844,664.869 185.956L669.698 190L664.869 194.015C664.7 194.128,664.672 194.296,664.672 194.437C664.672 194.774,664.869 195.054,665.206 195.054C665.318 195.054,665.402 195.026,665.486 194.942L670.485 190.674L675.595 194.942C675.679 195.026,675.792 195.054,675.876 195.054C676.185 195.054,676.409 194.717,676.409 194.493C676.409 194.296,676.325 194.128,676.185 194.015"/></g></g><g class="vf-stavenote" id="vf-auto10811"><g class="vf-notehead" id="vf-auto10814" pointer-events="bounding-box"><path stroke="none" d="M707.025 161.209L709.244 159.216C709.412 159.103,709.44 158.935,709.44 158.766C709.44 158.654,709.412 158.485,709.272 158.373C709.16 158.289,708.991 158.205,708.851 158.205C708.682 158.205,708.598 158.261,708.486 158.317L705.818 160.704C704.582 160.283,703.178 159.946,701.887 159.946C696.58 159.946,693.266 162.248,693.266 165C693.266 166.629,694.165 168.201,696.299 169.156L693.968 171.234C693.828 171.346,693.744 171.515,693.744 171.683C693.744 171.795,693.828 171.964,693.912 172.076C694.052 172.188,694.193 172.245,694.361 172.245C694.474 172.245,694.642 172.188,694.754 172.104L697.591 169.605C698.658 169.858,699.949 170.054,701.466 170.054C708.036 170.054,710.142 167.752,710.142 165C710.142 163.456,708.794 162.08,707.025 161.209M692.873 158.738L692.34 158.738C692.143 158.738,691.975 158.907,691.975 159.047L691.975 171.037C691.975 171.15,692.143 171.262,692.34 171.262L692.873 171.262C693.07 171.262,693.238 171.15,693.238 171.037L693.238 159.047C693.238 158.907,693.07 158.738,692.873 158.738M690.571 158.738L690.037 158.738C689.84 158.738,689.672 158.907,689.672 159.047L689.672 171.037C689.672 171.15,689.84 171.262,690.037 171.262L690.571 171.262C690.767 171.262,690.936 171.15,690.936 171.037L690.936 159.047C690.936 158.907,690.767 158.738,690.571 158.738M713.372 158.738L712.838 158.738C712.67 158.738,712.445 158.907,712.445 159.047L712.445 171.037C712.445 171.15,712.67 171.262,712.838 171.262L713.372 171.262C713.568 171.262,713.765 171.15,713.765 171.037L713.765 159.047C713.765 158.907,713.568 158.738,713.372 158.738M711.097 158.738L710.535 158.738C710.339 158.738,710.17 158.907,710.17 159.047L710.17 171.037C710.17 171.15,710.339 171.262,710.535 171.262L711.097 171.262C711.266 171.262,711.462 171.15,711.462 171.037L711.462 159.047C711.462 158.907,711.266 158.738,711.097 158.738M697.591 163.428C697.591 163.091,697.647 162.782,697.675 162.501C698.124 161.153,699.612 160.956,700.876 160.956C702.055 160.956,703.15 161.518,703.993 162.332L698.854 166.909C698.124 165.983,697.591 164.635,697.591 163.428M705.734 167.022C705.509 168.033,704.948 168.707,703.937 168.959C703.572 169.072,703.178 169.128,702.785 169.128C701.69 169.128,700.595 168.594,699.781 167.92L699.668 167.752L704.751 163.231C705.397 164.158,705.818 165.253,705.818 166.292C705.818 166.544,705.762 166.825,705.734 167.022"/></g></g><g class="vf-stavenote" id="vf-auto10815"><g class="vf-notehead" id="vf-auto10818" pointer-events="bounding-box"><path stroke="none" d="M728.263 161.069C726.774 160.339,724.977 159.946,723.321 159.946C717.985 159.946,714.672 162.22,714.672 164.972C714.672 166.348,715.29 167.668,716.722 168.594L714.054 170.335C713.914 170.448,713.773 170.616,713.773 170.784C713.773 170.897,713.83 171.037,713.914 171.093C714.026 171.262,714.195 171.346,714.335 171.346C714.475 171.346,714.56 171.318,714.672 171.262L717.817 169.212C719.081 169.717,720.765 170.054,722.928 170.054C729.442 170.054,731.576 167.752,731.576 164.972C731.576 163.652,730.678 162.585,729.358 161.687L731.885 160.03C732.054 159.918,732.194 159.749,732.194 159.581C732.194 159.468,732.138 159.384,732.054 159.272C731.941 159.131,731.773 159.019,731.604 159.019C731.492 159.019,731.408 159.047,731.295 159.131M720.007 166.46C719.446 165.562,718.996 164.466,718.996 163.428C718.996 163.091,719.052 162.782,719.165 162.445C719.558 161.125,721.018 160.872,722.282 160.872C723.686 160.872,724.893 161.602,725.792 162.697M726.438 163.596C726.915 164.466,727.196 165.393,727.196 166.348C727.196 168.37,725.96 169.128,724.135 169.128C723.854 169.128,723.489 169.044,723.124 168.959C722.422 168.763,721.776 168.37,721.271 167.92C721.018 167.752,720.85 167.555,720.709 167.359"/></g></g><g class="vf-stavenote" id="vf-auto10819"><g class="vf-stem" id="vf-auto10820" pointer-events="bounding-box"><path stroke-width="1.5" fill="none" d="M750.856 165L750.856 130"/></g><g class="vf-notehead" id="vf-auto10822" pointer-events="bounding-box"><path stroke="none" d="M755.172 158.766C755.088 158.598,754.919 158.542,754.723 158.542C754.639 158.542,754.498 158.542,754.386 158.598L750.595 161.069C749.893 160.395,748.854 159.946,747.562 159.946C741.497 159.946,739.672 164.635,739.672 166.685C739.672 167.19,739.756 167.583,739.869 167.948L737.201 169.689C737.032 169.802,736.976 169.97,736.976 170.167C736.976 170.251,737.004 170.391,737.032 170.448C737.173 170.672,737.313 170.728,737.538 170.728C737.622 170.728,737.734 170.7,737.819 170.672L740.486 168.931C741.216 169.689,742.255 170.054,743.519 170.054C750.174 170.054,751.466 164.635,751.466 163.343C751.466 162.866,751.438 162.417,751.241 161.995L755.004 159.552C755.172 159.468,755.284 159.272,755.284 159.103C755.284 159.019,755.228 158.907,755.172 158.766M748.517 161.63C748.882 161.63,749.163 161.715,749.416 161.855L740.964 167.303C740.879 167.134,740.851 166.938,740.851 166.769C740.851 164.832,746.636 161.63,748.517 161.63M742.705 168.482C742.227 168.482,741.89 168.37,741.61 168.201L750.118 162.726C750.174 162.894,750.23 163.062,750.23 163.231C750.23 165,744.558 168.482,742.705 168.482"/></g></g><g class="vf-stavenote" id="vf-auto10823"><g class="vf-stem" id="vf-auto10824" pointer-events="bounding-box"><path stroke-width="1.5" fill="none" d="M775.856 165L775.856 130"/></g><g class="vf-notehead" id="vf-auto10826" pointer-events="bounding-box"><path stroke="none" d="M779.217 158.261C779.105 158.261,778.993 158.289,778.909 158.373L775.455 160.844C774.753 160.283,773.77 159.946,772.647 159.946C768.238 159.946,764.672 163.231,764.672 166.741C764.672 167.303,764.784 167.78,765.037 168.229L761.667 170.672C761.555 170.728,761.443 170.953,761.443 171.093C761.443 171.234,761.471 171.318,761.555 171.43C761.639 171.599,761.836 171.683,762.004 171.683C762.117 171.683,762.257 171.627,762.313 171.599L765.767 169.156C766.441 169.774,767.452 170.054,768.603 170.054C772.197 170.054,776.606 166.741,776.606 163.343C776.606 162.726,776.466 162.164,776.185 161.715L779.554 159.3C779.723 159.187,779.835 159.019,779.835 158.85C779.835 158.57,779.498 158.261,779.217 158.261"/></g></g><g class="vf-stavenote" id="vf-auto10827"><g class="vf-notehead" id="vf-auto10830" pointer-events="bounding-box"><path stroke="none" d="M801.185 194.015L796.383 190L801.185 185.956C801.325 185.872,801.409 185.676,801.409 185.507C801.409 185.198,801.129 184.946,800.876 184.946C800.792 184.946,800.679 184.974,800.595 185.03L795.485 189.27L790.486 185.03C790.402 184.974,790.29 184.946,790.149 184.946C789.869 184.946,789.672 185.226,789.672 185.479C789.672 185.62,789.756 185.844,789.869 185.956L794.698 190L789.869 194.015C789.7 194.128,789.672 194.296,789.672 194.437C789.672 194.774,789.869 195.054,790.206 195.054C790.318 195.054,790.402 195.026,790.486 194.942L795.485 190.674L800.595 194.942C800.679 195.026,800.792 195.054,800.876 195.054C801.185 195.054,801.409 194.717,801.409 194.493C801.409 194.296,801.325 194.128,801.185 194.015"/></g></g><g class="vf-stavenote" id="vf-auto10831"><g class="vf-notehead" id="vf-auto10834" pointer-events="bounding-box"><path stroke="none" d="M835.142 165C835.142 162.136,830.65 159.946,826.887 159.946C825.174 159.946,823.686 160.226,822.478 160.62L819.839 158.289C819.754 158.205,819.614 158.177,819.446 158.177C819.333 158.177,819.109 158.261,818.996 158.317C818.912 158.457,818.884 158.598,818.884 158.738C818.884 158.907,818.968 159.047,819.052 159.187L821.215 161.125C819.361 161.995,818.266 163.428,818.266 165C818.266 167.64,820.569 170.054,826.466 170.054C828.207 170.054,829.639 169.886,830.818 169.605L833.542 172.076C833.682 172.16,833.794 172.188,833.963 172.188C834.075 172.188,834.272 172.16,834.412 172.048C834.496 171.908,834.525 171.739,834.525 171.627C834.525 171.458,834.496 171.318,834.356 171.178L832.054 169.212C834.328 168.285,835.142 166.741,835.142 165M817.873 158.738L817.34 158.738C817.143 158.738,816.975 158.907,816.975 159.019L816.975 170.981C816.975 171.15,817.143 171.262,817.34 171.262L817.873 171.262C818.07 171.262,818.238 171.15,818.238 170.981L818.238 159.019C818.238 158.907,818.07 158.738,817.873 158.738M815.571 158.738L815.037 158.738C814.84 158.738,814.672 158.907,814.672 159.019L814.672 170.981C814.672 171.15,814.84 171.262,815.037 171.262L815.571 171.262C815.767 171.262,815.936 171.15,815.936 170.981L815.936 159.019C815.936 158.907,815.767 158.738,815.571 158.738M838.372 158.738L837.838 158.738C837.67 158.738,837.445 158.907,837.445 159.019L837.445 170.981C837.445 171.15,837.67 171.262,837.838 171.262L838.372 171.262C838.568 171.262,838.765 171.15,838.765 170.981L838.765 159.019C838.765 158.907,838.568 158.738,838.372 158.738M836.097 158.738L835.535 158.738C835.339 158.738,835.17 158.907,835.17 159.019L835.17 170.981C835.17 171.15,835.339 171.262,835.535 171.262L836.097 171.262C836.266 171.262,836.462 171.15,836.462 170.981L836.462 159.019C836.462 158.907,836.266 158.738,836.097 158.738M823.433 161.518C824.107 161.041,825.034 160.956,825.876 160.956C828.572 160.956,830.818 163.877,830.818 166.292C830.818 166.825,830.678 167.274,830.481 167.752M828.937 168.959C828.572 169.072,828.178 169.128,827.785 169.128C826.69 169.128,825.595 168.594,824.781 167.92C824.5 167.668,824.219 167.303,823.938 167.022C823.208 166.039,822.591 164.719,822.591 163.428C822.591 163.091,822.647 162.782,822.675 162.501C822.731 162.501,823.208 162.894,829.723 168.65"/></g></g><g class="vf-stavenote" id="vf-auto10835"><g class="vf-notehead" id="vf-auto10838" pointer-events="bounding-box"><path stroke="none" d="M854.582 168.594C856.015 167.696,856.576 166.376,856.576 164.972C856.576 162.08,852.055 159.946,848.321 159.946C846.13 159.946,844.277 160.339,842.873 160.956L839.784 158.963C839.7 158.907,839.588 158.907,839.504 158.907C839.307 158.907,839.138 158.963,839.054 159.131C838.998 159.272,838.942 159.384,838.942 159.468C838.942 159.609,839.054 159.833,839.223 159.918L841.778 161.602C840.43 162.445,839.672 163.624,839.672 164.972C839.672 167.64,841.975 170.054,847.928 170.054C850.314 170.054,852.14 169.717,853.459 169.212L856.464 171.15C856.52 171.234,856.66 171.234,856.745 171.234C856.941 171.234,857.11 171.15,857.194 170.981C857.25 170.869,857.306 170.784,857.306 170.672C857.306 170.504,857.194 170.307,857.025 170.223M844.389 161.967C845.007 161.041,846.215 160.872,847.282 160.872C850.034 160.872,852.196 163.877,852.196 166.348C852.196 166.572,852.196 166.769,852.168 167.022M843.996 163.062L851.718 168.061C851.438 168.51,850.96 168.791,850.399 168.959C849.977 169.044,849.528 169.128,849.135 169.128C848.854 169.128,848.489 169.044,848.124 168.959C847.422 168.763,846.776 168.37,846.271 167.92C845.934 167.64,845.653 167.303,845.372 167.022C844.642 166.095,843.996 164.663,843.996 163.371"/></g></g><g class="vf-stavenote" id="vf-auto10839"><g class="vf-stem" id="vf-auto10840" pointer-events="bounding-box"><path stroke-width="1.5" fill="none" d="M875.856 165L875.856 130"/></g><g class="vf-notehead" id="vf-auto10842" pointer-events="bounding-box"><path stroke="none" d="M879.751 169.38L875.427 166.629C876.269 165.253,876.522 163.905,876.522 163.315C876.522 161.237,874.893 159.946,872.562 159.946C870.372 159.946,868.716 160.591,867.508 161.434L862.566 158.289C862.482 158.205,862.369 158.205,862.285 158.205C862.089 158.205,861.92 158.289,861.808 158.457C861.752 158.57,861.724 158.682,861.724 158.766C861.724 158.935,861.808 159.131,862.004 159.216L866.61 162.22C865.206 163.708,864.672 165.562,864.672 166.657C864.672 168.791,866.357 170.054,868.547 170.054C871.636 170.054,873.573 168.875,874.753 167.471L879.161 170.335C879.274 170.391,879.386 170.419,879.47 170.419C879.667 170.419,879.835 170.335,879.919 170.139C880.004 170.054,880.032 169.942,880.032 169.858C880.032 169.661,879.919 169.493,879.751 169.38M874.977 162.417C875.174 162.697,875.258 162.95,875.258 163.231C875.258 163.793,874.809 164.438,873.601 165.393L869.839 162.978C871.636 161.967,872.787 161.602,873.573 161.602C874.332 161.602,874.697 161.939,874.977 162.417M871.636 166.853C869.754 168.033,868.547 168.482,867.705 168.482C866.862 168.482,866.357 168.061,866.076 167.583C865.964 167.359,865.851 167.05,865.851 166.769C865.851 165.983,866.581 165,868.744 163.624L872.675 166.123C872.366 166.376,872.001 166.572,871.636 166.853"/></g></g><g class="vf-stavenote" id="vf-auto10843"><g class="vf-stem" id="vf-auto10844" pointer-events="bounding-box"><path stroke-width="1.5" fill="none" d="M900.856 165L900.856 130"/></g><g class="vf-notehead" id="vf-auto10846" pointer-events="bounding-box"><path stroke="none" d="M904.582 170.616L899.865 167.19C900.96 166.039,901.606 164.719,901.606 163.343C901.606 161.293,899.977 159.946,897.675 159.946C895.569 159.946,893.716 160.676,892.255 161.799L887.398 158.317C887.285 158.261,887.173 158.205,887.032 158.205C886.892 158.205,886.667 158.317,886.555 158.485C886.527 158.57,886.471 158.682,886.471 158.822C886.471 158.963,886.555 159.187,886.724 159.272L891.413 162.613C890.318 163.793,889.672 165.253,889.672 166.741C889.672 168.847,891.413 170.054,893.603 170.054C895.4 170.054,897.394 169.296,898.966 168.033L903.909 171.543C904.021 171.627,904.189 171.627,904.274 171.627C904.47 171.627,904.639 171.543,904.751 171.402C904.835 171.318,904.863 171.178,904.863 171.065C904.863 170.897,904.751 170.7,904.582 170.616"/></g></g><g class="vf-stavenote" id="vf-auto10847"><g class="vf-notehead" id="vf-auto10850" pointer-events="bounding-box"><path stroke="none" d="M926.185 194.015L921.383 190L926.185 185.956C926.325 185.872,926.409 185.676,926.409 185.507C926.409 185.198,926.129 184.946,925.876 184.946C925.792 184.946,925.679 184.974,925.595 185.03L920.485 189.27L915.486 185.03C915.402 184.974,915.29 184.946,915.149 184.946C914.869 184.946,914.672 185.226,914.672 185.479C914.672 185.62,914.756 185.844,914.869 185.956L919.698 190L914.869 194.015C914.7 194.128,914.672 194.296,914.672 194.437C914.672 194.774,914.869 195.054,915.206 195.054C915.318 195.054,915.402 195.026,915.486 194.942L920.485 190.674L925.595 194.942C925.679 195.026,925.792 195.054,925.876 195.054C926.185 195.054,926.409 194.717,926.409 194.493C926.409 194.296,926.325 194.128,926.185 194.015"/></g></g><g class="vf-stavenote" id="vf-auto10851"><g class="vf-notehead" id="vf-auto10854" pointer-events="bounding-box"><path stroke="none" d="M961.294 158.738L960.788 158.738C960.564 158.738,960.367 158.85,960.367 159.019L960.367 163.343C959.609 159.3,956.015 156.379,951.887 156.379C947.562 156.379,944.052 159.468,943.266 163.652L943.266 159.019C943.266 158.85,943.098 158.738,942.901 158.738L942.368 158.738C942.171 158.738,942.031 158.85,942.031 159.019L942.031 171.037C942.031 171.178,942.171 171.262,942.368 171.262L942.901 171.262C943.098 171.262,943.266 171.178,943.266 171.037L943.266 166.572C944.052 170.784,947.591 173.817,951.887 173.817C954.189 173.817,956.38 172.919,958.036 171.262C959.244 170.054,960.058 168.51,960.367 166.853L960.367 171.037C960.367 171.178,960.564 171.262,960.788 171.262L961.294 171.262C961.518 171.262,961.715 171.178,961.715 171.037L961.715 159.019C961.715 158.85,961.518 158.738,961.294 158.738M951.887 157.306C955.284 157.306,958.233 159.552,959.272 162.613C957.671 160.985,954.667 159.946,951.999 159.946C948.658 159.946,946.074 160.844,944.614 162.22C945.765 159.3,948.601 157.306,951.887 157.306M940.571 158.738L940.037 158.738C939.84 158.738,939.672 158.85,939.672 159.019L939.672 171.037C939.672 171.178,939.84 171.262,940.037 171.262L940.571 171.262C940.795 171.262,940.936 171.178,940.936 171.037L940.936 159.019C940.936 158.85,940.795 158.738,940.571 158.738M963.596 158.738L963.119 158.738C962.922 158.738,962.67 158.85,962.67 159.019L962.67 171.037C962.67 171.178,962.922 171.262,963.119 171.262L963.596 171.262C963.849 171.262,964.045 171.178,964.045 171.037L964.045 159.019C964.045 158.85,963.849 158.738,963.596 158.738M955.958 166.292C955.958 167.555,955.453 168.678,954.105 169.015C953.74 169.128,953.347 169.156,952.926 169.156C951.831 169.156,950.764 168.678,949.893 167.948L949.051 167.05C948.293 166.095,947.675 164.719,947.675 163.371C947.675 163.062,947.731 162.782,947.787 162.445C948.236 161.069,949.697 160.928,950.988 160.928C953.74 160.928,955.958 163.821,955.958 166.292M951.887 172.919C948.601 172.919,945.765 170.869,944.614 168.033C945.906 169.24,948.124 170.054,951.606 170.054C955.481 170.054,957.84 169.296,959.075 168.061C957.952 170.897,955.116 172.919,951.887 172.919"/></g></g><g class="vf-stavenote" id="vf-auto10855"><g class="vf-notehead" id="vf-auto10858" pointer-events="bounding-box"><path stroke="none" d="M973.489 156.464C968.603 156.464,964.672 160.395,964.672 165.281C964.672 170.139,968.631 174.098,973.489 174.098C978.347 174.098,982.334 170.139,982.334 165.281C982.334 160.395,978.375 156.464,973.489 156.464M973.489 157.278C977.055 157.278,980.088 159.581,981.183 162.95C979.723 161.153,976.466 159.946,973.686 159.946C970.007 159.946,967.34 160.985,966.02 162.529C967.059 159.412,970.26 157.278,973.489 157.278M975.707 168.959C975.314 169.072,974.893 169.128,974.5 169.128C974.135 169.128,973.798 169.072,973.489 168.959C971.271 168.37,969.361 165.73,969.361 163.456C969.361 163.147,969.389 162.782,969.53 162.445C969.923 161.125,971.383 160.928,972.647 160.928C975.399 160.928,977.561 163.905,977.561 166.348C977.561 167.555,976.971 168.678,975.707 168.959M973.489 173.256C969.923 173.256,966.778 170.813,965.795 167.415C966.946 168.959,969.277 170.054,973.236 170.054C977.701 170.054,980.116 169.015,981.183 167.415C980.228 170.869,977.083 173.256,973.489 173.256"/></g></g><g class="vf-stavenote" id="vf-auto10859"><g class="vf-stem" id="vf-auto10860" pointer-events="bounding-box"><path stroke-width="1.5" fill="none" d="M1000.856 165L1000.856 130"/></g><g class="vf-notehead" id="vf-auto10862" pointer-events="bounding-box"><path stroke="none" d="M995.625 158.261C991.946 158.261,988.942 161.237,988.942 164.916C988.942 168.566,991.946 171.543,995.625 171.543C999.247 171.543,1002.252 168.566,1002.252 164.916C1002.252 161.237,999.247 158.261,995.625 158.261M995.625 158.822C997.282 158.822,998.77 159.468,999.865 160.507C999.247 160.142,998.433 159.946,997.562 159.946C991.806 159.946,989.84 164.27,989.672 166.46C989.56 165.983,989.504 165.449,989.504 164.916C989.504 161.574,992.255 158.822,995.625 158.822M991.076 167.583C990.964 167.359,990.851 167.05,990.851 166.769C990.851 165.927,991.722 164.803,994.53 163.231C996.495 162.052,997.759 161.63,998.573 161.63C999.332 161.63,999.753 161.995,1000.034 162.501C1000.174 162.726,1000.258 162.978,1000.258 163.259C1000.258 164.073,999.444 165.028,996.636 166.853C994.811 168.061,993.547 168.51,992.705 168.51C991.862 168.51,991.357 168.061,991.076 167.583M995.625 171.037C994.277 171.037,993.042 170.588,992.031 169.802C992.508 170.026,993.042 170.054,993.547 170.054C1000.118 170.054,1001.466 164.803,1001.522 163.428C1001.634 163.877,1001.718 164.382,1001.718 164.916C1001.718 168.285,999.023 171.037,995.625 171.037"/></g></g><g class="vf-stavenote" id="vf-auto10863"><g class="vf-stem" id="vf-auto10864" pointer-events="bounding-box"><path stroke-width="1.5" fill="none" d="M1025.856 165L1025.856 130"/></g><g class="vf-notehead" id="vf-auto10866" pointer-events="bounding-box"><path stroke="none" d="M1020.737 158.261C1016.975 158.261,1013.83 161.322,1013.83 165.084C1013.83 168.847,1016.975 171.908,1020.737 171.908C1024.528 171.908,1027.645 168.847,1027.645 165.084C1027.645 161.322,1024.528 158.261,1020.737 158.261M1020.737 158.822C1022.422 158.822,1023.966 159.468,1025.118 160.507C1024.444 160.114,1023.573 159.946,1022.647 159.946C1018.238 159.946,1014.672 163.175,1014.672 166.657L1014.672 166.853C1014.504 166.264,1014.391 165.674,1014.391 165.084C1014.391 161.63,1017.255 158.822,1020.737 158.822M1020.737 171.346C1018.968 171.346,1017.368 170.616,1016.244 169.437C1016.89 169.802,1017.677 170.054,1018.603 170.054C1022.197 170.054,1026.606 166.685,1026.606 163.315C1026.606 163.006,1026.606 162.782,1026.522 162.529C1026.887 163.315,1027.083 164.186,1027.083 165.084C1027.083 168.51,1024.247 171.346,1020.737 171.346"/></g></g><g class="vf-stavenote" id="vf-auto10867"><g class="vf-notehead" id="vf-auto10870" pointer-events="bounding-box"><path stroke="none" d="M1051.185 194.015L1046.383 190L1051.185 185.956C1051.325 185.872,1051.409 185.676,1051.409 185.507C1051.409 185.198,1051.129 184.946,1050.876 184.946C1050.792 184.946,1050.679 184.974,1050.595 185.03L1045.485 189.27L1040.486 185.03C1040.402 184.974,1040.29 184.946,1040.149 184.946C1039.869 184.946,1039.672 185.226,1039.672 185.479C1039.672 185.62,1039.756 185.844,1039.869 185.956L1044.698 190L1039.869 194.015C1039.7 194.128,1039.672 194.296,1039.672 194.437C1039.672 194.774,1039.869 195.054,1040.206 195.054C1040.318 195.054,1040.402 195.026,1040.486 194.942L1045.485 190.674L1050.595 194.942C1050.679 195.026,1050.792 195.054,1050.876 195.054C1051.185 195.054,1051.409 194.717,1051.409 194.493C1051.409 194.296,1051.325 194.128,1051.185 194.015"/></g></g><g class="vf-stavenote" id="vf-auto10871"><g class="vf-notehead" id="vf-auto10874" pointer-events="bounding-box"><path stroke="none" d="M1080.481 158.907C1080.481 159.609,1079.948 159.946,1079.498 159.946L1066.413 159.946C1066.132 159.946,1065.683 159.609,1065.683 158.963L1065.683 157.475C1065.683 157.194,1065.43 156.997,1065.149 156.997C1064.869 156.997,1064.672 157.194,1064.672 157.475L1064.672 172.16C1064.672 172.413,1064.869 172.694,1065.149 172.694C1065.43 172.694,1065.683 172.413,1065.683 172.16L1065.683 170.981C1065.683 170.532,1066.16 170.054,1066.525 170.054L1079.498 170.054C1080.088 170.054,1080.481 170.504,1080.481 170.869L1080.481 172.16C1080.481 172.413,1080.678 172.694,1080.958 172.694C1081.239 172.694,1081.492 172.413,1081.492 172.16L1081.492 157.475C1081.492 157.194,1081.239 156.997,1080.958 156.997C1080.678 156.997,1080.481 157.194,1080.481 157.475M1065.683 164.354C1065.683 163.456,1066.301 163.006,1067.789 163.006L1078.347 163.006C1079.639 163.006,1080.481 163.512,1080.481 164.158L1080.481 165.618C1080.481 166.488,1079.639 166.909,1078.347 166.909L1067.957 166.909C1066.525 166.909,1065.683 166.376,1065.683 165.618"/></g></g><g class="vf-stavenote" id="vf-auto10875"><g class="vf-notehead" id="vf-auto10878" pointer-events="bounding-box"><path stroke="none" d="M1102.336 170.054L1102.336 159.946L1089.672 159.946L1089.672 170.054M1090.795 168.875L1090.795 161.069L1101.185 161.069L1101.185 168.875"/></g></g><g class="vf-stavenote" id="vf-auto10879"><g class="vf-stem" id="vf-auto10880" pointer-events="bounding-box"><path stroke-width="1.5" fill="none" d="M1125.856 170L1125.856 130"/></g><g class="vf-notehead" id="vf-auto10882" pointer-events="bounding-box"><path stroke="none" d="M1126.606 170.054L1126.606 159.946L1113.942 159.946L1113.942 170.054M1115.065 168.875L1115.065 161.069L1125.455 161.069L1125.455 168.875"/></g></g><g class="vf-stavenote" id="vf-auto10883"><g class="vf-stem" id="vf-auto10884" pointer-events="bounding-box"><path stroke-width="1.5" fill="none" d="M1150.856 165L1150.856 130"/></g><g class="vf-notehead" id="vf-auto10886" pointer-events="bounding-box"><path stroke="none" d="M1151.606 170.054L1151.606 159.946L1138.942 159.946L1138.942 170.054"/></g></g><g class="vf-stavenote" id="vf-auto10887"><g class="vf-notehead" id="vf-auto10890" pointer-events="bounding-box"><path stroke="none" d="M1176.185 194.015L1171.383 190L1176.185 185.956C1176.325 185.872,1176.409 185.676,1176.409 185.507C1176.409 185.198,1176.129 184.946,1175.876 184.946C1175.792 184.946,1175.679 184.974,1175.595 185.03L1170.485 189.27L1165.486 185.03C1165.402 184.974,1165.29 184.946,1165.149 184.946C1164.869 184.946,1164.672 185.226,1164.672 185.479C1164.672 185.62,1164.756 185.844,1164.869 185.956L1169.698 190L1164.869 194.015C1164.7 194.128,1164.672 194.296,1164.672 194.437C1164.672 194.774,1164.869 195.054,1165.206 195.054C1165.318 195.054,1165.402 195.026,1165.486 194.942L1170.485 190.674L1175.595 194.942C1175.679 195.026,1175.792 195.054,1175.876 195.054C1176.185 195.054,1176.409 194.717,1176.409 194.493C1176.409 194.296,1176.325 194.128,1176.185 194.015"/></g></g></svg>