<svg xmlns="http://www.w3.org/2000/svg" stroke-width="0.3" stroke-dasharray="none" fill="black" stroke="black" font-family="Arial, sans-serif" font-size="10pt" font-weight="normal" font-style="normal" width="450" height="180" viewBox="0 0 450 180" style="width: 450px; height: 180px; border: none;"><g class="vf-stave" id="vf-auto7673" stroke-width="1" fill="#999999" stroke="#999999"><path fill="none" d="M0 60L440 60"/><path fill="none" d="M0 70L440 70"/><path fill="none" d="M0 80L440 80"/><path fill="none" d="M0 90L440 90"/><path fill="none" d="M0 100L440 100"/></g><g class="vf-stavebarline" id="vf-auto7674"><rect y="59.5" width="1" height="41" stroke="none"/></g><g class="vf-stavebarline" id="vf-auto7675"><rect x="440" y="59.5" width="1" height="41" stroke="none"/></g><g class="vf-stavenote" id="vf-auto7676"><g class="vf-notehead" id="vf-auto7682" pointer-events="bounding-box"><path stroke="none" d="M17 91.685C17 93.426,18.264 95.391,21.521 95.391C25.733 95.391,30.141 91.938,30.141 88.371C30.141 85.985,28.12 84.665,25.621 84.665C21.689 84.665,17 87.978,17 91.685"/></g></g><g class="vf-stavenote" id="vf-auto7684"><g class="vf-notehead" id="vf-auto7690" pointer-events="bounding-box"><path stroke="none" d="M116.465 91.685C116.465 93.426,117.728 95.391,120.986 95.391C125.198 95.391,129.606 91.938,129.606 88.371C129.606 85.985,127.584 84.665,125.085 84.665C121.154 84.665,116.465 87.978,116.465 91.685"/></g></g><g class="vf-stavenote" id="vf-auto7692"><g class="vf-notehead" id="vf-auto7698" pointer-events="bounding-box"><path stroke="none" d="M215.929 91.685C215.929 93.426,217.193 95.391,220.45 95.391C224.662 95.391,229.071 91.938,229.071 88.371C229.071 85.985,227.049 84.665,224.55 84.665C220.619 84.665,215.929 87.978,215.929 91.685"/></g></g><g class="vf-stavenote" id="vf-auto7700"><g class="vf-notehead" id="vf-auto7706" pointer-events="bounding-box"><path stroke="none" d="M315.394 86.685C315.394 88.426,316.658 90.391,319.915 90.391C324.127 90.391,328.535 86.938,328.535 83.371C328.535 80.985,326.514 79.665,324.014 79.665C320.083 79.665,315.394 82.978,315.394 86.685"/></g></g><g class="vf-stem" id="vf-auto7677" pointer-events="bounding-box"><path stroke-width="1.5" fill="none" d="M29.391 88L29.391 55.75"/></g><g class="vf-stem" id="vf-auto7685" pointer-events="bounding-box"><path stroke-width="1.5" fill="none" d="M128.856 88L128.856 53.263"/></g><g class="vf-stem" id="vf-auto7693" pointer-events="bounding-box"><path stroke-width="1.5" fill="none" d="M228.321 88L228.321 50.777"/></g><g class="vf-stem" id="vf-auto7701" pointer-events="bounding-box"><path stroke-width="1.5" fill="none" d="M327.785 83L327.785 48.29"/></g><g class="vf-beam" id="vf-auto7708"><path stroke="none" d="M28.641 55.019L28.641 60.019L328.035 52.559L328.035 47.559Z"/></g></svg>