<svg xmlns="http://www.w3.org/2000/svg" stroke-width="0.3" stroke-dasharray="none" fill="black" stroke="black" font-family="Arial, sans-serif" font-size="10pt" font-weight="normal" font-style="normal" width="600" height="160" viewBox="0 0 666.6666666666666 177.77777777777777" style="width: 600px; height: 160px; border: none;"><g class="vf-stave" id="vf-auto23074" stroke-width="1" fill="#999999" stroke="#999999" font-family="Arial"><path fill="none" d="M10 70L610 70"/><path fill="none" d="M10 80L610 80"/><path fill="none" d="M10 90L610 90"/><path fill="none" d="M10 100L610 100"/><path fill="none" d="M10 110L610 110"/></g><g class="vf-stavebarline" id="vf-auto23075" font-family="Arial"><rect x="10" y="69.5" width="1" height="41" stroke="none"/></g><g class="vf-stavebarline" id="vf-auto23076" font-family="Arial"><rect x="610" y="69.5" width="1" height="41" stroke="none"/></g><g class="vf-clef" id="vf-auto23077" font-family="Arial"><path stroke="none" d="M29.112 57.837C29.112 57.837,29.141 57.837,29.17 57.837C29.544 57.837,30.034 58.211,30.667 58.96C32.942 61.696,34.44 66.045,34.44 69.731C34.44 69.99,34.44 70.278,34.411 70.538C34.152 74.829,32.28 78.515,28.68 81.942C28.363 82.259,27.902 82.691,27.701 82.864L27.355 83.238L28.075 86.608C28.478 88.48,28.795 90.006,28.795 90.006C28.795 90.006,28.795 90.006,28.795 90.006C28.824 90.006,28.939 89.978,29.026 89.978C29.198 89.949,29.659 89.949,30.12 89.949C30.466 89.949,30.84 89.949,30.984 89.949C35.592 90.525,38.962 94.125,39.278 98.79C39.307 98.992,39.307 99.194,39.307 99.395C39.307 103.254,36.802 106.941,33.029 108.554C32.885 108.611,32.798 108.669,32.798 108.669C32.798 108.669,33 109.677,33.259 110.886C33.518 112.125,33.778 113.306,33.806 113.536C33.979 114.458,34.066 115.322,34.066 116.157C34.066 118.317,33.49 120.131,32.395 121.542C30.754 123.587,28.392 124.624,26.03 124.624C23.726 124.624,21.422 123.674,19.752 121.773C19.061 120.966,18.686 120.016,18.686 119.037C18.686 118.202,18.974 117.338,19.55 116.56C20.386 115.437,21.624 114.89,22.862 114.89C24.014 114.89,25.166 115.379,25.973 116.358C26.549 117.107,26.808 117.942,26.808 118.778C26.808 120.678,25.397 122.493,23.237 122.579L22.978 122.579L23.064 122.637C23.928 123.069,24.936 123.299,25.973 123.299C27.24 123.299,28.565 122.954,29.602 122.291C31.704 120.966,32.741 118.922,32.741 116.157C32.741 115.264,32.626 114.285,32.424 113.248C32.338 112.758,31.531 109.101,31.531 109.101C31.531 109.101,31.531 109.101,31.531 109.101C31.502 109.101,31.358 109.13,31.186 109.158C30.667 109.302,30.12 109.389,29.515 109.446C29.314 109.475,28.91 109.475,28.478 109.475C27.931 109.475,27.384 109.475,27.154 109.446C20.126 108.669,15 102.995,15 95.968C15 92.858,15.893 90.15,17.765 87.558C19.752 84.794,21.768 82.403,24.245 79.898L25.109 79.034L24.734 77.306C24.533 76.326,24.331 75.318,24.245 75.03C23.899 73.389,23.726 72.582,23.669 72.266C23.525 71.373,23.467 70.48,23.467 69.587C23.467 65.469,25.022 61.552,27.902 58.758C28.565 58.125,28.91 57.866,29.112 57.837M31.013 63.482C30.84 63.453,30.696 63.424,30.523 63.424C29.688 63.424,28.68 63.942,27.73 64.893C26.088 66.534,25.195 69.011,25.195 71.718C25.195 72.41,25.253 73.101,25.368 73.821C25.426 74.138,26.203 77.968,26.232 77.968C26.232 77.968,26.232 77.968,26.232 77.968C26.261 77.968,27.182 77.018,27.442 76.73C30.638 73.187,32.453 69.357,32.453 66.362C32.453 65.872,32.395 65.411,32.309 64.95C32.107 64.086,31.733 63.654,31.013 63.482M26.318 84.707C26.29 84.534,26.261 84.39,26.261 84.39C26.146 84.39,23.87 87.04,22.834 88.336C20.702 91.043,19.925 92.31,19.32 94.038C18.888 95.363,18.658 96.688,18.658 97.984C18.658 100.317,19.349 102.534,20.674 104.406C22.517 106.998,25.426 108.496,28.421 108.496C28.91 108.496,29.4 108.467,29.89 108.381C30.408 108.294,31.301 108.064,31.301 108.006C31.301 107.978,30.955 106.394,30.552 104.435C30.12 102.506,29.486 99.51,29.112 97.811C28.766 96.112,28.45 94.701,28.45 94.701C28.45 94.701,28.45 94.701,28.45 94.701C28.334 94.701,27.701 94.96,27.355 95.133C25.598 96.112,24.677 97.84,24.677 99.568C24.677 101.094,25.397 102.592,26.866 103.485C27.154 103.658,27.298 103.859,27.298 104.09C27.298 104.205,27.24 104.349,27.125 104.464C27.038 104.579,26.923 104.666,26.75 104.666C26.549 104.666,26.29 104.55,25.858 104.32C23.237 102.966,21.912 100.403,21.912 97.782C21.912 95.334,23.093 92.858,25.454 91.302C26.059 90.899,27.269 90.323,27.499 90.323C27.499 90.323,27.528 90.294,27.528 90.294C27.528 90.266,27.528 90.266,27.528 90.266C27.499 90.208,26.434 85.197,26.318 84.707M30.725 94.499C30.581 94.499,30.293 94.47,30.12 94.47L29.746 94.47L29.774 94.528C29.774 94.557,30.293 97.034,30.955 100.029C31.589 103.024,32.136 105.616,32.165 105.789C32.222 105.962,32.309 106.422,32.395 106.797L32.539 107.488L32.626 107.43C34.21 106.538,35.362 105.27,35.995 103.715C36.37 102.851,36.542 101.987,36.542 101.123C36.542 97.869,34.152 94.902,30.725 94.499"/></g><g class="vf-timesignature" id="vf-auto23078" font-family="Arial"><path stroke="none" d="M59.29 72.086C59.347 72.058,60.989 72.058,62.544 72.058C63.869 72.058,65.165 72.058,65.194 72.086C65.366 72.144,65.482 72.317,65.482 72.49C65.482 72.691,65.453 72.72,64.906 73.325C64.416 73.843,62.89 75.571,61.334 77.328C60.874 77.846,60.442 78.336,60.326 78.451C60.211 78.566,59.52 79.344,58.771 80.179C58.051 81.014,57.13 82.051,56.755 82.454C56.381 82.886,56.064 83.232,56.064 83.261C56.064 83.261,56.064 83.261,56.064 83.261C56.064 83.29,56.294 83.29,58.656 83.29L61.248 83.29L61.277 81.418C61.277 79.603,61.277 79.574,61.306 79.517C61.334 79.488,61.91 78.826,62.602 78.048C63.293 77.27,64.099 76.349,64.416 76.032C65.194 75.139,65.165 75.168,65.395 75.168C65.597 75.168,65.741 75.254,65.798 75.398C65.827 75.485,65.827 75.629,65.827 79.373L65.827 83.29L66.518 83.29C67.181 83.29,67.238 83.29,67.325 83.318C67.555 83.405,67.699 83.635,67.699 83.866C67.699 84.038,67.642 84.182,67.526 84.298C67.354 84.47,67.325 84.47,66.547 84.47L65.856 84.47L65.856 84.643C65.856 84.73,65.856 84.989,65.856 85.219C65.885 86.4,66.259 86.976,67.411 87.552C67.642 87.667,67.786 87.84,67.786 88.013C67.786 88.128,67.728 88.243,67.642 88.33C67.526 88.445,67.814 88.445,65.078 88.445C64.646 88.445,64.128 88.445,63.552 88.445C62.976 88.445,62.458 88.445,62.026 88.445C59.29 88.445,59.578 88.445,59.462 88.33C59.376 88.243,59.318 88.128,59.318 88.013C59.318 87.84,59.462 87.667,59.693 87.552C60.845 86.976,61.219 86.4,61.248 85.219C61.248 84.989,61.248 84.73,61.248 84.643L61.248 84.47L57.965 84.47C57.475 84.47,57.072 84.47,56.726 84.47C54.365 84.47,54.566 84.47,54.451 84.355C54.365 84.269,54.307 84.154,54.307 84.038C54.307 83.923,54.394 83.75,54.538 83.578C57.274 80.496,58.915 76.637,59.03 72.893C59.03 72.288,59.059 72.202,59.29 72.086M61.046 90L61.075 90L60.989 90M61.046 71.05L61.075 71.05L60.989 71.05"/><path stroke="none" d="M59.29 92.086C59.347 92.058,60.989 92.058,62.544 92.058C63.869 92.058,65.165 92.058,65.194 92.086C65.366 92.144,65.482 92.317,65.482 92.49C65.482 92.691,65.453 92.72,64.906 93.325C64.416 93.843,62.89 95.571,61.334 97.328C60.874 97.846,60.442 98.336,60.326 98.451C60.211 98.566,59.52 99.344,58.771 100.179C58.051 101.014,57.13 102.051,56.755 102.454C56.381 102.886,56.064 103.232,56.064 103.261C56.064 103.261,56.064 103.261,56.064 103.261C56.064 103.29,56.294 103.29,58.656 103.29L61.248 103.29L61.277 101.418C61.277 99.603,61.277 99.574,61.306 99.517C61.334 99.488,61.91 98.826,62.602 98.048C63.293 97.27,64.099 96.349,64.416 96.032C65.194 95.139,65.165 95.168,65.395 95.168C65.597 95.168,65.741 95.254,65.798 95.398C65.827 95.485,65.827 95.629,65.827 99.373L65.827 103.29L66.518 103.29C67.181 103.29,67.238 103.29,67.325 103.318C67.555 103.405,67.699 103.635,67.699 103.866C67.699 104.038,67.642 104.182,67.526 104.298C67.354 104.47,67.325 104.47,66.547 104.47L65.856 104.47L65.856 104.643C65.856 104.73,65.856 104.989,65.856 105.219C65.885 106.4,66.259 106.976,67.411 107.552C67.642 107.667,67.786 107.84,67.786 108.013C67.786 108.128,67.728 108.243,67.642 108.33C67.526 108.445,67.814 108.445,65.078 108.445C64.646 108.445,64.128 108.445,63.552 108.445C62.976 108.445,62.458 108.445,62.026 108.445C59.29 108.445,59.578 108.445,59.462 108.33C59.376 108.243,59.318 108.128,59.318 108.013C59.318 107.84,59.462 107.667,59.693 107.552C60.845 106.976,61.219 106.4,61.248 105.219C61.248 104.989,61.248 104.73,61.248 104.643L61.248 104.47L57.965 104.47C57.475 104.47,57.072 104.47,56.726 104.47C54.365 104.47,54.566 104.47,54.451 104.355C54.365 104.269,54.307 104.154,54.307 104.038C54.307 103.923,54.394 103.75,54.538 103.578C57.274 100.496,58.915 96.637,59.03 92.893C59.03 92.288,59.059 92.202,59.29 92.086M61.046 110L61.075 110L60.989 110M61.046 91.05L61.075 91.05L60.989 91.05"/></g><g class="vf-stavenote" id="vf-auto23082" font-family="Arial"><g class="vf-notehead" id="vf-auto23086" pointer-events="bounding-box"><path stroke="none" d="M86.89 69.889C86.974 69.889,87.058 69.889,87.199 69.889C87.564 69.889,88.097 69.918,88.294 69.946C90.624 70.283,91.776 71.827,91.776 73.624C91.776 75.534,90.484 77.724,87.901 79.128C86.637 79.802,85.345 80.111,84.166 80.111C82.004 80.111,80.235 79.044,79.87 77.162C79.814 76.881,79.786 76.629,79.786 76.376C79.786 73.343,83.043 70.283,86.89 69.889"/></g></g><g class="vf-stavenote" id="vf-auto23088" font-family="Arial"><g class="vf-notehead" id="vf-auto23158" pointer-events="bounding-box"><path stroke="none" d="M126.729 56.688C126.841 56.66,126.925 56.66,127.038 56.66C127.627 56.66,128.329 56.913,128.807 57.278C129.537 57.84,129.902 58.682,129.902 59.524C129.902 60.198,129.677 60.872,129.2 61.378L129.087 61.518L129.228 61.462C130.772 61.041,132.12 59.777,132.766 58.148C132.794 58.036,132.878 57.896,132.878 57.868C133.019 57.727,133.187 57.643,133.356 57.643C133.664 57.643,133.945 57.868,133.945 58.205C133.945 58.345,129.846 72.048,129.761 72.188C129.677 72.385,129.481 72.469,129.256 72.469C129.031 72.469,128.807 72.357,128.722 72.132C128.694 72.076,128.666 72.048,128.666 71.992C128.666 71.767,128.919 71.037,130.239 66.629C131.081 63.793,131.783 61.462,131.783 61.462C131.783 61.462,131.783 61.462,131.783 61.462C131.755 61.462,131.671 61.518,131.53 61.63C130.52 62.389,129.256 62.782,128.077 62.782C127.01 62.782,125.971 62.473,125.156 61.799C124.482 61.265,124.145 60.451,124.145 59.609C124.145 58.879,124.398 58.148,124.96 57.559C125.409 57.081,125.971 56.801,126.729 56.688"/></g></g><g class="vf-stavenote" id="vf-auto23092" font-family="Arial"><path stroke-width="1.4" fill="none" stroke="#444" d="M165.505 60L183.495 60"/><g class="vf-notehead" id="vf-auto23096" pointer-events="bounding-box"><path stroke="none" d="M175.609 49.889C175.694 49.889,175.778 49.889,175.918 49.889C176.283 49.889,176.817 49.918,177.013 49.946C179.344 50.283,180.495 51.827,180.495 53.624C180.495 55.534,179.204 57.724,176.62 59.128C175.357 59.802,174.065 60.111,172.886 60.111C170.723 60.111,168.954 59.044,168.589 57.162C168.533 56.881,168.505 56.629,168.505 56.376C168.505 53.343,171.762 50.283,175.609 49.889"/></g></g><g class="vf-stavenote" id="vf-auto23098" font-family="Arial"><g class="vf-notehead" id="vf-auto23102" pointer-events="bounding-box"><path stroke="none" d="M219.969 79.889C220.053 79.889,220.138 79.889,220.278 79.889C220.643 79.889,221.177 79.918,221.373 79.946C223.704 80.283,224.855 81.827,224.855 83.624C224.855 85.534,223.563 87.724,220.98 89.128C219.716 89.802,218.425 90.111,217.245 90.111C215.083 90.111,213.314 89.044,212.949 87.162C212.893 86.881,212.865 86.629,212.865 86.376C212.865 83.343,216.122 80.283,219.969 79.889"/></g></g><g class="vf-stavenote" id="vf-auto23104" font-family="Arial"><path stroke-width="1.4" fill="none" stroke="#444" d="M254.225 60L272.215 60"/><g class="vf-notehead" id="vf-auto23110" pointer-events="bounding-box"><path stroke="none" d="M264.329 84.889C264.413 84.889,264.497 84.889,264.638 84.889C265.003 84.889,265.536 84.918,265.733 84.946C268.063 85.283,269.215 86.827,269.215 88.624C269.215 90.534,267.923 92.724,265.34 94.128C264.076 94.802,262.784 95.111,261.605 95.111C259.443 95.111,257.674 94.044,257.309 92.162C257.253 91.881,257.225 91.629,257.225 91.376C257.225 88.343,260.482 85.283,264.329 84.889"/></g><g class="vf-notehead" id="vf-auto23111" pointer-events="bounding-box"><path stroke="none" d="M264.329 74.889C264.413 74.889,264.497 74.889,264.638 74.889C265.003 74.889,265.536 74.918,265.733 74.946C268.063 75.283,269.215 76.827,269.215 78.624C269.215 80.534,267.923 82.724,265.34 84.128C264.076 84.802,262.784 85.111,261.605 85.111C259.443 85.111,257.674 84.044,257.309 82.162C257.253 81.881,257.225 81.629,257.225 81.376C257.225 78.343,260.482 75.283,264.329 74.889"/></g><g class="vf-notehead" id="vf-auto23112" pointer-events="bounding-box"><path stroke="none" d="M264.329 54.889C264.413 54.889,264.497 54.889,264.638 54.889C265.003 54.889,265.536 54.918,265.733 54.946C268.063 55.283,269.215 56.827,269.215 58.624C269.215 60.534,267.923 62.724,265.34 64.128C264.076 64.802,262.784 65.111,261.605 65.111C259.443 65.111,257.674 64.044,257.309 62.162C257.253 61.881,257.225 61.629,257.225 61.376C257.225 58.343,260.482 55.283,264.329 54.889"/></g></g><g class="vf-stavenote" id="vf-auto23114" font-family="Arial"><g class="vf-notehead" id="vf-auto23159" pointer-events="bounding-box"><path stroke="none" d="M304.168 86.688C304.28 86.66,304.364 86.66,304.477 86.66C305.066 86.66,305.768 86.913,306.246 87.278C306.976 87.84,307.341 88.682,307.341 89.524C307.341 90.198,307.116 90.872,306.639 91.378L306.526 91.518L306.667 91.462C308.211 91.041,309.559 89.777,310.205 88.148C310.233 88.036,310.317 87.896,310.317 87.868C310.458 87.727,310.626 87.643,310.795 87.643C311.103 87.643,311.384 87.868,311.384 88.205C311.384 88.345,307.285 102.048,307.2 102.188C307.116 102.385,306.92 102.469,306.695 102.469C306.47 102.469,306.246 102.357,306.161 102.132C306.133 102.076,306.105 102.048,306.105 101.992C306.105 101.767,306.358 101.037,307.678 96.629C308.52 93.793,309.222 91.462,309.222 91.462C309.222 91.462,309.222 91.462,309.222 91.462C309.194 91.462,309.11 91.518,308.969 91.63C307.958 92.389,306.695 92.782,305.516 92.782C304.448 92.782,303.41 92.473,302.595 91.799C301.921 91.265,301.584 90.451,301.584 89.609C301.584 88.879,301.837 88.148,302.399 87.559C302.848 87.081,303.41 86.801,304.168 86.688"/></g></g><g class="vf-stavenote" id="vf-auto23118" font-family="Arial"><g class="vf-notehead" id="vf-auto23160" pointer-events="bounding-box"><path stroke="none" d="M348.527 86.688C348.64 86.66,348.724 86.66,348.836 86.66C349.426 86.66,350.128 86.913,350.605 87.278C351.335 87.84,351.7 88.682,351.7 89.524C351.7 90.198,351.476 90.872,350.998 91.378L350.886 91.518L351.027 91.462C352.571 91.041,353.919 89.777,354.565 88.148C354.593 88.036,354.677 87.896,354.677 87.868C354.817 87.727,354.986 87.643,355.154 87.643C355.463 87.643,355.744 87.868,355.744 88.205C355.744 88.345,351.644 102.048,351.56 102.188C351.476 102.385,351.279 102.469,351.055 102.469C350.83 102.469,350.605 102.357,350.521 102.132C350.493 102.076,350.465 102.048,350.465 101.992C350.465 101.767,350.718 101.037,352.037 96.629C352.88 93.793,353.582 91.462,353.582 91.462C353.582 91.462,353.582 91.462,353.582 91.462C353.554 91.462,353.469 91.518,353.329 91.63C352.318 92.389,351.055 92.782,349.875 92.782C348.808 92.782,347.769 92.473,346.955 91.799C346.281 91.265,345.944 90.451,345.944 89.609C345.944 88.879,346.197 88.148,346.758 87.559C347.208 87.081,347.769 86.801,348.527 86.688"/></g></g><g class="vf-stavenote" id="vf-auto23122" font-family="Arial"><path stroke-width="1.4" fill="none" stroke="#444" d="M387.304 120L405.294 120"/><g class="vf-notehead" id="vf-auto23126" pointer-events="bounding-box"><path stroke="none" d="M397.408 114.889C397.492 114.889,397.577 114.889,397.717 114.889C398.082 114.889,398.615 114.918,398.812 114.946C401.143 115.283,402.294 116.827,402.294 118.624C402.294 120.534,401.002 122.724,398.419 124.128C397.155 124.802,395.864 125.111,394.684 125.111C392.522 125.111,390.753 124.044,390.388 122.162C390.332 121.881,390.304 121.629,390.304 121.376C390.304 118.343,393.561 115.283,397.408 114.889"/></g></g><g class="vf-stavenote" id="vf-auto23128" font-family="Arial"><path stroke-width="1.4" fill="none" stroke="#444" d="M431.664 60L449.654 60"/><g class="vf-notehead" id="vf-auto23134" pointer-events="bounding-box"><path stroke="none" d="M441.768 84.889C441.852 84.889,441.936 84.889,442.077 84.889C442.442 84.889,442.975 84.918,443.172 84.946C445.502 85.283,446.654 86.827,446.654 88.624C446.654 90.534,445.362 92.724,442.779 94.128C441.515 94.802,440.223 95.111,439.044 95.111C436.882 95.111,435.113 94.044,434.748 92.162C434.692 91.881,434.664 91.629,434.664 91.376C434.664 88.343,437.921 85.283,441.768 84.889"/></g><g class="vf-notehead" id="vf-auto23135" pointer-events="bounding-box"><path stroke="none" d="M441.768 74.889C441.852 74.889,441.936 74.889,442.077 74.889C442.442 74.889,442.975 74.918,443.172 74.946C445.502 75.283,446.654 76.827,446.654 78.624C446.654 80.534,445.362 82.724,442.779 84.128C441.515 84.802,440.223 85.111,439.044 85.111C436.882 85.111,435.113 84.044,434.748 82.162C434.692 81.881,434.664 81.629,434.664 81.376C434.664 78.343,437.921 75.283,441.768 74.889"/></g><g class="vf-notehead" id="vf-auto23136" pointer-events="bounding-box"><path stroke="none" d="M441.768 54.889C441.852 54.889,441.936 54.889,442.077 54.889C442.442 54.889,442.975 54.918,443.172 54.946C445.502 55.283,446.654 56.827,446.654 58.624C446.654 60.534,445.362 62.724,442.779 64.128C441.515 64.802,440.223 65.111,439.044 65.111C436.882 65.111,435.113 64.044,434.748 62.162C434.692 61.881,434.664 61.629,434.664 61.376C434.664 58.343,437.921 55.283,441.768 54.889"/></g></g><g class="vf-stavenote" id="vf-auto23138" font-family="Arial"><g class="vf-notehead" id="vf-auto23142" pointer-events="bounding-box"><path stroke="none" d="M486.128 84.889C486.212 84.889,486.296 84.889,486.436 84.889C486.801 84.889,487.335 84.918,487.532 84.946C489.862 85.283,491.013 86.827,491.013 88.624C491.013 90.534,489.722 92.724,487.138 94.128C485.875 94.802,484.583 95.111,483.404 95.111C481.242 95.111,479.473 94.044,479.108 92.162C479.051 91.881,479.023 91.629,479.023 91.376C479.023 88.343,482.281 85.283,486.128 84.889"/></g></g><g class="vf-stavenote" id="vf-auto23144" font-family="Arial"><g class="vf-notehead" id="vf-auto23161" pointer-events="bounding-box"><path stroke="none" d="M525.966 96.688C526.079 96.66,526.163 96.66,526.275 96.66C526.865 96.66,527.567 96.913,528.044 97.278C528.774 97.84,529.139 98.682,529.139 99.524C529.139 100.198,528.915 100.872,528.437 101.378L528.325 101.518L528.466 101.462C530.01 101.041,531.358 99.777,532.004 98.148C532.032 98.036,532.116 97.896,532.116 97.868C532.256 97.727,532.425 97.643,532.593 97.643C532.902 97.643,533.183 97.868,533.183 98.205C533.183 98.345,529.083 112.048,528.999 112.188C528.915 112.385,528.718 112.469,528.494 112.469C528.269 112.469,528.044 112.357,527.96 112.132C527.932 112.076,527.904 112.048,527.904 111.992C527.904 111.767,528.157 111.037,529.476 106.629C530.319 103.793,531.021 101.462,531.021 101.462C531.021 101.462,531.021 101.462,531.021 101.462C530.993 101.462,530.908 101.518,530.768 101.63C529.757 102.389,528.494 102.782,527.314 102.782C526.247 102.782,525.208 102.473,524.394 101.799C523.72 101.265,523.383 100.451,523.383 99.609C523.383 98.879,523.636 98.148,524.197 97.559C524.647 97.081,525.208 96.801,525.966 96.688"/></g></g><g class="vf-stavenote" id="vf-auto23148" font-family="Arial"><path stroke-width="1.4" fill="none" stroke="#444" d="M564.743 120L582.733 120"/><g class="vf-notehead" id="vf-auto23152" pointer-events="bounding-box"><path stroke="none" d="M574.847 114.889C574.931 114.889,575.015 114.889,575.156 114.889C575.521 114.889,576.054 114.918,576.251 114.946C578.582 115.283,579.733 116.827,579.733 118.624C579.733 120.534,578.441 122.724,575.858 124.128C574.594 124.802,573.303 125.111,572.123 125.111C569.961 125.111,568.192 124.044,567.827 122.162C567.771 121.881,567.743 121.629,567.743 121.376C567.743 118.343,571 115.283,574.847 114.889"/></g></g><g class="vf-stem" id="vf-auto23083" pointer-events="bounding-box" font-family="Arial"><path stroke-width="1.5" fill="none" d="M91.026 73.5L91.026 18.532"/></g><g class="vf-stem" id="vf-auto23093" pointer-events="bounding-box" font-family="Arial"><path stroke-width="1.5" fill="none" d="M179.745 53.5L179.745 20.75"/></g><g class="vf-stem" id="vf-auto23099" pointer-events="bounding-box" font-family="Arial"><path stroke-width="1.5" fill="none" d="M224.105 83.5L224.105 21.859"/></g><g class="vf-beam" id="vf-auto23154" font-family="Arial"><path stroke="none" d="M90.276 17.763L90.276 22.763L224.355 26.09L224.355 21.09Z"/></g><g class="vf-stem" id="vf-auto23105" pointer-events="bounding-box" font-family="Arial"><path stroke-width="1.5" fill="none" d="M268.465 88.5L268.465 25.75"/></g><g class="vf-stem" id="vf-auto23123" pointer-events="bounding-box" font-family="Arial"><path stroke-width="1.5" fill="none" d="M401.544 118.5L401.544 59.02"/></g><g class="vf-beam" id="vf-auto23155" font-family="Arial"><path stroke="none" d="M267.715 24.813L267.715 29.813L401.794 63.082L401.794 58.082Z"/></g><g class="vf-stem" id="vf-auto23129" pointer-events="bounding-box" font-family="Arial"><path stroke-width="1.5" fill="none" d="M445.904 88.5L445.904 25.75"/></g><g class="vf-stem" id="vf-auto23139" pointer-events="bounding-box" font-family="Arial"><path stroke-width="1.5" fill="none" d="M490.263 88.5L490.263 36.84"/></g><g class="vf-stem" id="vf-auto23149" pointer-events="bounding-box" font-family="Arial"><path stroke-width="1.5" fill="none" d="M578.983 118.5L578.983 59.02"/></g><g class="vf-beam" id="vf-auto23156" font-family="Arial"><path stroke="none" d="M445.154 24.813L445.154 29.813L579.233 63.082L579.233 58.082Z"/></g></svg>