<svg xmlns="http://www.w3.org/2000/svg" stroke-width="0.3" stroke-dasharray="none" fill="black" stroke="black" font-family="Arial, sans-serif" font-size="10pt" font-weight="normal" font-style="normal" width="750" height="300" viewBox="0 0 750 300" style="width: 750px; height: 300px; border: none;"><g class="vf-stave" id="vf-auto24262" stroke-width="1" fill="#999999" stroke="#999999"><path fill="none" d="M30 85L730 85"/><path fill="none" d="M30 95L730 95"/><path fill="none" d="M30 105L730 105"/><path fill="none" d="M30 115L730 115"/><path fill="none" d="M30 125L730 125"/></g><g class="vf-stavebarline" id="vf-auto24263"><rect x="30" y="84.5" width="1" height="41" stroke="none"/></g><g class="vf-stavebarline" id="vf-auto24264"><rect x="730" y="84.5" width="1" height="41" stroke="none"/></g><g class="vf-stavenote" id="vf-auto24265"><path stroke-width="1.4" fill="none" stroke="#444" d="M47 135L66.506 135"/><g class="vf-stem" id="vf-auto24266" pointer-events="bounding-box"><path stroke-width="1.5" fill="none" d="M50.75 111.8L50.75 170"/></g><g class="vf-notehead" id="vf-auto24272" pointer-events="bounding-box"><path stroke="none" d="M63.478 133.428C63.422 138.229,59.294 142.048,54.689 142.048C54.015 142.048,53.313 141.964,52.64 141.795C51.207 141.43,50.562 140.391,50.253 138.959C50.084 138.229,50 137.555,50 136.909C50 132.332,53.566 129.384,57.975 128.008C58.115 127.952,58.34 127.924,58.536 127.924C60.502 127.924,63.506 130.226,63.506 132.81C63.506 133.006,63.506 133.231,63.478 133.428M55.981 137.864C57.694 137.274,59.575 136.348,61.204 134.832C61.232 134.803,61.288 134.635,61.288 134.523C61.288 134.382,61.232 134.27,61.204 134.242C60.474 133.512,59.912 132.529,58.733 132.36C58.564 132.332,58.424 132.332,58.199 132.332C56.458 132.332,55.082 133.456,53.65 134.242C52.752 134.747,51.741 135.814,51.938 136.741C52.134 137.752,53.594 137.555,54.521 137.752C54.886 137.836,55.223 137.836,55.981 137.864"/><path stroke="none" d="M70.506 130 A2 2 0 0 0 66.506 130 A2 2 0 0 0 70.506 130"/><path stroke="none" d="M76.506 130 A2 2 0 0 0 72.506 130 A2 2 0 0 0 76.506 130"/></g><g class="vf-notehead" id="vf-auto24271" pointer-events="bounding-box"><path stroke="none" d="M63.478 123.428C63.422 128.229,59.294 132.048,54.689 132.048C54.015 132.048,53.313 131.964,52.64 131.795C51.207 131.43,50.562 130.391,50.253 128.959C50.084 128.229,50 127.555,50 126.909C50 122.332,53.566 119.384,57.975 118.008C58.115 117.952,58.34 117.924,58.536 117.924C60.502 117.924,63.506 120.226,63.506 122.81C63.506 123.006,63.506 123.231,63.478 123.428M55.981 127.864C57.694 127.274,59.575 126.348,61.204 124.832C61.232 124.803,61.288 124.635,61.288 124.523C61.288 124.382,61.232 124.27,61.204 124.242C60.474 123.512,59.912 122.529,58.733 122.36C58.564 122.332,58.424 122.332,58.199 122.332C56.458 122.332,55.082 123.456,53.65 124.242C52.752 124.747,51.741 125.814,51.938 126.741C52.134 127.752,53.594 127.555,54.521 127.752C54.886 127.836,55.223 127.836,55.981 127.864"/><path stroke="none" d="M70.506 120 A2 2 0 0 0 66.506 120 A2 2 0 0 0 70.506 120"/><path stroke="none" d="M76.506 120 A2 2 0 0 0 72.506 120 A2 2 0 0 0 76.506 120"/></g><g class="vf-notehead" id="vf-auto24270" pointer-events="bounding-box"><path stroke="none" d="M63.478 108.428C63.422 113.229,59.294 117.048,54.689 117.048C54.015 117.048,53.313 116.964,52.64 116.795C51.207 116.43,50.562 115.391,50.253 113.959C50.084 113.229,50 112.555,50 111.909C50 107.332,53.566 104.384,57.975 103.008C58.115 102.952,58.34 102.924,58.536 102.924C60.502 102.924,63.506 105.226,63.506 107.81C63.506 108.006,63.506 108.231,63.478 108.428M55.981 112.864C57.694 112.274,59.575 111.348,61.204 109.832C61.232 109.803,61.288 109.635,61.288 109.523C61.288 109.382,61.232 109.27,61.204 109.242C60.474 108.512,59.912 107.529,58.733 107.36C58.564 107.332,58.424 107.332,58.199 107.332C56.458 107.332,55.082 108.456,53.65 109.242C52.752 109.747,51.741 110.814,51.938 111.741C52.134 112.752,53.594 112.555,54.521 112.752C54.886 112.836,55.223 112.836,55.981 112.864"/><path stroke="none" d="M70.506 110 A2 2 0 0 0 66.506 110 A2 2 0 0 0 70.506 110"/><path stroke="none" d="M76.506 110 A2 2 0 0 0 72.506 110 A2 2 0 0 0 76.506 110"/></g></g><g class="vf-stavenote" id="vf-auto24273"><path stroke-width="1.4" fill="none" stroke="#444" d="M217.156 135L236.663 135"/><g class="vf-stem" id="vf-auto24274" pointer-events="bounding-box"><path stroke-width="1.5" fill="none" d="M220.906 101.8L220.906 170"/></g><g class="vf-notehead" id="vf-auto24280" pointer-events="bounding-box"><path stroke="none" d="M233.635 133.428C233.579 138.229,229.451 142.048,224.846 142.048C224.172 142.048,223.47 141.964,222.796 141.795C221.364 141.43,220.718 140.391,220.409 138.959C220.241 138.229,220.156 137.555,220.156 136.909C220.156 132.332,223.723 129.384,228.131 128.008C228.272 127.952,228.496 127.924,228.693 127.924C230.658 127.924,233.663 130.226,233.663 132.81C233.663 133.006,233.663 133.231,233.635 133.428M226.137 137.864C227.85 137.274,229.732 136.348,231.36 134.832C231.388 134.803,231.445 134.635,231.445 134.523C231.445 134.382,231.388 134.27,231.36 134.242C230.63 133.512,230.069 132.529,228.889 132.36C228.721 132.332,228.58 132.332,228.356 132.332C226.615 132.332,225.239 133.456,223.807 134.242C222.908 134.747,221.897 135.814,222.094 136.741C222.291 137.752,223.751 137.555,224.677 137.752C225.042 137.836,225.379 137.836,226.137 137.864"/><path stroke="none" d="M240.663 130 A2 2 0 0 0 236.663 130 A2 2 0 0 0 240.663 130"/><path stroke="none" d="M246.663 130 A2 2 0 0 0 242.663 130 A2 2 0 0 0 246.663 130"/></g><g class="vf-notehead" id="vf-auto24279" pointer-events="bounding-box"><path stroke="none" d="M233.635 123.428C233.579 128.229,229.451 132.048,224.846 132.048C224.172 132.048,223.47 131.964,222.796 131.795C221.364 131.43,220.718 130.391,220.409 128.959C220.241 128.229,220.156 127.555,220.156 126.909C220.156 122.332,223.723 119.384,228.131 118.008C228.272 117.952,228.496 117.924,228.693 117.924C230.658 117.924,233.663 120.226,233.663 122.81C233.663 123.006,233.663 123.231,233.635 123.428M226.137 127.864C227.85 127.274,229.732 126.348,231.36 124.832C231.388 124.803,231.445 124.635,231.445 124.523C231.445 124.382,231.388 124.27,231.36 124.242C230.63 123.512,230.069 122.529,228.889 122.36C228.721 122.332,228.58 122.332,228.356 122.332C226.615 122.332,225.239 123.456,223.807 124.242C222.908 124.747,221.897 125.814,222.094 126.741C222.291 127.752,223.751 127.555,224.677 127.752C225.042 127.836,225.379 127.836,226.137 127.864"/><path stroke="none" d="M240.663 120 A2 2 0 0 0 236.663 120 A2 2 0 0 0 240.663 120"/><path stroke="none" d="M246.663 120 A2 2 0 0 0 242.663 120 A2 2 0 0 0 246.663 120"/></g><g class="vf-notehead" id="vf-auto24278" pointer-events="bounding-box"><path stroke="none" d="M233.635 98.428C233.579 103.229,229.451 107.048,224.846 107.048C224.172 107.048,223.47 106.964,222.796 106.795C221.364 106.43,220.718 105.391,220.409 103.959C220.241 103.229,220.156 102.555,220.156 101.909C220.156 97.332,223.723 94.384,228.131 93.008C228.272 92.952,228.496 92.924,228.693 92.924C230.658 92.924,233.663 95.226,233.663 97.81C233.663 98.006,233.663 98.231,233.635 98.428M226.137 102.864C227.85 102.274,229.732 101.348,231.36 99.832C231.388 99.803,231.445 99.635,231.445 99.523C231.445 99.382,231.388 99.27,231.36 99.242C230.63 98.512,230.069 97.529,228.889 97.36C228.721 97.332,228.58 97.332,228.356 97.332C226.615 97.332,225.239 98.456,223.807 99.242C222.908 99.747,221.897 100.814,222.094 101.741C222.291 102.752,223.751 102.555,224.677 102.752C225.042 102.836,225.379 102.836,226.137 102.864"/><path stroke="none" d="M240.663 100 A2 2 0 0 0 236.663 100 A2 2 0 0 0 240.663 100"/><path stroke="none" d="M246.663 100 A2 2 0 0 0 242.663 100 A2 2 0 0 0 246.663 100"/><path stroke="none" d="M252.663 100 A2 2 0 0 0 248.663 100 A2 2 0 0 0 252.663 100"/></g></g><g class="vf-stavenote" id="vf-auto24281"><g class="vf-stem" id="vf-auto24282" pointer-events="bounding-box"><path stroke-width="1.5" fill="none" d="M451.218 96.8L451.218 165"/></g><g class="vf-notehead" id="vf-auto24288" pointer-events="bounding-box"><path stroke="none" d="M463.946 128.428C463.89 133.229,459.763 137.048,455.157 137.048C454.484 137.048,453.782 136.964,453.108 136.795C451.676 136.43,451.03 135.391,450.721 133.959C450.552 133.229,450.468 132.555,450.468 131.909C450.468 127.332,454.034 124.384,458.443 123.008C458.583 122.952,458.808 122.924,459.004 122.924C460.97 122.924,463.975 125.226,463.975 127.81C463.975 128.006,463.975 128.231,463.946 128.428M456.449 132.864C458.162 132.274,460.043 131.348,461.672 129.832C461.7 129.803,461.756 129.635,461.756 129.523C461.756 129.382,461.7 129.27,461.672 129.242C460.942 128.512,460.38 127.529,459.201 127.36C459.032 127.332,458.892 127.332,458.667 127.332C456.926 127.332,455.551 128.456,454.118 129.242C453.22 129.747,452.209 130.814,452.406 131.741C452.602 132.752,454.062 132.555,454.989 132.752C455.354 132.836,455.691 132.836,456.449 132.864"/><path stroke="none" d="M470.975 130 A2 2 0 0 0 466.975 130 A2 2 0 0 0 470.975 130"/><path stroke="none" d="M476.975 130 A2 2 0 0 0 472.975 130 A2 2 0 0 0 476.975 130"/><path stroke="none" d="M482.975 130 A2 2 0 0 0 478.975 130 A2 2 0 0 0 482.975 130"/></g><g class="vf-notehead" id="vf-auto24287" pointer-events="bounding-box"><path stroke="none" d="M453.19 98.428C453.134 103.229,449.006 107.048,444.401 107.048C443.727 107.048,443.025 106.964,442.351 106.795C440.919 106.43,440.273 105.391,439.964 103.959C439.796 103.229,439.712 102.555,439.712 101.909C439.712 97.332,443.278 94.384,447.686 93.008C447.827 92.952,448.051 92.924,448.248 92.924C450.214 92.924,453.218 95.226,453.218 97.81C453.218 98.006,453.218 98.231,453.19 98.428M445.693 102.864C447.406 102.274,449.287 101.348,450.916 99.832C450.944 99.803,451 99.635,451 99.523C451 99.382,450.944 99.27,450.916 99.242C450.185 98.512,449.624 97.529,448.444 97.36C448.276 97.332,448.136 97.332,447.911 97.332C446.17 97.332,444.794 98.456,443.362 99.242C442.463 99.747,441.453 100.814,441.649 101.741C441.846 102.752,443.306 102.555,444.232 102.752C444.598 102.836,444.934 102.836,445.693 102.864"/><path stroke="none" d="M470.975 100 A2 2 0 0 0 466.975 100 A2 2 0 0 0 470.975 100"/><path stroke="none" d="M476.975 100 A2 2 0 0 0 472.975 100 A2 2 0 0 0 476.975 100"/></g><g class="vf-notehead" id="vf-auto24286" pointer-events="bounding-box"><path stroke="none" d="M463.946 93.428C463.89 98.229,459.763 102.048,455.157 102.048C454.484 102.048,453.782 101.964,453.108 101.795C451.676 101.43,451.03 100.391,450.721 98.959C450.552 98.229,450.468 97.555,450.468 96.909C450.468 92.332,454.034 89.384,458.443 88.008C458.583 87.952,458.808 87.924,459.004 87.924C460.97 87.924,463.975 90.226,463.975 92.81C463.975 93.006,463.975 93.231,463.946 93.428M456.449 97.864C458.162 97.274,460.043 96.348,461.672 94.832C461.7 94.803,461.756 94.635,461.756 94.523C461.756 94.382,461.7 94.27,461.672 94.242C460.942 93.512,460.38 92.529,459.201 92.36C459.032 92.332,458.892 92.332,458.667 92.332C456.926 92.332,455.551 93.456,454.118 94.242C453.22 94.747,452.209 95.814,452.406 96.741C452.602 97.752,454.062 97.555,454.989 97.752C455.354 97.836,455.691 97.836,456.449 97.864"/><path stroke="none" d="M470.975 90 A2 2 0 0 0 466.975 90 A2 2 0 0 0 470.975 90"/><path stroke="none" d="M476.975 90 A2 2 0 0 0 472.975 90 A2 2 0 0 0 476.975 90"/></g></g><g class="vf-stavenote" id="vf-auto24289"><g class="vf-stem" id="vf-auto24290" pointer-events="bounding-box"><path stroke-width="1.5" fill="none" d="M592.358 97L592.358 162"/></g><g class="vf-notehead" id="vf-auto24297" pointer-events="bounding-box"><path stroke="none" d="M594.753 136.543C595.034 136.599,595.287 136.627,595.568 136.627C599.443 136.627,605.227 131.348,605.115 127.08C605.003 126.041,605.031 124.609,602.925 123.766C602.335 123.485,601.689 123.373,600.987 123.373C596.663 123.373,591.973 128.343,591.636 131.657C591.636 131.909,591.608 132.134,591.608 132.387C591.608 134.409,592.507 136.037,594.753 136.543"/><path stroke="none" d="M612.116 130 A2 2 0 0 0 608.116 130 A2 2 0 0 0 612.116 130"/><path stroke="none" d="M618.116 130 A2 2 0 0 0 614.116 130 A2 2 0 0 0 618.116 130"/><path stroke="none" d="M624.116 130 A2 2 0 0 0 620.116 130 A2 2 0 0 0 624.116 130"/></g><g class="vf-notehead" id="vf-auto24296" pointer-events="bounding-box"><path stroke="none" d="M583.995 106.543C584.276 106.599,584.529 106.627,584.81 106.627C588.685 106.627,594.469 101.348,594.357 97.08C594.244 96.041,594.272 94.609,592.166 93.766C591.577 93.485,590.931 93.373,590.229 93.373C585.905 93.373,581.215 98.343,580.878 101.657C580.878 101.909,580.85 102.134,580.85 102.387C580.85 104.409,581.749 106.037,583.995 106.543"/><path stroke="none" d="M612.116 100 A2 2 0 0 0 608.116 100 A2 2 0 0 0 612.116 100"/><path stroke="none" d="M618.116 100 A2 2 0 0 0 614.116 100 A2 2 0 0 0 618.116 100"/></g><g class="vf-notehead" id="vf-auto24295" pointer-events="bounding-box"><path stroke="none" d="M594.753 101.543C595.034 101.599,595.287 101.627,595.568 101.627C599.443 101.627,605.227 96.348,605.115 92.08C605.003 91.041,605.031 89.609,602.925 88.766C602.335 88.485,601.689 88.373,600.987 88.373C596.663 88.373,591.973 93.343,591.636 96.657C591.636 96.909,591.608 97.134,591.608 97.387C591.608 99.409,592.507 101.037,594.753 101.543"/><path stroke="none" d="M612.116 90 A2 2 0 0 0 608.116 90 A2 2 0 0 0 612.116 90"/><path stroke="none" d="M618.116 90 A2 2 0 0 0 614.116 90 A2 2 0 0 0 618.116 90"/></g><path stroke="none" d="M599.03 134.118C598.861 133.978,598.749 133.894,598.636 133.894C598.496 133.894,598.384 134.034,598.328 134.371C598.299 134.905,598.103 135.41,598.047 135.944C598.019 136.309,597.991 136.674,597.991 137.011C597.991 137.656,598.131 138.246,598.777 138.78C599.507 139.369,599.928 140.324,600.321 141.194C600.434 141.447,600.49 141.728,600.49 142.009C600.49 142.542,600.293 143.104,600.237 143.666C599.956 146.754,598.496 149.338,596.559 151.64C595.8 152.567,595.07 153.578,594.284 154.504C592.403 157.004,591.588 159.84,591.588 162.956L591.588 165.231C591.588 165.989,591.757 166.635,592.571 167L592.768 167C593.049 166.326,593.329 165.624,593.329 164.894C593.329 164.445,593.245 164.08,593.245 163.715C593.273 161.861,594.144 160.289,595.267 158.829C596.25 157.621,597.176 156.358,598.131 155.15C600.321 152.398,601.416 149.253,601.894 145.8C602.062 144.761,602.146 143.722,602.146 142.655C602.146 141.082,601.95 139.51,601.444 137.937C601.023 136.477,600.04 135.27,599.03 134.118"/></g><g class="vf-stavenote" id="vf-auto24299"><g class="vf-stem" id="vf-auto24300" pointer-events="bounding-box"><path stroke-width="1.5" fill="none" d="M678.53 97L678.53 162"/></g><g class="vf-notehead" id="vf-auto24307" pointer-events="bounding-box"><path stroke="none" d="M680.925 136.543C681.206 136.599,681.459 136.627,681.739 136.627C685.614 136.627,691.399 131.348,691.287 127.08C691.174 126.041,691.202 124.609,689.096 123.766C688.507 123.485,687.861 123.373,687.159 123.373C682.835 123.373,678.145 128.343,677.808 131.657C677.808 131.909,677.78 132.134,677.78 132.387C677.78 134.409,678.679 136.037,680.925 136.543"/><path stroke="none" d="M698.288 130 A2 2 0 0 0 694.288 130 A2 2 0 0 0 698.288 130"/><path stroke="none" d="M704.288 130 A2 2 0 0 0 700.288 130 A2 2 0 0 0 704.288 130"/><path stroke="none" d="M710.288 130 A2 2 0 0 0 706.288 130 A2 2 0 0 0 710.288 130"/></g><g class="vf-notehead" id="vf-auto24306" pointer-events="bounding-box"><path stroke="none" d="M670.167 106.543C670.448 106.599,670.701 106.627,670.981 106.627C674.856 106.627,680.641 101.348,680.529 97.08C680.416 96.041,680.444 94.609,678.338 93.766C677.749 93.485,677.103 93.373,676.401 93.373C672.076 93.373,667.387 98.343,667.05 101.657C667.05 101.909,667.022 102.134,667.022 102.387C667.022 104.409,667.921 106.037,670.167 106.543"/><path stroke="none" d="M698.288 100 A2 2 0 0 0 694.288 100 A2 2 0 0 0 698.288 100"/><path stroke="none" d="M704.288 100 A2 2 0 0 0 700.288 100 A2 2 0 0 0 704.288 100"/></g><g class="vf-notehead" id="vf-auto24305" pointer-events="bounding-box"><path stroke="none" d="M680.925 101.543C681.206 101.599,681.459 101.627,681.739 101.627C685.614 101.627,691.399 96.348,691.287 92.08C691.174 91.041,691.202 89.609,689.096 88.766C688.507 88.485,687.861 88.373,687.159 88.373C682.835 88.373,678.145 93.343,677.808 96.657C677.808 96.909,677.78 97.134,677.78 97.387C677.78 99.409,678.679 101.037,680.925 101.543"/><path stroke="none" d="M698.288 90 A2 2 0 0 0 694.288 90 A2 2 0 0 0 698.288 90"/><path stroke="none" d="M704.288 90 A2 2 0 0 0 700.288 90 A2 2 0 0 0 704.288 90"/></g><path stroke="none" d="M685.201 134.118C685.033 133.978,684.921 133.894,684.808 133.894C684.668 133.894,684.556 134.034,684.499 134.371C684.471 134.905,684.275 135.41,684.219 135.944C684.19 136.309,684.162 136.674,684.162 137.011C684.162 137.656,684.303 138.246,684.949 138.78C685.679 139.369,686.1 140.324,686.493 141.194C686.605 141.447,686.662 141.728,686.662 142.009C686.662 142.542,686.465 143.104,686.409 143.666C686.128 146.754,684.668 149.338,682.73 151.64C681.972 152.567,681.242 153.578,680.456 154.504C678.574 157.004,677.76 159.84,677.76 162.956L677.76 165.231C677.76 165.989,677.929 166.635,678.743 167L678.94 167C679.22 166.326,679.501 165.624,679.501 164.894C679.501 164.445,679.417 164.08,679.417 163.715C679.445 161.861,680.315 160.289,681.439 158.829C682.421 157.621,683.348 156.358,684.303 155.15C686.493 152.398,687.588 149.253,688.066 145.8C688.234 144.761,688.318 143.722,688.318 142.655C688.318 141.082,688.122 139.51,687.616 137.937C687.195 136.477,686.212 135.27,685.201 134.118"/></g><g class="vf-stavenote" id="vf-auto24343"><path stroke-width="1.4" fill="none" stroke="#444" d="M47 75L79.263 75"/><g class="vf-stem" id="vf-auto24344" pointer-events="bounding-box"><path stroke-width="1.5" fill="none" d="M62.756 93.2L62.756 35"/></g><g class="vf-notehead" id="vf-auto24348" pointer-events="bounding-box"><path stroke="none" d="M64.203 93.428C64.147 98.229,60.019 102.048,55.414 102.048C54.74 102.048,54.038 101.964,53.365 101.795C51.932 101.43,51.287 100.391,50.978 98.959C50.809 98.229,50.725 97.555,50.725 96.909C50.725 92.332,54.291 89.384,58.7 88.008C58.84 87.952,59.065 87.924,59.261 87.924C61.227 87.924,64.231 90.226,64.231 92.81C64.231 93.006,64.231 93.231,64.203 93.428M56.706 97.864C58.419 97.274,60.3 96.348,61.929 94.832C61.957 94.803,62.013 94.635,62.013 94.523C62.013 94.382,61.957 94.27,61.929 94.242C61.199 93.512,60.637 92.529,59.458 92.36C59.289 92.332,59.149 92.332,58.924 92.332C57.183 92.332,55.807 93.456,54.375 94.242C53.477 94.747,52.466 95.814,52.663 96.741C52.859 97.752,54.319 97.555,55.246 97.752C55.611 97.836,55.948 97.836,56.706 97.864"/><path stroke="none" d="M84.013 90 A2 2 0 0 0 80.013 90 A2 2 0 0 0 84.013 90"/></g><g class="vf-notehead" id="vf-auto24349" pointer-events="bounding-box"><path stroke="none" d="M64.203 73.428C64.147 78.229,60.019 82.048,55.414 82.048C54.74 82.048,54.038 81.964,53.365 81.795C51.932 81.43,51.287 80.391,50.978 78.959C50.809 78.229,50.725 77.555,50.725 76.909C50.725 72.332,54.291 69.384,58.7 68.008C58.84 67.952,59.065 67.924,59.261 67.924C61.227 67.924,64.231 70.226,64.231 72.81C64.231 73.006,64.231 73.231,64.203 73.428M56.706 77.864C58.419 77.274,60.3 76.348,61.929 74.832C61.957 74.803,62.013 74.635,62.013 74.523C62.013 74.382,61.957 74.27,61.929 74.242C61.199 73.512,60.637 72.529,59.458 72.36C59.289 72.332,59.149 72.332,58.924 72.332C57.183 72.332,55.807 73.456,54.375 74.242C53.477 74.747,52.466 75.814,52.663 76.741C52.859 77.752,54.319 77.555,55.246 77.752C55.611 77.836,55.948 77.836,56.706 77.864"/><path stroke="none" d="M84.013 80 A2 2 0 0 0 80.013 80 A2 2 0 0 0 84.013 80"/></g><g class="vf-notehead" id="vf-auto24350" pointer-events="bounding-box"><path stroke="none" d="M74.96 68.428C74.904 73.229,70.776 77.048,66.171 77.048C65.497 77.048,64.795 76.964,64.121 76.795C62.689 76.43,62.043 75.391,61.734 73.959C61.566 73.229,61.481 72.555,61.481 71.909C61.481 67.332,65.048 64.384,69.456 63.008C69.597 62.952,69.821 62.924,70.018 62.924C71.983 62.924,74.988 65.226,74.988 67.81C74.988 68.006,74.988 68.231,74.96 68.428M67.463 72.864C69.175 72.274,71.057 71.348,72.685 69.832C72.713 69.803,72.77 69.635,72.77 69.523C72.77 69.382,72.713 69.27,72.685 69.242C71.955 68.512,71.394 67.529,70.214 67.36C70.046 67.332,69.905 67.332,69.681 67.332C67.94 67.332,66.564 68.456,65.132 69.242C64.233 69.747,63.222 70.814,63.419 71.741C63.616 72.752,65.076 72.555,66.002 72.752C66.367 72.836,66.704 72.836,67.463 72.864"/><path stroke="none" d="M84.013 70 A2 2 0 0 0 80.013 70 A2 2 0 0 0 84.013 70"/></g></g><g class="vf-stavenote" id="vf-auto24351"><path stroke-width="1.4" fill="none" stroke="#444" d="M188.14 75L220.406 75"/><g class="vf-stem" id="vf-auto24352" pointer-events="bounding-box"><path stroke-width="1.5" fill="none" d="M203.898 93L203.898 35"/></g><g class="vf-notehead" id="vf-auto24356" pointer-events="bounding-box"><path stroke="none" d="M194.785 101.543C195.066 101.599,195.319 101.627,195.6 101.627C199.475 101.627,205.259 96.348,205.147 92.08C205.034 91.041,205.062 89.609,202.956 88.766C202.367 88.485,201.721 88.373,201.019 88.373C196.695 88.373,192.005 93.343,191.668 96.657C191.668 96.909,191.64 97.134,191.64 97.387C191.64 99.409,192.539 101.037,194.785 101.543"/><path stroke="none" d="M225.156 90 A2 2 0 0 0 221.156 90 A2 2 0 0 0 225.156 90"/><path stroke="none" d="M231.156 90 A2 2 0 0 0 227.156 90 A2 2 0 0 0 231.156 90"/></g><g class="vf-notehead" id="vf-auto24357" pointer-events="bounding-box"><path stroke="none" d="M194.785 81.543C195.066 81.599,195.319 81.627,195.6 81.627C199.475 81.627,205.259 76.348,205.147 72.08C205.034 71.041,205.062 69.609,202.956 68.766C202.367 68.485,201.721 68.373,201.019 68.373C196.695 68.373,192.005 73.343,191.668 76.657C191.668 76.909,191.64 77.134,191.64 77.387C191.64 79.409,192.539 81.037,194.785 81.543"/><path stroke="none" d="M225.156 80 A2 2 0 0 0 221.156 80 A2 2 0 0 0 225.156 80"/><path stroke="none" d="M231.156 80 A2 2 0 0 0 227.156 80 A2 2 0 0 0 231.156 80"/></g><g class="vf-notehead" id="vf-auto24358" pointer-events="bounding-box"><path stroke="none" d="M205.543 76.543C205.824 76.599,206.077 76.627,206.358 76.627C210.233 76.627,216.017 71.348,215.905 67.08C215.793 66.041,215.821 64.609,213.715 63.766C213.125 63.485,212.479 63.373,211.777 63.373C207.453 63.373,202.763 68.343,202.426 71.657C202.426 71.909,202.398 72.134,202.398 72.387C202.398 74.409,203.297 76.037,205.543 76.543"/><path stroke="none" d="M225.156 70 A2 2 0 0 0 221.156 70 A2 2 0 0 0 225.156 70"/><path stroke="none" d="M231.156 70 A2 2 0 0 0 227.156 70 A2 2 0 0 0 231.156 70"/></g></g><g class="vf-stavenote" id="vf-auto24359"><path stroke-width="1.4" fill="none" stroke="#444" d="M303.296 75L335.562 75"/><g class="vf-stem" id="vf-auto24360" pointer-events="bounding-box"><path stroke-width="1.5" fill="none" d="M319.054 93L319.054 35"/></g><g class="vf-notehead" id="vf-auto24364" pointer-events="bounding-box"><path stroke="none" d="M309.941 101.543C310.222 101.599,310.475 101.627,310.755 101.627C314.63 101.627,320.415 96.348,320.303 92.08C320.19 91.041,320.218 89.609,318.112 88.766C317.523 88.485,316.877 88.373,316.175 88.373C311.85 88.373,307.161 93.343,306.824 96.657C306.824 96.909,306.796 97.134,306.796 97.387C306.796 99.409,307.695 101.037,309.941 101.543"/><path stroke="none" d="M340.312 90 A2 2 0 0 0 336.312 90 A2 2 0 0 0 340.312 90"/></g><g class="vf-notehead" id="vf-auto24365" pointer-events="bounding-box"><path stroke="none" d="M309.941 81.543C310.222 81.599,310.475 81.627,310.755 81.627C314.63 81.627,320.415 76.348,320.303 72.08C320.19 71.041,320.218 69.609,318.112 68.766C317.523 68.485,316.877 68.373,316.175 68.373C311.85 68.373,307.161 73.343,306.824 76.657C306.824 76.909,306.796 77.134,306.796 77.387C306.796 79.409,307.695 81.037,309.941 81.543"/><path stroke="none" d="M340.312 80 A2 2 0 0 0 336.312 80 A2 2 0 0 0 340.312 80"/></g><g class="vf-notehead" id="vf-auto24366" pointer-events="bounding-box"><path stroke="none" d="M320.699 76.543C320.98 76.599,321.233 76.627,321.513 76.627C325.388 76.627,331.173 71.348,331.061 67.08C330.948 66.041,330.976 64.609,328.87 63.766C328.281 63.485,327.635 63.373,326.933 63.373C322.609 63.373,317.919 68.343,317.582 71.657C317.582 71.909,317.554 72.134,317.554 72.387C317.554 74.409,318.453 76.037,320.699 76.543"/><path stroke="none" d="M340.312 70 A2 2 0 0 0 336.312 70 A2 2 0 0 0 340.312 70"/></g></g><g class="vf-stavenote" id="vf-auto24367"><path stroke-width="1.4" fill="none" stroke="#444" d="M418.452 75L450.718 75"/><g class="vf-stem" id="vf-auto24368" pointer-events="bounding-box"><path stroke-width="1.5" fill="none" d="M434.21 93L434.21 38"/></g><g class="vf-notehead" id="vf-auto24374" pointer-events="bounding-box"><path stroke="none" d="M425.097 101.543C425.378 101.599,425.63 101.627,425.911 101.627C429.786 101.627,435.571 96.348,435.458 92.08C435.346 91.041,435.374 89.609,433.268 88.766C432.678 88.485,432.033 88.373,431.331 88.373C427.006 88.373,422.317 93.343,421.98 96.657C421.98 96.909,421.952 97.134,421.952 97.387C421.952 99.409,422.85 101.037,425.097 101.543"/><path stroke="none" d="M452.518 90 A2 2 0 0 0 448.518 90 A2 2 0 0 0 452.518 90"/></g><g class="vf-notehead" id="vf-auto24375" pointer-events="bounding-box"><path stroke="none" d="M425.097 86.543C425.378 86.599,425.63 86.627,425.911 86.627C429.786 86.627,435.571 81.348,435.458 77.08C435.346 76.041,435.374 74.609,433.268 73.766C432.678 73.485,432.033 73.373,431.331 73.373C427.006 73.373,422.317 78.343,421.98 81.657C421.98 81.909,421.952 82.134,421.952 82.387C421.952 84.409,422.85 86.037,425.097 86.543"/><path stroke="none" d="M452.518 80 A2 2 0 0 0 448.518 80 A2 2 0 0 0 452.518 80"/></g><g class="vf-notehead" id="vf-auto24376" pointer-events="bounding-box"><path stroke="none" d="M435.855 81.543C436.136 81.599,436.388 81.627,436.669 81.627C440.544 81.627,446.329 76.348,446.216 72.08C446.104 71.041,446.132 69.609,444.026 68.766C443.437 68.485,442.791 68.373,442.089 68.373C437.764 68.373,433.075 73.343,432.738 76.657C432.738 76.909,432.71 77.134,432.71 77.387C432.71 79.409,433.609 81.037,435.855 81.543"/><path stroke="none" d="M452.518 80 A2 2 0 0 0 448.518 80 A2 2 0 0 0 452.518 80"/></g><g class="vf-notehead" id="vf-auto24377" pointer-events="bounding-box"><path stroke="none" d="M425.097 76.543C425.378 76.599,425.63 76.627,425.911 76.627C429.786 76.627,435.571 71.348,435.458 67.08C435.346 66.041,435.374 64.609,433.268 63.766C432.678 63.485,432.033 63.373,431.331 63.373C427.006 63.373,422.317 68.343,421.98 71.657C421.98 71.909,421.952 72.134,421.952 72.387C421.952 74.409,422.85 76.037,425.097 76.543"/><path stroke="none" d="M452.518 70 A2 2 0 0 0 448.518 70 A2 2 0 0 0 452.518 70"/></g><path stroke="none" d="M440.881 65.882C441.892 64.73,442.875 63.523,443.296 62.063C443.802 60.49,443.998 58.918,443.998 57.345C443.998 56.278,443.914 55.239,443.745 54.2C443.268 50.747,442.173 47.602,439.983 44.85C439.028 43.642,438.101 42.379,437.118 41.171C435.995 39.711,435.293 38.391,435.265 36.51C435.265 36.145,435.181 35.555,435.181 35.106C435.181 34.376,434.9 33.674,434.619 33L434.423 33C433.608 33.365,433.44 34.011,433.44 34.769L433.44 37.044C433.44 40.16,434.254 42.996,436.136 45.496C436.922 46.422,437.652 47.433,438.41 48.36C440.348 50.662,441.808 53.246,442.089 56.334C442.145 56.896,442.341 57.458,442.341 57.991C442.341 58.272,442.285 58.553,442.173 58.806C441.78 59.676,441.359 60.631,440.628 61.22C439.983 61.754,439.842 62.344,439.842 62.989C439.842 63.326,439.87 63.691,439.898 64.056C439.955 64.59,440.151 65.095,440.179 65.629C440.235 65.966,440.348 66.106,440.488 66.106C440.6 66.106,440.713 66.022,440.881 65.882"/></g><g class="vf-stavenote" id="vf-auto24379"><path stroke-width="1.4" fill="none" stroke="#444" d="M509.923 75L542.19 75"/><g class="vf-stem" id="vf-auto24380" pointer-events="bounding-box"><path stroke-width="1.5" fill="none" d="M525.682 93L525.682 38"/></g><g class="vf-notehead" id="vf-auto24385" pointer-events="bounding-box"><path stroke="none" d="M516.568 101.543C516.849 101.599,517.102 101.627,517.383 101.627C521.258 101.627,527.042 96.348,526.93 92.08C526.818 91.041,526.846 89.609,524.74 88.766C524.15 88.485,523.504 88.373,522.802 88.373C518.478 88.373,513.788 93.343,513.452 96.657C513.452 96.909,513.423 97.134,513.423 97.387C513.423 99.409,514.322 101.037,516.568 101.543"/><path stroke="none" d="M543.99 90 A2 2 0 0 0 539.99 90 A2 2 0 0 0 543.99 90"/></g><g class="vf-notehead" id="vf-auto24386" pointer-events="bounding-box"><path stroke="none" d="M516.568 81.543C516.849 81.599,517.102 81.627,517.383 81.627C521.258 81.627,527.042 76.348,526.93 72.08C526.818 71.041,526.846 69.609,524.74 68.766C524.15 68.485,523.504 68.373,522.802 68.373C518.478 68.373,513.788 73.343,513.452 76.657C513.452 76.909,513.423 77.134,513.423 77.387C513.423 79.409,514.322 81.037,516.568 81.543"/><path stroke="none" d="M543.99 80 A2 2 0 0 0 539.99 80 A2 2 0 0 0 543.99 80"/></g><g class="vf-notehead" id="vf-auto24387" pointer-events="bounding-box"><path stroke="none" d="M527.326 76.543C527.607 76.599,527.86 76.627,528.141 76.627C532.016 76.627,537.8 71.348,537.688 67.08C537.576 66.041,537.604 64.609,535.498 63.766C534.908 63.485,534.262 63.373,533.56 63.373C529.236 63.373,524.547 68.343,524.21 71.657C524.21 71.909,524.182 72.134,524.182 72.387C524.182 74.409,525.08 76.037,527.326 76.543"/><path stroke="none" d="M543.99 70 A2 2 0 0 0 539.99 70 A2 2 0 0 0 543.99 70"/></g><path stroke="none" d="M532.353 65.882C533.364 64.73,534.346 63.523,534.768 62.063C535.273 60.49,535.47 58.918,535.47 57.345C535.47 56.278,535.385 55.239,535.217 54.2C534.74 50.747,533.644 47.602,531.454 44.85C530.499 43.642,529.573 42.379,528.59 41.171C527.467 39.711,526.765 38.391,526.737 36.51C526.737 36.145,526.652 35.555,526.652 35.106C526.652 34.376,526.372 33.674,526.091 33L525.894 33C525.08 33.365,524.912 34.011,524.912 34.769L524.912 37.044C524.912 40.16,525.726 42.996,527.607 45.496C528.393 46.422,529.124 47.433,529.882 48.36C531.819 50.662,533.279 53.246,533.56 56.334C533.616 56.896,533.813 57.458,533.813 57.991C533.813 58.272,533.757 58.553,533.644 58.806C533.251 59.676,532.83 60.631,532.1 61.22C531.454 61.754,531.314 62.344,531.314 62.989C531.314 63.326,531.342 63.691,531.37 64.056C531.426 64.59,531.623 65.095,531.651 65.629C531.707 65.966,531.819 66.106,531.96 66.106C532.072 66.106,532.184 66.022,532.353 65.882"/></g><text stroke="none" font-size="8pt" x="50" y="190">33px</text><path stroke-width="3" fill="none" stroke="red" d="M50 197L50 197"/><path stroke-width="3" fill="none" stroke="#999" d="M50 197L50 197"/><path stroke-width="3" fill="none" stroke="green" d="M50 197L63.506 197"/><path stroke-width="3" fill="none" stroke="#999" d="M63.506 197L63.506 197"/><path stroke-width="3" fill="none" stroke="red" d="M63.506 197L83.013 197"/><path stroke-width="3" fill="none" stroke="#DD0" d="M83.013 197L220.156 197"/><path stroke-width="3" fill="none" stroke="#BBB" d="M50 197L50 197"/><path stroke-width="3" fill="blue" stroke="none" d="M53 197 A3 3 0 0 0 47 197 A3 3 0 0 0 53 197Z"/><text stroke-width="3" fill="red" stroke="none" font-size="8pt" x="50" y="180">+14</text><text stroke="none" font-size="8pt" x="220.156" y="190">68px</text><path stroke-width="3" fill="none" stroke="red" d="M220.156 197L220.156 197"/><path stroke-width="3" fill="none" stroke="#999" d="M220.156 197L220.156 197"/><path stroke-width="3" fill="none" stroke="green" d="M220.156 197L233.663 197"/><path stroke-width="3" fill="none" stroke="#999" d="M233.663 197L233.663 197"/><path stroke-width="3" fill="none" stroke="red" d="M233.663 197L288.187 197"/><path stroke-width="3" fill="none" stroke="#DD0" d="M288.187 197L436.962 197"/><path stroke-width="3" fill="none" stroke="#BBB" d="M191.14 197L220.156 197"/><path stroke-width="3" fill="blue" stroke="none" d="M223.156 197 A3 3 0 0 0 217.156 197 A3 3 0 0 0 223.156 197Z"/><text stroke-width="3" fill="red" stroke="none" font-size="8pt" x="220.156" y="180">+74</text><text stroke="none" font-size="8pt" x="436.962" y="190">74px</text><path stroke-width="3" fill="none" stroke="red" d="M436.962 197L436.962 197"/><path stroke-width="3" fill="none" stroke="#999" d="M436.962 197L450.468 197"/><path stroke-width="3" fill="none" stroke="green" d="M450.468 197L463.975 197"/><path stroke-width="3" fill="none" stroke="#999" d="M463.975 197L463.975 197"/><path stroke-width="3" fill="none" stroke="red" d="M463.975 197L510.991 197"/><path stroke-width="3" fill="none" stroke="#DD0" d="M510.991 197L578.1 197"/><path stroke-width="3" fill="none" stroke="#BBB" d="M407.945 197L436.962 197"/><path stroke-width="3" fill="blue" stroke="none" d="M453.468 197 A3 3 0 0 0 447.468 197 A3 3 0 0 0 453.468 197Z"/><text stroke-width="3" fill="red" stroke="none" font-size="8pt" x="450.468" y="180">-15</text><text stroke="none" font-size="8pt" x="578.1" y="190">45px</text><path stroke-width="3" fill="none" stroke="red" d="M578.1 197L578.1 197"/><path stroke-width="3" fill="none" stroke="#999" d="M578.1 197L591.608 197"/><path stroke-width="3" fill="none" stroke="green" d="M591.608 197L605.116 197"/><path stroke-width="3" fill="none" stroke="#999" d="M605.116 197L605.116 197"/><path stroke-width="3" fill="none" stroke="red" d="M605.116 197L623.116 197"/><path stroke-width="3" fill="none" stroke="#DD0" d="M623.116 197L664.272 197"/><path stroke-width="3" fill="none" stroke="#BBB" d="M578.1 197L578.1 197"/><path stroke-width="3" fill="blue" stroke="none" d="M594.608 197 A3 3 0 0 0 588.608 197 A3 3 0 0 0 594.608 197Z"/><text stroke-width="3" fill="red" stroke="none" font-size="8pt" x="591.608" y="180">-75</text><text stroke="none" font-size="8pt" x="664.272" y="190">45px</text><path stroke-width="3" fill="none" stroke="red" d="M664.272 197L664.272 197"/><path stroke-width="3" fill="none" stroke="#999" d="M664.272 197L677.78 197"/><path stroke-width="3" fill="none" stroke="green" d="M677.78 197L691.288 197"/><path stroke-width="3" fill="none" stroke="#999" d="M691.288 197L691.288 197"/><path stroke-width="3" fill="none" stroke="red" d="M691.288 197L709.288 197"/><path stroke-width="3" fill="none" stroke="#DD0" d="M709.288 197L750 197"/><path stroke-width="3" fill="none" stroke="#BBB" d="M664.272 197L664.272 197"/><path stroke-width="3" fill="blue" stroke="none" d="M680.78 197 A3 3 0 0 0 674.78 197 A3 3 0 0 0 680.78 197Z"/><text stroke-width="3" fill="red" stroke="none" font-size="8pt" x="677.78" y="180">-89</text><text stroke="none" font-size="8pt" x="50" y="20">47px</text><path stroke-width="3" fill="none" stroke="red" d="M50 27L50 27"/><path stroke-width="3" fill="none" stroke="#999" d="M50 27L50 27"/><path stroke-width="3" fill="none" stroke="green" d="M50 27L63.506 27"/><path stroke-width="3" fill="none" stroke="#999" d="M63.506 27L77.013 27"/><path stroke-width="3" fill="none" stroke="red" d="M77.013 27L96.519 27"/><path stroke-width="3" fill="none" stroke="#DD0" d="M96.519 27L191.14 27"/><path stroke-width="3" fill="none" stroke="#BBB" d="M50 27L50 27"/><path stroke-width="3" fill="blue" stroke="none" d="M53 27 A3 3 0 0 0 47 27 A3 3 0 0 0 53 27Z"/><text stroke-width="3" fill="red" stroke="none" font-size="8pt" x="50" y="10">-15</text><text stroke="none" font-size="8pt" x="191.14" y="20">82px</text><path stroke-width="3" fill="none" stroke="red" d="M191.14 27L191.14 27"/><path stroke-width="3" fill="none" stroke="#999" d="M191.14 27L191.14 27"/><path stroke-width="3" fill="none" stroke="green" d="M191.14 27L204.648 27"/><path stroke-width="3" fill="none" stroke="#999" d="M204.648 27L218.156 27"/><path stroke-width="3" fill="none" stroke="red" d="M218.156 27L272.681 27"/><path stroke-width="3" fill="none" stroke="#DD0" d="M272.681 27L306.296 27"/><path stroke-width="3" fill="none" stroke="#BBB" d="M191.14 27L191.14 27"/><path stroke-width="3" fill="blue" stroke="none" d="M194.14 27 A3 3 0 0 0 188.14 27 A3 3 0 0 0 194.14 27Z"/><text stroke-width="3" fill="red" stroke="none" font-size="8pt" x="191.14" y="10">+0</text><text stroke="none" font-size="8pt" x="306.296" y="20">47px</text><path stroke-width="3" fill="none" stroke="red" d="M306.296 27L306.296 27"/><path stroke-width="3" fill="none" stroke="#999" d="M306.296 27L306.296 27"/><path stroke-width="3" fill="none" stroke="green" d="M306.296 27L319.804 27"/><path stroke-width="3" fill="none" stroke="#999" d="M319.804 27L333.312 27"/><path stroke-width="3" fill="none" stroke="red" d="M333.312 27L352.82 27"/><path stroke-width="3" fill="none" stroke="#DD0" d="M352.82 27L421.452 27"/><path stroke-width="3" fill="none" stroke="#BBB" d="M306.296 27L306.296 27"/><path stroke-width="3" fill="blue" stroke="none" d="M309.296 27 A3 3 0 0 0 303.296 27 A3 3 0 0 0 309.296 27Z"/><text stroke-width="3" fill="red" stroke="none" font-size="8pt" x="306.296" y="10">0</text><text stroke="none" font-size="8pt" x="421.452" y="20">74px</text><path stroke-width="3" fill="none" stroke="red" d="M421.452 27L421.452 27"/><path stroke-width="3" fill="none" stroke="#999" d="M421.452 27L421.452 27"/><path stroke-width="3" fill="none" stroke="green" d="M421.452 27L448.468 27"/><path stroke-width="3" fill="none" stroke="#999" d="M448.468 27L448.468 27"/><path stroke-width="3" fill="none" stroke="red" d="M448.468 27L495.484 27"/><path stroke-width="3" fill="none" stroke="#DD0" d="M495.484 27L512.923 27"/><path stroke-width="3" fill="none" stroke="#BBB" d="M421.452 27L421.452 27"/><path stroke-width="3" fill="blue" stroke="none" d="M424.452 27 A3 3 0 0 0 418.452 27 A3 3 0 0 0 424.452 27Z"/><text stroke-width="3" fill="red" stroke="none" font-size="8pt" x="421.452" y="10">-70</text><text stroke="none" font-size="8pt" x="512.923" y="20">33px</text><path stroke-width="3" fill="none" stroke="red" d="M512.923 27L512.923 27"/><path stroke-width="3" fill="none" stroke="#999" d="M512.923 27L512.923 27"/><path stroke-width="3" fill="none" stroke="green" d="M512.923 27L539.94 27"/><path stroke-width="3" fill="none" stroke="#999" d="M539.94 27L539.94 27"/><path stroke-width="3" fill="none" stroke="red" d="M539.94 27L545.94 27"/><path stroke-width="3" fill="none" stroke="#DD0" d="M545.94 27L750 27"/><path stroke-width="3" fill="none" stroke="#BBB" d="M512.923 27L512.923 27"/><path stroke-width="3" fill="blue" stroke="none" d="M515.923 27 A3 3 0 0 0 509.923 27 A3 3 0 0 0 515.923 27Z"/><text stroke-width="3" fill="red" stroke="none" font-size="8pt" x="512.923" y="10">+76</text><path stroke-width="10" fill="none" stroke="green" d="M620 216L630 216"/><text stroke-width="10" stroke="none" font-size="8pt" x="635" y="220">Note + Flag</text><path stroke-width="10" fill="none" stroke="red" d="M620 228L630 228"/><text stroke-width="10" stroke="none" font-size="8pt" x="635" y="232">Modifiers</text><path stroke-width="10" fill="none" stroke="#999" d="M620 240L630 240"/><text stroke-width="10" stroke="none" font-size="8pt" x="635" y="244">Displaced Head</text><path stroke-width="10" fill="none" stroke="#DDD" d="M620 252L630 252"/><text stroke-width="10" stroke="none" font-size="8pt" x="635" y="256">Formatter Shift</text></svg>