<svg xmlns="http://www.w3.org/2000/svg" stroke-width="0.3" stroke-dasharray="none" fill="black" stroke="black" font-family="Arial, sans-serif" font-size="10pt" font-weight="normal" font-style="normal" width="500" height="240" viewBox="0 0 333.3333333333333 160" style="width: 500px; height: 240px; border: none;"><g class="vf-stave" id="vf-auto3152" stroke-width="1" fill="#999999" stroke="#999999"><path fill="none" d="M10 50L310 50"/><path fill="none" d="M10 60L310 60"/><path fill="none" d="M10 70L310 70"/><path fill="none" d="M10 80L310 80"/><path fill="none" d="M10 90L310 90"/></g><g class="vf-stavebarline" id="vf-auto3153"><rect x="10" y="49.5" width="1" height="41" stroke="none"/></g><g class="vf-stavebarline" id="vf-auto3154"><rect x="310" y="49.5" width="1" height="41" stroke="none"/></g><g class="vf-clef" id="vf-auto3155"><path stroke="none" d="M23.693 101.402C23.87 101.402,24.048 101.377,24.276 101.301C24.707 101.148,25.062 100.92,25.366 100.591C28.382 97.423,29.623 93.596,29.75 89.313C29.75 88.983,29.776 88.451,29.776 88.451C29.776 88.451,30.282 88.147,30.511 88.071C31.727 87.488,32.893 86.829,33.932 85.993C36.72 83.762,38.316 80.747,39.051 77.376C39.204 76.844,39.229 76.286,39.229 75.779C39.229 73.473,37.962 71.8,35.047 71.268C34.312 71.116,33.577 71.04,32.842 71.04C31.017 71.04,29.269 71.521,27.621 72.484C27.419 72.611,27.19 72.763,27.19 72.763L26.253 69.215C26.202 69.038,26.202 68.708,26.202 68.708C26.202 68.708,29.928 62.093,30.434 58.697C30.612 57.709,30.688 56.72,30.688 55.757C30.688 54.972,30.663 54.237,30.536 53.527C30.181 50.891,29.193 48.408,28.534 45.848C28.356 45.088,28.103 44.175,27.216 44.175C26.557 44.175,26.101 44.809,25.695 45.341C23.82 47.926,22.907 50.891,22.73 54.059C22.705 54.566,22.705 55.098,22.705 55.605C22.705 58.545,23.186 61.51,23.566 64.425C23.566 64.653,23.642 64.881,23.693 65.059C22.046 67.39,20.221 69.57,18.65 71.978C17.56 73.701,16.343 75.424,15.583 77.35C15.177 78.288,15 79.403,15 80.493C15 82.749,15.76 85.055,17.078 86.322C17.839 87.057,19.055 87.868,20.246 88.299C21.944 88.907,23.617 89.313,25.391 89.313C25.923 89.313,26.455 89.287,27.013 89.211L27.444 89.135C27.444 89.135,27.469 89.465,27.444 89.642C27.038 91.847,26.506 94.001,25.188 95.826C24.479 96.764,23.82 97.828,22.451 97.93C22.046 97.98,21.868 98.234,21.868 98.563C21.868 98.69,21.894 98.817,21.944 98.944C22.147 99.501,22.4 100.084,22.654 100.642C22.882 101.148,23.237 101.402,23.693 101.402M25.138 62.828C24.859 61.08,24.681 59.356,24.681 57.633C24.681 54.465,25.34 51.373,27.19 48.408C27.621 49.751,27.849 51.119,27.849 52.488C27.849 53.198,27.773 53.933,27.672 54.642C27.19 57.506,26.532 60.269,25.138 62.828M21.387 84.421C20.88 84.396,20.449 84.219,19.967 84.067C19.004 83.737,18.219 83.382,17.965 82.749C17.839 82.47,17.813 82.14,17.813 81.811C17.813 81.406,17.889 80.975,17.965 80.518C17.991 80.316,18.219 79.682,18.295 79.581C19.714 77.046,21.412 74.765,23.211 72.459L24.732 70.457L25.011 71.268C25.29 72.18,25.543 73.625,25.543 73.625C25.543 73.625,24.529 74.943,23.87 75.602C22.046 77.376,21.159 79.606,21.159 82.064C21.159 82.673,21.235 83.306,21.361 83.965C21.387 84.092,21.387 84.219,21.387 84.421M29.269 83.306C28.99 80.924,28.432 79.023,27.925 76.742C27.875 76.463,27.875 76.286,28.001 76.134C28.939 75.957,29.852 75.881,30.815 75.881C31.727 75.881,32.589 75.957,33.501 76.134C34.591 76.362,35.681 76.539,36.542 77.426C36.593 77.503,36.669 77.579,36.745 77.604C35.301 80.518,33.146 82.723,30.08 84.067L29.421 84.32M25.391 85.055C24.124 85.055,22.882 84.726,22.882 84.726C22.882 84.726,22.781 84.219,22.781 83.484C22.781 83.002,22.806 82.419,22.958 81.836C23.313 80.088,24.555 78.846,25.873 77.68C25.974 77.579,26.101 77.503,26.177 77.503C26.303 77.503,26.354 77.655,26.379 77.908C26.709 80.062,27.266 82.166,27.419 84.32C27.444 84.548,27.419 84.878,27.419 84.878C27.419 84.878,26.455 85.131,25.391 85.055"/></g><g class="vf-stavenote" id="vf-auto3156"><path stroke-width="1.4" fill="none" stroke="#444" d="M62.764 100L82.272 100"/><path stroke-width="1.4" fill="none" stroke="#444" d="M62.764 110L82.272 110"/><g class="vf-stem" id="vf-auto3157" pointer-events="bounding-box"><path stroke-width="1.5" fill="none" d="M78.522 108L78.522 73"/></g><g class="vf-notehead" id="vf-auto3160" pointer-events="bounding-box"><path stroke="none" d="M69.409 116.543C69.69 116.599,69.942 116.627,70.223 116.627C74.098 116.627,79.883 111.348,79.77 107.08C79.658 106.041,79.686 104.609,77.58 103.766C76.99 103.485,76.345 103.373,75.643 103.373C71.318 103.373,66.629 108.343,66.292 111.657C66.292 111.909,66.264 112.134,66.264 112.387C66.264 114.409,67.162 116.037,69.409 116.543"/><g class="vf-annotation" id="vf-auto3162"><text stroke="none" x="56.229" y="135.326">good</text></g></g><path stroke="none" d="M85.193 100.882C86.204 99.73,87.187 98.523,87.608 97.063C88.113 95.49,88.31 93.918,88.31 92.345C88.31 91.278,88.226 90.239,88.057 89.2C87.58 85.747,86.485 82.602,84.295 79.85C83.34 78.642,82.413 77.379,81.43 76.171C80.307 74.711,79.605 73.391,79.577 71.51C79.577 71.145,79.493 70.555,79.493 70.106C79.493 69.376,79.212 68.674,78.931 68L78.735 68C77.92 68.365,77.752 69.011,77.752 69.769L77.752 72.044C77.752 75.16,78.566 77.996,80.448 80.496C81.234 81.422,81.964 82.433,82.722 83.36C84.66 85.662,86.12 88.246,86.401 91.334C86.457 91.896,86.653 92.458,86.653 92.991C86.653 93.272,86.597 93.553,86.485 93.806C86.092 94.676,85.671 95.631,84.94 96.22C84.295 96.754,84.154 97.344,84.154 97.989C84.154 98.326,84.182 98.691,84.21 99.056C84.267 99.59,84.463 100.095,84.491 100.629C84.547 100.966,84.66 101.106,84.8 101.106C84.912 101.106,85.025 101.022,85.193 100.882"/></g><g class="vf-stavenote" id="vf-auto3163"><path stroke-width="1.4" fill="none" stroke="#444" d="M125.097 100L144.605 100"/><path stroke-width="1.4" fill="none" stroke="#444" d="M125.097 110L144.605 110"/><g class="vf-notehead" id="vf-auto3167" pointer-events="bounding-box"><path stroke="none" d="M131.742 121.543C132.023 121.599,132.276 121.627,132.557 121.627C136.432 121.627,142.216 116.348,142.104 112.08C141.991 111.041,142.019 109.609,139.913 108.766C139.324 108.485,138.678 108.373,137.976 108.373C133.652 108.373,128.962 113.343,128.625 116.657C128.625 116.909,128.597 117.134,128.597 117.387C128.597 119.409,129.496 121.037,131.742 121.543"/><g class="vf-annotation" id="vf-auto3169"><text stroke="none" x="119.656" y="137.676">even</text></g></g></g><g class="vf-stavenote" id="vf-auto3170"><path stroke-width="1.4" fill="none" stroke="#444" d="M187.431 100L206.939 100"/><g class="vf-notehead" id="vf-auto3174" pointer-events="bounding-box"><path stroke="none" d="M194.076 106.543C194.356 106.599,194.609 106.627,194.89 106.627C198.765 106.627,204.549 101.348,204.437 97.08C204.325 96.041,204.353 94.609,202.247 93.766C201.657 93.485,201.011 93.373,200.309 93.373C195.985 93.373,191.296 98.343,190.959 101.657C190.959 101.909,190.931 102.134,190.931 102.387C190.931 104.409,191.829 106.037,194.076 106.543"/><g class="vf-annotation" id="vf-auto3176"><text stroke="none" x="178.666" y="122.676">under</text></g></g></g><g class="vf-stavenote" id="vf-auto3177"><g class="vf-notehead" id="vf-auto3181" pointer-events="bounding-box"><path stroke="none" d="M256.409 101.543C256.69 101.599,256.942 101.627,257.223 101.627C261.098 101.627,266.883 96.348,266.77 92.08C266.658 91.041,266.686 89.609,264.58 88.766C263.99 88.485,263.345 88.373,262.643 88.373C258.318 88.373,253.629 93.343,253.292 96.657C253.292 96.909,253.264 97.134,253.264 97.387C253.264 99.409,254.162 101.037,256.409 101.543"/><g class="vf-annotation" id="vf-auto3183"><text stroke="none" x="242.103" y="117.676">beam</text></g></g></g><g class="vf-stem" id="vf-auto3164" pointer-events="bounding-box"><path stroke-width="1.5" fill="none" d="M140.855 113L140.855 70.1"/></g><g class="vf-stem" id="vf-auto3171" pointer-events="bounding-box"><path stroke-width="1.5" fill="none" d="M203.189 98L203.189 65.425"/></g><g class="vf-stem" id="vf-auto3178" pointer-events="bounding-box"><path stroke-width="1.5" fill="none" d="M265.522 93L265.522 60.75"/></g><g class="vf-beam" id="vf-auto3184"><path stroke="none" d="M140.105 69.406L140.105 74.406L265.772 65.056L265.772 60.056Z"/></g></svg>