<svg xmlns="http://www.w3.org/2000/svg" stroke-width="0.3" stroke-dasharray="none" fill="black" stroke="black" font-family="Arial, sans-serif" font-size="10pt" font-weight="normal" font-style="normal" width="700" height="150" viewBox="0 0 700 150" style="width: 700px; height: 150px; border: none;"><g class="vf-stave" id="vf-auto18708" stroke-width="1" fill="#999999" stroke="#999999"><path fill="none" d="M0 40L690 40"/><path fill="none" d="M0 50L690 50"/><path fill="none" d="M0 60L690 60"/><path fill="none" d="M0 70L690 70"/><path fill="none" d="M0 80L690 80"/></g><g class="vf-stavebarline" id="vf-auto18709"><rect y="39.5" width="1" height="41" stroke="none"/></g><g class="vf-stavebarline" id="vf-auto18710"><rect x="690" y="39.5" width="1" height="41" stroke="none"/></g><g class="vf-keysignature" id="vf-auto18711"><path stroke="none" d="M10.527 55.13C10.828 55.103,10.91 54.665,10.992 54.391C11.156 53.872,11.183 53.352,11.183 52.887C11.183 52.449,11.156 52.066,11.156 51.628C11.156 51.354,11.156 50.999,11.183 50.725C11.265 49.932,11.348 49.138,11.375 48.345L13.126 47.989C13.208 49.658,13.509 51.272,14.056 52.832C14.111 53.051,14.248 53.27,14.494 53.27C14.74 53.324,14.822 53.051,14.932 52.832C15.205 52.421,15.233 51.902,15.233 51.436C15.287 51.081,15.287 50.752,15.287 50.452C15.287 49.494,15.205 48.509,15.178 47.551L17.449 47.086C19.61 46.648,19.884 46.348,20.048 44.268C20.048 43.748,20.103 43.393,20.048 42.982C20.021 42.49,19.802 42.134,19.391 42.134L19.309 42.134C19.145 42.134,19.036 42.134,18.872 42.161C17.969 42.408,16.984 42.599,16.026 42.763L15.369 42.873C15.397 42.326,15.397 41.724,15.452 41.149C15.479 39.891,15.506 38.632,15.506 37.373C16.628 37.072,17.695 36.772,18.762 36.416C19.337 36.224,19.856 35.896,20.021 35.267C20.157 34.555,20.376 33.899,20.376 33.187C20.376 32.777,20.322 32.367,20.157 31.956C20.021 31.573,19.884 31.382,19.665 31.382L19.583 31.382C19.446 31.382,19.309 31.382,19.145 31.464C17.914 31.956,16.71 32.367,15.452 32.722L15.315 30.588C15.233 28.892,15.178 27.168,14.822 25.472C14.74 25.253,14.768 24.897,14.521 24.897L14.494 24.897L14.384 24.897C14.056 24.979,13.673 25.116,13.618 25.554L13.618 26.293C13.618 28.618,13.7 30.889,13.755 33.187L11.648 33.652C11.648 32.476,11.621 31.3,11.539 30.123C11.512 29.521,11.512 28.974,11.183 28.372C10.308 28.81,10.445 29.548,10.445 30.178C10.363 31.464,10.308 32.668,10.28 33.899C9.186 34.118,8.064 34.282,6.97 34.473C5.356 34.747,5.109 34.993,5.109 36.772C5 37.209,5.328 37.702,5.274 38.194C5.192 38.933,5.383 39.179,5.903 39.207C6.012 39.207,6.149 39.179,6.313 39.124C7.599 38.933,8.858 38.741,10.116 38.495L10.007 42.052C9.952 42.709,9.897 43.338,9.815 43.967C8.338 44.268,6.888 44.542,5.438 44.897C4.617 45.089,4.124 45.39,4.124 46.348C4.124 47.278,4.48 48.153,4.535 49.056C4.535 49.494,4.644 49.685,4.973 49.74C5.027 49.74,5.164 49.685,5.328 49.658C6.724 49.33,8.146 49.056,9.569 48.755C9.542 49.248,9.542 49.768,9.542 50.315C9.542 51.71,9.679 53.051,10.171 54.391C10.253 54.665,10.171 55.13,10.527 55.13M11.566 43.612C11.621 42.763,11.621 41.888,11.648 41.012C11.703 40.082,11.703 39.179,11.703 38.222C12.36 38.112,12.989 38.003,13.618 37.839C13.427 39.644,13.345 41.45,13.235 43.283"/><path stroke="none" d="M27.779 70.13C28.08 70.103,28.162 69.665,28.244 69.391C28.408 68.872,28.435 68.352,28.435 67.887C28.435 67.449,28.408 67.066,28.408 66.628C28.408 66.354,28.408 65.999,28.435 65.725C28.517 64.932,28.599 64.138,28.627 63.345L30.378 62.989C30.46 64.658,30.761 66.272,31.308 67.832C31.363 68.051,31.5 68.27,31.746 68.27C31.992 68.324,32.074 68.051,32.184 67.832C32.457 67.421,32.484 66.902,32.484 66.436C32.539 66.081,32.539 65.752,32.539 65.452C32.539 64.494,32.457 63.509,32.43 62.551L34.701 62.086C36.862 61.648,37.136 61.348,37.3 59.268C37.3 58.748,37.355 58.393,37.3 57.982C37.272 57.49,37.054 57.134,36.643 57.134L36.561 57.134C36.397 57.134,36.288 57.134,36.123 57.161C35.22 57.408,34.236 57.599,33.278 57.763L32.621 57.873C32.649 57.326,32.649 56.724,32.703 56.149C32.731 54.891,32.758 53.632,32.758 52.373C33.88 52.072,34.947 51.772,36.014 51.416C36.588 51.224,37.108 50.896,37.272 50.267C37.409 49.555,37.628 48.899,37.628 48.187C37.628 47.777,37.573 47.367,37.409 46.956C37.272 46.573,37.136 46.382,36.917 46.382L36.835 46.382C36.698 46.382,36.561 46.382,36.397 46.464C35.166 46.956,33.962 47.367,32.703 47.722L32.567 45.588C32.484 43.892,32.43 42.168,32.074 40.472C31.992 40.253,32.019 39.897,31.773 39.897L31.746 39.897L31.636 39.897C31.308 39.979,30.925 40.116,30.87 40.554L30.87 41.293C30.87 43.618,30.952 45.889,31.007 48.187L28.9 48.652C28.9 47.476,28.873 46.3,28.791 45.123C28.764 44.521,28.764 43.974,28.435 43.372C27.56 43.81,27.696 44.548,27.696 45.178C27.614 46.464,27.56 47.668,27.532 48.899C26.438 49.118,25.316 49.282,24.222 49.473C22.608 49.747,22.361 49.993,22.361 51.772C22.252 52.209,22.58 52.702,22.525 53.194C22.443 53.933,22.635 54.179,23.155 54.207C23.264 54.207,23.401 54.179,23.565 54.124C24.851 53.933,26.11 53.741,27.368 53.495L27.259 57.052C27.204 57.709,27.149 58.338,27.067 58.967C25.59 59.268,24.14 59.542,22.69 59.897C21.869 60.089,21.376 60.39,21.376 61.348C21.376 62.278,21.732 63.153,21.787 64.056C21.787 64.494,21.896 64.685,22.224 64.74C22.279 64.74,22.416 64.685,22.58 64.658C23.976 64.33,25.398 64.056,26.821 63.755C26.794 64.248,26.794 64.768,26.794 65.315C26.794 66.71,26.93 68.051,27.423 69.391C27.505 69.665,27.423 70.13,27.779 70.13M28.818 58.612C28.873 57.763,28.873 56.888,28.9 56.012C28.955 55.082,28.955 54.179,28.955 53.222C29.612 53.112,30.241 53.003,30.87 52.839C30.679 54.644,30.597 56.45,30.487 58.283"/><path stroke="none" d="M45.03 50.13C45.331 50.103,45.413 49.665,45.496 49.391C45.66 48.872,45.687 48.352,45.687 47.887C45.687 47.449,45.66 47.066,45.66 46.628C45.66 46.354,45.66 45.999,45.687 45.725C45.769 44.932,45.851 44.138,45.879 43.345L47.63 42.989C47.712 44.658,48.013 46.272,48.56 47.832C48.615 48.051,48.751 48.27,48.998 48.27C49.244 48.324,49.326 48.051,49.435 47.832C49.709 47.421,49.736 46.902,49.736 46.436C49.791 46.081,49.791 45.752,49.791 45.452C49.791 44.494,49.709 43.509,49.682 42.551L51.952 42.086C54.114 41.648,54.388 41.348,54.552 39.268C54.552 38.748,54.606 38.393,54.552 37.982C54.524 37.49,54.305 37.134,53.895 37.134L53.813 37.134C53.649 37.134,53.539 37.134,53.375 37.161C52.472 37.408,51.487 37.599,50.53 37.763L49.873 37.873C49.9 37.326,49.9 36.724,49.955 36.149C49.983 34.891,50.01 33.632,50.01 32.373C51.132 32.072,52.199 31.772,53.266 31.416C53.84 31.224,54.36 30.896,54.524 30.267C54.661 29.555,54.88 28.899,54.88 28.187C54.88 27.777,54.825 27.367,54.661 26.956C54.524 26.573,54.388 26.382,54.169 26.382L54.087 26.382C53.95 26.382,53.813 26.382,53.649 26.464C52.418 26.956,51.214 27.367,49.955 27.722L49.818 25.588C49.736 23.892,49.682 22.168,49.326 20.472C49.244 20.253,49.271 19.897,49.025 19.897L48.998 19.897L48.888 19.897C48.56 19.979,48.177 20.116,48.122 20.554L48.122 21.293C48.122 23.618,48.204 25.889,48.259 28.187L46.152 28.652C46.152 27.476,46.125 26.3,46.043 25.123C46.015 24.521,46.015 23.974,45.687 23.372C44.812 23.81,44.948 24.548,44.948 25.178C44.866 26.464,44.812 27.668,44.784 28.899C43.69 29.118,42.568 29.282,41.474 29.473C39.859 29.747,39.613 29.993,39.613 31.772C39.504 32.209,39.832 32.702,39.777 33.194C39.695 33.933,39.887 34.179,40.407 34.207C40.516 34.207,40.653 34.179,40.817 34.124C42.103 33.933,43.361 33.741,44.62 33.495L44.511 37.052C44.456 37.709,44.401 38.338,44.319 38.967C42.842 39.268,41.392 39.542,39.941 39.897C39.121 40.089,38.628 40.39,38.628 41.348C38.628 42.278,38.984 43.153,39.039 44.056C39.039 44.494,39.148 44.685,39.476 44.74C39.531 44.74,39.668 44.685,39.832 44.658C41.227 44.33,42.65 44.056,44.073 43.755C44.045 44.248,44.045 44.768,44.045 45.315C44.045 46.71,44.182 48.051,44.675 49.391C44.757 49.665,44.675 50.13,45.03 50.13M46.07 38.612C46.125 37.763,46.125 36.888,46.152 36.012C46.207 35.082,46.207 34.179,46.207 33.222C46.864 33.112,47.493 33.003,48.122 32.839C47.931 34.644,47.848 36.45,47.739 38.283"/></g><g class="vf-stavenote" id="vf-auto18712"><g class="vf-stem" id="vf-auto18713" pointer-events="bounding-box"><path stroke-width="1.5" fill="none" d="M84.514 63L84.514 30"/></g><g class="vf-notehead" id="vf-auto18715" pointer-events="bounding-box"><path stroke="none" d="M75.4 71.543C75.681 71.599,75.934 71.627,76.215 71.627C80.09 71.627,85.874 66.348,85.762 62.08C85.65 61.041,85.678 59.609,83.572 58.766C82.982 58.485,82.336 58.373,81.634 58.373C77.31 58.373,72.621 63.343,72.284 66.657C72.284 66.909,72.256 67.134,72.256 67.387C72.256 69.409,73.154 71.037,75.4 71.543"/></g></g><g class="vf-stavenote" id="vf-auto18716"><g class="vf-stem" id="vf-auto18717" pointer-events="bounding-box"><path stroke-width="1.5" fill="none" d="M163.572 58L163.572 25"/></g><g class="vf-notehead" id="vf-auto18719" pointer-events="bounding-box"><path stroke="none" d="M154.459 66.543C154.74 66.599,154.993 66.627,155.274 66.627C159.149 66.627,164.933 61.348,164.821 57.08C164.708 56.041,164.736 54.609,162.63 53.766C162.041 53.485,161.395 53.373,160.693 53.373C156.369 53.373,151.679 58.343,151.342 61.657C151.342 61.909,151.314 62.134,151.314 62.387C151.314 64.409,152.213 66.037,154.459 66.543"/></g></g><g class="vf-stavenote" id="vf-auto18720"><g class="vf-stem" id="vf-auto18721" pointer-events="bounding-box"><path stroke-width="1.5" fill="none" d="M242.631 53L242.631 20"/></g><g class="vf-notehead" id="vf-auto18723" pointer-events="bounding-box"><path stroke="none" d="M233.518 61.543C233.799 61.599,234.051 61.627,234.332 61.627C238.207 61.627,243.992 56.348,243.879 52.08C243.767 51.041,243.795 49.609,241.689 48.766C241.1 48.485,240.454 48.373,239.752 48.373C235.427 48.373,230.738 53.343,230.401 56.657C230.401 56.909,230.373 57.134,230.373 57.387C230.373 59.409,231.272 61.037,233.518 61.543"/></g></g><g class="vf-stavenote" id="vf-auto18724"><g class="vf-stem" id="vf-auto18725" pointer-events="bounding-box"><path stroke-width="1.5" fill="none" d="M321.69 48L321.69 15"/></g><g class="vf-notehead" id="vf-auto18727" pointer-events="bounding-box"><path stroke="none" d="M312.577 56.543C312.857 56.599,313.11 56.627,313.391 56.627C317.266 56.627,323.051 51.348,322.938 47.08C322.826 46.041,322.854 44.609,320.748 43.766C320.158 43.485,319.512 43.373,318.81 43.373C314.486 43.373,309.797 48.343,309.46 51.657C309.46 51.909,309.432 52.134,309.432 52.387C309.432 54.409,310.33 56.037,312.577 56.543"/></g></g><g class="vf-stavenote" id="vf-auto18728"><g class="vf-stem" id="vf-auto18729" pointer-events="bounding-box"><path stroke-width="1.5" fill="none" d="M400.749 43L400.749 10"/></g><g class="vf-notehead" id="vf-auto18731" pointer-events="bounding-box"><path stroke="none" d="M391.635 51.543C391.916 51.599,392.169 51.627,392.45 51.627C396.325 51.627,402.109 46.348,401.997 42.08C401.885 41.041,401.913 39.609,399.807 38.766C399.217 38.485,398.571 38.373,397.869 38.373C393.545 38.373,388.856 43.343,388.519 46.657C388.519 46.909,388.49 47.134,388.49 47.387C388.49 49.409,389.389 51.037,391.635 51.543"/></g></g><g class="vf-stavenote" id="vf-auto18732"><g class="vf-stem" id="vf-auto18733" pointer-events="bounding-box"><path stroke-width="1.5" fill="none" d="M479.807 38L479.807 5"/></g><g class="vf-notehead" id="vf-auto18735" pointer-events="bounding-box"><path stroke="none" d="M470.694 46.543C470.975 46.599,471.228 46.627,471.508 46.627C475.384 46.627,481.168 41.348,481.056 37.08C480.943 36.041,480.971 34.609,478.865 33.766C478.276 33.485,477.63 33.373,476.928 33.373C472.604 33.373,467.914 38.343,467.577 41.657C467.577 41.909,467.549 42.134,467.549 42.387C467.549 44.409,468.448 46.037,470.694 46.543"/></g></g><g class="vf-stavenote" id="vf-auto18736"><g class="vf-stem" id="vf-auto18737" pointer-events="bounding-box"><path stroke-width="1.5" fill="none" d="M558.866 33L558.866 0"/></g><g class="vf-notehead" id="vf-auto18739" pointer-events="bounding-box"><path stroke="none" d="M549.753 41.543C550.034 41.599,550.286 41.627,550.567 41.627C554.442 41.627,560.227 36.348,560.114 32.08C560.002 31.041,560.03 29.609,557.924 28.766C557.335 28.485,556.689 28.373,555.987 28.373C551.662 28.373,546.973 33.343,546.636 36.657C546.636 36.909,546.608 37.134,546.608 37.387C546.608 39.409,547.507 41.037,549.753 41.543"/></g></g><g class="vf-stavenote" id="vf-auto18740"><path stroke-width="1.4" fill="none" stroke="#444" d="M622.167 30L641.675 30"/><g class="vf-stem" id="vf-auto18741" pointer-events="bounding-box"><path stroke-width="1.5" fill="none" d="M637.925 28L637.925 -5"/></g><g class="vf-notehead" id="vf-auto18743" pointer-events="bounding-box"><path stroke="none" d="M628.812 36.543C629.092 36.599,629.345 36.627,629.626 36.627C633.501 36.627,639.285 31.348,639.173 27.08C639.061 26.041,639.089 24.609,636.983 23.766C636.393 23.485,635.747 23.373,635.045 23.373C630.721 23.373,626.032 28.343,625.695 31.657C625.695 31.909,625.667 32.134,625.667 32.387C625.667 34.409,626.565 36.037,628.812 36.543"/></g></g></svg>