<svg xmlns="http://www.w3.org/2000/svg" stroke-width="0.3" stroke-dasharray="none" fill="black" stroke="black" font-family="Arial, sans-serif" font-size="10pt" font-weight="normal" font-style="normal" width="500" height="200" viewBox="0 0 500 200" style="width: 500px; height: 200px; border: none;"><g class="vf-stave" id="vf-auto11184" stroke-width="1" fill="#999999" stroke="#999999"><path fill="none" d="M0 80L490 80"/><path fill="none" d="M0 90L490 90"/><path fill="none" d="M0 100L490 100"/><path fill="none" d="M0 110L490 110"/><path fill="none" d="M0 120L490 120"/></g><g class="vf-stavebarline" id="vf-auto11185"><rect y="79.5" width="1" height="41" stroke="none"/></g><g class="vf-stavebarline" id="vf-auto11186"><rect x="490" y="79.5" width="1" height="41" stroke="none"/></g><g class="vf-stavenote" id="vf-auto11187"><g class="vf-notehead" id="vf-auto11191" pointer-events="bounding-box"><path stroke="none" d="M23.645 126.543C23.926 126.599,24.178 126.627,24.459 126.627C28.334 126.627,34.119 121.348,34.006 117.08C33.894 116.041,33.922 114.609,31.816 113.766C31.227 113.485,30.581 113.373,29.879 113.373C25.554 113.373,20.865 118.343,20.528 121.657C20.528 121.909,20.5 122.134,20.5 122.387C20.5 124.409,21.399 126.037,23.645 126.543"/><g class="vf-annotation" id="vf-auto11193"><text stroke="none" font-family="Times New Roman, serif" font-size="14pt" font-weight="bold" font-style="italic" x="22.087" y="52.16">1</text></g></g></g><g class="vf-stavenote" id="vf-auto11194"><g class="vf-notehead" id="vf-auto11198" pointer-events="bounding-box"><path stroke="none" d="M52.192 131.543C52.472 131.599,52.725 131.627,53.006 131.627C56.881 131.627,62.666 126.348,62.553 122.08C62.441 121.041,62.469 119.609,60.363 118.766C59.773 118.485,59.127 118.373,58.425 118.373C54.101 118.373,49.412 123.343,49.075 126.657C49.075 126.909,49.047 127.134,49.047 127.387C49.047 129.409,49.945 131.037,52.192 131.543"/><g class="vf-annotation" id="vf-auto11200"><text stroke="none" font-family="Times New Roman, serif" font-size="14pt" font-weight="bold" font-style="italic" x="50.634" y="43.588">1</text></g></g></g><g class="vf-stavenote" id="vf-auto11201"><g class="vf-notehead" id="vf-auto11205" pointer-events="bounding-box"><path stroke="none" d="M86.939 126.543C87.22 126.599,87.473 126.627,87.753 126.627C91.628 126.627,97.413 121.348,97.301 117.08C97.188 116.041,97.216 114.609,95.11 113.766C94.521 113.485,93.875 113.373,93.173 113.373C88.848 113.373,84.159 118.343,83.822 121.657C83.822 121.909,83.794 122.134,83.794 122.387C83.794 124.409,84.693 126.037,86.939 126.543"/><g class="vf-annotation" id="vf-auto11207"><text stroke="none" font-family="Times New Roman, serif" font-size="14pt" font-weight="bold" font-style="italic" x="85.381" y="55.325">1</text></g></g></g><g class="vf-stavenote" id="vf-auto11208"><path stroke-width="1.4" fill="none" stroke="#444" d="M123.793 130L143.302 130"/><g class="vf-notehead" id="vf-auto11213" pointer-events="bounding-box"><path stroke="none" d="M130.438 136.543C130.719 136.599,130.972 136.627,131.253 136.627C135.128 136.627,140.912 131.348,140.8 127.08C140.688 126.041,140.716 124.609,138.61 123.766C138.02 123.485,137.374 123.373,136.672 123.373C132.348 123.373,127.658 128.343,127.322 131.657C127.322 131.909,127.293 132.134,127.293 132.387C127.293 134.409,128.192 136.037,130.438 136.543"/><g class="vf-annotation" id="vf-auto11216"><text stroke="none" font-family="Times New Roman, serif" font-size="14pt" font-weight="bold" font-style="italic" x="128.881" y="57.5">1</text></g></g><g class="vf-notehead" id="vf-auto11214" pointer-events="bounding-box"><path stroke="none" d="M130.438 116.543C130.719 116.599,130.972 116.627,131.253 116.627C135.128 116.627,140.912 111.348,140.8 107.08C140.688 106.041,140.716 104.609,138.61 103.766C138.02 103.485,137.374 103.373,136.672 103.373C132.348 103.373,127.658 108.343,127.322 111.657C127.322 111.909,127.293 112.134,127.293 112.387C127.293 114.409,128.192 116.037,130.438 116.543"/></g></g><g class="vf-stavenote" id="vf-auto11217"><path stroke-width="1.4" fill="none" stroke="#444" d="M154.849 130L174.357 130"/><g class="vf-notehead" id="vf-auto11221" pointer-events="bounding-box"><path stroke="none" d="M161.494 136.543C161.775 136.599,162.028 136.627,162.308 136.627C166.183 136.627,171.968 131.348,171.856 127.08C171.743 126.041,171.771 124.609,169.665 123.766C169.076 123.485,168.43 123.373,167.728 123.373C163.404 123.373,158.714 128.343,158.377 131.657C158.377 131.909,158.349 132.134,158.349 132.387C158.349 134.409,159.248 136.037,161.494 136.543"/><g class="vf-annotation" id="vf-auto11223"><text stroke="none" font-family="Times New Roman, serif" font-size="14pt" font-weight="bold" font-style="italic" x="159.937" y="51.553">1</text></g></g></g><g class="vf-stavenote" id="vf-auto11224"><path stroke-width="1.4" fill="none" stroke="#444" d="M185.905 130L205.413 130"/><g class="vf-notehead" id="vf-auto11228" pointer-events="bounding-box"><path stroke="none" d="M192.55 136.543C192.831 136.599,193.083 136.627,193.364 136.627C197.239 136.627,203.024 131.348,202.911 127.08C202.799 126.041,202.827 124.609,200.721 123.766C200.131 123.485,199.486 123.373,198.784 123.373C194.459 123.373,189.77 128.343,189.433 131.657C189.433 131.909,189.405 132.134,189.405 132.387C189.405 134.409,190.303 136.037,192.55 136.543"/><g class="vf-annotation" id="vf-auto11230"><text stroke="none" font-family="Times New Roman, serif" font-size="14pt" font-weight="bold" font-style="italic" x="190.992" y="53.106">1</text></g></g></g><g class="vf-stavenote" id="vf-auto11231"><path stroke-width="1.4" fill="none" stroke="#444" d="M216.961 130L236.469 130"/><g class="vf-notehead" id="vf-auto11235" pointer-events="bounding-box"><path stroke="none" d="M223.606 136.543C223.886 136.599,224.139 136.627,224.42 136.627C228.295 136.627,234.079 131.348,233.967 127.08C233.855 126.041,233.883 124.609,231.777 123.766C231.187 123.485,230.541 123.373,229.839 123.373C225.515 123.373,220.826 128.343,220.489 131.657C220.489 131.909,220.461 132.134,220.461 132.387C220.461 134.409,221.359 136.037,223.606 136.543"/><g class="vf-annotation" id="vf-auto11237"><text stroke="none" font-family="Times New Roman, serif" font-size="14pt" font-weight="bold" font-style="italic" x="222.048" y="54.658">1</text></g></g></g><g class="vf-stavenote" id="vf-auto11238"><g class="vf-notehead" id="vf-auto11242" pointer-events="bounding-box"><path stroke="none" d="M254.161 91.543C254.442 91.599,254.695 91.627,254.976 91.627C258.851 91.627,264.635 86.348,264.523 82.08C264.41 81.041,264.439 79.609,262.333 78.766C261.743 78.485,261.097 78.373,260.395 78.373C256.071 78.373,251.381 83.343,251.044 86.657C251.044 86.909,251.016 87.134,251.016 87.387C251.016 89.409,251.915 91.037,254.161 91.543"/><g class="vf-annotation" id="vf-auto11244"><text stroke="none" font-family="Times New Roman, serif" font-size="14pt" font-weight="bold" font-style="italic" x="253.104" y="155.643">3</text></g></g></g><g class="vf-stavenote" id="vf-auto11245"><g class="vf-notehead" id="vf-auto11249" pointer-events="bounding-box"><path stroke="none" d="M282.708 96.543C282.989 96.599,283.241 96.627,283.522 96.627C287.397 96.627,293.182 91.348,293.069 87.08C292.957 86.041,292.985 84.609,290.879 83.766C290.29 83.485,289.644 83.373,288.942 83.373C284.617 83.373,279.928 88.343,279.591 91.657C279.591 91.909,279.563 92.134,279.563 92.387C279.563 94.409,280.462 96.037,282.708 96.543"/><g class="vf-annotation" id="vf-auto11251"><text stroke="none" font-family="Times New Roman, serif" font-size="14pt" font-weight="bold" font-style="italic" x="281.65" y="154.93">3</text></g></g></g><g class="vf-stavenote" id="vf-auto11252"><g class="vf-notehead" id="vf-auto11256" pointer-events="bounding-box"><path stroke="none" d="M317.455 91.543C317.736 91.599,317.989 91.627,318.27 91.627C322.145 91.627,327.929 86.348,327.817 82.08C327.705 81.041,327.733 79.609,325.627 78.766C325.037 78.485,324.391 78.373,323.689 78.373C319.365 78.373,314.675 83.343,314.338 86.657C314.338 86.909,314.31 87.134,314.31 87.387C314.31 89.409,315.209 91.037,317.455 91.543"/><g class="vf-annotation" id="vf-auto11258"><text stroke="none" font-family="Times New Roman, serif" font-size="14pt" font-weight="bold" font-style="italic" x="316.398" y="154.061">3</text></g></g></g><g class="vf-stavenote" id="vf-auto11259"><g class="vf-notehead" id="vf-auto11265" pointer-events="bounding-box"><path stroke="none" d="M360.955 101.543C361.235 101.599,361.488 101.627,361.769 101.627C365.644 101.627,371.429 96.348,371.316 92.08C371.204 91.041,371.232 89.609,369.126 88.766C368.536 88.485,367.89 88.373,367.188 88.373C362.864 88.373,358.175 93.343,357.838 96.657C357.838 96.909,357.81 97.134,357.81 97.387C357.81 99.409,358.708 101.037,360.955 101.543"/><g class="vf-annotation" id="vf-auto11267"><text stroke="none" font-family="Times New Roman, serif" font-size="14pt" font-weight="bold" font-style="italic" x="359.897" y="152.973">3</text></g></g><g class="vf-notehead" id="vf-auto11264" pointer-events="bounding-box"><path stroke="none" d="M360.955 81.543C361.235 81.599,361.488 81.627,361.769 81.627C365.644 81.627,371.429 76.348,371.316 72.08C371.204 71.041,371.232 69.609,369.126 68.766C368.536 68.485,367.89 68.373,367.188 68.373C362.864 68.373,358.175 73.343,357.838 76.657C357.838 76.909,357.81 77.134,357.81 77.387C357.81 79.409,358.708 81.037,360.955 81.543"/></g></g><g class="vf-stavenote" id="vf-auto11268"><g class="vf-notehead" id="vf-auto11272" pointer-events="bounding-box"><path stroke="none" d="M392.01 101.543C392.291 101.599,392.544 101.627,392.825 101.627C396.7 101.627,402.484 96.348,402.372 92.08C402.26 91.041,402.288 89.609,400.182 88.766C399.592 88.485,398.946 88.373,398.244 88.373C393.92 88.373,389.23 93.343,388.893 96.657C388.893 96.909,388.865 97.134,388.865 97.387C388.865 99.409,389.764 101.037,392.01 101.543"/><g class="vf-annotation" id="vf-auto11274"><text stroke="none" font-family="Times New Roman, serif" font-size="14pt" font-weight="bold" font-style="italic" x="390.953" y="152.197">3</text></g></g></g><g class="vf-stavenote" id="vf-auto11275"><g class="vf-notehead" id="vf-auto11279" pointer-events="bounding-box"><path stroke="none" d="M423.066 101.543C423.347 101.599,423.6 101.627,423.88 101.627C427.755 101.627,433.54 96.348,433.428 92.08C433.315 91.041,433.343 89.609,431.237 88.766C430.648 88.485,430.002 88.373,429.3 88.373C424.976 88.373,420.286 93.343,419.949 96.657C419.949 96.909,419.921 97.134,419.921 97.387C419.921 99.409,420.82 101.037,423.066 101.543"/><g class="vf-annotation" id="vf-auto11281"><text stroke="none" font-family="Times New Roman, serif" font-size="14pt" font-weight="bold" font-style="italic" x="422.009" y="151.421">3</text></g></g></g><g class="vf-stavenote" id="vf-auto11282"><g class="vf-notehead" id="vf-auto11286" pointer-events="bounding-box"><path stroke="none" d="M454.122 101.543C454.403 101.599,454.655 101.627,454.936 101.627C458.811 101.627,464.596 96.348,464.483 92.08C464.371 91.041,464.399 89.609,462.293 88.766C461.703 88.485,461.058 88.373,460.356 88.373C456.031 88.373,451.342 93.343,451.005 96.657C451.005 96.909,450.977 97.134,450.977 97.387C450.977 99.409,451.875 101.037,454.122 101.543"/><g class="vf-annotation" id="vf-auto11288"><text stroke="none" font-family="Times New Roman, serif" font-size="14pt" font-weight="bold" font-style="italic" x="453.064" y="150.644">3</text></g></g></g><g class="vf-stem" id="vf-auto11188" pointer-events="bounding-box"><path stroke-width="1.5" fill="none" d="M32.758 118L32.758 62.91"/></g><g class="vf-stem" id="vf-auto11195" pointer-events="bounding-box"><path stroke-width="1.5" fill="none" d="M61.305 123L61.305 64.338"/></g><g class="vf-stem" id="vf-auto11202" pointer-events="bounding-box"><path stroke-width="1.5" fill="none" d="M96.052 118L96.052 66.075"/></g><g class="vf-stem" id="vf-auto11209" pointer-events="bounding-box"><path stroke-width="1.5" fill="none" d="M139.552 128L139.552 68.25"/></g><g class="vf-stem" id="vf-auto11218" pointer-events="bounding-box"><path stroke-width="1.5" fill="none" d="M170.607 128L170.607 69.803"/></g><g class="vf-stem" id="vf-auto11225" pointer-events="bounding-box"><path stroke-width="1.5" fill="none" d="M201.663 128L201.663 71.356"/></g><g class="vf-stem" id="vf-auto11232" pointer-events="bounding-box"><path stroke-width="1.5" fill="none" d="M232.719 128L232.719 72.908"/></g><g class="vf-beam" id="vf-auto11289"><path stroke="none" d="M32.008 62.123L32.008 67.123L232.969 77.121L232.969 72.121Z"/><path stroke="none" d="M32.008 69.623L32.008 74.623L61.555 76.05L61.555 71.05Z"/><path stroke="none" d="M138.802 74.963L138.802 79.963L232.969 84.621L232.969 79.621Z"/><path stroke="none" d="M32.008 77.123L32.008 82.123L43.008 82.623L43.008 77.623Z"/><path stroke="none" d="M138.802 82.463L138.802 87.463L232.969 92.121L232.969 87.121Z"/><path stroke="none" d="M32.008 84.623L32.008 89.623L43.008 90.123L43.008 85.123Z"/><path stroke="none" d="M32.008 92.123L32.008 97.123L43.008 97.623L43.008 92.623Z"/></g><g class="vf-stem" id="vf-auto11239" pointer-events="bounding-box"><path stroke-width="1.5" fill="none" d="M251.766 87L251.766 141.75"/></g><g class="vf-stem" id="vf-auto11246" pointer-events="bounding-box"><path stroke-width="1.5" fill="none" d="M280.313 92L280.313 141.036"/></g><g class="vf-stem" id="vf-auto11253" pointer-events="bounding-box"><path stroke-width="1.5" fill="none" d="M315.06 87L315.06 140.168"/></g><g class="vf-stem" id="vf-auto11260" pointer-events="bounding-box"><path stroke-width="1.5" fill="none" d="M358.56 77L358.56 139.08"/></g><g class="vf-stem" id="vf-auto11269" pointer-events="bounding-box"><path stroke-width="1.5" fill="none" d="M389.615 97L389.615 138.304"/></g><g class="vf-stem" id="vf-auto11276" pointer-events="bounding-box"><path stroke-width="1.5" fill="none" d="M420.671 97L420.671 137.527"/></g><g class="vf-stem" id="vf-auto11283" pointer-events="bounding-box"><path stroke-width="1.5" fill="none" d="M451.727 97L451.727 136.751"/></g><g class="vf-beam" id="vf-auto11290"><path stroke="none" d="M251.016 142.519L251.016 137.519L451.977 132.52L451.977 137.52Z"/><path stroke="none" d="M251.016 135.019L251.016 130.019L280.563 129.305L280.563 134.305Z"/><path stroke="none" d="M357.81 132.349L357.81 127.349L451.977 125.02L451.977 130.02Z"/><path stroke="none" d="M251.016 127.519L251.016 122.519L262.016 122.269L262.016 127.269Z"/><path stroke="none" d="M357.81 124.849L357.81 119.849L451.977 117.52L451.977 122.52Z"/><path stroke="none" d="M251.016 120.019L251.016 115.019L262.016 114.769L262.016 119.769Z"/><path stroke="none" d="M251.016 112.519L251.016 107.519L262.016 107.269L262.016 112.269Z"/></g></svg>