<svg xmlns="http://www.w3.org/2000/svg" stroke-width="0.3" stroke-dasharray="none" fill="black" stroke="black" font-family="Arial, sans-serif" font-size="10pt" font-weight="normal" font-style="normal" width="500" height="300" viewBox="0 0 500 300" style="width: 500px; height: 300px; border: none;"><g class="vf-stave" id="vf-auto31476" stroke-width="1" fill="#999999" stroke="#999999"><path fill="none" d="M15 80L465 80"/><path fill="none" d="M15 90L465 90"/><path fill="none" d="M15 100L465 100"/><path fill="none" d="M15 110L465 110"/><path fill="none" d="M15 120L465 120"/></g><g class="vf-stavebarline" id="vf-auto31477"><rect x="15" y="79.5" width="1" height="41" stroke="none"/></g><g class="vf-stavebarline" id="vf-auto31478"><rect x="465" y="79.5" width="1" height="41" stroke="none"/></g><g class="vf-clef" id="vf-auto31479"><path stroke="none" d="M33.711 95.844C33.66 95.413,33.711 95.388,33.939 95.16C37.893 91.485,40.883 86.847,40.883 81.246C40.883 78.078,39.996 74.935,38.501 72.756C37.944 71.945,37.006 70.931,36.6 70.931C36.093 70.931,34.953 71.869,34.243 72.68C31.532 75.67,30.644 80.232,30.644 84.034C30.644 86.138,30.923 88.52,31.177 90.015C31.253 90.446,31.278 90.522,30.847 90.902C25.576 95.236,20 100.457,20 107.832C20 114.168,24.334 120.2,33.28 120.2C34.117 120.2,35.08 120.124,35.815 119.972C36.195 119.896,36.271 119.87,36.347 120.301C36.778 122.76,37.335 125.928,37.335 127.651C37.335 133.049,33.686 133.708,31.532 133.708C29.555 133.708,28.617 133.125,28.617 132.644C28.617 132.39,28.946 132.289,29.783 132.01C30.923 131.681,32.216 130.718,32.216 128.589C32.216 126.587,30.949 124.863,28.718 124.863C26.285 124.863,24.815 126.815,24.815 129.07C24.815 131.427,26.235 135.026,31.76 135.026C34.193 135.026,38.932 133.911,38.932 127.727C38.932 125.623,38.273 122.177,37.893 119.896C37.817 119.465,37.842 119.516,38.349 119.287C42.049 117.818,44.482 114.726,44.482 110.594C44.482 105.931,41.061 101.8,35.688 101.8C34.75 101.8,34.75 101.8,34.623 101.141M37.158 76.583C38.349 76.583,39.337 77.571,39.337 79.573C39.337 83.628,35.865 86.923,33.001 89.432C32.748 89.66,32.596 89.61,32.52 89.128C32.368 88.19,32.292 86.949,32.292 85.783C32.292 80.08,34.928 76.583,37.158 76.583M33.179 101.445C33.28 102.13,33.28 102.104,32.621 102.307C29.428 103.397,27.324 106.286,27.324 109.403C27.324 112.673,29.048 115.004,31.532 115.866C31.836 115.967,32.266 116.069,32.52 116.069C32.799 116.069,32.951 115.891,32.951 115.663C32.951 115.41,32.672 115.308,32.419 115.207C30.873 114.548,29.783 112.977,29.783 111.304C29.783 109.201,31.202 107.655,33.432 107.021C34.015 106.869,34.091 106.92,34.167 107.325L35.992 118.198C36.068 118.603,36.017 118.603,35.485 118.705C34.902 118.806,34.167 118.882,33.432 118.882C27.046 118.882,22.915 115.334,22.915 110.265C22.915 108.111,23.295 105.222,26.311 101.8C28.516 99.367,30.188 97.999,31.886 96.63C32.266 96.326,32.343 96.377,32.419 96.757M35.688 107.249C35.612 106.793,35.663 106.692,36.093 106.742C39.059 106.996,41.492 109.479,41.492 112.673C41.492 114.979,40.098 116.829,38.07 117.868C37.639 118.071,37.563 118.071,37.487 117.64"/></g><g class="vf-stave" id="vf-auto31560" stroke-width="1" fill="#999999" stroke="#999999"><path fill="none" d="M15 192L465 192"/><path fill="none" d="M15 205L465 205"/><path fill="none" d="M15 218L465 218"/><path fill="none" d="M15 231L465 231"/><path fill="none" d="M15 244L465 244"/><path fill="none" d="M15 257L465 257"/></g><g class="vf-stavebarline" id="vf-auto31561"><rect x="15" y="191.5" width="1" height="66" stroke="none"/></g><g class="vf-stavebarline" id="vf-auto31562"><rect x="465" y="191.5" width="1" height="66" stroke="none"/></g><g class="vf-clef" id="vf-auto31563"><path stroke="none" d="M32.833 201.907L32.833 200.156L20.599 200.156L20.599 201.907L25.737 201.907L25.737 215.777L27.741 215.777L27.741 201.907M33.548 233.057L28.064 217.482L25.484 217.482L19.908 233.057L22.028 233.057L23.686 228.38L29.677 228.38L31.313 233.057M29.147 226.698L24.17 226.698L26.728 219.602M32.534 245.844C32.534 243.978,31.681 242.826,29.677 242.066C31.105 241.398,31.843 240.223,31.843 238.679C31.843 236.375,30.184 234.693,27.235 234.693L20.899 234.693L20.899 250.314L27.926 250.314C30.76 250.314,32.534 248.425,32.534 245.844M29.861 238.932C29.861 240.522,28.963 241.421,26.728 241.421L22.88 241.421L22.88 236.444L26.728 236.444C28.963 236.444,29.861 237.343,29.861 238.932M30.552 245.867C30.552 247.365,29.631 248.563,27.764 248.563L22.88 248.563L22.88 243.195L27.764 243.195C29.631 243.195,30.552 244.347,30.552 245.867"/></g><g class="vf-stavenote" id="vf-auto31480"><g class="vf-stem" id="vf-auto31481" pointer-events="bounding-box"><path stroke-width="1.5" fill="none" d="M94.016 77L94.016 135"/></g><g class="vf-notehead" id="vf-auto31487" pointer-events="bounding-box"><path stroke="none" d="M97.198 105.054C100.792 105.054,105.2 101.741,105.2 98.315C105.2 96.237,103.572 94.946,101.269 94.946C96.832 94.946,93.266 98.231,93.266 101.685C93.266 103.791,95.007 105.054,97.198 105.054"/><path stroke="none" d="M69.947 106.703C70.084 106.867,70.194 106.895,70.303 106.895C70.44 106.895,70.549 106.813,70.549 106.813C71.726 106.156,72.683 105.089,73.668 104.405C77.17 101.97,78.374 99.562,78.374 97.756C78.374 95.513,76.651 94.09,74.845 93.981C74.161 93.981,73.231 94.282,72.683 94.637C72.437 94.829,71.999 95.185,71.808 95.185C71.726 95.185,71.698 95.185,71.616 95.157C71.343 95.048,71.179 94.747,71.179 94.473C71.206 93.625,71.452 84.159,71.452 83.365C71.452 82.927,71.097 82.708,70.714 82.708C70.139 82.708,69.51 83.092,69.482 83.803C69.482 83.803,69.646 106.293,69.947 106.703M71.343 103.201C71.343 103.201,71.206 100.821,71.206 99.261C71.206 98.632,71.261 98.14,71.288 98.003C71.562 97.209,73.149 96.06,74.051 96.06C75.201 96.06,75.666 97.373,75.666 98.358C75.666 100.465,73.86 102.599,72.164 103.666C71.999 103.748,71.89 103.776,71.781 103.776C71.425 103.776,71.343 103.393,71.343 103.201"/><rect x="59.482" y="75" width="1" height="30" stroke="none"/><path stroke="none" d="M60.174 68.208C58.669 72.503,55.632 79.179,55.632 79.453C55.632 79.672,55.796 80,56.07 80L56.097 79.973C56.809 79.562,60.01 78.632,60.174 78.632C60.311 78.632,63.539 79.644,64.114 79.973L64.141 80C64.415 80,64.606 79.672,64.606 79.453C64.606 79.179,61.652 72.503,60.174 68.208"/></g><g class="vf-notehead" id="vf-auto31486" pointer-events="bounding-box"><path stroke="none" d="M97.198 95.054C100.792 95.054,105.2 91.741,105.2 88.315C105.2 86.237,103.572 84.946,101.269 84.946C96.832 84.946,93.266 88.231,93.266 91.685C93.266 93.791,95.007 95.054,97.198 95.054"/><path stroke="none" d="M81.839 96.703C81.976 96.867,82.086 96.895,82.195 96.895C82.332 96.895,82.441 96.813,82.441 96.813C83.618 96.156,84.575 95.089,85.56 94.405C89.062 91.97,90.266 89.562,90.266 87.756C90.266 85.513,88.543 84.09,86.737 83.981C86.053 83.981,85.123 84.282,84.575 84.637C84.329 84.829,83.891 85.185,83.7 85.185C83.618 85.185,83.59 85.185,83.508 85.157C83.235 85.048,83.071 84.747,83.071 84.473C83.098 83.625,83.344 74.159,83.344 73.365C83.344 72.927,82.989 72.708,82.606 72.708C82.031 72.708,81.402 73.092,81.374 73.803C81.374 73.803,81.538 96.293,81.839 96.703M83.235 93.201C83.235 93.201,83.098 90.821,83.098 89.261C83.098 88.632,83.153 88.14,83.18 88.003C83.454 87.209,85.041 86.06,85.943 86.06C87.093 86.06,87.558 87.373,87.558 88.358C87.558 90.465,85.752 92.599,84.056 93.666C83.891 93.748,83.782 93.776,83.673 93.776C83.317 93.776,83.235 93.393,83.235 93.201"/></g><g class="vf-notehead" id="vf-auto31485" pointer-events="bounding-box"><path stroke="none" d="M97.198 80.054C100.792 80.054,105.2 76.741,105.2 73.315C105.2 71.237,103.572 69.946,101.269 69.946C96.832 69.946,93.266 73.231,93.266 76.685C93.266 78.791,95.007 80.054,97.198 80.054"/></g></g><g class="vf-stavenote" id="vf-auto31492"><g class="vf-stem" id="vf-auto31493" pointer-events="bounding-box"><path stroke-width="1.5" fill="none" d="M173.476 92L173.476 130"/></g><g class="vf-notehead" id="vf-auto31497" pointer-events="bounding-box"><path stroke="none" d="M165.474 100.054C169.068 100.054,173.476 96.741,173.476 93.315C173.476 91.237,171.848 89.946,169.545 89.946C165.109 89.946,161.542 93.231,161.542 96.685C161.542 98.791,163.283 100.054,165.474 100.054"/><rect x="153.792" y="85" width="1" height="10" stroke="none"/><path stroke="none" d="M154.334 100C155.812 95.704,158.766 89.056,158.766 88.782C158.766 88.536,158.575 88.208,158.301 88.208L158.274 88.263C157.699 88.564,154.471 89.603,154.334 89.603C154.17 89.603,150.969 88.646,150.257 88.263L150.23 88.208C149.957 88.208,149.792 88.536,149.792 88.782C149.792 89.056,152.829 95.704,154.334 100"/></g><g class="vf-notehead" id="vf-auto31496" pointer-events="bounding-box"><path stroke="none" d="M176.658 95.054C180.252 95.054,184.66 91.741,184.66 88.315C184.66 86.237,183.032 84.946,180.729 84.946C176.293 84.946,172.726 88.231,172.726 91.685C172.726 93.791,174.467 95.054,176.658 95.054"/></g></g><g class="vf-stavenote" id="vf-auto31498"><path stroke-width="1.4" fill="none" stroke="#444" d="M249.186 130L267.12 130"/><g class="vf-notehead" id="vf-auto31598" pointer-events="bounding-box"><path stroke="none" d="M256.118 140.054C259.712 140.054,264.12 136.741,264.12 133.315C264.12 131.237,262.492 129.946,260.189 129.946C255.753 129.946,252.186 133.231,252.186 136.685C252.186 138.791,253.927 140.054,256.118 140.054"/><path stroke="none" d="M244.962 94.849C245.017 94.849,245.044 94.795,245.072 94.795C245.263 94.795,245.455 94.986,246.057 95.643C247.124 96.874,247.425 97.394,247.425 98.133C247.425 98.215,247.425 98.242,247.425 98.324C247.397 99.2,246.987 99.966,246.002 100.978C245.345 101.662,244.798 102.456,244.552 103.003C244.524 103.085,244.497 103.194,244.497 103.304C244.497 103.687,244.716 104.152,245.154 104.644C245.318 104.836,245.373 104.973,245.373 105.055C245.373 105.137,245.345 105.164,245.263 105.246C245.236 105.301,245.154 105.301,245.126 105.301C245.017 105.301,244.907 105.219,244.716 105.027C243.621 103.988,243.047 103.14,242.855 102.62C242.801 102.401,242.773 102.127,242.773 101.908C242.773 101.06,243.211 100.157,244.196 99.118C244.853 98.434,245.427 97.64,245.646 97.148C245.728 97.038,245.728 96.929,245.728 96.819C245.728 96.436,245.482 95.971,245.044 95.479C244.853 95.26,244.825 95.205,244.825 95.15C244.825 95.096,244.825 95.096,244.825 95.068C244.825 94.959,244.907 94.877,244.962 94.849"/><path stroke="none" d="M244.962 104.849C245.017 104.849,245.044 104.795,245.072 104.795C245.263 104.795,245.455 104.986,246.057 105.643C247.124 106.874,247.425 107.394,247.425 108.133C247.425 108.215,247.425 108.242,247.425 108.324C247.397 109.2,246.987 109.966,246.002 110.978C245.345 111.662,244.798 112.456,244.552 113.003C244.524 113.085,244.497 113.194,244.497 113.304C244.497 113.687,244.716 114.152,245.154 114.644C245.318 114.836,245.373 114.973,245.373 115.055C245.373 115.137,245.345 115.164,245.263 115.246C245.236 115.301,245.154 115.301,245.126 115.301C245.017 115.301,244.907 115.219,244.716 115.027C243.621 113.988,243.047 113.14,242.855 112.62C242.801 112.401,242.773 112.127,242.773 111.908C242.773 111.06,243.211 110.157,244.196 109.118C244.853 108.434,245.427 107.64,245.646 107.148C245.728 107.038,245.728 106.929,245.728 106.819C245.728 106.436,245.482 105.971,245.044 105.479C244.853 105.26,244.825 105.205,244.825 105.15C244.825 105.096,244.825 105.096,244.825 105.068C244.825 104.959,244.907 104.877,244.962 104.849"/><path stroke="none" d="M244.962 114.849C245.017 114.849,245.044 114.795,245.072 114.795C245.263 114.795,245.455 114.986,246.057 115.643C247.124 116.874,247.425 117.394,247.425 118.133C247.425 118.215,247.425 118.242,247.425 118.324C247.397 119.2,246.987 119.966,246.002 120.978C245.345 121.662,244.798 122.456,244.552 123.003C244.524 123.085,244.497 123.194,244.497 123.304C244.497 123.687,244.716 124.152,245.154 124.644C245.318 124.836,245.373 124.973,245.373 125.055C245.373 125.137,245.345 125.164,245.263 125.246C245.236 125.301,245.154 125.301,245.126 125.301C245.017 125.301,244.907 125.219,244.716 125.027C243.621 123.988,243.047 123.14,242.855 122.62C242.801 122.401,242.773 122.127,242.773 121.908C242.773 121.06,243.211 120.157,244.196 119.118C244.853 118.434,245.427 117.64,245.646 117.148C245.728 117.038,245.728 116.929,245.728 116.819C245.728 116.436,245.482 115.971,245.044 115.479C244.853 115.26,244.825 115.205,244.825 115.15C244.825 115.096,244.825 115.096,244.825 115.068C244.825 114.959,244.907 114.877,244.962 114.849"/><path stroke="none" d="M244.962 124.849C245.017 124.849,245.044 124.795,245.072 124.795C245.263 124.795,245.455 124.986,246.057 125.643C247.124 126.874,247.425 127.394,247.425 128.133C247.425 128.215,247.425 128.242,247.425 128.324C247.397 129.2,246.987 129.966,246.002 130.978C245.345 131.662,244.798 132.456,244.552 133.003C244.524 133.085,244.497 133.194,244.497 133.304C244.497 133.687,244.716 134.152,245.154 134.644C245.318 134.836,245.373 134.973,245.373 135.055C245.373 135.137,245.345 135.164,245.263 135.246C245.236 135.301,245.154 135.301,245.126 135.301C245.017 135.301,244.907 135.219,244.716 135.027C243.621 133.988,243.047 133.14,242.855 132.62C242.801 132.401,242.773 132.127,242.773 131.908C242.773 131.06,243.211 130.157,244.196 129.118C244.853 128.434,245.427 127.64,245.646 127.148C245.728 127.038,245.728 126.929,245.728 126.819C245.728 126.436,245.482 125.971,245.044 125.479C244.853 125.26,244.825 125.205,244.825 125.15C244.825 125.096,244.825 125.096,244.825 125.068C244.825 124.959,244.907 124.877,244.962 124.849"/><path stroke="none" d="M244.962 134.849C245.017 134.849,245.044 134.795,245.072 134.795C245.263 134.795,245.455 134.986,246.057 135.643C247.124 136.874,247.425 137.394,247.425 138.133C247.425 138.215,247.425 138.242,247.425 138.324C247.397 139.2,246.987 139.966,246.002 140.978C245.345 141.662,244.798 142.456,244.552 143.003C244.524 143.085,244.497 143.194,244.497 143.304C244.497 143.687,244.716 144.152,245.154 144.644C245.318 144.836,245.373 144.973,245.373 145.055C245.373 145.137,245.345 145.164,245.263 145.246C245.236 145.301,245.154 145.301,245.126 145.301C245.017 145.301,244.907 145.219,244.716 145.027C243.621 143.988,243.047 143.14,242.855 142.62C242.801 142.401,242.773 142.127,242.773 141.908C242.773 141.06,243.211 140.157,244.196 139.118C244.853 138.434,245.427 137.64,245.646 137.148C245.728 137.038,245.728 136.929,245.728 136.819C245.728 136.436,245.482 135.971,245.044 135.479C244.853 135.26,244.825 135.205,244.825 135.15C244.825 135.096,244.825 135.096,244.825 135.068C244.825 134.959,244.907 134.877,244.962 134.849"/><path stroke="none" d="M245.728 84.208C244.223 88.503,241.186 95.179,241.186 95.453C241.186 95.672,241.351 96,241.624 96L241.652 95.973C242.363 95.562,245.564 94.632,245.728 94.632C245.865 94.632,249.093 95.644,249.668 95.973L249.695 96C249.969 96,250.161 95.672,250.161 95.453C250.161 95.179,247.206 88.503,245.728 84.208"/></g><g class="vf-notehead" id="vf-auto31599" pointer-events="bounding-box"><path stroke="none" d="M256.118 125.054C259.712 125.054,264.12 121.741,264.12 118.315C264.12 116.237,262.492 114.946,260.189 114.946C255.753 114.946,252.186 118.231,252.186 121.685C252.186 123.791,253.927 125.054,256.118 125.054"/></g><g class="vf-notehead" id="vf-auto31600" pointer-events="bounding-box"><path stroke="none" d="M256.118 110.054C259.712 110.054,264.12 106.741,264.12 103.315C264.12 101.237,262.492 99.946,260.189 99.946C255.753 99.946,252.186 103.231,252.186 106.685C252.186 108.791,253.927 110.054,256.118 110.054"/></g><g class="vf-notehead" id="vf-auto31601" pointer-events="bounding-box"><path stroke="none" d="M256.118 95.054C259.712 95.054,264.12 91.741,264.12 88.315C264.12 86.237,262.492 84.946,260.189 84.946C255.753 84.946,252.186 88.231,252.186 91.685C252.186 93.791,253.927 95.054,256.118 95.054"/></g></g><g class="vf-stavenote" id="vf-auto31510"><path stroke-width="1.4" fill="none" stroke="#444" d="M308.773 70L326.707 70"/><path stroke-width="1.4" fill="none" stroke="#444" d="M308.773 130L326.707 130"/><path stroke-width="1.4" fill="none" stroke="#444" d="M308.773 140L326.707 140"/><g class="vf-notehead" id="vf-auto31603" pointer-events="bounding-box"><path stroke="none" d="M315.704 145.054C319.299 145.054,323.707 141.741,323.707 138.315C323.707 136.237,322.078 134.946,319.776 134.946C315.339 134.946,311.773 138.231,311.773 141.685C311.773 143.791,313.514 145.054,315.704 145.054"/><path stroke="none" d="M288.727 64.849C288.781 64.849,288.809 64.795,288.836 64.795C289.027 64.795,289.219 64.986,289.821 65.643C290.888 66.874,291.189 67.394,291.189 68.133C291.189 68.215,291.189 68.242,291.189 68.324C291.162 69.2,290.751 69.966,289.766 70.978C289.11 71.662,288.562 72.456,288.316 73.003C288.289 73.085,288.261 73.194,288.261 73.304C288.261 73.687,288.48 74.152,288.918 74.644C289.082 74.836,289.137 74.973,289.137 75.055C289.137 75.137,289.11 75.164,289.027 75.246C289 75.301,288.918 75.301,288.891 75.301C288.781 75.301,288.672 75.219,288.48 75.027C287.386 73.988,286.811 73.14,286.62 72.62C286.565 72.401,286.538 72.127,286.538 71.908C286.538 71.06,286.975 70.157,287.96 69.118C288.617 68.434,289.192 67.64,289.411 67.148C289.493 67.038,289.493 66.929,289.493 66.819C289.493 66.436,289.246 65.971,288.809 65.479C288.617 65.26,288.59 65.205,288.59 65.15C288.59 65.096,288.59 65.096,288.59 65.068C288.59 64.959,288.672 64.877,288.727 64.849"/><path stroke="none" d="M288.727 74.849C288.781 74.849,288.809 74.795,288.836 74.795C289.027 74.795,289.219 74.986,289.821 75.643C290.888 76.874,291.189 77.394,291.189 78.133C291.189 78.215,291.189 78.242,291.189 78.324C291.162 79.2,290.751 79.966,289.766 80.978C289.11 81.662,288.562 82.456,288.316 83.003C288.289 83.085,288.261 83.194,288.261 83.304C288.261 83.687,288.48 84.152,288.918 84.644C289.082 84.836,289.137 84.973,289.137 85.055C289.137 85.137,289.11 85.164,289.027 85.246C289 85.301,288.918 85.301,288.891 85.301C288.781 85.301,288.672 85.219,288.48 85.027C287.386 83.988,286.811 83.14,286.62 82.62C286.565 82.401,286.538 82.127,286.538 81.908C286.538 81.06,286.975 80.157,287.96 79.118C288.617 78.434,289.192 77.64,289.411 77.148C289.493 77.038,289.493 76.929,289.493 76.819C289.493 76.436,289.246 75.971,288.809 75.479C288.617 75.26,288.59 75.205,288.59 75.15C288.59 75.096,288.59 75.096,288.59 75.068C288.59 74.959,288.672 74.877,288.727 74.849"/><path stroke="none" d="M288.727 84.849C288.781 84.849,288.809 84.795,288.836 84.795C289.027 84.795,289.219 84.986,289.821 85.643C290.888 86.874,291.189 87.394,291.189 88.133C291.189 88.215,291.189 88.242,291.189 88.324C291.162 89.2,290.751 89.966,289.766 90.978C289.11 91.662,288.562 92.456,288.316 93.003C288.289 93.085,288.261 93.194,288.261 93.304C288.261 93.687,288.48 94.152,288.918 94.644C289.082 94.836,289.137 94.973,289.137 95.055C289.137 95.137,289.11 95.164,289.027 95.246C289 95.301,288.918 95.301,288.891 95.301C288.781 95.301,288.672 95.219,288.48 95.027C287.386 93.988,286.811 93.14,286.62 92.62C286.565 92.401,286.538 92.127,286.538 91.908C286.538 91.06,286.975 90.157,287.96 89.118C288.617 88.434,289.192 87.64,289.411 87.148C289.493 87.038,289.493 86.929,289.493 86.819C289.493 86.436,289.246 85.971,288.809 85.479C288.617 85.26,288.59 85.205,288.59 85.15C288.59 85.096,288.59 85.096,288.59 85.068C288.59 84.959,288.672 84.877,288.727 84.849"/><path stroke="none" d="M288.727 94.849C288.781 94.849,288.809 94.795,288.836 94.795C289.027 94.795,289.219 94.986,289.821 95.643C290.888 96.874,291.189 97.394,291.189 98.133C291.189 98.215,291.189 98.242,291.189 98.324C291.162 99.2,290.751 99.966,289.766 100.978C289.11 101.662,288.562 102.456,288.316 103.003C288.289 103.085,288.261 103.194,288.261 103.304C288.261 103.687,288.48 104.152,288.918 104.644C289.082 104.836,289.137 104.973,289.137 105.055C289.137 105.137,289.11 105.164,289.027 105.246C289 105.301,288.918 105.301,288.891 105.301C288.781 105.301,288.672 105.219,288.48 105.027C287.386 103.988,286.811 103.14,286.62 102.62C286.565 102.401,286.538 102.127,286.538 101.908C286.538 101.06,286.975 100.157,287.96 99.118C288.617 98.434,289.192 97.64,289.411 97.148C289.493 97.038,289.493 96.929,289.493 96.819C289.493 96.436,289.246 95.971,288.809 95.479C288.617 95.26,288.59 95.205,288.59 95.15C288.59 95.096,288.59 95.096,288.59 95.068C288.59 94.959,288.672 94.877,288.727 94.849"/><path stroke="none" d="M288.727 104.849C288.781 104.849,288.809 104.795,288.836 104.795C289.027 104.795,289.219 104.986,289.821 105.643C290.888 106.874,291.189 107.394,291.189 108.133C291.189 108.215,291.189 108.242,291.189 108.324C291.162 109.2,290.751 109.966,289.766 110.978C289.11 111.662,288.562 112.456,288.316 113.003C288.289 113.085,288.261 113.194,288.261 113.304C288.261 113.687,288.48 114.152,288.918 114.644C289.082 114.836,289.137 114.973,289.137 115.055C289.137 115.137,289.11 115.164,289.027 115.246C289 115.301,288.918 115.301,288.891 115.301C288.781 115.301,288.672 115.219,288.48 115.027C287.386 113.988,286.811 113.14,286.62 112.62C286.565 112.401,286.538 112.127,286.538 111.908C286.538 111.06,286.975 110.157,287.96 109.118C288.617 108.434,289.192 107.64,289.411 107.148C289.493 107.038,289.493 106.929,289.493 106.819C289.493 106.436,289.246 105.971,288.809 105.479C288.617 105.26,288.59 105.205,288.59 105.15C288.59 105.096,288.59 105.096,288.59 105.068C288.59 104.959,288.672 104.877,288.727 104.849"/><path stroke="none" d="M288.727 114.849C288.781 114.849,288.809 114.795,288.836 114.795C289.027 114.795,289.219 114.986,289.821 115.643C290.888 116.874,291.189 117.394,291.189 118.133C291.189 118.215,291.189 118.242,291.189 118.324C291.162 119.2,290.751 119.966,289.766 120.978C289.11 121.662,288.562 122.456,288.316 123.003C288.289 123.085,288.261 123.194,288.261 123.304C288.261 123.687,288.48 124.152,288.918 124.644C289.082 124.836,289.137 124.973,289.137 125.055C289.137 125.137,289.11 125.164,289.027 125.246C289 125.301,288.918 125.301,288.891 125.301C288.781 125.301,288.672 125.219,288.48 125.027C287.386 123.988,286.811 123.14,286.62 122.62C286.565 122.401,286.538 122.127,286.538 121.908C286.538 121.06,286.975 120.157,287.96 119.118C288.617 118.434,289.192 117.64,289.411 117.148C289.493 117.038,289.493 116.929,289.493 116.819C289.493 116.436,289.246 115.971,288.809 115.479C288.617 115.26,288.59 115.205,288.59 115.15C288.59 115.096,288.59 115.096,288.59 115.068C288.59 114.959,288.672 114.877,288.727 114.849"/><path stroke="none" d="M288.727 124.849C288.781 124.849,288.809 124.795,288.836 124.795C289.027 124.795,289.219 124.986,289.821 125.643C290.888 126.874,291.189 127.394,291.189 128.133C291.189 128.215,291.189 128.242,291.189 128.324C291.162 129.2,290.751 129.966,289.766 130.978C289.11 131.662,288.562 132.456,288.316 133.003C288.289 133.085,288.261 133.194,288.261 133.304C288.261 133.687,288.48 134.152,288.918 134.644C289.082 134.836,289.137 134.973,289.137 135.055C289.137 135.137,289.11 135.164,289.027 135.246C289 135.301,288.918 135.301,288.891 135.301C288.781 135.301,288.672 135.219,288.48 135.027C287.386 133.988,286.811 133.14,286.62 132.62C286.565 132.401,286.538 132.127,286.538 131.908C286.538 131.06,286.975 130.157,287.96 129.118C288.617 128.434,289.192 127.64,289.411 127.148C289.493 127.038,289.493 126.929,289.493 126.819C289.493 126.436,289.246 125.971,288.809 125.479C288.617 125.26,288.59 125.205,288.59 125.15C288.59 125.096,288.59 125.096,288.59 125.068C288.59 124.959,288.672 124.877,288.727 124.849"/><path stroke="none" d="M288.493 146C289.97 141.704,292.925 135.056,292.925 134.782C292.925 134.536,292.733 134.208,292.46 134.208L292.432 134.263C291.858 134.564,288.629 135.603,288.493 135.603C288.328 135.603,285.127 134.646,284.416 134.263L284.389 134.208C284.115 134.208,283.951 134.536,283.951 134.782C283.951 135.056,286.988 141.704,288.493 146"/></g><g class="vf-notehead" id="vf-auto31604" pointer-events="bounding-box"><path stroke="none" d="M315.704 125.054C319.299 125.054,323.707 121.741,323.707 118.315C323.707 116.237,322.078 114.946,319.776 114.946C315.339 114.946,311.773 118.231,311.773 121.685C311.773 123.791,313.514 125.054,315.704 125.054"/></g><g class="vf-notehead" id="vf-auto31605" pointer-events="bounding-box"><path stroke="none" d="M315.704 110.054C319.299 110.054,323.707 106.741,323.707 103.315C323.707 101.237,322.078 99.946,319.776 99.946C315.339 99.946,311.773 103.231,311.773 106.685C311.773 108.791,313.514 110.054,315.704 110.054"/></g><g class="vf-notehead" id="vf-auto31606" pointer-events="bounding-box"><path stroke="none" d="M315.704 100.054C319.299 100.054,323.707 96.741,323.707 93.315C323.707 91.237,322.078 89.946,319.776 89.946C315.339 89.946,311.773 93.231,311.773 96.685C311.773 98.791,313.514 100.054,315.704 100.054"/><path stroke="none" d="M308.281 90.349C308.554 90.239,308.773 89.911,308.773 89.692L308.773 86.874C308.773 86.683,308.636 86.573,308.472 86.573C308.417 86.573,308.363 86.573,308.281 86.6C308.281 86.6,307.487 86.929,307.296 86.956C307.022 86.956,306.748 86.765,306.748 86.464L306.748 81.648C306.748 81.402,306.502 81.211,306.201 81.211C305.818 81.211,305.572 81.402,305.572 81.648L305.572 86.765C305.517 87.148,305.408 87.668,305.052 87.914C304.587 88.187,303.246 88.735,302.562 88.899C302.234 88.899,302.097 88.434,302.097 88.105L302.097 83.372C302.097 83.153,301.824 82.934,301.55 82.934C301.167 82.934,300.921 83.153,300.921 83.372L300.921 88.707C300.921 89.254,300.675 89.637,300.456 89.747C300.209 89.884,299.416 90.185,299.416 90.185C299.142 90.267,298.951 90.595,298.951 90.814L298.951 93.632C298.951 93.851,299.06 93.988,299.307 93.988L299.389 93.933C299.416 93.933,300.018 93.687,300.319 93.55L300.374 93.495C300.675 93.495,300.921 93.906,300.921 94.207L300.921 98.119C300.921 98.557,300.729 98.912,300.483 99.022C300.264 99.104,299.416 99.46,299.416 99.46C299.142 99.542,298.951 99.843,298.951 100.089L298.951 102.88C298.951 103.126,299.06 103.235,299.307 103.235L299.389 103.208C299.416 103.208,299.963 102.962,300.319 102.852C300.374 102.798,300.401 102.798,300.456 102.798C300.729 102.798,300.921 103.235,300.921 103.427L300.921 108.27C300.921 108.516,301.167 108.707,301.441 108.707C301.824 108.707,302.097 108.516,302.097 108.27L302.097 102.798C302.097 102.278,302.289 102.004,302.508 101.922L304.888 100.937C304.888 100.937,304.943 100.937,304.943 100.937L305.025 100.91C305.38 100.91,305.572 101.375,305.572 101.621L305.572 106.546C305.572 106.792,305.818 106.984,306.092 106.984C306.502 106.984,306.748 106.792,306.748 106.546L306.748 100.937C306.748 100.636,306.913 100.171,307.186 100.034C307.46 99.925,308.281 99.596,308.281 99.596C308.554 99.487,308.773 99.186,308.773 98.94L308.773 96.149C308.773 95.958,308.636 95.821,308.472 95.821C308.417 95.821,308.363 95.821,308.281 95.876L307.268 96.259C307.022 96.259,306.748 96.012,306.748 95.547L306.748 91.881C306.748 91.607,306.94 90.869,307.268 90.732M305.572 96.778C305.326 97.572,303.493 98.338,302.562 98.338C302.343 98.338,302.152 98.283,302.097 98.146C302.015 97.982,301.988 97.134,301.988 96.176C301.988 94.973,302.015 93.577,302.097 93.276C302.179 92.592,303.985 91.772,304.97 91.772C305.244 91.772,305.49 91.854,305.572 92.018C305.654 92.209,305.736 93.194,305.736 94.261C305.736 95.328,305.654 96.423,305.572 96.778"/></g><g class="vf-notehead" id="vf-auto31607" pointer-events="bounding-box"><path stroke="none" d="M315.704 90.054C319.299 90.054,323.707 86.741,323.707 83.315C323.707 81.237,322.078 79.946,319.776 79.946C315.339 79.946,311.773 83.231,311.773 86.685C311.773 88.791,313.514 90.054,315.704 90.054"/></g><g class="vf-notehead" id="vf-auto31608" pointer-events="bounding-box"><path stroke="none" d="M315.704 75.054C319.299 75.054,323.707 71.741,323.707 68.315C323.707 66.237,322.078 64.946,319.776 64.946C315.339 64.946,311.773 68.231,311.773 71.685C311.773 73.791,313.514 75.054,315.704 75.054"/></g></g><g class="vf-stavenote" id="vf-auto31528"><path stroke-width="1.4" fill="none" stroke="#444" d="M368.36 130L386.294 130"/><g class="vf-notehead" id="vf-auto31610" pointer-events="bounding-box"><path stroke="none" d="M375.291 140.054C378.885 140.054,383.294 136.741,383.294 133.315C383.294 131.237,381.665 129.946,379.363 129.946C374.926 129.946,371.36 133.231,371.36 136.685C371.36 138.791,373.101 140.054,375.291 140.054"/><path stroke="none" d="M364.135 94.849C364.19 94.849,364.217 94.795,364.245 94.795C364.436 94.795,364.628 94.986,365.23 95.643C366.297 96.874,366.598 97.394,366.598 98.133C366.598 98.215,366.598 98.242,366.598 98.324C366.57 99.2,366.16 99.966,365.175 100.978C364.518 101.662,363.971 102.456,363.725 103.003C363.698 103.085,363.67 103.194,363.67 103.304C363.67 103.687,363.889 104.152,364.327 104.644C364.491 104.836,364.546 104.973,364.546 105.055C364.546 105.137,364.518 105.164,364.436 105.246C364.409 105.301,364.327 105.301,364.3 105.301C364.19 105.301,364.081 105.219,363.889 105.027C362.795 103.988,362.22 103.14,362.029 102.62C361.974 102.401,361.947 102.127,361.947 101.908C361.947 101.06,362.384 100.157,363.369 99.118C364.026 98.434,364.601 97.64,364.819 97.148C364.901 97.038,364.901 96.929,364.901 96.819C364.901 96.436,364.655 95.971,364.217 95.479C364.026 95.26,363.999 95.205,363.999 95.15C363.999 95.096,363.999 95.096,363.999 95.068C363.999 94.959,364.081 94.877,364.135 94.849"/><path stroke="none" d="M364.135 104.849C364.19 104.849,364.217 104.795,364.245 104.795C364.436 104.795,364.628 104.986,365.23 105.643C366.297 106.874,366.598 107.394,366.598 108.133C366.598 108.215,366.598 108.242,366.598 108.324C366.57 109.2,366.16 109.966,365.175 110.978C364.518 111.662,363.971 112.456,363.725 113.003C363.698 113.085,363.67 113.194,363.67 113.304C363.67 113.687,363.889 114.152,364.327 114.644C364.491 114.836,364.546 114.973,364.546 115.055C364.546 115.137,364.518 115.164,364.436 115.246C364.409 115.301,364.327 115.301,364.3 115.301C364.19 115.301,364.081 115.219,363.889 115.027C362.795 113.988,362.22 113.14,362.029 112.62C361.974 112.401,361.947 112.127,361.947 111.908C361.947 111.06,362.384 110.157,363.369 109.118C364.026 108.434,364.601 107.64,364.819 107.148C364.901 107.038,364.901 106.929,364.901 106.819C364.901 106.436,364.655 105.971,364.217 105.479C364.026 105.26,363.999 105.205,363.999 105.15C363.999 105.096,363.999 105.096,363.999 105.068C363.999 104.959,364.081 104.877,364.135 104.849"/><path stroke="none" d="M364.135 114.849C364.19 114.849,364.217 114.795,364.245 114.795C364.436 114.795,364.628 114.986,365.23 115.643C366.297 116.874,366.598 117.394,366.598 118.133C366.598 118.215,366.598 118.242,366.598 118.324C366.57 119.2,366.16 119.966,365.175 120.978C364.518 121.662,363.971 122.456,363.725 123.003C363.698 123.085,363.67 123.194,363.67 123.304C363.67 123.687,363.889 124.152,364.327 124.644C364.491 124.836,364.546 124.973,364.546 125.055C364.546 125.137,364.518 125.164,364.436 125.246C364.409 125.301,364.327 125.301,364.3 125.301C364.19 125.301,364.081 125.219,363.889 125.027C362.795 123.988,362.22 123.14,362.029 122.62C361.974 122.401,361.947 122.127,361.947 121.908C361.947 121.06,362.384 120.157,363.369 119.118C364.026 118.434,364.601 117.64,364.819 117.148C364.901 117.038,364.901 116.929,364.901 116.819C364.901 116.436,364.655 115.971,364.217 115.479C364.026 115.26,363.999 115.205,363.999 115.15C363.999 115.096,363.999 115.096,363.999 115.068C363.999 114.959,364.081 114.877,364.135 114.849"/><path stroke="none" d="M364.135 124.849C364.19 124.849,364.217 124.795,364.245 124.795C364.436 124.795,364.628 124.986,365.23 125.643C366.297 126.874,366.598 127.394,366.598 128.133C366.598 128.215,366.598 128.242,366.598 128.324C366.57 129.2,366.16 129.966,365.175 130.978C364.518 131.662,363.971 132.456,363.725 133.003C363.698 133.085,363.67 133.194,363.67 133.304C363.67 133.687,363.889 134.152,364.327 134.644C364.491 134.836,364.546 134.973,364.546 135.055C364.546 135.137,364.518 135.164,364.436 135.246C364.409 135.301,364.327 135.301,364.3 135.301C364.19 135.301,364.081 135.219,363.889 135.027C362.795 133.988,362.22 133.14,362.029 132.62C361.974 132.401,361.947 132.127,361.947 131.908C361.947 131.06,362.384 130.157,363.369 129.118C364.026 128.434,364.601 127.64,364.819 127.148C364.901 127.038,364.901 126.929,364.901 126.819C364.901 126.436,364.655 125.971,364.217 125.479C364.026 125.26,363.999 125.205,363.999 125.15C363.999 125.096,363.999 125.096,363.999 125.068C363.999 124.959,364.081 124.877,364.135 124.849"/><path stroke="none" d="M364.135 134.849C364.19 134.849,364.217 134.795,364.245 134.795C364.436 134.795,364.628 134.986,365.23 135.643C366.297 136.874,366.598 137.394,366.598 138.133C366.598 138.215,366.598 138.242,366.598 138.324C366.57 139.2,366.16 139.966,365.175 140.978C364.518 141.662,363.971 142.456,363.725 143.003C363.698 143.085,363.67 143.194,363.67 143.304C363.67 143.687,363.889 144.152,364.327 144.644C364.491 144.836,364.546 144.973,364.546 145.055C364.546 145.137,364.518 145.164,364.436 145.246C364.409 145.301,364.327 145.301,364.3 145.301C364.19 145.301,364.081 145.219,363.889 145.027C362.795 143.988,362.22 143.14,362.029 142.62C361.974 142.401,361.947 142.127,361.947 141.908C361.947 141.06,362.384 140.157,363.369 139.118C364.026 138.434,364.601 137.64,364.819 137.148C364.901 137.038,364.901 136.929,364.901 136.819C364.901 136.436,364.655 135.971,364.217 135.479C364.026 135.26,363.999 135.205,363.999 135.15C363.999 135.096,363.999 135.096,363.999 135.068C363.999 134.959,364.081 134.877,364.135 134.849"/><path stroke="none" d="M364.901 84.208C363.397 88.503,360.36 95.179,360.36 95.453C360.36 95.672,360.524 96,360.797 96L360.825 95.973C361.536 95.562,364.737 94.632,364.901 94.632C365.038 94.632,368.267 95.644,368.841 95.973L368.869 96C369.142 96,369.334 95.672,369.334 95.453C369.334 95.179,366.379 88.503,364.901 84.208"/><text stroke="none" font-family="Times New Roman, serif" font-weight="bold" font-style="italic" x="359.36" y="157">R</text></g><g class="vf-notehead" id="vf-auto31611" pointer-events="bounding-box"><path stroke="none" d="M375.291 125.054C378.885 125.054,383.294 121.741,383.294 118.315C383.294 116.237,381.665 114.946,379.363 114.946C374.926 114.946,371.36 118.231,371.36 121.685C371.36 123.791,373.101 125.054,375.291 125.054"/></g><g class="vf-notehead" id="vf-auto31612" pointer-events="bounding-box"><path stroke="none" d="M375.291 110.054C378.885 110.054,383.294 106.741,383.294 103.315C383.294 101.237,381.665 99.946,379.363 99.946C374.926 99.946,371.36 103.231,371.36 106.685C371.36 108.791,373.101 110.054,375.291 110.054"/></g><g class="vf-notehead" id="vf-auto31613" pointer-events="bounding-box"><path stroke="none" d="M375.291 95.054C378.885 95.054,383.294 91.741,383.294 88.315C383.294 86.237,381.665 84.946,379.363 84.946C374.926 84.946,371.36 88.231,371.36 91.685C371.36 93.791,373.101 95.054,375.291 95.054"/></g></g><g class="vf-stavenote" id="vf-auto31540"><path stroke-width="1.4" fill="none" stroke="#444" d="M427.946 70L445.88 70"/><path stroke-width="1.4" fill="none" stroke="#444" d="M427.946 130L445.88 130"/><path stroke-width="1.4" fill="none" stroke="#444" d="M427.946 140L445.88 140"/><g class="vf-notehead" id="vf-auto31615" pointer-events="bounding-box"><path stroke="none" d="M434.878 145.054C438.472 145.054,442.88 141.741,442.88 138.315C442.88 136.237,441.252 134.946,438.949 134.946C434.513 134.946,430.946 138.231,430.946 141.685C430.946 143.791,432.687 145.054,434.878 145.054"/><path stroke="none" d="M395.078 64.849C395.132 64.849,395.16 64.795,395.187 64.795C395.379 64.795,395.57 64.986,396.172 65.643C397.239 66.874,397.54 67.394,397.54 68.133C397.54 68.215,397.54 68.242,397.54 68.324C397.513 69.2,397.102 69.966,396.117 70.978C395.461 71.662,394.913 72.456,394.667 73.003C394.64 73.085,394.612 73.194,394.612 73.304C394.612 73.687,394.831 74.152,395.269 74.644C395.433 74.836,395.488 74.973,395.488 75.055C395.488 75.137,395.461 75.164,395.379 75.246C395.351 75.301,395.269 75.301,395.242 75.301C395.132 75.301,395.023 75.219,394.831 75.027C393.737 73.988,393.162 73.14,392.971 72.62C392.916 72.401,392.889 72.127,392.889 71.908C392.889 71.06,393.327 70.157,394.311 69.118C394.968 68.434,395.543 67.64,395.762 67.148C395.844 67.038,395.844 66.929,395.844 66.819C395.844 66.436,395.597 65.971,395.16 65.479C394.968 65.26,394.941 65.205,394.941 65.15C394.941 65.096,394.941 65.096,394.941 65.068C394.941 64.959,395.023 64.877,395.078 64.849"/><path stroke="none" d="M395.078 74.849C395.132 74.849,395.16 74.795,395.187 74.795C395.379 74.795,395.57 74.986,396.172 75.643C397.239 76.874,397.54 77.394,397.54 78.133C397.54 78.215,397.54 78.242,397.54 78.324C397.513 79.2,397.102 79.966,396.117 80.978C395.461 81.662,394.913 82.456,394.667 83.003C394.64 83.085,394.612 83.194,394.612 83.304C394.612 83.687,394.831 84.152,395.269 84.644C395.433 84.836,395.488 84.973,395.488 85.055C395.488 85.137,395.461 85.164,395.379 85.246C395.351 85.301,395.269 85.301,395.242 85.301C395.132 85.301,395.023 85.219,394.831 85.027C393.737 83.988,393.162 83.14,392.971 82.62C392.916 82.401,392.889 82.127,392.889 81.908C392.889 81.06,393.327 80.157,394.311 79.118C394.968 78.434,395.543 77.64,395.762 77.148C395.844 77.038,395.844 76.929,395.844 76.819C395.844 76.436,395.597 75.971,395.16 75.479C394.968 75.26,394.941 75.205,394.941 75.15C394.941 75.096,394.941 75.096,394.941 75.068C394.941 74.959,395.023 74.877,395.078 74.849"/><path stroke="none" d="M395.078 84.849C395.132 84.849,395.16 84.795,395.187 84.795C395.379 84.795,395.57 84.986,396.172 85.643C397.239 86.874,397.54 87.394,397.54 88.133C397.54 88.215,397.54 88.242,397.54 88.324C397.513 89.2,397.102 89.966,396.117 90.978C395.461 91.662,394.913 92.456,394.667 93.003C394.64 93.085,394.612 93.194,394.612 93.304C394.612 93.687,394.831 94.152,395.269 94.644C395.433 94.836,395.488 94.973,395.488 95.055C395.488 95.137,395.461 95.164,395.379 95.246C395.351 95.301,395.269 95.301,395.242 95.301C395.132 95.301,395.023 95.219,394.831 95.027C393.737 93.988,393.162 93.14,392.971 92.62C392.916 92.401,392.889 92.127,392.889 91.908C392.889 91.06,393.327 90.157,394.311 89.118C394.968 88.434,395.543 87.64,395.762 87.148C395.844 87.038,395.844 86.929,395.844 86.819C395.844 86.436,395.597 85.971,395.16 85.479C394.968 85.26,394.941 85.205,394.941 85.15C394.941 85.096,394.941 85.096,394.941 85.068C394.941 84.959,395.023 84.877,395.078 84.849"/><path stroke="none" d="M395.078 94.849C395.132 94.849,395.16 94.795,395.187 94.795C395.379 94.795,395.57 94.986,396.172 95.643C397.239 96.874,397.54 97.394,397.54 98.133C397.54 98.215,397.54 98.242,397.54 98.324C397.513 99.2,397.102 99.966,396.117 100.978C395.461 101.662,394.913 102.456,394.667 103.003C394.64 103.085,394.612 103.194,394.612 103.304C394.612 103.687,394.831 104.152,395.269 104.644C395.433 104.836,395.488 104.973,395.488 105.055C395.488 105.137,395.461 105.164,395.379 105.246C395.351 105.301,395.269 105.301,395.242 105.301C395.132 105.301,395.023 105.219,394.831 105.027C393.737 103.988,393.162 103.14,392.971 102.62C392.916 102.401,392.889 102.127,392.889 101.908C392.889 101.06,393.327 100.157,394.311 99.118C394.968 98.434,395.543 97.64,395.762 97.148C395.844 97.038,395.844 96.929,395.844 96.819C395.844 96.436,395.597 95.971,395.16 95.479C394.968 95.26,394.941 95.205,394.941 95.15C394.941 95.096,394.941 95.096,394.941 95.068C394.941 94.959,395.023 94.877,395.078 94.849"/><path stroke="none" d="M395.078 104.849C395.132 104.849,395.16 104.795,395.187 104.795C395.379 104.795,395.57 104.986,396.172 105.643C397.239 106.874,397.54 107.394,397.54 108.133C397.54 108.215,397.54 108.242,397.54 108.324C397.513 109.2,397.102 109.966,396.117 110.978C395.461 111.662,394.913 112.456,394.667 113.003C394.64 113.085,394.612 113.194,394.612 113.304C394.612 113.687,394.831 114.152,395.269 114.644C395.433 114.836,395.488 114.973,395.488 115.055C395.488 115.137,395.461 115.164,395.379 115.246C395.351 115.301,395.269 115.301,395.242 115.301C395.132 115.301,395.023 115.219,394.831 115.027C393.737 113.988,393.162 113.14,392.971 112.62C392.916 112.401,392.889 112.127,392.889 111.908C392.889 111.06,393.327 110.157,394.311 109.118C394.968 108.434,395.543 107.64,395.762 107.148C395.844 107.038,395.844 106.929,395.844 106.819C395.844 106.436,395.597 105.971,395.16 105.479C394.968 105.26,394.941 105.205,394.941 105.15C394.941 105.096,394.941 105.096,394.941 105.068C394.941 104.959,395.023 104.877,395.078 104.849"/><path stroke="none" d="M395.078 114.849C395.132 114.849,395.16 114.795,395.187 114.795C395.379 114.795,395.57 114.986,396.172 115.643C397.239 116.874,397.54 117.394,397.54 118.133C397.54 118.215,397.54 118.242,397.54 118.324C397.513 119.2,397.102 119.966,396.117 120.978C395.461 121.662,394.913 122.456,394.667 123.003C394.64 123.085,394.612 123.194,394.612 123.304C394.612 123.687,394.831 124.152,395.269 124.644C395.433 124.836,395.488 124.973,395.488 125.055C395.488 125.137,395.461 125.164,395.379 125.246C395.351 125.301,395.269 125.301,395.242 125.301C395.132 125.301,395.023 125.219,394.831 125.027C393.737 123.988,393.162 123.14,392.971 122.62C392.916 122.401,392.889 122.127,392.889 121.908C392.889 121.06,393.327 120.157,394.311 119.118C394.968 118.434,395.543 117.64,395.762 117.148C395.844 117.038,395.844 116.929,395.844 116.819C395.844 116.436,395.597 115.971,395.16 115.479C394.968 115.26,394.941 115.205,394.941 115.15C394.941 115.096,394.941 115.096,394.941 115.068C394.941 114.959,395.023 114.877,395.078 114.849"/><path stroke="none" d="M395.078 124.849C395.132 124.849,395.16 124.795,395.187 124.795C395.379 124.795,395.57 124.986,396.172 125.643C397.239 126.874,397.54 127.394,397.54 128.133C397.54 128.215,397.54 128.242,397.54 128.324C397.513 129.2,397.102 129.966,396.117 130.978C395.461 131.662,394.913 132.456,394.667 133.003C394.64 133.085,394.612 133.194,394.612 133.304C394.612 133.687,394.831 134.152,395.269 134.644C395.433 134.836,395.488 134.973,395.488 135.055C395.488 135.137,395.461 135.164,395.379 135.246C395.351 135.301,395.269 135.301,395.242 135.301C395.132 135.301,395.023 135.219,394.831 135.027C393.737 133.988,393.162 133.14,392.971 132.62C392.916 132.401,392.889 132.127,392.889 131.908C392.889 131.06,393.327 130.157,394.311 129.118C394.968 128.434,395.543 127.64,395.762 127.148C395.844 127.038,395.844 126.929,395.844 126.819C395.844 126.436,395.597 125.971,395.16 125.479C394.968 125.26,394.941 125.205,394.941 125.15C394.941 125.096,394.941 125.096,394.941 125.068C394.941 124.959,395.023 124.877,395.078 124.849"/><path stroke="none" d="M394.844 146C396.321 141.704,399.276 135.056,399.276 134.782C399.276 134.536,399.084 134.208,398.811 134.208L398.783 134.263C398.209 134.564,394.98 135.603,394.844 135.603C394.679 135.603,391.478 134.646,390.767 134.263L390.74 134.208C390.466 134.208,390.302 134.536,390.302 134.782C390.302 135.056,393.339 141.704,394.844 146"/><text stroke="none" font-family="Times New Roman, serif" font-weight="bold" font-style="italic" x="390.302" y="62.5">R</text></g><g class="vf-notehead" id="vf-auto31616" pointer-events="bounding-box"><path stroke="none" d="M434.878 125.054C438.472 125.054,442.88 121.741,442.88 118.315C442.88 116.237,441.252 114.946,438.949 114.946C434.513 114.946,430.946 118.231,430.946 121.685C430.946 123.791,432.687 125.054,434.878 125.054"/></g><g class="vf-notehead" id="vf-auto31617" pointer-events="bounding-box"><path stroke="none" d="M434.878 110.054C438.472 110.054,442.88 106.741,442.88 103.315C442.88 101.237,441.252 99.946,438.949 99.946C434.513 99.946,430.946 103.231,430.946 106.685C430.946 108.791,432.687 110.054,434.878 110.054"/></g><g class="vf-notehead" id="vf-auto31618" pointer-events="bounding-box"><path stroke="none" d="M434.878 100.054C438.472 100.054,442.88 96.741,442.88 93.315C442.88 91.237,441.252 89.946,438.949 89.946C434.513 89.946,430.946 93.231,430.946 96.685C430.946 98.791,432.687 100.054,434.878 100.054"/><path stroke="none" d="M414.632 90.349C414.905 90.239,415.124 89.911,415.124 89.692L415.124 86.874C415.124 86.683,414.987 86.573,414.823 86.573C414.768 86.573,414.714 86.573,414.632 86.6C414.632 86.6,413.838 86.929,413.647 86.956C413.373 86.956,413.099 86.765,413.099 86.464L413.099 81.648C413.099 81.402,412.853 81.211,412.552 81.211C412.169 81.211,411.923 81.402,411.923 81.648L411.923 86.765C411.868 87.148,411.759 87.668,411.403 87.914C410.938 88.187,409.597 88.735,408.913 88.899C408.585 88.899,408.448 88.434,408.448 88.105L408.448 83.372C408.448 83.153,408.175 82.934,407.901 82.934C407.518 82.934,407.272 83.153,407.272 83.372L407.272 88.707C407.272 89.254,407.026 89.637,406.807 89.747C406.56 89.884,405.767 90.185,405.767 90.185C405.493 90.267,405.302 90.595,405.302 90.814L405.302 93.632C405.302 93.851,405.411 93.988,405.658 93.988L405.74 93.933C405.767 93.933,406.369 93.687,406.67 93.55L406.725 93.495C407.026 93.495,407.272 93.906,407.272 94.207L407.272 98.119C407.272 98.557,407.08 98.912,406.834 99.022C406.615 99.104,405.767 99.46,405.767 99.46C405.493 99.542,405.302 99.843,405.302 100.089L405.302 102.88C405.302 103.126,405.411 103.235,405.658 103.235L405.74 103.208C405.767 103.208,406.314 102.962,406.67 102.852C406.725 102.798,406.752 102.798,406.807 102.798C407.08 102.798,407.272 103.235,407.272 103.427L407.272 108.27C407.272 108.516,407.518 108.707,407.792 108.707C408.175 108.707,408.448 108.516,408.448 108.27L408.448 102.798C408.448 102.278,408.64 102.004,408.859 101.922L411.239 100.937C411.239 100.937,411.294 100.937,411.294 100.937L411.376 100.91C411.731 100.91,411.923 101.375,411.923 101.621L411.923 106.546C411.923 106.792,412.169 106.984,412.443 106.984C412.853 106.984,413.099 106.792,413.099 106.546L413.099 100.937C413.099 100.636,413.264 100.171,413.537 100.034C413.811 99.925,414.632 99.596,414.632 99.596C414.905 99.487,415.124 99.186,415.124 98.94L415.124 96.149C415.124 95.958,414.987 95.821,414.823 95.821C414.768 95.821,414.714 95.821,414.632 95.876L413.619 96.259C413.373 96.259,413.099 96.012,413.099 95.547L413.099 91.881C413.099 91.607,413.291 90.869,413.619 90.732M411.923 96.778C411.677 97.572,409.844 98.338,408.913 98.338C408.695 98.338,408.503 98.283,408.448 98.146C408.366 97.982,408.339 97.134,408.339 96.176C408.339 94.973,408.366 93.577,408.448 93.276C408.53 92.592,410.336 91.772,411.321 91.772C411.595 91.772,411.841 91.854,411.923 92.018C412.005 92.209,412.087 93.194,412.087 94.261C412.087 95.328,412.005 96.423,411.923 96.778"/></g><g class="vf-notehead" id="vf-auto31619" pointer-events="bounding-box"><path stroke="none" d="M434.878 85.054C438.472 85.054,442.88 81.741,442.88 78.315C442.88 76.237,441.252 74.946,438.949 74.946C434.513 74.946,430.946 78.231,430.946 81.685C430.946 83.791,432.687 85.054,434.878 85.054"/><path stroke="none" d="M427.454 75.349C427.727 75.239,427.946 74.911,427.946 74.692L427.946 71.874C427.946 71.683,427.81 71.573,427.645 71.573C427.591 71.573,427.536 71.573,427.454 71.6C427.454 71.6,426.66 71.929,426.469 71.956C426.195 71.956,425.922 71.765,425.922 71.464L425.922 66.648C425.922 66.402,425.675 66.211,425.375 66.211C424.991 66.211,424.745 66.402,424.745 66.648L424.745 71.765C424.691 72.148,424.581 72.668,424.225 72.914C423.76 73.187,422.42 73.735,421.736 73.899C421.407 73.899,421.271 73.434,421.271 73.105L421.271 68.372C421.271 68.153,420.997 67.934,420.723 67.934C420.34 67.934,420.094 68.153,420.094 68.372L420.094 73.707C420.094 74.254,419.848 74.637,419.629 74.747C419.383 74.884,418.589 75.185,418.589 75.185C418.316 75.267,418.124 75.595,418.124 75.814L418.124 78.632C418.124 78.851,418.234 78.988,418.48 78.988L418.562 78.933C418.589 78.933,419.191 78.687,419.492 78.55L419.547 78.495C419.848 78.495,420.094 78.906,420.094 79.207L420.094 83.119C420.094 83.557,419.903 83.912,419.656 84.022C419.437 84.104,418.589 84.46,418.589 84.46C418.316 84.542,418.124 84.843,418.124 85.089L418.124 87.88C418.124 88.126,418.234 88.235,418.48 88.235L418.562 88.208C418.589 88.208,419.136 87.962,419.492 87.852C419.547 87.798,419.574 87.798,419.629 87.798C419.903 87.798,420.094 88.235,420.094 88.427L420.094 93.27C420.094 93.516,420.34 93.707,420.614 93.707C420.997 93.707,421.271 93.516,421.271 93.27L421.271 87.798C421.271 87.278,421.462 87.004,421.681 86.922L424.061 85.937C424.061 85.937,424.116 85.937,424.116 85.937L424.198 85.91C424.554 85.91,424.745 86.375,424.745 86.621L424.745 91.546C424.745 91.792,424.991 91.984,425.265 91.984C425.675 91.984,425.922 91.792,425.922 91.546L425.922 85.937C425.922 85.636,426.086 85.171,426.359 85.034C426.633 84.925,427.454 84.596,427.454 84.596C427.727 84.487,427.946 84.186,427.946 83.94L427.946 81.149C427.946 80.958,427.81 80.821,427.645 80.821C427.591 80.821,427.536 80.821,427.454 80.876L426.442 81.259C426.195 81.259,425.922 81.012,425.922 80.547L425.922 76.881C425.922 76.607,426.113 75.869,426.442 75.732M424.745 81.778C424.499 82.572,422.666 83.338,421.736 83.338C421.517 83.338,421.325 83.283,421.271 83.146C421.188 82.982,421.161 82.134,421.161 81.176C421.161 79.973,421.188 78.577,421.271 78.276C421.353 77.592,423.158 76.772,424.143 76.772C424.417 76.772,424.663 76.854,424.745 77.018C424.827 77.209,424.909 78.194,424.909 79.261C424.909 80.328,424.827 81.423,424.745 81.778"/></g><g class="vf-notehead" id="vf-auto31620" pointer-events="bounding-box"><path stroke="none" d="M434.878 75.054C438.472 75.054,442.88 71.741,442.88 68.315C442.88 66.237,441.252 64.946,438.949 64.946C434.513 64.946,430.946 68.231,430.946 71.685C430.946 73.791,432.687 75.054,434.878 75.054"/></g></g><g class="vf-tabnote" id="vf-auto31564" pointer-events="bounding-box"><rect x="91.266" y="189" width="11.422" height="6" fill="#FFF" stroke="none"/><text stroke="none" x="93.266" y="197">3</text><rect x="91.266" y="202" width="11.422" height="6" fill="#FFF" stroke="none"/><text stroke="none" x="93.266" y="210">2</text><rect x="91.266" y="215" width="11.422" height="6" fill="#FFF" stroke="none"/><text stroke="none" x="93.266" y="223">3</text><path stroke-width="1.5" fill="none" stroke="#777777" d="M105.688 192.5Q119.037 192.5,119.037 182"/><text stroke="none" x="108.292" y="178">Full</text><path stroke="none" d="M119.037 182L115.037 186L123.037 186Z"/><rect x="86.266" y="192" width="1" height="32.5" stroke="none"/><path stroke="none" d="M86.958 183.708C85.453 188.003,82.416 194.679,82.416 194.953C82.416 195.172,82.58 195.5,82.854 195.5L82.881 195.473C83.593 195.062,86.794 194.132,86.958 194.132C87.095 194.132,90.323 195.144,90.898 195.473L90.925 195.5C91.199 195.5,91.39 195.172,91.39 194.953C91.39 194.679,88.436 188.003,86.958 183.708"/></g><g class="vf-tabnote" id="vf-auto31567" pointer-events="bounding-box"><rect x="170.726" y="202" width="11.422" height="6" fill="#FFF" stroke="none"/><text stroke="none" x="172.726" y="210">3</text><rect x="170.729" y="215" width="11.417" height="6" fill="#FFF" stroke="none"/><text stroke="none" x="172.729" y="223">5</text><path stroke-width="1.5" fill="none" stroke="#777777" d="M185.148 218.5Q209.239 218.5,209.239 182"/><text stroke="none" x="188.489" y="178">Unison</text><path stroke="none" d="M209.239 182L205.239 186L213.239 186Z"/><rect x="165.726" y="198.5" width="1" height="19.5" stroke="none"/><path stroke="none" d="M166.268 224.5C167.746 220.204,170.7 213.556,170.7 213.282C170.7 213.036,170.509 212.708,170.235 212.708L170.208 212.763C169.633 213.064,166.405 214.103,166.268 214.103C166.104 214.103,162.903 213.146,162.191 212.763L162.164 212.708C161.891 212.708,161.726 213.036,161.726 213.282C161.726 213.556,164.763 220.204,166.268 224.5"/></g><g class="vf-tabnote" id="vf-auto31570" pointer-events="bounding-box"><rect x="250.186" y="215" width="11.417" height="6" fill="#FFF" stroke="none"/><text stroke="none" x="252.186" y="223">7</text><rect x="250.186" y="228" width="11.417" height="6" fill="#FFF" stroke="none"/><text stroke="none" x="252.186" y="236">7</text><rect x="250.186" y="241" width="11.417" height="6" fill="#FFF" stroke="none"/><text stroke="none" x="252.186" y="249">7</text><rect x="250.186" y="254" width="11.417" height="6" fill="#FFF" stroke="none"/><text stroke="none" x="252.186" y="262">7</text><path stroke="none" d="M244.962 227.349C245.017 227.349,245.044 227.295,245.072 227.295C245.263 227.295,245.455 227.486,246.057 228.143C247.124 229.374,247.425 229.894,247.425 230.633C247.425 230.715,247.425 230.742,247.425 230.824C247.397 231.7,246.987 232.466,246.002 233.478C245.345 234.162,244.798 234.956,244.552 235.503C244.524 235.585,244.497 235.694,244.497 235.804C244.497 236.187,244.716 236.652,245.154 237.144C245.318 237.336,245.373 237.473,245.373 237.555C245.373 237.637,245.345 237.664,245.263 237.746C245.236 237.801,245.154 237.801,245.126 237.801C245.017 237.801,244.907 237.719,244.716 237.527C243.621 236.488,243.047 235.64,242.855 235.12C242.801 234.901,242.773 234.627,242.773 234.408C242.773 233.56,243.211 232.657,244.196 231.618C244.853 230.934,245.427 230.14,245.646 229.648C245.728 229.538,245.728 229.429,245.728 229.319C245.728 228.936,245.482 228.471,245.044 227.979C244.853 227.76,244.825 227.705,244.825 227.65C244.825 227.596,244.825 227.596,244.825 227.568C244.825 227.459,244.907 227.377,244.962 227.349"/><path stroke="none" d="M244.962 237.349C245.017 237.349,245.044 237.295,245.072 237.295C245.263 237.295,245.455 237.486,246.057 238.143C247.124 239.374,247.425 239.894,247.425 240.633C247.425 240.715,247.425 240.742,247.425 240.824C247.397 241.7,246.987 242.466,246.002 243.478C245.345 244.162,244.798 244.956,244.552 245.503C244.524 245.585,244.497 245.694,244.497 245.804C244.497 246.187,244.716 246.652,245.154 247.144C245.318 247.336,245.373 247.473,245.373 247.555C245.373 247.637,245.345 247.664,245.263 247.746C245.236 247.801,245.154 247.801,245.126 247.801C245.017 247.801,244.907 247.719,244.716 247.527C243.621 246.488,243.047 245.64,242.855 245.12C242.801 244.901,242.773 244.627,242.773 244.408C242.773 243.56,243.211 242.657,244.196 241.618C244.853 240.934,245.427 240.14,245.646 239.648C245.728 239.538,245.728 239.429,245.728 239.319C245.728 238.936,245.482 238.471,245.044 237.979C244.853 237.76,244.825 237.705,244.825 237.65C244.825 237.596,244.825 237.596,244.825 237.568C244.825 237.459,244.907 237.377,244.962 237.349"/><path stroke="none" d="M244.962 247.349C245.017 247.349,245.044 247.295,245.072 247.295C245.263 247.295,245.455 247.486,246.057 248.143C247.124 249.374,247.425 249.894,247.425 250.633C247.425 250.715,247.425 250.742,247.425 250.824C247.397 251.7,246.987 252.466,246.002 253.478C245.345 254.162,244.798 254.956,244.552 255.503C244.524 255.585,244.497 255.694,244.497 255.804C244.497 256.187,244.716 256.652,245.154 257.144C245.318 257.336,245.373 257.473,245.373 257.555C245.373 257.637,245.345 257.664,245.263 257.746C245.236 257.801,245.154 257.801,245.126 257.801C245.017 257.801,244.907 257.719,244.716 257.527C243.621 256.488,243.047 255.64,242.855 255.12C242.801 254.901,242.773 254.627,242.773 254.408C242.773 253.56,243.211 252.657,244.196 251.618C244.853 250.934,245.427 250.14,245.646 249.648C245.728 249.538,245.728 249.429,245.728 249.319C245.728 248.936,245.482 248.471,245.044 247.979C244.853 247.76,244.825 247.705,244.825 247.65C244.825 247.596,244.825 247.596,244.825 247.568C244.825 247.459,244.907 247.377,244.962 247.349"/><path stroke="none" d="M244.962 257.349C245.017 257.349,245.044 257.295,245.072 257.295C245.263 257.295,245.455 257.486,246.057 258.143C247.124 259.374,247.425 259.894,247.425 260.633C247.425 260.715,247.425 260.742,247.425 260.824C247.397 261.7,246.987 262.466,246.002 263.478C245.345 264.162,244.798 264.956,244.552 265.503C244.524 265.585,244.497 265.694,244.497 265.804C244.497 266.187,244.716 266.652,245.154 267.144C245.318 267.336,245.373 267.473,245.373 267.555C245.373 267.637,245.345 267.664,245.263 267.746C245.236 267.801,245.154 267.801,245.126 267.801C245.017 267.801,244.907 267.719,244.716 267.527C243.621 266.488,243.047 265.64,242.855 265.12C242.801 264.901,242.773 264.627,242.773 264.408C242.773 263.56,243.211 262.657,244.196 261.618C244.853 260.934,245.427 260.14,245.646 259.648C245.728 259.538,245.728 259.429,245.728 259.319C245.728 258.936,245.482 258.471,245.044 257.979C244.853 257.76,244.825 257.705,244.825 257.65C244.825 257.596,244.825 257.596,244.825 257.568C244.825 257.459,244.907 257.377,244.962 257.349"/><path stroke="none" d="M245.728 216.958C244.223 221.253,241.186 227.929,241.186 228.203C241.186 228.422,241.351 228.75,241.624 228.75L241.652 228.723C242.363 228.312,245.564 227.382,245.728 227.382C245.865 227.382,249.093 228.394,249.668 228.723L249.695 228.75C249.969 228.75,250.161 228.422,250.161 228.203C250.161 227.929,247.206 221.253,245.728 216.958"/></g><g class="vf-tabnote" id="vf-auto31573" pointer-events="bounding-box"><rect x="309.776" y="189" width="11.417" height="6" fill="#FFF" stroke="none"/><text stroke="none" x="311.776" y="197">5</text><rect x="309.776" y="202" width="11.417" height="6" fill="#FFF" stroke="none"/><text stroke="none" x="311.776" y="210">5</text><rect x="309.773" y="215" width="11.422" height="6" fill="#FFF" stroke="none"/><text stroke="none" x="311.773" y="223">6</text><rect x="309.776" y="228" width="11.417" height="6" fill="#FFF" stroke="none"/><text stroke="none" x="311.776" y="236">7</text><rect x="309.776" y="241" width="11.417" height="6" fill="#FFF" stroke="none"/><text stroke="none" x="311.776" y="249">7</text><rect x="309.776" y="254" width="11.417" height="6" fill="#FFF" stroke="none"/><text stroke="none" x="311.776" y="262">5</text><path stroke="none" d="M304.549 185.099C304.603 185.099,304.631 185.045,304.658 185.045C304.85 185.045,305.041 185.236,305.643 185.893C306.71 187.124,307.011 187.644,307.011 188.383C307.011 188.465,307.011 188.492,307.011 188.574C306.984 189.45,306.573 190.216,305.588 191.228C304.932 191.912,304.385 192.706,304.138 193.253C304.111 193.335,304.084 193.444,304.084 193.554C304.084 193.937,304.303 194.402,304.74 194.894C304.904 195.086,304.959 195.223,304.959 195.305C304.959 195.387,304.932 195.414,304.85 195.496C304.822 195.551,304.74 195.551,304.713 195.551C304.603 195.551,304.494 195.469,304.303 195.277C303.208 194.238,302.634 193.39,302.442 192.87C302.387 192.651,302.36 192.377,302.36 192.158C302.36 191.31,302.798 190.407,303.783 189.368C304.439 188.684,305.014 187.89,305.233 187.398C305.315 187.288,305.315 187.179,305.315 187.069C305.315 186.686,305.069 186.221,304.631 185.729C304.439 185.51,304.412 185.455,304.412 185.4C304.412 185.346,304.412 185.346,304.412 185.318C304.412 185.209,304.494 185.127,304.549 185.099"/><path stroke="none" d="M304.549 195.099C304.603 195.099,304.631 195.045,304.658 195.045C304.85 195.045,305.041 195.236,305.643 195.893C306.71 197.124,307.011 197.644,307.011 198.383C307.011 198.465,307.011 198.492,307.011 198.574C306.984 199.45,306.573 200.216,305.588 201.228C304.932 201.912,304.385 202.706,304.138 203.253C304.111 203.335,304.084 203.444,304.084 203.554C304.084 203.937,304.303 204.402,304.74 204.894C304.904 205.086,304.959 205.223,304.959 205.305C304.959 205.387,304.932 205.414,304.85 205.496C304.822 205.551,304.74 205.551,304.713 205.551C304.603 205.551,304.494 205.469,304.303 205.277C303.208 204.238,302.634 203.39,302.442 202.87C302.387 202.651,302.36 202.377,302.36 202.158C302.36 201.31,302.798 200.407,303.783 199.368C304.439 198.684,305.014 197.89,305.233 197.398C305.315 197.288,305.315 197.179,305.315 197.069C305.315 196.686,305.069 196.221,304.631 195.729C304.439 195.51,304.412 195.455,304.412 195.4C304.412 195.346,304.412 195.346,304.412 195.318C304.412 195.209,304.494 195.127,304.549 195.099"/><path stroke="none" d="M304.549 205.099C304.603 205.099,304.631 205.045,304.658 205.045C304.85 205.045,305.041 205.236,305.643 205.893C306.71 207.124,307.011 207.644,307.011 208.383C307.011 208.465,307.011 208.492,307.011 208.574C306.984 209.45,306.573 210.216,305.588 211.228C304.932 211.912,304.385 212.706,304.138 213.253C304.111 213.335,304.084 213.444,304.084 213.554C304.084 213.937,304.303 214.402,304.74 214.894C304.904 215.086,304.959 215.223,304.959 215.305C304.959 215.387,304.932 215.414,304.85 215.496C304.822 215.551,304.74 215.551,304.713 215.551C304.603 215.551,304.494 215.469,304.303 215.277C303.208 214.238,302.634 213.39,302.442 212.87C302.387 212.651,302.36 212.377,302.36 212.158C302.36 211.31,302.798 210.407,303.783 209.368C304.439 208.684,305.014 207.89,305.233 207.398C305.315 207.288,305.315 207.179,305.315 207.069C305.315 206.686,305.069 206.221,304.631 205.729C304.439 205.51,304.412 205.455,304.412 205.4C304.412 205.346,304.412 205.346,304.412 205.318C304.412 205.209,304.494 205.127,304.549 205.099"/><path stroke="none" d="M304.549 215.099C304.603 215.099,304.631 215.045,304.658 215.045C304.85 215.045,305.041 215.236,305.643 215.893C306.71 217.124,307.011 217.644,307.011 218.383C307.011 218.465,307.011 218.492,307.011 218.574C306.984 219.45,306.573 220.216,305.588 221.228C304.932 221.912,304.385 222.706,304.138 223.253C304.111 223.335,304.084 223.444,304.084 223.554C304.084 223.937,304.303 224.402,304.74 224.894C304.904 225.086,304.959 225.223,304.959 225.305C304.959 225.387,304.932 225.414,304.85 225.496C304.822 225.551,304.74 225.551,304.713 225.551C304.603 225.551,304.494 225.469,304.303 225.277C303.208 224.238,302.634 223.39,302.442 222.87C302.387 222.651,302.36 222.377,302.36 222.158C302.36 221.31,302.798 220.407,303.783 219.368C304.439 218.684,305.014 217.89,305.233 217.398C305.315 217.288,305.315 217.179,305.315 217.069C305.315 216.686,305.069 216.221,304.631 215.729C304.439 215.51,304.412 215.455,304.412 215.4C304.412 215.346,304.412 215.346,304.412 215.318C304.412 215.209,304.494 215.127,304.549 215.099"/><path stroke="none" d="M304.549 225.099C304.603 225.099,304.631 225.045,304.658 225.045C304.85 225.045,305.041 225.236,305.643 225.893C306.71 227.124,307.011 227.644,307.011 228.383C307.011 228.465,307.011 228.492,307.011 228.574C306.984 229.45,306.573 230.216,305.588 231.228C304.932 231.912,304.385 232.706,304.138 233.253C304.111 233.335,304.084 233.444,304.084 233.554C304.084 233.937,304.303 234.402,304.74 234.894C304.904 235.086,304.959 235.223,304.959 235.305C304.959 235.387,304.932 235.414,304.85 235.496C304.822 235.551,304.74 235.551,304.713 235.551C304.603 235.551,304.494 235.469,304.303 235.277C303.208 234.238,302.634 233.39,302.442 232.87C302.387 232.651,302.36 232.377,302.36 232.158C302.36 231.31,302.798 230.407,303.783 229.368C304.439 228.684,305.014 227.89,305.233 227.398C305.315 227.288,305.315 227.179,305.315 227.069C305.315 226.686,305.069 226.221,304.631 225.729C304.439 225.51,304.412 225.455,304.412 225.4C304.412 225.346,304.412 225.346,304.412 225.318C304.412 225.209,304.494 225.127,304.549 225.099"/><path stroke="none" d="M304.549 235.099C304.603 235.099,304.631 235.045,304.658 235.045C304.85 235.045,305.041 235.236,305.643 235.893C306.71 237.124,307.011 237.644,307.011 238.383C307.011 238.465,307.011 238.492,307.011 238.574C306.984 239.45,306.573 240.216,305.588 241.228C304.932 241.912,304.385 242.706,304.138 243.253C304.111 243.335,304.084 243.444,304.084 243.554C304.084 243.937,304.303 244.402,304.74 244.894C304.904 245.086,304.959 245.223,304.959 245.305C304.959 245.387,304.932 245.414,304.85 245.496C304.822 245.551,304.74 245.551,304.713 245.551C304.603 245.551,304.494 245.469,304.303 245.277C303.208 244.238,302.634 243.39,302.442 242.87C302.387 242.651,302.36 242.377,302.36 242.158C302.36 241.31,302.798 240.407,303.783 239.368C304.439 238.684,305.014 237.89,305.233 237.398C305.315 237.288,305.315 237.179,305.315 237.069C305.315 236.686,305.069 236.221,304.631 235.729C304.439 235.51,304.412 235.455,304.412 235.4C304.412 235.346,304.412 235.346,304.412 235.318C304.412 235.209,304.494 235.127,304.549 235.099"/><path stroke="none" d="M304.549 245.099C304.603 245.099,304.631 245.045,304.658 245.045C304.85 245.045,305.041 245.236,305.643 245.893C306.71 247.124,307.011 247.644,307.011 248.383C307.011 248.465,307.011 248.492,307.011 248.574C306.984 249.45,306.573 250.216,305.588 251.228C304.932 251.912,304.385 252.706,304.138 253.253C304.111 253.335,304.084 253.444,304.084 253.554C304.084 253.937,304.303 254.402,304.74 254.894C304.904 255.086,304.959 255.223,304.959 255.305C304.959 255.387,304.932 255.414,304.85 255.496C304.822 255.551,304.74 255.551,304.713 255.551C304.603 255.551,304.494 255.469,304.303 255.277C303.208 254.238,302.634 253.39,302.442 252.87C302.387 252.651,302.36 252.377,302.36 252.158C302.36 251.31,302.798 250.407,303.783 249.368C304.439 248.684,305.014 247.89,305.233 247.398C305.315 247.288,305.315 247.179,305.315 247.069C305.315 246.686,305.069 246.221,304.631 245.729C304.439 245.51,304.412 245.455,304.412 245.4C304.412 245.346,304.412 245.346,304.412 245.318C304.412 245.209,304.494 245.127,304.549 245.099"/><path stroke="none" d="M304.315 267.75C305.792 263.454,308.747 256.806,308.747 256.532C308.747 256.286,308.556 255.958,308.282 255.958L308.255 256.013C307.68 256.314,304.452 257.353,304.315 257.353C304.151 257.353,300.95 256.396,300.238 256.013L300.211 255.958C299.937 255.958,299.773 256.286,299.773 256.532C299.773 256.806,302.81 263.454,304.315 267.75"/></g><g class="vf-tabnote" id="vf-auto31576" pointer-events="bounding-box"><rect x="369.36" y="215" width="11.417" height="6" fill="#FFF" stroke="none"/><text stroke="none" x="371.36" y="223">7</text><rect x="369.36" y="228" width="11.417" height="6" fill="#FFF" stroke="none"/><text stroke="none" x="371.36" y="236">7</text><rect x="369.36" y="241" width="11.417" height="6" fill="#FFF" stroke="none"/><text stroke="none" x="371.36" y="249">7</text><rect x="369.36" y="254" width="11.417" height="6" fill="#FFF" stroke="none"/><text stroke="none" x="371.36" y="262">7</text><path stroke="none" d="M364.135 227.349C364.19 227.349,364.217 227.295,364.245 227.295C364.436 227.295,364.628 227.486,365.23 228.143C366.297 229.374,366.598 229.894,366.598 230.633C366.598 230.715,366.598 230.742,366.598 230.824C366.57 231.7,366.16 232.466,365.175 233.478C364.518 234.162,363.971 234.956,363.725 235.503C363.698 235.585,363.67 235.694,363.67 235.804C363.67 236.187,363.889 236.652,364.327 237.144C364.491 237.336,364.546 237.473,364.546 237.555C364.546 237.637,364.518 237.664,364.436 237.746C364.409 237.801,364.327 237.801,364.3 237.801C364.19 237.801,364.081 237.719,363.889 237.527C362.795 236.488,362.22 235.64,362.029 235.12C361.974 234.901,361.947 234.627,361.947 234.408C361.947 233.56,362.384 232.657,363.369 231.618C364.026 230.934,364.601 230.14,364.819 229.648C364.901 229.538,364.901 229.429,364.901 229.319C364.901 228.936,364.655 228.471,364.217 227.979C364.026 227.76,363.999 227.705,363.999 227.65C363.999 227.596,363.999 227.596,363.999 227.568C363.999 227.459,364.081 227.377,364.135 227.349"/><path stroke="none" d="M364.135 237.349C364.19 237.349,364.217 237.295,364.245 237.295C364.436 237.295,364.628 237.486,365.23 238.143C366.297 239.374,366.598 239.894,366.598 240.633C366.598 240.715,366.598 240.742,366.598 240.824C366.57 241.7,366.16 242.466,365.175 243.478C364.518 244.162,363.971 244.956,363.725 245.503C363.698 245.585,363.67 245.694,363.67 245.804C363.67 246.187,363.889 246.652,364.327 247.144C364.491 247.336,364.546 247.473,364.546 247.555C364.546 247.637,364.518 247.664,364.436 247.746C364.409 247.801,364.327 247.801,364.3 247.801C364.19 247.801,364.081 247.719,363.889 247.527C362.795 246.488,362.22 245.64,362.029 245.12C361.974 244.901,361.947 244.627,361.947 244.408C361.947 243.56,362.384 242.657,363.369 241.618C364.026 240.934,364.601 240.14,364.819 239.648C364.901 239.538,364.901 239.429,364.901 239.319C364.901 238.936,364.655 238.471,364.217 237.979C364.026 237.76,363.999 237.705,363.999 237.65C363.999 237.596,363.999 237.596,363.999 237.568C363.999 237.459,364.081 237.377,364.135 237.349"/><path stroke="none" d="M364.135 247.349C364.19 247.349,364.217 247.295,364.245 247.295C364.436 247.295,364.628 247.486,365.23 248.143C366.297 249.374,366.598 249.894,366.598 250.633C366.598 250.715,366.598 250.742,366.598 250.824C366.57 251.7,366.16 252.466,365.175 253.478C364.518 254.162,363.971 254.956,363.725 255.503C363.698 255.585,363.67 255.694,363.67 255.804C363.67 256.187,363.889 256.652,364.327 257.144C364.491 257.336,364.546 257.473,364.546 257.555C364.546 257.637,364.518 257.664,364.436 257.746C364.409 257.801,364.327 257.801,364.3 257.801C364.19 257.801,364.081 257.719,363.889 257.527C362.795 256.488,362.22 255.64,362.029 255.12C361.974 254.901,361.947 254.627,361.947 254.408C361.947 253.56,362.384 252.657,363.369 251.618C364.026 250.934,364.601 250.14,364.819 249.648C364.901 249.538,364.901 249.429,364.901 249.319C364.901 248.936,364.655 248.471,364.217 247.979C364.026 247.76,363.999 247.705,363.999 247.65C363.999 247.596,363.999 247.596,363.999 247.568C363.999 247.459,364.081 247.377,364.135 247.349"/><path stroke="none" d="M364.135 257.349C364.19 257.349,364.217 257.295,364.245 257.295C364.436 257.295,364.628 257.486,365.23 258.143C366.297 259.374,366.598 259.894,366.598 260.633C366.598 260.715,366.598 260.742,366.598 260.824C366.57 261.7,366.16 262.466,365.175 263.478C364.518 264.162,363.971 264.956,363.725 265.503C363.698 265.585,363.67 265.694,363.67 265.804C363.67 266.187,363.889 266.652,364.327 267.144C364.491 267.336,364.546 267.473,364.546 267.555C364.546 267.637,364.518 267.664,364.436 267.746C364.409 267.801,364.327 267.801,364.3 267.801C364.19 267.801,364.081 267.719,363.889 267.527C362.795 266.488,362.22 265.64,362.029 265.12C361.974 264.901,361.947 264.627,361.947 264.408C361.947 263.56,362.384 262.657,363.369 261.618C364.026 260.934,364.601 260.14,364.819 259.648C364.901 259.538,364.901 259.429,364.901 259.319C364.901 258.936,364.655 258.471,364.217 257.979C364.026 257.76,363.999 257.705,363.999 257.65C363.999 257.596,363.999 257.596,363.999 257.568C363.999 257.459,364.081 257.377,364.135 257.349"/><path stroke="none" d="M364.901 216.958C363.397 221.253,360.36 227.929,360.36 228.203C360.36 228.422,360.524 228.75,360.797 228.75L360.825 228.723C361.536 228.312,364.737 227.382,364.901 227.382C365.038 227.382,368.267 228.394,368.841 228.723L368.869 228.75C369.142 228.75,369.334 228.422,369.334 228.203C369.334 227.929,366.379 221.253,364.901 216.958"/><text stroke="none" font-family="Times New Roman, serif" font-weight="bold" font-style="italic" x="359.36" y="280.75">R</text></g><g class="vf-tabnote" id="vf-auto31579" pointer-events="bounding-box"><rect x="428.949" y="189" width="11.417" height="6" fill="#FFF" stroke="none"/><text stroke="none" x="430.949" y="197">5</text><rect x="428.949" y="202" width="11.417" height="6" fill="#FFF" stroke="none"/><text stroke="none" x="430.949" y="210">5</text><rect x="428.946" y="215" width="11.422" height="6" fill="#FFF" stroke="none"/><text stroke="none" x="430.946" y="223">6</text><rect x="428.949" y="228" width="11.417" height="6" fill="#FFF" stroke="none"/><text stroke="none" x="430.949" y="236">7</text><rect x="428.949" y="241" width="11.417" height="6" fill="#FFF" stroke="none"/><text stroke="none" x="430.949" y="249">7</text><rect x="428.949" y="254" width="11.417" height="6" fill="#FFF" stroke="none"/><text stroke="none" x="430.949" y="262">5</text><path stroke="none" d="M423.722 185.099C423.777 185.099,423.804 185.045,423.831 185.045C424.023 185.045,424.215 185.236,424.816 185.893C425.883 187.124,426.184 187.644,426.184 188.383C426.184 188.465,426.184 188.492,426.184 188.574C426.157 189.45,425.747 190.216,424.762 191.228C424.105 191.912,423.558 192.706,423.312 193.253C423.284 193.335,423.257 193.444,423.257 193.554C423.257 193.937,423.476 194.402,423.914 194.894C424.078 195.086,424.132 195.223,424.132 195.305C424.132 195.387,424.105 195.414,424.023 195.496C423.996 195.551,423.914 195.551,423.886 195.551C423.777 195.551,423.667 195.469,423.476 195.277C422.381 194.238,421.807 193.39,421.615 192.87C421.561 192.651,421.533 192.377,421.533 192.158C421.533 191.31,421.971 190.407,422.956 189.368C423.613 188.684,424.187 187.89,424.406 187.398C424.488 187.288,424.488 187.179,424.488 187.069C424.488 186.686,424.242 186.221,423.804 185.729C423.613 185.51,423.585 185.455,423.585 185.4C423.585 185.346,423.585 185.346,423.585 185.318C423.585 185.209,423.667 185.127,423.722 185.099"/><path stroke="none" d="M423.722 195.099C423.777 195.099,423.804 195.045,423.831 195.045C424.023 195.045,424.215 195.236,424.816 195.893C425.883 197.124,426.184 197.644,426.184 198.383C426.184 198.465,426.184 198.492,426.184 198.574C426.157 199.45,425.747 200.216,424.762 201.228C424.105 201.912,423.558 202.706,423.312 203.253C423.284 203.335,423.257 203.444,423.257 203.554C423.257 203.937,423.476 204.402,423.914 204.894C424.078 205.086,424.132 205.223,424.132 205.305C424.132 205.387,424.105 205.414,424.023 205.496C423.996 205.551,423.914 205.551,423.886 205.551C423.777 205.551,423.667 205.469,423.476 205.277C422.381 204.238,421.807 203.39,421.615 202.87C421.561 202.651,421.533 202.377,421.533 202.158C421.533 201.31,421.971 200.407,422.956 199.368C423.613 198.684,424.187 197.89,424.406 197.398C424.488 197.288,424.488 197.179,424.488 197.069C424.488 196.686,424.242 196.221,423.804 195.729C423.613 195.51,423.585 195.455,423.585 195.4C423.585 195.346,423.585 195.346,423.585 195.318C423.585 195.209,423.667 195.127,423.722 195.099"/><path stroke="none" d="M423.722 205.099C423.777 205.099,423.804 205.045,423.831 205.045C424.023 205.045,424.215 205.236,424.816 205.893C425.883 207.124,426.184 207.644,426.184 208.383C426.184 208.465,426.184 208.492,426.184 208.574C426.157 209.45,425.747 210.216,424.762 211.228C424.105 211.912,423.558 212.706,423.312 213.253C423.284 213.335,423.257 213.444,423.257 213.554C423.257 213.937,423.476 214.402,423.914 214.894C424.078 215.086,424.132 215.223,424.132 215.305C424.132 215.387,424.105 215.414,424.023 215.496C423.996 215.551,423.914 215.551,423.886 215.551C423.777 215.551,423.667 215.469,423.476 215.277C422.381 214.238,421.807 213.39,421.615 212.87C421.561 212.651,421.533 212.377,421.533 212.158C421.533 211.31,421.971 210.407,422.956 209.368C423.613 208.684,424.187 207.89,424.406 207.398C424.488 207.288,424.488 207.179,424.488 207.069C424.488 206.686,424.242 206.221,423.804 205.729C423.613 205.51,423.585 205.455,423.585 205.4C423.585 205.346,423.585 205.346,423.585 205.318C423.585 205.209,423.667 205.127,423.722 205.099"/><path stroke="none" d="M423.722 215.099C423.777 215.099,423.804 215.045,423.831 215.045C424.023 215.045,424.215 215.236,424.816 215.893C425.883 217.124,426.184 217.644,426.184 218.383C426.184 218.465,426.184 218.492,426.184 218.574C426.157 219.45,425.747 220.216,424.762 221.228C424.105 221.912,423.558 222.706,423.312 223.253C423.284 223.335,423.257 223.444,423.257 223.554C423.257 223.937,423.476 224.402,423.914 224.894C424.078 225.086,424.132 225.223,424.132 225.305C424.132 225.387,424.105 225.414,424.023 225.496C423.996 225.551,423.914 225.551,423.886 225.551C423.777 225.551,423.667 225.469,423.476 225.277C422.381 224.238,421.807 223.39,421.615 222.87C421.561 222.651,421.533 222.377,421.533 222.158C421.533 221.31,421.971 220.407,422.956 219.368C423.613 218.684,424.187 217.89,424.406 217.398C424.488 217.288,424.488 217.179,424.488 217.069C424.488 216.686,424.242 216.221,423.804 215.729C423.613 215.51,423.585 215.455,423.585 215.4C423.585 215.346,423.585 215.346,423.585 215.318C423.585 215.209,423.667 215.127,423.722 215.099"/><path stroke="none" d="M423.722 225.099C423.777 225.099,423.804 225.045,423.831 225.045C424.023 225.045,424.215 225.236,424.816 225.893C425.883 227.124,426.184 227.644,426.184 228.383C426.184 228.465,426.184 228.492,426.184 228.574C426.157 229.45,425.747 230.216,424.762 231.228C424.105 231.912,423.558 232.706,423.312 233.253C423.284 233.335,423.257 233.444,423.257 233.554C423.257 233.937,423.476 234.402,423.914 234.894C424.078 235.086,424.132 235.223,424.132 235.305C424.132 235.387,424.105 235.414,424.023 235.496C423.996 235.551,423.914 235.551,423.886 235.551C423.777 235.551,423.667 235.469,423.476 235.277C422.381 234.238,421.807 233.39,421.615 232.87C421.561 232.651,421.533 232.377,421.533 232.158C421.533 231.31,421.971 230.407,422.956 229.368C423.613 228.684,424.187 227.89,424.406 227.398C424.488 227.288,424.488 227.179,424.488 227.069C424.488 226.686,424.242 226.221,423.804 225.729C423.613 225.51,423.585 225.455,423.585 225.4C423.585 225.346,423.585 225.346,423.585 225.318C423.585 225.209,423.667 225.127,423.722 225.099"/><path stroke="none" d="M423.722 235.099C423.777 235.099,423.804 235.045,423.831 235.045C424.023 235.045,424.215 235.236,424.816 235.893C425.883 237.124,426.184 237.644,426.184 238.383C426.184 238.465,426.184 238.492,426.184 238.574C426.157 239.45,425.747 240.216,424.762 241.228C424.105 241.912,423.558 242.706,423.312 243.253C423.284 243.335,423.257 243.444,423.257 243.554C423.257 243.937,423.476 244.402,423.914 244.894C424.078 245.086,424.132 245.223,424.132 245.305C424.132 245.387,424.105 245.414,424.023 245.496C423.996 245.551,423.914 245.551,423.886 245.551C423.777 245.551,423.667 245.469,423.476 245.277C422.381 244.238,421.807 243.39,421.615 242.87C421.561 242.651,421.533 242.377,421.533 242.158C421.533 241.31,421.971 240.407,422.956 239.368C423.613 238.684,424.187 237.89,424.406 237.398C424.488 237.288,424.488 237.179,424.488 237.069C424.488 236.686,424.242 236.221,423.804 235.729C423.613 235.51,423.585 235.455,423.585 235.4C423.585 235.346,423.585 235.346,423.585 235.318C423.585 235.209,423.667 235.127,423.722 235.099"/><path stroke="none" d="M423.722 245.099C423.777 245.099,423.804 245.045,423.831 245.045C424.023 245.045,424.215 245.236,424.816 245.893C425.883 247.124,426.184 247.644,426.184 248.383C426.184 248.465,426.184 248.492,426.184 248.574C426.157 249.45,425.747 250.216,424.762 251.228C424.105 251.912,423.558 252.706,423.312 253.253C423.284 253.335,423.257 253.444,423.257 253.554C423.257 253.937,423.476 254.402,423.914 254.894C424.078 255.086,424.132 255.223,424.132 255.305C424.132 255.387,424.105 255.414,424.023 255.496C423.996 255.551,423.914 255.551,423.886 255.551C423.777 255.551,423.667 255.469,423.476 255.277C422.381 254.238,421.807 253.39,421.615 252.87C421.561 252.651,421.533 252.377,421.533 252.158C421.533 251.31,421.971 250.407,422.956 249.368C423.613 248.684,424.187 247.89,424.406 247.398C424.488 247.288,424.488 247.179,424.488 247.069C424.488 246.686,424.242 246.221,423.804 245.729C423.613 245.51,423.585 245.455,423.585 245.4C423.585 245.346,423.585 245.346,423.585 245.318C423.585 245.209,423.667 245.127,423.722 245.099"/><path stroke="none" d="M423.488 267.75C424.966 263.454,427.92 256.806,427.92 256.532C427.92 256.286,427.729 255.958,427.455 255.958L427.428 256.013C426.853 256.314,423.625 257.353,423.488 257.353C423.324 257.353,420.123 256.396,419.411 256.013L419.384 255.958C419.111 255.958,418.946 256.286,418.946 256.532C418.946 256.806,421.983 263.454,423.488 267.75"/><text stroke="none" font-family="Times New Roman, serif" font-weight="bold" font-style="italic" x="418.946" y="182.25">R</text></g><path stroke="none" d="M10 74L15.184 74C21.808 72.762,27.741 69.68,29.411 62.768C29.44 62.595,29.44 62.48,29.44 62.336C29.44 62.019,29.325 61.846,29.123 61.76C28.749 61.76,28.288 62.048,28.086 62.336C27.654 62.797,22.442 68.269,14.522 68.845L10.346 68.845C10.086 68.845,10 68.902,10 69.162"/><path stroke="none" d="M10 268.838C10 269.098,10.086 269.155,10.346 269.155L14.522 269.155C22.442 269.731,27.654 275.203,28.086 275.664C28.288 275.952,28.749 276.24,29.123 276.24C29.325 276.154,29.44 275.981,29.44 275.664C29.44 275.52,29.44 275.405,29.411 275.232C27.741 268.32,21.808 265.238,15.184 264L10 264"/><rect x="10" y="74" width="3" height="190" stroke="none"/><rect x="15" y="80" width="1" height="178" stroke="none"/><g class="vf-stem" id="vf-auto31499" pointer-events="bounding-box"><path stroke-width="1.5" fill="none" d="M263.37 133L263.37 46.178"/></g><g class="vf-stem" id="vf-auto31511" pointer-events="bounding-box"><path stroke-width="1.5" fill="none" d="M322.957 138L322.957 35.75"/></g><g class="vf-beam" id="vf-auto31622"><path stroke="none" d="M262.62 45.559L262.62 50.559L323.207 40.131L323.207 35.131Z"/></g><g class="vf-stem" id="vf-auto31529" pointer-events="bounding-box"><path stroke-width="1.5" fill="none" d="M382.544 133L382.544 46.178"/></g><g class="vf-stem" id="vf-auto31541" pointer-events="bounding-box"><path stroke-width="1.5" fill="none" d="M442.13 138L442.13 35.75"/></g><g class="vf-beam" id="vf-auto31623"><path stroke="none" d="M381.794 45.559L381.794 50.559L442.38 40.131L442.38 35.131Z"/></g></svg>