<svg xmlns="http://www.w3.org/2000/svg" stroke-width="0.3" stroke-dasharray="none" fill="black" stroke="black" font-family="Arial, sans-serif" font-size="10pt" font-weight="normal" font-style="normal" width="675" height="195" viewBox="0 0 675 195" style="width: 675px; height: 195px; border: none;"><g class="vf-stave" id="vf-auto4055" stroke-width="1" fill="#999999" stroke="#999999"><path fill="none" d="M10 70L135 70"/><path fill="none" d="M10 80L135 80"/><path fill="none" d="M10 90L135 90"/><path fill="none" d="M10 100L135 100"/><path fill="none" d="M10 110L135 110"/></g><g class="vf-stavebarline" id="vf-auto4056"><rect x="10" y="69.5" width="1" height="41" stroke="none"/></g><g class="vf-stavebarline" id="vf-auto4057"/><g class="vf-stavenote" id="vf-auto4026"><path stroke-width="1.4" fill="none" stroke="#444" d="M24 120L41.99 120"/><path stroke-width="1.4" fill="none" stroke="#444" d="M24 130L41.99 130"/><g class="vf-stem" id="vf-auto4027" pointer-events="bounding-box"><path stroke-width="1.5" fill="none" d="M38.24 128.5L38.24 90"/></g><g class="vf-notehead" id="vf-auto4029" pointer-events="bounding-box"><path stroke="none" d="M34.104 124.889C34.188 124.889,34.273 124.889,34.413 124.889C34.778 124.889,35.312 124.918,35.508 124.946C37.839 125.283,38.99 126.827,38.99 128.624C38.99 130.534,37.698 132.724,35.115 134.128C33.852 134.802,32.56 135.111,31.38 135.111C29.218 135.111,27.449 134.044,27.084 132.162C27.028 131.881,27 131.629,27 131.376C27 128.343,30.257 125.283,34.104 124.889"/><path stroke="none" d="M29.274 140.055C29.356 140.027,29.438 140,29.493 140C29.767 140,29.985 140.192,30.259 140.602C31.271 142.161,32.12 143.995,32.776 146.019C32.886 146.375,32.995 146.621,32.995 146.621C32.995 146.621,33.105 146.375,33.214 146.019C33.871 143.995,34.719 142.161,35.731 140.602C35.923 140.274,36.005 140.219,36.114 140.137C36.224 140.055,36.36 140.027,36.497 140.027C36.88 140.027,37.209 140.301,37.209 140.711C37.209 140.93,37.181 140.985,36.908 141.395C35.594 143.447,34.445 146.293,33.789 149.275C33.652 149.795,33.652 149.795,33.542 149.959C33.405 150.123,33.214 150.205,32.995 150.205C32.776 150.205,32.585 150.123,32.448 149.959C32.338 149.795,32.338 149.795,32.202 149.275C31.572 146.348,30.451 143.557,29.11 141.45C28.809 140.958,28.782 140.93,28.782 140.711C28.782 140.41,28.973 140.137,29.274 140.055"/></g></g><g class="vf-stavenote" id="vf-auto4030"><g class="vf-stem" id="vf-auto4031" pointer-events="bounding-box"><path stroke-width="1.5" fill="none" d="M64.806 93.5L64.806 60"/></g><g class="vf-notehead" id="vf-auto4033" pointer-events="bounding-box"><path stroke="none" d="M60.67 89.889C60.754 89.889,60.838 89.889,60.979 89.889C61.344 89.889,61.877 89.918,62.074 89.946C64.404 90.283,65.556 91.827,65.556 93.624C65.556 95.534,64.264 97.724,61.681 99.128C60.417 99.802,59.125 100.111,57.946 100.111C55.784 100.111,54.015 99.044,53.65 97.162C53.594 96.881,53.566 96.629,53.566 96.376C53.566 93.343,56.823 90.283,60.67 89.889"/><path stroke="none" d="M55.84 115.055C55.922 115.027,56.004 115,56.059 115C56.332 115,56.551 115.192,56.825 115.602C57.837 117.161,58.685 118.995,59.342 121.019C59.451 121.375,59.561 121.621,59.561 121.621C59.561 121.621,59.67 121.375,59.78 121.019C60.436 118.995,61.284 117.161,62.297 115.602C62.488 115.274,62.57 115.219,62.68 115.137C62.789 115.055,62.926 115.027,63.063 115.027C63.446 115.027,63.774 115.301,63.774 115.711C63.774 115.93,63.747 115.985,63.473 116.395C62.16 118.447,61.011 121.293,60.354 124.275C60.217 124.795,60.217 124.795,60.108 124.959C59.971 125.123,59.78 125.205,59.561 125.205C59.342 125.205,59.15 125.123,59.013 124.959C58.904 124.795,58.904 124.795,58.767 124.275C58.138 121.348,57.016 118.557,55.676 116.45C55.375 115.958,55.347 115.93,55.347 115.711C55.347 115.41,55.539 115.137,55.84 115.055"/></g></g><g class="vf-stavenote" id="vf-auto4034"><path stroke-width="1.4" fill="none" stroke="#444" d="M77.131 120L95.121 120"/><g class="vf-stem" id="vf-auto4035" pointer-events="bounding-box"><path stroke-width="1.5" fill="none" d="M91.371 118.5L91.371 85"/></g><g class="vf-notehead" id="vf-auto4037" pointer-events="bounding-box"><path stroke="none" d="M87.235 114.889C87.32 114.889,87.404 114.889,87.544 114.889C87.909 114.889,88.443 114.918,88.639 114.946C90.97 115.283,92.121 116.827,92.121 118.624C92.121 120.534,90.83 122.724,88.246 124.128C86.983 124.802,85.691 125.111,84.512 125.111C82.349 125.111,80.58 124.044,80.215 122.162C80.159 121.881,80.131 121.629,80.131 121.376C80.131 118.343,83.388 115.283,87.235 114.889"/><path stroke="none" d="M85.907 54.849C85.989 54.822,86.072 54.822,86.126 54.822C86.455 54.822,86.728 55.068,86.838 55.451C86.865 55.561,86.92 55.807,86.974 56.026C87.631 58.871,88.753 61.635,90.039 63.632C90.312 64.042,90.34 64.097,90.34 64.316C90.34 64.699,90.039 65,89.628 65C89.3 65,89.163 64.891,88.862 64.425C87.85 62.866,87.002 61.033,86.345 59.008C86.236 58.652,86.126 58.406,86.126 58.406C86.126 58.406,86.017 58.652,85.907 59.008C85.251 61.005,84.403 62.866,83.39 64.425C83.089 64.891,82.952 65,82.624 65C82.214 65,81.913 64.699,81.913 64.316C81.913 64.097,81.94 64.07,82.241 63.577C83.582 61.471,84.704 58.68,85.333 55.752C85.47 55.232,85.47 55.232,85.579 55.068C85.634 54.986,85.798 54.877,85.907 54.849"/></g></g><g class="vf-stavenote" id="vf-auto4038"><g class="vf-stem" id="vf-auto4039" pointer-events="bounding-box"><path stroke-width="1.5" fill="none" d="M117.937 93.5L117.937 60"/></g><g class="vf-notehead" id="vf-auto4041" pointer-events="bounding-box"><path stroke="none" d="M113.801 89.889C113.885 89.889,113.969 89.889,114.11 89.889C114.475 89.889,115.008 89.918,115.205 89.946C117.536 90.283,118.687 91.827,118.687 93.624C118.687 95.534,117.395 97.724,114.812 99.128C113.548 99.802,112.257 100.111,111.077 100.111C108.915 100.111,107.146 99.044,106.781 97.162C106.725 96.881,106.697 96.629,106.697 96.376C106.697 93.343,109.954 90.283,113.801 89.889"/><path stroke="none" d="M112.473 44.849C112.555 44.822,112.637 44.822,112.692 44.822C113.02 44.822,113.294 45.068,113.403 45.451C113.431 45.561,113.485 45.807,113.54 46.026C114.197 48.871,115.318 51.635,116.604 53.632C116.878 54.042,116.905 54.097,116.905 54.316C116.905 54.699,116.604 55,116.194 55C115.866 55,115.729 54.891,115.428 54.425C114.415 52.866,113.567 51.033,112.911 49.008C112.801 48.652,112.692 48.406,112.692 48.406C112.692 48.406,112.582 48.652,112.473 49.008C111.816 51.005,110.968 52.866,109.956 54.425C109.655 54.891,109.518 55,109.19 55C108.779 55,108.478 54.699,108.478 54.316C108.478 54.097,108.506 54.07,108.807 53.577C110.147 51.471,111.269 48.68,111.898 45.752C112.035 45.232,112.035 45.232,112.145 45.068C112.199 44.986,112.363 44.877,112.473 44.849"/></g></g><g class="vf-stave" id="vf-auto4087" stroke-width="1" fill="#999999" stroke="#999999"><path fill="none" d="M135 70L260 70"/><path fill="none" d="M135 80L260 80"/><path fill="none" d="M135 90L260 90"/><path fill="none" d="M135 100L260 100"/><path fill="none" d="M135 110L260 110"/></g><g class="vf-stavebarline" id="vf-auto4088"><rect x="135" y="69.5" width="1" height="41" stroke="none"/></g><g class="vf-stavebarline" id="vf-auto4089"><rect x="257" y="69.5" width="1" height="41" stroke="none"/><rect x="260" y="69.5" width="1" height="41" stroke="none"/></g><g class="vf-stavenote" id="vf-auto4058"><g class="vf-stem" id="vf-auto4059" pointer-events="bounding-box"><path stroke-width="1.5" fill="none" d="M152.75 86.5L152.75 120"/></g><g class="vf-notehead" id="vf-auto4061" pointer-events="bounding-box"><path stroke="none" d="M159.104 79.889C159.188 79.889,159.273 79.889,159.413 79.889C159.778 79.889,160.312 79.918,160.508 79.946C162.839 80.283,163.99 81.827,163.99 83.624C163.99 85.534,162.698 87.724,160.115 89.128C158.852 89.802,157.56 90.111,156.38 90.111C154.218 90.111,152.449 89.044,152.084 87.162C152.028 86.881,152 86.629,152 86.376C152 83.343,155.257 80.283,159.104 79.889"/><path stroke="none" d="M157.776 54.849C157.858 54.822,157.94 54.822,157.995 54.822C158.323 54.822,158.597 55.068,158.706 55.451C158.734 55.561,158.789 55.807,158.843 56.026C159.5 58.871,160.622 61.635,161.908 63.632C162.181 64.042,162.209 64.097,162.209 64.316C162.209 64.699,161.908 65,161.497 65C161.169 65,161.032 64.891,160.731 64.425C159.719 62.866,158.871 61.033,158.214 59.008C158.105 58.652,157.995 58.406,157.995 58.406C157.995 58.406,157.886 58.652,157.776 59.008C157.12 61.005,156.271 62.866,155.259 64.425C154.958 64.891,154.821 65,154.493 65C154.083 65,153.782 64.699,153.782 64.316C153.782 64.097,153.809 64.07,154.11 63.577C155.451 61.471,156.572 58.68,157.202 55.752C157.338 55.232,157.338 55.232,157.448 55.068C157.503 54.986,157.667 54.877,157.776 54.849"/></g></g><g class="vf-stavenote" id="vf-auto4062"><path stroke-width="1.4" fill="none" stroke="#444" d="M175.566 60L193.556 60"/><g class="vf-stem" id="vf-auto4063" pointer-events="bounding-box"><path stroke-width="1.5" fill="none" d="M179.316 61.5L179.316 95"/></g><g class="vf-notehead" id="vf-auto4065" pointer-events="bounding-box"><path stroke="none" d="M185.67 54.889C185.754 54.889,185.838 54.889,185.979 54.889C186.344 54.889,186.877 54.918,187.074 54.946C189.404 55.283,190.556 56.827,190.556 58.624C190.556 60.534,189.264 62.724,186.681 64.128C185.417 64.802,184.125 65.111,182.946 65.111C180.784 65.111,179.015 64.044,178.65 62.162C178.594 61.881,178.566 61.629,178.566 61.376C178.566 58.343,181.823 55.283,185.67 54.889"/><path stroke="none" d="M184.342 39.849C184.424 39.822,184.506 39.822,184.561 39.822C184.889 39.822,185.163 40.068,185.272 40.451C185.299 40.561,185.354 40.807,185.409 41.026C186.065 43.871,187.187 46.635,188.473 48.632C188.747 49.042,188.774 49.097,188.774 49.316C188.774 49.699,188.473 50,188.063 50C187.734 50,187.598 49.891,187.297 49.425C186.284 47.866,185.436 46.033,184.78 44.008C184.67 43.652,184.561 43.406,184.561 43.406C184.561 43.406,184.451 43.652,184.342 44.008C183.685 46.005,182.837 47.866,181.825 49.425C181.524 49.891,181.387 50,181.059 50C180.648 50,180.347 49.699,180.347 49.316C180.347 49.097,180.375 49.07,180.676 48.577C182.016 46.471,183.138 43.68,183.767 40.752C183.904 40.232,183.904 40.232,184.013 40.068C184.068 39.986,184.232 39.877,184.342 39.849"/></g></g><g class="vf-stavenote" id="vf-auto4066"><g class="vf-stem" id="vf-auto4067" pointer-events="bounding-box"><path stroke-width="1.5" fill="none" d="M205.881 86.5L205.881 120"/></g><g class="vf-notehead" id="vf-auto4069" pointer-events="bounding-box"><path stroke="none" d="M212.235 79.889C212.32 79.889,212.404 79.889,212.544 79.889C212.909 79.889,213.443 79.918,213.639 79.946C215.97 80.283,217.121 81.827,217.121 83.624C217.121 85.534,215.83 87.724,213.246 89.128C211.983 89.802,210.691 90.111,209.512 90.111C207.349 90.111,205.58 89.044,205.215 87.162C205.159 86.881,205.131 86.629,205.131 86.376C205.131 83.343,208.388 80.283,212.235 79.889"/><path stroke="none" d="M207.405 125.055C207.487 125.027,207.569 125,207.624 125C207.898 125,208.117 125.192,208.39 125.602C209.403 127.161,210.251 128.995,210.907 131.019C211.017 131.375,211.126 131.621,211.126 131.621C211.126 131.621,211.236 131.375,211.345 131.019C212.002 128.995,212.85 127.161,213.862 125.602C214.054 125.274,214.136 125.219,214.245 125.137C214.355 125.055,214.492 125.027,214.628 125.027C215.011 125.027,215.34 125.301,215.34 125.711C215.34 125.93,215.312 125.985,215.039 126.395C213.725 128.447,212.576 131.293,211.92 134.275C211.783 134.795,211.783 134.795,211.673 134.959C211.537 135.123,211.345 135.205,211.126 135.205C210.907 135.205,210.716 135.123,210.579 134.959C210.47 134.795,210.47 134.795,210.333 134.275C209.704 131.348,208.582 128.557,207.241 126.45C206.94 125.958,206.913 125.93,206.913 125.711C206.913 125.41,207.104 125.137,207.405 125.055"/></g></g><g class="vf-stavenote" id="vf-auto4070"><path stroke-width="1.4" fill="none" stroke="#444" d="M228.697 60L246.687 60"/><g class="vf-stem" id="vf-auto4071" pointer-events="bounding-box"><path stroke-width="1.5" fill="none" d="M232.447 61.5L232.447 95"/></g><g class="vf-notehead" id="vf-auto4073" pointer-events="bounding-box"><path stroke="none" d="M238.801 54.889C238.885 54.889,238.969 54.889,239.11 54.889C239.475 54.889,240.008 54.918,240.205 54.946C242.536 55.283,243.687 56.827,243.687 58.624C243.687 60.534,242.395 62.724,239.812 64.128C238.548 64.802,237.257 65.111,236.077 65.111C233.915 65.111,232.146 64.044,231.781 62.162C231.725 61.881,231.697 61.629,231.697 61.376C231.697 58.343,234.954 55.283,238.801 54.889"/><path stroke="none" d="M233.971 115.055C234.053 115.027,234.135 115,234.19 115C234.463 115,234.682 115.192,234.956 115.602C235.968 117.161,236.816 118.995,237.473 121.019C237.582 121.375,237.692 121.621,237.692 121.621C237.692 121.621,237.801 121.375,237.911 121.019C238.567 118.995,239.415 117.161,240.428 115.602C240.619 115.274,240.701 115.219,240.811 115.137C240.92 115.055,241.057 115.027,241.194 115.027C241.577 115.027,241.905 115.301,241.905 115.711C241.905 115.93,241.878 115.985,241.604 116.395C240.291 118.447,239.142 121.293,238.485 124.275C238.348 124.795,238.348 124.795,238.239 124.959C238.102 125.123,237.911 125.205,237.692 125.205C237.473 125.205,237.281 125.123,237.145 124.959C237.035 124.795,237.035 124.795,236.898 124.275C236.269 121.348,235.147 118.557,233.807 116.45C233.506 115.958,233.478 115.93,233.478 115.711C233.478 115.41,233.67 115.137,233.971 115.055"/></g></g><g class="vf-stave" id="vf-auto4119" stroke-width="1" fill="#999999" stroke="#999999"><path fill="none" d="M260 70L385 70"/><path fill="none" d="M260 80L385 80"/><path fill="none" d="M260 90L385 90"/><path fill="none" d="M260 100L385 100"/><path fill="none" d="M260 110L385 110"/></g><g class="vf-stavebarline" id="vf-auto4120"><rect x="260" y="69.5" width="1" height="41" stroke="none"/></g><g class="vf-stavebarline" id="vf-auto4121"/><g class="vf-stavenote" id="vf-auto4090"><path stroke-width="1.4" fill="none" stroke="#444" d="M274 120L291.99 120"/><g class="vf-stem" id="vf-auto4091" pointer-events="bounding-box"><path stroke-width="1.5" fill="none" d="M288.24 118.5L288.24 85"/></g><g class="vf-notehead" id="vf-auto4093" pointer-events="bounding-box"><path stroke="none" d="M284.104 114.889C284.188 114.889,284.273 114.889,284.413 114.889C284.778 114.889,285.312 114.918,285.508 114.946C287.839 115.283,288.99 116.827,288.99 118.624C288.99 120.534,287.698 122.724,285.115 124.128C283.852 124.802,282.56 125.111,281.38 125.111C279.218 125.111,277.449 124.044,277.084 122.162C277.028 121.881,277 121.629,277 121.376C277 118.343,280.257 115.283,284.104 114.889"/><path stroke="none" d="M282.776 130.027C282.831 130.027,282.913 130,282.995 130C283.214 130,283.433 130.137,283.515 130.356C283.57 130.438,283.57 130.465,283.57 132.845L283.57 135.253L285.923 135.253C286.306 135.253,286.634 135.253,286.908 135.253C288.604 135.253,288.44 135.28,288.577 135.417C288.686 135.527,288.741 135.691,288.741 135.828C288.741 136.047,288.631 136.265,288.412 136.348C288.303 136.402,288.276 136.402,285.923 136.402L283.57 136.402L283.57 138.81C283.57 139.193,283.57 139.521,283.57 139.795C283.57 141.491,283.542 141.354,283.405 141.491C283.296 141.601,283.132 141.655,282.995 141.655C282.776 141.655,282.557 141.519,282.475 141.3C282.421 141.218,282.421 141.19,282.421 138.81L282.421 136.402L280.068 136.402C277.715 136.402,277.687 136.402,277.578 136.348C277.359 136.265,277.249 136.047,277.249 135.828C277.249 135.691,277.304 135.527,277.414 135.417C277.55 135.28,277.386 135.253,279.083 135.253C279.356 135.253,279.685 135.253,280.068 135.253L282.421 135.253L282.421 132.845C282.421 130.465,282.421 130.438,282.475 130.356C282.503 130.219,282.639 130.082,282.776 130.027"/></g></g><g class="vf-stavenote" id="vf-auto4094"><g class="vf-stem" id="vf-auto4095" pointer-events="bounding-box"><path stroke-width="1.5" fill="none" d="M314.806 83.5L314.806 50"/></g><g class="vf-notehead" id="vf-auto4097" pointer-events="bounding-box"><path stroke="none" d="M310.67 79.889C310.754 79.889,310.838 79.889,310.979 79.889C311.344 79.889,311.877 79.918,312.074 79.946C314.404 80.283,315.556 81.827,315.556 83.624C315.556 85.534,314.264 87.724,311.681 89.128C310.417 89.802,309.125 90.111,307.946 90.111C305.784 90.111,304.015 89.044,303.65 87.162C303.594 86.881,303.566 86.629,303.566 86.376C303.566 83.343,306.823 80.283,310.67 79.889"/><path stroke="none" d="M309.342 115.027C309.396 115.027,309.479 115,309.561 115C309.78 115,309.998 115.137,310.08 115.356C310.135 115.438,310.135 115.465,310.135 117.845L310.135 120.253L312.488 120.253C312.871 120.253,313.2 120.253,313.473 120.253C315.169 120.253,315.005 120.28,315.142 120.417C315.252 120.527,315.306 120.691,315.306 120.828C315.306 121.047,315.197 121.265,314.978 121.348C314.868 121.402,314.841 121.402,312.488 121.402L310.135 121.402L310.135 123.81C310.135 124.193,310.135 124.521,310.135 124.795C310.135 126.491,310.108 126.354,309.971 126.491C309.862 126.601,309.697 126.655,309.561 126.655C309.342 126.655,309.123 126.519,309.041 126.3C308.986 126.218,308.986 126.19,308.986 123.81L308.986 121.402L306.633 121.402C304.28 121.402,304.253 121.402,304.143 121.348C303.924 121.265,303.815 121.047,303.815 120.828C303.815 120.691,303.87 120.527,303.979 120.417C304.116 120.28,303.952 120.253,305.648 120.253C305.922 120.253,306.25 120.253,306.633 120.253L308.986 120.253L308.986 117.845C308.986 115.465,308.986 115.438,309.041 115.356C309.068 115.219,309.205 115.082,309.342 115.027"/></g></g><g class="vf-stavenote" id="vf-auto4098"><path stroke-width="1.4" fill="none" stroke="#444" d="M327.131 120L345.121 120"/><g class="vf-stem" id="vf-auto4099" pointer-events="bounding-box"><path stroke-width="1.5" fill="none" d="M341.371 118.5L341.371 85"/></g><g class="vf-notehead" id="vf-auto4101" pointer-events="bounding-box"><path stroke="none" d="M337.235 114.889C337.32 114.889,337.404 114.889,337.544 114.889C337.909 114.889,338.443 114.918,338.639 114.946C340.97 115.283,342.121 116.827,342.121 118.624C342.121 120.534,340.83 122.724,338.246 124.128C336.983 124.802,335.691 125.111,334.512 125.111C332.349 125.111,330.58 124.044,330.215 122.162C330.159 121.881,330.131 121.629,330.131 121.376C330.131 118.343,333.388 115.283,337.235 114.889"/><path stroke="none" d="M335.907 53.372C335.962 53.372,336.044 53.345,336.126 53.345C336.345 53.345,336.564 53.481,336.646 53.7C336.701 53.782,336.701 53.81,336.701 56.19L336.701 58.598L339.054 58.598C339.437 58.598,339.765 58.598,340.039 58.598C341.735 58.598,341.571 58.625,341.708 58.762C341.817 58.871,341.872 59.036,341.872 59.172C341.872 59.391,341.762 59.61,341.544 59.692C341.434 59.747,341.407 59.747,339.054 59.747L336.701 59.747L336.701 62.155C336.701 62.538,336.701 62.866,336.701 63.14C336.701 64.836,336.673 64.699,336.537 64.836C336.427 64.945,336.263 65,336.126 65C335.907 65,335.688 64.863,335.606 64.644C335.552 64.562,335.552 64.535,335.552 62.155L335.552 59.747L333.199 59.747C330.846 59.747,330.818 59.747,330.709 59.692C330.49 59.61,330.381 59.391,330.381 59.172C330.381 59.036,330.435 58.871,330.545 58.762C330.682 58.625,330.517 58.598,332.214 58.598C332.487 58.598,332.816 58.598,333.199 58.598L335.552 58.598L335.552 56.19C335.552 53.81,335.552 53.782,335.606 53.7C335.634 53.564,335.771 53.427,335.907 53.372"/></g></g><g class="vf-stavenote" id="vf-auto4102"><g class="vf-stem" id="vf-auto4103" pointer-events="bounding-box"><path stroke-width="1.5" fill="none" d="M367.937 93.5L367.937 60"/></g><g class="vf-notehead" id="vf-auto4105" pointer-events="bounding-box"><path stroke="none" d="M363.801 89.889C363.885 89.889,363.969 89.889,364.11 89.889C364.475 89.889,365.008 89.918,365.205 89.946C367.536 90.283,368.687 91.827,368.687 93.624C368.687 95.534,367.395 97.724,364.812 99.128C363.548 99.802,362.257 100.111,361.077 100.111C358.915 100.111,357.146 99.044,356.781 97.162C356.725 96.881,356.697 96.629,356.697 96.376C356.697 93.343,359.954 90.283,363.801 89.889"/><path stroke="none" d="M362.473 43.372C362.528 43.372,362.61 43.345,362.692 43.345C362.911 43.345,363.13 43.481,363.212 43.7C363.266 43.782,363.266 43.81,363.266 46.19L363.266 48.598L365.619 48.598C366.002 48.598,366.331 48.598,366.604 48.598C368.301 48.598,368.136 48.625,368.273 48.762C368.383 48.871,368.437 49.036,368.437 49.172C368.437 49.391,368.328 49.61,368.109 49.692C368 49.747,367.972 49.747,365.619 49.747L363.266 49.747L363.266 52.155C363.266 52.538,363.266 52.866,363.266 53.14C363.266 54.836,363.239 54.699,363.102 54.836C362.993 54.945,362.829 55,362.692 55C362.473 55,362.254 54.863,362.172 54.644C362.117 54.562,362.117 54.535,362.117 52.155L362.117 49.747L359.764 49.747C357.411 49.747,357.384 49.747,357.275 49.692C357.056 49.61,356.946 49.391,356.946 49.172C356.946 49.036,357.001 48.871,357.11 48.762C357.247 48.625,357.083 48.598,358.779 48.598C359.053 48.598,359.381 48.598,359.764 48.598L362.117 48.598L362.117 46.19C362.117 43.81,362.117 43.782,362.172 43.7C362.199 43.564,362.336 43.427,362.473 43.372"/></g></g><g class="vf-stave" id="vf-auto4151" stroke-width="1" fill="#999999" stroke="#999999"><path fill="none" d="M385 70L510 70"/><path fill="none" d="M385 80L510 80"/><path fill="none" d="M385 90L510 90"/><path fill="none" d="M385 100L510 100"/><path fill="none" d="M385 110L510 110"/></g><g class="vf-stavebarline" id="vf-auto4152"><rect x="385" y="69.5" width="1" height="41" stroke="none"/></g><g class="vf-stavebarline" id="vf-auto4153"><rect x="505" y="69.5" width="1" height="41" stroke="none"/><rect x="508" y="69.5" width="3" height="41" stroke="none"/></g><g class="vf-stavenote" id="vf-auto4122"><g class="vf-stem" id="vf-auto4123" pointer-events="bounding-box"><path stroke-width="1.5" fill="none" d="M402.75 96.5L402.75 130"/></g><g class="vf-notehead" id="vf-auto4125" pointer-events="bounding-box"><path stroke="none" d="M409.104 89.889C409.188 89.889,409.273 89.889,409.413 89.889C409.778 89.889,410.312 89.918,410.508 89.946C412.839 90.283,413.99 91.827,413.99 93.624C413.99 95.534,412.698 97.724,410.115 99.128C408.852 99.802,407.56 100.111,406.38 100.111C404.218 100.111,402.449 99.044,402.084 97.162C402.028 96.881,402 96.629,402 96.376C402 93.343,405.257 90.283,409.104 89.889"/><path stroke="none" d="M407.776 53.372C407.831 53.372,407.913 53.345,407.995 53.345C408.214 53.345,408.433 53.481,408.515 53.7C408.57 53.782,408.57 53.81,408.57 56.19L408.57 58.598L410.923 58.598C411.306 58.598,411.634 58.598,411.908 58.598C413.604 58.598,413.44 58.625,413.577 58.762C413.686 58.871,413.741 59.036,413.741 59.172C413.741 59.391,413.631 59.61,413.412 59.692C413.303 59.747,413.276 59.747,410.923 59.747L408.57 59.747L408.57 62.155C408.57 62.538,408.57 62.866,408.57 63.14C408.57 64.836,408.542 64.699,408.405 64.836C408.296 64.945,408.132 65,407.995 65C407.776 65,407.557 64.863,407.475 64.644C407.421 64.562,407.421 64.535,407.421 62.155L407.421 59.747L405.068 59.747C402.715 59.747,402.687 59.747,402.578 59.692C402.359 59.61,402.249 59.391,402.249 59.172C402.249 59.036,402.304 58.871,402.414 58.762C402.55 58.625,402.386 58.598,404.083 58.598C404.356 58.598,404.685 58.598,405.068 58.598L407.421 58.598L407.421 56.19C407.421 53.81,407.421 53.782,407.475 53.7C407.503 53.564,407.639 53.427,407.776 53.372"/></g></g><g class="vf-stavenote" id="vf-auto4126"><path stroke-width="1.4" fill="none" stroke="#444" d="M425.566 60L443.556 60"/><g class="vf-stem" id="vf-auto4127" pointer-events="bounding-box"><path stroke-width="1.5" fill="none" d="M429.316 61.5L429.316 95"/></g><g class="vf-notehead" id="vf-auto4129" pointer-events="bounding-box"><path stroke="none" d="M435.67 54.889C435.754 54.889,435.838 54.889,435.979 54.889C436.344 54.889,436.877 54.918,437.074 54.946C439.404 55.283,440.556 56.827,440.556 58.624C440.556 60.534,439.264 62.724,436.681 64.128C435.417 64.802,434.125 65.111,432.946 65.111C430.784 65.111,429.015 64.044,428.65 62.162C428.594 61.881,428.566 61.629,428.566 61.376C428.566 58.343,431.823 55.283,435.67 54.889"/><path stroke="none" d="M434.342 38.372C434.396 38.372,434.479 38.345,434.561 38.345C434.78 38.345,434.998 38.481,435.08 38.7C435.135 38.782,435.135 38.81,435.135 41.19L435.135 43.598L437.488 43.598C437.871 43.598,438.2 43.598,438.473 43.598C440.169 43.598,440.005 43.625,440.142 43.762C440.252 43.871,440.306 44.036,440.306 44.172C440.306 44.391,440.197 44.61,439.978 44.692C439.868 44.747,439.841 44.747,437.488 44.747L435.135 44.747L435.135 47.155C435.135 47.538,435.135 47.866,435.135 48.14C435.135 49.836,435.108 49.699,434.971 49.836C434.862 49.945,434.697 50,434.561 50C434.342 50,434.123 49.863,434.041 49.644C433.986 49.562,433.986 49.535,433.986 47.155L433.986 44.747L431.633 44.747C429.28 44.747,429.253 44.747,429.143 44.692C428.924 44.61,428.815 44.391,428.815 44.172C428.815 44.036,428.87 43.871,428.979 43.762C429.116 43.625,428.952 43.598,430.648 43.598C430.922 43.598,431.25 43.598,431.633 43.598L433.986 43.598L433.986 41.19C433.986 38.81,433.986 38.782,434.041 38.7C434.068 38.564,434.205 38.427,434.342 38.372"/></g></g><g class="vf-stavenote" id="vf-auto4130"><g class="vf-stem" id="vf-auto4131" pointer-events="bounding-box"><path stroke-width="1.5" fill="none" d="M455.881 86.5L455.881 120"/></g><g class="vf-notehead" id="vf-auto4133" pointer-events="bounding-box"><path stroke="none" d="M462.235 79.889C462.32 79.889,462.404 79.889,462.544 79.889C462.909 79.889,463.443 79.918,463.639 79.946C465.97 80.283,467.121 81.827,467.121 83.624C467.121 85.534,465.83 87.724,463.246 89.128C461.983 89.802,460.691 90.111,459.512 90.111C457.349 90.111,455.58 89.044,455.215 87.162C455.159 86.881,455.131 86.629,455.131 86.376C455.131 83.343,458.388 80.283,462.235 79.889"/><path stroke="none" d="M460.907 125.027C460.962 125.027,461.044 125,461.126 125C461.345 125,461.564 125.137,461.646 125.356C461.701 125.438,461.701 125.465,461.701 127.845L461.701 130.253L464.054 130.253C464.437 130.253,464.765 130.253,465.039 130.253C466.735 130.253,466.571 130.28,466.708 130.417C466.817 130.527,466.872 130.691,466.872 130.828C466.872 131.047,466.762 131.265,466.544 131.348C466.434 131.402,466.407 131.402,464.054 131.402L461.701 131.402L461.701 133.81C461.701 134.193,461.701 134.521,461.701 134.795C461.701 136.491,461.673 136.354,461.537 136.491C461.427 136.601,461.263 136.655,461.126 136.655C460.907 136.655,460.688 136.519,460.606 136.3C460.552 136.218,460.552 136.19,460.552 133.81L460.552 131.402L458.199 131.402C455.846 131.402,455.818 131.402,455.709 131.348C455.49 131.265,455.381 131.047,455.381 130.828C455.381 130.691,455.435 130.527,455.545 130.417C455.682 130.28,455.517 130.253,457.214 130.253C457.487 130.253,457.816 130.253,458.199 130.253L460.552 130.253L460.552 127.845C460.552 125.465,460.552 125.438,460.606 125.356C460.634 125.219,460.771 125.082,460.907 125.027"/></g></g><g class="vf-stavenote" id="vf-auto4134"><path stroke-width="1.4" fill="none" stroke="#444" d="M478.697 60L496.687 60"/><g class="vf-stem" id="vf-auto4135" pointer-events="bounding-box"><path stroke-width="1.5" fill="none" d="M482.447 61.5L482.447 95"/></g><g class="vf-notehead" id="vf-auto4137" pointer-events="bounding-box"><path stroke="none" d="M488.801 54.889C488.885 54.889,488.969 54.889,489.11 54.889C489.475 54.889,490.008 54.918,490.205 54.946C492.536 55.283,493.687 56.827,493.687 58.624C493.687 60.534,492.395 62.724,489.812 64.128C488.548 64.802,487.257 65.111,486.077 65.111C483.915 65.111,482.146 64.044,481.781 62.162C481.725 61.881,481.697 61.629,481.697 61.376C481.697 58.343,484.954 55.283,488.801 54.889"/><path stroke="none" d="M487.473 115.027C487.528 115.027,487.61 115,487.692 115C487.911 115,488.13 115.137,488.212 115.356C488.266 115.438,488.266 115.465,488.266 117.845L488.266 120.253L490.619 120.253C491.002 120.253,491.331 120.253,491.604 120.253C493.301 120.253,493.136 120.28,493.273 120.417C493.383 120.527,493.437 120.691,493.437 120.828C493.437 121.047,493.328 121.265,493.109 121.348C493 121.402,492.972 121.402,490.619 121.402L488.266 121.402L488.266 123.81C488.266 124.193,488.266 124.521,488.266 124.795C488.266 126.491,488.239 126.354,488.102 126.491C487.993 126.601,487.829 126.655,487.692 126.655C487.473 126.655,487.254 126.519,487.172 126.3C487.117 126.218,487.117 126.19,487.117 123.81L487.117 121.402L484.764 121.402C482.411 121.402,482.384 121.402,482.275 121.348C482.056 121.265,481.946 121.047,481.946 120.828C481.946 120.691,482.001 120.527,482.11 120.417C482.247 120.28,482.083 120.253,483.779 120.253C484.053 120.253,484.381 120.253,484.764 120.253L487.117 120.253L487.117 117.845C487.117 115.465,487.117 115.438,487.172 115.356C487.199 115.219,487.336 115.082,487.473 115.027"/></g></g></svg>