<svg xmlns="http://www.w3.org/2000/svg" stroke-width="0.3" stroke-dasharray="none" fill="black" stroke="black" font-family="Arial, sans-serif" font-size="10pt" font-weight="normal" font-style="normal" width="350" height="200" viewBox="0 0 350 200" style="width: 350px; height: 200px; border: none;"><g class="vf-stave" id="vf-auto13661" stroke-width="1" fill="#999999" stroke="#999999"><path fill="none" d="M0 90L340 90"/><path fill="none" d="M0 100L340 100"/><path fill="none" d="M0 110L340 110"/><path fill="none" d="M0 120L340 120"/><path fill="none" d="M0 130L340 130"/></g><g class="vf-stavebarline" id="vf-auto13662"><rect y="89.5" width="1" height="41" stroke="none"/></g><g class="vf-stavebarline" id="vf-auto13663"><rect x="340" y="89.5" width="1" height="41" stroke="none"/></g><g class="vf-stavenote" id="vf-auto13664"><path stroke-width="1.4" fill="none" stroke="#444" d="M17 140L36.508 140"/><g class="vf-notehead" id="vf-auto13670" pointer-events="bounding-box"><path stroke="none" d="M23.645 146.543C23.926 146.599,24.178 146.627,24.459 146.627C28.334 146.627,34.119 141.348,34.006 137.08C33.894 136.041,33.922 134.609,31.816 133.766C31.227 133.485,30.581 133.373,29.879 133.373C25.554 133.373,20.865 138.343,20.528 141.657C20.528 141.909,20.5 142.134,20.5 142.387C20.5 144.409,21.399 146.037,23.645 146.543"/></g></g><g class="vf-stavenote" id="vf-auto13672"><g class="vf-notehead" id="vf-auto13678" pointer-events="bounding-box"><path stroke="none" d="M63.48 96.543C63.761 96.599,64.013 96.627,64.294 96.627C68.169 96.627,73.954 91.348,73.841 87.08C73.729 86.041,73.757 84.609,71.651 83.766C71.061 83.485,70.416 83.373,69.714 83.373C65.389 83.373,60.7 88.343,60.363 91.657C60.363 91.909,60.335 92.134,60.335 92.387C60.335 94.409,61.233 96.037,63.48 96.543"/></g></g><g class="vf-stavenote" id="vf-auto13680"><g class="vf-notehead" id="vf-auto13686" pointer-events="bounding-box"><path stroke="none" d="M103.315 106.543C103.595 106.599,103.848 106.627,104.129 106.627C108.004 106.627,113.788 101.348,113.676 97.08C113.564 96.041,113.592 94.609,111.486 93.766C110.896 93.485,110.25 93.373,109.548 93.373C105.224 93.373,100.535 98.343,100.198 101.657C100.198 101.909,100.17 102.134,100.17 102.387C100.17 104.409,101.068 106.037,103.315 106.543"/></g></g><g class="vf-stavenote" id="vf-auto13688"><g class="vf-notehead" id="vf-auto13694" pointer-events="bounding-box"><path stroke="none" d="M143.149 91.543C143.43 91.599,143.683 91.627,143.964 91.627C147.839 91.627,153.623 86.348,153.511 82.08C153.399 81.041,153.427 79.609,151.321 78.766C150.731 78.485,150.085 78.373,149.383 78.373C145.059 78.373,140.369 83.343,140.032 86.657C140.032 86.909,140.004 87.134,140.004 87.387C140.004 89.409,140.903 91.037,143.149 91.543"/></g></g><g class="vf-stavenote" id="vf-auto13697"><path stroke-width="1.4" fill="none" stroke="#444" d="M176.339 80L195.847 80"/><path stroke-width="1.4" fill="none" stroke="#444" d="M176.339 70L195.847 70"/><g class="vf-notehead" id="vf-auto13703" pointer-events="bounding-box"><path stroke="none" d="M182.484 71.543C182.765 71.599,183.018 71.627,183.298 71.627C187.174 71.627,192.958 66.348,192.846 62.08C192.733 61.041,192.761 59.609,190.655 58.766C190.066 58.485,189.42 58.373,188.718 58.373C184.394 58.373,179.704 63.343,179.367 66.657C179.367 66.909,179.339 67.134,179.339 67.387C179.339 69.409,180.238 71.037,182.484 71.543"/></g></g><g class="vf-stavenote" id="vf-auto13705"><g class="vf-notehead" id="vf-auto13711" pointer-events="bounding-box"><path stroke="none" d="M222.319 96.543C222.6 96.599,222.852 96.627,223.133 96.627C227.008 96.627,232.793 91.348,232.68 87.08C232.568 86.041,232.596 84.609,230.49 83.766C229.901 83.485,229.255 83.373,228.553 83.373C224.228 83.373,219.539 88.343,219.202 91.657C219.202 91.909,219.174 92.134,219.174 92.387C219.174 94.409,220.073 96.037,222.319 96.543"/></g></g><g class="vf-stavenote" id="vf-auto13713"><g class="vf-notehead" id="vf-auto13719" pointer-events="bounding-box"><path stroke="none" d="M262.154 106.543C262.435 106.599,262.687 106.627,262.968 106.627C266.843 106.627,272.628 101.348,272.515 97.08C272.403 96.041,272.431 94.609,270.325 93.766C269.735 93.485,269.09 93.373,268.388 93.373C264.063 93.373,259.374 98.343,259.037 101.657C259.037 101.909,259.009 102.134,259.009 102.387C259.009 104.409,259.907 106.037,262.154 106.543"/></g></g><g class="vf-stavenote" id="vf-auto13721"><g class="vf-notehead" id="vf-auto13727" pointer-events="bounding-box"><path stroke="none" d="M301.989 91.543C302.269 91.599,302.522 91.627,302.803 91.627C306.678 91.627,312.462 86.348,312.35 82.08C312.238 81.041,312.266 79.609,310.16 78.766C309.57 78.485,308.924 78.373,308.222 78.373C303.898 78.373,299.209 83.343,298.872 86.657C298.872 86.909,298.844 87.134,298.844 87.387C298.844 89.409,299.742 91.037,301.989 91.543"/></g></g><g class="vf-stem" id="vf-auto13665" pointer-events="bounding-box"><path stroke-width="1.5" fill="none" d="M32.758 138L32.758 64.713"/></g><g class="vf-stem" id="vf-auto13673" pointer-events="bounding-box"><path stroke-width="1.5" fill="none" d="M72.593 88L72.593 55.75"/></g><g class="vf-stem" id="vf-auto13681" pointer-events="bounding-box"><path stroke-width="1.5" fill="none" d="M112.428 98L112.428 46.787"/></g><g class="vf-stem" id="vf-auto13689" pointer-events="bounding-box"><path stroke-width="1.5" fill="none" d="M152.262 83L152.262 37.824"/></g><g class="vf-beam" id="vf-auto13696"><path stroke="none" d="M32.008 64.132L32.008 69.132L152.512 42.243L152.512 37.243Z"/></g><g class="vf-stem" id="vf-auto13698" pointer-events="bounding-box"><path stroke-width="1.5" fill="none" d="M180.089 67L180.089 130.267"/></g><g class="vf-stem" id="vf-auto13706" pointer-events="bounding-box"><path stroke-width="1.5" fill="none" d="M219.924 92L219.924 132.258"/></g><g class="vf-stem" id="vf-auto13714" pointer-events="bounding-box"><path stroke-width="1.5" fill="none" d="M259.759 102L259.759 134.25"/></g><g class="vf-stem" id="vf-auto13722" pointer-events="bounding-box"><path stroke-width="1.5" fill="none" d="M299.594 87L299.594 136.242"/></g><g class="vf-beam" id="vf-auto13729"><path stroke="none" d="M179.339 130.979L179.339 125.979L299.844 131.954L299.844 136.954Z"/></g><path stroke-width="1" fill="none" d="M33.508 150C60.007 160,113.005 145,139.504 95C113.005 147,60.007 162,33.508 150"/><path stroke="none" d="M33.508 150C60.007 160,113.005 145,139.504 95C113.005 147,60.007 162,33.508 150Z"/><path stroke-width="1" fill="none" d="M192.847 55C219.346 45,272.345 55,298.844 75C272.345 53,219.346 43,192.847 55"/><path stroke="none" d="M192.847 55C219.346 45,272.345 55,298.844 75C272.345 53,219.346 43,192.847 55Z"/></svg>