<svg xmlns="http://www.w3.org/2000/svg" stroke-width="0.3" stroke-dasharray="none" fill="black" stroke="black" font-family="Arial, sans-serif" font-size="10pt" font-weight="normal" font-style="normal" width="350" height="200" viewBox="0 0 350 200" style="width: 350px; height: 200px; border: none;"><g class="vf-stave" id="vf-auto13589" stroke-width="1" fill="#999999" stroke="#999999"><path fill="none" d="M0 90L340 90"/><path fill="none" d="M0 100L340 100"/><path fill="none" d="M0 110L340 110"/><path fill="none" d="M0 120L340 120"/><path fill="none" d="M0 130L340 130"/></g><g class="vf-stavebarline" id="vf-auto13590"><rect y="89.5" width="1" height="41" stroke="none"/></g><g class="vf-stavebarline" id="vf-auto13591"><rect x="340" y="89.5" width="1" height="41" stroke="none"/></g><g class="vf-stavenote" id="vf-auto13592"><path stroke-width="1.4" fill="none" stroke="#444" d="M14 140L31.99 140"/><g class="vf-notehead" id="vf-auto13598" pointer-events="bounding-box"><path stroke="none" d="M24.104 134.889C24.188 134.889,24.273 134.889,24.413 134.889C24.778 134.889,25.312 134.918,25.508 134.946C27.839 135.283,28.99 136.827,28.99 138.624C28.99 140.534,27.698 142.724,25.115 144.128C23.852 144.802,22.56 145.111,21.38 145.111C19.218 145.111,17.449 144.044,17.084 142.162C17.028 141.881,17 141.629,17 141.376C17 138.343,20.257 135.283,24.104 134.889"/></g></g><g class="vf-stavenote" id="vf-auto13600"><g class="vf-notehead" id="vf-auto13606" pointer-events="bounding-box"><path stroke="none" d="M65.527 84.889C65.612 84.889,65.696 84.889,65.836 84.889C66.201 84.889,66.735 84.918,66.931 84.946C69.262 85.283,70.413 86.827,70.413 88.624C70.413 90.534,69.122 92.724,66.538 94.128C65.275 94.802,63.983 95.111,62.804 95.111C60.642 95.111,58.873 94.044,58.507 92.162C58.451 91.881,58.423 91.629,58.423 91.376C58.423 88.343,61.681 85.283,65.527 84.889"/></g></g><g class="vf-stavenote" id="vf-auto13608"><g class="vf-notehead" id="vf-auto13614" pointer-events="bounding-box"><path stroke="none" d="M106.951 94.889C107.035 94.889,107.119 94.889,107.26 94.889C107.625 94.889,108.158 94.918,108.355 94.946C110.685 95.283,111.837 96.827,111.837 98.624C111.837 100.534,110.545 102.724,107.962 104.128C106.698 104.802,105.406 105.111,104.227 105.111C102.065 105.111,100.296 104.044,99.931 102.162C99.875 101.881,99.847 101.629,99.847 101.376C99.847 98.343,103.104 95.283,106.951 94.889"/></g></g><g class="vf-stavenote" id="vf-auto13616"><g class="vf-notehead" id="vf-auto13622" pointer-events="bounding-box"><path stroke="none" d="M148.374 79.889C148.458 79.889,148.542 79.889,148.683 79.889C149.048 79.889,149.581 79.918,149.778 79.946C152.109 80.283,153.26 81.827,153.26 83.624C153.26 85.534,151.968 87.724,149.385 89.128C148.121 89.802,146.83 90.111,145.65 90.111C143.488 90.111,141.719 89.044,141.354 87.162C141.298 86.881,141.27 86.629,141.27 86.376C141.27 83.343,144.527 80.283,148.374 79.889"/></g></g><g class="vf-stavenote" id="vf-auto13625"><path stroke-width="1.4" fill="none" stroke="#444" d="M179.693 80L197.683 80"/><path stroke-width="1.4" fill="none" stroke="#444" d="M179.693 70L197.683 70"/><g class="vf-notehead" id="vf-auto13631" pointer-events="bounding-box"><path stroke="none" d="M189.797 59.889C189.882 59.889,189.966 59.889,190.106 59.889C190.471 59.889,191.005 59.918,191.201 59.946C193.532 60.283,194.683 61.827,194.683 63.624C194.683 65.534,193.392 67.724,190.808 69.128C189.545 69.802,188.253 70.111,187.074 70.111C184.911 70.111,183.142 69.044,182.777 67.162C182.721 66.881,182.693 66.629,182.693 66.376C182.693 63.343,185.95 60.283,189.797 59.889"/></g></g><g class="vf-stavenote" id="vf-auto13633"><g class="vf-notehead" id="vf-auto13639" pointer-events="bounding-box"><path stroke="none" d="M231.221 84.889C231.305 84.889,231.389 84.889,231.529 84.889C231.894 84.889,232.428 84.918,232.625 84.946C234.955 85.283,236.106 86.827,236.106 88.624C236.106 90.534,234.815 92.724,232.231 94.128C230.968 94.802,229.676 95.111,228.497 95.111C226.335 95.111,224.566 94.044,224.201 92.162C224.144 91.881,224.116 91.629,224.116 91.376C224.116 88.343,227.374 85.283,231.221 84.889"/></g></g><g class="vf-stavenote" id="vf-auto13641"><g class="vf-notehead" id="vf-auto13647" pointer-events="bounding-box"><path stroke="none" d="M272.644 94.889C272.728 94.889,272.812 94.889,272.953 94.889C273.318 94.889,273.851 94.918,274.048 94.946C276.378 95.283,277.53 96.827,277.53 98.624C277.53 100.534,276.238 102.724,273.655 104.128C272.391 104.802,271.099 105.111,269.92 105.111C267.758 105.111,265.989 104.044,265.624 102.162C265.568 101.881,265.54 101.629,265.54 101.376C265.54 98.343,268.797 95.283,272.644 94.889"/></g></g><g class="vf-stavenote" id="vf-auto13649"><g class="vf-notehead" id="vf-auto13655" pointer-events="bounding-box"><path stroke="none" d="M314.067 79.889C314.151 79.889,314.236 79.889,314.376 79.889C314.741 79.889,315.274 79.918,315.471 79.946C317.802 80.283,318.953 81.827,318.953 83.624C318.953 85.534,317.661 87.724,315.078 89.128C313.814 89.802,312.523 90.111,311.343 90.111C309.181 90.111,307.412 89.044,307.047 87.162C306.991 86.881,306.963 86.629,306.963 86.376C306.963 83.343,310.22 80.283,314.067 79.889"/></g></g><g class="vf-stem" id="vf-auto13593" pointer-events="bounding-box"><path stroke-width="1.5" fill="none" d="M28.24 138.5L28.24 64.035"/></g><g class="vf-stem" id="vf-auto13601" pointer-events="bounding-box"><path stroke-width="1.5" fill="none" d="M69.663 88.5L69.663 55.75"/></g><g class="vf-stem" id="vf-auto13609" pointer-events="bounding-box"><path stroke-width="1.5" fill="none" d="M111.087 98.5L111.087 47.465"/></g><g class="vf-stem" id="vf-auto13617" pointer-events="bounding-box"><path stroke-width="1.5" fill="none" d="M152.51 83.5L152.51 39.181"/></g><g class="vf-beam" id="vf-auto13624"><path stroke="none" d="M27.49 63.435L27.49 68.435L152.76 43.581L152.76 38.581Z"/></g><g class="vf-stem" id="vf-auto13626" pointer-events="bounding-box"><path stroke-width="1.5" fill="none" d="M183.443 66.5L183.443 130.108"/></g><g class="vf-stem" id="vf-auto13634" pointer-events="bounding-box"><path stroke-width="1.5" fill="none" d="M224.866 91.5L224.866 132.179"/></g><g class="vf-stem" id="vf-auto13642" pointer-events="bounding-box"><path stroke-width="1.5" fill="none" d="M266.29 101.5L266.29 134.25"/></g><g class="vf-stem" id="vf-auto13650" pointer-events="bounding-box"><path stroke-width="1.5" fill="none" d="M307.713 86.5L307.713 136.321"/></g><g class="vf-beam" id="vf-auto13657"><path stroke="none" d="M182.693 130.82L182.693 125.82L307.963 132.034L307.963 137.034Z"/></g><path stroke-width="1" fill="none" d="M28.99 150C57.06 160,113.2 145,141.27 95C113.2 147,57.06 162,28.99 150"/><path stroke="none" d="M28.99 150C57.06 160,113.2 145,141.27 95C113.2 147,57.06 162,28.99 150Z"/><path stroke-width="1" fill="none" d="M194.683 55C222.753 45,278.893 55,306.963 75C278.893 53,222.753 43,194.683 55"/><path stroke="none" d="M194.683 55C222.753 45,278.893 55,306.963 75C278.893 53,222.753 43,194.683 55Z"/></svg>