<svg xmlns="http://www.w3.org/2000/svg" stroke-width="0.3" stroke-dasharray="none" fill="black" stroke="black" font-family="Arial, sans-serif" font-size="10pt" font-weight="normal" font-style="normal" width="450" height="140" viewBox="0 0 450 140" style="width: 450px; height: 140px; border: none;"><g class="vf-stave" id="vf-auto3449" stroke-width="1" fill="#999999" stroke="#999999"><path fill="none" d="M0 40L440 40"/><path fill="none" d="M0 50L440 50"/><path fill="none" d="M0 60L440 60"/><path fill="none" d="M0 70L440 70"/><path fill="none" d="M0 80L440 80"/></g><g class="vf-stavebarline" id="vf-auto3450"><rect y="39.5" width="1" height="41" stroke="none"/></g><g class="vf-stavebarline" id="vf-auto3451"><rect x="440" y="39.5" width="1" height="41" stroke="none"/></g><g class="vf-stavenote" id="vf-auto3452"><g class="vf-notehead" id="vf-auto3531" pointer-events="bounding-box"><path stroke="none" d="M23.145 46.543C23.426 46.599,23.678 46.627,23.959 46.627C27.834 46.627,33.619 41.348,33.506 37.08C33.394 36.041,33.422 34.609,31.316 33.766C30.727 33.485,30.081 33.373,29.379 33.373C25.054 33.373,20.365 38.343,20.028 41.657C20.028 41.909,20 42.134,20 42.387C20 44.409,20.899 46.037,23.145 46.543"/></g></g><g class="vf-stavenote" id="vf-auto3458"><g class="vf-notehead" id="vf-auto3533" pointer-events="bounding-box"><path stroke="none" d="M55.141 51.543C55.422 51.599,55.675 51.627,55.956 51.627C59.831 51.627,65.615 46.348,65.503 42.08C65.391 41.041,65.419 39.609,63.313 38.766C62.723 38.485,62.077 38.373,61.375 38.373C57.051 38.373,52.362 43.343,52.025 46.657C52.025 46.909,51.997 47.134,51.997 47.387C51.997 49.409,52.895 51.037,55.141 51.543"/></g></g><g class="vf-stavenote" id="vf-auto3464"><g class="vf-notehead" id="vf-auto3535" pointer-events="bounding-box"><path stroke="none" d="M87.138 56.543C87.419 56.599,87.672 56.627,87.952 56.627C91.827 56.627,97.612 51.348,97.5 47.08C97.387 46.041,97.415 44.609,95.309 43.766C94.72 43.485,94.074 43.373,93.372 43.373C89.047 43.373,84.358 48.343,84.021 51.657C84.021 51.909,83.993 52.134,83.993 52.387C83.993 54.409,84.892 56.037,87.138 56.543"/></g></g><g class="vf-stavenote" id="vf-auto3470"><g class="vf-notehead" id="vf-auto3537" pointer-events="bounding-box"><path stroke="none" d="M119.135 61.543C119.415 61.599,119.668 61.627,119.949 61.627C123.824 61.627,129.608 56.348,129.496 52.08C129.384 51.041,129.412 49.609,127.306 48.766C126.716 48.485,126.07 48.373,125.368 48.373C121.044 48.373,116.355 53.343,116.018 56.657C116.018 56.909,115.99 57.134,115.99 57.387C115.99 59.409,116.888 61.037,119.135 61.543"/></g></g><g class="vf-stavenote" id="vf-auto3476"><g class="vf-notehead" id="vf-auto3539" pointer-events="bounding-box"><path stroke="none" d="M151.131 61.543C151.412 61.599,151.665 61.627,151.945 61.627C155.82 61.627,161.605 56.348,161.493 52.08C161.38 51.041,161.408 49.609,159.302 48.766C158.713 48.485,158.067 48.373,157.365 48.373C153.04 48.373,148.351 53.343,148.014 56.657C148.014 56.909,147.986 57.134,147.986 57.387C147.986 59.409,148.885 61.037,151.131 61.543"/></g></g><g class="vf-stavenote" id="vf-auto3482"><g class="vf-stem" id="vf-auto3483" pointer-events="bounding-box"><path stroke-width="1.5" fill="none" d="M180.733 52L180.733 82"/></g><g class="vf-notehead" id="vf-auto3541" pointer-events="bounding-box"><path stroke="none" d="M183.128 56.543C183.408 56.599,183.661 56.627,183.942 56.627C187.817 56.627,193.601 51.348,193.489 47.08C193.377 46.041,193.405 44.609,191.299 43.766C190.709 43.485,190.063 43.373,189.361 43.373C185.037 43.373,180.348 48.343,180.011 51.657C180.011 51.909,179.983 52.134,179.983 52.387C179.983 54.409,180.881 56.037,183.128 56.543"/></g><path stroke="none" d="M187.404 54.118C187.235 53.978,187.123 53.894,187.011 53.894C186.87 53.894,186.758 54.034,186.702 54.371C186.674 54.905,186.477 55.41,186.421 55.944C186.393 56.309,186.365 56.674,186.365 57.011C186.365 57.656,186.505 58.246,187.151 58.78C187.881 59.369,188.302 60.324,188.695 61.194C188.808 61.447,188.864 61.728,188.864 62.009C188.864 62.542,188.667 63.104,188.611 63.666C188.33 66.754,186.87 69.338,184.933 71.64C184.175 72.567,183.445 73.578,182.658 74.504C180.777 77.004,179.963 79.84,179.963 82.956L179.963 85.231C179.963 85.989,180.131 86.635,180.945 87L181.142 87C181.423 86.326,181.704 85.624,181.704 84.894C181.704 84.445,181.619 84.08,181.619 83.715C181.647 81.861,182.518 80.289,183.641 78.829C184.624 77.621,185.551 76.358,186.505 75.15C188.695 72.398,189.791 69.253,190.268 65.8C190.436 64.761,190.521 63.722,190.521 62.655C190.521 61.082,190.324 59.51,189.819 57.937C189.397 56.477,188.415 55.27,187.404 54.118"/></g><g class="vf-stavenote" id="vf-auto3488"><g class="vf-notehead" id="vf-auto3543" pointer-events="bounding-box"><path stroke="none" d="M215.124 51.543C215.405 51.599,215.658 51.627,215.938 51.627C219.813 51.627,225.598 46.348,225.486 42.08C225.373 41.041,225.401 39.609,223.295 38.766C222.706 38.485,222.06 38.373,221.358 38.373C217.034 38.373,212.344 43.343,212.007 46.657C212.007 46.909,211.979 47.134,211.979 47.387C211.979 49.409,212.878 51.037,215.124 51.543"/></g></g><g class="vf-stavenote" id="vf-auto3494"><g class="vf-notehead" id="vf-auto3545" pointer-events="bounding-box"><path stroke="none" d="M247.121 46.543C247.401 46.599,247.654 46.627,247.935 46.627C251.81 46.627,257.594 41.348,257.482 37.08C257.37 36.041,257.398 34.609,255.292 33.766C254.702 33.485,254.056 33.373,253.354 33.373C249.03 33.373,244.341 38.343,244.004 41.657C244.004 41.909,243.976 42.134,243.976 42.387C243.976 44.409,244.874 46.037,247.121 46.543"/></g></g><g class="vf-stavenote" id="vf-auto3500"><g class="vf-notehead" id="vf-auto3547" pointer-events="bounding-box"><path stroke="none" d="M279.617 46.543C279.898 46.599,280.151 46.627,280.431 46.627C284.306 46.627,290.091 41.348,289.979 37.08C289.866 36.041,289.894 34.609,287.788 33.766C287.199 33.485,286.553 33.373,285.851 33.373C281.527 33.373,276.837 38.343,276.5 41.657C276.5 41.909,276.472 42.134,276.472 42.387C276.472 44.409,277.371 46.037,279.617 46.543"/></g></g><g class="vf-stavenote" id="vf-auto3506"><g class="vf-notehead" id="vf-auto3549" pointer-events="bounding-box"><path stroke="none" d="M311.614 81.543C311.894 81.599,312.147 81.627,312.428 81.627C316.303 81.627,322.087 76.348,321.975 72.08C321.863 71.041,321.891 69.609,319.785 68.766C319.195 68.485,318.549 68.373,317.847 68.373C313.523 68.373,308.834 73.343,308.497 76.657C308.497 76.909,308.469 77.134,308.469 77.387C308.469 79.409,309.367 81.037,311.614 81.543"/></g></g><g class="vf-stavenote" id="vf-auto3512"><path stroke-width="1.4" fill="none" stroke="#444" d="M336.965 90L356.473 90"/><path stroke-width="1.4" fill="none" stroke="#444" d="M336.965 100L356.473 100"/><path stroke-width="1.4" fill="none" stroke="#444" d="M336.965 110L356.473 110"/><g class="vf-notehead" id="vf-auto3551" pointer-events="bounding-box"><path stroke="none" d="M343.61 116.543C343.891 116.599,344.144 116.627,344.424 116.627C348.3 116.627,354.084 111.348,353.972 107.08C353.859 106.041,353.887 104.609,351.781 103.766C351.192 103.485,350.546 103.373,349.844 103.373C345.52 103.373,340.83 108.343,340.493 111.657C340.493 111.909,340.465 112.134,340.465 112.387C340.465 114.409,341.364 116.037,343.61 116.543"/></g></g><g class="vf-stavenote" id="vf-auto3518"><g class="vf-notehead" id="vf-auto3553" pointer-events="bounding-box"><path stroke="none" d="M375.107 46.543C375.387 46.599,375.64 46.627,375.921 46.627C379.796 46.627,385.58 41.348,385.468 37.08C385.356 36.041,385.384 34.609,383.278 33.766C382.688 33.485,382.042 33.373,381.34 33.373C377.016 33.373,372.327 38.343,371.99 41.657C371.99 41.909,371.962 42.134,371.962 42.387C371.962 44.409,372.86 46.037,375.107 46.543"/></g></g><g class="vf-stavenote" id="vf-auto3524"><g class="vf-notehead" id="vf-auto3555" pointer-events="bounding-box"><path stroke="none" d="M404.176 46.543C404.457 46.599,404.71 46.627,404.99 46.627C408.865 46.627,414.65 41.348,414.538 37.08C414.425 36.041,414.453 34.609,412.347 33.766C411.758 33.485,411.112 33.373,410.41 33.373C406.085 33.373,401.396 38.343,401.059 41.657C401.059 41.909,401.031 42.134,401.031 42.387C401.031 44.409,401.93 46.037,404.176 46.543"/></g></g><g class="vf-stem" id="vf-auto3453" pointer-events="bounding-box"><path stroke-width="1.5" fill="none" d="M20.75 42L20.75 76.85"/></g><g class="vf-stem" id="vf-auto3459" pointer-events="bounding-box"><path stroke-width="1.5" fill="none" d="M52.747 47L52.747 79.25"/></g><g class="vf-beam" id="vf-auto3557"><path stroke="none" d="M20 77.544L20 72.544L52.997 74.944L52.997 79.944Z"/></g><g class="vf-stem" id="vf-auto3465" pointer-events="bounding-box"><path stroke-width="1.5" fill="none" d="M84.743 52L84.743 87.65"/></g><g class="vf-stem" id="vf-auto3471" pointer-events="bounding-box"><path stroke-width="1.5" fill="none" d="M116.74 57L116.74 89.25"/></g><g class="vf-stem" id="vf-auto3477" pointer-events="bounding-box"><path stroke-width="1.5" fill="none" d="M148.736 57L148.736 90.85"/></g><g class="vf-beam" id="vf-auto3558"><path stroke="none" d="M83.993 88.363L83.993 83.363L148.986 86.562L148.986 91.562Z"/></g><g class="vf-stem" id="vf-auto3489" pointer-events="bounding-box"><path stroke-width="1.5" fill="none" d="M212.729 47L212.729 79.25"/></g><g class="vf-stem" id="vf-auto3495" pointer-events="bounding-box"><path stroke-width="1.5" fill="none" d="M244.726 42L244.726 76.85"/></g><g class="vf-beam" id="vf-auto3559"><path stroke="none" d="M211.979 80.056L211.979 75.056L244.976 72.657L244.976 77.657Z"/></g><g class="vf-stem" id="vf-auto3501" pointer-events="bounding-box"><path stroke-width="1.5" fill="none" d="M288.73 38L288.73 5.75"/></g><g class="vf-stem" id="vf-auto3507" pointer-events="bounding-box"><path stroke-width="1.5" fill="none" d="M320.727 73L320.727 13.749"/></g><g class="vf-stem" id="vf-auto3513" pointer-events="bounding-box"><path stroke-width="1.5" fill="none" d="M352.723 108L352.723 21.748"/></g><g class="vf-beam" id="vf-auto3560"><path stroke="none" d="M287.98 4.813L287.98 9.813L352.973 25.811L352.973 20.811Z"/></g><g class="vf-stem" id="vf-auto3519" pointer-events="bounding-box"><path stroke-width="1.5" fill="none" d="M372.712 42L372.712 74.25"/></g><g class="vf-stem" id="vf-auto3525" pointer-events="bounding-box"><path stroke-width="1.5" fill="none" d="M401.781 42L401.781 74.25"/></g><g class="vf-beam" id="vf-auto3561"><path stroke="none" d="M371.962 75L371.962 70L402.031 70L402.031 75Z"/><path stroke="none" d="M371.962 67.5L371.962 62.5L402.031 62.5L402.031 67.5Z"/></g></svg>