<svg xmlns="http://www.w3.org/2000/svg" stroke-width="0.3" stroke-dasharray="none" fill="black" stroke="black" font-family="Arial, sans-serif" font-size="10pt" font-weight="normal" font-style="normal" width="500" height="300" viewBox="0 0 500 300" style="width: 500px; height: 300px; border: none;"><g class="vf-stave" id="vf-auto12620" stroke-width="1" fill="#999999" stroke="#999999"><path fill="none" d="M10 50L341.188 50"/><path fill="none" d="M10 60L341.188 60"/><path fill="none" d="M10 70L341.188 70"/><path fill="none" d="M10 80L341.188 80"/><path fill="none" d="M10 90L341.188 90"/></g><g class="vf-stavebarline" id="vf-auto12621"/><g class="vf-stavebarline" id="vf-auto12622"><rect x="341.188" y="49.5" width="1" height="41" stroke="none"/></g><g class="vf-stave" id="vf-auto12623" stroke-width="1" fill="#999999" stroke="#999999"><path fill="none" d="M10 170L341.188 170"/><path fill="none" d="M10 180L341.188 180"/><path fill="none" d="M10 190L341.188 190"/><path fill="none" d="M10 200L341.188 200"/><path fill="none" d="M10 210L341.188 210"/></g><g class="vf-stavebarline" id="vf-auto12624"/><g class="vf-stavebarline" id="vf-auto12625"><rect x="341.188" y="169.5" width="1" height="41" stroke="none"/></g><g class="vf-stavenote" id="vf-auto12354"><g class="vf-notehead" id="vf-auto12358" pointer-events="bounding-box"><path stroke="none" d="M31.107 95.054C34.701 95.054,39.109 91.741,39.109 88.315C39.109 86.237,37.481 84.946,35.178 84.946C30.741 84.946,27.175 88.231,27.175 91.685C27.175 93.791,28.916 95.054,31.107 95.054"/><path stroke="none" d="M28.012 12.469C27.465 12.469,27 12.934,27 13.509L27 24.535C27 24.808,27.246 25,27.465 25L28.012 25C28.259 25,28.505 24.808,28.505 24.535L28.505 18.078C28.505 17.64,30.83 17.394,33.156 17.394C35.482 17.394,37.807 17.64,37.807 18.078L37.807 24.535C37.807 24.808,38.026 25,38.3 25L38.82 25C39.066 25,39.285 24.808,39.285 24.535L39.285 13.509C39.285 12.934,38.82 12.469,38.272 12.469"/></g></g><g class="vf-stavenote" id="vf-auto12363"><g class="vf-notehead" id="vf-auto12367" pointer-events="bounding-box"><path stroke="none" d="M50.801 100.054C54.395 100.054,58.804 96.741,58.804 93.315C58.804 91.237,57.175 89.946,54.873 89.946C50.436 89.946,46.87 93.231,46.87 96.685C46.87 98.791,48.611 100.054,50.801 100.054"/><path stroke="none" d="M47.707 14.372C47.16 14.372,46.695 14.837,46.695 15.411L46.695 26.437C46.695 26.711,46.941 26.903,47.16 26.903L47.707 26.903C47.953 26.903,48.199 26.711,48.199 26.437L48.199 19.98C48.199 19.543,50.525 19.296,52.851 19.296C55.176 19.296,57.502 19.543,57.502 19.98L57.502 26.437C57.502 26.711,57.721 26.903,57.994 26.903L58.514 26.903C58.76 26.903,58.979 26.711,58.979 26.437L58.979 15.411C58.979 14.837,58.514 14.372,57.967 14.372"/></g></g><g class="vf-stavenote" id="vf-auto12372"><g class="vf-notehead" id="vf-auto12376" pointer-events="bounding-box"><path stroke="none" d="M74.774 95.054C78.368 95.054,82.777 91.741,82.777 88.315C82.777 86.237,81.148 84.946,78.845 84.946C74.409 84.946,70.843 88.231,70.843 91.685C70.843 93.791,72.583 95.054,74.774 95.054"/><path stroke="none" d="M71.68 17.469C71.132 17.469,70.667 17.934,70.667 18.509L70.667 29.535C70.667 29.808,70.913 30,71.132 30L71.68 30C71.926 30,72.172 29.808,72.172 29.535L72.172 23.078C72.172 22.64,74.498 22.394,76.823 22.394C79.149 22.394,81.474 22.64,81.474 23.078L81.474 29.535C81.474 29.808,81.693 30,81.967 30L82.487 30C82.733 30,82.952 29.808,82.952 29.535L82.952 18.509C82.952 17.934,82.487 17.469,81.94 17.469"/></g></g><g class="vf-stavenote" id="vf-auto12381"><path stroke-width="1.4" fill="none" stroke="#444" d="M97.853 100L115.787 100"/><g class="vf-notehead" id="vf-auto12386" pointer-events="bounding-box"><path stroke="none" d="M104.784 105.054C108.379 105.054,112.787 101.741,112.787 98.315C112.787 96.237,111.158 94.946,108.856 94.946C104.419 94.946,100.853 98.231,100.853 101.685C100.853 103.791,102.594 105.054,104.784 105.054"/><path stroke="none" d="M101.69 17.469C101.143 17.469,100.678 17.934,100.678 18.509L100.678 29.535C100.678 29.808,100.924 30,101.143 30L101.69 30C101.936 30,102.183 29.808,102.183 29.535L102.183 23.078C102.183 22.64,104.508 22.394,106.834 22.394C109.159 22.394,111.485 22.64,111.485 23.078L111.485 29.535C111.485 29.808,111.704 30,111.977 30L112.497 30C112.744 30,112.962 29.808,112.962 29.535L112.962 18.509C112.962 17.934,112.497 17.469,111.95 17.469"/></g><g class="vf-notehead" id="vf-auto12387" pointer-events="bounding-box"><path stroke="none" d="M104.784 85.054C108.379 85.054,112.787 81.741,112.787 78.315C112.787 76.237,111.158 74.946,108.856 74.946C104.419 74.946,100.853 78.231,100.853 81.685C100.853 83.791,102.594 85.054,104.784 85.054"/></g></g><g class="vf-stavenote" id="vf-auto12392"><path stroke-width="1.4" fill="none" stroke="#444" d="M119.279 100L137.213 100"/><g class="vf-notehead" id="vf-auto12396" pointer-events="bounding-box"><path stroke="none" d="M126.21 105.054C129.804 105.054,134.213 101.741,134.213 98.315C134.213 96.237,132.584 94.946,130.282 94.946C125.845 94.946,122.279 98.231,122.279 101.685C122.279 103.791,124.02 105.054,126.21 105.054"/><path stroke="none" d="M123.116 20.683C122.569 20.683,122.103 21.148,122.103 21.723L122.103 32.749C122.103 33.022,122.35 33.214,122.569 33.214L123.116 33.214C123.362 33.214,123.608 33.022,123.608 32.749L123.608 26.292C123.608 25.854,125.934 25.608,128.259 25.608C130.585 25.608,132.911 25.854,132.911 26.292L132.911 32.749C132.911 33.022,133.13 33.214,133.403 33.214L133.923 33.214C134.169 33.214,134.388 33.022,134.388 32.749L134.388 21.723C134.388 21.148,133.923 20.683,133.376 20.683"/></g></g><g class="vf-stavenote" id="vf-auto12401"><path stroke-width="1.4" fill="none" stroke="#444" d="M140.704 100L158.638 100"/><g class="vf-notehead" id="vf-auto12405" pointer-events="bounding-box"><path stroke="none" d="M147.636 105.054C151.23 105.054,155.638 101.741,155.638 98.315C155.638 96.237,154.01 94.946,151.707 94.946C147.271 94.946,143.704 98.231,143.704 101.685C143.704 103.791,145.445 105.054,147.636 105.054"/><path stroke="none" d="M144.541 22.469C143.994 22.469,143.529 22.934,143.529 23.509L143.529 34.535C143.529 34.808,143.775 35,143.994 35L144.541 35C144.788 35,145.034 34.808,145.034 34.535L145.034 28.078C145.034 27.64,147.359 27.394,149.685 27.394C152.011 27.394,154.336 27.64,154.336 28.078L154.336 34.535C154.336 34.808,154.555 35,154.829 35L155.349 35C155.595 35,155.814 34.808,155.814 34.535L155.814 23.509C155.814 22.934,155.349 22.469,154.801 22.469"/></g></g><g class="vf-stavenote" id="vf-auto12410"><path stroke-width="1.4" fill="none" stroke="#444" d="M162.13 100L180.064 100"/><g class="vf-notehead" id="vf-auto12414" pointer-events="bounding-box"><path stroke="none" d="M169.061 105.054C172.655 105.054,177.064 101.741,177.064 98.315C177.064 96.237,175.435 94.946,173.133 94.946C168.696 94.946,165.13 98.231,165.13 101.685C165.13 103.791,166.871 105.054,169.061 105.054"/><path stroke="none" d="M165.967 22.469C165.42 22.469,164.955 22.934,164.955 23.509L164.955 34.535C164.955 34.808,165.201 35,165.42 35L165.967 35C166.213 35,166.459 34.808,166.459 34.535L166.459 28.078C166.459 27.64,168.785 27.394,171.111 27.394C173.436 27.394,175.762 27.64,175.762 28.078L175.762 34.535C175.762 34.808,175.981 35,176.254 35L176.774 35C177.02 35,177.239 34.808,177.239 34.535L177.239 23.509C177.239 22.934,176.774 22.469,176.227 22.469"/></g></g><g class="vf-stavenote" id="vf-auto12419"><g class="vf-notehead" id="vf-auto12423" pointer-events="bounding-box"><path stroke="none" d="M190.487 60.054C194.081 60.054,198.49 56.741,198.49 53.315C198.49 51.237,196.861 49.946,194.558 49.946C190.122 49.946,186.556 53.231,186.556 56.685C186.556 58.791,188.297 60.054,190.487 60.054"/><path stroke="none" d="M198.679 125.527C199.198 125.39,199.198 125.116,199.198 124.815C199.198 124.487,199.198 124.268,198.679 124.104L186.859 120.082C186.722 120.027,186.558 120,186.503 120C186.175 120,186.038 120.246,185.929 120.547C185.874 120.711,185.847 120.821,185.847 120.958C185.847 121.149,185.956 121.341,186.394 121.505C186.394 121.505,194.903 124.378,195.313 124.542C195.505 124.569,195.587 124.679,195.587 124.815C195.587 124.925,195.505 125.007,195.259 125.089C194.821 125.198,186.394 128.071,186.394 128.071C185.956 128.263,185.847 128.482,185.847 128.673C185.847 128.783,185.874 128.892,185.929 129.029C186.038 129.302,186.202 129.603,186.476 129.603C186.503 129.603,186.586 129.603,186.64 129.576"/></g></g><g class="vf-stavenote" id="vf-auto12428"><g class="vf-notehead" id="vf-auto12432" pointer-events="bounding-box"><path stroke="none" d="M210.181 65.054C213.776 65.054,218.184 61.741,218.184 58.315C218.184 56.237,216.556 54.946,214.253 54.946C209.816 54.946,206.25 58.231,206.25 61.685C206.25 63.791,207.991 65.054,210.181 65.054"/><path stroke="none" d="M218.373 124.542C218.893 124.405,218.893 124.132,218.893 123.831C218.893 123.502,218.893 123.283,218.373 123.119L206.554 119.097C206.417 119.043,206.253 119.015,206.198 119.015C205.87 119.015,205.733 119.262,205.624 119.562C205.569 119.727,205.541 119.836,205.541 119.973C205.541 120.164,205.651 120.356,206.089 120.52C206.089 120.52,214.598 123.393,215.008 123.557C215.2 123.584,215.282 123.694,215.282 123.831C215.282 123.94,215.2 124.022,214.953 124.104C214.516 124.214,206.089 127.086,206.089 127.086C205.651 127.278,205.541 127.497,205.541 127.688C205.541 127.798,205.569 127.907,205.624 128.044C205.733 128.318,205.897 128.619,206.171 128.619C206.198 128.619,206.28 128.619,206.335 128.591"/></g></g><g class="vf-stavenote" id="vf-auto12437"><g class="vf-notehead" id="vf-auto12441" pointer-events="bounding-box"><path stroke="none" d="M234.154 60.054C237.748 60.054,242.157 56.741,242.157 53.315C242.157 51.237,240.528 49.946,238.226 49.946C233.789 49.946,230.223 53.231,230.223 56.685C230.223 58.791,231.964 60.054,234.154 60.054"/><path stroke="none" d="M242.346 123.343C242.866 123.207,242.866 122.933,242.866 122.632C242.866 122.304,242.866 122.085,242.346 121.921L230.526 117.899C230.39 117.844,230.225 117.817,230.171 117.817C229.842 117.817,229.706 118.063,229.596 118.364C229.541 118.528,229.514 118.637,229.514 118.774C229.514 118.966,229.623 119.157,230.061 119.321C230.061 119.321,238.57 122.194,238.981 122.358C239.172 122.386,239.254 122.495,239.254 122.632C239.254 122.741,239.172 122.824,238.926 122.906C238.488 123.015,230.061 125.888,230.061 125.888C229.623 126.079,229.514 126.298,229.514 126.49C229.514 126.599,229.541 126.709,229.596 126.845C229.706 127.119,229.87 127.42,230.143 127.42C230.171 127.42,230.253 127.42,230.307 127.393"/></g></g><g class="vf-stavenote" id="vf-auto12446"><g class="vf-notehead" id="vf-auto12452" pointer-events="bounding-box"><path stroke="none" d="M264.165 70.054C267.759 70.054,272.167 66.741,272.167 63.315C272.167 61.237,270.539 59.946,268.236 59.946C263.8 59.946,260.233 63.231,260.233 66.685C260.233 68.791,261.974 70.054,264.165 70.054"/><path stroke="none" d="M272.356 121.843C272.876 121.706,272.876 121.432,272.876 121.131C272.876 120.803,272.876 120.584,272.356 120.42L260.537 116.398C260.4 116.343,260.236 116.316,260.181 116.316C259.853 116.316,259.716 116.562,259.607 116.863C259.552 117.027,259.525 117.137,259.525 117.274C259.525 117.465,259.634 117.657,260.072 117.821C260.072 117.821,268.581 120.694,268.991 120.858C269.183 120.885,269.265 120.995,269.265 121.131C269.265 121.241,269.183 121.323,268.936 121.405C268.499 121.515,260.072 124.387,260.072 124.387C259.634 124.579,259.525 124.798,259.525 124.989C259.525 125.099,259.552 125.208,259.607 125.345C259.716 125.619,259.88 125.919,260.154 125.919C260.181 125.919,260.263 125.919,260.318 125.892"/></g><g class="vf-notehead" id="vf-auto12451" pointer-events="bounding-box"><path stroke="none" d="M264.165 50.054C267.759 50.054,272.167 46.741,272.167 43.315C272.167 41.237,270.539 39.946,268.236 39.946C263.8 39.946,260.233 43.231,260.233 46.685C260.233 48.791,261.974 50.054,264.165 50.054"/></g></g><g class="vf-stavenote" id="vf-auto12457"><g class="vf-notehead" id="vf-auto12461" pointer-events="bounding-box"><path stroke="none" d="M285.59 70.054C289.185 70.054,293.593 66.741,293.593 63.315C293.593 61.237,291.964 59.946,289.662 59.946C285.225 59.946,281.659 63.231,281.659 66.685C281.659 68.791,283.4 70.054,285.59 70.054"/><path stroke="none" d="M293.782 120.772C294.302 120.635,294.302 120.361,294.302 120.06C294.302 119.732,294.302 119.513,293.782 119.349L281.963 115.327C281.826 115.272,281.662 115.245,281.607 115.245C281.279 115.245,281.142 115.491,281.032 115.792C280.978 115.956,280.95 116.066,280.95 116.202C280.95 116.394,281.06 116.585,281.497 116.75C281.497 116.75,290.006 119.622,290.417 119.787C290.608 119.814,290.69 119.923,290.69 120.06C290.69 120.17,290.608 120.252,290.362 120.334C289.924 120.443,281.497 123.316,281.497 123.316C281.06 123.508,280.95 123.726,280.95 123.918C280.95 124.027,280.978 124.137,281.032 124.274C281.142 124.547,281.306 124.848,281.58 124.848C281.607 124.848,281.689 124.848,281.744 124.821"/></g></g><g class="vf-stavenote" id="vf-auto12466"><g class="vf-notehead" id="vf-auto12470" pointer-events="bounding-box"><path stroke="none" d="M307.016 70.054C310.61 70.054,315.019 66.741,315.019 63.315C315.019 61.237,313.39 59.946,311.088 59.946C306.651 59.946,303.085 63.231,303.085 66.685C303.085 68.791,304.826 70.054,307.016 70.054"/><path stroke="none" d="M315.208 120.527C315.728 120.39,315.728 120.116,315.728 119.815C315.728 119.487,315.728 119.268,315.208 119.104L303.388 115.082C303.251 115.027,303.087 115,303.033 115C302.704 115,302.567 115.246,302.458 115.547C302.403 115.711,302.376 115.821,302.376 115.958C302.376 116.149,302.485 116.341,302.923 116.505C302.923 116.505,311.432 119.378,311.842 119.542C312.034 119.569,312.116 119.679,312.116 119.815C312.116 119.925,312.034 120.007,311.788 120.089C311.35 120.198,302.923 123.071,302.923 123.071C302.485 123.263,302.376 123.482,302.376 123.673C302.376 123.783,302.403 123.892,302.458 124.029C302.567 124.302,302.732 124.603,303.005 124.603C303.033 124.603,303.115 124.603,303.169 124.576"/></g></g><g class="vf-stavenote" id="vf-auto12475"><g class="vf-notehead" id="vf-auto12479" pointer-events="bounding-box"><path stroke="none" d="M328.442 70.054C332.036 70.054,336.444 66.741,336.444 63.315C336.444 61.237,334.816 59.946,332.513 59.946C328.076 59.946,324.51 63.231,324.51 66.685C324.51 68.791,326.251 70.054,328.442 70.054"/><path stroke="none" d="M336.633 120.527C337.153 120.39,337.153 120.116,337.153 119.815C337.153 119.487,337.153 119.268,336.633 119.104L324.814 115.082C324.677 115.027,324.513 115,324.458 115C324.13 115,323.993 115.246,323.884 115.547C323.829 115.711,323.801 115.821,323.801 115.958C323.801 116.149,323.911 116.341,324.349 116.505C324.349 116.505,332.858 119.378,333.268 119.542C333.46 119.569,333.542 119.679,333.542 119.815C333.542 119.925,333.46 120.007,333.213 120.089C332.776 120.198,324.349 123.071,324.349 123.071C323.911 123.263,323.801 123.482,323.801 123.673C323.801 123.783,323.829 123.892,323.884 124.029C323.993 124.302,324.157 124.603,324.431 124.603C324.458 124.603,324.54 124.603,324.595 124.576"/></g></g><g class="vf-stavenote" id="vf-auto12484"><g class="vf-notehead" id="vf-auto12488" pointer-events="bounding-box"><path stroke="none" d="M31.107 215.054C34.701 215.054,39.109 211.741,39.109 208.315C39.109 206.237,37.481 204.946,35.178 204.946C30.741 204.946,27.175 208.231,27.175 211.685C27.175 213.791,28.916 215.054,31.107 215.054"/><path stroke="none" d="M28.012 132.469C27.465 132.469,27 132.934,27 133.509L27 144.535C27 144.808,27.246 145,27.465 145L28.012 145C28.259 145,28.505 144.808,28.505 144.535L28.505 138.078C28.505 137.64,30.83 137.394,33.156 137.394C35.482 137.394,37.807 137.64,37.807 138.078L37.807 144.535C37.807 144.808,38.026 145,38.3 145L38.82 145C39.066 145,39.285 144.808,39.285 144.535L39.285 133.509C39.285 132.934,38.82 132.469,38.272 132.469"/></g></g><g class="vf-stavenote" id="vf-auto12493"><g class="vf-notehead" id="vf-auto12497" pointer-events="bounding-box"><path stroke="none" d="M50.801 220.054C54.395 220.054,58.804 216.741,58.804 213.315C58.804 211.237,57.175 209.946,54.873 209.946C50.436 209.946,46.87 213.231,46.87 216.685C46.87 218.791,48.611 220.054,50.801 220.054"/><path stroke="none" d="M47.707 134.372C47.16 134.372,46.695 134.837,46.695 135.411L46.695 146.437C46.695 146.711,46.941 146.903,47.16 146.903L47.707 146.903C47.953 146.903,48.199 146.711,48.199 146.437L48.199 139.98C48.199 139.543,50.525 139.296,52.851 139.296C55.176 139.296,57.502 139.543,57.502 139.98L57.502 146.437C57.502 146.711,57.721 146.903,57.994 146.903L58.514 146.903C58.76 146.903,58.979 146.711,58.979 146.437L58.979 135.411C58.979 134.837,58.514 134.372,57.967 134.372"/></g></g><g class="vf-stavenote" id="vf-auto12502"><g class="vf-notehead" id="vf-auto12506" pointer-events="bounding-box"><path stroke="none" d="M74.774 215.054C78.368 215.054,82.777 211.741,82.777 208.315C82.777 206.237,81.148 204.946,78.845 204.946C74.409 204.946,70.843 208.231,70.843 211.685C70.843 213.791,72.583 215.054,74.774 215.054"/><path stroke="none" d="M71.68 137.469C71.132 137.469,70.667 137.934,70.667 138.509L70.667 149.535C70.667 149.808,70.913 150,71.132 150L71.68 150C71.926 150,72.172 149.808,72.172 149.535L72.172 143.078C72.172 142.64,74.498 142.394,76.823 142.394C79.149 142.394,81.474 142.64,81.474 143.078L81.474 149.535C81.474 149.808,81.693 150,81.967 150L82.487 150C82.733 150,82.952 149.808,82.952 149.535L82.952 138.509C82.952 137.934,82.487 137.469,81.94 137.469"/></g></g><g class="vf-stavenote" id="vf-auto12511"><path stroke-width="1.4" fill="none" stroke="#444" d="M97.853 220L115.787 220"/><g class="vf-notehead" id="vf-auto12516" pointer-events="bounding-box"><path stroke="none" d="M104.784 225.054C108.379 225.054,112.787 221.741,112.787 218.315C112.787 216.237,111.158 214.946,108.856 214.946C104.419 214.946,100.853 218.231,100.853 221.685C100.853 223.791,102.594 225.054,104.784 225.054"/><path stroke="none" d="M101.69 137.469C101.143 137.469,100.678 137.934,100.678 138.509L100.678 149.535C100.678 149.808,100.924 150,101.143 150L101.69 150C101.936 150,102.183 149.808,102.183 149.535L102.183 143.078C102.183 142.64,104.508 142.394,106.834 142.394C109.159 142.394,111.485 142.64,111.485 143.078L111.485 149.535C111.485 149.808,111.704 150,111.977 150L112.497 150C112.744 150,112.962 149.808,112.962 149.535L112.962 138.509C112.962 137.934,112.497 137.469,111.95 137.469"/></g><g class="vf-notehead" id="vf-auto12517" pointer-events="bounding-box"><path stroke="none" d="M104.784 205.054C108.379 205.054,112.787 201.741,112.787 198.315C112.787 196.237,111.158 194.946,108.856 194.946C104.419 194.946,100.853 198.231,100.853 201.685C100.853 203.791,102.594 205.054,104.784 205.054"/></g></g><g class="vf-stavenote" id="vf-auto12522"><path stroke-width="1.4" fill="none" stroke="#444" d="M119.279 220L137.213 220"/><g class="vf-notehead" id="vf-auto12526" pointer-events="bounding-box"><path stroke="none" d="M126.21 225.054C129.804 225.054,134.213 221.741,134.213 218.315C134.213 216.237,132.584 214.946,130.282 214.946C125.845 214.946,122.279 218.231,122.279 221.685C122.279 223.791,124.02 225.054,126.21 225.054"/><path stroke="none" d="M123.116 140.683C122.569 140.683,122.103 141.148,122.103 141.723L122.103 152.749C122.103 153.022,122.35 153.214,122.569 153.214L123.116 153.214C123.362 153.214,123.608 153.022,123.608 152.749L123.608 146.292C123.608 145.854,125.934 145.608,128.259 145.608C130.585 145.608,132.911 145.854,132.911 146.292L132.911 152.749C132.911 153.022,133.13 153.214,133.403 153.214L133.923 153.214C134.169 153.214,134.388 153.022,134.388 152.749L134.388 141.723C134.388 141.148,133.923 140.683,133.376 140.683"/></g></g><g class="vf-stavenote" id="vf-auto12531"><path stroke-width="1.4" fill="none" stroke="#444" d="M140.704 220L158.638 220"/><g class="vf-notehead" id="vf-auto12535" pointer-events="bounding-box"><path stroke="none" d="M147.636 225.054C151.23 225.054,155.638 221.741,155.638 218.315C155.638 216.237,154.01 214.946,151.707 214.946C147.271 214.946,143.704 218.231,143.704 221.685C143.704 223.791,145.445 225.054,147.636 225.054"/><path stroke="none" d="M144.541 142.469C143.994 142.469,143.529 142.934,143.529 143.509L143.529 154.535C143.529 154.808,143.775 155,143.994 155L144.541 155C144.788 155,145.034 154.808,145.034 154.535L145.034 148.078C145.034 147.64,147.359 147.394,149.685 147.394C152.011 147.394,154.336 147.64,154.336 148.078L154.336 154.535C154.336 154.808,154.555 155,154.829 155L155.349 155C155.595 155,155.814 154.808,155.814 154.535L155.814 143.509C155.814 142.934,155.349 142.469,154.801 142.469"/></g></g><g class="vf-stavenote" id="vf-auto12540"><path stroke-width="1.4" fill="none" stroke="#444" d="M162.13 220L180.064 220"/><g class="vf-notehead" id="vf-auto12544" pointer-events="bounding-box"><path stroke="none" d="M169.061 225.054C172.655 225.054,177.064 221.741,177.064 218.315C177.064 216.237,175.435 214.946,173.133 214.946C168.696 214.946,165.13 218.231,165.13 221.685C165.13 223.791,166.871 225.054,169.061 225.054"/><path stroke="none" d="M165.967 142.469C165.42 142.469,164.955 142.934,164.955 143.509L164.955 154.535C164.955 154.808,165.201 155,165.42 155L165.967 155C166.213 155,166.459 154.808,166.459 154.535L166.459 148.078C166.459 147.64,168.785 147.394,171.111 147.394C173.436 147.394,175.762 147.64,175.762 148.078L175.762 154.535C175.762 154.808,175.981 155,176.254 155L176.774 155C177.02 155,177.239 154.808,177.239 154.535L177.239 143.509C177.239 142.934,176.774 142.469,176.227 142.469"/></g></g><g class="vf-stavenote" id="vf-auto12549"><g class="vf-notehead" id="vf-auto12553" pointer-events="bounding-box"><path stroke="none" d="M190.487 180.054C194.081 180.054,198.49 176.741,198.49 173.315C198.49 171.237,196.861 169.946,194.558 169.946C190.122 169.946,186.556 173.231,186.556 176.685C186.556 178.791,188.297 180.054,190.487 180.054"/><path stroke="none" d="M198.679 245.527C199.198 245.39,199.198 245.116,199.198 244.815C199.198 244.487,199.198 244.268,198.679 244.104L186.859 240.082C186.722 240.027,186.558 240,186.503 240C186.175 240,186.038 240.246,185.929 240.547C185.874 240.711,185.847 240.821,185.847 240.958C185.847 241.149,185.956 241.341,186.394 241.505C186.394 241.505,194.903 244.378,195.313 244.542C195.505 244.569,195.587 244.679,195.587 244.815C195.587 244.925,195.505 245.007,195.259 245.089C194.821 245.198,186.394 248.071,186.394 248.071C185.956 248.263,185.847 248.482,185.847 248.673C185.847 248.783,185.874 248.892,185.929 249.029C186.038 249.302,186.202 249.603,186.476 249.603C186.503 249.603,186.586 249.603,186.64 249.576"/></g></g><g class="vf-stavenote" id="vf-auto12558"><g class="vf-notehead" id="vf-auto12562" pointer-events="bounding-box"><path stroke="none" d="M210.181 185.054C213.776 185.054,218.184 181.741,218.184 178.315C218.184 176.237,216.556 174.946,214.253 174.946C209.816 174.946,206.25 178.231,206.25 181.685C206.25 183.791,207.991 185.054,210.181 185.054"/><path stroke="none" d="M218.373 244.542C218.893 244.405,218.893 244.132,218.893 243.831C218.893 243.502,218.893 243.283,218.373 243.119L206.554 239.097C206.417 239.043,206.253 239.015,206.198 239.015C205.87 239.015,205.733 239.262,205.624 239.562C205.569 239.727,205.541 239.836,205.541 239.973C205.541 240.164,205.651 240.356,206.089 240.52C206.089 240.52,214.598 243.393,215.008 243.557C215.2 243.584,215.282 243.694,215.282 243.831C215.282 243.94,215.2 244.022,214.953 244.104C214.516 244.214,206.089 247.086,206.089 247.086C205.651 247.278,205.541 247.497,205.541 247.688C205.541 247.798,205.569 247.907,205.624 248.044C205.733 248.318,205.897 248.619,206.171 248.619C206.198 248.619,206.28 248.619,206.335 248.591"/></g></g><g class="vf-stavenote" id="vf-auto12567"><g class="vf-notehead" id="vf-auto12571" pointer-events="bounding-box"><path stroke="none" d="M234.154 180.054C237.748 180.054,242.157 176.741,242.157 173.315C242.157 171.237,240.528 169.946,238.226 169.946C233.789 169.946,230.223 173.231,230.223 176.685C230.223 178.791,231.964 180.054,234.154 180.054"/><path stroke="none" d="M242.346 243.343C242.866 243.207,242.866 242.933,242.866 242.632C242.866 242.304,242.866 242.085,242.346 241.921L230.526 237.899C230.39 237.844,230.225 237.817,230.171 237.817C229.842 237.817,229.706 238.063,229.596 238.364C229.541 238.528,229.514 238.637,229.514 238.774C229.514 238.966,229.623 239.157,230.061 239.321C230.061 239.321,238.57 242.194,238.981 242.358C239.172 242.386,239.254 242.495,239.254 242.632C239.254 242.741,239.172 242.824,238.926 242.906C238.488 243.015,230.061 245.888,230.061 245.888C229.623 246.079,229.514 246.298,229.514 246.49C229.514 246.599,229.541 246.709,229.596 246.845C229.706 247.119,229.87 247.42,230.143 247.42C230.171 247.42,230.253 247.42,230.307 247.393"/></g></g><g class="vf-stavenote" id="vf-auto12576"><g class="vf-notehead" id="vf-auto12582" pointer-events="bounding-box"><path stroke="none" d="M264.165 190.054C267.759 190.054,272.167 186.741,272.167 183.315C272.167 181.237,270.539 179.946,268.236 179.946C263.8 179.946,260.233 183.231,260.233 186.685C260.233 188.791,261.974 190.054,264.165 190.054"/><path stroke="none" d="M272.356 241.843C272.876 241.706,272.876 241.432,272.876 241.131C272.876 240.803,272.876 240.584,272.356 240.42L260.537 236.398C260.4 236.343,260.236 236.316,260.181 236.316C259.853 236.316,259.716 236.562,259.607 236.863C259.552 237.027,259.525 237.137,259.525 237.274C259.525 237.465,259.634 237.657,260.072 237.821C260.072 237.821,268.581 240.694,268.991 240.858C269.183 240.885,269.265 240.995,269.265 241.131C269.265 241.241,269.183 241.323,268.936 241.405C268.499 241.515,260.072 244.387,260.072 244.387C259.634 244.579,259.525 244.798,259.525 244.989C259.525 245.099,259.552 245.208,259.607 245.345C259.716 245.619,259.88 245.919,260.154 245.919C260.181 245.919,260.263 245.919,260.318 245.892"/></g><g class="vf-notehead" id="vf-auto12581" pointer-events="bounding-box"><path stroke="none" d="M264.165 170.054C267.759 170.054,272.167 166.741,272.167 163.315C272.167 161.237,270.539 159.946,268.236 159.946C263.8 159.946,260.233 163.231,260.233 166.685C260.233 168.791,261.974 170.054,264.165 170.054"/></g></g><g class="vf-stavenote" id="vf-auto12587"><g class="vf-notehead" id="vf-auto12591" pointer-events="bounding-box"><path stroke="none" d="M285.59 190.054C289.185 190.054,293.593 186.741,293.593 183.315C293.593 181.237,291.964 179.946,289.662 179.946C285.225 179.946,281.659 183.231,281.659 186.685C281.659 188.791,283.4 190.054,285.59 190.054"/><path stroke="none" d="M293.782 240.772C294.302 240.635,294.302 240.361,294.302 240.06C294.302 239.732,294.302 239.513,293.782 239.349L281.963 235.327C281.826 235.272,281.662 235.245,281.607 235.245C281.279 235.245,281.142 235.491,281.032 235.792C280.978 235.956,280.95 236.066,280.95 236.202C280.95 236.394,281.06 236.585,281.497 236.75C281.497 236.75,290.006 239.622,290.417 239.787C290.608 239.814,290.69 239.923,290.69 240.06C290.69 240.17,290.608 240.252,290.362 240.334C289.924 240.443,281.497 243.316,281.497 243.316C281.06 243.508,280.95 243.726,280.95 243.918C280.95 244.027,280.978 244.137,281.032 244.274C281.142 244.547,281.306 244.848,281.58 244.848C281.607 244.848,281.689 244.848,281.744 244.821"/></g></g><g class="vf-stavenote" id="vf-auto12596"><g class="vf-notehead" id="vf-auto12600" pointer-events="bounding-box"><path stroke="none" d="M307.016 190.054C310.61 190.054,315.019 186.741,315.019 183.315C315.019 181.237,313.39 179.946,311.088 179.946C306.651 179.946,303.085 183.231,303.085 186.685C303.085 188.791,304.826 190.054,307.016 190.054"/><path stroke="none" d="M315.208 240.527C315.728 240.39,315.728 240.116,315.728 239.815C315.728 239.487,315.728 239.268,315.208 239.104L303.388 235.082C303.251 235.027,303.087 235,303.033 235C302.704 235,302.567 235.246,302.458 235.547C302.403 235.711,302.376 235.821,302.376 235.958C302.376 236.149,302.485 236.341,302.923 236.505C302.923 236.505,311.432 239.378,311.842 239.542C312.034 239.569,312.116 239.679,312.116 239.815C312.116 239.925,312.034 240.007,311.788 240.089C311.35 240.198,302.923 243.071,302.923 243.071C302.485 243.263,302.376 243.482,302.376 243.673C302.376 243.783,302.403 243.892,302.458 244.029C302.567 244.302,302.732 244.603,303.005 244.603C303.033 244.603,303.115 244.603,303.169 244.576"/></g></g><g class="vf-stavenote" id="vf-auto12605"><g class="vf-notehead" id="vf-auto12609" pointer-events="bounding-box"><path stroke="none" d="M328.442 190.054C332.036 190.054,336.444 186.741,336.444 183.315C336.444 181.237,334.816 179.946,332.513 179.946C328.076 179.946,324.51 183.231,324.51 186.685C324.51 188.791,326.251 190.054,328.442 190.054"/><path stroke="none" d="M336.633 240.527C337.153 240.39,337.153 240.116,337.153 239.815C337.153 239.487,337.153 239.268,336.633 239.104L324.814 235.082C324.677 235.027,324.513 235,324.458 235C324.13 235,323.993 235.246,323.884 235.547C323.829 235.711,323.801 235.821,323.801 235.958C323.801 236.149,323.911 236.341,324.349 236.505C324.349 236.505,332.858 239.378,333.268 239.542C333.46 239.569,333.542 239.679,333.542 239.815C333.542 239.925,333.46 240.007,333.213 240.089C332.776 240.198,324.349 243.071,324.349 243.071C323.911 243.263,323.801 243.482,323.801 243.673C323.801 243.783,323.829 243.892,323.884 244.029C323.993 244.302,324.157 244.603,324.431 244.603C324.458 244.603,324.54 244.603,324.595 244.576"/></g></g><g class="vf-stem" id="vf-auto12355" pointer-events="bounding-box"><path stroke-width="1.5" fill="none" d="M38.359 88L38.359 32.724"/></g><g class="vf-stem" id="vf-auto12364" pointer-events="bounding-box"><path stroke-width="1.5" fill="none" d="M58.054 93L58.054 34.201"/></g><g class="vf-stem" id="vf-auto12373" pointer-events="bounding-box"><path stroke-width="1.5" fill="none" d="M82.027 88L82.027 35.999"/></g><g class="vf-stem" id="vf-auto12382" pointer-events="bounding-box"><path stroke-width="1.5" fill="none" d="M112.037 98L112.037 38.25"/></g><g class="vf-stem" id="vf-auto12393" pointer-events="bounding-box"><path stroke-width="1.5" fill="none" d="M133.463 98L133.463 39.857"/></g><g class="vf-stem" id="vf-auto12402" pointer-events="bounding-box"><path stroke-width="1.5" fill="none" d="M154.888 98L154.888 41.464"/></g><g class="vf-stem" id="vf-auto12411" pointer-events="bounding-box"><path stroke-width="1.5" fill="none" d="M176.314 98L176.314 43.071"/></g><g class="vf-beam" id="vf-auto12614"><path stroke="none" d="M37.609 31.918L37.609 36.918L176.564 47.265L176.564 42.265Z"/><path stroke="none" d="M37.609 39.418L37.609 44.418L58.304 45.895L58.304 40.895Z"/><path stroke="none" d="M111.287 44.944L111.287 49.944L176.564 54.765L176.564 49.765Z"/><path stroke="none" d="M37.609 46.918L37.609 51.918L48.609 52.668L48.609 47.668Z"/><path stroke="none" d="M111.287 52.444L111.287 57.444L176.564 62.265L176.564 57.265Z"/><path stroke="none" d="M37.609 54.418L37.609 59.418L48.609 60.168L48.609 55.168Z"/><path stroke="none" d="M37.609 61.918L37.609 66.918L48.609 67.668L48.609 62.668Z"/></g><g class="vf-stem" id="vf-auto12420" pointer-events="bounding-box"><path stroke-width="1.5" fill="none" d="M187.306 57L187.306 111.75"/></g><g class="vf-stem" id="vf-auto12429" pointer-events="bounding-box"><path stroke-width="1.5" fill="none" d="M207 62L207 111.258"/></g><g class="vf-stem" id="vf-auto12438" pointer-events="bounding-box"><path stroke-width="1.5" fill="none" d="M230.973 57L230.973 110.658"/></g><g class="vf-stem" id="vf-auto12447" pointer-events="bounding-box"><path stroke-width="1.5" fill="none" d="M260.983 47L260.983 109.908"/></g><g class="vf-stem" id="vf-auto12458" pointer-events="bounding-box"><path stroke-width="1.5" fill="none" d="M282.409 67L282.409 109.372"/></g><g class="vf-stem" id="vf-auto12467" pointer-events="bounding-box"><path stroke-width="1.5" fill="none" d="M303.835 67L303.835 108.837"/></g><g class="vf-stem" id="vf-auto12476" pointer-events="bounding-box"><path stroke-width="1.5" fill="none" d="M325.26 67L325.26 108.301"/></g><g class="vf-beam" id="vf-auto12615"><path stroke="none" d="M186.556 112.519L186.556 107.519L325.51 104.07L325.51 109.07Z"/><path stroke="none" d="M186.556 105.019L186.556 100.019L207.25 99.526L207.25 104.526Z"/><path stroke="none" d="M260.233 103.177L260.233 98.177L325.51 96.57L325.51 101.57Z"/><path stroke="none" d="M186.556 97.519L186.556 92.519L197.556 92.269L197.556 97.269Z"/><path stroke="none" d="M260.233 95.677L260.233 90.677L325.51 89.07L325.51 94.07Z"/><path stroke="none" d="M186.556 90.019L186.556 85.019L197.556 84.769L197.556 89.769Z"/><path stroke="none" d="M186.556 82.519L186.556 77.519L197.556 77.269L197.556 82.269Z"/></g><g class="vf-stem" id="vf-auto12485" pointer-events="bounding-box"><path stroke-width="1.5" fill="none" d="M38.359 208L38.359 152.724"/></g><g class="vf-stem" id="vf-auto12494" pointer-events="bounding-box"><path stroke-width="1.5" fill="none" d="M58.054 213L58.054 154.201"/></g><g class="vf-stem" id="vf-auto12503" pointer-events="bounding-box"><path stroke-width="1.5" fill="none" d="M82.027 208L82.027 155.999"/></g><g class="vf-stem" id="vf-auto12512" pointer-events="bounding-box"><path stroke-width="1.5" fill="none" d="M112.037 218L112.037 158.25"/></g><g class="vf-stem" id="vf-auto12523" pointer-events="bounding-box"><path stroke-width="1.5" fill="none" d="M133.463 218L133.463 159.857"/></g><g class="vf-stem" id="vf-auto12532" pointer-events="bounding-box"><path stroke-width="1.5" fill="none" d="M154.888 218L154.888 161.464"/></g><g class="vf-stem" id="vf-auto12541" pointer-events="bounding-box"><path stroke-width="1.5" fill="none" d="M176.314 218L176.314 163.071"/></g><g class="vf-beam" id="vf-auto12616"><path stroke="none" d="M37.609 151.918L37.609 156.918L176.564 167.265L176.564 162.265Z"/><path stroke="none" d="M37.609 159.418L37.609 164.418L58.304 165.895L58.304 160.895Z"/><path stroke="none" d="M111.287 164.944L111.287 169.944L176.564 174.765L176.564 169.765Z"/><path stroke="none" d="M37.609 166.918L37.609 171.918L48.609 172.668L48.609 167.668Z"/><path stroke="none" d="M111.287 172.444L111.287 177.444L176.564 182.265L176.564 177.265Z"/><path stroke="none" d="M37.609 174.418L37.609 179.418L48.609 180.168L48.609 175.168Z"/><path stroke="none" d="M37.609 181.918L37.609 186.918L48.609 187.668L48.609 182.668Z"/></g><g class="vf-stem" id="vf-auto12550" pointer-events="bounding-box"><path stroke-width="1.5" fill="none" d="M187.306 177L187.306 231.75"/></g><g class="vf-stem" id="vf-auto12559" pointer-events="bounding-box"><path stroke-width="1.5" fill="none" d="M207 182L207 231.258"/></g><g class="vf-stem" id="vf-auto12568" pointer-events="bounding-box"><path stroke-width="1.5" fill="none" d="M230.973 177L230.973 230.658"/></g><g class="vf-stem" id="vf-auto12577" pointer-events="bounding-box"><path stroke-width="1.5" fill="none" d="M260.983 167L260.983 229.908"/></g><g class="vf-stem" id="vf-auto12588" pointer-events="bounding-box"><path stroke-width="1.5" fill="none" d="M282.409 187L282.409 229.372"/></g><g class="vf-stem" id="vf-auto12597" pointer-events="bounding-box"><path stroke-width="1.5" fill="none" d="M303.835 187L303.835 228.837"/></g><g class="vf-stem" id="vf-auto12606" pointer-events="bounding-box"><path stroke-width="1.5" fill="none" d="M325.26 187L325.26 228.301"/></g><g class="vf-beam" id="vf-auto12617"><path stroke="none" d="M186.556 232.519L186.556 227.519L325.51 224.07L325.51 229.07Z"/><path stroke="none" d="M186.556 225.019L186.556 220.019L207.25 219.526L207.25 224.526Z"/><path stroke="none" d="M260.233 223.177L260.233 218.177L325.51 216.57L325.51 221.57Z"/><path stroke="none" d="M186.556 217.519L186.556 212.519L197.556 212.269L197.556 217.269Z"/><path stroke="none" d="M260.233 215.677L260.233 210.677L325.51 209.07L325.51 214.07Z"/><path stroke="none" d="M186.556 210.019L186.556 205.019L197.556 204.769L197.556 209.769Z"/><path stroke="none" d="M186.556 202.519L186.556 197.519L197.556 197.269L197.556 202.269Z"/></g></svg>