<svg xmlns="http://www.w3.org/2000/svg" stroke-width="0.3" stroke-dasharray="none" fill="black" stroke="black" font-family="Arial, sans-serif" font-size="10pt" font-weight="normal" font-style="normal" width="460" height="250" viewBox="0 0 460 250" style="width: 460px; height: 250px; border: none;"><g class="vf-stave" id="vf-auto15427" stroke-width="1" fill="#999999" stroke="#999999"><path fill="none" d="M10 85L430 85"/><path fill="none" d="M10 95L430 95"/><path fill="none" d="M10 105L430 105"/><path fill="none" d="M10 115L430 115"/><path fill="none" d="M10 125L430 125"/></g><g class="vf-stavebarline" id="vf-auto15428"><rect x="10" y="84.5" width="1" height="41" stroke="none"/></g><g class="vf-stavebarline" id="vf-auto15429"><rect x="430" y="84.5" width="1" height="41" stroke="none"/></g><g class="vf-stavenote" id="vf-auto15430"><path stroke-width="1.4" fill="none" stroke="#444" d="M84 135L101.934 135"/><g class="vf-stem" id="vf-auto15431" pointer-events="bounding-box"><path stroke-width="1.5" fill="none" d="M87.75 112.65L87.75 170"/></g><g class="vf-notehead" id="vf-auto15437" pointer-events="bounding-box"><path stroke="none" d="M90.931 140.054C97.586 140.054,98.934 134.635,98.934 133.315C98.934 131.237,97.277 129.946,94.919 129.946C88.909 129.946,87 134.607,87 136.685C87 138.847,88.685 140.054,90.931 140.054M90.033 138.51C89.19 138.51,88.685 138.061,88.404 137.583C88.292 137.359,88.179 137.05,88.179 136.769C88.179 134.803,94.048 131.602,95.929 131.602C96.716 131.602,97.137 131.967,97.446 132.445C97.558 132.697,97.67 132.95,97.67 133.231C97.67 134.972,91.97 138.51,90.033 138.51"/><path stroke="none" d="M62.751 141.703C62.888 141.867,62.997 141.895,63.107 141.895C63.243 141.895,63.353 141.813,63.353 141.813C64.529 141.156,65.487 140.089,66.472 139.405C69.974 136.97,71.178 134.562,71.178 132.756C71.178 130.513,69.454 129.09,67.648 128.981C66.964 128.981,66.034 129.282,65.487 129.637C65.241 129.829,64.803 130.185,64.611 130.185C64.529 130.185,64.502 130.185,64.42 130.157C64.146 130.048,63.982 129.747,63.982 129.473C64.009 128.625,64.256 119.159,64.256 118.365C64.256 117.927,63.9 117.708,63.517 117.708C62.942 117.708,62.313 118.092,62.286 118.803C62.286 118.803,62.45 141.293,62.751 141.703M64.146 138.201C64.146 138.201,64.009 135.821,64.009 134.261C64.009 133.632,64.064 133.14,64.092 133.003C64.365 132.209,65.952 131.06,66.855 131.06C68.004 131.06,68.469 132.373,68.469 133.358C68.469 135.465,66.663 137.599,64.967 138.666C64.803 138.748,64.693 138.776,64.584 138.776C64.228 138.776,64.146 138.393,64.146 138.201"/></g><g class="vf-notehead" id="vf-auto15436" pointer-events="bounding-box"><path stroke="none" d="M90.931 130.054C97.586 130.054,98.934 124.635,98.934 123.315C98.934 121.237,97.277 119.946,94.919 119.946C88.909 119.946,87 124.607,87 126.685C87 128.847,88.685 130.054,90.931 130.054M90.033 128.51C89.19 128.51,88.685 128.061,88.404 127.583C88.292 127.359,88.179 127.05,88.179 126.769C88.179 124.803,94.048 121.602,95.929 121.602C96.716 121.602,97.137 121.967,97.446 122.445C97.558 122.697,97.67 122.95,97.67 123.231C97.67 124.972,91.97 128.51,90.033 128.51"/><path stroke="none" d="M58.219 117.859C58.137 117.859,58.109 117.914,58.055 117.914C58.055 117.914,55.537 118.817,54.525 118.817C54.279 118.817,54.115 118.762,54.115 118.625L54.115 112.031C54.115 111.758,53.896 111.566,53.65 111.566L53.13 111.566C52.856 111.566,52.665 111.758,52.665 112.031L52.665 132.332C52.665 132.551,52.774 132.688,53.02 132.688L53.102 132.633C53.13 132.633,53.212 132.633,53.267 132.606C53.814 132.36,56.003 131.43,57.152 131.43C57.562 131.43,57.836 131.539,57.836 131.867L57.836 137.722C57.836 137.996,58.027 138.188,58.301 138.188L58.821 138.188C59.04 138.188,59.286 137.996,59.286 137.722L59.286 117.941C59.286 117.75,59.122 117.64,58.957 117.64C58.93 117.64,58.848 117.64,58.821 117.668M54.115 123.468C54.115 122.921,56.522 121.881,57.48 121.881C57.699 121.881,57.836 121.936,57.836 122.072L57.836 126.149C57.836 126.86,55.592 127.763,54.607 127.763C54.306 127.763,54.115 127.681,54.115 127.517"/></g><g class="vf-notehead" id="vf-auto15435" pointer-events="bounding-box"><path stroke="none" d="M90.931 115.054C97.586 115.054,98.934 109.635,98.934 108.315C98.934 106.237,97.277 104.946,94.919 104.946C88.909 104.946,87 109.607,87 111.685C87 113.847,88.685 115.054,90.931 115.054M90.033 113.51C89.19 113.51,88.685 113.061,88.404 112.583C88.292 112.359,88.179 112.05,88.179 111.769C88.179 109.803,94.048 106.602,95.929 106.602C96.716 106.602,97.137 106.967,97.446 107.445C97.558 107.697,97.67 107.95,97.67 108.231C97.67 109.972,91.97 113.51,90.033 113.51"/><path stroke="none" d="M83.508 105.349C83.781 105.239,84 104.911,84 104.692L84 101.874C84 101.683,83.863 101.573,83.699 101.573C83.644 101.573,83.59 101.573,83.508 101.6C83.508 101.6,82.714 101.929,82.523 101.956C82.249 101.956,81.975 101.765,81.975 101.464L81.975 96.648C81.975 96.402,81.729 96.211,81.428 96.211C81.045 96.211,80.799 96.402,80.799 96.648L80.799 101.765C80.744 102.148,80.635 102.668,80.279 102.914C79.814 103.187,78.473 103.735,77.789 103.899C77.461 103.899,77.324 103.434,77.324 103.105L77.324 98.372C77.324 98.153,77.051 97.934,76.777 97.934C76.394 97.934,76.148 98.153,76.148 98.372L76.148 103.707C76.148 104.254,75.901 104.637,75.683 104.747C75.436 104.884,74.643 105.185,74.643 105.185C74.369 105.267,74.178 105.595,74.178 105.814L74.178 108.632C74.178 108.851,74.287 108.988,74.533 108.988L74.616 108.933C74.643 108.933,75.245 108.687,75.546 108.55L75.6 108.495C75.901 108.495,76.148 108.906,76.148 109.207L76.148 113.119C76.148 113.557,75.956 113.912,75.71 114.022C75.491 114.104,74.643 114.46,74.643 114.46C74.369 114.542,74.178 114.843,74.178 115.089L74.178 117.88C74.178 118.126,74.287 118.235,74.533 118.235L74.616 118.208C74.643 118.208,75.19 117.962,75.546 117.852C75.6 117.798,75.628 117.798,75.683 117.798C75.956 117.798,76.148 118.235,76.148 118.427L76.148 123.27C76.148 123.516,76.394 123.707,76.668 123.707C77.051 123.707,77.324 123.516,77.324 123.27L77.324 117.798C77.324 117.278,77.516 117.004,77.735 116.922L80.115 115.937C80.115 115.937,80.17 115.937,80.17 115.937L80.252 115.91C80.607 115.91,80.799 116.375,80.799 116.621L80.799 121.546C80.799 121.792,81.045 121.984,81.319 121.984C81.729 121.984,81.975 121.792,81.975 121.546L81.975 115.937C81.975 115.636,82.14 115.171,82.413 115.034C82.687 114.925,83.508 114.596,83.508 114.596C83.781 114.487,84 114.186,84 113.94L84 111.149C84 110.958,83.863 110.821,83.699 110.821C83.644 110.821,83.59 110.821,83.508 110.876L82.495 111.259C82.249 111.259,81.975 111.012,81.975 110.547L81.975 106.881C81.975 106.607,82.167 105.869,82.495 105.732M80.799 111.778C80.553 112.572,78.72 113.338,77.789 113.338C77.57 113.338,77.379 113.283,77.324 113.146C77.242 112.982,77.215 112.134,77.215 111.176C77.215 109.973,77.242 108.577,77.324 108.276C77.406 107.592,79.212 106.772,80.197 106.772C80.471 106.772,80.717 106.854,80.799 107.018C80.881 107.209,80.963 108.194,80.963 109.261C80.963 110.328,80.881 111.423,80.799 111.778"/></g></g><g class="vf-stavenote" id="vf-auto15444"><path stroke-width="1.4" fill="none" stroke="#444" d="M84 75L113.118 75"/><g class="vf-stem" id="vf-auto15445" pointer-events="bounding-box"><path stroke-width="1.5" fill="none" d="M98.184 92.45L98.184 35"/></g><g class="vf-notehead" id="vf-auto15449" pointer-events="bounding-box"><path stroke="none" d="M90.931 100.054C97.586 100.054,98.934 94.635,98.934 93.315C98.934 91.237,97.277 89.946,94.919 89.946C88.909 89.946,87 94.607,87 96.685C87 98.847,88.685 100.054,90.931 100.054M90.033 98.51C89.19 98.51,88.685 98.061,88.404 97.583C88.292 97.359,88.179 97.05,88.179 96.769C88.179 94.803,94.048 91.602,95.929 91.602C96.716 91.602,97.137 91.967,97.446 92.445C97.558 92.697,97.67 92.95,97.67 93.231C97.67 94.972,91.97 98.51,90.033 98.51"/><path stroke="none" d="M62.751 101.703C62.888 101.867,62.997 101.895,63.107 101.895C63.243 101.895,63.353 101.813,63.353 101.813C64.529 101.156,65.487 100.089,66.472 99.405C69.974 96.97,71.178 94.562,71.178 92.756C71.178 90.513,69.454 89.09,67.648 88.981C66.964 88.981,66.034 89.282,65.487 89.637C65.241 89.829,64.803 90.185,64.611 90.185C64.529 90.185,64.502 90.185,64.42 90.157C64.146 90.048,63.982 89.747,63.982 89.473C64.009 88.625,64.256 79.159,64.256 78.365C64.256 77.927,63.9 77.708,63.517 77.708C62.942 77.708,62.313 78.092,62.286 78.803C62.286 78.803,62.45 101.293,62.751 101.703M64.146 98.201C64.146 98.201,64.009 95.821,64.009 94.261C64.009 93.632,64.064 93.14,64.092 93.003C64.365 92.209,65.952 91.06,66.855 91.06C68.004 91.06,68.469 92.373,68.469 93.358C68.469 95.465,66.663 97.599,64.967 98.666C64.803 98.748,64.693 98.776,64.584 98.776C64.228 98.776,64.146 98.393,64.146 98.201"/></g><g class="vf-notehead" id="vf-auto15450" pointer-events="bounding-box"><path stroke="none" d="M90.931 80.054C97.586 80.054,98.934 74.635,98.934 73.315C98.934 71.237,97.277 69.946,94.919 69.946C88.909 69.946,87 74.607,87 76.685C87 78.847,88.685 80.054,90.931 80.054M90.033 78.51C89.19 78.51,88.685 78.061,88.404 77.583C88.292 77.359,88.179 77.05,88.179 76.769C88.179 74.803,94.048 71.602,95.929 71.602C96.716 71.602,97.137 71.967,97.446 72.445C97.558 72.697,97.67 72.95,97.67 73.231C97.67 74.972,91.97 78.51,90.033 78.51"/><path stroke="none" d="M55.455 69.063C54.744 69.063,54.252 69.336,53.595 69.692C53.321 69.829,53.02 70.185,52.665 70.185C52.583 70.185,52.5 70.185,52.473 70.157C52.2 70.075,52.063 69.802,52.063 69.473C52.063 68.652,52.309 59.159,52.309 58.42C52.309 57.982,51.953 57.791,51.57 57.791C51.05 57.791,50.421 58.146,50.339 58.803C50.339 58.803,50.366 64.193,50.448 69.692C49.874 69.282,49.19 69.063,48.451 69.063L48.205 69.063C47.466 69.063,47.001 69.336,46.372 69.692C46.044 69.829,45.77 70.185,45.414 70.185C45.332 70.185,45.305 70.185,45.223 70.157C44.949 70.075,44.785 69.802,44.785 69.473C44.785 68.652,45.059 59.159,45.059 58.42C45.059 57.982,44.703 57.791,44.32 57.791C43.745 57.791,43.116 58.146,43.089 58.803C43.089 58.803,43.28 81.348,43.554 81.703C43.691 81.867,43.8 81.895,43.909 81.895C44.046 81.895,44.156 81.813,44.156 81.813C45.387 81.183,46.372 80.089,47.275 79.405C48.725 78.393,49.819 77.326,50.585 76.368C50.64 79.323,50.722 81.566,50.859 81.703C50.968 81.867,51.078 81.895,51.16 81.895C51.297 81.895,51.406 81.813,51.406 81.813C52.61 81.183,53.568 80.089,54.47 79.46C58.027 76.97,59.286 74.562,59.286 72.756C59.286 70.54,57.535 69.09,55.702 69.063M45.715 78.666C45.606 78.748,45.442 78.776,45.387 78.776C45.059 78.776,44.949 78.393,44.949 78.146C44.949 78.146,44.812 75.821,44.812 74.289C44.812 73.659,44.867 73.194,44.894 73.03C45.141 72.237,46.755 71.06,47.685 71.06C48.889 71.06,49.272 72.401,49.272 73.386C49.272 75.602,47.494 77.572,45.715 78.666M52.966 78.666C52.829 78.748,52.692 78.776,52.61 78.776C52.309 78.776,52.2 78.393,52.2 78.146C52.2 78.146,52.063 75.438,52.063 73.933C52.063 73.495,52.063 73.14,52.117 73.03C52.336 72.237,54.005 71.06,54.936 71.06C55.346 71.06,55.647 71.17,55.893 71.443C56.249 71.936,56.495 72.592,56.495 73.386C56.495 75.602,54.744 77.572,52.966 78.666"/></g><g class="vf-notehead" id="vf-auto15451" pointer-events="bounding-box"><path stroke="none" d="M102.115 75.054C108.77 75.054,110.118 69.635,110.118 68.315C110.118 66.237,108.461 64.946,106.103 64.946C100.093 64.946,98.184 69.607,98.184 71.685C98.184 73.847,99.869 75.054,102.115 75.054M101.217 73.51C100.374 73.51,99.869 73.061,99.588 72.583C99.476 72.359,99.363 72.05,99.363 71.769C99.363 69.803,105.232 66.602,107.113 66.602C107.9 66.602,108.321 66.967,108.63 67.445C108.742 67.697,108.854 67.95,108.854 68.231C108.854 69.972,103.154 73.51,101.217 73.51"/><path stroke="none" d="M81.756 71.259C81.319 71.012,79.896 70.246,79.896 69.973C79.896 69.398,81.182 68.824,81.756 68.632C81.784 68.632,81.811 68.632,81.866 68.632L82.112 68.659C82.577 68.659,83.316 68.577,83.726 68.276C83.918 68.057,84 67.483,84 66.854C84 65.239,83.863 64.993,82.249 64.993C81.538 64.993,80.826 65.075,80.635 65.267C80.498 65.404,80.443 66.088,80.443 66.799C80.252 67.237,79.622 68.659,79.157 68.659C78.583 68.659,77.953 67.373,77.817 66.799C77.817 66.142,77.68 65.431,77.488 65.267C77.324 65.075,76.695 64.993,76.066 64.993C75.409 64.993,74.698 65.075,74.451 65.267C74.342 65.349,74.26 66.033,74.26 66.717C74.26 67.428,74.342 68.14,74.451 68.276C74.725 68.495,75.436 68.659,76.12 68.659C76.257 68.659,76.394 68.632,76.503 68.632C76.941 68.851,78.364 69.644,78.364 69.918C78.364 70.438,77.105 71.067,76.558 71.259L76.148 71.259C75.436 71.259,74.698 71.341,74.451 71.532C74.342 71.642,74.26 72.326,74.26 73.037C74.26 73.748,74.342 74.46,74.451 74.542C74.725 74.761,75.354 74.925,76.038 74.925C76.613 74.925,77.242 74.815,77.488 74.542C77.735 74.323,77.817 73.666,77.817 73.037C77.817 72.982,77.844 72.928,77.871 72.873C78.118 72.326,78.583 71.231,79.103 71.231C79.622 71.231,80.279 72.49,80.443 73.037C80.443 73.748,80.498 74.405,80.635 74.542C80.908 74.761,81.538 74.925,82.222 74.925C83.726 74.925,84 74.542,84 73.119C84 72.435,83.863 71.724,83.726 71.532C83.508 71.341,82.796 71.259,82.14 71.259"/></g></g><text stroke="none" font-size="8pt" x="40.089" y="180">59px</text><path stroke-width="3" fill="none" stroke="red" d="M40.089 187L87 187"/><path stroke-width="3" fill="none" stroke="#999" d="M87 187L87 187"/><path stroke-width="3" fill="none" stroke="green" d="M87 187L98.934 187"/><path stroke-width="3" fill="none" stroke="#999" d="M98.934 187L98.934 187"/><path stroke-width="3" fill="none" stroke="red" d="M98.934 187L98.934 187"/><path stroke-width="3" fill="none" stroke="#DD0" d="M98.934 187L98.934 187"/><path stroke-width="3" fill="none" stroke="#BBB" d="M40.089 187L40.089 187"/><path stroke-width="3" fill="blue" stroke="none" d="M90 187 A3 3 0 0 0 84 187 A3 3 0 0 0 90 187Z"/><text stroke="none" font-size="8pt" x="40.089" y="15">71px</text><path stroke-width="3" fill="none" stroke="red" d="M40.089 22L87 22"/><path stroke-width="3" fill="none" stroke="#999" d="M87 22L87 22"/><path stroke-width="3" fill="none" stroke="green" d="M87 22L98.934 22"/><path stroke-width="3" fill="none" stroke="#999" d="M98.934 22L110.868 22"/><path stroke-width="3" fill="none" stroke="red" d="M110.868 22L110.868 22"/><path stroke-width="3" fill="none" stroke="#DD0" d="M110.868 22L110.868 22"/><path stroke-width="3" fill="none" stroke="#BBB" d="M40.089 22L40.089 22"/><path stroke-width="3" fill="blue" stroke="none" d="M90 22 A3 3 0 0 0 84 22 A3 3 0 0 0 90 22Z"/><g class="vf-stavenote" id="vf-auto15458"><path stroke-width="1.4" fill="none" stroke="#444" d="M199.868 135L217.802 135"/><g class="vf-stem" id="vf-auto15459" pointer-events="bounding-box"><path stroke-width="1.5" fill="none" d="M203.618 102.65L203.618 170"/></g><g class="vf-notehead" id="vf-auto15465" pointer-events="bounding-box"><path stroke="none" d="M206.799 140.054C213.454 140.054,214.802 134.635,214.802 133.315C214.802 131.237,213.145 129.946,210.787 129.946C204.777 129.946,202.868 134.607,202.868 136.685C202.868 138.847,204.553 140.054,206.799 140.054M205.901 138.51C205.058 138.51,204.553 138.061,204.272 137.583C204.16 137.359,204.047 137.05,204.047 136.769C204.047 134.803,209.916 131.602,211.797 131.602C212.584 131.602,213.005 131.967,213.314 132.445C213.426 132.697,213.538 132.95,213.538 133.231C213.538 134.972,207.838 138.51,205.901 138.51"/><path stroke="none" d="M153.681 141.703C153.818 141.867,153.927 141.895,154.037 141.895C154.174 141.895,154.283 141.813,154.283 141.813C155.46 141.156,156.417 140.089,157.402 139.405C160.904 136.97,162.108 134.562,162.108 132.756C162.108 130.513,160.384 129.09,158.579 128.981C157.895 128.981,156.964 129.282,156.417 129.637C156.171 129.829,155.733 130.185,155.542 130.185C155.46 130.185,155.432 130.185,155.35 130.157C155.076 130.048,154.912 129.747,154.912 129.473C154.94 128.625,155.186 119.159,155.186 118.365C155.186 117.927,154.83 117.708,154.447 117.708C153.873 117.708,153.243 118.092,153.216 118.803C153.216 118.803,153.38 141.293,153.681 141.703M155.076 138.201C155.076 138.201,154.94 135.821,154.94 134.261C154.94 133.632,154.994 133.14,155.022 133.003C155.295 132.209,156.882 131.06,157.785 131.06C158.934 131.06,159.399 132.373,159.399 133.358C159.399 135.465,157.594 137.599,155.897 138.666C155.733 138.748,155.624 138.776,155.514 138.776C155.159 138.776,155.076 138.393,155.076 138.201"/></g><g class="vf-notehead" id="vf-auto15464" pointer-events="bounding-box"><path stroke="none" d="M206.799 130.054C213.454 130.054,214.802 124.635,214.802 123.315C214.802 121.237,213.145 119.946,210.787 119.946C204.777 119.946,202.868 124.607,202.868 126.685C202.868 128.847,204.553 130.054,206.799 130.054M205.901 128.51C205.058 128.51,204.553 128.061,204.272 127.583C204.16 127.359,204.047 127.05,204.047 126.769C204.047 124.803,209.916 121.602,211.797 121.602C212.584 121.602,213.005 121.967,213.314 122.445C213.426 122.697,213.538 122.95,213.538 123.231C213.538 124.972,207.838 128.51,205.901 128.51"/><path stroke="none" d="M172.933 117.859C172.851 117.859,172.824 117.914,172.769 117.914C172.769 117.914,170.252 118.817,169.239 118.817C168.993 118.817,168.829 118.762,168.829 118.625L168.829 112.031C168.829 111.758,168.61 111.566,168.364 111.566L167.844 111.566C167.57 111.566,167.379 111.758,167.379 112.031L167.379 132.332C167.379 132.551,167.488 132.688,167.735 132.688L167.817 132.633C167.844 132.633,167.926 132.633,167.981 132.606C168.528 132.36,170.717 131.43,171.866 131.43C172.276 131.43,172.55 131.539,172.55 131.867L172.55 137.722C172.55 137.996,172.741 138.188,173.015 138.188L173.535 138.188C173.754 138.188,174 137.996,174 137.722L174 117.941C174 117.75,173.836 117.64,173.672 117.64C173.644 117.64,173.562 117.64,173.535 117.668M168.829 123.468C168.829 122.921,171.237 121.881,172.194 121.881C172.413 121.881,172.55 121.936,172.55 122.072L172.55 126.149C172.55 126.86,170.306 127.763,169.321 127.763C169.02 127.763,168.829 127.681,168.829 127.517"/></g><g class="vf-notehead" id="vf-auto15463" pointer-events="bounding-box"><path stroke="none" d="M206.799 105.054C213.454 105.054,214.802 99.635,214.802 98.315C214.802 96.237,213.145 94.946,210.787 94.946C204.777 94.946,202.868 99.607,202.868 101.685C202.868 103.847,204.553 105.054,206.799 105.054M205.901 103.51C205.058 103.51,204.553 103.061,204.272 102.583C204.16 102.359,204.047 102.05,204.047 101.769C204.047 99.803,209.916 96.602,211.797 96.602C212.584 96.602,213.005 96.967,213.314 97.445C213.426 97.697,213.538 97.95,213.538 98.231C213.538 99.972,207.838 103.51,205.901 103.51"/><path stroke="none" d="M161.616 95.349C161.889 95.239,162.108 94.911,162.108 94.692L162.108 91.874C162.108 91.683,161.971 91.573,161.807 91.573C161.752 91.573,161.698 91.573,161.616 91.6C161.616 91.6,160.822 91.929,160.631 91.956C160.357 91.956,160.083 91.765,160.083 91.464L160.083 86.648C160.083 86.402,159.837 86.211,159.536 86.211C159.153 86.211,158.907 86.402,158.907 86.648L158.907 91.765C158.852 92.148,158.743 92.668,158.387 92.914C157.922 93.187,156.581 93.735,155.897 93.899C155.569 93.899,155.432 93.434,155.432 93.105L155.432 88.372C155.432 88.153,155.159 87.934,154.885 87.934C154.502 87.934,154.256 88.153,154.256 88.372L154.256 93.707C154.256 94.254,154.009 94.637,153.791 94.747C153.544 94.884,152.751 95.185,152.751 95.185C152.477 95.267,152.286 95.595,152.286 95.814L152.286 98.632C152.286 98.851,152.395 98.988,152.641 98.988L152.724 98.933C152.751 98.933,153.353 98.687,153.654 98.55L153.708 98.495C154.009 98.495,154.256 98.906,154.256 99.207L154.256 103.119C154.256 103.557,154.064 103.912,153.818 104.022C153.599 104.104,152.751 104.46,152.751 104.46C152.477 104.542,152.286 104.843,152.286 105.089L152.286 107.88C152.286 108.126,152.395 108.235,152.641 108.235L152.724 108.208C152.751 108.208,153.298 107.962,153.654 107.852C153.708 107.798,153.736 107.798,153.791 107.798C154.064 107.798,154.256 108.235,154.256 108.427L154.256 113.27C154.256 113.516,154.502 113.707,154.776 113.707C155.159 113.707,155.432 113.516,155.432 113.27L155.432 107.798C155.432 107.278,155.624 107.004,155.843 106.922L158.223 105.937C158.223 105.937,158.278 105.937,158.278 105.937L158.36 105.91C158.715 105.91,158.907 106.375,158.907 106.621L158.907 111.546C158.907 111.792,159.153 111.984,159.427 111.984C159.837 111.984,160.083 111.792,160.083 111.546L160.083 105.937C160.083 105.636,160.248 105.171,160.521 105.034C160.795 104.925,161.616 104.596,161.616 104.596C161.889 104.487,162.108 104.186,162.108 103.94L162.108 101.149C162.108 100.958,161.971 100.821,161.807 100.821C161.752 100.821,161.698 100.821,161.616 100.876L160.603 101.259C160.357 101.259,160.083 101.012,160.083 100.547L160.083 96.881C160.083 96.607,160.275 95.869,160.603 95.732M158.907 101.778C158.661 102.572,156.828 103.338,155.897 103.338C155.678 103.338,155.487 103.283,155.432 103.146C155.35 102.982,155.323 102.134,155.323 101.176C155.323 99.973,155.35 98.577,155.432 98.276C155.514 97.592,157.32 96.772,158.305 96.772C158.579 96.772,158.825 96.854,158.907 97.018C158.989 97.209,159.071 98.194,159.071 99.261C159.071 100.328,158.989 101.423,158.907 101.778"/></g></g><g class="vf-stavenote" id="vf-auto15472"><path stroke-width="1.4" fill="none" stroke="#444" d="M174 75L203.118 75"/><g class="vf-stem" id="vf-auto15473" pointer-events="bounding-box"><path stroke-width="1.5" fill="none" d="M188.184 93L188.184 35"/></g><g class="vf-notehead" id="vf-auto15477" pointer-events="bounding-box"><path stroke="none" d="M180.931 100.054C184.525 100.054,188.934 96.741,188.934 93.315C188.934 91.237,187.305 89.946,185.003 89.946C180.566 89.946,177 93.231,177 96.685C177 98.791,178.741 100.054,180.931 100.054"/><path stroke="none" d="M165.573 101.703C165.71 101.867,165.819 101.895,165.929 101.895C166.066 101.895,166.175 101.813,166.175 101.813C167.352 101.156,168.309 100.089,169.294 99.405C172.796 96.97,174 94.562,174 92.756C174 90.513,172.276 89.09,170.471 88.981C169.787 88.981,168.856 89.282,168.309 89.637C168.063 89.829,167.625 90.185,167.434 90.185C167.352 90.185,167.324 90.185,167.242 90.157C166.968 90.048,166.804 89.747,166.804 89.473C166.832 88.625,167.078 79.159,167.078 78.365C167.078 77.927,166.722 77.708,166.339 77.708C165.765 77.708,165.135 78.092,165.108 78.803C165.108 78.803,165.272 101.293,165.573 101.703M166.968 98.201C166.968 98.201,166.832 95.821,166.832 94.261C166.832 93.632,166.886 93.14,166.914 93.003C167.187 92.209,168.774 91.06,169.677 91.06C170.826 91.06,171.291 92.373,171.291 93.358C171.291 95.465,169.486 97.599,167.789 98.666C167.625 98.748,167.516 98.776,167.406 98.776C167.051 98.776,166.968 98.393,166.968 98.201"/></g><g class="vf-notehead" id="vf-auto15478" pointer-events="bounding-box"><path stroke="none" d="M180.931 80.054C184.525 80.054,188.934 76.741,188.934 73.315C188.934 71.237,187.305 69.946,185.003 69.946C180.566 69.946,177 73.231,177 76.685C177 78.791,178.741 80.054,180.931 80.054"/></g><g class="vf-notehead" id="vf-auto15479" pointer-events="bounding-box"><path stroke="none" d="M192.115 75.054C195.709 75.054,200.118 71.741,200.118 68.315C200.118 66.237,198.489 64.946,196.187 64.946C191.75 64.946,188.184 68.231,188.184 71.685C188.184 73.791,189.925 75.054,192.115 75.054"/></g></g><text stroke="none" font-size="8pt" x="175.154" y="180">66px</text><path stroke-width="3" fill="none" stroke="red" d="M175.154 187L202.868 187"/><path stroke-width="3" fill="none" stroke="#999" d="M202.868 187L202.868 187"/><path stroke-width="3" fill="none" stroke="green" d="M202.868 187L214.802 187"/><path stroke-width="3" fill="none" stroke="#999" d="M214.802 187L214.802 187"/><path stroke-width="3" fill="none" stroke="red" d="M214.802 187L240.67 187"/><path stroke-width="3" fill="none" stroke="#DD0" d="M240.67 187L240.67 187"/><path stroke-width="3" fill="none" stroke="#BBB" d="M149.286 187L175.154 187"/><path stroke-width="3" fill="blue" stroke="none" d="M205.868 187 A3 3 0 0 0 199.868 187 A3 3 0 0 0 205.868 187Z"/><text stroke="none" font-size="8pt" x="149.286" y="15">77px</text><path stroke-width="3" fill="none" stroke="red" d="M149.286 22L177 22"/><path stroke-width="3" fill="none" stroke="#999" d="M177 22L177 22"/><path stroke-width="3" fill="none" stroke="green" d="M177 22L188.934 22"/><path stroke-width="3" fill="none" stroke="#999" d="M188.934 22L200.868 22"/><path stroke-width="3" fill="none" stroke="red" d="M200.868 22L226.736 22"/><path stroke-width="3" fill="none" stroke="#DD0" d="M226.736 22L226.736 22"/><path stroke-width="3" fill="none" stroke="#BBB" d="M149.286 22L149.286 22"/><path stroke-width="3" fill="blue" stroke="none" d="M180 22 A3 3 0 0 0 174 22 A3 3 0 0 0 180 22Z"/><g class="vf-stavenote" id="vf-auto15482"><g class="vf-stem" id="vf-auto15483" pointer-events="bounding-box"><path stroke-width="1.5" fill="none" d="M303.618 97.65L303.618 165"/></g><g class="vf-notehead" id="vf-auto15489" pointer-events="bounding-box"><path stroke="none" d="M306.799 135.054C313.454 135.054,314.802 129.635,314.802 128.315C314.802 126.237,313.145 124.946,310.787 124.946C304.777 124.946,302.868 129.607,302.868 131.685C302.868 133.847,304.553 135.054,306.799 135.054M305.901 133.51C305.058 133.51,304.553 133.061,304.272 132.583C304.16 132.359,304.047 132.05,304.047 131.769C304.047 129.803,309.916 126.602,311.797 126.602C312.584 126.602,313.005 126.967,313.314 127.445C313.426 127.697,313.538 127.95,313.538 128.231C313.538 129.972,307.838 133.51,305.901 133.51"/><path stroke="none" d="M265.573 136.703C265.71 136.867,265.819 136.895,265.929 136.895C266.066 136.895,266.175 136.813,266.175 136.813C267.352 136.156,268.309 135.089,269.294 134.405C272.796 131.97,274 129.562,274 127.756C274 125.513,272.276 124.09,270.471 123.981C269.787 123.981,268.856 124.282,268.309 124.637C268.063 124.829,267.625 125.185,267.434 125.185C267.352 125.185,267.324 125.185,267.242 125.157C266.968 125.048,266.804 124.747,266.804 124.473C266.832 123.625,267.078 114.159,267.078 113.365C267.078 112.927,266.722 112.708,266.339 112.708C265.765 112.708,265.135 113.092,265.108 113.803C265.108 113.803,265.272 136.293,265.573 136.703M266.968 133.201C266.968 133.201,266.832 130.821,266.832 129.261C266.832 128.632,266.886 128.14,266.914 128.003C267.187 127.209,268.774 126.06,269.677 126.06C270.826 126.06,271.291 127.373,271.291 128.358C271.291 130.465,269.486 132.599,267.789 133.666C267.625 133.748,267.516 133.776,267.406 133.776C267.051 133.776,266.968 133.393,266.968 133.201"/></g><g class="vf-notehead" id="vf-auto15488" pointer-events="bounding-box"><path stroke="none" d="M295.615 105.054C302.27 105.054,303.618 99.635,303.618 98.315C303.618 96.237,301.961 94.946,299.603 94.946C293.593 94.946,291.684 99.607,291.684 101.685C291.684 103.847,293.369 105.054,295.615 105.054M294.717 103.51C293.874 103.51,293.369 103.061,293.088 102.583C292.976 102.359,292.863 102.05,292.863 101.769C292.863 99.803,298.732 96.602,300.613 96.602C301.4 96.602,301.821 96.967,302.13 97.445C302.242 97.697,302.354 97.95,302.354 98.231C302.354 99.972,296.654 103.51,294.717 103.51"/><path stroke="none" d="M248.219 92.859C248.137 92.859,248.109 92.914,248.055 92.914C248.055 92.914,245.537 93.817,244.525 93.817C244.279 93.817,244.115 93.762,244.115 93.625L244.115 87.031C244.115 86.758,243.896 86.566,243.65 86.566L243.13 86.566C242.856 86.566,242.665 86.758,242.665 87.031L242.665 107.332C242.665 107.551,242.774 107.688,243.02 107.688L243.102 107.633C243.13 107.633,243.212 107.633,243.267 107.606C243.814 107.36,246.003 106.43,247.152 106.43C247.562 106.43,247.836 106.539,247.836 106.867L247.836 112.722C247.836 112.996,248.027 113.188,248.301 113.188L248.821 113.188C249.04 113.188,249.286 112.996,249.286 112.722L249.286 92.941C249.286 92.75,249.122 92.64,248.957 92.64C248.93 92.64,248.848 92.64,248.821 92.668M244.115 98.468C244.115 97.921,246.522 96.881,247.48 96.881C247.699 96.881,247.836 96.936,247.836 97.072L247.836 101.149C247.836 101.86,245.592 102.763,244.607 102.763C244.306 102.763,244.115 102.681,244.115 102.517"/></g><g class="vf-notehead" id="vf-auto15487" pointer-events="bounding-box"><path stroke="none" d="M306.799 100.054C313.454 100.054,314.802 94.635,314.802 93.315C314.802 91.237,313.145 89.946,310.787 89.946C304.777 89.946,302.868 94.607,302.868 96.685C302.868 98.847,304.553 100.054,306.799 100.054M305.901 98.51C305.058 98.51,304.553 98.061,304.272 97.583C304.16 97.359,304.047 97.05,304.047 96.769C304.047 94.803,309.916 91.602,311.797 91.602C312.584 91.602,313.005 91.967,313.314 92.445C313.426 92.697,313.538 92.95,313.538 93.231C313.538 94.972,307.838 98.51,305.901 98.51"/><path stroke="none" d="M273.508 90.349C273.781 90.239,274 89.911,274 89.692L274 86.874C274 86.683,273.863 86.573,273.699 86.573C273.644 86.573,273.59 86.573,273.508 86.6C273.508 86.6,272.714 86.929,272.523 86.956C272.249 86.956,271.975 86.765,271.975 86.464L271.975 81.648C271.975 81.402,271.729 81.211,271.428 81.211C271.045 81.211,270.799 81.402,270.799 81.648L270.799 86.765C270.744 87.148,270.635 87.668,270.279 87.914C269.814 88.187,268.473 88.735,267.789 88.899C267.461 88.899,267.324 88.434,267.324 88.105L267.324 83.372C267.324 83.153,267.051 82.934,266.777 82.934C266.394 82.934,266.148 83.153,266.148 83.372L266.148 88.707C266.148 89.254,265.901 89.637,265.683 89.747C265.436 89.884,264.643 90.185,264.643 90.185C264.369 90.267,264.178 90.595,264.178 90.814L264.178 93.632C264.178 93.851,264.287 93.988,264.533 93.988L264.616 93.933C264.643 93.933,265.245 93.687,265.546 93.55L265.6 93.495C265.901 93.495,266.148 93.906,266.148 94.207L266.148 98.119C266.148 98.557,265.956 98.912,265.71 99.022C265.491 99.104,264.643 99.46,264.643 99.46C264.369 99.542,264.178 99.843,264.178 100.089L264.178 102.88C264.178 103.126,264.287 103.235,264.533 103.235L264.616 103.208C264.643 103.208,265.19 102.962,265.546 102.852C265.6 102.798,265.628 102.798,265.683 102.798C265.956 102.798,266.148 103.235,266.148 103.427L266.148 108.27C266.148 108.516,266.394 108.707,266.668 108.707C267.051 108.707,267.324 108.516,267.324 108.27L267.324 102.798C267.324 102.278,267.516 102.004,267.735 101.922L270.115 100.937C270.115 100.937,270.17 100.937,270.17 100.937L270.252 100.91C270.607 100.91,270.799 101.375,270.799 101.621L270.799 106.546C270.799 106.792,271.045 106.984,271.319 106.984C271.729 106.984,271.975 106.792,271.975 106.546L271.975 100.937C271.975 100.636,272.14 100.171,272.413 100.034C272.687 99.925,273.508 99.596,273.508 99.596C273.781 99.487,274 99.186,274 98.94L274 96.149C274 95.958,273.863 95.821,273.699 95.821C273.644 95.821,273.59 95.821,273.508 95.876L272.495 96.259C272.249 96.259,271.975 96.012,271.975 95.547L271.975 91.881C271.975 91.607,272.167 90.869,272.495 90.732M270.799 96.778C270.553 97.572,268.72 98.338,267.789 98.338C267.57 98.338,267.379 98.283,267.324 98.146C267.242 97.982,267.215 97.134,267.215 96.176C267.215 94.973,267.242 93.577,267.324 93.276C267.406 92.592,269.212 91.772,270.197 91.772C270.471 91.772,270.717 91.854,270.799 92.018C270.881 92.209,270.963 93.194,270.963 94.261C270.963 95.328,270.881 96.423,270.799 96.778"/></g></g><g class="vf-stavenote" id="vf-auto15496"><path stroke-width="1.4" fill="none" stroke="#444" d="M274 75L303.118 75"/><g class="vf-stem" id="vf-auto15497" pointer-events="bounding-box"><path stroke-width="1.5" fill="none" d="M288.184 93L288.184 35"/></g><g class="vf-notehead" id="vf-auto15501" pointer-events="bounding-box"><path stroke="none" d="M280.931 100.054C284.525 100.054,288.934 96.741,288.934 93.315C288.934 91.237,287.305 89.946,285.003 89.946C280.566 89.946,277 93.231,277 96.685C277 98.791,278.741 100.054,280.931 100.054"/><path stroke="none" d="M252.751 101.703C252.888 101.867,252.997 101.895,253.107 101.895C253.243 101.895,253.353 101.813,253.353 101.813C254.529 101.156,255.487 100.089,256.472 99.405C259.974 96.97,261.178 94.562,261.178 92.756C261.178 90.513,259.454 89.09,257.648 88.981C256.964 88.981,256.034 89.282,255.487 89.637C255.241 89.829,254.803 90.185,254.611 90.185C254.529 90.185,254.502 90.185,254.42 90.157C254.146 90.048,253.982 89.747,253.982 89.473C254.009 88.625,254.256 79.159,254.256 78.365C254.256 77.927,253.9 77.708,253.517 77.708C252.942 77.708,252.313 78.092,252.286 78.803C252.286 78.803,252.45 101.293,252.751 101.703M254.146 98.201C254.146 98.201,254.009 95.821,254.009 94.261C254.009 93.632,254.064 93.14,254.092 93.003C254.365 92.209,255.952 91.06,256.855 91.06C258.004 91.06,258.469 92.373,258.469 93.358C258.469 95.465,256.663 97.599,254.967 98.666C254.803 98.748,254.693 98.776,254.584 98.776C254.228 98.776,254.146 98.393,254.146 98.201"/></g><g class="vf-notehead" id="vf-auto15502" pointer-events="bounding-box"><path stroke="none" d="M280.931 80.054C284.525 80.054,288.934 76.741,288.934 73.315C288.934 71.237,287.305 69.946,285.003 69.946C280.566 69.946,277 73.231,277 76.685C277 78.791,278.741 80.054,280.931 80.054"/></g><g class="vf-notehead" id="vf-auto15503" pointer-events="bounding-box"><path stroke="none" d="M292.115 75.054C295.709 75.054,300.118 71.741,300.118 68.315C300.118 66.237,298.489 64.946,296.187 64.946C291.75 64.946,288.184 68.231,288.184 71.685C288.184 73.791,289.925 75.054,292.115 75.054"/></g></g><text stroke="none" font-size="8pt" x="253.599" y="180">87px</text><path stroke-width="3" fill="none" stroke="red" d="M253.599 187L290.934 187"/><path stroke-width="3" fill="none" stroke="#999" d="M290.934 187L302.868 187"/><path stroke-width="3" fill="none" stroke="green" d="M302.868 187L314.802 187"/><path stroke-width="3" fill="none" stroke="#999" d="M314.802 187L314.802 187"/><path stroke-width="3" fill="none" stroke="red" d="M314.802 187L340.67 187"/><path stroke-width="3" fill="none" stroke="#DD0" d="M340.67 187L340.67 187"/><path stroke-width="3" fill="none" stroke="#BBB" d="M227.731 187L253.599 187"/><path stroke-width="3" fill="blue" stroke="none" d="M305.868 187 A3 3 0 0 0 299.868 187 A3 3 0 0 0 305.868 187Z"/><text stroke="none" font-size="8pt" x="239.665" y="15">87px</text><path stroke-width="3" fill="none" stroke="red" d="M239.665 22L277 22"/><path stroke-width="3" fill="none" stroke="#999" d="M277 22L277 22"/><path stroke-width="3" fill="none" stroke="green" d="M277 22L288.934 22"/><path stroke-width="3" fill="none" stroke="#999" d="M288.934 22L300.868 22"/><path stroke-width="3" fill="none" stroke="red" d="M300.868 22L326.736 22"/><path stroke-width="3" fill="none" stroke="#DD0" d="M326.736 22L326.736 22"/><path stroke-width="3" fill="none" stroke="#BBB" d="M239.665 22L239.665 22"/><path stroke-width="3" fill="blue" stroke="none" d="M280 22 A3 3 0 0 0 274 22 A3 3 0 0 0 280 22Z"/><path stroke-width="10" fill="none" stroke="green" d="M350 146L360 146"/><text stroke-width="10" stroke="none" font-size="8pt" x="365" y="150">Note + Flag</text><path stroke-width="10" fill="none" stroke="red" d="M350 158L360 158"/><text stroke-width="10" stroke="none" font-size="8pt" x="365" y="162">Modifiers</text><path stroke-width="10" fill="none" stroke="#999" d="M350 170L360 170"/><text stroke-width="10" stroke="none" font-size="8pt" x="365" y="174">Displaced Head</text><path stroke-width="10" fill="none" stroke="#DDD" d="M350 182L360 182"/><text stroke-width="10" stroke="none" font-size="8pt" x="365" y="186">Formatter Shift</text></svg>