<svg xmlns="http://www.w3.org/2000/svg" stroke-width="0.3" stroke-dasharray="none" fill="black" stroke="black" font-family="Arial, sans-serif" font-size="10pt" font-weight="normal" font-style="normal" width="500" height="300" viewBox="0 0 500 300" style="width: 500px; height: 300px; border: none;"><g class="vf-stave" id="vf-auto13166" stroke-width="1" fill="#999999" stroke="#999999"><path fill="none" d="M10 50L414.247 50"/><path fill="none" d="M10 60L414.247 60"/><path fill="none" d="M10 70L414.247 70"/><path fill="none" d="M10 80L414.247 80"/><path fill="none" d="M10 90L414.247 90"/></g><g class="vf-stavebarline" id="vf-auto13167"/><g class="vf-stavebarline" id="vf-auto13168"><rect x="414.247" y="49.5" width="1" height="41" stroke="none"/></g><g class="vf-stave" id="vf-auto13169" stroke-width="1" fill="#999999" stroke="#999999"><path fill="none" d="M10 170L414.247 170"/><path fill="none" d="M10 180L414.247 180"/><path fill="none" d="M10 190L414.247 190"/><path fill="none" d="M10 200L414.247 200"/><path fill="none" d="M10 210L414.247 210"/></g><g class="vf-stavebarline" id="vf-auto13170"/><g class="vf-stavebarline" id="vf-auto13171"><rect x="414.247" y="169.5" width="1" height="41" stroke="none"/></g><g class="vf-stavenote" id="vf-auto12900"><g class="vf-notehead" id="vf-auto12904" pointer-events="bounding-box"><path stroke="none" d="M33.645 96.543C33.926 96.599,34.178 96.627,34.459 96.627C38.334 96.627,44.119 91.348,44.006 87.08C43.894 86.041,43.922 84.609,41.816 83.766C41.227 83.485,40.581 83.373,39.879 83.373C35.554 83.373,30.865 88.343,30.528 91.657C30.528 91.909,30.5 92.134,30.5 92.387C30.5 94.409,31.399 96.037,33.645 96.543"/><path stroke="none" d="M41.802 24.998C42.021 25.025,42.212 24.752,42.349 24.533C42.623 24.123,42.732 23.685,42.732 23.192C42.732 21.25,42.787 19.471,42.787 17.666C42.787 16.407,42.732 15.121,42.65 13.726L42.623 13.698C42.623 13.069,42.513 12.522,42.294 12.166C41.829 11.291,40.926 11.291,40.133 11.099C38.874 10.771,37.589 10.579,36.303 10.579C34.989 10.579,33.676 10.826,32.363 11.373C31.597 11.728,30.995 12.194,30.913 13.014L30.913 13.343C30.913 14.164,30.913 14.957,30.831 15.778C30.721 17.556,30.721 19.362,30.721 21.168C30.721 22.071,30.721 23.001,30.749 23.849C30.749 24.259,30.639 24.889,31.077 24.916C31.515 24.916,31.679 24.341,31.816 23.931C31.87 23.822,31.816 23.657,31.87 23.548C32.034 22.7,32.062 21.934,32.062 21.14C32.062 20.429,32.034 19.745,32.034 19.116C32.034 18.76,32.034 18.432,32.062 18.103L32.062 16.462C32.691 15.942,33.43 15.696,34.278 15.614C34.989 15.532,35.646 15.504,36.357 15.504C37.889 15.504,39.422 15.75,40.899 16.407L41.392 16.599L41.392 18.295C41.446 19.198,41.392 20.183,41.392 21.222C41.392 22.235,41.446 23.302,41.583 24.369C41.638 24.615,41.474 24.971,41.802 24.998"/></g></g><g class="vf-stavenote" id="vf-auto12909"><g class="vf-notehead" id="vf-auto12913" pointer-events="bounding-box"><path stroke="none" d="M57.552 101.543C57.832 101.599,58.085 101.627,58.366 101.627C62.241 101.627,68.025 96.348,67.913 92.08C67.801 91.041,67.829 89.609,65.723 88.766C65.133 88.485,64.487 88.373,63.785 88.373C59.461 88.373,54.772 93.343,54.435 96.657C54.435 96.909,54.407 97.134,54.407 97.387C54.407 99.409,55.305 101.037,57.552 101.543"/><path stroke="none" d="M65.709 25.169C65.927 25.196,66.119 24.923,66.256 24.704C66.529 24.293,66.639 23.856,66.639 23.363C66.639 21.421,66.694 19.642,66.694 17.836C66.694 16.578,66.639 15.292,66.557 13.897L66.529 13.869C66.529 13.24,66.42 12.693,66.201 12.337C65.736 11.462,64.833 11.462,64.04 11.27C62.781 10.942,61.495 10.75,60.209 10.75C58.896 10.75,57.583 10.996,56.269 11.544C55.503 11.899,54.901 12.364,54.819 13.185L54.819 13.514C54.819 14.334,54.819 15.128,54.737 15.949C54.628 17.727,54.628 19.533,54.628 21.338C54.628 22.241,54.628 23.172,54.655 24.02C54.655 24.43,54.546 25.059,54.983 25.087C55.421 25.087,55.585 24.512,55.722 24.102C55.777 23.992,55.722 23.828,55.777 23.719C55.941 22.871,55.968 22.105,55.968 21.311C55.968 20.6,55.941 19.916,55.941 19.286C55.941 18.931,55.941 18.602,55.968 18.274L55.968 16.633C56.598 16.113,57.336 15.866,58.185 15.784C58.896 15.702,59.553 15.675,60.264 15.675C61.796 15.675,63.328 15.921,64.806 16.578L65.298 16.769L65.298 18.466C65.353 19.369,65.298 20.354,65.298 21.393C65.298 22.406,65.353 23.473,65.49 24.54C65.544 24.786,65.38 25.142,65.709 25.169"/></g></g><g class="vf-stavenote" id="vf-auto12918"><g class="vf-notehead" id="vf-auto12922" pointer-events="bounding-box"><path stroke="none" d="M86.651 96.543C86.932 96.599,87.184 96.627,87.465 96.627C91.34 96.627,97.125 91.348,97.012 87.08C96.9 86.041,96.928 84.609,94.822 83.766C94.232 83.485,93.587 83.373,92.885 83.373C88.56 83.373,83.871 88.343,83.534 91.657C83.534 91.909,83.506 92.134,83.506 92.387C83.506 94.409,84.404 96.037,86.651 96.543"/><path stroke="none" d="M94.808 29.534C95.027 29.561,95.218 29.288,95.355 29.069C95.629 28.658,95.738 28.221,95.738 27.728C95.738 25.785,95.793 24.007,95.793 22.201C95.793 20.943,95.738 19.657,95.656 18.261L95.629 18.234C95.629 17.605,95.519 17.058,95.3 16.702C94.835 15.826,93.932 15.826,93.139 15.635C91.88 15.307,90.594 15.115,89.309 15.115C87.995 15.115,86.682 15.361,85.369 15.909C84.603 16.264,84.001 16.729,83.919 17.55L83.919 17.878C83.919 18.699,83.919 19.493,83.837 20.313C83.727 22.092,83.727 23.898,83.727 25.703C83.727 26.606,83.727 27.537,83.754 28.385C83.754 28.795,83.645 29.424,84.083 29.452C84.521 29.452,84.685 28.877,84.822 28.467C84.876 28.357,84.822 28.193,84.876 28.084C85.04 27.236,85.068 26.469,85.068 25.676C85.068 24.965,85.04 24.281,85.04 23.651C85.04 23.296,85.04 22.967,85.068 22.639L85.068 20.997C85.697 20.478,86.436 20.231,87.284 20.149C87.995 20.067,88.652 20.04,89.363 20.04C90.895 20.04,92.428 20.286,93.905 20.943L94.398 21.134L94.398 22.831C94.452 23.733,94.398 24.718,94.398 25.758C94.398 26.77,94.452 27.837,94.589 28.905C94.644 29.151,94.48 29.506,94.808 29.534"/></g></g><g class="vf-stavenote" id="vf-auto12927"><path stroke-width="1.4" fill="none" stroke="#444" d="M116.435 100L135.943 100"/><g class="vf-notehead" id="vf-auto12932" pointer-events="bounding-box"><path stroke="none" d="M123.08 106.543C123.36 106.599,123.613 106.627,123.894 106.627C127.769 106.627,133.553 101.348,133.441 97.08C133.329 96.041,133.357 94.609,131.251 93.766C130.661 93.485,130.015 93.373,129.313 93.373C124.989 93.373,120.3 98.343,119.963 101.657C119.963 101.909,119.935 102.134,119.935 102.387C119.935 104.409,120.833 106.037,123.08 106.543"/><path stroke="none" d="M131.237 29.998C131.456 30.025,131.647 29.752,131.784 29.533C132.057 29.123,132.167 28.685,132.167 28.192C132.167 26.25,132.222 24.471,132.222 22.666C132.222 21.407,132.167 20.121,132.085 18.726L132.057 18.698C132.057 18.069,131.948 17.522,131.729 17.166C131.264 16.291,130.361 16.291,129.568 16.099C128.309 15.771,127.023 15.579,125.737 15.579C124.424 15.579,123.111 15.826,121.797 16.373C121.031 16.728,120.429 17.194,120.347 18.014L120.347 18.343C120.347 19.164,120.347 19.957,120.265 20.778C120.156 22.556,120.156 24.362,120.156 26.168C120.156 27.071,120.156 28.001,120.183 28.849C120.183 29.259,120.074 29.889,120.512 29.916C120.949 29.916,121.113 29.341,121.25 28.931C121.305 28.822,121.25 28.657,121.305 28.548C121.469 27.7,121.496 26.934,121.496 26.14C121.496 25.429,121.469 24.745,121.469 24.116C121.469 23.76,121.469 23.432,121.496 23.103L121.496 21.462C122.126 20.942,122.864 20.696,123.713 20.614C124.424 20.532,125.081 20.504,125.792 20.504C127.324 20.504,128.856 20.75,130.334 21.407L130.826 21.599L130.826 23.295C130.881 24.198,130.826 25.183,130.826 26.222C130.826 27.235,130.881 28.302,131.018 29.369C131.072 29.615,130.908 29.971,131.237 29.998"/></g><g class="vf-notehead" id="vf-auto12933" pointer-events="bounding-box"><path stroke="none" d="M123.08 86.543C123.36 86.599,123.613 86.627,123.894 86.627C127.769 86.627,133.553 81.348,133.441 77.08C133.329 76.041,133.357 74.609,131.251 73.766C130.661 73.485,130.015 73.373,129.313 73.373C124.989 73.373,120.3 78.343,119.963 81.657C119.963 81.909,119.935 82.134,119.935 82.387C119.935 84.409,120.833 86.037,123.08 86.543"/></g></g><g class="vf-stavenote" id="vf-auto12938"><path stroke-width="1.4" fill="none" stroke="#444" d="M142.442 100L161.951 100"/><g class="vf-notehead" id="vf-auto12942" pointer-events="bounding-box"><path stroke="none" d="M149.087 106.543C149.368 106.599,149.621 106.627,149.902 106.627C153.777 106.627,159.561 101.348,159.449 97.08C159.337 96.041,159.365 94.609,157.259 93.766C156.669 93.485,156.023 93.373,155.321 93.373C150.997 93.373,146.307 98.343,145.971 101.657C145.971 101.909,145.942 102.134,145.942 102.387C145.942 104.409,146.841 106.037,149.087 106.543"/><path stroke="none" d="M157.244 33.899C157.463 33.927,157.655 33.653,157.792 33.434C158.065 33.024,158.175 32.586,158.175 32.094C158.175 30.151,158.229 28.373,158.229 26.567C158.229 25.308,158.175 24.022,158.093 22.627L158.065 22.6C158.065 21.97,157.956 21.423,157.737 21.067C157.272 20.192,156.369 20.192,155.575 20C154.317 19.672,153.031 19.481,151.745 19.481C150.432 19.481,149.118 19.727,147.805 20.274C147.039 20.63,146.437 21.095,146.355 21.916L146.355 22.244C146.355 23.065,146.355 23.858,146.273 24.679C146.164 26.457,146.164 28.263,146.164 30.069C146.164 30.972,146.164 31.902,146.191 32.75C146.191 33.161,146.082 33.79,146.519 33.817C146.957 33.817,147.121 33.243,147.258 32.832C147.313 32.723,147.258 32.559,147.313 32.449C147.477 31.601,147.504 30.835,147.504 30.042C147.504 29.33,147.477 28.646,147.477 28.017C147.477 27.661,147.477 27.333,147.504 27.005L147.504 25.363C148.134 24.843,148.872 24.597,149.72 24.515C150.432 24.433,151.088 24.405,151.8 24.405C153.332 24.405,154.864 24.652,156.342 25.308L156.834 25.5L156.834 27.196C156.889 28.099,156.834 29.084,156.834 30.124C156.834 31.136,156.889 32.203,157.026 33.27C157.08 33.516,156.916 33.872,157.244 33.899"/></g></g><g class="vf-stavenote" id="vf-auto12947"><path stroke-width="1.4" fill="none" stroke="#444" d="M168.45 100L187.958 100"/><g class="vf-notehead" id="vf-auto12951" pointer-events="bounding-box"><path stroke="none" d="M175.095 106.543C175.376 106.599,175.629 106.627,175.909 106.627C179.785 106.627,185.569 101.348,185.457 97.08C185.344 96.041,185.372 94.609,183.266 93.766C182.677 93.485,182.031 93.373,181.329 93.373C177.005 93.373,172.315 98.343,171.978 101.657C171.978 101.909,171.95 102.134,171.95 102.387C171.95 104.409,172.849 106.037,175.095 106.543"/><path stroke="none" d="M183.252 34.998C183.471 35.025,183.663 34.752,183.799 34.533C184.073 34.123,184.182 33.685,184.182 33.192C184.182 31.25,184.237 29.471,184.237 27.666C184.237 26.407,184.182 25.121,184.1 23.726L184.073 23.698C184.073 23.069,183.964 22.522,183.745 22.166C183.28 21.291,182.377 21.291,181.583 21.099C180.325 20.771,179.039 20.579,177.753 20.579C176.44 20.579,175.126 20.826,173.813 21.373C173.047 21.728,172.445 22.194,172.363 23.014L172.363 23.343C172.363 24.164,172.363 24.957,172.281 25.778C172.171 27.556,172.171 29.362,172.171 31.168C172.171 32.071,172.171 33.001,172.199 33.849C172.199 34.259,172.089 34.889,172.527 34.916C172.965 34.916,173.129 34.341,173.266 33.931C173.32 33.822,173.266 33.657,173.32 33.548C173.485 32.7,173.512 31.934,173.512 31.14C173.512 30.429,173.485 29.745,173.485 29.116C173.485 28.76,173.485 28.432,173.512 28.103L173.512 26.462C174.141 25.942,174.88 25.696,175.728 25.614C176.44 25.532,177.096 25.504,177.808 25.504C179.34 25.504,180.872 25.75,182.349 26.407L182.842 26.599L182.842 28.295C182.896 29.198,182.842 30.183,182.842 31.222C182.842 32.235,182.896 33.302,183.033 34.369C183.088 34.615,182.924 34.971,183.252 34.998"/></g></g><g class="vf-stavenote" id="vf-auto12956"><path stroke-width="1.4" fill="none" stroke="#444" d="M194.458 100L213.966 100"/><g class="vf-notehead" id="vf-auto12960" pointer-events="bounding-box"><path stroke="none" d="M201.103 106.543C201.384 106.599,201.636 106.627,201.917 106.627C205.792 106.627,211.577 101.348,211.464 97.08C211.352 96.041,211.38 94.609,209.274 93.766C208.685 93.485,208.039 93.373,207.337 93.373C203.012 93.373,198.323 98.343,197.986 101.657C197.986 101.909,197.958 102.134,197.958 102.387C197.958 104.409,198.857 106.037,201.103 106.543"/><path stroke="none" d="M209.26 36.702C209.479 36.729,209.67 36.455,209.807 36.236C210.081 35.826,210.19 35.388,210.19 34.896C210.19 32.953,210.245 31.175,210.245 29.369C210.245 28.111,210.19 26.825,210.108 25.429L210.081 25.402C210.081 24.773,209.971 24.225,209.752 23.87C209.287 22.994,208.384 22.994,207.591 22.803C206.332 22.474,205.046 22.283,203.761 22.283C202.447 22.283,201.134 22.529,199.821 23.076C199.055 23.432,198.453 23.897,198.371 24.718L198.371 25.046C198.371 25.867,198.371 26.66,198.289 27.481C198.179 29.26,198.179 31.065,198.179 32.871C198.179 33.774,198.179 34.704,198.206 35.552C198.206 35.963,198.097 36.592,198.535 36.62C198.973 36.62,199.137 36.045,199.274 35.635C199.328 35.525,199.274 35.361,199.328 35.252C199.492 34.403,199.52 33.637,199.52 32.844C199.52 32.132,199.492 31.448,199.492 30.819C199.492 30.464,199.492 30.135,199.52 29.807L199.52 28.165C200.149 27.645,200.888 27.399,201.736 27.317C202.447 27.235,203.104 27.208,203.815 27.208C205.347 27.208,206.88 27.454,208.357 28.111L208.85 28.302L208.85 29.998C208.904 30.901,208.85 31.886,208.85 32.926C208.85 33.938,208.904 35.005,209.041 36.072C209.096 36.319,208.932 36.674,209.26 36.702"/></g></g><g class="vf-stavenote" id="vf-auto12965"><g class="vf-notehead" id="vf-auto12969" pointer-events="bounding-box"><path stroke="none" d="M226.611 61.543C226.891 61.599,227.144 61.627,227.425 61.627C231.3 61.627,237.085 56.348,236.972 52.08C236.86 51.041,236.888 49.609,234.782 48.766C234.192 48.485,233.546 48.373,232.844 48.373C228.52 48.373,223.831 53.343,223.494 56.657C223.494 56.909,223.466 57.134,223.466 57.387C223.466 59.409,224.364 61.037,226.611 61.543"/><path stroke="none" d="M222.559 132.832L222.586 132.832C223.106 132.832,223.544 132.695,223.982 132.531C226.444 131.655,228.77 130.397,231.342 129.768C233.038 129.33,234.406 128.263,236.102 127.798C237.087 127.551,237.963 126.813,238.482 125.746C238.565 125.581,238.592 125.472,238.592 125.363C238.592 125.171,238.482 125.007,238.209 124.897C237.142 124.296,236.02 123.776,234.898 123.338C232.08 122.326,229.372 121.231,226.663 120.109C226.444 120.027,226.253 120,226.116 120C225.815 120,225.596 120.109,225.268 120.356C224.474 121.012,223.982 121.943,223.298 122.709C223.161 122.928,223.079 123.064,223.079 123.201C223.079 123.42,223.27 123.612,223.708 123.748C226.389 124.679,229.016 125.718,231.697 126.703C230.11 127.278,228.66 128.208,227.101 128.618C225.131 129.22,223.298 130.014,222.203 131.847C222.094 132.093,221.848 132.257,221.848 132.476L221.848 132.613C221.93 132.804,222.121 132.832,222.285 132.832"/></g></g><g class="vf-stavenote" id="vf-auto12974"><g class="vf-notehead" id="vf-auto12978" pointer-events="bounding-box"><path stroke="none" d="M250.517 66.543C250.798 66.599,251.051 66.627,251.332 66.627C255.207 66.627,260.991 61.348,260.879 57.08C260.766 56.041,260.795 54.609,258.689 53.766C258.099 53.485,257.453 53.373,256.751 53.373C252.427 53.373,247.737 58.343,247.4 61.657C247.4 61.909,247.372 62.134,247.372 62.387C247.372 64.409,248.271 66.037,250.517 66.543"/><path stroke="none" d="M246.466 131.637L246.493 131.637C247.013 131.637,247.45 131.5,247.888 131.336C250.351 130.46,252.676 129.201,255.248 128.572C256.944 128.134,258.312 127.067,260.009 126.602C260.994 126.356,261.869 125.617,262.389 124.55C262.471 124.386,262.498 124.277,262.498 124.167C262.498 123.976,262.389 123.812,262.115 123.702C261.048 123.1,259.927 122.58,258.805 122.143C255.987 121.13,253.278 120.036,250.57 118.914C250.351 118.832,250.159 118.805,250.022 118.805C249.721 118.805,249.502 118.914,249.174 119.16C248.381 119.817,247.888 120.747,247.204 121.513C247.067 121.732,246.985 121.869,246.985 122.006C246.985 122.225,247.177 122.416,247.615 122.553C250.296 123.483,252.922 124.523,255.604 125.508C254.017 126.082,252.567 127.013,251.007 127.423C249.037 128.025,247.204 128.818,246.11 130.652C246 130.898,245.754 131.062,245.754 131.281L245.754 131.418C245.836 131.609,246.028 131.637,246.192 131.637"/></g></g><g class="vf-stavenote" id="vf-auto12983"><g class="vf-notehead" id="vf-auto12987" pointer-events="bounding-box"><path stroke="none" d="M279.617 61.543C279.897 61.599,280.15 61.627,280.431 61.627C284.306 61.627,290.09 56.348,289.978 52.08C289.866 51.041,289.894 49.609,287.788 48.766C287.198 48.485,286.552 48.373,285.85 48.373C281.526 48.373,276.837 53.343,276.5 56.657C276.5 56.909,276.472 57.134,276.472 57.387C276.472 59.409,277.37 61.037,279.617 61.543"/><path stroke="none" d="M275.565 130.182L275.592 130.182C276.112 130.182,276.55 130.045,276.988 129.881C279.45 129.005,281.776 127.747,284.347 127.117C286.044 126.679,287.412 125.612,289.108 125.147C290.093 124.901,290.969 124.162,291.488 123.095C291.57 122.931,291.598 122.822,291.598 122.712C291.598 122.521,291.488 122.357,291.215 122.247C290.148 121.645,289.026 121.125,287.904 120.688C285.086 119.675,282.378 118.581,279.669 117.459C279.45 117.377,279.258 117.35,279.122 117.35C278.821 117.35,278.602 117.459,278.274 117.705C277.48 118.362,276.988 119.292,276.304 120.058C276.167 120.277,276.085 120.414,276.085 120.551C276.085 120.77,276.276 120.961,276.714 121.098C279.395 122.028,282.022 123.068,284.703 124.053C283.116 124.627,281.666 125.558,280.107 125.968C278.137 126.57,276.304 127.363,275.209 129.197C275.1 129.443,274.854 129.607,274.854 129.826L274.854 129.963C274.936 130.154,275.127 130.182,275.291 130.182"/></g></g><g class="vf-stavenote" id="vf-auto12992"><g class="vf-notehead" id="vf-auto12998" pointer-events="bounding-box"><path stroke="none" d="M316.045 71.543C316.326 71.599,316.579 71.627,316.86 71.627C320.735 71.627,326.519 66.348,326.407 62.08C326.295 61.041,326.323 59.609,324.217 58.766C323.627 58.485,322.981 58.373,322.279 58.373C317.955 58.373,313.265 63.343,312.928 66.657C312.928 66.909,312.9 67.134,312.9 67.387C312.9 69.409,313.799 71.037,316.045 71.543"/><path stroke="none" d="M311.994 128.36L312.021 128.36C312.541 128.36,312.979 128.223,313.416 128.059C315.879 127.184,318.204 125.925,320.776 125.296C322.473 124.858,323.841 123.791,325.537 123.326C326.522 123.08,327.397 122.341,327.917 121.274C327.999 121.11,328.027 121,328.027 120.891C328.027 120.699,327.917 120.535,327.644 120.426C326.577 119.824,325.455 119.304,324.333 118.866C321.515 117.854,318.806 116.759,316.098 115.638C315.879 115.556,315.687 115.528,315.55 115.528C315.249 115.528,315.031 115.638,314.702 115.884C313.909 116.541,313.416 117.471,312.732 118.237C312.596 118.456,312.513 118.593,312.513 118.729C312.513 118.948,312.705 119.14,313.143 119.277C315.824 120.207,318.451 121.247,321.132 122.231C319.545 122.806,318.095 123.736,316.535 124.147C314.565 124.749,312.732 125.542,311.638 127.375C311.529 127.621,311.282 127.786,311.282 128.004L311.282 128.141C311.364 128.333,311.556 128.36,311.72 128.36"/></g><g class="vf-notehead" id="vf-auto12997" pointer-events="bounding-box"><path stroke="none" d="M316.045 51.543C316.326 51.599,316.579 51.627,316.86 51.627C320.735 51.627,326.519 46.348,326.407 42.08C326.295 41.041,326.323 39.609,324.217 38.766C323.627 38.485,322.981 38.373,322.279 38.373C317.955 38.373,313.265 43.343,312.928 46.657C312.928 46.909,312.9 47.134,312.9 47.387C312.9 49.409,313.799 51.037,316.045 51.543"/></g></g><g class="vf-stavenote" id="vf-auto13003"><g class="vf-notehead" id="vf-auto13007" pointer-events="bounding-box"><path stroke="none" d="M342.053 71.543C342.334 71.599,342.587 71.627,342.867 71.627C346.742 71.627,352.527 66.348,352.415 62.08C352.302 61.041,352.33 59.609,350.224 58.766C349.635 58.485,348.989 58.373,348.287 58.373C343.963 58.373,339.273 63.343,338.936 66.657C338.936 66.909,338.908 67.134,338.908 67.387C338.908 69.409,339.807 71.037,342.053 71.543"/><path stroke="none" d="M338.001 127.832L338.029 127.832C338.549 127.832,338.986 127.695,339.424 127.531C341.887 126.655,344.212 125.397,346.784 124.768C348.48 124.33,349.848 123.263,351.545 122.798C352.53 122.551,353.405 121.813,353.925 120.746C354.007 120.581,354.034 120.472,354.034 120.363C354.034 120.171,353.925 120.007,353.651 119.897C352.584 119.296,351.463 118.776,350.341 118.338C347.523 117.326,344.814 116.231,342.105 115.109C341.887 115.027,341.695 115,341.558 115C341.257 115,341.038 115.109,340.71 115.356C339.917 116.012,339.424 116.943,338.74 117.709C338.603 117.928,338.521 118.064,338.521 118.201C338.521 118.42,338.713 118.612,339.151 118.748C341.832 119.679,344.458 120.718,347.14 121.703C345.553 122.278,344.103 123.208,342.543 123.618C340.573 124.22,338.74 125.014,337.646 126.847C337.536 127.093,337.29 127.257,337.29 127.476L337.29 127.613C337.372 127.804,337.564 127.832,337.728 127.832"/></g></g><g class="vf-stavenote" id="vf-auto13012"><g class="vf-notehead" id="vf-auto13016" pointer-events="bounding-box"><path stroke="none" d="M368.061 71.543C368.342 71.599,368.594 71.627,368.875 71.627C372.75 71.627,378.535 66.348,378.422 62.08C378.31 61.041,378.338 59.609,376.232 58.766C375.642 58.485,374.997 58.373,374.295 58.373C369.97 58.373,365.281 63.343,364.944 66.657C364.944 66.909,364.916 67.134,364.916 67.387C364.916 69.409,365.814 71.037,368.061 71.543"/><path stroke="none" d="M364.009 127.832L364.037 127.832C364.556 127.832,364.994 127.695,365.432 127.531C367.894 126.655,370.22 125.397,372.792 124.768C374.488 124.33,375.856 123.263,377.552 122.798C378.537 122.551,379.413 121.813,379.933 120.746C380.015 120.581,380.042 120.472,380.042 120.363C380.042 120.171,379.933 120.007,379.659 119.897C378.592 119.296,377.47 118.776,376.349 118.338C373.53 117.326,370.822 116.231,368.113 115.109C367.894 115.027,367.703 115,367.566 115C367.265 115,367.046 115.109,366.718 115.356C365.924 116.012,365.432 116.943,364.748 117.709C364.611 117.928,364.529 118.064,364.529 118.201C364.529 118.42,364.721 118.612,365.158 118.748C367.84 119.679,370.466 120.718,373.147 121.703C371.561 122.278,370.11 123.208,368.551 123.618C366.581 124.22,364.748 125.014,363.653 126.847C363.544 127.093,363.298 127.257,363.298 127.476L363.298 127.613C363.38 127.804,363.571 127.832,363.736 127.832"/></g></g><g class="vf-stavenote" id="vf-auto13021"><g class="vf-notehead" id="vf-auto13025" pointer-events="bounding-box"><path stroke="none" d="M394.069 71.543C394.349 71.599,394.602 71.627,394.883 71.627C398.758 71.627,404.542 66.348,404.43 62.08C404.318 61.041,404.346 59.609,402.24 58.766C401.65 58.485,401.004 58.373,400.302 58.373C395.978 58.373,391.289 63.343,390.952 66.657C390.952 66.909,390.924 67.134,390.924 67.387C390.924 69.409,391.822 71.037,394.069 71.543"/><path stroke="none" d="M390.017 127.832L390.044 127.832C390.564 127.832,391.002 127.695,391.44 127.531C393.902 126.655,396.228 125.397,398.799 124.768C400.496 124.33,401.864 123.263,403.56 122.798C404.545 122.551,405.421 121.813,405.94 120.746C406.023 120.581,406.05 120.472,406.05 120.363C406.05 120.171,405.94 120.007,405.667 119.897C404.6 119.296,403.478 118.776,402.356 118.338C399.538 117.326,396.83 116.231,394.121 115.109C393.902 115.027,393.711 115,393.574 115C393.273 115,393.054 115.109,392.726 115.356C391.932 116.012,391.44 116.943,390.756 117.709C390.619 117.928,390.537 118.064,390.537 118.201C390.537 118.42,390.728 118.612,391.166 118.748C393.847 119.679,396.474 120.718,399.155 121.703C397.568 122.278,396.118 123.208,394.559 123.618C392.589 124.22,390.756 125.014,389.661 126.847C389.552 127.093,389.306 127.257,389.306 127.476L389.306 127.613C389.388 127.804,389.579 127.832,389.743 127.832"/></g></g><g class="vf-stavenote" id="vf-auto13030"><g class="vf-notehead" id="vf-auto13034" pointer-events="bounding-box"><path stroke="none" d="M33.645 216.543C33.926 216.599,34.178 216.627,34.459 216.627C38.334 216.627,44.119 211.348,44.006 207.08C43.894 206.041,43.922 204.609,41.816 203.766C41.227 203.485,40.581 203.373,39.879 203.373C35.554 203.373,30.865 208.343,30.528 211.657C30.528 211.909,30.5 212.134,30.5 212.387C30.5 214.409,31.399 216.037,33.645 216.543"/><path stroke="none" d="M41.802 144.998C42.021 145.025,42.212 144.752,42.349 144.533C42.623 144.123,42.732 143.685,42.732 143.192C42.732 141.25,42.787 139.471,42.787 137.666C42.787 136.407,42.732 135.121,42.65 133.726L42.623 133.698C42.623 133.069,42.513 132.522,42.294 132.166C41.829 131.291,40.926 131.291,40.133 131.099C38.874 130.771,37.589 130.579,36.303 130.579C34.989 130.579,33.676 130.826,32.363 131.373C31.597 131.728,30.995 132.194,30.913 133.014L30.913 133.343C30.913 134.164,30.913 134.957,30.831 135.778C30.721 137.556,30.721 139.362,30.721 141.168C30.721 142.071,30.721 143.001,30.749 143.849C30.749 144.259,30.639 144.889,31.077 144.916C31.515 144.916,31.679 144.341,31.816 143.931C31.87 143.822,31.816 143.657,31.87 143.548C32.034 142.7,32.062 141.934,32.062 141.14C32.062 140.429,32.034 139.745,32.034 139.116C32.034 138.76,32.034 138.432,32.062 138.103L32.062 136.462C32.691 135.942,33.43 135.696,34.278 135.614C34.989 135.532,35.646 135.504,36.357 135.504C37.889 135.504,39.422 135.75,40.899 136.407L41.392 136.599L41.392 138.295C41.446 139.198,41.392 140.183,41.392 141.222C41.392 142.235,41.446 143.302,41.583 144.369C41.638 144.615,41.474 144.971,41.802 144.998"/></g></g><g class="vf-stavenote" id="vf-auto13039"><g class="vf-notehead" id="vf-auto13043" pointer-events="bounding-box"><path stroke="none" d="M57.552 221.543C57.832 221.599,58.085 221.627,58.366 221.627C62.241 221.627,68.025 216.348,67.913 212.08C67.801 211.041,67.829 209.609,65.723 208.766C65.133 208.485,64.487 208.373,63.785 208.373C59.461 208.373,54.772 213.343,54.435 216.657C54.435 216.909,54.407 217.134,54.407 217.387C54.407 219.409,55.305 221.037,57.552 221.543"/><path stroke="none" d="M65.709 145.169C65.927 145.196,66.119 144.923,66.256 144.704C66.529 144.293,66.639 143.856,66.639 143.363C66.639 141.421,66.694 139.642,66.694 137.836C66.694 136.578,66.639 135.292,66.557 133.897L66.529 133.869C66.529 133.24,66.42 132.693,66.201 132.337C65.736 131.462,64.833 131.462,64.04 131.27C62.781 130.942,61.495 130.75,60.209 130.75C58.896 130.75,57.583 130.996,56.269 131.544C55.503 131.899,54.901 132.364,54.819 133.185L54.819 133.514C54.819 134.334,54.819 135.128,54.737 135.949C54.628 137.727,54.628 139.533,54.628 141.338C54.628 142.241,54.628 143.172,54.655 144.02C54.655 144.43,54.546 145.059,54.983 145.087C55.421 145.087,55.585 144.512,55.722 144.102C55.777 143.992,55.722 143.828,55.777 143.719C55.941 142.871,55.968 142.105,55.968 141.311C55.968 140.6,55.941 139.916,55.941 139.286C55.941 138.931,55.941 138.602,55.968 138.274L55.968 136.633C56.598 136.113,57.336 135.866,58.185 135.784C58.896 135.702,59.553 135.675,60.264 135.675C61.796 135.675,63.328 135.921,64.806 136.578L65.298 136.769L65.298 138.466C65.353 139.369,65.298 140.354,65.298 141.393C65.298 142.406,65.353 143.473,65.49 144.54C65.544 144.786,65.38 145.142,65.709 145.169"/></g></g><g class="vf-stavenote" id="vf-auto13048"><g class="vf-notehead" id="vf-auto13052" pointer-events="bounding-box"><path stroke="none" d="M86.651 216.543C86.932 216.599,87.184 216.627,87.465 216.627C91.34 216.627,97.125 211.348,97.012 207.08C96.9 206.041,96.928 204.609,94.822 203.766C94.232 203.485,93.587 203.373,92.885 203.373C88.56 203.373,83.871 208.343,83.534 211.657C83.534 211.909,83.506 212.134,83.506 212.387C83.506 214.409,84.404 216.037,86.651 216.543"/><path stroke="none" d="M94.808 149.534C95.027 149.561,95.218 149.288,95.355 149.069C95.629 148.658,95.738 148.221,95.738 147.728C95.738 145.785,95.793 144.007,95.793 142.201C95.793 140.943,95.738 139.657,95.656 138.261L95.629 138.234C95.629 137.605,95.519 137.058,95.3 136.702C94.835 135.826,93.932 135.826,93.139 135.635C91.88 135.307,90.594 135.115,89.309 135.115C87.995 135.115,86.682 135.361,85.369 135.909C84.603 136.264,84.001 136.729,83.919 137.55L83.919 137.878C83.919 138.699,83.919 139.493,83.837 140.313C83.727 142.092,83.727 143.898,83.727 145.703C83.727 146.606,83.727 147.537,83.754 148.385C83.754 148.795,83.645 149.424,84.083 149.452C84.521 149.452,84.685 148.877,84.822 148.467C84.876 148.357,84.822 148.193,84.876 148.084C85.04 147.236,85.068 146.469,85.068 145.676C85.068 144.965,85.04 144.281,85.04 143.651C85.04 143.296,85.04 142.967,85.068 142.639L85.068 140.997C85.697 140.478,86.436 140.231,87.284 140.149C87.995 140.067,88.652 140.04,89.363 140.04C90.895 140.04,92.428 140.286,93.905 140.943L94.398 141.134L94.398 142.831C94.452 143.733,94.398 144.718,94.398 145.758C94.398 146.77,94.452 147.837,94.589 148.905C94.644 149.151,94.48 149.506,94.808 149.534"/></g></g><g class="vf-stavenote" id="vf-auto13057"><path stroke-width="1.4" fill="none" stroke="#444" d="M116.435 220L135.943 220"/><g class="vf-notehead" id="vf-auto13062" pointer-events="bounding-box"><path stroke="none" d="M123.08 226.543C123.36 226.599,123.613 226.627,123.894 226.627C127.769 226.627,133.553 221.348,133.441 217.08C133.329 216.041,133.357 214.609,131.251 213.766C130.661 213.485,130.015 213.373,129.313 213.373C124.989 213.373,120.3 218.343,119.963 221.657C119.963 221.909,119.935 222.134,119.935 222.387C119.935 224.409,120.833 226.037,123.08 226.543"/><path stroke="none" d="M131.237 149.998C131.456 150.025,131.647 149.752,131.784 149.533C132.057 149.123,132.167 148.685,132.167 148.192C132.167 146.25,132.222 144.471,132.222 142.666C132.222 141.407,132.167 140.121,132.085 138.726L132.057 138.698C132.057 138.069,131.948 137.522,131.729 137.166C131.264 136.291,130.361 136.291,129.568 136.099C128.309 135.771,127.023 135.579,125.737 135.579C124.424 135.579,123.111 135.826,121.797 136.373C121.031 136.728,120.429 137.194,120.347 138.014L120.347 138.343C120.347 139.164,120.347 139.957,120.265 140.778C120.156 142.556,120.156 144.362,120.156 146.168C120.156 147.071,120.156 148.001,120.183 148.849C120.183 149.259,120.074 149.889,120.512 149.916C120.949 149.916,121.113 149.341,121.25 148.931C121.305 148.822,121.25 148.657,121.305 148.548C121.469 147.7,121.496 146.934,121.496 146.14C121.496 145.429,121.469 144.745,121.469 144.116C121.469 143.76,121.469 143.432,121.496 143.103L121.496 141.462C122.126 140.942,122.864 140.696,123.713 140.614C124.424 140.532,125.081 140.504,125.792 140.504C127.324 140.504,128.856 140.75,130.334 141.407L130.826 141.599L130.826 143.295C130.881 144.198,130.826 145.183,130.826 146.222C130.826 147.235,130.881 148.302,131.018 149.369C131.072 149.615,130.908 149.971,131.237 149.998"/></g><g class="vf-notehead" id="vf-auto13063" pointer-events="bounding-box"><path stroke="none" d="M123.08 206.543C123.36 206.599,123.613 206.627,123.894 206.627C127.769 206.627,133.553 201.348,133.441 197.08C133.329 196.041,133.357 194.609,131.251 193.766C130.661 193.485,130.015 193.373,129.313 193.373C124.989 193.373,120.3 198.343,119.963 201.657C119.963 201.909,119.935 202.134,119.935 202.387C119.935 204.409,120.833 206.037,123.08 206.543"/></g></g><g class="vf-stavenote" id="vf-auto13068"><path stroke-width="1.4" fill="none" stroke="#444" d="M142.442 220L161.951 220"/><g class="vf-notehead" id="vf-auto13072" pointer-events="bounding-box"><path stroke="none" d="M149.087 226.543C149.368 226.599,149.621 226.627,149.902 226.627C153.777 226.627,159.561 221.348,159.449 217.08C159.337 216.041,159.365 214.609,157.259 213.766C156.669 213.485,156.023 213.373,155.321 213.373C150.997 213.373,146.307 218.343,145.971 221.657C145.971 221.909,145.942 222.134,145.942 222.387C145.942 224.409,146.841 226.037,149.087 226.543"/><path stroke="none" d="M157.244 153.899C157.463 153.927,157.655 153.653,157.792 153.434C158.065 153.024,158.175 152.586,158.175 152.094C158.175 150.151,158.229 148.373,158.229 146.567C158.229 145.308,158.175 144.022,158.093 142.627L158.065 142.6C158.065 141.97,157.956 141.423,157.737 141.067C157.272 140.192,156.369 140.192,155.575 140C154.317 139.672,153.031 139.481,151.745 139.481C150.432 139.481,149.118 139.727,147.805 140.274C147.039 140.63,146.437 141.095,146.355 141.916L146.355 142.244C146.355 143.065,146.355 143.858,146.273 144.679C146.164 146.457,146.164 148.263,146.164 150.069C146.164 150.972,146.164 151.902,146.191 152.75C146.191 153.161,146.082 153.79,146.519 153.817C146.957 153.817,147.121 153.243,147.258 152.832C147.313 152.723,147.258 152.559,147.313 152.449C147.477 151.601,147.504 150.835,147.504 150.042C147.504 149.33,147.477 148.646,147.477 148.017C147.477 147.661,147.477 147.333,147.504 147.005L147.504 145.363C148.134 144.843,148.872 144.597,149.72 144.515C150.432 144.433,151.088 144.405,151.8 144.405C153.332 144.405,154.864 144.652,156.342 145.308L156.834 145.5L156.834 147.196C156.889 148.099,156.834 149.084,156.834 150.124C156.834 151.136,156.889 152.203,157.026 153.27C157.08 153.516,156.916 153.872,157.244 153.899"/></g></g><g class="vf-stavenote" id="vf-auto13077"><path stroke-width="1.4" fill="none" stroke="#444" d="M168.45 220L187.958 220"/><g class="vf-notehead" id="vf-auto13081" pointer-events="bounding-box"><path stroke="none" d="M175.095 226.543C175.376 226.599,175.629 226.627,175.909 226.627C179.785 226.627,185.569 221.348,185.457 217.08C185.344 216.041,185.372 214.609,183.266 213.766C182.677 213.485,182.031 213.373,181.329 213.373C177.005 213.373,172.315 218.343,171.978 221.657C171.978 221.909,171.95 222.134,171.95 222.387C171.95 224.409,172.849 226.037,175.095 226.543"/><path stroke="none" d="M183.252 154.998C183.471 155.025,183.663 154.752,183.799 154.533C184.073 154.123,184.182 153.685,184.182 153.192C184.182 151.25,184.237 149.471,184.237 147.666C184.237 146.407,184.182 145.121,184.1 143.726L184.073 143.698C184.073 143.069,183.964 142.522,183.745 142.166C183.28 141.291,182.377 141.291,181.583 141.099C180.325 140.771,179.039 140.579,177.753 140.579C176.44 140.579,175.126 140.826,173.813 141.373C173.047 141.728,172.445 142.194,172.363 143.014L172.363 143.343C172.363 144.164,172.363 144.957,172.281 145.778C172.171 147.556,172.171 149.362,172.171 151.168C172.171 152.071,172.171 153.001,172.199 153.849C172.199 154.259,172.089 154.889,172.527 154.916C172.965 154.916,173.129 154.341,173.266 153.931C173.32 153.822,173.266 153.657,173.32 153.548C173.485 152.7,173.512 151.934,173.512 151.14C173.512 150.429,173.485 149.745,173.485 149.116C173.485 148.76,173.485 148.432,173.512 148.103L173.512 146.462C174.141 145.942,174.88 145.696,175.728 145.614C176.44 145.532,177.096 145.504,177.808 145.504C179.34 145.504,180.872 145.75,182.349 146.407L182.842 146.599L182.842 148.295C182.896 149.198,182.842 150.183,182.842 151.222C182.842 152.235,182.896 153.302,183.033 154.369C183.088 154.615,182.924 154.971,183.252 154.998"/></g></g><g class="vf-stavenote" id="vf-auto13086"><path stroke-width="1.4" fill="none" stroke="#444" d="M194.458 220L213.966 220"/><g class="vf-notehead" id="vf-auto13090" pointer-events="bounding-box"><path stroke="none" d="M201.103 226.543C201.384 226.599,201.636 226.627,201.917 226.627C205.792 226.627,211.577 221.348,211.464 217.08C211.352 216.041,211.38 214.609,209.274 213.766C208.685 213.485,208.039 213.373,207.337 213.373C203.012 213.373,198.323 218.343,197.986 221.657C197.986 221.909,197.958 222.134,197.958 222.387C197.958 224.409,198.857 226.037,201.103 226.543"/><path stroke="none" d="M209.26 156.702C209.479 156.729,209.67 156.455,209.807 156.236C210.081 155.826,210.19 155.388,210.19 154.896C210.19 152.953,210.245 151.175,210.245 149.369C210.245 148.111,210.19 146.825,210.108 145.429L210.081 145.402C210.081 144.773,209.971 144.225,209.752 143.87C209.287 142.994,208.384 142.994,207.591 142.803C206.332 142.474,205.046 142.283,203.761 142.283C202.447 142.283,201.134 142.529,199.821 143.076C199.055 143.432,198.453 143.897,198.371 144.718L198.371 145.046C198.371 145.867,198.371 146.66,198.289 147.481C198.179 149.26,198.179 151.065,198.179 152.871C198.179 153.774,198.179 154.704,198.206 155.552C198.206 155.963,198.097 156.592,198.535 156.62C198.973 156.62,199.137 156.045,199.274 155.635C199.328 155.525,199.274 155.361,199.328 155.252C199.492 154.403,199.52 153.637,199.52 152.844C199.52 152.132,199.492 151.448,199.492 150.819C199.492 150.464,199.492 150.135,199.52 149.807L199.52 148.165C200.149 147.645,200.888 147.399,201.736 147.317C202.447 147.235,203.104 147.208,203.815 147.208C205.347 147.208,206.88 147.454,208.357 148.111L208.85 148.302L208.85 149.998C208.904 150.901,208.85 151.886,208.85 152.926C208.85 153.938,208.904 155.005,209.041 156.072C209.096 156.319,208.932 156.674,209.26 156.702"/></g></g><g class="vf-stavenote" id="vf-auto13095"><g class="vf-notehead" id="vf-auto13099" pointer-events="bounding-box"><path stroke="none" d="M226.611 181.543C226.891 181.599,227.144 181.627,227.425 181.627C231.3 181.627,237.085 176.348,236.972 172.08C236.86 171.041,236.888 169.609,234.782 168.766C234.192 168.485,233.546 168.373,232.844 168.373C228.52 168.373,223.831 173.343,223.494 176.657C223.494 176.909,223.466 177.134,223.466 177.387C223.466 179.409,224.364 181.037,226.611 181.543"/><path stroke="none" d="M222.559 252.832L222.586 252.832C223.106 252.832,223.544 252.695,223.982 252.531C226.444 251.655,228.77 250.397,231.342 249.768C233.038 249.33,234.406 248.263,236.102 247.798C237.087 247.551,237.963 246.813,238.482 245.746C238.565 245.581,238.592 245.472,238.592 245.363C238.592 245.171,238.482 245.007,238.209 244.897C237.142 244.296,236.02 243.776,234.898 243.338C232.08 242.326,229.372 241.231,226.663 240.109C226.444 240.027,226.253 240,226.116 240C225.815 240,225.596 240.109,225.268 240.356C224.474 241.012,223.982 241.943,223.298 242.709C223.161 242.928,223.079 243.064,223.079 243.201C223.079 243.42,223.27 243.612,223.708 243.748C226.389 244.679,229.016 245.718,231.697 246.703C230.11 247.278,228.66 248.208,227.101 248.618C225.131 249.22,223.298 250.014,222.203 251.847C222.094 252.093,221.848 252.257,221.848 252.476L221.848 252.613C221.93 252.804,222.121 252.832,222.285 252.832"/></g></g><g class="vf-stavenote" id="vf-auto13104"><g class="vf-notehead" id="vf-auto13108" pointer-events="bounding-box"><path stroke="none" d="M250.517 186.543C250.798 186.599,251.051 186.627,251.332 186.627C255.207 186.627,260.991 181.348,260.879 177.08C260.766 176.041,260.795 174.609,258.689 173.766C258.099 173.485,257.453 173.373,256.751 173.373C252.427 173.373,247.737 178.343,247.4 181.657C247.4 181.909,247.372 182.134,247.372 182.387C247.372 184.409,248.271 186.037,250.517 186.543"/><path stroke="none" d="M246.466 251.637L246.493 251.637C247.013 251.637,247.45 251.5,247.888 251.336C250.351 250.46,252.676 249.201,255.248 248.572C256.944 248.134,258.312 247.067,260.009 246.602C260.994 246.356,261.869 245.617,262.389 244.55C262.471 244.386,262.498 244.277,262.498 244.167C262.498 243.976,262.389 243.812,262.115 243.702C261.048 243.1,259.927 242.58,258.805 242.143C255.987 241.13,253.278 240.036,250.57 238.914C250.351 238.832,250.159 238.805,250.022 238.805C249.721 238.805,249.502 238.914,249.174 239.16C248.381 239.817,247.888 240.747,247.204 241.513C247.067 241.732,246.985 241.869,246.985 242.006C246.985 242.225,247.177 242.416,247.615 242.553C250.296 243.483,252.922 244.523,255.604 245.508C254.017 246.082,252.567 247.013,251.007 247.423C249.037 248.025,247.204 248.818,246.11 250.652C246 250.898,245.754 251.062,245.754 251.281L245.754 251.418C245.836 251.609,246.028 251.637,246.192 251.637"/></g></g><g class="vf-stavenote" id="vf-auto13113"><g class="vf-notehead" id="vf-auto13117" pointer-events="bounding-box"><path stroke="none" d="M279.617 181.543C279.897 181.599,280.15 181.627,280.431 181.627C284.306 181.627,290.09 176.348,289.978 172.08C289.866 171.041,289.894 169.609,287.788 168.766C287.198 168.485,286.552 168.373,285.85 168.373C281.526 168.373,276.837 173.343,276.5 176.657C276.5 176.909,276.472 177.134,276.472 177.387C276.472 179.409,277.37 181.037,279.617 181.543"/><path stroke="none" d="M275.565 250.182L275.592 250.182C276.112 250.182,276.55 250.045,276.988 249.881C279.45 249.005,281.776 247.747,284.347 247.117C286.044 246.679,287.412 245.612,289.108 245.147C290.093 244.901,290.969 244.162,291.488 243.095C291.57 242.931,291.598 242.822,291.598 242.712C291.598 242.521,291.488 242.357,291.215 242.247C290.148 241.645,289.026 241.125,287.904 240.688C285.086 239.675,282.378 238.581,279.669 237.459C279.45 237.377,279.258 237.35,279.122 237.35C278.821 237.35,278.602 237.459,278.274 237.705C277.48 238.362,276.988 239.292,276.304 240.058C276.167 240.277,276.085 240.414,276.085 240.551C276.085 240.77,276.276 240.961,276.714 241.098C279.395 242.028,282.022 243.068,284.703 244.053C283.116 244.627,281.666 245.558,280.107 245.968C278.137 246.57,276.304 247.363,275.209 249.197C275.1 249.443,274.854 249.607,274.854 249.826L274.854 249.963C274.936 250.154,275.127 250.182,275.291 250.182"/></g></g><g class="vf-stavenote" id="vf-auto13122"><g class="vf-notehead" id="vf-auto13128" pointer-events="bounding-box"><path stroke="none" d="M316.045 191.543C316.326 191.599,316.579 191.627,316.86 191.627C320.735 191.627,326.519 186.348,326.407 182.08C326.295 181.041,326.323 179.609,324.217 178.766C323.627 178.485,322.981 178.373,322.279 178.373C317.955 178.373,313.265 183.343,312.928 186.657C312.928 186.909,312.9 187.134,312.9 187.387C312.9 189.409,313.799 191.037,316.045 191.543"/><path stroke="none" d="M311.994 248.36L312.021 248.36C312.541 248.36,312.979 248.223,313.416 248.059C315.879 247.184,318.204 245.925,320.776 245.296C322.473 244.858,323.841 243.791,325.537 243.326C326.522 243.08,327.397 242.341,327.917 241.274C327.999 241.11,328.027 241,328.027 240.891C328.027 240.699,327.917 240.535,327.644 240.426C326.577 239.824,325.455 239.304,324.333 238.866C321.515 237.854,318.806 236.759,316.098 235.638C315.879 235.556,315.687 235.528,315.55 235.528C315.249 235.528,315.031 235.638,314.702 235.884C313.909 236.541,313.416 237.471,312.732 238.237C312.596 238.456,312.513 238.593,312.513 238.729C312.513 238.948,312.705 239.14,313.143 239.277C315.824 240.207,318.451 241.247,321.132 242.231C319.545 242.806,318.095 243.736,316.535 244.147C314.565 244.749,312.732 245.542,311.638 247.375C311.529 247.621,311.282 247.786,311.282 248.004L311.282 248.141C311.364 248.333,311.556 248.36,311.72 248.36"/></g><g class="vf-notehead" id="vf-auto13127" pointer-events="bounding-box"><path stroke="none" d="M316.045 171.543C316.326 171.599,316.579 171.627,316.86 171.627C320.735 171.627,326.519 166.348,326.407 162.08C326.295 161.041,326.323 159.609,324.217 158.766C323.627 158.485,322.981 158.373,322.279 158.373C317.955 158.373,313.265 163.343,312.928 166.657C312.928 166.909,312.9 167.134,312.9 167.387C312.9 169.409,313.799 171.037,316.045 171.543"/></g></g><g class="vf-stavenote" id="vf-auto13133"><g class="vf-notehead" id="vf-auto13137" pointer-events="bounding-box"><path stroke="none" d="M342.053 191.543C342.334 191.599,342.587 191.627,342.867 191.627C346.742 191.627,352.527 186.348,352.415 182.08C352.302 181.041,352.33 179.609,350.224 178.766C349.635 178.485,348.989 178.373,348.287 178.373C343.963 178.373,339.273 183.343,338.936 186.657C338.936 186.909,338.908 187.134,338.908 187.387C338.908 189.409,339.807 191.037,342.053 191.543"/><path stroke="none" d="M338.001 247.832L338.029 247.832C338.549 247.832,338.986 247.695,339.424 247.531C341.887 246.655,344.212 245.397,346.784 244.768C348.48 244.33,349.848 243.263,351.545 242.798C352.53 242.551,353.405 241.813,353.925 240.746C354.007 240.581,354.034 240.472,354.034 240.363C354.034 240.171,353.925 240.007,353.651 239.897C352.584 239.296,351.463 238.776,350.341 238.338C347.523 237.326,344.814 236.231,342.105 235.109C341.887 235.027,341.695 235,341.558 235C341.257 235,341.038 235.109,340.71 235.356C339.917 236.012,339.424 236.943,338.74 237.709C338.603 237.928,338.521 238.064,338.521 238.201C338.521 238.42,338.713 238.612,339.151 238.748C341.832 239.679,344.458 240.718,347.14 241.703C345.553 242.278,344.103 243.208,342.543 243.618C340.573 244.22,338.74 245.014,337.646 246.847C337.536 247.093,337.29 247.257,337.29 247.476L337.29 247.613C337.372 247.804,337.564 247.832,337.728 247.832"/></g></g><g class="vf-stavenote" id="vf-auto13142"><g class="vf-notehead" id="vf-auto13146" pointer-events="bounding-box"><path stroke="none" d="M368.061 191.543C368.342 191.599,368.594 191.627,368.875 191.627C372.75 191.627,378.535 186.348,378.422 182.08C378.31 181.041,378.338 179.609,376.232 178.766C375.642 178.485,374.997 178.373,374.295 178.373C369.97 178.373,365.281 183.343,364.944 186.657C364.944 186.909,364.916 187.134,364.916 187.387C364.916 189.409,365.814 191.037,368.061 191.543"/><path stroke="none" d="M364.009 247.832L364.037 247.832C364.556 247.832,364.994 247.695,365.432 247.531C367.894 246.655,370.22 245.397,372.792 244.768C374.488 244.33,375.856 243.263,377.552 242.798C378.537 242.551,379.413 241.813,379.933 240.746C380.015 240.581,380.042 240.472,380.042 240.363C380.042 240.171,379.933 240.007,379.659 239.897C378.592 239.296,377.47 238.776,376.349 238.338C373.53 237.326,370.822 236.231,368.113 235.109C367.894 235.027,367.703 235,367.566 235C367.265 235,367.046 235.109,366.718 235.356C365.924 236.012,365.432 236.943,364.748 237.709C364.611 237.928,364.529 238.064,364.529 238.201C364.529 238.42,364.721 238.612,365.158 238.748C367.84 239.679,370.466 240.718,373.147 241.703C371.561 242.278,370.11 243.208,368.551 243.618C366.581 244.22,364.748 245.014,363.653 246.847C363.544 247.093,363.298 247.257,363.298 247.476L363.298 247.613C363.38 247.804,363.571 247.832,363.736 247.832"/></g></g><g class="vf-stavenote" id="vf-auto13151"><g class="vf-notehead" id="vf-auto13155" pointer-events="bounding-box"><path stroke="none" d="M394.069 191.543C394.349 191.599,394.602 191.627,394.883 191.627C398.758 191.627,404.542 186.348,404.43 182.08C404.318 181.041,404.346 179.609,402.24 178.766C401.65 178.485,401.004 178.373,400.302 178.373C395.978 178.373,391.289 183.343,390.952 186.657C390.952 186.909,390.924 187.134,390.924 187.387C390.924 189.409,391.822 191.037,394.069 191.543"/><path stroke="none" d="M390.017 247.832L390.044 247.832C390.564 247.832,391.002 247.695,391.44 247.531C393.902 246.655,396.228 245.397,398.799 244.768C400.496 244.33,401.864 243.263,403.56 242.798C404.545 242.551,405.421 241.813,405.94 240.746C406.023 240.581,406.05 240.472,406.05 240.363C406.05 240.171,405.94 240.007,405.667 239.897C404.6 239.296,403.478 238.776,402.356 238.338C399.538 237.326,396.83 236.231,394.121 235.109C393.902 235.027,393.711 235,393.574 235C393.273 235,393.054 235.109,392.726 235.356C391.932 236.012,391.44 236.943,390.756 237.709C390.619 237.928,390.537 238.064,390.537 238.201C390.537 238.42,390.728 238.612,391.166 238.748C393.847 239.679,396.474 240.718,399.155 241.703C397.568 242.278,396.118 243.208,394.559 243.618C392.589 244.22,390.756 245.014,389.661 246.847C389.552 247.093,389.306 247.257,389.306 247.476L389.306 247.613C389.388 247.804,389.579 247.832,389.743 247.832"/></g></g><g class="vf-stem" id="vf-auto12901" pointer-events="bounding-box"><path stroke-width="1.5" fill="none" d="M42.758 88L42.758 31.542"/></g><g class="vf-stem" id="vf-auto12910" pointer-events="bounding-box"><path stroke-width="1.5" fill="none" d="M66.665 93L66.665 33.335"/></g><g class="vf-stem" id="vf-auto12919" pointer-events="bounding-box"><path stroke-width="1.5" fill="none" d="M95.764 88L95.764 35.518"/></g><g class="vf-stem" id="vf-auto12928" pointer-events="bounding-box"><path stroke-width="1.5" fill="none" d="M132.193 98L132.193 38.25"/></g><g class="vf-stem" id="vf-auto12939" pointer-events="bounding-box"><path stroke-width="1.5" fill="none" d="M158.201 98L158.201 40.201"/></g><g class="vf-stem" id="vf-auto12948" pointer-events="bounding-box"><path stroke-width="1.5" fill="none" d="M184.208 98L184.208 42.151"/></g><g class="vf-stem" id="vf-auto12957" pointer-events="bounding-box"><path stroke-width="1.5" fill="none" d="M210.216 98L210.216 44.102"/></g><g class="vf-beam" id="vf-auto13160"><path stroke="none" d="M42.008 30.736L42.008 35.736L210.466 48.295L210.466 43.295Z"/><path stroke="none" d="M42.008 38.236L42.008 43.236L66.915 45.029L66.915 40.029Z"/><path stroke="none" d="M131.443 44.944L131.443 49.944L210.466 55.795L210.466 50.795Z"/><path stroke="none" d="M42.008 45.736L42.008 50.736L53.008 51.486L53.008 46.486Z"/><path stroke="none" d="M131.443 52.444L131.443 57.444L210.466 63.295L210.466 58.295Z"/><path stroke="none" d="M42.008 53.236L42.008 58.236L53.008 58.986L53.008 53.986Z"/><path stroke="none" d="M42.008 60.736L42.008 65.736L53.008 66.486L53.008 61.486Z"/></g><g class="vf-stem" id="vf-auto12966" pointer-events="bounding-box"><path stroke-width="1.5" fill="none" d="M224.216 57L224.216 111.75"/></g><g class="vf-stem" id="vf-auto12975" pointer-events="bounding-box"><path stroke-width="1.5" fill="none" d="M248.122 62L248.122 111.152"/></g><g class="vf-stem" id="vf-auto12984" pointer-events="bounding-box"><path stroke-width="1.5" fill="none" d="M277.222 57L277.222 110.425"/></g><g class="vf-stem" id="vf-auto12993" pointer-events="bounding-box"><path stroke-width="1.5" fill="none" d="M313.65 47L313.65 109.514"/></g><g class="vf-stem" id="vf-auto13004" pointer-events="bounding-box"><path stroke-width="1.5" fill="none" d="M339.658 67L339.658 108.864"/></g><g class="vf-stem" id="vf-auto13013" pointer-events="bounding-box"><path stroke-width="1.5" fill="none" d="M365.666 67L365.666 108.214"/></g><g class="vf-stem" id="vf-auto13022" pointer-events="bounding-box"><path stroke-width="1.5" fill="none" d="M391.674 67L391.674 107.564"/></g><g class="vf-beam" id="vf-auto13161"><path stroke="none" d="M223.466 112.519L223.466 107.519L391.924 103.332L391.924 108.332Z"/><path stroke="none" d="M223.466 105.019L223.466 100.019L248.372 99.421L248.372 104.421Z"/><path stroke="none" d="M312.9 102.783L312.9 97.783L391.924 95.832L391.924 100.832Z"/><path stroke="none" d="M223.466 97.519L223.466 92.519L234.466 92.269L234.466 97.269Z"/><path stroke="none" d="M312.9 95.283L312.9 90.283L391.924 88.332L391.924 93.332Z"/><path stroke="none" d="M223.466 90.019L223.466 85.019L234.466 84.769L234.466 89.769Z"/><path stroke="none" d="M223.466 82.519L223.466 77.519L234.466 77.269L234.466 82.269Z"/></g><g class="vf-stem" id="vf-auto13031" pointer-events="bounding-box"><path stroke-width="1.5" fill="none" d="M42.758 208L42.758 151.542"/></g><g class="vf-stem" id="vf-auto13040" pointer-events="bounding-box"><path stroke-width="1.5" fill="none" d="M66.665 213L66.665 153.335"/></g><g class="vf-stem" id="vf-auto13049" pointer-events="bounding-box"><path stroke-width="1.5" fill="none" d="M95.764 208L95.764 155.518"/></g><g class="vf-stem" id="vf-auto13058" pointer-events="bounding-box"><path stroke-width="1.5" fill="none" d="M132.193 218L132.193 158.25"/></g><g class="vf-stem" id="vf-auto13069" pointer-events="bounding-box"><path stroke-width="1.5" fill="none" d="M158.201 218L158.201 160.201"/></g><g class="vf-stem" id="vf-auto13078" pointer-events="bounding-box"><path stroke-width="1.5" fill="none" d="M184.208 218L184.208 162.151"/></g><g class="vf-stem" id="vf-auto13087" pointer-events="bounding-box"><path stroke-width="1.5" fill="none" d="M210.216 218L210.216 164.102"/></g><g class="vf-beam" id="vf-auto13162"><path stroke="none" d="M42.008 150.736L42.008 155.736L210.466 168.295L210.466 163.295Z"/><path stroke="none" d="M42.008 158.236L42.008 163.236L66.915 165.029L66.915 160.029Z"/><path stroke="none" d="M131.443 164.944L131.443 169.944L210.466 175.795L210.466 170.795Z"/><path stroke="none" d="M42.008 165.736L42.008 170.736L53.008 171.486L53.008 166.486Z"/><path stroke="none" d="M131.443 172.444L131.443 177.444L210.466 183.295L210.466 178.295Z"/><path stroke="none" d="M42.008 173.236L42.008 178.236L53.008 178.986L53.008 173.986Z"/><path stroke="none" d="M42.008 180.736L42.008 185.736L53.008 186.486L53.008 181.486Z"/></g><g class="vf-stem" id="vf-auto13096" pointer-events="bounding-box"><path stroke-width="1.5" fill="none" d="M224.216 177L224.216 231.75"/></g><g class="vf-stem" id="vf-auto13105" pointer-events="bounding-box"><path stroke-width="1.5" fill="none" d="M248.122 182L248.122 231.152"/></g><g class="vf-stem" id="vf-auto13114" pointer-events="bounding-box"><path stroke-width="1.5" fill="none" d="M277.222 177L277.222 230.425"/></g><g class="vf-stem" id="vf-auto13123" pointer-events="bounding-box"><path stroke-width="1.5" fill="none" d="M313.65 167L313.65 229.514"/></g><g class="vf-stem" id="vf-auto13134" pointer-events="bounding-box"><path stroke-width="1.5" fill="none" d="M339.658 187L339.658 228.864"/></g><g class="vf-stem" id="vf-auto13143" pointer-events="bounding-box"><path stroke-width="1.5" fill="none" d="M365.666 187L365.666 228.214"/></g><g class="vf-stem" id="vf-auto13152" pointer-events="bounding-box"><path stroke-width="1.5" fill="none" d="M391.674 187L391.674 227.564"/></g><g class="vf-beam" id="vf-auto13163"><path stroke="none" d="M223.466 232.519L223.466 227.519L391.924 223.332L391.924 228.332Z"/><path stroke="none" d="M223.466 225.019L223.466 220.019L248.372 219.421L248.372 224.421Z"/><path stroke="none" d="M312.9 222.783L312.9 217.783L391.924 215.832L391.924 220.832Z"/><path stroke="none" d="M223.466 217.519L223.466 212.519L234.466 212.269L234.466 217.269Z"/><path stroke="none" d="M312.9 215.283L312.9 210.283L391.924 208.332L391.924 213.332Z"/><path stroke="none" d="M223.466 210.019L223.466 205.019L234.466 204.769L234.466 209.769Z"/><path stroke="none" d="M223.466 202.519L223.466 197.519L234.466 197.269L234.466 202.269Z"/></g></svg>