<svg xmlns="http://www.w3.org/2000/svg" stroke-width="0.3" stroke-dasharray="none" fill="black" stroke="black" font-family="Arial, sans-serif" font-size="10pt" font-weight="normal" font-style="normal" width="700" height="150" viewBox="0 0 700 150" style="width: 700px; height: 150px; border: none;"><g class="vf-stave" id="vf-auto19328" stroke-width="1" fill="#999999" stroke="#999999"><path fill="none" d="M0 40L690 40"/><path fill="none" d="M0 50L690 50"/><path fill="none" d="M0 60L690 60"/><path fill="none" d="M0 70L690 70"/><path fill="none" d="M0 80L690 80"/></g><g class="vf-stavebarline" id="vf-auto19329"><rect y="39.5" width="1" height="41" stroke="none"/></g><g class="vf-stavebarline" id="vf-auto19330"><rect x="690" y="39.5" width="1" height="41" stroke="none"/></g><g class="vf-keysignature" id="vf-auto19331"><path stroke="none" d="M5.793 68.208C5.903 68.208,6.067 68.126,6.259 67.907C6.778 67.497,7.353 67.059,7.928 66.648C11.375 64.186,13.235 60.821,13.235 56.525C13.235 55.978,13.235 55.458,13.153 54.911C12.962 52.996,11.867 51.874,10.198 51.874C9.843 51.874,9.46 51.956,9.022 52.093C8.475 52.23,7.928 52.503,7.353 52.75L7.326 52.777L7.326 51.765C7.326 50.26,7.408 48.782,7.49 47.278C7.49 46.402,7.572 45.581,7.572 44.706C7.572 43.885,7.49 43.009,7.298 42.189C7.216 41.915,7.216 41.395,6.806 41.395L6.778 41.395C6.341 41.45,6.012 41.806,6.012 42.353C5.985 43.447,5.876 44.596,5.903 45.691L5.903 46.922C5.903 49.248,5.793 51.573,5.711 53.899C5.602 57.237,5.027 60.52,5.027 63.858C5.027 65.171,5.109 66.539,5.465 67.852C5.547 68.071,5.629 68.208,5.793 68.208M6.86 62.873C6.943 61.86,6.97 60.793,7.079 59.672C7.161 58.824,7.216 57.948,7.216 57.072L7.353 57.018C8.119 56.689,8.858 56.306,9.679 56.306C9.952 56.306,10.28 56.388,10.581 56.498C11.238 56.717,11.539 57.045,11.512 57.483C11.512 57.702,11.457 57.948,11.293 58.276C10.28 60.274,8.612 61.614,6.86 62.873"/><path stroke="none" d="M15.001 53.208C15.111 53.208,15.275 53.126,15.467 52.907C15.986 52.497,16.561 52.059,17.136 51.648C20.583 49.186,22.443 45.821,22.443 41.525C22.443 40.978,22.443 40.458,22.361 39.911C22.17 37.996,21.075 36.874,19.406 36.874C19.051 36.874,18.668 36.956,18.23 37.093C17.683 37.23,17.136 37.503,16.561 37.75L16.534 37.777L16.534 36.765C16.534 35.26,16.616 33.782,16.698 32.278C16.698 31.402,16.78 30.581,16.78 29.706C16.78 28.885,16.698 28.009,16.506 27.189C16.424 26.915,16.424 26.395,16.014 26.395L15.986 26.395C15.549 26.45,15.22 26.806,15.22 27.353C15.193 28.447,15.084 29.596,15.111 30.691L15.111 31.922C15.111 34.248,15.001 36.573,14.919 38.899C14.81 42.237,14.235 45.52,14.235 48.858C14.235 50.171,14.317 51.539,14.673 52.852C14.755 53.071,14.837 53.208,15.001 53.208M16.068 47.873C16.151 46.86,16.178 45.793,16.287 44.672C16.369 43.824,16.424 42.948,16.424 42.072L16.561 42.018C17.327 41.689,18.066 41.306,18.887 41.306C19.16 41.306,19.488 41.388,19.789 41.498C20.446 41.717,20.747 42.045,20.72 42.483C20.72 42.702,20.665 42.948,20.501 43.276C19.488 45.274,17.82 46.614,16.068 47.873"/><path stroke="none" d="M24.209 73.208C24.319 73.208,24.483 73.126,24.675 72.907C25.194 72.497,25.769 72.059,26.344 71.648C29.791 69.186,31.651 65.821,31.651 61.525C31.651 60.978,31.651 60.458,31.569 59.911C31.378 57.996,30.283 56.874,28.614 56.874C28.259 56.874,27.876 56.956,27.438 57.093C26.891 57.23,26.344 57.503,25.769 57.75L25.742 57.777L25.742 56.765C25.742 55.26,25.824 53.782,25.906 52.278C25.906 51.402,25.988 50.581,25.988 49.706C25.988 48.885,25.906 48.009,25.714 47.189C25.632 46.915,25.632 46.395,25.222 46.395L25.194 46.395C24.757 46.45,24.428 46.806,24.428 47.353C24.401 48.447,24.292 49.596,24.319 50.691L24.319 51.922C24.319 54.248,24.209 56.573,24.127 58.899C24.018 62.237,23.443 65.52,23.443 68.858C23.443 70.171,23.525 71.539,23.881 72.852C23.963 73.071,24.045 73.208,24.209 73.208M25.276 67.873C25.359 66.86,25.386 65.793,25.495 64.672C25.577 63.824,25.632 62.948,25.632 62.072L25.769 62.018C26.535 61.689,27.274 61.306,28.095 61.306C28.368 61.306,28.696 61.388,28.997 61.498C29.654 61.717,29.955 62.045,29.928 62.483C29.928 62.702,29.873 62.948,29.709 63.276C28.696 65.274,27.028 66.614,25.276 67.873"/><path stroke="none" d="M33.417 58.208C33.527 58.208,33.691 58.126,33.883 57.907C34.402 57.497,34.977 57.059,35.552 56.648C38.999 54.186,40.859 50.821,40.859 46.525C40.859 45.978,40.859 45.458,40.777 44.911C40.586 42.996,39.491 41.874,37.822 41.874C37.467 41.874,37.084 41.956,36.646 42.093C36.099 42.23,35.552 42.503,34.977 42.75L34.95 42.777L34.95 41.765C34.95 40.26,35.032 38.782,35.114 37.278C35.114 36.402,35.196 35.581,35.196 34.706C35.196 33.885,35.114 33.009,34.922 32.189C34.84 31.915,34.84 31.395,34.43 31.395L34.402 31.395C33.965 31.45,33.636 31.806,33.636 32.353C33.609 33.447,33.5 34.596,33.527 35.691L33.527 36.922C33.527 39.248,33.417 41.573,33.335 43.899C33.226 47.237,32.651 50.52,32.651 53.858C32.651 55.171,32.733 56.539,33.089 57.852C33.171 58.071,33.253 58.208,33.417 58.208M34.484 52.873C34.567 51.86,34.594 50.793,34.703 49.672C34.785 48.824,34.84 47.948,34.84 47.072L34.977 47.018C35.743 46.689,36.482 46.306,37.303 46.306C37.576 46.306,37.904 46.388,38.205 46.498C38.862 46.717,39.163 47.045,39.136 47.483C39.136 47.702,39.081 47.948,38.917 48.276C37.904 50.274,36.236 51.614,34.484 52.873"/></g><g class="vf-stavenote" id="vf-auto19332"><path stroke-width="1.4" fill="none" stroke="#444" d="M53.832 90L73.34 90"/><g class="vf-stem" id="vf-auto19333" pointer-events="bounding-box"><path stroke-width="1.5" fill="none" d="M57.582 92L57.582 125"/></g><g class="vf-notehead" id="vf-auto19335" pointer-events="bounding-box"><path stroke="none" d="M59.977 96.543C60.258 96.599,60.51 96.627,60.791 96.627C64.666 96.627,70.451 91.348,70.338 87.08C70.226 86.041,70.254 84.609,68.148 83.766C67.559 83.485,66.913 83.373,66.211 83.373C61.886 83.373,57.197 88.343,56.86 91.657C56.86 91.909,56.832 92.134,56.832 92.387C56.832 94.409,57.731 96.037,59.977 96.543"/></g></g><g class="vf-stavenote" id="vf-auto19336"><g class="vf-stem" id="vf-auto19337" pointer-events="bounding-box"><path stroke-width="1.5" fill="none" d="M138.623 87L138.623 120"/></g><g class="vf-notehead" id="vf-auto19339" pointer-events="bounding-box"><path stroke="none" d="M141.018 91.543C141.299 91.599,141.551 91.627,141.832 91.627C145.707 91.627,151.492 86.348,151.379 82.08C151.267 81.041,151.295 79.609,149.189 78.766C148.599 78.485,147.953 78.373,147.251 78.373C142.927 78.373,138.238 83.343,137.901 86.657C137.901 86.909,137.873 87.134,137.873 87.387C137.873 89.409,138.771 91.037,141.018 91.543"/><path stroke="none" d="M133.43 102.976C133.867 102.976,133.977 102.401,134.141 102.073C134.168 101.826,134.25 101.635,134.25 101.389C134.332 98.68,134.36 95.944,134.442 93.208C134.442 91.922,134.36 90.664,134.36 89.405C134.442 86.778,134.579 84.124,134.661 81.498C134.661 81.498,134.715 80.896,134.77 80.404L134.77 80.267L134.798 79.802L134.798 79.555L134.852 78.844C134.852 78.735,134.934 78.269,134.77 77.914C134.579 77.503,134.715 76.655,133.895 76.847C132.034 77.367,130.119 77.558,128.176 77.722C128.313 75.479,128.423 73.18,128.423 70.937C128.423 70.198,128.423 69.487,128.395 68.721C128.395 68.064,128.258 67.435,127.985 66.806C126.699 67.189,126.918 68.365,126.918 69.159C126.973 73.153,126.644 77.093,126.535 81.06C126.48 82.428,126.453 83.824,126.453 85.192C126.453 86.368,126.48 87.517,126.535 88.666C126.535 89.46,126.644 90.253,126.644 90.992C126.644 91.648,126.918 91.867,127.41 91.867C127.52 91.867,127.629 91.867,127.793 91.813L132.554 91.101L132.746 91.074L132.746 94.822C132.746 96.218,132.554 97.695,132.554 99.118C132.554 100.048,132.636 101.006,132.91 101.936C133.019 102.346,132.91 102.976,133.43 102.976M128.04 86.724C127.985 85.383,127.903 84.097,127.958 82.784L127.985 82.291C128.231 82.291,128.505 82.319,128.778 82.291C130.119 82.155,131.46 82.072,132.8 82.045L133.019 82.018L132.91 83.194C132.882 84.207,132.8 85.274,132.8 86.313C131.213 86.724,129.599 86.997,128.04 87.216"/></g></g><g class="vf-stavenote" id="vf-auto19340"><g class="vf-stem" id="vf-auto19341" pointer-events="bounding-box"><path stroke-width="1.5" fill="none" d="M219.664 82L219.664 115"/></g><g class="vf-notehead" id="vf-auto19343" pointer-events="bounding-box"><path stroke="none" d="M222.058 86.543C222.339 86.599,222.592 86.627,222.873 86.627C226.748 86.627,232.532 81.348,232.42 77.08C232.308 76.041,232.336 74.609,230.23 73.766C229.64 73.485,228.994 73.373,228.292 73.373C223.968 73.373,219.279 78.343,218.942 81.657C218.942 81.909,218.914 82.134,218.914 82.387C218.914 84.409,219.812 86.037,222.058 86.543"/><path stroke="none" d="M214.47 97.976C214.908 97.976,215.017 97.401,215.182 97.073C215.209 96.826,215.291 96.635,215.291 96.389C215.373 93.68,215.401 90.944,215.483 88.208C215.483 86.922,215.401 85.664,215.401 84.405C215.483 81.778,215.619 79.124,215.701 76.498C215.701 76.498,215.756 75.896,215.811 75.404L215.811 75.267L215.838 74.802L215.838 74.555L215.893 73.844C215.893 73.735,215.975 73.269,215.811 72.914C215.619 72.503,215.756 71.655,214.935 71.847C213.075 72.367,211.16 72.558,209.217 72.722C209.354 70.479,209.463 68.18,209.463 65.937C209.463 65.198,209.463 64.487,209.436 63.721C209.436 63.064,209.299 62.435,209.026 61.806C207.74 62.189,207.959 63.365,207.959 64.159C208.013 68.153,207.685 72.093,207.576 76.06C207.521 77.428,207.493 78.824,207.493 80.192C207.493 81.368,207.521 82.517,207.576 83.666C207.576 84.46,207.685 85.253,207.685 85.992C207.685 86.648,207.959 86.867,208.451 86.867C208.561 86.867,208.67 86.867,208.834 86.813L213.595 86.101L213.786 86.074L213.786 89.822C213.786 91.218,213.595 92.695,213.595 94.118C213.595 95.048,213.677 96.006,213.95 96.936C214.06 97.346,213.95 97.976,214.47 97.976M209.08 81.724C209.026 80.383,208.944 79.097,208.998 77.784L209.026 77.291C209.272 77.291,209.545 77.319,209.819 77.291C211.16 77.155,212.5 77.072,213.841 77.045L214.06 77.018L213.95 78.194C213.923 79.207,213.841 80.274,213.841 81.313C212.254 81.724,210.64 81.997,209.08 82.216"/></g></g><g class="vf-stavenote" id="vf-auto19344"><g class="vf-stem" id="vf-auto19345" pointer-events="bounding-box"><path stroke-width="1.5" fill="none" d="M300.704 77L300.704 110"/></g><g class="vf-notehead" id="vf-auto19347" pointer-events="bounding-box"><path stroke="none" d="M303.099 81.543C303.38 81.599,303.633 81.627,303.914 81.627C307.789 81.627,313.573 76.348,313.461 72.08C313.348 71.041,313.377 69.609,311.271 68.766C310.681 68.485,310.035 68.373,309.333 68.373C305.009 68.373,300.319 73.343,299.982 76.657C299.982 76.909,299.954 77.134,299.954 77.387C299.954 79.409,300.853 81.037,303.099 81.543"/></g></g><g class="vf-stavenote" id="vf-auto19348"><g class="vf-stem" id="vf-auto19349" pointer-events="bounding-box"><path stroke-width="1.5" fill="none" d="M381.745 72L381.745 105"/></g><g class="vf-notehead" id="vf-auto19351" pointer-events="bounding-box"><path stroke="none" d="M384.14 76.543C384.421 76.599,384.674 76.627,384.954 76.627C388.829 76.627,394.614 71.348,394.502 67.08C394.389 66.041,394.417 64.609,392.311 63.766C391.722 63.485,391.076 63.373,390.374 63.373C386.049 63.373,381.36 68.343,381.023 71.657C381.023 71.909,380.995 72.134,380.995 72.387C380.995 74.409,381.894 76.037,384.14 76.543"/></g></g><g class="vf-stavenote" id="vf-auto19352"><g class="vf-stem" id="vf-auto19353" pointer-events="bounding-box"><path stroke-width="1.5" fill="none" d="M462.786 67L462.786 100"/></g><g class="vf-notehead" id="vf-auto19355" pointer-events="bounding-box"><path stroke="none" d="M465.181 71.543C465.462 71.599,465.714 71.627,465.995 71.627C469.87 71.627,475.655 66.348,475.542 62.08C475.43 61.041,475.458 59.609,473.352 58.766C472.762 58.485,472.117 58.373,471.415 58.373C467.09 58.373,462.401 63.343,462.064 66.657C462.064 66.909,462.036 67.134,462.036 67.387C462.036 69.409,462.934 71.037,465.181 71.543"/><path stroke="none" d="M457.593 82.976C458.03 82.976,458.14 82.401,458.304 82.073C458.331 81.826,458.413 81.635,458.413 81.389C458.495 78.68,458.523 75.944,458.605 73.208C458.605 71.922,458.523 70.664,458.523 69.405C458.605 66.778,458.742 64.124,458.824 61.498C458.824 61.498,458.879 60.896,458.933 60.404L458.933 60.267L458.961 59.802L458.961 59.555L459.015 58.844C459.015 58.735,459.097 58.269,458.933 57.914C458.742 57.503,458.879 56.655,458.058 56.847C456.197 57.367,454.282 57.558,452.339 57.722C452.476 55.479,452.586 53.18,452.586 50.937C452.586 50.198,452.586 49.487,452.558 48.721C452.558 48.064,452.422 47.435,452.148 46.806C450.862 47.189,451.081 48.365,451.081 49.159C451.136 53.153,450.807 57.093,450.698 61.06C450.643 62.428,450.616 63.824,450.616 65.192C450.616 66.368,450.643 67.517,450.698 68.666C450.698 69.46,450.807 70.253,450.807 70.992C450.807 71.648,451.081 71.867,451.573 71.867C451.683 71.867,451.792 71.867,451.956 71.813L456.717 71.101L456.909 71.074L456.909 74.822C456.909 76.218,456.717 77.695,456.717 79.118C456.717 80.048,456.799 81.006,457.073 81.936C457.182 82.346,457.073 82.976,457.593 82.976M452.203 66.724C452.148 65.383,452.066 64.097,452.121 62.784L452.148 62.291C452.394 62.291,452.668 62.319,452.941 62.291C454.282 62.155,455.623 62.072,456.963 62.045L457.182 62.018L457.073 63.194C457.045 64.207,456.963 65.274,456.963 66.313C455.376 66.724,453.762 66.997,452.203 67.216"/></g></g><g class="vf-stavenote" id="vf-auto19356"><g class="vf-stem" id="vf-auto19357" pointer-events="bounding-box"><path stroke-width="1.5" fill="none" d="M543.827 62L543.827 95"/></g><g class="vf-notehead" id="vf-auto19359" pointer-events="bounding-box"><path stroke="none" d="M546.222 66.543C546.502 66.599,546.755 66.627,547.036 66.627C550.911 66.627,556.695 61.348,556.583 57.08C556.471 56.041,556.499 54.609,554.393 53.766C553.803 53.485,553.157 53.373,552.455 53.373C548.131 53.373,543.442 58.343,543.105 61.657C543.105 61.909,543.077 62.134,543.077 62.387C543.077 64.409,543.975 66.037,546.222 66.543"/><path stroke="none" d="M538.633 77.976C539.071 77.976,539.181 77.401,539.345 77.073C539.372 76.826,539.454 76.635,539.454 76.389C539.536 73.68,539.564 70.944,539.646 68.208C539.646 66.922,539.564 65.664,539.564 64.405C539.646 61.778,539.782 59.124,539.865 56.498C539.865 56.498,539.919 55.896,539.974 55.404L539.974 55.267L540.001 54.802L540.001 54.555L540.056 53.844C540.056 53.735,540.138 53.269,539.974 52.914C539.782 52.503,539.919 51.655,539.098 51.847C537.238 52.367,535.323 52.558,533.38 52.722C533.517 50.479,533.626 48.18,533.626 45.937C533.626 45.198,533.626 44.487,533.599 43.721C533.599 43.064,533.462 42.435,533.189 41.806C531.903 42.189,532.122 43.365,532.122 44.159C532.176 48.153,531.848 52.093,531.739 56.06C531.684 57.428,531.657 58.824,531.657 60.192C531.657 61.368,531.684 62.517,531.739 63.666C531.739 64.46,531.848 65.253,531.848 65.992C531.848 66.648,532.122 66.867,532.614 66.867C532.724 66.867,532.833 66.867,532.997 66.813L537.758 66.101L537.949 66.074L537.949 69.822C537.949 71.218,537.758 72.695,537.758 74.118C537.758 75.048,537.84 76.006,538.114 76.936C538.223 77.346,538.114 77.976,538.633 77.976M533.243 61.724C533.189 60.383,533.107 59.097,533.161 57.784L533.189 57.291C533.435 57.291,533.709 57.319,533.982 57.291C535.323 57.155,536.663 57.072,538.004 57.045L538.223 57.018L538.114 58.194C538.086 59.207,538.004 60.274,538.004 61.313C536.417 61.724,534.803 61.997,533.243 62.216"/></g></g><g class="vf-stavenote" id="vf-auto19360"><g class="vf-stem" id="vf-auto19361" pointer-events="bounding-box"><path stroke-width="1.5" fill="none" d="M624.867 57L624.867 90"/></g><g class="vf-notehead" id="vf-auto19363" pointer-events="bounding-box"><path stroke="none" d="M627.262 61.543C627.543 61.599,627.796 61.627,628.077 61.627C631.952 61.627,637.736 56.348,637.624 52.08C637.512 51.041,637.54 49.609,635.434 48.766C634.844 48.485,634.198 48.373,633.496 48.373C629.172 48.373,624.482 53.343,624.145 56.657C624.145 56.909,624.117 57.134,624.117 57.387C624.117 59.409,625.016 61.037,627.262 61.543"/></g></g><g class="vf-stavenote" id="vf-auto19364"><g class="vf-stem" id="vf-auto19365" pointer-events="bounding-box"><path stroke-width="1.5" fill="none" d="M69.59 53L69.59 20"/></g><g class="vf-notehead" id="vf-auto19367" pointer-events="bounding-box"><path stroke="none" d="M60.477 61.543C60.758 61.599,61.01 61.627,61.291 61.627C65.166 61.627,70.951 56.348,70.838 52.08C70.726 51.041,70.754 49.609,68.648 48.766C68.059 48.485,67.413 48.373,66.711 48.373C62.386 48.373,57.697 53.343,57.36 56.657C57.36 56.909,57.332 57.134,57.332 57.387C57.332 59.409,58.231 61.037,60.477 61.543"/></g></g><g class="vf-stavenote" id="vf-auto19368"><g class="vf-stem" id="vf-auto19369" pointer-events="bounding-box"><path stroke-width="1.5" fill="none" d="M150.631 48L150.631 15"/></g><g class="vf-notehead" id="vf-auto19371" pointer-events="bounding-box"><path stroke="none" d="M141.518 56.543C141.799 56.599,142.051 56.627,142.332 56.627C146.207 56.627,151.992 51.348,151.879 47.08C151.767 46.041,151.795 44.609,149.689 43.766C149.099 43.485,148.453 43.373,147.751 43.373C143.427 43.373,138.738 48.343,138.401 51.657C138.401 51.909,138.373 52.134,138.373 52.387C138.373 54.409,139.271 56.037,141.518 56.543"/><path stroke="none" d="M133.43 67.976C133.867 67.976,133.977 67.401,134.141 67.073C134.168 66.826,134.25 66.635,134.25 66.389C134.332 63.68,134.36 60.944,134.442 58.208C134.442 56.922,134.36 55.664,134.36 54.405C134.442 51.778,134.579 49.124,134.661 46.498C134.661 46.498,134.715 45.896,134.77 45.404L134.77 45.267L134.798 44.802L134.798 44.555L134.852 43.844C134.852 43.735,134.934 43.269,134.77 42.914C134.579 42.503,134.715 41.655,133.895 41.847C132.034 42.367,130.119 42.558,128.176 42.722C128.313 40.479,128.423 38.18,128.423 35.937C128.423 35.198,128.423 34.487,128.395 33.721C128.395 33.064,128.258 32.435,127.985 31.806C126.699 32.189,126.918 33.365,126.918 34.159C126.973 38.153,126.644 42.093,126.535 46.06C126.48 47.428,126.453 48.824,126.453 50.192C126.453 51.368,126.48 52.517,126.535 53.666C126.535 54.46,126.644 55.253,126.644 55.992C126.644 56.648,126.918 56.867,127.41 56.867C127.52 56.867,127.629 56.867,127.793 56.813L132.554 56.101L132.746 56.074L132.746 59.822C132.746 61.218,132.554 62.695,132.554 64.118C132.554 65.048,132.636 66.006,132.91 66.936C133.019 67.346,132.91 67.976,133.43 67.976M128.04 51.724C127.985 50.383,127.903 49.097,127.958 47.784L127.985 47.291C128.231 47.291,128.505 47.319,128.778 47.291C130.119 47.155,131.46 47.072,132.8 47.045L133.019 47.018L132.91 48.194C132.882 49.207,132.8 50.274,132.8 51.313C131.213 51.724,129.599 51.997,128.04 52.216"/></g></g><g class="vf-stavenote" id="vf-auto19372"><g class="vf-stem" id="vf-auto19373" pointer-events="bounding-box"><path stroke-width="1.5" fill="none" d="M231.672 43L231.672 10"/></g><g class="vf-notehead" id="vf-auto19375" pointer-events="bounding-box"><path stroke="none" d="M222.558 51.543C222.839 51.599,223.092 51.627,223.373 51.627C227.248 51.627,233.032 46.348,232.92 42.08C232.808 41.041,232.836 39.609,230.73 38.766C230.14 38.485,229.494 38.373,228.792 38.373C224.468 38.373,219.779 43.343,219.442 46.657C219.442 46.909,219.414 47.134,219.414 47.387C219.414 49.409,220.312 51.037,222.558 51.543"/><path stroke="none" d="M214.47 62.976C214.908 62.976,215.017 62.401,215.182 62.073C215.209 61.826,215.291 61.635,215.291 61.389C215.373 58.68,215.401 55.944,215.483 53.208C215.483 51.922,215.401 50.664,215.401 49.405C215.483 46.778,215.619 44.124,215.701 41.498C215.701 41.498,215.756 40.896,215.811 40.404L215.811 40.267L215.838 39.802L215.838 39.555L215.893 38.844C215.893 38.735,215.975 38.269,215.811 37.914C215.619 37.503,215.756 36.655,214.935 36.847C213.075 37.367,211.16 37.558,209.217 37.722C209.354 35.479,209.463 33.18,209.463 30.937C209.463 30.198,209.463 29.487,209.436 28.721C209.436 28.064,209.299 27.435,209.026 26.806C207.74 27.189,207.959 28.365,207.959 29.159C208.013 33.153,207.685 37.093,207.576 41.06C207.521 42.428,207.493 43.824,207.493 45.192C207.493 46.368,207.521 47.517,207.576 48.666C207.576 49.46,207.685 50.253,207.685 50.992C207.685 51.648,207.959 51.867,208.451 51.867C208.561 51.867,208.67 51.867,208.834 51.813L213.595 51.101L213.786 51.074L213.786 54.822C213.786 56.218,213.595 57.695,213.595 59.118C213.595 60.048,213.677 61.006,213.95 61.936C214.06 62.346,213.95 62.976,214.47 62.976M209.08 46.724C209.026 45.383,208.944 44.097,208.998 42.784L209.026 42.291C209.272 42.291,209.545 42.319,209.819 42.291C211.16 42.155,212.5 42.072,213.841 42.045L214.06 42.018L213.95 43.194C213.923 44.207,213.841 45.274,213.841 46.313C212.254 46.724,210.64 46.997,209.08 47.216"/></g></g><g class="vf-stavenote" id="vf-auto19376"><g class="vf-stem" id="vf-auto19377" pointer-events="bounding-box"><path stroke-width="1.5" fill="none" d="M312.712 38L312.712 5"/></g><g class="vf-notehead" id="vf-auto19379" pointer-events="bounding-box"><path stroke="none" d="M303.599 46.543C303.88 46.599,304.133 46.627,304.414 46.627C308.289 46.627,314.073 41.348,313.961 37.08C313.848 36.041,313.877 34.609,311.771 33.766C311.181 33.485,310.535 33.373,309.833 33.373C305.509 33.373,300.819 38.343,300.482 41.657C300.482 41.909,300.454 42.134,300.454 42.387C300.454 44.409,301.353 46.037,303.599 46.543"/></g></g><g class="vf-stavenote" id="vf-auto19380"><g class="vf-stem" id="vf-auto19381" pointer-events="bounding-box"><path stroke-width="1.5" fill="none" d="M393.753 33L393.753 0"/></g><g class="vf-notehead" id="vf-auto19383" pointer-events="bounding-box"><path stroke="none" d="M384.64 41.543C384.921 41.599,385.174 41.627,385.454 41.627C389.329 41.627,395.114 36.348,395.002 32.08C394.889 31.041,394.917 29.609,392.811 28.766C392.222 28.485,391.576 28.373,390.874 28.373C386.549 28.373,381.86 33.343,381.523 36.657C381.523 36.909,381.495 37.134,381.495 37.387C381.495 39.409,382.394 41.037,384.64 41.543"/></g></g><g class="vf-stavenote" id="vf-auto19384"><path stroke-width="1.4" fill="none" stroke="#444" d="M459.036 30L478.544 30"/><g class="vf-stem" id="vf-auto19385" pointer-events="bounding-box"><path stroke-width="1.5" fill="none" d="M474.794 28L474.794 -5"/></g><g class="vf-notehead" id="vf-auto19387" pointer-events="bounding-box"><path stroke="none" d="M465.681 36.543C465.962 36.599,466.214 36.627,466.495 36.627C470.37 36.627,476.155 31.348,476.042 27.08C475.93 26.041,475.958 24.609,473.852 23.766C473.262 23.485,472.617 23.373,471.915 23.373C467.59 23.373,462.901 28.343,462.564 31.657C462.564 31.909,462.536 32.134,462.536 32.387C462.536 34.409,463.434 36.037,465.681 36.543"/><path stroke="none" d="M457.593 47.976C458.03 47.976,458.14 47.401,458.304 47.073C458.331 46.826,458.413 46.635,458.413 46.389C458.495 43.68,458.523 40.944,458.605 38.208C458.605 36.922,458.523 35.664,458.523 34.405C458.605 31.778,458.742 29.124,458.824 26.498C458.824 26.498,458.879 25.896,458.933 25.404L458.933 25.267L458.961 24.802L458.961 24.555L459.015 23.844C459.015 23.735,459.097 23.269,458.933 22.914C458.742 22.503,458.879 21.655,458.058 21.847C456.197 22.367,454.282 22.558,452.339 22.722C452.476 20.479,452.586 18.18,452.586 15.937C452.586 15.198,452.586 14.487,452.558 13.721C452.558 13.064,452.422 12.435,452.148 11.806C450.862 12.189,451.081 13.365,451.081 14.159C451.136 18.153,450.807 22.093,450.698 26.06C450.643 27.428,450.616 28.824,450.616 30.192C450.616 31.368,450.643 32.517,450.698 33.666C450.698 34.46,450.807 35.253,450.807 35.992C450.807 36.648,451.081 36.867,451.573 36.867C451.683 36.867,451.792 36.867,451.956 36.813L456.717 36.101L456.909 36.074L456.909 39.822C456.909 41.218,456.717 42.695,456.717 44.118C456.717 45.048,456.799 46.006,457.073 46.936C457.182 47.346,457.073 47.976,457.593 47.976M452.203 31.724C452.148 30.383,452.066 29.097,452.121 27.784L452.148 27.291C452.394 27.291,452.668 27.319,452.941 27.291C454.282 27.155,455.623 27.072,456.963 27.045L457.182 27.018L457.073 28.194C457.045 29.207,456.963 30.274,456.963 31.313C455.376 31.724,453.762 31.997,452.203 32.216"/></g></g><g class="vf-stavenote" id="vf-auto19388"><path stroke-width="1.4" fill="none" stroke="#444" d="M540.077 30L559.585 30"/><g class="vf-stem" id="vf-auto19389" pointer-events="bounding-box"><path stroke-width="1.5" fill="none" d="M555.835 23L555.835 -10"/></g><g class="vf-notehead" id="vf-auto19391" pointer-events="bounding-box"><path stroke="none" d="M546.722 31.543C547.002 31.599,547.255 31.627,547.536 31.627C551.411 31.627,557.195 26.348,557.083 22.08C556.971 21.041,556.999 19.609,554.893 18.766C554.303 18.485,553.657 18.373,552.955 18.373C548.631 18.373,543.942 23.343,543.605 26.657C543.605 26.909,543.577 27.134,543.577 27.387C543.577 29.409,544.475 31.037,546.722 31.543"/><path stroke="none" d="M538.633 42.976C539.071 42.976,539.181 42.401,539.345 42.073C539.372 41.826,539.454 41.635,539.454 41.389C539.536 38.68,539.564 35.944,539.646 33.208C539.646 31.922,539.564 30.664,539.564 29.405C539.646 26.778,539.782 24.124,539.865 21.498C539.865 21.498,539.919 20.896,539.974 20.404L539.974 20.267L540.001 19.802L540.001 19.555L540.056 18.844C540.056 18.735,540.138 18.269,539.974 17.914C539.782 17.503,539.919 16.655,539.098 16.847C537.238 17.367,535.323 17.558,533.38 17.722C533.517 15.479,533.626 13.18,533.626 10.937C533.626 10.198,533.626 9.487,533.599 8.721C533.599 8.064,533.462 7.435,533.189 6.806C531.903 7.189,532.122 8.365,532.122 9.159C532.176 13.153,531.848 17.093,531.739 21.06C531.684 22.428,531.657 23.824,531.657 25.192C531.657 26.368,531.684 27.517,531.739 28.666C531.739 29.46,531.848 30.253,531.848 30.992C531.848 31.648,532.122 31.867,532.614 31.867C532.724 31.867,532.833 31.867,532.997 31.813L537.758 31.101L537.949 31.074L537.949 34.822C537.949 36.218,537.758 37.695,537.758 39.118C537.758 40.048,537.84 41.006,538.114 41.936C538.223 42.346,538.114 42.976,538.633 42.976M533.243 26.724C533.189 25.383,533.107 24.097,533.161 22.784L533.189 22.291C533.435 22.291,533.709 22.319,533.982 22.291C535.323 22.155,536.663 22.072,538.004 22.045L538.223 22.018L538.114 23.194C538.086 24.207,538.004 25.274,538.004 26.313C536.417 26.724,534.803 26.997,533.243 27.216"/></g></g><g class="vf-stavenote" id="vf-auto19392"><path stroke-width="1.4" fill="none" stroke="#444" d="M621.117 30L640.625 30"/><path stroke-width="1.4" fill="none" stroke="#444" d="M621.117 20L640.625 20"/><g class="vf-stem" id="vf-auto19393" pointer-events="bounding-box"><path stroke-width="1.5" fill="none" d="M636.875 18L636.875 -15"/></g><g class="vf-notehead" id="vf-auto19395" pointer-events="bounding-box"><path stroke="none" d="M627.762 26.543C628.043 26.599,628.296 26.627,628.577 26.627C632.452 26.627,638.236 21.348,638.124 17.08C638.012 16.041,638.04 14.609,635.934 13.766C635.344 13.485,634.698 13.373,633.996 13.373C629.672 13.373,624.982 18.343,624.645 21.657C624.645 21.909,624.617 22.134,624.617 22.387C624.617 24.409,625.516 26.037,627.762 26.543"/></g></g></svg>