<svg xmlns="http://www.w3.org/2000/svg" stroke-width="0.3" stroke-dasharray="none" fill="black" stroke="black" font-family="Arial, sans-serif" font-size="10pt" font-weight="normal" font-style="normal" width="400" height="160" viewBox="0 0 400 160" style="width: 400px; height: 160px; border: none;"><g class="vf-stave" id="vf-auto40978" stroke-width="1" fill="#999999" stroke="#999999"><path fill="none" d="M10 50L360 50"/><path fill="none" d="M10 60L360 60"/><path fill="none" d="M10 70L360 70"/><path fill="none" d="M10 80L360 80"/><path fill="none" d="M10 90L360 90"/></g><g class="vf-stavebarline" id="vf-auto40979"><rect x="10" y="49.5" width="1" height="41" stroke="none"/></g><g class="vf-stavebarline" id="vf-auto40980"><rect x="360" y="49.5" width="1" height="41" stroke="none"/></g><g class="vf-clef" id="vf-auto40981"><path stroke="none" d="M23.693 101.402C23.87 101.402,24.048 101.377,24.276 101.301C24.707 101.148,25.062 100.92,25.366 100.591C28.382 97.423,29.623 93.596,29.75 89.313C29.75 88.983,29.776 88.451,29.776 88.451C29.776 88.451,30.282 88.147,30.511 88.071C31.727 87.488,32.893 86.829,33.932 85.993C36.72 83.762,38.316 80.747,39.051 77.376C39.204 76.844,39.229 76.286,39.229 75.779C39.229 73.473,37.962 71.8,35.047 71.268C34.312 71.116,33.577 71.04,32.842 71.04C31.017 71.04,29.269 71.521,27.621 72.484C27.419 72.611,27.19 72.763,27.19 72.763L26.253 69.215C26.202 69.038,26.202 68.708,26.202 68.708C26.202 68.708,29.928 62.093,30.434 58.697C30.612 57.709,30.688 56.72,30.688 55.757C30.688 54.972,30.663 54.237,30.536 53.527C30.181 50.891,29.193 48.408,28.534 45.848C28.356 45.088,28.103 44.175,27.216 44.175C26.557 44.175,26.101 44.809,25.695 45.341C23.82 47.926,22.907 50.891,22.73 54.059C22.705 54.566,22.705 55.098,22.705 55.605C22.705 58.545,23.186 61.51,23.566 64.425C23.566 64.653,23.642 64.881,23.693 65.059C22.046 67.39,20.221 69.57,18.65 71.978C17.56 73.701,16.343 75.424,15.583 77.35C15.177 78.288,15 79.403,15 80.493C15 82.749,15.76 85.055,17.078 86.322C17.839 87.057,19.055 87.868,20.246 88.299C21.944 88.907,23.617 89.313,25.391 89.313C25.923 89.313,26.455 89.287,27.013 89.211L27.444 89.135C27.444 89.135,27.469 89.465,27.444 89.642C27.038 91.847,26.506 94.001,25.188 95.826C24.479 96.764,23.82 97.828,22.451 97.93C22.046 97.98,21.868 98.234,21.868 98.563C21.868 98.69,21.894 98.817,21.944 98.944C22.147 99.501,22.4 100.084,22.654 100.642C22.882 101.148,23.237 101.402,23.693 101.402M25.138 62.828C24.859 61.08,24.681 59.356,24.681 57.633C24.681 54.465,25.34 51.373,27.19 48.408C27.621 49.751,27.849 51.119,27.849 52.488C27.849 53.198,27.773 53.933,27.672 54.642C27.19 57.506,26.532 60.269,25.138 62.828M21.387 84.421C20.88 84.396,20.449 84.219,19.967 84.067C19.004 83.737,18.219 83.382,17.965 82.749C17.839 82.47,17.813 82.14,17.813 81.811C17.813 81.406,17.889 80.975,17.965 80.518C17.991 80.316,18.219 79.682,18.295 79.581C19.714 77.046,21.412 74.765,23.211 72.459L24.732 70.457L25.011 71.268C25.29 72.18,25.543 73.625,25.543 73.625C25.543 73.625,24.529 74.943,23.87 75.602C22.046 77.376,21.159 79.606,21.159 82.064C21.159 82.673,21.235 83.306,21.361 83.965C21.387 84.092,21.387 84.219,21.387 84.421M29.269 83.306C28.99 80.924,28.432 79.023,27.925 76.742C27.875 76.463,27.875 76.286,28.001 76.134C28.939 75.957,29.852 75.881,30.815 75.881C31.727 75.881,32.589 75.957,33.501 76.134C34.591 76.362,35.681 76.539,36.542 77.426C36.593 77.503,36.669 77.579,36.745 77.604C35.301 80.518,33.146 82.723,30.08 84.067L29.421 84.32M25.391 85.055C24.124 85.055,22.882 84.726,22.882 84.726C22.882 84.726,22.781 84.219,22.781 83.484C22.781 83.002,22.806 82.419,22.958 81.836C23.313 80.088,24.555 78.846,25.873 77.68C25.974 77.579,26.101 77.503,26.177 77.503C26.303 77.503,26.354 77.655,26.379 77.908C26.709 80.062,27.266 82.166,27.419 84.32C27.444 84.548,27.419 84.878,27.419 84.878C27.419 84.878,26.455 85.131,25.391 85.055"/></g><g class="vf-timesignature" id="vf-auto40982"><path stroke="none" d="M57.65 68.554C58.411 68.807,59.139 68.934,59.836 68.934C61.278 68.934,62.624 68.395,63.812 67.366C65.269 66.067,65.776 64.356,65.776 62.55C65.776 62.138,65.745 61.711,65.697 61.299C65.57 60.016,64.842 59.018,63.559 58.495C63.21 58.384,62.878 58.289,62.513 58.194C63.828 56.626,64.953 55.01,66.109 53.379C66.41 52.967,66.552 52.524,66.552 52.032C66.552 51.858,66.521 51.652,66.473 51.446C66.41 51.177,66.299 51.066,66.109 51.066C66.046 51.066,65.982 51.082,65.887 51.098C65.38 51.24,64.873 51.256,64.382 51.256C63.131 51.256,61.848 51.225,60.597 51.225L59.71 51.225C58.316 51.225,56.922 51.225,55.559 51.351C55.1 51.399,54.862 51.589,54.799 52.064C54.704 52.524,54.736 52.999,54.688 53.474C54.657 53.775,54.736 53.917,55.053 53.917L55.116 53.917C55.924 53.838,56.732 53.791,57.555 53.791L63.765 53.791C62.513 55.486,61.278 56.959,59.836 58.289C58.981 59.081,58.126 59.81,58.126 61.03C58.126 61.236,58.157 61.457,58.221 61.711L58.221 61.758C58.205 61.932,58.205 62.138,58.411 62.233C58.569 62.297,58.727 62.218,58.838 62.091C59.424 61.505,60.201 61.331,60.961 61.14C61.23 61.077,61.499 61.03,61.753 61.03C62.418 61.03,63.052 61.251,63.606 61.711C63.97 61.98,64.446 62.328,64.446 62.835C64.446 62.915,64.43 62.994,64.398 63.073C63.986 64.404,63.242 65.449,61.911 65.956C61.262 66.209,60.597 66.32,59.947 66.32C58.807 66.32,57.698 65.956,56.621 65.386C56.161 65.116,55.781 64.91,55.623 64.356C55.591 64.245,55.575 63.944,55.354 63.944C55.306 63.944,55.274 63.944,55.227 63.976C54.989 64.039,54.799 64.213,54.799 64.562C54.752 65.322,54.942 65.972,55.1 66.7C55.179 67.096,55.464 67.413,55.829 67.635C56.415 67.983,56.985 68.332,57.65 68.554"/><path stroke="none" d="M58.841 89.757C58.983 89.757,59.094 89.757,59.221 89.742C62.436 89.377,65.05 87.682,65.889 84.293C66.064 83.627,66.159 82.962,66.143 82.344C66.143 80.76,65.525 79.335,63.909 78.289C63.767 78.194,63.719 78.099,63.704 77.988C63.704 77.909,63.751 77.814,63.767 77.719C63.989 76.895,64.115 76.056,64.115 75.232C64.115 74.646,64.036 74.044,63.925 73.458C63.498 71.589,62.04 70.243,60.282 70.243C59.664 70.243,58.999 70.401,58.334 70.781C56.243 72.001,55.102 73.917,55.102 76.309C55.102 77.576,55.372 78.86,56.29 79.857C56.655 80.253,57.177 80.428,57.637 80.76C56.877 81.156,56.449 81.806,56.1 82.503C55.641 83.437,55.435 84.419,55.229 85.433C55.197 85.687,55.166 85.924,55.166 86.178C55.166 88.3,56.987 89.757,58.841 89.757M58.73 78.337C58.049 78.337,57.288 78.147,56.607 77.656C56.306 77.418,56.164 77.196,56.164 76.895C56.164 76.8,56.164 76.689,56.211 76.563C56.544 75.549,57.035 74.662,57.764 73.917C58.476 73.205,59.348 72.856,60.187 72.856C61.169 72.856,62.12 73.316,62.817 74.234C62.927 74.393,63.038 74.567,63.038 74.757L63.038 74.82L63.038 74.931C62.88 75.866,62.674 76.832,62.056 77.608C61.85 77.862,61.644 78.02,61.28 78.068C60.504 78.147,59.712 78.337,58.73 78.337M59.839 86.938C58.334 86.906,57.177 85.687,57.146 84.372C57.146 84.182,57.193 83.992,57.273 83.786C57.431 83.216,57.843 82.835,58.286 82.487C58.983 81.98,59.712 81.552,60.456 81.14C60.916 80.887,61.343 80.776,61.739 80.776C62.421 80.776,63.007 81.14,63.545 81.869C63.989 82.487,64.321 83.152,64.321 83.976C64.321 84.562,64.068 85.037,63.656 85.401C62.563 86.368,61.233 86.843,59.839 86.938"/></g><g class="vf-stavenote" id="vf-auto40986"><g class="vf-notehead" id="vf-auto41013" pointer-events="bounding-box"><path stroke="none" d="M215.292 94.858L215.292 94.802L223.323 94.802C224.39 94.802,225.429 94.072,225.485 93.229C225.485 92.92,225.513 92.583,225.513 92.303C225.513 91.685,225.485 91.123,225.261 90.562C225.064 90,224.783 89.719,224.165 89.523C223.941 89.438,223.744 89.438,223.52 89.438C223.098 89.438,222.733 89.523,222.284 89.523C217.454 89.523,212.653 89.523,207.879 89.466C207.233 89.438,206.672 89.663,206.11 89.803C205.633 89.888,205.548 90.168,205.548 90.477C205.548 90.73,205.576 90.983,205.576 91.207C205.576 91.629,205.38 92.022,205.324 92.359C205.296 94.128,205.492 94.858,207.43 94.858"/></g></g><g class="vf-stavenote" id="vf-auto40990"><g class="vf-notehead" id="vf-auto40994" pointer-events="bounding-box"><path stroke="none" d="M84.744 76.543C85.025 76.599,85.278 76.627,85.559 76.627C89.434 76.627,95.218 71.348,95.106 67.08C94.994 66.041,95.022 64.609,92.916 63.766C92.326 63.485,91.68 63.373,90.978 63.373C86.654 63.373,81.965 68.343,81.628 71.657C81.628 71.909,81.599 72.134,81.599 72.387C81.599 74.409,82.498 76.037,84.744 76.543"/></g></g><g class="vf-stavenote" id="vf-auto40996"><g class="vf-notehead" id="vf-auto41000" pointer-events="bounding-box"><path stroke="none" d="M167.542 76.543C167.823 76.599,168.075 76.627,168.356 76.627C172.231 76.627,178.016 71.348,177.903 67.08C177.791 66.041,177.819 64.609,175.713 63.766C175.124 63.485,174.478 63.373,173.776 63.373C169.451 63.373,164.762 68.343,164.425 71.657C164.425 71.909,164.397 72.134,164.397 72.387C164.397 74.409,165.296 76.037,167.542 76.543"/><path stroke="none" d="M151.047 85.13C151.348 85.103,151.43 84.665,151.512 84.391C151.677 83.872,151.704 83.352,151.704 82.887C151.704 82.449,151.677 82.066,151.677 81.628C151.677 81.354,151.677 80.999,151.704 80.725C151.786 79.932,151.868 79.138,151.896 78.345L153.647 77.989C153.729 79.658,154.03 81.272,154.577 82.832C154.632 83.051,154.768 83.27,155.015 83.27C155.261 83.324,155.343 83.051,155.452 82.832C155.726 82.421,155.753 81.902,155.753 81.436C155.808 81.081,155.808 80.752,155.808 80.452C155.808 79.494,155.726 78.509,155.699 77.551L157.969 77.086C160.131 76.648,160.404 76.348,160.569 74.268C160.569 73.748,160.623 73.393,160.569 72.982C160.541 72.49,160.322 72.134,159.912 72.134L159.83 72.134C159.666 72.134,159.556 72.134,159.392 72.161C158.489 72.408,157.504 72.599,156.547 72.763L155.89 72.873C155.917 72.326,155.917 71.724,155.972 71.149C156 69.891,156.027 68.632,156.027 67.373C157.149 67.072,158.216 66.772,159.283 66.416C159.857 66.224,160.377 65.896,160.541 65.267C160.678 64.555,160.897 63.899,160.897 63.187C160.897 62.777,160.842 62.367,160.678 61.956C160.541 61.573,160.404 61.382,160.186 61.382L160.104 61.382C159.967 61.382,159.83 61.382,159.666 61.464C158.435 61.956,157.231 62.367,155.972 62.722L155.835 60.588C155.753 58.892,155.699 57.168,155.343 55.472C155.261 55.253,155.288 54.897,155.042 54.897L155.015 54.897L154.905 54.897C154.577 54.979,154.194 55.116,154.139 55.554L154.139 56.293C154.139 58.618,154.221 60.889,154.276 63.187L152.169 63.652C152.169 62.476,152.142 61.3,152.06 60.123C152.032 59.521,152.032 58.974,151.704 58.372C150.828 58.81,150.965 59.548,150.965 60.178C150.883 61.464,150.828 62.668,150.801 63.899C149.707 64.118,148.585 64.282,147.491 64.473C145.876 64.747,145.63 64.993,145.63 66.772C145.521 67.209,145.849 67.702,145.794 68.194C145.712 68.933,145.904 69.179,146.424 69.207C146.533 69.207,146.67 69.179,146.834 69.124C148.12 68.933,149.378 68.741,150.637 68.495L150.528 72.052C150.473 72.709,150.418 73.338,150.336 73.967C148.859 74.268,147.408 74.542,145.958 74.897C145.138 75.089,144.645 75.39,144.645 76.348C144.645 77.278,145.001 78.153,145.056 79.056C145.056 79.494,145.165 79.685,145.493 79.74C145.548 79.74,145.685 79.685,145.849 79.658C147.244 79.33,148.667 79.056,150.09 78.755C150.062 79.248,150.062 79.768,150.062 80.315C150.062 81.71,150.199 83.051,150.692 84.391C150.774 84.665,150.692 85.13,151.047 85.13M152.087 73.612C152.142 72.763,152.142 71.888,152.169 71.012C152.224 70.082,152.224 69.179,152.224 68.222C152.88 68.112,153.51 68.003,154.139 67.839C153.948 69.644,153.865 71.45,153.756 73.283"/></g></g><g class="vf-stavenote" id="vf-auto41002"><g class="vf-notehead" id="vf-auto41006" pointer-events="bounding-box"><path stroke="none" d="M250.339 76.543C250.62 76.599,250.873 76.627,251.154 76.627C255.029 76.627,260.813 71.348,260.701 67.08C260.589 66.041,260.617 64.609,258.511 63.766C257.921 63.485,257.275 63.373,256.573 63.373C252.249 63.373,247.559 68.343,247.223 71.657C247.223 71.909,247.194 72.134,247.194 72.387C247.194 74.409,248.093 76.037,250.339 76.543"/></g></g><g class="vf-stem" id="vf-auto40991" pointer-events="bounding-box"><path stroke-width="1.5" fill="none" d="M93.858 68L93.858 35.75"/></g><g class="vf-stem" id="vf-auto40997" pointer-events="bounding-box"><path stroke-width="1.5" fill="none" d="M176.655 68L176.655 35.75"/></g><g class="vf-stem" id="vf-auto41003" pointer-events="bounding-box"><path stroke-width="1.5" fill="none" d="M259.453 68L259.453 35.75"/></g><g class="vf-beam" id="vf-auto41010"><path stroke="none" d="M93.108 35L93.108 40L259.703 40L259.703 35Z"/></g></svg>