<svg xmlns="http://www.w3.org/2000/svg" stroke-width="0.3" stroke-dasharray="none" fill="black" stroke="black" font-family="Arial, sans-serif" font-size="10pt" font-weight="normal" font-style="normal" width="370" height="160" viewBox="0 0 370 160" style="width: 370px; height: 160px; border: none;"><g class="vf-stave" id="vf-auto34155" stroke-width="1" fill="#999999" stroke="#999999"><path fill="none" d="M10 50L370 50"/><path fill="none" d="M10 60L370 60"/><path fill="none" d="M10 70L370 70"/><path fill="none" d="M10 80L370 80"/><path fill="none" d="M10 90L370 90"/></g><g class="vf-stavebarline" id="vf-auto34156"><rect x="10" y="49.5" width="1" height="41" stroke="none"/></g><g class="vf-stavebarline" id="vf-auto34157"><rect x="370" y="49.5" width="1" height="41" stroke="none"/></g><g class="vf-stavenote" id="vf-auto34158"><g class="vf-notehead" id="vf-auto34162" pointer-events="bounding-box"><path stroke="none" d="M33.645 86.543C33.926 86.599,34.178 86.627,34.459 86.627C38.334 86.627,44.119 81.348,44.006 77.08C43.894 76.041,43.922 74.609,41.816 73.766C41.227 73.485,40.581 73.373,39.879 73.373C35.554 73.373,30.865 78.343,30.528 81.657C30.528 81.909,30.5 82.134,30.5 82.387C30.5 84.409,31.399 86.037,33.645 86.543"/></g></g><g class="vf-stavenote" id="vf-auto34164"><g class="vf-notehead" id="vf-auto34168" pointer-events="bounding-box"><path stroke="none" d="M52.891 76.543C53.172 76.599,53.425 76.627,53.705 76.627C57.58 76.627,63.365 71.348,63.253 67.08C63.14 66.041,63.168 64.609,61.062 63.766C60.473 63.485,59.827 63.373,59.125 63.373C54.801 63.373,50.111 68.343,49.774 71.657C49.774 71.909,49.746 72.134,49.746 72.387C49.746 74.409,50.645 76.037,52.891 76.543"/></g></g><g class="vf-stavenote" id="vf-auto34170"><g class="vf-notehead" id="vf-auto34174" pointer-events="bounding-box"><path stroke="none" d="M72.137 81.543C72.418 81.599,72.671 81.627,72.952 81.627C76.827 81.627,82.611 76.348,82.499 72.08C82.386 71.041,82.415 69.609,80.309 68.766C79.719 68.485,79.073 68.373,78.371 68.373C74.047 68.373,69.357 73.343,69.02 76.657C69.02 76.909,68.992 77.134,68.992 77.387C68.992 79.409,69.891 81.037,72.137 81.543"/></g></g><g class="vf-stavenote" id="vf-auto34176"><g class="vf-notehead" id="vf-auto34180" pointer-events="bounding-box"><path stroke="none" d="M91.383 81.543C91.664 81.599,91.917 81.627,92.198 81.627C96.073 81.627,101.857 76.348,101.745 72.08C101.633 71.041,101.661 69.609,99.555 68.766C98.965 68.485,98.319 68.373,97.617 68.373C93.293 68.373,88.603 73.343,88.266 76.657C88.266 76.909,88.238 77.134,88.238 77.387C88.238 79.409,89.137 81.037,91.383 81.543"/></g></g><g class="vf-stavenote" id="vf-auto34182"><g class="vf-notehead" id="vf-auto34186" pointer-events="bounding-box"><path stroke="none" d="M110.63 86.543C110.91 86.599,111.163 86.627,111.444 86.627C115.319 86.627,121.103 81.348,120.991 77.08C120.879 76.041,120.907 74.609,118.801 73.766C118.211 73.485,117.565 73.373,116.863 73.373C112.539 73.373,107.85 78.343,107.513 81.657C107.513 81.909,107.485 82.134,107.485 82.387C107.485 84.409,108.383 86.037,110.63 86.543"/></g></g><g class="vf-stavenote" id="vf-auto34188"><g class="vf-notehead" id="vf-auto34192" pointer-events="bounding-box"><path stroke="none" d="M129.876 91.543C130.156 91.599,130.409 91.627,130.69 91.627C134.565 91.627,140.349 86.348,140.237 82.08C140.125 81.041,140.153 79.609,138.047 78.766C137.457 78.485,136.811 78.373,136.109 78.373C131.785 78.373,127.096 83.343,126.759 86.657C126.759 86.909,126.731 87.134,126.731 87.387C126.731 89.409,127.629 91.037,129.876 91.543"/></g></g><g class="vf-stavenote" id="vf-auto34194"><g class="vf-notehead" id="vf-auto34198" pointer-events="bounding-box"><path stroke="none" d="M149.122 96.543C149.403 96.599,149.655 96.627,149.936 96.627C153.811 96.627,159.596 91.348,159.483 87.08C159.371 86.041,159.399 84.609,157.293 83.766C156.703 83.485,156.058 83.373,155.356 83.373C151.031 83.373,146.342 88.343,146.005 91.657C146.005 91.909,145.977 92.134,145.977 92.387C145.977 94.409,146.875 96.037,149.122 96.543"/></g></g><g class="vf-stavenote" id="vf-auto34200"><path stroke-width="1.4" fill="none" stroke="#444" d="M161.723 100L181.231 100"/><g class="vf-notehead" id="vf-auto34204" pointer-events="bounding-box"><path stroke="none" d="M168.368 106.543C168.649 106.599,168.901 106.627,169.182 106.627C173.057 106.627,178.842 101.348,178.729 97.08C178.617 96.041,178.645 94.609,176.539 93.766C175.95 93.485,175.304 93.373,174.602 93.373C170.277 93.373,165.588 98.343,165.251 101.657C165.251 101.909,165.223 102.134,165.223 102.387C165.223 104.409,166.122 106.037,168.368 106.543"/></g></g><g class="vf-stavenote" id="vf-auto34206"><g class="vf-notehead" id="vf-auto34210" pointer-events="bounding-box"><path stroke="none" d="M187.614 86.543C187.895 86.599,188.148 86.627,188.428 86.627C192.303 86.627,198.088 81.348,197.976 77.08C197.863 76.041,197.891 74.609,195.785 73.766C195.196 73.485,194.55 73.373,193.848 73.373C189.523 73.373,184.834 78.343,184.497 81.657C184.497 81.909,184.469 82.134,184.469 82.387C184.469 84.409,185.368 86.037,187.614 86.543"/></g></g><g class="vf-stavenote" id="vf-auto34212"><g class="vf-notehead" id="vf-auto34216" pointer-events="bounding-box"><path stroke="none" d="M206.86 81.543C207.141 81.599,207.394 81.627,207.674 81.627C211.55 81.627,217.334 76.348,217.222 72.08C217.109 71.041,217.137 69.609,215.031 68.766C214.442 68.485,213.796 68.373,213.094 68.373C208.77 68.373,204.08 73.343,203.743 76.657C203.743 76.909,203.715 77.134,203.715 77.387C203.715 79.409,204.614 81.037,206.86 81.543"/></g></g><g class="vf-stavenote" id="vf-auto34218"><g class="vf-notehead" id="vf-auto34222" pointer-events="bounding-box"><path stroke="none" d="M226.106 91.543C226.387 91.599,226.64 91.627,226.921 91.627C230.796 91.627,236.58 86.348,236.468 82.08C236.356 81.041,236.384 79.609,234.278 78.766C233.688 78.485,233.042 78.373,232.34 78.373C228.016 78.373,223.326 83.343,222.989 86.657C222.989 86.909,222.961 87.134,222.961 87.387C222.961 89.409,223.86 91.037,226.106 91.543"/></g></g><g class="vf-stavenote" id="vf-auto34224"><g class="vf-notehead" id="vf-auto34228" pointer-events="bounding-box"><path stroke="none" d="M245.352 96.543C245.633 96.599,245.886 96.627,246.167 96.627C250.042 96.627,255.826 91.348,255.714 87.08C255.602 86.041,255.63 84.609,253.524 83.766C252.934 83.485,252.288 83.373,251.586 83.373C247.262 83.373,242.573 88.343,242.236 91.657C242.236 91.909,242.207 92.134,242.207 92.387C242.207 94.409,243.106 96.037,245.352 96.543"/></g></g><g class="vf-stavenote" id="vf-auto34230"><path stroke-width="1.4" fill="none" stroke="#444" d="M257.954 100L277.462 100"/><g class="vf-stem" id="vf-auto34231" pointer-events="bounding-box"><path stroke-width="1.5" fill="none" d="M273.712 98L273.712 68"/></g><g class="vf-notehead" id="vf-auto34234" pointer-events="bounding-box"><path stroke="none" d="M264.599 106.543C264.879 106.599,265.132 106.627,265.413 106.627C269.288 106.627,275.072 101.348,274.96 97.08C274.848 96.041,274.876 94.609,272.77 93.766C272.18 93.485,271.534 93.373,270.832 93.373C266.508 93.373,261.819 98.343,261.482 101.657C261.482 101.909,261.454 102.134,261.454 102.387C261.454 104.409,262.352 106.037,264.599 106.543"/></g><path stroke="none" d="M280.383 95.882C281.394 94.73,282.377 93.523,282.798 92.063C283.303 90.49,283.5 88.918,283.5 87.345C283.5 86.278,283.416 85.239,283.247 84.2C282.77 80.747,281.675 77.602,279.484 74.85C278.53 73.642,277.603 72.379,276.62 71.171C275.497 69.711,274.795 68.391,274.767 66.51C274.767 66.145,274.683 65.555,274.683 65.106C274.683 64.376,274.402 63.674,274.121 63L273.925 63C273.11 63.365,272.942 64.011,272.942 64.769L272.942 67.044C272.942 70.16,273.756 72.996,275.637 75.496C276.424 76.422,277.154 77.433,277.912 78.36C279.849 80.662,281.31 83.246,281.59 86.334C281.647 86.896,281.843 87.458,281.843 87.991C281.843 88.272,281.787 88.553,281.675 88.806C281.281 89.676,280.86 90.631,280.13 91.22C279.484 91.754,279.344 92.344,279.344 92.989C279.344 93.326,279.372 93.691,279.4 94.056C279.456 94.59,279.653 95.095,279.681 95.629C279.737 95.966,279.849 96.106,279.99 96.106C280.102 96.106,280.214 96.022,280.383 95.882"/></g><g class="vf-stavenote" id="vf-auto34236"><g class="vf-stem" id="vf-auto34237" pointer-events="bounding-box"><path stroke-width="1.5" fill="none" d="M302.728 93L302.728 63"/></g><g class="vf-notehead" id="vf-auto34240" pointer-events="bounding-box"><path stroke="none" d="M293.615 101.543C293.896 101.599,294.148 101.627,294.429 101.627C298.304 101.627,304.089 96.348,303.976 92.08C303.864 91.041,303.892 89.609,301.786 88.766C301.196 88.485,300.551 88.373,299.849 88.373C295.524 88.373,290.835 93.343,290.498 96.657C290.498 96.909,290.47 97.134,290.47 97.387C290.47 99.409,291.368 101.037,293.615 101.543"/></g><path stroke="none" d="M309.399 90.882C310.41 89.73,311.393 88.523,311.814 87.063C312.319 85.49,312.516 83.918,312.516 82.345C312.516 81.278,312.432 80.239,312.263 79.2C311.786 75.747,310.691 72.602,308.501 69.85C307.546 68.642,306.619 67.379,305.636 66.171C304.513 64.711,303.811 63.391,303.783 61.51C303.783 61.145,303.699 60.555,303.699 60.106C303.699 59.376,303.418 58.674,303.137 58L302.941 58C302.126 58.365,301.958 59.011,301.958 59.769L301.958 62.044C301.958 65.16,302.772 67.996,304.654 70.496C305.44 71.422,306.17 72.433,306.928 73.36C308.866 75.662,310.326 78.246,310.607 81.334C310.663 81.896,310.859 82.458,310.859 82.991C310.859 83.272,310.803 83.553,310.691 83.806C310.298 84.676,309.876 85.631,309.146 86.22C308.501 86.754,308.36 87.344,308.36 87.989C308.36 88.326,308.388 88.691,308.416 89.056C308.472 89.59,308.669 90.095,308.697 90.629C308.753 90.966,308.866 91.106,309.006 91.106C309.118 91.106,309.231 91.022,309.399 90.882"/></g><g class="vf-stavenote" id="vf-auto34242"><g class="vf-stem" id="vf-auto34243" pointer-events="bounding-box"><path stroke-width="1.5" fill="none" d="M331.744 88L331.744 58"/></g><g class="vf-notehead" id="vf-auto34246" pointer-events="bounding-box"><path stroke="none" d="M322.631 96.543C322.912 96.599,323.164 96.627,323.445 96.627C327.32 96.627,333.105 91.348,332.992 87.08C332.88 86.041,332.908 84.609,330.802 83.766C330.213 83.485,329.567 83.373,328.865 83.373C324.54 83.373,319.851 88.343,319.514 91.657C319.514 91.909,319.486 92.134,319.486 92.387C319.486 94.409,320.385 96.037,322.631 96.543"/></g><path stroke="none" d="M338.415 85.882C339.426 84.73,340.409 83.523,340.83 82.063C341.336 80.49,341.532 78.918,341.532 77.345C341.532 76.278,341.448 75.239,341.279 74.2C340.802 70.747,339.707 67.602,337.517 64.85C336.562 63.642,335.635 62.379,334.653 61.171C333.529 59.711,332.827 58.391,332.799 56.51C332.799 56.145,332.715 55.555,332.715 55.106C332.715 54.376,332.434 53.674,332.153 53L331.957 53C331.143 53.365,330.974 54.011,330.974 54.769L330.974 57.044C330.974 60.16,331.788 62.996,333.67 65.496C334.456 66.422,335.186 67.433,335.944 68.36C337.882 70.662,339.342 73.246,339.623 76.334C339.679 76.896,339.875 77.458,339.875 77.991C339.875 78.272,339.819 78.553,339.707 78.806C339.314 79.676,338.893 80.631,338.163 81.22C337.517 81.754,337.376 82.344,337.376 82.989C337.376 83.326,337.404 83.691,337.432 84.056C337.489 84.59,337.685 85.095,337.713 85.629C337.769 85.966,337.882 86.106,338.022 86.106C338.134 86.106,338.247 86.022,338.415 85.882"/></g><g class="vf-stem" id="vf-auto34159" pointer-events="bounding-box"><path stroke-width="1.5" fill="none" d="M42.758 78L42.758 35.269"/></g><g class="vf-stem" id="vf-auto34165" pointer-events="bounding-box"><path stroke-width="1.5" fill="none" d="M62.004 68L62.004 35.75"/></g><g class="vf-stem" id="vf-auto34171" pointer-events="bounding-box"><path stroke-width="1.5" fill="none" d="M81.25 73L81.25 36.231"/></g><g class="vf-stem" id="vf-auto34177" pointer-events="bounding-box"><path stroke-width="1.5" fill="none" d="M100.496 73L100.496 36.712"/></g><g class="vf-stem" id="vf-auto34183" pointer-events="bounding-box"><path stroke-width="1.5" fill="none" d="M119.743 78L119.743 37.193"/></g><g class="vf-stem" id="vf-auto34189" pointer-events="bounding-box"><path stroke-width="1.5" fill="none" d="M138.989 83L138.989 37.675"/></g><g class="vf-stem" id="vf-auto34195" pointer-events="bounding-box"><path stroke-width="1.5" fill="none" d="M158.235 88L158.235 38.156"/></g><g class="vf-stem" id="vf-auto34201" pointer-events="bounding-box"><path stroke-width="1.5" fill="none" d="M177.481 98L177.481 38.637"/></g><g class="vf-stem" id="vf-auto34207" pointer-events="bounding-box"><path stroke-width="1.5" fill="none" d="M196.727 78L196.727 39.118"/></g><g class="vf-stem" id="vf-auto34213" pointer-events="bounding-box"><path stroke-width="1.5" fill="none" d="M215.973 73L215.973 39.599"/></g><g class="vf-stem" id="vf-auto34219" pointer-events="bounding-box"><path stroke-width="1.5" fill="none" d="M235.219 83L235.219 40.08"/></g><g class="vf-stem" id="vf-auto34225" pointer-events="bounding-box"><path stroke-width="1.5" fill="none" d="M254.466 88L254.466 40.562"/></g><g class="vf-beam" id="vf-auto34248"><path stroke="none" d="M42.008 34.5L42.008 39.5L254.716 44.793L254.716 39.793Z"/><path stroke="none" d="M42.008 42L42.008 47L254.716 52.293L254.716 47.293Z"/></g><path stroke="none" d="M129.021 31.889C129.402 31.889,129.724 31.796,130.093 31.727C130.231 31.704,130.289 31.624,130.289 31.497C130.312 31.29,130.358 31.094,130.358 30.898L130.657 23.018C130.68 22.799,130.68 22.604,130.68 22.385C130.68 21.843,130.646 21.29,130.588 20.726C130.53 20.196,129.874 19.781,129.298 19.781C129.16 19.781,129.021 19.793,128.895 19.862C128.849 19.896,128.802 19.942,128.745 20C128.192 20.726,127.443 21.094,126.545 21.14C126.36 21.152,126.314 21.21,126.314 21.29C126.314 21.336,126.326 21.405,126.349 21.475C126.395 21.636,126.545 21.659,126.66 21.67C127.074 21.751,127.478 21.843,127.869 21.843C128.088 21.843,128.319 21.809,128.538 21.74C128.607 21.705,128.664 21.705,128.722 21.693C128.837 21.693,128.883 21.786,128.883 22.004C128.883 23.064,128.849 24.124,128.779 25.172C128.618 27.281,128.664 29.389,128.503 31.497C128.48 31.796,128.653 31.889,129.021 31.889"/><path stroke="none" d="M131.487 32.108C131.625 32.188,131.74 32.073,131.844 31.992C132.282 31.624,132.8 31.324,133.284 31.013C133.595 30.817,133.917 30.748,134.24 30.748C134.447 30.748,134.655 30.76,134.862 30.817C135.219 30.898,135.576 31.048,135.933 31.174C136.567 31.405,137.201 31.578,137.811 31.578C138.537 31.578,139.251 31.382,139.954 30.932C140.783 30.403,141.382 29.7,141.29 28.64C141.29 28.502,141.29 28.329,141.198 28.271C141.083 28.202,140.945 28.306,140.852 28.387C140.645 28.559,140.449 28.709,140.265 28.893C139.965 29.181,139.654 29.366,139.274 29.504C138.894 29.631,138.502 29.7,138.122 29.7C137.477 29.7,136.832 29.516,136.221 29.251C135.703 29.055,135.185 28.893,134.632 28.893C134.378 28.893,134.125 28.916,133.86 28.986C134.01 28.801,134.079 28.721,134.159 28.64C134.793 28.006,135.392 27.361,135.991 26.693C137.201 25.357,137.995 23.779,138.122 21.935C138.145 21.82,138.145 21.705,138.145 21.601C138.145 20.541,137.696 20,136.751 19.677C136.406 19.562,136.072 19.516,135.738 19.516C135.058 19.516,134.413 19.712,133.768 20C132.881 20.38,132.282 21.106,131.625 21.774C131.095 22.304,130.68 22.845,130.68 23.583C130.68 23.698,130.68 23.825,130.715 23.963C130.726 24.044,130.68 24.159,130.68 24.239C130.68 24.332,130.715 24.412,130.842 24.412C130.98 24.412,131.095 24.262,131.187 24.159C131.256 24.09,131.291 24.032,131.337 23.974C131.89 23.329,132.454 22.719,133.088 22.166C133.71 21.624,134.493 21.371,135.242 21.371C135.876 21.371,136.463 21.555,136.97 21.924C137.143 22.051,137.327 22.2,137.327 22.419C137.327 22.488,137.293 22.569,137.258 22.65C136.982 23.352,136.613 24.032,136.118 24.62C135.403 25.472,134.632 26.255,133.848 27.05C132.996 27.926,132.27 28.905,131.625 29.953C131.406 30.299,131.314 30.633,131.314 30.99C131.314 31.128,131.325 31.255,131.337 31.393C131.36 31.508,131.36 31.647,131.36 31.773C131.371 31.912,131.394 32.038,131.487 32.108"/><path stroke="none" d="M144.485 23.239 A0.96 0.96 0 0 0 142.565 23.239 A0.96 0.96 0 0 0 144.485 23.239Z"/><path stroke="none" d="M144.485 26.439 A0.96 0.96 0 0 0 142.565 26.439 A0.96 0.96 0 0 0 144.485 26.439Z"/><path stroke="none" d="M149.127 31.889C149.507 31.889,149.829 31.796,150.198 31.727C150.336 31.704,150.394 31.624,150.394 31.497C150.417 31.29,150.463 31.094,150.463 30.898L150.763 23.018C150.786 22.799,150.786 22.604,150.786 22.385C150.786 21.843,150.751 21.29,150.693 20.726C150.636 20.196,149.979 19.781,149.403 19.781C149.265 19.781,149.127 19.793,149 19.862C148.954 19.896,148.908 19.942,148.85 20C148.297 20.726,147.548 21.094,146.65 21.14C146.466 21.152,146.42 21.21,146.42 21.29C146.42 21.336,146.431 21.405,146.454 21.475C146.5 21.636,146.65 21.659,146.765 21.67C147.18 21.751,147.583 21.843,147.975 21.843C148.194 21.843,148.424 21.809,148.643 21.74C148.712 21.705,148.77 21.705,148.827 21.693C148.942 21.693,148.988 21.786,148.988 22.004C148.988 23.064,148.954 24.124,148.885 25.172C148.724 27.281,148.77 29.389,148.608 31.497C148.585 31.796,148.758 31.889,149.127 31.889"/><path stroke="none" d="M157.456 33.962C157.617 34.008,157.755 33.87,157.836 33.732C158.055 33.455,158.078 33.121,158.135 32.787C158.32 31.209,158.285 29.619,158.343 28.041L158.343 27.88C158.93 27.764,159.472 27.557,160.025 27.315C160.831 26.935,160.969 26.728,160.958 25.852C160.958 25.437,160.866 25.253,160.658 25.242C160.555 25.242,160.405 25.288,160.22 25.391L160.105 25.437C159.541 25.691,158.965 25.887,158.366 26.002C158.366 25.276,158.331 24.539,158.297 23.813C158.262 23.203,158.251 22.569,158.193 21.958C158.181 21.82,158.193 21.555,157.986 21.555C157.778 21.555,157.64 21.693,157.617 21.935C157.605 22.235,157.513 22.534,157.536 22.834C157.548 23.928,157.582 25.023,157.582 26.106C157.387 26.117,157.191 26.117,157.006 26.106C155.993 26.036,155.002 25.864,153.965 25.887C153.608 25.887,153.239 25.898,152.871 25.956C153.239 25.253,153.539 24.608,153.919 23.974C154.795 22.534,155.739 21.106,156.361 19.493C156.511 19.113,156.626 18.733,156.626 18.341C156.626 18.226,156.603 18.111,156.592 17.984C156.569 17.892,156.569 17.708,156.442 17.708C156.304 17.696,156.142 17.742,156.062 17.869C156.004 17.972,155.947 18.053,155.912 18.157C155.682 18.906,155.267 19.551,154.875 20.207C154.403 21.025,153.85 21.809,153.366 22.615C152.686 23.767,152.122 24.954,151.292 26.002C151.028 26.336,150.786 26.682,150.786 27.096C150.786 27.246,150.82 27.396,150.878 27.546C150.947 27.695,151.028 27.845,151.028 27.995C151.051 28.237,151.097 28.329,151.235 28.34C151.292 28.34,151.396 28.306,151.511 28.237C152.249 27.926,152.986 27.764,153.769 27.764C154.795 27.764,155.831 27.926,156.857 27.995C156.972 28.006,157.087 28.006,157.202 28.029C157.317 28.029,157.433 28.029,157.548 27.995C157.513 28.94,157.502 29.884,157.433 30.829C157.398 31.555,157.317 32.292,157.317 33.052C157.317 33.236,157.317 33.398,157.34 33.571C157.34 33.72,157.317 33.916,157.456 33.962"/><path stroke="none" d="M161.765 32.108C161.903 32.188,162.018 32.073,162.122 31.992C162.56 31.624,163.078 31.324,163.562 31.013C163.873 30.817,164.196 30.748,164.518 30.748C164.725 30.748,164.933 30.76,165.14 30.817C165.497 30.898,165.854 31.048,166.212 31.174C166.845 31.405,167.479 31.578,168.089 31.578C168.815 31.578,169.529 31.382,170.232 30.932C171.061 30.403,171.66 29.7,171.568 28.64C171.568 28.502,171.568 28.329,171.476 28.271C171.361 28.202,171.223 28.306,171.131 28.387C170.923 28.559,170.727 28.709,170.543 28.893C170.244 29.181,169.932 29.366,169.552 29.504C169.172 29.631,168.78 29.7,168.4 29.7C167.755 29.7,167.11 29.516,166.5 29.251C165.981 29.055,165.463 28.893,164.91 28.893C164.656 28.893,164.403 28.916,164.138 28.986C164.288 28.801,164.357 28.721,164.437 28.64C165.071 28.006,165.67 27.361,166.269 26.693C167.479 25.357,168.274 23.779,168.4 21.935C168.423 21.82,168.423 21.705,168.423 21.601C168.423 20.541,167.974 20,167.029 19.677C166.684 19.562,166.35 19.516,166.016 19.516C165.336 19.516,164.691 19.712,164.046 20C163.159 20.38,162.56 21.106,161.903 21.774C161.373 22.304,160.958 22.845,160.958 23.583C160.958 23.698,160.958 23.825,160.993 23.963C161.004 24.044,160.958 24.159,160.958 24.239C160.958 24.332,160.993 24.412,161.12 24.412C161.258 24.412,161.373 24.262,161.465 24.159C161.534 24.09,161.569 24.032,161.615 23.974C162.168 23.329,162.732 22.719,163.366 22.166C163.988 21.624,164.772 21.371,165.52 21.371C166.154 21.371,166.741 21.555,167.248 21.924C167.421 22.051,167.605 22.2,167.605 22.419C167.605 22.488,167.571 22.569,167.536 22.65C167.26 23.352,166.891 24.032,166.396 24.62C165.682 25.472,164.91 26.255,164.126 27.05C163.274 27.926,162.548 28.905,161.903 29.953C161.684 30.299,161.592 30.633,161.592 30.99C161.592 31.128,161.604 31.255,161.615 31.393C161.638 31.508,161.638 31.647,161.638 31.773C161.65 31.912,161.673 32.038,161.765 32.108"/><rect x="255.954" y="30" width="23.584" height="1" stroke="none"/><rect x="313.91" y="30" width="23.584" height="1" stroke="none"/><rect x="255.954" y="30" width="1" height="10" stroke="none"/><rect x="337.494" y="30" width="1" height="10" stroke="none"/><path stroke="none" d="M287.026 37.554C287.579 37.738,288.109 37.831,288.616 37.831C289.664 37.831,290.643 37.439,291.507 36.69C292.567 35.745,292.936 34.501,292.936 33.188C292.936 32.889,292.913 32.577,292.878 32.278C292.786 31.345,292.256 30.619,291.323 30.239C291.069 30.158,290.828 30.089,290.563 30.02C291.519 28.88,292.337 27.705,293.178 26.518C293.397 26.218,293.5 25.896,293.5 25.539C293.5 25.412,293.477 25.262,293.443 25.113C293.397 24.917,293.316 24.836,293.178 24.836C293.132 24.836,293.085 24.848,293.016 24.859C292.648 24.963,292.279 24.974,291.922 24.974C291.012 24.974,290.079 24.951,289.169 24.951L288.524 24.951C287.51 24.951,286.496 24.951,285.505 25.043C285.171 25.078,284.998 25.216,284.952 25.562C284.883 25.896,284.906 26.241,284.872 26.587C284.849 26.806,284.906 26.91,285.137 26.91L285.183 26.91C285.77 26.852,286.358 26.817,286.957 26.817L291.473 26.817C290.563 28.05,289.664 29.121,288.616 30.089C287.994 30.665,287.372 31.195,287.372 32.082C287.372 32.232,287.395 32.393,287.441 32.577L287.441 32.612C287.429 32.739,287.429 32.889,287.579 32.958C287.694 33.004,287.809 32.946,287.89 32.854C288.316 32.428,288.881 32.301,289.434 32.163C289.629 32.117,289.825 32.082,290.01 32.082C290.493 32.082,290.954 32.243,291.357 32.577C291.622 32.773,291.968 33.027,291.968 33.395C291.968 33.453,291.957 33.511,291.933 33.568C291.634 34.536,291.093 35.296,290.125 35.665C289.653 35.849,289.169 35.93,288.696 35.93C287.867 35.93,287.061 35.665,286.277 35.25C285.943 35.054,285.667 34.905,285.551 34.501C285.528 34.421,285.517 34.202,285.356 34.202C285.321 34.202,285.298 34.202,285.263 34.225C285.091 34.271,284.952 34.398,284.952 34.651C284.918 35.204,285.056 35.676,285.171 36.206C285.229 36.494,285.436 36.725,285.701 36.886C286.127 37.139,286.542 37.393,287.026 37.554"/><path stroke="none" d="M296.691 28.72 A0.96 0.96 0 0 0 294.771 28.72 A0.96 0.96 0 0 0 296.691 28.72Z"/><path stroke="none" d="M296.691 31.92 A0.96 0.96 0 0 0 294.771 31.92 A0.96 0.96 0 0 0 296.691 31.92Z"/><path stroke="none" d="M299.431 37.589C299.57 37.669,299.685 37.554,299.788 37.473C300.226 37.105,300.745 36.805,301.228 36.494C301.539 36.298,301.862 36.229,302.185 36.229C302.392 36.229,302.599 36.241,302.807 36.298C303.164 36.379,303.521 36.529,303.878 36.656C304.512 36.886,305.145 37.059,305.756 37.059C306.482 37.059,307.196 36.863,307.898 36.414C308.728 35.884,309.327 35.181,309.235 34.121C309.235 33.983,309.235 33.81,309.143 33.753C309.027 33.683,308.889 33.787,308.797 33.868C308.59 34.041,308.394 34.19,308.21 34.375C307.91 34.663,307.599 34.847,307.219 34.985C306.839 35.112,306.447 35.181,306.067 35.181C305.422 35.181,304.777 34.997,304.166 34.732C303.648 34.536,303.129 34.375,302.576 34.375C302.323 34.375,302.069 34.398,301.804 34.467C301.954 34.282,302.023 34.202,302.104 34.121C302.738 33.488,303.337 32.842,303.936 32.174C305.145 30.838,305.94 29.26,306.067 27.417C306.09 27.301,306.09 27.186,306.09 27.082C306.09 26.023,305.641 25.481,304.696 25.159C304.35 25.043,304.016 24.997,303.682 24.997C303.002 24.997,302.357 25.193,301.712 25.481C300.825 25.861,300.226 26.587,299.57 27.255C299.04 27.785,298.625 28.327,298.625 29.064C298.625 29.179,298.625 29.306,298.659 29.444C298.671 29.525,298.625 29.64,298.625 29.721C298.625 29.813,298.659 29.893,298.786 29.893C298.924 29.893,299.04 29.744,299.132 29.64C299.201 29.571,299.235 29.513,299.282 29.456C299.834 28.81,300.399 28.2,301.033 27.647C301.655 27.105,302.438 26.852,303.187 26.852C303.82 26.852,304.408 27.036,304.915 27.405C305.088 27.532,305.272 27.681,305.272 27.9C305.272 27.969,305.237 28.05,305.203 28.131C304.926 28.833,304.558 29.513,304.062 30.101C303.348 30.953,302.576 31.737,301.793 32.531C300.94 33.407,300.215 34.386,299.57 35.434C299.351 35.78,299.258 36.114,299.258 36.471C299.258 36.609,299.27 36.736,299.282 36.874C299.305 36.99,299.305 37.128,299.305 37.255C299.316 37.393,299.339 37.52,299.431 37.589"/></svg>