<svg xmlns="http://www.w3.org/2000/svg" stroke-width="0.3" stroke-dasharray="none" fill="black" stroke="black" font-family="Arial, sans-serif" font-size="10pt" font-weight="normal" font-style="normal" width="600" height="200" viewBox="0 0 600 200" style="width: 600px; height: 200px; border: none;"><g class="vf-stave" id="vf-auto15787" stroke-width="1" fill="#999999" stroke="#999999"><path fill="none" d="M0 40L590 40"/><path fill="none" d="M0 50L590 50"/><path fill="none" d="M0 60L590 60"/><path fill="none" d="M0 70L590 70"/><path fill="none" d="M0 80L590 80"/></g><g class="vf-stavebarline" id="vf-auto15788"><rect y="39.5" width="1" height="41" stroke="none"/></g><g class="vf-stavebarline" id="vf-auto15789"><rect x="590" y="39.5" width="1" height="41" stroke="none"/></g><g class="vf-clef" id="vf-auto15790"><path stroke="none" d="M19.112 27.837C19.112 27.837,19.141 27.837,19.17 27.837C19.544 27.837,20.034 28.211,20.667 28.96C22.942 31.696,24.44 36.045,24.44 39.731C24.44 39.99,24.44 40.278,24.411 40.538C24.152 44.829,22.28 48.515,18.68 51.942C18.363 52.259,17.902 52.691,17.701 52.864L17.355 53.238L18.075 56.608C18.478 58.48,18.795 60.006,18.795 60.006C18.795 60.006,18.795 60.006,18.795 60.006C18.824 60.006,18.939 59.978,19.026 59.978C19.198 59.949,19.659 59.949,20.12 59.949C20.466 59.949,20.84 59.949,20.984 59.949C25.592 60.525,28.962 64.125,29.278 68.79C29.307 68.992,29.307 69.194,29.307 69.395C29.307 73.254,26.802 76.941,23.029 78.554C22.885 78.611,22.798 78.669,22.798 78.669C22.798 78.669,23 79.677,23.259 80.886C23.518 82.125,23.778 83.306,23.806 83.536C23.979 84.458,24.066 85.322,24.066 86.157C24.066 88.317,23.49 90.131,22.395 91.542C20.754 93.587,18.392 94.624,16.03 94.624C13.726 94.624,11.422 93.674,9.752 91.773C9.061 90.966,8.686 90.016,8.686 89.037C8.686 88.202,8.974 87.338,9.55 86.56C10.386 85.437,11.624 84.89,12.862 84.89C14.014 84.89,15.166 85.379,15.973 86.358C16.549 87.107,16.808 87.942,16.808 88.778C16.808 90.678,15.397 92.493,13.237 92.579L12.978 92.579L13.064 92.637C13.928 93.069,14.936 93.299,15.973 93.299C17.24 93.299,18.565 92.954,19.602 92.291C21.704 90.966,22.741 88.922,22.741 86.157C22.741 85.264,22.626 84.285,22.424 83.248C22.338 82.758,21.531 79.101,21.531 79.101C21.531 79.101,21.531 79.101,21.531 79.101C21.502 79.101,21.358 79.13,21.186 79.158C20.667 79.302,20.12 79.389,19.515 79.446C19.314 79.475,18.91 79.475,18.478 79.475C17.931 79.475,17.384 79.475,17.154 79.446C10.126 78.669,5 72.995,5 65.968C5 62.858,5.893 60.15,7.765 57.558C9.752 54.794,11.768 52.403,14.245 49.898L15.109 49.034L14.734 47.306C14.533 46.326,14.331 45.318,14.245 45.03C13.899 43.389,13.726 42.582,13.669 42.266C13.525 41.373,13.467 40.48,13.467 39.587C13.467 35.469,15.022 31.552,17.902 28.758C18.565 28.125,18.91 27.866,19.112 27.837M21.013 33.482C20.84 33.453,20.696 33.424,20.523 33.424C19.688 33.424,18.68 33.942,17.73 34.893C16.088 36.534,15.195 39.011,15.195 41.718C15.195 42.41,15.253 43.101,15.368 43.821C15.426 44.138,16.203 47.968,16.232 47.968C16.232 47.968,16.232 47.968,16.232 47.968C16.261 47.968,17.182 47.018,17.442 46.73C20.638 43.187,22.453 39.357,22.453 36.362C22.453 35.872,22.395 35.411,22.309 34.95C22.107 34.086,21.733 33.654,21.013 33.482M16.318 54.707C16.29 54.534,16.261 54.39,16.261 54.39C16.146 54.39,13.87 57.04,12.834 58.336C10.702 61.043,9.925 62.31,9.32 64.038C8.888 65.363,8.658 66.688,8.658 67.984C8.658 70.317,9.349 72.534,10.674 74.406C12.517 76.998,15.426 78.496,18.421 78.496C18.91 78.496,19.4 78.467,19.89 78.381C20.408 78.294,21.301 78.064,21.301 78.006C21.301 77.978,20.955 76.394,20.552 74.435C20.12 72.506,19.486 69.51,19.112 67.811C18.766 66.112,18.45 64.701,18.45 64.701C18.45 64.701,18.45 64.701,18.45 64.701C18.334 64.701,17.701 64.96,17.355 65.133C15.598 66.112,14.677 67.84,14.677 69.568C14.677 71.094,15.397 72.592,16.866 73.485C17.154 73.658,17.298 73.859,17.298 74.09C17.298 74.205,17.24 74.349,17.125 74.464C17.038 74.579,16.923 74.666,16.75 74.666C16.549 74.666,16.29 74.55,15.858 74.32C13.237 72.966,11.912 70.403,11.912 67.782C11.912 65.334,13.093 62.858,15.454 61.302C16.059 60.899,17.269 60.323,17.499 60.323C17.499 60.323,17.528 60.294,17.528 60.294C17.528 60.266,17.528 60.266,17.528 60.266C17.499 60.208,16.434 55.197,16.318 54.707M20.725 64.499C20.581 64.499,20.293 64.47,20.12 64.47L19.746 64.47L19.774 64.528C19.774 64.557,20.293 67.034,20.955 70.029C21.589 73.024,22.136 75.616,22.165 75.789C22.222 75.962,22.309 76.422,22.395 76.797L22.539 77.488L22.626 77.43C24.21 76.538,25.362 75.27,25.995 73.715C26.37 72.851,26.542 71.987,26.542 71.123C26.542 67.869,24.152 64.902,20.725 64.499"/></g><g class="vf-timesignature" id="vf-auto15791"><path stroke="none" d="M49.29 42.086C49.347 42.058,50.989 42.058,52.544 42.058C53.869 42.058,55.165 42.058,55.194 42.086C55.366 42.144,55.482 42.317,55.482 42.49C55.482 42.691,55.453 42.72,54.906 43.325C54.416 43.843,52.89 45.571,51.334 47.328C50.874 47.846,50.442 48.336,50.326 48.451C50.211 48.566,49.52 49.344,48.771 50.179C48.051 51.014,47.13 52.051,46.755 52.454C46.381 52.886,46.064 53.232,46.064 53.261C46.064 53.261,46.064 53.261,46.064 53.261C46.064 53.29,46.294 53.29,48.656 53.29L51.248 53.29L51.277 51.418C51.277 49.603,51.277 49.574,51.306 49.517C51.334 49.488,51.91 48.826,52.602 48.048C53.293 47.27,54.099 46.349,54.416 46.032C55.194 45.139,55.165 45.168,55.395 45.168C55.597 45.168,55.741 45.254,55.798 45.398C55.827 45.485,55.827 45.629,55.827 49.373L55.827 53.29L56.518 53.29C57.181 53.29,57.238 53.29,57.325 53.318C57.555 53.405,57.699 53.635,57.699 53.866C57.699 54.038,57.642 54.182,57.526 54.298C57.354 54.47,57.325 54.47,56.547 54.47L55.856 54.47L55.856 54.643C55.856 54.73,55.856 54.989,55.856 55.219C55.885 56.4,56.259 56.976,57.411 57.552C57.642 57.667,57.786 57.84,57.786 58.013C57.786 58.128,57.728 58.243,57.642 58.33C57.526 58.445,57.814 58.445,55.078 58.445C54.646 58.445,54.128 58.445,53.552 58.445C52.976 58.445,52.458 58.445,52.026 58.445C49.29 58.445,49.578 58.445,49.462 58.33C49.376 58.243,49.318 58.128,49.318 58.013C49.318 57.84,49.462 57.667,49.693 57.552C50.845 56.976,51.219 56.4,51.248 55.219C51.248 54.989,51.248 54.73,51.248 54.643L51.248 54.47L47.965 54.47C47.475 54.47,47.072 54.47,46.726 54.47C44.365 54.47,44.566 54.47,44.451 54.355C44.365 54.269,44.307 54.154,44.307 54.038C44.307 53.923,44.394 53.75,44.538 53.578C47.274 50.496,48.915 46.637,49.03 42.893C49.03 42.288,49.059 42.202,49.29 42.086M51.046 60L51.075 60L50.989 60M51.046 41.05L51.075 41.05L50.989 41.05"/><path stroke="none" d="M49.29 62.086C49.347 62.058,50.989 62.058,52.544 62.058C53.869 62.058,55.165 62.058,55.194 62.086C55.366 62.144,55.482 62.317,55.482 62.49C55.482 62.691,55.453 62.72,54.906 63.325C54.416 63.843,52.89 65.571,51.334 67.328C50.874 67.846,50.442 68.336,50.326 68.451C50.211 68.566,49.52 69.344,48.771 70.179C48.051 71.014,47.13 72.051,46.755 72.454C46.381 72.886,46.064 73.232,46.064 73.261C46.064 73.261,46.064 73.261,46.064 73.261C46.064 73.29,46.294 73.29,48.656 73.29L51.248 73.29L51.277 71.418C51.277 69.603,51.277 69.574,51.306 69.517C51.334 69.488,51.91 68.826,52.602 68.048C53.293 67.27,54.099 66.349,54.416 66.032C55.194 65.139,55.165 65.168,55.395 65.168C55.597 65.168,55.741 65.254,55.798 65.398C55.827 65.485,55.827 65.629,55.827 69.373L55.827 73.29L56.518 73.29C57.181 73.29,57.238 73.29,57.325 73.318C57.555 73.405,57.699 73.635,57.699 73.866C57.699 74.038,57.642 74.182,57.526 74.298C57.354 74.47,57.325 74.47,56.547 74.47L55.856 74.47L55.856 74.643C55.856 74.73,55.856 74.989,55.856 75.219C55.885 76.4,56.259 76.976,57.411 77.552C57.642 77.667,57.786 77.84,57.786 78.013C57.786 78.128,57.728 78.243,57.642 78.33C57.526 78.445,57.814 78.445,55.078 78.445C54.646 78.445,54.128 78.445,53.552 78.445C52.976 78.445,52.458 78.445,52.026 78.445C49.29 78.445,49.578 78.445,49.462 78.33C49.376 78.243,49.318 78.128,49.318 78.013C49.318 77.84,49.462 77.667,49.693 77.552C50.845 76.976,51.219 76.4,51.248 75.219C51.248 74.989,51.248 74.73,51.248 74.643L51.248 74.47L47.965 74.47C47.475 74.47,47.072 74.47,46.726 74.47C44.365 74.47,44.566 74.47,44.451 74.355C44.365 74.269,44.307 74.154,44.307 74.038C44.307 73.923,44.394 73.75,44.538 73.578C47.274 70.496,48.915 66.637,49.03 62.893C49.03 62.288,49.059 62.202,49.29 62.086M51.046 80L51.075 80L50.989 80M51.046 61.05L51.075 61.05L50.989 61.05"/></g><g class="vf-stavenote" id="vf-auto15795"><g class="vf-stem" id="vf-auto15796" pointer-events="bounding-box"><path stroke-width="1.5" fill="none" d="M111.89 43.5L111.89 10"/></g><g class="vf-notehead" id="vf-auto15799" pointer-events="bounding-box"><path stroke="none" d="M107.754 39.889C107.839 39.889,107.923 39.889,108.063 39.889C108.428 39.889,108.962 39.918,109.158 39.946C111.489 40.283,112.64 41.827,112.64 43.624C112.64 45.534,111.349 47.724,108.765 49.128C107.502 49.802,106.21 50.111,105.031 50.111C102.869 50.111,101.1 49.044,100.734 47.162C100.678 46.881,100.65 46.629,100.65 46.376C100.65 43.343,103.908 40.283,107.754 39.889M110.899 41.35C110.759 41.293,110.619 41.293,110.45 41.293C108.737 41.293,105.227 43.371,103.262 45.674C102.419 46.657,101.97 47.527,101.97 48.061C101.97 48.313,102.054 48.482,102.223 48.566C102.391 48.678,102.616 48.707,102.84 48.707C104.666 48.707,108.456 46.376,110.338 43.961C111.012 43.119,111.349 42.417,111.349 41.967C111.349 41.658,111.18 41.434,110.899 41.35"/><text stroke="none" font-size="9pt" font-weight="bold" x="91.65" y="50">0</text></g></g><g class="vf-stavenote" id="vf-auto15800"><g class="vf-stem" id="vf-auto15801" pointer-events="bounding-box"><path stroke-width="1.5" fill="none" d="M358.282 43.5L358.282 10"/></g><g class="vf-notehead" id="vf-auto15804" pointer-events="bounding-box"><path stroke="none" d="M354.146 39.889C354.23 39.889,354.315 39.889,354.455 39.889C354.82 39.889,355.354 39.918,355.55 39.946C357.881 40.283,359.032 41.827,359.032 43.624C359.032 45.534,357.74 47.724,355.157 49.128C353.893 49.802,352.602 50.111,351.422 50.111C349.26 50.111,347.491 49.044,347.126 47.162C347.07 46.881,347.042 46.629,347.042 46.376C347.042 43.343,350.299 40.283,354.146 39.889M357.291 41.35C357.151 41.293,357.01 41.293,356.842 41.293C355.129 41.293,351.619 43.371,349.653 45.674C348.811 46.657,348.362 47.527,348.362 48.061C348.362 48.313,348.446 48.482,348.614 48.566C348.783 48.678,349.008 48.707,349.232 48.707C351.057 48.707,354.848 46.376,356.73 43.961C357.403 43.119,357.74 42.417,357.74 41.967C357.74 41.658,357.572 41.434,357.291 41.35"/></g></g><g class="vf-stavenote" id="vf-auto15805"><g class="vf-notehead" id="vf-auto15923" pointer-events="bounding-box"><path stroke="none" d="M121.745 79.889C121.829 79.889,121.913 79.889,122.054 79.889C122.419 79.889,122.952 79.918,123.149 79.946C125.479 80.283,126.631 81.827,126.631 83.624C126.631 85.534,125.339 87.724,122.756 89.128C121.492 89.802,120.2 90.111,119.021 90.111C116.859 90.111,115.09 89.044,114.725 87.162C114.668 86.881,114.64 86.629,114.64 86.376C114.64 83.343,117.898 80.283,121.745 79.889"/><text stroke="none" font-size="9pt" font-weight="bold" x="91.65" y="90">0</text></g><g class="vf-notehead" id="vf-auto15922" pointer-events="bounding-box"><path stroke="none" d="M121.745 59.889C121.829 59.889,121.913 59.889,122.054 59.889C122.419 59.889,122.952 59.918,123.149 59.946C125.479 60.283,126.631 61.827,126.631 63.624C126.631 65.534,125.339 67.724,122.756 69.128C121.492 69.802,120.2 70.111,119.021 70.111C116.859 70.111,115.09 69.044,114.725 67.162C114.668 66.881,114.64 66.629,114.64 66.376C114.64 63.343,117.898 60.283,121.745 59.889"/><text stroke="none" font-size="9pt" font-weight="bold" x="91.65" y="70">4</text></g><g class="vf-notehead" id="vf-auto15921" pointer-events="bounding-box"><path stroke="none" d="M121.745 44.889C121.829 44.889,121.913 44.889,122.054 44.889C122.419 44.889,122.952 44.918,123.149 44.946C125.479 45.283,126.631 46.827,126.631 48.624C126.631 50.534,125.339 52.724,122.756 54.128C121.492 54.802,120.2 55.111,119.021 55.111C116.859 55.111,115.09 54.044,114.725 52.162C114.668 51.881,114.64 51.629,114.64 51.376C114.64 48.343,117.898 45.283,121.745 44.889"/><path stroke="none" d="M86.75 35.691C86.805 35.663,86.887 35.636,86.969 35.636C87.188 35.636,87.407 35.773,87.489 35.992C87.516 36.101,87.516 36.128,87.516 39.603C87.516 42.859,87.516 43.078,87.571 43.078C87.571 43.078,87.571 43.078,87.571 43.078C87.872 42.996,88.994 42.75,89.076 42.75C89.322 42.75,89.513 42.886,89.596 43.078C89.623 43.16,89.65 43.789,89.65 44.419C89.65 45.048,89.623 45.677,89.596 45.759C89.513 46.033,89.459 46.033,88.364 46.306L87.516 46.525L87.516 49.425C87.516 52.134,87.516 52.353,87.544 52.353C87.571 52.353,87.571 52.353,87.571 52.353C87.872 52.244,88.994 51.997,89.076 51.997C89.24 51.997,89.349 52.052,89.486 52.161C89.623 52.326,89.623 52.271,89.623 53.311C89.623 53.42,89.623 53.557,89.623 53.694C89.623 53.83,89.623 53.94,89.623 54.049C89.623 55.116,89.623 55.062,89.486 55.198C89.349 55.335,89.349 55.335,88.364 55.581L87.516 55.773L87.516 59.33C87.516 62.832,87.516 62.859,87.489 62.941C87.407 63.188,87.188 63.297,86.969 63.297C86.832 63.297,86.668 63.242,86.559 63.133C86.422 62.996,86.394 63.242,86.394 61.053C86.394 60.616,86.394 60.096,86.394 59.467C86.394 57.579,86.394 56.047,86.394 56.047C86.394 56.047,85.847 56.183,85.191 56.348C84.507 56.512,83.959 56.648,83.959 56.648C83.959 56.648,83.959 58.29,83.959 60.287C83.959 63.872,83.959 63.899,83.905 64.008C83.823 64.227,83.604 64.364,83.385 64.364C83.248 64.364,83.084 64.309,82.974 64.2C82.838 64.036,82.838 64.282,82.838 62.066C82.838 61.628,82.838 61.081,82.838 60.424C82.838 57.168,82.838 56.949,82.81 56.949C82.81 56.949,82.81 56.949,82.783 56.949C82.455 57.032,81.442 57.25,81.36 57.25C81.114 57.25,80.895 57.114,80.813 56.922C80.786 56.84,80.786 56.211,80.786 55.581C80.786 54.952,80.786 54.323,80.813 54.241C80.922 53.995,80.977 53.967,82.017 53.694L82.838 53.502L82.838 50.575C82.838 47.866,82.838 47.674,82.81 47.674C82.81 47.674,82.81 47.674,82.783 47.674C82.455 47.756,81.442 48.003,81.36 48.003C81.114 48.003,80.895 47.866,80.813 47.647C80.786 47.592,80.786 46.936,80.786 46.306C80.786 45.677,80.786 45.048,80.813 44.966C80.922 44.72,80.977 44.692,82.017 44.446L82.838 44.254L82.838 40.698C82.838 37.168,82.838 37.141,82.865 37.059C82.947 36.812,83.166 36.703,83.385 36.703C83.522 36.703,83.686 36.758,83.795 36.867C83.932 37.004,83.959 36.758,83.959 38.947C83.959 39.384,83.959 39.904,83.959 40.561C83.959 42.421,83.959 43.953,83.959 43.953C83.959 43.953,84.507 43.817,85.163 43.68C85.847 43.516,86.394 43.379,86.394 43.379C86.394 43.379,86.394 41.737,86.394 39.74C86.394 36.128,86.394 36.101,86.449 35.992C86.476 35.882,86.613 35.745,86.75 35.691M86.394 49.699C86.394 47.401,86.394 46.799,86.394 46.799L86.394 46.799C86.367 46.799,86.176 46.826,85.957 46.908C85.738 46.963,85.191 47.072,84.753 47.182L83.959 47.401L83.959 50.301C83.959 51.915,83.959 53.228,83.959 53.228C83.959 53.228,84.507 53.092,85.163 52.928C85.847 52.763,86.394 52.627,86.394 52.627C86.394 52.627,86.394 51.313,86.394 49.699"/></g></g><g class="vf-stavenote" id="vf-auto15821"><g class="vf-notehead" id="vf-auto15925" pointer-events="bounding-box"><path stroke="none" d="M176.347 54.889C176.432 54.889,176.516 54.889,176.656 54.889C177.021 54.889,177.555 54.918,177.751 54.946C180.082 55.283,181.233 56.827,181.233 58.624C181.233 60.534,179.942 62.724,177.358 64.128C176.095 64.802,174.803 65.111,173.624 65.111C171.462 65.111,169.693 64.044,169.327 62.162C169.271 61.881,169.243 61.629,169.243 61.376C169.243 58.343,172.501 55.283,176.347 54.889"/></g></g><g class="vf-stavenote" id="vf-auto15829"><g class="vf-notehead" id="vf-auto15929" pointer-events="bounding-box"><path stroke="none" d="M244.94 79.889C245.025 79.889,245.109 79.889,245.249 79.889C245.614 79.889,246.148 79.918,246.344 79.946C248.675 80.283,249.826 81.827,249.826 83.624C249.826 85.534,248.535 87.724,245.951 89.128C244.688 89.802,243.396 90.111,242.217 90.111C240.055 90.111,238.286 89.044,237.92 87.162C237.864 86.881,237.836 86.629,237.836 86.376C237.836 83.343,241.094 80.283,244.94 79.889"/></g><g class="vf-notehead" id="vf-auto15928" pointer-events="bounding-box"><path stroke="none" d="M244.94 59.889C245.025 59.889,245.109 59.889,245.249 59.889C245.614 59.889,246.148 59.918,246.344 59.946C248.675 60.283,249.826 61.827,249.826 63.624C249.826 65.534,248.535 67.724,245.951 69.128C244.688 69.802,243.396 70.111,242.217 70.111C240.055 70.111,238.286 69.044,237.92 67.162C237.864 66.881,237.836 66.629,237.836 66.376C237.836 63.343,241.094 60.283,244.94 59.889"/></g><g class="vf-notehead" id="vf-auto15927" pointer-events="bounding-box"><path stroke="none" d="M244.94 49.889C245.025 49.889,245.109 49.889,245.249 49.889C245.614 49.889,246.148 49.918,246.344 49.946C248.675 50.283,249.826 51.827,249.826 53.624C249.826 55.534,248.535 57.724,245.951 59.128C244.688 59.802,243.396 60.111,242.217 60.111C240.055 60.111,238.286 59.044,237.92 57.162C237.864 56.881,237.836 56.629,237.836 56.376C237.836 53.343,241.094 50.283,244.94 49.889"/></g></g><g class="vf-stavenote" id="vf-auto15843"><g class="vf-notehead" id="vf-auto15931" pointer-events="bounding-box"><path stroke="none" d="M299.543 54.889C299.628 54.889,299.712 54.889,299.852 54.889C300.217 54.889,300.751 54.918,300.947 54.946C303.278 55.283,304.429 56.827,304.429 58.624C304.429 60.534,303.138 62.724,300.554 64.128C299.291 64.802,297.999 65.111,296.82 65.111C294.657 65.111,292.888 64.044,292.523 62.162C292.467 61.881,292.439 61.629,292.439 61.376C292.439 58.343,295.696 55.283,299.543 54.889"/></g></g><g class="vf-stavenote" id="vf-auto15851"><g class="vf-notehead" id="vf-auto15935" pointer-events="bounding-box"><path stroke="none" d="M368.136 79.889C368.221 79.889,368.305 79.889,368.445 79.889C368.81 79.889,369.344 79.918,369.54 79.946C371.871 80.283,373.022 81.827,373.022 83.624C373.022 85.534,371.731 87.724,369.147 89.128C367.884 89.802,366.592 90.111,365.413 90.111C363.25 90.111,361.481 89.044,361.116 87.162C361.06 86.881,361.032 86.629,361.032 86.376C361.032 83.343,364.289 80.283,368.136 79.889"/></g><g class="vf-notehead" id="vf-auto15934" pointer-events="bounding-box"><path stroke="none" d="M368.136 59.889C368.221 59.889,368.305 59.889,368.445 59.889C368.81 59.889,369.344 59.918,369.54 59.946C371.871 60.283,373.022 61.827,373.022 63.624C373.022 65.534,371.731 67.724,369.147 69.128C367.884 69.802,366.592 70.111,365.413 70.111C363.25 70.111,361.481 69.044,361.116 67.162C361.06 66.881,361.032 66.629,361.032 66.376C361.032 63.343,364.289 60.283,368.136 59.889"/></g><g class="vf-notehead" id="vf-auto15933" pointer-events="bounding-box"><path stroke="none" d="M368.136 49.889C368.221 49.889,368.305 49.889,368.445 49.889C368.81 49.889,369.344 49.918,369.54 49.946C371.871 50.283,373.022 51.827,373.022 53.624C373.022 55.534,371.731 57.724,369.147 59.128C367.884 59.802,366.592 60.111,365.413 60.111C363.25 60.111,361.481 59.044,361.116 57.162C361.06 56.881,361.032 56.629,361.032 56.376C361.032 53.343,364.289 50.283,368.136 49.889"/></g></g><g class="vf-stavenote" id="vf-auto15865"><g class="vf-notehead" id="vf-auto15937" pointer-events="bounding-box"><path stroke="none" d="M422.739 54.889C422.823 54.889,422.908 54.889,423.048 54.889C423.413 54.889,423.947 54.918,424.143 54.946C426.474 55.283,427.625 56.827,427.625 58.624C427.625 60.534,426.333 62.724,423.75 64.128C422.486 64.802,421.195 65.111,420.015 65.111C417.853 65.111,416.084 64.044,415.719 62.162C415.663 61.881,415.635 61.629,415.635 61.376C415.635 58.343,418.892 55.283,422.739 54.889"/></g></g><g class="vf-stavenote" id="vf-auto15873"><g class="vf-notehead" id="vf-auto15941" pointer-events="bounding-box"><path stroke="none" d="M491.332 79.889C491.416 79.889,491.501 79.889,491.641 79.889C492.006 79.889,492.54 79.918,492.736 79.946C495.067 80.283,496.218 81.827,496.218 83.624C496.218 85.534,494.926 87.724,492.343 89.128C491.079 89.802,489.788 90.111,488.608 90.111C486.446 90.111,484.677 89.044,484.312 87.162C484.256 86.881,484.228 86.629,484.228 86.376C484.228 83.343,487.485 80.283,491.332 79.889"/></g><g class="vf-notehead" id="vf-auto15940" pointer-events="bounding-box"><path stroke="none" d="M491.332 59.889C491.416 59.889,491.501 59.889,491.641 59.889C492.006 59.889,492.54 59.918,492.736 59.946C495.067 60.283,496.218 61.827,496.218 63.624C496.218 65.534,494.926 67.724,492.343 69.128C491.079 69.802,489.788 70.111,488.608 70.111C486.446 70.111,484.677 69.044,484.312 67.162C484.256 66.881,484.228 66.629,484.228 66.376C484.228 63.343,487.485 60.283,491.332 59.889"/></g><g class="vf-notehead" id="vf-auto15939" pointer-events="bounding-box"><path stroke="none" d="M491.332 49.889C491.416 49.889,491.501 49.889,491.641 49.889C492.006 49.889,492.54 49.918,492.736 49.946C495.067 50.283,496.218 51.827,496.218 53.624C496.218 55.534,494.926 57.724,492.343 59.128C491.079 59.802,489.788 60.111,488.608 60.111C486.446 60.111,484.677 59.044,484.312 57.162C484.256 56.881,484.228 56.629,484.228 56.376C484.228 53.343,487.485 50.283,491.332 49.889"/></g></g><g class="vf-stavenote" id="vf-auto15887"><g class="vf-notehead" id="vf-auto15943" pointer-events="bounding-box"><path stroke="none" d="M545.935 54.889C546.019 54.889,546.104 54.889,546.244 54.889C546.609 54.889,547.142 54.918,547.339 54.946C549.67 55.283,550.821 56.827,550.821 58.624C550.821 60.534,549.529 62.724,546.946 64.128C545.682 64.802,544.391 65.111,543.211 65.111C541.049 65.111,539.28 64.044,538.915 62.162C538.859 61.881,538.831 61.629,538.831 61.376C538.831 58.343,542.088 55.283,545.935 54.889"/></g></g><g class="vf-stavenote" id="vf-auto15895"><path stroke-width="1.4" fill="none" stroke="#444" d="M97.65 90L115.64 90"/><g class="vf-stem" id="vf-auto15896" pointer-events="bounding-box"><path stroke-width="1.5" fill="none" d="M101.4 96.5L101.4 130"/></g><g class="vf-notehead" id="vf-auto15949" pointer-events="bounding-box"><path stroke="none" d="M107.754 89.889C107.839 89.889,107.923 89.889,108.063 89.889C108.428 89.889,108.962 89.918,109.158 89.946C111.489 90.283,112.64 91.827,112.64 93.624C112.64 95.534,111.349 97.724,108.765 99.128C107.502 99.802,106.21 100.111,105.031 100.111C102.869 100.111,101.1 99.044,100.734 97.162C100.678 96.881,100.65 96.629,100.65 96.376C100.65 93.343,103.908 90.283,107.754 89.889"/></g></g><g class="vf-stavenote" id="vf-auto15900"><path stroke-width="1.4" fill="none" stroke="#444" d="M220.846 90L238.836 90"/><path stroke-width="1.4" fill="none" stroke="#444" d="M220.846 100L238.836 100"/><path stroke-width="1.4" fill="none" stroke="#444" d="M220.846 110L238.836 110"/><g class="vf-stem" id="vf-auto15901" pointer-events="bounding-box"><path stroke-width="1.5" fill="none" d="M224.596 116.5L224.596 150"/></g><g class="vf-notehead" id="vf-auto15904" pointer-events="bounding-box"><path stroke="none" d="M230.95 109.889C231.035 109.889,231.119 109.889,231.259 109.889C231.624 109.889,232.158 109.918,232.354 109.946C234.685 110.283,235.836 111.827,235.836 113.624C235.836 115.534,234.545 117.724,231.961 119.128C230.698 119.802,229.406 120.111,228.227 120.111C226.064 120.111,224.295 119.044,223.93 117.162C223.874 116.881,223.846 116.629,223.846 116.376C223.846 113.343,227.103 110.283,230.95 109.889"/></g></g><g class="vf-stavenote" id="vf-auto15905"><path stroke-width="1.4" fill="none" stroke="#444" d="M344.042 90L362.032 90"/><path stroke-width="1.4" fill="none" stroke="#444" d="M344.042 100L362.032 100"/><path stroke-width="1.4" fill="none" stroke="#444" d="M344.042 110L362.032 110"/><g class="vf-stem" id="vf-auto15906" pointer-events="bounding-box"><path stroke-width="1.5" fill="none" d="M347.792 111.5L347.792 145"/></g><g class="vf-notehead" id="vf-auto15950" pointer-events="bounding-box"><path stroke="none" d="M354.146 104.889C354.23 104.889,354.315 104.889,354.455 104.889C354.82 104.889,355.354 104.918,355.55 104.946C357.881 105.283,359.032 106.827,359.032 108.624C359.032 110.534,357.74 112.724,355.157 114.128C353.893 114.802,352.602 115.111,351.422 115.111C349.26 115.111,347.491 114.044,347.126 112.162C347.07 111.881,347.042 111.629,347.042 111.376C347.042 108.343,350.299 105.283,354.146 104.889"/></g></g><g class="vf-stavenote" id="vf-auto15910"><path stroke-width="1.4" fill="none" stroke="#444" d="M467.238 90L485.228 90"/><path stroke-width="1.4" fill="none" stroke="#444" d="M467.238 100L485.228 100"/><g class="vf-stem" id="vf-auto15911" pointer-events="bounding-box"><path stroke-width="1.5" fill="none" d="M470.988 101.5L470.988 135"/></g><g class="vf-notehead" id="vf-auto15914" pointer-events="bounding-box"><path stroke="none" d="M477.342 94.889C477.426 94.889,477.511 94.889,477.651 94.889C478.016 94.889,478.549 94.918,478.746 94.946C481.077 95.283,482.228 96.827,482.228 98.624C482.228 100.534,480.936 102.724,478.353 104.128C477.089 104.802,475.798 105.111,474.618 105.111C472.456 105.111,470.687 104.044,470.322 102.162C470.266 101.881,470.238 101.629,470.238 101.376C470.238 98.343,473.495 95.283,477.342 94.889"/></g></g><g class="vf-stem" id="vf-auto15806" pointer-events="bounding-box"><path stroke-width="1.5" fill="none" d="M115.39 51.5L115.39 119.25"/></g><g class="vf-stem" id="vf-auto15822" pointer-events="bounding-box"><path stroke-width="1.5" fill="none" d="M169.993 61.5L169.993 106.964"/></g><g class="vf-beam" id="vf-auto15945"><path stroke="none" d="M114.64 120.169L114.64 115.169L170.243 102.883L170.243 107.883Z"/></g><g class="vf-stem" id="vf-auto15830" pointer-events="bounding-box"><path stroke-width="1.5" fill="none" d="M238.586 56.5L238.586 119.25"/></g><g class="vf-stem" id="vf-auto15844" pointer-events="bounding-box"><path stroke-width="1.5" fill="none" d="M293.189 61.5L293.189 106.964"/></g><g class="vf-beam" id="vf-auto15946"><path stroke="none" d="M237.836 120.169L237.836 115.169L293.439 102.883L293.439 107.883Z"/></g><g class="vf-stem" id="vf-auto15852" pointer-events="bounding-box"><path stroke-width="1.5" fill="none" d="M361.782 56.5L361.782 119.25"/></g><g class="vf-stem" id="vf-auto15866" pointer-events="bounding-box"><path stroke-width="1.5" fill="none" d="M416.385 61.5L416.385 106.964"/></g><g class="vf-beam" id="vf-auto15947"><path stroke="none" d="M361.032 120.169L361.032 115.169L416.635 102.883L416.635 107.883Z"/></g><g class="vf-stem" id="vf-auto15874" pointer-events="bounding-box"><path stroke-width="1.5" fill="none" d="M484.978 56.5L484.978 119.25"/></g><g class="vf-stem" id="vf-auto15888" pointer-events="bounding-box"><path stroke-width="1.5" fill="none" d="M539.581 61.5L539.581 106.964"/></g><g class="vf-beam" id="vf-auto15948"><path stroke="none" d="M484.228 120.169L484.228 115.169L539.831 102.883L539.831 107.883Z"/></g></svg>