<svg xmlns="http://www.w3.org/2000/svg" stroke-width="0.3" stroke-dasharray="none" fill="black" stroke="black" font-family="Arial, sans-serif" font-size="10pt" font-weight="normal" font-style="normal" width="700" height="200" viewBox="0 0 700 200" style="width: 700px; height: 200px; border: none;"><g class="vf-stave" id="vf-auto10660" stroke-width="1" fill="#999999" stroke="#999999"><path fill="none" d="M10 50L655.321 50"/><path fill="none" d="M10 60L655.321 60"/><path fill="none" d="M10 70L655.321 70"/><path fill="none" d="M10 80L655.321 80"/><path fill="none" d="M10 90L655.321 90"/></g><g class="vf-stavebarline" id="vf-auto10661"/><g class="vf-stavebarline" id="vf-auto10662"><rect x="655.321" y="49.5" width="1" height="41" stroke="none"/></g><g class="vf-clef" id="vf-auto10663"><path stroke="none" d="M24.262 75.766C28.64 75.121,31.497 72.541,33.524 68.831C34.837 66.366,35.137 63.716,35.183 60.721C35.183 60.237,35.114 59.477,34.999 58.74C34.469 54.5,31.658 52.335,27.902 52.335C27.649 52.335,27.349 52.335,27.073 52.358C23.594 52.657,20.507 53.924,18.018 56.413C16.935 57.519,15.852 58.601,15.392 60.168C15.276 60.652,15.207 61.136,15.207 61.551C15.207 63.048,15.991 64.246,17.58 64.984C17.696 65.007,17.765 65.076,17.857 65.099C18.341 65.375,18.825 65.513,19.285 65.513C19.954 65.513,20.576 65.237,21.175 64.753C22.488 63.67,23.087 62.357,23.087 60.859C23.087 60.329,23.018 59.8,22.903 59.27C22.857 59.062,22.834 58.878,22.834 58.671C22.834 57.772,23.364 57.15,24.423 57.081C24.677 57.035,24.93 57.035,25.161 57.035C26.75 57.035,28.202 57.519,29.377 58.671C30.852 60.122,31.681 62.011,32.142 64.108C32.211 64.338,32.211 64.615,32.211 64.799C32.211 65.583,31.957 66.228,31.52 66.942C30.852 68.025,30.068 68.946,29.008 69.753C26.935 71.32,24.562 71.965,22.073 71.965L19.908 71.965C18.548 71.965,17.212 71.919,15.899 71.504C15.392 71.343,15 71.734,15 72.218C15 72.31,15 72.402,15.023 72.495C15.138 72.863,15.23 73.232,15.392 73.577C15.806 74.43,16.152 75.259,17.327 75.49C18.779 75.789,20.184 75.951,21.636 75.951C22.488 75.951,23.364 75.881,24.262 75.766M38.455 57.38C38.985 57.403,39.607 57.288,39.883 56.781C40.321 56.044,40.736 55.353,40.736 54.454C40.736 54.224,40.713 53.97,40.644 53.694C40.39 52.657,39.607 53.141,39.077 52.864C38.685 52.657,38.593 53.187,38.432 53.464C37.787 54.431,37.948 55.583,37.671 56.643C37.556 57.012,37.717 57.403,38.224 57.403M37.395 65.974C38.593 65.928,39.653 64.338,39.653 62.91C39.653 61.919,39.077 62.08,38.616 61.919C38.132 61.712,37.994 62.127,37.787 62.426C37.188 63.279,37.188 64.315,36.865 65.237C36.727 65.606,36.865 65.974,37.326 65.974"/></g><g class="vf-stavenote" id="vf-auto10559"><g class="vf-stem" id="vf-auto10560" pointer-events="bounding-box"><path stroke-width="1.5" fill="none" d="M90.746 73L90.746 40"/></g><g class="vf-notehead" id="vf-auto10562" pointer-events="bounding-box"><path stroke="none" d="M81.632 81.543C81.913 81.599,82.166 81.627,82.447 81.627C86.322 81.627,92.106 76.348,91.994 72.08C91.882 71.041,91.91 69.609,89.804 68.766C89.214 68.485,88.568 68.373,87.866 68.373C83.542 68.373,78.853 73.343,78.516 76.657C78.516 76.909,78.488 77.134,78.488 77.387C78.488 79.409,79.386 81.037,81.632 81.543"/><path stroke="none" d="M65.138 90.13C65.439 90.103,65.521 89.665,65.603 89.391C65.767 88.872,65.795 88.352,65.795 87.887C65.795 87.449,65.767 87.066,65.767 86.628C65.767 86.354,65.767 85.999,65.795 85.725C65.877 84.932,65.959 84.138,65.986 83.345L67.737 82.989C67.819 84.658,68.12 86.272,68.667 87.832C68.722 88.051,68.859 88.27,69.105 88.27C69.351 88.324,69.433 88.051,69.543 87.832C69.816 87.421,69.844 86.902,69.844 86.436C69.899 86.081,69.899 85.752,69.899 85.452C69.899 84.494,69.816 83.509,69.789 82.551L72.06 82.086C74.221 81.648,74.495 81.348,74.659 79.268C74.659 78.748,74.714 78.393,74.659 77.982C74.632 77.49,74.413 77.134,74.003 77.134L73.92 77.134C73.756 77.134,73.647 77.134,73.483 77.161C72.58 77.408,71.595 77.599,70.637 77.763L69.981 77.873C70.008 77.326,70.008 76.724,70.063 76.149C70.09 74.891,70.117 73.632,70.117 72.373C71.239 72.072,72.306 71.772,73.373 71.416C73.948 71.224,74.468 70.896,74.632 70.267C74.769 69.555,74.988 68.899,74.988 68.187C74.988 67.777,74.933 67.367,74.769 66.956C74.632 66.573,74.495 66.382,74.276 66.382L74.194 66.382C74.057 66.382,73.92 66.382,73.756 66.464C72.525 66.956,71.321 67.367,70.063 67.722L69.926 65.588C69.844 63.892,69.789 62.168,69.433 60.472C69.351 60.253,69.379 59.897,69.132 59.897L69.105 59.897L68.996 59.897C68.667 59.979,68.284 60.116,68.23 60.554L68.23 61.293C68.23 63.618,68.312 65.889,68.366 68.187L66.26 68.652C66.26 67.476,66.232 66.3,66.15 65.123C66.123 64.521,66.123 63.974,65.795 63.372C64.919 63.81,65.056 64.548,65.056 65.178C64.974 66.464,64.919 67.668,64.892 68.899C63.797 69.118,62.676 69.282,61.581 69.473C59.967 69.747,59.721 69.993,59.721 71.772C59.611 72.209,59.94 72.702,59.885 73.194C59.803 73.933,59.994 74.179,60.514 74.207C60.624 74.207,60.76 74.179,60.924 74.124C62.21 73.933,63.469 73.741,64.728 73.495L64.618 77.052C64.563 77.709,64.509 78.338,64.427 78.967C62.949 79.268,61.499 79.542,60.049 79.897C59.228 80.089,58.736 80.39,58.736 81.348C58.736 82.278,59.091 83.153,59.146 84.056C59.146 84.494,59.256 84.685,59.584 84.74C59.639 84.74,59.775 84.685,59.94 84.658C61.335 84.33,62.758 84.056,64.18 83.755C64.153 84.248,64.153 84.768,64.153 85.315C64.153 86.71,64.29 88.051,64.782 89.391C64.864 89.665,64.782 90.13,65.138 90.13M66.178 78.612C66.232 77.763,66.232 76.888,66.26 76.012C66.314 75.082,66.314 74.179,66.314 73.222C66.971 73.112,67.6 73.003,68.23 72.839C68.038 74.644,67.956 76.45,67.847 78.283"/></g></g><g class="vf-stavenote" id="vf-auto10565"><g class="vf-stem" id="vf-auto10566" pointer-events="bounding-box"><path stroke-width="1.5" fill="none" d="M123.912 73L123.912 40"/></g><g class="vf-notehead" id="vf-auto10568" pointer-events="bounding-box"><path stroke="none" d="M114.799 81.543C115.079 81.599,115.332 81.627,115.613 81.627C119.488 81.627,125.273 76.348,125.16 72.08C125.048 71.041,125.076 69.609,122.97 68.766C122.38 68.485,121.734 68.373,121.032 68.373C116.708 68.373,112.019 73.343,111.682 76.657C111.682 76.909,111.654 77.134,111.654 77.387C111.654 79.409,112.552 81.037,114.799 81.543"/><path stroke="none" d="M99.152 81.265C99.344 81.265,99.535 81.156,99.782 80.91C100.63 80.089,101.423 79.213,102.326 78.42C102.654 78.146,102.928 77.873,103.202 77.599C104.269 78.42,105.336 79.296,106.348 80.171C106.594 80.363,106.786 80.472,106.977 80.472C107.251 80.472,107.497 80.253,107.689 79.897C108.072 79.213,107.962 78.42,108.126 77.791C108.072 76.888,107.798 76.259,107.169 75.739L105.746 74.617C106.43 73.851,107.087 73.14,107.853 72.51C108.072 72.373,108.154 72.072,108.154 71.525C108.044 70.951,107.716 70.185,107.306 69.528C106.977 68.981,106.704 68.735,106.43 68.735C106.156 68.735,105.828 68.899,105.445 69.254C105.062 69.555,104.652 69.884,104.351 70.239C103.749 70.869,103.202 71.498,102.654 72.155C101.587 71.388,100.466 70.595,99.371 69.884C99.207 69.747,99.098 69.72,98.988 69.72C98.906 69.72,98.824 69.72,98.715 69.802C98.55 69.911,98.304 69.884,98.167 70.103C98.031 70.404,97.948 70.787,97.948 71.252C97.948 72.483,98.386 74.124,99.07 74.562C99.289 74.726,99.535 74.891,99.782 75.082C98.933 75.876,98.085 76.696,97.237 77.572C97.018 77.791,96.854 78.119,96.854 78.393C96.854 78.666,96.936 78.94,97.182 79.213C97.565 79.815,98.167 80.28,98.55 80.882C98.742 81.156,98.933 81.265,99.152 81.265"/></g></g><g class="vf-stavenote" id="vf-auto10571"><g class="vf-stem" id="vf-auto10572" pointer-events="bounding-box"><path stroke-width="1.5" fill="none" d="M157.078 73L157.078 40"/></g><g class="vf-notehead" id="vf-auto10574" pointer-events="bounding-box"><path stroke="none" d="M147.965 81.543C148.246 81.599,148.498 81.627,148.779 81.627C152.654 81.627,158.439 76.348,158.326 72.08C158.214 71.041,158.242 69.609,156.136 68.766C155.546 68.485,154.901 68.373,154.199 68.373C149.874 68.373,145.185 73.343,144.848 76.657C144.848 76.909,144.82 77.134,144.82 77.387C144.82 79.409,145.718 81.037,147.965 81.543"/><path stroke="none" d="M133.933 83.208C134.042 83.208,134.206 83.126,134.398 82.907C134.918 82.497,135.492 82.059,136.067 81.648C139.514 79.186,141.375 75.821,141.375 71.525C141.375 70.978,141.375 70.458,141.293 69.911C141.101 67.996,140.007 66.874,138.338 66.874C137.982 66.874,137.599 66.956,137.161 67.093C136.614 67.23,136.067 67.503,135.492 67.75L135.465 67.777L135.465 66.765C135.465 65.26,135.547 63.782,135.629 62.278C135.629 61.402,135.711 60.581,135.711 59.706C135.711 58.885,135.629 58.009,135.437 57.189C135.355 56.915,135.355 56.395,134.945 56.395L134.918 56.395C134.48 56.45,134.152 56.806,134.152 57.353C134.124 58.447,134.015 59.596,134.042 60.691L134.042 61.922C134.042 64.248,133.933 66.573,133.851 68.899C133.741 72.237,133.167 75.52,133.167 78.858C133.167 80.171,133.249 81.539,133.604 82.852C133.686 83.071,133.769 83.208,133.933 83.208M135 77.873C135.082 76.86,135.109 75.793,135.219 74.672C135.301 73.824,135.355 72.948,135.355 72.072L135.492 72.018C136.258 71.689,136.997 71.306,137.818 71.306C138.091 71.306,138.42 71.388,138.721 71.498C139.377 71.717,139.678 72.045,139.651 72.483C139.651 72.702,139.596 72.948,139.432 73.276C138.42 75.274,136.751 76.614,135 77.873"/></g></g><g class="vf-stavenote" id="vf-auto10577"><g class="vf-stem" id="vf-auto10578" pointer-events="bounding-box"><path stroke-width="1.5" fill="none" d="M190.731 73L190.731 40"/></g><g class="vf-notehead" id="vf-auto10580" pointer-events="bounding-box"><path stroke="none" d="M181.618 81.543C181.899 81.599,182.152 81.627,182.432 81.627C186.307 81.627,192.092 76.348,191.98 72.08C191.867 71.041,191.895 69.609,189.789 68.766C189.2 68.485,188.554 68.373,187.852 68.373C183.528 68.373,178.838 73.343,178.501 76.657C178.501 76.909,178.473 77.134,178.473 77.387C178.473 79.409,179.372 81.037,181.618 81.543"/><path stroke="none" d="M162.004 83.673C162.333 83.673,162.552 83.482,162.798 83.235C163.783 82.332,164.494 81.183,165.206 80.089C165.917 78.967,166.628 77.791,167.285 76.642C167.258 77.326,167.203 77.955,167.203 78.584C167.203 79.405,167.258 80.198,167.367 81.019C167.394 81.375,167.367 81.566,167.914 81.731C168.598 81.895,168.79 81.512,169.063 81.238C170.924 79.46,172.21 77.326,173.55 75.192C174.508 73.687,174.973 72.045,174.973 70.267C174.973 68.735,174.645 67.23,173.167 66.6C172.757 66.464,172.374 66.382,172.018 66.382C171.28 66.382,170.568 66.655,169.884 67.148C169.693 67.284,169.583 67.503,169.337 67.503L169.31 67.503L169.31 59.514C169.31 58.994,169.364 58.502,169.173 58.009C169.063 57.818,169.173 57.435,168.872 57.435L168.817 57.435C168.544 57.462,168.106 57.599,168.051 57.982C167.914 58.42,167.832 58.858,167.75 59.268C167.613 60.691,167.559 62.113,167.559 63.564C167.559 65.15,167.613 66.737,167.613 68.352L167.613 69.884C166.847 68.844,166.108 68.488,165.315 68.488C164.658 68.488,163.892 68.817,163.154 69.172C163.154 68.981,163.126 68.844,163.126 68.735C163.154 67.941,163.181 67.148,163.181 66.382C163.181 64.439,163.072 62.469,163.044 60.554C163.044 60.034,162.962 59.514,162.771 59.076C162.634 58.858,162.688 58.502,162.36 58.502L162.278 58.502C161.922 58.584,161.539 58.639,161.457 59.131C161.375 59.514,161.348 59.897,161.348 60.308C161.348 60.499,161.348 60.745,161.375 60.937C161.485 62.086,161.539 63.18,161.539 64.33C161.539 67.284,161.266 70.239,161.211 73.194C161.184 75.328,160.828 77.49,160.828 79.596C160.828 80.636,160.91 81.621,161.156 82.633C161.266 83.044,161.211 83.427,161.649 83.591C161.786 83.673,161.895 83.673,162.004 83.673M169.063 76.97C169.091 76.231,169.091 75.52,169.091 74.808L169.091 72.647C169.145 71.689,169.611 71.033,170.431 70.677C170.705 70.54,171.033 70.458,171.307 70.458C171.827 70.458,172.292 70.704,172.73 71.088C172.894 71.224,173.003 71.388,173.003 71.525C173.003 71.662,172.976 71.772,172.894 71.881C171.69 73.659,170.513 75.383,169.063 76.97M162.88 79.022C162.88 77.353,162.88 75.793,162.825 74.179C162.825 73.304,163.345 72.921,164.056 72.756C164.221 72.702,164.33 72.702,164.44 72.702C165.096 72.702,165.589 73.112,166.026 73.577C166.081 73.659,166.108 73.769,166.108 73.906C166.108 73.988,166.108 74.042,166.081 74.097C165.124 75.821,164.248 77.599,162.88 79.022"/></g></g><g class="vf-stavenote" id="vf-auto10583"><g class="vf-stem" id="vf-auto10584" pointer-events="bounding-box"><path stroke-width="1.5" fill="none" d="M223.897 73L223.897 40"/></g><g class="vf-notehead" id="vf-auto10586" pointer-events="bounding-box"><path stroke="none" d="M214.784 81.543C215.065 81.599,215.318 81.627,215.599 81.627C219.474 81.627,225.258 76.348,225.146 72.08C225.033 71.041,225.062 69.609,222.956 68.766C222.366 68.485,221.72 68.373,221.018 68.373C216.694 68.373,212.004 73.343,211.667 76.657C211.667 76.909,211.639 77.134,211.639 77.387C211.639 79.409,212.538 81.037,214.784 81.543"/><path stroke="none" d="M206.696 92.976C207.134 92.976,207.243 92.401,207.407 92.073C207.435 91.826,207.517 91.635,207.517 91.389C207.599 88.68,207.626 85.944,207.708 83.208C207.708 81.922,207.626 80.664,207.626 79.405C207.708 76.778,207.845 74.124,207.927 71.498C207.927 71.498,207.982 70.896,208.037 70.404L208.037 70.267L208.064 69.802L208.064 69.555L208.119 68.844C208.119 68.735,208.201 68.269,208.037 67.914C207.845 67.503,207.982 66.655,207.161 66.847C205.301 67.367,203.385 67.558,201.443 67.722C201.58 65.479,201.689 63.18,201.689 60.937C201.689 60.198,201.689 59.487,201.662 58.721C201.662 58.064,201.525 57.435,201.251 56.806C199.965 57.189,200.184 58.365,200.184 59.159C200.239 63.153,199.911 67.093,199.801 71.06C199.747 72.428,199.719 73.824,199.719 75.192C199.719 76.368,199.747 77.517,199.801 78.666C199.801 79.46,199.911 80.253,199.911 80.992C199.911 81.648,200.184 81.867,200.677 81.867C200.786 81.867,200.896 81.867,201.06 81.813L205.821 81.101L206.012 81.074L206.012 84.822C206.012 86.218,205.821 87.695,205.821 89.118C205.821 90.048,205.903 91.006,206.176 91.936C206.286 92.346,206.176 92.976,206.696 92.976M201.306 76.724C201.251 75.383,201.169 74.097,201.224 72.784L201.251 72.291C201.498 72.291,201.771 72.319,202.045 72.291C203.385 72.155,204.726 72.072,206.067 72.045L206.286 72.018L206.176 73.194C206.149 74.207,206.067 75.274,206.067 76.313C204.48 76.724,202.866 76.997,201.306 77.216"/></g></g><g class="vf-stavenote" id="vf-auto10589"><g class="vf-stem" id="vf-auto10590" pointer-events="bounding-box"><path stroke-width="1.5" fill="none" d="M257.064 73L257.064 40"/></g><g class="vf-notehead" id="vf-auto10592" pointer-events="bounding-box"><path stroke="none" d="M247.95 81.543C248.231 81.599,248.484 81.627,248.765 81.627C252.64 81.627,258.424 76.348,258.312 72.08C258.2 71.041,258.228 69.609,256.122 68.766C255.532 68.485,254.886 68.373,254.184 68.373C249.86 68.373,245.171 73.343,244.834 76.657C244.834 76.909,244.805 77.134,244.805 77.387C244.805 79.409,245.704 81.037,247.95 81.543"/></g></g><g class="vf-stavenote" id="vf-auto10593"><g class="vf-stem" id="vf-auto10594" pointer-events="bounding-box"><path stroke-width="1.5" fill="none" d="M296.465 73L296.465 40"/></g><g class="vf-notehead" id="vf-auto10596" pointer-events="bounding-box"><path stroke="none" d="M287.352 81.543C287.633 81.599,287.885 81.627,288.166 81.627C292.041 81.627,297.826 76.348,297.713 72.08C297.601 71.041,297.629 69.609,295.523 68.766C294.934 68.485,294.288 68.373,293.586 68.373C289.261 68.373,284.572 73.343,284.235 76.657C284.235 76.909,284.207 77.134,284.207 77.387C284.207 79.409,285.106 81.037,287.352 81.543"/><path stroke="none" d="M267.273 57.736C267.328 57.708,267.383 57.708,267.465 57.708C267.711 57.708,267.93 57.818,268.012 58.037C268.039 58.146,268.039 58.146,268.039 61.457C268.039 63.317,268.039 64.795,268.039 64.795C268.039 64.795,269.216 64.33,270.639 63.782L273.238 62.743L273.238 60.472C273.238 58.201,273.238 58.146,273.292 58.037C273.375 57.818,273.593 57.708,273.812 57.708C273.949 57.708,274.113 57.736,274.223 57.845C274.359 58.037,274.359 57.818,274.359 60.198L274.359 62.332L276.111 61.621C277.561 61.074,277.916 60.937,278.08 60.937C278.163 60.937,278.217 60.937,278.245 60.964C278.491 61.046,278.6 61.265,278.6 61.484C278.6 61.676,278.546 61.867,278.354 61.977C278.327 62.031,277.424 62.36,276.329 62.797L274.359 63.591L274.359 67.257L274.359 70.951L274.442 70.869C275.454 69.993,276.576 69.555,277.615 69.555C278.026 69.555,278.436 69.61,278.847 69.774C280.023 70.185,280.707 71.334,280.707 72.702C280.707 73.413,280.515 74.207,280.105 75C279.503 76.094,278.737 76.97,276.576 78.885L274.469 80.882C274.059 81.265,274.031 81.265,273.812 81.265C273.621 81.265,273.511 81.211,273.402 81.101C273.238 80.937,273.238 81.101,273.238 79.323C273.238 79.049,273.238 78.721,273.238 78.283L273.238 75.793L273.101 75.93C272.472 76.778,271.842 77.408,270.228 78.885L268.121 80.882C267.738 81.265,267.656 81.265,267.465 81.265C267.246 81.265,267.054 81.129,266.972 80.937L266.945 80.882L266.918 73.687L266.918 66.518L265.221 67.148C263.853 67.722,263.525 67.832,263.333 67.832C263.306 67.832,263.251 67.832,263.197 67.804C262.95 67.722,262.814 67.503,262.814 67.257C262.814 67.066,262.923 66.874,263.087 66.765C263.115 66.737,263.963 66.382,265.002 66.026L266.918 65.26L266.918 61.676L266.945 58.119L266.972 58.009C267.027 57.873,267.164 57.763,267.273 57.736M273.238 67.12C273.238 65.397,273.238 64.029,273.238 64.029C273.21 64.029,272.061 64.494,270.611 65.014L268.039 66.053L268.039 68.488L268.039 70.951L268.067 70.869C269.106 69.993,270.283 69.555,271.323 69.555C271.979 69.555,272.608 69.747,273.128 70.075L273.21 70.157C273.21 70.157,273.21 70.157,273.21 70.157C273.238 70.157,273.238 69.555,273.238 67.12M270.502 71.416C270.392 71.361,270.228 71.361,270.119 71.361C270.037 71.361,269.982 71.361,269.927 71.361C269.216 71.471,268.587 71.908,268.149 72.62L268.039 72.811L268.039 76.012L268.039 79.268L268.121 79.159C270.119 76.97,271.432 74.453,271.432 72.784L271.432 72.729C271.432 71.908,271.158 71.553,270.502 71.416M276.822 71.416C276.712 71.361,276.576 71.361,276.466 71.361C276.411 71.361,276.329 71.361,276.302 71.361C275.591 71.471,274.961 71.908,274.524 72.62L274.359 72.811L274.359 76.012L274.359 79.268L274.469 79.159C276.466 76.97,277.752 74.453,277.752 72.784L277.752 72.729C277.752 71.908,277.533 71.553,276.822 71.416"/></g></g><g class="vf-stavenote" id="vf-auto10599"><g class="vf-stem" id="vf-auto10600" pointer-events="bounding-box"><path stroke-width="1.5" fill="none" d="M329.631 73L329.631 40"/></g><g class="vf-notehead" id="vf-auto10602" pointer-events="bounding-box"><path stroke="none" d="M320.518 81.543C320.799 81.599,321.052 81.627,321.332 81.627C325.208 81.627,330.992 76.348,330.88 72.08C330.767 71.041,330.795 69.609,328.689 68.766C328.1 68.485,327.454 68.373,326.752 68.373C322.428 68.373,317.738 73.343,317.401 76.657C317.401 76.909,317.373 77.134,317.373 77.387C317.373 79.409,318.272 81.037,320.518 81.543"/><path stroke="none" d="M313.938 71.498C313.746 69.555,312.652 68.461,310.983 68.461C310.627 68.461,310.244 68.543,309.807 68.652C309.259 68.817,308.712 69.09,308.165 69.336L308.11 69.364L308.11 68.352L308.11 68.133C309.506 67.558,310.874 66.929,312.214 66.327C312.57 66.135,312.898 65.862,313.008 65.506C313.309 64.713,313.473 63.919,313.363 63.098C313.227 62.36,313.035 62.278,312.242 62.579C310.928 63.18,309.588 63.81,308.247 64.412C308.274 64.193,308.274 64.001,308.274 63.837L308.274 63.208C309.615 62.661,310.928 62.168,312.214 61.594C312.57 61.457,312.898 61.183,313.008 60.855C313.309 60.061,313.473 59.35,313.363 58.611C313.227 57.9,313.035 57.818,312.242 58.146L308.274 59.788C308.247 59.432,308.165 59.076,308.083 58.776C308.001 58.502,308.001 57.982,307.618 57.982L307.563 57.982C307.125 58.009,306.824 58.365,306.824 58.912C306.824 59.405,306.77 59.897,306.742 60.417C305.675 60.855,304.608 61.238,303.514 61.648C303.049 61.812,302.802 62.086,302.802 62.551C302.748 63.454,302.967 64.357,303.049 65.342C304.252 64.822,305.484 64.357,306.688 63.837C306.688 64.275,306.688 64.685,306.688 65.068L303.514 66.382C303.049 66.518,302.802 66.847,302.802 67.312C302.748 68.297,302.967 69.282,303.049 70.349L306.578 68.817C306.551 69.364,306.496 69.911,306.496 70.458C306.387 73.824,305.867 77.079,305.839 80.445C305.839 81.731,305.921 83.126,306.277 84.412C306.332 84.658,306.414 84.768,306.578 84.768C306.688 84.768,306.852 84.685,307.043 84.494C307.563 84.056,308.165 83.618,308.712 83.235C312.187 80.746,314.02 77.408,314.02 73.112C314.02 72.565,314.02 72.045,313.938 71.498M312.296 74.042C312.296 74.289,312.242 74.535,312.105 74.836C311.147 76.888,309.424 78.201,307.645 79.46C307.727 78.42,307.755 77.353,307.891 76.259C307.973 75.383,308.001 74.535,308.001 73.659L308.165 73.577C308.904 73.276,309.642 72.866,310.491 72.866C310.764 72.866,311.065 72.948,311.393 73.057C312.023 73.304,312.324 73.632,312.296 74.042"/></g></g><g class="vf-stavenote" id="vf-auto10605"><g class="vf-stem" id="vf-auto10606" pointer-events="bounding-box"><path stroke-width="1.5" fill="none" d="M362.797 73L362.797 40"/></g><g class="vf-notehead" id="vf-auto10608" pointer-events="bounding-box"><path stroke="none" d="M353.684 81.543C353.965 81.599,354.218 81.627,354.499 81.627C358.374 81.627,364.158 76.348,364.046 72.08C363.934 71.041,363.962 69.609,361.856 68.766C361.266 68.485,360.62 68.373,359.918 68.373C355.594 68.373,350.904 73.343,350.567 76.657C350.567 76.909,350.539 77.134,350.539 77.387C350.539 79.409,351.438 81.037,353.684 81.543"/><path stroke="none" d="M339.744 84.302C339.854 84.302,340.018 84.22,340.209 84.029C340.729 83.591,341.331 83.153,341.878 82.77C345.353 80.28,347.186 76.943,347.186 72.647C347.186 72.072,347.186 71.58,347.104 71.033C346.913 69.09,345.818 67.996,344.149 67.996C343.794 67.996,343.411 68.078,342.973 68.187C342.426 68.352,341.878 68.625,341.331 68.844L341.276 68.899L341.276 67.859C341.276 67.202,341.331 66.518,341.331 65.862C342.699 65.232,344.04 64.548,345.38 63.892C345.736 63.7,346.064 63.372,346.174 62.989C346.393 62.278,346.557 61.594,346.557 60.882C346.557 60.691,346.557 60.499,346.53 60.308C346.393 59.788,346.338 59.569,346.064 59.569C345.928 59.569,345.709 59.624,345.408 59.76C344.095 60.308,342.809 61.046,341.468 61.676C341.523 61.402,341.523 61.128,341.523 60.828C341.523 59.979,341.441 59.131,341.249 58.283C341.167 58.009,341.167 57.517,340.784 57.517L340.729 57.517C340.291 57.544,339.991 57.9,339.991 58.447C339.936 59.569,339.826 60.691,339.854 61.812L339.854 62.469C338.814 62.989,337.747 63.509,336.68 63.919C336.215 64.138,335.969 64.439,335.969 64.986C335.914 66.108,336.133 67.148,336.215 68.352C337.419 67.75,338.595 67.202,339.799 66.6L339.662 69.993C339.553 73.358,339.006 76.614,339.006 79.952C339.006 81.265,339.088 82.633,339.443 83.947C339.498 84.193,339.58 84.302,339.744 84.302M340.811 78.967C340.893 77.955,340.921 76.888,341.058 75.793C341.14 74.918,341.167 74.042,341.167 73.194L341.331 73.112C342.07 72.784,342.809 72.401,343.657 72.401C343.93 72.401,344.231 72.483,344.56 72.592C345.189 72.839,345.49 73.14,345.463 73.577C345.463 73.824,345.408 74.042,345.271 74.371C344.231 76.368,342.59 77.709,340.811 78.967"/></g></g><g class="vf-stavenote" id="vf-auto10611"><g class="vf-stem" id="vf-auto10612" pointer-events="bounding-box"><path stroke-width="1.5" fill="none" d="M398.94 73L398.94 40"/></g><g class="vf-notehead" id="vf-auto10614" pointer-events="bounding-box"><path stroke="none" d="M389.827 81.543C390.108 81.599,390.361 81.627,390.642 81.627C394.517 81.627,400.301 76.348,400.189 72.08C400.077 71.041,400.105 69.609,397.999 68.766C397.409 68.485,396.763 68.373,396.061 68.373C391.737 68.373,387.047 73.343,386.71 76.657C386.71 76.909,386.682 77.134,386.682 77.387C386.682 79.409,387.581 81.037,389.827 81.543"/><path stroke="none" d="M373.989 84.467C374.154 84.467,374.236 84.33,374.318 84.111C374.673 82.798,374.755 81.43,374.755 80.116C374.755 76.778,374.181 73.495,374.071 70.157C373.989 67.832,373.88 65.506,373.88 63.18L373.88 61.949C373.907 60.855,373.798 59.706,373.771 58.611C373.771 58.064,373.442 57.708,373.004 57.654L372.977 57.654C372.567 57.654,372.567 58.174,372.485 58.447C372.293 59.268,372.211 60.144,372.211 60.964C372.211 61.84,372.293 62.661,372.293 63.536C372.375 65.041,372.457 66.518,372.457 68.023L372.457 69.063L372.43 69.008C371.855 68.762,371.308 68.488,370.761 68.352C370.323 68.215,369.94 68.133,369.584 68.133C367.915 68.133,366.821 69.254,366.63 71.17C366.547 71.717,366.547 72.237,366.547 72.784C366.547 77.079,368.408 80.445,371.855 82.907C372.43 83.317,373.004 83.755,373.524 84.193C373.716 84.384,373.88 84.467,373.989 84.467M375.74 84.467C375.85 84.467,376.014 84.384,376.206 84.193C376.725 83.755,377.3 83.317,377.847 82.907C381.322 80.445,383.182 77.079,383.182 72.784C383.182 72.237,383.182 71.717,383.1 71.17C382.909 69.254,381.787 68.133,380.145 68.133C379.79 68.133,379.379 68.215,378.969 68.352C378.394 68.488,377.847 68.762,377.3 69.008L377.273 69.063L377.273 68.023C377.273 66.518,377.355 65.041,377.409 63.536C377.409 62.661,377.491 61.84,377.491 60.964C377.491 60.144,377.409 59.268,377.218 58.447C377.136 58.174,377.136 57.654,376.753 57.654L376.725 57.654C376.288 57.708,375.959 58.064,375.959 58.611C375.932 59.706,375.795 60.855,375.85 61.949L375.85 63.18C375.85 65.506,375.74 67.832,375.658 70.157C375.522 73.495,374.974 76.778,374.974 80.116C374.974 81.43,375.056 82.798,375.412 84.111C375.494 84.33,375.576 84.467,375.74 84.467M372.922 79.131C371.144 77.873,369.502 76.532,368.49 74.535C368.326 74.207,368.271 73.988,368.271 73.741C368.244 73.304,368.545 73.003,369.174 72.756C369.502 72.647,369.831 72.565,370.104 72.565C370.925 72.565,371.664 72.948,372.43 73.276L372.567 73.358C372.567 74.207,372.621 75.082,372.703 75.958C372.813 77.052,372.84 78.119,372.922 79.131M376.78 79.131C376.862 78.119,376.917 77.052,377.026 75.958C377.108 75.082,377.136 74.207,377.136 73.358L377.3 73.276C378.039 72.948,378.805 72.565,379.626 72.565C379.899 72.565,380.227 72.647,380.528 72.756C381.158 73.003,381.486 73.304,381.431 73.741C381.431 73.988,381.404 74.207,381.24 74.535C380.227 76.532,378.559 77.873,376.78 79.131"/></g></g><g class="vf-stavenote" id="vf-auto10617"><g class="vf-stem" id="vf-auto10618" pointer-events="bounding-box"><path stroke-width="1.5" fill="none" d="M432.107 73L432.107 40"/></g><g class="vf-notehead" id="vf-auto10620" pointer-events="bounding-box"><path stroke="none" d="M422.993 81.543C423.274 81.599,423.527 81.627,423.808 81.627C427.683 81.627,433.467 76.348,433.355 72.08C433.243 71.041,433.271 69.609,431.165 68.766C430.575 68.485,429.929 68.373,429.227 68.373C424.903 68.373,420.214 73.343,419.877 76.657C419.877 76.909,419.849 77.134,419.849 77.387C419.849 79.409,420.747 81.037,422.993 81.543"/><path stroke="none" d="M415.582 84.467C415.747 84.467,415.829 84.33,415.911 84.111C416.266 82.798,416.349 81.43,416.349 80.116C416.349 76.778,415.774 73.495,415.665 70.157C415.582 67.832,415.473 65.506,415.473 63.18L415.473 61.949C415.5 60.855,415.391 59.706,415.364 58.611C415.364 58.064,415.035 57.708,414.597 57.654L414.57 57.654C414.16 57.654,414.16 58.174,414.078 58.447C413.886 59.268,413.804 60.144,413.804 60.964C413.804 61.84,413.886 62.661,413.886 63.536C413.968 65.041,414.05 66.518,414.05 68.023L414.05 69.063L414.023 69.008C413.448 68.762,412.901 68.488,412.354 68.352C411.916 68.215,411.533 68.133,411.177 68.133C409.509 68.133,408.414 69.254,408.223 71.17C408.141 71.717,408.141 72.237,408.141 72.784C408.141 77.079,410.001 80.445,413.448 82.907C414.023 83.317,414.597 83.755,415.117 84.193C415.309 84.384,415.473 84.467,415.582 84.467M414.515 79.131C412.737 77.873,411.095 76.532,410.083 74.535C409.919 74.207,409.864 73.988,409.864 73.741C409.837 73.304,410.138 73.003,410.767 72.756C411.095 72.647,411.424 72.565,411.697 72.565C412.518 72.565,413.257 72.948,414.023 73.276L414.16 73.358C414.16 74.207,414.214 75.082,414.297 75.958C414.406 77.052,414.433 78.119,414.515 79.131"/></g></g><g class="vf-stavenote" id="vf-auto10623"><g class="vf-stem" id="vf-auto10624" pointer-events="bounding-box"><path stroke-width="1.5" fill="none" d="M465.273 73L465.273 40"/></g><g class="vf-notehead" id="vf-auto10626" pointer-events="bounding-box"><path stroke="none" d="M456.16 81.543C456.44 81.599,456.693 81.627,456.974 81.627C460.849 81.627,466.634 76.348,466.521 72.08C466.409 71.041,466.437 69.609,464.331 68.766C463.741 68.485,463.095 68.373,462.393 68.373C458.069 68.373,453.38 73.343,453.043 76.657C453.043 76.909,453.015 77.134,453.015 77.387C453.015 79.409,453.913 81.037,456.16 81.543"/><path stroke="none" d="M445.766 60.362C445.821 60.308,445.876 60.308,445.985 60.308C446.232 60.308,446.423 60.417,446.505 60.663L446.532 60.745L446.587 63.536L446.587 66.354L447.271 66.163C447.682 66.081,447.983 66.026,448.174 66.026C448.448 66.026,448.502 66.135,448.612 66.354C448.667 66.382,448.667 67.066,448.667 67.722C448.667 68.406,448.667 69.063,448.612 69.118C448.502 69.364,448.448 69.391,447.682 69.583C446.724 69.802,446.587 69.856,446.587 69.884C446.587 69.884,446.587 70.239,446.587 70.732C446.587 70.869,446.587 71.06,446.587 71.279L446.587 72.702L446.861 72.62L447.983 72.319C448.584 72.209,448.858 72.127,448.995 72.127C449.132 72.127,449.214 72.155,449.296 72.237C449.487 72.401,449.515 72.428,449.515 73.331C449.515 73.495,449.515 73.687,449.515 73.906L449.515 75.137L449.487 75.219C449.433 75.328,449.296 75.492,449.186 75.52C449.132 75.52,448.448 75.711,446.916 76.094C446.724 76.122,446.587 76.176,446.587 76.176C446.587 76.176,446.587 76.614,446.587 77.271C446.587 77.38,446.587 77.49,446.587 77.599L446.587 78.967L447.271 78.83C447.736 78.721,447.983 78.639,448.174 78.639C448.338 78.639,448.448 78.721,448.502 78.83C448.667 78.967,448.667 78.885,448.667 79.952L448.667 80.39L448.667 80.746C448.667 81.813,448.667 81.758,448.502 81.895C448.393 82.059,448.448 82.059,447.162 82.36C446.916 82.442,446.642 82.469,446.615 82.497L446.587 82.497L446.532 85.342L446.532 88.215L446.505 88.324C446.423 88.543,446.204 88.653,445.985 88.653C445.766 88.653,445.575 88.543,445.465 88.324L445.411 88.215L445.411 85.506L445.411 82.798L445.383 82.798L444.754 82.962L443.605 83.235C443.304 83.345,443.003 83.372,443.003 83.427C442.976 83.427,442.976 83.564,442.976 86.354L442.976 89.309L442.921 89.391C442.812 89.61,442.593 89.72,442.401 89.72C442.182 89.72,441.963 89.61,441.854 89.391L441.799 89.309L441.799 86.491C441.799 83.919,441.799 83.673,441.772 83.673C441.772 83.673,441.772 83.673,441.772 83.673C441.471 83.81,440.431 84.029,440.322 84.029C440.103 84.029,439.911 83.919,439.802 83.673C439.747 83.618,439.747 83.618,439.747 82.305L439.747 80.992L439.829 80.91C439.939 80.636,439.939 80.636,441.471 80.253L441.799 80.198L441.799 78.776C441.799 77.49,441.799 77.38,441.772 77.38C441.772 77.38,441.772 77.38,441.772 77.38C441.772 77.38,441.58 77.408,441.361 77.49L440.294 77.763C439.829 77.873,439.583 77.9,439.419 77.9C439.309 77.9,439.227 77.873,439.118 77.791C438.954 77.654,438.926 77.599,438.926 76.696C438.926 76.532,438.954 76.341,438.954 76.122L438.954 74.891L438.981 74.836C439.008 74.699,439.118 74.59,439.227 74.562C439.282 74.508,439.993 74.343,441.444 73.988L441.799 73.878L441.799 72.456C441.799 71.17,441.799 71.06,441.772 71.06C441.772 71.06,441.772 71.06,441.772 71.06C441.471 71.142,440.431 71.416,440.322 71.416C440.103 71.416,439.911 71.252,439.802 71.06C439.747 70.978,439.747 70.951,439.747 69.665L439.747 68.379L439.829 68.297C439.939 68.023,439.939 68.023,441.471 67.64L441.799 67.531L441.799 64.685L441.799 61.84L441.854 61.73C441.963 61.539,442.182 61.375,442.401 61.375C442.483 61.375,442.565 61.429,442.62 61.457C442.729 61.484,442.839 61.621,442.921 61.73L442.976 61.84L442.976 64.521L442.976 67.257L443.112 67.23C443.195 67.202,443.632 67.066,444.152 66.956L445.247 66.71L445.411 66.655L445.411 63.7L445.411 60.745L445.465 60.663C445.52 60.554,445.602 60.417,445.766 60.362M445.411 71.553C445.411 70.787,445.411 70.157,445.383 70.157L445.383 70.157C445.383 70.157,445.11 70.239,444.781 70.294L443.605 70.595C443.249 70.677,442.976 70.759,442.976 70.759C442.976 70.759,442.976 71.115,442.976 71.607C442.976 71.799,442.976 71.963,442.976 72.209L442.976 73.577L443.14 73.523L445.192 73.03L445.411 72.975L445.411 71.553M445.411 77.873C445.411 76.778,445.411 76.477,445.383 76.477L445.383 76.477C445.383 76.477,445.356 76.477,445.274 76.505C445.164 76.505,444.535 76.696,443.66 76.888L443.03 77.079L442.976 77.079L442.976 78.475L442.976 79.897L443.112 79.843C443.195 79.843,443.632 79.733,444.152 79.569L445.247 79.323L445.411 79.268L445.411 77.873"/></g></g><g class="vf-stavenote" id="vf-auto10629"><g class="vf-stem" id="vf-auto10630" pointer-events="bounding-box"><path stroke-width="1.5" fill="none" d="M500.978 73L500.978 40"/></g><g class="vf-notehead" id="vf-auto10632" pointer-events="bounding-box"><path stroke="none" d="M491.865 81.543C492.146 81.599,492.398 81.627,492.679 81.627C496.554 81.627,502.339 76.348,502.226 72.08C502.114 71.041,502.142 69.609,500.036 68.766C499.446 68.485,498.801 68.373,498.099 68.373C493.774 68.373,489.085 73.343,488.748 76.657C488.748 76.909,488.72 77.134,488.72 77.387C488.72 79.409,489.618 81.037,491.865 81.543"/><path stroke="none" d="M473.045 89.692C473.674 89.172,473.701 88.543,473.701 87.996C473.701 86.3,473.866 84.658,473.948 82.989C474.522 82.852,475.124 82.716,475.726 82.606C475.808 84.111,476.082 85.643,476.574 87.148C476.711 87.421,476.793 87.722,477.067 87.777C477.368 87.832,477.477 87.449,477.614 87.203C477.915 86.382,477.805 85.506,477.915 84.494C477.833 83.755,477.805 82.962,477.805 82.168L480.158 81.703C480.158 82.278,480.158 82.88,480.213 83.509C480.295 84.768,480.295 86.081,480.596 87.476C481.198 86.929,481.28 86.436,481.307 85.835C481.417 84.85,481.499 83.837,481.499 82.852C481.499 82.36,481.499 81.895,481.472 81.43C481.745 81.375,481.991 81.348,482.265 81.265C484.262 80.882,484.892 80.445,484.892 77.681L484.892 77.435C484.864 76.614,484.7 76.341,484.18 76.341C484.043 76.341,483.797 76.341,483.524 76.423C482.758 76.532,482.074 76.724,481.362 76.86C481.39 75.793,481.472 74.672,481.499 73.577C481.554 72.784,481.554 72.018,481.581 71.17C482.21 71.033,482.84 70.814,483.469 70.622C484.317 70.349,484.864 69.829,485.028 69.008C485.165 68.434,485.056 67.832,485.22 67.367C485.22 66.135,485.028 65.67,484.426 65.67C484.153 65.67,483.797 65.752,483.332 65.944C482.812 66.135,482.292 66.3,481.745 66.491C481.855 64.275,482.019 62.113,482.21 59.897C482.265 59.596,482.292 59.268,482.292 58.912C482.292 58.611,482.265 58.283,482.128 57.982C482.074 57.791,482.183 57.462,481.855 57.462C481.636 57.462,481.417 57.599,481.362 57.818C481.225 58.009,481.143 58.283,481.116 58.529C480.76 61.293,480.596 64.083,480.487 66.874C479.666 67.12,478.872 67.312,478.052 67.503C477.997 66.327,477.97 65.15,477.887 63.974C477.805 62.633,477.696 61.293,477.422 59.952C477.34 59.569,477.176 59.432,477.012 59.432C476.848 59.432,476.711 59.596,476.492 59.706C476.273 59.843,476.218 60.061,476.218 60.308L476.218 61.648C476.218 62.743,476.273 63.81,476.301 64.904C476.383 65.889,476.437 66.874,476.383 67.859C475.671 68.023,474.933 68.133,474.194 68.297C474.139 66.929,474.139 65.533,474.139 64.165C474.139 63.974,474.112 63.782,474.03 63.618C473.893 63.427,474.03 63.016,473.756 63.016L473.701 63.016C473.428 63.071,473.154 63.29,473.154 63.7C473.154 64.248,473.045 64.767,472.99 65.315C472.908 66.382,472.908 67.449,472.908 68.488C472.361 68.625,471.814 68.707,471.266 68.817C470.363 68.926,470.008 69.473,470.008 70.54C470.008 71.224,470.172 71.881,470.117 72.51C470.117 73.112,470.281 73.304,470.719 73.304C470.801 73.304,470.883 73.276,470.993 73.276C471.567 73.194,472.169 73.057,472.771 73.003C472.771 73.741,472.716 74.535,472.689 75.274L472.443 78.612L470.199 79.104C469.406 79.296,469.023 79.651,469.023 80.581C469.05 81.566,469.406 82.497,469.406 83.482C469.406 83.783,469.57 83.865,469.762 83.865C469.898 83.865,469.953 83.865,470.09 83.837C470.801 83.673,471.513 83.509,472.169 83.4C472.169 84.029,472.142 84.658,472.142 85.287C472.142 86.792,472.498 88.242,473.045 89.692M477.97 77.517C477.997 76.997,477.997 76.532,478.052 76.012C478.134 75.246,478.134 74.453,478.134 73.659L478.134 72.045C478.818 71.881,479.584 71.717,480.295 71.525C480.213 73.386,480.158 75.246,480.158 77.079C479.42 77.244,478.681 77.353,477.97 77.517M474.139 78.283C474.139 76.997,474.194 75.711,474.221 74.453C474.249 73.906,474.249 73.304,474.249 72.756C474.933 72.647,475.562 72.565,476.218 72.401C476.191 73.276,476.109 74.124,476.082 75C476.027 75.958,475.945 76.943,475.863 77.928"/></g></g><g class="vf-stavenote" id="vf-auto10635"><g class="vf-stem" id="vf-auto10636" pointer-events="bounding-box"><path stroke-width="1.5" fill="none" d="M534.635 73L534.635 40"/></g><g class="vf-notehead" id="vf-auto10638" pointer-events="bounding-box"><path stroke="none" d="M525.522 81.543C525.802 81.599,526.055 81.627,526.336 81.627C530.211 81.627,535.995 76.348,535.883 72.08C535.771 71.041,535.799 69.609,533.693 68.766C533.103 68.485,532.457 68.373,531.755 68.373C527.431 68.373,522.742 73.343,522.405 76.657C522.405 76.909,522.377 77.134,522.377 77.387C522.377 79.409,523.275 81.037,525.522 81.543"/><path stroke="none" d="M511.188 91.553C511.736 90.951,511.872 90.431,511.9 89.856C512.064 88.762,512.091 87.695,512.091 86.573C512.091 85.835,512.064 85.041,512.009 84.302L514.608 83.7C515.238 83.536,515.648 83.153,515.812 82.551C516.004 81.785,516.113 80.992,516.031 80.171C516.004 79.679,515.922 79.487,515.539 79.487C515.457 79.487,515.32 79.487,515.183 79.542C514.116 79.815,513.049 80.034,511.954 80.28C511.982 79.46,512.064 78.612,512.091 77.791C513.788 77.435,515.457 77.134,517.153 76.696C517.782 76.587,518.247 76.231,518.439 75.629C518.712 74.836,518.877 74.097,518.877 73.304C518.877 72.401,518.767 71.936,518.056 71.936C517.919 71.936,517.782 71.936,517.618 71.963C515.84 72.401,514.034 72.784,512.228 73.194C512.255 72.51,512.283 71.881,512.283 71.224C512.967 71.06,513.623 70.951,514.307 70.787C515.046 70.622,515.566 70.185,515.73 69.446C515.894 68.707,516.004 67.941,516.004 67.23C516.004 66.737,515.84 66.491,515.457 66.491C515.292 66.491,515.101 66.518,514.909 66.573C514.116 66.765,513.322 66.874,512.584 67.038L512.803 63.919C512.857 63.618,512.885 63.29,512.885 62.934C512.885 62.633,512.857 62.305,512.721 62.004C512.638 61.812,512.775 61.484,512.447 61.484C512.228 61.484,512.009 61.594,511.954 61.84C511.818 62.031,511.736 62.305,511.708 62.551C511.517 64.138,511.38 65.698,511.27 67.284C510.45 67.394,509.629 67.503,508.781 67.668C506.428 68.105,506.428 68.078,506.428 70.513L506.428 71.388C506.373 71.799,506.51 72.045,506.893 72.045L507.084 72.045L511.024 71.443C511.024 71.772,510.997 72.127,510.997 72.483C510.97 72.839,510.97 73.14,510.97 73.468C509.465 73.824,508.015 74.124,506.537 74.453C504.896 74.808,504.814 74.973,504.731 76.614L504.731 78.776C504.704 79.268,504.841 79.378,505.114 79.378C505.251 79.378,505.361 79.378,505.47 79.323C507.249 78.858,509.027 78.475,510.805 78.064C510.751 78.912,510.751 79.733,510.751 80.554C510.094 80.664,509.41 80.828,508.753 80.937C507.249 81.238,507.166 81.265,507.166 82.88C507.057 83.345,507.358 83.892,507.331 84.494C507.249 85.014,507.413 85.233,507.796 85.233C507.933 85.233,508.042 85.233,508.151 85.205L510.751 84.603C510.751 85.561,510.751 86.546,510.805 87.531C510.833 88.789,510.887 90.103,511.188 91.553"/></g></g><g class="vf-stavenote" id="vf-auto10641"><g class="vf-stem" id="vf-auto10642" pointer-events="bounding-box"><path stroke-width="1.5" fill="none" d="M567.801 73L567.801 40"/></g><g class="vf-notehead" id="vf-auto10644" pointer-events="bounding-box"><path stroke="none" d="M558.688 81.543C558.969 81.599,559.221 81.627,559.502 81.627C563.377 81.627,569.162 76.348,569.049 72.08C568.937 71.041,568.965 69.609,566.859 68.766C566.269 68.485,565.623 68.373,564.921 68.373C560.597 68.373,555.908 73.343,555.571 76.657C555.571 76.909,555.543 77.134,555.543 77.387C555.543 79.409,556.441 81.037,558.688 81.543"/><path stroke="none" d="M545.531 88.324C546.106 87.832,546.325 87.367,546.379 86.82C546.489 85.014,546.68 83.153,546.735 81.348C548.021 81.019,549.279 80.718,550.538 80.445C551.085 80.28,551.441 79.952,551.66 79.487C551.933 78.776,552.043 78.119,552.043 77.408C552.043 76.505,551.933 76.149,551.496 76.149C551.331 76.149,551.14 76.176,550.866 76.259L546.653 77.326C546.653 76.724,546.598 76.149,546.598 75.547C546.571 74.398,546.598 73.276,546.598 72.127C547.309 71.963,548.021 71.799,548.76 71.689C550.894 71.334,551.167 71.033,551.331 68.817C551.413 67.668,551.222 67.23,550.429 67.23C550.182 67.23,549.963 67.284,549.635 67.312C548.623 67.449,547.583 67.722,546.571 67.941C546.571 67.476,546.571 67.038,546.516 66.573C546.489 64.767,546.571 62.934,545.969 61.183C545.394 61.293,545.257 61.594,545.23 62.113C545.175 62.715,545.148 63.29,545.148 63.892C545.148 65.342,545.257 66.792,545.257 68.269C544.054 68.543,542.795 68.762,541.537 68.926C540.387 69.09,540.223 69.282,540.223 70.404C540.251 71.142,540.333 71.881,540.415 72.647C540.469 73.003,540.579 73.194,540.962 73.194L541.181 73.194C542.549 73.194,543.917 72.702,545.257 72.428C545.257 73.304,545.312 74.179,545.34 75.027C545.394 75.903,545.422 76.778,545.422 77.627L543.288 78.119C540.962 78.612,541.181 78.612,541.181 80.828C541.181 81.183,541.181 81.566,541.126 81.922C541.126 82.36,541.236 82.551,541.564 82.551C541.646 82.551,541.755 82.551,541.92 82.524L545.312 81.703L545.312 82.004C545.148 83.208,545.066 84.384,545.121 85.588C545.148 86.464,545.121 87.421,545.531 88.324"/></g></g><g class="vf-stavenote" id="vf-auto10647"><g class="vf-stem" id="vf-auto10648" pointer-events="bounding-box"><path stroke-width="1.5" fill="none" d="M604.409 73L604.409 40"/></g><g class="vf-notehead" id="vf-auto10650" pointer-events="bounding-box"><path stroke="none" d="M595.296 81.543C595.577 81.599,595.829 81.627,596.11 81.627C599.985 81.627,605.77 76.348,605.657 72.08C605.545 71.041,605.573 69.609,603.467 68.766C602.877 68.485,602.232 68.373,601.53 68.373C597.205 68.373,592.516 73.343,592.179 76.657C592.179 76.909,592.151 77.134,592.151 77.387C592.151 79.409,593.049 81.037,595.296 81.543"/><path stroke="none" d="M576.859 86.628C576.859 86.436,576.913 86.3,576.913 86.19C576.913 84.22,576.913 82.278,576.859 80.308C578.418 79.679,579.978 79.104,581.51 78.475C581.483 80.253,581.51 82.004,581.428 83.783C581.4 84.768,581.756 85.315,582.768 85.588C582.823 85.452,582.851 85.315,582.851 85.205C582.987 82.852,582.987 80.472,582.987 78.119L582.987 77.873C584.602 77.244,586.216 76.614,587.83 75.958C588.295 75.739,588.651 75.602,588.651 75C588.623 74.371,588.459 73.933,587.775 73.687L583.015 71.799C583.015 69.473,583.124 67.202,583.124 64.877C583.124 64.548,583.206 64.248,583.206 63.974C583.206 63.646,583.179 63.345,582.987 63.071C582.741 62.715,582.467 62.196,582.057 62.196C581.674 62.196,581.647 62.442,581.647 62.743C581.647 62.852,581.647 62.934,581.647 63.071L581.647 63.29L581.647 63.427C581.647 66.026,581.592 68.625,581.592 71.224L581.209 71.088L576.804 69.336L576.804 64.959C576.804 64.521,576.585 64.165,576.284 63.892C576.12 63.7,575.928 63.454,575.682 63.454C575.6 63.454,575.573 63.454,575.491 63.509C575.327 63.618,575.299 63.782,575.299 63.974L575.299 64.275L575.299 68.735C574.342 68.352,573.411 67.996,572.454 67.585C572.262 67.503,572.071 67.449,571.907 67.449C571.715 67.449,571.551 67.558,571.551 67.832C571.578 68.461,571.551 69.2,572.508 69.555L575.327 70.622C575.327 73.413,575.327 76.231,575.381 79.049C574.588 79.323,573.849 79.651,573.083 79.952C572.508 80.171,572.207 80.445,572.207 80.882C572.207 81.019,572.262 81.238,572.344 81.43C572.508 81.813,572.7 81.922,572.891 81.922C573.165 81.922,573.439 81.648,573.685 81.566C574.232 81.375,574.834 81.156,575.381 80.91L575.381 84.74C575.381 86.108,575.409 86.108,576.859 86.628M576.859 78.42C576.859 76.012,576.831 73.632,576.831 71.224C577.926 71.662,579.075 72.072,580.169 72.565C580.662 72.702,581.127 72.921,581.565 73.057C581.565 74.261,581.565 75.438,581.51 76.587C579.978 77.216,578.418 77.845,576.859 78.42M583.015 73.659L585.942 74.808L584.82 75.274L583.015 75.985"/></g></g><g class="vf-stavenote" id="vf-auto10653"><g class="vf-stem" id="vf-auto10654" pointer-events="bounding-box"><path stroke-width="1.5" fill="none" d="M637.575 73L637.575 40"/></g><g class="vf-notehead" id="vf-auto10656" pointer-events="bounding-box"><path stroke="none" d="M628.462 81.543C628.743 81.599,628.996 81.627,629.276 81.627C633.151 81.627,638.936 76.348,638.824 72.08C638.711 71.041,638.739 69.609,636.633 68.766C636.044 68.485,635.398 68.373,634.696 68.373C630.371 68.373,625.682 73.343,625.345 76.657C625.345 76.909,625.317 77.134,625.317 77.387C625.317 79.409,626.216 81.037,628.462 81.543"/><path stroke="none" d="M611.502 93.194C611.776 93.112,611.858 92.976,611.858 92.757C611.858 92.565,611.776 92.346,611.776 92.127C611.776 92.1,611.776 92.073,611.776 92.018L611.776 91.416C611.53 87.476,611.749 83.509,611.393 79.268C611.694 79.542,611.967 79.651,612.241 79.651C612.487 79.651,612.734 79.542,612.952 79.46C615.47 78.283,618.041 77.134,620.558 75.958C621.078 75.739,621.817 75.739,621.817 75.027C621.817 74.398,621.188 74.097,620.723 73.741L620.34 73.495C617.303 71.689,614.184 70.103,611.147 68.352C610.682 68.078,610.353 67.914,610.216 67.914C609.915 67.914,609.888 68.215,609.888 69.008C609.888 74.398,609.97 79.815,609.97 85.178C609.97 87.421,610.052 89.665,610.052 91.854C610.052 92.456,610.982 93.359,611.502 93.194M611.393 69.555C614.156 71.142,616.947 72.702,619.82 74.343C616.974 75.657,614.266 76.888,611.393 78.228"/></g></g></svg>