<svg xmlns="http://www.w3.org/2000/svg" stroke-width="0.3" stroke-dasharray="none" fill="black" stroke="black" font-family="Arial, sans-serif" font-size="10pt" font-weight="normal" font-style="normal" width="600" height="200" viewBox="0 0 600 200" style="width: 600px; height: 200px; border: none;"><g class="vf-stave" id="vf-auto15425" stroke-width="1" fill="#999999" stroke="#999999" font-family="Arial"><path fill="none" d="M10 62L560 62"/><path fill="none" d="M10 75L560 75"/><path fill="none" d="M10 88L560 88"/><path fill="none" d="M10 101L560 101"/><path fill="none" d="M10 114L560 114"/><path fill="none" d="M10 127L560 127"/></g><g class="vf-stavebarline" id="vf-auto15426" font-family="Arial"><rect x="10" y="61.5" width="1" height="66" stroke="none"/></g><g class="vf-stavebarline" id="vf-auto15427" font-family="Arial"><rect x="560" y="61.5" width="1" height="66" stroke="none"/></g><g class="vf-tabnote" id="vf-auto15428" pointer-events="bounding-box" font-family="Arial"><rect x="31.703" y="85" width="11.422" height="6" fill="#FFF" stroke="none"/><text stroke="none" font-family="Arial, sans-serif" x="33.703" y="93">6</text><rect x="28" y="98" width="18.828" height="6" fill="#FFF" stroke="none"/><text stroke="none" font-family="Arial, sans-serif" x="30" y="106">25</text><g class="vf-stem" id="vf-auto15429" pointer-events="bounding-box"><path stroke-width="1.5" fill="none" d="M37.414 53.5L37.414 20.5"/></g><path stroke="none" d="M51.828 55.5 A2 2 0 0 0 47.828 55.5 A2 2 0 0 0 51.828 55.5"/></g><g class="vf-tabnote" id="vf-auto15430" pointer-events="bounding-box" font-family="Arial"><rect x="186.547" y="72" width="18.828" height="6" fill="#FFF" stroke="none"/><text stroke="none" font-family="Arial, sans-serif" x="188.547" y="80">10</text><rect x="186.547" y="111" width="18.828" height="6" fill="#FFF" stroke="none"/><text stroke="none" font-family="Arial, sans-serif" x="188.547" y="119">12</text><g class="vf-stem" id="vf-auto15431" pointer-events="bounding-box"><path stroke-width="1.5" fill="none" d="M195.961 53.5L195.961 20.5"/></g><path stroke="none" d="M202.633 53.382C203.643 52.23,204.626 51.023,205.047 49.563C205.553 47.99,205.749 46.418,205.749 44.845C205.749 43.778,205.665 42.739,205.497 41.7C205.019 38.247,203.924 35.102,201.734 32.35C200.779 31.142,199.853 29.879,198.87 28.671C197.747 27.211,197.045 25.891,197.017 24.01C197.017 23.645,196.932 23.055,196.932 22.606C196.932 21.876,196.652 21.174,196.371 20.5L196.174 20.5C195.36 20.865,195.191 21.511,195.191 22.269L195.191 24.544C195.191 27.66,196.006 30.496,197.887 32.996C198.673 33.922,199.403 34.933,200.162 35.86C202.099 38.162,203.559 40.746,203.84 43.834C203.896 44.396,204.093 44.958,204.093 45.491C204.093 45.772,204.037 46.053,203.924 46.306C203.531 47.176,203.11 48.131,202.38 48.72C201.734 49.254,201.594 49.844,201.594 50.489C201.594 50.826,201.622 51.191,201.65 51.556C201.706 52.09,201.902 52.595,201.931 53.129C201.987 53.466,202.099 53.606,202.239 53.606C202.352 53.606,202.464 53.522,202.633 53.382"/></g><g class="vf-tabnote" id="vf-auto15433" pointer-events="bounding-box" font-family="Arial"><rect x="275.705" y="59" width="11.422" height="6" fill="#FFF" stroke="none"/><text stroke="none" font-family="Arial, sans-serif" x="277.705" y="67">6</text><rect x="275.705" y="98" width="11.422" height="6" fill="#FFF" stroke="none"/><text stroke="none" font-family="Arial, sans-serif" x="277.705" y="106">5</text><g class="vf-stem" id="vf-auto15434" pointer-events="bounding-box"><path stroke-width="1.5" fill="none" d="M281.416 135.5L281.416 168.5"/></g><path stroke="none" d="M292.127 133.5 A2 2 0 0 0 288.127 133.5 A2 2 0 0 0 292.127 133.5"/><path stroke="none" d="M298.127 133.5 A2 2 0 0 0 294.127 133.5 A2 2 0 0 0 298.127 133.5"/></g><g class="vf-tabnote" id="vf-auto15435" pointer-events="bounding-box" font-family="Arial"><rect x="458.793" y="59" width="11.422" height="6" fill="#FFF" stroke="none"/><text stroke="none" font-family="Arial, sans-serif" x="460.793" y="67">6</text><rect x="458.793" y="98" width="11.422" height="6" fill="#FFF" stroke="none"/><text stroke="none" font-family="Arial, sans-serif" x="460.793" y="106">5</text><g class="vf-stem" id="vf-auto15436" pointer-events="bounding-box"><path stroke-width="1.5" fill="none" d="M464.504 135.5L464.504 168.5"/></g><path stroke="none" d="M465.41 168.5C465.775 168.5,465.775 168.051,465.86 167.826C466.14 167.012,466.112 166.113,466.449 165.299C467.067 163.783,468.246 162.716,469.37 161.62C471.728 159.318,474.143 157.043,475.407 153.898C476.137 152.073,476.642 150.22,476.811 148.254C476.867 147.272,477.007 146.289,476.979 145.446C477.007 144.07,476.867 142.779,476.698 141.487C476.783 140.869,476.783 140.308,476.811 139.858C476.867 138.623,476.783 137.556,476.418 136.545C476.277 136.236,476.165 135.955,475.968 135.703C475.856 135.59,475.688 135.394,475.491 135.394L475.407 135.394C475.238 135.478,475.21 135.534,475.21 135.674C475.21 135.787,475.238 135.899,475.238 135.983C475.266 140.027,473.582 143.34,470.998 146.233C468.134 149.378,465.888 152.859,464.736 156.987C464.091 159.149,463.754 161.424,463.754 163.726L463.754 166.029C463.754 166.506,463.922 167.854,464.568 168.303C464.68 168.388,465.382 168.5,465.41 168.5M466.168 160.61C466.618 159.234,467.264 157.998,467.825 156.706C469.061 153.87,471.223 151.764,473.048 149.378C473.975 148.198,474.761 146.906,475.351 145.587C475.351 145.811,475.407 146.064,475.407 146.289C475.407 148.9,474.34 151.287,472.683 153.365C471.307 155.078,469.65 156.566,468.134 158.11C467.348 158.869,466.702 159.739,466.168 160.61"/></g></svg>