<svg xmlns="http://www.w3.org/2000/svg" stroke-width="0.3" stroke-dasharray="none" fill="black" stroke="black" font-family="Arial, sans-serif" font-size="10pt" font-weight="normal" font-style="normal" width="600" height="350" viewBox="0 0 600 350" style="width: 600px; height: 350px; border: none;"><g class="vf-stave" id="vf-auto5811" stroke-width="1" fill="#999999" stroke="#999999"><path fill="none" d="M10 50L211.597 50"/><path fill="none" d="M10 60L211.597 60"/><path fill="none" d="M10 70L211.597 70"/><path fill="none" d="M10 80L211.597 80"/><path fill="none" d="M10 90L211.597 90"/></g><g class="vf-stavebarline" id="vf-auto5812"/><g class="vf-stavebarline" id="vf-auto5813"><rect x="211.597" y="49.5" width="1" height="41" stroke="none"/></g><g class="vf-clef" id="vf-auto5814"><path stroke="none" d="M35.503 81.76C35.503 84.345,34.464 87.032,31.854 88.071C31.093 83.712,30.105 77.908,29.852 76.286C33.146 76.286,35.503 78.516,35.503 81.76M30.333 88.527C29.598 88.654,28.914 88.73,28.204 88.73C22.983 88.73,18.548 85.08,18.548 79.581C18.548 75.12,21.691 71.141,24.884 68.379C25.518 67.821,26.101 67.314,26.633 66.757C26.962 68.734,27.216 70.457,27.469 71.952C24.149 72.941,21.894 76.438,21.894 79.86C21.894 82.419,23.896 85.917,26.836 85.917C27.114 85.917,27.444 85.79,27.444 85.461C27.444 85.131,27.089 84.954,26.633 84.65C25.214 83.762,24.428 82.825,24.428 81.025C24.428 78.82,26.05 77.021,28.204 76.514M27.114 50.993C27.444 49.548,29.117 45.721,31.017 45.721C31.575 45.721,32.437 47.495,32.437 50.004C32.437 53.806,29.623 56.67,27.114 59.128C26.886 57.684,26.709 56.264,26.709 54.718C26.709 53.375,26.836 52.133,27.114 50.993M19.461 99.729C19.461 102.137,21.311 105.305,26.253 105.305C27.951 105.305,29.446 104.874,30.764 104.063C32.741 102.669,33.248 100.261,33.248 97.98C33.248 96.536,33.02 94.914,32.665 92.836C32.563 92.101,32.335 91.011,32.107 89.566C35.681 88.4,38.367 84.675,38.367 80.924C38.367 75.424,34.464 71.699,29.117 71.699C28.762 69.494,28.382 67.34,28.078 65.312C31.93 61.257,34.591 56.695,34.591 50.891C34.591 47.571,33.577 44.859,32.994 43.567C32.107 41.691,31.068 40.424,30.409 40.424C30.156 40.424,29.015 40.855,27.799 42.274C25.467 45.062,24.808 49.726,24.808 52.792C24.808 54.769,25.011 56.543,25.619 60.623C25.594 60.674,23.693 62.6,22.907 63.234C19.587 66.326,15 70.736,15 78.035C15 84.878,20.956 90.225,27.748 90.225C28.787 90.225,29.776 90.124,30.612 89.972C31.322 93.469,31.727 96.029,31.727 97.98C31.727 101.757,29.776 103.784,26.101 103.784C25.214 103.784,24.453 103.582,24.377 103.582C24.352 103.556,24.276 103.505,24.276 103.48C24.276 103.404,24.352 103.379,24.453 103.328C26.177 103.075,27.875 101.63,27.875 99.273C27.875 97.322,26.379 95.243,23.642 95.243C21.083 95.243,19.461 97.322,19.461 99.729"/></g><g class="vf-stave" id="vf-auto5840" stroke-width="1" fill="#999999" stroke="#999999"><path fill="none" d="M10 170L211.597 170"/><path fill="none" d="M10 180L211.597 180"/><path fill="none" d="M10 190L211.597 190"/><path fill="none" d="M10 200L211.597 200"/><path fill="none" d="M10 210L211.597 210"/></g><g class="vf-stavebarline" id="vf-auto5841"/><g class="vf-stavebarline" id="vf-auto5842"><rect x="211.597" y="169.5" width="1" height="41" stroke="none"/></g><g class="vf-clef" id="vf-auto5843"><path stroke="none" d="M23.433 171.183C20.898 171.183,18.871 172.634,18.848 172.634C16.935 174.063,16.152 175.744,15.852 176.92C15.691 177.519,15.622 178.118,15.622 178.671C15.622 179.477,15.76 180.191,16.06 180.836C16.452 181.712,17.212 182.357,18.226 182.68C18.617 182.818,19.055 182.887,19.47 182.887C20.207 182.887,20.967 182.68,21.612 182.311C22.626 181.758,23.271 180.56,23.271 179.27C23.271 178.118,22.672 177.035,21.659 176.413C20.967 175.952,20.299 175.814,19.746 175.814C19.355 175.814,18.986 175.883,18.686 175.975C18.341 176.113,17.788 176.459,17.511 176.689C17.627 176.044,18.018 175.076,18.387 174.546C18.756 174.016,19.47 173.371,20.046 173.072C20.875 172.588,21.935 172.404,23.087 172.404C26.474 172.404,28.133 175.122,28.133 180.698C28.133 183.785,26.981 186.735,25.99 188.693C24.884 190.882,23.433 192.978,22.142 194.13C18.686 197.287,15.438 198.784,15.392 198.784C15.392 198.784,15 199.015,15 199.407C15 199.476,15.023 199.499,15.023 199.568C15.138 199.913,15.438 199.96,15.622 199.96C15.668 199.96,15.76 199.936,15.806 199.936C15.829 199.936,19.608 198.37,22.626 196.02C24.331 194.799,25.852 193.462,27.165 192.034C28.363 190.744,29.4 189.361,30.229 187.956C31.681 185.467,32.51 182.887,32.51 180.652C32.51 177.91,31.796 175.629,30.437 173.993C28.87 172.127,26.52 171.183,23.433 171.183M33.847 175.376C33.847 176.32,34.584 177.035,35.436 177.035C36.289 177.035,37.026 176.32,37.026 175.376C37.026 174.454,36.289 173.694,35.436 173.694C34.584 173.694,33.847 174.454,33.847 175.376M33.847 183.578C33.847 184.5,34.584 185.283,35.436 185.283C36.289 185.283,37.026 184.5,37.026 183.578C37.026 182.656,36.289 181.896,35.436 181.896C34.584 181.896,33.847 182.656,33.847 183.578"/></g><g class="vf-stavenote" id="vf-auto5770"><g class="vf-stem" id="vf-auto5771" pointer-events="bounding-box"><path stroke-width="1.5" fill="none" d="M79.862 84L79.862 130"/></g><g class="vf-notehead" id="vf-auto5780" pointer-events="bounding-box"><path stroke="none" d="M79.665 91.125C79.778 91.041,79.862 90.872,79.862 90.704L79.862 90.676C79.862 90.507,79.778 90.395,79.693 90.311L79.216 89.833C79.104 89.749,78.963 89.665,78.823 89.665C78.683 89.665,78.514 89.693,78.458 89.777L73.319 93.877L68.125 89.777C68.068 89.693,67.9 89.665,67.759 89.665C67.619 89.665,67.535 89.749,67.394 89.833L66.889 90.311C66.805 90.395,66.721 90.563,66.721 90.704C66.721 90.872,66.805 91.041,66.917 91.125L71.859 95L66.917 98.875C66.805 98.959,66.721 99.128,66.721 99.296C66.721 99.409,66.805 99.577,66.889 99.661L67.366 100.167C67.451 100.307,67.619 100.335,67.759 100.335C67.9 100.335,68.068 100.307,68.125 100.223L73.319 96.123L78.458 100.223C78.514 100.307,78.683 100.335,78.823 100.335C78.963 100.335,79.132 100.307,79.216 100.167L79.693 99.661C79.778 99.577,79.862 99.409,79.862 99.296C79.862 99.128,79.778 98.959,79.665 98.875L74.723 95"/></g><g class="vf-notehead" id="vf-auto5779" pointer-events="bounding-box"><path stroke="none" d="M92.057 86.125C92.169 86.041,92.253 85.872,92.253 85.704L92.253 85.676C92.253 85.507,92.169 85.395,92.085 85.311L91.608 84.833C91.495 84.749,91.355 84.665,91.214 84.665C91.074 84.665,90.906 84.693,90.849 84.777L85.711 88.877L80.516 84.777C80.46 84.693,80.291 84.665,80.151 84.665C80.011 84.665,79.926 84.749,79.786 84.833L79.28 85.311C79.196 85.395,79.112 85.563,79.112 85.704C79.112 85.872,79.196 86.041,79.309 86.125L84.251 90L79.309 93.875C79.196 93.959,79.112 94.128,79.112 94.296C79.112 94.409,79.196 94.577,79.28 94.661L79.758 95.167C79.842 95.307,80.011 95.335,80.151 95.335C80.291 95.335,80.46 95.307,80.516 95.223L85.711 91.123L90.849 95.223C90.906 95.307,91.074 95.335,91.214 95.335C91.355 95.335,91.523 95.307,91.608 95.167L92.085 94.661C92.169 94.577,92.253 94.409,92.253 94.296C92.253 94.128,92.169 93.959,92.057 93.875L87.115 90"/></g><g class="vf-notehead" id="vf-auto5778" pointer-events="bounding-box"><path stroke="none" d="M92.057 76.125C92.169 76.041,92.253 75.872,92.253 75.704L92.253 75.676C92.253 75.507,92.169 75.395,92.085 75.311L91.608 74.833C91.495 74.749,91.355 74.665,91.214 74.665C91.074 74.665,90.906 74.693,90.849 74.777L85.711 78.877L80.516 74.777C80.46 74.693,80.291 74.665,80.151 74.665C80.011 74.665,79.926 74.749,79.786 74.833L79.28 75.311C79.196 75.395,79.112 75.563,79.112 75.704C79.112 75.872,79.196 76.041,79.309 76.125L84.251 80L79.309 83.875C79.196 83.959,79.112 84.128,79.112 84.296C79.112 84.409,79.196 84.577,79.28 84.661L79.758 85.167C79.842 85.307,80.011 85.335,80.151 85.335C80.291 85.335,80.46 85.307,80.516 85.223L85.711 81.123L90.849 85.223C90.906 85.307,91.074 85.335,91.214 85.335C91.355 85.335,91.523 85.307,91.608 85.167L92.085 84.661C92.169 84.577,92.253 84.409,92.253 84.296C92.253 84.128,92.169 83.959,92.057 83.875L87.115 80"/></g></g><g class="vf-stavenote" id="vf-auto5781"><path stroke-width="1.4" fill="none" stroke="#444" d="M112.122 100L131.263 100"/><g class="vf-stem" id="vf-auto5782" pointer-events="bounding-box"><path stroke-width="1.5" fill="none" d="M115.872 104L115.872 135"/></g><g class="vf-notehead" id="vf-auto5785" pointer-events="bounding-box"><path stroke="none" d="M128.067 96.125C128.179 96.041,128.263 95.872,128.263 95.704L128.263 95.676C128.263 95.507,128.179 95.395,128.095 95.311L127.617 94.833C127.505 94.749,127.365 94.665,127.224 94.665C127.084 94.665,126.915 94.693,126.859 94.777L121.721 98.877L116.526 94.777C116.47 94.693,116.301 94.665,116.161 94.665C116.02 94.665,115.936 94.749,115.796 94.833L115.29 95.311C115.206 95.395,115.122 95.563,115.122 95.704C115.122 95.872,115.206 96.041,115.318 96.125L120.26 100L115.318 103.875C115.206 103.959,115.122 104.128,115.122 104.296C115.122 104.409,115.206 104.577,115.29 104.661L115.768 105.167C115.852 105.307,116.02 105.335,116.161 105.335C116.301 105.335,116.47 105.307,116.526 105.223L121.721 101.123L126.859 105.223C126.915 105.307,127.084 105.335,127.224 105.335C127.365 105.335,127.533 105.307,127.617 105.167L128.095 104.661C128.179 104.577,128.263 104.409,128.263 104.296C128.263 104.128,128.179 103.959,128.067 103.875L123.125 100"/></g></g><g class="vf-stavenote" id="vf-auto5786"><g class="vf-notehead" id="vf-auto5790" pointer-events="bounding-box"><path stroke="none" d="M159.473 106.023C159.448 105.998,159.372 105.922,159.271 105.771L155.088 100.605C155.063 100.58,155.012 100.479,155.012 100.403C155.012 100.302,155.063 100.151,155.088 100.076L158.792 94.481C158.818 94.406,158.868 94.305,158.868 94.229L158.868 93.902C158.868 93.801,158.818 93.675,158.742 93.624L152.87 85.661C152.87 85.661,152.719 85.46,152.518 85.46C152.392 85.46,152.341 85.485,152.215 85.56C152.064 85.661,152.039 85.812,152.039 85.913C152.039 86.14,152.14 86.316,152.14 86.316L154.912 90.096C154.987 90.197,155.012 90.348,155.012 90.525C155.012 90.676,154.987 90.852,154.912 90.953L151.232 96.548C151.207 96.623,151.157 96.774,151.157 96.85L151.157 97.178C151.157 97.278,151.207 97.379,151.283 97.455L155.34 102.495C155.189 102.47,154.861 102.394,154.433 102.394C153.828 102.394,153.022 102.545,152.366 103.125C151.56 103.856,151.132 104.864,151.132 105.771C151.132 106.275,151.232 106.779,151.535 107.182C152.291 108.341,155.012 111.794,155.012 111.794C155.012 111.794,155.189 112.02,155.441 112.02C155.516 112.02,155.592 112.02,155.668 111.945C155.844 111.794,155.92 111.642,155.92 111.491C155.92 111.365,155.844 111.239,155.819 111.189C155.693 110.987,154.534 108.896,154.534 108.896C154.534 108.896,154.282 108.392,154.282 107.736C154.282 107.258,154.433 106.678,154.912 106.199C155.34 105.771,155.844 105.62,156.323 105.62C156.802 105.62,157.18 105.771,157.482 105.947L158.893 106.854C158.893 106.854,159.044 106.93,159.196 106.93C159.322 106.93,159.448 106.905,159.548 106.754C159.624 106.602,159.649 106.527,159.649 106.426C159.649 106.325,159.624 106.25,159.548 106.124"/></g></g><g class="vf-stavenote" id="vf-auto5791"><path stroke-width="1.4" fill="none" stroke="#444" d="M184.142 100L203.283 100"/><g class="vf-stem" id="vf-auto5792" pointer-events="bounding-box"><path stroke-width="1.5" fill="none" d="M187.892 104L187.892 135"/></g><g class="vf-notehead" id="vf-auto5795" pointer-events="bounding-box"><path stroke="none" d="M200.086 96.125C200.199 96.041,200.283 95.872,200.283 95.704L200.283 95.676C200.283 95.507,200.199 95.395,200.114 95.311L199.637 94.833C199.525 94.749,199.384 94.665,199.244 94.665C199.104 94.665,198.935 94.693,198.879 94.777L193.74 98.877L188.546 94.777C188.489 94.693,188.321 94.665,188.18 94.665C188.04 94.665,187.956 94.749,187.815 94.833L187.31 95.311C187.226 95.395,187.142 95.563,187.142 95.704C187.142 95.872,187.226 96.041,187.338 96.125L192.28 100L187.338 103.875C187.226 103.959,187.142 104.128,187.142 104.296C187.142 104.409,187.226 104.577,187.31 104.661L187.787 105.167C187.872 105.307,188.04 105.335,188.18 105.335C188.321 105.335,188.489 105.307,188.546 105.223L193.74 101.123L198.879 105.223C198.935 105.307,199.104 105.335,199.244 105.335C199.384 105.335,199.553 105.307,199.637 105.167L200.114 104.661C200.199 104.577,200.283 104.409,200.283 104.296C200.283 104.128,200.199 103.959,200.086 103.875L195.144 100"/></g></g><g class="vf-stavenote" id="vf-auto5797"><g class="vf-stem" id="vf-auto5798" pointer-events="bounding-box"><path stroke-width="1.5" fill="none" d="M91.868 61L91.868 30"/></g><g class="vf-notehead" id="vf-auto5801" pointer-events="bounding-box"><path stroke="none" d="M87.396 59.946C87.171 59.946,86.918 60.03,86.722 60.226L84.981 62.248L82.341 60.198C82.173 60.03,82.032 59.946,81.78 59.946L80.123 59.946C79.645 59.946,79.224 60.395,79.224 60.844C79.224 61.069,79.309 61.293,79.505 61.518L83.043 64.382L79.309 68.566C79.196 68.678,79.112 68.875,79.112 69.156C79.112 69.661,79.505 70.054,80.011 70.054L84.279 70.054C84.531 70.054,84.812 69.97,84.981 69.774L86.722 67.78L89.305 69.802C89.502 69.942,89.698 70.054,89.895 70.054L91.608 70.054C92.057 70.054,92.534 69.577,92.534 69.128C92.534 68.875,92.422 68.678,92.169 68.51L88.687 65.618L92.422 61.434C92.59 61.322,92.618 61.125,92.618 60.844C92.618 60.339,92.253 59.946,91.692 59.946M80.123 60.844L81.78 60.844L85.655 64.073L88.491 60.844L90.625 60.844L86.806 65.168L91.608 69.156L89.895 69.156L86.076 65.983L83.24 69.156L81.106 69.156L84.896 64.888"/><path stroke="none" d="M75.702 60.869C75.92 60.814,76.112 60.54,76.112 60.321L76.112 57.996C76.112 57.668,75.893 57.449,75.565 57.449C75.537 57.449,75.537 57.449,75.483 57.449L74.197 57.722L74.197 51.84L73.075 51.84L73.075 57.941L69.573 58.652L69.573 53.098L68.479 53.098L68.479 58.899L66.946 59.2C66.7 59.254,66.509 59.528,66.509 59.747L66.509 59.829L66.509 62.127L66.509 62.045C66.509 62.373,66.755 62.592,67.056 62.592C67.111 62.592,67.138 62.592,67.165 62.592L68.479 62.319L68.479 68.83L66.946 69.131C66.7 69.186,66.509 69.46,66.509 69.679L66.509 71.977C66.509 72.278,66.755 72.524,67.056 72.524C67.111 72.524,67.138 72.524,67.165 72.524L68.479 72.25L68.479 78.133L69.573 78.133L69.573 72.004L73.075 71.293L73.075 76.847L74.197 76.847L74.197 71.074L75.702 70.8C75.92 70.746,76.112 70.472,76.112 70.253L76.112 67.928C76.112 67.599,75.893 67.353,75.565 67.353C75.537 67.353,75.537 67.353,75.483 67.353L74.197 67.627L74.197 61.142M69.573 62.072L73.075 61.388L73.075 67.873L69.573 68.612"/><path stroke="none" d="M99.618 65 A2 2 0 0 0 95.618 65 A2 2 0 0 0 99.618 65"/></g></g><g class="vf-stavenote" id="vf-auto5805"><g class="vf-stem" id="vf-auto5806" pointer-events="bounding-box"><path stroke-width="1.5" fill="none" d="M199.533 61L199.533 30"/></g><g class="vf-notehead" id="vf-auto5809" pointer-events="bounding-box"><path stroke="none" d="M200.086 61.125C200.199 61.041,200.283 60.872,200.283 60.704L200.283 60.676C200.283 60.507,200.199 60.395,200.114 60.311L199.637 59.833C199.525 59.749,199.384 59.665,199.244 59.665C199.104 59.665,198.935 59.693,198.879 59.777L193.74 63.877L188.546 59.777C188.489 59.693,188.321 59.665,188.18 59.665C188.04 59.665,187.956 59.749,187.815 59.833L187.31 60.311C187.226 60.395,187.142 60.563,187.142 60.704C187.142 60.872,187.226 61.041,187.338 61.125L192.28 65L187.338 68.875C187.226 68.959,187.142 69.128,187.142 69.296C187.142 69.409,187.226 69.577,187.31 69.661L187.787 70.167C187.872 70.307,188.04 70.335,188.18 70.335C188.321 70.335,188.489 70.307,188.546 70.223L193.74 66.123L198.879 70.223C198.935 70.307,199.104 70.335,199.244 70.335C199.384 70.335,199.553 70.307,199.637 70.167L200.114 69.661C200.199 69.577,200.283 69.409,200.283 69.296C200.283 69.128,200.199 68.959,200.086 68.875L195.144 65"/></g></g><g class="vf-stavenote" id="vf-auto5815"><g class="vf-stem" id="vf-auto5816" pointer-events="bounding-box"><path stroke-width="1.5" fill="none" d="M91.503 191L91.503 160"/></g><g class="vf-notehead" id="vf-auto5818" pointer-events="bounding-box"><path stroke="none" d="M92.057 191.125C92.169 191.041,92.253 190.872,92.253 190.704L92.253 190.676C92.253 190.507,92.169 190.395,92.085 190.311L91.608 189.833C91.495 189.749,91.355 189.665,91.214 189.665C91.074 189.665,90.906 189.693,90.849 189.777L85.711 193.877L80.516 189.777C80.46 189.693,80.291 189.665,80.151 189.665C80.011 189.665,79.926 189.749,79.786 189.833L79.28 190.311C79.196 190.395,79.112 190.563,79.112 190.704C79.112 190.872,79.196 191.041,79.309 191.125L84.251 195L79.309 198.875C79.196 198.959,79.112 199.128,79.112 199.296C79.112 199.409,79.196 199.577,79.28 199.661L79.758 200.167C79.842 200.307,80.011 200.335,80.151 200.335C80.291 200.335,80.46 200.307,80.516 200.223L85.711 196.123L90.849 200.223C90.906 200.307,91.074 200.335,91.214 200.335C91.355 200.335,91.523 200.307,91.608 200.167L92.085 199.661C92.169 199.577,92.253 199.409,92.253 199.296C92.253 199.128,92.169 198.959,92.057 198.875L87.115 195"/><path stroke="none" d="M75.702 190.869C75.92 190.814,76.112 190.54,76.112 190.321L76.112 187.996C76.112 187.668,75.893 187.449,75.565 187.449C75.537 187.449,75.537 187.449,75.483 187.449L74.197 187.722L74.197 181.84L73.075 181.84L73.075 187.941L69.573 188.652L69.573 183.098L68.479 183.098L68.479 188.899L66.946 189.2C66.7 189.254,66.509 189.528,66.509 189.747L66.509 189.829L66.509 192.127L66.509 192.045C66.509 192.373,66.755 192.592,67.056 192.592C67.111 192.592,67.138 192.592,67.165 192.592L68.479 192.319L68.479 198.83L66.946 199.131C66.7 199.186,66.509 199.46,66.509 199.679L66.509 201.977C66.509 202.278,66.755 202.524,67.056 202.524C67.111 202.524,67.138 202.524,67.165 202.524L68.479 202.25L68.479 208.133L69.573 208.133L69.573 202.004L73.075 201.293L73.075 206.847L74.197 206.847L74.197 201.074L75.702 200.8C75.92 200.746,76.112 200.472,76.112 200.253L76.112 197.928C76.112 197.599,75.893 197.353,75.565 197.353C75.537 197.353,75.537 197.353,75.483 197.353L74.197 197.627L74.197 191.142M69.573 192.072L73.075 191.388L73.075 197.873L69.573 198.612"/></g></g><g class="vf-stavenote" id="vf-auto5821"><g class="vf-stem" id="vf-auto5822" pointer-events="bounding-box"><path stroke-width="1.5" fill="none" d="M127.513 191L127.513 160"/></g><g class="vf-notehead" id="vf-auto5824" pointer-events="bounding-box"><path stroke="none" d="M128.067 191.125C128.179 191.041,128.263 190.872,128.263 190.704L128.263 190.676C128.263 190.507,128.179 190.395,128.095 190.311L127.617 189.833C127.505 189.749,127.365 189.665,127.224 189.665C127.084 189.665,126.915 189.693,126.859 189.777L121.721 193.877L116.526 189.777C116.47 189.693,116.301 189.665,116.161 189.665C116.02 189.665,115.936 189.749,115.796 189.833L115.29 190.311C115.206 190.395,115.122 190.563,115.122 190.704C115.122 190.872,115.206 191.041,115.318 191.125L120.26 195L115.318 198.875C115.206 198.959,115.122 199.128,115.122 199.296C115.122 199.409,115.206 199.577,115.29 199.661L115.768 200.167C115.852 200.307,116.02 200.335,116.161 200.335C116.301 200.335,116.47 200.307,116.526 200.223L121.721 196.123L126.859 200.223C126.915 200.307,127.084 200.335,127.224 200.335C127.365 200.335,127.533 200.307,127.617 200.167L128.095 199.661C128.179 199.577,128.263 199.409,128.263 199.296C128.263 199.128,128.179 198.959,128.067 198.875L123.125 195"/><path stroke="none" d="M111.93 187.777C111.848 187.722,111.739 187.668,111.629 187.668C111.575 187.668,111.493 187.722,111.465 187.722L106.486 189.09L106.486 182.196L105.391 182.196L105.391 201.703C105.391 202.004,105.637 202.223,105.938 202.223C105.993 202.223,106.048 202.223,106.103 202.223L111.055 200.828L111.055 207.722L112.122 207.722C112.122 201.183,112.122 194.973,112.122 188.215C112.122 188.078,112.04 187.859,111.93 187.777M106.486 198.83L106.486 192.373L111.055 191.06L111.055 197.572"/></g></g><g class="vf-stavenote" id="vf-auto5827"><g class="vf-stem" id="vf-auto5828" pointer-events="bounding-box"><path stroke-width="1.5" fill="none" d="M151.882 169L151.882 200"/></g><g class="vf-notehead" id="vf-auto5830" pointer-events="bounding-box"><path stroke="none" d="M164.077 161.125C164.189 161.041,164.273 160.872,164.273 160.704L164.273 160.676C164.273 160.507,164.189 160.395,164.105 160.311L163.627 159.833C163.515 159.749,163.375 159.665,163.234 159.665C163.094 159.665,162.925 159.693,162.869 159.777L157.73 163.877L152.536 159.777C152.48 159.693,152.311 159.665,152.171 159.665C152.03 159.665,151.946 159.749,151.806 159.833L151.3 160.311C151.216 160.395,151.132 160.563,151.132 160.704C151.132 160.872,151.216 161.041,151.328 161.125L156.27 165L151.328 168.875C151.216 168.959,151.132 169.128,151.132 169.296C151.132 169.409,151.216 169.577,151.3 169.661L151.778 170.167C151.862 170.307,152.03 170.335,152.171 170.335C152.311 170.335,152.48 170.307,152.536 170.223L157.73 166.123L162.869 170.223C162.925 170.307,163.094 170.335,163.234 170.335C163.375 170.335,163.543 170.307,163.627 170.167L164.105 169.661C164.189 169.577,164.273 169.409,164.273 169.296C164.273 169.128,164.189 168.959,164.077 168.875L159.134 165"/><path stroke="none" d="M148.05 161.881C147.831 160.349,146.873 158.899,144.876 158.899C142.906 158.899,141.757 160.103,141.565 160.349L141.729 147.708C141.729 147.38,141.483 147.161,141.155 147.161L140.69 147.161C140.389 147.161,140.143 147.38,140.143 147.708L140.334 171.375C140.334 171.703,140.58 171.922,140.881 171.922C140.963 171.922,141.128 171.895,141.21 171.867C141.374 171.785,143.918 170.527,146.052 168.119C147.557 166.423,148.132 164.48,148.132 162.866C148.132 162.51,148.104 162.209,148.05 161.881M145.341 163.413C145.341 164.015,145.177 165.821,144.192 167.326C143.535 168.338,142.195 169.405,141.456 170.007L141.565 162.319C141.647 161.963,142.222 160.814,143.809 160.814C145.232 160.814,145.341 162.155,145.341 163.003C145.341 163.194,145.341 163.304,145.341 163.413"/></g></g><g class="vf-stavenote" id="vf-auto5833"><g class="vf-stem" id="vf-auto5834" pointer-events="bounding-box"><path stroke-width="1.5" fill="none" d="M187.892 194L187.892 225"/></g><g class="vf-notehead" id="vf-auto5836" pointer-events="bounding-box"><path stroke="none" d="M200.086 186.125C200.199 186.041,200.283 185.872,200.283 185.704L200.283 185.676C200.283 185.507,200.199 185.395,200.114 185.311L199.637 184.833C199.525 184.749,199.384 184.665,199.244 184.665C199.104 184.665,198.935 184.693,198.879 184.777L193.74 188.877L188.546 184.777C188.489 184.693,188.321 184.665,188.18 184.665C188.04 184.665,187.956 184.749,187.815 184.833L187.31 185.311C187.226 185.395,187.142 185.563,187.142 185.704C187.142 185.872,187.226 186.041,187.338 186.125L192.28 190L187.338 193.875C187.226 193.959,187.142 194.128,187.142 194.296C187.142 194.409,187.226 194.577,187.31 194.661L187.787 195.167C187.872 195.307,188.04 195.335,188.18 195.335C188.321 195.335,188.489 195.307,188.546 195.223L193.74 191.123L198.879 195.223C198.935 195.307,199.104 195.335,199.244 195.335C199.384 195.335,199.553 195.307,199.637 195.167L200.114 194.661C200.199 194.577,200.283 194.409,200.283 194.296C200.283 194.128,200.199 193.959,200.086 193.875L195.144 190"/><path stroke="none" d="M183.157 188.003L183.594 188.003C183.895 188.003,184.142 187.756,184.142 187.428L184.142 185.103C184.142 184.802,183.895 184.555,183.594 184.555L181.269 184.555C180.94 184.555,180.722 184.802,180.722 185.103L180.722 185.595L180.722 187.209L178.779 189.179L178.67 189.179L176.7 187.209L176.7 185.103C176.7 184.802,176.508 184.555,176.18 184.555L173.854 184.555C173.553 184.555,173.307 184.802,173.307 185.103L173.307 187.428C173.307 187.756,173.553 188.003,173.854 188.003L174.265 188.003L174.292 188.003L175.934 188.003L177.876 189.918L177.876 190.027L175.934 191.997L174.292 191.997L174.265 191.997L173.854 191.997C173.553 191.997,173.307 192.216,173.307 192.517L173.307 194.843C173.307 195.171,173.553 195.39,173.854 195.39L176.18 195.39C176.508 195.39,176.7 195.171,176.7 194.843L176.7 192.763L178.67 190.876L178.779 190.876L180.722 192.763L180.722 194.405L180.722 194.46L180.722 194.843C180.722 195.171,180.94 195.39,181.269 195.39L183.594 195.39C183.895 195.39,184.142 195.171,184.142 194.843L184.142 192.517C184.142 192.216,183.895 191.997,183.594 191.997L183.184 191.997L183.157 191.997L181.515 191.997L179.545 190.027L179.545 189.973L181.515 188.003"/></g></g><path stroke="none" d="M25.074 32.509C24.987 32.48,24.872 32.422,24.786 32.422C24.613 32.422,24.411 32.48,24.325 32.624C24.238 32.768,20.091 39.162,12.171 39.162L5.576 39.162C5.259 39.162,5 39.363,5 39.68L5 43.424L5 44L10.069 44C22.827 44,25.275 33.344,25.333 33.229C25.333 33.171,25.362 33.085,25.362 32.998C25.362 32.797,25.246 32.624,25.074 32.509"/><path stroke="none" d="M25.074 228.491C25.246 228.376,25.362 228.203,25.362 228.002C25.362 227.915,25.333 227.829,25.333 227.771C25.275 227.656,22.827 217,10.069 217L5 217L5 217.576L5 221.32C5 221.637,5.259 221.838,5.576 221.838L12.171 221.838C20.091 221.838,24.238 228.232,24.325 228.376C24.411 228.52,24.613 228.578,24.786 228.578C24.872 228.578,24.987 228.52,25.074 228.491"/><rect x="5" y="44" width="3" height="173" stroke="none"/></svg>