<svg xmlns="http://www.w3.org/2000/svg" stroke-width="0.3" stroke-dasharray="none" fill="black" stroke="black" font-family="Arial, sans-serif" font-size="10pt" font-weight="normal" font-style="normal" width="450" height="140" viewBox="0 0 450 140" style="width: 450px; height: 140px; border: none;"><g class="vf-stave" id="vf-auto32744" stroke-width="1" fill="#999999" stroke="#999999"><path fill="none" d="M10 50L360 50"/><path fill="none" d="M10 60L360 60"/><path fill="none" d="M10 70L360 70"/><path fill="none" d="M10 80L360 80"/><path fill="none" d="M10 90L360 90"/></g><g class="vf-stavebarline" id="vf-auto32745"><rect x="10" y="49.5" width="1" height="41" stroke="none"/></g><g class="vf-stavebarline" id="vf-auto32746"><rect x="360" y="49.5" width="1" height="41" stroke="none"/></g><g class="vf-timesignature" id="vf-auto32747"><path stroke="none" d="M25.991 59.437C28.806 58.335,28.978 56.499,28.978 55.887C28.978 55.814,28.978 55.74,28.978 55.692C28.978 55.373,28.88 51.408,22.809 51.408C16.738 51.408,16.934 55.692,16.934 55.692L16.958 55.692L16.934 55.765C16.934 57.038,17.937 58.017,19.21 58.017C20.483 58.017,21.462 57.038,21.462 55.765C21.462 54.737,20.703 53.758,19.7 53.537C19.749 53.513,19.773 53.488,19.822 53.439C20.312 53.097,20.973 52.925,21.658 52.925C23.127 52.925,24.718 53.807,24.718 55.692C24.718 57.919,23.054 58.237,22.637 58.311C22.221 58.384,20.238 58.531,19.822 58.531C19.382 58.531,19.357 59.021,19.357 59.021L19.357 59.706C19.357 59.706,19.431 60.098,19.822 60.147C20.41 60.171,21.218 60.171,22.344 60.343C23.91 60.563,24.718 61.616,24.718 64.088C24.718 66.463,23.127 67.075,21.658 67.075C20.655 67.075,19.749 66.805,19.357 66.512C20.508 66.463,21.462 65.435,21.462 64.26C21.462 62.987,20.483 61.983,19.21 61.983C17.937 61.983,16.934 62.987,16.934 64.26C16.934 64.26,16.934 64.333,16.934 64.406C16.934 64.872,17.031 66.144,18.304 67.295C19.675 68.568,21.389 68.592,22.172 68.592C25.551 68.592,29.223 67.442,29.223 63.599C29.223 61.028,27.46 59.927,25.918 59.437"/><path stroke="none" d="M22.344 84.48L22.344 87.075L19.406 87.075C19.162 87.075,18.917 87.295,18.917 87.589L18.917 88.25C18.917 88.519,19.162 88.739,19.406 88.739L30.08 88.739C30.373 88.739,30.569 88.519,30.569 88.25L30.569 87.589C30.569 87.295,30.373 87.075,30.08 87.075L26.922 87.075L26.922 84.48L30.08 84.48C30.373 84.48,30.569 84.235,30.569 83.941L30.569 83.28C30.569 83.036,30.373 82.791,30.08 82.791L26.922 82.791L26.922 77.185C26.922 76.964,26.799 76.793,26.677 76.72L26.236 76.499C26.163 76.475,26.138 76.475,26.065 76.475C26.04 76.475,26.04 76.475,25.992 76.475C25.894 76.475,25.747 76.499,25.673 76.573L22.466 79.51C22.368 79.608,22.344 79.755,22.344 79.902L22.344 82.791L18.231 82.791C18.231 82.791,22.197 78.556,26.359 72.974C26.481 72.803,26.53 72.632,26.53 72.485C26.53 72.313,26.457 72.166,26.432 72.142L25.649 71.359C25.551 71.285,25.428 71.212,25.282 71.212C25.086 71.212,20.312 71.212,20.043 71.212C19.798 71.212,19.627 71.432,19.578 71.652C19.578 71.652,19.406 74.247,18.501 77.111C17.57 79.976,16.518 81.738,15.588 83.036C15.588 83.036,15.49 83.207,15.49 83.427C15.49 83.501,15.49 83.55,15.539 83.623C15.636 83.868,15.881 84.26,15.881 84.26C15.881 84.26,15.955 84.48,16.273 84.48"/></g><g class="vf-stavenote" id="vf-auto32751"><g class="vf-stem" id="vf-auto32752" pointer-events="bounding-box"><path stroke-width="1.5" fill="none" d="M54.471 78L54.471 45"/></g><g class="vf-notehead" id="vf-auto32754" pointer-events="bounding-box"><path stroke="none" d="M42.08 81.685C42.08 83.426,43.343 85.391,46.601 85.391C50.813 85.391,55.221 81.938,55.221 78.371C55.221 75.985,53.199 74.665,50.7 74.665C46.769 74.665,42.08 77.978,42.08 81.685"/></g></g><g class="vf-stavenote" id="vf-auto32755"><g class="vf-stem" id="vf-auto32756" pointer-events="bounding-box"><path stroke-width="1.5" fill="none" d="M113.71 73L113.71 40"/></g><g class="vf-notehead" id="vf-auto32758" pointer-events="bounding-box"><path stroke="none" d="M101.318 76.685C101.318 78.426,102.582 80.391,105.839 80.391C110.051 80.391,114.46 76.938,114.46 73.371C114.46 70.985,112.438 69.665,109.939 69.665C106.008 69.665,101.318 72.978,101.318 76.685"/></g></g><g class="vf-stavenote" id="vf-auto32759"><g class="vf-stem" id="vf-auto32760" pointer-events="bounding-box"><path stroke-width="1.5" fill="none" d="M172.948 68L172.948 35"/></g><g class="vf-notehead" id="vf-auto32762" pointer-events="bounding-box"><path stroke="none" d="M160.557 71.685C160.557 73.426,161.82 75.391,165.078 75.391C169.29 75.391,173.698 71.938,173.698 68.371C173.698 65.985,171.676 64.665,169.177 64.665C165.246 64.665,160.557 67.978,160.557 71.685"/></g></g><g class="vf-stavenote" id="vf-auto32763"><g class="vf-stem" id="vf-auto32764" pointer-events="bounding-box"><path stroke-width="1.5" fill="none" d="M232.187 68L232.187 38"/></g><g class="vf-notehead" id="vf-auto32767" pointer-events="bounding-box"><path stroke="none" d="M219.795 71.685C219.795 73.426,221.059 75.391,224.316 75.391C228.528 75.391,232.937 71.938,232.937 68.371C232.937 65.985,230.915 64.665,228.416 64.665C224.484 64.665,219.795 67.978,219.795 71.685"/></g><path stroke="none" d="M231.437 42.182C231.437 42.294,231.465 42.491,231.774 42.631C233.486 43.193,236.968 45.383,239.608 49.848C240.338 51.112,241.517 52.853,241.517 56.222C241.517 59.114,240.731 62.119,239.692 65.011C239.608 65.264,239.524 65.46,239.552 65.629C239.552 65.797,239.608 65.91,239.776 65.994C239.861 66.022,239.917 66.022,239.973 66.022C240.254 66.022,240.45 65.882,240.619 65.601C242.528 62.231,243.174 57.935,243.118 55.408C243.118 55.211,243.118 55.071,243.118 54.902C242.921 49.708,239.917 45.861,239.917 45.861C240.057 45.861,236.21 40.89,235.115 39.178C233.627 36.875,232.925 34.572,232.841 34.404C232.812 34.292,232.447 32.832,232.447 32.832C232.419 32.663,232.195 32.523,231.97 32.523C231.689 32.523,231.437 32.747,231.437 33.028"/></g><g class="vf-stavenote" id="vf-auto32769"><g class="vf-stem" id="vf-auto32770" pointer-events="bounding-box"><path stroke-width="1.5" fill="none" d="M278.053 73L278.053 43"/></g><g class="vf-notehead" id="vf-auto32773" pointer-events="bounding-box"><path stroke="none" d="M265.661 76.685C265.661 78.426,266.925 80.391,270.182 80.391C274.394 80.391,278.803 76.938,278.803 73.371C278.803 70.985,276.781 69.665,274.282 69.665C270.351 69.665,265.661 72.978,265.661 76.685"/></g><path stroke="none" d="M277.303 47.182C277.303 47.294,277.331 47.491,277.64 47.631C279.353 48.193,282.835 50.383,285.474 54.848C286.204 56.112,287.383 57.853,287.383 61.222C287.383 64.114,286.597 67.119,285.558 70.011C285.474 70.264,285.39 70.46,285.418 70.629C285.418 70.797,285.474 70.91,285.643 70.994C285.727 71.022,285.783 71.022,285.839 71.022C286.12 71.022,286.316 70.882,286.485 70.601C288.394 67.231,289.04 62.935,288.984 60.408C288.984 60.211,288.984 60.071,288.984 59.902C288.787 54.708,285.783 50.861,285.783 50.861C285.923 50.861,282.076 45.89,280.981 44.178C279.493 41.875,278.791 39.572,278.707 39.404C278.679 39.292,278.314 37.832,278.314 37.832C278.286 37.663,278.061 37.523,277.836 37.523C277.555 37.523,277.303 37.747,277.303 38.028"/></g><g class="vf-stavenote" id="vf-auto32775"><g class="vf-stem" id="vf-auto32776" pointer-events="bounding-box"><path stroke-width="1.5" fill="none" d="M323.919 78L323.919 48"/></g><g class="vf-notehead" id="vf-auto32779" pointer-events="bounding-box"><path stroke="none" d="M311.528 81.685C311.528 83.426,312.791 85.391,316.048 85.391C320.26 85.391,324.669 81.938,324.669 78.371C324.669 75.985,322.647 74.665,320.148 74.665C316.217 74.665,311.528 77.978,311.528 81.685"/></g><path stroke="none" d="M323.169 52.182C323.169 52.294,323.197 52.491,323.506 52.631C325.219 53.193,328.701 55.383,331.34 59.848C332.07 61.112,333.25 62.853,333.25 66.222C333.25 69.114,332.463 72.119,331.424 75.011C331.34 75.264,331.256 75.46,331.284 75.629C331.284 75.797,331.34 75.91,331.509 75.994C331.593 76.022,331.649 76.022,331.705 76.022C331.986 76.022,332.183 75.882,332.351 75.601C334.261 72.231,334.906 67.935,334.85 65.408C334.85 65.211,334.85 65.071,334.85 64.902C334.654 59.708,331.649 55.861,331.649 55.861C331.79 55.861,327.943 50.89,326.847 49.178C325.359 46.875,324.657 44.572,324.573 44.404C324.545 44.292,324.18 42.832,324.18 42.832C324.152 42.663,323.927 42.523,323.702 42.523C323.422 42.523,323.169 42.747,323.169 43.028"/></g><rect x="37.08" y="25" width="61.833" height="1" stroke="none"/><rect x="116.865" y="25" width="61.833" height="1" stroke="none"/><rect x="37.08" y="25" width="1" height="10" stroke="none"/><rect x="178.698" y="25" width="1" height="10" stroke="none"/><path stroke="none" d="M110.122 23.969C111.944 23.256,112.055 22.068,112.055 21.672C112.055 21.625,112.055 21.577,112.055 21.545C112.055 21.34,111.991 18.773,108.063 18.773C104.135 18.773,104.261 21.545,104.261 21.545L104.277 21.545L104.261 21.593C104.261 22.417,104.911 23.05,105.734 23.05C106.558 23.05,107.192 22.417,107.192 21.593C107.192 20.928,106.701 20.294,106.051 20.152C106.083 20.136,106.099 20.12,106.13 20.088C106.447 19.866,106.875 19.756,107.318 19.756C108.269 19.756,109.298 20.326,109.298 21.545C109.298 22.987,108.221 23.193,107.952 23.24C107.683 23.288,106.4 23.383,106.13 23.383C105.845 23.383,105.829 23.7,105.829 23.7L105.829 24.143C105.829 24.143,105.877 24.397,106.13 24.428C106.511 24.444,107.033 24.444,107.762 24.555C108.776 24.698,109.298 25.379,109.298 26.979C109.298 28.515,108.269 28.911,107.318 28.911C106.669 28.911,106.083 28.737,105.829 28.547C106.574 28.515,107.192 27.85,107.192 27.089C107.192 26.266,106.558 25.616,105.734 25.616C104.911 25.616,104.261 26.266,104.261 27.089C104.261 27.089,104.261 27.137,104.261 27.185C104.261 27.485,104.325 28.309,105.148 29.054C106.035 29.877,107.144 29.893,107.651 29.893C109.837 29.893,112.213 29.149,112.213 26.662C112.213 24.999,111.072 24.286,110.075 23.969"/><rect x="214.795" y="25" width="48.461" height="1" stroke="none"/><rect x="281.208" y="25" width="48.461" height="1" stroke="none"/><rect x="214.795" y="25" width="1" height="10" stroke="none"/><rect x="329.669" y="25" width="1" height="10" stroke="none"/><path stroke="none" d="M274.465 23.969C276.287 23.256,276.398 22.068,276.398 21.672C276.398 21.625,276.398 21.577,276.398 21.545C276.398 21.34,276.334 18.773,272.406 18.773C268.478 18.773,268.604 21.545,268.604 21.545L268.62 21.545L268.604 21.593C268.604 22.417,269.254 23.05,270.078 23.05C270.901 23.05,271.535 22.417,271.535 21.593C271.535 20.928,271.044 20.294,270.394 20.152C270.426 20.136,270.442 20.12,270.474 20.088C270.79 19.866,271.218 19.756,271.662 19.756C272.612 19.756,273.642 20.326,273.642 21.545C273.642 22.987,272.564 23.193,272.295 23.24C272.026 23.288,270.743 23.383,270.474 23.383C270.188 23.383,270.173 23.7,270.173 23.7L270.173 24.143C270.173 24.143,270.22 24.397,270.474 24.428C270.854 24.444,271.376 24.444,272.105 24.555C273.119 24.698,273.642 25.379,273.642 26.979C273.642 28.515,272.612 28.911,271.662 28.911C271.012 28.911,270.426 28.737,270.173 28.547C270.917 28.515,271.535 27.85,271.535 27.089C271.535 26.266,270.901 25.616,270.078 25.616C269.254 25.616,268.604 26.266,268.604 27.089C268.604 27.089,268.604 27.137,268.604 27.185C268.604 27.485,268.668 28.309,269.491 29.054C270.379 29.877,271.487 29.893,271.994 29.893C274.18 29.893,276.556 29.149,276.556 26.662C276.556 24.999,275.416 24.286,274.418 23.969"/></svg>