<svg xmlns="http://www.w3.org/2000/svg" stroke-width="0.3" stroke-dasharray="none" fill="black" stroke="black" font-family="Arial, sans-serif" font-size="10pt" font-weight="normal" font-style="normal" width="450" height="140" viewBox="0 0 450 140" style="width: 450px; height: 140px; border: none;"><g class="vf-stave" id="vf-auto12685" stroke-width="1" fill="#999999" stroke="#999999"><path fill="none" d="M0 40L440 40"/><path fill="none" d="M0 50L440 50"/><path fill="none" d="M0 60L440 60"/><path fill="none" d="M0 70L440 70"/><path fill="none" d="M0 80L440 80"/></g><g class="vf-stavebarline" id="vf-auto12686"><rect y="39.5" width="1" height="41" stroke="none"/></g><g class="vf-stavebarline" id="vf-auto12687"><rect x="440" y="39.5" width="1" height="41" stroke="none"/></g><g class="vf-stavenote" id="vf-auto12688"><g class="vf-stem" id="vf-auto12689" pointer-events="bounding-box"><path stroke-width="1.5" fill="none" d="M29.391 83L29.391 50"/></g><g class="vf-notehead" id="vf-auto12691" pointer-events="bounding-box"><path stroke="none" d="M17 86.685C17 88.426,18.264 90.391,21.521 90.391C25.733 90.391,30.141 86.938,30.141 83.371C30.141 80.985,28.12 79.665,25.621 79.665C21.689 79.665,17 82.978,17 86.685"/></g></g><g class="vf-stavenote" id="vf-auto12692"><g class="vf-stem" id="vf-auto12693" pointer-events="bounding-box"><path stroke-width="1.5" fill="none" d="M102.209 68L102.209 35"/></g><g class="vf-notehead" id="vf-auto12695" pointer-events="bounding-box"><path stroke="none" d="M89.818 71.685C89.818 73.426,91.081 75.391,94.338 75.391C98.55 75.391,102.959 71.938,102.959 68.371C102.959 65.985,100.937 64.665,98.438 64.665C94.507 64.665,89.818 67.978,89.818 71.685"/></g></g><g class="vf-stavenote" id="vf-auto12696"><g class="vf-stem" id="vf-auto12697" pointer-events="bounding-box"><path stroke-width="1.5" fill="none" d="M163.385 57L163.385 90"/></g><g class="vf-notehead" id="vf-auto12699" pointer-events="bounding-box"><path stroke="none" d="M162.635 56.685C162.635 58.426,163.899 60.391,167.156 60.391C171.368 60.391,175.777 56.938,175.777 53.371C175.777 50.985,173.755 49.665,171.256 49.665C167.325 49.665,162.635 52.978,162.635 56.685"/></g></g><g class="vf-stavenote" id="vf-auto12703"><g class="vf-notehead" id="vf-auto12730" pointer-events="bounding-box"><path stroke="none" d="M235.453 36.685C235.453 38.426,236.716 40.391,239.974 40.391C244.186 40.391,248.594 36.938,248.594 33.371C248.594 30.985,246.572 29.665,244.073 29.665C240.142 29.665,235.453 32.978,235.453 36.685"/></g></g><g class="vf-stavenote" id="vf-auto12709"><path stroke-width="1.4" fill="none" stroke="#444" d="M285.34 30L304.481 30"/><g class="vf-notehead" id="vf-auto12732" pointer-events="bounding-box"><path stroke="none" d="M288.34 31.685C288.34 33.426,289.603 35.391,292.86 35.391C297.072 35.391,301.481 31.938,301.481 28.371C301.481 25.985,299.459 24.665,296.96 24.665C293.029 24.665,288.34 27.978,288.34 31.685"/></g></g><g class="vf-stavenote" id="vf-auto12715"><path stroke-width="1.4" fill="none" stroke="#444" d="M338.226 30L357.368 30"/><g class="vf-notehead" id="vf-auto12734" pointer-events="bounding-box"><path stroke="none" d="M341.226 31.685C341.226 33.426,342.49 35.391,345.747 35.391C349.959 35.391,354.368 31.938,354.368 28.371C354.368 25.985,352.346 24.665,349.847 24.665C345.916 24.665,341.226 27.978,341.226 31.685"/></g></g><g class="vf-stavenote" id="vf-auto12721"><g class="vf-notehead" id="vf-auto12737" pointer-events="bounding-box"><path stroke="none" d="M394.113 56.685C394.113 58.426,395.377 60.391,398.634 60.391C402.846 60.391,407.255 56.938,407.255 53.371C407.255 50.985,405.233 49.665,402.734 49.665C398.803 49.665,394.113 52.978,394.113 56.685"/></g><g class="vf-notehead" id="vf-auto12736" pointer-events="bounding-box"><path stroke="none" d="M394.113 46.685C394.113 48.426,395.377 50.391,398.634 50.391C402.846 50.391,407.255 46.938,407.255 43.371C407.255 40.985,405.233 39.665,402.734 39.665C398.803 39.665,394.113 42.978,394.113 46.685"/></g></g><rect x="12" y="25" width="75.412" height="1" stroke="none"/><rect x="105.364" y="25" width="75.412" height="1" stroke="none"/><rect x="12" y="25" width="1" height="10" stroke="none"/><rect x="180.777" y="25" width="1" height="10" stroke="none"/><path stroke="none" d="M98.622 23.969C100.443 23.256,100.554 22.068,100.554 21.672C100.554 21.625,100.554 21.577,100.554 21.545C100.554 21.34,100.491 18.773,96.562 18.773C92.634 18.773,92.761 21.545,92.761 21.545L92.777 21.545L92.761 21.593C92.761 22.417,93.41 23.05,94.234 23.05C95.058 23.05,95.691 22.417,95.691 21.593C95.691 20.928,95.2 20.294,94.551 20.152C94.582 20.136,94.598 20.12,94.63 20.088C94.947 19.866,95.374 19.756,95.818 19.756C96.768 19.756,97.798 20.326,97.798 21.545C97.798 22.987,96.721 23.193,96.451 23.24C96.182 23.288,94.899 23.383,94.63 23.383C94.345 23.383,94.329 23.7,94.329 23.7L94.329 24.143C94.329 24.143,94.376 24.397,94.63 24.428C95.01 24.444,95.533 24.444,96.261 24.555C97.275 24.698,97.798 25.379,97.798 26.979C97.798 28.515,96.768 28.911,95.818 28.911C95.168 28.911,94.582 28.737,94.329 28.547C95.073 28.515,95.691 27.85,95.691 27.089C95.691 26.266,95.058 25.616,94.234 25.616C93.41 25.616,92.761 26.266,92.761 27.089C92.761 27.089,92.761 27.137,92.761 27.185C92.761 27.485,92.824 28.309,93.648 29.054C94.535 29.877,95.644 29.893,96.15 29.893C98.336 29.893,100.712 29.149,100.712 26.662C100.712 24.999,99.572 24.286,98.574 23.969"/><g class="vf-stem" id="vf-auto12704" pointer-events="bounding-box"><path stroke-width="1.5" fill="none" d="M236.203 37L236.203 69.417"/></g><g class="vf-stem" id="vf-auto12710" pointer-events="bounding-box"><path stroke-width="1.5" fill="none" d="M289.09 32L289.09 76.028"/></g><g class="vf-stem" id="vf-auto12716" pointer-events="bounding-box"><path stroke-width="1.5" fill="none" d="M341.976 32L341.976 82.639"/></g><g class="vf-stem" id="vf-auto12722" pointer-events="bounding-box"><path stroke-width="1.5" fill="none" d="M394.863 47L394.863 89.25"/></g><g class="vf-beam" id="vf-auto12739"><path stroke="none" d="M235.453 70.074L235.453 65.074L395.113 84.906L395.113 89.906Z"/><path stroke="none" d="M235.453 62.574L235.453 57.574L395.113 77.406L395.113 82.406Z"/></g></svg>