<svg xmlns="http://www.w3.org/2000/svg" stroke-width="0.3" stroke-dasharray="none" fill="black" stroke="black" font-family="Arial, sans-serif" font-size="10pt" font-weight="normal" font-style="normal" width="775" height="750" viewBox="0 0 775 750" style="width: 775px; height: 750px; border: none;"><g class="vf-stave" id="vf-auto22422" stroke-width="1" fill="#999999" stroke="#999999"><path fill="none" d="M50 50L713.549 50"/><path fill="none" d="M50 60L713.549 60"/><path fill="none" d="M50 70L713.549 70"/><path fill="none" d="M50 80L713.549 80"/><path fill="none" d="M50 90L713.549 90"/></g><g class="vf-stavebarline" id="vf-auto22423"/><g class="vf-stavebarline" id="vf-auto22424"><rect x="713.549" y="49.5" width="1" height="41" stroke="none"/></g><g class="vf-clef" id="vf-auto22425"><path stroke="none" d="M75.503 81.76C75.503 84.345,74.464 87.032,71.854 88.071C71.093 83.712,70.105 77.908,69.852 76.286C73.146 76.286,75.503 78.516,75.503 81.76M70.333 88.527C69.598 88.654,68.914 88.73,68.204 88.73C62.983 88.73,58.548 85.08,58.548 79.581C58.548 75.12,61.691 71.141,64.884 68.379C65.518 67.821,66.101 67.314,66.633 66.757C66.962 68.734,67.216 70.457,67.469 71.952C64.149 72.941,61.894 76.438,61.894 79.86C61.894 82.419,63.896 85.917,66.836 85.917C67.114 85.917,67.444 85.79,67.444 85.461C67.444 85.131,67.089 84.954,66.633 84.65C65.214 83.762,64.428 82.825,64.428 81.025C64.428 78.82,66.05 77.021,68.204 76.514M67.114 50.993C67.444 49.548,69.117 45.721,71.017 45.721C71.575 45.721,72.437 47.495,72.437 50.004C72.437 53.806,69.623 56.67,67.114 59.128C66.886 57.684,66.709 56.264,66.709 54.718C66.709 53.375,66.836 52.133,67.114 50.993M59.461 99.729C59.461 102.137,61.311 105.305,66.253 105.305C67.951 105.305,69.446 104.874,70.764 104.063C72.741 102.669,73.248 100.261,73.248 97.98C73.248 96.536,73.02 94.914,72.665 92.836C72.563 92.101,72.335 91.011,72.107 89.566C75.681 88.4,78.367 84.675,78.367 80.924C78.367 75.424,74.464 71.699,69.117 71.699C68.762 69.494,68.382 67.34,68.078 65.312C71.93 61.257,74.591 56.695,74.591 50.891C74.591 47.571,73.577 44.859,72.994 43.567C72.107 41.691,71.068 40.424,70.409 40.424C70.156 40.424,69.015 40.855,67.799 42.274C65.467 45.062,64.808 49.726,64.808 52.792C64.808 54.769,65.011 56.543,65.619 60.623C65.594 60.674,63.693 62.6,62.907 63.234C59.587 66.326,55 70.736,55 78.035C55 84.878,60.956 90.225,67.748 90.225C68.787 90.225,69.776 90.124,70.612 89.972C71.322 93.469,71.727 96.029,71.727 97.98C71.727 101.757,69.776 103.784,66.101 103.784C65.214 103.784,64.453 103.582,64.377 103.582C64.352 103.556,64.276 103.505,64.276 103.48C64.276 103.404,64.352 103.379,64.453 103.328C66.177 103.075,67.875 101.63,67.875 99.273C67.875 97.322,66.379 95.243,63.642 95.243C61.083 95.243,59.461 97.322,59.461 99.729"/></g><g class="vf-timesignature" id="vf-auto22426"><path stroke="none" d="M104.04 66.952L104.04 51.775C104.04 51.53,103.845 51.359,103.6 51.359L100.124 51.359C100.05 51.359,99.977 51.408,99.903 51.432C99.879 51.481,99.805 51.53,99.756 51.579L95.815 58.409C95.791 58.482,95.791 58.556,95.791 58.629C95.791 58.776,95.889 58.898,95.987 58.972L96.672 59.364C96.721 59.412,96.794 59.437,96.868 59.437C97.015 59.437,97.162 59.339,97.235 59.217L99.732 54.933L99.732 66.952L97.039 66.952C96.794 66.952,96.623 67.124,96.623 67.368L96.623 68.152C96.623 68.397,96.794 68.568,97.039 68.568L106.709 68.568C106.954 68.568,107.1 68.397,107.1 68.152L107.1 67.368C107.1 67.124,106.954 66.952,106.709 66.952"/><path stroke="none" d="M100.711 84.48L100.711 87.075L97.774 87.075C97.529 87.075,97.284 87.295,97.284 87.589L97.284 88.25C97.284 88.519,97.529 88.739,97.774 88.739L108.447 88.739C108.741 88.739,108.936 88.519,108.936 88.25L108.936 87.589C108.936 87.295,108.741 87.075,108.447 87.075L105.289 87.075L105.289 84.48L108.447 84.48C108.741 84.48,108.936 84.235,108.936 83.941L108.936 83.28C108.936 83.036,108.741 82.791,108.447 82.791L105.289 82.791L105.289 77.185C105.289 76.964,105.167 76.793,105.044 76.72L104.603 76.499C104.53 76.475,104.506 76.475,104.432 76.475C104.408 76.475,104.408 76.475,104.359 76.475C104.261 76.475,104.114 76.499,104.04 76.573L100.834 79.51C100.736 79.608,100.711 79.755,100.711 79.902L100.711 82.791L96.599 82.791C96.599 82.791,100.564 78.556,104.726 72.974C104.848 72.803,104.897 72.632,104.897 72.485C104.897 72.313,104.824 72.166,104.799 72.142L104.016 71.359C103.918 71.285,103.796 71.212,103.649 71.212C103.453 71.212,98.679 71.212,98.41 71.212C98.165 71.212,97.994 71.432,97.945 71.652C97.945 71.652,97.774 74.247,96.868 77.111C95.938 79.976,94.885 81.738,93.955 83.036C93.955 83.036,93.857 83.207,93.857 83.427C93.857 83.501,93.857 83.55,93.906 83.623C94.004 83.868,94.248 84.26,94.248 84.26C94.248 84.26,94.322 84.48,94.64 84.48"/></g><g class="vf-stave" id="vf-auto22430" stroke-width="1" fill="#999999" stroke="#999999"><path fill="none" d="M50 185L713.549 185"/><path fill="none" d="M50 195L713.549 195"/><path fill="none" d="M50 205L713.549 205"/><path fill="none" d="M50 215L713.549 215"/><path fill="none" d="M50 225L713.549 225"/></g><g class="vf-stavebarline" id="vf-auto22431"/><g class="vf-stavebarline" id="vf-auto22432"><rect x="713.549" y="184.5" width="1" height="41" stroke="none"/></g><g class="vf-clef" id="vf-auto22433"><path stroke="none" d="M75.503 216.76C75.503 219.345,74.464 222.032,71.854 223.071C71.093 218.712,70.105 212.908,69.852 211.286C73.146 211.286,75.503 213.516,75.503 216.76M70.333 223.527C69.598 223.654,68.914 223.73,68.204 223.73C62.983 223.73,58.548 220.08,58.548 214.581C58.548 210.12,61.691 206.141,64.884 203.379C65.518 202.821,66.101 202.314,66.633 201.757C66.962 203.734,67.216 205.457,67.469 206.952C64.149 207.941,61.894 211.438,61.894 214.86C61.894 217.419,63.896 220.917,66.836 220.917C67.114 220.917,67.444 220.79,67.444 220.461C67.444 220.131,67.089 219.954,66.633 219.65C65.214 218.762,64.428 217.825,64.428 216.025C64.428 213.82,66.05 212.021,68.204 211.514M67.114 185.993C67.444 184.548,69.117 180.721,71.017 180.721C71.575 180.721,72.437 182.495,72.437 185.004C72.437 188.806,69.623 191.67,67.114 194.128C66.886 192.684,66.709 191.264,66.709 189.718C66.709 188.375,66.836 187.133,67.114 185.993M59.461 234.729C59.461 237.137,61.311 240.305,66.253 240.305C67.951 240.305,69.446 239.874,70.764 239.063C72.741 237.669,73.248 235.261,73.248 232.98C73.248 231.536,73.02 229.914,72.665 227.836C72.563 227.101,72.335 226.011,72.107 224.566C75.681 223.4,78.367 219.675,78.367 215.924C78.367 210.424,74.464 206.699,69.117 206.699C68.762 204.494,68.382 202.34,68.078 200.312C71.93 196.257,74.591 191.695,74.591 185.891C74.591 182.571,73.577 179.859,72.994 178.567C72.107 176.691,71.068 175.424,70.409 175.424C70.156 175.424,69.015 175.855,67.799 177.274C65.467 180.062,64.808 184.726,64.808 187.792C64.808 189.769,65.011 191.543,65.619 195.623C65.594 195.674,63.693 197.6,62.907 198.234C59.587 201.326,55 205.736,55 213.035C55 219.878,60.956 225.225,67.748 225.225C68.787 225.225,69.776 225.124,70.612 224.972C71.322 228.469,71.727 231.029,71.727 232.98C71.727 236.757,69.776 238.784,66.101 238.784C65.214 238.784,64.453 238.582,64.377 238.582C64.352 238.556,64.276 238.505,64.276 238.48C64.276 238.404,64.352 238.379,64.453 238.328C66.177 238.075,67.875 236.63,67.875 234.273C67.875 232.322,66.379 230.243,63.642 230.243C61.083 230.243,59.461 232.322,59.461 234.729"/></g><g class="vf-timesignature" id="vf-auto22434"><path stroke="none" d="M104.04 201.952L104.04 186.775C104.04 186.53,103.845 186.359,103.6 186.359L100.124 186.359C100.05 186.359,99.977 186.408,99.903 186.432C99.879 186.481,99.805 186.53,99.756 186.579L95.815 193.409C95.791 193.482,95.791 193.556,95.791 193.629C95.791 193.776,95.889 193.898,95.987 193.972L96.672 194.364C96.721 194.412,96.794 194.437,96.868 194.437C97.015 194.437,97.162 194.339,97.235 194.217L99.732 189.933L99.732 201.952L97.039 201.952C96.794 201.952,96.623 202.124,96.623 202.368L96.623 203.152C96.623 203.397,96.794 203.568,97.039 203.568L106.709 203.568C106.954 203.568,107.1 203.397,107.1 203.152L107.1 202.368C107.1 202.124,106.954 201.952,106.709 201.952"/><path stroke="none" d="M100.711 219.48L100.711 222.075L97.774 222.075C97.529 222.075,97.284 222.295,97.284 222.589L97.284 223.25C97.284 223.519,97.529 223.739,97.774 223.739L108.447 223.739C108.741 223.739,108.936 223.519,108.936 223.25L108.936 222.589C108.936 222.295,108.741 222.075,108.447 222.075L105.289 222.075L105.289 219.48L108.447 219.48C108.741 219.48,108.936 219.235,108.936 218.941L108.936 218.28C108.936 218.036,108.741 217.791,108.447 217.791L105.289 217.791L105.289 212.185C105.289 211.964,105.167 211.793,105.044 211.72L104.603 211.499C104.53 211.475,104.506 211.475,104.432 211.475C104.408 211.475,104.408 211.475,104.359 211.475C104.261 211.475,104.114 211.499,104.04 211.573L100.834 214.51C100.736 214.608,100.711 214.755,100.711 214.902L100.711 217.791L96.599 217.791C96.599 217.791,100.564 213.556,104.726 207.974C104.848 207.803,104.897 207.632,104.897 207.485C104.897 207.313,104.824 207.166,104.799 207.142L104.016 206.359C103.918 206.285,103.796 206.212,103.649 206.212C103.453 206.212,98.679 206.212,98.41 206.212C98.165 206.212,97.994 206.432,97.945 206.652C97.945 206.652,97.774 209.247,96.868 212.111C95.938 214.976,94.885 216.738,93.955 218.036C93.955 218.036,93.857 218.207,93.857 218.427C93.857 218.501,93.857 218.55,93.906 218.623C94.004 218.868,94.248 219.26,94.248 219.26C94.248 219.26,94.322 219.48,94.64 219.48"/></g><g class="vf-stave" id="vf-auto22438" stroke-width="1" fill="#999999" stroke="#999999"><path fill="none" d="M50 320L713.549 320"/><path fill="none" d="M50 330L713.549 330"/><path fill="none" d="M50 340L713.549 340"/><path fill="none" d="M50 350L713.549 350"/><path fill="none" d="M50 360L713.549 360"/></g><g class="vf-stavebarline" id="vf-auto22439"/><g class="vf-stavebarline" id="vf-auto22440"><rect x="713.549" y="319.5" width="1" height="41" stroke="none"/></g><g class="vf-clef" id="vf-auto22441"><path stroke="none" d="M75.503 351.76C75.503 354.345,74.464 357.032,71.854 358.071C71.093 353.712,70.105 347.908,69.852 346.286C73.146 346.286,75.503 348.516,75.503 351.76M70.333 358.527C69.598 358.654,68.914 358.73,68.204 358.73C62.983 358.73,58.548 355.08,58.548 349.581C58.548 345.12,61.691 341.141,64.884 338.379C65.518 337.821,66.101 337.314,66.633 336.757C66.962 338.734,67.216 340.457,67.469 341.952C64.149 342.941,61.894 346.438,61.894 349.86C61.894 352.419,63.896 355.917,66.836 355.917C67.114 355.917,67.444 355.79,67.444 355.461C67.444 355.131,67.089 354.954,66.633 354.65C65.214 353.762,64.428 352.825,64.428 351.025C64.428 348.82,66.05 347.021,68.204 346.514M67.114 320.993C67.444 319.548,69.117 315.721,71.017 315.721C71.575 315.721,72.437 317.495,72.437 320.004C72.437 323.806,69.623 326.67,67.114 329.128C66.886 327.684,66.709 326.264,66.709 324.718C66.709 323.375,66.836 322.133,67.114 320.993M59.461 369.729C59.461 372.137,61.311 375.305,66.253 375.305C67.951 375.305,69.446 374.874,70.764 374.063C72.741 372.669,73.248 370.261,73.248 367.98C73.248 366.536,73.02 364.914,72.665 362.836C72.563 362.101,72.335 361.011,72.107 359.566C75.681 358.4,78.367 354.675,78.367 350.924C78.367 345.424,74.464 341.699,69.117 341.699C68.762 339.494,68.382 337.34,68.078 335.312C71.93 331.257,74.591 326.695,74.591 320.891C74.591 317.571,73.577 314.859,72.994 313.567C72.107 311.691,71.068 310.424,70.409 310.424C70.156 310.424,69.015 310.855,67.799 312.274C65.467 315.062,64.808 319.726,64.808 322.792C64.808 324.769,65.011 326.543,65.619 330.623C65.594 330.674,63.693 332.6,62.907 333.234C59.587 336.326,55 340.736,55 348.035C55 354.878,60.956 360.225,67.748 360.225C68.787 360.225,69.776 360.124,70.612 359.972C71.322 363.469,71.727 366.029,71.727 367.98C71.727 371.757,69.776 373.784,66.101 373.784C65.214 373.784,64.453 373.582,64.377 373.582C64.352 373.556,64.276 373.505,64.276 373.48C64.276 373.404,64.352 373.379,64.453 373.328C66.177 373.075,67.875 371.63,67.875 369.273C67.875 367.322,66.379 365.243,63.642 365.243C61.083 365.243,59.461 367.322,59.461 369.729"/></g><g class="vf-timesignature" id="vf-auto22442"><path stroke="none" d="M104.04 336.952L104.04 321.775C104.04 321.53,103.845 321.359,103.6 321.359L100.124 321.359C100.05 321.359,99.977 321.408,99.903 321.432C99.879 321.481,99.805 321.53,99.756 321.579L95.815 328.409C95.791 328.482,95.791 328.556,95.791 328.629C95.791 328.776,95.889 328.898,95.987 328.972L96.672 329.364C96.721 329.412,96.794 329.437,96.868 329.437C97.015 329.437,97.162 329.339,97.235 329.217L99.732 324.933L99.732 336.952L97.039 336.952C96.794 336.952,96.623 337.124,96.623 337.368L96.623 338.152C96.623 338.397,96.794 338.568,97.039 338.568L106.709 338.568C106.954 338.568,107.1 338.397,107.1 338.152L107.1 337.368C107.1 337.124,106.954 336.952,106.709 336.952"/><path stroke="none" d="M100.711 354.48L100.711 357.075L97.774 357.075C97.529 357.075,97.284 357.295,97.284 357.589L97.284 358.25C97.284 358.519,97.529 358.739,97.774 358.739L108.447 358.739C108.741 358.739,108.936 358.519,108.936 358.25L108.936 357.589C108.936 357.295,108.741 357.075,108.447 357.075L105.289 357.075L105.289 354.48L108.447 354.48C108.741 354.48,108.936 354.235,108.936 353.941L108.936 353.28C108.936 353.036,108.741 352.791,108.447 352.791L105.289 352.791L105.289 347.185C105.289 346.964,105.167 346.793,105.044 346.72L104.603 346.499C104.53 346.475,104.506 346.475,104.432 346.475C104.408 346.475,104.408 346.475,104.359 346.475C104.261 346.475,104.114 346.499,104.04 346.573L100.834 349.51C100.736 349.608,100.711 349.755,100.711 349.902L100.711 352.791L96.599 352.791C96.599 352.791,100.564 348.556,104.726 342.974C104.848 342.803,104.897 342.632,104.897 342.485C104.897 342.313,104.824 342.166,104.799 342.142L104.016 341.359C103.918 341.285,103.796 341.212,103.649 341.212C103.453 341.212,98.679 341.212,98.41 341.212C98.165 341.212,97.994 341.432,97.945 341.652C97.945 341.652,97.774 344.247,96.868 347.111C95.938 349.976,94.885 351.738,93.955 353.036C93.955 353.036,93.857 353.207,93.857 353.427C93.857 353.501,93.857 353.55,93.906 353.623C94.004 353.868,94.248 354.26,94.248 354.26C94.248 354.26,94.322 354.48,94.64 354.48"/></g><g class="vf-stave" id="vf-auto22446" stroke-width="1" fill="#999999" stroke="#999999"><path fill="none" d="M50 455L713.549 455"/><path fill="none" d="M50 465L713.549 465"/><path fill="none" d="M50 475L713.549 475"/><path fill="none" d="M50 485L713.549 485"/><path fill="none" d="M50 495L713.549 495"/></g><g class="vf-stavebarline" id="vf-auto22447"/><g class="vf-stavebarline" id="vf-auto22448"><rect x="713.549" y="454.5" width="1" height="41" stroke="none"/></g><g class="vf-clef" id="vf-auto22449"><path stroke="none" d="M75.503 486.76C75.503 489.345,74.464 492.032,71.854 493.071C71.093 488.712,70.105 482.908,69.852 481.286C73.146 481.286,75.503 483.516,75.503 486.76M70.333 493.527C69.598 493.654,68.914 493.73,68.204 493.73C62.983 493.73,58.548 490.08,58.548 484.581C58.548 480.12,61.691 476.141,64.884 473.379C65.518 472.821,66.101 472.314,66.633 471.757C66.962 473.734,67.216 475.457,67.469 476.952C64.149 477.941,61.894 481.438,61.894 484.86C61.894 487.419,63.896 490.917,66.836 490.917C67.114 490.917,67.444 490.79,67.444 490.461C67.444 490.131,67.089 489.954,66.633 489.65C65.214 488.762,64.428 487.825,64.428 486.025C64.428 483.82,66.05 482.021,68.204 481.514M67.114 455.993C67.444 454.548,69.117 450.721,71.017 450.721C71.575 450.721,72.437 452.495,72.437 455.004C72.437 458.806,69.623 461.67,67.114 464.128C66.886 462.684,66.709 461.264,66.709 459.718C66.709 458.375,66.836 457.133,67.114 455.993M59.461 504.729C59.461 507.137,61.311 510.305,66.253 510.305C67.951 510.305,69.446 509.874,70.764 509.063C72.741 507.669,73.248 505.261,73.248 502.98C73.248 501.536,73.02 499.914,72.665 497.836C72.563 497.101,72.335 496.011,72.107 494.566C75.681 493.4,78.367 489.675,78.367 485.924C78.367 480.424,74.464 476.699,69.117 476.699C68.762 474.494,68.382 472.34,68.078 470.312C71.93 466.257,74.591 461.695,74.591 455.891C74.591 452.571,73.577 449.859,72.994 448.567C72.107 446.691,71.068 445.424,70.409 445.424C70.156 445.424,69.015 445.855,67.799 447.274C65.467 450.062,64.808 454.726,64.808 457.792C64.808 459.769,65.011 461.543,65.619 465.623C65.594 465.674,63.693 467.6,62.907 468.234C59.587 471.326,55 475.736,55 483.035C55 489.878,60.956 495.225,67.748 495.225C68.787 495.225,69.776 495.124,70.612 494.972C71.322 498.469,71.727 501.029,71.727 502.98C71.727 506.757,69.776 508.784,66.101 508.784C65.214 508.784,64.453 508.582,64.377 508.582C64.352 508.556,64.276 508.505,64.276 508.48C64.276 508.404,64.352 508.379,64.453 508.328C66.177 508.075,67.875 506.63,67.875 504.273C67.875 502.322,66.379 500.243,63.642 500.243C61.083 500.243,59.461 502.322,59.461 504.729"/></g><g class="vf-timesignature" id="vf-auto22450"><path stroke="none" d="M104.04 471.952L104.04 456.775C104.04 456.53,103.845 456.359,103.6 456.359L100.124 456.359C100.05 456.359,99.977 456.408,99.903 456.432C99.879 456.481,99.805 456.53,99.756 456.579L95.815 463.409C95.791 463.482,95.791 463.556,95.791 463.629C95.791 463.776,95.889 463.898,95.987 463.972L96.672 464.364C96.721 464.412,96.794 464.437,96.868 464.437C97.015 464.437,97.162 464.339,97.235 464.217L99.732 459.933L99.732 471.952L97.039 471.952C96.794 471.952,96.623 472.124,96.623 472.368L96.623 473.152C96.623 473.397,96.794 473.568,97.039 473.568L106.709 473.568C106.954 473.568,107.1 473.397,107.1 473.152L107.1 472.368C107.1 472.124,106.954 471.952,106.709 471.952"/><path stroke="none" d="M100.711 489.48L100.711 492.075L97.774 492.075C97.529 492.075,97.284 492.295,97.284 492.589L97.284 493.25C97.284 493.519,97.529 493.739,97.774 493.739L108.447 493.739C108.741 493.739,108.936 493.519,108.936 493.25L108.936 492.589C108.936 492.295,108.741 492.075,108.447 492.075L105.289 492.075L105.289 489.48L108.447 489.48C108.741 489.48,108.936 489.235,108.936 488.941L108.936 488.28C108.936 488.036,108.741 487.791,108.447 487.791L105.289 487.791L105.289 482.185C105.289 481.964,105.167 481.793,105.044 481.72L104.603 481.499C104.53 481.475,104.506 481.475,104.432 481.475C104.408 481.475,104.408 481.475,104.359 481.475C104.261 481.475,104.114 481.499,104.04 481.573L100.834 484.51C100.736 484.608,100.711 484.755,100.711 484.902L100.711 487.791L96.599 487.791C96.599 487.791,100.564 483.556,104.726 477.974C104.848 477.803,104.897 477.632,104.897 477.485C104.897 477.313,104.824 477.166,104.799 477.142L104.016 476.359C103.918 476.285,103.796 476.212,103.649 476.212C103.453 476.212,98.679 476.212,98.41 476.212C98.165 476.212,97.994 476.432,97.945 476.652C97.945 476.652,97.774 479.247,96.868 482.111C95.938 484.976,94.885 486.738,93.955 488.036C93.955 488.036,93.857 488.207,93.857 488.427C93.857 488.501,93.857 488.55,93.906 488.623C94.004 488.868,94.248 489.26,94.248 489.26C94.248 489.26,94.322 489.48,94.64 489.48"/></g><g class="vf-stave" id="vf-auto22454" stroke-width="1" fill="#999999" stroke="#999999"><path fill="none" d="M50 590L713.549 590"/><path fill="none" d="M50 600L713.549 600"/><path fill="none" d="M50 610L713.549 610"/><path fill="none" d="M50 620L713.549 620"/><path fill="none" d="M50 630L713.549 630"/></g><g class="vf-stavebarline" id="vf-auto22455"/><g class="vf-stavebarline" id="vf-auto22456"><rect x="713.549" y="589.5" width="1" height="41" stroke="none"/></g><g class="vf-clef" id="vf-auto22457"><path stroke="none" d="M75.503 621.76C75.503 624.345,74.464 627.032,71.854 628.071C71.093 623.712,70.105 617.908,69.852 616.286C73.146 616.286,75.503 618.516,75.503 621.76M70.333 628.527C69.598 628.654,68.914 628.73,68.204 628.73C62.983 628.73,58.548 625.08,58.548 619.581C58.548 615.12,61.691 611.141,64.884 608.379C65.518 607.821,66.101 607.314,66.633 606.757C66.962 608.734,67.216 610.457,67.469 611.952C64.149 612.941,61.894 616.438,61.894 619.86C61.894 622.419,63.896 625.917,66.836 625.917C67.114 625.917,67.444 625.79,67.444 625.461C67.444 625.131,67.089 624.954,66.633 624.65C65.214 623.762,64.428 622.825,64.428 621.025C64.428 618.82,66.05 617.021,68.204 616.514M67.114 590.993C67.444 589.548,69.117 585.721,71.017 585.721C71.575 585.721,72.437 587.495,72.437 590.004C72.437 593.806,69.623 596.67,67.114 599.128C66.886 597.684,66.709 596.264,66.709 594.718C66.709 593.375,66.836 592.133,67.114 590.993M59.461 639.729C59.461 642.137,61.311 645.305,66.253 645.305C67.951 645.305,69.446 644.874,70.764 644.063C72.741 642.669,73.248 640.261,73.248 637.98C73.248 636.536,73.02 634.914,72.665 632.836C72.563 632.101,72.335 631.011,72.107 629.566C75.681 628.4,78.367 624.675,78.367 620.924C78.367 615.424,74.464 611.699,69.117 611.699C68.762 609.494,68.382 607.34,68.078 605.312C71.93 601.257,74.591 596.695,74.591 590.891C74.591 587.571,73.577 584.859,72.994 583.567C72.107 581.691,71.068 580.424,70.409 580.424C70.156 580.424,69.015 580.855,67.799 582.274C65.467 585.062,64.808 589.726,64.808 592.792C64.808 594.769,65.011 596.543,65.619 600.623C65.594 600.674,63.693 602.6,62.907 603.234C59.587 606.326,55 610.736,55 618.035C55 624.878,60.956 630.225,67.748 630.225C68.787 630.225,69.776 630.124,70.612 629.972C71.322 633.469,71.727 636.029,71.727 637.98C71.727 641.757,69.776 643.784,66.101 643.784C65.214 643.784,64.453 643.582,64.377 643.582C64.352 643.556,64.276 643.505,64.276 643.48C64.276 643.404,64.352 643.379,64.453 643.328C66.177 643.075,67.875 641.63,67.875 639.273C67.875 637.322,66.379 635.243,63.642 635.243C61.083 635.243,59.461 637.322,59.461 639.729"/></g><g class="vf-timesignature" id="vf-auto22458"><path stroke="none" d="M104.04 606.952L104.04 591.775C104.04 591.53,103.845 591.359,103.6 591.359L100.124 591.359C100.05 591.359,99.977 591.408,99.903 591.432C99.879 591.481,99.805 591.53,99.756 591.579L95.815 598.409C95.791 598.482,95.791 598.556,95.791 598.629C95.791 598.776,95.889 598.898,95.987 598.972L96.672 599.364C96.721 599.412,96.794 599.437,96.868 599.437C97.015 599.437,97.162 599.339,97.235 599.217L99.732 594.933L99.732 606.952L97.039 606.952C96.794 606.952,96.623 607.124,96.623 607.368L96.623 608.152C96.623 608.397,96.794 608.568,97.039 608.568L106.709 608.568C106.954 608.568,107.1 608.397,107.1 608.152L107.1 607.368C107.1 607.124,106.954 606.952,106.709 606.952"/><path stroke="none" d="M100.711 624.48L100.711 627.075L97.774 627.075C97.529 627.075,97.284 627.295,97.284 627.589L97.284 628.25C97.284 628.519,97.529 628.739,97.774 628.739L108.447 628.739C108.741 628.739,108.936 628.519,108.936 628.25L108.936 627.589C108.936 627.295,108.741 627.075,108.447 627.075L105.289 627.075L105.289 624.48L108.447 624.48C108.741 624.48,108.936 624.235,108.936 623.941L108.936 623.28C108.936 623.036,108.741 622.791,108.447 622.791L105.289 622.791L105.289 617.185C105.289 616.964,105.167 616.793,105.044 616.72L104.603 616.499C104.53 616.475,104.506 616.475,104.432 616.475C104.408 616.475,104.408 616.475,104.359 616.475C104.261 616.475,104.114 616.499,104.04 616.573L100.834 619.51C100.736 619.608,100.711 619.755,100.711 619.902L100.711 622.791L96.599 622.791C96.599 622.791,100.564 618.556,104.726 612.974C104.848 612.803,104.897 612.632,104.897 612.485C104.897 612.313,104.824 612.166,104.799 612.142L104.016 611.359C103.918 611.285,103.796 611.212,103.649 611.212C103.453 611.212,98.679 611.212,98.41 611.212C98.165 611.212,97.994 611.432,97.945 611.652C97.945 611.652,97.774 614.247,96.868 617.111C95.938 619.976,94.885 621.738,93.955 623.036C93.955 623.036,93.857 623.207,93.857 623.427C93.857 623.501,93.857 623.55,93.906 623.623C94.004 623.868,94.248 624.26,94.248 624.26C94.248 624.26,94.322 624.48,94.64 624.48"/></g><g class="vf-stavenote" id="vf-auto22282"><g class="vf-stem" id="vf-auto22283" pointer-events="bounding-box"><path stroke-width="1.5" fill="none" d="M121.197 67L121.197 97"/></g><g class="vf-notehead" id="vf-auto22286" pointer-events="bounding-box"><path stroke="none" d="M120.447 66.685C120.447 68.426,121.71 70.391,124.968 70.391C129.18 70.391,133.588 66.938,133.588 63.371C133.588 60.985,131.567 59.665,129.067 59.665C125.136 59.665,120.447 62.978,120.447 66.685"/></g><path stroke="none" d="M120.447 101.972C120.447 102.253,120.7 102.477,120.98 102.477C121.177 102.477,121.43 102.337,121.458 102.168C121.458 102.112,121.823 100.708,121.851 100.596C121.907 100.428,122.272 98.883,123.732 96.496C125.305 93.885,127.72 91.975,129.741 89.139C131.735 86.303,132.942 83.636,132.942 80.098C132.942 76.391,132.1 73.33,129.938 69.399C129.826 69.118,129.573 68.978,129.348 68.978C129.264 68.978,129.18 68.978,129.152 69.006C128.927 69.09,128.871 69.259,128.871 69.483C128.871 69.624,128.899 69.82,128.983 69.989C130.584 73.723,131.23 75.886,131.23 78.778C131.23 82.147,130.078 83.888,129.348 85.152C126.709 89.617,122.469 91.807,120.784 92.369C120.475 92.509,120.447 92.706,120.447 92.818"/></g><g class="vf-stavenote" id="vf-auto22288"><g class="vf-stem" id="vf-auto22289" pointer-events="bounding-box"><path stroke-width="1.5" fill="none" d="M404.587 67L404.587 97"/></g><g class="vf-notehead" id="vf-auto22292" pointer-events="bounding-box"><path stroke="none" d="M403.837 66.685C403.837 68.426,405.101 70.391,408.358 70.391C412.57 70.391,416.978 66.938,416.978 63.371C416.978 60.985,414.957 59.665,412.457 59.665C408.526 59.665,403.837 62.978,403.837 66.685"/></g><path stroke="none" d="M403.837 101.972C403.837 102.253,404.09 102.477,404.37 102.477C404.567 102.477,404.82 102.337,404.848 102.168C404.848 102.112,405.213 100.708,405.241 100.596C405.297 100.428,405.662 98.883,407.122 96.496C408.695 93.885,411.11 91.975,413.131 89.139C415.125 86.303,416.333 83.636,416.333 80.098C416.333 76.391,415.49 73.33,413.328 69.399C413.216 69.118,412.963 68.978,412.738 68.978C412.654 68.978,412.57 68.978,412.542 69.006C412.317 69.09,412.261 69.259,412.261 69.483C412.261 69.624,412.289 69.82,412.373 69.989C413.974 73.723,414.62 75.886,414.62 78.778C414.62 82.147,413.468 83.888,412.738 85.152C410.099 89.617,405.859 91.807,404.174 92.369C403.865 92.509,403.837 92.706,403.837 92.818"/></g><g class="vf-stavenote" id="vf-auto22294"><g class="vf-stem" id="vf-auto22295" pointer-events="bounding-box"><path stroke-width="1.5" fill="none" d="M132.838 208L132.838 178"/></g><g class="vf-notehead" id="vf-auto22298" pointer-events="bounding-box"><path stroke="none" d="M120.447 211.685C120.447 213.426,121.71 215.391,124.968 215.391C129.18 215.391,133.588 211.938,133.588 208.371C133.588 205.985,131.567 204.665,129.067 204.665C125.136 204.665,120.447 207.978,120.447 211.685"/></g><path stroke="none" d="M132.088 182.182C132.088 182.294,132.116 182.491,132.425 182.631C134.138 183.193,137.62 185.383,140.26 189.848C140.99 191.112,142.169 192.853,142.169 196.222C142.169 199.114,141.383 202.119,140.344 205.011C140.26 205.264,140.175 205.46,140.203 205.629C140.203 205.797,140.26 205.91,140.428 205.994C140.512 206.022,140.568 206.022,140.625 206.022C140.905 206.022,141.102 205.882,141.27 205.601C143.18 202.231,143.826 197.935,143.77 195.408C143.77 195.211,143.77 195.071,143.77 194.902C143.573 189.708,140.568 185.861,140.568 185.861C140.709 185.861,136.862 180.89,135.767 179.178C134.279 176.875,133.577 174.572,133.492 174.404C133.464 174.292,133.099 172.832,133.099 172.832C133.071 172.663,132.846 172.523,132.622 172.523C132.341 172.523,132.088 172.747,132.088 173.028"/></g><g class="vf-stavenote" id="vf-auto22300"><g class="vf-stem" id="vf-auto22301" pointer-events="bounding-box"><path stroke-width="1.5" fill="none" d="M330.436 208L330.436 178"/></g><g class="vf-notehead" id="vf-auto22304" pointer-events="bounding-box"><path stroke="none" d="M318.044 211.685C318.044 213.426,319.308 215.391,322.565 215.391C326.777 215.391,331.186 211.938,331.186 208.371C331.186 205.985,329.164 204.665,326.665 204.665C322.734 204.665,318.044 207.978,318.044 211.685"/></g><path stroke="none" d="M329.686 182.182C329.686 182.294,329.714 182.491,330.023 182.631C331.735 183.193,335.217 185.383,337.857 189.848C338.587 191.112,339.766 192.853,339.766 196.222C339.766 199.114,338.98 202.119,337.941 205.011C337.857 205.264,337.773 205.46,337.801 205.629C337.801 205.797,337.857 205.91,338.025 205.994C338.11 206.022,338.166 206.022,338.222 206.022C338.503 206.022,338.699 205.882,338.868 205.601C340.777 202.231,341.423 197.935,341.367 195.408C341.367 195.211,341.367 195.071,341.367 194.902C341.17 189.708,338.166 185.861,338.166 185.861C338.306 185.861,334.459 180.89,333.364 179.178C331.876 176.875,331.174 174.572,331.09 174.404C331.062 174.292,330.696 172.832,330.696 172.832C330.668 172.663,330.444 172.523,330.219 172.523C329.938 172.523,329.686 172.747,329.686 173.028"/></g><g class="vf-stavenote" id="vf-auto22306"><g class="vf-stem" id="vf-auto22307" pointer-events="bounding-box"><path stroke-width="1.5" fill="none" d="M525.485 208L525.485 178"/></g><g class="vf-notehead" id="vf-auto22310" pointer-events="bounding-box"><path stroke="none" d="M513.094 211.685C513.094 213.426,514.358 215.391,517.615 215.391C521.827 215.391,526.235 211.938,526.235 208.371C526.235 205.985,524.214 204.665,521.714 204.665C517.783 204.665,513.094 207.978,513.094 211.685"/></g><path stroke="none" d="M524.735 182.182C524.735 182.294,524.763 182.491,525.072 182.631C526.785 183.193,530.267 185.383,532.907 189.848C533.637 191.112,534.816 192.853,534.816 196.222C534.816 199.114,534.03 202.119,532.991 205.011C532.907 205.264,532.822 205.46,532.85 205.629C532.85 205.797,532.907 205.91,533.075 205.994C533.159 206.022,533.216 206.022,533.272 206.022C533.552 206.022,533.749 205.882,533.918 205.601C535.827 202.231,536.473 197.935,536.417 195.408C536.417 195.211,536.417 195.071,536.417 194.902C536.22 189.708,533.216 185.861,533.216 185.861C533.356 185.861,529.509 180.89,528.414 179.178C526.926 176.875,526.224 174.572,526.139 174.404C526.111 174.292,525.746 172.832,525.746 172.832C525.718 172.663,525.494 172.523,525.269 172.523C524.988 172.523,524.735 172.747,524.735 173.028"/></g><g class="vf-stavenote" id="vf-auto22315"><g class="vf-stem" id="vf-auto22316" pointer-events="bounding-box"><path stroke-width="1.5" fill="none" d="M121.197 337L121.197 367"/></g><g class="vf-notehead" id="vf-auto22319" pointer-events="bounding-box"><path stroke="none" d="M120.447 336.685C120.447 338.426,121.71 340.391,124.968 340.391C129.18 340.391,133.588 336.938,133.588 333.371C133.588 330.985,131.567 329.665,129.067 329.665C125.136 329.665,120.447 332.978,120.447 336.685"/></g><path stroke="none" d="M121.935 362.284C121.991 362.088,122.019 361.919,122.019 361.807C122.3 360.796,122.637 359.308,125.024 357.483C127.355 355.657,130.163 353.411,131.23 351.445C131.173 354.562,130.387 356.5,129.348 357.876C126.877 360.908,123.873 361.779,121.935 362.284M120.447 372.393C120.447 372.73,120.728 373.039,121.065 373.039C121.373 373.039,121.57 372.73,121.654 372.393C122.272 368.237,123.508 367.03,125.136 365.485C127.27 363.436,132.942 360.319,132.942 352.821C132.942 351.502,132.83 350.013,132.577 348.497C132.746 347.992,132.83 347.262,132.83 346.194C132.83 343.021,130.949 340.775,129.629 339.736C129.461 339.624,129.208 339.54,128.983 339.54C128.815 339.54,128.646 339.568,128.506 339.652C128.337 339.736,128.281 339.764,128.281 339.848C128.281 339.989,128.534 340.129,128.702 340.298C130.106 341.786,131.173 343.162,131.173 345.886C131.173 346.391,131.117 346.925,130.949 347.402L130.921 347.542C130.921 347.542,130.921 347.542,130.921 347.542C130.724 348.357,130.275 349.115,129.629 349.845C126.793 353.13,122.862 354.815,121.065 355.208C120.784 355.349,120.447 356.219,120.447 356.303"/></g><g class="vf-stavenote" id="vf-auto22321"><g class="vf-stem" id="vf-auto22322" pointer-events="bounding-box"><path stroke-width="1.5" fill="none" d="M260.89 337L260.89 367"/></g><g class="vf-notehead" id="vf-auto22325" pointer-events="bounding-box"><path stroke="none" d="M260.14 336.685C260.14 338.426,261.404 340.391,264.661 340.391C268.873 340.391,273.282 336.938,273.282 333.371C273.282 330.985,271.26 329.665,268.761 329.665C264.83 329.665,260.14 332.978,260.14 336.685"/></g><path stroke="none" d="M261.629 362.284C261.685 362.088,261.713 361.919,261.713 361.807C261.994 360.796,262.331 359.308,264.717 357.483C267.048 355.657,269.856 353.411,270.923 351.445C270.867 354.562,270.081 356.5,269.042 357.876C266.571 360.908,263.566 361.779,261.629 362.284M260.14 372.393C260.14 372.73,260.421 373.039,260.758 373.039C261.067 373.039,261.264 372.73,261.348 372.393C261.966 368.237,263.201 367.03,264.83 365.485C266.964 363.436,272.636 360.319,272.636 352.821C272.636 351.502,272.524 350.013,272.271 348.497C272.439 347.992,272.524 347.262,272.524 346.194C272.524 343.021,270.642 340.775,269.323 339.736C269.154 339.624,268.901 339.54,268.677 339.54C268.508 339.54,268.34 339.568,268.199 339.652C268.031 339.736,267.975 339.764,267.975 339.848C267.975 339.989,268.227 340.129,268.396 340.298C269.8 341.786,270.867 343.162,270.867 345.886C270.867 346.391,270.811 346.925,270.642 347.402L270.614 347.542C270.614 347.542,270.614 347.542,270.614 347.542C270.418 348.357,269.968 349.115,269.323 349.845C266.486 353.13,262.555 354.815,260.758 355.208C260.477 355.349,260.14 356.219,260.14 356.303"/></g><g class="vf-stavenote" id="vf-auto22327"><g class="vf-stem" id="vf-auto22328" pointer-events="bounding-box"><path stroke-width="1.5" fill="none" d="M404.587 337L404.587 367"/></g><g class="vf-notehead" id="vf-auto22331" pointer-events="bounding-box"><path stroke="none" d="M403.837 336.685C403.837 338.426,405.101 340.391,408.358 340.391C412.57 340.391,416.978 336.938,416.978 333.371C416.978 330.985,414.957 329.665,412.457 329.665C408.526 329.665,403.837 332.978,403.837 336.685"/></g><path stroke="none" d="M405.325 362.284C405.381 362.088,405.409 361.919,405.409 361.807C405.69 360.796,406.027 359.308,408.414 357.483C410.745 355.657,413.553 353.411,414.62 351.445C414.563 354.562,413.777 356.5,412.738 357.876C410.267 360.908,407.263 361.779,405.325 362.284M403.837 372.393C403.837 372.73,404.118 373.039,404.455 373.039C404.764 373.039,404.96 372.73,405.044 372.393C405.662 368.237,406.898 367.03,408.526 365.485C410.66 363.436,416.333 360.319,416.333 352.821C416.333 351.502,416.22 350.013,415.967 348.497C416.136 347.992,416.22 347.262,416.22 346.194C416.22 343.021,414.339 340.775,413.019 339.736C412.851 339.624,412.598 339.54,412.373 339.54C412.205 339.54,412.036 339.568,411.896 339.652C411.727 339.736,411.671 339.764,411.671 339.848C411.671 339.989,411.924 340.129,412.092 340.298C413.496 341.786,414.563 343.162,414.563 345.886C414.563 346.391,414.507 346.925,414.339 347.402L414.311 347.542C414.311 347.542,414.311 347.542,414.311 347.542C414.114 348.357,413.665 349.115,413.019 349.845C410.183 353.13,406.252 354.815,404.455 355.208C404.174 355.349,403.837 356.219,403.837 356.303"/></g><g class="vf-stavenote" id="vf-auto22333"><g class="vf-stem" id="vf-auto22334" pointer-events="bounding-box"><path stroke-width="1.5" fill="none" d="M570.584 337L570.584 367"/></g><g class="vf-notehead" id="vf-auto22337" pointer-events="bounding-box"><path stroke="none" d="M569.834 336.685C569.834 338.426,571.097 340.391,574.355 340.391C578.567 340.391,582.975 336.938,582.975 333.371C582.975 330.985,580.954 329.665,578.454 329.665C574.523 329.665,569.834 332.978,569.834 336.685"/></g><path stroke="none" d="M571.322 362.284C571.378 362.088,571.406 361.919,571.406 361.807C571.687 360.796,572.024 359.308,574.411 357.483C576.742 355.657,579.55 353.411,580.617 351.445C580.56 354.562,579.774 356.5,578.735 357.876C576.264 360.908,573.26 361.779,571.322 362.284M569.834 372.393C569.834 372.73,570.115 373.039,570.452 373.039C570.761 373.039,570.957 372.73,571.041 372.393C571.659 368.237,572.895 367.03,574.523 365.485C576.657 363.436,582.329 360.319,582.329 352.821C582.329 351.502,582.217 350.013,581.964 348.497C582.133 347.992,582.217 347.262,582.217 346.194C582.217 343.021,580.336 340.775,579.016 339.736C578.848 339.624,578.595 339.54,578.37 339.54C578.202 339.54,578.033 339.568,577.893 339.652C577.724 339.736,577.668 339.764,577.668 339.848C577.668 339.989,577.921 340.129,578.089 340.298C579.493 341.786,580.56 343.162,580.56 345.886C580.56 346.391,580.504 346.925,580.336 347.402L580.308 347.542C580.308 347.542,580.308 347.542,580.308 347.542C580.111 348.357,579.662 349.115,579.016 349.845C576.18 353.13,572.249 354.815,570.452 355.208C570.171 355.349,569.834 356.219,569.834 356.303"/></g><g class="vf-stavenote" id="vf-auto22339"><g class="vf-stem" id="vf-auto22340" pointer-events="bounding-box"><path stroke-width="1.5" fill="none" d="M132.838 478L132.838 448"/></g><g class="vf-notehead" id="vf-auto22343" pointer-events="bounding-box"><path stroke="none" d="M120.447 481.685C120.447 483.426,121.71 485.391,124.968 485.391C129.18 485.391,133.588 481.938,133.588 478.371C133.588 475.985,131.567 474.665,129.067 474.665C125.136 474.665,120.447 477.978,120.447 481.685"/></g><path stroke="none" d="M140.54 462.122C139.445 460.718,138.238 459.427,136.244 457.433C134.672 455.861,133.942 454.485,133.661 453.446C133.633 453.221,133.577 452.94,133.548 452.631C135.598 452.631,138.238 455.411,139.698 457.321C141.27 459.371,141.635 460.999,141.635 462.544C141.635 462.937,141.579 463.33,141.551 463.751C141.214 463.105,140.849 462.572,140.54 462.122M132.088 458.416C132.088 458.528,132.425 458.697,132.706 458.809C133.745 459.174,136.89 461.196,139.333 464.79C140.709 466.868,141.018 468.3,141.018 469.676C141.018 469.929,141.018 470.125,140.99 470.378C140.99 471.333,140.709 473.411,140.091 475.011C140.063 475.236,139.923 475.46,139.923 475.685C139.923 475.826,140.007 475.994,140.203 476.106C140.288 476.162,140.344 476.162,140.428 476.162C140.709 476.162,140.849 475.826,141.018 475.601C141.748 474.45,142.815 472.287,142.815 470.013C142.815 468.834,142.731 467.879,142.59 467.008C143.011 465.52,143.376 464.032,143.376 462.038C143.376 459.932,142.815 458.051,141.439 456.226C139.529 453.727,137.48 451.621,135.935 449.402C134.391 447.156,133.268 443,133.268 443C133.183 442.719,133.127 442.523,132.706 442.523C132.201 442.523,132.088 442.719,132.088 443"/></g><g class="vf-stavenote" id="vf-auto22345"><g class="vf-stem" id="vf-auto22346" pointer-events="bounding-box"><path stroke-width="1.5" fill="none" d="M244.249 478L244.249 448"/></g><g class="vf-notehead" id="vf-auto22349" pointer-events="bounding-box"><path stroke="none" d="M231.857 481.685C231.857 483.426,233.121 485.391,236.378 485.391C240.59 485.391,244.999 481.938,244.999 478.371C244.999 475.985,242.977 474.665,240.478 474.665C236.547 474.665,231.857 477.978,231.857 481.685"/></g><path stroke="none" d="M251.951 462.122C250.856 460.718,249.648 459.427,247.655 457.433C246.082 455.861,245.352 454.485,245.071 453.446C245.043 453.221,244.987 452.94,244.959 452.631C247.009 452.631,249.648 455.411,251.109 457.321C252.681 459.371,253.046 460.999,253.046 462.544C253.046 462.937,252.99 463.33,252.962 463.751C252.625 463.105,252.26 462.572,251.951 462.122M243.499 458.416C243.499 458.528,243.836 458.697,244.117 458.809C245.156 459.174,248.301 461.196,250.744 464.79C252.119 466.868,252.428 468.3,252.428 469.676C252.428 469.929,252.428 470.125,252.4 470.378C252.4 471.333,252.119 473.411,251.502 475.011C251.474 475.236,251.333 475.46,251.333 475.685C251.333 475.826,251.417 475.994,251.614 476.106C251.698 476.162,251.754 476.162,251.839 476.162C252.119 476.162,252.26 475.826,252.428 475.601C253.158 474.45,254.225 472.287,254.225 470.013C254.225 468.834,254.141 467.879,254.001 467.008C254.422 465.52,254.787 464.032,254.787 462.038C254.787 459.932,254.225 458.051,252.85 456.226C250.94 453.727,248.89 451.621,247.346 449.402C245.801 447.156,244.678 443,244.678 443C244.594 442.719,244.538 442.523,244.117 442.523C243.611 442.523,243.499 442.719,243.499 443"/></g><g class="vf-stavenote" id="vf-auto22351"><g class="vf-stem" id="vf-auto22352" pointer-events="bounding-box"><path stroke-width="1.5" fill="none" d="M358.718 478L358.718 448"/></g><g class="vf-notehead" id="vf-auto22355" pointer-events="bounding-box"><path stroke="none" d="M346.327 481.685C346.327 483.426,347.591 485.391,350.848 485.391C355.06 485.391,359.468 481.938,359.468 478.371C359.468 475.985,357.447 474.665,354.948 474.665C351.016 474.665,346.327 477.978,346.327 481.685"/></g><path stroke="none" d="M366.421 462.122C365.325 460.718,364.118 459.427,362.124 457.433C360.552 455.861,359.822 454.485,359.541 453.446C359.513 453.221,359.457 452.94,359.429 452.631C361.478 452.631,364.118 455.411,365.578 457.321C367.151 459.371,367.516 460.999,367.516 462.544C367.516 462.937,367.46 463.33,367.431 463.751C367.094 463.105,366.729 462.572,366.421 462.122M357.968 458.416C357.968 458.528,358.305 458.697,358.586 458.809C359.625 459.174,362.77 461.196,365.213 464.79C366.589 466.868,366.898 468.3,366.898 469.676C366.898 469.929,366.898 470.125,366.87 470.378C366.87 471.333,366.589 473.411,365.971 475.011C365.943 475.236,365.803 475.46,365.803 475.685C365.803 475.826,365.887 475.994,366.084 476.106C366.168 476.162,366.224 476.162,366.308 476.162C366.589 476.162,366.729 475.826,366.898 475.601C367.628 474.45,368.695 472.287,368.695 470.013C368.695 468.834,368.611 467.879,368.47 467.008C368.892 465.52,369.257 464.032,369.257 462.038C369.257 459.932,368.695 458.051,367.319 456.226C365.41 453.727,363.36 451.621,361.815 449.402C360.271 447.156,359.148 443,359.148 443C359.064 442.719,359.007 442.523,358.586 442.523C358.081 442.523,357.968 442.719,357.968 443"/></g><g class="vf-stavenote" id="vf-auto22357"><g class="vf-stem" id="vf-auto22358" pointer-events="bounding-box"><path stroke-width="1.5" fill="none" d="M497.202 478L497.202 448"/></g><g class="vf-notehead" id="vf-auto22361" pointer-events="bounding-box"><path stroke="none" d="M484.811 481.685C484.811 483.426,486.075 485.391,489.332 485.391C493.544 485.391,497.952 481.938,497.952 478.371C497.952 475.985,495.931 474.665,493.432 474.665C489.5 474.665,484.811 477.978,484.811 481.685"/></g><path stroke="none" d="M504.905 462.122C503.809 460.718,502.602 459.427,500.608 457.433C499.036 455.861,498.306 454.485,498.025 453.446C497.997 453.221,497.941 452.94,497.913 452.631C499.962 452.631,502.602 455.411,504.062 457.321C505.635 459.371,506 460.999,506 462.544C506 462.937,505.944 463.33,505.915 463.751C505.578 463.105,505.213 462.572,504.905 462.122M496.452 458.416C496.452 458.528,496.789 458.697,497.07 458.809C498.109 459.174,501.254 461.196,503.697 464.79C505.073 466.868,505.382 468.3,505.382 469.676C505.382 469.929,505.382 470.125,505.354 470.378C505.354 471.333,505.073 473.411,504.455 475.011C504.427 475.236,504.287 475.46,504.287 475.685C504.287 475.826,504.371 475.994,504.568 476.106C504.652 476.162,504.708 476.162,504.792 476.162C505.073 476.162,505.213 475.826,505.382 475.601C506.112 474.45,507.179 472.287,507.179 470.013C507.179 468.834,507.095 467.879,506.954 467.008C507.376 465.52,507.741 464.032,507.741 462.038C507.741 459.932,507.179 458.051,505.803 456.226C503.894 453.727,501.844 451.621,500.299 449.402C498.755 447.156,497.632 443,497.632 443C497.548 442.719,497.491 442.523,497.07 442.523C496.565 442.523,496.452 442.719,496.452 443"/></g><g class="vf-stavenote" id="vf-auto22363"><g class="vf-stem" id="vf-auto22364" pointer-events="bounding-box"><path stroke-width="1.5" fill="none" d="M597.367 478L597.367 448"/></g><g class="vf-notehead" id="vf-auto22367" pointer-events="bounding-box"><path stroke="none" d="M584.975 481.685C584.975 483.426,586.239 485.391,589.496 485.391C593.708 485.391,598.117 481.938,598.117 478.371C598.117 475.985,596.095 474.665,593.596 474.665C589.665 474.665,584.975 477.978,584.975 481.685"/></g><path stroke="none" d="M605.069 462.122C603.974 460.718,602.766 459.427,600.773 457.433C599.2 455.861,598.47 454.485,598.189 453.446C598.161 453.221,598.105 452.94,598.077 452.631C600.127 452.631,602.766 455.411,604.227 457.321C605.799 459.371,606.164 460.999,606.164 462.544C606.164 462.937,606.108 463.33,606.08 463.751C605.743 463.105,605.378 462.572,605.069 462.122M596.617 458.416C596.617 458.528,596.954 458.697,597.235 458.809C598.274 459.174,601.419 461.196,603.862 464.79C605.237 466.868,605.546 468.3,605.546 469.676C605.546 469.929,605.546 470.125,605.518 470.378C605.518 471.333,605.237 473.411,604.62 475.011C604.592 475.236,604.451 475.46,604.451 475.685C604.451 475.826,604.535 475.994,604.732 476.106C604.816 476.162,604.872 476.162,604.957 476.162C605.237 476.162,605.378 475.826,605.546 475.601C606.276 474.45,607.343 472.287,607.343 470.013C607.343 468.834,607.259 467.879,607.119 467.008C607.54 465.52,607.905 464.032,607.905 462.038C607.905 459.932,607.343 458.051,605.968 456.226C604.058 453.727,602.008 451.621,600.464 449.402C598.919 447.156,597.796 443,597.796 443C597.712 442.719,597.656 442.523,597.235 442.523C596.729 442.523,596.617 442.719,596.617 443"/></g><g class="vf-stavenote" id="vf-auto22372"><g class="vf-stem" id="vf-auto22373" pointer-events="bounding-box"><path stroke-width="1.5" fill="none" d="M132.838 613L132.838 574"/></g><g class="vf-notehead" id="vf-auto22376" pointer-events="bounding-box"><path stroke="none" d="M120.447 616.685C120.447 618.426,121.71 620.391,124.968 620.391C129.18 620.391,133.588 616.938,133.588 613.371C133.588 610.985,131.567 609.665,129.067 609.665C125.136 609.665,120.447 612.978,120.447 616.685"/></g><path stroke="none" d="M140.54 597.179C139.445 595.747,138.238 594.511,136.244 592.489C134.672 590.889,133.942 589.513,133.661 588.474C133.633 588.277,133.577 587.94,133.492 587.631C135.598 587.631,138.238 590.131,139.698 592.04C141.27 594.146,141.635 595.747,141.635 597.291C141.635 597.768,141.579 598.246,141.551 598.751C141.214 598.105,140.849 597.6,140.54 597.179M139.698 585.273C141.27 587.351,141.635 589.007,141.635 590.524C141.635 590.776,141.579 590.973,141.579 591.17C141.551 591.113,141.467 591.029,141.439 590.945C139.529 588.446,136.16 585.61,134.644 583.391C134.026 582.493,133.717 581.482,133.492 580.583C135.57 580.583,138.238 583.391,139.698 585.273M132.088 593.444C132.088 593.556,132.425 593.725,132.706 593.837C133.745 594.202,136.89 596.224,139.333 599.846C140.709 601.896,141.018 603.356,141.018 604.732C141.018 604.957,141.018 605.181,140.99 605.406C140.99 606.389,140.709 608.439,140.091 610.067C140.063 610.264,139.923 610.517,139.923 610.713C139.923 610.882,140.007 611.022,140.203 611.162C140.288 611.191,140.344 611.191,140.428 611.191C140.709 611.191,140.849 610.882,141.018 610.629C141.748 609.506,142.815 607.316,142.815 605.041C142.815 603.89,142.731 602.907,142.59 602.065C143.011 600.52,143.376 598.779,143.376 596.757C143.376 595.747,143.208 594.736,142.927 593.809C143.18 592.77,143.376 591.675,143.376 590.383C143.376 590.243,143.376 590.131,143.376 590.018C143.376 587.912,142.815 586.003,141.439 584.178C139.529 581.678,137.48 579.572,135.935 577.354C134.391 575.136,133.268 570.952,133.268 570.952C133.183 570.671,133.127 570.475,132.706 570.475C132.201 570.475,132.088 570.671,132.088 570.952"/></g><g class="vf-stavenote" id="vf-auto22378"><g class="vf-stem" id="vf-auto22379" pointer-events="bounding-box"><path stroke-width="1.5" fill="none" d="M161.121 613L161.121 574"/></g><g class="vf-notehead" id="vf-auto22382" pointer-events="bounding-box"><path stroke="none" d="M148.73 616.685C148.73 618.426,149.993 620.391,153.251 620.391C157.463 620.391,161.871 616.938,161.871 613.371C161.871 610.985,159.849 609.665,157.35 609.665C153.419 609.665,148.73 612.978,148.73 616.685"/></g><path stroke="none" d="M168.823 597.179C167.728 595.747,166.521 594.511,164.527 592.489C162.955 590.889,162.225 589.513,161.944 588.474C161.916 588.277,161.859 587.94,161.775 587.631C163.881 587.631,166.521 590.131,167.981 592.04C169.553 594.146,169.918 595.747,169.918 597.291C169.918 597.768,169.862 598.246,169.834 598.751C169.497 598.105,169.132 597.6,168.823 597.179M167.981 585.273C169.553 587.351,169.918 589.007,169.918 590.524C169.918 590.776,169.862 590.973,169.862 591.17C169.834 591.113,169.75 591.029,169.722 590.945C167.812 588.446,164.443 585.61,162.927 583.391C162.309 582.493,162 581.482,161.775 580.583C163.853 580.583,166.521 583.391,167.981 585.273M160.371 593.444C160.371 593.556,160.708 593.725,160.989 593.837C162.028 594.202,165.173 596.224,167.616 599.846C168.992 601.896,169.301 603.356,169.301 604.732C169.301 604.957,169.301 605.181,169.273 605.406C169.273 606.389,168.992 608.439,168.374 610.067C168.346 610.264,168.206 610.517,168.206 610.713C168.206 610.882,168.29 611.022,168.486 611.162C168.571 611.191,168.627 611.191,168.711 611.191C168.992 611.191,169.132 610.882,169.301 610.629C170.031 609.506,171.098 607.316,171.098 605.041C171.098 603.89,171.014 602.907,170.873 602.065C171.294 600.52,171.659 598.779,171.659 596.757C171.659 595.747,171.491 594.736,171.21 593.809C171.463 592.77,171.659 591.675,171.659 590.383C171.659 590.243,171.659 590.131,171.659 590.018C171.659 587.912,171.098 586.003,169.722 584.178C167.812 581.678,165.763 579.572,164.218 577.354C162.674 575.136,161.551 570.952,161.551 570.952C161.466 570.671,161.41 570.475,160.989 570.475C160.484 570.475,160.371 570.671,160.371 570.952"/></g><g class="vf-stavenote" id="vf-auto22384"><g class="vf-stem" id="vf-auto22385" pointer-events="bounding-box"><path stroke-width="1.5" fill="none" d="M287.673 613L287.673 574"/></g><g class="vf-notehead" id="vf-auto22388" pointer-events="bounding-box"><path stroke="none" d="M275.282 616.685C275.282 618.426,276.545 620.391,279.803 620.391C284.015 620.391,288.423 616.938,288.423 613.371C288.423 610.985,286.401 609.665,283.902 609.665C279.971 609.665,275.282 612.978,275.282 616.685"/></g><path stroke="none" d="M295.375 597.179C294.28 595.747,293.073 594.511,291.079 592.489C289.507 590.889,288.777 589.513,288.496 588.474C288.468 588.277,288.411 587.94,288.327 587.631C290.433 587.631,293.073 590.131,294.533 592.04C296.105 594.146,296.47 595.747,296.47 597.291C296.47 597.768,296.414 598.246,296.386 598.751C296.049 598.105,295.684 597.6,295.375 597.179M294.533 585.273C296.105 587.351,296.47 589.007,296.47 590.524C296.47 590.776,296.414 590.973,296.414 591.17C296.386 591.113,296.302 591.029,296.274 590.945C294.364 588.446,290.995 585.61,289.479 583.391C288.861 582.493,288.552 581.482,288.327 580.583C290.405 580.583,293.073 583.391,294.533 585.273M286.923 593.444C286.923 593.556,287.26 593.725,287.541 593.837C288.58 594.202,291.725 596.224,294.168 599.846C295.544 601.896,295.853 603.356,295.853 604.732C295.853 604.957,295.853 605.181,295.825 605.406C295.825 606.389,295.544 608.439,294.926 610.067C294.898 610.264,294.758 610.517,294.758 610.713C294.758 610.882,294.842 611.022,295.038 611.162C295.123 611.191,295.179 611.191,295.263 611.191C295.544 611.191,295.684 610.882,295.853 610.629C296.583 609.506,297.65 607.316,297.65 605.041C297.65 603.89,297.566 602.907,297.425 602.065C297.846 600.52,298.211 598.779,298.211 596.757C298.211 595.747,298.043 594.736,297.762 593.809C298.015 592.77,298.211 591.675,298.211 590.383C298.211 590.243,298.211 590.131,298.211 590.018C298.211 587.912,297.65 586.003,296.274 584.178C294.364 581.678,292.315 579.572,290.77 577.354C289.226 575.136,288.103 570.952,288.103 570.952C288.018 570.671,287.962 570.475,287.541 570.475C287.036 570.475,286.923 570.671,286.923 570.952"/></g><g class="vf-stavenote" id="vf-auto22390"><g class="vf-stem" id="vf-auto22391" pointer-events="bounding-box"><path stroke-width="1.5" fill="none" d="M387.945 613L387.945 574"/></g><g class="vf-notehead" id="vf-auto22394" pointer-events="bounding-box"><path stroke="none" d="M375.554 616.685C375.554 618.426,376.818 620.391,380.075 620.391C384.287 620.391,388.695 616.938,388.695 613.371C388.695 610.985,386.674 609.665,384.175 609.665C380.243 609.665,375.554 612.978,375.554 616.685"/></g><path stroke="none" d="M395.648 597.179C394.552 595.747,393.345 594.511,391.351 592.489C389.779 590.889,389.049 589.513,388.768 588.474C388.74 588.277,388.684 587.94,388.599 587.631C390.705 587.631,393.345 590.131,394.805 592.04C396.378 594.146,396.743 595.747,396.743 597.291C396.743 597.768,396.687 598.246,396.658 598.751C396.321 598.105,395.956 597.6,395.648 597.179M394.805 585.273C396.378 587.351,396.743 589.007,396.743 590.524C396.743 590.776,396.687 590.973,396.687 591.17C396.658 591.113,396.574 591.029,396.546 590.945C394.637 588.446,391.267 585.61,389.751 583.391C389.133 582.493,388.824 581.482,388.599 580.583C390.677 580.583,393.345 583.391,394.805 585.273M387.195 593.444C387.195 593.556,387.532 593.725,387.813 593.837C388.852 594.202,391.997 596.224,394.44 599.846C395.816 601.896,396.125 603.356,396.125 604.732C396.125 604.957,396.125 605.181,396.097 605.406C396.097 606.389,395.816 608.439,395.198 610.067C395.17 610.264,395.03 610.517,395.03 610.713C395.03 610.882,395.114 611.022,395.311 611.162C395.395 611.191,395.451 611.191,395.535 611.191C395.816 611.191,395.956 610.882,396.125 610.629C396.855 609.506,397.922 607.316,397.922 605.041C397.922 603.89,397.838 602.907,397.697 602.065C398.119 600.52,398.484 598.779,398.484 596.757C398.484 595.747,398.315 594.736,398.034 593.809C398.287 592.77,398.484 591.675,398.484 590.383C398.484 590.243,398.484 590.131,398.484 590.018C398.484 587.912,397.922 586.003,396.546 584.178C394.637 581.678,392.587 579.572,391.042 577.354C389.498 575.136,388.375 570.952,388.375 570.952C388.291 570.671,388.234 570.475,387.813 570.475C387.308 570.475,387.195 570.671,387.195 570.952"/></g><g class="vf-stavenote" id="vf-auto22396"><g class="vf-stem" id="vf-auto22397" pointer-events="bounding-box"><path stroke-width="1.5" fill="none" d="M468.92 613L468.92 574"/></g><g class="vf-notehead" id="vf-auto22400" pointer-events="bounding-box"><path stroke="none" d="M456.528 616.685C456.528 618.426,457.792 620.391,461.049 620.391C465.261 620.391,469.67 616.938,469.67 613.371C469.67 610.985,467.648 609.665,465.149 609.665C461.218 609.665,456.528 612.978,456.528 616.685"/></g><path stroke="none" d="M476.622 597.179C475.527 595.747,474.319 594.511,472.325 592.489C470.753 590.889,470.023 589.513,469.742 588.474C469.714 588.277,469.658 587.94,469.574 587.631C471.68 587.631,474.319 590.131,475.779 592.04C477.352 594.146,477.717 595.747,477.717 597.291C477.717 597.768,477.661 598.246,477.633 598.751C477.296 598.105,476.931 597.6,476.622 597.179M475.779 585.273C477.352 587.351,477.717 589.007,477.717 590.524C477.717 590.776,477.661 590.973,477.661 591.17C477.633 591.113,477.548 591.029,477.52 590.945C475.611 588.446,472.241 585.61,470.725 583.391C470.107 582.493,469.798 581.482,469.574 580.583C471.652 580.583,474.319 583.391,475.779 585.273M468.17 593.444C468.17 593.556,468.507 593.725,468.787 593.837C469.826 594.202,472.971 596.224,475.414 599.846C476.79 601.896,477.099 603.356,477.099 604.732C477.099 604.957,477.099 605.181,477.071 605.406C477.071 606.389,476.79 608.439,476.172 610.067C476.144 610.264,476.004 610.517,476.004 610.713C476.004 610.882,476.088 611.022,476.285 611.162C476.369 611.191,476.425 611.191,476.509 611.191C476.79 611.191,476.931 610.882,477.099 610.629C477.829 609.506,478.896 607.316,478.896 605.041C478.896 603.89,478.812 602.907,478.672 602.065C479.093 600.52,479.458 598.779,479.458 596.757C479.458 595.747,479.289 594.736,479.008 593.809C479.261 592.77,479.458 591.675,479.458 590.383C479.458 590.243,479.458 590.131,479.458 590.018C479.458 587.912,478.896 586.003,477.52 584.178C475.611 581.678,473.561 579.572,472.017 577.354C470.472 575.136,469.349 570.952,469.349 570.952C469.265 570.671,469.209 570.475,468.787 570.475C468.282 570.475,468.17 570.671,468.17 570.952"/></g><g class="vf-stavenote" id="vf-auto22402"><g class="vf-stem" id="vf-auto22403" pointer-events="bounding-box"><path stroke-width="1.5" fill="none" d="M553.942 613L553.942 574"/></g><g class="vf-notehead" id="vf-auto22406" pointer-events="bounding-box"><path stroke="none" d="M541.551 616.685C541.551 618.426,542.815 620.391,546.072 620.391C550.284 620.391,554.692 616.938,554.692 613.371C554.692 610.985,552.671 609.665,550.172 609.665C546.24 609.665,541.551 612.978,541.551 616.685"/></g><path stroke="none" d="M561.645 597.179C560.549 595.747,559.342 594.511,557.348 592.489C555.776 590.889,555.046 589.513,554.765 588.474C554.737 588.277,554.681 587.94,554.596 587.631C556.702 587.631,559.342 590.131,560.802 592.04C562.375 594.146,562.74 595.747,562.74 597.291C562.74 597.768,562.683 598.246,562.655 598.751C562.318 598.105,561.953 597.6,561.645 597.179M560.802 585.273C562.375 587.351,562.74 589.007,562.74 590.524C562.74 590.776,562.683 590.973,562.683 591.17C562.655 591.113,562.571 591.029,562.543 590.945C560.634 588.446,557.264 585.61,555.748 583.391C555.13 582.493,554.821 581.482,554.596 580.583C556.674 580.583,559.342 583.391,560.802 585.273M553.192 593.444C553.192 593.556,553.529 593.725,553.81 593.837C554.849 594.202,557.994 596.224,560.437 599.846C561.813 601.896,562.122 603.356,562.122 604.732C562.122 604.957,562.122 605.181,562.094 605.406C562.094 606.389,561.813 608.439,561.195 610.067C561.167 610.264,561.027 610.517,561.027 610.713C561.027 610.882,561.111 611.022,561.308 611.162C561.392 611.191,561.448 611.191,561.532 611.191C561.813 611.191,561.953 610.882,562.122 610.629C562.852 609.506,563.919 607.316,563.919 605.041C563.919 603.89,563.835 602.907,563.694 602.065C564.116 600.52,564.481 598.779,564.481 596.757C564.481 595.747,564.312 594.736,564.031 593.809C564.284 592.77,564.481 591.675,564.481 590.383C564.481 590.243,564.481 590.131,564.481 590.018C564.481 587.912,563.919 586.003,562.543 584.178C560.634 581.678,558.584 579.572,557.039 577.354C555.495 575.136,554.372 570.952,554.372 570.952C554.288 570.671,554.231 570.475,553.81 570.475C553.305 570.475,553.192 570.671,553.192 570.952"/></g><g class="vf-stavenote" id="vf-auto22408"><g class="vf-stem" id="vf-auto22409" pointer-events="bounding-box"><path stroke-width="1.5" fill="none" d="M638.927 613L638.927 574"/></g><g class="vf-notehead" id="vf-auto22412" pointer-events="bounding-box"><path stroke="none" d="M626.535 616.685C626.535 618.426,627.799 620.391,631.056 620.391C635.268 620.391,639.677 616.938,639.677 613.371C639.677 610.985,637.655 609.665,635.156 609.665C631.224 609.665,626.535 612.978,626.535 616.685"/></g><path stroke="none" d="M646.629 597.179C645.534 595.747,644.326 594.511,642.332 592.489C640.76 590.889,640.03 589.513,639.749 588.474C639.721 588.277,639.665 587.94,639.581 587.631C641.687 587.631,644.326 590.131,645.786 592.04C647.359 594.146,647.724 595.747,647.724 597.291C647.724 597.768,647.668 598.246,647.64 598.751C647.303 598.105,646.938 597.6,646.629 597.179M645.786 585.273C647.359 587.351,647.724 589.007,647.724 590.524C647.724 590.776,647.668 590.973,647.668 591.17C647.64 591.113,647.555 591.029,647.527 590.945C645.618 588.446,642.248 585.61,640.732 583.391C640.114 582.493,639.805 581.482,639.581 580.583C641.658 580.583,644.326 583.391,645.786 585.273M638.177 593.444C638.177 593.556,638.514 593.725,638.794 593.837C639.833 594.202,642.978 596.224,645.421 599.846C646.797 601.896,647.106 603.356,647.106 604.732C647.106 604.957,647.106 605.181,647.078 605.406C647.078 606.389,646.797 608.439,646.179 610.067C646.151 610.264,646.011 610.517,646.011 610.713C646.011 610.882,646.095 611.022,646.292 611.162C646.376 611.191,646.432 611.191,646.516 611.191C646.797 611.191,646.938 610.882,647.106 610.629C647.836 609.506,648.903 607.316,648.903 605.041C648.903 603.89,648.819 602.907,648.678 602.065C649.1 600.52,649.465 598.779,649.465 596.757C649.465 595.747,649.296 594.736,649.015 593.809C649.268 592.77,649.465 591.675,649.465 590.383C649.465 590.243,649.465 590.131,649.465 590.018C649.465 587.912,648.903 586.003,647.527 584.178C645.618 581.678,643.568 579.572,642.024 577.354C640.479 575.136,639.356 570.952,639.356 570.952C639.272 570.671,639.216 570.475,638.794 570.475C638.289 570.475,638.177 570.671,638.177 570.952"/></g><rect x="115.447" y="165" width="198.918" height="1" stroke="none"/><rect x="332.317" y="165" width="198.918" height="1" stroke="none"/><rect x="115.447" y="165" width="1" height="10" stroke="none"/><rect x="531.235" y="165" width="1" height="10" stroke="none"/><path stroke="none" d="M325.574 163.969C327.396 163.256,327.507 162.068,327.507 161.672C327.507 161.625,327.507 161.577,327.507 161.545C327.507 161.34,327.443 158.773,323.515 158.773C319.587 158.773,319.714 161.545,319.714 161.545L319.729 161.545L319.714 161.593C319.714 162.417,320.363 163.05,321.187 163.05C322.01 163.05,322.644 162.417,322.644 161.593C322.644 160.928,322.153 160.294,321.503 160.152C321.535 160.136,321.551 160.12,321.583 160.088C321.899 159.866,322.327 159.756,322.771 159.756C323.721 159.756,324.751 160.326,324.751 161.545C324.751 162.987,323.674 163.193,323.404 163.24C323.135 163.288,321.852 163.383,321.583 163.383C321.298 163.383,321.282 163.7,321.282 163.7L321.282 164.143C321.282 164.143,321.329 164.397,321.583 164.428C321.963 164.444,322.486 164.444,323.214 164.555C324.228 164.698,324.751 165.379,324.751 166.979C324.751 168.515,323.721 168.911,322.771 168.911C322.121 168.911,321.535 168.737,321.282 168.547C322.026 168.515,322.644 167.85,322.644 167.089C322.644 166.266,322.01 165.616,321.187 165.616C320.363 165.616,319.714 166.266,319.714 167.089C319.714 167.089,319.714 167.137,319.714 167.185C319.714 167.485,319.777 168.309,320.601 169.054C321.488 169.877,322.596 169.893,323.103 169.893C325.289 169.893,327.665 169.149,327.665 166.662C327.665 164.999,326.525 164.286,325.527 163.969"/><rect x="115.447" y="435" width="234.883" height="1" stroke="none"/><rect x="368.234" y="435" width="234.883" height="1" stroke="none"/><rect x="115.447" y="435" width="1" height="10" stroke="none"/><rect x="603.117" y="435" width="1" height="10" stroke="none"/><path stroke="none" d="M355.948 429.36C355.948 429.36,356.058 430.453,356.058 431.641C356.058 431.736,356.058 431.846,356.058 431.941C356.043 433.209,355.948 434.713,355.948 434.713C355.948 434.713,355.948 434.745,355.948 434.793C355.948 434.888,355.963 435.062,356.106 435.094C356.312 435.125,356.787 435.252,356.898 435.268C356.945 435.268,356.977 435.268,357.025 435.268C357.104 435.268,357.199 435.252,357.246 435.109C357.357 434.809,357.611 433.621,359.052 433.621C360.668 433.621,360.969 435.014,360.969 436.107C360.969 437.248,360.604 438.895,359.1 438.959C359.02 438.959,358.973 438.959,358.91 438.959C358.387 438.959,358.086 438.895,357.959 438.8C357.88 438.784,357.832 438.705,357.832 438.673C357.832 438.594,357.864 438.547,357.928 438.515C358.133 438.373,358.846 438.119,358.846 436.994C358.846 435.886,358.07 435.458,357.183 435.458C356.28 435.458,355.678 436.266,355.678 437.042C355.678 437.818,355.9 438.689,357.088 439.37C357.658 439.687,358.482 439.893,359.321 439.893C360.478 439.893,361.745 439.529,362.553 438.689C363.297 437.945,363.582 436.979,363.582 436.06C363.582 434.84,363.044 433.652,362.188 433.082C361.618 432.686,360.652 432.369,359.622 432.369C358.862 432.369,358.07 432.559,357.405 433.003C357.389 433.034,357.341 433.034,357.31 433.034C357.231 433.034,357.151 432.971,357.151 432.876L357.151 431.435C357.151 431.292,357.262 431.181,357.405 431.181L357.421 431.181C357.769 431.213,358.529 431.292,359.321 431.292C360.003 431.292,360.715 431.229,361.222 431.023C362.284 430.595,362.648 429.756,362.838 429.265C362.854 429.201,362.885 429.106,362.885 429.043C362.885 428.853,362.759 428.726,362.474 428.726C362.379 428.726,362.284 428.742,362.157 428.773C361.032 429.043,360.161 429.138,359.321 429.138C358.498 429.138,357.706 429.043,356.724 428.9C356.724 428.9,356.613 428.884,356.454 428.884C356.217 428.884,355.948 428.948,355.948 429.265C355.948 429.312,355.948 429.344,355.948 429.36"/><rect x="115.447" y="561" width="255.615" height="1" stroke="none"/><rect x="389.061" y="561" width="255.615" height="1" stroke="none"/><rect x="115.447" y="561" width="1" height="10" stroke="none"/><rect x="644.677" y="561" width="1" height="10" stroke="none"/><path stroke="none" d="M379.753 563.137C379.262 563.897,378.597 564.8,378.597 565.656C378.597 565.893,378.66 566.036,378.913 566.036C379.278 566.036,379.499 565.941,380.244 565.893C380.307 565.893,380.402 565.877,380.466 565.877C381.131 565.877,381.749 566.036,381.907 566.036C382.113 566.036,382.493 565.782,382.477 565.576C382.477 565.561,382.477 565.529,382.477 565.513C382.477 565.465,382.335 564.753,382.335 563.913C382.335 563.438,382.382 562.884,382.525 562.393C382.794 561.315,383.523 559.383,384.03 557.941C384.267 557.229,384.41 555.977,384.41 555.455C384.41 555.249,384.41 555.154,384.394 554.932C384.362 554.694,384.267 554.615,384.141 554.615C384.03 554.615,383.84 554.615,383.729 554.615C383.618 554.615,383.459 554.694,383.459 554.932C383.459 555.154,383.412 556.722,382.493 556.722C381.543 556.722,381.258 554.773,379.785 554.773C378.359 554.773,377.504 556.199,377.424 556.342L377.424 555.249C377.424 555.106,377.313 554.995,377.187 554.995L376.648 554.995C376.521 554.995,376.411 555.106,376.411 555.249L376.411 559.462C376.411 559.605,376.521 559.716,376.648 559.716L377.187 559.716C377.313 559.716,377.424 559.605,377.424 559.462L377.424 558.733C377.424 558.211,377.773 557.498,378.565 557.498C379.373 557.498,379.436 558.369,381.258 558.369C381.717 558.369,382.557 558.306,382.794 558.068C382.604 558.433,380.276 562.393,379.753 563.137"/><path stroke="none" d="M65.074 32.509C64.987 32.48,64.872 32.422,64.786 32.422C64.613 32.422,64.411 32.48,64.325 32.624C64.238 32.768,60.091 39.162,52.171 39.162L45.576 39.162C45.259 39.162,45 39.363,45 39.68L45 43.424L45 44L50.069 44C62.827 44,65.275 33.344,65.333 33.229C65.333 33.171,65.362 33.085,65.362 32.998C65.362 32.797,65.246 32.624,65.074 32.509"/><path stroke="none" d="M65.074 648.491C65.246 648.376,65.362 648.203,65.362 648.002C65.362 647.915,65.333 647.829,65.333 647.771C65.275 647.656,62.827 637,50.069 637L45 637L45 637.576L45 641.32C45 641.637,45.259 641.838,45.576 641.838L52.171 641.838C60.091 641.838,64.238 648.232,64.325 648.376C64.411 648.52,64.613 648.578,64.786 648.578C64.872 648.578,64.987 648.52,65.074 648.491"/><rect x="45" y="44" width="3" height="593" stroke="none"/><rect x="148.73" y="10" height="675" fill="rgba(100,200,100,0.4)" stroke="none"/><text stroke-width="1" fill="green" stroke="none" font-size="8pt" x="148.73" y="697">0</text><rect x="177.013" y="10" width="54.845" height="675" fill="rgba(100,200,100,0.4)" stroke="none"/><text stroke-width="1" fill="green" stroke="none" font-size="8pt" x="177.013" y="697">55</text><rect x="260.14" y="10" height="675" fill="rgba(100,200,100,0.4)" stroke="none"/><text stroke-width="1" fill="green" stroke="none" font-size="8pt" x="260.14" y="697">0</text><rect x="275.282" y="10" height="675" fill="rgba(100,200,100,0.4)" stroke="none"/><text stroke-width="1" fill="green" stroke="none" font-size="8pt" x="275.282" y="697">0</text><rect x="303.565" y="10" width="14.479" height="675" fill="rgba(100,200,100,0.4)" stroke="none"/><text stroke-width="1" fill="green" stroke="none" font-size="8pt" x="303.565" y="697">14</text><rect x="346.327" y="10" height="675" fill="rgba(100,200,100,0.4)" stroke="none"/><text stroke-width="1" fill="green" stroke="none" font-size="8pt" x="346.327" y="697">0</text><rect x="374.61" y="10" width="0.944" height="675" fill="rgba(100,200,100,0.4)" stroke="none"/><text stroke-width="1" fill="green" stroke="none" font-size="8pt" x="374.61" y="697">1</text><rect x="403.837" y="10" height="675" fill="rgba(100,200,100,0.4)" stroke="none"/><text stroke-width="1" fill="green" stroke="none" font-size="8pt" x="403.837" y="697">0</text><rect x="418.978" y="10" width="37.55" height="675" fill="rgba(100,200,100,0.4)" stroke="none"/><text stroke-width="1" fill="green" stroke="none" font-size="8pt" x="418.978" y="697">38</text><rect x="484.811" y="10" height="675" fill="rgba(100,200,100,0.4)" stroke="none"/><text stroke-width="1" fill="green" stroke="none" font-size="8pt" x="484.811" y="697">0</text><rect x="513.094" y="10" height="675" fill="rgba(100,200,100,0.4)" stroke="none"/><text stroke-width="1" fill="green" stroke="none" font-size="8pt" x="513.094" y="697">0</text><rect x="541.377" y="10" width="0.174" height="675" fill="rgba(100,200,100,0.4)" stroke="none"/><text stroke-width="1" fill="green" stroke="none" font-size="8pt" x="541.377" y="697">0</text><rect x="569.834" y="10" height="675" fill="rgba(100,200,100,0.4)" stroke="none"/><text stroke-width="1" fill="green" stroke="none" font-size="8pt" x="569.834" y="697">0</text><rect x="584.975" y="10" height="675" fill="rgba(100,200,100,0.4)" stroke="none"/><text stroke-width="1" fill="green" stroke="none" font-size="8pt" x="584.975" y="697">0</text><rect x="613.258" y="10" width="13.277" height="675" fill="rgba(100,200,100,0.4)" stroke="none"/><text stroke-width="1" fill="green" stroke="none" font-size="8pt" x="613.258" y="697">13</text><text stroke-width="1" fill="red" stroke="none" font-size="8pt" x="100.447" y="712">Loss: 84.09 Shift: -0.00 Gap: 121.27</text><text stroke="none" font-size="8pt" x="120.447" y="130">15px</text><path stroke-width="3" fill="none" stroke="red" d="M120.447 137L120.447 137"/><path stroke-width="3" fill="none" stroke="#999" d="M120.447 137L120.447 137"/><path stroke-width="3" fill="none" stroke="green" d="M120.447 137L135.588 137"/><path stroke-width="3" fill="none" stroke="#999" d="M135.588 137L135.588 137"/><path stroke-width="3" fill="none" stroke="red" d="M135.588 137L135.588 137"/><path stroke-width="3" fill="none" stroke="#DD0" d="M135.588 137L403.837 137"/><path stroke-width="3" fill="none" stroke="#BBB" d="M120.447 137L120.447 137"/><path stroke-width="3" fill="blue" stroke="none" d="M123.447 137 A3 3 0 0 0 117.447 137 A3 3 0 0 0 123.447 137Z"/><text stroke-width="3" fill="red" stroke="none" font-size="8pt" x="120.447" y="120">-14</text><text stroke="none" font-size="8pt" x="403.837" y="130">15px</text><path stroke-width="3" fill="none" stroke="red" d="M403.837 137L403.837 137"/><path stroke-width="3" fill="none" stroke="#999" d="M403.837 137L403.837 137"/><path stroke-width="3" fill="none" stroke="green" d="M403.837 137L418.978 137"/><path stroke-width="3" fill="none" stroke="#999" d="M418.978 137L418.978 137"/><path stroke-width="3" fill="none" stroke="red" d="M418.978 137L418.978 137"/><path stroke-width="3" fill="none" stroke="#DD0" d="M418.978 137L715.549 137"/><path stroke-width="3" fill="none" stroke="#BBB" d="M403.837 137L403.837 137"/><path stroke-width="3" fill="blue" stroke="none" d="M406.837 137 A3 3 0 0 0 400.837 137 A3 3 0 0 0 406.837 137Z"/><text stroke-width="3" fill="red" stroke="none" font-size="8pt" x="403.837" y="120">+14</text><text stroke="none" font-size="8pt" x="120.447" y="265">28px</text><path stroke-width="3" fill="none" stroke="red" d="M120.447 272L120.447 272"/><path stroke-width="3" fill="none" stroke="#999" d="M120.447 272L120.447 272"/><path stroke-width="3" fill="none" stroke="green" d="M120.447 272L148.73 272"/><path stroke-width="3" fill="none" stroke="#999" d="M148.73 272L148.73 272"/><path stroke-width="3" fill="none" stroke="red" d="M148.73 272L148.73 272"/><path stroke-width="3" fill="none" stroke="#DD0" d="M148.73 272L318.044 272"/><path stroke-width="3" fill="none" stroke="#BBB" d="M120.447 272L120.447 272"/><path stroke-width="3" fill="blue" stroke="none" d="M123.447 272 A3 3 0 0 0 117.447 272 A3 3 0 0 0 123.447 272Z"/><text stroke-width="3" fill="red" stroke="none" font-size="8pt" x="120.447" y="255">-2</text><text stroke="none" font-size="8pt" x="318.044" y="265">28px</text><path stroke-width="3" fill="none" stroke="red" d="M318.044 272L318.044 272"/><path stroke-width="3" fill="none" stroke="#999" d="M318.044 272L318.044 272"/><path stroke-width="3" fill="none" stroke="green" d="M318.044 272L346.327 272"/><path stroke-width="3" fill="none" stroke="#999" d="M346.327 272L346.327 272"/><path stroke-width="3" fill="none" stroke="red" d="M346.327 272L346.327 272"/><path stroke-width="3" fill="none" stroke="#DD0" d="M346.327 272L513.094 272"/><path stroke-width="3" fill="none" stroke="#BBB" d="M318.044 272L318.044 272"/><path stroke-width="3" fill="blue" stroke="none" d="M321.044 272 A3 3 0 0 0 315.044 272 A3 3 0 0 0 321.044 272Z"/><text stroke-width="3" fill="red" stroke="none" font-size="8pt" x="318.044" y="255">-4</text><text stroke="none" font-size="8pt" x="513.094" y="265">28px</text><path stroke-width="3" fill="none" stroke="red" d="M513.094 272L513.094 272"/><path stroke-width="3" fill="none" stroke="#999" d="M513.094 272L513.094 272"/><path stroke-width="3" fill="none" stroke="green" d="M513.094 272L541.377 272"/><path stroke-width="3" fill="none" stroke="#999" d="M541.377 272L541.377 272"/><path stroke-width="3" fill="none" stroke="red" d="M541.377 272L541.377 272"/><path stroke-width="3" fill="none" stroke="#DD0" d="M541.377 272L715.549 272"/><path stroke-width="3" fill="none" stroke="#BBB" d="M513.094 272L513.094 272"/><path stroke-width="3" fill="blue" stroke="none" d="M516.094 272 A3 3 0 0 0 510.094 272 A3 3 0 0 0 516.094 272Z"/><text stroke-width="3" fill="red" stroke="none" font-size="8pt" x="513.094" y="255">+3</text><text stroke="none" font-size="8pt" x="120.447" y="400">15px</text><path stroke-width="3" fill="none" stroke="red" d="M120.447 407L120.447 407"/><path stroke-width="3" fill="none" stroke="#999" d="M120.447 407L120.447 407"/><path stroke-width="3" fill="none" stroke="green" d="M120.447 407L135.588 407"/><path stroke-width="3" fill="none" stroke="#999" d="M135.588 407L135.588 407"/><path stroke-width="3" fill="none" stroke="red" d="M135.588 407L135.588 407"/><path stroke-width="3" fill="none" stroke="#DD0" d="M135.588 407L260.14 407"/><path stroke-width="3" fill="none" stroke="#BBB" d="M120.447 407L120.447 407"/><path stroke-width="3" fill="blue" stroke="none" d="M123.447 407 A3 3 0 0 0 117.447 407 A3 3 0 0 0 123.447 407Z"/><text stroke-width="3" fill="red" stroke="none" font-size="8pt" x="120.447" y="390">-10</text><text stroke="none" font-size="8pt" x="260.14" y="400">15px</text><path stroke-width="3" fill="none" stroke="red" d="M260.14 407L260.14 407"/><path stroke-width="3" fill="none" stroke="#999" d="M260.14 407L260.14 407"/><path stroke-width="3" fill="none" stroke="green" d="M260.14 407L275.282 407"/><path stroke-width="3" fill="none" stroke="#999" d="M275.282 407L275.282 407"/><path stroke-width="3" fill="none" stroke="red" d="M275.282 407L275.282 407"/><path stroke-width="3" fill="none" stroke="#DD0" d="M275.282 407L403.837 407"/><path stroke-width="3" fill="none" stroke="#BBB" d="M260.14 407L260.14 407"/><path stroke-width="3" fill="blue" stroke="none" d="M263.14 407 A3 3 0 0 0 257.14 407 A3 3 0 0 0 263.14 407Z"/><text stroke-width="3" fill="red" stroke="none" font-size="8pt" x="260.14" y="390">-6</text><text stroke="none" font-size="8pt" x="403.837" y="400">15px</text><path stroke-width="3" fill="none" stroke="red" d="M403.837 407L403.837 407"/><path stroke-width="3" fill="none" stroke="#999" d="M403.837 407L403.837 407"/><path stroke-width="3" fill="none" stroke="green" d="M403.837 407L418.978 407"/><path stroke-width="3" fill="none" stroke="#999" d="M418.978 407L418.978 407"/><path stroke-width="3" fill="none" stroke="red" d="M418.978 407L418.978 407"/><path stroke-width="3" fill="none" stroke="#DD0" d="M418.978 407L569.834 407"/><path stroke-width="3" fill="none" stroke="#BBB" d="M403.837 407L403.837 407"/><path stroke-width="3" fill="blue" stroke="none" d="M406.837 407 A3 3 0 0 0 400.837 407 A3 3 0 0 0 406.837 407Z"/><text stroke-width="3" fill="red" stroke="none" font-size="8pt" x="403.837" y="390">+16</text><text stroke="none" font-size="8pt" x="569.834" y="400">15px</text><path stroke-width="3" fill="none" stroke="red" d="M569.834 407L569.834 407"/><path stroke-width="3" fill="none" stroke="#999" d="M569.834 407L569.834 407"/><path stroke-width="3" fill="none" stroke="green" d="M569.834 407L584.975 407"/><path stroke-width="3" fill="none" stroke="#999" d="M584.975 407L584.975 407"/><path stroke-width="3" fill="none" stroke="red" d="M584.975 407L584.975 407"/><path stroke-width="3" fill="none" stroke="#DD0" d="M584.975 407L715.549 407"/><path stroke-width="3" fill="none" stroke="#BBB" d="M569.834 407L569.834 407"/><path stroke-width="3" fill="blue" stroke="none" d="M572.834 407 A3 3 0 0 0 566.834 407 A3 3 0 0 0 572.834 407Z"/><text stroke-width="3" fill="red" stroke="none" font-size="8pt" x="569.834" y="390">-4</text><text stroke="none" font-size="8pt" x="120.447" y="535">28px</text><path stroke-width="3" fill="none" stroke="red" d="M120.447 542L120.447 542"/><path stroke-width="3" fill="none" stroke="#999" d="M120.447 542L120.447 542"/><path stroke-width="3" fill="none" stroke="green" d="M120.447 542L148.73 542"/><path stroke-width="3" fill="none" stroke="#999" d="M148.73 542L148.73 542"/><path stroke-width="3" fill="none" stroke="red" d="M148.73 542L148.73 542"/><path stroke-width="3" fill="none" stroke="#DD0" d="M148.73 542L231.857 542"/><path stroke-width="3" fill="none" stroke="#BBB" d="M120.447 542L120.447 542"/><path stroke-width="3" fill="blue" stroke="none" d="M123.447 542 A3 3 0 0 0 117.447 542 A3 3 0 0 0 123.447 542Z"/><text stroke-width="3" fill="red" stroke="none" font-size="8pt" x="120.447" y="525">-10</text><text stroke="none" font-size="8pt" x="231.857" y="535">28px</text><path stroke-width="3" fill="none" stroke="red" d="M231.857 542L231.857 542"/><path stroke-width="3" fill="none" stroke="#999" d="M231.857 542L231.857 542"/><path stroke-width="3" fill="none" stroke="green" d="M231.857 542L260.14 542"/><path stroke-width="3" fill="none" stroke="#999" d="M260.14 542L260.14 542"/><path stroke-width="3" fill="none" stroke="red" d="M260.14 542L260.14 542"/><path stroke-width="3" fill="none" stroke="#DD0" d="M260.14 542L346.327 542"/><path stroke-width="3" fill="none" stroke="#BBB" d="M231.857 542L231.857 542"/><path stroke-width="3" fill="blue" stroke="none" d="M234.857 542 A3 3 0 0 0 228.857 542 A3 3 0 0 0 234.857 542Z"/><text stroke-width="3" fill="red" stroke="none" font-size="8pt" x="231.857" y="525">-7</text><text stroke="none" font-size="8pt" x="346.327" y="535">28px</text><path stroke-width="3" fill="none" stroke="red" d="M346.327 542L346.327 542"/><path stroke-width="3" fill="none" stroke="#999" d="M346.327 542L346.327 542"/><path stroke-width="3" fill="none" stroke="green" d="M346.327 542L374.61 542"/><path stroke-width="3" fill="none" stroke="#999" d="M374.61 542L374.61 542"/><path stroke-width="3" fill="none" stroke="red" d="M374.61 542L374.61 542"/><path stroke-width="3" fill="none" stroke="#DD0" d="M374.61 542L484.811 542"/><path stroke-width="3" fill="none" stroke="#BBB" d="M346.327 542L346.327 542"/><path stroke-width="3" fill="blue" stroke="none" d="M349.327 542 A3 3 0 0 0 343.327 542 A3 3 0 0 0 349.327 542Z"/><text stroke-width="3" fill="red" stroke="none" font-size="8pt" x="346.327" y="525">+17</text><text stroke="none" font-size="8pt" x="484.811" y="535">28px</text><path stroke-width="3" fill="none" stroke="red" d="M484.811 542L484.811 542"/><path stroke-width="3" fill="none" stroke="#999" d="M484.811 542L484.811 542"/><path stroke-width="3" fill="none" stroke="green" d="M484.811 542L513.094 542"/><path stroke-width="3" fill="none" stroke="#999" d="M513.094 542L513.094 542"/><path stroke-width="3" fill="none" stroke="red" d="M513.094 542L513.094 542"/><path stroke-width="3" fill="none" stroke="#DD0" d="M513.094 542L584.975 542"/><path stroke-width="3" fill="none" stroke="#BBB" d="M484.811 542L484.811 542"/><path stroke-width="3" fill="blue" stroke="none" d="M487.811 542 A3 3 0 0 0 481.811 542 A3 3 0 0 0 487.811 542Z"/><text stroke-width="3" fill="red" stroke="none" font-size="8pt" x="484.811" y="525">-22</text><text stroke="none" font-size="8pt" x="584.975" y="535">28px</text><path stroke-width="3" fill="none" stroke="red" d="M584.975 542L584.975 542"/><path stroke-width="3" fill="none" stroke="#999" d="M584.975 542L584.975 542"/><path stroke-width="3" fill="none" stroke="green" d="M584.975 542L613.258 542"/><path stroke-width="3" fill="none" stroke="#999" d="M613.258 542L613.258 542"/><path stroke-width="3" fill="none" stroke="red" d="M613.258 542L613.258 542"/><path stroke-width="3" fill="none" stroke="#DD0" d="M613.258 542L715.549 542"/><path stroke-width="3" fill="none" stroke="#BBB" d="M584.975 542L584.975 542"/><path stroke-width="3" fill="blue" stroke="none" d="M587.975 542 A3 3 0 0 0 581.975 542 A3 3 0 0 0 587.975 542Z"/><text stroke-width="3" fill="red" stroke="none" font-size="8pt" x="584.975" y="525">+9</text><text stroke="none" font-size="8pt" x="120.447" y="670">28px</text><path stroke-width="3" fill="none" stroke="red" d="M120.447 677L120.447 677"/><path stroke-width="3" fill="none" stroke="#999" d="M120.447 677L120.447 677"/><path stroke-width="3" fill="none" stroke="green" d="M120.447 677L148.73 677"/><path stroke-width="3" fill="none" stroke="#999" d="M148.73 677L148.73 677"/><path stroke-width="3" fill="none" stroke="red" d="M148.73 677L148.73 677"/><path stroke-width="3" fill="none" stroke="#DD0" d="M148.73 677L148.73 677"/><path stroke-width="3" fill="none" stroke="#BBB" d="M120.447 677L120.447 677"/><path stroke-width="3" fill="blue" stroke="none" d="M123.447 677 A3 3 0 0 0 117.447 677 A3 3 0 0 0 123.447 677Z"/><text stroke-width="3" fill="red" stroke="none" font-size="8pt" x="120.447" y="660">-59</text><text stroke="none" font-size="8pt" x="148.73" y="670">28px</text><path stroke-width="3" fill="none" stroke="red" d="M148.73 677L148.73 677"/><path stroke-width="3" fill="none" stroke="#999" d="M148.73 677L148.73 677"/><path stroke-width="3" fill="none" stroke="green" d="M148.73 677L177.013 677"/><path stroke-width="3" fill="none" stroke="#999" d="M177.013 677L177.013 677"/><path stroke-width="3" fill="none" stroke="red" d="M177.013 677L177.013 677"/><path stroke-width="3" fill="none" stroke="#DD0" d="M177.013 677L275.282 677"/><path stroke-width="3" fill="none" stroke="#BBB" d="M148.73 677L148.73 677"/><path stroke-width="3" fill="blue" stroke="none" d="M151.73 677 A3 3 0 0 0 145.73 677 A3 3 0 0 0 151.73 677Z"/><text stroke-width="3" fill="red" stroke="none" font-size="8pt" x="148.73" y="660">+40</text><text stroke="none" font-size="8pt" x="275.282" y="670">28px</text><path stroke-width="3" fill="none" stroke="red" d="M275.282 677L275.282 677"/><path stroke-width="3" fill="none" stroke="#999" d="M275.282 677L275.282 677"/><path stroke-width="3" fill="none" stroke="green" d="M275.282 677L303.565 677"/><path stroke-width="3" fill="none" stroke="#999" d="M303.565 677L303.565 677"/><path stroke-width="3" fill="none" stroke="red" d="M303.565 677L303.565 677"/><path stroke-width="3" fill="none" stroke="#DD0" d="M303.565 677L375.554 677"/><path stroke-width="3" fill="none" stroke="#BBB" d="M275.282 677L275.282 677"/><path stroke-width="3" fill="blue" stroke="none" d="M278.282 677 A3 3 0 0 0 272.282 677 A3 3 0 0 0 278.282 677Z"/><text stroke-width="3" fill="red" stroke="none" font-size="8pt" x="275.282" y="660">+13</text><text stroke="none" font-size="8pt" x="375.554" y="670">28px</text><path stroke-width="3" fill="none" stroke="red" d="M375.554 677L375.554 677"/><path stroke-width="3" fill="none" stroke="#999" d="M375.554 677L375.554 677"/><path stroke-width="3" fill="none" stroke="green" d="M375.554 677L403.837 677"/><path stroke-width="3" fill="none" stroke="#999" d="M403.837 677L403.837 677"/><path stroke-width="3" fill="none" stroke="red" d="M403.837 677L403.837 677"/><path stroke-width="3" fill="none" stroke="#DD0" d="M403.837 677L456.528 677"/><path stroke-width="3" fill="none" stroke="#BBB" d="M375.554 677L375.554 677"/><path stroke-width="3" fill="blue" stroke="none" d="M378.554 677 A3 3 0 0 0 372.554 677 A3 3 0 0 0 378.554 677Z"/><text stroke-width="3" fill="red" stroke="none" font-size="8pt" x="375.554" y="660">-6</text><text stroke="none" font-size="8pt" x="456.528" y="670">28px</text><path stroke-width="3" fill="none" stroke="red" d="M456.528 677L456.528 677"/><path stroke-width="3" fill="none" stroke="#999" d="M456.528 677L456.528 677"/><path stroke-width="3" fill="none" stroke="green" d="M456.528 677L484.811 677"/><path stroke-width="3" fill="none" stroke="#999" d="M484.811 677L484.811 677"/><path stroke-width="3" fill="none" stroke="red" d="M484.811 677L484.811 677"/><path stroke-width="3" fill="none" stroke="#DD0" d="M484.811 677L541.551 677"/><path stroke-width="3" fill="none" stroke="#BBB" d="M456.528 677L456.528 677"/><path stroke-width="3" fill="blue" stroke="none" d="M459.528 677 A3 3 0 0 0 453.528 677 A3 3 0 0 0 459.528 677Z"/><text stroke-width="3" fill="red" stroke="none" font-size="8pt" x="456.528" y="660">-2</text><text stroke="none" font-size="8pt" x="541.551" y="670">28px</text><path stroke-width="3" fill="none" stroke="red" d="M541.551 677L541.551 677"/><path stroke-width="3" fill="none" stroke="#999" d="M541.551 677L541.551 677"/><path stroke-width="3" fill="none" stroke="green" d="M541.551 677L569.834 677"/><path stroke-width="3" fill="none" stroke="#999" d="M569.834 677L569.834 677"/><path stroke-width="3" fill="none" stroke="red" d="M569.834 677L569.834 677"/><path stroke-width="3" fill="none" stroke="#DD0" d="M569.834 677L626.535 677"/><path stroke-width="3" fill="none" stroke="#BBB" d="M541.551 677L541.551 677"/><path stroke-width="3" fill="blue" stroke="none" d="M544.551 677 A3 3 0 0 0 538.551 677 A3 3 0 0 0 544.551 677Z"/><text stroke-width="3" fill="red" stroke="none" font-size="8pt" x="541.551" y="660">-2</text><text stroke="none" font-size="8pt" x="626.535" y="670">28px</text><path stroke-width="3" fill="none" stroke="red" d="M626.535 677L626.535 677"/><path stroke-width="3" fill="none" stroke="#999" d="M626.535 677L626.535 677"/><path stroke-width="3" fill="none" stroke="green" d="M626.535 677L654.818 677"/><path stroke-width="3" fill="none" stroke="#999" d="M654.818 677L654.818 677"/><path stroke-width="3" fill="none" stroke="red" d="M654.818 677L654.818 677"/><path stroke-width="3" fill="none" stroke="#DD0" d="M654.818 677L715.549 677"/><path stroke-width="3" fill="none" stroke="#BBB" d="M626.535 677L626.535 677"/><path stroke-width="3" fill="blue" stroke="none" d="M629.535 677 A3 3 0 0 0 623.535 677 A3 3 0 0 0 629.535 677Z"/><text stroke-width="3" fill="red" stroke="none" font-size="8pt" x="626.535" y="660">+2</text></svg>