<svg xmlns="http://www.w3.org/2000/svg" stroke-width="0.3" stroke-dasharray="none" fill="black" stroke="black" font-family="Arial, sans-serif" font-size="10pt" font-weight="normal" font-style="normal" width="450" height="250" viewBox="0 0 250 138.88888888888889" style="width: 450px; height: 250px; border: none;"><g class="vf-stave" id="vf-auto10147" stroke-width="1" fill="#999999" stroke="#999999" font-family="Arial"><path fill="none" d="M10 40L260 40"/><path fill="none" d="M10 50L260 50"/><path fill="none" d="M10 60L260 60"/><path fill="none" d="M10 70L260 70"/><path fill="none" d="M10 80L260 80"/></g><g class="vf-stavebarline" id="vf-auto10148" font-family="Arial"><rect x="10" y="39.5" width="1" height="41" stroke="none"/></g><g class="vf-stavebarline" id="vf-auto10149" font-family="Arial"><rect x="260" y="39.5" width="1" height="41" stroke="none"/></g><g class="vf-clef" id="vf-auto10150" font-family="Arial"><path stroke="none" d="M35.503 71.76C35.503 74.345,34.464 77.032,31.854 78.071C31.093 73.712,30.105 67.908,29.852 66.286C33.146 66.286,35.503 68.516,35.503 71.76M30.333 78.527C29.598 78.654,28.914 78.73,28.204 78.73C22.983 78.73,18.548 75.08,18.548 69.581C18.548 65.12,21.691 61.141,24.884 58.379C25.518 57.821,26.101 57.314,26.633 56.757C26.962 58.734,27.216 60.457,27.469 61.952C24.149 62.941,21.894 66.438,21.894 69.86C21.894 72.419,23.896 75.917,26.836 75.917C27.114 75.917,27.444 75.79,27.444 75.461C27.444 75.131,27.089 74.954,26.633 74.65C25.214 73.762,24.428 72.825,24.428 71.025C24.428 68.82,26.05 67.021,28.204 66.514M27.114 40.993C27.444 39.548,29.117 35.721,31.017 35.721C31.575 35.721,32.437 37.495,32.437 40.004C32.437 43.806,29.623 46.67,27.114 49.128C26.886 47.684,26.709 46.264,26.709 44.718C26.709 43.375,26.836 42.133,27.114 40.993M19.461 89.729C19.461 92.137,21.311 95.305,26.253 95.305C27.951 95.305,29.446 94.874,30.764 94.063C32.741 92.669,33.248 90.261,33.248 87.98C33.248 86.536,33.02 84.914,32.665 82.836C32.563 82.101,32.335 81.011,32.107 79.566C35.681 78.4,38.367 74.675,38.367 70.924C38.367 65.424,34.464 61.699,29.117 61.699C28.762 59.494,28.382 57.34,28.078 55.312C31.93 51.257,34.591 46.695,34.591 40.891C34.591 37.571,33.577 34.859,32.994 33.567C32.107 31.691,31.068 30.424,30.409 30.424C30.156 30.424,29.015 30.855,27.799 32.274C25.467 35.062,24.808 39.726,24.808 42.792C24.808 44.769,25.011 46.543,25.619 50.623C25.594 50.674,23.693 52.6,22.907 53.234C19.587 56.326,15 60.736,15 68.035C15 74.878,20.956 80.225,27.748 80.225C28.787 80.225,29.776 80.124,30.612 79.972C31.322 83.469,31.727 86.029,31.727 87.98C31.727 91.757,29.776 93.784,26.101 93.784C25.214 93.784,24.453 93.582,24.377 93.582C24.352 93.556,24.276 93.505,24.276 93.48C24.276 93.404,24.352 93.379,24.453 93.328C26.177 93.075,27.875 91.63,27.875 89.273C27.875 87.322,26.379 85.243,23.642 85.243C21.083 85.243,19.461 87.322,19.461 89.729"/></g><path stroke="none" d="M50.367 61.685C50.367 63.426,51.631 65.391,54.888 65.391C59.1 65.391,63.509 61.938,63.509 58.371C63.509 55.985,61.487 54.665,58.988 54.665C55.057 54.665,50.367 57.978,50.367 61.685"/><path stroke="none" d="M106.264 59.496C100.704 59.496,98.71 62.332,98.71 64.972C98.71 67.583,100.704 70.419,106.264 70.419C111.852 70.419,113.789 67.583,113.789 64.972C113.789 62.332,111.852 59.496,106.264 59.496M108.342 68.875C107.836 69.044,107.19 69.128,106.601 69.128C105.449 69.128,104.691 68.791,104.158 67.78C103.652 66.769,102.922 64.186,102.866 63.091C102.782 61.995,103.203 61.35,104.158 61.041C104.663 60.872,105.309 60.788,105.899 60.788C107.05 60.788,107.78 61.041,108.342 62.136C108.903 63.231,109.633 65.814,109.633 66.825C109.633 67.864,109.296 68.594,108.342 68.875"/><path stroke="none" d="M237.02 84.665C233.089 84.665,228.4 87.95,228.4 91.685C228.4 93.426,229.663 95.391,232.921 95.391C237.133 95.391,241.541 91.938,241.541 88.371C241.541 85.985,239.52 84.665,237.02 84.665M235.925 91.769C235.813 91.853,232.837 93.482,231.433 93.482C230.085 93.482,229.804 92.387,229.804 92.022C229.804 90.337,233.847 88.343,234.016 88.259C234.184 88.175,237.049 86.574,238.509 86.574C239.491 86.574,240.137 87.136,240.137 88.006C240.137 89.747,236.038 91.685,235.925 91.769"/></svg>