<svg xmlns="http://www.w3.org/2000/svg" stroke-width="0.3" stroke-dasharray="none" fill="black" stroke="black" font-family="Arial, sans-serif" font-size="10pt" font-weight="normal" font-style="normal" width="550" height="195" viewBox="0 0 550 195" style="width: 550px; height: 195px; border: none;"><g class="vf-stave" id="vf-auto12973" stroke-width="1" fill="#999999" stroke="#999999"><path fill="none" d="M10 70L510 70"/><path fill="none" d="M10 80L510 80"/><path fill="none" d="M10 90L510 90"/><path fill="none" d="M10 100L510 100"/><path fill="none" d="M10 110L510 110"/></g><g class="vf-stavebarline" id="vf-auto12974"><rect x="10" y="69.5" width="1" height="41" stroke="none"/></g><g class="vf-stavebarline" id="vf-auto12975"><rect x="510" y="69.5" width="1" height="41" stroke="none"/></g><g class="vf-stavenote" id="vf-auto12976"><g class="vf-stem" id="vf-auto12977" pointer-events="bounding-box"><path stroke-width="1.5" fill="none" d="M42.758 93L42.758 60"/></g><g class="vf-notehead" id="vf-auto12979" pointer-events="bounding-box"><path stroke="none" d="M33.645 101.543C33.926 101.599,34.178 101.627,34.459 101.627C38.334 101.627,44.119 96.348,44.006 92.08C43.894 91.041,43.922 89.609,41.816 88.766C41.227 88.485,40.581 88.373,39.879 88.373C35.554 88.373,30.865 93.343,30.528 96.657C30.528 96.909,30.5 97.134,30.5 97.387C30.5 99.409,31.399 101.037,33.645 101.543"/><g class="vf-ornament" id="vf-auto12992"><path stroke="none" d="M25.65 50C26.088 50,26.498 49.891,26.99 49.617C27.456 49.289,27.893 48.933,28.249 48.468C28.96 47.565,29.672 46.662,30.383 45.704C30.492 45.54,30.602 45.404,30.766 45.404C30.848 45.404,30.93 45.458,31.012 45.704C31.477 47.072,32.462 48.03,33.447 49.015C34.022 49.644,34.706 49.973,35.335 49.973C35.992 49.973,36.621 49.644,37.223 49.042C39.111 47.127,40.999 45.157,42.832 43.187C43.406 42.558,44.118 41.929,44.473 41.135C44.501 40.971,44.72 40.862,44.72 40.698C44.72 40.67,44.72 40.616,44.638 40.533C44.501 40.479,44.364 40.424,44.2 40.424C44.09 40.424,44.008 40.424,43.926 40.506C43.488 40.807,43.051 41.135,42.668 41.518L38.728 45.704C38.591 45.814,38.482 46.088,38.372 46.088C38.29 46.088,38.208 46.06,38.126 45.896C37.579 44.911,36.621 44.282,35.992 43.379C35.499 42.668,34.788 42.23,34.022 41.847C33.612 41.655,33.201 41.518,32.818 41.518C32.38 41.518,31.915 41.683,31.423 42.12C30.438 42.996,29.699 44.118,28.878 45.103C28.687 45.349,28.55 45.513,28.413 45.513C28.249 45.513,28.112 45.404,27.921 45.103C27.209 43.981,26.361 42.941,25.458 41.929C24.747 41.135,23.817 40.588,22.886 40.588C22.175 40.588,21.464 40.862,20.725 41.518C19.685 42.503,18.782 43.625,17.797 44.637C16.539 45.951,15.91 47.565,15.28 49.343C15.882 49.261,16.156 48.988,16.429 48.687C17.579 47.674,18.399 46.388,19.548 45.404C20.041 44.966,20.369 44.747,20.643 44.747C20.916 44.747,21.163 45.048,21.518 45.677C22.175 46.881,22.996 47.948,23.817 49.015C24.336 49.672,24.966 50,25.65 50"/></g><g class="vf-ornament" id="vf-auto13000"><path stroke="none" d="M37.798 30C40.293 30,42.558 28.49,43.215 25.666C43.412 24.648,43.576 23.663,43.576 22.678C43.576 21.398,43.379 20.118,42.952 18.837C42.197 16.605,40.358 15.258,38.257 15.258C37.929 15.258,37.666 15.291,37.305 15.357C36.123 15.521,35.664 16.145,35.762 17.393L36.189 20.15C36.222 20.446,36.287 20.643,36.484 20.643C36.55 20.643,36.648 20.577,36.813 20.544C37.174 20.347,37.568 20.315,37.929 20.315C38.553 20.315,39.177 20.512,39.768 20.676C40.72 20.971,41.803 22.383,41.803 23.138C41.803 23.959,40.523 24.747,39.308 24.878C38.914 24.944,38.586 24.944,38.224 24.944C37.272 24.944,36.386 24.813,35.434 24.484C33.923 23.893,32.676 23.007,31.363 22.055C29.13 20.446,27.291 18.377,24.993 16.867C23.811 16.145,22.662 15.817,21.677 15.817C19.642 15.817,18.033 17.13,17.081 19.231C16.621 20.315,16.424 21.398,16.424 22.481C16.424 24.222,16.884 25.994,17.409 27.669C17.836 29.048,19.576 29.902,21.152 29.902C21.447 29.902,21.677 29.869,21.94 29.803C24.074 29.343,24.566 28.72,24.566 25.994C24.566 25.929,24.566 25.568,24.501 25.174C24.402 24.616,24.271 24.189,23.844 24.189C23.647 24.189,23.483 24.287,23.187 24.419C22.531 24.813,21.874 24.944,21.152 24.944C20.429 24.944,19.74 24.747,19.018 24.419C18.46 24.123,18.164 23.795,18.164 23.368C18.164 23.138,18.23 22.875,18.394 22.514C19.083 21.431,20.364 20.774,21.71 20.774C21.94 20.774,22.202 20.774,22.432 20.84C24.402 21.168,25.748 22.481,27.094 23.762C29.622 25.929,32.019 28.26,35.204 29.475C36.058 29.803,36.944 30,37.798 30"/></g></g></g><g class="vf-stavenote" id="vf-auto12980"><g class="vf-stem" id="vf-auto12981" pointer-events="bounding-box"><path stroke-width="1.5" fill="none" d="M155.131 93L155.131 60"/></g><g class="vf-notehead" id="vf-auto12983" pointer-events="bounding-box"><path stroke="none" d="M146.018 101.543C146.299 101.599,146.551 101.627,146.832 101.627C150.707 101.627,156.492 96.348,156.379 92.08C156.267 91.041,156.295 89.609,154.189 88.766C153.6 88.485,152.954 88.373,152.252 88.373C147.927 88.373,143.238 93.343,142.901 96.657C142.901 96.909,142.873 97.134,142.873 97.387C142.873 99.409,143.772 101.037,146.018 101.543"/><g class="vf-ornament" id="vf-auto12994"><path stroke="none" d="M143.276 50C143.736 48.851,143.768 47.899,143.768 46.947C143.736 45.436,143.736 43.893,143.736 42.317C144.917 43.171,146.198 43.992,147.577 44.517C148.43 44.845,149.317 45.01,150.171 45.01C152.666 45.01,154.931 43.499,155.588 40.676C155.785 39.691,155.949 38.673,155.949 37.688C155.949 36.408,155.752 35.127,155.325 33.879C154.57 31.647,152.731 30.268,150.63 30.268C150.302 30.268,150.039 30.334,149.678 30.366C148.496 30.563,148.036 31.187,148.135 32.402L148.562 35.193C148.595 35.488,148.66 35.652,148.857 35.652C148.923 35.652,149.021 35.62,149.186 35.554C149.547 35.39,149.941 35.324,150.302 35.324C150.926 35.324,151.55 35.521,152.14 35.718C153.093 35.981,154.176 37.425,154.176 38.18C154.176 38.968,152.896 39.789,151.681 39.921C151.287 39.953,150.959 39.953,150.597 39.953C149.645 39.953,148.759 39.822,147.807 39.494C146.296 38.968,145.049 38.016,143.736 37.097C143.736 37.097,143.736 37.031,143.703 37.031L143.703 33.912C143.703 32.304,143.637 30.563,143.637 28.955C143.637 28.003,143.604 27.05,143.013 26.262C142.948 26.098,142.948 25.836,142.751 25.836L142.652 25.836C142.422 25.868,142.192 26.164,142.028 26.394C141.93 26.591,141.995 26.821,141.995 27.05L141.831 35.554C140.387 34.306,138.975 32.96,137.366 31.877C136.184 31.187,135.035 30.826,134.05 30.826C132.014 30.826,130.373 32.172,129.454 34.241C128.994 35.324,128.797 36.408,128.797 37.491C128.797 39.264,129.257 41.004,129.782 42.711C130.209 44.09,131.949 44.944,133.525 44.944C133.82 44.944,134.05 44.878,134.313 44.845C136.447 44.353,136.939 43.762,136.939 41.004C136.939 40.971,136.939 40.577,136.874 40.216C136.775 39.625,136.644 39.198,136.217 39.198C136.02 39.198,135.856 39.297,135.56 39.461C134.904 39.822,134.247 39.953,133.525 39.953C132.802 39.953,132.113 39.789,131.391 39.461C130.833 39.165,130.537 38.837,130.537 38.41C130.537 38.18,130.603 37.885,130.767 37.557C131.391 36.473,132.737 35.817,134.083 35.817C134.313 35.817,134.575 35.817,134.805 35.849C136.775 36.243,138.056 37.557,139.467 38.771C140.222 39.461,141.01 40.118,141.766 40.709C141.7 41.398,141.7 42.055,141.7 42.646C141.601 45.174,141.995 47.538,143.276 50"/></g><g class="vf-ornament" id="vf-auto13002"><path stroke="none" d="M144.261 29.644C144.835 29.289,145.3 28.824,145.711 28.304C147.243 26.279,148.255 24.008,149.459 21.792C149.541 21.6,149.569 21.327,149.815 21.327C150.088 21.327,150.171 21.6,150.225 21.847C150.909 23.269,151.374 24.747,152.086 26.142C152.797 27.51,153.508 28.03,154.302 28.03C154.876 28.03,155.56 27.702,156.299 27.319C157.64 26.525,158.597 25.294,159.5 24.036C161.115 21.792,162.127 19.439,162.127 16.867C162.127 16.019,162.017 15.144,161.771 14.241C160.95 11.012,158.16 8.687,155.123 8.687C154.849 8.687,154.576 8.714,154.302 8.769C153.235 8.905,152.414 9.316,152.14 10.492C152.058 11.012,151.922 11.477,151.703 11.915C151.566 12.189,151.511 12.38,151.511 12.544C151.511 12.736,151.621 12.818,151.922 12.818C152.058 12.818,152.168 12.791,152.332 12.791C152.77 12.708,153.153 12.654,153.536 12.654C154.658 12.654,155.725 12.927,156.655 13.639C158.789 15.226,159.528 17.36,159.528 19.74C159.528 20.068,159.528 20.342,159.5 20.67C159.418 21.929,158.871 22.968,157.886 23.817C157.366 24.254,156.901 24.446,156.491 24.446C155.998 24.446,155.506 24.09,155.123 23.324C154.685 22.503,154.329 21.655,153.946 20.78C153.508 19.822,153.262 18.755,152.606 17.907C152.277 17.414,151.84 17.223,151.429 17.223C151.019 17.223,150.581 17.414,150.28 17.907C149.678 18.7,149.186 19.521,148.748 20.342C147.79 22.148,146.86 23.953,145.875 25.732C145.793 25.896,145.656 26.142,145.547 26.142C145.273 26.224,145.191 25.896,145.164 25.704C144.917 25.103,144.753 24.528,144.562 23.926C143.932 21.984,143.577 19.986,142.592 18.263C142.291 17.715,141.853 17.414,141.443 17.414C141.06 17.414,140.677 17.661,140.321 18.18C139.911 18.728,139.555 19.33,139.199 19.959C138.351 21.491,137.558 23.105,136.655 24.637C136.381 25.103,136.244 25.869,135.752 25.869C135.177 25.869,135.177 25.02,134.986 24.528C134.712 23.762,134.439 22.968,134.11 22.23C133.536 20.78,133.016 19.248,131.839 18.044C131.292 17.496,130.745 17.278,130.17 17.278C129.541 17.278,128.912 17.633,128.501 18.345C126.668 21.3,124.835 24.172,123.248 27.237C123.084 27.592,122.619 28.112,122.619 28.413C122.619 28.577,122.646 28.659,122.811 28.741C123.33 29.015,123.878 28.14,124.233 27.62C125.656 25.732,126.532 23.57,127.817 21.655C128.146 21.217,128.283 20.971,128.529 20.971C128.72 20.971,128.967 21.163,129.322 21.573C130.225 22.421,130.608 23.57,131.128 24.665C131.675 26.005,132.086 27.428,132.66 28.769C132.934 29.398,133.207 29.726,133.618 29.726C133.891 29.726,134.192 29.562,134.603 29.316C135.588 28.741,136.162 27.702,136.792 26.799C137.995 25.103,138.816 23.297,139.801 21.436C140.348 21.929,140.43 22.558,140.595 23.105C141.142 24.993,141.662 26.908,142.236 28.851C142.482 29.644,142.783 30,143.276 30C143.549 30,143.85 29.863,144.261 29.644"/></g></g></g><g class="vf-stavenote" id="vf-auto12984"><g class="vf-stem" id="vf-auto12985" pointer-events="bounding-box"><path stroke-width="1.5" fill="none" d="M267.504 93L267.504 60"/></g><g class="vf-notehead" id="vf-auto12987" pointer-events="bounding-box"><path stroke="none" d="M258.391 101.543C258.672 101.599,258.924 101.627,259.205 101.627C263.08 101.627,268.865 96.348,268.752 92.08C268.64 91.041,268.668 89.609,266.562 88.766C265.973 88.485,265.327 88.373,264.625 88.373C260.3 88.373,255.611 93.343,255.274 96.657C255.274 96.909,255.246 97.134,255.246 97.387C255.246 99.409,256.145 101.037,258.391 101.543"/><g class="vf-ornament" id="vf-auto12996"><path stroke="none" d="M262.544 50C265.039 50,267.304 48.49,267.961 45.666C268.158 44.648,268.322 43.663,268.322 42.678C268.322 41.398,268.125 40.118,267.698 38.837C266.943 36.605,265.104 35.258,263.003 35.258C262.675 35.258,262.412 35.291,262.051 35.357C260.869 35.521,260.409 36.145,260.508 37.393L260.935 40.15C260.968 40.446,261.033 40.643,261.23 40.643C261.296 40.643,261.394 40.577,261.559 40.544C261.92 40.347,262.314 40.315,262.675 40.315C263.299 40.315,263.922 40.512,264.513 40.676C265.466 40.971,266.549 42.383,266.549 43.138C266.549 43.959,265.269 44.747,264.054 44.878C263.66 44.944,263.332 44.944,262.97 44.944C262.018 44.944,261.132 44.813,260.18 44.484C258.669 43.893,257.422 43.007,256.108 42.055C253.876 40.446,252.037 38.377,249.739 36.867C248.557 36.145,247.408 35.817,246.423 35.817C244.387 35.817,242.779 37.13,241.827 39.231C241.367 40.315,241.17 41.398,241.17 42.481C241.17 44.222,241.63 45.994,242.155 47.669C242.582 49.048,244.322 49.902,245.898 49.902C246.193 49.902,246.423 49.869,246.686 49.803C248.82 49.343,249.312 48.72,249.312 45.994C249.312 45.929,249.312 45.568,249.247 45.174C249.148 44.616,249.017 44.189,248.59 44.189C248.393 44.189,248.229 44.287,247.933 44.419C247.277 44.813,246.62 44.944,245.898 44.944C245.175 44.944,244.486 44.747,243.764 44.419C243.206 44.123,242.91 43.795,242.91 43.368C242.91 43.138,242.976 42.875,243.14 42.514C243.829 41.431,245.11 40.774,246.456 40.774C246.686 40.774,246.948 40.774,247.178 40.84C249.148 41.168,250.494 42.481,251.84 43.762C254.368 45.929,256.765 48.26,259.95 49.475C260.803 49.803,261.69 50,262.544 50"/></g><g class="vf-ornament" id="vf-auto13004"><path stroke="none" d="M248.481 29.918C248.864 29.891,248.973 29.726,248.973 29.48C248.973 29.371,248.973 29.261,248.891 29.097C248.617 28.358,248.07 27.811,247.55 27.182C247.085 26.58,246.538 26.252,245.717 26.334C245.471 26.388,245.279 26.388,245.033 26.388C244.103 26.388,243.2 26.115,242.325 25.677C239.096 24.063,236.223 22.011,233.843 19.33C233.542 18.974,233.378 18.618,233.378 18.235C233.378 18.071,233.378 17.962,233.405 17.797C233.898 14.952,235.43 12.544,236.524 9.945C236.88 9.124,237.482 8.741,238.138 8.741C238.576 8.741,239.096 8.933,239.616 9.316C241.23 10.574,242.434 12.271,243.884 13.721C244.924 14.76,245.58 15.308,246.182 15.308C246.894 15.308,247.523 14.678,248.508 13.42C249.137 12.626,249.684 11.806,250.286 10.985C250.478 10.656,250.669 10.465,250.861 10.465C251.08 10.465,251.217 10.574,251.463 10.848C252.448 12.161,253.515 13.392,254.5 14.651C255.293 15.663,255.649 16.183,256.114 16.183C256.552 16.183,257.044 15.773,258.029 15.061C258.385 14.843,258.658 14.487,258.987 14.131C259.342 13.721,259.725 13.256,260.081 12.818C260.081 13.228,260.136 13.611,260.136 14.022C260.136 14.569,260.081 15.116,260.054 15.691C259.808 17.989,259.862 20.287,259.808 22.558L259.78 22.941C259.78 23.105,259.808 23.269,259.999 23.297C260.3 23.352,260.519 23.023,260.628 22.804C260.847 22.449,260.984 22.038,261.066 21.655C261.394 20.479,261.477 19.248,261.477 18.016C261.477 15.554,261.668 13.092,261.668 10.711C261.86 10.465,262.051 10.191,262.27 9.918C262.68 9.234,263.009 8.933,263.364 8.933C263.665 8.933,263.994 9.206,264.513 9.754C264.623 9.836,264.65 9.945,264.787 10.027C265.909 11.258,266.757 12.736,267.769 14.049C268.207 14.596,268.563 14.843,269.001 14.843C269.274 14.843,269.575 14.706,270.013 14.487C270.724 14.022,271.326 13.42,271.873 12.736C273.022 11.34,274.199 9.945,275.457 8.604C276.689 7.319,277.783 5.896,278.084 4.008C276.908 4.09,276.196 4.829,275.567 5.568C274.199 7.182,272.858 8.796,271.463 10.383C271.162 10.766,270.998 10.93,270.806 10.93C270.615 10.93,270.423 10.711,270.095 10.301C268.918 8.796,267.879 7.154,266.511 5.841C265.909 5.294,265.334 5.02,264.787 5.02C264.076 5.02,263.392 5.458,262.817 6.334C262.407 6.908,262.024 7.51,261.586 8.057C261.559 7.62,261.504 7.236,261.422 6.799C261.477 6.498,261.477 6.169,261.477 5.896C261.477 4.993,261.34 4.172,261.285 3.324C261.148 1.327,260.929 -0.698,260.71 -2.668C260.71 -2.941,260.71 -3.297,260.355 -3.297C260.054 -3.297,259.808 -3.051,259.725 -2.695C259.425 -1.519,259.178 -0.288,259.26 0.916C259.452 3.762,259.78 6.635,259.89 9.48C259.89 9.672,259.944 9.918,259.944 10.109C259.507 10.629,259.014 11.122,258.549 11.559C258.248 11.833,258.002 11.997,257.81 11.997C257.537 11.997,257.29 11.751,257.017 11.423C256.032 10.137,255.129 8.878,254.089 7.702C253.323 6.799,252.749 6.361,252.201 6.361C251.627 6.361,251.08 6.908,250.314 7.975C249.575 9.042,248.946 10.191,247.961 11.012C247.797 11.176,247.632 11.258,247.523 11.258C247.359 11.258,247.249 11.176,247.058 10.985C245.635 9.398,244.185 7.893,242.762 6.361C242.078 5.65,241.422 5.02,240.355 4.856C240.081 4.829,239.835 4.829,239.616 4.829C237.947 4.829,236.606 5.513,235.621 6.963C234.691 8.386,233.733 9.781,232.913 11.258C232.01 12.873,231.408 14.678,231.408 16.484C231.408 19.302,232.749 21.929,235.785 23.707C236.251 23.981,236.661 24.419,237.126 24.72C239.753 26.498,242.27 28.577,245.361 29.562C246.1 29.808,246.839 30,247.632 30C247.906 30,248.18 29.973,248.481 29.918"/></g></g></g><g class="vf-stavenote" id="vf-auto12988"><g class="vf-stem" id="vf-auto12989" pointer-events="bounding-box"><path stroke-width="1.5" fill="none" d="M379.877 93L379.877 60"/></g><g class="vf-notehead" id="vf-auto12991" pointer-events="bounding-box"><path stroke="none" d="M370.764 101.543C371.045 101.599,371.297 101.627,371.578 101.627C375.453 101.627,381.238 96.348,381.125 92.08C381.013 91.041,381.041 89.609,378.935 88.766C378.345 88.485,377.7 88.373,376.998 88.373C372.673 88.373,367.984 93.343,367.647 96.657C367.647 96.909,367.619 97.134,367.619 97.387C367.619 99.409,368.517 101.037,370.764 101.543"/><g class="vf-ornament" id="vf-auto12998"><path stroke="none" d="M368.022 50C368.481 48.851,368.514 47.899,368.514 46.947C368.481 45.436,368.481 43.893,368.481 42.317C369.663 43.171,370.944 43.992,372.323 44.517C373.176 44.845,374.063 45.01,374.917 45.01C377.412 45.01,379.677 43.499,380.334 40.676C380.531 39.691,380.695 38.673,380.695 37.688C380.695 36.408,380.498 35.127,380.071 33.879C379.316 31.647,377.477 30.268,375.376 30.268C375.048 30.268,374.785 30.334,374.424 30.366C373.242 30.563,372.782 31.187,372.881 32.402L373.308 35.193C373.341 35.488,373.406 35.652,373.603 35.652C373.669 35.652,373.767 35.62,373.932 35.554C374.293 35.39,374.687 35.324,375.048 35.324C375.672 35.324,376.295 35.521,376.886 35.718C377.839 35.981,378.922 37.425,378.922 38.18C378.922 38.968,377.642 39.789,376.427 39.921C376.033 39.953,375.704 39.953,375.343 39.953C374.391 39.953,373.505 39.822,372.553 39.494C371.042 38.968,369.795 38.016,368.481 37.097C368.481 37.097,368.481 37.031,368.449 37.031L368.449 33.912C368.449 32.304,368.383 30.563,368.383 28.955C368.383 28.003,368.35 27.05,367.759 26.262C367.693 26.098,367.693 25.836,367.496 25.836L367.398 25.836C367.168 25.868,366.938 26.164,366.774 26.394C366.676 26.591,366.741 26.821,366.741 27.05L366.577 35.554C365.133 34.306,363.721 32.96,362.112 31.877C360.93 31.187,359.781 30.826,358.796 30.826C356.76 30.826,355.119 32.172,354.2 34.241C353.74 35.324,353.543 36.408,353.543 37.491C353.543 39.264,354.003 41.004,354.528 42.711C354.955 44.09,356.695 44.944,358.271 44.944C358.566 44.944,358.796 44.878,359.059 44.845C361.193 44.353,361.685 43.762,361.685 41.004C361.685 40.971,361.685 40.577,361.62 40.216C361.521 39.625,361.39 39.198,360.963 39.198C360.766 39.198,360.602 39.297,360.306 39.461C359.65 39.822,358.993 39.953,358.271 39.953C357.548 39.953,356.859 39.789,356.137 39.461C355.578 39.165,355.283 38.837,355.283 38.41C355.283 38.18,355.349 37.885,355.513 37.557C356.137 36.473,357.483 35.817,358.829 35.817C359.059 35.817,359.321 35.817,359.551 35.849C361.521 36.243,362.802 37.557,364.213 38.771C364.968 39.461,365.756 40.118,366.512 40.709C366.446 41.398,366.446 42.055,366.446 42.646C366.347 45.174,366.741 47.538,368.022 50"/></g><g class="vf-ornament" id="vf-auto13006"><path stroke="none" d="M351.238 29.289C351.511 29.042,351.703 28.741,351.949 28.413C352.989 27.045,353.399 25.458,353.919 23.899C354.165 23.187,354.247 22.859,354.439 22.859C354.63 22.859,354.876 23.078,355.342 23.434C356.682 24.446,357.476 25.951,358.652 27.127C359.035 27.51,359.364 27.702,359.664 27.702C360.02 27.702,360.294 27.428,360.649 26.936C361.361 25.869,361.689 24.637,361.99 23.434C362.318 22.202,362.619 21.6,363.139 21.6C363.522 21.6,364.042 21.956,364.808 22.722C366.286 24.2,367.763 25.677,369.049 27.319C369.651 28.057,370.225 29.097,371.265 28.933C372.387 28.769,372.688 27.51,373.044 26.58C373.427 25.677,373.7 24.692,374.083 23.762C374.357 23.133,374.603 22.832,374.959 22.832C375.205 22.832,375.506 23.023,375.916 23.461C377.011 24.692,378.16 25.896,379.172 27.155C379.528 27.565,379.801 27.756,380.157 27.756C380.403 27.756,380.677 27.647,380.951 27.428C383.112 25.896,385.164 24.282,387.052 22.394C387.873 21.573,388.119 20.588,388.119 19.548C388.119 19.138,388.092 18.646,388.009 18.208C387.572 18.18,387.325 18.427,387.052 18.646L381.936 22.777C381.388 23.215,381.115 23.461,380.841 23.461C380.595 23.461,380.349 23.187,379.884 22.585C378.953 21.382,378.078 20.123,376.819 19.165C376.381 18.81,375.916 18.618,375.506 18.618C374.877 18.618,374.302 19.056,373.864 19.795C373.071 21.135,372.688 22.64,372.168 24.09C372.004 24.528,371.84 24.72,371.648 24.72C371.484 24.72,371.292 24.61,371.019 24.282C370.417 23.625,369.924 22.941,369.377 22.284C367.982 20.752,366.641 19.138,364.918 17.934C364.316 17.551,363.823 17.36,363.385 17.36C362.592 17.36,361.99 17.934,361.634 19.083C361.279 20.26,360.978 21.409,360.54 22.585C360.348 23.133,360.184 23.434,360.02 23.434C359.883 23.434,359.664 23.187,359.309 22.777C358.269 21.464,357.202 20.041,355.779 19.056C355.369 18.782,354.986 18.646,354.658 18.646C354.11 18.646,353.673 19.083,353.399 19.904C352.907 21.491,352.469 23.105,351.703 24.61C351.402 25.239,350.855 25.869,350.034 25.869C349.322 25.869,348.994 25.239,348.638 24.692C348.474 24.446,348.42 24.118,348.337 23.817C347.736 21.409,347.489 18.919,347.435 16.457C347.38 15.335,347.352 14.241,347.352 13.146C347.352 11.45,347.435 9.754,347.571 8.057C347.626 7.674,347.544 7.072,347.216 7.018C346.641 6.963,346.504 7.592,346.477 8.057C346.313 10.027,346.094 11.997,346.121 13.967C346.203 17.551,346.285 21.135,346.833 24.692C347.079 26.224,347.216 27.756,348.173 29.015C348.638 29.644,349.186 30,349.788 30C350.253 30,350.772 29.754,351.238 29.289"/></g></g></g></svg>