<svg xmlns="http://www.w3.org/2000/svg" stroke-width="0.3" stroke-dasharray="none" fill="black" stroke="black" font-family="Arial, sans-serif" font-size="10pt" font-weight="normal" font-style="normal" width="700" height="130" viewBox="0 0 700 130" style="width: 700px; height: 130px; border: none;"><g class="vf-stave" id="vf-auto15108" stroke-width="1" fill="#999999" stroke="#999999"><path fill="none" d="M10 50L660 50"/><path fill="none" d="M10 60L660 60"/><path fill="none" d="M10 70L660 70"/><path fill="none" d="M10 80L660 80"/><path fill="none" d="M10 90L660 90"/></g><g class="vf-stavebarline" id="vf-auto15109"><rect x="10" y="49.5" width="1" height="41" stroke="none"/></g><g class="vf-stavebarline" id="vf-auto15110"><rect x="660" y="49.5" width="1" height="41" stroke="none"/></g><g class="vf-stavenote" id="vf-auto15112"><path stroke-width="1.4" fill="none" stroke="#444" d="M148.764 100L166.698 100"/><path stroke-width="1.4" fill="none" stroke="#444" d="M148.764 110L166.698 110"/><g class="vf-notehead" id="vf-auto15116" pointer-events="bounding-box"><path stroke="none" d="M155.696 115.054C159.29 115.054,163.698 111.741,163.698 108.315C163.698 106.237,162.07 104.946,159.767 104.946C155.331 104.946,151.764 108.231,151.764 111.685C151.764 113.791,153.505 115.054,155.696 115.054"/><g class="vf-stavenote" id="vf-auto15177"><path stroke-width="1.4" fill="none" stroke="#444" d="M27 100L42.934 100"/><path stroke-width="1.4" fill="none" stroke="#444" d="M27 110L42.934 110"/><g class="vf-notehead" id="vf-auto15183" pointer-events="bounding-box"><path stroke="none" d="M31.595 113.336C33.967 113.336,36.876 111.149,36.876 108.888C36.876 107.517,35.802 106.664,34.282 106.664C31.354 106.664,29 108.832,29 111.112C29 112.502,30.149 113.336,31.595 113.336"/></g></g><g class="vf-stavenote" id="vf-auto15184"><path stroke-width="1.4" fill="none" stroke="#444" d="M38.876 100L54.81 100"/><path stroke-width="1.4" fill="none" stroke="#444" d="M38.876 110L54.81 110"/><g class="vf-notehead" id="vf-auto15190" pointer-events="bounding-box"><path stroke="none" d="M43.471 113.336C45.843 113.336,48.753 111.149,48.753 108.888C48.753 107.517,47.678 106.664,46.158 106.664C43.23 106.664,40.876 108.832,40.876 111.112C40.876 112.502,42.025 113.336,43.471 113.336"/></g></g><g class="vf-stavenote" id="vf-auto15191"><path stroke-width="1.4" fill="none" stroke="#444" d="M50.753 100L66.687 100"/><path stroke-width="1.4" fill="none" stroke="#444" d="M50.753 110L66.687 110"/><g class="vf-notehead" id="vf-auto15197" pointer-events="bounding-box"><path stroke="none" d="M55.347 113.336C57.72 113.336,60.629 111.149,60.629 108.888C60.629 107.517,59.554 106.664,58.035 106.664C55.107 106.664,52.753 108.832,52.753 111.112C52.753 112.502,53.902 113.336,55.347 113.336"/></g></g><g class="vf-stavenote" id="vf-auto15198"><path stroke-width="1.4" fill="none" stroke="#444" d="M62.629 100L78.563 100"/><path stroke-width="1.4" fill="none" stroke="#444" d="M62.629 110L78.563 110"/><g class="vf-notehead" id="vf-auto15204" pointer-events="bounding-box"><path stroke="none" d="M67.224 113.336C69.596 113.336,72.506 111.149,72.506 108.888C72.506 107.517,71.431 106.664,69.911 106.664C66.983 106.664,64.629 108.832,64.629 111.112C64.629 112.502,65.778 113.336,67.224 113.336"/></g></g><g class="vf-stavenote" id="vf-auto15205"><path stroke-width="1.4" fill="none" stroke="#444" d="M74.506 100L90.44 100"/><path stroke-width="1.4" fill="none" stroke="#444" d="M74.506 110L90.44 110"/><g class="vf-notehead" id="vf-auto15211" pointer-events="bounding-box"><path stroke="none" d="M79.1 113.336C81.473 113.336,84.382 111.149,84.382 108.888C84.382 107.517,83.307 106.664,81.788 106.664C78.859 106.664,76.506 108.832,76.506 111.112C76.506 112.502,77.655 113.336,79.1 113.336"/></g></g><g class="vf-stavenote" id="vf-auto15212"><path stroke-width="1.4" fill="none" stroke="#444" d="M86.382 100L102.316 100"/><path stroke-width="1.4" fill="none" stroke="#444" d="M86.382 110L102.316 110"/><g class="vf-notehead" id="vf-auto15218" pointer-events="bounding-box"><path stroke="none" d="M90.977 113.336C93.349 113.336,96.259 111.149,96.259 108.888C96.259 107.517,95.184 106.664,93.664 106.664C90.736 106.664,88.382 108.832,88.382 111.112C88.382 112.502,89.531 113.336,90.977 113.336"/></g></g><g class="vf-stavenote" id="vf-auto15219"><path stroke-width="1.4" fill="none" stroke="#444" d="M98.259 100L114.193 100"/><path stroke-width="1.4" fill="none" stroke="#444" d="M98.259 110L114.193 110"/><g class="vf-notehead" id="vf-auto15225" pointer-events="bounding-box"><path stroke="none" d="M102.853 113.336C105.225 113.336,108.135 111.149,108.135 108.888C108.135 107.517,107.06 106.664,105.54 106.664C102.612 106.664,100.259 108.832,100.259 111.112C100.259 112.502,101.408 113.336,102.853 113.336"/></g></g><g class="vf-stavenote" id="vf-auto15226"><path stroke-width="1.4" fill="none" stroke="#444" d="M110.135 100L126.069 100"/><path stroke-width="1.4" fill="none" stroke="#444" d="M110.135 110L126.069 110"/><g class="vf-notehead" id="vf-auto15232" pointer-events="bounding-box"><path stroke="none" d="M114.73 113.336C117.102 113.336,120.012 111.149,120.012 108.888C120.012 107.517,118.937 106.664,117.417 106.664C114.489 106.664,112.135 108.832,112.135 111.112C112.135 112.502,113.284 113.336,114.73 113.336"/></g></g><g class="vf-stavenote" id="vf-auto15233"><path stroke-width="1.4" fill="none" stroke="#444" d="M122.012 100L137.946 100"/><path stroke-width="1.4" fill="none" stroke="#444" d="M122.012 110L137.946 110"/><g class="vf-notehead" id="vf-auto15239" pointer-events="bounding-box"><path stroke="none" d="M126.606 113.336C128.978 113.336,131.888 111.149,131.888 108.888C131.888 107.517,130.813 106.664,129.293 106.664C126.365 106.664,124.012 108.832,124.012 111.112C124.012 112.502,125.161 113.336,126.606 113.336"/></g></g><g class="vf-stavenote" id="vf-auto15240"><path stroke-width="1.4" fill="none" stroke="#444" d="M133.888 100L149.822 100"/><path stroke-width="1.4" fill="none" stroke="#444" d="M133.888 110L149.822 110"/><g class="vf-notehead" id="vf-auto15246" pointer-events="bounding-box"><path stroke="none" d="M138.483 113.336C140.855 113.336,143.764 111.149,143.764 108.888C143.764 107.517,142.689 106.664,141.17 106.664C138.242 106.664,135.888 108.832,135.888 111.112C135.888 112.502,137.037 113.336,138.483 113.336"/></g></g><g class="vf-stem" id="vf-auto15178" pointer-events="bounding-box"><path stroke-width="1.5" fill="none" d="M36.126 108L36.126 84.35"/></g><g class="vf-stem" id="vf-auto15185" pointer-events="bounding-box"><path stroke-width="1.5" fill="none" d="M48.003 108L48.003 84.35"/></g><g class="vf-beam" id="vf-auto15249"><path stroke="none" d="M35.376 83.6L35.376 86.6L48.253 86.6L48.253 83.6Z"/></g><g class="vf-stem" id="vf-auto15192" pointer-events="bounding-box"><path stroke-width="1.5" fill="none" d="M59.879 108L59.879 84.35"/></g><g class="vf-stem" id="vf-auto15199" pointer-events="bounding-box"><path stroke-width="1.5" fill="none" d="M71.756 108L71.756 84.35"/></g><g class="vf-beam" id="vf-auto15250"><path stroke="none" d="M59.129 83.6L59.129 86.6L72.006 86.6L72.006 83.6Z"/><path stroke="none" d="M59.129 88.1L59.129 91.1L72.006 91.1L72.006 88.1Z"/></g><g class="vf-stem" id="vf-auto15206" pointer-events="bounding-box"><path stroke-width="1.5" fill="none" d="M83.632 108L83.632 79.4"/></g><g class="vf-stem" id="vf-auto15213" pointer-events="bounding-box"><path stroke-width="1.5" fill="none" d="M95.509 108L95.509 79.4"/></g><g class="vf-beam" id="vf-auto15251"><path stroke="none" d="M82.882 78.65L82.882 81.65L95.759 81.65L95.759 78.65Z"/><path stroke="none" d="M82.882 83.15L82.882 86.15L95.759 86.15L95.759 83.15Z"/><path stroke="none" d="M82.882 87.65L82.882 90.65L95.759 90.65L95.759 87.65Z"/></g><g class="vf-stem" id="vf-auto15220" pointer-events="bounding-box"><path stroke-width="1.5" fill="none" d="M107.385 108L107.385 74.45"/></g><g class="vf-stem" id="vf-auto15227" pointer-events="bounding-box"><path stroke-width="1.5" fill="none" d="M119.262 108L119.262 74.45"/></g><g class="vf-beam" id="vf-auto15252"><path stroke="none" d="M106.635 73.7L106.635 76.7L119.512 76.7L119.512 73.7Z"/><path stroke="none" d="M106.635 78.2L106.635 81.2L119.512 81.2L119.512 78.2Z"/><path stroke="none" d="M106.635 82.7L106.635 85.7L119.512 85.7L119.512 82.7Z"/><path stroke="none" d="M106.635 87.2L106.635 90.2L119.512 90.2L119.512 87.2Z"/></g><g class="vf-stem" id="vf-auto15234" pointer-events="bounding-box"><path stroke-width="1.5" fill="none" d="M131.138 108L131.138 69.5"/></g><g class="vf-stem" id="vf-auto15241" pointer-events="bounding-box"><path stroke-width="1.5" fill="none" d="M143.014 108L143.014 69.5"/></g><g class="vf-beam" id="vf-auto15253"><path stroke="none" d="M130.388 68.75L130.388 71.75L143.264 71.75L143.264 68.75Z"/><path stroke="none" d="M130.388 73.25L130.388 76.25L143.264 76.25L143.264 73.25Z"/><path stroke="none" d="M130.388 77.75L130.388 80.75L143.264 80.75L143.264 77.75Z"/><path stroke="none" d="M130.388 82.25L130.388 85.25L143.264 85.25L143.264 82.25Z"/><path stroke="none" d="M130.388 86.75L130.388 89.75L143.264 89.75L143.264 86.75Z"/></g></g></g><g class="vf-stavenote" id="vf-auto15118"><path stroke-width="1.4" fill="none" stroke="#444" d="M170.283 100L188.217 100"/><path stroke-width="1.4" fill="none" stroke="#444" d="M170.283 110L188.217 110"/><g class="vf-notehead" id="vf-auto15122" pointer-events="bounding-box"><path stroke="none" d="M177.214 115.054C180.809 115.054,185.217 111.741,185.217 108.315C185.217 106.237,183.589 104.946,181.286 104.946C176.849 104.946,173.283 108.231,173.283 111.685C173.283 113.791,175.024 115.054,177.214 115.054"/></g></g><g class="vf-stavenote" id="vf-auto15125"><path stroke-width="1.4" fill="none" stroke="#444" d="M191.802 100L209.736 100"/><path stroke-width="1.4" fill="none" stroke="#444" d="M191.802 110L209.736 110"/><g class="vf-notehead" id="vf-auto15129" pointer-events="bounding-box"><path stroke="none" d="M198.733 115.054C202.328 115.054,206.736 111.741,206.736 108.315C206.736 106.237,205.107 104.946,202.805 104.946C198.368 104.946,194.802 108.231,194.802 111.685C194.802 113.791,196.543 115.054,198.733 115.054"/></g></g><g class="vf-stavenote" id="vf-auto15131"><path stroke-width="1.4" fill="none" stroke="#444" d="M210.35 100L228.284 100"/><path stroke-width="1.4" fill="none" stroke="#444" d="M210.35 110L228.284 110"/><g class="vf-notehead" id="vf-auto15135" pointer-events="bounding-box"><path stroke="none" d="M217.282 115.054C220.876 115.054,225.284 111.741,225.284 108.315C225.284 106.237,223.656 104.946,221.353 104.946C216.916 104.946,213.35 108.231,213.35 111.685C213.35 113.791,215.091 115.054,217.282 115.054"/></g></g><g class="vf-stavenote" id="vf-auto15138"><path stroke-width="1.4" fill="none" stroke="#444" d="M228.899 100L246.833 100"/><path stroke-width="1.4" fill="none" stroke="#444" d="M228.899 110L246.833 110"/><g class="vf-notehead" id="vf-auto15142" pointer-events="bounding-box"><path stroke="none" d="M235.83 115.054C239.424 115.054,243.833 111.741,243.833 108.315C243.833 106.237,242.204 104.946,239.901 104.946C235.465 104.946,231.899 108.231,231.899 111.685C231.899 113.791,233.64 115.054,235.83 115.054"/></g></g><g class="vf-stavenote" id="vf-auto15144"><path stroke-width="1.4" fill="none" stroke="#444" d="M246.932 100L264.866 100"/><path stroke-width="1.4" fill="none" stroke="#444" d="M246.932 110L264.866 110"/><g class="vf-notehead" id="vf-auto15148" pointer-events="bounding-box"><path stroke="none" d="M253.863 115.054C257.458 115.054,261.866 111.741,261.866 108.315C261.866 106.237,260.237 104.946,257.935 104.946C253.498 104.946,249.932 108.231,249.932 111.685C249.932 113.791,251.673 115.054,253.863 115.054"/></g></g><g class="vf-stavenote" id="vf-auto15151"><path stroke-width="1.4" fill="none" stroke="#444" d="M264.966 100L282.9 100"/><path stroke-width="1.4" fill="none" stroke="#444" d="M264.966 110L282.9 110"/><g class="vf-notehead" id="vf-auto15155" pointer-events="bounding-box"><path stroke="none" d="M271.897 115.054C275.491 115.054,279.9 111.741,279.9 108.315C279.9 106.237,278.271 104.946,275.968 104.946C271.532 104.946,267.966 108.231,267.966 111.685C267.966 113.791,269.707 115.054,271.897 115.054"/></g></g><g class="vf-stavenote" id="vf-auto15157"><path stroke-width="1.4" fill="none" stroke="#444" d="M282.999 100L300.933 100"/><path stroke-width="1.4" fill="none" stroke="#444" d="M282.999 110L300.933 110"/><g class="vf-notehead" id="vf-auto15161" pointer-events="bounding-box"><path stroke="none" d="M289.93 115.054C293.525 115.054,297.933 111.741,297.933 108.315C297.933 106.237,296.304 104.946,294.002 104.946C289.565 104.946,285.999 108.231,285.999 111.685C285.999 113.791,287.74 115.054,289.93 115.054"/></g></g><g class="vf-stavenote" id="vf-auto15164"><path stroke-width="1.4" fill="none" stroke="#444" d="M301.033 100L318.967 100"/><path stroke-width="1.4" fill="none" stroke="#444" d="M301.033 110L318.967 110"/><g class="vf-notehead" id="vf-auto15168" pointer-events="bounding-box"><path stroke="none" d="M307.964 115.054C311.558 115.054,315.967 111.741,315.967 108.315C315.967 106.237,314.338 104.946,312.035 104.946C307.599 104.946,304.033 108.231,304.033 111.685C304.033 113.791,305.774 115.054,307.964 115.054"/></g></g><g class="vf-stavenote" id="vf-auto15170"><path stroke-width="1.4" fill="none" stroke="#444" d="M319.066 100L337 100"/><path stroke-width="1.4" fill="none" stroke="#444" d="M319.066 110L337 110"/><g class="vf-notehead" id="vf-auto15174" pointer-events="bounding-box"><path stroke="none" d="M325.997 115.054C329.592 115.054,334 111.741,334 108.315C334 106.237,332.371 104.946,330.069 104.946C325.632 104.946,322.066 108.231,322.066 111.685C322.066 113.791,323.807 115.054,325.997 115.054"/></g></g><g class="vf-stavenote" id="vf-auto15254"><path stroke-width="1.4" fill="none" stroke="#444" d="M457.765 40L475.699 40"/><g class="vf-notehead" id="vf-auto15258" pointer-events="bounding-box"><path stroke="none" d="M464.696 45.054C468.29 45.054,472.699 41.741,472.699 38.315C472.699 36.237,471.07 34.946,468.767 34.946C464.331 34.946,460.765 38.231,460.765 41.685C460.765 43.791,462.505 45.054,464.696 45.054"/><g class="vf-stavenote" id="vf-auto15319"><path stroke-width="1.4" fill="none" stroke="#444" d="M336 40L351.934 40"/><g class="vf-notehead" id="vf-auto15325" pointer-events="bounding-box"><path stroke="none" d="M340.595 43.336C342.967 43.336,345.877 41.149,345.877 38.888C345.877 37.517,344.802 36.664,343.282 36.664C340.354 36.664,338 38.832,338 41.112C338 42.502,339.149 43.336,340.595 43.336"/></g></g><g class="vf-stavenote" id="vf-auto15326"><path stroke-width="1.4" fill="none" stroke="#444" d="M347.877 40L363.811 40"/><g class="vf-notehead" id="vf-auto15332" pointer-events="bounding-box"><path stroke="none" d="M352.471 43.336C354.843 43.336,357.753 41.149,357.753 38.888C357.753 37.517,356.678 36.664,355.158 36.664C352.23 36.664,349.877 38.832,349.877 41.112C349.877 42.502,351.026 43.336,352.471 43.336"/></g></g><g class="vf-stavenote" id="vf-auto15333"><path stroke-width="1.4" fill="none" stroke="#444" d="M359.753 40L375.687 40"/><g class="vf-notehead" id="vf-auto15339" pointer-events="bounding-box"><path stroke="none" d="M364.348 43.336C366.72 43.336,369.629 41.149,369.629 38.888C369.629 37.517,368.555 36.664,367.035 36.664C364.107 36.664,361.753 38.832,361.753 41.112C361.753 42.502,362.902 43.336,364.348 43.336"/></g></g><g class="vf-stavenote" id="vf-auto15340"><path stroke-width="1.4" fill="none" stroke="#444" d="M371.629 40L387.563 40"/><g class="vf-notehead" id="vf-auto15346" pointer-events="bounding-box"><path stroke="none" d="M376.224 43.336C378.596 43.336,381.506 41.149,381.506 38.888C381.506 37.517,380.431 36.664,378.911 36.664C375.983 36.664,373.629 38.832,373.629 41.112C373.629 42.502,374.778 43.336,376.224 43.336"/></g></g><g class="vf-stavenote" id="vf-auto15347"><path stroke-width="1.4" fill="none" stroke="#444" d="M383.506 40L399.44 40"/><g class="vf-notehead" id="vf-auto15353" pointer-events="bounding-box"><path stroke="none" d="M388.1 43.336C390.473 43.336,393.382 41.149,393.382 38.888C393.382 37.517,392.307 36.664,390.788 36.664C387.86 36.664,385.506 38.832,385.506 41.112C385.506 42.502,386.655 43.336,388.1 43.336"/></g></g><g class="vf-stavenote" id="vf-auto15354"><path stroke-width="1.4" fill="none" stroke="#444" d="M395.382 40L411.316 40"/><g class="vf-notehead" id="vf-auto15360" pointer-events="bounding-box"><path stroke="none" d="M399.977 43.336C402.349 43.336,405.259 41.149,405.259 38.888C405.259 37.517,404.184 36.664,402.664 36.664C399.736 36.664,397.382 38.832,397.382 41.112C397.382 42.502,398.531 43.336,399.977 43.336"/></g></g><g class="vf-stavenote" id="vf-auto15361"><path stroke-width="1.4" fill="none" stroke="#444" d="M407.259 40L423.193 40"/><g class="vf-notehead" id="vf-auto15367" pointer-events="bounding-box"><path stroke="none" d="M411.853 43.336C414.226 43.336,417.135 41.149,417.135 38.888C417.135 37.517,416.06 36.664,414.541 36.664C411.612 36.664,409.259 38.832,409.259 41.112C409.259 42.502,410.408 43.336,411.853 43.336"/></g></g><g class="vf-stavenote" id="vf-auto15368"><path stroke-width="1.4" fill="none" stroke="#444" d="M419.135 40L435.069 40"/><g class="vf-notehead" id="vf-auto15374" pointer-events="bounding-box"><path stroke="none" d="M423.73 43.336C426.102 43.336,429.012 41.149,429.012 38.888C429.012 37.517,427.937 36.664,426.417 36.664C423.489 36.664,421.135 38.832,421.135 41.112C421.135 42.502,422.284 43.336,423.73 43.336"/></g></g><g class="vf-stavenote" id="vf-auto15375"><path stroke-width="1.4" fill="none" stroke="#444" d="M431.012 40L446.946 40"/><g class="vf-notehead" id="vf-auto15381" pointer-events="bounding-box"><path stroke="none" d="M435.606 43.336C437.978 43.336,440.888 41.149,440.888 38.888C440.888 37.517,439.813 36.664,438.293 36.664C435.365 36.664,433.012 38.832,433.012 41.112C433.012 42.502,434.161 43.336,435.606 43.336"/></g></g><g class="vf-stavenote" id="vf-auto15382"><path stroke-width="1.4" fill="none" stroke="#444" d="M442.888 40L458.822 40"/><g class="vf-notehead" id="vf-auto15388" pointer-events="bounding-box"><path stroke="none" d="M447.483 43.336C449.855 43.336,452.765 41.149,452.765 38.888C452.765 37.517,451.69 36.664,450.17 36.664C447.242 36.664,444.888 38.832,444.888 41.112C444.888 42.502,446.037 43.336,447.483 43.336"/></g></g><g class="vf-stem" id="vf-auto15320" pointer-events="bounding-box"><path stroke-width="1.5" fill="none" d="M338.75 42L338.75 62.35"/></g><g class="vf-stem" id="vf-auto15327" pointer-events="bounding-box"><path stroke-width="1.5" fill="none" d="M350.627 42L350.627 62.35"/></g><g class="vf-beam" id="vf-auto15391"><path stroke="none" d="M338 63.1L338 60.1L350.877 60.1L350.877 63.1Z"/></g><g class="vf-stem" id="vf-auto15334" pointer-events="bounding-box"><path stroke-width="1.5" fill="none" d="M362.503 42L362.503 62.35"/></g><g class="vf-stem" id="vf-auto15341" pointer-events="bounding-box"><path stroke-width="1.5" fill="none" d="M374.379 42L374.379 62.35"/></g><g class="vf-beam" id="vf-auto15392"><path stroke="none" d="M361.753 63.1L361.753 60.1L374.629 60.1L374.629 63.1Z"/><path stroke="none" d="M361.753 58.6L361.753 55.6L374.629 55.6L374.629 58.6Z"/></g><g class="vf-stem" id="vf-auto15348" pointer-events="bounding-box"><path stroke-width="1.5" fill="none" d="M386.256 42L386.256 67.3"/></g><g class="vf-stem" id="vf-auto15355" pointer-events="bounding-box"><path stroke-width="1.5" fill="none" d="M398.132 42L398.132 67.3"/></g><g class="vf-beam" id="vf-auto15393"><path stroke="none" d="M385.506 68.05L385.506 65.05L398.382 65.05L398.382 68.05Z"/><path stroke="none" d="M385.506 63.55L385.506 60.55L398.382 60.55L398.382 63.55Z"/><path stroke="none" d="M385.506 59.05L385.506 56.05L398.382 56.05L398.382 59.05Z"/></g><g class="vf-stem" id="vf-auto15362" pointer-events="bounding-box"><path stroke-width="1.5" fill="none" d="M410.009 42L410.009 72.25"/></g><g class="vf-stem" id="vf-auto15369" pointer-events="bounding-box"><path stroke-width="1.5" fill="none" d="M421.885 42L421.885 72.25"/></g><g class="vf-beam" id="vf-auto15394"><path stroke="none" d="M409.259 73L409.259 70L422.135 70L422.135 73Z"/><path stroke="none" d="M409.259 68.5L409.259 65.5L422.135 65.5L422.135 68.5Z"/><path stroke="none" d="M409.259 64L409.259 61L422.135 61L422.135 64Z"/><path stroke="none" d="M409.259 59.5L409.259 56.5L422.135 56.5L422.135 59.5Z"/></g><g class="vf-stem" id="vf-auto15376" pointer-events="bounding-box"><path stroke-width="1.5" fill="none" d="M433.762 42L433.762 77.2"/></g><g class="vf-stem" id="vf-auto15383" pointer-events="bounding-box"><path stroke-width="1.5" fill="none" d="M445.638 42L445.638 77.2"/></g><g class="vf-beam" id="vf-auto15395"><path stroke="none" d="M433.012 77.95L433.012 74.95L445.888 74.95L445.888 77.95Z"/><path stroke="none" d="M433.012 73.45L433.012 70.45L445.888 70.45L445.888 73.45Z"/><path stroke="none" d="M433.012 68.95L433.012 65.95L445.888 65.95L445.888 68.95Z"/><path stroke="none" d="M433.012 64.45L433.012 61.45L445.888 61.45L445.888 64.45Z"/><path stroke="none" d="M433.012 59.95L433.012 56.95L445.888 56.95L445.888 59.95Z"/></g></g></g><g class="vf-stavenote" id="vf-auto15260"><path stroke-width="1.4" fill="none" stroke="#444" d="M479.283 40L497.217 40"/><g class="vf-notehead" id="vf-auto15264" pointer-events="bounding-box"><path stroke="none" d="M486.215 45.054C489.809 45.054,494.217 41.741,494.217 38.315C494.217 36.237,492.589 34.946,490.286 34.946C485.85 34.946,482.283 38.231,482.283 41.685C482.283 43.791,484.024 45.054,486.215 45.054"/></g></g><g class="vf-stavenote" id="vf-auto15267"><path stroke-width="1.4" fill="none" stroke="#444" d="M500.802 40L518.736 40"/><g class="vf-notehead" id="vf-auto15271" pointer-events="bounding-box"><path stroke="none" d="M507.733 45.054C511.328 45.054,515.736 41.741,515.736 38.315C515.736 36.237,514.108 34.946,511.805 34.946C507.368 34.946,503.802 38.231,503.802 41.685C503.802 43.791,505.543 45.054,507.733 45.054"/></g></g><g class="vf-stavenote" id="vf-auto15273"><path stroke-width="1.4" fill="none" stroke="#444" d="M519.35 40L537.284 40"/><g class="vf-notehead" id="vf-auto15277" pointer-events="bounding-box"><path stroke="none" d="M526.282 45.054C529.876 45.054,534.284 41.741,534.284 38.315C534.284 36.237,532.656 34.946,530.353 34.946C525.917 34.946,522.35 38.231,522.35 41.685C522.35 43.791,524.091 45.054,526.282 45.054"/></g></g><g class="vf-stavenote" id="vf-auto15280"><path stroke-width="1.4" fill="none" stroke="#444" d="M537.899 40L555.833 40"/><g class="vf-notehead" id="vf-auto15284" pointer-events="bounding-box"><path stroke="none" d="M544.83 45.054C548.424 45.054,552.833 41.741,552.833 38.315C552.833 36.237,551.204 34.946,548.901 34.946C544.465 34.946,540.899 38.231,540.899 41.685C540.899 43.791,542.64 45.054,544.83 45.054"/></g></g><g class="vf-stavenote" id="vf-auto15286"><path stroke-width="1.4" fill="none" stroke="#444" d="M555.932 40L573.866 40"/><g class="vf-notehead" id="vf-auto15290" pointer-events="bounding-box"><path stroke="none" d="M562.863 45.054C566.458 45.054,570.866 41.741,570.866 38.315C570.866 36.237,569.238 34.946,566.935 34.946C562.498 34.946,558.932 38.231,558.932 41.685C558.932 43.791,560.673 45.054,562.863 45.054"/></g></g><g class="vf-stavenote" id="vf-auto15293"><path stroke-width="1.4" fill="none" stroke="#444" d="M573.966 40L591.9 40"/><g class="vf-notehead" id="vf-auto15297" pointer-events="bounding-box"><path stroke="none" d="M580.897 45.054C584.491 45.054,588.9 41.741,588.9 38.315C588.9 36.237,587.271 34.946,584.968 34.946C580.532 34.946,576.966 38.231,576.966 41.685C576.966 43.791,578.707 45.054,580.897 45.054"/></g></g><g class="vf-stavenote" id="vf-auto15299"><path stroke-width="1.4" fill="none" stroke="#444" d="M591.999 40L609.933 40"/><g class="vf-notehead" id="vf-auto15303" pointer-events="bounding-box"><path stroke="none" d="M598.93 45.054C602.525 45.054,606.933 41.741,606.933 38.315C606.933 36.237,605.305 34.946,603.002 34.946C598.565 34.946,594.999 38.231,594.999 41.685C594.999 43.791,596.74 45.054,598.93 45.054"/></g></g><g class="vf-stavenote" id="vf-auto15306"><path stroke-width="1.4" fill="none" stroke="#444" d="M610.033 40L627.967 40"/><g class="vf-notehead" id="vf-auto15310" pointer-events="bounding-box"><path stroke="none" d="M616.964 45.054C620.558 45.054,624.967 41.741,624.967 38.315C624.967 36.237,623.338 34.946,621.036 34.946C616.599 34.946,613.033 38.231,613.033 41.685C613.033 43.791,614.774 45.054,616.964 45.054"/></g></g><g class="vf-stavenote" id="vf-auto15312"><path stroke-width="1.4" fill="none" stroke="#444" d="M628.066 40L646 40"/><g class="vf-notehead" id="vf-auto15316" pointer-events="bounding-box"><path stroke="none" d="M634.997 45.054C638.592 45.054,643 41.741,643 38.315C643 36.237,641.372 34.946,639.069 34.946C634.632 34.946,631.066 38.231,631.066 41.685C631.066 43.791,632.807 45.054,634.997 45.054"/></g></g><g class="vf-stem" id="vf-auto15113" pointer-events="bounding-box"><path stroke-width="1.5" fill="none" d="M162.948 108L162.948 70.75"/></g><g class="vf-stem" id="vf-auto15119" pointer-events="bounding-box"><path stroke-width="1.5" fill="none" d="M184.467 108L184.467 70.75"/></g><g class="vf-beam" id="vf-auto15124"><path stroke="none" d="M162.198 70L162.198 75L184.717 75L184.717 70Z"/></g><g class="vf-stem" id="vf-auto15126" pointer-events="bounding-box"><path stroke-width="1.5" fill="none" d="M205.986 108L205.986 70.75"/></g><g class="vf-stem" id="vf-auto15132" pointer-events="bounding-box"><path stroke-width="1.5" fill="none" d="M224.534 108L224.534 70.75"/></g><g class="vf-beam" id="vf-auto15137"><path stroke="none" d="M205.236 70L205.236 75L224.784 75L224.784 70Z"/><path stroke="none" d="M205.236 77.5L205.236 82.5L224.784 82.5L224.784 77.5Z"/></g><g class="vf-stem" id="vf-auto15139" pointer-events="bounding-box"><path stroke-width="1.5" fill="none" d="M243.083 108L243.083 63.25"/></g><g class="vf-stem" id="vf-auto15145" pointer-events="bounding-box"><path stroke-width="1.5" fill="none" d="M261.116 108L261.116 63.25"/></g><g class="vf-beam" id="vf-auto15150"><path stroke="none" d="M242.333 62.5L242.333 67.5L261.366 67.5L261.366 62.5Z"/><path stroke="none" d="M242.333 70L242.333 75L261.366 75L261.366 70Z"/><path stroke="none" d="M242.333 77.5L242.333 82.5L261.366 82.5L261.366 77.5Z"/></g><g class="vf-stem" id="vf-auto15152" pointer-events="bounding-box"><path stroke-width="1.5" fill="none" d="M279.15 108L279.15 55.75"/></g><g class="vf-stem" id="vf-auto15158" pointer-events="bounding-box"><path stroke-width="1.5" fill="none" d="M297.183 108L297.183 55.75"/></g><g class="vf-beam" id="vf-auto15163"><path stroke="none" d="M278.4 55L278.4 60L297.433 60L297.433 55Z"/><path stroke="none" d="M278.4 62.5L278.4 67.5L297.433 67.5L297.433 62.5Z"/><path stroke="none" d="M278.4 70L278.4 75L297.433 75L297.433 70Z"/><path stroke="none" d="M278.4 77.5L278.4 82.5L297.433 82.5L297.433 77.5Z"/></g><g class="vf-stem" id="vf-auto15165" pointer-events="bounding-box"><path stroke-width="1.5" fill="none" d="M315.217 108L315.217 48.25"/></g><g class="vf-stem" id="vf-auto15171" pointer-events="bounding-box"><path stroke-width="1.5" fill="none" d="M333.25 108L333.25 48.25"/></g><g class="vf-beam" id="vf-auto15176"><path stroke="none" d="M314.467 47.5L314.467 52.5L333.5 52.5L333.5 47.5Z"/><path stroke="none" d="M314.467 55L314.467 60L333.5 60L333.5 55Z"/><path stroke="none" d="M314.467 62.5L314.467 67.5L333.5 67.5L333.5 62.5Z"/><path stroke="none" d="M314.467 70L314.467 75L333.5 75L333.5 70Z"/><path stroke="none" d="M314.467 77.5L314.467 82.5L333.5 82.5L333.5 77.5Z"/></g><g class="vf-stem" id="vf-auto15255" pointer-events="bounding-box"><path stroke-width="1.5" fill="none" d="M461.515 42L461.515 74.25"/></g><g class="vf-stem" id="vf-auto15261" pointer-events="bounding-box"><path stroke-width="1.5" fill="none" d="M483.033 42L483.033 74.25"/></g><g class="vf-beam" id="vf-auto15266"><path stroke="none" d="M460.765 75L460.765 70L483.283 70L483.283 75Z"/></g><g class="vf-stem" id="vf-auto15268" pointer-events="bounding-box"><path stroke-width="1.5" fill="none" d="M504.552 42L504.552 74.25"/></g><g class="vf-stem" id="vf-auto15274" pointer-events="bounding-box"><path stroke-width="1.5" fill="none" d="M523.1 42L523.1 74.25"/></g><g class="vf-beam" id="vf-auto15279"><path stroke="none" d="M503.802 75L503.802 70L523.35 70L523.35 75Z"/><path stroke="none" d="M503.802 67.5L503.802 62.5L523.35 62.5L523.35 67.5Z"/></g><g class="vf-stem" id="vf-auto15281" pointer-events="bounding-box"><path stroke-width="1.5" fill="none" d="M541.649 42L541.649 81.75"/></g><g class="vf-stem" id="vf-auto15287" pointer-events="bounding-box"><path stroke-width="1.5" fill="none" d="M559.682 42L559.682 81.75"/></g><g class="vf-beam" id="vf-auto15292"><path stroke="none" d="M540.899 82.5L540.899 77.5L559.932 77.5L559.932 82.5Z"/><path stroke="none" d="M540.899 75L540.899 70L559.932 70L559.932 75Z"/><path stroke="none" d="M540.899 67.5L540.899 62.5L559.932 62.5L559.932 67.5Z"/></g><g class="vf-stem" id="vf-auto15294" pointer-events="bounding-box"><path stroke-width="1.5" fill="none" d="M577.716 42L577.716 89.25"/></g><g class="vf-stem" id="vf-auto15300" pointer-events="bounding-box"><path stroke-width="1.5" fill="none" d="M595.749 42L595.749 89.25"/></g><g class="vf-beam" id="vf-auto15305"><path stroke="none" d="M576.966 90L576.966 85L595.999 85L595.999 90Z"/><path stroke="none" d="M576.966 82.5L576.966 77.5L595.999 77.5L595.999 82.5Z"/><path stroke="none" d="M576.966 75L576.966 70L595.999 70L595.999 75Z"/><path stroke="none" d="M576.966 67.5L576.966 62.5L595.999 62.5L595.999 67.5Z"/></g><g class="vf-stem" id="vf-auto15307" pointer-events="bounding-box"><path stroke-width="1.5" fill="none" d="M613.783 42L613.783 96.75"/></g><g class="vf-stem" id="vf-auto15313" pointer-events="bounding-box"><path stroke-width="1.5" fill="none" d="M631.816 42L631.816 96.75"/></g><g class="vf-beam" id="vf-auto15318"><path stroke="none" d="M613.033 97.5L613.033 92.5L632.066 92.5L632.066 97.5Z"/><path stroke="none" d="M613.033 90L613.033 85L632.066 85L632.066 90Z"/><path stroke="none" d="M613.033 82.5L613.033 77.5L632.066 77.5L632.066 82.5Z"/><path stroke="none" d="M613.033 75L613.033 70L632.066 70L632.066 75Z"/><path stroke="none" d="M613.033 67.5L613.033 62.5L632.066 62.5L632.066 67.5Z"/></g></svg>