<svg xmlns="http://www.w3.org/2000/svg" stroke-width="0.3" stroke-dasharray="none" fill="black" stroke="black" font-family="Arial, sans-serif" font-size="10pt" font-weight="normal" font-style="normal" width="800" height="150" viewBox="0 0 800 150" style="width: 800px; height: 150px; border: none;"><g class="vf-stave" id="vf-auto16632" stroke-width="1" fill="#999999" stroke="#999999"><path fill="none" d="M10 70L310 70"/><path fill="none" d="M10 80L310 80"/><path fill="none" d="M10 90L310 90"/><path fill="none" d="M10 100L310 100"/><path fill="none" d="M10 110L310 110"/></g><g class="vf-stavebarline" id="vf-auto16633"><rect x="10" y="69.5" width="1" height="41" stroke="none"/></g><g class="vf-stavebarline" id="vf-auto16634"><rect x="310" y="69.5" width="1" height="41" stroke="none"/></g><g class="vf-clef" id="vf-auto16635"><path stroke="none" d="M23.693 121.402C23.87 121.402,24.048 121.377,24.276 121.301C24.707 121.148,25.062 120.92,25.366 120.591C28.382 117.423,29.623 113.596,29.75 109.313C29.75 108.983,29.776 108.451,29.776 108.451C29.776 108.451,30.282 108.147,30.511 108.071C31.727 107.488,32.893 106.829,33.932 105.993C36.72 103.762,38.316 100.747,39.051 97.376C39.204 96.844,39.229 96.286,39.229 95.779C39.229 93.473,37.962 91.8,35.047 91.268C34.312 91.116,33.577 91.04,32.842 91.04C31.017 91.04,29.269 91.521,27.621 92.484C27.419 92.611,27.19 92.763,27.19 92.763L26.253 89.215C26.202 89.038,26.202 88.708,26.202 88.708C26.202 88.708,29.928 82.093,30.434 78.697C30.612 77.709,30.688 76.72,30.688 75.757C30.688 74.972,30.663 74.237,30.536 73.527C30.181 70.891,29.193 68.408,28.534 65.848C28.356 65.088,28.103 64.175,27.216 64.175C26.557 64.175,26.101 64.809,25.695 65.341C23.82 67.926,22.907 70.891,22.73 74.059C22.705 74.566,22.705 75.098,22.705 75.605C22.705 78.545,23.186 81.51,23.566 84.425C23.566 84.653,23.642 84.881,23.693 85.059C22.046 87.39,20.221 89.57,18.65 91.978C17.56 93.701,16.343 95.424,15.583 97.35C15.177 98.288,15 99.403,15 100.493C15 102.749,15.76 105.055,17.078 106.322C17.839 107.057,19.055 107.868,20.246 108.299C21.944 108.907,23.617 109.313,25.391 109.313C25.923 109.313,26.455 109.287,27.013 109.211L27.444 109.135C27.444 109.135,27.469 109.465,27.444 109.642C27.038 111.847,26.506 114.001,25.188 115.826C24.479 116.764,23.82 117.828,22.451 117.93C22.046 117.98,21.868 118.234,21.868 118.563C21.868 118.69,21.894 118.817,21.944 118.944C22.147 119.501,22.4 120.084,22.654 120.642C22.882 121.148,23.237 121.402,23.693 121.402M25.138 82.828C24.859 81.08,24.681 79.356,24.681 77.633C24.681 74.465,25.34 71.373,27.19 68.408C27.621 69.751,27.849 71.119,27.849 72.488C27.849 73.198,27.773 73.933,27.672 74.642C27.19 77.506,26.532 80.269,25.138 82.828M21.387 104.421C20.88 104.396,20.449 104.219,19.967 104.067C19.004 103.737,18.219 103.382,17.965 102.749C17.839 102.47,17.813 102.14,17.813 101.811C17.813 101.406,17.889 100.975,17.965 100.518C17.991 100.316,18.219 99.682,18.295 99.581C19.714 97.046,21.412 94.765,23.211 92.459L24.732 90.457L25.011 91.268C25.29 92.18,25.543 93.625,25.543 93.625C25.543 93.625,24.529 94.943,23.87 95.602C22.046 97.376,21.159 99.606,21.159 102.064C21.159 102.673,21.235 103.306,21.361 103.965C21.387 104.092,21.387 104.219,21.387 104.421M29.269 103.306C28.99 100.924,28.432 99.023,27.925 96.742C27.875 96.463,27.875 96.286,28.001 96.134C28.939 95.957,29.852 95.881,30.815 95.881C31.727 95.881,32.589 95.957,33.501 96.134C34.591 96.362,35.681 96.539,36.542 97.426C36.593 97.503,36.669 97.579,36.745 97.604C35.301 100.518,33.146 102.723,30.08 104.067L29.421 104.32M25.391 105.055C24.124 105.055,22.882 104.726,22.882 104.726C22.882 104.726,22.781 104.219,22.781 103.484C22.781 103.002,22.806 102.419,22.958 101.836C23.313 100.088,24.555 98.846,25.873 97.68C25.974 97.579,26.101 97.503,26.177 97.503C26.303 97.503,26.354 97.655,26.379 97.908C26.709 100.062,27.266 102.166,27.419 104.32C27.444 104.548,27.419 104.878,27.419 104.878C27.419 104.878,26.455 105.131,25.391 105.055"/></g><g class="vf-timesignature" id="vf-auto16636"><path stroke="none" d="M83.068 91.151C83.289 91.215,83.479 91.025,83.59 90.835C83.891 90.454,83.923 89.995,84.002 89.536C84.256 87.366,84.208 85.18,84.287 83.01L84.287 82.788C85.095 82.629,85.84 82.344,86.6 82.012C87.709 81.489,87.899 81.204,87.883 80C87.883 79.43,87.756 79.176,87.471 79.16C87.329 79.16,87.123 79.224,86.869 79.366L86.711 79.43C85.935 79.778,85.143 80.048,84.319 80.206C84.319 79.208,84.271 78.194,84.224 77.196C84.176 76.357,84.161 75.486,84.081 74.646C84.066 74.456,84.081 74.092,83.796 74.092C83.511 74.092,83.321 74.282,83.289 74.614C83.274 75.026,83.147 75.438,83.178 75.85C83.194 77.355,83.242 78.86,83.242 80.348C82.973 80.364,82.703 80.364,82.45 80.348C81.056 80.253,79.694 80.016,78.268 80.048C77.777 80.048,77.27 80.063,76.763 80.143C77.27 79.176,77.682 78.289,78.205 77.418C79.409 75.438,80.707 73.474,81.563 71.256C81.769 70.734,81.927 70.211,81.927 69.672C81.927 69.514,81.895 69.356,81.88 69.181C81.848 69.055,81.848 68.801,81.674 68.801C81.484 68.785,81.262 68.849,81.151 69.023C81.072 69.165,80.993 69.276,80.945 69.419C80.628 70.448,80.058 71.336,79.519 72.238C78.87 73.363,78.11 74.44,77.444 75.549C76.51 77.133,75.734 78.764,74.593 80.206C74.229 80.665,73.896 81.14,73.896 81.711C73.896 81.917,73.944 82.123,74.023 82.328C74.118 82.534,74.229 82.74,74.229 82.946C74.261 83.279,74.324 83.406,74.514 83.421C74.593 83.421,74.736 83.374,74.894 83.279C75.908 82.851,76.922 82.629,77.999 82.629C79.409 82.629,80.834 82.851,82.244 82.946C82.402 82.962,82.561 82.962,82.719 82.994C82.878 82.994,83.036 82.994,83.194 82.946C83.147 84.245,83.131 85.544,83.036 86.843C82.988 87.841,82.878 88.855,82.878 89.9C82.878 90.153,82.878 90.375,82.909 90.613C82.909 90.819,82.878 91.088,83.068 91.151"/><path stroke="none" d="M83.068 111.151C83.289 111.215,83.479 111.025,83.59 110.835C83.891 110.454,83.923 109.995,84.002 109.536C84.256 107.366,84.208 105.18,84.287 103.01L84.287 102.788C85.095 102.629,85.84 102.344,86.6 102.012C87.709 101.489,87.899 101.204,87.883 100C87.883 99.43,87.756 99.176,87.471 99.16C87.329 99.16,87.123 99.224,86.869 99.366L86.711 99.43C85.935 99.778,85.143 100.048,84.319 100.206C84.319 99.208,84.271 98.194,84.224 97.196C84.176 96.357,84.161 95.486,84.081 94.646C84.066 94.456,84.081 94.092,83.796 94.092C83.511 94.092,83.321 94.282,83.289 94.614C83.274 95.026,83.147 95.438,83.178 95.85C83.194 97.355,83.242 98.86,83.242 100.348C82.973 100.364,82.703 100.364,82.45 100.348C81.056 100.253,79.694 100.016,78.268 100.048C77.777 100.048,77.27 100.063,76.763 100.143C77.27 99.176,77.682 98.289,78.205 97.418C79.409 95.438,80.707 93.474,81.563 91.256C81.769 90.734,81.927 90.211,81.927 89.672C81.927 89.514,81.895 89.356,81.88 89.181C81.848 89.055,81.848 88.801,81.674 88.801C81.484 88.785,81.262 88.849,81.151 89.023C81.072 89.165,80.993 89.276,80.945 89.419C80.628 90.448,80.058 91.336,79.519 92.238C78.87 93.363,78.11 94.44,77.444 95.549C76.51 97.133,75.734 98.764,74.593 100.206C74.229 100.665,73.896 101.14,73.896 101.711C73.896 101.917,73.944 102.123,74.023 102.328C74.118 102.534,74.229 102.74,74.229 102.946C74.261 103.279,74.324 103.406,74.514 103.421C74.593 103.421,74.736 103.374,74.894 103.279C75.908 102.851,76.922 102.629,77.999 102.629C79.409 102.629,80.834 102.851,82.244 102.946C82.402 102.962,82.561 102.962,82.719 102.994C82.878 102.994,83.036 102.994,83.194 102.946C83.147 104.245,83.131 105.544,83.036 106.843C82.988 107.841,82.878 108.855,82.878 109.9C82.878 110.153,82.878 110.375,82.909 110.613C82.909 110.819,82.878 111.088,83.068 111.151"/></g><g class="vf-keysignature" id="vf-auto16640"><path stroke="none" d="M50.022 98.208C50.132 98.208,50.296 98.126,50.487 97.907C51.007 97.497,51.582 97.059,52.156 96.648C55.604 94.186,57.464 90.821,57.464 86.525C57.464 85.978,57.464 85.458,57.382 84.911C57.191 82.996,56.096 81.874,54.427 81.874C54.072 81.874,53.689 81.956,53.251 82.093C52.704 82.23,52.156 82.503,51.582 82.75L51.554 82.777L51.554 81.765C51.554 80.26,51.637 78.782,51.719 77.278C51.719 76.402,51.801 75.581,51.801 74.706C51.801 73.885,51.719 73.009,51.527 72.189C51.445 71.915,51.445 71.395,51.035 71.395L51.007 71.395C50.57 71.45,50.241 71.806,50.241 72.353C50.214 73.447,50.104 74.596,50.132 75.691L50.132 76.922C50.132 79.248,50.022 81.573,49.94 83.899C49.831 87.237,49.256 90.52,49.256 93.858C49.256 95.171,49.338 96.539,49.694 97.852C49.776 98.071,49.858 98.208,50.022 98.208M51.089 92.873C51.171 91.86,51.199 90.793,51.308 89.672C51.39 88.824,51.445 87.948,51.445 87.072L51.582 87.018C52.348 86.689,53.087 86.306,53.907 86.306C54.181 86.306,54.509 86.388,54.81 86.498C55.467 86.717,55.768 87.045,55.741 87.483C55.741 87.702,55.686 87.948,55.522 88.276C54.509 90.274,52.84 91.614,51.089 92.873"/></g><g class="vf-stavenote" id="vf-auto16642"><g class="vf-notehead" id="vf-auto16646" pointer-events="bounding-box"><path stroke-width="1.5" stroke="none" d="M107.151 100L107.151 91L122.151 80L122.151 90L107.151 100Z"/><g class="vf-annotation" id="vf-auto16654"><text stroke="none" font-family="Times" font-size="12pt" x="104.424" y="60">C7</text></g></g></g><g class="vf-stavenote" id="vf-auto16648"><g class="vf-notehead" id="vf-auto16652" pointer-events="bounding-box"><path stroke-width="1.5" stroke="none" d="M128.507 100L128.507 91L143.507 80L143.507 90L128.507 100Z"/></g></g><g class="vf-stavenote" id="vf-auto16655"><g class="vf-notehead" id="vf-auto16658" pointer-events="bounding-box"><path stroke="none" d="M154.468 100.502C155.198 100.474,155.564 100.025,155.816 99.547C156.546 98.199,157.108 96.795,157.613 95.335C159.214 91.011,159.944 86.406,161.376 81.997C161.46 81.744,161.545 81.464,161.545 81.183L161.545 80.986C161.516 80.425,161.376 80.06,160.899 80.06C160.786 80.06,160.702 80.06,160.59 80.088C159.607 80.256,158.708 80.649,158.063 81.267C157.052 82.25,155.929 82.952,154.749 83.682C154.581 83.766,154.44 83.85,154.272 83.85C154.103 83.85,153.935 83.766,153.794 83.598C153.626 83.457,153.542 83.261,153.542 83.092C153.542 82.924,153.57 82.812,153.654 82.643C153.823 82.362,153.991 81.997,153.991 81.632C153.991 80.93,154.188 80.06,153.429 79.695C153.064 79.526,152.727 79.442,152.503 79.442C151.969 79.442,151.632 79.807,151.211 80.565C150.425 81.913,150.2 83.401,149.948 84.918C149.891 85.226,149.863 85.507,149.863 85.788C149.863 87.641,150.846 89.326,152.924 89.326C153.429 89.326,154.019 89.242,154.665 88.989C155.844 88.54,156.827 87.894,157.978 87.164C157.052 91.741,155.283 95.981,154.468 100.502"/></g></g><g class="vf-stavenote" id="vf-auto16659"><g class="vf-stem" id="vf-auto16660" pointer-events="bounding-box"><path stroke-width="1.5" fill="none" d="M171.969 90L171.969 122"/></g><g class="vf-notehead" id="vf-auto16663" pointer-events="bounding-box"><path stroke-width="1.5" stroke="none" d="M171.219 100L171.219 91L186.219 80L186.219 90L171.219 100Z"/></g><path stroke="none" d="M178.641 94.118C178.472 93.978,178.36 93.894,178.247 93.894C178.107 93.894,177.995 94.034,177.939 94.371C177.911 94.905,177.714 95.41,177.658 95.944C177.63 96.309,177.602 96.674,177.602 97.011C177.602 97.656,177.742 98.246,178.388 98.78C179.118 99.369,179.539 100.324,179.932 101.194C180.045 101.447,180.101 101.728,180.101 102.009C180.101 102.542,179.904 103.104,179.848 103.666C179.567 106.754,178.107 109.338,176.17 111.64C175.411 112.567,174.681 113.578,173.895 114.504C172.014 117.004,171.199 119.84,171.199 122.956L171.199 125.231C171.199 125.989,171.368 126.635,172.182 127L172.379 127C172.66 126.326,172.94 125.624,172.94 124.894C172.94 124.445,172.856 124.08,172.856 123.715C172.884 121.861,173.755 120.289,174.878 118.829C175.861 117.621,176.787 116.358,177.742 115.15C179.932 112.398,181.027 109.253,181.505 105.8C181.673 104.761,181.757 103.722,181.757 102.655C181.757 101.082,181.561 99.51,181.055 97.937C180.634 96.477,179.651 95.27,178.641 94.118"/></g><g class="vf-stavenote" id="vf-auto16665"><g class="vf-notehead" id="vf-auto16668" pointer-events="bounding-box"><path stroke="none" d="M197.181 100.502C197.911 100.474,198.276 100.025,198.528 99.547C199.259 98.199,199.82 96.795,200.326 95.335C201.926 91.011,202.656 86.406,204.088 81.997C204.173 81.744,204.257 81.464,204.257 81.183L204.257 80.986C204.229 80.425,204.088 80.06,203.611 80.06C203.499 80.06,203.414 80.06,203.302 80.088C202.319 80.256,201.421 80.649,200.775 81.267C199.764 82.25,198.641 82.952,197.461 83.682C197.293 83.766,197.153 83.85,196.984 83.85C196.816 83.85,196.647 83.766,196.507 83.598C196.338 83.457,196.254 83.261,196.254 83.092C196.254 82.924,196.282 82.812,196.366 82.643C196.535 82.362,196.703 81.997,196.703 81.632C196.703 80.93,196.9 80.06,196.142 79.695C195.777 79.526,195.44 79.442,195.215 79.442C194.682 79.442,194.345 79.807,193.923 80.565C193.137 81.913,192.912 83.401,192.66 84.918C192.604 85.226,192.576 85.507,192.576 85.788C192.576 87.641,193.558 89.326,195.636 89.326C196.142 89.326,196.731 89.242,197.377 88.989C198.557 88.54,199.539 87.894,200.691 87.164C199.764 91.741,197.995 95.981,197.181 100.502"/></g></g><g class="vf-stavenote" id="vf-auto16669"><g class="vf-stem" id="vf-auto16670" pointer-events="bounding-box"><path stroke-width="1.5" fill="none" d="M214.682 90L214.682 122"/></g><g class="vf-notehead" id="vf-auto16673" pointer-events="bounding-box"><path stroke-width="1.5" stroke="none" d="M213.932 100L213.932 91L228.932 80L228.932 90L213.932 100Z"/></g><path stroke="none" d="M221.353 94.118C221.184 93.978,221.072 93.894,220.96 93.894C220.819 93.894,220.707 94.034,220.651 94.371C220.623 94.905,220.426 95.41,220.37 95.944C220.342 96.309,220.314 96.674,220.314 97.011C220.314 97.656,220.454 98.246,221.1 98.78C221.83 99.369,222.251 100.324,222.645 101.194C222.757 101.447,222.813 101.728,222.813 102.009C222.813 102.542,222.616 103.104,222.56 103.666C222.279 106.754,220.819 109.338,218.882 111.64C218.124 112.567,217.394 113.578,216.607 114.504C214.726 117.004,213.912 119.84,213.912 122.956L213.912 125.231C213.912 125.989,214.08 126.635,214.894 127L215.091 127C215.372 126.326,215.653 125.624,215.653 124.894C215.653 124.445,215.568 124.08,215.568 123.715C215.596 121.861,216.467 120.289,217.59 118.829C218.573 117.621,219.5 116.358,220.454 115.15C222.645 112.398,223.74 109.253,224.217 105.8C224.385 104.761,224.47 103.722,224.47 102.655C224.47 101.082,224.273 99.51,223.768 97.937C223.347 96.477,222.364 95.27,221.353 94.118"/></g><g class="vf-stavenote" id="vf-auto16675"><g class="vf-notehead" id="vf-auto16678" pointer-events="bounding-box"><path stroke="none" d="M239.893 100.502C240.623 100.474,240.988 100.025,241.241 99.547C241.971 98.199,242.532 96.795,243.038 95.335C244.638 91.011,245.368 86.406,246.801 81.997C246.885 81.744,246.969 81.464,246.969 81.183L246.969 80.986C246.941 80.425,246.801 80.06,246.323 80.06C246.211 80.06,246.127 80.06,246.014 80.088C245.032 80.256,244.133 80.649,243.487 81.267C242.476 82.25,241.353 82.952,240.174 83.682C240.005 83.766,239.865 83.85,239.696 83.85C239.528 83.85,239.359 83.766,239.219 83.598C239.05 83.457,238.966 83.261,238.966 83.092C238.966 82.924,238.994 82.812,239.079 82.643C239.247 82.362,239.416 81.997,239.416 81.632C239.416 80.93,239.612 80.06,238.854 79.695C238.489 79.526,238.152 79.442,237.927 79.442C237.394 79.442,237.057 79.807,236.636 80.565C235.849 81.913,235.625 83.401,235.372 84.918C235.316 85.226,235.288 85.507,235.288 85.788C235.288 87.641,236.271 89.326,238.348 89.326C238.854 89.326,239.444 89.242,240.089 88.989C241.269 88.54,242.252 87.894,243.403 87.164C242.476 91.741,240.707 95.981,239.893 100.502"/></g></g><g class="vf-stavenote" id="vf-auto16679"><g class="vf-stem" id="vf-auto16680" pointer-events="bounding-box"><path stroke-width="1.5" fill="none" d="M257.394 90L257.394 122"/></g><g class="vf-notehead" id="vf-auto16683" pointer-events="bounding-box"><path stroke-width="1.5" stroke="none" d="M256.644 100L256.644 91L271.644 80L271.644 90L256.644 100Z"/></g><path stroke="none" d="M264.065 94.118C263.897 93.978,263.784 93.894,263.672 93.894C263.532 93.894,263.419 94.034,263.363 94.371C263.335 94.905,263.138 95.41,263.082 95.944C263.054 96.309,263.026 96.674,263.026 97.011C263.026 97.656,263.167 98.246,263.812 98.78C264.542 99.369,264.964 100.324,265.357 101.194C265.469 101.447,265.525 101.728,265.525 102.009C265.525 102.542,265.329 103.104,265.273 103.666C264.992 106.754,263.532 109.338,261.594 111.64C260.836 112.567,260.106 113.578,259.32 114.504C257.438 117.004,256.624 119.84,256.624 122.956L256.624 125.231C256.624 125.989,256.792 126.635,257.607 127L257.803 127C258.084 126.326,258.365 125.624,258.365 124.894C258.365 124.445,258.281 124.08,258.281 123.715C258.309 121.861,259.179 120.289,260.302 118.829C261.285 117.621,262.212 116.358,263.167 115.15C265.357 112.398,266.452 109.253,266.929 105.8C267.098 104.761,267.182 103.722,267.182 102.655C267.182 101.082,266.985 99.51,266.48 97.937C266.059 96.477,265.076 95.27,264.065 94.118"/></g><g class="vf-stem" id="vf-auto16643" pointer-events="bounding-box"><path stroke-width="1.5" fill="none" d="M107.901 90L107.901 124.25"/></g><g class="vf-stem" id="vf-auto16649" pointer-events="bounding-box"><path stroke-width="1.5" fill="none" d="M129.257 90L129.257 124.25"/></g><g class="vf-beam" id="vf-auto16685"><path stroke="none" d="M107.151 125L107.151 120L129.507 120L129.507 125Z"/></g><g class="vf-stave" id="vf-auto16687" stroke-width="1" fill="#999999" stroke="#999999"><path fill="none" d="M310 70L530 70"/><path fill="none" d="M310 80L530 80"/><path fill="none" d="M310 90L530 90"/><path fill="none" d="M310 100L530 100"/><path fill="none" d="M310 110L530 110"/></g><g class="vf-stavebarline" id="vf-auto16688"><rect x="310" y="69.5" width="1" height="41" stroke="none"/></g><g class="vf-stavebarline" id="vf-auto16689"><rect x="530" y="69.5" width="1" height="41" stroke="none"/></g><g class="vf-stavenote" id="vf-auto16690"><g class="vf-notehead" id="vf-auto16693" pointer-events="bounding-box"><path stroke-width="1.5" fill="none" d="M330.75 100L330.75 91L345.75 80L345.75 90L330.75 100Z"/><g class="vf-annotation" id="vf-auto16694"><text stroke="none" font-family="Times" font-size="12pt" x="332.613" y="60">F</text></g></g></g></svg>