<svg xmlns="http://www.w3.org/2000/svg" stroke-width="0.3" stroke-dasharray="none" fill="black" stroke="black" font-family="Arial, sans-serif" font-size="10pt" font-weight="normal" font-style="normal" width="300" height="400" viewBox="0 0 300 400" style="width: 300px; height: 400px; border: none;"><g class="vf-stave" id="vf-auto24918" stroke-width="1" fill="#999999" stroke="#999999"><path fill="none" d="M50 50L300 50"/><path fill="none" d="M50 60L300 60"/><path fill="none" d="M50 70L300 70"/><path fill="none" d="M50 80L300 80"/><path fill="none" d="M50 90L300 90"/></g><g class="vf-stavebarline" id="vf-auto24919"/><g class="vf-stavebarline" id="vf-auto24920"><rect x="300" y="49.5" width="1" height="41" stroke="none"/></g><g class="vf-stave" id="vf-auto24921" stroke-width="1" fill="#999999" stroke="#999999"><path fill="none" d="M50 185L300 185"/><path fill="none" d="M50 195L300 195"/><path fill="none" d="M50 205L300 205"/><path fill="none" d="M50 215L300 215"/><path fill="none" d="M50 225L300 225"/></g><g class="vf-stavebarline" id="vf-auto24922"/><g class="vf-stavebarline" id="vf-auto24923"><rect x="300" y="184.5" width="1" height="41" stroke="none"/></g><g class="vf-stave" id="vf-auto24924" stroke-width="1" fill="#999999" stroke="#999999"><path fill="none" d="M50 320L300 320"/><path fill="none" d="M50 330L300 330"/><path fill="none" d="M50 340L300 340"/><path fill="none" d="M50 350L300 350"/><path fill="none" d="M50 360L300 360"/></g><g class="vf-stavebarline" id="vf-auto24925"/><g class="vf-stavebarline" id="vf-auto24926"><rect x="300" y="319.5" width="1" height="41" stroke="none"/></g><g class="vf-glyphNote" id="vf-auto24904"><path stroke="none" d="M72.27 84.816C72.27 83.376,71.061 82.195,69.65 82.195C68.21 82.195,67.029 83.376,67.029 84.816C67.029 86.256,68.21 87.437,69.65 87.437C71.061 87.437,72.27 86.256,72.27 84.816M86.958 79.632L81.717 79.632L67 100.368L72.213 100.368M86.958 95.213C86.958 93.773,85.749 92.621,84.338 92.621C82.898 92.621,81.717 93.773,81.717 95.213C81.717 96.682,82.898 97.834,84.338 97.834C85.749 97.834,86.958 96.682,86.958 95.213"/></g><g class="vf-glyphNote" id="vf-auto24906"><path stroke="none" d="M194.756 210.213C194.756 208.773,193.575 207.621,192.164 207.621C190.695 207.621,189.543 208.773,189.543 210.213C189.543 211.682,190.695 212.834,192.164 212.834C193.575 212.834,194.756 211.682,194.756 210.213M169.556 199.816C169.556 198.376,168.346 197.195,166.935 197.195C165.495 197.195,164.314 198.376,164.314 199.816C164.314 201.256,165.495 202.437,166.935 202.437C168.346 202.437,169.556 201.256,169.556 199.816M184.244 194.632L179.002 194.632L164.286 215.368L169.498 215.368M194.756 194.632L189.543 194.632L174.826 215.368L180.039 215.368"/></g><g class="vf-glyphNote" id="vf-auto24908"><path stroke="none" d="M86.958 329.632L81.717 329.632L67 350.368L72.213 350.368"/></g><g class="vf-glyphNote" id="vf-auto24910"><path stroke="none" d="M152.458 329.632L147.217 329.632L132.5 350.368L137.713 350.368"/></g><g class="vf-glyphNote" id="vf-auto24912"><path stroke="none" d="M203.27 334.816C203.27 333.376,202.061 332.195,200.65 332.195C199.21 332.195,198.029 333.376,198.029 334.816C198.029 336.256,199.21 337.437,200.65 337.437C202.061 337.437,203.27 336.256,203.27 334.816M217.958 329.632L212.717 329.632L198 350.368L203.213 350.368M228.47 329.632L223.258 329.632L208.541 350.368L213.754 350.368M239.011 329.632L233.798 329.632L219.082 350.368L224.294 350.368M249.552 329.632L244.31 329.632L229.594 350.368L234.835 350.368M249.552 345.213C249.552 343.773,248.342 342.621,246.931 342.621C245.491 342.621,244.31 343.773,244.31 345.213C244.31 346.682,245.491 347.834,246.931 347.834C248.342 347.834,249.552 346.682,249.552 345.213"/></g><g class="vf-glyphNote" id="vf-auto24914"><path stroke="none" d="M283.458 329.632L278.217 329.632L263.5 350.368L268.713 350.368"/></g><path stroke="none" d="M65.074 32.509C64.987 32.48,64.872 32.422,64.786 32.422C64.613 32.422,64.411 32.48,64.325 32.624C64.238 32.768,60.091 39.162,52.171 39.162L45.576 39.162C45.259 39.162,45 39.363,45 39.68L45 43.424L45 44L50.069 44C62.827 44,65.275 33.344,65.333 33.229C65.333 33.171,65.362 33.085,65.362 32.998C65.362 32.797,65.246 32.624,65.074 32.509"/><path stroke="none" d="M65.074 378.491C65.246 378.376,65.362 378.203,65.362 378.002C65.362 377.915,65.333 377.829,65.333 377.771C65.275 377.656,62.827 367,50.069 367L45 367L45 367.576L45 371.32C45 371.637,45.259 371.838,45.576 371.838L52.171 371.838C60.091 371.838,64.238 378.232,64.325 378.376C64.411 378.52,64.613 378.578,64.786 378.578C64.872 378.578,64.987 378.52,65.074 378.491"/><rect x="45" y="44" width="3" height="323" stroke="none"/><rect x="97.47" y="10" width="35.03" height="405" fill="rgba(100,200,100,0.4)" stroke="none"/><text stroke-width="1" fill="green" stroke="none" font-size="8pt" x="97.47" y="427">35</text><rect x="152.458" y="10" width="45.542" height="405" fill="rgba(100,200,100,0.4)" stroke="none"/><text stroke-width="1" fill="green" stroke="none" font-size="8pt" x="152.458" y="427">46</text><rect x="249.552" y="10" width="13.948" height="405" fill="rgba(100,200,100,0.4)" stroke="none"/><text stroke-width="1" fill="green" stroke="none" font-size="8pt" x="249.552" y="427">14</text><text stroke-width="1" fill="red" stroke="none" font-size="8pt" x="47" y="442">Loss: 17.00 Shift: 0.00 Gap: 94.52</text><text stroke="none" font-size="8pt" x="67" y="130">20px</text><path stroke-width="3" fill="none" stroke="red" d="M67 137L67 137"/><path stroke-width="3" fill="none" stroke="#999" d="M67 137L67 137"/><path stroke-width="3" fill="none" stroke="green" d="M67 137L86.958 137"/><path stroke-width="3" fill="none" stroke="#999" d="M86.958 137L86.958 137"/><path stroke-width="3" fill="none" stroke="red" d="M86.958 137L86.958 137"/><path stroke-width="3" fill="none" stroke="#DD0" d="M86.958 137L312 137"/><path stroke-width="3" fill="none" stroke="#BBB" d="M67 137L67 137"/><path stroke-width="3" fill="blue" stroke="none" d="M70 137 A3 3 0 0 0 64 137 A3 3 0 0 0 70 137Z"/><text stroke-width="3" fill="red" stroke="none" font-size="8pt" x="67" y="120">+0</text><text stroke="none" font-size="8pt" x="179.521" y="265">30px</text><path stroke-width="3" fill="none" stroke="red" d="M179.521 272L179.521 272"/><path stroke-width="3" fill="none" stroke="#999" d="M179.521 272L179.521 272"/><path stroke-width="3" fill="none" stroke="green" d="M179.521 272L209.991 272"/><path stroke-width="3" fill="none" stroke="#999" d="M209.991 272L209.991 272"/><path stroke-width="3" fill="none" stroke="red" d="M209.991 272L209.991 272"/><path stroke-width="3" fill="none" stroke="#DD0" d="M209.991 272L424.521 272"/><path stroke-width="3" fill="none" stroke="#BBB" d="M179.521 272L179.521 272"/><path stroke-width="3" fill="blue" stroke="none" d="M182.521 272 A3 3 0 0 0 176.521 272 A3 3 0 0 0 182.521 272Z"/><text stroke-width="3" fill="red" stroke="none" font-size="8pt" x="179.521" y="255">+0</text><text stroke="none" font-size="8pt" x="67" y="400">20px</text><path stroke-width="3" fill="none" stroke="red" d="M67 407L67 407"/><path stroke-width="3" fill="none" stroke="#999" d="M67 407L67 407"/><path stroke-width="3" fill="none" stroke="green" d="M67 407L86.958 407"/><path stroke-width="3" fill="none" stroke="#999" d="M86.958 407L86.958 407"/><path stroke-width="3" fill="none" stroke="red" d="M86.958 407L86.958 407"/><path stroke-width="3" fill="none" stroke="#DD0" d="M86.958 407L132.5 407"/><path stroke-width="3" fill="none" stroke="#BBB" d="M67 407L67 407"/><path stroke-width="3" fill="blue" stroke="none" d="M70 407 A3 3 0 0 0 64 407 A3 3 0 0 0 70 407Z"/><text stroke-width="3" fill="red" stroke="none" font-size="8pt" x="67" y="390">+9</text><text stroke="none" font-size="8pt" x="132.5" y="400">20px</text><path stroke-width="3" fill="none" stroke="red" d="M132.5 407L132.5 407"/><path stroke-width="3" fill="none" stroke="#999" d="M132.5 407L132.5 407"/><path stroke-width="3" fill="none" stroke="green" d="M132.5 407L152.458 407"/><path stroke-width="3" fill="none" stroke="#999" d="M152.458 407L152.458 407"/><path stroke-width="3" fill="none" stroke="red" d="M152.458 407L152.458 407"/><path stroke-width="3" fill="none" stroke="#DD0" d="M152.458 407L198 407"/><path stroke-width="3" fill="none" stroke="#BBB" d="M132.5 407L132.5 407"/><path stroke-width="3" fill="blue" stroke="none" d="M135.5 407 A3 3 0 0 0 129.5 407 A3 3 0 0 0 135.5 407Z"/><text stroke-width="3" fill="red" stroke="none" font-size="8pt" x="132.5" y="390">+9</text><text stroke="none" font-size="8pt" x="198" y="400">52px</text><path stroke-width="3" fill="none" stroke="red" d="M198 407L198 407"/><path stroke-width="3" fill="none" stroke="#999" d="M198 407L198 407"/><path stroke-width="3" fill="none" stroke="green" d="M198 407L249.552 407"/><path stroke-width="3" fill="none" stroke="#999" d="M249.552 407L249.552 407"/><path stroke-width="3" fill="none" stroke="red" d="M249.552 407L249.552 407"/><path stroke-width="3" fill="none" stroke="#DD0" d="M249.552 407L263.5 407"/><path stroke-width="3" fill="none" stroke="#BBB" d="M198 407L198 407"/><path stroke-width="3" fill="blue" stroke="none" d="M201 407 A3 3 0 0 0 195 407 A3 3 0 0 0 201 407Z"/><text stroke-width="3" fill="red" stroke="none" font-size="8pt" x="198" y="390">+9</text><text stroke="none" font-size="8pt" x="263.5" y="400">20px</text><path stroke-width="3" fill="none" stroke="red" d="M263.5 407L263.5 407"/><path stroke-width="3" fill="none" stroke="#999" d="M263.5 407L263.5 407"/><path stroke-width="3" fill="none" stroke="green" d="M263.5 407L283.458 407"/><path stroke-width="3" fill="none" stroke="#999" d="M283.458 407L283.458 407"/><path stroke-width="3" fill="none" stroke="red" d="M283.458 407L283.458 407"/><path stroke-width="3" fill="none" stroke="#DD0" d="M283.458 407L312 407"/><path stroke-width="3" fill="none" stroke="#BBB" d="M263.5 407L263.5 407"/><path stroke-width="3" fill="blue" stroke="none" d="M266.5 407 A3 3 0 0 0 260.5 407 A3 3 0 0 0 266.5 407Z"/><text stroke-width="3" fill="red" stroke="none" font-size="8pt" x="263.5" y="390">-8</text></svg>