<svg xmlns="http://www.w3.org/2000/svg" stroke-width="0.3" stroke-dasharray="none" fill="black" stroke="black" font-family="Arial, sans-serif" font-size="10pt" font-weight="normal" font-style="normal" width="900" height="260" viewBox="0 0 600 173.33333333333334" style="width: 900px; height: 260px; border: none;"><g class="vf-stave" id="vf-auto25214" stroke-width="1" fill="#999999" stroke="#999999"><path fill="none" d="M10 50L460 50"/><path fill="none" d="M10 60L460 60"/><path fill="none" d="M10 70L460 70"/><path fill="none" d="M10 80L460 80"/><path fill="none" d="M10 90L460 90"/></g><g class="vf-stavebarline" id="vf-auto25215"><rect x="10" y="49.5" width="1" height="41" stroke="none"/></g><g class="vf-stavebarline" id="vf-auto25216"><rect x="460" y="49.5" width="1" height="41" stroke="none"/></g><g class="vf-clef" id="vf-auto25217"><path stroke="none" d="M23.693 101.402C23.87 101.402,24.048 101.377,24.276 101.301C24.707 101.148,25.062 100.92,25.366 100.591C28.382 97.423,29.623 93.596,29.75 89.313C29.75 88.983,29.776 88.451,29.776 88.451C29.776 88.451,30.282 88.147,30.511 88.071C31.727 87.488,32.893 86.829,33.932 85.993C36.72 83.762,38.316 80.747,39.051 77.376C39.204 76.844,39.229 76.286,39.229 75.779C39.229 73.473,37.962 71.8,35.047 71.268C34.312 71.116,33.577 71.04,32.842 71.04C31.017 71.04,29.269 71.521,27.621 72.484C27.419 72.611,27.19 72.763,27.19 72.763L26.253 69.215C26.202 69.038,26.202 68.708,26.202 68.708C26.202 68.708,29.928 62.093,30.434 58.697C30.612 57.709,30.688 56.72,30.688 55.757C30.688 54.972,30.663 54.237,30.536 53.527C30.181 50.891,29.193 48.408,28.534 45.848C28.356 45.088,28.103 44.175,27.216 44.175C26.557 44.175,26.101 44.809,25.695 45.341C23.82 47.926,22.907 50.891,22.73 54.059C22.705 54.566,22.705 55.098,22.705 55.605C22.705 58.545,23.186 61.51,23.566 64.425C23.566 64.653,23.642 64.881,23.693 65.059C22.046 67.39,20.221 69.57,18.65 71.978C17.56 73.701,16.343 75.424,15.583 77.35C15.177 78.288,15 79.403,15 80.493C15 82.749,15.76 85.055,17.078 86.322C17.839 87.057,19.055 87.868,20.246 88.299C21.944 88.907,23.617 89.313,25.391 89.313C25.923 89.313,26.455 89.287,27.013 89.211L27.444 89.135C27.444 89.135,27.469 89.465,27.444 89.642C27.038 91.847,26.506 94.001,25.188 95.826C24.479 96.764,23.82 97.828,22.451 97.93C22.046 97.98,21.868 98.234,21.868 98.563C21.868 98.69,21.894 98.817,21.944 98.944C22.147 99.501,22.4 100.084,22.654 100.642C22.882 101.148,23.237 101.402,23.693 101.402M25.138 62.828C24.859 61.08,24.681 59.356,24.681 57.633C24.681 54.465,25.34 51.373,27.19 48.408C27.621 49.751,27.849 51.119,27.849 52.488C27.849 53.198,27.773 53.933,27.672 54.642C27.19 57.506,26.532 60.269,25.138 62.828M21.387 84.421C20.88 84.396,20.449 84.219,19.967 84.067C19.004 83.737,18.219 83.382,17.965 82.749C17.839 82.47,17.813 82.14,17.813 81.811C17.813 81.406,17.889 80.975,17.965 80.518C17.991 80.316,18.219 79.682,18.295 79.581C19.714 77.046,21.412 74.765,23.211 72.459L24.732 70.457L25.011 71.268C25.29 72.18,25.543 73.625,25.543 73.625C25.543 73.625,24.529 74.943,23.87 75.602C22.046 77.376,21.159 79.606,21.159 82.064C21.159 82.673,21.235 83.306,21.361 83.965C21.387 84.092,21.387 84.219,21.387 84.421M29.269 83.306C28.99 80.924,28.432 79.023,27.925 76.742C27.875 76.463,27.875 76.286,28.001 76.134C28.939 75.957,29.852 75.881,30.815 75.881C31.727 75.881,32.589 75.957,33.501 76.134C34.591 76.362,35.681 76.539,36.542 77.426C36.593 77.503,36.669 77.579,36.745 77.604C35.301 80.518,33.146 82.723,30.08 84.067L29.421 84.32M25.391 85.055C24.124 85.055,22.882 84.726,22.882 84.726C22.882 84.726,22.781 84.219,22.781 83.484C22.781 83.002,22.806 82.419,22.958 81.836C23.313 80.088,24.555 78.846,25.873 77.68C25.974 77.579,26.101 77.503,26.177 77.503C26.303 77.503,26.354 77.655,26.379 77.908C26.709 80.062,27.266 82.166,27.419 84.32C27.444 84.548,27.419 84.878,27.419 84.878C27.419 84.878,26.455 85.131,25.391 85.055"/></g><g class="vf-stavenote" id="vf-auto25218"><path stroke-width="1.4" fill="none" stroke="#444" d="M56.665 100L76.173 100"/><g class="vf-stem" id="vf-auto25219" pointer-events="bounding-box"><path stroke-width="1.5" fill="none" d="M72.423 98L72.423 40"/></g><g class="vf-notehead" id="vf-auto25223" pointer-events="bounding-box"><path stroke="none" d="M63.31 106.543C63.591 106.599,63.844 106.627,64.125 106.627C68 106.627,73.784 101.348,73.672 97.08C73.56 96.041,73.588 94.609,71.482 93.766C70.892 93.485,70.246 93.373,69.544 93.373C65.22 93.373,60.53 98.343,60.193 101.657C60.193 101.909,60.165 102.134,60.165 102.387C60.165 104.409,61.064 106.037,63.31 106.543"/><g class="vf-chordsymbol" id="vf-auto25205"><text stroke="none" font-family="PetalumaScript, Arial, sans-serif" font-size="12pt" x="57.919" y="130">I</text><text stroke="none" font-family="PetalumaScript, Arial, sans-serif" font-size="8.76pt" x="66.895" y="123.6">6</text><text stroke="none" font-family="PetalumaScript, Arial, sans-serif" font-size="8.76pt" x="66.895" y="134.8">4</text></g><g class="vf-chordsymbol" id="vf-auto25210"><text stroke="none" font-family="PetalumaScript, Arial, sans-serif" font-size="12pt" x="60.619" y="160">T</text></g></g><g class="vf-notehead" id="vf-auto25224" pointer-events="bounding-box"><path stroke="none" d="M63.31 91.543C63.591 91.599,63.844 91.627,64.125 91.627C68 91.627,73.784 86.348,73.672 82.08C73.56 81.041,73.588 79.609,71.482 78.766C70.892 78.485,70.246 78.373,69.544 78.373C65.22 78.373,60.53 83.343,60.193 86.657C60.193 86.909,60.165 87.134,60.165 87.387C60.165 89.409,61.064 91.037,63.31 91.543"/></g><g class="vf-notehead" id="vf-auto25225" pointer-events="bounding-box"><path stroke="none" d="M63.31 81.543C63.591 81.599,63.844 81.627,64.125 81.627C68 81.627,73.784 76.348,73.672 72.08C73.56 71.041,73.588 69.609,71.482 68.766C70.892 68.485,70.246 68.373,69.544 68.373C65.22 68.373,60.53 73.343,60.193 76.657C60.193 76.909,60.165 77.134,60.165 77.387C60.165 79.409,61.064 81.037,63.31 81.543"/></g></g><g class="vf-stavenote" id="vf-auto25226"><path stroke-width="1.4" fill="none" stroke="#444" d="M167.762 100L187.27 100"/><g class="vf-stem" id="vf-auto25227" pointer-events="bounding-box"><path stroke-width="1.5" fill="none" d="M183.52 98L183.52 35"/></g><g class="vf-notehead" id="vf-auto25231" pointer-events="bounding-box"><path stroke="none" d="M174.407 106.543C174.688 106.599,174.94 106.627,175.221 106.627C179.096 106.627,184.881 101.348,184.768 97.08C184.656 96.041,184.684 94.609,182.578 93.766C181.988 93.485,181.343 93.373,180.641 93.373C176.316 93.373,171.627 98.343,171.29 101.657C171.29 101.909,171.262 102.134,171.262 102.387C171.262 104.409,172.16 106.037,174.407 106.543"/><g class="vf-chordsymbol" id="vf-auto25206"><text stroke="none" font-family="PetalumaScript, Arial, sans-serif" font-size="12pt" x="172.82" y="130">V</text></g><g class="vf-chordsymbol" id="vf-auto25211"><text stroke="none" font-family="PetalumaScript, Arial, sans-serif" font-size="12pt" x="172.724" y="150">D</text></g></g><g class="vf-notehead" id="vf-auto25232" pointer-events="bounding-box"><path stroke="none" d="M174.407 96.543C174.688 96.599,174.94 96.627,175.221 96.627C179.096 96.627,184.881 91.348,184.768 87.08C184.656 86.041,184.684 84.609,182.578 83.766C181.988 83.485,181.343 83.373,180.641 83.373C176.316 83.373,171.627 88.343,171.29 91.657C171.29 91.909,171.262 92.134,171.262 92.387C171.262 94.409,172.16 96.037,174.407 96.543"/></g><g class="vf-notehead" id="vf-auto25233" pointer-events="bounding-box"><path stroke="none" d="M174.407 76.543C174.688 76.599,174.94 76.627,175.221 76.627C179.096 76.627,184.881 71.348,184.768 67.08C184.656 66.041,184.684 64.609,182.578 63.766C181.988 63.485,181.343 63.373,180.641 63.373C176.316 63.373,171.627 68.343,171.29 71.657C171.29 71.909,171.262 72.134,171.262 72.387C171.262 74.409,172.16 76.037,174.407 76.543"/><path stroke="none" d="M160.375 78.208C160.484 78.208,160.648 78.126,160.84 77.907C161.36 77.497,161.934 77.059,162.509 76.648C165.956 74.186,167.817 70.821,167.817 66.525C167.817 65.978,167.817 65.458,167.734 64.911C167.543 62.996,166.449 61.874,164.78 61.874C164.424 61.874,164.041 61.956,163.603 62.093C163.056 62.23,162.509 62.503,161.934 62.75L161.907 62.777L161.907 61.765C161.907 60.26,161.989 58.782,162.071 57.278C162.071 56.402,162.153 55.581,162.153 54.706C162.153 53.885,162.071 53.009,161.879 52.189C161.797 51.915,161.797 51.395,161.387 51.395L161.36 51.395C160.922 51.45,160.593 51.806,160.593 52.353C160.566 53.447,160.457 54.596,160.484 55.691L160.484 56.922C160.484 59.248,160.375 61.573,160.293 63.899C160.183 67.237,159.609 70.52,159.609 73.858C159.609 75.171,159.691 76.539,160.046 77.852C160.128 78.071,160.21 78.208,160.375 78.208M161.442 72.873C161.524 71.86,161.551 70.793,161.661 69.672C161.743 68.824,161.797 67.948,161.797 67.072L161.934 67.018C162.7 66.689,163.439 66.306,164.26 66.306C164.533 66.306,164.862 66.388,165.163 66.498C165.819 66.717,166.12 67.045,166.093 67.483C166.093 67.702,166.038 67.948,165.874 68.276C164.862 70.274,163.193 71.614,161.442 72.873"/></g></g><g class="vf-stavenote" id="vf-auto25236"><path stroke-width="1.4" fill="none" stroke="#444" d="M278.858 100L298.366 100"/><g class="vf-stem" id="vf-auto25237" pointer-events="bounding-box"><path stroke-width="1.5" fill="none" d="M294.616 98L294.616 45"/></g><g class="vf-notehead" id="vf-auto25241" pointer-events="bounding-box"><path stroke="none" d="M285.503 106.543C285.784 106.599,286.037 106.627,286.318 106.627C290.193 106.627,295.977 101.348,295.865 97.08C295.752 96.041,295.78 94.609,293.674 93.766C293.085 93.485,292.439 93.373,291.737 93.373C287.413 93.373,282.723 98.343,282.386 101.657C282.386 101.909,282.358 102.134,282.358 102.387C282.358 104.409,283.257 106.037,285.503 106.543"/><g class="vf-chordsymbol" id="vf-auto25207"><path stroke-width="1" fill="none" d="M282.452 130L294.772 130"/></g><g class="vf-chordsymbol" id="vf-auto25212"><text stroke="none" font-family="PetalumaScript, Arial, sans-serif" font-size="12pt" x="283.82" y="150">D</text></g></g><g class="vf-notehead" id="vf-auto25242" pointer-events="bounding-box"><path stroke="none" d="M285.503 96.543C285.784 96.599,286.037 96.627,286.318 96.627C290.193 96.627,295.977 91.348,295.865 87.08C295.752 86.041,295.78 84.609,293.674 83.766C293.085 83.485,292.439 83.373,291.737 83.373C287.413 83.373,282.723 88.343,282.386 91.657C282.386 91.909,282.358 92.134,282.358 92.387C282.358 94.409,283.257 96.037,285.503 96.543"/></g><g class="vf-notehead" id="vf-auto25243" pointer-events="bounding-box"><path stroke="none" d="M285.503 86.543C285.784 86.599,286.037 86.627,286.318 86.627C290.193 86.627,295.977 81.348,295.865 77.08C295.752 76.041,295.78 74.609,293.674 73.766C293.085 73.485,292.439 73.373,291.737 73.373C287.413 73.373,282.723 78.343,282.386 81.657C282.386 81.909,282.358 82.134,282.358 82.387C282.358 84.409,283.257 86.037,285.503 86.543"/></g></g><g class="vf-stavenote" id="vf-auto25244"><path stroke-width="1.4" fill="none" stroke="#444" d="M389.955 100L409.463 100"/><g class="vf-stem" id="vf-auto25245" pointer-events="bounding-box"><path stroke-width="1.5" fill="none" d="M405.713 98L405.713 40"/></g><g class="vf-notehead" id="vf-auto25249" pointer-events="bounding-box"><path stroke="none" d="M396.6 106.543C396.88 106.599,397.133 106.627,397.414 106.627C401.289 106.627,407.073 101.348,406.961 97.08C406.849 96.041,406.877 94.609,404.771 93.766C404.181 93.485,403.535 93.373,402.833 93.373C398.509 93.373,393.82 98.343,393.483 101.657C393.483 101.909,393.455 102.134,393.455 102.387C393.455 104.409,394.353 106.037,396.6 106.543"/><g class="vf-chordsymbol" id="vf-auto25208"><text stroke="none" font-family="PetalumaScript, Arial, sans-serif" font-size="12pt" x="386.277" y="126">V</text><path stroke="none" d="M391.79 130.384C392.008 130.467,392.122 130.228,392.246 130.093C393.407 128.911,394.537 127.75,395.709 126.547L399.576 122.628C401.681 120.503,403.755 118.336,405.87 116.221C406.191 115.91,406.336 115.516,406.409 115.08C406.409 115.029,406.429 114.966,406.429 114.894C406.429 114.801,406.398 114.707,406.326 114.686C406.16 114.604,406.004 114.728,405.89 114.842C405.216 115.516,404.563 116.2,403.889 116.843C402.334 118.367,400.81 119.85,399.276 121.384C397.959 122.701,396.673 124.028,395.336 125.314C394.195 126.402,393.127 127.553,391.976 128.631C391.717 128.87,391.655 129.129,391.645 129.482C391.634 129.616,391.676 129.762,391.707 129.907C391.748 130.093,391.645 130.332,391.79 130.384"/><text stroke="none" font-family="PetalumaScript, Arial, sans-serif" font-size="12pt" x="403.749" y="134">V</text></g><g class="vf-chordsymbol" id="vf-auto25213"><text stroke="none" font-family="PetalumaScript, Arial, sans-serif" font-size="12pt" x="390.085" y="160">SD</text></g></g><g class="vf-notehead" id="vf-auto25250" pointer-events="bounding-box"><path stroke="none" d="M396.6 91.543C396.88 91.599,397.133 91.627,397.414 91.627C401.289 91.627,407.073 86.348,406.961 82.08C406.849 81.041,406.877 79.609,404.771 78.766C404.181 78.485,403.535 78.373,402.833 78.373C398.509 78.373,393.82 83.343,393.483 86.657C393.483 86.909,393.455 87.134,393.455 87.387C393.455 89.409,394.353 91.037,396.6 91.543"/><path stroke="none" d="M380.105 100.13C380.406 100.103,380.488 99.665,380.57 99.391C380.734 98.872,380.762 98.352,380.762 97.887C380.762 97.449,380.734 97.066,380.734 96.628C380.734 96.354,380.734 95.999,380.762 95.725C380.844 94.932,380.926 94.138,380.953 93.345L382.704 92.989C382.786 94.658,383.087 96.272,383.635 97.832C383.689 98.051,383.826 98.27,384.072 98.27C384.319 98.324,384.401 98.051,384.51 97.832C384.784 97.421,384.811 96.902,384.811 96.436C384.866 96.081,384.866 95.752,384.866 95.452C384.866 94.494,384.784 93.509,384.756 92.551L387.027 92.086C389.189 91.648,389.462 91.348,389.626 89.268C389.626 88.748,389.681 88.393,389.626 87.982C389.599 87.49,389.38 87.134,388.97 87.134L388.888 87.134C388.723 87.134,388.614 87.134,388.45 87.161C387.547 87.408,386.562 87.599,385.604 87.763L384.948 87.873C384.975 87.326,384.975 86.724,385.03 86.149C385.057 84.891,385.085 83.632,385.085 82.373C386.206 82.072,387.273 81.772,388.34 81.416C388.915 81.224,389.435 80.896,389.599 80.267C389.736 79.555,389.955 78.899,389.955 78.187C389.955 77.777,389.9 77.367,389.736 76.956C389.599 76.573,389.462 76.382,389.243 76.382L389.161 76.382C389.024 76.382,388.888 76.382,388.723 76.464C387.492 76.956,386.288 77.367,385.03 77.722L384.893 75.588C384.811 73.892,384.756 72.168,384.401 70.472C384.319 70.253,384.346 69.897,384.1 69.897L384.072 69.897L383.963 69.897C383.635 69.979,383.251 70.116,383.197 70.554L383.197 71.293C383.197 73.618,383.279 75.889,383.334 78.187L381.227 78.652C381.227 77.476,381.199 76.3,381.117 75.123C381.09 74.521,381.09 73.974,380.762 73.372C379.886 73.81,380.023 74.548,380.023 75.178C379.941 76.464,379.886 77.668,379.859 78.899C378.764 79.118,377.643 79.282,376.548 79.473C374.934 79.747,374.688 79.993,374.688 81.772C374.578 82.209,374.907 82.702,374.852 83.194C374.77 83.933,374.961 84.179,375.481 84.207C375.591 84.207,375.727 84.179,375.892 84.124C377.178 83.933,378.436 83.741,379.695 83.495L379.585 87.052C379.531 87.709,379.476 88.338,379.394 88.967C377.916 89.268,376.466 89.542,375.016 89.897C374.195 90.089,373.703 90.39,373.703 91.348C373.703 92.278,374.059 93.153,374.113 94.056C374.113 94.494,374.223 94.685,374.551 94.74C374.606 94.74,374.743 94.685,374.907 94.658C376.302 94.33,377.725 94.056,379.147 93.755C379.12 94.248,379.12 94.768,379.12 95.315C379.12 96.71,379.257 98.051,379.749 99.391C379.831 99.665,379.749 100.13,380.105 100.13M381.145 88.612C381.199 87.763,381.199 86.888,381.227 86.012C381.282 85.082,381.282 84.179,381.282 83.222C381.938 83.112,382.567 83.003,383.197 82.839C383.005 84.644,382.923 86.45,382.814 88.283"/></g><g class="vf-notehead" id="vf-auto25251" pointer-events="bounding-box"><path stroke="none" d="M396.6 81.543C396.88 81.599,397.133 81.627,397.414 81.627C401.289 81.627,407.073 76.348,406.961 72.08C406.849 71.041,406.877 69.609,404.771 68.766C404.181 68.485,403.535 68.373,402.833 68.373C398.509 68.373,393.82 73.343,393.483 76.657C393.483 76.909,393.455 77.134,393.455 77.387C393.455 79.409,394.353 81.037,396.6 81.543"/></g></g></svg>