<svg xmlns="http://www.w3.org/2000/svg" stroke-width="0.3" stroke-dasharray="none" fill="black" stroke="black" font-family="Arial, sans-serif" font-size="10pt" font-weight="normal" font-style="normal" width="500" height="240" viewBox="0 0 384.6153846153846 184.6153846153846" style="width: 500px; height: 240px; border: none;"><g class="vf-stave" id="vf-auto38199" stroke-width="1" fill="#999999" stroke="#999999"><path fill="none" d="M10 62L460 62"/><path fill="none" d="M10 75L460 75"/><path fill="none" d="M10 88L460 88"/><path fill="none" d="M10 101L460 101"/><path fill="none" d="M10 114L460 114"/><path fill="none" d="M10 127L460 127"/></g><g class="vf-stavebarline" id="vf-auto38200"><rect x="10" y="61.5" width="1" height="66" stroke="none"/></g><g class="vf-stavebarline" id="vf-auto38201"><rect x="460" y="61.5" width="1" height="66" stroke="none"/></g><g class="vf-clef" id="vf-auto38202"><path stroke="none" d="M23.502 85.408C23.525 85.408,23.571 85.408,23.617 85.385C23.824 85.27,23.847 85.086,23.847 84.856L23.847 84.579C23.893 82.897,23.986 81.169,23.986 79.441C23.986 77.091,23.986 74.741,23.594 72.414L27.28 72.414C27.465 72.368,27.718 72.437,27.902 72.437C28.064 72.437,28.179 72.414,28.202 72.299C28.34 71.884,27.879 71.584,27.58 71.308C27.511 71.239,27.419 71.239,27.349 71.17C25.875 70.11,24.147 70.064,22.465 70.064C20.484 70.064,18.548 70.179,16.659 70.386C16.521 70.386,16.382 70.34,16.267 70.317C16.06 70.317,15.852 70.409,15.852 70.778C15.852 71.055,16.106 71.285,16.382 71.423C17.419 71.953,18.479 72.437,19.677 72.437C19.908 72.437,20.138 72.414,20.368 72.368C20.484 72.368,20.599 72.345,20.668 72.345C21.083 72.345,21.267 72.552,21.267 73.036L21.267 73.266C21.083 76.1,21.106 78.934,20.944 81.768C20.829 83.058,21.267 83.888,22.258 84.579L22.903 85.017C23.087 85.178,23.225 85.408,23.502 85.408M17.627 102.873C17.765 102.873,17.857 102.758,17.926 102.504C18.249 101.513,18.64 100.546,18.94 99.509C19.124 98.887,19.516 98.656,20.115 98.61C21.659 98.518,23.271 98.449,24.815 98.311C25.644 98.265,26.105 98.426,26.474 99.279C27.004 100.707,28.248 101.583,29.469 102.435C29.538 102.297,29.538 102.205,29.538 102.136C29.538 101.974,29.492 101.859,29.469 101.698C29.193 100.569,28.571 99.624,28.11 98.587C26.843 95.823,25.644 93.035,24.4 90.316C23.847 89.187,23.087 88.173,22.235 87.275C21.866 86.929,21.636 86.768,21.405 86.745C21.175 86.745,21.013 86.929,20.783 87.413C18.594 91.56,16.728 95.892,15.092 100.315C15.023 100.454,15 100.615,15 100.753C15 101.03,15.161 101.237,15.438 101.444C16.037 101.928,16.728 102.274,17.35 102.735C17.465 102.827,17.557 102.873,17.627 102.873M24.792 95.362C24.285 95.108,23.801 95.039,23.294 95.039C22.626 95.039,21.958 95.177,21.313 95.177L20.668 95.177L22.834 90.754C23.502 92.344,24.101 93.772,24.792 95.362M20.645 120.982C20.898 120.982,21.198 120.982,21.474 120.936C24.216 120.706,26.773 119.346,26.773 115.96C26.773 114.255,26.612 112.642,25.46 111.352C25.345 111.282,25.322 111.19,25.322 111.121C25.322 111.052,25.345 110.96,25.46 110.868C26.589 109.762,26.681 108.379,26.612 106.951C26.52 104.324,25.045 102.596,22.465 102.136C22.235 102.112,22.004 102.112,21.797 102.112L21.497 102.112C20.138 102.112,18.871 102.573,17.65 103.103C17.35 103.241,17.166 103.518,17.166 103.933L17.166 104.025C17.212 104.532,17.212 105.016,17.212 105.522C17.051 108.771,16.636 112.02,16.682 115.268C16.682 115.729,16.797 116.213,16.797 116.674C16.797 116.927,16.751 117.158,16.659 117.388C16.521 117.734,16.452 118.033,16.452 118.356C16.452 118.517,16.498 118.724,16.521 118.886C16.935 120.982,16.935 120.982,18.986 120.936C19.539 120.936,20.069 120.936,20.645 120.982M18.709 109.831C18.594 109.831,18.479 109.808,18.387 109.739C18.249 109.6,18.226 109.462,18.226 109.324C18.226 109.071,18.318 108.748,18.318 108.495C18.318 108.402,18.318 108.333,18.295 108.264L18.295 108.08C18.318 106.26,18.295 106.214,20.069 105.891C20.507 105.776,20.967 105.73,21.405 105.753C22.557 105.753,23.663 106.121,24.631 106.951C24.815 107.112,24.884 107.25,24.884 107.389C24.884 107.504,24.746 107.642,24.562 107.78C23.225 108.84,21.612 109.094,20.046 109.508C20 109.508,19.977 109.531,19.954 109.531C19.539 109.531,19.078 109.831,18.709 109.831M18.548 117.457C18.11 117.457,17.995 117.342,17.995 116.996L17.995 115.43L17.949 115.43C17.995 114.808,17.857 114.116,18.11 113.656C18.341 113.218,19.147 113.379,19.677 113.218C20.138 113.126,20.576 113.056,20.967 113.056C22.603 113.056,23.893 114.047,25.161 115.13C25.276 115.268,25.345 115.384,25.345 115.476C25.345 115.637,25.23 115.729,25.045 115.867C24.262 116.559,23.364 117.042,22.327 117.204C21.083 117.388,19.815 117.457,18.548 117.457"/></g><g class="vf-tabnote" id="vf-auto38203" pointer-events="bounding-box"><rect x="42.538" y="72" width="11.417" height="6" fill="#FFF" stroke="none"/><text stroke="none" x="44.538" y="80">9</text><rect x="42.538" y="85" width="11.417" height="6" fill="#FFF" stroke="none"/><text stroke="none" x="44.538" y="93">9</text><path stroke-width="1.5" fill="none" stroke="#777777" d="M56.955 75.5Q67.722 75.5,67.722 52"/><text stroke="none" x="58.456" y="48">1/2</text><path stroke-width="1.5" fill="none" stroke="#777777" d="M67.722 52Q83.99 52,83.99 75.5"/><path stroke="none" d="M83.99 75.5L79.99 71.5L87.99 71.5Z"/><path stroke-width="1.5" fill="none" stroke="#777777" d="M56.955 88.5Q100.258 88.5,100.258 52"/><text stroke="none" x="90.991" y="48">1/2</text><path stroke-width="1.5" fill="none" stroke="#777777" d="M100.258 52Q116.525 52,116.525 88.5"/><path stroke="none" d="M116.525 88.5L112.525 84.5L120.525 84.5Z"/><path stroke="none" d="M112.025 56.275Q114.025 51.275,116.025 54.275Q118.025 57.275,120.025 54.275Q122.025 51.275,124.025 54.275Q126.025 57.275,128.025 54.275Q130.025 51.275,132.025 54.275Q134.025 57.275,136.025 54.275Q134.025 59.275,132.025 56.275Q130.025 53.275,128.025 56.275Q126.025 59.275,124.025 56.275Q122.025 53.275,120.025 56.275Q118.025 59.275,116.025 56.275Q114.025 53.275,112.025 56.275"/></g><g class="vf-tabnote" id="vf-auto38208" pointer-events="bounding-box"><rect x="160.176" y="72" width="18.833" height="6" fill="#FFF" stroke="none"/><text stroke="none" x="162.176" y="80">10</text><path stroke-width="1.5" fill="none" stroke="#777777" d="M182.009 75.5Q195.358 75.5,195.358 52"/><text stroke="none" x="184.613" y="48">Full</text><path stroke="none" d="M195.358 52L191.358 56L199.358 56Z"/><path stroke="none" d="M198.707 56.275Q200.707 51.275,202.707 54.275Q204.707 57.275,206.707 54.275Q208.707 51.275,210.707 54.275Q212.707 57.275,214.707 54.275Q216.707 51.275,218.707 54.275Q220.707 57.275,222.707 54.275Q224.707 51.275,226.707 54.275Q228.707 57.275,230.707 54.275Q232.707 51.275,234.707 54.275Q236.707 57.275,238.707 54.275Q240.707 51.275,242.707 54.275Q244.707 57.275,246.707 54.275Q248.707 51.275,250.707 54.275Q252.707 57.275,254.707 54.275Q256.707 51.275,258.707 54.275Q260.707 57.275,262.707 54.275Q260.707 59.275,258.707 56.275Q256.707 53.275,254.707 56.275Q252.707 59.275,250.707 56.275Q248.707 53.275,246.707 56.275Q244.707 59.275,242.707 56.275Q240.707 53.275,238.707 56.275Q236.707 59.275,234.707 56.275Q232.707 53.275,230.707 56.275Q228.707 59.275,226.707 56.275Q224.707 53.275,222.707 56.275Q220.707 59.275,218.707 56.275Q216.707 53.275,214.707 56.275Q212.707 59.275,210.707 56.275Q208.707 53.275,206.707 56.275Q204.707 59.275,202.707 56.275Q200.707 53.275,198.707 56.275"/></g><g class="vf-tabnote" id="vf-auto38212" pointer-events="bounding-box"><rect x="277.813" y="72" width="18.833" height="6" fill="#FFF" stroke="none"/><text stroke="none" x="279.813" y="80">10</text><path stroke="none" d="M289.647 54L293.647 48L297.647 54L301.647 48L305.647 54L309.647 48L313.647 54L317.647 48L321.647 54L325.647 48L329.647 54L333.647 48L337.647 54L341.647 48L345.647 54L349.647 48L353.647 54L357.647 48L361.647 54L365.647 48L369.647 54L373.647 48L377.647 54L381.647 48L385.647 54L389.647 48L393.647 54L397.647 48L401.647 54L405.647 48L409.647 54L405.647 51L401.647 57L397.647 51L393.647 57L389.647 51L385.647 57L381.647 51L377.647 57L373.647 51L369.647 57L365.647 51L361.647 57L357.647 51L353.647 57L349.647 51L345.647 57L341.647 51L337.647 57L333.647 51L329.647 57L325.647 51L321.647 57L317.647 51L313.647 57L309.647 51L305.647 57L301.647 51L297.647 57L293.647 51L289.647 57"/></g></svg>