<svg xmlns="http://www.w3.org/2000/svg" stroke-width="0.3" stroke-dasharray="none" fill="black" stroke="black" font-family="Arial, sans-serif" font-size="10pt" font-weight="normal" font-style="normal" width="600" height="200" viewBox="0 0 600 200" style="width: 600px; height: 200px; border: none;"><g class="vf-stave" id="vf-auto30107" stroke-width="1" fill="#999999" stroke="#999999"><path fill="none" d="M0 40L250 40"/><path fill="none" d="M0 50L250 50"/><path fill="none" d="M0 60L250 60"/><path fill="none" d="M0 70L250 70"/><path fill="none" d="M0 80L250 80"/></g><g class="vf-stavebarline" id="vf-auto30108"><rect y="39.5" width="1" height="41" stroke="none"/></g><g class="vf-stavebarline" id="vf-auto30109"><rect x="247" y="39.5" width="1" height="41" stroke="none"/><rect x="250" y="39.5" width="1" height="41" stroke="none"/></g><g class="vf-stave" id="vf-auto30165" stroke-width="1" fill="#999999" stroke="#999999"><path fill="none" d="M250 40L550 40"/><path fill="none" d="M250 50L550 50"/><path fill="none" d="M250 60L550 60"/><path fill="none" d="M250 70L550 70"/><path fill="none" d="M250 80L550 80"/></g><g class="vf-stavebarline" id="vf-auto30166"><rect x="250" y="39.5" width="1" height="41" stroke="none"/></g><g class="vf-stavebarline" id="vf-auto30167"><rect x="547" y="39.5" width="1" height="41" stroke="none"/><rect x="550" y="39.5" width="1" height="41" stroke="none"/></g><g class="vf-stavenote" id="vf-auto30110"><path stroke-width="1.4" fill="none" stroke="#444" d="M24 90L43.141 90"/><path stroke-width="1.4" fill="none" stroke="#444" d="M24 100L43.141 100"/><g class="vf-stem" id="vf-auto30111" pointer-events="bounding-box"><path stroke-width="1.5" fill="none" d="M39.391 98L39.391 30"/></g><g class="vf-notehead" id="vf-auto30118" pointer-events="bounding-box"><path stroke="none" d="M27 101.685C27 103.426,28.264 105.391,31.521 105.391C35.733 105.391,40.141 101.938,40.141 98.371C40.141 95.985,38.12 94.665,35.621 94.665C31.689 94.665,27 97.978,27 101.685"/><rect x="20" y="65" width="1" height="40" stroke="none"/><path stroke="none" d="M20.692 58.208C19.187 62.503,16.15 69.179,16.15 69.453C16.15 69.672,16.314 70,16.588 70L16.615 69.973C17.326 69.562,20.528 68.632,20.692 68.632C20.829 68.632,24.057 69.644,24.632 69.973L24.659 70C24.933 70,25.124 69.672,25.124 69.453C25.124 69.179,22.169 62.503,20.692 58.208"/></g><g class="vf-notehead" id="vf-auto30119" pointer-events="bounding-box"><path stroke="none" d="M27 81.685C27 83.426,28.264 85.391,31.521 85.391C35.733 85.391,40.141 81.938,40.141 78.371C40.141 75.985,38.12 74.665,35.621 74.665C31.689 74.665,27 77.978,27 81.685"/></g><g class="vf-notehead" id="vf-auto30120" pointer-events="bounding-box"><path stroke="none" d="M27 66.685C27 68.426,28.264 70.391,31.521 70.391C35.733 70.391,40.141 66.938,40.141 63.371C40.141 60.985,38.12 59.665,35.621 59.665C31.689 59.665,27 62.978,27 66.685"/></g></g><g class="vf-stavenote" id="vf-auto30121"><path stroke-width="1.4" fill="none" stroke="#444" d="M87.952 90L107.093 90"/><g class="vf-stem" id="vf-auto30122" pointer-events="bounding-box"><path stroke-width="1.5" fill="none" d="M103.343 88L103.343 35"/></g><g class="vf-notehead" id="vf-auto30129" pointer-events="bounding-box"><path stroke="none" d="M90.952 91.685C90.952 93.426,92.215 95.391,95.472 95.391C99.684 95.391,104.093 91.938,104.093 88.371C104.093 85.985,102.071 84.665,99.572 84.665C95.641 84.665,90.952 87.978,90.952 91.685"/><rect x="43.141" y="65" width="1" height="25" stroke="none"/><path stroke="none" d="M43.683 95C45.161 90.704,48.116 84.056,48.116 83.782C48.116 83.536,47.924 83.208,47.65 83.208L47.623 83.263C47.048 83.564,43.82 84.603,43.683 84.603C43.519 84.603,40.318 83.646,39.607 83.263L39.579 83.208C39.306 83.208,39.141 83.536,39.141 83.782C39.141 84.056,42.178 90.704,43.683 95"/><path stroke="none" d="M74.938 85.869C75.157 85.814,75.348 85.54,75.348 85.321L75.348 82.996C75.348 82.668,75.129 82.449,74.801 82.449C74.774 82.449,74.774 82.449,74.719 82.449L73.433 82.722L73.433 76.84L72.311 76.84L72.311 82.941L68.809 83.652L68.809 78.098L67.715 78.098L67.715 83.899L66.183 84.2C65.936 84.254,65.745 84.528,65.745 84.747L65.745 84.829L65.745 87.127L65.745 87.045C65.745 87.373,65.991 87.592,66.292 87.592C66.347 87.592,66.374 87.592,66.401 87.592L67.715 87.319L67.715 93.83L66.183 94.131C65.936 94.186,65.745 94.46,65.745 94.679L65.745 96.977C65.745 97.278,65.991 97.524,66.292 97.524C66.347 97.524,66.374 97.524,66.401 97.524L67.715 97.25L67.715 103.133L68.809 103.133L68.809 97.004L72.311 96.293L72.311 101.847L73.433 101.847L73.433 96.074L74.938 95.8C75.157 95.746,75.348 95.472,75.348 95.253L75.348 92.928C75.348 92.599,75.129 92.353,74.801 92.353C74.774 92.353,74.774 92.353,74.719 92.353L73.433 92.627L73.433 86.142M68.809 87.072L72.311 86.388L72.311 92.873L68.809 93.612"/></g><g class="vf-notehead" id="vf-auto30130" pointer-events="bounding-box"><path stroke="none" d="M90.952 81.685C90.952 83.426,92.215 85.391,95.472 85.391C99.684 85.391,104.093 81.938,104.093 78.371C104.093 75.985,102.071 74.665,99.572 74.665C95.641 74.665,90.952 77.978,90.952 81.685"/><path stroke="none" d="M62.334 75.869C62.553 75.814,62.745 75.54,62.745 75.321L62.745 72.996C62.745 72.668,62.526 72.449,62.198 72.449C62.17 72.449,62.17 72.449,62.116 72.449L60.83 72.722L60.83 66.84L59.708 66.84L59.708 72.941L56.206 73.652L56.206 68.098L55.111 68.098L55.111 73.899L53.579 74.2C53.333 74.254,53.141 74.528,53.141 74.747L53.141 74.829L53.141 77.127L53.141 77.045C53.141 77.373,53.388 77.592,53.689 77.592C53.743 77.592,53.771 77.592,53.798 77.592L55.111 77.319L55.111 83.83L53.579 84.131C53.333 84.186,53.141 84.46,53.141 84.679L53.141 86.977C53.141 87.278,53.388 87.524,53.689 87.524C53.743 87.524,53.771 87.524,53.798 87.524L55.111 87.25L55.111 93.133L56.206 93.133L56.206 87.004L59.708 86.293L59.708 91.847L60.83 91.847L60.83 86.074L62.334 85.8C62.553 85.746,62.745 85.472,62.745 85.253L62.745 82.928C62.745 82.599,62.526 82.353,62.198 82.353C62.17 82.353,62.17 82.353,62.116 82.353L60.83 82.627L60.83 76.142M56.206 77.072L59.708 76.388L59.708 82.873L56.206 83.612"/></g><g class="vf-notehead" id="vf-auto30131" pointer-events="bounding-box"><path stroke="none" d="M90.952 71.685C90.952 73.426,92.215 75.391,95.472 75.391C99.684 75.391,104.093 71.938,104.093 68.371C104.093 65.985,102.071 64.665,99.572 64.665C95.641 64.665,90.952 67.978,90.952 71.685"/><path stroke="none" d="M87.541 65.869C87.76 65.814,87.952 65.54,87.952 65.321L87.952 62.996C87.952 62.668,87.733 62.449,87.404 62.449C87.377 62.449,87.377 62.449,87.322 62.449L86.036 62.722L86.036 56.84L84.915 56.84L84.915 62.941L81.412 63.652L81.412 58.098L80.318 58.098L80.318 63.899L78.786 64.2C78.54 64.254,78.348 64.528,78.348 64.747L78.348 64.829L78.348 67.127L78.348 67.045C78.348 67.373,78.594 67.592,78.895 67.592C78.95 67.592,78.977 67.592,79.005 67.592L80.318 67.319L80.318 73.83L78.786 74.131C78.54 74.186,78.348 74.46,78.348 74.679L78.348 76.977C78.348 77.278,78.594 77.524,78.895 77.524C78.95 77.524,78.977 77.524,79.005 77.524L80.318 77.25L80.318 83.133L81.412 83.133L81.412 77.004L84.915 76.293L84.915 81.847L86.036 81.847L86.036 76.074L87.541 75.8C87.76 75.746,87.952 75.472,87.952 75.253L87.952 72.928C87.952 72.599,87.733 72.353,87.404 72.353C87.377 72.353,87.377 72.353,87.322 72.353L86.036 72.627L86.036 66.142M81.412 67.072L84.915 66.388L84.915 72.873L81.412 73.612"/></g></g><g class="vf-stavenote" id="vf-auto30132"><path stroke-width="1.4" fill="none" stroke="#444" d="M145.661 90L164.802 90"/><g class="vf-stem" id="vf-auto30133" pointer-events="bounding-box"><path stroke-width="1.5" fill="none" d="M161.052 88L161.052 35"/></g><g class="vf-notehead" id="vf-auto30140" pointer-events="bounding-box"><path stroke="none" d="M148.661 91.685C148.661 93.426,149.924 95.391,153.181 95.391C157.393 95.391,161.802 91.938,161.802 88.371C161.802 85.985,159.78 84.665,157.281 84.665C153.35 84.665,148.661 87.978,148.661 91.685"/><rect x="141.661" y="70" width="1" height="25" stroke="none"/><path stroke="none" d="M142.352 63.208C140.848 67.503,137.811 74.179,137.811 74.453C137.811 74.672,137.975 75,138.248 75L138.276 74.973C138.987 74.562,142.188 73.632,142.352 73.632C142.489 73.632,145.718 74.644,146.292 74.973L146.32 75C146.593 75,146.785 74.672,146.785 74.453C146.785 74.179,143.83 67.503,142.352 63.208"/></g><g class="vf-notehead" id="vf-auto30141" pointer-events="bounding-box"><path stroke="none" d="M148.661 81.685C148.661 83.426,149.924 85.391,153.181 85.391C157.393 85.391,161.802 81.938,161.802 78.371C161.802 75.985,159.78 74.665,157.281 74.665C153.35 74.665,148.661 77.978,148.661 81.685"/></g><g class="vf-notehead" id="vf-auto30142" pointer-events="bounding-box"><path stroke="none" d="M148.661 71.685C148.661 73.426,149.924 75.391,153.181 75.391C157.393 75.391,161.802 71.938,161.802 68.371C161.802 65.985,159.78 64.665,157.281 64.665C153.35 64.665,148.661 67.978,148.661 71.685"/></g></g><g class="vf-stavenote" id="vf-auto30143"><path stroke-width="1.4" fill="none" stroke="#444" d="M203.37 90L222.511 90"/><g class="vf-stem" id="vf-auto30144" pointer-events="bounding-box"><path stroke-width="1.5" fill="none" d="M218.761 88L218.761 35"/></g><g class="vf-notehead" id="vf-auto30151" pointer-events="bounding-box"><path stroke="none" d="M206.37 91.685C206.37 93.426,207.633 95.391,210.891 95.391C215.103 95.391,219.511 91.938,219.511 88.371C219.511 85.985,217.489 84.665,214.99 84.665C211.059 84.665,206.37 87.978,206.37 91.685"/><rect x="199.37" y="65" width="1" height="25" stroke="none"/><path stroke="none" d="M199.911 95C201.389 90.704,204.344 84.056,204.344 83.782C204.344 83.536,204.152 83.208,203.879 83.208L203.851 83.263C203.277 83.564,200.048 84.603,199.911 84.603C199.747 84.603,196.546 83.646,195.835 83.263L195.807 83.208C195.534 83.208,195.37 83.536,195.37 83.782C195.37 84.056,198.407 90.704,199.911 95"/></g><g class="vf-notehead" id="vf-auto30152" pointer-events="bounding-box"><path stroke="none" d="M206.37 81.685C206.37 83.426,207.633 85.391,210.891 85.391C215.103 85.391,219.511 81.938,219.511 78.371C219.511 75.985,217.489 74.665,214.99 74.665C211.059 74.665,206.37 77.978,206.37 81.685"/></g><g class="vf-notehead" id="vf-auto30153" pointer-events="bounding-box"><path stroke="none" d="M206.37 71.685C206.37 73.426,207.633 75.391,210.891 75.391C215.103 75.391,219.511 71.938,219.511 68.371C219.511 65.985,217.489 64.665,214.99 64.665C211.059 64.665,206.37 67.978,206.37 71.685"/></g></g><g class="vf-stavenote" id="vf-auto30168"><path stroke-width="1.4" fill="none" stroke="#444" d="M274 90L293.141 90"/><g class="vf-stem" id="vf-auto30169" pointer-events="bounding-box"><path stroke-width="1.5" fill="none" d="M289.391 88L289.391 35"/></g><g class="vf-notehead" id="vf-auto30176" pointer-events="bounding-box"><path stroke="none" d="M277 91.685C277 93.426,278.264 95.391,281.521 95.391C285.733 95.391,290.141 91.938,290.141 88.371C290.141 85.985,288.12 84.665,285.621 84.665C281.689 84.665,277 87.978,277 91.685"/><path stroke="none" d="M269.776 74.849C269.83 74.849,269.858 74.795,269.885 74.795C270.077 74.795,270.268 74.986,270.87 75.643C271.937 76.874,272.238 77.394,272.238 78.133C272.238 78.215,272.238 78.242,272.238 78.324C272.211 79.2,271.8 79.966,270.815 80.978C270.159 81.662,269.612 82.456,269.365 83.003C269.338 83.085,269.311 83.194,269.311 83.304C269.311 83.687,269.529 84.152,269.967 84.644C270.131 84.836,270.186 84.973,270.186 85.055C270.186 85.137,270.159 85.164,270.077 85.246C270.049 85.301,269.967 85.301,269.94 85.301C269.83 85.301,269.721 85.219,269.529 85.027C268.435 83.988,267.86 83.14,267.669 82.62C267.614 82.401,267.587 82.127,267.587 81.908C267.587 81.06,268.025 80.157,269.01 79.118C269.666 78.434,270.241 77.64,270.46 77.148C270.542 77.038,270.542 76.929,270.542 76.819C270.542 76.436,270.296 75.971,269.858 75.479C269.666 75.26,269.639 75.205,269.639 75.15C269.639 75.096,269.639 75.096,269.639 75.068C269.639 74.959,269.721 74.877,269.776 74.849"/><path stroke="none" d="M269.776 84.849C269.83 84.849,269.858 84.795,269.885 84.795C270.077 84.795,270.268 84.986,270.87 85.643C271.937 86.874,272.238 87.394,272.238 88.133C272.238 88.215,272.238 88.242,272.238 88.324C272.211 89.2,271.8 89.966,270.815 90.978C270.159 91.662,269.612 92.456,269.365 93.003C269.338 93.085,269.311 93.194,269.311 93.304C269.311 93.687,269.529 94.152,269.967 94.644C270.131 94.836,270.186 94.973,270.186 95.055C270.186 95.137,270.159 95.164,270.077 95.246C270.049 95.301,269.967 95.301,269.94 95.301C269.83 95.301,269.721 95.219,269.529 95.027C268.435 93.988,267.86 93.14,267.669 92.62C267.614 92.401,267.587 92.127,267.587 91.908C267.587 91.06,268.025 90.157,269.01 89.118C269.666 88.434,270.241 87.64,270.46 87.148C270.542 87.038,270.542 86.929,270.542 86.819C270.542 86.436,270.296 85.971,269.858 85.479C269.666 85.26,269.639 85.205,269.639 85.15C269.639 85.096,269.639 85.096,269.639 85.068C269.639 84.959,269.721 84.877,269.776 84.849"/><path stroke="none" d="M270.542 64.208C269.037 68.503,266 75.179,266 75.453C266 75.672,266.164 76,266.438 76L266.465 75.973C267.176 75.562,270.378 74.632,270.542 74.632C270.679 74.632,273.907 75.644,274.482 75.973L274.509 76C274.783 76,274.974 75.672,274.974 75.453C274.974 75.179,272.019 68.503,270.542 64.208"/></g><g class="vf-notehead" id="vf-auto30177" pointer-events="bounding-box"><path stroke="none" d="M289.391 86.685C289.391 88.426,290.655 90.391,293.912 90.391C298.124 90.391,302.533 86.938,302.533 83.371C302.533 80.985,300.511 79.665,298.012 79.665C294.081 79.665,289.391 82.978,289.391 86.685"/></g><g class="vf-notehead" id="vf-auto30178" pointer-events="bounding-box"><path stroke="none" d="M277 71.685C277 73.426,278.264 75.391,281.521 75.391C285.733 75.391,290.141 71.938,290.141 68.371C290.141 65.985,288.12 64.665,285.621 64.665C281.689 64.665,277 67.978,277 71.685"/></g></g><g class="vf-stavenote" id="vf-auto30179"><path stroke-width="1.4" fill="none" stroke="#444" d="M347.75 90L366.891 90"/><g class="vf-stem" id="vf-auto30180" pointer-events="bounding-box"><path stroke-width="1.5" fill="none" d="M363.141 88L363.141 35"/></g><g class="vf-notehead" id="vf-auto30187" pointer-events="bounding-box"><path stroke="none" d="M350.75 91.685C350.75 93.426,352.014 95.391,355.271 95.391C359.483 95.391,363.891 91.938,363.891 88.371C363.891 85.985,361.87 84.665,359.371 84.665C355.439 84.665,350.75 87.978,350.75 91.685"/><path stroke="none" d="M343.526 64.849C343.58 64.849,343.608 64.795,343.635 64.795C343.827 64.795,344.018 64.986,344.62 65.643C345.687 66.874,345.988 67.394,345.988 68.133C345.988 68.215,345.988 68.242,345.988 68.324C345.961 69.2,345.55 69.966,344.565 70.978C343.909 71.662,343.362 72.456,343.115 73.003C343.088 73.085,343.061 73.194,343.061 73.304C343.061 73.687,343.279 74.152,343.717 74.644C343.881 74.836,343.936 74.973,343.936 75.055C343.936 75.137,343.909 75.164,343.827 75.246C343.799 75.301,343.717 75.301,343.69 75.301C343.58 75.301,343.471 75.219,343.279 75.027C342.185 73.988,341.61 73.14,341.419 72.62C341.364 72.401,341.337 72.127,341.337 71.908C341.337 71.06,341.775 70.157,342.76 69.118C343.416 68.434,343.991 67.64,344.21 67.148C344.292 67.038,344.292 66.929,344.292 66.819C344.292 66.436,344.046 65.971,343.608 65.479C343.416 65.26,343.389 65.205,343.389 65.15C343.389 65.096,343.389 65.096,343.389 65.068C343.389 64.959,343.471 64.877,343.526 64.849"/><path stroke="none" d="M343.526 74.849C343.58 74.849,343.608 74.795,343.635 74.795C343.827 74.795,344.018 74.986,344.62 75.643C345.687 76.874,345.988 77.394,345.988 78.133C345.988 78.215,345.988 78.242,345.988 78.324C345.961 79.2,345.55 79.966,344.565 80.978C343.909 81.662,343.362 82.456,343.115 83.003C343.088 83.085,343.061 83.194,343.061 83.304C343.061 83.687,343.279 84.152,343.717 84.644C343.881 84.836,343.936 84.973,343.936 85.055C343.936 85.137,343.909 85.164,343.827 85.246C343.799 85.301,343.717 85.301,343.69 85.301C343.58 85.301,343.471 85.219,343.279 85.027C342.185 83.988,341.61 83.14,341.419 82.62C341.364 82.401,341.337 82.127,341.337 81.908C341.337 81.06,341.775 80.157,342.76 79.118C343.416 78.434,343.991 77.64,344.21 77.148C344.292 77.038,344.292 76.929,344.292 76.819C344.292 76.436,344.046 75.971,343.608 75.479C343.416 75.26,343.389 75.205,343.389 75.15C343.389 75.096,343.389 75.096,343.389 75.068C343.389 74.959,343.471 74.877,343.526 74.849"/><path stroke="none" d="M343.292 96C344.769 91.704,347.724 85.056,347.724 84.782C347.724 84.536,347.533 84.208,347.259 84.208L347.232 84.263C346.657 84.564,343.429 85.603,343.292 85.603C343.128 85.603,339.926 84.646,339.215 84.263L339.188 84.208C338.914 84.208,338.75 84.536,338.75 84.782C338.75 85.056,341.787 91.704,343.292 96"/></g><g class="vf-notehead" id="vf-auto30188" pointer-events="bounding-box"><path stroke="none" d="M363.141 86.685C363.141 88.426,364.405 90.391,367.662 90.391C371.874 90.391,376.283 86.938,376.283 83.371C376.283 80.985,374.261 79.665,371.762 79.665C367.831 79.665,363.141 82.978,363.141 86.685"/></g><g class="vf-notehead" id="vf-auto30189" pointer-events="bounding-box"><path stroke="none" d="M350.75 71.685C350.75 73.426,352.014 75.391,355.271 75.391C359.483 75.391,363.891 71.938,363.891 68.371C363.891 65.985,361.87 64.665,359.371 64.665C355.439 64.665,350.75 67.978,350.75 71.685"/></g></g><g class="vf-stavenote" id="vf-auto30190"><path stroke-width="1.4" fill="none" stroke="#444" d="M421.5 90L440.641 90"/><g class="vf-stem" id="vf-auto30191" pointer-events="bounding-box"><path stroke-width="1.5" fill="none" d="M436.891 88L436.891 35"/></g><g class="vf-notehead" id="vf-auto30198" pointer-events="bounding-box"><path stroke="none" d="M424.5 91.685C424.5 93.426,425.764 95.391,429.021 95.391C433.233 95.391,437.641 91.938,437.641 88.371C437.641 85.985,435.62 84.665,433.121 84.665C429.189 84.665,424.5 87.978,424.5 91.685"/><path stroke="none" d="M417.276 74.849C417.33 74.849,417.358 74.795,417.385 74.795C417.577 74.795,417.768 74.986,418.37 75.643C419.437 76.874,419.738 77.394,419.738 78.133C419.738 78.215,419.738 78.242,419.738 78.324C419.711 79.2,419.3 79.966,418.315 80.978C417.659 81.662,417.111 82.456,416.865 83.003C416.838 83.085,416.811 83.194,416.811 83.304C416.811 83.687,417.029 84.152,417.467 84.644C417.631 84.836,417.686 84.973,417.686 85.055C417.686 85.137,417.659 85.164,417.577 85.246C417.549 85.301,417.467 85.301,417.44 85.301C417.33 85.301,417.221 85.219,417.029 85.027C415.935 83.988,415.36 83.14,415.169 82.62C415.114 82.401,415.087 82.127,415.087 81.908C415.087 81.06,415.525 80.157,416.51 79.118C417.166 78.434,417.741 77.64,417.96 77.148C418.042 77.038,418.042 76.929,418.042 76.819C418.042 76.436,417.795 75.971,417.358 75.479C417.166 75.26,417.139 75.205,417.139 75.15C417.139 75.096,417.139 75.096,417.139 75.068C417.139 74.959,417.221 74.877,417.276 74.849"/><path stroke="none" d="M417.276 84.849C417.33 84.849,417.358 84.795,417.385 84.795C417.577 84.795,417.768 84.986,418.37 85.643C419.437 86.874,419.738 87.394,419.738 88.133C419.738 88.215,419.738 88.242,419.738 88.324C419.711 89.2,419.3 89.966,418.315 90.978C417.659 91.662,417.111 92.456,416.865 93.003C416.838 93.085,416.811 93.194,416.811 93.304C416.811 93.687,417.029 94.152,417.467 94.644C417.631 94.836,417.686 94.973,417.686 95.055C417.686 95.137,417.659 95.164,417.577 95.246C417.549 95.301,417.467 95.301,417.44 95.301C417.33 95.301,417.221 95.219,417.029 95.027C415.935 93.988,415.36 93.14,415.169 92.62C415.114 92.401,415.087 92.127,415.087 91.908C415.087 91.06,415.525 90.157,416.51 89.118C417.166 88.434,417.741 87.64,417.96 87.148C418.042 87.038,418.042 86.929,418.042 86.819C418.042 86.436,417.795 85.971,417.358 85.479C417.166 85.26,417.139 85.205,417.139 85.15C417.139 85.096,417.139 85.096,417.139 85.068C417.139 84.959,417.221 84.877,417.276 84.849"/><path stroke="none" d="M418.042 64.208C416.537 68.503,413.5 75.179,413.5 75.453C413.5 75.672,413.664 76,413.938 76L413.965 75.973C414.676 75.562,417.878 74.632,418.042 74.632C418.179 74.632,421.407 75.644,421.982 75.973L422.009 76C422.283 76,422.474 75.672,422.474 75.453C422.474 75.179,419.519 68.503,418.042 64.208"/><text stroke="none" font-family="Times New Roman, serif" font-weight="bold" font-style="italic" x="412.5" y="107">R</text></g><g class="vf-notehead" id="vf-auto30199" pointer-events="bounding-box"><path stroke="none" d="M436.891 86.685C436.891 88.426,438.155 90.391,441.412 90.391C445.624 90.391,450.033 86.938,450.033 83.371C450.033 80.985,448.011 79.665,445.512 79.665C441.581 79.665,436.891 82.978,436.891 86.685"/></g><g class="vf-notehead" id="vf-auto30200" pointer-events="bounding-box"><path stroke="none" d="M424.5 71.685C424.5 73.426,425.764 75.391,429.021 75.391C433.233 75.391,437.641 71.938,437.641 68.371C437.641 65.985,435.62 64.665,433.121 64.665C429.189 64.665,424.5 67.978,424.5 71.685"/></g></g><g class="vf-stavenote" id="vf-auto30201"><path stroke-width="1.4" fill="none" stroke="#444" d="M496.003 90L515.145 90"/><g class="vf-stem" id="vf-auto30202" pointer-events="bounding-box"><path stroke-width="1.5" fill="none" d="M511.395 88L511.395 30"/></g><g class="vf-notehead" id="vf-auto30209" pointer-events="bounding-box"><path stroke="none" d="M499.003 91.685C499.003 93.426,500.267 95.391,503.524 95.391C507.736 95.391,512.145 91.938,512.145 88.371C512.145 85.985,510.123 84.665,507.624 84.665C503.693 84.665,499.003 87.978,499.003 91.685"/><path stroke="none" d="M453.559 59.849C453.613 59.849,453.641 59.795,453.668 59.795C453.859 59.795,454.051 59.986,454.653 60.643C455.72 61.874,456.021 62.394,456.021 63.133C456.021 63.215,456.021 63.242,456.021 63.324C455.994 64.2,455.583 64.966,454.598 65.978C453.942 66.662,453.394 67.456,453.148 68.003C453.121 68.085,453.093 68.194,453.093 68.304C453.093 68.687,453.312 69.152,453.75 69.644C453.914 69.836,453.969 69.973,453.969 70.055C453.969 70.137,453.942 70.164,453.859 70.246C453.832 70.301,453.75 70.301,453.723 70.301C453.613 70.301,453.504 70.219,453.312 70.027C452.218 68.988,451.643 68.14,451.452 67.62C451.397 67.401,451.37 67.127,451.37 66.908C451.37 66.06,451.807 65.157,452.792 64.118C453.449 63.434,454.024 62.64,454.243 62.148C454.325 62.038,454.325 61.929,454.325 61.819C454.325 61.436,454.078 60.971,453.641 60.479C453.449 60.26,453.422 60.205,453.422 60.15C453.422 60.096,453.422 60.096,453.422 60.068C453.422 59.959,453.504 59.877,453.559 59.849"/><path stroke="none" d="M453.559 69.849C453.613 69.849,453.641 69.795,453.668 69.795C453.859 69.795,454.051 69.986,454.653 70.643C455.72 71.874,456.021 72.394,456.021 73.133C456.021 73.215,456.021 73.242,456.021 73.324C455.994 74.2,455.583 74.966,454.598 75.978C453.942 76.662,453.394 77.456,453.148 78.003C453.121 78.085,453.093 78.194,453.093 78.304C453.093 78.687,453.312 79.152,453.75 79.644C453.914 79.836,453.969 79.973,453.969 80.055C453.969 80.137,453.942 80.164,453.859 80.246C453.832 80.301,453.75 80.301,453.723 80.301C453.613 80.301,453.504 80.219,453.312 80.027C452.218 78.988,451.643 78.14,451.452 77.62C451.397 77.401,451.37 77.127,451.37 76.908C451.37 76.06,451.807 75.157,452.792 74.118C453.449 73.434,454.024 72.64,454.243 72.148C454.325 72.038,454.325 71.929,454.325 71.819C454.325 71.436,454.078 70.971,453.641 70.479C453.449 70.26,453.422 70.205,453.422 70.15C453.422 70.096,453.422 70.096,453.422 70.068C453.422 69.959,453.504 69.877,453.559 69.849"/><path stroke="none" d="M453.559 79.849C453.613 79.849,453.641 79.795,453.668 79.795C453.859 79.795,454.051 79.986,454.653 80.643C455.72 81.874,456.021 82.394,456.021 83.133C456.021 83.215,456.021 83.242,456.021 83.324C455.994 84.2,455.583 84.966,454.598 85.978C453.942 86.662,453.394 87.456,453.148 88.003C453.121 88.085,453.093 88.194,453.093 88.304C453.093 88.687,453.312 89.152,453.75 89.644C453.914 89.836,453.969 89.973,453.969 90.055C453.969 90.137,453.942 90.164,453.859 90.246C453.832 90.301,453.75 90.301,453.723 90.301C453.613 90.301,453.504 90.219,453.312 90.027C452.218 88.988,451.643 88.14,451.452 87.62C451.397 87.401,451.37 87.127,451.37 86.908C451.37 86.06,451.807 85.157,452.792 84.118C453.449 83.434,454.024 82.64,454.243 82.148C454.325 82.038,454.325 81.929,454.325 81.819C454.325 81.436,454.078 80.971,453.641 80.479C453.449 80.26,453.422 80.205,453.422 80.15C453.422 80.096,453.422 80.096,453.422 80.068C453.422 79.959,453.504 79.877,453.559 79.849"/><path stroke="none" d="M453.325 101C454.802 96.704,457.757 90.056,457.757 89.782C457.757 89.536,457.565 89.208,457.292 89.208L457.264 89.263C456.69 89.564,453.461 90.603,453.325 90.603C453.16 90.603,449.959 89.646,449.248 89.263L449.221 89.208C448.947 89.208,448.783 89.536,448.783 89.782C448.783 90.056,451.82 96.704,453.325 101"/><text stroke="none" font-family="Times New Roman, serif" font-weight="bold" font-style="italic" x="448.783" y="57.5">R</text><path stroke="none" d="M495.921 86.854C495.702 85.321,494.745 83.899,492.747 83.899C490.778 83.899,489.628 85.075,489.437 85.321L489.601 72.708C489.601 72.38,489.355 72.161,489.027 72.161L488.561 72.161C488.26 72.161,488.014 72.38,488.014 72.708L488.124 84.555C487.631 84.172,486.975 83.899,486.126 83.899C484.156 83.899,483.007 85.103,482.816 85.349L482.98 72.708C482.98 72.38,482.734 72.161,482.405 72.161L481.94 72.161C481.639 72.161,481.393 72.38,481.393 72.708L481.585 96.375C481.585 96.703,481.831 96.922,482.132 96.922C482.214 96.922,482.378 96.867,482.46 96.813C482.624 96.731,485.169 95.527,487.303 93.119C487.576 92.791,487.932 92.244,488.178 91.888L488.206 96.375C488.206 96.703,488.452 96.922,488.753 96.922C488.835 96.922,488.999 96.867,489.081 96.813C489.245 96.731,491.79 95.472,493.924 93.064C495.429 91.368,496.003 89.453,496.003 87.839C496.003 87.483,495.976 87.155,495.921 86.854M486.591 88.413C486.591 89.015,486.427 90.821,485.442 92.326C484.786 93.338,483.445 94.405,482.706 95.007L482.816 87.319C482.898 86.963,483.472 85.814,485.059 85.814C486.482 85.814,486.591 87.155,486.591 88.003C486.591 88.194,486.591 88.304,486.591 88.413M493.213 88.413C493.213 89.015,493.048 90.821,492.063 92.326C491.407 93.338,490.066 94.405,489.3 95.007L489.437 87.319C489.519 86.963,490.094 85.814,491.68 85.814C493.103 85.814,493.213 87.155,493.213 88.003C493.213 88.194,493.213 88.304,493.213 88.413"/></g><g class="vf-notehead" id="vf-auto30210" pointer-events="bounding-box"><path stroke="none" d="M511.395 86.685C511.395 88.426,512.658 90.391,515.916 90.391C520.128 90.391,524.536 86.938,524.536 83.371C524.536 80.985,522.514 79.665,520.015 79.665C516.084 79.665,511.395 82.978,511.395 86.685"/><path stroke="none" d="M478.311 81.854C478.092 80.321,477.135 78.899,475.137 78.899C473.167 78.899,472.018 80.075,471.827 80.321L471.991 67.708C471.991 67.38,471.745 67.161,471.416 67.161L470.951 67.161C470.65 67.161,470.404 67.38,470.404 67.708L470.513 79.555C470.021 79.172,469.364 78.899,468.516 78.899C466.546 78.899,465.397 80.103,465.206 80.349L465.37 67.708C465.37 67.38,465.123 67.161,464.795 67.161L464.33 67.161C464.029 67.161,463.783 67.38,463.783 67.708L463.974 91.375C463.974 91.703,464.221 91.922,464.522 91.922C464.604 91.922,464.768 91.867,464.85 91.813C465.014 91.731,467.559 90.527,469.693 88.119C469.966 87.791,470.322 87.244,470.568 86.888L470.595 91.375C470.595 91.703,470.842 91.922,471.143 91.922C471.225 91.922,471.389 91.867,471.471 91.813C471.635 91.731,474.18 90.472,476.314 88.064C477.819 86.368,478.393 84.453,478.393 82.839C478.393 82.483,478.366 82.155,478.311 81.854M468.981 83.413C468.981 84.015,468.817 85.821,467.832 87.326C467.175 88.338,465.835 89.405,465.096 90.007L465.206 82.319C465.288 81.963,465.862 80.814,467.449 80.814C468.872 80.814,468.981 82.155,468.981 83.003C468.981 83.194,468.981 83.304,468.981 83.413M475.602 83.413C475.602 84.015,475.438 85.821,474.453 87.326C473.797 88.338,472.456 89.405,471.69 90.007L471.827 82.319C471.909 81.963,472.483 80.814,474.07 80.814C475.493 80.814,475.602 82.155,475.602 83.003C475.602 83.194,475.602 83.304,475.602 83.413"/></g><g class="vf-notehead" id="vf-auto30211" pointer-events="bounding-box"><path stroke="none" d="M499.003 66.685C499.003 68.426,500.267 70.391,503.524 70.391C507.736 70.391,512.145 66.938,512.145 63.371C512.145 60.985,510.123 59.665,507.624 59.665C503.693 59.665,499.003 62.978,499.003 66.685"/><path stroke="none" d="M495.921 61.854C495.702 60.321,494.745 58.899,492.747 58.899C490.778 58.899,489.628 60.075,489.437 60.321L489.601 47.708C489.601 47.38,489.355 47.161,489.027 47.161L488.561 47.161C488.26 47.161,488.014 47.38,488.014 47.708L488.124 59.555C487.631 59.172,486.975 58.899,486.126 58.899C484.156 58.899,483.007 60.103,482.816 60.349L482.98 47.708C482.98 47.38,482.734 47.161,482.405 47.161L481.94 47.161C481.639 47.161,481.393 47.38,481.393 47.708L481.585 71.375C481.585 71.703,481.831 71.922,482.132 71.922C482.214 71.922,482.378 71.867,482.46 71.813C482.624 71.731,485.169 70.527,487.303 68.119C487.576 67.791,487.932 67.244,488.178 66.888L488.206 71.375C488.206 71.703,488.452 71.922,488.753 71.922C488.835 71.922,488.999 71.867,489.081 71.813C489.245 71.731,491.79 70.472,493.924 68.064C495.429 66.368,496.003 64.453,496.003 62.839C496.003 62.483,495.976 62.155,495.921 61.854M486.591 63.413C486.591 64.015,486.427 65.821,485.442 67.326C484.786 68.338,483.445 69.405,482.706 70.007L482.816 62.319C482.898 61.963,483.472 60.814,485.059 60.814C486.482 60.814,486.591 62.155,486.591 63.003C486.591 63.194,486.591 63.304,486.591 63.413M493.213 63.413C493.213 64.015,493.048 65.821,492.063 67.326C491.407 68.338,490.066 69.405,489.3 70.007L489.437 62.319C489.519 61.963,490.094 60.814,491.68 60.814C493.103 60.814,493.213 62.155,493.213 63.003C493.213 63.194,493.213 63.304,493.213 63.413"/></g></g></svg>