<svg xmlns="http://www.w3.org/2000/svg" stroke-width="0.3" stroke-dasharray="none" fill="black" stroke="black" font-family="Arial, sans-serif" font-size="10pt" font-weight="normal" font-style="normal" width="750" height="300" viewBox="0 0 750 300" style="width: 750px; height: 300px; border: none;"><g class="vf-stave" id="vf-auto2079" stroke-width="1" fill="#999999" stroke="#999999"><path fill="none" d="M10 90L760 90"/><path fill="none" d="M10 100L760 100"/><path fill="none" d="M10 110L760 110"/><path fill="none" d="M10 120L760 120"/><path fill="none" d="M10 130L760 130"/></g><g class="vf-stavebarline" id="vf-auto2080"><rect x="10" y="89.5" width="1" height="41" stroke="none"/></g><g class="vf-stavebarline" id="vf-auto2081"><rect x="760" y="89.5" width="1" height="41" stroke="none"/></g><g class="vf-clef" id="vf-auto2082"><path stroke="none" d="M29.112 77.837C29.112 77.837,29.141 77.837,29.17 77.837C29.544 77.837,30.034 78.211,30.667 78.96C32.942 81.696,34.44 86.045,34.44 89.731C34.44 89.99,34.44 90.278,34.411 90.538C34.152 94.829,32.28 98.515,28.68 101.942C28.363 102.259,27.902 102.691,27.701 102.864L27.355 103.238L28.075 106.608C28.478 108.48,28.795 110.006,28.795 110.006C28.795 110.006,28.795 110.006,28.795 110.006C28.824 110.006,28.939 109.978,29.026 109.978C29.198 109.949,29.659 109.949,30.12 109.949C30.466 109.949,30.84 109.949,30.984 109.949C35.592 110.525,38.962 114.125,39.278 118.79C39.307 118.992,39.307 119.194,39.307 119.395C39.307 123.254,36.802 126.941,33.029 128.554C32.885 128.611,32.798 128.669,32.798 128.669C32.798 128.669,33 129.677,33.259 130.886C33.518 132.125,33.778 133.306,33.806 133.536C33.979 134.458,34.066 135.322,34.066 136.157C34.066 138.317,33.49 140.131,32.395 141.542C30.754 143.587,28.392 144.624,26.03 144.624C23.726 144.624,21.422 143.674,19.752 141.773C19.061 140.966,18.686 140.016,18.686 139.037C18.686 138.202,18.974 137.338,19.55 136.56C20.386 135.437,21.624 134.89,22.862 134.89C24.014 134.89,25.166 135.379,25.973 136.358C26.549 137.107,26.808 137.942,26.808 138.778C26.808 140.678,25.397 142.493,23.237 142.579L22.978 142.579L23.064 142.637C23.928 143.069,24.936 143.299,25.973 143.299C27.24 143.299,28.565 142.954,29.602 142.291C31.704 140.966,32.741 138.922,32.741 136.157C32.741 135.264,32.626 134.285,32.424 133.248C32.338 132.758,31.531 129.101,31.531 129.101C31.531 129.101,31.531 129.101,31.531 129.101C31.502 129.101,31.358 129.13,31.186 129.158C30.667 129.302,30.12 129.389,29.515 129.446C29.314 129.475,28.91 129.475,28.478 129.475C27.931 129.475,27.384 129.475,27.154 129.446C20.126 128.669,15 122.995,15 115.968C15 112.858,15.893 110.15,17.765 107.558C19.752 104.794,21.768 102.403,24.245 99.898L25.109 99.034L24.734 97.306C24.533 96.326,24.331 95.318,24.245 95.03C23.899 93.389,23.726 92.582,23.669 92.266C23.525 91.373,23.467 90.48,23.467 89.587C23.467 85.469,25.022 81.552,27.902 78.758C28.565 78.125,28.91 77.866,29.112 77.837M31.013 83.482C30.84 83.453,30.696 83.424,30.523 83.424C29.688 83.424,28.68 83.942,27.73 84.893C26.088 86.534,25.195 89.011,25.195 91.718C25.195 92.41,25.253 93.101,25.368 93.821C25.426 94.138,26.203 97.968,26.232 97.968C26.232 97.968,26.232 97.968,26.232 97.968C26.261 97.968,27.182 97.018,27.442 96.73C30.638 93.187,32.453 89.357,32.453 86.362C32.453 85.872,32.395 85.411,32.309 84.95C32.107 84.086,31.733 83.654,31.013 83.482M26.318 104.707C26.29 104.534,26.261 104.39,26.261 104.39C26.146 104.39,23.87 107.04,22.834 108.336C20.702 111.043,19.925 112.31,19.32 114.038C18.888 115.363,18.658 116.688,18.658 117.984C18.658 120.317,19.349 122.534,20.674 124.406C22.517 126.998,25.426 128.496,28.421 128.496C28.91 128.496,29.4 128.467,29.89 128.381C30.408 128.294,31.301 128.064,31.301 128.006C31.301 127.978,30.955 126.394,30.552 124.435C30.12 122.506,29.486 119.51,29.112 117.811C28.766 116.112,28.45 114.701,28.45 114.701C28.45 114.701,28.45 114.701,28.45 114.701C28.334 114.701,27.701 114.96,27.355 115.133C25.598 116.112,24.677 117.84,24.677 119.568C24.677 121.094,25.397 122.592,26.866 123.485C27.154 123.658,27.298 123.859,27.298 124.09C27.298 124.205,27.24 124.349,27.125 124.464C27.038 124.579,26.923 124.666,26.75 124.666C26.549 124.666,26.29 124.55,25.858 124.32C23.237 122.966,21.912 120.403,21.912 117.782C21.912 115.334,23.093 112.858,25.454 111.302C26.059 110.899,27.269 110.323,27.499 110.323C27.499 110.323,27.528 110.294,27.528 110.294C27.528 110.266,27.528 110.266,27.528 110.266C27.499 110.208,26.434 105.197,26.318 104.707M30.725 114.499C30.581 114.499,30.293 114.47,30.12 114.47L29.746 114.47L29.774 114.528C29.774 114.557,30.293 117.034,30.955 120.029C31.589 123.024,32.136 125.616,32.165 125.789C32.222 125.962,32.309 126.422,32.395 126.797L32.539 127.488L32.626 127.43C34.21 126.538,35.362 125.27,35.995 123.715C36.37 122.851,36.542 121.987,36.542 121.123C36.542 117.869,34.152 114.902,30.725 114.499"/></g><g class="vf-stavenote" id="vf-auto2083"><g class="vf-stem" id="vf-auto2084" pointer-events="bounding-box"><path stroke-width="1.5" fill="none" d="M68.563 123.5L68.563 90"/></g><g class="vf-notehead" id="vf-auto2086" pointer-events="bounding-box"><path stroke="none" d="M64.427 119.889C64.512 119.889,64.596 119.889,64.736 119.889C65.101 119.889,65.635 119.918,65.831 119.946C68.162 120.283,69.313 121.827,69.313 123.624C69.313 125.534,68.022 127.724,65.438 129.128C64.175 129.802,62.883 130.111,61.704 130.111C59.541 130.111,57.772 129.044,57.407 127.162C57.351 126.881,57.323 126.629,57.323 126.376C57.323 123.343,60.58 120.283,64.427 119.889"/><path stroke="none" d="M51.663 135.055C51.718 135.027,51.8 135,51.882 135C52.019 135,52.183 135.055,52.292 135.164C52.429 135.301,52.429 135.383,52.456 135.848C52.675 140.691,57.354 144.384,63.318 144.384C64.166 144.384,64.331 144.384,64.932 144.302C70.158 143.7,73.989 140.171,74.18 135.848C74.208 135.383,74.208 135.301,74.344 135.164C74.454 135.055,74.618 135,74.755 135C74.974 135,75.192 135.137,75.275 135.356C75.302 135.438,75.329 135.575,75.329 135.793C75.329 136.176,75.275 136.751,75.22 137.244C74.481 143.208,69.994 147.613,64.221 148.023C63.92 148.051,63.592 148.078,63.291 148.078C57.463 148.078,52.538 143.892,51.499 137.873C51.389 137.189,51.307 136.313,51.307 135.793C51.307 135.575,51.335 135.438,51.362 135.356C51.389 135.246,51.526 135.109,51.663 135.055M62.935 135.027C63.072 135,63.181 135,63.318 135C64.112 135,64.96 135.438,65.425 136.122C65.726 136.56,65.863 137.052,65.863 137.544C65.863 138.858,64.823 140.062,63.318 140.062C61.813 140.062,60.774 138.858,60.774 137.544C60.774 137.052,60.911 136.56,61.212 136.122C61.595 135.547,62.224 135.164,62.935 135.027"/><path stroke="none" d="M62.853 165.055C63.017 165.027,63.181 165,63.318 165C64.577 165,65.644 166.067,65.644 167.326C65.644 167.49,65.616 167.627,65.589 167.791C65.343 168.967,64.331 169.651,63.291 169.651C62.634 169.651,61.978 169.378,61.512 168.803C61.157 168.365,60.993 167.845,60.993 167.353C60.993 166.313,61.704 165.301,62.853 165.055"/><path stroke="none" d="M57.983 170.055C58.038 170.027,60.719 170,63.373 170C66 170,68.571 170.027,68.653 170.055C68.872 170.137,69.009 170.356,69.009 170.575C69.009 170.711,68.954 170.876,68.845 170.985C68.681 171.122,69.091 171.149,65.917 171.149C65.233 171.149,64.385 171.149,63.318 171.149C62.251 171.149,61.403 171.149,60.719 171.149C57.545 171.149,57.956 171.122,57.792 170.985C57.682 170.876,57.627 170.711,57.627 170.575C57.627 170.356,57.764 170.137,57.983 170.055"/></g></g><g class="vf-stavenote" id="vf-auto2094"><g class="vf-stem" id="vf-auto2095" pointer-events="bounding-box"><path stroke-width="1.5" fill="none" d="M117.055 121.5L117.055 155"/></g><g class="vf-notehead" id="vf-auto2097" pointer-events="bounding-box"><path stroke="none" d="M123.409 114.889C123.493 114.889,123.578 114.889,123.718 114.889C124.083 114.889,124.617 114.918,124.813 114.946C127.144 115.283,128.295 116.827,128.295 118.624C128.295 120.534,127.003 122.724,124.42 124.128C123.157 124.802,121.865 125.111,120.685 125.111C118.523 125.111,116.754 124.044,116.389 122.162C116.333 121.881,116.305 121.629,116.305 121.376C116.305 118.343,119.562 115.283,123.409 114.889"/><path stroke="none" d="M112.04 160.055C112.122 160.027,112.177 160,112.259 160C112.423 160,112.56 160.055,112.669 160.164C112.724 160.219,113.217 161.012,114.174 162.572C114.968 163.858,116.801 166.84,118.278 169.193C119.728 171.546,121.042 173.68,121.178 173.926C121.315 174.145,121.452 174.337,121.452 174.337C121.452 174.337,121.561 174.172,121.698 173.981C121.808 173.789,122.327 172.969,122.82 172.175C123.312 171.382,123.914 170.397,124.133 170.014C124.379 169.631,125.2 168.29,125.994 167.032C127.389 164.761,129.031 162.134,129.769 160.903C130.207 160.192,130.289 160.109,130.426 160.055C130.508 160.027,131.001 160,131.493 160C131.986 160,132.478 160.027,132.56 160.055C132.752 160.137,132.888 160.356,132.888 160.575C132.888 160.657,132.888 160.711,132.861 160.766C132.861 160.793,132.642 161.176,132.369 161.587C132.122 162.025,131.685 162.709,131.438 163.119C131.165 163.557,129.988 165.472,128.812 167.36C127.635 169.275,126.459 171.19,126.213 171.601C125.939 172.011,125.063 173.406,124.27 174.747C122.71 177.264,122.656 177.374,122.382 177.374C122.355 177.374,122.327 177.374,122.3 177.374C122.273 177.374,122.245 177.374,122.218 177.374C121.944 177.374,121.89 177.264,120.385 174.829C119.591 173.543,117.758 170.561,116.308 168.208C114.831 165.828,113.217 163.201,112.697 162.38C112.177 161.532,111.739 160.793,111.739 160.766C111.712 160.711,111.712 160.657,111.712 160.575C111.712 160.356,111.849 160.137,112.04 160.055M121.917 160.027C122.054 160,122.163 160,122.3 160C123.094 160,123.942 160.438,124.407 161.122C124.708 161.56,124.845 162.052,124.845 162.544C124.845 163.858,123.805 165.062,122.3 165.062C120.795 165.062,119.756 163.858,119.756 162.544C119.756 162.052,119.892 161.56,120.193 161.122C120.576 160.547,121.206 160.164,121.917 160.027"/><path stroke="none" d="M121.835 180.055C121.999 180.027,122.163 180,122.3 180C123.559 180,124.626 181.067,124.626 182.326C124.626 182.49,124.598 182.627,124.571 182.791C124.325 183.967,123.312 184.651,122.273 184.651C121.616 184.651,120.959 184.378,120.494 183.803C120.139 183.365,119.974 182.845,119.974 182.353C119.974 181.313,120.686 180.301,121.835 180.055"/><path stroke="none" d="M116.965 185.055C117.02 185.027,119.701 185,122.355 185C124.981 185,127.553 185.027,127.635 185.055C127.854 185.137,127.991 185.356,127.991 185.575C127.991 185.711,127.936 185.876,127.827 185.985C127.663 186.122,128.073 186.149,124.899 186.149C124.215 186.149,123.367 186.149,122.3 186.149C121.233 186.149,120.385 186.149,119.701 186.149C116.527 186.149,116.938 186.122,116.773 185.985C116.664 185.876,116.609 185.711,116.609 185.575C116.609 185.356,116.746 185.137,116.965 185.055"/></g></g><g class="vf-stavenote" id="vf-auto2105"><g class="vf-stem" id="vf-auto2106" pointer-events="bounding-box"><path stroke-width="1.5" fill="none" d="M186.527 103.5L186.527 70"/></g><g class="vf-notehead" id="vf-auto2108" pointer-events="bounding-box"><path stroke="none" d="M182.391 99.889C182.475 99.889,182.56 99.889,182.7 99.889C183.065 99.889,183.599 99.918,183.795 99.946C186.126 100.283,187.277 101.827,187.277 103.624C187.277 105.534,185.985 107.724,183.402 109.128C182.138 109.802,180.847 110.111,179.667 110.111C177.505 110.111,175.736 109.044,175.371 107.162C175.315 106.881,175.287 106.629,175.287 106.376C175.287 103.343,178.544 100.283,182.391 99.889"/><path stroke="none" d="M171.022 135.055C171.104 135.027,171.159 135,171.241 135C171.46 135,171.706 135.137,171.761 135.356C171.815 135.438,171.815 135.465,171.815 139.733L171.815 144.001L181.282 144.001L190.748 144.001L190.748 139.733C190.748 135.465,190.748 135.438,190.803 135.356C190.885 135.137,191.104 135,191.323 135C191.542 135,191.761 135.137,191.843 135.356C191.87 135.438,191.898 138.584,191.898 141.758C191.898 144.904,191.87 148.051,191.843 148.133C191.788 148.27,191.651 148.406,191.542 148.461L191.432 148.488L181.282 148.488L171.131 148.488L171.022 148.461C170.912 148.406,170.776 148.27,170.721 148.133C170.694 148.051,170.666 144.904,170.666 141.758C170.666 138.584,170.694 135.438,170.721 135.356C170.776 135.246,170.912 135.109,171.022 135.055M180.899 135.027C181.036 135,181.145 135,181.282 135C182.075 135,182.924 135.438,183.389 136.122C183.69 136.56,183.826 137.052,183.826 137.544C183.826 138.858,182.787 140.062,181.282 140.062C179.777 140.062,178.737 138.858,178.737 137.544C178.737 137.052,178.874 136.56,179.175 136.122C179.558 135.547,180.188 135.164,180.899 135.027"/><path stroke="none" d="M180.817 165.055C180.981 165.027,181.145 165,181.282 165C182.54 165,183.608 166.067,183.608 167.326C183.608 167.49,183.58 167.627,183.553 167.791C183.307 168.967,182.294 169.651,181.255 169.651C180.598 169.651,179.941 169.378,179.476 168.803C179.12 168.365,178.956 167.845,178.956 167.353C178.956 166.313,179.668 165.301,180.817 165.055"/><path stroke="none" d="M175.947 170.055C176.001 170.027,178.683 170,181.337 170C183.963 170,186.535 170.027,186.617 170.055C186.836 170.137,186.973 170.356,186.973 170.575C186.973 170.711,186.918 170.876,186.809 170.985C186.644 171.122,187.055 171.149,183.881 171.149C183.197 171.149,182.349 171.149,181.282 171.149C180.215 171.149,179.367 171.149,178.683 171.149C175.509 171.149,175.919 171.122,175.755 170.985C175.646 170.876,175.591 170.711,175.591 170.575C175.591 170.356,175.728 170.137,175.947 170.055"/></g></g><g class="vf-stavenote" id="vf-auto2116"><g class="vf-stem" id="vf-auto2117" pointer-events="bounding-box"><path stroke-width="1.5" fill="none" d="M245.509 123.5L245.509 90"/></g><g class="vf-notehead" id="vf-auto2119" pointer-events="bounding-box"><path stroke="none" d="M241.373 119.889C241.457 119.889,241.541 119.889,241.682 119.889C242.047 119.889,242.58 119.918,242.777 119.946C245.108 120.283,246.259 121.827,246.259 123.624C246.259 125.534,244.967 127.724,242.384 129.128C241.12 129.802,239.829 130.111,238.649 130.111C236.487 130.111,234.718 129.044,234.353 127.162C234.297 126.881,234.269 126.629,234.269 126.376C234.269 123.343,237.526 120.283,241.373 119.889"/><path stroke="none" d="M239.799 135.055C239.963 135.027,240.127 135,240.264 135C241.522 135,242.589 136.067,242.589 137.326C242.589 137.49,242.562 137.627,242.535 137.791C242.288 138.967,241.276 139.651,240.236 139.651C239.58 139.651,238.923 139.378,238.458 138.803C238.102 138.365,237.938 137.845,237.938 137.353C237.938 136.313,238.65 135.301,239.799 135.055"/><path stroke="none" d="M234.929 155.055C234.983 155.027,237.665 155,240.318 155C242.945 155,245.517 155.027,245.599 155.055C245.818 155.137,245.955 155.356,245.955 155.575C245.955 155.711,245.9 155.876,245.79 155.985C245.626 156.122,246.037 156.149,242.863 156.149C242.179 156.149,241.331 156.149,240.264 156.149C239.197 156.149,238.349 156.149,237.665 156.149C234.491 156.149,234.901 156.122,234.737 155.985C234.628 155.876,234.573 155.711,234.573 155.575C234.573 155.356,234.71 155.137,234.929 155.055"/><path stroke="none" d="M240.483 181.095C240.428 181.122,240.346 181.122,240.264 181.122C240.182 181.122,240.1 181.122,240.045 181.095C239.881 181.04,239.826 180.958,239.361 180.192C239.115 179.809,238.732 179.207,238.54 178.851C238.321 178.523,237.966 177.948,237.747 177.592C237.528 177.237,236.953 176.334,236.488 175.595C236.05 174.856,235.503 173.981,235.312 173.68C235.12 173.352,234.71 172.722,234.436 172.257C233.15 170.178,232.521 169.193,232.193 168.673C232.001 168.372,231.454 167.469,230.961 166.676C230.469 165.91,229.976 165.062,229.812 164.843C229.675 164.596,229.32 164.049,229.046 163.612C227.405 160.93,227.268 160.766,227.268 160.629C227.268 160.629,227.295 160.602,227.295 160.575C227.295 160.328,227.432 160.109,227.623 160.055C227.705 160.027,228.198 160,228.69 160C229.183 160,229.675 160.027,229.758 160.055C229.894 160.109,229.976 160.192,230.442 160.958C230.688 161.341,231.043 161.943,231.262 162.271C231.481 162.627,231.837 163.201,232.056 163.557C232.275 163.912,232.822 164.788,233.287 165.554C233.752 166.293,234.299 167.141,234.491 167.469C234.682 167.77,235.065 168.4,235.366 168.865C236.625 170.917,237.254 171.929,237.582 172.476C238.376 173.735,239.634 175.759,240.072 176.443C240.318 176.854,240.647 177.374,240.811 177.647C240.975 177.893,241.112 178.112,241.112 178.112C241.112 178.112,241.249 177.893,241.413 177.647C241.577 177.374,241.905 176.854,242.152 176.443C242.562 175.787,243.684 173.981,244.614 172.476C244.806 172.148,245.216 171.519,245.49 171.053C246.775 169.029,247.405 167.989,247.733 167.469C247.925 167.141,248.472 166.293,248.909 165.554C249.375 164.788,249.949 163.912,250.168 163.557C250.387 163.201,250.743 162.627,250.934 162.271C251.153 161.943,251.536 161.341,251.782 160.958C252.247 160.192,252.302 160.109,252.466 160.055C252.548 160.027,252.603 160,252.685 160C252.986 160,253.232 160.246,253.232 160.575C253.232 160.602,253.26 160.629,253.26 160.629C253.26 160.766,253.123 160.93,251.481 163.612C251.208 164.049,250.852 164.596,250.715 164.843C250.551 165.062,250.059 165.91,249.566 166.676C249.074 167.469,248.526 168.372,248.335 168.673C248.007 169.193,247.377 170.178,246.091 172.257C245.818 172.722,245.407 173.352,245.216 173.68C245.024 173.981,244.477 174.856,244.039 175.595C243.574 176.334,243 177.237,242.781 177.592C242.562 177.948,242.206 178.523,241.987 178.851C241.796 179.207,241.413 179.809,241.167 180.192C240.701 180.93,240.647 181.04,240.483 181.095M241.194 173.023C241.112 173.051,241.057 173.051,240.975 173.051C240.811 173.051,240.674 172.996,240.565 172.914C240.483 172.804,233.123 160.93,233.068 160.766C233.041 160.711,233.041 160.657,233.041 160.575C233.041 160.356,233.177 160.109,233.369 160.055C233.451 160.027,233.944 160,234.436 160C234.929 160,235.421 160.027,235.503 160.055C235.667 160.109,235.585 159.973,238.786 165.144C240.428 167.825,241.796 170.014,241.796 170.014C241.823 170.014,243.191 167.825,244.833 165.144C248.034 159.973,247.952 160.109,248.116 160.055C248.198 160.027,248.253 160,248.335 160C248.636 160,248.909 160.274,248.909 160.575C248.909 160.629,248.882 160.711,248.855 160.766C248.8 160.93,241.44 172.804,241.358 172.914C241.303 172.969,241.249 172.996,241.194 173.023M241.686 165.034C241.577 165.062,241.44 165.062,241.331 165.062C240.619 165.062,239.881 164.733,239.416 164.186C238.978 163.721,238.786 163.119,238.786 162.544C238.786 161.724,239.169 160.903,239.881 160.438C240.346 160.137,240.838 160,241.303 160C242.617 160,243.848 161.04,243.848 162.544C243.848 163.803,242.972 164.815,241.686 165.034"/></g></g><g class="vf-stavenote" id="vf-auto2127"><g class="vf-stem" id="vf-auto2128" pointer-events="bounding-box"><path stroke-width="1.5" fill="none" d="M294 121.5L294 155"/></g><g class="vf-notehead" id="vf-auto2130" pointer-events="bounding-box"><path stroke="none" d="M300.355 114.889C300.439 114.889,300.523 114.889,300.664 114.889C301.029 114.889,301.562 114.918,301.759 114.946C304.089 115.283,305.241 116.827,305.241 118.624C305.241 120.534,303.949 122.724,301.366 124.128C300.102 124.802,298.81 125.111,297.631 125.111C295.469 125.111,293.7 124.044,293.335 122.162C293.279 121.881,293.25 121.629,293.25 121.376C293.25 118.343,296.508 115.283,300.355 114.889"/><path stroke="none" d="M298.78 160.055C298.945 160.027,299.109 160,299.246 160C300.504 160,301.571 161.067,301.571 162.326C301.571 162.49,301.544 162.627,301.516 162.791C301.27 163.967,300.258 164.651,299.218 164.651C298.562 164.651,297.905 164.378,297.44 163.803C297.084 163.365,296.92 162.845,296.92 162.353C296.92 161.313,297.631 160.301,298.78 160.055"/><path stroke="none" d="M293.91 170.055C293.965 170.027,296.646 170,299.3 170C301.927 170,304.499 170.027,304.581 170.055C304.8 170.137,304.936 170.356,304.936 170.575C304.936 170.711,304.882 170.876,304.772 170.985C304.608 171.122,305.019 171.149,301.845 171.149C301.161 171.149,300.313 171.149,299.246 171.149C298.179 171.149,297.33 171.149,296.646 171.149C293.473 171.149,293.883 171.122,293.719 170.985C293.609 170.876,293.555 170.711,293.555 170.575C293.555 170.356,293.691 170.137,293.91 170.055"/><path stroke="none" d="M288.986 175.055C289.068 175.027,289.122 175,289.204 175C289.423 175,289.67 175.137,289.724 175.356C289.779 175.465,289.779 175.465,289.779 181.101L289.779 186.737L299.246 186.737L308.712 186.737L308.712 181.101C308.712 175.465,308.712 175.465,308.767 175.356C308.849 175.137,309.068 175,309.287 175C309.506 175,309.724 175.137,309.807 175.356C309.834 175.438,309.861 179.268,309.861 183.126C309.861 186.956,309.834 190.814,309.807 190.869C309.752 191.006,309.615 191.142,309.506 191.197L309.396 191.224L299.246 191.224L289.095 191.224L288.986 191.197C288.876 191.142,288.739 191.006,288.685 190.869C288.657 190.814,288.63 186.956,288.63 183.126C288.63 179.268,288.657 175.438,288.685 175.356C288.739 175.246,288.876 175.109,288.986 175.055M291.804 175.055C291.858 175.027,291.94 175,291.995 175C292.241 175,292.46 175.137,292.542 175.356C292.57 175.438,292.57 175.492,292.57 178.365L292.57 181.265L299.246 181.265L305.921 181.265L305.921 178.365C305.921 177.845,305.921 177.435,305.921 177.079C305.921 175.109,305.921 175.328,306.058 175.164C306.195 175.055,306.332 175,306.469 175C306.687 175,306.906 175.137,306.988 175.356C307.016 175.438,307.043 177.709,307.043 179.952C307.043 182.223,307.016 184.494,306.988 184.549C306.961 184.685,306.824 184.822,306.687 184.877C306.605 184.904,302.939 184.904,299.246 184.904C295.552 184.904,291.886 184.904,291.804 184.877C291.667 184.822,291.53 184.685,291.503 184.549C291.475 184.494,291.448 182.223,291.448 179.952C291.448 177.709,291.475 175.438,291.503 175.356C291.53 175.246,291.667 175.109,291.804 175.055M298.863 175.027C298.999 175,299.109 175,299.246 175C300.039 175,300.887 175.438,301.352 176.122C301.653 176.56,301.79 177.052,301.79 177.544C301.79 178.858,300.75 180.062,299.246 180.062C297.741 180.062,296.701 178.858,296.701 177.544C296.701 177.052,296.838 176.56,297.139 176.122C297.522 175.547,298.151 175.164,298.863 175.027"/></g></g><g class="vf-stavenote" id="vf-auto2138"><g class="vf-stem" id="vf-auto2139" pointer-events="bounding-box"><path stroke-width="1.5" fill="none" d="M363.472 103.5L363.472 70"/></g><g class="vf-notehead" id="vf-auto2141" pointer-events="bounding-box"><path stroke="none" d="M359.337 99.889C359.421 99.889,359.505 99.889,359.645 99.889C360.01 99.889,360.544 99.918,360.741 99.946C363.071 100.283,364.222 101.827,364.222 103.624C364.222 105.534,362.931 107.724,360.347 109.128C359.084 109.802,357.792 110.111,356.613 110.111C354.451 110.111,352.682 109.044,352.317 107.162C352.26 106.881,352.232 106.629,352.232 106.376C352.232 103.343,355.49 100.283,359.337 99.889"/><path stroke="none" d="M357.762 112.729C357.926 112.702,358.091 112.674,358.227 112.674C359.486 112.674,360.553 113.741,360.553 115C360.553 115.164,360.526 115.301,360.498 115.465C360.252 116.642,359.24 117.326,358.2 117.326C357.543 117.326,356.887 117.052,356.422 116.477C356.066 116.04,355.902 115.52,355.902 115.027C355.902 113.988,356.613 112.975,357.762 112.729"/><path stroke="none" d="M352.892 124.48C352.947 124.453,355.628 124.425,358.282 124.425C360.909 124.425,363.481 124.453,363.563 124.48C363.781 124.562,363.918 124.781,363.918 125C363.918 125.137,363.864 125.301,363.754 125.41C363.59 125.547,364 125.575,360.827 125.575C360.143 125.575,359.294 125.575,358.227 125.575C357.16 125.575,356.312 125.575,355.628 125.575C352.454 125.575,352.865 125.547,352.701 125.41C352.591 125.301,352.537 125.137,352.537 125C352.537 124.781,352.673 124.562,352.892 124.48"/><path stroke="none" d="M346.572 135.055C346.627 135.027,346.709 135,346.791 135C346.928 135,347.092 135.055,347.201 135.164C347.338 135.301,347.338 135.383,347.365 135.848C347.584 140.691,352.263 144.384,358.227 144.384C359.076 144.384,359.24 144.384,359.842 144.302C365.067 143.7,368.898 140.171,369.089 135.848C369.117 135.383,369.117 135.301,369.253 135.164C369.363 135.055,369.527 135,369.664 135C369.883 135,370.102 135.137,370.184 135.356C370.211 135.438,370.238 135.575,370.238 135.793C370.238 136.176,370.184 136.751,370.129 137.244C369.39 143.208,364.903 147.613,359.13 148.023C358.829 148.051,358.501 148.078,358.2 148.078C352.372 148.078,347.448 143.892,346.408 137.873C346.298 137.189,346.216 136.313,346.216 135.793C346.216 135.575,346.244 135.438,346.271 135.356C346.298 135.246,346.435 135.109,346.572 135.055M357.844 135.027C357.981 135,358.091 135,358.227 135C359.021 135,359.869 135.438,360.334 136.122C360.635 136.56,360.772 137.052,360.772 137.544C360.772 138.858,359.732 140.062,358.227 140.062C356.723 140.062,355.683 138.858,355.683 137.544C355.683 137.052,355.82 136.56,356.121 136.122C356.504 135.547,357.133 135.164,357.844 135.027"/></g></g><g class="vf-stavenote" id="vf-auto2149"><path stroke-width="1.4" fill="none" stroke="#444" d="M408.214 80L426.204 80"/><g class="vf-stem" id="vf-auto2150" pointer-events="bounding-box"><path stroke-width="1.5" fill="none" d="M411.964 81.5L411.964 115"/></g><g class="vf-notehead" id="vf-auto2152" pointer-events="bounding-box"><path stroke="none" d="M418.318 74.889C418.403 74.889,418.487 74.889,418.627 74.889C418.992 74.889,419.526 74.918,419.722 74.946C422.053 75.283,423.204 76.827,423.204 78.624C423.204 80.534,421.913 82.724,419.329 84.128C418.066 84.802,416.774 85.111,415.595 85.111C413.432 85.111,411.663 84.044,411.298 82.162C411.242 81.881,411.214 81.629,411.214 81.376C411.214 78.343,414.471 75.283,418.318 74.889"/><path stroke="none" d="M416.361 56.949C416.635 56.949,416.936 56.922,417.209 56.922C423.064 56.922,427.989 61.135,429.029 67.127C429.138 67.811,429.22 68.687,429.22 69.207C429.22 69.425,429.193 69.59,429.166 69.644C429.083 69.863,428.865 70,428.646 70C428.509 70,428.345 69.945,428.235 69.836C428.099 69.699,428.099 69.617,428.071 69.179C427.88 64.309,423.174 60.616,417.209 60.616C416.361 60.616,416.197 60.616,415.595 60.698C410.369 61.3,406.539 64.856,406.347 69.179C406.32 69.617,406.32 69.699,406.183 69.836C406.074 69.945,405.91 70,405.773 70C405.554 70,405.335 69.863,405.253 69.644C405.226 69.59,405.198 69.425,405.198 69.207C405.198 68.687,405.28 67.811,405.39 67.127C406.375 61.464,410.807 57.36,416.361 56.949M416.826 64.966C416.963 64.938,417.072 64.938,417.209 64.938C417.893 64.938,418.659 65.267,419.124 65.814C419.535 66.279,419.726 66.881,419.726 67.456C419.726 68.276,419.343 69.097,418.632 69.562C418.194 69.863,417.702 70,417.209 70C415.896 70,414.692 68.96,414.692 67.456C414.692 66.197,415.54 65.185,416.826 64.966"/><path stroke="none" d="M416.744 45.404C416.908 45.376,417.072 45.349,417.209 45.349C418.468 45.349,419.535 46.416,419.535 47.674C419.535 47.839,419.507 47.975,419.48 48.14C419.234 49.316,418.222 50,417.182 50C416.525 50,415.869 49.726,415.403 49.152C415.048 48.714,414.884 48.194,414.884 47.702C414.884 46.662,415.595 45.65,416.744 45.404"/><path stroke="none" d="M411.874 38.906C411.929 38.878,414.61 38.851,417.264 38.851C419.891 38.851,422.462 38.878,422.544 38.906C422.763 38.988,422.9 39.207,422.9 39.425C422.9 39.562,422.845 39.726,422.736 39.836C422.572 39.973,422.982 40,419.808 40C419.124 40,418.276 40,417.209 40C416.142 40,415.294 40,414.61 40C411.436 40,411.847 39.973,411.683 39.836C411.573 39.726,411.518 39.562,411.518 39.425C411.518 39.207,411.655 38.988,411.874 38.906"/></g></g><g class="vf-stavenote" id="vf-auto2160"><g class="vf-stem" id="vf-auto2161" pointer-events="bounding-box"><path stroke-width="1.5" fill="none" d="M481.436 88.5L481.436 55"/></g><g class="vf-notehead" id="vf-auto2163" pointer-events="bounding-box"><path stroke="none" d="M477.3 84.889C477.384 84.889,477.469 84.889,477.609 84.889C477.974 84.889,478.508 84.918,478.704 84.946C481.035 85.283,482.186 86.827,482.186 88.624C482.186 90.534,480.894 92.724,478.311 94.128C477.048 94.802,475.756 95.111,474.576 95.111C472.414 95.111,470.645 94.044,470.28 92.162C470.224 91.881,470.196 91.629,470.196 91.376C470.196 88.343,473.453 85.283,477.3 84.889"/><path stroke="none" d="M475.972 32.654C476.027 32.626,476.109 32.626,476.191 32.626C476.328 32.626,476.492 32.681,476.574 32.791C476.629 32.845,477.149 33.639,478.106 35.198C478.9 36.457,480.733 39.439,482.183 41.819C483.66 44.172,485.275 46.799,485.794 47.647C486.314 48.468,486.752 49.207,486.752 49.234C486.779 49.289,486.779 49.371,486.779 49.425C486.779 49.644,486.643 49.891,486.451 49.945C486.369 49.973,485.877 50,485.384 50C484.892 50,484.399 49.973,484.317 49.945C484.153 49.891,484.153 49.891,482.621 47.428C481.855 46.142,479.994 43.16,478.544 40.807C477.067 38.454,475.753 36.32,475.617 36.074C475.48 35.855,475.343 35.663,475.343 35.663C475.343 35.663,475.233 35.828,475.124 36.019C474.987 36.211,473.893 37.989,472.662 39.986C471.43 41.984,470.254 43.899,470.008 44.282C466.232 50.41,466.56 49.891,466.369 49.945C466.287 49.973,466.232 50,466.15 50C465.849 50,465.603 49.754,465.603 49.425L465.603 49.425C465.603 49.261,465.603 49.234,466.56 47.702C468.886 43.926,469.269 43.297,469.679 42.64C469.926 42.257,470.746 40.916,471.513 39.658C472.935 37.387,474.549 34.733,475.316 33.502C475.753 32.818,475.808 32.708,475.972 32.654M475.808 44.966C475.945 44.938,476.054 44.938,476.191 44.938C476.875 44.938,477.641 45.267,478.106 45.814C478.517 46.279,478.708 46.881,478.708 47.456C478.708 48.276,478.325 49.097,477.614 49.562C477.176 49.863,476.684 50,476.191 50C474.878 50,473.674 48.96,473.674 47.456C473.674 46.197,474.522 45.185,475.808 44.966"/><path stroke="none" d="M475.726 20.404C475.89 20.376,476.054 20.349,476.191 20.349C477.45 20.349,478.517 21.416,478.517 22.674C478.517 22.839,478.489 22.975,478.462 23.14C478.216 24.316,477.203 25,476.164 25C475.507 25,474.85 24.726,474.385 24.152C474.03 23.714,473.865 23.194,473.865 22.702C473.865 21.662,474.577 20.65,475.726 20.404"/><path stroke="none" d="M470.856 13.906C470.911 13.878,473.592 13.851,476.246 13.851C478.872 13.851,481.444 13.878,481.526 13.906C481.745 13.988,481.882 14.207,481.882 14.425C481.882 14.562,481.827 14.726,481.718 14.836C481.554 14.973,481.964 15,478.79 15C478.106 15,477.258 15,476.191 15C475.124 15,474.276 15,473.592 15C470.418 15,470.829 14.973,470.664 14.836C470.555 14.726,470.5 14.562,470.5 14.425C470.5 14.207,470.637 13.988,470.856 13.906"/></g></g><g class="vf-stavenote" id="vf-auto2171"><g class="vf-stem" id="vf-auto2172" pointer-events="bounding-box"><path stroke-width="1.5" fill="none" d="M529.928 111.5L529.928 145"/></g><g class="vf-notehead" id="vf-auto2174" pointer-events="bounding-box"><path stroke="none" d="M536.282 104.889C536.366 104.889,536.451 104.889,536.591 104.889C536.956 104.889,537.49 104.918,537.686 104.946C540.017 105.283,541.168 106.827,541.168 108.624C541.168 110.534,539.876 112.724,537.293 114.128C536.029 114.802,534.738 115.111,533.558 115.111C531.396 115.111,529.627 114.044,529.262 112.162C529.206 111.881,529.178 111.629,529.178 111.376C529.178 108.343,532.435 105.283,536.282 104.889"/><path stroke="none" d="M524.913 71.566C525.022 71.512,525.104 71.512,535.173 71.512L545.323 71.512L545.433 71.566C545.542 71.594,545.679 71.73,545.734 71.867C545.761 71.949,545.761 71.977,545.761 78.242C545.761 79.528,545.761 80.568,545.761 81.388C545.761 85.192,545.761 84.672,545.624 84.836C545.515 84.945,545.351 85,545.214 85C545.132 85,545.077 84.973,544.995 84.945C544.858 84.918,544.722 84.781,544.694 84.644C544.639 84.562,544.639 84.535,544.639 80.294L544.639 75.999L535.173 75.999L525.706 75.999L525.706 80.294C525.706 84.535,525.706 84.562,525.679 84.644C525.57 84.863,525.351 85,525.132 85C524.913 85,524.694 84.863,524.612 84.644C524.585 84.562,524.585 81.416,524.585 78.242C524.585 75.096,524.585 71.949,524.612 71.867C524.667 71.73,524.803 71.594,524.913 71.566M534.79 79.966C534.927 79.938,535.036 79.938,535.173 79.938C535.884 79.938,536.623 80.267,537.088 80.814C537.499 81.279,537.717 81.881,537.717 82.456C537.717 83.276,537.334 84.097,536.596 84.562C536.158 84.863,535.665 85,535.173 85C533.86 85,532.656 83.96,532.656 82.456C532.656 81.197,533.504 80.185,534.79 79.966"/><path stroke="none" d="M534.708 60.404C534.872 60.376,535.036 60.349,535.173 60.349C536.431 60.349,537.499 61.416,537.499 62.674C537.499 62.839,537.471 62.975,537.444 63.14C537.198 64.316,536.185 65,535.146 65C534.489 65,533.832 64.726,533.367 64.152C533.011 63.714,532.847 63.194,532.847 62.702C532.847 61.662,533.559 60.65,534.708 60.404"/><path stroke="none" d="M529.838 53.906C529.892 53.878,532.574 53.851,535.228 53.851C537.854 53.851,540.426 53.878,540.508 53.906C540.727 53.988,540.864 54.207,540.864 54.425C540.864 54.562,540.809 54.726,540.7 54.836C540.535 54.973,540.946 55,537.772 55C537.088 55,536.24 55,535.173 55C534.106 55,533.258 55,532.574 55C529.4 55,529.81 54.973,529.646 54.836C529.537 54.726,529.482 54.562,529.482 54.425C529.482 54.207,529.619 53.988,529.838 53.906"/></g></g><g class="vf-stavenote" id="vf-auto2182"><path stroke-width="1.4" fill="none" stroke="#444" d="M585.16 80L603.15 80"/><g class="vf-stem" id="vf-auto2183" pointer-events="bounding-box"><path stroke-width="1.5" fill="none" d="M588.91 81.5L588.91 115"/></g><g class="vf-notehead" id="vf-auto2185" pointer-events="bounding-box"><path stroke="none" d="M595.264 74.889C595.348 74.889,595.432 74.889,595.573 74.889C595.938 74.889,596.471 74.918,596.668 74.946C598.999 75.283,600.15 76.827,600.15 78.624C600.15 80.534,598.858 82.724,596.275 84.128C595.011 84.802,593.719 85.111,592.54 85.111C590.378 85.111,588.609 84.044,588.244 82.162C588.188 81.881,588.16 81.629,588.16 81.376C588.16 78.343,591.417 75.283,595.264 74.889"/><path stroke="none" d="M593.69 65.404C593.854 65.376,594.018 65.349,594.155 65.349C595.413 65.349,596.48 66.416,596.48 67.674C596.48 67.839,596.453 67.975,596.426 68.14C596.179 69.316,595.167 70,594.127 70C593.471 70,592.814 69.726,592.349 69.152C591.993 68.714,591.829 68.194,591.829 67.702C591.829 66.662,592.541 65.65,593.69 65.404"/><path stroke="none" d="M588.82 58.906C588.874 58.878,591.556 58.851,594.209 58.851C596.836 58.851,599.408 58.878,599.49 58.906C599.709 58.988,599.846 59.207,599.846 59.425C599.846 59.562,599.791 59.726,599.681 59.836C599.517 59.973,599.928 60,596.754 60C596.07 60,595.222 60,594.155 60C593.088 60,592.24 60,591.556 60C588.382 60,588.792 59.973,588.628 59.836C588.519 59.726,588.464 59.562,588.464 59.425C588.464 59.207,588.601 58.988,588.82 58.906"/><path stroke="none" d="M593.936 28.905C593.991 28.878,594.073 28.878,594.155 28.878C594.237 28.878,594.319 28.878,594.374 28.905C594.538 28.96,594.593 29.042,595.058 29.808C595.304 30.191,595.687 30.793,595.878 31.149C596.097 31.477,596.453 32.052,596.672 32.408C596.891 32.763,597.465 33.666,597.93 34.405C598.368 35.144,598.915 36.019,599.107 36.32C599.298 36.648,599.709 37.278,599.982 37.743C601.268 39.822,601.898 40.807,602.226 41.327C602.417 41.628,602.965 42.531,603.457 43.324C603.95 44.09,604.442 44.938,604.606 45.157C604.743 45.404,605.099 45.951,605.372 46.388C607.014 49.07,607.151 49.234,607.151 49.371C607.151 49.371,607.123 49.398,607.123 49.425C607.123 49.672,606.987 49.891,606.795 49.945C606.713 49.973,606.22 50,605.728 50C605.236 50,604.743 49.973,604.661 49.945C604.524 49.891,604.442 49.808,603.977 49.042C603.731 48.659,603.375 48.057,603.156 47.729C602.937 47.373,602.582 46.799,602.363 46.443C602.144 46.088,601.597 45.212,601.132 44.446C600.666 43.707,600.119 42.859,599.928 42.531C599.736 42.23,599.353 41.6,599.052 41.135C597.794 39.083,597.164 38.071,596.836 37.524C596.043 36.265,594.784 34.241,594.346 33.557C594.1 33.146,593.772 32.626,593.608 32.353C593.443 32.107,593.307 31.888,593.307 31.888C593.307 31.888,593.17 32.107,593.006 32.353C592.841 32.626,592.513 33.146,592.267 33.557C591.857 34.213,590.735 36.019,589.805 37.524C589.613 37.852,589.203 38.481,588.929 38.947C587.643 40.971,587.014 42.011,586.685 42.531C586.494 42.859,585.947 43.707,585.509 44.446C585.044 45.212,584.469 46.088,584.25 46.443C584.032 46.799,583.676 47.373,583.484 47.729C583.265 48.057,582.882 48.659,582.636 49.042C582.171 49.808,582.116 49.891,581.952 49.945C581.87 49.973,581.815 50,581.733 50C581.432 50,581.186 49.754,581.186 49.425C581.186 49.398,581.159 49.371,581.159 49.371C581.159 49.234,581.296 49.07,582.937 46.388C583.211 45.951,583.566 45.404,583.703 45.157C583.867 44.938,584.36 44.09,584.852 43.324C585.345 42.531,585.892 41.628,586.084 41.327C586.412 40.807,587.041 39.822,588.327 37.743C588.601 37.278,589.011 36.648,589.203 36.32C589.394 36.019,589.941 35.144,590.379 34.405C590.844 33.666,591.419 32.763,591.638 32.408C591.857 32.052,592.212 31.477,592.431 31.149C592.623 30.793,593.006 30.191,593.252 29.808C593.717 29.07,593.772 28.96,593.936 28.905M593.224 36.977C593.307 36.949,593.361 36.949,593.443 36.949C593.608 36.949,593.744 37.004,593.854 37.086C593.936 37.196,601.296 49.07,601.35 49.234C601.378 49.289,601.378 49.343,601.378 49.425C601.378 49.644,601.241 49.891,601.049 49.945C600.967 49.973,600.475 50,599.982 50C599.49 50,598.997 49.973,598.915 49.945C598.751 49.891,598.833 50.027,595.632 44.856C593.991 42.175,592.623 39.986,592.623 39.986C592.595 39.986,591.227 42.175,589.586 44.856C586.385 50.027,586.467 49.891,586.302 49.945C586.22 49.973,586.166 50,586.084 50C585.783 50,585.509 49.726,585.509 49.425C585.509 49.371,585.536 49.289,585.564 49.234C585.618 49.07,592.978 37.196,593.06 37.086C593.115 37.031,593.17 37.004,593.224 36.977M592.732 44.966C592.841 44.938,592.978 44.938,593.088 44.938C593.799 44.938,594.538 45.267,595.003 45.814C595.441 46.279,595.632 46.881,595.632 47.456C595.632 48.276,595.249 49.097,594.538 49.562C594.073 49.863,593.58 50,593.115 50C591.802 50,590.571 48.96,590.571 47.456C590.571 46.197,591.446 45.185,592.732 44.966"/></g></g><g class="vf-stavenote" id="vf-auto2193"><g class="vf-stem" id="vf-auto2194" pointer-events="bounding-box"><path stroke-width="1.5" fill="none" d="M658.382 88.5L658.382 55"/></g><g class="vf-notehead" id="vf-auto2196" pointer-events="bounding-box"><path stroke="none" d="M654.246 84.889C654.33 84.889,654.414 84.889,654.555 84.889C654.92 84.889,655.453 84.918,655.65 84.946C657.98 85.283,659.132 86.827,659.132 88.624C659.132 90.534,657.84 92.724,655.257 94.128C653.993 94.802,652.701 95.111,651.522 95.111C649.36 95.111,647.591 94.044,647.226 92.162C647.17 91.881,647.141 91.629,647.141 91.376C647.141 88.343,650.399 85.283,654.246 84.889"/><path stroke="none" d="M652.671 45.404C652.836 45.376,653 45.349,653.137 45.349C654.395 45.349,655.462 46.416,655.462 47.674C655.462 47.839,655.435 47.975,655.407 48.14C655.161 49.316,654.149 50,653.109 50C652.453 50,651.796 49.726,651.331 49.152C650.975 48.714,650.811 48.194,650.811 47.702C650.811 46.662,651.522 45.65,652.671 45.404"/><path stroke="none" d="M647.801 38.906C647.856 38.878,650.537 38.851,653.191 38.851C655.818 38.851,658.39 38.878,658.472 38.906C658.691 38.988,658.827 39.207,658.827 39.425C658.827 39.562,658.773 39.726,658.663 39.836C658.499 39.973,658.91 40,655.736 40C655.052 40,654.204 40,653.137 40C652.07 40,651.221 40,650.537 40C647.364 40,647.774 39.973,647.61 39.836C647.5 39.726,647.446 39.562,647.446 39.425C647.446 39.207,647.582 38.988,647.801 38.906"/><path stroke="none" d="M642.877 13.83C642.959 13.776,643.068 13.776,653.137 13.776L663.287 13.776L663.397 13.83C663.506 13.858,663.643 13.994,663.698 14.131C663.725 14.213,663.752 18.044,663.752 21.874C663.752 25.732,663.725 29.562,663.698 29.644C663.615 29.863,663.397 30,663.178 30C662.959 30,662.74 29.863,662.658 29.644C662.603 29.562,662.603 29.535,662.603 23.926L662.603 18.263L653.137 18.263L643.67 18.263L643.67 23.926C643.67 29.535,643.67 29.562,643.615 29.644C643.533 29.863,643.314 30,643.095 30C642.877 30,642.658 29.863,642.576 29.644C642.548 29.562,642.521 25.732,642.521 21.874C642.521 18.044,642.548 14.213,642.576 14.131C642.63 13.994,642.767 13.858,642.877 13.83M645.695 20.123C645.749 20.096,649.498 20.096,653.219 20.096C656.885 20.096,660.496 20.096,660.578 20.123C660.715 20.178,660.852 20.315,660.879 20.451C660.907 20.506,660.934 22.777,660.934 25.048C660.934 27.319,660.907 29.562,660.879 29.644C660.797 29.863,660.578 30,660.36 30C660.223 30,660.086 29.945,659.949 29.836C659.812 29.672,659.812 29.891,659.812 27.921C659.812 27.565,659.812 27.155,659.812 26.662L659.812 23.735L653.137 23.735L646.461 23.735L646.461 26.662C646.461 27.155,646.461 27.565,646.461 27.921C646.461 29.891,646.461 29.672,646.324 29.836C646.187 29.945,646.05 30,645.914 30C645.695 30,645.476 29.863,645.394 29.644C645.366 29.562,645.339 27.319,645.339 25.048C645.339 22.777,645.366 20.506,645.394 20.451C645.421 20.315,645.558 20.178,645.695 20.123M652.754 24.966C652.89 24.938,653 24.938,653.137 24.938C653.821 24.938,654.587 25.267,655.052 25.814C655.462 26.279,655.654 26.881,655.654 27.456C655.654 28.276,655.271 29.097,654.559 29.562C654.122 29.863,653.629 30,653.137 30C651.823 30,650.619 28.96,650.619 27.456C650.619 26.197,651.468 25.185,652.754 24.966"/></g></g><g class="vf-stavenote" id="vf-auto2204"><g class="vf-stem" id="vf-auto2205" pointer-events="bounding-box"><path stroke-width="1.5" fill="none" d="M706.873 111.5L706.873 145"/></g><g class="vf-notehead" id="vf-auto2207" pointer-events="bounding-box"><path stroke="none" d="M713.228 104.889C713.312 104.889,713.396 104.889,713.536 104.889C713.901 104.889,714.435 104.918,714.632 104.946C716.962 105.283,718.113 106.827,718.113 108.624C718.113 110.534,716.822 112.724,714.238 114.128C712.975 114.802,711.683 115.111,710.504 115.111C708.342 115.111,706.573 114.044,706.208 112.162C706.151 111.881,706.123 111.629,706.123 111.376C706.123 108.343,709.381 105.283,713.228 104.889"/><path stroke="none" d="M711.653 92.729C711.817 92.702,711.982 92.674,712.118 92.674C713.377 92.674,714.444 93.741,714.444 95C714.444 95.164,714.417 95.301,714.389 95.465C714.143 96.642,713.131 97.326,712.091 97.326C711.434 97.326,710.778 97.052,710.313 96.477C709.957 96.04,709.793 95.52,709.793 95.027C709.793 93.988,710.504 92.975,711.653 92.729"/><path stroke="none" d="M706.783 83.906C706.838 83.878,709.519 83.851,712.173 83.851C714.8 83.851,717.372 83.878,717.454 83.906C717.672 83.988,717.809 84.207,717.809 84.425C717.809 84.562,717.755 84.726,717.645 84.836C717.481 84.973,717.891 85,714.718 85C714.034 85,713.185 85,712.118 85C711.051 85,710.203 85,709.519 85C706.345 85,706.756 84.973,706.592 84.836C706.482 84.726,706.428 84.562,706.428 84.425C706.428 84.207,706.564 83.988,706.783 83.906"/><path stroke="none" d="M711.27 66.949C711.544 66.949,711.845 66.922,712.118 66.922C717.973 66.922,722.898 71.135,723.938 77.127C724.047 77.811,724.129 78.687,724.129 79.207C724.129 79.425,724.102 79.59,724.075 79.644C723.993 79.863,723.774 80,723.555 80C723.418 80,723.254 79.945,723.144 79.836C723.008 79.699,723.008 79.617,722.98 79.179C722.789 74.309,718.083 70.616,712.118 70.616C711.27 70.616,711.106 70.616,710.504 70.698C705.278 71.3,701.448 74.856,701.256 79.179C701.229 79.617,701.229 79.699,701.092 79.836C700.983 79.945,700.819 80,700.682 80C700.463 80,700.244 79.863,700.162 79.644C700.135 79.59,700.107 79.425,700.107 79.207C700.107 78.687,700.189 77.811,700.299 77.127C701.284 71.464,705.716 67.36,711.27 66.949M711.735 74.966C711.872 74.938,711.982 74.938,712.118 74.938C712.802 74.938,713.568 75.267,714.034 75.814C714.444 76.279,714.636 76.881,714.636 77.456C714.636 78.276,714.252 79.097,713.541 79.562C713.103 79.863,712.611 80,712.118 80C710.805 80,709.601 78.96,709.601 77.456C709.601 76.197,710.449 75.185,711.735 74.966"/></g></g></svg>