<svg xmlns="http://www.w3.org/2000/svg" stroke-width="0.3" stroke-dasharray="none" fill="black" stroke="black" font-family="Arial, sans-serif" font-size="10pt" font-weight="normal" font-style="normal" width="600" height="160" viewBox="0 0 666.6666666666666 177.77777777777777" style="width: 600px; height: 160px; border: none;"><g class="vf-stave" id="vf-auto24219" stroke-width="1" fill="#999999" stroke="#999999" font-family="Arial"><path fill="none" d="M10 70L610 70"/><path fill="none" d="M10 80L610 80"/><path fill="none" d="M10 90L610 90"/><path fill="none" d="M10 100L610 100"/><path fill="none" d="M10 110L610 110"/></g><g class="vf-stavebarline" id="vf-auto24220" font-family="Arial"><rect x="10" y="69.5" width="1" height="41" stroke="none"/></g><g class="vf-stavebarline" id="vf-auto24221" font-family="Arial"><rect x="610" y="69.5" width="1" height="41" stroke="none"/></g><g class="vf-clef" id="vf-auto24222" font-family="Arial"><path stroke="none" d="M28.711 85.844C28.66 85.413,28.711 85.388,28.939 85.16C32.893 81.485,35.883 76.847,35.883 71.246C35.883 68.078,34.996 64.935,33.501 62.756C32.944 61.945,32.006 60.931,31.6 60.931C31.093 60.931,29.953 61.869,29.243 62.68C26.532 65.67,25.644 70.232,25.644 74.034C25.644 76.138,25.923 78.52,26.177 80.015C26.253 80.446,26.278 80.522,25.847 80.902C20.576 85.236,15 90.457,15 97.832C15 104.168,19.334 110.2,28.28 110.2C29.117 110.2,30.08 110.124,30.815 109.972C31.195 109.896,31.271 109.87,31.347 110.301C31.778 112.76,32.335 115.928,32.335 117.651C32.335 123.049,28.686 123.708,26.532 123.708C24.555 123.708,23.617 123.125,23.617 122.644C23.617 122.39,23.946 122.289,24.783 122.01C25.923 121.681,27.216 120.718,27.216 118.589C27.216 116.587,25.949 114.863,23.718 114.863C21.285 114.863,19.815 116.815,19.815 119.07C19.815 121.427,21.235 125.026,26.76 125.026C29.193 125.026,33.932 123.911,33.932 117.727C33.932 115.623,33.273 112.177,32.893 109.896C32.817 109.465,32.842 109.516,33.349 109.287C37.049 107.818,39.482 104.726,39.482 100.594C39.482 95.931,36.061 91.8,30.688 91.8C29.75 91.8,29.75 91.8,29.623 91.141M32.158 66.583C33.349 66.583,34.337 67.571,34.337 69.573C34.337 73.628,30.865 76.923,28.001 79.432C27.748 79.66,27.596 79.61,27.52 79.128C27.368 78.19,27.292 76.949,27.292 75.783C27.292 70.08,29.928 66.583,32.158 66.583M28.179 91.445C28.28 92.13,28.28 92.104,27.621 92.307C24.428 93.397,22.324 96.286,22.324 99.403C22.324 102.673,24.048 105.004,26.532 105.866C26.836 105.967,27.266 106.069,27.52 106.069C27.799 106.069,27.951 105.891,27.951 105.663C27.951 105.41,27.672 105.308,27.419 105.207C25.873 104.548,24.783 102.977,24.783 101.304C24.783 99.201,26.202 97.655,28.432 97.021C29.015 96.869,29.091 96.92,29.167 97.325L30.992 108.198C31.068 108.603,31.017 108.603,30.485 108.705C29.902 108.806,29.167 108.882,28.432 108.882C22.046 108.882,17.915 105.334,17.915 100.265C17.915 98.111,18.295 95.222,21.311 91.8C23.516 89.367,25.188 87.999,26.886 86.63C27.266 86.326,27.343 86.377,27.419 86.757M30.688 97.249C30.612 96.793,30.663 96.692,31.093 96.742C34.059 96.996,36.492 99.479,36.492 102.673C36.492 104.979,35.098 106.829,33.07 107.868C32.639 108.071,32.563 108.071,32.487 107.64"/></g><g class="vf-timesignature" id="vf-auto24223" font-family="Arial"><path stroke="none" d="M67.236 82.619L67.236 75.055C67.236 74.786,67.212 74.468,66.82 74.468C66.502 74.468,66.331 74.541,66.11 74.786L62.757 78.825C62.634 79.021,62.438 79.217,62.438 79.657L62.438 82.619L57.689 82.619C60.504 80.22,66.159 72.215,66.257 71.775L66.282 71.677C66.282 71.359,66.037 71.163,65.768 71.163C65.449 71.163,64.005 71.212,63.369 71.212C62.732 71.212,61.141 71.163,60.872 71.163C60.553 71.163,60.064 71.261,60.064 71.824C60.064 76.181,56.588 81.102,55.535 82.57L55.339 82.864C55.339 82.864,55.339 82.889,55.339 82.889L55.29 82.938C55.217 83.109,55.192 83.231,55.192 83.354C55.192 83.696,55.462 83.941,55.902 83.941L62.438 83.941L62.438 86.169C62.438 87.124,61.679 87.393,61.043 87.393C60.48 87.393,60.235 87.711,60.235 88.078C60.235 88.421,60.358 88.813,60.896 88.813L68.411 88.813C68.754 88.813,69.121 88.568,69.121 88.078C69.121 87.589,68.681 87.368,68.338 87.368C67.995 87.368,67.236 87.148,67.236 86.022L67.236 83.941L69.807 83.941C70.174 83.941,70.345 83.696,70.345 83.28C70.345 82.864,70.198 82.619,69.807 82.619"/><path stroke="none" d="M67.236 102.619L67.236 95.055C67.236 94.786,67.212 94.468,66.82 94.468C66.502 94.468,66.331 94.541,66.11 94.786L62.757 98.825C62.634 99.021,62.438 99.217,62.438 99.657L62.438 102.619L57.689 102.619C60.504 100.22,66.159 92.215,66.257 91.775L66.282 91.677C66.282 91.359,66.037 91.163,65.768 91.163C65.449 91.163,64.005 91.212,63.369 91.212C62.732 91.212,61.141 91.163,60.872 91.163C60.553 91.163,60.064 91.261,60.064 91.824C60.064 96.181,56.588 101.102,55.535 102.57L55.339 102.864C55.339 102.864,55.339 102.889,55.339 102.889L55.29 102.938C55.217 103.109,55.192 103.231,55.192 103.354C55.192 103.696,55.462 103.941,55.902 103.941L62.438 103.941L62.438 106.169C62.438 107.124,61.679 107.393,61.043 107.393C60.48 107.393,60.235 107.711,60.235 108.078C60.235 108.421,60.358 108.813,60.896 108.813L68.411 108.813C68.754 108.813,69.121 108.568,69.121 108.078C69.121 107.589,68.681 107.368,68.338 107.368C67.995 107.368,67.236 107.148,67.236 106.022L67.236 103.941L69.807 103.941C70.174 103.941,70.345 103.696,70.345 103.28C70.345 102.864,70.198 102.619,69.807 102.619"/></g><g class="vf-stavenote" id="vf-auto24227" font-family="Arial"><g class="vf-notehead" id="vf-auto24230" pointer-events="bounding-box"><path stroke="none" d="M87.055 55.676C87.055 54.187,85.847 52.952,84.331 52.952C82.843 52.952,81.635 54.187,81.635 55.676C81.635 56.518,82.113 57.248,82.731 57.726C83.376 58.175,84.135 58.428,84.921 58.428C85.482 58.428,86.044 58.315,86.493 58.147C87.055 57.978,87.42 57.81,87.953 57.529C88.038 57.501,88.094 57.501,88.15 57.501C88.318 57.501,88.347 57.641,88.347 57.866C88.347 57.978,88.347 58.147,88.318 58.315C88.178 58.905,85.286 66.964,84.556 69.631C84.556 70.109,85.482 70.137,85.707 70.137C86.156 70.137,86.718 70.081,87.139 69.744C87.251 69.66,91.211 55.479,91.211 55.479C91.379 54.749,91.576 54.103,91.632 53.907C91.632 53.485,91.211 53.289,91.126 53.261C91.07 53.261,90.93 53.261,90.705 53.401C90.396 53.654,88.375 56.069,87.055 56.069"/></g></g><g class="vf-stavenote" id="vf-auto24231" font-family="Arial"><g class="vf-notehead" id="vf-auto24234" pointer-events="bounding-box"><path stroke="none" d="M132.352 60.676C132.352 59.187,131.145 57.952,129.628 57.952C128.14 57.952,126.933 59.187,126.933 60.676C126.933 61.518,127.41 62.248,128.028 62.726C128.674 63.175,129.432 63.428,130.218 63.428C130.78 63.428,131.341 63.315,131.79 63.147C132.352 62.978,132.717 62.81,133.251 62.529C133.335 62.501,133.391 62.501,133.447 62.501C133.616 62.501,133.644 62.641,133.644 62.866C133.644 62.978,133.644 63.147,133.616 63.315C133.475 63.905,130.583 71.964,129.853 74.631C129.853 75.109,130.78 75.137,131.004 75.137C131.453 75.137,132.015 75.081,132.436 74.744C132.549 74.66,136.508 60.479,136.508 60.479C136.676 59.749,136.873 59.103,136.929 58.907C136.929 58.485,136.508 58.289,136.424 58.261C136.367 58.261,136.227 58.261,136.002 58.401C135.694 58.654,133.672 61.069,132.352 61.069"/></g></g><g class="vf-stavenote" id="vf-auto24235" font-family="Arial"><g class="vf-notehead" id="vf-auto24239" pointer-events="bounding-box"><path stroke="none" d="M176.161 95.054C179.755 95.054,184.164 91.741,184.164 88.315C184.164 86.237,182.535 84.946,180.232 84.946C175.796 84.946,172.23 88.231,172.23 91.685C172.23 93.791,173.971 95.054,176.161 95.054"/></g></g><g class="vf-stavenote" id="vf-auto24241" font-family="Arial"><g class="vf-notehead" id="vf-auto24244" pointer-events="bounding-box"><path stroke="none" d="M222.946 55.676C222.946 54.187,221.739 52.952,220.222 52.952C218.734 52.952,217.527 54.187,217.527 55.676C217.527 56.518,218.004 57.248,218.622 57.726C219.268 58.175,220.026 58.428,220.812 58.428C221.374 58.428,221.935 58.315,222.385 58.147C222.946 57.978,223.311 57.81,223.845 57.529C223.929 57.501,223.985 57.501,224.041 57.501C224.21 57.501,224.238 57.641,224.238 57.866C224.238 57.978,224.238 58.147,224.21 58.315C224.069 58.905,221.177 66.964,220.447 69.631C220.447 70.109,221.374 70.137,221.598 70.137C222.048 70.137,222.609 70.081,223.03 69.744C223.143 69.66,227.102 55.479,227.102 55.479C227.271 54.749,227.467 54.103,227.523 53.907C227.523 53.485,227.102 53.289,227.018 53.261C226.962 53.261,226.821 53.261,226.597 53.401C226.288 53.654,224.266 56.069,222.946 56.069"/></g></g><g class="vf-stavenote" id="vf-auto24245" font-family="Arial"><g class="vf-notehead" id="vf-auto24249" pointer-events="bounding-box"><path stroke="none" d="M266.755 70.054C270.349 70.054,274.758 66.741,274.758 63.315C274.758 61.237,273.129 59.946,270.827 59.946C266.39 59.946,262.824 63.231,262.824 66.685C262.824 68.791,264.565 70.054,266.755 70.054"/></g></g><g class="vf-stavenote" id="vf-auto24251" font-family="Arial"><path stroke-width="1.4" fill="none" stroke="#444" d="M305.121 60L323.055 60"/><g class="vf-notehead" id="vf-auto24255" pointer-events="bounding-box"><path stroke="none" d="M312.052 60.054C315.646 60.054,320.055 56.741,320.055 53.315C320.055 51.237,318.426 49.946,316.124 49.946C311.687 49.946,308.121 53.231,308.121 56.685C308.121 58.791,309.862 60.054,312.052 60.054"/></g></g><g class="vf-stavenote" id="vf-auto24257" font-family="Arial"><path stroke-width="1.4" fill="none" stroke="#444" d="M350.418 60L368.352 60"/><g class="vf-notehead" id="vf-auto24261" pointer-events="bounding-box"><path stroke="none" d="M357.349 65.054C360.944 65.054,365.352 61.741,365.352 58.315C365.352 56.237,363.724 54.946,361.421 54.946C356.984 54.946,353.418 58.231,353.418 61.685C353.418 63.791,355.159 65.054,357.349 65.054"/></g></g><g class="vf-stavenote" id="vf-auto24263" font-family="Arial"><g class="vf-notehead" id="vf-auto24266" pointer-events="bounding-box"><path stroke="none" d="M404.135 60.676C404.135 59.187,402.927 57.952,401.411 57.952C399.923 57.952,398.715 59.187,398.715 60.676C398.715 61.518,399.193 62.248,399.81 62.726C400.456 63.175,401.214 63.428,402.001 63.428C402.562 63.428,403.124 63.315,403.573 63.147C404.135 62.978,404.5 62.81,405.033 62.529C405.118 62.501,405.174 62.501,405.23 62.501C405.398 62.501,405.426 62.641,405.426 62.866C405.426 62.978,405.426 63.147,405.398 63.315C405.258 63.905,402.366 71.964,401.636 74.631C401.636 75.109,402.562 75.137,402.787 75.137C403.236 75.137,403.798 75.081,404.219 74.744C404.331 74.66,408.291 60.479,408.291 60.479C408.459 59.749,408.656 59.103,408.712 58.907C408.712 58.485,408.291 58.289,408.206 58.261C408.15 58.261,408.01 58.261,407.785 58.401C407.476 58.654,405.454 61.069,404.135 61.069"/></g></g><g class="vf-stavenote" id="vf-auto24267" font-family="Arial"><g class="vf-notehead" id="vf-auto24271" pointer-events="bounding-box"><path stroke="none" d="M447.944 95.054C451.538 95.054,455.946 91.741,455.946 88.315C455.946 86.237,454.318 84.946,452.015 84.946C447.579 84.946,444.012 88.231,444.012 91.685C444.012 93.791,445.753 95.054,447.944 95.054"/></g></g><g class="vf-stavenote" id="vf-auto24273" font-family="Arial"><path stroke-width="1.4" fill="none" stroke="#444" d="M486.31 60L504.244 60"/><g class="vf-notehead" id="vf-auto24277" pointer-events="bounding-box"><path stroke="none" d="M493.241 65.054C496.835 65.054,501.244 61.741,501.244 58.315C501.244 56.237,499.615 54.946,497.312 54.946C492.876 54.946,489.31 58.231,489.31 61.685C489.31 63.791,491.05 65.054,493.241 65.054"/></g></g><g class="vf-stavenote" id="vf-auto24279" font-family="Arial"><g class="vf-notehead" id="vf-auto24282" pointer-events="bounding-box"><path stroke="none" d="M540.026 60.676C540.026 59.187,538.819 57.952,537.302 57.952C535.814 57.952,534.607 59.187,534.607 60.676C534.607 61.518,535.084 62.248,535.702 62.726C536.348 63.175,537.106 63.428,537.892 63.428C538.454 63.428,539.015 63.315,539.464 63.147C540.026 62.978,540.391 62.81,540.925 62.529C541.009 62.501,541.065 62.501,541.121 62.501C541.29 62.501,541.318 62.641,541.318 62.866C541.318 62.978,541.318 63.147,541.29 63.315C541.149 63.905,538.257 71.964,537.527 74.631C537.527 75.109,538.454 75.137,538.678 75.137C539.128 75.137,539.689 75.081,540.11 74.744C540.223 74.66,544.182 60.479,544.182 60.479C544.35 59.749,544.547 59.103,544.603 58.907C544.603 58.485,544.182 58.289,544.098 58.261C544.042 58.261,543.901 58.261,543.676 58.401C543.368 58.654,541.346 61.069,540.026 61.069"/></g></g><g class="vf-stavenote" id="vf-auto24283" font-family="Arial"><g class="vf-notehead" id="vf-auto24301" pointer-events="bounding-box"><path stroke="none" d="M585.323 60.676C585.323 59.187,584.116 57.952,582.599 57.952C581.111 57.952,579.904 59.187,579.904 60.676C579.904 61.518,580.381 62.248,580.999 62.726C581.645 63.175,582.403 63.428,583.189 63.428C583.751 63.428,584.312 63.315,584.762 63.147C585.323 62.978,585.688 62.81,586.222 62.529C586.306 62.501,586.362 62.501,586.418 62.501C586.587 62.501,586.615 62.641,586.615 62.866C586.615 62.978,586.615 63.147,586.587 63.315C586.446 63.905,583.554 71.964,582.824 74.631C582.824 75.109,583.751 75.137,583.975 75.137C584.425 75.137,584.986 75.081,585.407 74.744C585.52 74.66,589.479 60.479,589.479 60.479C589.648 59.749,589.844 59.103,589.9 58.907C589.9 58.485,589.479 58.289,589.395 58.261C589.339 58.261,589.198 58.261,588.974 58.401C588.665 58.654,586.643 61.069,585.323 61.069"/></g></g><path stroke="none" d="M130.329 128.678C130.298 128.678,130.282 128.678,130.234 128.678L130.076 128.647C130.044 128.647,130.013 128.647,129.981 128.647C128.017 128.647,126.053 129.961,126.053 131.165C126.053 131.91,126.496 132.924,127.906 133.003L128.017 133.003C129.031 133.003,129.522 132.274,129.522 131.53L129.522 131.34C129.458 130.5,128.888 130.453,128.777 130.405C128.666 130.357,128.318 130.405,128.318 130.088L128.318 129.993C128.365 129.613,129.078 129.423,129.268 129.423C131.216 129.423,131.391 130.643,131.391 131.181L131.391 131.34C131.391 133.034,130.044 133.7,128.619 133.763C128.381 133.779,128.064 133.906,128.064 134.143C128.064 134.428,128.46 134.428,128.635 134.428C131.264 134.428,131.47 136.202,131.47 136.503C131.47 138.911,130.234 139.196,129.727 139.196C129.648 139.196,129.553 139.165,129.522 139.165C129.347 139.149,128.904 139.149,128.888 138.8L128.888 138.689C128.888 138.182,129.395 137.85,129.411 137.185C129.411 136.234,128.745 135.537,127.763 135.537C127.684 135.537,127.605 135.537,127.526 135.569C127.13 135.632,126.702 135.854,126.417 136.155C126.037 136.503,125.926 137.042,125.926 137.549C125.973 139.323,127.589 140.02,129.823 140.052L130.028 140.052C132.294 140.052,134.606 138.895,134.606 136.884L134.606 136.725C134.575 136.06,134.4 135.632,133.973 135.125C133.83 134.951,133.656 134.793,133.434 134.65L132.943 134.381L132.199 134.175C132.088 134.143,132.008 134.143,131.961 134.064C131.945 134.017,131.945 133.985,131.945 133.953C131.945 133.858,131.961 133.763,132.04 133.747C132.294 133.668,132.531 133.652,132.737 133.541C133.656 133.098,134.131 132.512,134.131 131.466C134.131 129.36,131.28 128.742,130.329 128.678"/><path stroke="none" d="M266.221 123.678C266.189 123.678,266.173 123.678,266.126 123.678L265.967 123.647C265.936 123.647,265.904 123.647,265.872 123.647C263.908 123.647,261.944 124.961,261.944 126.165C261.944 126.91,262.387 127.924,263.797 128.003L263.908 128.003C264.922 128.003,265.413 127.274,265.413 126.53L265.413 126.34C265.35 125.5,264.779 125.453,264.668 125.405C264.558 125.357,264.209 125.405,264.209 125.088L264.209 124.993C264.257 124.613,264.969 124.423,265.159 124.423C267.108 124.423,267.282 125.643,267.282 126.181L267.282 126.34C267.282 128.034,265.936 128.7,264.51 128.763C264.272 128.779,263.956 128.906,263.956 129.143C263.956 129.428,264.352 129.428,264.526 129.428C267.155 129.428,267.361 131.202,267.361 131.503C267.361 133.911,266.126 134.196,265.619 134.196C265.54 134.196,265.445 134.165,265.413 134.165C265.239 134.149,264.795 134.149,264.779 133.8L264.779 133.689C264.779 133.182,265.286 132.85,265.302 132.185C265.302 131.234,264.637 130.537,263.655 130.537C263.575 130.537,263.496 130.537,263.417 130.569C263.021 130.632,262.593 130.854,262.308 131.155C261.928 131.503,261.817 132.042,261.817 132.549C261.865 134.323,263.48 135.02,265.714 135.052L265.92 135.052C268.185 135.052,270.498 133.895,270.498 131.884L270.498 131.725C270.466 131.06,270.292 130.632,269.864 130.125C269.721 129.951,269.547 129.793,269.325 129.65L268.834 129.381L268.09 129.175C267.979 129.143,267.9 129.143,267.852 129.064C267.836 129.017,267.836 128.985,267.836 128.953C267.836 128.858,267.852 128.763,267.931 128.747C268.185 128.668,268.423 128.652,268.628 128.541C269.547 128.098,270.022 127.512,270.022 126.466C270.022 124.36,267.171 123.742,266.221 123.678"/><path stroke="none" d="M399.988 128.678C399.956 128.678,399.94 128.678,399.893 128.678L399.735 128.647C399.703 128.647,399.671 128.647,399.64 128.647C397.675 128.647,395.711 129.961,395.711 131.165C395.711 131.91,396.155 132.924,397.564 133.003L397.675 133.003C398.689 133.003,399.18 132.274,399.18 131.53L399.18 131.34C399.117 130.5,398.547 130.453,398.436 130.405C398.325 130.357,397.976 130.405,397.976 130.088L397.976 129.993C398.024 129.613,398.737 129.423,398.927 129.423C400.875 129.423,401.049 130.643,401.049 131.181L401.049 131.34C401.049 133.034,399.703 133.7,398.277 133.763C398.04 133.779,397.723 133.906,397.723 134.143C397.723 134.428,398.119 134.428,398.293 134.428C400.923 134.428,401.128 136.202,401.128 136.503C401.128 138.911,399.893 139.196,399.386 139.196C399.307 139.196,399.212 139.165,399.18 139.165C399.006 139.149,398.562 139.149,398.547 138.8L398.547 138.689C398.547 138.182,399.053 137.85,399.069 137.185C399.069 136.234,398.404 135.537,397.422 135.537C397.343 135.537,397.264 135.537,397.184 135.569C396.788 135.632,396.361 135.854,396.076 136.155C395.695 136.503,395.584 137.042,395.584 137.549C395.632 139.323,397.248 140.02,399.481 140.052L399.687 140.052C401.952 140.052,404.265 138.895,404.265 136.884L404.265 136.725C404.233 136.06,404.059 135.632,403.631 135.125C403.489 134.951,403.314 134.793,403.093 134.65L402.602 134.381L401.857 134.175C401.746 134.143,401.667 134.143,401.62 134.064C401.604 134.017,401.604 133.985,401.604 133.953C401.604 133.858,401.62 133.763,401.699 133.747C401.952 133.668,402.19 133.652,402.396 133.541C403.314 133.098,403.79 132.512,403.79 131.466C403.79 129.36,400.938 128.742,399.988 128.678"/><path stroke="none" d="M538.003 123.678C537.972 123.678,537.956 123.678,537.908 123.678L537.75 123.647C537.718 123.647,537.687 123.647,537.655 123.647C535.691 123.647,533.727 124.961,533.727 126.165C533.727 126.91,534.17 127.924,535.58 128.003L535.691 128.003C536.705 128.003,537.196 127.274,537.196 126.53L537.196 126.34C537.132 125.5,536.562 125.453,536.451 125.405C536.34 125.357,535.992 125.405,535.992 125.088L535.992 124.993C536.039 124.613,536.752 124.423,536.942 124.423C538.891 124.423,539.065 125.643,539.065 126.181L539.065 126.34C539.065 128.034,537.718 128.7,536.293 128.763C536.055 128.779,535.738 128.906,535.738 129.143C535.738 129.428,536.134 129.428,536.309 129.428C538.938 129.428,539.144 131.202,539.144 131.503C539.144 133.911,537.908 134.196,537.402 134.196C537.322 134.196,537.227 134.165,537.196 134.165C537.021 134.149,536.578 134.149,536.562 133.8L536.562 133.689C536.562 133.182,537.069 132.85,537.085 132.185C537.085 131.234,536.419 130.537,535.437 130.537C535.358 130.537,535.279 130.537,535.2 130.569C534.804 130.632,534.376 130.854,534.091 131.155C533.711 131.503,533.6 132.042,533.6 132.549C533.647 134.323,535.263 135.02,537.497 135.052L537.703 135.052C539.968 135.052,542.28 133.895,542.28 131.884L542.28 131.725C542.249 131.06,542.074 130.632,541.647 130.125C541.504 129.951,541.33 129.793,541.108 129.65L540.617 129.381L539.873 129.175C539.762 129.143,539.683 129.143,539.635 129.064C539.619 129.017,539.619 128.985,539.619 128.953C539.619 128.858,539.635 128.763,539.714 128.747C539.968 128.668,540.205 128.652,540.411 128.541C541.33 128.098,541.805 127.512,541.805 126.466C541.805 124.36,538.954 123.742,538.003 123.678"/><g class="vf-stem" id="vf-auto24236" pointer-events="bounding-box" font-family="Arial"><path stroke-width="1.5" fill="none" d="M172.98 92L172.98 124.25"/></g><g class="vf-beam" id="vf-auto24287" font-family="Arial"><path stroke="none" d="M85.884 103.226L85.884 98.226L173.23 119.813L173.23 124.813Z"/></g><g class="vf-stem" id="vf-auto24246" pointer-events="bounding-box" font-family="Arial"><path stroke-width="1.5" fill="none" d="M263.574 67L263.574 99.25"/></g><g class="vf-stem" id="vf-auto24252" pointer-events="bounding-box" font-family="Arial"><path stroke-width="1.5" fill="none" d="M308.871 57L308.871 98.118"/></g><g class="vf-beam" id="vf-auto24288" font-family="Arial"><path stroke="none" d="M221.775 101.045L221.775 96.045L309.121 93.886L309.121 98.886Z"/></g><g class="vf-stem" id="vf-auto24258" pointer-events="bounding-box" font-family="Arial"><path stroke-width="1.5" fill="none" d="M354.168 62L354.168 101.601"/></g><g class="vf-stem" id="vf-auto24268" pointer-events="bounding-box" font-family="Arial"><path stroke-width="1.5" fill="none" d="M444.762 92L444.762 124.25"/></g><g class="vf-beam" id="vf-auto24289" font-family="Arial"><path stroke="none" d="M353.418 102.164L353.418 97.164L445.012 119.813L445.012 124.813Z"/></g><g class="vf-stem" id="vf-auto24274" pointer-events="bounding-box" font-family="Arial"><path stroke-width="1.5" fill="none" d="M490.06 62L490.06 98.011"/></g><g class="vf-beam" id="vf-auto24290" font-family="Arial"><path stroke="none" d="M489.31 98.743L489.31 93.743L585.152 96.114L585.152 101.114Z"/></g></svg>