<svg xmlns="http://www.w3.org/2000/svg" stroke-width="0.3" stroke-dasharray="none" fill="black" stroke="black" font-family="Arial, sans-serif" font-size="10pt" font-weight="normal" font-style="normal" width="700" height="130" viewBox="0 0 700 130" style="width: 700px; height: 130px; border: none;"><g class="vf-stave" id="vf-auto11589" stroke-width="1" fill="#999999" stroke="#999999"><path fill="none" d="M10 50L660 50"/><path fill="none" d="M10 60L660 60"/><path fill="none" d="M10 70L660 70"/><path fill="none" d="M10 80L660 80"/><path fill="none" d="M10 90L660 90"/></g><g class="vf-stavebarline" id="vf-auto11590"><rect x="10" y="49.5" width="1" height="41" stroke="none"/></g><g class="vf-stavebarline" id="vf-auto11591"><rect x="660" y="49.5" width="1" height="41" stroke="none"/></g><g class="vf-stavenote" id="vf-auto11599"><g class="vf-stem" id="vf-auto11600" pointer-events="bounding-box"><path stroke-width="1.5" fill="none" d="M53.503 67L53.503 100"/></g><g class="vf-notehead" id="vf-auto11602" pointer-events="bounding-box"><path stroke="none" d="M56.684 70.054C60.278 70.054,64.687 66.741,64.687 63.315C64.687 61.237,63.058 59.946,60.756 59.946C56.319 59.946,52.753 63.231,52.753 66.685C52.753 68.791,54.494 70.054,56.684 70.054"/><g class="vf-stavenote" id="vf-auto11592"><g class="vf-stem" id="vf-auto11593" pointer-events="bounding-box"><path stroke-width="1.5" fill="none" d="M36.126 68L36.126 49.9"/></g><g class="vf-notehead" id="vf-auto11598" pointer-events="bounding-box"><path stroke="none" d="M31.595 73.336C33.967 73.336,36.876 71.149,36.876 68.888C36.876 67.517,35.802 66.664,34.282 66.664C31.354 66.664,29 68.832,29 71.112C29 72.502,30.149 73.336,31.595 73.336"/></g><path stroke="none" d="M41.733 65.99C41.733 65.99,42.419 63.451,42.419 61.357C42.419 58.021,41.029 54.889,39.361 52.22C37.99 50.108,36.878 47.81,36.451 45.252C36.359 44.826,36.155 44.659,35.877 44.659C35.599 44.659,35.376 44.733,35.376 45.067L35.376 51.442C37.137 51.757,39.676 55.39,40.64 57.651C41.029 58.559,41.27 60.078,41.27 61.654C41.27 62.858,41.085 64.119,40.64 65.323C40.584 65.471,40.547 65.601,40.547 65.712C40.547 66.139,40.825 66.38,40.973 66.491C41.14 66.602,41.603 66.435,41.733 65.99"/></g></g></g><g class="vf-stavenote" id="vf-auto11605"><g class="vf-stem" id="vf-auto11606" pointer-events="bounding-box"><path stroke-width="1.5" fill="none" d="M160.018 67L160.018 100"/></g><g class="vf-notehead" id="vf-auto11608" pointer-events="bounding-box"><path stroke="none" d="M163.199 70.054C166.793 70.054,171.202 66.741,171.202 63.315C171.202 61.237,169.573 59.946,167.271 59.946C162.834 59.946,159.268 63.231,159.268 66.685C159.268 68.791,161.009 70.054,163.199 70.054"/><g class="vf-stavenote" id="vf-auto11592"><g class="vf-stem" id="vf-auto11593" pointer-events="bounding-box"><path stroke-width="1.5" fill="none" d="M142.641 68L142.641 49.9"/></g><g class="vf-notehead" id="vf-auto11598" pointer-events="bounding-box"><path stroke="none" d="M138.109 73.336C140.482 73.336,143.391 71.149,143.391 68.888C143.391 67.517,142.316 66.664,140.797 66.664C137.869 66.664,135.515 68.832,135.515 71.112C135.515 72.502,136.664 73.336,138.109 73.336"/></g><path stroke="none" d="M148.248 65.99C148.248 65.99,148.934 63.451,148.934 61.357C148.934 58.021,147.544 54.889,145.876 52.22C144.504 50.108,143.392 47.81,142.966 45.252C142.874 44.826,142.67 44.659,142.392 44.659C142.114 44.659,141.891 44.733,141.891 45.067L141.891 51.442C143.652 51.757,146.191 55.39,147.155 57.651C147.544 58.559,147.785 60.078,147.785 61.654C147.785 62.858,147.599 64.119,147.155 65.323C147.099 65.471,147.062 65.601,147.062 65.712C147.062 66.139,147.34 66.38,147.488 66.491C147.655 66.602,148.118 66.435,148.248 65.99"/></g><path stroke="none" d="M170.953 55.944C171.856 55.944,171.911 55.506,171.911 54.986C171.911 54.494,171.911 54.056,170.953 54.056L159.489 54.056C158.559 54.056,158.559 54.494,158.559 54.986C158.559 55.506,158.559 55.944,159.489 55.944"/></g></g><g class="vf-stavenote" id="vf-auto11614"><g class="vf-stem" id="vf-auto11615" pointer-events="bounding-box"><path stroke-width="1.5" fill="none" d="M266.533 67L266.533 100"/></g><g class="vf-notehead" id="vf-auto11617" pointer-events="bounding-box"><path stroke="none" d="M269.714 70.054C273.308 70.054,277.717 66.741,277.717 63.315C277.717 61.237,276.088 59.946,273.785 59.946C269.349 59.946,265.783 63.231,265.783 66.685C265.783 68.791,267.524 70.054,269.714 70.054"/><g class="vf-stavenote" id="vf-auto11592"><g class="vf-stem" id="vf-auto11593" pointer-events="bounding-box"><path stroke-width="1.5" fill="none" d="M233.334 68L233.334 49.9"/></g><g class="vf-notehead" id="vf-auto11598" pointer-events="bounding-box"><path stroke="none" d="M228.802 73.336C231.174 73.336,234.084 71.149,234.084 68.888C234.084 67.517,233.009 66.664,231.489 66.664C228.561 66.664,226.207 68.832,226.207 71.112C226.207 72.502,227.357 73.336,228.802 73.336"/></g><path stroke="none" d="M238.941 65.99C238.941 65.99,239.626 63.451,239.626 61.357C239.626 58.021,238.236 54.889,236.568 52.22C235.197 50.108,234.085 47.81,233.659 45.252C233.566 44.826,233.362 44.659,233.084 44.659C232.806 44.659,232.584 44.733,232.584 45.067L232.584 51.442C234.345 51.757,236.884 55.39,237.847 57.651C238.236 58.559,238.477 60.078,238.477 61.654C238.477 62.858,238.292 64.119,237.847 65.323C237.792 65.471,237.755 65.601,237.755 65.712C237.755 66.139,238.033 66.38,238.181 66.491C238.348 66.602,238.811 66.435,238.941 65.99"/></g><path stroke="none" d="M277.468 55.944C278.371 55.944,278.425 55.506,278.425 54.986C278.425 54.494,278.425 54.056,277.468 54.056L266.004 54.056C265.074 54.056,265.074 54.494,265.074 54.986C265.074 55.506,265.074 55.944,266.004 55.944"/><path stroke="none" d="M262.29 60.349C262.564 60.239,262.783 59.911,262.783 59.692L262.783 56.874C262.783 56.683,262.646 56.573,262.482 56.573C262.427 56.573,262.372 56.573,262.29 56.6C262.29 56.6,261.497 56.929,261.305 56.956C261.032 56.956,260.758 56.765,260.758 56.464L260.758 51.648C260.758 51.402,260.512 51.211,260.211 51.211C259.828 51.211,259.581 51.402,259.581 51.648L259.581 56.765C259.527 57.148,259.417 57.668,259.062 57.914C258.597 58.187,257.256 58.735,256.572 58.899C256.244 58.899,256.107 58.434,256.107 58.105L256.107 53.372C256.107 53.153,255.833 52.934,255.56 52.934C255.177 52.934,254.93 53.153,254.93 53.372L254.93 58.707C254.93 59.254,254.684 59.637,254.465 59.747C254.219 59.884,253.425 60.185,253.425 60.185C253.152 60.267,252.96 60.595,252.96 60.814L252.96 63.632C252.96 63.851,253.07 63.988,253.316 63.988L253.398 63.933C253.425 63.933,254.027 63.687,254.328 63.55L254.383 63.495C254.684 63.495,254.93 63.906,254.93 64.207L254.93 68.119C254.93 68.557,254.739 68.912,254.493 69.022C254.274 69.104,253.425 69.46,253.425 69.46C253.152 69.542,252.96 69.843,252.96 70.089L252.96 72.88C252.96 73.126,253.07 73.235,253.316 73.235L253.398 73.208C253.425 73.208,253.973 72.962,254.328 72.852C254.383 72.798,254.41 72.798,254.465 72.798C254.739 72.798,254.93 73.235,254.93 73.427L254.93 78.27C254.93 78.516,255.177 78.707,255.45 78.707C255.833 78.707,256.107 78.516,256.107 78.27L256.107 72.798C256.107 72.278,256.298 72.004,256.517 71.922L258.897 70.937C258.897 70.937,258.952 70.937,258.952 70.937L259.034 70.91C259.39 70.91,259.581 71.375,259.581 71.621L259.581 76.546C259.581 76.792,259.828 76.984,260.101 76.984C260.512 76.984,260.758 76.792,260.758 76.546L260.758 70.937C260.758 70.636,260.922 70.171,261.196 70.034C261.469 69.925,262.29 69.596,262.29 69.596C262.564 69.487,262.783 69.186,262.783 68.94L262.783 66.149C262.783 65.958,262.646 65.821,262.482 65.821C262.427 65.821,262.372 65.821,262.29 65.876L261.278 66.259C261.032 66.259,260.758 66.012,260.758 65.547L260.758 61.881C260.758 61.607,260.949 60.869,261.278 60.732M259.581 66.778C259.335 67.572,257.502 68.338,256.572 68.338C256.353 68.338,256.161 68.283,256.107 68.146C256.025 67.982,255.997 67.134,255.997 66.176C255.997 64.973,256.025 63.577,256.107 63.276C256.189 62.592,257.995 61.772,258.98 61.772C259.253 61.772,259.499 61.854,259.581 62.018C259.664 62.209,259.746 63.194,259.746 64.261C259.746 65.328,259.664 66.423,259.581 66.778"/></g></g><g class="vf-stavenote" id="vf-auto11625"><g class="vf-stem" id="vf-auto11626" pointer-events="bounding-box"><path stroke-width="1.5" fill="none" d="M373.047 67L373.047 100"/></g><g class="vf-notehead" id="vf-auto11628" pointer-events="bounding-box"><path stroke="none" d="M376.229 70.054C379.823 70.054,384.231 66.741,384.231 63.315C384.231 61.237,382.603 59.946,380.3 59.946C375.864 59.946,372.297 63.231,372.297 66.685C372.297 68.791,374.038 70.054,376.229 70.054"/><g class="vf-stavenote" id="vf-auto11592"><g class="vf-stem" id="vf-auto11593" pointer-events="bounding-box"><path stroke-width="1.5" fill="none" d="M342.006 68L342.006 49.9"/></g><g class="vf-notehead" id="vf-auto11598" pointer-events="bounding-box"><path stroke="none" d="M337.474 73.336C339.846 73.336,342.756 71.149,342.756 68.888C342.756 67.517,341.681 66.664,340.161 66.664C337.233 66.664,334.879 68.832,334.879 71.112C334.879 72.502,336.028 73.336,337.474 73.336"/></g><path stroke="none" d="M347.613 65.99C347.613 65.99,348.298 63.451,348.298 61.357C348.298 58.021,346.908 54.889,345.24 52.22C343.869 50.108,342.757 47.81,342.331 45.252C342.238 44.826,342.034 44.659,341.756 44.659C341.478 44.659,341.256 44.733,341.256 45.067L341.256 51.442C343.017 51.757,345.555 55.39,346.519 57.651C346.908 58.559,347.149 60.078,347.149 61.654C347.149 62.858,346.964 64.119,346.519 65.323C346.464 65.471,346.427 65.601,346.427 65.712C346.427 66.139,346.705 66.38,346.853 66.491C347.02 66.602,347.483 66.435,347.613 65.99"/></g><path stroke="none" d="M383.983 55.944C384.886 55.944,384.94 55.506,384.94 54.986C384.94 54.494,384.94 54.056,383.983 54.056L372.519 54.056C371.589 54.056,371.589 54.494,371.589 54.986C371.589 55.506,371.589 55.944,372.519 55.944"/><g class="vf-annotation" id="vf-auto11634"><text stroke="none" x="358.632" y="45">words</text></g></g></g><g class="vf-stavenote" id="vf-auto11635"><g class="vf-stem" id="vf-auto11636" pointer-events="bounding-box"><path stroke-width="1.5" fill="none" d="M479.562 67L479.562 100"/></g><g class="vf-notehead" id="vf-auto11638" pointer-events="bounding-box"><path stroke="none" d="M482.744 70.054C486.338 70.054,490.746 66.741,490.746 63.315C490.746 61.237,489.118 59.946,486.815 59.946C482.379 59.946,478.812 63.231,478.812 66.685C478.812 68.791,480.553 70.054,482.744 70.054"/><g class="vf-stavenote" id="vf-auto11592"><g class="vf-stem" id="vf-auto11593" pointer-events="bounding-box"><path stroke-width="1.5" fill="none" d="M462.186 68L462.186 49.9"/></g><g class="vf-notehead" id="vf-auto11598" pointer-events="bounding-box"><path stroke="none" d="M457.654 73.336C460.026 73.336,462.936 71.149,462.936 68.888C462.936 67.517,461.861 66.664,460.341 66.664C457.413 66.664,455.059 68.832,455.059 71.112C455.059 72.502,456.209 73.336,457.654 73.336"/></g><path stroke="none" d="M467.793 65.99C467.793 65.99,468.478 63.451,468.478 61.357C468.478 58.021,467.088 54.889,465.42 52.22C464.049 50.108,462.937 47.81,462.511 45.252C462.418 44.826,462.214 44.659,461.936 44.659C461.658 44.659,461.436 44.733,461.436 45.067L461.436 51.442C463.197 51.757,465.736 55.39,466.699 57.651C467.088 58.559,467.329 60.078,467.329 61.654C467.329 62.858,467.144 64.119,466.699 65.323C466.644 65.471,466.607 65.601,466.607 65.712C466.607 66.139,466.885 66.38,467.033 66.491C467.2 66.602,467.663 66.435,467.793 65.99"/></g><path stroke="none" d="M490.498 55.944C491.4 55.944,491.455 55.506,491.455 54.986C491.455 54.494,491.455 54.056,490.498 54.056L479.034 54.056C478.104 54.056,478.104 54.494,478.104 54.986C478.104 55.506,478.104 55.944,479.034 55.944"/><path stroke="none" d="M490.935 40.896C491.455 40.759,491.455 40.486,491.455 40.185C491.455 39.856,491.455 39.637,490.935 39.473L479.116 35.451C478.979 35.424,478.815 35.369,478.76 35.369C478.432 35.369,478.295 35.616,478.186 35.916C478.131 36.081,478.104 36.19,478.104 36.327C478.104 36.518,478.213 36.71,478.651 36.874C478.651 36.874,487.16 39.747,487.57 39.911C487.762 39.938,487.844 40.075,487.844 40.185C487.844 40.294,487.762 40.376,487.515 40.458C487.078 40.568,478.651 43.44,478.651 43.44C478.213 43.659,478.104 43.851,478.104 44.042C478.104 44.152,478.131 44.289,478.186 44.398C478.295 44.672,478.459 45,478.733 45C478.76 45,478.842 45,478.897 44.945"/></g></g><g class="vf-stavenote" id="vf-auto11647"><g class="vf-stem" id="vf-auto11648" pointer-events="bounding-box"><path stroke-width="1.5" fill="none" d="M586.077 67L586.077 100"/></g><g class="vf-notehead" id="vf-auto11650" pointer-events="bounding-box"><path stroke="none" d="M589.258 70.054C592.853 70.054,597.261 66.741,597.261 63.315C597.261 61.237,595.633 59.946,593.33 59.946C588.893 59.946,585.327 63.231,585.327 66.685C585.327 68.791,587.068 70.054,589.258 70.054"/><g class="vf-stavenote" id="vf-auto11592"><g class="vf-stem" id="vf-auto11593" pointer-events="bounding-box"><path stroke-width="1.5" fill="none" d="M568.701 68L568.701 49.9"/></g><g class="vf-notehead" id="vf-auto11598" pointer-events="bounding-box"><path stroke="none" d="M564.169 73.336C566.541 73.336,569.451 71.149,569.451 68.888C569.451 67.517,568.376 66.664,566.856 66.664C563.928 66.664,561.574 68.832,561.574 71.112C561.574 72.502,562.723 73.336,564.169 73.336"/></g><path stroke="none" d="M574.308 65.99C574.308 65.99,574.993 63.451,574.993 61.357C574.993 58.021,573.603 54.889,571.935 52.22C570.564 50.108,569.452 47.81,569.026 45.252C568.933 44.826,568.729 44.659,568.451 44.659C568.173 44.659,567.951 44.733,567.951 45.067L567.951 51.442C569.711 51.757,572.25 55.39,573.214 57.651C573.603 58.559,573.844 60.078,573.844 61.654C573.844 62.858,573.659 64.119,573.214 65.323C573.159 65.471,573.121 65.601,573.121 65.712C573.121 66.139,573.399 66.38,573.548 66.491C573.714 66.602,574.178 66.435,574.308 65.99"/></g><path stroke="none" d="M597.012 55.944C597.915 55.944,597.97 55.506,597.97 54.986C597.97 54.494,597.97 54.056,597.012 54.056L585.549 54.056C584.618 54.056,584.618 54.494,584.618 54.986C584.618 55.506,584.618 55.944,585.549 55.944"/><path stroke="none" d="M597.45 40.896C597.97 40.759,597.97 40.486,597.97 40.185C597.97 39.856,597.97 39.637,597.45 39.473L585.631 35.451C585.494 35.424,585.33 35.369,585.275 35.369C584.947 35.369,584.81 35.616,584.7 35.916C584.646 36.081,584.618 36.19,584.618 36.327C584.618 36.518,584.728 36.71,585.166 36.874C585.166 36.874,593.675 39.747,594.085 39.911C594.276 39.938,594.359 40.075,594.359 40.185C594.359 40.294,594.276 40.376,594.03 40.458C593.592 40.568,585.166 43.44,585.166 43.44C584.728 43.659,584.618 43.851,584.618 44.042C584.618 44.152,584.646 44.289,584.7 44.398C584.81 44.672,584.974 45,585.248 45C585.275 45,585.357 45,585.412 44.945"/><path stroke="none" d="M591.445 21.19C599.844 21.19,601.541 27.401,601.924 28.906C601.951 29.015,601.951 29.152,602.006 29.179C602.279 29.726,602.443 30,602.826 30C603.182 30,603.374 29.863,603.374 29.453C603.374 29.343,603.374 29.234,603.346 29.07C600.884 17.004,592.676 16.922,591.527 16.922C590.268 16.922,582.115 17.004,579.707 29.07C579.653 29.234,579.653 29.371,579.653 29.508C579.653 29.891,579.871 30,580.172 30C580.528 30,580.72 29.726,580.966 29.179C580.993 29.152,581.048 28.988,581.075 28.824C581.54 27.209,583.319 21.19,591.445 21.19M593.661 27.839C593.661 26.689,592.676 25.704,591.472 25.704C590.35 25.704,589.365 26.689,589.365 27.839C589.365 29.015,590.35 30,591.472 30C592.676 30,593.661 29.015,593.661 27.839"/></g></g></svg>