<svg xmlns="http://www.w3.org/2000/svg" stroke-width="0.3" stroke-dasharray="none" fill="black" stroke="black" font-family="Arial, sans-serif" font-size="10pt" font-weight="normal" font-style="normal" width="800" height="160" viewBox="0 0 800 160" style="width: 800px; height: 160px; border: none;"><g class="vf-stave" id="vf-auto37492" stroke-width="1" fill="#999999" stroke="#999999"><path fill="none" d="M10 50L985 50"/><path fill="none" d="M10 60L985 60"/><path fill="none" d="M10 70L985 70"/><path fill="none" d="M10 80L985 80"/><path fill="none" d="M10 90L985 90"/></g><g class="vf-stavebarline" id="vf-auto37493"><rect x="10" y="49.5" width="1" height="41" stroke="none"/></g><g class="vf-stavebarline" id="vf-auto37494"><rect x="985" y="49.5" width="1" height="41" stroke="none"/></g><g class="vf-stavenote" id="vf-auto37495"><g class="vf-stem" id="vf-auto37496" pointer-events="bounding-box"><path stroke-width="1.5" fill="none" d="M27.75 57L27.75 90"/></g><g class="vf-notehead" id="vf-auto37498" pointer-events="bounding-box"><path stroke="none" d="M27 56.685C27 58.426,28.264 60.391,31.521 60.391C35.733 60.391,40.141 56.938,40.141 53.371C40.141 50.985,38.12 49.665,35.621 49.665C31.689 49.665,27 52.978,27 56.685"/><path stroke="none" d="M47.141 55 A2 2 0 0 0 43.141 55 A2 2 0 0 0 47.141 55"/></g></g><g class="vf-stavenote" id="vf-auto37499"><g class="vf-stem" id="vf-auto37500" pointer-events="bounding-box"><path stroke-width="1.5" fill="none" d="M92.75 57L92.75 87"/></g><g class="vf-notehead" id="vf-auto37503" pointer-events="bounding-box"><path stroke="none" d="M92 56.685C92 58.426,93.264 60.391,96.521 60.391C100.733 60.391,105.141 56.938,105.141 53.371C105.141 50.985,103.12 49.665,100.621 49.665C96.689 49.665,92 52.978,92 56.685"/><path stroke="none" d="M112.141 55 A2 2 0 0 0 108.141 55 A2 2 0 0 0 112.141 55"/></g><path stroke="none" d="M92 91.972C92 92.253,92.253 92.477,92.534 92.477C92.73 92.477,92.983 92.337,93.011 92.168C93.011 92.112,93.376 90.708,93.404 90.596C93.46 90.428,93.825 88.883,95.285 86.496C96.858 83.885,99.273 81.975,101.294 79.139C103.288 76.303,104.496 73.636,104.496 70.098C104.496 66.391,103.653 63.33,101.491 59.399C101.379 59.118,101.126 58.978,100.901 58.978C100.817 58.978,100.733 58.978,100.705 59.006C100.48 59.09,100.424 59.259,100.424 59.483C100.424 59.624,100.452 59.82,100.536 59.989C102.137 63.723,102.783 65.886,102.783 68.778C102.783 72.147,101.631 73.888,100.901 75.152C98.262 79.617,94.022 81.807,92.337 82.369C92.028 82.509,92 82.706,92 82.818"/></g><g class="vf-stavenote" id="vf-auto37505"><g class="vf-stem" id="vf-auto37506" pointer-events="bounding-box"><path stroke-width="1.5" fill="none" d="M157.75 57L157.75 87"/></g><g class="vf-notehead" id="vf-auto37509" pointer-events="bounding-box"><path stroke="none" d="M157 56.685C157 58.426,158.264 60.391,161.521 60.391C165.733 60.391,170.141 56.938,170.141 53.371C170.141 50.985,168.12 49.665,165.621 49.665C161.689 49.665,157 52.978,157 56.685"/><path stroke="none" d="M177.141 55 A2 2 0 0 0 173.141 55 A2 2 0 0 0 177.141 55"/></g><path stroke="none" d="M158.488 82.284C158.544 82.088,158.572 81.919,158.572 81.807C158.853 80.796,159.19 79.308,161.577 77.483C163.908 75.657,166.716 73.411,167.783 71.445C167.727 74.562,166.94 76.5,165.901 77.876C163.43 80.908,160.426 81.779,158.488 82.284M157 92.393C157 92.73,157.281 93.039,157.618 93.039C157.927 93.039,158.123 92.73,158.207 92.393C158.825 88.237,160.061 87.03,161.689 85.485C163.823 83.436,169.496 80.319,169.496 72.821C169.496 71.502,169.383 70.013,169.131 68.497C169.299 67.992,169.383 67.262,169.383 66.194C169.383 63.021,167.502 60.775,166.182 59.736C166.014 59.624,165.761 59.54,165.536 59.54C165.368 59.54,165.199 59.568,165.059 59.652C164.89 59.736,164.834 59.764,164.834 59.848C164.834 59.989,165.087 60.129,165.256 60.298C166.66 61.786,167.727 63.162,167.727 65.886C167.727 66.391,167.67 66.925,167.502 67.402L167.474 67.542C167.474 67.542,167.474 67.542,167.474 67.542C167.277 68.357,166.828 69.115,166.182 69.845C163.346 73.13,159.415 74.815,157.618 75.208C157.337 75.349,157 76.219,157 76.303"/></g><g class="vf-stavenote" id="vf-auto37511"><g class="vf-stem" id="vf-auto37512" pointer-events="bounding-box"><path stroke-width="1.5" fill="none" d="M222.75 57L222.75 96"/></g><g class="vf-notehead" id="vf-auto37515" pointer-events="bounding-box"><path stroke="none" d="M222 56.685C222 58.426,223.264 60.391,226.521 60.391C230.733 60.391,235.141 56.938,235.141 53.371C235.141 50.985,233.12 49.665,230.621 49.665C226.689 49.665,222 52.978,222 56.685"/><path stroke="none" d="M242.141 55 A2 2 0 0 0 238.141 55 A2 2 0 0 0 242.141 55"/></g><path stroke="none" d="M223.404 89.95C223.629 89.052,223.994 88.041,224.555 87.198C226.072 84.952,229.638 83.099,231.744 80.712C232.137 80.263,232.502 79.785,232.783 79.252C232.783 82.256,232.137 83.941,231.098 85.289C228.599 88.35,225.426 89.36,223.404 89.95M226.577 77.483C228.964 75.461,231.182 73.973,232.277 72.541C232.446 72.344,232.586 72.119,232.727 71.895C232.755 72.119,232.755 72.344,232.755 72.541C232.755 74.562,232.081 76.219,230.817 77.82C229.245 79.757,227.026 81.049,223.488 82.369C223.544 82.144,223.572 81.919,223.572 81.807C223.853 80.768,224.274 79.392,226.577 77.483M222 100.087C222 100.368,222.281 100.733,222.618 100.733C222.927 100.733,223.123 100.424,223.207 100.087C223.825 95.875,225.061 94.668,226.689 93.123C228.823 91.101,234.496 87.985,234.496 80.515C234.496 79.027,234.327 77.398,234.102 75.798C234.215 75.096,234.327 74.422,234.383 73.72C234.383 73.523,234.383 73.271,234.383 73.046C234.383 72.906,234.383 72.793,234.383 72.709C234.383 71.502,234.159 70.322,233.934 69.311C234.215 68.413,234.383 67.402,234.383 66.194C234.383 63.021,232.502 60.775,231.182 59.736C231.014 59.624,230.817 59.54,230.564 59.54C230.424 59.54,230.199 59.568,230.059 59.652C229.89 59.736,229.834 59.764,229.834 59.848C229.834 59.989,230.087 60.101,230.256 60.298C231.66 61.786,232.727 63.162,232.727 65.886C232.727 67.374,232.221 68.637,231.182 69.845C228.346 73.13,224.415 74.815,222.618 75.208C222.337 75.349,222 76.219,222 76.303"/></g><g class="vf-stavenote" id="vf-auto37517"><g class="vf-stem" id="vf-auto37518" pointer-events="bounding-box"><path stroke-width="1.5" fill="none" d="M287.75 57L287.75 100"/></g><g class="vf-notehead" id="vf-auto37521" pointer-events="bounding-box"><path stroke="none" d="M287 56.685C287 58.426,288.264 60.391,291.521 60.391C295.733 60.391,300.141 56.938,300.141 53.371C300.141 50.985,298.12 49.665,295.621 49.665C291.689 49.665,287 52.978,287 56.685"/><path stroke="none" d="M307.141 55 A2 2 0 0 0 303.141 55 A2 2 0 0 0 307.141 55"/></g><path stroke="none" d="M288.46 97.504C288.657 96.661,288.994 95.678,289.555 94.864C291.072 92.646,294.638 90.736,296.744 88.406C297.137 87.928,297.502 87.423,297.783 86.946C297.783 89.866,297.137 91.551,296.098 92.842C293.599 95.931,290.482 96.942,288.46 97.504M291.577 77.483C293.964 75.461,296.182 73.916,297.277 72.541C297.446 72.316,297.586 72.119,297.727 71.867C297.755 72.119,297.755 72.316,297.755 72.541C297.755 74.562,297.081 76.219,295.817 77.82C294.245 79.701,292.026 81.049,288.488 82.369C288.544 82.144,288.572 81.919,288.572 81.807C288.853 80.768,289.274 79.392,291.577 77.483M295.817 85.485C294.245 87.423,292.026 88.715,288.404 90.062C288.572 89.136,288.938 88.069,289.555 87.198C291.072 84.952,294.638 83.071,296.744 80.712C297.109 80.319,297.446 79.869,297.727 79.392C297.755 79.673,297.755 79.954,297.755 80.206C297.755 82.228,297.081 83.913,295.817 85.485M287 107.641C287 107.921,287.281 108.286,287.618 108.286C287.927 108.286,288.123 107.921,288.207 107.641C288.825 103.457,290.061 102.221,291.689 100.705C293.823 98.683,299.496 95.51,299.496 88.069C299.496 86.609,299.327 85.008,299.102 83.379C299.243 82.706,299.327 82.06,299.383 81.414C299.383 81.133,299.383 80.852,299.383 80.6C299.383 80.487,299.383 80.403,299.383 80.263C299.383 78.971,299.131 77.763,298.878 76.668C299.131 75.657,299.299 74.647,299.383 73.72C299.383 73.467,299.383 73.271,299.383 73.046C299.383 72.906,299.383 72.793,299.383 72.681C299.383 71.502,299.159 70.322,298.934 69.311C299.215 68.413,299.383 67.402,299.383 66.194C299.383 63.021,297.502 60.775,296.182 59.736C296.014 59.624,295.817 59.54,295.564 59.483C295.424 59.483,295.199 59.54,295.059 59.652C294.89 59.68,294.834 59.764,294.834 59.848C294.834 59.989,295.087 60.101,295.256 60.298C296.66 61.786,297.727 63.162,297.727 65.886C297.727 67.374,297.221 68.637,296.182 69.845C293.346 73.13,289.415 74.815,287.618 75.208C287.337 75.349,287 76.191,287 76.303"/></g><g class="vf-stavenote" id="vf-auto37523"><g class="vf-stem" id="vf-auto37524" pointer-events="bounding-box"><path stroke-width="1.5" fill="none" d="M352.75 57L352.75 109"/></g><g class="vf-notehead" id="vf-auto37527" pointer-events="bounding-box"><path stroke="none" d="M352 56.685C352 58.426,353.264 60.391,356.521 60.391C360.733 60.391,365.141 56.938,365.141 53.371C365.141 50.985,363.12 49.665,360.621 49.665C356.689 49.665,352 52.978,352 56.685"/><path stroke="none" d="M372.141 55 A2 2 0 0 0 368.141 55 A2 2 0 0 0 372.141 55"/></g><path stroke="none" d="M352 115.25C352 115.531,352.281 115.896,352.618 115.896C352.927 115.896,353.123 115.587,353.207 115.25C353.825 111.038,355.061 109.831,356.689 108.286C358.823 106.265,364.496 103.148,364.496 95.678C364.496 94.218,364.327 92.618,364.102 90.989C364.243 90.315,364.327 89.613,364.383 88.967C364.383 88.715,364.383 88.434,364.383 88.153C364.383 88.069,364.383 87.956,364.383 87.872C364.383 86.581,364.131 85.373,363.878 84.278C364.159 83.295,364.299 82.34,364.383 81.414C364.383 81.133,364.383 80.88,364.383 80.6C364.383 80.487,364.383 80.403,364.383 80.263C364.383 78.971,364.131 77.763,363.878 76.668C364.131 75.657,364.299 74.703,364.383 73.776C364.383 73.523,364.383 73.271,364.383 73.046C364.383 72.906,364.383 72.793,364.383 72.709C364.383 71.502,364.159 70.322,363.934 69.311C364.215 68.413,364.383 67.402,364.383 66.194C364.383 63.021,362.502 60.775,361.182 59.736C361.014 59.624,360.761 59.54,360.536 59.54C360.368 59.54,360.199 59.568,360.059 59.652C359.89 59.736,359.834 59.764,359.834 59.848C359.834 59.989,360.087 60.129,360.256 60.298C361.66 61.786,362.727 63.162,362.727 65.886C362.727 67.374,362.221 68.637,361.182 69.845C358.346 73.13,354.415 74.815,352.618 75.208C352.337 75.349,352 76.219,352 76.303M360.817 93.039C359.245 95.005,357.026 96.296,353.404 97.616C353.629 96.717,353.994 95.707,354.555 94.864C356.072 92.646,359.638 90.736,361.744 88.406C362.109 87.985,362.446 87.507,362.727 87.058C362.755 87.311,362.755 87.507,362.755 87.76C362.755 89.782,362.081 91.466,360.817 93.039M360.817 85.485C359.245 87.423,357.026 88.715,353.404 90.062C353.572 89.164,353.938 88.125,354.555 87.198C356.072 84.952,359.638 83.099,361.744 80.712C362.109 80.319,362.446 79.869,362.727 79.392C362.755 79.673,362.755 79.954,362.755 80.206C362.755 82.256,362.081 83.913,360.817 85.485M356.577 77.483C358.964 75.461,361.182 73.973,362.277 72.541C362.446 72.344,362.586 72.119,362.727 71.895C362.755 72.119,362.755 72.344,362.755 72.541C362.727 74.562,362.081 76.275,360.817 77.82C359.245 79.757,357.026 81.049,353.488 82.369C353.544 82.172,353.572 81.975,353.572 81.807C353.853 80.796,354.274 79.392,356.577 77.483M353.46 105.113C353.657 104.215,353.994 103.288,354.555 102.446C356.072 100.199,359.638 98.318,361.744 95.959C362.137 95.51,362.502 95.033,362.783 94.499C362.727 97.448,362.137 99.16,361.098 100.452C358.599 103.513,355.426 104.524,353.46 105.113"/></g><g class="vf-stavenote" id="vf-auto37529"><g class="vf-stem" id="vf-auto37530" pointer-events="bounding-box"><path stroke-width="1.5" fill="none" d="M417.75 62L417.75 95"/></g><g class="vf-notehead" id="vf-auto37532" pointer-events="bounding-box"><path stroke="none" d="M417 61.685C417 63.426,418.264 65.391,421.521 65.391C425.733 65.391,430.141 61.938,430.141 58.371C430.141 55.985,428.12 54.665,425.621 54.665C421.689 54.665,417 57.978,417 61.685"/><path stroke="none" d="M437.141 55 A2 2 0 0 0 433.141 55 A2 2 0 0 0 437.141 55"/></g></g><g class="vf-stavenote" id="vf-auto37533"><g class="vf-stem" id="vf-auto37534" pointer-events="bounding-box"><path stroke-width="1.5" fill="none" d="M482.75 62L482.75 92"/></g><g class="vf-notehead" id="vf-auto37537" pointer-events="bounding-box"><path stroke="none" d="M482 61.685C482 63.426,483.264 65.391,486.521 65.391C490.733 65.391,495.141 61.938,495.141 58.371C495.141 55.985,493.12 54.665,490.621 54.665C486.689 54.665,482 57.978,482 61.685"/><path stroke="none" d="M502.141 55 A2 2 0 0 0 498.141 55 A2 2 0 0 0 502.141 55"/></g><path stroke="none" d="M482 96.972C482 97.253,482.253 97.477,482.534 97.477C482.73 97.477,482.983 97.337,483.011 97.168C483.011 97.112,483.376 95.708,483.404 95.596C483.46 95.428,483.825 93.883,485.285 91.496C486.858 88.885,489.273 86.975,491.294 84.139C493.288 81.303,494.496 78.636,494.496 75.098C494.496 71.391,493.653 68.33,491.491 64.399C491.379 64.118,491.126 63.978,490.901 63.978C490.817 63.978,490.733 63.978,490.705 64.006C490.48 64.09,490.424 64.259,490.424 64.483C490.424 64.624,490.452 64.82,490.536 64.989C492.137 68.723,492.783 70.886,492.783 73.778C492.783 77.147,491.631 78.888,490.901 80.152C488.262 84.617,484.022 86.807,482.337 87.369C482.028 87.509,482 87.706,482 87.818"/></g><g class="vf-stavenote" id="vf-auto37539"><g class="vf-stem" id="vf-auto37540" pointer-events="bounding-box"><path stroke-width="1.5" fill="none" d="M547.75 62L547.75 92"/></g><g class="vf-notehead" id="vf-auto37543" pointer-events="bounding-box"><path stroke="none" d="M547 61.685C547 63.426,548.264 65.391,551.521 65.391C555.733 65.391,560.141 61.938,560.141 58.371C560.141 55.985,558.12 54.665,555.621 54.665C551.689 54.665,547 57.978,547 61.685"/><path stroke="none" d="M567.141 55 A2 2 0 0 0 563.141 55 A2 2 0 0 0 567.141 55"/></g><path stroke="none" d="M548.488 87.284C548.544 87.088,548.572 86.919,548.572 86.807C548.853 85.796,549.19 84.308,551.577 82.483C553.908 80.657,556.716 78.411,557.783 76.445C557.727 79.562,556.94 81.5,555.901 82.876C553.43 85.908,550.426 86.779,548.488 87.284M547 97.393C547 97.73,547.281 98.039,547.618 98.039C547.927 98.039,548.123 97.73,548.207 97.393C548.825 93.237,550.061 92.03,551.689 90.485C553.823 88.436,559.496 85.319,559.496 77.821C559.496 76.502,559.383 75.013,559.131 73.497C559.299 72.992,559.383 72.262,559.383 71.194C559.383 68.021,557.502 65.775,556.182 64.736C556.014 64.624,555.761 64.54,555.536 64.54C555.368 64.54,555.199 64.568,555.059 64.652C554.89 64.736,554.834 64.764,554.834 64.848C554.834 64.989,555.087 65.129,555.256 65.298C556.66 66.786,557.727 68.162,557.727 70.886C557.727 71.391,557.67 71.925,557.502 72.402L557.474 72.542C557.474 72.542,557.474 72.542,557.474 72.542C557.277 73.357,556.828 74.115,556.182 74.845C553.346 78.13,549.415 79.815,547.618 80.208C547.337 80.349,547 81.219,547 81.303"/></g><g class="vf-stavenote" id="vf-auto37545"><g class="vf-stem" id="vf-auto37546" pointer-events="bounding-box"><path stroke-width="1.5" fill="none" d="M612.75 62L612.75 101"/></g><g class="vf-notehead" id="vf-auto37549" pointer-events="bounding-box"><path stroke="none" d="M612 61.685C612 63.426,613.264 65.391,616.521 65.391C620.733 65.391,625.141 61.938,625.141 58.371C625.141 55.985,623.12 54.665,620.621 54.665C616.689 54.665,612 57.978,612 61.685"/><path stroke="none" d="M632.141 55 A2 2 0 0 0 628.141 55 A2 2 0 0 0 632.141 55"/></g><path stroke="none" d="M613.404 94.95C613.629 94.052,613.994 93.041,614.555 92.198C616.072 89.952,619.638 88.099,621.744 85.712C622.137 85.263,622.502 84.785,622.783 84.252C622.783 87.256,622.137 88.941,621.098 90.289C618.599 93.35,615.426 94.36,613.404 94.95M616.577 82.483C618.964 80.461,621.182 78.973,622.277 77.541C622.446 77.344,622.586 77.119,622.727 76.895C622.755 77.119,622.755 77.344,622.755 77.541C622.755 79.562,622.081 81.219,620.817 82.82C619.245 84.757,617.026 86.049,613.488 87.369C613.544 87.144,613.572 86.919,613.572 86.807C613.853 85.768,614.274 84.392,616.577 82.483M612 105.087C612 105.368,612.281 105.733,612.618 105.733C612.927 105.733,613.123 105.424,613.207 105.087C613.825 100.875,615.061 99.668,616.689 98.123C618.823 96.101,624.496 92.985,624.496 85.515C624.496 84.027,624.327 82.398,624.102 80.798C624.215 80.096,624.327 79.422,624.383 78.72C624.383 78.523,624.383 78.271,624.383 78.046C624.383 77.906,624.383 77.793,624.383 77.709C624.383 76.502,624.159 75.322,623.934 74.311C624.215 73.413,624.383 72.402,624.383 71.194C624.383 68.021,622.502 65.775,621.182 64.736C621.014 64.624,620.817 64.54,620.564 64.54C620.424 64.54,620.199 64.568,620.059 64.652C619.89 64.736,619.834 64.764,619.834 64.848C619.834 64.989,620.087 65.101,620.256 65.298C621.66 66.786,622.727 68.162,622.727 70.886C622.727 72.374,622.221 73.637,621.182 74.845C618.346 78.13,614.415 79.815,612.618 80.208C612.337 80.349,612 81.219,612 81.303"/></g><g class="vf-stavenote" id="vf-auto37551"><g class="vf-stem" id="vf-auto37552" pointer-events="bounding-box"><path stroke-width="1.5" fill="none" d="M677.75 62L677.75 105"/></g><g class="vf-notehead" id="vf-auto37555" pointer-events="bounding-box"><path stroke="none" d="M677 61.685C677 63.426,678.264 65.391,681.521 65.391C685.733 65.391,690.141 61.938,690.141 58.371C690.141 55.985,688.12 54.665,685.621 54.665C681.689 54.665,677 57.978,677 61.685"/><path stroke="none" d="M697.141 55 A2 2 0 0 0 693.141 55 A2 2 0 0 0 697.141 55"/></g><path stroke="none" d="M678.46 102.504C678.657 101.661,678.994 100.678,679.555 99.864C681.072 97.646,684.638 95.736,686.744 93.406C687.137 92.928,687.502 92.423,687.783 91.946C687.783 94.866,687.137 96.551,686.098 97.842C683.599 100.931,680.482 101.942,678.46 102.504M681.577 82.483C683.964 80.461,686.182 78.916,687.277 77.541C687.446 77.316,687.586 77.119,687.727 76.867C687.755 77.119,687.755 77.316,687.755 77.541C687.755 79.562,687.081 81.219,685.817 82.82C684.245 84.701,682.026 86.049,678.488 87.369C678.544 87.144,678.572 86.919,678.572 86.807C678.853 85.768,679.274 84.392,681.577 82.483M685.817 90.485C684.245 92.423,682.026 93.715,678.404 95.062C678.572 94.136,678.938 93.069,679.555 92.198C681.072 89.952,684.638 88.071,686.744 85.712C687.109 85.319,687.446 84.869,687.727 84.392C687.755 84.673,687.755 84.954,687.755 85.206C687.755 87.228,687.081 88.913,685.817 90.485M677 112.641C677 112.921,677.281 113.286,677.618 113.286C677.927 113.286,678.123 112.921,678.207 112.641C678.825 108.457,680.061 107.221,681.689 105.705C683.823 103.683,689.496 100.51,689.496 93.069C689.496 91.609,689.327 90.008,689.102 88.379C689.243 87.706,689.327 87.06,689.383 86.414C689.383 86.133,689.383 85.852,689.383 85.6C689.383 85.487,689.383 85.403,689.383 85.263C689.383 83.971,689.131 82.763,688.878 81.668C689.131 80.657,689.299 79.647,689.383 78.72C689.383 78.467,689.383 78.271,689.383 78.046C689.383 77.906,689.383 77.793,689.383 77.681C689.383 76.502,689.159 75.322,688.934 74.311C689.215 73.413,689.383 72.402,689.383 71.194C689.383 68.021,687.502 65.775,686.182 64.736C686.014 64.624,685.817 64.54,685.564 64.483C685.424 64.483,685.199 64.54,685.059 64.652C684.89 64.68,684.834 64.764,684.834 64.848C684.834 64.989,685.087 65.101,685.256 65.298C686.66 66.786,687.727 68.162,687.727 70.886C687.727 72.374,687.221 73.637,686.182 74.845C683.346 78.13,679.415 79.815,677.618 80.208C677.337 80.349,677 81.191,677 81.303"/></g><g class="vf-stavenote" id="vf-auto37557"><g class="vf-stem" id="vf-auto37558" pointer-events="bounding-box"><path stroke-width="1.5" fill="none" d="M742.75 62L742.75 114"/></g><g class="vf-notehead" id="vf-auto37561" pointer-events="bounding-box"><path stroke="none" d="M742 61.685C742 63.426,743.264 65.391,746.521 65.391C750.733 65.391,755.141 61.938,755.141 58.371C755.141 55.985,753.12 54.665,750.621 54.665C746.689 54.665,742 57.978,742 61.685"/><path stroke="none" d="M762.141 55 A2 2 0 0 0 758.141 55 A2 2 0 0 0 762.141 55"/></g><path stroke="none" d="M742 120.25C742 120.531,742.281 120.896,742.618 120.896C742.927 120.896,743.123 120.587,743.207 120.25C743.825 116.038,745.061 114.831,746.689 113.286C748.823 111.265,754.496 108.148,754.496 100.678C754.496 99.218,754.327 97.618,754.102 95.989C754.243 95.315,754.327 94.613,754.383 93.967C754.383 93.715,754.383 93.434,754.383 93.153C754.383 93.069,754.383 92.956,754.383 92.872C754.383 91.581,754.131 90.373,753.878 89.278C754.159 88.295,754.299 87.34,754.383 86.414C754.383 86.133,754.383 85.88,754.383 85.6C754.383 85.487,754.383 85.403,754.383 85.263C754.383 83.971,754.131 82.763,753.878 81.668C754.131 80.657,754.299 79.703,754.383 78.776C754.383 78.523,754.383 78.271,754.383 78.046C754.383 77.906,754.383 77.793,754.383 77.709C754.383 76.502,754.159 75.322,753.934 74.311C754.215 73.413,754.383 72.402,754.383 71.194C754.383 68.021,752.502 65.775,751.182 64.736C751.014 64.624,750.761 64.54,750.536 64.54C750.368 64.54,750.199 64.568,750.059 64.652C749.89 64.736,749.834 64.764,749.834 64.848C749.834 64.989,750.087 65.129,750.256 65.298C751.66 66.786,752.727 68.162,752.727 70.886C752.727 72.374,752.221 73.637,751.182 74.845C748.346 78.13,744.415 79.815,742.618 80.208C742.337 80.349,742 81.219,742 81.303M750.817 98.039C749.245 100.005,747.026 101.296,743.404 102.616C743.629 101.717,743.994 100.707,744.555 99.864C746.072 97.646,749.638 95.736,751.744 93.406C752.109 92.985,752.446 92.507,752.727 92.058C752.755 92.311,752.755 92.507,752.755 92.76C752.755 94.782,752.081 96.466,750.817 98.039M750.817 90.485C749.245 92.423,747.026 93.715,743.404 95.062C743.572 94.164,743.938 93.125,744.555 92.198C746.072 89.952,749.638 88.099,751.744 85.712C752.109 85.319,752.446 84.869,752.727 84.392C752.755 84.673,752.755 84.954,752.755 85.206C752.755 87.256,752.081 88.913,750.817 90.485M746.577 82.483C748.964 80.461,751.182 78.973,752.277 77.541C752.446 77.344,752.586 77.119,752.727 76.895C752.755 77.119,752.755 77.344,752.755 77.541C752.727 79.562,752.081 81.275,750.817 82.82C749.245 84.757,747.026 86.049,743.488 87.369C743.544 87.172,743.572 86.975,743.572 86.807C743.853 85.796,744.274 84.392,746.577 82.483M743.46 110.113C743.657 109.215,743.994 108.288,744.555 107.446C746.072 105.199,749.638 103.318,751.744 100.959C752.137 100.51,752.502 100.033,752.783 99.499C752.727 102.448,752.137 104.16,751.098 105.452C748.599 108.513,745.426 109.524,743.46 110.113"/></g></svg>