<svg xmlns="http://www.w3.org/2000/svg" stroke-width="0.3" stroke-dasharray="none" fill="black" stroke="black" font-family="Arial, sans-serif" font-size="10pt" font-weight="normal" font-style="normal" width="700" height="150" viewBox="0 0 700 150" style="width: 700px; height: 150px; border: none;"><g class="vf-stave" id="vf-auto20269" stroke-width="1" fill="#999999" stroke="#999999"><path fill="none" d="M0 40L690 40"/><path fill="none" d="M0 50L690 50"/><path fill="none" d="M0 60L690 60"/><path fill="none" d="M0 70L690 70"/><path fill="none" d="M0 80L690 80"/></g><g class="vf-stavebarline" id="vf-auto20270"><rect y="39.5" width="1" height="41" stroke="none"/></g><g class="vf-stavebarline" id="vf-auto20271"><rect x="690" y="39.5" width="1" height="41" stroke="none"/></g><g class="vf-keysignature" id="vf-auto20272"/><g class="vf-stavenote" id="vf-auto20273"><path stroke-width="1.4" fill="none" stroke="#444" d="M14 90L33.141 90"/><g class="vf-stem" id="vf-auto20274" pointer-events="bounding-box"><path stroke-width="1.5" fill="none" d="M17.75 92L17.75 125"/></g><g class="vf-notehead" id="vf-auto20276" pointer-events="bounding-box"><path stroke="none" d="M17 91.685C17 93.426,18.264 95.391,21.521 95.391C25.733 95.391,30.141 91.938,30.141 88.371C30.141 85.985,28.12 84.665,25.621 84.665C21.689 84.665,17 87.978,17 91.685"/></g></g><g class="vf-stavenote" id="vf-auto20277"><path stroke-width="1.4" fill="none" stroke="#444" d="M90.539 90L109.68 90"/><g class="vf-stem" id="vf-auto20278" pointer-events="bounding-box"><path stroke-width="1.5" fill="none" d="M94.289 92L94.289 125"/></g><g class="vf-notehead" id="vf-auto20280" pointer-events="bounding-box"><path stroke="none" d="M93.539 91.685C93.539 93.426,94.803 95.391,98.06 95.391C102.272 95.391,106.68 91.938,106.68 88.371C106.68 85.985,104.659 84.665,102.16 84.665C98.228 84.665,93.539 87.978,93.539 91.685"/><path stroke="none" d="M90.129 85.869C90.347 85.814,90.539 85.54,90.539 85.321L90.539 82.996C90.539 82.668,90.32 82.449,89.992 82.449C89.964 82.449,89.964 82.449,89.91 82.449L88.624 82.722L88.624 76.84L87.502 76.84L87.502 82.941L84 83.652L84 78.098L82.906 78.098L82.906 83.899L81.373 84.2C81.127 84.254,80.936 84.528,80.936 84.747L80.936 84.829L80.936 87.127L80.936 87.045C80.936 87.373,81.182 87.592,81.483 87.592C81.538 87.592,81.565 87.592,81.592 87.592L82.906 87.319L82.906 93.83L81.373 94.131C81.127 94.186,80.936 94.46,80.936 94.679L80.936 96.977C80.936 97.278,81.182 97.524,81.483 97.524C81.538 97.524,81.565 97.524,81.592 97.524L82.906 97.25L82.906 103.133L84 103.133L84 97.004L87.502 96.293L87.502 101.847L88.624 101.847L88.624 96.074L90.129 95.8C90.347 95.746,90.539 95.472,90.539 95.253L90.539 92.928C90.539 92.599,90.32 92.353,89.992 92.353C89.964 92.353,89.964 92.353,89.91 92.353L88.624 92.627L88.624 86.142M84 87.072L87.502 86.388L87.502 92.873L84 93.612"/></g></g><g class="vf-stavenote" id="vf-auto20281"><path stroke-width="1.4" fill="none" stroke="#444" d="M167.078 90L186.219 90"/><g class="vf-stem" id="vf-auto20282" pointer-events="bounding-box"><path stroke-width="1.5" fill="none" d="M170.828 92L170.828 125"/></g><g class="vf-notehead" id="vf-auto20284" pointer-events="bounding-box"><path stroke="none" d="M170.078 91.685C170.078 93.426,171.342 95.391,174.599 95.391C178.811 95.391,183.219 91.938,183.219 88.371C183.219 85.985,181.198 84.665,178.698 84.665C174.767 84.665,170.078 87.978,170.078 91.685"/></g></g><g class="vf-stavenote" id="vf-auto20285"><path stroke-width="1.4" fill="none" stroke="#444" d="M243.617 90L262.758 90"/><g class="vf-stem" id="vf-auto20286" pointer-events="bounding-box"><path stroke-width="1.5" fill="none" d="M247.367 92L247.367 125"/></g><g class="vf-notehead" id="vf-auto20288" pointer-events="bounding-box"><path stroke="none" d="M246.617 91.685C246.617 93.426,247.881 95.391,251.138 95.391C255.35 95.391,259.758 91.938,259.758 88.371C259.758 85.985,257.737 84.665,255.237 84.665C251.306 84.665,246.617 87.978,246.617 91.685"/><path stroke="none" d="M243.425 82.777C243.343 82.722,243.234 82.668,243.124 82.668C243.07 82.668,242.988 82.722,242.96 82.722L237.981 84.09L237.981 77.196L236.886 77.196L236.886 96.703C236.886 97.004,237.133 97.223,237.434 97.223C237.488 97.223,237.543 97.223,237.598 97.223L242.55 95.828L242.55 102.722L243.617 102.722C243.617 96.183,243.617 89.973,243.617 83.215C243.617 83.078,243.535 82.859,243.425 82.777M237.981 93.83L237.981 87.373L242.55 86.06L242.55 92.572"/></g></g><g class="vf-stavenote" id="vf-auto20289"><path stroke-width="1.4" fill="none" stroke="#444" d="M320.156 90L339.297 90"/><g class="vf-stem" id="vf-auto20290" pointer-events="bounding-box"><path stroke-width="1.5" fill="none" d="M323.906 92L323.906 125"/></g><g class="vf-notehead" id="vf-auto20292" pointer-events="bounding-box"><path stroke="none" d="M323.156 91.685C323.156 93.426,324.419 95.391,327.677 95.391C331.889 95.391,336.297 91.938,336.297 88.371C336.297 85.985,334.276 84.665,331.776 84.665C327.845 84.665,323.156 87.978,323.156 91.685"/></g></g><g class="vf-stavenote" id="vf-auto20293"><path stroke-width="1.4" fill="none" stroke="#444" d="M396.695 90L415.836 90"/><g class="vf-stem" id="vf-auto20294" pointer-events="bounding-box"><path stroke-width="1.5" fill="none" d="M400.445 92L400.445 125"/></g><g class="vf-notehead" id="vf-auto20296" pointer-events="bounding-box"><path stroke="none" d="M399.695 91.685C399.695 93.426,400.958 95.391,404.216 95.391C408.428 95.391,412.836 91.938,412.836 88.371C412.836 85.985,410.815 84.665,408.315 84.665C404.384 84.665,399.695 87.978,399.695 91.685"/><path stroke="none" d="M396.613 86.881C396.394 85.349,395.436 83.899,393.439 83.899C391.469 83.899,390.32 85.103,390.128 85.349L390.293 72.708C390.293 72.38,390.046 72.161,389.718 72.161L389.253 72.161C388.952 72.161,388.706 72.38,388.706 72.708L388.897 96.375C388.897 96.703,389.143 96.922,389.444 96.922C389.527 96.922,389.691 96.895,389.773 96.867C389.937 96.785,392.481 95.527,394.615 93.119C396.12 91.423,396.695 89.48,396.695 87.866C396.695 87.51,396.667 87.209,396.613 86.881M393.904 88.413C393.904 89.015,393.74 90.821,392.755 92.326C392.098 93.338,390.758 94.405,390.019 95.007L390.128 87.319C390.211 86.963,390.785 85.814,392.372 85.814C393.795 85.814,393.904 87.155,393.904 88.003C393.904 88.194,393.904 88.304,393.904 88.413"/></g></g><g class="vf-stavenote" id="vf-auto20297"><path stroke-width="1.4" fill="none" stroke="#444" d="M473.234 90L492.375 90"/><g class="vf-stem" id="vf-auto20298" pointer-events="bounding-box"><path stroke-width="1.5" fill="none" d="M476.984 92L476.984 125"/></g><g class="vf-notehead" id="vf-auto20300" pointer-events="bounding-box"><path stroke="none" d="M476.234 91.685C476.234 93.426,477.497 95.391,480.755 95.391C484.967 95.391,489.375 91.938,489.375 88.371C489.375 85.985,487.353 84.665,484.854 84.665C480.923 84.665,476.234 87.978,476.234 91.685"/></g></g><g class="vf-stavenote" id="vf-auto20301"><path stroke-width="1.4" fill="none" stroke="#444" d="M549.773 90L568.914 90"/><g class="vf-stem" id="vf-auto20302" pointer-events="bounding-box"><path stroke-width="1.5" fill="none" d="M553.523 92L553.523 125"/></g><g class="vf-notehead" id="vf-auto20304" pointer-events="bounding-box"><path stroke="none" d="M552.773 91.685C552.773 93.426,554.036 95.391,557.294 95.391C561.506 95.391,565.914 91.938,565.914 88.371C565.914 85.985,563.892 84.665,561.393 84.665C557.462 84.665,552.773 87.978,552.773 91.685"/><path stroke="none" d="M549.581 82.777C549.499 82.722,549.39 82.668,549.28 82.668C549.226 82.668,549.143 82.722,549.116 82.722L544.137 84.09L544.137 77.196L543.042 77.196L543.042 96.703C543.042 97.004,543.288 97.223,543.589 97.223C543.644 97.223,543.699 97.223,543.754 97.223L548.706 95.828L548.706 102.722L549.773 102.722C549.773 96.183,549.773 89.973,549.773 83.215C549.773 83.078,549.691 82.859,549.581 82.777M544.137 93.83L544.137 87.373L548.706 86.06L548.706 92.572"/></g></g><g class="vf-stavenote" id="vf-auto20305"><path stroke-width="1.4" fill="none" stroke="#444" d="M626.312 90L645.453 90"/><g class="vf-stem" id="vf-auto20306" pointer-events="bounding-box"><path stroke-width="1.5" fill="none" d="M630.062 92L630.062 125"/></g><g class="vf-notehead" id="vf-auto20308" pointer-events="bounding-box"><path stroke="none" d="M629.312 91.685C629.312 93.426,630.575 95.391,633.833 95.391C638.045 95.391,642.453 91.938,642.453 88.371C642.453 85.985,640.431 84.665,637.932 84.665C634.001 84.665,629.312 87.978,629.312 91.685"/></g></g></svg>