<svg xmlns="http://www.w3.org/2000/svg" stroke-width="0.3" stroke-dasharray="none" fill="black" stroke="black" font-family="Arial, sans-serif" font-size="10pt" font-weight="normal" font-style="normal" width="750" height="300" viewBox="0 0 750 300" style="width: 750px; height: 300px; border: none;"><g class="vf-stave" id="vf-auto24410" stroke-width="1" fill="#999999" stroke="#999999"><path fill="none" d="M30 85L730 85"/><path fill="none" d="M30 95L730 95"/><path fill="none" d="M30 105L730 105"/><path fill="none" d="M30 115L730 115"/><path fill="none" d="M30 125L730 125"/></g><g class="vf-stavebarline" id="vf-auto24411"><rect x="30" y="84.5" width="1" height="41" stroke="none"/></g><g class="vf-stavebarline" id="vf-auto24412"><rect x="730" y="84.5" width="1" height="41" stroke="none"/></g><g class="vf-stavenote" id="vf-auto24413"><path stroke-width="1.4" fill="none" stroke="#444" d="M44 135L63.141 135"/><g class="vf-stem" id="vf-auto24414" pointer-events="bounding-box"><path stroke-width="1.5" fill="none" d="M47.75 112.65L47.75 170"/></g><g class="vf-notehead" id="vf-auto24420" pointer-events="bounding-box"><path stroke="none" d="M55.621 129.665C51.689 129.665,47 132.95,47 136.685C47 138.426,48.264 140.391,51.521 140.391C55.733 140.391,60.141 136.938,60.141 133.371C60.141 130.985,58.12 129.665,55.621 129.665M54.525 136.769C54.413 136.853,51.437 138.482,50.033 138.482C48.685 138.482,48.404 137.387,48.404 137.022C48.404 135.337,52.448 133.343,52.616 133.259C52.784 133.175,55.649 131.574,57.109 131.574C58.092 131.574,58.737 132.136,58.737 133.006C58.737 134.747,54.638 136.685,54.525 136.769"/><path stroke="none" d="M67.141 130 A2 2 0 0 0 63.141 130 A2 2 0 0 0 67.141 130"/><path stroke="none" d="M73.141 130 A2 2 0 0 0 69.141 130 A2 2 0 0 0 73.141 130"/></g><g class="vf-notehead" id="vf-auto24419" pointer-events="bounding-box"><path stroke="none" d="M55.621 119.665C51.689 119.665,47 122.95,47 126.685C47 128.426,48.264 130.391,51.521 130.391C55.733 130.391,60.141 126.938,60.141 123.371C60.141 120.985,58.12 119.665,55.621 119.665M54.525 126.769C54.413 126.853,51.437 128.482,50.033 128.482C48.685 128.482,48.404 127.387,48.404 127.022C48.404 125.337,52.448 123.343,52.616 123.259C52.784 123.175,55.649 121.574,57.109 121.574C58.092 121.574,58.737 122.136,58.737 123.006C58.737 124.747,54.638 126.685,54.525 126.769"/><path stroke="none" d="M67.141 120 A2 2 0 0 0 63.141 120 A2 2 0 0 0 67.141 120"/><path stroke="none" d="M73.141 120 A2 2 0 0 0 69.141 120 A2 2 0 0 0 73.141 120"/></g><g class="vf-notehead" id="vf-auto24418" pointer-events="bounding-box"><path stroke="none" d="M55.621 104.665C51.689 104.665,47 107.95,47 111.685C47 113.426,48.264 115.391,51.521 115.391C55.733 115.391,60.141 111.938,60.141 108.371C60.141 105.985,58.12 104.665,55.621 104.665M54.525 111.769C54.413 111.853,51.437 113.482,50.033 113.482C48.685 113.482,48.404 112.387,48.404 112.022C48.404 110.337,52.448 108.343,52.616 108.259C52.784 108.175,55.649 106.574,57.109 106.574C58.092 106.574,58.737 107.136,58.737 108.006C58.737 109.747,54.638 111.685,54.525 111.769"/><path stroke="none" d="M67.141 110 A2 2 0 0 0 63.141 110 A2 2 0 0 0 67.141 110"/><path stroke="none" d="M73.141 110 A2 2 0 0 0 69.141 110 A2 2 0 0 0 73.141 110"/></g></g><g class="vf-stavenote" id="vf-auto24421"><path stroke-width="1.4" fill="none" stroke="#444" d="M212.966 135L232.108 135"/><g class="vf-stem" id="vf-auto24422" pointer-events="bounding-box"><path stroke-width="1.5" fill="none" d="M216.716 102.65L216.716 170"/></g><g class="vf-notehead" id="vf-auto24428" pointer-events="bounding-box"><path stroke="none" d="M224.587 129.665C220.656 129.665,215.966 132.95,215.966 136.685C215.966 138.426,217.23 140.391,220.487 140.391C224.699 140.391,229.108 136.938,229.108 133.371C229.108 130.985,227.086 129.665,224.587 129.665M223.492 136.769C223.379 136.853,220.403 138.482,218.999 138.482C217.651 138.482,217.37 137.387,217.37 137.022C217.37 135.337,221.414 133.343,221.582 133.259C221.751 133.175,224.615 131.574,226.075 131.574C227.058 131.574,227.704 132.136,227.704 133.006C227.704 134.747,223.604 136.685,223.492 136.769"/><path stroke="none" d="M236.108 130 A2 2 0 0 0 232.108 130 A2 2 0 0 0 236.108 130"/><path stroke="none" d="M242.108 130 A2 2 0 0 0 238.108 130 A2 2 0 0 0 242.108 130"/></g><g class="vf-notehead" id="vf-auto24427" pointer-events="bounding-box"><path stroke="none" d="M224.587 119.665C220.656 119.665,215.966 122.95,215.966 126.685C215.966 128.426,217.23 130.391,220.487 130.391C224.699 130.391,229.108 126.938,229.108 123.371C229.108 120.985,227.086 119.665,224.587 119.665M223.492 126.769C223.379 126.853,220.403 128.482,218.999 128.482C217.651 128.482,217.37 127.387,217.37 127.022C217.37 125.337,221.414 123.343,221.582 123.259C221.751 123.175,224.615 121.574,226.075 121.574C227.058 121.574,227.704 122.136,227.704 123.006C227.704 124.747,223.604 126.685,223.492 126.769"/><path stroke="none" d="M236.108 120 A2 2 0 0 0 232.108 120 A2 2 0 0 0 236.108 120"/><path stroke="none" d="M242.108 120 A2 2 0 0 0 238.108 120 A2 2 0 0 0 242.108 120"/></g><g class="vf-notehead" id="vf-auto24426" pointer-events="bounding-box"><path stroke="none" d="M224.587 94.665C220.656 94.665,215.966 97.95,215.966 101.685C215.966 103.426,217.23 105.391,220.487 105.391C224.699 105.391,229.108 101.938,229.108 98.371C229.108 95.985,227.086 94.665,224.587 94.665M223.492 101.769C223.379 101.853,220.403 103.482,218.999 103.482C217.651 103.482,217.37 102.387,217.37 102.022C217.37 100.337,221.414 98.343,221.582 98.259C221.751 98.175,224.615 96.574,226.075 96.574C227.058 96.574,227.704 97.136,227.704 98.006C227.704 99.747,223.604 101.685,223.492 101.769"/><path stroke="none" d="M236.108 100 A2 2 0 0 0 232.108 100 A2 2 0 0 0 236.108 100"/><path stroke="none" d="M242.108 100 A2 2 0 0 0 238.108 100 A2 2 0 0 0 242.108 100"/><path stroke="none" d="M248.108 100 A2 2 0 0 0 244.108 100 A2 2 0 0 0 248.108 100"/></g></g><g class="vf-stavenote" id="vf-auto24429"><g class="vf-stem" id="vf-auto24430" pointer-events="bounding-box"><path stroke-width="1.5" fill="none" d="M446.282 97.65L446.282 165"/></g><g class="vf-notehead" id="vf-auto24436" pointer-events="bounding-box"><path stroke="none" d="M454.153 124.665C450.222 124.665,445.532 127.95,445.532 131.685C445.532 133.426,446.796 135.391,450.053 135.391C454.265 135.391,458.674 131.938,458.674 128.371C458.674 125.985,456.652 124.665,454.153 124.665M453.058 131.769C452.946 131.853,449.969 133.482,448.565 133.482C447.217 133.482,446.936 132.387,446.936 132.022C446.936 130.337,450.98 128.343,451.148 128.259C451.317 128.175,454.181 126.574,455.641 126.574C456.624 126.574,457.27 127.136,457.27 128.006C457.27 129.747,453.17 131.685,453.058 131.769"/><path stroke="none" d="M465.674 130 A2 2 0 0 0 461.674 130 A2 2 0 0 0 465.674 130"/><path stroke="none" d="M471.674 130 A2 2 0 0 0 467.674 130 A2 2 0 0 0 471.674 130"/><path stroke="none" d="M477.674 130 A2 2 0 0 0 473.674 130 A2 2 0 0 0 477.674 130"/></g><g class="vf-notehead" id="vf-auto24435" pointer-events="bounding-box"><path stroke="none" d="M441.762 94.665C437.83 94.665,433.141 97.95,433.141 101.685C433.141 103.426,434.405 105.391,437.662 105.391C441.874 105.391,446.282 101.938,446.282 98.371C446.282 95.985,444.261 94.665,441.762 94.665M440.666 101.769C440.554 101.853,437.578 103.482,436.174 103.482C434.826 103.482,434.545 102.387,434.545 102.022C434.545 100.337,438.589 98.343,438.757 98.259C438.925 98.175,441.79 96.574,443.25 96.574C444.233 96.574,444.878 97.136,444.878 98.006C444.878 99.747,440.779 101.685,440.666 101.769"/><path stroke="none" d="M465.674 100 A2 2 0 0 0 461.674 100 A2 2 0 0 0 465.674 100"/><path stroke="none" d="M471.674 100 A2 2 0 0 0 467.674 100 A2 2 0 0 0 471.674 100"/></g><g class="vf-notehead" id="vf-auto24434" pointer-events="bounding-box"><path stroke="none" d="M454.153 89.665C450.222 89.665,445.532 92.95,445.532 96.685C445.532 98.426,446.796 100.391,450.053 100.391C454.265 100.391,458.674 96.938,458.674 93.371C458.674 90.985,456.652 89.665,454.153 89.665M453.058 96.769C452.946 96.853,449.969 98.482,448.565 98.482C447.217 98.482,446.936 97.387,446.936 97.022C446.936 95.337,450.98 93.343,451.148 93.259C451.317 93.175,454.181 91.574,455.641 91.574C456.624 91.574,457.27 92.136,457.27 93.006C457.27 94.747,453.17 96.685,453.058 96.769"/><path stroke="none" d="M465.674 90 A2 2 0 0 0 461.674 90 A2 2 0 0 0 465.674 90"/><path stroke="none" d="M471.674 90 A2 2 0 0 0 467.674 90 A2 2 0 0 0 471.674 90"/></g></g><g class="vf-stavenote" id="vf-auto24437"><g class="vf-stem" id="vf-auto24438" pointer-events="bounding-box"><path stroke-width="1.5" fill="none" d="M586.966 97L586.966 162"/></g><g class="vf-notehead" id="vf-auto24445" pointer-events="bounding-box"><path stroke="none" d="M586.216 131.685C586.216 133.426,587.479 135.391,590.737 135.391C594.949 135.391,599.357 131.938,599.357 128.371C599.357 125.985,597.336 124.665,594.836 124.665C590.905 124.665,586.216 127.978,586.216 131.685"/><path stroke="none" d="M606.357 130 A2 2 0 0 0 602.357 130 A2 2 0 0 0 606.357 130"/><path stroke="none" d="M612.357 130 A2 2 0 0 0 608.357 130 A2 2 0 0 0 612.357 130"/><path stroke="none" d="M618.357 130 A2 2 0 0 0 614.357 130 A2 2 0 0 0 618.357 130"/></g><g class="vf-notehead" id="vf-auto24444" pointer-events="bounding-box"><path stroke="none" d="M573.824 101.685C573.824 103.426,575.088 105.391,578.345 105.391C582.557 105.391,586.966 101.938,586.966 98.371C586.966 95.985,584.944 94.665,582.445 94.665C578.514 94.665,573.824 97.978,573.824 101.685"/><path stroke="none" d="M606.357 100 A2 2 0 0 0 602.357 100 A2 2 0 0 0 606.357 100"/><path stroke="none" d="M612.357 100 A2 2 0 0 0 608.357 100 A2 2 0 0 0 612.357 100"/></g><g class="vf-notehead" id="vf-auto24443" pointer-events="bounding-box"><path stroke="none" d="M586.216 96.685C586.216 98.426,587.479 100.391,590.737 100.391C594.949 100.391,599.357 96.938,599.357 93.371C599.357 90.985,597.336 89.665,594.836 89.665C590.905 89.665,586.216 92.978,586.216 96.685"/><path stroke="none" d="M606.357 90 A2 2 0 0 0 602.357 90 A2 2 0 0 0 606.357 90"/><path stroke="none" d="M612.357 90 A2 2 0 0 0 608.357 90 A2 2 0 0 0 612.357 90"/></g><path stroke="none" d="M586.216 166.972C586.216 167.253,586.469 167.477,586.749 167.477C586.946 167.477,587.199 167.337,587.227 167.168C587.227 167.112,587.592 165.708,587.62 165.596C587.676 165.428,588.041 163.883,589.501 161.496C591.074 158.885,593.489 156.975,595.51 154.139C597.504 151.303,598.711 148.636,598.711 145.098C598.711 141.391,597.869 138.33,595.707 134.399C595.595 134.118,595.342 133.978,595.117 133.978C595.033 133.978,594.949 133.978,594.921 134.006C594.696 134.09,594.64 134.259,594.64 134.483C594.64 134.624,594.668 134.82,594.752 134.989C596.353 138.723,596.999 140.886,596.999 143.778C596.999 147.147,595.847 148.888,595.117 150.152C592.478 154.617,588.238 156.807,586.553 157.369C586.244 157.509,586.216 157.706,586.216 157.818"/></g><g class="vf-stavenote" id="vf-auto24447"><g class="vf-stem" id="vf-auto24448" pointer-events="bounding-box"><path stroke-width="1.5" fill="none" d="M672.859 97L672.859 162"/></g><g class="vf-notehead" id="vf-auto24455" pointer-events="bounding-box"><path stroke="none" d="M672.109 131.685C672.109 133.426,673.372 135.391,676.63 135.391C680.842 135.391,685.25 131.938,685.25 128.371C685.25 125.985,683.228 124.665,680.729 124.665C676.798 124.665,672.109 127.978,672.109 131.685"/><path stroke="none" d="M692.25 130 A2 2 0 0 0 688.25 130 A2 2 0 0 0 692.25 130"/><path stroke="none" d="M698.25 130 A2 2 0 0 0 694.25 130 A2 2 0 0 0 698.25 130"/><path stroke="none" d="M704.25 130 A2 2 0 0 0 700.25 130 A2 2 0 0 0 704.25 130"/></g><g class="vf-notehead" id="vf-auto24454" pointer-events="bounding-box"><path stroke="none" d="M659.717 101.685C659.717 103.426,660.981 105.391,664.238 105.391C668.45 105.391,672.859 101.938,672.859 98.371C672.859 95.985,670.837 94.665,668.338 94.665C664.407 94.665,659.717 97.978,659.717 101.685"/><path stroke="none" d="M692.25 100 A2 2 0 0 0 688.25 100 A2 2 0 0 0 692.25 100"/><path stroke="none" d="M698.25 100 A2 2 0 0 0 694.25 100 A2 2 0 0 0 698.25 100"/></g><g class="vf-notehead" id="vf-auto24453" pointer-events="bounding-box"><path stroke="none" d="M672.109 96.685C672.109 98.426,673.372 100.391,676.63 100.391C680.842 100.391,685.25 96.938,685.25 93.371C685.25 90.985,683.228 89.665,680.729 89.665C676.798 89.665,672.109 92.978,672.109 96.685"/><path stroke="none" d="M692.25 90 A2 2 0 0 0 688.25 90 A2 2 0 0 0 692.25 90"/><path stroke="none" d="M698.25 90 A2 2 0 0 0 694.25 90 A2 2 0 0 0 698.25 90"/></g><path stroke="none" d="M672.109 166.972C672.109 167.253,672.361 167.477,672.642 167.477C672.839 167.477,673.092 167.337,673.12 167.168C673.12 167.112,673.485 165.708,673.513 165.596C673.569 165.428,673.934 163.883,675.394 161.496C676.967 158.885,679.381 156.975,681.403 154.139C683.397 151.303,684.604 148.636,684.604 145.098C684.604 141.391,683.762 138.33,681.6 134.399C681.487 134.118,681.235 133.978,681.01 133.978C680.926 133.978,680.842 133.978,680.814 134.006C680.589 134.09,680.533 134.259,680.533 134.483C680.533 134.624,680.561 134.82,680.645 134.989C682.246 138.723,682.891 140.886,682.891 143.778C682.891 147.147,681.74 148.888,681.01 150.152C678.371 154.617,674.13 156.807,672.446 157.369C672.137 157.509,672.109 157.706,672.109 157.818"/></g><g class="vf-stavenote" id="vf-auto24491"><path stroke-width="1.4" fill="none" stroke="#444" d="M44 75L75.533 75"/><g class="vf-stem" id="vf-auto24492" pointer-events="bounding-box"><path stroke-width="1.5" fill="none" d="M59.391 92.45L59.391 35"/></g><g class="vf-notehead" id="vf-auto24496" pointer-events="bounding-box"><path stroke="none" d="M55.621 89.665C51.689 89.665,47 92.95,47 96.685C47 98.426,48.264 100.391,51.521 100.391C55.733 100.391,60.141 96.938,60.141 93.371C60.141 90.985,58.12 89.665,55.621 89.665M54.525 96.769C54.413 96.853,51.437 98.482,50.033 98.482C48.685 98.482,48.404 97.387,48.404 97.022C48.404 95.337,52.448 93.343,52.616 93.259C52.784 93.175,55.649 91.574,57.109 91.574C58.092 91.574,58.737 92.136,58.737 93.006C58.737 94.747,54.638 96.685,54.525 96.769"/><path stroke="none" d="M80.283 90 A2 2 0 0 0 76.283 90 A2 2 0 0 0 80.283 90"/></g><g class="vf-notehead" id="vf-auto24497" pointer-events="bounding-box"><path stroke="none" d="M55.621 69.665C51.689 69.665,47 72.95,47 76.685C47 78.426,48.264 80.391,51.521 80.391C55.733 80.391,60.141 76.938,60.141 73.371C60.141 70.985,58.12 69.665,55.621 69.665M54.525 76.769C54.413 76.853,51.437 78.482,50.033 78.482C48.685 78.482,48.404 77.387,48.404 77.022C48.404 75.337,52.448 73.343,52.616 73.259C52.784 73.175,55.649 71.574,57.109 71.574C58.092 71.574,58.737 72.136,58.737 73.006C58.737 74.747,54.638 76.685,54.525 76.769"/><path stroke="none" d="M80.283 80 A2 2 0 0 0 76.283 80 A2 2 0 0 0 80.283 80"/></g><g class="vf-notehead" id="vf-auto24498" pointer-events="bounding-box"><path stroke="none" d="M68.012 64.665C64.081 64.665,59.391 67.95,59.391 71.685C59.391 73.426,60.655 75.391,63.912 75.391C68.124 75.391,72.533 71.938,72.533 68.371C72.533 65.985,70.511 64.665,68.012 64.665M66.917 71.769C66.805 71.853,63.828 73.482,62.424 73.482C61.076 73.482,60.795 72.387,60.795 72.022C60.795 70.337,64.839 68.343,65.007 68.259C65.176 68.175,68.04 66.574,69.5 66.574C70.483 66.574,71.129 67.136,71.129 68.006C71.129 69.747,67.029 71.685,66.917 71.769"/><path stroke="none" d="M80.283 70 A2 2 0 0 0 76.283 70 A2 2 0 0 0 80.283 70"/></g></g><g class="vf-stavenote" id="vf-auto24499"><path stroke-width="1.4" fill="none" stroke="#444" d="M184.683 75L216.216 75"/><g class="vf-stem" id="vf-auto24500" pointer-events="bounding-box"><path stroke-width="1.5" fill="none" d="M200.075 93L200.075 35"/></g><g class="vf-notehead" id="vf-auto24504" pointer-events="bounding-box"><path stroke="none" d="M187.683 96.685C187.683 98.426,188.947 100.391,192.204 100.391C196.416 100.391,200.825 96.938,200.825 93.371C200.825 90.985,198.803 89.665,196.304 89.665C192.373 89.665,187.683 92.978,187.683 96.685"/><path stroke="none" d="M220.966 90 A2 2 0 0 0 216.966 90 A2 2 0 0 0 220.966 90"/><path stroke="none" d="M226.966 90 A2 2 0 0 0 222.966 90 A2 2 0 0 0 226.966 90"/></g><g class="vf-notehead" id="vf-auto24505" pointer-events="bounding-box"><path stroke="none" d="M187.683 76.685C187.683 78.426,188.947 80.391,192.204 80.391C196.416 80.391,200.825 76.938,200.825 73.371C200.825 70.985,198.803 69.665,196.304 69.665C192.373 69.665,187.683 72.978,187.683 76.685"/><path stroke="none" d="M220.966 80 A2 2 0 0 0 216.966 80 A2 2 0 0 0 220.966 80"/><path stroke="none" d="M226.966 80 A2 2 0 0 0 222.966 80 A2 2 0 0 0 226.966 80"/></g><g class="vf-notehead" id="vf-auto24506" pointer-events="bounding-box"><path stroke="none" d="M200.075 71.685C200.075 73.426,201.338 75.391,204.596 75.391C208.808 75.391,213.216 71.938,213.216 68.371C213.216 65.985,211.195 64.665,208.695 64.665C204.764 64.665,200.075 67.978,200.075 71.685"/><path stroke="none" d="M220.966 70 A2 2 0 0 0 216.966 70 A2 2 0 0 0 220.966 70"/><path stroke="none" d="M226.966 70 A2 2 0 0 0 222.966 70 A2 2 0 0 0 226.966 70"/></g></g><g class="vf-stavenote" id="vf-auto24507"><path stroke-width="1.4" fill="none" stroke="#444" d="M299.466 75L330.999 75"/><g class="vf-stem" id="vf-auto24508" pointer-events="bounding-box"><path stroke-width="1.5" fill="none" d="M314.858 93L314.858 35"/></g><g class="vf-notehead" id="vf-auto24512" pointer-events="bounding-box"><path stroke="none" d="M302.466 96.685C302.466 98.426,303.73 100.391,306.987 100.391C311.199 100.391,315.608 96.938,315.608 93.371C315.608 90.985,313.586 89.665,311.087 89.665C307.156 89.665,302.466 92.978,302.466 96.685"/><path stroke="none" d="M335.749 90 A2 2 0 0 0 331.749 90 A2 2 0 0 0 335.749 90"/></g><g class="vf-notehead" id="vf-auto24513" pointer-events="bounding-box"><path stroke="none" d="M302.466 76.685C302.466 78.426,303.73 80.391,306.987 80.391C311.199 80.391,315.608 76.938,315.608 73.371C315.608 70.985,313.586 69.665,311.087 69.665C307.156 69.665,302.466 72.978,302.466 76.685"/><path stroke="none" d="M335.749 80 A2 2 0 0 0 331.749 80 A2 2 0 0 0 335.749 80"/></g><g class="vf-notehead" id="vf-auto24514" pointer-events="bounding-box"><path stroke="none" d="M314.858 71.685C314.858 73.426,316.122 75.391,319.379 75.391C323.591 75.391,327.999 71.938,327.999 68.371C327.999 65.985,325.978 64.665,323.478 64.665C319.547 64.665,314.858 67.978,314.858 71.685"/><path stroke="none" d="M335.749 70 A2 2 0 0 0 331.749 70 A2 2 0 0 0 335.749 70"/></g></g><g class="vf-stavenote" id="vf-auto24515"><path stroke-width="1.4" fill="none" stroke="#444" d="M414.25 75L445.782 75"/><g class="vf-stem" id="vf-auto24516" pointer-events="bounding-box"><path stroke-width="1.5" fill="none" d="M429.641 93L429.641 38"/></g><g class="vf-notehead" id="vf-auto24522" pointer-events="bounding-box"><path stroke="none" d="M417.25 96.685C417.25 98.426,418.513 100.391,421.77 100.391C425.982 100.391,430.391 96.938,430.391 93.371C430.391 90.985,428.369 89.665,425.87 89.665C421.939 89.665,417.25 92.978,417.25 96.685"/><path stroke="none" d="M449.076 90 A2 2 0 0 0 445.076 90 A2 2 0 0 0 449.076 90"/></g><g class="vf-notehead" id="vf-auto24523" pointer-events="bounding-box"><path stroke="none" d="M417.25 81.685C417.25 83.426,418.513 85.391,421.77 85.391C425.982 85.391,430.391 81.938,430.391 78.371C430.391 75.985,428.369 74.665,425.87 74.665C421.939 74.665,417.25 77.978,417.25 81.685"/><path stroke="none" d="M449.076 80 A2 2 0 0 0 445.076 80 A2 2 0 0 0 449.076 80"/></g><g class="vf-notehead" id="vf-auto24524" pointer-events="bounding-box"><path stroke="none" d="M429.641 76.685C429.641 78.426,430.905 80.391,434.162 80.391C438.374 80.391,442.782 76.938,442.782 73.371C442.782 70.985,440.761 69.665,438.262 69.665C434.33 69.665,429.641 72.978,429.641 76.685"/><path stroke="none" d="M449.076 80 A2 2 0 0 0 445.076 80 A2 2 0 0 0 449.076 80"/></g><g class="vf-notehead" id="vf-auto24525" pointer-events="bounding-box"><path stroke="none" d="M417.25 71.685C417.25 73.426,418.513 75.391,421.77 75.391C425.982 75.391,430.391 71.938,430.391 68.371C430.391 65.985,428.369 64.665,425.87 64.665C421.939 64.665,417.25 67.978,417.25 71.685"/><path stroke="none" d="M449.076 70 A2 2 0 0 0 445.076 70 A2 2 0 0 0 449.076 70"/></g><path stroke="none" d="M428.891 42.182C428.891 42.294,428.919 42.491,429.228 42.631C430.941 43.193,434.423 45.383,437.062 49.848C437.792 51.112,438.972 52.853,438.972 56.222C438.972 59.114,438.185 62.119,437.147 65.011C437.062 65.264,436.978 65.46,437.006 65.629C437.006 65.797,437.062 65.91,437.231 65.994C437.315 66.022,437.371 66.022,437.427 66.022C437.708 66.022,437.905 65.882,438.073 65.601C439.983 62.231,440.628 57.935,440.572 55.408C440.572 55.211,440.572 55.071,440.572 54.902C440.376 49.708,437.371 45.861,437.371 45.861C437.512 45.861,433.665 40.89,432.569 39.178C431.081 36.875,430.379 34.572,430.295 34.404C430.267 34.292,429.902 32.832,429.902 32.832C429.874 32.663,429.649 32.523,429.425 32.523C429.144 32.523,428.891 32.747,428.891 33.028"/></g><g class="vf-stavenote" id="vf-auto24527"><path stroke-width="1.4" fill="none" stroke="#444" d="M505.425 75L536.958 75"/><g class="vf-stem" id="vf-auto24528" pointer-events="bounding-box"><path stroke-width="1.5" fill="none" d="M520.816 93L520.816 38"/></g><g class="vf-notehead" id="vf-auto24533" pointer-events="bounding-box"><path stroke="none" d="M508.425 96.685C508.425 98.426,509.689 100.391,512.946 100.391C517.158 100.391,521.566 96.938,521.566 93.371C521.566 90.985,519.545 89.665,517.046 89.665C513.114 89.665,508.425 92.978,508.425 96.685"/><path stroke="none" d="M540.251 90 A2 2 0 0 0 536.251 90 A2 2 0 0 0 540.251 90"/></g><g class="vf-notehead" id="vf-auto24534" pointer-events="bounding-box"><path stroke="none" d="M508.425 76.685C508.425 78.426,509.689 80.391,512.946 80.391C517.158 80.391,521.566 76.938,521.566 73.371C521.566 70.985,519.545 69.665,517.046 69.665C513.114 69.665,508.425 72.978,508.425 76.685"/><path stroke="none" d="M540.251 80 A2 2 0 0 0 536.251 80 A2 2 0 0 0 540.251 80"/></g><g class="vf-notehead" id="vf-auto24535" pointer-events="bounding-box"><path stroke="none" d="M520.816 71.685C520.816 73.426,522.08 75.391,525.337 75.391C529.549 75.391,533.958 71.938,533.958 68.371C533.958 65.985,531.936 64.665,529.437 64.665C525.506 64.665,520.816 67.978,520.816 71.685"/><path stroke="none" d="M540.251 70 A2 2 0 0 0 536.251 70 A2 2 0 0 0 540.251 70"/></g><path stroke="none" d="M520.066 42.182C520.066 42.294,520.095 42.491,520.403 42.631C522.116 43.193,525.598 45.383,528.238 49.848C528.968 51.112,530.147 52.853,530.147 56.222C530.147 59.114,529.361 62.119,528.322 65.011C528.238 65.264,528.153 65.46,528.182 65.629C528.182 65.797,528.238 65.91,528.406 65.994C528.49 66.022,528.547 66.022,528.603 66.022C528.884 66.022,529.08 65.882,529.249 65.601C531.158 62.231,531.804 57.935,531.748 55.408C531.748 55.211,531.748 55.071,531.748 54.902C531.551 49.708,528.547 45.861,528.547 45.861C528.687 45.861,524.84 40.89,523.745 39.178C522.257 36.875,521.555 34.572,521.47 34.404C521.442 34.292,521.077 32.832,521.077 32.832C521.049 32.663,520.825 32.523,520.6 32.523C520.319 32.523,520.066 32.747,520.066 33.028"/></g><text stroke="none" font-size="8pt" x="47" y="190">32px</text><path stroke-width="3" fill="none" stroke="red" d="M47 197L47 197"/><path stroke-width="3" fill="none" stroke="#999" d="M47 197L47 197"/><path stroke-width="3" fill="none" stroke="green" d="M47 197L60.141 197"/><path stroke-width="3" fill="none" stroke="#999" d="M60.141 197L60.141 197"/><path stroke-width="3" fill="none" stroke="red" d="M60.141 197L79.283 197"/><path stroke-width="3" fill="none" stroke="#DD0" d="M79.283 197L215.966 197"/><path stroke-width="3" fill="none" stroke="#BBB" d="M47 197L47 197"/><path stroke-width="3" fill="blue" stroke="none" d="M50 197 A3 3 0 0 0 44 197 A3 3 0 0 0 50 197Z"/><text stroke-width="3" fill="red" stroke="none" font-size="8pt" x="47" y="180">+14</text><text stroke="none" font-size="8pt" x="215.966" y="190">67px</text><path stroke-width="3" fill="none" stroke="red" d="M215.966 197L215.966 197"/><path stroke-width="3" fill="none" stroke="#999" d="M215.966 197L215.966 197"/><path stroke-width="3" fill="none" stroke="green" d="M215.966 197L229.108 197"/><path stroke-width="3" fill="none" stroke="#999" d="M229.108 197L229.108 197"/><path stroke-width="3" fill="none" stroke="red" d="M229.108 197L282.532 197"/><path stroke-width="3" fill="none" stroke="#DD0" d="M282.532 197L432.391 197"/><path stroke-width="3" fill="none" stroke="#BBB" d="M187.683 197L215.966 197"/><path stroke-width="3" fill="blue" stroke="none" d="M218.966 197 A3 3 0 0 0 212.966 197 A3 3 0 0 0 218.966 197Z"/><text stroke-width="3" fill="red" stroke="none" font-size="8pt" x="215.966" y="180">+74</text><text stroke="none" font-size="8pt" x="432.391" y="190">73px</text><path stroke-width="3" fill="none" stroke="red" d="M432.391 197L432.391 197"/><path stroke-width="3" fill="none" stroke="#999" d="M432.391 197L445.532 197"/><path stroke-width="3" fill="none" stroke="green" d="M445.532 197L458.674 197"/><path stroke-width="3" fill="none" stroke="#999" d="M458.674 197L458.674 197"/><path stroke-width="3" fill="none" stroke="red" d="M458.674 197L504.957 197"/><path stroke-width="3" fill="none" stroke="#DD0" d="M504.957 197L573.074 197"/><path stroke-width="3" fill="none" stroke="#BBB" d="M404.108 197L432.391 197"/><path stroke-width="3" fill="blue" stroke="none" d="M448.532 197 A3 3 0 0 0 442.532 197 A3 3 0 0 0 448.532 197Z"/><text stroke-width="3" fill="red" stroke="none" font-size="8pt" x="445.532" y="180">-15</text><text stroke="none" font-size="8pt" x="573.074" y="190">44px</text><path stroke-width="3" fill="none" stroke="red" d="M573.074 197L573.074 197"/><path stroke-width="3" fill="none" stroke="#999" d="M573.074 197L586.216 197"/><path stroke-width="3" fill="none" stroke="green" d="M586.216 197L599.357 197"/><path stroke-width="3" fill="none" stroke="#999" d="M599.357 197L599.357 197"/><path stroke-width="3" fill="none" stroke="red" d="M599.357 197L617.357 197"/><path stroke-width="3" fill="none" stroke="#DD0" d="M617.357 197L658.967 197"/><path stroke-width="3" fill="none" stroke="#BBB" d="M573.074 197L573.074 197"/><path stroke-width="3" fill="blue" stroke="none" d="M589.216 197 A3 3 0 0 0 583.216 197 A3 3 0 0 0 589.216 197Z"/><text stroke-width="3" fill="red" stroke="none" font-size="8pt" x="586.216" y="180">-76</text><text stroke="none" font-size="8pt" x="658.967" y="190">44px</text><path stroke-width="3" fill="none" stroke="red" d="M658.967 197L658.967 197"/><path stroke-width="3" fill="none" stroke="#999" d="M658.967 197L672.109 197"/><path stroke-width="3" fill="none" stroke="green" d="M672.109 197L685.25 197"/><path stroke-width="3" fill="none" stroke="#999" d="M685.25 197L685.25 197"/><path stroke-width="3" fill="none" stroke="red" d="M685.25 197L703.25 197"/><path stroke-width="3" fill="none" stroke="#DD0" d="M703.25 197L747 197"/><path stroke-width="3" fill="none" stroke="#BBB" d="M658.967 197L658.967 197"/><path stroke-width="3" fill="blue" stroke="none" d="M675.109 197 A3 3 0 0 0 669.109 197 A3 3 0 0 0 675.109 197Z"/><text stroke-width="3" fill="red" stroke="none" font-size="8pt" x="672.109" y="180">-87</text><text stroke="none" font-size="8pt" x="47" y="20">45px</text><path stroke-width="3" fill="none" stroke="red" d="M47 27L47 27"/><path stroke-width="3" fill="none" stroke="#999" d="M47 27L47 27"/><path stroke-width="3" fill="none" stroke="green" d="M47 27L60.141 27"/><path stroke-width="3" fill="none" stroke="#999" d="M60.141 27L73.283 27"/><path stroke-width="3" fill="none" stroke="red" d="M73.283 27L92.424 27"/><path stroke-width="3" fill="none" stroke="#DD0" d="M92.424 27L187.683 27"/><path stroke-width="3" fill="none" stroke="#BBB" d="M47 27L47 27"/><path stroke-width="3" fill="blue" stroke="none" d="M50 27 A3 3 0 0 0 44 27 A3 3 0 0 0 50 27Z"/><text stroke-width="3" fill="red" stroke="none" font-size="8pt" x="47" y="10">-15</text><text stroke="none" font-size="8pt" x="187.683" y="20">80px</text><path stroke-width="3" fill="none" stroke="red" d="M187.683 27L187.683 27"/><path stroke-width="3" fill="none" stroke="#999" d="M187.683 27L187.683 27"/><path stroke-width="3" fill="none" stroke="green" d="M187.683 27L200.825 27"/><path stroke-width="3" fill="none" stroke="#999" d="M200.825 27L213.966 27"/><path stroke-width="3" fill="none" stroke="red" d="M213.966 27L267.391 27"/><path stroke-width="3" fill="none" stroke="#DD0" d="M267.391 27L302.466 27"/><path stroke-width="3" fill="none" stroke="#BBB" d="M187.683 27L187.683 27"/><path stroke-width="3" fill="blue" stroke="none" d="M190.683 27 A3 3 0 0 0 184.683 27 A3 3 0 0 0 190.683 27Z"/><text stroke-width="3" fill="red" stroke="none" font-size="8pt" x="187.683" y="10">+0</text><text stroke="none" font-size="8pt" x="302.466" y="20">45px</text><path stroke-width="3" fill="none" stroke="red" d="M302.466 27L302.466 27"/><path stroke-width="3" fill="none" stroke="#999" d="M302.466 27L302.466 27"/><path stroke-width="3" fill="none" stroke="green" d="M302.466 27L315.608 27"/><path stroke-width="3" fill="none" stroke="#999" d="M315.608 27L328.749 27"/><path stroke-width="3" fill="none" stroke="red" d="M328.749 27L347.891 27"/><path stroke-width="3" fill="none" stroke="#DD0" d="M347.891 27L417.25 27"/><path stroke-width="3" fill="none" stroke="#BBB" d="M302.466 27L302.466 27"/><path stroke-width="3" fill="blue" stroke="none" d="M305.466 27 A3 3 0 0 0 299.466 27 A3 3 0 0 0 305.466 27Z"/><text stroke-width="3" fill="red" stroke="none" font-size="8pt" x="302.466" y="10">+0</text><text stroke="none" font-size="8pt" x="417.25" y="20">73px</text><path stroke-width="3" fill="none" stroke="red" d="M417.25 27L417.25 27"/><path stroke-width="3" fill="none" stroke="#999" d="M417.25 27L417.25 27"/><path stroke-width="3" fill="none" stroke="green" d="M417.25 27L443.532 27"/><path stroke-width="3" fill="none" stroke="#999" d="M443.532 27L443.532 27"/><path stroke-width="3" fill="none" stroke="red" d="M443.532 27L489.815 27"/><path stroke-width="3" fill="none" stroke="#DD0" d="M489.815 27L508.425 27"/><path stroke-width="3" fill="none" stroke="#BBB" d="M417.25 27L417.25 27"/><path stroke-width="3" fill="blue" stroke="none" d="M420.25 27 A3 3 0 0 0 414.25 27 A3 3 0 0 0 420.25 27Z"/><text stroke-width="3" fill="red" stroke="none" font-size="8pt" x="417.25" y="10">-71</text><text stroke="none" font-size="8pt" x="508.425" y="20">32px</text><path stroke-width="3" fill="none" stroke="red" d="M508.425 27L508.425 27"/><path stroke-width="3" fill="none" stroke="#999" d="M508.425 27L508.425 27"/><path stroke-width="3" fill="none" stroke="green" d="M508.425 27L534.708 27"/><path stroke-width="3" fill="none" stroke="#999" d="M534.708 27L534.708 27"/><path stroke-width="3" fill="none" stroke="red" d="M534.708 27L540.708 27"/><path stroke-width="3" fill="none" stroke="#DD0" d="M540.708 27L747 27"/><path stroke-width="3" fill="none" stroke="#BBB" d="M508.425 27L508.425 27"/><path stroke-width="3" fill="blue" stroke="none" d="M511.425 27 A3 3 0 0 0 505.425 27 A3 3 0 0 0 511.425 27Z"/><text stroke-width="3" fill="red" stroke="none" font-size="8pt" x="508.425" y="10">+76</text><path stroke-width="10" fill="none" stroke="green" d="M620 216L630 216"/><text stroke-width="10" stroke="none" font-size="8pt" x="635" y="220">Note + Flag</text><path stroke-width="10" fill="none" stroke="red" d="M620 228L630 228"/><text stroke-width="10" stroke="none" font-size="8pt" x="635" y="232">Modifiers</text><path stroke-width="10" fill="none" stroke="#999" d="M620 240L630 240"/><text stroke-width="10" stroke="none" font-size="8pt" x="635" y="244">Displaced Head</text><path stroke-width="10" fill="none" stroke="#DDD" d="M620 252L630 252"/><text stroke-width="10" stroke="none" font-size="8pt" x="635" y="256">Formatter Shift</text></svg>