<svg xmlns="http://www.w3.org/2000/svg" stroke-width="0.3" stroke-dasharray="none" fill="black" stroke="black" font-family="Arial, sans-serif" font-size="10pt" font-weight="normal" font-style="normal" width="460" height="250" viewBox="0 0 460 250" style="width: 460px; height: 250px; border: none;"><g class="vf-stave" id="vf-auto15585" stroke-width="1" fill="#999999" stroke="#999999"><path fill="none" d="M10 85L430 85"/><path fill="none" d="M10 95L430 95"/><path fill="none" d="M10 105L430 105"/><path fill="none" d="M10 115L430 115"/><path fill="none" d="M10 125L430 125"/></g><g class="vf-stavebarline" id="vf-auto15586"><rect x="10" y="84.5" width="1" height="41" stroke="none"/></g><g class="vf-stavebarline" id="vf-auto15587"><rect x="430" y="84.5" width="1" height="41" stroke="none"/></g><g class="vf-stavenote" id="vf-auto15588"><path stroke-width="1.4" fill="none" stroke="#444" d="M87 135L106.506 135"/><g class="vf-stem" id="vf-auto15589" pointer-events="bounding-box"><path stroke-width="1.5" fill="none" d="M90.75 111.8L90.75 170"/></g><g class="vf-notehead" id="vf-auto15595" pointer-events="bounding-box"><path stroke="none" d="M103.478 133.428C103.422 138.229,99.294 142.048,94.689 142.048C94.015 142.048,93.313 141.964,92.64 141.795C91.207 141.43,90.562 140.391,90.253 138.959C90.084 138.229,90 137.555,90 136.909C90 132.332,93.566 129.384,97.975 128.008C98.115 127.952,98.34 127.924,98.536 127.924C100.502 127.924,103.506 130.226,103.506 132.81C103.506 133.006,103.506 133.231,103.478 133.428M95.981 137.864C97.694 137.274,99.575 136.348,101.204 134.832C101.232 134.803,101.288 134.635,101.288 134.523C101.288 134.382,101.232 134.27,101.204 134.242C100.474 133.512,99.912 132.529,98.733 132.36C98.564 132.332,98.424 132.332,98.199 132.332C96.458 132.332,95.082 133.456,93.65 134.242C92.752 134.747,91.741 135.814,91.938 136.741C92.134 137.752,93.594 137.555,94.521 137.752C94.886 137.836,95.223 137.836,95.981 137.864"/><path stroke="none" d="M60.361 143.208C60.47 143.208,60.635 143.126,60.826 142.907C61.346 142.497,61.92 142.059,62.495 141.648C65.942 139.186,67.803 135.821,67.803 131.525C67.803 130.978,67.803 130.458,67.721 129.911C67.529 127.996,66.435 126.874,64.766 126.874C64.41 126.874,64.027 126.956,63.589 127.093C63.042 127.23,62.495 127.503,61.92 127.75L61.893 127.777L61.893 126.765C61.893 125.26,61.975 123.782,62.057 122.278C62.057 121.402,62.139 120.581,62.139 119.706C62.139 118.885,62.057 118.009,61.866 117.189C61.784 116.915,61.784 116.395,61.373 116.395L61.346 116.395C60.908 116.45,60.58 116.806,60.58 117.353C60.552 118.447,60.443 119.596,60.47 120.691L60.47 121.922C60.47 124.248,60.361 126.573,60.279 128.899C60.169 132.237,59.595 135.52,59.595 138.858C59.595 140.171,59.677 141.539,60.033 142.852C60.115 143.071,60.197 143.208,60.361 143.208M61.428 137.873C61.51 136.86,61.537 135.793,61.647 134.672C61.729 133.824,61.784 132.948,61.784 132.072L61.92 132.018C62.687 131.689,63.425 131.306,64.246 131.306C64.52 131.306,64.848 131.388,65.149 131.498C65.806 131.717,66.107 132.045,66.079 132.483C66.079 132.702,66.024 132.948,65.86 133.276C64.848 135.274,63.179 136.614,61.428 137.873"/></g><g class="vf-notehead" id="vf-auto15594" pointer-events="bounding-box"><path stroke="none" d="M103.478 123.428C103.422 128.229,99.294 132.048,94.689 132.048C94.015 132.048,93.313 131.964,92.64 131.795C91.207 131.43,90.562 130.391,90.253 128.959C90.084 128.229,90 127.555,90 126.909C90 122.332,93.566 119.384,97.975 118.008C98.115 117.952,98.34 117.924,98.536 117.924C100.502 117.924,103.506 120.226,103.506 122.81C103.506 123.006,103.506 123.231,103.478 123.428M95.981 127.864C97.694 127.274,99.575 126.348,101.204 124.832C101.232 124.803,101.288 124.635,101.288 124.523C101.288 124.382,101.232 124.27,101.204 124.242C100.474 123.512,99.912 122.529,98.733 122.36C98.564 122.332,98.424 122.332,98.199 122.332C96.458 122.332,95.082 123.456,93.65 124.242C92.752 124.747,91.741 125.814,91.938 126.741C92.134 127.752,93.594 127.555,94.521 127.752C94.886 127.836,95.223 127.836,95.981 127.864"/><path stroke="none" d="M55.097 142.976C55.535 142.976,55.644 142.401,55.808 142.073C55.836 141.826,55.918 141.635,55.918 141.389C56 138.68,56.027 135.944,56.109 133.208C56.109 131.922,56.027 130.664,56.027 129.405C56.109 126.778,56.246 124.124,56.328 121.498C56.328 121.498,56.383 120.896,56.438 120.404L56.438 120.267L56.465 119.802L56.465 119.555L56.52 118.844C56.52 118.735,56.602 118.269,56.438 117.914C56.246 117.503,56.383 116.655,55.562 116.847C53.702 117.367,51.786 117.558,49.844 117.722C49.981 115.479,50.09 113.18,50.09 110.937C50.09 110.198,50.09 109.487,50.063 108.721C50.063 108.064,49.926 107.435,49.652 106.806C48.366 107.189,48.585 108.365,48.585 109.159C48.64 113.153,48.312 117.093,48.202 121.06C48.147 122.428,48.12 123.824,48.12 125.192C48.12 126.368,48.147 127.517,48.202 128.666C48.202 129.46,48.312 130.253,48.312 130.992C48.312 131.648,48.585 131.867,49.078 131.867C49.187 131.867,49.297 131.867,49.461 131.813L54.221 131.101L54.413 131.074L54.413 134.822C54.413 136.218,54.221 137.695,54.221 139.118C54.221 140.048,54.303 141.006,54.577 141.936C54.687 142.346,54.577 142.976,55.097 142.976M49.707 126.724C49.652 125.383,49.57 124.097,49.625 122.784L49.652 122.291C49.899 122.291,50.172 122.319,50.446 122.291C51.786 122.155,53.127 122.072,54.468 122.045L54.687 122.018L54.577 123.194C54.55 124.207,54.468 125.274,54.468 126.313C52.881 126.724,51.267 126.997,49.707 127.216"/></g><g class="vf-notehead" id="vf-auto15593" pointer-events="bounding-box"><path stroke="none" d="M103.478 108.428C103.422 113.229,99.294 117.048,94.689 117.048C94.015 117.048,93.313 116.964,92.64 116.795C91.207 116.43,90.562 115.391,90.253 113.959C90.084 113.229,90 112.555,90 111.909C90 107.332,93.566 104.384,97.975 103.008C98.115 102.952,98.34 102.924,98.536 102.924C100.502 102.924,103.506 105.226,103.506 107.81C103.506 108.006,103.506 108.231,103.478 108.428M95.981 112.864C97.694 112.274,99.575 111.348,101.204 109.832C101.232 109.803,101.288 109.635,101.288 109.523C101.288 109.382,101.232 109.27,101.204 109.242C100.474 108.512,99.912 107.529,98.733 107.36C98.564 107.332,98.424 107.332,98.199 107.332C96.458 107.332,95.082 108.456,93.65 109.242C92.752 109.747,91.741 110.814,91.938 111.741C92.134 112.752,93.594 112.555,94.521 112.752C94.886 112.836,95.223 112.836,95.981 112.864"/><path stroke="none" d="M77.15 125.13C77.451 125.103,77.533 124.665,77.616 124.391C77.78 123.872,77.807 123.352,77.807 122.887C77.807 122.449,77.78 122.066,77.78 121.628C77.78 121.354,77.78 120.999,77.807 120.725C77.889 119.932,77.971 119.138,77.999 118.345L79.75 117.989C79.832 119.658,80.133 121.272,80.68 122.832C80.735 123.051,80.871 123.27,81.118 123.27C81.364 123.324,81.446 123.051,81.555 122.832C81.829 122.421,81.856 121.902,81.856 121.436C81.911 121.081,81.911 120.752,81.911 120.452C81.911 119.494,81.829 118.509,81.802 117.551L84.072 117.086C86.234 116.648,86.508 116.348,86.672 114.268C86.672 113.748,86.726 113.393,86.672 112.982C86.644 112.49,86.425 112.134,86.015 112.134L85.933 112.134C85.769 112.134,85.659 112.134,85.495 112.161C84.592 112.408,83.607 112.599,82.65 112.763L81.993 112.873C82.02 112.326,82.02 111.724,82.075 111.149C82.103 109.891,82.13 108.632,82.13 107.373C83.252 107.072,84.319 106.772,85.386 106.416C85.96 106.224,86.48 105.896,86.644 105.267C86.781 104.555,87 103.899,87 103.187C87 102.777,86.945 102.367,86.781 101.956C86.644 101.573,86.508 101.382,86.289 101.382L86.207 101.382C86.07 101.382,85.933 101.382,85.769 101.464C84.538 101.956,83.334 102.367,82.075 102.722L81.938 100.588C81.856 98.892,81.802 97.168,81.446 95.472C81.364 95.253,81.391 94.897,81.145 94.897L81.118 94.897L81.008 94.897C80.68 94.979,80.297 95.116,80.242 95.554L80.242 96.293C80.242 98.618,80.324 100.889,80.379 103.187L78.272 103.652C78.272 102.476,78.245 101.3,78.163 100.123C78.135 99.521,78.135 98.974,77.807 98.372C76.932 98.81,77.068 99.548,77.068 100.178C76.986 101.464,76.932 102.668,76.904 103.899C75.81 104.118,74.688 104.282,73.594 104.473C71.979 104.747,71.733 104.993,71.733 106.772C71.624 107.209,71.952 107.702,71.897 108.194C71.815 108.933,72.007 109.179,72.527 109.207C72.636 109.207,72.773 109.179,72.937 109.124C74.223 108.933,75.481 108.741,76.74 108.495L76.631 112.052C76.576 112.709,76.521 113.338,76.439 113.967C74.962 114.268,73.512 114.542,72.061 114.897C71.241 115.089,70.748 115.39,70.748 116.348C70.748 117.278,71.104 118.153,71.159 119.056C71.159 119.494,71.268 119.685,71.596 119.74C71.651 119.74,71.788 119.685,71.952 119.658C73.347 119.33,74.77 119.056,76.193 118.755C76.165 119.248,76.165 119.768,76.165 120.315C76.165 121.71,76.302 123.051,76.795 124.391C76.877 124.665,76.795 125.13,77.15 125.13M78.19 113.612C78.245 112.763,78.245 111.888,78.272 111.012C78.327 110.082,78.327 109.179,78.327 108.222C78.984 108.112,79.613 108.003,80.242 107.839C80.051 109.644,79.968 111.45,79.859 113.283"/></g></g><g class="vf-stavenote" id="vf-auto15602"><path stroke-width="1.4" fill="none" stroke="#444" d="M87 75L119.263 75"/><g class="vf-stem" id="vf-auto15603" pointer-events="bounding-box"><path stroke-width="1.5" fill="none" d="M102.756 93.2L102.756 35"/></g><g class="vf-notehead" id="vf-auto15607" pointer-events="bounding-box"><path stroke="none" d="M104.203 93.428C104.147 98.229,100.019 102.048,95.414 102.048C94.74 102.048,94.038 101.964,93.365 101.795C91.932 101.43,91.287 100.391,90.978 98.959C90.809 98.229,90.725 97.555,90.725 96.909C90.725 92.332,94.291 89.384,98.7 88.008C98.84 87.952,99.065 87.924,99.261 87.924C101.227 87.924,104.231 90.226,104.231 92.81C104.231 93.006,104.231 93.231,104.203 93.428M96.706 97.864C98.419 97.274,100.3 96.348,101.929 94.832C101.957 94.803,102.013 94.635,102.013 94.523C102.013 94.382,101.957 94.27,101.929 94.242C101.199 93.512,100.637 92.529,99.458 92.36C99.289 92.332,99.149 92.332,98.924 92.332C97.183 92.332,95.807 93.456,94.375 94.242C93.477 94.747,92.466 95.814,92.663 96.741C92.859 97.752,94.319 97.555,95.246 97.752C95.611 97.836,95.948 97.836,96.706 97.864"/><path stroke="none" d="M60.361 103.208C60.47 103.208,60.635 103.126,60.826 102.907C61.346 102.497,61.92 102.059,62.495 101.648C65.942 99.186,67.803 95.821,67.803 91.525C67.803 90.978,67.803 90.458,67.721 89.911C67.529 87.996,66.435 86.874,64.766 86.874C64.41 86.874,64.027 86.956,63.589 87.093C63.042 87.23,62.495 87.503,61.92 87.75L61.893 87.777L61.893 86.765C61.893 85.26,61.975 83.782,62.057 82.278C62.057 81.402,62.139 80.581,62.139 79.706C62.139 78.885,62.057 78.009,61.866 77.189C61.784 76.915,61.784 76.395,61.373 76.395L61.346 76.395C60.908 76.45,60.58 76.806,60.58 77.353C60.552 78.447,60.443 79.596,60.47 80.691L60.47 81.922C60.47 84.248,60.361 86.573,60.279 88.899C60.169 92.237,59.595 95.52,59.595 98.858C59.595 100.171,59.677 101.539,60.033 102.852C60.115 103.071,60.197 103.208,60.361 103.208M61.428 97.873C61.51 96.86,61.537 95.793,61.647 94.672C61.729 93.824,61.784 92.948,61.784 92.072L61.92 92.018C62.687 91.689,63.425 91.306,64.246 91.306C64.52 91.306,64.848 91.388,65.149 91.498C65.806 91.717,66.107 92.045,66.079 92.483C66.079 92.702,66.024 92.948,65.86 93.276C64.848 95.274,63.179 96.614,61.428 97.873"/></g><g class="vf-notehead" id="vf-auto15608" pointer-events="bounding-box"><path stroke="none" d="M104.203 73.428C104.147 78.229,100.019 82.048,95.414 82.048C94.74 82.048,94.038 81.964,93.365 81.795C91.932 81.43,91.287 80.391,90.978 78.959C90.809 78.229,90.725 77.555,90.725 76.909C90.725 72.332,94.291 69.384,98.7 68.008C98.84 67.952,99.065 67.924,99.261 67.924C101.227 67.924,104.231 70.226,104.231 72.81C104.231 73.006,104.231 73.231,104.203 73.428M96.706 77.864C98.419 77.274,100.3 76.348,101.929 74.832C101.957 74.803,102.013 74.635,102.013 74.523C102.013 74.382,101.957 74.27,101.929 74.242C101.199 73.512,100.637 72.529,99.458 72.36C99.289 72.332,99.149 72.332,98.924 72.332C97.183 72.332,95.807 73.456,94.375 74.242C93.477 74.747,92.466 75.814,92.663 76.741C92.859 77.752,94.319 77.555,95.246 77.752C95.611 77.836,95.948 77.836,96.706 77.864"/><path stroke="none" d="M43.572 83.673C43.9 83.673,44.119 83.482,44.365 83.235C45.35 82.332,46.061 81.183,46.773 80.089C47.484 78.967,48.195 77.791,48.852 76.642C48.825 77.326,48.77 77.955,48.77 78.584C48.77 79.405,48.825 80.198,48.934 81.019C48.961 81.375,48.934 81.566,49.481 81.731C50.165 81.895,50.357 81.512,50.63 81.238C52.491 79.46,53.777 77.326,55.117 75.192C56.075 73.687,56.54 72.045,56.54 70.267C56.54 68.735,56.212 67.23,54.734 66.6C54.324 66.464,53.941 66.382,53.585 66.382C52.847 66.382,52.135 66.655,51.451 67.148C51.26 67.284,51.15 67.503,50.904 67.503L50.877 67.503L50.877 59.514C50.877 58.994,50.931 58.502,50.74 58.009C50.63 57.818,50.74 57.435,50.439 57.435L50.384 57.435C50.111 57.462,49.673 57.599,49.618 57.982C49.481 58.42,49.399 58.858,49.317 59.268C49.18 60.691,49.126 62.113,49.126 63.564C49.126 65.15,49.18 66.737,49.18 68.352L49.18 69.884C48.414 68.844,47.676 68.488,46.882 68.488C46.225 68.488,45.459 68.817,44.721 69.172C44.721 68.981,44.693 68.844,44.693 68.735C44.721 67.941,44.748 67.148,44.748 66.382C44.748 64.439,44.639 62.469,44.611 60.554C44.611 60.034,44.529 59.514,44.338 59.076C44.201 58.858,44.256 58.502,43.927 58.502L43.845 58.502C43.489 58.584,43.106 58.639,43.024 59.131C42.942 59.514,42.915 59.897,42.915 60.308C42.915 60.499,42.915 60.745,42.942 60.937C43.052 62.086,43.106 63.18,43.106 64.33C43.106 67.284,42.833 70.239,42.778 73.194C42.751 75.328,42.395 77.49,42.395 79.596C42.395 80.636,42.477 81.621,42.723 82.633C42.833 83.044,42.778 83.427,43.216 83.591C43.353 83.673,43.462 83.673,43.572 83.673M50.63 76.97C50.658 76.231,50.658 75.52,50.658 74.808L50.658 72.647C50.712 71.689,51.178 71.033,51.998 70.677C52.272 70.54,52.6 70.458,52.874 70.458C53.394 70.458,53.859 70.704,54.297 71.088C54.461 71.224,54.57 71.388,54.57 71.525C54.57 71.662,54.543 71.772,54.461 71.881C53.257 73.659,52.08 75.383,50.63 76.97M44.447 79.022C44.447 77.353,44.447 75.793,44.392 74.179C44.392 73.304,44.912 72.921,45.624 72.756C45.788 72.702,45.897 72.702,46.007 72.702C46.663 72.702,47.156 73.112,47.593 73.577C47.648 73.659,47.676 73.769,47.676 73.906C47.676 73.988,47.676 74.042,47.648 74.097C46.691 75.821,45.815 77.599,44.447 79.022"/></g><g class="vf-notehead" id="vf-auto15609" pointer-events="bounding-box"><path stroke="none" d="M114.96 68.428C114.904 73.229,110.776 77.048,106.171 77.048C105.497 77.048,104.795 76.964,104.121 76.795C102.689 76.43,102.043 75.391,101.734 73.959C101.566 73.229,101.481 72.555,101.481 71.909C101.481 67.332,105.048 64.384,109.456 63.008C109.597 62.952,109.821 62.924,110.018 62.924C111.983 62.924,114.988 65.226,114.988 67.81C114.988 68.006,114.988 68.231,114.96 68.428M107.463 72.864C109.175 72.274,111.057 71.348,112.685 69.832C112.713 69.803,112.77 69.635,112.77 69.523C112.77 69.382,112.713 69.27,112.685 69.242C111.955 68.512,111.394 67.529,110.214 67.36C110.046 67.332,109.905 67.332,109.681 67.332C107.94 67.332,106.564 68.456,105.132 69.242C104.233 69.747,103.222 70.814,103.419 71.741C103.616 72.752,105.076 72.555,106.002 72.752C106.367 72.836,106.704 72.836,107.463 72.864"/><path stroke="none" d="M77.999 76.265C78.19 76.265,78.382 76.156,78.628 75.91C79.476 75.089,80.269 74.213,81.172 73.42C81.501 73.146,81.774 72.873,82.048 72.599C83.115 73.42,84.182 74.296,85.194 75.171C85.44 75.363,85.632 75.472,85.824 75.472C86.097 75.472,86.343 75.253,86.535 74.897C86.918 74.213,86.808 73.42,86.973 72.791C86.918 71.888,86.644 71.259,86.015 70.739L84.592 69.617C85.276 68.851,85.933 68.14,86.699 67.51C86.918 67.373,87 67.072,87 66.525C86.891 65.951,86.562 65.185,86.152 64.528C85.824 63.981,85.55 63.735,85.276 63.735C85.003 63.735,84.674 63.899,84.291 64.254C83.908 64.555,83.498 64.884,83.197 65.239C82.595 65.869,82.048 66.498,81.501 67.155C80.434 66.388,79.312 65.595,78.217 64.884C78.053 64.747,77.944 64.72,77.834 64.72C77.752 64.72,77.67 64.72,77.561 64.802C77.397 64.911,77.15 64.884,77.014 65.103C76.877 65.404,76.795 65.787,76.795 66.252C76.795 67.483,77.232 69.124,77.916 69.562C78.135 69.726,78.382 69.891,78.628 70.082C77.78 70.876,76.932 71.696,76.083 72.572C75.864 72.791,75.7 73.119,75.7 73.393C75.7 73.666,75.782 73.94,76.029 74.213C76.412 74.815,77.014 75.28,77.397 75.882C77.588 76.156,77.78 76.265,77.999 76.265"/></g></g><text stroke="none" font-size="8pt" x="39.395" y="180">64px</text><path stroke-width="3" fill="none" stroke="red" d="M39.395 187L90 187"/><path stroke-width="3" fill="none" stroke="#999" d="M90 187L90 187"/><path stroke-width="3" fill="none" stroke="green" d="M90 187L103.506 187"/><path stroke-width="3" fill="none" stroke="#999" d="M103.506 187L103.506 187"/><path stroke-width="3" fill="none" stroke="red" d="M103.506 187L103.506 187"/><path stroke-width="3" fill="none" stroke="#DD0" d="M103.506 187L103.506 187"/><path stroke-width="3" fill="none" stroke="#BBB" d="M39.395 187L39.395 187"/><path stroke-width="3" fill="blue" stroke="none" d="M93 187 A3 3 0 0 0 87 187 A3 3 0 0 0 93 187Z"/><text stroke="none" font-size="8pt" x="39.395" y="15">78px</text><path stroke-width="3" fill="none" stroke="red" d="M39.395 22L90 22"/><path stroke-width="3" fill="none" stroke="#999" d="M90 22L90 22"/><path stroke-width="3" fill="none" stroke="green" d="M90 22L103.506 22"/><path stroke-width="3" fill="none" stroke="#999" d="M103.506 22L117.013 22"/><path stroke-width="3" fill="none" stroke="red" d="M117.013 22L117.013 22"/><path stroke-width="3" fill="none" stroke="#DD0" d="M117.013 22L117.013 22"/><path stroke-width="3" fill="none" stroke="#BBB" d="M39.395 22L39.395 22"/><path stroke-width="3" fill="blue" stroke="none" d="M93 22 A3 3 0 0 0 87 22 A3 3 0 0 0 93 22Z"/><g class="vf-stavenote" id="vf-auto15616"><path stroke-width="1.4" fill="none" stroke="#444" d="M206.016 135L225.523 135"/><g class="vf-stem" id="vf-auto15617" pointer-events="bounding-box"><path stroke-width="1.5" fill="none" d="M209.766 101.8L209.766 170"/></g><g class="vf-notehead" id="vf-auto15623" pointer-events="bounding-box"><path stroke="none" d="M222.495 133.428C222.438 138.229,218.311 142.048,213.706 142.048C213.032 142.048,212.33 141.964,211.656 141.795C210.224 141.43,209.578 140.391,209.269 138.959C209.1 138.229,209.016 137.555,209.016 136.909C209.016 132.332,212.582 129.384,216.991 128.008C217.131 127.952,217.356 127.924,217.553 127.924C219.518 127.924,222.523 130.226,222.523 132.81C222.523 133.006,222.523 133.231,222.495 133.428M214.997 137.864C216.71 137.274,218.591 136.348,220.22 134.832C220.248 134.803,220.304 134.635,220.304 134.523C220.304 134.382,220.248 134.27,220.22 134.242C219.49 133.512,218.928 132.529,217.749 132.36C217.581 132.332,217.44 132.332,217.216 132.332C215.475 132.332,214.099 133.456,212.667 134.242C211.768 134.747,210.757 135.814,210.954 136.741C211.15 137.752,212.61 137.555,213.537 137.752C213.902 137.836,214.239 137.836,214.997 137.864"/><path stroke="none" d="M158.193 143.208C158.302 143.208,158.466 143.126,158.658 142.907C159.178 142.497,159.752 142.059,160.327 141.648C163.774 139.186,165.635 135.821,165.635 131.525C165.635 130.978,165.635 130.458,165.553 129.911C165.361 127.996,164.267 126.874,162.598 126.874C162.242 126.874,161.859 126.956,161.421 127.093C160.874 127.23,160.327 127.503,159.752 127.75L159.725 127.777L159.725 126.765C159.725 125.26,159.807 123.782,159.889 122.278C159.889 121.402,159.971 120.581,159.971 119.706C159.971 118.885,159.889 118.009,159.698 117.189C159.615 116.915,159.615 116.395,159.205 116.395L159.178 116.395C158.74 116.45,158.412 116.806,158.412 117.353C158.384 118.447,158.275 119.596,158.302 120.691L158.302 121.922C158.302 124.248,158.193 126.573,158.111 128.899C158.001 132.237,157.427 135.52,157.427 138.858C157.427 140.171,157.509 141.539,157.864 142.852C157.947 143.071,158.029 143.208,158.193 143.208M159.26 137.873C159.342 136.86,159.369 135.793,159.479 134.672C159.561 133.824,159.615 132.948,159.615 132.072L159.752 132.018C160.518 131.689,161.257 131.306,162.078 131.306C162.351 131.306,162.68 131.388,162.981 131.498C163.637 131.717,163.938 132.045,163.911 132.483C163.911 132.702,163.856 132.948,163.692 133.276C162.68 135.274,161.011 136.614,159.26 137.873"/></g><g class="vf-notehead" id="vf-auto15622" pointer-events="bounding-box"><path stroke="none" d="M222.495 123.428C222.438 128.229,218.311 132.048,213.706 132.048C213.032 132.048,212.33 131.964,211.656 131.795C210.224 131.43,209.578 130.391,209.269 128.959C209.1 128.229,209.016 127.555,209.016 126.909C209.016 122.332,212.582 119.384,216.991 118.008C217.131 117.952,217.356 117.924,217.553 117.924C219.518 117.924,222.523 120.226,222.523 122.81C222.523 123.006,222.523 123.231,222.495 123.428M214.997 127.864C216.71 127.274,218.591 126.348,220.22 124.832C220.248 124.803,220.304 124.635,220.304 124.523C220.304 124.382,220.248 124.27,220.22 124.242C219.49 123.512,218.928 122.529,217.749 122.36C217.581 122.332,217.44 122.332,217.216 122.332C215.475 122.332,214.099 123.456,212.667 124.242C211.768 124.747,210.757 125.814,210.954 126.741C211.15 127.752,212.61 127.555,213.537 127.752C213.902 127.836,214.239 127.836,214.997 127.864"/><path stroke="none" d="M175.557 142.976C175.995 142.976,176.104 142.401,176.268 142.073C176.295 141.826,176.378 141.635,176.378 141.389C176.46 138.68,176.487 135.944,176.569 133.208C176.569 131.922,176.487 130.664,176.487 129.405C176.569 126.778,176.706 124.124,176.788 121.498C176.788 121.498,176.843 120.896,176.897 120.404L176.897 120.267L176.925 119.802L176.925 119.555L176.979 118.844C176.979 118.735,177.062 118.269,176.897 117.914C176.706 117.503,176.843 116.655,176.022 116.847C174.161 117.367,172.246 117.558,170.304 117.722C170.44 115.479,170.55 113.18,170.55 110.937C170.55 110.198,170.55 109.487,170.523 108.721C170.523 108.064,170.386 107.435,170.112 106.806C168.826 107.189,169.045 108.365,169.045 109.159C169.1 113.153,168.771 117.093,168.662 121.06C168.607 122.428,168.58 123.824,168.58 125.192C168.58 126.368,168.607 127.517,168.662 128.666C168.662 129.46,168.771 130.253,168.771 130.992C168.771 131.648,169.045 131.867,169.538 131.867C169.647 131.867,169.756 131.867,169.921 131.813L174.681 131.101L174.873 131.074L174.873 134.822C174.873 136.218,174.681 137.695,174.681 139.118C174.681 140.048,174.763 141.006,175.037 141.936C175.146 142.346,175.037 142.976,175.557 142.976M170.167 126.724C170.112 125.383,170.03 124.097,170.085 122.784L170.112 122.291C170.358 122.291,170.632 122.319,170.906 122.291C172.246 122.155,173.587 122.072,174.927 122.045L175.146 122.018L175.037 123.194C175.01 124.207,174.927 125.274,174.927 126.313C173.341 126.724,171.726 126.997,170.167 127.216"/></g><g class="vf-notehead" id="vf-auto15621" pointer-events="bounding-box"><path stroke="none" d="M222.495 98.428C222.438 103.229,218.311 107.048,213.706 107.048C213.032 107.048,212.33 106.964,211.656 106.795C210.224 106.43,209.578 105.391,209.269 103.959C209.1 103.229,209.016 102.555,209.016 101.909C209.016 97.332,212.582 94.384,216.991 93.008C217.131 92.952,217.356 92.924,217.553 92.924C219.518 92.924,222.523 95.226,222.523 97.81C222.523 98.006,222.523 98.231,222.495 98.428M214.997 102.864C216.71 102.274,218.591 101.348,220.22 99.832C220.248 99.803,220.304 99.635,220.304 99.523C220.304 99.382,220.248 99.27,220.22 99.242C219.49 98.512,218.928 97.529,217.749 97.36C217.581 97.332,217.44 97.332,217.216 97.332C215.475 97.332,214.099 98.456,212.667 99.242C211.768 99.747,210.757 100.814,210.954 101.741C211.15 102.752,212.61 102.555,213.537 102.752C213.902 102.836,214.239 102.836,214.997 102.864"/><path stroke="none" d="M155.73 115.13C156.031 115.103,156.113 114.665,156.195 114.391C156.36 113.872,156.387 113.352,156.387 112.887C156.387 112.449,156.36 112.066,156.36 111.628C156.36 111.354,156.36 110.999,156.387 110.725C156.469 109.932,156.551 109.138,156.579 108.345L158.33 107.989C158.412 109.658,158.713 111.272,159.26 112.832C159.315 113.051,159.451 113.27,159.698 113.27C159.944 113.324,160.026 113.051,160.135 112.832C160.409 112.421,160.436 111.902,160.436 111.436C160.491 111.081,160.491 110.752,160.491 110.452C160.491 109.494,160.409 108.509,160.382 107.551L162.652 107.086C164.814 106.648,165.087 106.348,165.252 104.268C165.252 103.748,165.306 103.393,165.252 102.982C165.224 102.49,165.005 102.134,164.595 102.134L164.513 102.134C164.349 102.134,164.239 102.134,164.075 102.161C163.172 102.408,162.187 102.599,161.23 102.763L160.573 102.873C160.6 102.326,160.6 101.724,160.655 101.149C160.683 99.891,160.71 98.632,160.71 97.373C161.832 97.072,162.899 96.772,163.966 96.416C164.54 96.224,165.06 95.896,165.224 95.267C165.361 94.555,165.58 93.899,165.58 93.187C165.58 92.777,165.525 92.367,165.361 91.956C165.224 91.573,165.087 91.382,164.869 91.382L164.787 91.382C164.65 91.382,164.513 91.382,164.349 91.464C163.118 91.956,161.914 92.367,160.655 92.722L160.518 90.588C160.436 88.892,160.382 87.168,160.026 85.472C159.944 85.253,159.971 84.897,159.725 84.897L159.698 84.897L159.588 84.897C159.26 84.979,158.877 85.116,158.822 85.554L158.822 86.293C158.822 88.618,158.904 90.889,158.959 93.187L156.852 93.652C156.852 92.476,156.825 91.3,156.743 90.123C156.715 89.521,156.715 88.974,156.387 88.372C155.511 88.81,155.648 89.548,155.648 90.178C155.566 91.464,155.511 92.668,155.484 93.899C154.39 94.118,153.268 94.282,152.174 94.473C150.559 94.747,150.313 94.993,150.313 96.772C150.204 97.209,150.532 97.702,150.477 98.194C150.395 98.933,150.587 99.179,151.107 99.207C151.216 99.207,151.353 99.179,151.517 99.124C152.803 98.933,154.061 98.741,155.32 98.495L155.211 102.052C155.156 102.709,155.101 103.338,155.019 103.967C153.542 104.268,152.091 104.542,150.641 104.897C149.821 105.089,149.328 105.39,149.328 106.348C149.328 107.278,149.684 108.153,149.739 109.056C149.739 109.494,149.848 109.685,150.176 109.74C150.231 109.74,150.368 109.685,150.532 109.658C151.927 109.33,153.35 109.056,154.773 108.755C154.745 109.248,154.745 109.768,154.745 110.315C154.745 111.71,154.882 113.051,155.375 114.391C155.457 114.665,155.375 115.13,155.73 115.13M156.77 103.612C156.825 102.763,156.825 101.888,156.852 101.012C156.907 100.082,156.907 99.179,156.907 98.222C157.563 98.112,158.193 98.003,158.822 97.839C158.631 99.644,158.548 101.45,158.439 103.283"/></g></g><g class="vf-stavenote" id="vf-auto15630"><path stroke-width="1.4" fill="none" stroke="#444" d="M177 75L209.266 75"/><g class="vf-stem" id="vf-auto15631" pointer-events="bounding-box"><path stroke-width="1.5" fill="none" d="M192.758 93L192.758 35"/></g><g class="vf-notehead" id="vf-auto15635" pointer-events="bounding-box"><path stroke="none" d="M183.645 101.543C183.926 101.599,184.178 101.627,184.459 101.627C188.334 101.627,194.119 96.348,194.006 92.08C193.894 91.041,193.922 89.609,191.816 88.766C191.227 88.485,190.581 88.373,189.879 88.373C185.554 88.373,180.865 93.343,180.528 96.657C180.528 96.909,180.5 97.134,180.5 97.387C180.5 99.409,181.399 101.037,183.645 101.543"/><path stroke="none" d="M169.613 103.208C169.722 103.208,169.886 103.126,170.078 102.907C170.598 102.497,171.172 102.059,171.747 101.648C175.194 99.186,177.055 95.821,177.055 91.525C177.055 90.978,177.055 90.458,176.973 89.911C176.781 87.996,175.687 86.874,174.018 86.874C173.662 86.874,173.279 86.956,172.841 87.093C172.294 87.23,171.747 87.503,171.172 87.75L171.145 87.777L171.145 86.765C171.145 85.26,171.227 83.782,171.309 82.278C171.309 81.402,171.391 80.581,171.391 79.706C171.391 78.885,171.309 78.009,171.118 77.189C171.036 76.915,171.036 76.395,170.625 76.395L170.598 76.395C170.16 76.45,169.832 76.806,169.832 77.353C169.804 78.447,169.695 79.596,169.722 80.691L169.722 81.922C169.722 84.248,169.613 86.573,169.531 88.899C169.421 92.237,168.847 95.52,168.847 98.858C168.847 100.171,168.929 101.539,169.284 102.852C169.367 103.071,169.449 103.208,169.613 103.208M170.68 97.873C170.762 96.86,170.789 95.793,170.899 94.672C170.981 93.824,171.036 92.948,171.036 92.072L171.172 92.018C171.938 91.689,172.677 91.306,173.498 91.306C173.772 91.306,174.1 91.388,174.401 91.498C175.057 91.717,175.358 92.045,175.331 92.483C175.331 92.702,175.276 92.948,175.112 93.276C174.1 95.274,172.431 96.614,170.68 97.873"/></g><g class="vf-notehead" id="vf-auto15636" pointer-events="bounding-box"><path stroke="none" d="M183.645 81.543C183.926 81.599,184.178 81.627,184.459 81.627C188.334 81.627,194.119 76.348,194.006 72.08C193.894 71.041,193.922 69.609,191.816 68.766C191.227 68.485,190.581 68.373,189.879 68.373C185.554 68.373,180.865 73.343,180.528 76.657C180.528 76.909,180.5 77.134,180.5 77.387C180.5 79.409,181.399 81.037,183.645 81.543"/></g><g class="vf-notehead" id="vf-auto15637" pointer-events="bounding-box"><path stroke="none" d="M194.403 76.543C194.684 76.599,194.937 76.627,195.217 76.627C199.092 76.627,204.877 71.348,204.765 67.08C204.652 66.041,204.68 64.609,202.574 63.766C201.985 63.485,201.339 63.373,200.637 63.373C196.312 63.373,191.623 68.343,191.286 71.657C191.286 71.909,191.258 72.134,191.258 72.387C191.258 74.409,192.157 76.037,194.403 76.543"/></g></g><text stroke="none" font-size="8pt" x="175.344" y="180">76px</text><path stroke-width="3" fill="none" stroke="red" d="M175.344 187L209.016 187"/><path stroke-width="3" fill="none" stroke="#999" d="M209.016 187L209.016 187"/><path stroke-width="3" fill="none" stroke="green" d="M209.016 187L222.523 187"/><path stroke-width="3" fill="none" stroke="#999" d="M222.523 187L222.523 187"/><path stroke-width="3" fill="none" stroke="red" d="M222.523 187L251.539 187"/><path stroke-width="3" fill="none" stroke="#DD0" d="M251.539 187L251.539 187"/><path stroke-width="3" fill="none" stroke="#BBB" d="M146.328 187L175.344 187"/><path stroke-width="3" fill="blue" stroke="none" d="M212.016 187 A3 3 0 0 0 206.016 187 A3 3 0 0 0 212.016 187Z"/><text stroke="none" font-size="8pt" x="146.328" y="15">90px</text><path stroke-width="3" fill="none" stroke="red" d="M146.328 22L180 22"/><path stroke-width="3" fill="none" stroke="#999" d="M180 22L180 22"/><path stroke-width="3" fill="none" stroke="green" d="M180 22L193.508 22"/><path stroke-width="3" fill="none" stroke="#999" d="M193.508 22L207.016 22"/><path stroke-width="3" fill="none" stroke="red" d="M207.016 22L236.032 22"/><path stroke-width="3" fill="none" stroke="#DD0" d="M236.032 22L236.032 22"/><path stroke-width="3" fill="none" stroke="#BBB" d="M146.328 22L146.328 22"/><path stroke-width="3" fill="blue" stroke="none" d="M183 22 A3 3 0 0 0 177 22 A3 3 0 0 0 183 22Z"/><g class="vf-stavenote" id="vf-auto15640"><g class="vf-stem" id="vf-auto15641" pointer-events="bounding-box"><path stroke-width="1.5" fill="none" d="M309.766 96.8L309.766 165"/></g><g class="vf-notehead" id="vf-auto15647" pointer-events="bounding-box"><path stroke="none" d="M322.495 128.428C322.438 133.229,318.311 137.048,313.706 137.048C313.032 137.048,312.33 136.964,311.656 136.795C310.224 136.43,309.578 135.391,309.269 133.959C309.1 133.229,309.016 132.555,309.016 131.909C309.016 127.332,312.582 124.384,316.991 123.008C317.131 122.952,317.356 122.924,317.553 122.924C319.518 122.924,322.523 125.226,322.523 127.81C322.523 128.006,322.523 128.231,322.495 128.428M314.997 132.864C316.71 132.274,318.591 131.348,320.22 129.832C320.248 129.803,320.304 129.635,320.304 129.523C320.304 129.382,320.248 129.27,320.22 129.242C319.49 128.512,318.928 127.529,317.749 127.36C317.581 127.332,317.44 127.332,317.216 127.332C315.475 127.332,314.099 128.456,312.667 129.242C311.768 129.747,310.757 130.814,310.954 131.741C311.15 132.752,312.61 132.555,313.537 132.752C313.902 132.836,314.239 132.836,314.997 132.864"/><path stroke="none" d="M269.613 138.208C269.722 138.208,269.886 138.126,270.078 137.907C270.598 137.497,271.172 137.059,271.747 136.648C275.194 134.186,277.055 130.821,277.055 126.525C277.055 125.978,277.055 125.458,276.973 124.911C276.781 122.996,275.687 121.874,274.018 121.874C273.662 121.874,273.279 121.956,272.841 122.093C272.294 122.23,271.747 122.503,271.172 122.75L271.145 122.777L271.145 121.765C271.145 120.26,271.227 118.782,271.309 117.278C271.309 116.402,271.391 115.581,271.391 114.706C271.391 113.885,271.309 113.009,271.118 112.189C271.036 111.915,271.036 111.395,270.625 111.395L270.598 111.395C270.16 111.45,269.832 111.806,269.832 112.353C269.804 113.447,269.695 114.596,269.722 115.691L269.722 116.922C269.722 119.248,269.613 121.573,269.531 123.899C269.421 127.237,268.847 130.52,268.847 133.858C268.847 135.171,268.929 136.539,269.284 137.852C269.367 138.071,269.449 138.208,269.613 138.208M270.68 132.873C270.762 131.86,270.789 130.793,270.899 129.672C270.981 128.824,271.036 127.948,271.036 127.072L271.172 127.018C271.938 126.689,272.677 126.306,273.498 126.306C273.772 126.306,274.1 126.388,274.401 126.498C275.057 126.717,275.358 127.045,275.331 127.483C275.331 127.702,275.276 127.948,275.112 128.276C274.1 130.274,272.431 131.614,270.68 132.873"/></g><g class="vf-notehead" id="vf-auto15646" pointer-events="bounding-box"><path stroke="none" d="M311.738 98.428C311.682 103.229,307.554 107.048,302.949 107.048C302.275 107.048,301.573 106.964,300.899 106.795C299.467 106.43,298.821 105.391,298.512 103.959C298.344 103.229,298.26 102.555,298.26 101.909C298.26 97.332,301.826 94.384,306.234 93.008C306.375 92.952,306.599 92.924,306.796 92.924C308.762 92.924,311.766 95.226,311.766 97.81C311.766 98.006,311.766 98.231,311.738 98.428M304.241 102.864C305.954 102.274,307.835 101.348,309.464 99.832C309.492 99.803,309.548 99.635,309.548 99.523C309.548 99.382,309.492 99.27,309.464 99.242C308.734 98.512,308.172 97.529,306.993 97.36C306.824 97.332,306.684 97.332,306.459 97.332C304.718 97.332,303.342 98.456,301.91 99.242C301.012 99.747,300.001 100.814,300.197 101.741C300.394 102.752,301.854 102.555,302.781 102.752C303.146 102.836,303.483 102.836,304.241 102.864"/><path stroke="none" d="M245.097 117.976C245.535 117.976,245.644 117.401,245.808 117.073C245.836 116.826,245.918 116.635,245.918 116.389C246 113.68,246.027 110.944,246.109 108.208C246.109 106.922,246.027 105.664,246.027 104.405C246.109 101.778,246.246 99.124,246.328 96.498C246.328 96.498,246.383 95.896,246.438 95.404L246.438 95.267L246.465 94.802L246.465 94.555L246.52 93.844C246.52 93.735,246.602 93.269,246.438 92.914C246.246 92.503,246.383 91.655,245.562 91.847C243.702 92.367,241.786 92.558,239.844 92.722C239.981 90.479,240.09 88.18,240.09 85.937C240.09 85.198,240.09 84.487,240.063 83.721C240.063 83.064,239.926 82.435,239.652 81.806C238.366 82.189,238.585 83.365,238.585 84.159C238.64 88.153,238.312 92.093,238.202 96.06C238.147 97.428,238.12 98.824,238.12 100.192C238.12 101.368,238.147 102.517,238.202 103.666C238.202 104.46,238.312 105.253,238.312 105.992C238.312 106.648,238.585 106.867,239.078 106.867C239.187 106.867,239.297 106.867,239.461 106.813L244.221 106.101L244.413 106.074L244.413 109.822C244.413 111.218,244.221 112.695,244.221 114.118C244.221 115.048,244.303 116.006,244.577 116.936C244.687 117.346,244.577 117.976,245.097 117.976M239.707 101.724C239.652 100.383,239.57 99.097,239.625 97.784L239.652 97.291C239.899 97.291,240.172 97.319,240.446 97.291C241.786 97.155,243.127 97.072,244.468 97.045L244.687 97.018L244.577 98.194C244.55 99.207,244.468 100.274,244.468 101.313C242.881 101.724,241.267 101.997,239.707 102.216"/></g><g class="vf-notehead" id="vf-auto15645" pointer-events="bounding-box"><path stroke="none" d="M322.495 93.428C322.438 98.229,318.311 102.048,313.706 102.048C313.032 102.048,312.33 101.964,311.656 101.795C310.224 101.43,309.578 100.391,309.269 98.959C309.1 98.229,309.016 97.555,309.016 96.909C309.016 92.332,312.582 89.384,316.991 88.008C317.131 87.952,317.356 87.924,317.553 87.924C319.518 87.924,322.523 90.226,322.523 92.81C322.523 93.006,322.523 93.231,322.495 93.428M314.997 97.864C316.71 97.274,318.591 96.348,320.22 94.832C320.248 94.803,320.304 94.635,320.304 94.523C320.304 94.382,320.248 94.27,320.22 94.242C319.49 93.512,318.928 92.529,317.749 92.36C317.581 92.332,317.44 92.332,317.216 92.332C315.475 92.332,314.099 93.456,312.667 94.242C311.768 94.747,310.757 95.814,310.954 96.741C311.15 97.752,312.61 97.555,313.537 97.752C313.902 97.836,314.239 97.836,314.997 97.864"/><path stroke="none" d="M267.15 110.13C267.451 110.103,267.533 109.665,267.616 109.391C267.78 108.872,267.807 108.352,267.807 107.887C267.807 107.449,267.78 107.066,267.78 106.628C267.78 106.354,267.78 105.999,267.807 105.725C267.889 104.932,267.971 104.138,267.999 103.345L269.75 102.989C269.832 104.658,270.133 106.272,270.68 107.832C270.735 108.051,270.871 108.27,271.118 108.27C271.364 108.324,271.446 108.051,271.555 107.832C271.829 107.421,271.856 106.902,271.856 106.436C271.911 106.081,271.911 105.752,271.911 105.452C271.911 104.494,271.829 103.509,271.802 102.551L274.072 102.086C276.234 101.648,276.508 101.348,276.672 99.268C276.672 98.748,276.726 98.393,276.672 97.982C276.644 97.49,276.425 97.134,276.015 97.134L275.933 97.134C275.769 97.134,275.659 97.134,275.495 97.161C274.592 97.408,273.607 97.599,272.65 97.763L271.993 97.873C272.02 97.326,272.02 96.724,272.075 96.149C272.103 94.891,272.13 93.632,272.13 92.373C273.252 92.072,274.319 91.772,275.386 91.416C275.96 91.224,276.48 90.896,276.644 90.267C276.781 89.555,277 88.899,277 88.187C277 87.777,276.945 87.367,276.781 86.956C276.644 86.573,276.508 86.382,276.289 86.382L276.207 86.382C276.07 86.382,275.933 86.382,275.769 86.464C274.538 86.956,273.334 87.367,272.075 87.722L271.938 85.588C271.856 83.892,271.802 82.168,271.446 80.472C271.364 80.253,271.391 79.897,271.145 79.897L271.118 79.897L271.008 79.897C270.68 79.979,270.297 80.116,270.242 80.554L270.242 81.293C270.242 83.618,270.324 85.889,270.379 88.187L268.272 88.652C268.272 87.476,268.245 86.3,268.163 85.123C268.135 84.521,268.135 83.974,267.807 83.372C266.932 83.81,267.068 84.548,267.068 85.178C266.986 86.464,266.932 87.668,266.904 88.899C265.81 89.118,264.688 89.282,263.594 89.473C261.979 89.747,261.733 89.993,261.733 91.772C261.624 92.209,261.952 92.702,261.897 93.194C261.815 93.933,262.007 94.179,262.527 94.207C262.636 94.207,262.773 94.179,262.937 94.124C264.223 93.933,265.481 93.741,266.74 93.495L266.631 97.052C266.576 97.709,266.521 98.338,266.439 98.967C264.962 99.268,263.512 99.542,262.061 99.897C261.241 100.089,260.748 100.39,260.748 101.348C260.748 102.278,261.104 103.153,261.159 104.056C261.159 104.494,261.268 104.685,261.596 104.74C261.651 104.74,261.788 104.685,261.952 104.658C263.347 104.33,264.77 104.056,266.193 103.755C266.165 104.248,266.165 104.768,266.165 105.315C266.165 106.71,266.302 108.051,266.795 109.391C266.877 109.665,266.795 110.13,267.15 110.13M268.19 98.612C268.245 97.763,268.245 96.888,268.272 96.012C268.327 95.082,268.327 94.179,268.327 93.222C268.984 93.112,269.613 93.003,270.242 92.839C270.051 94.644,269.968 96.45,269.859 98.283"/></g></g><g class="vf-stavenote" id="vf-auto15654"><path stroke-width="1.4" fill="none" stroke="#444" d="M277 75L309.266 75"/><g class="vf-stem" id="vf-auto15655" pointer-events="bounding-box"><path stroke-width="1.5" fill="none" d="M292.758 93L292.758 35"/></g><g class="vf-notehead" id="vf-auto15659" pointer-events="bounding-box"><path stroke="none" d="M283.645 101.543C283.926 101.599,284.178 101.627,284.459 101.627C288.334 101.627,294.119 96.348,294.006 92.08C293.894 91.041,293.922 89.609,291.816 88.766C291.227 88.485,290.581 88.373,289.879 88.373C285.554 88.373,280.865 93.343,280.528 96.657C280.528 96.909,280.5 97.134,280.5 97.387C280.5 99.409,281.399 101.037,283.645 101.543"/><path stroke="none" d="M250.361 103.208C250.47 103.208,250.635 103.126,250.826 102.907C251.346 102.497,251.92 102.059,252.495 101.648C255.942 99.186,257.803 95.821,257.803 91.525C257.803 90.978,257.803 90.458,257.721 89.911C257.529 87.996,256.435 86.874,254.766 86.874C254.41 86.874,254.027 86.956,253.589 87.093C253.042 87.23,252.495 87.503,251.92 87.75L251.893 87.777L251.893 86.765C251.893 85.26,251.975 83.782,252.057 82.278C252.057 81.402,252.139 80.581,252.139 79.706C252.139 78.885,252.057 78.009,251.866 77.189C251.784 76.915,251.784 76.395,251.373 76.395L251.346 76.395C250.908 76.45,250.58 76.806,250.58 77.353C250.552 78.447,250.443 79.596,250.47 80.691L250.47 81.922C250.47 84.248,250.361 86.573,250.279 88.899C250.169 92.237,249.595 95.52,249.595 98.858C249.595 100.171,249.677 101.539,250.033 102.852C250.115 103.071,250.197 103.208,250.361 103.208M251.428 97.873C251.51 96.86,251.537 95.793,251.647 94.672C251.729 93.824,251.784 92.948,251.784 92.072L251.92 92.018C252.687 91.689,253.425 91.306,254.246 91.306C254.52 91.306,254.848 91.388,255.149 91.498C255.806 91.717,256.107 92.045,256.079 92.483C256.079 92.702,256.024 92.948,255.86 93.276C254.848 95.274,253.179 96.614,251.428 97.873"/></g><g class="vf-notehead" id="vf-auto15660" pointer-events="bounding-box"><path stroke="none" d="M283.645 81.543C283.926 81.599,284.178 81.627,284.459 81.627C288.334 81.627,294.119 76.348,294.006 72.08C293.894 71.041,293.922 69.609,291.816 68.766C291.227 68.485,290.581 68.373,289.879 68.373C285.554 68.373,280.865 73.343,280.528 76.657C280.528 76.909,280.5 77.134,280.5 77.387C280.5 79.409,281.399 81.037,283.645 81.543"/></g><g class="vf-notehead" id="vf-auto15661" pointer-events="bounding-box"><path stroke="none" d="M294.403 76.543C294.684 76.599,294.937 76.627,295.217 76.627C299.092 76.627,304.877 71.348,304.765 67.08C304.652 66.041,304.68 64.609,302.574 63.766C301.985 63.485,301.339 63.373,300.637 63.373C296.312 63.373,291.623 68.343,291.286 71.657C291.286 71.909,291.258 72.134,291.258 72.387C291.258 74.409,292.157 76.037,294.403 76.543"/></g></g><text stroke="none" font-size="8pt" x="250.63" y="180">101px</text><path stroke-width="3" fill="none" stroke="red" d="M250.63 187L295.51 187"/><path stroke-width="3" fill="none" stroke="#999" d="M295.51 187L309.016 187"/><path stroke-width="3" fill="none" stroke="green" d="M309.016 187L322.523 187"/><path stroke-width="3" fill="none" stroke="#999" d="M322.523 187L322.523 187"/><path stroke-width="3" fill="none" stroke="red" d="M322.523 187L351.539 187"/><path stroke-width="3" fill="none" stroke="#DD0" d="M351.539 187L351.539 187"/><path stroke-width="3" fill="none" stroke="#BBB" d="M221.614 187L250.63 187"/><path stroke-width="3" fill="blue" stroke="none" d="M312.016 187 A3 3 0 0 0 306.016 187 A3 3 0 0 0 312.016 187Z"/><text stroke="none" font-size="8pt" x="235.12" y="15">101px</text><path stroke-width="3" fill="none" stroke="red" d="M235.12 22L280 22"/><path stroke-width="3" fill="none" stroke="#999" d="M280 22L280 22"/><path stroke-width="3" fill="none" stroke="green" d="M280 22L293.508 22"/><path stroke-width="3" fill="none" stroke="#999" d="M293.508 22L307.016 22"/><path stroke-width="3" fill="none" stroke="red" d="M307.016 22L336.032 22"/><path stroke-width="3" fill="none" stroke="#DD0" d="M336.032 22L336.032 22"/><path stroke-width="3" fill="none" stroke="#BBB" d="M235.12 22L235.12 22"/><path stroke-width="3" fill="blue" stroke="none" d="M283 22 A3 3 0 0 0 277 22 A3 3 0 0 0 283 22Z"/><path stroke-width="10" fill="none" stroke="green" d="M350 146L360 146"/><text stroke-width="10" stroke="none" font-size="8pt" x="365" y="150">Note + Flag</text><path stroke-width="10" fill="none" stroke="red" d="M350 158L360 158"/><text stroke-width="10" stroke="none" font-size="8pt" x="365" y="162">Modifiers</text><path stroke-width="10" fill="none" stroke="#999" d="M350 170L360 170"/><text stroke-width="10" stroke="none" font-size="8pt" x="365" y="174">Displaced Head</text><path stroke-width="10" fill="none" stroke="#DDD" d="M350 182L360 182"/><text stroke-width="10" stroke="none" font-size="8pt" x="365" y="186">Formatter Shift</text></svg>