<svg xmlns="http://www.w3.org/2000/svg" stroke-width="0.3" stroke-dasharray="none" fill="black" stroke="black" font-family="Arial, sans-serif" font-size="10pt" font-weight="normal" font-style="normal" width="650" height="250" viewBox="0 0 650 250" style="width: 650px; height: 250px; border: none;"><g class="vf-stave" id="vf-auto13321" stroke-width="1" fill="#999999" stroke="#999999"><path fill="none" d="M10 100L610 100"/><path fill="none" d="M10 110L610 110"/><path fill="none" d="M10 120L610 120"/><path fill="none" d="M10 130L610 130"/><path fill="none" d="M10 140L610 140"/></g><g class="vf-stavebarline" id="vf-auto13322"><rect x="10" y="99.5" width="1" height="41" stroke="none"/></g><g class="vf-stavebarline" id="vf-auto13323"><rect x="610" y="99.5" width="1" height="41" stroke="none"/></g><g class="vf-stavenote" id="vf-auto13324"><g class="vf-stem" id="vf-auto13325" pointer-events="bounding-box"><path stroke-width="1.5" fill="none" d="M42.758 133L42.758 100"/></g><g class="vf-notehead" id="vf-auto13327" pointer-events="bounding-box"><path stroke="none" d="M33.645 141.543C33.926 141.599,34.178 141.627,34.459 141.627C38.334 141.627,44.119 136.348,44.006 132.08C43.894 131.041,43.922 129.609,41.816 128.766C41.227 128.485,40.581 128.373,39.879 128.373C35.554 128.373,30.865 133.343,30.528 136.657C30.528 136.909,30.5 137.134,30.5 137.387C30.5 139.409,31.399 141.037,33.645 141.543"/><g class="vf-ornament" id="vf-auto13368"><path stroke="none" d="M28.674 90C28.906 89.979,28.969 89.642,29.032 89.432C29.158 89.032,29.179 88.632,29.179 88.274C29.179 87.937,29.158 87.643,29.158 87.306C29.158 87.096,29.158 86.822,29.179 86.612C29.242 86.001,29.305 85.391,29.327 84.781L30.673 84.507C30.737 85.791,30.968 87.032,31.389 88.232C31.431 88.4,31.536 88.569,31.726 88.569C31.915 88.611,31.978 88.4,32.063 88.232C32.273 87.916,32.294 87.517,32.294 87.159C32.336 86.885,32.336 86.633,32.336 86.401C32.336 85.664,32.273 84.907,32.252 84.17L33.999 83.812C35.661 83.476,35.872 83.244,35.998 81.645C35.998 81.245,36.04 80.971,35.998 80.656C35.977 80.277,35.809 80.003,35.493 80.003L35.43 80.003C35.304 80.003,35.219 80.003,35.093 80.024C34.399 80.214,33.641 80.361,32.904 80.487L32.399 80.571C32.42 80.15,32.42 79.687,32.462 79.245C32.483 78.277,32.504 77.309,32.504 76.341C33.367 76.11,34.188 75.878,35.009 75.604C35.451 75.457,35.851 75.205,35.977 74.72C36.082 74.173,36.251 73.668,36.251 73.121C36.251 72.805,36.209 72.49,36.082 72.174C35.977 71.879,35.872 71.732,35.704 71.732L35.64 71.732C35.535 71.732,35.43 71.732,35.304 71.795C34.357 72.174,33.431 72.49,32.462 72.763L32.357 71.122C32.294 69.817,32.252 68.491,31.978 67.186C31.915 67.018,31.936 66.744,31.747 66.744L31.726 66.744L31.642 66.744C31.389 66.807,31.094 66.912,31.052 67.249L31.052 67.817C31.052 69.606,31.115 71.353,31.158 73.121L29.537 73.479C29.537 72.574,29.516 71.669,29.453 70.764C29.432 70.301,29.432 69.88,29.179 69.417C28.506 69.754,28.611 70.322,28.611 70.806C28.548 71.795,28.506 72.721,28.485 73.668C27.643 73.837,26.78 73.963,25.938 74.11C24.696 74.321,24.507 74.51,24.507 75.878C24.423 76.215,24.675 76.594,24.633 76.972C24.57 77.541,24.717 77.73,25.117 77.751C25.201 77.751,25.307 77.73,25.433 77.688C26.422 77.541,27.39 77.393,28.358 77.204L28.274 79.94C28.232 80.445,28.19 80.929,28.127 81.413C26.99 81.645,25.875 81.855,24.76 82.129C24.128 82.276,23.749 82.508,23.749 83.244C23.749 83.96,24.023 84.633,24.065 85.328C24.065 85.664,24.149 85.812,24.402 85.854C24.444 85.854,24.549 85.812,24.675 85.791C25.749 85.538,26.843 85.328,27.937 85.096C27.916 85.475,27.916 85.875,27.916 86.296C27.916 87.369,28.022 88.4,28.4 89.432C28.464 89.642,28.4 90,28.674 90M29.474 81.14C29.516 80.487,29.516 79.814,29.537 79.14C29.579 78.425,29.579 77.73,29.579 76.993C30.084 76.909,30.568 76.825,31.052 76.699C30.905 78.088,30.842 79.477,30.758 80.887"/><path stroke="none" d="M25.65 63.744C26.088 63.744,26.498 63.635,26.99 63.361C27.456 63.033,27.893 62.677,28.249 62.212C28.96 61.309,29.672 60.406,30.383 59.448C30.492 59.284,30.602 59.148,30.766 59.148C30.848 59.148,30.93 59.202,31.012 59.448C31.477 60.816,32.462 61.774,33.447 62.759C34.022 63.388,34.706 63.717,35.335 63.717C35.992 63.717,36.621 63.388,37.223 62.786C39.111 60.871,40.999 58.901,42.832 56.931C43.406 56.302,44.118 55.673,44.473 54.879C44.501 54.715,44.72 54.606,44.72 54.442C44.72 54.414,44.72 54.36,44.638 54.277C44.501 54.223,44.364 54.168,44.2 54.168C44.09 54.168,44.008 54.168,43.926 54.25C43.488 54.551,43.051 54.879,42.668 55.262L38.728 59.448C38.591 59.558,38.482 59.832,38.372 59.832C38.29 59.832,38.208 59.804,38.126 59.64C37.579 58.655,36.621 58.026,35.992 57.123C35.499 56.412,34.788 55.974,34.022 55.591C33.612 55.399,33.201 55.262,32.818 55.262C32.38 55.262,31.915 55.427,31.423 55.864C30.438 56.74,29.699 57.862,28.878 58.847C28.687 59.093,28.55 59.257,28.413 59.257C28.249 59.257,28.112 59.148,27.921 58.847C27.209 57.725,26.361 56.685,25.458 55.673C24.747 54.879,23.817 54.332,22.886 54.332C22.175 54.332,21.464 54.606,20.725 55.262C19.685 56.247,18.782 57.369,17.797 58.381C16.539 59.695,15.91 61.309,15.28 63.087C15.882 63.005,16.156 62.732,16.429 62.431C17.579 61.418,18.399 60.132,19.548 59.148C20.041 58.71,20.369 58.491,20.643 58.491C20.916 58.491,21.163 58.792,21.518 59.421C22.175 60.625,22.996 61.692,23.817 62.759C24.336 63.416,24.966 63.744,25.65 63.744"/><path stroke="none" d="M28.674 51.168C28.906 51.147,28.969 50.81,29.032 50.6C29.158 50.2,29.179 49.8,29.179 49.442C29.179 49.105,29.158 48.811,29.158 48.474C29.158 48.264,29.158 47.99,29.179 47.78C29.242 47.169,29.305 46.559,29.327 45.949L30.673 45.675C30.737 46.959,30.968 48.2,31.389 49.4C31.431 49.568,31.536 49.737,31.726 49.737C31.915 49.779,31.978 49.568,32.063 49.4C32.273 49.084,32.294 48.685,32.294 48.327C32.336 48.053,32.336 47.801,32.336 47.569C32.336 46.832,32.273 46.075,32.252 45.338L33.999 44.98C35.661 44.644,35.872 44.412,35.998 42.813C35.998 42.413,36.04 42.139,35.998 41.824C35.977 41.445,35.809 41.171,35.493 41.171L35.43 41.171C35.304 41.171,35.219 41.171,35.093 41.192C34.399 41.382,33.641 41.529,32.904 41.655L32.399 41.739C32.42 41.318,32.42 40.855,32.462 40.413C32.483 39.445,32.504 38.477,32.504 37.509C33.367 37.278,34.188 37.046,35.009 36.772C35.451 36.625,35.851 36.373,35.977 35.888C36.082 35.341,36.251 34.836,36.251 34.289C36.251 33.973,36.209 33.658,36.082 33.342C35.977 33.047,35.872 32.9,35.704 32.9L35.64 32.9C35.535 32.9,35.43 32.9,35.304 32.963C34.357 33.342,33.431 33.658,32.462 33.931L32.357 32.29C32.294 30.985,32.252 29.659,31.978 28.354C31.915 28.186,31.936 27.912,31.747 27.912L31.726 27.912L31.642 27.912C31.389 27.975,31.094 28.08,31.052 28.417L31.052 28.985C31.052 30.774,31.115 32.521,31.158 34.289L29.537 34.647C29.537 33.742,29.516 32.837,29.453 31.932C29.432 31.469,29.432 31.048,29.179 30.585C28.506 30.922,28.611 31.49,28.611 31.974C28.548 32.963,28.506 33.889,28.485 34.836C27.643 35.005,26.78 35.131,25.938 35.278C24.696 35.489,24.507 35.678,24.507 37.046C24.423 37.383,24.675 37.762,24.633 38.14C24.57 38.709,24.717 38.898,25.117 38.919C25.201 38.919,25.307 38.898,25.433 38.856C26.422 38.709,27.39 38.561,28.358 38.372L28.274 41.108C28.232 41.613,28.19 42.097,28.127 42.581C26.99 42.813,25.875 43.023,24.76 43.297C24.128 43.444,23.749 43.676,23.749 44.412C23.749 45.128,24.023 45.801,24.065 46.496C24.065 46.832,24.149 46.98,24.402 47.022C24.444 47.022,24.549 46.98,24.675 46.959C25.749 46.706,26.843 46.496,27.937 46.264C27.916 46.643,27.916 47.043,27.916 47.464C27.916 48.537,28.022 49.568,28.4 50.6C28.464 50.81,28.4 51.168,28.674 51.168M29.474 42.308C29.516 41.655,29.516 40.982,29.537 40.308C29.579 39.593,29.579 38.898,29.579 38.161C30.084 38.077,30.568 37.993,31.052 37.867C30.905 39.256,30.842 40.645,30.758 42.055"/></g></g></g><g class="vf-stavenote" id="vf-auto13328"><g class="vf-stem" id="vf-auto13329" pointer-events="bounding-box"><path stroke-width="1.5" fill="none" d="M96.617 133L96.617 100"/></g><g class="vf-notehead" id="vf-auto13331" pointer-events="bounding-box"><path stroke="none" d="M87.504 141.543C87.784 141.599,88.037 141.627,88.318 141.627C92.193 141.627,97.978 136.348,97.865 132.08C97.753 131.041,97.781 129.609,95.675 128.766C95.085 128.485,94.439 128.373,93.737 128.373C89.413 128.373,84.724 133.343,84.387 136.657C84.387 136.909,84.359 137.134,84.359 137.387C84.359 139.409,85.257 141.037,87.504 141.543"/><g class="vf-ornament" id="vf-auto13372"><path stroke="none" d="M81.333 90C81.417 90,81.544 89.937,81.691 89.768C82.091 89.453,82.533 89.116,82.975 88.8C85.627 86.906,87.058 84.318,87.058 81.013C87.058 80.592,87.058 80.192,86.995 79.772C86.847 78.298,86.005 77.435,84.722 77.435C84.448 77.435,84.153 77.499,83.817 77.604C83.396 77.709,82.975 77.92,82.533 78.109L82.512 78.13L82.512 77.351C82.512 76.194,82.575 75.057,82.638 73.9C82.638 73.226,82.701 72.595,82.701 71.921C82.701 71.29,82.638 70.616,82.491 69.985C82.428 69.775,82.428 69.375,82.112 69.375L82.091 69.375C81.754 69.417,81.502 69.69,81.502 70.111C81.48 70.953,81.396 71.837,81.417 72.679L81.417 73.626C81.417 75.415,81.333 77.204,81.27 78.993C81.186 81.56,80.744 84.086,80.744 86.654C80.744 87.664,80.807 88.716,81.081 89.726C81.144 89.895,81.207 90,81.333 90M82.154 85.896C82.217 85.117,82.238 84.296,82.322 83.434C82.385 82.781,82.428 82.108,82.428 81.434L82.533 81.392C83.122 81.14,83.69 80.845,84.322 80.845C84.532 80.845,84.785 80.908,85.016 80.992C85.521 81.161,85.753 81.413,85.732 81.75C85.732 81.918,85.69 82.108,85.563 82.36C84.785 83.897,83.501 84.928,82.154 85.896"/><path stroke="none" d="M84.762 66.375C85.221 65.226,85.254 64.274,85.254 63.321C85.221 61.811,85.221 60.268,85.221 58.692C86.403 59.546,87.684 60.367,89.063 60.892C89.916 61.22,90.803 61.384,91.656 61.384C94.152 61.384,96.417 59.874,97.074 57.05C97.271 56.066,97.435 55.048,97.435 54.063C97.435 52.782,97.238 51.502,96.811 50.254C96.056 48.022,94.217 46.643,92.116 46.643C91.788 46.643,91.525 46.708,91.164 46.741C89.982 46.938,89.522 47.562,89.621 48.777L90.048 51.568C90.08 51.863,90.146 52.027,90.343 52.027C90.409 52.027,90.507 51.994,90.671 51.929C91.032 51.765,91.426 51.699,91.788 51.699C92.411 51.699,93.035 51.896,93.626 52.093C94.578 52.356,95.662 53.8,95.662 54.555C95.662 55.343,94.381 56.164,93.167 56.295C92.773 56.328,92.444 56.328,92.083 56.328C91.131 56.328,90.245 56.197,89.292 55.869C87.782 55.343,86.535 54.391,85.221 53.472C85.221 53.472,85.221 53.406,85.188 53.406L85.188 50.287C85.188 48.678,85.123 46.938,85.123 45.329C85.123 44.377,85.09 43.425,84.499 42.637C84.433 42.473,84.433 42.21,84.236 42.21L84.138 42.21C83.908 42.243,83.678 42.539,83.514 42.769C83.415 42.966,83.481 43.195,83.481 43.425L83.317 51.929C81.872 50.681,80.461 49.335,78.852 48.252C77.67 47.562,76.521 47.201,75.536 47.201C73.5 47.201,71.859 48.547,70.939 50.615C70.48 51.699,70.283 52.782,70.283 53.866C70.283 55.639,70.742 57.379,71.268 59.086C71.694 60.465,73.435 61.319,75.01 61.319C75.306 61.319,75.536 61.253,75.798 61.22C77.933 60.728,78.425 60.137,78.425 57.379C78.425 57.346,78.425 56.952,78.359 56.591C78.261 56,78.13 55.573,77.703 55.573C77.506 55.573,77.342 55.672,77.046 55.836C76.389 56.197,75.733 56.328,75.01 56.328C74.288 56.328,73.599 56.164,72.876 55.836C72.318 55.54,72.023 55.212,72.023 54.785C72.023 54.555,72.088 54.26,72.253 53.931C72.876 52.848,74.223 52.191,75.569 52.191C75.798 52.191,76.061 52.191,76.291 52.224C78.261 52.618,79.541 53.931,80.953 55.146C81.708 55.836,82.496 56.492,83.251 57.083C83.186 57.773,83.186 58.429,83.186 59.02C83.087 61.548,83.481 63.912,84.762 66.375"/><path stroke="none" d="M81.333 39.21C81.417 39.21,81.544 39.147,81.691 38.979C82.091 38.663,82.533 38.326,82.975 38.011C85.627 36.117,87.058 33.528,87.058 30.224C87.058 29.803,87.058 29.403,86.995 28.982C86.847 27.509,86.005 26.646,84.722 26.646C84.448 26.646,84.153 26.709,83.817 26.814C83.396 26.919,82.975 27.13,82.533 27.319L82.512 27.34L82.512 26.562C82.512 25.404,82.575 24.268,82.638 23.11C82.638 22.437,82.701 21.805,82.701 21.132C82.701 20.5,82.638 19.827,82.491 19.196C82.428 18.985,82.428 18.585,82.112 18.585L82.091 18.585C81.754 18.627,81.502 18.901,81.502 19.322C81.48 20.164,81.396 21.048,81.417 21.889L81.417 22.837C81.417 24.625,81.333 26.414,81.27 28.203C81.186 30.771,80.744 33.296,80.744 35.864C80.744 36.874,80.807 37.927,81.081 38.937C81.144 39.105,81.207 39.21,81.333 39.21M82.154 35.106C82.217 34.328,82.238 33.507,82.322 32.644C82.385 31.992,82.428 31.318,82.428 30.645L82.533 30.603C83.122 30.35,83.69 30.055,84.322 30.055C84.532 30.055,84.785 30.118,85.016 30.203C85.521 30.371,85.753 30.624,85.732 30.96C85.732 31.129,85.69 31.318,85.563 31.571C84.785 33.107,83.501 34.138,82.154 35.106"/></g></g></g><g class="vf-stavenote" id="vf-auto13332"><g class="vf-stem" id="vf-auto13333" pointer-events="bounding-box"><path stroke-width="1.5" fill="none" d="M150.475 133L150.475 100"/></g><g class="vf-notehead" id="vf-auto13335" pointer-events="bounding-box"><path stroke="none" d="M141.362 141.543C141.643 141.599,141.896 141.627,142.177 141.627C146.052 141.627,151.836 136.348,151.724 132.08C151.612 131.041,151.64 129.609,149.534 128.766C148.944 128.485,148.298 128.373,147.596 128.373C143.272 128.373,138.582 133.343,138.245 136.657C138.245 136.909,138.217 137.134,138.217 137.387C138.217 139.409,139.116 141.037,141.362 141.543"/><g class="vf-ornament" id="vf-auto13376"><path stroke="none" d="M135.139 90C135.287 90,135.434 89.916,135.623 89.726C136.276 89.095,136.886 88.422,137.581 87.811C137.833 87.601,138.044 87.39,138.254 87.18C139.075 87.811,139.896 88.485,140.674 89.158C140.864 89.305,141.011 89.39,141.158 89.39C141.369 89.39,141.558 89.221,141.706 88.948C142 88.422,141.916 87.811,142.042 87.327C142 86.633,141.79 86.149,141.306 85.749L140.211 84.886C140.738 84.296,141.243 83.749,141.832 83.265C142 83.16,142.063 82.928,142.063 82.508C141.979 82.066,141.727 81.476,141.411 80.971C141.158 80.55,140.948 80.361,140.738 80.361C140.527 80.361,140.275 80.487,139.98 80.761C139.685 80.992,139.37 81.245,139.138 81.518C138.675 82.002,138.254 82.487,137.833 82.992C137.012 82.402,136.149 81.792,135.308 81.245C135.181 81.14,135.097 81.119,135.013 81.119C134.95 81.119,134.887 81.119,134.803 81.182C134.676 81.266,134.487 81.245,134.382 81.413C134.276 81.645,134.213 81.939,134.213 82.297C134.213 83.244,134.55 84.507,135.076 84.844C135.244 84.97,135.434 85.096,135.623 85.244C134.971 85.854,134.318 86.485,133.666 87.159C133.498 87.327,133.371 87.58,133.371 87.79C133.371 88.001,133.435 88.211,133.624 88.422C133.919 88.885,134.382 89.242,134.676 89.705C134.824 89.916,134.971 90,135.139 90"/><path stroke="none" d="M145.515 77.361C148.01 77.361,150.276 75.851,150.932 73.027C151.129 72.009,151.293 71.024,151.293 70.039C151.293 68.759,151.096 67.478,150.67 66.198C149.914 63.965,148.076 62.619,145.975 62.619C145.646 62.619,145.384 62.652,145.023 62.718C143.841 62.882,143.381 63.506,143.479 64.753L143.906 67.511C143.939 67.807,144.005 68.004,144.202 68.004C144.267 68.004,144.366 67.938,144.53 67.905C144.891 67.708,145.285 67.675,145.646 67.675C146.27 67.675,146.894 67.872,147.485 68.037C148.437 68.332,149.521 69.744,149.521 70.499C149.521 71.32,148.24 72.108,147.025 72.239C146.631 72.305,146.303 72.305,145.942 72.305C144.99 72.305,144.103 72.173,143.151 71.845C141.641 71.254,140.393 70.368,139.08 69.416C136.847 67.807,135.009 65.738,132.711 64.228C131.529 63.506,130.379 63.177,129.394 63.177C127.359 63.177,125.75 64.491,124.798 66.592C124.338 67.675,124.141 68.759,124.141 69.842C124.141 71.582,124.601 73.355,125.126 75.03C125.553 76.409,127.293 77.262,128.869 77.262C129.165 77.262,129.394 77.23,129.657 77.164C131.791 76.704,132.284 76.08,132.284 73.355C132.284 73.29,132.284 72.929,132.218 72.535C132.12 71.976,131.988 71.55,131.561 71.55C131.364 71.55,131.2 71.648,130.905 71.779C130.248 72.173,129.591 72.305,128.869 72.305C128.147 72.305,127.457 72.108,126.735 71.779C126.177 71.484,125.881 71.156,125.881 70.729C125.881 70.499,125.947 70.236,126.111 69.875C126.801 68.792,128.081 68.135,129.427 68.135C129.657 68.135,129.92 68.135,130.15 68.201C132.12 68.529,133.466 69.842,134.812 71.123C137.34 73.29,139.737 75.621,142.921 76.836C143.775 77.164,144.661 77.361,145.515 77.361"/><path stroke="none" d="M135.139 59.619C135.287 59.619,135.434 59.535,135.623 59.346C136.276 58.714,136.886 58.041,137.581 57.43C137.833 57.22,138.044 57.01,138.254 56.799C139.075 57.43,139.896 58.104,140.674 58.777C140.864 58.925,141.011 59.009,141.158 59.009C141.369 59.009,141.558 58.841,141.706 58.567C142 58.041,141.916 57.43,142.042 56.946C142 56.252,141.79 55.768,141.306 55.368L140.211 54.505C140.738 53.916,141.243 53.369,141.832 52.885C142 52.779,142.063 52.548,142.063 52.127C141.979 51.685,141.727 51.096,141.411 50.59C141.158 50.17,140.948 49.98,140.738 49.98C140.527 49.98,140.275 50.106,139.98 50.38C139.685 50.612,139.37 50.864,139.138 51.138C138.675 51.622,138.254 52.106,137.833 52.611C137.012 52.022,136.149 51.411,135.308 50.864C135.181 50.759,135.097 50.738,135.013 50.738C134.95 50.738,134.887 50.738,134.803 50.801C134.676 50.885,134.487 50.864,134.382 51.032C134.276 51.264,134.213 51.559,134.213 51.916C134.213 52.863,134.55 54.126,135.076 54.463C135.244 54.589,135.434 54.716,135.623 54.863C134.971 55.473,134.318 56.105,133.666 56.778C133.498 56.946,133.371 57.199,133.371 57.409C133.371 57.62,133.435 57.83,133.624 58.041C133.919 58.504,134.382 58.862,134.676 59.325C134.824 59.535,134.971 59.619,135.139 59.619"/></g></g></g><g class="vf-stavenote" id="vf-auto13336"><g class="vf-stem" id="vf-auto13337" pointer-events="bounding-box"><path stroke-width="1.5" fill="none" d="M204.334 133L204.334 100"/></g><g class="vf-notehead" id="vf-auto13339" pointer-events="bounding-box"><path stroke="none" d="M195.221 141.543C195.502 141.599,195.755 141.627,196.035 141.627C199.91 141.627,205.695 136.348,205.583 132.08C205.47 131.041,205.498 129.609,203.392 128.766C202.803 128.485,202.157 128.373,201.455 128.373C197.131 128.373,192.441 133.343,192.104 136.657C192.104 136.909,192.076 137.134,192.076 137.387C192.076 139.409,192.975 141.037,195.221 141.543"/><g class="vf-ornament" id="vf-auto13380"><path stroke="none" d="M190.903 90C191.029 90,191.092 89.895,191.155 89.726C191.429 88.716,191.492 87.664,191.492 86.654C191.492 84.086,191.05 81.56,190.966 78.993C190.903 77.204,190.818 75.415,190.818 73.626L190.818 72.679C190.839 71.837,190.755 70.953,190.734 70.111C190.734 69.69,190.482 69.417,190.145 69.375L190.124 69.375C189.808 69.375,189.808 69.775,189.745 69.985C189.598 70.616,189.535 71.29,189.535 71.921C189.535 72.595,189.598 73.226,189.598 73.9C189.661 75.057,189.724 76.194,189.724 77.351L189.724 78.151L189.703 78.109C189.261 77.92,188.84 77.709,188.419 77.604C188.082 77.499,187.788 77.435,187.514 77.435C186.23 77.435,185.389 78.298,185.241 79.772C185.178 80.192,185.178 80.592,185.178 81.013C185.178 84.318,186.609 86.906,189.261 88.8C189.703 89.116,190.145 89.453,190.545 89.79C190.692 89.937,190.818 90,190.903 90M192.25 90C192.334 90,192.46 89.937,192.607 89.79C193.007 89.453,193.449 89.116,193.87 88.8C196.543 86.906,197.974 84.318,197.974 81.013C197.974 80.592,197.974 80.192,197.911 79.772C197.764 78.298,196.901 77.435,195.638 77.435C195.364 77.435,195.049 77.499,194.733 77.604C194.291 77.709,193.87 77.92,193.449 78.109L193.428 78.151L193.428 77.351C193.428 76.194,193.491 75.057,193.533 73.9C193.533 73.226,193.597 72.595,193.597 71.921C193.597 71.29,193.533 70.616,193.386 69.985C193.323 69.775,193.323 69.375,193.028 69.375L193.007 69.375C192.671 69.417,192.418 69.69,192.418 70.111C192.397 70.953,192.292 71.837,192.334 72.679L192.334 73.626C192.334 75.415,192.25 77.204,192.186 78.993C192.081 81.56,191.66 84.086,191.66 86.654C191.66 87.664,191.723 88.716,191.997 89.726C192.06 89.895,192.123 90,192.25 90M190.082 85.896C188.714 84.928,187.451 83.897,186.672 82.36C186.546 82.108,186.504 81.939,186.504 81.75C186.483 81.413,186.714 81.182,187.199 80.992C187.451 80.908,187.704 80.845,187.914 80.845C188.545 80.845,189.114 81.14,189.703 81.392L189.808 81.455C189.808 82.108,189.85 82.781,189.913 83.455C189.998 84.296,190.019 85.117,190.082 85.896M193.049 85.896C193.112 85.117,193.155 84.296,193.239 83.455C193.302 82.781,193.323 82.108,193.323 81.455L193.449 81.392C194.017 81.14,194.607 80.845,195.238 80.845C195.449 80.845,195.701 80.908,195.933 80.992C196.417 81.182,196.669 81.413,196.627 81.75C196.627 81.939,196.606 82.108,196.48 82.36C195.701 83.897,194.417 84.928,193.049 85.896"/><path stroke="none" d="M191.822 66.375C192.178 65.992,192.205 65.636,192.233 65.308C192.315 65.007,192.315 64.733,192.315 64.405C192.315 63.803,192.233 63.174,192.233 62.599L192.233 56.881C192.479 56.689,192.671 56.553,192.889 56.553C193.108 56.553,193.355 56.717,193.628 57.127C194.449 58.249,195.27 59.398,196.227 60.438C196.665 60.903,197.048 61.176,197.459 61.176C197.814 61.176,198.143 60.985,198.553 60.492C200.085 58.741,201.781 57.154,203.505 55.568C204.271 54.829,204.764 53.926,205.174 52.968C205.256 52.832,205.366 52.558,205.366 52.339C205.366 52.23,205.338 52.12,205.201 52.038C204.983 51.874,204.545 52.038,204.271 52.257C204.189 52.339,204.134 52.421,204.052 52.476C202.411 53.68,200.988 55.157,199.62 56.635C199.428 56.881,199.21 57.045,199.073 57.045C198.909 57.045,198.717 56.908,198.498 56.689C197.486 55.65,196.665 54.555,195.872 53.379C195.407 52.585,194.996 52.23,194.504 52.23C194.148 52.23,193.738 52.394,193.19 52.749C192.835 52.968,192.534 53.215,192.205 53.488L192.205 50.78C192.178 49.439,192.096 48.016,191.248 46.785C190.919 47.113,190.701 47.387,190.701 47.852C190.755 50.369,190.591 52.941,190.509 55.458C190.263 55.786,190.044 56.087,189.798 56.361C189.141 57.182,188.703 57.62,188.293 57.62C187.883 57.62,187.472 57.182,186.815 56.334C186.761 56.279,186.733 56.169,186.679 56.087C185.748 55.075,185.037 53.899,183.97 52.968C183.614 52.695,183.313 52.558,182.958 52.558C182.629 52.558,182.356 52.695,182.082 52.941C179.839 54.884,177.787 56.908,177.787 60.109C177.787 60.356,177.787 60.574,177.814 60.848C178.115 60.821,178.224 60.657,178.389 60.492C179.291 59.48,180.222 58.468,181.179 57.428C181.398 57.154,181.617 56.99,181.809 56.99C182.055 56.99,182.274 57.182,182.465 57.537C183.149 58.823,184.134 59.918,185.064 60.985C185.748 61.724,186.378 62.079,187.007 62.079C187.664 62.079,188.348 61.614,189.004 60.711C189.497 60.109,189.935 59.48,190.4 58.878C190.4 59.863,190.4 60.848,190.427 61.833C190.509 63.42,191.111 64.87,191.822 66.375"/><path stroke="none" d="M190.903 43.785C191.029 43.785,191.092 43.68,191.155 43.511C191.429 42.501,191.492 41.449,191.492 40.439C191.492 37.871,191.05 35.346,190.966 32.778C190.903 30.989,190.818 29.2,190.818 27.411L190.818 26.464C190.839 25.622,190.755 24.738,190.734 23.896C190.734 23.475,190.482 23.202,190.145 23.16L190.124 23.16C189.808 23.16,189.808 23.56,189.745 23.77C189.598 24.402,189.535 25.075,189.535 25.706C189.535 26.38,189.598 27.011,189.598 27.685C189.661 28.842,189.724 29.979,189.724 31.136L189.724 31.936L189.703 31.894C189.261 31.705,188.84 31.494,188.419 31.389C188.082 31.284,187.788 31.22,187.514 31.22C186.23 31.22,185.389 32.083,185.241 33.557C185.178 33.978,185.178 34.377,185.178 34.798C185.178 38.103,186.609 40.691,189.261 42.585C189.703 42.901,190.145 43.238,190.545 43.575C190.692 43.722,190.818 43.785,190.903 43.785M192.25 43.785C192.334 43.785,192.46 43.722,192.607 43.575C193.007 43.238,193.449 42.901,193.87 42.585C196.543 40.691,197.974 38.103,197.974 34.798C197.974 34.377,197.974 33.978,197.911 33.557C197.764 32.083,196.901 31.22,195.638 31.22C195.364 31.22,195.049 31.284,194.733 31.389C194.291 31.494,193.87 31.705,193.449 31.894L193.428 31.936L193.428 31.136C193.428 29.979,193.491 28.842,193.533 27.685C193.533 27.011,193.597 26.38,193.597 25.706C193.597 25.075,193.533 24.402,193.386 23.77C193.323 23.56,193.323 23.16,193.028 23.16L193.007 23.16C192.671 23.202,192.418 23.475,192.418 23.896C192.397 24.738,192.292 25.622,192.334 26.464L192.334 27.411C192.334 29.2,192.25 30.989,192.186 32.778C192.081 35.346,191.66 37.871,191.66 40.439C191.66 41.449,191.723 42.501,191.997 43.511C192.06 43.68,192.123 43.785,192.25 43.785M190.082 39.681C188.714 38.713,187.451 37.682,186.672 36.145C186.546 35.893,186.504 35.724,186.504 35.535C186.483 35.198,186.714 34.967,187.199 34.777C187.451 34.693,187.704 34.63,187.914 34.63C188.545 34.63,189.114 34.925,189.703 35.177L189.808 35.24C189.808 35.893,189.85 36.566,189.913 37.24C189.998 38.082,190.019 38.902,190.082 39.681M193.049 39.681C193.112 38.902,193.155 38.082,193.239 37.24C193.302 36.566,193.323 35.893,193.323 35.24L193.449 35.177C194.017 34.925,194.607 34.63,195.238 34.63C195.449 34.63,195.701 34.693,195.933 34.777C196.417 34.967,196.669 35.198,196.627 35.535C196.627 35.724,196.606 35.893,196.48 36.145C195.701 37.682,194.417 38.713,193.049 39.681"/></g></g></g><g class="vf-stavenote" id="vf-auto13340"><g class="vf-stem" id="vf-auto13341" pointer-events="bounding-box"><path stroke-width="1.5" fill="none" d="M258.193 133L258.193 100"/></g><g class="vf-notehead" id="vf-auto13343" pointer-events="bounding-box"><path stroke="none" d="M249.08 141.543C249.361 141.599,249.613 141.627,249.894 141.627C253.769 141.627,259.554 136.348,259.441 132.08C259.329 131.041,259.357 129.609,257.251 128.766C256.661 128.485,256.016 128.373,255.314 128.373C250.989 128.373,246.3 133.343,245.963 136.657C245.963 136.909,245.935 137.134,245.935 137.387C245.935 139.409,246.833 141.037,249.08 141.543"/><g class="vf-ornament" id="vf-auto13384"><path stroke="none" d="M242.299 90C242.783 89.6,242.804 89.116,242.804 88.695C242.804 87.39,242.93 86.128,242.993 84.844C243.435 84.738,243.898 84.633,244.361 84.549C244.425 85.707,244.635 86.885,245.014 88.043C245.119 88.253,245.182 88.485,245.393 88.527C245.624 88.569,245.708 88.274,245.814 88.085C246.045 87.453,245.961 86.78,246.045 86.001C245.982 85.433,245.961 84.823,245.961 84.212L247.771 83.855C247.771 84.296,247.771 84.76,247.813 85.244C247.876 86.212,247.876 87.222,248.108 88.295C248.571 87.874,248.634 87.496,248.655 87.032C248.739 86.275,248.802 85.496,248.802 84.738C248.802 84.36,248.802 84.002,248.781 83.644C248.992 83.602,249.181 83.581,249.391 83.518C250.928 83.223,251.412 82.886,251.412 80.761L251.412 80.571C251.391 79.94,251.265 79.729,250.865 79.729C250.759 79.729,250.57 79.729,250.36 79.793C249.77 79.877,249.244 80.024,248.697 80.129C248.718 79.309,248.781 78.446,248.802 77.604C248.844 76.993,248.844 76.404,248.865 75.752C249.349 75.647,249.833 75.478,250.318 75.331C250.97 75.12,251.391 74.72,251.517 74.089C251.622 73.647,251.538 73.184,251.664 72.826C251.664 71.879,251.517 71.521,251.054 71.521C250.844 71.521,250.57 71.585,250.212 71.732C249.812 71.879,249.413 72.006,248.992 72.153C249.076 70.448,249.202 68.785,249.349 67.081C249.391 66.849,249.413 66.597,249.413 66.323C249.413 66.092,249.391 65.839,249.286 65.608C249.244 65.46,249.328 65.208,249.076 65.208C248.907 65.208,248.739 65.313,248.697 65.481C248.592 65.629,248.529 65.839,248.508 66.028C248.234 68.154,248.108 70.301,248.023 72.448C247.392 72.637,246.782 72.784,246.15 72.932C246.108 72.027,246.087 71.122,246.024 70.217C245.961 69.185,245.877 68.154,245.666 67.123C245.603 66.828,245.477 66.723,245.351 66.723C245.224 66.723,245.119 66.849,244.951 66.933C244.782 67.039,244.74 67.207,244.74 67.396L244.74 68.428C244.74 69.27,244.782 70.09,244.803 70.932C244.867 71.69,244.909 72.448,244.867 73.205C244.319 73.331,243.751 73.416,243.183 73.542C243.141 72.49,243.141 71.416,243.141 70.364C243.141 70.217,243.12 70.069,243.057 69.943C242.951 69.796,243.057 69.48,242.846 69.48L242.804 69.48C242.594 69.522,242.383 69.69,242.383 70.006C242.383 70.427,242.299 70.827,242.257 71.248C242.194 72.069,242.194 72.889,242.194 73.689C241.773 73.794,241.352 73.858,240.931 73.942C240.236 74.026,239.963 74.447,239.963 75.268C239.963 75.794,240.089 76.299,240.047 76.783C240.047 77.246,240.173 77.393,240.51 77.393C240.573 77.393,240.636 77.372,240.72 77.372C241.162 77.309,241.625 77.204,242.088 77.162C242.088 77.73,242.046 78.34,242.025 78.909L241.836 81.476L240.11 81.855C239.5 82.002,239.205 82.276,239.205 82.992C239.226 83.749,239.5 84.465,239.5 85.223C239.5 85.454,239.626 85.517,239.773 85.517C239.879 85.517,239.921 85.517,240.026 85.496C240.573 85.37,241.12 85.244,241.625 85.159C241.625 85.643,241.604 86.128,241.604 86.612C241.604 87.769,241.878 88.885,242.299 90M246.087 80.634C246.108 80.235,246.108 79.877,246.15 79.477C246.214 78.888,246.214 78.277,246.214 77.667L246.214 76.425C246.74 76.299,247.329 76.173,247.876 76.025C247.813 77.456,247.771 78.888,247.771 80.298C247.203 80.424,246.634 80.508,246.087 80.634M243.141 81.224C243.141 80.235,243.183 79.245,243.204 78.277C243.225 77.856,243.225 77.393,243.225 76.972C243.751 76.888,244.235 76.825,244.74 76.699C244.719 77.372,244.656 78.025,244.635 78.698C244.593 79.435,244.53 80.192,244.467 80.95"/><path stroke="none" d="M246.338 62.208C246.797 61.059,246.83 60.106,246.83 59.154C246.797 57.644,246.797 56.101,246.797 54.525C247.979 55.379,249.26 56.199,250.639 56.725C251.492 57.053,252.379 57.217,253.232 57.217C255.728 57.217,257.993 55.707,258.65 52.883C258.847 51.898,259.011 50.881,259.011 49.896C259.011 48.615,258.814 47.335,258.387 46.087C257.632 43.855,255.793 42.476,253.692 42.476C253.364 42.476,253.101 42.541,252.74 42.574C251.558 42.771,251.098 43.395,251.197 44.61L251.624 47.4C251.656 47.696,251.722 47.86,251.919 47.86C251.985 47.86,252.083 47.827,252.247 47.762C252.609 47.597,253.003 47.532,253.364 47.532C253.988 47.532,254.611 47.729,255.202 47.926C256.154 48.188,257.238 49.633,257.238 50.388C257.238 51.176,255.957 51.997,254.743 52.128C254.349 52.161,254.02 52.161,253.659 52.161C252.707 52.161,251.821 52.03,250.869 51.701C249.358 51.176,248.111 50.224,246.797 49.305C246.797 49.305,246.797 49.239,246.765 49.239L246.765 46.12C246.765 44.511,246.699 42.771,246.699 41.162C246.699 40.21,246.666 39.258,246.075 38.47C246.009 38.306,246.009 38.043,245.812 38.043L245.714 38.043C245.484 38.076,245.254 38.372,245.09 38.601C244.992 38.798,245.057 39.028,245.057 39.258L244.893 47.762C243.448 46.514,242.037 45.168,240.428 44.084C239.246 43.395,238.097 43.034,237.112 43.034C235.076 43.034,233.435 44.38,232.515 46.448C232.056 47.532,231.859 48.615,231.859 49.699C231.859 51.472,232.318 53.212,232.844 54.919C233.271 56.298,235.011 57.152,236.587 57.152C236.882 57.152,237.112 57.086,237.375 57.053C239.509 56.561,240.001 55.97,240.001 53.212C240.001 53.179,240.001 52.785,239.935 52.424C239.837 51.833,239.706 51.406,239.279 51.406C239.082 51.406,238.918 51.504,238.622 51.669C237.966 52.03,237.309 52.161,236.587 52.161C235.864 52.161,235.175 51.997,234.453 51.669C233.894 51.373,233.599 51.045,233.599 50.618C233.599 50.388,233.665 50.093,233.829 49.764C234.453 48.681,235.799 48.024,237.145 48.024C237.375 48.024,237.637 48.024,237.867 48.057C239.837 48.451,241.117 49.764,242.529 50.979C243.284 51.669,244.072 52.325,244.827 52.916C244.762 53.606,244.762 54.262,244.762 54.853C244.663 57.381,245.057 59.745,246.338 62.208"/><path stroke="none" d="M242.299 35.043C242.783 34.643,242.804 34.159,242.804 33.738C242.804 32.434,242.93 31.171,242.993 29.887C243.435 29.782,243.898 29.677,244.361 29.592C244.425 30.75,244.635 31.928,245.014 33.086C245.119 33.296,245.182 33.528,245.393 33.57C245.624 33.612,245.708 33.317,245.814 33.128C246.045 32.497,245.961 31.823,246.045 31.045C245.982 30.476,245.961 29.866,245.961 29.256L247.771 28.898C247.771 29.34,247.771 29.803,247.813 30.287C247.876 31.255,247.876 32.265,248.108 33.339C248.571 32.918,248.634 32.539,248.655 32.076C248.739 31.318,248.802 30.539,248.802 29.782C248.802 29.403,248.802 29.045,248.781 28.687C248.992 28.645,249.181 28.624,249.391 28.561C250.928 28.266,251.412 27.93,251.412 25.804L251.412 25.615C251.391 24.983,251.265 24.773,250.865 24.773C250.759 24.773,250.57 24.773,250.36 24.836C249.77 24.92,249.244 25.067,248.697 25.173C248.718 24.352,248.781 23.489,248.802 22.647C248.844 22.037,248.844 21.447,248.865 20.795C249.349 20.69,249.833 20.521,250.318 20.374C250.97 20.164,251.391 19.764,251.517 19.132C251.622 18.69,251.538 18.227,251.664 17.87C251.664 16.923,251.517 16.565,251.054 16.565C250.844 16.565,250.57 16.628,250.212 16.775C249.812 16.923,249.413 17.049,248.992 17.196C249.076 15.491,249.202 13.829,249.349 12.124C249.391 11.893,249.413 11.64,249.413 11.366C249.413 11.135,249.391 10.882,249.286 10.651C249.244 10.503,249.328 10.251,249.076 10.251C248.907 10.251,248.739 10.356,248.697 10.525C248.592 10.672,248.529 10.882,248.508 11.072C248.234 13.197,248.108 15.344,248.023 17.491C247.392 17.68,246.782 17.828,246.15 17.975C246.108 17.07,246.087 16.165,246.024 15.26C245.961 14.229,245.877 13.197,245.666 12.166C245.603 11.871,245.477 11.766,245.351 11.766C245.224 11.766,245.119 11.893,244.951 11.977C244.782 12.082,244.74 12.25,244.74 12.44L244.74 13.471C244.74 14.313,244.782 15.134,244.803 15.975C244.867 16.733,244.909 17.491,244.867 18.248C244.319 18.375,243.751 18.459,243.183 18.585C243.141 17.533,243.141 16.46,243.141 15.407C243.141 15.26,243.12 15.113,243.057 14.986C242.951 14.839,243.057 14.523,242.846 14.523L242.804 14.523C242.594 14.565,242.383 14.734,242.383 15.049C242.383 15.47,242.299 15.87,242.257 16.291C242.194 17.112,242.194 17.933,242.194 18.733C241.773 18.838,241.352 18.901,240.931 18.985C240.236 19.069,239.963 19.49,239.963 20.311C239.963 20.837,240.089 21.342,240.047 21.826C240.047 22.289,240.173 22.437,240.51 22.437C240.573 22.437,240.636 22.416,240.72 22.416C241.162 22.352,241.625 22.247,242.088 22.205C242.088 22.773,242.046 23.384,242.025 23.952L241.836 26.52L240.11 26.898C239.5 27.046,239.205 27.319,239.205 28.035C239.226 28.793,239.5 29.508,239.5 30.266C239.5 30.497,239.626 30.56,239.773 30.56C239.879 30.56,239.921 30.56,240.026 30.539C240.573 30.413,241.12 30.287,241.625 30.203C241.625 30.687,241.604 31.171,241.604 31.655C241.604 32.812,241.878 33.928,242.299 35.043M246.087 25.678C246.108 25.278,246.108 24.92,246.15 24.52C246.214 23.931,246.214 23.321,246.214 22.71L246.214 21.469C246.74 21.342,247.329 21.216,247.876 21.069C247.813 22.5,247.771 23.931,247.771 25.341C247.203 25.467,246.634 25.551,246.087 25.678M243.141 26.267C243.141 25.278,243.183 24.289,243.204 23.321C243.225 22.9,243.225 22.437,243.225 22.016C243.751 21.932,244.235 21.868,244.74 21.742C244.719 22.416,244.656 23.068,244.635 23.741C244.593 24.478,244.53 25.236,244.467 25.993"/></g></g></g><g class="vf-stavenote" id="vf-auto13344"><g class="vf-stem" id="vf-auto13345" pointer-events="bounding-box"><path stroke-width="1.5" fill="none" d="M312.052 133L312.052 100"/></g><g class="vf-notehead" id="vf-auto13347" pointer-events="bounding-box"><path stroke="none" d="M302.938 141.543C303.219 141.599,303.472 141.627,303.753 141.627C307.628 141.627,313.412 136.348,313.3 132.08C313.188 131.041,313.216 129.609,311.11 128.766C310.52 128.485,309.874 128.373,309.172 128.373C304.848 128.373,300.159 133.343,299.822 136.657C299.822 136.909,299.794 137.134,299.794 137.387C299.794 139.409,300.692 141.037,302.938 141.543"/><g class="vf-ornament" id="vf-auto13388"><path stroke="none" d="M301.422 90C301.759 90,301.843 89.558,301.969 89.305C301.99 89.116,302.053 88.969,302.053 88.779C302.116 86.696,302.137 84.591,302.201 82.487C302.201 81.497,302.137 80.529,302.137 79.561C302.201 77.541,302.306 75.499,302.369 73.479C302.369 73.479,302.411 73.016,302.453 72.637L302.453 72.532L302.474 72.174L302.474 71.984L302.516 71.437C302.516 71.353,302.579 70.995,302.453 70.722C302.306 70.406,302.411 69.754,301.78 69.901C300.348 70.301,298.875 70.448,297.381 70.574C297.486 68.849,297.57 67.081,297.57 65.355C297.57 64.787,297.57 64.24,297.549 63.65C297.549 63.145,297.444 62.661,297.234 62.177C296.244 62.472,296.413 63.377,296.413 63.987C296.455 67.06,296.202 70.09,296.118 73.142C296.076 74.194,296.055 75.268,296.055 76.32C296.055 77.225,296.076 78.109,296.118 78.993C296.118 79.603,296.202 80.214,296.202 80.782C296.202 81.287,296.413 81.455,296.792 81.455C296.876 81.455,296.96 81.455,297.086 81.413L300.748 80.866L300.896 80.845L300.896 83.728C300.896 84.802,300.748 85.938,300.748 87.032C300.748 87.748,300.811 88.485,301.022 89.2C301.106 89.516,301.022 90,301.422 90M297.276 77.499C297.234 76.467,297.17 75.478,297.213 74.468L297.234 74.089C297.423 74.089,297.633 74.11,297.844 74.089C298.875 73.984,299.906 73.921,300.938 73.9L301.106 73.879L301.022 74.784C301.001 75.562,300.938 76.383,300.938 77.183C299.717 77.499,298.475 77.709,297.276 77.877"/><path stroke="none" d="M297.269 41.721C296.092 41.913,294.916 41.913,293.685 41.995L293.685 41.01C293.685 40.627,293.685 40.217,293.603 39.505C293.521 38.849,293.767 37.234,292.891 37.234C292.59 37.234,292.235 37.508,292.235 38.028C292.18 38.876,292.07 39.724,292.043 40.572L292.043 42.159L289.909 42.378C289.116 42.46,288.678 42.87,288.596 43.719C288.568 43.965,288.514 44.786,288.514 45.415C288.514 45.853,288.568 46.208,288.568 46.208L288.568 46.099C288.65 46.537,289.116 46.646,289.936 46.646C290.538 46.646,291.277 46.619,292.153 46.564C292.262 49.492,292.508 52.364,292.618 55.265C292.672 56.222,292.782 57.207,293.138 58.11C293.384 58.739,293.767 59.177,294.205 59.177C294.314 59.177,294.423 59.122,294.56 59.068C294.861 58.903,295.408 59.204,295.846 58.931C297.378 57.946,297.953 56.66,297.871 54.772C297.871 54.444,297.898 54.444,297.871 54.143C297.816 53.787,297.707 53.349,297.324 53.213C296.995 53.158,296.694 53.431,296.448 53.65L295.709 54.416C295.627 54.498,294.998 54.881,294.752 54.881C294.205 54.881,294.314 54.252,294.287 53.814C294.04 51.379,293.931 48.944,293.794 46.482L295.928 46.373C296.038 46.4,296.12 46.4,296.257 46.099C296.339 45.853,296.558 45.825,296.831 45.825L297.023 45.825C297.378 45.825,297.789 45.771,297.953 45.415C298.254 44.704,298.5 43.937,298.5 43.144C298.5 42.104,298.226 41.557,297.269 41.721M309.253 42.378C308.979 42.269,308.541 42.87,307.939 43.144C306.845 43.664,305.75 44.211,304.574 44.786C304.519 44.403,304.519 44.129,304.437 43.883C304.273 43.445,304.273 42.816,303.808 42.706C303.288 42.542,302.932 43.035,302.631 43.418C301.674 44.567,300.853 45.825,299.868 46.892C299.211 47.604,298.993 48.342,298.938 48.808C298.883 49.136,299.047 49.765,299.075 50.121C299.129 50.394,299.211 50.668,299.211 50.942C299.239 51.297,299.239 51.817,299.677 51.817C299.95 51.817,300.114 51.489,300.278 51.297C301.045 50.312,301.838 49.355,302.741 48.26C302.741 48.452,302.796 48.616,302.796 48.78C302.796 48.999,302.741 49.163,302.714 49.245C302.522 49.628,302.385 49.984,302.385 50.394C302.385 50.832,302.823 55.128,302.987 55.675C303.069 56.058,302.987 56.66,303.507 56.66C303.89 56.66,304.136 56.167,304.273 55.757C304.355 55.483,304.355 55.155,304.355 54.881L304.355 50.203C304.355 49.765,304.41 49.245,304.902 48.972C305.778 48.507,306.681 47.959,307.666 47.741C309.964 47.275,310.183 46.564,310.183 44.293C310.183 43.171,309.964 42.706,309.253 42.378"/><path stroke="none" d="M301.422 34.234C301.759 34.234,301.843 33.792,301.969 33.54C301.99 33.35,302.053 33.203,302.053 33.014C302.116 30.93,302.137 28.825,302.201 26.721C302.201 25.732,302.137 24.763,302.137 23.795C302.201 21.775,302.306 19.733,302.369 17.713C302.369 17.713,302.411 17.25,302.453 16.871L302.453 16.766L302.474 16.408L302.474 16.219L302.516 15.672C302.516 15.587,302.579 15.23,302.453 14.956C302.306 14.64,302.411 13.988,301.78 14.135C300.348 14.535,298.875 14.682,297.381 14.809C297.486 13.083,297.57 11.315,297.57 9.589C297.57 9.021,297.57 8.474,297.549 7.884C297.549 7.379,297.444 6.895,297.234 6.411C296.244 6.706,296.413 7.611,296.413 8.221C296.455 11.294,296.202 14.325,296.118 17.376C296.076 18.429,296.055 19.502,296.055 20.554C296.055 21.459,296.076 22.343,296.118 23.227C296.118 23.837,296.202 24.448,296.202 25.016C296.202 25.521,296.413 25.69,296.792 25.69C296.876 25.69,296.96 25.69,297.086 25.647L300.748 25.1L300.896 25.079L300.896 27.963C300.896 29.036,300.748 30.172,300.748 31.267C300.748 31.982,300.811 32.719,301.022 33.435C301.106 33.75,301.022 34.234,301.422 34.234M297.276 21.733C297.234 20.702,297.17 19.712,297.213 18.702L297.234 18.323C297.423 18.323,297.633 18.344,297.844 18.323C298.875 18.218,299.906 18.155,300.938 18.134L301.106 18.113L301.022 19.018C301.001 19.797,300.938 20.617,300.938 21.417C299.717 21.733,298.475 21.943,297.276 22.112"/></g></g></g><g class="vf-stavenote" id="vf-auto13348"><g class="vf-stem" id="vf-auto13349" pointer-events="bounding-box"><path stroke-width="1.5" fill="none" d="M365.91 133L365.91 100"/></g><g class="vf-notehead" id="vf-auto13351" pointer-events="bounding-box"><path stroke="none" d="M356.797 141.543C357.078 141.599,357.331 141.627,357.611 141.627C361.487 141.627,367.271 136.348,367.159 132.08C367.046 131.041,367.074 129.609,364.968 128.766C364.379 128.485,363.733 128.373,363.031 128.373C358.707 128.373,354.017 133.343,353.68 136.657C353.68 136.909,353.652 137.134,353.652 137.387C353.652 139.409,354.551 141.037,356.797 141.543"/><g class="vf-ornament" id="vf-auto13392"><path stroke="none" d="M355.72 90C355.846 90,355.909 89.895,355.972 89.726C356.246 88.716,356.309 87.664,356.309 86.654C356.309 84.086,355.867 81.56,355.783 78.993C355.72 77.204,355.636 75.415,355.636 73.626L355.636 72.679C355.657 71.837,355.573 70.953,355.551 70.111C355.551 69.69,355.299 69.417,354.962 69.375L354.941 69.375C354.625 69.375,354.625 69.775,354.562 69.985C354.415 70.616,354.352 71.29,354.352 71.921C354.352 72.595,354.415 73.226,354.415 73.9C354.478 75.057,354.541 76.194,354.541 77.351L354.541 78.151L354.52 78.109C354.078 77.92,353.657 77.709,353.236 77.604C352.9 77.499,352.605 77.435,352.331 77.435C351.048 77.435,350.206 78.298,350.058 79.772C349.995 80.192,349.995 80.592,349.995 81.013C349.995 84.318,351.426 86.906,354.078 88.8C354.52 89.116,354.962 89.453,355.362 89.79C355.509 89.937,355.636 90,355.72 90M354.899 85.896C353.531 84.928,352.268 83.897,351.49 82.36C351.363 82.108,351.321 81.939,351.321 81.75C351.3 81.413,351.532 81.182,352.016 80.992C352.268 80.908,352.521 80.845,352.731 80.845C353.363 80.845,353.931 81.14,354.52 81.392L354.625 81.455C354.625 82.108,354.668 82.781,354.731 83.455C354.815 84.296,354.836 85.117,354.899 85.896"/><path stroke="none" d="M355.04 66.019C355.615 65.663,356.08 65.198,356.49 64.678C358.022 62.654,359.035 60.383,360.238 58.167C360.321 57.975,360.348 57.702,360.594 57.702C360.868 57.702,360.95 57.975,361.005 58.221C361.689 59.644,362.154 61.122,362.865 62.517C363.576 63.885,364.288 64.405,365.081 64.405C365.656 64.405,366.34 64.077,367.078 63.693C368.419 62.9,369.377 61.669,370.28 60.41C371.894 58.167,372.906 55.814,372.906 53.242C372.906 52.394,372.797 51.518,372.55 50.615C371.73 47.387,368.939 45.061,365.902 45.061C365.628 45.061,365.355 45.089,365.081 45.143C364.014 45.28,363.193 45.691,362.92 46.867C362.838 47.387,362.701 47.852,362.482 48.29C362.345 48.563,362.29 48.755,362.29 48.919C362.29 49.111,362.4 49.193,362.701 49.193C362.838 49.193,362.947 49.165,363.111 49.165C363.549 49.083,363.932 49.029,364.315 49.029C365.437 49.029,366.504 49.302,367.434 50.013C369.568 51.6,370.307 53.734,370.307 56.115C370.307 56.443,370.307 56.717,370.28 57.045C370.197 58.304,369.65 59.343,368.665 60.191C368.145 60.629,367.68 60.821,367.27 60.821C366.777 60.821,366.285 60.465,365.902 59.699C365.464 58.878,365.109 58.03,364.725 57.154C364.288 56.197,364.041 55.13,363.385 54.282C363.057 53.789,362.619 53.598,362.208 53.598C361.798 53.598,361.36 53.789,361.059 54.282C360.457 55.075,359.965 55.896,359.527 56.717C358.569 58.522,357.639 60.328,356.654 62.107C356.572 62.271,356.435 62.517,356.326 62.517C356.052 62.599,355.97 62.271,355.943 62.079C355.697 61.477,355.533 60.903,355.341 60.301C354.712 58.358,354.356 56.361,353.371 54.637C353.07 54.09,352.632 53.789,352.222 53.789C351.839 53.789,351.456 54.035,351.1 54.555C350.69 55.102,350.334 55.704,349.978 56.334C349.13 57.866,348.337 59.48,347.434 61.012C347.16 61.477,347.024 62.243,346.531 62.243C345.957 62.243,345.957 61.395,345.765 60.903C345.491 60.137,345.218 59.343,344.889 58.605C344.315 57.154,343.795 55.622,342.619 54.418C342.071 53.871,341.524 53.652,340.95 53.652C340.32 53.652,339.691 54.008,339.281 54.719C337.448 57.674,335.614 60.547,334.028 63.611C333.863 63.967,333.398 64.487,333.398 64.788C333.398 64.952,333.426 65.034,333.59 65.116C334.11 65.39,334.657 64.514,335.013 63.994C336.435 62.107,337.311 59.945,338.597 58.03C338.925 57.592,339.062 57.346,339.308 57.346C339.5 57.346,339.746 57.537,340.101 57.948C341.004 58.796,341.387 59.945,341.907 61.04C342.454 62.38,342.865 63.803,343.439 65.144C343.713 65.773,343.987 66.101,344.397 66.101C344.671 66.101,344.972 65.937,345.382 65.691C346.367 65.116,346.941 64.077,347.571 63.174C348.775 61.477,349.595 59.672,350.58 57.811C351.128 58.304,351.21 58.933,351.374 59.48C351.921 61.368,352.441 63.283,353.015 65.226C353.262 66.019,353.563 66.375,354.055 66.375C354.329 66.375,354.63 66.238,355.04 66.019"/><path stroke="none" d="M355.72 42.061C355.846 42.061,355.909 41.956,355.972 41.788C356.246 40.778,356.309 39.725,356.309 38.715C356.309 36.147,355.867 33.622,355.783 31.054C355.72 29.265,355.636 27.476,355.636 25.687L355.636 24.74C355.657 23.898,355.573 23.015,355.551 22.173C355.551 21.752,355.299 21.478,354.962 21.436L354.941 21.436C354.625 21.436,354.625 21.836,354.562 22.046C354.415 22.678,354.352 23.351,354.352 23.983C354.352 24.656,354.415 25.288,354.415 25.961C354.478 27.119,354.541 28.255,354.541 29.413L354.541 30.212L354.52 30.17C354.078 29.981,353.657 29.77,353.236 29.665C352.9 29.56,352.605 29.497,352.331 29.497C351.048 29.497,350.206 30.36,350.058 31.833C349.995 32.254,349.995 32.654,349.995 33.075C349.995 36.379,351.426 38.968,354.078 40.862C354.52 41.177,354.962 41.514,355.362 41.851C355.509 41.998,355.636 42.061,355.72 42.061M354.899 37.957C353.531 36.989,352.268 35.958,351.49 34.422C351.363 34.169,351.321 34.001,351.321 33.811C351.3 33.474,351.532 33.243,352.016 33.054C352.268 32.969,352.521 32.906,352.731 32.906C353.363 32.906,353.931 33.201,354.52 33.453L354.625 33.517C354.625 34.169,354.668 34.842,354.731 35.516C354.815 36.358,354.836 37.179,354.899 37.957"/></g></g></g><g class="vf-stavenote" id="vf-auto13352"><g class="vf-stem" id="vf-auto13353" pointer-events="bounding-box"><path stroke-width="1.5" fill="none" d="M419.769 133L419.769 100"/></g><g class="vf-notehead" id="vf-auto13355" pointer-events="bounding-box"><path stroke="none" d="M410.656 141.543C410.937 141.599,411.189 141.627,411.47 141.627C415.345 141.627,421.13 136.348,421.017 132.08C420.905 131.041,420.933 129.609,418.827 128.766C418.237 128.485,417.592 128.373,416.89 128.373C412.565 128.373,407.876 133.343,407.539 136.657C407.539 136.909,407.511 137.134,407.511 137.387C407.511 139.409,408.409 141.037,410.656 141.543"/><g class="vf-ornament" id="vf-auto13396"><path stroke="none" d="M406.337 90C406.464 90,406.527 89.895,406.59 89.726C406.864 88.716,406.927 87.664,406.927 86.654C406.927 84.086,406.485 81.56,406.401 78.993C406.337 77.204,406.253 75.415,406.253 73.626L406.253 72.679C406.274 71.837,406.19 70.953,406.169 70.111C406.169 69.69,405.917 69.417,405.58 69.375L405.559 69.375C405.243 69.375,405.243 69.775,405.18 69.985C405.033 70.616,404.969 71.29,404.969 71.921C404.969 72.595,405.033 73.226,405.033 73.9C405.096 75.057,405.159 76.194,405.159 77.351L405.159 78.151L405.138 78.109C404.696 77.92,404.275 77.709,403.854 77.604C403.517 77.499,403.223 77.435,402.949 77.435C401.665 77.435,400.823 78.298,400.676 79.772C400.613 80.192,400.613 80.592,400.613 81.013C400.613 84.318,402.044 86.906,404.696 88.8C405.138 89.116,405.58 89.453,405.98 89.79C406.127 89.937,406.253 90,406.337 90M407.684 90C407.769 90,407.895 89.937,408.042 89.79C408.442 89.453,408.884 89.116,409.305 88.8C411.978 86.906,413.409 84.318,413.409 81.013C413.409 80.592,413.409 80.192,413.346 79.772C413.198 78.298,412.336 77.435,411.073 77.435C410.799 77.435,410.484 77.499,410.168 77.604C409.726 77.709,409.305 77.92,408.884 78.109L408.863 78.151L408.863 77.351C408.863 76.194,408.926 75.057,408.968 73.9C408.968 73.226,409.031 72.595,409.031 71.921C409.031 71.29,408.968 70.616,408.821 69.985C408.758 69.775,408.758 69.375,408.463 69.375L408.442 69.375C408.105 69.417,407.853 69.69,407.853 70.111C407.832 70.953,407.726 71.837,407.769 72.679L407.769 73.626C407.769 75.415,407.684 77.204,407.621 78.993C407.516 81.56,407.095 84.086,407.095 86.654C407.095 87.664,407.158 88.716,407.432 89.726C407.495 89.895,407.558 90,407.684 90M405.517 85.896C404.149 84.928,402.886 83.897,402.107 82.36C401.981 82.108,401.939 81.939,401.939 81.75C401.918 81.413,402.149 81.182,402.633 80.992C402.886 80.908,403.138 80.845,403.349 80.845C403.98 80.845,404.549 81.14,405.138 81.392L405.243 81.455C405.243 82.108,405.285 82.781,405.348 83.455C405.432 84.296,405.453 85.117,405.517 85.896M408.484 85.896C408.547 85.117,408.589 84.296,408.674 83.455C408.737 82.781,408.758 82.108,408.758 81.455L408.884 81.392C409.452 81.14,410.042 80.845,410.673 80.845C410.883 80.845,411.136 80.908,411.367 80.992C411.852 81.182,412.104 81.413,412.062 81.75C412.062 81.939,412.041 82.108,411.915 82.36C411.136 83.897,409.852 84.928,408.484 85.896"/><path stroke="none" d="M391.13 65.663C391.403 65.417,391.595 65.116,391.841 64.788C392.881 63.42,393.291 61.833,393.811 60.273C394.057 59.562,394.139 59.234,394.331 59.234C394.522 59.234,394.768 59.453,395.234 59.808C396.574 60.821,397.368 62.325,398.544 63.502C398.927 63.885,399.256 64.077,399.556 64.077C399.912 64.077,400.186 63.803,400.541 63.31C401.253 62.243,401.581 61.012,401.882 59.808C402.21 58.577,402.511 57.975,403.031 57.975C403.414 57.975,403.934 58.331,404.7 59.097C406.178 60.574,407.655 62.052,408.941 63.693C409.543 64.432,410.117 65.472,411.157 65.308C412.279 65.144,412.58 63.885,412.936 62.955C413.319 62.052,413.592 61.067,413.975 60.137C414.249 59.507,414.495 59.206,414.851 59.206C415.097 59.206,415.398 59.398,415.808 59.836C416.903 61.067,418.052 62.271,419.064 63.529C419.42 63.94,419.693 64.131,420.049 64.131C420.295 64.131,420.569 64.022,420.843 63.803C423.004 62.271,425.056 60.657,426.944 58.769C427.765 57.948,428.011 56.963,428.011 55.923C428.011 55.513,427.984 55.02,427.901 54.583C427.464 54.555,427.217 54.801,426.944 55.02L421.828 59.152C421.28 59.589,421.007 59.836,420.733 59.836C420.487 59.836,420.241 59.562,419.776 58.96C418.845 57.756,417.97 56.498,416.711 55.54C416.273 55.185,415.808 54.993,415.398 54.993C414.769 54.993,414.194 55.431,413.756 56.169C412.963 57.51,412.58 59.015,412.06 60.465C411.896 60.903,411.732 61.094,411.54 61.094C411.376 61.094,411.184 60.985,410.911 60.657C410.309 60,409.816 59.316,409.269 58.659C407.874 57.127,406.533 55.513,404.81 54.309C404.208 53.926,403.715 53.734,403.277 53.734C402.484 53.734,401.882 54.309,401.526 55.458C401.171 56.635,400.87 57.784,400.432 58.96C400.24 59.507,400.076 59.808,399.912 59.808C399.775 59.808,399.556 59.562,399.201 59.152C398.161 57.838,397.094 56.416,395.671 55.431C395.261 55.157,394.878 55.02,394.55 55.02C394.002 55.02,393.565 55.458,393.291 56.279C392.799 57.866,392.361 59.48,391.595 60.985C391.294 61.614,390.747 62.243,389.926 62.243C389.214 62.243,388.886 61.614,388.53 61.067C388.366 60.821,388.312 60.492,388.229 60.191C387.628 57.784,387.381 55.294,387.327 52.832C387.272 51.71,387.244 50.615,387.244 49.521C387.244 47.825,387.327 46.128,387.463 44.432C387.518 44.049,387.436 43.447,387.108 43.392C386.533 43.338,386.396 43.967,386.369 44.432C386.205 46.402,385.986 48.372,386.013 50.342C386.095 53.926,386.177 57.51,386.725 61.067C386.971 62.599,387.108 64.131,388.065 65.39C388.53 66.019,389.078 66.375,389.68 66.375C390.145 66.375,390.664 66.129,391.13 65.663"/><path stroke="none" d="M406.337 40.389C406.464 40.389,406.527 40.284,406.59 40.115C406.864 39.105,406.927 38.053,406.927 37.043C406.927 34.475,406.485 31.95,406.401 29.382C406.337 27.593,406.253 25.804,406.253 24.015L406.253 23.068C406.274 22.226,406.19 21.342,406.169 20.5C406.169 20.079,405.917 19.806,405.58 19.764L405.559 19.764C405.243 19.764,405.243 20.164,405.18 20.374C405.033 21.006,404.969 21.679,404.969 22.31C404.969 22.984,405.033 23.615,405.033 24.289C405.096 25.446,405.159 26.583,405.159 27.74L405.159 28.54L405.138 28.498C404.696 28.309,404.275 28.098,403.854 27.993C403.517 27.888,403.223 27.824,402.949 27.824C401.665 27.824,400.823 28.687,400.676 30.161C400.613 30.582,400.613 30.981,400.613 31.402C400.613 34.707,402.044 37.295,404.696 39.189C405.138 39.505,405.58 39.842,405.98 40.179C406.127 40.326,406.253 40.389,406.337 40.389M407.684 40.389C407.769 40.389,407.895 40.326,408.042 40.179C408.442 39.842,408.884 39.505,409.305 39.189C411.978 37.295,413.409 34.707,413.409 31.402C413.409 30.981,413.409 30.582,413.346 30.161C413.198 28.687,412.336 27.824,411.073 27.824C410.799 27.824,410.484 27.888,410.168 27.993C409.726 28.098,409.305 28.309,408.884 28.498L408.863 28.54L408.863 27.74C408.863 26.583,408.926 25.446,408.968 24.289C408.968 23.615,409.031 22.984,409.031 22.31C409.031 21.679,408.968 21.006,408.821 20.374C408.758 20.164,408.758 19.764,408.463 19.764L408.442 19.764C408.105 19.806,407.853 20.079,407.853 20.5C407.832 21.342,407.726 22.226,407.769 23.068L407.769 24.015C407.769 25.804,407.684 27.593,407.621 29.382C407.516 31.95,407.095 34.475,407.095 37.043C407.095 38.053,407.158 39.105,407.432 40.115C407.495 40.284,407.558 40.389,407.684 40.389M405.517 36.285C404.149 35.317,402.886 34.286,402.107 32.749C401.981 32.497,401.939 32.328,401.939 32.139C401.918 31.802,402.149 31.571,402.633 31.381C402.886 31.297,403.138 31.234,403.349 31.234C403.98 31.234,404.549 31.529,405.138 31.781L405.243 31.844C405.243 32.497,405.285 33.17,405.348 33.844C405.432 34.686,405.453 35.506,405.517 36.285M408.484 36.285C408.547 35.506,408.589 34.686,408.674 33.844C408.737 33.17,408.758 32.497,408.758 31.844L408.884 31.781C409.452 31.529,410.042 31.234,410.673 31.234C410.883 31.234,411.136 31.297,411.367 31.381C411.852 31.571,412.104 31.802,412.062 32.139C412.062 32.328,412.041 32.497,411.915 32.749C411.136 34.286,409.852 35.317,408.484 36.285"/></g></g></g><g class="vf-stavenote" id="vf-auto13356"><g class="vf-stem" id="vf-auto13357" pointer-events="bounding-box"><path stroke-width="1.5" fill="none" d="M473.628 133L473.628 100"/></g><g class="vf-notehead" id="vf-auto13359" pointer-events="bounding-box"><path stroke="none" d="M464.515 141.543C464.795 141.599,465.048 141.627,465.329 141.627C469.204 141.627,474.988 136.348,474.876 132.08C474.764 131.041,474.792 129.609,472.686 128.766C472.096 128.485,471.45 128.373,470.748 128.373C466.424 128.373,461.735 133.343,461.398 136.657C461.398 136.909,461.37 137.134,461.37 137.387C461.37 139.409,462.268 141.037,464.515 141.543"/><g class="vf-ornament" id="vf-auto13400"><path stroke="none" d="M457.418 71.9C457.46 71.879,457.502 71.879,457.565 71.879C457.755 71.879,457.923 71.963,457.986 72.132C458.007 72.216,458.007 72.216,458.007 74.763C458.007 76.194,458.007 77.33,458.007 77.33C458.007 77.33,458.912 76.972,460.007 76.552L462.006 75.752L462.006 74.005C462.006 72.258,462.006 72.216,462.048 72.132C462.111 71.963,462.28 71.879,462.448 71.879C462.553 71.879,462.68 71.9,462.764 71.984C462.869 72.132,462.869 71.963,462.869 73.794L462.869 75.436L464.216 74.889C465.331 74.468,465.605 74.363,465.731 74.363C465.794 74.363,465.837 74.363,465.858 74.384C466.047 74.447,466.131 74.615,466.131 74.784C466.131 74.931,466.089 75.078,465.942 75.162C465.921 75.205,465.226 75.457,464.384 75.794L462.869 76.404L462.869 79.224L462.869 82.066L462.932 82.002C463.711 81.329,464.574 80.992,465.373 80.992C465.689 80.992,466.005 81.034,466.321 81.161C467.226 81.476,467.752 82.36,467.752 83.413C467.752 83.96,467.604 84.57,467.289 85.18C466.826 86.022,466.236 86.696,464.574 88.169L462.953 89.705C462.637 90,462.616 90,462.448 90C462.301 90,462.217 89.958,462.132 89.874C462.006 89.747,462.006 89.874,462.006 88.506C462.006 88.295,462.006 88.043,462.006 87.706L462.006 85.791L461.901 85.896C461.417 86.548,460.933 87.032,459.691 88.169L458.07 89.705C457.776 90,457.713 90,457.565 90C457.397 90,457.25 89.895,457.187 89.747L457.165 89.705L457.144 84.17L457.144 78.656L455.84 79.14C454.787 79.582,454.535 79.666,454.387 79.666C454.366 79.666,454.324 79.666,454.282 79.645C454.093 79.582,453.988 79.414,453.988 79.224C453.988 79.077,454.072 78.93,454.198 78.846C454.219 78.824,454.871 78.551,455.671 78.277L457.144 77.688L457.144 74.931L457.165 72.195L457.187 72.111C457.229 72.006,457.334 71.921,457.418 71.9M462.006 79.119C462.006 77.793,462.006 76.741,462.006 76.741C461.985 76.741,461.101 77.099,459.986 77.499L458.007 78.298L458.007 80.171L458.007 82.066L458.028 82.002C458.828 81.329,459.733 80.992,460.533 80.992C461.038 80.992,461.522 81.14,461.922 81.392L461.985 81.455C461.985 81.455,461.985 81.455,461.985 81.455C462.006 81.455,462.006 80.992,462.006 79.119M459.901 82.423C459.817 82.381,459.691 82.381,459.607 82.381C459.544 82.381,459.502 82.381,459.46 82.381C458.912 82.465,458.428 82.802,458.092 83.349L458.007 83.497L458.007 85.959L458.007 88.464L458.07 88.379C459.607 86.696,460.617 84.76,460.617 83.476L460.617 83.434C460.617 82.802,460.407 82.529,459.901 82.423M464.763 82.423C464.679 82.381,464.574 82.381,464.49 82.381C464.447 82.381,464.384 82.381,464.363 82.381C463.816 82.465,463.332 82.802,462.995 83.349L462.869 83.497L462.869 85.959L462.869 88.464L462.953 88.379C464.49 86.696,465.479 84.76,465.479 83.476L465.479 83.434C465.479 82.802,465.31 82.529,464.763 82.423"/><path stroke="none" d="M454.604 68.797C454.987 68.77,455.097 68.606,455.097 68.359C455.097 68.25,455.097 68.141,455.015 67.976C454.741 67.238,454.194 66.69,453.674 66.061C453.209 65.459,452.662 65.131,451.841 65.213C451.595 65.268,451.403 65.268,451.157 65.268C450.227 65.268,449.324 64.994,448.448 64.556C445.22 62.942,442.347 60.89,439.967 58.209C439.666 57.853,439.501 57.498,439.501 57.114C439.501 56.95,439.501 56.841,439.529 56.677C440.021 53.831,441.553 51.424,442.648 48.824C443.004 48.004,443.605 47.621,444.262 47.621C444.7 47.621,445.22 47.812,445.74 48.195C447.354 49.454,448.558 51.15,450.008 52.6C451.047 53.64,451.704 54.187,452.306 54.187C453.017 54.187,453.647 53.558,454.632 52.299C455.261 51.506,455.808 50.685,456.41 49.864C456.601 49.536,456.793 49.344,456.984 49.344C457.203 49.344,457.34 49.454,457.586 49.727C458.571 51.041,459.638 52.272,460.623 53.53C461.417 54.543,461.772 55.062,462.238 55.062C462.675 55.062,463.168 54.652,464.153 53.941C464.508 53.722,464.782 53.366,465.11 53.01C465.466 52.6,465.849 52.135,466.205 51.697C466.205 52.108,466.26 52.491,466.26 52.901C466.26 53.448,466.205 53.995,466.177 54.57C465.931 56.868,465.986 59.166,465.931 61.437L465.904 61.82C465.904 61.985,465.931 62.149,466.123 62.176C466.424 62.231,466.643 61.902,466.752 61.684C466.971 61.328,467.108 60.918,467.19 60.534C467.518 59.358,467.6 58.127,467.6 56.896C467.6 54.433,467.792 51.971,467.792 49.59C467.983 49.344,468.175 49.071,468.394 48.797C468.804 48.113,469.132 47.812,469.488 47.812C469.789 47.812,470.117 48.086,470.637 48.633C470.747 48.715,470.774 48.824,470.911 48.906C472.032 50.138,472.881 51.615,473.893 52.928C474.331 53.476,474.686 53.722,475.124 53.722C475.398 53.722,475.699 53.585,476.136 53.366C476.848 52.901,477.45 52.299,477.997 51.615C479.146 50.22,480.323 48.824,481.581 47.484C482.812 46.198,483.907 44.775,484.208 42.887C483.031 42.969,482.32 43.708,481.691 44.447C480.323 46.061,478.982 47.675,477.587 49.262C477.286 49.645,477.121 49.809,476.93 49.809C476.738 49.809,476.547 49.59,476.219 49.18C475.042 47.675,474.002 46.034,472.634 44.72C472.032 44.173,471.458 43.9,470.911 43.9C470.199 43.9,469.515 44.337,468.941 45.213C468.53 45.787,468.147 46.389,467.71 46.937C467.682 46.499,467.628 46.116,467.545 45.678C467.6 45.377,467.6 45.049,467.6 44.775C467.6 43.872,467.463 43.051,467.409 42.203C467.272 40.206,467.053 38.181,466.834 36.211C466.834 35.938,466.834 35.582,466.478 35.582C466.177 35.582,465.931 35.828,465.849 36.184C465.548 37.361,465.302 38.592,465.384 39.796C465.576 42.641,465.904 45.514,466.013 48.359C466.013 48.551,466.068 48.797,466.068 48.989C465.63 49.508,465.138 50.001,464.673 50.439C464.372 50.712,464.125 50.876,463.934 50.876C463.66 50.876,463.414 50.63,463.14 50.302C462.156 49.016,461.253 47.757,460.213 46.581C459.447 45.678,458.872 45.24,458.325 45.24C457.751 45.24,457.203 45.787,456.437 46.854C455.699 47.922,455.069 49.071,454.084 49.891C453.92 50.056,453.756 50.138,453.647 50.138C453.482 50.138,453.373 50.056,453.181 49.864C451.759 48.277,450.309 46.772,448.886 45.24C448.202 44.529,447.545 43.9,446.478 43.735C446.205 43.708,445.958 43.708,445.74 43.708C444.071 43.708,442.73 44.392,441.745 45.842C440.815 47.265,439.857 48.66,439.036 50.138C438.133 51.752,437.532 53.558,437.532 55.363C437.532 58.182,438.872 60.808,441.909 62.586C442.374 62.86,442.785 63.298,443.25 63.599C445.876 65.377,448.393 67.457,451.485 68.442C452.224 68.688,452.963 68.879,453.756 68.879C454.03 68.879,454.303 68.852,454.604 68.797"/><path stroke="none" d="M457.418 14.482C457.46 14.461,457.502 14.461,457.565 14.461C457.755 14.461,457.923 14.546,457.986 14.714C458.007 14.798,458.007 14.798,458.007 17.345C458.007 18.776,458.007 19.912,458.007 19.912C458.007 19.912,458.912 19.555,460.007 19.134L462.006 18.334L462.006 16.587C462.006 14.84,462.006 14.798,462.048 14.714C462.111 14.546,462.28 14.461,462.448 14.461C462.553 14.461,462.68 14.482,462.764 14.567C462.869 14.714,462.869 14.546,462.869 16.377L462.869 18.018L464.216 17.471C465.331 17.05,465.605 16.945,465.731 16.945C465.794 16.945,465.837 16.945,465.858 16.966C466.047 17.029,466.131 17.197,466.131 17.366C466.131 17.513,466.089 17.66,465.942 17.745C465.921 17.787,465.226 18.039,464.384 18.376L462.869 18.986L462.869 21.807L462.869 24.648L462.932 24.585C463.711 23.911,464.574 23.574,465.373 23.574C465.689 23.574,466.005 23.616,466.321 23.743C467.226 24.058,467.752 24.942,467.752 25.995C467.752 26.542,467.604 27.152,467.289 27.763C466.826 28.604,466.236 29.278,464.574 30.751L462.953 32.287C462.637 32.582,462.616 32.582,462.448 32.582C462.301 32.582,462.217 32.54,462.132 32.456C462.006 32.33,462.006 32.456,462.006 31.088C462.006 30.877,462.006 30.625,462.006 30.288L462.006 28.373L461.901 28.478C461.417 29.131,460.933 29.615,459.691 30.751L458.07 32.287C457.776 32.582,457.713 32.582,457.565 32.582C457.397 32.582,457.25 32.477,457.187 32.33L457.165 32.287L457.144 26.752L457.144 21.238L455.84 21.722C454.787 22.164,454.535 22.248,454.387 22.248C454.366 22.248,454.324 22.248,454.282 22.227C454.093 22.164,453.988 21.996,453.988 21.807C453.988 21.659,454.072 21.512,454.198 21.428C454.219 21.407,454.871 21.133,455.671 20.859L457.144 20.27L457.144 17.513L457.165 14.777L457.187 14.693C457.229 14.588,457.334 14.503,457.418 14.482M462.006 21.701C462.006 20.375,462.006 19.323,462.006 19.323C461.985 19.323,461.101 19.681,459.986 20.081L458.007 20.88L458.007 22.754L458.007 24.648L458.028 24.585C458.828 23.911,459.733 23.574,460.533 23.574C461.038 23.574,461.522 23.722,461.922 23.974L461.985 24.037C461.985 24.037,461.985 24.037,461.985 24.037C462.006 24.037,462.006 23.574,462.006 21.701M459.901 25.006C459.817 24.963,459.691 24.963,459.607 24.963C459.544 24.963,459.502 24.963,459.46 24.963C458.912 25.048,458.428 25.384,458.092 25.932L458.007 26.079L458.007 28.541L458.007 31.046L458.07 30.962C459.607 29.278,460.617 27.342,460.617 26.058L460.617 26.016C460.617 25.384,460.407 25.111,459.901 25.006M464.763 25.006C464.679 24.963,464.574 24.963,464.49 24.963C464.447 24.963,464.384 24.963,464.363 24.963C463.816 25.048,463.332 25.384,462.995 25.932L462.869 26.079L462.869 28.541L462.869 31.046L462.953 30.962C464.49 29.278,465.479 27.342,465.479 26.058L465.479 26.016C465.479 25.384,465.31 25.111,464.763 25.006"/></g></g></g><g class="vf-stavenote" id="vf-auto13360"><g class="vf-stem" id="vf-auto13361" pointer-events="bounding-box"><path stroke-width="1.5" fill="none" d="M527.486 133L527.486 100"/></g><g class="vf-notehead" id="vf-auto13363" pointer-events="bounding-box"><path stroke="none" d="M518.373 141.543C518.654 141.599,518.907 141.627,519.188 141.627C523.063 141.627,528.847 136.348,528.735 132.08C528.622 131.041,528.651 129.609,526.545 128.766C525.955 128.485,525.309 128.373,524.607 128.373C520.283 128.373,515.593 133.343,515.256 136.657C515.256 136.909,515.228 137.134,515.228 137.387C515.228 139.409,516.127 141.037,518.373 141.543"/><g class="vf-ornament" id="vf-auto13404"><path stroke="none" d="M510.193 90C510.445 90,510.614 89.853,510.803 89.663C511.561 88.969,512.108 88.085,512.655 87.243C513.202 86.38,513.75 85.475,514.255 84.591C514.234 85.117,514.192 85.601,514.192 86.085C514.192 86.717,514.234 87.327,514.318 87.959C514.339 88.232,514.318 88.379,514.739 88.506C515.265 88.632,515.412 88.337,515.623 88.127C517.054 86.759,518.043 85.117,519.074 83.476C519.811 82.318,520.169 81.055,520.169 79.687C520.169 78.509,519.916 77.351,518.78 76.867C518.464 76.762,518.169 76.699,517.896 76.699C517.328 76.699,516.78 76.909,516.254 77.288C516.107 77.393,516.023 77.562,515.833 77.562L515.812 77.562L515.812 71.416C515.812 71.016,515.854 70.638,515.707 70.259C515.623 70.111,515.707 69.817,515.475 69.817L515.433 69.817C515.223 69.838,514.886 69.943,514.844 70.238C514.739 70.574,514.676 70.911,514.613 71.227C514.507 72.321,514.465 73.416,514.465 74.531C514.465 75.752,514.507 76.972,514.507 78.214L514.507 79.393C513.918 78.593,513.35 78.319,512.739 78.319C512.234 78.319,511.645 78.572,511.077 78.846C511.077 78.698,511.056 78.593,511.056 78.509C511.077 77.898,511.098 77.288,511.098 76.699C511.098 75.205,511.014 73.689,510.993 72.216C510.993 71.816,510.929 71.416,510.782 71.08C510.677 70.911,510.719 70.638,510.466 70.638L510.403 70.638C510.13 70.701,509.835 70.743,509.772 71.122C509.709 71.416,509.688 71.711,509.688 72.027C509.688 72.174,509.688 72.363,509.709 72.511C509.793 73.395,509.835 74.236,509.835 75.12C509.835 77.393,509.625 79.666,509.583 81.939C509.561 83.581,509.288 85.244,509.288 86.864C509.288 87.664,509.351 88.422,509.54 89.2C509.625 89.516,509.583 89.811,509.919 89.937C510.024 90,510.109 90,510.193 90M515.623 84.844C515.644 84.275,515.644 83.728,515.644 83.181L515.644 81.518C515.686 80.782,516.044 80.277,516.675 80.003C516.886 79.898,517.138 79.835,517.349 79.835C517.748 79.835,518.106 80.024,518.443 80.319C518.569 80.424,518.653 80.55,518.653 80.656C518.653 80.761,518.632 80.845,518.569 80.929C517.643 82.297,516.738 83.623,515.623 84.844M510.866 86.422C510.866 85.138,510.866 83.939,510.824 82.697C510.824 82.024,511.224 81.729,511.771 81.603C511.898 81.56,511.982 81.56,512.066 81.56C512.571 81.56,512.95 81.876,513.287 82.234C513.329 82.297,513.35 82.381,513.35 82.487C513.35 82.55,513.35 82.592,513.329 82.634C512.592 83.96,511.919 85.328,510.866 86.422"/><path stroke="none" d="M495.377 66.817C496.198 66.488,496.691 66.187,497.101 65.832C497.949 65.011,498.797 64.245,499.673 63.424C499.864 63.233,500.028 63.123,500.22 63.123C500.384 63.123,500.548 63.233,500.74 63.479C501.314 64.245,502.08 64.956,502.71 65.722C503.257 66.379,503.695 66.653,504.215 66.653C504.57 66.653,504.953 66.543,505.473 66.27C505.884 66.023,506.294 65.722,506.65 65.367C507.47 64.518,508.291 63.698,509.085 62.85C509.276 62.603,509.495 62.494,509.687 62.494C509.823 62.494,510.042 62.603,510.234 62.85C511.137 63.752,512.012 64.683,512.915 65.586C513.38 66.078,513.9 66.352,514.475 66.352C514.748 66.352,515.049 66.27,515.323 66.187C516.061 65.941,516.718 65.558,517.375 65.038C518.278 64.218,519.208 63.424,520.111 62.603C520.275 62.439,520.439 62.357,520.548 62.357C520.658 62.357,520.822 62.439,520.986 62.631C521.78 63.506,522.628 64.3,523.394 65.175C524.187 66.023,524.926 66.461,525.802 66.461C526.431 66.461,527.06 66.215,527.772 65.75C529.523 64.518,531.082 63.041,532.56 61.509C533.353 60.715,533.763 59.676,534.037 58.581C534.146 58.198,534.037 57.979,533.791 57.979C533.681 57.979,533.544 58.034,533.435 58.062C532.997 58.226,532.532 58.417,532.149 58.773C531.082 59.758,530.097 60.907,528.866 61.728C528.538 61.919,528.264 62.083,528.045 62.083C527.772 62.083,527.525 61.919,527.252 61.536C526.704 60.743,526.075 60.031,525.364 59.402C524.406 58.554,523.585 58.116,522.765 58.116C521.889 58.116,521.014 58.581,520.083 59.484C519.208 60.278,518.387 61.071,517.429 61.728C517.156 61.919,516.964 62.056,516.773 62.056C516.527 62.056,516.308 61.892,516.061 61.536C515.323 60.469,514.338 59.539,513.216 58.855C512.724 58.554,512.204 58.39,511.684 58.39C511.055 58.39,510.48 58.663,509.878 59.211L506.732 62.22C506.54 62.412,506.321 62.521,506.13 62.521C505.966 62.521,505.774 62.412,505.583 62.138C505.035 61.427,504.406 60.743,503.722 60.114C503.175 59.539,502.655 59.211,502.163 59.265C501.643 59.265,501.123 59.539,500.548 60.114C499.645 61.098,498.66 62.056,497.593 62.877C496.28 63.834,496.089 65.285,495.377 66.817"/><path stroke="none" d="M510.193 54.979C510.445 54.979,510.614 54.832,510.803 54.643C511.561 53.948,512.108 53.064,512.655 52.222C513.202 51.36,513.75 50.455,514.255 49.571C514.234 50.097,514.192 50.581,514.192 51.065C514.192 51.696,514.234 52.307,514.318 52.938C514.339 53.212,514.318 53.359,514.739 53.485C515.265 53.611,515.412 53.317,515.623 53.106C517.054 51.738,518.043 50.097,519.074 48.455C519.811 47.298,520.169 46.035,520.169 44.667C520.169 43.488,519.916 42.331,518.78 41.847C518.464 41.741,518.169 41.678,517.896 41.678C517.328 41.678,516.78 41.889,516.254 42.268C516.107 42.373,516.023 42.541,515.833 42.541L515.812 42.541L515.812 36.396C515.812 35.996,515.854 35.617,515.707 35.238C515.623 35.091,515.707 34.796,515.475 34.796L515.433 34.796C515.223 34.817,514.886 34.922,514.844 35.217C514.739 35.554,514.676 35.891,514.613 36.206C514.507 37.301,514.465 38.395,514.465 39.511C514.465 40.731,514.507 41.952,514.507 43.194L514.507 44.372C513.918 43.572,513.35 43.299,512.739 43.299C512.234 43.299,511.645 43.551,511.077 43.825C511.077 43.678,511.056 43.572,511.056 43.488C511.077 42.878,511.098 42.268,511.098 41.678C511.098 40.184,511.014 38.669,510.993 37.195C510.993 36.796,510.929 36.396,510.782 36.059C510.677 35.891,510.719 35.617,510.466 35.617L510.403 35.617C510.13 35.68,509.835 35.722,509.772 36.101C509.709 36.396,509.688 36.69,509.688 37.006C509.688 37.153,509.688 37.343,509.709 37.49C509.793 38.374,509.835 39.216,509.835 40.1C509.835 42.373,509.625 44.646,509.583 46.919C509.561 48.56,509.288 50.223,509.288 51.844C509.288 52.643,509.351 53.401,509.54 54.18C509.625 54.495,509.583 54.79,509.919 54.916C510.024 54.979,510.109 54.979,510.193 54.979M515.623 49.823C515.644 49.255,515.644 48.708,515.644 48.161L515.644 46.498C515.686 45.761,516.044 45.256,516.675 44.983C516.886 44.877,517.138 44.814,517.349 44.814C517.748 44.814,518.106 45.004,518.443 45.298C518.569 45.403,518.653 45.53,518.653 45.635C518.653 45.74,518.632 45.824,518.569 45.909C517.643 47.277,516.738 48.602,515.623 49.823M510.866 51.402C510.866 50.118,510.866 48.918,510.824 47.676C510.824 47.003,511.224 46.708,511.771 46.582C511.898 46.54,511.982 46.54,512.066 46.54C512.571 46.54,512.95 46.856,513.287 47.213C513.329 47.277,513.35 47.361,513.35 47.466C513.35 47.529,513.35 47.571,513.329 47.613C512.592 48.939,511.919 50.307,510.866 51.402"/></g></g></g><g class="vf-stavenote" id="vf-auto13364"><g class="vf-stem" id="vf-auto13365" pointer-events="bounding-box"><path stroke-width="1.5" fill="none" d="M581.345 133L581.345 100"/></g><g class="vf-notehead" id="vf-auto13367" pointer-events="bounding-box"><path stroke="none" d="M572.232 141.543C572.513 141.599,572.765 141.627,573.046 141.627C576.921 141.627,582.706 136.348,582.593 132.08C582.481 131.041,582.509 129.609,580.403 128.766C579.814 128.485,579.168 128.373,578.466 128.373C574.141 128.373,569.452 133.343,569.115 136.657C569.115 136.909,569.087 137.134,569.087 137.387C569.087 139.409,569.986 141.037,572.232 141.543"/><g class="vf-ornament" id="vf-auto13408"><path stroke="none" d="M568.124 90C568.566 89.621,568.734 89.263,568.776 88.842C568.861 87.453,569.008 86.022,569.05 84.633C570.039 84.381,571.007 84.149,571.975 83.939C572.396 83.812,572.67 83.56,572.838 83.202C573.049 82.655,573.133 82.15,573.133 81.603C573.133 80.908,573.049 80.634,572.712 80.634C572.586 80.634,572.438 80.656,572.228 80.719L568.987 81.539C568.987 81.076,568.945 80.634,568.945 80.171C568.924 79.288,568.945 78.425,568.945 77.541C569.492 77.414,570.039 77.288,570.607 77.204C572.249 76.93,572.46 76.699,572.586 74.994C572.649 74.11,572.502 73.773,571.891 73.773C571.702 73.773,571.533 73.816,571.281 73.837C570.502 73.942,569.702 74.152,568.924 74.321C568.924 73.963,568.924 73.626,568.882 73.268C568.861 71.879,568.924 70.469,568.461 69.122C568.019 69.206,567.914 69.438,567.892 69.838C567.85 70.301,567.829 70.743,567.829 71.206C567.829 72.321,567.914 73.437,567.914 74.573C566.988 74.784,566.019 74.952,565.051 75.078C564.167 75.205,564.041 75.352,564.041 76.215C564.062 76.783,564.125 77.351,564.188 77.941C564.23 78.214,564.315 78.361,564.609 78.361L564.778 78.361C565.83 78.361,566.882 77.983,567.914 77.772C567.914 78.446,567.956 79.119,567.977 79.772C568.019 80.445,568.04 81.119,568.04 81.771L566.398 82.15C564.609 82.529,564.778 82.529,564.778 84.233C564.778 84.507,564.778 84.802,564.736 85.075C564.736 85.412,564.82 85.559,565.072 85.559C565.135 85.559,565.22 85.559,565.346 85.538L567.956 84.907L567.956 85.138C567.829 86.064,567.766 86.969,567.808 87.895C567.829 88.569,567.808 89.305,568.124 90"/><path stroke="none" d="M569.49 66.122C569.95 64.973,569.982 64.021,569.982 63.069C569.95 61.559,569.95 60.015,569.95 58.44C571.131 59.293,572.412 60.114,573.791 60.639C574.645 60.968,575.531 61.132,576.385 61.132C578.88 61.132,581.145 59.621,581.802 56.798C581.999 55.813,582.163 54.795,582.163 53.81C582.163 52.53,581.966 51.249,581.539 50.002C580.784 47.769,578.946 46.39,576.844 46.39C576.516 46.39,576.253 46.456,575.892 46.489C574.71 46.686,574.251 47.309,574.349 48.524L574.776 51.315C574.809 51.61,574.874 51.775,575.071 51.775C575.137 51.775,575.235 51.742,575.4 51.676C575.761 51.512,576.155 51.446,576.516 51.446C577.14 51.446,577.764 51.643,578.355 51.84C579.307 52.103,580.39 53.548,580.39 54.303C580.39 55.091,579.11 55.911,577.895 56.043C577.501 56.076,577.173 56.076,576.811 56.076C575.859 56.076,574.973 55.944,574.021 55.616C572.51 55.091,571.263 54.139,569.95 53.219C569.95 53.219,569.95 53.154,569.917 53.154L569.917 50.035C569.917 48.426,569.851 46.686,569.851 45.077C569.851 44.125,569.818 43.173,569.227 42.385C569.162 42.221,569.162 41.958,568.965 41.958L568.866 41.958C568.636 41.991,568.406 42.286,568.242 42.516C568.144 42.713,568.209 42.943,568.209 43.173L568.045 51.676C566.601 50.429,565.189 49.082,563.58 47.999C562.398 47.309,561.249 46.948,560.264 46.948C558.229 46.948,556.587 48.294,555.668 50.363C555.208 51.446,555.011 52.53,555.011 53.613C555.011 55.386,555.471 57.126,555.996 58.834C556.423 60.212,558.163 61.066,559.739 61.066C560.034 61.066,560.264 61,560.527 60.968C562.661 60.475,563.153 59.884,563.153 57.126C563.153 57.093,563.153 56.699,563.088 56.338C562.989 55.747,562.858 55.32,562.431 55.32C562.234 55.32,562.07 55.419,561.774 55.583C561.118 55.944,560.461 56.076,559.739 56.076C559.016 56.076,558.327 55.911,557.605 55.583C557.047 55.288,556.751 54.959,556.751 54.533C556.751 54.303,556.817 54.007,556.981 53.679C557.605 52.595,558.951 51.939,560.297 51.939C560.527 51.939,560.789 51.939,561.019 51.972C562.989 52.366,564.27 53.679,565.681 54.894C566.437 55.583,567.224 56.24,567.98 56.831C567.914 57.52,567.914 58.177,567.914 58.768C567.815 61.296,568.209 63.66,569.49 66.122"/><path stroke="none" d="M568.124 38.958C568.566 38.579,568.734 38.221,568.776 37.8C568.861 36.411,569.008 34.98,569.05 33.591C570.039 33.339,571.007 33.107,571.975 32.897C572.396 32.77,572.67 32.518,572.838 32.16C573.049 31.613,573.133 31.108,573.133 30.56C573.133 29.866,573.049 29.592,572.712 29.592C572.586 29.592,572.438 29.613,572.228 29.677L568.987 30.497C568.987 30.034,568.945 29.592,568.945 29.129C568.924 28.245,568.945 27.382,568.945 26.499C569.492 26.372,570.039 26.246,570.607 26.162C572.249 25.888,572.46 25.657,572.586 23.952C572.649 23.068,572.502 22.731,571.891 22.731C571.702 22.731,571.533 22.773,571.281 22.794C570.502 22.9,569.702 23.11,568.924 23.278C568.924 22.921,568.924 22.584,568.882 22.226C568.861 20.837,568.924 19.427,568.461 18.08C568.019 18.164,567.914 18.396,567.892 18.796C567.85 19.259,567.829 19.701,567.829 20.164C567.829 21.279,567.914 22.395,567.914 23.531C566.988 23.741,566.019 23.91,565.051 24.036C564.167 24.162,564.041 24.31,564.041 25.173C564.062 25.741,564.125 26.309,564.188 26.898C564.23 27.172,564.315 27.319,564.609 27.319L564.778 27.319C565.83 27.319,566.882 26.941,567.914 26.73C567.914 27.404,567.956 28.077,567.977 28.729C568.019 29.403,568.04 30.076,568.04 30.729L566.398 31.108C564.609 31.486,564.778 31.486,564.778 33.191C564.778 33.465,564.778 33.759,564.736 34.033C564.736 34.37,564.82 34.517,565.072 34.517C565.135 34.517,565.22 34.517,565.346 34.496L567.956 33.865L567.956 34.096C567.829 35.022,567.766 35.927,567.808 36.853C567.829 37.527,567.808 38.263,568.124 38.958"/></g></g></g></svg>