<svg xmlns="http://www.w3.org/2000/svg" stroke-width="0.3" stroke-dasharray="none" fill="black" stroke="black" font-family="Arial, sans-serif" font-size="10pt" font-weight="normal" font-style="normal" width="550" height="200" viewBox="0 0 550 200" style="width: 550px; height: 200px; border: none;"><g class="vf-stave" id="vf-auto36050" stroke-width="1" fill="#999999" stroke="#999999"><path fill="none" d="M0 40L540 40"/><path fill="none" d="M0 50L540 50"/><path fill="none" d="M0 60L540 60"/><path fill="none" d="M0 70L540 70"/><path fill="none" d="M0 80L540 80"/></g><g class="vf-stavebarline" id="vf-auto36051"><rect y="39.5" width="1" height="41" stroke="none"/></g><g class="vf-stavebarline" id="vf-auto36052"><rect x="540" y="39.5" width="1" height="41" stroke="none"/></g><g class="vf-clef" id="vf-auto36053"><path stroke="none" d="M25.503 71.76C25.503 74.345,24.464 77.032,21.854 78.071C21.093 73.712,20.105 67.908,19.852 66.286C23.146 66.286,25.503 68.516,25.503 71.76M20.333 78.527C19.598 78.654,18.914 78.73,18.204 78.73C12.983 78.73,8.548 75.08,8.548 69.581C8.548 65.12,11.691 61.141,14.884 58.379C15.518 57.821,16.101 57.314,16.633 56.757C16.962 58.734,17.216 60.457,17.469 61.952C14.149 62.941,11.894 66.438,11.894 69.86C11.894 72.419,13.896 75.917,16.836 75.917C17.114 75.917,17.444 75.79,17.444 75.461C17.444 75.131,17.089 74.954,16.633 74.65C15.214 73.762,14.428 72.825,14.428 71.025C14.428 68.82,16.05 67.021,18.204 66.514M17.114 40.993C17.444 39.548,19.117 35.721,21.017 35.721C21.575 35.721,22.437 37.495,22.437 40.004C22.437 43.806,19.623 46.67,17.114 49.128C16.886 47.684,16.709 46.264,16.709 44.718C16.709 43.375,16.836 42.133,17.114 40.993M9.461 89.729C9.461 92.137,11.311 95.305,16.253 95.305C17.951 95.305,19.446 94.874,20.764 94.063C22.741 92.669,23.248 90.261,23.248 87.98C23.248 86.536,23.02 84.914,22.665 82.836C22.563 82.101,22.335 81.011,22.107 79.566C25.681 78.4,28.367 74.675,28.367 70.924C28.367 65.424,24.464 61.699,19.117 61.699C18.762 59.494,18.382 57.34,18.078 55.312C21.93 51.257,24.591 46.695,24.591 40.891C24.591 37.571,23.577 34.859,22.994 33.567C22.107 31.691,21.068 30.424,20.409 30.424C20.156 30.424,19.015 30.855,17.799 32.274C15.467 35.062,14.808 39.726,14.808 42.792C14.808 44.769,15.011 46.543,15.619 50.623C15.594 50.674,13.693 52.6,12.907 53.234C9.587 56.326,5 60.736,5 68.035C5 74.878,10.956 80.225,17.748 80.225C18.787 80.225,19.776 80.124,20.612 79.972C21.322 83.469,21.727 86.029,21.727 87.98C21.727 91.757,19.776 93.784,16.101 93.784C15.214 93.784,14.453 93.582,14.377 93.582C14.352 93.556,14.276 93.505,14.276 93.48C14.276 93.404,14.352 93.379,14.453 93.328C16.177 93.075,17.875 91.63,17.875 89.273C17.875 87.322,16.379 85.243,13.642 85.243C11.083 85.243,9.461 87.322,9.461 89.729"/></g><g class="vf-stavenote" id="vf-auto36054"><g class="vf-stem" id="vf-auto36055" pointer-events="bounding-box"><path stroke-width="1.5" fill="none" d="M52.759 38L52.759 5"/></g><g class="vf-notehead" id="vf-auto36057" pointer-events="bounding-box"><path stroke="none" d="M40.367 41.685C40.367 43.426,41.631 45.391,44.888 45.391C49.1 45.391,53.509 41.938,53.509 38.371C53.509 35.985,51.487 34.665,48.988 34.665C45.057 34.665,40.367 37.978,40.367 41.685"/></g></g><g class="vf-stavenote" id="vf-auto36058"><path stroke-width="1.4" fill="none" stroke="#444" d="M172.652 30L191.794 30"/><g class="vf-stem" id="vf-auto36059" pointer-events="bounding-box"><path stroke-width="1.5" fill="none" d="M188.044 23L188.044 -10"/></g><g class="vf-notehead" id="vf-auto36061" pointer-events="bounding-box"><path stroke="none" d="M175.652 26.685C175.652 28.426,176.916 30.391,180.173 30.391C184.385 30.391,188.794 26.938,188.794 23.371C188.794 20.985,186.772 19.665,184.273 19.665C180.342 19.665,175.652 22.978,175.652 26.685"/><path stroke="none" d="M172.242 20.869C172.461 20.814,172.652 20.54,172.652 20.321L172.652 17.996C172.652 17.668,172.433 17.449,172.105 17.449C172.078 17.449,172.078 17.449,172.023 17.449L170.737 17.722L170.737 11.84L169.615 11.84L169.615 17.941L166.113 18.652L166.113 13.098L165.019 13.098L165.019 18.899L163.487 19.2C163.24 19.254,163.049 19.528,163.049 19.747L163.049 19.829L163.049 22.127L163.049 22.045C163.049 22.373,163.295 22.592,163.596 22.592C163.651 22.592,163.678 22.592,163.706 22.592L165.019 22.319L165.019 28.83L163.487 29.131C163.24 29.186,163.049 29.46,163.049 29.679L163.049 31.977C163.049 32.278,163.295 32.524,163.596 32.524C163.651 32.524,163.678 32.524,163.706 32.524L165.019 32.25L165.019 38.133L166.113 38.133L166.113 32.004L169.615 31.293L169.615 36.847L170.737 36.847L170.737 31.074L172.242 30.8C172.461 30.746,172.652 30.472,172.652 30.253L172.652 27.928C172.652 27.599,172.433 27.353,172.105 27.353C172.078 27.353,172.078 27.353,172.023 27.353L170.737 27.627L170.737 21.142M166.113 22.072L169.615 21.388L169.615 27.873L166.113 28.612"/><path stroke="none" d="M113.924 43.242C111.865 43.242,110.218 44.421,110.199 44.421C108.645 45.582,108.009 46.949,107.766 47.903C107.634 48.39,107.578 48.877,107.578 49.326C107.578 49.981,107.691 50.562,107.934 51.086C108.252 51.797,108.87 52.321,109.694 52.583C110.012 52.696,110.368 52.752,110.705 52.752C111.304 52.752,111.921 52.583,112.446 52.284C113.269 51.835,113.793 50.861,113.793 49.813C113.793 48.877,113.307 47.997,112.483 47.492C111.921 47.117,111.378 47.005,110.929 47.005C110.611 47.005,110.311 47.061,110.068 47.136C109.787 47.248,109.338 47.529,109.113 47.716C109.207 47.192,109.525 46.406,109.825 45.975C110.124 45.545,110.705 45.02,111.173 44.777C111.846 44.384,112.708 44.234,113.644 44.234C116.395 44.234,117.743 46.443,117.743 50.973C117.743 53.482,116.807 55.878,116.002 57.469C115.104 59.248,113.924 60.951,112.876 61.887C110.068 64.452,107.429 65.669,107.391 65.669C107.391 65.669,107.073 65.856,107.073 66.174C107.073 66.23,107.092 66.249,107.092 66.305C107.185 66.586,107.429 66.623,107.578 66.623C107.616 66.623,107.691 66.605,107.728 66.605C107.747 66.605,110.817 65.332,113.269 63.422C114.654 62.43,115.89 61.344,116.957 60.184C117.93 59.135,118.773 58.012,119.447 56.87C120.626 54.848,121.3 52.752,121.3 50.936C121.3 48.708,120.72 46.855,119.615 45.526C118.342 44.01,116.433 43.242,113.924 43.242M122.386 46.649C122.386 47.417,122.985 47.997,123.678 47.997C124.37 47.997,124.969 47.417,124.969 46.649C124.969 45.9,124.37 45.283,123.678 45.283C122.985 45.283,122.386 45.9,122.386 46.649M122.386 53.313C122.386 54.062,122.985 54.699,123.678 54.699C124.37 54.699,124.969 54.062,124.969 53.313C124.969 52.565,124.37 51.947,123.678 51.947C122.985 51.947,122.386 52.565,122.386 53.313"/><g class="vf-stavebarline" id="vf-auto36118"><rect x="129.969" y="39.5" width="1" height="41" stroke="none"/><rect x="124.969" y="39.5" width="3" height="41" stroke="none"/><path stroke="none" d="M136.969 55.5 A2 2 0 0 0 132.969 55.5 A2 2 0 0 0 136.969 55.5"/><path stroke="none" d="M136.969 65.5 A2 2 0 0 0 132.969 65.5 A2 2 0 0 0 136.969 65.5"/><rect y="39.5" width="1" height="41" stroke="none"/></g><path stroke="none" d="M153.96 49.437C156.776 48.335,156.947 46.499,156.947 45.887C156.947 45.814,156.947 45.74,156.947 45.692C156.947 45.373,156.849 41.408,150.778 41.408C144.707 41.408,144.903 45.692,144.903 45.692L144.927 45.692L144.903 45.765C144.903 47.038,145.906 48.017,147.179 48.017C148.452 48.017,149.432 47.038,149.432 45.765C149.432 44.737,148.673 43.758,147.669 43.537C147.718 43.513,147.742 43.488,147.791 43.439C148.281 43.097,148.942 42.925,149.627 42.925C151.096 42.925,152.687 43.807,152.687 45.692C152.687 47.919,151.023 48.237,150.607 48.311C150.19 48.384,148.208 48.531,147.791 48.531C147.351 48.531,147.326 49.021,147.326 49.021L147.326 49.706C147.326 49.706,147.4 50.098,147.791 50.147C148.379 50.171,149.187 50.171,150.313 50.343C151.88 50.563,152.687 51.616,152.687 54.088C152.687 56.463,151.096 57.075,149.627 57.075C148.624 57.075,147.718 56.805,147.326 56.512C148.477 56.463,149.432 55.435,149.432 54.26C149.432 52.987,148.452 51.983,147.179 51.983C145.906 51.983,144.903 52.987,144.903 54.26C144.903 54.26,144.903 54.333,144.903 54.406C144.903 54.872,145.001 56.144,146.274 57.295C147.645 58.568,149.358 58.592,150.141 58.592C153.52 58.592,157.192 57.442,157.192 53.599C157.192 51.028,155.429 49.927,153.887 49.437"/><path stroke="none" d="M150.313 74.48L150.313 77.075L147.376 77.075C147.131 77.075,146.886 77.295,146.886 77.589L146.886 78.25C146.886 78.519,147.131 78.739,147.376 78.739L158.049 78.739C158.343 78.739,158.538 78.519,158.538 78.25L158.538 77.589C158.538 77.295,158.343 77.075,158.049 77.075L154.891 77.075L154.891 74.48L158.049 74.48C158.343 74.48,158.538 74.235,158.538 73.941L158.538 73.28C158.538 73.036,158.343 72.791,158.049 72.791L154.891 72.791L154.891 67.185C154.891 66.964,154.769 66.793,154.646 66.72L154.206 66.499C154.132 66.475,154.108 66.475,154.034 66.475C154.01 66.475,154.01 66.475,153.961 66.475C153.863 66.475,153.716 66.499,153.642 66.573L150.436 69.51C150.338 69.608,150.313 69.755,150.313 69.902L150.313 72.791L146.201 72.791C146.201 72.791,150.166 68.556,154.328 62.974C154.45 62.803,154.499 62.632,154.499 62.485C154.499 62.313,154.426 62.166,154.401 62.142L153.618 61.359C153.52 61.285,153.398 61.212,153.251 61.212C153.055 61.212,148.281 61.212,148.012 61.212C147.767 61.212,147.596 61.432,147.547 61.652C147.547 61.652,147.376 64.247,146.47 67.111C145.54 69.976,144.487 71.738,143.557 73.036C143.557 73.036,143.459 73.207,143.459 73.427C143.459 73.501,143.459 73.55,143.508 73.623C143.606 73.868,143.85 74.26,143.85 74.26C143.85 74.26,143.924 74.48,144.242 74.48"/></g></g><g class="vf-stavenote" id="vf-auto36062"><path stroke-width="1.4" fill="none" stroke="#444" d="M307.937 30L327.079 30"/><g class="vf-stem" id="vf-auto36063" pointer-events="bounding-box"><path stroke-width="1.5" fill="none" d="M323.329 23L323.329 -10"/></g><g class="vf-notehead" id="vf-auto36065" pointer-events="bounding-box"><path stroke="none" d="M310.937 26.685C310.937 28.426,312.201 30.391,315.458 30.391C319.67 30.391,324.079 26.938,324.079 23.371C324.079 20.985,322.057 19.665,319.558 19.665C315.627 19.665,310.937 22.978,310.937 26.685"/><path stroke="none" d="M307.855 21.881C307.636 20.349,306.679 18.899,304.682 18.899C302.712 18.899,301.562 20.103,301.371 20.349L301.535 7.708C301.535 7.38,301.289 7.161,300.961 7.161L300.495 7.161C300.194 7.161,299.948 7.38,299.948 7.708L300.14 31.375C300.14 31.703,300.386 31.922,300.687 31.922C300.769 31.922,300.933 31.895,301.015 31.867C301.179 31.785,303.724 30.527,305.858 28.119C307.363 26.423,307.937 24.48,307.937 22.866C307.937 22.51,307.91 22.209,307.855 21.881M305.147 23.413C305.147 24.015,304.982 25.821,303.998 27.326C303.341 28.338,302 29.405,301.262 30.007L301.371 22.319C301.453 21.963,302.028 20.814,303.614 20.814C305.037 20.814,305.147 22.155,305.147 23.003C305.147 23.194,305.147 23.304,305.147 23.413"/></g></g><g class="vf-stavenote" id="vf-auto36066"><g class="vf-stem" id="vf-auto36067" pointer-events="bounding-box"><path stroke-width="1.5" fill="none" d="M458.614 43L458.614 10"/></g><g class="vf-notehead" id="vf-auto36069" pointer-events="bounding-box"><path stroke="none" d="M446.222 46.685C446.222 48.426,447.486 50.391,450.743 50.391C454.955 50.391,459.364 46.938,459.364 43.371C459.364 40.985,457.342 39.665,454.843 39.665C450.912 39.665,446.222 42.978,446.222 46.685"/><path stroke="none" d="M412.071 67.364C411.883 67.364,411.715 67.514,411.715 67.701L411.715 92.243C411.715 92.43,411.883 92.58,412.071 92.58L413.999 92.58C414.186 92.58,414.354 92.43,414.354 92.243L414.354 67.701C414.354 67.514,414.186 67.364,413.999 67.364M428.619 87.039C428.619 83.688,426.841 81.086,423.303 81.086C422.685 81.086,422.236 81.123,421.169 81.778C421.131 81.666,420.588 80.599,419.69 79.981C420.588 79.345,421.131 78.278,421.169 78.165C422.198 78.783,422.554 78.877,423.714 78.877C426.99 78.877,428.619 75.825,428.619 72.905C428.619 69.142,425.849 67.008,422.573 67.008C420.551 67.008,417.668 67.851,417.668 70.322C417.668 71.651,418.585 72.512,419.914 72.512C421.094 72.512,421.936 71.651,421.936 70.453C421.936 68.974,420.963 68.487,419.671 68.487C420.289 68.057,421.131 67.813,421.955 67.813C424.781 67.813,425.249 70.078,425.249 72.512C425.249 74.59,425.193 77.604,422.816 77.604C420.457 77.604,419.97 75.039,419.914 74.777C419.914 74.74,419.914 74.384,419.54 74.384C419.147 74.384,419.128 74.74,419.128 74.777C418.885 76.256,418.155 78.839,416.657 79.457L416.657 67.701C416.657 67.514,416.507 67.364,416.32 67.364C416.133 67.364,415.983 67.514,415.983 67.701L415.983 92.243C415.983 92.43,416.133 92.58,416.32 92.58C416.507 92.58,416.657 92.43,416.657 92.243L416.657 80.487C418.229 81.123,418.829 83.688,419.128 85.204C419.128 85.223,419.147 85.56,419.54 85.56C419.914 85.56,419.914 85.223,419.914 85.204C419.97 84.905,420.457 82.34,422.816 82.34C425.193 82.34,425.249 85.373,425.249 87.432C425.249 89.865,424.781 92.131,421.955 92.131C421.131 92.131,420.289 91.887,419.671 91.457C419.69 91.457,419.802 91.475,419.97 91.475C421.15 91.475,421.936 90.652,421.936 89.491C421.936 88.312,421.094 87.432,419.914 87.432C418.585 87.432,417.668 88.312,417.668 89.622C417.668 92.112,420.551 92.936,422.573 92.936C425.849 92.936,428.619 90.801,428.619 87.039"/></g></g><g class="vf-stavenote" id="vf-auto36070"><path stroke-width="1.4" fill="none" stroke="#444" d="M37.367 90L56.509 90"/><g class="vf-stem" id="vf-auto36071" pointer-events="bounding-box"><path stroke-width="1.5" fill="none" d="M41.117 92L41.117 125"/></g><g class="vf-notehead" id="vf-auto36073" pointer-events="bounding-box"><path stroke="none" d="M40.367 91.685C40.367 93.426,41.631 95.391,44.888 95.391C49.1 95.391,53.509 91.938,53.509 88.371C53.509 85.985,51.487 84.665,48.988 84.665C45.057 84.665,40.367 87.978,40.367 91.685"/></g></g><g class="vf-stavenote" id="vf-auto36074"><g class="vf-stem" id="vf-auto36075" pointer-events="bounding-box"><path stroke-width="1.5" fill="none" d="M176.402 67L176.402 100"/></g><g class="vf-notehead" id="vf-auto36077" pointer-events="bounding-box"><path stroke="none" d="M175.652 66.685C175.652 68.426,176.916 70.391,180.173 70.391C184.385 70.391,188.794 66.938,188.794 63.371C188.794 60.985,186.772 59.665,184.273 59.665C180.342 59.665,175.652 62.978,175.652 66.685"/></g></g><g class="vf-stavenote" id="vf-auto36078"><g class="vf-stem" id="vf-auto36079" pointer-events="bounding-box"><path stroke-width="1.5" fill="none" d="M311.687 57L311.687 90"/></g><g class="vf-notehead" id="vf-auto36081" pointer-events="bounding-box"><path stroke="none" d="M310.937 56.685C310.937 58.426,312.201 60.391,315.458 60.391C319.67 60.391,324.079 56.938,324.079 53.371C324.079 50.985,322.057 49.665,319.558 49.665C315.627 49.665,310.937 52.978,310.937 56.685"/><path stroke="none" d="M249.083 47.364C248.895 47.364,248.727 47.514,248.727 47.701L248.727 72.243C248.727 72.43,248.895 72.58,249.083 72.58L251.011 72.58C251.198 72.58,251.366 72.43,251.366 72.243L251.366 47.701C251.366 47.514,251.198 47.364,251.011 47.364M265.631 67.039C265.631 63.688,263.853 61.086,260.315 61.086C259.697 61.086,259.248 61.123,258.181 61.778C258.143 61.666,257.6 60.599,256.702 59.981C257.6 59.345,258.143 58.278,258.181 58.165C259.21 58.783,259.566 58.877,260.726 58.877C264.002 58.877,265.631 55.825,265.631 52.905C265.631 49.142,262.861 47.008,259.585 47.008C257.563 47.008,254.68 47.851,254.68 50.322C254.68 51.651,255.597 52.512,256.926 52.512C258.106 52.512,258.948 51.651,258.948 50.453C258.948 48.974,257.975 48.487,256.683 48.487C257.301 48.057,258.143 47.813,258.967 47.813C261.794 47.813,262.262 50.078,262.262 52.512C262.262 54.59,262.205 57.604,259.828 57.604C257.469 57.604,256.982 55.039,256.926 54.777C256.926 54.74,256.926 54.384,256.552 54.384C256.159 54.384,256.14 54.74,256.14 54.777C255.897 56.256,255.167 58.839,253.669 59.457L253.669 47.701C253.669 47.514,253.519 47.364,253.332 47.364C253.145 47.364,252.995 47.514,252.995 47.701L252.995 72.243C252.995 72.43,253.145 72.58,253.332 72.58C253.519 72.58,253.669 72.43,253.669 72.243L253.669 60.487C255.242 61.123,255.841 63.688,256.14 65.204C256.14 65.223,256.159 65.56,256.552 65.56C256.926 65.56,256.926 65.223,256.926 65.204C256.982 64.905,257.469 62.34,259.828 62.34C262.205 62.34,262.262 65.373,262.262 67.432C262.262 69.865,261.794 72.131,258.967 72.131C258.143 72.131,257.301 71.887,256.683 71.457C256.702 71.457,256.814 71.475,256.982 71.475C258.162 71.475,258.948 70.652,258.948 69.491C258.948 68.312,258.106 67.432,256.926 67.432C255.597 67.432,254.68 68.312,254.68 69.622C254.68 72.112,257.563 72.936,259.585 72.936C262.861 72.936,265.631 70.801,265.631 67.039"/><path stroke="none" d="M273.2 51.665C275.355 51.665,276.138 51.028,276.628 50.49C276.725 51.224,276.799 51.787,276.799 52.35C276.799 52.938,276.725 53.427,276.628 54.064C276.407 55.361,275.526 56.977,273.616 56.977C272.735 56.977,272.221 56.708,271.854 56.316C272.613 55.998,273.2 55.043,273.2 54.235C273.2 52.962,272.221 51.983,270.948 51.983C269.675 51.983,268.647 52.962,268.647 54.235L268.647 54.308C268.647 54.308,268.647 54.308,268.647 54.333C268.647 54.651,268.72 55.19,268.867 55.459C269.332 56.732,270.801 58.592,274.326 58.592C277.509 58.592,279.785 55.581,280.495 53.941C280.863 53.109,281.377 51.371,281.377 49.412C281.377 47.258,280.789 44.81,278.708 42.974C276.652 41.432,275.355 41.359,274.131 41.359C272.882 41.359,268.28 42.803,268.28 46.891C268.28 50.343,270.973 51.665,273.2 51.665M274.498 42.803C275.673 42.803,276.628 44.419,276.628 46.401C276.628 48.384,275.673 49.976,274.498 49.976C273.347 49.976,272.368 48.384,272.368 46.401C272.368 44.419,273.347 42.803,274.498 42.803"/><path stroke="none" d="M279.063 69.364C280.214 68.482,281.022 67.356,281.022 65.936C281.022 63.415,278.231 61.334,274.828 61.334C271.401 61.334,268.61 63.415,268.61 65.936C268.61 67.356,268.978 68.629,270.618 69.682C269.051 70.588,268.17 71.909,268.17 73.599C268.17 76.463,271.156 78.739,274.828 78.739C278.5 78.739,281.487 76.463,281.487 73.599C281.487 71.909,280.875 70.318,279.063 69.364M274.828 76.756C272.576 76.756,270.618 75.532,270.618 73.55C270.618 71.2,272.454 70.636,272.454 70.636C274.853 71.444,278.28 72.644,278.28 74.578C278.28 75.532,277.031 76.756,274.828 76.756M277.08 68.409C274.681 67.65,272.038 66.475,272.038 64.884C272.038 63.513,273.31 62.95,274.828 62.95C277.007 62.95,278.5 63.978,278.5 65.594C278.5 67.283,277.717 68.091,277.08 68.409"/><g class="vf-stavebarline" id="vf-auto36119"><rect x="279.948" y="39.5" width="1" height="41" stroke="none"/><rect x="282.948" y="39.5" width="1" height="41" stroke="none"/></g></g></g><g class="vf-stavenote" id="vf-auto36082"><g class="vf-stem" id="vf-auto36083" pointer-events="bounding-box"><path stroke-width="1.5" fill="none" d="M446.972 67L446.972 100"/></g><g class="vf-notehead" id="vf-auto36085" pointer-events="bounding-box"><path stroke="none" d="M446.222 66.685C446.222 68.426,447.486 70.391,450.743 70.391C454.955 70.391,459.364 66.938,459.364 63.371C459.364 60.985,457.342 59.665,454.843 59.665C450.912 59.665,446.222 62.978,446.222 66.685"/><path stroke="none" d="M442.812 60.869C443.031 60.814,443.222 60.54,443.222 60.321L443.222 57.996C443.222 57.668,443.004 57.449,442.675 57.449C442.648 57.449,442.648 57.449,442.593 57.449L441.307 57.722L441.307 51.84L440.185 51.84L440.185 57.941L436.683 58.652L436.683 53.098L435.589 53.098L435.589 58.899L434.057 59.2C433.811 59.254,433.619 59.528,433.619 59.747L433.619 59.829L433.619 62.127L433.619 62.045C433.619 62.373,433.865 62.592,434.166 62.592C434.221 62.592,434.248 62.592,434.276 62.592L435.589 62.319L435.589 68.83L434.057 69.131C433.811 69.186,433.619 69.46,433.619 69.679L433.619 71.977C433.619 72.278,433.865 72.524,434.166 72.524C434.221 72.524,434.248 72.524,434.276 72.524L435.589 72.25L435.589 78.133L436.683 78.133L436.683 72.004L440.185 71.293L440.185 76.847L441.307 76.847L441.307 71.074L442.812 70.8C443.031 70.746,443.222 70.472,443.222 70.253L443.222 67.928C443.222 67.599,443.004 67.353,442.675 67.353C442.648 67.353,442.648 67.353,442.593 67.353L441.307 67.627L441.307 61.142M436.683 62.072L440.185 61.388L440.185 67.873L436.683 68.612"/></g></g><text stroke="none" font-size="8pt" x="40.367" y="150">15px</text><path stroke-width="3" fill="none" stroke="red" d="M40.367 157L40.367 157"/><path stroke-width="3" fill="none" stroke="#999" d="M40.367 157L40.367 157"/><path stroke-width="3" fill="none" stroke="green" d="M40.367 157L55.509 157"/><path stroke-width="3" fill="none" stroke="#999" d="M55.509 157L55.509 157"/><path stroke-width="3" fill="none" stroke="red" d="M55.509 157L55.509 157"/><path stroke-width="3" fill="none" stroke="#DD0" d="M55.509 157L107.073 157"/><path stroke-width="3" fill="none" stroke="#BBB" d="M40.367 157L40.367 157"/><path stroke-width="3" fill="blue" stroke="none" d="M43.367 157 A3 3 0 0 0 37.367 157 A3 3 0 0 0 43.367 157Z"/><text stroke-width="3" fill="red" stroke="none" font-size="8pt" x="40.367" y="140">+27</text><text stroke="none" font-size="8pt" x="107.073" y="150">82px</text><path stroke-width="3" fill="none" stroke="red" d="M107.073 157L175.652 157"/><path stroke-width="3" fill="none" stroke="#999" d="M175.652 157L175.652 157"/><path stroke-width="3" fill="none" stroke="green" d="M175.652 157L188.794 157"/><path stroke-width="3" fill="none" stroke="#999" d="M188.794 157L188.794 157"/><path stroke-width="3" fill="none" stroke="red" d="M188.794 157L188.794 157"/><path stroke-width="3" fill="none" stroke="#DD0" d="M188.794 157L248.727 157"/><path stroke-width="3" fill="none" stroke="#BBB" d="M107.073 157L107.073 157"/><path stroke-width="3" fill="blue" stroke="none" d="M178.652 157 A3 3 0 0 0 172.652 157 A3 3 0 0 0 178.652 157Z"/><text stroke-width="3" fill="red" stroke="none" font-size="8pt" x="175.652" y="140">+27</text><text stroke="none" font-size="8pt" x="248.727" y="150">75px</text><path stroke-width="3" fill="none" stroke="red" d="M248.727 157L310.937 157"/><path stroke-width="3" fill="none" stroke="#999" d="M310.937 157L310.937 157"/><path stroke-width="3" fill="none" stroke="green" d="M310.937 157L324.079 157"/><path stroke-width="3" fill="none" stroke="#999" d="M324.079 157L324.079 157"/><path stroke-width="3" fill="none" stroke="red" d="M324.079 157L324.079 157"/><path stroke-width="3" fill="none" stroke="#DD0" d="M324.079 157L411.715 157"/><path stroke-width="3" fill="none" stroke="#BBB" d="M248.727 157L248.727 157"/><path stroke-width="3" fill="blue" stroke="none" d="M313.937 157 A3 3 0 0 0 307.937 157 A3 3 0 0 0 313.937 157Z"/><text stroke-width="3" fill="red" stroke="none" font-size="8pt" x="310.937" y="140">+27</text><text stroke="none" font-size="8pt" x="411.715" y="150">48px</text><path stroke-width="3" fill="none" stroke="red" d="M411.715 157L446.222 157"/><path stroke-width="3" fill="none" stroke="#999" d="M446.222 157L446.222 157"/><path stroke-width="3" fill="none" stroke="green" d="M446.222 157L459.364 157"/><path stroke-width="3" fill="none" stroke="#999" d="M459.364 157L459.364 157"/><path stroke-width="3" fill="none" stroke="red" d="M459.364 157L459.364 157"/><path stroke-width="3" fill="none" stroke="#DD0" d="M459.364 157L530 157"/><path stroke-width="3" fill="none" stroke="#BBB" d="M411.715 157L411.715 157"/><path stroke-width="3" fill="blue" stroke="none" d="M449.222 157 A3 3 0 0 0 443.222 157 A3 3 0 0 0 449.222 157Z"/><text stroke-width="3" fill="red" stroke="none" font-size="8pt" x="446.222" y="140">-24</text></svg>