<svg xmlns="http://www.w3.org/2000/svg" stroke-width="0.3" stroke-dasharray="none" fill="black" stroke="black" font-family="Arial, sans-serif" font-size="10pt" font-weight="normal" font-style="normal" width="450" height="140" viewBox="0 0 450 140" style="width: 450px; height: 140px; border: none;"><g class="vf-stave" id="vf-auto1312" stroke-width="1" fill="#999999" stroke="#999999"><path fill="none" d="M0 40L440 40"/><path fill="none" d="M0 50L440 50"/><path fill="none" d="M0 60L440 60"/><path fill="none" d="M0 70L440 70"/><path fill="none" d="M0 80L440 80"/></g><g class="vf-stavebarline" id="vf-auto1313"><rect y="39.5" width="1" height="41" stroke="none"/></g><g class="vf-stavebarline" id="vf-auto1314"><rect x="440" y="39.5" width="1" height="41" stroke="none"/></g><g class="vf-stavenote" id="vf-auto1315"><g class="vf-notehead" id="vf-auto1388" pointer-events="bounding-box"><path stroke="none" d="M23.145 46.543C23.426 46.599,23.678 46.627,23.959 46.627C27.834 46.627,33.619 41.348,33.506 37.08C33.394 36.041,33.422 34.609,31.316 33.766C30.727 33.485,30.081 33.373,29.379 33.373C25.054 33.373,20.365 38.343,20.028 41.657C20.028 41.909,20 42.134,20 42.387C20 44.409,20.899 46.037,23.145 46.543"/></g></g><g class="vf-stavenote" id="vf-auto1321"><g class="vf-notehead" id="vf-auto1390" pointer-events="bounding-box"><path stroke="none" d="M60.674 51.543C60.955 51.599,61.208 51.627,61.488 51.627C65.363 51.627,71.148 46.348,71.036 42.08C70.923 41.041,70.951 39.609,68.845 38.766C68.256 38.485,67.61 38.373,66.908 38.373C62.583 38.373,57.894 43.343,57.557 46.657C57.557 46.909,57.529 47.134,57.529 47.387C57.529 49.409,58.428 51.037,60.674 51.543"/></g></g><g class="vf-stavenote" id="vf-auto1327"><g class="vf-notehead" id="vf-auto1392" pointer-events="bounding-box"><path stroke="none" d="M98.203 56.543C98.484 56.599,98.737 56.627,99.017 56.627C102.892 56.627,108.677 51.348,108.565 47.08C108.452 46.041,108.48 44.609,106.374 43.766C105.785 43.485,105.139 43.373,104.437 43.373C100.112 43.373,95.423 48.343,95.086 51.657C95.086 51.909,95.058 52.134,95.058 52.387C95.058 54.409,95.957 56.037,98.203 56.543"/></g></g><g class="vf-stavenote" id="vf-auto1333"><g class="vf-notehead" id="vf-auto1394" pointer-events="bounding-box"><path stroke="none" d="M135.732 61.543C136.013 61.599,136.266 61.627,136.546 61.627C140.421 61.627,146.206 56.348,146.094 52.08C145.981 51.041,146.009 49.609,143.903 48.766C143.314 48.485,142.668 48.373,141.966 48.373C137.642 48.373,132.952 53.343,132.615 56.657C132.615 56.909,132.587 57.134,132.587 57.387C132.587 59.409,133.486 61.037,135.732 61.543"/></g></g><g class="vf-stavenote" id="vf-auto1339"><g class="vf-notehead" id="vf-auto1396" pointer-events="bounding-box"><path stroke="none" d="M168.231 61.543C168.512 61.599,168.764 61.627,169.045 61.627C172.92 61.627,178.705 56.348,178.592 52.08C178.48 51.041,178.508 49.609,176.402 48.766C175.813 48.485,175.167 48.373,174.465 48.373C170.14 48.373,165.451 53.343,165.114 56.657C165.114 56.909,165.086 57.134,165.086 57.387C165.086 59.409,165.985 61.037,168.231 61.543"/></g></g><g class="vf-stavenote" id="vf-auto1345"><g class="vf-notehead" id="vf-auto1398" pointer-events="bounding-box"><path stroke="none" d="M200.73 56.543C201.011 56.599,201.263 56.627,201.544 56.627C205.419 56.627,211.204 51.348,211.091 47.08C210.979 46.041,211.007 44.609,208.901 43.766C208.311 43.485,207.665 43.373,206.963 43.373C202.639 43.373,197.95 48.343,197.613 51.657C197.613 51.909,197.585 52.134,197.585 52.387C197.585 54.409,198.483 56.037,200.73 56.543"/></g></g><g class="vf-stavenote" id="vf-auto1351"><g class="vf-notehead" id="vf-auto1400" pointer-events="bounding-box"><path stroke="none" d="M238.259 51.543C238.54 51.599,238.792 51.627,239.073 51.627C242.948 51.627,248.733 46.348,248.62 42.08C248.508 41.041,248.536 39.609,246.43 38.766C245.84 38.485,245.195 38.373,244.493 38.373C240.168 38.373,235.479 43.343,235.142 46.657C235.142 46.909,235.114 47.134,235.114 47.387C235.114 49.409,236.012 51.037,238.259 51.543"/></g></g><g class="vf-stavenote" id="vf-auto1357"><g class="vf-notehead" id="vf-auto1402" pointer-events="bounding-box"><path stroke="none" d="M275.788 46.543C276.069 46.599,276.321 46.627,276.602 46.627C280.477 46.627,286.262 41.348,286.149 37.08C286.037 36.041,286.065 34.609,283.959 33.766C283.369 33.485,282.724 33.373,282.022 33.373C277.697 33.373,273.008 38.343,272.671 41.657C272.671 41.909,272.643 42.134,272.643 42.387C272.643 44.409,273.541 46.037,275.788 46.543"/></g></g><g class="vf-stavenote" id="vf-auto1363"><g class="vf-notehead" id="vf-auto1404" pointer-events="bounding-box"><path stroke="none" d="M313.317 46.543C313.598 46.599,313.85 46.627,314.131 46.627C318.006 46.627,323.791 41.348,323.678 37.08C323.566 36.041,323.594 34.609,321.488 33.766C320.898 33.485,320.253 33.373,319.551 33.373C315.226 33.373,310.537 38.343,310.2 41.657C310.2 41.909,310.172 42.134,310.172 42.387C310.172 44.409,311.07 46.037,313.317 46.543"/></g></g><g class="vf-stavenote" id="vf-auto1369"><g class="vf-notehead" id="vf-auto1406" pointer-events="bounding-box"><path stroke="none" d="M343.559 46.543C343.84 46.599,344.093 46.627,344.374 46.627C348.249 46.627,354.033 41.348,353.921 37.08C353.809 36.041,353.837 34.609,351.731 33.766C351.141 33.485,350.495 33.373,349.793 33.373C345.469 33.373,340.779 38.343,340.442 41.657C340.442 41.909,340.414 42.134,340.414 42.387C340.414 44.409,341.313 46.037,343.559 46.543"/></g></g><g class="vf-stavenote" id="vf-auto1375"><g class="vf-notehead" id="vf-auto1408" pointer-events="bounding-box"><path stroke="none" d="M373.802 46.543C374.083 46.599,374.335 46.627,374.616 46.627C378.491 46.627,384.276 41.348,384.163 37.08C384.051 36.041,384.079 34.609,381.973 33.766C381.383 33.485,380.738 33.373,380.036 33.373C375.711 33.373,371.022 38.343,370.685 41.657C370.685 41.909,370.657 42.134,370.657 42.387C370.657 44.409,371.555 46.037,373.802 46.543"/></g></g><g class="vf-stavenote" id="vf-auto1381"><g class="vf-notehead" id="vf-auto1410" pointer-events="bounding-box"><path stroke="none" d="M404.044 46.543C404.325 46.599,404.578 46.627,404.859 46.627C408.734 46.627,414.518 41.348,414.406 37.08C414.294 36.041,414.322 34.609,412.216 33.766C411.626 33.485,410.98 33.373,410.278 33.373C405.954 33.373,401.264 38.343,400.927 41.657C400.927 41.909,400.899 42.134,400.899 42.387C400.899 44.409,401.798 46.037,404.044 46.543"/></g></g><g class="vf-stem" id="vf-auto1316" pointer-events="bounding-box"><path stroke-width="1.5" fill="none" d="M20.75 42L20.75 76.435"/></g><g class="vf-stem" id="vf-auto1322" pointer-events="bounding-box"><path stroke-width="1.5" fill="none" d="M58.279 47L58.279 79.25"/></g><g class="vf-beam" id="vf-auto1412"><path stroke="none" d="M20 77.129L20 72.129L58.529 74.944L58.529 79.944Z"/></g><g class="vf-stem" id="vf-auto1328" pointer-events="bounding-box"><path stroke-width="1.5" fill="none" d="M95.808 52L95.808 88.312"/></g><g class="vf-stem" id="vf-auto1334" pointer-events="bounding-box"><path stroke-width="1.5" fill="none" d="M133.337 57L133.337 89.25"/></g><g class="vf-stem" id="vf-auto1340" pointer-events="bounding-box"><path stroke-width="1.5" fill="none" d="M165.836 57L165.836 90.062"/></g><g class="vf-beam" id="vf-auto1413"><path stroke="none" d="M95.058 89.043L95.058 84.043L166.086 85.794L166.086 90.794Z"/><path stroke="none" d="M132.587 82.481L132.587 77.481L166.086 78.294L166.086 83.294Z"/></g><g class="vf-stem" id="vf-auto1346" pointer-events="bounding-box"><path stroke-width="1.5" fill="none" d="M198.335 52L198.335 84.25"/></g><g class="vf-stem" id="vf-auto1352" pointer-events="bounding-box"><path stroke-width="1.5" fill="none" d="M235.864 47L235.864 81.435"/></g><g class="vf-beam" id="vf-auto1414"><path stroke="none" d="M197.585 85.056L197.585 80.056L236.114 77.242L236.114 82.242Z"/></g><g class="vf-stem" id="vf-auto1358" pointer-events="bounding-box"><path stroke-width="1.5" fill="none" d="M273.393 42L273.393 81.75"/></g><g class="vf-stem" id="vf-auto1364" pointer-events="bounding-box"><path stroke-width="1.5" fill="none" d="M310.922 42L310.922 81.75"/></g><g class="vf-stem" id="vf-auto1370" pointer-events="bounding-box"><path stroke-width="1.5" fill="none" d="M341.164 42L341.164 81.75"/></g><g class="vf-stem" id="vf-auto1376" pointer-events="bounding-box"><path stroke-width="1.5" fill="none" d="M371.407 42L371.407 81.75"/></g><g class="vf-stem" id="vf-auto1382" pointer-events="bounding-box"><path stroke-width="1.5" fill="none" d="M401.649 42L401.649 81.75"/></g><g class="vf-beam" id="vf-auto1415"><path stroke="none" d="M272.643 82.5L272.643 77.5L401.899 77.5L401.899 82.5Z"/><path stroke="none" d="M310.172 75L310.172 70L401.899 70L401.899 75Z"/><path stroke="none" d="M310.172 67.5L310.172 62.5L401.899 62.5L401.899 67.5Z"/></g></svg>