<svg xmlns="http://www.w3.org/2000/svg" stroke-width="0.3" stroke-dasharray="none" fill="black" stroke="black" font-family="Arial, sans-serif" font-size="10pt" font-weight="normal" font-style="normal" width="300" height="140" viewBox="0 0 300 140" style="width: 300px; height: 140px; border: none;"><g class="vf-stave" id="vf-auto17799" stroke-width="1" fill="#999999" stroke="#999999"><path fill="none" d="M0 40L290 40"/><path fill="none" d="M0 50L290 50"/><path fill="none" d="M0 60L290 60"/><path fill="none" d="M0 70L290 70"/><path fill="none" d="M0 80L290 80"/></g><g class="vf-stavebarline" id="vf-auto17800"><rect y="39.5" width="1" height="41" stroke="none"/></g><g class="vf-stavebarline" id="vf-auto17801"><rect x="290" y="39.5" width="1" height="41" stroke="none"/></g><g class="vf-stavenote" id="vf-auto17802"><g class="vf-stem" id="vf-auto17803" pointer-events="bounding-box"><path stroke-width="1.5" fill="none" d="M29.391 82.45L29.391 40"/></g><g class="vf-notehead" id="vf-auto17810" pointer-events="bounding-box"><path stroke="none" d="M25.621 79.665C21.689 79.665,17 82.95,17 86.685C17 88.426,18.264 90.391,21.521 90.391C25.733 90.391,30.141 86.938,30.141 83.371C30.141 80.985,28.12 79.665,25.621 79.665M24.525 86.769C24.413 86.853,21.437 88.482,20.033 88.482C18.685 88.482,18.404 87.387,18.404 87.022C18.404 85.337,22.448 83.343,22.616 83.259C22.784 83.175,25.649 81.574,27.109 81.574C28.092 81.574,28.737 82.136,28.737 83.006C28.737 84.747,24.638 86.685,24.525 86.769"/></g><g class="vf-notehead" id="vf-auto17811" pointer-events="bounding-box"><path stroke="none" d="M38.012 74.665C34.081 74.665,29.391 77.95,29.391 81.685C29.391 83.426,30.655 85.391,33.912 85.391C38.124 85.391,42.533 81.938,42.533 78.371C42.533 75.985,40.511 74.665,38.012 74.665M36.917 81.769C36.805 81.853,33.828 83.482,32.424 83.482C31.076 83.482,30.795 82.387,30.795 82.022C30.795 80.337,34.839 78.343,35.007 78.259C35.176 78.175,38.04 76.574,39.5 76.574C40.483 76.574,41.129 77.136,41.129 78.006C41.129 79.747,37.029 81.685,36.917 81.769"/></g><g class="vf-notehead" id="vf-auto17812" pointer-events="bounding-box"><path stroke="none" d="M25.621 69.665C21.689 69.665,17 72.95,17 76.685C17 78.426,18.264 80.391,21.521 80.391C25.733 80.391,30.141 76.938,30.141 73.371C30.141 70.985,28.12 69.665,25.621 69.665M24.525 76.769C24.413 76.853,21.437 78.482,20.033 78.482C18.685 78.482,18.404 77.387,18.404 77.022C18.404 75.337,22.448 73.343,22.616 73.259C22.784 73.175,25.649 71.574,27.109 71.574C28.092 71.574,28.737 72.136,28.737 73.006C28.737 74.747,24.638 76.685,24.525 76.769"/></g></g><g class="vf-stavenote" id="vf-auto17813"><path stroke-width="1.4" fill="none" stroke="#444" d="M138.929 90L158.071 90"/><g class="vf-stem" id="vf-auto17814" pointer-events="bounding-box"><path stroke-width="1.5" fill="none" d="M154.321 87.45L154.321 30"/></g><g class="vf-notehead" id="vf-auto17821" pointer-events="bounding-box"><path stroke="none" d="M150.55 84.665C146.619 84.665,141.929 87.95,141.929 91.685C141.929 93.426,143.193 95.391,146.45 95.391C150.662 95.391,155.071 91.938,155.071 88.371C155.071 85.985,153.049 84.665,150.55 84.665M149.455 91.769C149.342 91.853,146.366 93.482,144.962 93.482C143.614 93.482,143.333 92.387,143.333 92.022C143.333 90.337,147.377 88.343,147.545 88.259C147.714 88.175,150.578 86.574,152.038 86.574C153.021 86.574,153.667 87.136,153.667 88.006C153.667 89.747,149.567 91.685,149.455 91.769"/><path stroke="none" d="M126.134 82.777C126.052 82.722,125.943 82.668,125.833 82.668C125.779 82.668,125.697 82.722,125.669 82.722L120.69 84.09L120.69 77.196L119.595 77.196L119.595 96.703C119.595 97.004,119.842 97.223,120.143 97.223C120.197 97.223,120.252 97.223,120.307 97.223L125.259 95.828L125.259 102.722L126.326 102.722C126.326 96.183,126.326 89.973,126.326 83.215C126.326 83.078,126.244 82.859,126.134 82.777M120.69 93.83L120.69 87.373L125.259 86.06L125.259 92.572"/></g><g class="vf-notehead" id="vf-auto17822" pointer-events="bounding-box"><path stroke="none" d="M150.55 69.665C146.619 69.665,141.929 72.95,141.929 76.685C141.929 78.426,143.193 80.391,146.45 80.391C150.662 80.391,155.071 76.938,155.071 73.371C155.071 70.985,153.049 69.665,150.55 69.665M149.455 76.769C149.342 76.853,146.366 78.482,144.962 78.482C143.614 78.482,143.333 77.387,143.333 77.022C143.333 75.337,147.377 73.343,147.545 73.259C147.714 73.175,150.578 71.574,152.038 71.574C153.021 71.574,153.667 72.136,153.667 73.006C153.667 74.747,149.567 76.685,149.455 76.769"/><path stroke="none" d="M138.519 70.869C138.738 70.814,138.929 70.54,138.929 70.321L138.929 67.996C138.929 67.668,138.71 67.449,138.382 67.449C138.355 67.449,138.355 67.449,138.3 67.449L137.014 67.722L137.014 61.84L135.892 61.84L135.892 67.941L132.39 68.652L132.39 63.098L131.296 63.098L131.296 68.899L129.764 69.2C129.517 69.254,129.326 69.528,129.326 69.747L129.326 69.829L129.326 72.127L129.326 72.045C129.326 72.373,129.572 72.592,129.873 72.592C129.928 72.592,129.955 72.592,129.983 72.592L131.296 72.319L131.296 78.83L129.764 79.131C129.517 79.186,129.326 79.46,129.326 79.679L129.326 81.977C129.326 82.278,129.572 82.524,129.873 82.524C129.928 82.524,129.955 82.524,129.983 82.524L131.296 82.25L131.296 88.133L132.39 88.133L132.39 82.004L135.892 81.293L135.892 86.847L137.014 86.847L137.014 81.074L138.519 80.8C138.738 80.746,138.929 80.472,138.929 80.253L138.929 77.928C138.929 77.599,138.71 77.353,138.382 77.353C138.355 77.353,138.355 77.353,138.3 77.353L137.014 77.627L137.014 71.142M132.39 72.072L135.892 71.388L135.892 77.873L132.39 78.612"/></g><g class="vf-notehead" id="vf-auto17823" pointer-events="bounding-box"><path stroke="none" d="M150.55 59.665C146.619 59.665,141.929 62.95,141.929 66.685C141.929 68.426,143.193 70.391,146.45 70.391C150.662 70.391,155.071 66.938,155.071 63.371C155.071 60.985,153.049 59.665,150.55 59.665M149.455 66.769C149.342 66.853,146.366 68.482,144.962 68.482C143.614 68.482,143.333 67.387,143.333 67.022C143.333 65.337,147.377 63.343,147.545 63.259C147.714 63.175,150.578 61.574,152.038 61.574C153.021 61.574,153.667 62.136,153.667 63.006C153.667 64.747,149.567 66.685,149.455 66.769"/></g></g><g class="vf-stavetie" id="vf-auto17829"><path stroke="none" d="M43.283 92Q92.606 102.5,141.929 97Q92.606 106.5,43.283 92Z"/><path stroke="none" d="M43.283 87Q92.606 92.5,141.929 82Q92.606 96.5,43.283 87Z"/><path stroke="none" d="M43.283 82Q92.606 85,141.929 72Q92.606 89,43.283 82Z"/></g></svg>