<svg xmlns="http://www.w3.org/2000/svg" stroke-width="0.3" stroke-dasharray="none" fill="black" stroke="black" font-family="Arial, sans-serif" font-size="10pt" font-weight="normal" font-style="normal" width="975" height="650" viewBox="0 0 650 433.3333333333333" style="width: 975px; height: 650px; border: none;"><g class="vf-stave" id="vf-auto23869" stroke-width="1" fill="#999999" stroke="#999999"><path fill="none" d="M10 80L460 80"/><path fill="none" d="M10 90L460 90"/><path fill="none" d="M10 100L460 100"/><path fill="none" d="M10 110L460 110"/><path fill="none" d="M10 120L460 120"/></g><g class="vf-stavebarline" id="vf-auto23870"><rect x="10" y="79.5" width="1" height="41" stroke="none"/></g><g class="vf-stavebarline" id="vf-auto23871"><rect x="460" y="79.5" width="1" height="41" stroke="none"/></g><g class="vf-clef" id="vf-auto23872"><path stroke="none" d="M23.693 131.402C23.87 131.402,24.048 131.377,24.276 131.301C24.707 131.148,25.062 130.92,25.366 130.591C28.382 127.423,29.623 123.596,29.75 119.313C29.75 118.983,29.776 118.451,29.776 118.451C29.776 118.451,30.282 118.147,30.511 118.071C31.727 117.488,32.893 116.829,33.932 115.993C36.72 113.762,38.316 110.747,39.051 107.376C39.204 106.844,39.229 106.286,39.229 105.779C39.229 103.473,37.962 101.8,35.047 101.268C34.312 101.116,33.577 101.04,32.842 101.04C31.017 101.04,29.269 101.521,27.621 102.484C27.419 102.611,27.19 102.763,27.19 102.763L26.253 99.215C26.202 99.038,26.202 98.708,26.202 98.708C26.202 98.708,29.928 92.093,30.434 88.697C30.612 87.709,30.688 86.72,30.688 85.757C30.688 84.972,30.663 84.237,30.536 83.527C30.181 80.891,29.193 78.408,28.534 75.848C28.356 75.088,28.103 74.175,27.216 74.175C26.557 74.175,26.101 74.809,25.695 75.341C23.82 77.926,22.907 80.891,22.73 84.059C22.705 84.566,22.705 85.098,22.705 85.605C22.705 88.545,23.186 91.51,23.566 94.425C23.566 94.653,23.642 94.881,23.693 95.059C22.046 97.39,20.221 99.57,18.65 101.978C17.56 103.701,16.343 105.424,15.583 107.35C15.177 108.288,15 109.403,15 110.493C15 112.749,15.76 115.055,17.078 116.322C17.839 117.057,19.055 117.868,20.246 118.299C21.944 118.907,23.617 119.313,25.391 119.313C25.923 119.313,26.455 119.287,27.013 119.211L27.444 119.135C27.444 119.135,27.469 119.465,27.444 119.642C27.038 121.847,26.506 124.001,25.188 125.826C24.479 126.764,23.82 127.828,22.451 127.93C22.046 127.98,21.868 128.234,21.868 128.563C21.868 128.69,21.894 128.817,21.944 128.944C22.147 129.501,22.4 130.084,22.654 130.642C22.882 131.148,23.237 131.402,23.693 131.402M25.138 92.828C24.859 91.08,24.681 89.356,24.681 87.633C24.681 84.465,25.34 81.373,27.19 78.408C27.621 79.751,27.849 81.119,27.849 82.488C27.849 83.198,27.773 83.933,27.672 84.642C27.19 87.506,26.532 90.269,25.138 92.828M21.387 114.421C20.88 114.396,20.449 114.219,19.967 114.067C19.004 113.737,18.219 113.382,17.965 112.749C17.839 112.47,17.813 112.14,17.813 111.811C17.813 111.406,17.889 110.975,17.965 110.518C17.991 110.316,18.219 109.682,18.295 109.581C19.714 107.046,21.412 104.765,23.211 102.459L24.732 100.457L25.011 101.268C25.29 102.18,25.543 103.625,25.543 103.625C25.543 103.625,24.529 104.943,23.87 105.602C22.046 107.376,21.159 109.606,21.159 112.064C21.159 112.673,21.235 113.306,21.361 113.965C21.387 114.092,21.387 114.219,21.387 114.421M29.269 113.306C28.99 110.924,28.432 109.023,27.925 106.742C27.875 106.463,27.875 106.286,28.001 106.134C28.939 105.957,29.852 105.881,30.815 105.881C31.727 105.881,32.589 105.957,33.501 106.134C34.591 106.362,35.681 106.539,36.542 107.426C36.593 107.503,36.669 107.579,36.745 107.604C35.301 110.518,33.146 112.723,30.08 114.067L29.421 114.32M25.391 115.055C24.124 115.055,22.882 114.726,22.882 114.726C22.882 114.726,22.781 114.219,22.781 113.484C22.781 113.002,22.806 112.419,22.958 111.836C23.313 110.088,24.555 108.846,25.873 107.68C25.974 107.579,26.101 107.503,26.177 107.503C26.303 107.503,26.354 107.655,26.379 107.908C26.709 110.062,27.266 112.166,27.419 114.32C27.444 114.548,27.419 114.878,27.419 114.878C27.419 114.878,26.455 115.131,25.391 115.055"/></g><g class="vf-stave" id="vf-auto23869" stroke-width="1" fill="#999999" stroke="#999999"><path fill="none" d="M10 80L460 80"/><path fill="none" d="M10 90L460 90"/><path fill="none" d="M10 100L460 100"/><path fill="none" d="M10 110L460 110"/><path fill="none" d="M10 120L460 120"/></g><g class="vf-stavebarline" id="vf-auto23870"><rect x="10" y="79.5" width="1" height="41" stroke="none"/></g><g class="vf-stavebarline" id="vf-auto23871"><rect x="460" y="79.5" width="1" height="41" stroke="none"/></g><g class="vf-clef" id="vf-auto23872"><path stroke="none" d="M23.693 131.402C23.87 131.402,24.048 131.377,24.276 131.301C24.707 131.148,25.062 130.92,25.366 130.591C28.382 127.423,29.623 123.596,29.75 119.313C29.75 118.983,29.776 118.451,29.776 118.451C29.776 118.451,30.282 118.147,30.511 118.071C31.727 117.488,32.893 116.829,33.932 115.993C36.72 113.762,38.316 110.747,39.051 107.376C39.204 106.844,39.229 106.286,39.229 105.779C39.229 103.473,37.962 101.8,35.047 101.268C34.312 101.116,33.577 101.04,32.842 101.04C31.017 101.04,29.269 101.521,27.621 102.484C27.419 102.611,27.19 102.763,27.19 102.763L26.253 99.215C26.202 99.038,26.202 98.708,26.202 98.708C26.202 98.708,29.928 92.093,30.434 88.697C30.612 87.709,30.688 86.72,30.688 85.757C30.688 84.972,30.663 84.237,30.536 83.527C30.181 80.891,29.193 78.408,28.534 75.848C28.356 75.088,28.103 74.175,27.216 74.175C26.557 74.175,26.101 74.809,25.695 75.341C23.82 77.926,22.907 80.891,22.73 84.059C22.705 84.566,22.705 85.098,22.705 85.605C22.705 88.545,23.186 91.51,23.566 94.425C23.566 94.653,23.642 94.881,23.693 95.059C22.046 97.39,20.221 99.57,18.65 101.978C17.56 103.701,16.343 105.424,15.583 107.35C15.177 108.288,15 109.403,15 110.493C15 112.749,15.76 115.055,17.078 116.322C17.839 117.057,19.055 117.868,20.246 118.299C21.944 118.907,23.617 119.313,25.391 119.313C25.923 119.313,26.455 119.287,27.013 119.211L27.444 119.135C27.444 119.135,27.469 119.465,27.444 119.642C27.038 121.847,26.506 124.001,25.188 125.826C24.479 126.764,23.82 127.828,22.451 127.93C22.046 127.98,21.868 128.234,21.868 128.563C21.868 128.69,21.894 128.817,21.944 128.944C22.147 129.501,22.4 130.084,22.654 130.642C22.882 131.148,23.237 131.402,23.693 131.402M25.138 92.828C24.859 91.08,24.681 89.356,24.681 87.633C24.681 84.465,25.34 81.373,27.19 78.408C27.621 79.751,27.849 81.119,27.849 82.488C27.849 83.198,27.773 83.933,27.672 84.642C27.19 87.506,26.532 90.269,25.138 92.828M21.387 114.421C20.88 114.396,20.449 114.219,19.967 114.067C19.004 113.737,18.219 113.382,17.965 112.749C17.839 112.47,17.813 112.14,17.813 111.811C17.813 111.406,17.889 110.975,17.965 110.518C17.991 110.316,18.219 109.682,18.295 109.581C19.714 107.046,21.412 104.765,23.211 102.459L24.732 100.457L25.011 101.268C25.29 102.18,25.543 103.625,25.543 103.625C25.543 103.625,24.529 104.943,23.87 105.602C22.046 107.376,21.159 109.606,21.159 112.064C21.159 112.673,21.235 113.306,21.361 113.965C21.387 114.092,21.387 114.219,21.387 114.421M29.269 113.306C28.99 110.924,28.432 109.023,27.925 106.742C27.875 106.463,27.875 106.286,28.001 106.134C28.939 105.957,29.852 105.881,30.815 105.881C31.727 105.881,32.589 105.957,33.501 106.134C34.591 106.362,35.681 106.539,36.542 107.426C36.593 107.503,36.669 107.579,36.745 107.604C35.301 110.518,33.146 112.723,30.08 114.067L29.421 114.32M25.391 115.055C24.124 115.055,22.882 114.726,22.882 114.726C22.882 114.726,22.781 114.219,22.781 113.484C22.781 113.002,22.806 112.419,22.958 111.836C23.313 110.088,24.555 108.846,25.873 107.68C25.974 107.579,26.101 107.503,26.177 107.503C26.303 107.503,26.354 107.655,26.379 107.908C26.709 110.062,27.266 112.166,27.419 114.32C27.444 114.548,27.419 114.878,27.419 114.878C27.419 114.878,26.455 115.131,25.391 115.055"/></g><g class="vf-stavenote" id="vf-auto23873"><g class="vf-stem" id="vf-auto23874" pointer-events="bounding-box"><path stroke-width="1.5" fill="none" d="M81.193 118.2L81.193 55"/></g><g class="vf-notehead" id="vf-auto23878" pointer-events="bounding-box"><path stroke="none" d="M82.64 118.428C82.584 123.229,78.456 127.048,73.851 127.048C73.177 127.048,72.475 126.964,71.801 126.795C70.369 126.43,69.723 125.391,69.415 123.959C69.246 123.229,69.162 122.555,69.162 121.909C69.162 117.332,72.728 114.384,77.137 113.008C77.277 112.952,77.502 112.924,77.698 112.924C79.664 112.924,82.668 115.226,82.668 117.81C82.668 118.006,82.668 118.231,82.64 118.428M75.143 122.864C76.856 122.274,78.737 121.348,80.366 119.832C80.394 119.803,80.45 119.635,80.45 119.523C80.45 119.382,80.394 119.27,80.366 119.242C79.636 118.512,79.074 117.529,77.895 117.36C77.726 117.332,77.586 117.332,77.361 117.332C75.62 117.332,74.244 118.456,72.812 119.242C71.914 119.747,70.903 120.814,71.099 121.741C71.296 122.752,72.756 122.555,73.683 122.752C74.048 122.836,74.385 122.836,75.143 122.864"/><g class="vf-chordsymbol" id="vf-auto23862"><text stroke="none" font-family="PetalumaScript, Arial, sans-serif" font-size="12pt" x="75.19" y="50">F7</text><path stroke="none" d="M95.68 45.352C95.761 45.342,95.761 45.251,95.791 45.18C95.821 45.11,95.821 45.029,95.821 44.979C95.821 44.827,95.781 44.686,95.73 44.535C95.589 44.101,95.337 43.737,95.195 43.303C94.761 41.941,94.408 40.569,94.378 39.136C94.368 38.641,94.338 38.126,94.338 37.632C94.338 37.228,94.358 36.825,94.428 36.411C94.721 34.877,95.236 33.404,95.983 32.041C96.124 31.769,96.194 31.517,96.194 31.254C96.194 31.113,96.174 30.951,96.124 30.79C96.063 30.588,96.013 30.326,95.791 30.326C95.65 30.326,95.559 30.548,95.458 30.679C95.105 31.184,94.923 31.769,94.661 32.314C93.914 33.868,93.51 35.482,93.51 37.218C93.51 37.491,93.51 37.783,93.54 38.076C93.52 38.217,93.52 38.359,93.52 38.52C93.52 39.368,93.672 40.266,93.873 41.134C94.136 42.254,94.469 43.344,94.963 44.383C95.105 44.686,95.316 44.958,95.488 45.231C95.528 45.281,95.569 45.352,95.65 45.352"/><path stroke="none" d="M97.338 43.554C97.435 43.545,97.461 43.404,97.488 43.316C97.541 43.148,97.55 42.98,97.55 42.83C97.55 42.689,97.541 42.565,97.541 42.424C97.541 42.336,97.541 42.221,97.55 42.132C97.576 41.876,97.603 41.62,97.612 41.364L98.177 41.249C98.203 41.788,98.3 42.309,98.477 42.812C98.495 42.883,98.539 42.954,98.618 42.954C98.698 42.971,98.724 42.883,98.759 42.812C98.848 42.68,98.857 42.512,98.857 42.362C98.874 42.247,98.874 42.141,98.874 42.044C98.874 41.735,98.848 41.417,98.839 41.108L99.572 40.958C100.269 40.817,100.358 40.72,100.411 40.049C100.411 39.881,100.428 39.766,100.411 39.634C100.402 39.475,100.331 39.36,100.199 39.36L100.172 39.36C100.119 39.36,100.084 39.36,100.031 39.369C99.74 39.448,99.422 39.51,99.113 39.563L98.901 39.598C98.91 39.422,98.91 39.227,98.927 39.042C98.936 38.636,98.945 38.23,98.945 37.823C99.307 37.726,99.651 37.629,99.996 37.514C100.181 37.452,100.349 37.347,100.402 37.143C100.446 36.914,100.517 36.702,100.517 36.472C100.517 36.34,100.499 36.207,100.446 36.075C100.402 35.951,100.358 35.89,100.287 35.89L100.261 35.89C100.216 35.89,100.172 35.89,100.119 35.916C99.722 36.075,99.333 36.207,98.927 36.322L98.883 35.633C98.857 35.086,98.839 34.53,98.724 33.982C98.698 33.912,98.706 33.797,98.627 33.797L98.618 33.797L98.583 33.797C98.477 33.823,98.353 33.867,98.336 34.009L98.336 34.247C98.336 34.998,98.362 35.731,98.38 36.472L97.7 36.622C97.7 36.243,97.691 35.863,97.664 35.483C97.656 35.289,97.656 35.113,97.55 34.918C97.267 35.06,97.311 35.298,97.311 35.501C97.285 35.916,97.267 36.305,97.258 36.702C96.905 36.773,96.543 36.826,96.19 36.887C95.669 36.976,95.589 37.055,95.589 37.629C95.554 37.77,95.66 37.929,95.642 38.088C95.616 38.327,95.678 38.406,95.845 38.415C95.881 38.415,95.925 38.406,95.978 38.388C96.393 38.327,96.799 38.265,97.205 38.185L97.17 39.333C97.152 39.545,97.135 39.748,97.108 39.951C96.631 40.049,96.163 40.137,95.695 40.252C95.43 40.313,95.272 40.411,95.272 40.72C95.272 41.02,95.386 41.302,95.404 41.594C95.404 41.735,95.439 41.797,95.545 41.815C95.563 41.815,95.607 41.797,95.66 41.788C96.11 41.682,96.57 41.594,97.029 41.497C97.02 41.656,97.02 41.823,97.02 42C97.02 42.45,97.064 42.883,97.223 43.316C97.249 43.404,97.223 43.554,97.338 43.554M97.673 39.837C97.691 39.563,97.691 39.28,97.7 38.998C97.717 38.698,97.717 38.406,97.717 38.097C97.929 38.062,98.132 38.026,98.336 37.973C98.274 38.556,98.247 39.139,98.212 39.731"/><text stroke="none" font-family="PetalumaScript, Arial, sans-serif" font-size="8.76pt" x="100.752" y="43.6">11</text><path stroke="none" d="M108.076 43.31C108.116 43.31,108.177 43.28,108.247 43.199C108.439 43.048,108.651 42.886,108.863 42.735C110.134 41.827,110.821 40.586,110.821 39.001C110.821 38.799,110.821 38.608,110.79 38.406C110.72 37.699,110.316 37.286,109.7 37.286C109.569 37.286,109.428 37.316,109.267 37.366C109.065 37.417,108.863 37.518,108.651 37.609L108.641 37.619L108.641 37.245C108.641 36.69,108.671 36.145,108.701 35.59C108.701 35.267,108.732 34.965,108.732 34.642C108.732 34.339,108.701 34.016,108.631 33.713C108.6 33.612,108.6 33.421,108.449 33.421L108.439 33.421C108.278 33.441,108.156 33.572,108.156 33.774C108.146 34.178,108.106 34.601,108.116 35.005L108.116 35.459C108.116 36.317,108.076 37.175,108.045 38.032C108.005 39.264,107.793 40.475,107.793 41.706C107.793 42.19,107.823 42.695,107.955 43.179C107.985 43.26,108.015 43.31,108.076 43.31M108.469 41.342C108.5 40.969,108.51 40.576,108.55 40.162C108.58 39.849,108.6 39.526,108.6 39.203L108.651 39.183C108.933 39.062,109.206 38.921,109.509 38.921C109.61 38.921,109.731 38.951,109.842 38.991C110.084 39.072,110.195 39.193,110.185 39.354C110.185 39.435,110.165 39.526,110.104 39.647C109.731 40.384,109.115 40.878,108.469 41.342"/><text stroke="none" font-family="PetalumaScript, Arial, sans-serif" font-size="8.76pt" x="110.563" y="43.6">9</text><path stroke="none" d="M117.547 45.342C117.668 45.382,117.799 45.291,117.88 45.211C118.112 44.948,118.334 44.666,118.475 44.353C118.707 43.808,118.919 43.293,119.151 42.748C119.656 41.527,119.948 40.276,119.979 38.621C120.019 38.207,119.878 37.481,119.726 36.754C119.232 34.483,118.536 32.283,117.345 30.265C117.284 30.164,117.254 29.973,117.103 29.973C117.103 29.973,117.082 29.973,117.082 29.993C116.911 30.003,116.81 30.184,116.78 30.326C116.709 30.578,116.659 30.82,116.659 31.052C116.659 31.325,116.719 31.587,116.881 31.88C117.244 32.536,117.597 33.202,117.93 33.868C118.334 34.695,118.626 35.573,118.889 36.441C119.101 37.138,119.262 37.864,119.323 38.611C119.333 38.742,119.333 38.873,119.333 38.984C119.333 39.701,119.181 40.387,118.919 41.053C118.556 42.022,118.364 43.051,117.708 43.909C117.436 44.252,117.415 44.656,117.436 45.059C117.446 45.16,117.486 45.322,117.547 45.342"/></g><path stroke="none" d="M58.05 128.208C58.159 128.208,58.323 128.126,58.515 127.907C59.035 127.497,59.609 127.059,60.184 126.648C63.631 124.186,65.492 120.821,65.492 116.525C65.492 115.978,65.492 115.458,65.41 114.911C65.218 112.996,64.124 111.874,62.455 111.874C62.099 111.874,61.716 111.956,61.278 112.093C60.731 112.23,60.184 112.503,59.609 112.75L59.582 112.777L59.582 111.765C59.582 110.26,59.664 108.782,59.746 107.278C59.746 106.402,59.828 105.581,59.828 104.706C59.828 103.885,59.746 103.009,59.554 102.189C59.472 101.915,59.472 101.395,59.062 101.395L59.035 101.395C58.597 101.45,58.269 101.806,58.269 102.353C58.241 103.447,58.132 104.596,58.159 105.691L58.159 106.922C58.159 109.248,58.05 111.573,57.968 113.899C57.858 117.237,57.284 120.52,57.284 123.858C57.284 125.171,57.366 126.539,57.721 127.852C57.803 128.071,57.886 128.208,58.05 128.208M59.117 122.873C59.199 121.86,59.226 120.793,59.336 119.672C59.418 118.824,59.472 117.948,59.472 117.072L59.609 117.018C60.375 116.689,61.114 116.306,61.935 116.306C62.208 116.306,62.537 116.388,62.838 116.498C63.494 116.717,63.795 117.045,63.768 117.483C63.768 117.702,63.713 117.948,63.549 118.276C62.537 120.274,60.868 121.614,59.117 122.873"/></g><g class="vf-notehead" id="vf-auto23879" pointer-events="bounding-box"><path stroke="none" d="M82.64 103.428C82.584 108.229,78.456 112.048,73.851 112.048C73.177 112.048,72.475 111.964,71.801 111.795C70.369 111.43,69.723 110.391,69.415 108.959C69.246 108.229,69.162 107.555,69.162 106.909C69.162 102.332,72.728 99.384,77.137 98.008C77.277 97.952,77.502 97.924,77.698 97.924C79.664 97.924,82.668 100.226,82.668 102.81C82.668 103.006,82.668 103.231,82.64 103.428M75.143 107.864C76.856 107.274,78.737 106.348,80.366 104.832C80.394 104.803,80.45 104.635,80.45 104.523C80.45 104.382,80.394 104.27,80.366 104.242C79.636 103.512,79.074 102.529,77.895 102.36C77.726 102.332,77.586 102.332,77.361 102.332C75.62 102.332,74.244 103.456,72.812 104.242C71.914 104.747,70.903 105.814,71.099 106.741C71.296 107.752,72.756 107.555,73.683 107.752C74.048 107.836,74.385 107.836,75.143 107.864"/></g><g class="vf-notehead" id="vf-auto23880" pointer-events="bounding-box"><path stroke="none" d="M82.64 88.428C82.584 93.229,78.456 97.048,73.851 97.048C73.177 97.048,72.475 96.964,71.801 96.795C70.369 96.43,69.723 95.391,69.415 93.959C69.246 93.229,69.162 92.555,69.162 91.909C69.162 87.332,72.728 84.384,77.137 83.008C77.277 82.952,77.502 82.924,77.698 82.924C79.664 82.924,82.668 85.226,82.668 87.81C82.668 88.006,82.668 88.231,82.64 88.428M75.143 92.864C76.856 92.274,78.737 91.348,80.366 89.832C80.394 89.803,80.45 89.635,80.45 89.523C80.45 89.382,80.394 89.27,80.366 89.242C79.636 88.512,79.074 87.529,77.895 87.36C77.726 87.332,77.586 87.332,77.361 87.332C75.62 87.332,74.244 88.456,72.812 89.242C71.914 89.747,70.903 90.814,71.099 91.741C71.296 92.752,72.756 92.555,73.683 92.752C74.048 92.836,74.385 92.836,75.143 92.864"/></g></g><g class="vf-stavenote" id="vf-auto23883"><path stroke-width="1.4" fill="none" stroke="#444" d="M245.965 70L265.472 70"/><path stroke-width="1.4" fill="none" stroke="#444" d="M245.965 60L265.472 60"/><g class="vf-stem" id="vf-auto23884" pointer-events="bounding-box"><path stroke-width="1.5" fill="none" d="M249.715 61.8L249.715 130"/></g><g class="vf-notehead" id="vf-auto23890" pointer-events="bounding-box"><path stroke="none" d="M262.444 93.428C262.387 98.229,258.26 102.048,253.655 102.048C252.981 102.048,252.279 101.964,251.605 101.795C250.173 101.43,249.527 100.391,249.218 98.959C249.049 98.229,248.965 97.555,248.965 96.909C248.965 92.332,252.531 89.384,256.94 88.008C257.08 87.952,257.305 87.924,257.502 87.924C259.467 87.924,262.472 90.226,262.472 92.81C262.472 93.006,262.472 93.231,262.444 93.428M254.946 97.864C256.659 97.274,258.54 96.348,260.169 94.832C260.197 94.803,260.253 94.635,260.253 94.523C260.253 94.382,260.197 94.27,260.169 94.242C259.439 93.512,258.877 92.529,257.698 92.36C257.53 92.332,257.389 92.332,257.165 92.332C255.424 92.332,254.048 93.456,252.616 94.242C251.717 94.747,250.706 95.814,250.903 96.741C251.099 97.752,252.559 97.555,253.486 97.752C253.851 97.836,254.188 97.836,254.946 97.864"/><g class="vf-chordsymbol" id="vf-auto23867"><text stroke="none" font-family="PetalumaScript, Arial, sans-serif" font-size="12pt" x="255.718" y="50">C</text><path stroke="none" d="M266.09 43.59L269.854 43.328C270.944 43.247,272.014 43.166,273.103 43.095C273.386 43.075,273.467 42.964,273.457 42.611C273.366 42.308,273.265 41.925,273.033 41.582C272.205 40.29,271.378 38.998,270.53 37.696C270.096 37.02,269.682 36.334,269.228 35.668C269.067 35.436,268.956 35.335,268.845 35.335C268.744 35.335,268.663 35.416,268.562 35.608C267.341 37.696,266.13 39.775,264.909 41.854C264.869 41.925,264.838 42.006,264.838 42.086C264.838 42.157,264.869 42.238,264.909 42.308C265.141 42.732,265.494 43.095,265.737 43.499C265.797 43.59,265.868 43.6,265.938 43.6M266.483 42.117C266.433 42.117,266.413 42.106,266.382 42.056C266.322 41.955,266.433 41.884,266.493 41.794C267.371 40.229,268.249 38.675,269.137 37.101C269.198 36.99,269.238 36.94,269.299 36.94C269.339 36.94,269.4 36.99,269.46 37.091C270.358 38.524,271.257 39.957,272.175 41.38C272.225 41.451,272.266 41.521,272.266 41.562C272.266 41.622,272.205 41.662,272.044 41.683C270.258 41.814,268.461 41.955,266.645 42.106C266.594 42.086,266.534 42.117,266.483 42.117"/></g></g><g class="vf-notehead" id="vf-auto23889" pointer-events="bounding-box"><path stroke="none" d="M262.444 83.428C262.387 88.229,258.26 92.048,253.655 92.048C252.981 92.048,252.279 91.964,251.605 91.795C250.173 91.43,249.527 90.391,249.218 88.959C249.049 88.229,248.965 87.555,248.965 86.909C248.965 82.332,252.531 79.384,256.94 78.008C257.08 77.952,257.305 77.924,257.502 77.924C259.467 77.924,262.472 80.226,262.472 82.81C262.472 83.006,262.472 83.231,262.444 83.428M254.946 87.864C256.659 87.274,258.54 86.348,260.169 84.832C260.197 84.803,260.253 84.635,260.253 84.523C260.253 84.382,260.197 84.27,260.169 84.242C259.439 83.512,258.877 82.529,257.698 82.36C257.53 82.332,257.389 82.332,257.165 82.332C255.424 82.332,254.048 83.456,252.616 84.242C251.717 84.747,250.706 85.814,250.903 86.741C251.099 87.752,252.559 87.555,253.486 87.752C253.851 87.836,254.188 87.836,254.946 87.864"/></g><g class="vf-notehead" id="vf-auto23888" pointer-events="bounding-box"><path stroke="none" d="M262.444 58.428C262.387 63.229,258.26 67.048,253.655 67.048C252.981 67.048,252.279 66.964,251.605 66.795C250.173 66.43,249.527 65.391,249.218 63.959C249.049 63.229,248.965 62.555,248.965 61.909C248.965 57.332,252.531 54.384,256.94 53.008C257.08 52.952,257.305 52.924,257.502 52.924C259.467 52.924,262.472 55.226,262.472 57.81C262.472 58.006,262.472 58.231,262.444 58.428M254.946 62.864C256.659 62.274,258.54 61.348,260.169 59.832C260.197 59.803,260.253 59.635,260.253 59.523C260.253 59.382,260.197 59.27,260.169 59.242C259.439 58.512,258.877 57.529,257.698 57.36C257.53 57.332,257.389 57.332,257.165 57.332C255.424 57.332,254.048 58.456,252.616 59.242C251.717 59.747,250.706 60.814,250.903 61.741C251.099 62.752,252.559 62.555,253.486 62.752C253.851 62.836,254.188 62.836,254.946 62.864"/></g></g><g class="vf-stave" id="vf-auto23896" stroke-width="1" fill="#999999" stroke="#999999"><path fill="none" d="M10 180L460 180"/><path fill="none" d="M10 190L460 190"/><path fill="none" d="M10 200L460 200"/><path fill="none" d="M10 210L460 210"/><path fill="none" d="M10 220L460 220"/></g><g class="vf-stavebarline" id="vf-auto23897"><rect x="10" y="179.5" width="1" height="41" stroke="none"/></g><g class="vf-stavebarline" id="vf-auto23898"><rect x="460" y="179.5" width="1" height="41" stroke="none"/></g><g class="vf-clef" id="vf-auto23899"><path stroke="none" d="M23.693 231.402C23.87 231.402,24.048 231.377,24.276 231.301C24.707 231.148,25.062 230.92,25.366 230.591C28.382 227.423,29.623 223.596,29.75 219.313C29.75 218.983,29.776 218.451,29.776 218.451C29.776 218.451,30.282 218.147,30.511 218.071C31.727 217.488,32.893 216.829,33.932 215.993C36.72 213.762,38.316 210.747,39.051 207.376C39.204 206.844,39.229 206.286,39.229 205.779C39.229 203.473,37.962 201.8,35.047 201.268C34.312 201.116,33.577 201.04,32.842 201.04C31.017 201.04,29.269 201.521,27.621 202.484C27.419 202.611,27.19 202.763,27.19 202.763L26.253 199.215C26.202 199.038,26.202 198.708,26.202 198.708C26.202 198.708,29.928 192.093,30.434 188.697C30.612 187.709,30.688 186.72,30.688 185.757C30.688 184.972,30.663 184.237,30.536 183.527C30.181 180.891,29.193 178.408,28.534 175.848C28.356 175.088,28.103 174.175,27.216 174.175C26.557 174.175,26.101 174.809,25.695 175.341C23.82 177.926,22.907 180.891,22.73 184.059C22.705 184.566,22.705 185.098,22.705 185.605C22.705 188.545,23.186 191.51,23.566 194.425C23.566 194.653,23.642 194.881,23.693 195.059C22.046 197.39,20.221 199.57,18.65 201.978C17.56 203.701,16.343 205.424,15.583 207.35C15.177 208.288,15 209.403,15 210.493C15 212.749,15.76 215.055,17.078 216.322C17.839 217.057,19.055 217.868,20.246 218.299C21.944 218.907,23.617 219.313,25.391 219.313C25.923 219.313,26.455 219.287,27.013 219.211L27.444 219.135C27.444 219.135,27.469 219.465,27.444 219.642C27.038 221.847,26.506 224.001,25.188 225.826C24.479 226.764,23.82 227.828,22.451 227.93C22.046 227.98,21.868 228.234,21.868 228.563C21.868 228.69,21.894 228.817,21.944 228.944C22.147 229.501,22.4 230.084,22.654 230.642C22.882 231.148,23.237 231.402,23.693 231.402M25.138 192.828C24.859 191.08,24.681 189.356,24.681 187.633C24.681 184.465,25.34 181.373,27.19 178.408C27.621 179.751,27.849 181.119,27.849 182.488C27.849 183.198,27.773 183.933,27.672 184.642C27.19 187.506,26.532 190.269,25.138 192.828M21.387 214.421C20.88 214.396,20.449 214.219,19.967 214.067C19.004 213.737,18.219 213.382,17.965 212.749C17.839 212.47,17.813 212.14,17.813 211.811C17.813 211.406,17.889 210.975,17.965 210.518C17.991 210.316,18.219 209.682,18.295 209.581C19.714 207.046,21.412 204.765,23.211 202.459L24.732 200.457L25.011 201.268C25.29 202.18,25.543 203.625,25.543 203.625C25.543 203.625,24.529 204.943,23.87 205.602C22.046 207.376,21.159 209.606,21.159 212.064C21.159 212.673,21.235 213.306,21.361 213.965C21.387 214.092,21.387 214.219,21.387 214.421M29.269 213.306C28.99 210.924,28.432 209.023,27.925 206.742C27.875 206.463,27.875 206.286,28.001 206.134C28.939 205.957,29.852 205.881,30.815 205.881C31.727 205.881,32.589 205.957,33.501 206.134C34.591 206.362,35.681 206.539,36.542 207.426C36.593 207.503,36.669 207.579,36.745 207.604C35.301 210.518,33.146 212.723,30.08 214.067L29.421 214.32M25.391 215.055C24.124 215.055,22.882 214.726,22.882 214.726C22.882 214.726,22.781 214.219,22.781 213.484C22.781 213.002,22.806 212.419,22.958 211.836C23.313 210.088,24.555 208.846,25.873 207.68C25.974 207.579,26.101 207.503,26.177 207.503C26.303 207.503,26.354 207.655,26.379 207.908C26.709 210.062,27.266 212.166,27.419 214.32C27.444 214.548,27.419 214.878,27.419 214.878C27.419 214.878,26.455 215.131,25.391 215.055"/></g><g class="vf-stave" id="vf-auto23896" stroke-width="1" fill="#999999" stroke="#999999"><path fill="none" d="M10 180L460 180"/><path fill="none" d="M10 190L460 190"/><path fill="none" d="M10 200L460 200"/><path fill="none" d="M10 210L460 210"/><path fill="none" d="M10 220L460 220"/></g><g class="vf-stavebarline" id="vf-auto23897"><rect x="10" y="179.5" width="1" height="41" stroke="none"/></g><g class="vf-stavebarline" id="vf-auto23898"><rect x="460" y="179.5" width="1" height="41" stroke="none"/></g><g class="vf-clef" id="vf-auto23899"><path stroke="none" d="M23.693 231.402C23.87 231.402,24.048 231.377,24.276 231.301C24.707 231.148,25.062 230.92,25.366 230.591C28.382 227.423,29.623 223.596,29.75 219.313C29.75 218.983,29.776 218.451,29.776 218.451C29.776 218.451,30.282 218.147,30.511 218.071C31.727 217.488,32.893 216.829,33.932 215.993C36.72 213.762,38.316 210.747,39.051 207.376C39.204 206.844,39.229 206.286,39.229 205.779C39.229 203.473,37.962 201.8,35.047 201.268C34.312 201.116,33.577 201.04,32.842 201.04C31.017 201.04,29.269 201.521,27.621 202.484C27.419 202.611,27.19 202.763,27.19 202.763L26.253 199.215C26.202 199.038,26.202 198.708,26.202 198.708C26.202 198.708,29.928 192.093,30.434 188.697C30.612 187.709,30.688 186.72,30.688 185.757C30.688 184.972,30.663 184.237,30.536 183.527C30.181 180.891,29.193 178.408,28.534 175.848C28.356 175.088,28.103 174.175,27.216 174.175C26.557 174.175,26.101 174.809,25.695 175.341C23.82 177.926,22.907 180.891,22.73 184.059C22.705 184.566,22.705 185.098,22.705 185.605C22.705 188.545,23.186 191.51,23.566 194.425C23.566 194.653,23.642 194.881,23.693 195.059C22.046 197.39,20.221 199.57,18.65 201.978C17.56 203.701,16.343 205.424,15.583 207.35C15.177 208.288,15 209.403,15 210.493C15 212.749,15.76 215.055,17.078 216.322C17.839 217.057,19.055 217.868,20.246 218.299C21.944 218.907,23.617 219.313,25.391 219.313C25.923 219.313,26.455 219.287,27.013 219.211L27.444 219.135C27.444 219.135,27.469 219.465,27.444 219.642C27.038 221.847,26.506 224.001,25.188 225.826C24.479 226.764,23.82 227.828,22.451 227.93C22.046 227.98,21.868 228.234,21.868 228.563C21.868 228.69,21.894 228.817,21.944 228.944C22.147 229.501,22.4 230.084,22.654 230.642C22.882 231.148,23.237 231.402,23.693 231.402M25.138 192.828C24.859 191.08,24.681 189.356,24.681 187.633C24.681 184.465,25.34 181.373,27.19 178.408C27.621 179.751,27.849 181.119,27.849 182.488C27.849 183.198,27.773 183.933,27.672 184.642C27.19 187.506,26.532 190.269,25.138 192.828M21.387 214.421C20.88 214.396,20.449 214.219,19.967 214.067C19.004 213.737,18.219 213.382,17.965 212.749C17.839 212.47,17.813 212.14,17.813 211.811C17.813 211.406,17.889 210.975,17.965 210.518C17.991 210.316,18.219 209.682,18.295 209.581C19.714 207.046,21.412 204.765,23.211 202.459L24.732 200.457L25.011 201.268C25.29 202.18,25.543 203.625,25.543 203.625C25.543 203.625,24.529 204.943,23.87 205.602C22.046 207.376,21.159 209.606,21.159 212.064C21.159 212.673,21.235 213.306,21.361 213.965C21.387 214.092,21.387 214.219,21.387 214.421M29.269 213.306C28.99 210.924,28.432 209.023,27.925 206.742C27.875 206.463,27.875 206.286,28.001 206.134C28.939 205.957,29.852 205.881,30.815 205.881C31.727 205.881,32.589 205.957,33.501 206.134C34.591 206.362,35.681 206.539,36.542 207.426C36.593 207.503,36.669 207.579,36.745 207.604C35.301 210.518,33.146 212.723,30.08 214.067L29.421 214.32M25.391 215.055C24.124 215.055,22.882 214.726,22.882 214.726C22.882 214.726,22.781 214.219,22.781 213.484C22.781 213.002,22.806 212.419,22.958 211.836C23.313 210.088,24.555 208.846,25.873 207.68C25.974 207.579,26.101 207.503,26.177 207.503C26.303 207.503,26.354 207.655,26.379 207.908C26.709 210.062,27.266 212.166,27.419 214.32C27.444 214.548,27.419 214.878,27.419 214.878C27.419 214.878,26.455 215.131,25.391 215.055"/></g><g class="vf-stavenote" id="vf-auto23900"><g class="vf-stem" id="vf-auto23901" pointer-events="bounding-box"><path stroke-width="1.5" fill="none" d="M92.891 218.2L92.891 155"/></g><g class="vf-notehead" id="vf-auto23905" pointer-events="bounding-box"><path stroke="none" d="M94.338 218.428C94.282 223.229,90.154 227.048,85.549 227.048C84.875 227.048,84.173 226.964,83.499 226.795C82.067 226.43,81.421 225.391,81.113 223.959C80.944 223.229,80.86 222.555,80.86 221.909C80.86 217.332,84.426 214.384,88.835 213.008C88.975 212.952,89.2 212.924,89.396 212.924C91.362 212.924,94.366 215.226,94.366 217.81C94.366 218.006,94.366 218.231,94.338 218.428M86.841 222.864C88.554 222.274,90.435 221.348,92.064 219.832C92.092 219.803,92.148 219.635,92.148 219.523C92.148 219.382,92.092 219.27,92.064 219.242C91.334 218.512,90.772 217.529,89.593 217.36C89.424 217.332,89.284 217.332,89.059 217.332C87.318 217.332,85.942 218.456,84.51 219.242C83.612 219.747,82.601 220.814,82.797 221.741C82.994 222.752,84.454 222.555,85.381 222.752C85.746 222.836,86.083 222.836,86.841 222.864"/><g class="vf-chordsymbol" id="vf-auto23892"><text stroke="none" font-family="PetalumaScript, Arial, sans-serif" font-size="12pt" x="62.982" y="150">F7</text><text stroke="none" font-family="PetalumaScript, Arial, sans-serif" font-size="8.76pt" x="81.302" y="143.6">(</text><path stroke="none" d="M86.917 143.554C87.014 143.545,87.04 143.404,87.067 143.316C87.12 143.148,87.129 142.98,87.129 142.83C87.129 142.689,87.12 142.565,87.12 142.424C87.12 142.336,87.12 142.221,87.129 142.132C87.155 141.876,87.182 141.62,87.191 141.364L87.756 141.249C87.782 141.788,87.879 142.309,88.056 142.812C88.074 142.883,88.118 142.954,88.197 142.954C88.277 142.971,88.303 142.883,88.338 142.812C88.427 142.68,88.436 142.512,88.436 142.362C88.453 142.247,88.453 142.141,88.453 142.044C88.453 141.735,88.427 141.417,88.418 141.108L89.151 140.958C89.848 140.817,89.937 140.72,89.99 140.049C89.99 139.881,90.007 139.766,89.99 139.634C89.981 139.475,89.91 139.36,89.778 139.36L89.751 139.36C89.698 139.36,89.663 139.36,89.61 139.369C89.319 139.448,89.001 139.51,88.692 139.563L88.48 139.598C88.489 139.422,88.489 139.227,88.506 139.042C88.515 138.636,88.524 138.23,88.524 137.823C88.886 137.726,89.23 137.629,89.575 137.514C89.76 137.452,89.928 137.347,89.981 137.143C90.025 136.914,90.096 136.702,90.096 136.472C90.096 136.34,90.078 136.207,90.025 136.075C89.981 135.951,89.937 135.89,89.866 135.89L89.84 135.89C89.795 135.89,89.751 135.89,89.698 135.916C89.301 136.075,88.912 136.207,88.506 136.322L88.462 135.633C88.436 135.086,88.418 134.53,88.303 133.982C88.277 133.912,88.285 133.797,88.206 133.797L88.197 133.797L88.162 133.797C88.056 133.823,87.932 133.867,87.915 134.009L87.915 134.247C87.915 134.998,87.941 135.731,87.959 136.472L87.279 136.622C87.279 136.243,87.27 135.863,87.244 135.483C87.235 135.289,87.235 135.113,87.129 134.918C86.846 135.06,86.89 135.298,86.89 135.501C86.864 135.916,86.846 136.305,86.837 136.702C86.484 136.773,86.122 136.826,85.769 136.887C85.248 136.976,85.168 137.055,85.168 137.629C85.133 137.77,85.239 137.929,85.221 138.088C85.195 138.327,85.257 138.406,85.425 138.415C85.46 138.415,85.504 138.406,85.557 138.388C85.972 138.327,86.378 138.265,86.784 138.185L86.749 139.333C86.731 139.545,86.714 139.748,86.687 139.951C86.21 140.049,85.742 140.137,85.274 140.252C85.01 140.313,84.851 140.411,84.851 140.72C84.851 141.02,84.965 141.302,84.983 141.594C84.983 141.735,85.018 141.797,85.124 141.815C85.142 141.815,85.186 141.797,85.239 141.788C85.689 141.682,86.149 141.594,86.608 141.497C86.599 141.656,86.599 141.823,86.599 142C86.599 142.45,86.643 142.883,86.802 143.316C86.829 143.404,86.802 143.554,86.917 143.554M87.252 139.837C87.27 139.563,87.27 139.28,87.279 138.998C87.297 138.698,87.297 138.406,87.297 138.097C87.508 138.062,87.712 138.026,87.915 137.973C87.853 138.556,87.826 139.139,87.791 139.731"/><text stroke="none" font-family="PetalumaScript, Arial, sans-serif" font-size="8.76pt" x="90.331" y="143.6">11</text><path stroke="none" d="M97.655 143.31C97.695 143.31,97.756 143.28,97.826 143.199C98.018 143.048,98.23 142.886,98.442 142.735C99.713 141.827,100.4 140.586,100.4 139.001C100.4 138.799,100.4 138.608,100.369 138.406C100.299 137.699,99.895 137.286,99.279 137.286C99.148 137.286,99.007 137.316,98.846 137.366C98.644 137.417,98.442 137.518,98.23 137.609L98.22 137.619L98.22 137.245C98.22 136.69,98.25 136.145,98.28 135.59C98.28 135.267,98.311 134.965,98.311 134.642C98.311 134.339,98.28 134.016,98.21 133.713C98.18 133.612,98.18 133.421,98.028 133.421L98.018 133.421C97.857 133.441,97.735 133.572,97.735 133.774C97.725 134.178,97.685 134.601,97.695 135.005L97.695 135.459C97.695 136.317,97.655 137.175,97.624 138.032C97.584 139.264,97.372 140.475,97.372 141.706C97.372 142.19,97.402 142.695,97.534 143.179C97.564 143.26,97.594 143.31,97.655 143.31M98.048 141.342C98.079 140.969,98.089 140.576,98.129 140.162C98.159 139.849,98.18 139.526,98.18 139.203L98.23 139.183C98.513 139.062,98.785 138.921,99.088 138.921C99.189 138.921,99.31 138.951,99.421 138.991C99.663 139.072,99.774 139.193,99.764 139.354C99.764 139.435,99.744 139.526,99.683 139.647C99.31 140.384,98.694 140.878,98.048 141.342"/><text stroke="none" font-family="PetalumaScript, Arial, sans-serif" font-size="8.76pt" x="100.142" y="143.6">9</text><text stroke="none" font-family="PetalumaScript, Arial, sans-serif" font-size="8.76pt" x="107.29" y="143.6">)</text></g><path stroke="none" d="M69.748 228.208C69.857 228.208,70.021 228.126,70.213 227.907C70.733 227.497,71.307 227.059,71.882 226.648C75.329 224.186,77.19 220.821,77.19 216.525C77.19 215.978,77.19 215.458,77.108 214.911C76.916 212.996,75.822 211.874,74.153 211.874C73.797 211.874,73.414 211.956,72.976 212.093C72.429 212.23,71.882 212.503,71.307 212.75L71.28 212.777L71.28 211.765C71.28 210.26,71.362 208.782,71.444 207.278C71.444 206.402,71.526 205.581,71.526 204.706C71.526 203.885,71.444 203.009,71.252 202.189C71.17 201.915,71.17 201.395,70.76 201.395L70.733 201.395C70.295 201.45,69.967 201.806,69.967 202.353C69.939 203.447,69.83 204.596,69.857 205.691L69.857 206.922C69.857 209.248,69.748 211.573,69.666 213.899C69.556 217.237,68.982 220.52,68.982 223.858C68.982 225.171,69.064 226.539,69.419 227.852C69.501 228.071,69.584 228.208,69.748 228.208M70.815 222.873C70.897 221.86,70.924 220.793,71.034 219.672C71.116 218.824,71.17 217.948,71.17 217.072L71.307 217.018C72.073 216.689,72.812 216.306,73.633 216.306C73.906 216.306,74.235 216.388,74.536 216.498C75.192 216.717,75.493 217.045,75.466 217.483C75.466 217.702,75.411 217.948,75.247 218.276C74.235 220.274,72.566 221.614,70.815 222.873"/></g><g class="vf-notehead" id="vf-auto23906" pointer-events="bounding-box"><path stroke="none" d="M94.338 203.428C94.282 208.229,90.154 212.048,85.549 212.048C84.875 212.048,84.173 211.964,83.499 211.795C82.067 211.43,81.421 210.391,81.113 208.959C80.944 208.229,80.86 207.555,80.86 206.909C80.86 202.332,84.426 199.384,88.835 198.008C88.975 197.952,89.2 197.924,89.396 197.924C91.362 197.924,94.366 200.226,94.366 202.81C94.366 203.006,94.366 203.231,94.338 203.428M86.841 207.864C88.554 207.274,90.435 206.348,92.064 204.832C92.092 204.803,92.148 204.635,92.148 204.523C92.148 204.382,92.092 204.27,92.064 204.242C91.334 203.512,90.772 202.529,89.593 202.36C89.424 202.332,89.284 202.332,89.059 202.332C87.318 202.332,85.942 203.456,84.51 204.242C83.612 204.747,82.601 205.814,82.797 206.741C82.994 207.752,84.454 207.555,85.381 207.752C85.746 207.836,86.083 207.836,86.841 207.864"/></g><g class="vf-notehead" id="vf-auto23907" pointer-events="bounding-box"><path stroke="none" d="M94.338 188.428C94.282 193.229,90.154 197.048,85.549 197.048C84.875 197.048,84.173 196.964,83.499 196.795C82.067 196.43,81.421 195.391,81.113 193.959C80.944 193.229,80.86 192.555,80.86 191.909C80.86 187.332,84.426 184.384,88.835 183.008C88.975 182.952,89.2 182.924,89.396 182.924C91.362 182.924,94.366 185.226,94.366 187.81C94.366 188.006,94.366 188.231,94.338 188.428M86.841 192.864C88.554 192.274,90.435 191.348,92.064 189.832C92.092 189.803,92.148 189.635,92.148 189.523C92.148 189.382,92.092 189.27,92.064 189.242C91.334 188.512,90.772 187.529,89.593 187.36C89.424 187.332,89.284 187.332,89.059 187.332C87.318 187.332,85.942 188.456,84.51 189.242C83.612 189.747,82.601 190.814,82.797 191.741C82.994 192.752,84.454 192.555,85.381 192.752C85.746 192.836,86.083 192.836,86.841 192.864"/></g></g><g class="vf-stavenote" id="vf-auto23910"><path stroke-width="1.4" fill="none" stroke="#444" d="M252.814 170L272.321 170"/><path stroke-width="1.4" fill="none" stroke="#444" d="M252.814 160L272.321 160"/><g class="vf-stem" id="vf-auto23911" pointer-events="bounding-box"><path stroke-width="1.5" fill="none" d="M256.564 161.8L256.564 230"/></g><g class="vf-notehead" id="vf-auto23917" pointer-events="bounding-box"><path stroke="none" d="M269.293 193.428C269.236 198.229,265.109 202.048,260.504 202.048C259.83 202.048,259.128 201.964,258.454 201.795C257.022 201.43,256.376 200.391,256.067 198.959C255.898 198.229,255.814 197.555,255.814 196.909C255.814 192.332,259.38 189.384,263.789 188.008C263.929 187.952,264.154 187.924,264.351 187.924C266.316 187.924,269.321 190.226,269.321 192.81C269.321 193.006,269.321 193.231,269.293 193.428M261.795 197.864C263.508 197.274,265.389 196.348,267.018 194.832C267.046 194.803,267.102 194.635,267.102 194.523C267.102 194.382,267.046 194.27,267.018 194.242C266.288 193.512,265.726 192.529,264.547 192.36C264.379 192.332,264.238 192.332,264.014 192.332C262.273 192.332,260.897 193.456,259.465 194.242C258.566 194.747,257.555 195.814,257.752 196.741C257.948 197.752,259.408 197.555,260.335 197.752C260.7 197.836,261.037 197.836,261.795 197.864"/><g class="vf-chordsymbol" id="vf-auto23895"><text stroke="none" font-family="PetalumaScript, Arial, sans-serif" font-size="12pt" x="262.567" y="150">C</text><text stroke="none" font-family="PetalumaScript, Arial, sans-serif" font-size="8.76pt" x="272.855" y="143.6">Maj.</text></g></g><g class="vf-notehead" id="vf-auto23916" pointer-events="bounding-box"><path stroke="none" d="M269.293 183.428C269.236 188.229,265.109 192.048,260.504 192.048C259.83 192.048,259.128 191.964,258.454 191.795C257.022 191.43,256.376 190.391,256.067 188.959C255.898 188.229,255.814 187.555,255.814 186.909C255.814 182.332,259.38 179.384,263.789 178.008C263.929 177.952,264.154 177.924,264.351 177.924C266.316 177.924,269.321 180.226,269.321 182.81C269.321 183.006,269.321 183.231,269.293 183.428M261.795 187.864C263.508 187.274,265.389 186.348,267.018 184.832C267.046 184.803,267.102 184.635,267.102 184.523C267.102 184.382,267.046 184.27,267.018 184.242C266.288 183.512,265.726 182.529,264.547 182.36C264.379 182.332,264.238 182.332,264.014 182.332C262.273 182.332,260.897 183.456,259.465 184.242C258.566 184.747,257.555 185.814,257.752 186.741C257.948 187.752,259.408 187.555,260.335 187.752C260.7 187.836,261.037 187.836,261.795 187.864"/></g><g class="vf-notehead" id="vf-auto23915" pointer-events="bounding-box"><path stroke="none" d="M269.293 158.428C269.236 163.229,265.109 167.048,260.504 167.048C259.83 167.048,259.128 166.964,258.454 166.795C257.022 166.43,256.376 165.391,256.067 163.959C255.898 163.229,255.814 162.555,255.814 161.909C255.814 157.332,259.38 154.384,263.789 153.008C263.929 152.952,264.154 152.924,264.351 152.924C266.316 152.924,269.321 155.226,269.321 157.81C269.321 158.006,269.321 158.231,269.293 158.428M261.795 162.864C263.508 162.274,265.389 161.348,267.018 159.832C267.046 159.803,267.102 159.635,267.102 159.523C267.102 159.382,267.046 159.27,267.018 159.242C266.288 158.512,265.726 157.529,264.547 157.36C264.379 157.332,264.238 157.332,264.014 157.332C262.273 157.332,260.897 158.456,259.465 159.242C258.566 159.747,257.555 160.814,257.752 161.741C257.948 162.752,259.408 162.555,260.335 162.752C260.7 162.836,261.037 162.836,261.795 162.864"/></g></g><g class="vf-stave" id="vf-auto23923" stroke-width="1" fill="#999999" stroke="#999999"><path fill="none" d="M10 280L460 280"/><path fill="none" d="M10 290L460 290"/><path fill="none" d="M10 300L460 300"/><path fill="none" d="M10 310L460 310"/><path fill="none" d="M10 320L460 320"/></g><g class="vf-stavebarline" id="vf-auto23924"><rect x="10" y="279.5" width="1" height="41" stroke="none"/></g><g class="vf-stavebarline" id="vf-auto23925"><rect x="460" y="279.5" width="1" height="41" stroke="none"/></g><g class="vf-clef" id="vf-auto23926"><path stroke="none" d="M23.693 331.402C23.87 331.402,24.048 331.377,24.276 331.301C24.707 331.148,25.062 330.92,25.366 330.591C28.382 327.423,29.623 323.596,29.75 319.313C29.75 318.983,29.776 318.451,29.776 318.451C29.776 318.451,30.282 318.147,30.511 318.071C31.727 317.488,32.893 316.829,33.932 315.993C36.72 313.762,38.316 310.747,39.051 307.376C39.204 306.844,39.229 306.286,39.229 305.779C39.229 303.473,37.962 301.8,35.047 301.268C34.312 301.116,33.577 301.04,32.842 301.04C31.017 301.04,29.269 301.521,27.621 302.484C27.419 302.611,27.19 302.763,27.19 302.763L26.253 299.215C26.202 299.038,26.202 298.708,26.202 298.708C26.202 298.708,29.928 292.093,30.434 288.697C30.612 287.709,30.688 286.72,30.688 285.757C30.688 284.972,30.663 284.237,30.536 283.527C30.181 280.891,29.193 278.408,28.534 275.848C28.356 275.088,28.103 274.175,27.216 274.175C26.557 274.175,26.101 274.809,25.695 275.341C23.82 277.926,22.907 280.891,22.73 284.059C22.705 284.566,22.705 285.098,22.705 285.605C22.705 288.545,23.186 291.51,23.566 294.425C23.566 294.653,23.642 294.881,23.693 295.059C22.046 297.39,20.221 299.57,18.65 301.978C17.56 303.701,16.343 305.424,15.583 307.35C15.177 308.288,15 309.403,15 310.493C15 312.749,15.76 315.055,17.078 316.322C17.839 317.057,19.055 317.868,20.246 318.299C21.944 318.907,23.617 319.313,25.391 319.313C25.923 319.313,26.455 319.287,27.013 319.211L27.444 319.135C27.444 319.135,27.469 319.465,27.444 319.642C27.038 321.847,26.506 324.001,25.188 325.826C24.479 326.764,23.82 327.828,22.451 327.93C22.046 327.98,21.868 328.234,21.868 328.563C21.868 328.69,21.894 328.817,21.944 328.944C22.147 329.501,22.4 330.084,22.654 330.642C22.882 331.148,23.237 331.402,23.693 331.402M25.138 292.828C24.859 291.08,24.681 289.356,24.681 287.633C24.681 284.465,25.34 281.373,27.19 278.408C27.621 279.751,27.849 281.119,27.849 282.488C27.849 283.198,27.773 283.933,27.672 284.642C27.19 287.506,26.532 290.269,25.138 292.828M21.387 314.421C20.88 314.396,20.449 314.219,19.967 314.067C19.004 313.737,18.219 313.382,17.965 312.749C17.839 312.47,17.813 312.14,17.813 311.811C17.813 311.406,17.889 310.975,17.965 310.518C17.991 310.316,18.219 309.682,18.295 309.581C19.714 307.046,21.412 304.765,23.211 302.459L24.732 300.457L25.011 301.268C25.29 302.18,25.543 303.625,25.543 303.625C25.543 303.625,24.529 304.943,23.87 305.602C22.046 307.376,21.159 309.606,21.159 312.064C21.159 312.673,21.235 313.306,21.361 313.965C21.387 314.092,21.387 314.219,21.387 314.421M29.269 313.306C28.99 310.924,28.432 309.023,27.925 306.742C27.875 306.463,27.875 306.286,28.001 306.134C28.939 305.957,29.852 305.881,30.815 305.881C31.727 305.881,32.589 305.957,33.501 306.134C34.591 306.362,35.681 306.539,36.542 307.426C36.593 307.503,36.669 307.579,36.745 307.604C35.301 310.518,33.146 312.723,30.08 314.067L29.421 314.32M25.391 315.055C24.124 315.055,22.882 314.726,22.882 314.726C22.882 314.726,22.781 314.219,22.781 313.484C22.781 313.002,22.806 312.419,22.958 311.836C23.313 310.088,24.555 308.846,25.873 307.68C25.974 307.579,26.101 307.503,26.177 307.503C26.303 307.503,26.354 307.655,26.379 307.908C26.709 310.062,27.266 312.166,27.419 314.32C27.444 314.548,27.419 314.878,27.419 314.878C27.419 314.878,26.455 315.131,25.391 315.055"/></g><g class="vf-stave" id="vf-auto23923" stroke-width="1" fill="#999999" stroke="#999999"><path fill="none" d="M10 280L460 280"/><path fill="none" d="M10 290L460 290"/><path fill="none" d="M10 300L460 300"/><path fill="none" d="M10 310L460 310"/><path fill="none" d="M10 320L460 320"/></g><g class="vf-stavebarline" id="vf-auto23924"><rect x="10" y="279.5" width="1" height="41" stroke="none"/></g><g class="vf-stavebarline" id="vf-auto23925"><rect x="460" y="279.5" width="1" height="41" stroke="none"/></g><g class="vf-clef" id="vf-auto23926"><path stroke="none" d="M23.693 331.402C23.87 331.402,24.048 331.377,24.276 331.301C24.707 331.148,25.062 330.92,25.366 330.591C28.382 327.423,29.623 323.596,29.75 319.313C29.75 318.983,29.776 318.451,29.776 318.451C29.776 318.451,30.282 318.147,30.511 318.071C31.727 317.488,32.893 316.829,33.932 315.993C36.72 313.762,38.316 310.747,39.051 307.376C39.204 306.844,39.229 306.286,39.229 305.779C39.229 303.473,37.962 301.8,35.047 301.268C34.312 301.116,33.577 301.04,32.842 301.04C31.017 301.04,29.269 301.521,27.621 302.484C27.419 302.611,27.19 302.763,27.19 302.763L26.253 299.215C26.202 299.038,26.202 298.708,26.202 298.708C26.202 298.708,29.928 292.093,30.434 288.697C30.612 287.709,30.688 286.72,30.688 285.757C30.688 284.972,30.663 284.237,30.536 283.527C30.181 280.891,29.193 278.408,28.534 275.848C28.356 275.088,28.103 274.175,27.216 274.175C26.557 274.175,26.101 274.809,25.695 275.341C23.82 277.926,22.907 280.891,22.73 284.059C22.705 284.566,22.705 285.098,22.705 285.605C22.705 288.545,23.186 291.51,23.566 294.425C23.566 294.653,23.642 294.881,23.693 295.059C22.046 297.39,20.221 299.57,18.65 301.978C17.56 303.701,16.343 305.424,15.583 307.35C15.177 308.288,15 309.403,15 310.493C15 312.749,15.76 315.055,17.078 316.322C17.839 317.057,19.055 317.868,20.246 318.299C21.944 318.907,23.617 319.313,25.391 319.313C25.923 319.313,26.455 319.287,27.013 319.211L27.444 319.135C27.444 319.135,27.469 319.465,27.444 319.642C27.038 321.847,26.506 324.001,25.188 325.826C24.479 326.764,23.82 327.828,22.451 327.93C22.046 327.98,21.868 328.234,21.868 328.563C21.868 328.69,21.894 328.817,21.944 328.944C22.147 329.501,22.4 330.084,22.654 330.642C22.882 331.148,23.237 331.402,23.693 331.402M25.138 292.828C24.859 291.08,24.681 289.356,24.681 287.633C24.681 284.465,25.34 281.373,27.19 278.408C27.621 279.751,27.849 281.119,27.849 282.488C27.849 283.198,27.773 283.933,27.672 284.642C27.19 287.506,26.532 290.269,25.138 292.828M21.387 314.421C20.88 314.396,20.449 314.219,19.967 314.067C19.004 313.737,18.219 313.382,17.965 312.749C17.839 312.47,17.813 312.14,17.813 311.811C17.813 311.406,17.889 310.975,17.965 310.518C17.991 310.316,18.219 309.682,18.295 309.581C19.714 307.046,21.412 304.765,23.211 302.459L24.732 300.457L25.011 301.268C25.29 302.18,25.543 303.625,25.543 303.625C25.543 303.625,24.529 304.943,23.87 305.602C22.046 307.376,21.159 309.606,21.159 312.064C21.159 312.673,21.235 313.306,21.361 313.965C21.387 314.092,21.387 314.219,21.387 314.421M29.269 313.306C28.99 310.924,28.432 309.023,27.925 306.742C27.875 306.463,27.875 306.286,28.001 306.134C28.939 305.957,29.852 305.881,30.815 305.881C31.727 305.881,32.589 305.957,33.501 306.134C34.591 306.362,35.681 306.539,36.542 307.426C36.593 307.503,36.669 307.579,36.745 307.604C35.301 310.518,33.146 312.723,30.08 314.067L29.421 314.32M25.391 315.055C24.124 315.055,22.882 314.726,22.882 314.726C22.882 314.726,22.781 314.219,22.781 313.484C22.781 313.002,22.806 312.419,22.958 311.836C23.313 310.088,24.555 308.846,25.873 307.68C25.974 307.579,26.101 307.503,26.177 307.503C26.303 307.503,26.354 307.655,26.379 307.908C26.709 310.062,27.266 312.166,27.419 314.32C27.444 314.548,27.419 314.878,27.419 314.878C27.419 314.878,26.455 315.131,25.391 315.055"/></g><g class="vf-stavenote" id="vf-auto23927"><g class="vf-stem" id="vf-auto23928" pointer-events="bounding-box"><path stroke-width="1.5" fill="none" d="M97.35 318.2L97.35 255"/></g><g class="vf-notehead" id="vf-auto23932" pointer-events="bounding-box"><path stroke="none" d="M98.797 318.428C98.741 323.229,94.613 327.048,90.008 327.048C89.334 327.048,88.632 326.964,87.958 326.795C86.526 326.43,85.88 325.391,85.571 323.959C85.403 323.229,85.319 322.555,85.319 321.909C85.319 317.332,88.885 314.384,93.293 313.008C93.434 312.952,93.658 312.924,93.855 312.924C95.821 312.924,98.825 315.226,98.825 317.81C98.825 318.006,98.825 318.231,98.797 318.428M91.3 322.864C93.013 322.274,94.894 321.348,96.523 319.832C96.551 319.803,96.607 319.635,96.607 319.523C96.607 319.382,96.551 319.27,96.523 319.242C95.793 318.512,95.231 317.529,94.052 317.36C93.883 317.332,93.743 317.332,93.518 317.332C91.777 317.332,90.401 318.456,88.969 319.242C88.071 319.747,87.06 320.814,87.256 321.741C87.453 322.752,88.913 322.555,89.84 322.752C90.205 322.836,90.542 322.836,91.3 322.864"/><g class="vf-chordsymbol" id="vf-auto23919"><text stroke="none" font-family="PetalumaScript, Arial, sans-serif" font-size="12pt" x="91.347" y="250">F7</text><path stroke="none" d="M111.451 243.554C111.548 243.545,111.574 243.404,111.601 243.316C111.654 243.148,111.663 242.98,111.663 242.83C111.663 242.689,111.654 242.565,111.654 242.424C111.654 242.336,111.654 242.221,111.663 242.132C111.689 241.876,111.715 241.62,111.724 241.364L112.289 241.249C112.316 241.788,112.413 242.309,112.59 242.812C112.607 242.883,112.651 242.954,112.731 242.954C112.81 242.971,112.837 242.883,112.872 242.812C112.961 242.68,112.969 242.512,112.969 242.362C112.987 242.247,112.987 242.141,112.987 242.044C112.987 241.735,112.961 241.417,112.952 241.108L113.685 240.958C114.382 240.817,114.47 240.72,114.523 240.049C114.523 239.881,114.541 239.766,114.523 239.634C114.515 239.475,114.444 239.36,114.312 239.36L114.285 239.36C114.232 239.36,114.197 239.36,114.144 239.369C113.852 239.448,113.534 239.51,113.225 239.563L113.014 239.598C113.022 239.422,113.022 239.227,113.04 239.042C113.049 238.636,113.058 238.23,113.058 237.823C113.42 237.726,113.764 237.629,114.108 237.514C114.294 237.452,114.462 237.347,114.515 237.143C114.559 236.914,114.629 236.702,114.629 236.472C114.629 236.34,114.612 236.207,114.559 236.075C114.515 235.951,114.47 235.89,114.4 235.89L114.373 235.89C114.329 235.89,114.285 235.89,114.232 235.916C113.835 236.075,113.446 236.207,113.04 236.322L112.996 235.633C112.969 235.086,112.952 234.53,112.837 233.982C112.81 233.912,112.819 233.797,112.74 233.797L112.731 233.797L112.696 233.797C112.59 233.823,112.466 233.867,112.448 234.009L112.448 234.247C112.448 234.998,112.475 235.731,112.493 236.472L111.813 236.622C111.813 236.243,111.804 235.863,111.777 235.483C111.768 235.289,111.768 235.113,111.663 234.918C111.38 235.06,111.424 235.298,111.424 235.501C111.398 235.916,111.38 236.305,111.371 236.702C111.018 236.773,110.656 236.826,110.303 236.887C109.782 236.976,109.702 237.055,109.702 237.629C109.667 237.77,109.773 237.929,109.755 238.088C109.729 238.327,109.791 238.406,109.958 238.415C109.994 238.415,110.038 238.406,110.091 238.388C110.506 238.327,110.912 238.265,111.318 238.185L111.283 239.333C111.265 239.545,111.247 239.748,111.221 239.951C110.744 240.049,110.276 240.137,109.808 240.252C109.543 240.313,109.384 240.411,109.384 240.72C109.384 241.02,109.499 241.302,109.517 241.594C109.517 241.735,109.552 241.797,109.658 241.815C109.676 241.815,109.72 241.797,109.773 241.788C110.223 241.682,110.682 241.594,111.142 241.497C111.133 241.656,111.133 241.823,111.133 242C111.133 242.45,111.177 242.883,111.336 243.316C111.362 243.404,111.336 243.554,111.451 243.554M111.786 239.837C111.804 239.563,111.804 239.28,111.813 238.998C111.83 238.698,111.83 238.406,111.83 238.097C112.042 238.062,112.245 238.026,112.448 237.973C112.387 238.556,112.36 239.139,112.325 239.731"/><text stroke="none" font-family="PetalumaScript, Arial, sans-serif" font-size="8.76pt" x="114.865" y="243.6">11</text><path stroke="none" d="M110.076 254.51C110.117 254.51,110.177 254.48,110.248 254.399C110.44 254.248,110.652 254.086,110.863 253.935C112.135 253.027,112.821 251.786,112.821 250.201C112.821 249.999,112.821 249.808,112.791 249.606C112.72 248.899,112.317 248.486,111.701 248.486C111.57 248.486,111.429 248.516,111.267 248.566C111.065 248.617,110.863 248.718,110.652 248.809L110.641 248.819L110.641 248.445C110.641 247.89,110.672 247.345,110.702 246.79C110.702 246.467,110.732 246.165,110.732 245.842C110.732 245.539,110.702 245.216,110.631 244.913C110.601 244.812,110.601 244.621,110.45 244.621L110.44 244.621C110.278 244.641,110.157 244.772,110.157 244.974C110.147 245.378,110.107 245.801,110.117 246.205L110.117 246.659C110.117 247.517,110.076 248.375,110.046 249.232C110.006 250.464,109.794 251.675,109.794 252.906C109.794 253.39,109.824 253.895,109.955 254.379C109.986 254.46,110.016 254.51,110.076 254.51M110.47 252.542C110.5 252.169,110.51 251.776,110.551 251.362C110.581 251.049,110.601 250.726,110.601 250.403L110.652 250.383C110.934 250.262,111.207 250.121,111.509 250.121C111.61 250.121,111.731 250.151,111.842 250.191C112.085 250.272,112.196 250.393,112.185 250.554C112.185 250.635,112.165 250.726,112.105 250.847C111.731 251.584,111.116 252.078,110.47 252.542"/><text stroke="none" font-family="PetalumaScript, Arial, sans-serif" font-size="8.76pt" x="112.68" y="254.8">9</text></g><path stroke="none" d="M74.206 328.208C74.316 328.208,74.48 328.126,74.672 327.907C75.191 327.497,75.766 327.059,76.341 326.648C79.788 324.186,81.648 320.821,81.648 316.525C81.648 315.978,81.648 315.458,81.566 314.911C81.375 312.996,80.28 311.874,78.611 311.874C78.256 311.874,77.873 311.956,77.435 312.093C76.888 312.23,76.341 312.503,75.766 312.75L75.739 312.777L75.739 311.765C75.739 310.26,75.821 308.782,75.903 307.278C75.903 306.402,75.985 305.581,75.985 304.706C75.985 303.885,75.903 303.009,75.711 302.189C75.629 301.915,75.629 301.395,75.219 301.395L75.191 301.395C74.754 301.45,74.425 301.806,74.425 302.353C74.398 303.447,74.289 304.596,74.316 305.691L74.316 306.922C74.316 309.248,74.206 311.573,74.124 313.899C74.015 317.237,73.44 320.52,73.44 323.858C73.44 325.171,73.522 326.539,73.878 327.852C73.96 328.071,74.042 328.208,74.206 328.208M75.274 322.873C75.356 321.86,75.383 320.793,75.492 319.672C75.574 318.824,75.629 317.948,75.629 317.072L75.766 317.018C76.532 316.689,77.271 316.306,78.092 316.306C78.365 316.306,78.694 316.388,78.994 316.498C79.651 316.717,79.952 317.045,79.925 317.483C79.925 317.702,79.87 317.948,79.706 318.276C78.694 320.274,77.025 321.614,75.274 322.873"/></g><g class="vf-notehead" id="vf-auto23933" pointer-events="bounding-box"><path stroke="none" d="M98.797 303.428C98.741 308.229,94.613 312.048,90.008 312.048C89.334 312.048,88.632 311.964,87.958 311.795C86.526 311.43,85.88 310.391,85.571 308.959C85.403 308.229,85.319 307.555,85.319 306.909C85.319 302.332,88.885 299.384,93.293 298.008C93.434 297.952,93.658 297.924,93.855 297.924C95.821 297.924,98.825 300.226,98.825 302.81C98.825 303.006,98.825 303.231,98.797 303.428M91.3 307.864C93.013 307.274,94.894 306.348,96.523 304.832C96.551 304.803,96.607 304.635,96.607 304.523C96.607 304.382,96.551 304.27,96.523 304.242C95.793 303.512,95.231 302.529,94.052 302.36C93.883 302.332,93.743 302.332,93.518 302.332C91.777 302.332,90.401 303.456,88.969 304.242C88.071 304.747,87.06 305.814,87.256 306.741C87.453 307.752,88.913 307.555,89.84 307.752C90.205 307.836,90.542 307.836,91.3 307.864"/></g><g class="vf-notehead" id="vf-auto23934" pointer-events="bounding-box"><path stroke="none" d="M98.797 288.428C98.741 293.229,94.613 297.048,90.008 297.048C89.334 297.048,88.632 296.964,87.958 296.795C86.526 296.43,85.88 295.391,85.571 293.959C85.403 293.229,85.319 292.555,85.319 291.909C85.319 287.332,88.885 284.384,93.293 283.008C93.434 282.952,93.658 282.924,93.855 282.924C95.821 282.924,98.825 285.226,98.825 287.81C98.825 288.006,98.825 288.231,98.797 288.428M91.3 292.864C93.013 292.274,94.894 291.348,96.523 289.832C96.551 289.803,96.607 289.635,96.607 289.523C96.607 289.382,96.551 289.27,96.523 289.242C95.793 288.512,95.231 287.529,94.052 287.36C93.883 287.332,93.743 287.332,93.518 287.332C91.777 287.332,90.401 288.456,88.969 289.242C88.071 289.747,87.06 290.814,87.256 291.741C87.453 292.752,88.913 292.555,89.84 292.752C90.205 292.836,90.542 292.836,91.3 292.864"/></g></g><g class="vf-stavenote" id="vf-auto23937"><path stroke-width="1.4" fill="none" stroke="#444" d="M249.821 270L269.328 270"/><path stroke-width="1.4" fill="none" stroke="#444" d="M249.821 260L269.328 260"/><g class="vf-stem" id="vf-auto23938" pointer-events="bounding-box"><path stroke-width="1.5" fill="none" d="M253.571 261.8L253.571 330"/></g><g class="vf-notehead" id="vf-auto23944" pointer-events="bounding-box"><path stroke="none" d="M266.3 293.428C266.244 298.229,262.116 302.048,257.511 302.048C256.837 302.048,256.135 301.964,255.461 301.795C254.029 301.43,253.383 300.391,253.074 298.959C252.906 298.229,252.821 297.555,252.821 296.909C252.821 292.332,256.387 289.384,260.796 288.008C260.936 287.952,261.161 287.924,261.358 287.924C263.323 287.924,266.328 290.226,266.328 292.81C266.328 293.006,266.328 293.231,266.3 293.428M258.802 297.864C260.515 297.274,262.397 296.348,264.025 294.832C264.053 294.803,264.109 294.635,264.109 294.523C264.109 294.382,264.053 294.27,264.025 294.242C263.295 293.512,262.734 292.529,261.554 292.36C261.386 292.332,261.245 292.332,261.021 292.332C259.28 292.332,257.904 293.456,256.472 294.242C255.573 294.747,254.562 295.814,254.759 296.741C254.955 297.752,256.416 297.555,257.342 297.752C257.707 297.836,258.044 297.836,258.802 297.864"/><g class="vf-chordsymbol" id="vf-auto23922"><text stroke="none" font-family="PetalumaScript, Arial, sans-serif" font-size="12pt" x="242.377" y="250">C</text><text stroke="none" font-family="PetalumaScript, Arial, sans-serif" font-size="8.76pt" x="252.665" y="243.6">sus4</text></g></g><g class="vf-notehead" id="vf-auto23943" pointer-events="bounding-box"><path stroke="none" d="M266.3 283.428C266.244 288.229,262.116 292.048,257.511 292.048C256.837 292.048,256.135 291.964,255.461 291.795C254.029 291.43,253.383 290.391,253.074 288.959C252.906 288.229,252.821 287.555,252.821 286.909C252.821 282.332,256.387 279.384,260.796 278.008C260.936 277.952,261.161 277.924,261.358 277.924C263.323 277.924,266.328 280.226,266.328 282.81C266.328 283.006,266.328 283.231,266.3 283.428M258.802 287.864C260.515 287.274,262.397 286.348,264.025 284.832C264.053 284.803,264.109 284.635,264.109 284.523C264.109 284.382,264.053 284.27,264.025 284.242C263.295 283.512,262.734 282.529,261.554 282.36C261.386 282.332,261.245 282.332,261.021 282.332C259.28 282.332,257.904 283.456,256.472 284.242C255.573 284.747,254.562 285.814,254.759 286.741C254.955 287.752,256.416 287.555,257.342 287.752C257.707 287.836,258.044 287.836,258.802 287.864"/></g><g class="vf-notehead" id="vf-auto23942" pointer-events="bounding-box"><path stroke="none" d="M266.3 258.428C266.244 263.229,262.116 267.048,257.511 267.048C256.837 267.048,256.135 266.964,255.461 266.795C254.029 266.43,253.383 265.391,253.074 263.959C252.906 263.229,252.821 262.555,252.821 261.909C252.821 257.332,256.387 254.384,260.796 253.008C260.936 252.952,261.161 252.924,261.358 252.924C263.323 252.924,266.328 255.226,266.328 257.81C266.328 258.006,266.328 258.231,266.3 258.428M258.802 262.864C260.515 262.274,262.397 261.348,264.025 259.832C264.053 259.803,264.109 259.635,264.109 259.523C264.109 259.382,264.053 259.27,264.025 259.242C263.295 258.512,262.734 257.529,261.554 257.36C261.386 257.332,261.245 257.332,261.021 257.332C259.28 257.332,257.904 258.456,256.472 259.242C255.573 259.747,254.562 260.814,254.759 261.741C254.955 262.752,256.416 262.555,257.342 262.752C257.707 262.836,258.044 262.836,258.802 262.864"/></g></g></svg>