<svg xmlns="http://www.w3.org/2000/svg" stroke-width="0.3" stroke-dasharray="none" fill="black" stroke="black" font-family="Arial, sans-serif" font-size="10pt" font-weight="normal" font-style="normal" width="700" height="130" viewBox="0 0 700 130" style="width: 700px; height: 130px; border: none;"><g class="vf-stave" id="vf-auto17412" stroke-width="1" fill="#999999" stroke="#999999"><path fill="none" d="M10 50L660 50"/><path fill="none" d="M10 60L660 60"/><path fill="none" d="M10 70L660 70"/><path fill="none" d="M10 80L660 80"/><path fill="none" d="M10 90L660 90"/></g><g class="vf-stavebarline" id="vf-auto17413"><rect x="10" y="49.5" width="1" height="41" stroke="none"/></g><g class="vf-stavebarline" id="vf-auto17414"><rect x="660" y="49.5" width="1" height="41" stroke="none"/></g><g class="vf-stavenote" id="vf-auto17416"><path stroke-width="1.4" fill="none" stroke="#444" d="M156.734 100L175.875 100"/><g class="vf-notehead" id="vf-auto17420" pointer-events="bounding-box"><path stroke="none" d="M159.734 101.685C159.734 103.426,160.997 105.391,164.254 105.391C168.466 105.391,172.875 101.938,172.875 98.371C172.875 95.985,170.853 94.665,168.354 94.665C164.423 94.665,159.734 97.978,159.734 101.685"/><g class="vf-stavenote" id="vf-auto17481"><path stroke-width="1.4" fill="none" stroke="#444" d="M27 100L44.141 100"/><g class="vf-notehead" id="vf-auto17487" pointer-events="bounding-box"><path stroke="none" d="M29 101.112C29 102.261,29.834 103.558,31.984 103.558C34.764 103.558,37.673 101.279,37.673 98.925C37.673 97.35,36.339 96.479,34.69 96.479C32.095 96.479,29 98.666,29 101.112"/></g></g><g class="vf-stavenote" id="vf-auto17488"><path stroke-width="1.4" fill="none" stroke="#444" d="M39.673 100L56.815 100"/><g class="vf-notehead" id="vf-auto17494" pointer-events="bounding-box"><path stroke="none" d="M41.673 101.112C41.673 102.261,42.507 103.558,44.657 103.558C47.437 103.558,50.347 101.279,50.347 98.925C50.347 97.35,49.012 96.479,47.363 96.479C44.768 96.479,41.673 98.666,41.673 101.112"/></g></g><g class="vf-stavenote" id="vf-auto17495"><path stroke-width="1.4" fill="none" stroke="#444" d="M52.347 100L69.488 100"/><g class="vf-notehead" id="vf-auto17501" pointer-events="bounding-box"><path stroke="none" d="M54.347 101.112C54.347 102.261,55.181 103.558,57.33 103.558C60.11 103.558,63.02 101.279,63.02 98.925C63.02 97.35,61.686 96.479,60.036 96.479C57.442 96.479,54.347 98.666,54.347 101.112"/></g></g><g class="vf-stavenote" id="vf-auto17502"><path stroke-width="1.4" fill="none" stroke="#444" d="M65.02 100L82.161 100"/><g class="vf-notehead" id="vf-auto17508" pointer-events="bounding-box"><path stroke="none" d="M67.02 101.112C67.02 102.261,67.854 103.558,70.004 103.558C72.784 103.558,75.693 101.279,75.693 98.925C75.693 97.35,74.359 96.479,72.71 96.479C70.115 96.479,67.02 98.666,67.02 101.112"/></g></g><g class="vf-stavenote" id="vf-auto17509"><path stroke-width="1.4" fill="none" stroke="#444" d="M77.693 100L94.835 100"/><g class="vf-notehead" id="vf-auto17515" pointer-events="bounding-box"><path stroke="none" d="M79.693 101.112C79.693 102.261,80.527 103.558,82.677 103.558C85.457 103.558,88.367 101.279,88.367 98.925C88.367 97.35,87.032 96.479,85.383 96.479C82.788 96.479,79.693 98.666,79.693 101.112"/></g></g><g class="vf-stavenote" id="vf-auto17516"><path stroke-width="1.4" fill="none" stroke="#444" d="M90.367 100L107.508 100"/><g class="vf-notehead" id="vf-auto17522" pointer-events="bounding-box"><path stroke="none" d="M92.367 101.112C92.367 102.261,93.201 103.558,95.351 103.558C98.13 103.558,101.04 101.279,101.04 98.925C101.04 97.35,99.706 96.479,98.056 96.479C95.462 96.479,92.367 98.666,92.367 101.112"/></g></g><g class="vf-stavenote" id="vf-auto17523"><path stroke-width="1.4" fill="none" stroke="#444" d="M103.04 100L120.182 100"/><g class="vf-notehead" id="vf-auto17529" pointer-events="bounding-box"><path stroke="none" d="M105.04 101.112C105.04 102.261,105.874 103.558,108.024 103.558C110.804 103.558,113.713 101.279,113.713 98.925C113.713 97.35,112.379 96.479,110.73 96.479C108.135 96.479,105.04 98.666,105.04 101.112"/></g></g><g class="vf-stavenote" id="vf-auto17530"><path stroke-width="1.4" fill="none" stroke="#444" d="M115.713 100L132.855 100"/><g class="vf-notehead" id="vf-auto17536" pointer-events="bounding-box"><path stroke="none" d="M117.713 101.112C117.713 102.261,118.547 103.558,120.697 103.558C123.477 103.558,126.387 101.279,126.387 98.925C126.387 97.35,125.052 96.479,123.403 96.479C120.808 96.479,117.713 98.666,117.713 101.112"/></g></g><g class="vf-stavenote" id="vf-auto17537"><path stroke-width="1.4" fill="none" stroke="#444" d="M128.387 100L145.528 100"/><g class="vf-notehead" id="vf-auto17543" pointer-events="bounding-box"><path stroke="none" d="M130.387 101.112C130.387 102.261,131.221 103.558,133.371 103.558C136.151 103.558,139.06 101.279,139.06 98.925C139.06 97.35,137.726 96.479,136.076 96.479C133.482 96.479,130.387 98.666,130.387 101.112"/></g></g><g class="vf-stavenote" id="vf-auto17544"><path stroke-width="1.4" fill="none" stroke="#444" d="M141.06 100L158.202 100"/><g class="vf-notehead" id="vf-auto17550" pointer-events="bounding-box"><path stroke="none" d="M143.06 101.112C143.06 102.261,143.894 103.558,146.044 103.558C148.824 103.558,151.734 101.279,151.734 98.925C151.734 97.35,150.399 96.479,148.75 96.479C146.155 96.479,143.06 98.666,143.06 101.112"/></g></g><g class="vf-stem" id="vf-auto17482" pointer-events="bounding-box"><path stroke-width="1.5" fill="none" d="M36.923 98L36.923 77.65"/></g><g class="vf-stem" id="vf-auto17489" pointer-events="bounding-box"><path stroke-width="1.5" fill="none" d="M49.597 98L49.597 77.65"/></g><g class="vf-beam" id="vf-auto17553"><path stroke="none" d="M36.173 76.9L36.173 79.9L49.847 79.9L49.847 76.9Z"/></g><g class="vf-stem" id="vf-auto17496" pointer-events="bounding-box"><path stroke-width="1.5" fill="none" d="M62.27 98L62.27 77.65"/></g><g class="vf-stem" id="vf-auto17503" pointer-events="bounding-box"><path stroke-width="1.5" fill="none" d="M74.943 98L74.943 77.65"/></g><g class="vf-beam" id="vf-auto17554"><path stroke="none" d="M61.52 76.9L61.52 79.9L75.193 79.9L75.193 76.9Z"/><path stroke="none" d="M61.52 81.4L61.52 84.4L75.193 84.4L75.193 81.4Z"/></g><g class="vf-stem" id="vf-auto17510" pointer-events="bounding-box"><path stroke-width="1.5" fill="none" d="M87.617 98L87.617 72.7"/></g><g class="vf-stem" id="vf-auto17517" pointer-events="bounding-box"><path stroke-width="1.5" fill="none" d="M100.29 98L100.29 72.7"/></g><g class="vf-beam" id="vf-auto17555"><path stroke="none" d="M86.867 71.95L86.867 74.95L100.54 74.95L100.54 71.95Z"/><path stroke="none" d="M86.867 76.45L86.867 79.45L100.54 79.45L100.54 76.45Z"/><path stroke="none" d="M86.867 80.95L86.867 83.95L100.54 83.95L100.54 80.95Z"/></g><g class="vf-stem" id="vf-auto17524" pointer-events="bounding-box"><path stroke-width="1.5" fill="none" d="M112.963 98L112.963 67.75"/></g><g class="vf-stem" id="vf-auto17531" pointer-events="bounding-box"><path stroke-width="1.5" fill="none" d="M125.637 98L125.637 67.75"/></g><g class="vf-beam" id="vf-auto17556"><path stroke="none" d="M112.213 67L112.213 70L125.887 70L125.887 67Z"/><path stroke="none" d="M112.213 71.5L112.213 74.5L125.887 74.5L125.887 71.5Z"/><path stroke="none" d="M112.213 76L112.213 79L125.887 79L125.887 76Z"/><path stroke="none" d="M112.213 80.5L112.213 83.5L125.887 83.5L125.887 80.5Z"/></g><g class="vf-stem" id="vf-auto17538" pointer-events="bounding-box"><path stroke-width="1.5" fill="none" d="M138.31 98L138.31 62.8"/></g><g class="vf-stem" id="vf-auto17545" pointer-events="bounding-box"><path stroke-width="1.5" fill="none" d="M150.984 98L150.984 62.8"/></g><g class="vf-beam" id="vf-auto17557"><path stroke="none" d="M137.56 62.05L137.56 65.05L151.234 65.05L151.234 62.05Z"/><path stroke="none" d="M137.56 66.55L137.56 69.55L151.234 69.55L151.234 66.55Z"/><path stroke="none" d="M137.56 71.05L137.56 74.05L151.234 74.05L151.234 71.05Z"/><path stroke="none" d="M137.56 75.55L137.56 78.55L151.234 78.55L151.234 75.55Z"/><path stroke="none" d="M137.56 80.05L137.56 83.05L151.234 83.05L151.234 80.05Z"/></g></g></g><g class="vf-stavenote" id="vf-auto17422"><path stroke-width="1.4" fill="none" stroke="#444" d="M177.093 100L196.234 100"/><g class="vf-notehead" id="vf-auto17426" pointer-events="bounding-box"><path stroke="none" d="M180.093 101.685C180.093 103.426,181.356 105.391,184.614 105.391C188.826 105.391,193.234 101.938,193.234 98.371C193.234 95.985,191.213 94.665,188.713 94.665C184.782 94.665,180.093 97.978,180.093 101.685"/></g></g><g class="vf-stavenote" id="vf-auto17429"><path stroke-width="1.4" fill="none" stroke="#444" d="M197.452 100L216.594 100"/><g class="vf-notehead" id="vf-auto17433" pointer-events="bounding-box"><path stroke="none" d="M200.452 101.685C200.452 103.426,201.716 105.391,204.973 105.391C209.185 105.391,213.594 101.938,213.594 98.371C213.594 95.985,211.572 94.665,209.073 94.665C205.141 94.665,200.452 97.978,200.452 101.685"/></g></g><g class="vf-stavenote" id="vf-auto17435"><path stroke-width="1.4" fill="none" stroke="#444" d="M215.001 100L234.142 100"/><g class="vf-notehead" id="vf-auto17439" pointer-events="bounding-box"><path stroke="none" d="M218.001 101.685C218.001 103.426,219.265 105.391,222.522 105.391C226.734 105.391,231.142 101.938,231.142 98.371C231.142 95.985,229.121 94.665,226.621 94.665C222.69 94.665,218.001 97.978,218.001 101.685"/></g></g><g class="vf-stavenote" id="vf-auto17442"><path stroke-width="1.4" fill="none" stroke="#444" d="M232.55 100L251.691 100"/><g class="vf-notehead" id="vf-auto17446" pointer-events="bounding-box"><path stroke="none" d="M235.55 101.685C235.55 103.426,236.813 105.391,240.071 105.391C244.283 105.391,248.691 101.938,248.691 98.371C248.691 95.985,246.669 94.665,244.17 94.665C240.239 94.665,235.55 97.978,235.55 101.685"/></g></g><g class="vf-stavenote" id="vf-auto17448"><path stroke-width="1.4" fill="none" stroke="#444" d="M249.612 100L268.753 100"/><g class="vf-notehead" id="vf-auto17452" pointer-events="bounding-box"><path stroke="none" d="M252.612 101.685C252.612 103.426,253.875 105.391,257.132 105.391C261.344 105.391,265.753 101.938,265.753 98.371C265.753 95.985,263.731 94.665,261.232 94.665C257.301 94.665,252.612 97.978,252.612 101.685"/></g></g><g class="vf-stavenote" id="vf-auto17455"><path stroke-width="1.4" fill="none" stroke="#444" d="M266.673 100L285.815 100"/><g class="vf-notehead" id="vf-auto17459" pointer-events="bounding-box"><path stroke="none" d="M269.673 101.685C269.673 103.426,270.937 105.391,274.194 105.391C278.406 105.391,282.815 101.938,282.815 98.371C282.815 95.985,280.793 94.665,278.294 94.665C274.363 94.665,269.673 97.978,269.673 101.685"/></g></g><g class="vf-stavenote" id="vf-auto17461"><path stroke-width="1.4" fill="none" stroke="#444" d="M283.735 100L302.877 100"/><g class="vf-notehead" id="vf-auto17465" pointer-events="bounding-box"><path stroke="none" d="M286.735 101.685C286.735 103.426,287.999 105.391,291.256 105.391C295.468 105.391,299.877 101.938,299.877 98.371C299.877 95.985,297.855 94.665,295.356 94.665C291.424 94.665,286.735 97.978,286.735 101.685"/></g></g><g class="vf-stavenote" id="vf-auto17468"><path stroke-width="1.4" fill="none" stroke="#444" d="M300.797 100L319.938 100"/><g class="vf-notehead" id="vf-auto17472" pointer-events="bounding-box"><path stroke="none" d="M303.797 101.685C303.797 103.426,305.06 105.391,308.318 105.391C312.53 105.391,316.938 101.938,316.938 98.371C316.938 95.985,314.917 94.665,312.417 94.665C308.486 94.665,303.797 97.978,303.797 101.685"/></g></g><g class="vf-stavenote" id="vf-auto17474"><path stroke-width="1.4" fill="none" stroke="#444" d="M317.859 100L337 100"/><g class="vf-notehead" id="vf-auto17478" pointer-events="bounding-box"><path stroke="none" d="M320.859 101.685C320.859 103.426,322.122 105.391,325.38 105.391C329.592 105.391,334 101.938,334 98.371C334 95.985,331.978 94.665,329.479 94.665C325.548 94.665,320.859 97.978,320.859 101.685"/></g></g><g class="vf-stavenote" id="vf-auto17558"><path stroke-width="1.4" fill="none" stroke="#444" d="M465.734 40L484.875 40"/><path stroke-width="1.4" fill="none" stroke="#444" d="M465.734 30L484.875 30"/><g class="vf-notehead" id="vf-auto17562" pointer-events="bounding-box"><path stroke="none" d="M468.734 31.685C468.734 33.426,469.997 35.391,473.254 35.391C477.466 35.391,481.875 31.938,481.875 28.371C481.875 25.985,479.853 24.665,477.354 24.665C473.423 24.665,468.734 27.978,468.734 31.685"/><g class="vf-stavenote" id="vf-auto17623"><path stroke-width="1.4" fill="none" stroke="#444" d="M336 40L353.142 40"/><path stroke-width="1.4" fill="none" stroke="#444" d="M336 30L353.142 30"/><g class="vf-notehead" id="vf-auto17629" pointer-events="bounding-box"><path stroke="none" d="M338 31.112C338 32.261,338.834 33.558,340.984 33.558C343.764 33.558,346.673 31.279,346.673 28.925C346.673 27.35,345.339 26.479,343.69 26.479C341.095 26.479,338 28.666,338 31.112"/></g></g><g class="vf-stavenote" id="vf-auto17630"><path stroke-width="1.4" fill="none" stroke="#444" d="M348.673 40L365.815 40"/><path stroke-width="1.4" fill="none" stroke="#444" d="M348.673 30L365.815 30"/><g class="vf-notehead" id="vf-auto17636" pointer-events="bounding-box"><path stroke="none" d="M350.673 31.112C350.673 32.261,351.507 33.558,353.657 33.558C356.437 33.558,359.347 31.279,359.347 28.925C359.347 27.35,358.012 26.479,356.363 26.479C353.768 26.479,350.673 28.666,350.673 31.112"/></g></g><g class="vf-stavenote" id="vf-auto17637"><path stroke-width="1.4" fill="none" stroke="#444" d="M361.347 40L378.488 40"/><path stroke-width="1.4" fill="none" stroke="#444" d="M361.347 30L378.488 30"/><g class="vf-notehead" id="vf-auto17643" pointer-events="bounding-box"><path stroke="none" d="M363.347 31.112C363.347 32.261,364.181 33.558,366.331 33.558C369.111 33.558,372.02 31.279,372.02 28.925C372.02 27.35,370.686 26.479,369.036 26.479C366.442 26.479,363.347 28.666,363.347 31.112"/></g></g><g class="vf-stavenote" id="vf-auto17644"><path stroke-width="1.4" fill="none" stroke="#444" d="M374.02 40L391.162 40"/><path stroke-width="1.4" fill="none" stroke="#444" d="M374.02 30L391.162 30"/><g class="vf-notehead" id="vf-auto17650" pointer-events="bounding-box"><path stroke="none" d="M376.02 31.112C376.02 32.261,376.854 33.558,379.004 33.558C381.784 33.558,384.694 31.279,384.694 28.925C384.694 27.35,383.359 26.479,381.71 26.479C379.115 26.479,376.02 28.666,376.02 31.112"/></g></g><g class="vf-stavenote" id="vf-auto17651"><path stroke-width="1.4" fill="none" stroke="#444" d="M386.694 40L403.835 40"/><path stroke-width="1.4" fill="none" stroke="#444" d="M386.694 30L403.835 30"/><g class="vf-notehead" id="vf-auto17657" pointer-events="bounding-box"><path stroke="none" d="M388.694 31.112C388.694 32.261,389.527 33.558,391.677 33.558C394.457 33.558,397.367 31.279,397.367 28.925C397.367 27.35,396.032 26.479,394.383 26.479C391.788 26.479,388.694 28.666,388.694 31.112"/></g></g><g class="vf-stavenote" id="vf-auto17658"><path stroke-width="1.4" fill="none" stroke="#444" d="M399.367 40L416.508 40"/><path stroke-width="1.4" fill="none" stroke="#444" d="M399.367 30L416.508 30"/><g class="vf-notehead" id="vf-auto17664" pointer-events="bounding-box"><path stroke="none" d="M401.367 31.112C401.367 32.261,402.201 33.558,404.351 33.558C407.131 33.558,410.04 31.279,410.04 28.925C410.04 27.35,408.706 26.479,407.056 26.479C404.462 26.479,401.367 28.666,401.367 31.112"/></g></g><g class="vf-stavenote" id="vf-auto17665"><path stroke-width="1.4" fill="none" stroke="#444" d="M412.04 40L429.182 40"/><path stroke-width="1.4" fill="none" stroke="#444" d="M412.04 30L429.182 30"/><g class="vf-notehead" id="vf-auto17671" pointer-events="bounding-box"><path stroke="none" d="M414.04 31.112C414.04 32.261,414.874 33.558,417.024 33.558C419.804 33.558,422.714 31.279,422.714 28.925C422.714 27.35,421.379 26.479,419.73 26.479C417.135 26.479,414.04 28.666,414.04 31.112"/></g></g><g class="vf-stavenote" id="vf-auto17672"><path stroke-width="1.4" fill="none" stroke="#444" d="M424.714 40L441.855 40"/><path stroke-width="1.4" fill="none" stroke="#444" d="M424.714 30L441.855 30"/><g class="vf-notehead" id="vf-auto17678" pointer-events="bounding-box"><path stroke="none" d="M426.714 31.112C426.714 32.261,427.548 33.558,429.697 33.558C432.477 33.558,435.387 31.279,435.387 28.925C435.387 27.35,434.053 26.479,432.403 26.479C429.809 26.479,426.714 28.666,426.714 31.112"/></g></g><g class="vf-stavenote" id="vf-auto17679"><path stroke-width="1.4" fill="none" stroke="#444" d="M437.387 40L454.528 40"/><path stroke-width="1.4" fill="none" stroke="#444" d="M437.387 30L454.528 30"/><g class="vf-notehead" id="vf-auto17685" pointer-events="bounding-box"><path stroke="none" d="M439.387 31.112C439.387 32.261,440.221 33.558,442.371 33.558C445.151 33.558,448.06 31.279,448.06 28.925C448.06 27.35,446.726 26.479,445.076 26.479C442.482 26.479,439.387 28.666,439.387 31.112"/></g></g><g class="vf-stavenote" id="vf-auto17686"><path stroke-width="1.4" fill="none" stroke="#444" d="M450.06 40L467.202 40"/><path stroke-width="1.4" fill="none" stroke="#444" d="M450.06 30L467.202 30"/><g class="vf-notehead" id="vf-auto17692" pointer-events="bounding-box"><path stroke="none" d="M452.06 31.112C452.06 32.261,452.894 33.558,455.044 33.558C457.824 33.558,460.734 31.279,460.734 28.925C460.734 27.35,459.399 26.479,457.75 26.479C455.155 26.479,452.06 28.666,452.06 31.112"/></g></g><g class="vf-stem" id="vf-auto17624" pointer-events="bounding-box"><path stroke-width="1.5" fill="none" d="M338.75 32L338.75 55.65"/></g><g class="vf-stem" id="vf-auto17631" pointer-events="bounding-box"><path stroke-width="1.5" fill="none" d="M351.423 32L351.423 55.65"/></g><g class="vf-beam" id="vf-auto17695"><path stroke="none" d="M338 56.4L338 53.4L351.673 53.4L351.673 56.4Z"/></g><g class="vf-stem" id="vf-auto17638" pointer-events="bounding-box"><path stroke-width="1.5" fill="none" d="M364.097 32L364.097 55.65"/></g><g class="vf-stem" id="vf-auto17645" pointer-events="bounding-box"><path stroke-width="1.5" fill="none" d="M376.77 32L376.77 55.65"/></g><g class="vf-beam" id="vf-auto17696"><path stroke="none" d="M363.347 56.4L363.347 53.4L377.02 53.4L377.02 56.4Z"/><path stroke="none" d="M363.347 51.9L363.347 48.9L377.02 48.9L377.02 51.9Z"/></g><g class="vf-stem" id="vf-auto17652" pointer-events="bounding-box"><path stroke-width="1.5" fill="none" d="M389.444 32L389.444 60.6"/></g><g class="vf-stem" id="vf-auto17659" pointer-events="bounding-box"><path stroke-width="1.5" fill="none" d="M402.117 32L402.117 60.6"/></g><g class="vf-beam" id="vf-auto17697"><path stroke="none" d="M388.694 61.35L388.694 58.35L402.367 58.35L402.367 61.35Z"/><path stroke="none" d="M388.694 56.85L388.694 53.85L402.367 53.85L402.367 56.85Z"/><path stroke="none" d="M388.694 52.35L388.694 49.35L402.367 49.35L402.367 52.35Z"/></g><g class="vf-stem" id="vf-auto17666" pointer-events="bounding-box"><path stroke-width="1.5" fill="none" d="M414.79 32L414.79 65.55"/></g><g class="vf-stem" id="vf-auto17673" pointer-events="bounding-box"><path stroke-width="1.5" fill="none" d="M427.464 32L427.464 65.55"/></g><g class="vf-beam" id="vf-auto17698"><path stroke="none" d="M414.04 66.3L414.04 63.3L427.714 63.3L427.714 66.3Z"/><path stroke="none" d="M414.04 61.8L414.04 58.8L427.714 58.8L427.714 61.8Z"/><path stroke="none" d="M414.04 57.3L414.04 54.3L427.714 54.3L427.714 57.3Z"/><path stroke="none" d="M414.04 52.8L414.04 49.8L427.714 49.8L427.714 52.8Z"/></g><g class="vf-stem" id="vf-auto17680" pointer-events="bounding-box"><path stroke-width="1.5" fill="none" d="M440.137 32L440.137 70.5"/></g><g class="vf-stem" id="vf-auto17687" pointer-events="bounding-box"><path stroke-width="1.5" fill="none" d="M452.81 32L452.81 70.5"/></g><g class="vf-beam" id="vf-auto17699"><path stroke="none" d="M439.387 71.25L439.387 68.25L453.06 68.25L453.06 71.25Z"/><path stroke="none" d="M439.387 66.75L439.387 63.75L453.06 63.75L453.06 66.75Z"/><path stroke="none" d="M439.387 62.25L439.387 59.25L453.06 59.25L453.06 62.25Z"/><path stroke="none" d="M439.387 57.75L439.387 54.75L453.06 54.75L453.06 57.75Z"/><path stroke="none" d="M439.387 53.25L439.387 50.25L453.06 50.25L453.06 53.25Z"/></g></g></g><g class="vf-stavenote" id="vf-auto17564"><path stroke-width="1.4" fill="none" stroke="#444" d="M486.093 40L505.234 40"/><path stroke-width="1.4" fill="none" stroke="#444" d="M486.093 30L505.234 30"/><g class="vf-notehead" id="vf-auto17568" pointer-events="bounding-box"><path stroke="none" d="M489.093 31.685C489.093 33.426,490.357 35.391,493.614 35.391C497.826 35.391,502.234 31.938,502.234 28.371C502.234 25.985,500.213 24.665,497.713 24.665C493.782 24.665,489.093 27.978,489.093 31.685"/></g></g><g class="vf-stavenote" id="vf-auto17571"><path stroke-width="1.4" fill="none" stroke="#444" d="M506.452 40L525.594 40"/><path stroke-width="1.4" fill="none" stroke="#444" d="M506.452 30L525.594 30"/><g class="vf-notehead" id="vf-auto17575" pointer-events="bounding-box"><path stroke="none" d="M509.452 31.685C509.452 33.426,510.716 35.391,513.973 35.391C518.185 35.391,522.594 31.938,522.594 28.371C522.594 25.985,520.572 24.665,518.073 24.665C514.142 24.665,509.452 27.978,509.452 31.685"/></g></g><g class="vf-stavenote" id="vf-auto17577"><path stroke-width="1.4" fill="none" stroke="#444" d="M524.001 40L543.142 40"/><path stroke-width="1.4" fill="none" stroke="#444" d="M524.001 30L543.142 30"/><g class="vf-notehead" id="vf-auto17581" pointer-events="bounding-box"><path stroke="none" d="M527.001 31.685C527.001 33.426,528.265 35.391,531.522 35.391C535.734 35.391,540.142 31.938,540.142 28.371C540.142 25.985,538.121 24.665,535.622 24.665C531.69 24.665,527.001 27.978,527.001 31.685"/></g></g><g class="vf-stavenote" id="vf-auto17584"><path stroke-width="1.4" fill="none" stroke="#444" d="M541.55 40L560.691 40"/><path stroke-width="1.4" fill="none" stroke="#444" d="M541.55 30L560.691 30"/><g class="vf-notehead" id="vf-auto17588" pointer-events="bounding-box"><path stroke="none" d="M544.55 31.685C544.55 33.426,545.813 35.391,549.071 35.391C553.283 35.391,557.691 31.938,557.691 28.371C557.691 25.985,555.669 24.665,553.17 24.665C549.239 24.665,544.55 27.978,544.55 31.685"/></g></g><g class="vf-stavenote" id="vf-auto17590"><path stroke-width="1.4" fill="none" stroke="#444" d="M558.612 40L577.753 40"/><path stroke-width="1.4" fill="none" stroke="#444" d="M558.612 30L577.753 30"/><g class="vf-notehead" id="vf-auto17594" pointer-events="bounding-box"><path stroke="none" d="M561.612 31.685C561.612 33.426,562.875 35.391,566.132 35.391C570.344 35.391,574.753 31.938,574.753 28.371C574.753 25.985,572.731 24.665,570.232 24.665C566.301 24.665,561.612 27.978,561.612 31.685"/></g></g><g class="vf-stavenote" id="vf-auto17597"><path stroke-width="1.4" fill="none" stroke="#444" d="M575.673 40L594.815 40"/><path stroke-width="1.4" fill="none" stroke="#444" d="M575.673 30L594.815 30"/><g class="vf-notehead" id="vf-auto17601" pointer-events="bounding-box"><path stroke="none" d="M578.673 31.685C578.673 33.426,579.937 35.391,583.194 35.391C587.406 35.391,591.815 31.938,591.815 28.371C591.815 25.985,589.793 24.665,587.294 24.665C583.363 24.665,578.673 27.978,578.673 31.685"/></g></g><g class="vf-stavenote" id="vf-auto17603"><path stroke-width="1.4" fill="none" stroke="#444" d="M592.735 40L611.877 40"/><path stroke-width="1.4" fill="none" stroke="#444" d="M592.735 30L611.877 30"/><g class="vf-notehead" id="vf-auto17607" pointer-events="bounding-box"><path stroke="none" d="M595.735 31.685C595.735 33.426,596.999 35.391,600.256 35.391C604.468 35.391,608.877 31.938,608.877 28.371C608.877 25.985,606.855 24.665,604.356 24.665C600.425 24.665,595.735 27.978,595.735 31.685"/></g></g><g class="vf-stavenote" id="vf-auto17610"><path stroke-width="1.4" fill="none" stroke="#444" d="M609.797 40L628.938 40"/><path stroke-width="1.4" fill="none" stroke="#444" d="M609.797 30L628.938 30"/><g class="vf-notehead" id="vf-auto17614" pointer-events="bounding-box"><path stroke="none" d="M612.797 31.685C612.797 33.426,614.061 35.391,617.318 35.391C621.53 35.391,625.938 31.938,625.938 28.371C625.938 25.985,623.917 24.665,621.418 24.665C617.486 24.665,612.797 27.978,612.797 31.685"/></g></g><g class="vf-stavenote" id="vf-auto17616"><path stroke-width="1.4" fill="none" stroke="#444" d="M626.859 40L646 40"/><path stroke-width="1.4" fill="none" stroke="#444" d="M626.859 30L646 30"/><g class="vf-notehead" id="vf-auto17620" pointer-events="bounding-box"><path stroke="none" d="M629.859 31.685C629.859 33.426,631.122 35.391,634.38 35.391C638.592 35.391,643 31.938,643 28.371C643 25.985,640.978 24.665,638.479 24.665C634.548 24.665,629.859 27.978,629.859 31.685"/></g></g><g class="vf-stem" id="vf-auto17417" pointer-events="bounding-box"><path stroke-width="1.5" fill="none" d="M172.125 98L172.125 65.75"/></g><g class="vf-stem" id="vf-auto17423" pointer-events="bounding-box"><path stroke-width="1.5" fill="none" d="M192.484 98L192.484 65.75"/></g><g class="vf-beam" id="vf-auto17428"><path stroke="none" d="M171.375 65L171.375 70L192.734 70L192.734 65Z"/></g><g class="vf-stem" id="vf-auto17430" pointer-events="bounding-box"><path stroke-width="1.5" fill="none" d="M212.844 98L212.844 65.75"/></g><g class="vf-stem" id="vf-auto17436" pointer-events="bounding-box"><path stroke-width="1.5" fill="none" d="M230.392 98L230.392 65.75"/></g><g class="vf-beam" id="vf-auto17441"><path stroke="none" d="M212.094 65L212.094 70L230.642 70L230.642 65Z"/><path stroke="none" d="M212.094 72.5L212.094 77.5L230.642 77.5L230.642 72.5Z"/></g><g class="vf-stem" id="vf-auto17443" pointer-events="bounding-box"><path stroke-width="1.5" fill="none" d="M247.941 98L247.941 58.25"/></g><g class="vf-stem" id="vf-auto17449" pointer-events="bounding-box"><path stroke-width="1.5" fill="none" d="M265.003 98L265.003 58.25"/></g><g class="vf-beam" id="vf-auto17454"><path stroke="none" d="M247.191 57.5L247.191 62.5L265.253 62.5L265.253 57.5Z"/><path stroke="none" d="M247.191 65L247.191 70L265.253 70L265.253 65Z"/><path stroke="none" d="M247.191 72.5L247.191 77.5L265.253 77.5L265.253 72.5Z"/></g><g class="vf-stem" id="vf-auto17456" pointer-events="bounding-box"><path stroke-width="1.5" fill="none" d="M282.065 98L282.065 50.75"/></g><g class="vf-stem" id="vf-auto17462" pointer-events="bounding-box"><path stroke-width="1.5" fill="none" d="M299.127 98L299.127 50.75"/></g><g class="vf-beam" id="vf-auto17467"><path stroke="none" d="M281.315 50L281.315 55L299.377 55L299.377 50Z"/><path stroke="none" d="M281.315 57.5L281.315 62.5L299.377 62.5L299.377 57.5Z"/><path stroke="none" d="M281.315 65L281.315 70L299.377 70L299.377 65Z"/><path stroke="none" d="M281.315 72.5L281.315 77.5L299.377 77.5L299.377 72.5Z"/></g><g class="vf-stem" id="vf-auto17469" pointer-events="bounding-box"><path stroke-width="1.5" fill="none" d="M316.188 98L316.188 43.25"/></g><g class="vf-stem" id="vf-auto17475" pointer-events="bounding-box"><path stroke-width="1.5" fill="none" d="M333.25 98L333.25 43.25"/></g><g class="vf-beam" id="vf-auto17480"><path stroke="none" d="M315.438 42.5L315.438 47.5L333.5 47.5L333.5 42.5Z"/><path stroke="none" d="M315.438 50L315.438 55L333.5 55L333.5 50Z"/><path stroke="none" d="M315.438 57.5L315.438 62.5L333.5 62.5L333.5 57.5Z"/><path stroke="none" d="M315.438 65L315.438 70L333.5 70L333.5 65Z"/><path stroke="none" d="M315.438 72.5L315.438 77.5L333.5 77.5L333.5 72.5Z"/></g><g class="vf-stem" id="vf-auto17559" pointer-events="bounding-box"><path stroke-width="1.5" fill="none" d="M469.484 32L469.484 69.25"/></g><g class="vf-stem" id="vf-auto17565" pointer-events="bounding-box"><path stroke-width="1.5" fill="none" d="M489.843 32L489.843 69.25"/></g><g class="vf-beam" id="vf-auto17570"><path stroke="none" d="M468.734 70L468.734 65L490.093 65L490.093 70Z"/></g><g class="vf-stem" id="vf-auto17572" pointer-events="bounding-box"><path stroke-width="1.5" fill="none" d="M510.202 32L510.202 69.25"/></g><g class="vf-stem" id="vf-auto17578" pointer-events="bounding-box"><path stroke-width="1.5" fill="none" d="M527.751 32L527.751 69.25"/></g><g class="vf-beam" id="vf-auto17583"><path stroke="none" d="M509.452 70L509.452 65L528.001 65L528.001 70Z"/><path stroke="none" d="M509.452 62.5L509.452 57.5L528.001 57.5L528.001 62.5Z"/></g><g class="vf-stem" id="vf-auto17585" pointer-events="bounding-box"><path stroke-width="1.5" fill="none" d="M545.3 32L545.3 76.75"/></g><g class="vf-stem" id="vf-auto17591" pointer-events="bounding-box"><path stroke-width="1.5" fill="none" d="M562.362 32L562.362 76.75"/></g><g class="vf-beam" id="vf-auto17596"><path stroke="none" d="M544.55 77.5L544.55 72.5L562.612 72.5L562.612 77.5Z"/><path stroke="none" d="M544.55 70L544.55 65L562.612 65L562.612 70Z"/><path stroke="none" d="M544.55 62.5L544.55 57.5L562.612 57.5L562.612 62.5Z"/></g><g class="vf-stem" id="vf-auto17598" pointer-events="bounding-box"><path stroke-width="1.5" fill="none" d="M579.423 32L579.423 84.25"/></g><g class="vf-stem" id="vf-auto17604" pointer-events="bounding-box"><path stroke-width="1.5" fill="none" d="M596.485 32L596.485 84.25"/></g><g class="vf-beam" id="vf-auto17609"><path stroke="none" d="M578.673 85L578.673 80L596.735 80L596.735 85Z"/><path stroke="none" d="M578.673 77.5L578.673 72.5L596.735 72.5L596.735 77.5Z"/><path stroke="none" d="M578.673 70L578.673 65L596.735 65L596.735 70Z"/><path stroke="none" d="M578.673 62.5L578.673 57.5L596.735 57.5L596.735 62.5Z"/></g><g class="vf-stem" id="vf-auto17611" pointer-events="bounding-box"><path stroke-width="1.5" fill="none" d="M613.547 32L613.547 91.75"/></g><g class="vf-stem" id="vf-auto17617" pointer-events="bounding-box"><path stroke-width="1.5" fill="none" d="M630.609 32L630.609 91.75"/></g><g class="vf-beam" id="vf-auto17622"><path stroke="none" d="M612.797 92.5L612.797 87.5L630.859 87.5L630.859 92.5Z"/><path stroke="none" d="M612.797 85L612.797 80L630.859 80L630.859 85Z"/><path stroke="none" d="M612.797 77.5L612.797 72.5L630.859 72.5L630.859 77.5Z"/><path stroke="none" d="M612.797 70L612.797 65L630.859 65L630.859 70Z"/><path stroke="none" d="M612.797 62.5L612.797 57.5L630.859 57.5L630.859 62.5Z"/></g></svg>