<svg xmlns="http://www.w3.org/2000/svg" stroke-width="0.3" stroke-dasharray="none" fill="black" stroke="black" font-family="Arial, sans-serif" font-size="10pt" font-weight="normal" font-style="normal" width="450" height="140" viewBox="0 0 450 140" style="width: 450px; height: 140px; border: none;"><g class="vf-stave" id="vf-auto1243" stroke-width="1" fill="#999999" stroke="#999999"><path fill="none" d="M0 40L440 40"/><path fill="none" d="M0 50L440 50"/><path fill="none" d="M0 60L440 60"/><path fill="none" d="M0 70L440 70"/><path fill="none" d="M0 80L440 80"/></g><g class="vf-stavebarline" id="vf-auto1244"><rect y="39.5" width="1" height="41" stroke="none"/></g><g class="vf-stavebarline" id="vf-auto1245"><rect x="440" y="39.5" width="1" height="41" stroke="none"/></g><g class="vf-stavenote" id="vf-auto1246"><path stroke-width="1.4" fill="none" stroke="#444" d="M50.46 90L69.966 90"/><g class="vf-stem" id="vf-auto1247" pointer-events="bounding-box"><path stroke-width="1.5" fill="none" d="M66.216 88.2L66.216 30"/></g><g class="vf-notehead" id="vf-auto1251" pointer-events="bounding-box"><path stroke="none" d="M67.663 88.428C67.607 93.229,63.479 97.048,58.874 97.048C58.2 97.048,57.498 96.964,56.824 96.795C55.392 96.43,54.746 95.391,54.438 93.959C54.269 93.229,54.185 92.555,54.185 91.909C54.185 87.332,57.751 84.384,62.16 83.008C62.3 82.952,62.525 82.924,62.721 82.924C64.687 82.924,67.691 85.226,67.691 87.81C67.691 88.006,67.691 88.231,67.663 88.428M60.166 92.864C61.879 92.274,63.76 91.348,65.389 89.832C65.417 89.803,65.473 89.635,65.473 89.523C65.473 89.382,65.417 89.27,65.389 89.242C64.659 88.512,64.097 87.529,62.918 87.36C62.749 87.332,62.609 87.332,62.384 87.332C60.643 87.332,59.267 88.456,57.835 89.242C56.937 89.747,55.926 90.814,56.122 91.741C56.319 92.752,57.779 92.555,58.706 92.752C59.071 92.836,59.408 92.836,60.166 92.864"/><path stroke="none" d="M23.821 98.208C23.93 98.208,24.094 98.126,24.286 97.907C24.806 97.497,25.38 97.059,25.955 96.648C29.402 94.186,31.263 90.821,31.263 86.525C31.263 85.978,31.263 85.458,31.181 84.911C30.989 82.996,29.895 81.874,28.226 81.874C27.87 81.874,27.487 81.956,27.049 82.093C26.502 82.23,25.955 82.503,25.38 82.75L25.353 82.777L25.353 81.765C25.353 80.26,25.435 78.782,25.517 77.278C25.517 76.402,25.599 75.581,25.599 74.706C25.599 73.885,25.517 73.009,25.326 72.189C25.244 71.915,25.244 71.395,24.833 71.395L24.806 71.395C24.368 71.45,24.04 71.806,24.04 72.353C24.012 73.447,23.903 74.596,23.93 75.691L23.93 76.922C23.93 79.248,23.821 81.573,23.739 83.899C23.629 87.237,23.055 90.52,23.055 93.858C23.055 95.171,23.137 96.539,23.492 97.852C23.575 98.071,23.657 98.208,23.821 98.208M24.888 92.873C24.97 91.86,24.997 90.793,25.107 89.672C25.189 88.824,25.244 87.948,25.244 87.072L25.38 87.018C26.146 86.689,26.885 86.306,27.706 86.306C27.98 86.306,28.308 86.388,28.609 86.498C29.265 86.717,29.566 87.045,29.539 87.483C29.539 87.702,29.484 87.948,29.32 88.276C28.308 90.274,26.639 91.614,24.888 92.873"/></g><g class="vf-notehead" id="vf-auto1252" pointer-events="bounding-box"><path stroke="none" d="M67.663 78.428C67.607 83.229,63.479 87.048,58.874 87.048C58.2 87.048,57.498 86.964,56.824 86.795C55.392 86.43,54.746 85.391,54.438 83.959C54.269 83.229,54.185 82.555,54.185 81.909C54.185 77.332,57.751 74.384,62.16 73.008C62.3 72.952,62.525 72.924,62.721 72.924C64.687 72.924,67.691 75.226,67.691 77.81C67.691 78.006,67.691 78.231,67.663 78.428M60.166 82.864C61.879 82.274,63.76 81.348,65.389 79.832C65.417 79.803,65.473 79.635,65.473 79.523C65.473 79.382,65.417 79.27,65.389 79.242C64.659 78.512,64.097 77.529,62.918 77.36C62.749 77.332,62.609 77.332,62.384 77.332C60.643 77.332,59.267 78.456,57.835 79.242C56.937 79.747,55.926 80.814,56.122 81.741C56.319 82.752,57.779 82.555,58.706 82.752C59.071 82.836,59.408 82.836,60.166 82.864"/><path stroke="none" d="M40.61 95.13C40.911 95.103,40.993 94.665,41.075 94.391C41.24 93.872,41.267 93.352,41.267 92.887C41.267 92.449,41.24 92.066,41.24 91.628C41.24 91.354,41.24 90.999,41.267 90.725C41.349 89.932,41.431 89.138,41.458 88.345L43.209 87.989C43.292 89.658,43.592 91.272,44.14 92.832C44.194 93.051,44.331 93.27,44.577 93.27C44.824 93.324,44.906 93.051,45.015 92.832C45.289 92.421,45.316 91.902,45.316 91.436C45.371 91.081,45.371 90.752,45.371 90.452C45.371 89.494,45.289 88.509,45.261 87.551L47.532 87.086C49.694 86.648,49.967 86.348,50.132 84.268C50.132 83.748,50.186 83.393,50.132 82.982C50.104 82.49,49.885 82.134,49.475 82.134L49.393 82.134C49.229 82.134,49.119 82.134,48.955 82.161C48.052 82.408,47.067 82.599,46.11 82.763L45.453 82.873C45.48 82.326,45.48 81.724,45.535 81.149C45.562 79.891,45.59 78.632,45.59 77.373C46.712 77.072,47.779 76.772,48.846 76.416C49.42 76.224,49.94 75.896,50.104 75.267C50.241 74.555,50.46 73.899,50.46 73.187C50.46 72.777,50.405 72.367,50.241 71.956C50.104 71.573,49.967 71.382,49.748 71.382L49.666 71.382C49.53 71.382,49.393 71.382,49.229 71.464C47.997 71.956,46.794 72.367,45.535 72.722L45.398 70.588C45.316 68.892,45.261 67.168,44.906 65.472C44.824 65.253,44.851 64.897,44.605 64.897L44.577 64.897L44.468 64.897C44.14 64.979,43.757 65.116,43.702 65.554L43.702 66.293C43.702 68.618,43.784 70.889,43.839 73.187L41.732 73.652C41.732 72.476,41.705 71.3,41.623 70.123C41.595 69.521,41.595 68.974,41.267 68.372C40.391 68.81,40.528 69.548,40.528 70.178C40.446 71.464,40.391 72.668,40.364 73.899C39.27 74.118,38.148 74.282,37.053 74.473C35.439 74.747,35.193 74.993,35.193 76.772C35.084 77.209,35.412 77.702,35.357 78.194C35.275 78.933,35.467 79.179,35.986 79.207C36.096 79.207,36.233 79.179,36.397 79.124C37.683 78.933,38.941 78.741,40.2 78.495L40.09 82.052C40.036 82.709,39.981 83.338,39.899 83.967C38.421 84.268,36.971 84.542,35.521 84.897C34.7 85.089,34.208 85.39,34.208 86.348C34.208 87.278,34.564 88.153,34.618 89.056C34.618 89.494,34.728 89.685,35.056 89.74C35.111 89.74,35.248 89.685,35.412 89.658C36.807 89.33,38.23 89.056,39.653 88.755C39.625 89.248,39.625 89.768,39.625 90.315C39.625 91.71,39.762 93.051,40.255 94.391C40.337 94.665,40.255 95.13,40.61 95.13M41.65 83.612C41.705 82.763,41.705 81.888,41.732 81.012C41.787 80.082,41.787 79.179,41.787 78.222C42.443 78.112,43.073 78.003,43.702 77.839C43.51 79.644,43.428 81.45,43.319 83.283"/></g><g class="vf-notehead" id="vf-auto1253" pointer-events="bounding-box"><path stroke="none" d="M67.663 63.428C67.607 68.229,63.479 72.048,58.874 72.048C58.2 72.048,57.498 71.964,56.824 71.795C55.392 71.43,54.746 70.391,54.438 68.959C54.269 68.229,54.185 67.555,54.185 66.909C54.185 62.332,57.751 59.384,62.16 58.008C62.3 57.952,62.525 57.924,62.721 57.924C64.687 57.924,67.691 60.226,67.691 62.81C67.691 63.006,67.691 63.231,67.663 63.428M60.166 67.864C61.879 67.274,63.76 66.348,65.389 64.832C65.417 64.803,65.473 64.635,65.473 64.523C65.473 64.382,65.417 64.27,65.389 64.242C64.659 63.512,64.097 62.529,62.918 62.36C62.749 62.332,62.609 62.332,62.384 62.332C60.643 62.332,59.267 63.456,57.835 64.242C56.937 64.747,55.926 65.814,56.122 66.741C56.319 67.752,57.779 67.555,58.706 67.752C59.071 67.836,59.408 67.836,60.166 67.864"/></g></g><g class="vf-stavenote" id="vf-auto1258"><path stroke-width="1.4" fill="none" stroke="#444" d="M201.165 90L220.673 90"/><g class="vf-notehead" id="vf-auto1268" pointer-events="bounding-box"><path stroke="none" d="M207.81 96.543C208.091 96.599,208.343 96.627,208.624 96.627C212.499 96.627,218.284 91.348,218.171 87.08C218.059 86.041,218.087 84.609,215.981 83.766C215.391 83.485,214.746 83.373,214.044 83.373C209.719 83.373,205.03 88.343,204.693 91.657C204.693 91.909,204.665 92.134,204.665 92.387C204.665 94.409,205.563 96.037,207.81 96.543"/><path stroke="none" d="M174.526 98.208C174.635 98.208,174.799 98.126,174.991 97.907C175.511 97.497,176.085 97.059,176.66 96.648C180.107 94.186,181.968 90.821,181.968 86.525C181.968 85.978,181.968 85.458,181.886 84.911C181.694 82.996,180.6 81.874,178.931 81.874C178.575 81.874,178.192 81.956,177.754 82.093C177.207 82.23,176.66 82.503,176.085 82.75L176.058 82.777L176.058 81.765C176.058 80.26,176.14 78.782,176.222 77.278C176.222 76.402,176.304 75.581,176.304 74.706C176.304 73.885,176.222 73.009,176.031 72.189C175.948 71.915,175.948 71.395,175.538 71.395L175.511 71.395C175.073 71.45,174.745 71.806,174.745 72.353C174.717 73.447,174.608 74.596,174.635 75.691L174.635 76.922C174.635 79.248,174.526 81.573,174.444 83.899C174.334 87.237,173.76 90.52,173.76 93.858C173.76 95.171,173.842 96.539,174.197 97.852C174.28 98.071,174.362 98.208,174.526 98.208M175.593 92.873C175.675 91.86,175.702 90.793,175.812 89.672C175.894 88.824,175.948 87.948,175.948 87.072L176.085 87.018C176.851 86.689,177.59 86.306,178.411 86.306C178.684 86.306,179.013 86.388,179.314 86.498C179.97 86.717,180.271 87.045,180.244 87.483C180.244 87.702,180.189 87.948,180.025 88.276C179.013 90.274,177.344 91.614,175.593 92.873"/></g><g class="vf-notehead" id="vf-auto1269" pointer-events="bounding-box"><path stroke="none" d="M207.81 86.543C208.091 86.599,208.343 86.627,208.624 86.627C212.499 86.627,218.284 81.348,218.171 77.08C218.059 76.041,218.087 74.609,215.981 73.766C215.391 73.485,214.746 73.373,214.044 73.373C209.719 73.373,205.03 78.343,204.693 81.657C204.693 81.909,204.665 82.134,204.665 82.387C204.665 84.409,205.563 86.037,207.81 86.543"/><path stroke="none" d="M191.315 95.13C191.616 95.103,191.698 94.665,191.78 94.391C191.944 93.872,191.972 93.352,191.972 92.887C191.972 92.449,191.944 92.066,191.944 91.628C191.944 91.354,191.944 90.999,191.972 90.725C192.054 89.932,192.136 89.138,192.163 88.345L193.914 87.989C193.996 89.658,194.297 91.272,194.845 92.832C194.899 93.051,195.036 93.27,195.282 93.27C195.529 93.324,195.611 93.051,195.72 92.832C195.994 92.421,196.021 91.902,196.021 91.436C196.076 91.081,196.076 90.752,196.076 90.452C196.076 89.494,195.994 88.509,195.966 87.551L198.237 87.086C200.399 86.648,200.672 86.348,200.836 84.268C200.836 83.748,200.891 83.393,200.836 82.982C200.809 82.49,200.59 82.134,200.18 82.134L200.098 82.134C199.934 82.134,199.824 82.134,199.66 82.161C198.757 82.408,197.772 82.599,196.815 82.763L196.158 82.873C196.185 82.326,196.185 81.724,196.24 81.149C196.267 79.891,196.295 78.632,196.295 77.373C197.416 77.072,198.484 76.772,199.551 76.416C200.125 76.224,200.645 75.896,200.809 75.267C200.946 74.555,201.165 73.899,201.165 73.187C201.165 72.777,201.11 72.367,200.946 71.956C200.809 71.573,200.672 71.382,200.453 71.382L200.371 71.382C200.235 71.382,200.098 71.382,199.934 71.464C198.702 71.956,197.499 72.367,196.24 72.722L196.103 70.588C196.021 68.892,195.966 67.168,195.611 65.472C195.529 65.253,195.556 64.897,195.31 64.897L195.282 64.897L195.173 64.897C194.845 64.979,194.462 65.116,194.407 65.554L194.407 66.293C194.407 68.618,194.489 70.889,194.544 73.187L192.437 73.652C192.437 72.476,192.41 71.3,192.328 70.123C192.3 69.521,192.3 68.974,191.972 68.372C191.096 68.81,191.233 69.548,191.233 70.178C191.151 71.464,191.096 72.668,191.069 73.899C189.975 74.118,188.853 74.282,187.758 74.473C186.144 74.747,185.898 74.993,185.898 76.772C185.788 77.209,186.117 77.702,186.062 78.194C185.98 78.933,186.172 79.179,186.691 79.207C186.801 79.207,186.938 79.179,187.102 79.124C188.388 78.933,189.646 78.741,190.905 78.495L190.795 82.052C190.741 82.709,190.686 83.338,190.604 83.967C189.126 84.268,187.676 84.542,186.226 84.897C185.405 85.089,184.913 85.39,184.913 86.348C184.913 87.278,185.269 88.153,185.323 89.056C185.323 89.494,185.433 89.685,185.761 89.74C185.816 89.74,185.953 89.685,186.117 89.658C187.512 89.33,188.935 89.056,190.358 88.755C190.33 89.248,190.33 89.768,190.33 90.315C190.33 91.71,190.467 93.051,190.96 94.391C191.042 94.665,190.96 95.13,191.315 95.13M192.355 83.612C192.41 82.763,192.41 81.888,192.437 81.012C192.492 80.082,192.492 79.179,192.492 78.222C193.148 78.112,193.778 78.003,194.407 77.839C194.215 79.644,194.133 81.45,194.024 83.283"/></g><g class="vf-notehead" id="vf-auto1270" pointer-events="bounding-box"><path stroke="none" d="M207.81 71.543C208.091 71.599,208.343 71.627,208.624 71.627C212.499 71.627,218.284 66.348,218.171 62.08C218.059 61.041,218.087 59.609,215.981 58.766C215.391 58.485,214.746 58.373,214.044 58.373C209.719 58.373,205.03 63.343,204.693 66.657C204.693 66.909,204.665 67.134,204.665 67.387C204.665 69.409,205.563 71.037,207.81 71.543"/></g></g><g class="vf-stavenote" id="vf-auto1276"><g class="vf-notehead" id="vf-auto1286" pointer-events="bounding-box"><path stroke="none" d="M271.362 91.543C271.642 91.599,271.895 91.627,272.176 91.627C276.051 91.627,281.835 86.348,281.723 82.08C281.611 81.041,281.639 79.609,279.533 78.766C278.943 78.485,278.297 78.373,277.595 78.373C273.271 78.373,268.582 83.343,268.245 86.657C268.245 86.909,268.217 87.134,268.217 87.387C268.217 89.409,269.115 91.037,271.362 91.543"/></g><g class="vf-notehead" id="vf-auto1287" pointer-events="bounding-box"><path stroke="none" d="M271.362 81.543C271.642 81.599,271.895 81.627,272.176 81.627C276.051 81.627,281.835 76.348,281.723 72.08C281.611 71.041,281.639 69.609,279.533 68.766C278.943 68.485,278.297 68.373,277.595 68.373C273.271 68.373,268.582 73.343,268.245 76.657C268.245 76.909,268.217 77.134,268.217 77.387C268.217 79.409,269.115 81.037,271.362 81.543"/></g><g class="vf-notehead" id="vf-auto1288" pointer-events="bounding-box"><path stroke="none" d="M271.362 71.543C271.642 71.599,271.895 71.627,272.176 71.627C276.051 71.627,281.835 66.348,281.723 62.08C281.611 61.041,281.639 59.609,279.533 58.766C278.943 58.485,278.297 58.373,277.595 58.373C273.271 58.373,268.582 63.343,268.245 66.657C268.245 66.909,268.217 67.134,268.217 67.387C268.217 69.409,269.115 71.037,271.362 71.543"/></g></g><g class="vf-stavenote" id="vf-auto1290"><g class="vf-notehead" id="vf-auto1300" pointer-events="bounding-box"><path stroke="none" d="M334.913 86.543C335.194 86.599,335.447 86.627,335.728 86.627C339.603 86.627,345.387 81.348,345.275 77.08C345.162 76.041,345.191 74.609,343.085 73.766C342.495 73.485,341.849 73.373,341.147 73.373C336.823 73.373,332.133 78.343,331.796 81.657C331.796 81.909,331.768 82.134,331.768 82.387C331.768 84.409,332.667 86.037,334.913 86.543"/><path stroke="none" d="M301 88.673C301.328 88.673,301.547 88.482,301.793 88.235C302.778 87.332,303.49 86.183,304.201 85.089C304.912 83.967,305.624 82.791,306.28 81.642C306.253 82.326,306.198 82.955,306.198 83.584C306.198 84.405,306.253 85.198,306.363 86.019C306.39 86.375,306.363 86.566,306.91 86.731C307.594 86.895,307.785 86.512,308.059 86.238C309.919 84.46,311.205 82.326,312.546 80.192C313.504 78.687,313.969 77.045,313.969 75.267C313.969 73.735,313.64 72.23,312.163 71.6C311.752 71.464,311.369 71.382,311.014 71.382C310.275 71.382,309.564 71.655,308.88 72.148C308.688 72.284,308.579 72.503,308.332 72.503L308.305 72.503L308.305 64.514C308.305 63.994,308.36 63.502,308.168 63.009C308.059 62.818,308.168 62.435,307.867 62.435L307.813 62.435C307.539 62.462,307.101 62.599,307.047 62.982C306.91 63.42,306.828 63.858,306.746 64.268C306.609 65.691,306.554 67.113,306.554 68.564C306.554 70.15,306.609 71.737,306.609 73.352L306.609 74.884C305.843 73.844,305.104 73.488,304.311 73.488C303.654 73.488,302.888 73.817,302.149 74.172C302.149 73.981,302.122 73.844,302.122 73.735C302.149 72.941,302.176 72.148,302.176 71.382C302.176 69.439,302.067 67.469,302.04 65.554C302.04 65.034,301.958 64.514,301.766 64.076C301.629 63.858,301.684 63.502,301.356 63.502L301.274 63.502C300.918 63.584,300.535 63.639,300.453 64.131C300.371 64.514,300.343 64.897,300.343 65.308C300.343 65.499,300.343 65.745,300.371 65.937C300.48 67.086,300.535 68.18,300.535 69.33C300.535 72.284,300.261 75.239,300.207 78.194C300.179 80.328,299.824 82.49,299.824 84.596C299.824 85.636,299.906 86.621,300.152 87.633C300.261 88.044,300.207 88.427,300.644 88.591C300.781 88.673,300.891 88.673,301 88.673M308.059 81.97C308.086 81.231,308.086 80.52,308.086 79.808L308.086 77.647C308.141 76.689,308.606 76.033,309.427 75.677C309.7 75.54,310.029 75.458,310.302 75.458C310.822 75.458,311.287 75.704,311.725 76.088C311.889 76.224,311.999 76.388,311.999 76.525C311.999 76.662,311.971 76.772,311.889 76.881C310.685 78.659,309.509 80.383,308.059 81.97M301.876 84.022C301.876 82.353,301.876 80.793,301.821 79.179C301.821 78.304,302.341 77.921,303.052 77.756C303.216 77.702,303.326 77.702,303.435 77.702C304.092 77.702,304.584 78.112,305.022 78.577C305.077 78.659,305.104 78.769,305.104 78.906C305.104 78.988,305.104 79.042,305.077 79.097C304.119 80.821,303.244 82.599,301.876 84.022"/></g><g class="vf-notehead" id="vf-auto1301" pointer-events="bounding-box"><path stroke="none" d="M334.913 76.543C335.194 76.599,335.447 76.627,335.728 76.627C339.603 76.627,345.387 71.348,345.275 67.08C345.162 66.041,345.191 64.609,343.085 63.766C342.495 63.485,341.849 63.373,341.147 63.373C336.823 63.373,332.133 68.343,331.796 71.657C331.796 71.909,331.768 72.134,331.768 72.387C331.768 74.409,332.667 76.037,334.913 76.543"/><path stroke="none" d="M319.267 76.265C319.458 76.265,319.65 76.156,319.896 75.91C320.744 75.089,321.538 74.213,322.441 73.42C322.769 73.146,323.043 72.873,323.316 72.599C324.383 73.42,325.45 74.296,326.463 75.171C326.709 75.363,326.9 75.472,327.092 75.472C327.365 75.472,327.612 75.253,327.803 74.897C328.186 74.213,328.077 73.42,328.241 72.791C328.186 71.888,327.913 71.259,327.283 70.739L325.861 69.617C326.545 68.851,327.201 68.14,327.967 67.51C328.186 67.373,328.268 67.072,328.268 66.525C328.159 65.951,327.831 65.185,327.42 64.528C327.092 63.981,326.818 63.735,326.545 63.735C326.271 63.735,325.943 63.899,325.56 64.254C325.177 64.555,324.766 64.884,324.465 65.239C323.863 65.869,323.316 66.498,322.769 67.155C321.702 66.388,320.58 65.595,319.486 64.884C319.322 64.747,319.212 64.72,319.103 64.72C319.021 64.72,318.939 64.72,318.829 64.802C318.665 64.911,318.419 64.884,318.282 65.103C318.145 65.404,318.063 65.787,318.063 66.252C318.063 67.483,318.501 69.124,319.185 69.562C319.404 69.726,319.65 69.891,319.896 70.082C319.048 70.876,318.2 71.696,317.352 72.572C317.133 72.791,316.969 73.119,316.969 73.393C316.969 73.666,317.051 73.94,317.297 74.213C317.68 74.815,318.282 75.28,318.665 75.882C318.856 76.156,319.048 76.265,319.267 76.265"/></g><g class="vf-notehead" id="vf-auto1302" pointer-events="bounding-box"><path stroke="none" d="M334.913 66.543C335.194 66.599,335.447 66.627,335.728 66.627C339.603 66.627,345.387 61.348,345.275 57.08C345.162 56.041,345.191 54.609,343.085 53.766C342.495 53.485,341.849 53.373,341.147 53.373C336.823 53.373,332.133 58.343,331.796 61.657C331.796 61.909,331.768 62.134,331.768 62.387C331.768 64.409,332.667 66.037,334.913 66.543"/></g></g><g class="vf-stavenote" id="vf-auto1308"><g class="vf-notehead" id="vf-auto1318" pointer-events="bounding-box"><path stroke="none" d="M398.465 81.543C398.746 81.599,398.999 81.627,399.279 81.627C403.154 81.627,408.939 76.348,408.827 72.08C408.714 71.041,408.742 69.609,406.636 68.766C406.047 68.485,405.401 68.373,404.699 68.373C400.375 68.373,395.685 73.343,395.348 76.657C395.348 76.909,395.32 77.134,395.32 77.387C395.32 79.409,396.219 81.037,398.465 81.543"/></g><g class="vf-notehead" id="vf-auto1319" pointer-events="bounding-box"><path stroke="none" d="M398.465 71.543C398.746 71.599,398.999 71.627,399.279 71.627C403.154 71.627,408.939 66.348,408.827 62.08C408.714 61.041,408.742 59.609,406.636 58.766C406.047 58.485,405.401 58.373,404.699 58.373C400.375 58.373,395.685 63.343,395.348 66.657C395.348 66.909,395.32 67.134,395.32 67.387C395.32 69.409,396.219 71.037,398.465 71.543"/></g><g class="vf-notehead" id="vf-auto1320" pointer-events="bounding-box"><path stroke="none" d="M398.465 61.543C398.746 61.599,398.999 61.627,399.279 61.627C403.154 61.627,408.939 56.348,408.827 52.08C408.714 51.041,408.742 49.609,406.636 48.766C406.047 48.485,405.401 48.373,404.699 48.373C400.375 48.373,395.685 53.343,395.348 56.657C395.348 56.909,395.32 57.134,395.32 57.387C395.32 59.409,396.219 61.037,398.465 61.543"/></g></g><g class="vf-stem" id="vf-auto1259" pointer-events="bounding-box"><path stroke-width="1.5" fill="none" d="M216.923 88L216.923 30.283"/></g><g class="vf-stem" id="vf-auto1277" pointer-events="bounding-box"><path stroke-width="1.5" fill="none" d="M280.475 83L280.475 27.105"/></g><g class="vf-stem" id="vf-auto1291" pointer-events="bounding-box"><path stroke-width="1.5" fill="none" d="M344.026 78L344.026 23.928"/></g><g class="vf-stem" id="vf-auto1309" pointer-events="bounding-box"><path stroke-width="1.5" fill="none" d="M407.578 73L407.578 20.75"/></g><g class="vf-beam" id="vf-auto1322"><path stroke="none" d="M216.173 29.57L216.173 34.57L407.828 25.038L407.828 20.038Z"/></g></svg>