<svg xmlns="http://www.w3.org/2000/svg" stroke-width="0.3" stroke-dasharray="none" fill="black" stroke="black" font-family="Arial, sans-serif" font-size="10pt" font-weight="normal" font-style="normal" width="500" height="240" viewBox="0 0 333.3333333333333 160" style="width: 500px; height: 240px; border: none;"><g class="vf-stave" id="vf-auto3186" stroke-width="1" fill="#999999" stroke="#999999"><path fill="none" d="M10 50L310 50"/><path fill="none" d="M10 60L310 60"/><path fill="none" d="M10 70L310 70"/><path fill="none" d="M10 80L310 80"/><path fill="none" d="M10 90L310 90"/></g><g class="vf-stavebarline" id="vf-auto3187"><rect x="10" y="49.5" width="1" height="41" stroke="none"/></g><g class="vf-stavebarline" id="vf-auto3188"><rect x="310" y="49.5" width="1" height="41" stroke="none"/></g><g class="vf-clef" id="vf-auto3189"><path stroke="none" d="M35.503 81.76C35.503 84.345,34.464 87.032,31.854 88.071C31.093 83.712,30.105 77.908,29.852 76.286C33.146 76.286,35.503 78.516,35.503 81.76M30.333 88.527C29.598 88.654,28.914 88.73,28.204 88.73C22.983 88.73,18.548 85.08,18.548 79.581C18.548 75.12,21.691 71.141,24.884 68.379C25.518 67.821,26.101 67.314,26.633 66.757C26.962 68.734,27.216 70.457,27.469 71.952C24.149 72.941,21.894 76.438,21.894 79.86C21.894 82.419,23.896 85.917,26.836 85.917C27.114 85.917,27.444 85.79,27.444 85.461C27.444 85.131,27.089 84.954,26.633 84.65C25.214 83.762,24.428 82.825,24.428 81.025C24.428 78.82,26.05 77.021,28.204 76.514M27.114 50.993C27.444 49.548,29.117 45.721,31.017 45.721C31.575 45.721,32.437 47.495,32.437 50.004C32.437 53.806,29.623 56.67,27.114 59.128C26.886 57.684,26.709 56.264,26.709 54.718C26.709 53.375,26.836 52.133,27.114 50.993M19.461 99.729C19.461 102.137,21.311 105.305,26.253 105.305C27.951 105.305,29.446 104.874,30.764 104.063C32.741 102.669,33.248 100.261,33.248 97.98C33.248 96.536,33.02 94.914,32.665 92.836C32.563 92.101,32.335 91.011,32.107 89.566C35.681 88.4,38.367 84.675,38.367 80.924C38.367 75.424,34.464 71.699,29.117 71.699C28.762 69.494,28.382 67.34,28.078 65.312C31.93 61.257,34.591 56.695,34.591 50.891C34.591 47.571,33.577 44.859,32.994 43.567C32.107 41.691,31.068 40.424,30.409 40.424C30.156 40.424,29.015 40.855,27.799 42.274C25.467 45.062,24.808 49.726,24.808 52.792C24.808 54.769,25.011 56.543,25.619 60.623C25.594 60.674,23.693 62.6,22.907 63.234C19.587 66.326,15 70.736,15 78.035C15 84.878,20.956 90.225,27.748 90.225C28.787 90.225,29.776 90.124,30.612 89.972C31.322 93.469,31.727 96.029,31.727 97.98C31.727 101.757,29.776 103.784,26.101 103.784C25.214 103.784,24.453 103.582,24.377 103.582C24.352 103.556,24.276 103.505,24.276 103.48C24.276 103.404,24.352 103.379,24.453 103.328C26.177 103.075,27.875 101.63,27.875 99.273C27.875 97.322,26.379 95.243,23.642 95.243C21.083 95.243,19.461 97.322,19.461 99.729"/></g><g class="vf-stavenote" id="vf-auto3190"><path stroke-width="1.4" fill="none" stroke="#444" d="M59.086 100L78.227 100"/><path stroke-width="1.4" fill="none" stroke="#444" d="M59.086 110L78.227 110"/><g class="vf-stem" id="vf-auto3191" pointer-events="bounding-box"><path stroke-width="1.5" fill="none" d="M74.477 108L74.477 73"/></g><g class="vf-notehead" id="vf-auto3194" pointer-events="bounding-box"><path stroke="none" d="M62.086 111.685C62.086 113.426,63.349 115.391,66.606 115.391C70.818 115.391,75.227 111.938,75.227 108.371C75.227 105.985,73.205 104.665,70.706 104.665C66.775 104.665,62.086 107.978,62.086 111.685"/><g class="vf-annotation" id="vf-auto3196"><text stroke="none" x="52.367" y="135.326">good</text></g></g><path stroke="none" d="M73.727 77.182C73.727 77.294,73.755 77.491,74.064 77.631C75.777 78.193,79.259 80.383,81.898 84.848C82.628 86.112,83.808 87.853,83.808 91.222C83.808 94.114,83.021 97.119,81.982 100.011C81.898 100.264,81.814 100.46,81.842 100.629C81.842 100.797,81.898 100.91,82.067 100.994C82.151 101.022,82.207 101.022,82.263 101.022C82.544 101.022,82.741 100.882,82.909 100.601C84.819 97.231,85.464 92.935,85.408 90.408C85.408 90.211,85.408 90.071,85.408 89.902C85.212 84.708,82.207 80.861,82.207 80.861C82.348 80.861,78.501 75.89,77.405 74.178C75.917 71.875,75.215 69.572,75.131 69.404C75.103 69.292,74.738 67.832,74.738 67.832C74.71 67.663,74.485 67.523,74.26 67.523C73.98 67.523,73.727 67.747,73.727 68.028"/></g><g class="vf-stavenote" id="vf-auto3197"><path stroke-width="1.4" fill="none" stroke="#444" d="M127.718 100L146.86 100"/><path stroke-width="1.4" fill="none" stroke="#444" d="M127.718 110L146.86 110"/><g class="vf-notehead" id="vf-auto3201" pointer-events="bounding-box"><path stroke="none" d="M130.718 116.685C130.718 118.426,131.982 120.391,135.239 120.391C139.451 120.391,143.86 116.938,143.86 113.371C143.86 110.985,141.838 109.665,139.339 109.665C135.408 109.665,130.718 112.978,130.718 116.685"/><g class="vf-annotation" id="vf-auto3203"><text stroke="none" x="122.094" y="137.676">even</text></g></g></g><g class="vf-stavenote" id="vf-auto3204"><path stroke-width="1.4" fill="none" stroke="#444" d="M196.351 100L215.492 100"/><g class="vf-notehead" id="vf-auto3208" pointer-events="bounding-box"><path stroke="none" d="M199.351 101.685C199.351 103.426,200.615 105.391,203.872 105.391C208.084 105.391,212.492 101.938,212.492 98.371C212.492 95.985,210.471 94.665,207.972 94.665C204.04 94.665,199.351 97.978,199.351 101.685"/><g class="vf-annotation" id="vf-auto3210"><text stroke="none" x="187.403" y="122.676">under</text></g></g></g><g class="vf-stavenote" id="vf-auto3211"><g class="vf-notehead" id="vf-auto3215" pointer-events="bounding-box"><path stroke="none" d="M267.984 96.685C267.984 98.426,269.247 100.391,272.505 100.391C276.717 100.391,281.125 96.938,281.125 93.371C281.125 90.985,279.103 89.665,276.604 89.665C272.673 89.665,267.984 92.978,267.984 96.685"/><g class="vf-annotation" id="vf-auto3217"><text stroke="none" x="257.139" y="117.676">beam</text></g></g></g><g class="vf-stem" id="vf-auto3198" pointer-events="bounding-box"><path stroke-width="1.5" fill="none" d="M143.11 113L143.11 70.75"/></g><g class="vf-stem" id="vf-auto3205" pointer-events="bounding-box"><path stroke-width="1.5" fill="none" d="M211.742 98L211.742 65.603"/></g><g class="vf-stem" id="vf-auto3212" pointer-events="bounding-box"><path stroke-width="1.5" fill="none" d="M280.375 93L280.375 60.455"/></g><g class="vf-beam" id="vf-auto3218"><path stroke="none" d="M142.36 70.056L142.36 75.056L280.625 64.761L280.625 59.761Z"/></g></svg>