<svg xmlns="http://www.w3.org/2000/svg" stroke-width="0.3" stroke-dasharray="none" fill="black" stroke="black" font-family="Arial, sans-serif" font-size="10pt" font-weight="normal" font-style="normal" width="550" height="140" viewBox="0 0 550 140" style="width: 550px; height: 140px; border: none;"><g class="vf-stave" id="vf-auto7842" stroke-width="1" fill="#999999" stroke="#999999"><path fill="none" d="M10 50L428.59 50"/><path fill="none" d="M10 60L428.59 60"/><path fill="none" d="M10 70L428.59 70"/><path fill="none" d="M10 80L428.59 80"/><path fill="none" d="M10 90L428.59 90"/></g><g class="vf-stavebarline" id="vf-auto7843"/><g class="vf-stavebarline" id="vf-auto7844"><rect x="428.59" y="49.5" width="1" height="41" stroke="none"/></g><g class="vf-stavenote" id="vf-auto7721"><g class="vf-stem" id="vf-auto7722" pointer-events="bounding-box"><path stroke-width="1.5" fill="none" d="M127.372 48L127.372 18"/></g><g class="vf-notehead" id="vf-auto7727" pointer-events="bounding-box"><path stroke="none" d="M114.981 51.685C114.981 53.426,116.244 55.391,119.502 55.391C123.714 55.391,128.122 51.938,128.122 48.371C128.122 45.985,126.1 44.665,123.601 44.665C119.67 44.665,114.981 47.978,114.981 51.685"/><path stroke="none" d="M111.899 46.854C111.68 45.321,110.722 43.899,108.725 43.899C106.755 43.899,105.606 45.075,105.414 45.321L105.578 32.708C105.578 32.38,105.332 32.161,105.004 32.161L104.539 32.161C104.238 32.161,103.992 32.38,103.992 32.708L104.101 44.555C103.609 44.172,102.952 43.899,102.104 43.899C100.134 43.899,98.985 45.103,98.793 45.349L98.957 32.708C98.957 32.38,98.711 32.161,98.383 32.161L97.918 32.161C97.617 32.161,97.37 32.38,97.37 32.708L97.562 56.375C97.562 56.703,97.808 56.922,98.109 56.922C98.191 56.922,98.355 56.867,98.437 56.813C98.602 56.731,101.146 55.527,103.28 53.119C103.554 52.791,103.909 52.244,104.156 51.888L104.183 56.375C104.183 56.703,104.429 56.922,104.73 56.922C104.812 56.922,104.977 56.867,105.059 56.813C105.223 56.731,107.767 55.472,109.901 53.064C111.406 51.368,111.981 49.453,111.981 47.839C111.981 47.483,111.953 47.155,111.899 46.854M102.569 48.413C102.569 49.015,102.405 50.821,101.42 52.326C100.763 53.338,99.422 54.405,98.684 55.007L98.793 47.319C98.875 46.963,99.45 45.814,101.037 45.814C102.459 45.814,102.569 47.155,102.569 48.003C102.569 48.194,102.569 48.304,102.569 48.413M109.19 48.413C109.19 49.015,109.026 50.821,108.041 52.326C107.384 53.338,106.044 54.405,105.277 55.007L105.414 47.319C105.496 46.963,106.071 45.814,107.658 45.814C109.081 45.814,109.19 47.155,109.19 48.003C109.19 48.194,109.19 48.304,109.19 48.413"/></g><path stroke="none" d="M126.622 22.182C126.622 22.294,126.65 22.491,126.959 22.631C128.672 23.193,132.154 25.383,134.793 29.848C135.523 31.112,136.703 32.853,136.703 36.222C136.703 39.114,135.917 42.119,134.878 45.011C134.793 45.264,134.709 45.46,134.737 45.629C134.737 45.797,134.793 45.91,134.962 45.994C135.046 46.022,135.102 46.022,135.158 46.022C135.439 46.022,135.636 45.882,135.804 45.601C137.714 42.231,138.36 37.935,138.303 35.408C138.303 35.211,138.303 35.071,138.303 34.902C138.107 29.708,135.102 25.861,135.102 25.861C135.243 25.861,131.396 20.89,130.301 19.178C128.812 16.875,128.11 14.572,128.026 14.404C127.998 14.292,127.633 12.832,127.633 12.832C127.605 12.663,127.38 12.523,127.156 12.523C126.875 12.523,126.622 12.747,126.622 13.028"/></g><g class="vf-stavenote" id="vf-auto7731"><g class="vf-stem" id="vf-auto7732" pointer-events="bounding-box"><path stroke-width="1.5" fill="none" d="M160.695 58L160.695 25"/></g><g class="vf-notehead" id="vf-auto7735" pointer-events="bounding-box"><path stroke="none" d="M148.303 61.685C148.303 63.426,149.567 65.391,152.824 65.391C157.036 65.391,161.445 61.938,161.445 58.371C161.445 55.985,159.423 54.665,156.924 54.665C152.993 54.665,148.303 57.978,148.303 61.685"/></g></g><g class="vf-stavenote" id="vf-auto7736"><g class="vf-notehead" id="vf-auto7742" pointer-events="bounding-box"><path stroke="none" d="M186.784 66.685C186.784 68.426,188.047 70.391,191.304 70.391C195.516 70.391,199.925 66.938,199.925 63.371C199.925 60.985,197.903 59.665,195.404 59.665C191.473 59.665,186.784 62.978,186.784 66.685"/></g></g><g class="vf-stavenote" id="vf-auto7744"><g class="vf-notehead" id="vf-auto7750" pointer-events="bounding-box"><path stroke="none" d="M220.106 66.685C220.106 68.426,221.37 70.391,224.627 70.391C228.839 70.391,233.248 66.938,233.248 63.371C233.248 60.985,231.226 59.665,228.727 59.665C224.795 59.665,220.106 62.978,220.106 66.685"/><path stroke="none" d="M216.696 60.869C216.915 60.814,217.106 60.54,217.106 60.321L217.106 57.996C217.106 57.668,216.887 57.449,216.559 57.449C216.532 57.449,216.532 57.449,216.477 57.449L215.191 57.722L215.191 51.84L214.069 51.84L214.069 57.941L210.567 58.652L210.567 53.098L209.473 53.098L209.473 58.899L207.941 59.2C207.694 59.254,207.503 59.528,207.503 59.747L207.503 59.829L207.503 62.127L207.503 62.045C207.503 62.373,207.749 62.592,208.05 62.592C208.105 62.592,208.132 62.592,208.159 62.592L209.473 62.319L209.473 68.83L207.941 69.131C207.694 69.186,207.503 69.46,207.503 69.679L207.503 71.977C207.503 72.278,207.749 72.524,208.05 72.524C208.105 72.524,208.132 72.524,208.159 72.524L209.473 72.25L209.473 78.133L210.567 78.133L210.567 72.004L214.069 71.293L214.069 76.847L215.191 76.847L215.191 71.074L216.696 70.8C216.915 70.746,217.106 70.472,217.106 70.253L217.106 67.928C217.106 67.599,216.887 67.353,216.559 67.353C216.532 67.353,216.532 67.353,216.477 67.353L215.191 67.627L215.191 61.142M210.567 62.072L214.069 61.388L214.069 67.873L210.567 68.612"/></g></g><g class="vf-stavenote" id="vf-auto7754"><g class="vf-notehead" id="vf-auto7760" pointer-events="bounding-box"><path stroke="none" d="M251.115 61.685C251.115 63.426,252.379 65.391,255.636 65.391C259.848 65.391,264.257 61.938,264.257 58.371C264.257 55.985,262.235 54.665,259.736 54.665C255.805 54.665,251.115 57.978,251.115 61.685"/></g></g><g class="vf-stavenote" id="vf-auto7764"><g class="vf-stem" id="vf-auto7765" pointer-events="bounding-box"><path stroke-width="1.5" fill="none" d="M411.699 48L411.699 18"/></g><g class="vf-notehead" id="vf-auto7770" pointer-events="bounding-box"><path stroke="none" d="M399.307 51.685C399.307 53.426,400.571 55.391,403.828 55.391C408.04 55.391,412.449 51.938,412.449 48.371C412.449 45.985,410.427 44.665,407.928 44.665C403.997 44.665,399.307 47.978,399.307 51.685"/><path stroke="none" d="M396.116 42.777C396.034 42.722,395.924 42.668,395.815 42.668C395.76 42.668,395.678 42.722,395.651 42.722L390.671 44.09L390.671 37.196L389.577 37.196L389.577 56.703C389.577 57.004,389.823 57.223,390.124 57.223C390.179 57.223,390.233 57.223,390.288 57.223L395.24 55.828L395.24 62.722L396.307 62.722C396.307 56.183,396.307 49.973,396.307 43.215C396.307 43.078,396.225 42.859,396.116 42.777M390.671 53.83L390.671 47.373L395.24 46.06L395.24 52.572"/></g><path stroke="none" d="M410.949 22.182C410.949 22.294,410.977 22.491,411.286 22.631C412.999 23.193,416.481 25.383,419.12 29.848C419.85 31.112,421.03 32.853,421.03 36.222C421.03 39.114,420.243 42.119,419.204 45.011C419.12 45.264,419.036 45.46,419.064 45.629C419.064 45.797,419.12 45.91,419.289 45.994C419.373 46.022,419.429 46.022,419.485 46.022C419.766 46.022,419.963 45.882,420.131 45.601C422.04 42.231,422.686 37.935,422.63 35.408C422.63 35.211,422.63 35.071,422.63 34.902C422.434 29.708,419.429 25.861,419.429 25.861C419.569 25.861,415.722 20.89,414.627 19.178C413.139 16.875,412.437 14.572,412.353 14.404C412.325 14.292,411.96 12.832,411.96 12.832C411.932 12.663,411.707 12.523,411.482 12.523C411.202 12.523,410.949 12.747,410.949 13.028"/></g><g class="vf-stavenote" id="vf-auto7775"><g class="vf-stem" id="vf-auto7776" pointer-events="bounding-box"><path stroke-width="1.5" fill="none" d="M43.353 87L43.353 120"/></g><g class="vf-notehead" id="vf-auto7779" pointer-events="bounding-box"><path stroke="none" d="M42.603 86.685C42.603 88.426,43.867 90.391,47.124 90.391C51.336 90.391,55.745 86.938,55.745 83.371C55.745 80.985,53.723 79.665,51.224 79.665C47.293 79.665,42.603 82.978,42.603 86.685"/><path stroke="none" d="M39.193 80.869C39.412 80.814,39.603 80.54,39.603 80.321L39.603 77.996C39.603 77.668,39.384 77.449,39.056 77.449C39.029 77.449,39.029 77.449,38.974 77.449L37.688 77.722L37.688 71.84L36.566 71.84L36.566 77.941L33.064 78.652L33.064 73.098L31.97 73.098L31.97 78.899L30.438 79.2C30.192 79.254,30 79.528,30 79.747L30 79.829L30 82.127L30 82.045C30 82.373,30.246 82.592,30.547 82.592C30.602 82.592,30.629 82.592,30.657 82.592L31.97 82.319L31.97 88.83L30.438 89.131C30.192 89.186,30 89.46,30 89.679L30 91.977C30 92.278,30.246 92.524,30.547 92.524C30.602 92.524,30.629 92.524,30.657 92.524L31.97 92.25L31.97 98.133L33.064 98.133L33.064 92.004L36.566 91.293L36.566 96.847L37.688 96.847L37.688 91.074L39.193 90.8C39.412 90.746,39.603 90.472,39.603 90.253L39.603 87.928C39.603 87.599,39.384 87.353,39.056 87.353C39.029 87.353,39.029 87.353,38.974 87.353L37.688 87.627L37.688 81.142M33.064 82.072L36.566 81.388L36.566 87.873L33.064 88.612"/></g></g><g class="vf-stavenote" id="vf-auto7782"><g class="vf-notehead" id="vf-auto7788" pointer-events="bounding-box"><path stroke="none" d="M79.229 91.685C79.229 93.426,80.493 95.391,83.75 95.391C87.962 95.391,92.37 91.938,92.37 88.371C92.37 85.985,90.349 84.665,87.85 84.665C83.918 84.665,79.229 87.978,79.229 91.685"/></g></g><g class="vf-stavenote" id="vf-auto7790"><g class="vf-notehead" id="vf-auto7796" pointer-events="bounding-box"><path stroke="none" d="M114.981 96.685C114.981 98.426,116.244 100.391,119.502 100.391C123.714 100.391,128.122 96.938,128.122 93.371C128.122 90.985,126.1 89.665,123.601 89.665C119.67 89.665,114.981 92.978,114.981 96.685"/></g></g><g class="vf-stavenote" id="vf-auto7800"><path stroke-width="1.4" fill="none" stroke="#444" d="M248.115 100L267.257 100"/><g class="vf-stem" id="vf-auto7801" pointer-events="bounding-box"><path stroke-width="1.5" fill="none" d="M251.865 102L251.865 132"/></g><g class="vf-notehead" id="vf-auto7806" pointer-events="bounding-box"><path stroke="none" d="M251.115 101.685C251.115 103.426,252.379 105.391,255.636 105.391C259.848 105.391,264.257 101.938,264.257 98.371C264.257 95.985,262.235 94.665,259.736 94.665C255.805 94.665,251.115 97.978,251.115 101.685"/><path stroke="none" d="M248.033 96.881C247.814 95.349,246.857 93.899,244.859 93.899C242.889 93.899,241.74 95.103,241.549 95.349L241.713 82.708C241.713 82.38,241.467 82.161,241.138 82.161L240.673 82.161C240.372 82.161,240.126 82.38,240.126 82.708L240.318 106.375C240.318 106.703,240.564 106.922,240.865 106.922C240.947 106.922,241.111 106.895,241.193 106.867C241.357 106.785,243.902 105.527,246.036 103.119C247.541 101.423,248.115 99.48,248.115 97.866C248.115 97.51,248.088 97.209,248.033 96.881M245.324 98.413C245.324 99.015,245.16 100.821,244.175 102.326C243.519 103.338,242.178 104.405,241.439 105.007L241.549 97.319C241.631 96.963,242.205 95.814,243.792 95.814C245.215 95.814,245.324 97.155,245.324 98.003C245.324 98.194,245.324 98.304,245.324 98.413"/></g><path stroke="none" d="M252.603 127.284C252.66 127.088,252.688 126.919,252.688 126.807C252.968 125.796,253.305 124.308,255.692 122.483C258.023 120.657,260.831 118.411,261.898 116.445C261.842 119.562,261.055 121.5,260.017 122.876C257.545 125.908,254.541 126.779,252.603 127.284M251.115 137.393C251.115 137.73,251.396 138.039,251.733 138.039C252.042 138.039,252.238 137.73,252.323 137.393C252.94 133.237,254.176 132.03,255.805 130.485C257.939 128.436,263.611 125.319,263.611 117.821C263.611 116.502,263.498 115.013,263.246 113.497C263.414 112.992,263.498 112.262,263.498 111.194C263.498 108.021,261.617 105.775,260.297 104.736C260.129 104.624,259.876 104.54,259.651 104.54C259.483 104.54,259.315 104.568,259.174 104.652C259.006 104.736,258.949 104.764,258.949 104.848C258.949 104.989,259.202 105.129,259.371 105.298C260.775 106.786,261.842 108.162,261.842 110.886C261.842 111.391,261.786 111.925,261.617 112.402L261.589 112.542C261.589 112.542,261.589 112.542,261.589 112.542C261.392 113.357,260.943 114.115,260.297 114.845C257.461 118.13,253.53 119.815,251.733 120.208C251.452 120.349,251.115 121.219,251.115 121.303"/></g><g class="vf-stavenote" id="vf-auto7810"><path stroke-width="1.4" fill="none" stroke="#444" d="M279.124 100L298.266 100"/><g class="vf-stem" id="vf-auto7811" pointer-events="bounding-box"><path stroke-width="1.5" fill="none" d="M282.874 102.65L282.874 135"/></g><g class="vf-notehead" id="vf-auto7814" pointer-events="bounding-box"><path stroke="none" d="M290.745 94.665C286.814 94.665,282.124 97.95,282.124 101.685C282.124 103.426,283.388 105.391,286.645 105.391C290.857 105.391,295.266 101.938,295.266 98.371C295.266 95.985,293.244 94.665,290.745 94.665M289.65 101.769C289.537 101.853,286.561 103.482,285.157 103.482C283.809 103.482,283.528 102.387,283.528 102.022C283.528 100.337,287.572 98.343,287.74 98.259C287.909 98.175,290.773 96.574,292.233 96.574C293.216 96.574,293.862 97.136,293.862 98.006C293.862 99.747,289.762 101.685,289.65 101.769"/><path stroke="none" d="M278.714 95.869C278.933 95.814,279.124 95.54,279.124 95.321L279.124 92.996C279.124 92.668,278.905 92.449,278.577 92.449C278.55 92.449,278.55 92.449,278.495 92.449L277.209 92.722L277.209 86.84L276.087 86.84L276.087 92.941L272.585 93.652L272.585 88.098L271.491 88.098L271.491 93.899L269.959 94.2C269.712 94.254,269.521 94.528,269.521 94.747L269.521 94.829L269.521 97.127L269.521 97.045C269.521 97.373,269.767 97.592,270.068 97.592C270.123 97.592,270.15 97.592,270.178 97.592L271.491 97.319L271.491 103.83L269.959 104.131C269.712 104.186,269.521 104.46,269.521 104.679L269.521 106.977C269.521 107.278,269.767 107.524,270.068 107.524C270.123 107.524,270.15 107.524,270.178 107.524L271.491 107.25L271.491 113.133L272.585 113.133L272.585 107.004L276.087 106.293L276.087 111.847L277.209 111.847L277.209 106.074L278.714 105.8C278.933 105.746,279.124 105.472,279.124 105.253L279.124 102.928C279.124 102.599,278.905 102.353,278.577 102.353C278.55 102.353,278.55 102.353,278.495 102.353L277.209 102.627L277.209 96.142M272.585 97.072L276.087 96.388L276.087 102.873L272.585 103.612"/></g></g><g class="vf-stavenote" id="vf-auto7817"><g class="vf-stem" id="vf-auto7818" pointer-events="bounding-box"><path stroke-width="1.5" fill="none" d="M331.715 97L331.715 130"/></g><g class="vf-notehead" id="vf-auto7821" pointer-events="bounding-box"><path stroke="none" d="M330.965 96.685C330.965 98.426,332.229 100.391,335.486 100.391C339.698 100.391,344.107 96.938,344.107 93.371C344.107 90.985,342.085 89.665,339.586 89.665C335.655 89.665,330.965 92.978,330.965 96.685"/></g></g><g class="vf-stavenote" id="vf-auto7822"><g class="vf-notehead" id="vf-auto7828" pointer-events="bounding-box"><path stroke="none" d="M367.591 86.685C367.591 88.426,368.855 90.391,372.112 90.391C376.324 90.391,380.732 86.938,380.732 83.371C380.732 80.985,378.711 79.665,376.211 79.665C372.28 79.665,367.591 82.978,367.591 86.685"/><path stroke="none" d="M364.399 77.777C364.317 77.722,364.208 77.668,364.098 77.668C364.044 77.668,363.962 77.722,363.934 77.722L358.955 79.09L358.955 72.196L357.86 72.196L357.86 91.703C357.86 92.004,358.107 92.223,358.408 92.223C358.462 92.223,358.517 92.223,358.572 92.223L363.524 90.828L363.524 97.722L364.591 97.722C364.591 91.183,364.591 84.973,364.591 78.215C364.591 78.078,364.509 77.859,364.399 77.777M358.955 88.83L358.955 82.373L363.524 81.06L363.524 87.572"/></g></g><g class="vf-stavenote" id="vf-auto7832"><g class="vf-notehead" id="vf-auto7838" pointer-events="bounding-box"><path stroke="none" d="M399.307 91.685C399.307 93.426,400.571 95.391,403.828 95.391C408.04 95.391,412.449 91.938,412.449 88.371C412.449 85.985,410.427 84.665,407.928 84.665C403.997 84.665,399.307 87.978,399.307 91.685"/></g></g><g class="vf-stem" id="vf-auto7737" pointer-events="bounding-box"><path stroke-width="1.5" fill="none" d="M199.175 63L199.175 28.967"/></g><g class="vf-stem" id="vf-auto7745" pointer-events="bounding-box"><path stroke-width="1.5" fill="none" d="M232.498 63L232.498 27.3"/></g><g class="vf-stem" id="vf-auto7755" pointer-events="bounding-box"><path stroke-width="1.5" fill="none" d="M263.507 58L263.507 25.75"/></g><g class="vf-beam" id="vf-auto7762"><path stroke="none" d="M198.425 28.254L198.425 33.254L263.757 30.037L263.757 25.037Z"/><path stroke="none" d="M231.748 34.088L231.748 39.088L263.757 37.538L263.757 32.538Z"/></g><g class="vf-stem" id="vf-auto7783" pointer-events="bounding-box"><path stroke-width="1.5" fill="none" d="M79.979 92L79.979 126.569"/></g><g class="vf-stem" id="vf-auto7791" pointer-events="bounding-box"><path stroke-width="1.5" fill="none" d="M115.731 97L115.731 129.25"/></g><g class="vf-beam" id="vf-auto7798"><path stroke="none" d="M79.229 127.262L79.229 122.262L115.981 124.944L115.981 129.944Z"/></g><g class="vf-stem" id="vf-auto7823" pointer-events="bounding-box"><path stroke-width="1.5" fill="none" d="M368.341 87L368.341 121.871"/></g><g class="vf-stem" id="vf-auto7833" pointer-events="bounding-box"><path stroke-width="1.5" fill="none" d="M400.057 92L400.057 124.25"/></g><g class="vf-beam" id="vf-auto7840"><path stroke="none" d="M367.591 122.565L367.591 117.565L400.307 119.944L400.307 124.944Z"/></g></svg>