<svg xmlns="http://www.w3.org/2000/svg" stroke-width="0.3" stroke-dasharray="none" fill="black" stroke="black" font-family="Arial, sans-serif" font-size="10pt" font-weight="normal" font-style="normal" width="700" height="200" viewBox="0 0 700 200" style="width: 700px; height: 200px; border: none;"><g class="vf-stave" id="vf-auto18225" stroke-width="1" fill="#999999" stroke="#999999"><path fill="none" d="M0 40L690 40"/><path fill="none" d="M0 50L690 50"/><path fill="none" d="M0 60L690 60"/><path fill="none" d="M0 70L690 70"/><path fill="none" d="M0 80L690 80"/></g><g class="vf-stavebarline" id="vf-auto18226"><rect y="39.5" width="1" height="41" stroke="none"/></g><g class="vf-stavebarline" id="vf-auto18227"><rect x="690" y="39.5" width="1" height="41" stroke="none"/></g><path stroke="none" d="M25.788 56.952L25.788 41.775C25.788 41.53,25.592 41.359,25.348 41.359L21.872 41.359C21.798 41.359,21.725 41.408,21.651 41.432C21.627 41.481,21.553 41.53,21.504 41.579L17.563 48.409C17.539 48.482,17.539 48.556,17.539 48.629C17.539 48.776,17.636 48.898,17.734 48.972L18.42 49.364C18.469 49.412,18.542 49.437,18.616 49.437C18.763 49.437,18.909 49.339,18.983 49.217L21.48 44.933L21.48 56.952L18.787 56.952C18.542 56.952,18.371 57.124,18.371 57.368L18.371 58.152C18.371 58.397,18.542 58.568,18.787 58.568L28.457 58.568C28.701 58.568,28.848 58.397,28.848 58.152L28.848 57.368C28.848 57.124,28.701 56.952,28.457 56.952"/><path stroke="none" d="M40.354 51.371C40.085 52.154,39.375 54.7,37.661 54.7C35.36 54.7,34.87 53.28,32.961 53.28C32.692 53.28,32.398 53.305,32.055 53.378C32.055 53.378,32.936 52.056,36.657 50.881C40.403 49.706,41.358 47.895,41.358 45.765C41.358 44.296,40.672 41.359,35.36 41.359C30.048 41.359,29.044 44.565,29.044 46.181C29.044 47.65,30.244 48.8,31.688 48.8C33.132 48.8,34.307 47.65,34.307 46.181C34.307 45.202,33.597 44.125,32.692 43.758C32.569 43.733,32.422 43.537,32.422 43.366C32.422 43.17,32.618 42.925,33.255 42.729C33.426 42.656,33.916 42.558,34.454 42.558C34.944 42.558,35.507 42.656,35.923 42.95C36.584 43.366,36.829 44.002,36.829 45.594C36.829 49.706,31.933 50.588,29.901 53.672C29.901 53.672,28.848 55.141,28.848 56.805C28.848 58.47,29.681 58.568,30.097 58.568C30.66 58.568,31.272 58.103,31.272 57.466C31.272 57.344,31.247 57.197,31.174 57.026C30.954 56.512,30.88 56.144,30.88 55.851C30.88 55.753,30.88 55.63,30.929 55.532C30.954 55.312,31.247 54.969,32.08 54.969C33.108 54.969,33.5 56.169,34.136 57.075C34.772 58.005,35.752 58.568,36.878 58.568C38.004 58.568,39.522 57.76,40.158 56.463C40.795 55.141,41.602 52.497,41.602 51.542C41.602 51.102,41.309 50.881,40.99 50.881C40.746 50.881,40.501 51.028,40.354 51.371"/><path stroke="none" d="M28.836 74.48L28.836 77.075L25.898 77.075C25.654 77.075,25.409 77.295,25.409 77.589L25.409 78.25C25.409 78.519,25.654 78.739,25.898 78.739L36.572 78.739C36.866 78.739,37.061 78.519,37.061 78.25L37.061 77.589C37.061 77.295,36.866 77.075,36.572 77.075L33.414 77.075L33.414 74.48L36.572 74.48C36.866 74.48,37.061 74.235,37.061 73.941L37.061 73.28C37.061 73.036,36.866 72.791,36.572 72.791L33.414 72.791L33.414 67.185C33.414 66.964,33.291 66.793,33.169 66.72L32.728 66.499C32.655 66.475,32.63 66.475,32.557 66.475C32.533 66.475,32.533 66.475,32.484 66.475C32.386 66.475,32.239 66.499,32.165 66.573L28.958 69.51C28.861 69.608,28.836 69.755,28.836 69.902L28.836 72.791L24.723 72.791C24.723 72.791,28.689 68.556,32.851 62.974C32.973 62.803,33.022 62.632,33.022 62.485C33.022 62.313,32.949 62.166,32.924 62.142L32.141 61.359C32.043 61.285,31.921 61.212,31.774 61.212C31.578 61.212,26.804 61.212,26.535 61.212C26.29 61.212,26.119 61.432,26.07 61.652C26.07 61.652,25.898 64.247,24.993 67.111C24.062 69.976,23.01 71.738,22.08 73.036C22.08 73.036,21.982 73.207,21.982 73.427C21.982 73.501,21.982 73.55,22.031 73.623C22.129 73.868,22.373 74.26,22.373 74.26C22.373 74.26,22.447 74.48,22.765 74.48"/><g class="vf-stavenote" id="vf-auto18228"><path stroke-width="1.4" fill="none" stroke="#444" d="M75.729 90L94.87 90"/><g class="vf-stem" id="vf-auto18229" pointer-events="bounding-box"><path stroke-width="1.5" fill="none" d="M91.12 88L91.12 20"/></g><g class="vf-notehead" id="vf-auto18232" pointer-events="bounding-box"><path stroke="none" d="M78.729 91.685C78.729 93.426,79.992 95.391,83.249 95.391C87.461 95.391,91.87 91.938,91.87 88.371C91.87 85.985,89.848 84.665,87.349 84.665C83.418 84.665,78.729 87.978,78.729 91.685"/><g class="vf-stavenote" id="vf-auto18300"><g class="vf-stem" id="vf-auto18301" pointer-events="bounding-box"><path stroke-width="1.5" fill="none" d="M63.305 83L63.305 64.9"/></g><g class="vf-notehead" id="vf-auto18306" pointer-events="bounding-box"><path stroke="none" d="M55.382 86.112C55.382 87.261,56.216 88.558,58.366 88.558C61.146 88.558,64.055 86.279,64.055 83.925C64.055 82.35,62.721 81.479,61.071 81.479C58.477 81.479,55.382 83.666,55.382 86.112"/><path stroke="none" d="M52.112 82.282C52.256 82.246,52.382 82.066,52.382 81.922L52.382 80.392C52.382 80.176,52.238 80.032,52.022 80.032C52.004 80.032,52.004 80.032,51.968 80.032L51.122 80.212L51.122 76.342L50.384 76.342L50.384 80.356L48.08 80.824L48.08 77.17L47.36 77.17L47.36 80.986L46.352 81.184C46.19 81.22,46.064 81.4,46.064 81.544L46.064 81.598L46.064 83.11L46.064 83.056C46.064 83.272,46.226 83.416,46.424 83.416C46.46 83.416,46.478 83.416,46.496 83.416L47.36 83.236L47.36 87.52L46.352 87.718C46.19 87.754,46.064 87.934,46.064 88.078L46.064 89.59C46.064 89.788,46.226 89.95,46.424 89.95C46.46 89.95,46.478 89.95,46.496 89.95L47.36 89.77L47.36 93.64L48.08 93.64L48.08 89.608L50.384 89.14L50.384 92.794L51.122 92.794L51.122 88.996L52.112 88.816C52.256 88.78,52.382 88.6,52.382 88.456L52.382 86.926C52.382 86.71,52.238 86.548,52.022 86.548C52.004 86.548,52.004 86.548,51.968 86.548L51.122 86.728L51.122 82.462M48.08 83.074L50.384 82.624L50.384 86.89L48.08 87.376"/></g><path stroke="none" d="M68.134 72.521C67.411 71.594,66.614 70.742,65.298 69.426C64.26 68.388,63.778 67.48,63.593 66.794C63.574 66.646,63.537 66.461,63.519 66.257C64.872 66.257,66.614 68.091,67.578 69.352C68.615 70.705,68.856 71.78,68.856 72.799C68.856 73.058,68.819 73.318,68.801 73.596C68.578 73.169,68.337 72.817,68.134 72.521M62.555 70.075C62.555 70.149,62.778 70.26,62.963 70.334C63.649 70.575,65.724 71.909,67.337 74.281C68.245 75.653,68.449 76.598,68.449 77.506C68.449 77.673,68.449 77.803,68.43 77.969C68.43 78.6,68.245 79.971,67.837 81.027C67.819 81.176,67.726 81.324,67.726 81.472C67.726 81.565,67.781 81.676,67.911 81.75C67.967 81.787,68.004 81.787,68.059 81.787C68.245 81.787,68.337 81.565,68.449 81.417C68.93 80.657,69.635 79.23,69.635 77.729C69.635 76.95,69.579 76.32,69.486 75.746C69.764 74.763,70.005 73.781,70.005 72.465C70.005 71.075,69.635 69.834,68.727 68.629C67.466 66.98,66.113 65.59,65.094 64.125C64.075 62.643,63.334 59.9,63.334 59.9C63.278 59.715,63.241 59.585,62.963 59.585C62.629 59.585,62.555 59.715,62.555 59.9"/></g><path stroke-width="1" fill="none" d="M56.382 76.75L69.382 67.75Z"/></g><g class="vf-notehead" id="vf-auto18233" pointer-events="bounding-box"><path stroke="none" d="M78.729 56.685C78.729 58.426,79.992 60.391,83.249 60.391C87.461 60.391,91.87 56.938,91.87 53.371C91.87 50.985,89.848 49.665,87.349 49.665C83.418 49.665,78.729 52.978,78.729 56.685"/></g></g><g class="vf-stavenote" id="vf-auto18234"><path stroke-width="1.4" fill="none" stroke="#444" d="M126.388 90L145.53 90"/><g class="vf-stem" id="vf-auto18235" pointer-events="bounding-box"><path stroke-width="1.5" fill="none" d="M141.78 88L141.78 20"/></g><g class="vf-notehead" id="vf-auto18238" pointer-events="bounding-box"><path stroke="none" d="M129.388 91.685C129.388 93.426,130.652 95.391,133.909 95.391C138.121 95.391,142.53 91.938,142.53 88.371C142.53 85.985,140.508 84.665,138.009 84.665C134.078 84.665,129.388 87.978,129.388 91.685"/><path stroke="none" d="M125.978 85.869C126.197 85.814,126.388 85.54,126.388 85.321L126.388 82.996C126.388 82.668,126.17 82.449,125.841 82.449C125.814 82.449,125.814 82.449,125.759 82.449L124.473 82.722L124.473 76.84L123.351 76.84L123.351 82.941L119.849 83.652L119.849 78.098L118.755 78.098L118.755 83.899L117.223 84.2C116.977 84.254,116.785 84.528,116.785 84.747L116.785 84.829L116.785 87.127L116.785 87.045C116.785 87.373,117.031 87.592,117.332 87.592C117.387 87.592,117.414 87.592,117.442 87.592L118.755 87.319L118.755 93.83L117.223 94.131C116.977 94.186,116.785 94.46,116.785 94.679L116.785 96.977C116.785 97.278,117.031 97.524,117.332 97.524C117.387 97.524,117.414 97.524,117.442 97.524L118.755 97.25L118.755 103.133L119.849 103.133L119.849 97.004L123.351 96.293L123.351 101.847L124.473 101.847L124.473 96.074L125.978 95.8C126.197 95.746,126.388 95.472,126.388 95.253L126.388 92.928C126.388 92.599,126.17 92.353,125.841 92.353C125.814 92.353,125.814 92.353,125.759 92.353L124.473 92.627L124.473 86.142M119.849 87.072L123.351 86.388L123.351 92.873L119.849 93.612"/></g><g class="vf-notehead" id="vf-auto18239" pointer-events="bounding-box"><path stroke="none" d="M129.388 56.685C129.388 58.426,130.652 60.391,133.909 60.391C138.121 60.391,142.53 56.938,142.53 53.371C142.53 50.985,140.508 49.665,138.009 49.665C134.078 49.665,129.388 52.978,129.388 56.685"/><path stroke="none" d="M125.978 50.869C126.197 50.814,126.388 50.54,126.388 50.321L126.388 47.996C126.388 47.668,126.17 47.449,125.841 47.449C125.814 47.449,125.814 47.449,125.759 47.449L124.473 47.722L124.473 41.84L123.351 41.84L123.351 47.941L119.849 48.652L119.849 43.098L118.755 43.098L118.755 48.899L117.223 49.2C116.977 49.254,116.785 49.528,116.785 49.747L116.785 49.829L116.785 52.127L116.785 52.045C116.785 52.373,117.031 52.592,117.332 52.592C117.387 52.592,117.414 52.592,117.442 52.592L118.755 52.319L118.755 58.83L117.223 59.131C116.977 59.186,116.785 59.46,116.785 59.679L116.785 61.977C116.785 62.278,117.031 62.524,117.332 62.524C117.387 62.524,117.414 62.524,117.442 62.524L118.755 62.25L118.755 68.133L119.849 68.133L119.849 62.004L123.351 61.293L123.351 66.847L124.473 66.847L124.473 61.074L125.978 60.8C126.197 60.746,126.388 60.472,126.388 60.253L126.388 57.928C126.388 57.599,126.17 57.353,125.841 57.353C125.814 57.353,125.814 57.353,125.759 57.353L124.473 57.627L124.473 51.142M119.849 52.072L123.351 51.388L123.351 57.873L119.849 58.612"/></g></g><g class="vf-stavenote" id="vf-auto18240"><path stroke-width="1.4" fill="none" stroke="#444" d="M177.048 90L196.19 90"/><g class="vf-stem" id="vf-auto18241" pointer-events="bounding-box"><path stroke-width="1.5" fill="none" d="M192.44 88L192.44 20"/></g><g class="vf-notehead" id="vf-auto18244" pointer-events="bounding-box"><path stroke="none" d="M180.048 91.685C180.048 93.426,181.312 95.391,184.569 95.391C188.781 95.391,193.19 91.938,193.19 88.371C193.19 85.985,191.168 84.665,188.669 84.665C184.738 84.665,180.048 87.978,180.048 91.685"/></g><g class="vf-notehead" id="vf-auto18245" pointer-events="bounding-box"><path stroke="none" d="M180.048 56.685C180.048 58.426,181.312 60.391,184.569 60.391C188.781 60.391,193.19 56.938,193.19 53.371C193.19 50.985,191.168 49.665,188.669 49.665C184.738 49.665,180.048 52.978,180.048 56.685"/></g></g><g class="vf-stavenote" id="vf-auto18246"><path stroke-width="1.4" fill="none" stroke="#444" d="M227.708 90L246.85 90"/><g class="vf-stem" id="vf-auto18247" pointer-events="bounding-box"><path stroke-width="1.5" fill="none" d="M243.1 88L243.1 20"/></g><g class="vf-notehead" id="vf-auto18250" pointer-events="bounding-box"><path stroke="none" d="M230.708 91.685C230.708 93.426,231.972 95.391,235.229 95.391C239.441 95.391,243.85 91.938,243.85 88.371C243.85 85.985,241.828 84.665,239.329 84.665C235.397 84.665,230.708 87.978,230.708 91.685"/><path stroke="none" d="M226.723 88.003L227.161 88.003C227.462 88.003,227.708 87.756,227.708 87.428L227.708 85.103C227.708 84.802,227.462 84.555,227.161 84.555L224.835 84.555C224.507 84.555,224.288 84.802,224.288 85.103L224.288 85.595L224.288 87.209L222.346 89.179L222.236 89.179L220.266 87.209L220.266 85.103C220.266 84.802,220.075 84.555,219.746 84.555L217.421 84.555C217.12 84.555,216.874 84.802,216.874 85.103L216.874 87.428C216.874 87.756,217.12 88.003,217.421 88.003L217.831 88.003L217.858 88.003L219.5 88.003L221.443 89.918L221.443 90.027L219.5 91.997L217.858 91.997L217.831 91.997L217.421 91.997C217.12 91.997,216.874 92.216,216.874 92.517L216.874 94.843C216.874 95.171,217.12 95.39,217.421 95.39L219.746 95.39C220.075 95.39,220.266 95.171,220.266 94.843L220.266 92.763L222.236 90.876L222.346 90.876L224.288 92.763L224.288 94.405L224.288 94.46L224.288 94.843C224.288 95.171,224.507 95.39,224.835 95.39L227.161 95.39C227.462 95.39,227.708 95.171,227.708 94.843L227.708 92.517C227.708 92.216,227.462 91.997,227.161 91.997L226.75 91.997L226.723 91.997L225.082 91.997L223.112 90.027L223.112 89.973L225.082 88.003"/></g><g class="vf-notehead" id="vf-auto18251" pointer-events="bounding-box"><path stroke="none" d="M230.708 56.685C230.708 58.426,231.972 60.391,235.229 60.391C239.441 60.391,243.85 56.938,243.85 53.371C243.85 50.985,241.828 49.665,239.329 49.665C235.397 49.665,230.708 52.978,230.708 56.685"/><path stroke="none" d="M226.723 53.003L227.161 53.003C227.462 53.003,227.708 52.756,227.708 52.428L227.708 50.103C227.708 49.802,227.462 49.555,227.161 49.555L224.835 49.555C224.507 49.555,224.288 49.802,224.288 50.103L224.288 50.595L224.288 52.209L222.346 54.179L222.236 54.179L220.266 52.209L220.266 50.103C220.266 49.802,220.075 49.555,219.746 49.555L217.421 49.555C217.12 49.555,216.874 49.802,216.874 50.103L216.874 52.428C216.874 52.756,217.12 53.003,217.421 53.003L217.831 53.003L217.858 53.003L219.5 53.003L221.443 54.918L221.443 55.027L219.5 56.997L217.858 56.997L217.831 56.997L217.421 56.997C217.12 56.997,216.874 57.216,216.874 57.517L216.874 59.843C216.874 60.171,217.12 60.39,217.421 60.39L219.746 60.39C220.075 60.39,220.266 60.171,220.266 59.843L220.266 57.763L222.236 55.876L222.346 55.876L224.288 57.763L224.288 59.405L224.288 59.46L224.288 59.843C224.288 60.171,224.507 60.39,224.835 60.39L227.161 60.39C227.462 60.39,227.708 60.171,227.708 59.843L227.708 57.517C227.708 57.216,227.462 56.997,227.161 56.997L226.75 56.997L226.723 56.997L225.082 56.997L223.112 55.027L223.112 54.973L225.082 53.003"/></g></g><g class="vf-stavenote" id="vf-auto18252"><path stroke-width="1.4" fill="none" stroke="#444" d="M278.368 90L297.509 90"/><g class="vf-stem" id="vf-auto18253" pointer-events="bounding-box"><path stroke-width="1.5" fill="none" d="M293.759 88L293.759 20"/></g><g class="vf-notehead" id="vf-auto18256" pointer-events="bounding-box"><path stroke="none" d="M281.368 91.685C281.368 93.426,282.632 95.391,285.889 95.391C290.101 95.391,294.509 91.938,294.509 88.371C294.509 85.985,292.488 84.665,289.988 84.665C286.057 84.665,281.368 87.978,281.368 91.685"/></g><g class="vf-notehead" id="vf-auto18257" pointer-events="bounding-box"><path stroke="none" d="M281.368 56.685C281.368 58.426,282.632 60.391,285.889 60.391C290.101 60.391,294.509 56.938,294.509 53.371C294.509 50.985,292.488 49.665,289.988 49.665C286.057 49.665,281.368 52.978,281.368 56.685"/></g></g><g class="vf-stavenote" id="vf-auto18258"><path stroke-width="1.4" fill="none" stroke="#444" d="M329.028 90L348.169 90"/><g class="vf-stem" id="vf-auto18259" pointer-events="bounding-box"><path stroke-width="1.5" fill="none" d="M344.419 88L344.419 20"/></g><g class="vf-notehead" id="vf-auto18262" pointer-events="bounding-box"><path stroke="none" d="M332.028 91.685C332.028 93.426,333.291 95.391,336.549 95.391C340.761 95.391,345.169 91.938,345.169 88.371C345.169 85.985,343.147 84.665,340.648 84.665C336.717 84.665,332.028 87.978,332.028 91.685"/><path stroke="none" d="M328.836 82.777C328.754 82.722,328.645 82.668,328.535 82.668C328.481 82.668,328.398 82.722,328.371 82.722L323.392 84.09L323.392 77.196L322.297 77.196L322.297 96.703C322.297 97.004,322.543 97.223,322.844 97.223C322.899 97.223,322.954 97.223,323.009 97.223L327.961 95.828L327.961 102.722L329.028 102.722C329.028 96.183,329.028 89.973,329.028 83.215C329.028 83.078,328.946 82.859,328.836 82.777M323.392 93.83L323.392 87.373L327.961 86.06L327.961 92.572"/></g><g class="vf-notehead" id="vf-auto18263" pointer-events="bounding-box"><path stroke="none" d="M332.028 56.685C332.028 58.426,333.291 60.391,336.549 60.391C340.761 60.391,345.169 56.938,345.169 53.371C345.169 50.985,343.147 49.665,340.648 49.665C336.717 49.665,332.028 52.978,332.028 56.685"/><path stroke="none" d="M328.836 47.777C328.754 47.722,328.645 47.668,328.535 47.668C328.481 47.668,328.398 47.722,328.371 47.722L323.392 49.09L323.392 42.196L322.297 42.196L322.297 61.703C322.297 62.004,322.543 62.223,322.844 62.223C322.899 62.223,322.954 62.223,323.009 62.223L327.961 60.828L327.961 67.722L329.028 67.722C329.028 61.183,329.028 54.973,329.028 48.215C329.028 48.078,328.946 47.859,328.836 47.777M323.392 58.83L323.392 52.373L327.961 51.06L327.961 57.572"/></g></g><g class="vf-stavenote" id="vf-auto18264"><path stroke-width="1.4" fill="none" stroke="#444" d="M379.688 90L398.829 90"/><g class="vf-stem" id="vf-auto18265" pointer-events="bounding-box"><path stroke-width="1.5" fill="none" d="M395.079 88L395.079 20"/></g><g class="vf-notehead" id="vf-auto18268" pointer-events="bounding-box"><path stroke="none" d="M382.688 91.685C382.688 93.426,383.951 95.391,387.208 95.391C391.42 95.391,395.829 91.938,395.829 88.371C395.829 85.985,393.807 84.665,391.308 84.665C387.377 84.665,382.688 87.978,382.688 91.685"/></g><g class="vf-notehead" id="vf-auto18269" pointer-events="bounding-box"><path stroke="none" d="M382.688 56.685C382.688 58.426,383.951 60.391,387.208 60.391C391.42 60.391,395.829 56.938,395.829 53.371C395.829 50.985,393.807 49.665,391.308 49.665C387.377 49.665,382.688 52.978,382.688 56.685"/></g></g><g class="vf-stavenote" id="vf-auto18270"><path stroke-width="1.4" fill="none" stroke="#444" d="M430.347 90L449.489 90"/><g class="vf-stem" id="vf-auto18271" pointer-events="bounding-box"><path stroke-width="1.5" fill="none" d="M445.739 88L445.739 20"/></g><g class="vf-notehead" id="vf-auto18274" pointer-events="bounding-box"><path stroke="none" d="M433.347 91.685C433.347 93.426,434.611 95.391,437.868 95.391C442.08 95.391,446.489 91.938,446.489 88.371C446.489 85.985,444.467 84.665,441.968 84.665C438.037 84.665,433.347 87.978,433.347 91.685"/><path stroke="none" d="M430.265 86.854C430.047 85.321,429.089 83.899,427.092 83.899C425.122 83.899,423.973 85.075,423.781 85.321L423.945 72.708C423.945 72.38,423.699 72.161,423.371 72.161L422.906 72.161C422.605 72.161,422.358 72.38,422.358 72.708L422.468 84.555C421.975 84.172,421.319 83.899,420.471 83.899C418.501 83.899,417.351 85.103,417.16 85.349L417.324 72.708C417.324 72.38,417.078 72.161,416.75 72.161L416.284 72.161C415.983 72.161,415.737 72.38,415.737 72.708L415.929 96.375C415.929 96.703,416.175 96.922,416.476 96.922C416.558 96.922,416.722 96.867,416.804 96.813C416.968 96.731,419.513 95.527,421.647 93.119C421.921 92.791,422.276 92.244,422.523 91.888L422.55 96.375C422.55 96.703,422.796 96.922,423.097 96.922C423.179 96.922,423.343 96.867,423.425 96.813C423.59 96.731,426.134 95.472,428.268 93.064C429.773 91.368,430.347 89.453,430.347 87.839C430.347 87.483,430.32 87.155,430.265 86.854M420.936 88.413C420.936 89.015,420.771 90.821,419.787 92.326C419.13 93.338,417.789 94.405,417.051 95.007L417.16 87.319C417.242 86.963,417.817 85.814,419.403 85.814C420.826 85.814,420.936 87.155,420.936 88.003C420.936 88.194,420.936 88.304,420.936 88.413M427.557 88.413C427.557 89.015,427.393 90.821,426.408 92.326C425.751 93.338,424.41 94.405,423.644 95.007L423.781 87.319C423.863 86.963,424.438 85.814,426.025 85.814C427.447 85.814,427.557 87.155,427.557 88.003C427.557 88.194,427.557 88.304,427.557 88.413"/></g><g class="vf-notehead" id="vf-auto18275" pointer-events="bounding-box"><path stroke="none" d="M433.347 56.685C433.347 58.426,434.611 60.391,437.868 60.391C442.08 60.391,446.489 56.938,446.489 53.371C446.489 50.985,444.467 49.665,441.968 49.665C438.037 49.665,433.347 52.978,433.347 56.685"/><path stroke="none" d="M430.265 51.854C430.047 50.321,429.089 48.899,427.092 48.899C425.122 48.899,423.973 50.075,423.781 50.321L423.945 37.708C423.945 37.38,423.699 37.161,423.371 37.161L422.906 37.161C422.605 37.161,422.358 37.38,422.358 37.708L422.468 49.555C421.975 49.172,421.319 48.899,420.471 48.899C418.501 48.899,417.351 50.103,417.16 50.349L417.324 37.708C417.324 37.38,417.078 37.161,416.75 37.161L416.284 37.161C415.983 37.161,415.737 37.38,415.737 37.708L415.929 61.375C415.929 61.703,416.175 61.922,416.476 61.922C416.558 61.922,416.722 61.867,416.804 61.813C416.968 61.731,419.513 60.527,421.647 58.119C421.921 57.791,422.276 57.244,422.523 56.888L422.55 61.375C422.55 61.703,422.796 61.922,423.097 61.922C423.179 61.922,423.343 61.867,423.425 61.813C423.59 61.731,426.134 60.472,428.268 58.064C429.773 56.368,430.347 54.453,430.347 52.839C430.347 52.483,430.32 52.155,430.265 51.854M420.936 53.413C420.936 54.015,420.771 55.821,419.787 57.326C419.13 58.338,417.789 59.405,417.051 60.007L417.16 52.319C417.242 51.963,417.817 50.814,419.403 50.814C420.826 50.814,420.936 52.155,420.936 53.003C420.936 53.194,420.936 53.304,420.936 53.413M427.557 53.413C427.557 54.015,427.393 55.821,426.408 57.326C425.751 58.338,424.41 59.405,423.644 60.007L423.781 52.319C423.863 51.963,424.438 50.814,426.025 50.814C427.447 50.814,427.557 52.155,427.557 53.003C427.557 53.194,427.557 53.304,427.557 53.413"/></g></g><g class="vf-stavenote" id="vf-auto18276"><path stroke-width="1.4" fill="none" stroke="#444" d="M481.007 90L500.149 90"/><g class="vf-stem" id="vf-auto18277" pointer-events="bounding-box"><path stroke-width="1.5" fill="none" d="M496.399 88L496.399 20"/></g><g class="vf-notehead" id="vf-auto18280" pointer-events="bounding-box"><path stroke="none" d="M484.007 91.685C484.007 93.426,485.271 95.391,488.528 95.391C492.74 95.391,497.149 91.938,497.149 88.371C497.149 85.985,495.127 84.665,492.628 84.665C488.697 84.665,484.007 87.978,484.007 91.685"/></g><g class="vf-notehead" id="vf-auto18281" pointer-events="bounding-box"><path stroke="none" d="M484.007 56.685C484.007 58.426,485.271 60.391,488.528 60.391C492.74 60.391,497.149 56.938,497.149 53.371C497.149 50.985,495.127 49.665,492.628 49.665C488.697 49.665,484.007 52.978,484.007 56.685"/></g></g><g class="vf-stavenote" id="vf-auto18282"><path stroke-width="1.4" fill="none" stroke="#444" d="M531.667 90L550.809 90"/><g class="vf-stem" id="vf-auto18283" pointer-events="bounding-box"><path stroke-width="1.5" fill="none" d="M547.059 88L547.059 20"/></g><g class="vf-notehead" id="vf-auto18286" pointer-events="bounding-box"><path stroke="none" d="M534.667 91.685C534.667 93.426,535.931 95.391,539.188 95.391C543.4 95.391,547.809 91.938,547.809 88.371C547.809 85.985,545.787 84.665,543.288 84.665C539.357 84.665,534.667 87.978,534.667 91.685"/><path stroke="none" d="M531.585 86.881C531.366 85.349,530.409 83.899,528.411 83.899C526.441 83.899,525.292 85.103,525.101 85.349L525.265 72.708C525.265 72.38,525.019 72.161,524.69 72.161L524.225 72.161C523.924 72.161,523.678 72.38,523.678 72.708L523.87 96.375C523.87 96.703,524.116 96.922,524.417 96.922C524.499 96.922,524.663 96.895,524.745 96.867C524.909 96.785,527.454 95.527,529.588 93.119C531.093 91.423,531.667 89.48,531.667 87.866C531.667 87.51,531.64 87.209,531.585 86.881M528.876 88.413C528.876 89.015,528.712 90.821,527.727 92.326C527.071 93.338,525.73 94.405,524.991 95.007L525.101 87.319C525.183 86.963,525.757 85.814,527.344 85.814C528.767 85.814,528.876 87.155,528.876 88.003C528.876 88.194,528.876 88.304,528.876 88.413"/></g><g class="vf-notehead" id="vf-auto18287" pointer-events="bounding-box"><path stroke="none" d="M534.667 56.685C534.667 58.426,535.931 60.391,539.188 60.391C543.4 60.391,547.809 56.938,547.809 53.371C547.809 50.985,545.787 49.665,543.288 49.665C539.357 49.665,534.667 52.978,534.667 56.685"/><path stroke="none" d="M531.585 51.881C531.366 50.349,530.409 48.899,528.411 48.899C526.441 48.899,525.292 50.103,525.101 50.349L525.265 37.708C525.265 37.38,525.019 37.161,524.69 37.161L524.225 37.161C523.924 37.161,523.678 37.38,523.678 37.708L523.87 61.375C523.87 61.703,524.116 61.922,524.417 61.922C524.499 61.922,524.663 61.895,524.745 61.867C524.909 61.785,527.454 60.527,529.588 58.119C531.093 56.423,531.667 54.48,531.667 52.866C531.667 52.51,531.64 52.209,531.585 51.881M528.876 53.413C528.876 54.015,528.712 55.821,527.727 57.326C527.071 58.338,525.73 59.405,524.991 60.007L525.101 52.319C525.183 51.963,525.757 50.814,527.344 50.814C528.767 50.814,528.876 52.155,528.876 53.003C528.876 53.194,528.876 53.304,528.876 53.413"/></g></g><g class="vf-stavenote" id="vf-auto18288"><path stroke-width="1.4" fill="none" stroke="#444" d="M582.327 90L601.468 90"/><g class="vf-stem" id="vf-auto18289" pointer-events="bounding-box"><path stroke-width="1.5" fill="none" d="M597.718 88L597.718 20"/></g><g class="vf-notehead" id="vf-auto18292" pointer-events="bounding-box"><path stroke="none" d="M585.327 91.685C585.327 93.426,586.591 95.391,589.848 95.391C594.06 95.391,598.468 91.938,598.468 88.371C598.468 85.985,596.447 84.665,593.948 84.665C590.016 84.665,585.327 87.978,585.327 91.685"/></g><g class="vf-notehead" id="vf-auto18293" pointer-events="bounding-box"><path stroke="none" d="M585.327 56.685C585.327 58.426,586.591 60.391,589.848 60.391C594.06 60.391,598.468 56.938,598.468 53.371C598.468 50.985,596.447 49.665,593.948 49.665C590.016 49.665,585.327 52.978,585.327 56.685"/></g></g><g class="vf-stavenote" id="vf-auto18294"><path stroke-width="1.4" fill="none" stroke="#444" d="M632.987 90L652.128 90"/><g class="vf-stem" id="vf-auto18295" pointer-events="bounding-box"><path stroke-width="1.5" fill="none" d="M648.378 88L648.378 20"/></g><g class="vf-notehead" id="vf-auto18298" pointer-events="bounding-box"><path stroke="none" d="M635.987 91.685C635.987 93.426,637.25 95.391,640.508 95.391C644.72 95.391,649.128 91.938,649.128 88.371C649.128 85.985,647.107 84.665,644.607 84.665C640.676 84.665,635.987 87.978,635.987 91.685"/><path stroke="none" d="M632.795 82.777C632.713 82.722,632.604 82.668,632.494 82.668C632.44 82.668,632.358 82.722,632.33 82.722L627.351 84.09L627.351 77.196L626.256 77.196L626.256 96.703C626.256 97.004,626.503 97.223,626.803 97.223C626.858 97.223,626.913 97.223,626.968 97.223L631.92 95.828L631.92 102.722L632.987 102.722C632.987 96.183,632.987 89.973,632.987 83.215C632.987 83.078,632.905 82.859,632.795 82.777M627.351 93.83L627.351 87.373L631.92 86.06L631.92 92.572"/></g><g class="vf-notehead" id="vf-auto18299" pointer-events="bounding-box"><path stroke="none" d="M635.987 56.685C635.987 58.426,637.25 60.391,640.508 60.391C644.72 60.391,649.128 56.938,649.128 53.371C649.128 50.985,647.107 49.665,644.607 49.665C640.676 49.665,635.987 52.978,635.987 56.685"/><path stroke="none" d="M632.795 47.777C632.713 47.722,632.604 47.668,632.494 47.668C632.44 47.668,632.358 47.722,632.33 47.722L627.351 49.09L627.351 42.196L626.256 42.196L626.256 61.703C626.256 62.004,626.503 62.223,626.803 62.223C626.858 62.223,626.913 62.223,626.968 62.223L631.92 60.828L631.92 67.722L632.987 67.722C632.987 61.183,632.987 54.973,632.987 48.215C632.987 48.078,632.905 47.859,632.795 47.777M627.351 58.83L627.351 52.373L631.92 51.06L631.92 57.572"/></g></g></svg>