<svg xmlns="http://www.w3.org/2000/svg" stroke-width="0.3" stroke-dasharray="none" fill="black" stroke="black" font-family="Arial, sans-serif" font-size="10pt" font-weight="normal" font-style="normal" width="495.97024" height="240" viewBox="0 0 495.97024 240" style="width: 495.97px; height: 240px; border: none;"><g class="vf-stave" id="vf-auto7378" stroke-width="1" fill="#999999" stroke="#999999"><path fill="none" d="M10 50L359.582 50"/><path fill="none" d="M10 60L359.582 60"/><path fill="none" d="M10 70L359.582 70"/><path fill="none" d="M10 80L359.582 80"/><path fill="none" d="M10 90L359.582 90"/></g><g class="vf-stavebarline" id="vf-auto7379"><rect x="10" y="49.5" width="1" height="41" stroke="none"/></g><g class="vf-stavebarline" id="vf-auto7380"><rect x="359.582" y="49.5" width="1" height="41" stroke="none"/></g><g class="vf-keysignature" id="vf-auto7384"/><g class="vf-keysignature" id="vf-auto7385"><path stroke="none" d="M22.907 66.881C22.688 65.349,21.731 63.899,19.733 63.899C17.763 63.899,16.614 65.103,16.423 65.349L16.587 52.708C16.587 52.38,16.341 52.161,16.012 52.161L15.547 52.161C15.246 52.161,15 52.38,15 52.708L15.192 76.375C15.192 76.703,15.438 76.922,15.739 76.922C15.821 76.922,15.985 76.895,16.067 76.867C16.231 76.785,18.776 75.527,20.91 73.119C22.415 71.423,22.989 69.48,22.989 67.866C22.989 67.51,22.962 67.209,22.907 66.881M20.198 68.413C20.198 69.015,20.034 70.821,19.049 72.326C18.393 73.338,17.052 74.405,16.313 75.007L16.423 67.319C16.505 66.963,17.079 65.814,18.666 65.814C20.089 65.814,20.198 67.155,20.198 68.003C20.198 68.194,20.198 68.304,20.198 68.413"/></g><g class="vf-keysignature" id="vf-auto7386"><path stroke="none" d="M41.896 66.881C41.677 65.349,40.72 63.899,38.722 63.899C36.752 63.899,35.603 65.103,35.412 65.349L35.576 52.708C35.576 52.38,35.33 52.161,35.001 52.161L34.536 52.161C34.235 52.161,33.989 52.38,33.989 52.708L34.181 76.375C34.181 76.703,34.427 76.922,34.728 76.922C34.81 76.922,34.974 76.895,35.056 76.867C35.22 76.785,37.765 75.527,39.899 73.119C41.404 71.423,41.978 69.48,41.978 67.866C41.978 67.51,41.951 67.209,41.896 66.881M39.188 68.413C39.188 69.015,39.023 70.821,38.038 72.326C37.382 73.338,36.041 74.405,35.302 75.007L35.412 67.319C35.494 66.963,36.068 65.814,37.655 65.814C39.078 65.814,39.188 67.155,39.188 68.003C39.188 68.194,39.188 68.304,39.188 68.413"/><path stroke="none" d="M50.885 51.881C50.666 50.349,49.709 48.899,47.712 48.899C45.742 48.899,44.592 50.103,44.401 50.349L44.565 37.708C44.565 37.38,44.319 37.161,43.991 37.161L43.525 37.161C43.224 37.161,42.978 37.38,42.978 37.708L43.17 61.375C43.17 61.703,43.416 61.922,43.717 61.922C43.799 61.922,43.963 61.895,44.045 61.867C44.209 61.785,46.754 60.527,48.888 58.119C50.393 56.423,50.967 54.48,50.967 52.866C50.967 52.51,50.94 52.209,50.885 51.881M48.177 53.413C48.177 54.015,48.012 55.821,47.028 57.326C46.371 58.338,45.03 59.405,44.292 60.007L44.401 52.319C44.483 51.963,45.058 50.814,46.644 50.814C48.067 50.814,48.177 52.155,48.177 53.003C48.177 53.194,48.177 53.304,48.177 53.413"/></g><g class="vf-keysignature" id="vf-auto7387"><path stroke="none" d="M69.874 66.881C69.656 65.349,68.698 63.899,66.701 63.899C64.731 63.899,63.582 65.103,63.39 65.349L63.554 52.708C63.554 52.38,63.308 52.161,62.98 52.161L62.515 52.161C62.214 52.161,61.967 52.38,61.967 52.708L62.159 76.375C62.159 76.703,62.405 76.922,62.706 76.922C62.788 76.922,62.952 76.895,63.034 76.867C63.199 76.785,65.743 75.527,67.877 73.119C69.382 71.423,69.956 69.48,69.956 67.866C69.956 67.51,69.929 67.209,69.874 66.881M67.166 68.413C67.166 69.015,67.002 70.821,66.017 72.326C65.36 73.338,64.019 74.405,63.281 75.007L63.39 67.319C63.472 66.963,64.047 65.814,65.634 65.814C67.056 65.814,67.166 67.155,67.166 68.003C67.166 68.194,67.166 68.304,67.166 68.413"/><path stroke="none" d="M78.864 51.881C78.645 50.349,77.687 48.899,75.69 48.899C73.72 48.899,72.571 50.103,72.379 50.349L72.543 37.708C72.543 37.38,72.297 37.161,71.969 37.161L71.504 37.161C71.203 37.161,70.956 37.38,70.956 37.708L71.148 61.375C71.148 61.703,71.394 61.922,71.695 61.922C71.777 61.922,71.941 61.895,72.024 61.867C72.188 61.785,74.732 60.527,76.866 58.119C78.371 56.423,78.946 54.48,78.946 52.866C78.946 52.51,78.918 52.209,78.864 51.881M76.155 53.413C76.155 54.015,75.991 55.821,75.006 57.326C74.349 58.338,73.008 59.405,72.27 60.007L72.379 52.319C72.461 51.963,73.036 50.814,74.623 50.814C76.045 50.814,76.155 52.155,76.155 53.003C76.155 53.194,76.155 53.304,76.155 53.413"/><path stroke="none" d="M87.853 71.881C87.634 70.349,86.676 68.899,84.679 68.899C82.709 68.899,81.56 70.103,81.368 70.349L81.532 57.708C81.532 57.38,81.286 57.161,80.958 57.161L80.493 57.161C80.192 57.161,79.946 57.38,79.946 57.708L80.137 81.375C80.137 81.703,80.383 81.922,80.684 81.922C80.766 81.922,80.931 81.895,81.013 81.867C81.177 81.785,83.721 80.527,85.855 78.119C87.36 76.423,87.935 74.48,87.935 72.866C87.935 72.51,87.907 72.209,87.853 71.881M85.144 73.413C85.144 74.015,84.98 75.821,83.995 77.326C83.338 78.338,81.998 79.405,81.259 80.007L81.368 72.319C81.45 71.963,82.025 70.814,83.612 70.814C85.035 70.814,85.144 72.155,85.144 73.003C85.144 73.194,85.144 73.304,85.144 73.413"/></g><g class="vf-keysignature" id="vf-auto7388"><path stroke="none" d="M106.842 66.881C106.623 65.349,105.665 63.899,103.668 63.899C101.698 63.899,100.549 65.103,100.357 65.349L100.522 52.708C100.522 52.38,100.275 52.161,99.947 52.161L99.482 52.161C99.181 52.161,98.935 52.38,98.935 52.708L99.126 76.375C99.126 76.703,99.372 76.922,99.673 76.922C99.756 76.922,99.92 76.895,100.002 76.867C100.166 76.785,102.71 75.527,104.844 73.119C106.349 71.423,106.924 69.48,106.924 67.866C106.924 67.51,106.896 67.209,106.842 66.881M104.133 68.413C104.133 69.015,103.969 70.821,102.984 72.326C102.327 73.338,100.987 74.405,100.248 75.007L100.357 67.319C100.44 66.963,101.014 65.814,102.601 65.814C104.024 65.814,104.133 67.155,104.133 68.003C104.133 68.194,104.133 68.304,104.133 68.413"/><path stroke="none" d="M115.831 51.881C115.612 50.349,114.654 48.899,112.657 48.899C110.687 48.899,109.538 50.103,109.347 50.349L109.511 37.708C109.511 37.38,109.264 37.161,108.936 37.161L108.471 37.161C108.17 37.161,107.924 37.38,107.924 37.708L108.115 61.375C108.115 61.703,108.362 61.922,108.663 61.922C108.745 61.922,108.909 61.895,108.991 61.867C109.155 61.785,111.7 60.527,113.834 58.119C115.338 56.423,115.913 54.48,115.913 52.866C115.913 52.51,115.886 52.209,115.831 51.881M113.122 53.413C113.122 54.015,112.958 55.821,111.973 57.326C111.316 58.338,109.976 59.405,109.237 60.007L109.347 52.319C109.429 51.963,110.003 50.814,111.59 50.814C113.013 50.814,113.122 52.155,113.122 53.003C113.122 53.194,113.122 53.304,113.122 53.413"/><path stroke="none" d="M124.82 71.881C124.601 70.349,123.644 68.899,121.646 68.899C119.676 68.899,118.527 70.103,118.336 70.349L118.5 57.708C118.5 57.38,118.254 57.161,117.925 57.161L117.46 57.161C117.159 57.161,116.913 57.38,116.913 57.708L117.104 81.375C117.104 81.703,117.351 81.922,117.652 81.922C117.734 81.922,117.898 81.895,117.98 81.867C118.144 81.785,120.689 80.527,122.823 78.119C124.328 76.423,124.902 74.48,124.902 72.866C124.902 72.51,124.875 72.209,124.82 71.881M122.111 73.413C122.111 74.015,121.947 75.821,120.962 77.326C120.306 78.338,118.965 79.405,118.226 80.007L118.336 72.319C118.418 71.963,118.992 70.814,120.579 70.814C122.002 70.814,122.111 72.155,122.111 73.003C122.111 73.194,122.111 73.304,122.111 73.413"/><path stroke="none" d="M133.809 56.881C133.59 55.349,132.633 53.899,130.635 53.899C128.665 53.899,127.516 55.103,127.325 55.349L127.489 42.708C127.489 42.38,127.243 42.161,126.914 42.161L126.449 42.161C126.148 42.161,125.902 42.38,125.902 42.708L126.094 66.375C126.094 66.703,126.34 66.922,126.641 66.922C126.723 66.922,126.887 66.895,126.969 66.867C127.133 66.785,129.678 65.527,131.812 63.119C133.317 61.423,133.891 59.48,133.891 57.866C133.891 57.51,133.864 57.209,133.809 56.881M131.1 58.413C131.1 59.015,130.936 60.821,129.951 62.326C129.295 63.338,127.954 64.405,127.215 65.007L127.325 57.319C127.407 56.963,127.981 55.814,129.568 55.814C130.991 55.814,131.1 57.155,131.1 58.003C131.1 58.194,131.1 58.304,131.1 58.413"/></g><g class="vf-keysignature" id="vf-auto7389"><path stroke="none" d="M152.798 66.881C152.579 65.349,151.622 63.899,149.624 63.899C147.655 63.899,146.505 65.103,146.314 65.349L146.478 52.708C146.478 52.38,146.232 52.161,145.904 52.161L145.438 52.161C145.137 52.161,144.891 52.38,144.891 52.708L145.083 76.375C145.083 76.703,145.329 76.922,145.63 76.922C145.712 76.922,145.876 76.895,145.958 76.867C146.122 76.785,148.667 75.527,150.801 73.119C152.306 71.423,152.88 69.48,152.88 67.866C152.88 67.51,152.853 67.209,152.798 66.881M150.09 68.413C150.09 69.015,149.925 70.821,148.94 72.326C148.284 73.338,146.943 74.405,146.204 75.007L146.314 67.319C146.396 66.963,146.971 65.814,148.557 65.814C149.98 65.814,150.09 67.155,150.09 68.003C150.09 68.194,150.09 68.304,150.09 68.413"/><path stroke="none" d="M161.787 51.881C161.568 50.349,160.611 48.899,158.614 48.899C156.644 48.899,155.495 50.103,155.303 50.349L155.467 37.708C155.467 37.38,155.221 37.161,154.893 37.161L154.428 37.161C154.127 37.161,153.88 37.38,153.88 37.708L154.072 61.375C154.072 61.703,154.318 61.922,154.619 61.922C154.701 61.922,154.865 61.895,154.947 61.867C155.112 61.785,157.656 60.527,159.79 58.119C161.295 56.423,161.869 54.48,161.869 52.866C161.869 52.51,161.842 52.209,161.787 51.881M159.079 53.413C159.079 54.015,158.915 55.821,157.93 57.326C157.273 58.338,155.932 59.405,155.194 60.007L155.303 52.319C155.385 51.963,155.96 50.814,157.547 50.814C158.969 50.814,159.079 52.155,159.079 53.003C159.079 53.194,159.079 53.304,159.079 53.413"/><path stroke="none" d="M170.776 71.881C170.558 70.349,169.6 68.899,167.603 68.899C165.633 68.899,164.484 70.103,164.292 70.349L164.456 57.708C164.456 57.38,164.21 57.161,163.882 57.161L163.417 57.161C163.116 57.161,162.869 57.38,162.869 57.708L163.061 81.375C163.061 81.703,163.307 81.922,163.608 81.922C163.69 81.922,163.854 81.895,163.936 81.867C164.101 81.785,166.645 80.527,168.779 78.119C170.284 76.423,170.859 74.48,170.859 72.866C170.859 72.51,170.831 72.209,170.776 71.881M168.068 73.413C168.068 74.015,167.904 75.821,166.919 77.326C166.262 78.338,164.921 79.405,164.183 80.007L164.292 72.319C164.374 71.963,164.949 70.814,166.536 70.814C167.958 70.814,168.068 72.155,168.068 73.003C168.068 73.194,168.068 73.304,168.068 73.413"/><path stroke="none" d="M179.766 56.881C179.547 55.349,178.589 53.899,176.592 53.899C174.622 53.899,173.473 55.103,173.281 55.349L173.445 42.708C173.445 42.38,173.199 42.161,172.871 42.161L172.406 42.161C172.105 42.161,171.859 42.38,171.859 42.708L172.05 66.375C172.05 66.703,172.296 66.922,172.597 66.922C172.679 66.922,172.844 66.895,172.926 66.867C173.09 66.785,175.634 65.527,177.768 63.119C179.273 61.423,179.848 59.48,179.848 57.866C179.848 57.51,179.82 57.209,179.766 56.881M177.057 58.413C177.057 59.015,176.893 60.821,175.908 62.326C175.251 63.338,173.911 64.405,173.172 65.007L173.281 57.319C173.363 56.963,173.938 55.814,175.525 55.814C176.948 55.814,177.057 57.155,177.057 58.003C177.057 58.194,177.057 58.304,177.057 58.413"/><path stroke="none" d="M188.755 76.881C188.536 75.349,187.578 73.899,185.581 73.899C183.611 73.899,182.462 75.103,182.27 75.349L182.435 62.708C182.435 62.38,182.188 62.161,181.86 62.161L181.395 62.161C181.094 62.161,180.848 62.38,180.848 62.708L181.039 86.375C181.039 86.703,181.285 86.922,181.586 86.922C181.668 86.922,181.833 86.895,181.915 86.867C182.079 86.785,184.623 85.527,186.757 83.119C188.262 81.423,188.837 79.48,188.837 77.866C188.837 77.51,188.809 77.209,188.755 76.881M186.046 78.413C186.046 79.015,185.882 80.821,184.897 82.326C184.24 83.338,182.9 84.405,182.161 85.007L182.27 77.319C182.352 76.963,182.927 75.814,184.514 75.814C185.937 75.814,186.046 77.155,186.046 78.003C186.046 78.194,186.046 78.304,186.046 78.413"/></g><g class="vf-keysignature" id="vf-auto7390"><path stroke="none" d="M207.744 66.881C207.525 65.349,206.567 63.899,204.57 63.899C202.6 63.899,201.451 65.103,201.26 65.349L201.424 52.708C201.424 52.38,201.177 52.161,200.849 52.161L200.384 52.161C200.083 52.161,199.837 52.38,199.837 52.708L200.028 76.375C200.028 76.703,200.275 76.922,200.576 76.922C200.658 76.922,200.822 76.895,200.904 76.867C201.068 76.785,203.612 75.527,205.747 73.119C207.251 71.423,207.826 69.48,207.826 67.866C207.826 67.51,207.799 67.209,207.744 66.881M205.035 68.413C205.035 69.015,204.871 70.821,203.886 72.326C203.229 73.338,201.889 74.405,201.15 75.007L201.26 67.319C201.342 66.963,201.916 65.814,203.503 65.814C204.926 65.814,205.035 67.155,205.035 68.003C205.035 68.194,205.035 68.304,205.035 68.413"/><path stroke="none" d="M216.733 51.881C216.514 50.349,215.556 48.899,213.559 48.899C211.589 48.899,210.44 50.103,210.249 50.349L210.413 37.708C210.413 37.38,210.167 37.161,209.838 37.161L209.373 37.161C209.072 37.161,208.826 37.38,208.826 37.708L209.017 61.375C209.017 61.703,209.264 61.922,209.565 61.922C209.647 61.922,209.811 61.895,209.893 61.867C210.057 61.785,212.602 60.527,214.736 58.119C216.24 56.423,216.815 54.48,216.815 52.866C216.815 52.51,216.788 52.209,216.733 51.881M214.024 53.413C214.024 54.015,213.86 55.821,212.875 57.326C212.219 58.338,210.878 59.405,210.139 60.007L210.249 52.319C210.331 51.963,210.905 50.814,212.492 50.814C213.915 50.814,214.024 52.155,214.024 53.003C214.024 53.194,214.024 53.304,214.024 53.413"/><path stroke="none" d="M225.722 71.881C225.503 70.349,224.546 68.899,222.548 68.899C220.578 68.899,219.429 70.103,219.238 70.349L219.402 57.708C219.402 57.38,219.156 57.161,218.827 57.161L218.362 57.161C218.061 57.161,217.815 57.38,217.815 57.708L218.007 81.375C218.007 81.703,218.253 81.922,218.554 81.922C218.636 81.922,218.8 81.895,218.882 81.867C219.046 81.785,221.591 80.527,223.725 78.119C225.23 76.423,225.804 74.48,225.804 72.866C225.804 72.51,225.777 72.209,225.722 71.881M223.013 73.413C223.013 74.015,222.849 75.821,221.864 77.326C221.208 78.338,219.867 79.405,219.128 80.007L219.238 72.319C219.32 71.963,219.894 70.814,221.481 70.814C222.904 70.814,223.013 72.155,223.013 73.003C223.013 73.194,223.013 73.304,223.013 73.413"/><path stroke="none" d="M234.711 56.881C234.492 55.349,233.535 53.899,231.537 53.899C229.568 53.899,228.418 55.103,228.227 55.349L228.391 42.708C228.391 42.38,228.145 42.161,227.816 42.161L227.351 42.161C227.05 42.161,226.804 42.38,226.804 42.708L226.996 66.375C226.996 66.703,227.242 66.922,227.543 66.922C227.625 66.922,227.789 66.895,227.871 66.867C228.035 66.785,230.58 65.527,232.714 63.119C234.219 61.423,234.793 59.48,234.793 57.866C234.793 57.51,234.766 57.209,234.711 56.881M232.003 58.413C232.003 59.015,231.838 60.821,230.853 62.326C230.197 63.338,228.856 64.405,228.117 65.007L228.227 57.319C228.309 56.963,228.884 55.814,230.47 55.814C231.893 55.814,232.003 57.155,232.003 58.003C232.003 58.194,232.003 58.304,232.003 58.413"/><path stroke="none" d="M243.7 76.881C243.481 75.349,242.524 73.899,240.527 73.899C238.557 73.899,237.408 75.103,237.216 75.349L237.38 62.708C237.38 62.38,237.134 62.161,236.806 62.161L236.34 62.161C236.04 62.161,235.793 62.38,235.793 62.708L235.985 86.375C235.985 86.703,236.231 86.922,236.532 86.922C236.614 86.922,236.778 86.895,236.86 86.867C237.024 86.785,239.569 85.527,241.703 83.119C243.208 81.423,243.782 79.48,243.782 77.866C243.782 77.51,243.755 77.209,243.7 76.881M240.992 78.413C240.992 79.015,240.828 80.821,239.843 82.326C239.186 83.338,237.845 84.405,237.107 85.007L237.216 77.319C237.298 76.963,237.873 75.814,239.46 75.814C240.882 75.814,240.992 77.155,240.992 78.003C240.992 78.194,240.992 78.304,240.992 78.413"/><path stroke="none" d="M252.689 61.881C252.471 60.349,251.513 58.899,249.516 58.899C247.546 58.899,246.397 60.103,246.205 60.349L246.369 47.708C246.369 47.38,246.123 47.161,245.795 47.161L245.33 47.161C245.029 47.161,244.782 47.38,244.782 47.708L244.974 71.375C244.974 71.703,245.22 71.922,245.521 71.922C245.603 71.922,245.767 71.895,245.849 71.867C246.014 71.785,248.558 70.527,250.692 68.119C252.197 66.423,252.772 64.48,252.772 62.866C252.772 62.51,252.744 62.209,252.689 61.881M249.981 63.413C249.981 64.015,249.817 65.821,248.832 67.326C248.175 68.338,246.834 69.405,246.096 70.007L246.205 62.319C246.287 61.963,246.862 60.814,248.449 60.814C249.871 60.814,249.981 62.155,249.981 63.003C249.981 63.194,249.981 63.304,249.981 63.413"/></g><g class="vf-keysignature" id="vf-auto7391"><path stroke="none" d="M271.679 66.881C271.46 65.349,270.502 63.899,268.505 63.899C266.535 63.899,265.386 65.103,265.194 65.349L265.358 52.708C265.358 52.38,265.112 52.161,264.784 52.161L264.319 52.161C264.018 52.161,263.772 52.38,263.772 52.708L263.963 76.375C263.963 76.703,264.209 76.922,264.51 76.922C264.592 76.922,264.756 76.895,264.839 76.867C265.003 76.785,267.547 75.527,269.681 73.119C271.186 71.423,271.761 69.48,271.761 67.866C271.761 67.51,271.733 67.209,271.679 66.881M268.97 68.413C268.97 69.015,268.806 70.821,267.821 72.326C267.164 73.338,265.824 74.405,265.085 75.007L265.194 67.319C265.276 66.963,265.851 65.814,267.438 65.814C268.86 65.814,268.97 67.155,268.97 68.003C268.97 68.194,268.97 68.304,268.97 68.413"/><path stroke="none" d="M280.668 51.881C280.449 50.349,279.491 48.899,277.494 48.899C275.524 48.899,274.375 50.103,274.183 50.349L274.348 37.708C274.348 37.38,274.101 37.161,273.773 37.161L273.308 37.161C273.007 37.161,272.761 37.38,272.761 37.708L272.952 61.375C272.952 61.703,273.198 61.922,273.499 61.922C273.581 61.922,273.746 61.895,273.828 61.867C273.992 61.785,276.536 60.527,278.67 58.119C280.175 56.423,280.75 54.48,280.75 52.866C280.75 52.51,280.722 52.209,280.668 51.881M277.959 53.413C277.959 54.015,277.795 55.821,276.81 57.326C276.153 58.338,274.813 59.405,274.074 60.007L274.183 52.319C274.265 51.963,274.84 50.814,276.427 50.814C277.85 50.814,277.959 52.155,277.959 53.003C277.959 53.194,277.959 53.304,277.959 53.413"/><path stroke="none" d="M289.657 71.881C289.438 70.349,288.48 68.899,286.483 68.899C284.513 68.899,283.364 70.103,283.172 70.349L283.337 57.708C283.337 57.38,283.09 57.161,282.762 57.161L282.297 57.161C281.996 57.161,281.75 57.38,281.75 57.708L281.941 81.375C281.941 81.703,282.188 81.922,282.488 81.922C282.571 81.922,282.735 81.895,282.817 81.867C282.981 81.785,285.525 80.527,287.66 78.119C289.164 76.423,289.739 74.48,289.739 72.866C289.739 72.51,289.712 72.209,289.657 71.881M286.948 73.413C286.948 74.015,286.784 75.821,285.799 77.326C285.142 78.338,283.802 79.405,283.063 80.007L283.172 72.319C283.255 71.963,283.829 70.814,285.416 70.814C286.839 70.814,286.948 72.155,286.948 73.003C286.948 73.194,286.948 73.304,286.948 73.413"/><path stroke="none" d="M298.646 56.881C298.427 55.349,297.469 53.899,295.472 53.899C293.502 53.899,292.353 55.103,292.162 55.349L292.326 42.708C292.326 42.38,292.08 42.161,291.751 42.161L291.286 42.161C290.985 42.161,290.739 42.38,290.739 42.708L290.93 66.375C290.93 66.703,291.177 66.922,291.478 66.922C291.56 66.922,291.724 66.895,291.806 66.867C291.97 66.785,294.515 65.527,296.649 63.119C298.153 61.423,298.728 59.48,298.728 57.866C298.728 57.51,298.701 57.209,298.646 56.881M295.937 58.413C295.937 59.015,295.773 60.821,294.788 62.326C294.132 63.338,292.791 64.405,292.052 65.007L292.162 57.319C292.244 56.963,292.818 55.814,294.405 55.814C295.828 55.814,295.937 57.155,295.937 58.003C295.937 58.194,295.937 58.304,295.937 58.413"/><path stroke="none" d="M307.635 76.881C307.416 75.349,306.459 73.899,304.461 73.899C302.491 73.899,301.342 75.103,301.151 75.349L301.315 62.708C301.315 62.38,301.069 62.161,300.74 62.161L300.275 62.161C299.974 62.161,299.728 62.38,299.728 62.708L299.92 86.375C299.92 86.703,300.166 86.922,300.467 86.922C300.549 86.922,300.713 86.895,300.795 86.867C300.959 86.785,303.504 85.527,305.638 83.119C307.143 81.423,307.717 79.48,307.717 77.866C307.717 77.51,307.69 77.209,307.635 76.881M304.926 78.413C304.926 79.015,304.762 80.821,303.777 82.326C303.121 83.338,301.78 84.405,301.041 85.007L301.151 77.319C301.233 76.963,301.807 75.814,303.394 75.814C304.817 75.814,304.926 77.155,304.926 78.003C304.926 78.194,304.926 78.304,304.926 78.413"/><path stroke="none" d="M316.624 61.881C316.405 60.349,315.448 58.899,313.45 58.899C311.48 58.899,310.331 60.103,310.14 60.349L310.304 47.708C310.304 47.38,310.058 47.161,309.729 47.161L309.264 47.161C308.963 47.161,308.717 47.38,308.717 47.708L308.909 71.375C308.909 71.703,309.155 71.922,309.456 71.922C309.538 71.922,309.702 71.895,309.784 71.867C309.948 71.785,312.493 70.527,314.627 68.119C316.132 66.423,316.706 64.48,316.706 62.866C316.706 62.51,316.679 62.209,316.624 61.881M313.916 63.413C313.916 64.015,313.751 65.821,312.766 67.326C312.11 68.338,310.769 69.405,310.03 70.007L310.14 62.319C310.222 61.963,310.796 60.814,312.383 60.814C313.806 60.814,313.916 62.155,313.916 63.003C313.916 63.194,313.916 63.304,313.916 63.413"/><path stroke="none" d="M325.613 81.881C325.394 80.349,324.437 78.899,322.44 78.899C320.47 78.899,319.32 80.103,319.129 80.349L319.293 67.708C319.293 67.38,319.047 67.161,318.719 67.161L318.253 67.161C317.952 67.161,317.706 67.38,317.706 67.708L317.898 91.375C317.898 91.703,318.144 91.922,318.445 91.922C318.527 91.922,318.691 91.895,318.773 91.867C318.937 91.785,321.482 90.527,323.616 88.119C325.121 86.423,325.695 84.48,325.695 82.866C325.695 82.51,325.668 82.209,325.613 81.881M322.905 83.413C322.905 84.015,322.74 85.821,321.756 87.326C321.099 88.338,319.758 89.405,319.02 90.007L319.129 82.319C319.211 81.963,319.786 80.814,321.372 80.814C322.795 80.814,322.905 82.155,322.905 83.003C322.905 83.194,322.905 83.304,322.905 83.413"/></g><g class="vf-stave" id="vf-auto7381" stroke-width="1" fill="#999999" stroke="#999999"><path fill="none" d="M10 130L405.97 130"/><path fill="none" d="M10 140L405.97 140"/><path fill="none" d="M10 150L405.97 150"/><path fill="none" d="M10 160L405.97 160"/><path fill="none" d="M10 170L405.97 170"/></g><g class="vf-stavebarline" id="vf-auto7382"><rect x="10" y="129.5" width="1" height="41" stroke="none"/></g><g class="vf-stavebarline" id="vf-auto7383"><rect x="405.97" y="129.5" width="1" height="41" stroke="none"/></g><g class="vf-keysignature" id="vf-auto7392"><path stroke="none" d="M24.193 125.869C24.412 125.814,24.603 125.54,24.603 125.321L24.603 122.996C24.603 122.668,24.384 122.449,24.056 122.449C24.029 122.449,24.029 122.449,23.974 122.449L22.688 122.722L22.688 116.84L21.566 116.84L21.566 122.941L18.064 123.652L18.064 118.098L16.97 118.098L16.97 123.899L15.438 124.2C15.192 124.254,15 124.528,15 124.747L15 124.829L15 127.127L15 127.045C15 127.373,15.246 127.592,15.547 127.592C15.602 127.592,15.629 127.592,15.657 127.592L16.97 127.319L16.97 133.83L15.438 134.131C15.192 134.186,15 134.46,15 134.679L15 136.977C15 137.278,15.246 137.524,15.547 137.524C15.602 137.524,15.629 137.524,15.657 137.524L16.97 137.25L16.97 143.133L18.064 143.133L18.064 137.004L21.566 136.293L21.566 141.847L22.688 141.847L22.688 136.074L24.193 135.8C24.412 135.746,24.603 135.472,24.603 135.253L24.603 132.928C24.603 132.599,24.384 132.353,24.056 132.353C24.029 132.353,24.029 132.353,23.974 132.353L22.688 132.627L22.688 126.142M18.064 127.072L21.566 126.388L21.566 132.873L18.064 133.612"/></g><g class="vf-keysignature" id="vf-auto7393"><path stroke="none" d="M44.796 125.869C45.015 125.814,45.207 125.54,45.207 125.321L45.207 122.996C45.207 122.668,44.988 122.449,44.66 122.449C44.632 122.449,44.632 122.449,44.577 122.449L43.292 122.722L43.292 116.84L42.17 116.84L42.17 122.941L38.668 123.652L38.668 118.098L37.573 118.098L37.573 123.899L36.041 124.2C35.795 124.254,35.603 124.528,35.603 124.747L35.603 124.829L35.603 127.127L35.603 127.045C35.603 127.373,35.85 127.592,36.151 127.592C36.205 127.592,36.233 127.592,36.26 127.592L37.573 127.319L37.573 133.83L36.041 134.131C35.795 134.186,35.603 134.46,35.603 134.679L35.603 136.977C35.603 137.278,35.85 137.524,36.151 137.524C36.205 137.524,36.233 137.524,36.26 137.524L37.573 137.25L37.573 143.133L38.668 143.133L38.668 137.004L42.17 136.293L42.17 141.847L43.292 141.847L43.292 136.074L44.796 135.8C45.015 135.746,45.207 135.472,45.207 135.253L45.207 132.928C45.207 132.599,44.988 132.353,44.66 132.353C44.632 132.353,44.632 132.353,44.577 132.353L43.292 132.627L43.292 126.142M38.668 127.072L42.17 126.388L42.17 132.873L38.668 133.612"/><path stroke="none" d="M55.4 140.869C55.619 140.814,55.81 140.54,55.81 140.321L55.81 137.996C55.81 137.668,55.591 137.449,55.263 137.449C55.236 137.449,55.236 137.449,55.181 137.449L53.895 137.722L53.895 131.84L52.773 131.84L52.773 137.941L49.271 138.652L49.271 133.098L48.177 133.098L48.177 138.899L46.644 139.2C46.398 139.254,46.207 139.528,46.207 139.747L46.207 139.829L46.207 142.127L46.207 142.045C46.207 142.373,46.453 142.592,46.754 142.592C46.809 142.592,46.836 142.592,46.863 142.592L48.177 142.319L48.177 148.83L46.644 149.131C46.398 149.186,46.207 149.46,46.207 149.679L46.207 151.977C46.207 152.278,46.453 152.524,46.754 152.524C46.809 152.524,46.836 152.524,46.863 152.524L48.177 152.25L48.177 158.133L49.271 158.133L49.271 152.004L52.773 151.293L52.773 156.847L53.895 156.847L53.895 151.074L55.4 150.8C55.619 150.746,55.81 150.472,55.81 150.253L55.81 147.928C55.81 147.599,55.591 147.353,55.263 147.353C55.236 147.353,55.236 147.353,55.181 147.353L53.895 147.627L53.895 141.142M49.271 142.072L52.773 141.388L52.773 147.873L49.271 148.612"/></g><g class="vf-keysignature" id="vf-auto7394"><path stroke="none" d="M76.003 125.869C76.222 125.814,76.413 125.54,76.413 125.321L76.413 122.996C76.413 122.668,76.195 122.449,75.866 122.449C75.839 122.449,75.839 122.449,75.784 122.449L74.498 122.722L74.498 116.84L73.376 116.84L73.376 122.941L69.874 123.652L69.874 118.098L68.78 118.098L68.78 123.899L67.248 124.2C67.002 124.254,66.81 124.528,66.81 124.747L66.81 124.829L66.81 127.127L66.81 127.045C66.81 127.373,67.056 127.592,67.357 127.592C67.412 127.592,67.439 127.592,67.467 127.592L68.78 127.319L68.78 133.83L67.248 134.131C67.002 134.186,66.81 134.46,66.81 134.679L66.81 136.977C66.81 137.278,67.056 137.524,67.357 137.524C67.412 137.524,67.439 137.524,67.467 137.524L68.78 137.25L68.78 143.133L69.874 143.133L69.874 137.004L73.376 136.293L73.376 141.847L74.498 141.847L74.498 136.074L76.003 135.8C76.222 135.746,76.413 135.472,76.413 135.253L76.413 132.928C76.413 132.599,76.195 132.353,75.866 132.353C75.839 132.353,75.839 132.353,75.784 132.353L74.498 132.627L74.498 126.142M69.874 127.072L73.376 126.388L73.376 132.873L69.874 133.612"/><path stroke="none" d="M86.606 140.869C86.825 140.814,87.017 140.54,87.017 140.321L87.017 137.996C87.017 137.668,86.798 137.449,86.47 137.449C86.442 137.449,86.442 137.449,86.388 137.449L85.102 137.722L85.102 131.84L83.98 131.84L83.98 137.941L80.478 138.652L80.478 133.098L79.383 133.098L79.383 138.899L77.851 139.2C77.605 139.254,77.413 139.528,77.413 139.747L77.413 139.829L77.413 142.127L77.413 142.045C77.413 142.373,77.66 142.592,77.961 142.592C78.015 142.592,78.043 142.592,78.07 142.592L79.383 142.319L79.383 148.83L77.851 149.131C77.605 149.186,77.413 149.46,77.413 149.679L77.413 151.977C77.413 152.278,77.66 152.524,77.961 152.524C78.015 152.524,78.043 152.524,78.07 152.524L79.383 152.25L79.383 158.133L80.478 158.133L80.478 152.004L83.98 151.293L83.98 156.847L85.102 156.847L85.102 151.074L86.606 150.8C86.825 150.746,87.017 150.472,87.017 150.253L87.017 147.928C87.017 147.599,86.798 147.353,86.47 147.353C86.442 147.353,86.442 147.353,86.388 147.353L85.102 147.627L85.102 141.142M80.478 142.072L83.98 141.388L83.98 147.873L80.478 148.612"/><path stroke="none" d="M97.21 120.869C97.429 120.814,97.62 120.54,97.62 120.321L97.62 117.996C97.62 117.668,97.401 117.449,97.073 117.449C97.046 117.449,97.046 117.449,96.991 117.449L95.705 117.722L95.705 111.84L94.583 111.84L94.583 117.941L91.081 118.652L91.081 113.098L89.987 113.098L89.987 118.899L88.455 119.2C88.208 119.254,88.017 119.528,88.017 119.747L88.017 119.829L88.017 122.127L88.017 122.045C88.017 122.373,88.263 122.592,88.564 122.592C88.619 122.592,88.646 122.592,88.673 122.592L89.987 122.319L89.987 128.83L88.455 129.131C88.208 129.186,88.017 129.46,88.017 129.679L88.017 131.977C88.017 132.278,88.263 132.524,88.564 132.524C88.619 132.524,88.646 132.524,88.673 132.524L89.987 132.25L89.987 138.133L91.081 138.133L91.081 132.004L94.583 131.293L94.583 136.847L95.705 136.847L95.705 131.074L97.21 130.8C97.429 130.746,97.62 130.472,97.62 130.253L97.62 127.928C97.62 127.599,97.401 127.353,97.073 127.353C97.046 127.353,97.046 127.353,96.991 127.353L95.705 127.627L95.705 121.142M91.081 122.072L94.583 121.388L94.583 127.873L91.081 128.612"/></g><g class="vf-keysignature" id="vf-auto7395"><path stroke="none" d="M117.813 125.869C118.032 125.814,118.224 125.54,118.224 125.321L118.224 122.996C118.224 122.668,118.005 122.449,117.676 122.449C117.649 122.449,117.649 122.449,117.594 122.449L116.308 122.722L116.308 116.84L115.187 116.84L115.187 122.941L111.684 123.652L111.684 118.098L110.59 118.098L110.59 123.899L109.058 124.2C108.812 124.254,108.62 124.528,108.62 124.747L108.62 124.829L108.62 127.127L108.62 127.045C108.62 127.373,108.866 127.592,109.167 127.592C109.222 127.592,109.249 127.592,109.277 127.592L110.59 127.319L110.59 133.83L109.058 134.131C108.812 134.186,108.62 134.46,108.62 134.679L108.62 136.977C108.62 137.278,108.866 137.524,109.167 137.524C109.222 137.524,109.249 137.524,109.277 137.524L110.59 137.25L110.59 143.133L111.684 143.133L111.684 137.004L115.187 136.293L115.187 141.847L116.308 141.847L116.308 136.074L117.813 135.8C118.032 135.746,118.224 135.472,118.224 135.253L118.224 132.928C118.224 132.599,118.005 132.353,117.676 132.353C117.649 132.353,117.649 132.353,117.594 132.353L116.308 132.627L116.308 126.142M111.684 127.072L115.187 126.388L115.187 132.873L111.684 133.612"/><path stroke="none" d="M128.416 140.869C128.635 140.814,128.827 140.54,128.827 140.321L128.827 137.996C128.827 137.668,128.608 137.449,128.28 137.449C128.252 137.449,128.252 137.449,128.198 137.449L126.912 137.722L126.912 131.84L125.79 131.84L125.79 137.941L122.288 138.652L122.288 133.098L121.193 133.098L121.193 138.899L119.661 139.2C119.415 139.254,119.224 139.528,119.224 139.747L119.224 139.829L119.224 142.127L119.224 142.045C119.224 142.373,119.47 142.592,119.771 142.592C119.825 142.592,119.853 142.592,119.88 142.592L121.193 142.319L121.193 148.83L119.661 149.131C119.415 149.186,119.224 149.46,119.224 149.679L119.224 151.977C119.224 152.278,119.47 152.524,119.771 152.524C119.825 152.524,119.853 152.524,119.88 152.524L121.193 152.25L121.193 158.133L122.288 158.133L122.288 152.004L125.79 151.293L125.79 156.847L126.912 156.847L126.912 151.074L128.416 150.8C128.635 150.746,128.827 150.472,128.827 150.253L128.827 147.928C128.827 147.599,128.608 147.353,128.28 147.353C128.252 147.353,128.252 147.353,128.198 147.353L126.912 147.627L126.912 141.142M122.288 142.072L125.79 141.388L125.79 147.873L122.288 148.612"/><path stroke="none" d="M139.02 120.869C139.239 120.814,139.43 120.54,139.43 120.321L139.43 117.996C139.43 117.668,139.211 117.449,138.883 117.449C138.856 117.449,138.856 117.449,138.801 117.449L137.515 117.722L137.515 111.84L136.393 111.84L136.393 117.941L132.891 118.652L132.891 113.098L131.797 113.098L131.797 118.899L130.265 119.2C130.018 119.254,129.827 119.528,129.827 119.747L129.827 119.829L129.827 122.127L129.827 122.045C129.827 122.373,130.073 122.592,130.374 122.592C130.429 122.592,130.456 122.592,130.484 122.592L131.797 122.319L131.797 128.83L130.265 129.131C130.018 129.186,129.827 129.46,129.827 129.679L129.827 131.977C129.827 132.278,130.073 132.524,130.374 132.524C130.429 132.524,130.456 132.524,130.484 132.524L131.797 132.25L131.797 138.133L132.891 138.133L132.891 132.004L136.393 131.293L136.393 136.847L137.515 136.847L137.515 131.074L139.02 130.8C139.239 130.746,139.43 130.472,139.43 130.253L139.43 127.928C139.43 127.599,139.211 127.353,138.883 127.353C138.856 127.353,138.856 127.353,138.801 127.353L137.515 127.627L137.515 121.142M132.891 122.072L136.393 121.388L136.393 127.873L132.891 128.612"/><path stroke="none" d="M149.623 135.869C149.842 135.814,150.034 135.54,150.034 135.321L150.034 132.996C150.034 132.668,149.815 132.449,149.486 132.449C149.459 132.449,149.459 132.449,149.404 132.449L148.118 132.722L148.118 126.84L146.997 126.84L146.997 132.941L143.495 133.652L143.495 128.098L142.4 128.098L142.4 133.899L140.868 134.2C140.622 134.254,140.43 134.528,140.43 134.747L140.43 134.829L140.43 137.127L140.43 137.045C140.43 137.373,140.676 137.592,140.977 137.592C141.032 137.592,141.06 137.592,141.087 137.592L142.4 137.319L142.4 143.83L140.868 144.131C140.622 144.186,140.43 144.46,140.43 144.679L140.43 146.977C140.43 147.278,140.676 147.524,140.977 147.524C141.032 147.524,141.06 147.524,141.087 147.524L142.4 147.25L142.4 153.133L143.495 153.133L143.495 147.004L146.997 146.293L146.997 151.847L148.118 151.847L148.118 146.074L149.623 145.8C149.842 145.746,150.034 145.472,150.034 145.253L150.034 142.928C150.034 142.599,149.815 142.353,149.486 142.353C149.459 142.353,149.459 142.353,149.404 142.353L148.118 142.627L148.118 136.142M143.495 137.072L146.997 136.388L146.997 142.873L143.495 143.612"/></g><g class="vf-keysignature" id="vf-auto7396"><path stroke="none" d="M170.227 125.869C170.445 125.814,170.637 125.54,170.637 125.321L170.637 122.996C170.637 122.668,170.418 122.449,170.09 122.449C170.062 122.449,170.062 122.449,170.008 122.449L168.722 122.722L168.722 116.84L167.6 116.84L167.6 122.941L164.098 123.652L164.098 118.098L163.004 118.098L163.004 123.899L161.471 124.2C161.225 124.254,161.034 124.528,161.034 124.747L161.034 124.829L161.034 127.127L161.034 127.045C161.034 127.373,161.28 127.592,161.581 127.592C161.636 127.592,161.663 127.592,161.69 127.592L163.004 127.319L163.004 133.83L161.471 134.131C161.225 134.186,161.034 134.46,161.034 134.679L161.034 136.977C161.034 137.278,161.28 137.524,161.581 137.524C161.636 137.524,161.663 137.524,161.69 137.524L163.004 137.25L163.004 143.133L164.098 143.133L164.098 137.004L167.6 136.293L167.6 141.847L168.722 141.847L168.722 136.074L170.227 135.8C170.445 135.746,170.637 135.472,170.637 135.253L170.637 132.928C170.637 132.599,170.418 132.353,170.09 132.353C170.062 132.353,170.062 132.353,170.008 132.353L168.722 132.627L168.722 126.142M164.098 127.072L167.6 126.388L167.6 132.873L164.098 133.612"/><path stroke="none" d="M180.83 140.869C181.049 140.814,181.24 140.54,181.24 140.321L181.24 137.996C181.24 137.668,181.021 137.449,180.693 137.449C180.666 137.449,180.666 137.449,180.611 137.449L179.325 137.722L179.325 131.84L178.203 131.84L178.203 137.941L174.701 138.652L174.701 133.098L173.607 133.098L173.607 138.899L172.075 139.2C171.828 139.254,171.637 139.528,171.637 139.747L171.637 139.829L171.637 142.127L171.637 142.045C171.637 142.373,171.883 142.592,172.184 142.592C172.239 142.592,172.266 142.592,172.294 142.592L173.607 142.319L173.607 148.83L172.075 149.131C171.828 149.186,171.637 149.46,171.637 149.679L171.637 151.977C171.637 152.278,171.883 152.524,172.184 152.524C172.239 152.524,172.266 152.524,172.294 152.524L173.607 152.25L173.607 158.133L174.701 158.133L174.701 152.004L178.203 151.293L178.203 156.847L179.325 156.847L179.325 151.074L180.83 150.8C181.049 150.746,181.24 150.472,181.24 150.253L181.24 147.928C181.24 147.599,181.021 147.353,180.693 147.353C180.666 147.353,180.666 147.353,180.611 147.353L179.325 147.627L179.325 141.142M174.701 142.072L178.203 141.388L178.203 147.873L174.701 148.612"/><path stroke="none" d="M191.433 120.869C191.652 120.814,191.844 120.54,191.844 120.321L191.844 117.996C191.844 117.668,191.625 117.449,191.296 117.449C191.269 117.449,191.269 117.449,191.214 117.449L189.928 117.722L189.928 111.84L188.807 111.84L188.807 117.941L185.305 118.652L185.305 113.098L184.21 113.098L184.21 118.899L182.678 119.2C182.432 119.254,182.24 119.528,182.24 119.747L182.24 119.829L182.24 122.127L182.24 122.045C182.24 122.373,182.487 122.592,182.788 122.592C182.842 122.592,182.87 122.592,182.897 122.592L184.21 122.319L184.21 128.83L182.678 129.131C182.432 129.186,182.24 129.46,182.24 129.679L182.24 131.977C182.24 132.278,182.487 132.524,182.788 132.524C182.842 132.524,182.87 132.524,182.897 132.524L184.21 132.25L184.21 138.133L185.305 138.133L185.305 132.004L188.807 131.293L188.807 136.847L189.928 136.847L189.928 131.074L191.433 130.8C191.652 130.746,191.844 130.472,191.844 130.253L191.844 127.928C191.844 127.599,191.625 127.353,191.296 127.353C191.269 127.353,191.269 127.353,191.214 127.353L189.928 127.627L189.928 121.142M185.305 122.072L188.807 121.388L188.807 127.873L185.305 128.612"/><path stroke="none" d="M202.037 135.869C202.256 135.814,202.447 135.54,202.447 135.321L202.447 132.996C202.447 132.668,202.228 132.449,201.9 132.449C201.872 132.449,201.872 132.449,201.818 132.449L200.532 132.722L200.532 126.84L199.41 126.84L199.41 132.941L195.908 133.652L195.908 128.098L194.814 128.098L194.814 133.899L193.281 134.2C193.035 134.254,192.844 134.528,192.844 134.747L192.844 134.829L192.844 137.127L192.844 137.045C192.844 137.373,193.09 137.592,193.391 137.592C193.446 137.592,193.473 137.592,193.5 137.592L194.814 137.319L194.814 143.83L193.281 144.131C193.035 144.186,192.844 144.46,192.844 144.679L192.844 146.977C192.844 147.278,193.09 147.524,193.391 147.524C193.446 147.524,193.473 147.524,193.5 147.524L194.814 147.25L194.814 153.133L195.908 153.133L195.908 147.004L199.41 146.293L199.41 151.847L200.532 151.847L200.532 146.074L202.037 145.8C202.256 145.746,202.447 145.472,202.447 145.253L202.447 142.928C202.447 142.599,202.228 142.353,201.9 142.353C201.872 142.353,201.872 142.353,201.818 142.353L200.532 142.627L200.532 136.142M195.908 137.072L199.41 136.388L199.41 142.873L195.908 143.612"/><path stroke="none" d="M212.64 150.869C212.859 150.814,213.05 150.54,213.05 150.321L213.05 147.996C213.05 147.668,212.832 147.449,212.503 147.449C212.476 147.449,212.476 147.449,212.421 147.449L211.135 147.722L211.135 141.84L210.013 141.84L210.013 147.941L206.511 148.652L206.511 143.098L205.417 143.098L205.417 148.899L203.885 149.2C203.639 149.254,203.447 149.528,203.447 149.747L203.447 149.829L203.447 152.127L203.447 152.045C203.447 152.373,203.693 152.592,203.994 152.592C204.049 152.592,204.076 152.592,204.104 152.592L205.417 152.319L205.417 158.83L203.885 159.131C203.639 159.186,203.447 159.46,203.447 159.679L203.447 161.977C203.447 162.278,203.693 162.524,203.994 162.524C204.049 162.524,204.076 162.524,204.104 162.524L205.417 162.25L205.417 168.133L206.511 168.133L206.511 162.004L210.013 161.293L210.013 166.847L211.135 166.847L211.135 161.074L212.64 160.8C212.859 160.746,213.05 160.472,213.05 160.253L213.05 157.928C213.05 157.599,212.832 157.353,212.503 157.353C212.476 157.353,212.476 157.353,212.421 157.353L211.135 157.627L211.135 151.142M206.511 152.072L210.013 151.388L210.013 157.873L206.511 158.612"/></g><g class="vf-keysignature" id="vf-auto7397"><path stroke="none" d="M233.243 125.869C233.462 125.814,233.654 125.54,233.654 125.321L233.654 122.996C233.654 122.668,233.435 122.449,233.107 122.449C233.079 122.449,233.079 122.449,233.024 122.449L231.739 122.722L231.739 116.84L230.617 116.84L230.617 122.941L227.115 123.652L227.115 118.098L226.02 118.098L226.02 123.899L224.488 124.2C224.242 124.254,224.05 124.528,224.05 124.747L224.05 124.829L224.05 127.127L224.05 127.045C224.05 127.373,224.297 127.592,224.598 127.592C224.652 127.592,224.68 127.592,224.707 127.592L226.02 127.319L226.02 133.83L224.488 134.131C224.242 134.186,224.05 134.46,224.05 134.679L224.05 136.977C224.05 137.278,224.297 137.524,224.598 137.524C224.652 137.524,224.68 137.524,224.707 137.524L226.02 137.25L226.02 143.133L227.115 143.133L227.115 137.004L230.617 136.293L230.617 141.847L231.739 141.847L231.739 136.074L233.243 135.8C233.462 135.746,233.654 135.472,233.654 135.253L233.654 132.928C233.654 132.599,233.435 132.353,233.107 132.353C233.079 132.353,233.079 132.353,233.024 132.353L231.739 132.627L231.739 126.142M227.115 127.072L230.617 126.388L230.617 132.873L227.115 133.612"/><path stroke="none" d="M243.847 140.869C244.066 140.814,244.257 140.54,244.257 140.321L244.257 137.996C244.257 137.668,244.038 137.449,243.71 137.449C243.683 137.449,243.683 137.449,243.628 137.449L242.342 137.722L242.342 131.84L241.22 131.84L241.22 137.941L237.718 138.652L237.718 133.098L236.624 133.098L236.624 138.899L235.092 139.2C234.845 139.254,234.654 139.528,234.654 139.747L234.654 139.829L234.654 142.127L234.654 142.045C234.654 142.373,234.9 142.592,235.201 142.592C235.256 142.592,235.283 142.592,235.31 142.592L236.624 142.319L236.624 148.83L235.092 149.131C234.845 149.186,234.654 149.46,234.654 149.679L234.654 151.977C234.654 152.278,234.9 152.524,235.201 152.524C235.256 152.524,235.283 152.524,235.31 152.524L236.624 152.25L236.624 158.133L237.718 158.133L237.718 152.004L241.22 151.293L241.22 156.847L242.342 156.847L242.342 151.074L243.847 150.8C244.066 150.746,244.257 150.472,244.257 150.253L244.257 147.928C244.257 147.599,244.038 147.353,243.71 147.353C243.683 147.353,243.683 147.353,243.628 147.353L242.342 147.627L242.342 141.142M237.718 142.072L241.22 141.388L241.22 147.873L237.718 148.612"/><path stroke="none" d="M254.45 120.869C254.669 120.814,254.86 120.54,254.86 120.321L254.86 117.996C254.86 117.668,254.642 117.449,254.313 117.449C254.286 117.449,254.286 117.449,254.231 117.449L252.945 117.722L252.945 111.84L251.824 111.84L251.824 117.941L248.321 118.652L248.321 113.098L247.227 113.098L247.227 118.899L245.695 119.2C245.449 119.254,245.257 119.528,245.257 119.747L245.257 119.829L245.257 122.127L245.257 122.045C245.257 122.373,245.503 122.592,245.804 122.592C245.859 122.592,245.886 122.592,245.914 122.592L247.227 122.319L247.227 128.83L245.695 129.131C245.449 129.186,245.257 129.46,245.257 129.679L245.257 131.977C245.257 132.278,245.503 132.524,245.804 132.524C245.859 132.524,245.886 132.524,245.914 132.524L247.227 132.25L247.227 138.133L248.321 138.133L248.321 132.004L251.824 131.293L251.824 136.847L252.945 136.847L252.945 131.074L254.45 130.8C254.669 130.746,254.86 130.472,254.86 130.253L254.86 127.928C254.86 127.599,254.642 127.353,254.313 127.353C254.286 127.353,254.286 127.353,254.231 127.353L252.945 127.627L252.945 121.142M248.321 122.072L251.824 121.388L251.824 127.873L248.321 128.612"/><path stroke="none" d="M265.053 135.869C265.272 135.814,265.464 135.54,265.464 135.321L265.464 132.996C265.464 132.668,265.245 132.449,264.917 132.449C264.889 132.449,264.889 132.449,264.835 132.449L263.549 132.722L263.549 126.84L262.427 126.84L262.427 132.941L258.925 133.652L258.925 128.098L257.83 128.098L257.83 133.899L256.298 134.2C256.052 134.254,255.86 134.528,255.86 134.747L255.86 134.829L255.86 137.127L255.86 137.045C255.86 137.373,256.107 137.592,256.408 137.592C256.462 137.592,256.49 137.592,256.517 137.592L257.83 137.319L257.83 143.83L256.298 144.131C256.052 144.186,255.86 144.46,255.86 144.679L255.86 146.977C255.86 147.278,256.107 147.524,256.408 147.524C256.462 147.524,256.49 147.524,256.517 147.524L257.83 147.25L257.83 153.133L258.925 153.133L258.925 147.004L262.427 146.293L262.427 151.847L263.549 151.847L263.549 146.074L265.053 145.8C265.272 145.746,265.464 145.472,265.464 145.253L265.464 142.928C265.464 142.599,265.245 142.353,264.917 142.353C264.889 142.353,264.889 142.353,264.835 142.353L263.549 142.627L263.549 136.142M258.925 137.072L262.427 136.388L262.427 142.873L258.925 143.612"/><path stroke="none" d="M275.657 150.869C275.876 150.814,276.067 150.54,276.067 150.321L276.067 147.996C276.067 147.668,275.848 147.449,275.52 147.449C275.493 147.449,275.493 147.449,275.438 147.449L274.152 147.722L274.152 141.84L273.03 141.84L273.03 147.941L269.528 148.652L269.528 143.098L268.434 143.098L268.434 148.899L266.902 149.2C266.655 149.254,266.464 149.528,266.464 149.747L266.464 149.829L266.464 152.127L266.464 152.045C266.464 152.373,266.71 152.592,267.011 152.592C267.066 152.592,267.093 152.592,267.12 152.592L268.434 152.319L268.434 158.83L266.902 159.131C266.655 159.186,266.464 159.46,266.464 159.679L266.464 161.977C266.464 162.278,266.71 162.524,267.011 162.524C267.066 162.524,267.093 162.524,267.12 162.524L268.434 162.25L268.434 168.133L269.528 168.133L269.528 162.004L273.03 161.293L273.03 166.847L274.152 166.847L274.152 161.074L275.657 160.8C275.876 160.746,276.067 160.472,276.067 160.253L276.067 157.928C276.067 157.599,275.848 157.353,275.52 157.353C275.493 157.353,275.493 157.353,275.438 157.353L274.152 157.627L274.152 151.142M269.528 152.072L273.03 151.388L273.03 157.873L269.528 158.612"/><path stroke="none" d="M286.26 130.869C286.479 130.814,286.671 130.54,286.671 130.321L286.671 127.996C286.671 127.668,286.452 127.449,286.123 127.449C286.096 127.449,286.096 127.449,286.041 127.449L284.755 127.722L284.755 121.84L283.634 121.84L283.634 127.941L280.132 128.652L280.132 123.098L279.037 123.098L279.037 128.899L277.505 129.2C277.259 129.254,277.067 129.528,277.067 129.747L277.067 129.829L277.067 132.127L277.067 132.045C277.067 132.373,277.313 132.592,277.614 132.592C277.669 132.592,277.696 132.592,277.724 132.592L279.037 132.319L279.037 138.83L277.505 139.131C277.259 139.186,277.067 139.46,277.067 139.679L277.067 141.977C277.067 142.278,277.313 142.524,277.614 142.524C277.669 142.524,277.696 142.524,277.724 142.524L279.037 142.25L279.037 148.133L280.132 148.133L280.132 142.004L283.634 141.293L283.634 146.847L284.755 146.847L284.755 141.074L286.26 140.8C286.479 140.746,286.671 140.472,286.671 140.253L286.671 137.928C286.671 137.599,286.452 137.353,286.123 137.353C286.096 137.353,286.096 137.353,286.041 137.353L284.755 137.627L284.755 131.142M280.132 132.072L283.634 131.388L283.634 137.873L280.132 138.612"/></g><g class="vf-keysignature" id="vf-auto7398"><path stroke="none" d="M306.864 125.869C307.082 125.814,307.274 125.54,307.274 125.321L307.274 122.996C307.274 122.668,307.055 122.449,306.727 122.449C306.699 122.449,306.699 122.449,306.645 122.449L305.359 122.722L305.359 116.84L304.237 116.84L304.237 122.941L300.735 123.652L300.735 118.098L299.64 118.098L299.64 123.899L298.108 124.2C297.862 124.254,297.671 124.528,297.671 124.747L297.671 124.829L297.671 127.127L297.671 127.045C297.671 127.373,297.917 127.592,298.218 127.592C298.272 127.592,298.3 127.592,298.327 127.592L299.64 127.319L299.64 133.83L298.108 134.131C297.862 134.186,297.671 134.46,297.671 134.679L297.671 136.977C297.671 137.278,297.917 137.524,298.218 137.524C298.272 137.524,298.3 137.524,298.327 137.524L299.64 137.25L299.64 143.133L300.735 143.133L300.735 137.004L304.237 136.293L304.237 141.847L305.359 141.847L305.359 136.074L306.864 135.8C307.082 135.746,307.274 135.472,307.274 135.253L307.274 132.928C307.274 132.599,307.055 132.353,306.727 132.353C306.699 132.353,306.699 132.353,306.645 132.353L305.359 132.627L305.359 126.142M300.735 127.072L304.237 126.388L304.237 132.873L300.735 133.612"/><path stroke="none" d="M317.467 140.869C317.686 140.814,317.877 140.54,317.877 140.321L317.877 137.996C317.877 137.668,317.658 137.449,317.33 137.449C317.303 137.449,317.303 137.449,317.248 137.449L315.962 137.722L315.962 131.84L314.84 131.84L314.84 137.941L311.338 138.652L311.338 133.098L310.244 133.098L310.244 138.899L308.712 139.2C308.465 139.254,308.274 139.528,308.274 139.747L308.274 139.829L308.274 142.127L308.274 142.045C308.274 142.373,308.52 142.592,308.821 142.592C308.876 142.592,308.903 142.592,308.931 142.592L310.244 142.319L310.244 148.83L308.712 149.131C308.465 149.186,308.274 149.46,308.274 149.679L308.274 151.977C308.274 152.278,308.52 152.524,308.821 152.524C308.876 152.524,308.903 152.524,308.931 152.524L310.244 152.25L310.244 158.133L311.338 158.133L311.338 152.004L314.84 151.293L314.84 156.847L315.962 156.847L315.962 151.074L317.467 150.8C317.686 150.746,317.877 150.472,317.877 150.253L317.877 147.928C317.877 147.599,317.658 147.353,317.33 147.353C317.303 147.353,317.303 147.353,317.248 147.353L315.962 147.627L315.962 141.142M311.338 142.072L314.84 141.388L314.84 147.873L311.338 148.612"/><path stroke="none" d="M328.07 120.869C328.289 120.814,328.481 120.54,328.481 120.321L328.481 117.996C328.481 117.668,328.262 117.449,327.933 117.449C327.906 117.449,327.906 117.449,327.851 117.449L326.565 117.722L326.565 111.84L325.444 111.84L325.444 117.941L321.942 118.652L321.942 113.098L320.847 113.098L320.847 118.899L319.315 119.2C319.069 119.254,318.877 119.528,318.877 119.747L318.877 119.829L318.877 122.127L318.877 122.045C318.877 122.373,319.124 122.592,319.424 122.592C319.479 122.592,319.507 122.592,319.534 122.592L320.847 122.319L320.847 128.83L319.315 129.131C319.069 129.186,318.877 129.46,318.877 129.679L318.877 131.977C318.877 132.278,319.124 132.524,319.424 132.524C319.479 132.524,319.507 132.524,319.534 132.524L320.847 132.25L320.847 138.133L321.942 138.133L321.942 132.004L325.444 131.293L325.444 136.847L326.565 136.847L326.565 131.074L328.07 130.8C328.289 130.746,328.481 130.472,328.481 130.253L328.481 127.928C328.481 127.599,328.262 127.353,327.933 127.353C327.906 127.353,327.906 127.353,327.851 127.353L326.565 127.627L326.565 121.142M321.942 122.072L325.444 121.388L325.444 127.873L321.942 128.612"/><path stroke="none" d="M338.674 135.869C338.892 135.814,339.084 135.54,339.084 135.321L339.084 132.996C339.084 132.668,338.865 132.449,338.537 132.449C338.509 132.449,338.509 132.449,338.455 132.449L337.169 132.722L337.169 126.84L336.047 126.84L336.047 132.941L332.545 133.652L332.545 128.098L331.451 128.098L331.451 133.899L329.918 134.2C329.672 134.254,329.481 134.528,329.481 134.747L329.481 134.829L329.481 137.127L329.481 137.045C329.481 137.373,329.727 137.592,330.028 137.592C330.083 137.592,330.11 137.592,330.137 137.592L331.451 137.319L331.451 143.83L329.918 144.131C329.672 144.186,329.481 144.46,329.481 144.679L329.481 146.977C329.481 147.278,329.727 147.524,330.028 147.524C330.083 147.524,330.11 147.524,330.137 147.524L331.451 147.25L331.451 153.133L332.545 153.133L332.545 147.004L336.047 146.293L336.047 151.847L337.169 151.847L337.169 146.074L338.674 145.8C338.892 145.746,339.084 145.472,339.084 145.253L339.084 142.928C339.084 142.599,338.865 142.353,338.537 142.353C338.509 142.353,338.509 142.353,338.455 142.353L337.169 142.627L337.169 136.142M332.545 137.072L336.047 136.388L336.047 142.873L332.545 143.612"/><path stroke="none" d="M349.277 150.869C349.496 150.814,349.687 150.54,349.687 150.321L349.687 147.996C349.687 147.668,349.468 147.449,349.14 147.449C349.113 147.449,349.113 147.449,349.058 147.449L347.772 147.722L347.772 141.84L346.65 141.84L346.65 147.941L343.148 148.652L343.148 143.098L342.054 143.098L342.054 148.899L340.522 149.2C340.276 149.254,340.084 149.528,340.084 149.747L340.084 149.829L340.084 152.127L340.084 152.045C340.084 152.373,340.33 152.592,340.631 152.592C340.686 152.592,340.713 152.592,340.741 152.592L342.054 152.319L342.054 158.83L340.522 159.131C340.276 159.186,340.084 159.46,340.084 159.679L340.084 161.977C340.084 162.278,340.33 162.524,340.631 162.524C340.686 162.524,340.713 162.524,340.741 162.524L342.054 162.25L342.054 168.133L343.148 168.133L343.148 162.004L346.65 161.293L346.65 166.847L347.772 166.847L347.772 161.074L349.277 160.8C349.496 160.746,349.687 160.472,349.687 160.253L349.687 157.928C349.687 157.599,349.468 157.353,349.14 157.353C349.113 157.353,349.113 157.353,349.058 157.353L347.772 157.627L347.772 151.142M343.148 152.072L346.65 151.388L346.65 157.873L343.148 158.612"/><path stroke="none" d="M359.88 130.869C360.099 130.814,360.291 130.54,360.291 130.321L360.291 127.996C360.291 127.668,360.072 127.449,359.744 127.449C359.716 127.449,359.716 127.449,359.661 127.449L358.376 127.722L358.376 121.84L357.254 121.84L357.254 127.941L353.752 128.652L353.752 123.098L352.657 123.098L352.657 128.899L351.125 129.2C350.879 129.254,350.687 129.528,350.687 129.747L350.687 129.829L350.687 132.127L350.687 132.045C350.687 132.373,350.934 132.592,351.235 132.592C351.289 132.592,351.317 132.592,351.344 132.592L352.657 132.319L352.657 138.83L351.125 139.131C350.879 139.186,350.687 139.46,350.687 139.679L350.687 141.977C350.687 142.278,350.934 142.524,351.235 142.524C351.289 142.524,351.317 142.524,351.344 142.524L352.657 142.25L352.657 148.133L353.752 148.133L353.752 142.004L357.254 141.293L357.254 146.847L358.376 146.847L358.376 141.074L359.88 140.8C360.099 140.746,360.291 140.472,360.291 140.253L360.291 137.928C360.291 137.599,360.072 137.353,359.744 137.353C359.716 137.353,359.716 137.353,359.661 137.353L358.376 137.627L358.376 131.142M353.752 132.072L357.254 131.388L357.254 137.873L353.752 138.612"/><path stroke="none" d="M370.484 145.869C370.703 145.814,370.894 145.54,370.894 145.321L370.894 142.996C370.894 142.668,370.675 142.449,370.347 142.449C370.32 142.449,370.32 142.449,370.265 142.449L368.979 142.722L368.979 136.84L367.857 136.84L367.857 142.941L364.355 143.652L364.355 138.098L363.261 138.098L363.261 143.899L361.728 144.2C361.482 144.254,361.291 144.528,361.291 144.747L361.291 144.829L361.291 147.127L361.291 147.045C361.291 147.373,361.537 147.592,361.838 147.592C361.893 147.592,361.92 147.592,361.947 147.592L363.261 147.319L363.261 153.83L361.728 154.131C361.482 154.186,361.291 154.46,361.291 154.679L361.291 156.977C361.291 157.278,361.537 157.524,361.838 157.524C361.893 157.524,361.92 157.524,361.947 157.524L363.261 157.25L363.261 163.133L364.355 163.133L364.355 157.004L367.857 156.293L367.857 161.847L368.979 161.847L368.979 156.074L370.484 155.8C370.703 155.746,370.894 155.472,370.894 155.253L370.894 152.928C370.894 152.599,370.675 152.353,370.347 152.353C370.32 152.353,370.32 152.353,370.265 152.353L368.979 152.627L368.979 146.142M364.355 147.072L367.857 146.388L367.857 152.873L364.355 153.612"/></g></svg>