<svg xmlns="http://www.w3.org/2000/svg" stroke-width="0.3" stroke-dasharray="none" fill="black" stroke="black" font-family="Arial, sans-serif" font-size="10pt" font-weight="normal" font-style="normal" width="675" height="195" viewBox="0 0 675 195" style="width: 675px; height: 195px; border: none;"><g class="vf-stave" id="vf-auto2903" stroke-width="1" fill="#999999" stroke="#999999"><path fill="none" d="M10 70L135 70"/><path fill="none" d="M10 80L135 80"/><path fill="none" d="M10 90L135 90"/><path fill="none" d="M10 100L135 100"/><path fill="none" d="M10 110L135 110"/></g><g class="vf-stavebarline" id="vf-auto2904"><rect x="10" y="69.5" width="1" height="41" stroke="none"/></g><g class="vf-stavebarline" id="vf-auto2905"/><g class="vf-stavenote" id="vf-auto2874"><path stroke-width="1.4" fill="none" stroke="#444" d="M27 120L46.508 120"/><path stroke-width="1.4" fill="none" stroke="#444" d="M27 130L46.508 130"/><g class="vf-stem" id="vf-auto2875" pointer-events="bounding-box"><path stroke-width="1.5" fill="none" d="M42.758 128L42.758 90"/></g><g class="vf-notehead" id="vf-auto2877" pointer-events="bounding-box"><path stroke="none" d="M33.645 136.543C33.926 136.599,34.178 136.627,34.459 136.627C38.334 136.627,44.119 131.348,44.006 127.08C43.894 126.041,43.922 124.609,41.816 123.766C41.227 123.485,40.581 123.373,39.879 123.373C35.554 123.373,30.865 128.343,30.528 131.657C30.528 131.909,30.5 132.134,30.5 132.387C30.5 134.409,31.399 136.037,33.645 136.543"/><path stroke="none" d="M35.222 144.487C35.249 144.487,35.249 144.487,35.304 144.46C36.125 144.323,36.918 144.323,37.739 144.241C38.177 144.213,38.45 143.885,38.45 143.557C38.532 142.9,38.642 142.244,38.642 141.532C38.642 141.341,38.642 141.149,38.615 140.93C38.532 140.301,38.286 140,37.821 140C37.712 140,37.575 140,37.465 140.027C36.918 140.109,36.316 140.192,35.769 140.301C35.413 140.383,35.03 140.547,34.976 140.985C34.894 141.997,34.866 143.037,34.866 144.049C34.866 144.241,34.894 144.487,35.222 144.487"/></g></g><g class="vf-stavenote" id="vf-auto2878"><g class="vf-stem" id="vf-auto2879" pointer-events="bounding-box"><path stroke-width="1.5" fill="none" d="M62.631 93L62.631 60"/></g><g class="vf-notehead" id="vf-auto2881" pointer-events="bounding-box"><path stroke="none" d="M53.518 101.543C53.799 101.599,54.051 101.627,54.332 101.627C58.207 101.627,63.992 96.348,63.879 92.08C63.767 91.041,63.795 89.609,61.689 88.766C61.1 88.485,60.454 88.373,59.752 88.373C55.427 88.373,50.738 93.343,50.401 96.657C50.401 96.909,50.373 97.134,50.373 97.387C50.373 99.409,51.272 101.037,53.518 101.543"/><path stroke="none" d="M55.095 107.244C55.122 107.244,55.122 107.244,55.177 107.216C55.998 107.079,56.791 107.079,57.612 106.997C58.05 106.97,58.323 106.642,58.323 106.313C58.405 105.657,58.515 105,58.515 104.289C58.515 104.097,58.515 103.906,58.488 103.687C58.405 103.057,58.159 102.756,57.694 102.756C57.585 102.756,57.448 102.756,57.338 102.784C56.791 102.866,56.189 102.948,55.642 103.057C55.286 103.14,54.903 103.304,54.849 103.741C54.767 104.754,54.739 105.793,54.739 106.806C54.739 106.997,54.767 107.244,55.095 107.244"/></g></g><g class="vf-stavenote" id="vf-auto2882"><path stroke-width="1.4" fill="none" stroke="#444" d="M66.746 120L86.254 120"/><g class="vf-stem" id="vf-auto2883" pointer-events="bounding-box"><path stroke-width="1.5" fill="none" d="M82.504 118L82.504 85"/></g><g class="vf-notehead" id="vf-auto2885" pointer-events="bounding-box"><path stroke="none" d="M73.391 126.543C73.672 126.599,73.924 126.627,74.205 126.627C78.08 126.627,83.865 121.348,83.752 117.08C83.64 116.041,83.668 114.609,81.562 113.766C80.973 113.485,80.327 113.373,79.625 113.373C75.3 113.373,70.611 118.343,70.274 121.657C70.274 121.909,70.246 122.134,70.246 122.387C70.246 124.409,71.145 126.037,73.391 126.543"/><path stroke="none" d="M74.968 77.244C74.995 77.244,74.995 77.244,75.05 77.216C75.871 77.079,76.664 77.079,77.485 76.997C77.923 76.97,78.196 76.642,78.196 76.313C78.278 75.657,78.388 75,78.388 74.289C78.388 74.097,78.388 73.906,78.36 73.687C78.278 73.057,78.032 72.756,77.567 72.756C77.458 72.756,77.321 72.756,77.211 72.784C76.664 72.866,76.062 72.948,75.515 73.057C75.159 73.14,74.776 73.304,74.722 73.741C74.64 74.754,74.612 75.793,74.612 76.806C74.612 76.997,74.64 77.244,74.968 77.244"/></g></g><g class="vf-stavenote" id="vf-auto2886"><g class="vf-stem" id="vf-auto2887" pointer-events="bounding-box"><path stroke-width="1.5" fill="none" d="M102.377 93L102.377 60"/></g><g class="vf-notehead" id="vf-auto2889" pointer-events="bounding-box"><path stroke="none" d="M93.264 101.543C93.545 101.599,93.797 101.627,94.078 101.627C97.953 101.627,103.738 96.348,103.625 92.08C103.513 91.041,103.541 89.609,101.435 88.766C100.845 88.485,100.2 88.373,99.498 88.373C95.173 88.373,90.484 93.343,90.147 96.657C90.147 96.909,90.119 97.134,90.119 97.387C90.119 99.409,91.017 101.037,93.264 101.543"/><path stroke="none" d="M94.841 55C94.868 55,94.868 55,94.923 54.973C95.744 54.836,96.537 54.836,97.358 54.754C97.796 54.726,98.069 54.398,98.069 54.07C98.151 53.413,98.261 52.756,98.261 52.045C98.261 51.854,98.261 51.662,98.233 51.443C98.151 50.814,97.905 50.513,97.44 50.513C97.331 50.513,97.194 50.513,97.084 50.54C96.537 50.622,95.935 50.704,95.388 50.814C95.032 50.896,94.649 51.06,94.595 51.498C94.512 52.51,94.485 53.55,94.485 54.562C94.485 54.754,94.512 55,94.841 55"/></g></g><g class="vf-stave" id="vf-auto2935" stroke-width="1" fill="#999999" stroke="#999999"><path fill="none" d="M135 70L260 70"/><path fill="none" d="M135 80L260 80"/><path fill="none" d="M135 90L260 90"/><path fill="none" d="M135 100L260 100"/><path fill="none" d="M135 110L260 110"/></g><g class="vf-stavebarline" id="vf-auto2936"><rect x="135" y="69.5" width="1" height="41" stroke="none"/></g><g class="vf-stavebarline" id="vf-auto2937"><rect x="257" y="69.5" width="1" height="41" stroke="none"/><rect x="260" y="69.5" width="1" height="41" stroke="none"/></g><g class="vf-stavenote" id="vf-auto2906"><g class="vf-stem" id="vf-auto2907" pointer-events="bounding-box"><path stroke-width="1.5" fill="none" d="M155.75 87L155.75 120"/></g><g class="vf-notehead" id="vf-auto2909" pointer-events="bounding-box"><path stroke="none" d="M158.145 91.543C158.426 91.599,158.678 91.627,158.959 91.627C162.834 91.627,168.619 86.348,168.506 82.08C168.394 81.041,168.422 79.609,166.316 78.766C165.727 78.485,165.081 78.373,164.379 78.373C160.054 78.373,155.365 83.343,155.028 86.657C155.028 86.909,155 87.134,155 87.387C155 89.409,155.899 91.037,158.145 91.543"/><path stroke="none" d="M160.222 77.244C160.249 77.244,160.249 77.244,160.304 77.216C161.125 77.079,161.918 77.079,162.739 76.997C163.177 76.97,163.45 76.642,163.45 76.313C163.532 75.657,163.642 75,163.642 74.289C163.642 74.097,163.642 73.906,163.615 73.687C163.532 73.057,163.286 72.756,162.821 72.756C162.712 72.756,162.575 72.756,162.465 72.784C161.918 72.866,161.316 72.948,160.769 73.057C160.413 73.14,160.03 73.304,159.976 73.741C159.894 74.754,159.866 75.793,159.866 76.806C159.866 76.997,159.894 77.244,160.222 77.244"/></g></g><g class="vf-stavenote" id="vf-auto2910"><path stroke-width="1.4" fill="none" stroke="#444" d="M171.873 60L191.381 60"/><g class="vf-stem" id="vf-auto2911" pointer-events="bounding-box"><path stroke-width="1.5" fill="none" d="M175.623 62L175.623 95"/></g><g class="vf-notehead" id="vf-auto2913" pointer-events="bounding-box"><path stroke="none" d="M178.018 66.543C178.299 66.599,178.551 66.627,178.832 66.627C182.707 66.627,188.492 61.348,188.379 57.08C188.267 56.041,188.295 54.609,186.189 53.766C185.6 53.485,184.954 53.373,184.252 53.373C179.927 53.373,175.238 58.343,174.901 61.657C174.901 61.909,174.873 62.134,174.873 62.387C174.873 64.409,175.772 66.037,178.018 66.543"/><path stroke="none" d="M180.095 50C180.122 50,180.122 50,180.177 49.973C180.998 49.836,181.791 49.836,182.612 49.754C183.05 49.726,183.323 49.398,183.323 49.07C183.405 48.413,183.515 47.756,183.515 47.045C183.515 46.854,183.515 46.662,183.488 46.443C183.405 45.814,183.159 45.513,182.694 45.513C182.585 45.513,182.448 45.513,182.338 45.54C181.791 45.622,181.189 45.704,180.642 45.814C180.286 45.896,179.903 46.06,179.849 46.498C179.767 47.51,179.739 48.55,179.739 49.562C179.739 49.754,179.767 50,180.095 50"/></g></g><g class="vf-stavenote" id="vf-auto2914"><g class="vf-stem" id="vf-auto2915" pointer-events="bounding-box"><path stroke-width="1.5" fill="none" d="M195.496 87L195.496 120"/></g><g class="vf-notehead" id="vf-auto2917" pointer-events="bounding-box"><path stroke="none" d="M197.891 91.543C198.172 91.599,198.424 91.627,198.705 91.627C202.58 91.627,208.365 86.348,208.252 82.08C208.14 81.041,208.168 79.609,206.062 78.766C205.473 78.485,204.827 78.373,204.125 78.373C199.8 78.373,195.111 83.343,194.774 86.657C194.774 86.909,194.746 87.134,194.746 87.387C194.746 89.409,195.645 91.037,197.891 91.543"/><path stroke="none" d="M199.968 129.487C199.995 129.487,199.995 129.487,200.05 129.46C200.871 129.323,201.664 129.323,202.485 129.241C202.923 129.213,203.196 128.885,203.196 128.557C203.278 127.9,203.388 127.244,203.388 126.532C203.388 126.341,203.388 126.149,203.36 125.93C203.278 125.301,203.032 125,202.567 125C202.458 125,202.321 125,202.211 125.027C201.664 125.109,201.062 125.192,200.515 125.301C200.159 125.383,199.776 125.547,199.722 125.985C199.64 126.997,199.612 128.037,199.612 129.049C199.612 129.241,199.64 129.487,199.968 129.487"/></g></g><g class="vf-stavenote" id="vf-auto2918"><path stroke-width="1.4" fill="none" stroke="#444" d="M211.619 60L231.127 60"/><g class="vf-stem" id="vf-auto2919" pointer-events="bounding-box"><path stroke-width="1.5" fill="none" d="M215.369 62L215.369 95"/></g><g class="vf-notehead" id="vf-auto2921" pointer-events="bounding-box"><path stroke="none" d="M217.764 66.543C218.045 66.599,218.297 66.627,218.578 66.627C222.453 66.627,228.238 61.348,228.125 57.08C228.013 56.041,228.041 54.609,225.935 53.766C225.345 53.485,224.7 53.373,223.998 53.373C219.673 53.373,214.984 58.343,214.647 61.657C214.647 61.909,214.619 62.134,214.619 62.387C214.619 64.409,215.517 66.037,217.764 66.543"/><path stroke="none" d="M219.841 107.244C219.868 107.244,219.868 107.244,219.923 107.216C220.744 107.079,221.537 107.079,222.358 106.997C222.796 106.97,223.069 106.642,223.069 106.313C223.151 105.657,223.261 105,223.261 104.289C223.261 104.097,223.261 103.906,223.233 103.687C223.151 103.057,222.905 102.756,222.44 102.756C222.331 102.756,222.194 102.756,222.084 102.784C221.537 102.866,220.935 102.948,220.388 103.057C220.032 103.14,219.649 103.304,219.595 103.741C219.512 104.754,219.485 105.793,219.485 106.806C219.485 106.997,219.512 107.244,219.841 107.244"/></g></g><g class="vf-stave" id="vf-auto2967" stroke-width="1" fill="#999999" stroke="#999999"><path fill="none" d="M260 70L385 70"/><path fill="none" d="M260 80L385 80"/><path fill="none" d="M260 90L385 90"/><path fill="none" d="M260 100L385 100"/><path fill="none" d="M260 110L385 110"/></g><g class="vf-stavebarline" id="vf-auto2968"><rect x="260" y="69.5" width="1" height="41" stroke="none"/></g><g class="vf-stavebarline" id="vf-auto2969"/><g class="vf-stavenote" id="vf-auto2938"><path stroke-width="1.4" fill="none" stroke="#444" d="M277 120L296.508 120"/><g class="vf-stem" id="vf-auto2939" pointer-events="bounding-box"><path stroke-width="1.5" fill="none" d="M292.758 118L292.758 85"/></g><g class="vf-notehead" id="vf-auto2941" pointer-events="bounding-box"><path stroke="none" d="M283.645 126.543C283.926 126.599,284.178 126.627,284.459 126.627C288.334 126.627,294.119 121.348,294.006 117.08C293.894 116.041,293.922 114.609,291.816 113.766C291.227 113.485,290.581 113.373,289.879 113.373C285.554 113.373,280.865 118.343,280.528 121.657C280.528 121.909,280.5 122.134,280.5 122.387C280.5 124.409,281.399 126.037,283.645 126.543"/><path stroke="none" d="M286.426 148.197C286.973 148.197,287.52 148.006,287.985 147.513C288.615 146.939,289.408 146.419,289.49 145.406L289.49 145.242C289.107 143.382,289.107 141.494,288.751 139.633C288.314 137.28,288.067 134.845,287.219 132.547C287.137 132.356,286.973 132.164,286.863 132L286.645 132C285.605 132.793,285.714 134.052,285.55 135.146C285.167 137.937,284.565 140.755,284.1 143.573C284.045 143.847,284.018 144.148,284.018 144.421C284.018 145.188,284.21 146.036,284.538 146.774C284.921 147.677,285.632 148.197,286.426 148.197"/></g></g><g class="vf-stavenote" id="vf-auto2942"><g class="vf-stem" id="vf-auto2943" pointer-events="bounding-box"><path stroke-width="1.5" fill="none" d="M312.631 83L312.631 50"/></g><g class="vf-notehead" id="vf-auto2945" pointer-events="bounding-box"><path stroke="none" d="M303.518 91.543C303.799 91.599,304.051 91.627,304.332 91.627C308.207 91.627,313.992 86.348,313.879 82.08C313.767 81.041,313.795 79.609,311.689 78.766C311.1 78.485,310.454 78.373,309.752 78.373C305.427 78.373,300.738 83.343,300.401 86.657C300.401 86.909,300.373 87.134,300.373 87.387C300.373 89.409,301.272 91.037,303.518 91.543"/><path stroke="none" d="M306.299 105.099C306.846 105.099,307.393 104.907,307.858 104.415C308.488 103.84,309.281 103.32,309.363 102.308L309.363 102.144C308.98 100.283,308.98 98.395,308.624 96.535C308.187 94.182,307.94 91.747,307.092 89.449C307.01 89.257,306.846 89.066,306.736 88.901L306.518 88.901C305.478 89.695,305.587 90.953,305.423 92.048C305.04 94.839,304.438 97.657,303.973 100.475C303.918 100.748,303.891 101.049,303.891 101.323C303.891 102.089,304.083 102.937,304.411 103.676C304.794 104.579,305.505 105.099,306.299 105.099"/></g></g><g class="vf-stavenote" id="vf-auto2946"><path stroke-width="1.4" fill="none" stroke="#444" d="M316.746 120L336.254 120"/><g class="vf-stem" id="vf-auto2947" pointer-events="bounding-box"><path stroke-width="1.5" fill="none" d="M332.504 118L332.504 85"/></g><g class="vf-notehead" id="vf-auto2949" pointer-events="bounding-box"><path stroke="none" d="M323.391 126.543C323.672 126.599,323.924 126.627,324.205 126.627C328.08 126.627,333.865 121.348,333.752 117.08C333.64 116.041,333.668 114.609,331.562 113.766C330.973 113.485,330.327 113.373,329.625 113.373C325.3 113.373,320.611 118.343,320.274 121.657C320.274 121.909,320.246 122.134,320.246 122.387C320.246 124.409,321.145 126.037,323.391 126.543"/><path stroke="none" d="M326.609 81.099C327.676 80.305,327.54 79.047,327.704 77.952C328.087 75.161,328.689 72.343,329.154 69.525C329.209 69.252,329.236 68.951,329.236 68.677C329.236 67.911,329.044 67.063,328.716 66.324C328.333 65.421,327.622 64.901,326.828 64.901C326.281 64.901,325.734 65.093,325.269 65.585C324.64 66.16,323.846 66.68,323.764 67.692L323.764 67.856C324.147 69.717,324.147 71.605,324.503 73.465C324.94 75.818,325.187 78.253,326.062 80.551C326.117 80.743,326.281 80.934,326.391 81.099"/></g></g><g class="vf-stavenote" id="vf-auto2950"><g class="vf-stem" id="vf-auto2951" pointer-events="bounding-box"><path stroke-width="1.5" fill="none" d="M352.377 93L352.377 60"/></g><g class="vf-notehead" id="vf-auto2953" pointer-events="bounding-box"><path stroke="none" d="M343.264 101.543C343.545 101.599,343.797 101.627,344.078 101.627C347.953 101.627,353.738 96.348,353.625 92.08C353.513 91.041,353.541 89.609,351.435 88.766C350.845 88.485,350.2 88.373,349.498 88.373C345.173 88.373,340.484 93.343,340.147 96.657C340.147 96.909,340.119 97.134,340.119 97.387C340.119 99.409,341.017 101.037,343.264 101.543"/><path stroke="none" d="M346.482 53C347.549 52.207,347.413 50.948,347.577 49.854C347.96 47.063,348.562 44.245,349.027 41.427C349.082 41.153,349.109 40.852,349.109 40.579C349.109 39.812,348.917 38.964,348.589 38.226C348.206 37.323,347.495 36.803,346.701 36.803C346.154 36.803,345.607 36.994,345.142 37.487C344.512 38.061,343.719 38.581,343.637 39.594L343.637 39.758C344.02 41.618,344.02 43.506,344.376 45.367C344.813 47.72,345.06 50.155,345.935 52.453C345.99 52.644,346.154 52.836,346.264 53"/></g></g><g class="vf-stave" id="vf-auto2999" stroke-width="1" fill="#999999" stroke="#999999"><path fill="none" d="M385 70L510 70"/><path fill="none" d="M385 80L510 80"/><path fill="none" d="M385 90L510 90"/><path fill="none" d="M385 100L510 100"/><path fill="none" d="M385 110L510 110"/></g><g class="vf-stavebarline" id="vf-auto3000"><rect x="385" y="69.5" width="1" height="41" stroke="none"/></g><g class="vf-stavebarline" id="vf-auto3001"><rect x="505" y="69.5" width="1" height="41" stroke="none"/><rect x="508" y="69.5" width="3" height="41" stroke="none"/></g><g class="vf-stavenote" id="vf-auto2970"><g class="vf-stem" id="vf-auto2971" pointer-events="bounding-box"><path stroke-width="1.5" fill="none" d="M405.75 97L405.75 130"/></g><g class="vf-notehead" id="vf-auto2973" pointer-events="bounding-box"><path stroke="none" d="M408.145 101.543C408.426 101.599,408.678 101.627,408.959 101.627C412.834 101.627,418.619 96.348,418.506 92.08C418.394 91.041,418.422 89.609,416.316 88.766C415.727 88.485,415.081 88.373,414.379 88.373C410.054 88.373,405.365 93.343,405.028 96.657C405.028 96.909,405 97.134,405 97.387C405 99.409,405.899 101.037,408.145 101.543"/><path stroke="none" d="M411.863 91.099C412.931 90.305,412.794 89.047,412.958 87.952C413.341 85.161,413.943 82.343,414.408 79.525C414.463 79.252,414.49 78.951,414.49 78.677C414.49 77.911,414.299 77.063,413.97 76.324C413.587 75.421,412.876 74.901,412.082 74.901C411.535 74.901,410.988 75.093,410.523 75.585C409.894 76.16,409.1 76.68,409.018 77.692L409.018 77.856C409.401 79.717,409.401 81.605,409.757 83.465C410.195 85.818,410.441 88.253,411.316 90.551C411.371 90.743,411.535 90.934,411.645 91.099"/></g></g><g class="vf-stavenote" id="vf-auto2974"><path stroke-width="1.4" fill="none" stroke="#444" d="M421.873 60L441.381 60"/><g class="vf-stem" id="vf-auto2975" pointer-events="bounding-box"><path stroke-width="1.5" fill="none" d="M425.623 62L425.623 95"/></g><g class="vf-notehead" id="vf-auto2977" pointer-events="bounding-box"><path stroke="none" d="M428.018 66.543C428.299 66.599,428.551 66.627,428.832 66.627C432.707 66.627,438.492 61.348,438.379 57.08C438.267 56.041,438.295 54.609,436.189 53.766C435.6 53.485,434.954 53.373,434.252 53.373C429.927 53.373,425.238 58.343,424.901 61.657C424.901 61.909,424.873 62.134,424.873 62.387C424.873 64.409,425.772 66.037,428.018 66.543"/><path stroke="none" d="M431.736 48C432.804 47.207,432.667 45.948,432.831 44.854C433.214 42.063,433.816 39.245,434.281 36.427C434.336 36.153,434.363 35.852,434.363 35.579C434.363 34.812,434.172 33.964,433.843 33.226C433.46 32.323,432.749 31.803,431.955 31.803C431.408 31.803,430.861 31.994,430.396 32.487C429.767 33.061,428.973 33.581,428.891 34.594L428.891 34.758C429.274 36.618,429.274 38.506,429.63 40.367C430.068 42.72,430.314 45.155,431.189 47.453C431.244 47.644,431.408 47.836,431.518 48"/></g></g><g class="vf-stavenote" id="vf-auto2978"><g class="vf-stem" id="vf-auto2979" pointer-events="bounding-box"><path stroke-width="1.5" fill="none" d="M445.496 87L445.496 120"/></g><g class="vf-notehead" id="vf-auto2981" pointer-events="bounding-box"><path stroke="none" d="M447.891 91.543C448.172 91.599,448.424 91.627,448.705 91.627C452.58 91.627,458.365 86.348,458.252 82.08C458.14 81.041,458.168 79.609,456.062 78.766C455.473 78.485,454.827 78.373,454.125 78.373C449.8 78.373,445.111 83.343,444.774 86.657C444.774 86.909,444.746 87.134,444.746 87.387C444.746 89.409,445.645 91.037,447.891 91.543"/><path stroke="none" d="M451.172 143.197C451.719 143.197,452.266 143.006,452.731 142.513C453.36 141.939,454.154 141.419,454.236 140.406L454.236 140.242C453.853 138.382,453.853 136.494,453.497 134.633C453.06 132.28,452.813 129.845,451.965 127.547C451.883 127.356,451.719 127.164,451.609 127L451.391 127C450.351 127.793,450.46 129.052,450.296 130.146C449.913 132.937,449.311 135.755,448.846 138.573C448.791 138.847,448.764 139.148,448.764 139.421C448.764 140.188,448.956 141.036,449.284 141.774C449.667 142.677,450.378 143.197,451.172 143.197"/></g></g><g class="vf-stavenote" id="vf-auto2982"><path stroke-width="1.4" fill="none" stroke="#444" d="M461.619 60L481.127 60"/><g class="vf-stem" id="vf-auto2983" pointer-events="bounding-box"><path stroke-width="1.5" fill="none" d="M465.369 62L465.369 95"/></g><g class="vf-notehead" id="vf-auto2985" pointer-events="bounding-box"><path stroke="none" d="M467.764 66.543C468.045 66.599,468.297 66.627,468.578 66.627C472.453 66.627,478.238 61.348,478.125 57.08C478.013 56.041,478.041 54.609,475.935 53.766C475.345 53.485,474.7 53.373,473.998 53.373C469.673 53.373,464.984 58.343,464.647 61.657C464.647 61.909,464.619 62.134,464.619 62.387C464.619 64.409,465.517 66.037,467.764 66.543"/><path stroke="none" d="M471.045 115.099C471.592 115.099,472.139 114.907,472.604 114.415C473.233 113.84,474.027 113.32,474.109 112.308L474.109 112.144C473.726 110.283,473.726 108.395,473.37 106.535C472.932 104.182,472.686 101.747,471.838 99.449C471.756 99.257,471.592 99.066,471.482 98.901L471.264 98.901C470.224 99.695,470.333 100.953,470.169 102.048C469.786 104.839,469.184 107.657,468.719 110.475C468.664 110.748,468.637 111.049,468.637 111.323C468.637 112.089,468.828 112.937,469.157 113.676C469.54 114.579,470.251 115.099,471.045 115.099"/></g></g></svg>