<svg xmlns="http://www.w3.org/2000/svg" stroke-width="0.3" stroke-dasharray="none" fill="black" stroke="black" font-family="Arial, sans-serif" font-size="10pt" font-weight="normal" font-style="normal" width="1200" height="150" viewBox="0 0 1200 150" style="width: 1200px; height: 150px; border: none;"><g class="vf-stave" id="vf-auto7938" stroke-width="1" fill="#999999" stroke="#999999"><path fill="none" d="M10 60L310 60"/><path fill="none" d="M10 70L310 70"/><path fill="none" d="M10 80L310 80"/><path fill="none" d="M10 90L310 90"/><path fill="none" d="M10 100L310 100"/></g><g class="vf-stavebarline" id="vf-auto7939"><rect x="10" y="59.5" width="1" height="41" stroke="none"/></g><g class="vf-stavebarline" id="vf-auto7940"><rect x="310" y="59.5" width="1" height="41" stroke="none"/></g><g class="vf-stavenote" id="vf-auto7941"><g class="vf-stem" id="vf-auto7942" pointer-events="bounding-box"><path stroke-width="1.5" fill="none" d="M38.184 93L38.184 60"/></g><g class="vf-notehead" id="vf-auto7944" pointer-events="bounding-box"><path stroke="none" d="M30.931 100.054C34.525 100.054,38.934 96.741,38.934 93.315C38.934 91.237,37.305 89.946,35.003 89.946C30.566 89.946,27 93.231,27 96.685C27 98.791,28.741 100.054,30.931 100.054"/></g></g><g class="vf-stavenote" id="vf-auto7945"><g class="vf-stem" id="vf-auto7946" pointer-events="bounding-box"><path stroke-width="1.5" fill="none" d="M106.751 93L106.751 60"/></g><g class="vf-notehead" id="vf-auto7948" pointer-events="bounding-box"><path stroke="none" d="M99.498 100.054C103.093 100.054,107.501 96.741,107.501 93.315C107.501 91.237,105.873 89.946,103.57 89.946C99.133 89.946,95.567 93.231,95.567 96.685C95.567 98.791,97.308 100.054,99.498 100.054"/></g></g><g class="vf-stavenote" id="vf-auto7949"><g class="vf-stem" id="vf-auto7950" pointer-events="bounding-box"><path stroke-width="1.5" fill="none" d="M175.318 92.45L175.318 60"/></g><g class="vf-notehead" id="vf-auto7952" pointer-events="bounding-box"><path stroke="none" d="M168.066 100.054C174.721 100.054,176.068 94.635,176.068 93.315C176.068 91.237,174.412 89.946,172.053 89.946C166.044 89.946,164.134 94.607,164.134 96.685C164.134 98.847,165.819 100.054,168.066 100.054M167.167 98.51C166.325 98.51,165.819 98.061,165.538 97.583C165.426 97.359,165.314 97.05,165.314 96.769C165.314 94.803,171.182 91.602,173.064 91.602C173.85 91.602,174.271 91.967,174.58 92.445C174.692 92.697,174.805 92.95,174.805 93.231C174.805 94.972,169.105 98.51,167.167 98.51"/></g></g><g class="vf-stave" id="vf-auto7954" stroke-width="1" fill="#999999" stroke="#999999"><path fill="none" d="M310 60L610 60"/><path fill="none" d="M310 70L610 70"/><path fill="none" d="M310 80L610 80"/><path fill="none" d="M310 90L610 90"/><path fill="none" d="M310 100L610 100"/></g><g class="vf-stavebarline" id="vf-auto7955"><rect x="310" y="59.5" width="1" height="41" stroke="none"/></g><g class="vf-stavebarline" id="vf-auto7956"><rect x="610" y="59.5" width="1" height="41" stroke="none"/></g><g class="vf-stavenote" id="vf-auto7957"><g class="vf-notehead" id="vf-auto7960" pointer-events="bounding-box"><path stroke="none" d="M335.733 89.946C330.37 89.946,327 92.164,327 94.916C327 97.64,329.303 100.054,335.34 100.054C341.967 100.054,344.073 97.752,344.073 94.916C344.073 92.052,339.496 89.946,335.733 89.946M331.493 92.445C331.942 91.041,333.43 90.844,334.694 90.844C337.474 90.844,339.692 93.821,339.692 96.264C339.692 97.499,339.159 98.65,337.839 98.959C337.446 99.072,336.996 99.128,336.575 99.128C335.115 99.128,333.627 98.145,332.784 97.022C331.97 96.095,331.38 94.719,331.38 93.428C331.38 93.091,331.409 92.782,331.493 92.445"/></g></g><g class="vf-stave" id="vf-auto7962" stroke-width="1" fill="#999999" stroke="#999999"><path fill="none" d="M610 60L910 60"/><path fill="none" d="M610 70L910 70"/><path fill="none" d="M610 80L910 80"/><path fill="none" d="M610 90L910 90"/><path fill="none" d="M610 100L910 100"/></g><g class="vf-stavebarline" id="vf-auto7963"><rect x="610" y="59.5" width="1" height="41" stroke="none"/></g><g class="vf-stavebarline" id="vf-auto7964"><rect x="910" y="59.5" width="1" height="41" stroke="none"/></g><g class="vf-stavenote" id="vf-auto7965"><g class="vf-stem" id="vf-auto7966" pointer-events="bounding-box"><path stroke-width="1.5" fill="none" d="M638.184 93L638.184 60"/></g><g class="vf-notehead" id="vf-auto7968" pointer-events="bounding-box"><path stroke="none" d="M630.931 100.054C634.525 100.054,638.934 96.741,638.934 93.315C638.934 91.237,637.305 89.946,635.003 89.946C630.566 89.946,627 93.231,627 96.685C627 98.791,628.741 100.054,630.931 100.054"/></g></g><g class="vf-stavenote" id="vf-auto7969"><g class="vf-stem" id="vf-auto7970" pointer-events="bounding-box"><path stroke-width="1.5" fill="none" d="M724.539 93L724.539 60"/></g><g class="vf-notehead" id="vf-auto7972" pointer-events="bounding-box"><path stroke="none" d="M717.287 100.054C720.881 100.054,725.289 96.741,725.289 93.315C725.289 91.237,723.661 89.946,721.358 89.946C716.921 89.946,713.355 93.231,713.355 96.685C713.355 98.791,715.096 100.054,717.287 100.054"/></g></g><g class="vf-stavenote" id="vf-auto7973"><g class="vf-stem" id="vf-auto7974" pointer-events="bounding-box"><path stroke-width="1.5" fill="none" d="M810.895 93L810.895 60"/></g><g class="vf-notehead" id="vf-auto7976" pointer-events="bounding-box"><path stroke="none" d="M803.642 100.054C807.236 100.054,811.645 96.741,811.645 93.315C811.645 91.237,810.016 89.946,807.713 89.946C803.277 89.946,799.711 93.231,799.711 96.685C799.711 98.791,801.452 100.054,803.642 100.054"/></g></g><g class="vf-stave" id="vf-auto7978" stroke-width="1" fill="#999999" stroke="#999999"><path fill="none" d="M910 60L1210 60"/><path fill="none" d="M910 70L1210 70"/><path fill="none" d="M910 80L1210 80"/><path fill="none" d="M910 90L1210 90"/><path fill="none" d="M910 100L1210 100"/></g><g class="vf-stavebarline" id="vf-auto7979"><rect x="910" y="59.5" width="1" height="41" stroke="none"/></g><g class="vf-stavebarline" id="vf-auto7980"><rect x="1210" y="59.5" width="1" height="41" stroke="none"/></g><g class="vf-stavenote" id="vf-auto7981"><g class="vf-stem" id="vf-auto7982" pointer-events="bounding-box"><path stroke-width="1.5" fill="none" d="M938.184 93L938.184 63"/></g><g class="vf-notehead" id="vf-auto7985" pointer-events="bounding-box"><path stroke="none" d="M930.931 100.054C934.525 100.054,938.934 96.741,938.934 93.315C938.934 91.237,937.305 89.946,935.003 89.946C930.566 89.946,927 93.231,927 96.685C927 98.791,928.741 100.054,930.931 100.054"/></g><path stroke="none" d="M947.065 89.955C947.065 89.955,948.104 86.108,948.104 82.935C948.104 77.881,945.998 73.135,943.471 69.092C941.393 65.89,939.708 62.409,939.063 58.534C938.922 57.888,938.613 57.635,938.192 57.635C937.771 57.635,937.434 57.747,937.434 58.253L937.434 67.912C940.102 68.39,943.949 73.893,945.409 77.319C945.998 78.695,946.363 80.998,946.363 83.384C946.363 85.21,946.083 87.119,945.409 88.944C945.324 89.169,945.268 89.365,945.268 89.534C945.268 90.18,945.69 90.545,945.914 90.713C946.167 90.882,946.869 90.629,947.065 89.955"/></g><g class="vf-stavenote" id="vf-auto7987"><g class="vf-stem" id="vf-auto7988" pointer-events="bounding-box"><path stroke-width="1.5" fill="none" d="M985.404 93L985.404 63"/></g><g class="vf-notehead" id="vf-auto7991" pointer-events="bounding-box"><path stroke="none" d="M978.151 100.054C981.746 100.054,986.154 96.741,986.154 93.315C986.154 91.237,984.525 89.946,982.223 89.946C977.786 89.946,974.22 93.231,974.22 96.685C974.22 98.791,975.961 100.054,978.151 100.054"/></g><path stroke="none" d="M994.286 89.955C994.286 89.955,995.325 86.108,995.325 82.935C995.325 77.881,993.219 73.135,990.691 69.092C988.613 65.89,986.929 62.409,986.283 58.534C986.142 57.888,985.833 57.635,985.412 57.635C984.991 57.635,984.654 57.747,984.654 58.253L984.654 67.912C987.322 68.39,991.169 73.893,992.629 77.319C993.219 78.695,993.584 80.998,993.584 83.384C993.584 85.21,993.303 87.119,992.629 88.944C992.545 89.169,992.488 89.365,992.488 89.534C992.488 90.18,992.91 90.545,993.134 90.713C993.387 90.882,994.089 90.629,994.286 89.955"/></g><g class="vf-stavenote" id="vf-auto7993"><g class="vf-stem" id="vf-auto7994" pointer-events="bounding-box"><path stroke-width="1.5" fill="none" d="M1032.624 93L1032.624 63"/></g><g class="vf-notehead" id="vf-auto7997" pointer-events="bounding-box"><path stroke="none" d="M1025.371 100.054C1028.966 100.054,1033.374 96.741,1033.374 93.315C1033.374 91.237,1031.746 89.946,1029.443 89.946C1025.006 89.946,1021.44 93.231,1021.44 96.685C1021.44 98.791,1023.181 100.054,1025.371 100.054"/></g><path stroke="none" d="M1041.506 89.955C1041.506 89.955,1042.545 86.108,1042.545 82.935C1042.545 77.881,1040.439 73.135,1037.911 69.092C1035.834 65.89,1034.149 62.409,1033.503 58.534C1033.362 57.888,1033.054 57.635,1032.632 57.635C1032.211 57.635,1031.874 57.747,1031.874 58.253L1031.874 67.912C1034.542 68.39,1038.389 73.893,1039.849 77.319C1040.439 78.695,1040.804 80.998,1040.804 83.384C1040.804 85.21,1040.523 87.119,1039.849 88.944C1039.765 89.169,1039.709 89.365,1039.709 89.534C1039.709 90.18,1040.13 90.545,1040.354 90.713C1040.607 90.882,1041.309 90.629,1041.506 89.955"/></g><g class="vf-stavenote" id="vf-auto7999"><g class="vf-stem" id="vf-auto8000" pointer-events="bounding-box"><path stroke-width="1.5" fill="none" d="M1079.844 93L1079.844 63"/></g><g class="vf-notehead" id="vf-auto8003" pointer-events="bounding-box"><path stroke="none" d="M1072.592 100.054C1076.186 100.054,1080.594 96.741,1080.594 93.315C1080.594 91.237,1078.966 89.946,1076.663 89.946C1072.226 89.946,1068.66 93.231,1068.66 96.685C1068.66 98.791,1070.401 100.054,1072.592 100.054"/></g><path stroke="none" d="M1088.726 89.955C1088.726 89.955,1089.765 86.108,1089.765 82.935C1089.765 77.881,1087.659 73.135,1085.132 69.092C1083.054 65.89,1081.369 62.409,1080.723 58.534C1080.583 57.888,1080.274 57.635,1079.852 57.635C1079.431 57.635,1079.094 57.747,1079.094 58.253L1079.094 67.912C1081.762 68.39,1085.609 73.893,1087.069 77.319C1087.659 78.695,1088.024 80.998,1088.024 83.384C1088.024 85.21,1087.743 87.119,1087.069 88.944C1086.985 89.169,1086.929 89.365,1086.929 89.534C1086.929 90.18,1087.35 90.545,1087.574 90.713C1087.827 90.882,1088.529 90.629,1088.726 89.955"/></g><g class="vf-stavenote" id="vf-auto8005"><g class="vf-stem" id="vf-auto8006" pointer-events="bounding-box"><path stroke-width="1.5" fill="none" d="M1127.064 93L1127.064 63"/></g><g class="vf-notehead" id="vf-auto8009" pointer-events="bounding-box"><path stroke="none" d="M1119.812 100.054C1123.406 100.054,1127.814 96.741,1127.814 93.315C1127.814 91.237,1126.186 89.946,1123.883 89.946C1119.447 89.946,1115.88 93.231,1115.88 96.685C1115.88 98.791,1117.621 100.054,1119.812 100.054"/></g><path stroke="none" d="M1135.946 89.955C1135.946 89.955,1136.985 86.108,1136.985 82.935C1136.985 77.881,1134.879 73.135,1132.352 69.092C1130.274 65.89,1128.589 62.409,1127.943 58.534C1127.803 57.888,1127.494 57.635,1127.073 57.635C1126.651 57.635,1126.314 57.747,1126.314 58.253L1126.314 67.912C1128.982 68.39,1132.829 73.893,1134.289 77.319C1134.879 78.695,1135.244 80.998,1135.244 83.384C1135.244 85.21,1134.963 87.119,1134.289 88.944C1134.205 89.169,1134.149 89.365,1134.149 89.534C1134.149 90.18,1134.57 90.545,1134.795 90.713C1135.047 90.882,1135.749 90.629,1135.946 89.955"/></g><g class="vf-stavenote" id="vf-auto8011"><g class="vf-stem" id="vf-auto8012" pointer-events="bounding-box"><path stroke-width="1.5" fill="none" d="M1174.285 93L1174.285 63"/></g><g class="vf-notehead" id="vf-auto8015" pointer-events="bounding-box"><path stroke="none" d="M1167.032 100.054C1170.626 100.054,1175.035 96.741,1175.035 93.315C1175.035 91.237,1173.406 89.946,1171.103 89.946C1166.667 89.946,1163.101 93.231,1163.101 96.685C1163.101 98.791,1164.842 100.054,1167.032 100.054"/></g><path stroke="none" d="M1183.166 89.955C1183.166 89.955,1184.205 86.108,1184.205 82.935C1184.205 77.881,1182.099 73.135,1179.572 69.092C1177.494 65.89,1175.809 62.409,1175.163 58.534C1175.023 57.888,1174.714 57.635,1174.293 57.635C1173.872 57.635,1173.535 57.747,1173.535 58.253L1173.535 67.912C1176.202 68.39,1180.049 73.893,1181.509 77.319C1182.099 78.695,1182.464 80.998,1182.464 83.384C1182.464 85.21,1182.183 87.119,1181.509 88.944C1181.425 89.169,1181.369 89.365,1181.369 89.534C1181.369 90.18,1181.79 90.545,1182.015 90.713C1182.267 90.882,1182.969 90.629,1183.166 89.955"/></g></svg>