<svg xmlns="http://www.w3.org/2000/svg" stroke-width="0.3" stroke-dasharray="none" fill="black" stroke="black" font-family="Arial, sans-serif" font-size="10pt" font-weight="normal" font-style="normal" width="600" height="160" viewBox="0 0 666.6666666666666 177.77777777777777" style="width: 600px; height: 160px; border: none;"><g class="vf-stave" id="vf-auto25090" stroke-width="1" fill="#999999" stroke="#999999" font-family="Arial"><path fill="none" d="M10 70L610 70"/><path fill="none" d="M10 80L610 80"/><path fill="none" d="M10 90L610 90"/><path fill="none" d="M10 100L610 100"/><path fill="none" d="M10 110L610 110"/></g><g class="vf-stavebarline" id="vf-auto25091" font-family="Arial"><rect x="10" y="69.5" width="1" height="41" stroke="none"/></g><g class="vf-stavebarline" id="vf-auto25092" font-family="Arial"><rect x="610" y="69.5" width="1" height="41" stroke="none"/></g><g class="vf-clef" id="vf-auto25093" font-family="Arial"><path stroke="none" d="M28.711 85.844C28.66 85.413,28.711 85.388,28.939 85.16C32.893 81.485,35.883 76.847,35.883 71.246C35.883 68.078,34.996 64.935,33.501 62.756C32.944 61.945,32.006 60.931,31.6 60.931C31.093 60.931,29.953 61.869,29.243 62.68C26.532 65.67,25.644 70.232,25.644 74.034C25.644 76.138,25.923 78.52,26.177 80.015C26.253 80.446,26.278 80.522,25.847 80.902C20.576 85.236,15 90.457,15 97.832C15 104.168,19.334 110.2,28.28 110.2C29.117 110.2,30.08 110.124,30.815 109.972C31.195 109.896,31.271 109.87,31.347 110.301C31.778 112.76,32.335 115.928,32.335 117.651C32.335 123.049,28.686 123.708,26.532 123.708C24.555 123.708,23.617 123.125,23.617 122.644C23.617 122.39,23.946 122.289,24.783 122.01C25.923 121.681,27.216 120.718,27.216 118.589C27.216 116.587,25.949 114.863,23.718 114.863C21.285 114.863,19.815 116.815,19.815 119.07C19.815 121.427,21.235 125.026,26.76 125.026C29.193 125.026,33.932 123.911,33.932 117.727C33.932 115.623,33.273 112.177,32.893 109.896C32.817 109.465,32.842 109.516,33.349 109.287C37.049 107.818,39.482 104.726,39.482 100.594C39.482 95.931,36.061 91.8,30.688 91.8C29.75 91.8,29.75 91.8,29.623 91.141M32.158 66.583C33.349 66.583,34.337 67.571,34.337 69.573C34.337 73.628,30.865 76.923,28.001 79.432C27.748 79.66,27.596 79.61,27.52 79.128C27.368 78.19,27.292 76.949,27.292 75.783C27.292 70.08,29.928 66.583,32.158 66.583M28.179 91.445C28.28 92.13,28.28 92.104,27.621 92.307C24.428 93.397,22.324 96.286,22.324 99.403C22.324 102.673,24.048 105.004,26.532 105.866C26.836 105.967,27.266 106.069,27.52 106.069C27.799 106.069,27.951 105.891,27.951 105.663C27.951 105.41,27.672 105.308,27.419 105.207C25.873 104.548,24.783 102.977,24.783 101.304C24.783 99.201,26.202 97.655,28.432 97.021C29.015 96.869,29.091 96.92,29.167 97.325L30.992 108.198C31.068 108.603,31.017 108.603,30.485 108.705C29.902 108.806,29.167 108.882,28.432 108.882C22.046 108.882,17.915 105.334,17.915 100.265C17.915 98.111,18.295 95.222,21.311 91.8C23.516 89.367,25.188 87.999,26.886 86.63C27.266 86.326,27.343 86.377,27.419 86.757M30.688 97.249C30.612 96.793,30.663 96.692,31.093 96.742C34.059 96.996,36.492 99.479,36.492 102.673C36.492 104.979,35.098 106.829,33.07 107.868C32.639 108.071,32.563 108.071,32.487 107.64"/></g><g class="vf-timesignature" id="vf-auto25094" font-family="Arial"><path stroke="none" d="M67.236 82.619L67.236 75.055C67.236 74.786,67.212 74.468,66.82 74.468C66.502 74.468,66.331 74.541,66.11 74.786L62.757 78.825C62.634 79.021,62.438 79.217,62.438 79.657L62.438 82.619L57.689 82.619C60.504 80.22,66.159 72.215,66.257 71.775L66.282 71.677C66.282 71.359,66.037 71.163,65.768 71.163C65.449 71.163,64.005 71.212,63.369 71.212C62.732 71.212,61.141 71.163,60.872 71.163C60.553 71.163,60.064 71.261,60.064 71.824C60.064 76.181,56.588 81.102,55.535 82.57L55.339 82.864C55.339 82.864,55.339 82.889,55.339 82.889L55.29 82.938C55.217 83.109,55.192 83.231,55.192 83.354C55.192 83.696,55.462 83.941,55.902 83.941L62.438 83.941L62.438 86.169C62.438 87.124,61.679 87.393,61.043 87.393C60.48 87.393,60.235 87.711,60.235 88.078C60.235 88.421,60.358 88.813,60.896 88.813L68.411 88.813C68.754 88.813,69.121 88.568,69.121 88.078C69.121 87.589,68.681 87.368,68.338 87.368C67.995 87.368,67.236 87.148,67.236 86.022L67.236 83.941L69.807 83.941C70.174 83.941,70.345 83.696,70.345 83.28C70.345 82.864,70.198 82.619,69.807 82.619"/><path stroke="none" d="M67.236 102.619L67.236 95.055C67.236 94.786,67.212 94.468,66.82 94.468C66.502 94.468,66.331 94.541,66.11 94.786L62.757 98.825C62.634 99.021,62.438 99.217,62.438 99.657L62.438 102.619L57.689 102.619C60.504 100.22,66.159 92.215,66.257 91.775L66.282 91.677C66.282 91.359,66.037 91.163,65.768 91.163C65.449 91.163,64.005 91.212,63.369 91.212C62.732 91.212,61.141 91.163,60.872 91.163C60.553 91.163,60.064 91.261,60.064 91.824C60.064 96.181,56.588 101.102,55.535 102.57L55.339 102.864C55.339 102.864,55.339 102.889,55.339 102.889L55.29 102.938C55.217 103.109,55.192 103.231,55.192 103.354C55.192 103.696,55.462 103.941,55.902 103.941L62.438 103.941L62.438 106.169C62.438 107.124,61.679 107.393,61.043 107.393C60.48 107.393,60.235 107.711,60.235 108.078C60.235 108.421,60.358 108.813,60.896 108.813L68.411 108.813C68.754 108.813,69.121 108.568,69.121 108.078C69.121 107.589,68.681 107.368,68.338 107.368C67.995 107.368,67.236 107.148,67.236 106.022L67.236 103.941L69.807 103.941C70.174 103.941,70.345 103.696,70.345 103.28C70.345 102.864,70.198 102.619,69.807 102.619"/></g><g class="vf-stavenote" id="vf-auto25098" font-family="Arial"><g class="vf-notehead" id="vf-auto25176" pointer-events="bounding-box"><path stroke="none" d="M84.458 106.386C85.037 107.117,85.567 107.797,86.02 108.553C86.096 108.704,86.247 108.982,86.247 109.057C86.247 109.108,86.247 109.183,86.197 109.208C86.146 109.36,85.995 109.385,85.819 109.385C85.667 109.385,85.365 109.309,85.239 109.284C85.189 109.284,85.113 109.284,85.088 109.284L84.785 109.183C82.895 109.183,81.661 110.872,81.661 112.661C81.661 114.475,83.223 116.239,85.869 118.28C86.171 118.507,86.524 118.608,86.827 118.608C87.079 118.608,87.331 118.532,87.381 118.381C87.406 118.28,87.431 118.205,87.431 118.129C87.431 117.802,87.154 117.524,86.852 117.272C86.398 117.272,85.995 116.29,85.919 115.962C85.819 115.66,85.768 115.332,85.768 115.004C85.768 113.518,86.524 112.358,88.061 112.358C89.12 112.358,90.304 112.762,90.934 112.988L90.959 113.014C91.111 113.064,91.186 113.064,91.262 113.064C91.363 113.064,91.438 113.014,91.438 112.913C91.438 112.484,90.481 111.275,90.103 110.846C88.717 109.183,87.583 107.822,87.583 105.806C87.583 105.756,87.583 105.731,87.583 105.68L87.633 105.428C87.633 105.403,87.633 105.353,87.633 105.328C87.759 103.211,89.069 101.472,90.027 99.985C90.128 99.809,90.153 99.632,90.153 99.456C90.153 99.078,90.027 98.75,90.027 98.75C90.027 98.75,84.659 92.375,84.029 91.745C83.853 91.568,83.601 91.468,83.374 91.468C83.021 91.468,82.643 91.72,82.643 92.224C82.643 92.4,82.694 92.602,82.795 92.803C82.946 93.206,85.012 95.046,85.012 97.667C85.012 99.002,84.458 100.565,82.845 102.278C82.467 102.631,82.316 103.034,82.316 103.337C82.316 103.841,82.694 104.194,82.694 104.194"/></g></g><g class="vf-stavenote" id="vf-auto25102" font-family="Arial"><g class="vf-notehead" id="vf-auto25177" pointer-events="bounding-box"><path stroke="none" d="M119.412 106.386C119.991 107.117,120.521 107.797,120.974 108.553C121.05 108.704,121.201 108.982,121.201 109.057C121.201 109.108,121.201 109.183,121.151 109.208C121.1 109.36,120.949 109.385,120.773 109.385C120.621 109.385,120.319 109.309,120.193 109.284C120.143 109.284,120.067 109.284,120.042 109.284L119.739 109.183C117.849 109.183,116.615 110.872,116.615 112.661C116.615 114.475,118.177 116.239,120.823 118.28C121.125 118.507,121.478 118.608,121.781 118.608C122.033 118.608,122.285 118.532,122.335 118.381C122.36 118.28,122.385 118.205,122.385 118.129C122.385 117.802,122.108 117.524,121.806 117.272C121.352 117.272,120.949 116.29,120.873 115.962C120.773 115.66,120.722 115.332,120.722 115.004C120.722 113.518,121.478 112.358,123.015 112.358C124.074 112.358,125.258 112.762,125.888 112.988L125.913 113.014C126.065 113.064,126.14 113.064,126.216 113.064C126.317 113.064,126.392 113.014,126.392 112.913C126.392 112.484,125.435 111.275,125.057 110.846C123.671 109.183,122.537 107.822,122.537 105.806C122.537 105.756,122.537 105.731,122.537 105.68L122.587 105.428C122.587 105.403,122.587 105.353,122.587 105.328C122.713 103.211,124.023 101.472,124.981 99.985C125.082 99.809,125.107 99.632,125.107 99.456C125.107 99.078,124.981 98.75,124.981 98.75C124.981 98.75,119.613 92.375,118.983 91.745C118.807 91.568,118.555 91.468,118.328 91.468C117.975 91.468,117.597 91.72,117.597 92.224C117.597 92.4,117.648 92.602,117.749 92.803C117.9 93.206,119.966 95.046,119.966 97.667C119.966 99.002,119.412 100.565,117.799 102.278C117.421 102.631,117.27 103.034,117.27 103.337C117.27 103.841,117.648 104.194,117.648 104.194"/></g></g><g class="vf-stavenote" id="vf-auto25106" font-family="Arial"><g class="vf-stem" id="vf-auto25107" pointer-events="bounding-box"><path stroke-width="1.5" fill="none" d="M152.294 107L152.294 140"/></g><g class="vf-notehead" id="vf-auto25109" pointer-events="bounding-box"><path stroke="none" d="M155.475 110.054C159.069 110.054,163.478 106.741,163.478 103.315C163.478 101.237,161.849 99.946,159.546 99.946C155.11 99.946,151.544 103.231,151.544 106.685C151.544 108.791,153.285 110.054,155.475 110.054"/></g></g><g class="vf-stavenote" id="vf-auto25110" font-family="Arial"><g class="vf-stem" id="vf-auto25111" pointer-events="bounding-box"><path stroke-width="1.5" fill="none" d="M187.248 77L187.248 107"/></g><g class="vf-notehead" id="vf-auto25114" pointer-events="bounding-box"><path stroke="none" d="M190.429 80.054C194.023 80.054,198.432 76.741,198.432 73.315C198.432 71.237,196.803 69.946,194.5 69.946C190.064 69.946,186.498 73.231,186.498 76.685C186.498 78.791,188.239 80.054,190.429 80.054"/></g><path stroke="none" d="M196.213 81.28C196.775 82.965,197.056 84.987,197.056 86.812C197.056 89.199,196.045 92.597,195.427 93.973C193.939 97.37,191.917 100.628,186.498 102.453L186.498 111.972C186.498 112.365,186.835 112.562,187.143 112.562C187.509 112.562,188.042 112.337,188.126 111.663C188.8 107.844,191.805 104.306,193.855 101.133C196.41 97.118,198.881 92.316,198.881 87.262C198.881 84.088,198.067 81.224,197.73 79.933C197.617 79.483,197.365 79.315,197.084 79.315C196.494 79.315,195.792 80.101,196.213 81.28"/></g><g class="vf-stavenote" id="vf-auto25116" font-family="Arial"><g class="vf-notehead" id="vf-auto25178" pointer-events="bounding-box"><path stroke="none" d="M223.673 60.676C223.673 59.187,222.466 57.952,220.95 57.952C219.461 57.952,218.254 59.187,218.254 60.676C218.254 61.518,218.731 62.248,219.349 62.726C219.995 63.175,220.753 63.428,221.539 63.428C222.101 63.428,222.663 63.315,223.112 63.147C223.673 62.978,224.039 62.81,224.572 62.529C224.656 62.501,224.712 62.501,224.769 62.501C224.937 62.501,224.965 62.641,224.965 62.866C224.965 62.978,224.965 63.147,224.937 63.315C224.797 63.905,221.904 71.964,221.174 74.631C221.174 75.109,222.101 75.137,222.326 75.137C222.775 75.137,223.337 75.081,223.758 74.744C223.87 74.66,227.829 60.479,227.829 60.479C227.998 59.749,228.194 59.103,228.251 58.907C228.251 58.485,227.829 58.289,227.745 58.261C227.689 58.261,227.549 58.261,227.324 58.401C227.015 58.654,224.993 61.069,223.673 61.069"/></g></g><g class="vf-stavenote" id="vf-auto25120" font-family="Arial"><path stroke-width="1.4" fill="none" stroke="#444" d="M247.01 60L264.944 60"/><g class="vf-notehead" id="vf-auto25124" pointer-events="bounding-box"><path stroke="none" d="M253.942 65.054C257.536 65.054,261.944 61.741,261.944 58.315C261.944 56.237,260.316 54.946,258.013 54.946C253.577 54.946,250.01 58.231,250.01 61.685C250.01 63.791,251.751 65.054,253.942 65.054"/></g></g><g class="vf-stavenote" id="vf-auto25126" font-family="Arial"><g class="vf-notehead" id="vf-auto25179" pointer-events="bounding-box"><path stroke="none" d="M287.186 70.676C287.186 69.187,285.979 67.952,284.462 67.952C282.974 67.952,281.767 69.187,281.767 70.676C281.767 71.518,282.244 72.248,282.862 72.726C283.508 73.175,284.266 73.428,285.052 73.428C285.614 73.428,286.175 73.315,286.625 73.147C287.186 72.978,287.551 72.81,288.085 72.529C288.169 72.501,288.225 72.501,288.281 72.501C288.45 72.501,288.478 72.641,288.478 72.866C288.478 72.978,288.478 73.147,288.45 73.315C288.309 73.905,285.417 81.964,284.687 84.631C284.687 85.109,285.614 85.137,285.838 85.137C286.288 85.137,286.849 85.081,287.27 84.744C287.383 84.66,291.342 70.479,291.342 70.479C291.511 69.749,291.707 69.103,291.763 68.907C291.763 68.485,291.342 68.289,291.258 68.261C291.202 68.261,291.061 68.261,290.837 68.401C290.528 68.654,288.506 71.069,287.186 71.069"/></g></g><g class="vf-stavenote" id="vf-auto25130" font-family="Arial"><g class="vf-notehead" id="vf-auto25134" pointer-events="bounding-box"><path stroke="none" d="M317.454 95.054C321.049 95.054,325.457 91.741,325.457 88.315C325.457 86.237,323.829 84.946,321.526 84.946C317.089 84.946,313.523 88.231,313.523 91.685C313.523 93.791,315.264 95.054,317.454 95.054"/></g></g><g class="vf-stavenote" id="vf-auto25136" font-family="Arial"><g class="vf-notehead" id="vf-auto25140" pointer-events="bounding-box"><path stroke="none" d="M349.211 80.054C352.805 80.054,357.214 76.741,357.214 73.315C357.214 71.237,355.585 69.946,353.282 69.946C348.846 69.946,345.28 73.231,345.28 76.685C345.28 78.791,347.021 80.054,349.211 80.054"/></g></g><g class="vf-stavenote" id="vf-auto25142" font-family="Arial"><path stroke-width="1.4" fill="none" stroke="#444" d="M374.036 60L391.97 60"/><g class="vf-stem" id="vf-auto25143" pointer-events="bounding-box"><path stroke-width="1.5" fill="none" d="M388.22 58L388.22 25"/></g><g class="vf-notehead" id="vf-auto25145" pointer-events="bounding-box"><path stroke="none" d="M380.967 65.054C384.561 65.054,388.97 61.741,388.97 58.315C388.97 56.237,387.341 54.946,385.039 54.946C380.602 54.946,377.036 58.231,377.036 61.685C377.036 63.791,378.777 65.054,380.967 65.054"/></g></g><g class="vf-stavenote" id="vf-auto25146" font-family="Arial"><g class="vf-notehead" id="vf-auto25172" pointer-events="bounding-box"><path stroke="none" d="M412.647 56.386C413.226 57.117,413.756 57.797,414.209 58.553C414.285 58.704,414.436 58.982,414.436 59.057C414.436 59.108,414.436 59.183,414.386 59.208C414.335 59.36,414.184 59.385,414.008 59.385C413.856 59.385,413.554 59.309,413.428 59.284C413.378 59.284,413.302 59.284,413.277 59.284L412.974 59.183C411.084 59.183,409.85 60.872,409.85 62.661C409.85 64.475,411.412 66.239,414.058 68.28C414.36 68.507,414.713 68.608,415.016 68.608C415.268 68.608,415.52 68.532,415.57 68.381C415.595 68.28,415.62 68.205,415.62 68.129C415.62 67.802,415.343 67.524,415.041 67.272C414.587 67.272,414.184 66.29,414.108 65.962C414.008 65.66,413.957 65.332,413.957 65.004C413.957 63.518,414.713 62.358,416.25 62.358C417.309 62.358,418.493 62.762,419.123 62.988L419.148 63.014C419.3 63.064,419.375 63.064,419.451 63.064C419.552 63.064,419.627 63.014,419.627 62.913C419.627 62.484,418.67 61.275,418.292 60.846C416.906 59.183,415.772 57.822,415.772 55.806C415.772 55.756,415.772 55.731,415.772 55.68L415.822 55.428C415.822 55.403,415.822 55.353,415.822 55.328C415.948 53.211,417.258 51.472,418.216 49.985C418.317 49.809,418.342 49.632,418.342 49.456C418.342 49.078,418.216 48.75,418.216 48.75C418.216 48.75,412.848 42.375,412.218 41.745C412.042 41.568,411.79 41.468,411.563 41.468C411.21 41.468,410.832 41.72,410.832 42.224C410.832 42.4,410.883 42.602,410.984 42.803C411.135 43.206,413.201 45.046,413.201 47.667C413.201 49.002,412.647 50.565,411.034 52.278C410.656 52.631,410.505 53.034,410.505 53.337C410.505 53.841,410.883 54.194,410.883 54.194"/></g></g><g class="vf-stavenote" id="vf-auto25150" font-family="Arial"><path stroke-width="1.4" fill="none" stroke="#444" d="M439.613 60L457.547 60"/><g class="vf-stem" id="vf-auto25151" pointer-events="bounding-box"><path stroke-width="1.5" fill="none" d="M453.797 53L453.797 20"/></g><g class="vf-notehead" id="vf-auto25153" pointer-events="bounding-box"><path stroke="none" d="M446.544 60.054C450.138 60.054,454.547 56.741,454.547 53.315C454.547 51.237,452.918 49.946,450.616 49.946C446.179 49.946,442.613 53.231,442.613 56.685C442.613 58.791,444.354 60.054,446.544 60.054"/></g></g><g class="vf-stavenote" id="vf-auto25154" font-family="Arial"><g class="vf-stem" id="vf-auto25155" pointer-events="bounding-box"><path stroke-width="1.5" fill="none" d="M476.151 82L476.151 115"/></g><g class="vf-notehead" id="vf-auto25157" pointer-events="bounding-box"><path stroke="none" d="M479.332 85.054C482.927 85.054,487.335 81.741,487.335 78.315C487.335 76.237,485.706 74.946,483.404 74.946C478.967 74.946,475.401 78.231,475.401 81.685C475.401 83.791,477.142 85.054,479.332 85.054"/></g></g><g class="vf-stavenote" id="vf-auto25158" font-family="Arial"><g class="vf-stem" id="vf-auto25159" pointer-events="bounding-box"><path stroke-width="1.5" fill="none" d="M511.105 67L511.105 100"/></g><g class="vf-notehead" id="vf-auto25161" pointer-events="bounding-box"><path stroke="none" d="M514.286 70.054C517.881 70.054,522.289 66.741,522.289 63.315C522.289 61.237,520.661 59.946,518.358 59.946C513.921 59.946,510.355 63.231,510.355 66.685C510.355 68.791,512.096 70.054,514.286 70.054"/></g></g><g class="vf-stavenote" id="vf-auto25162" font-family="Arial"><g class="vf-notehead" id="vf-auto25180" pointer-events="bounding-box"><path stroke="none" d="M548.132 66.386C548.711 67.117,549.24 67.797,549.694 68.553C549.77 68.704,549.921 68.982,549.921 69.057C549.921 69.108,549.921 69.183,549.87 69.208C549.82 69.36,549.669 69.385,549.492 69.385C549.341 69.385,549.039 69.309,548.913 69.284C548.862 69.284,548.787 69.284,548.762 69.284L548.459 69.183C546.569 69.183,545.334 70.872,545.334 72.661C545.334 74.475,546.897 76.239,549.543 78.28C549.845 78.507,550.198 78.608,550.5 78.608C550.752 78.608,551.004 78.532,551.055 78.381C551.08 78.28,551.105 78.205,551.105 78.129C551.105 77.802,550.828 77.524,550.526 77.272C550.072 77.272,549.669 76.29,549.593 75.962C549.492 75.66,549.442 75.332,549.442 75.004C549.442 73.518,550.198 72.358,551.735 72.358C552.794 72.358,553.978 72.762,554.608 72.988L554.633 73.014C554.784 73.064,554.86 73.064,554.936 73.064C555.036 73.064,555.112 73.014,555.112 72.913C555.112 72.484,554.154 71.275,553.776 70.846C552.39 69.183,551.256 67.822,551.256 65.806C551.256 65.756,551.256 65.731,551.256 65.68L551.307 65.428C551.307 65.403,551.307 65.353,551.307 65.328C551.433 63.211,552.743 61.472,553.701 59.985C553.802 59.809,553.827 59.632,553.827 59.456C553.827 59.078,553.701 58.75,553.701 58.75C553.701 58.75,548.333 52.375,547.703 51.745C547.527 51.568,547.275 51.468,547.048 51.468C546.695 51.468,546.317 51.72,546.317 52.224C546.317 52.4,546.368 52.602,546.468 52.803C546.62 53.206,548.686 55.046,548.686 57.667C548.686 59.002,548.132 60.565,546.519 62.278C546.141 62.631,545.99 63.034,545.99 63.337C545.99 63.841,546.368 64.194,546.368 64.194"/></g></g><g class="vf-stavenote" id="vf-auto25166" font-family="Arial"><g class="vf-notehead" id="vf-auto25181" pointer-events="bounding-box"><path stroke="none" d="M583.086 66.386C583.665 67.117,584.195 67.797,584.648 68.553C584.724 68.704,584.875 68.982,584.875 69.057C584.875 69.108,584.875 69.183,584.825 69.208C584.774 69.36,584.623 69.385,584.447 69.385C584.295 69.385,583.993 69.309,583.867 69.284C583.817 69.284,583.741 69.284,583.716 69.284L583.413 69.183C581.523 69.183,580.289 70.872,580.289 72.661C580.289 74.475,581.851 76.239,584.497 78.28C584.799 78.507,585.152 78.608,585.455 78.608C585.707 78.608,585.959 78.532,586.009 78.381C586.034 78.28,586.059 78.205,586.059 78.129C586.059 77.802,585.782 77.524,585.48 77.272C585.026 77.272,584.623 76.29,584.547 75.962C584.447 75.66,584.396 75.332,584.396 75.004C584.396 73.518,585.152 72.358,586.689 72.358C587.748 72.358,588.932 72.762,589.562 72.988L589.587 73.014C589.739 73.064,589.814 73.064,589.89 73.064C589.991 73.064,590.066 73.014,590.066 72.913C590.066 72.484,589.109 71.275,588.731 70.846C587.345 69.183,586.211 67.822,586.211 65.806C586.211 65.756,586.211 65.731,586.211 65.68L586.261 65.428C586.261 65.403,586.261 65.353,586.261 65.328C586.387 63.211,587.697 61.472,588.655 59.985C588.756 59.809,588.781 59.632,588.781 59.456C588.781 59.078,588.655 58.75,588.655 58.75C588.655 58.75,583.287 52.375,582.657 51.745C582.481 51.568,582.229 51.468,582.002 51.468C581.649 51.468,581.271 51.72,581.271 52.224C581.271 52.4,581.322 52.602,581.423 52.803C581.574 53.206,583.64 55.046,583.64 57.667C583.64 59.002,583.086 60.565,581.473 62.278C581.095 62.631,580.944 63.034,580.944 63.337C580.944 63.841,581.322 64.194,581.322 64.194"/></g></g><rect x="372.036" y="10" width="34.415" height="1" stroke="none"/><rect x="425.132" y="10" width="34.415" height="1" stroke="none"/><rect x="372.036" y="10" width="1" height="10" stroke="none"/><rect x="459.547" y="10" width="1" height="10" stroke="none"/><path stroke="none" d="M416.314 3.678C416.282 3.678,416.267 3.678,416.219 3.678L416.061 3.647C416.029 3.647,415.997 3.647,415.966 3.647C414.001 3.647,412.037 4.961,412.037 6.165C412.037 6.91,412.481 7.924,413.891 8.003L414.001 8.003C415.015 8.003,415.506 7.274,415.506 6.53L415.506 6.34C415.443 5.5,414.873 5.453,414.762 5.405C414.651 5.357,414.302 5.405,414.302 5.088L414.302 4.993C414.35 4.613,415.063 4.423,415.253 4.423C417.201 4.423,417.375 5.643,417.375 6.181L417.375 6.34C417.375 8.034,416.029 8.7,414.603 8.763C414.366 8.779,414.049 8.906,414.049 9.143C414.049 9.428,414.445 9.428,414.619 9.428C417.249 9.428,417.455 11.202,417.455 11.503C417.455 13.911,416.219 14.196,415.712 14.196C415.633 14.196,415.538 14.165,415.506 14.165C415.332 14.149,414.888 14.149,414.873 13.8L414.873 13.689C414.873 13.182,415.38 12.85,415.395 12.185C415.395 11.234,414.73 10.537,413.748 10.537C413.669 10.537,413.59 10.537,413.51 10.569C413.114 10.632,412.687 10.854,412.402 11.155C412.021 11.503,411.911 12.042,411.911 12.549C411.958 14.323,413.574 15.02,415.807 15.052L416.013 15.052C418.278 15.052,420.591 13.895,420.591 11.884L420.591 11.725C420.559 11.06,420.385 10.632,419.957 10.125C419.815 9.951,419.64 9.793,419.419 9.65L418.928 9.381L418.183 9.175C418.072 9.143,417.993 9.143,417.946 9.064C417.93 9.017,417.93 8.985,417.93 8.953C417.93 8.858,417.946 8.763,418.025 8.747C418.278 8.668,418.516 8.652,418.722 8.541C419.64 8.098,420.116 7.512,420.116 6.466C420.116 4.36,417.264 3.742,416.314 3.678"/><g class="vf-stem" id="vf-auto25121" pointer-events="bounding-box" font-family="Arial"><path stroke-width="1.5" fill="none" d="M250.76 62L250.76 119.487"/></g><g class="vf-stem" id="vf-auto25131" pointer-events="bounding-box" font-family="Arial"><path stroke-width="1.5" fill="none" d="M314.273 92L314.273 124.25"/></g><g class="vf-stem" id="vf-auto25137" pointer-events="bounding-box" font-family="Arial"><path stroke-width="1.5" fill="none" d="M346.03 77L346.03 126.632"/></g><g class="vf-beam" id="vf-auto25170" font-family="Arial"><path stroke="none" d="M250.01 120.18L250.01 115.18L346.28 122.325L346.28 127.325Z"/></g></svg>