<svg xmlns="http://www.w3.org/2000/svg" stroke-width="0.3" stroke-dasharray="none" fill="black" stroke="black" font-family="Arial, sans-serif" font-size="10pt" font-weight="normal" font-style="normal" width="300" height="140" viewBox="0 0 300 140" style="width: 300px; height: 140px; border: none;"><g class="vf-stave" id="vf-auto18553" stroke-width="1" fill="#999999" stroke="#999999"><path fill="none" d="M0 40L290 40"/><path fill="none" d="M0 50L290 50"/><path fill="none" d="M0 60L290 60"/><path fill="none" d="M0 70L290 70"/><path fill="none" d="M0 80L290 80"/></g><g class="vf-stavebarline" id="vf-auto18554"><rect y="39.5" width="1" height="41" stroke="none"/></g><g class="vf-stavebarline" id="vf-auto18555"><rect x="290" y="39.5" width="1" height="41" stroke="none"/></g><g class="vf-stavenote" id="vf-auto18556"><path stroke-width="1.4" fill="none" stroke="#444" d="M50.46 90L69.966 90"/><g class="vf-stem" id="vf-auto18557" pointer-events="bounding-box"><path stroke-width="1.5" fill="none" d="M54.21 66.8L54.21 125"/></g><g class="vf-notehead" id="vf-auto18566" pointer-events="bounding-box"><path stroke="none" d="M66.938 88.428C66.882 93.229,62.754 97.048,58.149 97.048C57.475 97.048,56.773 96.964,56.099 96.795C54.667 96.43,54.021 95.391,53.713 93.959C53.544 93.229,53.46 92.555,53.46 91.909C53.46 87.332,57.026 84.384,61.435 83.008C61.575 82.952,61.8 82.924,61.996 82.924C63.962 82.924,66.966 85.226,66.966 87.81C66.966 88.006,66.966 88.231,66.938 88.428M59.441 92.864C61.154 92.274,63.035 91.348,64.664 89.832C64.692 89.803,64.748 89.635,64.748 89.523C64.748 89.382,64.692 89.27,64.664 89.242C63.934 88.512,63.372 87.529,62.193 87.36C62.024 87.332,61.884 87.332,61.659 87.332C59.918 87.332,58.542 88.456,57.11 89.242C56.212 89.747,55.201 90.814,55.397 91.741C55.594 92.752,57.054 92.555,57.981 92.752C58.346 92.836,58.683 92.836,59.441 92.864"/><path stroke="none" d="M23.821 98.208C23.93 98.208,24.094 98.126,24.286 97.907C24.806 97.497,25.38 97.059,25.955 96.648C29.402 94.186,31.263 90.821,31.263 86.525C31.263 85.978,31.263 85.458,31.181 84.911C30.989 82.996,29.895 81.874,28.226 81.874C27.87 81.874,27.487 81.956,27.049 82.093C26.502 82.23,25.955 82.503,25.38 82.75L25.353 82.777L25.353 81.765C25.353 80.26,25.435 78.782,25.517 77.278C25.517 76.402,25.599 75.581,25.599 74.706C25.599 73.885,25.517 73.009,25.326 72.189C25.244 71.915,25.244 71.395,24.833 71.395L24.806 71.395C24.368 71.45,24.04 71.806,24.04 72.353C24.012 73.447,23.903 74.596,23.93 75.691L23.93 76.922C23.93 79.248,23.821 81.573,23.739 83.899C23.629 87.237,23.055 90.52,23.055 93.858C23.055 95.171,23.137 96.539,23.492 97.852C23.575 98.071,23.657 98.208,23.821 98.208M24.888 92.873C24.97 91.86,24.997 90.793,25.107 89.672C25.189 88.824,25.244 87.948,25.244 87.072L25.38 87.018C26.146 86.689,26.885 86.306,27.706 86.306C27.98 86.306,28.308 86.388,28.609 86.498C29.265 86.717,29.566 87.045,29.539 87.483C29.539 87.702,29.484 87.948,29.32 88.276C28.308 90.274,26.639 91.614,24.888 92.873"/></g><g class="vf-notehead" id="vf-auto18565" pointer-events="bounding-box"><path stroke="none" d="M66.938 78.428C66.882 83.229,62.754 87.048,58.149 87.048C57.475 87.048,56.773 86.964,56.099 86.795C54.667 86.43,54.021 85.391,53.713 83.959C53.544 83.229,53.46 82.555,53.46 81.909C53.46 77.332,57.026 74.384,61.435 73.008C61.575 72.952,61.8 72.924,61.996 72.924C63.962 72.924,66.966 75.226,66.966 77.81C66.966 78.006,66.966 78.231,66.938 78.428M59.441 82.864C61.154 82.274,63.035 81.348,64.664 79.832C64.692 79.803,64.748 79.635,64.748 79.523C64.748 79.382,64.692 79.27,64.664 79.242C63.934 78.512,63.372 77.529,62.193 77.36C62.024 77.332,61.884 77.332,61.659 77.332C59.918 77.332,58.542 78.456,57.11 79.242C56.212 79.747,55.201 80.814,55.397 81.741C55.594 82.752,57.054 82.555,57.981 82.752C58.346 82.836,58.683 82.836,59.441 82.864"/><path stroke="none" d="M40.61 95.13C40.911 95.103,40.993 94.665,41.075 94.391C41.24 93.872,41.267 93.352,41.267 92.887C41.267 92.449,41.24 92.066,41.24 91.628C41.24 91.354,41.24 90.999,41.267 90.725C41.349 89.932,41.431 89.138,41.458 88.345L43.209 87.989C43.292 89.658,43.592 91.272,44.14 92.832C44.194 93.051,44.331 93.27,44.577 93.27C44.824 93.324,44.906 93.051,45.015 92.832C45.289 92.421,45.316 91.902,45.316 91.436C45.371 91.081,45.371 90.752,45.371 90.452C45.371 89.494,45.289 88.509,45.261 87.551L47.532 87.086C49.694 86.648,49.967 86.348,50.132 84.268C50.132 83.748,50.186 83.393,50.132 82.982C50.104 82.49,49.885 82.134,49.475 82.134L49.393 82.134C49.229 82.134,49.119 82.134,48.955 82.161C48.052 82.408,47.067 82.599,46.11 82.763L45.453 82.873C45.48 82.326,45.48 81.724,45.535 81.149C45.562 79.891,45.59 78.632,45.59 77.373C46.712 77.072,47.779 76.772,48.846 76.416C49.42 76.224,49.94 75.896,50.104 75.267C50.241 74.555,50.46 73.899,50.46 73.187C50.46 72.777,50.405 72.367,50.241 71.956C50.104 71.573,49.967 71.382,49.748 71.382L49.666 71.382C49.53 71.382,49.393 71.382,49.229 71.464C47.997 71.956,46.794 72.367,45.535 72.722L45.398 70.588C45.316 68.892,45.261 67.168,44.906 65.472C44.824 65.253,44.851 64.897,44.605 64.897L44.577 64.897L44.468 64.897C44.14 64.979,43.757 65.116,43.702 65.554L43.702 66.293C43.702 68.618,43.784 70.889,43.839 73.187L41.732 73.652C41.732 72.476,41.705 71.3,41.623 70.123C41.595 69.521,41.595 68.974,41.267 68.372C40.391 68.81,40.528 69.548,40.528 70.178C40.446 71.464,40.391 72.668,40.364 73.899C39.27 74.118,38.148 74.282,37.053 74.473C35.439 74.747,35.193 74.993,35.193 76.772C35.084 77.209,35.412 77.702,35.357 78.194C35.275 78.933,35.467 79.179,35.986 79.207C36.096 79.207,36.233 79.179,36.397 79.124C37.683 78.933,38.941 78.741,40.2 78.495L40.09 82.052C40.036 82.709,39.981 83.338,39.899 83.967C38.421 84.268,36.971 84.542,35.521 84.897C34.7 85.089,34.208 85.39,34.208 86.348C34.208 87.278,34.564 88.153,34.618 89.056C34.618 89.494,34.728 89.685,35.056 89.74C35.111 89.74,35.248 89.685,35.412 89.658C36.807 89.33,38.23 89.056,39.653 88.755C39.625 89.248,39.625 89.768,39.625 90.315C39.625 91.71,39.762 93.051,40.255 94.391C40.337 94.665,40.255 95.13,40.61 95.13M41.65 83.612C41.705 82.763,41.705 81.888,41.732 81.012C41.787 80.082,41.787 79.179,41.787 78.222C42.443 78.112,43.073 78.003,43.702 77.839C43.51 79.644,43.428 81.45,43.319 83.283"/></g><g class="vf-notehead" id="vf-auto18564" pointer-events="bounding-box"><path stroke="none" d="M66.938 63.428C66.882 68.229,62.754 72.048,58.149 72.048C57.475 72.048,56.773 71.964,56.099 71.795C54.667 71.43,54.021 70.391,53.713 68.959C53.544 68.229,53.46 67.555,53.46 66.909C53.46 62.332,57.026 59.384,61.435 58.008C61.575 57.952,61.8 57.924,61.996 57.924C63.962 57.924,66.966 60.226,66.966 62.81C66.966 63.006,66.966 63.231,66.938 63.428M59.441 67.864C61.154 67.274,63.035 66.348,64.664 64.832C64.692 64.803,64.748 64.635,64.748 64.523C64.748 64.382,64.692 64.27,64.664 64.242C63.934 63.512,63.372 62.529,62.193 62.36C62.024 62.332,61.884 62.332,61.659 62.332C59.918 62.332,58.542 63.456,57.11 64.242C56.212 64.747,55.201 65.814,55.397 66.741C55.594 67.752,57.054 67.555,57.981 67.752C58.346 67.836,58.683 67.836,59.441 67.864"/></g></g><g class="vf-stavenote" id="vf-auto18571"><g class="vf-stem" id="vf-auto18572" pointer-events="bounding-box"><path stroke-width="1.5" fill="none" d="M157.227 76.8L157.227 120"/></g><g class="vf-notehead" id="vf-auto18581" pointer-events="bounding-box"><path stroke="none" d="M169.955 83.428C169.899 88.229,165.771 92.048,161.166 92.048C160.492 92.048,159.79 91.964,159.116 91.795C157.684 91.43,157.038 90.391,156.729 88.959C156.561 88.229,156.477 87.555,156.477 86.909C156.477 82.332,160.043 79.384,164.451 78.008C164.592 77.952,164.816 77.924,165.013 77.924C166.979 77.924,169.983 80.226,169.983 82.81C169.983 83.006,169.983 83.231,169.955 83.428M162.458 87.864C164.171 87.274,166.052 86.348,167.681 84.832C167.709 84.803,167.765 84.635,167.765 84.523C167.765 84.382,167.709 84.27,167.681 84.242C166.951 83.512,166.389 82.529,165.21 82.36C165.041 82.332,164.901 82.332,164.676 82.332C162.935 82.332,161.559 83.456,160.127 84.242C159.229 84.747,158.218 85.814,158.414 86.741C158.611 87.752,160.071 87.555,160.998 87.752C161.363 87.836,161.7 87.836,162.458 87.864"/></g><g class="vf-notehead" id="vf-auto18580" pointer-events="bounding-box"><path stroke="none" d="M159.199 78.428C159.142 83.229,155.015 87.048,150.41 87.048C149.736 87.048,149.034 86.964,148.36 86.795C146.928 86.43,146.282 85.391,145.973 83.959C145.804 83.229,145.72 82.555,145.72 81.909C145.72 77.332,149.286 74.384,153.695 73.008C153.835 72.952,154.06 72.924,154.257 72.924C156.222 72.924,159.227 75.226,159.227 77.81C159.227 78.006,159.227 78.231,159.199 78.428M151.701 82.864C153.414 82.274,155.295 81.348,156.924 79.832C156.952 79.803,157.008 79.635,157.008 79.523C157.008 79.382,156.952 79.27,156.924 79.242C156.194 78.512,155.632 77.529,154.453 77.36C154.285 77.332,154.144 77.332,153.92 77.332C152.179 77.332,150.803 78.456,149.371 79.242C148.472 79.747,147.461 80.814,147.658 81.741C147.854 82.752,149.314 82.555,150.241 82.752C150.606 82.836,150.943 82.836,151.701 82.864"/></g><g class="vf-notehead" id="vf-auto18579" pointer-events="bounding-box"><path stroke="none" d="M169.955 73.428C169.899 78.229,165.771 82.048,161.166 82.048C160.492 82.048,159.79 81.964,159.116 81.795C157.684 81.43,157.038 80.391,156.729 78.959C156.561 78.229,156.477 77.555,156.477 76.909C156.477 72.332,160.043 69.384,164.451 68.008C164.592 67.952,164.816 67.924,165.013 67.924C166.979 67.924,169.983 70.226,169.983 72.81C169.983 73.006,169.983 73.231,169.955 73.428M162.458 77.864C164.171 77.274,166.052 76.348,167.681 74.832C167.709 74.803,167.765 74.635,167.765 74.523C167.765 74.382,167.709 74.27,167.681 74.242C166.951 73.512,166.389 72.529,165.21 72.36C165.041 72.332,164.901 72.332,164.676 72.332C162.935 72.332,161.559 73.456,160.127 74.242C159.229 74.747,158.218 75.814,158.414 76.741C158.611 77.752,160.071 77.555,160.998 77.752C161.363 77.836,161.7 77.836,162.458 77.864"/></g></g><g class="vf-stavetie" id="vf-auto18583"><path stroke="none" d="M66.966 83Q104.968 72.5,142.97 78Q104.968 68.5,66.966 83Z"/><path stroke="none" d="M66.966 73Q104.968 65,142.97 73Q104.968 61,66.966 73Z"/></g></svg>