<svg xmlns="http://www.w3.org/2000/svg" stroke-width="0.3" stroke-dasharray="none" fill="black" stroke="black" font-family="Arial, sans-serif" font-size="10pt" font-weight="normal" font-style="normal" width="600" height="250" viewBox="0 0 600 250" style="width: 600px; height: 250px; border: none;"><g class="vf-stave" id="vf-auto8907" stroke-width="1" fill="#999999" stroke="#999999"><path fill="none" d="M10 50L182.452 50"/><path fill="none" d="M10 60L182.452 60"/><path fill="none" d="M10 70L182.452 70"/><path fill="none" d="M10 80L182.452 80"/><path fill="none" d="M10 90L182.452 90"/></g><g class="vf-stavebarline" id="vf-auto8908"/><g class="vf-stavebarline" id="vf-auto8909"><rect x="182.452" y="49.5" width="1" height="41" stroke="none"/></g><g class="vf-clef" id="vf-auto8910"><path stroke="none" d="M28.711 65.844C28.66 65.413,28.711 65.388,28.939 65.16C32.893 61.485,35.883 56.847,35.883 51.246C35.883 48.078,34.996 44.935,33.501 42.756C32.944 41.945,32.006 40.931,31.6 40.931C31.093 40.931,29.953 41.869,29.243 42.68C26.532 45.67,25.644 50.232,25.644 54.034C25.644 56.138,25.923 58.52,26.177 60.015C26.253 60.446,26.278 60.522,25.847 60.902C20.576 65.236,15 70.457,15 77.832C15 84.168,19.334 90.2,28.28 90.2C29.117 90.2,30.08 90.124,30.815 89.972C31.195 89.896,31.271 89.87,31.347 90.301C31.778 92.76,32.335 95.928,32.335 97.651C32.335 103.049,28.686 103.708,26.532 103.708C24.555 103.708,23.617 103.125,23.617 102.644C23.617 102.39,23.946 102.289,24.783 102.01C25.923 101.681,27.216 100.718,27.216 98.589C27.216 96.587,25.949 94.863,23.718 94.863C21.285 94.863,19.815 96.815,19.815 99.07C19.815 101.427,21.235 105.026,26.76 105.026C29.193 105.026,33.932 103.911,33.932 97.727C33.932 95.623,33.273 92.177,32.893 89.896C32.817 89.465,32.842 89.516,33.349 89.287C37.049 87.818,39.482 84.726,39.482 80.594C39.482 75.931,36.061 71.8,30.688 71.8C29.75 71.8,29.75 71.8,29.623 71.141M32.158 46.583C33.349 46.583,34.337 47.571,34.337 49.573C34.337 53.628,30.865 56.923,28.001 59.432C27.748 59.66,27.596 59.61,27.52 59.128C27.368 58.19,27.292 56.949,27.292 55.783C27.292 50.08,29.928 46.583,32.158 46.583M28.179 71.445C28.28 72.13,28.28 72.104,27.621 72.307C24.428 73.397,22.324 76.286,22.324 79.403C22.324 82.673,24.048 85.004,26.532 85.866C26.836 85.967,27.266 86.069,27.52 86.069C27.799 86.069,27.951 85.891,27.951 85.663C27.951 85.41,27.672 85.308,27.419 85.207C25.873 84.548,24.783 82.977,24.783 81.304C24.783 79.201,26.202 77.655,28.432 77.021C29.015 76.869,29.091 76.92,29.167 77.325L30.992 88.198C31.068 88.603,31.017 88.603,30.485 88.705C29.902 88.806,29.167 88.882,28.432 88.882C22.046 88.882,17.915 85.334,17.915 80.265C17.915 78.111,18.295 75.222,21.311 71.8C23.516 69.367,25.188 67.999,26.886 66.63C27.266 66.326,27.343 66.377,27.419 66.757M30.688 77.249C30.612 76.793,30.663 76.692,31.093 76.742C34.059 76.996,36.492 79.479,36.492 82.673C36.492 84.979,35.098 86.829,33.07 87.868C32.639 88.071,32.563 88.071,32.487 87.64"/></g><g class="vf-stavenote" id="vf-auto8854"><path stroke-width="1.4" fill="none" stroke="#444" d="M64.305 100L82.239 100"/><g class="vf-stem" id="vf-auto8855" pointer-events="bounding-box"><path stroke-width="1.5" fill="none" d="M68.055 82L68.055 135"/></g><g class="vf-notehead" id="vf-auto8864" pointer-events="bounding-box"><path stroke="none" d="M71.236 105.054C74.83 105.054,79.239 101.741,79.239 98.315C79.239 96.237,77.61 94.946,75.307 94.946C70.871 94.946,67.305 98.231,67.305 101.685C67.305 103.791,69.046 105.054,71.236 105.054"/></g><g class="vf-notehead" id="vf-auto8863" pointer-events="bounding-box"><path stroke="none" d="M71.236 95.054C74.83 95.054,79.239 91.741,79.239 88.315C79.239 86.237,77.61 84.946,75.307 84.946C70.871 84.946,67.305 88.231,67.305 91.685C67.305 93.791,69.046 95.054,71.236 95.054"/></g><g class="vf-notehead" id="vf-auto8862" pointer-events="bounding-box"><path stroke="none" d="M71.236 85.054C74.83 85.054,79.239 81.741,79.239 78.315C79.239 76.237,77.61 74.946,75.307 74.946C70.871 74.946,67.305 78.231,67.305 81.685C67.305 83.791,69.046 85.054,71.236 85.054"/></g></g><g class="vf-stavenote" id="vf-auto8865"><path stroke-width="1.4" fill="none" stroke="#444" d="M90.108 100L108.042 100"/><g class="vf-stem" id="vf-auto8866" pointer-events="bounding-box"><path stroke-width="1.5" fill="none" d="M93.858 102L93.858 135"/></g><g class="vf-notehead" id="vf-auto8869" pointer-events="bounding-box"><path stroke="none" d="M97.039 105.054C100.633 105.054,105.042 101.741,105.042 98.315C105.042 96.237,103.413 94.946,101.111 94.946C96.674 94.946,93.108 98.231,93.108 101.685C93.108 103.791,94.849 105.054,97.039 105.054"/></g></g><g class="vf-stavenote" id="vf-auto8870"><g class="vf-notehead" id="vf-auto8874" pointer-events="bounding-box"><path stroke="none" d="M121.734 101.386C122.313 102.117,122.843 102.797,123.296 103.553C123.372 103.704,123.523 103.982,123.523 104.057C123.523 104.108,123.523 104.183,123.473 104.208C123.422 104.36,123.271 104.385,123.095 104.385C122.943 104.385,122.641 104.309,122.515 104.284C122.465 104.284,122.389 104.284,122.364 104.284L122.061 104.183C120.171 104.183,118.937 105.872,118.937 107.661C118.937 109.475,120.499 111.239,123.145 113.28C123.447 113.507,123.8 113.608,124.103 113.608C124.355 113.608,124.607 113.532,124.657 113.381C124.682 113.28,124.707 113.205,124.707 113.129C124.707 112.802,124.43 112.524,124.128 112.272C123.674 112.272,123.271 111.29,123.195 110.962C123.095 110.66,123.044 110.332,123.044 110.004C123.044 108.518,123.8 107.358,125.337 107.358C126.396 107.358,127.58 107.762,128.21 107.988L128.235 108.014C128.387 108.064,128.462 108.064,128.538 108.064C128.639 108.064,128.714 108.014,128.714 107.913C128.714 107.484,127.757 106.275,127.379 105.846C125.993 104.183,124.859 102.822,124.859 100.806C124.859 100.756,124.859 100.731,124.859 100.68L124.909 100.428C124.909 100.403,124.909 100.353,124.909 100.328C125.035 98.211,126.345 96.472,127.303 94.985C127.404 94.809,127.429 94.632,127.429 94.456C127.429 94.078,127.303 93.75,127.303 93.75C127.303 93.75,121.935 87.375,121.305 86.745C121.129 86.568,120.877 86.468,120.65 86.468C120.297 86.468,119.919 86.72,119.919 87.224C119.919 87.4,119.97 87.602,120.071 87.803C120.222 88.206,122.288 90.046,122.288 92.667C122.288 94.002,121.734 95.565,120.121 97.278C119.743 97.631,119.592 98.034,119.592 98.337C119.592 98.841,119.97 99.194,119.97 99.194"/></g></g><g class="vf-stavenote" id="vf-auto8875"><path stroke-width="1.4" fill="none" stroke="#444" d="M141.715 100L159.649 100"/><g class="vf-stem" id="vf-auto8876" pointer-events="bounding-box"><path stroke-width="1.5" fill="none" d="M145.465 102L145.465 135"/></g><g class="vf-notehead" id="vf-auto8879" pointer-events="bounding-box"><path stroke="none" d="M148.646 105.054C152.24 105.054,156.649 101.741,156.649 98.315C156.649 96.237,155.02 94.946,152.718 94.946C148.281 94.946,144.715 98.231,144.715 101.685C144.715 103.791,146.456 105.054,148.646 105.054"/></g></g><g class="vf-stavenote" id="vf-auto8881"><g class="vf-stem" id="vf-auto8882" pointer-events="bounding-box"><path stroke-width="1.5" fill="none" d="M78.489 62.45L78.489 30"/></g><g class="vf-notehead" id="vf-auto8885" pointer-events="bounding-box"><path stroke="none" d="M71.236 70.054C77.891 70.054,79.239 64.635,79.239 63.315C79.239 61.237,77.582 59.946,75.223 59.946C69.214 59.946,67.305 64.607,67.305 66.685C67.305 68.847,68.989 70.054,71.236 70.054M70.337 68.51C69.495 68.51,68.989 68.061,68.709 67.583C68.596 67.359,68.484 67.05,68.484 66.769C68.484 64.803,74.353 61.602,76.234 61.602C77.02 61.602,77.441 61.967,77.75 62.445C77.863 62.697,77.975 62.95,77.975 63.231C77.975 64.972,72.275 68.51,70.337 68.51"/><path stroke="none" d="M63.812 60.349C64.086 60.239,64.305 59.911,64.305 59.692L64.305 56.874C64.305 56.683,64.168 56.573,64.004 56.573C63.949 56.573,63.894 56.573,63.812 56.6C63.812 56.6,63.019 56.929,62.827 56.956C62.554 56.956,62.28 56.765,62.28 56.464L62.28 51.648C62.28 51.402,62.034 51.211,61.733 51.211C61.35 51.211,61.103 51.402,61.103 51.648L61.103 56.765C61.049 57.148,60.939 57.668,60.584 57.914C60.118 58.187,58.778 58.735,58.094 58.899C57.766 58.899,57.629 58.434,57.629 58.105L57.629 53.372C57.629 53.153,57.355 52.934,57.082 52.934C56.698 52.934,56.452 53.153,56.452 53.372L56.452 58.707C56.452 59.254,56.206 59.637,55.987 59.747C55.741 59.884,54.947 60.185,54.947 60.185C54.674 60.267,54.482 60.595,54.482 60.814L54.482 63.632C54.482 63.851,54.592 63.988,54.838 63.988L54.92 63.933C54.947 63.933,55.549 63.687,55.85 63.55L55.905 63.495C56.206 63.495,56.452 63.906,56.452 64.207L56.452 68.119C56.452 68.557,56.261 68.912,56.014 69.022C55.796 69.104,54.947 69.46,54.947 69.46C54.674 69.542,54.482 69.843,54.482 70.089L54.482 72.88C54.482 73.126,54.592 73.235,54.838 73.235L54.92 73.208C54.947 73.208,55.495 72.962,55.85 72.852C55.905 72.798,55.932 72.798,55.987 72.798C56.261 72.798,56.452 73.235,56.452 73.427L56.452 78.27C56.452 78.516,56.698 78.707,56.972 78.707C57.355 78.707,57.629 78.516,57.629 78.27L57.629 72.798C57.629 72.278,57.82 72.004,58.039 71.922L60.419 70.937C60.419 70.937,60.474 70.937,60.474 70.937L60.556 70.91C60.912 70.91,61.103 71.375,61.103 71.621L61.103 76.546C61.103 76.792,61.35 76.984,61.623 76.984C62.034 76.984,62.28 76.792,62.28 76.546L62.28 70.937C62.28 70.636,62.444 70.171,62.718 70.034C62.991 69.925,63.812 69.596,63.812 69.596C64.086 69.487,64.305 69.186,64.305 68.94L64.305 66.149C64.305 65.958,64.168 65.821,64.004 65.821C63.949 65.821,63.894 65.821,63.812 65.876L62.8 66.259C62.554 66.259,62.28 66.012,62.28 65.547L62.28 61.881C62.28 61.607,62.471 60.869,62.8 60.732M61.103 66.778C60.857 67.572,59.024 68.338,58.094 68.338C57.875 68.338,57.683 68.283,57.629 68.146C57.547 67.982,57.519 67.134,57.519 66.176C57.519 64.973,57.547 63.577,57.629 63.276C57.711 62.592,59.517 61.772,60.502 61.772C60.775 61.772,61.021 61.854,61.103 62.018C61.186 62.209,61.268 63.194,61.268 64.261C61.268 65.328,61.186 66.423,61.103 66.778"/><path stroke="none" d="M86.239 65 A2 2 0 0 0 82.239 65 A2 2 0 0 0 86.239 65"/></g></g><g class="vf-stavenote" id="vf-auto8889"><g class="vf-notehead" id="vf-auto8895" pointer-events="bounding-box"><path stroke="none" d="M148.646 70.054C152.24 70.054,156.649 66.741,156.649 63.315C156.649 61.237,155.02 59.946,152.718 59.946C148.281 59.946,144.715 63.231,144.715 66.685C144.715 68.791,146.456 70.054,148.646 70.054"/></g></g><g class="vf-stavenote" id="vf-auto8897"><g class="vf-notehead" id="vf-auto8903" pointer-events="bounding-box"><path stroke="none" d="M165.248 70.054C168.842 70.054,173.251 66.741,173.251 63.315C173.251 61.237,171.622 59.946,169.32 59.946C164.883 59.946,161.317 63.231,161.317 66.685C161.317 68.791,163.058 70.054,165.248 70.054"/></g></g><g class="vf-stem" id="vf-auto8890" pointer-events="bounding-box"><path stroke-width="1.5" fill="none" d="M155.899 63L155.899 30.75"/></g><g class="vf-stem" id="vf-auto8898" pointer-events="bounding-box"><path stroke-width="1.5" fill="none" d="M172.501 63L172.501 30.75"/></g><g class="vf-beam" id="vf-auto8905"><path stroke="none" d="M155.149 30L155.149 35L172.751 35L172.751 30Z"/></g></svg>