<svg xmlns="http://www.w3.org/2000/svg" stroke-width="0.3" stroke-dasharray="none" fill="black" stroke="black" font-family="Arial, sans-serif" font-size="10pt" font-weight="normal" font-style="normal" width="700" height="240" viewBox="0 0 700 240" style="width: 700px; height: 240px; border: none;"><text stroke="none" font-size="8pt" x="27" y="140">32px</text><path stroke-width="3" fill="none" stroke="red" d="M27 147L41.865 147"/><path stroke-width="3" fill="none" stroke="#999" d="M41.865 147L41.865 147"/><path stroke-width="3" fill="none" stroke="green" d="M41.865 147L59.134 147"/><path stroke-width="3" fill="none" stroke="#999" d="M59.134 147L59.134 147"/><path stroke-width="3" fill="none" stroke="red" d="M59.134 147L59.134 147"/><path stroke-width="3" fill="none" stroke="#DD0" d="M59.134 147L59.134 147"/><path stroke-width="3" fill="none" stroke="#BBB" d="M27 147L27 147"/><path stroke-width="3" fill="blue" stroke="none" d="M44.865 147 A3 3 0 0 0 38.865 147 A3 3 0 0 0 44.865 147Z"/><text stroke="none" font-size="8pt" x="81.134" y="140">28px</text><path stroke-width="3" fill="none" stroke="red" d="M81.134 147L97.175 147"/><path stroke-width="3" fill="none" stroke="#999" d="M97.175 147L97.175 147"/><path stroke-width="3" fill="none" stroke="green" d="M97.175 147L109.165 147"/><path stroke-width="3" fill="none" stroke="#999" d="M109.165 147L109.165 147"/><path stroke-width="3" fill="none" stroke="red" d="M109.165 147L109.165 147"/><path stroke-width="3" fill="none" stroke="#DD0" d="M109.165 147L109.165 147"/><path stroke-width="3" fill="none" stroke="#BBB" d="M81.134 147L81.134 147"/><path stroke-width="3" fill="blue" stroke="none" d="M100.175 147 A3 3 0 0 0 94.175 147 A3 3 0 0 0 100.175 147Z"/><text stroke="none" font-size="8pt" x="131.165" y="140">64px</text><path stroke-width="3" fill="none" stroke="red" d="M131.165 147L170.936 147"/><path stroke-width="3" fill="none" stroke="#999" d="M170.936 147L170.936 147"/><path stroke-width="3" fill="none" stroke="green" d="M170.936 147L194.916 147"/><path stroke-width="3" fill="none" stroke="#999" d="M194.916 147L194.916 147"/><path stroke-width="3" fill="none" stroke="red" d="M194.916 147L194.916 147"/><path stroke-width="3" fill="none" stroke="#DD0" d="M194.916 147L194.916 147"/><path stroke-width="3" fill="none" stroke="#BBB" d="M131.165 147L131.165 147"/><path stroke-width="3" fill="blue" stroke="none" d="M173.936 147 A3 3 0 0 0 167.936 147 A3 3 0 0 0 173.936 147Z"/><text stroke="none" font-size="8pt" x="216.916" y="140">57px</text><path stroke-width="3" fill="none" stroke="red" d="M216.916 147L250.339 147"/><path stroke-width="3" fill="none" stroke="#999" d="M250.339 147L250.339 147"/><path stroke-width="3" fill="none" stroke="green" d="M250.339 147L274.319 147"/><path stroke-width="3" fill="none" stroke="#999" d="M274.319 147L274.319 147"/><path stroke-width="3" fill="none" stroke="red" d="M274.319 147L274.319 147"/><path stroke-width="3" fill="none" stroke="#DD0" d="M274.319 147L274.319 147"/><path stroke-width="3" fill="none" stroke="#BBB" d="M216.916 147L216.916 147"/><path stroke-width="3" fill="blue" stroke="none" d="M253.339 147 A3 3 0 0 0 247.339 147 A3 3 0 0 0 253.339 147Z"/><text stroke="none" font-size="8pt" x="296.319" y="140">80px</text><path stroke-width="3" fill="none" stroke="red" d="M296.319 147L352.338 147"/><path stroke-width="3" fill="none" stroke="#999" d="M352.338 147L352.338 147"/><path stroke-width="3" fill="none" stroke="green" d="M352.338 147L364.328 147"/><path stroke-width="3" fill="none" stroke="#999" d="M364.328 147L376.318 147"/><path stroke-width="3" fill="none" stroke="red" d="M376.318 147L376.318 147"/><path stroke-width="3" fill="none" stroke="#DD0" d="M376.318 147L376.318 147"/><path stroke-width="3" fill="none" stroke="#BBB" d="M296.319 147L296.319 147"/><path stroke-width="3" fill="blue" stroke="none" d="M355.338 147 A3 3 0 0 0 349.338 147 A3 3 0 0 0 355.338 147Z"/><text stroke="none" font-size="8pt" x="410.308" y="140">63px</text><path stroke-width="3" fill="none" stroke="red" d="M410.308 147L448.9 147"/><path stroke-width="3" fill="none" stroke="#999" d="M448.9 147L448.9 147"/><path stroke-width="3" fill="none" stroke="green" d="M448.9 147L472.88 147"/><path stroke-width="3" fill="none" stroke="#999" d="M472.88 147L472.88 147"/><path stroke-width="3" fill="none" stroke="red" d="M472.88 147L472.88 147"/><path stroke-width="3" fill="none" stroke="#DD0" d="M472.88 147L472.88 147"/><path stroke-width="3" fill="none" stroke="#BBB" d="M410.308 147L410.308 147"/><path stroke-width="3" fill="blue" stroke="none" d="M451.9 147 A3 3 0 0 0 445.9 147 A3 3 0 0 0 451.9 147Z"/><g class="vf-stave" id="vf-auto15006" stroke-width="1" fill="#999999" stroke="#999999"><path fill="none" d="M10 50L560 50"/><path fill="none" d="M10 60L560 60"/><path fill="none" d="M10 70L560 70"/><path fill="none" d="M10 80L560 80"/><path fill="none" d="M10 90L560 90"/></g><g class="vf-stavebarline" id="vf-auto15007"><rect x="10" y="49.5" width="1" height="41" stroke="none"/></g><g class="vf-stavebarline" id="vf-auto15008"><rect x="560" y="49.5" width="1" height="41" stroke="none"/></g><g class="vf-stavenote" id="vf-auto15009"><g class="vf-notehead" id="vf-auto15013" pointer-events="bounding-box"><path stroke="none" d="M49.53 79.918C49.867 79.889,50.176 79.889,50.485 79.889C54.585 79.889,58.207 81.602,58.993 83.989C59.106 84.326,59.134 84.691,59.134 85C59.134 87.808,55.399 90.111,50.485 90.111C45.655 90.111,41.865 87.864,41.865 85C41.865 82.36,45.15 80.198,49.53 79.918M49.98 80.563C49.811 80.535,49.643 80.535,49.474 80.535C47.79 80.535,46.638 81.939,46.638 83.849C46.638 84.41,46.751 85.028,46.975 85.674C47.846 88.089,49.839 89.465,51.524 89.465C52.619 89.465,53.602 88.903,54.079 87.668C54.276 87.19,54.36 86.685,54.36 86.179C54.36 83.68,52.395 80.928,49.98 80.563"/><path stroke="none" d="M35.964 70.691C36.019 70.663,36.101 70.636,36.183 70.636C36.402 70.636,36.621 70.773,36.703 70.992C36.731 71.101,36.731 71.128,36.731 74.603C36.731 77.859,36.731 78.078,36.785 78.078C36.785 78.078,36.785 78.078,36.785 78.078C37.086 77.996,38.208 77.75,38.29 77.75C38.536 77.75,38.728 77.886,38.81 78.078C38.837 78.16,38.865 78.789,38.865 79.419C38.865 80.048,38.837 80.677,38.81 80.759C38.728 81.033,38.673 81.033,37.579 81.306L36.731 81.525L36.731 84.425C36.731 87.134,36.731 87.353,36.758 87.353C36.785 87.353,36.785 87.353,36.785 87.353C37.086 87.244,38.208 86.997,38.29 86.997C38.454 86.997,38.564 87.052,38.7 87.161C38.837 87.326,38.837 87.271,38.837 88.311C38.837 88.42,38.837 88.557,38.837 88.694C38.837 88.83,38.837 88.94,38.837 89.049C38.837 90.116,38.837 90.062,38.7 90.198C38.564 90.335,38.564 90.335,37.579 90.581L36.731 90.773L36.731 94.33C36.731 97.832,36.731 97.859,36.703 97.941C36.621 98.188,36.402 98.297,36.183 98.297C36.047 98.297,35.882 98.242,35.773 98.133C35.636 97.996,35.609 98.242,35.609 96.053C35.609 95.616,35.609 95.096,35.609 94.467C35.609 92.579,35.609 91.047,35.609 91.047C35.609 91.047,35.062 91.183,34.405 91.348C33.721 91.512,33.174 91.648,33.174 91.648C33.174 91.648,33.174 93.29,33.174 95.287C33.174 98.872,33.174 98.899,33.119 99.008C33.037 99.227,32.818 99.364,32.599 99.364C32.462 99.364,32.298 99.309,32.189 99.2C32.052 99.036,32.052 99.282,32.052 97.066C32.052 96.628,32.052 96.081,32.052 95.424C32.052 92.168,32.052 91.949,32.025 91.949C32.025 91.949,32.025 91.949,31.997 91.949C31.669 92.032,30.657 92.25,30.575 92.25C30.328 92.25,30.109 92.114,30.027 91.922C30 91.84,30 91.211,30 90.581C30 89.952,30 89.323,30.027 89.241C30.137 88.995,30.192 88.967,31.231 88.694L32.052 88.502L32.052 85.575C32.052 82.866,32.052 82.674,32.025 82.674C32.025 82.674,32.025 82.674,31.997 82.674C31.669 82.756,30.657 83.003,30.575 83.003C30.328 83.003,30.109 82.866,30.027 82.647C30 82.592,30 81.936,30 81.306C30 80.677,30 80.048,30.027 79.966C30.137 79.72,30.192 79.692,31.231 79.446L32.052 79.254L32.052 75.698C32.052 72.168,32.052 72.141,32.079 72.059C32.161 71.812,32.38 71.703,32.599 71.703C32.736 71.703,32.9 71.758,33.01 71.867C33.146 72.004,33.174 71.758,33.174 73.947C33.174 74.384,33.174 74.904,33.174 75.561C33.174 77.421,33.174 78.953,33.174 78.953C33.174 78.953,33.721 78.817,34.378 78.68C35.062 78.516,35.609 78.379,35.609 78.379C35.609 78.379,35.609 76.737,35.609 74.74C35.609 71.128,35.609 71.101,35.664 70.992C35.691 70.882,35.828 70.745,35.964 70.691M35.609 84.699C35.609 82.401,35.609 81.799,35.609 81.799L35.609 81.799C35.581 81.799,35.39 81.826,35.171 81.908C34.952 81.963,34.405 82.072,33.967 82.182L33.174 82.401L33.174 85.301C33.174 86.915,33.174 88.228,33.174 88.228C33.174 88.228,33.721 88.092,34.378 87.928C35.062 87.763,35.609 87.627,35.609 87.627C35.609 87.627,35.609 86.313,35.609 84.699"/></g><g class="vf-notehead" id="vf-auto15014" pointer-events="bounding-box"><path stroke="none" d="M49.53 54.918C49.867 54.889,50.176 54.889,50.485 54.889C54.585 54.889,58.207 56.602,58.993 58.989C59.106 59.326,59.134 59.691,59.134 60C59.134 62.808,55.399 65.111,50.485 65.111C45.655 65.111,41.865 62.864,41.865 60C41.865 57.36,45.15 55.198,49.53 54.918M49.98 55.563C49.811 55.535,49.643 55.535,49.474 55.535C47.79 55.535,46.638 56.939,46.638 58.849C46.638 59.41,46.751 60.028,46.975 60.674C47.846 63.089,49.839 64.465,51.524 64.465C52.619 64.465,53.602 63.903,54.079 62.668C54.276 62.19,54.36 61.685,54.36 61.179C54.36 58.68,52.395 55.928,49.98 55.563"/><path stroke="none" d="M31.778 43.119C31.833 43.092,31.915 43.092,31.997 43.092C32.216 43.092,32.435 43.228,32.517 43.447C32.572 43.529,32.572 43.529,32.572 49.767L32.572 56.005L32.627 55.951C33.639 55.103,34.706 54.637,35.773 54.637C36.183 54.637,36.594 54.72,36.977 54.856C38.181 55.294,38.865 56.388,38.865 57.729C38.865 58.44,38.646 59.207,38.235 59.973C37.661 61.04,36.895 61.888,34.733 63.803C33.584 64.843,33.311 65.089,32.654 65.718C32.271 66.074,32.216 66.101,31.997 66.101C31.751 66.101,31.56 65.964,31.477 65.773L31.423 65.664L31.423 54.61L31.423 43.529L31.477 43.447C31.505 43.31,31.642 43.174,31.778 43.119M35.062 56.471C34.952 56.443,34.733 56.416,34.596 56.416C34.542 56.416,34.514 56.416,34.487 56.443C33.776 56.525,33.146 56.963,32.681 57.647L32.572 57.839L32.572 60.985L32.572 64.159L32.654 64.049C34.651 61.86,35.937 59.371,35.937 57.729C35.937 57.565,35.937 57.401,35.91 57.264C35.828 56.881,35.499 56.553,35.062 56.471"/></g></g><g class="vf-stavenote" id="vf-auto15019"><path stroke-width="1.4" fill="none" stroke="#444" d="M94.175 100L112.165 100"/><g class="vf-stem" id="vf-auto15020" pointer-events="bounding-box"><path stroke-width="1.5" fill="none" d="M108.415 98.5L108.415 45"/></g><g class="vf-notehead" id="vf-auto15023" pointer-events="bounding-box"><path stroke="none" d="M104.279 94.889C104.363 94.889,104.448 94.889,104.588 94.889C104.953 94.889,105.487 94.918,105.683 94.946C108.014 95.283,109.165 96.827,109.165 98.624C109.165 100.534,107.873 102.724,105.29 104.128C104.026 104.802,102.735 105.111,101.555 105.111C99.393 105.111,97.624 104.044,97.259 102.162C97.203 101.881,97.175 101.629,97.175 101.376C97.175 98.343,100.432 95.283,104.279 94.889M107.424 96.35C107.284 96.293,107.143 96.293,106.975 96.293C105.262 96.293,101.752 98.371,99.786 100.674C98.944 101.657,98.495 102.527,98.495 103.061C98.495 103.313,98.579 103.482,98.747 103.566C98.916 103.678,99.141 103.707,99.365 103.707C101.19 103.707,104.981 101.376,106.863 98.961C107.536 98.119,107.873 97.417,107.873 96.967C107.873 96.658,107.705 96.434,107.424 96.35"/><path stroke="none" d="M84.134 96.662L84.134 94.993L85.83 94.993L87.499 94.993L87.499 96.252L87.499 97.538L88.32 98.358L89.141 99.179L89.989 98.358L90.81 97.538L90.81 96.252L90.81 94.993L92.479 94.993L94.175 94.993L94.175 96.662L94.175 98.358L92.889 98.358L91.603 98.358L90.782 99.179L89.962 100L90.782 100.821L91.603 101.642L92.889 101.642L94.175 101.642L94.175 103.338L94.175 105.007L92.479 105.007L90.81 105.007L90.81 103.748L90.81 102.462L89.989 101.642L89.141 100.821L88.32 101.642L87.499 102.462L87.499 103.748L87.499 105.007L85.83 105.007L84.134 105.007L84.134 103.338L84.134 101.642L85.42 101.642L86.678 101.642L87.499 100.821L88.347 100L87.499 99.179L86.678 98.358L85.42 98.358L84.134 98.358"/></g><g class="vf-notehead" id="vf-auto15024" pointer-events="bounding-box"><path stroke="none" d="M104.279 74.889C104.363 74.889,104.448 74.889,104.588 74.889C104.953 74.889,105.487 74.918,105.683 74.946C108.014 75.283,109.165 76.827,109.165 78.624C109.165 80.534,107.873 82.724,105.29 84.128C104.026 84.802,102.735 85.111,101.555 85.111C99.393 85.111,97.624 84.044,97.259 82.162C97.203 81.881,97.175 81.629,97.175 81.376C97.175 78.343,100.432 75.283,104.279 74.889M107.424 76.35C107.284 76.293,107.143 76.293,106.975 76.293C105.262 76.293,101.752 78.371,99.786 80.674C98.944 81.657,98.495 82.527,98.495 83.061C98.495 83.313,98.579 83.482,98.747 83.566C98.916 83.678,99.141 83.707,99.365 83.707C101.19 83.707,104.981 81.376,106.863 78.961C107.536 78.119,107.873 77.417,107.873 76.967C107.873 76.658,107.705 76.434,107.424 76.35"/><path stroke="none" d="M84.134 76.662L84.134 74.993L85.83 74.993L87.499 74.993L87.499 76.252L87.499 77.538L88.32 78.358L89.141 79.179L89.989 78.358L90.81 77.538L90.81 76.252L90.81 74.993L92.479 74.993L94.175 74.993L94.175 76.662L94.175 78.358L92.889 78.358L91.603 78.358L90.782 79.179L89.962 80L90.782 80.821L91.603 81.642L92.889 81.642L94.175 81.642L94.175 83.338L94.175 85.007L92.479 85.007L90.81 85.007L90.81 83.748L90.81 82.462L89.989 81.642L89.141 80.821L88.32 81.642L87.499 82.462L87.499 83.748L87.499 85.007L85.83 85.007L84.134 85.007L84.134 83.338L84.134 81.642L85.42 81.642L86.678 81.642L87.499 80.821L88.347 80L87.499 79.179L86.678 78.358L85.42 78.358L84.134 78.358"/></g></g><g class="vf-stavenote" id="vf-auto15029"><path stroke-width="1.4" fill="none" stroke="#444" d="M167.936 100L185.926 100"/><g class="vf-stem" id="vf-auto15030" pointer-events="bounding-box"><path stroke-width="1.5" fill="none" d="M182.176 103.5L182.176 53"/></g><g class="vf-notehead" id="vf-auto15035" pointer-events="bounding-box"><path stroke="none" d="M178.04 99.889C178.124 99.889,178.208 99.889,178.349 99.889C178.714 99.889,179.247 99.918,179.444 99.946C181.774 100.283,182.926 101.827,182.926 103.624C182.926 105.534,181.634 107.724,179.051 109.128C177.787 109.802,176.495 110.111,175.316 110.111C173.154 110.111,171.385 109.044,171.02 107.162C170.964 106.881,170.936 106.629,170.936 106.376C170.936 103.343,174.193 100.283,178.04 99.889"/><path stroke="none" d="M151.994 90.691C152.049 90.663,152.131 90.636,152.213 90.636C152.432 90.636,152.651 90.773,152.733 90.992C152.76 91.101,152.76 91.128,152.76 94.603C152.76 97.859,152.76 98.078,152.815 98.078C152.815 98.078,152.815 98.078,152.815 98.078C153.116 97.996,154.238 97.75,154.32 97.75C154.566 97.75,154.758 97.886,154.84 98.078C154.867 98.16,154.894 98.789,154.894 99.419C154.894 100.048,154.867 100.677,154.84 100.759C154.758 101.033,154.703 101.033,153.608 101.306L152.76 101.525L152.76 104.425C152.76 107.134,152.76 107.353,152.788 107.353C152.815 107.353,152.815 107.353,152.815 107.353C153.116 107.244,154.238 106.997,154.32 106.997C154.484 106.997,154.593 107.052,154.73 107.161C154.867 107.326,154.867 107.271,154.867 108.311C154.867 108.42,154.867 108.557,154.867 108.694C154.867 108.83,154.867 108.94,154.867 109.049C154.867 110.116,154.867 110.062,154.73 110.198C154.593 110.335,154.593 110.335,153.608 110.581L152.76 110.773L152.76 114.33C152.76 117.832,152.76 117.859,152.733 117.941C152.651 118.188,152.432 118.297,152.213 118.297C152.076 118.297,151.912 118.242,151.803 118.133C151.666 117.996,151.639 118.242,151.639 116.053C151.639 115.616,151.639 115.096,151.639 114.467C151.639 112.579,151.639 111.047,151.639 111.047C151.639 111.047,151.091 111.183,150.435 111.348C149.751 111.512,149.204 111.648,149.204 111.648C149.204 111.648,149.204 113.29,149.204 115.287C149.204 118.872,149.204 118.899,149.149 119.008C149.067 119.227,148.848 119.364,148.629 119.364C148.492 119.364,148.328 119.309,148.219 119.2C148.082 119.036,148.082 119.282,148.082 117.066C148.082 116.628,148.082 116.081,148.082 115.424C148.082 112.168,148.082 111.949,148.054 111.949C148.054 111.949,148.054 111.949,148.027 111.949C147.699 112.032,146.686 112.25,146.604 112.25C146.358 112.25,146.139 112.114,146.057 111.922C146.03 111.84,146.03 111.211,146.03 110.581C146.03 109.952,146.03 109.323,146.057 109.241C146.167 108.995,146.221 108.967,147.261 108.694L148.082 108.502L148.082 105.575C148.082 102.866,148.082 102.674,148.054 102.674C148.054 102.674,148.054 102.674,148.027 102.674C147.699 102.756,146.686 103.003,146.604 103.003C146.358 103.003,146.139 102.866,146.057 102.647C146.03 102.592,146.03 101.936,146.03 101.306C146.03 100.677,146.03 100.048,146.057 99.966C146.167 99.72,146.221 99.692,147.261 99.446L148.082 99.254L148.082 95.698C148.082 92.168,148.082 92.141,148.109 92.059C148.191 91.812,148.41 91.703,148.629 91.703C148.766 91.703,148.93 91.758,149.039 91.867C149.176 92.004,149.204 91.758,149.204 93.947C149.204 94.384,149.204 94.904,149.204 95.561C149.204 97.421,149.204 98.953,149.204 98.953C149.204 98.953,149.751 98.817,150.407 98.68C151.091 98.516,151.639 98.379,151.639 98.379C151.639 98.379,151.639 96.737,151.639 94.74C151.639 91.128,151.639 91.101,151.693 90.992C151.721 90.882,151.857 90.745,151.994 90.691M151.639 104.699C151.639 102.401,151.639 101.799,151.639 101.799L151.639 101.799C151.611 101.799,151.42 101.826,151.201 101.908C150.982 101.963,150.435 102.072,149.997 102.182L149.204 102.401L149.204 105.301C149.204 106.915,149.204 108.228,149.204 108.228C149.204 108.228,149.751 108.092,150.407 107.928C151.091 107.763,151.639 107.627,151.639 107.627C151.639 107.627,151.639 106.313,151.639 104.699"/></g><g class="vf-notehead" id="vf-auto15036" pointer-events="bounding-box"><path stroke="none" d="M178.04 89.889C178.124 89.889,178.208 89.889,178.349 89.889C178.714 89.889,179.247 89.918,179.444 89.946C181.774 90.283,182.926 91.827,182.926 93.624C182.926 95.534,181.634 97.724,179.051 99.128C177.787 99.802,176.495 100.111,175.316 100.111C173.154 100.111,171.385 99.044,171.02 97.162C170.964 96.881,170.936 96.629,170.936 96.376C170.936 93.343,174.193 90.283,178.04 89.889"/><path stroke="none" d="M140.13 80.691C140.184 80.663,140.266 80.636,140.348 80.636C140.567 80.636,140.786 80.773,140.868 80.992C140.896 81.101,140.896 81.128,140.896 84.603C140.896 87.859,140.896 88.078,140.95 88.078C140.95 88.078,140.95 88.078,140.95 88.078C141.251 87.996,142.373 87.75,142.455 87.75C142.701 87.75,142.893 87.886,142.975 88.078C143.002 88.16,143.03 88.789,143.03 89.419C143.03 90.048,143.002 90.677,142.975 90.759C142.893 91.033,142.838 91.033,141.744 91.306L140.896 91.525L140.896 94.425C140.896 97.134,140.896 97.353,140.923 97.353C140.95 97.353,140.95 97.353,140.95 97.353C141.251 97.244,142.373 96.997,142.455 96.997C142.619 96.997,142.729 97.052,142.866 97.161C143.002 97.326,143.002 97.271,143.002 98.311C143.002 98.42,143.002 98.557,143.002 98.694C143.002 98.83,143.002 98.94,143.002 99.049C143.002 100.116,143.002 100.062,142.866 100.198C142.729 100.335,142.729 100.335,141.744 100.581L140.896 100.773L140.896 104.33C140.896 107.832,140.896 107.859,140.868 107.941C140.786 108.188,140.567 108.297,140.348 108.297C140.212 108.297,140.048 108.242,139.938 108.133C139.801 107.996,139.774 108.242,139.774 106.053C139.774 105.616,139.774 105.096,139.774 104.467C139.774 102.579,139.774 101.047,139.774 101.047C139.774 101.047,139.227 101.183,138.57 101.348C137.886 101.512,137.339 101.648,137.339 101.648C137.339 101.648,137.339 103.29,137.339 105.287C137.339 108.872,137.339 108.899,137.284 109.008C137.202 109.227,136.983 109.364,136.764 109.364C136.628 109.364,136.463 109.309,136.354 109.2C136.217 109.036,136.217 109.282,136.217 107.066C136.217 106.628,136.217 106.081,136.217 105.424C136.217 102.168,136.217 101.949,136.19 101.949C136.19 101.949,136.19 101.949,136.162 101.949C135.834 102.032,134.822 102.25,134.74 102.25C134.493 102.25,134.275 102.114,134.192 101.922C134.165 101.84,134.165 101.211,134.165 100.581C134.165 99.952,134.165 99.323,134.192 99.241C134.302 98.995,134.357 98.967,135.396 98.694L136.217 98.502L136.217 95.575C136.217 92.866,136.217 92.674,136.19 92.674C136.19 92.674,136.19 92.674,136.162 92.674C135.834 92.756,134.822 93.003,134.74 93.003C134.493 93.003,134.275 92.866,134.192 92.647C134.165 92.592,134.165 91.936,134.165 91.306C134.165 90.677,134.165 90.048,134.192 89.966C134.302 89.72,134.357 89.692,135.396 89.446L136.217 89.254L136.217 85.698C136.217 82.168,136.217 82.141,136.244 82.059C136.327 81.812,136.545 81.703,136.764 81.703C136.901 81.703,137.065 81.758,137.175 81.867C137.312 82.004,137.339 81.758,137.339 83.947C137.339 84.384,137.339 84.904,137.339 85.561C137.339 87.421,137.339 88.953,137.339 88.953C137.339 88.953,137.886 88.817,138.543 88.68C139.227 88.516,139.774 88.379,139.774 88.379C139.774 88.379,139.774 86.737,139.774 84.74C139.774 81.128,139.774 81.101,139.829 80.992C139.856 80.882,139.993 80.745,140.13 80.691M139.774 94.699C139.774 92.401,139.774 91.799,139.774 91.799L139.774 91.799C139.747 91.799,139.555 91.826,139.336 91.908C139.117 91.963,138.57 92.072,138.132 92.182L137.339 92.401L137.339 95.301C137.339 96.915,137.339 98.228,137.339 98.228C137.339 98.228,137.886 98.092,138.543 97.928C139.227 97.763,139.774 97.627,139.774 97.627C139.774 97.627,139.774 96.313,139.774 94.699"/></g><g class="vf-notehead" id="vf-auto15037" pointer-events="bounding-box"><path stroke="none" d="M178.04 79.889C178.124 79.889,178.208 79.889,178.349 79.889C178.714 79.889,179.247 79.918,179.444 79.946C181.774 80.283,182.926 81.827,182.926 83.624C182.926 85.534,181.634 87.724,179.051 89.128C177.787 89.802,176.495 90.111,175.316 90.111C173.154 90.111,171.385 89.044,171.02 87.162C170.964 86.881,170.936 86.629,170.936 86.376C170.936 83.343,174.193 80.283,178.04 79.889"/><path stroke="none" d="M157.894 81.662L157.894 79.993L159.591 79.993L161.26 79.993L161.26 81.252L161.26 82.538L162.08 83.358L162.901 84.179L163.749 83.358L164.57 82.538L164.57 81.252L164.57 79.993L166.239 79.993L167.936 79.993L167.936 81.662L167.936 83.358L166.65 83.358L165.364 83.358L164.543 84.179L163.722 85L164.543 85.821L165.364 86.642L166.65 86.642L167.936 86.642L167.936 88.338L167.936 90.007L166.239 90.007L164.57 90.007L164.57 88.748L164.57 87.462L163.749 86.642L162.901 85.821L162.08 86.642L161.26 87.462L161.26 88.748L161.26 90.007L159.591 90.007L157.894 90.007L157.894 88.338L157.894 86.642L159.18 86.642L160.439 86.642L161.26 85.821L162.108 85L161.26 84.179L160.439 83.358L159.18 83.358L157.894 83.358"/></g><path stroke="none" d="M181.45 51.987L181.45 48.14L181.534 48.14C181.787 48.14,181.983 48.281,182.096 48.59C182.91 50.527,184.819 52.97,187.599 55.61C189.79 57.744,190.969 60.608,190.969 63.612C190.969 64.904,190.772 66.224,190.323 67.516L190.211 67.824L190.323 68.133C190.772 69.341,190.969 70.604,190.969 71.896C190.969 74.479,190.098 77.119,188.47 79.281C187.852 80.067,187.712 80.18,187.431 80.18C187.066 80.18,186.841 79.927,186.841 79.618C186.841 79.478,186.897 79.309,187.01 79.197C188.751 77.203,189.649 74.788,189.649 72.345C189.649 71.924,189.621 71.475,189.565 71.054C189.509 70.717,189.481 70.408,189.425 70.267C189.425 70.239,189.368 70.071,189.34 69.902C188.835 67.993,187.656 66.28,186.111 65.185C185.241 64.595,183.444 64.146,181.843 64.146C181.674 64.146,181.534 64.146,181.506 64.146L181.45 64.118L181.45 60.271L181.45 56.424L181.534 56.424C181.787 56.424,181.983 56.564,182.096 56.873C182.91 58.811,184.848 61.31,187.571 63.893C188.301 64.567,188.947 65.382,189.368 66.084C189.396 66.112,189.396 66.14,189.425 66.14C189.425 66.14,189.453 66.084,189.481 65.943C189.593 65.325,189.649 64.708,189.649 64.062C189.649 63.472,189.593 62.882,189.481 62.293C189.481 62.18,189.453 62.04,189.425 62.012C189.425 61.956,189.368 61.787,189.34 61.619C188.835 59.709,187.656 57.996,186.111 56.901C185.241 56.312,183.444 55.862,181.843 55.862C181.674 55.862,181.534 55.862,181.506 55.862L181.45 55.834"/></g><g class="vf-stavenote" id="vf-auto15045"><g class="vf-stem" id="vf-auto15046" pointer-events="bounding-box"><path stroke-width="1.5" fill="none" d="M261.579 78.5L261.579 23"/></g><g class="vf-notehead" id="vf-auto15052" pointer-events="bounding-box"><path stroke="none" d="M257.443 74.889C257.527 74.889,257.611 74.889,257.752 74.889C258.117 74.889,258.65 74.918,258.847 74.946C261.178 75.283,262.329 76.827,262.329 78.624C262.329 80.534,261.037 82.724,258.454 84.128C257.19 84.802,255.899 85.111,254.719 85.111C252.557 85.111,250.788 84.044,250.423 82.162C250.367 81.881,250.339 81.629,250.339 81.376C250.339 78.343,253.596 75.283,257.443 74.889"/><path stroke="none" d="M220.272 63.119C220.326 63.092,220.408 63.092,220.49 63.092C220.709 63.092,220.928 63.228,221.01 63.447C221.065 63.529,221.065 63.529,221.065 69.767L221.065 76.005L221.12 75.951C222.132 75.103,223.199 74.637,224.266 74.637C224.676 74.637,225.087 74.72,225.47 74.856C226.674 75.294,227.358 76.388,227.358 77.729C227.358 78.44,227.139 79.207,226.728 79.973C226.154 81.04,225.388 81.888,223.226 83.803C222.077 84.843,221.804 85.089,221.147 85.718C220.764 86.074,220.709 86.101,220.49 86.101C220.244 86.101,220.053 85.964,219.971 85.773L219.916 85.664L219.916 74.61L219.916 63.529L219.971 63.447C219.998 63.31,220.135 63.174,220.272 63.119M223.555 76.471C223.445 76.443,223.226 76.416,223.09 76.416C223.035 76.416,223.008 76.416,222.98 76.443C222.269 76.525,221.64 76.963,221.174 77.647L221.065 77.839L221.065 80.985L221.065 84.159L221.147 84.049C223.144 81.86,224.43 79.371,224.43 77.729C224.43 77.565,224.43 77.401,224.403 77.264C224.321 76.881,223.992 76.553,223.555 76.471"/></g><g class="vf-notehead" id="vf-auto15053" pointer-events="bounding-box"><path stroke="none" d="M268.683 69.889C268.767 69.889,268.852 69.889,268.992 69.889C269.357 69.889,269.891 69.918,270.087 69.946C272.418 70.283,273.569 71.827,273.569 73.624C273.569 75.534,272.277 77.724,269.694 79.128C268.43 79.802,267.139 80.111,265.959 80.111C263.797 80.111,262.028 79.044,261.663 77.162C261.607 76.881,261.579 76.629,261.579 76.376C261.579 73.343,264.836 70.283,268.683 69.889"/><path stroke="none" d="M230.713 58.119C230.768 58.092,230.85 58.092,230.932 58.092C231.151 58.092,231.37 58.228,231.452 58.447C231.507 58.529,231.507 58.529,231.507 64.767L231.507 71.005L231.562 70.951C232.574 70.103,233.641 69.637,234.708 69.637C235.118 69.637,235.529 69.72,235.912 69.856C237.116 70.294,237.8 71.388,237.8 72.729C237.8 73.44,237.581 74.207,237.17 74.973C236.596 76.04,235.83 76.888,233.668 78.803C232.519 79.843,232.246 80.089,231.589 80.718C231.206 81.074,231.151 81.101,230.932 81.101C230.686 81.101,230.495 80.964,230.412 80.773L230.358 80.664L230.358 69.61L230.358 58.529L230.412 58.447C230.44 58.31,230.577 58.174,230.713 58.119M233.997 71.471C233.887 71.443,233.668 71.416,233.532 71.416C233.477 71.416,233.449 71.416,233.422 71.443C232.711 71.525,232.081 71.963,231.616 72.647L231.507 72.839L231.507 75.985L231.507 79.159L231.589 79.049C233.586 76.86,234.872 74.371,234.872 72.729C234.872 72.565,234.872 72.401,234.845 72.264C234.763 71.881,234.434 71.553,233.997 71.471"/></g><g class="vf-notehead" id="vf-auto15054" pointer-events="bounding-box"><path stroke="none" d="M257.443 59.889C257.527 59.889,257.611 59.889,257.752 59.889C258.117 59.889,258.65 59.918,258.847 59.946C261.178 60.283,262.329 61.827,262.329 63.624C262.329 65.534,261.037 67.724,258.454 69.128C257.19 69.802,255.899 70.111,254.719 70.111C252.557 70.111,250.788 69.044,250.423 67.162C250.367 66.881,250.339 66.629,250.339 66.376C250.339 63.343,253.596 60.283,257.443 59.889"/></g><g class="vf-notehead" id="vf-auto15055" pointer-events="bounding-box"><path stroke="none" d="M257.443 49.889C257.527 49.889,257.611 49.889,257.752 49.889C258.117 49.889,258.65 49.918,258.847 49.946C261.178 50.283,262.329 51.827,262.329 53.624C262.329 55.534,261.037 57.724,258.454 59.128C257.19 59.802,255.899 60.111,254.719 60.111C252.557 60.111,250.788 59.044,250.423 57.162C250.367 56.881,250.339 56.629,250.339 56.376C250.339 53.343,253.596 50.283,257.443 49.889"/><path stroke="none" d="M241.128 42.688C241.21 42.661,241.292 42.661,241.347 42.661C241.593 42.661,241.812 42.77,241.894 42.989C241.921 43.098,241.921 43.126,241.921 46.3C241.921 48.57,241.921 49.501,241.949 49.501C241.949 49.501,243.016 49.227,244.302 48.926C246.19 48.461,246.627 48.324,246.819 48.324C246.901 48.324,246.928 48.352,246.983 48.379C247.12 48.406,247.257 48.543,247.284 48.68L247.339 48.762L247.339 57.845L247.339 66.902L247.284 67.011C247.202 67.23,246.983 67.339,246.764 67.339C246.627 67.339,246.463 67.312,246.354 67.203C246.217 67.038,246.19 67.285,246.19 65.068C246.19 64.685,246.19 64.22,246.19 63.646C246.19 61.293,246.19 60.363,246.19 60.363C246.162 60.363,245.095 60.636,243.809 60.937C241.949 61.402,241.484 61.512,241.292 61.512C241.237 61.512,241.183 61.512,241.155 61.484C241.019 61.457,240.882 61.32,240.827 61.183L240.8 61.074L240.8 52.1L240.8 43.098L240.827 42.989C240.882 42.88,241.019 42.743,241.128 42.688M246.19 54.398C246.19 53.851,246.19 53.44,246.19 53.085C246.19 51.963,246.19 51.881,246.162 51.881L246.162 51.881C246.162 51.881,245.205 52.127,244.028 52.401L241.921 52.921L241.921 55.465C241.921 55.903,241.921 56.286,241.921 56.587C241.921 57.681,241.921 57.982,241.949 57.982C241.949 57.982,242.906 57.736,244.083 57.462L246.19 56.943"/></g><path stroke="none" d="M260.853 21.987L260.853 18.14L260.937 18.14C261.19 18.14,261.387 18.281,261.499 18.59C262.313 20.527,264.223 22.97,267.003 25.61C269.193 27.744,270.372 30.608,270.372 33.612C270.372 34.904,270.176 36.224,269.726 37.516L269.614 37.824L269.726 38.133C270.176 39.341,270.372 40.604,270.372 41.896C270.372 44.479,269.502 47.119,267.873 49.281C267.255 50.067,267.115 50.18,266.834 50.18C266.469 50.18,266.244 49.927,266.244 49.618C266.244 49.478,266.301 49.309,266.413 49.197C268.154 47.203,269.052 44.788,269.052 42.345C269.052 41.924,269.024 41.475,268.968 41.054C268.912 40.717,268.884 40.408,268.828 40.267C268.828 40.239,268.772 40.071,268.744 39.902C268.238 37.993,267.059 36.28,265.514 35.185C264.644 34.595,262.847 34.146,261.246 34.146C261.078 34.146,260.937 34.146,260.909 34.146L260.853 34.118L260.853 30.271L260.853 26.424L260.937 26.424C261.19 26.424,261.387 26.564,261.499 26.873C262.313 28.811,264.251 31.31,266.974 33.893C267.705 34.567,268.35 35.382,268.772 36.084C268.8 36.112,268.8 36.14,268.828 36.14C268.828 36.14,268.856 36.084,268.884 35.943C268.996 35.325,269.052 34.708,269.052 34.062C269.052 33.472,268.996 32.882,268.884 32.293C268.884 32.18,268.856 32.04,268.828 32.012C268.828 31.956,268.772 31.787,268.744 31.619C268.238 29.709,267.059 27.996,265.514 26.901C264.644 26.312,262.847 25.862,261.246 25.862C261.078 25.862,260.937 25.862,260.909 25.862L260.853 25.834"/></g><g class="vf-stavenote" id="vf-auto15063"><g class="vf-stem" id="vf-auto15064" pointer-events="bounding-box"><path stroke-width="1.5" fill="none" d="M363.578 88.5L363.578 30"/></g><g class="vf-notehead" id="vf-auto15069" pointer-events="bounding-box"><path stroke="none" d="M359.442 84.889C359.526 84.889,359.61 84.889,359.751 84.889C360.116 84.889,360.649 84.918,360.846 84.946C363.177 85.283,364.328 86.827,364.328 88.624C364.328 90.534,363.036 92.724,360.453 94.128C359.189 94.802,357.898 95.111,356.718 95.111C354.556 95.111,352.787 94.044,352.422 92.162C352.366 91.881,352.338 91.629,352.338 91.376C352.338 88.343,355.595 85.283,359.442 84.889"/><path stroke="none" d="M347.725 82.722C347.765 82.722,347.806 82.702,347.866 82.702C348.027 82.702,348.068 82.742,348.269 83.045C349.68 85.242,350.386 87.621,350.386 90C350.386 92.379,349.68 94.738,348.269 96.955C348.108 97.197,348.007 97.298,347.866 97.298C347.826 97.298,347.785 97.278,347.725 97.258C347.624 97.197,347.564 97.137,347.564 97.016C347.564 96.935,347.604 96.794,347.664 96.612C348.511 94.596,348.914 92.298,348.914 90C348.914 87.702,348.511 85.383,347.664 83.367C347.604 83.186,347.564 83.065,347.564 82.964C347.564 82.843,347.624 82.783,347.725 82.722"/><path stroke="none" d="M341.294 77.561C341.334 77.541,341.395 77.541,341.455 77.541C341.616 77.541,341.778 77.642,341.838 77.803C341.879 77.864,341.879 77.864,341.879 82.46L341.879 87.057L341.919 87.016C342.665 86.391,343.451 86.049,344.237 86.049C344.54 86.049,344.842 86.109,345.124 86.21C346.011 86.532,346.515 87.339,346.515 88.327C346.515 88.851,346.354 89.415,346.052 89.98C345.628 90.766,345.064 91.391,343.471 92.802C342.624 93.568,342.423 93.75,341.939 94.213C341.657 94.476,341.616 94.496,341.455 94.496C341.274 94.496,341.133 94.395,341.072 94.254L341.032 94.173L341.032 86.028L341.032 77.864L341.072 77.803C341.092 77.702,341.193 77.602,341.294 77.561M343.713 87.399C343.632 87.379,343.471 87.359,343.37 87.359C343.33 87.359,343.31 87.359,343.29 87.379C342.766 87.44,342.302 87.762,341.959 88.266L341.879 88.407L341.879 90.726L341.879 93.064L341.939 92.984C343.411 91.371,344.358 89.536,344.358 88.327C344.358 88.206,344.358 88.085,344.338 87.984C344.278 87.702,344.036 87.46,343.713 87.399"/><path stroke="none" d="M338.588 82.742C338.629 82.722,338.669 82.702,338.729 82.702C338.85 82.702,338.971 82.783,339.012 82.884C339.032 82.924,339.032 82.964,339.032 83.004C339.032 83.085,339.012 83.186,338.931 83.388C338.225 85.101,337.842 86.835,337.701 88.972C337.701 89.153,337.681 89.577,337.681 90C337.681 90.423,337.701 90.847,337.701 91.028C337.842 93.165,338.225 94.899,338.931 96.612C339.032 96.875,339.032 96.915,339.032 96.975C339.032 97.177,338.911 97.298,338.729 97.298C338.568 97.298,338.528 97.258,338.326 96.955C336.915 94.758,336.209 92.379,336.209 90C336.209 87.621,336.915 85.242,338.326 83.045C338.467 82.823,338.528 82.763,338.588 82.742"/></g><g class="vf-notehead" id="vf-auto15070" pointer-events="bounding-box"><path stroke="none" d="M359.442 74.889C359.526 74.889,359.61 74.889,359.751 74.889C360.116 74.889,360.649 74.918,360.846 74.946C363.177 75.283,364.328 76.827,364.328 78.624C364.328 80.534,363.036 82.724,360.453 84.128C359.189 84.802,357.898 85.111,356.718 85.111C354.556 85.111,352.787 84.044,352.422 82.162C352.366 81.881,352.338 81.629,352.338 81.376C352.338 78.343,355.595 75.283,359.442 74.889"/><path stroke="none" d="M312.835 72.722C312.875 72.722,312.915 72.702,312.976 72.702C313.137 72.702,313.177 72.742,313.379 73.045C314.79 75.242,315.496 77.621,315.496 80C315.496 82.379,314.79 84.738,313.379 86.955C313.218 87.197,313.117 87.298,312.976 87.298C312.935 87.298,312.895 87.278,312.835 87.258C312.734 87.197,312.673 87.137,312.673 87.016C312.673 86.935,312.714 86.794,312.774 86.612C313.621 84.596,314.024 82.298,314.024 80C314.024 77.702,313.621 75.383,312.774 73.367C312.714 73.186,312.673 73.065,312.673 72.964C312.673 72.843,312.734 72.783,312.835 72.722"/><path stroke="none" d="M306.404 67.561C306.444 67.541,306.504 67.541,306.565 67.541C306.726 67.541,306.887 67.642,306.948 67.803C306.988 67.864,306.988 67.864,306.988 72.46L306.988 77.057L307.028 77.016C307.774 76.391,308.561 76.049,309.347 76.049C309.649 76.049,309.952 76.109,310.234 76.21C311.121 76.532,311.625 77.339,311.625 78.327C311.625 78.851,311.464 79.415,311.161 79.98C310.738 80.766,310.173 81.391,308.581 82.802C307.734 83.568,307.532 83.75,307.049 84.213C306.766 84.476,306.726 84.496,306.565 84.496C306.383 84.496,306.242 84.395,306.182 84.254L306.141 84.173L306.141 76.028L306.141 67.864L306.182 67.803C306.202 67.702,306.303 67.602,306.404 67.561M308.823 77.399C308.742 77.379,308.581 77.359,308.48 77.359C308.44 77.359,308.42 77.359,308.399 77.379C307.875 77.44,307.412 77.762,307.069 78.266L306.988 78.407L306.988 80.726L306.988 83.064L307.049 82.984C308.52 81.371,309.468 79.536,309.468 78.327C309.468 78.206,309.468 78.085,309.448 77.984C309.387 77.702,309.145 77.46,308.823 77.399"/><path stroke="none" d="M303.698 72.742C303.738 72.722,303.779 72.702,303.839 72.702C303.96 72.702,304.081 72.783,304.121 72.884C304.141 72.924,304.141 72.964,304.141 73.004C304.141 73.085,304.121 73.186,304.041 73.388C303.335 75.101,302.952 76.835,302.811 78.972C302.811 79.153,302.791 79.577,302.791 80C302.791 80.423,302.811 80.847,302.811 81.028C302.952 83.165,303.335 84.899,304.041 86.612C304.141 86.875,304.141 86.915,304.141 86.975C304.141 87.177,304.02 87.298,303.839 87.298C303.678 87.298,303.637 87.258,303.436 86.955C302.025 84.758,301.319 82.379,301.319 80C301.319 77.621,302.025 75.242,303.436 73.045C303.577 72.823,303.637 72.763,303.698 72.742"/></g><g class="vf-notehead" id="vf-auto15071" pointer-events="bounding-box"><path stroke="none" d="M359.442 64.889C359.526 64.889,359.61 64.889,359.751 64.889C360.116 64.889,360.649 64.918,360.846 64.946C363.177 65.283,364.328 66.827,364.328 68.624C364.328 70.534,363.036 72.724,360.453 74.128C359.189 74.802,357.898 75.111,356.718 75.111C354.556 75.111,352.787 74.044,352.422 72.162C352.366 71.881,352.338 71.629,352.338 71.376C352.338 68.343,355.595 65.283,359.442 64.889"/><path stroke="none" d="M317.803 53.119C317.858 53.092,317.94 53.092,318.022 53.092C318.241 53.092,318.46 53.228,318.542 53.447C318.596 53.529,318.596 53.529,318.596 59.767L318.596 66.005L318.651 65.951C319.664 65.103,320.813 64.637,321.852 64.637C322.536 64.637,323.166 64.829,323.685 65.212L323.768 65.267L323.768 59.384L323.795 53.475L323.822 53.392C323.932 53.201,324.123 53.092,324.342 53.092C324.561 53.092,324.78 53.201,324.862 53.447C324.889 53.529,324.889 53.529,324.889 59.767L324.889 66.005L324.971 65.951C325.984 65.103,327.051 64.637,328.09 64.637C328.528 64.637,328.939 64.72,329.322 64.856C330.525 65.294,331.209 66.388,331.209 67.729C331.209 68.44,330.991 69.207,330.58 69.973C330.006 71.04,329.212 71.888,327.078 73.803C325.929 74.843,325.655 75.089,324.999 75.718C324.616 76.074,324.561 76.101,324.342 76.101C324.178 76.101,324.041 76.047,323.932 75.937C323.795 75.8,323.768 75.964,323.768 74.213C323.768 73.94,323.768 73.612,323.768 73.201L323.768 70.766L323.631 70.93C323.001 71.724,322.4 72.353,320.758 73.803C319.609 74.843,319.335 75.089,318.679 75.718C318.296 76.074,318.241 76.101,318.022 76.101C317.776 76.101,317.584 75.964,317.502 75.773L317.447 75.664L317.447 64.61L317.447 53.529L317.502 53.447C317.529 53.31,317.666 53.174,317.803 53.119M321.086 66.471C320.977 66.443,320.758 66.416,320.621 66.416C320.566 66.416,320.539 66.416,320.512 66.443C319.8 66.525,319.171 66.963,318.706 67.647L318.596 67.839L318.596 70.985L318.596 74.159L318.679 74.049C320.676 71.86,321.962 69.371,321.962 67.729C321.962 67.565,321.962 67.401,321.934 67.264C321.852 66.881,321.524 66.553,321.086 66.471M327.379 66.471C327.297 66.443,327.078 66.416,326.941 66.416C326.887 66.416,326.859 66.416,326.832 66.443C326.12 66.525,325.491 66.963,325.026 67.647L324.889 67.839L324.889 70.985L324.889 74.159L324.999 74.049C326.996 71.86,328.282 69.371,328.282 67.729C328.282 67.565,328.282 67.401,328.227 67.264C328.172 66.881,327.844 66.553,327.379 66.471"/></g><g class="vf-notehead" id="vf-auto15072" pointer-events="bounding-box"><path stroke="none" d="M370.682 59.889C370.766 59.889,370.851 59.889,370.991 59.889C371.356 59.889,371.89 59.918,372.086 59.946C374.417 60.283,375.568 61.827,375.568 63.624C375.568 65.534,374.276 67.724,371.693 69.128C370.429 69.802,369.138 70.111,367.958 70.111C365.796 70.111,364.027 69.044,363.662 67.162C363.606 66.881,363.578 66.629,363.578 66.376C363.578 63.343,366.835 60.283,370.682 59.889"/><path stroke="none" d="M342.252 48.119C342.306 48.092,342.388 48.092,342.47 48.092C342.689 48.092,342.908 48.228,342.99 48.447C343.045 48.529,343.045 48.529,343.045 54.767L343.045 61.005L343.1 60.951C344.112 60.103,345.179 59.637,346.246 59.637C346.656 59.637,347.067 59.72,347.45 59.856C348.654 60.294,349.338 61.388,349.338 62.729C349.338 63.44,349.119 64.207,348.708 64.973C348.134 66.04,347.368 66.888,345.206 68.803C344.057 69.843,343.784 70.089,343.127 70.718C342.744 71.074,342.689 71.101,342.47 71.101C342.224 71.101,342.033 70.964,341.951 70.773L341.896 70.664L341.896 59.61L341.896 48.529L341.951 48.447C341.978 48.31,342.115 48.174,342.252 48.119M345.535 61.471C345.425 61.443,345.206 61.416,345.07 61.416C345.015 61.416,344.988 61.416,344.96 61.443C344.249 61.525,343.62 61.963,343.154 62.647L343.045 62.839L343.045 65.985L343.045 69.159L343.127 69.049C345.124 66.86,346.41 64.371,346.41 62.729C346.41 62.565,346.41 62.401,346.383 62.264C346.301 61.881,345.972 61.553,345.535 61.471"/></g></g><g class="vf-stavenote" id="vf-auto15087"><path stroke-width="1.4" fill="none" stroke="#444" d="M445.9 100L463.89 100"/><g class="vf-stem" id="vf-auto15088" pointer-events="bounding-box"><path stroke-width="1.5" fill="none" d="M460.14 103.5L460.14 13"/></g><g class="vf-notehead" id="vf-auto15095" pointer-events="bounding-box"><path stroke="none" d="M456.004 99.889C456.088 99.889,456.172 99.889,456.313 99.889C456.678 99.889,457.211 99.918,457.408 99.946C459.738 100.283,460.89 101.827,460.89 103.624C460.89 105.534,459.598 107.724,457.015 109.128C455.751 109.802,454.459 110.111,453.28 110.111C451.118 110.111,449.349 109.044,448.984 107.162C448.928 106.881,448.9 106.629,448.9 106.376C448.9 103.343,452.157 100.283,456.004 99.889"/><path stroke="none" d="M432.493 88.119C432.548 88.092,432.63 88.092,432.712 88.092C432.931 88.092,433.15 88.228,433.232 88.447C433.287 88.529,433.287 88.529,433.287 94.767L433.287 101.005L433.341 100.951C434.354 100.103,435.503 99.637,436.542 99.637C437.226 99.637,437.856 99.829,438.376 100.212L438.458 100.267L438.458 94.384L438.485 88.475L438.512 88.392C438.622 88.201,438.813 88.092,439.032 88.092C439.251 88.092,439.47 88.201,439.552 88.447C439.579 88.529,439.579 88.529,439.579 94.767L439.579 101.005L439.662 100.951C440.674 100.103,441.741 99.637,442.781 99.637C443.218 99.637,443.629 99.72,444.012 99.856C445.216 100.294,445.9 101.388,445.9 102.729C445.9 103.44,445.681 104.207,445.27 104.973C444.696 106.04,443.902 106.888,441.768 108.803C440.619 109.843,440.346 110.089,439.689 110.718C439.306 111.074,439.251 111.101,439.032 111.101C438.868 111.101,438.731 111.047,438.622 110.937C438.485 110.8,438.458 110.964,438.458 109.213C438.458 108.94,438.458 108.612,438.458 108.201L438.458 105.766L438.321 105.93C437.692 106.724,437.09 107.353,435.448 108.803C434.299 109.843,434.025 110.089,433.369 110.718C432.986 111.074,432.931 111.101,432.712 111.101C432.466 111.101,432.274 110.964,432.192 110.773L432.138 110.664L432.138 99.61L432.138 88.529L432.192 88.447C432.22 88.31,432.356 88.174,432.493 88.119M435.776 101.471C435.667 101.443,435.448 101.416,435.311 101.416C435.257 101.416,435.229 101.416,435.202 101.443C434.49 101.525,433.861 101.963,433.396 102.647L433.287 102.839L433.287 105.985L433.287 109.159L433.369 109.049C435.366 106.86,436.652 104.371,436.652 102.729C436.652 102.565,436.652 102.401,436.625 102.264C436.542 101.881,436.214 101.553,435.776 101.471M442.069 101.471C441.987 101.443,441.768 101.416,441.631 101.416C441.577 101.416,441.549 101.416,441.522 101.443C440.811 101.525,440.181 101.963,439.716 102.647L439.579 102.839L439.579 105.985L439.579 109.159L439.689 109.049C441.686 106.86,442.972 104.371,442.972 102.729C442.972 102.565,442.972 102.401,442.917 102.264C442.863 101.881,442.534 101.553,442.069 101.471"/></g><g class="vf-notehead" id="vf-auto15096" pointer-events="bounding-box"><path stroke="none" d="M456.004 84.889C456.088 84.889,456.172 84.889,456.313 84.889C456.678 84.889,457.211 84.918,457.408 84.946C459.738 85.283,460.89 86.827,460.89 88.624C460.89 90.534,459.598 92.724,457.015 94.128C455.751 94.802,454.459 95.111,453.28 95.111C451.118 95.111,449.349 94.044,448.984 92.162C448.928 91.881,448.9 91.629,448.9 91.376C448.9 88.343,452.157 85.283,456.004 84.889"/><path stroke="none" d="M426.824 82.722C426.864 82.722,426.904 82.702,426.965 82.702C427.126 82.702,427.166 82.742,427.368 83.045C428.779 85.242,429.485 87.621,429.485 90C429.485 92.379,428.779 94.738,427.368 96.955C427.207 97.197,427.106 97.298,426.965 97.298C426.925 97.298,426.884 97.278,426.824 97.258C426.723 97.197,426.662 97.137,426.662 97.016C426.662 96.935,426.703 96.794,426.763 96.612C427.61 94.596,428.013 92.298,428.013 90C428.013 87.702,427.61 85.383,426.763 83.367C426.703 83.186,426.662 83.065,426.662 82.964C426.662 82.843,426.723 82.783,426.824 82.722"/><path stroke="none" d="M420.393 77.561C420.433 77.541,420.494 77.541,420.554 77.541C420.715 77.541,420.877 77.642,420.937 77.803C420.977 77.864,420.977 77.864,420.977 82.46L420.977 87.057L421.018 87.016C421.764 86.391,422.55 86.049,423.336 86.049C423.638 86.049,423.941 86.109,424.223 86.21C425.11 86.532,425.614 87.339,425.614 88.327C425.614 88.851,425.453 89.415,425.15 89.98C424.727 90.766,424.163 91.391,422.57 92.802C421.723 93.568,421.522 93.75,421.038 94.213C420.756 94.476,420.715 94.496,420.554 94.496C420.373 94.496,420.231 94.395,420.171 94.254L420.131 94.173L420.131 86.028L420.131 77.864L420.171 77.803C420.191 77.702,420.292 77.602,420.393 77.561M422.812 87.399C422.731 87.379,422.57 87.359,422.469 87.359C422.429 87.359,422.409 87.359,422.389 87.379C421.864 87.44,421.401 87.762,421.058 88.266L420.977 88.407L420.977 90.726L420.977 93.064L421.038 92.984C422.51 91.371,423.457 89.536,423.457 88.327C423.457 88.206,423.457 88.085,423.437 87.984C423.376 87.702,423.134 87.46,422.812 87.399"/><path stroke="none" d="M417.687 82.742C417.727 82.722,417.768 82.702,417.828 82.702C417.949 82.702,418.07 82.783,418.11 82.884C418.131 82.924,418.131 82.964,418.131 83.004C418.131 83.085,418.11 83.186,418.03 83.388C417.324 85.101,416.941 86.835,416.8 88.972C416.8 89.153,416.78 89.577,416.78 90C416.78 90.423,416.8 90.847,416.8 91.028C416.941 93.165,417.324 94.899,418.03 96.612C418.131 96.875,418.131 96.915,418.131 96.975C418.131 97.177,418.01 97.298,417.828 97.298C417.667 97.298,417.627 97.258,417.425 96.955C416.014 94.758,415.308 92.379,415.308 90C415.308 87.621,416.014 85.242,417.425 83.045C417.566 82.823,417.627 82.763,417.687 82.742"/></g><g class="vf-notehead" id="vf-auto15097" pointer-events="bounding-box"><path stroke="none" d="M456.004 69.889C456.088 69.889,456.172 69.889,456.313 69.889C456.678 69.889,457.211 69.918,457.408 69.946C459.738 70.283,460.89 71.827,460.89 73.624C460.89 75.534,459.598 77.724,457.015 79.128C455.751 79.802,454.459 80.111,453.28 80.111C451.118 80.111,449.349 79.044,448.984 77.162C448.928 76.881,448.9 76.629,448.9 76.376C448.9 73.343,452.157 70.283,456.004 69.889"/><path stroke="none" d="M444.287 67.722C444.327 67.722,444.367 67.702,444.428 67.702C444.589 67.702,444.63 67.742,444.831 68.045C446.242 70.242,446.948 72.621,446.948 75C446.948 77.379,446.242 79.738,444.831 81.955C444.67 82.197,444.569 82.298,444.428 82.298C444.388 82.298,444.347 82.278,444.287 82.258C444.186 82.197,444.126 82.137,444.126 82.016C444.126 81.935,444.166 81.794,444.226 81.612C445.073 79.596,445.476 77.298,445.476 75C445.476 72.702,445.073 70.383,444.226 68.367C444.166 68.186,444.126 68.065,444.126 67.964C444.126 67.843,444.186 67.783,444.287 67.722"/><path stroke="none" d="M437.501 65.928C437.561 65.908,437.622 65.908,437.662 65.908C437.844 65.908,438.005 65.988,438.065 66.15C438.086 66.23,438.086 66.251,438.086 68.589C438.086 70.262,438.086 70.948,438.106 70.948C438.106 70.948,438.892 70.746,439.839 70.524C441.23 70.182,441.553 70.081,441.694 70.081C441.755 70.081,441.775 70.101,441.815 70.121C441.916 70.141,442.017 70.242,442.037 70.343L442.077 70.404L442.077 77.097L442.077 83.77L442.037 83.85C441.976 84.012,441.815 84.092,441.654 84.092C441.553 84.092,441.432 84.072,441.351 83.991C441.251 83.87,441.23 84.052,441.23 82.419C441.23 82.137,441.23 81.794,441.23 81.371C441.23 79.637,441.23 78.951,441.23 78.951C441.21 78.951,440.424 79.153,439.477 79.375C438.106 79.717,437.763 79.798,437.622 79.798C437.582 79.798,437.541 79.798,437.521 79.778C437.42 79.758,437.319 79.657,437.279 79.556L437.259 79.476L437.259 72.863L437.259 66.23L437.279 66.15C437.319 66.069,437.42 65.968,437.501 65.928M441.23 74.556C441.23 74.153,441.23 73.851,441.23 73.589C441.23 72.762,441.23 72.702,441.21 72.702L441.21 72.702C441.21 72.702,440.505 72.883,439.638 73.085L438.086 73.468L438.086 75.343C438.086 75.665,438.086 75.948,438.086 76.169C438.086 76.976,438.086 77.197,438.106 77.197C438.106 77.197,438.811 77.016,439.678 76.814L441.23 76.431"/><path stroke="none" d="M434.815 67.742C434.856 67.722,434.896 67.702,434.957 67.702C435.078 67.702,435.198 67.783,435.239 67.884C435.259 67.924,435.259 67.964,435.259 68.004C435.259 68.085,435.239 68.186,435.158 68.388C434.453 70.101,434.07 71.835,433.928 73.972C433.928 74.153,433.908 74.577,433.908 75C433.908 75.423,433.928 75.847,433.928 76.028C434.07 78.165,434.453 79.899,435.158 81.612C435.259 81.875,435.259 81.915,435.259 81.975C435.259 82.177,435.138 82.298,434.957 82.298C434.795 82.298,434.755 82.258,434.553 81.955C433.142 79.758,432.437 77.379,432.437 75C432.437 72.621,433.142 70.242,434.553 68.045C434.694 67.823,434.755 67.763,434.815 67.742"/></g><g class="vf-notehead" id="vf-auto15098" pointer-events="bounding-box"><path stroke="none" d="M456.004 54.889C456.088 54.889,456.172 54.889,456.313 54.889C456.678 54.889,457.211 54.918,457.408 54.946C459.738 55.283,460.89 56.827,460.89 58.624C460.89 60.534,459.598 62.724,457.015 64.128C455.751 64.802,454.459 65.111,453.28 65.111C451.118 65.111,449.349 64.044,448.984 62.162C448.928 61.881,448.9 61.629,448.9 61.376C448.9 58.343,452.157 55.283,456.004 54.889"/><path stroke="none" d="M425.536 45.691C425.591 45.663,425.673 45.636,425.755 45.636C425.974 45.636,426.193 45.773,426.275 45.992C426.302 46.101,426.302 46.128,426.302 49.603C426.302 52.859,426.302 53.078,426.357 53.078C426.357 53.078,426.357 53.078,426.357 53.078C426.658 52.996,427.78 52.75,427.862 52.75C428.108 52.75,428.3 52.886,428.382 53.078C428.409 53.16,428.437 53.789,428.437 54.419C428.437 55.048,428.409 55.677,428.382 55.759C428.3 56.033,428.245 56.033,427.151 56.306L426.302 56.525L426.302 59.425C426.302 62.134,426.302 62.353,426.33 62.353C426.357 62.353,426.357 62.353,426.357 62.353C426.658 62.244,427.78 61.997,427.862 61.997C428.026 61.997,428.136 62.052,428.272 62.161C428.409 62.326,428.409 62.271,428.409 63.311C428.409 63.42,428.409 63.557,428.409 63.694C428.409 63.83,428.409 63.94,428.409 64.049C428.409 65.116,428.409 65.062,428.272 65.198C428.136 65.335,428.136 65.335,427.151 65.581L426.302 65.773L426.302 69.33C426.302 72.832,426.302 72.859,426.275 72.941C426.193 73.188,425.974 73.297,425.755 73.297C425.618 73.297,425.454 73.242,425.345 73.133C425.208 72.996,425.181 73.242,425.181 71.053C425.181 70.616,425.181 70.096,425.181 69.467C425.181 67.579,425.181 66.047,425.181 66.047C425.181 66.047,424.634 66.183,423.977 66.348C423.293 66.512,422.746 66.648,422.746 66.648C422.746 66.648,422.746 68.29,422.746 70.287C422.746 73.872,422.746 73.899,422.691 74.008C422.609 74.227,422.39 74.364,422.171 74.364C422.034 74.364,421.87 74.309,421.761 74.2C421.624 74.036,421.624 74.282,421.624 72.066C421.624 71.628,421.624 71.081,421.624 70.424C421.624 67.168,421.624 66.949,421.597 66.949C421.597 66.949,421.597 66.949,421.569 66.949C421.241 67.032,420.229 67.25,420.146 67.25C419.9 67.25,419.681 67.114,419.599 66.922C419.572 66.84,419.572 66.211,419.572 65.581C419.572 64.952,419.572 64.323,419.599 64.241C419.709 63.995,419.763 63.967,420.803 63.694L421.624 63.502L421.624 60.575C421.624 57.866,421.624 57.674,421.597 57.674C421.597 57.674,421.597 57.674,421.569 57.674C421.241 57.756,420.229 58.003,420.146 58.003C419.9 58.003,419.681 57.866,419.599 57.647C419.572 57.592,419.572 56.936,419.572 56.306C419.572 55.677,419.572 55.048,419.599 54.966C419.709 54.72,419.763 54.692,420.803 54.446L421.624 54.254L421.624 50.698C421.624 47.168,421.624 47.141,421.651 47.059C421.733 46.812,421.952 46.703,422.171 46.703C422.308 46.703,422.472 46.758,422.582 46.867C422.718 47.004,422.746 46.758,422.746 48.947C422.746 49.384,422.746 49.904,422.746 50.561C422.746 52.421,422.746 53.953,422.746 53.953C422.746 53.953,423.293 53.817,423.95 53.68C424.634 53.516,425.181 53.379,425.181 53.379C425.181 53.379,425.181 51.737,425.181 49.74C425.181 46.128,425.181 46.101,425.235 45.992C425.263 45.882,425.4 45.745,425.536 45.691M425.181 59.699C425.181 57.401,425.181 56.799,425.181 56.799L425.181 56.799C425.153 56.799,424.962 56.826,424.743 56.908C424.524 56.963,423.977 57.072,423.539 57.182L422.746 57.401L422.746 60.301C422.746 61.915,422.746 63.228,422.746 63.228C422.746 63.228,423.293 63.092,423.95 62.928C424.634 62.763,425.181 62.627,425.181 62.627C425.181 62.627,425.181 61.313,425.181 59.699"/></g><g class="vf-notehead" id="vf-auto15099" pointer-events="bounding-box"><path stroke="none" d="M456.004 39.889C456.088 39.889,456.172 39.889,456.313 39.889C456.678 39.889,457.211 39.918,457.408 39.946C459.738 40.283,460.89 41.827,460.89 43.624C460.89 45.534,459.598 47.724,457.015 49.128C455.751 49.802,454.459 50.111,453.28 50.111C451.118 50.111,449.349 49.044,448.984 47.162C448.928 46.881,448.9 46.629,448.9 46.376C448.9 43.343,452.157 40.283,456.004 39.889"/><path stroke="none" d="M444.287 37.722C444.327 37.722,444.367 37.702,444.428 37.702C444.589 37.702,444.63 37.742,444.831 38.045C446.242 40.242,446.948 42.621,446.948 45C446.948 47.379,446.242 49.738,444.831 51.955C444.67 52.197,444.569 52.298,444.428 52.298C444.388 52.298,444.347 52.278,444.287 52.258C444.186 52.197,444.126 52.137,444.126 52.016C444.126 51.935,444.166 51.794,444.226 51.612C445.073 49.596,445.476 47.298,445.476 45C445.476 42.702,445.073 40.383,444.226 38.367C444.166 38.186,444.126 38.065,444.126 37.964C444.126 37.843,444.186 37.783,444.287 37.722"/><path stroke="none" d="M437.501 35.928C437.561 35.908,437.622 35.908,437.662 35.908C437.844 35.908,438.005 35.988,438.065 36.15C438.086 36.23,438.086 36.251,438.086 38.589C438.086 40.262,438.086 40.948,438.106 40.948C438.106 40.948,438.892 40.746,439.839 40.524C441.23 40.182,441.553 40.081,441.694 40.081C441.755 40.081,441.775 40.101,441.815 40.121C441.916 40.141,442.017 40.242,442.037 40.343L442.077 40.404L442.077 47.097L442.077 53.77L442.037 53.85C441.976 54.012,441.815 54.092,441.654 54.092C441.553 54.092,441.432 54.072,441.351 53.991C441.251 53.87,441.23 54.052,441.23 52.419C441.23 52.137,441.23 51.794,441.23 51.371C441.23 49.637,441.23 48.951,441.23 48.951C441.21 48.951,440.424 49.153,439.477 49.375C438.106 49.717,437.763 49.798,437.622 49.798C437.582 49.798,437.541 49.798,437.521 49.778C437.42 49.758,437.319 49.657,437.279 49.556L437.259 49.476L437.259 42.863L437.259 36.23L437.279 36.15C437.319 36.069,437.42 35.968,437.501 35.928M441.23 44.556C441.23 44.153,441.23 43.851,441.23 43.589C441.23 42.762,441.23 42.702,441.21 42.702L441.21 42.702C441.21 42.702,440.505 42.883,439.638 43.085L438.086 43.468L438.086 45.343C438.086 45.665,438.086 45.948,438.086 46.169C438.086 46.976,438.086 47.197,438.106 47.197C438.106 47.197,438.811 47.016,439.678 46.814L441.23 46.431"/><path stroke="none" d="M434.815 37.742C434.856 37.722,434.896 37.702,434.957 37.702C435.078 37.702,435.198 37.783,435.239 37.884C435.259 37.924,435.259 37.964,435.259 38.004C435.259 38.085,435.239 38.186,435.158 38.388C434.453 40.101,434.07 41.835,433.928 43.972C433.928 44.153,433.908 44.577,433.908 45C433.908 45.423,433.928 45.847,433.928 46.028C434.07 48.165,434.453 49.899,435.158 51.612C435.259 51.875,435.259 51.915,435.259 51.975C435.259 52.177,435.138 52.298,434.957 52.298C434.795 52.298,434.755 52.258,434.553 51.955C433.142 49.758,432.437 47.379,432.437 45C432.437 42.621,433.142 40.242,434.553 38.045C434.694 37.823,434.755 37.763,434.815 37.742"/></g><path stroke="none" d="M459.414 12.409L459.414 8.14L459.498 8.14C459.835 8.14,459.976 8.309,460.088 8.758C460.902 11.819,462.447 14.346,464.89 16.592C467.585 19.092,468.933 22.545,468.933 26.084C468.933 29.172,467.922 32.373,465.844 35.125C465.114 36.108,464.89 36.305,464.609 36.305C464.244 36.305,464.019 36.052,464.019 35.771C464.019 35.603,464.103 35.406,464.244 35.238C466.434 32.682,467.557 29.594,467.557 26.673C467.557 24.09,466.687 21.647,464.946 19.766C463.851 18.614,461.969 17.547,459.442 16.677C459.414 16.677,459.414 15.806,459.414 12.409"/></g><path stroke-width="10" fill="none" stroke="green" d="M480 136L490 136"/><text stroke-width="10" stroke="none" font-size="8pt" x="495" y="140">Note + Flag</text><path stroke-width="10" fill="none" stroke="red" d="M480 148L490 148"/><text stroke-width="10" stroke="none" font-size="8pt" x="495" y="152">Modifiers</text><path stroke-width="10" fill="none" stroke="#999" d="M480 160L490 160"/><text stroke-width="10" stroke="none" font-size="8pt" x="495" y="164">Displaced Head</text><path stroke-width="10" fill="none" stroke="#DDD" d="M480 172L490 172"/><text stroke-width="10" stroke="none" font-size="8pt" x="495" y="176">Formatter Shift</text></svg>