<svg xmlns="http://www.w3.org/2000/svg" stroke-width="0.3" stroke-dasharray="none" fill="black" stroke="black" font-family="Arial, sans-serif" font-size="10pt" font-weight="normal" font-style="normal" width="600" height="200" viewBox="0 0 600 200" style="width: 600px; height: 200px; border: none;"><g class="vf-stave" id="vf-auto15014" stroke-width="1" fill="#999999" stroke="#999999" font-family="Arial"><path fill="none" d="M10 62L560 62"/><path fill="none" d="M10 75L560 75"/><path fill="none" d="M10 88L560 88"/><path fill="none" d="M10 101L560 101"/><path fill="none" d="M10 114L560 114"/><path fill="none" d="M10 127L560 127"/></g><g class="vf-stavebarline" id="vf-auto15015" font-family="Arial"><rect x="10" y="61.5" width="1" height="66" stroke="none"/></g><g class="vf-stavebarline" id="vf-auto15016" font-family="Arial"><rect x="560" y="61.5" width="1" height="66" stroke="none"/></g><g class="vf-tabnote" id="vf-auto15017" pointer-events="bounding-box" font-family="Arial"><rect x="28.703" y="85" width="11.422" height="6" fill="#FFF" stroke="none"/><text stroke="none" font-family="Arial, sans-serif" x="30.703" y="93">6</text><rect x="25" y="98" width="18.828" height="6" fill="#FFF" stroke="none"/><text stroke="none" font-family="Arial, sans-serif" x="27" y="106">25</text><g class="vf-stem" id="vf-auto15018" pointer-events="bounding-box"><path stroke-width="1.5" fill="none" d="M34.414 135L34.414 168.5"/></g></g><g class="vf-tabnote" id="vf-auto15019" pointer-events="bounding-box" font-family="Arial"><rect x="153.493" y="72" width="18.828" height="6" fill="#FFF" stroke="none"/><text stroke="none" font-family="Arial, sans-serif" x="155.493" y="80">10</text><rect x="153.493" y="111" width="18.828" height="6" fill="#FFF" stroke="none"/><text stroke="none" font-family="Arial, sans-serif" x="155.493" y="119">12</text><g class="vf-stem" id="vf-auto15020" pointer-events="bounding-box"><path stroke-width="1.5" fill="none" d="M162.907 135L162.907 168.5"/></g><path stroke="none" d="M169.149 140.223C169.233 140.195,169.317 140.195,169.402 140.195C169.626 140.195,169.795 140.364,170.075 140.757C172.041 143.762,173.052 147.131,173.052 150.36C173.052 152.438,172.631 154.432,171.788 156.257C171.171 157.605,170.272 158.869,169.289 159.767C167.127 161.733,165.639 163.389,164.347 165.215C163.673 166.141,163.027 167.236,162.747 167.938C162.634 168.191,162.438 168.36,162.241 168.36L162.157 168.36L162.157 164.091L162.157 159.851L162.297 159.851C163.084 159.851,164.572 159.571,165.527 159.262C169.121 158.054,171.564 154.067,171.564 149.462C171.564 146.71,170.693 143.846,169.065 141.375C168.84 141.01,168.784 140.954,168.784 140.785C168.784 140.532,168.924 140.308,169.149 140.223"/></g><g class="vf-tabnote" id="vf-auto15023" pointer-events="bounding-box" font-family="Arial"><rect x="234.095" y="59" width="11.422" height="6" fill="#FFF" stroke="none"/><text stroke="none" font-family="Arial, sans-serif" x="236.095" y="67">6</text><rect x="234.095" y="98" width="11.422" height="6" fill="#FFF" stroke="none"/><text stroke="none" font-family="Arial, sans-serif" x="236.095" y="106">5</text><g class="vf-stem" id="vf-auto15024" pointer-events="bounding-box"><path stroke-width="1.5" fill="none" d="M239.806 135L239.806 168.5"/></g><path stroke="none" d="M246.048 140.223C246.132 140.195,246.216 140.195,246.301 140.195C246.525 140.195,246.694 140.364,246.974 140.757C248.94 143.762,249.951 147.131,249.951 150.36C249.951 152.438,249.53 154.432,248.687 156.257C248.07 157.605,247.171 158.869,246.188 159.767C244.026 161.733,242.538 163.389,241.246 165.215C240.572 166.141,239.926 167.236,239.646 167.938C239.533 168.191,239.337 168.36,239.14 168.36L239.056 168.36L239.056 164.091L239.056 159.851L239.196 159.851C239.983 159.851,241.471 159.571,242.426 159.262C246.02 158.054,248.463 154.067,248.463 149.462C248.463 146.71,247.592 143.846,245.964 141.375C245.739 141.01,245.683 140.954,245.683 140.785C245.683 140.532,245.823 140.308,246.048 140.223"/></g><g class="vf-tabnote" id="vf-auto15027" pointer-events="bounding-box" font-family="Arial"><rect x="314.697" y="59" width="11.422" height="6" fill="#FFF" stroke="none"/><text stroke="none" font-family="Arial, sans-serif" x="316.697" y="67">6</text><rect x="314.697" y="98" width="11.422" height="6" fill="#FFF" stroke="none"/><text stroke="none" font-family="Arial, sans-serif" x="316.697" y="106">5</text><g class="vf-stem" id="vf-auto15028" pointer-events="bounding-box"><path stroke-width="1.5" fill="none" d="M320.408 135L320.408 168.5"/></g><path stroke="none" d="M328.672 140.223C328.756 140.195,328.84 140.195,328.896 140.195C329.149 140.195,329.346 140.336,329.486 140.673C330.076 141.908,330.385 143.284,330.385 144.716C330.385 145.896,330.16 147.131,329.739 148.282L329.654 148.563L329.739 148.844C330.16 149.939,330.385 151.09,330.385 152.27C330.385 154.881,329.374 157.521,327.464 159.627C327.071 160.076,326.594 160.525,325.976 161.059C323.561 163.109,321.343 165.776,320.22 168.023C320.107 168.219,319.911 168.36,319.742 168.36L319.658 168.36L319.658 164.653L319.658 160.918L319.939 160.89C322.634 160.469,324.516 159.795,325.864 158.756C327.998 157.071,329.177 154.657,329.177 152.129C329.177 151.512,329.121 150.866,328.981 150.248L328.924 150.051L328.784 150.304C328.082 151.484,327.24 152.41,325.976 153.477C323.561 155.555,321.343 158.195,320.22 160.441C320.107 160.638,319.911 160.806,319.742 160.806L319.658 160.806L319.658 157.071L319.658 153.365L319.939 153.337C322.326 152.972,324.123 152.354,325.386 151.54C327.801 149.911,329.177 147.215,329.177 144.52C329.177 143.425,328.952 142.358,328.503 141.319C328.307 140.925,328.307 140.925,328.307 140.785C328.307 140.532,328.447 140.308,328.672 140.223"/></g><g class="vf-tabnote" id="vf-auto15031" pointer-events="bounding-box" font-family="Arial"><rect x="378.535" y="59" width="11.422" height="6" fill="#FFF" stroke="none"/><text stroke="none" font-family="Arial, sans-serif" x="380.535" y="67">6</text><rect x="378.535" y="98" width="11.422" height="6" fill="#FFF" stroke="none"/><text stroke="none" font-family="Arial, sans-serif" x="380.535" y="106">5</text><g class="vf-stem" id="vf-auto15032" pointer-events="bounding-box"><path stroke-width="1.5" fill="none" d="M384.246 135L384.246 177.5"/></g><path stroke="none" d="M391.78 139.732C391.836 139.704,391.92 139.704,392.004 139.704C392.089 139.704,392.173 139.704,392.229 139.732C392.65 139.873,393.577 141.782,393.97 143.327C394.195 144.281,394.335 145.264,394.335 146.275C394.335 147.482,394.138 148.718,393.802 149.841L393.717 150.066L393.802 150.319C393.858 150.459,393.914 150.712,393.97 150.88C394.195 151.835,394.335 152.846,394.335 153.829C394.335 155.064,394.138 156.272,393.802 157.395L393.717 157.619L393.802 157.872C393.858 158.012,393.914 158.265,393.97 158.434C394.223 159.416,394.335 160.399,394.335 161.382C394.335 164.752,392.903 168.037,390.32 170.312C390.039 170.564,390.039 170.564,389.393 171.098C387.006 173.007,385.041 175.141,384.086 176.938C383.945 177.219,383.777 177.36,383.58 177.36L383.496 177.36L383.496 173.709L383.496 170.059L383.665 170.059C385.855 169.722,387.905 169.02,389.365 168.037C391.667 166.493,393.043 163.769,393.043 160.877C393.043 160.484,393.015 160.09,392.959 159.669L392.931 159.445L392.875 159.529C392.145 160.82,391.33 161.859,390.32 162.758C390.039 162.983,390.039 163.011,389.393 163.544C387.006 165.426,385.041 167.588,384.086 169.357C383.945 169.666,383.777 169.806,383.58 169.806L383.496 169.806L383.496 166.156L383.496 162.505L383.665 162.477C385.855 162.168,387.905 161.438,389.365 160.484C391.667 158.939,393.043 156.215,393.043 153.323C393.043 152.93,393.015 152.509,392.959 152.116L392.931 151.891L392.875 151.975C392.145 153.267,391.33 154.306,390.32 155.204C390.039 155.429,390.039 155.429,389.393 155.963C387.006 157.872,385.041 160.034,384.086 161.803C383.945 162.084,383.777 162.224,383.58 162.224L383.496 162.224L383.496 158.574L383.496 154.952L383.665 154.924C386.108 154.559,388.438 153.688,389.87 152.537C391.948 150.88,393.043 148.381,393.043 145.77C393.043 144.085,392.594 142.372,391.639 140.799C391.443 140.491,391.443 140.434,391.443 140.266C391.443 140.013,391.583 139.817,391.78 139.732"/></g><g class="vf-tabnote" id="vf-auto15035" pointer-events="bounding-box" font-family="Arial"><rect x="435.348" y="59" width="11.422" height="6" fill="#FFF" stroke="none"/><text stroke="none" font-family="Arial, sans-serif" x="437.348" y="67">6</text><rect x="435.348" y="98" width="11.422" height="6" fill="#FFF" stroke="none"/><text stroke="none" font-family="Arial, sans-serif" x="437.348" y="106">5</text><g class="vf-stem" id="vf-auto15036" pointer-events="bounding-box"><path stroke-width="1.5" fill="none" d="M441.059 135L441.059 181.5"/></g><path stroke="none" d="M448.087 138.987C448.172 138.959,448.228 138.931,448.312 138.931C448.452 138.931,448.593 138.987,448.733 139.099C449.407 139.633,449.969 140.335,450.39 141.093C450.923 142.132,451.204 143.283,451.204 144.462C451.204 145.67,450.895 146.877,450.334 148.029L450.165 148.309L450.221 148.366C450.249 148.422,450.306 148.534,450.39 148.674C450.923 149.713,451.204 150.837,451.204 152.016C451.204 153.223,450.895 154.459,450.334 155.61L450.165 155.891L450.221 155.947C450.249 155.975,450.306 156.088,450.39 156.228C450.923 157.267,451.204 158.418,451.204 159.57C451.204 160.777,450.895 162.012,450.334 163.164L450.165 163.445L450.221 163.501C450.783 164.343,451.176 165.831,451.176 167.095C451.176 167.123,451.176 167.123,451.176 167.123C451.176 169.875,449.828 172.318,447.385 174.003C444.325 176.109,441.685 178.917,440.871 180.966C440.787 181.191,440.618 181.332,440.421 181.36L440.309 181.36L440.309 177.793L440.309 174.227L440.562 174.199C442.247 174.115,443.931 173.806,445.027 173.357C447.919 172.206,449.828 169.482,449.828 166.758C449.828 166.14,449.716 165.522,449.519 164.933C449.435 164.708,449.407 164.652,449.379 164.652C449.351 164.652,449.323 164.68,449.267 164.736C448.789 165.354,448.172 165.888,447.385 166.421C444.297 168.555,441.685 171.363,440.871 173.385C440.787 173.638,440.618 173.778,440.421 173.778L440.309 173.806L440.309 170.212L440.309 166.646L440.562 166.646C442.247 166.561,443.931 166.224,445.027 165.803C447.919 164.652,449.828 161.928,449.828 159.204C449.828 158.587,449.716 157.969,449.519 157.379C449.435 157.155,449.407 157.07,449.379 157.07C449.351 157.07,449.323 157.127,449.267 157.183C448.789 157.8,448.172 158.334,447.385 158.868C444.297 161.002,441.685 163.782,440.871 165.831C440.787 166.056,440.618 166.196,440.421 166.224L440.309 166.224L440.309 162.658L440.309 159.092L440.562 159.064C442.247 158.98,443.931 158.671,445.027 158.25C447.919 157.098,449.828 154.347,449.828 151.651C449.828 151.033,449.716 150.415,449.519 149.826C449.435 149.601,449.407 149.517,449.379 149.517C449.351 149.517,449.323 149.545,449.267 149.629C448.789 150.219,448.172 150.78,447.385 151.314C444.297 153.42,441.685 156.228,440.871 158.278C440.787 158.502,440.618 158.643,440.421 158.671L440.309 158.671L440.309 155.105L440.309 151.539L440.562 151.511C442.247 151.426,443.931 151.117,445.027 150.668C447.863 149.545,449.8 146.877,449.8 144.097L449.8 144.097C449.8 142.497,449.154 140.981,448.059 140.082C447.807 139.857,447.75 139.745,447.75 139.52C447.75 139.268,447.891 139.043,448.087 138.987"/></g><g class="vf-tabnote" id="vf-auto15039" pointer-events="bounding-box" font-family="Arial"><rect x="488.944" y="59" width="11.422" height="6" fill="#FFF" stroke="none"/><text stroke="none" font-family="Arial, sans-serif" x="490.944" y="67">6</text><rect x="488.944" y="98" width="11.422" height="6" fill="#FFF" stroke="none"/><text stroke="none" font-family="Arial, sans-serif" x="490.944" y="106">5</text><g class="vf-stem" id="vf-auto15040" pointer-events="bounding-box"><path stroke-width="1.5" fill="none" d="M494.655 135L494.655 190.5"/></g><path stroke="none" d="M502.189 138.468C502.273 138.44,502.357 138.412,502.413 138.412C502.638 138.412,502.834 138.58,503.087 138.917C504.21 140.518,504.772 142.399,504.772 144.28C504.772 145.46,504.547 146.639,504.098 147.79L503.986 148.071L504.098 148.38C504.547 149.475,504.772 150.654,504.772 151.834C504.772 153.041,504.547 154.221,504.098 155.344L503.986 155.625L504.098 155.934C504.547 157.057,504.772 158.236,504.772 159.415C504.772 160.595,504.547 161.774,504.098 162.897L503.986 163.178L504.098 163.487C504.547 164.61,504.772 165.79,504.772 166.969C504.772 168.148,504.547 169.356,504.098 170.479L503.986 170.76L504.098 171.069C504.547 172.192,504.772 173.371,504.772 174.522C504.772 177.274,503.565 179.942,501.346 181.823C498.061 184.575,495.449 187.664,494.495 189.91C494.382 190.191,494.186 190.36,493.989 190.36L493.905 190.36L493.933 186.85L493.933 183.34L494.13 183.312C495.169 183.087,496.573 182.581,497.752 182.048C498.931 181.486,499.493 181.177,500.111 180.7C502.245 179.1,503.452 176.657,503.452 174.157C503.452 173.568,503.396 173.006,503.256 172.445C503.228 172.276,503.228 172.22,503.199 172.22C503.171 172.22,503.143 172.248,503.115 172.332C502.638 173.006,502.02 173.68,501.346 174.242C498.061 176.994,495.449 180.11,494.495 182.357C494.382 182.638,494.186 182.806,493.989 182.806L493.905 182.806L493.933 179.296L493.933 175.786L494.13 175.73C495.169 175.533,496.573 175.028,497.752 174.494C498.931 173.933,499.493 173.624,500.111 173.147C502.245 171.546,503.452 169.103,503.452 166.576C503.452 166.014,503.396 165.453,503.256 164.891C503.228 164.723,503.228 164.666,503.199 164.666C503.171 164.666,503.143 164.694,503.115 164.751C502.638 165.453,502.02 166.098,501.346 166.688C498.061 169.44,495.449 172.557,494.495 174.803C494.382 175.084,494.186 175.224,493.989 175.224L493.905 175.224L493.933 171.714L493.933 168.233L494.13 168.176C495.169 167.952,496.573 167.474,497.752 166.913C498.931 166.379,499.493 166.07,500.111 165.593C502.245 163.992,503.452 161.55,503.452 159.022C503.452 158.461,503.396 157.871,503.256 157.309C503.228 157.169,503.228 157.085,503.199 157.085C503.171 157.085,503.143 157.141,503.115 157.197C502.61 157.927,502.048 158.545,501.234 159.219C498.061 161.886,495.421 165.031,494.495 167.222C494.382 167.502,494.186 167.671,493.989 167.671L493.905 167.671L493.933 164.161L493.933 160.651L494.13 160.623C495.169 160.398,496.573 159.921,497.752 159.359C498.931 158.826,499.493 158.489,500.111 158.04C502.245 156.411,503.452 153.968,503.452 151.469C503.452 150.907,503.396 150.318,503.256 149.756C503.228 149.587,503.228 149.531,503.199 149.531C503.171 149.531,503.143 149.559,503.115 149.644C502.61 150.374,502.048 150.963,501.234 151.665C498.061 154.333,495.421 157.45,494.495 159.668C494.382 159.949,494.186 160.117,493.989 160.117L493.905 160.117L493.933 156.607L493.933 153.097L494.13 153.069C495.169 152.845,496.573 152.339,497.752 151.806C498.931 151.244,499.493 150.935,500.111 150.458C502.301 148.829,503.452 146.358,503.452 143.887C503.452 142.343,503.003 140.798,502.02 139.479C501.908 139.31,501.852 139.114,501.852 138.973C501.852 138.749,501.964 138.552,502.189 138.468"/></g></svg>