<svg xmlns="http://www.w3.org/2000/svg" stroke-width="0.3" stroke-dasharray="none" fill="black" stroke="black" font-family="Arial, sans-serif" font-size="10pt" font-weight="normal" font-style="normal" width="400" height="160" viewBox="0 0 400 160" style="width: 400px; height: 160px; border: none;"><g class="vf-stave" id="vf-auto41078" stroke-width="1" fill="#999999" stroke="#999999"><path fill="none" d="M10 50L360 50"/><path fill="none" d="M10 60L360 60"/><path fill="none" d="M10 70L360 70"/><path fill="none" d="M10 80L360 80"/><path fill="none" d="M10 90L360 90"/></g><g class="vf-stavebarline" id="vf-auto41079"><rect x="10" y="49.5" width="1" height="41" stroke="none"/></g><g class="vf-stavebarline" id="vf-auto41080"><rect x="360" y="49.5" width="1" height="41" stroke="none"/></g><g class="vf-clef" id="vf-auto41081"><path stroke="none" d="M28.711 65.844C28.66 65.413,28.711 65.388,28.939 65.16C32.893 61.485,35.883 56.847,35.883 51.246C35.883 48.078,34.996 44.935,33.501 42.756C32.944 41.945,32.006 40.931,31.6 40.931C31.093 40.931,29.953 41.869,29.243 42.68C26.532 45.67,25.644 50.232,25.644 54.034C25.644 56.138,25.923 58.52,26.177 60.015C26.253 60.446,26.278 60.522,25.847 60.902C20.576 65.236,15 70.457,15 77.832C15 84.168,19.334 90.2,28.28 90.2C29.117 90.2,30.08 90.124,30.815 89.972C31.195 89.896,31.271 89.87,31.347 90.301C31.778 92.76,32.335 95.928,32.335 97.651C32.335 103.049,28.686 103.708,26.532 103.708C24.555 103.708,23.617 103.125,23.617 102.644C23.617 102.39,23.946 102.289,24.783 102.01C25.923 101.681,27.216 100.718,27.216 98.589C27.216 96.587,25.949 94.863,23.718 94.863C21.285 94.863,19.815 96.815,19.815 99.07C19.815 101.427,21.235 105.026,26.76 105.026C29.193 105.026,33.932 103.911,33.932 97.727C33.932 95.623,33.273 92.177,32.893 89.896C32.817 89.465,32.842 89.516,33.349 89.287C37.049 87.818,39.482 84.726,39.482 80.594C39.482 75.931,36.061 71.8,30.688 71.8C29.75 71.8,29.75 71.8,29.623 71.141M32.158 46.583C33.349 46.583,34.337 47.571,34.337 49.573C34.337 53.628,30.865 56.923,28.001 59.432C27.748 59.66,27.596 59.61,27.52 59.128C27.368 58.19,27.292 56.949,27.292 55.783C27.292 50.08,29.928 46.583,32.158 46.583M28.179 71.445C28.28 72.13,28.28 72.104,27.621 72.307C24.428 73.397,22.324 76.286,22.324 79.403C22.324 82.673,24.048 85.004,26.532 85.866C26.836 85.967,27.266 86.069,27.52 86.069C27.799 86.069,27.951 85.891,27.951 85.663C27.951 85.41,27.672 85.308,27.419 85.207C25.873 84.548,24.783 82.977,24.783 81.304C24.783 79.201,26.202 77.655,28.432 77.021C29.015 76.869,29.091 76.92,29.167 77.325L30.992 88.198C31.068 88.603,31.017 88.603,30.485 88.705C29.902 88.806,29.167 88.882,28.432 88.882C22.046 88.882,17.915 85.334,17.915 80.265C17.915 78.111,18.295 75.222,21.311 71.8C23.516 69.367,25.188 67.999,26.886 66.63C27.266 66.326,27.343 66.377,27.419 66.757M30.688 77.249C30.612 76.793,30.663 76.692,31.093 76.742C34.059 76.996,36.492 79.479,36.492 82.673C36.492 84.979,35.098 86.829,33.07 87.868C32.639 88.071,32.563 88.071,32.487 87.64"/></g><g class="vf-timesignature" id="vf-auto41082"><path stroke="none" d="M67.236 62.619L67.236 55.055C67.236 54.786,67.212 54.468,66.82 54.468C66.502 54.468,66.331 54.541,66.11 54.786L62.757 58.825C62.634 59.021,62.438 59.217,62.438 59.657L62.438 62.619L57.689 62.619C60.504 60.22,66.159 52.215,66.257 51.775L66.282 51.677C66.282 51.359,66.037 51.163,65.768 51.163C65.449 51.163,64.005 51.212,63.369 51.212C62.732 51.212,61.141 51.163,60.872 51.163C60.553 51.163,60.064 51.261,60.064 51.824C60.064 56.181,56.588 61.102,55.535 62.57L55.339 62.864C55.339 62.864,55.339 62.889,55.339 62.889L55.29 62.938C55.217 63.109,55.192 63.231,55.192 63.354C55.192 63.696,55.462 63.941,55.902 63.941L62.438 63.941L62.438 66.169C62.438 67.124,61.679 67.393,61.043 67.393C60.48 67.393,60.235 67.711,60.235 68.078C60.235 68.421,60.358 68.813,60.896 68.813L68.411 68.813C68.754 68.813,69.121 68.568,69.121 68.078C69.121 67.589,68.681 67.368,68.338 67.368C67.995 67.368,67.236 67.148,67.236 66.022L67.236 63.941L69.807 63.941C70.174 63.941,70.345 63.696,70.345 63.28C70.345 62.864,70.198 62.619,69.807 62.619"/><path stroke="none" d="M67.236 82.619L67.236 75.055C67.236 74.786,67.212 74.468,66.82 74.468C66.502 74.468,66.331 74.541,66.11 74.786L62.757 78.825C62.634 79.021,62.438 79.217,62.438 79.657L62.438 82.619L57.689 82.619C60.504 80.22,66.159 72.215,66.257 71.775L66.282 71.677C66.282 71.359,66.037 71.163,65.768 71.163C65.449 71.163,64.005 71.212,63.369 71.212C62.732 71.212,61.141 71.163,60.872 71.163C60.553 71.163,60.064 71.261,60.064 71.824C60.064 76.181,56.588 81.102,55.535 82.57L55.339 82.864C55.339 82.864,55.339 82.889,55.339 82.889L55.29 82.938C55.217 83.109,55.192 83.231,55.192 83.354C55.192 83.696,55.462 83.941,55.902 83.941L62.438 83.941L62.438 86.169C62.438 87.124,61.679 87.393,61.043 87.393C60.48 87.393,60.235 87.711,60.235 88.078C60.235 88.421,60.358 88.813,60.896 88.813L68.411 88.813C68.754 88.813,69.121 88.568,69.121 88.078C69.121 87.589,68.681 87.368,68.338 87.368C67.995 87.368,67.236 87.148,67.236 86.022L67.236 83.941L69.807 83.941C70.174 83.941,70.345 83.696,70.345 83.28C70.345 82.864,70.198 82.619,69.807 82.619"/></g><g class="vf-stavenote" id="vf-auto41086"><path stroke-width="1.4" fill="none" stroke="#444" d="M178.94 100L196.874 100"/><g class="vf-stem" id="vf-auto41087" pointer-events="bounding-box"><path stroke-width="1.5" fill="none" d="M193.124 98L193.124 45"/></g><g class="vf-notehead" id="vf-auto41091" pointer-events="bounding-box"><path stroke="none" d="M185.871 105.054C189.465 105.054,193.874 101.741,193.874 98.315C193.874 96.237,192.245 94.946,189.942 94.946C185.506 94.946,181.94 98.231,181.94 101.685C181.94 103.791,183.681 105.054,185.871 105.054"/><g class="vf-annotation" id="vf-auto41094"><text stroke="none" x="174.199" y="35">Test</text></g><rect x="143.117" y="75" width="1" height="25" stroke="none"/><path stroke="none" d="M143.659 105C145.137 100.704,148.091 94.056,148.091 93.782C148.091 93.536,147.9 93.208,147.626 93.208L147.599 93.263C147.024 93.564,143.796 94.603,143.659 94.603C143.495 94.603,140.294 93.646,139.582 93.263L139.555 93.208C139.282 93.208,139.117 93.536,139.117 93.782C139.117 94.056,142.154 100.704,143.659 105"/><text stroke="none" font-size="9pt" font-weight="bold" x="172.94" y="105">3</text><path stroke="none" d="M200.874 95 A2 2 0 0 0 196.874 95 A2 2 0 0 0 200.874 95"/></g><g class="vf-notehead" id="vf-auto41092" pointer-events="bounding-box"><path stroke="none" d="M185.871 95.054C189.465 95.054,193.874 91.741,193.874 88.315C193.874 86.237,192.245 84.946,189.942 84.946C185.506 84.946,181.94 88.231,181.94 91.685C181.94 93.791,183.681 95.054,185.871 95.054"/><path stroke="none" d="M170.447 85.349C170.721 85.239,170.94 84.911,170.94 84.692L170.94 81.874C170.94 81.683,170.803 81.573,170.639 81.573C170.584 81.573,170.529 81.573,170.447 81.6C170.447 81.6,169.654 81.929,169.462 81.956C169.189 81.956,168.915 81.765,168.915 81.464L168.915 76.648C168.915 76.402,168.669 76.211,168.368 76.211C167.985 76.211,167.738 76.402,167.738 76.648L167.738 81.765C167.684 82.148,167.574 82.668,167.219 82.914C166.754 83.187,165.413 83.735,164.729 83.899C164.401 83.899,164.264 83.434,164.264 83.105L164.264 78.372C164.264 78.153,163.99 77.934,163.717 77.934C163.334 77.934,163.087 78.153,163.087 78.372L163.087 83.707C163.087 84.254,162.841 84.637,162.622 84.747C162.376 84.884,161.582 85.185,161.582 85.185C161.309 85.267,161.117 85.595,161.117 85.814L161.117 88.632C161.117 88.851,161.227 88.988,161.473 88.988L161.555 88.933C161.582 88.933,162.184 88.687,162.485 88.55L162.54 88.495C162.841 88.495,163.087 88.906,163.087 89.207L163.087 93.119C163.087 93.557,162.896 93.912,162.65 94.022C162.431 94.104,161.582 94.46,161.582 94.46C161.309 94.542,161.117 94.843,161.117 95.089L161.117 97.88C161.117 98.126,161.227 98.235,161.473 98.235L161.555 98.208C161.582 98.208,162.13 97.962,162.485 97.852C162.54 97.798,162.567 97.798,162.622 97.798C162.896 97.798,163.087 98.235,163.087 98.427L163.087 103.27C163.087 103.516,163.334 103.707,163.607 103.707C163.99 103.707,164.264 103.516,164.264 103.27L164.264 97.798C164.264 97.278,164.455 97.004,164.674 96.922L167.054 95.937C167.054 95.937,167.109 95.937,167.109 95.937L167.191 95.91C167.547 95.91,167.738 96.375,167.738 96.621L167.738 101.546C167.738 101.792,167.985 101.984,168.258 101.984C168.669 101.984,168.915 101.792,168.915 101.546L168.915 95.937C168.915 95.636,169.079 95.171,169.353 95.034C169.626 94.925,170.447 94.596,170.447 94.596C170.721 94.487,170.94 94.186,170.94 93.94L170.94 91.149C170.94 90.958,170.803 90.821,170.639 90.821C170.584 90.821,170.529 90.821,170.447 90.876L169.435 91.259C169.189 91.259,168.915 91.012,168.915 90.547L168.915 86.881C168.915 86.607,169.106 85.869,169.435 85.732M167.738 91.778C167.492 92.572,165.659 93.338,164.729 93.338C164.51 93.338,164.318 93.283,164.264 93.146C164.182 92.982,164.154 92.134,164.154 91.176C164.154 89.973,164.182 88.577,164.264 88.276C164.346 87.592,166.152 86.772,167.137 86.772C167.41 86.772,167.656 86.854,167.738 87.018C167.821 87.209,167.903 88.194,167.903 89.261C167.903 90.328,167.821 91.423,167.738 91.778"/><text stroke="none" font-size="9pt" font-weight="bold" x="202.874" y="95">1</text><path stroke="none" d="M200.874 85 A2 2 0 0 0 196.874 85 A2 2 0 0 0 200.874 85"/></g><g class="vf-notehead" id="vf-auto41093" pointer-events="bounding-box"><path stroke="none" d="M185.871 85.054C189.465 85.054,193.874 81.741,193.874 78.315C193.874 76.237,192.245 74.946,189.942 74.946C185.506 74.946,181.94 78.231,181.94 81.685C181.94 83.791,183.681 85.054,185.871 85.054"/><text stroke="none" font-size="9pt" font-weight="bold" x="172.94" y="85">2</text><path stroke-width="1.5" fill="none" d="M195.907 116 A8 8 0 0 0 179.907 116 A8 8 0 0 0 195.907 116"/><text stroke-width="1.5" stroke="none" font-weight="bold" x="184.196" y="120.5">4</text><path stroke="none" d="M200.874 75 A2 2 0 0 0 196.874 75 A2 2 0 0 0 200.874 75"/></g></g></svg>