<svg xmlns="http://www.w3.org/2000/svg" stroke-width="0.3" stroke-dasharray="none" fill="black" stroke="black" font-family="Arial, sans-serif" font-size="10pt" font-weight="normal" font-style="normal" width="400" height="160" viewBox="0 0 400 160" style="width: 400px; height: 160px; border: none;"><g class="vf-stave" id="vf-auto36655" stroke-width="3" fill="#999999" stroke="#EEAAEE"><path fill="none" d="M10 50L390 50"/><path fill="none" d="M10 60L390 60"/><path fill="none" d="M10 70L390 70"/><path fill="none" d="M10 80L390 80"/><path fill="none" d="M10 90L390 90"/></g><g class="vf-stavebarline" id="vf-auto36656"><rect x="10" y="49.5" width="1" height="41" stroke="none"/></g><g class="vf-stavebarline" id="vf-auto36657"><rect x="390" y="49.5" width="1" height="41" stroke="none"/></g><g class="vf-stavenote" id="vf-auto36658"><g class="vf-notehead" id="vf-auto36662" pointer-events="bounding-box" fill="purple"><path stroke="none" d="M27 71.685C27 73.426,28.264 75.391,31.521 75.391C35.733 75.391,40.141 71.938,40.141 68.371C40.141 65.985,38.12 64.665,35.621 64.665C31.689 64.665,27 67.978,27 71.685"/></g></g><g class="vf-stavenote" id="vf-auto36664"><g class="vf-notehead" id="vf-auto36668" pointer-events="bounding-box" fill="darkturquoise"><path stroke="none" d="M60.052 71.685C60.052 73.426,61.316 75.391,64.573 75.391C68.785 75.391,73.194 71.938,73.194 68.371C73.194 65.985,71.172 64.665,68.673 64.665C64.741 64.665,60.052 67.978,60.052 71.685"/></g></g><g class="vf-stavenote" id="vf-auto36670"><g class="vf-stem" id="vf-auto36671" pointer-events="bounding-box"><path stroke-width="1.5" fill="none" d="M93.854 72L93.854 102"/></g><g class="vf-notehead" id="vf-auto36674" pointer-events="bounding-box"><path stroke="none" d="M93.104 71.685C93.104 73.426,94.368 75.391,97.625 75.391C101.837 75.391,106.246 71.938,106.246 68.371C106.246 65.985,104.224 64.665,101.725 64.665C97.794 64.665,93.104 67.978,93.104 71.685"/></g><path stroke="none" d="M93.104 106.972C93.104 107.253,93.357 107.477,93.638 107.477C93.834 107.477,94.087 107.337,94.115 107.168C94.115 107.112,94.48 105.708,94.508 105.596C94.564 105.428,94.929 103.883,96.39 101.496C97.962 98.885,100.377 96.975,102.399 94.139C104.392 91.303,105.6 88.636,105.6 85.098C105.6 81.391,104.757 78.33,102.595 74.399C102.483 74.118,102.23 73.978,102.006 73.978C101.921 73.978,101.837 73.978,101.809 74.006C101.584 74.09,101.528 74.259,101.528 74.483C101.528 74.624,101.556 74.82,101.64 74.989C103.241 78.723,103.887 80.886,103.887 83.778C103.887 87.147,102.736 88.888,102.006 90.152C99.366 94.617,95.126 96.807,93.441 97.369C93.132 97.509,93.104 97.706,93.104 97.818"/></g><g class="vf-stavenote" id="vf-auto36676"><g class="vf-notehead" id="vf-auto36680" pointer-events="bounding-box"><path stroke="none" d="M126.156 71.685C126.156 73.426,127.42 75.391,130.677 75.391C134.889 75.391,139.298 71.938,139.298 68.371C139.298 65.985,137.276 64.665,134.777 64.665C130.846 64.665,126.156 67.978,126.156 71.685"/></g></g><g class="vf-stavenote" id="vf-auto36682"><g class="vf-notehead" id="vf-auto36686" pointer-events="bounding-box"><path stroke="none" d="M159.208 71.685C159.208 73.426,160.472 75.391,163.729 75.391C167.941 75.391,172.35 71.938,172.35 68.371C172.35 65.985,170.328 64.665,167.829 64.665C163.898 64.665,159.208 67.978,159.208 71.685"/></g></g><g class="vf-stavenote" id="vf-auto36688" fill="tomato" stroke="tomato"><g class="vf-notehead" id="vf-auto36692" pointer-events="bounding-box"><path stroke="none" d="M192.26 71.685C192.26 73.426,193.524 75.391,196.781 75.391C200.993 75.391,205.402 71.938,205.402 68.371C205.402 65.985,203.38 64.665,200.881 64.665C196.95 64.665,192.26 67.978,192.26 71.685"/></g></g><g class="vf-stavenote" id="vf-auto36694"><g class="vf-notehead" id="vf-auto36698" pointer-events="bounding-box"><path stroke="none" d="M225.313 71.685C225.313 73.426,226.576 75.391,229.833 75.391C234.045 75.391,238.454 71.938,238.454 68.371C238.454 65.985,236.432 64.665,233.933 64.665C230.002 64.665,225.313 67.978,225.313 71.685"/></g></g><g class="vf-stavenote" id="vf-auto36700"><path stroke-width="1.4" fill="none" stroke="#444" d="M255.365 40L274.506 40"/><path stroke-width="1.4" fill="none" stroke="#444" d="M255.365 30L274.506 30"/><g class="vf-notehead" id="vf-auto36704" pointer-events="bounding-box"><path stroke="none" d="M258.365 26.685C258.365 28.426,259.628 30.391,262.886 30.391C267.098 30.391,271.506 26.938,271.506 23.371C271.506 20.985,269.484 19.665,266.985 19.665C263.054 19.665,258.365 22.978,258.365 26.685"/></g></g><g class="vf-stavenote" id="vf-auto36706"><path stroke-width="1.4" fill="none" stroke="#444" d="M276.025 40L307.558 40"/><path stroke-width="1.4" fill="none" stroke="#444" d="M276.025 30L307.558 30"/><g class="vf-notehead" id="vf-auto36712" pointer-events="bounding-box"><path stroke="none" d="M279.025 31.685C279.025 33.426,280.289 35.391,283.546 35.391C287.758 35.391,292.167 31.938,292.167 28.371C292.167 25.985,290.145 24.665,287.646 24.665C283.715 24.665,279.025 27.978,279.025 31.685"/></g><g class="vf-notehead" id="vf-auto36711" pointer-events="bounding-box"><path stroke="none" d="M291.417 26.685C291.417 28.426,292.68 30.391,295.938 30.391C300.15 30.391,304.558 26.938,304.558 23.371C304.558 20.985,302.536 19.665,300.037 19.665C296.106 19.665,291.417 22.978,291.417 26.685"/></g></g><g class="vf-stavenote" id="vf-auto36714"><path stroke-width="1" fill="none" stroke="lawngreen" d="M309.077 40L340.61 40"/><path stroke-width="1" fill="none" stroke="lawngreen" d="M309.077 30L340.61 30"/><path stroke-width="1" fill="none" stroke="lawngreen" d="M321.469 20L340.61 20"/><g class="vf-stem" id="vf-auto36715" pointer-events="bounding-box"><path stroke-width="1.5" fill="none" d="M325.219 22L325.219 67"/></g><g class="vf-notehead" id="vf-auto36720" pointer-events="bounding-box"><path stroke="none" d="M312.077 26.685C312.077 28.426,313.341 30.391,316.598 30.391C320.81 30.391,325.219 26.938,325.219 23.371C325.219 20.985,323.197 19.665,320.698 19.665C316.767 19.665,312.077 22.978,312.077 26.685"/></g><g class="vf-notehead" id="vf-auto36719" pointer-events="bounding-box"><path stroke="none" d="M324.469 21.685C324.469 23.426,325.732 25.391,328.99 25.391C333.202 25.391,337.61 21.938,337.61 18.371C337.61 15.985,335.588 14.665,333.089 14.665C329.158 14.665,324.469 17.978,324.469 21.685"/></g><path fill="orange" stroke="none" d="M324.469 71.972C324.469 72.253,324.722 72.477,325.002 72.477C325.199 72.477,325.452 72.337,325.48 72.168C325.48 72.112,325.845 70.708,325.873 70.596C325.929 70.428,326.294 68.883,327.754 66.496C329.327 63.885,331.742 61.975,333.763 59.139C335.757 56.303,336.964 53.636,336.964 50.098C336.964 46.391,336.122 43.33,333.96 39.399C333.848 39.118,333.595 38.978,333.37 38.978C333.286 38.978,333.202 38.978,333.174 39.006C332.949 39.09,332.893 39.259,332.893 39.483C332.893 39.624,332.921 39.82,333.005 39.989C334.606 43.723,335.252 45.886,335.252 48.778C335.252 52.147,334.1 53.888,333.37 55.152C330.731 59.617,326.491 61.807,324.806 62.369C324.497 62.509,324.469 62.706,324.469 62.818"/></g><g class="vf-stavenote" id="vf-auto36722"><path stroke-width="1.4" fill="none" stroke="#444" d="M342.129 40L373.662 40"/><path stroke-width="1.4" fill="none" stroke="#444" d="M342.129 30L373.662 30"/><path stroke-width="1.4" fill="none" stroke="#444" d="M342.129 20L373.662 20"/><g class="vf-stem" id="vf-auto36723" pointer-events="bounding-box"><path stroke-width="1.5" fill="none" d="M358.271 17L358.271 67"/></g><g class="vf-notehead" id="vf-auto36728" pointer-events="bounding-box"><path stroke="none" d="M345.129 21.685C345.129 23.426,346.393 25.391,349.65 25.391C353.862 25.391,358.271 21.938,358.271 18.371C358.271 15.985,356.249 14.665,353.75 14.665C349.819 14.665,345.129 17.978,345.129 21.685"/></g><g class="vf-notehead" id="vf-auto36727" pointer-events="bounding-box"><path stroke="none" d="M357.521 16.685C357.521 18.426,358.784 20.391,362.042 20.391C366.254 20.391,370.662 16.938,370.662 13.371C370.662 10.985,368.641 9.665,366.141 9.665C362.21 9.665,357.521 12.978,357.521 16.685"/></g><path stroke="none" d="M357.521 71.972C357.521 72.253,357.774 72.477,358.054 72.477C358.251 72.477,358.504 72.337,358.532 72.168C358.532 72.112,358.897 70.708,358.925 70.596C358.981 70.428,359.346 68.883,360.806 66.496C362.379 63.885,364.794 61.975,366.815 59.139C368.809 56.303,370.016 53.636,370.016 50.098C370.016 46.391,369.174 43.33,367.012 39.399C366.9 39.118,366.647 38.978,366.422 38.978C366.338 38.978,366.254 38.978,366.226 39.006C366.001 39.09,365.945 39.259,365.945 39.483C365.945 39.624,365.973 39.82,366.057 39.989C367.658 43.723,368.304 45.886,368.304 48.778C368.304 52.147,367.152 53.888,366.422 55.152C363.783 59.617,359.543 61.807,357.858 62.369C357.549 62.509,357.521 62.706,357.521 62.818"/></g><g class="vf-stem" id="vf-auto36659" pointer-events="bounding-box" stroke="green"><path stroke-width="1.5" fill="none" d="M27.75 72L27.75 104.25"/></g><g class="vf-stem" id="vf-auto36665" pointer-events="bounding-box" stroke="orange"><path stroke-width="1.5" fill="none" d="M60.802 72L60.802 104.25"/></g><g class="vf-beam" id="vf-auto36730" fill="blue" stroke="blue"><path stroke="none" d="M27 105L27 100L61.052 100L61.052 105Z"/></g><g class="vf-stem" id="vf-auto36677" pointer-events="bounding-box"><path stroke-width="1.5" fill="none" d="M126.906 72L126.906 104.25"/></g><g class="vf-stem" id="vf-auto36683" pointer-events="bounding-box"><path stroke-width="1.5" fill="none" d="M159.958 72L159.958 104.25"/></g><g class="vf-beam" id="vf-auto36731"><path stroke="none" d="M126.156 105L126.156 100L160.208 100L160.208 105Z"/></g><g class="vf-stem" id="vf-auto36689" pointer-events="bounding-box" fill="tomato" stroke="tomato"><path stroke-width="1.5" fill="none" d="M204.652 68L204.652 35.75"/></g><g class="vf-stem" id="vf-auto36695" pointer-events="bounding-box"><path stroke-width="1.5" fill="none" d="M237.704 68L237.704 35.75"/></g><g class="vf-beam" id="vf-auto36732"><path stroke="none" d="M203.902 35L203.902 40L237.954 40L237.954 35Z" style="filter: drop-shadow(0 0 2.6666666666666665px blue)"/></g><g class="vf-stem" id="vf-auto36701" pointer-events="bounding-box"><path stroke-width="1.5" fill="none" d="M259.115 27L259.115 69.25"/></g><g class="vf-stem" id="vf-auto36707" pointer-events="bounding-box"><path stroke-width="1.5" fill="none" d="M292.167 27L292.167 69.25"/></g><g class="vf-beam" id="vf-auto36733"><path stroke="none" d="M258.365 70L258.365 65L292.417 65L292.417 70Z"/></g></svg>