<svg xmlns="http://www.w3.org/2000/svg" stroke-width="0.3" stroke-dasharray="none" fill="black" stroke="black" font-family="Arial, sans-serif" font-size="10pt" font-weight="normal" font-style="normal" width="600" height="200" viewBox="0 0 600 200" style="width: 600px; height: 200px; border: none;"><g class="vf-stave" id="vf-auto4548" stroke-width="1" fill="#999999" stroke="#999999"><path fill="none" d="M10 62L560 62"/><path fill="none" d="M10 75L560 75"/><path fill="none" d="M10 88L560 88"/><path fill="none" d="M10 101L560 101"/><path fill="none" d="M10 114L560 114"/><path fill="none" d="M10 127L560 127"/></g><g class="vf-stavebarline" id="vf-auto4549"><rect x="10" y="61.5" width="1" height="66" stroke="none"/></g><g class="vf-stavebarline" id="vf-auto4550"><rect x="560" y="61.5" width="1" height="66" stroke="none"/></g><g class="vf-tabnote" id="vf-auto4551" pointer-events="bounding-box"><rect x="46.29" y="85" width="11.422" height="6" fill="#FFF" stroke="none"/><text stroke="none" x="48.29" y="93">6</text><rect x="42.587" y="98" width="18.828" height="6" fill="#FFF" stroke="none"/><text stroke="none" x="44.587" y="106">25</text><g class="vf-stem" id="vf-auto4552" pointer-events="bounding-box"><path stroke-width="1.5" fill="none" d="M52.001 53.5L52.001 20.5"/></g><path stroke="none" d="M58.673 53.382C59.683 52.23,60.666 51.023,61.087 49.563C61.593 47.99,61.789 46.418,61.789 44.845C61.789 43.778,61.705 42.739,61.537 41.7C61.059 38.247,59.964 35.102,57.774 32.35C56.819 31.142,55.893 29.879,54.91 28.671C53.787 27.211,53.085 25.891,53.057 24.01C53.057 23.645,52.972 23.055,52.972 22.606C52.972 21.876,52.691 21.174,52.411 20.5L52.214 20.5C51.4 20.865,51.231 21.511,51.231 22.269L51.231 24.544C51.231 27.66,52.046 30.496,53.927 32.996C54.713 33.922,55.443 34.933,56.201 35.86C58.139 38.162,59.599 40.746,59.88 43.834C59.936 44.396,60.133 44.958,60.133 45.491C60.133 45.772,60.077 46.053,59.964 46.306C59.571 47.176,59.15 48.131,58.42 48.72C57.774 49.254,57.634 49.844,57.634 50.489C57.634 50.826,57.662 51.191,57.69 51.556C57.746 52.09,57.942 52.595,57.971 53.129C58.027 53.466,58.139 53.606,58.279 53.606C58.392 53.606,58.504 53.522,58.673 53.382"/><g class="vf-annotation" id="vf-auto4591"><text stroke="none" x="52.001" y="10.5">Text</text></g></g><g class="vf-tabnote" id="vf-auto4554" pointer-events="bounding-box"><rect x="85.608" y="72" width="18.833" height="6" fill="#FFF" stroke="none"/><text stroke="none" x="87.608" y="80">10</text><rect x="85.608" y="111" width="18.833" height="6" fill="#FFF" stroke="none"/><text stroke="none" x="87.608" y="119">12</text><g class="vf-stem" id="vf-auto4555" pointer-events="bounding-box"><path stroke-width="1.5" fill="none" d="M95.024 53.5L95.024 20.5"/></g><path stroke="none" d="M101.695 53.382C102.706 52.23,103.689 51.023,104.11 49.563C104.616 47.99,104.812 46.418,104.812 44.845C104.812 43.778,104.728 42.739,104.56 41.7C104.082 38.247,102.987 35.102,100.797 32.35C99.842 31.142,98.915 29.879,97.933 28.671C96.809 27.211,96.107 25.891,96.079 24.01C96.079 23.645,95.995 23.055,95.995 22.606C95.995 21.876,95.714 21.174,95.434 20.5L95.237 20.5C94.423 20.865,94.254 21.511,94.254 22.269L94.254 24.544C94.254 27.66,95.069 30.496,96.95 32.996C97.736 33.922,98.466 34.933,99.224 35.86C101.162 38.162,102.622 40.746,102.903 43.834C102.959 44.396,103.156 44.958,103.156 45.491C103.156 45.772,103.099 46.053,102.987 46.306C102.594 47.176,102.173 48.131,101.443 48.72C100.797 49.254,100.656 49.844,100.656 50.489C100.656 50.826,100.685 51.191,100.713 51.556C100.769 52.09,100.965 52.595,100.993 53.129C101.05 53.466,101.162 53.606,101.302 53.606C101.415 53.606,101.527 53.522,101.695 53.382"/><g class="vf-annotation" id="vf-auto4592"><text stroke="none" x="81.317" y="83.588">Text</text></g></g><g class="vf-tabnote" id="vf-auto4557" pointer-events="bounding-box"><rect x="128.628" y="59" width="11.422" height="6" fill="#FFF" stroke="none"/><text stroke="none" x="130.628" y="67">6</text><rect x="128.628" y="85" width="11.422" height="6" fill="#FFF" stroke="none"/><text stroke="none" x="130.628" y="93">5</text><g class="vf-stem" id="vf-auto4558" pointer-events="bounding-box"><path stroke-width="1.5" fill="none" d="M134.339 53.5L134.339 20.5"/></g><path stroke="none" d="M141.01 53.382C142.021 52.23,143.004 51.023,143.425 49.563C143.93 47.99,144.127 46.418,144.127 44.845C144.127 43.778,144.043 42.739,143.874 41.7C143.397 38.247,142.302 35.102,140.111 32.35C139.157 31.142,138.23 29.879,137.247 28.671C136.124 27.211,135.422 25.891,135.394 24.01C135.394 23.645,135.31 23.055,135.31 22.606C135.31 21.876,135.029 21.174,134.748 20.5L134.552 20.5C133.737 20.865,133.569 21.511,133.569 22.269L133.569 24.544C133.569 27.66,134.383 30.496,136.264 32.996C137.051 33.922,137.781 34.933,138.539 35.86C140.476 38.162,141.937 40.746,142.217 43.834C142.274 44.396,142.47 44.958,142.47 45.491C142.47 45.772,142.414 46.053,142.302 46.306C141.909 47.176,141.487 48.131,140.757 48.72C140.111 49.254,139.971 49.844,139.971 50.489C139.971 50.826,139.999 51.191,140.027 51.556C140.083 52.09,140.28 52.595,140.308 53.129C140.364 53.466,140.476 53.606,140.617 53.606C140.729 53.606,140.842 53.522,141.01 53.382"/><g class="vf-annotation" id="vf-auto4593"><text stroke="none" x="106.923" y="140.676">Text</text></g></g><g class="vf-tabnote" id="vf-auto4560" pointer-events="bounding-box"><rect x="171.648" y="59" width="11.422" height="6" fill="#FFF" stroke="none"/><text stroke="none" x="173.648" y="67">6</text><rect x="171.648" y="85" width="11.422" height="6" fill="#FFF" stroke="none"/><text stroke="none" x="173.648" y="93">5</text><g class="vf-stem" id="vf-auto4561" pointer-events="bounding-box"><path stroke-width="1.5" fill="none" d="M177.359 53.5L177.359 20.5"/></g><path stroke="none" d="M184.03 53.382C185.041 52.23,186.024 51.023,186.445 49.563C186.951 47.99,187.147 46.418,187.147 44.845C187.147 43.778,187.063 42.739,186.894 41.7C186.417 38.247,185.322 35.102,183.132 32.35C182.177 31.142,181.25 29.879,180.268 28.671C179.144 27.211,178.442 25.891,178.414 24.01C178.414 23.645,178.33 23.055,178.33 22.606C178.33 21.876,178.049 21.174,177.768 20.5L177.572 20.5C176.758 20.865,176.589 21.511,176.589 22.269L176.589 24.544C176.589 27.66,177.403 30.496,179.285 32.996C180.071 33.922,180.801 34.933,181.559 35.86C183.497 38.162,184.957 40.746,185.238 43.834C185.294 44.396,185.49 44.958,185.49 45.491C185.49 45.772,185.434 46.053,185.322 46.306C184.929 47.176,184.508 48.131,183.778 48.72C183.132 49.254,182.991 49.844,182.991 50.489C182.991 50.826,183.019 51.191,183.047 51.556C183.104 52.09,183.3 52.595,183.328 53.129C183.384 53.466,183.497 53.606,183.637 53.606C183.749 53.606,183.862 53.522,184.03 53.382"/><g class="vf-annotation" id="vf-auto4594"><text stroke="none" x="163.651" y="44.338">Text</text></g></g><g class="vf-tabnote" id="vf-auto4563" pointer-events="bounding-box"><rect x="218.372" y="85" width="11.422" height="6" fill="#FFF" stroke="none"/><text stroke="none" x="220.372" y="93">6</text><rect x="214.668" y="98" width="18.828" height="6" fill="#FFF" stroke="none"/><text stroke="none" x="216.668" y="106">25</text><g class="vf-stem" id="vf-auto4564" pointer-events="bounding-box"><path stroke-width="1.5" fill="none" d="M224.083 135.5L224.083 168.5"/></g><path stroke="none" d="M230.754 135.618C230.585 135.478,230.473 135.394,230.361 135.394C230.22 135.394,230.108 135.534,230.052 135.871C230.024 136.405,229.827 136.91,229.771 137.444C229.743 137.809,229.715 138.174,229.715 138.511C229.715 139.156,229.855 139.746,230.501 140.28C231.231 140.869,231.652 141.824,232.045 142.694C232.158 142.947,232.214 143.228,232.214 143.509C232.214 144.042,232.017 144.604,231.961 145.166C231.68 148.254,230.22 150.838,228.283 153.14C227.525 154.067,226.794 155.078,226.008 156.004C224.127 158.504,223.313 161.34,223.313 164.456L223.313 166.731C223.313 167.489,223.481 168.135,224.295 168.5L224.492 168.5C224.773 167.826,225.053 167.124,225.053 166.394C225.053 165.945,224.969 165.58,224.969 165.215C224.997 163.361,225.868 161.789,226.991 160.329C227.974 159.121,228.9 157.858,229.855 156.65C232.045 153.898,233.141 150.753,233.618 147.3C233.786 146.261,233.871 145.222,233.871 144.155C233.871 142.582,233.674 141.01,233.169 139.437C232.747 137.977,231.765 136.77,230.754 135.618"/><g class="vf-annotation" id="vf-auto4595"><text stroke="none" x="196.667" y="53">Text</text></g></g><g class="vf-tabnote" id="vf-auto4567" pointer-events="bounding-box"><rect x="257.689" y="72" width="18.833" height="6" fill="#FFF" stroke="none"/><text stroke="none" x="259.689" y="80">10</text><rect x="257.689" y="111" width="18.833" height="6" fill="#FFF" stroke="none"/><text stroke="none" x="259.689" y="119">12</text><g class="vf-stem" id="vf-auto4568" pointer-events="bounding-box"><path stroke-width="1.5" fill="none" d="M267.105 135.5L267.105 168.5"/></g><path stroke="none" d="M273.777 135.618C273.608 135.478,273.496 135.394,273.384 135.394C273.243 135.394,273.131 135.534,273.075 135.871C273.047 136.405,272.85 136.91,272.794 137.444C272.766 137.809,272.738 138.174,272.738 138.511C272.738 139.156,272.878 139.746,273.524 140.28C274.254 140.869,274.675 141.824,275.068 142.694C275.181 142.947,275.237 143.228,275.237 143.509C275.237 144.042,275.04 144.604,274.984 145.166C274.703 148.254,273.243 150.838,271.306 153.14C270.547 154.067,269.817 155.078,269.031 156.004C267.15 158.504,266.335 161.34,266.335 164.456L266.335 166.731C266.335 167.489,266.504 168.135,267.318 168.5L267.515 168.5C267.796 167.826,268.076 167.124,268.076 166.394C268.076 165.945,267.992 165.58,267.992 165.215C268.02 163.361,268.891 161.789,270.014 160.329C270.997 159.121,271.923 157.858,272.878 156.65C275.068 153.898,276.163 150.753,276.641 147.3C276.809 146.261,276.894 145.222,276.894 144.155C276.894 142.582,276.697 141.01,276.192 139.437C275.77 137.977,274.788 136.77,273.777 135.618"/><g class="vf-annotation" id="vf-auto4596"><text stroke="none" x="239.69" y="100.338">Text</text></g></g><g class="vf-tabnote" id="vf-auto4571" pointer-events="bounding-box"><rect x="300.709" y="59" width="11.422" height="6" fill="#FFF" stroke="none"/><text stroke="none" x="302.709" y="67">6</text><rect x="300.709" y="85" width="11.422" height="6" fill="#FFF" stroke="none"/><text stroke="none" x="302.709" y="93">5</text><g class="vf-stem" id="vf-auto4572" pointer-events="bounding-box"><path stroke-width="1.5" fill="none" d="M306.42 135.5L306.42 168.5"/></g><path stroke="none" d="M313.091 135.618C312.923 135.478,312.81 135.394,312.698 135.394C312.558 135.394,312.445 135.534,312.389 135.871C312.361 136.405,312.165 136.91,312.108 137.444C312.08 137.809,312.052 138.174,312.052 138.511C312.052 139.156,312.193 139.746,312.838 140.28C313.569 140.869,313.99 141.824,314.383 142.694C314.495 142.947,314.551 143.228,314.551 143.509C314.551 144.042,314.355 144.604,314.299 145.166C314.018 148.254,312.558 150.838,310.62 153.14C309.862 154.067,309.132 155.078,308.346 156.004C306.464 158.504,305.65 161.34,305.65 164.456L305.65 166.731C305.65 167.489,305.818 168.135,306.633 168.5L306.829 168.5C307.11 167.826,307.391 167.124,307.391 166.394C307.391 165.945,307.307 165.58,307.307 165.215C307.335 163.361,308.205 161.789,309.328 160.329C310.311 159.121,311.238 157.858,312.193 156.65C314.383 153.898,315.478 150.753,315.955 147.3C316.124 146.261,316.208 145.222,316.208 144.155C316.208 142.582,316.012 141.01,315.506 139.437C315.085 137.977,314.102 136.77,313.091 135.618"/><g class="vf-annotation" id="vf-auto4597"><text stroke="none" x="279.005" y="181.176">Text</text></g></g><g class="vf-tabnote" id="vf-auto4575" pointer-events="bounding-box"><rect x="343.729" y="59" width="11.422" height="6" fill="#FFF" stroke="none"/><text stroke="none" x="345.729" y="67">6</text><rect x="343.729" y="85" width="11.422" height="6" fill="#FFF" stroke="none"/><text stroke="none" x="345.729" y="93">5</text><g class="vf-stem" id="vf-auto4576" pointer-events="bounding-box"><path stroke-width="1.5" fill="none" d="M349.44 135.5L349.44 168.5"/></g><path stroke="none" d="M356.112 135.618C355.943 135.478,355.831 135.394,355.718 135.394C355.578 135.394,355.466 135.534,355.41 135.871C355.381 136.405,355.185 136.91,355.129 137.444C355.101 137.809,355.073 138.174,355.073 138.511C355.073 139.156,355.213 139.746,355.859 140.28C356.589 140.869,357.01 141.824,357.403 142.694C357.516 142.947,357.572 143.228,357.572 143.509C357.572 144.042,357.375 144.604,357.319 145.166C357.038 148.254,355.578 150.838,353.64 153.14C352.882 154.067,352.152 155.078,351.366 156.004C349.485 158.504,348.67 161.34,348.67 164.456L348.67 166.731C348.67 167.489,348.839 168.135,349.653 168.5L349.85 168.5C350.13 167.826,350.411 167.124,350.411 166.394C350.411 165.945,350.327 165.58,350.327 165.215C350.355 163.361,351.226 161.789,352.349 160.329C353.332 159.121,354.258 157.858,355.213 156.65C357.403 153.898,358.498 150.753,358.976 147.3C359.144 146.261,359.228 145.222,359.228 144.155C359.228 142.582,359.032 141.01,358.526 139.437C358.105 137.977,357.122 136.77,356.112 135.618"/><g class="vf-annotation" id="vf-auto4598"><text stroke="none" x="322.025" y="157.338">Text</text></g></g><g class="vf-tabnote" id="vf-auto4579" pointer-events="bounding-box"><rect x="390.453" y="85" width="11.422" height="6" fill="#FFF" stroke="none"/><text stroke="none" x="392.453" y="93">6</text><rect x="386.75" y="98" width="18.828" height="6" fill="#FFF" stroke="none"/><text stroke="none" x="388.75" y="106">25</text><g class="vf-annotation" id="vf-auto4599"><text stroke="none" x="382.456" y="53">Text</text></g></g><g class="vf-tabnote" id="vf-auto4582" pointer-events="bounding-box"><rect x="429.77" y="72" width="18.833" height="6" fill="#FFF" stroke="none"/><text stroke="none" x="431.77" y="80">10</text><rect x="429.77" y="111" width="18.833" height="6" fill="#FFF" stroke="none"/><text stroke="none" x="431.77" y="119">12</text><g class="vf-annotation" id="vf-auto4600"><text stroke="none" x="425.479" y="100.338">Text</text></g></g><g class="vf-tabnote" id="vf-auto4585" pointer-events="bounding-box"><rect x="472.79" y="59" width="11.422" height="6" fill="#FFF" stroke="none"/><text stroke="none" x="474.79" y="67">6</text><rect x="472.79" y="85" width="11.422" height="6" fill="#FFF" stroke="none"/><text stroke="none" x="474.79" y="93">5</text><g class="vf-annotation" id="vf-auto4601"><text stroke="none" x="464.794" y="140.676">Text</text></g></g><g class="vf-tabnote" id="vf-auto4588" pointer-events="bounding-box"><rect x="515.811" y="59" width="11.422" height="6" fill="#FFF" stroke="none"/><text stroke="none" x="517.811" y="67">6</text><rect x="515.811" y="85" width="11.422" height="6" fill="#FFF" stroke="none"/><text stroke="none" x="517.811" y="93">5</text><g class="vf-annotation" id="vf-auto4602"><text stroke="none" x="507.814" y="44.338">Text</text></g></g></svg>