<svg xmlns="http://www.w3.org/2000/svg" stroke-width="0.3" stroke-dasharray="none" fill="black" stroke="black" font-family="Arial, sans-serif" font-size="10pt" font-weight="normal" font-style="normal" width="600" height="230" viewBox="0 0 600 230" style="width: 600px; height: 230px; border: none;"><g class="vf-stave" id="vf-auto28063" stroke-width="1" fill="#999999" stroke="#999999" font-size="12pt"><path fill="none" d="M0 80L590 80"/><path fill="none" d="M0 90L590 90"/><path fill="none" d="M0 100L590 100"/><path fill="none" d="M0 110L590 110"/><path fill="none" d="M0 120L590 120"/></g><g class="vf-stavebarline" id="vf-auto28064" font-size="12pt"><rect y="79.5" width="1" height="41" stroke="none"/></g><g class="vf-stavebarline" id="vf-auto28065" font-size="12pt"><rect x="590" y="79.5" width="1" height="41" stroke="none"/></g><g class="vf-stavenote" id="vf-auto28066" font-size="12pt"><path stroke-width="1.4" fill="none" stroke="#444" d="M63.428 130L81.418 130"/><g class="vf-stem" id="vf-auto28067" pointer-events="bounding-box"><path stroke-width="1.5" fill="none" d="M67.178 106.5L67.178 165"/></g><g class="vf-notehead" id="vf-auto28073" pointer-events="bounding-box"><path stroke="none" d="M73.532 124.889C73.616 124.889,73.7 124.889,73.841 124.889C74.206 124.889,74.739 124.918,74.936 124.946C77.267 125.283,78.418 126.827,78.418 128.624C78.418 130.534,77.126 132.724,74.543 134.128C73.279 134.802,71.987 135.111,70.808 135.111C68.646 135.111,66.877 134.044,66.512 132.162C66.456 131.881,66.428 131.629,66.428 131.376C66.428 128.343,69.685 125.283,73.532 124.889M76.677 126.35C76.536 126.293,76.396 126.293,76.228 126.293C74.515 126.293,71.005 128.371,69.039 130.674C68.197 131.657,67.747 132.527,67.747 133.061C67.747 133.313,67.832 133.482,68 133.566C68.169 133.678,68.393 133.707,68.618 133.707C70.443 133.707,74.234 131.376,76.115 128.961C76.789 128.119,77.126 127.417,77.126 126.967C77.126 126.658,76.958 126.434,76.677 126.35"/><path stroke="none" d="M44.477 113.119C44.531 113.092,44.614 113.092,44.696 113.092C44.915 113.092,45.133 113.228,45.215 113.447C45.27 113.529,45.27 113.529,45.27 119.767L45.27 126.005L45.325 125.951C46.337 125.103,47.404 124.637,48.471 124.637C48.882 124.637,49.292 124.72,49.675 124.856C50.879 125.294,51.563 126.388,51.563 127.729C51.563 128.44,51.344 129.207,50.934 129.973C50.359 131.04,49.593 131.888,47.432 133.803C46.283 134.843,46.009 135.089,45.352 135.718C44.969 136.074,44.915 136.101,44.696 136.101C44.449 136.101,44.258 135.964,44.176 135.773L44.121 135.664L44.121 124.61L44.121 113.529L44.176 113.447C44.203 113.31,44.34 113.174,44.477 113.119M47.76 126.471C47.651 126.443,47.432 126.416,47.295 126.416C47.24 126.416,47.213 126.416,47.185 126.443C46.474 126.525,45.845 126.963,45.38 127.647L45.27 127.839L45.27 130.985L45.27 134.159L45.352 134.049C47.35 131.86,48.635 129.371,48.635 127.729C48.635 127.565,48.635 127.401,48.608 127.264C48.526 126.881,48.198 126.553,47.76 126.471"/></g><g class="vf-notehead" id="vf-auto28072" pointer-events="bounding-box"><path stroke="none" d="M73.532 114.889C73.616 114.889,73.7 114.889,73.841 114.889C74.206 114.889,74.739 114.918,74.936 114.946C77.267 115.283,78.418 116.827,78.418 118.624C78.418 120.534,77.126 122.724,74.543 124.128C73.279 124.802,71.987 125.111,70.808 125.111C68.646 125.111,66.877 124.044,66.512 122.162C66.456 121.881,66.428 121.629,66.428 121.376C66.428 118.343,69.685 115.283,73.532 114.889M76.677 116.35C76.536 116.293,76.396 116.293,76.228 116.293C74.515 116.293,71.005 118.371,69.039 120.674C68.197 121.657,67.747 122.527,67.747 123.061C67.747 123.313,67.832 123.482,68 123.566C68.169 123.678,68.393 123.707,68.618 123.707C70.443 123.707,74.234 121.376,76.115 118.961C76.789 118.119,77.126 117.417,77.126 116.967C77.126 116.658,76.958 116.434,76.677 116.35"/><path stroke="none" d="M60.527 105.691C60.582 105.663,60.664 105.636,60.746 105.636C60.965 105.636,61.184 105.773,61.266 105.992C61.294 106.101,61.294 106.128,61.294 109.603C61.294 112.859,61.294 113.078,61.348 113.078C61.348 113.078,61.348 113.078,61.348 113.078C61.649 112.996,62.771 112.75,62.853 112.75C63.099 112.75,63.291 112.886,63.373 113.078C63.4 113.16,63.428 113.789,63.428 114.419C63.428 115.048,63.4 115.677,63.373 115.759C63.291 116.033,63.236 116.033,62.142 116.306L61.294 116.525L61.294 119.425C61.294 122.134,61.294 122.353,61.321 122.353C61.348 122.353,61.348 122.353,61.348 122.353C61.649 122.244,62.771 121.997,62.853 121.997C63.017 121.997,63.127 122.052,63.263 122.161C63.4 122.326,63.4 122.271,63.4 123.311C63.4 123.42,63.4 123.557,63.4 123.694C63.4 123.83,63.4 123.94,63.4 124.049C63.4 125.116,63.4 125.062,63.263 125.198C63.127 125.335,63.127 125.335,62.142 125.581L61.294 125.773L61.294 129.33C61.294 132.832,61.294 132.859,61.266 132.941C61.184 133.188,60.965 133.297,60.746 133.297C60.61 133.297,60.445 133.242,60.336 133.133C60.199 132.996,60.172 133.242,60.172 131.053C60.172 130.616,60.172 130.096,60.172 129.467C60.172 127.579,60.172 126.047,60.172 126.047C60.172 126.047,59.625 126.183,58.968 126.348C58.284 126.512,57.737 126.648,57.737 126.648C57.737 126.648,57.737 128.29,57.737 130.287C57.737 133.872,57.737 133.899,57.682 134.008C57.6 134.227,57.381 134.364,57.162 134.364C57.025 134.364,56.861 134.309,56.752 134.2C56.615 134.036,56.615 134.282,56.615 132.066C56.615 131.628,56.615 131.081,56.615 130.424C56.615 127.168,56.615 126.949,56.588 126.949C56.588 126.949,56.588 126.949,56.56 126.949C56.232 127.032,55.22 127.25,55.138 127.25C54.891 127.25,54.672 127.114,54.59 126.922C54.563 126.84,54.563 126.211,54.563 125.581C54.563 124.952,54.563 124.323,54.59 124.241C54.7 123.995,54.755 123.967,55.794 123.694L56.615 123.502L56.615 120.575C56.615 117.866,56.615 117.674,56.588 117.674C56.588 117.674,56.588 117.674,56.56 117.674C56.232 117.756,55.22 118.003,55.138 118.003C54.891 118.003,54.672 117.866,54.59 117.647C54.563 117.592,54.563 116.936,54.563 116.306C54.563 115.677,54.563 115.048,54.59 114.966C54.7 114.72,54.755 114.692,55.794 114.446L56.615 114.254L56.615 110.698C56.615 107.168,56.615 107.141,56.642 107.059C56.724 106.812,56.943 106.703,57.162 106.703C57.299 106.703,57.463 106.758,57.573 106.867C57.709 107.004,57.737 106.758,57.737 108.947C57.737 109.384,57.737 109.904,57.737 110.561C57.737 112.421,57.737 113.953,57.737 113.953C57.737 113.953,58.284 113.817,58.941 113.68C59.625 113.516,60.172 113.379,60.172 113.379C60.172 113.379,60.172 111.737,60.172 109.74C60.172 106.128,60.172 106.101,60.227 105.992C60.254 105.882,60.391 105.745,60.527 105.691M60.172 119.699C60.172 117.401,60.172 116.799,60.172 116.799L60.172 116.799C60.144 116.799,59.953 116.826,59.734 116.908C59.515 116.963,58.968 117.072,58.53 117.182L57.737 117.401L57.737 120.301C57.737 121.915,57.737 123.228,57.737 123.228C57.737 123.228,58.284 123.092,58.941 122.928C59.625 122.763,60.172 122.627,60.172 122.627C60.172 122.627,60.172 121.313,60.172 119.699"/></g><g class="vf-notehead" id="vf-auto28071" pointer-events="bounding-box"><path stroke="none" d="M73.532 99.889C73.616 99.889,73.7 99.889,73.841 99.889C74.206 99.889,74.739 99.918,74.936 99.946C77.267 100.283,78.418 101.827,78.418 103.624C78.418 105.534,77.126 107.724,74.543 109.128C73.279 109.802,71.987 110.111,70.808 110.111C68.646 110.111,66.877 109.044,66.512 107.162C66.456 106.881,66.428 106.629,66.428 106.376C66.428 103.343,69.685 100.283,73.532 99.889M76.677 101.35C76.536 101.293,76.396 101.293,76.228 101.293C74.515 101.293,71.005 103.371,69.039 105.674C68.197 106.657,67.747 107.527,67.747 108.061C67.747 108.313,67.832 108.482,68 108.566C68.169 108.678,68.393 108.707,68.618 108.707C70.443 108.707,74.234 106.376,76.115 103.961C76.789 103.119,77.126 102.417,77.126 101.967C77.126 101.658,76.958 101.434,76.677 101.35"/></g></g><g class="vf-stavenote" id="vf-auto28078" font-size="12pt"><g class="vf-stem" id="vf-auto28079" pointer-events="bounding-box"><path stroke-width="1.5" fill="none" d="M278.254 116.5L278.254 157"/></g><g class="vf-notehead" id="vf-auto28086" pointer-events="bounding-box"><path stroke="none" d="M284.608 119.889C284.692 119.889,284.777 119.889,284.917 119.889C285.282 119.889,285.816 119.918,286.012 119.946C288.343 120.283,289.494 121.827,289.494 123.624C289.494 125.534,288.202 127.724,285.619 129.128C284.355 129.802,283.064 130.111,281.884 130.111C279.722 130.111,277.953 129.044,277.588 127.162C277.532 126.881,277.504 126.629,277.504 126.376C277.504 123.343,280.761 120.283,284.608 119.889"/></g><g class="vf-notehead" id="vf-auto28085" pointer-events="bounding-box"><path stroke="none" d="M273.368 114.889C273.452 114.889,273.536 114.889,273.677 114.889C274.042 114.889,274.575 114.918,274.772 114.946C277.103 115.283,278.254 116.827,278.254 118.624C278.254 120.534,276.962 122.724,274.379 124.128C273.115 124.802,271.824 125.111,270.644 125.111C268.482 125.111,266.713 124.044,266.348 122.162C266.292 121.881,266.264 121.629,266.264 121.376C266.264 118.343,269.521 115.283,273.368 114.889"/></g><g class="vf-notehead" id="vf-auto28084" pointer-events="bounding-box"><path stroke="none" d="M284.608 109.889C284.692 109.889,284.777 109.889,284.917 109.889C285.282 109.889,285.816 109.918,286.012 109.946C288.343 110.283,289.494 111.827,289.494 113.624C289.494 115.534,288.202 117.724,285.619 119.128C284.355 119.802,283.064 120.111,281.884 120.111C279.722 120.111,277.953 119.044,277.588 117.162C277.532 116.881,277.504 116.629,277.504 116.376C277.504 113.343,280.761 110.283,284.608 109.889"/></g><path stroke="none" d="M284.496 133.723C284.58 133.695,284.665 133.695,284.749 133.695C284.973 133.695,285.142 133.864,285.423 134.257C287.388 137.262,288.399 140.631,288.399 143.86C288.399 145.938,287.978 147.932,287.136 149.757C286.518 151.105,285.619 152.369,284.637 153.267C282.474 155.233,280.986 156.889,279.694 158.715C279.021 159.641,278.375 160.736,278.094 161.438C277.982 161.691,277.785 161.86,277.588 161.86L277.504 161.86L277.504 157.591L277.504 153.351L277.645 153.351C278.431 153.351,279.919 153.071,280.874 152.762C284.468 151.554,286.911 147.567,286.911 142.962C286.911 140.21,286.041 137.346,284.412 134.875C284.187 134.51,284.131 134.454,284.131 134.285C284.131 134.032,284.271 133.808,284.496 133.723"/></g><g class="vf-stavenote" id="vf-auto28088" font-size="12pt"><path stroke-width="1.4" fill="none" stroke="#444" d="M346.824 130L364.814 130"/><g class="vf-stem" id="vf-auto28089" pointer-events="bounding-box"><path stroke-width="1.5" fill="none" d="M350.574 106.5L350.574 162"/></g><g class="vf-notehead" id="vf-auto28096" pointer-events="bounding-box"><path stroke="none" d="M356.928 124.889C357.012 124.889,357.096 124.889,357.237 124.889C357.602 124.889,358.135 124.918,358.332 124.946C360.662 125.283,361.814 126.827,361.814 128.624C361.814 130.534,360.522 132.724,357.939 134.128C356.675 134.802,355.383 135.111,354.204 135.111C352.042 135.111,350.273 134.044,349.908 132.162C349.852 131.881,349.824 131.629,349.824 131.376C349.824 128.343,353.081 125.283,356.928 124.889"/></g><g class="vf-notehead" id="vf-auto28095" pointer-events="bounding-box"><path stroke="none" d="M356.928 109.889C357.012 109.889,357.096 109.889,357.237 109.889C357.602 109.889,358.135 109.918,358.332 109.946C360.662 110.283,361.814 111.827,361.814 113.624C361.814 115.534,360.522 117.724,357.939 119.128C356.675 119.802,355.383 120.111,354.204 120.111C352.042 120.111,350.273 119.044,349.908 117.162C349.852 116.881,349.824 116.629,349.824 116.376C349.824 113.343,353.081 110.283,356.928 109.889"/></g><g class="vf-notehead" id="vf-auto28094" pointer-events="bounding-box"><path stroke="none" d="M356.928 99.889C357.012 99.889,357.096 99.889,357.237 99.889C357.602 99.889,358.135 99.918,358.332 99.946C360.662 100.283,361.814 101.827,361.814 103.624C361.814 105.534,360.522 107.724,357.939 109.128C356.675 109.802,355.383 110.111,354.204 110.111C352.042 110.111,350.273 109.044,349.908 107.162C349.852 106.881,349.824 106.629,349.824 106.376C349.824 103.343,353.081 100.283,356.928 99.889"/></g><path stroke="none" d="M356.816 138.723C356.9 138.695,356.984 138.695,357.068 138.695C357.293 138.695,357.462 138.864,357.742 139.257C359.708 142.262,360.719 145.631,360.719 148.86C360.719 150.938,360.298 152.932,359.455 154.757C358.838 156.105,357.939 157.369,356.956 158.267C354.794 160.233,353.306 161.889,352.014 163.715C351.34 164.641,350.694 165.736,350.414 166.438C350.301 166.691,350.105 166.86,349.908 166.86L349.824 166.86L349.824 162.591L349.824 158.351L349.964 158.351C350.75 158.351,352.239 158.071,353.193 157.762C356.788 156.554,359.231 152.567,359.231 147.962C359.231 145.21,358.36 142.346,356.732 139.875C356.507 139.51,356.451 139.454,356.451 139.285C356.451 139.032,356.591 138.808,356.816 138.723"/></g><g class="vf-stavenote" id="vf-auto28098" font-size="12pt"><path stroke-width="1.4" fill="none" stroke="#444" d="M438.216 130L456.206 130"/><g class="vf-stem" id="vf-auto28099" pointer-events="bounding-box"><path stroke-width="1.5" fill="none" d="M441.966 106.5L441.966 162"/></g><g class="vf-notehead" id="vf-auto28106" pointer-events="bounding-box"><path stroke="none" d="M448.32 124.889C448.404 124.889,448.488 124.889,448.629 124.889C448.994 124.889,449.527 124.918,449.724 124.946C452.055 125.283,453.206 126.827,453.206 128.624C453.206 130.534,451.914 132.724,449.331 134.128C448.067 134.802,446.776 135.111,445.596 135.111C443.434 135.111,441.665 134.044,441.3 132.162C441.244 131.881,441.216 131.629,441.216 131.376C441.216 128.343,444.473 125.283,448.32 124.889"/></g><g class="vf-notehead" id="vf-auto28105" pointer-events="bounding-box"><path stroke="none" d="M448.32 109.889C448.404 109.889,448.488 109.889,448.629 109.889C448.994 109.889,449.527 109.918,449.724 109.946C452.055 110.283,453.206 111.827,453.206 113.624C453.206 115.534,451.914 117.724,449.331 119.128C448.067 119.802,446.776 120.111,445.596 120.111C443.434 120.111,441.665 119.044,441.3 117.162C441.244 116.881,441.216 116.629,441.216 116.376C441.216 113.343,444.473 110.283,448.32 109.889"/></g><g class="vf-notehead" id="vf-auto28104" pointer-events="bounding-box"><path stroke="none" d="M448.32 99.889C448.404 99.889,448.488 99.889,448.629 99.889C448.994 99.889,449.527 99.918,449.724 99.946C452.055 100.283,453.206 101.827,453.206 103.624C453.206 105.534,451.914 107.724,449.331 109.128C448.067 109.802,446.776 110.111,445.596 110.111C443.434 110.111,441.665 109.044,441.3 107.162C441.244 106.881,441.216 106.629,441.216 106.376C441.216 103.343,444.473 100.283,448.32 99.889"/></g><path stroke="none" d="M448.208 138.723C448.292 138.695,448.376 138.695,448.461 138.695C448.685 138.695,448.854 138.864,449.135 139.257C451.1 142.262,452.111 145.631,452.111 148.86C452.111 150.938,451.69 152.932,450.848 154.757C450.23 156.105,449.331 157.369,448.348 158.267C446.186 160.233,444.698 161.889,443.406 163.715C442.732 164.641,442.087 165.736,441.806 166.438C441.693 166.691,441.497 166.86,441.3 166.86L441.216 166.86L441.216 162.591L441.216 158.351L441.356 158.351C442.143 158.351,443.631 158.071,444.586 157.762C448.18 156.554,450.623 152.567,450.623 147.962C450.623 145.21,449.752 142.346,448.124 139.875C447.899 139.51,447.843 139.454,447.843 139.285C447.843 139.032,447.983 138.808,448.208 138.723"/></g><g class="vf-stavenote" id="vf-auto28108" font-size="12pt"><path stroke-width="1.4" fill="none" stroke="#444" d="M510.535 130L528.526 130"/><g class="vf-stem" id="vf-auto28109" pointer-events="bounding-box"><path stroke-width="1.5" fill="none" d="M514.285 106.5L514.285 162"/></g><g class="vf-notehead" id="vf-auto28116" pointer-events="bounding-box"><path stroke="none" d="M520.64 124.889C520.724 124.889,520.808 124.889,520.949 124.889C521.314 124.889,521.847 124.918,522.044 124.946C524.374 125.283,525.526 126.827,525.526 128.624C525.526 130.534,524.234 132.724,521.651 134.128C520.387 134.802,519.095 135.111,517.916 135.111C515.754 135.111,513.985 134.044,513.62 132.162C513.564 131.881,513.535 131.629,513.535 131.376C513.535 128.343,516.793 125.283,520.64 124.889"/></g><g class="vf-notehead" id="vf-auto28115" pointer-events="bounding-box"><path stroke="none" d="M520.64 109.889C520.724 109.889,520.808 109.889,520.949 109.889C521.314 109.889,521.847 109.918,522.044 109.946C524.374 110.283,525.526 111.827,525.526 113.624C525.526 115.534,524.234 117.724,521.651 119.128C520.387 119.802,519.095 120.111,517.916 120.111C515.754 120.111,513.985 119.044,513.62 117.162C513.564 116.881,513.535 116.629,513.535 116.376C513.535 113.343,516.793 110.283,520.64 109.889"/></g><g class="vf-notehead" id="vf-auto28114" pointer-events="bounding-box"><path stroke="none" d="M520.64 99.889C520.724 99.889,520.808 99.889,520.949 99.889C521.314 99.889,521.847 99.918,522.044 99.946C524.374 100.283,525.526 101.827,525.526 103.624C525.526 105.534,524.234 107.724,521.651 109.128C520.387 109.802,519.095 110.111,517.916 110.111C515.754 110.111,513.985 109.044,513.62 107.162C513.564 106.881,513.535 106.629,513.535 106.376C513.535 103.343,516.793 100.283,520.64 99.889"/></g><path stroke="none" d="M520.528 138.723C520.612 138.695,520.696 138.695,520.78 138.695C521.005 138.695,521.174 138.864,521.454 139.257C523.42 142.262,524.431 145.631,524.431 148.86C524.431 150.938,524.01 152.932,523.167 154.757C522.549 156.105,521.651 157.369,520.668 158.267C518.506 160.233,517.018 161.889,515.726 163.715C515.052 164.641,514.406 165.736,514.125 166.438C514.013 166.691,513.817 166.86,513.62 166.86L513.536 166.86L513.536 162.591L513.536 158.351L513.676 158.351C514.462 158.351,515.951 158.071,516.905 157.762C520.5 156.554,522.943 152.567,522.943 147.962C522.943 145.21,522.072 142.346,520.443 139.875C520.219 139.51,520.163 139.454,520.163 139.285C520.163 139.032,520.303 138.808,520.528 138.723"/></g><text stroke="none" font-size="12pt" x="35.648" y="50">Center</text><path stroke="none" d="M122.259 33.843C122.288 33.843,122.346 33.843,122.403 33.843C122.605 33.843,122.95 33.843,123.037 33.872C123.094 33.872,123.267 33.901,123.382 33.901C124.678 33.987,125.917 34.88,126.176 35.859C126.205 36.032,126.234 36.176,126.234 36.32C126.234 37.386,125.283 38.278,124.246 38.278C123.987 38.278,123.728 38.221,123.498 38.106C122.806 37.818,122.461 37.155,122.461 36.493C122.461 36.003,122.662 35.485,123.123 35.168C123.152 35.139,123.152 35.139,123.152 35.11C123.152 35.11,123.152 35.11,123.152 35.11C123.123 35.11,122.72 35.312,122.518 35.456C121.136 36.406,119.898 38.221,119.149 40.438C119.091 40.611,119.034 40.755,119.034 40.755C119.034 40.755,119.523 40.755,120.099 40.755C120.186 40.755,120.243 40.755,120.33 40.755C121.338 40.755,121.309 40.784,121.51 40.928C121.683 41.072,121.77 41.274,121.77 41.504C121.77 41.734,121.683 41.936,121.51 42.08C121.309 42.224,121.366 42.253,120.214 42.253C120.128 42.253,120.013 42.253,119.898 42.253L118.63 42.253L118.602 42.454C117.766 46.746,115.952 51.094,113.821 53.946C112.352 55.904,110.336 57.085,108.464 57.085C108.435 57.085,108.378 57.085,108.349 57.085C106.851 57.056,105.728 55.875,105.728 54.464C105.728 54.234,105.757 54.032,105.814 53.802C106.045 52.88,106.851 52.419,107.658 52.419C108.464 52.419,109.299 52.88,109.558 53.83C109.587 53.974,109.616 54.147,109.616 54.291C109.616 54.896,109.299 55.472,108.752 55.818C108.694 55.846,108.666 55.846,108.666 55.875C108.666 55.875,108.666 55.875,108.666 55.875C108.694 55.875,108.752 55.846,108.838 55.818C109.76 55.558,110.682 54.694,111.258 53.514C111.459 53.11,111.603 52.765,111.862 51.987C112.496 50.086,113.043 48.042,114.138 43.347C114.282 42.771,114.397 42.282,114.397 42.282C114.397 42.282,114.397 42.282,114.397 42.282C114.397 42.253,114.282 42.253,113.187 42.253C111.891 42.253,111.862 42.253,111.747 42.166C111.488 41.994,111.344 41.763,111.344 41.504C111.344 41.274,111.488 41.014,111.747 40.842C111.862 40.784,111.862 40.784,113.36 40.755L114.8 40.755L114.915 40.438C116.24 36.723,119.178 34.074,122.259 33.843"/><path stroke="none" d="M169.34 39.2C169.455 39.2,169.542 39.2,169.657 39.2C170.924 39.2,172.076 40.179,172.278 41.504L172.307 41.648L172.479 41.446C173.171 40.64,174.179 39.891,174.985 39.661C175.187 39.574,175.417 39.546,175.647 39.546C176.223 39.546,176.828 39.776,177.375 40.208C178.268 40.928,178.729 41.994,178.729 43.261C178.729 46.861,176.886 49.971,174.207 50.806C173.833 50.922,173.43 50.979,173.055 50.979C172.566 50.979,172.134 50.893,171.903 50.662C171.846 50.634,171.731 50.518,171.615 50.461C171.097 50.029,170.723 49.482,170.521 48.848C170.463 48.704,170.435 48.618,170.435 48.589C170.435 48.589,170.435 48.56,170.435 48.56C170.406 48.56,170.233 49.165,169.369 51.987C168.505 54.896,168.332 55.472,168.332 55.587C168.332 55.645,168.332 55.645,168.361 55.645C168.476 55.76,168.879 55.904,169.254 55.99C169.369 56.019,169.513 56.048,169.571 56.077C169.801 56.134,169.887 56.307,169.887 56.509C169.887 56.653,169.83 56.826,169.657 56.912C169.599 56.941,167.9 56.941,166.201 56.941C164.502 56.941,162.831 56.941,162.774 56.912C162.601 56.826,162.515 56.653,162.515 56.509C162.515 56.394,162.543 56.278,162.63 56.192C162.716 56.106,162.745 56.077,163.119 56.019C164.243 55.76,164.646 55.587,164.79 55.184C164.934 54.81,168.707 42.253,168.707 42.138C168.735 42.051,168.764 41.907,168.793 41.792C168.822 41.648,168.822 41.533,168.822 41.418C168.822 41.101,168.678 40.899,168.419 40.899C168.39 40.899,168.332 40.899,168.275 40.928C167.382 41.158,166.431 42.195,165.913 43.52C165.769 43.894,165.74 43.952,165.539 43.952C165.337 43.952,165.251 43.866,165.251 43.693C165.251 43.578,165.279 43.434,165.337 43.29C165.913 41.821,166.835 40.611,168.044 39.834C168.188 39.747,168.332 39.632,168.39 39.574C168.563 39.43,168.995 39.258,169.34 39.2M174.812 41.389C174.726 41.36,174.639 41.331,174.524 41.331C174.035 41.331,173.228 41.734,172.623 42.282C172.307 42.627,172.249 42.685,172.191 42.858C172.163 42.944,172.105 43.088,172.076 43.146C172.019 43.232,171.817 43.894,171.414 45.219L170.809 47.178L170.838 47.379C170.838 47.811,171.011 48.272,171.212 48.618C171.443 48.934,171.817 49.222,172.019 49.222C172.047 49.222,172.076 49.222,172.076 49.194C172.105 49.194,172.249 49.136,172.364 49.078C174.006 48.33,175.388 46.112,175.619 43.779C175.647 43.52,175.676 43.261,175.676 43.059C175.676 42.166,175.417 41.706,174.812 41.389"/><path stroke="none" d="M221.145 39.43C221.26 39.402,221.404 39.402,221.519 39.402C222.325 39.402,223.132 39.834,223.593 40.525C223.679 40.669,223.823 40.986,223.852 41.043C223.852 41.072,223.852 41.072,223.852 41.072C223.881 41.072,223.909 41.014,223.996 40.899C224.255 40.525,224.543 40.208,224.86 39.949C224.946 39.891,225.061 39.776,225.119 39.718C225.378 39.488,225.724 39.402,226.127 39.402C226.674 39.402,227.25 39.574,227.711 39.92C228.057 40.208,228.431 40.755,228.489 41.043C228.517 41.072,228.517 41.072,228.517 41.072C228.517 41.072,228.575 41.014,228.661 40.899C228.892 40.525,229.209 40.208,229.525 39.949C229.612 39.891,229.727 39.776,229.785 39.718C230.015 39.488,230.389 39.402,230.793 39.402C231.311 39.402,231.916 39.574,232.348 39.92C232.981 40.41,233.327 41.245,233.327 42.022C233.327 42.368,233.241 42.685,233.097 42.973C233.039 43.088,231.541 48.042,231.541 48.128C231.541 48.157,231.541 48.301,231.513 48.387C231.484 48.502,231.455 48.618,231.455 48.733C231.455 49.05,231.599 49.309,231.801 49.309C231.801 49.309,231.801 49.309,231.829 49.309C232.751 49.194,233.932 47.984,234.479 46.573C234.652 46.141,234.681 46.083,234.882 46.083C235.055 46.083,235.17 46.17,235.17 46.342C235.17 46.544,235.055 46.861,234.796 47.35C234.133 48.733,233.269 49.683,232.089 50.346C231.916 50.403,231.772 50.518,231.714 50.547C231.455 50.691,231.196 50.749,230.908 50.749C230.159 50.749,229.381 50.288,228.978 49.51C228.777 49.165,228.69 48.733,228.69 48.301C228.69 47.955,228.748 47.61,228.892 47.35C228.949 47.235,230.447 42.282,230.447 42.195C230.447 42.138,230.476 42.051,230.505 41.936C230.533 41.792,230.533 41.677,230.533 41.59C230.533 41.245,230.389 40.986,230.101 40.842C230.015 40.784,229.957 40.784,229.929 40.784C229.871 40.784,229.813 40.813,229.698 40.87C229.237 41.101,228.69 41.878,228.633 42.368C228.604 42.512,228.517 42.858,228.46 42.944C228.431 43.002,227.97 44.499,227.394 46.4C226.329 49.971,226.357 49.885,226.242 49.942L226.185 50L224.975 50C224.86 50,224.745 50,224.629 50C223.65 50,223.708 50,223.621 49.856C223.593 49.827,223.593 49.827,223.593 49.77C223.593 49.597,223.765 48.992,224.687 45.968C225.292 43.952,225.781 42.224,225.781 42.166C225.81 42.109,225.839 41.994,225.839 41.907C225.868 41.792,225.897 41.677,225.897 41.59C225.897 41.245,225.724 40.986,225.436 40.842C225.349 40.813,225.321 40.784,225.263 40.784C225.205 40.784,225.148 40.813,225.033 40.87C224.601 41.101,224.025 41.878,223.967 42.368C223.967 42.512,223.852 42.858,223.794 42.944C223.765 43.002,223.333 44.499,222.757 46.4C221.663 49.971,221.692 49.885,221.605 49.942L221.548 50L220.338 50C220.194 50,220.079 50,219.993 50C218.985 50,219.042 50,218.956 49.856C218.956 49.827,218.927 49.827,218.927 49.77C218.927 49.597,219.129 48.992,220.021 45.968C220.626 43.952,221.145 42.224,221.145 42.166C221.145 42.109,221.173 41.994,221.202 41.907C221.231 41.792,221.231 41.677,221.231 41.59C221.231 41.245,221.087 40.986,220.799 40.842C220.741 40.813,220.684 40.784,220.597 40.784C220.453 40.784,220.281 40.87,220.021 40.986C219.215 41.389,218.437 42.339,217.977 43.491C217.833 43.894,217.775 43.952,217.602 43.952C217.401 43.952,217.314 43.866,217.314 43.693C217.314 43.578,217.343 43.434,217.401 43.29C218.005 41.734,219.129 40.381,220.338 39.776C220.396 39.747,220.511 39.69,220.569 39.632C220.713 39.546,220.914 39.459,221.145 39.43"/><path stroke="none" d="M281.253 40.266C281.31 40.266,282.462 40.237,283.902 40.237C286.379 40.237,289.662 40.266,289.691 40.266C289.864 40.352,289.979 40.525,289.979 40.698C289.979 40.813,289.921 40.928,289.835 41.014C289.777 41.072,288.251 42.339,286.437 43.837C284.593 45.363,283.096 46.602,283.067 46.63L283.009 46.659L283.355 46.659C283.384 46.659,283.441 46.659,283.47 46.659C284.161 46.659,284.651 46.832,285.169 47.264C285.601 47.61,286.177 47.84,286.581 47.84C286.638 47.84,286.667 47.84,286.725 47.84C286.84 47.811,286.955 47.725,287.099 47.466C287.157 47.408,287.185 47.379,287.185 47.35C287.185 47.35,287.185 47.35,287.157 47.35C287.157 47.35,287.128 47.35,287.099 47.379C287.013 47.408,286.926 47.408,286.84 47.408C286.321 47.408,285.861 46.947,285.861 46.371C285.861 46.314,285.889 46.227,285.889 46.17C286.005 45.594,286.552 45.248,287.128 45.248C287.416 45.248,287.733 45.363,287.963 45.594C288.193 45.853,288.28 46.227,288.28 46.659C288.28 47.293,288.049 48.013,287.617 48.387C287.387 48.618,286.811 49.05,286.638 49.194C285.918 49.654,285.112 49.914,284.392 49.914C283.816 49.914,283.24 49.77,282.779 49.424C282.289 49.107,281.656 48.934,281.08 48.934C280.763 48.934,280.475 48.963,280.245 49.078C280.043 49.136,279.985 49.165,279.726 49.395C279.467 49.597,279.409 49.626,279.265 49.626C278.977 49.626,278.805 49.424,278.805 49.194C278.805 49.078,278.833 48.963,278.92 48.848C279.006 48.762,279.553 48.301,279.87 48.07C280.072 47.926,286.005 43.002,286.12 42.915C286.12 42.915,286.12 42.915,286.12 42.915C286.12 42.886,285.4 42.886,284.565 42.886C283.384 42.886,281.973 42.915,281.857 42.915C281.454 43.002,281.08 43.174,280.677 43.52C280.446 43.722,280.417 43.75,280.302 43.75C280.273 43.779,280.245 43.779,280.216 43.779C279.957 43.779,279.784 43.578,279.784 43.318L279.784 43.318L279.784 43.174L280.389 41.821C280.734 41.072,281.022 40.438,281.051 40.41C281.109 40.352,281.195 40.266,281.253 40.266"/><path stroke="none" d="M338.02 45.104C338.049 45.075,338.135 45.075,338.193 45.075C338.308 45.075,338.452 45.104,338.539 45.162C338.596 45.19,339.691 46.285,341.044 47.61C342.369 48.906,343.463 50,343.463 50C343.492 50,344.385 48.934,345.451 47.61C346.689 46.083,347.438 45.19,347.467 45.162C347.582 45.104,347.697 45.075,347.812 45.075C347.927 45.075,348.071 45.104,348.158 45.162C348.215 45.19,350.548 47.494,352.593 49.51L353.083 50.029L353.889 49.021C354.897 47.811,354.897 47.811,355.185 47.811L355.214 47.811C355.559 47.811,355.819 48.07,355.819 48.387C355.819 48.474,355.79 48.56,355.761 48.646C355.675 48.819,350.807 54.752,350.663 54.838C350.577 54.896,350.433 54.925,350.318 54.925C350.203 54.925,350.087 54.896,349.972 54.838C349.943 54.81,348.849 53.715,347.495 52.39C346.171 51.094,345.076 50,345.076 50C345.047 50,344.155 51.066,343.089 52.39C341.851 53.917,341.102 54.81,341.073 54.838C340.958 54.896,340.843 54.925,340.727 54.925C340.612 54.925,340.497 54.896,340.382 54.838C340.324 54.81,337.963 52.448,335.947 50.49L335.457 49.971L334.651 50.979C333.643 52.189,333.643 52.189,333.355 52.189L333.326 52.189C332.98 52.189,332.721 51.93,332.721 51.613C332.721 51.526,332.75 51.44,332.779 51.354C332.865 51.181,337.732 45.248,337.876 45.162C337.905 45.133,337.963 45.104,338.02 45.104"/><path stroke="none" d="M383.808 42.31C383.894 42.282,383.952 42.282,384.038 42.282C384.269 42.282,384.499 42.397,384.585 42.627C384.643 42.685,384.643 42.714,384.643 45.536L384.643 48.387L385.968 46.803C386.774 45.824,387.293 45.19,387.321 45.162C387.437 45.104,387.552 45.075,387.667 45.075C387.782 45.075,387.926 45.104,388.013 45.162C388.07 45.19,390.403 47.494,392.448 49.51L392.937 50.029L393.744 49.021C394.752 47.811,394.752 47.811,395.04 47.811L395.069 47.811C395.414 47.811,395.673 48.07,395.673 48.387C395.673 48.474,395.645 48.56,395.616 48.646C395.529 48.819,390.662 54.752,390.518 54.838C390.432 54.896,390.288 54.925,390.173 54.925C390.057 54.925,389.942 54.896,389.827 54.838C389.798 54.81,388.704 53.715,387.35 52.39C386.025 51.094,384.931 50,384.931 50C384.931 50,384.931 50,384.931 50C384.902 50,384.845 50.086,384.787 50.173L384.643 50.317L384.643 54.118C384.643 54.838,384.643 55.414,384.643 55.904C384.643 58.323,384.643 58.064,384.47 58.208C384.355 58.323,384.211 58.381,384.067 58.381C383.837 58.381,383.606 58.266,383.52 58.064C383.462 57.978,383.462 57.949,383.462 54.867L383.462 51.786L382.224 53.283C381.446 54.234,380.985 54.81,380.928 54.838C380.813 54.896,380.697 54.925,380.582 54.925C380.467 54.925,380.352 54.896,380.237 54.838C380.179 54.81,377.817 52.448,375.801 50.49L375.312 49.971L374.505 50.979C373.497 52.189,373.497 52.189,373.209 52.189L373.181 52.189C372.835 52.189,372.576 51.93,372.576 51.613C372.576 51.526,372.605 51.44,372.633 51.354C372.72 51.181,377.587 45.248,377.731 45.162C377.817 45.104,377.961 45.075,378.077 45.075C378.192 45.075,378.307 45.104,378.393 45.162C378.451 45.19,380.985 47.667,382.829 49.51L383.318 50L383.405 49.942L383.462 49.856L383.462 46.314C383.462 42.771,383.462 42.742,383.491 42.656C383.549 42.512,383.693 42.368,383.808 42.31"/><path stroke="none" d="M433.934 36.406C434.107 36.378,434.251 36.378,434.424 36.378C436.296 36.378,438.052 37.645,438.686 39.488C438.772 39.747,438.801 39.978,438.801 40.208C438.801 41.158,438.081 41.936,437.016 41.936C436.18 41.936,435.604 41.504,435.316 40.64C434.884 39.43,433.963 38.653,432.984 38.653C432.753 38.653,432.523 38.71,432.292 38.797C431.601 39.085,431.256 39.632,431.256 40.41C431.256 40.582,431.284 40.755,431.313 40.957C431.745 43.491,434.164 46.256,437.39 47.869C437.678 48.013,437.937 48.128,437.966 48.157L438.052 48.186L438.081 48.128C438.139 48.099,438.974 46.803,441.163 43.491C441.71 42.656,442.632 41.245,443.179 40.41C443.755 39.546,444.446 38.509,444.734 38.077C445.31 37.155,445.339 37.126,445.483 37.04C445.598 36.954,445.742 36.925,445.886 36.925C446.289 36.925,446.635 37.213,446.635 37.674C446.635 37.674,446.635 37.702,446.635 37.702C446.635 37.933,446.606 37.933,446.001 38.854C445.771 39.229,445.108 40.237,444.532 41.101C442.948 43.491,441.566 45.594,440.529 47.149C440.011 47.955,439.55 48.646,439.521 48.704L439.464 48.819L439.665 48.934C442.113 50.23,444.014 52.16,445.022 54.406C445.569 55.616,445.828 56.854,445.828 58.006C445.828 60.714,444.417 62.989,442.056 63.536C441.739 63.594,441.422 63.622,441.105 63.622C439.262 63.622,437.505 62.413,436.872 60.541C436.785 60.282,436.728 60.051,436.728 59.821C436.728 58.842,437.448 58.064,438.513 58.064C439.348 58.064,439.924 58.496,440.241 59.36C440.644 60.57,441.595 61.347,442.545 61.347C442.776 61.347,443.006 61.29,443.236 61.203C443.928 60.915,444.273 60.368,444.273 59.59C444.273 59.418,444.244 59.245,444.216 59.043C443.784 56.509,441.364 53.744,438.139 52.131C437.851 51.987,437.592 51.872,437.563 51.843L437.476 51.814L437.448 51.872C437.419 51.901,436.526 53.226,434.366 56.509C433.819 57.373,432.897 58.755,432.35 59.59C431.774 60.454,431.083 61.491,430.795 61.952C430.219 62.845,430.19 62.874,430.046 62.96C429.931 63.046,429.787 63.075,429.643 63.075C429.268 63.075,428.894 62.787,428.894 62.326C428.894 62.326,428.894 62.298,428.894 62.298C428.894 62.096,428.923 62.067,429.499 61.174C430.276 59.994,432.379 56.797,435.028 52.794C435.576 51.958,436.036 51.267,436.065 51.238L436.094 51.181L435.864 51.066C433.416 49.77,431.515 47.84,430.507 45.594C429.96 44.384,429.7 43.146,429.7 41.994C429.7 39.114,431.313 36.723,433.934 36.406M445.08 45.018C445.195 44.989,445.31 44.96,445.425 44.96C446.001 44.96,446.606 45.277,446.923 45.766C447.124 46.054,447.211 46.4,447.211 46.746C447.211 47.091,447.124 47.437,446.923 47.754C446.577 48.272,446.03 48.531,445.454 48.531C444.964 48.531,444.504 48.358,444.158 47.955C443.812 47.61,443.668 47.178,443.668 46.774C443.668 45.968,444.187 45.19,445.08 45.018M429.7 51.498C429.816 51.469,429.931 51.469,430.046 51.469C430.536 51.469,431.054 51.67,431.4 52.045C431.688 52.362,431.86 52.822,431.86 53.254C431.86 53.6,431.774 53.946,431.572 54.234C431.227 54.752,430.651 55.04,430.075 55.04C429.614 55.04,429.124 54.838,428.779 54.464C428.462 54.118,428.318 53.686,428.318 53.254C428.318 52.477,428.836 51.699,429.7 51.498"/><path stroke="none" d="M510.372 39.056C510.401 39.027,510.516 39.027,510.603 39.027C510.689 39.027,510.775 39.027,510.833 39.056C510.977 39.114,511.121 39.2,511.207 39.344C511.323 39.546,511.323 39.517,511.323 40.611C511.323 41.562,511.323 41.619,511.351 41.619C511.611 41.619,512.503 41.936,513.022 42.224C515.268 43.491,516.766 46.026,517.054 49.05L517.083 49.309L518.004 49.309C519.041 49.309,519.012 49.309,519.214 49.424C519.415 49.568,519.531 49.798,519.531 50.029C519.531 50.259,519.415 50.518,519.214 50.662C519.012 50.778,519.041 50.778,518.004 50.778L517.083 50.778L517.054 51.008C516.708 54.694,514.548 57.661,511.611 58.41C511.495 58.438,511.38 58.467,511.351 58.467C511.323 58.467,511.323 58.525,511.323 59.418L511.323 59.533C511.323 60.512,511.323 60.483,511.15 60.714C511.035 60.886,510.804 60.973,510.603 60.973C510.372 60.973,510.142 60.886,510.027 60.714C509.854 60.483,509.854 60.512,509.854 59.533L509.854 59.418C509.854 58.525,509.854 58.467,509.825 58.467C509.566 58.467,508.673 58.122,508.183 57.834C505.908 56.595,504.411 54.061,504.123 51.008L504.094 50.778L503.23 50.778C502.222 50.778,502.222 50.778,502.049 50.662C501.819 50.518,501.732 50.259,501.732 50.029C501.732 49.741,501.905 49.424,502.251 49.338C502.308 49.309,502.51 49.309,503.23 49.309L504.094 49.309L504.123 49.05C504.411 45.997,505.908 43.491,508.183 42.224C508.673 41.936,509.566 41.619,509.825 41.619C509.854 41.619,509.854 41.562,509.854 40.611C509.854 39.805,509.854 39.603,509.883 39.546C509.94 39.315,510.142 39.114,510.372 39.056M509.854 46.17C509.854 44.442,509.854 43.03,509.854 43.03C509.796 43.03,509.451 43.318,509.278 43.52C508.068 44.701,507.233 46.832,507.089 49.107L507.089 49.309L508.471 49.309L509.854 49.309M511.524 43.174C511.438 43.088,511.351 43.03,511.351 43.03C511.351 43.03,511.323 44.442,511.323 46.17L511.323 49.309L512.705 49.309L514.116 49.309L514.087 49.107C513.943 46.602,512.878 44.182,511.524 43.174M509.854 53.917L509.854 50.778L508.471 50.778L507.089 50.778L507.089 50.979C507.233 53.226,508.068 55.357,509.278 56.566C509.451 56.768,509.796 57.027,509.854 57.027C509.854 57.027,509.854 55.616,509.854 53.917M514.087 50.979L514.116 50.778L512.705 50.778L511.323 50.778L511.323 53.917C511.323 55.616,511.351 57.027,511.351 57.027C511.38 57.027,511.726 56.768,511.927 56.566C513.108 55.357,513.943 53.226,514.087 50.979"/></svg>