<svg xmlns="http://www.w3.org/2000/svg" stroke-width="0.3" stroke-dasharray="none" fill="black" stroke="black" font-family="Arial, sans-serif" font-size="10pt" font-weight="normal" font-style="normal" width="700" height="130" viewBox="0 0 700 130" style="width: 700px; height: 130px; border: none;"><g class="vf-stave" id="vf-auto17124" stroke-width="1" fill="#999999" stroke="#999999"><path fill="none" d="M10 50L660 50"/><path fill="none" d="M10 60L660 60"/><path fill="none" d="M10 70L660 70"/><path fill="none" d="M10 80L660 80"/><path fill="none" d="M10 90L660 90"/></g><g class="vf-stavebarline" id="vf-auto17125"><rect x="10" y="49.5" width="1" height="41" stroke="none"/></g><g class="vf-stavebarline" id="vf-auto17126"><rect x="660" y="49.5" width="1" height="41" stroke="none"/></g><g class="vf-stavenote" id="vf-auto17128"><path stroke-width="1.4" fill="none" stroke="#444" d="M162.153 100L181.661 100"/><g class="vf-notehead" id="vf-auto17132" pointer-events="bounding-box"><path stroke="none" d="M168.798 106.543C169.079 106.599,169.332 106.627,169.613 106.627C173.488 106.627,179.272 101.348,179.16 97.08C179.048 96.041,179.076 94.609,176.97 93.766C176.38 93.485,175.734 93.373,175.032 93.373C170.708 93.373,166.018 98.343,165.681 101.657C165.681 101.909,165.653 102.134,165.653 102.387C165.653 104.409,166.552 106.037,168.798 106.543"/><g class="vf-stavenote" id="vf-auto17193"><path stroke-width="1.4" fill="none" stroke="#444" d="M30 100L47.508 100"/><g class="vf-notehead" id="vf-auto17199" pointer-events="bounding-box"><path stroke="none" d="M34.576 104.318C34.761 104.355,34.928 104.374,35.113 104.374C37.671 104.374,41.488 100.89,41.414 98.073C41.34 97.387,41.359 96.442,39.969 95.886C39.58 95.7,39.153 95.626,38.69 95.626C35.836 95.626,32.741 98.907,32.519 101.093C32.519 101.26,32.5 101.408,32.5 101.575C32.5 102.91,33.093 103.985,34.576 104.318"/></g></g><g class="vf-stavenote" id="vf-auto17200"><path stroke-width="1.4" fill="none" stroke="#444" d="M42.915 100L60.423 100"/><g class="vf-notehead" id="vf-auto17206" pointer-events="bounding-box"><path stroke="none" d="M47.491 104.318C47.676 104.355,47.843 104.374,48.028 104.374C50.586 104.374,54.404 100.89,54.33 98.073C54.255 97.387,54.274 96.442,52.884 95.886C52.495 95.7,52.069 95.626,51.605 95.626C48.751 95.626,45.656 98.907,45.434 101.093C45.434 101.26,45.415 101.408,45.415 101.575C45.415 102.91,46.008 103.985,47.491 104.318"/></g></g><g class="vf-stavenote" id="vf-auto17207"><path stroke-width="1.4" fill="none" stroke="#444" d="M55.831 100L73.339 100"/><g class="vf-notehead" id="vf-auto17213" pointer-events="bounding-box"><path stroke="none" d="M60.406 104.318C60.592 104.355,60.758 104.374,60.944 104.374C63.501 104.374,67.319 100.89,67.245 98.073C67.171 97.387,67.189 96.442,65.799 95.886C65.41 95.7,64.984 95.626,64.521 95.626C61.667 95.626,58.572 98.907,58.349 101.093C58.349 101.26,58.331 101.408,58.331 101.575C58.331 102.91,58.924 103.985,60.406 104.318"/></g></g><g class="vf-stavenote" id="vf-auto17214"><path stroke-width="1.4" fill="none" stroke="#444" d="M68.746 100L86.254 100"/><g class="vf-notehead" id="vf-auto17220" pointer-events="bounding-box"><path stroke="none" d="M73.322 104.318C73.507 104.355,73.674 104.374,73.859 104.374C76.417 104.374,80.234 100.89,80.16 98.073C80.086 97.387,80.105 96.442,78.715 95.886C78.326 95.7,77.899 95.626,77.436 95.626C74.582 95.626,71.487 98.907,71.265 101.093C71.265 101.26,71.246 101.408,71.246 101.575C71.246 102.91,71.839 103.985,73.322 104.318"/></g></g><g class="vf-stavenote" id="vf-auto17221"><path stroke-width="1.4" fill="none" stroke="#444" d="M81.661 100L99.169 100"/><g class="vf-notehead" id="vf-auto17227" pointer-events="bounding-box"><path stroke="none" d="M86.237 104.318C86.422 104.355,86.589 104.374,86.774 104.374C89.332 104.374,93.15 100.89,93.076 98.073C93.002 97.387,93.02 96.442,91.63 95.886C91.241 95.7,90.815 95.626,90.351 95.626C87.497 95.626,84.402 98.907,84.18 101.093C84.18 101.26,84.161 101.408,84.161 101.575C84.161 102.91,84.754 103.985,86.237 104.318"/></g></g><g class="vf-stavenote" id="vf-auto17228"><path stroke-width="1.4" fill="none" stroke="#444" d="M94.577 100L112.085 100"/><g class="vf-notehead" id="vf-auto17234" pointer-events="bounding-box"><path stroke="none" d="M99.152 104.318C99.338 104.355,99.504 104.374,99.69 104.374C102.247 104.374,106.065 100.89,105.991 98.073C105.917 97.387,105.935 96.442,104.545 95.886C104.156 95.7,103.73 95.626,103.267 95.626C100.413 95.626,97.318 98.907,97.095 101.093C97.095 101.26,97.077 101.408,97.077 101.575C97.077 102.91,97.67 103.985,99.152 104.318"/></g></g><g class="vf-stavenote" id="vf-auto17235"><path stroke-width="1.4" fill="none" stroke="#444" d="M107.492 100L125 100"/><g class="vf-notehead" id="vf-auto17241" pointer-events="bounding-box"><path stroke="none" d="M112.068 104.318C112.253 104.355,112.42 104.374,112.605 104.374C115.163 104.374,118.98 100.89,118.906 98.073C118.832 97.387,118.851 96.442,117.461 95.886C117.072 95.7,116.645 95.626,116.182 95.626C113.328 95.626,110.233 98.907,110.011 101.093C110.011 101.26,109.992 101.408,109.992 101.575C109.992 102.91,110.585 103.985,112.068 104.318"/></g></g><g class="vf-stavenote" id="vf-auto17242"><path stroke-width="1.4" fill="none" stroke="#444" d="M120.407 100L137.915 100"/><g class="vf-notehead" id="vf-auto17248" pointer-events="bounding-box"><path stroke="none" d="M124.983 104.318C125.168 104.355,125.335 104.374,125.521 104.374C128.078 104.374,131.896 100.89,131.822 98.073C131.748 97.387,131.766 96.442,130.376 95.886C129.987 95.7,129.561 95.626,129.097 95.626C126.243 95.626,123.148 98.907,122.926 101.093C122.926 101.26,122.907 101.408,122.907 101.575C122.907 102.91,123.5 103.985,124.983 104.318"/></g></g><g class="vf-stavenote" id="vf-auto17249"><path stroke-width="1.4" fill="none" stroke="#444" d="M133.323 100L150.831 100"/><g class="vf-notehead" id="vf-auto17255" pointer-events="bounding-box"><path stroke="none" d="M137.898 104.318C138.084 104.355,138.251 104.374,138.436 104.374C140.993 104.374,144.811 100.89,144.737 98.073C144.663 97.387,144.681 96.442,143.291 95.886C142.902 95.7,142.476 95.626,142.013 95.626C139.159 95.626,136.064 98.907,135.841 101.093C135.841 101.26,135.823 101.408,135.823 101.575C135.823 102.91,136.416 103.985,137.898 104.318"/></g></g><g class="vf-stavenote" id="vf-auto17256"><path stroke-width="1.4" fill="none" stroke="#444" d="M146.238 100L163.746 100"/><g class="vf-notehead" id="vf-auto17262" pointer-events="bounding-box"><path stroke="none" d="M150.814 104.318C150.999 104.355,151.166 104.374,151.351 104.374C153.909 104.374,157.726 100.89,157.652 98.073C157.578 97.387,157.597 96.442,156.207 95.886C155.818 95.7,155.391 95.626,154.928 95.626C152.074 95.626,148.979 98.907,148.757 101.093C148.757 101.26,148.738 101.408,148.738 101.575C148.738 102.91,149.331 103.985,150.814 104.318"/></g></g><g class="vf-stem" id="vf-auto17194" pointer-events="bounding-box"><path stroke-width="1.5" fill="none" d="M40.165 98L40.165 77.65"/></g><g class="vf-stem" id="vf-auto17201" pointer-events="bounding-box"><path stroke-width="1.5" fill="none" d="M53.081 98L53.081 77.65"/></g><g class="vf-beam" id="vf-auto17265"><path stroke="none" d="M39.415 76.9L39.415 79.9L53.331 79.9L53.331 76.9Z"/></g><g class="vf-stem" id="vf-auto17208" pointer-events="bounding-box"><path stroke-width="1.5" fill="none" d="M65.996 98L65.996 77.65"/></g><g class="vf-stem" id="vf-auto17215" pointer-events="bounding-box"><path stroke-width="1.5" fill="none" d="M78.911 98L78.911 77.65"/></g><g class="vf-beam" id="vf-auto17266"><path stroke="none" d="M65.246 76.9L65.246 79.9L79.161 79.9L79.161 76.9Z"/><path stroke="none" d="M65.246 81.4L65.246 84.4L79.161 84.4L79.161 81.4Z"/></g><g class="vf-stem" id="vf-auto17222" pointer-events="bounding-box"><path stroke-width="1.5" fill="none" d="M91.827 98L91.827 72.7"/></g><g class="vf-stem" id="vf-auto17229" pointer-events="bounding-box"><path stroke-width="1.5" fill="none" d="M104.742 98L104.742 72.7"/></g><g class="vf-beam" id="vf-auto17267"><path stroke="none" d="M91.077 71.95L91.077 74.95L104.992 74.95L104.992 71.95Z"/><path stroke="none" d="M91.077 76.45L91.077 79.45L104.992 79.45L104.992 76.45Z"/><path stroke="none" d="M91.077 80.95L91.077 83.95L104.992 83.95L104.992 80.95Z"/></g><g class="vf-stem" id="vf-auto17236" pointer-events="bounding-box"><path stroke-width="1.5" fill="none" d="M117.657 98L117.657 67.75"/></g><g class="vf-stem" id="vf-auto17243" pointer-events="bounding-box"><path stroke-width="1.5" fill="none" d="M130.573 98L130.573 67.75"/></g><g class="vf-beam" id="vf-auto17268"><path stroke="none" d="M116.907 67L116.907 70L130.823 70L130.823 67Z"/><path stroke="none" d="M116.907 71.5L116.907 74.5L130.823 74.5L130.823 71.5Z"/><path stroke="none" d="M116.907 76L116.907 79L130.823 79L130.823 76Z"/><path stroke="none" d="M116.907 80.5L116.907 83.5L130.823 83.5L130.823 80.5Z"/></g><g class="vf-stem" id="vf-auto17250" pointer-events="bounding-box"><path stroke-width="1.5" fill="none" d="M143.488 98L143.488 62.8"/></g><g class="vf-stem" id="vf-auto17257" pointer-events="bounding-box"><path stroke-width="1.5" fill="none" d="M156.403 98L156.403 62.8"/></g><g class="vf-beam" id="vf-auto17269"><path stroke="none" d="M142.738 62.05L142.738 65.05L156.653 65.05L156.653 62.05Z"/><path stroke="none" d="M142.738 66.55L142.738 69.55L156.653 69.55L156.653 66.55Z"/><path stroke="none" d="M142.738 71.05L142.738 74.05L156.653 74.05L156.653 71.05Z"/><path stroke="none" d="M142.738 75.55L142.738 78.55L156.653 78.55L156.653 75.55Z"/><path stroke="none" d="M142.738 80.05L142.738 83.05L156.653 83.05L156.653 80.05Z"/></g></g></g><g class="vf-stavenote" id="vf-auto17134"><path stroke-width="1.4" fill="none" stroke="#444" d="M181.529 100L201.037 100"/><g class="vf-notehead" id="vf-auto17138" pointer-events="bounding-box"><path stroke="none" d="M188.174 106.543C188.455 106.599,188.707 106.627,188.988 106.627C192.863 106.627,198.648 101.348,198.535 97.08C198.423 96.041,198.451 94.609,196.345 93.766C195.755 93.485,195.11 93.373,194.408 93.373C190.083 93.373,185.394 98.343,185.057 101.657C185.057 101.909,185.029 102.134,185.029 102.387C185.029 104.409,185.927 106.037,188.174 106.543"/></g></g><g class="vf-stavenote" id="vf-auto17141"><path stroke-width="1.4" fill="none" stroke="#444" d="M200.904 100L220.412 100"/><g class="vf-notehead" id="vf-auto17145" pointer-events="bounding-box"><path stroke="none" d="M207.549 106.543C207.83 106.599,208.083 106.627,208.364 106.627C212.239 106.627,218.023 101.348,217.911 97.08C217.798 96.041,217.827 94.609,215.721 93.766C215.131 93.485,214.485 93.373,213.783 93.373C209.459 93.373,204.769 98.343,204.432 101.657C204.432 101.909,204.404 102.134,204.404 102.387C204.404 104.409,205.303 106.037,207.549 106.543"/></g></g><g class="vf-stavenote" id="vf-auto17147"><path stroke-width="1.4" fill="none" stroke="#444" d="M217.605 100L237.113 100"/><g class="vf-notehead" id="vf-auto17151" pointer-events="bounding-box"><path stroke="none" d="M224.25 106.543C224.531 106.599,224.783 106.627,225.064 106.627C228.939 106.627,234.724 101.348,234.611 97.08C234.499 96.041,234.527 94.609,232.421 93.766C231.832 93.485,231.186 93.373,230.484 93.373C226.159 93.373,221.47 98.343,221.133 101.657C221.133 101.909,221.105 102.134,221.105 102.387C221.105 104.409,222.004 106.037,224.25 106.543"/></g></g><g class="vf-stavenote" id="vf-auto17154"><path stroke-width="1.4" fill="none" stroke="#444" d="M234.306 100L253.814 100"/><g class="vf-notehead" id="vf-auto17158" pointer-events="bounding-box"><path stroke="none" d="M240.951 106.543C241.231 106.599,241.484 106.627,241.765 106.627C245.64 106.627,251.425 101.348,251.312 97.08C251.2 96.041,251.228 94.609,249.122 93.766C248.532 93.485,247.886 93.373,247.184 93.373C242.86 93.373,238.171 98.343,237.834 101.657C237.834 101.909,237.806 102.134,237.806 102.387C237.806 104.409,238.704 106.037,240.951 106.543"/></g></g><g class="vf-stavenote" id="vf-auto17160"><path stroke-width="1.4" fill="none" stroke="#444" d="M250.543 100L270.051 100"/><g class="vf-notehead" id="vf-auto17164" pointer-events="bounding-box"><path stroke="none" d="M257.188 106.543C257.469 106.599,257.721 106.627,258.002 106.627C261.877 106.627,267.662 101.348,267.549 97.08C267.437 96.041,267.465 94.609,265.359 93.766C264.77 93.485,264.124 93.373,263.422 93.373C259.097 93.373,254.408 98.343,254.071 101.657C254.071 101.909,254.043 102.134,254.043 102.387C254.043 104.409,254.942 106.037,257.188 106.543"/></g></g><g class="vf-stavenote" id="vf-auto17167"><path stroke-width="1.4" fill="none" stroke="#444" d="M266.78 100L286.288 100"/><g class="vf-notehead" id="vf-auto17171" pointer-events="bounding-box"><path stroke="none" d="M273.425 106.543C273.706 106.599,273.959 106.627,274.24 106.627C278.115 106.627,283.899 101.348,283.787 97.08C283.674 96.041,283.702 94.609,281.596 93.766C281.007 93.485,280.361 93.373,279.659 93.373C275.335 93.373,270.645 98.343,270.308 101.657C270.308 101.909,270.28 102.134,270.28 102.387C270.28 104.409,271.179 106.037,273.425 106.543"/></g></g><g class="vf-stavenote" id="vf-auto17173"><path stroke-width="1.4" fill="none" stroke="#444" d="M283.017 100L302.526 100"/><g class="vf-notehead" id="vf-auto17177" pointer-events="bounding-box"><path stroke="none" d="M289.662 106.543C289.943 106.599,290.196 106.627,290.477 106.627C294.352 106.627,300.136 101.348,300.024 97.08C299.912 96.041,299.94 94.609,297.834 93.766C297.244 93.485,296.598 93.373,295.896 93.373C291.572 93.373,286.883 98.343,286.546 101.657C286.546 101.909,286.517 102.134,286.517 102.387C286.517 104.409,287.416 106.037,289.662 106.543"/></g></g><g class="vf-stavenote" id="vf-auto17180"><path stroke-width="1.4" fill="none" stroke="#444" d="M299.255 100L318.763 100"/><g class="vf-notehead" id="vf-auto17184" pointer-events="bounding-box"><path stroke="none" d="M305.9 106.543C306.181 106.599,306.433 106.627,306.714 106.627C310.589 106.627,316.374 101.348,316.261 97.08C316.149 96.041,316.177 94.609,314.071 93.766C313.481 93.485,312.835 93.373,312.133 93.373C307.809 93.373,303.12 98.343,302.783 101.657C302.783 101.909,302.755 102.134,302.755 102.387C302.755 104.409,303.653 106.037,305.9 106.543"/></g></g><g class="vf-stavenote" id="vf-auto17186"><path stroke-width="1.4" fill="none" stroke="#444" d="M315.492 100L335 100"/><g class="vf-notehead" id="vf-auto17190" pointer-events="bounding-box"><path stroke="none" d="M322.137 106.543C322.418 106.599,322.67 106.627,322.951 106.627C326.826 106.627,332.611 101.348,332.498 97.08C332.386 96.041,332.414 94.609,330.308 93.766C329.719 93.485,329.073 93.373,328.371 93.373C324.046 93.373,319.357 98.343,319.02 101.657C319.02 101.909,318.992 102.134,318.992 102.387C318.992 104.409,319.891 106.037,322.137 106.543"/></g></g><g class="vf-stavenote" id="vf-auto17270"><path stroke-width="1.4" fill="none" stroke="#444" d="M466.154 40L485.662 40"/><path stroke-width="1.4" fill="none" stroke="#444" d="M466.154 30L485.662 30"/><g class="vf-notehead" id="vf-auto17274" pointer-events="bounding-box"><path stroke="none" d="M472.298 36.543C472.579 36.599,472.832 36.627,473.113 36.627C476.988 36.627,482.772 31.348,482.66 27.08C482.548 26.041,482.576 24.609,480.47 23.766C479.88 23.485,479.234 23.373,478.532 23.373C474.208 23.373,469.519 28.343,469.182 31.657C469.182 31.909,469.154 32.134,469.154 32.387C469.154 34.409,470.052 36.037,472.298 36.543"/><g class="vf-stavenote" id="vf-auto17335"><path stroke-width="1.4" fill="none" stroke="#444" d="M334 40L351.508 40"/><path stroke-width="1.4" fill="none" stroke="#444" d="M334 30L351.508 30"/><g class="vf-notehead" id="vf-auto17341" pointer-events="bounding-box"><path stroke="none" d="M338.076 34.318C338.261 34.355,338.428 34.374,338.613 34.374C341.171 34.374,344.989 30.89,344.914 28.073C344.84 27.387,344.859 26.442,343.469 25.886C343.08 25.7,342.653 25.626,342.19 25.626C339.336 25.626,336.241 28.907,336.019 31.093C336.019 31.26,336 31.408,336 31.575C336 32.91,336.593 33.985,338.076 34.318"/></g></g><g class="vf-stavenote" id="vf-auto17342"><path stroke-width="1.4" fill="none" stroke="#444" d="M346.915 40L364.424 40"/><path stroke-width="1.4" fill="none" stroke="#444" d="M346.915 30L364.424 30"/><g class="vf-notehead" id="vf-auto17348" pointer-events="bounding-box"><path stroke="none" d="M350.991 34.318C351.176 34.355,351.343 34.374,351.529 34.374C354.086 34.374,357.904 30.89,357.83 28.073C357.756 27.387,357.774 26.442,356.384 25.886C355.995 25.7,355.569 25.626,355.105 25.626C352.251 25.626,349.156 28.907,348.934 31.093C348.934 31.26,348.915 31.408,348.915 31.575C348.915 32.91,349.508 33.985,350.991 34.318"/></g></g><g class="vf-stavenote" id="vf-auto17349"><path stroke-width="1.4" fill="none" stroke="#444" d="M359.831 40L377.339 40"/><path stroke-width="1.4" fill="none" stroke="#444" d="M359.831 30L377.339 30"/><g class="vf-notehead" id="vf-auto17355" pointer-events="bounding-box"><path stroke="none" d="M363.906 34.318C364.092 34.355,364.259 34.374,364.444 34.374C367.001 34.374,370.819 30.89,370.745 28.073C370.671 27.387,370.689 26.442,369.3 25.886C368.91 25.7,368.484 25.626,368.021 25.626C365.167 25.626,362.072 28.907,361.849 31.093C361.849 31.26,361.831 31.408,361.831 31.575C361.831 32.91,362.424 33.985,363.906 34.318"/></g></g><g class="vf-stavenote" id="vf-auto17356"><path stroke-width="1.4" fill="none" stroke="#444" d="M372.746 40L390.254 40"/><path stroke-width="1.4" fill="none" stroke="#444" d="M372.746 30L390.254 30"/><g class="vf-notehead" id="vf-auto17362" pointer-events="bounding-box"><path stroke="none" d="M376.822 34.318C377.007 34.355,377.174 34.374,377.359 34.374C379.917 34.374,383.735 30.89,383.66 28.073C383.586 27.387,383.605 26.442,382.215 25.886C381.826 25.7,381.399 25.626,380.936 25.626C378.082 25.626,374.987 28.907,374.765 31.093C374.765 31.26,374.746 31.408,374.746 31.575C374.746 32.91,375.339 33.985,376.822 34.318"/></g></g><g class="vf-stavenote" id="vf-auto17363"><path stroke-width="1.4" fill="none" stroke="#444" d="M385.661 40L403.17 40"/><path stroke-width="1.4" fill="none" stroke="#444" d="M385.661 30L403.17 30"/><g class="vf-notehead" id="vf-auto17369" pointer-events="bounding-box"><path stroke="none" d="M389.737 34.318C389.922 34.355,390.089 34.374,390.275 34.374C392.832 34.374,396.65 30.89,396.576 28.073C396.502 27.387,396.52 26.442,395.13 25.886C394.741 25.7,394.315 25.626,393.851 25.626C390.997 25.626,387.902 28.907,387.68 31.093C387.68 31.26,387.661 31.408,387.661 31.575C387.661 32.91,388.255 33.985,389.737 34.318"/></g></g><g class="vf-stavenote" id="vf-auto17370"><path stroke-width="1.4" fill="none" stroke="#444" d="M398.577 40L416.085 40"/><path stroke-width="1.4" fill="none" stroke="#444" d="M398.577 30L416.085 30"/><g class="vf-notehead" id="vf-auto17376" pointer-events="bounding-box"><path stroke="none" d="M402.652 34.318C402.838 34.355,403.005 34.374,403.19 34.374C405.747 34.374,409.565 30.89,409.491 28.073C409.417 27.387,409.435 26.442,408.046 25.886C407.656 25.7,407.23 25.626,406.767 25.626C403.913 25.626,400.818 28.907,400.595 31.093C400.595 31.26,400.577 31.408,400.577 31.575C400.577 32.91,401.17 33.985,402.652 34.318"/></g></g><g class="vf-stavenote" id="vf-auto17377"><path stroke-width="1.4" fill="none" stroke="#444" d="M411.492 40L429 40"/><path stroke-width="1.4" fill="none" stroke="#444" d="M411.492 30L429 30"/><g class="vf-notehead" id="vf-auto17383" pointer-events="bounding-box"><path stroke="none" d="M415.568 34.318C415.753 34.355,415.92 34.374,416.105 34.374C418.663 34.374,422.481 30.89,422.406 28.073C422.332 27.387,422.351 26.442,420.961 25.886C420.572 25.7,420.145 25.626,419.682 25.626C416.828 25.626,413.733 28.907,413.511 31.093C413.511 31.26,413.492 31.408,413.492 31.575C413.492 32.91,414.085 33.985,415.568 34.318"/></g></g><g class="vf-stavenote" id="vf-auto17384"><path stroke-width="1.4" fill="none" stroke="#444" d="M424.407 40L441.916 40"/><path stroke-width="1.4" fill="none" stroke="#444" d="M424.407 30L441.916 30"/><g class="vf-notehead" id="vf-auto17390" pointer-events="bounding-box"><path stroke="none" d="M428.483 34.318C428.668 34.355,428.835 34.374,429.021 34.374C431.578 34.374,435.396 30.89,435.322 28.073C435.248 27.387,435.266 26.442,433.876 25.886C433.487 25.7,433.061 25.626,432.597 25.626C429.743 25.626,426.648 28.907,426.426 31.093C426.426 31.26,426.407 31.408,426.407 31.575C426.407 32.91,427.001 33.985,428.483 34.318"/></g></g><g class="vf-stavenote" id="vf-auto17391"><path stroke-width="1.4" fill="none" stroke="#444" d="M437.323 40L454.831 40"/><path stroke-width="1.4" fill="none" stroke="#444" d="M437.323 30L454.831 30"/><g class="vf-notehead" id="vf-auto17397" pointer-events="bounding-box"><path stroke="none" d="M441.399 34.318C441.584 34.355,441.751 34.374,441.936 34.374C444.493 34.374,448.311 30.89,448.237 28.073C448.163 27.387,448.182 26.442,446.792 25.886C446.402 25.7,445.976 25.626,445.513 25.626C442.659 25.626,439.564 28.907,439.341 31.093C439.341 31.26,439.323 31.408,439.323 31.575C439.323 32.91,439.916 33.985,441.399 34.318"/></g></g><g class="vf-stavenote" id="vf-auto17398"><path stroke-width="1.4" fill="none" stroke="#444" d="M450.238 40L467.746 40"/><path stroke-width="1.4" fill="none" stroke="#444" d="M450.238 30L467.746 30"/><g class="vf-notehead" id="vf-auto17404" pointer-events="bounding-box"><path stroke="none" d="M454.314 34.318C454.499 34.355,454.666 34.374,454.851 34.374C457.409 34.374,461.227 30.89,461.152 28.073C461.078 27.387,461.097 26.442,459.707 25.886C459.318 25.7,458.891 25.626,458.428 25.626C455.574 25.626,452.479 28.907,452.257 31.093C452.257 31.26,452.238 31.408,452.238 31.575C452.238 32.91,452.831 33.985,454.314 34.318"/></g></g><g class="vf-stem" id="vf-auto17336" pointer-events="bounding-box"><path stroke-width="1.5" fill="none" d="M336.75 32L336.75 55.65"/></g><g class="vf-stem" id="vf-auto17343" pointer-events="bounding-box"><path stroke-width="1.5" fill="none" d="M349.665 32L349.665 55.65"/></g><g class="vf-beam" id="vf-auto17407"><path stroke="none" d="M336 56.4L336 53.4L349.915 53.4L349.915 56.4Z"/></g><g class="vf-stem" id="vf-auto17350" pointer-events="bounding-box"><path stroke-width="1.5" fill="none" d="M362.581 32L362.581 55.65"/></g><g class="vf-stem" id="vf-auto17357" pointer-events="bounding-box"><path stroke-width="1.5" fill="none" d="M375.496 32L375.496 55.65"/></g><g class="vf-beam" id="vf-auto17408"><path stroke="none" d="M361.831 56.4L361.831 53.4L375.746 53.4L375.746 56.4Z"/><path stroke="none" d="M361.831 51.9L361.831 48.9L375.746 48.9L375.746 51.9Z"/></g><g class="vf-stem" id="vf-auto17364" pointer-events="bounding-box"><path stroke-width="1.5" fill="none" d="M388.411 32L388.411 60.6"/></g><g class="vf-stem" id="vf-auto17371" pointer-events="bounding-box"><path stroke-width="1.5" fill="none" d="M401.327 32L401.327 60.6"/></g><g class="vf-beam" id="vf-auto17409"><path stroke="none" d="M387.661 61.35L387.661 58.35L401.577 58.35L401.577 61.35Z"/><path stroke="none" d="M387.661 56.85L387.661 53.85L401.577 53.85L401.577 56.85Z"/><path stroke="none" d="M387.661 52.35L387.661 49.35L401.577 49.35L401.577 52.35Z"/></g><g class="vf-stem" id="vf-auto17378" pointer-events="bounding-box"><path stroke-width="1.5" fill="none" d="M414.242 32L414.242 65.55"/></g><g class="vf-stem" id="vf-auto17385" pointer-events="bounding-box"><path stroke-width="1.5" fill="none" d="M427.157 32L427.157 65.55"/></g><g class="vf-beam" id="vf-auto17410"><path stroke="none" d="M413.492 66.3L413.492 63.3L427.407 63.3L427.407 66.3Z"/><path stroke="none" d="M413.492 61.8L413.492 58.8L427.407 58.8L427.407 61.8Z"/><path stroke="none" d="M413.492 57.3L413.492 54.3L427.407 54.3L427.407 57.3Z"/><path stroke="none" d="M413.492 52.8L413.492 49.8L427.407 49.8L427.407 52.8Z"/></g><g class="vf-stem" id="vf-auto17392" pointer-events="bounding-box"><path stroke-width="1.5" fill="none" d="M440.073 32L440.073 70.5"/></g><g class="vf-stem" id="vf-auto17399" pointer-events="bounding-box"><path stroke-width="1.5" fill="none" d="M452.988 32L452.988 70.5"/></g><g class="vf-beam" id="vf-auto17411"><path stroke="none" d="M439.323 71.25L439.323 68.25L453.238 68.25L453.238 71.25Z"/><path stroke="none" d="M439.323 66.75L439.323 63.75L453.238 63.75L453.238 66.75Z"/><path stroke="none" d="M439.323 62.25L439.323 59.25L453.238 59.25L453.238 62.25Z"/><path stroke="none" d="M439.323 57.75L439.323 54.75L453.238 54.75L453.238 57.75Z"/><path stroke="none" d="M439.323 53.25L439.323 50.25L453.238 50.25L453.238 53.25Z"/></g></g></g><g class="vf-stavenote" id="vf-auto17276"><path stroke-width="1.4" fill="none" stroke="#444" d="M485.529 40L505.037 40"/><path stroke-width="1.4" fill="none" stroke="#444" d="M485.529 30L505.037 30"/><g class="vf-notehead" id="vf-auto17280" pointer-events="bounding-box"><path stroke="none" d="M491.674 36.543C491.955 36.599,492.207 36.627,492.488 36.627C496.363 36.627,502.148 31.348,502.035 27.08C501.923 26.041,501.951 24.609,499.845 23.766C499.256 23.485,498.61 23.373,497.908 23.373C493.583 23.373,488.894 28.343,488.557 31.657C488.557 31.909,488.529 32.134,488.529 32.387C488.529 34.409,489.428 36.037,491.674 36.543"/></g></g><g class="vf-stavenote" id="vf-auto17283"><path stroke-width="1.4" fill="none" stroke="#444" d="M504.904 40L524.412 40"/><path stroke-width="1.4" fill="none" stroke="#444" d="M504.904 30L524.412 30"/><g class="vf-notehead" id="vf-auto17287" pointer-events="bounding-box"><path stroke="none" d="M511.049 36.543C511.33 36.599,511.583 36.627,511.864 36.627C515.739 36.627,521.523 31.348,521.411 27.08C521.299 26.041,521.327 24.609,519.221 23.766C518.631 23.485,517.985 23.373,517.283 23.373C512.959 23.373,508.269 28.343,507.932 31.657C507.932 31.909,507.904 32.134,507.904 32.387C507.904 34.409,508.803 36.037,511.049 36.543"/></g></g><g class="vf-stavenote" id="vf-auto17289"><path stroke-width="1.4" fill="none" stroke="#444" d="M521.605 40L541.113 40"/><path stroke-width="1.4" fill="none" stroke="#444" d="M521.605 30L541.113 30"/><g class="vf-notehead" id="vf-auto17293" pointer-events="bounding-box"><path stroke="none" d="M527.75 36.543C528.031 36.599,528.284 36.627,528.564 36.627C532.439 36.627,538.224 31.348,538.112 27.08C537.999 26.041,538.027 24.609,535.921 23.766C535.332 23.485,534.686 23.373,533.984 23.373C529.659 23.373,524.97 28.343,524.633 31.657C524.633 31.909,524.605 32.134,524.605 32.387C524.605 34.409,525.504 36.037,527.75 36.543"/></g></g><g class="vf-stavenote" id="vf-auto17296"><path stroke-width="1.4" fill="none" stroke="#444" d="M538.306 40L557.814 40"/><path stroke-width="1.4" fill="none" stroke="#444" d="M538.306 30L557.814 30"/><g class="vf-notehead" id="vf-auto17300" pointer-events="bounding-box"><path stroke="none" d="M544.451 36.543C544.732 36.599,544.984 36.627,545.265 36.627C549.14 36.627,554.925 31.348,554.812 27.08C554.7 26.041,554.728 24.609,552.622 23.766C552.032 23.485,551.387 23.373,550.685 23.373C546.36 23.373,541.671 28.343,541.334 31.657C541.334 31.909,541.306 32.134,541.306 32.387C541.306 34.409,542.204 36.037,544.451 36.543"/></g></g><g class="vf-stavenote" id="vf-auto17302"><path stroke-width="1.4" fill="none" stroke="#444" d="M554.543 40L574.051 40"/><path stroke-width="1.4" fill="none" stroke="#444" d="M554.543 30L574.051 30"/><g class="vf-notehead" id="vf-auto17306" pointer-events="bounding-box"><path stroke="none" d="M560.688 36.543C560.969 36.599,561.222 36.627,561.502 36.627C565.377 36.627,571.162 31.348,571.05 27.08C570.937 26.041,570.965 24.609,568.859 23.766C568.27 23.485,567.624 23.373,566.922 23.373C562.597 23.373,557.908 28.343,557.571 31.657C557.571 31.909,557.543 32.134,557.543 32.387C557.543 34.409,558.442 36.037,560.688 36.543"/></g></g><g class="vf-stavenote" id="vf-auto17309"><path stroke-width="1.4" fill="none" stroke="#444" d="M570.78 40L590.288 40"/><path stroke-width="1.4" fill="none" stroke="#444" d="M570.78 30L590.288 30"/><g class="vf-notehead" id="vf-auto17313" pointer-events="bounding-box"><path stroke="none" d="M576.925 36.543C577.206 36.599,577.459 36.627,577.74 36.627C581.615 36.627,587.399 31.348,587.287 27.08C587.174 26.041,587.203 24.609,585.097 23.766C584.507 23.485,583.861 23.373,583.159 23.373C578.835 23.373,574.145 28.343,573.808 31.657C573.808 31.909,573.78 32.134,573.78 32.387C573.78 34.409,574.679 36.037,576.925 36.543"/></g></g><g class="vf-stavenote" id="vf-auto17315"><path stroke-width="1.4" fill="none" stroke="#444" d="M587.018 40L606.526 40"/><path stroke-width="1.4" fill="none" stroke="#444" d="M587.018 30L606.526 30"/><g class="vf-notehead" id="vf-auto17319" pointer-events="bounding-box"><path stroke="none" d="M593.163 36.543C593.443 36.599,593.696 36.627,593.977 36.627C597.852 36.627,603.636 31.348,603.524 27.08C603.412 26.041,603.44 24.609,601.334 23.766C600.744 23.485,600.098 23.373,599.396 23.373C595.072 23.373,590.383 28.343,590.046 31.657C590.046 31.909,590.018 32.134,590.018 32.387C590.018 34.409,590.916 36.037,593.163 36.543"/></g></g><g class="vf-stavenote" id="vf-auto17322"><path stroke-width="1.4" fill="none" stroke="#444" d="M603.255 40L622.763 40"/><path stroke-width="1.4" fill="none" stroke="#444" d="M603.255 30L622.763 30"/><g class="vf-notehead" id="vf-auto17326" pointer-events="bounding-box"><path stroke="none" d="M609.4 36.543C609.681 36.599,609.933 36.627,610.214 36.627C614.089 36.627,619.874 31.348,619.761 27.08C619.649 26.041,619.677 24.609,617.571 23.766C616.981 23.485,616.336 23.373,615.634 23.373C611.309 23.373,606.62 28.343,606.283 31.657C606.283 31.909,606.255 32.134,606.255 32.387C606.255 34.409,607.153 36.037,609.4 36.543"/></g></g><g class="vf-stavenote" id="vf-auto17328"><path stroke-width="1.4" fill="none" stroke="#444" d="M619.492 40L639 40"/><path stroke-width="1.4" fill="none" stroke="#444" d="M619.492 30L639 30"/><g class="vf-notehead" id="vf-auto17332" pointer-events="bounding-box"><path stroke="none" d="M625.637 36.543C625.918 36.599,626.171 36.627,626.451 36.627C630.326 36.627,636.111 31.348,635.999 27.08C635.886 26.041,635.914 24.609,633.808 23.766C633.219 23.485,632.573 23.373,631.871 23.373C627.547 23.373,622.857 28.343,622.52 31.657C622.52 31.909,622.492 32.134,622.492 32.387C622.492 34.409,623.391 36.037,625.637 36.543"/></g></g><g class="vf-stem" id="vf-auto17129" pointer-events="bounding-box"><path stroke-width="1.5" fill="none" d="M177.911 98L177.911 65.75"/></g><g class="vf-stem" id="vf-auto17135" pointer-events="bounding-box"><path stroke-width="1.5" fill="none" d="M197.287 98L197.287 65.75"/></g><g class="vf-beam" id="vf-auto17140"><path stroke="none" d="M177.161 65L177.161 70L197.537 70L197.537 65Z"/></g><g class="vf-stem" id="vf-auto17142" pointer-events="bounding-box"><path stroke-width="1.5" fill="none" d="M216.662 98L216.662 65.75"/></g><g class="vf-stem" id="vf-auto17148" pointer-events="bounding-box"><path stroke-width="1.5" fill="none" d="M233.363 98L233.363 65.75"/></g><g class="vf-beam" id="vf-auto17153"><path stroke="none" d="M215.912 65L215.912 70L233.613 70L233.613 65Z"/><path stroke="none" d="M215.912 72.5L215.912 77.5L233.613 77.5L233.613 72.5Z"/></g><g class="vf-stem" id="vf-auto17155" pointer-events="bounding-box"><path stroke-width="1.5" fill="none" d="M250.064 98L250.064 58.25"/></g><g class="vf-stem" id="vf-auto17161" pointer-events="bounding-box"><path stroke-width="1.5" fill="none" d="M266.301 98L266.301 58.25"/></g><g class="vf-beam" id="vf-auto17166"><path stroke="none" d="M249.314 57.5L249.314 62.5L266.551 62.5L266.551 57.5Z"/><path stroke="none" d="M249.314 65L249.314 70L266.551 70L266.551 65Z"/><path stroke="none" d="M249.314 72.5L249.314 77.5L266.551 77.5L266.551 72.5Z"/></g><g class="vf-stem" id="vf-auto17168" pointer-events="bounding-box"><path stroke-width="1.5" fill="none" d="M282.538 98L282.538 50.75"/></g><g class="vf-stem" id="vf-auto17174" pointer-events="bounding-box"><path stroke-width="1.5" fill="none" d="M298.776 98L298.776 50.75"/></g><g class="vf-beam" id="vf-auto17179"><path stroke="none" d="M281.788 50L281.788 55L299.026 55L299.026 50Z"/><path stroke="none" d="M281.788 57.5L281.788 62.5L299.026 62.5L299.026 57.5Z"/><path stroke="none" d="M281.788 65L281.788 70L299.026 70L299.026 65Z"/><path stroke="none" d="M281.788 72.5L281.788 77.5L299.026 77.5L299.026 72.5Z"/></g><g class="vf-stem" id="vf-auto17181" pointer-events="bounding-box"><path stroke-width="1.5" fill="none" d="M315.013 98L315.013 43.25"/></g><g class="vf-stem" id="vf-auto17187" pointer-events="bounding-box"><path stroke-width="1.5" fill="none" d="M331.25 98L331.25 43.25"/></g><g class="vf-beam" id="vf-auto17192"><path stroke="none" d="M314.263 42.5L314.263 47.5L331.5 47.5L331.5 42.5Z"/><path stroke="none" d="M314.263 50L314.263 55L331.5 55L331.5 50Z"/><path stroke="none" d="M314.263 57.5L314.263 62.5L331.5 62.5L331.5 57.5Z"/><path stroke="none" d="M314.263 65L314.263 70L331.5 70L331.5 65Z"/><path stroke="none" d="M314.263 72.5L314.263 77.5L331.5 77.5L331.5 72.5Z"/></g><g class="vf-stem" id="vf-auto17271" pointer-events="bounding-box"><path stroke-width="1.5" fill="none" d="M469.904 32L469.904 69.25"/></g><g class="vf-stem" id="vf-auto17277" pointer-events="bounding-box"><path stroke-width="1.5" fill="none" d="M489.279 32L489.279 69.25"/></g><g class="vf-beam" id="vf-auto17282"><path stroke="none" d="M469.154 70L469.154 65L489.529 65L489.529 70Z"/></g><g class="vf-stem" id="vf-auto17284" pointer-events="bounding-box"><path stroke-width="1.5" fill="none" d="M508.654 32L508.654 69.25"/></g><g class="vf-stem" id="vf-auto17290" pointer-events="bounding-box"><path stroke-width="1.5" fill="none" d="M525.355 32L525.355 69.25"/></g><g class="vf-beam" id="vf-auto17295"><path stroke="none" d="M507.904 70L507.904 65L525.605 65L525.605 70Z"/><path stroke="none" d="M507.904 62.5L507.904 57.5L525.605 57.5L525.605 62.5Z"/></g><g class="vf-stem" id="vf-auto17297" pointer-events="bounding-box"><path stroke-width="1.5" fill="none" d="M542.056 32L542.056 76.75"/></g><g class="vf-stem" id="vf-auto17303" pointer-events="bounding-box"><path stroke-width="1.5" fill="none" d="M558.293 32L558.293 76.75"/></g><g class="vf-beam" id="vf-auto17308"><path stroke="none" d="M541.306 77.5L541.306 72.5L558.543 72.5L558.543 77.5Z"/><path stroke="none" d="M541.306 70L541.306 65L558.543 65L558.543 70Z"/><path stroke="none" d="M541.306 62.5L541.306 57.5L558.543 57.5L558.543 62.5Z"/></g><g class="vf-stem" id="vf-auto17310" pointer-events="bounding-box"><path stroke-width="1.5" fill="none" d="M574.53 32L574.53 84.25"/></g><g class="vf-stem" id="vf-auto17316" pointer-events="bounding-box"><path stroke-width="1.5" fill="none" d="M590.768 32L590.768 84.25"/></g><g class="vf-beam" id="vf-auto17321"><path stroke="none" d="M573.78 85L573.78 80L591.018 80L591.018 85Z"/><path stroke="none" d="M573.78 77.5L573.78 72.5L591.018 72.5L591.018 77.5Z"/><path stroke="none" d="M573.78 70L573.78 65L591.018 65L591.018 70Z"/><path stroke="none" d="M573.78 62.5L573.78 57.5L591.018 57.5L591.018 62.5Z"/></g><g class="vf-stem" id="vf-auto17323" pointer-events="bounding-box"><path stroke-width="1.5" fill="none" d="M607.005 32L607.005 91.75"/></g><g class="vf-stem" id="vf-auto17329" pointer-events="bounding-box"><path stroke-width="1.5" fill="none" d="M623.242 32L623.242 91.75"/></g><g class="vf-beam" id="vf-auto17334"><path stroke="none" d="M606.255 92.5L606.255 87.5L623.492 87.5L623.492 92.5Z"/><path stroke="none" d="M606.255 85L606.255 80L623.492 80L623.492 85Z"/><path stroke="none" d="M606.255 77.5L606.255 72.5L623.492 72.5L623.492 77.5Z"/><path stroke="none" d="M606.255 70L606.255 65L623.492 65L623.492 70Z"/><path stroke="none" d="M606.255 62.5L606.255 57.5L623.492 57.5L623.492 62.5Z"/></g></svg>