<svg xmlns="http://www.w3.org/2000/svg" stroke-width="0.3" stroke-dasharray="none" fill="black" stroke="black" font-family="Arial, sans-serif" font-size="10pt" font-weight="normal" font-style="normal" width="700" height="150" viewBox="0 0 700 150" style="width: 700px; height: 150px; border: none;"><g class="vf-stave" id="vf-auto21281" stroke-width="1" fill="#999999" stroke="#999999"><path fill="none" d="M0 40L690 40"/><path fill="none" d="M0 50L690 50"/><path fill="none" d="M0 60L690 60"/><path fill="none" d="M0 70L690 70"/><path fill="none" d="M0 80L690 80"/></g><g class="vf-stavebarline" id="vf-auto21282"><rect y="39.5" width="1" height="41" stroke="none"/></g><g class="vf-stavebarline" id="vf-auto21283"><rect x="690" y="39.5" width="1" height="41" stroke="none"/></g><g class="vf-keysignature" id="vf-auto21284"><path stroke="none" d="M10.964 25.691C11.019 25.663,11.101 25.636,11.183 25.636C11.402 25.636,11.621 25.773,11.703 25.992C11.731 26.101,11.731 26.128,11.731 29.603C11.731 32.859,11.731 33.078,11.785 33.078C11.785 33.078,11.785 33.078,11.785 33.078C12.086 32.996,13.208 32.75,13.29 32.75C13.536 32.75,13.728 32.886,13.81 33.078C13.837 33.16,13.865 33.789,13.865 34.419C13.865 35.048,13.837 35.677,13.81 35.759C13.728 36.033,13.673 36.033,12.579 36.306L11.731 36.525L11.731 39.425C11.731 42.134,11.731 42.353,11.758 42.353C11.785 42.353,11.785 42.353,11.785 42.353C12.086 42.244,13.208 41.997,13.29 41.997C13.454 41.997,13.564 42.052,13.7 42.161C13.837 42.326,13.837 42.271,13.837 43.311C13.837 43.42,13.837 43.557,13.837 43.694C13.837 43.83,13.837 43.94,13.837 44.049C13.837 45.116,13.837 45.062,13.7 45.198C13.564 45.335,13.564 45.335,12.579 45.581L11.731 45.773L11.731 49.33C11.731 52.832,11.731 52.859,11.703 52.941C11.621 53.188,11.402 53.297,11.183 53.297C11.047 53.297,10.882 53.242,10.773 53.133C10.636 52.996,10.609 53.242,10.609 51.053C10.609 50.616,10.609 50.096,10.609 49.467C10.609 47.579,10.609 46.047,10.609 46.047C10.609 46.047,10.062 46.183,9.405 46.348C8.721 46.512,8.174 46.648,8.174 46.648C8.174 46.648,8.174 48.29,8.174 50.287C8.174 53.872,8.174 53.899,8.119 54.008C8.037 54.227,7.818 54.364,7.599 54.364C7.462 54.364,7.298 54.309,7.189 54.2C7.052 54.036,7.052 54.282,7.052 52.066C7.052 51.628,7.052 51.081,7.052 50.424C7.052 47.168,7.052 46.949,7.025 46.949C7.025 46.949,7.025 46.949,6.997 46.949C6.669 47.032,5.657 47.25,5.575 47.25C5.328 47.25,5.109 47.114,5.027 46.922C5 46.84,5 46.211,5 45.581C5 44.952,5 44.323,5.027 44.241C5.137 43.995,5.192 43.967,6.231 43.694L7.052 43.502L7.052 40.575C7.052 37.866,7.052 37.674,7.025 37.674C7.025 37.674,7.025 37.674,6.997 37.674C6.669 37.756,5.657 38.003,5.575 38.003C5.328 38.003,5.109 37.866,5.027 37.647C5 37.592,5 36.936,5 36.306C5 35.677,5 35.048,5.027 34.966C5.137 34.72,5.192 34.692,6.231 34.446L7.052 34.254L7.052 30.698C7.052 27.168,7.052 27.141,7.079 27.059C7.161 26.812,7.38 26.703,7.599 26.703C7.736 26.703,7.9 26.758,8.01 26.867C8.146 27.004,8.174 26.758,8.174 28.947C8.174 29.384,8.174 29.904,8.174 30.561C8.174 32.421,8.174 33.953,8.174 33.953C8.174 33.953,8.721 33.817,9.378 33.68C10.062 33.516,10.609 33.379,10.609 33.379C10.609 33.379,10.609 31.737,10.609 29.74C10.609 26.128,10.609 26.101,10.664 25.992C10.691 25.882,10.828 25.745,10.964 25.691M10.609 39.699C10.609 37.401,10.609 36.799,10.609 36.799L10.609 36.799C10.581 36.799,10.39 36.826,10.171 36.908C9.952 36.963,9.405 37.072,8.967 37.182L8.174 37.401L8.174 40.301C8.174 41.915,8.174 43.228,8.174 43.228C8.174 43.228,8.721 43.092,9.378 42.928C10.062 42.763,10.609 42.627,10.609 42.627C10.609 42.627,10.609 41.313,10.609 39.699"/><path stroke="none" d="M20.829 40.691C20.884 40.663,20.966 40.636,21.048 40.636C21.267 40.636,21.486 40.773,21.568 40.992C21.595 41.101,21.595 41.128,21.595 44.603C21.595 47.859,21.595 48.078,21.65 48.078C21.65 48.078,21.65 48.078,21.65 48.078C21.951 47.996,23.073 47.75,23.155 47.75C23.401 47.75,23.592 47.886,23.675 48.078C23.702 48.16,23.729 48.789,23.729 49.419C23.729 50.048,23.702 50.677,23.675 50.759C23.592 51.033,23.538 51.033,22.443 51.306L21.595 51.525L21.595 54.425C21.595 57.134,21.595 57.353,21.623 57.353C21.65 57.353,21.65 57.353,21.65 57.353C21.951 57.244,23.073 56.997,23.155 56.997C23.319 56.997,23.428 57.052,23.565 57.161C23.702 57.326,23.702 57.271,23.702 58.311C23.702 58.42,23.702 58.557,23.702 58.694C23.702 58.83,23.702 58.94,23.702 59.049C23.702 60.116,23.702 60.062,23.565 60.198C23.428 60.335,23.428 60.335,22.443 60.581L21.595 60.773L21.595 64.33C21.595 67.832,21.595 67.859,21.568 67.941C21.486 68.188,21.267 68.297,21.048 68.297C20.911 68.297,20.747 68.242,20.638 68.133C20.501 67.996,20.473 68.242,20.473 66.053C20.473 65.616,20.473 65.096,20.473 64.467C20.473 62.579,20.473 61.047,20.473 61.047C20.473 61.047,19.926 61.183,19.27 61.348C18.586 61.512,18.038 61.648,18.038 61.648C18.038 61.648,18.038 63.29,18.038 65.287C18.038 68.872,18.038 68.899,17.984 69.008C17.902 69.227,17.683 69.364,17.464 69.364C17.327 69.364,17.163 69.309,17.053 69.2C16.917 69.036,16.917 69.282,16.917 67.066C16.917 66.628,16.917 66.081,16.917 65.424C16.917 62.168,16.917 61.949,16.889 61.949C16.889 61.949,16.889 61.949,16.862 61.949C16.534 62.032,15.521 62.25,15.439 62.25C15.193 62.25,14.974 62.114,14.892 61.922C14.865 61.84,14.865 61.211,14.865 60.581C14.865 59.952,14.865 59.323,14.892 59.241C15.001 58.995,15.056 58.967,16.096 58.694L16.917 58.502L16.917 55.575C16.917 52.866,16.917 52.674,16.889 52.674C16.889 52.674,16.889 52.674,16.862 52.674C16.534 52.756,15.521 53.003,15.439 53.003C15.193 53.003,14.974 52.866,14.892 52.647C14.865 52.592,14.865 51.936,14.865 51.306C14.865 50.677,14.865 50.048,14.892 49.966C15.001 49.72,15.056 49.692,16.096 49.446L16.917 49.254L16.917 45.698C16.917 42.168,16.917 42.141,16.944 42.059C17.026 41.812,17.245 41.703,17.464 41.703C17.601 41.703,17.765 41.758,17.874 41.867C18.011 42.004,18.038 41.758,18.038 43.947C18.038 44.384,18.038 44.904,18.038 45.561C18.038 47.421,18.038 48.953,18.038 48.953C18.038 48.953,18.586 48.817,19.242 48.68C19.926 48.516,20.473 48.379,20.473 48.379C20.473 48.379,20.473 46.737,20.473 44.74C20.473 41.128,20.473 41.101,20.528 40.992C20.556 40.882,20.692 40.745,20.829 40.691M20.473 54.699C20.473 52.401,20.473 51.799,20.473 51.799L20.473 51.799C20.446 51.799,20.255 51.826,20.036 51.908C19.817 51.963,19.27 52.072,18.832 52.182L18.038 52.401L18.038 55.301C18.038 56.915,18.038 58.228,18.038 58.228C18.038 58.228,18.586 58.092,19.242 57.928C19.926 57.763,20.473 57.627,20.473 57.627C20.473 57.627,20.473 56.313,20.473 54.699"/><path stroke="none" d="M30.694 20.691C30.748 20.663,30.831 20.636,30.913 20.636C31.132 20.636,31.35 20.773,31.432 20.992C31.46 21.101,31.46 21.128,31.46 24.603C31.46 27.859,31.46 28.078,31.515 28.078C31.515 28.078,31.515 28.078,31.515 28.078C31.816 27.996,32.937 27.75,33.019 27.75C33.266 27.75,33.457 27.886,33.539 28.078C33.567 28.16,33.594 28.789,33.594 29.419C33.594 30.048,33.567 30.677,33.539 30.759C33.457 31.033,33.402 31.033,32.308 31.306L31.46 31.525L31.46 34.425C31.46 37.134,31.46 37.353,31.487 37.353C31.515 37.353,31.515 37.353,31.515 37.353C31.816 37.244,32.937 36.997,33.019 36.997C33.184 36.997,33.293 37.052,33.43 37.161C33.567 37.326,33.567 37.271,33.567 38.311C33.567 38.42,33.567 38.557,33.567 38.694C33.567 38.83,33.567 38.94,33.567 39.049C33.567 40.116,33.567 40.062,33.43 40.198C33.293 40.335,33.293 40.335,32.308 40.581L31.46 40.773L31.46 44.33C31.46 47.832,31.46 47.859,31.432 47.941C31.35 48.188,31.132 48.297,30.913 48.297C30.776 48.297,30.612 48.242,30.502 48.133C30.365 47.996,30.338 48.242,30.338 46.053C30.338 45.616,30.338 45.096,30.338 44.467C30.338 42.579,30.338 41.047,30.338 41.047C30.338 41.047,29.791 41.183,29.134 41.348C28.45 41.512,27.903 41.648,27.903 41.648C27.903 41.648,27.903 43.29,27.903 45.287C27.903 48.872,27.903 48.899,27.848 49.008C27.766 49.227,27.547 49.364,27.328 49.364C27.192 49.364,27.028 49.309,26.918 49.2C26.781 49.036,26.781 49.282,26.781 47.066C26.781 46.628,26.781 46.081,26.781 45.424C26.781 42.168,26.781 41.949,26.754 41.949C26.754 41.949,26.754 41.949,26.727 41.949C26.398 42.032,25.386 42.25,25.304 42.25C25.058 42.25,24.839 42.114,24.757 41.922C24.729 41.84,24.729 41.211,24.729 40.581C24.729 39.952,24.729 39.323,24.757 39.241C24.866 38.995,24.921 38.967,25.96 38.694L26.781 38.502L26.781 35.575C26.781 32.866,26.781 32.674,26.754 32.674C26.754 32.674,26.754 32.674,26.727 32.674C26.398 32.756,25.386 33.003,25.304 33.003C25.058 33.003,24.839 32.866,24.757 32.647C24.729 32.592,24.729 31.936,24.729 31.306C24.729 30.677,24.729 30.048,24.757 29.966C24.866 29.72,24.921 29.692,25.96 29.446L26.781 29.254L26.781 25.698C26.781 22.168,26.781 22.141,26.809 22.059C26.891 21.812,27.11 21.703,27.328 21.703C27.465 21.703,27.629 21.758,27.739 21.867C27.876 22.004,27.903 21.758,27.903 23.947C27.903 24.384,27.903 24.904,27.903 25.561C27.903 27.421,27.903 28.953,27.903 28.953C27.903 28.953,28.45 28.817,29.107 28.68C29.791 28.516,30.338 28.379,30.338 28.379C30.338 28.379,30.338 26.737,30.338 24.74C30.338 21.128,30.338 21.101,30.393 20.992C30.42 20.882,30.557 20.745,30.694 20.691M30.338 34.699C30.338 32.401,30.338 31.799,30.338 31.799L30.338 31.799C30.311 31.799,30.119 31.826,29.9 31.908C29.681 31.963,29.134 32.072,28.696 32.182L27.903 32.401L27.903 35.301C27.903 36.915,27.903 38.228,27.903 38.228C27.903 38.228,28.45 38.092,29.107 37.928C29.791 37.763,30.338 37.627,30.338 37.627C30.338 37.627,30.338 36.313,30.338 34.699"/><path stroke="none" d="M40.558 35.691C40.613 35.663,40.695 35.636,40.777 35.636C40.996 35.636,41.215 35.773,41.297 35.992C41.324 36.101,41.324 36.128,41.324 39.603C41.324 42.859,41.324 43.078,41.379 43.078C41.379 43.078,41.379 43.078,41.379 43.078C41.68 42.996,42.802 42.75,42.884 42.75C43.13 42.75,43.322 42.886,43.404 43.078C43.431 43.16,43.459 43.789,43.459 44.419C43.459 45.048,43.431 45.677,43.404 45.759C43.322 46.033,43.267 46.033,42.173 46.306L41.324 46.525L41.324 49.425C41.324 52.134,41.324 52.353,41.352 52.353C41.379 52.353,41.379 52.353,41.379 52.353C41.68 52.244,42.802 51.997,42.884 51.997C43.048 51.997,43.158 52.052,43.294 52.161C43.431 52.326,43.431 52.271,43.431 53.311C43.431 53.42,43.431 53.557,43.431 53.694C43.431 53.83,43.431 53.94,43.431 54.049C43.431 55.116,43.431 55.062,43.294 55.198C43.158 55.335,43.158 55.335,42.173 55.581L41.324 55.773L41.324 59.33C41.324 62.832,41.324 62.859,41.297 62.941C41.215 63.188,40.996 63.297,40.777 63.297C40.64 63.297,40.476 63.242,40.367 63.133C40.23 62.996,40.203 63.242,40.203 61.053C40.203 60.616,40.203 60.096,40.203 59.467C40.203 57.579,40.203 56.047,40.203 56.047C40.203 56.047,39.656 56.183,38.999 56.348C38.315 56.512,37.768 56.648,37.768 56.648C37.768 56.648,37.768 58.29,37.768 60.287C37.768 63.872,37.768 63.899,37.713 64.008C37.631 64.227,37.412 64.364,37.193 64.364C37.056 64.364,36.892 64.309,36.783 64.2C36.646 64.036,36.646 64.282,36.646 62.066C36.646 61.628,36.646 61.081,36.646 60.424C36.646 57.168,36.646 56.949,36.619 56.949C36.619 56.949,36.619 56.949,36.591 56.949C36.263 57.032,35.251 57.25,35.168 57.25C34.922 57.25,34.703 57.114,34.621 56.922C34.594 56.84,34.594 56.211,34.594 55.581C34.594 54.952,34.594 54.323,34.621 54.241C34.731 53.995,34.785 53.967,35.825 53.694L36.646 53.502L36.646 50.575C36.646 47.866,36.646 47.674,36.619 47.674C36.619 47.674,36.619 47.674,36.591 47.674C36.263 47.756,35.251 48.003,35.168 48.003C34.922 48.003,34.703 47.866,34.621 47.647C34.594 47.592,34.594 46.936,34.594 46.306C34.594 45.677,34.594 45.048,34.621 44.966C34.731 44.72,34.785 44.692,35.825 44.446L36.646 44.254L36.646 40.698C36.646 37.168,36.646 37.141,36.673 37.059C36.755 36.812,36.974 36.703,37.193 36.703C37.33 36.703,37.494 36.758,37.604 36.867C37.74 37.004,37.768 36.758,37.768 38.947C37.768 39.384,37.768 39.904,37.768 40.561C37.768 42.421,37.768 43.953,37.768 43.953C37.768 43.953,38.315 43.817,38.972 43.68C39.656 43.516,40.203 43.379,40.203 43.379C40.203 43.379,40.203 41.737,40.203 39.74C40.203 36.128,40.203 36.101,40.257 35.992C40.285 35.882,40.422 35.745,40.558 35.691M40.203 49.699C40.203 47.401,40.203 46.799,40.203 46.799L40.203 46.799C40.175 46.799,39.984 46.826,39.765 46.908C39.546 46.963,38.999 47.072,38.561 47.182L37.768 47.401L37.768 50.301C37.768 51.915,37.768 53.228,37.768 53.228C37.768 53.228,38.315 53.092,38.972 52.928C39.656 52.763,40.203 52.627,40.203 52.627C40.203 52.627,40.203 51.313,40.203 49.699"/><path stroke="none" d="M50.423 50.691C50.478 50.663,50.56 50.636,50.642 50.636C50.861 50.636,51.08 50.773,51.162 50.992C51.189 51.101,51.189 51.128,51.189 54.603C51.189 57.859,51.189 58.078,51.244 58.078C51.244 58.078,51.244 58.078,51.244 58.078C51.545 57.996,52.667 57.75,52.749 57.75C52.995 57.75,53.186 57.886,53.268 58.078C53.296 58.16,53.323 58.789,53.323 59.419C53.323 60.048,53.296 60.677,53.268 60.759C53.186 61.033,53.132 61.033,52.037 61.306L51.189 61.525L51.189 64.425C51.189 67.134,51.189 67.353,51.216 67.353C51.244 67.353,51.244 67.353,51.244 67.353C51.545 67.244,52.667 66.997,52.749 66.997C52.913 66.997,53.022 67.052,53.159 67.161C53.296 67.326,53.296 67.271,53.296 68.311C53.296 68.42,53.296 68.557,53.296 68.694C53.296 68.83,53.296 68.94,53.296 69.049C53.296 70.116,53.296 70.062,53.159 70.198C53.022 70.335,53.022 70.335,52.037 70.581L51.189 70.773L51.189 74.33C51.189 77.832,51.189 77.859,51.162 77.941C51.08 78.188,50.861 78.297,50.642 78.297C50.505 78.297,50.341 78.242,50.232 78.133C50.095 77.996,50.067 78.242,50.067 76.053C50.067 75.616,50.067 75.096,50.067 74.467C50.067 72.579,50.067 71.047,50.067 71.047C50.067 71.047,49.52 71.183,48.864 71.348C48.18 71.512,47.632 71.648,47.632 71.648C47.632 71.648,47.632 73.29,47.632 75.287C47.632 78.872,47.632 78.899,47.578 79.008C47.496 79.227,47.277 79.364,47.058 79.364C46.921 79.364,46.757 79.309,46.647 79.2C46.511 79.036,46.511 79.282,46.511 77.066C46.511 76.628,46.511 76.081,46.511 75.424C46.511 72.168,46.511 71.949,46.483 71.949C46.483 71.949,46.483 71.949,46.456 71.949C46.128 72.032,45.115 72.25,45.033 72.25C44.787 72.25,44.568 72.114,44.486 71.922C44.459 71.84,44.459 71.211,44.459 70.581C44.459 69.952,44.459 69.323,44.486 69.241C44.595 68.995,44.65 68.967,45.69 68.694L46.511 68.502L46.511 65.575C46.511 62.866,46.511 62.674,46.483 62.674C46.483 62.674,46.483 62.674,46.456 62.674C46.128 62.756,45.115 63.003,45.033 63.003C44.787 63.003,44.568 62.866,44.486 62.647C44.459 62.592,44.459 61.936,44.459 61.306C44.459 60.677,44.459 60.048,44.486 59.966C44.595 59.72,44.65 59.692,45.69 59.446L46.511 59.254L46.511 55.698C46.511 52.168,46.511 52.141,46.538 52.059C46.62 51.812,46.839 51.703,47.058 51.703C47.195 51.703,47.359 51.758,47.468 51.867C47.605 52.004,47.632 51.758,47.632 53.947C47.632 54.384,47.632 54.904,47.632 55.561C47.632 57.421,47.632 58.953,47.632 58.953C47.632 58.953,48.18 58.817,48.836 58.68C49.52 58.516,50.067 58.379,50.067 58.379C50.067 58.379,50.067 56.737,50.067 54.74C50.067 51.128,50.067 51.101,50.122 50.992C50.149 50.882,50.286 50.745,50.423 50.691M50.067 64.699C50.067 62.401,50.067 61.799,50.067 61.799L50.067 61.799C50.04 61.799,49.848 61.826,49.63 61.908C49.411 61.963,48.864 62.072,48.426 62.182L47.632 62.401L47.632 65.301C47.632 66.915,47.632 68.228,47.632 68.228C47.632 68.228,48.18 68.092,48.836 67.928C49.52 67.763,50.067 67.627,50.067 67.627C50.067 67.627,50.067 66.313,50.067 64.699"/><path stroke="none" d="M60.288 30.691C60.342 30.663,60.424 30.636,60.507 30.636C60.725 30.636,60.944 30.773,61.026 30.992C61.054 31.101,61.054 31.128,61.054 34.603C61.054 37.859,61.054 38.078,61.108 38.078C61.108 38.078,61.108 38.078,61.108 38.078C61.409 37.996,62.531 37.75,62.613 37.75C62.86 37.75,63.051 37.886,63.133 38.078C63.16 38.16,63.188 38.789,63.188 39.419C63.188 40.048,63.16 40.677,63.133 40.759C63.051 41.033,62.996 41.033,61.902 41.306L61.054 41.525L61.054 44.425C61.054 47.134,61.054 47.353,61.081 47.353C61.108 47.353,61.108 47.353,61.108 47.353C61.409 47.244,62.531 46.997,62.613 46.997C62.777 46.997,62.887 47.052,63.024 47.161C63.16 47.326,63.16 47.271,63.16 48.311C63.16 48.42,63.16 48.557,63.16 48.694C63.16 48.83,63.16 48.94,63.16 49.049C63.16 50.116,63.16 50.062,63.024 50.198C62.887 50.335,62.887 50.335,61.902 50.581L61.054 50.773L61.054 54.33C61.054 57.832,61.054 57.859,61.026 57.941C60.944 58.188,60.725 58.297,60.507 58.297C60.37 58.297,60.206 58.242,60.096 58.133C59.959 57.996,59.932 58.242,59.932 56.053C59.932 55.616,59.932 55.096,59.932 54.467C59.932 52.579,59.932 51.047,59.932 51.047C59.932 51.047,59.385 51.183,58.728 51.348C58.044 51.512,57.497 51.648,57.497 51.648C57.497 51.648,57.497 53.29,57.497 55.287C57.497 58.872,57.497 58.899,57.442 59.008C57.36 59.227,57.141 59.364,56.922 59.364C56.786 59.364,56.621 59.309,56.512 59.2C56.375 59.036,56.375 59.282,56.375 57.066C56.375 56.628,56.375 56.081,56.375 55.424C56.375 52.168,56.375 51.949,56.348 51.949C56.348 51.949,56.348 51.949,56.32 51.949C55.992 52.032,54.98 52.25,54.898 52.25C54.652 52.25,54.433 52.114,54.351 51.922C54.323 51.84,54.323 51.211,54.323 50.581C54.323 49.952,54.323 49.323,54.351 49.241C54.46 48.995,54.515 48.967,55.554 48.694L56.375 48.502L56.375 45.575C56.375 42.866,56.375 42.674,56.348 42.674C56.348 42.674,56.348 42.674,56.32 42.674C55.992 42.756,54.98 43.003,54.898 43.003C54.652 43.003,54.433 42.866,54.351 42.647C54.323 42.592,54.323 41.936,54.323 41.306C54.323 40.677,54.323 40.048,54.351 39.966C54.46 39.72,54.515 39.692,55.554 39.446L56.375 39.254L56.375 35.698C56.375 32.168,56.375 32.141,56.403 32.059C56.485 31.812,56.704 31.703,56.922 31.703C57.059 31.703,57.223 31.758,57.333 31.867C57.47 32.004,57.497 31.758,57.497 33.947C57.497 34.384,57.497 34.904,57.497 35.561C57.497 37.421,57.497 38.953,57.497 38.953C57.497 38.953,58.044 38.817,58.701 38.68C59.385 38.516,59.932 38.379,59.932 38.379C59.932 38.379,59.932 36.737,59.932 34.74C59.932 31.128,59.932 31.101,59.987 30.992C60.014 30.882,60.151 30.745,60.288 30.691M59.932 44.699C59.932 42.401,59.932 41.799,59.932 41.799L59.932 41.799C59.905 41.799,59.713 41.826,59.494 41.908C59.275 41.963,58.728 42.072,58.29 42.182L57.497 42.401L57.497 45.301C57.497 46.915,57.497 48.228,57.497 48.228C57.497 48.228,58.044 48.092,58.701 47.928C59.385 47.763,59.932 47.627,59.932 47.627C59.932 47.627,59.932 46.313,59.932 44.699"/><path stroke="none" d="M70.152 45.691C70.207 45.663,70.289 45.636,70.371 45.636C70.59 45.636,70.809 45.773,70.891 45.992C70.918 46.101,70.918 46.128,70.918 49.603C70.918 52.859,70.918 53.078,70.973 53.078C70.973 53.078,70.973 53.078,70.973 53.078C71.274 52.996,72.396 52.75,72.478 52.75C72.724 52.75,72.916 52.886,72.998 53.078C73.025 53.16,73.052 53.789,73.052 54.419C73.052 55.048,73.025 55.677,72.998 55.759C72.916 56.033,72.861 56.033,71.767 56.306L70.918 56.525L70.918 59.425C70.918 62.134,70.918 62.353,70.946 62.353C70.973 62.353,70.973 62.353,70.973 62.353C71.274 62.244,72.396 61.997,72.478 61.997C72.642 61.997,72.752 62.052,72.888 62.161C73.025 62.326,73.025 62.271,73.025 63.311C73.025 63.42,73.025 63.557,73.025 63.694C73.025 63.83,73.025 63.94,73.025 64.049C73.025 65.116,73.025 65.062,72.888 65.198C72.752 65.335,72.752 65.335,71.767 65.581L70.918 65.773L70.918 69.33C70.918 72.832,70.918 72.859,70.891 72.941C70.809 73.188,70.59 73.297,70.371 73.297C70.234 73.297,70.07 73.242,69.961 73.133C69.824 72.996,69.797 73.242,69.797 71.053C69.797 70.616,69.797 70.096,69.797 69.467C69.797 67.579,69.797 66.047,69.797 66.047C69.797 66.047,69.249 66.183,68.593 66.348C67.909 66.512,67.362 66.648,67.362 66.648C67.362 66.648,67.362 68.29,67.362 70.287C67.362 73.872,67.362 73.899,67.307 74.008C67.225 74.227,67.006 74.364,66.787 74.364C66.65 74.364,66.486 74.309,66.377 74.2C66.24 74.036,66.24 74.282,66.24 72.066C66.24 71.628,66.24 71.081,66.24 70.424C66.24 67.168,66.24 66.949,66.212 66.949C66.212 66.949,66.212 66.949,66.185 66.949C65.857 67.032,64.844 67.25,64.762 67.25C64.516 67.25,64.297 67.114,64.215 66.922C64.188 66.84,64.188 66.211,64.188 65.581C64.188 64.952,64.188 64.323,64.215 64.241C64.325 63.995,64.379 63.967,65.419 63.694L66.24 63.502L66.24 60.575C66.24 57.866,66.24 57.674,66.212 57.674C66.212 57.674,66.212 57.674,66.185 57.674C65.857 57.756,64.844 58.003,64.762 58.003C64.516 58.003,64.297 57.866,64.215 57.647C64.188 57.592,64.188 56.936,64.188 56.306C64.188 55.677,64.188 55.048,64.215 54.966C64.325 54.72,64.379 54.692,65.419 54.446L66.24 54.254L66.24 50.698C66.24 47.168,66.24 47.141,66.267 47.059C66.349 46.812,66.568 46.703,66.787 46.703C66.924 46.703,67.088 46.758,67.197 46.867C67.334 47.004,67.362 46.758,67.362 48.947C67.362 49.384,67.362 49.904,67.362 50.561C67.362 52.421,67.362 53.953,67.362 53.953C67.362 53.953,67.909 53.817,68.565 53.68C69.249 53.516,69.797 53.379,69.797 53.379C69.797 53.379,69.797 51.737,69.797 49.74C69.797 46.128,69.797 46.101,69.851 45.992C69.879 45.882,70.016 45.745,70.152 45.691M69.797 59.699C69.797 57.401,69.797 56.799,69.797 56.799L69.797 56.799C69.769 56.799,69.578 56.826,69.359 56.908C69.14 56.963,68.593 57.072,68.155 57.182L67.362 57.401L67.362 60.301C67.362 61.915,67.362 63.228,67.362 63.228C67.362 63.228,67.909 63.092,68.565 62.928C69.249 62.763,69.797 62.627,69.797 62.627C69.797 62.627,69.797 61.313,69.797 59.699"/></g><g class="vf-stavenote" id="vf-auto21285"><path stroke-width="1.4" fill="none" stroke="#444" d="M95.592 90L113.582 90"/><g class="vf-stem" id="vf-auto21286" pointer-events="bounding-box"><path stroke-width="1.5" fill="none" d="M99.342 91.5L99.342 125"/></g><g class="vf-notehead" id="vf-auto21288" pointer-events="bounding-box"><path stroke="none" d="M105.696 84.889C105.78 84.889,105.864 84.889,106.005 84.889C106.37 84.889,106.903 84.918,107.1 84.946C109.43 85.283,110.582 86.827,110.582 88.624C110.582 90.534,109.29 92.724,106.707 94.128C105.443 94.802,104.151 95.111,102.972 95.111C100.81 95.111,99.041 94.044,98.676 92.162C98.62 91.881,98.592 91.629,98.592 91.376C98.592 88.343,101.849 85.283,105.696 84.889"/><path stroke="none" d="M89.381 77.688C89.463 77.661,89.545 77.661,89.6 77.661C89.846 77.661,90.065 77.77,90.147 77.989C90.174 78.098,90.174 78.126,90.174 81.3C90.174 83.57,90.174 84.501,90.202 84.501C90.202 84.501,91.269 84.227,92.555 83.926C94.442 83.461,94.88 83.324,95.072 83.324C95.154 83.324,95.181 83.352,95.236 83.379C95.373 83.406,95.509 83.543,95.537 83.68L95.592 83.762L95.592 92.845L95.592 101.902L95.537 102.011C95.455 102.23,95.236 102.339,95.017 102.339C94.88 102.339,94.716 102.312,94.607 102.203C94.47 102.038,94.442 102.285,94.442 100.068C94.442 99.685,94.442 99.22,94.442 98.646C94.442 96.293,94.442 95.363,94.442 95.363C94.415 95.363,93.348 95.636,92.062 95.937C90.202 96.402,89.736 96.512,89.545 96.512C89.49 96.512,89.436 96.512,89.408 96.484C89.271 96.457,89.135 96.32,89.08 96.183L89.052 96.074L89.052 87.1L89.052 78.098L89.08 77.989C89.135 77.88,89.271 77.743,89.381 77.688M94.442 89.398C94.442 88.851,94.442 88.44,94.442 88.085C94.442 86.963,94.442 86.881,94.415 86.881L94.415 86.881C94.415 86.881,93.457 87.127,92.281 87.401L90.174 87.921L90.174 90.465C90.174 90.903,90.174 91.286,90.174 91.587C90.174 92.681,90.174 92.982,90.202 92.982C90.202 92.982,91.159 92.736,92.336 92.462L94.442 91.943"/></g></g><g class="vf-stavenote" id="vf-auto21289"><g class="vf-stem" id="vf-auto21290" pointer-events="bounding-box"><path stroke-width="1.5" fill="none" d="M132.338 56.5L132.338 90"/></g><g class="vf-notehead" id="vf-auto21292" pointer-events="bounding-box"><path stroke="none" d="M138.693 49.889C138.777 49.889,138.861 49.889,139.001 49.889C139.366 49.889,139.9 49.918,140.097 49.946C142.427 50.283,143.578 51.827,143.578 53.624C143.578 55.534,142.287 57.724,139.703 59.128C138.44 59.802,137.148 60.111,135.969 60.111C133.807 60.111,132.038 59.044,131.673 57.162C131.616 56.881,131.588 56.629,131.588 56.376C131.588 53.343,134.846 50.283,138.693 49.889"/><path stroke="none" d="M122.378 42.688C122.46 42.661,122.542 42.661,122.596 42.661C122.843 42.661,123.062 42.77,123.144 42.989C123.171 43.098,123.171 43.126,123.171 46.3C123.171 48.57,123.171 49.501,123.198 49.501C123.198 49.501,124.265 49.227,125.551 48.926C127.439 48.461,127.877 48.324,128.068 48.324C128.151 48.324,128.178 48.352,128.233 48.379C128.369 48.406,128.506 48.543,128.534 48.68L128.588 48.762L128.588 57.845L128.588 66.902L128.534 67.011C128.451 67.23,128.233 67.339,128.014 67.339C127.877 67.339,127.713 67.312,127.603 67.203C127.467 67.038,127.439 67.285,127.439 65.068C127.439 64.685,127.439 64.22,127.439 63.646C127.439 61.293,127.439 60.363,127.439 60.363C127.412 60.363,126.345 60.636,125.059 60.937C123.198 61.402,122.733 61.512,122.542 61.512C122.487 61.512,122.432 61.512,122.405 61.484C122.268 61.457,122.131 61.32,122.077 61.183L122.049 61.074L122.049 52.1L122.049 43.098L122.077 42.989C122.131 42.88,122.268 42.743,122.378 42.688M127.439 54.398C127.439 53.851,127.439 53.44,127.439 53.085C127.439 51.963,127.439 51.881,127.412 51.881L127.412 51.881C127.412 51.881,126.454 52.127,125.278 52.401L123.171 52.921L123.171 55.465C123.171 55.903,123.171 56.286,123.171 56.587C123.171 57.681,123.171 57.982,123.198 57.982C123.198 57.982,124.156 57.736,125.332 57.462L127.439 56.943"/></g></g><g class="vf-stavenote" id="vf-auto21293"><path stroke-width="1.4" fill="none" stroke="#444" d="M161.585 90L179.575 90"/><g class="vf-stem" id="vf-auto21294" pointer-events="bounding-box"><path stroke-width="1.5" fill="none" d="M165.335 91.5L165.335 125"/></g><g class="vf-notehead" id="vf-auto21296" pointer-events="bounding-box"><path stroke="none" d="M171.689 84.889C171.774 84.889,171.858 84.889,171.998 84.889C172.363 84.889,172.897 84.918,173.093 84.946C175.424 85.283,176.575 86.827,176.575 88.624C176.575 90.534,175.284 92.724,172.7 94.128C171.437 94.802,170.145 95.111,168.966 95.111C166.803 95.111,165.034 94.044,164.669 92.162C164.613 91.881,164.585 91.629,164.585 91.376C164.585 88.343,167.842 85.283,171.689 84.889"/><path stroke="none" d="M158.685 75.691C158.74 75.663,158.822 75.636,158.904 75.636C159.123 75.636,159.342 75.773,159.424 75.992C159.451 76.101,159.451 76.128,159.451 79.603C159.451 82.859,159.451 83.078,159.506 83.078C159.506 83.078,159.506 83.078,159.506 83.078C159.807 82.996,160.928 82.75,161.01 82.75C161.257 82.75,161.448 82.886,161.53 83.078C161.558 83.16,161.585 83.789,161.585 84.419C161.585 85.048,161.558 85.677,161.53 85.759C161.448 86.033,161.394 86.033,160.299 86.306L159.451 86.525L159.451 89.425C159.451 92.134,159.451 92.353,159.478 92.353C159.506 92.353,159.506 92.353,159.506 92.353C159.807 92.244,160.928 91.997,161.01 91.997C161.175 91.997,161.284 92.052,161.421 92.161C161.558 92.326,161.558 92.271,161.558 93.311C161.558 93.42,161.558 93.557,161.558 93.694C161.558 93.83,161.558 93.94,161.558 94.049C161.558 95.116,161.558 95.062,161.421 95.198C161.284 95.335,161.284 95.335,160.299 95.581L159.451 95.773L159.451 99.33C159.451 102.832,159.451 102.859,159.424 102.941C159.342 103.188,159.123 103.297,158.904 103.297C158.767 103.297,158.603 103.242,158.493 103.133C158.357 102.996,158.329 103.242,158.329 101.053C158.329 100.616,158.329 100.096,158.329 99.467C158.329 97.579,158.329 96.047,158.329 96.047C158.329 96.047,157.782 96.183,157.125 96.348C156.441 96.512,155.894 96.648,155.894 96.648C155.894 96.648,155.894 98.29,155.894 100.287C155.894 103.872,155.894 103.899,155.839 104.008C155.757 104.227,155.538 104.364,155.32 104.364C155.183 104.364,155.019 104.309,154.909 104.2C154.772 104.036,154.772 104.282,154.772 102.066C154.772 101.628,154.772 101.081,154.772 100.424C154.772 97.168,154.772 96.949,154.745 96.949C154.745 96.949,154.745 96.949,154.718 96.949C154.389 97.032,153.377 97.25,153.295 97.25C153.049 97.25,152.83 97.114,152.748 96.922C152.72 96.84,152.72 96.211,152.72 95.581C152.72 94.952,152.72 94.323,152.748 94.241C152.857 93.995,152.912 93.967,153.952 93.694L154.772 93.502L154.772 90.575C154.772 87.866,154.772 87.674,154.745 87.674C154.745 87.674,154.745 87.674,154.718 87.674C154.389 87.756,153.377 88.003,153.295 88.003C153.049 88.003,152.83 87.866,152.748 87.647C152.72 87.592,152.72 86.936,152.72 86.306C152.72 85.677,152.72 85.048,152.748 84.966C152.857 84.72,152.912 84.692,153.952 84.446L154.772 84.254L154.772 80.698C154.772 77.168,154.772 77.141,154.8 77.059C154.882 76.812,155.101 76.703,155.32 76.703C155.456 76.703,155.621 76.758,155.73 76.867C155.867 77.004,155.894 76.758,155.894 78.947C155.894 79.384,155.894 79.904,155.894 80.561C155.894 82.421,155.894 83.953,155.894 83.953C155.894 83.953,156.441 83.817,157.098 83.68C157.782 83.516,158.329 83.379,158.329 83.379C158.329 83.379,158.329 81.737,158.329 79.74C158.329 76.128,158.329 76.101,158.384 75.992C158.411 75.882,158.548 75.745,158.685 75.691M158.329 89.699C158.329 87.401,158.329 86.799,158.329 86.799L158.329 86.799C158.302 86.799,158.11 86.826,157.891 86.908C157.673 86.963,157.125 87.072,156.688 87.182L155.894 87.401L155.894 90.301C155.894 91.915,155.894 93.228,155.894 93.228C155.894 93.228,156.441 93.092,157.098 92.928C157.782 92.763,158.329 92.627,158.329 92.627C158.329 92.627,158.329 91.313,158.329 89.699"/></g></g><g class="vf-stavenote" id="vf-auto21297"><g class="vf-stem" id="vf-auto21298" pointer-events="bounding-box"><path stroke-width="1.5" fill="none" d="M198.332 56.5L198.332 90"/></g><g class="vf-notehead" id="vf-auto21300" pointer-events="bounding-box"><path stroke="none" d="M204.686 49.889C204.77 49.889,204.855 49.889,204.995 49.889C205.36 49.889,205.893 49.918,206.09 49.946C208.421 50.283,209.572 51.827,209.572 53.624C209.572 55.534,208.28 57.724,205.697 59.128C204.433 59.802,203.142 60.111,201.962 60.111C199.8 60.111,198.031 59.044,197.666 57.162C197.61 56.881,197.582 56.629,197.582 56.376C197.582 53.343,200.839 50.283,204.686 49.889"/><path stroke="none" d="M191.682 40.691C191.736 40.663,191.818 40.636,191.901 40.636C192.119 40.636,192.338 40.773,192.42 40.992C192.448 41.101,192.448 41.128,192.448 44.603C192.448 47.859,192.448 48.078,192.502 48.078C192.502 48.078,192.502 48.078,192.502 48.078C192.803 47.996,193.925 47.75,194.007 47.75C194.253 47.75,194.445 47.886,194.527 48.078C194.554 48.16,194.582 48.789,194.582 49.419C194.582 50.048,194.554 50.677,194.527 50.759C194.445 51.033,194.39 51.033,193.296 51.306L192.448 51.525L192.448 54.425C192.448 57.134,192.448 57.353,192.475 57.353C192.502 57.353,192.502 57.353,192.502 57.353C192.803 57.244,193.925 56.997,194.007 56.997C194.171 56.997,194.281 57.052,194.418 57.161C194.554 57.326,194.554 57.271,194.554 58.311C194.554 58.42,194.554 58.557,194.554 58.694C194.554 58.83,194.554 58.94,194.554 59.049C194.554 60.116,194.554 60.062,194.418 60.198C194.281 60.335,194.281 60.335,193.296 60.581L192.448 60.773L192.448 64.33C192.448 67.832,192.448 67.859,192.42 67.941C192.338 68.188,192.119 68.297,191.901 68.297C191.764 68.297,191.6 68.242,191.49 68.133C191.353 67.996,191.326 68.242,191.326 66.053C191.326 65.616,191.326 65.096,191.326 64.467C191.326 62.579,191.326 61.047,191.326 61.047C191.326 61.047,190.779 61.183,190.122 61.348C189.438 61.512,188.891 61.648,188.891 61.648C188.891 61.648,188.891 63.29,188.891 65.287C188.891 68.872,188.891 68.899,188.836 69.008C188.754 69.227,188.535 69.364,188.316 69.364C188.18 69.364,188.015 69.309,187.906 69.2C187.769 69.036,187.769 69.282,187.769 67.066C187.769 66.628,187.769 66.081,187.769 65.424C187.769 62.168,187.769 61.949,187.742 61.949C187.742 61.949,187.742 61.949,187.714 61.949C187.386 62.032,186.374 62.25,186.292 62.25C186.045 62.25,185.827 62.114,185.745 61.922C185.717 61.84,185.717 61.211,185.717 60.581C185.717 59.952,185.717 59.323,185.745 59.241C185.854 58.995,185.909 58.967,186.948 58.694L187.769 58.502L187.769 55.575C187.769 52.866,187.769 52.674,187.742 52.674C187.742 52.674,187.742 52.674,187.714 52.674C187.386 52.756,186.374 53.003,186.292 53.003C186.045 53.003,185.827 52.866,185.745 52.647C185.717 52.592,185.717 51.936,185.717 51.306C185.717 50.677,185.717 50.048,185.745 49.966C185.854 49.72,185.909 49.692,186.948 49.446L187.769 49.254L187.769 45.698C187.769 42.168,187.769 42.141,187.797 42.059C187.879 41.812,188.097 41.703,188.316 41.703C188.453 41.703,188.617 41.758,188.727 41.867C188.864 42.004,188.891 41.758,188.891 43.947C188.891 44.384,188.891 44.904,188.891 45.561C188.891 47.421,188.891 48.953,188.891 48.953C188.891 48.953,189.438 48.817,190.095 48.68C190.779 48.516,191.326 48.379,191.326 48.379C191.326 48.379,191.326 46.737,191.326 44.74C191.326 41.128,191.326 41.101,191.381 40.992C191.408 40.882,191.545 40.745,191.682 40.691M191.326 54.699C191.326 52.401,191.326 51.799,191.326 51.799L191.326 51.799C191.299 51.799,191.107 51.826,190.888 51.908C190.669 51.963,190.122 52.072,189.684 52.182L188.891 52.401L188.891 55.301C188.891 56.915,188.891 58.228,188.891 58.228C188.891 58.228,189.438 58.092,190.095 57.928C190.779 57.763,191.326 57.627,191.326 57.627C191.326 57.627,191.326 56.313,191.326 54.699"/></g></g><g class="vf-stavenote" id="vf-auto21301"><path stroke-width="1.4" fill="none" stroke="#444" d="M227.579 90L245.569 90"/><g class="vf-stem" id="vf-auto21302" pointer-events="bounding-box"><path stroke-width="1.5" fill="none" d="M231.329 91.5L231.329 125"/></g><g class="vf-notehead" id="vf-auto21304" pointer-events="bounding-box"><path stroke="none" d="M237.683 84.889C237.767 84.889,237.851 84.889,237.992 84.889C238.357 84.889,238.89 84.918,239.087 84.946C241.417 85.283,242.569 86.827,242.569 88.624C242.569 90.534,241.277 92.724,238.694 94.128C237.43 94.802,236.138 95.111,234.959 95.111C232.797 95.111,231.028 94.044,230.663 92.162C230.607 91.881,230.579 91.629,230.579 91.376C230.579 88.343,233.836 85.283,237.683 84.889"/></g></g><g class="vf-stavenote" id="vf-auto21305"><g class="vf-stem" id="vf-auto21306" pointer-events="bounding-box"><path stroke-width="1.5" fill="none" d="M264.325 56.5L264.325 90"/></g><g class="vf-notehead" id="vf-auto21308" pointer-events="bounding-box"><path stroke="none" d="M270.68 49.889C270.764 49.889,270.848 49.889,270.988 49.889C271.353 49.889,271.887 49.918,272.084 49.946C274.414 50.283,275.565 51.827,275.565 53.624C275.565 55.534,274.274 57.724,271.69 59.128C270.427 59.802,269.135 60.111,267.956 60.111C265.794 60.111,264.025 59.044,263.66 57.162C263.603 56.881,263.575 56.629,263.575 56.376C263.575 53.343,266.833 50.283,270.68 49.889"/></g></g><g class="vf-stavenote" id="vf-auto21309"><path stroke-width="1.4" fill="none" stroke="#444" d="M293.572 90L311.562 90"/><g class="vf-stem" id="vf-auto21310" pointer-events="bounding-box"><path stroke-width="1.5" fill="none" d="M297.322 91.5L297.322 125"/></g><g class="vf-notehead" id="vf-auto21312" pointer-events="bounding-box"><path stroke="none" d="M303.676 84.889C303.761 84.889,303.845 84.889,303.985 84.889C304.35 84.889,304.884 84.918,305.08 84.946C307.411 85.283,308.562 86.827,308.562 88.624C308.562 90.534,307.271 92.724,304.687 94.128C303.424 94.802,302.132 95.111,300.953 95.111C298.79 95.111,297.021 94.044,296.656 92.162C296.6 91.881,296.572 91.629,296.572 91.376C296.572 88.343,299.829 85.283,303.676 84.889"/><path stroke="none" d="M287.361 77.688C287.443 77.661,287.525 77.661,287.58 77.661C287.826 77.661,288.045 77.77,288.127 77.989C288.155 78.098,288.155 78.126,288.155 81.3C288.155 83.57,288.155 84.501,288.182 84.501C288.182 84.501,289.249 84.227,290.535 83.926C292.423 83.461,292.861 83.324,293.052 83.324C293.134 83.324,293.162 83.352,293.216 83.379C293.353 83.406,293.49 83.543,293.517 83.68L293.572 83.762L293.572 92.845L293.572 101.902L293.517 102.011C293.435 102.23,293.216 102.339,292.997 102.339C292.861 102.339,292.697 102.312,292.587 102.203C292.45 102.038,292.423 102.285,292.423 100.068C292.423 99.685,292.423 99.22,292.423 98.646C292.423 96.293,292.423 95.363,292.423 95.363C292.396 95.363,291.329 95.636,290.043 95.937C288.182 96.402,287.717 96.512,287.525 96.512C287.471 96.512,287.416 96.512,287.389 96.484C287.252 96.457,287.115 96.32,287.06 96.183L287.033 96.074L287.033 87.1L287.033 78.098L287.06 77.989C287.115 77.88,287.252 77.743,287.361 77.688M292.423 89.398C292.423 88.851,292.423 88.44,292.423 88.085C292.423 86.963,292.423 86.881,292.396 86.881L292.396 86.881C292.396 86.881,291.438 87.127,290.261 87.401L288.155 87.921L288.155 90.465C288.155 90.903,288.155 91.286,288.155 91.587C288.155 92.681,288.155 92.982,288.182 92.982C288.182 92.982,289.14 92.736,290.316 92.462L292.423 91.943"/></g></g><g class="vf-stavenote" id="vf-auto21313"><g class="vf-stem" id="vf-auto21314" pointer-events="bounding-box"><path stroke-width="1.5" fill="none" d="M330.319 56.5L330.319 90"/></g><g class="vf-notehead" id="vf-auto21316" pointer-events="bounding-box"><path stroke="none" d="M336.673 49.889C336.757 49.889,336.842 49.889,336.982 49.889C337.347 49.889,337.88 49.918,338.077 49.946C340.408 50.283,341.559 51.827,341.559 53.624C341.559 55.534,340.267 57.724,337.684 59.128C336.42 59.802,335.129 60.111,333.949 60.111C331.787 60.111,330.018 59.044,329.653 57.162C329.597 56.881,329.569 56.629,329.569 56.376C329.569 53.343,332.826 50.283,336.673 49.889"/><path stroke="none" d="M320.358 42.688C320.44 42.661,320.522 42.661,320.577 42.661C320.823 42.661,321.042 42.77,321.124 42.989C321.152 43.098,321.152 43.126,321.152 46.3C321.152 48.57,321.152 49.501,321.179 49.501C321.179 49.501,322.246 49.227,323.532 48.926C325.42 48.461,325.857 48.324,326.049 48.324C326.131 48.324,326.158 48.352,326.213 48.379C326.35 48.406,326.487 48.543,326.514 48.68L326.569 48.762L326.569 57.845L326.569 66.902L326.514 67.011C326.432 67.23,326.213 67.339,325.994 67.339C325.857 67.339,325.693 67.312,325.584 67.203C325.447 67.038,325.42 67.285,325.42 65.068C325.42 64.685,325.42 64.22,325.42 63.646C325.42 61.293,325.42 60.363,325.42 60.363C325.392 60.363,324.325 60.636,323.039 60.937C321.179 61.402,320.714 61.512,320.522 61.512C320.468 61.512,320.413 61.512,320.385 61.484C320.249 61.457,320.112 61.32,320.057 61.183L320.03 61.074L320.03 52.1L320.03 43.098L320.057 42.989C320.112 42.88,320.249 42.743,320.358 42.688M325.42 54.398C325.42 53.851,325.42 53.44,325.42 53.085C325.42 51.963,325.42 51.881,325.392 51.881L325.392 51.881C325.392 51.881,324.435 52.127,323.258 52.401L321.152 52.921L321.152 55.465C321.152 55.903,321.152 56.286,321.152 56.587C321.152 57.681,321.152 57.982,321.179 57.982C321.179 57.982,322.136 57.736,323.313 57.462L325.42 56.943"/></g></g><g class="vf-stavenote" id="vf-auto21317"><path stroke-width="1.4" fill="none" stroke="#444" d="M359.566 90L377.556 90"/><g class="vf-stem" id="vf-auto21318" pointer-events="bounding-box"><path stroke-width="1.5" fill="none" d="M363.316 91.5L363.316 125"/></g><g class="vf-notehead" id="vf-auto21320" pointer-events="bounding-box"><path stroke="none" d="M369.67 84.889C369.754 84.889,369.838 84.889,369.979 84.889C370.344 84.889,370.877 84.918,371.074 84.946C373.404 85.283,374.556 86.827,374.556 88.624C374.556 90.534,373.264 92.724,370.681 94.128C369.417 94.802,368.125 95.111,366.946 95.111C364.784 95.111,363.015 94.044,362.65 92.162C362.594 91.881,362.566 91.629,362.566 91.376C362.566 88.343,365.823 85.283,369.67 84.889"/></g></g><g class="vf-stavenote" id="vf-auto21321"><g class="vf-stem" id="vf-auto21322" pointer-events="bounding-box"><path stroke-width="1.5" fill="none" d="M396.312 56.5L396.312 90"/></g><g class="vf-notehead" id="vf-auto21324" pointer-events="bounding-box"><path stroke="none" d="M402.667 49.889C402.751 49.889,402.835 49.889,402.975 49.889C403.34 49.889,403.874 49.918,404.071 49.946C406.401 50.283,407.552 51.827,407.552 53.624C407.552 55.534,406.261 57.724,403.677 59.128C402.414 59.802,401.122 60.111,399.943 60.111C397.781 60.111,396.012 59.044,395.647 57.162C395.59 56.881,395.562 56.629,395.562 56.376C395.562 53.343,398.82 50.283,402.667 49.889"/></g></g><g class="vf-stavenote" id="vf-auto21325"><path stroke-width="1.4" fill="none" stroke="#444" d="M425.559 90L443.549 90"/><g class="vf-stem" id="vf-auto21326" pointer-events="bounding-box"><path stroke-width="1.5" fill="none" d="M429.309 91.5L429.309 125"/></g><g class="vf-notehead" id="vf-auto21328" pointer-events="bounding-box"><path stroke="none" d="M435.663 84.889C435.748 84.889,435.832 84.889,435.972 84.889C436.337 84.889,436.871 84.918,437.067 84.946C439.398 85.283,440.549 86.827,440.549 88.624C440.549 90.534,439.258 92.724,436.674 94.128C435.411 94.802,434.119 95.111,432.94 95.111C430.777 95.111,429.008 94.044,428.643 92.162C428.587 91.881,428.559 91.629,428.559 91.376C428.559 88.343,431.816 85.283,435.663 84.889"/><path stroke="none" d="M418.473 73.119C418.528 73.092,418.61 73.092,418.692 73.092C418.911 73.092,419.129 73.228,419.212 73.447C419.266 73.529,419.266 73.529,419.266 79.767L419.266 86.005L419.321 85.951C420.333 85.103,421.4 84.637,422.467 84.637C422.878 84.637,423.288 84.72,423.671 84.856C424.875 85.294,425.559 86.388,425.559 87.729C425.559 88.44,425.34 89.207,424.93 89.973C424.355 91.04,423.589 91.888,421.428 93.803C420.279 94.843,420.005 95.089,419.348 95.718C418.965 96.074,418.911 96.101,418.692 96.101C418.445 96.101,418.254 95.964,418.172 95.773L418.117 95.664L418.117 84.61L418.117 73.529L418.172 73.447C418.199 73.31,418.336 73.174,418.473 73.119M421.756 86.471C421.647 86.443,421.428 86.416,421.291 86.416C421.236 86.416,421.209 86.416,421.181 86.443C420.47 86.525,419.841 86.963,419.376 87.647L419.266 87.839L419.266 90.985L419.266 94.159L419.348 94.049C421.346 91.86,422.632 89.371,422.632 87.729C422.632 87.565,422.632 87.401,422.604 87.264C422.522 86.881,422.194 86.553,421.756 86.471"/></g></g><g class="vf-stavenote" id="vf-auto21329"><g class="vf-stem" id="vf-auto21330" pointer-events="bounding-box"><path stroke-width="1.5" fill="none" d="M462.306 56.5L462.306 90"/></g><g class="vf-notehead" id="vf-auto21332" pointer-events="bounding-box"><path stroke="none" d="M468.66 49.889C468.744 49.889,468.829 49.889,468.969 49.889C469.334 49.889,469.867 49.918,470.064 49.946C472.395 50.283,473.546 51.827,473.546 53.624C473.546 55.534,472.254 57.724,469.671 59.128C468.407 59.802,467.116 60.111,465.936 60.111C463.774 60.111,462.005 59.044,461.64 57.162C461.584 56.881,461.556 56.629,461.556 56.376C461.556 53.343,464.813 50.283,468.66 49.889"/><path stroke="none" d="M451.47 38.119C451.524 38.092,451.606 38.092,451.688 38.092C451.907 38.092,452.126 38.228,452.208 38.447C452.263 38.529,452.263 38.529,452.263 44.767L452.263 51.005L452.318 50.951C453.33 50.103,454.397 49.637,455.464 49.637C455.875 49.637,456.285 49.72,456.668 49.856C457.872 50.294,458.556 51.388,458.556 52.729C458.556 53.44,458.337 54.207,457.927 54.973C457.352 56.04,456.586 56.888,454.424 58.803C453.275 59.843,453.002 60.089,452.345 60.718C451.962 61.074,451.907 61.101,451.688 61.101C451.442 61.101,451.251 60.964,451.169 60.773L451.114 60.664L451.114 49.61L451.114 38.529L451.169 38.447C451.196 38.31,451.333 38.174,451.47 38.119M454.753 51.471C454.643 51.443,454.424 51.416,454.288 51.416C454.233 51.416,454.206 51.416,454.178 51.443C453.467 51.525,452.838 51.963,452.372 52.647L452.263 52.839L452.263 55.985L452.263 59.159L452.345 59.049C454.342 56.86,455.628 54.371,455.628 52.729C455.628 52.565,455.628 52.401,455.601 52.264C455.519 51.881,455.191 51.553,454.753 51.471"/></g></g><g class="vf-stavenote" id="vf-auto21333"><path stroke-width="1.4" fill="none" stroke="#444" d="M491.553 90L509.543 90"/><g class="vf-stem" id="vf-auto21334" pointer-events="bounding-box"><path stroke-width="1.5" fill="none" d="M495.303 91.5L495.303 125"/></g><g class="vf-notehead" id="vf-auto21336" pointer-events="bounding-box"><path stroke="none" d="M501.657 84.889C501.741 84.889,501.825 84.889,501.966 84.889C502.331 84.889,502.864 84.918,503.061 84.946C505.391 85.283,506.543 86.827,506.543 88.624C506.543 90.534,505.251 92.724,502.668 94.128C501.404 94.802,500.112 95.111,498.933 95.111C496.771 95.111,495.002 94.044,494.637 92.162C494.581 91.881,494.553 91.629,494.553 91.376C494.553 88.343,497.81 85.283,501.657 84.889"/></g></g><g class="vf-stavenote" id="vf-auto21337"><g class="vf-stem" id="vf-auto21338" pointer-events="bounding-box"><path stroke-width="1.5" fill="none" d="M528.299 56.5L528.299 90"/></g><g class="vf-notehead" id="vf-auto21340" pointer-events="bounding-box"><path stroke="none" d="M534.654 49.889C534.738 49.889,534.822 49.889,534.962 49.889C535.327 49.889,535.861 49.918,536.058 49.946C538.388 50.283,539.539 51.827,539.539 53.624C539.539 55.534,538.248 57.724,535.664 59.128C534.401 59.802,533.109 60.111,531.93 60.111C529.768 60.111,527.999 59.044,527.634 57.162C527.577 56.881,527.549 56.629,527.549 56.376C527.549 53.343,530.807 50.283,534.654 49.889"/></g></g><g class="vf-stavenote" id="vf-auto21341"><path stroke-width="1.4" fill="none" stroke="#444" d="M557.546 90L575.536 90"/><g class="vf-stem" id="vf-auto21342" pointer-events="bounding-box"><path stroke-width="1.5" fill="none" d="M561.296 91.5L561.296 125"/></g><g class="vf-notehead" id="vf-auto21344" pointer-events="bounding-box"><path stroke="none" d="M567.65 84.889C567.735 84.889,567.819 84.889,567.959 84.889C568.324 84.889,568.858 84.918,569.054 84.946C571.385 85.283,572.536 86.827,572.536 88.624C572.536 90.534,571.245 92.724,568.661 94.128C567.398 94.802,566.106 95.111,564.927 95.111C562.764 95.111,560.995 94.044,560.63 92.162C560.574 91.881,560.546 91.629,560.546 91.376C560.546 88.343,563.803 85.283,567.65 84.889"/><path stroke="none" d="M551.335 77.688C551.417 77.661,551.5 77.661,551.554 77.661C551.8 77.661,552.019 77.77,552.101 77.989C552.129 78.098,552.129 78.126,552.129 81.3C552.129 83.57,552.129 84.501,552.156 84.501C552.156 84.501,553.223 84.227,554.509 83.926C556.397 83.461,556.835 83.324,557.026 83.324C557.108 83.324,557.136 83.352,557.19 83.379C557.327 83.406,557.464 83.543,557.491 83.68L557.546 83.762L557.546 92.845L557.546 101.902L557.491 102.011C557.409 102.23,557.19 102.339,556.972 102.339C556.835 102.339,556.671 102.312,556.561 102.203C556.424 102.038,556.397 102.285,556.397 100.068C556.397 99.685,556.397 99.22,556.397 98.646C556.397 96.293,556.397 95.363,556.397 95.363C556.37 95.363,555.303 95.636,554.017 95.937C552.156 96.402,551.691 96.512,551.5 96.512C551.445 96.512,551.39 96.512,551.363 96.484C551.226 96.457,551.089 96.32,551.034 96.183L551.007 96.074L551.007 87.1L551.007 78.098L551.034 77.989C551.089 77.88,551.226 77.743,551.335 77.688M556.397 89.398C556.397 88.851,556.397 88.44,556.397 88.085C556.397 86.963,556.397 86.881,556.37 86.881L556.37 86.881C556.37 86.881,555.412 87.127,554.236 87.401L552.129 87.921L552.129 90.465C552.129 90.903,552.129 91.286,552.129 91.587C552.129 92.681,552.129 92.982,552.156 92.982C552.156 92.982,553.114 92.736,554.29 92.462L556.397 91.943"/></g></g><g class="vf-stavenote" id="vf-auto21345"><g class="vf-stem" id="vf-auto21346" pointer-events="bounding-box"><path stroke-width="1.5" fill="none" d="M594.293 56.5L594.293 90"/></g><g class="vf-notehead" id="vf-auto21348" pointer-events="bounding-box"><path stroke="none" d="M600.647 49.889C600.731 49.889,600.816 49.889,600.956 49.889C601.321 49.889,601.855 49.918,602.051 49.946C604.382 50.283,605.533 51.827,605.533 53.624C605.533 55.534,604.241 57.724,601.658 59.128C600.394 59.802,599.103 60.111,597.923 60.111C595.761 60.111,593.992 59.044,593.627 57.162C593.571 56.881,593.543 56.629,593.543 56.376C593.543 53.343,596.8 50.283,600.647 49.889"/><path stroke="none" d="M584.332 42.688C584.414 42.661,584.496 42.661,584.551 42.661C584.797 42.661,585.016 42.77,585.098 42.989C585.126 43.098,585.126 43.126,585.126 46.3C585.126 48.57,585.126 49.501,585.153 49.501C585.153 49.501,586.22 49.227,587.506 48.926C589.394 48.461,589.831 48.324,590.023 48.324C590.105 48.324,590.132 48.352,590.187 48.379C590.324 48.406,590.461 48.543,590.488 48.68L590.543 48.762L590.543 57.845L590.543 66.902L590.488 67.011C590.406 67.23,590.187 67.339,589.968 67.339C589.831 67.339,589.667 67.312,589.558 67.203C589.421 67.038,589.394 67.285,589.394 65.068C589.394 64.685,589.394 64.22,589.394 63.646C589.394 61.293,589.394 60.363,589.394 60.363C589.366 60.363,588.299 60.636,587.013 60.937C585.153 61.402,584.688 61.512,584.496 61.512C584.442 61.512,584.387 61.512,584.359 61.484C584.223 61.457,584.086 61.32,584.031 61.183L584.004 61.074L584.004 52.1L584.004 43.098L584.031 42.989C584.086 42.88,584.223 42.743,584.332 42.688M589.394 54.398C589.394 53.851,589.394 53.44,589.394 53.085C589.394 51.963,589.394 51.881,589.366 51.881L589.366 51.881C589.366 51.881,588.409 52.127,587.232 52.401L585.126 52.921L585.126 55.465C585.126 55.903,585.126 56.286,585.126 56.587C585.126 57.681,585.126 57.982,585.153 57.982C585.153 57.982,586.111 57.736,587.287 57.462L589.394 56.943"/></g></g><g class="vf-stavenote" id="vf-auto21349"><path stroke-width="1.4" fill="none" stroke="#444" d="M623.54 90L641.53 90"/><g class="vf-stem" id="vf-auto21350" pointer-events="bounding-box"><path stroke-width="1.5" fill="none" d="M627.29 91.5L627.29 125"/></g><g class="vf-notehead" id="vf-auto21352" pointer-events="bounding-box"><path stroke="none" d="M633.644 84.889C633.728 84.889,633.812 84.889,633.953 84.889C634.318 84.889,634.851 84.918,635.048 84.946C637.378 85.283,638.53 86.827,638.53 88.624C638.53 90.534,637.238 92.724,634.655 94.128C633.391 94.802,632.099 95.111,630.92 95.111C628.758 95.111,626.989 94.044,626.624 92.162C626.568 91.881,626.54 91.629,626.54 91.376C626.54 88.343,629.797 85.283,633.644 84.889"/></g></g><g class="vf-stavenote" id="vf-auto21353"><g class="vf-stem" id="vf-auto21354" pointer-events="bounding-box"><path stroke-width="1.5" fill="none" d="M660.286 56.5L660.286 90"/></g><g class="vf-notehead" id="vf-auto21356" pointer-events="bounding-box"><path stroke="none" d="M666.641 49.889C666.725 49.889,666.809 49.889,666.949 49.889C667.314 49.889,667.848 49.918,668.045 49.946C670.375 50.283,671.526 51.827,671.526 53.624C671.526 55.534,670.235 57.724,667.651 59.128C666.388 59.802,665.096 60.111,663.917 60.111C661.755 60.111,659.986 59.044,659.621 57.162C659.564 56.881,659.536 56.629,659.536 56.376C659.536 53.343,662.794 50.283,666.641 49.889"/></g></g></svg>