<svg xmlns="http://www.w3.org/2000/svg" stroke-width="0.3" stroke-dasharray="none" fill="black" stroke="black" font-family="Arial, sans-serif" font-size="10pt" font-weight="normal" font-style="normal" width="700" height="150" viewBox="0 0 777.7777777777777 166.66666666666666" style="width: 700px; height: 150px; border: none;"><g class="vf-stave" id="vf-auto22521" stroke-width="1" fill="#999999" stroke="#999999" font-family="Arial"><path fill="none" d="M10 70L710 70"/><path fill="none" d="M10 80L710 80"/><path fill="none" d="M10 90L710 90"/><path fill="none" d="M10 100L710 100"/><path fill="none" d="M10 110L710 110"/></g><g class="vf-stavebarline" id="vf-auto22522" font-family="Arial"><rect x="10" y="69.5" width="1" height="41" stroke="none"/></g><g class="vf-stavebarline" id="vf-auto22523" font-family="Arial"><rect x="710" y="69.5" width="1" height="41" stroke="none"/></g><g class="vf-clef" id="vf-auto22524" font-family="Arial"><path stroke="none" d="M28.711 85.844C28.66 85.413,28.711 85.388,28.939 85.16C32.893 81.485,35.883 76.847,35.883 71.246C35.883 68.078,34.996 64.935,33.501 62.756C32.944 61.945,32.006 60.931,31.6 60.931C31.093 60.931,29.953 61.869,29.243 62.68C26.532 65.67,25.644 70.232,25.644 74.034C25.644 76.138,25.923 78.52,26.177 80.015C26.253 80.446,26.278 80.522,25.847 80.902C20.576 85.236,15 90.457,15 97.832C15 104.168,19.334 110.2,28.28 110.2C29.117 110.2,30.08 110.124,30.815 109.972C31.195 109.896,31.271 109.87,31.347 110.301C31.778 112.76,32.335 115.928,32.335 117.651C32.335 123.049,28.686 123.708,26.532 123.708C24.555 123.708,23.617 123.125,23.617 122.644C23.617 122.39,23.946 122.289,24.783 122.01C25.923 121.681,27.216 120.718,27.216 118.589C27.216 116.587,25.949 114.863,23.718 114.863C21.285 114.863,19.815 116.815,19.815 119.07C19.815 121.427,21.235 125.026,26.76 125.026C29.193 125.026,33.932 123.911,33.932 117.727C33.932 115.623,33.273 112.177,32.893 109.896C32.817 109.465,32.842 109.516,33.349 109.287C37.049 107.818,39.482 104.726,39.482 100.594C39.482 95.931,36.061 91.8,30.688 91.8C29.75 91.8,29.75 91.8,29.623 91.141M32.158 66.583C33.349 66.583,34.337 67.571,34.337 69.573C34.337 73.628,30.865 76.923,28.001 79.432C27.748 79.66,27.596 79.61,27.52 79.128C27.368 78.19,27.292 76.949,27.292 75.783C27.292 70.08,29.928 66.583,32.158 66.583M28.179 91.445C28.28 92.13,28.28 92.104,27.621 92.307C24.428 93.397,22.324 96.286,22.324 99.403C22.324 102.673,24.048 105.004,26.532 105.866C26.836 105.967,27.266 106.069,27.52 106.069C27.799 106.069,27.951 105.891,27.951 105.663C27.951 105.41,27.672 105.308,27.419 105.207C25.873 104.548,24.783 102.977,24.783 101.304C24.783 99.201,26.202 97.655,28.432 97.021C29.015 96.869,29.091 96.92,29.167 97.325L30.992 108.198C31.068 108.603,31.017 108.603,30.485 108.705C29.902 108.806,29.167 108.882,28.432 108.882C22.046 108.882,17.915 105.334,17.915 100.265C17.915 98.111,18.295 95.222,21.311 91.8C23.516 89.367,25.188 87.999,26.886 86.63C27.266 86.326,27.343 86.377,27.419 86.757M30.688 97.249C30.612 96.793,30.663 96.692,31.093 96.742C34.059 96.996,36.492 99.479,36.492 102.673C36.492 104.979,35.098 106.829,33.07 107.868C32.639 108.071,32.563 108.071,32.487 107.64"/></g><g class="vf-timesignature" id="vf-auto22525" font-family="Arial"><path stroke="none" d="M67.236 82.619L67.236 75.055C67.236 74.786,67.212 74.468,66.82 74.468C66.502 74.468,66.331 74.541,66.11 74.786L62.757 78.825C62.634 79.021,62.438 79.217,62.438 79.657L62.438 82.619L57.689 82.619C60.504 80.22,66.159 72.215,66.257 71.775L66.282 71.677C66.282 71.359,66.037 71.163,65.768 71.163C65.449 71.163,64.005 71.212,63.369 71.212C62.732 71.212,61.141 71.163,60.872 71.163C60.553 71.163,60.064 71.261,60.064 71.824C60.064 76.181,56.588 81.102,55.535 82.57L55.339 82.864C55.339 82.864,55.339 82.889,55.339 82.889L55.29 82.938C55.217 83.109,55.192 83.231,55.192 83.354C55.192 83.696,55.462 83.941,55.902 83.941L62.438 83.941L62.438 86.169C62.438 87.124,61.679 87.393,61.043 87.393C60.48 87.393,60.235 87.711,60.235 88.078C60.235 88.421,60.358 88.813,60.896 88.813L68.411 88.813C68.754 88.813,69.121 88.568,69.121 88.078C69.121 87.589,68.681 87.368,68.338 87.368C67.995 87.368,67.236 87.148,67.236 86.022L67.236 83.941L69.807 83.941C70.174 83.941,70.345 83.696,70.345 83.28C70.345 82.864,70.198 82.619,69.807 82.619"/><path stroke="none" d="M67.236 102.619L67.236 95.055C67.236 94.786,67.212 94.468,66.82 94.468C66.502 94.468,66.331 94.541,66.11 94.786L62.757 98.825C62.634 99.021,62.438 99.217,62.438 99.657L62.438 102.619L57.689 102.619C60.504 100.22,66.159 92.215,66.257 91.775L66.282 91.677C66.282 91.359,66.037 91.163,65.768 91.163C65.449 91.163,64.005 91.212,63.369 91.212C62.732 91.212,61.141 91.163,60.872 91.163C60.553 91.163,60.064 91.261,60.064 91.824C60.064 96.181,56.588 101.102,55.535 102.57L55.339 102.864C55.339 102.864,55.339 102.889,55.339 102.889L55.29 102.938C55.217 103.109,55.192 103.231,55.192 103.354C55.192 103.696,55.462 103.941,55.902 103.941L62.438 103.941L62.438 106.169C62.438 107.124,61.679 107.393,61.043 107.393C60.48 107.393,60.235 107.711,60.235 108.078C60.235 108.421,60.358 108.813,60.896 108.813L68.411 108.813C68.754 108.813,69.121 108.568,69.121 108.078C69.121 107.589,68.681 107.368,68.338 107.368C67.995 107.368,67.236 107.148,67.236 106.022L67.236 103.941L69.807 103.941C70.174 103.941,70.345 103.696,70.345 103.28C70.345 102.864,70.198 102.619,69.807 102.619"/></g><g class="vf-stavenote" id="vf-auto22529" font-family="Arial"><g class="vf-notehead" id="vf-auto22532" pointer-events="bounding-box"><path stroke="none" d="M77.62 59.186C77.227 59.186,76.918 59.523,76.918 59.916C76.918 60.337,77.227 60.646,77.62 60.646L81.635 60.646L81.635 64.409C81.635 64.97,82.085 65.448,82.674 65.448L91.997 65.448C92.559 65.448,93.036 64.97,93.036 64.409L93.036 60.674C93.036 60.646,93.036 60.646,97.051 60.646C97.444 60.646,97.781 60.337,97.781 59.916C97.781 59.523,97.444 59.186,97.051 59.186"/></g></g><g class="vf-stavenote" id="vf-auto22533" font-family="Arial"><g class="vf-notehead" id="vf-auto22536" pointer-events="bounding-box"><path stroke="none" d="M224.732 50.534C225.126 50.534,225.463 50.197,225.463 49.803C225.463 49.382,225.126 49.073,224.732 49.073C220.717 49.073,220.717 49.073,220.717 49.017L220.717 45.311C220.717 44.749,220.24 44.272,219.678 44.272L210.355 44.272C209.766 44.272,209.317 44.749,209.317 45.311L209.317 49.073L205.301 49.073C204.908 49.073,204.599 49.382,204.599 49.803C204.599 50.197,204.908 50.534,205.301 50.534"/></g></g><g class="vf-stavenote" id="vf-auto22537" font-family="Arial"><g class="vf-notehead" id="vf-auto22540" pointer-events="bounding-box"><path stroke="none" d="M319.576 89.017L319.576 85.311C319.576 84.693,319.099 84.272,318.537 84.272L309.214 84.272C308.625 84.272,308.175 84.693,308.175 85.311L308.175 89.017C308.175 89.607,308.625 90.084,309.214 90.084L318.537 90.084C319.099 90.084,319.576 89.607,319.576 89.017"/></g></g><g class="vf-stavenote" id="vf-auto22541" font-family="Arial"><g class="vf-notehead" id="vf-auto22544" pointer-events="bounding-box"><path stroke="none" d="M403.019 129.186C402.626 129.186,402.317 129.523,402.317 129.916C402.317 130.337,402.626 130.646,403.019 130.646L407.034 130.646L407.034 134.409C407.034 134.97,407.484 135.448,408.073 135.448L417.396 135.448C417.957 135.448,418.435 134.97,418.435 134.409L418.435 130.674C418.435 130.646,418.435 130.646,422.45 130.646C422.843 130.646,423.18 130.337,423.18 129.916C423.18 129.523,422.843 129.186,422.45 129.186"/></g></g><g class="vf-stavenote" id="vf-auto22545" font-family="Arial"><g class="vf-notehead" id="vf-auto22548" pointer-events="bounding-box"><path stroke="none" d="M550.131 140.534C550.524 140.534,550.861 140.197,550.861 139.803C550.861 139.382,550.524 139.073,550.131 139.073C546.116 139.073,546.116 139.073,546.116 139.017L546.116 135.311C546.116 134.749,545.638 134.272,545.077 134.272L535.754 134.272C535.165 134.272,534.715 134.749,534.715 135.311L534.715 139.073L530.7 139.073C530.307 139.073,529.998 139.382,529.998 139.803C529.998 140.197,530.307 140.534,530.7 140.534"/></g></g><g class="vf-stavenote" id="vf-auto22549" font-family="Arial"><g class="vf-notehead" id="vf-auto22552" pointer-events="bounding-box"><path stroke="none" d="M644.975 94.409L644.975 90.674C644.975 90.084,644.497 89.635,643.936 89.635L634.613 89.635C634.023 89.635,633.574 90.084,633.574 90.674L633.574 94.409C633.574 94.97,634.023 95.448,634.613 95.448L643.936 95.448C644.497 95.448,644.975 94.97,644.975 94.409"/></g></g></svg>