<svg xmlns="http://www.w3.org/2000/svg" stroke-width="0.3" stroke-dasharray="none" fill="black" stroke="black" font-family="Arial, sans-serif" font-size="10pt" font-weight="normal" font-style="normal" width="675" height="195" viewBox="0 0 675 195" style="width: 675px; height: 195px; border: none;"><g class="vf-stave" id="vf-auto4311" stroke-width="1" fill="#999999" stroke="#999999"><path fill="none" d="M10 70L135 70"/><path fill="none" d="M10 80L135 80"/><path fill="none" d="M10 90L135 90"/><path fill="none" d="M10 100L135 100"/><path fill="none" d="M10 110L135 110"/></g><g class="vf-stavebarline" id="vf-auto4312"><rect x="10" y="69.5" width="1" height="41" stroke="none"/></g><g class="vf-stavebarline" id="vf-auto4313"/><g class="vf-stavenote" id="vf-auto4282"><path stroke-width="1.4" fill="none" stroke="#444" d="M24 120L43.141 120"/><path stroke-width="1.4" fill="none" stroke="#444" d="M24 130L43.141 130"/><g class="vf-stem" id="vf-auto4283" pointer-events="bounding-box"><path stroke-width="1.5" fill="none" d="M39.391 128L39.391 90"/></g><g class="vf-notehead" id="vf-auto4285" pointer-events="bounding-box"><path stroke="none" d="M27 131.685C27 133.426,28.264 135.391,31.521 135.391C35.733 135.391,40.141 131.938,40.141 128.371C40.141 125.985,38.12 124.665,35.621 124.665C31.689 124.665,27 127.978,27 131.685"/><path stroke="none" d="M38.427 140.274L34.679 146.539L31.259 140.274C31.177 140.109,30.958 140,30.739 140L28.277 140C27.948 140,27.757 140.246,27.757 140.547C27.757 140.629,27.757 140.739,27.784 140.821L33.119 149.74C33.229 149.877,33.338 149.932,33.584 149.959C33.749 149.959,33.995 149.877,34.05 149.74L39.385 140.821"/></g></g><g class="vf-stavenote" id="vf-auto4286"><g class="vf-stem" id="vf-auto4287" pointer-events="bounding-box"><path stroke-width="1.5" fill="none" d="M65.597 93L65.597 60"/></g><g class="vf-notehead" id="vf-auto4289" pointer-events="bounding-box"><path stroke="none" d="M53.206 96.685C53.206 98.426,54.469 100.391,57.727 100.391C61.939 100.391,66.347 96.938,66.347 93.371C66.347 90.985,64.325 89.665,61.826 89.665C57.895 89.665,53.206 92.978,53.206 96.685"/><path stroke="none" d="M64.633 115.274L60.885 121.539L57.465 115.274C57.383 115.109,57.164 115,56.945 115L54.482 115C54.154 115,53.963 115.246,53.963 115.547C53.963 115.629,53.963 115.739,53.99 115.821L59.325 124.74C59.435 124.877,59.544 124.932,59.79 124.959C59.954 124.959,60.201 124.877,60.255 124.74L65.591 115.821"/></g></g><g class="vf-stavenote" id="vf-auto4290"><path stroke-width="1.4" fill="none" stroke="#444" d="M76.412 120L95.553 120"/><g class="vf-stem" id="vf-auto4291" pointer-events="bounding-box"><path stroke-width="1.5" fill="none" d="M91.803 118L91.803 85"/></g><g class="vf-notehead" id="vf-auto4293" pointer-events="bounding-box"><path stroke="none" d="M79.412 121.685C79.412 123.426,80.675 125.391,83.932 125.391C88.144 125.391,92.553 121.938,92.553 118.371C92.553 115.985,90.531 114.665,88.032 114.665C84.101 114.665,79.412 117.978,79.412 121.685"/><path stroke="none" d="M81.181 64.726L84.929 58.461L88.349 64.726C88.431 64.891,88.677 65,88.869 65L91.359 65C91.66 65,91.851 64.754,91.851 64.453C91.851 64.371,91.851 64.261,91.824 64.179L86.488 55.26C86.379 55.123,86.27 55.068,86.023 55.041C85.859 55.041,85.64 55.123,85.558 55.26L80.223 64.179"/></g></g><g class="vf-stavenote" id="vf-auto4294"><g class="vf-stem" id="vf-auto4295" pointer-events="bounding-box"><path stroke-width="1.5" fill="none" d="M118.009 93L118.009 60"/></g><g class="vf-notehead" id="vf-auto4297" pointer-events="bounding-box"><path stroke="none" d="M105.617 96.685C105.617 98.426,106.881 100.391,110.138 100.391C114.35 100.391,118.759 96.938,118.759 93.371C118.759 90.985,116.737 89.665,114.238 89.665C110.307 89.665,105.617 92.978,105.617 96.685"/><path stroke="none" d="M107.386 54.726L111.135 48.461L114.555 54.726C114.637 54.891,114.883 55,115.075 55L117.564 55C117.865 55,118.057 54.754,118.057 54.453C118.057 54.371,118.057 54.261,118.029 54.179L112.694 45.26C112.585 45.123,112.475 45.068,112.229 45.041C112.065 45.041,111.846 45.123,111.764 45.26L106.429 54.179"/></g></g><g class="vf-stave" id="vf-auto4343" stroke-width="1" fill="#999999" stroke="#999999"><path fill="none" d="M135 70L260 70"/><path fill="none" d="M135 80L260 80"/><path fill="none" d="M135 90L260 90"/><path fill="none" d="M135 100L260 100"/><path fill="none" d="M135 110L260 110"/></g><g class="vf-stavebarline" id="vf-auto4344"><rect x="135" y="69.5" width="1" height="41" stroke="none"/></g><g class="vf-stavebarline" id="vf-auto4345"><rect x="257" y="69.5" width="1" height="41" stroke="none"/><rect x="260" y="69.5" width="1" height="41" stroke="none"/></g><g class="vf-stavenote" id="vf-auto4314"><g class="vf-stem" id="vf-auto4315" pointer-events="bounding-box"><path stroke-width="1.5" fill="none" d="M152.75 87L152.75 120"/></g><g class="vf-notehead" id="vf-auto4317" pointer-events="bounding-box"><path stroke="none" d="M152 86.685C152 88.426,153.264 90.391,156.521 90.391C160.733 90.391,165.141 86.938,165.141 83.371C165.141 80.985,163.12 79.665,160.621 79.665C156.689 79.665,152 82.978,152 86.685"/><path stroke="none" d="M153.769 64.726L157.517 58.461L160.937 64.726C161.019 64.891,161.266 65,161.457 65L163.947 65C164.248 65,164.439 64.754,164.439 64.453C164.439 64.371,164.439 64.261,164.412 64.179L159.077 55.26C158.967 55.123,158.858 55.068,158.612 55.041C158.448 55.041,158.229 55.123,158.147 55.26L152.811 64.179"/></g></g><g class="vf-stavenote" id="vf-auto4318"><path stroke-width="1.4" fill="none" stroke="#444" d="M175.206 60L194.347 60"/><g class="vf-stem" id="vf-auto4319" pointer-events="bounding-box"><path stroke-width="1.5" fill="none" d="M178.956 62L178.956 95"/></g><g class="vf-notehead" id="vf-auto4321" pointer-events="bounding-box"><path stroke="none" d="M178.206 61.685C178.206 63.426,179.469 65.391,182.727 65.391C186.939 65.391,191.347 61.938,191.347 58.371C191.347 55.985,189.325 54.665,186.826 54.665C182.895 54.665,178.206 57.978,178.206 61.685"/><path stroke="none" d="M179.975 49.726L183.723 43.461L187.143 49.726C187.225 49.891,187.471 50,187.663 50L190.153 50C190.454 50,190.645 49.754,190.645 49.453C190.645 49.371,190.645 49.261,190.618 49.179L185.283 40.26C185.173 40.123,185.064 40.068,184.818 40.041C184.653 40.041,184.435 40.123,184.352 40.26L179.017 49.179"/></g></g><g class="vf-stavenote" id="vf-auto4322"><g class="vf-stem" id="vf-auto4323" pointer-events="bounding-box"><path stroke-width="1.5" fill="none" d="M205.162 87L205.162 120"/></g><g class="vf-notehead" id="vf-auto4325" pointer-events="bounding-box"><path stroke="none" d="M204.412 86.685C204.412 88.426,205.675 90.391,208.932 90.391C213.144 90.391,217.553 86.938,217.553 83.371C217.553 80.985,215.531 79.665,213.032 79.665C209.101 79.665,204.412 82.978,204.412 86.685"/><path stroke="none" d="M215.839 125.274L212.09 131.539L208.67 125.274C208.588 125.109,208.369 125,208.151 125L205.688 125C205.36 125,205.168 125.246,205.168 125.547C205.168 125.629,205.168 125.739,205.196 125.821L210.531 134.74C210.64 134.877,210.75 134.932,210.996 134.959C211.16 134.959,211.406 134.877,211.461 134.74L216.796 125.821"/></g></g><g class="vf-stavenote" id="vf-auto4326"><path stroke-width="1.4" fill="none" stroke="#444" d="M227.617 60L246.759 60"/><g class="vf-stem" id="vf-auto4327" pointer-events="bounding-box"><path stroke-width="1.5" fill="none" d="M231.367 62L231.367 95"/></g><g class="vf-notehead" id="vf-auto4329" pointer-events="bounding-box"><path stroke="none" d="M230.617 61.685C230.617 63.426,231.881 65.391,235.138 65.391C239.35 65.391,243.759 61.938,243.759 58.371C243.759 55.985,241.737 54.665,239.238 54.665C235.307 54.665,230.617 57.978,230.617 61.685"/><path stroke="none" d="M242.045 115.274L238.296 121.539L234.876 115.274C234.794 115.109,234.575 115,234.356 115L231.894 115C231.566 115,231.374 115.246,231.374 115.547C231.374 115.629,231.374 115.739,231.401 115.821L236.737 124.74C236.846 124.877,236.956 124.932,237.202 124.959C237.366 124.959,237.612 124.877,237.667 124.74L243.002 115.821"/></g></g><g class="vf-stave" id="vf-auto4375" stroke-width="1" fill="#999999" stroke="#999999"><path fill="none" d="M260 70L385 70"/><path fill="none" d="M260 80L385 80"/><path fill="none" d="M260 90L385 90"/><path fill="none" d="M260 100L385 100"/><path fill="none" d="M260 110L385 110"/></g><g class="vf-stavebarline" id="vf-auto4376"><rect x="260" y="69.5" width="1" height="41" stroke="none"/></g><g class="vf-stavebarline" id="vf-auto4377"/><g class="vf-stavenote" id="vf-auto4346"><path stroke-width="1.4" fill="none" stroke="#444" d="M274 120L293.141 120"/><g class="vf-stem" id="vf-auto4347" pointer-events="bounding-box"><path stroke-width="1.5" fill="none" d="M289.391 118L289.391 85"/></g><g class="vf-notehead" id="vf-auto4349" pointer-events="bounding-box"><path stroke="none" d="M277 121.685C277 123.426,278.264 125.391,281.521 125.391C285.733 125.391,290.141 121.938,290.141 118.371C290.141 115.985,288.12 114.665,285.621 114.665C281.689 114.665,277 117.978,277 121.685"/><path stroke="none" d="M288.933 134.733L284.2 134.733L284.2 130L282.941 130L282.941 134.733L278.208 134.733L278.208 135.992L282.941 135.992L282.941 140.725L284.2 140.725L284.2 135.992L288.933 135.992"/></g></g><g class="vf-stavenote" id="vf-auto4350"><g class="vf-stem" id="vf-auto4351" pointer-events="bounding-box"><path stroke-width="1.5" fill="none" d="M315.597 83L315.597 50"/></g><g class="vf-notehead" id="vf-auto4353" pointer-events="bounding-box"><path stroke="none" d="M303.206 86.685C303.206 88.426,304.469 90.391,307.727 90.391C311.939 90.391,316.347 86.938,316.347 83.371C316.347 80.985,314.325 79.665,311.826 79.665C307.895 79.665,303.206 82.978,303.206 86.685"/><path stroke="none" d="M315.139 119.733L310.406 119.733L310.406 115L309.147 115L309.147 119.733L304.414 119.733L304.414 120.992L309.147 120.992L309.147 125.725L310.406 125.725L310.406 120.992L315.139 120.992"/></g></g><g class="vf-stavenote" id="vf-auto4354"><path stroke-width="1.4" fill="none" stroke="#444" d="M326.412 120L345.553 120"/><g class="vf-stem" id="vf-auto4355" pointer-events="bounding-box"><path stroke-width="1.5" fill="none" d="M341.803 118L341.803 85"/></g><g class="vf-notehead" id="vf-auto4357" pointer-events="bounding-box"><path stroke="none" d="M329.412 121.685C329.412 123.426,330.675 125.391,333.932 125.391C338.144 125.391,342.553 121.938,342.553 118.371C342.553 115.985,340.531 114.665,338.032 114.665C334.101 114.665,329.412 117.978,329.412 121.685"/><path stroke="none" d="M341.345 59.008L336.612 59.008L336.612 54.275L335.353 54.275L335.353 59.008L330.62 59.008L330.62 60.267L335.353 60.267L335.353 65L336.612 65L336.612 60.267L341.345 60.267"/></g></g><g class="vf-stavenote" id="vf-auto4358"><g class="vf-stem" id="vf-auto4359" pointer-events="bounding-box"><path stroke-width="1.5" fill="none" d="M368.009 93L368.009 60"/></g><g class="vf-notehead" id="vf-auto4361" pointer-events="bounding-box"><path stroke="none" d="M355.617 96.685C355.617 98.426,356.881 100.391,360.138 100.391C364.35 100.391,368.759 96.938,368.759 93.371C368.759 90.985,366.737 89.665,364.238 89.665C360.307 89.665,355.617 92.978,355.617 96.685"/><path stroke="none" d="M367.551 49.008L362.817 49.008L362.817 44.275L361.559 44.275L361.559 49.008L356.826 49.008L356.826 50.267L361.559 50.267L361.559 55L362.817 55L362.817 50.267L367.551 50.267"/></g></g><g class="vf-stave" id="vf-auto4407" stroke-width="1" fill="#999999" stroke="#999999"><path fill="none" d="M385 70L510 70"/><path fill="none" d="M385 80L510 80"/><path fill="none" d="M385 90L510 90"/><path fill="none" d="M385 100L510 100"/><path fill="none" d="M385 110L510 110"/></g><g class="vf-stavebarline" id="vf-auto4408"><rect x="385" y="69.5" width="1" height="41" stroke="none"/></g><g class="vf-stavebarline" id="vf-auto4409"><rect x="505" y="69.5" width="1" height="41" stroke="none"/><rect x="508" y="69.5" width="3" height="41" stroke="none"/></g><g class="vf-stavenote" id="vf-auto4378"><g class="vf-stem" id="vf-auto4379" pointer-events="bounding-box"><path stroke-width="1.5" fill="none" d="M402.75 97L402.75 130"/></g><g class="vf-notehead" id="vf-auto4381" pointer-events="bounding-box"><path stroke="none" d="M402 96.685C402 98.426,403.264 100.391,406.521 100.391C410.733 100.391,415.141 96.938,415.141 93.371C415.141 90.985,413.12 89.665,410.621 89.665C406.689 89.665,402 92.978,402 96.685"/><path stroke="none" d="M413.933 59.008L409.2 59.008L409.2 54.275L407.941 54.275L407.941 59.008L403.208 59.008L403.208 60.267L407.941 60.267L407.941 65L409.2 65L409.2 60.267L413.933 60.267"/></g></g><g class="vf-stavenote" id="vf-auto4382"><path stroke-width="1.4" fill="none" stroke="#444" d="M425.206 60L444.347 60"/><g class="vf-stem" id="vf-auto4383" pointer-events="bounding-box"><path stroke-width="1.5" fill="none" d="M428.956 62L428.956 95"/></g><g class="vf-notehead" id="vf-auto4385" pointer-events="bounding-box"><path stroke="none" d="M428.206 61.685C428.206 63.426,429.469 65.391,432.727 65.391C436.939 65.391,441.347 61.938,441.347 58.371C441.347 55.985,439.325 54.665,436.826 54.665C432.895 54.665,428.206 57.978,428.206 61.685"/><path stroke="none" d="M440.139 44.008L435.406 44.008L435.406 39.275L434.147 39.275L434.147 44.008L429.414 44.008L429.414 45.267L434.147 45.267L434.147 50L435.406 50L435.406 45.267L440.139 45.267"/></g></g><g class="vf-stavenote" id="vf-auto4386"><g class="vf-stem" id="vf-auto4387" pointer-events="bounding-box"><path stroke-width="1.5" fill="none" d="M455.162 87L455.162 120"/></g><g class="vf-notehead" id="vf-auto4389" pointer-events="bounding-box"><path stroke="none" d="M454.412 86.685C454.412 88.426,455.675 90.391,458.932 90.391C463.144 90.391,467.553 86.938,467.553 83.371C467.553 80.985,465.531 79.665,463.032 79.665C459.101 79.665,454.412 82.978,454.412 86.685"/><path stroke="none" d="M466.345 129.733L461.612 129.733L461.612 125L460.353 125L460.353 129.733L455.62 129.733L455.62 130.992L460.353 130.992L460.353 135.725L461.612 135.725L461.612 130.992L466.345 130.992"/></g></g><g class="vf-stavenote" id="vf-auto4390"><path stroke-width="1.4" fill="none" stroke="#444" d="M477.617 60L496.759 60"/><g class="vf-stem" id="vf-auto4391" pointer-events="bounding-box"><path stroke-width="1.5" fill="none" d="M481.367 62L481.367 95"/></g><g class="vf-notehead" id="vf-auto4393" pointer-events="bounding-box"><path stroke="none" d="M480.617 61.685C480.617 63.426,481.881 65.391,485.138 65.391C489.35 65.391,493.759 61.938,493.759 58.371C493.759 55.985,491.737 54.665,489.238 54.665C485.307 54.665,480.617 57.978,480.617 61.685"/><path stroke="none" d="M492.551 119.733L487.817 119.733L487.817 115L486.559 115L486.559 119.733L481.826 119.733L481.826 120.992L486.559 120.992L486.559 125.725L487.817 125.725L487.817 120.992L492.551 120.992"/></g></g></svg>