<svg xmlns="http://www.w3.org/2000/svg" stroke-width="0.3" stroke-dasharray="none" fill="black" stroke="black" font-family="Arial, sans-serif" font-size="10pt" font-weight="normal" font-style="normal" width="700" height="130" viewBox="0 0 700 130" style="width: 700px; height: 130px; border: none;"><g class="vf-stave" id="vf-auto15684" stroke-width="1" fill="#999999" stroke="#999999"><path fill="none" d="M10 50L660 50"/><path fill="none" d="M10 60L660 60"/><path fill="none" d="M10 70L660 70"/><path fill="none" d="M10 80L660 80"/><path fill="none" d="M10 90L660 90"/></g><g class="vf-stavebarline" id="vf-auto15685"><rect x="10" y="49.5" width="1" height="41" stroke="none"/></g><g class="vf-stavebarline" id="vf-auto15686"><rect x="660" y="49.5" width="1" height="41" stroke="none"/></g><g class="vf-stavenote" id="vf-auto15688"><path stroke-width="1.4" fill="none" stroke="#444" d="M162.153 100L181.661 100"/><path stroke-width="1.4" fill="none" stroke="#444" d="M162.153 110L181.661 110"/><g class="vf-notehead" id="vf-auto15692" pointer-events="bounding-box"><path stroke="none" d="M168.798 116.543C169.079 116.599,169.332 116.627,169.613 116.627C173.488 116.627,179.272 111.348,179.16 107.08C179.048 106.041,179.076 104.609,176.97 103.766C176.38 103.485,175.734 103.373,175.032 103.373C170.708 103.373,166.018 108.343,165.681 111.657C165.681 111.909,165.653 112.134,165.653 112.387C165.653 114.409,166.552 116.037,168.798 116.543"/><g class="vf-stavenote" id="vf-auto15753"><path stroke-width="1.4" fill="none" stroke="#444" d="M30 100L47.508 100"/><path stroke-width="1.4" fill="none" stroke="#444" d="M30 110L47.508 110"/><g class="vf-notehead" id="vf-auto15759" pointer-events="bounding-box"><path stroke="none" d="M34.576 114.318C34.761 114.355,34.928 114.374,35.113 114.374C37.671 114.374,41.488 110.89,41.414 108.073C41.34 107.387,41.359 106.442,39.969 105.886C39.58 105.7,39.153 105.626,38.69 105.626C35.836 105.626,32.741 108.907,32.519 111.093C32.519 111.26,32.5 111.408,32.5 111.575C32.5 112.91,33.093 113.985,34.576 114.318"/></g></g><g class="vf-stavenote" id="vf-auto15760"><path stroke-width="1.4" fill="none" stroke="#444" d="M42.915 100L60.423 100"/><path stroke-width="1.4" fill="none" stroke="#444" d="M42.915 110L60.423 110"/><g class="vf-notehead" id="vf-auto15766" pointer-events="bounding-box"><path stroke="none" d="M47.491 114.318C47.676 114.355,47.843 114.374,48.028 114.374C50.586 114.374,54.404 110.89,54.33 108.073C54.255 107.387,54.274 106.442,52.884 105.886C52.495 105.7,52.069 105.626,51.605 105.626C48.751 105.626,45.656 108.907,45.434 111.093C45.434 111.26,45.415 111.408,45.415 111.575C45.415 112.91,46.008 113.985,47.491 114.318"/></g></g><g class="vf-stavenote" id="vf-auto15767"><path stroke-width="1.4" fill="none" stroke="#444" d="M55.831 100L73.339 100"/><path stroke-width="1.4" fill="none" stroke="#444" d="M55.831 110L73.339 110"/><g class="vf-notehead" id="vf-auto15773" pointer-events="bounding-box"><path stroke="none" d="M60.406 114.318C60.592 114.355,60.758 114.374,60.944 114.374C63.501 114.374,67.319 110.89,67.245 108.073C67.171 107.387,67.189 106.442,65.799 105.886C65.41 105.7,64.984 105.626,64.521 105.626C61.667 105.626,58.572 108.907,58.349 111.093C58.349 111.26,58.331 111.408,58.331 111.575C58.331 112.91,58.924 113.985,60.406 114.318"/></g></g><g class="vf-stavenote" id="vf-auto15774"><path stroke-width="1.4" fill="none" stroke="#444" d="M68.746 100L86.254 100"/><path stroke-width="1.4" fill="none" stroke="#444" d="M68.746 110L86.254 110"/><g class="vf-notehead" id="vf-auto15780" pointer-events="bounding-box"><path stroke="none" d="M73.322 114.318C73.507 114.355,73.674 114.374,73.859 114.374C76.417 114.374,80.234 110.89,80.16 108.073C80.086 107.387,80.105 106.442,78.715 105.886C78.326 105.7,77.899 105.626,77.436 105.626C74.582 105.626,71.487 108.907,71.265 111.093C71.265 111.26,71.246 111.408,71.246 111.575C71.246 112.91,71.839 113.985,73.322 114.318"/></g></g><g class="vf-stavenote" id="vf-auto15781"><path stroke-width="1.4" fill="none" stroke="#444" d="M81.661 100L99.169 100"/><path stroke-width="1.4" fill="none" stroke="#444" d="M81.661 110L99.169 110"/><g class="vf-notehead" id="vf-auto15787" pointer-events="bounding-box"><path stroke="none" d="M86.237 114.318C86.422 114.355,86.589 114.374,86.774 114.374C89.332 114.374,93.15 110.89,93.076 108.073C93.002 107.387,93.02 106.442,91.63 105.886C91.241 105.7,90.815 105.626,90.351 105.626C87.497 105.626,84.402 108.907,84.18 111.093C84.18 111.26,84.161 111.408,84.161 111.575C84.161 112.91,84.754 113.985,86.237 114.318"/></g></g><g class="vf-stavenote" id="vf-auto15788"><path stroke-width="1.4" fill="none" stroke="#444" d="M94.577 100L112.085 100"/><path stroke-width="1.4" fill="none" stroke="#444" d="M94.577 110L112.085 110"/><g class="vf-notehead" id="vf-auto15794" pointer-events="bounding-box"><path stroke="none" d="M99.152 114.318C99.338 114.355,99.504 114.374,99.69 114.374C102.247 114.374,106.065 110.89,105.991 108.073C105.917 107.387,105.935 106.442,104.545 105.886C104.156 105.7,103.73 105.626,103.267 105.626C100.413 105.626,97.318 108.907,97.095 111.093C97.095 111.26,97.077 111.408,97.077 111.575C97.077 112.91,97.67 113.985,99.152 114.318"/></g></g><g class="vf-stavenote" id="vf-auto15795"><path stroke-width="1.4" fill="none" stroke="#444" d="M107.492 100L125 100"/><path stroke-width="1.4" fill="none" stroke="#444" d="M107.492 110L125 110"/><g class="vf-notehead" id="vf-auto15801" pointer-events="bounding-box"><path stroke="none" d="M112.068 114.318C112.253 114.355,112.42 114.374,112.605 114.374C115.163 114.374,118.98 110.89,118.906 108.073C118.832 107.387,118.851 106.442,117.461 105.886C117.072 105.7,116.645 105.626,116.182 105.626C113.328 105.626,110.233 108.907,110.011 111.093C110.011 111.26,109.992 111.408,109.992 111.575C109.992 112.91,110.585 113.985,112.068 114.318"/></g></g><g class="vf-stavenote" id="vf-auto15802"><path stroke-width="1.4" fill="none" stroke="#444" d="M120.407 100L137.915 100"/><path stroke-width="1.4" fill="none" stroke="#444" d="M120.407 110L137.915 110"/><g class="vf-notehead" id="vf-auto15808" pointer-events="bounding-box"><path stroke="none" d="M124.983 114.318C125.168 114.355,125.335 114.374,125.521 114.374C128.078 114.374,131.896 110.89,131.822 108.073C131.748 107.387,131.766 106.442,130.376 105.886C129.987 105.7,129.561 105.626,129.097 105.626C126.243 105.626,123.148 108.907,122.926 111.093C122.926 111.26,122.907 111.408,122.907 111.575C122.907 112.91,123.5 113.985,124.983 114.318"/></g></g><g class="vf-stavenote" id="vf-auto15809"><path stroke-width="1.4" fill="none" stroke="#444" d="M133.323 100L150.831 100"/><path stroke-width="1.4" fill="none" stroke="#444" d="M133.323 110L150.831 110"/><g class="vf-notehead" id="vf-auto15815" pointer-events="bounding-box"><path stroke="none" d="M137.898 114.318C138.084 114.355,138.251 114.374,138.436 114.374C140.993 114.374,144.811 110.89,144.737 108.073C144.663 107.387,144.681 106.442,143.291 105.886C142.902 105.7,142.476 105.626,142.013 105.626C139.159 105.626,136.064 108.907,135.841 111.093C135.841 111.26,135.823 111.408,135.823 111.575C135.823 112.91,136.416 113.985,137.898 114.318"/></g></g><g class="vf-stavenote" id="vf-auto15816"><path stroke-width="1.4" fill="none" stroke="#444" d="M146.238 100L163.746 100"/><path stroke-width="1.4" fill="none" stroke="#444" d="M146.238 110L163.746 110"/><g class="vf-notehead" id="vf-auto15822" pointer-events="bounding-box"><path stroke="none" d="M150.814 114.318C150.999 114.355,151.166 114.374,151.351 114.374C153.909 114.374,157.726 110.89,157.652 108.073C157.578 107.387,157.597 106.442,156.207 105.886C155.818 105.7,155.391 105.626,154.928 105.626C152.074 105.626,148.979 108.907,148.757 111.093C148.757 111.26,148.738 111.408,148.738 111.575C148.738 112.91,149.331 113.985,150.814 114.318"/></g></g><g class="vf-stem" id="vf-auto15754" pointer-events="bounding-box"><path stroke-width="1.5" fill="none" d="M40.165 108L40.165 84.35"/></g><g class="vf-stem" id="vf-auto15761" pointer-events="bounding-box"><path stroke-width="1.5" fill="none" d="M53.081 108L53.081 84.35"/></g><g class="vf-beam" id="vf-auto15825"><path stroke="none" d="M39.415 83.6L39.415 86.6L53.331 86.6L53.331 83.6Z"/></g><g class="vf-stem" id="vf-auto15768" pointer-events="bounding-box"><path stroke-width="1.5" fill="none" d="M65.996 108L65.996 84.35"/></g><g class="vf-stem" id="vf-auto15775" pointer-events="bounding-box"><path stroke-width="1.5" fill="none" d="M78.911 108L78.911 84.35"/></g><g class="vf-beam" id="vf-auto15826"><path stroke="none" d="M65.246 83.6L65.246 86.6L79.161 86.6L79.161 83.6Z"/><path stroke="none" d="M65.246 88.1L65.246 91.1L79.161 91.1L79.161 88.1Z"/></g><g class="vf-stem" id="vf-auto15782" pointer-events="bounding-box"><path stroke-width="1.5" fill="none" d="M91.827 108L91.827 79.4"/></g><g class="vf-stem" id="vf-auto15789" pointer-events="bounding-box"><path stroke-width="1.5" fill="none" d="M104.742 108L104.742 79.4"/></g><g class="vf-beam" id="vf-auto15827"><path stroke="none" d="M91.077 78.65L91.077 81.65L104.992 81.65L104.992 78.65Z"/><path stroke="none" d="M91.077 83.15L91.077 86.15L104.992 86.15L104.992 83.15Z"/><path stroke="none" d="M91.077 87.65L91.077 90.65L104.992 90.65L104.992 87.65Z"/></g><g class="vf-stem" id="vf-auto15796" pointer-events="bounding-box"><path stroke-width="1.5" fill="none" d="M117.657 108L117.657 74.45"/></g><g class="vf-stem" id="vf-auto15803" pointer-events="bounding-box"><path stroke-width="1.5" fill="none" d="M130.573 108L130.573 74.45"/></g><g class="vf-beam" id="vf-auto15828"><path stroke="none" d="M116.907 73.7L116.907 76.7L130.823 76.7L130.823 73.7Z"/><path stroke="none" d="M116.907 78.2L116.907 81.2L130.823 81.2L130.823 78.2Z"/><path stroke="none" d="M116.907 82.7L116.907 85.7L130.823 85.7L130.823 82.7Z"/><path stroke="none" d="M116.907 87.2L116.907 90.2L130.823 90.2L130.823 87.2Z"/></g><g class="vf-stem" id="vf-auto15810" pointer-events="bounding-box"><path stroke-width="1.5" fill="none" d="M143.488 108L143.488 69.5"/></g><g class="vf-stem" id="vf-auto15817" pointer-events="bounding-box"><path stroke-width="1.5" fill="none" d="M156.403 108L156.403 69.5"/></g><g class="vf-beam" id="vf-auto15829"><path stroke="none" d="M142.738 68.75L142.738 71.75L156.653 71.75L156.653 68.75Z"/><path stroke="none" d="M142.738 73.25L142.738 76.25L156.653 76.25L156.653 73.25Z"/><path stroke="none" d="M142.738 77.75L142.738 80.75L156.653 80.75L156.653 77.75Z"/><path stroke="none" d="M142.738 82.25L142.738 85.25L156.653 85.25L156.653 82.25Z"/><path stroke="none" d="M142.738 86.75L142.738 89.75L156.653 89.75L156.653 86.75Z"/></g></g></g><g class="vf-stavenote" id="vf-auto15694"><path stroke-width="1.4" fill="none" stroke="#444" d="M181.529 100L201.037 100"/><path stroke-width="1.4" fill="none" stroke="#444" d="M181.529 110L201.037 110"/><g class="vf-notehead" id="vf-auto15698" pointer-events="bounding-box"><path stroke="none" d="M188.174 116.543C188.455 116.599,188.707 116.627,188.988 116.627C192.863 116.627,198.648 111.348,198.535 107.08C198.423 106.041,198.451 104.609,196.345 103.766C195.755 103.485,195.11 103.373,194.408 103.373C190.083 103.373,185.394 108.343,185.057 111.657C185.057 111.909,185.029 112.134,185.029 112.387C185.029 114.409,185.927 116.037,188.174 116.543"/></g></g><g class="vf-stavenote" id="vf-auto15701"><path stroke-width="1.4" fill="none" stroke="#444" d="M200.904 100L220.412 100"/><path stroke-width="1.4" fill="none" stroke="#444" d="M200.904 110L220.412 110"/><g class="vf-notehead" id="vf-auto15705" pointer-events="bounding-box"><path stroke="none" d="M207.549 116.543C207.83 116.599,208.083 116.627,208.364 116.627C212.239 116.627,218.023 111.348,217.911 107.08C217.798 106.041,217.827 104.609,215.721 103.766C215.131 103.485,214.485 103.373,213.783 103.373C209.459 103.373,204.769 108.343,204.432 111.657C204.432 111.909,204.404 112.134,204.404 112.387C204.404 114.409,205.303 116.037,207.549 116.543"/></g></g><g class="vf-stavenote" id="vf-auto15707"><path stroke-width="1.4" fill="none" stroke="#444" d="M217.605 100L237.113 100"/><path stroke-width="1.4" fill="none" stroke="#444" d="M217.605 110L237.113 110"/><g class="vf-notehead" id="vf-auto15711" pointer-events="bounding-box"><path stroke="none" d="M224.25 116.543C224.531 116.599,224.783 116.627,225.064 116.627C228.939 116.627,234.724 111.348,234.611 107.08C234.499 106.041,234.527 104.609,232.421 103.766C231.832 103.485,231.186 103.373,230.484 103.373C226.159 103.373,221.47 108.343,221.133 111.657C221.133 111.909,221.105 112.134,221.105 112.387C221.105 114.409,222.004 116.037,224.25 116.543"/></g></g><g class="vf-stavenote" id="vf-auto15714"><path stroke-width="1.4" fill="none" stroke="#444" d="M234.306 100L253.814 100"/><path stroke-width="1.4" fill="none" stroke="#444" d="M234.306 110L253.814 110"/><g class="vf-notehead" id="vf-auto15718" pointer-events="bounding-box"><path stroke="none" d="M240.951 116.543C241.231 116.599,241.484 116.627,241.765 116.627C245.64 116.627,251.425 111.348,251.312 107.08C251.2 106.041,251.228 104.609,249.122 103.766C248.532 103.485,247.886 103.373,247.184 103.373C242.86 103.373,238.171 108.343,237.834 111.657C237.834 111.909,237.806 112.134,237.806 112.387C237.806 114.409,238.704 116.037,240.951 116.543"/></g></g><g class="vf-stavenote" id="vf-auto15720"><path stroke-width="1.4" fill="none" stroke="#444" d="M250.543 100L270.051 100"/><path stroke-width="1.4" fill="none" stroke="#444" d="M250.543 110L270.051 110"/><g class="vf-notehead" id="vf-auto15724" pointer-events="bounding-box"><path stroke="none" d="M257.188 116.543C257.469 116.599,257.721 116.627,258.002 116.627C261.877 116.627,267.662 111.348,267.549 107.08C267.437 106.041,267.465 104.609,265.359 103.766C264.77 103.485,264.124 103.373,263.422 103.373C259.097 103.373,254.408 108.343,254.071 111.657C254.071 111.909,254.043 112.134,254.043 112.387C254.043 114.409,254.942 116.037,257.188 116.543"/></g></g><g class="vf-stavenote" id="vf-auto15727"><path stroke-width="1.4" fill="none" stroke="#444" d="M266.78 100L286.288 100"/><path stroke-width="1.4" fill="none" stroke="#444" d="M266.78 110L286.288 110"/><g class="vf-notehead" id="vf-auto15731" pointer-events="bounding-box"><path stroke="none" d="M273.425 116.543C273.706 116.599,273.959 116.627,274.24 116.627C278.115 116.627,283.899 111.348,283.787 107.08C283.674 106.041,283.702 104.609,281.596 103.766C281.007 103.485,280.361 103.373,279.659 103.373C275.335 103.373,270.645 108.343,270.308 111.657C270.308 111.909,270.28 112.134,270.28 112.387C270.28 114.409,271.179 116.037,273.425 116.543"/></g></g><g class="vf-stavenote" id="vf-auto15733"><path stroke-width="1.4" fill="none" stroke="#444" d="M283.017 100L302.526 100"/><path stroke-width="1.4" fill="none" stroke="#444" d="M283.017 110L302.526 110"/><g class="vf-notehead" id="vf-auto15737" pointer-events="bounding-box"><path stroke="none" d="M289.662 116.543C289.943 116.599,290.196 116.627,290.477 116.627C294.352 116.627,300.136 111.348,300.024 107.08C299.912 106.041,299.94 104.609,297.834 103.766C297.244 103.485,296.598 103.373,295.896 103.373C291.572 103.373,286.883 108.343,286.546 111.657C286.546 111.909,286.517 112.134,286.517 112.387C286.517 114.409,287.416 116.037,289.662 116.543"/></g></g><g class="vf-stavenote" id="vf-auto15740"><path stroke-width="1.4" fill="none" stroke="#444" d="M299.255 100L318.763 100"/><path stroke-width="1.4" fill="none" stroke="#444" d="M299.255 110L318.763 110"/><g class="vf-notehead" id="vf-auto15744" pointer-events="bounding-box"><path stroke="none" d="M305.9 116.543C306.181 116.599,306.433 116.627,306.714 116.627C310.589 116.627,316.374 111.348,316.261 107.08C316.149 106.041,316.177 104.609,314.071 103.766C313.481 103.485,312.835 103.373,312.133 103.373C307.809 103.373,303.12 108.343,302.783 111.657C302.783 111.909,302.755 112.134,302.755 112.387C302.755 114.409,303.653 116.037,305.9 116.543"/></g></g><g class="vf-stavenote" id="vf-auto15746"><path stroke-width="1.4" fill="none" stroke="#444" d="M315.492 100L335 100"/><path stroke-width="1.4" fill="none" stroke="#444" d="M315.492 110L335 110"/><g class="vf-notehead" id="vf-auto15750" pointer-events="bounding-box"><path stroke="none" d="M322.137 116.543C322.418 116.599,322.67 116.627,322.951 116.627C326.826 116.627,332.611 111.348,332.498 107.08C332.386 106.041,332.414 104.609,330.308 103.766C329.719 103.485,329.073 103.373,328.371 103.373C324.046 103.373,319.357 108.343,319.02 111.657C319.02 111.909,318.992 112.134,318.992 112.387C318.992 114.409,319.891 116.037,322.137 116.543"/></g></g><g class="vf-stavenote" id="vf-auto15830"><path stroke-width="1.4" fill="none" stroke="#444" d="M466.154 40L485.662 40"/><g class="vf-notehead" id="vf-auto15834" pointer-events="bounding-box"><path stroke="none" d="M472.298 46.543C472.579 46.599,472.832 46.627,473.113 46.627C476.988 46.627,482.772 41.348,482.66 37.08C482.548 36.041,482.576 34.609,480.47 33.766C479.88 33.485,479.234 33.373,478.532 33.373C474.208 33.373,469.519 38.343,469.182 41.657C469.182 41.909,469.154 42.134,469.154 42.387C469.154 44.409,470.052 46.037,472.298 46.543"/><g class="vf-stavenote" id="vf-auto15895"><path stroke-width="1.4" fill="none" stroke="#444" d="M334 40L351.508 40"/><g class="vf-notehead" id="vf-auto15901" pointer-events="bounding-box"><path stroke="none" d="M338.076 44.318C338.261 44.355,338.428 44.374,338.613 44.374C341.171 44.374,344.989 40.89,344.914 38.073C344.84 37.387,344.859 36.442,343.469 35.886C343.08 35.7,342.653 35.626,342.19 35.626C339.336 35.626,336.241 38.907,336.019 41.093C336.019 41.26,336 41.408,336 41.575C336 42.91,336.593 43.985,338.076 44.318"/></g></g><g class="vf-stavenote" id="vf-auto15902"><path stroke-width="1.4" fill="none" stroke="#444" d="M346.915 40L364.424 40"/><g class="vf-notehead" id="vf-auto15908" pointer-events="bounding-box"><path stroke="none" d="M350.991 44.318C351.176 44.355,351.343 44.374,351.529 44.374C354.086 44.374,357.904 40.89,357.83 38.073C357.756 37.387,357.774 36.442,356.384 35.886C355.995 35.7,355.569 35.626,355.105 35.626C352.251 35.626,349.156 38.907,348.934 41.093C348.934 41.26,348.915 41.408,348.915 41.575C348.915 42.91,349.508 43.985,350.991 44.318"/></g></g><g class="vf-stavenote" id="vf-auto15909"><path stroke-width="1.4" fill="none" stroke="#444" d="M359.831 40L377.339 40"/><g class="vf-notehead" id="vf-auto15915" pointer-events="bounding-box"><path stroke="none" d="M363.906 44.318C364.092 44.355,364.259 44.374,364.444 44.374C367.001 44.374,370.819 40.89,370.745 38.073C370.671 37.387,370.689 36.442,369.3 35.886C368.91 35.7,368.484 35.626,368.021 35.626C365.167 35.626,362.072 38.907,361.849 41.093C361.849 41.26,361.831 41.408,361.831 41.575C361.831 42.91,362.424 43.985,363.906 44.318"/></g></g><g class="vf-stavenote" id="vf-auto15916"><path stroke-width="1.4" fill="none" stroke="#444" d="M372.746 40L390.254 40"/><g class="vf-notehead" id="vf-auto15922" pointer-events="bounding-box"><path stroke="none" d="M376.822 44.318C377.007 44.355,377.174 44.374,377.359 44.374C379.917 44.374,383.735 40.89,383.66 38.073C383.586 37.387,383.605 36.442,382.215 35.886C381.826 35.7,381.399 35.626,380.936 35.626C378.082 35.626,374.987 38.907,374.765 41.093C374.765 41.26,374.746 41.408,374.746 41.575C374.746 42.91,375.339 43.985,376.822 44.318"/></g></g><g class="vf-stavenote" id="vf-auto15923"><path stroke-width="1.4" fill="none" stroke="#444" d="M385.661 40L403.17 40"/><g class="vf-notehead" id="vf-auto15929" pointer-events="bounding-box"><path stroke="none" d="M389.737 44.318C389.922 44.355,390.089 44.374,390.275 44.374C392.832 44.374,396.65 40.89,396.576 38.073C396.502 37.387,396.52 36.442,395.13 35.886C394.741 35.7,394.315 35.626,393.851 35.626C390.997 35.626,387.902 38.907,387.68 41.093C387.68 41.26,387.661 41.408,387.661 41.575C387.661 42.91,388.255 43.985,389.737 44.318"/></g></g><g class="vf-stavenote" id="vf-auto15930"><path stroke-width="1.4" fill="none" stroke="#444" d="M398.577 40L416.085 40"/><g class="vf-notehead" id="vf-auto15936" pointer-events="bounding-box"><path stroke="none" d="M402.652 44.318C402.838 44.355,403.005 44.374,403.19 44.374C405.747 44.374,409.565 40.89,409.491 38.073C409.417 37.387,409.435 36.442,408.046 35.886C407.656 35.7,407.23 35.626,406.767 35.626C403.913 35.626,400.818 38.907,400.595 41.093C400.595 41.26,400.577 41.408,400.577 41.575C400.577 42.91,401.17 43.985,402.652 44.318"/></g></g><g class="vf-stavenote" id="vf-auto15937"><path stroke-width="1.4" fill="none" stroke="#444" d="M411.492 40L429 40"/><g class="vf-notehead" id="vf-auto15943" pointer-events="bounding-box"><path stroke="none" d="M415.568 44.318C415.753 44.355,415.92 44.374,416.105 44.374C418.663 44.374,422.481 40.89,422.406 38.073C422.332 37.387,422.351 36.442,420.961 35.886C420.572 35.7,420.145 35.626,419.682 35.626C416.828 35.626,413.733 38.907,413.511 41.093C413.511 41.26,413.492 41.408,413.492 41.575C413.492 42.91,414.085 43.985,415.568 44.318"/></g></g><g class="vf-stavenote" id="vf-auto15944"><path stroke-width="1.4" fill="none" stroke="#444" d="M424.407 40L441.916 40"/><g class="vf-notehead" id="vf-auto15950" pointer-events="bounding-box"><path stroke="none" d="M428.483 44.318C428.668 44.355,428.835 44.374,429.021 44.374C431.578 44.374,435.396 40.89,435.322 38.073C435.248 37.387,435.266 36.442,433.876 35.886C433.487 35.7,433.061 35.626,432.597 35.626C429.743 35.626,426.648 38.907,426.426 41.093C426.426 41.26,426.407 41.408,426.407 41.575C426.407 42.91,427.001 43.985,428.483 44.318"/></g></g><g class="vf-stavenote" id="vf-auto15951"><path stroke-width="1.4" fill="none" stroke="#444" d="M437.323 40L454.831 40"/><g class="vf-notehead" id="vf-auto15957" pointer-events="bounding-box"><path stroke="none" d="M441.399 44.318C441.584 44.355,441.751 44.374,441.936 44.374C444.493 44.374,448.311 40.89,448.237 38.073C448.163 37.387,448.182 36.442,446.792 35.886C446.402 35.7,445.976 35.626,445.513 35.626C442.659 35.626,439.564 38.907,439.341 41.093C439.341 41.26,439.323 41.408,439.323 41.575C439.323 42.91,439.916 43.985,441.399 44.318"/></g></g><g class="vf-stavenote" id="vf-auto15958"><path stroke-width="1.4" fill="none" stroke="#444" d="M450.238 40L467.746 40"/><g class="vf-notehead" id="vf-auto15964" pointer-events="bounding-box"><path stroke="none" d="M454.314 44.318C454.499 44.355,454.666 44.374,454.851 44.374C457.409 44.374,461.227 40.89,461.152 38.073C461.078 37.387,461.097 36.442,459.707 35.886C459.318 35.7,458.891 35.626,458.428 35.626C455.574 35.626,452.479 38.907,452.257 41.093C452.257 41.26,452.238 41.408,452.238 41.575C452.238 42.91,452.831 43.985,454.314 44.318"/></g></g><g class="vf-stem" id="vf-auto15896" pointer-events="bounding-box"><path stroke-width="1.5" fill="none" d="M336.75 42L336.75 62.35"/></g><g class="vf-stem" id="vf-auto15903" pointer-events="bounding-box"><path stroke-width="1.5" fill="none" d="M349.665 42L349.665 62.35"/></g><g class="vf-beam" id="vf-auto15967"><path stroke="none" d="M336 63.1L336 60.1L349.915 60.1L349.915 63.1Z"/></g><g class="vf-stem" id="vf-auto15910" pointer-events="bounding-box"><path stroke-width="1.5" fill="none" d="M362.581 42L362.581 62.35"/></g><g class="vf-stem" id="vf-auto15917" pointer-events="bounding-box"><path stroke-width="1.5" fill="none" d="M375.496 42L375.496 62.35"/></g><g class="vf-beam" id="vf-auto15968"><path stroke="none" d="M361.831 63.1L361.831 60.1L375.746 60.1L375.746 63.1Z"/><path stroke="none" d="M361.831 58.6L361.831 55.6L375.746 55.6L375.746 58.6Z"/></g><g class="vf-stem" id="vf-auto15924" pointer-events="bounding-box"><path stroke-width="1.5" fill="none" d="M388.411 42L388.411 67.3"/></g><g class="vf-stem" id="vf-auto15931" pointer-events="bounding-box"><path stroke-width="1.5" fill="none" d="M401.327 42L401.327 67.3"/></g><g class="vf-beam" id="vf-auto15969"><path stroke="none" d="M387.661 68.05L387.661 65.05L401.577 65.05L401.577 68.05Z"/><path stroke="none" d="M387.661 63.55L387.661 60.55L401.577 60.55L401.577 63.55Z"/><path stroke="none" d="M387.661 59.05L387.661 56.05L401.577 56.05L401.577 59.05Z"/></g><g class="vf-stem" id="vf-auto15938" pointer-events="bounding-box"><path stroke-width="1.5" fill="none" d="M414.242 42L414.242 72.25"/></g><g class="vf-stem" id="vf-auto15945" pointer-events="bounding-box"><path stroke-width="1.5" fill="none" d="M427.157 42L427.157 72.25"/></g><g class="vf-beam" id="vf-auto15970"><path stroke="none" d="M413.492 73L413.492 70L427.407 70L427.407 73Z"/><path stroke="none" d="M413.492 68.5L413.492 65.5L427.407 65.5L427.407 68.5Z"/><path stroke="none" d="M413.492 64L413.492 61L427.407 61L427.407 64Z"/><path stroke="none" d="M413.492 59.5L413.492 56.5L427.407 56.5L427.407 59.5Z"/></g><g class="vf-stem" id="vf-auto15952" pointer-events="bounding-box"><path stroke-width="1.5" fill="none" d="M440.073 42L440.073 77.2"/></g><g class="vf-stem" id="vf-auto15959" pointer-events="bounding-box"><path stroke-width="1.5" fill="none" d="M452.988 42L452.988 77.2"/></g><g class="vf-beam" id="vf-auto15971"><path stroke="none" d="M439.323 77.95L439.323 74.95L453.238 74.95L453.238 77.95Z"/><path stroke="none" d="M439.323 73.45L439.323 70.45L453.238 70.45L453.238 73.45Z"/><path stroke="none" d="M439.323 68.95L439.323 65.95L453.238 65.95L453.238 68.95Z"/><path stroke="none" d="M439.323 64.45L439.323 61.45L453.238 61.45L453.238 64.45Z"/><path stroke="none" d="M439.323 59.95L439.323 56.95L453.238 56.95L453.238 59.95Z"/></g></g></g><g class="vf-stavenote" id="vf-auto15836"><path stroke-width="1.4" fill="none" stroke="#444" d="M485.529 40L505.037 40"/><g class="vf-notehead" id="vf-auto15840" pointer-events="bounding-box"><path stroke="none" d="M491.674 46.543C491.955 46.599,492.207 46.627,492.488 46.627C496.363 46.627,502.148 41.348,502.035 37.08C501.923 36.041,501.951 34.609,499.845 33.766C499.256 33.485,498.61 33.373,497.908 33.373C493.583 33.373,488.894 38.343,488.557 41.657C488.557 41.909,488.529 42.134,488.529 42.387C488.529 44.409,489.428 46.037,491.674 46.543"/></g></g><g class="vf-stavenote" id="vf-auto15843"><path stroke-width="1.4" fill="none" stroke="#444" d="M504.904 40L524.412 40"/><g class="vf-notehead" id="vf-auto15847" pointer-events="bounding-box"><path stroke="none" d="M511.049 46.543C511.33 46.599,511.583 46.627,511.864 46.627C515.739 46.627,521.523 41.348,521.411 37.08C521.299 36.041,521.327 34.609,519.221 33.766C518.631 33.485,517.985 33.373,517.283 33.373C512.959 33.373,508.269 38.343,507.932 41.657C507.932 41.909,507.904 42.134,507.904 42.387C507.904 44.409,508.803 46.037,511.049 46.543"/></g></g><g class="vf-stavenote" id="vf-auto15849"><path stroke-width="1.4" fill="none" stroke="#444" d="M521.605 40L541.113 40"/><g class="vf-notehead" id="vf-auto15853" pointer-events="bounding-box"><path stroke="none" d="M527.75 46.543C528.031 46.599,528.284 46.627,528.564 46.627C532.439 46.627,538.224 41.348,538.112 37.08C537.999 36.041,538.027 34.609,535.921 33.766C535.332 33.485,534.686 33.373,533.984 33.373C529.659 33.373,524.97 38.343,524.633 41.657C524.633 41.909,524.605 42.134,524.605 42.387C524.605 44.409,525.504 46.037,527.75 46.543"/></g></g><g class="vf-stavenote" id="vf-auto15856"><path stroke-width="1.4" fill="none" stroke="#444" d="M538.306 40L557.814 40"/><g class="vf-notehead" id="vf-auto15860" pointer-events="bounding-box"><path stroke="none" d="M544.451 46.543C544.732 46.599,544.984 46.627,545.265 46.627C549.14 46.627,554.925 41.348,554.812 37.08C554.7 36.041,554.728 34.609,552.622 33.766C552.032 33.485,551.387 33.373,550.685 33.373C546.36 33.373,541.671 38.343,541.334 41.657C541.334 41.909,541.306 42.134,541.306 42.387C541.306 44.409,542.204 46.037,544.451 46.543"/></g></g><g class="vf-stavenote" id="vf-auto15862"><path stroke-width="1.4" fill="none" stroke="#444" d="M554.543 40L574.051 40"/><g class="vf-notehead" id="vf-auto15866" pointer-events="bounding-box"><path stroke="none" d="M560.688 46.543C560.969 46.599,561.222 46.627,561.502 46.627C565.377 46.627,571.162 41.348,571.05 37.08C570.937 36.041,570.965 34.609,568.859 33.766C568.27 33.485,567.624 33.373,566.922 33.373C562.597 33.373,557.908 38.343,557.571 41.657C557.571 41.909,557.543 42.134,557.543 42.387C557.543 44.409,558.442 46.037,560.688 46.543"/></g></g><g class="vf-stavenote" id="vf-auto15869"><path stroke-width="1.4" fill="none" stroke="#444" d="M570.78 40L590.288 40"/><g class="vf-notehead" id="vf-auto15873" pointer-events="bounding-box"><path stroke="none" d="M576.925 46.543C577.206 46.599,577.459 46.627,577.74 46.627C581.615 46.627,587.399 41.348,587.287 37.08C587.174 36.041,587.203 34.609,585.097 33.766C584.507 33.485,583.861 33.373,583.159 33.373C578.835 33.373,574.145 38.343,573.808 41.657C573.808 41.909,573.78 42.134,573.78 42.387C573.78 44.409,574.679 46.037,576.925 46.543"/></g></g><g class="vf-stavenote" id="vf-auto15875"><path stroke-width="1.4" fill="none" stroke="#444" d="M587.018 40L606.526 40"/><g class="vf-notehead" id="vf-auto15879" pointer-events="bounding-box"><path stroke="none" d="M593.163 46.543C593.443 46.599,593.696 46.627,593.977 46.627C597.852 46.627,603.636 41.348,603.524 37.08C603.412 36.041,603.44 34.609,601.334 33.766C600.744 33.485,600.098 33.373,599.396 33.373C595.072 33.373,590.383 38.343,590.046 41.657C590.046 41.909,590.018 42.134,590.018 42.387C590.018 44.409,590.916 46.037,593.163 46.543"/></g></g><g class="vf-stavenote" id="vf-auto15882"><path stroke-width="1.4" fill="none" stroke="#444" d="M603.255 40L622.763 40"/><g class="vf-notehead" id="vf-auto15886" pointer-events="bounding-box"><path stroke="none" d="M609.4 46.543C609.681 46.599,609.933 46.627,610.214 46.627C614.089 46.627,619.874 41.348,619.761 37.08C619.649 36.041,619.677 34.609,617.571 33.766C616.981 33.485,616.336 33.373,615.634 33.373C611.309 33.373,606.62 38.343,606.283 41.657C606.283 41.909,606.255 42.134,606.255 42.387C606.255 44.409,607.153 46.037,609.4 46.543"/></g></g><g class="vf-stavenote" id="vf-auto15888"><path stroke-width="1.4" fill="none" stroke="#444" d="M619.492 40L639 40"/><g class="vf-notehead" id="vf-auto15892" pointer-events="bounding-box"><path stroke="none" d="M625.637 46.543C625.918 46.599,626.171 46.627,626.451 46.627C630.326 46.627,636.111 41.348,635.999 37.08C635.886 36.041,635.914 34.609,633.808 33.766C633.219 33.485,632.573 33.373,631.871 33.373C627.547 33.373,622.857 38.343,622.52 41.657C622.52 41.909,622.492 42.134,622.492 42.387C622.492 44.409,623.391 46.037,625.637 46.543"/></g></g><g class="vf-stem" id="vf-auto15689" pointer-events="bounding-box"><path stroke-width="1.5" fill="none" d="M177.911 108L177.911 70.75"/></g><g class="vf-stem" id="vf-auto15695" pointer-events="bounding-box"><path stroke-width="1.5" fill="none" d="M197.287 108L197.287 70.75"/></g><g class="vf-beam" id="vf-auto15700"><path stroke="none" d="M177.161 70L177.161 75L197.537 75L197.537 70Z"/></g><g class="vf-stem" id="vf-auto15702" pointer-events="bounding-box"><path stroke-width="1.5" fill="none" d="M216.662 108L216.662 70.75"/></g><g class="vf-stem" id="vf-auto15708" pointer-events="bounding-box"><path stroke-width="1.5" fill="none" d="M233.363 108L233.363 70.75"/></g><g class="vf-beam" id="vf-auto15713"><path stroke="none" d="M215.912 70L215.912 75L233.613 75L233.613 70Z"/><path stroke="none" d="M215.912 77.5L215.912 82.5L233.613 82.5L233.613 77.5Z"/></g><g class="vf-stem" id="vf-auto15715" pointer-events="bounding-box"><path stroke-width="1.5" fill="none" d="M250.064 108L250.064 63.25"/></g><g class="vf-stem" id="vf-auto15721" pointer-events="bounding-box"><path stroke-width="1.5" fill="none" d="M266.301 108L266.301 63.25"/></g><g class="vf-beam" id="vf-auto15726"><path stroke="none" d="M249.314 62.5L249.314 67.5L266.551 67.5L266.551 62.5Z"/><path stroke="none" d="M249.314 70L249.314 75L266.551 75L266.551 70Z"/><path stroke="none" d="M249.314 77.5L249.314 82.5L266.551 82.5L266.551 77.5Z"/></g><g class="vf-stem" id="vf-auto15728" pointer-events="bounding-box"><path stroke-width="1.5" fill="none" d="M282.538 108L282.538 55.75"/></g><g class="vf-stem" id="vf-auto15734" pointer-events="bounding-box"><path stroke-width="1.5" fill="none" d="M298.776 108L298.776 55.75"/></g><g class="vf-beam" id="vf-auto15739"><path stroke="none" d="M281.788 55L281.788 60L299.026 60L299.026 55Z"/><path stroke="none" d="M281.788 62.5L281.788 67.5L299.026 67.5L299.026 62.5Z"/><path stroke="none" d="M281.788 70L281.788 75L299.026 75L299.026 70Z"/><path stroke="none" d="M281.788 77.5L281.788 82.5L299.026 82.5L299.026 77.5Z"/></g><g class="vf-stem" id="vf-auto15741" pointer-events="bounding-box"><path stroke-width="1.5" fill="none" d="M315.013 108L315.013 48.25"/></g><g class="vf-stem" id="vf-auto15747" pointer-events="bounding-box"><path stroke-width="1.5" fill="none" d="M331.25 108L331.25 48.25"/></g><g class="vf-beam" id="vf-auto15752"><path stroke="none" d="M314.263 47.5L314.263 52.5L331.5 52.5L331.5 47.5Z"/><path stroke="none" d="M314.263 55L314.263 60L331.5 60L331.5 55Z"/><path stroke="none" d="M314.263 62.5L314.263 67.5L331.5 67.5L331.5 62.5Z"/><path stroke="none" d="M314.263 70L314.263 75L331.5 75L331.5 70Z"/><path stroke="none" d="M314.263 77.5L314.263 82.5L331.5 82.5L331.5 77.5Z"/></g><g class="vf-stem" id="vf-auto15831" pointer-events="bounding-box"><path stroke-width="1.5" fill="none" d="M469.904 42L469.904 74.25"/></g><g class="vf-stem" id="vf-auto15837" pointer-events="bounding-box"><path stroke-width="1.5" fill="none" d="M489.279 42L489.279 74.25"/></g><g class="vf-beam" id="vf-auto15842"><path stroke="none" d="M469.154 75L469.154 70L489.529 70L489.529 75Z"/></g><g class="vf-stem" id="vf-auto15844" pointer-events="bounding-box"><path stroke-width="1.5" fill="none" d="M508.654 42L508.654 74.25"/></g><g class="vf-stem" id="vf-auto15850" pointer-events="bounding-box"><path stroke-width="1.5" fill="none" d="M525.355 42L525.355 74.25"/></g><g class="vf-beam" id="vf-auto15855"><path stroke="none" d="M507.904 75L507.904 70L525.605 70L525.605 75Z"/><path stroke="none" d="M507.904 67.5L507.904 62.5L525.605 62.5L525.605 67.5Z"/></g><g class="vf-stem" id="vf-auto15857" pointer-events="bounding-box"><path stroke-width="1.5" fill="none" d="M542.056 42L542.056 81.75"/></g><g class="vf-stem" id="vf-auto15863" pointer-events="bounding-box"><path stroke-width="1.5" fill="none" d="M558.293 42L558.293 81.75"/></g><g class="vf-beam" id="vf-auto15868"><path stroke="none" d="M541.306 82.5L541.306 77.5L558.543 77.5L558.543 82.5Z"/><path stroke="none" d="M541.306 75L541.306 70L558.543 70L558.543 75Z"/><path stroke="none" d="M541.306 67.5L541.306 62.5L558.543 62.5L558.543 67.5Z"/></g><g class="vf-stem" id="vf-auto15870" pointer-events="bounding-box"><path stroke-width="1.5" fill="none" d="M574.53 42L574.53 89.25"/></g><g class="vf-stem" id="vf-auto15876" pointer-events="bounding-box"><path stroke-width="1.5" fill="none" d="M590.768 42L590.768 89.25"/></g><g class="vf-beam" id="vf-auto15881"><path stroke="none" d="M573.78 90L573.78 85L591.018 85L591.018 90Z"/><path stroke="none" d="M573.78 82.5L573.78 77.5L591.018 77.5L591.018 82.5Z"/><path stroke="none" d="M573.78 75L573.78 70L591.018 70L591.018 75Z"/><path stroke="none" d="M573.78 67.5L573.78 62.5L591.018 62.5L591.018 67.5Z"/></g><g class="vf-stem" id="vf-auto15883" pointer-events="bounding-box"><path stroke-width="1.5" fill="none" d="M607.005 42L607.005 96.75"/></g><g class="vf-stem" id="vf-auto15889" pointer-events="bounding-box"><path stroke-width="1.5" fill="none" d="M623.242 42L623.242 96.75"/></g><g class="vf-beam" id="vf-auto15894"><path stroke="none" d="M606.255 97.5L606.255 92.5L623.492 92.5L623.492 97.5Z"/><path stroke="none" d="M606.255 90L606.255 85L623.492 85L623.492 90Z"/><path stroke="none" d="M606.255 82.5L606.255 77.5L623.492 77.5L623.492 82.5Z"/><path stroke="none" d="M606.255 75L606.255 70L623.492 70L623.492 75Z"/><path stroke="none" d="M606.255 67.5L606.255 62.5L623.492 62.5L623.492 67.5Z"/></g></svg>