<svg xmlns="http://www.w3.org/2000/svg" stroke-width="0.3" stroke-dasharray="none" fill="black" stroke="black" font-family="Arial, sans-serif" font-size="10pt" font-weight="normal" font-style="normal" width="600" height="200" viewBox="0 0 600 200" style="width: 600px; height: 200px; border: none;"><g class="vf-stave" id="vf-auto19486" stroke-width="1" fill="#999999" stroke="#999999"><path fill="none" d="M0 40L250 40"/><path fill="none" d="M0 50L250 50"/><path fill="none" d="M0 60L250 60"/><path fill="none" d="M0 70L250 70"/><path fill="none" d="M0 80L250 80"/></g><g class="vf-stavebarline" id="vf-auto19487"><rect y="39.5" width="1" height="41" stroke="none"/></g><g class="vf-stavebarline" id="vf-auto19488"><rect x="247" y="39.5" width="1" height="41" stroke="none"/><rect x="250" y="39.5" width="1" height="41" stroke="none"/></g><g class="vf-stave" id="vf-auto19513" stroke-width="1" fill="#999999" stroke="#999999"><path fill="none" d="M250 40L550 40"/><path fill="none" d="M250 50L550 50"/><path fill="none" d="M250 60L550 60"/><path fill="none" d="M250 70L550 70"/><path fill="none" d="M250 80L550 80"/></g><g class="vf-stavebarline" id="vf-auto19514"><rect x="250" y="39.5" width="1" height="41" stroke="none"/></g><g class="vf-stavebarline" id="vf-auto19515"><rect x="547" y="39.5" width="1" height="41" stroke="none"/><rect x="550" y="39.5" width="1" height="41" stroke="none"/></g><g class="vf-stavenote" id="vf-auto19489"><g class="vf-stem" id="vf-auto19490" pointer-events="bounding-box"><path stroke-width="1.5" fill="none" d="M29.391 78L29.391 45"/></g><g class="vf-notehead" id="vf-auto19493" pointer-events="bounding-box"><path stroke="none" d="M17 81.685C17 83.426,18.264 85.391,21.521 85.391C25.733 85.391,30.141 81.938,30.141 78.371C30.141 75.985,28.12 74.665,25.621 74.665C21.689 74.665,17 77.978,17 81.685"/><path stroke="none" d="M28 59.136L28 62.412L35.524 60.774L35.524 57.516"/><path stroke="none" d="M28 64.136L28 67.412L35.524 65.774L35.524 62.516"/><path stroke="none" d="M28 69.136L28 72.412L35.524 70.774L35.524 67.516"/></g></g><g class="vf-stavenote" id="vf-auto19494"><g class="vf-stem" id="vf-auto19495" pointer-events="bounding-box"><path stroke-width="1.5" fill="none" d="M89.391 78L89.391 45"/></g><g class="vf-notehead" id="vf-auto19498" pointer-events="bounding-box"><path stroke="none" d="M77 81.685C77 83.426,78.264 85.391,81.521 85.391C85.733 85.391,90.141 81.938,90.141 78.371C90.141 75.985,88.12 74.665,85.621 74.665C81.689 74.665,77 77.978,77 81.685"/><path stroke="none" d="M88 64.136L88 67.412L95.524 65.774L95.524 62.516"/><path stroke="none" d="M88 69.136L88 72.412L95.524 70.774L95.524 67.516"/></g></g><g class="vf-stavenote" id="vf-auto19499"><g class="vf-stem" id="vf-auto19500" pointer-events="bounding-box"><path stroke-width="1.5" fill="none" d="M149.391 78L149.391 45"/></g><g class="vf-notehead" id="vf-auto19503" pointer-events="bounding-box"><path stroke="none" d="M137 81.685C137 83.426,138.264 85.391,141.521 85.391C145.733 85.391,150.141 81.938,150.141 78.371C150.141 75.985,148.12 74.665,145.621 74.665C141.689 74.665,137 77.978,137 81.685"/><path stroke="none" d="M148 69.136L148 72.412L155.524 70.774L155.524 67.516"/></g></g><g class="vf-stavenote" id="vf-auto19504"><g class="vf-stem" id="vf-auto19505" pointer-events="bounding-box"><path stroke-width="1.5" fill="none" d="M209.391 78L209.391 45"/></g><g class="vf-notehead" id="vf-auto19508" pointer-events="bounding-box"><path stroke="none" d="M197 81.685C197 83.426,198.264 85.391,201.521 85.391C205.733 85.391,210.141 81.938,210.141 78.371C210.141 75.985,208.12 74.665,205.621 74.665C201.689 74.665,197 77.978,197 81.685"/></g></g><g class="vf-stavenote" id="vf-auto19516"><g class="vf-stem" id="vf-auto19517" pointer-events="bounding-box"><path stroke-width="1.5" fill="none" d="M267.75 47L267.75 80"/></g><g class="vf-notehead" id="vf-auto19520" pointer-events="bounding-box"><path stroke="none" d="M267 46.685C267 48.426,268.264 50.391,271.521 50.391C275.733 50.391,280.141 46.938,280.141 43.371C280.141 40.985,278.12 39.665,275.621 39.665C271.689 39.665,267 42.978,267 46.685"/></g></g><g class="vf-stavenote" id="vf-auto19521"><g class="vf-stem" id="vf-auto19522" pointer-events="bounding-box"><path stroke-width="1.5" fill="none" d="M332.215 47L332.215 80"/></g><g class="vf-notehead" id="vf-auto19525" pointer-events="bounding-box"><path stroke="none" d="M331.465 46.685C331.465 48.426,332.728 50.391,335.986 50.391C340.198 50.391,344.606 46.938,344.606 43.371C344.606 40.985,342.584 39.665,340.085 39.665C336.154 39.665,331.465 42.978,331.465 46.685"/><path stroke="none" d="M332.465 54.136L332.465 57.412L339.989 55.774L339.989 52.516"/></g></g><g class="vf-stavenote" id="vf-auto19526"><g class="vf-stem" id="vf-auto19527" pointer-events="bounding-box"><path stroke-width="1.5" fill="none" d="M396.679 47L396.679 80"/></g><g class="vf-notehead" id="vf-auto19530" pointer-events="bounding-box"><path stroke="none" d="M395.929 46.685C395.929 48.426,397.193 50.391,400.45 50.391C404.662 50.391,409.071 46.938,409.071 43.371C409.071 40.985,407.049 39.665,404.55 39.665C400.619 39.665,395.929 42.978,395.929 46.685"/><path stroke="none" d="M396.929 59.136L396.929 62.412L404.453 60.774L404.453 57.516"/><path stroke="none" d="M396.929 54.136L396.929 57.412L404.453 55.774L404.453 52.516"/></g></g><g class="vf-stavenote" id="vf-auto19531"><g class="vf-stem" id="vf-auto19532" pointer-events="bounding-box"><path stroke-width="1.5" fill="none" d="M461.144 47L461.144 80"/></g><g class="vf-notehead" id="vf-auto19535" pointer-events="bounding-box"><path stroke="none" d="M460.394 46.685C460.394 48.426,461.658 50.391,464.915 50.391C469.127 50.391,473.535 46.938,473.535 43.371C473.535 40.985,471.514 39.665,469.014 39.665C465.083 39.665,460.394 42.978,460.394 46.685"/><path stroke="none" d="M461.394 64.136L461.394 67.412L468.918 65.774L468.918 62.516"/><path stroke="none" d="M461.394 59.136L461.394 62.412L468.918 60.774L468.918 57.516"/><path stroke="none" d="M461.394 54.136L461.394 57.412L468.918 55.774L468.918 52.516"/></g></g></svg>