<svg xmlns="http://www.w3.org/2000/svg" stroke-width="0.3" stroke-dasharray="none" fill="black" stroke="black" font-family="Arial, sans-serif" font-size="10pt" font-weight="normal" font-style="normal" width="500" height="240" viewBox="0 0 333.3333333333333 160" style="width: 500px; height: 240px; border: none;"><g class="vf-stave" id="vf-auto2793" stroke-width="1" fill="#999999" stroke="#999999" font-family="Arial"><path fill="none" d="M10 62L460 62"/><path fill="none" d="M10 75L460 75"/><path fill="none" d="M10 88L460 88"/><path fill="none" d="M10 101L460 101"/><path fill="none" d="M10 114L460 114"/><path fill="none" d="M10 127L460 127"/></g><g class="vf-stavebarline" id="vf-auto2794" font-family="Arial"><rect x="10" y="61.5" width="1" height="66" stroke="none"/></g><g class="vf-stavebarline" id="vf-auto2795" font-family="Arial"><rect x="460" y="61.5" width="1" height="66" stroke="none"/></g><g class="vf-clef" id="vf-auto2796" font-family="Arial"><path stroke="none" d="M16.198 70.755L16.198 73.428L20.737 73.428L20.737 85.846L23.916 85.846L23.916 73.428L28.432 73.428L28.432 70.755M15 103.172L18.341 103.172L19.424 100.016L25.045 100.016L26.082 103.172L29.561 103.172L24.124 87.805L20.484 87.805M22.258 91.33L24.216 97.366L20.276 97.366M28.041 106.421C27.234 105.361,25.944 104.785,24.055 104.762L16.636 104.762L16.636 120.153L23.571 120.153C23.594 120.153,23.594 120.153,23.617 120.153C24.331 120.153,25.022 120.084,25.714 119.945C26.382 119.83,26.981 119.531,27.465 119.162C27.902 118.816,28.248 118.425,28.548 117.964C29.008 117.227,29.239 116.397,29.239 115.499C29.239 114.6,29.031 113.886,28.64 113.241C28.248 112.619,27.649 112.181,26.843 111.881C27.372 111.628,27.764 111.352,28.041 111.029C28.501 110.453,28.732 109.693,28.732 108.771C28.732 107.849,28.501 107.089,28.041 106.421M23.018 107.435C23.755 107.435,24.4 107.504,24.861 107.665C25.414 107.919,25.691 108.379,25.691 109.094C25.691 109.762,25.483 110.2,25.045 110.453C24.631 110.729,24.101 110.822,23.433 110.822L19.677 110.822L19.677 107.435M23.456 113.379C24.124 113.379,24.654 113.471,25.022 113.656C25.691 113.955,25.99 114.485,25.99 115.268C25.99 116.236,25.644 116.858,24.976 117.204C24.631 117.365,24.101 117.457,23.433 117.457L19.677 117.457L19.677 113.379"/></g><g class="vf-tabnote" id="vf-auto2797" pointer-events="bounding-box" font-family="Arial"><rect x="53.041" y="72" width="18.833" height="6" fill="#FFF" stroke="none"/><text stroke="none" font-family="Arial, sans-serif" x="55.041" y="80">12</text><rect x="53.041" y="85" width="18.833" height="6" fill="#FFF" stroke="none"/><text stroke="none" font-family="Arial, sans-serif" x="55.041" y="93">12</text><g class="vf-annotation" id="vf-auto2799"><text stroke="none" font-family="Arial, sans-serif" x="43.561" y="50">Harm.</text></g></g><g class="vf-tabnote" id="vf-auto2800" pointer-events="bounding-box" font-family="Arial"><rect x="241.634" y="72" width="11.417" height="6" fill="#FFF" stroke="none"/><text stroke="none" font-family="Arial, sans-serif" x="243.634" y="80">9</text><g class="vf-annotation" id="vf-auto2802"><text stroke="none" font-family="Times New Roman, serif" font-style="italic" x="233.276" y="50">(8va)</text></g><g class="vf-annotation" id="vf-auto2803"><text stroke="none" font-family="Arial, sans-serif" x="234.009" y="36.424">A.H.</text></g></g></svg>