<svg xmlns="http://www.w3.org/2000/svg" stroke-width="0.3" stroke-dasharray="none" fill="black" stroke="black" font-family="Arial, sans-serif" font-size="10pt" font-weight="normal" font-style="normal" width="500" height="140" viewBox="0 0 500 140" style="width: 500px; height: 140px; border: none;"><g class="vf-stave" id="vf-auto25659" stroke-width="1" fill="#999999" stroke="#999999"><path fill="none" d="M0 40L490 40"/><path fill="none" d="M0 50L490 50"/><path fill="none" d="M0 60L490 60"/><path fill="none" d="M0 70L490 70"/><path fill="none" d="M0 80L490 80"/></g><g class="vf-stavebarline" id="vf-auto25660"><rect y="39.5" width="1" height="41" stroke="none"/></g><g class="vf-stavebarline" id="vf-auto25661"><rect x="490" y="39.5" width="1" height="41" stroke="none"/></g><g class="vf-clef" id="vf-auto25662"><path stroke="none" d="M5.438 51.636C5.207 51.636,5 51.844,5 52.074L5 67.926C5 68.156,5.207 68.364,5.438 68.364L9.078 68.364C9.308 68.364,9.516 68.156,9.516 67.926L9.516 52.074C9.516 51.844,9.308 51.636,9.078 51.636M12.603 51.636C12.373 51.636,12.165 51.844,12.165 52.074L12.165 67.926C12.165 68.156,12.373 68.364,12.603 68.364L16.244 68.364C16.474 68.364,16.681 68.156,16.681 67.926L16.681 52.074C16.681 51.844,16.474 51.636,16.244 51.636"/></g><g class="vf-timesignature" id="vf-auto25663"><path stroke="none" d="M39.025 54.48L39.025 57.075L36.088 57.075C35.843 57.075,35.598 57.295,35.598 57.589L35.598 58.25C35.598 58.519,35.843 58.739,36.088 58.739L46.761 58.739C47.055 58.739,47.251 58.519,47.251 58.25L47.251 57.589C47.251 57.295,47.055 57.075,46.761 57.075L43.603 57.075L43.603 54.48L46.761 54.48C47.055 54.48,47.251 54.235,47.251 53.941L47.251 53.28C47.251 53.036,47.055 52.791,46.761 52.791L43.603 52.791L43.603 47.185C43.603 46.964,43.481 46.793,43.358 46.72L42.918 46.499C42.844 46.475,42.82 46.475,42.746 46.475C42.722 46.475,42.722 46.475,42.673 46.475C42.575 46.475,42.428 46.499,42.355 46.573L39.148 49.51C39.05 49.608,39.025 49.755,39.025 49.902L39.025 52.791L34.913 52.791C34.913 52.791,38.878 48.556,43.04 42.974C43.162 42.803,43.211 42.632,43.211 42.485C43.211 42.313,43.138 42.166,43.113 42.142L42.33 41.359C42.232 41.285,42.11 41.212,41.963 41.212C41.767 41.212,36.993 41.212,36.724 41.212C36.479 41.212,36.308 41.432,36.259 41.652C36.259 41.652,36.088 44.247,35.182 47.111C34.252 49.976,33.199 51.738,32.269 53.036C32.269 53.036,32.171 53.207,32.171 53.427C32.171 53.501,32.171 53.55,32.22 53.623C32.318 53.868,32.563 54.26,32.563 54.26C32.563 54.26,32.636 54.48,32.954 54.48"/><path stroke="none" d="M39.025 74.48L39.025 77.075L36.088 77.075C35.843 77.075,35.598 77.295,35.598 77.589L35.598 78.25C35.598 78.519,35.843 78.739,36.088 78.739L46.761 78.739C47.055 78.739,47.251 78.519,47.251 78.25L47.251 77.589C47.251 77.295,47.055 77.075,46.761 77.075L43.603 77.075L43.603 74.48L46.761 74.48C47.055 74.48,47.251 74.235,47.251 73.941L47.251 73.28C47.251 73.036,47.055 72.791,46.761 72.791L43.603 72.791L43.603 67.185C43.603 66.964,43.481 66.793,43.358 66.72L42.918 66.499C42.844 66.475,42.82 66.475,42.746 66.475C42.722 66.475,42.722 66.475,42.673 66.475C42.575 66.475,42.428 66.499,42.355 66.573L39.148 69.51C39.05 69.608,39.025 69.755,39.025 69.902L39.025 72.791L34.913 72.791C34.913 72.791,38.878 68.556,43.04 62.974C43.162 62.803,43.211 62.632,43.211 62.485C43.211 62.313,43.138 62.166,43.113 62.142L42.33 61.359C42.232 61.285,42.11 61.212,41.963 61.212C41.767 61.212,36.993 61.212,36.724 61.212C36.479 61.212,36.308 61.432,36.259 61.652C36.259 61.652,36.088 64.247,35.182 67.111C34.252 69.976,33.199 71.738,32.269 73.036C32.269 73.036,32.171 73.207,32.171 73.427C32.171 73.501,32.171 73.55,32.22 73.623C32.318 73.868,32.563 74.26,32.563 74.26C32.563 74.26,32.636 74.48,32.954 74.48"/></g><g class="vf-stavenote" id="vf-auto25668"><g class="vf-stem" id="vf-auto25669" pointer-events="bounding-box"><path stroke-width="1.5" fill="none" d="M59.511 39L59.511 70"/></g><g class="vf-notehead" id="vf-auto25671" pointer-events="bounding-box"><path stroke="none" d="M71.706 31.125C71.818 31.041,71.902 30.872,71.902 30.704L71.902 30.676C71.902 30.507,71.818 30.395,71.734 30.311L71.257 29.833C71.144 29.749,71.004 29.665,70.863 29.665C70.723 29.665,70.555 29.693,70.498 29.777L65.36 33.877L60.165 29.777C60.109 29.693,59.94 29.665,59.8 29.665C59.66 29.665,59.575 29.749,59.435 29.833L58.929 30.311C58.845 30.395,58.761 30.563,58.761 30.704C58.761 30.872,58.845 31.041,58.958 31.125L63.9 35L58.958 38.875C58.845 38.959,58.761 39.128,58.761 39.296C58.761 39.409,58.845 39.577,58.929 39.661L59.407 40.167C59.491 40.307,59.66 40.335,59.8 40.335C59.94 40.335,60.109 40.307,60.165 40.223L65.36 36.123L70.498 40.223C70.555 40.307,70.723 40.335,70.863 40.335C71.004 40.335,71.172 40.307,71.257 40.167L71.734 39.661C71.818 39.577,71.902 39.409,71.902 39.296C71.902 39.128,71.818 38.959,71.706 38.875L66.764 35"/><path stroke="none" d="M65.345 18.981C66.713 18.981,67.78 20.048,67.78 21.416C67.78 22.784,66.713 23.906,65.345 23.906C63.977 23.906,62.856 22.784,62.856 21.416C62.856 20.048,63.977 18.981,65.345 18.981M65.345 17.859C63.375 17.859,61.761 19.446,61.761 21.416C61.761 23.386,63.375 25,65.345 25C67.315 25,68.902 23.386,68.902 21.416C68.902 19.446,67.315 17.859,65.345 17.859"/></g></g><g class="vf-stavenote" id="vf-auto25674"><g class="vf-stem" id="vf-auto25675" pointer-events="bounding-box"><path stroke-width="1.5" fill="none" d="M161.035 39L161.035 70"/></g><g class="vf-notehead" id="vf-auto25677" pointer-events="bounding-box"><path stroke="none" d="M173.23 31.125C173.343 31.041,173.427 30.872,173.427 30.704L173.427 30.676C173.427 30.507,173.343 30.395,173.258 30.311L172.781 29.833C172.669 29.749,172.528 29.665,172.388 29.665C172.247 29.665,172.079 29.693,172.023 29.777L166.884 33.877L161.689 29.777C161.633 29.693,161.465 29.665,161.324 29.665C161.184 29.665,161.1 29.749,160.959 29.833L160.454 30.311C160.37 30.395,160.285 30.563,160.285 30.704C160.285 30.872,160.37 31.041,160.482 31.125L165.424 35L160.482 38.875C160.37 38.959,160.285 39.128,160.285 39.296C160.285 39.409,160.37 39.577,160.454 39.661L160.931 40.167C161.015 40.307,161.184 40.335,161.324 40.335C161.465 40.335,161.633 40.307,161.689 40.223L166.884 36.123L172.023 40.223C172.079 40.307,172.247 40.335,172.388 40.335C172.528 40.335,172.697 40.307,172.781 40.167L173.258 39.661C173.343 39.577,173.427 39.409,173.427 39.296C173.427 39.128,173.343 38.959,173.23 38.875L168.288 35"/></g></g><g class="vf-stavenote" id="vf-auto25678"><g class="vf-stem" id="vf-auto25679" pointer-events="bounding-box"><path stroke-width="1.5" fill="none" d="M262.56 39L262.56 70"/></g><g class="vf-notehead" id="vf-auto25681" pointer-events="bounding-box"><path stroke="none" d="M274.755 31.125C274.867 31.041,274.951 30.872,274.951 30.704L274.951 30.676C274.951 30.507,274.867 30.395,274.783 30.311L274.305 29.833C274.193 29.749,274.053 29.665,273.912 29.665C273.772 29.665,273.603 29.693,273.547 29.777L268.409 33.877L263.214 29.777C263.158 29.693,262.989 29.665,262.849 29.665C262.708 29.665,262.624 29.749,262.484 29.833L261.978 30.311C261.894 30.395,261.81 30.563,261.81 30.704C261.81 30.872,261.894 31.041,262.006 31.125L266.948 35L262.006 38.875C261.894 38.959,261.81 39.128,261.81 39.296C261.81 39.409,261.894 39.577,261.978 39.661L262.456 40.167C262.54 40.307,262.708 40.335,262.849 40.335C262.989 40.335,263.158 40.307,263.214 40.223L268.409 36.123L273.547 40.223C273.603 40.307,273.772 40.335,273.912 40.335C274.053 40.335,274.221 40.307,274.305 40.167L274.783 39.661C274.867 39.577,274.951 39.409,274.951 39.296C274.951 39.128,274.867 38.959,274.755 38.875L269.813 35"/><path stroke="none" d="M268.394 18.981C269.762 18.981,270.829 20.048,270.829 21.416C270.829 22.784,269.762 23.906,268.394 23.906C267.026 23.906,265.904 22.784,265.904 21.416C265.904 20.048,267.026 18.981,268.394 18.981M268.394 17.859C266.424 17.859,264.81 19.446,264.81 21.416C264.81 23.386,266.424 25,268.394 25C270.364 25,271.951 23.386,271.951 21.416C271.951 19.446,270.364 17.859,268.394 17.859"/></g></g><g class="vf-stavenote" id="vf-auto25684"><path stroke-width="1.4" fill="none" stroke="#444" d="M360.334 30L379.476 30"/><g class="vf-stem" id="vf-auto25685" pointer-events="bounding-box"><path stroke-width="1.5" fill="none" d="M364.084 30L364.084 65"/></g><g class="vf-notehead" id="vf-auto25687" pointer-events="bounding-box"><path stroke="none" d="M370.775 30L374.426 27.052C374.987 27.894,375.296 28.905,375.296 30C375.296 31.207,374.903 32.359,374.201 33.229M369.877 30.758L373.443 34.072C372.516 34.886,371.253 35.391,369.933 35.391C368.473 35.391,367.097 34.802,366.114 33.847M369.006 29.972L365.384 32.948C364.822 32.106,364.514 31.095,364.514 30C364.514 28.793,364.907 27.641,365.609 26.771M369.933 29.186L366.367 25.928C367.293 25.114,368.557 24.581,369.877 24.581C371.337 24.581,372.713 25.142,373.696 26.125M369.877 23.401C366.254 23.401,363.334 26.35,363.334 30C363.334 33.65,366.254 36.543,369.877 36.543C373.527 36.543,376.476 33.65,376.476 30C376.476 26.35,373.527 23.401,369.877 23.401"/><path stroke="none" d="M369.795 10.205C368.099 10.205,366.977 11.3,366.977 12.668C366.977 14.008,367.908 14.884,369.194 14.884C370.178 14.884,370.288 15.704,370.288 15.704C370.343 15.869,370.37 15.978,370.37 16.142C370.37 16.689,370.096 17.209,369.741 17.674C369.084 18.55,368.044 19.124,367.962 19.207C367.826 19.289,367.661 19.371,367.661 19.617L367.689 19.644C367.743 19.918,367.853 20,367.962 20C369.276 20,371.273 18.276,371.902 17.291C372.696 16.06,372.942 14.692,372.942 13.543L372.942 13.269C372.942 11.409,371.601 10.205,369.795 10.205"/></g></g></svg>