<svg xmlns="http://www.w3.org/2000/svg" stroke-width="0.3" stroke-dasharray="none" fill="black" stroke="black" font-family="Arial, sans-serif" font-size="10pt" font-weight="normal" font-style="normal" width="600" height="200" viewBox="0 0 600 200" style="width: 600px; height: 200px; border: none;"><g class="vf-stave" id="vf-auto14984" stroke-width="1" fill="#999999" stroke="#999999" font-family="Arial"><path fill="none" d="M10 62L560 62"/><path fill="none" d="M10 75L560 75"/><path fill="none" d="M10 88L560 88"/><path fill="none" d="M10 101L560 101"/><path fill="none" d="M10 114L560 114"/><path fill="none" d="M10 127L560 127"/></g><g class="vf-stavebarline" id="vf-auto14985" font-family="Arial"><rect x="10" y="61.5" width="1" height="66" stroke="none"/></g><g class="vf-stavebarline" id="vf-auto14986" font-family="Arial"><rect x="560" y="61.5" width="1" height="66" stroke="none"/></g><g class="vf-tabnote" id="vf-auto14987" pointer-events="bounding-box" font-family="Arial"><rect x="28.703" y="85" width="11.422" height="6" fill="#FFF" stroke="none"/><text stroke="none" font-family="Arial, sans-serif" x="30.703" y="93">6</text><rect x="25" y="98" width="18.828" height="6" fill="#FFF" stroke="none"/><text stroke="none" font-family="Arial, sans-serif" x="27" y="106">25</text><g class="vf-stem" id="vf-auto14988" pointer-events="bounding-box"><path stroke-width="1.5" fill="none" d="M34.414 135.5L34.414 168.5"/></g></g><g class="vf-tabnote" id="vf-auto14989" pointer-events="bounding-box" font-family="Arial"><rect x="153.493" y="72" width="18.828" height="6" fill="#FFF" stroke="none"/><text stroke="none" font-family="Arial, sans-serif" x="155.493" y="80">10</text><rect x="153.493" y="111" width="18.828" height="6" fill="#FFF" stroke="none"/><text stroke="none" font-family="Arial, sans-serif" x="155.493" y="119">12</text><g class="vf-stem" id="vf-auto14990" pointer-events="bounding-box"><path stroke-width="1.5" fill="none" d="M162.907 135.5L162.907 168.5"/></g><path stroke="none" d="M171.872 137.78C172.434 139.465,172.715 141.487,172.715 143.312C172.715 145.699,171.704 149.097,171.086 150.473C169.598 153.87,167.576 157.128,162.157 158.953L162.157 168.472C162.157 168.865,162.494 169.062,162.802 169.062C163.167 169.062,163.701 168.837,163.785 168.163C164.459 164.344,167.464 160.806,169.514 157.633C172.069 153.618,174.54 148.816,174.54 143.762C174.54 140.588,173.726 137.724,173.389 136.433C173.276 135.983,173.024 135.815,172.743 135.815C172.153 135.815,171.451 136.601,171.872 137.78"/></g><g class="vf-tabnote" id="vf-auto14993" pointer-events="bounding-box" font-family="Arial"><rect x="234.095" y="59" width="11.422" height="6" fill="#FFF" stroke="none"/><text stroke="none" font-family="Arial, sans-serif" x="236.095" y="67">6</text><rect x="234.095" y="98" width="11.422" height="6" fill="#FFF" stroke="none"/><text stroke="none" font-family="Arial, sans-serif" x="236.095" y="106">5</text><g class="vf-stem" id="vf-auto14994" pointer-events="bounding-box"><path stroke-width="1.5" fill="none" d="M239.806 135.5L239.806 168.5"/></g><path stroke="none" d="M248.771 137.78C249.333 139.465,249.614 141.487,249.614 143.312C249.614 145.699,248.603 149.097,247.985 150.473C246.497 153.87,244.475 157.128,239.056 158.953L239.056 168.472C239.056 168.865,239.393 169.062,239.701 169.062C240.066 169.062,240.6 168.837,240.684 168.163C241.358 164.344,244.363 160.806,246.413 157.633C248.968 153.618,251.439 148.816,251.439 143.762C251.439 140.588,250.625 137.724,250.288 136.433C250.175 135.983,249.923 135.815,249.642 135.815C249.052 135.815,248.35 136.601,248.771 137.78"/></g><g class="vf-tabnote" id="vf-auto14997" pointer-events="bounding-box" font-family="Arial"><rect x="314.697" y="59" width="11.422" height="6" fill="#FFF" stroke="none"/><text stroke="none" font-family="Arial, sans-serif" x="316.697" y="67">6</text><rect x="314.697" y="98" width="11.422" height="6" fill="#FFF" stroke="none"/><text stroke="none" font-family="Arial, sans-serif" x="316.697" y="106">5</text><g class="vf-stem" id="vf-auto14998" pointer-events="bounding-box"><path stroke-width="1.5" fill="none" d="M320.408 135.5L320.408 168.5"/></g><path stroke="none" d="M329.373 136.713C329.963 140.111,329.963 143.79,328.419 146.935C325.639 152.607,322.353 152.719,319.854 152.803L319.658 152.803L319.658 168.472C319.658 168.668,319.938 168.865,320.332 168.865C320.64 168.865,321.062 168.781,321.146 168.332C322.129 162.098,330.103 160.385,331.058 154.011C331.142 153.59,331.17 153.084,331.17 152.579C331.17 150.108,330.3 147.665,330.16 147.44C330.132 147.356,330.132 147.272,330.132 147.159C330.132 146.991,330.16 146.906,330.16 146.794C331.62 143.762,331.676 139.802,331.03 136.545C330.805 135.618,330.525 135.674,330.047 135.674C329.57 135.703,329.233 136.04,329.373 136.713M328.784 150.051C329.008 150.051,329.289 150.192,329.317 150.332C329.514 150.641,329.514 151.034,329.598 151.343C329.654 151.652,329.654 151.933,329.654 152.157C329.654 153.505,329.289 154.713,328.559 155.752C327.211 157.745,324.628 160.02,322.157 160.02L321.848 160.02C321.511 160.02,321.286 159.795,321.286 159.599C321.286 159.571,321.286 159.514,321.314 159.486C322.157 156.173,324.431 155.246,326.341 153C327.183 152.073,327.857 151.287,328.503 150.22C328.587 150.108,328.671 150.051,328.784 150.051"/></g><g class="vf-tabnote" id="vf-auto15001" pointer-events="bounding-box" font-family="Arial"><rect x="378.535" y="59" width="11.422" height="6" fill="#FFF" stroke="none"/><text stroke="none" font-family="Arial, sans-serif" x="380.535" y="67">6</text><rect x="378.535" y="98" width="11.422" height="6" fill="#FFF" stroke="none"/><text stroke="none" font-family="Arial, sans-serif" x="380.535" y="106">5</text><g class="vf-stem" id="vf-auto15002" pointer-events="bounding-box"><path stroke-width="1.5" fill="none" d="M384.246 135.5L384.246 177.5"/></g><path stroke="none" d="M394.531 141.178C394.531 140.364,394.25 135.674,392.846 135.674C392.762 135.674,392.678 135.674,392.594 135.703C392.313 135.815,392.032 136.236,392.032 136.77C392.032 136.826,392.06 136.91,392.06 137.05C392.397 138.848,392.875 140.111,392.875 141.487C392.875 142.61,392.566 143.79,391.611 145.446C388.55 150.95,385.967 151.034,383.496 151.118L383.496 174.93C383.496 175.295,383.749 175.464,384.057 175.464C384.479 175.464,384.788 175.015,384.844 174.65C385.518 170.438,387.82 169.792,389.926 167.489C392.762 164.428,393.717 163.277,394.166 160.694C394.25 160.329,394.25 159.936,394.25 159.514C394.25 157.773,393.717 156.004,393.352 154.909C393.998 153.73,394.279 152.214,394.279 150.838C394.279 148.732,393.633 146.991,393.492 146.598C393.492 146.541,393.492 146.513,393.492 146.513L393.352 146.289C393.352 146.148,393.408 146.064,393.492 145.924L393.633 145.643C394.166 144.632,394.363 144.211,394.531 141.599M385.068 157.661C385.911 154.432,387.792 153.533,389.589 151.399C390.404 150.473,391.049 149.686,391.695 148.676C391.779 148.563,391.92 148.535,392.032 148.535C392.229 148.535,392.481 148.647,392.51 148.76C392.622 149.041,392.622 149.378,392.706 149.686C392.762 150.023,392.79 150.388,392.79 150.697C392.79 154.011,389.084 158.195,385.798 158.195L385.602 158.195C385.237 158.195,385.068 157.858,385.068 157.661M392.762 158.672C392.79 158.953,392.875 159.206,392.875 159.514C392.875 160.048,392.706 160.694,392.229 161.536C389.926 165.439,387.455 166.478,385.153 166.478C385.068 166.45,385.068 166.394,385.068 166.366C385.77 162.154,387.82 161.508,389.926 159.206C390.909 158.138,391.611 157.352,392.201 156.622C392.425 157.38,392.622 158.223,392.762 158.672"/></g><g class="vf-tabnote" id="vf-auto15005" pointer-events="bounding-box" font-family="Arial"><rect x="435.348" y="59" width="11.422" height="6" fill="#FFF" stroke="none"/><text stroke="none" font-family="Arial, sans-serif" x="437.348" y="67">6</text><rect x="435.348" y="98" width="11.422" height="6" fill="#FFF" stroke="none"/><text stroke="none" font-family="Arial, sans-serif" x="437.348" y="106">5</text><g class="vf-stem" id="vf-auto15006" pointer-events="bounding-box"><path stroke-width="1.5" fill="none" d="M441.059 135.5L441.059 181.5"/></g><path stroke="none" d="M451.344 141.178C451.344 140.364,451.063 135.674,449.659 135.674C449.575 135.674,449.491 135.674,449.407 135.703C449.126 135.815,448.845 136.236,448.845 136.77C448.845 136.826,448.873 136.91,448.873 137.05C449.21 138.848,449.688 140.111,449.688 141.487C449.688 142.61,449.379 143.79,448.424 145.446C445.363 150.95,442.78 151.034,440.309 151.118L440.309 183.186C440.309 183.495,440.562 183.691,440.87 183.691C441.292 183.691,441.601 183.27,441.657 182.905C442.331 178.693,444.633 178.047,446.739 175.745C449.575 172.656,450.53 171.533,450.979 168.949C451.063 168.528,451.092 168.135,451.092 167.742C451.092 166.029,450.586 164.26,450.165 163.193C450.586 162.435,450.811 161.677,450.979 160.694C451.063 160.329,451.063 159.936,451.063 159.514C451.063 157.773,450.53 156.004,450.165 154.909C450.811 153.73,451.092 152.214,451.092 150.838C451.092 148.732,450.446 146.991,450.305 146.598C450.305 146.541,450.305 146.513,450.305 146.513L450.165 146.289C450.165 146.148,450.221 146.064,450.305 145.924L450.446 145.643C450.979 144.632,451.176 144.211,451.344 141.599M441.881 157.661C442.724 154.432,444.605 153.533,446.402 151.399C447.217 150.473,447.862 149.686,448.508 148.676C448.592 148.563,448.733 148.535,448.845 148.535C449.042 148.535,449.294 148.647,449.323 148.76C449.435 149.041,449.435 149.378,449.519 149.686C449.575 150.023,449.603 150.388,449.603 150.697C449.603 154.011,445.897 158.195,442.611 158.195L442.415 158.195C442.05 158.195,441.881 157.858,441.881 157.661M449.575 158.672C449.603 158.953,449.688 159.206,449.688 159.514C449.688 160.048,449.519 160.694,449.042 161.536C446.739 165.439,444.268 166.478,441.966 166.478C441.881 166.45,441.881 166.394,441.881 166.366C442.583 162.154,444.633 161.508,446.739 159.206C447.722 158.138,448.424 157.352,449.014 156.622C449.238 157.38,449.435 158.223,449.575 158.672M449.575 166.928C449.603 167.208,449.688 167.461,449.688 167.77C449.688 168.303,449.519 168.949,449.042 169.792C446.739 173.667,444.156 174.734,441.881 174.734C442.415 170.915,444.38 170.044,446.739 167.489C447.722 166.45,448.424 165.636,449.042 164.906"/></g><g class="vf-tabnote" id="vf-auto15009" pointer-events="bounding-box" font-family="Arial"><rect x="488.944" y="59" width="11.422" height="6" fill="#FFF" stroke="none"/><text stroke="none" font-family="Arial, sans-serif" x="490.944" y="67">6</text><rect x="488.944" y="98" width="11.422" height="6" fill="#FFF" stroke="none"/><text stroke="none" font-family="Arial, sans-serif" x="490.944" y="106">5</text><g class="vf-stem" id="vf-auto15010" pointer-events="bounding-box"><path stroke-width="1.5" fill="none" d="M494.655 135.5L494.655 190.5"/></g><path stroke="none" d="M504.94 141.178C504.94 140.364,504.659 135.674,503.255 135.674C503.171 135.674,503.087 135.674,503.003 135.703C502.722 135.815,502.441 136.236,502.441 136.77C502.441 136.826,502.469 136.91,502.469 137.05C502.806 138.848,503.283 140.111,503.283 141.487C503.283 142.61,502.975 143.79,502.02 145.446C498.959 150.95,496.376 151.034,493.905 151.118L493.905 191.413C493.905 191.75,494.101 191.947,494.466 191.947C494.831 191.947,495.196 191.498,495.253 191.132C495.926 186.949,498.229 186.303,500.335 184C503.171 180.911,504.126 179.788,504.575 177.205C504.659 176.784,504.687 176.39,504.687 175.969C504.687 174.284,504.182 172.515,503.761 171.448C504.35 170.353,504.687 168.949,504.687 167.742C504.687 166.029,504.182 164.26,503.761 163.193C504.182 162.435,504.407 161.677,504.575 160.694C504.659 160.329,504.659 159.936,504.659 159.514C504.659 157.773,504.126 156.004,503.761 154.909C504.407 153.73,504.687 152.214,504.687 150.838C504.687 148.732,504.042 146.991,503.901 146.598C503.901 146.541,503.901 146.513,503.901 146.513L503.761 146.289C503.761 146.148,503.817 146.064,503.901 145.924L504.042 145.643C504.575 144.632,504.772 144.211,504.94 141.599M495.477 157.661C496.32 154.432,498.201 153.533,499.998 151.399C500.812 150.473,501.458 149.686,502.104 148.676C502.188 148.563,502.329 148.535,502.441 148.535C502.638 148.535,502.89 148.647,502.918 148.76C503.031 149.041,503.031 149.378,503.115 149.686C503.171 150.023,503.199 150.388,503.199 150.697C503.199 154.011,499.493 158.195,496.207 158.195L496.011 158.195C495.646 158.195,495.477 157.858,495.477 157.661M503.171 158.672C503.199 158.953,503.283 159.206,503.283 159.514C503.283 160.048,503.115 160.694,502.638 161.536C500.335 165.439,497.864 166.478,495.561 166.478C495.477 166.45,495.477 166.394,495.477 166.366C496.179 162.154,498.229 161.508,500.335 159.206C501.318 158.138,502.02 157.352,502.609 156.622C502.834 157.38,503.031 158.223,503.171 158.672M503.171 166.928C503.199 167.208,503.283 167.461,503.283 167.77C503.283 168.303,503.115 168.949,502.638 169.792C500.335 173.667,497.752 174.734,495.477 174.734C496.011 170.915,497.976 170.044,500.335 167.489C501.318 166.45,502.02 165.636,502.638 164.906M503.171 175.183C503.199 175.464,503.283 175.688,503.283 176.025C503.283 176.559,503.115 177.205,502.638 178.047C500.335 181.922,497.752 182.989,495.477 182.989C496.011 179.17,497.976 178.272,500.335 175.745C501.318 174.678,502.02 173.891,502.638 173.161"/></g></svg>